<?xml version="1.0" encoding="utf-8" standalone="no"?>
<!DOCTYPE svg PUBLIC "-//W3C//DTD SVG 1.1//EN"
  "http://www.w3.org/Graphics/SVG/1.1/DTD/svg11.dtd">
<!-- Created with matplotlib (http://matplotlib.org/) -->
<svg height="345.6pt" version="1.1" viewBox="0 0 460.8 345.6" width="460.8pt" xmlns="http://www.w3.org/2000/svg" xmlns:xlink="http://www.w3.org/1999/xlink">
 <defs>
  <style type="text/css">
*{stroke-linecap:butt;stroke-linejoin:round;}
  </style>
 </defs>
 <g id="figure_1">
  <g id="patch_1">
   <path d="M 0 345.6 
L 460.8 345.6 
L 460.8 0 
L 0 0 
z
" style="fill:#ffffff;"/>
  </g>
  <g id="axes_1">
   <g id="patch_2">
    <path d="M 57.6 307.584 
L 414.72 307.584 
L 414.72 41.472 
L 57.6 41.472 
z
" style="fill:#ffffff;"/>
   </g>
   <g id="matplotlib.axis_1">
    <g id="xtick_1">
     <g id="line2d_1">
      <defs>
       <path d="M 0 0 
L 0 3.5 
" id="m5d0f574c29" style="stroke:#000000;stroke-width:0.8;"/>
      </defs>
      <g>
       <use style="stroke:#000000;stroke-width:0.8;" x="73.399277" xlink:href="#m5d0f574c29" y="307.584"/>
      </g>
     </g>
     <g id="text_1">
      <!-- 0.0 -->
      <defs>
       <path d="M 31.78125 66.40625 
Q 24.171875 66.40625 20.328125 58.90625 
Q 16.5 51.421875 16.5 36.375 
Q 16.5 21.390625 20.328125 13.890625 
Q 24.171875 6.390625 31.78125 6.390625 
Q 39.453125 6.390625 43.28125 13.890625 
Q 47.125 21.390625 47.125 36.375 
Q 47.125 51.421875 43.28125 58.90625 
Q 39.453125 66.40625 31.78125 66.40625 
z
M 31.78125 74.21875 
Q 44.046875 74.21875 50.515625 64.515625 
Q 56.984375 54.828125 56.984375 36.375 
Q 56.984375 17.96875 50.515625 8.265625 
Q 44.046875 -1.421875 31.78125 -1.421875 
Q 19.53125 -1.421875 13.0625 8.265625 
Q 6.59375 17.96875 6.59375 36.375 
Q 6.59375 54.828125 13.0625 64.515625 
Q 19.53125 74.21875 31.78125 74.21875 
z
" id="DejaVuSans-30"/>
       <path d="M 10.6875 12.40625 
L 21 12.40625 
L 21 0 
L 10.6875 0 
z
" id="DejaVuSans-2e"/>
      </defs>
      <g transform="translate(63.857402 323.702125)scale(0.12 -0.12)">
       <use xlink:href="#DejaVuSans-30"/>
       <use x="63.623047" xlink:href="#DejaVuSans-2e"/>
       <use x="95.410156" xlink:href="#DejaVuSans-30"/>
      </g>
     </g>
    </g>
    <g id="xtick_2">
     <g id="line2d_2">
      <g>
       <use style="stroke:#000000;stroke-width:0.8;" x="116.744343" xlink:href="#m5d0f574c29" y="307.584"/>
      </g>
     </g>
     <g id="text_2">
      <!-- 0.2 -->
      <defs>
       <path d="M 19.1875 8.296875 
L 53.609375 8.296875 
L 53.609375 0 
L 7.328125 0 
L 7.328125 8.296875 
Q 12.9375 14.109375 22.625 23.890625 
Q 32.328125 33.6875 34.8125 36.53125 
Q 39.546875 41.84375 41.421875 45.53125 
Q 43.3125 49.21875 43.3125 52.78125 
Q 43.3125 58.59375 39.234375 62.25 
Q 35.15625 65.921875 28.609375 65.921875 
Q 23.96875 65.921875 18.8125 64.3125 
Q 13.671875 62.703125 7.8125 59.421875 
L 7.8125 69.390625 
Q 13.765625 71.78125 18.9375 73 
Q 24.125 74.21875 28.421875 74.21875 
Q 39.75 74.21875 46.484375 68.546875 
Q 53.21875 62.890625 53.21875 53.421875 
Q 53.21875 48.921875 51.53125 44.890625 
Q 49.859375 40.875 45.40625 35.40625 
Q 44.1875 33.984375 37.640625 27.21875 
Q 31.109375 20.453125 19.1875 8.296875 
z
" id="DejaVuSans-32"/>
      </defs>
      <g transform="translate(107.202468 323.702125)scale(0.12 -0.12)">
       <use xlink:href="#DejaVuSans-30"/>
       <use x="63.623047" xlink:href="#DejaVuSans-2e"/>
       <use x="95.410156" xlink:href="#DejaVuSans-32"/>
      </g>
     </g>
    </g>
    <g id="xtick_3">
     <g id="line2d_3">
      <g>
       <use style="stroke:#000000;stroke-width:0.8;" x="160.089409" xlink:href="#m5d0f574c29" y="307.584"/>
      </g>
     </g>
     <g id="text_3">
      <!-- 0.4 -->
      <defs>
       <path d="M 37.796875 64.3125 
L 12.890625 25.390625 
L 37.796875 25.390625 
z
M 35.203125 72.90625 
L 47.609375 72.90625 
L 47.609375 25.390625 
L 58.015625 25.390625 
L 58.015625 17.1875 
L 47.609375 17.1875 
L 47.609375 0 
L 37.796875 0 
L 37.796875 17.1875 
L 4.890625 17.1875 
L 4.890625 26.703125 
z
" id="DejaVuSans-34"/>
      </defs>
      <g transform="translate(150.547534 323.702125)scale(0.12 -0.12)">
       <use xlink:href="#DejaVuSans-30"/>
       <use x="63.623047" xlink:href="#DejaVuSans-2e"/>
       <use x="95.410156" xlink:href="#DejaVuSans-34"/>
      </g>
     </g>
    </g>
    <g id="xtick_4">
     <g id="line2d_4">
      <g>
       <use style="stroke:#000000;stroke-width:0.8;" x="203.434475" xlink:href="#m5d0f574c29" y="307.584"/>
      </g>
     </g>
     <g id="text_4">
      <!-- 0.6 -->
      <defs>
       <path d="M 33.015625 40.375 
Q 26.375 40.375 22.484375 35.828125 
Q 18.609375 31.296875 18.609375 23.390625 
Q 18.609375 15.53125 22.484375 10.953125 
Q 26.375 6.390625 33.015625 6.390625 
Q 39.65625 6.390625 43.53125 10.953125 
Q 47.40625 15.53125 47.40625 23.390625 
Q 47.40625 31.296875 43.53125 35.828125 
Q 39.65625 40.375 33.015625 40.375 
z
M 52.59375 71.296875 
L 52.59375 62.3125 
Q 48.875 64.0625 45.09375 64.984375 
Q 41.3125 65.921875 37.59375 65.921875 
Q 27.828125 65.921875 22.671875 59.328125 
Q 17.53125 52.734375 16.796875 39.40625 
Q 19.671875 43.65625 24.015625 45.921875 
Q 28.375 48.1875 33.59375 48.1875 
Q 44.578125 48.1875 50.953125 41.515625 
Q 57.328125 34.859375 57.328125 23.390625 
Q 57.328125 12.15625 50.6875 5.359375 
Q 44.046875 -1.421875 33.015625 -1.421875 
Q 20.359375 -1.421875 13.671875 8.265625 
Q 6.984375 17.96875 6.984375 36.375 
Q 6.984375 53.65625 15.1875 63.9375 
Q 23.390625 74.21875 37.203125 74.21875 
Q 40.921875 74.21875 44.703125 73.484375 
Q 48.484375 72.75 52.59375 71.296875 
z
" id="DejaVuSans-36"/>
      </defs>
      <g transform="translate(193.8926 323.702125)scale(0.12 -0.12)">
       <use xlink:href="#DejaVuSans-30"/>
       <use x="63.623047" xlink:href="#DejaVuSans-2e"/>
       <use x="95.410156" xlink:href="#DejaVuSans-36"/>
      </g>
     </g>
    </g>
    <g id="xtick_5">
     <g id="line2d_5">
      <g>
       <use style="stroke:#000000;stroke-width:0.8;" x="246.779541" xlink:href="#m5d0f574c29" y="307.584"/>
      </g>
     </g>
     <g id="text_5">
      <!-- 0.8 -->
      <defs>
       <path d="M 31.78125 34.625 
Q 24.75 34.625 20.71875 30.859375 
Q 16.703125 27.09375 16.703125 20.515625 
Q 16.703125 13.921875 20.71875 10.15625 
Q 24.75 6.390625 31.78125 6.390625 
Q 38.8125 6.390625 42.859375 10.171875 
Q 46.921875 13.96875 46.921875 20.515625 
Q 46.921875 27.09375 42.890625 30.859375 
Q 38.875 34.625 31.78125 34.625 
z
M 21.921875 38.8125 
Q 15.578125 40.375 12.03125 44.71875 
Q 8.5 49.078125 8.5 55.328125 
Q 8.5 64.0625 14.71875 69.140625 
Q 20.953125 74.21875 31.78125 74.21875 
Q 42.671875 74.21875 48.875 69.140625 
Q 55.078125 64.0625 55.078125 55.328125 
Q 55.078125 49.078125 51.53125 44.71875 
Q 48 40.375 41.703125 38.8125 
Q 48.828125 37.15625 52.796875 32.3125 
Q 56.78125 27.484375 56.78125 20.515625 
Q 56.78125 9.90625 50.3125 4.234375 
Q 43.84375 -1.421875 31.78125 -1.421875 
Q 19.734375 -1.421875 13.25 4.234375 
Q 6.78125 9.90625 6.78125 20.515625 
Q 6.78125 27.484375 10.78125 32.3125 
Q 14.796875 37.15625 21.921875 38.8125 
z
M 18.3125 54.390625 
Q 18.3125 48.734375 21.84375 45.5625 
Q 25.390625 42.390625 31.78125 42.390625 
Q 38.140625 42.390625 41.71875 45.5625 
Q 45.3125 48.734375 45.3125 54.390625 
Q 45.3125 60.0625 41.71875 63.234375 
Q 38.140625 66.40625 31.78125 66.40625 
Q 25.390625 66.40625 21.84375 63.234375 
Q 18.3125 60.0625 18.3125 54.390625 
z
" id="DejaVuSans-38"/>
      </defs>
      <g transform="translate(237.237666 323.702125)scale(0.12 -0.12)">
       <use xlink:href="#DejaVuSans-30"/>
       <use x="63.623047" xlink:href="#DejaVuSans-2e"/>
       <use x="95.410156" xlink:href="#DejaVuSans-38"/>
      </g>
     </g>
    </g>
    <g id="xtick_6">
     <g id="line2d_6">
      <g>
       <use style="stroke:#000000;stroke-width:0.8;" x="290.124607" xlink:href="#m5d0f574c29" y="307.584"/>
      </g>
     </g>
     <g id="text_6">
      <!-- 1.0 -->
      <defs>
       <path d="M 12.40625 8.296875 
L 28.515625 8.296875 
L 28.515625 63.921875 
L 10.984375 60.40625 
L 10.984375 69.390625 
L 28.421875 72.90625 
L 38.28125 72.90625 
L 38.28125 8.296875 
L 54.390625 8.296875 
L 54.390625 0 
L 12.40625 0 
z
" id="DejaVuSans-31"/>
      </defs>
      <g transform="translate(280.582732 323.702125)scale(0.12 -0.12)">
       <use xlink:href="#DejaVuSans-31"/>
       <use x="63.623047" xlink:href="#DejaVuSans-2e"/>
       <use x="95.410156" xlink:href="#DejaVuSans-30"/>
      </g>
     </g>
    </g>
    <g id="xtick_7">
     <g id="line2d_7">
      <g>
       <use style="stroke:#000000;stroke-width:0.8;" x="333.469674" xlink:href="#m5d0f574c29" y="307.584"/>
      </g>
     </g>
     <g id="text_7">
      <!-- 1.2 -->
      <g transform="translate(323.927799 323.702125)scale(0.12 -0.12)">
       <use xlink:href="#DejaVuSans-31"/>
       <use x="63.623047" xlink:href="#DejaVuSans-2e"/>
       <use x="95.410156" xlink:href="#DejaVuSans-32"/>
      </g>
     </g>
    </g>
    <g id="xtick_8">
     <g id="line2d_8">
      <g>
       <use style="stroke:#000000;stroke-width:0.8;" x="376.81474" xlink:href="#m5d0f574c29" y="307.584"/>
      </g>
     </g>
     <g id="text_8">
      <!-- 1.4 -->
      <g transform="translate(367.272865 323.702125)scale(0.12 -0.12)">
       <use xlink:href="#DejaVuSans-31"/>
       <use x="63.623047" xlink:href="#DejaVuSans-2e"/>
       <use x="95.410156" xlink:href="#DejaVuSans-34"/>
      </g>
     </g>
    </g>
   </g>
   <g id="matplotlib.axis_2">
    <g id="ytick_1">
     <g id="line2d_9">
      <defs>
       <path d="M 0 0 
L -3.5 0 
" id="mc1e3dd2b09" style="stroke:#000000;stroke-width:0.8;"/>
      </defs>
      <g>
       <use style="stroke:#000000;stroke-width:0.8;" x="57.6" xlink:href="#mc1e3dd2b09" y="299.396988"/>
      </g>
     </g>
     <g id="text_9">
      <!-- 0.0 -->
      <g transform="translate(31.51625 303.95605)scale(0.12 -0.12)">
       <use xlink:href="#DejaVuSans-30"/>
       <use x="63.623047" xlink:href="#DejaVuSans-2e"/>
       <use x="95.410156" xlink:href="#DejaVuSans-30"/>
      </g>
     </g>
    </g>
    <g id="ytick_2">
     <g id="line2d_10">
      <g>
       <use style="stroke:#000000;stroke-width:0.8;" x="57.6" xlink:href="#mc1e3dd2b09" y="250.23119"/>
      </g>
     </g>
     <g id="text_10">
      <!-- 0.2 -->
      <g transform="translate(31.51625 254.790253)scale(0.12 -0.12)">
       <use xlink:href="#DejaVuSans-30"/>
       <use x="63.623047" xlink:href="#DejaVuSans-2e"/>
       <use x="95.410156" xlink:href="#DejaVuSans-32"/>
      </g>
     </g>
    </g>
    <g id="ytick_3">
     <g id="line2d_11">
      <g>
       <use style="stroke:#000000;stroke-width:0.8;" x="57.6" xlink:href="#mc1e3dd2b09" y="201.065393"/>
      </g>
     </g>
     <g id="text_11">
      <!-- 0.4 -->
      <g transform="translate(31.51625 205.624455)scale(0.12 -0.12)">
       <use xlink:href="#DejaVuSans-30"/>
       <use x="63.623047" xlink:href="#DejaVuSans-2e"/>
       <use x="95.410156" xlink:href="#DejaVuSans-34"/>
      </g>
     </g>
    </g>
    <g id="ytick_4">
     <g id="line2d_12">
      <g>
       <use style="stroke:#000000;stroke-width:0.8;" x="57.6" xlink:href="#mc1e3dd2b09" y="151.899595"/>
      </g>
     </g>
     <g id="text_12">
      <!-- 0.6 -->
      <g transform="translate(31.51625 156.458658)scale(0.12 -0.12)">
       <use xlink:href="#DejaVuSans-30"/>
       <use x="63.623047" xlink:href="#DejaVuSans-2e"/>
       <use x="95.410156" xlink:href="#DejaVuSans-36"/>
      </g>
     </g>
    </g>
    <g id="ytick_5">
     <g id="line2d_13">
      <g>
       <use style="stroke:#000000;stroke-width:0.8;" x="57.6" xlink:href="#mc1e3dd2b09" y="102.733798"/>
      </g>
     </g>
     <g id="text_13">
      <!-- 0.8 -->
      <g transform="translate(31.51625 107.29286)scale(0.12 -0.12)">
       <use xlink:href="#DejaVuSans-30"/>
       <use x="63.623047" xlink:href="#DejaVuSans-2e"/>
       <use x="95.410156" xlink:href="#DejaVuSans-38"/>
      </g>
     </g>
    </g>
    <g id="ytick_6">
     <g id="line2d_14">
      <g>
       <use style="stroke:#000000;stroke-width:0.8;" x="57.6" xlink:href="#mc1e3dd2b09" y="53.568"/>
      </g>
     </g>
     <g id="text_14">
      <!-- 1.0 -->
      <g transform="translate(31.51625 58.127062)scale(0.12 -0.12)">
       <use xlink:href="#DejaVuSans-31"/>
       <use x="63.623047" xlink:href="#DejaVuSans-2e"/>
       <use x="95.410156" xlink:href="#DejaVuSans-30"/>
      </g>
     </g>
    </g>
   </g>
   <g id="line2d_15">
    <defs>
     <path d="M 0 4 
C 1.060812 4 2.078319 3.578535 2.828427 2.828427 
C 3.578535 2.078319 4 1.060812 4 0 
C 4 -1.060812 3.578535 -2.078319 2.828427 -2.828427 
C 2.078319 -3.578535 1.060812 -4 0 -4 
C -1.060812 -4 -2.078319 -3.578535 -2.828427 -2.828427 
C -3.578535 -2.078319 -4 -1.060812 -4 0 
C -4 1.060812 -3.578535 2.078319 -2.828427 2.828427 
C -2.078319 3.578535 -1.060812 4 0 4 
z
" id="m289b5f3def" style="stroke:#1f77b4;"/>
    </defs>
    <g clip-path="url(#p9bc180a6d1)">
     <use style="fill-opacity:0;stroke:#1f77b4;" x="73.832727" xlink:href="#m289b5f3def" y="53.568"/>
     <use style="fill-opacity:0;stroke:#1f77b4;" x="74.649283" xlink:href="#m289b5f3def" y="98.504255"/>
     <use style="fill-opacity:0;stroke:#1f77b4;" x="75.465839" xlink:href="#m289b5f3def" y="111.694336"/>
     <use style="fill-opacity:0;stroke:#1f77b4;" x="76.282374" xlink:href="#m289b5f3def" y="112.915162"/>
     <use style="fill-opacity:0;stroke:#1f77b4;" x="77.098995" xlink:href="#m289b5f3def" y="132.441356"/>
     <use style="fill-opacity:0;stroke:#1f77b4;" x="77.915399" xlink:href="#m289b5f3def" y="128.134486"/>
     <use style="fill-opacity:0;stroke:#1f77b4;" x="78.73202" xlink:href="#m289b5f3def" y="127.71739"/>
     <use style="fill-opacity:0;stroke:#1f77b4;" x="79.548641" xlink:href="#m289b5f3def" y="137.329348"/>
     <use style="fill-opacity:0;stroke:#1f77b4;" x="80.365045" xlink:href="#m289b5f3def" y="138.98133"/>
     <use style="fill-opacity:0;stroke:#1f77b4;" x="81.181667" xlink:href="#m289b5f3def" y="145.514274"/>
     <use style="fill-opacity:0;stroke:#1f77b4;" x="81.998288" xlink:href="#m289b5f3def" y="133.962116"/>
     <use style="fill-opacity:0;stroke:#1f77b4;" x="82.814692" xlink:href="#m289b5f3def" y="141.179286"/>
     <use style="fill-opacity:0;stroke:#1f77b4;" x="83.631313" xlink:href="#m289b5f3def" y="132.968584"/>
     <use style="fill-opacity:0;stroke:#1f77b4;" x="84.447934" xlink:href="#m289b5f3def" y="147.89266"/>
     <use style="fill-opacity:0;stroke:#1f77b4;" x="85.264338" xlink:href="#m289b5f3def" y="145.474439"/>
     <use style="fill-opacity:0;stroke:#1f77b4;" x="86.080959" xlink:href="#m289b5f3def" y="156.016662"/>
     <use style="fill-opacity:0;stroke:#1f77b4;" x="86.89758" xlink:href="#m289b5f3def" y="164.208619"/>
     <use style="fill-opacity:0;stroke:#1f77b4;" x="87.714201" xlink:href="#m289b5f3def" y="159.025379"/>
     <use style="fill-opacity:0;stroke:#1f77b4;" x="88.530606" xlink:href="#m289b5f3def" y="160.281354"/>
     <use style="fill-opacity:0;stroke:#1f77b4;" x="89.347227" xlink:href="#m289b5f3def" y="159.407326"/>
     <use style="fill-opacity:0;stroke:#1f77b4;" x="90.163848" xlink:href="#m289b5f3def" y="152.562731"/>
     <use style="fill-opacity:0;stroke:#1f77b4;" x="90.980252" xlink:href="#m289b5f3def" y="163.510334"/>
     <use style="fill-opacity:0;stroke:#1f77b4;" x="91.796873" xlink:href="#m289b5f3def" y="167.58991"/>
     <use style="fill-opacity:0;stroke:#1f77b4;" x="92.613494" xlink:href="#m289b5f3def" y="160.895282"/>
     <use style="fill-opacity:0;stroke:#1f77b4;" x="93.429899" xlink:href="#m289b5f3def" y="163.889939"/>
     <use style="fill-opacity:0;stroke:#1f77b4;" x="94.24652" xlink:href="#m289b5f3def" y="166.814298"/>
     <use style="fill-opacity:0;stroke:#1f77b4;" x="95.063141" xlink:href="#m289b5f3def" y="172.752061"/>
     <use style="fill-opacity:0;stroke:#1f77b4;" x="95.880195" xlink:href="#m289b5f3def" y="173.157441"/>
     <use style="fill-opacity:0;stroke:#1f77b4;" x="96.695082" xlink:href="#m289b5f3def" y="172.231862"/>
     <use style="fill-opacity:0;stroke:#1f77b4;" x="97.512137" xlink:href="#m289b5f3def" y="178.02903"/>
     <use style="fill-opacity:0;stroke:#1f77b4;" x="98.329191" xlink:href="#m289b5f3def" y="175.057806"/>
     <use style="fill-opacity:0;stroke:#1f77b4;" x="99.146246" xlink:href="#m289b5f3def" y="180.337119"/>
     <use style="fill-opacity:0;stroke:#1f77b4;" x="99.9633" xlink:href="#m289b5f3def" y="187.444156"/>
     <use style="fill-opacity:0;stroke:#1f77b4;" x="100.778188" xlink:href="#m289b5f3def" y="185.271976"/>
     <use style="fill-opacity:0;stroke:#1f77b4;" x="101.595242" xlink:href="#m289b5f3def" y="177.867347"/>
     <use style="fill-opacity:0;stroke:#1f77b4;" x="102.412297" xlink:href="#m289b5f3def" y="180.681575"/>
     <use style="fill-opacity:0;stroke:#1f77b4;" x="103.229351" xlink:href="#m289b5f3def" y="182.689729"/>
     <use style="fill-opacity:0;stroke:#1f77b4;" x="104.044238" xlink:href="#m289b5f3def" y="180.032498"/>
     <use style="fill-opacity:0;stroke:#1f77b4;" x="104.861293" xlink:href="#m289b5f3def" y="190.335711"/>
     <use style="fill-opacity:0;stroke:#1f77b4;" x="105.678347" xlink:href="#m289b5f3def" y="190.080298"/>
     <use style="fill-opacity:0;stroke:#1f77b4;" x="106.495402" xlink:href="#m289b5f3def" y="189.773334"/>
     <use style="fill-opacity:0;stroke:#1f77b4;" x="107.310289" xlink:href="#m289b5f3def" y="199.804731"/>
     <use style="fill-opacity:0;stroke:#1f77b4;" x="108.127344" xlink:href="#m289b5f3def" y="183.373954"/>
     <use style="fill-opacity:0;stroke:#1f77b4;" x="108.944398" xlink:href="#m289b5f3def" y="191.317527"/>
     <use style="fill-opacity:0;stroke:#1f77b4;" x="109.761453" xlink:href="#m289b5f3def" y="196.896774"/>
     <use style="fill-opacity:0;stroke:#1f77b4;" x="110.578507" xlink:href="#m289b5f3def" y="200.104666"/>
     <use style="fill-opacity:0;stroke:#1f77b4;" x="111.393394" xlink:href="#m289b5f3def" y="196.831164"/>
     <use style="fill-opacity:0;stroke:#1f77b4;" x="112.210449" xlink:href="#m289b5f3def" y="195.319776"/>
     <use style="fill-opacity:0;stroke:#1f77b4;" x="113.027503" xlink:href="#m289b5f3def" y="195.211987"/>
     <use style="fill-opacity:0;stroke:#1f77b4;" x="113.844558" xlink:href="#m289b5f3def" y="192.407132"/>
     <use style="fill-opacity:0;stroke:#1f77b4;" x="114.659445" xlink:href="#m289b5f3def" y="197.124068"/>
     <use style="fill-opacity:0;stroke:#1f77b4;" x="115.4765" xlink:href="#m289b5f3def" y="218.395973"/>
     <use style="fill-opacity:0;stroke:#1f77b4;" x="116.293554" xlink:href="#m289b5f3def" y="199.228295"/>
     <use style="fill-opacity:0;stroke:#1f77b4;" x="117.110609" xlink:href="#m289b5f3def" y="206.218171"/>
     <use style="fill-opacity:0;stroke:#1f77b4;" x="117.925496" xlink:href="#m289b5f3def" y="203.811666"/>
     <use style="fill-opacity:0;stroke:#1f77b4;" x="118.74255" xlink:href="#m289b5f3def" y="204.081139"/>
     <use style="fill-opacity:0;stroke:#1f77b4;" x="119.559605" xlink:href="#m289b5f3def" y="208.076358"/>
     <use style="fill-opacity:0;stroke:#1f77b4;" x="120.376659" xlink:href="#m289b5f3def" y="209.620551"/>
     <use style="fill-opacity:0;stroke:#1f77b4;" x="121.193714" xlink:href="#m289b5f3def" y="206.663386"/>
     <use style="fill-opacity:0;stroke:#1f77b4;" x="122.008601" xlink:href="#m289b5f3def" y="204.409192"/>
     <use style="fill-opacity:0;stroke:#1f77b4;" x="122.825656" xlink:href="#m289b5f3def" y="214.942042"/>
     <use style="fill-opacity:0;stroke:#1f77b4;" x="123.64271" xlink:href="#m289b5f3def" y="202.921236"/>
     <use style="fill-opacity:0;stroke:#1f77b4;" x="124.459765" xlink:href="#m289b5f3def" y="211.19052"/>
     <use style="fill-opacity:0;stroke:#1f77b4;" x="125.274652" xlink:href="#m289b5f3def" y="206.243946"/>
     <use style="fill-opacity:0;stroke:#1f77b4;" x="126.091706" xlink:href="#m289b5f3def" y="212.244976"/>
     <use style="fill-opacity:0;stroke:#1f77b4;" x="126.908761" xlink:href="#m289b5f3def" y="206.063517"/>
     <use style="fill-opacity:0;stroke:#1f77b4;" x="127.725815" xlink:href="#m289b5f3def" y="212.978409"/>
     <use style="fill-opacity:0;stroke:#1f77b4;" x="128.540703" xlink:href="#m289b5f3def" y="225.390535"/>
     <use style="fill-opacity:0;stroke:#1f77b4;" x="129.357757" xlink:href="#m289b5f3def" y="220.183863"/>
     <use style="fill-opacity:0;stroke:#1f77b4;" x="130.174812" xlink:href="#m289b5f3def" y="225.779513"/>
     <use style="fill-opacity:0;stroke:#1f77b4;" x="130.991866" xlink:href="#m289b5f3def" y="222.733305"/>
     <use style="fill-opacity:0;stroke:#1f77b4;" x="131.808921" xlink:href="#m289b5f3def" y="217.82188"/>
     <use style="fill-opacity:0;stroke:#1f77b4;" x="132.623808" xlink:href="#m289b5f3def" y="224.521195"/>
     <use style="fill-opacity:0;stroke:#1f77b4;" x="133.440862" xlink:href="#m289b5f3def" y="213.135406"/>
     <use style="fill-opacity:0;stroke:#1f77b4;" x="134.257917" xlink:href="#m289b5f3def" y="214.271876"/>
     <use style="fill-opacity:0;stroke:#1f77b4;" x="135.074971" xlink:href="#m289b5f3def" y="224.411062"/>
     <use style="fill-opacity:0;stroke:#1f77b4;" x="135.889858" xlink:href="#m289b5f3def" y="222.156868"/>
     <use style="fill-opacity:0;stroke:#1f77b4;" x="136.706913" xlink:href="#m289b5f3def" y="211.703688"/>
     <use style="fill-opacity:0;stroke:#1f77b4;" x="137.523967" xlink:href="#m289b5f3def" y="217.114223"/>
     <use style="fill-opacity:0;stroke:#1f77b4;" x="138.341022" xlink:href="#m289b5f3def" y="226.618392"/>
     <use style="fill-opacity:0;stroke:#1f77b4;" x="139.155909" xlink:href="#m289b5f3def" y="222.543503"/>
     <use style="fill-opacity:0;stroke:#1f77b4;" x="139.972964" xlink:href="#m289b5f3def" y="223.328487"/>
     <use style="fill-opacity:0;stroke:#1f77b4;" x="140.790018" xlink:href="#m289b5f3def" y="224.851591"/>
     <use style="fill-opacity:0;stroke:#1f77b4;" x="141.607073" xlink:href="#m289b5f3def" y="226.955818"/>
     <use style="fill-opacity:0;stroke:#1f77b4;" x="142.42196" xlink:href="#m289b5f3def" y="225.226509"/>
     <use style="fill-opacity:0;stroke:#1f77b4;" x="143.239014" xlink:href="#m289b5f3def" y="225.718589"/>
     <use style="fill-opacity:0;stroke:#1f77b4;" x="144.056069" xlink:href="#m289b5f3def" y="238.128371"/>
     <use style="fill-opacity:0;stroke:#1f77b4;" x="144.873123" xlink:href="#m289b5f3def" y="224.291557"/>
     <use style="fill-opacity:0;stroke:#1f77b4;" x="145.690178" xlink:href="#m289b5f3def" y="230.105128"/>
     <use style="fill-opacity:0;stroke:#1f77b4;" x="146.505065" xlink:href="#m289b5f3def" y="225.915421"/>
     <use style="fill-opacity:0;stroke:#1f77b4;" x="147.32212" xlink:href="#m289b5f3def" y="234.224539"/>
     <use style="fill-opacity:0;stroke:#1f77b4;" x="148.139174" xlink:href="#m289b5f3def" y="233.601238"/>
     <use style="fill-opacity:0;stroke:#1f77b4;" x="148.956229" xlink:href="#m289b5f3def" y="225.264001"/>
     <use style="fill-opacity:0;stroke:#1f77b4;" x="149.771116" xlink:href="#m289b5f3def" y="227.440868"/>
     <use style="fill-opacity:0;stroke:#1f77b4;" x="150.58817" xlink:href="#m289b5f3def" y="228.324268"/>
     <use style="fill-opacity:0;stroke:#1f77b4;" x="151.405225" xlink:href="#m289b5f3def" y="229.076447"/>
     <use style="fill-opacity:0;stroke:#1f77b4;" x="152.222279" xlink:href="#m289b5f3def" y="226.562154"/>
     <use style="fill-opacity:0;stroke:#1f77b4;" x="153.037167" xlink:href="#m289b5f3def" y="231.754767"/>
     <use style="fill-opacity:0;stroke:#1f77b4;" x="153.854221" xlink:href="#m289b5f3def" y="236.115531"/>
     <use style="fill-opacity:0;stroke:#1f77b4;" x="154.671276" xlink:href="#m289b5f3def" y="226.944102"/>
     <use style="fill-opacity:0;stroke:#1f77b4;" x="154.671276" xlink:href="#m289b5f3def" y="226.946445"/>
     <use style="fill-opacity:0;stroke:#1f77b4;" x="157.133275" xlink:href="#m289b5f3def" y="234.060512"/>
     <use style="fill-opacity:0;stroke:#1f77b4;" x="159.597442" xlink:href="#m289b5f3def" y="244.853462"/>
     <use style="fill-opacity:0;stroke:#1f77b4;" x="162.059442" xlink:href="#m289b5f3def" y="238.271309"/>
     <use style="fill-opacity:0;stroke:#1f77b4;" x="164.521442" xlink:href="#m289b5f3def" y="243.363163"/>
     <use style="fill-opacity:0;stroke:#1f77b4;" x="166.985609" xlink:href="#m289b5f3def" y="231.478265"/>
     <use style="fill-opacity:0;stroke:#1f77b4;" x="169.447609" xlink:href="#m289b5f3def" y="236.05695"/>
     <use style="fill-opacity:0;stroke:#1f77b4;" x="171.911776" xlink:href="#m289b5f3def" y="250.088253"/>
     <use style="fill-opacity:0;stroke:#1f77b4;" x="174.373775" xlink:href="#m289b5f3def" y="236.825532"/>
     <use style="fill-opacity:0;stroke:#1f77b4;" x="176.835775" xlink:href="#m289b5f3def" y="244.417619"/>
     <use style="fill-opacity:0;stroke:#1f77b4;" x="179.299942" xlink:href="#m289b5f3def" y="242.278244"/>
     <use style="fill-opacity:0;stroke:#1f77b4;" x="181.761942" xlink:href="#m289b5f3def" y="243.82478"/>
     <use style="fill-opacity:0;stroke:#1f77b4;" x="184.223942" xlink:href="#m289b5f3def" y="244.677719"/>
     <use style="fill-opacity:0;stroke:#1f77b4;" x="186.688109" xlink:href="#m289b5f3def" y="262.598795"/>
     <use style="fill-opacity:0;stroke:#1f77b4;" x="189.150109" xlink:href="#m289b5f3def" y="250.149177"/>
     <use style="fill-opacity:0;stroke:#1f77b4;" x="191.612108" xlink:href="#m289b5f3def" y="258.069318"/>
     <use style="fill-opacity:0;stroke:#1f77b4;" x="194.076275" xlink:href="#m289b5f3def" y="249.43449"/>
     <use style="fill-opacity:0;stroke:#1f77b4;" x="196.538275" xlink:href="#m289b5f3def" y="251.163799"/>
     <use style="fill-opacity:0;stroke:#1f77b4;" x="199.002442" xlink:href="#m289b5f3def" y="253.907729"/>
     <use style="fill-opacity:0;stroke:#1f77b4;" x="201.464442" xlink:href="#m289b5f3def" y="266.251901"/>
     <use style="fill-opacity:0;stroke:#1f77b4;" x="203.926442" xlink:href="#m289b5f3def" y="259.775194"/>
     <use style="fill-opacity:0;stroke:#1f77b4;" x="206.390609" xlink:href="#m289b5f3def" y="256.147864"/>
     <use style="fill-opacity:0;stroke:#1f77b4;" x="208.852608" xlink:href="#m289b5f3def" y="258.373939"/>
     <use style="fill-opacity:0;stroke:#1f77b4;" x="211.314608" xlink:href="#m289b5f3def" y="258.059945"/>
     <use style="fill-opacity:0;stroke:#1f77b4;" x="213.778775" xlink:href="#m289b5f3def" y="260.161828"/>
     <use style="fill-opacity:0;stroke:#1f77b4;" x="216.240775" xlink:href="#m289b5f3def" y="259.041761"/>
     <use style="fill-opacity:0;stroke:#1f77b4;" x="218.702775" xlink:href="#m289b5f3def" y="260.403182"/>
     <use style="fill-opacity:0;stroke:#1f77b4;" x="221.166942" xlink:href="#m289b5f3def" y="267.088437"/>
     <use style="fill-opacity:0;stroke:#1f77b4;" x="223.628941" xlink:href="#m289b5f3def" y="261.27018"/>
     <use style="fill-opacity:0;stroke:#1f77b4;" x="226.093108" xlink:href="#m289b5f3def" y="257.546776"/>
     <use style="fill-opacity:0;stroke:#1f77b4;" x="228.555108" xlink:href="#m289b5f3def" y="256.190042"/>
     <use style="fill-opacity:0;stroke:#1f77b4;" x="231.017108" xlink:href="#m289b5f3def" y="259.358098"/>
     <use style="fill-opacity:0;stroke:#1f77b4;" x="233.481275" xlink:href="#m289b5f3def" y="256.916445"/>
     <use style="fill-opacity:0;stroke:#1f77b4;" x="235.943275" xlink:href="#m289b5f3def" y="265.769194"/>
     <use style="fill-opacity:0;stroke:#1f77b4;" x="238.405274" xlink:href="#m289b5f3def" y="256.330636"/>
     <use style="fill-opacity:0;stroke:#1f77b4;" x="240.869441" xlink:href="#m289b5f3def" y="264.135958"/>
     <use style="fill-opacity:0;stroke:#1f77b4;" x="243.331441" xlink:href="#m289b5f3def" y="270.933689"/>
     <use style="fill-opacity:0;stroke:#1f77b4;" x="245.793441" xlink:href="#m289b5f3def" y="263.807905"/>
     <use style="fill-opacity:0;stroke:#1f77b4;" x="248.257608" xlink:href="#m289b5f3def" y="273.487817"/>
     <use style="fill-opacity:0;stroke:#1f77b4;" x="250.719608" xlink:href="#m289b5f3def" y="269.872202"/>
     <use style="fill-opacity:0;stroke:#1f77b4;" x="253.183775" xlink:href="#m289b5f3def" y="279.14486"/>
     <use style="fill-opacity:0;stroke:#1f77b4;" x="255.645774" xlink:href="#m289b5f3def" y="253.694495"/>
     <use style="fill-opacity:0;stroke:#1f77b4;" x="258.107774" xlink:href="#m289b5f3def" y="277.250587"/>
     <use style="fill-opacity:0;stroke:#1f77b4;" x="260.571941" xlink:href="#m289b5f3def" y="276.497939"/>
     <use style="fill-opacity:0;stroke:#1f77b4;" x="263.033941" xlink:href="#m289b5f3def" y="261.075691"/>
     <use style="fill-opacity:0;stroke:#1f77b4;" x="265.495941" xlink:href="#m289b5f3def" y="281.347034"/>
     <use style="fill-opacity:0;stroke:#1f77b4;" x="267.960108" xlink:href="#m289b5f3def" y="273.471414"/>
     <use style="fill-opacity:0;stroke:#1f77b4;" x="270.422108" xlink:href="#m289b5f3def" y="262.976056"/>
     <use style="fill-opacity:0;stroke:#1f77b4;" x="272.884107" xlink:href="#m289b5f3def" y="275.013264"/>
     <use style="fill-opacity:0;stroke:#1f77b4;" x="275.348274" xlink:href="#m289b5f3def" y="274.940624"/>
     <use style="fill-opacity:0;stroke:#1f77b4;" x="277.810274" xlink:href="#m289b5f3def" y="276.914567"/>
     <use style="fill-opacity:0;stroke:#1f77b4;" x="280.274441" xlink:href="#m289b5f3def" y="262.678465"/>
     <use style="fill-opacity:0;stroke:#1f77b4;" x="282.736441" xlink:href="#m289b5f3def" y="271.011016"/>
     <use style="fill-opacity:0;stroke:#1f77b4;" x="285.198441" xlink:href="#m289b5f3def" y="270.190883"/>
     <use style="fill-opacity:0;stroke:#1f77b4;" x="287.662608" xlink:href="#m289b5f3def" y="274.811746"/>
     <use style="fill-opacity:0;stroke:#1f77b4;" x="290.124607" xlink:href="#m289b5f3def" y="261.18348"/>
     <use style="fill-opacity:0;stroke:#1f77b4;" x="292.595276" xlink:href="#m289b5f3def" y="266.455763"/>
     <use style="fill-opacity:0;stroke:#1f77b4;" x="295.044272" xlink:href="#m289b5f3def" y="274.129864"/>
     <use style="fill-opacity:0;stroke:#1f77b4;" x="297.514941" xlink:href="#m289b5f3def" y="284.579998"/>
     <use style="fill-opacity:0;stroke:#1f77b4;" x="299.98561" xlink:href="#m289b5f3def" y="273.604979"/>
     <use style="fill-opacity:0;stroke:#1f77b4;" x="302.434606" xlink:href="#m289b5f3def" y="272.363063"/>
     <use style="fill-opacity:0;stroke:#1f77b4;" x="304.905275" xlink:href="#m289b5f3def" y="270.472071"/>
     <use style="fill-opacity:0;stroke:#1f77b4;" x="307.354271" xlink:href="#m289b5f3def" y="271.493722"/>
     <use style="fill-opacity:0;stroke:#1f77b4;" x="309.82494" xlink:href="#m289b5f3def" y="268.817746"/>
     <use style="fill-opacity:0;stroke:#1f77b4;" x="312.295609" xlink:href="#m289b5f3def" y="275.428017"/>
     <use style="fill-opacity:0;stroke:#1f77b4;" x="314.744605" xlink:href="#m289b5f3def" y="276.252837"/>
     <use style="fill-opacity:0;stroke:#1f77b4;" x="317.215274" xlink:href="#m289b5f3def" y="284.8408"/>
     <use style="fill-opacity:0;stroke:#1f77b4;" x="319.685942" xlink:href="#m289b5f3def" y="264.899854"/>
     <use style="fill-opacity:0;stroke:#1f77b4;" x="322.134939" xlink:href="#m289b5f3def" y="278.833678"/>
     <use style="fill-opacity:0;stroke:#1f77b4;" x="324.605607" xlink:href="#m289b5f3def" y="282.691583"/>
     <use style="fill-opacity:0;stroke:#1f77b4;" x="327.076276" xlink:href="#m289b5f3def" y="275.181977"/>
     <use style="fill-opacity:0;stroke:#1f77b4;" x="329.525272" xlink:href="#m289b5f3def" y="286.178788"/>
     <use style="fill-opacity:0;stroke:#1f77b4;" x="331.995941" xlink:href="#m289b5f3def" y="267.840616"/>
     <use style="fill-opacity:0;stroke:#1f77b4;" x="334.444937" xlink:href="#m289b5f3def" y="277.072735"/>
     <use style="fill-opacity:0;stroke:#1f77b4;" x="336.915606" xlink:href="#m289b5f3def" y="271.866297"/>
     <use style="fill-opacity:0;stroke:#1f77b4;" x="339.386275" xlink:href="#m289b5f3def" y="274.162669"/>
     <use style="fill-opacity:0;stroke:#1f77b4;" x="341.835271" xlink:href="#m289b5f3def" y="285.163932"/>
     <use style="fill-opacity:0;stroke:#1f77b4;" x="344.30594" xlink:href="#m289b5f3def" y="292.614957"/>
     <use style="fill-opacity:0;stroke:#1f77b4;" x="346.776609" xlink:href="#m289b5f3def" y="280.503703"/>
     <use style="fill-opacity:0;stroke:#1f77b4;" x="349.225605" xlink:href="#m289b5f3def" y="269.963589"/>
     <use style="fill-opacity:0;stroke:#1f77b4;" x="351.696274" xlink:href="#m289b5f3def" y="274.319666"/>
     <use style="fill-opacity:0;stroke:#1f77b4;" x="354.166943" xlink:href="#m289b5f3def" y="286.809588"/>
     <use style="fill-opacity:0;stroke:#1f77b4;" x="356.615939" xlink:href="#m289b5f3def" y="284.162667"/>
     <use style="fill-opacity:0;stroke:#1f77b4;" x="359.086608" xlink:href="#m289b5f3def" y="295.488"/>
     <use style="fill-opacity:0;stroke:#1f77b4;" x="361.535604" xlink:href="#m289b5f3def" y="289.390663"/>
     <use style="fill-opacity:0;stroke:#1f77b4;" x="364.006273" xlink:href="#m289b5f3def" y="282.755553"/>
     <use style="fill-opacity:0;stroke:#1f77b4;" x="366.476941" xlink:href="#m289b5f3def" y="283.305511"/>
     <use style="fill-opacity:0;stroke:#1f77b4;" x="368.925938" xlink:href="#m289b5f3def" y="278.713235"/>
     <use style="fill-opacity:0;stroke:#1f77b4;" x="371.396606" xlink:href="#m289b5f3def" y="292.911142"/>
     <use style="fill-opacity:0;stroke:#1f77b4;" x="373.867275" xlink:href="#m289b5f3def" y="285.250866"/>
     <use style="fill-opacity:0;stroke:#1f77b4;" x="376.316271" xlink:href="#m289b5f3def" y="276.329929"/>
     <use style="fill-opacity:0;stroke:#1f77b4;" x="378.78694" xlink:href="#m289b5f3def" y="285.701471"/>
     <use style="fill-opacity:0;stroke:#1f77b4;" x="381.257609" xlink:href="#m289b5f3def" y="275.163231"/>
     <use style="fill-opacity:0;stroke:#1f77b4;" x="383.706605" xlink:href="#m289b5f3def" y="283.86203"/>
     <use style="fill-opacity:0;stroke:#1f77b4;" x="386.177274" xlink:href="#m289b5f3def" y="289.641624"/>
     <use style="fill-opacity:0;stroke:#1f77b4;" x="388.62627" xlink:href="#m289b5f3def" y="283.543584"/>
     <use style="fill-opacity:0;stroke:#1f77b4;" x="391.096939" xlink:href="#m289b5f3def" y="278.404631"/>
     <use style="fill-opacity:0;stroke:#1f77b4;" x="393.567608" xlink:href="#m289b5f3def" y="289.639046"/>
     <use style="fill-opacity:0;stroke:#1f77b4;" x="396.016604" xlink:href="#m289b5f3def" y="282.883026"/>
     <use style="fill-opacity:0;stroke:#1f77b4;" x="398.487273" xlink:href="#m289b5f3def" y="283.762677"/>
    </g>
   </g>
   <g id="line2d_16">
    <path clip-path="url(#p9bc180a6d1)" d="M 73.832727 72.974019 
L 74.649283 87.928835 
L 75.465839 97.738108 
L 76.282374 105.395365 
L 77.915399 117.330833 
L 79.548641 126.681245 
L 81.181667 134.457347 
L 82.814692 141.152503 
L 84.447934 147.049947 
L 86.080959 152.327762 
L 88.530606 159.342472 
L 90.980252 165.512104 
L 93.429899 171.019801 
L 95.880195 175.994145 
L 98.329191 180.523947 
L 100.778188 184.681621 
L 104.044238 189.738878 
L 107.310289 194.327071 
L 110.578507 198.523065 
L 113.844558 202.378898 
L 117.110609 205.943132 
L 121.193714 210.044402 
L 125.274652 213.803062 
L 129.357757 217.269182 
L 133.440862 220.478026 
L 138.341022 224.032181 
L 143.239014 227.301843 
L 148.139174 230.325347 
L 153.854221 233.577561 
L 159.597442 236.585065 
L 166.985609 240.120403 
L 174.373775 243.331031 
L 181.761942 246.261456 
L 189.150109 248.947943 
L 196.538275 251.420417 
L 203.926442 253.703859 
L 213.778775 256.490711 
L 223.628941 259.019448 
L 233.481275 261.325053 
L 243.331441 263.434493 
L 255.645774 265.831709 
L 267.960108 267.997186 
L 280.274441 269.961819 
L 295.044272 272.08893 
L 309.82494 274.001251 
L 327.076276 275.998788 
L 344.30594 277.777913 
L 364.006273 279.587218 
L 386.177274 281.380523 
L 398.487273 282.280353 
L 398.487273 282.280353 
" style="fill:none;stroke:#ff7f0e;stroke-linecap:square;stroke-width:2;"/>
   </g>
   <g id="line2d_17">
    <path clip-path="url(#p9bc180a6d1)" d="M 73.832727 132.986738 
L 78.73202 141.573528 
L 83.631313 149.717238 
L 88.530606 157.440732 
L 93.429899 164.765692 
L 98.329191 171.712683 
L 103.229351 178.302345 
L 108.127344 184.549228 
L 113.027503 190.476408 
L 117.925496 196.095271 
L 123.64271 202.288357 
L 129.357757 208.108019 
L 135.074971 213.580924 
L 140.790018 218.72383 
L 146.505065 223.558524 
L 152.222279 228.105149 
L 157.133275 231.792373 
L 162.059442 235.299409 
L 169.447609 240.22112 
L 176.835775 244.764919 
L 184.223942 248.959824 
L 191.612108 252.832625 
L 199.002442 256.409061 
L 206.390609 259.709875 
L 213.778775 262.757236 
L 221.166942 265.570607 
L 228.555108 268.167955 
L 235.943275 270.565865 
L 243.331441 272.779653 
L 253.183775 275.469609 
L 263.033941 277.887213 
L 272.884107 280.060544 
L 282.736441 282.014691 
L 292.595276 283.77245 
L 304.905275 285.719831 
L 317.215274 287.424498 
L 329.525272 288.916702 
L 344.30594 290.464781 
L 359.086608 291.784187 
L 376.316271 293.078271 
L 393.567608 294.153605 
L 398.487273 294.425259 
L 398.487273 294.425259 
" style="fill:none;stroke:#ff0000;stroke-dasharray:7.4,3.2;stroke-dashoffset:0;stroke-width:2;"/>
   </g>
   <g id="patch_3">
    <path d="M 57.6 307.584 
L 57.6 41.472 
" style="fill:none;stroke:#000000;stroke-linecap:square;stroke-linejoin:miter;stroke-width:0.8;"/>
   </g>
   <g id="patch_4">
    <path d="M 414.72 307.584 
L 414.72 41.472 
" style="fill:none;stroke:#000000;stroke-linecap:square;stroke-linejoin:miter;stroke-width:0.8;"/>
   </g>
   <g id="patch_5">
    <path d="M 57.6 307.584 
L 414.72 307.584 
" style="fill:none;stroke:#000000;stroke-linecap:square;stroke-linejoin:miter;stroke-width:0.8;"/>
   </g>
   <g id="patch_6">
    <path d="M 57.6 41.472 
L 414.72 41.472 
" style="fill:none;stroke:#000000;stroke-linecap:square;stroke-linejoin:miter;stroke-width:0.8;"/>
   </g>
   <g id="legend_1">
    <g id="patch_7">
     <path d="M 265.027813 78.82825 
L 407.72 78.82825 
Q 409.72 78.82825 409.72 76.82825 
L 409.72 48.472 
Q 409.72 46.472 407.72 46.472 
L 265.027813 46.472 
Q 263.027813 46.472 263.027813 48.472 
L 263.027813 76.82825 
Q 263.027813 78.82825 265.027813 78.82825 
z
" style="fill:#ffffff;opacity:0.8;stroke:#cccccc;stroke-linejoin:miter;"/>
    </g>
    <g id="line2d_18">
     <path d="M 267.027813 54.570437 
L 287.027813 54.570437 
" style="fill:none;stroke:#ff7f0e;stroke-linecap:square;stroke-width:2;"/>
    </g>
    <g id="line2d_19"/>
    <g id="text_15">
     <!-- stretch exponential fit -->
     <defs>
      <path d="M 44.28125 53.078125 
L 44.28125 44.578125 
Q 40.484375 46.53125 36.375 47.5 
Q 32.28125 48.484375 27.875 48.484375 
Q 21.1875 48.484375 17.84375 46.4375 
Q 14.5 44.390625 14.5 40.28125 
Q 14.5 37.15625 16.890625 35.375 
Q 19.28125 33.59375 26.515625 31.984375 
L 29.59375 31.296875 
Q 39.15625 29.25 43.1875 25.515625 
Q 47.21875 21.78125 47.21875 15.09375 
Q 47.21875 7.46875 41.1875 3.015625 
Q 35.15625 -1.421875 24.609375 -1.421875 
Q 20.21875 -1.421875 15.453125 -0.5625 
Q 10.6875 0.296875 5.421875 2 
L 5.421875 11.28125 
Q 10.40625 8.6875 15.234375 7.390625 
Q 20.0625 6.109375 24.8125 6.109375 
Q 31.15625 6.109375 34.5625 8.28125 
Q 37.984375 10.453125 37.984375 14.40625 
Q 37.984375 18.0625 35.515625 20.015625 
Q 33.0625 21.96875 24.703125 23.78125 
L 21.578125 24.515625 
Q 13.234375 26.265625 9.515625 29.90625 
Q 5.8125 33.546875 5.8125 39.890625 
Q 5.8125 47.609375 11.28125 51.796875 
Q 16.75 56 26.8125 56 
Q 31.78125 56 36.171875 55.265625 
Q 40.578125 54.546875 44.28125 53.078125 
z
" id="DejaVuSans-73"/>
      <path d="M 18.3125 70.21875 
L 18.3125 54.6875 
L 36.8125 54.6875 
L 36.8125 47.703125 
L 18.3125 47.703125 
L 18.3125 18.015625 
Q 18.3125 11.328125 20.140625 9.421875 
Q 21.96875 7.515625 27.59375 7.515625 
L 36.8125 7.515625 
L 36.8125 0 
L 27.59375 0 
Q 17.1875 0 13.234375 3.875 
Q 9.28125 7.765625 9.28125 18.015625 
L 9.28125 47.703125 
L 2.6875 47.703125 
L 2.6875 54.6875 
L 9.28125 54.6875 
L 9.28125 70.21875 
z
" id="DejaVuSans-74"/>
      <path d="M 41.109375 46.296875 
Q 39.59375 47.171875 37.8125 47.578125 
Q 36.03125 48 33.890625 48 
Q 26.265625 48 22.1875 43.046875 
Q 18.109375 38.09375 18.109375 28.8125 
L 18.109375 0 
L 9.078125 0 
L 9.078125 54.6875 
L 18.109375 54.6875 
L 18.109375 46.1875 
Q 20.953125 51.171875 25.484375 53.578125 
Q 30.03125 56 36.53125 56 
Q 37.453125 56 38.578125 55.875 
Q 39.703125 55.765625 41.0625 55.515625 
z
" id="DejaVuSans-72"/>
      <path d="M 56.203125 29.59375 
L 56.203125 25.203125 
L 14.890625 25.203125 
Q 15.484375 15.921875 20.484375 11.0625 
Q 25.484375 6.203125 34.421875 6.203125 
Q 39.59375 6.203125 44.453125 7.46875 
Q 49.3125 8.734375 54.109375 11.28125 
L 54.109375 2.78125 
Q 49.265625 0.734375 44.1875 -0.34375 
Q 39.109375 -1.421875 33.890625 -1.421875 
Q 20.796875 -1.421875 13.15625 6.1875 
Q 5.515625 13.8125 5.515625 26.8125 
Q 5.515625 40.234375 12.765625 48.109375 
Q 20.015625 56 32.328125 56 
Q 43.359375 56 49.78125 48.890625 
Q 56.203125 41.796875 56.203125 29.59375 
z
M 47.21875 32.234375 
Q 47.125 39.59375 43.09375 43.984375 
Q 39.0625 48.390625 32.421875 48.390625 
Q 24.90625 48.390625 20.390625 44.140625 
Q 15.875 39.890625 15.1875 32.171875 
z
" id="DejaVuSans-65"/>
      <path d="M 48.78125 52.59375 
L 48.78125 44.1875 
Q 44.96875 46.296875 41.140625 47.34375 
Q 37.3125 48.390625 33.40625 48.390625 
Q 24.65625 48.390625 19.8125 42.84375 
Q 14.984375 37.3125 14.984375 27.296875 
Q 14.984375 17.28125 19.8125 11.734375 
Q 24.65625 6.203125 33.40625 6.203125 
Q 37.3125 6.203125 41.140625 7.25 
Q 44.96875 8.296875 48.78125 10.40625 
L 48.78125 2.09375 
Q 45.015625 0.34375 40.984375 -0.53125 
Q 36.96875 -1.421875 32.421875 -1.421875 
Q 20.0625 -1.421875 12.78125 6.34375 
Q 5.515625 14.109375 5.515625 27.296875 
Q 5.515625 40.671875 12.859375 48.328125 
Q 20.21875 56 33.015625 56 
Q 37.15625 56 41.109375 55.140625 
Q 45.0625 54.296875 48.78125 52.59375 
z
" id="DejaVuSans-63"/>
      <path d="M 54.890625 33.015625 
L 54.890625 0 
L 45.90625 0 
L 45.90625 32.71875 
Q 45.90625 40.484375 42.875 44.328125 
Q 39.84375 48.1875 33.796875 48.1875 
Q 26.515625 48.1875 22.3125 43.546875 
Q 18.109375 38.921875 18.109375 30.90625 
L 18.109375 0 
L 9.078125 0 
L 9.078125 75.984375 
L 18.109375 75.984375 
L 18.109375 46.1875 
Q 21.34375 51.125 25.703125 53.5625 
Q 30.078125 56 35.796875 56 
Q 45.21875 56 50.046875 50.171875 
Q 54.890625 44.34375 54.890625 33.015625 
z
" id="DejaVuSans-68"/>
      <path id="DejaVuSans-20"/>
      <path d="M 54.890625 54.6875 
L 35.109375 28.078125 
L 55.90625 0 
L 45.3125 0 
L 29.390625 21.484375 
L 13.484375 0 
L 2.875 0 
L 24.125 28.609375 
L 4.6875 54.6875 
L 15.28125 54.6875 
L 29.78125 35.203125 
L 44.28125 54.6875 
z
" id="DejaVuSans-78"/>
      <path d="M 18.109375 8.203125 
L 18.109375 -20.796875 
L 9.078125 -20.796875 
L 9.078125 54.6875 
L 18.109375 54.6875 
L 18.109375 46.390625 
Q 20.953125 51.265625 25.265625 53.625 
Q 29.59375 56 35.59375 56 
Q 45.5625 56 51.78125 48.09375 
Q 58.015625 40.1875 58.015625 27.296875 
Q 58.015625 14.40625 51.78125 6.484375 
Q 45.5625 -1.421875 35.59375 -1.421875 
Q 29.59375 -1.421875 25.265625 0.953125 
Q 20.953125 3.328125 18.109375 8.203125 
z
M 48.6875 27.296875 
Q 48.6875 37.203125 44.609375 42.84375 
Q 40.53125 48.484375 33.40625 48.484375 
Q 26.265625 48.484375 22.1875 42.84375 
Q 18.109375 37.203125 18.109375 27.296875 
Q 18.109375 17.390625 22.1875 11.75 
Q 26.265625 6.109375 33.40625 6.109375 
Q 40.53125 6.109375 44.609375 11.75 
Q 48.6875 17.390625 48.6875 27.296875 
z
" id="DejaVuSans-70"/>
      <path d="M 30.609375 48.390625 
Q 23.390625 48.390625 19.1875 42.75 
Q 14.984375 37.109375 14.984375 27.296875 
Q 14.984375 17.484375 19.15625 11.84375 
Q 23.34375 6.203125 30.609375 6.203125 
Q 37.796875 6.203125 41.984375 11.859375 
Q 46.1875 17.53125 46.1875 27.296875 
Q 46.1875 37.015625 41.984375 42.703125 
Q 37.796875 48.390625 30.609375 48.390625 
z
M 30.609375 56 
Q 42.328125 56 49.015625 48.375 
Q 55.71875 40.765625 55.71875 27.296875 
Q 55.71875 13.875 49.015625 6.21875 
Q 42.328125 -1.421875 30.609375 -1.421875 
Q 18.84375 -1.421875 12.171875 6.21875 
Q 5.515625 13.875 5.515625 27.296875 
Q 5.515625 40.765625 12.171875 48.375 
Q 18.84375 56 30.609375 56 
z
" id="DejaVuSans-6f"/>
      <path d="M 54.890625 33.015625 
L 54.890625 0 
L 45.90625 0 
L 45.90625 32.71875 
Q 45.90625 40.484375 42.875 44.328125 
Q 39.84375 48.1875 33.796875 48.1875 
Q 26.515625 48.1875 22.3125 43.546875 
Q 18.109375 38.921875 18.109375 30.90625 
L 18.109375 0 
L 9.078125 0 
L 9.078125 54.6875 
L 18.109375 54.6875 
L 18.109375 46.1875 
Q 21.34375 51.125 25.703125 53.5625 
Q 30.078125 56 35.796875 56 
Q 45.21875 56 50.046875 50.171875 
Q 54.890625 44.34375 54.890625 33.015625 
z
" id="DejaVuSans-6e"/>
      <path d="M 9.421875 54.6875 
L 18.40625 54.6875 
L 18.40625 0 
L 9.421875 0 
z
M 9.421875 75.984375 
L 18.40625 75.984375 
L 18.40625 64.59375 
L 9.421875 64.59375 
z
" id="DejaVuSans-69"/>
      <path d="M 34.28125 27.484375 
Q 23.390625 27.484375 19.1875 25 
Q 14.984375 22.515625 14.984375 16.5 
Q 14.984375 11.71875 18.140625 8.90625 
Q 21.296875 6.109375 26.703125 6.109375 
Q 34.1875 6.109375 38.703125 11.40625 
Q 43.21875 16.703125 43.21875 25.484375 
L 43.21875 27.484375 
z
M 52.203125 31.203125 
L 52.203125 0 
L 43.21875 0 
L 43.21875 8.296875 
Q 40.140625 3.328125 35.546875 0.953125 
Q 30.953125 -1.421875 24.3125 -1.421875 
Q 15.921875 -1.421875 10.953125 3.296875 
Q 6 8.015625 6 15.921875 
Q 6 25.140625 12.171875 29.828125 
Q 18.359375 34.515625 30.609375 34.515625 
L 43.21875 34.515625 
L 43.21875 35.40625 
Q 43.21875 41.609375 39.140625 45 
Q 35.0625 48.390625 27.6875 48.390625 
Q 23 48.390625 18.546875 47.265625 
Q 14.109375 46.140625 10.015625 43.890625 
L 10.015625 52.203125 
Q 14.9375 54.109375 19.578125 55.046875 
Q 24.21875 56 28.609375 56 
Q 40.484375 56 46.34375 49.84375 
Q 52.203125 43.703125 52.203125 31.203125 
z
" id="DejaVuSans-61"/>
      <path d="M 9.421875 75.984375 
L 18.40625 75.984375 
L 18.40625 0 
L 9.421875 0 
z
" id="DejaVuSans-6c"/>
      <path d="M 37.109375 75.984375 
L 37.109375 68.5 
L 28.515625 68.5 
Q 23.6875 68.5 21.796875 66.546875 
Q 19.921875 64.59375 19.921875 59.515625 
L 19.921875 54.6875 
L 34.71875 54.6875 
L 34.71875 47.703125 
L 19.921875 47.703125 
L 19.921875 0 
L 10.890625 0 
L 10.890625 47.703125 
L 2.296875 47.703125 
L 2.296875 54.6875 
L 10.890625 54.6875 
L 10.890625 58.5 
Q 10.890625 67.625 15.140625 71.796875 
Q 19.390625 75.984375 28.609375 75.984375 
z
" id="DejaVuSans-66"/>
     </defs>
     <g transform="translate(295.027813 58.070437)scale(0.1 -0.1)">
      <use xlink:href="#DejaVuSans-73"/>
      <use x="52.099609" xlink:href="#DejaVuSans-74"/>
      <use x="91.308594" xlink:href="#DejaVuSans-72"/>
      <use x="132.390625" xlink:href="#DejaVuSans-65"/>
      <use x="193.914062" xlink:href="#DejaVuSans-74"/>
      <use x="233.123047" xlink:href="#DejaVuSans-63"/>
      <use x="288.103516" xlink:href="#DejaVuSans-68"/>
      <use x="351.482422" xlink:href="#DejaVuSans-20"/>
      <use x="383.269531" xlink:href="#DejaVuSans-65"/>
      <use x="444.777344" xlink:href="#DejaVuSans-78"/>
      <use x="503.957031" xlink:href="#DejaVuSans-70"/>
      <use x="567.433594" xlink:href="#DejaVuSans-6f"/>
      <use x="628.615234" xlink:href="#DejaVuSans-6e"/>
      <use x="691.994141" xlink:href="#DejaVuSans-65"/>
      <use x="753.517578" xlink:href="#DejaVuSans-6e"/>
      <use x="816.896484" xlink:href="#DejaVuSans-74"/>
      <use x="856.105469" xlink:href="#DejaVuSans-69"/>
      <use x="883.888672" xlink:href="#DejaVuSans-61"/>
      <use x="945.167969" xlink:href="#DejaVuSans-6c"/>
      <use x="972.951172" xlink:href="#DejaVuSans-20"/>
      <use x="1004.738281" xlink:href="#DejaVuSans-66"/>
      <use x="1039.943359" xlink:href="#DejaVuSans-69"/>
      <use x="1067.726562" xlink:href="#DejaVuSans-74"/>
     </g>
    </g>
    <g id="line2d_20">
     <path d="M 267.027813 69.248562 
L 287.027813 69.248562 
" style="fill:none;stroke:#ff0000;stroke-dasharray:7.4,3.2;stroke-dashoffset:0;stroke-width:2;"/>
    </g>
    <g id="line2d_21"/>
    <g id="text_16">
     <!-- exponential fit -->
     <g transform="translate(295.027813 72.748562)scale(0.1 -0.1)">
      <use xlink:href="#DejaVuSans-65"/>
      <use x="61.507812" xlink:href="#DejaVuSans-78"/>
      <use x="120.6875" xlink:href="#DejaVuSans-70"/>
      <use x="184.164062" xlink:href="#DejaVuSans-6f"/>
      <use x="245.345703" xlink:href="#DejaVuSans-6e"/>
      <use x="308.724609" xlink:href="#DejaVuSans-65"/>
      <use x="370.248047" xlink:href="#DejaVuSans-6e"/>
      <use x="433.626953" xlink:href="#DejaVuSans-74"/>
      <use x="472.835938" xlink:href="#DejaVuSans-69"/>
      <use x="500.619141" xlink:href="#DejaVuSans-61"/>
      <use x="561.898438" xlink:href="#DejaVuSans-6c"/>
      <use x="589.681641" xlink:href="#DejaVuSans-20"/>
      <use x="621.46875" xlink:href="#DejaVuSans-66"/>
      <use x="656.673828" xlink:href="#DejaVuSans-69"/>
      <use x="684.457031" xlink:href="#DejaVuSans-74"/>
     </g>
    </g>
   </g>
  </g>
 </g>
 <defs>
  <clipPath id="p9bc180a6d1">
   <rect height="266.112" width="357.12" x="57.6" y="41.472"/>
  </clipPath>
 </defs>
</svg>
