<?xml version="1.0" encoding="utf-8" standalone="no"?>
<!DOCTYPE svg PUBLIC "-//W3C//DTD SVG 1.1//EN"
  "http://www.w3.org/Graphics/SVG/1.1/DTD/svg11.dtd">
<svg xmlns:xlink="http://www.w3.org/1999/xlink" width="432pt" height="288pt" viewBox="0 0 432 288" xmlns="http://www.w3.org/2000/svg" version="1.1">
 <metadata>
  <rdf:RDF xmlns:dc="http://purl.org/dc/elements/1.1/" xmlns:cc="http://creativecommons.org/ns#" xmlns:rdf="http://www.w3.org/1999/02/22-rdf-syntax-ns#">
   <cc:Work>
    <dc:type rdf:resource="http://purl.org/dc/dcmitype/StillImage"/>
    <dc:date>2022-04-29T16:20:39.451700</dc:date>
    <dc:format>image/svg+xml</dc:format>
    <dc:creator>
     <cc:Agent>
      <dc:title>Matplotlib v3.5.1, https://matplotlib.org/</dc:title>
     </cc:Agent>
    </dc:creator>
   </cc:Work>
  </rdf:RDF>
 </metadata>
 <defs>
  <style type="text/css">*{stroke-linejoin: round; stroke-linecap: butt}</style>
 </defs>
 <g id="figure_1">
  <g id="patch_1">
   <path d="M 0 288 
L 432 288 
L 432 0 
L 0 0 
z
" style="fill: #ffffff"/>
  </g>
  <g id="axes_1">
   <g id="patch_2">
    <path d="M 54 256.32 
L 388.8 256.32 
L 388.8 34.56 
L 54 34.56 
z
" style="fill: #ffffff"/>
   </g>
   <g id="matplotlib.axis_1">
    <g id="xtick_1">
     <g id="line2d_1">
      <defs>
       <path id="mb06b00173c" d="M 0 0 
L 0 3.5 
" style="stroke: #000000; stroke-width: 0.8"/>
      </defs>
      <g>
       <use xlink:href="#mb06b00173c" x="64.957091" y="256.32" style="stroke: #000000; stroke-width: 0.8"/>
      </g>
     </g>
     <g id="text_1">
      <!-- −150 -->
      <g transform="translate(48.476778 272.438125)scale(0.12 -0.12)">
       <defs>
        <path id="DejaVuSans-2212" d="M 678 2272 
L 4684 2272 
L 4684 1741 
L 678 1741 
L 678 2272 
z
" transform="scale(0.015625)"/>
        <path id="DejaVuSans-31" d="M 794 531 
L 1825 531 
L 1825 4091 
L 703 3866 
L 703 4441 
L 1819 4666 
L 2450 4666 
L 2450 531 
L 3481 531 
L 3481 0 
L 794 0 
L 794 531 
z
" transform="scale(0.015625)"/>
        <path id="DejaVuSans-35" d="M 691 4666 
L 3169 4666 
L 3169 4134 
L 1269 4134 
L 1269 2991 
Q 1406 3038 1543 3061 
Q 1681 3084 1819 3084 
Q 2600 3084 3056 2656 
Q 3513 2228 3513 1497 
Q 3513 744 3044 326 
Q 2575 -91 1722 -91 
Q 1428 -91 1123 -41 
Q 819 9 494 109 
L 494 744 
Q 775 591 1075 516 
Q 1375 441 1709 441 
Q 2250 441 2565 725 
Q 2881 1009 2881 1497 
Q 2881 1984 2565 2268 
Q 2250 2553 1709 2553 
Q 1456 2553 1204 2497 
Q 953 2441 691 2322 
L 691 4666 
z
" transform="scale(0.015625)"/>
        <path id="DejaVuSans-30" d="M 2034 4250 
Q 1547 4250 1301 3770 
Q 1056 3291 1056 2328 
Q 1056 1369 1301 889 
Q 1547 409 2034 409 
Q 2525 409 2770 889 
Q 3016 1369 3016 2328 
Q 3016 3291 2770 3770 
Q 2525 4250 2034 4250 
z
M 2034 4750 
Q 2819 4750 3233 4129 
Q 3647 3509 3647 2328 
Q 3647 1150 3233 529 
Q 2819 -91 2034 -91 
Q 1250 -91 836 529 
Q 422 1150 422 2328 
Q 422 3509 836 4129 
Q 1250 4750 2034 4750 
z
" transform="scale(0.015625)"/>
       </defs>
       <use xlink:href="#DejaVuSans-2212"/>
       <use xlink:href="#DejaVuSans-31" x="83.789062"/>
       <use xlink:href="#DejaVuSans-35" x="147.412109"/>
       <use xlink:href="#DejaVuSans-30" x="211.035156"/>
      </g>
     </g>
    </g>
    <g id="xtick_2">
     <g id="line2d_2">
      <g>
       <use xlink:href="#mb06b00173c" x="115.684364" y="256.32" style="stroke: #000000; stroke-width: 0.8"/>
      </g>
     </g>
     <g id="text_2">
      <!-- −100 -->
      <g transform="translate(99.204051 272.438125)scale(0.12 -0.12)">
       <use xlink:href="#DejaVuSans-2212"/>
       <use xlink:href="#DejaVuSans-31" x="83.789062"/>
       <use xlink:href="#DejaVuSans-30" x="147.412109"/>
       <use xlink:href="#DejaVuSans-30" x="211.035156"/>
      </g>
     </g>
    </g>
    <g id="xtick_3">
     <g id="line2d_3">
      <g>
       <use xlink:href="#mb06b00173c" x="166.411636" y="256.32" style="stroke: #000000; stroke-width: 0.8"/>
      </g>
     </g>
     <g id="text_3">
      <!-- −50 -->
      <g transform="translate(153.748824 272.438125)scale(0.12 -0.12)">
       <use xlink:href="#DejaVuSans-2212"/>
       <use xlink:href="#DejaVuSans-35" x="83.789062"/>
       <use xlink:href="#DejaVuSans-30" x="147.412109"/>
      </g>
     </g>
    </g>
    <g id="xtick_4">
     <g id="line2d_4">
      <g>
       <use xlink:href="#mb06b00173c" x="217.138909" y="256.32" style="stroke: #000000; stroke-width: 0.8"/>
      </g>
     </g>
     <g id="text_4">
      <!-- 0 -->
      <g transform="translate(213.321409 272.438125)scale(0.12 -0.12)">
       <use xlink:href="#DejaVuSans-30"/>
      </g>
     </g>
    </g>
    <g id="xtick_5">
     <g id="line2d_5">
      <g>
       <use xlink:href="#mb06b00173c" x="267.866182" y="256.32" style="stroke: #000000; stroke-width: 0.8"/>
      </g>
     </g>
     <g id="text_5">
      <!-- 50 -->
      <g transform="translate(260.231182 272.438125)scale(0.12 -0.12)">
       <use xlink:href="#DejaVuSans-35"/>
       <use xlink:href="#DejaVuSans-30" x="63.623047"/>
      </g>
     </g>
    </g>
    <g id="xtick_6">
     <g id="line2d_6">
      <g>
       <use xlink:href="#mb06b00173c" x="318.593455" y="256.32" style="stroke: #000000; stroke-width: 0.8"/>
      </g>
     </g>
     <g id="text_6">
      <!-- 100 -->
      <g transform="translate(307.140955 272.438125)scale(0.12 -0.12)">
       <use xlink:href="#DejaVuSans-31"/>
       <use xlink:href="#DejaVuSans-30" x="63.623047"/>
       <use xlink:href="#DejaVuSans-30" x="127.246094"/>
      </g>
     </g>
    </g>
    <g id="xtick_7">
     <g id="line2d_7">
      <g>
       <use xlink:href="#mb06b00173c" x="369.320727" y="256.32" style="stroke: #000000; stroke-width: 0.8"/>
      </g>
     </g>
     <g id="text_7">
      <!-- 150 -->
      <g transform="translate(357.868227 272.438125)scale(0.12 -0.12)">
       <use xlink:href="#DejaVuSans-31"/>
       <use xlink:href="#DejaVuSans-35" x="63.623047"/>
       <use xlink:href="#DejaVuSans-30" x="127.246094"/>
      </g>
     </g>
    </g>
   </g>
   <g id="matplotlib.axis_2">
    <g id="ytick_1">
     <g id="line2d_8">
      <defs>
       <path id="mc74ba8c437" d="M 0 0 
L -3.5 0 
" style="stroke: #000000; stroke-width: 0.8"/>
      </defs>
      <g>
       <use xlink:href="#mc74ba8c437" x="54" y="238.549173" style="stroke: #000000; stroke-width: 0.8"/>
      </g>
     </g>
     <g id="text_8">
      <!-- 0.96 -->
      <g transform="translate(20.28125 243.108236)scale(0.12 -0.12)">
       <defs>
        <path id="DejaVuSans-2e" d="M 684 794 
L 1344 794 
L 1344 0 
L 684 0 
L 684 794 
z
" transform="scale(0.015625)"/>
        <path id="DejaVuSans-39" d="M 703 97 
L 703 672 
Q 941 559 1184 500 
Q 1428 441 1663 441 
Q 2288 441 2617 861 
Q 2947 1281 2994 2138 
Q 2813 1869 2534 1725 
Q 2256 1581 1919 1581 
Q 1219 1581 811 2004 
Q 403 2428 403 3163 
Q 403 3881 828 4315 
Q 1253 4750 1959 4750 
Q 2769 4750 3195 4129 
Q 3622 3509 3622 2328 
Q 3622 1225 3098 567 
Q 2575 -91 1691 -91 
Q 1453 -91 1209 -44 
Q 966 3 703 97 
z
M 1959 2075 
Q 2384 2075 2632 2365 
Q 2881 2656 2881 3163 
Q 2881 3666 2632 3958 
Q 2384 4250 1959 4250 
Q 1534 4250 1286 3958 
Q 1038 3666 1038 3163 
Q 1038 2656 1286 2365 
Q 1534 2075 1959 2075 
z
" transform="scale(0.015625)"/>
        <path id="DejaVuSans-36" d="M 2113 2584 
Q 1688 2584 1439 2293 
Q 1191 2003 1191 1497 
Q 1191 994 1439 701 
Q 1688 409 2113 409 
Q 2538 409 2786 701 
Q 3034 994 3034 1497 
Q 3034 2003 2786 2293 
Q 2538 2584 2113 2584 
z
M 3366 4563 
L 3366 3988 
Q 3128 4100 2886 4159 
Q 2644 4219 2406 4219 
Q 1781 4219 1451 3797 
Q 1122 3375 1075 2522 
Q 1259 2794 1537 2939 
Q 1816 3084 2150 3084 
Q 2853 3084 3261 2657 
Q 3669 2231 3669 1497 
Q 3669 778 3244 343 
Q 2819 -91 2113 -91 
Q 1303 -91 875 529 
Q 447 1150 447 2328 
Q 447 3434 972 4092 
Q 1497 4750 2381 4750 
Q 2619 4750 2861 4703 
Q 3103 4656 3366 4563 
z
" transform="scale(0.015625)"/>
       </defs>
       <use xlink:href="#DejaVuSans-30"/>
       <use xlink:href="#DejaVuSans-2e" x="63.623047"/>
       <use xlink:href="#DejaVuSans-39" x="95.410156"/>
       <use xlink:href="#DejaVuSans-36" x="159.033203"/>
      </g>
     </g>
    </g>
    <g id="ytick_2">
     <g id="line2d_9">
      <g>
       <use xlink:href="#mc74ba8c437" x="54" y="190.07188" style="stroke: #000000; stroke-width: 0.8"/>
      </g>
     </g>
     <g id="text_9">
      <!-- 0.97 -->
      <g transform="translate(20.28125 194.630942)scale(0.12 -0.12)">
       <defs>
        <path id="DejaVuSans-37" d="M 525 4666 
L 3525 4666 
L 3525 4397 
L 1831 0 
L 1172 0 
L 2766 4134 
L 525 4134 
L 525 4666 
z
" transform="scale(0.015625)"/>
       </defs>
       <use xlink:href="#DejaVuSans-30"/>
       <use xlink:href="#DejaVuSans-2e" x="63.623047"/>
       <use xlink:href="#DejaVuSans-39" x="95.410156"/>
       <use xlink:href="#DejaVuSans-37" x="159.033203"/>
      </g>
     </g>
    </g>
    <g id="ytick_3">
     <g id="line2d_10">
      <g>
       <use xlink:href="#mc74ba8c437" x="54" y="141.594587" style="stroke: #000000; stroke-width: 0.8"/>
      </g>
     </g>
     <g id="text_10">
      <!-- 0.98 -->
      <g transform="translate(20.28125 146.153649)scale(0.12 -0.12)">
       <defs>
        <path id="DejaVuSans-38" d="M 2034 2216 
Q 1584 2216 1326 1975 
Q 1069 1734 1069 1313 
Q 1069 891 1326 650 
Q 1584 409 2034 409 
Q 2484 409 2743 651 
Q 3003 894 3003 1313 
Q 3003 1734 2745 1975 
Q 2488 2216 2034 2216 
z
M 1403 2484 
Q 997 2584 770 2862 
Q 544 3141 544 3541 
Q 544 4100 942 4425 
Q 1341 4750 2034 4750 
Q 2731 4750 3128 4425 
Q 3525 4100 3525 3541 
Q 3525 3141 3298 2862 
Q 3072 2584 2669 2484 
Q 3125 2378 3379 2068 
Q 3634 1759 3634 1313 
Q 3634 634 3220 271 
Q 2806 -91 2034 -91 
Q 1263 -91 848 271 
Q 434 634 434 1313 
Q 434 1759 690 2068 
Q 947 2378 1403 2484 
z
M 1172 3481 
Q 1172 3119 1398 2916 
Q 1625 2713 2034 2713 
Q 2441 2713 2670 2916 
Q 2900 3119 2900 3481 
Q 2900 3844 2670 4047 
Q 2441 4250 2034 4250 
Q 1625 4250 1398 4047 
Q 1172 3844 1172 3481 
z
" transform="scale(0.015625)"/>
       </defs>
       <use xlink:href="#DejaVuSans-30"/>
       <use xlink:href="#DejaVuSans-2e" x="63.623047"/>
       <use xlink:href="#DejaVuSans-39" x="95.410156"/>
       <use xlink:href="#DejaVuSans-38" x="159.033203"/>
      </g>
     </g>
    </g>
    <g id="ytick_4">
     <g id="line2d_11">
      <g>
       <use xlink:href="#mc74ba8c437" x="54" y="93.117293" style="stroke: #000000; stroke-width: 0.8"/>
      </g>
     </g>
     <g id="text_11">
      <!-- 0.99 -->
      <g transform="translate(20.28125 97.676356)scale(0.12 -0.12)">
       <use xlink:href="#DejaVuSans-30"/>
       <use xlink:href="#DejaVuSans-2e" x="63.623047"/>
       <use xlink:href="#DejaVuSans-39" x="95.410156"/>
       <use xlink:href="#DejaVuSans-39" x="159.033203"/>
      </g>
     </g>
    </g>
    <g id="ytick_5">
     <g id="line2d_12">
      <g>
       <use xlink:href="#mc74ba8c437" x="54" y="44.64" style="stroke: #000000; stroke-width: 0.8"/>
      </g>
     </g>
     <g id="text_12">
      <!-- 1.00 -->
      <g transform="translate(20.28125 49.199062)scale(0.12 -0.12)">
       <use xlink:href="#DejaVuSans-31"/>
       <use xlink:href="#DejaVuSans-2e" x="63.623047"/>
       <use xlink:href="#DejaVuSans-30" x="95.410156"/>
       <use xlink:href="#DejaVuSans-30" x="159.033203"/>
      </g>
     </g>
    </g>
   </g>
   <g id="line2d_13">
    <path d="M 373.581818 240.021838 
L 372.973091 240.581968 
L 372.364364 240.568361 
L 371.755636 239.790529 
L 371.146909 239.371452 
L 370.538182 238.760526 
L 369.929455 237.833024 
L 369.320727 237.292396 
L 368.712 236.090045 
L 368.103273 235.815196 
L 367.494545 234.724871 
L 366.885818 234.327111 
L 365.059636 231.584063 
L 364.450909 230.759516 
L 363.842182 229.67554 
L 363.233455 229.119039 
L 362.624727 227.840945 
L 358.363636 220.922097 
L 357.754909 220.328858 
L 356.537455 218.062488 
L 355.928727 217.465621 
L 355.32 216.09455 
L 354.102545 214.137952 
L 353.493818 213.570112 
L 351.058909 209.427874 
L 349.841455 207.439527 
L 348.624 205.064305 
L 348.015273 204.5713 
L 347.406545 202.676384 
L 346.189091 200.766954 
L 345.580364 199.526051 
L 344.362909 197.666965 
L 342.536727 194.458125 
L 341.928 193.359183 
L 341.319273 191.908288 
L 338.275636 186.789111 
L 337.666909 186.017176 
L 335.232 181.277617 
L 332.797091 177.408414 
L 331.579636 175.254069 
L 330.970909 173.463922 
L 330.362182 172.888372 
L 329.144727 170.338081 
L 328.536 168.605534 
L 327.927273 167.326534 
L 327.318545 166.509697 
L 325.492364 162.010518 
L 324.883636 161.108414 
L 323.666182 158.305952 
L 321.231273 153.775025 
L 320.622545 152.364496 
L 319.405091 150.389755 
L 318.796364 149.056329 
L 317.578909 146.822614 
L 316.970182 145.360834 
L 314.535273 141.325179 
L 313.926545 139.832559 
L 310.274182 132.711882 
L 309.665455 130.987499 
L 308.448 128.761948 
L 307.839273 127.156394 
L 306.013091 123.529384 
L 305.404364 121.63855 
L 304.795636 120.7945 
L 303.578182 118.560785 
L 302.969455 117.653692 
L 301.752 115.023124 
L 301.143273 113.980875 
L 300.534545 112.529073 
L 299.925818 111.678674 
L 298.708364 108.45396 
L 298.099636 107.66615 
L 296.882182 104.636914 
L 296.273455 103.450891 
L 295.664727 102.750162 
L 295.056 100.87883 
L 293.838545 99.129502 
L 293.229818 97.498096 
L 292.621091 96.670374 
L 291.403636 94.311027 
L 290.794909 92.512716 
L 290.186182 91.6986 
L 289.577455 90.260405 
L 288.968727 89.531556 
L 288.36 88.211736 
L 287.751273 87.477898 
L 287.142545 85.854203 
L 286.533818 84.914455 
L 285.316364 82.114714 
L 284.707636 81.28926 
L 284.098909 79.744481 
L 279.229091 70.778778 
L 278.620364 70.148349 
L 278.011636 68.535992 
L 275.576727 65.317628 
L 274.359273 63.44811 
L 273.750545 62.727879 
L 273.141818 61.682908 
L 272.533091 60.899634 
L 271.924364 59.756697 
L 270.098182 57.406874 
L 269.489455 56.551032 
L 268.880727 56.446716 
L 268.272 55.198104 
L 267.054545 53.835651 
L 266.445818 53.275974 
L 264.010909 50.251274 
L 263.402182 50.522042 
L 262.793455 49.614949 
L 262.184727 49.407678 
L 260.358545 47.844304 
L 259.749818 47.640662 
L 259.141091 46.813847 
L 258.532364 46.64921 
L 257.923636 46.207002 
L 257.314909 46.339891 
L 256.706182 45.930339 
L 256.097455 45.925804 
L 255.488727 46.241925 
L 254.88 45.750281 
L 254.271273 45.756631 
L 253.662545 46.025584 
L 253.053818 45.98794 
L 252.445091 46.275034 
L 251.836364 46.406563 
L 251.227636 46.942654 
L 250.618909 46.972135 
L 250.010182 47.4792 
L 248.792727 48.205781 
L 248.184 49.132829 
L 247.575273 49.638533 
L 246.357818 51.333889 
L 245.749091 52.534426 
L 245.140364 53.183451 
L 242.096727 58.616935 
L 241.488 60.384405 
L 239.661818 64.707155 
L 237.835636 69.977362 
L 236.618182 74.179015 
L 236.009455 75.531036 
L 235.400727 77.503962 
L 234.792 79.874649 
L 233.574545 83.800999 
L 232.965818 85.62879 
L 231.139636 92.219271 
L 230.530909 93.784006 
L 228.096 103.663604 
L 226.269818 111.838776 
L 225.661091 114.228057 
L 219.573818 142.526623 
L 218.965091 144.029222 
L 217.747636 146.58677 
L 217.138909 146.773177 
L 216.530182 146.469301 
L 215.921455 145.354484 
L 214.704 141.380966 
L 213.486545 136.001907 
L 211.660364 125.881022 
L 211.051636 123.181968 
L 209.834182 116.639109 
L 209.225455 113.271528 
L 206.181818 100.684259 
L 205.573091 98.790703 
L 204.355636 93.99808 
L 203.746909 91.642814 
L 203.138182 89.806859 
L 201.920727 85.650107 
L 197.659636 71.611489 
L 195.833455 65.717656 
L 195.224727 64.366995 
L 194.007273 60.890563 
L 192.789818 58.063155 
L 191.572364 55.076553 
L 190.354909 52.69861 
L 189.137455 50.587352 
L 188.528727 49.975518 
L 187.92 49.189523 
L 187.311273 48.733709 
L 186.093818 47.329076 
L 185.485091 46.970774 
L 184.267636 45.83192 
L 183.658909 45.577934 
L 183.050182 45.504913 
L 182.441455 44.91621 
L 181.832727 44.722545 
L 181.224 44.901696 
L 180.615273 44.67583 
L 178.789091 44.64 
L 177.571636 45.456837 
L 176.962909 45.670911 
L 176.354182 46.068671 
L 175.745455 46.300886 
L 175.136727 46.994359 
L 174.528 47.255601 
L 173.310545 48.135028 
L 172.701818 47.91415 
L 170.875636 50.301164 
L 170.266909 50.395502 
L 169.658182 50.666269 
L 169.049455 51.660896 
L 168.440727 51.888576 
L 167.223273 53.538578 
L 166.614545 53.895519 
L 166.005818 55.018499 
L 165.397091 55.403106 
L 162.962182 58.866386 
L 162.353455 59.66372 
L 161.744727 60.788968 
L 161.136 61.378125 
L 160.527273 62.481603 
L 159.918545 63.053525 
L 159.309818 64.465868 
L 156.874909 67.789001 
L 156.266182 69.242617 
L 155.657455 69.947882 
L 153.831273 73.165339 
L 153.222545 73.744064 
L 152.005091 76.255803 
L 149.570182 80.900117 
L 148.961455 81.809477 
L 147.744 83.968357 
L 147.135273 85.489552 
L 145.917818 87.755469 
L 145.309091 89.240379 
L 144.700364 90.359278 
L 144.091636 91.768446 
L 143.482909 92.355335 
L 142.265455 95.402712 
L 141.656727 96.107977 
L 141.048 97.269962 
L 140.439273 98.671874 
L 139.830545 99.716391 
L 139.221818 101.464812 
L 138.613091 102.415898 
L 138.004364 103.873142 
L 137.395636 104.804727 
L 136.786909 106.487837 
L 135.569455 108.728809 
L 134.960727 110.293543 
L 134.352 111.446458 
L 133.743273 112.955407 
L 133.134545 113.886083 
L 132.525818 115.484381 
L 131.308364 117.92582 
L 130.699636 119.478309 
L 129.482182 121.577321 
L 128.264727 124.169792 
L 127.656 126.243405 
L 125.829818 129.558828 
L 125.221091 131.540372 
L 124.612364 132.539988 
L 124.003636 134.176383 
L 122.786182 136.753886 
L 122.177455 138.166683 
L 121.568727 139.218003 
L 119.742545 143.514447 
L 119.133818 144.425622 
L 118.525091 146.149551 
L 116.698909 149.835068 
L 115.481455 152.551357 
L 113.046545 157.499547 
L 111.829091 159.496964 
L 107.568 168.647714 
L 106.959273 170.571204 
L 105.741818 172.80628 
L 105.133091 174.084373 
L 103.915636 177.141275 
L 103.306909 178.287386 
L 102.698182 179.718325 
L 100.872 182.937596 
L 100.263273 184.490085 
L 97.828364 189.416505 
L 97.219636 190.312712 
L 96.610909 191.730952 
L 96.002182 192.481117 
L 94.784727 195.291743 
L 94.176 196.298163 
L 91.132364 202.670488 
L 90.523636 203.623388 
L 87.48 210.074631 
L 86.871273 211.007122 
L 86.262545 212.459831 
L 83.827636 216.955835 
L 81.392727 221.891325 
L 80.175273 223.938633 
L 79.566545 225.005374 
L 77.740364 228.880927 
L 77.131636 229.940865 
L 75.914182 232.281617 
L 75.305455 233.244496 
L 74.696727 234.769318 
L 73.479273 236.715032 
L 72.261818 239.201373 
L 71.653091 239.784633 
L 69.826909 243.502352 
L 69.218182 244.36409 
L 69.218182 244.36409 
" clip-path="url(#p0a1d965703)" style="fill: none; stroke: #1f77b4; stroke-width: 1.5; stroke-linecap: square"/>
   </g>
   <g id="line2d_14">
    <path d="M 373.581818 242.730057 
L 372.364364 243.480632 
L 371.755636 242.005837 
L 371.146909 242.193768 
L 369.929455 240.480622 
L 369.320727 239.995899 
L 368.712 239.044788 
L 368.103273 237.77855 
L 367.494545 237.415294 
L 366.277091 236.224687 
L 365.668364 234.407263 
L 365.059636 234.481747 
L 364.450909 232.79725 
L 363.842182 232.500457 
L 363.233455 230.960345 
L 362.624727 230.41718 
L 361.407273 228.858733 
L 360.798545 227.436651 
L 357.754909 222.967575 
L 356.537455 220.674595 
L 355.928727 220.523334 
L 355.32 218.737996 
L 354.711273 217.872829 
L 354.102545 216.488561 
L 353.493818 215.394211 
L 352.885091 214.052342 
L 352.276364 213.155089 
L 351.667636 212.689847 
L 349.841455 209.601601 
L 349.232727 208.110763 
L 348.624 207.263931 
L 348.015273 206.198228 
L 347.406545 205.501511 
L 346.797818 203.569495 
L 346.189091 202.716933 
L 345.580364 201.521742 
L 344.971636 200.948783 
L 344.362909 199.845265 
L 343.754182 199.060312 
L 343.145455 197.676045 
L 342.536727 196.684827 
L 341.928 195.310872 
L 341.319273 194.680618 
L 340.710545 193.233325 
L 339.493091 190.85211 
L 338.884364 189.303976 
L 338.275636 189.269599 
L 337.058182 186.316571 
L 336.449455 185.451404 
L 335.840727 184.297466 
L 335.232 183.464384 
L 334.623273 182.246275 
L 334.014545 181.481948 
L 333.405818 179.852454 
L 332.188364 177.76001 
L 331.579636 177.070168 
L 330.970909 176.201563 
L 329.144727 171.823015 
L 328.536 171.052959 
L 327.927273 169.738592 
L 327.318545 167.603749 
L 326.709818 166.988392 
L 326.101091 165.509013 
L 325.492364 164.450186 
L 324.883636 162.707247 
L 324.274909 161.47424 
L 323.666182 161.141924 
L 323.057455 159.709528 
L 322.448727 157.931066 
L 321.84 156.864217 
L 321.231273 156.241984 
L 320.622545 155.157947 
L 320.013818 153.631586 
L 319.405091 152.569321 
L 318.796364 151.029209 
L 317.578909 149.026146 
L 316.970182 148.117434 
L 315.752727 145.611314 
L 313.926545 141.932921 
L 313.317818 140.133831 
L 312.709091 138.971872 
L 312.100364 138.668204 
L 311.491636 136.826715 
L 309.056727 131.600189 
L 308.448 130.874824 
L 301.143273 114.849177 
L 300.534545 114.518007 
L 298.708364 110.199046 
L 298.099636 109.404926 
L 297.490909 108.304846 
L 296.273455 104.72844 
L 295.664727 104.399561 
L 295.056 103.191765 
L 294.447273 101.688322 
L 293.838545 99.846834 
L 293.229818 99.915589 
L 292.621091 98.066079 
L 290.794909 94.852928 
L 290.186182 93.328859 
L 288.36 89.951842 
L 287.751273 89.215018 
L 287.142545 87.538542 
L 286.533818 86.751297 
L 285.316364 83.808582 
L 284.707636 83.013316 
L 284.098909 82.004909 
L 283.490182 80.391458 
L 281.664 77.533542 
L 280.446545 75.521312 
L 279.837818 74.162255 
L 279.229091 72.528177 
L 278.620364 72.120231 
L 278.011636 70.741693 
L 277.402909 70.407085 
L 276.794182 68.841763 
L 276.185455 68.206925 
L 275.576727 66.374604 
L 274.968 65.792478 
L 274.359273 65.813105 
L 273.141818 63.210728 
L 272.533091 62.044184 
L 270.706909 59.538064 
L 268.880727 57.38947 
L 268.272 56.146151 
L 265.837091 53.877235 
L 265.228364 52.159506 
L 264.619636 52.255763 
L 264.010909 51.107554 
L 262.184727 50.959731 
L 261.576 49.700369 
L 260.967273 49.65224 
L 260.358545 48.844369 
L 259.749818 48.510907 
L 259.141091 48.675919 
L 258.532364 48.167132 
L 257.923636 47.366136 
L 257.314909 46.882559 
L 256.706182 46.866516 
L 256.097455 46.301579 
L 255.488727 46.322206 
L 254.88 46.834431 
L 254.271273 46.604101 
L 253.662545 47.241231 
L 253.053818 47.173622 
L 252.445091 46.050624 
L 251.836364 47.350093 
L 251.227636 46.996005 
L 250.618909 47.124348 
L 250.010182 48.003266 
L 249.401455 48.16484 
L 248.792727 49.261482 
L 248.184 49.67745 
L 247.575273 50.468133 
L 246.966545 50.571265 
L 246.357818 51.795105 
L 245.749091 51.851254 
L 245.140364 53.201144 
L 244.531636 53.690451 
L 243.922909 55.622467 
L 243.314182 56.442943 
L 242.705455 58.066707 
L 242.096727 59.298568 
L 241.488 60.840972 
L 240.879273 61.370385 
L 240.270545 63.743579 
L 239.053091 66.428462 
L 238.444364 67.760017 
L 237.835636 70.499904 
L 237.226909 72.066373 
L 236.618182 74.265387 
L 235.400727 77.659593 
L 234.792 80.111855 
L 234.183273 81.78031 
L 232.965818 85.750911 
L 232.357091 88.681021 
L 231.748364 89.911735 
L 231.139636 92.524426 
L 230.530909 94.271949 
L 229.922182 97.615734 
L 229.313455 98.943852 
L 226.878545 108.273906 
L 225.661091 114.569573 
L 223.834909 122.848822 
L 222.617455 128.804152 
L 220.182545 139.900064 
L 219.573818 141.703737 
L 218.356364 146.620867 
L 217.747636 146.579613 
L 217.138909 146.96235 
L 216.530182 146.450125 
L 214.704 142.202211 
L 214.095273 139.864541 
L 212.269091 129.476805 
L 209.834182 116.295324 
L 209.225455 114.212047 
L 207.399273 105.378174 
L 206.181818 100.925142 
L 204.964364 95.372029 
L 201.312 83.896818 
L 200.703273 80.989627 
L 200.094545 79.56869 
L 199.485818 77.408637 
L 198.877091 74.575931 
L 198.268364 72.703503 
L 197.659636 71.834898 
L 197.050909 69.614111 
L 196.442182 67.843669 
L 195.833455 65.433806 
L 194.007273 61.042653 
L 193.398545 59.046466 
L 192.789818 57.991077 
L 192.181091 56.310017 
L 191.572364 55.376095 
L 190.963636 53.802751 
L 190.354909 52.869974 
L 189.746182 51.434141 
L 189.137455 50.384481 
L 188.528727 49.816106 
L 187.92 49.059801 
L 187.311273 48.798532 
L 186.702545 47.14612 
L 186.093818 47.53917 
L 185.485091 46.851619 
L 184.876364 46.664835 
L 184.267636 45.752685 
L 183.658909 45.707994 
L 183.050182 44.64 
L 182.441455 44.96544 
L 181.832727 44.994088 
L 181.224 44.83939 
L 180.615273 45.151079 
L 180.006545 44.953981 
L 179.397818 45.072011 
L 178.789091 45.670179 
L 178.180364 45.6083 
L 177.571636 46.352 
L 176.354182 46.455132 
L 174.528 48.090355 
L 173.919273 47.841692 
L 173.310545 48.932604 
L 172.701818 48.963544 
L 172.093091 49.641927 
L 171.484364 49.624738 
L 170.875636 51.130473 
L 170.266909 51.588839 
L 169.658182 51.681659 
L 169.049455 52.243158 
L 168.440727 53.356989 
L 167.832 53.511688 
L 166.614545 54.924603 
L 166.005818 55.114825 
L 164.179636 58.274118 
L 163.570909 58.787489 
L 162.962182 59.894444 
L 162.353455 60.657625 
L 161.744727 62.123253 
L 161.136 62.908206 
L 159.918545 64.798968 
L 159.309818 65.684762 
L 158.701091 66.081249 
L 158.092364 67.824189 
L 157.483636 68.248178 
L 156.874909 69.740162 
L 156.266182 70.017474 
L 155.657455 71.681345 
L 155.048727 71.727181 
L 154.44 73.418555 
L 153.831273 74.148504 
L 153.222545 75.433076 
L 152.613818 76.01864 
L 152.005091 77.252792 
L 151.396364 79.339507 
L 150.787636 80.114147 
L 150.178909 81.753953 
L 148.961455 83.354799 
L 148.352727 84.554574 
L 147.744 85.503393 
L 146.526545 88.003784 
L 145.917818 89.192099 
L 145.309091 90.757422 
L 144.700364 91.571023 
L 143.482909 93.773475 
L 142.265455 96.418251 
L 141.048 99.665779 
L 139.221818 102.693291 
L 138.613091 104.280386 
L 138.004364 105.202849 
L 137.395636 107.145178 
L 136.786909 108.248696 
L 136.178182 109.945799 
L 135.569455 110.248321 
L 134.960727 112.670789 
L 134.352 113.181868 
L 133.743273 114.238403 
L 133.134545 116.294178 
L 131.917091 118.505797 
L 130.699636 121.729261 
L 130.090909 122.59672 
L 129.482182 123.939735 
L 128.264727 126.087183 
L 127.656 127.516141 
L 127.047273 129.291166 
L 125.829818 132.061993 
L 125.221091 132.724333 
L 124.612364 134.405393 
L 124.003636 135.664756 
L 123.394909 137.972632 
L 122.786182 138.073473 
L 122.177455 139.32023 
L 121.568727 141.592584 
L 117.916364 149.042189 
L 117.307636 150.060909 
L 114.872727 156.087285 
L 114.264 156.554819 
L 113.046545 159.921523 
L 111.829091 161.658733 
L 108.785455 168.66716 
L 108.176727 169.453259 
L 106.959273 172.36045 
L 105.741818 174.1286 
L 105.133091 176.088118 
L 104.524364 177.292476 
L 103.915636 179.182093 
L 103.306909 180.1905 
L 102.089455 183.138944 
L 101.480727 183.74628 
L 100.872 185.829556 
L 100.263273 186.322301 
L 99.654545 187.280287 
L 99.045818 188.931553 
L 98.437091 190.180603 
L 97.828364 190.930032 
L 97.219636 191.858225 
L 96.610909 193.65846 
L 96.002182 194.247462 
L 95.393455 195.355563 
L 94.784727 196.973598 
L 93.567273 199.179488 
L 92.349818 202.025945 
L 91.132364 203.910978 
L 90.523636 205.589746 
L 89.914909 206.819315 
L 89.306182 207.404879 
L 88.697455 209.740257 
L 88.088727 210.160809 
L 87.48 211.744466 
L 86.871273 212.383887 
L 85.653818 215.12492 
L 85.045091 215.670377 
L 84.436364 216.78077 
L 83.827636 218.995827 
L 83.218909 219.827763 
L 82.610182 221.000036 
L 82.001455 221.759779 
L 81.392727 223.545117 
L 78.957818 228.874776 
L 78.349091 229.517636 
L 77.740364 230.625737 
L 77.131636 232.5165 
L 75.305455 235.301078 
L 74.696727 236.940885 
L 74.088 237.796885 
L 72.870545 240.226228 
L 71.044364 243.508134 
L 70.435636 244.296525 
L 69.218182 246.24 
L 69.218182 246.24 
" clip-path="url(#p0a1d965703)" style="fill: none; stroke: #ff7f0e; stroke-width: 1.5; stroke-linecap: square"/>
   </g>
   <g id="line2d_15">
    <path d="M 373.581818 236.792549 
L 372.973091 237.139544 
L 372.364364 236.977447 
L 371.755636 236.455147 
L 371.146909 235.638556 
L 370.538182 235.095823 
L 368.712 232.962144 
L 368.103273 231.980465 
L 366.277091 229.627127 
L 365.668364 228.663514 
L 364.450909 227.203268 
L 362.624727 224.179861 
L 362.016 223.32315 
L 361.407273 222.253757 
L 360.798545 221.639257 
L 357.754909 216.628445 
L 357.146182 215.911779 
L 356.537455 214.747693 
L 355.928727 213.827564 
L 355.32 212.604296 
L 354.102545 210.888258 
L 353.493818 209.733268 
L 352.885091 208.966888 
L 349.841455 203.778654 
L 349.232727 202.673253 
L 348.624 201.864885 
L 348.015273 200.528735 
L 345.580364 196.297136 
L 341.319273 188.621749 
L 337.058182 181.205394 
L 336.449455 180.398147 
L 334.623273 177.076835 
L 334.014545 176.178883 
L 333.405818 174.899798 
L 331.579636 171.855833 
L 330.970909 170.288311 
L 330.362182 169.294172 
L 328.536 165.133717 
L 327.927273 164.08077 
L 326.709818 161.315647 
L 325.492364 158.940256 
L 323.666182 154.896795 
L 323.057455 154.253639 
L 321.231273 150.648002 
L 320.622545 149.7579 
L 320.013818 148.466604 
L 318.796364 146.340775 
L 314.535273 138.163273 
L 313.926545 137.161036 
L 312.100364 133.295994 
L 311.491636 132.233578 
L 310.274182 129.724496 
L 309.665455 128.574117 
L 307.839273 124.489913 
L 306.621818 122.17495 
L 304.795636 118.40921 
L 304.186909 117.510386 
L 301.143273 111.664792 
L 297.490909 104.131817 
L 295.664727 100.327577 
L 289.577455 88.790637 
L 288.968727 87.811823 
L 287.751273 85.401919 
L 287.142545 84.464097 
L 286.533818 83.011701 
L 284.707636 79.776359 
L 283.490182 77.444451 
L 281.055273 73.232912 
L 278.620364 69.046417 
L 278.011636 68.280037 
L 276.185455 65.270834 
L 274.968 63.576724 
L 273.750545 61.909651 
L 273.141818 60.762511 
L 272.533091 60.115991 
L 271.924364 59.045725 
L 268.272 54.33718 
L 267.663273 53.531552 
L 267.054545 53.049995 
L 265.228364 51.179584 
L 260.358545 47.737541 
L 259.749818 47.688077 
L 258.532364 46.926182 
L 257.923636 46.802335 
L 257.314909 46.386688 
L 256.706182 46.392171 
L 255.488727 46.205528 
L 254.88 46.292495 
L 254.271273 46.267202 
L 253.662545 46.642605 
L 253.053818 46.609089 
L 251.227636 47.334727 
L 248.184 49.459808 
L 245.749091 53.193154 
L 244.531636 54.891998 
L 243.922909 56.213571 
L 243.314182 57.132454 
L 242.705455 58.70957 
L 242.096727 59.905302 
L 240.879273 63.066635 
L 239.661818 66.086304 
L 233.574545 85.427212 
L 231.139636 94.069326 
L 230.530909 96.130366 
L 228.704727 103.494516 
L 227.487273 108.298501 
L 219.573818 143.641687 
L 218.965091 145.486058 
L 218.356364 146.956271 
L 217.747636 147.775604 
L 217.138909 148.182155 
L 216.530182 147.94256 
L 215.921455 147.209322 
L 215.312727 145.580002 
L 214.704 143.514726 
L 213.486545 138.306183 
L 208.008 110.995097 
L 206.181818 103.576998 
L 201.312 86.023396 
L 200.703273 83.472077 
L 199.485818 79.716055 
L 196.442182 69.40774 
L 193.398545 60.639412 
L 190.354909 53.840297 
L 189.137455 51.434131 
L 187.311273 48.772172 
L 185.485091 47.085414 
L 184.267636 46.016892 
L 183.658909 45.772812 
L 182.441455 45.138751 
L 181.832727 44.845456 
L 181.224 44.87648 
L 179.397818 44.64 
L 178.789091 45.14386 
L 177.571636 45.167283 
L 176.962909 45.489734 
L 175.745455 46.32165 
L 175.136727 46.49222 
L 174.528 46.939015 
L 173.919273 47.18484 
L 173.310545 47.741029 
L 172.093091 48.41197 
L 167.223273 52.639332 
L 162.353455 58.741217 
L 161.136 60.808735 
L 160.527273 61.501605 
L 158.701091 64.242432 
L 158.092364 65.016661 
L 156.874909 66.946005 
L 153.831273 71.7698 
L 153.222545 72.966405 
L 152.613818 73.889026 
L 150.787636 77.079265 
L 149.570182 79.175814 
L 147.744 82.593687 
L 145.917818 85.953872 
L 143.482909 90.740663 
L 142.265455 93.36624 
L 141.048 95.549881 
L 140.439273 96.914563 
L 139.221818 99.107175 
L 138.613091 100.554588 
L 138.004364 101.633949 
L 136.178182 105.766619 
L 134.960727 108.197082 
L 133.134545 112.199426 
L 130.699636 116.921304 
L 128.873455 120.751958 
L 127.047273 124.898707 
L 126.438545 125.958382 
L 124.612364 130.366905 
L 124.003636 131.302858 
L 121.568727 136.552517 
L 113.655273 153.126683 
L 111.829091 156.358785 
L 106.350545 168.011847 
L 105.741818 169.472467 
L 105.133091 170.536129 
L 101.480727 178.663918 
L 100.872 179.555142 
L 99.654545 182.333472 
L 98.437091 184.385042 
L 97.828364 185.465276 
L 97.219636 186.849394 
L 96.610909 187.689534 
L 94.784727 191.261406 
L 94.176 192.683027 
L 93.567273 193.72339 
L 92.958545 195.121215 
L 92.349818 196.090185 
L 90.523636 200.015531 
L 89.914909 201.025742 
L 88.697455 203.720718 
L 85.653818 209.937354 
L 85.045091 210.872559 
L 83.218909 214.505607 
L 82.610182 215.308368 
L 81.392727 217.995993 
L 71.653091 236.788562 
L 71.044364 237.76289 
L 70.435636 239.045091 
L 69.218182 240.783431 
L 69.218182 240.783431 
" clip-path="url(#p0a1d965703)" style="fill: none; stroke: #2ca02c; stroke-width: 1.5; stroke-linecap: square"/>
   </g>
   <g id="line2d_16">
    <path d="M 373.581818 232.703807 
L 372.973091 233.418441 
L 372.364364 233.134881 
L 371.755636 232.345709 
L 371.146909 231.9751 
L 370.538182 231.165078 
L 369.929455 230.153853 
L 369.320727 229.666485 
L 368.712 228.996679 
L 368.103273 227.980763 
L 367.494545 227.196282 
L 366.885818 226.761038 
L 366.277091 226.034416 
L 365.668364 224.505069 
L 365.059636 224.010403 
L 364.450909 223.131054 
L 363.233455 220.837555 
L 362.624727 220.27669 
L 362.016 219.040286 
L 360.798545 217.249792 
L 358.972364 214.685243 
L 357.754909 212.382362 
L 356.537455 210.922341 
L 355.928727 209.501414 
L 354.711273 208.098209 
L 353.493818 205.873515 
L 352.885091 204.871152 
L 351.667636 203.252671 
L 351.058909 202.308687 
L 349.232727 198.305489 
L 348.624 197.649757 
L 348.015273 196.698476 
L 347.406545 195.381799 
L 346.797818 194.483685 
L 346.189091 193.246759 
L 344.971636 191.196162 
L 343.754182 188.796328 
L 343.145455 187.573997 
L 342.536727 186.829653 
L 341.928 185.563016 
L 340.710545 183.806404 
L 340.101818 182.277057 
L 337.058182 177.474782 
L 336.449455 176.85658 
L 335.232 174.600611 
L 334.623273 173.386099 
L 334.014545 172.498931 
L 333.405818 171.238549 
L 332.797091 170.586466 
L 332.188364 169.043045 
L 331.579636 168.144932 
L 330.970909 166.57597 
L 330.362182 165.724769 
L 327.927273 160.226104 
L 327.318545 159.160148 
L 326.709818 157.519254 
L 323.666182 151.608281 
L 323.057455 150.497498 
L 322.448727 148.987437 
L 321.84 148.519876 
L 321.231273 147.006166 
L 320.013818 145.271968 
L 319.405091 143.851041 
L 318.796364 143.360024 
L 317.578909 140.523382 
L 316.970182 139.695638 
L 316.361455 138.632809 
L 315.752727 137.036742 
L 315.144 136.611402 
L 314.535273 134.89232 
L 313.317818 132.453393 
L 312.709091 131.632945 
L 312.100364 130.412178 
L 311.491636 128.721765 
L 310.882909 128.245343 
L 306.621818 119.255868 
L 305.404364 117.001984 
L 304.795636 116.181537 
L 304.186909 114.417106 
L 303.578182 113.010253 
L 302.969455 112.137681 
L 302.360727 111.616952 
L 301.752 109.941134 
L 301.143273 108.965355 
L 299.925818 106.7073 
L 298.708364 104.166207 
L 298.099636 102.539908 
L 296.882182 100.237548 
L 295.664727 97.599502 
L 295.056 96.195777 
L 294.447273 95.193413 
L 293.838545 94.41623 
L 293.229818 92.854565 
L 292.012364 91.116718 
L 289.577455 86.551612 
L 287.751273 83.498652 
L 284.707636 77.378137 
L 284.098909 76.758371 
L 282.881455 74.263669 
L 281.664 72.544587 
L 281.055273 71.405657 
L 279.837818 69.866406 
L 278.011636 66.715451 
L 276.185455 63.843886 
L 275.576727 63.340358 
L 274.968 62.076327 
L 274.359273 61.510771 
L 273.750545 60.620998 
L 273.141818 59.397103 
L 272.533091 58.796624 
L 271.924364 57.897989 
L 271.315636 57.545103 
L 270.706909 56.627182 
L 270.098182 56.374897 
L 268.272 53.692024 
L 267.663273 53.366764 
L 267.054545 52.881481 
L 266.445818 52.00109 
L 265.837091 51.875469 
L 265.228364 50.827235 
L 264.619636 50.536378 
L 264.010909 50.037021 
L 263.402182 49.858232 
L 262.793455 49.505867 
L 261.576 49.179565 
L 260.967273 48.128725 
L 260.358545 47.837868 
L 259.749818 47.689311 
L 259.141091 47.65543 
L 258.532364 47.18005 
L 257.314909 47.476641 
L 256.706182 47.204549 
L 256.097455 46.715617 
L 255.488727 47.063812 
L 254.271273 47.337989 
L 253.662545 47.185784 
L 253.053818 47.481333 
L 252.445091 47.636665 
L 251.836364 47.925438 
L 251.227636 47.812848 
L 250.618909 48.43105 
L 249.401455 49.964567 
L 248.792727 50.444638 
L 248.184 51.168133 
L 246.966545 53.120213 
L 246.357818 53.722778 
L 245.749091 54.880474 
L 245.140364 55.606054 
L 244.531636 56.563589 
L 243.922909 57.902159 
L 243.314182 59.567031 
L 242.096727 62.333825 
L 241.488 64.295288 
L 240.879273 65.353946 
L 240.270545 66.729003 
L 239.661818 68.669095 
L 238.444364 71.946193 
L 237.835636 74.516997 
L 236.009455 79.982822 
L 234.183273 86.743432 
L 232.357091 92.949954 
L 231.748364 95.467591 
L 231.139636 97.335229 
L 227.487273 111.339647 
L 226.269818 116.957157 
L 225.661091 119.278803 
L 224.443636 125.870007 
L 223.226182 130.806243 
L 222.008727 136.676559 
L 219.573818 147.24125 
L 218.356364 150.084668 
L 217.747636 150.939517 
L 217.138909 151.526445 
L 216.530182 150.871234 
L 215.921455 149.973642 
L 214.704 146.77421 
L 212.877818 139.043554 
L 208.616727 117.657717 
L 205.573091 104.896478 
L 204.355636 100.663409 
L 203.746909 98.130135 
L 201.920727 91.721889 
L 201.312 89.134927 
L 200.703273 87.152092 
L 199.485818 82.60523 
L 195.833455 69.352454 
L 194.007273 64.318744 
L 192.789818 60.583989 
L 192.181091 59.192773 
L 191.572364 57.310019 
L 188.528727 51.056585 
L 187.92 50.873626 
L 187.311273 49.670582 
L 186.702545 49.225956 
L 186.093818 47.829528 
L 185.485091 47.821188 
L 184.876364 47.470386 
L 183.658909 46.037471 
L 183.050182 45.341081 
L 182.441455 45.397897 
L 181.832727 44.976727 
L 181.224 45.150825 
L 180.615273 44.64 
L 180.006545 44.904274 
L 179.397818 44.834426 
L 178.180364 45.238916 
L 177.571636 45.646533 
L 176.962909 45.202429 
L 176.354182 45.843045 
L 175.745455 46.071873 
L 174.528 46.727084 
L 173.919273 46.974678 
L 172.093091 48.045325 
L 171.484364 48.977841 
L 170.875636 49.08157 
L 170.266909 48.995563 
L 169.658182 50.007309 
L 169.049455 50.209033 
L 168.440727 50.59997 
L 167.832 51.431364 
L 167.223273 51.799366 
L 166.614545 53.064961 
L 166.005818 53.462153 
L 165.397091 54.163234 
L 164.788364 55.518484 
L 164.179636 56.358217 
L 162.962182 57.174494 
L 162.353455 58.236801 
L 161.744727 58.484395 
L 161.136 59.46643 
L 160.527273 60.126853 
L 158.701091 63.291882 
L 157.483636 64.62576 
L 156.266182 66.481931 
L 155.657455 67.040711 
L 154.44 69.296159 
L 153.222545 70.769732 
L 152.613818 72.162511 
L 151.396364 73.942579 
L 150.178909 76.224611 
L 149.570182 77.518874 
L 148.961455 78.194935 
L 147.744 80.146495 
L 147.135273 81.97973 
L 146.526545 82.932054 
L 145.917818 83.577361 
L 144.700364 86.366048 
L 144.091636 87.420536 
L 143.482909 88.166966 
L 142.265455 90.81283 
L 141.656727 91.967398 
L 141.048 92.785239 
L 138.613091 97.767866 
L 138.004364 99.547934 
L 137.395636 99.982656 
L 136.786909 102.055667 
L 136.178182 102.657711 
L 135.569455 103.748686 
L 134.960727 105.348402 
L 134.352 106.138096 
L 133.743273 107.56632 
L 133.134545 109.389652 
L 132.525818 110.259097 
L 131.917091 111.635196 
L 130.699636 113.780139 
L 130.090909 115.531538 
L 129.482182 116.431737 
L 128.873455 117.776561 
L 128.264727 118.699174 
L 127.656 120.033052 
L 127.047273 120.937942 
L 125.829818 124.080036 
L 124.612364 126.537207 
L 122.786182 130.915706 
L 122.177455 131.829978 
L 120.351273 135.711725 
L 119.742545 136.563969 
L 118.525091 139.470979 
L 115.481455 145.799994 
L 114.872727 146.773689 
L 114.264 148.214945 
L 111.220364 153.83923 
L 110.611636 155.608352 
L 110.002909 156.577877 
L 108.785455 159.05225 
L 108.176727 160.018126 
L 107.568 161.666318 
L 106.959273 162.654607 
L 105.741818 165.793574 
L 105.133091 166.836595 
L 104.524364 168.540039 
L 103.915636 169.463172 
L 103.306909 171.205711 
L 102.089455 173.161961 
L 99.045818 179.415395 
L 98.437091 180.247831 
L 97.828364 181.270002 
L 97.219636 183.078218 
L 96.610909 183.789724 
L 96.002182 184.806161 
L 94.784727 187.299299 
L 91.741091 193.602252 
L 90.523636 196.094868 
L 89.306182 198.446748 
L 85.045091 206.61369 
L 84.436364 207.990832 
L 82.610182 211.169935 
L 82.001455 212.51945 
L 80.784 214.38344 
L 80.175273 216.094182 
L 78.957818 218.363703 
L 77.740364 220.579536 
L 77.131636 222.284545 
L 76.522909 223.177967 
L 75.914182 224.740674 
L 75.305455 225.565812 
L 73.479273 229.207785 
L 72.870545 230.205457 
L 72.261818 231.517443 
L 71.044364 233.551881 
L 69.826909 235.900633 
L 69.218182 236.710134 
L 69.218182 236.710134 
" clip-path="url(#p0a1d965703)" style="fill: none; stroke: #d62728; stroke-width: 1.5; stroke-linecap: square"/>
   </g>
   <g id="line2d_17">
    <path d="M 373.581818 232.750755 
L 372.973091 232.914255 
L 372.364364 232.916018 
L 371.146909 232.043431 
L 370.538182 230.915238 
L 369.320727 229.434044 
L 368.103273 227.929493 
L 367.494545 226.82025 
L 365.668364 224.814182 
L 364.450909 222.860998 
L 363.842182 222.166013 
L 362.624727 219.808266 
L 362.016 219.416484 
L 360.798545 217.085178 
L 360.189818 216.368159 
L 358.972364 213.820911 
L 357.146182 211.570694 
L 356.537455 210.075398 
L 355.928727 209.511742 
L 355.32 208.363277 
L 354.711273 207.582356 
L 353.493818 205.084466 
L 352.885091 204.72794 
L 352.276364 203.311969 
L 351.667636 202.671191 
L 350.450182 200.26673 
L 349.841455 199.476994 
L 349.232727 198.235982 
L 348.624 197.39777 
L 348.015273 195.946103 
L 347.406545 195.14535 
L 346.797818 194.083703 
L 346.189091 192.683598 
L 345.580364 192.037531 
L 343.754182 188.722583 
L 343.145455 187.227727 
L 342.536727 186.15991 
L 341.928 185.334038 
L 340.710545 182.916355 
L 340.101818 181.830469 
L 339.493091 181.165012 
L 338.884364 180.042107 
L 338.275636 179.242236 
L 335.840727 174.888116 
L 335.232 174.160961 
L 333.405818 170.771975 
L 332.797091 170.096381 
L 331.579636 167.671647 
L 330.970909 166.769974 
L 330.362182 165.026123 
L 329.753455 164.450568 
L 329.144727 162.756957 
L 327.927273 160.081465 
L 327.318545 159.17847 
L 326.101091 155.890845 
L 324.883636 153.753889 
L 324.274909 152.045734 
L 323.666182 151.063413 
L 323.057455 149.72765 
L 322.448727 149.480858 
L 321.84 147.44967 
L 321.231273 146.743668 
L 318.796364 142.341071 
L 318.187636 141.165723 
L 317.578909 140.687122 
L 316.970182 139.06887 
L 316.361455 137.912913 
L 315.752727 136.998901 
L 315.144 135.565743 
L 313.926545 133.226946 
L 312.709091 130.691156 
L 312.100364 129.299865 
L 311.491636 128.456364 
L 310.882909 127.363428 
L 309.665455 124.57732 
L 307.839273 121.096668 
L 304.795636 114.619254 
L 302.360727 110.151874 
L 301.752 109.292949 
L 299.925818 105.736938 
L 299.317091 104.532504 
L 298.099636 101.858774 
L 297.490909 100.713394 
L 296.882182 99.135246 
L 296.273455 98.539419 
L 295.664727 96.775736 
L 294.447273 94.614541 
L 292.621091 90.619152 
L 292.012364 90.369715 
L 291.403636 88.850621 
L 290.794909 87.882843 
L 289.577455 85.42682 
L 288.968727 84.882114 
L 286.533818 80.069666 
L 285.925091 79.382614 
L 284.707636 76.669663 
L 284.098909 75.652526 
L 283.490182 74.93727 
L 282.272727 72.62227 
L 280.446545 69.862605 
L 279.837818 69.291898 
L 279.229091 67.759142 
L 278.620364 67.07826 
L 278.011636 66.054953 
L 277.402909 65.37936 
L 276.794182 64.204453 
L 274.359273 60.904488 
L 272.533091 58.69702 
L 271.924364 57.511977 
L 271.315636 56.92893 
L 270.706909 55.715241 
L 270.098182 55.477704 
L 269.489455 54.461449 
L 267.054545 52.242963 
L 266.445818 51.454991 
L 265.837091 51.030155 
L 264.619636 49.983933 
L 264.010909 49.431294 
L 262.793455 49.156738 
L 262.184727 48.598811 
L 261.576 48.36524 
L 260.967273 47.93688 
L 260.358545 47.846095 
L 259.749818 47.530113 
L 257.923636 47.204435 
L 257.314909 47.187248 
L 256.706182 46.958084 
L 256.097455 46.951473 
L 255.488727 47.224267 
L 254.88 47.001273 
L 254.271273 47.183723 
L 253.662545 47.712563 
L 253.053818 48.405344 
L 252.445091 48.194689 
L 251.227636 49.413226 
L 250.010182 50.208249 
L 248.184 52.789872 
L 247.575273 53.222199 
L 246.966545 54.168824 
L 246.357818 55.572454 
L 245.749091 56.210588 
L 244.531636 58.380156 
L 243.922909 60.341714 
L 243.314182 61.226199 
L 242.705455 63.392682 
L 242.096727 64.52396 
L 240.879273 67.440515 
L 239.053091 73.191215 
L 238.444364 74.998527 
L 237.835636 77.40431 
L 237.226909 79.179451 
L 233.574545 91.98356 
L 232.965818 94.0976 
L 232.357091 96.701698 
L 231.748364 98.64078 
L 230.530909 102.961847 
L 229.313455 107.472416 
L 224.443636 128.454602 
L 219.573818 149.957695 
L 218.356364 153.541912 
L 217.138909 154.695225 
L 215.921455 153.382819 
L 214.704 150.379446 
L 212.877818 142.405413 
L 209.834182 126.642001 
L 205.573091 108.713869 
L 204.355636 104.242963 
L 203.746909 101.330815 
L 203.138182 99.42743 
L 196.442182 73.079717 
L 193.398545 63.316882 
L 192.789818 61.965695 
L 191.572364 58.348426 
L 189.746182 53.899556 
L 189.137455 52.797364 
L 188.528727 51.968407 
L 187.92 50.708885 
L 186.093818 47.992848 
L 185.485091 47.5971 
L 184.876364 46.912692 
L 184.267636 46.696308 
L 183.658909 46.077124 
L 183.050182 45.905251 
L 182.441455 45.227894 
L 181.224 44.64 
L 180.615273 45.040156 
L 180.006545 44.993001 
L 178.789091 44.752379 
L 178.180364 44.879741 
L 177.571636 45.267557 
L 176.962909 44.983746 
L 176.354182 45.43943 
L 175.745455 45.658899 
L 175.136727 45.719275 
L 174.528 46.231369 
L 173.919273 46.444668 
L 173.310545 46.918421 
L 172.701818 47.05019 
L 172.093091 47.682155 
L 171.484364 47.986238 
L 170.875636 48.683426 
L 170.266909 48.848689 
L 169.049455 49.723479 
L 168.440727 50.025799 
L 167.832 50.888691 
L 167.223273 51.216572 
L 166.614545 51.727343 
L 166.005818 52.603015 
L 165.397091 53.218674 
L 164.788364 53.535096 
L 164.179636 54.609965 
L 163.570909 55.06653 
L 162.962182 56.413311 
L 162.353455 56.81567 
L 161.744727 57.842502 
L 159.918545 60.088311 
L 158.701091 62.369376 
L 158.092364 63.213758 
L 156.874909 64.226488 
L 156.266182 65.838129 
L 155.657455 66.282796 
L 155.048727 67.050496 
L 154.44 68.069395 
L 153.831273 69.35624 
L 153.222545 70.033156 
L 152.005091 72.301441 
L 150.787636 73.921014 
L 148.352727 78.301136 
L 146.526545 81.944846 
L 145.917818 82.851808 
L 145.309091 84.031563 
L 144.700364 84.757396 
L 144.091636 86.485823 
L 142.874182 88.469415 
L 142.265455 90.085904 
L 141.656727 91.309729 
L 141.048 91.902912 
L 139.830545 94.833129 
L 139.221818 95.784601 
L 137.395636 99.626186 
L 136.178182 102.326357 
L 135.569455 102.977272 
L 134.352 105.565505 
L 133.743273 107.251625 
L 133.134545 107.916642 
L 131.917091 110.490332 
L 131.308364 111.501299 
L 130.699636 113.058293 
L 130.090909 114.208962 
L 129.482182 115.860707 
L 128.873455 116.556132 
L 128.264727 118.103872 
L 127.656 118.950457 
L 127.047273 120.301645 
L 125.829818 123.541233 
L 124.003636 127.245761 
L 120.351273 135.242269 
L 117.307636 141.613474 
L 116.698909 142.667189 
L 114.872727 146.496875 
L 114.264 147.653714 
L 113.655273 148.527623 
L 113.046545 150.006613 
L 112.437818 151.007885 
L 111.829091 152.441042 
L 111.220364 153.385463 
L 110.611636 155.129315 
L 108.785455 158.427957 
L 108.176727 160.021089 
L 107.568 161.156333 
L 105.741818 165.617984 
L 105.133091 166.265373 
L 104.524364 167.988511 
L 101.480727 174.282153 
L 100.872 175.017242 
L 100.263273 176.731125 
L 99.654545 177.521301 
L 99.045818 179.204336 
L 95.393455 185.918406 
L 94.784727 187.322918 
L 94.176 188.206082 
L 93.567273 189.65819 
L 92.958545 190.51403 
L 92.349818 192.306799 
L 91.741091 193.110637 
L 91.132364 194.939103 
L 90.523636 195.535811 
L 88.697455 199.562931 
L 88.088727 200.279069 
L 86.871273 203.294341 
L 86.262545 204.352022 
L 85.653818 205.67853 
L 85.045091 206.630884 
L 83.218909 210.210693 
L 82.001455 212.058991 
L 80.784 214.846861 
L 79.566545 217.04816 
L 78.957818 218.159165 
L 78.349091 219.927696 
L 74.696727 227.029142 
L 74.088 228.341107 
L 73.479273 229.068263 
L 72.870545 230.503183 
L 72.261818 231.226813 
L 71.653091 232.604443 
L 71.044364 233.182642 
L 70.435636 234.920764 
L 69.218182 236.995581 
L 69.218182 236.995581 
" clip-path="url(#p0a1d965703)" style="fill: none; stroke: #9467bd; stroke-width: 1.5; stroke-linecap: square"/>
   </g>
   <g id="line2d_18">
    <path d="M 373.581818 234.502623 
L 372.973091 235.056354 
L 372.364364 234.726297 
L 371.146909 233.457899 
L 369.320727 231.440932 
L 368.712 230.371269 
L 368.103273 229.528398 
L 367.494545 228.969992 
L 366.885818 227.721467 
L 366.277091 227.103829 
L 365.668364 225.926616 
L 365.059636 225.393538 
L 364.450909 224.590803 
L 363.842182 223.197319 
L 360.189818 217.415294 
L 358.972364 215.72098 
L 357.754909 213.174831 
L 356.537455 211.540137 
L 355.32 209.5711 
L 353.493818 206.427967 
L 352.885091 205.926843 
L 352.276364 204.511926 
L 351.667636 203.874025 
L 351.058909 202.512105 
L 350.450182 201.665337 
L 349.232727 199.353384 
L 348.624 198.570913 
L 347.406545 196.419508 
L 346.189091 194.050662 
L 344.362909 190.953121 
L 343.145455 188.526214 
L 341.928 186.233356 
L 341.319273 185.487125 
L 340.101818 183.3704 
L 338.884364 181.172623 
L 332.188364 169.833807 
L 331.579636 168.324199 
L 330.970909 167.595893 
L 329.753455 164.670589 
L 329.144727 163.597809 
L 327.927273 160.868902 
L 327.318545 159.75053 
L 325.492364 155.43369 
L 324.883636 154.460277 
L 324.274909 152.753493 
L 323.666182 151.869706 
L 321.231273 147.235279 
L 320.622545 146.337854 
L 319.405091 144.040319 
L 315.752727 137.389705 
L 315.144 135.827101 
L 314.535273 134.909412 
L 312.100364 130.078199 
L 311.491636 129.016719 
L 310.882909 127.367607 
L 310.274182 126.633066 
L 309.665455 125.058772 
L 309.056727 124.236554 
L 307.230545 119.870225 
L 306.621818 118.82745 
L 306.013091 117.162361 
L 305.404364 116.118417 
L 304.795636 115.433755 
L 302.969455 111.647265 
L 302.360727 110.673853 
L 301.752 109.185677 
L 301.143273 108.536086 
L 300.534545 107.323411 
L 299.317091 104.643994 
L 298.708364 103.803461 
L 298.099636 102.233843 
L 296.882182 99.755888 
L 296.273455 98.807025 
L 295.056 96.018887 
L 289.577455 86.353733 
L 288.968727 85.450852 
L 287.142545 81.41419 
L 286.533818 80.713551 
L 282.881455 74.198545 
L 282.272727 73.471408 
L 281.055273 71.162572 
L 280.446545 70.20046 
L 279.229091 68.690853 
L 278.620364 67.54871 
L 278.011636 66.872621 
L 276.794182 64.795253 
L 275.576727 63.289542 
L 274.968 62.083493 
L 273.141818 59.987811 
L 271.924364 57.9989 
L 271.315636 57.244876 
L 270.706909 56.893777 
L 270.098182 55.803851 
L 269.489455 55.027615 
L 268.880727 54.805499 
L 267.054545 52.365732 
L 266.445818 52.216876 
L 265.837091 51.525979 
L 264.619636 50.770396 
L 263.402182 50.039751 
L 262.793455 50.147692 
L 261.576 49.021136 
L 260.967273 48.98022 
L 260.358545 48.681728 
L 259.749818 48.633408 
L 258.532364 48.31738 
L 257.923636 48.214505 
L 257.314909 47.486199 
L 256.706182 48.120593 
L 256.097455 48.447142 
L 255.488727 48.469744 
L 254.88 48.157223 
L 254.271273 48.693028 
L 253.053818 49.357817 
L 252.445091 49.599027 
L 251.836364 50.203805 
L 251.227636 50.324605 
L 250.618909 51.013164 
L 250.010182 52.118288 
L 249.401455 52.395737 
L 248.792727 53.438902 
L 248.184 53.878847 
L 247.575273 54.511293 
L 246.966545 56.361868 
L 245.749091 58.029295 
L 245.140364 59.718544 
L 243.922909 62.084662 
L 240.879273 69.783506 
L 239.661818 73.910963 
L 238.444364 77.541972 
L 237.835636 80.040579 
L 237.226909 81.600845 
L 234.792 90.104372 
L 233.574545 94.462908 
L 232.357091 98.975755 
L 231.139636 103.546274 
L 230.530909 105.149794 
L 229.313455 110.081154 
L 228.704727 112.351801 
L 228.096 115.080708 
L 227.487273 116.885301 
L 224.443636 130.388382 
L 223.226182 136.350047 
L 222.008727 141.795781 
L 220.791273 147.458954 
L 219.573818 152.642825 
L 218.965091 154.448587 
L 217.747636 156.85679 
L 217.138909 157.191912 
L 216.530182 156.812756 
L 215.921455 155.954298 
L 215.312727 154.676937 
L 214.704 152.867278 
L 214.095273 150.580265 
L 212.269091 141.987502 
L 209.834182 129.652672 
L 206.790545 115.420506 
L 205.573091 111.090807 
L 204.964364 108.174855 
L 203.746909 103.188161 
L 200.094545 88.746738 
L 199.485818 86.620662 
L 197.659636 79.048852 
L 196.442182 74.802154 
L 194.616 68.50147 
L 193.398545 64.675233 
L 192.181091 61.209447 
L 190.963636 57.964998 
L 190.354909 56.507607 
L 189.746182 55.404432 
L 189.137455 53.752592 
L 188.528727 52.74177 
L 187.311273 51.152668 
L 186.093818 49.005939 
L 184.876364 47.674024 
L 183.050182 45.831632 
L 182.441455 45.483261 
L 181.832727 45.643028 
L 181.224 45.139566 
L 179.397818 45.104495 
L 178.789091 44.733522 
L 178.180364 44.947845 
L 177.571636 44.64 
L 176.962909 45.36324 
L 176.354182 45.533529 
L 175.745455 45.456373 
L 175.136727 45.672644 
L 174.528 46.108692 
L 173.919273 46.736072 
L 173.310545 46.941042 
L 172.701818 47.272657 
L 172.093091 47.762091 
L 171.484364 47.910947 
L 170.875636 48.512998 
L 170.266909 48.774861 
L 169.658182 49.489918 
L 169.049455 49.838678 
L 167.832 50.938346 
L 167.223273 51.787452 
L 166.614545 52.075033 
L 165.397091 53.20081 
L 164.788364 53.729212 
L 164.179636 54.907594 
L 157.483636 64.054088 
L 156.266182 66.103009 
L 155.048727 67.984758 
L 154.44 68.565377 
L 153.222545 70.427642 
L 152.613818 71.759168 
L 152.005091 72.450454 
L 151.396364 73.746519 
L 150.787636 74.551981 
L 148.961455 78.059073 
L 148.352727 78.777247 
L 147.744 79.937705 
L 147.135273 81.37756 
L 146.526545 82.115608 
L 145.309091 84.335987 
L 144.091636 86.922661 
L 143.482909 87.769039 
L 142.265455 90.160876 
L 141.656727 91.125326 
L 137.395636 99.658468 
L 136.178182 102.458296 
L 135.569455 103.203358 
L 134.960727 104.95028 
L 134.352 106.060469 
L 133.134545 108.942129 
L 132.525818 109.597565 
L 131.917091 111.212776 
L 131.308364 112.478446 
L 130.699636 112.970997 
L 130.090909 114.694928 
L 127.656 119.400665 
L 127.047273 121.227859 
L 125.829818 123.838304 
L 124.612364 126.794393 
L 123.394909 129.496801 
L 119.133818 138.571205 
L 118.525091 139.612032 
L 117.307636 142.542402 
L 116.090182 144.621717 
L 115.481455 146.339412 
L 114.872727 146.927435 
L 114.264 148.242594 
L 113.655273 149.870274 
L 113.046545 150.759127 
L 111.829091 153.14317 
L 111.220364 154.300899 
L 109.394182 158.43615 
L 108.785455 159.372543 
L 108.176727 161.083614 
L 107.568 162.092098 
L 105.133091 167.604466 
L 104.524364 168.653086 
L 103.915636 170.22816 
L 102.089455 174.060631 
L 101.480727 175.647785 
L 100.263273 177.654231 
L 99.654545 178.709865 
L 99.045818 180.214018 
L 98.437091 181.105209 
L 97.828364 182.496355 
L 96.610909 184.318094 
L 96.002182 185.667155 
L 94.784727 187.762447 
L 92.958545 191.587905 
L 92.349818 193.073742 
L 91.741091 194.081057 
L 91.132364 195.505715 
L 89.914909 197.842607 
L 88.697455 200.284712 
L 88.088727 201.519208 
L 87.48 203.124287 
L 86.871273 204.222786 
L 86.262545 205.070333 
L 85.653818 206.752568 
L 85.045091 207.484381 
L 83.218909 211.401802 
L 82.610182 212.198691 
L 82.001455 213.679853 
L 80.175273 217.133558 
L 79.566545 218.745261 
L 78.957818 219.658274 
L 78.349091 221.214643 
L 77.131636 223.536728 
L 76.522909 225.024124 
L 75.914182 225.712683 
L 74.696727 228.01918 
L 74.088 229.322259 
L 73.479273 231.013846 
L 72.870545 231.818919 
L 72.261818 233.003926 
L 71.653091 233.875633 
L 70.435636 236.214084 
L 69.826909 237.442345 
L 69.218182 237.915023 
L 69.218182 237.915023 
" clip-path="url(#p0a1d965703)" style="fill: none; stroke: #8c564b; stroke-width: 1.5; stroke-linecap: square"/>
   </g>
   <g id="patch_3">
    <path d="M 54 256.32 
L 54 34.56 
" style="fill: none; stroke: #000000; stroke-width: 0.8; stroke-linejoin: miter; stroke-linecap: square"/>
   </g>
   <g id="patch_4">
    <path d="M 388.8 256.32 
L 388.8 34.56 
" style="fill: none; stroke: #000000; stroke-width: 0.8; stroke-linejoin: miter; stroke-linecap: square"/>
   </g>
   <g id="patch_5">
    <path d="M 54 256.32 
L 388.8 256.32 
" style="fill: none; stroke: #000000; stroke-width: 0.8; stroke-linejoin: miter; stroke-linecap: square"/>
   </g>
   <g id="patch_6">
    <path d="M 54 34.56 
L 388.8 34.56 
" style="fill: none; stroke: #000000; stroke-width: 0.8; stroke-linejoin: miter; stroke-linecap: square"/>
   </g>
   <g id="legend_1">
    <g id="patch_7">
     <path d="M 322.534375 130.62875 
L 381.8 130.62875 
Q 383.8 130.62875 383.8 128.62875 
L 383.8 41.56 
Q 383.8 39.56 381.8 39.56 
L 322.534375 39.56 
Q 320.534375 39.56 320.534375 41.56 
L 320.534375 128.62875 
Q 320.534375 130.62875 322.534375 130.62875 
z
" style="fill: #ffffff; opacity: 0.8; stroke: #cccccc; stroke-linejoin: miter"/>
    </g>
    <g id="line2d_19">
     <path d="M 324.534375 47.658438 
L 334.534375 47.658438 
L 344.534375 47.658438 
" style="fill: none; stroke: #1f77b4; stroke-width: 1.5; stroke-linecap: square"/>
    </g>
    <g id="text_13">
     <!-- 0 ° -->
     <g transform="translate(352.534375 51.158438)scale(0.1 -0.1)">
      <defs>
       <path id="DejaVuSans-20" transform="scale(0.015625)"/>
       <path id="DejaVuSans-b0" d="M 1600 4347 
Q 1350 4347 1178 4173 
Q 1006 4000 1006 3750 
Q 1006 3503 1178 3333 
Q 1350 3163 1600 3163 
Q 1850 3163 2022 3333 
Q 2194 3503 2194 3750 
Q 2194 3997 2020 4172 
Q 1847 4347 1600 4347 
z
M 1600 4750 
Q 1800 4750 1984 4673 
Q 2169 4597 2303 4453 
Q 2447 4313 2519 4134 
Q 2591 3956 2591 3750 
Q 2591 3338 2302 3052 
Q 2013 2766 1594 2766 
Q 1172 2766 890 3047 
Q 609 3328 609 3750 
Q 609 4169 896 4459 
Q 1184 4750 1600 4750 
z
" transform="scale(0.015625)"/>
      </defs>
      <use xlink:href="#DejaVuSans-30"/>
      <use xlink:href="#DejaVuSans-20" x="63.623047"/>
      <use xlink:href="#DejaVuSans-b0" x="95.410156"/>
     </g>
    </g>
    <g id="line2d_20">
     <path d="M 324.534375 62.336563 
L 334.534375 62.336563 
L 344.534375 62.336563 
" style="fill: none; stroke: #ff7f0e; stroke-width: 1.5; stroke-linecap: square"/>
    </g>
    <g id="text_14">
     <!-- 20 ° -->
     <g transform="translate(352.534375 65.836563)scale(0.1 -0.1)">
      <defs>
       <path id="DejaVuSans-32" d="M 1228 531 
L 3431 531 
L 3431 0 
L 469 0 
L 469 531 
Q 828 903 1448 1529 
Q 2069 2156 2228 2338 
Q 2531 2678 2651 2914 
Q 2772 3150 2772 3378 
Q 2772 3750 2511 3984 
Q 2250 4219 1831 4219 
Q 1534 4219 1204 4116 
Q 875 4013 500 3803 
L 500 4441 
Q 881 4594 1212 4672 
Q 1544 4750 1819 4750 
Q 2544 4750 2975 4387 
Q 3406 4025 3406 3419 
Q 3406 3131 3298 2873 
Q 3191 2616 2906 2266 
Q 2828 2175 2409 1742 
Q 1991 1309 1228 531 
z
" transform="scale(0.015625)"/>
      </defs>
      <use xlink:href="#DejaVuSans-32"/>
      <use xlink:href="#DejaVuSans-30" x="63.623047"/>
      <use xlink:href="#DejaVuSans-20" x="127.246094"/>
      <use xlink:href="#DejaVuSans-b0" x="159.033203"/>
     </g>
    </g>
    <g id="line2d_21">
     <path d="M 324.534375 77.014688 
L 334.534375 77.014688 
L 344.534375 77.014688 
" style="fill: none; stroke: #2ca02c; stroke-width: 1.5; stroke-linecap: square"/>
    </g>
    <g id="text_15">
     <!-- 40 ° -->
     <g transform="translate(352.534375 80.514688)scale(0.1 -0.1)">
      <defs>
       <path id="DejaVuSans-34" d="M 2419 4116 
L 825 1625 
L 2419 1625 
L 2419 4116 
z
M 2253 4666 
L 3047 4666 
L 3047 1625 
L 3713 1625 
L 3713 1100 
L 3047 1100 
L 3047 0 
L 2419 0 
L 2419 1100 
L 313 1100 
L 313 1709 
L 2253 4666 
z
" transform="scale(0.015625)"/>
      </defs>
      <use xlink:href="#DejaVuSans-34"/>
      <use xlink:href="#DejaVuSans-30" x="63.623047"/>
      <use xlink:href="#DejaVuSans-20" x="127.246094"/>
      <use xlink:href="#DejaVuSans-b0" x="159.033203"/>
     </g>
    </g>
    <g id="line2d_22">
     <path d="M 324.534375 91.692813 
L 334.534375 91.692813 
L 344.534375 91.692813 
" style="fill: none; stroke: #d62728; stroke-width: 1.5; stroke-linecap: square"/>
    </g>
    <g id="text_16">
     <!-- 60 ° -->
     <g transform="translate(352.534375 95.192813)scale(0.1 -0.1)">
      <use xlink:href="#DejaVuSans-36"/>
      <use xlink:href="#DejaVuSans-30" x="63.623047"/>
      <use xlink:href="#DejaVuSans-20" x="127.246094"/>
      <use xlink:href="#DejaVuSans-b0" x="159.033203"/>
     </g>
    </g>
    <g id="line2d_23">
     <path d="M 324.534375 106.370938 
L 334.534375 106.370938 
L 344.534375 106.370938 
" style="fill: none; stroke: #9467bd; stroke-width: 1.5; stroke-linecap: square"/>
    </g>
    <g id="text_17">
     <!-- 80 ° -->
     <g transform="translate(352.534375 109.870938)scale(0.1 -0.1)">
      <use xlink:href="#DejaVuSans-38"/>
      <use xlink:href="#DejaVuSans-30" x="63.623047"/>
      <use xlink:href="#DejaVuSans-20" x="127.246094"/>
      <use xlink:href="#DejaVuSans-b0" x="159.033203"/>
     </g>
    </g>
    <g id="line2d_24">
     <path d="M 324.534375 121.049063 
L 334.534375 121.049063 
L 344.534375 121.049063 
" style="fill: none; stroke: #8c564b; stroke-width: 1.5; stroke-linecap: square"/>
    </g>
    <g id="text_18">
     <!-- 100 ° -->
     <g transform="translate(352.534375 124.549063)scale(0.1 -0.1)">
      <use xlink:href="#DejaVuSans-31"/>
      <use xlink:href="#DejaVuSans-30" x="63.623047"/>
      <use xlink:href="#DejaVuSans-30" x="127.246094"/>
      <use xlink:href="#DejaVuSans-20" x="190.869141"/>
      <use xlink:href="#DejaVuSans-b0" x="222.65625"/>
     </g>
    </g>
   </g>
  </g>
 </g>
 <defs>
  <clipPath id="p0a1d965703">
   <rect x="54" y="34.56" width="334.8" height="221.76"/>
  </clipPath>
 </defs>
</svg>
