<?xml version="1.0" encoding="utf-8" standalone="no"?>
<!DOCTYPE svg PUBLIC "-//W3C//DTD SVG 1.1//EN"
  "http://www.w3.org/Graphics/SVG/1.1/DTD/svg11.dtd">
<svg xmlns:xlink="http://www.w3.org/1999/xlink" width="288pt" height="216pt" viewBox="0 0 288 216" xmlns="http://www.w3.org/2000/svg" version="1.1">
 <metadata>
  <rdf:RDF xmlns:dc="http://purl.org/dc/elements/1.1/" xmlns:cc="http://creativecommons.org/ns#" xmlns:rdf="http://www.w3.org/1999/02/22-rdf-syntax-ns#">
   <cc:Work>
    <dc:type rdf:resource="http://purl.org/dc/dcmitype/StillImage"/>
    <dc:date>2022-05-31T16:50:39.146347</dc:date>
    <dc:format>image/svg+xml</dc:format>
    <dc:creator>
     <cc:Agent>
      <dc:title>Matplotlib v3.5.1, https://matplotlib.org/</dc:title>
     </cc:Agent>
    </dc:creator>
   </cc:Work>
  </rdf:RDF>
 </metadata>
 <defs>
  <style type="text/css">*{stroke-linejoin: round; stroke-linecap: butt}</style>
 </defs>
 <g id="figure_1">
  <g id="patch_1">
   <path d="M 0 216 
L 288 216 
L 288 0 
L 0 0 
z
" style="fill: #ffffff"/>
  </g>
  <g id="axes_1">
   <g id="patch_2">
    <path d="M 36 192.24 
L 259.2 192.24 
L 259.2 25.92 
L 36 25.92 
z
" style="fill: #ffffff"/>
   </g>
   <g id="matplotlib.axis_1">
    <g id="xtick_1">
     <g id="line2d_1">
      <defs>
       <path id="m9b8e02a622" d="M 0 0 
L 0 3.5 
" style="stroke: #000000; stroke-width: 0.8"/>
      </defs>
      <g>
       <use xlink:href="#m9b8e02a622" x="46.145455" y="192.24" style="stroke: #000000; stroke-width: 0.8"/>
      </g>
     </g>
     <g id="text_1">
      <!-- 2600 -->
      <g transform="translate(29.602955 209.117969)scale(0.13 -0.13)">
       <defs>
        <path id="DejaVuSans-32" d="M 1228 531 
L 3431 531 
L 3431 0 
L 469 0 
L 469 531 
Q 828 903 1448 1529 
Q 2069 2156 2228 2338 
Q 2531 2678 2651 2914 
Q 2772 3150 2772 3378 
Q 2772 3750 2511 3984 
Q 2250 4219 1831 4219 
Q 1534 4219 1204 4116 
Q 875 4013 500 3803 
L 500 4441 
Q 881 4594 1212 4672 
Q 1544 4750 1819 4750 
Q 2544 4750 2975 4387 
Q 3406 4025 3406 3419 
Q 3406 3131 3298 2873 
Q 3191 2616 2906 2266 
Q 2828 2175 2409 1742 
Q 1991 1309 1228 531 
z
" transform="scale(0.015625)"/>
        <path id="DejaVuSans-36" d="M 2113 2584 
Q 1688 2584 1439 2293 
Q 1191 2003 1191 1497 
Q 1191 994 1439 701 
Q 1688 409 2113 409 
Q 2538 409 2786 701 
Q 3034 994 3034 1497 
Q 3034 2003 2786 2293 
Q 2538 2584 2113 2584 
z
M 3366 4563 
L 3366 3988 
Q 3128 4100 2886 4159 
Q 2644 4219 2406 4219 
Q 1781 4219 1451 3797 
Q 1122 3375 1075 2522 
Q 1259 2794 1537 2939 
Q 1816 3084 2150 3084 
Q 2853 3084 3261 2657 
Q 3669 2231 3669 1497 
Q 3669 778 3244 343 
Q 2819 -91 2113 -91 
Q 1303 -91 875 529 
Q 447 1150 447 2328 
Q 447 3434 972 4092 
Q 1497 4750 2381 4750 
Q 2619 4750 2861 4703 
Q 3103 4656 3366 4563 
z
" transform="scale(0.015625)"/>
        <path id="DejaVuSans-30" d="M 2034 4250 
Q 1547 4250 1301 3770 
Q 1056 3291 1056 2328 
Q 1056 1369 1301 889 
Q 1547 409 2034 409 
Q 2525 409 2770 889 
Q 3016 1369 3016 2328 
Q 3016 3291 2770 3770 
Q 2525 4250 2034 4250 
z
M 2034 4750 
Q 2819 4750 3233 4129 
Q 3647 3509 3647 2328 
Q 3647 1150 3233 529 
Q 2819 -91 2034 -91 
Q 1250 -91 836 529 
Q 422 1150 422 2328 
Q 422 3509 836 4129 
Q 1250 4750 2034 4750 
z
" transform="scale(0.015625)"/>
       </defs>
       <use xlink:href="#DejaVuSans-32"/>
       <use xlink:href="#DejaVuSans-36" x="63.623047"/>
       <use xlink:href="#DejaVuSans-30" x="127.246094"/>
       <use xlink:href="#DejaVuSans-30" x="190.869141"/>
      </g>
     </g>
    </g>
    <g id="xtick_2">
     <g id="line2d_2">
      <g>
       <use xlink:href="#m9b8e02a622" x="113.781818" y="192.24" style="stroke: #000000; stroke-width: 0.8"/>
      </g>
     </g>
     <g id="text_2">
      <!-- 2800 -->
      <g transform="translate(97.239318 209.117969)scale(0.13 -0.13)">
       <defs>
        <path id="DejaVuSans-38" d="M 2034 2216 
Q 1584 2216 1326 1975 
Q 1069 1734 1069 1313 
Q 1069 891 1326 650 
Q 1584 409 2034 409 
Q 2484 409 2743 651 
Q 3003 894 3003 1313 
Q 3003 1734 2745 1975 
Q 2488 2216 2034 2216 
z
M 1403 2484 
Q 997 2584 770 2862 
Q 544 3141 544 3541 
Q 544 4100 942 4425 
Q 1341 4750 2034 4750 
Q 2731 4750 3128 4425 
Q 3525 4100 3525 3541 
Q 3525 3141 3298 2862 
Q 3072 2584 2669 2484 
Q 3125 2378 3379 2068 
Q 3634 1759 3634 1313 
Q 3634 634 3220 271 
Q 2806 -91 2034 -91 
Q 1263 -91 848 271 
Q 434 634 434 1313 
Q 434 1759 690 2068 
Q 947 2378 1403 2484 
z
M 1172 3481 
Q 1172 3119 1398 2916 
Q 1625 2713 2034 2713 
Q 2441 2713 2670 2916 
Q 2900 3119 2900 3481 
Q 2900 3844 2670 4047 
Q 2441 4250 2034 4250 
Q 1625 4250 1398 4047 
Q 1172 3844 1172 3481 
z
" transform="scale(0.015625)"/>
       </defs>
       <use xlink:href="#DejaVuSans-32"/>
       <use xlink:href="#DejaVuSans-38" x="63.623047"/>
       <use xlink:href="#DejaVuSans-30" x="127.246094"/>
       <use xlink:href="#DejaVuSans-30" x="190.869141"/>
      </g>
     </g>
    </g>
    <g id="xtick_3">
     <g id="line2d_3">
      <g>
       <use xlink:href="#m9b8e02a622" x="181.418182" y="192.24" style="stroke: #000000; stroke-width: 0.8"/>
      </g>
     </g>
     <g id="text_3">
      <!-- 3000 -->
      <g transform="translate(164.875682 209.117969)scale(0.13 -0.13)">
       <defs>
        <path id="DejaVuSans-33" d="M 2597 2516 
Q 3050 2419 3304 2112 
Q 3559 1806 3559 1356 
Q 3559 666 3084 287 
Q 2609 -91 1734 -91 
Q 1441 -91 1130 -33 
Q 819 25 488 141 
L 488 750 
Q 750 597 1062 519 
Q 1375 441 1716 441 
Q 2309 441 2620 675 
Q 2931 909 2931 1356 
Q 2931 1769 2642 2001 
Q 2353 2234 1838 2234 
L 1294 2234 
L 1294 2753 
L 1863 2753 
Q 2328 2753 2575 2939 
Q 2822 3125 2822 3475 
Q 2822 3834 2567 4026 
Q 2313 4219 1838 4219 
Q 1578 4219 1281 4162 
Q 984 4106 628 3988 
L 628 4550 
Q 988 4650 1302 4700 
Q 1616 4750 1894 4750 
Q 2613 4750 3031 4423 
Q 3450 4097 3450 3541 
Q 3450 3153 3228 2886 
Q 3006 2619 2597 2516 
z
" transform="scale(0.015625)"/>
       </defs>
       <use xlink:href="#DejaVuSans-33"/>
       <use xlink:href="#DejaVuSans-30" x="63.623047"/>
       <use xlink:href="#DejaVuSans-30" x="127.246094"/>
       <use xlink:href="#DejaVuSans-30" x="190.869141"/>
      </g>
     </g>
    </g>
    <g id="xtick_4">
     <g id="line2d_4">
      <g>
       <use xlink:href="#m9b8e02a622" x="249.054545" y="192.24" style="stroke: #000000; stroke-width: 0.8"/>
      </g>
     </g>
     <g id="text_4">
      <!-- 3200 -->
      <g transform="translate(232.512045 209.117969)scale(0.13 -0.13)">
       <use xlink:href="#DejaVuSans-33"/>
       <use xlink:href="#DejaVuSans-32" x="63.623047"/>
       <use xlink:href="#DejaVuSans-30" x="127.246094"/>
       <use xlink:href="#DejaVuSans-30" x="190.869141"/>
      </g>
     </g>
    </g>
   </g>
   <g id="matplotlib.axis_2">
    <g id="ytick_1">
     <g id="line2d_5">
      <defs>
       <path id="me36dd98eed" d="M 0 0 
L -3.5 0 
" style="stroke: #000000; stroke-width: 0.8"/>
      </defs>
      <g>
       <use xlink:href="#me36dd98eed" x="36" y="185.410857" style="stroke: #000000; stroke-width: 0.8"/>
      </g>
     </g>
     <g id="text_5">
      <!-- 0.0 -->
      <g transform="translate(8.325937 190.349841)scale(0.13 -0.13)">
       <defs>
        <path id="DejaVuSans-2e" d="M 684 794 
L 1344 794 
L 1344 0 
L 684 0 
L 684 794 
z
" transform="scale(0.015625)"/>
       </defs>
       <use xlink:href="#DejaVuSans-30"/>
       <use xlink:href="#DejaVuSans-2e" x="63.623047"/>
       <use xlink:href="#DejaVuSans-30" x="95.410156"/>
      </g>
     </g>
    </g>
    <g id="ytick_2">
     <g id="line2d_6">
      <g>
       <use xlink:href="#me36dd98eed" x="36" y="155.024685" style="stroke: #000000; stroke-width: 0.8"/>
      </g>
     </g>
     <g id="text_6">
      <!-- 0.2 -->
      <g transform="translate(8.325937 159.96367)scale(0.13 -0.13)">
       <use xlink:href="#DejaVuSans-30"/>
       <use xlink:href="#DejaVuSans-2e" x="63.623047"/>
       <use xlink:href="#DejaVuSans-32" x="95.410156"/>
      </g>
     </g>
    </g>
    <g id="ytick_3">
     <g id="line2d_7">
      <g>
       <use xlink:href="#me36dd98eed" x="36" y="124.638514" style="stroke: #000000; stroke-width: 0.8"/>
      </g>
     </g>
     <g id="text_7">
      <!-- 0.4 -->
      <g transform="translate(8.325937 129.577498)scale(0.13 -0.13)">
       <defs>
        <path id="DejaVuSans-34" d="M 2419 4116 
L 825 1625 
L 2419 1625 
L 2419 4116 
z
M 2253 4666 
L 3047 4666 
L 3047 1625 
L 3713 1625 
L 3713 1100 
L 3047 1100 
L 3047 0 
L 2419 0 
L 2419 1100 
L 313 1100 
L 313 1709 
L 2253 4666 
z
" transform="scale(0.015625)"/>
       </defs>
       <use xlink:href="#DejaVuSans-30"/>
       <use xlink:href="#DejaVuSans-2e" x="63.623047"/>
       <use xlink:href="#DejaVuSans-34" x="95.410156"/>
      </g>
     </g>
    </g>
    <g id="ytick_4">
     <g id="line2d_8">
      <g>
       <use xlink:href="#me36dd98eed" x="36" y="94.252343" style="stroke: #000000; stroke-width: 0.8"/>
      </g>
     </g>
     <g id="text_8">
      <!-- 0.6 -->
      <g transform="translate(8.325937 99.191327)scale(0.13 -0.13)">
       <use xlink:href="#DejaVuSans-30"/>
       <use xlink:href="#DejaVuSans-2e" x="63.623047"/>
       <use xlink:href="#DejaVuSans-36" x="95.410156"/>
      </g>
     </g>
    </g>
    <g id="ytick_5">
     <g id="line2d_9">
      <g>
       <use xlink:href="#me36dd98eed" x="36" y="63.866171" style="stroke: #000000; stroke-width: 0.8"/>
      </g>
     </g>
     <g id="text_9">
      <!-- 0.8 -->
      <g transform="translate(8.325937 68.805156)scale(0.13 -0.13)">
       <use xlink:href="#DejaVuSans-30"/>
       <use xlink:href="#DejaVuSans-2e" x="63.623047"/>
       <use xlink:href="#DejaVuSans-38" x="95.410156"/>
      </g>
     </g>
    </g>
    <g id="ytick_6">
     <g id="line2d_10">
      <g>
       <use xlink:href="#me36dd98eed" x="36" y="33.48" style="stroke: #000000; stroke-width: 0.8"/>
      </g>
     </g>
     <g id="text_10">
      <!-- 1.0 -->
      <g transform="translate(8.325937 38.418984)scale(0.13 -0.13)">
       <defs>
        <path id="DejaVuSans-31" d="M 794 531 
L 1825 531 
L 1825 4091 
L 703 3866 
L 703 4441 
L 1819 4666 
L 2450 4666 
L 2450 531 
L 3481 531 
L 3481 0 
L 794 0 
L 794 531 
z
" transform="scale(0.015625)"/>
       </defs>
       <use xlink:href="#DejaVuSans-31"/>
       <use xlink:href="#DejaVuSans-2e" x="63.623047"/>
       <use xlink:href="#DejaVuSans-30" x="95.410156"/>
      </g>
     </g>
    </g>
   </g>
   <g id="line2d_11">
    <path d="M 46.145455 183.01939 
L 46.551273 182.470498 
L 46.957091 182.284971 
L 47.362909 182.659931 
L 47.768727 183.21787 
L 48.174545 184.443435 
L 48.580364 184.039534 
L 48.986182 184.03064 
L 49.392 183.838009 
L 50.609455 183.564462 
L 51.015273 183.086299 
L 52.232727 184.140728 
L 53.044364 183.988532 
L 53.450182 184.331489 
L 54.261818 183.017954 
L 54.667636 183.398573 
L 55.073455 183.10364 
L 55.479273 183.080868 
L 56.290909 184.293228 
L 57.102545 184.574805 
L 57.914182 184.398445 
L 58.725818 183.222453 
L 59.537455 183.424168 
L 59.943273 182.940189 
L 60.349091 183.167741 
L 60.754909 182.527524 
L 61.160727 182.424321 
L 61.566545 182.788673 
L 61.972364 182.807124 
L 62.378182 183.159135 
L 62.784 183.833401 
L 63.595636 183.059938 
L 64.001455 182.325906 
L 64.407273 183.17733 
L 64.813091 183.190848 
L 65.218909 182.493917 
L 65.624727 182.703014 
L 66.030545 183.75958 
L 66.842182 183.259415 
L 67.248 183.622607 
L 67.653818 183.327324 
L 68.059636 182.816502 
L 68.871273 182.442783 
L 69.277091 182.465339 
L 70.088727 184.430165 
L 70.900364 183.286708 
L 71.306182 183.054457 
L 71.712 182.430272 
L 72.523636 182.004773 
L 72.929455 182.248987 
L 73.335273 182.885881 
L 74.552727 183.865019 
L 75.364364 183.527671 
L 75.770182 183.687017 
L 76.581818 183.299061 
L 76.987636 183.892675 
L 77.393455 184.10135 
L 77.799273 183.284404 
L 78.205091 182.836081 
L 78.610909 183.377426 
L 79.828364 183.557855 
L 80.234182 183.344911 
L 80.64 183.489235 
L 81.045818 183.426394 
L 81.451636 182.91294 
L 81.857455 183.085115 
L 82.263273 183.542869 
L 82.669091 183.555122 
L 83.074909 184.242487 
L 83.480727 184.380141 
L 83.886545 183.24115 
L 84.292364 183.242605 
L 84.698182 183.720166 
L 85.104 183.137676 
L 85.915636 183.46998 
L 86.321455 183.853853 
L 86.727273 183.388992 
L 87.133091 183.642301 
L 87.538909 183.204764 
L 87.944727 181.575128 
L 88.350545 179.198115 
L 88.756364 174.724009 
L 89.162182 168.829201 
L 89.568 159.900666 
L 89.973818 144.749969 
L 90.785455 99.395766 
L 91.191273 84.827022 
L 91.597091 79.207543 
L 92.002909 83.549039 
L 92.408727 101.115749 
L 93.220364 145.891703 
L 93.626182 159.341637 
L 94.032 168.308328 
L 94.437818 174.722369 
L 94.843636 179.20824 
L 95.249455 181.540126 
L 95.655273 182.8551 
L 96.061091 183.771694 
L 96.466909 184.285439 
L 96.872727 183.709515 
L 97.278545 183.807554 
L 97.684364 184.061253 
L 98.090182 183.473039 
L 98.496 182.309165 
L 98.901818 182.4597 
L 99.307636 183.014188 
L 99.713455 184.098754 
L 100.119273 184.014864 
L 100.525091 184.179476 
L 100.930909 184.475854 
L 101.336727 184.175773 
L 101.742545 183.488657 
L 102.148364 183.032141 
L 102.554182 183.147726 
L 102.96 182.96026 
L 103.771636 180.178476 
L 104.177455 179.548306 
L 104.583273 179.796363 
L 105.394909 181.273725 
L 105.800727 182.338927 
L 106.206545 182.897066 
L 106.612364 182.822054 
L 107.424 183.187469 
L 108.235636 182.890862 
L 108.641455 182.533163 
L 109.047273 181.872644 
L 109.453091 181.988817 
L 109.858909 183.079539 
L 110.264727 183.393553 
L 110.670545 183.422937 
L 111.076364 183.617768 
L 111.482182 184.231458 
L 111.888 184.102771 
L 112.293818 183.622987 
L 112.699636 183.362138 
L 113.105455 183.495839 
L 113.511273 183.089637 
L 113.917091 182.864137 
L 114.322909 182.997246 
L 115.540364 183.970972 
L 116.352 182.446179 
L 116.757818 182.73331 
L 117.569455 183.01941 
L 118.381091 184.063979 
L 119.192727 182.431103 
L 119.598545 181.494968 
L 120.004364 181.201789 
L 120.410182 181.096897 
L 120.816 180.854646 
L 121.221818 179.502328 
L 122.033455 173.701862 
L 122.845091 163.89595 
L 123.250909 157.285719 
L 123.656727 147.646463 
L 124.062545 132.980923 
L 124.874182 87.34502 
L 125.28 61.938332 
L 125.685818 46.418853 
L 126.091636 43.829898 
L 126.497455 53.049228 
L 126.903273 75.00558 
L 127.714909 127.663582 
L 128.120727 145.263159 
L 128.526545 157.835806 
L 128.932364 165.815924 
L 129.744 175.620142 
L 130.149818 178.882526 
L 131.367273 183.239205 
L 131.773091 183.453534 
L 132.178909 183.427891 
L 132.584727 182.734597 
L 132.990545 182.787059 
L 133.396364 183.222027 
L 134.208 182.186383 
L 134.613818 182.005176 
L 135.019636 182.013672 
L 135.831273 180.310915 
L 136.237091 180.778609 
L 136.642909 181.486221 
L 137.048727 181.171839 
L 137.454545 181.464816 
L 137.860364 182.601491 
L 138.266182 184.10714 
L 138.672 183.797646 
L 139.483636 182.66751 
L 139.889455 182.403742 
L 140.295273 181.72372 
L 140.701091 181.550719 
L 141.106909 181.598415 
L 141.512727 182.19386 
L 141.918545 182.523725 
L 142.324364 183.081143 
L 142.730182 183.266765 
L 143.541818 184.207332 
L 144.759273 183.403553 
L 145.165091 183.768554 
L 145.570909 183.55708 
L 146.382545 182.677742 
L 147.194182 179.887715 
L 147.6 179.318686 
L 148.005818 179.994724 
L 148.817455 183.373259 
L 149.629091 183.708393 
L 150.034909 183.571713 
L 150.440727 182.861738 
L 150.846545 182.716113 
L 151.252364 182.365735 
L 152.469818 178.081566 
L 152.875636 177.796822 
L 153.281455 175.653552 
L 154.093091 169.573213 
L 154.498909 164.898974 
L 154.904727 158.297873 
L 155.310545 148.774445 
L 155.716364 133.101849 
L 157.339636 36.724492 
L 157.745455 33.48 
L 158.151273 44.813354 
L 159.774545 141.125094 
L 160.586182 161.690058 
L 161.397818 174.134518 
L 161.803636 178.292389 
L 162.209455 180.869252 
L 162.615273 181.616897 
L 163.021091 182.700222 
L 163.426909 183.016355 
L 164.238545 182.647595 
L 164.644364 183.284126 
L 165.050182 184.170532 
L 165.456 183.566661 
L 166.267636 181.701043 
L 166.673455 180.736096 
L 167.079273 181.273699 
L 167.485091 182.317961 
L 167.890909 182.557018 
L 168.296727 182.93807 
L 168.702545 182.660996 
L 169.108364 181.84649 
L 169.514182 182.333983 
L 169.92 183.762091 
L 170.325818 184.203354 
L 171.137455 184.147088 
L 171.543273 183.510501 
L 171.949091 183.314703 
L 172.354909 182.973986 
L 173.166545 183.609081 
L 174.384 183.124024 
L 174.789818 183.223009 
L 175.195636 183.59028 
L 175.601455 183.578046 
L 176.007273 183.099652 
L 176.818909 183.519643 
L 177.224727 182.34207 
L 177.630545 182.20053 
L 178.848 181.457551 
L 179.253818 181.366626 
L 179.659636 181.018856 
L 180.065455 180.8487 
L 180.471273 180.935822 
L 180.877091 181.604642 
L 181.282909 181.830787 
L 181.688727 181.702756 
L 182.094545 180.762153 
L 182.906182 175.245533 
L 183.312 171.369981 
L 183.717818 165.485286 
L 184.123636 155.560949 
L 185.341091 100.526227 
L 185.746909 95.355123 
L 186.152727 97.720619 
L 186.558545 108.614012 
L 187.776 159.636169 
L 188.181818 168.497307 
L 188.993455 177.87812 
L 189.399273 180.370586 
L 189.805091 182.163612 
L 190.210909 183.375673 
L 190.616727 184.083726 
L 191.022545 184.172621 
L 191.834182 184.636156 
L 192.24 184.665604 
L 193.051636 183.826387 
L 193.457455 183.792727 
L 193.863273 183.49806 
L 194.674909 184.219176 
L 195.080727 184.022098 
L 195.486545 183.065716 
L 195.892364 183.374359 
L 196.298182 184.076286 
L 197.109818 182.939972 
L 198.327273 184.05029 
L 198.733091 183.688739 
L 199.544727 184.037325 
L 199.950545 183.86459 
L 200.356364 184.178803 
L 201.573818 183.362437 
L 202.385455 184.325909 
L 203.197091 184.163513 
L 204.414545 182.969951 
L 204.820364 183.616856 
L 205.226182 183.269715 
L 205.632 183.68623 
L 206.037818 183.869051 
L 206.443636 182.364669 
L 206.849455 182.282406 
L 207.255273 182.737669 
L 207.661091 183.839942 
L 208.066909 184.021079 
L 208.472727 183.965152 
L 208.878545 183.318713 
L 209.284364 183.086838 
L 209.690182 183.741693 
L 210.096 183.904204 
L 210.501818 184.346595 
L 210.907636 184.335095 
L 211.313455 183.868215 
L 212.125091 183.71414 
L 212.530909 182.776559 
L 212.936727 182.76218 
L 213.342545 182.600584 
L 213.748364 182.649113 
L 214.154182 182.875522 
L 214.965818 183.885149 
L 215.371636 183.450969 
L 215.777455 183.314198 
L 216.589091 183.775922 
L 216.994909 183.831919 
L 217.400727 183.432677 
L 218.212364 183.37698 
L 218.618182 182.500887 
L 219.429818 182.796472 
L 219.835636 182.298594 
L 220.647273 184.452774 
L 221.053091 184.218045 
L 221.458909 183.83874 
L 221.864727 183.751842 
L 222.270545 183.869765 
L 222.676364 183.515243 
L 223.082182 183.5895 
L 223.488 183.025368 
L 224.705455 184.40149 
L 225.111273 184.124686 
L 225.517091 183.66097 
L 225.922909 182.90341 
L 226.328727 182.612549 
L 226.734545 183.246835 
L 227.952 183.31412 
L 228.357818 183.85308 
L 228.763636 184.634289 
L 229.575273 183.657145 
L 229.981091 183.245897 
L 230.386909 182.103159 
L 230.792727 181.801018 
L 231.604364 183.150173 
L 232.010182 183.561032 
L 232.416 183.27571 
L 232.821818 182.736543 
L 233.227636 183.096517 
L 233.633455 183.822326 
L 234.039273 183.271795 
L 234.445091 183.133339 
L 234.850909 183.252223 
L 235.256727 182.907218 
L 236.068364 181.586762 
L 236.474182 181.944841 
L 236.88 182.852206 
L 237.285818 182.833168 
L 238.097455 184.68 
L 238.503273 184.642227 
L 239.314909 183.74536 
L 239.720727 183.897165 
L 240.532364 182.875223 
L 241.344 182.705642 
L 242.155636 184.0724 
L 242.561455 183.417169 
L 242.967273 183.273046 
L 243.373091 183.784279 
L 243.778909 183.766192 
L 244.184727 184.042016 
L 244.590545 183.964487 
L 244.996364 183.595426 
L 245.402182 183.948094 
L 246.213818 183.225099 
L 246.619636 183.089786 
L 247.025455 183.523644 
L 247.431273 184.325875 
L 248.242909 183.807671 
L 248.648727 183.764719 
L 249.054545 184.29807 
L 249.054545 184.29807 
" clip-path="url(#pbf6491940e)" style="fill: none; stroke: #1f77b4; stroke-width: 1.5; stroke-linecap: square"/>
   </g>
   <g id="patch_3">
    <path d="M 36 192.24 
L 36 25.92 
" style="fill: none; stroke: #000000; stroke-width: 0.8; stroke-linejoin: miter; stroke-linecap: square"/>
   </g>
   <g id="patch_4">
    <path d="M 259.2 192.24 
L 259.2 25.92 
" style="fill: none; stroke: #000000; stroke-width: 0.8; stroke-linejoin: miter; stroke-linecap: square"/>
   </g>
   <g id="patch_5">
    <path d="M 36 192.24 
L 259.2 192.24 
" style="fill: none; stroke: #000000; stroke-width: 0.8; stroke-linejoin: miter; stroke-linecap: square"/>
   </g>
   <g id="patch_6">
    <path d="M 36 25.92 
L 259.2 25.92 
" style="fill: none; stroke: #000000; stroke-width: 0.8; stroke-linejoin: miter; stroke-linecap: square"/>
   </g>
  </g>
 </g>
 <defs>
  <clipPath id="pbf6491940e">
   <rect x="36" y="25.92" width="223.2" height="166.32"/>
  </clipPath>
 </defs>
</svg>
