<?xml version="1.0" encoding="utf-8" standalone="no"?>
<!DOCTYPE svg PUBLIC "-//W3C//DTD SVG 1.1//EN"
  "http://www.w3.org/Graphics/SVG/1.1/DTD/svg11.dtd">
<svg xmlns:xlink="http://www.w3.org/1999/xlink" width="288pt" height="216pt" viewBox="0 0 288 216" xmlns="http://www.w3.org/2000/svg" version="1.1">
 <metadata>
  <rdf:RDF xmlns:dc="http://purl.org/dc/elements/1.1/" xmlns:cc="http://creativecommons.org/ns#" xmlns:rdf="http://www.w3.org/1999/02/22-rdf-syntax-ns#">
   <cc:Work>
    <dc:type rdf:resource="http://purl.org/dc/dcmitype/StillImage"/>
    <dc:date>2022-05-31T16:52:04.043799</dc:date>
    <dc:format>image/svg+xml</dc:format>
    <dc:creator>
     <cc:Agent>
      <dc:title>Matplotlib v3.5.1, https://matplotlib.org/</dc:title>
     </cc:Agent>
    </dc:creator>
   </cc:Work>
  </rdf:RDF>
 </metadata>
 <defs>
  <style type="text/css">*{stroke-linejoin: round; stroke-linecap: butt}</style>
 </defs>
 <g id="figure_1">
  <g id="patch_1">
   <path d="M 0 216 
L 288 216 
L 288 0 
L 0 0 
z
" style="fill: #ffffff"/>
  </g>
  <g id="axes_1">
   <g id="patch_2">
    <path d="M 36 192.24 
L 259.2 192.24 
L 259.2 25.92 
L 36 25.92 
z
" style="fill: #ffffff"/>
   </g>
   <g id="matplotlib.axis_1">
    <g id="xtick_1">
     <g id="line2d_1">
      <defs>
       <path id="m399322917d" d="M 0 0 
L 0 3.5 
" style="stroke: #000000; stroke-width: 0.8"/>
      </defs>
      <g>
       <use xlink:href="#m399322917d" x="46.145455" y="192.24" style="stroke: #000000; stroke-width: 0.8"/>
      </g>
     </g>
     <g id="text_1">
      <!-- 2600 -->
      <g transform="translate(29.602955 209.117969)scale(0.13 -0.13)">
       <defs>
        <path id="DejaVuSans-32" d="M 1228 531 
L 3431 531 
L 3431 0 
L 469 0 
L 469 531 
Q 828 903 1448 1529 
Q 2069 2156 2228 2338 
Q 2531 2678 2651 2914 
Q 2772 3150 2772 3378 
Q 2772 3750 2511 3984 
Q 2250 4219 1831 4219 
Q 1534 4219 1204 4116 
Q 875 4013 500 3803 
L 500 4441 
Q 881 4594 1212 4672 
Q 1544 4750 1819 4750 
Q 2544 4750 2975 4387 
Q 3406 4025 3406 3419 
Q 3406 3131 3298 2873 
Q 3191 2616 2906 2266 
Q 2828 2175 2409 1742 
Q 1991 1309 1228 531 
z
" transform="scale(0.015625)"/>
        <path id="DejaVuSans-36" d="M 2113 2584 
Q 1688 2584 1439 2293 
Q 1191 2003 1191 1497 
Q 1191 994 1439 701 
Q 1688 409 2113 409 
Q 2538 409 2786 701 
Q 3034 994 3034 1497 
Q 3034 2003 2786 2293 
Q 2538 2584 2113 2584 
z
M 3366 4563 
L 3366 3988 
Q 3128 4100 2886 4159 
Q 2644 4219 2406 4219 
Q 1781 4219 1451 3797 
Q 1122 3375 1075 2522 
Q 1259 2794 1537 2939 
Q 1816 3084 2150 3084 
Q 2853 3084 3261 2657 
Q 3669 2231 3669 1497 
Q 3669 778 3244 343 
Q 2819 -91 2113 -91 
Q 1303 -91 875 529 
Q 447 1150 447 2328 
Q 447 3434 972 4092 
Q 1497 4750 2381 4750 
Q 2619 4750 2861 4703 
Q 3103 4656 3366 4563 
z
" transform="scale(0.015625)"/>
        <path id="DejaVuSans-30" d="M 2034 4250 
Q 1547 4250 1301 3770 
Q 1056 3291 1056 2328 
Q 1056 1369 1301 889 
Q 1547 409 2034 409 
Q 2525 409 2770 889 
Q 3016 1369 3016 2328 
Q 3016 3291 2770 3770 
Q 2525 4250 2034 4250 
z
M 2034 4750 
Q 2819 4750 3233 4129 
Q 3647 3509 3647 2328 
Q 3647 1150 3233 529 
Q 2819 -91 2034 -91 
Q 1250 -91 836 529 
Q 422 1150 422 2328 
Q 422 3509 836 4129 
Q 1250 4750 2034 4750 
z
" transform="scale(0.015625)"/>
       </defs>
       <use xlink:href="#DejaVuSans-32"/>
       <use xlink:href="#DejaVuSans-36" x="63.623047"/>
       <use xlink:href="#DejaVuSans-30" x="127.246094"/>
       <use xlink:href="#DejaVuSans-30" x="190.869141"/>
      </g>
     </g>
    </g>
    <g id="xtick_2">
     <g id="line2d_2">
      <g>
       <use xlink:href="#m399322917d" x="113.781818" y="192.24" style="stroke: #000000; stroke-width: 0.8"/>
      </g>
     </g>
     <g id="text_2">
      <!-- 2800 -->
      <g transform="translate(97.239318 209.117969)scale(0.13 -0.13)">
       <defs>
        <path id="DejaVuSans-38" d="M 2034 2216 
Q 1584 2216 1326 1975 
Q 1069 1734 1069 1313 
Q 1069 891 1326 650 
Q 1584 409 2034 409 
Q 2484 409 2743 651 
Q 3003 894 3003 1313 
Q 3003 1734 2745 1975 
Q 2488 2216 2034 2216 
z
M 1403 2484 
Q 997 2584 770 2862 
Q 544 3141 544 3541 
Q 544 4100 942 4425 
Q 1341 4750 2034 4750 
Q 2731 4750 3128 4425 
Q 3525 4100 3525 3541 
Q 3525 3141 3298 2862 
Q 3072 2584 2669 2484 
Q 3125 2378 3379 2068 
Q 3634 1759 3634 1313 
Q 3634 634 3220 271 
Q 2806 -91 2034 -91 
Q 1263 -91 848 271 
Q 434 634 434 1313 
Q 434 1759 690 2068 
Q 947 2378 1403 2484 
z
M 1172 3481 
Q 1172 3119 1398 2916 
Q 1625 2713 2034 2713 
Q 2441 2713 2670 2916 
Q 2900 3119 2900 3481 
Q 2900 3844 2670 4047 
Q 2441 4250 2034 4250 
Q 1625 4250 1398 4047 
Q 1172 3844 1172 3481 
z
" transform="scale(0.015625)"/>
       </defs>
       <use xlink:href="#DejaVuSans-32"/>
       <use xlink:href="#DejaVuSans-38" x="63.623047"/>
       <use xlink:href="#DejaVuSans-30" x="127.246094"/>
       <use xlink:href="#DejaVuSans-30" x="190.869141"/>
      </g>
     </g>
    </g>
    <g id="xtick_3">
     <g id="line2d_3">
      <g>
       <use xlink:href="#m399322917d" x="181.418182" y="192.24" style="stroke: #000000; stroke-width: 0.8"/>
      </g>
     </g>
     <g id="text_3">
      <!-- 3000 -->
      <g transform="translate(164.875682 209.117969)scale(0.13 -0.13)">
       <defs>
        <path id="DejaVuSans-33" d="M 2597 2516 
Q 3050 2419 3304 2112 
Q 3559 1806 3559 1356 
Q 3559 666 3084 287 
Q 2609 -91 1734 -91 
Q 1441 -91 1130 -33 
Q 819 25 488 141 
L 488 750 
Q 750 597 1062 519 
Q 1375 441 1716 441 
Q 2309 441 2620 675 
Q 2931 909 2931 1356 
Q 2931 1769 2642 2001 
Q 2353 2234 1838 2234 
L 1294 2234 
L 1294 2753 
L 1863 2753 
Q 2328 2753 2575 2939 
Q 2822 3125 2822 3475 
Q 2822 3834 2567 4026 
Q 2313 4219 1838 4219 
Q 1578 4219 1281 4162 
Q 984 4106 628 3988 
L 628 4550 
Q 988 4650 1302 4700 
Q 1616 4750 1894 4750 
Q 2613 4750 3031 4423 
Q 3450 4097 3450 3541 
Q 3450 3153 3228 2886 
Q 3006 2619 2597 2516 
z
" transform="scale(0.015625)"/>
       </defs>
       <use xlink:href="#DejaVuSans-33"/>
       <use xlink:href="#DejaVuSans-30" x="63.623047"/>
       <use xlink:href="#DejaVuSans-30" x="127.246094"/>
       <use xlink:href="#DejaVuSans-30" x="190.869141"/>
      </g>
     </g>
    </g>
    <g id="xtick_4">
     <g id="line2d_4">
      <g>
       <use xlink:href="#m399322917d" x="249.054545" y="192.24" style="stroke: #000000; stroke-width: 0.8"/>
      </g>
     </g>
     <g id="text_4">
      <!-- 3200 -->
      <g transform="translate(232.512045 209.117969)scale(0.13 -0.13)">
       <use xlink:href="#DejaVuSans-33"/>
       <use xlink:href="#DejaVuSans-32" x="63.623047"/>
       <use xlink:href="#DejaVuSans-30" x="127.246094"/>
       <use xlink:href="#DejaVuSans-30" x="190.869141"/>
      </g>
     </g>
    </g>
   </g>
   <g id="matplotlib.axis_2">
    <g id="ytick_1">
     <g id="line2d_5">
      <defs>
       <path id="m2aa0d5e942" d="M 0 0 
L -3.5 0 
" style="stroke: #000000; stroke-width: 0.8"/>
      </defs>
      <g>
       <use xlink:href="#m2aa0d5e942" x="36" y="184.802798" style="stroke: #000000; stroke-width: 0.8"/>
      </g>
     </g>
     <g id="text_5">
      <!-- 0.0 -->
      <g transform="translate(8.325937 189.741783)scale(0.13 -0.13)">
       <defs>
        <path id="DejaVuSans-2e" d="M 684 794 
L 1344 794 
L 1344 0 
L 684 0 
L 684 794 
z
" transform="scale(0.015625)"/>
       </defs>
       <use xlink:href="#DejaVuSans-30"/>
       <use xlink:href="#DejaVuSans-2e" x="63.623047"/>
       <use xlink:href="#DejaVuSans-30" x="95.410156"/>
      </g>
     </g>
    </g>
    <g id="ytick_2">
     <g id="line2d_6">
      <g>
       <use xlink:href="#m2aa0d5e942" x="36" y="154.538239" style="stroke: #000000; stroke-width: 0.8"/>
      </g>
     </g>
     <g id="text_6">
      <!-- 0.2 -->
      <g transform="translate(8.325937 159.477223)scale(0.13 -0.13)">
       <use xlink:href="#DejaVuSans-30"/>
       <use xlink:href="#DejaVuSans-2e" x="63.623047"/>
       <use xlink:href="#DejaVuSans-32" x="95.410156"/>
      </g>
     </g>
    </g>
    <g id="ytick_3">
     <g id="line2d_7">
      <g>
       <use xlink:href="#m2aa0d5e942" x="36" y="124.273679" style="stroke: #000000; stroke-width: 0.8"/>
      </g>
     </g>
     <g id="text_7">
      <!-- 0.4 -->
      <g transform="translate(8.325937 129.212663)scale(0.13 -0.13)">
       <defs>
        <path id="DejaVuSans-34" d="M 2419 4116 
L 825 1625 
L 2419 1625 
L 2419 4116 
z
M 2253 4666 
L 3047 4666 
L 3047 1625 
L 3713 1625 
L 3713 1100 
L 3047 1100 
L 3047 0 
L 2419 0 
L 2419 1100 
L 313 1100 
L 313 1709 
L 2253 4666 
z
" transform="scale(0.015625)"/>
       </defs>
       <use xlink:href="#DejaVuSans-30"/>
       <use xlink:href="#DejaVuSans-2e" x="63.623047"/>
       <use xlink:href="#DejaVuSans-34" x="95.410156"/>
      </g>
     </g>
    </g>
    <g id="ytick_4">
     <g id="line2d_8">
      <g>
       <use xlink:href="#m2aa0d5e942" x="36" y="94.009119" style="stroke: #000000; stroke-width: 0.8"/>
      </g>
     </g>
     <g id="text_8">
      <!-- 0.6 -->
      <g transform="translate(8.325937 98.948104)scale(0.13 -0.13)">
       <use xlink:href="#DejaVuSans-30"/>
       <use xlink:href="#DejaVuSans-2e" x="63.623047"/>
       <use xlink:href="#DejaVuSans-36" x="95.410156"/>
      </g>
     </g>
    </g>
    <g id="ytick_5">
     <g id="line2d_9">
      <g>
       <use xlink:href="#m2aa0d5e942" x="36" y="63.74456" style="stroke: #000000; stroke-width: 0.8"/>
      </g>
     </g>
     <g id="text_9">
      <!-- 0.8 -->
      <g transform="translate(8.325937 68.683544)scale(0.13 -0.13)">
       <use xlink:href="#DejaVuSans-30"/>
       <use xlink:href="#DejaVuSans-2e" x="63.623047"/>
       <use xlink:href="#DejaVuSans-38" x="95.410156"/>
      </g>
     </g>
    </g>
    <g id="ytick_6">
     <g id="line2d_10">
      <g>
       <use xlink:href="#m2aa0d5e942" x="36" y="33.48" style="stroke: #000000; stroke-width: 0.8"/>
      </g>
     </g>
     <g id="text_10">
      <!-- 1.0 -->
      <g transform="translate(8.325937 38.418984)scale(0.13 -0.13)">
       <defs>
        <path id="DejaVuSans-31" d="M 794 531 
L 1825 531 
L 1825 4091 
L 703 3866 
L 703 4441 
L 1819 4666 
L 2450 4666 
L 2450 531 
L 3481 531 
L 3481 0 
L 794 0 
L 794 531 
z
" transform="scale(0.015625)"/>
       </defs>
       <use xlink:href="#DejaVuSans-31"/>
       <use xlink:href="#DejaVuSans-2e" x="63.623047"/>
       <use xlink:href="#DejaVuSans-30" x="95.410156"/>
      </g>
     </g>
    </g>
   </g>
   <g id="line2d_11">
    <path d="M 46.145455 184.433539 
L 46.551273 184.332528 
L 46.957091 183.350013 
L 47.362909 182.906064 
L 47.768727 183.559673 
L 48.174545 183.913995 
L 48.986182 183.688317 
L 49.392 183.553546 
L 49.797818 183.961291 
L 50.609455 183.608781 
L 51.015273 183.686497 
L 51.421091 183.347992 
L 51.826909 182.817234 
L 52.232727 182.871811 
L 53.044364 183.929434 
L 53.450182 183.487227 
L 53.856 182.836052 
L 54.261818 182.813711 
L 55.073455 183.069626 
L 55.479273 182.835055 
L 56.290909 184.609753 
L 56.696727 183.903461 
L 57.102545 182.397142 
L 57.508364 182.922918 
L 57.914182 182.902379 
L 58.32 181.749268 
L 58.725818 181.699908 
L 59.537455 183.160634 
L 59.943273 182.726819 
L 60.349091 183.157171 
L 60.754909 183.236411 
L 61.160727 182.950159 
L 61.566545 183.893022 
L 61.972364 183.472629 
L 62.378182 182.50874 
L 62.784 181.897435 
L 63.189818 183.419214 
L 63.595636 184.210078 
L 64.001455 184.301272 
L 64.407273 184.067498 
L 65.218909 183.396904 
L 66.030545 182.900084 
L 66.436364 183.074369 
L 66.842182 183.113995 
L 67.248 183.58924 
L 67.653818 183.218621 
L 68.059636 182.221128 
L 68.465455 182.355817 
L 68.871273 183.372149 
L 69.277091 183.529515 
L 69.682909 182.99009 
L 70.088727 182.829506 
L 70.494545 182.95866 
L 71.306182 184.091207 
L 71.712 183.513144 
L 72.117818 183.433255 
L 72.523636 183.854314 
L 72.929455 183.319379 
L 73.335273 183.138758 
L 73.741091 183.95448 
L 74.146909 183.874569 
L 74.552727 183.256453 
L 75.364364 182.981062 
L 75.770182 183.026825 
L 76.176 182.478795 
L 76.581818 182.728513 
L 76.987636 183.39561 
L 77.393455 183.034921 
L 77.799273 182.069068 
L 78.610909 182.550496 
L 79.016727 182.308922 
L 79.422545 183.102594 
L 79.828364 182.98499 
L 80.64 183.279239 
L 81.045818 183.583574 
L 81.451636 183.17214 
L 81.857455 183.033688 
L 82.263273 183.39075 
L 82.669091 184.178303 
L 83.074909 184.68 
L 83.480727 182.866237 
L 83.886545 182.118763 
L 84.292364 183.207424 
L 84.698182 182.910911 
L 85.104 183.630173 
L 85.509818 182.943626 
L 85.915636 181.060465 
L 86.321455 180.799193 
L 86.727273 181.560142 
L 87.133091 180.873869 
L 87.538909 179.646618 
L 87.944727 179.493899 
L 88.350545 179.57533 
L 88.756364 180.153266 
L 89.568 180.657702 
L 89.973818 179.78854 
L 90.785455 175.813791 
L 91.191273 172.521387 
L 91.597091 167.560824 
L 92.002909 159.063407 
L 92.408727 144.806441 
L 92.814545 125.664136 
L 93.220364 112.018532 
L 93.626182 106.169655 
L 94.032 106.517687 
L 94.437818 114.523386 
L 95.655273 158.124412 
L 96.466909 173.998662 
L 96.872727 177.623173 
L 97.278545 179.688683 
L 97.684364 180.790884 
L 98.090182 180.644175 
L 98.496 180.736341 
L 99.307636 183.172179 
L 99.713455 183.548842 
L 100.119273 184.285925 
L 100.525091 183.227113 
L 100.930909 182.945294 
L 101.336727 183.411889 
L 101.742545 183.007105 
L 102.148364 182.346353 
L 102.554182 182.225592 
L 102.96 181.88022 
L 103.365818 181.884932 
L 103.771636 181.00206 
L 104.177455 179.716372 
L 104.989091 173.931306 
L 105.394909 170.163968 
L 106.206545 156.84187 
L 106.612364 145.762703 
L 107.018182 128.055708 
L 108.235636 44.820257 
L 108.641455 33.48 
L 109.047273 34.915445 
L 109.453091 49.020514 
L 111.076364 145.697116 
L 111.482182 157.83586 
L 111.888 166.023202 
L 112.293818 171.588088 
L 113.105455 175.905086 
L 113.917091 179.600585 
L 114.322909 181.074515 
L 114.728727 181.423019 
L 115.540364 182.752017 
L 115.946182 182.830978 
L 116.352 182.634444 
L 116.757818 181.631347 
L 117.163636 181.191866 
L 117.569455 181.688533 
L 117.975273 182.774258 
L 118.381091 182.873009 
L 118.786909 182.065222 
L 119.192727 182.26687 
L 120.004364 181.280421 
L 120.410182 180.334375 
L 121.221818 176.578141 
L 121.627636 172.88803 
L 122.033455 166.836376 
L 122.439273 158.053146 
L 122.845091 151.964482 
L 123.250909 150.393171 
L 123.656727 152.057384 
L 124.062545 158.014508 
L 124.874182 173.371392 
L 125.28 178.140317 
L 125.685818 180.457379 
L 126.091636 180.362809 
L 126.497455 179.736297 
L 126.903273 180.60498 
L 127.714909 182.888857 
L 128.120727 183.104205 
L 128.526545 182.915445 
L 128.932364 182.262027 
L 129.338182 182.349629 
L 129.744 183.224108 
L 130.149818 182.872465 
L 130.555636 182.128423 
L 131.367273 184.080153 
L 132.178909 184.011788 
L 132.584727 182.862644 
L 132.990545 182.20819 
L 133.802182 183.2586 
L 134.208 182.943151 
L 134.613818 181.403626 
L 135.019636 180.836041 
L 135.425455 181.502145 
L 135.831273 182.465272 
L 136.237091 182.73883 
L 136.642909 182.241467 
L 137.048727 182.179612 
L 137.454545 181.739391 
L 137.860364 181.91753 
L 138.672 183.505549 
L 139.483636 181.895001 
L 139.889455 181.587086 
L 140.295273 181.878378 
L 140.701091 182.51239 
L 141.106909 182.933836 
L 141.512727 183.708834 
L 142.324364 183.760685 
L 142.730182 183.425442 
L 143.136 184.068508 
L 143.541818 184.088398 
L 143.947636 183.023872 
L 144.353455 182.597605 
L 144.759273 182.783134 
L 145.165091 183.528295 
L 145.570909 183.106979 
L 145.976727 183.577607 
L 146.382545 183.798404 
L 146.788364 183.630482 
L 147.194182 183.998592 
L 147.6 183.970123 
L 148.411636 184.080929 
L 148.817455 183.829277 
L 149.223273 182.90096 
L 149.629091 183.264035 
L 150.440727 183.511141 
L 151.658182 183.575338 
L 152.064 182.279978 
L 152.469818 181.375549 
L 152.875636 179.82257 
L 153.281455 178.74535 
L 153.687273 178.582049 
L 154.093091 178.557334 
L 154.904727 182.023701 
L 155.310545 181.245189 
L 155.716364 180.774931 
L 156.122182 181.106755 
L 156.933818 182.243949 
L 157.339636 182.577532 
L 157.745455 183.230998 
L 158.151273 183.587123 
L 158.557091 183.359768 
L 158.962909 182.202184 
L 159.368727 179.658794 
L 159.774545 178.947211 
L 160.180364 178.91112 
L 160.586182 178.245038 
L 160.992 176.706597 
L 161.397818 173.255996 
L 161.803636 163.305874 
L 162.615273 137.652478 
L 163.021091 131.557326 
L 163.426909 131.133494 
L 163.832727 137.461849 
L 165.050182 166.687229 
L 165.456 171.869581 
L 165.861818 175.030197 
L 167.079273 182.198103 
L 167.485091 183.297304 
L 167.890909 182.750763 
L 168.296727 183.243946 
L 168.702545 182.765387 
L 169.108364 182.839763 
L 169.514182 182.166978 
L 169.92 181.13009 
L 170.325818 181.246273 
L 170.731636 180.53006 
L 171.137455 179.180467 
L 171.543273 177.37443 
L 171.949091 174.900661 
L 172.354909 171.582932 
L 172.760727 165.976982 
L 173.166545 157.94859 
L 173.572364 146.273418 
L 174.789818 86.824789 
L 175.195636 76.459616 
L 175.601455 74.56795 
L 176.007273 82.921622 
L 177.630545 154.38909 
L 178.036364 163.98101 
L 178.442182 169.647216 
L 179.659636 178.941736 
L 180.065455 181.104404 
L 180.471273 182.448039 
L 180.877091 182.709063 
L 181.688727 182.220218 
L 182.094545 182.185552 
L 182.500364 181.405921 
L 182.906182 181.305737 
L 184.123636 175.165892 
L 184.529455 172.556132 
L 184.935273 167.655328 
L 185.341091 159.28081 
L 185.746909 146.827588 
L 186.558545 117.146844 
L 186.964364 109.153997 
L 187.370182 108.438966 
L 187.776 116.684827 
L 188.587636 146.444824 
L 189.399273 165.778959 
L 189.805091 171.631016 
L 191.428364 182.604751 
L 191.834182 183.406463 
L 192.24 182.342617 
L 192.645818 181.991853 
L 193.051636 182.854509 
L 193.457455 184.084735 
L 193.863273 183.491848 
L 194.269091 183.428944 
L 194.674909 182.971751 
L 195.080727 181.133025 
L 195.486545 180.71913 
L 195.892364 180.960556 
L 196.298182 180.096751 
L 196.704 178.941283 
L 197.109818 179.52475 
L 197.515636 181.733899 
L 197.921455 183.300465 
L 198.327273 183.710772 
L 198.733091 183.943749 
L 199.138909 183.224997 
L 199.544727 181.846542 
L 199.950545 182.64808 
L 200.356364 183.922492 
L 200.762182 184.399583 
L 201.573818 183.564089 
L 202.385455 181.906712 
L 202.791273 183.342269 
L 203.197091 184.152521 
L 203.602909 183.89087 
L 204.008727 184.076861 
L 204.414545 184.082444 
L 204.820364 183.921382 
L 205.226182 183.043531 
L 205.632 183.132409 
L 206.037818 182.993918 
L 206.849455 184.102473 
L 207.661091 181.955057 
L 208.066909 183.583273 
L 208.472727 184.12802 
L 208.878545 183.583648 
L 209.284364 183.514446 
L 209.690182 182.824206 
L 210.096 183.274505 
L 210.501818 183.958068 
L 210.907636 182.892955 
L 211.313455 182.874607 
L 211.719273 183.612443 
L 212.125091 183.720418 
L 212.530909 183.711786 
L 212.936727 183.441891 
L 213.342545 182.530332 
L 213.748364 182.717207 
L 214.154182 183.633578 
L 214.56 183.524315 
L 214.965818 182.814708 
L 215.371636 180.898715 
L 215.777455 181.593436 
L 216.183273 183.481984 
L 216.589091 183.680426 
L 216.994909 183.657205 
L 217.806545 182.740354 
L 218.212364 183.345623 
L 218.618182 183.563959 
L 219.429818 181.619845 
L 219.835636 180.585988 
L 220.241455 181.272652 
L 220.647273 182.815074 
L 221.053091 183.037429 
L 221.458909 183.404129 
L 221.864727 183.534911 
L 222.270545 182.294176 
L 222.676364 182.043534 
L 223.082182 183.352796 
L 223.488 183.18149 
L 223.893818 182.609298 
L 224.299636 182.812191 
L 224.705455 183.168481 
L 225.111273 183.205639 
L 225.517091 182.18084 
L 225.922909 181.975582 
L 226.328727 182.021062 
L 226.734545 181.658413 
L 227.140364 181.523015 
L 227.546182 182.854082 
L 227.952 183.429427 
L 228.357818 182.670425 
L 229.169455 183.191916 
L 229.575273 182.919112 
L 229.981091 183.209793 
L 230.386909 182.775992 
L 230.792727 183.006844 
L 231.198545 183.723249 
L 232.010182 183.873302 
L 232.416 184.275804 
L 232.821818 184.143066 
L 233.227636 183.80508 
L 233.633455 183.040251 
L 234.039273 183.082792 
L 234.445091 183.954036 
L 234.850909 183.750799 
L 235.662545 182.533903 
L 236.068364 181.735001 
L 236.474182 182.482871 
L 237.285818 183.382706 
L 237.691636 183.657975 
L 238.097455 183.245104 
L 238.909091 183.385415 
L 239.314909 183.168238 
L 239.720727 183.126129 
L 240.126545 182.934794 
L 240.532364 183.279731 
L 240.938182 182.823845 
L 241.749818 183.365386 
L 242.155636 183.090256 
L 242.561455 183.13588 
L 242.967273 183.372206 
L 243.373091 183.924665 
L 243.778909 184.197701 
L 244.184727 183.0223 
L 244.590545 182.953098 
L 244.996364 182.691155 
L 245.402182 181.941217 
L 245.808 182.58123 
L 246.213818 183.546282 
L 246.619636 183.609103 
L 247.025455 183.465639 
L 247.431273 183.481256 
L 247.837091 183.97744 
L 249.054545 182.325332 
L 249.054545 182.325332 
" clip-path="url(#pb1a2a5a023)" style="fill: none; stroke: #1f77b4; stroke-width: 1.5; stroke-linecap: square"/>
   </g>
   <g id="patch_3">
    <path d="M 36 192.24 
L 36 25.92 
" style="fill: none; stroke: #000000; stroke-width: 0.8; stroke-linejoin: miter; stroke-linecap: square"/>
   </g>
   <g id="patch_4">
    <path d="M 259.2 192.24 
L 259.2 25.92 
" style="fill: none; stroke: #000000; stroke-width: 0.8; stroke-linejoin: miter; stroke-linecap: square"/>
   </g>
   <g id="patch_5">
    <path d="M 36 192.24 
L 259.2 192.24 
" style="fill: none; stroke: #000000; stroke-width: 0.8; stroke-linejoin: miter; stroke-linecap: square"/>
   </g>
   <g id="patch_6">
    <path d="M 36 25.92 
L 259.2 25.92 
" style="fill: none; stroke: #000000; stroke-width: 0.8; stroke-linejoin: miter; stroke-linecap: square"/>
   </g>
  </g>
 </g>
 <defs>
  <clipPath id="pb1a2a5a023">
   <rect x="36" y="25.92" width="223.2" height="166.32"/>
  </clipPath>
 </defs>
</svg>
