<?xml version="1.0" encoding="utf-8" standalone="no"?>
<!DOCTYPE svg PUBLIC "-//W3C//DTD SVG 1.1//EN"
  "http://www.w3.org/Graphics/SVG/1.1/DTD/svg11.dtd">
<svg xmlns:xlink="http://www.w3.org/1999/xlink" width="324pt" height="216pt" viewBox="0 0 324 216" xmlns="http://www.w3.org/2000/svg" version="1.1">
 <metadata>
  <rdf:RDF xmlns:dc="http://purl.org/dc/elements/1.1/" xmlns:cc="http://creativecommons.org/ns#" xmlns:rdf="http://www.w3.org/1999/02/22-rdf-syntax-ns#">
   <cc:Work>
    <dc:type rdf:resource="http://purl.org/dc/dcmitype/StillImage"/>
    <dc:date>2022-05-03T16:23:50.626192</dc:date>
    <dc:format>image/svg+xml</dc:format>
    <dc:creator>
     <cc:Agent>
      <dc:title>Matplotlib v3.5.1, https://matplotlib.org/</dc:title>
     </cc:Agent>
    </dc:creator>
   </cc:Work>
  </rdf:RDF>
 </metadata>
 <defs>
  <style type="text/css">*{stroke-linejoin: round; stroke-linecap: butt}</style>
 </defs>
 <g id="figure_1">
  <g id="patch_1">
   <path d="M 0 216 
L 324 216 
L 324 0 
L 0 0 
z
" style="fill: #ffffff"/>
  </g>
  <g id="axes_1">
   <g id="patch_2">
    <path d="M 40.5 192.24 
L 291.6 192.24 
L 291.6 25.92 
L 40.5 25.92 
z
" style="fill: #ffffff"/>
   </g>
   <g id="matplotlib.axis_1">
    <g id="xtick_1">
     <g id="line2d_1">
      <defs>
       <path id="m964e2ca884" d="M 0 0 
L 0 3.5 
" style="stroke: #000000; stroke-width: 0.8"/>
      </defs>
      <g>
       <use xlink:href="#m964e2ca884" x="51.913636" y="192.24" style="stroke: #000000; stroke-width: 0.8"/>
      </g>
     </g>
     <g id="text_1">
      <!-- 2850 -->
      <g transform="translate(36.325511 208.548086)scale(0.1225 -0.1225)">
       <defs>
        <path id="DejaVuSans-32" d="M 1228 531 
L 3431 531 
L 3431 0 
L 469 0 
L 469 531 
Q 828 903 1448 1529 
Q 2069 2156 2228 2338 
Q 2531 2678 2651 2914 
Q 2772 3150 2772 3378 
Q 2772 3750 2511 3984 
Q 2250 4219 1831 4219 
Q 1534 4219 1204 4116 
Q 875 4013 500 3803 
L 500 4441 
Q 881 4594 1212 4672 
Q 1544 4750 1819 4750 
Q 2544 4750 2975 4387 
Q 3406 4025 3406 3419 
Q 3406 3131 3298 2873 
Q 3191 2616 2906 2266 
Q 2828 2175 2409 1742 
Q 1991 1309 1228 531 
z
" transform="scale(0.015625)"/>
        <path id="DejaVuSans-38" d="M 2034 2216 
Q 1584 2216 1326 1975 
Q 1069 1734 1069 1313 
Q 1069 891 1326 650 
Q 1584 409 2034 409 
Q 2484 409 2743 651 
Q 3003 894 3003 1313 
Q 3003 1734 2745 1975 
Q 2488 2216 2034 2216 
z
M 1403 2484 
Q 997 2584 770 2862 
Q 544 3141 544 3541 
Q 544 4100 942 4425 
Q 1341 4750 2034 4750 
Q 2731 4750 3128 4425 
Q 3525 4100 3525 3541 
Q 3525 3141 3298 2862 
Q 3072 2584 2669 2484 
Q 3125 2378 3379 2068 
Q 3634 1759 3634 1313 
Q 3634 634 3220 271 
Q 2806 -91 2034 -91 
Q 1263 -91 848 271 
Q 434 634 434 1313 
Q 434 1759 690 2068 
Q 947 2378 1403 2484 
z
M 1172 3481 
Q 1172 3119 1398 2916 
Q 1625 2713 2034 2713 
Q 2441 2713 2670 2916 
Q 2900 3119 2900 3481 
Q 2900 3844 2670 4047 
Q 2441 4250 2034 4250 
Q 1625 4250 1398 4047 
Q 1172 3844 1172 3481 
z
" transform="scale(0.015625)"/>
        <path id="DejaVuSans-35" d="M 691 4666 
L 3169 4666 
L 3169 4134 
L 1269 4134 
L 1269 2991 
Q 1406 3038 1543 3061 
Q 1681 3084 1819 3084 
Q 2600 3084 3056 2656 
Q 3513 2228 3513 1497 
Q 3513 744 3044 326 
Q 2575 -91 1722 -91 
Q 1428 -91 1123 -41 
Q 819 9 494 109 
L 494 744 
Q 775 591 1075 516 
Q 1375 441 1709 441 
Q 2250 441 2565 725 
Q 2881 1009 2881 1497 
Q 2881 1984 2565 2268 
Q 2250 2553 1709 2553 
Q 1456 2553 1204 2497 
Q 953 2441 691 2322 
L 691 4666 
z
" transform="scale(0.015625)"/>
        <path id="DejaVuSans-30" d="M 2034 4250 
Q 1547 4250 1301 3770 
Q 1056 3291 1056 2328 
Q 1056 1369 1301 889 
Q 1547 409 2034 409 
Q 2525 409 2770 889 
Q 3016 1369 3016 2328 
Q 3016 3291 2770 3770 
Q 2525 4250 2034 4250 
z
M 2034 4750 
Q 2819 4750 3233 4129 
Q 3647 3509 3647 2328 
Q 3647 1150 3233 529 
Q 2819 -91 2034 -91 
Q 1250 -91 836 529 
Q 422 1150 422 2328 
Q 422 3509 836 4129 
Q 1250 4750 2034 4750 
z
" transform="scale(0.015625)"/>
       </defs>
       <use xlink:href="#DejaVuSans-32"/>
       <use xlink:href="#DejaVuSans-38" x="63.623047"/>
       <use xlink:href="#DejaVuSans-35" x="127.246094"/>
       <use xlink:href="#DejaVuSans-30" x="190.869141"/>
      </g>
     </g>
    </g>
    <g id="xtick_2">
     <g id="line2d_2">
      <g>
       <use xlink:href="#m964e2ca884" x="108.981818" y="192.24" style="stroke: #000000; stroke-width: 0.8"/>
      </g>
     </g>
     <g id="text_2">
      <!-- 2860 -->
      <g transform="translate(93.393693 208.548086)scale(0.1225 -0.1225)">
       <defs>
        <path id="DejaVuSans-36" d="M 2113 2584 
Q 1688 2584 1439 2293 
Q 1191 2003 1191 1497 
Q 1191 994 1439 701 
Q 1688 409 2113 409 
Q 2538 409 2786 701 
Q 3034 994 3034 1497 
Q 3034 2003 2786 2293 
Q 2538 2584 2113 2584 
z
M 3366 4563 
L 3366 3988 
Q 3128 4100 2886 4159 
Q 2644 4219 2406 4219 
Q 1781 4219 1451 3797 
Q 1122 3375 1075 2522 
Q 1259 2794 1537 2939 
Q 1816 3084 2150 3084 
Q 2853 3084 3261 2657 
Q 3669 2231 3669 1497 
Q 3669 778 3244 343 
Q 2819 -91 2113 -91 
Q 1303 -91 875 529 
Q 447 1150 447 2328 
Q 447 3434 972 4092 
Q 1497 4750 2381 4750 
Q 2619 4750 2861 4703 
Q 3103 4656 3366 4563 
z
" transform="scale(0.015625)"/>
       </defs>
       <use xlink:href="#DejaVuSans-32"/>
       <use xlink:href="#DejaVuSans-38" x="63.623047"/>
       <use xlink:href="#DejaVuSans-36" x="127.246094"/>
       <use xlink:href="#DejaVuSans-30" x="190.869141"/>
      </g>
     </g>
    </g>
    <g id="xtick_3">
     <g id="line2d_3">
      <g>
       <use xlink:href="#m964e2ca884" x="166.05" y="192.24" style="stroke: #000000; stroke-width: 0.8"/>
      </g>
     </g>
     <g id="text_3">
      <!-- 2870 -->
      <g transform="translate(150.461875 208.548086)scale(0.1225 -0.1225)">
       <defs>
        <path id="DejaVuSans-37" d="M 525 4666 
L 3525 4666 
L 3525 4397 
L 1831 0 
L 1172 0 
L 2766 4134 
L 525 4134 
L 525 4666 
z
" transform="scale(0.015625)"/>
       </defs>
       <use xlink:href="#DejaVuSans-32"/>
       <use xlink:href="#DejaVuSans-38" x="63.623047"/>
       <use xlink:href="#DejaVuSans-37" x="127.246094"/>
       <use xlink:href="#DejaVuSans-30" x="190.869141"/>
      </g>
     </g>
    </g>
    <g id="xtick_4">
     <g id="line2d_4">
      <g>
       <use xlink:href="#m964e2ca884" x="223.118182" y="192.24" style="stroke: #000000; stroke-width: 0.8"/>
      </g>
     </g>
     <g id="text_4">
      <!-- 2880 -->
      <g transform="translate(207.530057 208.548086)scale(0.1225 -0.1225)">
       <use xlink:href="#DejaVuSans-32"/>
       <use xlink:href="#DejaVuSans-38" x="63.623047"/>
       <use xlink:href="#DejaVuSans-38" x="127.246094"/>
       <use xlink:href="#DejaVuSans-30" x="190.869141"/>
      </g>
     </g>
    </g>
    <g id="xtick_5">
     <g id="line2d_5">
      <g>
       <use xlink:href="#m964e2ca884" x="280.186364" y="192.24" style="stroke: #000000; stroke-width: 0.8"/>
      </g>
     </g>
     <g id="text_5">
      <!-- 2890 -->
      <g transform="translate(264.598239 208.548086)scale(0.1225 -0.1225)">
       <defs>
        <path id="DejaVuSans-39" d="M 703 97 
L 703 672 
Q 941 559 1184 500 
Q 1428 441 1663 441 
Q 2288 441 2617 861 
Q 2947 1281 2994 2138 
Q 2813 1869 2534 1725 
Q 2256 1581 1919 1581 
Q 1219 1581 811 2004 
Q 403 2428 403 3163 
Q 403 3881 828 4315 
Q 1253 4750 1959 4750 
Q 2769 4750 3195 4129 
Q 3622 3509 3622 2328 
Q 3622 1225 3098 567 
Q 2575 -91 1691 -91 
Q 1453 -91 1209 -44 
Q 966 3 703 97 
z
M 1959 2075 
Q 2384 2075 2632 2365 
Q 2881 2656 2881 3163 
Q 2881 3666 2632 3958 
Q 2384 4250 1959 4250 
Q 1534 4250 1286 3958 
Q 1038 3666 1038 3163 
Q 1038 2656 1286 2365 
Q 1534 2075 1959 2075 
z
" transform="scale(0.015625)"/>
       </defs>
       <use xlink:href="#DejaVuSans-32"/>
       <use xlink:href="#DejaVuSans-38" x="63.623047"/>
       <use xlink:href="#DejaVuSans-39" x="127.246094"/>
       <use xlink:href="#DejaVuSans-30" x="190.869141"/>
      </g>
     </g>
    </g>
   </g>
   <g id="matplotlib.axis_2">
    <g id="ytick_1">
     <g id="line2d_6">
      <defs>
       <path id="mce3c1f4160" d="M 0 0 
L -3.5 0 
" style="stroke: #000000; stroke-width: 0.8"/>
      </defs>
      <g>
       <use xlink:href="#mce3c1f4160" x="40.5" y="187.583331" style="stroke: #000000; stroke-width: 0.8"/>
      </g>
     </g>
     <g id="text_6">
      <!-- 0 -->
      <g transform="translate(25.705938 192.237374)scale(0.1225 -0.1225)">
       <use xlink:href="#DejaVuSans-30"/>
      </g>
     </g>
    </g>
    <g id="ytick_2">
     <g id="line2d_7">
      <g>
       <use xlink:href="#mce3c1f4160" x="40.5" y="162.774423" style="stroke: #000000; stroke-width: 0.8"/>
      </g>
     </g>
     <g id="text_7">
      <!-- 1 -->
      <g transform="translate(25.705938 167.428466)scale(0.1225 -0.1225)">
       <defs>
        <path id="DejaVuSans-31" d="M 794 531 
L 1825 531 
L 1825 4091 
L 703 3866 
L 703 4441 
L 1819 4666 
L 2450 4666 
L 2450 531 
L 3481 531 
L 3481 0 
L 794 0 
L 794 531 
z
" transform="scale(0.015625)"/>
       </defs>
       <use xlink:href="#DejaVuSans-31"/>
      </g>
     </g>
    </g>
    <g id="ytick_3">
     <g id="line2d_8">
      <g>
       <use xlink:href="#mce3c1f4160" x="40.5" y="137.965515" style="stroke: #000000; stroke-width: 0.8"/>
      </g>
     </g>
     <g id="text_8">
      <!-- 2 -->
      <g transform="translate(25.705938 142.619558)scale(0.1225 -0.1225)">
       <use xlink:href="#DejaVuSans-32"/>
      </g>
     </g>
    </g>
    <g id="ytick_4">
     <g id="line2d_9">
      <g>
       <use xlink:href="#mce3c1f4160" x="40.5" y="113.156607" style="stroke: #000000; stroke-width: 0.8"/>
      </g>
     </g>
     <g id="text_9">
      <!-- 3 -->
      <g transform="translate(25.705938 117.81065)scale(0.1225 -0.1225)">
       <defs>
        <path id="DejaVuSans-33" d="M 2597 2516 
Q 3050 2419 3304 2112 
Q 3559 1806 3559 1356 
Q 3559 666 3084 287 
Q 2609 -91 1734 -91 
Q 1441 -91 1130 -33 
Q 819 25 488 141 
L 488 750 
Q 750 597 1062 519 
Q 1375 441 1716 441 
Q 2309 441 2620 675 
Q 2931 909 2931 1356 
Q 2931 1769 2642 2001 
Q 2353 2234 1838 2234 
L 1294 2234 
L 1294 2753 
L 1863 2753 
Q 2328 2753 2575 2939 
Q 2822 3125 2822 3475 
Q 2822 3834 2567 4026 
Q 2313 4219 1838 4219 
Q 1578 4219 1281 4162 
Q 984 4106 628 3988 
L 628 4550 
Q 988 4650 1302 4700 
Q 1616 4750 1894 4750 
Q 2613 4750 3031 4423 
Q 3450 4097 3450 3541 
Q 3450 3153 3228 2886 
Q 3006 2619 2597 2516 
z
" transform="scale(0.015625)"/>
       </defs>
       <use xlink:href="#DejaVuSans-33"/>
      </g>
     </g>
    </g>
    <g id="ytick_5">
     <g id="line2d_10">
      <g>
       <use xlink:href="#mce3c1f4160" x="40.5" y="88.347699" style="stroke: #000000; stroke-width: 0.8"/>
      </g>
     </g>
     <g id="text_10">
      <!-- 4 -->
      <g transform="translate(25.705938 93.001742)scale(0.1225 -0.1225)">
       <defs>
        <path id="DejaVuSans-34" d="M 2419 4116 
L 825 1625 
L 2419 1625 
L 2419 4116 
z
M 2253 4666 
L 3047 4666 
L 3047 1625 
L 3713 1625 
L 3713 1100 
L 3047 1100 
L 3047 0 
L 2419 0 
L 2419 1100 
L 313 1100 
L 313 1709 
L 2253 4666 
z
" transform="scale(0.015625)"/>
       </defs>
       <use xlink:href="#DejaVuSans-34"/>
      </g>
     </g>
    </g>
    <g id="ytick_6">
     <g id="line2d_11">
      <g>
       <use xlink:href="#mce3c1f4160" x="40.5" y="63.538791" style="stroke: #000000; stroke-width: 0.8"/>
      </g>
     </g>
     <g id="text_11">
      <!-- 5 -->
      <g transform="translate(25.705938 68.192834)scale(0.1225 -0.1225)">
       <use xlink:href="#DejaVuSans-35"/>
      </g>
     </g>
    </g>
    <g id="ytick_7">
     <g id="line2d_12">
      <g>
       <use xlink:href="#mce3c1f4160" x="40.5" y="38.729883" style="stroke: #000000; stroke-width: 0.8"/>
      </g>
     </g>
     <g id="text_12">
      <!-- 6 -->
      <g transform="translate(25.705938 43.383926)scale(0.1225 -0.1225)">
       <use xlink:href="#DejaVuSans-36"/>
      </g>
     </g>
    </g>
   </g>
   <g id="line2d_13">
    <path d="M 51.913636 184.203088 
L 52.826727 183.533567 
L 53.283273 183.630464 
L 53.739818 184.219475 
L 54.196364 183.992003 
L 54.652909 184.68 
L 55.566 184.116736 
L 56.022545 184.211073 
L 56.479091 184.116709 
L 57.392182 183.71216 
L 57.848727 184.252662 
L 58.305273 183.963805 
L 58.761818 183.896805 
L 59.218364 184.158324 
L 59.674909 183.605632 
L 60.588 183.446551 
L 61.044545 182.774611 
L 61.501091 182.854384 
L 61.957636 183.60398 
L 62.414182 183.948934 
L 63.327273 183.09948 
L 63.783818 183.843629 
L 64.240364 183.323089 
L 65.61 182.944973 
L 66.066545 182.385828 
L 66.523091 181.113162 
L 66.979636 181.247214 
L 67.892727 182.819336 
L 68.805818 182.614782 
L 69.262364 182.421375 
L 69.718909 181.555044 
L 70.175455 181.621487 
L 70.632 181.509309 
L 71.545091 180.720004 
L 72.001636 180.520615 
L 72.458182 180.799964 
L 73.371273 180.23985 
L 73.827818 180.194045 
L 74.740909 180.861918 
L 75.197455 180.929896 
L 75.654 181.157753 
L 76.110545 180.166092 
L 76.567091 179.601043 
L 77.023636 179.391028 
L 77.480182 179.610816 
L 77.936727 179.044804 
L 78.393273 179.333297 
L 78.849818 179.839843 
L 79.306364 178.730895 
L 80.219455 178.665461 
L 80.676 178.339515 
L 81.132545 177.55157 
L 82.045636 177.839872 
L 82.958727 177.312805 
L 83.415273 177.611118 
L 84.784909 176.902367 
L 85.241455 175.976785 
L 86.154545 175.437926 
L 86.611091 174.793885 
L 87.067636 175.12743 
L 87.524182 174.461233 
L 88.437273 174.210214 
L 88.893818 174.738116 
L 89.350364 174.73736 
L 89.806909 173.280453 
L 90.263455 172.316111 
L 90.72 172.351486 
L 91.176545 171.835562 
L 92.089636 172.02609 
L 92.546182 172.08231 
L 93.002727 170.949474 
L 93.459273 170.150874 
L 93.915818 170.473844 
L 94.372364 170.380449 
L 95.285455 168.115546 
L 95.742 167.793479 
L 96.198545 167.21844 
L 96.655091 167.115831 
L 97.111636 167.379072 
L 97.568182 166.866866 
L 98.024727 166.168343 
L 98.481273 165.233268 
L 98.937818 165.34693 
L 99.850909 162.688409 
L 100.307455 161.989345 
L 101.220545 162.150368 
L 102.133636 160.90363 
L 102.590182 160.768338 
L 104.416364 157.605464 
L 104.872909 157.313614 
L 105.329455 157.366311 
L 105.786 156.601468 
L 106.242545 156.277221 
L 107.155636 154.273214 
L 107.612182 153.840007 
L 108.068727 154.035247 
L 108.525273 152.142271 
L 108.981818 151.685337 
L 109.438364 151.565024 
L 109.894909 150.049551 
L 110.351455 149.631229 
L 110.808 148.625729 
L 111.264545 148.20214 
L 111.721091 147.18047 
L 112.634182 145.652392 
L 113.090727 144.62306 
L 113.547273 144.201573 
L 114.460364 142.819964 
L 115.373455 140.173762 
L 115.83 137.757103 
L 116.286545 136.738681 
L 116.743091 136.876568 
L 117.199636 136.204567 
L 118.112727 131.781685 
L 118.569273 130.812446 
L 119.025818 130.261998 
L 119.482364 128.813154 
L 119.938909 127.972921 
L 120.395455 126.729038 
L 120.852 123.909598 
L 122.221636 119.72943 
L 123.134727 116.224377 
L 124.047818 112.557388 
L 124.504364 111.779123 
L 125.417455 108.470082 
L 125.874 106.416602 
L 126.330545 105.000806 
L 127.243636 101.19459 
L 127.700182 100.072738 
L 128.613273 96.371713 
L 129.069818 93.558505 
L 129.526364 92.513384 
L 131.809091 80.888682 
L 133.178727 74.926875 
L 134.548364 67.253554 
L 135.461455 61.049876 
L 135.918 59.749017 
L 136.374545 57.892985 
L 136.831091 55.192178 
L 137.287636 53.37117 
L 137.744182 52.070027 
L 139.570364 42.771293 
L 140.026909 41.515818 
L 140.483455 39.78099 
L 140.94 39.231115 
L 141.396545 38.026649 
L 141.853091 36.372496 
L 142.309636 35.830063 
L 142.766182 35.522738 
L 143.222727 34.218834 
L 143.679273 33.48 
L 144.135818 34.573377 
L 144.592364 34.292522 
L 145.505455 35.56263 
L 145.962 36.113825 
L 146.418545 37.179973 
L 146.875091 38.716395 
L 147.331636 38.984927 
L 147.788182 39.556957 
L 148.244727 40.75599 
L 148.701273 41.613069 
L 149.157818 43.227051 
L 150.070909 47.302886 
L 150.527455 49.351609 
L 151.897091 57.059406 
L 152.353636 59.087388 
L 152.810182 61.813549 
L 153.266727 65.842485 
L 153.723273 68.062249 
L 154.636364 74.940957 
L 155.549455 83.622967 
L 156.919091 95.601949 
L 159.658364 121.933585 
L 161.028 133.055182 
L 162.397636 144.212813 
L 163.310727 147.805781 
L 163.767273 151.065122 
L 164.223818 153.216196 
L 164.680364 153.955414 
L 165.136909 155.000942 
L 165.593455 156.856503 
L 166.05 157.150365 
L 166.506545 156.169469 
L 167.419636 155.273559 
L 167.876182 155.367926 
L 168.332727 154.468677 
L 168.789273 151.866468 
L 169.702364 149.54723 
L 170.158909 147.566913 
L 170.615455 145.076525 
L 173.354727 122.0155 
L 173.811273 118.708511 
L 176.550545 89.7496 
L 180.202909 60.982877 
L 182.942182 46.180973 
L 184.768364 40.193023 
L 185.224909 39.49462 
L 185.681455 39.09081 
L 186.594545 36.687952 
L 187.051091 35.694044 
L 187.507636 35.608131 
L 187.964182 34.507156 
L 188.420727 34.161111 
L 188.877273 34.373721 
L 189.333818 34.891979 
L 190.246909 34.80608 
L 190.703455 36.400307 
L 191.16 37.325183 
L 191.616545 37.393212 
L 192.073091 38.526288 
L 192.529636 39.314367 
L 193.442727 43.165187 
L 193.899273 45.420499 
L 194.355818 47.047693 
L 195.725455 54.065406 
L 196.182 55.788394 
L 197.095091 60.396684 
L 198.464727 67.98079 
L 199.377818 72.848705 
L 199.834364 74.744038 
L 200.290909 77.400379 
L 202.573636 87.590816 
L 204.856364 99.403514 
L 205.312909 99.554683 
L 205.769455 101.424272 
L 206.226 104.408974 
L 206.682545 106.087265 
L 207.139091 106.790725 
L 208.508727 112.024233 
L 208.965273 114.353651 
L 210.791455 120.002349 
L 211.248 120.879292 
L 212.161091 123.591531 
L 212.617636 126.224716 
L 213.074182 128.035468 
L 213.530727 128.65837 
L 213.987273 130.096892 
L 214.443818 132.070763 
L 214.900364 132.318137 
L 215.813455 135.328435 
L 216.27 137.083427 
L 216.726545 137.507309 
L 217.183091 138.774592 
L 217.639636 139.705817 
L 218.552727 140.900751 
L 219.009273 142.483892 
L 219.465818 144.676501 
L 220.378909 144.973889 
L 220.835455 145.818624 
L 221.292 147.204156 
L 221.748545 148.198138 
L 222.661636 149.134244 
L 223.118182 150.16153 
L 223.574727 151.833765 
L 224.031273 152.546999 
L 224.944364 152.637434 
L 225.400909 153.136238 
L 225.857455 154.52759 
L 226.314 154.558688 
L 227.227091 156.011101 
L 227.683636 156.759671 
L 228.140182 156.308491 
L 228.596727 156.958695 
L 229.053273 158.332032 
L 229.509818 159.011953 
L 229.966364 159.451046 
L 230.879455 160.932878 
L 231.336 160.728639 
L 231.792545 161.250252 
L 232.705636 162.899351 
L 233.162182 163.051918 
L 233.618727 163.751336 
L 234.075273 164.93341 
L 234.988364 166.177355 
L 235.444909 166.944989 
L 235.901455 166.971766 
L 236.358 167.645914 
L 236.814545 167.871433 
L 237.271091 167.817341 
L 237.727636 168.653485 
L 238.184182 168.462357 
L 238.640727 169.677489 
L 239.097273 169.91639 
L 239.553818 169.969427 
L 240.466909 170.894411 
L 240.923455 172.017134 
L 241.38 172.162423 
L 241.836545 171.715746 
L 242.293091 170.621171 
L 242.749636 171.316338 
L 243.662727 173.844523 
L 244.119273 174.59245 
L 244.575818 173.810301 
L 245.032364 173.712695 
L 245.488909 174.335281 
L 245.945455 174.41669 
L 246.402 175.537461 
L 246.858545 175.302454 
L 247.315091 176.093095 
L 247.771636 176.330219 
L 248.228182 176.188607 
L 248.684727 175.662024 
L 249.141273 176.361433 
L 250.054364 176.975087 
L 250.510909 178.03681 
L 251.424 177.208372 
L 251.880545 177.210952 
L 252.337091 178.423159 
L 252.793636 178.528676 
L 253.250182 178.324197 
L 253.706727 178.426243 
L 254.163273 178.301125 
L 254.619818 178.777645 
L 255.076364 179.799608 
L 255.532909 179.039279 
L 255.989455 178.926639 
L 256.446 180.208909 
L 256.902545 180.751067 
L 257.359091 180.682775 
L 257.815636 180.395513 
L 258.272182 180.542647 
L 258.728727 180.29265 
L 259.641818 180.330114 
L 260.098364 181.265847 
L 260.554909 181.360468 
L 261.011455 181.268324 
L 261.468 182.124838 
L 261.924545 181.577604 
L 262.837636 182.129108 
L 263.294182 181.617533 
L 263.750727 181.761836 
L 264.207273 181.752313 
L 265.120364 182.76051 
L 265.576909 183.564869 
L 266.033455 183.406573 
L 266.49 182.372029 
L 266.946545 182.482124 
L 267.403091 182.950738 
L 267.859636 182.969572 
L 268.316182 183.173459 
L 268.772727 183.203729 
L 269.229273 181.919115 
L 270.142364 183.188578 
L 271.055455 183.954079 
L 271.512 183.091086 
L 271.968545 183.08896 
L 272.881636 182.796212 
L 273.338182 183.19584 
L 273.794727 184.154471 
L 274.251273 183.997298 
L 275.164364 184.436504 
L 275.620909 183.847731 
L 276.077455 184.162787 
L 276.534 184.202086 
L 276.990545 184.364754 
L 277.447091 184.406076 
L 277.903636 184.040154 
L 278.360182 182.833671 
L 278.816727 182.682086 
L 279.273273 183.701245 
L 280.186364 184.518058 
L 280.186364 184.518058 
" clip-path="url(#p7258fe430b)" style="fill: none; stroke: #1f77b4; stroke-width: 1.5; stroke-linecap: square"/>
   </g>
   <g id="patch_3">
    <path d="M 40.5 192.24 
L 40.5 25.92 
" style="fill: none; stroke: #000000; stroke-width: 0.8; stroke-linejoin: miter; stroke-linecap: square"/>
   </g>
   <g id="patch_4">
    <path d="M 291.6 192.24 
L 291.6 25.92 
" style="fill: none; stroke: #000000; stroke-width: 0.8; stroke-linejoin: miter; stroke-linecap: square"/>
   </g>
   <g id="patch_5">
    <path d="M 40.5 192.24 
L 291.6 192.24 
" style="fill: none; stroke: #000000; stroke-width: 0.8; stroke-linejoin: miter; stroke-linecap: square"/>
   </g>
   <g id="patch_6">
    <path d="M 40.5 25.92 
L 291.6 25.92 
" style="fill: none; stroke: #000000; stroke-width: 0.8; stroke-linejoin: miter; stroke-linecap: square"/>
   </g>
  </g>
 </g>
 <defs>
  <clipPath id="p7258fe430b">
   <rect x="40.5" y="25.92" width="251.1" height="166.32"/>
  </clipPath>
 </defs>
</svg>
