<?xml version="1.0" encoding="utf-8" standalone="no"?>
<!DOCTYPE svg PUBLIC "-//W3C//DTD SVG 1.1//EN"
  "http://www.w3.org/Graphics/SVG/1.1/DTD/svg11.dtd">
<!-- Created with matplotlib (http://matplotlib.org/) -->
<svg height="345.6pt" version="1.1" viewBox="0 0 460.8 345.6" width="460.8pt" xmlns="http://www.w3.org/2000/svg" xmlns:xlink="http://www.w3.org/1999/xlink">
 <defs>
  <style type="text/css">
*{stroke-linecap:butt;stroke-linejoin:round;}
  </style>
 </defs>
 <g id="figure_1">
  <g id="patch_1">
   <path d="M 0 345.6 
L 460.8 345.6 
L 460.8 0 
L 0 0 
z
" style="fill:#ffffff;"/>
  </g>
  <g id="axes_1">
   <g id="patch_2">
    <path d="M 57.6 307.584 
L 414.72 307.584 
L 414.72 41.472 
L 57.6 41.472 
z
" style="fill:#ffffff;"/>
   </g>
   <g id="matplotlib.axis_1">
    <g id="xtick_1">
     <g id="line2d_1">
      <defs>
       <path d="M 0 0 
L 0 3.5 
" id="me0e6af2f26" style="stroke:#000000;stroke-width:0.8;"/>
      </defs>
      <g>
       <use style="stroke:#000000;stroke-width:0.8;" x="73.832727" xlink:href="#me0e6af2f26" y="307.584"/>
      </g>
     </g>
     <g id="text_1">
      <!-- 0 -->
      <defs>
       <path d="M 31.78125 66.40625 
Q 24.171875 66.40625 20.328125 58.90625 
Q 16.5 51.421875 16.5 36.375 
Q 16.5 21.390625 20.328125 13.890625 
Q 24.171875 6.390625 31.78125 6.390625 
Q 39.453125 6.390625 43.28125 13.890625 
Q 47.125 21.390625 47.125 36.375 
Q 47.125 51.421875 43.28125 58.90625 
Q 39.453125 66.40625 31.78125 66.40625 
z
M 31.78125 74.21875 
Q 44.046875 74.21875 50.515625 64.515625 
Q 56.984375 54.828125 56.984375 36.375 
Q 56.984375 17.96875 50.515625 8.265625 
Q 44.046875 -1.421875 31.78125 -1.421875 
Q 19.53125 -1.421875 13.0625 8.265625 
Q 6.59375 17.96875 6.59375 36.375 
Q 6.59375 54.828125 13.0625 64.515625 
Q 19.53125 74.21875 31.78125 74.21875 
z
" id="DejaVuSans-30"/>
      </defs>
      <g transform="translate(69.060852 325.981656)scale(0.15 -0.15)">
       <use xlink:href="#DejaVuSans-30"/>
      </g>
     </g>
    </g>
    <g id="xtick_2">
     <g id="line2d_2">
      <g>
       <use style="stroke:#000000;stroke-width:0.8;" x="116.228783" xlink:href="#me0e6af2f26" y="307.584"/>
      </g>
     </g>
     <g id="text_2">
      <!-- 5 -->
      <defs>
       <path d="M 10.796875 72.90625 
L 49.515625 72.90625 
L 49.515625 64.59375 
L 19.828125 64.59375 
L 19.828125 46.734375 
Q 21.96875 47.46875 24.109375 47.828125 
Q 26.265625 48.1875 28.421875 48.1875 
Q 40.625 48.1875 47.75 41.5 
Q 54.890625 34.8125 54.890625 23.390625 
Q 54.890625 11.625 47.5625 5.09375 
Q 40.234375 -1.421875 26.90625 -1.421875 
Q 22.3125 -1.421875 17.546875 -0.640625 
Q 12.796875 0.140625 7.71875 1.703125 
L 7.71875 11.625 
Q 12.109375 9.234375 16.796875 8.0625 
Q 21.484375 6.890625 26.703125 6.890625 
Q 35.15625 6.890625 40.078125 11.328125 
Q 45.015625 15.765625 45.015625 23.390625 
Q 45.015625 31 40.078125 35.4375 
Q 35.15625 39.890625 26.703125 39.890625 
Q 22.75 39.890625 18.8125 39.015625 
Q 14.890625 38.140625 10.796875 36.28125 
z
" id="DejaVuSans-35"/>
      </defs>
      <g transform="translate(111.456908 325.981656)scale(0.15 -0.15)">
       <use xlink:href="#DejaVuSans-35"/>
      </g>
     </g>
    </g>
    <g id="xtick_3">
     <g id="line2d_3">
      <g>
       <use style="stroke:#000000;stroke-width:0.8;" x="158.624839" xlink:href="#me0e6af2f26" y="307.584"/>
      </g>
     </g>
     <g id="text_3">
      <!-- 10 -->
      <defs>
       <path d="M 12.40625 8.296875 
L 28.515625 8.296875 
L 28.515625 63.921875 
L 10.984375 60.40625 
L 10.984375 69.390625 
L 28.421875 72.90625 
L 38.28125 72.90625 
L 38.28125 8.296875 
L 54.390625 8.296875 
L 54.390625 0 
L 12.40625 0 
z
" id="DejaVuSans-31"/>
      </defs>
      <g transform="translate(149.081089 325.981656)scale(0.15 -0.15)">
       <use xlink:href="#DejaVuSans-31"/>
       <use x="63.623047" xlink:href="#DejaVuSans-30"/>
      </g>
     </g>
    </g>
    <g id="xtick_4">
     <g id="line2d_4">
      <g>
       <use style="stroke:#000000;stroke-width:0.8;" x="201.020894" xlink:href="#me0e6af2f26" y="307.584"/>
      </g>
     </g>
     <g id="text_4">
      <!-- 15 -->
      <g transform="translate(191.477144 325.981656)scale(0.15 -0.15)">
       <use xlink:href="#DejaVuSans-31"/>
       <use x="63.623047" xlink:href="#DejaVuSans-35"/>
      </g>
     </g>
    </g>
    <g id="xtick_5">
     <g id="line2d_5">
      <g>
       <use style="stroke:#000000;stroke-width:0.8;" x="243.41695" xlink:href="#me0e6af2f26" y="307.584"/>
      </g>
     </g>
     <g id="text_5">
      <!-- 20 -->
      <defs>
       <path d="M 19.1875 8.296875 
L 53.609375 8.296875 
L 53.609375 0 
L 7.328125 0 
L 7.328125 8.296875 
Q 12.9375 14.109375 22.625 23.890625 
Q 32.328125 33.6875 34.8125 36.53125 
Q 39.546875 41.84375 41.421875 45.53125 
Q 43.3125 49.21875 43.3125 52.78125 
Q 43.3125 58.59375 39.234375 62.25 
Q 35.15625 65.921875 28.609375 65.921875 
Q 23.96875 65.921875 18.8125 64.3125 
Q 13.671875 62.703125 7.8125 59.421875 
L 7.8125 69.390625 
Q 13.765625 71.78125 18.9375 73 
Q 24.125 74.21875 28.421875 74.21875 
Q 39.75 74.21875 46.484375 68.546875 
Q 53.21875 62.890625 53.21875 53.421875 
Q 53.21875 48.921875 51.53125 44.890625 
Q 49.859375 40.875 45.40625 35.40625 
Q 44.1875 33.984375 37.640625 27.21875 
Q 31.109375 20.453125 19.1875 8.296875 
z
" id="DejaVuSans-32"/>
      </defs>
      <g transform="translate(233.8732 325.981656)scale(0.15 -0.15)">
       <use xlink:href="#DejaVuSans-32"/>
       <use x="63.623047" xlink:href="#DejaVuSans-30"/>
      </g>
     </g>
    </g>
    <g id="xtick_6">
     <g id="line2d_6">
      <g>
       <use style="stroke:#000000;stroke-width:0.8;" x="285.813006" xlink:href="#me0e6af2f26" y="307.584"/>
      </g>
     </g>
     <g id="text_6">
      <!-- 25 -->
      <g transform="translate(276.269256 325.981656)scale(0.15 -0.15)">
       <use xlink:href="#DejaVuSans-32"/>
       <use x="63.623047" xlink:href="#DejaVuSans-35"/>
      </g>
     </g>
    </g>
    <g id="xtick_7">
     <g id="line2d_7">
      <g>
       <use style="stroke:#000000;stroke-width:0.8;" x="328.209061" xlink:href="#me0e6af2f26" y="307.584"/>
      </g>
     </g>
     <g id="text_7">
      <!-- 30 -->
      <defs>
       <path d="M 40.578125 39.3125 
Q 47.65625 37.796875 51.625 33 
Q 55.609375 28.21875 55.609375 21.1875 
Q 55.609375 10.40625 48.1875 4.484375 
Q 40.765625 -1.421875 27.09375 -1.421875 
Q 22.515625 -1.421875 17.65625 -0.515625 
Q 12.796875 0.390625 7.625 2.203125 
L 7.625 11.71875 
Q 11.71875 9.328125 16.59375 8.109375 
Q 21.484375 6.890625 26.8125 6.890625 
Q 36.078125 6.890625 40.9375 10.546875 
Q 45.796875 14.203125 45.796875 21.1875 
Q 45.796875 27.640625 41.28125 31.265625 
Q 36.765625 34.90625 28.71875 34.90625 
L 20.21875 34.90625 
L 20.21875 43.015625 
L 29.109375 43.015625 
Q 36.375 43.015625 40.234375 45.921875 
Q 44.09375 48.828125 44.09375 54.296875 
Q 44.09375 59.90625 40.109375 62.90625 
Q 36.140625 65.921875 28.71875 65.921875 
Q 24.65625 65.921875 20.015625 65.03125 
Q 15.375 64.15625 9.8125 62.3125 
L 9.8125 71.09375 
Q 15.4375 72.65625 20.34375 73.4375 
Q 25.25 74.21875 29.59375 74.21875 
Q 40.828125 74.21875 47.359375 69.109375 
Q 53.90625 64.015625 53.90625 55.328125 
Q 53.90625 49.265625 50.4375 45.09375 
Q 46.96875 40.921875 40.578125 39.3125 
z
" id="DejaVuSans-33"/>
      </defs>
      <g transform="translate(318.665311 325.981656)scale(0.15 -0.15)">
       <use xlink:href="#DejaVuSans-33"/>
       <use x="63.623047" xlink:href="#DejaVuSans-30"/>
      </g>
     </g>
    </g>
    <g id="xtick_8">
     <g id="line2d_8">
      <g>
       <use style="stroke:#000000;stroke-width:0.8;" x="370.605117" xlink:href="#me0e6af2f26" y="307.584"/>
      </g>
     </g>
     <g id="text_8">
      <!-- 35 -->
      <g transform="translate(361.061367 325.981656)scale(0.15 -0.15)">
       <use xlink:href="#DejaVuSans-33"/>
       <use x="63.623047" xlink:href="#DejaVuSans-35"/>
      </g>
     </g>
    </g>
    <g id="xtick_9">
     <g id="line2d_9">
      <g>
       <use style="stroke:#000000;stroke-width:0.8;" x="413.001173" xlink:href="#me0e6af2f26" y="307.584"/>
      </g>
     </g>
     <g id="text_9">
      <!-- 40 -->
      <defs>
       <path d="M 37.796875 64.3125 
L 12.890625 25.390625 
L 37.796875 25.390625 
z
M 35.203125 72.90625 
L 47.609375 72.90625 
L 47.609375 25.390625 
L 58.015625 25.390625 
L 58.015625 17.1875 
L 47.609375 17.1875 
L 47.609375 0 
L 37.796875 0 
L 37.796875 17.1875 
L 4.890625 17.1875 
L 4.890625 26.703125 
z
" id="DejaVuSans-34"/>
      </defs>
      <g transform="translate(403.457423 325.981656)scale(0.15 -0.15)">
       <use xlink:href="#DejaVuSans-34"/>
       <use x="63.623047" xlink:href="#DejaVuSans-30"/>
      </g>
     </g>
    </g>
   </g>
   <g id="matplotlib.axis_2">
    <g id="ytick_1">
     <g id="line2d_10">
      <defs>
       <path d="M 0 0 
L -3.5 0 
" id="mae04aff064" style="stroke:#000000;stroke-width:0.8;"/>
      </defs>
      <g>
       <use style="stroke:#000000;stroke-width:0.8;" x="57.6" xlink:href="#mae04aff064" y="288.225547"/>
      </g>
     </g>
     <g id="text_10">
      <!-- −30 -->
      <defs>
       <path d="M 10.59375 35.5 
L 73.1875 35.5 
L 73.1875 27.203125 
L 10.59375 27.203125 
z
" id="DejaVuSans-2212"/>
      </defs>
      <g transform="translate(18.942969 293.924375)scale(0.15 -0.15)">
       <use xlink:href="#DejaVuSans-2212"/>
       <use x="83.789062" xlink:href="#DejaVuSans-33"/>
       <use x="147.412109" xlink:href="#DejaVuSans-30"/>
      </g>
     </g>
    </g>
    <g id="ytick_2">
     <g id="line2d_11">
      <g>
       <use style="stroke:#000000;stroke-width:0.8;" x="57.6" xlink:href="#mae04aff064" y="252.818817"/>
      </g>
     </g>
     <g id="text_11">
      <!-- −20 -->
      <g transform="translate(18.942969 258.517645)scale(0.15 -0.15)">
       <use xlink:href="#DejaVuSans-2212"/>
       <use x="83.789062" xlink:href="#DejaVuSans-32"/>
       <use x="147.412109" xlink:href="#DejaVuSans-30"/>
      </g>
     </g>
    </g>
    <g id="ytick_3">
     <g id="line2d_12">
      <g>
       <use style="stroke:#000000;stroke-width:0.8;" x="57.6" xlink:href="#mae04aff064" y="217.412087"/>
      </g>
     </g>
     <g id="text_12">
      <!-- −10 -->
      <g transform="translate(18.942969 223.110915)scale(0.15 -0.15)">
       <use xlink:href="#DejaVuSans-2212"/>
       <use x="83.789062" xlink:href="#DejaVuSans-31"/>
       <use x="147.412109" xlink:href="#DejaVuSans-30"/>
      </g>
     </g>
    </g>
    <g id="ytick_4">
     <g id="line2d_13">
      <g>
       <use style="stroke:#000000;stroke-width:0.8;" x="57.6" xlink:href="#mae04aff064" y="182.005357"/>
      </g>
     </g>
     <g id="text_13">
      <!-- 0 -->
      <g transform="translate(41.05625 187.704185)scale(0.15 -0.15)">
       <use xlink:href="#DejaVuSans-30"/>
      </g>
     </g>
    </g>
    <g id="ytick_5">
     <g id="line2d_14">
      <g>
       <use style="stroke:#000000;stroke-width:0.8;" x="57.6" xlink:href="#mae04aff064" y="146.598627"/>
      </g>
     </g>
     <g id="text_14">
      <!-- 10 -->
      <g transform="translate(31.5125 152.297455)scale(0.15 -0.15)">
       <use xlink:href="#DejaVuSans-31"/>
       <use x="63.623047" xlink:href="#DejaVuSans-30"/>
      </g>
     </g>
    </g>
    <g id="ytick_6">
     <g id="line2d_15">
      <g>
       <use style="stroke:#000000;stroke-width:0.8;" x="57.6" xlink:href="#mae04aff064" y="111.191897"/>
      </g>
     </g>
     <g id="text_15">
      <!-- 20 -->
      <g transform="translate(31.5125 116.890725)scale(0.15 -0.15)">
       <use xlink:href="#DejaVuSans-32"/>
       <use x="63.623047" xlink:href="#DejaVuSans-30"/>
      </g>
     </g>
    </g>
    <g id="ytick_7">
     <g id="line2d_16">
      <g>
       <use style="stroke:#000000;stroke-width:0.8;" x="57.6" xlink:href="#mae04aff064" y="75.785167"/>
      </g>
     </g>
     <g id="text_16">
      <!-- 30 -->
      <g transform="translate(31.5125 81.483995)scale(0.15 -0.15)">
       <use xlink:href="#DejaVuSans-33"/>
       <use x="63.623047" xlink:href="#DejaVuSans-30"/>
      </g>
     </g>
    </g>
   </g>
   <g id="line2d_17">
    <path clip-path="url(#pa1aa9cfaea)" d="M 73.832727 231.255292 
L 76.538182 231.789328 
L 79.243636 232.323425 
L 81.949091 232.857584 
L 84.654545 233.391802 
L 87.36 233.926078 
L 90.065455 234.460413 
L 92.770909 234.994803 
L 95.476364 235.52925 
L 98.181818 236.063751 
L 100.887273 236.598305 
L 103.592727 237.132912 
L 106.298182 237.66757 
L 109.003636 238.202279 
L 111.709091 238.737036 
L 114.414545 239.271842 
L 117.12 239.806695 
L 119.825455 240.341595 
L 122.530909 240.876539 
L 125.236364 241.411527 
L 127.941818 241.946558 
L 130.647273 242.481631 
L 133.352727 243.016745 
L 136.058182 243.551899 
L 138.763636 244.087092 
L 141.469091 244.622322 
L 144.174545 245.157589 
L 146.88 245.692892 
L 149.585455 246.228229 
L 152.290909 246.7636 
L 154.996364 247.299003 
L 157.701818 247.834438 
L 160.407273 248.369903 
L 163.112727 248.905397 
L 165.818182 249.44092 
L 168.523636 249.97647 
L 171.229091 250.512046 
L 173.934545 251.047648 
L 176.64 251.583273 
L 179.345455 252.118922 
L 182.050909 252.654592 
L 184.756364 253.190284 
L 187.461818 253.725996 
L 190.167273 254.261726 
L 192.872727 254.797474 
L 195.578182 255.33324 
L 198.283636 255.869021 
L 200.989091 256.404816 
L 203.694545 256.940626 
L 206.4 257.476448 
L 209.105455 258.012281 
L 211.810909 258.548125 
L 214.516364 259.083979 
L 217.221818 259.619841 
L 219.927273 260.155711 
L 222.632727 260.691587 
L 225.338182 261.227469 
L 228.043636 261.763355 
L 230.749091 262.299244 
L 233.454545 262.835135 
L 236.16 263.371028 
L 238.865455 263.906921 
L 241.570909 264.442813 
L 244.276364 264.978703 
L 246.981818 265.51459 
L 249.687273 266.050473 
L 252.392727 266.586352 
L 255.098182 267.122224 
L 257.803636 267.658089 
L 260.509091 268.193946 
L 263.214545 268.729794 
L 265.92 269.265632 
L 268.625455 269.801459 
L 271.330909 270.337274 
L 274.036364 270.873075 
L 276.741818 271.408862 
L 279.447273 271.944634 
L 282.152727 272.48039 
L 284.858182 273.016128 
L 287.563636 273.551848 
L 290.269091 274.087548 
L 292.974545 274.623228 
L 295.68 275.158887 
L 298.385455 275.694523 
L 301.090909 276.230136 
L 303.796364 276.765724 
L 306.501818 277.301287 
L 309.207273 277.836823 
L 311.912727 278.372331 
L 314.618182 278.907811 
L 317.323636 279.443262 
L 320.029091 279.978682 
L 322.734545 280.51407 
L 325.44 281.049425 
L 328.145455 281.584747 
L 330.850909 282.120035 
L 333.556364 282.655286 
L 336.261818 283.190501 
L 338.967273 283.725678 
L 341.672727 284.260817 
L 344.378182 284.795915 
L 347.083636 285.330973 
L 349.789091 285.86599 
L 352.494545 286.400963 
L 355.2 286.935893 
L 357.905455 287.470778 
L 360.610909 288.005617 
L 363.316364 288.54041 
L 366.021818 289.075154 
L 368.727273 289.60985 
L 371.432727 290.144496 
L 374.138182 290.679092 
L 376.843636 291.213635 
L 379.549091 291.748126 
L 382.254545 292.282563 
L 384.96 292.816945 
L 387.665455 293.351272 
L 390.370909 293.885541 
L 393.076364 294.419753 
L 395.781818 294.953907 
L 398.487273 295.488 
" style="fill:none;stroke:#1f77b4;stroke-dasharray:7.4,3.2;stroke-dashoffset:0;stroke-width:2;"/>
   </g>
   <g id="line2d_18">
    <path clip-path="url(#pa1aa9cfaea)" d="M 73.832727 180.297812 
L 76.538182 179.926092 
L 79.243636 179.556245 
L 81.949091 179.188485 
L 84.654545 178.823006 
L 87.36 178.459983 
L 90.065455 178.099567 
L 92.770909 177.741888 
L 95.476364 177.387054 
L 98.181818 177.035151 
L 100.887273 176.686243 
L 103.592727 176.340373 
L 106.298182 175.997568 
L 109.003636 175.657832 
L 111.709091 175.321157 
L 114.414545 174.987517 
L 117.12 174.656875 
L 119.825455 174.329181 
L 122.530909 174.004375 
L 125.236364 173.682388 
L 127.941818 173.363144 
L 130.647273 173.046562 
L 133.352727 172.732557 
L 136.058182 172.421038 
L 138.763636 172.111914 
L 141.469091 171.805093 
L 144.174545 171.500482 
L 146.88 171.197987 
L 149.585455 170.897516 
L 152.290909 170.59898 
L 154.996364 170.302289 
L 157.701818 170.007358 
L 160.407273 169.714103 
L 163.112727 169.422443 
L 165.818182 169.132301 
L 168.523636 168.843602 
L 171.229091 168.556275 
L 173.934545 168.270252 
L 176.64 167.985468 
L 179.345455 167.701862 
L 182.050909 167.419375 
L 184.756364 167.137953 
L 187.461818 166.857542 
L 190.167273 166.578095 
L 192.872727 166.299564 
L 195.578182 166.021907 
L 198.283636 165.745082 
L 200.989091 165.469052 
L 203.694545 165.19378 
L 206.4 164.919232 
L 209.105455 164.645378 
L 211.810909 164.372188 
L 214.516364 164.099635 
L 217.221818 163.827693 
L 219.927273 163.556338 
L 222.632727 163.285549 
L 225.338182 163.015304 
L 228.043636 162.745585 
L 230.749091 162.476374 
L 233.454545 162.207654 
L 236.16 161.939411 
L 238.865455 161.671629 
L 241.570909 161.404297 
L 244.276364 161.137401 
L 246.981818 160.870931 
L 249.687273 160.604877 
L 252.392727 160.339228 
L 255.098182 160.073977 
L 257.803636 159.809115 
L 260.509091 159.544635 
L 263.214545 159.28053 
L 265.92 159.016793 
L 268.625455 158.75342 
L 271.330909 158.490405 
L 274.036364 158.227742 
L 276.741818 157.965429 
L 279.447273 157.703461 
L 282.152727 157.441834 
L 284.858182 157.180546 
L 287.563636 156.919593 
L 290.269091 156.658972 
L 292.974545 156.398683 
L 295.68 156.138721 
L 298.385455 155.879087 
L 301.090909 155.619777 
L 303.796364 155.360791 
L 306.501818 155.102128 
L 309.207273 154.843786 
L 311.912727 154.585764 
L 314.618182 154.328063 
L 317.323636 154.07068 
L 320.029091 153.813617 
L 322.734545 153.556872 
L 325.44 153.300445 
L 328.145455 153.044336 
L 330.850909 152.788545 
L 333.556364 152.533073 
L 336.261818 152.277919 
L 338.967273 152.023083 
L 341.672727 151.768566 
L 344.378182 151.514368 
L 347.083636 151.26049 
L 349.789091 151.006931 
L 352.494545 150.753693 
L 355.2 150.500776 
L 357.905455 150.24818 
L 360.610909 149.995906 
L 363.316364 149.743955 
L 366.021818 149.492328 
L 368.727273 149.241024 
L 371.432727 148.990045 
L 374.138182 148.739392 
L 376.843636 148.489064 
L 379.549091 148.239064 
L 382.254545 147.989392 
L 384.96 147.740048 
L 387.665455 147.491033 
L 390.370909 147.242349 
L 393.076364 146.993996 
L 395.781818 146.745974 
L 398.487273 146.498285 
" style="fill:none;stroke:#1f77b4;stroke-dasharray:7.4,3.2;stroke-dashoffset:0;stroke-width:2;"/>
   </g>
   <g id="line2d_19">
    <path clip-path="url(#pa1aa9cfaea)" d="M 73.832727 211.279514 
L 76.538182 211.539273 
L 79.243636 211.797915 
L 81.949091 212.055437 
L 84.654545 212.31184 
L 87.36 212.567125 
L 90.065455 212.821291 
L 92.770909 213.074339 
L 95.476364 213.326267 
L 98.181818 213.577077 
L 100.887273 213.826769 
L 103.592727 214.075342 
L 106.298182 214.322797 
L 109.003636 214.569133 
L 111.709091 214.814351 
L 114.414545 215.058451 
L 117.12 215.301432 
L 119.825455 215.543296 
L 122.530909 215.784041 
L 125.236364 216.023668 
L 127.941818 216.262178 
L 130.647273 216.49957 
L 133.352727 216.735844 
L 136.058182 216.971001 
L 138.763636 217.205041 
L 141.469091 217.437963 
L 144.174545 217.669768 
L 146.88 217.900456 
L 149.585455 218.130027 
L 152.290909 218.358482 
L 154.996364 218.58582 
L 157.701818 218.812041 
L 160.407273 219.037146 
L 163.112727 219.261135 
L 165.818182 219.484008 
L 168.523636 219.705766 
L 171.229091 219.926408 
L 173.934545 220.145934 
L 176.64 220.364345 
L 179.345455 220.581642 
L 182.050909 220.797823 
L 184.756364 221.01289 
L 187.461818 221.226842 
L 190.167273 221.43968 
L 192.872727 221.651405 
L 195.578182 221.862015 
L 198.283636 222.071512 
L 200.989091 222.279896 
L 203.694545 222.487167 
L 206.4 222.693325 
L 209.105455 222.898371 
L 211.810909 223.102304 
L 214.516364 223.305125 
L 217.221818 223.506835 
L 219.927273 223.707433 
L 222.632727 223.90692 
L 225.338182 224.105296 
L 228.043636 224.302562 
L 230.749091 224.498717 
L 233.454545 224.693762 
L 236.16 224.887698 
L 238.865455 225.080525 
L 241.570909 225.272242 
L 244.276364 225.462851 
L 246.981818 225.652351 
L 249.687273 225.840743 
L 252.392727 226.028028 
L 255.098182 226.214206 
L 257.803636 226.399276 
L 260.509091 226.58324 
L 263.214545 226.766098 
L 265.92 226.947849 
L 268.625455 227.128496 
L 271.330909 227.308037 
L 274.036364 227.486474 
L 276.741818 227.663806 
L 279.447273 227.840035 
L 282.152727 228.01516 
L 284.858182 228.189182 
L 287.563636 228.362101 
L 290.269091 228.533918 
L 292.974545 228.704634 
L 295.68 228.874248 
L 298.385455 229.042761 
L 301.090909 229.210174 
L 303.796364 229.376487 
L 306.501818 229.541701 
L 309.207273 229.705815 
L 311.912727 229.868831 
L 314.618182 230.030749 
L 317.323636 230.19157 
L 320.029091 230.351293 
L 322.734545 230.50992 
L 325.44 230.667451 
L 328.145455 230.823887 
L 330.850909 230.979227 
L 333.556364 231.133473 
L 336.261818 231.286625 
L 338.967273 231.438684 
L 341.672727 231.58965 
L 344.378182 231.739524 
L 347.083636 231.888306 
L 349.789091 232.035997 
L 352.494545 232.182598 
L 355.2 232.328109 
L 357.905455 232.47253 
L 360.610909 232.615863 
L 363.316364 232.758107 
L 366.021818 232.899264 
L 368.727273 233.039334 
L 371.432727 233.178318 
L 374.138182 233.316216 
L 376.843636 233.453029 
L 379.549091 233.588758 
L 382.254545 233.723403 
L 384.96 233.856966 
L 387.665455 233.989446 
L 390.370909 234.120844 
L 393.076364 234.251161 
L 395.781818 234.380398 
L 398.487273 234.508555 
" style="fill:none;stroke:#1f77b4;stroke-dasharray:7.4,3.2;stroke-dashoffset:0;stroke-width:2;"/>
   </g>
   <g id="line2d_20">
    <path clip-path="url(#pa1aa9cfaea)" d="M 73.832727 107.033 
L 76.538182 106.55844 
L 79.243636 106.084349 
L 81.949091 105.610728 
L 84.654545 105.137578 
L 87.36 104.664899 
L 90.065455 104.192693 
L 92.770909 103.720961 
L 95.476364 103.249702 
L 98.181818 102.778918 
L 100.887273 102.308609 
L 103.592727 101.838776 
L 106.298182 101.36942 
L 109.003636 100.900541 
L 111.709091 100.43214 
L 114.414545 99.964217 
L 117.12 99.496774 
L 119.825455 99.02981 
L 122.530909 98.563327 
L 125.236364 98.097324 
L 127.941818 97.631803 
L 130.647273 97.166763 
L 133.352727 96.702206 
L 136.058182 96.238131 
L 138.763636 95.774541 
L 141.469091 95.311434 
L 144.174545 94.848811 
L 146.88 94.386673 
L 149.585455 93.92502 
L 152.290909 93.463853 
L 154.996364 93.003172 
L 157.701818 92.542978 
L 160.407273 92.08327 
L 163.112727 91.62405 
L 165.818182 91.165318 
L 168.523636 90.707074 
L 171.229091 90.249318 
L 173.934545 89.792051 
L 176.64 89.335273 
L 179.345455 88.878985 
L 182.050909 88.423187 
L 184.756364 87.96788 
L 187.461818 87.513062 
L 190.167273 87.058736 
L 192.872727 86.604901 
L 195.578182 86.151557 
L 198.283636 85.698706 
L 200.989091 85.246346 
L 203.694545 84.794479 
L 206.4 84.343105 
L 209.105455 83.892224 
L 211.810909 83.441836 
L 214.516364 82.991941 
L 217.221818 82.542541 
L 219.927273 82.093634 
L 222.632727 81.645222 
L 225.338182 81.197305 
L 228.043636 80.749882 
L 230.749091 80.302955 
L 233.454545 79.856522 
L 236.16 79.410586 
L 238.865455 78.965145 
L 241.570909 78.5202 
L 244.276364 78.075751 
L 246.981818 77.631799 
L 249.687273 77.188343 
L 252.392727 76.745385 
L 255.098182 76.302923 
L 257.803636 75.860959 
L 260.509091 75.419492 
L 263.214545 74.978522 
L 265.92 74.538051 
L 268.625455 74.098077 
L 271.330909 73.658602 
L 274.036364 73.219625 
L 276.741818 72.781147 
L 279.447273 72.343168 
L 282.152727 71.905687 
L 284.858182 71.468705 
L 287.563636 71.032223 
L 290.269091 70.59624 
L 292.974545 70.160757 
L 295.68 69.725773 
L 298.385455 69.291289 
L 301.090909 68.857305 
L 303.796364 68.423822 
L 306.501818 67.990838 
L 309.207273 67.558355 
L 311.912727 67.126373 
L 314.618182 66.694891 
L 317.323636 66.263911 
L 320.029091 65.833431 
L 322.734545 65.403453 
L 325.44 64.973975 
L 328.145455 64.544999 
L 330.850909 64.116525 
L 333.556364 63.688552 
L 336.261818 63.261082 
L 338.967273 62.834113 
L 341.672727 62.407646 
L 344.378182 61.981681 
L 347.083636 61.556218 
L 349.789091 61.131258 
L 352.494545 60.7068 
L 355.2 60.282845 
L 357.905455 59.859392 
L 360.610909 59.436443 
L 363.316364 59.013996 
L 366.021818 58.592052 
L 368.727273 58.170612 
L 371.432727 57.749674 
L 374.138182 57.32924 
L 376.843636 56.90931 
L 379.549091 56.489883 
L 382.254545 56.070959 
L 384.96 55.652539 
L 387.665455 55.234624 
L 390.370909 54.817212 
L 393.076364 54.400304 
L 395.781818 53.9839 
L 398.487273 53.568 
" style="fill:none;stroke:#1f77b4;stroke-dasharray:7.4,3.2;stroke-dashoffset:0;stroke-width:2;"/>
   </g>
   <g id="line2d_21">
    <path clip-path="url(#pa1aa9cfaea)" d="M 73.832727 183.849547 
L 76.538182 183.797062 
L 79.243636 183.745863 
L 81.949091 183.696162 
L 84.654545 183.648155 
L 87.36 183.602015 
L 90.065455 183.557893 
L 92.770909 183.51592 
L 95.476364 183.476203 
L 98.181818 183.438827 
L 100.887273 183.403855 
L 103.592727 183.371333 
L 106.298182 183.341284 
L 109.003636 183.313714 
L 111.709091 183.288613 
L 114.414545 183.265957 
L 117.12 183.245706 
L 119.825455 183.227811 
L 122.530909 183.21221 
L 125.236364 183.198836 
L 127.941818 183.187612 
L 130.647273 183.178456 
L 133.352727 183.171282 
L 136.058182 183.165999 
L 138.763636 183.162517 
L 141.469091 183.160741 
L 144.174545 183.160579 
L 146.88 183.161937 
L 149.585455 183.164722 
L 152.290909 183.168844 
L 154.996364 183.174213 
L 157.701818 183.180744 
L 160.407273 183.188352 
L 163.112727 183.196955 
L 165.818182 183.206477 
L 168.523636 183.216841 
L 171.229091 183.227976 
L 173.934545 183.239814 
L 176.64 183.25229 
L 179.345455 183.26534 
L 182.050909 183.278907 
L 184.756364 183.292935 
L 187.461818 183.307372 
L 190.167273 183.322167 
L 192.872727 183.337274 
L 195.578182 183.352649 
L 198.283636 183.36825 
L 200.989091 183.38404 
L 203.694545 183.399981 
L 206.4 183.416039 
L 209.105455 183.432183 
L 211.810909 183.448383 
L 214.516364 183.46461 
L 217.221818 183.480839 
L 219.927273 183.497046 
L 222.632727 183.513208 
L 225.338182 183.529303 
L 228.043636 183.545313 
L 230.749091 183.561219 
L 233.454545 183.577003 
L 236.16 183.592652 
L 238.865455 183.608148 
L 241.570909 183.62348 
L 244.276364 183.638635 
L 246.981818 183.653601 
L 249.687273 183.668366 
L 252.392727 183.682922 
L 255.098182 183.697259 
L 257.803636 183.711368 
L 260.509091 183.725242 
L 263.214545 183.738873 
L 265.92 183.752255 
L 268.625455 183.765382 
L 271.330909 183.778247 
L 274.036364 183.790846 
L 276.741818 183.803174 
L 279.447273 183.815226 
L 282.152727 183.827 
L 284.858182 183.83849 
L 287.563636 183.849694 
L 290.269091 183.860608 
L 292.974545 183.87123 
L 295.68 183.881558 
L 298.385455 183.891589 
L 301.090909 183.901322 
L 303.796364 183.910753 
L 306.501818 183.919883 
L 309.207273 183.928708 
L 311.912727 183.937229 
L 314.618182 183.945444 
L 317.323636 183.953352 
L 320.029091 183.960952 
L 322.734545 183.968244 
L 325.44 183.975226 
L 328.145455 183.981899 
L 330.850909 183.988262 
L 333.556364 183.994314 
L 336.261818 184.000056 
L 338.967273 184.005487 
L 341.672727 184.010608 
L 344.378182 184.015418 
L 347.083636 184.019917 
L 349.789091 184.024105 
L 352.494545 184.027983 
L 355.2 184.031551 
L 357.905455 184.034809 
L 360.610909 184.037758 
L 363.316364 184.040397 
L 366.021818 184.042727 
L 368.727273 184.044749 
L 371.432727 184.046463 
L 374.138182 184.047869 
L 376.843636 184.048968 
L 379.549091 184.04976 
L 382.254545 184.050247 
L 384.96 184.050427 
L 387.665455 184.050303 
L 390.370909 184.049875 
L 393.076364 184.049143 
L 395.781818 184.048107 
L 398.487273 184.04677 
" style="fill:none;stroke:#ff7f0e;stroke-linecap:square;stroke-width:3;"/>
   </g>
   <g id="patch_3">
    <path d="M 57.6 307.584 
L 57.6 41.472 
" style="fill:none;stroke:#000000;stroke-linecap:square;stroke-linejoin:miter;stroke-width:0.8;"/>
   </g>
   <g id="patch_4">
    <path d="M 414.72 307.584 
L 414.72 41.472 
" style="fill:none;stroke:#000000;stroke-linecap:square;stroke-linejoin:miter;stroke-width:0.8;"/>
   </g>
   <g id="patch_5">
    <path d="M 57.6 307.584 
L 414.72 307.584 
" style="fill:none;stroke:#000000;stroke-linecap:square;stroke-linejoin:miter;stroke-width:0.8;"/>
   </g>
   <g id="patch_6">
    <path d="M 57.6 41.472 
L 414.72 41.472 
" style="fill:none;stroke:#000000;stroke-linecap:square;stroke-linejoin:miter;stroke-width:0.8;"/>
   </g>
  </g>
 </g>
 <defs>
  <clipPath id="pa1aa9cfaea">
   <rect height="266.112" width="357.12" x="57.6" y="41.472"/>
  </clipPath>
 </defs>
</svg>
