<?xml version="1.0" encoding="utf-8" standalone="no"?>
<!DOCTYPE svg PUBLIC "-//W3C//DTD SVG 1.1//EN"
  "http://www.w3.org/Graphics/SVG/1.1/DTD/svg11.dtd">
<!-- Created with matplotlib (http://matplotlib.org/) -->
<svg height="268.2pt" version="1.1" viewBox="0 0 711.9 268.2" width="711.9pt" xmlns="http://www.w3.org/2000/svg" xmlns:xlink="http://www.w3.org/1999/xlink">
 <defs>
  <style type="text/css">
*{stroke-linecap:butt;stroke-linejoin:round;}
  </style>
 </defs>
 <g id="figure_1">
  <g id="patch_1">
   <path d="M 0 268.2 
L 711.9 268.2 
L 711.9 0 
L 0 0 
z
" style="fill:#ffffff;"/>
  </g>
  <g id="axes_1">
   <g id="patch_2">
    <path d="M 88.9875 238.698 
L 640.71 238.698 
L 640.71 32.184 
L 88.9875 32.184 
z
" style="fill:#ffffff;"/>
   </g>
   <g id="PathCollection_1">
    <path clip-path="url(#p40ac27c382)" d="M 300.51065 137.446999 
C 301.696674 137.446999 302.834282 136.975787 303.672928 136.137141 
C 304.511574 135.298495 304.982786 134.160887 304.982786 132.974863 
C 304.982786 131.788839 304.511574 130.651231 303.672928 129.812585 
C 302.834282 128.97394 301.696674 128.502727 300.51065 128.502727 
C 299.324626 128.502727 298.187018 128.97394 297.348372 129.812585 
C 296.509727 130.651231 296.038514 131.788839 296.038514 132.974863 
C 296.038514 134.160887 296.509727 135.298495 297.348372 136.137141 
C 298.187018 136.975787 299.324626 137.446999 300.51065 137.446999 
z
" style="fill:none;stroke:#9467bd;stroke-width:2;"/>
   </g>
   <g id="PathCollection_2">
    <path clip-path="url(#p40ac27c382)" d="M 535.352649 152.633066 
C 536.538673 152.633066 537.676281 152.161854 538.514927 151.323208 
C 539.353573 150.484562 539.824785 149.346955 539.824785 148.16093 
C 539.824785 146.974906 539.353573 145.837299 538.514927 144.998653 
C 537.676281 144.160007 536.538673 143.688795 535.352649 143.688795 
C 534.166625 143.688795 533.029017 144.160007 532.190371 144.998653 
C 531.351726 145.837299 530.880513 146.974906 530.880513 148.16093 
C 530.880513 149.346955 531.351726 150.484562 532.190371 151.323208 
C 533.029017 152.161854 534.166625 152.633066 535.352649 152.633066 
z
" style="fill:none;stroke:#9467bd;stroke-width:2;"/>
   </g>
   <g id="PathCollection_3">
    <defs>
     <path d="M 0 4.472136 
C 1.186024 4.472136 2.323632 4.000923 3.162278 3.162278 
C 4.000923 2.323632 4.472136 1.186024 4.472136 0 
C 4.472136 -1.186024 4.000923 -2.323632 3.162278 -3.162278 
C 2.323632 -4.000923 1.186024 -4.472136 0 -4.472136 
C -1.186024 -4.472136 -2.323632 -4.000923 -3.162278 -3.162278 
C -4.000923 -2.323632 -4.472136 -1.186024 -4.472136 0 
C -4.472136 1.186024 -4.000923 2.323632 -3.162278 3.162278 
C -2.323632 4.000923 -1.186024 4.472136 0 4.472136 
z
" id="C0_0_fa5ef004bf"/>
    </defs>
    <g clip-path="url(#p40ac27c382)">
     <use style="fill:none;stroke:#9467bd;stroke-width:2;" x="175.811142" xlink:href="#C0_0_fa5ef004bf" y="122.878054"/>
    </g>
    <g clip-path="url(#p40ac27c382)">
     <use style="fill:none;stroke:#9467bd;stroke-width:2;" x="181.837619" xlink:href="#C0_0_fa5ef004bf" y="123.396936"/>
    </g>
    <g clip-path="url(#p40ac27c382)">
     <use style="fill:none;stroke:#9467bd;stroke-width:2;" x="197.682003" xlink:href="#C0_0_fa5ef004bf" y="109.246508"/>
    </g>
    <g clip-path="url(#p40ac27c382)">
     <use style="fill:none;stroke:#9467bd;stroke-width:2;" x="190.132171" xlink:href="#C0_0_fa5ef004bf" y="109.996556"/>
    </g>
   </g>
   <g id="matplotlib.axis_1">
    <g id="xtick_1">
     <g id="line2d_1">
      <defs>
       <path d="M 0 0 
L 0 3.5 
" id="m7286473b65" style="stroke:#000000;stroke-width:0.8;"/>
      </defs>
      <g>
       <use style="stroke:#000000;stroke-width:0.8;" x="114.065795" xlink:href="#m7286473b65" y="238.698"/>
      </g>
     </g>
     <g id="text_1">
      <!-- 0 -->
      <defs>
       <path d="M 31.78125 66.40625 
Q 24.171875 66.40625 20.328125 58.90625 
Q 16.5 51.421875 16.5 36.375 
Q 16.5 21.390625 20.328125 13.890625 
Q 24.171875 6.390625 31.78125 6.390625 
Q 39.453125 6.390625 43.28125 13.890625 
Q 47.125 21.390625 47.125 36.375 
Q 47.125 51.421875 43.28125 58.90625 
Q 39.453125 66.40625 31.78125 66.40625 
z
M 31.78125 74.21875 
Q 44.046875 74.21875 50.515625 64.515625 
Q 56.984375 54.828125 56.984375 36.375 
Q 56.984375 17.96875 50.515625 8.265625 
Q 44.046875 -1.421875 31.78125 -1.421875 
Q 19.53125 -1.421875 13.0625 8.265625 
Q 6.59375 17.96875 6.59375 36.375 
Q 6.59375 54.828125 13.0625 64.515625 
Q 19.53125 74.21875 31.78125 74.21875 
z
" id="DejaVuSans-30"/>
      </defs>
      <g transform="translate(107.703295 260.894875)scale(0.2 -0.2)">
       <use xlink:href="#DejaVuSans-30"/>
      </g>
     </g>
    </g>
    <g id="xtick_2">
     <g id="line2d_2">
      <g>
       <use style="stroke:#000000;stroke-width:0.8;" x="182.850295" xlink:href="#m7286473b65" y="238.698"/>
      </g>
     </g>
     <g id="text_2">
      <!-- 20 -->
      <defs>
       <path d="M 19.1875 8.296875 
L 53.609375 8.296875 
L 53.609375 0 
L 7.328125 0 
L 7.328125 8.296875 
Q 12.9375 14.109375 22.625 23.890625 
Q 32.328125 33.6875 34.8125 36.53125 
Q 39.546875 41.84375 41.421875 45.53125 
Q 43.3125 49.21875 43.3125 52.78125 
Q 43.3125 58.59375 39.234375 62.25 
Q 35.15625 65.921875 28.609375 65.921875 
Q 23.96875 65.921875 18.8125 64.3125 
Q 13.671875 62.703125 7.8125 59.421875 
L 7.8125 69.390625 
Q 13.765625 71.78125 18.9375 73 
Q 24.125 74.21875 28.421875 74.21875 
Q 39.75 74.21875 46.484375 68.546875 
Q 53.21875 62.890625 53.21875 53.421875 
Q 53.21875 48.921875 51.53125 44.890625 
Q 49.859375 40.875 45.40625 35.40625 
Q 44.1875 33.984375 37.640625 27.21875 
Q 31.109375 20.453125 19.1875 8.296875 
z
" id="DejaVuSans-32"/>
      </defs>
      <g transform="translate(170.125295 260.894875)scale(0.2 -0.2)">
       <use xlink:href="#DejaVuSans-32"/>
       <use x="63.623047" xlink:href="#DejaVuSans-30"/>
      </g>
     </g>
    </g>
    <g id="xtick_3">
     <g id="line2d_3">
      <g>
       <use style="stroke:#000000;stroke-width:0.8;" x="251.634795" xlink:href="#m7286473b65" y="238.698"/>
      </g>
     </g>
     <g id="text_3">
      <!-- 40 -->
      <defs>
       <path d="M 37.796875 64.3125 
L 12.890625 25.390625 
L 37.796875 25.390625 
z
M 35.203125 72.90625 
L 47.609375 72.90625 
L 47.609375 25.390625 
L 58.015625 25.390625 
L 58.015625 17.1875 
L 47.609375 17.1875 
L 47.609375 0 
L 37.796875 0 
L 37.796875 17.1875 
L 4.890625 17.1875 
L 4.890625 26.703125 
z
" id="DejaVuSans-34"/>
      </defs>
      <g transform="translate(238.909795 260.894875)scale(0.2 -0.2)">
       <use xlink:href="#DejaVuSans-34"/>
       <use x="63.623047" xlink:href="#DejaVuSans-30"/>
      </g>
     </g>
    </g>
    <g id="xtick_4">
     <g id="line2d_4">
      <g>
       <use style="stroke:#000000;stroke-width:0.8;" x="320.419294" xlink:href="#m7286473b65" y="238.698"/>
      </g>
     </g>
     <g id="text_4">
      <!-- 60 -->
      <defs>
       <path d="M 33.015625 40.375 
Q 26.375 40.375 22.484375 35.828125 
Q 18.609375 31.296875 18.609375 23.390625 
Q 18.609375 15.53125 22.484375 10.953125 
Q 26.375 6.390625 33.015625 6.390625 
Q 39.65625 6.390625 43.53125 10.953125 
Q 47.40625 15.53125 47.40625 23.390625 
Q 47.40625 31.296875 43.53125 35.828125 
Q 39.65625 40.375 33.015625 40.375 
z
M 52.59375 71.296875 
L 52.59375 62.3125 
Q 48.875 64.0625 45.09375 64.984375 
Q 41.3125 65.921875 37.59375 65.921875 
Q 27.828125 65.921875 22.671875 59.328125 
Q 17.53125 52.734375 16.796875 39.40625 
Q 19.671875 43.65625 24.015625 45.921875 
Q 28.375 48.1875 33.59375 48.1875 
Q 44.578125 48.1875 50.953125 41.515625 
Q 57.328125 34.859375 57.328125 23.390625 
Q 57.328125 12.15625 50.6875 5.359375 
Q 44.046875 -1.421875 33.015625 -1.421875 
Q 20.359375 -1.421875 13.671875 8.265625 
Q 6.984375 17.96875 6.984375 36.375 
Q 6.984375 53.65625 15.1875 63.9375 
Q 23.390625 74.21875 37.203125 74.21875 
Q 40.921875 74.21875 44.703125 73.484375 
Q 48.484375 72.75 52.59375 71.296875 
z
" id="DejaVuSans-36"/>
      </defs>
      <g transform="translate(307.694294 260.894875)scale(0.2 -0.2)">
       <use xlink:href="#DejaVuSans-36"/>
       <use x="63.623047" xlink:href="#DejaVuSans-30"/>
      </g>
     </g>
    </g>
    <g id="xtick_5">
     <g id="line2d_5">
      <g>
       <use style="stroke:#000000;stroke-width:0.8;" x="389.203794" xlink:href="#m7286473b65" y="238.698"/>
      </g>
     </g>
     <g id="text_5">
      <!-- 80 -->
      <defs>
       <path d="M 31.78125 34.625 
Q 24.75 34.625 20.71875 30.859375 
Q 16.703125 27.09375 16.703125 20.515625 
Q 16.703125 13.921875 20.71875 10.15625 
Q 24.75 6.390625 31.78125 6.390625 
Q 38.8125 6.390625 42.859375 10.171875 
Q 46.921875 13.96875 46.921875 20.515625 
Q 46.921875 27.09375 42.890625 30.859375 
Q 38.875 34.625 31.78125 34.625 
z
M 21.921875 38.8125 
Q 15.578125 40.375 12.03125 44.71875 
Q 8.5 49.078125 8.5 55.328125 
Q 8.5 64.0625 14.71875 69.140625 
Q 20.953125 74.21875 31.78125 74.21875 
Q 42.671875 74.21875 48.875 69.140625 
Q 55.078125 64.0625 55.078125 55.328125 
Q 55.078125 49.078125 51.53125 44.71875 
Q 48 40.375 41.703125 38.8125 
Q 48.828125 37.15625 52.796875 32.3125 
Q 56.78125 27.484375 56.78125 20.515625 
Q 56.78125 9.90625 50.3125 4.234375 
Q 43.84375 -1.421875 31.78125 -1.421875 
Q 19.734375 -1.421875 13.25 4.234375 
Q 6.78125 9.90625 6.78125 20.515625 
Q 6.78125 27.484375 10.78125 32.3125 
Q 14.796875 37.15625 21.921875 38.8125 
z
M 18.3125 54.390625 
Q 18.3125 48.734375 21.84375 45.5625 
Q 25.390625 42.390625 31.78125 42.390625 
Q 38.140625 42.390625 41.71875 45.5625 
Q 45.3125 48.734375 45.3125 54.390625 
Q 45.3125 60.0625 41.71875 63.234375 
Q 38.140625 66.40625 31.78125 66.40625 
Q 25.390625 66.40625 21.84375 63.234375 
Q 18.3125 60.0625 18.3125 54.390625 
z
" id="DejaVuSans-38"/>
      </defs>
      <g transform="translate(376.478794 260.894875)scale(0.2 -0.2)">
       <use xlink:href="#DejaVuSans-38"/>
       <use x="63.623047" xlink:href="#DejaVuSans-30"/>
      </g>
     </g>
    </g>
    <g id="xtick_6">
     <g id="line2d_6">
      <g>
       <use style="stroke:#000000;stroke-width:0.8;" x="457.988293" xlink:href="#m7286473b65" y="238.698"/>
      </g>
     </g>
     <g id="text_6">
      <!-- 100 -->
      <defs>
       <path d="M 12.40625 8.296875 
L 28.515625 8.296875 
L 28.515625 63.921875 
L 10.984375 60.40625 
L 10.984375 69.390625 
L 28.421875 72.90625 
L 38.28125 72.90625 
L 38.28125 8.296875 
L 54.390625 8.296875 
L 54.390625 0 
L 12.40625 0 
z
" id="DejaVuSans-31"/>
      </defs>
      <g transform="translate(438.900793 260.894875)scale(0.2 -0.2)">
       <use xlink:href="#DejaVuSans-31"/>
       <use x="63.623047" xlink:href="#DejaVuSans-30"/>
       <use x="127.246094" xlink:href="#DejaVuSans-30"/>
      </g>
     </g>
    </g>
    <g id="xtick_7">
     <g id="line2d_7">
      <g>
       <use style="stroke:#000000;stroke-width:0.8;" x="526.772793" xlink:href="#m7286473b65" y="238.698"/>
      </g>
     </g>
     <g id="text_7">
      <!-- 120 -->
      <g transform="translate(507.685293 260.894875)scale(0.2 -0.2)">
       <use xlink:href="#DejaVuSans-31"/>
       <use x="63.623047" xlink:href="#DejaVuSans-32"/>
       <use x="127.246094" xlink:href="#DejaVuSans-30"/>
      </g>
     </g>
    </g>
    <g id="xtick_8">
     <g id="line2d_8">
      <g>
       <use style="stroke:#000000;stroke-width:0.8;" x="595.557292" xlink:href="#m7286473b65" y="238.698"/>
      </g>
     </g>
     <g id="text_8">
      <!-- 140 -->
      <g transform="translate(576.469792 260.894875)scale(0.2 -0.2)">
       <use xlink:href="#DejaVuSans-31"/>
       <use x="63.623047" xlink:href="#DejaVuSans-34"/>
       <use x="127.246094" xlink:href="#DejaVuSans-30"/>
      </g>
     </g>
    </g>
   </g>
   <g id="matplotlib.axis_2">
    <g id="ytick_1">
     <g id="line2d_9">
      <defs>
       <path d="M 0 0 
L -3.5 0 
" id="m7ddd34a34b" style="stroke:#000000;stroke-width:0.8;"/>
      </defs>
      <g>
       <use style="stroke:#000000;stroke-width:0.8;" x="88.9875" xlink:href="#m7ddd34a34b" y="209.638837"/>
      </g>
     </g>
     <g id="text_9">
      <!-- 2400 -->
      <g transform="translate(31.0875 217.237274)scale(0.2 -0.2)">
       <use xlink:href="#DejaVuSans-32"/>
       <use x="63.623047" xlink:href="#DejaVuSans-34"/>
       <use x="127.246094" xlink:href="#DejaVuSans-30"/>
       <use x="190.869141" xlink:href="#DejaVuSans-30"/>
      </g>
     </g>
    </g>
    <g id="ytick_2">
     <g id="line2d_10">
      <g>
       <use style="stroke:#000000;stroke-width:0.8;" x="88.9875" xlink:href="#m7ddd34a34b" y="170.351523"/>
      </g>
     </g>
     <g id="text_10">
      <!-- 2600 -->
      <g transform="translate(31.0875 177.94996)scale(0.2 -0.2)">
       <use xlink:href="#DejaVuSans-32"/>
       <use x="63.623047" xlink:href="#DejaVuSans-36"/>
       <use x="127.246094" xlink:href="#DejaVuSans-30"/>
       <use x="190.869141" xlink:href="#DejaVuSans-30"/>
      </g>
     </g>
    </g>
    <g id="ytick_3">
     <g id="line2d_11">
      <g>
       <use style="stroke:#000000;stroke-width:0.8;" x="88.9875" xlink:href="#m7ddd34a34b" y="131.064209"/>
      </g>
     </g>
     <g id="text_11">
      <!-- 2800 -->
      <g transform="translate(31.0875 138.662646)scale(0.2 -0.2)">
       <use xlink:href="#DejaVuSans-32"/>
       <use x="63.623047" xlink:href="#DejaVuSans-38"/>
       <use x="127.246094" xlink:href="#DejaVuSans-30"/>
       <use x="190.869141" xlink:href="#DejaVuSans-30"/>
      </g>
     </g>
    </g>
    <g id="ytick_4">
     <g id="line2d_12">
      <g>
       <use style="stroke:#000000;stroke-width:0.8;" x="88.9875" xlink:href="#m7ddd34a34b" y="91.776895"/>
      </g>
     </g>
     <g id="text_12">
      <!-- 3000 -->
      <defs>
       <path d="M 40.578125 39.3125 
Q 47.65625 37.796875 51.625 33 
Q 55.609375 28.21875 55.609375 21.1875 
Q 55.609375 10.40625 48.1875 4.484375 
Q 40.765625 -1.421875 27.09375 -1.421875 
Q 22.515625 -1.421875 17.65625 -0.515625 
Q 12.796875 0.390625 7.625 2.203125 
L 7.625 11.71875 
Q 11.71875 9.328125 16.59375 8.109375 
Q 21.484375 6.890625 26.8125 6.890625 
Q 36.078125 6.890625 40.9375 10.546875 
Q 45.796875 14.203125 45.796875 21.1875 
Q 45.796875 27.640625 41.28125 31.265625 
Q 36.765625 34.90625 28.71875 34.90625 
L 20.21875 34.90625 
L 20.21875 43.015625 
L 29.109375 43.015625 
Q 36.375 43.015625 40.234375 45.921875 
Q 44.09375 48.828125 44.09375 54.296875 
Q 44.09375 59.90625 40.109375 62.90625 
Q 36.140625 65.921875 28.71875 65.921875 
Q 24.65625 65.921875 20.015625 65.03125 
Q 15.375 64.15625 9.8125 62.3125 
L 9.8125 71.09375 
Q 15.4375 72.65625 20.34375 73.4375 
Q 25.25 74.21875 29.59375 74.21875 
Q 40.828125 74.21875 47.359375 69.109375 
Q 53.90625 64.015625 53.90625 55.328125 
Q 53.90625 49.265625 50.4375 45.09375 
Q 46.96875 40.921875 40.578125 39.3125 
z
" id="DejaVuSans-33"/>
      </defs>
      <g transform="translate(31.0875 99.375332)scale(0.2 -0.2)">
       <use xlink:href="#DejaVuSans-33"/>
       <use x="63.623047" xlink:href="#DejaVuSans-30"/>
       <use x="127.246094" xlink:href="#DejaVuSans-30"/>
       <use x="190.869141" xlink:href="#DejaVuSans-30"/>
      </g>
     </g>
    </g>
    <g id="ytick_5">
     <g id="line2d_13">
      <g>
       <use style="stroke:#000000;stroke-width:0.8;" x="88.9875" xlink:href="#m7ddd34a34b" y="52.489581"/>
      </g>
     </g>
     <g id="text_13">
      <!-- 3200 -->
      <g transform="translate(31.0875 60.088018)scale(0.2 -0.2)">
       <use xlink:href="#DejaVuSans-33"/>
       <use x="63.623047" xlink:href="#DejaVuSans-32"/>
       <use x="127.246094" xlink:href="#DejaVuSans-30"/>
       <use x="190.869141" xlink:href="#DejaVuSans-30"/>
      </g>
     </g>
    </g>
   </g>
   <g id="line2d_14">
    <path clip-path="url(#p40ac27c382)" d="M 114.065795 116.724339 
L 119.132118 116.559776 
L 124.19844 116.202458 
L 129.264762 115.779748 
L 134.331085 115.331414 
L 139.397407 114.870168 
L 144.463729 114.400995 
L 149.530052 113.9262 
L 154.596374 113.446984 
L 159.662696 112.964033 
L 164.729019 112.477765 
L 169.795341 111.98845 
L 174.861663 111.496269 
L 179.927986 111.001349 
L 184.994308 110.503783 
L 190.06063 110.003637 
L 195.126952 109.500963 
L 200.193275 108.9958 
L 205.259597 108.48818 
L 210.325919 107.978127 
L 215.392242 107.465662 
L 220.458564 106.950801 
L 225.524886 106.433559 
L 230.591209 105.913946 
L 235.657531 105.391973 
L 240.723853 104.867649 
L 245.790176 104.340981 
L 250.856498 103.811976 
L 255.92282 103.28064 
L 260.989143 102.746979 
L 266.055465 102.210996 
L 271.121787 101.672697 
L 276.18811 101.132086 
L 281.254432 100.589166 
L 286.320754 100.043941 
L 291.387076 99.496414 
L 296.453399 98.946589 
L 301.519721 98.394469 
L 306.586043 97.840056 
L 311.652366 97.283353 
L 316.718688 96.724363 
L 321.78501 96.163088 
L 326.851333 95.599532 
L 331.917655 95.033696 
L 336.983977 94.465582 
L 342.0503 93.895194 
L 347.116622 93.322534 
L 352.182944 92.747603 
L 357.249267 92.170405 
L 362.315589 91.590941 
L 367.381911 91.009214 
L 372.448233 90.425225 
L 377.514556 89.838978 
L 382.580878 89.250474 
L 387.6472 88.659715 
L 392.713523 88.066704 
L 397.779845 87.471443 
L 402.846167 86.873934 
L 407.91249 86.274178 
L 412.978812 85.67218 
L 418.045134 85.06794 
L 423.111457 84.46146 
L 428.177779 83.852744 
L 433.244101 83.241792 
L 438.310424 82.628608 
L 443.376746 82.013194 
L 448.443068 81.395551 
L 453.50939 80.775682 
L 458.575713 80.15359 
L 463.642035 79.529275 
L 468.708357 78.902742 
L 473.77468 78.273991 
L 478.841002 77.643026 
L 483.907324 77.009848 
L 488.973647 76.37446 
L 494.039969 75.736864 
L 499.106291 75.097062 
L 504.172614 74.455057 
L 509.238936 73.810851 
L 514.305258 73.164446 
L 519.371581 72.515845 
L 524.437903 71.86505 
L 529.504225 71.212064 
L 534.570548 70.556888 
L 539.63687 69.899526 
L 544.703192 69.239979 
L 549.769514 68.57825 
L 554.835837 67.914342 
L 559.902159 67.248256 
L 564.968481 66.579997 
L 570.034804 65.909565 
L 575.101126 65.236963 
L 580.167448 64.562194 
L 585.233771 63.885261 
L 590.300093 63.206165 
L 595.366415 62.52491 
L 600.432738 61.841497 
L 605.49906 61.155931 
L 610.565382 60.468212 
L 615.631705 59.778344 
" style="fill:none;stroke:#1f77b4;stroke-linecap:square;stroke-width:5;"/>
   </g>
   <g id="line2d_15">
    <path clip-path="url(#p40ac27c382)" d="M 114.065795 117.902959 
L 119.132118 118.065195 
L 124.19844 118.415534 
L 129.264762 118.826611 
L 134.331085 119.258661 
L 139.397407 119.698969 
L 144.463729 120.142552 
L 149.530052 120.587105 
L 154.596374 121.031426 
L 159.662696 121.474831 
L 164.729019 121.916902 
L 169.795341 122.357369 
L 174.861663 122.796051 
L 179.927986 123.232821 
L 184.994308 123.667588 
L 190.06063 124.100286 
L 195.126952 124.530863 
L 200.193275 124.959281 
L 205.259597 125.385509 
L 210.325919 125.809523 
L 215.392242 126.231303 
L 220.458564 126.650834 
L 225.524886 127.068102 
L 230.591209 127.483096 
L 235.657531 127.895808 
L 240.723853 128.306229 
L 245.790176 128.714352 
L 250.856498 129.120173 
L 255.92282 129.523686 
L 260.989143 129.924886 
L 266.055465 130.323771 
L 271.121787 130.720336 
L 276.18811 131.114579 
L 281.254432 131.506498 
L 286.320754 131.896089 
L 291.387076 132.283351 
L 296.453399 132.668282 
L 301.519721 133.05088 
L 306.586043 133.431144 
L 311.652366 133.809072 
L 316.718688 134.184664 
L 321.78501 134.557918 
L 326.851333 134.928833 
L 331.917655 135.297408 
L 336.983977 135.663643 
L 342.0503 136.027536 
L 347.116622 136.389087 
L 352.182944 136.748297 
L 357.249267 137.105163 
L 362.315589 137.459685 
L 367.381911 137.811864 
L 372.448233 138.161699 
L 377.514556 138.509189 
L 382.580878 138.854335 
L 387.6472 139.197136 
L 392.713523 139.537591 
L 397.779845 139.875702 
L 402.846167 140.211467 
L 407.91249 140.544887 
L 412.978812 140.875962 
L 418.045134 141.204692 
L 423.111457 141.531076 
L 428.177779 141.855115 
L 433.244101 142.176809 
L 438.310424 142.496159 
L 443.376746 142.813164 
L 448.443068 143.127824 
L 453.50939 143.440141 
L 458.575713 143.750113 
L 463.642035 144.057742 
L 468.708357 144.363028 
L 473.77468 144.665971 
L 478.841002 144.966571 
L 483.907324 145.264829 
L 488.973647 145.560746 
L 494.039969 145.854321 
L 499.106291 146.145556 
L 504.172614 146.434451 
L 509.238936 146.721006 
L 514.305258 147.005222 
L 519.371581 147.287099 
L 524.437903 147.566639 
L 529.504225 147.843841 
L 534.570548 148.118707 
L 539.63687 148.391237 
L 544.703192 148.661432 
L 549.769514 148.929292 
L 554.835837 149.194818 
L 559.902159 149.458012 
L 564.968481 149.718874 
L 570.034804 149.977404 
L 575.101126 150.233604 
L 580.167448 150.487474 
L 585.233771 150.739016 
L 590.300093 150.98823 
L 595.366415 151.235117 
L 600.432738 151.479678 
L 605.49906 151.721915 
L 610.565382 151.961827 
L 615.631705 152.199417 
" style="fill:none;stroke:#1f77b4;stroke-linecap:square;stroke-width:5;"/>
   </g>
   <g id="line2d_16">
    <path clip-path="url(#p40ac27c382)" d="M 114.065795 151.297175 
L 119.132118 151.132517 
L 124.19844 150.774937 
L 129.264762 150.351814 
L 134.331085 149.902916 
L 139.397407 149.440955 
L 144.463729 148.970916 
L 149.530052 148.495105 
L 154.596374 148.014722 
L 159.662696 147.530454 
L 164.729019 147.042718 
L 169.795341 146.551784 
L 174.861663 146.057835 
L 179.927986 145.560997 
L 184.994308 145.061363 
L 190.06063 144.558999 
L 195.126952 144.053958 
L 200.193275 143.546279 
L 205.259597 143.035994 
L 210.325919 142.523127 
L 215.392242 142.007699 
L 220.458564 141.489728 
L 225.524886 140.969226 
L 230.591209 140.446206 
L 235.657531 139.920678 
L 240.723853 139.392651 
L 245.790176 138.862133 
L 250.856498 138.329131 
L 255.92282 137.793652 
L 260.989143 137.255699 
L 266.055465 136.71528 
L 271.121787 136.172398 
L 276.18811 135.627057 
L 281.254432 135.079262 
L 286.320754 134.529017 
L 291.387076 133.976326 
L 296.453399 133.42119 
L 301.519721 132.863615 
L 306.586043 132.303603 
L 311.652366 131.741157 
L 316.718688 131.17628 
L 321.78501 130.608974 
L 326.851333 130.039244 
L 331.917655 129.467091 
L 336.983977 128.892518 
L 342.0503 128.315528 
L 347.116622 127.736123 
L 352.182944 127.154307 
L 357.249267 126.570081 
L 362.315589 125.983448 
L 367.381911 125.394411 
L 372.448233 124.802973 
L 377.514556 124.209135 
L 382.580878 123.6129 
L 387.6472 123.014271 
L 392.713523 122.413251 
L 397.779845 121.809841 
L 402.846167 121.204045 
L 407.91249 120.595864 
L 412.978812 119.985302 
L 418.045134 119.37236 
L 423.111457 118.757042 
L 428.177779 118.13935 
L 433.244101 117.519286 
L 438.310424 116.896854 
L 443.376746 116.272054 
L 448.443068 115.644891 
L 453.50939 115.015367 
L 458.575713 114.383484 
L 463.642035 113.749245 
L 468.708357 113.112652 
L 473.77468 112.473709 
L 478.841002 111.832417 
L 483.907324 111.18878 
L 488.973647 110.542799 
L 494.039969 109.894479 
L 499.106291 109.243821 
L 504.172614 108.590828 
L 509.238936 107.935503 
L 514.305258 107.277848 
L 519.371581 106.617867 
L 524.437903 105.955562 
L 529.504225 105.290936 
L 534.570548 104.623991 
L 539.63687 103.954731 
L 544.703192 103.283159 
L 549.769514 102.609276 
L 554.835837 101.933086 
L 559.902159 101.254592 
L 564.968481 100.573797 
L 570.034804 99.890703 
L 575.101126 99.205313 
L 580.167448 98.517631 
L 585.233771 97.82766 
L 590.300093 97.135401 
L 595.366415 96.440859 
L 600.432738 95.744036 
L 605.49906 95.044935 
L 610.565382 94.343559 
L 615.631705 93.639911 
" style="fill:none;stroke:#ff7f0e;stroke-dasharray:9.25,4;stroke-dashoffset:0;stroke-width:2.5;"/>
   </g>
   <g id="line2d_17">
    <path clip-path="url(#p40ac27c382)" d="M 114.065795 152.475795 
L 119.132118 152.637975 
L 124.19844 152.98812 
L 129.264762 153.398852 
L 134.331085 153.830402 
L 139.397407 154.270059 
L 144.463729 154.712838 
L 149.530052 155.156434 
L 154.596374 155.599646 
L 159.662696 156.041788 
L 164.729019 156.482443 
L 169.795341 156.921342 
L 174.861663 157.358302 
L 179.927986 157.793197 
L 184.994308 158.225937 
L 190.06063 158.656454 
L 195.126952 159.084696 
L 200.193275 159.510626 
L 205.259597 159.934213 
L 210.325919 160.355432 
L 215.392242 160.774264 
L 220.458564 161.190692 
L 225.524886 161.604705 
L 230.591209 162.016289 
L 235.657531 162.425438 
L 240.723853 162.832141 
L 245.790176 163.236394 
L 250.856498 163.63819 
L 255.92282 164.037525 
L 260.989143 164.434393 
L 266.055465 164.828791 
L 271.121787 165.220716 
L 276.18811 165.610165 
L 281.254432 165.997136 
L 286.320754 166.381625 
L 291.387076 166.763631 
L 296.453399 167.143153 
L 301.519721 167.520187 
L 306.586043 167.894734 
L 311.652366 168.266791 
L 316.718688 168.636358 
L 321.78501 169.003433 
L 326.851333 169.368016 
L 331.917655 169.730105 
L 336.983977 170.0897 
L 342.0503 170.446801 
L 347.116622 170.801406 
L 352.182944 171.153515 
L 357.249267 171.503128 
L 362.315589 171.850244 
L 367.381911 172.194863 
L 372.448233 172.536985 
L 377.514556 172.876609 
L 382.580878 173.213736 
L 387.6472 173.548365 
L 392.713523 173.880496 
L 397.779845 174.210129 
L 402.846167 174.537265 
L 407.91249 174.861903 
L 412.978812 175.184043 
L 418.045134 175.503686 
L 423.111457 175.820832 
L 428.177779 176.13548 
L 433.244101 176.447632 
L 438.310424 176.757288 
L 443.376746 177.064447 
L 448.443068 177.36911 
L 453.50939 177.671279 
L 458.575713 177.970952 
L 463.642035 178.268131 
L 468.708357 178.562815 
L 473.77468 178.855007 
L 478.841002 179.144705 
L 483.907324 179.431911 
L 488.973647 179.716626 
L 494.039969 179.99885 
L 499.106291 180.278583 
L 504.172614 180.555826 
L 509.238936 180.830581 
L 514.305258 181.102848 
L 519.371581 181.372627 
L 524.437903 181.63992 
L 529.504225 181.904727 
L 534.570548 182.16705 
L 539.63687 182.426889 
L 544.703192 182.684244 
L 549.769514 182.939118 
L 554.835837 183.191511 
L 559.902159 183.441425 
L 564.968481 183.688859 
L 570.034804 183.933816 
L 575.101126 184.176295 
L 580.167448 184.4163 
L 585.233771 184.65383 
L 590.300093 184.888887 
L 595.366415 185.121472 
L 600.432738 185.351586 
L 605.49906 185.579231 
L 610.565382 185.804408 
L 615.631705 186.027118 
" style="fill:none;stroke:#ff7f0e;stroke-dasharray:9.25,4;stroke-dashoffset:0;stroke-width:2.5;"/>
   </g>
   <g id="line2d_18">
    <path clip-path="url(#p40ac27c382)" d="M 114.065795 195.69184 
L 119.132118 195.527039 
L 124.19844 195.169068 
L 129.264762 194.745328 
L 134.331085 194.295588 
L 139.397407 193.83256 
L 144.463729 193.36123 
L 149.530052 192.883901 
L 154.596374 192.401777 
L 159.662696 191.915542 
L 164.729019 191.425615 
L 169.795341 190.932267 
L 174.861663 190.435679 
L 179.927986 189.935979 
L 184.994308 189.433259 
L 190.06063 188.927586 
L 195.126952 188.419014 
L 200.193275 187.907581 
L 205.259597 187.39332 
L 210.325919 186.876255 
L 215.392242 186.356408 
L 220.458564 185.833796 
L 225.524886 185.308433 
L 230.591209 184.780332 
L 235.657531 184.249503 
L 240.723853 183.715955 
L 245.790176 183.179697 
L 250.856498 182.640736 
L 255.92282 182.099079 
L 260.989143 181.55473 
L 266.055465 181.007697 
L 271.121787 180.457984 
L 276.18811 179.905596 
L 281.254432 179.350537 
L 286.320754 178.792811 
L 291.387076 178.232423 
L 296.453399 177.669377 
L 301.519721 177.103675 
L 306.586043 176.535323 
L 311.652366 175.964322 
L 316.718688 175.390677 
L 321.78501 174.814391 
L 326.851333 174.235467 
L 331.917655 173.653909 
L 336.983977 173.069719 
L 342.0503 172.482901 
L 347.116622 171.893458 
L 352.182944 171.301393 
L 357.249267 170.706708 
L 362.315589 170.109408 
L 367.381911 169.509495 
L 372.448233 168.906972 
L 377.514556 168.301843 
L 382.580878 167.69411 
L 387.6472 167.083776 
L 392.713523 166.470844 
L 397.779845 165.855318 
L 402.846167 165.2372 
L 407.91249 164.616494 
L 412.978812 163.993202 
L 418.045134 163.367329 
L 423.111457 162.738875 
L 428.177779 162.107846 
L 433.244101 161.474244 
L 438.310424 160.838072 
L 443.376746 160.199333 
L 448.443068 159.55803 
L 453.50939 158.914167 
L 458.575713 158.267747 
L 463.642035 157.618773 
L 468.708357 156.967248 
L 473.77468 156.313176 
L 478.841002 155.656559 
L 483.907324 154.997402 
L 488.973647 154.335707 
L 494.039969 153.671477 
L 499.106291 153.004716 
L 504.172614 152.335428 
L 509.238936 151.663615 
L 514.305258 150.989281 
L 519.371581 150.312429 
L 524.437903 149.633064 
L 529.504225 148.951187 
L 534.570548 148.266804 
L 539.63687 147.579916 
L 544.703192 146.890529 
L 549.769514 146.198644 
L 554.835837 145.504266 
L 559.902159 144.807399 
L 564.968481 144.108045 
L 570.034804 143.406209 
L 575.101126 142.701893 
L 580.167448 141.995103 
L 585.233771 141.28584 
L 590.300093 140.57411 
L 595.366415 139.859915 
L 600.432738 139.143259 
L 605.49906 138.424147 
L 610.565382 137.702581 
L 615.631705 136.978565 
" style="fill:none;stroke:#2ca02c;stroke-dasharray:16,4,2.5,4;stroke-dashoffset:0;stroke-width:2.5;"/>
   </g>
   <g id="line2d_19">
    <path clip-path="url(#p40ac27c382)" d="M 114.065795 196.87046 
L 119.132118 197.032556 
L 124.19844 197.382412 
L 129.264762 197.792627 
L 134.331085 198.223433 
L 139.397407 198.662117 
L 144.463729 199.103695 
L 149.530052 199.545862 
L 154.596374 199.987416 
L 159.662696 200.427673 
L 164.729019 200.866214 
L 169.795341 201.30277 
L 174.861663 201.737159 
L 179.927986 202.169255 
L 184.994308 202.598966 
L 190.06063 203.026225 
L 195.126952 203.450982 
L 200.193275 203.873196 
L 205.259597 204.292837 
L 210.325919 204.709882 
L 215.392242 205.12431 
L 220.458564 205.536105 
L 225.524886 205.945255 
L 230.591209 206.351747 
L 235.657531 206.755574 
L 240.723853 207.156726 
L 245.790176 207.555197 
L 250.856498 207.950982 
L 255.92282 208.344076 
L 260.989143 208.734473 
L 266.055465 209.122171 
L 271.121787 209.507166 
L 276.18811 209.889455 
L 281.254432 210.269036 
L 286.320754 210.645906 
L 291.387076 211.020063 
L 296.453399 211.391505 
L 301.519721 211.760232 
L 306.586043 212.12624 
L 311.652366 212.48953 
L 316.718688 212.850101 
L 321.78501 213.20795 
L 326.851333 213.563077 
L 331.917655 213.915482 
L 336.983977 214.265164 
L 342.0503 214.612122 
L 347.116622 214.956356 
L 352.182944 215.297865 
L 357.249267 215.63665 
L 362.315589 215.97271 
L 367.381911 216.306044 
L 372.448233 216.636653 
L 377.514556 216.964536 
L 382.580878 217.289694 
L 387.6472 217.612127 
L 392.713523 217.931835 
L 397.779845 218.248818 
L 402.846167 218.563076 
L 407.91249 218.874609 
L 412.978812 219.183419 
L 418.045134 219.489504 
L 423.111457 219.792867 
L 428.177779 220.093506 
L 433.244101 220.391423 
L 438.310424 220.686619 
L 443.376746 220.979093 
L 448.443068 221.268847 
L 453.50939 221.555881 
L 458.575713 221.840195 
L 463.642035 222.121792 
L 468.708357 222.400671 
L 473.77468 222.676833 
L 478.841002 222.950279 
L 483.907324 223.221011 
L 488.973647 223.489028 
L 494.039969 223.754333 
L 499.106291 224.016926 
L 504.172614 224.276807 
L 509.238936 224.53398 
L 514.305258 224.788443 
L 519.371581 225.040199 
L 524.437903 225.289249 
L 529.504225 225.535594 
L 534.570548 225.779236 
L 539.63687 226.020175 
L 544.703192 226.258413 
L 549.769514 226.493952 
L 554.835837 226.726793 
L 559.902159 226.956937 
L 564.968481 227.184386 
L 570.034804 227.409141 
L 575.101126 227.631204 
L 580.167448 227.850577 
L 585.233771 228.067262 
L 590.300093 228.281259 
L 595.366415 228.492571 
L 600.432738 228.701199 
L 605.49906 228.907145 
L 610.565382 229.110412 
L 615.631705 229.311 
" style="fill:none;stroke:#2ca02c;stroke-dasharray:16,4,2.5,4;stroke-dashoffset:0;stroke-width:2.5;"/>
   </g>
   <g id="line2d_20">
    <path clip-path="url(#p40ac27c382)" d="M 114.065795 102.722028 
L 119.132118 103.138136 
L 124.19844 103.551762 
L 129.264762 103.962886 
L 134.331085 104.371485 
L 139.397407 104.777533 
L 144.463729 105.180997 
L 149.530052 105.581842 
L 154.596374 105.980023 
L 159.662696 106.375487 
L 164.729019 106.768169 
L 169.795341 107.157991 
L 174.861663 107.544855 
L 179.927986 107.928638 
L 184.994308 108.309184 
L 190.06063 108.686293 
L 195.126952 109.059701 
L 200.193275 109.429058 
L 205.259597 109.793884 
L 210.325919 110.15351 
L 215.392242 110.506973 
L 220.458564 110.852847 
L 225.524886 111.188931 
L 230.591209 111.511687 
L 235.657531 111.815153 
L 240.723853 112.088792 
L 245.790176 112.313385 
L 250.856498 112.454889 
L 255.92282 112.464087 
L 260.989143 112.304138 
L 266.055465 111.98986 
L 271.121787 111.570291 
L 276.18811 111.087787 
L 281.254432 110.567834 
L 286.320754 110.024429 
L 291.387076 109.465344 
L 296.453399 108.89509 
L 301.519721 108.316409 
L 306.586043 107.731048 
L 311.652366 107.140167 
L 316.718688 106.544558 
L 321.78501 105.944785 
L 326.851333 105.341257 
L 331.917655 104.734276 
L 336.983977 104.124072 
L 342.0503 103.510825 
L 347.116622 102.894673 
L 352.182944 102.275728 
L 357.249267 101.654079 
L 362.315589 101.0298 
L 367.381911 100.402952 
L 372.448233 99.773584 
L 377.514556 99.14174 
L 382.580878 98.507456 
L 387.6472 97.870763 
L 392.713523 97.231689 
L 397.779845 96.590256 
L 402.846167 95.946485 
L 407.91249 95.300394 
L 412.978812 94.652001 
L 418.045134 94.001318 
L 423.111457 93.34836 
L 428.177779 92.693138 
L 433.244101 92.035663 
L 438.310424 91.375946 
L 443.376746 90.713994 
L 448.443068 90.049818 
L 453.50939 89.383424 
L 458.575713 88.71482 
L 463.642035 88.044014 
L 468.708357 87.371011 
L 473.77468 86.695818 
L 478.841002 86.018441 
L 483.907324 85.338885 
L 488.973647 84.657156 
L 494.039969 83.973259 
L 499.106291 83.2872 
L 504.172614 82.598982 
L 509.238936 81.908612 
L 514.305258 81.216092 
L 519.371581 80.521428 
L 524.437903 79.824624 
L 529.504225 79.125684 
L 534.570548 78.424613 
L 539.63687 77.721414 
L 544.703192 77.016091 
L 549.769514 76.308649 
L 554.835837 75.59909 
L 559.902159 74.88742 
L 564.968481 74.173642 
L 570.034804 73.457759 
L 575.101126 72.739775 
L 580.167448 72.019694 
L 585.233771 71.297519 
L 590.300093 70.573255 
L 595.366415 69.846903 
L 600.432738 69.118469 
L 605.49906 68.387956 
L 610.565382 67.655366 
L 615.631705 66.920704 
" style="fill:none;stroke:#d62728;stroke-dasharray:2.5,4.125;stroke-dashoffset:0;stroke-width:2.5;"/>
   </g>
   <g id="line2d_21">
    <path clip-path="url(#p40ac27c382)" d="M 114.065795 129.328417 
L 119.132118 129.844179 
L 124.19844 130.357768 
L 129.264762 130.869171 
L 134.331085 131.378372 
L 139.397407 131.885362 
L 144.463729 132.39013 
L 149.530052 132.892666 
L 154.596374 133.392962 
L 159.662696 133.89101 
L 164.729019 134.386802 
L 169.795341 134.880333 
L 174.861663 135.371595 
L 179.927986 135.860585 
L 184.994308 136.347295 
L 190.06063 136.831722 
L 195.126952 137.313861 
L 200.193275 137.793707 
L 205.259597 138.271257 
L 210.325919 138.746507 
L 215.392242 139.219453 
L 220.458564 139.690092 
L 225.524886 140.158421 
L 230.591209 140.624436 
L 235.657531 141.088135 
L 240.723853 141.549515 
L 245.790176 142.008574 
L 250.856498 142.465308 
L 255.92282 142.919715 
L 260.989143 143.371794 
L 266.055465 143.821541 
L 271.121787 144.268955 
L 276.18811 144.714034 
L 281.254432 145.156775 
L 286.320754 145.597177 
L 291.387076 146.035238 
L 296.453399 146.470955 
L 301.519721 146.904328 
L 306.586043 147.335355 
L 311.652366 147.764034 
L 316.718688 148.190363 
L 321.78501 148.614341 
L 326.851333 149.035966 
L 331.917655 149.455237 
L 336.983977 149.872153 
L 342.0503 150.286712 
L 347.116622 150.698914 
L 352.182944 151.108756 
L 357.249267 151.516237 
L 362.315589 151.921357 
L 367.381911 152.324113 
L 372.448233 152.724506 
L 377.514556 153.122534 
L 382.580878 153.518196 
L 387.6472 153.911491 
L 392.713523 154.302418 
L 397.779845 154.690975 
L 402.846167 155.077163 
L 407.91249 155.46098 
L 412.978812 155.842426 
L 418.045134 156.221498 
L 423.111457 156.598198 
L 428.177779 156.972524 
L 433.244101 157.344475 
L 438.310424 157.71405 
L 443.376746 158.08125 
L 448.443068 158.446073 
L 453.50939 158.808518 
L 458.575713 159.168585 
L 463.642035 159.526274 
L 468.708357 159.881584 
L 473.77468 160.234514 
L 478.841002 160.585064 
L 483.907324 160.933234 
L 488.973647 161.279023 
L 494.039969 161.62243 
L 499.106291 161.963456 
L 504.172614 162.302099 
L 509.238936 162.638361 
L 514.305258 162.972239 
L 519.371581 163.303735 
L 524.437903 163.632847 
L 529.504225 163.959576 
L 534.570548 164.283921 
L 539.63687 164.605883 
L 544.703192 164.92546 
L 549.769514 165.242654 
L 554.835837 165.557463 
L 559.902159 165.869889 
L 564.968481 166.179929 
L 570.034804 166.487586 
L 575.101126 166.792858 
L 580.167448 167.095747 
L 585.233771 167.396251 
L 590.300093 167.69437 
L 595.366415 167.990106 
L 600.432738 168.283458 
L 605.49906 168.574427 
L 610.565382 168.863011 
L 615.631705 169.149213 
" style="fill:none;stroke:#d62728;stroke-dasharray:2.5,4.125;stroke-dashoffset:0;stroke-width:2.5;"/>
   </g>
   <g id="line2d_22">
    <path clip-path="url(#p40ac27c382)" d="M 114.065795 102.722028 
L 119.132118 102.303454 
L 124.19844 101.882429 
L 129.264762 101.458967 
L 134.331085 101.033078 
L 139.397407 100.604774 
L 144.463729 100.174062 
L 149.530052 99.740951 
L 154.596374 99.305449 
L 159.662696 98.867561 
L 164.729019 98.427293 
L 169.795341 97.984651 
L 174.861663 97.53964 
L 179.927986 97.092264 
L 184.994308 96.642528 
L 190.06063 96.190434 
L 195.126952 95.735987 
L 200.193275 95.279189 
L 205.259597 94.820044 
L 210.325919 94.358555 
L 215.392242 93.894724 
L 220.458564 93.428554 
L 225.524886 92.960046 
L 230.591209 92.489204 
L 235.657531 92.01603 
L 240.723853 91.540525 
L 245.790176 91.062691 
L 250.856498 90.582531 
L 255.92282 90.100045 
L 260.989143 89.615237 
L 266.055465 89.128107 
L 271.121787 88.638658 
L 276.18811 88.14689 
L 281.254432 87.652806 
L 286.320754 87.156407 
L 291.387076 86.657695 
L 296.453399 86.15667 
L 301.519721 85.653335 
L 306.586043 85.147691 
L 311.652366 84.639739 
L 316.718688 84.129481 
L 321.78501 83.616919 
L 326.851333 83.102053 
L 331.917655 82.584885 
L 336.983977 82.065416 
L 342.0503 81.543648 
L 347.116622 81.019582 
L 352.182944 80.49322 
L 357.249267 79.964563 
L 362.315589 79.433612 
L 367.381911 78.900369 
L 372.448233 78.364835 
L 377.514556 77.827012 
L 382.580878 77.286901 
L 387.6472 76.744503 
L 392.713523 76.199819 
L 397.779845 75.652852 
L 402.846167 75.103603 
L 407.91249 74.552072 
L 412.978812 73.998262 
L 418.045134 73.442174 
L 423.111457 72.88381 
L 428.177779 72.32317 
L 433.244101 71.760257 
L 438.310424 71.195072 
L 443.376746 70.627616 
L 448.443068 70.057891 
L 453.50939 69.485898 
L 458.575713 68.91164 
L 463.642035 68.335117 
L 468.708357 67.756331 
L 473.77468 67.175284 
L 478.841002 66.591978 
L 483.907324 66.006413 
L 488.973647 65.418592 
L 494.039969 64.828516 
L 499.106291 64.236187 
L 504.172614 63.641606 
L 509.238936 63.044776 
L 514.305258 62.445698 
L 519.371581 61.844373 
L 524.437903 61.240804 
L 529.504225 60.634992 
L 534.570548 60.026938 
L 539.63687 59.416645 
L 544.703192 58.804115 
L 549.769514 58.189349 
L 554.835837 57.572348 
L 559.902159 56.953116 
L 564.968481 56.331653 
L 570.034804 55.707962 
L 575.101126 55.082044 
L 580.167448 54.453901 
L 585.233771 53.823536 
L 590.300093 53.190949 
L 595.366415 52.556144 
L 600.432738 51.919122 
L 605.49906 51.279884 
L 610.565382 50.638433 
L 615.631705 49.994772 
" style="fill:none;stroke:#d62728;stroke-dasharray:2.5,4.125;stroke-dashoffset:0;stroke-width:2.5;"/>
   </g>
   <g id="line2d_23">
    <path clip-path="url(#p40ac27c382)" d="M 114.065795 102.722028 
L 119.132118 103.225096 
L 124.19844 103.72568 
L 129.264762 104.22376 
L 134.331085 104.719312 
L 139.397407 105.212307 
L 144.463729 105.702714 
L 149.530052 106.190494 
L 154.596374 106.675601 
L 159.662696 107.157983 
L 164.729019 107.637572 
L 169.795341 108.114289 
L 174.861663 108.588035 
L 179.927986 109.058686 
L 184.994308 109.526085 
L 190.06063 109.990031 
L 195.126952 110.450259 
L 200.193275 110.906416 
L 205.259597 111.358022 
L 210.325919 111.804408 
L 215.392242 112.244609 
L 220.458564 112.677196 
L 225.524886 113.09997 
L 230.591209 113.50939 
L 235.657531 113.899493 
L 240.723853 114.259741 
L 245.790176 114.570914 
L 250.856498 114.798967 
L 255.92282 114.894683 
L 260.989143 114.82122 
L 266.055465 114.593394 
L 271.121787 114.260242 
L 276.18811 113.864118 
L 281.254432 113.430509 
L 286.320754 112.973409 
L 291.387076 112.50059 
L 296.453399 112.016561 
L 301.519721 111.524064 
L 306.586043 111.024844 
L 311.652366 110.520058 
L 316.718688 110.010501 
L 321.78501 109.496734 
L 326.851333 108.979163 
L 331.917655 108.458091 
L 336.983977 107.933747 
L 342.0503 107.406309 
L 347.116622 106.875913 
L 352.182944 106.342672 
L 357.249267 105.806673 
L 362.315589 105.267988 
L 367.381911 104.726678 
L 372.448233 104.182791 
L 377.514556 103.636369 
L 382.580878 103.087447 
L 387.6472 102.536056 
L 392.713523 101.982221 
L 397.779845 101.425965 
L 402.846167 100.867307 
L 407.91249 100.306264 
L 412.978812 99.742851 
L 418.045134 99.177083 
L 423.111457 98.608971 
L 428.177779 98.038525 
L 433.244101 97.465756 
L 438.310424 96.890673 
L 443.376746 96.313283 
L 448.443068 95.733594 
L 453.50939 95.151613 
L 458.575713 94.567346 
L 463.642035 93.9808 
L 468.708357 93.391979 
L 473.77468 92.80089 
L 478.841002 92.207536 
L 483.907324 91.611922 
L 488.973647 91.014054 
L 494.039969 90.413934 
L 499.106291 89.811568 
L 504.172614 89.206958 
L 509.238936 88.600108 
L 514.305258 87.991023 
L 519.371581 87.379705 
L 524.437903 86.766158 
L 529.504225 86.150384 
L 534.570548 85.532388 
L 539.63687 84.912172 
L 544.703192 84.28974 
L 549.769514 83.665093 
L 554.835837 83.038235 
L 559.902159 82.409169 
L 564.968481 81.777898 
L 570.034804 81.144424 
L 575.101126 80.50875 
L 580.167448 79.870879 
L 585.233771 79.230813 
L 590.300093 78.588555 
L 595.366415 77.944108 
L 600.432738 77.297473 
L 605.49906 76.648655 
L 610.565382 75.997655 
L 615.631705 75.344476 
" style="fill:none;stroke:#d62728;stroke-dasharray:2.5,4.125;stroke-dashoffset:0;stroke-width:2.5;"/>
   </g>
   <g id="line2d_24">
    <path clip-path="url(#p40ac27c382)" d="M 114.065795 102.722028 
L 119.132118 102.216494 
L 124.19844 101.708511 
L 129.264762 101.198093 
L 134.331085 100.685252 
L 139.397407 100.169999 
L 144.463729 99.652345 
L 149.530052 99.1323 
L 154.596374 98.60987 
L 159.662696 98.085065 
L 164.729019 97.55789 
L 169.795341 97.028353 
L 174.861663 96.49646 
L 179.927986 95.962216 
L 184.994308 95.425626 
L 190.06063 94.886696 
L 195.126952 94.345429 
L 200.193275 93.801831 
L 205.259597 93.255906 
L 210.325919 92.707657 
L 215.392242 92.157089 
L 220.458564 91.604204 
L 225.524886 91.049007 
L 230.591209 90.491501 
L 235.657531 89.93169 
L 240.723853 89.369576 
L 245.790176 88.805162 
L 250.856498 88.238452 
L 255.92282 87.669449 
L 260.989143 87.098155 
L 266.055465 86.524574 
L 271.121787 85.948707 
L 276.18811 85.370559 
L 281.254432 84.790131 
L 286.320754 84.207427 
L 291.387076 83.622449 
L 296.453399 83.035199 
L 301.519721 82.44568 
L 306.586043 81.853896 
L 311.652366 81.259848 
L 316.718688 80.663538 
L 321.78501 80.06497 
L 326.851333 79.464147 
L 331.917655 78.861069 
L 336.983977 78.255741 
L 342.0503 77.648165 
L 347.116622 77.038342 
L 352.182944 76.426276 
L 357.249267 75.81197 
L 362.315589 75.195424 
L 367.381911 74.576643 
L 372.448233 73.955629 
L 377.514556 73.332383 
L 382.580878 72.70691 
L 387.6472 72.07921 
L 392.713523 71.449287 
L 397.779845 70.817143 
L 402.846167 70.182781 
L 407.91249 69.546203 
L 412.978812 68.907411 
L 418.045134 68.266409 
L 423.111457 67.623199 
L 428.177779 66.977783 
L 433.244101 66.330164 
L 438.310424 65.680345 
L 443.376746 65.028327 
L 448.443068 64.374115 
L 453.50939 63.717709 
L 458.575713 63.059114 
L 463.642035 62.39833 
L 468.708357 61.735362 
L 473.77468 61.070212 
L 478.841002 60.402882 
L 483.907324 59.733375 
L 488.973647 59.061694 
L 494.039969 58.387841 
L 499.106291 57.711819 
L 504.172614 57.033631 
L 509.238936 56.353279 
L 514.305258 55.670767 
L 519.371581 54.986096 
L 524.437903 54.29927 
L 529.504225 53.610291 
L 534.570548 52.919162 
L 539.63687 52.225887 
L 544.703192 51.530466 
L 549.769514 50.832904 
L 554.835837 50.133204 
L 559.902159 49.431367 
L 564.968481 48.727397 
L 570.034804 48.021297 
L 575.101126 47.313069 
L 580.167448 46.602717 
L 585.233771 45.890242 
L 590.300093 45.175649 
L 595.366415 44.45894 
L 600.432738 43.740117 
L 605.49906 43.019185 
L 610.565382 42.296145 
L 615.631705 41.571 
" style="fill:none;stroke:#d62728;stroke-dasharray:2.5,4.125;stroke-dashoffset:0;stroke-width:2.5;"/>
   </g>
   <g id="line2d_25">
    <path clip-path="url(#p40ac27c382)" d="M 114.065795 129.328417 
L 119.132118 128.810498 
L 124.19844 128.290442 
L 129.264762 127.768269 
L 134.331085 127.244005 
L 139.397407 126.717677 
L 144.463729 126.189318 
L 149.530052 125.658967 
L 154.596374 125.12667 
L 159.662696 124.592483 
L 164.729019 124.056471 
L 169.795341 123.518716 
L 174.861663 122.979316 
L 179.927986 122.438398 
L 184.994308 121.896118 
L 190.06063 121.352679 
L 195.126952 120.808348 
L 200.193275 120.263476 
L 205.259597 119.718545 
L 210.325919 119.174227 
L 215.392242 118.631487 
L 220.458564 118.091753 
L 225.524886 117.55723 
L 230.591209 117.031456 
L 235.657531 116.520396 
L 240.723853 116.03459 
L 245.790176 115.59326 
L 250.856498 115.23045 
L 255.92282 114.995381 
L 260.989143 114.924895 
L 266.055465 115.004178 
L 271.121787 115.184194 
L 276.18811 115.42259 
L 281.254432 115.693882 
L 286.320754 115.984077 
L 291.387076 116.285404 
L 296.453399 116.593357 
L 301.519721 116.905195 
L 306.586043 117.219174 
L 311.652366 117.534139 
L 316.718688 117.849298 
L 321.78501 118.164092 
L 326.851333 118.478114 
L 331.917655 118.791066 
L 336.983977 119.102719 
L 342.0503 119.412899 
L 347.116622 119.721469 
L 352.182944 120.028321 
L 357.249267 120.333369 
L 362.315589 120.636542 
L 367.381911 120.937784 
L 372.448233 121.237046 
L 377.514556 121.53429 
L 382.580878 121.829482 
L 387.6472 122.122596 
L 392.713523 122.413606 
L 397.779845 122.702494 
L 402.846167 122.989242 
L 407.91249 123.273835 
L 412.978812 123.556261 
L 418.045134 123.836508 
L 423.111457 124.114568 
L 428.177779 124.390432 
L 433.244101 124.664092 
L 438.310424 124.935543 
L 443.376746 125.204779 
L 448.443068 125.471795 
L 453.50939 125.736588 
L 458.575713 125.999153 
L 463.642035 126.259487 
L 468.708357 126.517589 
L 473.77468 126.773454 
L 478.841002 127.027082 
L 483.907324 127.278471 
L 488.973647 127.52762 
L 494.039969 127.774526 
L 499.106291 128.01919 
L 504.172614 128.26161 
L 509.238936 128.501787 
L 514.305258 128.739719 
L 519.371581 128.975406 
L 524.437903 129.208848 
L 529.504225 129.440046 
L 534.570548 129.668998 
L 539.63687 129.895707 
L 544.703192 130.120171 
L 549.769514 130.342392 
L 554.835837 130.562369 
L 559.902159 130.780104 
L 564.968481 130.995597 
L 570.034804 131.208849 
L 575.101126 131.419861 
L 580.167448 131.628633 
L 585.233771 131.835167 
L 590.300093 132.039463 
L 595.366415 132.241523 
L 600.432738 132.441347 
L 605.49906 132.638938 
L 610.565382 132.834295 
L 615.631705 133.02742 
" style="fill:none;stroke:#d62728;stroke-dasharray:2.5,4.125;stroke-dashoffset:0;stroke-width:2.5;"/>
   </g>
   <g id="line2d_26">
    <path clip-path="url(#p40ac27c382)" d="M 114.065795 129.328417 
L 119.132118 129.75722 
L 124.19844 130.18385 
L 129.264762 130.608296 
L 134.331085 131.030546 
L 139.397407 131.450588 
L 144.463729 131.868414 
L 149.530052 132.284015 
L 154.596374 132.697384 
L 159.662696 133.108514 
L 164.729019 133.517399 
L 169.795341 133.924035 
L 174.861663 134.328415 
L 179.927986 134.730536 
L 184.994308 135.130393 
L 190.06063 135.527984 
L 195.126952 135.923303 
L 200.193275 136.316349 
L 205.259597 136.707119 
L 210.325919 137.095609 
L 215.392242 137.481818 
L 220.458564 137.865743 
L 225.524886 138.247382 
L 230.591209 138.626733 
L 235.657531 139.003795 
L 240.723853 139.378566 
L 245.790176 139.751045 
L 250.856498 140.121229 
L 255.92282 140.489119 
L 260.989143 140.854712 
L 266.055465 141.218008 
L 271.121787 141.579005 
L 276.18811 141.937702 
L 281.254432 142.2941 
L 286.320754 142.648197 
L 291.387076 142.999992 
L 296.453399 143.349484 
L 301.519721 143.696674 
L 306.586043 144.04156 
L 311.652366 144.384142 
L 316.718688 144.724419 
L 321.78501 145.062392 
L 326.851333 145.39806 
L 331.917655 145.731422 
L 336.983977 146.062479 
L 342.0503 146.391229 
L 347.116622 146.717674 
L 352.182944 147.041812 
L 357.249267 147.363643 
L 362.315589 147.683169 
L 367.381911 148.000387 
L 372.448233 148.3153 
L 377.514556 148.627906 
L 382.580878 148.938205 
L 387.6472 149.246198 
L 392.713523 149.551885 
L 397.779845 149.855266 
L 402.846167 150.156341 
L 407.91249 150.455111 
L 412.978812 150.751575 
L 418.045134 151.045734 
L 423.111457 151.337588 
L 428.177779 151.627137 
L 433.244101 151.914382 
L 438.310424 152.199324 
L 443.376746 152.481962 
L 448.443068 152.762297 
L 453.50939 153.040329 
L 458.575713 153.316059 
L 463.642035 153.589488 
L 468.708357 153.860615 
L 473.77468 154.129442 
L 478.841002 154.395969 
L 483.907324 154.660196 
L 488.973647 154.922125 
L 494.039969 155.181755 
L 499.106291 155.439088 
L 504.172614 155.694124 
L 509.238936 155.946864 
L 514.305258 156.197308 
L 519.371581 156.445458 
L 524.437903 156.691313 
L 529.504225 156.934876 
L 534.570548 157.176146 
L 539.63687 157.415124 
L 544.703192 157.651812 
L 549.769514 157.88621 
L 554.835837 158.118319 
L 559.902159 158.34814 
L 564.968481 158.575674 
L 570.034804 158.800921 
L 575.101126 159.023884 
L 580.167448 159.244562 
L 585.233771 159.462957 
L 590.300093 159.67907 
L 595.366415 159.892902 
L 600.432738 160.104454 
L 605.49906 160.313727 
L 610.565382 160.520723 
L 615.631705 160.725441 
" style="fill:none;stroke:#d62728;stroke-dasharray:2.5,4.125;stroke-dashoffset:0;stroke-width:2.5;"/>
   </g>
   <g id="line2d_27">
    <path clip-path="url(#p40ac27c382)" d="M 114.065795 129.328417 
L 119.132118 128.897458 
L 124.19844 128.46436 
L 129.264762 128.029144 
L 134.331085 127.591832 
L 139.397407 127.152451 
L 144.463729 126.711034 
L 149.530052 126.267619 
L 154.596374 125.822249 
L 159.662696 125.374979 
L 164.729019 124.925874 
L 169.795341 124.475014 
L 174.861663 124.022497 
L 179.927986 123.568446 
L 184.994308 123.11302 
L 190.06063 122.656418 
L 195.126952 122.198905 
L 200.193275 121.740834 
L 205.259597 121.282684 
L 210.325919 120.825125 
L 215.392242 120.369122 
L 220.458564 119.916103 
L 225.524886 119.468269 
L 230.591209 119.029158 
L 235.657531 118.604736 
L 240.723853 118.205539 
L 245.790176 117.850788 
L 250.856498 117.574528 
L 255.92282 117.425977 
L 260.989143 117.441977 
L 266.055465 117.607711 
L 271.121787 117.874144 
L 276.18811 118.198921 
L 281.254432 118.556557 
L 286.320754 118.933058 
L 291.387076 119.32065 
L 296.453399 119.714828 
L 301.519721 120.11285 
L 306.586043 120.51297 
L 311.652366 120.914031 
L 316.718688 121.315241 
L 321.78501 121.71604 
L 326.851333 122.11602 
L 331.917655 122.514881 
L 336.983977 122.912393 
L 342.0503 123.308382 
L 347.116622 123.702709 
L 352.182944 124.095265 
L 357.249267 124.485962 
L 362.315589 124.87473 
L 367.381911 125.26151 
L 372.448233 125.646253 
L 377.514556 126.028919 
L 382.580878 126.409473 
L 387.6472 126.787888 
L 392.713523 127.164138 
L 397.779845 127.538203 
L 402.846167 127.910064 
L 407.91249 128.279704 
L 412.978812 128.647112 
L 418.045134 129.012273 
L 423.111457 129.375179 
L 428.177779 129.735819 
L 433.244101 130.094185 
L 438.310424 130.45027 
L 443.376746 130.804067 
L 448.443068 131.155571 
L 453.50939 131.504777 
L 458.575713 131.851679 
L 463.642035 132.196274 
L 468.708357 132.538557 
L 473.77468 132.878526 
L 478.841002 133.216178 
L 483.907324 133.551509 
L 488.973647 133.884517 
L 494.039969 134.215201 
L 499.106291 134.543558 
L 504.172614 134.869586 
L 509.238936 135.193284 
L 514.305258 135.51465 
L 519.371581 135.833683 
L 524.437903 136.150382 
L 529.504225 136.464746 
L 534.570548 136.776774 
L 539.63687 137.086466 
L 544.703192 137.39382 
L 549.769514 137.698836 
L 554.835837 138.001514 
L 559.902159 138.301853 
L 564.968481 138.599853 
L 570.034804 138.895514 
L 575.101126 139.188836 
L 580.167448 139.479818 
L 585.233771 139.76846 
L 590.300093 140.054763 
L 595.366415 140.338727 
L 600.432738 140.620351 
L 605.49906 140.899637 
L 610.565382 141.176584 
L 615.631705 141.451192 
" style="fill:none;stroke:#d62728;stroke-dasharray:2.5,4.125;stroke-dashoffset:0;stroke-width:2.5;"/>
   </g>
   <g id="line2d_28">
    <path clip-path="url(#p40ac27c382)" d="M 300.51065 132.974863 
L 300.51065 269.2 
" style="fill:none;stroke:#9467bd;stroke-dasharray:7.4,3.2;stroke-dashoffset:0;stroke-width:2;"/>
   </g>
   <g id="line2d_29">
    <path clip-path="url(#p40ac27c382)" d="M 535.352649 148.16093 
L 535.352649 269.2 
" style="fill:none;stroke:#9467bd;stroke-dasharray:7.4,3.2;stroke-dashoffset:0;stroke-width:2;"/>
   </g>
   <g id="line2d_30">
    <path clip-path="url(#p40ac27c382)" d="M 175.811142 122.878054 
L 175.811142 269.2 
" style="fill:none;stroke:#9467bd;stroke-dasharray:7.4,3.2;stroke-dashoffset:0;stroke-width:2;"/>
   </g>
   <g id="line2d_31">
    <path clip-path="url(#p40ac27c382)" d="M 181.837619 123.396936 
L 181.837619 269.2 
" style="fill:none;stroke:#9467bd;stroke-dasharray:7.4,3.2;stroke-dashoffset:0;stroke-width:2;"/>
   </g>
   <g id="line2d_32">
    <path clip-path="url(#p40ac27c382)" d="M 197.682003 109.246508 
L 197.682003 269.2 
" style="fill:none;stroke:#9467bd;stroke-dasharray:7.4,3.2;stroke-dashoffset:0;stroke-width:2;"/>
   </g>
   <g id="line2d_33">
    <path clip-path="url(#p40ac27c382)" d="M 190.132171 109.996556 
L 190.132171 269.2 
" style="fill:none;stroke:#9467bd;stroke-dasharray:7.4,3.2;stroke-dashoffset:0;stroke-width:2;"/>
   </g>
   <g id="patch_3">
    <path d="M 88.9875 238.698 
L 88.9875 32.184 
" style="fill:none;stroke:#000000;stroke-linecap:square;stroke-linejoin:miter;stroke-width:0.8;"/>
   </g>
   <g id="patch_4">
    <path d="M 640.71 238.698 
L 640.71 32.184 
" style="fill:none;stroke:#000000;stroke-linecap:square;stroke-linejoin:miter;stroke-width:0.8;"/>
   </g>
   <g id="patch_5">
    <path d="M 88.9875 238.698 
L 640.71 238.698 
" style="fill:none;stroke:#000000;stroke-linecap:square;stroke-linejoin:miter;stroke-width:0.8;"/>
   </g>
   <g id="patch_6">
    <path d="M 88.9875 32.184 
L 640.71 32.184 
" style="fill:none;stroke:#000000;stroke-linecap:square;stroke-linejoin:miter;stroke-width:0.8;"/>
   </g>
  </g>
 </g>
 <defs>
  <clipPath id="p40ac27c382">
   <rect height="206.514" width="551.7225" x="88.9875" y="32.184"/>
  </clipPath>
 </defs>
</svg>
