<?xml version="1.0" encoding="utf-8" standalone="no"?>
<!DOCTYPE svg PUBLIC "-//W3C//DTD SVG 1.1//EN"
  "http://www.w3.org/Graphics/SVG/1.1/DTD/svg11.dtd">
<!-- Created with matplotlib (http://matplotlib.org/) -->
<svg height="267.3pt" version="1.1" viewBox="0 0 713.7 267.3" width="713.7pt" xmlns="http://www.w3.org/2000/svg" xmlns:xlink="http://www.w3.org/1999/xlink">
 <defs>
  <style type="text/css">
*{stroke-linecap:butt;stroke-linejoin:round;}
  </style>
 </defs>
 <g id="figure_1">
  <g id="patch_1">
   <path d="M 0 267.3 
L 713.7 267.3 
L 713.7 0 
L 0 0 
z
" style="fill:#ffffff;"/>
  </g>
  <g id="axes_1">
   <g id="patch_2">
    <path d="M 89.2125 237.897 
L 642.33 237.897 
L 642.33 32.076 
L 89.2125 32.076 
z
" style="fill:#ffffff;"/>
   </g>
   <g id="PathCollection_1">
    <path clip-path="url(#p70d6d857e3)" d="M 301.270475 137.000775 
C 302.456499 137.000775 303.594107 136.529562 304.432752 135.690916 
C 305.271398 134.852271 305.742611 133.714663 305.742611 132.528639 
C 305.742611 131.342614 305.271398 130.205007 304.432752 129.366361 
C 303.594107 128.527715 302.456499 128.056503 301.270475 128.056503 
C 300.08445 128.056503 298.946843 128.527715 298.108197 129.366361 
C 297.269551 130.205007 296.798339 131.342614 296.798339 132.528639 
C 296.798339 133.714663 297.269551 134.852271 298.108197 135.690916 
C 298.946843 136.529562 300.08445 137.000775 301.270475 137.000775 
z
" style="fill:none;stroke:#9467bd;stroke-width:2;"/>
   </g>
   <g id="matplotlib.axis_1">
    <g id="xtick_1">
     <g id="line2d_1">
      <defs>
       <path d="M 0 0 
L 0 3.5 
" id="me9a910cab8" style="stroke:#000000;stroke-width:0.8;"/>
      </defs>
      <g>
       <use style="stroke:#000000;stroke-width:0.8;" x="114.354205" xlink:href="#me9a910cab8" y="237.897"/>
      </g>
     </g>
     <g id="text_1">
      <!-- 0 -->
      <defs>
       <path d="M 31.78125 66.40625 
Q 24.171875 66.40625 20.328125 58.90625 
Q 16.5 51.421875 16.5 36.375 
Q 16.5 21.390625 20.328125 13.890625 
Q 24.171875 6.390625 31.78125 6.390625 
Q 39.453125 6.390625 43.28125 13.890625 
Q 47.125 21.390625 47.125 36.375 
Q 47.125 51.421875 43.28125 58.90625 
Q 39.453125 66.40625 31.78125 66.40625 
z
M 31.78125 74.21875 
Q 44.046875 74.21875 50.515625 64.515625 
Q 56.984375 54.828125 56.984375 36.375 
Q 56.984375 17.96875 50.515625 8.265625 
Q 44.046875 -1.421875 31.78125 -1.421875 
Q 19.53125 -1.421875 13.0625 8.265625 
Q 6.59375 17.96875 6.59375 36.375 
Q 6.59375 54.828125 13.0625 64.515625 
Q 19.53125 74.21875 31.78125 74.21875 
z
" id="DejaVuSans-30"/>
      </defs>
      <g transform="translate(107.991705 260.093875)scale(0.2 -0.2)">
       <use xlink:href="#DejaVuSans-30"/>
      </g>
     </g>
    </g>
    <g id="xtick_2">
     <g id="line2d_2">
      <g>
       <use style="stroke:#000000;stroke-width:0.8;" x="183.312622" xlink:href="#me9a910cab8" y="237.897"/>
      </g>
     </g>
     <g id="text_2">
      <!-- 20 -->
      <defs>
       <path d="M 19.1875 8.296875 
L 53.609375 8.296875 
L 53.609375 0 
L 7.328125 0 
L 7.328125 8.296875 
Q 12.9375 14.109375 22.625 23.890625 
Q 32.328125 33.6875 34.8125 36.53125 
Q 39.546875 41.84375 41.421875 45.53125 
Q 43.3125 49.21875 43.3125 52.78125 
Q 43.3125 58.59375 39.234375 62.25 
Q 35.15625 65.921875 28.609375 65.921875 
Q 23.96875 65.921875 18.8125 64.3125 
Q 13.671875 62.703125 7.8125 59.421875 
L 7.8125 69.390625 
Q 13.765625 71.78125 18.9375 73 
Q 24.125 74.21875 28.421875 74.21875 
Q 39.75 74.21875 46.484375 68.546875 
Q 53.21875 62.890625 53.21875 53.421875 
Q 53.21875 48.921875 51.53125 44.890625 
Q 49.859375 40.875 45.40625 35.40625 
Q 44.1875 33.984375 37.640625 27.21875 
Q 31.109375 20.453125 19.1875 8.296875 
z
" id="DejaVuSans-32"/>
      </defs>
      <g transform="translate(170.587622 260.093875)scale(0.2 -0.2)">
       <use xlink:href="#DejaVuSans-32"/>
       <use x="63.623047" xlink:href="#DejaVuSans-30"/>
      </g>
     </g>
    </g>
    <g id="xtick_3">
     <g id="line2d_3">
      <g>
       <use style="stroke:#000000;stroke-width:0.8;" x="252.271039" xlink:href="#me9a910cab8" y="237.897"/>
      </g>
     </g>
     <g id="text_3">
      <!-- 40 -->
      <defs>
       <path d="M 37.796875 64.3125 
L 12.890625 25.390625 
L 37.796875 25.390625 
z
M 35.203125 72.90625 
L 47.609375 72.90625 
L 47.609375 25.390625 
L 58.015625 25.390625 
L 58.015625 17.1875 
L 47.609375 17.1875 
L 47.609375 0 
L 37.796875 0 
L 37.796875 17.1875 
L 4.890625 17.1875 
L 4.890625 26.703125 
z
" id="DejaVuSans-34"/>
      </defs>
      <g transform="translate(239.546039 260.093875)scale(0.2 -0.2)">
       <use xlink:href="#DejaVuSans-34"/>
       <use x="63.623047" xlink:href="#DejaVuSans-30"/>
      </g>
     </g>
    </g>
    <g id="xtick_4">
     <g id="line2d_4">
      <g>
       <use style="stroke:#000000;stroke-width:0.8;" x="321.229457" xlink:href="#me9a910cab8" y="237.897"/>
      </g>
     </g>
     <g id="text_4">
      <!-- 60 -->
      <defs>
       <path d="M 33.015625 40.375 
Q 26.375 40.375 22.484375 35.828125 
Q 18.609375 31.296875 18.609375 23.390625 
Q 18.609375 15.53125 22.484375 10.953125 
Q 26.375 6.390625 33.015625 6.390625 
Q 39.65625 6.390625 43.53125 10.953125 
Q 47.40625 15.53125 47.40625 23.390625 
Q 47.40625 31.296875 43.53125 35.828125 
Q 39.65625 40.375 33.015625 40.375 
z
M 52.59375 71.296875 
L 52.59375 62.3125 
Q 48.875 64.0625 45.09375 64.984375 
Q 41.3125 65.921875 37.59375 65.921875 
Q 27.828125 65.921875 22.671875 59.328125 
Q 17.53125 52.734375 16.796875 39.40625 
Q 19.671875 43.65625 24.015625 45.921875 
Q 28.375 48.1875 33.59375 48.1875 
Q 44.578125 48.1875 50.953125 41.515625 
Q 57.328125 34.859375 57.328125 23.390625 
Q 57.328125 12.15625 50.6875 5.359375 
Q 44.046875 -1.421875 33.015625 -1.421875 
Q 20.359375 -1.421875 13.671875 8.265625 
Q 6.984375 17.96875 6.984375 36.375 
Q 6.984375 53.65625 15.1875 63.9375 
Q 23.390625 74.21875 37.203125 74.21875 
Q 40.921875 74.21875 44.703125 73.484375 
Q 48.484375 72.75 52.59375 71.296875 
z
" id="DejaVuSans-36"/>
      </defs>
      <g transform="translate(308.504457 260.093875)scale(0.2 -0.2)">
       <use xlink:href="#DejaVuSans-36"/>
       <use x="63.623047" xlink:href="#DejaVuSans-30"/>
      </g>
     </g>
    </g>
    <g id="xtick_5">
     <g id="line2d_5">
      <g>
       <use style="stroke:#000000;stroke-width:0.8;" x="390.187874" xlink:href="#me9a910cab8" y="237.897"/>
      </g>
     </g>
     <g id="text_5">
      <!-- 80 -->
      <defs>
       <path d="M 31.78125 34.625 
Q 24.75 34.625 20.71875 30.859375 
Q 16.703125 27.09375 16.703125 20.515625 
Q 16.703125 13.921875 20.71875 10.15625 
Q 24.75 6.390625 31.78125 6.390625 
Q 38.8125 6.390625 42.859375 10.171875 
Q 46.921875 13.96875 46.921875 20.515625 
Q 46.921875 27.09375 42.890625 30.859375 
Q 38.875 34.625 31.78125 34.625 
z
M 21.921875 38.8125 
Q 15.578125 40.375 12.03125 44.71875 
Q 8.5 49.078125 8.5 55.328125 
Q 8.5 64.0625 14.71875 69.140625 
Q 20.953125 74.21875 31.78125 74.21875 
Q 42.671875 74.21875 48.875 69.140625 
Q 55.078125 64.0625 55.078125 55.328125 
Q 55.078125 49.078125 51.53125 44.71875 
Q 48 40.375 41.703125 38.8125 
Q 48.828125 37.15625 52.796875 32.3125 
Q 56.78125 27.484375 56.78125 20.515625 
Q 56.78125 9.90625 50.3125 4.234375 
Q 43.84375 -1.421875 31.78125 -1.421875 
Q 19.734375 -1.421875 13.25 4.234375 
Q 6.78125 9.90625 6.78125 20.515625 
Q 6.78125 27.484375 10.78125 32.3125 
Q 14.796875 37.15625 21.921875 38.8125 
z
M 18.3125 54.390625 
Q 18.3125 48.734375 21.84375 45.5625 
Q 25.390625 42.390625 31.78125 42.390625 
Q 38.140625 42.390625 41.71875 45.5625 
Q 45.3125 48.734375 45.3125 54.390625 
Q 45.3125 60.0625 41.71875 63.234375 
Q 38.140625 66.40625 31.78125 66.40625 
Q 25.390625 66.40625 21.84375 63.234375 
Q 18.3125 60.0625 18.3125 54.390625 
z
" id="DejaVuSans-38"/>
      </defs>
      <g transform="translate(377.462874 260.093875)scale(0.2 -0.2)">
       <use xlink:href="#DejaVuSans-38"/>
       <use x="63.623047" xlink:href="#DejaVuSans-30"/>
      </g>
     </g>
    </g>
    <g id="xtick_6">
     <g id="line2d_6">
      <g>
       <use style="stroke:#000000;stroke-width:0.8;" x="459.146291" xlink:href="#me9a910cab8" y="237.897"/>
      </g>
     </g>
     <g id="text_6">
      <!-- 100 -->
      <defs>
       <path d="M 12.40625 8.296875 
L 28.515625 8.296875 
L 28.515625 63.921875 
L 10.984375 60.40625 
L 10.984375 69.390625 
L 28.421875 72.90625 
L 38.28125 72.90625 
L 38.28125 8.296875 
L 54.390625 8.296875 
L 54.390625 0 
L 12.40625 0 
z
" id="DejaVuSans-31"/>
      </defs>
      <g transform="translate(440.058791 260.093875)scale(0.2 -0.2)">
       <use xlink:href="#DejaVuSans-31"/>
       <use x="63.623047" xlink:href="#DejaVuSans-30"/>
       <use x="127.246094" xlink:href="#DejaVuSans-30"/>
      </g>
     </g>
    </g>
    <g id="xtick_7">
     <g id="line2d_7">
      <g>
       <use style="stroke:#000000;stroke-width:0.8;" x="528.104709" xlink:href="#me9a910cab8" y="237.897"/>
      </g>
     </g>
     <g id="text_7">
      <!-- 120 -->
      <g transform="translate(509.017209 260.093875)scale(0.2 -0.2)">
       <use xlink:href="#DejaVuSans-31"/>
       <use x="63.623047" xlink:href="#DejaVuSans-32"/>
       <use x="127.246094" xlink:href="#DejaVuSans-30"/>
      </g>
     </g>
    </g>
    <g id="xtick_8">
     <g id="line2d_8">
      <g>
       <use style="stroke:#000000;stroke-width:0.8;" x="597.063126" xlink:href="#me9a910cab8" y="237.897"/>
      </g>
     </g>
     <g id="text_8">
      <!-- 140 -->
      <g transform="translate(577.975626 260.093875)scale(0.2 -0.2)">
       <use xlink:href="#DejaVuSans-31"/>
       <use x="63.623047" xlink:href="#DejaVuSans-34"/>
       <use x="127.246094" xlink:href="#DejaVuSans-30"/>
      </g>
     </g>
    </g>
   </g>
   <g id="matplotlib.axis_2">
    <g id="ytick_1">
     <g id="line2d_9">
      <defs>
       <path d="M 0 0 
L -3.5 0 
" id="m473d50cf91" style="stroke:#000000;stroke-width:0.8;"/>
      </defs>
      <g>
       <use style="stroke:#000000;stroke-width:0.8;" x="89.2125" xlink:href="#m473d50cf91" y="208.935351"/>
      </g>
     </g>
     <g id="text_9">
      <!-- 2400 -->
      <g transform="translate(31.3125 216.533788)scale(0.2 -0.2)">
       <use xlink:href="#DejaVuSans-32"/>
       <use x="63.623047" xlink:href="#DejaVuSans-34"/>
       <use x="127.246094" xlink:href="#DejaVuSans-30"/>
       <use x="190.869141" xlink:href="#DejaVuSans-30"/>
      </g>
     </g>
    </g>
    <g id="ytick_2">
     <g id="line2d_10">
      <g>
       <use style="stroke:#000000;stroke-width:0.8;" x="89.2125" xlink:href="#m473d50cf91" y="169.779873"/>
      </g>
     </g>
     <g id="text_10">
      <!-- 2600 -->
      <g transform="translate(31.3125 177.378311)scale(0.2 -0.2)">
       <use xlink:href="#DejaVuSans-32"/>
       <use x="63.623047" xlink:href="#DejaVuSans-36"/>
       <use x="127.246094" xlink:href="#DejaVuSans-30"/>
       <use x="190.869141" xlink:href="#DejaVuSans-30"/>
      </g>
     </g>
    </g>
    <g id="ytick_3">
     <g id="line2d_11">
      <g>
       <use style="stroke:#000000;stroke-width:0.8;" x="89.2125" xlink:href="#m473d50cf91" y="130.624396"/>
      </g>
     </g>
     <g id="text_11">
      <!-- 2800 -->
      <g transform="translate(31.3125 138.222834)scale(0.2 -0.2)">
       <use xlink:href="#DejaVuSans-32"/>
       <use x="63.623047" xlink:href="#DejaVuSans-38"/>
       <use x="127.246094" xlink:href="#DejaVuSans-30"/>
       <use x="190.869141" xlink:href="#DejaVuSans-30"/>
      </g>
     </g>
    </g>
    <g id="ytick_4">
     <g id="line2d_12">
      <g>
       <use style="stroke:#000000;stroke-width:0.8;" x="89.2125" xlink:href="#m473d50cf91" y="91.468919"/>
      </g>
     </g>
     <g id="text_12">
      <!-- 3000 -->
      <defs>
       <path d="M 40.578125 39.3125 
Q 47.65625 37.796875 51.625 33 
Q 55.609375 28.21875 55.609375 21.1875 
Q 55.609375 10.40625 48.1875 4.484375 
Q 40.765625 -1.421875 27.09375 -1.421875 
Q 22.515625 -1.421875 17.65625 -0.515625 
Q 12.796875 0.390625 7.625 2.203125 
L 7.625 11.71875 
Q 11.71875 9.328125 16.59375 8.109375 
Q 21.484375 6.890625 26.8125 6.890625 
Q 36.078125 6.890625 40.9375 10.546875 
Q 45.796875 14.203125 45.796875 21.1875 
Q 45.796875 27.640625 41.28125 31.265625 
Q 36.765625 34.90625 28.71875 34.90625 
L 20.21875 34.90625 
L 20.21875 43.015625 
L 29.109375 43.015625 
Q 36.375 43.015625 40.234375 45.921875 
Q 44.09375 48.828125 44.09375 54.296875 
Q 44.09375 59.90625 40.109375 62.90625 
Q 36.140625 65.921875 28.71875 65.921875 
Q 24.65625 65.921875 20.015625 65.03125 
Q 15.375 64.15625 9.8125 62.3125 
L 9.8125 71.09375 
Q 15.4375 72.65625 20.34375 73.4375 
Q 25.25 74.21875 29.59375 74.21875 
Q 40.828125 74.21875 47.359375 69.109375 
Q 53.90625 64.015625 53.90625 55.328125 
Q 53.90625 49.265625 50.4375 45.09375 
Q 46.96875 40.921875 40.578125 39.3125 
z
" id="DejaVuSans-33"/>
      </defs>
      <g transform="translate(31.3125 99.067356)scale(0.2 -0.2)">
       <use xlink:href="#DejaVuSans-33"/>
       <use x="63.623047" xlink:href="#DejaVuSans-30"/>
       <use x="127.246094" xlink:href="#DejaVuSans-30"/>
       <use x="190.869141" xlink:href="#DejaVuSans-30"/>
      </g>
     </g>
    </g>
    <g id="ytick_5">
     <g id="line2d_13">
      <g>
       <use style="stroke:#000000;stroke-width:0.8;" x="89.2125" xlink:href="#m473d50cf91" y="52.313441"/>
      </g>
     </g>
     <g id="text_13">
      <!-- 3200 -->
      <g transform="translate(31.3125 59.911879)scale(0.2 -0.2)">
       <use xlink:href="#DejaVuSans-33"/>
       <use x="63.623047" xlink:href="#DejaVuSans-32"/>
       <use x="127.246094" xlink:href="#DejaVuSans-30"/>
       <use x="190.869141" xlink:href="#DejaVuSans-30"/>
      </g>
     </g>
    </g>
   </g>
   <g id="line2d_14">
    <path clip-path="url(#p70d6d857e3)" d="M 114.354205 116.332647 
L 119.433337 116.168636 
L 124.512469 115.812517 
L 129.591601 115.391226 
L 134.670733 114.944396 
L 139.749866 114.484698 
L 144.828998 114.017099 
L 149.90813 113.543897 
L 154.987262 113.06629 
L 160.066395 112.584959 
L 165.145527 112.100323 
L 170.224659 111.612649 
L 175.303791 111.12212 
L 180.382924 110.628862 
L 185.462056 110.132965 
L 190.541188 109.634497 
L 195.62032 109.13351 
L 200.699452 108.630043 
L 205.778585 108.124126 
L 210.857717 107.615785 
L 215.936849 107.105039 
L 221.015981 106.591906 
L 226.095114 106.076399 
L 231.174246 105.55853 
L 236.253378 105.038309 
L 241.33251 104.515744 
L 246.411643 103.990844 
L 251.490775 103.463614 
L 256.569907 102.934061 
L 261.649039 102.40219 
L 266.728171 101.868006 
L 271.807304 101.331514 
L 276.886436 100.792716 
L 281.965568 100.251618 
L 287.0447 99.708223 
L 292.123833 99.162534 
L 297.202965 98.614554 
L 302.282097 98.064286 
L 307.361229 97.511733 
L 312.440362 96.956899 
L 317.519494 96.399784 
L 322.598626 95.840393 
L 327.677758 95.278728 
L 332.75689 94.71479 
L 337.836023 94.148584 
L 342.915155 93.58011 
L 347.994287 93.009371 
L 353.073419 92.43637 
L 358.152552 91.861108 
L 363.231684 91.283589 
L 368.310816 90.703814 
L 373.389948 90.121785 
L 378.469081 89.537505 
L 383.548213 88.950975 
L 388.627345 88.362199 
L 393.706477 87.771178 
L 398.78561 87.177914 
L 403.864742 86.58241 
L 408.943874 85.984668 
L 414.023006 85.384689 
L 419.102138 84.782477 
L 424.181271 84.178033 
L 429.260403 83.571359 
L 434.339535 82.962458 
L 439.418667 82.351331 
L 444.4978 81.737982 
L 449.576932 81.122412 
L 454.656064 80.504623 
L 459.735196 79.884618 
L 464.814329 79.262399 
L 469.893461 78.637968 
L 474.972593 78.011327 
L 480.051725 77.382479 
L 485.130857 76.751426 
L 490.20999 76.11817 
L 495.289122 75.482713 
L 500.368254 74.845058 
L 505.447386 74.205208 
L 510.526519 73.563163 
L 515.605651 72.918928 
L 520.684783 72.272503 
L 525.763915 71.623892 
L 530.843048 70.973097 
L 535.92218 70.32012 
L 541.001312 69.664963 
L 546.080444 69.00763 
L 551.159576 68.348122 
L 556.238709 67.686441 
L 561.317841 67.022591 
L 566.396973 66.356574 
L 571.476105 65.688392 
L 576.555238 65.018047 
L 581.63437 64.345542 
L 586.713502 63.67088 
L 591.792634 62.994064 
L 596.871767 62.315095 
L 601.950899 61.633976 
L 607.030031 60.950709 
L 612.109163 60.265298 
L 617.188295 59.577745 
" style="fill:none;stroke:#1f77b4;stroke-linecap:square;stroke-width:5;"/>
   </g>
   <g id="line2d_15">
    <path clip-path="url(#p70d6d857e3)" d="M 114.354205 117.507311 
L 119.433337 117.669003 
L 124.512469 118.018166 
L 129.591601 118.427864 
L 134.670733 118.858464 
L 139.749866 119.297295 
L 144.828998 119.739389 
L 149.90813 120.18245 
L 154.987262 120.625281 
L 160.066395 121.067198 
L 165.145527 121.507785 
L 170.224659 121.946774 
L 175.303791 122.383983 
L 180.382924 122.819288 
L 185.462056 123.252596 
L 190.541188 123.683842 
L 195.62032 124.112975 
L 200.699452 124.539955 
L 205.778585 124.964752 
L 210.857717 125.387343 
L 215.936849 125.807708 
L 221.015981 126.225831 
L 226.095114 126.641699 
L 231.174246 127.0553 
L 236.253378 127.466627 
L 241.33251 127.875671 
L 246.411643 128.282425 
L 251.490775 128.686884 
L 256.569907 129.089043 
L 261.649039 129.488897 
L 266.728171 129.886443 
L 271.807304 130.281678 
L 276.886436 130.674598 
L 281.965568 131.065201 
L 287.0447 131.453485 
L 292.123833 131.839447 
L 297.202965 132.223086 
L 302.282097 132.6044 
L 307.361229 132.983388 
L 312.440362 133.360049 
L 317.519494 133.73438 
L 322.598626 134.106381 
L 327.677758 134.476051 
L 332.75689 134.84339 
L 337.836023 135.208395 
L 342.915155 135.571068 
L 347.994287 135.931406 
L 353.073419 136.28941 
L 358.152552 136.645078 
L 363.231684 136.998411 
L 368.310816 137.349408 
L 373.389948 137.698069 
L 378.469081 138.044393 
L 383.548213 138.388381 
L 388.627345 138.730031 
L 393.706477 139.069344 
L 398.78561 139.40632 
L 403.864742 139.740959 
L 408.943874 140.07326 
L 414.023006 140.403224 
L 419.102138 140.73085 
L 424.181271 141.056139 
L 429.260403 141.379091 
L 434.339535 141.699706 
L 439.418667 142.017984 
L 444.4978 142.333925 
L 449.576932 142.64753 
L 454.656064 142.958798 
L 459.735196 143.26773 
L 464.814329 143.574327 
L 469.893461 143.878588 
L 474.972593 144.180514 
L 480.051725 144.480106 
L 485.130857 144.777363 
L 490.20999 145.072287 
L 495.289122 145.364877 
L 500.368254 145.655135 
L 505.447386 145.94306 
L 510.526519 146.228653 
L 515.605651 146.511916 
L 520.684783 146.792847 
L 525.763915 147.071449 
L 530.843048 147.347721 
L 535.92218 147.621664 
L 541.001312 147.89328 
L 546.080444 148.162568 
L 551.159576 148.429529 
L 556.238709 148.694165 
L 561.317841 148.956475 
L 566.396973 149.216461 
L 571.476105 149.474124 
L 576.555238 149.729464 
L 581.63437 149.982483 
L 586.713502 150.23318 
L 591.792634 150.481558 
L 596.871767 150.727617 
L 601.950899 150.971357 
L 607.030031 151.212781 
L 612.109163 151.451888 
L 617.188295 151.688681 
" style="fill:none;stroke:#1f77b4;stroke-linecap:square;stroke-width:5;"/>
   </g>
   <g id="line2d_16">
    <path clip-path="url(#p70d6d857e3)" d="M 114.354205 150.789467 
L 119.433337 150.625361 
L 124.512469 150.268981 
L 129.591601 149.847278 
L 134.670733 149.399886 
L 139.749866 148.939475 
L 144.828998 148.471014 
L 149.90813 147.996799 
L 154.987262 147.518029 
L 160.066395 147.035385 
L 165.145527 146.549286 
L 170.224659 146.06 
L 175.303791 145.567708 
L 180.382924 145.072538 
L 185.462056 144.57458 
L 190.541188 144.073902 
L 195.62032 143.570556 
L 200.699452 143.064581 
L 205.778585 142.556008 
L 210.857717 142.044862 
L 215.936849 141.531164 
L 221.015981 141.01493 
L 226.095114 140.496174 
L 231.174246 139.97491 
L 236.253378 139.451145 
L 241.33251 138.924891 
L 246.411643 138.396153 
L 251.490775 137.86494 
L 256.569907 137.331257 
L 261.649039 136.79511 
L 266.728171 136.256504 
L 271.807304 135.715443 
L 276.886436 135.171933 
L 281.965568 134.625976 
L 287.0447 134.077578 
L 292.123833 133.526741 
L 297.202965 132.973468 
L 302.282097 132.417764 
L 307.361229 131.859631 
L 312.440362 131.299072 
L 317.519494 130.736091 
L 322.598626 130.170689 
L 327.677758 129.602871 
L 332.75689 129.032638 
L 337.836023 128.459993 
L 342.915155 127.884939 
L 347.994287 127.307479 
L 353.073419 126.727615 
L 358.152552 126.145349 
L 363.231684 125.560685 
L 368.310816 124.973625 
L 373.389948 124.384171 
L 378.469081 123.792326 
L 383.548213 123.198092 
L 388.627345 122.601472 
L 393.706477 122.002468 
L 398.78561 121.401083 
L 403.864742 120.79732 
L 408.943874 120.19118 
L 414.023006 119.582666 
L 419.102138 118.971782 
L 424.181271 118.358529 
L 429.260403 117.742909 
L 434.339535 117.124926 
L 439.418667 116.504582 
L 444.4978 115.88188 
L 449.576932 115.256821 
L 454.656064 114.629409 
L 459.735196 113.999647 
L 464.814329 113.367536 
L 469.893461 112.73308 
L 474.972593 112.09628 
L 480.051725 111.45714 
L 485.130857 110.815663 
L 490.20999 110.17185 
L 495.289122 109.525705 
L 500.368254 108.877231 
L 505.447386 108.226429 
L 510.526519 107.573303 
L 515.605651 106.917856 
L 520.684783 106.260089 
L 525.763915 105.600007 
L 530.843048 104.937611 
L 535.92218 104.272904 
L 541.001312 103.60589 
L 546.080444 102.936571 
L 551.159576 102.264949 
L 556.238709 101.591029 
L 561.317841 100.914811 
L 566.396973 100.236301 
L 571.476105 99.555499 
L 576.555238 98.87241 
L 581.63437 98.187035 
L 586.713502 97.499379 
L 591.792634 96.809444 
L 596.871767 96.117232 
L 601.950899 95.422747 
L 607.030031 94.725992 
L 612.109163 94.02697 
L 617.188295 93.325683 
" style="fill:none;stroke:#ff7f0e;stroke-dasharray:9.25,4;stroke-dashoffset:0;stroke-width:2.5;"/>
   </g>
   <g id="line2d_17">
    <path clip-path="url(#p70d6d857e3)" d="M 114.354205 151.964131 
L 119.433337 152.125767 
L 124.512469 152.474737 
L 129.591601 152.884091 
L 134.670733 153.314193 
L 139.749866 153.752375 
L 144.828998 154.193668 
L 149.90813 154.635775 
L 154.987262 155.077499 
L 160.066395 155.518158 
L 165.145527 155.957334 
L 170.224659 156.39476 
L 175.303791 156.830254 
L 180.382924 157.26369 
L 185.462056 157.694977 
L 190.541188 158.124049 
L 195.62032 158.550855 
L 200.699452 158.975356 
L 205.778585 159.397521 
L 210.857717 159.817327 
L 215.936849 160.234753 
L 221.015981 160.649784 
L 226.095114 161.062407 
L 231.174246 161.472611 
L 236.253378 161.880386 
L 241.33251 162.285725 
L 246.411643 162.688621 
L 251.490775 163.089069 
L 256.569907 163.487063 
L 261.649039 163.8826 
L 266.728171 164.275675 
L 271.807304 164.666285 
L 276.886436 165.054427 
L 281.965568 165.440098 
L 287.0447 165.823297 
L 292.123833 166.204022 
L 297.202965 166.582269 
L 302.282097 166.958039 
L 307.361229 167.331329 
L 312.440362 167.702138 
L 317.519494 168.070464 
L 322.598626 168.436308 
L 327.677758 168.799667 
L 332.75689 169.160541 
L 337.836023 169.51893 
L 342.915155 169.874832 
L 347.994287 170.228247 
L 353.073419 170.579174 
L 358.152552 170.927614 
L 363.231684 171.273565 
L 368.310816 171.617028 
L 373.389948 171.958002 
L 378.469081 172.296486 
L 383.548213 172.632482 
L 388.627345 172.965988 
L 393.706477 173.297004 
L 398.78561 173.625532 
L 403.864742 173.95157 
L 408.943874 174.275118 
L 414.023006 174.596177 
L 419.102138 174.914748 
L 424.181271 175.230829 
L 429.260403 175.544422 
L 434.339535 175.855526 
L 439.418667 176.164142 
L 444.4978 176.470271 
L 449.576932 176.773912 
L 454.656064 177.075066 
L 459.735196 177.373734 
L 464.814329 177.669915 
L 469.893461 177.963611 
L 474.972593 178.254822 
L 480.051725 178.543549 
L 485.130857 178.829791 
L 490.20999 179.11355 
L 495.289122 179.394827 
L 500.368254 179.673621 
L 505.447386 179.949934 
L 510.526519 180.223767 
L 515.605651 180.49512 
L 520.684783 180.763994 
L 525.763915 181.03039 
L 530.843048 181.294309 
L 535.92218 181.555751 
L 541.001312 181.814718 
L 546.080444 182.07121 
L 551.159576 182.325229 
L 556.238709 182.576775 
L 561.317841 182.825849 
L 566.396973 183.072453 
L 571.476105 183.316588 
L 576.555238 183.558254 
L 581.63437 183.797453 
L 586.713502 184.034186 
L 591.792634 184.268454 
L 596.871767 184.500259 
L 601.950899 184.729601 
L 607.030031 184.956482 
L 612.109163 185.180903 
L 617.188295 185.402866 
" style="fill:none;stroke:#ff7f0e;stroke-dasharray:9.25,4;stroke-dashoffset:0;stroke-width:2.5;"/>
   </g>
   <g id="line2d_18">
    <path clip-path="url(#p70d6d857e3)" d="M 301.270475 132.528639 
L 301.270475 268.3 
" style="fill:none;stroke:#9467bd;stroke-dasharray:7.4,3.2;stroke-dashoffset:0;stroke-width:2;"/>
   </g>
   <g id="patch_3">
    <path d="M 89.2125 237.897 
L 89.2125 32.076 
" style="fill:none;stroke:#000000;stroke-linecap:square;stroke-linejoin:miter;stroke-width:0.8;"/>
   </g>
   <g id="patch_4">
    <path d="M 642.33 237.897 
L 642.33 32.076 
" style="fill:none;stroke:#000000;stroke-linecap:square;stroke-linejoin:miter;stroke-width:0.8;"/>
   </g>
   <g id="patch_5">
    <path d="M 89.2125 237.897 
L 642.33 237.897 
" style="fill:none;stroke:#000000;stroke-linecap:square;stroke-linejoin:miter;stroke-width:0.8;"/>
   </g>
   <g id="patch_6">
    <path d="M 89.2125 32.076 
L 642.33 32.076 
" style="fill:none;stroke:#000000;stroke-linecap:square;stroke-linejoin:miter;stroke-width:0.8;"/>
   </g>
  </g>
 </g>
 <defs>
  <clipPath id="p70d6d857e3">
   <rect height="205.821" width="553.1175" x="89.2125" y="32.076"/>
  </clipPath>
 </defs>
</svg>
