<?xml version="1.0" encoding="utf-8" standalone="no"?>
<!DOCTYPE svg PUBLIC "-//W3C//DTD SVG 1.1//EN"
  "http://www.w3.org/Graphics/SVG/1.1/DTD/svg11.dtd">
<!-- Created with matplotlib (https://matplotlib.org/) -->
<svg height="504pt" version="1.1" viewBox="0 0 792 504" width="792pt" xmlns="http://www.w3.org/2000/svg" xmlns:xlink="http://www.w3.org/1999/xlink">
 <defs>
  <style type="text/css">
*{stroke-linecap:butt;stroke-linejoin:round;}
  </style>
 </defs>
 <g id="figure_1">
  <g id="patch_1">
   <path d="M 0 504 
L 792 504 
L 792 0 
L 0 0 
z
" style="fill:#ffffff;"/>
  </g>
  <g id="axes_1">
   <g id="patch_2">
    <path d="M 99 448.56 
L 712.8 448.56 
L 712.8 60.48 
L 99 60.48 
z
" style="fill:#ffffff;"/>
   </g>
   <g id="matplotlib.axis_1">
    <g id="xtick_1">
     <g id="line2d_1">
      <defs>
       <path d="M 0 0 
L 0 3.5 
" id="m0dec3eaa17" style="stroke:#000000;stroke-width:0.8;"/>
      </defs>
      <g>
       <use style="stroke:#000000;stroke-width:0.8;" x="168.40408" xlink:href="#m0dec3eaa17" y="448.56"/>
      </g>
     </g>
     <g id="text_1">
      <!-- 20 -->
      <defs>
       <path d="M 19.1875 8.296875 
L 53.609375 8.296875 
L 53.609375 0 
L 7.328125 0 
L 7.328125 8.296875 
Q 12.9375 14.109375 22.625 23.890625 
Q 32.328125 33.6875 34.8125 36.53125 
Q 39.546875 41.84375 41.421875 45.53125 
Q 43.3125 49.21875 43.3125 52.78125 
Q 43.3125 58.59375 39.234375 62.25 
Q 35.15625 65.921875 28.609375 65.921875 
Q 23.96875 65.921875 18.8125 64.3125 
Q 13.671875 62.703125 7.8125 59.421875 
L 7.8125 69.390625 
Q 13.765625 71.78125 18.9375 73 
Q 24.125 74.21875 28.421875 74.21875 
Q 39.75 74.21875 46.484375 68.546875 
Q 53.21875 62.890625 53.21875 53.421875 
Q 53.21875 48.921875 51.53125 44.890625 
Q 49.859375 40.875 45.40625 35.40625 
Q 44.1875 33.984375 37.640625 27.21875 
Q 31.109375 20.453125 19.1875 8.296875 
z
" id="DejaVuSans-50"/>
       <path d="M 31.78125 66.40625 
Q 24.171875 66.40625 20.328125 58.90625 
Q 16.5 51.421875 16.5 36.375 
Q 16.5 21.390625 20.328125 13.890625 
Q 24.171875 6.390625 31.78125 6.390625 
Q 39.453125 6.390625 43.28125 13.890625 
Q 47.125 21.390625 47.125 36.375 
Q 47.125 51.421875 43.28125 58.90625 
Q 39.453125 66.40625 31.78125 66.40625 
z
M 31.78125 74.21875 
Q 44.046875 74.21875 50.515625 64.515625 
Q 56.984375 54.828125 56.984375 36.375 
Q 56.984375 17.96875 50.515625 8.265625 
Q 44.046875 -1.421875 31.78125 -1.421875 
Q 19.53125 -1.421875 13.0625 8.265625 
Q 6.59375 17.96875 6.59375 36.375 
Q 6.59375 54.828125 13.0625 64.515625 
Q 19.53125 74.21875 31.78125 74.21875 
z
" id="DejaVuSans-48"/>
      </defs>
      <g transform="translate(155.67908 470.756875)scale(0.2 -0.2)">
       <use xlink:href="#DejaVuSans-50"/>
       <use x="63.623047" xlink:href="#DejaVuSans-48"/>
      </g>
     </g>
    </g>
    <g id="xtick_2">
     <g id="line2d_2">
      <g>
       <use style="stroke:#000000;stroke-width:0.8;" x="250.49382" xlink:href="#m0dec3eaa17" y="448.56"/>
      </g>
     </g>
     <g id="text_2">
      <!-- 40 -->
      <defs>
       <path d="M 37.796875 64.3125 
L 12.890625 25.390625 
L 37.796875 25.390625 
z
M 35.203125 72.90625 
L 47.609375 72.90625 
L 47.609375 25.390625 
L 58.015625 25.390625 
L 58.015625 17.1875 
L 47.609375 17.1875 
L 47.609375 0 
L 37.796875 0 
L 37.796875 17.1875 
L 4.890625 17.1875 
L 4.890625 26.703125 
z
" id="DejaVuSans-52"/>
      </defs>
      <g transform="translate(237.76882 470.756875)scale(0.2 -0.2)">
       <use xlink:href="#DejaVuSans-52"/>
       <use x="63.623047" xlink:href="#DejaVuSans-48"/>
      </g>
     </g>
    </g>
    <g id="xtick_3">
     <g id="line2d_3">
      <g>
       <use style="stroke:#000000;stroke-width:0.8;" x="332.58356" xlink:href="#m0dec3eaa17" y="448.56"/>
      </g>
     </g>
     <g id="text_3">
      <!-- 60 -->
      <defs>
       <path d="M 33.015625 40.375 
Q 26.375 40.375 22.484375 35.828125 
Q 18.609375 31.296875 18.609375 23.390625 
Q 18.609375 15.53125 22.484375 10.953125 
Q 26.375 6.390625 33.015625 6.390625 
Q 39.65625 6.390625 43.53125 10.953125 
Q 47.40625 15.53125 47.40625 23.390625 
Q 47.40625 31.296875 43.53125 35.828125 
Q 39.65625 40.375 33.015625 40.375 
z
M 52.59375 71.296875 
L 52.59375 62.3125 
Q 48.875 64.0625 45.09375 64.984375 
Q 41.3125 65.921875 37.59375 65.921875 
Q 27.828125 65.921875 22.671875 59.328125 
Q 17.53125 52.734375 16.796875 39.40625 
Q 19.671875 43.65625 24.015625 45.921875 
Q 28.375 48.1875 33.59375 48.1875 
Q 44.578125 48.1875 50.953125 41.515625 
Q 57.328125 34.859375 57.328125 23.390625 
Q 57.328125 12.15625 50.6875 5.359375 
Q 44.046875 -1.421875 33.015625 -1.421875 
Q 20.359375 -1.421875 13.671875 8.265625 
Q 6.984375 17.96875 6.984375 36.375 
Q 6.984375 53.65625 15.1875 63.9375 
Q 23.390625 74.21875 37.203125 74.21875 
Q 40.921875 74.21875 44.703125 73.484375 
Q 48.484375 72.75 52.59375 71.296875 
z
" id="DejaVuSans-54"/>
      </defs>
      <g transform="translate(319.85856 470.756875)scale(0.2 -0.2)">
       <use xlink:href="#DejaVuSans-54"/>
       <use x="63.623047" xlink:href="#DejaVuSans-48"/>
      </g>
     </g>
    </g>
    <g id="xtick_4">
     <g id="line2d_4">
      <g>
       <use style="stroke:#000000;stroke-width:0.8;" x="414.6733" xlink:href="#m0dec3eaa17" y="448.56"/>
      </g>
     </g>
     <g id="text_4">
      <!-- 80 -->
      <defs>
       <path d="M 31.78125 34.625 
Q 24.75 34.625 20.71875 30.859375 
Q 16.703125 27.09375 16.703125 20.515625 
Q 16.703125 13.921875 20.71875 10.15625 
Q 24.75 6.390625 31.78125 6.390625 
Q 38.8125 6.390625 42.859375 10.171875 
Q 46.921875 13.96875 46.921875 20.515625 
Q 46.921875 27.09375 42.890625 30.859375 
Q 38.875 34.625 31.78125 34.625 
z
M 21.921875 38.8125 
Q 15.578125 40.375 12.03125 44.71875 
Q 8.5 49.078125 8.5 55.328125 
Q 8.5 64.0625 14.71875 69.140625 
Q 20.953125 74.21875 31.78125 74.21875 
Q 42.671875 74.21875 48.875 69.140625 
Q 55.078125 64.0625 55.078125 55.328125 
Q 55.078125 49.078125 51.53125 44.71875 
Q 48 40.375 41.703125 38.8125 
Q 48.828125 37.15625 52.796875 32.3125 
Q 56.78125 27.484375 56.78125 20.515625 
Q 56.78125 9.90625 50.3125 4.234375 
Q 43.84375 -1.421875 31.78125 -1.421875 
Q 19.734375 -1.421875 13.25 4.234375 
Q 6.78125 9.90625 6.78125 20.515625 
Q 6.78125 27.484375 10.78125 32.3125 
Q 14.796875 37.15625 21.921875 38.8125 
z
M 18.3125 54.390625 
Q 18.3125 48.734375 21.84375 45.5625 
Q 25.390625 42.390625 31.78125 42.390625 
Q 38.140625 42.390625 41.71875 45.5625 
Q 45.3125 48.734375 45.3125 54.390625 
Q 45.3125 60.0625 41.71875 63.234375 
Q 38.140625 66.40625 31.78125 66.40625 
Q 25.390625 66.40625 21.84375 63.234375 
Q 18.3125 60.0625 18.3125 54.390625 
z
" id="DejaVuSans-56"/>
      </defs>
      <g transform="translate(401.9483 470.756875)scale(0.2 -0.2)">
       <use xlink:href="#DejaVuSans-56"/>
       <use x="63.623047" xlink:href="#DejaVuSans-48"/>
      </g>
     </g>
    </g>
    <g id="xtick_5">
     <g id="line2d_5">
      <g>
       <use style="stroke:#000000;stroke-width:0.8;" x="496.76304" xlink:href="#m0dec3eaa17" y="448.56"/>
      </g>
     </g>
     <g id="text_5">
      <!-- 100 -->
      <defs>
       <path d="M 12.40625 8.296875 
L 28.515625 8.296875 
L 28.515625 63.921875 
L 10.984375 60.40625 
L 10.984375 69.390625 
L 28.421875 72.90625 
L 38.28125 72.90625 
L 38.28125 8.296875 
L 54.390625 8.296875 
L 54.390625 0 
L 12.40625 0 
z
" id="DejaVuSans-49"/>
      </defs>
      <g transform="translate(477.67554 470.756875)scale(0.2 -0.2)">
       <use xlink:href="#DejaVuSans-49"/>
       <use x="63.623047" xlink:href="#DejaVuSans-48"/>
       <use x="127.246094" xlink:href="#DejaVuSans-48"/>
      </g>
     </g>
    </g>
    <g id="xtick_6">
     <g id="line2d_6">
      <g>
       <use style="stroke:#000000;stroke-width:0.8;" x="578.85278" xlink:href="#m0dec3eaa17" y="448.56"/>
      </g>
     </g>
     <g id="text_6">
      <!-- 120 -->
      <g transform="translate(559.76528 470.756875)scale(0.2 -0.2)">
       <use xlink:href="#DejaVuSans-49"/>
       <use x="63.623047" xlink:href="#DejaVuSans-50"/>
       <use x="127.246094" xlink:href="#DejaVuSans-48"/>
      </g>
     </g>
    </g>
    <g id="xtick_7">
     <g id="line2d_7">
      <g>
       <use style="stroke:#000000;stroke-width:0.8;" x="660.94252" xlink:href="#m0dec3eaa17" y="448.56"/>
      </g>
     </g>
     <g id="text_7">
      <!-- 140 -->
      <g transform="translate(641.85502 470.756875)scale(0.2 -0.2)">
       <use xlink:href="#DejaVuSans-49"/>
       <use x="63.623047" xlink:href="#DejaVuSans-52"/>
       <use x="127.246094" xlink:href="#DejaVuSans-48"/>
      </g>
     </g>
    </g>
    <g id="text_8">
     <!-- B $\parallel$[100] (G) -->
     <defs>
      <path d="M 38.375 44.671875 
Q 42.828125 44.671875 45.109375 46.625 
Q 47.40625 48.578125 47.40625 52.390625 
Q 47.40625 56.15625 45.109375 58.125 
Q 42.828125 60.109375 38.375 60.109375 
L 27.984375 60.109375 
L 27.984375 44.671875 
z
M 39.015625 12.796875 
Q 44.671875 12.796875 47.53125 15.1875 
Q 50.390625 17.578125 50.390625 22.40625 
Q 50.390625 27.15625 47.5625 29.515625 
Q 44.734375 31.890625 39.015625 31.890625 
L 27.984375 31.890625 
L 27.984375 12.796875 
z
M 56.5 39.015625 
Q 62.546875 37.25 65.859375 32.515625 
Q 69.1875 27.78125 69.1875 20.90625 
Q 69.1875 10.359375 62.0625 5.171875 
Q 54.9375 0 40.375 0 
L 9.1875 0 
L 9.1875 72.90625 
L 37.40625 72.90625 
Q 52.59375 72.90625 59.40625 68.3125 
Q 66.21875 63.71875 66.21875 53.609375 
Q 66.21875 48.296875 63.71875 44.5625 
Q 61.234375 40.828125 56.5 39.015625 
z
" id="DejaVuSans-Bold-66"/>
      <path id="DejaVuSans-Bold-32"/>
      <path d="M 13.28125 77.09375 
L 21.09375 77.09375 
L 21.09375 -21.390625 
L 13.28125 -21.390625 
z
M 28.90625 77.09375 
L 36.71875 77.09375 
L 36.71875 -21.390625 
L 28.90625 -21.390625 
z
" id="DejaVuSans-8741"/>
      <path d="M 8.59375 75.984375 
L 38.921875 75.984375 
L 38.921875 64.984375 
L 25.203125 64.984375 
L 25.203125 -2.203125 
L 38.921875 -2.203125 
L 38.921875 -13.1875 
L 8.59375 -13.1875 
z
" id="DejaVuSans-Bold-91"/>
      <path d="M 11.71875 12.984375 
L 28.328125 12.984375 
L 28.328125 60.109375 
L 11.28125 56.59375 
L 11.28125 69.390625 
L 28.21875 72.90625 
L 46.09375 72.90625 
L 46.09375 12.984375 
L 62.703125 12.984375 
L 62.703125 0 
L 11.71875 0 
z
" id="DejaVuSans-Bold-49"/>
      <path d="M 46 36.53125 
Q 46 50.203125 43.4375 55.78125 
Q 40.875 61.375 34.8125 61.375 
Q 28.765625 61.375 26.171875 55.78125 
Q 23.578125 50.203125 23.578125 36.53125 
Q 23.578125 22.703125 26.171875 17.03125 
Q 28.765625 11.375 34.8125 11.375 
Q 40.828125 11.375 43.40625 17.03125 
Q 46 22.703125 46 36.53125 
z
M 64.796875 36.375 
Q 64.796875 18.265625 56.984375 8.421875 
Q 49.171875 -1.421875 34.8125 -1.421875 
Q 20.40625 -1.421875 12.59375 8.421875 
Q 4.78125 18.265625 4.78125 36.375 
Q 4.78125 54.546875 12.59375 64.375 
Q 20.40625 74.21875 34.8125 74.21875 
Q 49.171875 74.21875 56.984375 64.375 
Q 64.796875 54.546875 64.796875 36.375 
z
" id="DejaVuSans-Bold-48"/>
      <path d="M 37.109375 -13.1875 
L 6.78125 -13.1875 
L 6.78125 -2.203125 
L 20.515625 -2.203125 
L 20.515625 64.984375 
L 6.78125 64.984375 
L 6.78125 75.984375 
L 37.109375 75.984375 
z
" id="DejaVuSans-Bold-93"/>
      <path d="M 37.703125 -13.1875 
L 23.1875 -13.1875 
Q 15.71875 -1.125 12.15625 9.734375 
Q 8.59375 20.609375 8.59375 31.296875 
Q 8.59375 42 12.171875 52.953125 
Q 15.765625 63.921875 23.1875 75.875 
L 37.703125 75.875 
Q 31.453125 64.3125 28.328125 53.25 
Q 25.203125 42.1875 25.203125 31.390625 
Q 25.203125 20.609375 28.296875 9.515625 
Q 31.390625 -1.5625 37.703125 -13.1875 
z
" id="DejaVuSans-Bold-40"/>
      <path d="M 74.703125 5.421875 
Q 67.671875 2 60.109375 0.28125 
Q 52.546875 -1.421875 44.484375 -1.421875 
Q 26.265625 -1.421875 15.625 8.765625 
Q 4.984375 18.953125 4.984375 36.375 
Q 4.984375 54 15.8125 64.109375 
Q 26.65625 74.21875 45.515625 74.21875 
Q 52.78125 74.21875 59.4375 72.84375 
Q 66.109375 71.484375 72.015625 68.796875 
L 72.015625 53.71875 
Q 65.921875 57.171875 59.890625 58.875 
Q 53.859375 60.59375 47.796875 60.59375 
Q 36.578125 60.59375 30.5 54.3125 
Q 24.421875 48.046875 24.421875 36.375 
Q 24.421875 24.8125 30.28125 18.5 
Q 36.140625 12.203125 46.921875 12.203125 
Q 49.859375 12.203125 52.375 12.5625 
Q 54.890625 12.9375 56.890625 13.71875 
L 56.890625 27.875 
L 45.40625 27.875 
L 45.40625 40.484375 
L 74.703125 40.484375 
z
" id="DejaVuSans-Bold-71"/>
      <path d="M 8.015625 -13.1875 
Q 14.265625 -1.5625 17.390625 9.515625 
Q 20.515625 20.609375 20.515625 31.390625 
Q 20.515625 42.1875 17.390625 53.25 
Q 14.265625 64.3125 8.015625 75.875 
L 22.515625 75.875 
Q 29.9375 63.921875 33.515625 52.953125 
Q 37.109375 42 37.109375 31.296875 
Q 37.109375 20.609375 33.546875 9.734375 
Q 29.984375 -1.125 22.515625 -13.1875 
z
" id="DejaVuSans-Bold-41"/>
     </defs>
     <g transform="translate(317.275 498.41625)scale(0.25 -0.25)">
      <use transform="translate(0 0.90625)" xlink:href="#DejaVuSans-Bold-66"/>
      <use transform="translate(76.220703 0.90625)" xlink:href="#DejaVuSans-Bold-32"/>
      <use transform="translate(130.517578 0.90625)" xlink:href="#DejaVuSans-8741"/>
      <use transform="translate(200 0.90625)" xlink:href="#DejaVuSans-Bold-91"/>
      <use transform="translate(245.703125 0.90625)" xlink:href="#DejaVuSans-Bold-49"/>
      <use transform="translate(315.283203 0.90625)" xlink:href="#DejaVuSans-Bold-48"/>
      <use transform="translate(384.863281 0.90625)" xlink:href="#DejaVuSans-Bold-48"/>
      <use transform="translate(454.443359 0.90625)" xlink:href="#DejaVuSans-Bold-93"/>
      <use transform="translate(500.146484 0.90625)" xlink:href="#DejaVuSans-Bold-32"/>
      <use transform="translate(534.960938 0.90625)" xlink:href="#DejaVuSans-Bold-40"/>
      <use transform="translate(580.664062 0.90625)" xlink:href="#DejaVuSans-Bold-71"/>
      <use transform="translate(662.744141 0.90625)" xlink:href="#DejaVuSans-Bold-41"/>
     </g>
    </g>
   </g>
   <g id="matplotlib.axis_2">
    <g id="ytick_1">
     <g id="line2d_8">
      <defs>
       <path d="M 0 0 
L -3.5 0 
" id="m87c17f5181" style="stroke:#000000;stroke-width:0.8;"/>
      </defs>
      <g>
       <use style="stroke:#000000;stroke-width:0.8;" x="99" xlink:href="#m87c17f5181" y="394.597915"/>
      </g>
     </g>
     <g id="text_9">
      <!-- −0.15 -->
      <defs>
       <path d="M 10.59375 35.5 
L 73.1875 35.5 
L 73.1875 27.203125 
L 10.59375 27.203125 
z
" id="DejaVuSans-8722"/>
       <path d="M 10.6875 12.40625 
L 21 12.40625 
L 21 0 
L 10.6875 0 
z
" id="DejaVuSans-46"/>
       <path d="M 10.796875 72.90625 
L 49.515625 72.90625 
L 49.515625 64.59375 
L 19.828125 64.59375 
L 19.828125 46.734375 
Q 21.96875 47.46875 24.109375 47.828125 
Q 26.265625 48.1875 28.421875 48.1875 
Q 40.625 48.1875 47.75 41.5 
Q 54.890625 34.8125 54.890625 23.390625 
Q 54.890625 11.625 47.5625 5.09375 
Q 40.234375 -1.421875 26.90625 -1.421875 
Q 22.3125 -1.421875 17.546875 -0.640625 
Q 12.796875 0.140625 7.71875 1.703125 
L 7.71875 11.625 
Q 12.109375 9.234375 16.796875 8.0625 
Q 21.484375 6.890625 26.703125 6.890625 
Q 35.15625 6.890625 40.078125 11.328125 
Q 45.015625 15.765625 45.015625 23.390625 
Q 45.015625 31 40.078125 35.4375 
Q 35.15625 39.890625 26.703125 39.890625 
Q 22.75 39.890625 18.8125 39.015625 
Q 14.890625 38.140625 10.796875 36.28125 
z
" id="DejaVuSans-53"/>
      </defs>
      <g transform="translate(30.709375 402.196353)scale(0.2 -0.2)">
       <use xlink:href="#DejaVuSans-8722"/>
       <use x="83.789062" xlink:href="#DejaVuSans-48"/>
       <use x="147.412109" xlink:href="#DejaVuSans-46"/>
       <use x="179.199219" xlink:href="#DejaVuSans-49"/>
       <use x="242.822266" xlink:href="#DejaVuSans-53"/>
      </g>
     </g>
    </g>
    <g id="ytick_2">
     <g id="line2d_9">
      <g>
       <use style="stroke:#000000;stroke-width:0.8;" x="99" xlink:href="#m87c17f5181" y="315.285117"/>
      </g>
     </g>
     <g id="text_10">
      <!-- −0.10 -->
      <g transform="translate(30.709375 322.883555)scale(0.2 -0.2)">
       <use xlink:href="#DejaVuSans-8722"/>
       <use x="83.789062" xlink:href="#DejaVuSans-48"/>
       <use x="147.412109" xlink:href="#DejaVuSans-46"/>
       <use x="179.199219" xlink:href="#DejaVuSans-49"/>
       <use x="242.822266" xlink:href="#DejaVuSans-48"/>
      </g>
     </g>
    </g>
    <g id="ytick_3">
     <g id="line2d_10">
      <g>
       <use style="stroke:#000000;stroke-width:0.8;" x="99" xlink:href="#m87c17f5181" y="235.972319"/>
      </g>
     </g>
     <g id="text_11">
      <!-- −0.05 -->
      <g transform="translate(30.709375 243.570757)scale(0.2 -0.2)">
       <use xlink:href="#DejaVuSans-8722"/>
       <use x="83.789062" xlink:href="#DejaVuSans-48"/>
       <use x="147.412109" xlink:href="#DejaVuSans-46"/>
       <use x="179.199219" xlink:href="#DejaVuSans-48"/>
       <use x="242.822266" xlink:href="#DejaVuSans-53"/>
      </g>
     </g>
    </g>
    <g id="ytick_4">
     <g id="line2d_11">
      <g>
       <use style="stroke:#000000;stroke-width:0.8;" x="99" xlink:href="#m87c17f5181" y="156.659521"/>
      </g>
     </g>
     <g id="text_12">
      <!-- 0.00 -->
      <g transform="translate(47.46875 164.257959)scale(0.2 -0.2)">
       <use xlink:href="#DejaVuSans-48"/>
       <use x="63.623047" xlink:href="#DejaVuSans-46"/>
       <use x="95.410156" xlink:href="#DejaVuSans-48"/>
       <use x="159.033203" xlink:href="#DejaVuSans-48"/>
      </g>
     </g>
    </g>
    <g id="ytick_5">
     <g id="line2d_12">
      <g>
       <use style="stroke:#000000;stroke-width:0.8;" x="99" xlink:href="#m87c17f5181" y="77.346723"/>
      </g>
     </g>
     <g id="text_13">
      <!-- 0.05 -->
      <g transform="translate(47.46875 84.945161)scale(0.2 -0.2)">
       <use xlink:href="#DejaVuSans-48"/>
       <use x="63.623047" xlink:href="#DejaVuSans-46"/>
       <use x="95.410156" xlink:href="#DejaVuSans-48"/>
       <use x="159.033203" xlink:href="#DejaVuSans-53"/>
      </g>
     </g>
    </g>
    <g id="text_14">
     <!-- Photoluminescence -->
     <defs>
      <path d="M 9.1875 72.90625 
L 40.375 72.90625 
Q 54.296875 72.90625 61.734375 66.71875 
Q 69.1875 60.546875 69.1875 49.125 
Q 69.1875 37.640625 61.734375 31.46875 
Q 54.296875 25.296875 40.375 25.296875 
L 27.984375 25.296875 
L 27.984375 0 
L 9.1875 0 
z
M 27.984375 59.28125 
L 27.984375 38.921875 
L 38.375 38.921875 
Q 43.84375 38.921875 46.828125 41.578125 
Q 49.8125 44.234375 49.8125 49.125 
Q 49.8125 54 46.828125 56.640625 
Q 43.84375 59.28125 38.375 59.28125 
z
" id="DejaVuSans-Bold-80"/>
      <path d="M 63.375 33.296875 
L 63.375 0 
L 45.796875 0 
L 45.796875 5.421875 
L 45.796875 25.390625 
Q 45.796875 32.5625 45.484375 35.25 
Q 45.171875 37.9375 44.390625 39.203125 
Q 43.359375 40.921875 41.59375 41.875 
Q 39.84375 42.828125 37.59375 42.828125 
Q 32.125 42.828125 29 38.59375 
Q 25.875 34.375 25.875 26.90625 
L 25.875 0 
L 8.40625 0 
L 8.40625 75.984375 
L 25.875 75.984375 
L 25.875 46.6875 
Q 29.828125 51.46875 34.265625 53.734375 
Q 38.71875 56 44.09375 56 
Q 53.5625 56 58.46875 50.1875 
Q 63.375 44.390625 63.375 33.296875 
z
" id="DejaVuSans-Bold-104"/>
      <path d="M 34.421875 43.5 
Q 28.609375 43.5 25.5625 39.328125 
Q 22.515625 35.15625 22.515625 27.296875 
Q 22.515625 19.4375 25.5625 15.25 
Q 28.609375 11.078125 34.421875 11.078125 
Q 40.140625 11.078125 43.15625 15.25 
Q 46.1875 19.4375 46.1875 27.296875 
Q 46.1875 35.15625 43.15625 39.328125 
Q 40.140625 43.5 34.421875 43.5 
z
M 34.421875 56 
Q 48.53125 56 56.46875 48.375 
Q 64.40625 40.765625 64.40625 27.296875 
Q 64.40625 13.8125 56.46875 6.1875 
Q 48.53125 -1.421875 34.421875 -1.421875 
Q 20.265625 -1.421875 12.28125 6.1875 
Q 4.296875 13.8125 4.296875 27.296875 
Q 4.296875 40.765625 12.28125 48.375 
Q 20.265625 56 34.421875 56 
z
" id="DejaVuSans-Bold-111"/>
      <path d="M 27.484375 70.21875 
L 27.484375 54.6875 
L 45.515625 54.6875 
L 45.515625 42.1875 
L 27.484375 42.1875 
L 27.484375 19 
Q 27.484375 15.1875 29 13.84375 
Q 30.515625 12.5 35.015625 12.5 
L 44 12.5 
L 44 0 
L 29 0 
Q 18.65625 0 14.328125 4.3125 
Q 10.015625 8.640625 10.015625 19 
L 10.015625 42.1875 
L 1.3125 42.1875 
L 1.3125 54.6875 
L 10.015625 54.6875 
L 10.015625 70.21875 
z
" id="DejaVuSans-Bold-116"/>
      <path d="M 8.40625 75.984375 
L 25.875 75.984375 
L 25.875 0 
L 8.40625 0 
z
" id="DejaVuSans-Bold-108"/>
      <path d="M 7.8125 21.296875 
L 7.8125 54.6875 
L 25.390625 54.6875 
L 25.390625 49.21875 
Q 25.390625 44.78125 25.34375 38.0625 
Q 25.296875 31.34375 25.296875 29.109375 
Q 25.296875 22.515625 25.640625 19.609375 
Q 25.984375 16.703125 26.8125 15.375 
Q 27.875 13.671875 29.609375 12.734375 
Q 31.34375 11.8125 33.59375 11.8125 
Q 39.0625 11.8125 42.1875 16.015625 
Q 45.3125 20.21875 45.3125 27.6875 
L 45.3125 54.6875 
L 62.796875 54.6875 
L 62.796875 0 
L 45.3125 0 
L 45.3125 7.90625 
Q 41.359375 3.125 36.9375 0.84375 
Q 32.515625 -1.421875 27.203125 -1.421875 
Q 17.71875 -1.421875 12.765625 4.390625 
Q 7.8125 10.203125 7.8125 21.296875 
z
" id="DejaVuSans-Bold-117"/>
      <path d="M 59.078125 45.609375 
Q 62.40625 50.6875 66.96875 53.34375 
Q 71.53125 56 77 56 
Q 86.421875 56 91.359375 50.1875 
Q 96.296875 44.390625 96.296875 33.296875 
L 96.296875 0 
L 78.71875 0 
L 78.71875 28.515625 
Q 78.765625 29.15625 78.78125 29.828125 
Q 78.8125 30.515625 78.8125 31.78125 
Q 78.8125 37.59375 77.09375 40.203125 
Q 75.390625 42.828125 71.578125 42.828125 
Q 66.609375 42.828125 63.890625 38.71875 
Q 61.1875 34.625 61.078125 26.859375 
L 61.078125 0 
L 43.5 0 
L 43.5 28.515625 
Q 43.5 37.59375 41.9375 40.203125 
Q 40.375 42.828125 36.375 42.828125 
Q 31.34375 42.828125 28.609375 38.703125 
Q 25.875 34.578125 25.875 26.90625 
L 25.875 0 
L 8.296875 0 
L 8.296875 54.6875 
L 25.875 54.6875 
L 25.875 46.6875 
Q 29.109375 51.3125 33.28125 53.65625 
Q 37.453125 56 42.484375 56 
Q 48.140625 56 52.484375 53.265625 
Q 56.84375 50.53125 59.078125 45.609375 
z
" id="DejaVuSans-Bold-109"/>
      <path d="M 8.40625 54.6875 
L 25.875 54.6875 
L 25.875 0 
L 8.40625 0 
z
M 8.40625 75.984375 
L 25.875 75.984375 
L 25.875 61.71875 
L 8.40625 61.71875 
z
" id="DejaVuSans-Bold-105"/>
      <path d="M 63.375 33.296875 
L 63.375 0 
L 45.796875 0 
L 45.796875 5.421875 
L 45.796875 25.484375 
Q 45.796875 32.5625 45.484375 35.25 
Q 45.171875 37.9375 44.390625 39.203125 
Q 43.359375 40.921875 41.59375 41.875 
Q 39.84375 42.828125 37.59375 42.828125 
Q 32.125 42.828125 29 38.59375 
Q 25.875 34.375 25.875 26.90625 
L 25.875 0 
L 8.40625 0 
L 8.40625 54.6875 
L 25.875 54.6875 
L 25.875 46.6875 
Q 29.828125 51.46875 34.265625 53.734375 
Q 38.71875 56 44.09375 56 
Q 53.5625 56 58.46875 50.1875 
Q 63.375 44.390625 63.375 33.296875 
z
" id="DejaVuSans-Bold-110"/>
      <path d="M 62.984375 27.484375 
L 62.984375 22.515625 
L 22.125 22.515625 
Q 22.75 16.359375 26.5625 13.28125 
Q 30.375 10.203125 37.203125 10.203125 
Q 42.71875 10.203125 48.5 11.84375 
Q 54.296875 13.484375 60.40625 16.796875 
L 60.40625 3.328125 
Q 54.203125 0.984375 48 -0.21875 
Q 41.796875 -1.421875 35.59375 -1.421875 
Q 20.75 -1.421875 12.515625 6.125 
Q 4.296875 13.671875 4.296875 27.296875 
Q 4.296875 40.671875 12.375 48.328125 
Q 20.453125 56 34.625 56 
Q 47.515625 56 55.25 48.234375 
Q 62.984375 40.484375 62.984375 27.484375 
z
M 45.015625 33.296875 
Q 45.015625 38.28125 42.109375 41.328125 
Q 39.203125 44.390625 34.515625 44.390625 
Q 29.4375 44.390625 26.265625 41.53125 
Q 23.09375 38.671875 22.3125 33.296875 
z
" id="DejaVuSans-Bold-101"/>
      <path d="M 51.125 52.984375 
L 51.125 39.703125 
Q 45.515625 42.046875 40.28125 43.21875 
Q 35.0625 44.390625 30.421875 44.390625 
Q 25.4375 44.390625 23.015625 43.140625 
Q 20.609375 41.890625 20.609375 39.3125 
Q 20.609375 37.203125 22.4375 36.078125 
Q 24.265625 34.96875 29 34.421875 
L 32.078125 33.984375 
Q 45.515625 32.28125 50.140625 28.375 
Q 54.78125 24.46875 54.78125 16.109375 
Q 54.78125 7.375 48.328125 2.96875 
Q 41.890625 -1.421875 29.109375 -1.421875 
Q 23.6875 -1.421875 17.890625 -0.5625 
Q 12.109375 0.296875 6 2 
L 6 15.28125 
Q 11.234375 12.75 16.71875 11.46875 
Q 22.21875 10.203125 27.875 10.203125 
Q 33.015625 10.203125 35.59375 11.609375 
Q 38.1875 13.03125 38.1875 15.828125 
Q 38.1875 18.171875 36.40625 19.3125 
Q 34.625 20.453125 29.296875 21.09375 
L 26.21875 21.484375 
Q 14.546875 22.953125 9.859375 26.90625 
Q 5.171875 30.859375 5.171875 38.921875 
Q 5.171875 47.609375 11.125 51.796875 
Q 17.09375 56 29.390625 56 
Q 34.234375 56 39.546875 55.265625 
Q 44.875 54.546875 51.125 52.984375 
z
" id="DejaVuSans-Bold-115"/>
      <path d="M 52.59375 52.984375 
L 52.59375 38.71875 
Q 49.03125 41.15625 45.4375 42.328125 
Q 41.84375 43.5 37.984375 43.5 
Q 30.671875 43.5 26.59375 39.234375 
Q 22.515625 34.96875 22.515625 27.296875 
Q 22.515625 19.625 26.59375 15.34375 
Q 30.671875 11.078125 37.984375 11.078125 
Q 42.09375 11.078125 45.78125 12.296875 
Q 49.46875 13.53125 52.59375 15.921875 
L 52.59375 1.609375 
Q 48.484375 0.09375 44.265625 -0.65625 
Q 40.046875 -1.421875 35.796875 -1.421875 
Q 21 -1.421875 12.640625 6.171875 
Q 4.296875 13.765625 4.296875 27.296875 
Q 4.296875 40.828125 12.640625 48.40625 
Q 21 56 35.796875 56 
Q 40.09375 56 44.265625 55.25 
Q 48.4375 54.5 52.59375 52.984375 
z
" id="DejaVuSans-Bold-99"/>
     </defs>
     <g transform="translate(21.510156 391.717266)rotate(-90)scale(0.25 -0.25)">
      <use xlink:href="#DejaVuSans-Bold-80"/>
      <use x="73.291016" xlink:href="#DejaVuSans-Bold-104"/>
      <use x="144.482422" xlink:href="#DejaVuSans-Bold-111"/>
      <use x="213.183594" xlink:href="#DejaVuSans-Bold-116"/>
      <use x="260.986328" xlink:href="#DejaVuSans-Bold-111"/>
      <use x="329.6875" xlink:href="#DejaVuSans-Bold-108"/>
      <use x="363.964844" xlink:href="#DejaVuSans-Bold-117"/>
      <use x="435.15625" xlink:href="#DejaVuSans-Bold-109"/>
      <use x="539.355469" xlink:href="#DejaVuSans-Bold-105"/>
      <use x="573.632812" xlink:href="#DejaVuSans-Bold-110"/>
      <use x="644.824219" xlink:href="#DejaVuSans-Bold-101"/>
      <use x="712.646484" xlink:href="#DejaVuSans-Bold-115"/>
      <use x="772.167969" xlink:href="#DejaVuSans-Bold-99"/>
      <use x="831.445312" xlink:href="#DejaVuSans-Bold-101"/>
      <use x="899.267578" xlink:href="#DejaVuSans-Bold-110"/>
      <use x="970.458984" xlink:href="#DejaVuSans-Bold-99"/>
      <use x="1029.736328" xlink:href="#DejaVuSans-Bold-101"/>
     </g>
    </g>
   </g>
   <g id="line2d_13">
    <path clip-path="url(#pe381fadf08)" d="M 126.9 149.188107 
L 128.996736 143.886699 
L 129.887984 146.070084 
L 130.689837 130.468044 
L 131.984721 138.239179 
L 134.1248 109.855979 
L 135.240892 138.17649 
L 136.132141 128.871202 
L 138.361616 117.818293 
L 139.252864 117.385401 
L 140.368956 129.717975 
L 141.3496 131.177756 
L 143.535732 117.514177 
L 144.337585 155.39643 
L 145.632468 160.152207 
L 147.861943 145.94528 
L 148.5744 159.255571 
L 149.647149 182.539854 
L 151.876624 188.195696 
L 152.811216 196.092513 
L 153.480329 193.675632 
L 156.202836 208.385843 
L 157.362271 219.765304 
L 157.985332 235.387439 
L 158.87929 240.960621 
L 161.198161 229.691435 
L 162.178805 234.805901 
L 163.026709 231.421323 
L 165.256185 224.635726 
L 166.683807 229.991028 
L 167.442317 235.824814 
L 169.671792 212.918833 
L 170.741832 226.319197 
L 171.500341 227.538222 
L 172.570381 227.37392 
L 174.577721 223.010219 
L 175.826552 215.173204 
L 176.362927 230.742077 
L 179.126067 220.364192 
L 179.973972 202.942961 
L 180.464294 220.893217 
L 183.140748 194.774764 
L 184.210788 182.908345 
L 185.015349 176.782163 
L 186.218128 177.686969 
L 188.182125 141.059086 
L 188.983978 148.322987 
L 189.78583 146.57072 
L 192.595023 139.122637 
L 193.62172 133.866912 
L 194.201437 137.628372 
L 196.745152 108.661434 
L 197.636401 101.726025 
L 198.39491 117.951298 
L 199.733137 106.332123 
L 201.694425 102.530247 
L 202.764465 103.467117 
L 203.747818 109.337865 
L 206.066689 98.79443 
L 206.735802 99.567414 
L 208.027977 101.328518 
L 210.214108 102.460119 
L 211.327492 78.12 
L 211.731127 100.539268 
L 213.112697 97.080166 
L 215.030642 99.426062 
L 216.279473 105.597992 
L 217.170721 91.351928 
L 218.955927 98.744082 
L 220.294154 97.482863 
L 221.407537 90.780051 
L 223.639721 101.960919 
L 224.574313 107.484518 
L 225.511614 97.226654 
L 226.849841 113.688212 
L 228.857181 98.934743 
L 229.659034 98.4032 
L 230.818469 104.589713 
L 232.825809 103.094547 
L 233.630371 113.695556 
L 234.654358 107.129966 
L 237.062625 96.068201 
L 237.867187 99.827483 
L 238.891174 97.636299 
L 239.828475 104.979234 
L 241.835815 102.97414 
L 243.084646 119.40914 
L 244.021947 90.669997 
L 246.251422 93.682578 
L 247.454201 112.529177 
L 248.480897 119.045783 
L 250.531581 89.294713 
L 251.514934 98.274939 
L 252.316787 117.477457 
L 254.725054 103.018062 
L 255.662354 89.729944 
L 256.420863 106.90247 
L 257.713038 106.814219 
L 259.809774 96.485053 
L 260.83647 95.930423 
L 261.771062 98.25631 
L 264.314777 93.490232 
L 265.027234 86.100205 
L 265.921191 111.10867 
L 267.12397 109.119851 
L 268.952519 102.520728 
L 270.158007 111.667061 
L 271.092598 95.795937 
L 273.235387 109.17925 
L 274.305427 112.46851 
L 275.242727 112.225905 
L 277.74039 120.488164 
L 278.274055 105.228488 
L 279.433491 130.203238 
L 281.662966 129.030558 
L 282.510871 120.321707 
L 283.626963 127.5325 
L 284.428815 134.879216 
L 286.883135 124.982138 
L 287.817726 149.232132 
L 288.665631 162.894536 
L 290.941159 151.924759 
L 291.789064 179.021911 
L 292.991843 189.828977 
L 293.8858 194.044027 
L 296.248014 227.110449 
L 296.917128 260.030722 
L 298.165959 283.836398 
L 300.441486 292.661728 
L 301.55487 348.944583 
L 302.134587 366.774235 
L 304.63225 396.112271 
L 305.301363 428.922674 
L 306.539359 418.886786 
L 308.652348 430.92 
L 309.627575 413.961883 
L 310.873697 397.014192 
L 311.686385 370.109569 
L 314.097361 356.998859 
L 314.612064 339.256111 
L 316.101992 299.939149 
L 317.916997 273.616251 
L 319.136029 247.716192 
L 319.840359 223.846361 
L 321.005213 216.346784 
L 322.820217 205.608681 
L 324.201787 196.223043 
L 325.204103 174.272386 
L 327.696347 164.405662 
L 328.373588 156.403658 
L 329.565531 173.239809 
L 331.624341 148.918736 
L 332.464119 141.730263 
L 333.439345 135.616806 
L 335.714873 145.277174 
L 336.825547 135.696845 
L 337.584056 147.130422 
L 338.74891 125.807284 
L 340.8619 118.710425 
L 342.053843 121.826596 
L 342.893621 134.740492 
L 345.0337 120.532916 
L 345.927658 128.438926 
L 346.794525 145.564979 
L 349.422218 133.686312 
L 350.126548 122.975996 
L 351.210132 126.893695 
L 351.941552 145.155357 
L 354.21708 142.965779 
L 355.111037 126.026845 
L 356.411338 150.425236 
L 358.470149 147.790739 
L 359.282837 131.529657 
L 360.393512 130.577298 
L 362.669039 128.13908 
L 363.427548 150.54536 
L 364.70076 143.573929 
L 365.648897 141.766157 
L 367.734797 134.153755 
L 368.682934 157.043943 
L 369.576891 146.689471 
L 372.150404 148.034502 
L 372.827645 135.122305 
L 373.938319 151.977774 
L 376.078398 150.416881 
L 376.809818 145.972819 
L 377.947582 153.53791 
L 378.976987 162.083624 
L 380.954529 141.666519 
L 382.200651 157.177397 
L 382.904981 157.432605 
L 385.180509 152.169429 
L 386.155735 147.649553 
L 387.266409 164.349778 
L 389.29813 138.768111 
L 390.300446 154.193084 
L 391.302761 160.615057 
L 392.359256 162.026519 
L 394.553515 141.576688 
L 395.474562 150.966894 
L 396.503967 145.846476 
L 398.779495 162.776992 
L 399.754721 151.389815 
L 400.892485 154.207994 
L 402.924206 157.607627 
L 403.872342 153.186852 
L 404.820479 160.000731 
L 407.041827 154.801939 
L 408.342129 156.018312 
L 409.181907 168.319969 
L 410.238402 165.076345 
L 411.945047 155.668263 
L 412.974453 166.150189 
L 414.274754 171.806143 
L 416.414834 171.72073 
L 417.335881 171.958847 
L 418.365286 155.421445 
L 419.123795 134.711273 
L 421.318054 163.26834 
L 422.564176 158.126401 
L 423.539402 169.052088 
L 425.625303 155.865052 
L 426.573439 153.541435 
L 427.738292 173.869893 
L 429.688745 134.948986 
L 430.772329 149.291081 
L 431.530838 164.497957 
L 433.968904 143.335096 
L 434.94413 154.197247 
L 435.892266 147.328016 
L 436.732044 157.235667 
L 439.251379 155.460378 
L 440.118246 153.851241 
L 441.147652 152.919487 
L 443.396089 137.968926 
L 444.181688 159.612172 
L 445.211094 127.184407 
L 446.375947 147.403984 
L 448.516027 135.7001 
L 449.545432 141.476559 
L 450.38521 144.588363 
L 452.606558 147.802371 
L 453.690143 137.299187 
L 454.313204 146.996658 
L 456.859628 144.776625 
L 457.618137 139.66229 
L 458.674632 142.894332 
L 460.868891 117.081078 
L 461.844117 139.079891 
L 462.819343 134.095436 
L 463.902927 130.30284 
L 466.232634 118.878196 
L 466.991143 138.476039 
L 467.91219 125.012667 
L 470.323166 128.512664 
L 471.135854 107.104724 
L 472.029812 145.609761 
L 473.303024 128.70371 
L 475.063848 143.014269 
L 476.201612 129.67059 
L 477.366466 131.799189 
L 479.641993 136.578822 
L 480.373413 131.689615 
L 481.484087 141.085141 
L 483.515808 134.742434 
L 484.382676 128.527335 
L 485.547529 135.140392 
L 488.202311 127.200793 
L 488.879552 129.579503 
L 489.854778 135.7923 
L 491.1009 134.861436 
L 492.970083 114.352462 
L 494.053668 135.243341 
L 494.893446 129.286975 
L 497.521139 135.090587 
L 498.550544 140.77138 
L 500.25719 146.580442 
L 502.180552 139.030782 
L 503.237047 130.957492 
L 504.401901 139.81313 
L 506.596159 127.372121 
L 507.381758 133.189016 
L 508.356984 152.892977 
L 510.686691 125.645061 
L 511.309752 148.790224 
L 512.474606 137.417172 
L 514.831402 134.646462 
L 515.69827 132.931214 
L 516.808944 135.583024 
L 517.702901 147.096004 
L 519.734622 122.779723 
L 520.764028 132.975666 
L 521.657985 151.239125 
L 523.933512 129.056222 
L 524.881649 131.057999 
L 526.154861 127.646028 
L 528.484568 143.177475 
L 529.107629 123.620568 
L 530.001586 130.656441 
L 531.193529 159.526357 
L 533.171071 131.293049 
L 534.688089 136.775619 
L 535.256971 140.238309 
L 537.667947 139.291258 
L 538.291008 135.487003 
L 539.510041 141.635052 
L 541.460493 124.949823 
L 542.571167 138.905378 
L 543.519304 145.447421 
L 544.548709 146.707556 
L 546.770057 138.66967 
L 547.447298 150.096445 
L 548.612151 147.809865 
L 550.562603 137.926121 
L 551.727457 137.900442 
L 552.838131 142.900121 
L 555.059479 130.429225 
L 555.73672 139.627542 
L 556.44105 155.311247 
L 557.605903 150.814256 
L 560.016879 150.046479 
L 561.181732 163.553172 
L 562.156958 154.159376 
L 564.026141 156.401205 
L 565.190995 160.934026 
L 566.084952 177.07039 
L 568.577197 141.883034 
L 569.471154 178.268377 
L 570.500559 181.880572 
L 571.448696 190.773736 
L 573.480417 178.046255 
L 574.564001 187.904379 
L 575.457959 206.327979 
L 577.48968 195.888481 
L 578.519085 197.29221 
L 579.54849 209.943228 
L 582.799244 217.150725 
L 583.828649 223.079571 
L 586.239625 211.368122 
L 586.998134 206.401768 
L 587.946271 233.361921 
L 588.921497 224.095634 
L 591.007397 233.523004 
L 592.090982 236.73653 
L 593.201656 237.451779 
L 595.152108 214.486579 
L 596.371141 223.190643 
L 597.210919 237.735783 
L 598.429952 217.225916 
L 600.244956 213.586391 
L 601.057644 217.164787 
L 602.385035 202.408138 
L 604.714742 191.723464 
L 605.635789 178.567539 
L 606.773553 201.60416 
L 608.778184 178.294569 
L 610.024306 186.848775 
L 610.647368 190.005524 
L 613.058343 176.437581 
L 613.97939 165.580505 
L 614.846258 164.228597 
L 615.902753 172.354288 
L 618.124101 158.39029 
L 619.126417 164.79579 
L 620.182912 150.468958 
L 622.458439 145.061903 
L 623.027321 151.023128 
L 624.327623 152.451984 
L 625.167401 151.413919 
L 627.551287 142.837821 
L 628.255617 136.326155 
L 629.285022 142.55435 
L 631.343833 141.544015 
L 632.617045 138.805002 
L 633.700629 142.319762 
L 635.569813 140.871563 
L 636.545039 134.163462 
L 637.493175 136.704681 
L 639.822882 135.590788 
L 641.990051 140.501133 
L 642.829829 157.562289 
L 644.942819 149.527569 
L 645.836776 141.382778 
L 646.866182 156.744063 
L 648.952082 133.285048 
L 650.144025 142.700753 
L 651.146341 160.591896 
L 651.850671 151.961261 
L 654.397094 128.921052 
L 655.209783 144.062916 
L 656.347547 138.290186 
L 658.352178 147.203267 
L 659.381583 135.690121 
L 660.32972 165.387209 
L 662.632337 146.962856 
L 663.390846 151.404841 
L 664.203535 146.37307 
L 666.560331 129.789591 
L 667.698095 144.362348 
L 668.537873 148.11285 
L 669.702726 139.980125 
L 671.653179 156.350195 
L 672.601315 145.677145 
L 673.441093 144.967084 
L 675.635352 154.74589 
L 676.637668 143.627158 
L 677.585804 146.486481 
L 679.102823 148.829823 
L 680.944916 132.591992 
L 681.811784 145.196739 
L 682.895369 144.661515 
L 684.9 142.800255 
L 684.9 142.800255 
" style="fill:none;stroke:#1f77b4;stroke-linecap:square;stroke-width:3;"/>
    <defs>
     <path d="M -4 4 
L 4 -4 
M -4 -4 
L 4 4 
" id="m443da9e78e" style="stroke:#1f77b4;stroke-width:2;"/>
    </defs>
    <g clip-path="url(#pe381fadf08)">
     <use style="fill:#1f77b4;stroke:#1f77b4;stroke-width:2;" x="126.9" xlink:href="#m443da9e78e" y="149.188107"/>
     <use style="fill:#1f77b4;stroke:#1f77b4;stroke-width:2;" x="128.996736" xlink:href="#m443da9e78e" y="143.886699"/>
     <use style="fill:#1f77b4;stroke:#1f77b4;stroke-width:2;" x="129.887984" xlink:href="#m443da9e78e" y="146.070084"/>
     <use style="fill:#1f77b4;stroke:#1f77b4;stroke-width:2;" x="130.689837" xlink:href="#m443da9e78e" y="130.468044"/>
     <use style="fill:#1f77b4;stroke:#1f77b4;stroke-width:2;" x="131.984721" xlink:href="#m443da9e78e" y="138.239179"/>
     <use style="fill:#1f77b4;stroke:#1f77b4;stroke-width:2;" x="134.1248" xlink:href="#m443da9e78e" y="109.855979"/>
     <use style="fill:#1f77b4;stroke:#1f77b4;stroke-width:2;" x="135.240892" xlink:href="#m443da9e78e" y="138.17649"/>
     <use style="fill:#1f77b4;stroke:#1f77b4;stroke-width:2;" x="136.132141" xlink:href="#m443da9e78e" y="128.871202"/>
     <use style="fill:#1f77b4;stroke:#1f77b4;stroke-width:2;" x="138.361616" xlink:href="#m443da9e78e" y="117.818293"/>
     <use style="fill:#1f77b4;stroke:#1f77b4;stroke-width:2;" x="139.252864" xlink:href="#m443da9e78e" y="117.385401"/>
     <use style="fill:#1f77b4;stroke:#1f77b4;stroke-width:2;" x="140.368956" xlink:href="#m443da9e78e" y="129.717975"/>
     <use style="fill:#1f77b4;stroke:#1f77b4;stroke-width:2;" x="141.3496" xlink:href="#m443da9e78e" y="131.177756"/>
     <use style="fill:#1f77b4;stroke:#1f77b4;stroke-width:2;" x="143.535732" xlink:href="#m443da9e78e" y="117.514177"/>
     <use style="fill:#1f77b4;stroke:#1f77b4;stroke-width:2;" x="144.337585" xlink:href="#m443da9e78e" y="155.39643"/>
     <use style="fill:#1f77b4;stroke:#1f77b4;stroke-width:2;" x="145.632468" xlink:href="#m443da9e78e" y="160.152207"/>
     <use style="fill:#1f77b4;stroke:#1f77b4;stroke-width:2;" x="147.861943" xlink:href="#m443da9e78e" y="145.94528"/>
     <use style="fill:#1f77b4;stroke:#1f77b4;stroke-width:2;" x="148.5744" xlink:href="#m443da9e78e" y="159.255571"/>
     <use style="fill:#1f77b4;stroke:#1f77b4;stroke-width:2;" x="149.647149" xlink:href="#m443da9e78e" y="182.539854"/>
     <use style="fill:#1f77b4;stroke:#1f77b4;stroke-width:2;" x="151.876624" xlink:href="#m443da9e78e" y="188.195696"/>
     <use style="fill:#1f77b4;stroke:#1f77b4;stroke-width:2;" x="152.811216" xlink:href="#m443da9e78e" y="196.092513"/>
     <use style="fill:#1f77b4;stroke:#1f77b4;stroke-width:2;" x="153.480329" xlink:href="#m443da9e78e" y="193.675632"/>
     <use style="fill:#1f77b4;stroke:#1f77b4;stroke-width:2;" x="156.202836" xlink:href="#m443da9e78e" y="208.385843"/>
     <use style="fill:#1f77b4;stroke:#1f77b4;stroke-width:2;" x="157.362271" xlink:href="#m443da9e78e" y="219.765304"/>
     <use style="fill:#1f77b4;stroke:#1f77b4;stroke-width:2;" x="157.985332" xlink:href="#m443da9e78e" y="235.387439"/>
     <use style="fill:#1f77b4;stroke:#1f77b4;stroke-width:2;" x="158.87929" xlink:href="#m443da9e78e" y="240.960621"/>
     <use style="fill:#1f77b4;stroke:#1f77b4;stroke-width:2;" x="161.198161" xlink:href="#m443da9e78e" y="229.691435"/>
     <use style="fill:#1f77b4;stroke:#1f77b4;stroke-width:2;" x="162.178805" xlink:href="#m443da9e78e" y="234.805901"/>
     <use style="fill:#1f77b4;stroke:#1f77b4;stroke-width:2;" x="163.026709" xlink:href="#m443da9e78e" y="231.421323"/>
     <use style="fill:#1f77b4;stroke:#1f77b4;stroke-width:2;" x="165.256185" xlink:href="#m443da9e78e" y="224.635726"/>
     <use style="fill:#1f77b4;stroke:#1f77b4;stroke-width:2;" x="166.683807" xlink:href="#m443da9e78e" y="229.991028"/>
     <use style="fill:#1f77b4;stroke:#1f77b4;stroke-width:2;" x="167.442317" xlink:href="#m443da9e78e" y="235.824814"/>
     <use style="fill:#1f77b4;stroke:#1f77b4;stroke-width:2;" x="169.671792" xlink:href="#m443da9e78e" y="212.918833"/>
     <use style="fill:#1f77b4;stroke:#1f77b4;stroke-width:2;" x="170.741832" xlink:href="#m443da9e78e" y="226.319197"/>
     <use style="fill:#1f77b4;stroke:#1f77b4;stroke-width:2;" x="171.500341" xlink:href="#m443da9e78e" y="227.538222"/>
     <use style="fill:#1f77b4;stroke:#1f77b4;stroke-width:2;" x="172.570381" xlink:href="#m443da9e78e" y="227.37392"/>
     <use style="fill:#1f77b4;stroke:#1f77b4;stroke-width:2;" x="174.577721" xlink:href="#m443da9e78e" y="223.010219"/>
     <use style="fill:#1f77b4;stroke:#1f77b4;stroke-width:2;" x="175.826552" xlink:href="#m443da9e78e" y="215.173204"/>
     <use style="fill:#1f77b4;stroke:#1f77b4;stroke-width:2;" x="176.362927" xlink:href="#m443da9e78e" y="230.742077"/>
     <use style="fill:#1f77b4;stroke:#1f77b4;stroke-width:2;" x="179.126067" xlink:href="#m443da9e78e" y="220.364192"/>
     <use style="fill:#1f77b4;stroke:#1f77b4;stroke-width:2;" x="179.973972" xlink:href="#m443da9e78e" y="202.942961"/>
     <use style="fill:#1f77b4;stroke:#1f77b4;stroke-width:2;" x="180.464294" xlink:href="#m443da9e78e" y="220.893217"/>
     <use style="fill:#1f77b4;stroke:#1f77b4;stroke-width:2;" x="183.140748" xlink:href="#m443da9e78e" y="194.774764"/>
     <use style="fill:#1f77b4;stroke:#1f77b4;stroke-width:2;" x="184.210788" xlink:href="#m443da9e78e" y="182.908345"/>
     <use style="fill:#1f77b4;stroke:#1f77b4;stroke-width:2;" x="185.015349" xlink:href="#m443da9e78e" y="176.782163"/>
     <use style="fill:#1f77b4;stroke:#1f77b4;stroke-width:2;" x="186.218128" xlink:href="#m443da9e78e" y="177.686969"/>
     <use style="fill:#1f77b4;stroke:#1f77b4;stroke-width:2;" x="188.182125" xlink:href="#m443da9e78e" y="141.059086"/>
     <use style="fill:#1f77b4;stroke:#1f77b4;stroke-width:2;" x="188.983978" xlink:href="#m443da9e78e" y="148.322987"/>
     <use style="fill:#1f77b4;stroke:#1f77b4;stroke-width:2;" x="189.78583" xlink:href="#m443da9e78e" y="146.57072"/>
     <use style="fill:#1f77b4;stroke:#1f77b4;stroke-width:2;" x="192.595023" xlink:href="#m443da9e78e" y="139.122637"/>
     <use style="fill:#1f77b4;stroke:#1f77b4;stroke-width:2;" x="193.62172" xlink:href="#m443da9e78e" y="133.866912"/>
     <use style="fill:#1f77b4;stroke:#1f77b4;stroke-width:2;" x="194.201437" xlink:href="#m443da9e78e" y="137.628372"/>
     <use style="fill:#1f77b4;stroke:#1f77b4;stroke-width:2;" x="196.745152" xlink:href="#m443da9e78e" y="108.661434"/>
     <use style="fill:#1f77b4;stroke:#1f77b4;stroke-width:2;" x="197.636401" xlink:href="#m443da9e78e" y="101.726025"/>
     <use style="fill:#1f77b4;stroke:#1f77b4;stroke-width:2;" x="198.39491" xlink:href="#m443da9e78e" y="117.951298"/>
     <use style="fill:#1f77b4;stroke:#1f77b4;stroke-width:2;" x="199.733137" xlink:href="#m443da9e78e" y="106.332123"/>
     <use style="fill:#1f77b4;stroke:#1f77b4;stroke-width:2;" x="201.694425" xlink:href="#m443da9e78e" y="102.530247"/>
     <use style="fill:#1f77b4;stroke:#1f77b4;stroke-width:2;" x="202.764465" xlink:href="#m443da9e78e" y="103.467117"/>
     <use style="fill:#1f77b4;stroke:#1f77b4;stroke-width:2;" x="203.747818" xlink:href="#m443da9e78e" y="109.337865"/>
     <use style="fill:#1f77b4;stroke:#1f77b4;stroke-width:2;" x="206.066689" xlink:href="#m443da9e78e" y="98.79443"/>
     <use style="fill:#1f77b4;stroke:#1f77b4;stroke-width:2;" x="206.735802" xlink:href="#m443da9e78e" y="99.567414"/>
     <use style="fill:#1f77b4;stroke:#1f77b4;stroke-width:2;" x="208.027977" xlink:href="#m443da9e78e" y="101.328518"/>
     <use style="fill:#1f77b4;stroke:#1f77b4;stroke-width:2;" x="210.214108" xlink:href="#m443da9e78e" y="102.460119"/>
     <use style="fill:#1f77b4;stroke:#1f77b4;stroke-width:2;" x="211.327492" xlink:href="#m443da9e78e" y="78.12"/>
     <use style="fill:#1f77b4;stroke:#1f77b4;stroke-width:2;" x="211.731127" xlink:href="#m443da9e78e" y="100.539268"/>
     <use style="fill:#1f77b4;stroke:#1f77b4;stroke-width:2;" x="213.112697" xlink:href="#m443da9e78e" y="97.080166"/>
     <use style="fill:#1f77b4;stroke:#1f77b4;stroke-width:2;" x="215.030642" xlink:href="#m443da9e78e" y="99.426062"/>
     <use style="fill:#1f77b4;stroke:#1f77b4;stroke-width:2;" x="216.279473" xlink:href="#m443da9e78e" y="105.597992"/>
     <use style="fill:#1f77b4;stroke:#1f77b4;stroke-width:2;" x="217.170721" xlink:href="#m443da9e78e" y="91.351928"/>
     <use style="fill:#1f77b4;stroke:#1f77b4;stroke-width:2;" x="218.955927" xlink:href="#m443da9e78e" y="98.744082"/>
     <use style="fill:#1f77b4;stroke:#1f77b4;stroke-width:2;" x="220.294154" xlink:href="#m443da9e78e" y="97.482863"/>
     <use style="fill:#1f77b4;stroke:#1f77b4;stroke-width:2;" x="221.407537" xlink:href="#m443da9e78e" y="90.780051"/>
     <use style="fill:#1f77b4;stroke:#1f77b4;stroke-width:2;" x="223.639721" xlink:href="#m443da9e78e" y="101.960919"/>
     <use style="fill:#1f77b4;stroke:#1f77b4;stroke-width:2;" x="224.574313" xlink:href="#m443da9e78e" y="107.484518"/>
     <use style="fill:#1f77b4;stroke:#1f77b4;stroke-width:2;" x="225.511614" xlink:href="#m443da9e78e" y="97.226654"/>
     <use style="fill:#1f77b4;stroke:#1f77b4;stroke-width:2;" x="226.849841" xlink:href="#m443da9e78e" y="113.688212"/>
     <use style="fill:#1f77b4;stroke:#1f77b4;stroke-width:2;" x="228.857181" xlink:href="#m443da9e78e" y="98.934743"/>
     <use style="fill:#1f77b4;stroke:#1f77b4;stroke-width:2;" x="229.659034" xlink:href="#m443da9e78e" y="98.4032"/>
     <use style="fill:#1f77b4;stroke:#1f77b4;stroke-width:2;" x="230.818469" xlink:href="#m443da9e78e" y="104.589713"/>
     <use style="fill:#1f77b4;stroke:#1f77b4;stroke-width:2;" x="232.825809" xlink:href="#m443da9e78e" y="103.094547"/>
     <use style="fill:#1f77b4;stroke:#1f77b4;stroke-width:2;" x="233.630371" xlink:href="#m443da9e78e" y="113.695556"/>
     <use style="fill:#1f77b4;stroke:#1f77b4;stroke-width:2;" x="234.654358" xlink:href="#m443da9e78e" y="107.129966"/>
     <use style="fill:#1f77b4;stroke:#1f77b4;stroke-width:2;" x="237.062625" xlink:href="#m443da9e78e" y="96.068201"/>
     <use style="fill:#1f77b4;stroke:#1f77b4;stroke-width:2;" x="237.867187" xlink:href="#m443da9e78e" y="99.827483"/>
     <use style="fill:#1f77b4;stroke:#1f77b4;stroke-width:2;" x="238.891174" xlink:href="#m443da9e78e" y="97.636299"/>
     <use style="fill:#1f77b4;stroke:#1f77b4;stroke-width:2;" x="239.828475" xlink:href="#m443da9e78e" y="104.979234"/>
     <use style="fill:#1f77b4;stroke:#1f77b4;stroke-width:2;" x="241.835815" xlink:href="#m443da9e78e" y="102.97414"/>
     <use style="fill:#1f77b4;stroke:#1f77b4;stroke-width:2;" x="243.084646" xlink:href="#m443da9e78e" y="119.40914"/>
     <use style="fill:#1f77b4;stroke:#1f77b4;stroke-width:2;" x="244.021947" xlink:href="#m443da9e78e" y="90.669997"/>
     <use style="fill:#1f77b4;stroke:#1f77b4;stroke-width:2;" x="246.251422" xlink:href="#m443da9e78e" y="93.682578"/>
     <use style="fill:#1f77b4;stroke:#1f77b4;stroke-width:2;" x="247.454201" xlink:href="#m443da9e78e" y="112.529177"/>
     <use style="fill:#1f77b4;stroke:#1f77b4;stroke-width:2;" x="248.480897" xlink:href="#m443da9e78e" y="119.045783"/>
     <use style="fill:#1f77b4;stroke:#1f77b4;stroke-width:2;" x="250.531581" xlink:href="#m443da9e78e" y="89.294713"/>
     <use style="fill:#1f77b4;stroke:#1f77b4;stroke-width:2;" x="251.514934" xlink:href="#m443da9e78e" y="98.274939"/>
     <use style="fill:#1f77b4;stroke:#1f77b4;stroke-width:2;" x="252.316787" xlink:href="#m443da9e78e" y="117.477457"/>
     <use style="fill:#1f77b4;stroke:#1f77b4;stroke-width:2;" x="254.725054" xlink:href="#m443da9e78e" y="103.018062"/>
     <use style="fill:#1f77b4;stroke:#1f77b4;stroke-width:2;" x="255.662354" xlink:href="#m443da9e78e" y="89.729944"/>
     <use style="fill:#1f77b4;stroke:#1f77b4;stroke-width:2;" x="256.420863" xlink:href="#m443da9e78e" y="106.90247"/>
     <use style="fill:#1f77b4;stroke:#1f77b4;stroke-width:2;" x="257.713038" xlink:href="#m443da9e78e" y="106.814219"/>
     <use style="fill:#1f77b4;stroke:#1f77b4;stroke-width:2;" x="259.809774" xlink:href="#m443da9e78e" y="96.485053"/>
     <use style="fill:#1f77b4;stroke:#1f77b4;stroke-width:2;" x="260.83647" xlink:href="#m443da9e78e" y="95.930423"/>
     <use style="fill:#1f77b4;stroke:#1f77b4;stroke-width:2;" x="261.771062" xlink:href="#m443da9e78e" y="98.25631"/>
     <use style="fill:#1f77b4;stroke:#1f77b4;stroke-width:2;" x="264.314777" xlink:href="#m443da9e78e" y="93.490232"/>
     <use style="fill:#1f77b4;stroke:#1f77b4;stroke-width:2;" x="265.027234" xlink:href="#m443da9e78e" y="86.100205"/>
     <use style="fill:#1f77b4;stroke:#1f77b4;stroke-width:2;" x="265.921191" xlink:href="#m443da9e78e" y="111.10867"/>
     <use style="fill:#1f77b4;stroke:#1f77b4;stroke-width:2;" x="267.12397" xlink:href="#m443da9e78e" y="109.119851"/>
     <use style="fill:#1f77b4;stroke:#1f77b4;stroke-width:2;" x="268.952519" xlink:href="#m443da9e78e" y="102.520728"/>
     <use style="fill:#1f77b4;stroke:#1f77b4;stroke-width:2;" x="270.158007" xlink:href="#m443da9e78e" y="111.667061"/>
     <use style="fill:#1f77b4;stroke:#1f77b4;stroke-width:2;" x="271.092598" xlink:href="#m443da9e78e" y="95.795937"/>
     <use style="fill:#1f77b4;stroke:#1f77b4;stroke-width:2;" x="273.235387" xlink:href="#m443da9e78e" y="109.17925"/>
     <use style="fill:#1f77b4;stroke:#1f77b4;stroke-width:2;" x="274.305427" xlink:href="#m443da9e78e" y="112.46851"/>
     <use style="fill:#1f77b4;stroke:#1f77b4;stroke-width:2;" x="275.242727" xlink:href="#m443da9e78e" y="112.225905"/>
     <use style="fill:#1f77b4;stroke:#1f77b4;stroke-width:2;" x="277.74039" xlink:href="#m443da9e78e" y="120.488164"/>
     <use style="fill:#1f77b4;stroke:#1f77b4;stroke-width:2;" x="278.274055" xlink:href="#m443da9e78e" y="105.228488"/>
     <use style="fill:#1f77b4;stroke:#1f77b4;stroke-width:2;" x="279.433491" xlink:href="#m443da9e78e" y="130.203238"/>
     <use style="fill:#1f77b4;stroke:#1f77b4;stroke-width:2;" x="281.662966" xlink:href="#m443da9e78e" y="129.030558"/>
     <use style="fill:#1f77b4;stroke:#1f77b4;stroke-width:2;" x="282.510871" xlink:href="#m443da9e78e" y="120.321707"/>
     <use style="fill:#1f77b4;stroke:#1f77b4;stroke-width:2;" x="283.626963" xlink:href="#m443da9e78e" y="127.5325"/>
     <use style="fill:#1f77b4;stroke:#1f77b4;stroke-width:2;" x="284.428815" xlink:href="#m443da9e78e" y="134.879216"/>
     <use style="fill:#1f77b4;stroke:#1f77b4;stroke-width:2;" x="286.883135" xlink:href="#m443da9e78e" y="124.982138"/>
     <use style="fill:#1f77b4;stroke:#1f77b4;stroke-width:2;" x="287.817726" xlink:href="#m443da9e78e" y="149.232132"/>
     <use style="fill:#1f77b4;stroke:#1f77b4;stroke-width:2;" x="288.665631" xlink:href="#m443da9e78e" y="162.894536"/>
     <use style="fill:#1f77b4;stroke:#1f77b4;stroke-width:2;" x="290.941159" xlink:href="#m443da9e78e" y="151.924759"/>
     <use style="fill:#1f77b4;stroke:#1f77b4;stroke-width:2;" x="291.789064" xlink:href="#m443da9e78e" y="179.021911"/>
     <use style="fill:#1f77b4;stroke:#1f77b4;stroke-width:2;" x="292.991843" xlink:href="#m443da9e78e" y="189.828977"/>
     <use style="fill:#1f77b4;stroke:#1f77b4;stroke-width:2;" x="293.8858" xlink:href="#m443da9e78e" y="194.044027"/>
     <use style="fill:#1f77b4;stroke:#1f77b4;stroke-width:2;" x="296.248014" xlink:href="#m443da9e78e" y="227.110449"/>
     <use style="fill:#1f77b4;stroke:#1f77b4;stroke-width:2;" x="296.917128" xlink:href="#m443da9e78e" y="260.030722"/>
     <use style="fill:#1f77b4;stroke:#1f77b4;stroke-width:2;" x="298.165959" xlink:href="#m443da9e78e" y="283.836398"/>
     <use style="fill:#1f77b4;stroke:#1f77b4;stroke-width:2;" x="300.441486" xlink:href="#m443da9e78e" y="292.661728"/>
     <use style="fill:#1f77b4;stroke:#1f77b4;stroke-width:2;" x="301.55487" xlink:href="#m443da9e78e" y="348.944583"/>
     <use style="fill:#1f77b4;stroke:#1f77b4;stroke-width:2;" x="302.134587" xlink:href="#m443da9e78e" y="366.774235"/>
     <use style="fill:#1f77b4;stroke:#1f77b4;stroke-width:2;" x="304.63225" xlink:href="#m443da9e78e" y="396.112271"/>
     <use style="fill:#1f77b4;stroke:#1f77b4;stroke-width:2;" x="305.301363" xlink:href="#m443da9e78e" y="428.922674"/>
     <use style="fill:#1f77b4;stroke:#1f77b4;stroke-width:2;" x="306.539359" xlink:href="#m443da9e78e" y="418.886786"/>
     <use style="fill:#1f77b4;stroke:#1f77b4;stroke-width:2;" x="308.652348" xlink:href="#m443da9e78e" y="430.92"/>
     <use style="fill:#1f77b4;stroke:#1f77b4;stroke-width:2;" x="309.627575" xlink:href="#m443da9e78e" y="413.961883"/>
     <use style="fill:#1f77b4;stroke:#1f77b4;stroke-width:2;" x="310.873697" xlink:href="#m443da9e78e" y="397.014192"/>
     <use style="fill:#1f77b4;stroke:#1f77b4;stroke-width:2;" x="311.686385" xlink:href="#m443da9e78e" y="370.109569"/>
     <use style="fill:#1f77b4;stroke:#1f77b4;stroke-width:2;" x="314.097361" xlink:href="#m443da9e78e" y="356.998859"/>
     <use style="fill:#1f77b4;stroke:#1f77b4;stroke-width:2;" x="314.612064" xlink:href="#m443da9e78e" y="339.256111"/>
     <use style="fill:#1f77b4;stroke:#1f77b4;stroke-width:2;" x="316.101992" xlink:href="#m443da9e78e" y="299.939149"/>
     <use style="fill:#1f77b4;stroke:#1f77b4;stroke-width:2;" x="317.916997" xlink:href="#m443da9e78e" y="273.616251"/>
     <use style="fill:#1f77b4;stroke:#1f77b4;stroke-width:2;" x="319.136029" xlink:href="#m443da9e78e" y="247.716192"/>
     <use style="fill:#1f77b4;stroke:#1f77b4;stroke-width:2;" x="319.840359" xlink:href="#m443da9e78e" y="223.846361"/>
     <use style="fill:#1f77b4;stroke:#1f77b4;stroke-width:2;" x="321.005213" xlink:href="#m443da9e78e" y="216.346784"/>
     <use style="fill:#1f77b4;stroke:#1f77b4;stroke-width:2;" x="322.820217" xlink:href="#m443da9e78e" y="205.608681"/>
     <use style="fill:#1f77b4;stroke:#1f77b4;stroke-width:2;" x="324.201787" xlink:href="#m443da9e78e" y="196.223043"/>
     <use style="fill:#1f77b4;stroke:#1f77b4;stroke-width:2;" x="325.204103" xlink:href="#m443da9e78e" y="174.272386"/>
     <use style="fill:#1f77b4;stroke:#1f77b4;stroke-width:2;" x="327.696347" xlink:href="#m443da9e78e" y="164.405662"/>
     <use style="fill:#1f77b4;stroke:#1f77b4;stroke-width:2;" x="328.373588" xlink:href="#m443da9e78e" y="156.403658"/>
     <use style="fill:#1f77b4;stroke:#1f77b4;stroke-width:2;" x="329.565531" xlink:href="#m443da9e78e" y="173.239809"/>
     <use style="fill:#1f77b4;stroke:#1f77b4;stroke-width:2;" x="331.624341" xlink:href="#m443da9e78e" y="148.918736"/>
     <use style="fill:#1f77b4;stroke:#1f77b4;stroke-width:2;" x="332.464119" xlink:href="#m443da9e78e" y="141.730263"/>
     <use style="fill:#1f77b4;stroke:#1f77b4;stroke-width:2;" x="333.439345" xlink:href="#m443da9e78e" y="135.616806"/>
     <use style="fill:#1f77b4;stroke:#1f77b4;stroke-width:2;" x="335.714873" xlink:href="#m443da9e78e" y="145.277174"/>
     <use style="fill:#1f77b4;stroke:#1f77b4;stroke-width:2;" x="336.825547" xlink:href="#m443da9e78e" y="135.696845"/>
     <use style="fill:#1f77b4;stroke:#1f77b4;stroke-width:2;" x="337.584056" xlink:href="#m443da9e78e" y="147.130422"/>
     <use style="fill:#1f77b4;stroke:#1f77b4;stroke-width:2;" x="338.74891" xlink:href="#m443da9e78e" y="125.807284"/>
     <use style="fill:#1f77b4;stroke:#1f77b4;stroke-width:2;" x="340.8619" xlink:href="#m443da9e78e" y="118.710425"/>
     <use style="fill:#1f77b4;stroke:#1f77b4;stroke-width:2;" x="342.053843" xlink:href="#m443da9e78e" y="121.826596"/>
     <use style="fill:#1f77b4;stroke:#1f77b4;stroke-width:2;" x="342.893621" xlink:href="#m443da9e78e" y="134.740492"/>
     <use style="fill:#1f77b4;stroke:#1f77b4;stroke-width:2;" x="345.0337" xlink:href="#m443da9e78e" y="120.532916"/>
     <use style="fill:#1f77b4;stroke:#1f77b4;stroke-width:2;" x="345.927658" xlink:href="#m443da9e78e" y="128.438926"/>
     <use style="fill:#1f77b4;stroke:#1f77b4;stroke-width:2;" x="346.794525" xlink:href="#m443da9e78e" y="145.564979"/>
     <use style="fill:#1f77b4;stroke:#1f77b4;stroke-width:2;" x="349.422218" xlink:href="#m443da9e78e" y="133.686312"/>
     <use style="fill:#1f77b4;stroke:#1f77b4;stroke-width:2;" x="350.126548" xlink:href="#m443da9e78e" y="122.975996"/>
     <use style="fill:#1f77b4;stroke:#1f77b4;stroke-width:2;" x="351.210132" xlink:href="#m443da9e78e" y="126.893695"/>
     <use style="fill:#1f77b4;stroke:#1f77b4;stroke-width:2;" x="351.941552" xlink:href="#m443da9e78e" y="145.155357"/>
     <use style="fill:#1f77b4;stroke:#1f77b4;stroke-width:2;" x="354.21708" xlink:href="#m443da9e78e" y="142.965779"/>
     <use style="fill:#1f77b4;stroke:#1f77b4;stroke-width:2;" x="355.111037" xlink:href="#m443da9e78e" y="126.026845"/>
     <use style="fill:#1f77b4;stroke:#1f77b4;stroke-width:2;" x="356.411338" xlink:href="#m443da9e78e" y="150.425236"/>
     <use style="fill:#1f77b4;stroke:#1f77b4;stroke-width:2;" x="358.470149" xlink:href="#m443da9e78e" y="147.790739"/>
     <use style="fill:#1f77b4;stroke:#1f77b4;stroke-width:2;" x="359.282837" xlink:href="#m443da9e78e" y="131.529657"/>
     <use style="fill:#1f77b4;stroke:#1f77b4;stroke-width:2;" x="360.393512" xlink:href="#m443da9e78e" y="130.577298"/>
     <use style="fill:#1f77b4;stroke:#1f77b4;stroke-width:2;" x="362.669039" xlink:href="#m443da9e78e" y="128.13908"/>
     <use style="fill:#1f77b4;stroke:#1f77b4;stroke-width:2;" x="363.427548" xlink:href="#m443da9e78e" y="150.54536"/>
     <use style="fill:#1f77b4;stroke:#1f77b4;stroke-width:2;" x="364.70076" xlink:href="#m443da9e78e" y="143.573929"/>
     <use style="fill:#1f77b4;stroke:#1f77b4;stroke-width:2;" x="365.648897" xlink:href="#m443da9e78e" y="141.766157"/>
     <use style="fill:#1f77b4;stroke:#1f77b4;stroke-width:2;" x="367.734797" xlink:href="#m443da9e78e" y="134.153755"/>
     <use style="fill:#1f77b4;stroke:#1f77b4;stroke-width:2;" x="368.682934" xlink:href="#m443da9e78e" y="157.043943"/>
     <use style="fill:#1f77b4;stroke:#1f77b4;stroke-width:2;" x="369.576891" xlink:href="#m443da9e78e" y="146.689471"/>
     <use style="fill:#1f77b4;stroke:#1f77b4;stroke-width:2;" x="372.150404" xlink:href="#m443da9e78e" y="148.034502"/>
     <use style="fill:#1f77b4;stroke:#1f77b4;stroke-width:2;" x="372.827645" xlink:href="#m443da9e78e" y="135.122305"/>
     <use style="fill:#1f77b4;stroke:#1f77b4;stroke-width:2;" x="373.938319" xlink:href="#m443da9e78e" y="151.977774"/>
     <use style="fill:#1f77b4;stroke:#1f77b4;stroke-width:2;" x="376.078398" xlink:href="#m443da9e78e" y="150.416881"/>
     <use style="fill:#1f77b4;stroke:#1f77b4;stroke-width:2;" x="376.809818" xlink:href="#m443da9e78e" y="145.972819"/>
     <use style="fill:#1f77b4;stroke:#1f77b4;stroke-width:2;" x="377.947582" xlink:href="#m443da9e78e" y="153.53791"/>
     <use style="fill:#1f77b4;stroke:#1f77b4;stroke-width:2;" x="378.976987" xlink:href="#m443da9e78e" y="162.083624"/>
     <use style="fill:#1f77b4;stroke:#1f77b4;stroke-width:2;" x="380.954529" xlink:href="#m443da9e78e" y="141.666519"/>
     <use style="fill:#1f77b4;stroke:#1f77b4;stroke-width:2;" x="382.200651" xlink:href="#m443da9e78e" y="157.177397"/>
     <use style="fill:#1f77b4;stroke:#1f77b4;stroke-width:2;" x="382.904981" xlink:href="#m443da9e78e" y="157.432605"/>
     <use style="fill:#1f77b4;stroke:#1f77b4;stroke-width:2;" x="385.180509" xlink:href="#m443da9e78e" y="152.169429"/>
     <use style="fill:#1f77b4;stroke:#1f77b4;stroke-width:2;" x="386.155735" xlink:href="#m443da9e78e" y="147.649553"/>
     <use style="fill:#1f77b4;stroke:#1f77b4;stroke-width:2;" x="387.266409" xlink:href="#m443da9e78e" y="164.349778"/>
     <use style="fill:#1f77b4;stroke:#1f77b4;stroke-width:2;" x="389.29813" xlink:href="#m443da9e78e" y="138.768111"/>
     <use style="fill:#1f77b4;stroke:#1f77b4;stroke-width:2;" x="390.300446" xlink:href="#m443da9e78e" y="154.193084"/>
     <use style="fill:#1f77b4;stroke:#1f77b4;stroke-width:2;" x="391.302761" xlink:href="#m443da9e78e" y="160.615057"/>
     <use style="fill:#1f77b4;stroke:#1f77b4;stroke-width:2;" x="392.359256" xlink:href="#m443da9e78e" y="162.026519"/>
     <use style="fill:#1f77b4;stroke:#1f77b4;stroke-width:2;" x="394.553515" xlink:href="#m443da9e78e" y="141.576688"/>
     <use style="fill:#1f77b4;stroke:#1f77b4;stroke-width:2;" x="395.474562" xlink:href="#m443da9e78e" y="150.966894"/>
     <use style="fill:#1f77b4;stroke:#1f77b4;stroke-width:2;" x="396.503967" xlink:href="#m443da9e78e" y="145.846476"/>
     <use style="fill:#1f77b4;stroke:#1f77b4;stroke-width:2;" x="398.779495" xlink:href="#m443da9e78e" y="162.776992"/>
     <use style="fill:#1f77b4;stroke:#1f77b4;stroke-width:2;" x="399.754721" xlink:href="#m443da9e78e" y="151.389815"/>
     <use style="fill:#1f77b4;stroke:#1f77b4;stroke-width:2;" x="400.892485" xlink:href="#m443da9e78e" y="154.207994"/>
     <use style="fill:#1f77b4;stroke:#1f77b4;stroke-width:2;" x="402.924206" xlink:href="#m443da9e78e" y="157.607627"/>
     <use style="fill:#1f77b4;stroke:#1f77b4;stroke-width:2;" x="403.872342" xlink:href="#m443da9e78e" y="153.186852"/>
     <use style="fill:#1f77b4;stroke:#1f77b4;stroke-width:2;" x="404.820479" xlink:href="#m443da9e78e" y="160.000731"/>
     <use style="fill:#1f77b4;stroke:#1f77b4;stroke-width:2;" x="407.041827" xlink:href="#m443da9e78e" y="154.801939"/>
     <use style="fill:#1f77b4;stroke:#1f77b4;stroke-width:2;" x="408.342129" xlink:href="#m443da9e78e" y="156.018312"/>
     <use style="fill:#1f77b4;stroke:#1f77b4;stroke-width:2;" x="409.181907" xlink:href="#m443da9e78e" y="168.319969"/>
     <use style="fill:#1f77b4;stroke:#1f77b4;stroke-width:2;" x="410.238402" xlink:href="#m443da9e78e" y="165.076345"/>
     <use style="fill:#1f77b4;stroke:#1f77b4;stroke-width:2;" x="411.945047" xlink:href="#m443da9e78e" y="155.668263"/>
     <use style="fill:#1f77b4;stroke:#1f77b4;stroke-width:2;" x="412.974453" xlink:href="#m443da9e78e" y="166.150189"/>
     <use style="fill:#1f77b4;stroke:#1f77b4;stroke-width:2;" x="414.274754" xlink:href="#m443da9e78e" y="171.806143"/>
     <use style="fill:#1f77b4;stroke:#1f77b4;stroke-width:2;" x="416.414834" xlink:href="#m443da9e78e" y="171.72073"/>
     <use style="fill:#1f77b4;stroke:#1f77b4;stroke-width:2;" x="417.335881" xlink:href="#m443da9e78e" y="171.958847"/>
     <use style="fill:#1f77b4;stroke:#1f77b4;stroke-width:2;" x="418.365286" xlink:href="#m443da9e78e" y="155.421445"/>
     <use style="fill:#1f77b4;stroke:#1f77b4;stroke-width:2;" x="419.123795" xlink:href="#m443da9e78e" y="134.711273"/>
     <use style="fill:#1f77b4;stroke:#1f77b4;stroke-width:2;" x="421.318054" xlink:href="#m443da9e78e" y="163.26834"/>
     <use style="fill:#1f77b4;stroke:#1f77b4;stroke-width:2;" x="422.564176" xlink:href="#m443da9e78e" y="158.126401"/>
     <use style="fill:#1f77b4;stroke:#1f77b4;stroke-width:2;" x="423.539402" xlink:href="#m443da9e78e" y="169.052088"/>
     <use style="fill:#1f77b4;stroke:#1f77b4;stroke-width:2;" x="425.625303" xlink:href="#m443da9e78e" y="155.865052"/>
     <use style="fill:#1f77b4;stroke:#1f77b4;stroke-width:2;" x="426.573439" xlink:href="#m443da9e78e" y="153.541435"/>
     <use style="fill:#1f77b4;stroke:#1f77b4;stroke-width:2;" x="427.738292" xlink:href="#m443da9e78e" y="173.869893"/>
     <use style="fill:#1f77b4;stroke:#1f77b4;stroke-width:2;" x="429.688745" xlink:href="#m443da9e78e" y="134.948986"/>
     <use style="fill:#1f77b4;stroke:#1f77b4;stroke-width:2;" x="430.772329" xlink:href="#m443da9e78e" y="149.291081"/>
     <use style="fill:#1f77b4;stroke:#1f77b4;stroke-width:2;" x="431.530838" xlink:href="#m443da9e78e" y="164.497957"/>
     <use style="fill:#1f77b4;stroke:#1f77b4;stroke-width:2;" x="433.968904" xlink:href="#m443da9e78e" y="143.335096"/>
     <use style="fill:#1f77b4;stroke:#1f77b4;stroke-width:2;" x="434.94413" xlink:href="#m443da9e78e" y="154.197247"/>
     <use style="fill:#1f77b4;stroke:#1f77b4;stroke-width:2;" x="435.892266" xlink:href="#m443da9e78e" y="147.328016"/>
     <use style="fill:#1f77b4;stroke:#1f77b4;stroke-width:2;" x="436.732044" xlink:href="#m443da9e78e" y="157.235667"/>
     <use style="fill:#1f77b4;stroke:#1f77b4;stroke-width:2;" x="439.251379" xlink:href="#m443da9e78e" y="155.460378"/>
     <use style="fill:#1f77b4;stroke:#1f77b4;stroke-width:2;" x="440.118246" xlink:href="#m443da9e78e" y="153.851241"/>
     <use style="fill:#1f77b4;stroke:#1f77b4;stroke-width:2;" x="441.147652" xlink:href="#m443da9e78e" y="152.919487"/>
     <use style="fill:#1f77b4;stroke:#1f77b4;stroke-width:2;" x="443.396089" xlink:href="#m443da9e78e" y="137.968926"/>
     <use style="fill:#1f77b4;stroke:#1f77b4;stroke-width:2;" x="444.181688" xlink:href="#m443da9e78e" y="159.612172"/>
     <use style="fill:#1f77b4;stroke:#1f77b4;stroke-width:2;" x="445.211094" xlink:href="#m443da9e78e" y="127.184407"/>
     <use style="fill:#1f77b4;stroke:#1f77b4;stroke-width:2;" x="446.375947" xlink:href="#m443da9e78e" y="147.403984"/>
     <use style="fill:#1f77b4;stroke:#1f77b4;stroke-width:2;" x="448.516027" xlink:href="#m443da9e78e" y="135.7001"/>
     <use style="fill:#1f77b4;stroke:#1f77b4;stroke-width:2;" x="449.545432" xlink:href="#m443da9e78e" y="141.476559"/>
     <use style="fill:#1f77b4;stroke:#1f77b4;stroke-width:2;" x="450.38521" xlink:href="#m443da9e78e" y="144.588363"/>
     <use style="fill:#1f77b4;stroke:#1f77b4;stroke-width:2;" x="452.606558" xlink:href="#m443da9e78e" y="147.802371"/>
     <use style="fill:#1f77b4;stroke:#1f77b4;stroke-width:2;" x="453.690143" xlink:href="#m443da9e78e" y="137.299187"/>
     <use style="fill:#1f77b4;stroke:#1f77b4;stroke-width:2;" x="454.313204" xlink:href="#m443da9e78e" y="146.996658"/>
     <use style="fill:#1f77b4;stroke:#1f77b4;stroke-width:2;" x="456.859628" xlink:href="#m443da9e78e" y="144.776625"/>
     <use style="fill:#1f77b4;stroke:#1f77b4;stroke-width:2;" x="457.618137" xlink:href="#m443da9e78e" y="139.66229"/>
     <use style="fill:#1f77b4;stroke:#1f77b4;stroke-width:2;" x="458.674632" xlink:href="#m443da9e78e" y="142.894332"/>
     <use style="fill:#1f77b4;stroke:#1f77b4;stroke-width:2;" x="460.868891" xlink:href="#m443da9e78e" y="117.081078"/>
     <use style="fill:#1f77b4;stroke:#1f77b4;stroke-width:2;" x="461.844117" xlink:href="#m443da9e78e" y="139.079891"/>
     <use style="fill:#1f77b4;stroke:#1f77b4;stroke-width:2;" x="462.819343" xlink:href="#m443da9e78e" y="134.095436"/>
     <use style="fill:#1f77b4;stroke:#1f77b4;stroke-width:2;" x="463.902927" xlink:href="#m443da9e78e" y="130.30284"/>
     <use style="fill:#1f77b4;stroke:#1f77b4;stroke-width:2;" x="466.232634" xlink:href="#m443da9e78e" y="118.878196"/>
     <use style="fill:#1f77b4;stroke:#1f77b4;stroke-width:2;" x="466.991143" xlink:href="#m443da9e78e" y="138.476039"/>
     <use style="fill:#1f77b4;stroke:#1f77b4;stroke-width:2;" x="467.91219" xlink:href="#m443da9e78e" y="125.012667"/>
     <use style="fill:#1f77b4;stroke:#1f77b4;stroke-width:2;" x="470.323166" xlink:href="#m443da9e78e" y="128.512664"/>
     <use style="fill:#1f77b4;stroke:#1f77b4;stroke-width:2;" x="471.135854" xlink:href="#m443da9e78e" y="107.104724"/>
     <use style="fill:#1f77b4;stroke:#1f77b4;stroke-width:2;" x="472.029812" xlink:href="#m443da9e78e" y="145.609761"/>
     <use style="fill:#1f77b4;stroke:#1f77b4;stroke-width:2;" x="473.303024" xlink:href="#m443da9e78e" y="128.70371"/>
     <use style="fill:#1f77b4;stroke:#1f77b4;stroke-width:2;" x="475.063848" xlink:href="#m443da9e78e" y="143.014269"/>
     <use style="fill:#1f77b4;stroke:#1f77b4;stroke-width:2;" x="476.201612" xlink:href="#m443da9e78e" y="129.67059"/>
     <use style="fill:#1f77b4;stroke:#1f77b4;stroke-width:2;" x="477.366466" xlink:href="#m443da9e78e" y="131.799189"/>
     <use style="fill:#1f77b4;stroke:#1f77b4;stroke-width:2;" x="479.641993" xlink:href="#m443da9e78e" y="136.578822"/>
     <use style="fill:#1f77b4;stroke:#1f77b4;stroke-width:2;" x="480.373413" xlink:href="#m443da9e78e" y="131.689615"/>
     <use style="fill:#1f77b4;stroke:#1f77b4;stroke-width:2;" x="481.484087" xlink:href="#m443da9e78e" y="141.085141"/>
     <use style="fill:#1f77b4;stroke:#1f77b4;stroke-width:2;" x="483.515808" xlink:href="#m443da9e78e" y="134.742434"/>
     <use style="fill:#1f77b4;stroke:#1f77b4;stroke-width:2;" x="484.382676" xlink:href="#m443da9e78e" y="128.527335"/>
     <use style="fill:#1f77b4;stroke:#1f77b4;stroke-width:2;" x="485.547529" xlink:href="#m443da9e78e" y="135.140392"/>
     <use style="fill:#1f77b4;stroke:#1f77b4;stroke-width:2;" x="488.202311" xlink:href="#m443da9e78e" y="127.200793"/>
     <use style="fill:#1f77b4;stroke:#1f77b4;stroke-width:2;" x="488.879552" xlink:href="#m443da9e78e" y="129.579503"/>
     <use style="fill:#1f77b4;stroke:#1f77b4;stroke-width:2;" x="489.854778" xlink:href="#m443da9e78e" y="135.7923"/>
     <use style="fill:#1f77b4;stroke:#1f77b4;stroke-width:2;" x="491.1009" xlink:href="#m443da9e78e" y="134.861436"/>
     <use style="fill:#1f77b4;stroke:#1f77b4;stroke-width:2;" x="492.970083" xlink:href="#m443da9e78e" y="114.352462"/>
     <use style="fill:#1f77b4;stroke:#1f77b4;stroke-width:2;" x="494.053668" xlink:href="#m443da9e78e" y="135.243341"/>
     <use style="fill:#1f77b4;stroke:#1f77b4;stroke-width:2;" x="494.893446" xlink:href="#m443da9e78e" y="129.286975"/>
     <use style="fill:#1f77b4;stroke:#1f77b4;stroke-width:2;" x="497.521139" xlink:href="#m443da9e78e" y="135.090587"/>
     <use style="fill:#1f77b4;stroke:#1f77b4;stroke-width:2;" x="498.11711" xlink:href="#m443da9e78e" y="138.26113"/>
     <use style="fill:#1f77b4;stroke:#1f77b4;stroke-width:2;" x="498.550544" xlink:href="#m443da9e78e" y="140.77138"/>
     <use style="fill:#1f77b4;stroke:#1f77b4;stroke-width:2;" x="500.25719" xlink:href="#m443da9e78e" y="146.580442"/>
     <use style="fill:#1f77b4;stroke:#1f77b4;stroke-width:2;" x="502.180552" xlink:href="#m443da9e78e" y="139.030782"/>
     <use style="fill:#1f77b4;stroke:#1f77b4;stroke-width:2;" x="503.237047" xlink:href="#m443da9e78e" y="130.957492"/>
     <use style="fill:#1f77b4;stroke:#1f77b4;stroke-width:2;" x="504.401901" xlink:href="#m443da9e78e" y="139.81313"/>
     <use style="fill:#1f77b4;stroke:#1f77b4;stroke-width:2;" x="506.596159" xlink:href="#m443da9e78e" y="127.372121"/>
     <use style="fill:#1f77b4;stroke:#1f77b4;stroke-width:2;" x="507.381758" xlink:href="#m443da9e78e" y="133.189016"/>
     <use style="fill:#1f77b4;stroke:#1f77b4;stroke-width:2;" x="508.356984" xlink:href="#m443da9e78e" y="152.892977"/>
     <use style="fill:#1f77b4;stroke:#1f77b4;stroke-width:2;" x="510.686691" xlink:href="#m443da9e78e" y="125.645061"/>
     <use style="fill:#1f77b4;stroke:#1f77b4;stroke-width:2;" x="511.309752" xlink:href="#m443da9e78e" y="148.790224"/>
     <use style="fill:#1f77b4;stroke:#1f77b4;stroke-width:2;" x="512.474606" xlink:href="#m443da9e78e" y="137.417172"/>
     <use style="fill:#1f77b4;stroke:#1f77b4;stroke-width:2;" x="514.831402" xlink:href="#m443da9e78e" y="134.646462"/>
     <use style="fill:#1f77b4;stroke:#1f77b4;stroke-width:2;" x="515.69827" xlink:href="#m443da9e78e" y="132.931214"/>
     <use style="fill:#1f77b4;stroke:#1f77b4;stroke-width:2;" x="516.808944" xlink:href="#m443da9e78e" y="135.583024"/>
     <use style="fill:#1f77b4;stroke:#1f77b4;stroke-width:2;" x="517.702901" xlink:href="#m443da9e78e" y="147.096004"/>
     <use style="fill:#1f77b4;stroke:#1f77b4;stroke-width:2;" x="519.734622" xlink:href="#m443da9e78e" y="122.779723"/>
     <use style="fill:#1f77b4;stroke:#1f77b4;stroke-width:2;" x="520.764028" xlink:href="#m443da9e78e" y="132.975666"/>
     <use style="fill:#1f77b4;stroke:#1f77b4;stroke-width:2;" x="521.657985" xlink:href="#m443da9e78e" y="151.239125"/>
     <use style="fill:#1f77b4;stroke:#1f77b4;stroke-width:2;" x="523.933512" xlink:href="#m443da9e78e" y="129.056222"/>
     <use style="fill:#1f77b4;stroke:#1f77b4;stroke-width:2;" x="524.881649" xlink:href="#m443da9e78e" y="131.057999"/>
     <use style="fill:#1f77b4;stroke:#1f77b4;stroke-width:2;" x="526.154861" xlink:href="#m443da9e78e" y="127.646028"/>
     <use style="fill:#1f77b4;stroke:#1f77b4;stroke-width:2;" x="528.484568" xlink:href="#m443da9e78e" y="143.177475"/>
     <use style="fill:#1f77b4;stroke:#1f77b4;stroke-width:2;" x="529.107629" xlink:href="#m443da9e78e" y="123.620568"/>
     <use style="fill:#1f77b4;stroke:#1f77b4;stroke-width:2;" x="530.001586" xlink:href="#m443da9e78e" y="130.656441"/>
     <use style="fill:#1f77b4;stroke:#1f77b4;stroke-width:2;" x="531.193529" xlink:href="#m443da9e78e" y="159.526357"/>
     <use style="fill:#1f77b4;stroke:#1f77b4;stroke-width:2;" x="533.171071" xlink:href="#m443da9e78e" y="131.293049"/>
     <use style="fill:#1f77b4;stroke:#1f77b4;stroke-width:2;" x="534.688089" xlink:href="#m443da9e78e" y="136.775619"/>
     <use style="fill:#1f77b4;stroke:#1f77b4;stroke-width:2;" x="535.256971" xlink:href="#m443da9e78e" y="140.238309"/>
     <use style="fill:#1f77b4;stroke:#1f77b4;stroke-width:2;" x="537.667947" xlink:href="#m443da9e78e" y="139.291258"/>
     <use style="fill:#1f77b4;stroke:#1f77b4;stroke-width:2;" x="538.291008" xlink:href="#m443da9e78e" y="135.487003"/>
     <use style="fill:#1f77b4;stroke:#1f77b4;stroke-width:2;" x="539.510041" xlink:href="#m443da9e78e" y="141.635052"/>
     <use style="fill:#1f77b4;stroke:#1f77b4;stroke-width:2;" x="541.460493" xlink:href="#m443da9e78e" y="124.949823"/>
     <use style="fill:#1f77b4;stroke:#1f77b4;stroke-width:2;" x="542.571167" xlink:href="#m443da9e78e" y="138.905378"/>
     <use style="fill:#1f77b4;stroke:#1f77b4;stroke-width:2;" x="543.519304" xlink:href="#m443da9e78e" y="145.447421"/>
     <use style="fill:#1f77b4;stroke:#1f77b4;stroke-width:2;" x="544.548709" xlink:href="#m443da9e78e" y="146.707556"/>
     <use style="fill:#1f77b4;stroke:#1f77b4;stroke-width:2;" x="546.770057" xlink:href="#m443da9e78e" y="138.66967"/>
     <use style="fill:#1f77b4;stroke:#1f77b4;stroke-width:2;" x="547.447298" xlink:href="#m443da9e78e" y="150.096445"/>
     <use style="fill:#1f77b4;stroke:#1f77b4;stroke-width:2;" x="548.612151" xlink:href="#m443da9e78e" y="147.809865"/>
     <use style="fill:#1f77b4;stroke:#1f77b4;stroke-width:2;" x="550.562603" xlink:href="#m443da9e78e" y="137.926121"/>
     <use style="fill:#1f77b4;stroke:#1f77b4;stroke-width:2;" x="551.727457" xlink:href="#m443da9e78e" y="137.900442"/>
     <use style="fill:#1f77b4;stroke:#1f77b4;stroke-width:2;" x="552.838131" xlink:href="#m443da9e78e" y="142.900121"/>
     <use style="fill:#1f77b4;stroke:#1f77b4;stroke-width:2;" x="555.059479" xlink:href="#m443da9e78e" y="130.429225"/>
     <use style="fill:#1f77b4;stroke:#1f77b4;stroke-width:2;" x="555.73672" xlink:href="#m443da9e78e" y="139.627542"/>
     <use style="fill:#1f77b4;stroke:#1f77b4;stroke-width:2;" x="556.44105" xlink:href="#m443da9e78e" y="155.311247"/>
     <use style="fill:#1f77b4;stroke:#1f77b4;stroke-width:2;" x="557.605903" xlink:href="#m443da9e78e" y="150.814256"/>
     <use style="fill:#1f77b4;stroke:#1f77b4;stroke-width:2;" x="560.016879" xlink:href="#m443da9e78e" y="150.046479"/>
     <use style="fill:#1f77b4;stroke:#1f77b4;stroke-width:2;" x="561.181732" xlink:href="#m443da9e78e" y="163.553172"/>
     <use style="fill:#1f77b4;stroke:#1f77b4;stroke-width:2;" x="562.156958" xlink:href="#m443da9e78e" y="154.159376"/>
     <use style="fill:#1f77b4;stroke:#1f77b4;stroke-width:2;" x="564.026141" xlink:href="#m443da9e78e" y="156.401205"/>
     <use style="fill:#1f77b4;stroke:#1f77b4;stroke-width:2;" x="565.190995" xlink:href="#m443da9e78e" y="160.934026"/>
     <use style="fill:#1f77b4;stroke:#1f77b4;stroke-width:2;" x="566.084952" xlink:href="#m443da9e78e" y="177.07039"/>
     <use style="fill:#1f77b4;stroke:#1f77b4;stroke-width:2;" x="568.577197" xlink:href="#m443da9e78e" y="141.883034"/>
     <use style="fill:#1f77b4;stroke:#1f77b4;stroke-width:2;" x="569.471154" xlink:href="#m443da9e78e" y="178.268377"/>
     <use style="fill:#1f77b4;stroke:#1f77b4;stroke-width:2;" x="570.500559" xlink:href="#m443da9e78e" y="181.880572"/>
     <use style="fill:#1f77b4;stroke:#1f77b4;stroke-width:2;" x="571.448696" xlink:href="#m443da9e78e" y="190.773736"/>
     <use style="fill:#1f77b4;stroke:#1f77b4;stroke-width:2;" x="573.480417" xlink:href="#m443da9e78e" y="178.046255"/>
     <use style="fill:#1f77b4;stroke:#1f77b4;stroke-width:2;" x="574.564001" xlink:href="#m443da9e78e" y="187.904379"/>
     <use style="fill:#1f77b4;stroke:#1f77b4;stroke-width:2;" x="575.457959" xlink:href="#m443da9e78e" y="206.327979"/>
     <use style="fill:#1f77b4;stroke:#1f77b4;stroke-width:2;" x="577.48968" xlink:href="#m443da9e78e" y="195.888481"/>
     <use style="fill:#1f77b4;stroke:#1f77b4;stroke-width:2;" x="578.519085" xlink:href="#m443da9e78e" y="197.29221"/>
     <use style="fill:#1f77b4;stroke:#1f77b4;stroke-width:2;" x="579.54849" xlink:href="#m443da9e78e" y="209.943228"/>
     <use style="fill:#1f77b4;stroke:#1f77b4;stroke-width:2;" x="582.040735" xlink:href="#m443da9e78e" y="215.389087"/>
     <use style="fill:#1f77b4;stroke:#1f77b4;stroke-width:2;" x="582.799244" xlink:href="#m443da9e78e" y="217.150725"/>
     <use style="fill:#1f77b4;stroke:#1f77b4;stroke-width:2;" x="583.828649" xlink:href="#m443da9e78e" y="223.079571"/>
     <use style="fill:#1f77b4;stroke:#1f77b4;stroke-width:2;" x="586.239625" xlink:href="#m443da9e78e" y="211.368122"/>
     <use style="fill:#1f77b4;stroke:#1f77b4;stroke-width:2;" x="586.998134" xlink:href="#m443da9e78e" y="206.401768"/>
     <use style="fill:#1f77b4;stroke:#1f77b4;stroke-width:2;" x="587.946271" xlink:href="#m443da9e78e" y="233.361921"/>
     <use style="fill:#1f77b4;stroke:#1f77b4;stroke-width:2;" x="588.921497" xlink:href="#m443da9e78e" y="224.095634"/>
     <use style="fill:#1f77b4;stroke:#1f77b4;stroke-width:2;" x="591.007397" xlink:href="#m443da9e78e" y="233.523004"/>
     <use style="fill:#1f77b4;stroke:#1f77b4;stroke-width:2;" x="592.090982" xlink:href="#m443da9e78e" y="236.73653"/>
     <use style="fill:#1f77b4;stroke:#1f77b4;stroke-width:2;" x="593.201656" xlink:href="#m443da9e78e" y="237.451779"/>
     <use style="fill:#1f77b4;stroke:#1f77b4;stroke-width:2;" x="595.152108" xlink:href="#m443da9e78e" y="214.486579"/>
     <use style="fill:#1f77b4;stroke:#1f77b4;stroke-width:2;" x="596.371141" xlink:href="#m443da9e78e" y="223.190643"/>
     <use style="fill:#1f77b4;stroke:#1f77b4;stroke-width:2;" x="597.210919" xlink:href="#m443da9e78e" y="237.735783"/>
     <use style="fill:#1f77b4;stroke:#1f77b4;stroke-width:2;" x="598.429952" xlink:href="#m443da9e78e" y="217.225916"/>
     <use style="fill:#1f77b4;stroke:#1f77b4;stroke-width:2;" x="600.244956" xlink:href="#m443da9e78e" y="213.586391"/>
     <use style="fill:#1f77b4;stroke:#1f77b4;stroke-width:2;" x="601.057644" xlink:href="#m443da9e78e" y="217.164787"/>
     <use style="fill:#1f77b4;stroke:#1f77b4;stroke-width:2;" x="602.385035" xlink:href="#m443da9e78e" y="202.408138"/>
     <use style="fill:#1f77b4;stroke:#1f77b4;stroke-width:2;" x="604.714742" xlink:href="#m443da9e78e" y="191.723464"/>
     <use style="fill:#1f77b4;stroke:#1f77b4;stroke-width:2;" x="605.635789" xlink:href="#m443da9e78e" y="178.567539"/>
     <use style="fill:#1f77b4;stroke:#1f77b4;stroke-width:2;" x="606.773553" xlink:href="#m443da9e78e" y="201.60416"/>
     <use style="fill:#1f77b4;stroke:#1f77b4;stroke-width:2;" x="608.778184" xlink:href="#m443da9e78e" y="178.294569"/>
     <use style="fill:#1f77b4;stroke:#1f77b4;stroke-width:2;" x="610.024306" xlink:href="#m443da9e78e" y="186.848775"/>
     <use style="fill:#1f77b4;stroke:#1f77b4;stroke-width:2;" x="610.647368" xlink:href="#m443da9e78e" y="190.005524"/>
     <use style="fill:#1f77b4;stroke:#1f77b4;stroke-width:2;" x="613.058343" xlink:href="#m443da9e78e" y="176.437581"/>
     <use style="fill:#1f77b4;stroke:#1f77b4;stroke-width:2;" x="613.97939" xlink:href="#m443da9e78e" y="165.580505"/>
     <use style="fill:#1f77b4;stroke:#1f77b4;stroke-width:2;" x="614.846258" xlink:href="#m443da9e78e" y="164.228597"/>
     <use style="fill:#1f77b4;stroke:#1f77b4;stroke-width:2;" x="615.902753" xlink:href="#m443da9e78e" y="172.354288"/>
     <use style="fill:#1f77b4;stroke:#1f77b4;stroke-width:2;" x="618.124101" xlink:href="#m443da9e78e" y="158.39029"/>
     <use style="fill:#1f77b4;stroke:#1f77b4;stroke-width:2;" x="619.126417" xlink:href="#m443da9e78e" y="164.79579"/>
     <use style="fill:#1f77b4;stroke:#1f77b4;stroke-width:2;" x="620.182912" xlink:href="#m443da9e78e" y="150.468958"/>
     <use style="fill:#1f77b4;stroke:#1f77b4;stroke-width:2;" x="622.458439" xlink:href="#m443da9e78e" y="145.061903"/>
     <use style="fill:#1f77b4;stroke:#1f77b4;stroke-width:2;" x="623.027321" xlink:href="#m443da9e78e" y="151.023128"/>
     <use style="fill:#1f77b4;stroke:#1f77b4;stroke-width:2;" x="624.327623" xlink:href="#m443da9e78e" y="152.451984"/>
     <use style="fill:#1f77b4;stroke:#1f77b4;stroke-width:2;" x="625.167401" xlink:href="#m443da9e78e" y="151.413919"/>
     <use style="fill:#1f77b4;stroke:#1f77b4;stroke-width:2;" x="627.551287" xlink:href="#m443da9e78e" y="142.837821"/>
     <use style="fill:#1f77b4;stroke:#1f77b4;stroke-width:2;" x="628.255617" xlink:href="#m443da9e78e" y="136.326155"/>
     <use style="fill:#1f77b4;stroke:#1f77b4;stroke-width:2;" x="629.285022" xlink:href="#m443da9e78e" y="142.55435"/>
     <use style="fill:#1f77b4;stroke:#1f77b4;stroke-width:2;" x="631.343833" xlink:href="#m443da9e78e" y="141.544015"/>
     <use style="fill:#1f77b4;stroke:#1f77b4;stroke-width:2;" x="632.617045" xlink:href="#m443da9e78e" y="138.805002"/>
     <use style="fill:#1f77b4;stroke:#1f77b4;stroke-width:2;" x="633.700629" xlink:href="#m443da9e78e" y="142.319762"/>
     <use style="fill:#1f77b4;stroke:#1f77b4;stroke-width:2;" x="635.569813" xlink:href="#m443da9e78e" y="140.871563"/>
     <use style="fill:#1f77b4;stroke:#1f77b4;stroke-width:2;" x="636.545039" xlink:href="#m443da9e78e" y="134.163462"/>
     <use style="fill:#1f77b4;stroke:#1f77b4;stroke-width:2;" x="637.493175" xlink:href="#m443da9e78e" y="136.704681"/>
     <use style="fill:#1f77b4;stroke:#1f77b4;stroke-width:2;" x="639.822882" xlink:href="#m443da9e78e" y="135.590788"/>
     <use style="fill:#1f77b4;stroke:#1f77b4;stroke-width:2;" x="640.798108" xlink:href="#m443da9e78e" y="137.908308"/>
     <use style="fill:#1f77b4;stroke:#1f77b4;stroke-width:2;" x="641.990051" xlink:href="#m443da9e78e" y="140.501133"/>
     <use style="fill:#1f77b4;stroke:#1f77b4;stroke-width:2;" x="642.829829" xlink:href="#m443da9e78e" y="157.562289"/>
     <use style="fill:#1f77b4;stroke:#1f77b4;stroke-width:2;" x="644.942819" xlink:href="#m443da9e78e" y="149.527569"/>
     <use style="fill:#1f77b4;stroke:#1f77b4;stroke-width:2;" x="645.836776" xlink:href="#m443da9e78e" y="141.382778"/>
     <use style="fill:#1f77b4;stroke:#1f77b4;stroke-width:2;" x="646.866182" xlink:href="#m443da9e78e" y="156.744063"/>
     <use style="fill:#1f77b4;stroke:#1f77b4;stroke-width:2;" x="648.952082" xlink:href="#m443da9e78e" y="133.285048"/>
     <use style="fill:#1f77b4;stroke:#1f77b4;stroke-width:2;" x="650.144025" xlink:href="#m443da9e78e" y="142.700753"/>
     <use style="fill:#1f77b4;stroke:#1f77b4;stroke-width:2;" x="651.146341" xlink:href="#m443da9e78e" y="160.591896"/>
     <use style="fill:#1f77b4;stroke:#1f77b4;stroke-width:2;" x="651.850671" xlink:href="#m443da9e78e" y="151.961261"/>
     <use style="fill:#1f77b4;stroke:#1f77b4;stroke-width:2;" x="654.397094" xlink:href="#m443da9e78e" y="128.921052"/>
     <use style="fill:#1f77b4;stroke:#1f77b4;stroke-width:2;" x="655.209783" xlink:href="#m443da9e78e" y="144.062916"/>
     <use style="fill:#1f77b4;stroke:#1f77b4;stroke-width:2;" x="656.347547" xlink:href="#m443da9e78e" y="138.290186"/>
     <use style="fill:#1f77b4;stroke:#1f77b4;stroke-width:2;" x="658.352178" xlink:href="#m443da9e78e" y="147.203267"/>
     <use style="fill:#1f77b4;stroke:#1f77b4;stroke-width:2;" x="659.381583" xlink:href="#m443da9e78e" y="135.690121"/>
     <use style="fill:#1f77b4;stroke:#1f77b4;stroke-width:2;" x="660.32972" xlink:href="#m443da9e78e" y="165.387209"/>
     <use style="fill:#1f77b4;stroke:#1f77b4;stroke-width:2;" x="662.632337" xlink:href="#m443da9e78e" y="146.962856"/>
     <use style="fill:#1f77b4;stroke:#1f77b4;stroke-width:2;" x="663.390846" xlink:href="#m443da9e78e" y="151.404841"/>
     <use style="fill:#1f77b4;stroke:#1f77b4;stroke-width:2;" x="664.203535" xlink:href="#m443da9e78e" y="146.37307"/>
     <use style="fill:#1f77b4;stroke:#1f77b4;stroke-width:2;" x="666.560331" xlink:href="#m443da9e78e" y="129.789591"/>
     <use style="fill:#1f77b4;stroke:#1f77b4;stroke-width:2;" x="667.698095" xlink:href="#m443da9e78e" y="144.362348"/>
     <use style="fill:#1f77b4;stroke:#1f77b4;stroke-width:2;" x="668.537873" xlink:href="#m443da9e78e" y="148.11285"/>
     <use style="fill:#1f77b4;stroke:#1f77b4;stroke-width:2;" x="669.702726" xlink:href="#m443da9e78e" y="139.980125"/>
     <use style="fill:#1f77b4;stroke:#1f77b4;stroke-width:2;" x="671.653179" xlink:href="#m443da9e78e" y="156.350195"/>
     <use style="fill:#1f77b4;stroke:#1f77b4;stroke-width:2;" x="672.601315" xlink:href="#m443da9e78e" y="145.677145"/>
     <use style="fill:#1f77b4;stroke:#1f77b4;stroke-width:2;" x="673.441093" xlink:href="#m443da9e78e" y="144.967084"/>
     <use style="fill:#1f77b4;stroke:#1f77b4;stroke-width:2;" x="675.635352" xlink:href="#m443da9e78e" y="154.74589"/>
     <use style="fill:#1f77b4;stroke:#1f77b4;stroke-width:2;" x="676.637668" xlink:href="#m443da9e78e" y="143.627158"/>
     <use style="fill:#1f77b4;stroke:#1f77b4;stroke-width:2;" x="677.585804" xlink:href="#m443da9e78e" y="146.486481"/>
     <use style="fill:#1f77b4;stroke:#1f77b4;stroke-width:2;" x="679.102823" xlink:href="#m443da9e78e" y="148.829823"/>
     <use style="fill:#1f77b4;stroke:#1f77b4;stroke-width:2;" x="680.944916" xlink:href="#m443da9e78e" y="132.591992"/>
     <use style="fill:#1f77b4;stroke:#1f77b4;stroke-width:2;" x="681.811784" xlink:href="#m443da9e78e" y="145.196739"/>
     <use style="fill:#1f77b4;stroke:#1f77b4;stroke-width:2;" x="682.895369" xlink:href="#m443da9e78e" y="144.661515"/>
     <use style="fill:#1f77b4;stroke:#1f77b4;stroke-width:2;" x="684.9" xlink:href="#m443da9e78e" y="142.800255"/>
    </g>
   </g>
   <g id="patch_3">
    <path d="M 99 448.56 
L 99 60.48 
" style="fill:none;stroke:#000000;stroke-linecap:square;stroke-linejoin:miter;stroke-width:0.8;"/>
   </g>
   <g id="patch_4">
    <path d="M 712.8 448.56 
L 712.8 60.48 
" style="fill:none;stroke:#000000;stroke-linecap:square;stroke-linejoin:miter;stroke-width:0.8;"/>
   </g>
   <g id="patch_5">
    <path d="M 99 448.56 
L 712.8 448.56 
" style="fill:none;stroke:#000000;stroke-linecap:square;stroke-linejoin:miter;stroke-width:0.8;"/>
   </g>
   <g id="patch_6">
    <path d="M 99 60.48 
L 712.8 60.48 
" style="fill:none;stroke:#000000;stroke-linecap:square;stroke-linejoin:miter;stroke-width:0.8;"/>
   </g>
  </g>
 </g>
 <defs>
  <clipPath id="pe381fadf08">
   <rect height="388.08" width="613.8" x="99" y="60.48"/>
  </clipPath>
 </defs>
</svg>
