<?xml version="1.0" encoding="utf-8" standalone="no"?>
<!DOCTYPE svg PUBLIC "-//W3C//DTD SVG 1.1//EN"
  "http://www.w3.org/Graphics/SVG/1.1/DTD/svg11.dtd">
<!-- Created with matplotlib (https://matplotlib.org/) -->
<svg height="504pt" version="1.1" viewBox="0 0 792 504" width="792pt" xmlns="http://www.w3.org/2000/svg" xmlns:xlink="http://www.w3.org/1999/xlink">
 <defs>
  <style type="text/css">
*{stroke-linecap:butt;stroke-linejoin:round;}
  </style>
 </defs>
 <g id="figure_1">
  <g id="patch_1">
   <path d="M 0 504 
L 792 504 
L 792 0 
L 0 0 
z
" style="fill:#ffffff;"/>
  </g>
  <g id="axes_1">
   <g id="patch_2">
    <path d="M 99 448.56 
L 712.8 448.56 
L 712.8 60.48 
L 99 60.48 
z
" style="fill:#ffffff;"/>
   </g>
   <g id="PathCollection_1">
    <defs>
     <path d="M 0 4.472136 
C 1.186024 4.472136 2.323632 4.000923 3.162278 3.162278 
C 4.000923 2.323632 4.472136 1.186024 4.472136 0 
C 4.472136 -1.186024 4.000923 -2.323632 3.162278 -3.162278 
C 2.323632 -4.000923 1.186024 -4.472136 0 -4.472136 
C -1.186024 -4.472136 -2.323632 -4.000923 -3.162278 -3.162278 
C -4.000923 -2.323632 -4.472136 -1.186024 -4.472136 0 
C -4.472136 1.186024 -4.000923 2.323632 -3.162278 3.162278 
C -2.323632 4.000923 -1.186024 4.472136 0 4.472136 
z
" id="C0_0_07fdd83a67"/>
    </defs>
    <g clip-path="url(#pc0a54eaf80)">
     <use style="fill:none;stroke:#9467bd;stroke-width:2;" x="334.322847" xlink:href="#C0_0_07fdd83a67" y="249.536728"/>
    </g>
    <g clip-path="url(#pc0a54eaf80)">
     <use style="fill:none;stroke:#9467bd;stroke-width:2;" x="597.853243" xlink:href="#C0_0_07fdd83a67" y="278.221972"/>
    </g>
   </g>
   <g id="PathCollection_2">
    <defs>
     <path d="M 0 4.472136 
C 1.186024 4.472136 2.323632 4.000923 3.162278 3.162278 
C 4.000923 2.323632 4.472136 1.186024 4.472136 0 
C 4.472136 -1.186024 4.000923 -2.323632 3.162278 -3.162278 
C 2.323632 -4.000923 1.186024 -4.472136 0 -4.472136 
C -1.186024 -4.472136 -2.323632 -4.000923 -3.162278 -3.162278 
C -4.000923 -2.323632 -4.472136 -1.186024 -4.472136 0 
C -4.472136 1.186024 -4.000923 2.323632 -3.162278 3.162278 
C -2.323632 4.000923 -1.186024 4.472136 0 4.472136 
z
" id="C1_0_98f7030e7d"/>
    </defs>
    <g clip-path="url(#pc0a54eaf80)">
     <use style="fill:none;stroke:#9467bd;stroke-width:2;" x="195.592673" xlink:href="#C1_0_98f7030e7d" y="230.601403"/>
    </g>
    <g clip-path="url(#pc0a54eaf80)">
     <use style="fill:none;stroke:#9467bd;stroke-width:2;" x="202.297225" xlink:href="#C1_0_98f7030e7d" y="231.574501"/>
    </g>
    <g clip-path="url(#pc0a54eaf80)">
     <use style="fill:none;stroke:#9467bd;stroke-width:2;" x="219.924352" xlink:href="#C1_0_98f7030e7d" y="205.03711"/>
    </g>
    <g clip-path="url(#pc0a54eaf80)">
     <use style="fill:none;stroke:#9467bd;stroke-width:2;" x="211.525045" xlink:href="#C1_0_98f7030e7d" y="206.443734"/>
    </g>
   </g>
   <g id="matplotlib.axis_1">
    <g id="xtick_1">
     <g id="line2d_1">
      <defs>
       <path d="M 0 0 
L 0 3.5 
" id="m580159004c" style="stroke:#000000;stroke-width:0.8;"/>
      </defs>
      <g>
       <use style="stroke:#000000;stroke-width:0.8;" x="126.9" xlink:href="#m580159004c" y="448.56"/>
      </g>
     </g>
     <g id="text_1">
      <!-- 0 -->
      <defs>
       <path d="M 31.78125 66.40625 
Q 24.171875 66.40625 20.328125 58.90625 
Q 16.5 51.421875 16.5 36.375 
Q 16.5 21.390625 20.328125 13.890625 
Q 24.171875 6.390625 31.78125 6.390625 
Q 39.453125 6.390625 43.28125 13.890625 
Q 47.125 21.390625 47.125 36.375 
Q 47.125 51.421875 43.28125 58.90625 
Q 39.453125 66.40625 31.78125 66.40625 
z
M 31.78125 74.21875 
Q 44.046875 74.21875 50.515625 64.515625 
Q 56.984375 54.828125 56.984375 36.375 
Q 56.984375 17.96875 50.515625 8.265625 
Q 44.046875 -1.421875 31.78125 -1.421875 
Q 19.53125 -1.421875 13.0625 8.265625 
Q 6.59375 17.96875 6.59375 36.375 
Q 6.59375 54.828125 13.0625 64.515625 
Q 19.53125 74.21875 31.78125 74.21875 
z
" id="DejaVuSans-48"/>
      </defs>
      <g transform="translate(120.5375 470.756875)scale(0.2 -0.2)">
       <use xlink:href="#DejaVuSans-48"/>
      </g>
     </g>
    </g>
    <g id="xtick_2">
     <g id="line2d_2">
      <g>
       <use style="stroke:#000000;stroke-width:0.8;" x="203.423843" xlink:href="#m580159004c" y="448.56"/>
      </g>
     </g>
     <g id="text_2">
      <!-- 20 -->
      <defs>
       <path d="M 19.1875 8.296875 
L 53.609375 8.296875 
L 53.609375 0 
L 7.328125 0 
L 7.328125 8.296875 
Q 12.9375 14.109375 22.625 23.890625 
Q 32.328125 33.6875 34.8125 36.53125 
Q 39.546875 41.84375 41.421875 45.53125 
Q 43.3125 49.21875 43.3125 52.78125 
Q 43.3125 58.59375 39.234375 62.25 
Q 35.15625 65.921875 28.609375 65.921875 
Q 23.96875 65.921875 18.8125 64.3125 
Q 13.671875 62.703125 7.8125 59.421875 
L 7.8125 69.390625 
Q 13.765625 71.78125 18.9375 73 
Q 24.125 74.21875 28.421875 74.21875 
Q 39.75 74.21875 46.484375 68.546875 
Q 53.21875 62.890625 53.21875 53.421875 
Q 53.21875 48.921875 51.53125 44.890625 
Q 49.859375 40.875 45.40625 35.40625 
Q 44.1875 33.984375 37.640625 27.21875 
Q 31.109375 20.453125 19.1875 8.296875 
z
" id="DejaVuSans-50"/>
      </defs>
      <g transform="translate(190.698843 470.756875)scale(0.2 -0.2)">
       <use xlink:href="#DejaVuSans-50"/>
       <use x="63.623047" xlink:href="#DejaVuSans-48"/>
      </g>
     </g>
    </g>
    <g id="xtick_3">
     <g id="line2d_3">
      <g>
       <use style="stroke:#000000;stroke-width:0.8;" x="279.947685" xlink:href="#m580159004c" y="448.56"/>
      </g>
     </g>
     <g id="text_3">
      <!-- 40 -->
      <defs>
       <path d="M 37.796875 64.3125 
L 12.890625 25.390625 
L 37.796875 25.390625 
z
M 35.203125 72.90625 
L 47.609375 72.90625 
L 47.609375 25.390625 
L 58.015625 25.390625 
L 58.015625 17.1875 
L 47.609375 17.1875 
L 47.609375 0 
L 37.796875 0 
L 37.796875 17.1875 
L 4.890625 17.1875 
L 4.890625 26.703125 
z
" id="DejaVuSans-52"/>
      </defs>
      <g transform="translate(267.222685 470.756875)scale(0.2 -0.2)">
       <use xlink:href="#DejaVuSans-52"/>
       <use x="63.623047" xlink:href="#DejaVuSans-48"/>
      </g>
     </g>
    </g>
    <g id="xtick_4">
     <g id="line2d_4">
      <g>
       <use style="stroke:#000000;stroke-width:0.8;" x="356.471528" xlink:href="#m580159004c" y="448.56"/>
      </g>
     </g>
     <g id="text_4">
      <!-- 60 -->
      <defs>
       <path d="M 33.015625 40.375 
Q 26.375 40.375 22.484375 35.828125 
Q 18.609375 31.296875 18.609375 23.390625 
Q 18.609375 15.53125 22.484375 10.953125 
Q 26.375 6.390625 33.015625 6.390625 
Q 39.65625 6.390625 43.53125 10.953125 
Q 47.40625 15.53125 47.40625 23.390625 
Q 47.40625 31.296875 43.53125 35.828125 
Q 39.65625 40.375 33.015625 40.375 
z
M 52.59375 71.296875 
L 52.59375 62.3125 
Q 48.875 64.0625 45.09375 64.984375 
Q 41.3125 65.921875 37.59375 65.921875 
Q 27.828125 65.921875 22.671875 59.328125 
Q 17.53125 52.734375 16.796875 39.40625 
Q 19.671875 43.65625 24.015625 45.921875 
Q 28.375 48.1875 33.59375 48.1875 
Q 44.578125 48.1875 50.953125 41.515625 
Q 57.328125 34.859375 57.328125 23.390625 
Q 57.328125 12.15625 50.6875 5.359375 
Q 44.046875 -1.421875 33.015625 -1.421875 
Q 20.359375 -1.421875 13.671875 8.265625 
Q 6.984375 17.96875 6.984375 36.375 
Q 6.984375 53.65625 15.1875 63.9375 
Q 23.390625 74.21875 37.203125 74.21875 
Q 40.921875 74.21875 44.703125 73.484375 
Q 48.484375 72.75 52.59375 71.296875 
z
" id="DejaVuSans-54"/>
      </defs>
      <g transform="translate(343.746528 470.756875)scale(0.2 -0.2)">
       <use xlink:href="#DejaVuSans-54"/>
       <use x="63.623047" xlink:href="#DejaVuSans-48"/>
      </g>
     </g>
    </g>
    <g id="xtick_5">
     <g id="line2d_5">
      <g>
       <use style="stroke:#000000;stroke-width:0.8;" x="432.995371" xlink:href="#m580159004c" y="448.56"/>
      </g>
     </g>
     <g id="text_5">
      <!-- 80 -->
      <defs>
       <path d="M 31.78125 34.625 
Q 24.75 34.625 20.71875 30.859375 
Q 16.703125 27.09375 16.703125 20.515625 
Q 16.703125 13.921875 20.71875 10.15625 
Q 24.75 6.390625 31.78125 6.390625 
Q 38.8125 6.390625 42.859375 10.171875 
Q 46.921875 13.96875 46.921875 20.515625 
Q 46.921875 27.09375 42.890625 30.859375 
Q 38.875 34.625 31.78125 34.625 
z
M 21.921875 38.8125 
Q 15.578125 40.375 12.03125 44.71875 
Q 8.5 49.078125 8.5 55.328125 
Q 8.5 64.0625 14.71875 69.140625 
Q 20.953125 74.21875 31.78125 74.21875 
Q 42.671875 74.21875 48.875 69.140625 
Q 55.078125 64.0625 55.078125 55.328125 
Q 55.078125 49.078125 51.53125 44.71875 
Q 48 40.375 41.703125 38.8125 
Q 48.828125 37.15625 52.796875 32.3125 
Q 56.78125 27.484375 56.78125 20.515625 
Q 56.78125 9.90625 50.3125 4.234375 
Q 43.84375 -1.421875 31.78125 -1.421875 
Q 19.734375 -1.421875 13.25 4.234375 
Q 6.78125 9.90625 6.78125 20.515625 
Q 6.78125 27.484375 10.78125 32.3125 
Q 14.796875 37.15625 21.921875 38.8125 
z
M 18.3125 54.390625 
Q 18.3125 48.734375 21.84375 45.5625 
Q 25.390625 42.390625 31.78125 42.390625 
Q 38.140625 42.390625 41.71875 45.5625 
Q 45.3125 48.734375 45.3125 54.390625 
Q 45.3125 60.0625 41.71875 63.234375 
Q 38.140625 66.40625 31.78125 66.40625 
Q 25.390625 66.40625 21.84375 63.234375 
Q 18.3125 60.0625 18.3125 54.390625 
z
" id="DejaVuSans-56"/>
      </defs>
      <g transform="translate(420.270371 470.756875)scale(0.2 -0.2)">
       <use xlink:href="#DejaVuSans-56"/>
       <use x="63.623047" xlink:href="#DejaVuSans-48"/>
      </g>
     </g>
    </g>
    <g id="xtick_6">
     <g id="line2d_6">
      <g>
       <use style="stroke:#000000;stroke-width:0.8;" x="509.519214" xlink:href="#m580159004c" y="448.56"/>
      </g>
     </g>
     <g id="text_6">
      <!-- 100 -->
      <defs>
       <path d="M 12.40625 8.296875 
L 28.515625 8.296875 
L 28.515625 63.921875 
L 10.984375 60.40625 
L 10.984375 69.390625 
L 28.421875 72.90625 
L 38.28125 72.90625 
L 38.28125 8.296875 
L 54.390625 8.296875 
L 54.390625 0 
L 12.40625 0 
z
" id="DejaVuSans-49"/>
      </defs>
      <g transform="translate(490.431714 470.756875)scale(0.2 -0.2)">
       <use xlink:href="#DejaVuSans-49"/>
       <use x="63.623047" xlink:href="#DejaVuSans-48"/>
       <use x="127.246094" xlink:href="#DejaVuSans-48"/>
      </g>
     </g>
    </g>
    <g id="xtick_7">
     <g id="line2d_7">
      <g>
       <use style="stroke:#000000;stroke-width:0.8;" x="586.043056" xlink:href="#m580159004c" y="448.56"/>
      </g>
     </g>
     <g id="text_7">
      <!-- 120 -->
      <g transform="translate(566.955556 470.756875)scale(0.2 -0.2)">
       <use xlink:href="#DejaVuSans-49"/>
       <use x="63.623047" xlink:href="#DejaVuSans-50"/>
       <use x="127.246094" xlink:href="#DejaVuSans-48"/>
      </g>
     </g>
    </g>
    <g id="xtick_8">
     <g id="line2d_8">
      <g>
       <use style="stroke:#000000;stroke-width:0.8;" x="662.566899" xlink:href="#m580159004c" y="448.56"/>
      </g>
     </g>
     <g id="text_8">
      <!-- 140 -->
      <g transform="translate(643.479399 470.756875)scale(0.2 -0.2)">
       <use xlink:href="#DejaVuSans-49"/>
       <use x="63.623047" xlink:href="#DejaVuSans-52"/>
       <use x="127.246094" xlink:href="#DejaVuSans-48"/>
      </g>
     </g>
    </g>
    <g id="text_9">
     <!-- B$\parallel$(100) (G) -->
     <defs>
      <path d="M 38.375 44.671875 
Q 42.828125 44.671875 45.109375 46.625 
Q 47.40625 48.578125 47.40625 52.390625 
Q 47.40625 56.15625 45.109375 58.125 
Q 42.828125 60.109375 38.375 60.109375 
L 27.984375 60.109375 
L 27.984375 44.671875 
z
M 39.015625 12.796875 
Q 44.671875 12.796875 47.53125 15.1875 
Q 50.390625 17.578125 50.390625 22.40625 
Q 50.390625 27.15625 47.5625 29.515625 
Q 44.734375 31.890625 39.015625 31.890625 
L 27.984375 31.890625 
L 27.984375 12.796875 
z
M 56.5 39.015625 
Q 62.546875 37.25 65.859375 32.515625 
Q 69.1875 27.78125 69.1875 20.90625 
Q 69.1875 10.359375 62.0625 5.171875 
Q 54.9375 0 40.375 0 
L 9.1875 0 
L 9.1875 72.90625 
L 37.40625 72.90625 
Q 52.59375 72.90625 59.40625 68.3125 
Q 66.21875 63.71875 66.21875 53.609375 
Q 66.21875 48.296875 63.71875 44.5625 
Q 61.234375 40.828125 56.5 39.015625 
z
" id="DejaVuSans-Bold-66"/>
      <path d="M 13.28125 77.09375 
L 21.09375 77.09375 
L 21.09375 -21.390625 
L 13.28125 -21.390625 
z
M 28.90625 77.09375 
L 36.71875 77.09375 
L 36.71875 -21.390625 
L 28.90625 -21.390625 
z
" id="DejaVuSans-8741"/>
      <path d="M 37.703125 -13.1875 
L 23.1875 -13.1875 
Q 15.71875 -1.125 12.15625 9.734375 
Q 8.59375 20.609375 8.59375 31.296875 
Q 8.59375 42 12.171875 52.953125 
Q 15.765625 63.921875 23.1875 75.875 
L 37.703125 75.875 
Q 31.453125 64.3125 28.328125 53.25 
Q 25.203125 42.1875 25.203125 31.390625 
Q 25.203125 20.609375 28.296875 9.515625 
Q 31.390625 -1.5625 37.703125 -13.1875 
z
" id="DejaVuSans-Bold-40"/>
      <path d="M 11.71875 12.984375 
L 28.328125 12.984375 
L 28.328125 60.109375 
L 11.28125 56.59375 
L 11.28125 69.390625 
L 28.21875 72.90625 
L 46.09375 72.90625 
L 46.09375 12.984375 
L 62.703125 12.984375 
L 62.703125 0 
L 11.71875 0 
z
" id="DejaVuSans-Bold-49"/>
      <path d="M 46 36.53125 
Q 46 50.203125 43.4375 55.78125 
Q 40.875 61.375 34.8125 61.375 
Q 28.765625 61.375 26.171875 55.78125 
Q 23.578125 50.203125 23.578125 36.53125 
Q 23.578125 22.703125 26.171875 17.03125 
Q 28.765625 11.375 34.8125 11.375 
Q 40.828125 11.375 43.40625 17.03125 
Q 46 22.703125 46 36.53125 
z
M 64.796875 36.375 
Q 64.796875 18.265625 56.984375 8.421875 
Q 49.171875 -1.421875 34.8125 -1.421875 
Q 20.40625 -1.421875 12.59375 8.421875 
Q 4.78125 18.265625 4.78125 36.375 
Q 4.78125 54.546875 12.59375 64.375 
Q 20.40625 74.21875 34.8125 74.21875 
Q 49.171875 74.21875 56.984375 64.375 
Q 64.796875 54.546875 64.796875 36.375 
z
" id="DejaVuSans-Bold-48"/>
      <path d="M 8.015625 -13.1875 
Q 14.265625 -1.5625 17.390625 9.515625 
Q 20.515625 20.609375 20.515625 31.390625 
Q 20.515625 42.1875 17.390625 53.25 
Q 14.265625 64.3125 8.015625 75.875 
L 22.515625 75.875 
Q 29.9375 63.921875 33.515625 52.953125 
Q 37.109375 42 37.109375 31.296875 
Q 37.109375 20.609375 33.546875 9.734375 
Q 29.984375 -1.125 22.515625 -13.1875 
z
" id="DejaVuSans-Bold-41"/>
      <path id="DejaVuSans-Bold-32"/>
      <path d="M 74.703125 5.421875 
Q 67.671875 2 60.109375 0.28125 
Q 52.546875 -1.421875 44.484375 -1.421875 
Q 26.265625 -1.421875 15.625 8.765625 
Q 4.984375 18.953125 4.984375 36.375 
Q 4.984375 54 15.8125 64.109375 
Q 26.65625 74.21875 45.515625 74.21875 
Q 52.78125 74.21875 59.4375 72.84375 
Q 66.109375 71.484375 72.015625 68.796875 
L 72.015625 53.71875 
Q 65.921875 57.171875 59.890625 58.875 
Q 53.859375 60.59375 47.796875 60.59375 
Q 36.578125 60.59375 30.5 54.3125 
Q 24.421875 48.046875 24.421875 36.375 
Q 24.421875 24.8125 30.28125 18.5 
Q 36.140625 12.203125 46.921875 12.203125 
Q 49.859375 12.203125 52.375 12.5625 
Q 54.890625 12.9375 56.890625 13.71875 
L 56.890625 27.875 
L 45.40625 27.875 
L 45.40625 40.484375 
L 74.703125 40.484375 
z
" id="DejaVuSans-Bold-71"/>
     </defs>
     <g transform="translate(321.65 498.41625)scale(0.25 -0.25)">
      <use transform="translate(0 0.90625)" xlink:href="#DejaVuSans-Bold-66"/>
      <use transform="translate(95.703125 0.90625)" xlink:href="#DejaVuSans-8741"/>
      <use transform="translate(165.185547 0.90625)" xlink:href="#DejaVuSans-Bold-40"/>
      <use transform="translate(210.888672 0.90625)" xlink:href="#DejaVuSans-Bold-49"/>
      <use transform="translate(280.46875 0.90625)" xlink:href="#DejaVuSans-Bold-48"/>
      <use transform="translate(350.048828 0.90625)" xlink:href="#DejaVuSans-Bold-48"/>
      <use transform="translate(419.628906 0.90625)" xlink:href="#DejaVuSans-Bold-41"/>
      <use transform="translate(465.332031 0.90625)" xlink:href="#DejaVuSans-Bold-32"/>
      <use transform="translate(500.146484 0.90625)" xlink:href="#DejaVuSans-Bold-40"/>
      <use transform="translate(545.849609 0.90625)" xlink:href="#DejaVuSans-Bold-71"/>
      <use transform="translate(627.929688 0.90625)" xlink:href="#DejaVuSans-Bold-41"/>
     </g>
    </g>
   </g>
   <g id="matplotlib.axis_2">
    <g id="ytick_1">
     <g id="line2d_9">
      <defs>
       <path d="M 0 0 
L -3.5 0 
" id="m797e0722d1" style="stroke:#000000;stroke-width:0.8;"/>
      </defs>
      <g>
       <use style="stroke:#000000;stroke-width:0.8;" x="99" xlink:href="#m797e0722d1" y="393.310603"/>
      </g>
     </g>
     <g id="text_10">
      <!-- 2400 -->
      <g transform="translate(41.1 400.90904)scale(0.2 -0.2)">
       <use xlink:href="#DejaVuSans-50"/>
       <use x="63.623047" xlink:href="#DejaVuSans-52"/>
       <use x="127.246094" xlink:href="#DejaVuSans-48"/>
       <use x="190.869141" xlink:href="#DejaVuSans-48"/>
      </g>
     </g>
    </g>
    <g id="ytick_2">
     <g id="line2d_10">
      <g>
       <use style="stroke:#000000;stroke-width:0.8;" x="99" xlink:href="#m797e0722d1" y="319.632067"/>
      </g>
     </g>
     <g id="text_11">
      <!-- 2600 -->
      <g transform="translate(41.1 327.230504)scale(0.2 -0.2)">
       <use xlink:href="#DejaVuSans-50"/>
       <use x="63.623047" xlink:href="#DejaVuSans-54"/>
       <use x="127.246094" xlink:href="#DejaVuSans-48"/>
       <use x="190.869141" xlink:href="#DejaVuSans-48"/>
      </g>
     </g>
    </g>
    <g id="ytick_3">
     <g id="line2d_11">
      <g>
       <use style="stroke:#000000;stroke-width:0.8;" x="99" xlink:href="#m797e0722d1" y="245.953531"/>
      </g>
     </g>
     <g id="text_12">
      <!-- 2800 -->
      <g transform="translate(41.1 253.551968)scale(0.2 -0.2)">
       <use xlink:href="#DejaVuSans-50"/>
       <use x="63.623047" xlink:href="#DejaVuSans-56"/>
       <use x="127.246094" xlink:href="#DejaVuSans-48"/>
       <use x="190.869141" xlink:href="#DejaVuSans-48"/>
      </g>
     </g>
    </g>
    <g id="ytick_4">
     <g id="line2d_12">
      <g>
       <use style="stroke:#000000;stroke-width:0.8;" x="99" xlink:href="#m797e0722d1" y="172.274995"/>
      </g>
     </g>
     <g id="text_13">
      <!-- 3000 -->
      <defs>
       <path d="M 40.578125 39.3125 
Q 47.65625 37.796875 51.625 33 
Q 55.609375 28.21875 55.609375 21.1875 
Q 55.609375 10.40625 48.1875 4.484375 
Q 40.765625 -1.421875 27.09375 -1.421875 
Q 22.515625 -1.421875 17.65625 -0.515625 
Q 12.796875 0.390625 7.625 2.203125 
L 7.625 11.71875 
Q 11.71875 9.328125 16.59375 8.109375 
Q 21.484375 6.890625 26.8125 6.890625 
Q 36.078125 6.890625 40.9375 10.546875 
Q 45.796875 14.203125 45.796875 21.1875 
Q 45.796875 27.640625 41.28125 31.265625 
Q 36.765625 34.90625 28.71875 34.90625 
L 20.21875 34.90625 
L 20.21875 43.015625 
L 29.109375 43.015625 
Q 36.375 43.015625 40.234375 45.921875 
Q 44.09375 48.828125 44.09375 54.296875 
Q 44.09375 59.90625 40.109375 62.90625 
Q 36.140625 65.921875 28.71875 65.921875 
Q 24.65625 65.921875 20.015625 65.03125 
Q 15.375 64.15625 9.8125 62.3125 
L 9.8125 71.09375 
Q 15.4375 72.65625 20.34375 73.4375 
Q 25.25 74.21875 29.59375 74.21875 
Q 40.828125 74.21875 47.359375 69.109375 
Q 53.90625 64.015625 53.90625 55.328125 
Q 53.90625 49.265625 50.4375 45.09375 
Q 46.96875 40.921875 40.578125 39.3125 
z
" id="DejaVuSans-51"/>
      </defs>
      <g transform="translate(41.1 179.873432)scale(0.2 -0.2)">
       <use xlink:href="#DejaVuSans-51"/>
       <use x="63.623047" xlink:href="#DejaVuSans-48"/>
       <use x="127.246094" xlink:href="#DejaVuSans-48"/>
       <use x="190.869141" xlink:href="#DejaVuSans-48"/>
      </g>
     </g>
    </g>
    <g id="ytick_5">
     <g id="line2d_13">
      <g>
       <use style="stroke:#000000;stroke-width:0.8;" x="99" xlink:href="#m797e0722d1" y="98.596459"/>
      </g>
     </g>
     <g id="text_14">
      <!-- 3200 -->
      <g transform="translate(41.1 106.194896)scale(0.2 -0.2)">
       <use xlink:href="#DejaVuSans-51"/>
       <use x="63.623047" xlink:href="#DejaVuSans-50"/>
       <use x="127.246094" xlink:href="#DejaVuSans-48"/>
       <use x="190.869141" xlink:href="#DejaVuSans-48"/>
      </g>
     </g>
    </g>
    <g id="text_15">
     <!-- Transition frequency (MHz) -->
     <defs>
      <path d="M 0.484375 72.90625 
L 67.671875 72.90625 
L 67.671875 58.6875 
L 43.5 58.6875 
L 43.5 0 
L 24.703125 0 
L 24.703125 58.6875 
L 0.484375 58.6875 
z
" id="DejaVuSans-Bold-84"/>
      <path d="M 49.03125 39.796875 
Q 46.734375 40.875 44.453125 41.375 
Q 42.1875 41.890625 39.890625 41.890625 
Q 33.15625 41.890625 29.515625 37.5625 
Q 25.875 33.25 25.875 25.203125 
L 25.875 0 
L 8.40625 0 
L 8.40625 54.6875 
L 25.875 54.6875 
L 25.875 45.703125 
Q 29.25 51.078125 33.609375 53.53125 
Q 37.984375 56 44.09375 56 
Q 44.96875 56 45.984375 55.921875 
Q 47.015625 55.859375 48.96875 55.609375 
z
" id="DejaVuSans-Bold-114"/>
      <path d="M 32.90625 24.609375 
Q 27.4375 24.609375 24.671875 22.75 
Q 21.921875 20.90625 21.921875 17.28125 
Q 21.921875 13.96875 24.140625 12.078125 
Q 26.375 10.203125 30.328125 10.203125 
Q 35.25 10.203125 38.625 13.734375 
Q 42 17.28125 42 22.609375 
L 42 24.609375 
z
M 59.625 31.203125 
L 59.625 0 
L 42 0 
L 42 8.109375 
Q 38.484375 3.125 34.078125 0.84375 
Q 29.6875 -1.421875 23.390625 -1.421875 
Q 14.890625 -1.421875 9.59375 3.53125 
Q 4.296875 8.5 4.296875 16.40625 
Q 4.296875 26.03125 10.90625 30.515625 
Q 17.53125 35.015625 31.6875 35.015625 
L 42 35.015625 
L 42 36.375 
Q 42 40.53125 38.71875 42.453125 
Q 35.453125 44.390625 28.515625 44.390625 
Q 22.90625 44.390625 18.0625 43.265625 
Q 13.234375 42.140625 9.078125 39.890625 
L 9.078125 53.21875 
Q 14.703125 54.59375 20.359375 55.296875 
Q 26.03125 56 31.6875 56 
Q 46.484375 56 53.046875 50.171875 
Q 59.625 44.34375 59.625 31.203125 
z
" id="DejaVuSans-Bold-97"/>
      <path d="M 63.375 33.296875 
L 63.375 0 
L 45.796875 0 
L 45.796875 5.421875 
L 45.796875 25.484375 
Q 45.796875 32.5625 45.484375 35.25 
Q 45.171875 37.9375 44.390625 39.203125 
Q 43.359375 40.921875 41.59375 41.875 
Q 39.84375 42.828125 37.59375 42.828125 
Q 32.125 42.828125 29 38.59375 
Q 25.875 34.375 25.875 26.90625 
L 25.875 0 
L 8.40625 0 
L 8.40625 54.6875 
L 25.875 54.6875 
L 25.875 46.6875 
Q 29.828125 51.46875 34.265625 53.734375 
Q 38.71875 56 44.09375 56 
Q 53.5625 56 58.46875 50.1875 
Q 63.375 44.390625 63.375 33.296875 
z
" id="DejaVuSans-Bold-110"/>
      <path d="M 51.125 52.984375 
L 51.125 39.703125 
Q 45.515625 42.046875 40.28125 43.21875 
Q 35.0625 44.390625 30.421875 44.390625 
Q 25.4375 44.390625 23.015625 43.140625 
Q 20.609375 41.890625 20.609375 39.3125 
Q 20.609375 37.203125 22.4375 36.078125 
Q 24.265625 34.96875 29 34.421875 
L 32.078125 33.984375 
Q 45.515625 32.28125 50.140625 28.375 
Q 54.78125 24.46875 54.78125 16.109375 
Q 54.78125 7.375 48.328125 2.96875 
Q 41.890625 -1.421875 29.109375 -1.421875 
Q 23.6875 -1.421875 17.890625 -0.5625 
Q 12.109375 0.296875 6 2 
L 6 15.28125 
Q 11.234375 12.75 16.71875 11.46875 
Q 22.21875 10.203125 27.875 10.203125 
Q 33.015625 10.203125 35.59375 11.609375 
Q 38.1875 13.03125 38.1875 15.828125 
Q 38.1875 18.171875 36.40625 19.3125 
Q 34.625 20.453125 29.296875 21.09375 
L 26.21875 21.484375 
Q 14.546875 22.953125 9.859375 26.90625 
Q 5.171875 30.859375 5.171875 38.921875 
Q 5.171875 47.609375 11.125 51.796875 
Q 17.09375 56 29.390625 56 
Q 34.234375 56 39.546875 55.265625 
Q 44.875 54.546875 51.125 52.984375 
z
" id="DejaVuSans-Bold-115"/>
      <path d="M 8.40625 54.6875 
L 25.875 54.6875 
L 25.875 0 
L 8.40625 0 
z
M 8.40625 75.984375 
L 25.875 75.984375 
L 25.875 61.71875 
L 8.40625 61.71875 
z
" id="DejaVuSans-Bold-105"/>
      <path d="M 27.484375 70.21875 
L 27.484375 54.6875 
L 45.515625 54.6875 
L 45.515625 42.1875 
L 27.484375 42.1875 
L 27.484375 19 
Q 27.484375 15.1875 29 13.84375 
Q 30.515625 12.5 35.015625 12.5 
L 44 12.5 
L 44 0 
L 29 0 
Q 18.65625 0 14.328125 4.3125 
Q 10.015625 8.640625 10.015625 19 
L 10.015625 42.1875 
L 1.3125 42.1875 
L 1.3125 54.6875 
L 10.015625 54.6875 
L 10.015625 70.21875 
z
" id="DejaVuSans-Bold-116"/>
      <path d="M 34.421875 43.5 
Q 28.609375 43.5 25.5625 39.328125 
Q 22.515625 35.15625 22.515625 27.296875 
Q 22.515625 19.4375 25.5625 15.25 
Q 28.609375 11.078125 34.421875 11.078125 
Q 40.140625 11.078125 43.15625 15.25 
Q 46.1875 19.4375 46.1875 27.296875 
Q 46.1875 35.15625 43.15625 39.328125 
Q 40.140625 43.5 34.421875 43.5 
z
M 34.421875 56 
Q 48.53125 56 56.46875 48.375 
Q 64.40625 40.765625 64.40625 27.296875 
Q 64.40625 13.8125 56.46875 6.1875 
Q 48.53125 -1.421875 34.421875 -1.421875 
Q 20.265625 -1.421875 12.28125 6.1875 
Q 4.296875 13.8125 4.296875 27.296875 
Q 4.296875 40.765625 12.28125 48.375 
Q 20.265625 56 34.421875 56 
z
" id="DejaVuSans-Bold-111"/>
      <path d="M 44.390625 75.984375 
L 44.390625 64.5 
L 34.71875 64.5 
Q 31 64.5 29.53125 63.15625 
Q 28.078125 61.8125 28.078125 58.5 
L 28.078125 54.6875 
L 43.015625 54.6875 
L 43.015625 42.1875 
L 28.078125 42.1875 
L 28.078125 0 
L 10.59375 0 
L 10.59375 42.1875 
L 1.90625 42.1875 
L 1.90625 54.6875 
L 10.59375 54.6875 
L 10.59375 58.5 
Q 10.59375 67.4375 15.578125 71.703125 
Q 20.5625 75.984375 31 75.984375 
z
" id="DejaVuSans-Bold-102"/>
      <path d="M 62.984375 27.484375 
L 62.984375 22.515625 
L 22.125 22.515625 
Q 22.75 16.359375 26.5625 13.28125 
Q 30.375 10.203125 37.203125 10.203125 
Q 42.71875 10.203125 48.5 11.84375 
Q 54.296875 13.484375 60.40625 16.796875 
L 60.40625 3.328125 
Q 54.203125 0.984375 48 -0.21875 
Q 41.796875 -1.421875 35.59375 -1.421875 
Q 20.75 -1.421875 12.515625 6.125 
Q 4.296875 13.671875 4.296875 27.296875 
Q 4.296875 40.671875 12.375 48.328125 
Q 20.453125 56 34.625 56 
Q 47.515625 56 55.25 48.234375 
Q 62.984375 40.484375 62.984375 27.484375 
z
M 45.015625 33.296875 
Q 45.015625 38.28125 42.109375 41.328125 
Q 39.203125 44.390625 34.515625 44.390625 
Q 29.4375 44.390625 26.265625 41.53125 
Q 23.09375 38.671875 22.3125 33.296875 
z
" id="DejaVuSans-Bold-101"/>
      <path d="M 34.078125 43.3125 
Q 28.515625 43.3125 25.5625 39.203125 
Q 22.609375 35.109375 22.609375 27.296875 
Q 22.609375 19.484375 25.5625 15.375 
Q 28.515625 11.28125 34.078125 11.28125 
Q 39.703125 11.28125 42.65625 15.375 
Q 45.609375 19.484375 45.609375 27.296875 
Q 45.609375 35.109375 42.65625 39.203125 
Q 39.703125 43.3125 34.078125 43.3125 
z
M 45.609375 7.90625 
Q 42 3.078125 37.640625 0.828125 
Q 33.296875 -1.421875 27.59375 -1.421875 
Q 17.484375 -1.421875 10.984375 6.609375 
Q 4.5 14.65625 4.5 27.296875 
Q 4.5 39.9375 10.984375 47.921875 
Q 17.484375 55.90625 27.59375 55.90625 
Q 33.296875 55.90625 37.640625 53.65625 
Q 42 51.421875 45.609375 46.578125 
L 45.609375 54.6875 
L 63.1875 54.6875 
L 63.1875 -20.796875 
L 45.609375 -20.796875 
z
" id="DejaVuSans-Bold-113"/>
      <path d="M 7.8125 21.296875 
L 7.8125 54.6875 
L 25.390625 54.6875 
L 25.390625 49.21875 
Q 25.390625 44.78125 25.34375 38.0625 
Q 25.296875 31.34375 25.296875 29.109375 
Q 25.296875 22.515625 25.640625 19.609375 
Q 25.984375 16.703125 26.8125 15.375 
Q 27.875 13.671875 29.609375 12.734375 
Q 31.34375 11.8125 33.59375 11.8125 
Q 39.0625 11.8125 42.1875 16.015625 
Q 45.3125 20.21875 45.3125 27.6875 
L 45.3125 54.6875 
L 62.796875 54.6875 
L 62.796875 0 
L 45.3125 0 
L 45.3125 7.90625 
Q 41.359375 3.125 36.9375 0.84375 
Q 32.515625 -1.421875 27.203125 -1.421875 
Q 17.71875 -1.421875 12.765625 4.390625 
Q 7.8125 10.203125 7.8125 21.296875 
z
" id="DejaVuSans-Bold-117"/>
      <path d="M 52.59375 52.984375 
L 52.59375 38.71875 
Q 49.03125 41.15625 45.4375 42.328125 
Q 41.84375 43.5 37.984375 43.5 
Q 30.671875 43.5 26.59375 39.234375 
Q 22.515625 34.96875 22.515625 27.296875 
Q 22.515625 19.625 26.59375 15.34375 
Q 30.671875 11.078125 37.984375 11.078125 
Q 42.09375 11.078125 45.78125 12.296875 
Q 49.46875 13.53125 52.59375 15.921875 
L 52.59375 1.609375 
Q 48.484375 0.09375 44.265625 -0.65625 
Q 40.046875 -1.421875 35.796875 -1.421875 
Q 21 -1.421875 12.640625 6.171875 
Q 4.296875 13.765625 4.296875 27.296875 
Q 4.296875 40.828125 12.640625 48.40625 
Q 21 56 35.796875 56 
Q 40.09375 56 44.265625 55.25 
Q 48.4375 54.5 52.59375 52.984375 
z
" id="DejaVuSans-Bold-99"/>
      <path d="M 1.21875 54.6875 
L 18.703125 54.6875 
L 33.40625 17.578125 
L 45.90625 54.6875 
L 63.375 54.6875 
L 40.375 -5.171875 
Q 36.921875 -14.3125 32.296875 -17.9375 
Q 27.6875 -21.578125 20.125 -21.578125 
L 10.015625 -21.578125 
L 10.015625 -10.109375 
L 15.484375 -10.109375 
Q 19.921875 -10.109375 21.9375 -8.6875 
Q 23.96875 -7.28125 25.09375 -3.609375 
L 25.59375 -2.09375 
z
" id="DejaVuSans-Bold-121"/>
      <path d="M 9.1875 72.90625 
L 33.109375 72.90625 
L 49.703125 33.890625 
L 66.40625 72.90625 
L 90.28125 72.90625 
L 90.28125 0 
L 72.515625 0 
L 72.515625 53.328125 
L 55.71875 14.015625 
L 43.796875 14.015625 
L 27 53.328125 
L 27 0 
L 9.1875 0 
z
" id="DejaVuSans-Bold-77"/>
      <path d="M 9.1875 72.90625 
L 27.984375 72.90625 
L 27.984375 45.125 
L 55.71875 45.125 
L 55.71875 72.90625 
L 74.515625 72.90625 
L 74.515625 0 
L 55.71875 0 
L 55.71875 30.90625 
L 27.984375 30.90625 
L 27.984375 0 
L 9.1875 0 
z
" id="DejaVuSans-Bold-72"/>
      <path d="M 5.71875 54.6875 
L 53.421875 54.6875 
L 53.421875 42.484375 
L 24.609375 12.5 
L 53.421875 12.5 
L 53.421875 0 
L 4.5 0 
L 4.5 12.203125 
L 33.296875 42.1875 
L 5.71875 42.1875 
z
" id="DejaVuSans-Bold-122"/>
     </defs>
     <g transform="translate(31.705469 445.807109)rotate(-90)scale(0.25 -0.25)">
      <use xlink:href="#DejaVuSans-Bold-84"/>
      <use x="57.212891" xlink:href="#DejaVuSans-Bold-114"/>
      <use x="106.529297" xlink:href="#DejaVuSans-Bold-97"/>
      <use x="174.009766" xlink:href="#DejaVuSans-Bold-110"/>
      <use x="245.201172" xlink:href="#DejaVuSans-Bold-115"/>
      <use x="304.722656" xlink:href="#DejaVuSans-Bold-105"/>
      <use x="339" xlink:href="#DejaVuSans-Bold-116"/>
      <use x="386.802734" xlink:href="#DejaVuSans-Bold-105"/>
      <use x="421.080078" xlink:href="#DejaVuSans-Bold-111"/>
      <use x="489.78125" xlink:href="#DejaVuSans-Bold-110"/>
      <use x="560.972656" xlink:href="#DejaVuSans-Bold-32"/>
      <use x="595.787109" xlink:href="#DejaVuSans-Bold-102"/>
      <use x="639.292969" xlink:href="#DejaVuSans-Bold-114"/>
      <use x="688.609375" xlink:href="#DejaVuSans-Bold-101"/>
      <use x="756.431641" xlink:href="#DejaVuSans-Bold-113"/>
      <use x="828.013672" xlink:href="#DejaVuSans-Bold-117"/>
      <use x="899.205078" xlink:href="#DejaVuSans-Bold-101"/>
      <use x="967.027344" xlink:href="#DejaVuSans-Bold-110"/>
      <use x="1038.21875" xlink:href="#DejaVuSans-Bold-99"/>
      <use x="1097.496094" xlink:href="#DejaVuSans-Bold-121"/>
      <use x="1162.681641" xlink:href="#DejaVuSans-Bold-32"/>
      <use x="1197.496094" xlink:href="#DejaVuSans-Bold-40"/>
      <use x="1243.199219" xlink:href="#DejaVuSans-Bold-77"/>
      <use x="1342.710938" xlink:href="#DejaVuSans-Bold-72"/>
      <use x="1426.402344" xlink:href="#DejaVuSans-Bold-122"/>
      <use x="1484.605469" xlink:href="#DejaVuSans-Bold-41"/>
     </g>
    </g>
   </g>
   <g id="line2d_14">
    <path clip-path="url(#pc0a54eaf80)" d="M 126.9 219.060865 
L 132.536364 218.752248 
L 138.172727 218.082141 
L 143.809091 217.289401 
L 149.445455 216.448605 
L 155.081818 215.583595 
L 160.718182 214.703718 
L 166.354545 213.813298 
L 171.990909 212.914588 
L 177.627273 212.008872 
L 183.263636 211.096936 
L 188.9 210.179285 
L 194.536364 209.25626 
L 200.172727 208.3281 
L 205.809091 207.394975 
L 211.445455 206.457013 
L 217.081818 205.514309 
L 222.718182 204.566939 
L 228.354545 203.614959 
L 233.990909 202.658418 
L 239.627273 201.697352 
L 245.263636 200.731794 
L 250.9 199.761769 
L 256.536364 198.787299 
L 262.172727 197.808403 
L 267.809091 196.825098 
L 273.445455 195.837397 
L 279.081818 194.845313 
L 284.718182 193.848858 
L 290.354545 192.848041 
L 295.990909 191.842871 
L 301.627273 190.833357 
L 307.263636 189.819507 
L 312.9 188.801327 
L 318.536364 187.778825 
L 324.172727 186.752006 
L 329.809091 185.720877 
L 335.445455 184.685442 
L 341.081818 183.645709 
L 346.718182 182.601681 
L 352.354545 181.553363 
L 357.990909 180.500762 
L 363.627273 179.443881 
L 369.263636 178.382725 
L 374.9 177.317298 
L 380.536364 176.247605 
L 386.172727 175.173651 
L 391.809091 174.095439 
L 397.445455 173.012975 
L 403.081818 171.926261 
L 408.718182 170.835303 
L 414.354545 169.740104 
L 419.990909 168.640669 
L 425.627273 167.537002 
L 431.263636 166.429106 
L 436.9 165.316987 
L 442.536364 164.200648 
L 448.172727 163.080092 
L 453.809091 161.955325 
L 459.445455 160.826351 
L 465.081818 159.693173 
L 470.718182 158.555795 
L 476.354545 157.414222 
L 481.990909 156.268457 
L 487.627273 155.118506 
L 493.263636 153.964372 
L 498.9 152.806058 
L 504.536364 151.64357 
L 510.172727 150.476912 
L 515.809091 149.306087 
L 521.445455 148.131101 
L 527.081818 146.951956 
L 532.718182 145.768658 
L 538.354545 144.58121 
L 543.990909 143.389618 
L 549.627273 142.193884 
L 555.263636 140.994015 
L 560.9 139.790013 
L 566.536364 138.581884 
L 572.172727 137.369631 
L 577.809091 136.153259 
L 583.445455 134.932773 
L 589.081818 133.708177 
L 594.718182 132.479476 
L 600.354545 131.246673 
L 605.990909 130.009774 
L 611.627273 128.768783 
L 617.263636 127.523705 
L 622.9 126.274543 
L 628.536364 125.021304 
L 634.172727 123.763991 
L 639.809091 122.502609 
L 645.445455 121.237163 
L 651.081818 119.967657 
L 656.718182 118.694097 
L 662.354545 117.416486 
L 667.990909 116.13483 
L 673.627273 114.849134 
L 679.263636 113.559402 
L 684.9 112.265639 
" style="fill:none;stroke:#1f77b4;stroke-linecap:square;stroke-width:5;"/>
   </g>
   <g id="line2d_15">
    <path clip-path="url(#pc0a54eaf80)" d="M 126.9 221.271221 
L 132.536364 221.575475 
L 138.172727 222.232493 
L 143.809091 223.003418 
L 149.445455 223.813674 
L 155.081818 224.639418 
L 160.718182 225.471304 
L 166.354545 226.305008 
L 171.990909 227.138278 
L 177.627273 227.96983 
L 183.263636 228.798879 
L 188.9 229.624921 
L 194.536364 230.447615 
L 200.172727 231.266723 
L 205.809091 232.082077 
L 211.445455 232.893548 
L 217.081818 233.701043 
L 222.718182 234.504488 
L 228.354545 235.303826 
L 233.990909 236.099012 
L 239.627273 236.890009 
L 245.263636 237.676788 
L 250.9 238.459322 
L 256.536364 239.237593 
L 262.172727 240.011583 
L 267.809091 240.781277 
L 273.445455 241.546663 
L 279.081818 242.30773 
L 284.718182 243.064469 
L 290.354545 243.816871 
L 295.990909 244.56493 
L 301.627273 245.30864 
L 307.263636 246.047995 
L 312.9 246.782989 
L 318.536364 247.51362 
L 324.172727 248.239882 
L 329.809091 248.961773 
L 335.445455 249.679289 
L 341.081818 250.392427 
L 346.718182 251.101185 
L 352.354545 251.805561 
L 357.990909 252.505553 
L 363.627273 253.201158 
L 369.263636 253.892376 
L 374.9 254.579204 
L 380.536364 255.261642 
L 386.172727 255.939687 
L 391.809091 256.61334 
L 397.445455 257.282598 
L 403.081818 257.947462 
L 408.718182 258.60793 
L 414.354545 259.264003 
L 419.990909 259.915678 
L 425.627273 260.562956 
L 431.263636 261.205837 
L 436.9 261.84432 
L 442.536364 262.478405 
L 448.172727 263.108091 
L 453.809091 263.73338 
L 459.445455 264.35427 
L 465.081818 264.970762 
L 470.718182 265.582855 
L 476.354545 266.190551 
L 481.990909 266.793849 
L 487.627273 267.39275 
L 493.263636 267.987254 
L 498.9 268.577361 
L 504.536364 269.163072 
L 510.172727 269.744387 
L 515.809091 270.321308 
L 521.445455 270.893834 
L 527.081818 271.461966 
L 532.718182 272.025705 
L 538.354545 272.585052 
L 543.990909 273.140007 
L 549.627273 273.690572 
L 555.263636 274.236747 
L 560.9 274.778533 
L 566.536364 275.315932 
L 572.172727 275.848944 
L 577.809091 276.377571 
L 583.445455 276.901813 
L 589.081818 277.421672 
L 594.718182 277.937149 
L 600.354545 278.448245 
L 605.990909 278.954962 
L 611.627273 279.457301 
L 617.263636 279.955264 
L 622.9 280.448852 
L 628.536364 280.938066 
L 634.172727 281.422907 
L 639.809091 281.903379 
L 645.445455 282.379482 
L 651.081818 282.851217 
L 656.718182 283.318587 
L 662.354545 283.781594 
L 667.990909 284.240238 
L 673.627273 284.694523 
L 679.263636 285.14445 
L 684.9 285.59002 
" style="fill:none;stroke:#1f77b4;stroke-linecap:square;stroke-width:5;"/>
   </g>
   <g id="line2d_16">
    <path clip-path="url(#pc0a54eaf80)" d="M 126.9 283.897977 
L 132.536364 283.58918 
L 138.172727 282.918583 
L 143.809091 282.125067 
L 149.445455 281.283214 
L 155.081818 280.416863 
L 160.718182 279.535363 
L 166.354545 278.643037 
L 171.990909 277.742138 
L 177.627273 276.833952 
L 183.263636 275.919263 
L 188.9 274.998577 
L 194.536364 274.072236 
L 200.172727 273.140478 
L 205.809091 272.203475 
L 211.445455 271.261354 
L 217.081818 270.314212 
L 222.718182 269.362122 
L 228.354545 268.405145 
L 233.990909 267.443326 
L 239.627273 266.476704 
L 245.263636 265.505312 
L 250.9 264.529174 
L 256.536364 263.548314 
L 262.172727 262.562751 
L 267.809091 261.572502 
L 273.445455 260.577581 
L 279.081818 259.578001 
L 284.718182 258.573775 
L 290.354545 257.564911 
L 295.990909 256.551421 
L 301.627273 255.533312 
L 307.263636 254.510593 
L 312.9 253.483271 
L 318.536364 252.451354 
L 324.172727 251.414848 
L 329.809091 250.37376 
L 335.445455 249.328096 
L 341.081818 248.277862 
L 346.718182 247.223063 
L 352.354545 246.163706 
L 357.990909 245.099794 
L 363.627273 244.031335 
L 369.263636 242.958332 
L 374.9 241.880791 
L 380.536364 240.798717 
L 386.172727 239.712115 
L 391.809091 238.62099 
L 397.445455 237.525346 
L 403.081818 236.425188 
L 408.718182 235.320522 
L 414.354545 234.211351 
L 419.990909 233.097681 
L 425.627273 231.979516 
L 431.263636 230.856861 
L 436.9 229.72972 
L 442.536364 228.5981 
L 448.172727 227.462003 
L 453.809091 226.321434 
L 459.445455 225.1764 
L 465.081818 224.026903 
L 470.718182 222.87295 
L 476.354545 221.714544 
L 481.990909 220.551691 
L 487.627273 219.384394 
L 493.263636 218.21266 
L 498.9 217.036493 
L 504.536364 215.855897 
L 510.172727 214.670878 
L 515.809091 213.481441 
L 521.445455 212.287589 
L 527.081818 211.089329 
L 532.718182 209.886665 
L 538.354545 208.679602 
L 543.990909 207.468146 
L 549.627273 206.2523 
L 555.263636 205.032071 
L 560.9 203.807463 
L 566.536364 202.578481 
L 572.172727 201.345131 
L 577.809091 200.107417 
L 583.445455 198.865345 
L 589.081818 197.61892 
L 594.718182 196.368148 
L 600.354545 195.113033 
L 605.990909 193.85358 
L 611.627273 192.589796 
L 617.263636 191.321685 
L 622.9 190.049253 
L 628.536364 188.772504 
L 634.172727 187.491446 
L 639.809091 186.206082 
L 645.445455 184.916419 
L 651.081818 183.622462 
L 656.718182 182.324216 
L 662.354545 181.021687 
L 667.990909 179.714881 
L 673.627273 178.403803 
L 679.263636 177.088458 
L 684.9 175.768853 
" style="fill:none;stroke:#ff7f0e;stroke-dasharray:9.25,4;stroke-dashoffset:0;stroke-width:2.5;"/>
   </g>
   <g id="line2d_17">
    <path clip-path="url(#pc0a54eaf80)" d="M 126.9 286.108333 
L 132.536364 286.412482 
L 138.172727 287.069136 
L 143.809091 287.839413 
L 149.445455 288.648733 
L 155.081818 289.473256 
L 160.718182 290.303633 
L 166.354545 291.135542 
L 171.990909 291.966731 
L 177.627273 292.795915 
L 183.263636 293.62231 
L 188.9 294.44541 
L 194.536364 295.264875 
L 200.172727 296.080468 
L 205.809091 296.892019 
L 211.445455 297.6994 
L 217.081818 298.502516 
L 222.718182 299.301296 
L 228.354545 300.095681 
L 233.990909 300.885625 
L 239.627273 301.671093 
L 245.263636 302.452053 
L 250.9 303.228482 
L 256.536364 304.000359 
L 262.172727 304.767667 
L 267.809091 305.53039 
L 273.445455 306.288516 
L 279.081818 307.042036 
L 284.718182 307.790938 
L 290.354545 308.535216 
L 295.990909 309.274862 
L 301.627273 310.009869 
L 307.263636 310.740233 
L 312.9 311.465948 
L 318.536364 312.187011 
L 324.172727 312.903417 
L 329.809091 313.615162 
L 335.445455 314.322244 
L 341.081818 315.024661 
L 346.718182 315.722409 
L 352.354545 316.415486 
L 357.990909 317.10389 
L 363.627273 317.78762 
L 369.263636 318.466674 
L 374.9 319.141051 
L 380.536364 319.810749 
L 386.172727 320.475767 
L 391.809091 321.136104 
L 397.445455 321.79176 
L 403.081818 322.442734 
L 408.718182 323.089025 
L 414.354545 323.730632 
L 419.990909 324.367556 
L 425.627273 324.999796 
L 431.263636 325.627352 
L 436.9 326.250223 
L 442.536364 326.86841 
L 448.172727 327.481913 
L 453.809091 328.090731 
L 459.445455 328.694866 
L 465.081818 329.294317 
L 470.718182 329.889085 
L 476.354545 330.47917 
L 481.990909 331.064572 
L 487.627273 331.645293 
L 493.263636 332.221332 
L 498.9 332.792691 
L 504.536364 333.359371 
L 510.172727 333.921371 
L 515.809091 334.478693 
L 521.445455 335.031338 
L 527.081818 335.579307 
L 532.718182 336.122601 
L 538.354545 336.661221 
L 543.990909 337.195169 
L 549.627273 337.724444 
L 555.263636 338.24905 
L 560.9 338.768986 
L 566.536364 339.284255 
L 572.172727 339.794857 
L 577.809091 340.300795 
L 583.445455 340.80207 
L 589.081818 341.298684 
L 594.718182 341.790638 
L 600.354545 342.277933 
L 605.990909 342.760573 
L 611.627273 343.238558 
L 617.263636 343.71189 
L 622.9 344.180571 
L 628.536364 344.644604 
L 634.172727 345.10399 
L 639.809091 345.558731 
L 645.445455 346.00883 
L 651.081818 346.454289 
L 656.718182 346.895109 
L 662.354545 347.331294 
L 667.990909 347.762845 
L 673.627273 348.189765 
L 679.263636 348.612056 
L 684.9 349.029722 
" style="fill:none;stroke:#ff7f0e;stroke-dasharray:9.25,4;stroke-dashoffset:0;stroke-width:2.5;"/>
   </g>
   <g id="line2d_18">
    <path clip-path="url(#pc0a54eaf80)" d="M 126.9 367.891508 
L 132.536364 367.58244 
L 138.172727 366.911104 
L 143.809091 366.116419 
L 149.445455 365.272972 
L 155.081818 364.404601 
L 160.718182 363.520655 
L 166.354545 362.625457 
L 171.990909 361.72126 
L 177.627273 360.80935 
L 183.263636 359.890513 
L 188.9 358.965255 
L 194.536364 358.033917 
L 200.172727 357.096739 
L 205.809091 356.153893 
L 211.445455 355.205507 
L 217.081818 354.251678 
L 222.718182 353.292481 
L 228.354545 352.327975 
L 233.990909 351.358207 
L 239.627273 350.383218 
L 245.263636 349.403039 
L 250.9 348.417698 
L 256.536364 347.427216 
L 262.172727 346.431616 
L 267.809091 345.430912 
L 273.445455 344.425122 
L 279.081818 343.414259 
L 284.718182 342.398335 
L 290.354545 341.377361 
L 295.990909 340.351347 
L 301.627273 339.320304 
L 307.263636 338.28424 
L 312.9 337.243163 
L 318.536364 336.197082 
L 324.172727 335.146004 
L 329.809091 334.089936 
L 335.445455 333.028885 
L 341.081818 331.962858 
L 346.718182 330.891862 
L 352.354545 329.815903 
L 357.990909 328.734986 
L 363.627273 327.649119 
L 369.263636 326.558308 
L 374.9 325.462557 
L 380.536364 324.361874 
L 386.172727 323.256264 
L 391.809091 322.145733 
L 397.445455 321.030286 
L 403.081818 319.90993 
L 408.718182 318.784671 
L 414.354545 317.654513 
L 419.990909 316.519462 
L 425.627273 315.379525 
L 431.263636 314.234707 
L 436.9 313.085014 
L 442.536364 311.930451 
L 448.172727 310.771024 
L 453.809091 309.606739 
L 459.445455 308.437602 
L 465.081818 307.263618 
L 470.718182 306.084794 
L 476.354545 304.901135 
L 481.990909 303.712647 
L 487.627273 302.519336 
L 493.263636 301.321208 
L 498.9 300.118268 
L 504.536364 298.910523 
L 510.172727 297.697979 
L 515.809091 296.480642 
L 521.445455 295.258517 
L 527.081818 294.031612 
L 532.718182 292.799931 
L 538.354545 291.563481 
L 543.990909 290.322269 
L 549.627273 289.076301 
L 555.263636 287.825582 
L 560.9 286.570119 
L 566.536364 285.309919 
L 572.172727 284.044987 
L 577.809091 282.775331 
L 583.445455 281.500956 
L 589.081818 280.22187 
L 594.718182 278.938077 
L 600.354545 277.649586 
L 605.990909 276.356403 
L 611.627273 275.058534 
L 617.263636 273.755985 
L 622.9 272.448764 
L 628.536364 271.136878 
L 634.172727 269.820332 
L 639.809091 268.499134 
L 645.445455 267.17329 
L 651.081818 265.842808 
L 656.718182 264.507693 
L 662.354545 263.167954 
L 667.990909 261.823597 
L 673.627273 260.474629 
L 679.263636 259.121057 
L 684.9 257.762888 
" style="fill:none;stroke:#2ca02c;stroke-dasharray:16,4,2.5,4;stroke-dashoffset:0;stroke-width:2.5;"/>
   </g>
   <g id="line2d_19">
    <path clip-path="url(#pc0a54eaf80)" d="M 126.9 370.101864 
L 132.536364 370.405854 
L 138.172727 371.06196 
L 143.809091 371.83126 
L 149.445455 372.63917 
L 155.081818 373.461851 
L 160.718182 374.289954 
L 166.354545 375.119157 
L 171.990909 375.947208 
L 177.627273 376.772822 
L 183.263636 377.595214 
L 188.9 378.413878 
L 194.536364 379.228476 
L 200.172727 380.038767 
L 205.809091 380.844583 
L 211.445455 381.645796 
L 217.081818 382.442311 
L 222.718182 383.234054 
L 228.354545 384.020969 
L 233.990909 384.803009 
L 239.627273 385.580138 
L 245.263636 386.352326 
L 250.9 387.119547 
L 256.536364 387.881782 
L 262.172727 388.639012 
L 267.809091 389.391223 
L 273.445455 390.138402 
L 279.081818 390.880539 
L 284.718182 391.617625 
L 290.354545 392.34965 
L 295.990909 393.076608 
L 301.627273 393.798494 
L 307.263636 394.5153 
L 312.9 395.227023 
L 318.536364 395.933658 
L 324.172727 396.635201 
L 329.809091 397.33165 
L 335.445455 398.023 
L 341.081818 398.70925 
L 346.718182 399.390397 
L 352.354545 400.066439 
L 357.990909 400.737374 
L 363.627273 401.4032 
L 369.263636 402.063917 
L 374.9 402.719523 
L 380.536364 403.370016 
L 386.172727 404.015397 
L 391.809091 404.655664 
L 397.445455 405.290816 
L 403.081818 405.920854 
L 408.718182 406.545777 
L 414.354545 407.165585 
L 419.990909 407.780277 
L 425.627273 408.389855 
L 431.263636 408.994317 
L 436.9 409.593664 
L 442.536364 410.187897 
L 448.172727 410.777016 
L 453.809091 411.361022 
L 459.445455 411.939914 
L 465.081818 412.513695 
L 470.718182 413.082364 
L 476.354545 413.645923 
L 481.990909 414.204372 
L 487.627273 414.757713 
L 493.263636 415.305946 
L 498.9 415.849074 
L 504.536364 416.387096 
L 510.172727 416.920016 
L 515.809091 417.447833 
L 521.445455 417.97055 
L 527.081818 418.488168 
L 532.718182 419.000688 
L 538.354545 419.508114 
L 543.990909 420.010445 
L 549.627273 420.507685 
L 555.263636 420.999835 
L 560.9 421.486897 
L 566.536364 421.968874 
L 572.172727 422.445767 
L 577.809091 422.917578 
L 583.445455 423.384311 
L 589.081818 423.845967 
L 594.718182 424.302548 
L 600.354545 424.754058 
L 605.990909 425.200499 
L 611.627273 425.641873 
L 617.263636 426.078183 
L 622.9 426.509432 
L 628.536364 426.935623 
L 634.172727 427.356759 
L 639.809091 427.772842 
L 645.445455 428.183876 
L 651.081818 428.589864 
L 656.718182 428.990808 
L 662.354545 429.386713 
L 667.990909 429.777581 
L 673.627273 430.163416 
L 679.263636 430.544221 
L 684.9 430.92 
" style="fill:none;stroke:#2ca02c;stroke-dasharray:16,4,2.5,4;stroke-dashoffset:0;stroke-width:2.5;"/>
   </g>
   <g id="line2d_20">
    <path clip-path="url(#pc0a54eaf80)" d="M 126.9 192.801248 
L 132.536364 193.581609 
L 138.172727 194.357313 
L 143.809091 195.128326 
L 149.445455 195.894603 
L 155.081818 196.656095 
L 160.718182 197.412744 
L 166.354545 198.164479 
L 171.990909 198.911218 
L 177.627273 199.652862 
L 183.263636 200.38929 
L 188.9 201.120353 
L 194.536364 201.845869 
L 200.172727 202.565606 
L 205.809091 203.279274 
L 211.445455 203.986495 
L 217.081818 204.686777 
L 222.718182 205.37946 
L 228.354545 206.063646 
L 233.990909 206.73808 
L 239.627273 207.400958 
L 245.263636 208.049602 
L 250.9 208.679886 
L 256.536364 209.285175 
L 262.172727 209.854289 
L 267.809091 210.367465 
L 273.445455 210.788661 
L 279.081818 211.054035 
L 284.718182 211.071284 
L 290.354545 210.77132 
L 295.990909 210.181931 
L 301.627273 209.39508 
L 307.263636 208.490203 
L 312.9 207.515095 
L 318.536364 206.496005 
L 324.172727 205.447511 
L 329.809091 204.378069 
L 335.445455 203.292823 
L 341.081818 202.195052 
L 346.718182 201.086925 
L 352.354545 199.969935 
L 357.990909 198.845134 
L 363.627273 197.71329 
L 369.263636 196.574972 
L 374.9 195.430611 
L 380.536364 194.280541 
L 386.172727 193.125024 
L 391.809091 191.964268 
L 397.445455 190.798442 
L 403.081818 189.627683 
L 408.718182 188.452106 
L 414.354545 187.271804 
L 419.990909 186.086858 
L 425.627273 184.897337 
L 431.263636 183.703297 
L 436.9 182.504791 
L 442.536364 181.301862 
L 448.172727 180.094549 
L 453.809091 178.882886 
L 459.445455 177.666903 
L 465.081818 176.446628 
L 470.718182 175.222085 
L 476.354545 173.993297 
L 481.990909 172.760283 
L 487.627273 171.523064 
L 493.263636 170.281655 
L 498.9 169.036074 
L 504.536364 167.786334 
L 510.172727 166.53245 
L 515.809091 165.274434 
L 521.445455 164.0123 
L 527.081818 162.746058 
L 532.718182 161.47572 
L 538.354545 160.201297 
L 543.990909 158.922798 
L 549.627273 157.640234 
L 555.263636 156.353614 
L 560.9 155.062946 
L 566.536364 153.76824 
L 572.172727 152.469505 
L 577.809091 151.166748 
L 583.445455 149.859977 
L 589.081818 148.549201 
L 594.718182 147.234428 
L 600.354545 145.915664 
L 605.990909 144.592918 
L 611.627273 143.266197 
L 617.263636 141.935508 
L 622.9 140.600858 
L 628.536364 139.262254 
L 634.172727 137.919703 
L 639.809091 136.573213 
L 645.445455 135.222789 
L 651.081818 133.868439 
L 656.718182 132.510169 
L 662.354545 131.147987 
L 667.990909 129.781898 
L 673.627273 128.41191 
L 679.263636 127.038028 
L 684.9 125.66026 
" style="fill:none;stroke:#d62728;stroke-dasharray:2.5,4.125;stroke-dashoffset:0;stroke-width:2.5;"/>
   </g>
   <g id="line2d_21">
    <path clip-path="url(#pc0a54eaf80)" d="M 126.9 242.698266 
L 132.536364 243.665515 
L 138.172727 244.628689 
L 143.809091 245.58776 
L 149.445455 246.542706 
L 155.081818 247.493503 
L 160.718182 248.440133 
L 166.354545 249.382578 
L 171.990909 250.320821 
L 177.627273 251.254849 
L 183.263636 252.184646 
L 188.9 253.110202 
L 194.536364 254.031505 
L 200.172727 254.948545 
L 205.809091 255.861311 
L 211.445455 256.769794 
L 217.081818 257.673986 
L 222.718182 258.573879 
L 228.354545 259.469465 
L 233.990909 260.360738 
L 239.627273 261.247691 
L 245.263636 262.130316 
L 250.9 263.008609 
L 256.536364 263.882564 
L 262.172727 264.752174 
L 267.809091 265.617436 
L 273.445455 266.478344 
L 279.081818 267.334892 
L 284.718182 268.187078 
L 290.354545 269.034896 
L 295.990909 269.878342 
L 301.627273 270.717412 
L 307.263636 271.552102 
L 312.9 272.382409 
L 318.536364 273.208329 
L 324.172727 274.029858 
L 329.809091 274.846993 
L 335.445455 275.659731 
L 341.081818 276.468069 
L 346.718182 277.272003 
L 352.354545 278.071531 
L 357.990909 278.866649 
L 363.627273 279.657356 
L 369.263636 280.443648 
L 374.9 281.225522 
L 380.536364 282.002977 
L 386.172727 282.77601 
L 391.809091 283.544618 
L 397.445455 284.3088 
L 403.081818 285.068552 
L 408.718182 285.823873 
L 414.354545 286.574761 
L 419.990909 287.321213 
L 425.627273 288.063228 
L 431.263636 288.800804 
L 436.9 289.533939 
L 442.536364 290.262632 
L 448.172727 290.98688 
L 453.809091 291.706681 
L 459.445455 292.422035 
L 465.081818 293.13294 
L 470.718182 293.839394 
L 476.354545 294.541396 
L 481.990909 295.238945 
L 487.627273 295.932038 
L 493.263636 296.620676 
L 498.9 297.304856 
L 504.536364 297.984578 
L 510.172727 298.65984 
L 515.809091 299.330641 
L 521.445455 299.996981 
L 527.081818 300.658858 
L 532.718182 301.316272 
L 538.354545 301.969222 
L 543.990909 302.617706 
L 549.627273 303.261724 
L 555.263636 303.901276 
L 560.9 304.536361 
L 566.536364 305.166977 
L 572.172727 305.793126 
L 577.809091 306.414805 
L 583.445455 307.032015 
L 589.081818 307.644755 
L 594.718182 308.253025 
L 600.354545 308.856824 
L 605.990909 309.456153 
L 611.627273 310.05101 
L 617.263636 310.641397 
L 622.9 311.227312 
L 628.536364 311.808755 
L 634.172727 312.385728 
L 639.809091 312.958228 
L 645.445455 313.526258 
L 651.081818 314.089816 
L 656.718182 314.648903 
L 662.354545 315.20352 
L 667.990909 315.753665 
L 673.627273 316.299341 
L 679.263636 316.840546 
L 684.9 317.377282 
" style="fill:none;stroke:#d62728;stroke-dasharray:2.5,4.125;stroke-dashoffset:0;stroke-width:2.5;"/>
   </g>
   <g id="line2d_22">
    <path clip-path="url(#pc0a54eaf80)" d="M 126.9 192.801248 
L 132.536364 192.016264 
L 138.172727 191.226684 
L 143.809091 190.432532 
L 149.445455 189.633831 
L 155.081818 188.830598 
L 160.718182 188.022851 
L 166.354545 187.210605 
L 171.990909 186.393873 
L 177.627273 185.572668 
L 183.263636 184.747 
L 188.9 183.91688 
L 194.536364 183.082317 
L 200.172727 182.243318 
L 205.809091 181.399892 
L 211.445455 180.552046 
L 217.081818 179.699786 
L 222.718182 178.843118 
L 228.354545 177.982048 
L 233.990909 177.116582 
L 239.627273 176.246723 
L 245.263636 175.372478 
L 250.9 174.49385 
L 256.536364 173.610843 
L 262.172727 172.723463 
L 267.809091 171.831711 
L 273.445455 170.935593 
L 279.081818 170.035111 
L 284.718182 169.130269 
L 290.354545 168.221071 
L 295.990909 167.307519 
L 301.627273 166.389616 
L 307.263636 165.467367 
L 312.9 164.540773 
L 318.536364 163.609837 
L 324.172727 162.674563 
L 329.809091 161.734953 
L 335.445455 160.79101 
L 341.081818 159.842736 
L 346.718182 158.890135 
L 352.354545 157.933209 
L 357.990909 156.971961 
L 363.627273 156.006393 
L 369.263636 155.036507 
L 374.9 154.062308 
L 380.536364 153.083796 
L 386.172727 152.100975 
L 391.809091 151.113848 
L 397.445455 150.122416 
L 403.081818 149.126683 
L 408.718182 148.126651 
L 414.354545 147.122323 
L 419.990909 146.113701 
L 425.627273 145.100789 
L 431.263636 144.083588 
L 436.9 143.062101 
L 442.536364 142.036331 
L 448.172727 141.006281 
L 453.809091 139.971953 
L 459.445455 138.933351 
L 465.081818 137.890476 
L 470.718182 136.843332 
L 476.354545 135.791921 
L 481.990909 134.736246 
L 487.627273 133.676311 
L 493.263636 132.612117 
L 498.9 131.543668 
L 504.536364 130.470966 
L 510.172727 129.394015 
L 515.809091 128.312817 
L 521.445455 127.227375 
L 527.081818 126.137693 
L 532.718182 125.043773 
L 538.354545 123.945618 
L 543.990909 122.843232 
L 549.627273 121.736617 
L 555.263636 120.625777 
L 560.9 119.510714 
L 566.536364 118.391432 
L 572.172727 117.267934 
L 577.809091 116.140223 
L 583.445455 115.008303 
L 589.081818 113.872177 
L 594.718182 112.731847 
L 600.354545 111.587318 
L 605.990909 110.438592 
L 611.627273 109.285673 
L 617.263636 108.128565 
L 622.9 106.967271 
L 628.536364 105.801793 
L 634.172727 104.632137 
L 639.809091 103.458305 
L 645.445455 102.2803 
L 651.081818 101.098127 
L 656.718182 99.911789 
L 662.354545 98.721289 
L 667.990909 97.526632 
L 673.627273 96.327821 
L 679.263636 95.124859 
L 684.9 93.91775 
" style="fill:none;stroke:#d62728;stroke-dasharray:2.5,4.125;stroke-dashoffset:0;stroke-width:2.5;"/>
   </g>
   <g id="line2d_23">
    <path clip-path="url(#pc0a54eaf80)" d="M 126.9 192.801248 
L 132.536364 193.744691 
L 138.172727 194.683475 
L 143.809091 195.617563 
L 149.445455 196.546909 
L 155.081818 197.471461 
L 160.718182 198.391159 
L 166.354545 199.30593 
L 171.990909 200.21569 
L 177.627273 201.120337 
L 183.263636 202.019748 
L 188.9 202.913773 
L 194.536364 203.802225 
L 200.172727 204.684873 
L 205.809091 205.561423 
L 211.445455 206.431496 
L 217.081818 207.294597 
L 222.718182 208.150063 
L 228.354545 208.996996 
L 233.990909 209.834137 
L 239.627273 210.65968 
L 245.263636 211.470945 
L 250.9 212.263805 
L 256.536364 213.031622 
L 262.172727 213.763212 
L 267.809091 214.438813 
L 273.445455 215.022379 
L 279.081818 215.450067 
L 284.718182 215.629569 
L 290.354545 215.491798 
L 295.990909 215.064538 
L 301.627273 214.439752 
L 307.263636 213.696872 
L 312.9 212.883691 
L 318.536364 212.026455 
L 324.172727 211.139743 
L 329.809091 210.232005 
L 335.445455 209.308386 
L 341.081818 208.372161 
L 346.718182 207.425498 
L 352.354545 206.469886 
L 357.990909 205.506378 
L 363.627273 204.535737 
L 369.263636 203.55853 
L 374.9 202.575188 
L 380.536364 201.586042 
L 386.172727 200.591351 
L 391.809091 199.591322 
L 397.445455 198.586121 
L 403.081818 197.575885 
L 408.718182 196.560723 
L 414.354545 195.54073 
L 419.990909 194.515983 
L 425.627273 193.486548 
L 431.263636 192.452481 
L 436.9 191.413832 
L 442.536364 190.370641 
L 448.172727 189.322946 
L 453.809091 188.270779 
L 459.445455 187.214169 
L 465.081818 186.153139 
L 470.718182 185.087714 
L 476.354545 184.017914 
L 481.990909 182.943756 
L 487.627273 181.865257 
L 493.263636 180.782433 
L 498.9 179.695298 
L 504.536364 178.603864 
L 510.172727 177.508144 
L 515.809091 176.408148 
L 521.445455 175.303888 
L 527.081818 174.195371 
L 532.718182 173.082609 
L 538.354545 171.965609 
L 543.990909 170.84438 
L 549.627273 169.718929 
L 555.263636 168.589264 
L 560.9 167.455393 
L 566.536364 166.317321 
L 572.172727 165.175056 
L 577.809091 164.028605 
L 583.445455 162.877972 
L 589.081818 161.723165 
L 594.718182 160.564189 
L 600.354545 159.40105 
L 605.990909 158.233754 
L 611.627273 157.062305 
L 617.263636 155.886711 
L 622.9 154.706975 
L 628.536364 153.523103 
L 634.172727 152.3351 
L 639.809091 151.142971 
L 645.445455 149.946722 
L 651.081818 148.746357 
L 656.718182 147.541881 
L 662.354545 146.3333 
L 667.990909 145.120617 
L 673.627273 143.903838 
L 679.263636 142.682967 
L 684.9 141.45801 
" style="fill:none;stroke:#d62728;stroke-dasharray:2.5,4.125;stroke-dashoffset:0;stroke-width:2.5;"/>
   </g>
   <g id="line2d_24">
    <path clip-path="url(#pc0a54eaf80)" d="M 126.9 192.801248 
L 132.536364 191.853182 
L 138.172727 190.900522 
L 143.809091 189.943295 
L 149.445455 188.981525 
L 155.081818 188.015232 
L 160.718182 187.044436 
L 166.354545 186.069154 
L 171.990909 185.089401 
L 177.627273 184.105193 
L 183.263636 183.116542 
L 188.9 182.123461 
L 194.536364 181.12596 
L 200.172727 180.124051 
L 205.809091 179.117742 
L 211.445455 178.107045 
L 217.081818 177.091966 
L 222.718182 176.072515 
L 228.354545 175.048698 
L 233.990909 174.020525 
L 239.627273 172.988001 
L 245.263636 171.951134 
L 250.9 170.909931 
L 256.536364 169.864397 
L 262.172727 168.814539 
L 267.809091 167.760363 
L 273.445455 166.701875 
L 279.081818 165.63908 
L 284.718182 164.571984 
L 290.354545 163.500593 
L 295.990909 162.424911 
L 301.627273 161.344944 
L 307.263636 160.260698 
L 312.9 159.172177 
L 318.536364 158.079387 
L 324.172727 156.982332 
L 329.809091 155.881017 
L 335.445455 154.775447 
L 341.081818 153.665628 
L 346.718182 152.551563 
L 352.354545 151.433258 
L 357.990909 150.310718 
L 363.627273 149.183946 
L 369.263636 148.052949 
L 374.9 146.91773 
L 380.536364 145.778295 
L 386.172727 144.634648 
L 391.809091 143.486794 
L 397.445455 142.334737 
L 403.081818 141.178482 
L 408.718182 140.018034 
L 414.354545 138.853397 
L 419.990909 137.684577 
L 425.627273 136.511578 
L 431.263636 135.334404 
L 436.9 134.153061 
L 442.536364 132.967552 
L 448.172727 131.777884 
L 453.809091 130.58406 
L 459.445455 129.386085 
L 465.081818 128.183964 
L 470.718182 126.977702 
L 476.354545 125.767304 
L 481.990909 124.552774 
L 487.627273 123.334117 
L 493.263636 122.111339 
L 498.9 120.884443 
L 504.536364 119.653435 
L 510.172727 118.41832 
L 515.809091 117.179102 
L 521.445455 115.935787 
L 527.081818 114.688379 
L 532.718182 113.436884 
L 538.354545 112.181306 
L 543.990909 110.92165 
L 549.627273 109.657922 
L 555.263636 108.390126 
L 560.9 107.118267 
L 566.536364 105.842351 
L 572.172727 104.562382 
L 577.809091 103.278366 
L 583.445455 101.990308 
L 589.081818 100.698213 
L 594.718182 99.402086 
L 600.354545 98.101932 
L 605.990909 96.797757 
L 611.627273 95.489565 
L 617.263636 94.177362 
L 622.9 92.861154 
L 628.536364 91.540945 
L 634.172727 90.21674 
L 639.809091 88.888546 
L 645.445455 87.556367 
L 651.081818 86.220209 
L 656.718182 84.880077 
L 662.354545 83.535977 
L 667.990909 82.187914 
L 673.627273 80.835893 
L 679.263636 79.47992 
L 684.9 78.12 
" style="fill:none;stroke:#d62728;stroke-dasharray:2.5,4.125;stroke-dashoffset:0;stroke-width:2.5;"/>
   </g>
   <g id="line2d_25">
    <path clip-path="url(#pc0a54eaf80)" d="M 126.9 242.698266 
L 132.536364 241.726973 
L 138.172727 240.751672 
L 143.809091 239.772401 
L 149.445455 238.789207 
L 155.081818 237.802143 
L 160.718182 236.81127 
L 166.354545 235.816663 
L 171.990909 234.818406 
L 177.627273 233.816603 
L 183.263636 232.811379 
L 188.9 231.802884 
L 194.536364 230.791307 
L 200.172727 229.776881 
L 205.809091 228.759901 
L 211.445455 227.740749 
L 217.081818 226.719921 
L 222.718182 225.698081 
L 228.354545 224.676131 
L 233.990909 223.65533 
L 239.627273 222.637486 
L 245.263636 221.625283 
L 250.9 220.622849 
L 256.536364 219.636824 
L 262.172727 218.678394 
L 267.809091 217.767326 
L 273.445455 216.939664 
L 279.081818 216.259259 
L 284.718182 215.818416 
L 290.354545 215.686228 
L 295.990909 215.834913 
L 301.627273 216.172512 
L 307.263636 216.619594 
L 312.9 217.128369 
L 318.536364 217.672595 
L 324.172727 218.237696 
L 329.809091 218.815224 
L 335.445455 219.400038 
L 341.081818 219.988867 
L 346.718182 220.579545 
L 352.354545 221.170587 
L 357.990909 221.760944 
L 363.627273 222.349855 
L 369.263636 222.936757 
L 374.9 223.521224 
L 380.536364 224.102928 
L 386.172727 224.681614 
L 391.809091 225.257077 
L 397.445455 225.829157 
L 403.081818 226.397722 
L 408.718182 226.962663 
L 414.354545 227.523893 
L 419.990909 228.081338 
L 425.627273 228.634935 
L 431.263636 229.184633 
L 436.9 229.730387 
L 442.536364 230.27216 
L 448.172727 230.809921 
L 453.809091 231.34364 
L 459.445455 231.873295 
L 465.081818 232.398865 
L 470.718182 232.920332 
L 476.354545 233.437681 
L 481.990909 233.950897 
L 487.627273 234.45997 
L 493.263636 234.964889 
L 498.9 235.465645 
L 504.536364 235.962231 
L 510.172727 236.45464 
L 515.809091 236.942865 
L 521.445455 237.426902 
L 527.081818 237.906747 
L 532.718182 238.382395 
L 538.354545 238.853845 
L 543.990909 239.321092 
L 549.627273 239.784135 
L 555.263636 240.242972 
L 560.9 240.697601 
L 566.536364 241.148023 
L 572.172727 241.594235 
L 577.809091 242.036237 
L 583.445455 242.474029 
L 589.081818 242.907612 
L 594.718182 243.336985 
L 600.354545 243.762149 
L 605.990909 244.183104 
L 611.627273 244.599851 
L 617.263636 245.012392 
L 622.9 245.420727 
L 628.536364 245.824858 
L 634.172727 246.224786 
L 639.809091 246.620513 
L 645.445455 247.012039 
L 651.081818 247.399368 
L 656.718182 247.7825 
L 662.354545 248.161439 
L 667.990909 248.536185 
L 673.627273 248.906741 
L 679.263636 249.27311 
L 684.9 249.635293 
" style="fill:none;stroke:#d62728;stroke-dasharray:2.5,4.125;stroke-dashoffset:0;stroke-width:2.5;"/>
   </g>
   <g id="line2d_26">
    <path clip-path="url(#pc0a54eaf80)" d="M 126.9 242.698266 
L 132.536364 243.502433 
L 138.172727 244.302527 
L 143.809091 245.098523 
L 149.445455 245.8904 
L 155.081818 246.678137 
L 160.718182 247.461718 
L 166.354545 248.241127 
L 171.990909 249.016349 
L 177.627273 249.787374 
L 183.263636 250.554188 
L 188.9 251.316783 
L 194.536364 252.075149 
L 200.172727 252.829277 
L 205.809091 253.579161 
L 211.445455 254.324793 
L 217.081818 255.066166 
L 222.718182 255.803275 
L 228.354545 256.536116 
L 233.990909 257.264681 
L 239.627273 257.988968 
L 245.263636 258.708973 
L 250.9 259.42469 
L 256.536364 260.136117 
L 262.172727 260.843251 
L 267.809091 261.546088 
L 273.445455 262.244626 
L 279.081818 262.938861 
L 284.718182 263.628793 
L 290.354545 264.314418 
L 295.990909 264.995734 
L 301.627273 265.67274 
L 307.263636 266.345434 
L 312.9 267.013814 
L 318.536364 267.677878 
L 324.172727 268.337627 
L 329.809091 268.993057 
L 335.445455 269.644168 
L 341.081818 270.29096 
L 346.718182 270.93343 
L 352.354545 271.571579 
L 357.990909 272.205406 
L 363.627273 272.834909 
L 369.263636 273.460089 
L 374.9 274.080945 
L 380.536364 274.697476 
L 386.172727 275.309683 
L 391.809091 275.917564 
L 397.445455 276.52112 
L 403.081818 277.12035 
L 408.718182 277.715255 
L 414.354545 278.305835 
L 419.990909 278.892089 
L 425.627273 279.474017 
L 431.263636 280.051621 
L 436.9 280.624899 
L 442.536364 281.193853 
L 448.172727 281.758482 
L 453.809091 282.318788 
L 459.445455 282.874769 
L 465.081818 283.426428 
L 470.718182 283.973765 
L 476.354545 284.516779 
L 481.990909 285.055472 
L 487.627273 285.589845 
L 493.263636 286.119898 
L 498.9 286.645632 
L 504.536364 287.167047 
L 510.172727 287.684145 
L 515.809091 288.196927 
L 521.445455 288.705393 
L 527.081818 289.209545 
L 532.718182 289.709384 
L 538.354545 290.20491 
L 543.990909 290.696124 
L 549.627273 291.183029 
L 555.263636 291.665625 
L 560.9 292.143914 
L 566.536364 292.617896 
L 572.172727 293.087574 
L 577.809091 293.552948 
L 583.445455 294.01402 
L 589.081818 294.470791 
L 594.718182 294.923264 
L 600.354545 295.371438 
L 605.990909 295.815317 
L 611.627273 296.254902 
L 617.263636 296.690194 
L 622.9 297.121195 
L 628.536364 297.547907 
L 634.172727 297.970331 
L 639.809091 298.38847 
L 645.445455 298.802325 
L 651.081818 299.211898 
L 656.718182 299.617192 
L 662.354545 300.018207 
L 667.990909 300.414947 
L 673.627273 300.807413 
L 679.263636 301.195607 
L 684.9 301.579532 
" style="fill:none;stroke:#d62728;stroke-dasharray:2.5,4.125;stroke-dashoffset:0;stroke-width:2.5;"/>
   </g>
   <g id="line2d_27">
    <path clip-path="url(#pc0a54eaf80)" d="M 126.9 242.698266 
L 132.536364 241.890055 
L 138.172727 241.077834 
L 143.809091 240.261638 
L 149.445455 239.441513 
L 155.081818 238.617509 
L 160.718182 237.789686 
L 166.354545 236.958114 
L 171.990909 236.122878 
L 177.627273 235.284078 
L 183.263636 234.441837 
L 188.9 233.596304 
L 194.536364 232.747663 
L 200.172727 231.896148 
L 205.809091 231.042051 
L 211.445455 230.18575 
L 217.081818 229.327741 
L 222.718182 228.468685 
L 228.354545 227.609481 
L 233.990909 226.751386 
L 239.627273 225.896208 
L 245.263636 225.046626 
L 250.9 224.206768 
L 256.536364 223.38327 
L 262.172727 222.587318 
L 267.809091 221.838674 
L 273.445455 221.173382 
L 279.081818 220.65529 
L 284.718182 220.376701 
L 290.354545 220.406706 
L 295.990909 220.717521 
L 301.627273 221.217184 
L 307.263636 221.826263 
L 312.9 222.496965 
L 318.536364 223.203045 
L 324.172727 223.929928 
L 329.809091 224.66916 
L 335.445455 225.415601 
L 341.081818 226.165976 
L 346.718182 226.918118 
L 352.354545 227.670538 
L 357.990909 228.422187 
L 363.627273 229.172301 
L 369.263636 229.920315 
L 374.9 230.665801 
L 380.536364 231.408429 
L 386.172727 232.147941 
L 391.809091 232.884132 
L 397.445455 233.616837 
L 403.081818 234.345923 
L 408.718182 235.071281 
L 414.354545 235.792819 
L 419.990909 236.510462 
L 425.627273 237.224146 
L 431.263636 237.933816 
L 436.9 238.639427 
L 442.536364 239.340939 
L 448.172727 240.038318 
L 453.809091 240.731534 
L 459.445455 241.420561 
L 465.081818 242.105377 
L 470.718182 242.785962 
L 476.354545 243.462298 
L 481.990909 244.13437 
L 487.627273 244.802163 
L 493.263636 245.465667 
L 498.9 246.12487 
L 504.536364 246.779762 
L 510.172727 247.430334 
L 515.809091 248.076579 
L 521.445455 248.71849 
L 527.081818 249.35606 
L 532.718182 249.989284 
L 538.354545 250.618157 
L 543.990909 251.242673 
L 549.627273 251.86283 
L 555.263636 252.478623 
L 560.9 253.090048 
L 566.536364 253.697104 
L 572.172727 254.299786 
L 577.809091 254.898094 
L 583.445455 255.492024 
L 589.081818 256.081575 
L 594.718182 256.666746 
L 600.354545 257.247534 
L 605.990909 257.823939 
L 611.627273 258.39596 
L 617.263636 258.963595 
L 622.9 259.526844 
L 628.536364 260.085707 
L 634.172727 260.640183 
L 639.809091 261.190271 
L 645.445455 261.735972 
L 651.081818 262.277286 
L 656.718182 262.814212 
L 662.354545 263.346751 
L 667.990909 263.874903 
L 673.627273 264.398669 
L 679.263636 264.918049 
L 684.9 265.433043 
" style="fill:none;stroke:#d62728;stroke-dasharray:2.5,4.125;stroke-dashoffset:0;stroke-width:2.5;"/>
   </g>
   <g id="line2d_28">
    <path clip-path="url(#pc0a54eaf80)" d="M 334.322847 249.536728 
L 334.322847 505 
" style="fill:none;stroke:#9467bd;stroke-dasharray:7.4,3.2;stroke-dashoffset:0;stroke-width:2;"/>
   </g>
   <g id="line2d_29">
    <path clip-path="url(#pc0a54eaf80)" d="M 597.853243 278.221972 
L 597.853243 505 
" style="fill:none;stroke:#9467bd;stroke-dasharray:7.4,3.2;stroke-dashoffset:0;stroke-width:2;"/>
   </g>
   <g id="line2d_30">
    <path clip-path="url(#pc0a54eaf80)" d="M 195.592673 230.601403 
L 195.592673 505 
" style="fill:none;stroke:#9467bd;stroke-dasharray:7.4,3.2;stroke-dashoffset:0;stroke-width:2;"/>
   </g>
   <g id="line2d_31">
    <path clip-path="url(#pc0a54eaf80)" d="M 202.297225 231.574501 
L 202.297225 505 
" style="fill:none;stroke:#9467bd;stroke-dasharray:7.4,3.2;stroke-dashoffset:0;stroke-width:2;"/>
   </g>
   <g id="line2d_32">
    <path clip-path="url(#pc0a54eaf80)" d="M 219.924352 205.03711 
L 219.924352 505 
" style="fill:none;stroke:#9467bd;stroke-dasharray:7.4,3.2;stroke-dashoffset:0;stroke-width:2;"/>
   </g>
   <g id="line2d_33">
    <path clip-path="url(#pc0a54eaf80)" d="M 211.525045 206.443734 
L 211.525045 505 
" style="fill:none;stroke:#9467bd;stroke-dasharray:7.4,3.2;stroke-dashoffset:0;stroke-width:2;"/>
   </g>
   <g id="patch_3">
    <path d="M 99 448.56 
L 99 60.48 
" style="fill:none;stroke:#000000;stroke-linecap:square;stroke-linejoin:miter;stroke-width:0.8;"/>
   </g>
   <g id="patch_4">
    <path d="M 712.8 448.56 
L 712.8 60.48 
" style="fill:none;stroke:#000000;stroke-linecap:square;stroke-linejoin:miter;stroke-width:0.8;"/>
   </g>
   <g id="patch_5">
    <path d="M 99 448.56 
L 712.8 448.56 
" style="fill:none;stroke:#000000;stroke-linecap:square;stroke-linejoin:miter;stroke-width:0.8;"/>
   </g>
   <g id="patch_6">
    <path d="M 99 60.48 
L 712.8 60.48 
" style="fill:none;stroke:#000000;stroke-linecap:square;stroke-linejoin:miter;stroke-width:0.8;"/>
   </g>
   <g id="legend_1">
    <g id="patch_7">
     <path d="M 111.6 180.5625 
L 215.732812 180.5625 
Q 219.332812 180.5625 219.332812 176.9625 
L 219.332812 73.08 
Q 219.332812 69.48 215.732812 69.48 
L 111.6 69.48 
Q 108 69.48 108 73.08 
L 108 176.9625 
Q 108 180.5625 111.6 180.5625 
z
" style="fill:#ffffff;opacity:0.8;stroke:#cccccc;stroke-linejoin:miter;"/>
    </g>
    <g id="line2d_34">
     <path d="M 115.2 84.057188 
L 151.2 84.057188 
" style="fill:none;stroke:#1f77b4;stroke-linecap:square;stroke-width:5;"/>
    </g>
    <g id="line2d_35"/>
    <g id="text_16">
     <!-- NV- -->
     <defs>
      <path d="M 9.8125 72.90625 
L 23.09375 72.90625 
L 55.421875 11.921875 
L 55.421875 72.90625 
L 64.984375 72.90625 
L 64.984375 0 
L 51.703125 0 
L 19.390625 60.984375 
L 19.390625 0 
L 9.8125 0 
z
" id="DejaVuSans-78"/>
      <path d="M 28.609375 0 
L 0.78125 72.90625 
L 11.078125 72.90625 
L 34.1875 11.53125 
L 57.328125 72.90625 
L 67.578125 72.90625 
L 39.796875 0 
z
" id="DejaVuSans-86"/>
      <path d="M 4.890625 31.390625 
L 31.203125 31.390625 
L 31.203125 23.390625 
L 4.890625 23.390625 
z
" id="DejaVuSans-45"/>
     </defs>
     <g transform="translate(165.6 90.357188)scale(0.18 -0.18)">
      <use xlink:href="#DejaVuSans-78"/>
      <use x="74.804688" xlink:href="#DejaVuSans-86"/>
      <use x="137.337891" xlink:href="#DejaVuSans-45"/>
     </g>
    </g>
    <g id="line2d_36">
     <path d="M 115.2 110.477812 
L 151.2 110.477812 
" style="fill:none;stroke:#ff7f0e;stroke-dasharray:9.25,4;stroke-dashoffset:0;stroke-width:2.5;"/>
    </g>
    <g id="line2d_37"/>
    <g id="text_17">
     <!-- VH- -->
     <defs>
      <path d="M 9.8125 72.90625 
L 19.671875 72.90625 
L 19.671875 43.015625 
L 55.515625 43.015625 
L 55.515625 72.90625 
L 65.375 72.90625 
L 65.375 0 
L 55.515625 0 
L 55.515625 34.71875 
L 19.671875 34.71875 
L 19.671875 0 
L 9.8125 0 
z
" id="DejaVuSans-72"/>
     </defs>
     <g transform="translate(165.6 116.777812)scale(0.18 -0.18)">
      <use xlink:href="#DejaVuSans-86"/>
      <use x="68.408203" xlink:href="#DejaVuSans-72"/>
      <use x="143.603516" xlink:href="#DejaVuSans-45"/>
     </g>
    </g>
    <g id="line2d_38">
     <path d="M 115.2 136.898438 
L 151.2 136.898438 
" style="fill:none;stroke:#2ca02c;stroke-dasharray:16,4,2.5,4;stroke-dashoffset:0;stroke-width:2.5;"/>
    </g>
    <g id="line2d_39"/>
    <g id="text_18">
     <!-- War1 -->
     <defs>
      <path d="M 3.328125 72.90625 
L 13.28125 72.90625 
L 28.609375 11.28125 
L 43.890625 72.90625 
L 54.984375 72.90625 
L 70.3125 11.28125 
L 85.59375 72.90625 
L 95.609375 72.90625 
L 77.296875 0 
L 64.890625 0 
L 49.515625 63.28125 
L 33.984375 0 
L 21.578125 0 
z
" id="DejaVuSans-87"/>
      <path d="M 34.28125 27.484375 
Q 23.390625 27.484375 19.1875 25 
Q 14.984375 22.515625 14.984375 16.5 
Q 14.984375 11.71875 18.140625 8.90625 
Q 21.296875 6.109375 26.703125 6.109375 
Q 34.1875 6.109375 38.703125 11.40625 
Q 43.21875 16.703125 43.21875 25.484375 
L 43.21875 27.484375 
z
M 52.203125 31.203125 
L 52.203125 0 
L 43.21875 0 
L 43.21875 8.296875 
Q 40.140625 3.328125 35.546875 0.953125 
Q 30.953125 -1.421875 24.3125 -1.421875 
Q 15.921875 -1.421875 10.953125 3.296875 
Q 6 8.015625 6 15.921875 
Q 6 25.140625 12.171875 29.828125 
Q 18.359375 34.515625 30.609375 34.515625 
L 43.21875 34.515625 
L 43.21875 35.40625 
Q 43.21875 41.609375 39.140625 45 
Q 35.0625 48.390625 27.6875 48.390625 
Q 23 48.390625 18.546875 47.265625 
Q 14.109375 46.140625 10.015625 43.890625 
L 10.015625 52.203125 
Q 14.9375 54.109375 19.578125 55.046875 
Q 24.21875 56 28.609375 56 
Q 40.484375 56 46.34375 49.84375 
Q 52.203125 43.703125 52.203125 31.203125 
z
" id="DejaVuSans-97"/>
      <path d="M 41.109375 46.296875 
Q 39.59375 47.171875 37.8125 47.578125 
Q 36.03125 48 33.890625 48 
Q 26.265625 48 22.1875 43.046875 
Q 18.109375 38.09375 18.109375 28.8125 
L 18.109375 0 
L 9.078125 0 
L 9.078125 54.6875 
L 18.109375 54.6875 
L 18.109375 46.1875 
Q 20.953125 51.171875 25.484375 53.578125 
Q 30.03125 56 36.53125 56 
Q 37.453125 56 38.578125 55.875 
Q 39.703125 55.765625 41.0625 55.515625 
z
" id="DejaVuSans-114"/>
     </defs>
     <g transform="translate(165.6 143.198438)scale(0.18 -0.18)">
      <use xlink:href="#DejaVuSans-87"/>
      <use x="92.501953" xlink:href="#DejaVuSans-97"/>
      <use x="153.78125" xlink:href="#DejaVuSans-114"/>
      <use x="194.894531" xlink:href="#DejaVuSans-49"/>
     </g>
    </g>
    <g id="line2d_40">
     <path d="M 115.2 163.319062 
L 151.2 163.319062 
" style="fill:none;stroke:#d62728;stroke-dasharray:2.5,4.125;stroke-dashoffset:0;stroke-width:2.5;"/>
    </g>
    <g id="line2d_41"/>
    <g id="text_19">
     <!-- $^{13}$C -->
     <defs>
      <path d="M 64.40625 67.28125 
L 64.40625 56.890625 
Q 59.421875 61.53125 53.78125 63.8125 
Q 48.140625 66.109375 41.796875 66.109375 
Q 29.296875 66.109375 22.65625 58.46875 
Q 16.015625 50.828125 16.015625 36.375 
Q 16.015625 21.96875 22.65625 14.328125 
Q 29.296875 6.6875 41.796875 6.6875 
Q 48.140625 6.6875 53.78125 8.984375 
Q 59.421875 11.28125 64.40625 15.921875 
L 64.40625 5.609375 
Q 59.234375 2.09375 53.4375 0.328125 
Q 47.65625 -1.421875 41.21875 -1.421875 
Q 24.65625 -1.421875 15.125 8.703125 
Q 5.609375 18.84375 5.609375 36.375 
Q 5.609375 53.953125 15.125 64.078125 
Q 24.65625 74.21875 41.21875 74.21875 
Q 47.75 74.21875 53.53125 72.484375 
Q 59.328125 70.75 64.40625 67.28125 
z
" id="DejaVuSans-67"/>
     </defs>
     <g transform="translate(165.6 169.619062)scale(0.18 -0.18)">
      <use transform="translate(0.957031 39.046875)scale(0.7)" xlink:href="#DejaVuSans-49"/>
      <use transform="translate(45.493164 39.046875)scale(0.7)" xlink:href="#DejaVuSans-51"/>
      <use transform="translate(92.763672 0.765625)" xlink:href="#DejaVuSans-67"/>
     </g>
    </g>
   </g>
  </g>
 </g>
 <defs>
  <clipPath id="pc0a54eaf80">
   <rect height="388.08" width="613.8" x="99" y="60.48"/>
  </clipPath>
 </defs>
</svg>
