<?xml version="1.0" encoding="UTF-8" standalone="no"?>
<svg
   xmlns:dc="http://purl.org/dc/elements/1.1/"
   xmlns:cc="http://creativecommons.org/ns#"
   xmlns:rdf="http://www.w3.org/1999/02/22-rdf-syntax-ns#"
   xmlns:svg="http://www.w3.org/2000/svg"
   xmlns="http://www.w3.org/2000/svg"
   xmlns:sodipodi="http://sodipodi.sourceforge.net/DTD/sodipodi-0.dtd"
   xmlns:inkscape="http://www.inkscape.org/namespaces/inkscape"
   width="21.042934mm"
   height="19.831108mm"
   viewBox="0 0 21.042934 19.831108"
   version="1.1"
   id="svg37227"
   inkscape:version="1.0.1 (1.0.1+r73)"
   sodipodi:docname="Diamant_opaque.svg">
  <defs
     id="defs37221" />
  <sodipodi:namedview
     id="base"
     pagecolor="#ffffff"
     bordercolor="#666666"
     borderopacity="1.0"
     inkscape:pageopacity="0.0"
     inkscape:pageshadow="2"
     inkscape:zoom="2.8"
     inkscape:cx="141.71765"
     inkscape:cy="23.313301"
     inkscape:document-units="mm"
     inkscape:current-layer="layer1"
     inkscape:document-rotation="0"
     showgrid="false"
     inkscape:window-width="1528"
     inkscape:window-height="836"
     inkscape:window-x="72"
     inkscape:window-y="27"
     inkscape:window-maximized="1" />
  <metadata
     id="metadata37224">
    <rdf:RDF>
      <cc:Work
         rdf:about="">
        <dc:format>image/svg+xml</dc:format>
        <dc:type
           rdf:resource="http://purl.org/dc/dcmitype/StillImage" />
        <dc:title></dc:title>
      </cc:Work>
    </rdf:RDF>
  </metadata>
  <g
     inkscape:label="Layer 1"
     inkscape:groupmode="layer"
     id="layer1"
     transform="translate(2.2059915,-118.59635)">
    <g
       id="g37200"
       transform="matrix(0.35277777,0,0,-0.35277777,-286.57047,413.30563)"
       style="opacity:1;mix-blend-mode:normal">
      <path
         id="path34147-9"
         style="mix-blend-mode:normal;fill:none;stroke:#000000;stroke-width:1.09453;stroke-linecap:butt;stroke-linejoin:round;stroke-miterlimit:4;stroke-dasharray:none;stroke-opacity:1"
         d="m 815.39326,833.43126 21.05861,-3.60784 21.2571,2.1499 -21.0839,2.87703 -21.23181,-1.41909 m 31.93415,-17.48144 -22.68004,0.78138 11.8045,13.0922 z m -12.60753,-36.39586 12.60753,36.39583 17.88373,-3.44976 -7.50217,19.47328 -10.38156,-16.02352 m 17.88373,-3.44976 -30.49126,-32.94608 m 0,0 -10.07251,37.17725 -18.07889,-2.2107 8.82478,18.91076 9.25411,-16.70006 m -18.07889,-2.2107 28.1514,-34.96656"
         sodipodi:nodetypes="ccccccccccccccccccccccc" />
      <path
         style="mix-blend-mode:normal;fill:#b3cce5;fill-opacity:1;stroke:none;stroke-width:0;stroke-linejoin:round;stroke-miterlimit:4;stroke-dasharray:none"
         d="m 820.22498,798.68479 c -6.75368,8.38468 -12.11991,15.27861 -11.92507,15.31984 0.19485,0.0412 3.83831,0.49824 8.09655,1.01558 l 7.74226,0.94063 4.35705,-16.09783 c 2.39639,-8.85382 4.2787,-16.17103 4.18281,-16.26047 -0.0958,-0.0894 -5.69992,6.69756 -12.4536,15.08225 z"
         id="path34983-2" />
      <path
         style="mix-blend-mode:normal;fill:#d9e6f2;fill-opacity:1;stroke:none;stroke-width:0;stroke-linejoin:round;stroke-miterlimit:4;stroke-dasharray:none"
         d="m 808.21148,816.48785 c 0.30776,0.64328 2.0392,4.35273 3.84779,8.24321 1.8086,3.89049 3.33915,7.06988 3.40129,7.06535 0.14893,-0.0106 8.08757,-14.40036 7.99421,-14.49021 -0.0564,-0.0545 -15.43396,-2.00065 -15.72792,-1.99052 -0.0408,10e-4 0.17696,0.5289 0.48463,1.17217 z"
         id="path34985-2" />
      <path
         style="mix-blend-mode:normal;fill:#9fc0df;fill-opacity:1;stroke:none;stroke-width:0;stroke-linejoin:round;stroke-miterlimit:4;stroke-dasharray:none"
         d="m 820.78883,825.03397 c -2.19901,3.96618 -3.93837,7.26703 -3.86528,7.33522 0.15557,0.1452 17.75011,-2.81429 17.96318,-3.02152 0.0791,-0.0771 -1.86814,-2.36363 -4.32767,-5.08124 -2.45953,-2.71759 -4.76448,-5.27917 -5.12198,-5.69239 l -0.65021,-0.75132 z"
         id="path34987-8" />
      <path
         style="mix-blend-mode:normal;fill:#7aa7d1;fill-opacity:1;stroke:none;stroke-width:0;stroke-linejoin:round;stroke-miterlimit:4;stroke-dasharray:none"
         d="m 826.45548,817.6846 c 0.42489,0.64522 9.79352,10.91483 9.95225,10.90936 0.15646,-0.005 8.81863,-10.91753 9.19446,-11.58276 0.1295,-0.22921 -1.84557,-0.21948 -9.58737,0.0473 -7.98179,0.27501 -9.71572,0.3886 -9.55934,0.62614 z"
         id="path34989-9" />
      <path
         style="mix-blend-mode:normal;fill:#669bcc;fill-opacity:1;stroke:none;stroke-width:0;stroke-linejoin:round;stroke-miterlimit:4;stroke-dasharray:none"
         d="m 830.18136,798.86025 c -2.47287,9.1461 -4.53482,16.75798 -4.58216,16.9153 -0.0676,0.22608 2.10426,0.21056 10.36678,-0.0741 8.26261,-0.28468 10.43073,-0.41868 10.3473,-0.63956 -0.058,-0.15369 -2.63902,-7.6056 -5.73552,-16.55982 -3.09649,-8.9542 -5.69076,-16.27829 -5.76514,-16.27572 -0.0744,0.003 -2.1584,7.48783 -4.63126,16.63392 z"
         id="path34991-7" />
      <path
         style="mix-blend-mode:normal;fill:#3975ac;fill-opacity:1;stroke:none;stroke-width:0;stroke-linejoin:round;stroke-miterlimit:4;stroke-dasharray:none"
         d="m 842.63912,823.00486 c -2.52206,3.22964 -4.59626,5.97365 -4.60951,6.09781 -0.0253,0.23995 17.87957,2.13202 18.08573,1.91116 0.0963,-0.10318 -8.69637,-13.90466 -8.84676,-13.88638 -0.0244,0.003 -2.1074,2.64777 -4.62946,5.87741 z"
         id="path34993-3" />
      <path
         style="mix-blend-mode:normal;fill:#32689a;fill-opacity:1;stroke:none;stroke-width:0;stroke-linejoin:round;stroke-miterlimit:4;stroke-dasharray:none"
         d="m 828.88147,831.75591 c -4.11398,0.70968 -7.44523,1.32286 -7.40263,1.36262 0.0422,0.0398 3.49379,0.29838 7.66926,0.57475 l 7.59185,0.50249 7.40432,-1.02088 c 4.07233,-0.56148 7.43481,-1.05356 7.47212,-1.09352 0.0377,-0.04 -3.22619,-0.39653 -7.25213,-0.79241 -4.02594,-0.39586 -7.47355,-0.74308 -7.66133,-0.77159 -0.18778,-0.0285 -3.70748,0.52884 -7.82146,1.23854 z"
         id="path34995-6" />
      <path
         style="mix-blend-mode:normal;fill:#264d73;fill-opacity:1;stroke:none;stroke-width:0;stroke-linejoin:round;stroke-miterlimit:4;stroke-dasharray:none"
         d="m 856.13137,814.89517 c -4.12318,0.804 -7.52912,1.49746 -7.56858,1.54101 -0.0901,0.0994 8.81325,13.9101 8.96783,13.91074 0.0627,5.6e-4 1.3704,-3.27695 2.90685,-7.28269 1.53654,-4.00574 3.00865,-7.82555 3.27132,-8.48849 0.32183,-0.81206 0.38655,-1.19506 0.19848,-1.17387 -0.15351,0.0173 -3.65264,0.68929 -7.7759,1.4933 z"
         id="path34997-1" />
      <path
         style="mix-blend-mode:normal;fill:#336799;fill-opacity:1;stroke:none;stroke-width:0;stroke-linejoin:round;stroke-miterlimit:4;stroke-dasharray:none"
         d="m 836.4596,782.62249 c 0.0726,0.18431 2.64744,7.5919 5.72204,16.46127 l 5.59017,16.12614 4.64414,-0.9018 c 2.55431,-0.496 6.13752,-1.18415 7.96274,-1.52923 1.82521,-0.34509 3.31609,-0.69985 3.31304,-0.78836 -0.004,-0.12232 -26.65437,-29.07465 -27.24092,-29.59417 -0.0675,-0.06 -0.064,0.0418 0.008,0.22619 z"
         id="path34999-2" />
    </g>
  </g>
</svg>
