<?xml version="1.0" encoding="UTF-8" standalone="no"?>
<svg
   xmlns:dc="http://purl.org/dc/elements/1.1/"
   xmlns:cc="http://creativecommons.org/ns#"
   xmlns:rdf="http://www.w3.org/1999/02/22-rdf-syntax-ns#"
   xmlns:svg="http://www.w3.org/2000/svg"
   xmlns="http://www.w3.org/2000/svg"
   xmlns:sodipodi="http://sodipodi.sourceforge.net/DTD/sodipodi-0.dtd"
   xmlns:inkscape="http://www.inkscape.org/namespaces/inkscape"
   width="17.399822mm"
   height="16.393085mm"
   viewBox="0 0 17.399822 16.393085"
   version="1.1"
   id="svg35065"
   inkscape:version="1.0.1 (1.0.1+r73)"
   sodipodi:docname="Diamant.svg">
  <defs
     id="defs35059" />
  <sodipodi:namedview
     id="base"
     pagecolor="#ffffff"
     bordercolor="#666666"
     borderopacity="1.0"
     inkscape:pageopacity="0.0"
     inkscape:pageshadow="2"
     inkscape:zoom="1.979899"
     inkscape:cx="-18.430969"
     inkscape:cy="89.372972"
     inkscape:document-units="mm"
     inkscape:current-layer="layer1"
     inkscape:document-rotation="0"
     showgrid="false"
     inkscape:window-width="1528"
     inkscape:window-height="836"
     inkscape:window-x="72"
     inkscape:window-y="27"
     inkscape:window-maximized="1" />
  <metadata
     id="metadata35062">
    <rdf:RDF>
      <cc:Work
         rdf:about="">
        <dc:format>image/svg+xml</dc:format>
        <dc:type
           rdf:resource="http://purl.org/dc/dcmitype/StillImage" />
        <dc:title></dc:title>
      </cc:Work>
    </rdf:RDF>
  </metadata>
  <g
     inkscape:label="Layer 1"
     inkscape:groupmode="layer"
     id="layer1"
     transform="translate(-133.41914,-50.011787)">
    <g
       id="g35011"
       transform="matrix(0.35277777,0,0,-0.35277777,-242.1876,278.70182)">
      <path
         id="path34147"
         style="fill:none;stroke:#000000;stroke-width:0.9045;stroke-linecap:butt;stroke-linejoin:round;stroke-miterlimit:4;stroke-dasharray:none;stroke-opacity:1"
         d="m 1071.8784,646.02912 17.4948,-2.38046 17.4949,2.38047 -17.4949,1.77616 -17.4948,-1.77617 m 26.8716,-13.52909 -18.7535,-3e-5 9.3767,11.14865 z m -9.3768,-30.4178 9.3768,30.41778 14.8682,-2.34024 -6.7501,15.86935 -8.1181,-13.52911 m 14.8682,-2.34024 -24.245,-28.07755 m 0,0 -9.3767,30.41778 -14.8683,-2.34024 6.7502,15.86936 8.1181,-13.52912 m -14.8683,-2.34024 24.245,-28.07755"
         sodipodi:nodetypes="ccccccccccccccccccccccc" />
      <path
         style="fill:#008080;fill-opacity:0.299162;stroke:none;stroke-width:0;stroke-linejoin:round;stroke-miterlimit:4;stroke-dasharray:none"
         d="m 1435.8101,150.04033 c -7.7552,-8.97689 -13.926,-16.36481 -13.713,-16.4176 0.213,-0.0528 4.2078,-0.69429 8.8773,-1.42554 l 8.49,-1.32956 5.4087,17.56146 c 2.9748,9.65881 5.3252,17.64503 5.223,17.74716 -0.1021,0.10213 -6.5308,-7.15903 -14.286,-16.13592 z"
         id="path34983"
         transform="matrix(0.75000002,0,0,-0.75000002,0,730.00002)" />
      <path
         style="fill:#008080;fill-opacity:0.146353;stroke:none;stroke-width:0;stroke-linejoin:round;stroke-miterlimit:4;stroke-dasharray:none"
         d="m 1421.9055,130.89158 c 0.3145,-0.72005 2.0804,-4.87054 3.9244,-9.22332 1.844,-4.35278 3.4088,-7.91197 3.4774,-7.90933 0.1644,0.006 9.4523,15.55067 9.3529,15.65316 -0.06,0.0622 -16.9198,2.78866 -17.2439,2.78866 -0.045,0 0.1748,-0.58913 0.4892,-1.30917 z"
         id="path34985"
         transform="matrix(0.75000002,0,0,-0.75000002,0,730.00002)" />
      <path
         style="fill:#008080;fill-opacity:0.295334;stroke:none;stroke-width:0;stroke-linejoin:round;stroke-miterlimit:4;stroke-dasharray:none"
         d="m 1435.4313,121.0035 c -2.572,-4.28409 -4.6126,-7.85296 -4.5347,-7.93082 0.1658,-0.1658 19.653,2.42562 19.8955,2.64573 0.09,0.0819 -1.9675,2.67369 -4.5728,5.7596 -2.6053,3.0859 -5.0463,5.99414 -5.4243,6.46274 l -0.6875,0.85201 z"
         id="path34987"
         transform="matrix(0.75000002,0,0,-0.75000002,0,730.00002)" />
      <path
         style="fill:#008080;fill-opacity:0.627397;stroke:none;stroke-width:0;stroke-linejoin:round;stroke-miterlimit:4;stroke-dasharray:none"
         d="m 1441.9502,128.88155 c 0.4434,-0.72663 10.3704,-12.39087 10.5454,-12.39087 0.1725,0 10.1252,11.68769 10.5643,12.40597 0.1513,0.24749 -2.024,0.31171 -10.5593,0.31171 -8.7999,0 -10.7136,-0.0593 -10.5504,-0.32681 z"
         id="path34989"
         transform="matrix(0.75000002,0,0,-0.75000002,0,730.00002)" />
      <path
         style="fill:#008080;fill-opacity:0.626938;stroke:none;stroke-width:0;stroke-linejoin:round;stroke-miterlimit:4;stroke-dasharray:none"
         d="m 1446.7673,149.46936 c -3.0701,-9.97777 -5.6295,-18.28166 -5.6876,-18.4531 -0.083,-0.24639 2.3092,-0.3117 11.4186,-0.3117 9.1095,0 11.5021,0.0653 11.4186,0.3117 -0.058,0.17144 -2.6175,8.47533 -5.6876,18.4531 -3.0701,9.97776 -5.649,18.14139 -5.731,18.14139 -0.082,0 -2.6609,-8.16363 -5.731,-18.14139 z"
         id="path34991"
         transform="matrix(0.75000002,0,0,-0.75000002,0,730.00002)" />
      <path
         style="fill:#008080;fill-opacity:0.777472;stroke:none;stroke-width:0;stroke-linejoin:round;stroke-miterlimit:4;stroke-dasharray:none"
         d="m 1459.5696,122.40892 c -2.8998,-3.46076 -5.288,-6.40374 -5.3073,-6.53996 -0.037,-0.26327 19.6079,-3.02612 19.8433,-2.79073 0.11,0.10997 -9.0488,15.64161 -9.2151,15.62719 -0.027,-0.002 -2.4211,-2.83574 -5.3209,-6.2965 z"
         id="path34993"
         transform="matrix(0.75000002,0,0,-0.75000002,0,730.00002)" />
      <path
         style="fill:#008080;fill-opacity:0.776824;stroke:none;stroke-width:0;stroke-linejoin:round;stroke-miterlimit:4;stroke-dasharray:none"
         d="m 1444.0878,113.29433 c -4.5572,-0.62541 -8.2488,-1.17425 -8.2034,-1.21964 0.045,-0.0454 3.836,-0.46113 8.4235,-0.92389 l 8.341,-0.84138 8.1923,0.84326 c 4.5057,0.46379 8.2271,0.87809 8.2697,0.92068 0.043,0.0426 -3.5376,0.55906 -7.9559,1.14774 -4.4183,0.58867 -8.2016,1.10182 -8.4073,1.14034 -0.2057,0.0385 -4.1027,-0.44169 -8.6599,-1.06711 z"
         id="path34995"
         transform="matrix(0.75000002,0,0,-0.75000002,0,730.00002)" />
      <path
         style="fill:#008080;stroke:none;stroke-width:0;stroke-linejoin:round;stroke-miterlimit:4;stroke-dasharray:none"
         d="m 1474.7348,130.82732 c -4.5709,-0.72892 -8.3478,-1.36333 -8.3929,-1.40979 -0.103,-0.106 9.1773,-15.65203 9.3475,-15.6586 0.069,-0.003 1.6334,3.55655 3.4773,7.90933 1.844,4.35278 3.61,8.50327 3.9244,9.22332 0.3852,0.88202 0.471,1.30132 0.2631,1.28512 -0.1697,-0.0132 -4.0484,-0.62045 -8.6194,-1.34938 z"
         id="path34997"
         transform="matrix(0.75000002,0,0,-0.75000002,0,730.00002)" />
      <path
         style="fill:#008080;fill-opacity:0.878704;stroke:none;stroke-width:0;stroke-linejoin:round;stroke-miterlimit:4;stroke-dasharray:none"
         d="m 1454.2969,167.11201 c 0.073,-0.20572 2.6273,-8.46056 5.6765,-18.34407 l 5.544,-17.97003 5.1483,0.81685 c 2.8316,0.44928 6.8035,1.07111 8.8265,1.38186 2.023,0.31076 3.6782,0.64485 3.6782,0.74244 0,0.13485 -28.2484,33.02798 -28.8746,33.62232 -0.072,0.0686 -0.072,-0.0436 0,-0.24937 z"
         id="path34999"
         transform="matrix(0.75000002,0,0,-0.75000002,0,730.00002)" />
    </g>
  </g>
</svg>
