<?xml version="1.0" encoding="utf-8" standalone="no"?>
<!DOCTYPE svg PUBLIC "-//W3C//DTD SVG 1.1//EN"
  "http://www.w3.org/Graphics/SVG/1.1/DTD/svg11.dtd">
<svg xmlns:xlink="http://www.w3.org/1999/xlink" width="324pt" height="216pt" viewBox="0 0 324 216" xmlns="http://www.w3.org/2000/svg" version="1.1">
 <metadata>
  <rdf:RDF xmlns:dc="http://purl.org/dc/elements/1.1/" xmlns:cc="http://creativecommons.org/ns#" xmlns:rdf="http://www.w3.org/1999/02/22-rdf-syntax-ns#">
   <cc:Work>
    <dc:type rdf:resource="http://purl.org/dc/dcmitype/StillImage"/>
    <dc:date>2022-10-11T16:24:12.921995</dc:date>
    <dc:format>image/svg+xml</dc:format>
    <dc:creator>
     <cc:Agent>
      <dc:title>Matplotlib v3.5.1, https://matplotlib.org/</dc:title>
     </cc:Agent>
    </dc:creator>
   </cc:Work>
  </rdf:RDF>
 </metadata>
 <defs>
  <style type="text/css">*{stroke-linejoin: round; stroke-linecap: butt}</style>
 </defs>
 <g id="figure_1">
  <g id="patch_1">
   <path d="M 0 216 
L 324 216 
L 324 0 
L 0 0 
z
" style="fill: #ffffff"/>
  </g>
  <g id="axes_1">
   <g id="patch_2">
    <path d="M 40.5 192.24 
L 291.6 192.24 
L 291.6 25.92 
L 40.5 25.92 
z
" style="fill: #ffffff"/>
   </g>
   <g id="matplotlib.axis_1">
    <g id="xtick_1">
     <g id="line2d_1">
      <defs>
       <path id="me365cb6007" d="M 0 0 
L 0 3.5 
" style="stroke: #000000; stroke-width: 0.8"/>
      </defs>
      <g>
       <use xlink:href="#me365cb6007" x="84.524026" y="192.24" style="stroke: #000000; stroke-width: 0.8"/>
      </g>
     </g>
     <g id="text_1">
      <!-- 2600 -->
      <g transform="translate(64.164026 211.3975)scale(0.16 -0.16)">
       <defs>
        <path id="DejaVuSans-32" d="M 1228 531 
L 3431 531 
L 3431 0 
L 469 0 
L 469 531 
Q 828 903 1448 1529 
Q 2069 2156 2228 2338 
Q 2531 2678 2651 2914 
Q 2772 3150 2772 3378 
Q 2772 3750 2511 3984 
Q 2250 4219 1831 4219 
Q 1534 4219 1204 4116 
Q 875 4013 500 3803 
L 500 4441 
Q 881 4594 1212 4672 
Q 1544 4750 1819 4750 
Q 2544 4750 2975 4387 
Q 3406 4025 3406 3419 
Q 3406 3131 3298 2873 
Q 3191 2616 2906 2266 
Q 2828 2175 2409 1742 
Q 1991 1309 1228 531 
z
" transform="scale(0.015625)"/>
        <path id="DejaVuSans-36" d="M 2113 2584 
Q 1688 2584 1439 2293 
Q 1191 2003 1191 1497 
Q 1191 994 1439 701 
Q 1688 409 2113 409 
Q 2538 409 2786 701 
Q 3034 994 3034 1497 
Q 3034 2003 2786 2293 
Q 2538 2584 2113 2584 
z
M 3366 4563 
L 3366 3988 
Q 3128 4100 2886 4159 
Q 2644 4219 2406 4219 
Q 1781 4219 1451 3797 
Q 1122 3375 1075 2522 
Q 1259 2794 1537 2939 
Q 1816 3084 2150 3084 
Q 2853 3084 3261 2657 
Q 3669 2231 3669 1497 
Q 3669 778 3244 343 
Q 2819 -91 2113 -91 
Q 1303 -91 875 529 
Q 447 1150 447 2328 
Q 447 3434 972 4092 
Q 1497 4750 2381 4750 
Q 2619 4750 2861 4703 
Q 3103 4656 3366 4563 
z
" transform="scale(0.015625)"/>
        <path id="DejaVuSans-30" d="M 2034 4250 
Q 1547 4250 1301 3770 
Q 1056 3291 1056 2328 
Q 1056 1369 1301 889 
Q 1547 409 2034 409 
Q 2525 409 2770 889 
Q 3016 1369 3016 2328 
Q 3016 3291 2770 3770 
Q 2525 4250 2034 4250 
z
M 2034 4750 
Q 2819 4750 3233 4129 
Q 3647 3509 3647 2328 
Q 3647 1150 3233 529 
Q 2819 -91 2034 -91 
Q 1250 -91 836 529 
Q 422 1150 422 2328 
Q 422 3509 836 4129 
Q 1250 4750 2034 4750 
z
" transform="scale(0.015625)"/>
       </defs>
       <use xlink:href="#DejaVuSans-32"/>
       <use xlink:href="#DejaVuSans-36" x="63.623047"/>
       <use xlink:href="#DejaVuSans-30" x="127.246094"/>
       <use xlink:href="#DejaVuSans-30" x="190.869141"/>
      </g>
     </g>
    </g>
    <g id="xtick_2">
     <g id="line2d_2">
      <g>
       <use xlink:href="#me365cb6007" x="149.744805" y="192.24" style="stroke: #000000; stroke-width: 0.8"/>
      </g>
     </g>
     <g id="text_2">
      <!-- 2800 -->
      <g transform="translate(129.384805 211.3975)scale(0.16 -0.16)">
       <defs>
        <path id="DejaVuSans-38" d="M 2034 2216 
Q 1584 2216 1326 1975 
Q 1069 1734 1069 1313 
Q 1069 891 1326 650 
Q 1584 409 2034 409 
Q 2484 409 2743 651 
Q 3003 894 3003 1313 
Q 3003 1734 2745 1975 
Q 2488 2216 2034 2216 
z
M 1403 2484 
Q 997 2584 770 2862 
Q 544 3141 544 3541 
Q 544 4100 942 4425 
Q 1341 4750 2034 4750 
Q 2731 4750 3128 4425 
Q 3525 4100 3525 3541 
Q 3525 3141 3298 2862 
Q 3072 2584 2669 2484 
Q 3125 2378 3379 2068 
Q 3634 1759 3634 1313 
Q 3634 634 3220 271 
Q 2806 -91 2034 -91 
Q 1263 -91 848 271 
Q 434 634 434 1313 
Q 434 1759 690 2068 
Q 947 2378 1403 2484 
z
M 1172 3481 
Q 1172 3119 1398 2916 
Q 1625 2713 2034 2713 
Q 2441 2713 2670 2916 
Q 2900 3119 2900 3481 
Q 2900 3844 2670 4047 
Q 2441 4250 2034 4250 
Q 1625 4250 1398 4047 
Q 1172 3844 1172 3481 
z
" transform="scale(0.015625)"/>
       </defs>
       <use xlink:href="#DejaVuSans-32"/>
       <use xlink:href="#DejaVuSans-38" x="63.623047"/>
       <use xlink:href="#DejaVuSans-30" x="127.246094"/>
       <use xlink:href="#DejaVuSans-30" x="190.869141"/>
      </g>
     </g>
    </g>
    <g id="xtick_3">
     <g id="line2d_3">
      <g>
       <use xlink:href="#me365cb6007" x="214.965584" y="192.24" style="stroke: #000000; stroke-width: 0.8"/>
      </g>
     </g>
     <g id="text_3">
      <!-- 3000 -->
      <g transform="translate(194.605584 211.3975)scale(0.16 -0.16)">
       <defs>
        <path id="DejaVuSans-33" d="M 2597 2516 
Q 3050 2419 3304 2112 
Q 3559 1806 3559 1356 
Q 3559 666 3084 287 
Q 2609 -91 1734 -91 
Q 1441 -91 1130 -33 
Q 819 25 488 141 
L 488 750 
Q 750 597 1062 519 
Q 1375 441 1716 441 
Q 2309 441 2620 675 
Q 2931 909 2931 1356 
Q 2931 1769 2642 2001 
Q 2353 2234 1838 2234 
L 1294 2234 
L 1294 2753 
L 1863 2753 
Q 2328 2753 2575 2939 
Q 2822 3125 2822 3475 
Q 2822 3834 2567 4026 
Q 2313 4219 1838 4219 
Q 1578 4219 1281 4162 
Q 984 4106 628 3988 
L 628 4550 
Q 988 4650 1302 4700 
Q 1616 4750 1894 4750 
Q 2613 4750 3031 4423 
Q 3450 4097 3450 3541 
Q 3450 3153 3228 2886 
Q 3006 2619 2597 2516 
z
" transform="scale(0.015625)"/>
       </defs>
       <use xlink:href="#DejaVuSans-33"/>
       <use xlink:href="#DejaVuSans-30" x="63.623047"/>
       <use xlink:href="#DejaVuSans-30" x="127.246094"/>
       <use xlink:href="#DejaVuSans-30" x="190.869141"/>
      </g>
     </g>
    </g>
    <g id="xtick_4">
     <g id="line2d_4">
      <g>
       <use xlink:href="#me365cb6007" x="280.186364" y="192.24" style="stroke: #000000; stroke-width: 0.8"/>
      </g>
     </g>
     <g id="text_4">
      <!-- 3200 -->
      <g transform="translate(259.826364 211.3975)scale(0.16 -0.16)">
       <use xlink:href="#DejaVuSans-33"/>
       <use xlink:href="#DejaVuSans-32" x="63.623047"/>
       <use xlink:href="#DejaVuSans-30" x="127.246094"/>
       <use xlink:href="#DejaVuSans-30" x="190.869141"/>
      </g>
     </g>
    </g>
   </g>
   <g id="matplotlib.axis_2">
    <g id="ytick_1">
     <g id="line2d_5">
      <defs>
       <path id="mb64d136447" d="M 0 0 
L -3.5 0 
" style="stroke: #000000; stroke-width: 0.8"/>
      </defs>
      <g>
       <use xlink:href="#mb64d136447" x="40.5" y="152.979573" style="stroke: #000000; stroke-width: 0.8"/>
      </g>
     </g>
     <g id="text_5">
      <!-- 0.996 -->
      <g transform="translate(-12.305 159.058323)scale(0.16 -0.16)">
       <defs>
        <path id="DejaVuSans-2e" d="M 684 794 
L 1344 794 
L 1344 0 
L 684 0 
L 684 794 
z
" transform="scale(0.015625)"/>
        <path id="DejaVuSans-39" d="M 703 97 
L 703 672 
Q 941 559 1184 500 
Q 1428 441 1663 441 
Q 2288 441 2617 861 
Q 2947 1281 2994 2138 
Q 2813 1869 2534 1725 
Q 2256 1581 1919 1581 
Q 1219 1581 811 2004 
Q 403 2428 403 3163 
Q 403 3881 828 4315 
Q 1253 4750 1959 4750 
Q 2769 4750 3195 4129 
Q 3622 3509 3622 2328 
Q 3622 1225 3098 567 
Q 2575 -91 1691 -91 
Q 1453 -91 1209 -44 
Q 966 3 703 97 
z
M 1959 2075 
Q 2384 2075 2632 2365 
Q 2881 2656 2881 3163 
Q 2881 3666 2632 3958 
Q 2384 4250 1959 4250 
Q 1534 4250 1286 3958 
Q 1038 3666 1038 3163 
Q 1038 2656 1286 2365 
Q 1534 2075 1959 2075 
z
" transform="scale(0.015625)"/>
       </defs>
       <use xlink:href="#DejaVuSans-30"/>
       <use xlink:href="#DejaVuSans-2e" x="63.623047"/>
       <use xlink:href="#DejaVuSans-39" x="95.410156"/>
       <use xlink:href="#DejaVuSans-39" x="159.033203"/>
       <use xlink:href="#DejaVuSans-36" x="222.65625"/>
      </g>
     </g>
    </g>
    <g id="ytick_2">
     <g id="line2d_6">
      <g>
       <use xlink:href="#mb64d136447" x="40.5" y="93.229786" style="stroke: #000000; stroke-width: 0.8"/>
      </g>
     </g>
     <g id="text_6">
      <!-- 0.998 -->
      <g transform="translate(-12.305 99.308536)scale(0.16 -0.16)">
       <use xlink:href="#DejaVuSans-30"/>
       <use xlink:href="#DejaVuSans-2e" x="63.623047"/>
       <use xlink:href="#DejaVuSans-39" x="95.410156"/>
       <use xlink:href="#DejaVuSans-39" x="159.033203"/>
       <use xlink:href="#DejaVuSans-38" x="222.65625"/>
      </g>
     </g>
    </g>
    <g id="ytick_3">
     <g id="line2d_7">
      <g>
       <use xlink:href="#mb64d136447" x="40.5" y="33.48" style="stroke: #000000; stroke-width: 0.8"/>
      </g>
     </g>
     <g id="text_7">
      <!-- 1.000 -->
      <g transform="translate(-12.305 39.55875)scale(0.16 -0.16)">
       <defs>
        <path id="DejaVuSans-31" d="M 794 531 
L 1825 531 
L 1825 4091 
L 703 3866 
L 703 4441 
L 1819 4666 
L 2450 4666 
L 2450 531 
L 3481 531 
L 3481 0 
L 794 0 
L 794 531 
z
" transform="scale(0.015625)"/>
       </defs>
       <use xlink:href="#DejaVuSans-31"/>
       <use xlink:href="#DejaVuSans-2e" x="63.623047"/>
       <use xlink:href="#DejaVuSans-30" x="95.410156"/>
       <use xlink:href="#DejaVuSans-30" x="159.033203"/>
       <use xlink:href="#DejaVuSans-30" x="222.65625"/>
      </g>
     </g>
    </g>
   </g>
   <g id="line2d_8">
    <path d="M 51.913636 35.448773 
L 52.027773 35.532121 
L 52.141909 34.580421 
L 52.256045 35.525584 
L 52.370182 33.78888 
L 52.598455 34.850078 
L 52.712591 34.619099 
L 52.826727 35.790884 
L 52.940864 35.33982 
L 53.055 36.014236 
L 53.283273 35.779444 
L 53.511545 34.545556 
L 53.625682 35.893299 
L 53.739818 35.150243 
L 53.853955 33.581871 
L 54.082227 35.939059 
L 54.424636 34.637621 
L 54.538773 34.748208 
L 54.767045 34.124999 
L 54.881182 35.462937 
L 55.109455 34.939419 
L 55.223591 35.233047 
L 55.337727 34.373411 
L 55.566 35.400834 
L 55.680136 35.189466 
L 55.794273 34.340725 
L 55.908409 35.078334 
L 56.136682 34.268817 
L 56.250818 34.896928 
L 56.479091 34.666493 
L 56.593227 35.68411 
L 56.707364 33.932698 
L 56.8215 35.356163 
L 57.049773 34.060717 
L 57.163909 34.245392 
L 57.278045 34.899107 
L 57.506318 33.997525 
L 57.620455 34.342904 
L 57.734591 35.276083 
L 57.848727 34.765095 
L 58.077 35.696095 
L 58.191136 35.289702 
L 58.305273 35.516323 
L 58.419409 34.43279 
L 58.533545 34.986814 
L 58.647682 36.130816 
L 58.761818 35.580061 
L 58.875955 35.994625 
L 58.990091 35.245031 
L 59.218364 36.260469 
L 59.3325 34.675754 
L 59.560773 36.027311 
L 59.674909 35.140982 
L 59.903182 35.761467 
L 60.017318 35.407371 
L 60.131455 34.498706 
L 60.359727 35.54792 
L 60.588 33.856976 
L 60.702136 35.108841 
L 60.816273 35.024947 
L 60.930409 34.577697 
L 61.044545 34.730775 
L 61.158682 35.146429 
L 61.272818 34.542287 
L 61.501091 34.787431 
L 61.615227 34.352165 
L 61.8435 34.70953 
L 61.957636 34.537929 
L 62.071773 35.0195 
L 62.185909 34.47964 
L 62.300045 34.817937 
L 62.414182 34.678478 
L 62.528318 35.060357 
L 62.642455 34.492169 
L 62.756591 34.994985 
L 62.870727 33.546461 
L 63.099 34.576063 
L 63.213136 34.349986 
L 63.441409 34.431701 
L 63.555545 34.946501 
L 63.669682 34.044919 
L 63.783818 34.872414 
L 63.897955 34.818482 
L 64.012091 35.322388 
L 64.240364 34.115193 
L 64.3545 34.348352 
L 64.468636 33.48 
L 64.582773 34.601122 
L 64.696909 33.722419 
L 64.925182 34.940509 
L 65.039318 34.68665 
L 65.153455 34.105388 
L 65.267591 34.109746 
L 65.381727 34.665949 
L 65.495864 35.831741 
L 65.724136 34.577152 
L 65.952409 35.248845 
L 66.066545 34.278077 
L 66.294818 34.854436 
L 66.408955 34.822295 
L 66.751364 34.03021 
L 66.8655 35.084871 
L 66.979636 34.100485 
L 67.093773 34.263914 
L 67.207909 34.989538 
L 67.322045 34.757469 
L 67.436182 35.035843 
L 67.550318 33.787791 
L 67.778591 36.715346 
L 68.006864 34.820116 
L 68.121 34.462207 
L 68.349273 35.841547 
L 68.577545 34.412634 
L 68.691682 34.296055 
L 68.919955 35.203085 
L 69.034091 34.277533 
L 69.148227 34.586413 
L 69.3765 35.790339 
L 69.604773 35.911276 
L 69.718909 36.340005 
L 69.833045 35.95976 
L 69.947182 37.760201 
L 70.289591 35.970111 
L 70.517864 37.650704 
L 70.746136 36.337826 
L 70.974409 38.065813 
L 71.202682 37.031309 
L 71.316818 37.753119 
L 71.430955 36.830291 
L 71.659227 37.01551 
L 72.115773 35.054364 
L 72.229909 36.210351 
L 72.344045 35.930888 
L 72.458182 34.896383 
L 72.686455 36.308408 
L 72.800591 36.14498 
L 72.914727 35.324567 
L 73.028864 35.747847 
L 73.143 35.607843 
L 73.257136 35.028761 
L 73.371273 35.516868 
L 73.713682 35.406281 
L 74.170227 34.460028 
L 74.284364 34.640889 
L 74.512636 34.288973 
L 74.626773 34.608748 
L 74.740909 34.551004 
L 74.969182 35.095222 
L 75.083318 35.161138 
L 75.197455 33.888572 
L 75.311591 34.231228 
L 75.425727 35.782712 
L 75.539864 34.18002 
L 75.768136 35.570255 
L 75.882273 34.615286 
L 75.996409 35.218883 
L 76.110545 35.104483 
L 76.224682 35.680842 
L 76.338818 35.571344 
L 76.452955 34.668128 
L 76.567091 35.724967 
L 76.681227 34.804863 
L 76.795364 34.893659 
L 77.023636 35.94832 
L 77.137773 34.939419 
L 77.366045 36.107391 
L 77.594318 35.55827 
L 77.708455 36.9594 
L 77.936727 35.598038 
L 78.050864 35.974469 
L 78.165 35.867151 
L 78.507409 36.78671 
L 78.621545 37.649614 
L 78.849818 36.422264 
L 78.963955 35.554457 
L 79.078091 36.447323 
L 79.306364 35.221607 
L 79.4205 34.769998 
L 79.648773 36.15642 
L 79.762909 36.268096 
L 79.877045 35.648701 
L 79.991182 36.112294 
L 80.105318 34.564078 
L 80.219455 35.802324 
L 80.333591 35.409005 
L 80.561864 35.437877 
L 80.676 35.313672 
L 80.790136 36.404287 
L 80.904273 35.975014 
L 81.018409 36.386309 
L 81.246682 35.983185 
L 81.360818 36.004975 
L 81.474955 34.492169 
L 81.589091 36.249574 
L 81.703227 35.152967 
L 81.9315 36.427711 
L 82.045636 36.497441 
L 82.388045 35.173667 
L 82.616318 36.789979 
L 82.958727 35.679207 
L 83.072864 35.803413 
L 83.301136 34.855526 
L 83.415273 35.946141 
L 83.529409 35.686289 
L 83.643545 35.771817 
L 83.757682 37.481283 
L 83.871818 36.215799 
L 84.100091 36.188561 
L 84.328364 35.786526 
L 84.556636 36.678847 
L 84.670773 36.743674 
L 84.784909 37.920361 
L 85.241455 35.474377 
L 85.469727 37.163686 
L 85.698 35.819756 
L 85.812136 36.968116 
L 85.926273 36.627639 
L 86.154545 37.908921 
L 86.268682 38.162781 
L 86.382818 38.142625 
L 86.496955 39.196196 
L 86.725227 38.0048 
L 86.839364 38.466214 
L 87.067636 37.299332 
L 87.181773 37.187111 
L 87.295909 36.834104 
L 87.524182 36.922901 
L 87.638318 36.710443 
L 87.752455 36.867335 
L 87.866591 37.58969 
L 87.980727 37.056912 
L 88.094864 38.205272 
L 88.323136 37.735142 
L 88.437273 38.242861 
L 88.551409 38.185661 
L 88.665545 38.283173 
L 88.893818 40.397943 
L 89.007955 39.763294 
L 89.350364 42.673417 
L 89.692773 47.337131 
L 89.806909 47.228178 
L 90.377591 59.147588 
L 90.72 62.729403 
L 90.834136 63.578688 
L 91.404818 80.911951 
L 91.747227 112.414493 
L 92.203773 163.267554 
L 92.546182 151.809558 
L 92.888591 168.002087 
L 93.231 148.79702 
L 93.345136 149.811913 
L 93.459273 156.407356 
L 93.573409 155.631069 
L 93.801682 128.040469 
L 94.144091 91.577316 
L 94.258227 83.513193 
L 94.372364 84.335785 
L 94.600636 77.834041 
L 95.057182 59.053344 
L 95.399591 53.871016 
L 95.513727 53.297925 
L 95.970273 47.10942 
L 96.084409 46.118497 
L 96.198545 44.107777 
L 96.312682 44.484753 
L 96.426818 43.497098 
L 96.540955 43.759129 
L 97.111636 39.110668 
L 97.225773 39.379236 
L 97.339909 40.165329 
L 97.682318 37.330928 
L 97.796455 37.237229 
L 98.024727 36.664138 
L 98.138864 37.11956 
L 98.367136 36.222336 
L 98.595409 36.74095 
L 98.709545 36.714801 
L 98.823682 36.949594 
L 98.937818 37.876236 
L 99.051955 37.879504 
L 99.280227 36.049101 
L 99.394364 37.679576 
L 99.5085 36.763285 
L 99.622636 37.073255 
L 99.736773 36.389578 
L 99.965045 38.178034 
L 100.193318 37.562452 
L 100.307455 36.685384 
L 100.421591 37.908377 
L 100.535727 37.881139 
L 100.649864 36.633087 
L 100.764 38.26792 
L 100.878136 38.150796 
L 100.992273 37.631637 
L 101.106409 36.352534 
L 101.220545 36.880954 
L 101.448818 36.616199 
L 101.562955 37.292795 
L 101.791227 36.873327 
L 101.905364 38.658515 
L 102.133636 36.74095 
L 102.361909 37.321122 
L 102.476045 36.284984 
L 102.704318 37.335831 
L 102.818455 37.250848 
L 102.932591 36.994809 
L 103.046727 37.09777 
L 103.160864 37.483462 
L 103.275 36.726786 
L 103.389136 37.585877 
L 103.617409 36.055094 
L 103.731545 36.748577 
L 103.959818 36.030579 
L 104.073955 34.762372 
L 104.188091 35.601851 
L 104.302227 37.269915 
L 104.416364 36.817762 
L 104.5305 35.345813 
L 104.644636 35.6852 
L 104.758773 34.459483 
L 104.987045 36.717525 
L 105.215318 36.181479 
L 105.329455 35.795787 
L 105.557727 37.044383 
L 106.014273 35.103393 
L 106.128409 36.430435 
L 106.470818 35.515779 
L 106.584955 35.681931 
L 106.699091 34.878951 
L 106.927364 35.107751 
L 107.0415 36.120465 
L 107.155636 35.790884 
L 107.269773 35.862792 
L 107.383909 36.321483 
L 107.498045 35.882949 
L 107.612182 36.564447 
L 107.954591 35.727146 
L 108.068727 36.101399 
L 108.182864 35.735318 
L 108.297 36.219067 
L 108.411136 35.622552 
L 108.525273 35.969566 
L 108.639409 35.485272 
L 108.753545 36.756203 
L 108.981818 36.12101 
L 109.095955 35.906373 
L 109.210091 35.234136 
L 109.324227 35.622007 
L 109.438364 37.175671 
L 109.5525 36.509426 
L 109.666636 37.209991 
L 110.009045 35.347992 
L 110.123182 36.194008 
L 110.237318 34.998799 
L 110.465591 36.692466 
L 110.579727 36.774181 
L 110.808 35.862792 
L 111.036273 38.15352 
L 111.150409 37.056368 
L 111.264545 38.605128 
L 111.378682 38.415006 
L 111.949364 42.28609 
L 112.0635 44.729896 
L 112.177636 44.5267 
L 112.520045 48.447902 
L 112.748318 49.70358 
L 112.862455 51.235998 
L 113.775545 73.128925 
L 113.889682 73.430723 
L 114.117955 79.326691 
L 114.460364 96.944864 
L 114.688636 116.033352 
L 115.031045 166.063821 
L 115.145182 170.815787 
L 115.259318 169.149358 
L 115.487591 162.844818 
L 115.83 169.865176 
L 116.286545 158.436053 
L 116.400682 159.766908 
L 116.514818 159.296233 
L 116.743091 142.74525 
L 117.0855 109.303897 
L 117.656182 90.550439 
L 118.112727 65.1378 
L 118.455136 56.4107 
L 118.797545 49.734087 
L 118.911682 50.009192 
L 119.139955 46.218188 
L 119.254091 46.730265 
L 119.5965 41.807244 
L 119.824773 40.680674 
L 119.938909 40.102681 
L 120.053045 40.992824 
L 120.281318 39.216352 
L 120.509591 38.805056 
L 120.623727 37.794521 
L 120.852 38.640538 
L 120.966136 37.670315 
L 121.080273 37.7395 
L 121.308545 37.411553 
L 121.422682 37.83211 
L 121.650955 37.099404 
L 121.765091 36.71807 
L 121.879227 37.687748 
L 121.993364 36.982825 
L 122.221636 37.618018 
L 122.335773 37.280265 
L 122.449909 36.395026 
L 122.678182 37.169134 
L 122.792318 36.147159 
L 123.020591 37.420814 
L 123.134727 36.670131 
L 123.248864 37.225244 
L 123.363 37.192558 
L 123.477136 37.55537 
L 123.705409 36.487091 
L 123.819545 37.293339 
L 123.933682 36.811224 
L 124.047818 37.783081 
L 124.161955 37.404471 
L 124.390227 38.431894 
L 124.504364 36.451136 
L 124.6185 36.791068 
L 124.846773 36.701182 
L 125.075045 37.926899 
L 125.189182 38.212354 
L 125.303318 37.244311 
L 125.417455 38.034762 
L 125.531591 36.352534 
L 125.645727 36.518142 
L 125.759864 36.376504 
L 125.874 37.0166 
L 125.988136 36.756748 
L 126.216409 37.603309 
L 126.558818 36.369422 
L 126.787091 37.840281 
L 127.015364 36.623826 
L 127.1295 36.147159 
L 127.243636 38.522869 
L 127.357773 36.237589 
L 127.471909 36.945781 
L 127.586045 36.929983 
L 127.700182 37.604399 
L 127.814318 37.107575 
L 127.928455 37.123918 
L 128.156727 34.979732 
L 128.385 37.174581 
L 128.499136 35.88077 
L 128.613273 36.433159 
L 128.727409 35.014052 
L 128.955682 36.290976 
L 129.183955 35.628 
L 129.298091 35.807227 
L 129.412227 35.4199 
L 129.526364 35.791973 
L 129.6405 35.777265 
L 129.754636 37.052554 
L 129.868773 35.460757 
L 129.982909 36.085056 
L 130.097045 37.400113 
L 130.211182 36.483277 
L 130.325318 36.564447 
L 130.439455 36.33837 
L 130.553591 37.438791 
L 130.781864 36.571529 
L 130.896 36.945781 
L 131.124273 35.680297 
L 131.352545 38.190564 
L 131.580818 36.417906 
L 131.809091 37.500894 
L 131.923227 35.908552 
L 132.037364 36.791068 
L 132.1515 36.103578 
L 132.265636 36.979556 
L 132.379773 36.456039 
L 132.493909 37.063994 
L 132.608045 36.681571 
L 132.836318 37.790163 
L 132.950455 37.115747 
L 133.064591 38.243951 
L 133.178727 37.396844 
L 133.292864 37.959584 
L 133.635273 37.113568 
L 133.749409 37.135358 
L 133.977682 39.584067 
L 134.091818 38.6133 
L 134.320091 39.544299 
L 134.434227 37.270459 
L 134.6625 38.507616 
L 134.776636 38.02659 
L 134.890773 38.65797 
L 135.119045 37.52105 
L 135.347318 37.399568 
L 135.575591 37.67086 
L 135.689727 37.352719 
L 135.803864 37.919272 
L 135.918 37.488909 
L 136.146273 35.897112 
L 136.374545 36.934886 
L 136.488682 37.047651 
L 136.831091 35.849173 
L 137.059364 36.968661 
L 137.1735 36.91364 
L 137.287636 37.848453 
L 137.401773 37.377778 
L 137.515909 36.153696 
L 137.744182 37.034032 
L 137.858318 35.382312 
L 138.086591 36.486001 
L 138.200727 36.606938 
L 138.314864 36.294245 
L 138.429 36.482732 
L 138.657273 35.532666 
L 138.771409 36.308953 
L 138.885545 35.758743 
L 139.113818 36.515418 
L 139.227955 35.958671 
L 139.342091 36.318214 
L 139.456227 35.725512 
L 139.570364 35.87968 
L 139.6845 35.704811 
L 139.798636 36.876051 
L 139.912773 36.463121 
L 140.026909 36.905468 
L 140.141045 36.686474 
L 140.255182 37.096135 
L 140.369318 36.926714 
L 140.483455 36.968116 
L 140.597591 36.568805 
L 140.711727 37.170223 
L 140.825864 36.643437 
L 140.94 37.781992 
L 141.054136 36.585693 
L 141.168273 36.621102 
L 141.282409 37.123373 
L 141.396545 38.466759 
L 141.510682 36.895118 
L 141.624818 38.930896 
L 141.738955 37.69374 
L 141.853091 38.132274 
L 141.967227 37.846818 
L 142.081364 39.43916 
L 142.1955 38.476564 
L 142.309636 39.500174 
L 142.423773 38.710812 
L 142.537909 39.329118 
L 142.766182 39.0137 
L 142.880318 40.084704 
L 142.994455 39.27791 
L 143.108591 39.276821 
L 143.336864 40.869707 
L 143.451 39.864075 
L 143.679273 41.166603 
L 143.793409 41.059285 
L 143.907545 40.829395 
L 144.592364 43.885514 
L 144.934773 48.104157 
L 145.048909 47.953258 
L 145.277182 51.738814 
L 145.391318 52.62024 
L 145.962 64.342446 
L 146.418545 82.434563 
L 146.760955 84.041068 
L 146.989227 90.122255 
L 147.2175 100.357258 
L 147.445773 120.169191 
L 148.016455 184.68 
L 148.473 173.510729 
L 148.587136 174.720647 
L 148.701273 174.315343 
L 149.157818 159.259189 
L 149.271955 159.821385 
L 149.386091 159.135528 
L 149.614364 138.948254 
L 149.956773 100.888402 
L 150.299182 90.22576 
L 151.326409 51.540521 
L 151.897091 43.634378 
L 152.011227 43.910573 
L 152.125364 43.766211 
L 152.2395 41.217811 
L 152.353636 41.189483 
L 152.581909 39.333476 
L 152.696045 39.314954 
L 152.924318 38.432983 
L 153.038455 39.574261 
L 153.266727 38.042388 
L 153.380864 38.422633 
L 153.495 39.220165 
L 153.837409 37.630548 
L 153.951545 37.615839 
L 154.065682 36.510515 
L 154.179818 36.721883 
L 154.293955 36.470203 
L 154.408091 36.704996 
L 154.522227 36.467479 
L 154.636364 37.004615 
L 154.7505 36.412458 
L 154.864636 36.527948 
L 154.978773 36.999712 
L 155.092909 35.072886 
L 155.207045 36.183113 
L 155.321182 35.803413 
L 155.435318 36.793247 
L 155.663591 36.298058 
L 155.777727 36.62546 
L 155.891864 36.481098 
L 156.006 37.646891 
L 156.348409 36.459308 
L 156.462545 37.244311 
L 156.576682 35.21398 
L 156.690818 35.965208 
L 156.804955 35.865516 
L 156.919091 36.045833 
L 157.033227 36.994265 
L 157.2615 35.120825 
L 157.375636 35.995715 
L 157.489773 34.762916 
L 157.718045 36.524679 
L 157.946318 35.334373 
L 158.060455 35.963029 
L 158.288727 35.213435 
L 158.402864 35.418266 
L 158.517 36.352534 
L 158.745273 35.274993 
L 158.973545 36.065444 
L 159.087682 36.01696 
L 159.201818 36.11992 
L 159.430091 35.339275 
L 159.544227 35.52286 
L 159.658364 36.197822 
L 159.7725 36.038206 
L 159.886636 35.588777 
L 160.000773 36.756748 
L 160.229045 35.770728 
L 160.571455 37.285168 
L 160.685591 36.226149 
L 160.799727 36.933251 
L 160.913864 35.646522 
L 161.028 36.065989 
L 161.142136 35.403013 
L 161.256273 36.633087 
L 161.370409 36.089958 
L 161.598682 36.264283 
L 161.712818 35.986998 
L 161.826955 36.530127 
L 162.055227 35.753295 
L 162.2835 36.369967 
L 162.511773 35.414453 
L 162.625909 35.957036 
L 162.740045 35.628544 
L 162.854182 36.269185 
L 162.968318 35.797421 
L 163.082455 37.199096 
L 163.196591 36.696824 
L 163.310727 38.172042 
L 163.424864 36.416816 
L 163.539 37.220341 
L 163.653136 36.539933 
L 163.767273 36.709899 
L 163.995545 38.01515 
L 164.109682 38.760386 
L 164.223818 38.721163 
L 164.337955 38.382865 
L 164.680364 40.425181 
L 164.908636 42.325858 
L 165.365182 43.68722 
L 165.593455 44.864453 
L 165.821727 47.255961 
L 166.620682 56.233107 
L 167.077227 69.065539 
L 167.762045 109.031516 
L 168.104455 106.738065 
L 168.332727 109.080545 
L 168.446864 100.072892 
L 168.561 105.619667 
L 168.903409 99.823391 
L 169.017545 100.412279 
L 169.359955 81.503563 
L 169.702364 62.5529 
L 170.729591 43.984116 
L 170.843727 44.295176 
L 171.072 42.578628 
L 171.414409 38.788169 
L 171.642682 39.511069 
L 171.756818 40.031862 
L 172.099227 37.78635 
L 172.213364 37.786895 
L 172.3275 37.227968 
L 172.441636 37.765104 
L 172.555773 36.285528 
L 172.669909 36.675034 
L 172.784045 36.597677 
L 172.898182 38.164415 
L 173.126455 35.618739 
L 173.354727 37.346181 
L 173.468864 36.939244 
L 173.697136 37.510155 
L 173.811273 38.823033 
L 173.925409 38.677037 
L 174.039545 39.149346 
L 174.153682 38.979925 
L 174.267818 39.591694 
L 174.381955 37.931801 
L 174.496091 38.294613 
L 174.724364 37.700277 
L 174.8385 37.777634 
L 174.952636 38.112663 
L 175.295045 36.063265 
L 175.409182 36.047467 
L 175.523318 37.215983 
L 175.637455 36.549194 
L 175.751591 37.385404 
L 175.865727 36.455494 
L 176.094 37.467664 
L 176.208136 35.916724 
L 176.436409 37.59078 
L 176.550545 37.230147 
L 176.664682 36.370511 
L 177.007091 36.868425 
L 177.121227 37.962308 
L 177.3495 36.209806 
L 177.463636 37.348905 
L 177.577773 36.428256 
L 177.691909 37.060726 
L 177.806045 38.532675 
L 177.920182 37.298242 
L 178.034318 37.914914 
L 178.148455 37.633271 
L 178.262591 36.85535 
L 178.376727 37.47638 
L 178.490864 37.44206 
L 178.605 37.907287 
L 178.833273 36.981735 
L 178.947409 37.495446 
L 179.061545 37.056912 
L 179.289818 37.260654 
L 179.403955 37.068352 
L 179.518091 36.298058 
L 179.746364 37.071076 
L 179.8605 36.399384 
L 179.974636 36.802508 
L 180.088773 36.507247 
L 180.202909 35.288612 
L 180.317045 37.105941 
L 180.545318 36.167315 
L 180.659455 37.629458 
L 180.887727 36.51106 
L 181.116 37.25684 
L 181.458409 36.495262 
L 181.572545 36.748577 
L 181.800818 35.999528 
L 181.914955 35.51142 
L 182.029091 36.678847 
L 182.257364 36.082877 
L 182.3715 36.654333 
L 182.485636 36.213075 
L 182.713909 36.564992 
L 182.828045 35.890575 
L 182.942182 35.990267 
L 183.056318 36.647251 
L 183.170455 35.577881 
L 183.398727 35.835554 
L 183.512864 35.436788 
L 183.627 36.776904 
L 183.741136 35.597493 
L 183.969409 37.060726 
L 184.083545 35.365424 
L 184.197682 35.940149 
L 184.425955 35.745124 
L 184.540091 36.10957 
L 184.654227 35.233591 
L 184.768364 35.829017 
L 184.8825 34.469289 
L 185.224909 36.630908 
L 185.453182 35.771817 
L 185.567318 36.026221 
L 185.681455 36.743129 
L 185.909727 36.420629 
L 186.138 37.110299 
L 186.252136 36.130816 
L 186.366273 36.567171 
L 186.480409 35.963029 
L 186.594545 37.114657 
L 186.708682 35.61547 
L 186.936955 36.48927 
L 187.051091 35.762011 
L 187.165227 35.854621 
L 187.279364 35.784891 
L 187.507636 36.406466 
L 187.621773 37.749306 
L 187.850045 36.841731 
L 187.964182 36.560634 
L 188.078318 36.990451 
L 188.192455 36.908192 
L 188.306591 36.273544 
L 188.420727 37.347816 
L 188.649 35.507607 
L 188.763136 36.538298 
L 188.991409 35.267367 
L 189.219682 36.81068 
L 189.447955 35.820846 
L 189.562091 36.114473 
L 189.676227 35.940149 
L 189.9045 36.593864 
L 190.018636 35.659051 
L 190.246909 36.483277 
L 190.361045 35.777809 
L 190.475182 36.237044 
L 190.589318 36.079608 
L 190.703455 36.881499 
L 190.817591 36.872783 
L 190.931727 36.597133 
L 191.045864 37.152246 
L 191.16 36.471837 
L 191.274136 36.620557 
L 191.388273 35.892754 
L 191.616545 36.27082 
L 191.730682 35.602396 
L 191.958955 35.888396 
L 192.187227 37.251938 
L 192.4155 35.673215 
L 192.529636 36.659236 
L 192.643773 36.547559 
L 192.757909 37.663233 
L 192.872045 36.519776 
L 192.986182 37.095046 
L 193.328591 35.528853 
L 193.556864 36.834649 
L 193.671 36.612931 
L 193.785136 35.37414 
L 193.899273 37.268825 
L 194.013409 35.542472 
L 194.127545 36.934886 
L 194.355818 36.727331 
L 194.469955 37.435523 
L 194.698227 35.490719 
L 194.812364 37.845729 
L 195.040636 36.218523 
L 195.154773 36.664138 
L 195.268909 36.112839 
L 195.497182 36.928348 
L 195.611318 35.299508 
L 195.725455 35.997894 
L 195.839591 35.69664 
L 195.953727 37.472566 
L 196.067864 36.251208 
L 196.182 36.837373 
L 196.296136 35.76528 
L 196.524409 36.767643 
L 196.638545 37.385404 
L 196.752682 36.344363 
L 197.095091 37.531946 
L 197.209227 36.5797 
L 197.323364 36.701727 
L 197.4375 36.476195 
L 197.551636 35.951589 
L 197.665773 37.322212 
L 197.779909 37.265557 
L 197.894045 36.548104 
L 198.008182 36.580245 
L 198.122318 37.375599 
L 198.236455 36.746942 
L 198.464727 38.063089 
L 198.578864 37.387583 
L 198.693 37.467119 
L 198.807136 37.839192 
L 199.035409 36.425532 
L 199.149545 37.617473 
L 199.263682 36.457673 
L 199.491955 38.069082 
L 199.606091 38.040209 
L 199.720227 38.369791 
L 199.9485 37.263922 
L 200.062636 38.410648 
L 200.176773 37.114657 
L 200.519182 38.06091 
L 200.633318 37.13209 
L 200.747455 38.587151 
L 200.861591 37.610391 
L 201.089864 38.075619 
L 201.204 37.760201 
L 201.432273 36.685384 
L 201.546409 36.599312 
L 201.660545 37.543386 
L 201.774682 36.378683 
L 201.888818 36.685929 
L 202.002955 37.657241 
L 202.117091 37.040025 
L 202.4595 38.486915 
L 202.573636 39.161331 
L 202.687773 38.770191 
L 202.801909 39.633096 
L 202.916045 39.168958 
L 203.030182 39.618932 
L 203.144318 39.233785 
L 203.486727 42.565009 
L 203.715 42.95288 
L 203.829136 42.793809 
L 204.057409 45.761132 
L 204.171545 45.669067 
L 204.285682 46.165346 
L 204.513955 50.61061 
L 204.628091 50.984862 
L 205.198773 61.856693 
L 205.427045 71.332297 
L 205.769455 97.41445 
L 206.111864 124.95929 
L 206.340136 129.122912 
L 206.568409 130.737589 
L 206.796682 134.811325 
L 206.910818 134.996545 
L 207.139091 132.58379 
L 207.253227 133.384047 
L 207.4815 130.917361 
L 207.709773 114.57938 
L 208.166318 80.680427 
L 208.965273 55.966173 
L 209.764227 43.753681 
L 209.878364 43.692123 
L 209.9925 43.421921 
L 210.334909 41.652531 
L 210.449045 39.623835 
L 210.563182 39.606947 
L 210.791455 38.625284 
L 211.019727 38.197646 
L 211.133864 37.952502 
L 211.248 38.197101 
L 211.362136 37.832655 
L 211.476273 38.029859 
L 211.704545 36.885857 
L 211.818682 36.938699 
L 211.932818 37.155514 
L 212.046955 37.014421 
L 212.275227 36.044743 
L 212.389364 36.228873 
L 212.5035 37.014966 
L 212.617636 36.944691 
L 212.845909 35.11102 
L 212.960045 36.739316 
L 213.074182 36.378683 
L 213.188318 37.035667 
L 213.302455 35.947231 
L 213.416591 36.347087 
L 213.530727 36.320393 
L 213.644864 36.585693 
L 213.759 35.583329 
L 213.873136 36.408645 
L 213.987273 35.946141 
L 214.101409 36.241403 
L 214.215545 35.84536 
L 214.329682 36.268641 
L 214.443818 37.572258 
L 214.672091 36.123734 
L 214.786227 36.815038 
L 214.900364 35.96085 
L 215.0145 35.958671 
L 215.128636 37.273728 
L 215.242773 36.117197 
L 215.471045 36.710988 
L 215.585182 36.986093 
L 215.699318 35.986454 
L 215.813455 38.159512 
L 215.927591 36.394481 
L 216.041727 37.276452 
L 216.155864 36.455494 
L 216.27 37.458403 
L 216.498273 36.20218 
L 216.726545 37.072166 
L 216.840682 36.251208 
L 216.954818 36.66087 
L 217.068955 37.620742 
L 217.297227 36.351445 
L 217.411364 36.780718 
L 217.5255 37.974293 
L 217.639636 37.688292 
L 217.753773 38.278815 
L 217.867909 38.01624 
L 217.982045 36.185292 
L 218.096182 36.873872 
L 218.210318 35.936335 
L 218.324455 37.0738 
L 218.438591 36.906013 
L 218.552727 37.864251 
L 218.666864 37.553736 
L 218.781 36.720794 
L 219.808227 43.72263 
L 219.922364 45.551398 
L 220.0365 45.037687 
L 220.264773 46.767854 
L 220.721318 56.81328 
L 220.949591 62.874855 
L 221.634409 75.364087 
L 221.976818 95.413536 
L 222.661636 170.62512 
L 222.889909 165.68739 
L 223.004045 165.935802 
L 223.346455 172.033332 
L 223.688864 162.118105 
L 223.803 162.425351 
L 223.917136 164.771644 
L 224.031273 163.441333 
L 224.259545 138.687857 
L 224.601955 105.165335 
L 225.286773 74.5878 
L 225.743318 58.168649 
L 226.314 47.025527 
L 227.112955 40.813052 
L 227.227091 40.233969 
L 227.341227 39.042028 
L 227.455364 39.533404 
L 227.683636 38.723342 
L 227.797773 37.101583 
L 227.911909 38.374149 
L 228.254318 36.428801 
L 228.368455 37.528677 
L 228.482591 36.975743 
L 228.596727 37.40774 
L 228.710864 37.297153 
L 228.825 35.743489 
L 228.939136 37.504707 
L 229.053273 36.878775 
L 229.167409 36.902745 
L 229.281545 37.183842 
L 229.395682 37.069442 
L 229.509818 37.487275 
L 229.623955 36.795971 
L 229.738091 37.279176 
L 229.966364 36.720794 
L 230.0805 36.592775 
L 230.194636 36.998623 
L 230.308773 36.957766 
L 230.422909 37.061271 
L 230.537045 35.66123 
L 230.651182 37.178939 
L 230.765318 36.665773 
L 230.879455 37.330928 
L 230.993591 36.239768 
L 231.107727 37.548833 
L 231.221864 36.167315 
L 231.450136 36.685384 
L 231.564273 36.287163 
L 231.792545 37.369606 
L 232.020818 36.482188 
L 232.134955 36.180389 
L 232.363227 36.86679 
L 232.5915 37.868609 
L 232.705636 37.920361 
L 232.819773 38.364888 
L 232.933909 37.801058 
L 233.162182 38.20037 
L 233.276318 37.553736 
L 233.390455 39.025685 
L 233.504591 37.944331 
L 233.618727 38.644896 
L 233.732864 36.86788 
L 234.075273 39.178763 
L 234.303545 37.862072 
L 234.417682 37.978651 
L 234.645955 38.412827 
L 234.760091 37.456768 
L 234.874227 37.530311 
L 234.988364 38.447692 
L 235.216636 37.393031 
L 235.330773 37.148433 
L 235.444909 38.188929 
L 235.559045 36.82212 
L 235.673182 36.885857 
L 235.787318 37.347271 
L 235.901455 37.311317 
L 236.129727 36.596043 
L 236.243864 36.810135 
L 236.358 38.069626 
L 236.472136 37.415366 
L 236.586273 37.550468 
L 236.814545 36.971929 
L 236.928682 36.969206 
L 237.042818 35.606754 
L 237.156955 36.434249 
L 237.385227 36.123734 
L 237.499364 36.992086 
L 237.6135 36.200001 
L 237.841773 37.224699 
L 237.955909 36.655422 
L 238.184182 38.473296 
L 238.298318 37.945965 
L 238.412455 38.677037 
L 238.526591 38.023866 
L 238.640727 39.465309 
L 238.754864 39.233785 
L 238.869 40.420278 
L 239.097273 39.364528 
L 239.211409 39.415191 
L 239.325545 39.853725 
L 239.439682 39.254485 
L 239.667955 40.775463 
L 239.782091 39.91038 
L 239.896227 39.908746 
L 240.010364 41.479297 
L 240.1245 39.851546 
L 240.238636 39.926178 
L 240.352773 40.200738 
L 240.581045 41.347464 
L 240.695182 39.695743 
L 240.923455 40.710636 
L 241.037591 38.745677 
L 241.151727 39.133548 
L 241.265864 37.384315 
L 241.494136 40.075988 
L 241.722409 39.501808 
L 241.836545 40.082525 
L 242.178955 39.443518 
L 242.293091 38.401387 
L 242.977909 40.665421 
L 243.206182 43.633289 
L 243.320318 42.583531 
L 243.434455 43.183859 
L 243.548591 45.275749 
L 243.662727 43.96396 
L 243.776864 46.899142 
L 243.891 46.899142 
L 244.005136 47.587177 
L 244.575818 57.726847 
L 244.804091 59.233116 
L 244.918227 59.927688 
L 245.374773 69.423448 
L 245.717182 87.081389 
L 246.287864 128.72578 
L 246.630273 122.373301 
L 246.858545 129.165949 
L 246.972682 127.443953 
L 247.315091 119.866848 
L 247.429227 120.560331 
L 247.543364 123.169745 
L 247.6575 122.291587 
L 247.885773 103.782727 
L 248.228182 79.53588 
L 248.456455 74.24133 
L 248.570591 72.500269 
L 249.255409 53.165548 
L 249.369545 52.125051 
L 249.597818 48.965972 
L 249.711955 47.87808 
L 249.940227 45.287189 
L 250.054364 45.351471 
L 250.1685 43.804889 
L 250.282636 44.757134 
L 250.510909 42.877703 
L 250.625045 40.275916 
L 250.739182 40.355451 
L 250.967455 41.135551 
L 251.081591 39.77201 
L 251.309864 40.602229 
L 251.424 39.420093 
L 251.538136 39.70446 
L 251.766409 38.528861 
L 251.880545 39.204912 
L 251.994682 38.982104 
L 252.108818 39.36943 
L 252.222955 39.296432 
L 252.337091 38.945605 
L 252.451227 37.925264 
L 252.565364 38.044023 
L 252.6795 37.860982 
L 252.793636 38.490183 
L 252.907773 38.40629 
L 253.136045 37.675218 
L 253.250182 38.046202 
L 253.364318 37.41918 
L 253.478455 37.91328 
L 253.592591 36.462576 
L 253.706727 37.406105 
L 253.820864 36.795426 
L 253.935 37.527587 
L 254.049136 36.988272 
L 254.163273 37.37342 
L 254.277409 37.223065 
L 254.391545 38.337105 
L 254.505682 37.488909 
L 254.733955 37.976472 
L 254.848091 37.715531 
L 254.962227 38.139901 
L 255.076364 36.866245 
L 255.1905 37.084151 
L 255.304636 37.01551 
L 255.532909 38.686843 
L 255.647045 37.501984 
L 255.761182 38.903113 
L 255.875318 38.292434 
L 255.989455 39.883142 
L 256.217727 38.024956 
L 256.331864 38.449871 
L 256.446 39.92182 
L 256.560136 39.215807 
L 256.674273 40.340742 
L 256.902545 39.902753 
L 257.016682 40.318952 
L 257.130818 40.236148 
L 257.473227 43.499277 
L 257.587364 45.407036 
L 257.7015 45.194579 
L 257.929773 48.682695 
L 258.043909 48.241982 
L 258.728727 63.385842 
L 258.842864 64.460659 
L 258.957 64.143063 
L 259.527682 80.139477 
L 259.755955 93.616908 
L 260.098364 135.011253 
L 260.326636 163.332381 
L 260.440773 166.484378 
L 260.783182 157.945222 
L 261.125591 169.216364 
L 261.468 153.636148 
L 261.582136 155.198528 
L 261.696273 159.311487 
L 261.810409 157.395556 
L 262.038682 130.948412 
L 262.381091 93.63652 
L 262.7235 80.677158 
L 262.837636 78.069923 
L 263.180045 63.4839 
L 263.636591 54.706682 
L 263.979 48.194043 
L 264.093136 48.23381 
L 264.321409 47.413398 
L 264.435545 44.221633 
L 264.549682 44.173149 
L 264.663818 43.663795 
L 264.777955 41.571906 
L 264.892091 41.647628 
L 265.120364 41.154618 
L 265.2345 41.274466 
L 265.348636 39.762749 
L 265.462773 40.322221 
L 265.691045 39.404295 
L 265.805182 39.981744 
L 266.033455 38.731513 
L 266.147591 39.192383 
L 266.49 37.656696 
L 266.604136 38.445513 
L 266.718273 37.483462 
L 266.832409 38.833384 
L 267.060682 37.996083 
L 267.174818 36.403742 
L 267.288955 37.270459 
L 267.517227 36.224515 
L 267.859636 37.328204 
L 267.973773 36.12101 
L 268.087909 36.592775 
L 268.202045 35.656327 
L 268.316182 36.155875 
L 268.430318 35.931433 
L 268.544455 36.87823 
L 268.658591 36.345452 
L 268.772727 37.068897 
L 269.001 36.023497 
L 269.115136 35.406281 
L 269.229273 36.519232 
L 269.343409 36.48818 
L 269.457545 35.630179 
L 269.571682 35.940149 
L 269.685818 36.720249 
L 269.914091 35.538114 
L 270.028227 36.596588 
L 270.142364 36.229963 
L 270.2565 36.25938 
L 270.370636 37.275907 
L 270.484773 35.836644 
L 270.598909 37.044383 
L 270.713045 37.009518 
L 270.827182 37.093956 
L 270.941318 36.437517 
L 271.169591 37.769462 
L 271.397864 36.634177 
L 271.512 36.710443 
L 271.740273 36.565536 
L 271.854409 37.41809 
L 271.968545 37.405561 
L 272.082682 37.756388 
L 272.196818 37.495991 
L 272.310955 36.877685 
L 272.539227 37.399568 
L 272.653364 36.780718 
L 272.7675 38.052739 
L 272.881636 37.285168 
L 272.995773 37.570624 
L 273.338182 36.956131 
L 273.452318 37.115747 
L 273.566455 37.530311 
L 273.680591 36.283349 
L 273.794727 38.468938 
L 274.023 38.245585 
L 274.137136 38.116476 
L 274.251273 37.555915 
L 274.365409 37.565721 
L 274.479545 37.0738 
L 274.707818 37.826662 
L 274.821955 37.918182 
L 275.050227 37.230147 
L 275.164364 37.778178 
L 275.2785 37.361435 
L 275.506773 37.840281 
L 275.620909 37.534669 
L 275.735045 36.376504 
L 275.849182 37.292795 
L 275.963318 36.680481 
L 276.077455 36.755659 
L 276.191591 37.090143 
L 276.419864 36.857529 
L 276.534 37.881139 
L 276.762273 36.83356 
L 276.876409 36.953952 
L 276.990545 36.79815 
L 277.104682 36.405376 
L 277.218818 36.942512 
L 277.332955 35.336007 
L 277.675364 37.513424 
L 277.7895 35.413908 
L 277.903636 37.399023 
L 278.017773 37.043838 
L 278.131909 37.152791 
L 278.246045 36.431525 
L 278.474318 37.229602 
L 278.588455 36.838463 
L 278.702591 37.689927 
L 278.816727 37.679032 
L 278.930864 35.31803 
L 279.159136 37.082516 
L 279.273273 37.729694 
L 279.387409 35.940693 
L 279.501545 38.747311 
L 279.729818 37.586422 
L 279.958091 36.163501 
L 280.072227 38.545204 
L 280.186364 37.066173 
L 280.186364 37.066173 
" clip-path="url(#p723f1779d4)" style="fill: none; stroke: #1f77b4; stroke-width: 1.5; stroke-linecap: square"/>
   </g>
   <g id="patch_3">
    <path d="M 40.5 192.24 
L 40.5 25.92 
" style="fill: none; stroke: #000000; stroke-width: 0.8; stroke-linejoin: miter; stroke-linecap: square"/>
   </g>
   <g id="patch_4">
    <path d="M 291.6 192.24 
L 291.6 25.92 
" style="fill: none; stroke: #000000; stroke-width: 0.8; stroke-linejoin: miter; stroke-linecap: square"/>
   </g>
   <g id="patch_5">
    <path d="M 40.5 192.24 
L 291.6 192.24 
" style="fill: none; stroke: #000000; stroke-width: 0.8; stroke-linejoin: miter; stroke-linecap: square"/>
   </g>
   <g id="patch_6">
    <path d="M 40.5 25.92 
L 291.6 25.92 
" style="fill: none; stroke: #000000; stroke-width: 0.8; stroke-linejoin: miter; stroke-linecap: square"/>
   </g>
  </g>
 </g>
 <defs>
  <clipPath id="p723f1779d4">
   <rect x="40.5" y="25.92" width="251.1" height="166.32"/>
  </clipPath>
 </defs>
</svg>
