<?xml version="1.0" encoding="utf-8" standalone="no"?>
<!DOCTYPE svg PUBLIC "-//W3C//DTD SVG 1.1//EN"
  "http://www.w3.org/Graphics/SVG/1.1/DTD/svg11.dtd">
<svg xmlns:xlink="http://www.w3.org/1999/xlink" width="432pt" height="288pt" viewBox="0 0 432 288" xmlns="http://www.w3.org/2000/svg" version="1.1">
 <metadata>
  <rdf:RDF xmlns:dc="http://purl.org/dc/elements/1.1/" xmlns:cc="http://creativecommons.org/ns#" xmlns:rdf="http://www.w3.org/1999/02/22-rdf-syntax-ns#">
   <cc:Work>
    <dc:type rdf:resource="http://purl.org/dc/dcmitype/StillImage"/>
    <dc:date>2022-11-04T19:05:21.231513</dc:date>
    <dc:format>image/svg+xml</dc:format>
    <dc:creator>
     <cc:Agent>
      <dc:title>Matplotlib v3.5.1, https://matplotlib.org/</dc:title>
     </cc:Agent>
    </dc:creator>
   </cc:Work>
  </rdf:RDF>
 </metadata>
 <defs>
  <style type="text/css">*{stroke-linejoin: round; stroke-linecap: butt}</style>
 </defs>
 <g id="figure_1">
  <g id="patch_1">
   <path d="M 0 288 
L 432 288 
L 432 0 
L 0 0 
z
" style="fill: #ffffff"/>
  </g>
  <g id="axes_1">
   <g id="patch_2">
    <path d="M 54 256.32 
L 388.8 256.32 
L 388.8 34.56 
L 54 34.56 
z
" style="fill: #ffffff"/>
   </g>
   <g id="matplotlib.axis_1">
    <g id="xtick_1">
     <g id="line2d_1">
      <defs>
       <path id="m92e6556378" d="M 0 0 
L 0 3.5 
" style="stroke: #000000; stroke-width: 0.8"/>
      </defs>
      <g>
       <use xlink:href="#m92e6556378" x="69.218182" y="256.32" style="stroke: #000000; stroke-width: 0.8"/>
      </g>
     </g>
     <g id="text_1">
      <!-- 2660 -->
      <g transform="translate(48.858182 275.4775)scale(0.16 -0.16)">
       <defs>
        <path id="DejaVuSans-32" d="M 1228 531 
L 3431 531 
L 3431 0 
L 469 0 
L 469 531 
Q 828 903 1448 1529 
Q 2069 2156 2228 2338 
Q 2531 2678 2651 2914 
Q 2772 3150 2772 3378 
Q 2772 3750 2511 3984 
Q 2250 4219 1831 4219 
Q 1534 4219 1204 4116 
Q 875 4013 500 3803 
L 500 4441 
Q 881 4594 1212 4672 
Q 1544 4750 1819 4750 
Q 2544 4750 2975 4387 
Q 3406 4025 3406 3419 
Q 3406 3131 3298 2873 
Q 3191 2616 2906 2266 
Q 2828 2175 2409 1742 
Q 1991 1309 1228 531 
z
" transform="scale(0.015625)"/>
        <path id="DejaVuSans-36" d="M 2113 2584 
Q 1688 2584 1439 2293 
Q 1191 2003 1191 1497 
Q 1191 994 1439 701 
Q 1688 409 2113 409 
Q 2538 409 2786 701 
Q 3034 994 3034 1497 
Q 3034 2003 2786 2293 
Q 2538 2584 2113 2584 
z
M 3366 4563 
L 3366 3988 
Q 3128 4100 2886 4159 
Q 2644 4219 2406 4219 
Q 1781 4219 1451 3797 
Q 1122 3375 1075 2522 
Q 1259 2794 1537 2939 
Q 1816 3084 2150 3084 
Q 2853 3084 3261 2657 
Q 3669 2231 3669 1497 
Q 3669 778 3244 343 
Q 2819 -91 2113 -91 
Q 1303 -91 875 529 
Q 447 1150 447 2328 
Q 447 3434 972 4092 
Q 1497 4750 2381 4750 
Q 2619 4750 2861 4703 
Q 3103 4656 3366 4563 
z
" transform="scale(0.015625)"/>
        <path id="DejaVuSans-30" d="M 2034 4250 
Q 1547 4250 1301 3770 
Q 1056 3291 1056 2328 
Q 1056 1369 1301 889 
Q 1547 409 2034 409 
Q 2525 409 2770 889 
Q 3016 1369 3016 2328 
Q 3016 3291 2770 3770 
Q 2525 4250 2034 4250 
z
M 2034 4750 
Q 2819 4750 3233 4129 
Q 3647 3509 3647 2328 
Q 3647 1150 3233 529 
Q 2819 -91 2034 -91 
Q 1250 -91 836 529 
Q 422 1150 422 2328 
Q 422 3509 836 4129 
Q 1250 4750 2034 4750 
z
" transform="scale(0.015625)"/>
       </defs>
       <use xlink:href="#DejaVuSans-32"/>
       <use xlink:href="#DejaVuSans-36" x="63.623047"/>
       <use xlink:href="#DejaVuSans-36" x="127.246094"/>
       <use xlink:href="#DejaVuSans-30" x="190.869141"/>
      </g>
     </g>
    </g>
    <g id="xtick_2">
     <g id="line2d_2">
      <g>
       <use xlink:href="#m92e6556378" x="156.179221" y="256.32" style="stroke: #000000; stroke-width: 0.8"/>
      </g>
     </g>
     <g id="text_2">
      <!-- 2680 -->
      <g transform="translate(135.819221 275.4775)scale(0.16 -0.16)">
       <defs>
        <path id="DejaVuSans-38" d="M 2034 2216 
Q 1584 2216 1326 1975 
Q 1069 1734 1069 1313 
Q 1069 891 1326 650 
Q 1584 409 2034 409 
Q 2484 409 2743 651 
Q 3003 894 3003 1313 
Q 3003 1734 2745 1975 
Q 2488 2216 2034 2216 
z
M 1403 2484 
Q 997 2584 770 2862 
Q 544 3141 544 3541 
Q 544 4100 942 4425 
Q 1341 4750 2034 4750 
Q 2731 4750 3128 4425 
Q 3525 4100 3525 3541 
Q 3525 3141 3298 2862 
Q 3072 2584 2669 2484 
Q 3125 2378 3379 2068 
Q 3634 1759 3634 1313 
Q 3634 634 3220 271 
Q 2806 -91 2034 -91 
Q 1263 -91 848 271 
Q 434 634 434 1313 
Q 434 1759 690 2068 
Q 947 2378 1403 2484 
z
M 1172 3481 
Q 1172 3119 1398 2916 
Q 1625 2713 2034 2713 
Q 2441 2713 2670 2916 
Q 2900 3119 2900 3481 
Q 2900 3844 2670 4047 
Q 2441 4250 2034 4250 
Q 1625 4250 1398 4047 
Q 1172 3844 1172 3481 
z
" transform="scale(0.015625)"/>
       </defs>
       <use xlink:href="#DejaVuSans-32"/>
       <use xlink:href="#DejaVuSans-36" x="63.623047"/>
       <use xlink:href="#DejaVuSans-38" x="127.246094"/>
       <use xlink:href="#DejaVuSans-30" x="190.869141"/>
      </g>
     </g>
    </g>
    <g id="xtick_3">
     <g id="line2d_3">
      <g>
       <use xlink:href="#m92e6556378" x="243.14026" y="256.32" style="stroke: #000000; stroke-width: 0.8"/>
      </g>
     </g>
     <g id="text_3">
      <!-- 2700 -->
      <g transform="translate(222.78026 275.4775)scale(0.16 -0.16)">
       <defs>
        <path id="DejaVuSans-37" d="M 525 4666 
L 3525 4666 
L 3525 4397 
L 1831 0 
L 1172 0 
L 2766 4134 
L 525 4134 
L 525 4666 
z
" transform="scale(0.015625)"/>
       </defs>
       <use xlink:href="#DejaVuSans-32"/>
       <use xlink:href="#DejaVuSans-37" x="63.623047"/>
       <use xlink:href="#DejaVuSans-30" x="127.246094"/>
       <use xlink:href="#DejaVuSans-30" x="190.869141"/>
      </g>
     </g>
    </g>
    <g id="xtick_4">
     <g id="line2d_4">
      <g>
       <use xlink:href="#m92e6556378" x="330.101299" y="256.32" style="stroke: #000000; stroke-width: 0.8"/>
      </g>
     </g>
     <g id="text_4">
      <!-- 2720 -->
      <g transform="translate(309.741299 275.4775)scale(0.16 -0.16)">
       <use xlink:href="#DejaVuSans-32"/>
       <use xlink:href="#DejaVuSans-37" x="63.623047"/>
       <use xlink:href="#DejaVuSans-32" x="127.246094"/>
       <use xlink:href="#DejaVuSans-30" x="190.869141"/>
      </g>
     </g>
    </g>
   </g>
   <g id="matplotlib.axis_2">
    <g id="ytick_1">
     <g id="line2d_5">
      <defs>
       <path id="m04da8a1786" d="M 0 0 
L -3.5 0 
" style="stroke: #000000; stroke-width: 0.8"/>
      </defs>
      <g>
       <use xlink:href="#m04da8a1786" x="54" y="203.203543" style="stroke: #000000; stroke-width: 0.8"/>
      </g>
     </g>
     <g id="text_5">
      <!-- 0.998 -->
      <g transform="translate(1.195 209.282293)scale(0.16 -0.16)">
       <defs>
        <path id="DejaVuSans-2e" d="M 684 794 
L 1344 794 
L 1344 0 
L 684 0 
L 684 794 
z
" transform="scale(0.015625)"/>
        <path id="DejaVuSans-39" d="M 703 97 
L 703 672 
Q 941 559 1184 500 
Q 1428 441 1663 441 
Q 2288 441 2617 861 
Q 2947 1281 2994 2138 
Q 2813 1869 2534 1725 
Q 2256 1581 1919 1581 
Q 1219 1581 811 2004 
Q 403 2428 403 3163 
Q 403 3881 828 4315 
Q 1253 4750 1959 4750 
Q 2769 4750 3195 4129 
Q 3622 3509 3622 2328 
Q 3622 1225 3098 567 
Q 2575 -91 1691 -91 
Q 1453 -91 1209 -44 
Q 966 3 703 97 
z
M 1959 2075 
Q 2384 2075 2632 2365 
Q 2881 2656 2881 3163 
Q 2881 3666 2632 3958 
Q 2384 4250 1959 4250 
Q 1534 4250 1286 3958 
Q 1038 3666 1038 3163 
Q 1038 2656 1286 2365 
Q 1534 2075 1959 2075 
z
" transform="scale(0.015625)"/>
       </defs>
       <use xlink:href="#DejaVuSans-30"/>
       <use xlink:href="#DejaVuSans-2e" x="63.623047"/>
       <use xlink:href="#DejaVuSans-39" x="95.410156"/>
       <use xlink:href="#DejaVuSans-39" x="159.033203"/>
       <use xlink:href="#DejaVuSans-38" x="222.65625"/>
      </g>
     </g>
    </g>
    <g id="ytick_2">
     <g id="line2d_6">
      <g>
       <use xlink:href="#m04da8a1786" x="54" y="123.921771" style="stroke: #000000; stroke-width: 0.8"/>
      </g>
     </g>
     <g id="text_6">
      <!-- 0.999 -->
      <g transform="translate(1.195 130.000521)scale(0.16 -0.16)">
       <use xlink:href="#DejaVuSans-30"/>
       <use xlink:href="#DejaVuSans-2e" x="63.623047"/>
       <use xlink:href="#DejaVuSans-39" x="95.410156"/>
       <use xlink:href="#DejaVuSans-39" x="159.033203"/>
       <use xlink:href="#DejaVuSans-39" x="222.65625"/>
      </g>
     </g>
    </g>
    <g id="ytick_3">
     <g id="line2d_7">
      <g>
       <use xlink:href="#m04da8a1786" x="54" y="44.64" style="stroke: #000000; stroke-width: 0.8"/>
      </g>
     </g>
     <g id="text_7">
      <!-- 1.000 -->
      <g transform="translate(1.195 50.71875)scale(0.16 -0.16)">
       <defs>
        <path id="DejaVuSans-31" d="M 794 531 
L 1825 531 
L 1825 4091 
L 703 3866 
L 703 4441 
L 1819 4666 
L 2450 4666 
L 2450 531 
L 3481 531 
L 3481 0 
L 794 0 
L 794 531 
z
" transform="scale(0.015625)"/>
       </defs>
       <use xlink:href="#DejaVuSans-31"/>
       <use xlink:href="#DejaVuSans-2e" x="63.623047"/>
       <use xlink:href="#DejaVuSans-30" x="95.410156"/>
       <use xlink:href="#DejaVuSans-30" x="159.033203"/>
       <use xlink:href="#DejaVuSans-30" x="222.65625"/>
      </g>
     </g>
    </g>
   </g>
   <g id="line2d_8">
    <path d="M 69.218182 61.222734 
L 70.232727 49.106867 
L 71.247273 62.669631 
L 72.261818 53.340028 
L 73.276364 53.130169 
L 74.290909 56.179189 
L 75.305455 51.48989 
L 76.32 57.336591 
L 77.334545 58.21953 
L 78.349091 53.794288 
L 79.363636 64.055392 
L 80.378182 49.399686 
L 81.392727 56.559883 
L 82.407273 58.212303 
L 83.421818 44.64 
L 84.436364 61.422186 
L 85.450909 57.02137 
L 86.465455 53.350578 
L 87.48 63.891205 
L 88.494545 50.955993 
L 90.523636 59.00173 
L 91.538182 51.751635 
L 92.552727 58.8955 
L 93.567273 57.403509 
L 94.581818 54.890409 
L 95.596364 55.491801 
L 96.610909 55.042022 
L 97.625455 53.680831 
L 98.64 56.094494 
L 100.669091 57.711071 
L 101.683636 51.887783 
L 102.698182 59.664403 
L 103.712727 53.739944 
L 104.727273 51.942849 
L 105.741818 60.595615 
L 106.756364 51.392042 
L 107.770909 58.211002 
L 108.785455 57.951425 
L 109.8 50.224957 
L 110.814545 56.699355 
L 111.829091 54.207357 
L 112.843636 54.2617 
L 113.858182 54.927842 
L 114.872727 58.865582 
L 115.887273 54.843725 
L 116.901818 57.144655 
L 117.916364 53.101985 
L 118.930909 53.393648 
L 119.945455 51.509257 
L 120.96 58.254217 
L 121.974545 54.371833 
L 122.989091 54.833753 
L 124.003636 58.998261 
L 125.018182 46.955238 
L 126.032727 59.756614 
L 127.047273 51.91929 
L 128.061818 52.642667 
L 129.076364 61.466413 
L 130.090909 50.608975 
L 131.105455 60.363788 
L 132.12 53.823194 
L 133.134545 53.445246 
L 134.149091 57.054323 
L 135.163636 51.722006 
L 136.178182 59.683771 
L 137.192727 56.694441 
L 138.207273 54.864538 
L 139.221818 57.722778 
L 140.236364 53.053857 
L 141.250909 51.890095 
L 142.265455 57.829152 
L 143.28 50.377726 
L 144.294545 61.150758 
L 145.309091 56.070791 
L 146.323636 53.961221 
L 147.338182 60.285308 
L 148.352727 48.672263 
L 149.367273 59.169964 
L 150.381818 57.121096 
L 151.396364 52.476023 
L 152.410909 60.836403 
L 153.425455 52.622143 
L 154.44 57.439064 
L 155.454545 56.684613 
L 156.469091 53.094325 
L 157.483636 58.595743 
L 158.498182 56.041596 
L 159.512727 59.693454 
L 160.527273 60.541705 
L 161.541818 56.400321 
L 162.556364 57.220244 
L 163.570909 57.695028 
L 164.585455 55.37343 
L 165.6 61.239355 
L 166.614545 55.853128 
L 167.629091 64.122454 
L 168.643636 62.601413 
L 169.658182 58.253784 
L 170.672727 63.66487 
L 171.687273 60.964891 
L 172.701818 61.011285 
L 173.716364 67.272357 
L 174.730909 66.998905 
L 175.745455 67.399978 
L 176.76 70.901524 
L 177.774545 67.373962 
L 180.818182 73.861658 
L 181.832727 76.425633 
L 182.847273 76.710069 
L 183.861818 79.413228 
L 184.876364 78.271146 
L 185.890909 80.450814 
L 186.905455 83.559381 
L 187.92 84.267726 
L 188.934545 88.154736 
L 189.949091 88.758296 
L 190.963636 95.082672 
L 191.978182 91.08553 
L 192.992727 98.327387 
L 195.021818 104.207476 
L 196.036364 112.406271 
L 197.050909 116.354851 
L 198.065455 119.497382 
L 199.08 125.382963 
L 201.109091 132.557469 
L 202.123636 148.977317 
L 203.138182 146.772934 
L 204.152727 163.368098 
L 205.167273 169.147015 
L 206.181818 171.289105 
L 207.196364 191.964372 
L 208.210909 187.286345 
L 209.225455 207.020572 
L 210.24 176.594684 
L 211.254545 220.938738 
L 212.269091 229.591649 
L 213.283636 228.790226 
L 214.298182 234.617416 
L 215.312727 236.225176 
L 216.327273 236.809514 
L 217.341818 242.208604 
L 218.356364 238.622218 
L 219.370909 246.24 
L 220.385455 244.000641 
L 221.4 239.449512 
L 222.414545 245.998778 
L 223.429091 236.799686 
L 224.443636 238.464102 
L 225.458182 239.79046 
L 226.472727 230.719278 
L 227.487273 235.945943 
L 228.501818 221.444017 
L 229.516364 225.382769 
L 230.530909 218.787398 
L 231.545455 208.304439 
L 232.56 212.422264 
L 233.574545 192.611147 
L 234.589091 191.532369 
L 236.618182 160.314019 
L 237.632727 159.858458 
L 238.647273 143.454653 
L 239.661818 147.87368 
L 240.676364 139.596405 
L 241.690909 127.777693 
L 242.705455 130.263622 
L 243.72 111.57045 
L 244.734545 111.062569 
L 245.749091 111.891019 
L 246.763636 100.107572 
L 247.778182 105.890681 
L 248.792727 97.064767 
L 249.807273 90.850668 
L 250.821818 95.818623 
L 251.836364 81.824579 
L 252.850909 90.293791 
L 253.865455 80.52149 
L 254.88 80.819512 
L 255.894545 82.993399 
L 256.909091 76.343395 
L 257.923636 77.946241 
L 258.938182 71.007609 
L 259.952727 76.336458 
L 260.967273 73.592541 
L 261.981818 68.662454 
L 262.996364 73.990579 
L 264.010909 66.280443 
L 266.04 67.905691 
L 267.054545 61.191804 
L 268.069091 67.277416 
L 269.083636 68.463868 
L 270.098182 62.673244 
L 271.112727 71.792411 
L 272.127273 58.970511 
L 273.141818 63.510655 
L 274.156364 62.73626 
L 275.170909 55.20115 
L 276.185455 67.389427 
L 277.2 61.24687 
L 278.214545 59.255815 
L 279.229091 64.612558 
L 280.243636 56.838972 
L 281.258182 60.983536 
L 282.272727 60.376073 
L 283.287273 57.99146 
L 284.301818 61.564838 
L 285.316364 58.263612 
L 286.330909 60.545029 
L 287.345455 59.109116 
L 288.36 59.607747 
L 289.374545 61.671791 
L 290.389091 57.637649 
L 291.403636 60.061718 
L 292.418182 61.179953 
L 293.432727 55.757738 
L 294.447273 62.364238 
L 295.461818 51.194035 
L 296.476364 63.397054 
L 297.490909 56.375028 
L 299.52 63.165661 
L 300.534545 57.447013 
L 301.549091 60.967059 
L 302.563636 54.775796 
L 303.578182 56.897652 
L 304.592727 63.742916 
L 305.607273 57.690547 
L 306.621818 63.668049 
L 307.636364 61.320581 
L 308.650909 54.681706 
L 309.665455 60.227495 
L 310.68 55.072951 
L 311.694545 56.78564 
L 312.709091 64.033568 
L 313.723636 56.31924 
L 314.738182 64.412961 
L 315.752727 57.154772 
L 316.767273 53.910346 
L 317.781818 62.856943 
L 318.796364 52.570835 
L 319.810909 64.441144 
L 320.825455 58.583747 
L 321.84 58.185131 
L 322.854545 61.033688 
L 323.869091 52.368781 
L 324.883636 57.852711 
L 325.898182 59.050581 
L 326.912727 52.134352 
L 327.927273 62.89322 
L 328.941818 56.726527 
L 329.956364 53.348844 
L 330.970909 61.107109 
L 331.985455 48.086191 
L 333 57.423743 
L 334.014545 58.908508 
L 335.029091 53.750784 
L 336.043636 66.113509 
L 337.058182 54.870608 
L 338.072727 58.605282 
L 339.087273 56.180924 
L 340.101818 49.693662 
L 341.116364 59.935977 
L 342.130909 53.865541 
L 344.16 60.50485 
L 345.174545 54.903417 
L 346.189091 55.944327 
L 347.203636 59.972977 
L 348.218182 52.990552 
L 349.232727 59.62697 
L 350.247273 56.487329 
L 351.261818 59.668306 
L 352.276364 56.122389 
L 353.290909 55.46911 
L 354.305455 58.802422 
L 355.32 52.450296 
L 356.334545 62.60994 
L 357.349091 56.603965 
L 358.363636 55.276884 
L 359.378182 65.931979 
L 360.392727 50.082594 
L 361.407273 61.662685 
L 362.421818 54.936803 
L 363.436364 53.98926 
L 364.450909 63.388816 
L 365.465455 56.822929 
L 366.48 59.611939 
L 367.494545 61.883673 
L 368.509091 53.900518 
L 369.523636 59.421736 
L 370.538182 53.565062 
L 371.552727 59.733056 
L 372.567273 61.682342 
L 373.581818 53.705979 
L 373.581818 53.705979 
" clip-path="url(#p2675e7540d)" style="fill: none; stroke: #1f77b4; stroke-width: 1.5; stroke-linecap: square"/>
   </g>
   <g id="patch_3">
    <path d="M 54 256.32 
L 54 34.56 
" style="fill: none; stroke: #000000; stroke-width: 0.8; stroke-linejoin: miter; stroke-linecap: square"/>
   </g>
   <g id="patch_4">
    <path d="M 388.8 256.32 
L 388.8 34.56 
" style="fill: none; stroke: #000000; stroke-width: 0.8; stroke-linejoin: miter; stroke-linecap: square"/>
   </g>
   <g id="patch_5">
    <path d="M 54 256.32 
L 388.8 256.32 
" style="fill: none; stroke: #000000; stroke-width: 0.8; stroke-linejoin: miter; stroke-linecap: square"/>
   </g>
   <g id="patch_6">
    <path d="M 54 34.56 
L 388.8 34.56 
" style="fill: none; stroke: #000000; stroke-width: 0.8; stroke-linejoin: miter; stroke-linecap: square"/>
   </g>
  </g>
 </g>
 <defs>
  <clipPath id="p2675e7540d">
   <rect x="54" y="34.56" width="334.8" height="221.76"/>
  </clipPath>
 </defs>
</svg>
