<?xml version="1.0" encoding="utf-8" standalone="no"?>
<!DOCTYPE svg PUBLIC "-//W3C//DTD SVG 1.1//EN"
  "http://www.w3.org/Graphics/SVG/1.1/DTD/svg11.dtd">
<svg xmlns:xlink="http://www.w3.org/1999/xlink" width="432pt" height="288pt" viewBox="0 0 432 288" xmlns="http://www.w3.org/2000/svg" version="1.1">
 <metadata>
  <rdf:RDF xmlns:dc="http://purl.org/dc/elements/1.1/" xmlns:cc="http://creativecommons.org/ns#" xmlns:rdf="http://www.w3.org/1999/02/22-rdf-syntax-ns#">
   <cc:Work>
    <dc:type rdf:resource="http://purl.org/dc/dcmitype/StillImage"/>
    <dc:date>2022-11-04T19:03:32.054964</dc:date>
    <dc:format>image/svg+xml</dc:format>
    <dc:creator>
     <cc:Agent>
      <dc:title>Matplotlib v3.5.1, https://matplotlib.org/</dc:title>
     </cc:Agent>
    </dc:creator>
   </cc:Work>
  </rdf:RDF>
 </metadata>
 <defs>
  <style type="text/css">*{stroke-linejoin: round; stroke-linecap: butt}</style>
 </defs>
 <g id="figure_1">
  <g id="patch_1">
   <path d="M 0 288 
L 432 288 
L 432 0 
L 0 0 
z
" style="fill: #ffffff"/>
  </g>
  <g id="axes_1">
   <g id="patch_2">
    <path d="M 54 256.32 
L 388.8 256.32 
L 388.8 34.56 
L 54 34.56 
z
" style="fill: #ffffff"/>
   </g>
   <g id="matplotlib.axis_1">
    <g id="xtick_1">
     <g id="line2d_1">
      <defs>
       <path id="me07206174a" d="M 0 0 
L 0 3.5 
" style="stroke: #000000; stroke-width: 0.8"/>
      </defs>
      <g>
       <use xlink:href="#me07206174a" x="69.218182" y="256.32" style="stroke: #000000; stroke-width: 0.8"/>
      </g>
     </g>
     <g id="text_1">
      <!-- 2660 -->
      <g transform="translate(48.858182 275.4775)scale(0.16 -0.16)">
       <defs>
        <path id="DejaVuSans-32" d="M 1228 531 
L 3431 531 
L 3431 0 
L 469 0 
L 469 531 
Q 828 903 1448 1529 
Q 2069 2156 2228 2338 
Q 2531 2678 2651 2914 
Q 2772 3150 2772 3378 
Q 2772 3750 2511 3984 
Q 2250 4219 1831 4219 
Q 1534 4219 1204 4116 
Q 875 4013 500 3803 
L 500 4441 
Q 881 4594 1212 4672 
Q 1544 4750 1819 4750 
Q 2544 4750 2975 4387 
Q 3406 4025 3406 3419 
Q 3406 3131 3298 2873 
Q 3191 2616 2906 2266 
Q 2828 2175 2409 1742 
Q 1991 1309 1228 531 
z
" transform="scale(0.015625)"/>
        <path id="DejaVuSans-36" d="M 2113 2584 
Q 1688 2584 1439 2293 
Q 1191 2003 1191 1497 
Q 1191 994 1439 701 
Q 1688 409 2113 409 
Q 2538 409 2786 701 
Q 3034 994 3034 1497 
Q 3034 2003 2786 2293 
Q 2538 2584 2113 2584 
z
M 3366 4563 
L 3366 3988 
Q 3128 4100 2886 4159 
Q 2644 4219 2406 4219 
Q 1781 4219 1451 3797 
Q 1122 3375 1075 2522 
Q 1259 2794 1537 2939 
Q 1816 3084 2150 3084 
Q 2853 3084 3261 2657 
Q 3669 2231 3669 1497 
Q 3669 778 3244 343 
Q 2819 -91 2113 -91 
Q 1303 -91 875 529 
Q 447 1150 447 2328 
Q 447 3434 972 4092 
Q 1497 4750 2381 4750 
Q 2619 4750 2861 4703 
Q 3103 4656 3366 4563 
z
" transform="scale(0.015625)"/>
        <path id="DejaVuSans-30" d="M 2034 4250 
Q 1547 4250 1301 3770 
Q 1056 3291 1056 2328 
Q 1056 1369 1301 889 
Q 1547 409 2034 409 
Q 2525 409 2770 889 
Q 3016 1369 3016 2328 
Q 3016 3291 2770 3770 
Q 2525 4250 2034 4250 
z
M 2034 4750 
Q 2819 4750 3233 4129 
Q 3647 3509 3647 2328 
Q 3647 1150 3233 529 
Q 2819 -91 2034 -91 
Q 1250 -91 836 529 
Q 422 1150 422 2328 
Q 422 3509 836 4129 
Q 1250 4750 2034 4750 
z
" transform="scale(0.015625)"/>
       </defs>
       <use xlink:href="#DejaVuSans-32"/>
       <use xlink:href="#DejaVuSans-36" x="63.623047"/>
       <use xlink:href="#DejaVuSans-36" x="127.246094"/>
       <use xlink:href="#DejaVuSans-30" x="190.869141"/>
      </g>
     </g>
    </g>
    <g id="xtick_2">
     <g id="line2d_2">
      <g>
       <use xlink:href="#me07206174a" x="156.179221" y="256.32" style="stroke: #000000; stroke-width: 0.8"/>
      </g>
     </g>
     <g id="text_2">
      <!-- 2680 -->
      <g transform="translate(135.819221 275.4775)scale(0.16 -0.16)">
       <defs>
        <path id="DejaVuSans-38" d="M 2034 2216 
Q 1584 2216 1326 1975 
Q 1069 1734 1069 1313 
Q 1069 891 1326 650 
Q 1584 409 2034 409 
Q 2484 409 2743 651 
Q 3003 894 3003 1313 
Q 3003 1734 2745 1975 
Q 2488 2216 2034 2216 
z
M 1403 2484 
Q 997 2584 770 2862 
Q 544 3141 544 3541 
Q 544 4100 942 4425 
Q 1341 4750 2034 4750 
Q 2731 4750 3128 4425 
Q 3525 4100 3525 3541 
Q 3525 3141 3298 2862 
Q 3072 2584 2669 2484 
Q 3125 2378 3379 2068 
Q 3634 1759 3634 1313 
Q 3634 634 3220 271 
Q 2806 -91 2034 -91 
Q 1263 -91 848 271 
Q 434 634 434 1313 
Q 434 1759 690 2068 
Q 947 2378 1403 2484 
z
M 1172 3481 
Q 1172 3119 1398 2916 
Q 1625 2713 2034 2713 
Q 2441 2713 2670 2916 
Q 2900 3119 2900 3481 
Q 2900 3844 2670 4047 
Q 2441 4250 2034 4250 
Q 1625 4250 1398 4047 
Q 1172 3844 1172 3481 
z
" transform="scale(0.015625)"/>
       </defs>
       <use xlink:href="#DejaVuSans-32"/>
       <use xlink:href="#DejaVuSans-36" x="63.623047"/>
       <use xlink:href="#DejaVuSans-38" x="127.246094"/>
       <use xlink:href="#DejaVuSans-30" x="190.869141"/>
      </g>
     </g>
    </g>
    <g id="xtick_3">
     <g id="line2d_3">
      <g>
       <use xlink:href="#me07206174a" x="243.14026" y="256.32" style="stroke: #000000; stroke-width: 0.8"/>
      </g>
     </g>
     <g id="text_3">
      <!-- 2700 -->
      <g transform="translate(222.78026 275.4775)scale(0.16 -0.16)">
       <defs>
        <path id="DejaVuSans-37" d="M 525 4666 
L 3525 4666 
L 3525 4397 
L 1831 0 
L 1172 0 
L 2766 4134 
L 525 4134 
L 525 4666 
z
" transform="scale(0.015625)"/>
       </defs>
       <use xlink:href="#DejaVuSans-32"/>
       <use xlink:href="#DejaVuSans-37" x="63.623047"/>
       <use xlink:href="#DejaVuSans-30" x="127.246094"/>
       <use xlink:href="#DejaVuSans-30" x="190.869141"/>
      </g>
     </g>
    </g>
    <g id="xtick_4">
     <g id="line2d_4">
      <g>
       <use xlink:href="#me07206174a" x="330.101299" y="256.32" style="stroke: #000000; stroke-width: 0.8"/>
      </g>
     </g>
     <g id="text_4">
      <!-- 2720 -->
      <g transform="translate(309.741299 275.4775)scale(0.16 -0.16)">
       <use xlink:href="#DejaVuSans-32"/>
       <use xlink:href="#DejaVuSans-37" x="63.623047"/>
       <use xlink:href="#DejaVuSans-32" x="127.246094"/>
       <use xlink:href="#DejaVuSans-30" x="190.869141"/>
      </g>
     </g>
    </g>
   </g>
   <g id="matplotlib.axis_2">
    <g id="ytick_1">
     <g id="line2d_5">
      <defs>
       <path id="m552f94f97b" d="M 0 0 
L -3.5 0 
" style="stroke: #000000; stroke-width: 0.8"/>
      </defs>
      <g>
       <use xlink:href="#m552f94f97b" x="54" y="240.967967" style="stroke: #000000; stroke-width: 0.8"/>
      </g>
     </g>
     <g id="text_5">
      <!-- −1.0 -->
      <g transform="translate(8.1475 247.046717)scale(0.16 -0.16)">
       <defs>
        <path id="DejaVuSans-2212" d="M 678 2272 
L 4684 2272 
L 4684 1741 
L 678 1741 
L 678 2272 
z
" transform="scale(0.015625)"/>
        <path id="DejaVuSans-31" d="M 794 531 
L 1825 531 
L 1825 4091 
L 703 3866 
L 703 4441 
L 1819 4666 
L 2450 4666 
L 2450 531 
L 3481 531 
L 3481 0 
L 794 0 
L 794 531 
z
" transform="scale(0.015625)"/>
        <path id="DejaVuSans-2e" d="M 684 794 
L 1344 794 
L 1344 0 
L 684 0 
L 684 794 
z
" transform="scale(0.015625)"/>
       </defs>
       <use xlink:href="#DejaVuSans-2212"/>
       <use xlink:href="#DejaVuSans-31" x="83.789062"/>
       <use xlink:href="#DejaVuSans-2e" x="147.412109"/>
       <use xlink:href="#DejaVuSans-30" x="179.199219"/>
      </g>
     </g>
    </g>
    <g id="ytick_2">
     <g id="line2d_6">
      <g>
       <use xlink:href="#m552f94f97b" x="54" y="191.885975" style="stroke: #000000; stroke-width: 0.8"/>
      </g>
     </g>
     <g id="text_6">
      <!-- −0.5 -->
      <g transform="translate(8.1475 197.964725)scale(0.16 -0.16)">
       <defs>
        <path id="DejaVuSans-35" d="M 691 4666 
L 3169 4666 
L 3169 4134 
L 1269 4134 
L 1269 2991 
Q 1406 3038 1543 3061 
Q 1681 3084 1819 3084 
Q 2600 3084 3056 2656 
Q 3513 2228 3513 1497 
Q 3513 744 3044 326 
Q 2575 -91 1722 -91 
Q 1428 -91 1123 -41 
Q 819 9 494 109 
L 494 744 
Q 775 591 1075 516 
Q 1375 441 1709 441 
Q 2250 441 2565 725 
Q 2881 1009 2881 1497 
Q 2881 1984 2565 2268 
Q 2250 2553 1709 2553 
Q 1456 2553 1204 2497 
Q 953 2441 691 2322 
L 691 4666 
z
" transform="scale(0.015625)"/>
       </defs>
       <use xlink:href="#DejaVuSans-2212"/>
       <use xlink:href="#DejaVuSans-30" x="83.789062"/>
       <use xlink:href="#DejaVuSans-2e" x="147.412109"/>
       <use xlink:href="#DejaVuSans-35" x="179.199219"/>
      </g>
     </g>
    </g>
    <g id="ytick_3">
     <g id="line2d_7">
      <g>
       <use xlink:href="#m552f94f97b" x="54" y="142.803984" style="stroke: #000000; stroke-width: 0.8"/>
      </g>
     </g>
     <g id="text_7">
      <!-- 0.0 -->
      <g transform="translate(21.555 148.882734)scale(0.16 -0.16)">
       <use xlink:href="#DejaVuSans-30"/>
       <use xlink:href="#DejaVuSans-2e" x="63.623047"/>
       <use xlink:href="#DejaVuSans-30" x="95.410156"/>
      </g>
     </g>
    </g>
    <g id="ytick_4">
     <g id="line2d_8">
      <g>
       <use xlink:href="#m552f94f97b" x="54" y="93.721992" style="stroke: #000000; stroke-width: 0.8"/>
      </g>
     </g>
     <g id="text_8">
      <!-- 0.5 -->
      <g transform="translate(21.555 99.800742)scale(0.16 -0.16)">
       <use xlink:href="#DejaVuSans-30"/>
       <use xlink:href="#DejaVuSans-2e" x="63.623047"/>
       <use xlink:href="#DejaVuSans-35" x="95.410156"/>
      </g>
     </g>
    </g>
    <g id="ytick_5">
     <g id="line2d_9">
      <g>
       <use xlink:href="#m552f94f97b" x="54" y="44.64" style="stroke: #000000; stroke-width: 0.8"/>
      </g>
     </g>
     <g id="text_9">
      <!-- 1.0 -->
      <g transform="translate(21.555 50.71875)scale(0.16 -0.16)">
       <use xlink:href="#DejaVuSans-31"/>
       <use xlink:href="#DejaVuSans-2e" x="63.623047"/>
       <use xlink:href="#DejaVuSans-30" x="95.410156"/>
      </g>
     </g>
    </g>
   </g>
   <g id="line2d_10">
    <path d="M 69.218182 142.182504 
L 70.232727 143.705543 
L 71.247273 143.822812 
L 72.261818 142.747416 
L 73.276364 144.013157 
L 74.290909 144.206447 
L 75.305455 143.014972 
L 77.334545 144.468708 
L 78.349091 143.760217 
L 79.363636 143.847049 
L 80.378182 145.033512 
L 81.392727 143.186007 
L 82.407273 143.913389 
L 83.421818 143.629342 
L 84.436364 143.605234 
L 85.450909 144.573166 
L 86.465455 142.756387 
L 87.48 142.130258 
L 88.494545 142.697121 
L 89.509091 142.770668 
L 91.538182 142.186545 
L 93.567273 143.821728 
L 94.581818 143.342483 
L 95.596364 143.083456 
L 96.610909 144.028095 
L 97.625455 144.685952 
L 98.64 144.555137 
L 99.654545 144.245428 
L 100.669091 142.608545 
L 101.683636 142.45044 
L 102.698182 141.797961 
L 103.712727 144.438257 
L 104.727273 144.159028 
L 105.741818 144.113404 
L 106.756364 144.656698 
L 107.770909 142.226256 
L 108.785455 142.845523 
L 109.8 143.224307 
L 110.814545 142.350552 
L 111.829091 141.329899 
L 112.843636 142.077786 
L 113.858182 144.311525 
L 114.872727 145.014683 
L 115.887273 144.435123 
L 116.901818 142.95465 
L 117.916364 143.812842 
L 118.930909 143.478015 
L 119.945455 144.082804 
L 120.96 143.244883 
L 121.974545 140.246753 
L 122.989091 138.984241 
L 124.003636 140.792113 
L 125.018182 143.083013 
L 126.032727 143.418364 
L 127.047273 142.407595 
L 128.061818 144.257206 
L 129.076364 144.146973 
L 130.090909 142.715643 
L 131.105455 144.517768 
L 132.12 143.819267 
L 133.134545 142.163818 
L 134.149091 140.150649 
L 135.163636 142.945912 
L 136.178182 144.112712 
L 137.192727 142.869644 
L 138.207273 143.181335 
L 139.221818 142.421259 
L 140.236364 142.910846 
L 141.250909 144.230188 
L 142.265455 141.971538 
L 143.28 143.417302 
L 144.294545 143.681446 
L 145.309091 143.725057 
L 146.323636 143.469269 
L 147.338182 140.4282 
L 148.352727 143.091278 
L 149.367273 144.983144 
L 150.381818 143.937516 
L 151.396364 140.238341 
L 152.410909 140.816239 
L 153.425455 140.191273 
L 155.454545 141.838002 
L 156.469091 143.090602 
L 157.483636 142.516064 
L 158.498182 141.451047 
L 159.512727 142.096889 
L 160.527273 141.81852 
L 161.541818 138.851352 
L 162.556364 140.050019 
L 163.570909 139.532954 
L 164.585455 139.57161 
L 166.614545 138.963431 
L 167.629091 137.411116 
L 168.643636 138.313855 
L 169.658182 138.155814 
L 170.672727 136.821562 
L 171.687273 137.785137 
L 172.701818 137.145928 
L 174.730909 135.317942 
L 175.745455 135.147891 
L 176.76 133.687927 
L 177.774545 134.928986 
L 178.789091 134.161952 
L 179.803636 132.75777 
L 180.818182 131.580453 
L 181.832727 131.393905 
L 182.847273 130.720074 
L 183.861818 128.992657 
L 184.876364 127.666232 
L 185.890909 129.031522 
L 186.905455 128.036465 
L 187.92 127.229818 
L 188.934545 126.231428 
L 189.949091 124.065452 
L 190.963636 122.702573 
L 191.978182 122.174528 
L 194.007273 119.092687 
L 195.021818 118.184568 
L 196.036364 114.605518 
L 198.065455 110.713123 
L 199.08 107.932684 
L 200.094545 105.494481 
L 202.123636 96.924581 
L 203.138182 91.259171 
L 204.152727 84.784883 
L 206.181818 74.700618 
L 207.196364 68.097554 
L 208.210909 62.519539 
L 209.225455 54.142825 
L 210.24 49.846155 
L 211.254545 49.185442 
L 212.269091 45.929808 
L 213.283636 44.64 
L 214.298182 49.176119 
L 215.312727 57.373434 
L 220.385455 109.054414 
L 221.4 117.543462 
L 222.414545 118.610416 
L 223.429091 121.779516 
L 225.458182 135.921191 
L 228.501818 159.067801 
L 229.516364 162.72412 
L 230.530909 168.471711 
L 231.545455 175.015043 
L 233.574545 185.627382 
L 234.589091 194.048423 
L 236.618182 214.058722 
L 238.647273 234.295186 
L 239.661818 241.701556 
L 240.676364 246.24 
L 241.690909 244.20833 
L 242.705455 241.767271 
L 243.72 234.681115 
L 245.749091 222.847679 
L 246.763636 214.398992 
L 247.778182 207.342111 
L 248.792727 201.57423 
L 249.807273 198.505746 
L 250.821818 192.43751 
L 252.850909 183.843535 
L 253.865455 180.574249 
L 254.88 176.835664 
L 255.894545 171.232077 
L 256.909091 167.581197 
L 257.923636 166.32494 
L 258.938182 165.82945 
L 259.952727 162.534468 
L 260.967273 160.35879 
L 261.981818 159.744892 
L 262.996364 159.824194 
L 264.010909 157.036959 
L 265.025455 156.096271 
L 267.054545 154.519871 
L 268.069091 152.732056 
L 269.083636 152.760423 
L 270.098182 153.289171 
L 272.127273 152.466333 
L 273.141818 153.369216 
L 274.156364 153.17724 
L 276.185455 150.523275 
L 277.2 152.352209 
L 278.214545 149.775741 
L 279.229091 148.600193 
L 280.243636 147.181266 
L 281.258182 146.964751 
L 282.272727 148.137471 
L 283.287273 147.629271 
L 285.316364 146.814218 
L 286.330909 144.78293 
L 287.345455 144.711326 
L 288.36 144.363892 
L 289.374545 144.709839 
L 290.389091 144.675648 
L 291.403636 143.010206 
L 292.418182 144.14186 
L 293.432727 146.249545 
L 294.447273 144.891511 
L 295.461818 144.643547 
L 296.476364 145.112438 
L 297.490909 145.831079 
L 298.505455 144.449135 
L 299.52 143.838762 
L 301.549091 144.894366 
L 302.563636 145.976084 
L 303.578182 144.101457 
L 304.592727 143.365625 
L 306.621818 146.057775 
L 307.636364 145.16598 
L 308.650909 145.971711 
L 309.665455 146.989114 
L 310.68 144.8974 
L 311.694545 144.236918 
L 312.709091 144.891733 
L 313.723636 146.091006 
L 314.738182 144.785815 
L 315.752727 144.789022 
L 316.767273 146.071566 
L 317.781818 145.447739 
L 318.796364 145.391828 
L 319.810909 145.74137 
L 320.825455 144.3746 
L 321.84 143.878077 
L 322.854545 144.416579 
L 323.869091 143.63274 
L 324.883636 142.639176 
L 325.898182 143.447823 
L 326.912727 143.121222 
L 327.927273 143.759813 
L 328.941818 143.388452 
L 329.956364 143.526946 
L 330.970909 142.698683 
L 331.985455 141.627123 
L 333 141.543782 
L 334.014545 143.635619 
L 335.029091 146.20008 
L 336.043636 146.100211 
L 337.058182 146.390925 
L 338.072727 144.56842 
L 339.087273 144.094056 
L 341.116364 141.405576 
L 342.130909 142.617653 
L 343.145455 142.23428 
L 344.16 142.96841 
L 345.174545 143.88722 
L 346.189091 144.184845 
L 348.218182 140.935043 
L 349.232727 139.569455 
L 350.247273 140.97342 
L 351.261818 141.246703 
L 353.290909 140.860667 
L 354.305455 142.295789 
L 355.32 143.292461 
L 356.334545 142.165576 
L 357.349091 143.421571 
L 358.363636 143.847339 
L 359.378182 142.286445 
L 360.392727 142.58364 
L 361.407273 143.877306 
L 362.421818 143.53341 
L 363.436364 142.866149 
L 364.450909 140.880279 
L 365.465455 139.400415 
L 367.494545 142.696259 
L 368.509091 142.541265 
L 369.523636 141.904899 
L 370.538182 143.290244 
L 371.552727 141.860122 
L 372.567273 142.234803 
L 373.581818 142.844206 
L 373.581818 142.844206 
" clip-path="url(#p5eb33a1189)" style="fill: none; stroke: #1f77b4; stroke-width: 1.5; stroke-linecap: square"/>
   </g>
   <g id="line2d_11">
    <path d="M 69.218182 143.188604 
L 70.232727 143.311514 
L 71.247273 144.278593 
L 72.261818 144.148409 
L 73.276364 142.858604 
L 74.290909 143.368728 
L 75.305455 143.478771 
L 76.32 141.903026 
L 77.334545 142.732653 
L 78.349091 142.474833 
L 79.363636 141.94833 
L 80.378182 141.937752 
L 81.392727 143.085217 
L 82.407273 144.033011 
L 83.421818 143.580871 
L 84.436364 143.461404 
L 85.450909 142.25549 
L 86.465455 142.78896 
L 87.48 143.948301 
L 88.494545 142.375072 
L 89.509091 141.837038 
L 90.523636 142.082926 
L 92.552727 144.848809 
L 93.567273 144.344825 
L 94.581818 143.974394 
L 95.596364 144.12863 
L 96.610909 142.764289 
L 97.625455 142.848547 
L 98.64 143.177965 
L 99.654545 142.690448 
L 100.669091 141.954642 
L 101.683636 143.394112 
L 103.712727 143.419164 
L 104.727273 143.516099 
L 105.741818 144.160448 
L 106.756364 144.087 
L 107.770909 142.120622 
L 108.785455 142.426253 
L 109.8 142.20506 
L 110.814545 142.503701 
L 111.829091 143.369442 
L 112.843636 144.843509 
L 113.858182 143.997525 
L 114.872727 145.247935 
L 115.887273 144.82503 
L 116.901818 142.758043 
L 117.916364 142.229682 
L 118.930909 142.420786 
L 119.945455 143.698077 
L 120.96 143.790313 
L 121.974545 144.167669 
L 122.989091 144.233098 
L 124.003636 143.682851 
L 125.018182 143.275177 
L 126.032727 143.12377 
L 127.047273 143.270436 
L 128.061818 142.591011 
L 129.076364 144.498724 
L 130.090909 144.244073 
L 132.12 141.9666 
L 133.134545 141.319202 
L 134.149091 142.588386 
L 135.163636 143.67483 
L 136.178182 142.862006 
L 137.192727 141.669672 
L 138.207273 142.21348 
L 139.221818 142.977098 
L 140.236364 143.433475 
L 141.250909 142.55319 
L 142.265455 141.923447 
L 143.28 142.82907 
L 144.294545 142.500242 
L 145.309091 141.120299 
L 146.323636 140.687135 
L 147.338182 139.913461 
L 148.352727 140.424677 
L 149.367273 142.278112 
L 150.381818 142.281521 
L 151.396364 140.988047 
L 152.410909 141.24552 
L 153.425455 141.305807 
L 154.44 139.815379 
L 155.454545 139.834054 
L 156.469091 140.613822 
L 157.483636 139.907502 
L 158.498182 140.577528 
L 159.512727 140.121325 
L 160.527273 140.178344 
L 161.541818 140.965487 
L 162.556364 137.632017 
L 163.570909 135.350909 
L 164.585455 135.775796 
L 165.6 135.829544 
L 166.614545 135.376203 
L 167.629091 134.045468 
L 169.658182 132.129791 
L 170.672727 131.479454 
L 171.687273 131.140921 
L 172.701818 130.457128 
L 173.716364 130.19257 
L 175.745455 128.555299 
L 177.774545 125.44927 
L 178.789091 124.16356 
L 179.803636 124.204974 
L 180.818182 123.638675 
L 181.832727 121.773022 
L 182.847273 118.761046 
L 183.861818 118.218705 
L 184.876364 116.1179 
L 185.890909 114.464808 
L 186.905455 111.303197 
L 187.92 107.496641 
L 188.934545 104.822455 
L 189.949091 99.114419 
L 190.963636 95.587854 
L 191.978182 91.1363 
L 192.992727 84.866897 
L 194.007273 80.38395 
L 195.021818 71.69965 
L 196.036364 65.15344 
L 197.050909 60.915685 
L 198.065455 55.699854 
L 199.08 49.257287 
L 200.094545 44.64 
L 201.109091 44.790991 
L 202.123636 47.196444 
L 203.138182 52.001552 
L 204.152727 59.1392 
L 205.167273 70.210498 
L 206.181818 83.021988 
L 207.196364 92.363921 
L 208.210909 100.636202 
L 210.24 113.512567 
L 211.254545 117.158481 
L 212.269091 124.056882 
L 213.283636 129.000735 
L 217.341818 160.771662 
L 218.356364 165.785528 
L 222.414545 188.896885 
L 226.472727 228.140598 
L 227.487273 236.571632 
L 228.501818 241.451251 
L 229.516364 243.356587 
L 230.530909 240.611682 
L 232.56 232.615066 
L 234.589091 220.020838 
L 235.603636 211.457959 
L 236.618182 205.584342 
L 237.632727 200.571588 
L 238.647273 193.241971 
L 240.676364 183.82936 
L 241.690909 181.554439 
L 243.72 173.406667 
L 244.734545 169.721485 
L 245.749091 169.5862 
L 246.763636 167.675542 
L 247.778182 164.938302 
L 248.792727 161.643705 
L 249.807273 159.522248 
L 250.821818 158.120232 
L 251.836364 157.66666 
L 252.850909 158.007529 
L 253.865455 156.635887 
L 254.88 154.680055 
L 255.894545 155.112933 
L 256.909091 153.871552 
L 257.923636 154.399658 
L 258.938182 153.584573 
L 259.952727 152.289993 
L 260.967273 151.679493 
L 261.981818 151.427951 
L 262.996364 151.705464 
L 265.025455 149.899242 
L 266.04 149.978616 
L 267.054545 147.651974 
L 268.069091 147.180213 
L 269.083636 145.393983 
L 270.098182 145.342184 
L 271.112727 146.222529 
L 272.127273 145.50934 
L 273.141818 145.479603 
L 274.156364 144.312015 
L 275.170909 144.81178 
L 276.185455 145.026909 
L 277.2 143.742958 
L 278.214545 143.255258 
L 279.229091 143.650072 
L 280.243636 143.121731 
L 281.258182 143.260621 
L 282.272727 144.399539 
L 283.287273 144.063945 
L 284.301818 144.176048 
L 285.316364 145.821564 
L 287.345455 144.167044 
L 288.36 143.725102 
L 289.374545 145.491791 
L 290.389091 146.888819 
L 291.403636 144.837039 
L 292.418182 144.634689 
L 293.432727 145.530175 
L 294.447273 145.35702 
L 295.461818 145.062153 
L 296.476364 143.360587 
L 297.490909 143.964691 
L 298.505455 144.262814 
L 299.52 142.733013 
L 300.534545 144.004254 
L 301.549091 144.181134 
L 302.563636 143.756849 
L 303.578182 144.711173 
L 304.592727 145.412418 
L 305.607273 145.212287 
L 306.621818 143.029234 
L 308.650909 143.136737 
L 309.665455 144.277815 
L 310.68 146.30786 
L 311.694545 146.213073 
L 312.709091 143.987785 
L 313.723636 144.075202 
L 314.738182 145.210654 
L 315.752727 145.055187 
L 316.767273 145.308402 
L 317.781818 144.532718 
L 318.796364 143.023392 
L 319.810909 143.471874 
L 320.825455 143.447063 
L 321.84 142.687201 
L 322.854545 144.23421 
L 323.869091 144.670842 
L 324.883636 144.126264 
L 325.898182 143.936692 
L 326.912727 144.567666 
L 327.927273 143.217175 
L 328.941818 142.258448 
L 329.956364 141.951485 
L 330.970909 143.242067 
L 331.985455 143.523754 
L 333 142.499103 
L 334.014545 141.711347 
L 335.029091 140.721653 
L 338.072727 141.866171 
L 339.087273 141.983774 
L 340.101818 141.833194 
L 341.116364 141.263239 
L 342.130909 141.844216 
L 344.16 142.245803 
L 345.174545 142.089818 
L 346.189091 142.464864 
L 347.203636 143.128481 
L 348.218182 143.265447 
L 349.232727 141.358044 
L 350.247273 140.827414 
L 351.261818 141.163513 
L 352.276364 142.549155 
L 353.290909 141.41745 
L 354.305455 141.490644 
L 356.334545 142.903143 
L 357.349091 142.302725 
L 358.363636 142.197799 
L 359.378182 141.737162 
L 360.392727 143.457954 
L 361.407273 143.66578 
L 362.421818 144.119063 
L 363.436364 143.331574 
L 365.465455 143.159884 
L 366.48 143.489516 
L 368.509091 143.130349 
L 369.523636 143.315833 
L 370.538182 144.741678 
L 372.567273 143.705934 
L 373.581818 144.153087 
L 373.581818 144.153087 
" clip-path="url(#p5eb33a1189)" style="fill: none; stroke-dasharray: 5.55,2.4; stroke-dashoffset: 0; stroke: #ff7f0e; stroke-width: 1.5"/>
   </g>
   <g id="line2d_12">
    <path d="M 69.218182 126.070672 
L 70.232727 135.958872 
L 71.247273 144.046883 
L 72.261818 142.840698 
L 73.276364 142.964449 
L 75.305455 139.292894 
L 76.32 140.869052 
L 77.334545 141.084281 
L 78.349091 140.708211 
L 79.363636 144.193668 
L 80.378182 144.072637 
L 81.392727 142.348779 
L 82.407273 141.822786 
L 83.421818 144.198276 
L 84.436364 142.893657 
L 85.450909 144.323625 
L 86.465455 144.43948 
L 87.48 142.907771 
L 88.494545 143.631088 
L 89.509091 143.347384 
L 90.523636 144.308961 
L 91.538182 143.632209 
L 92.552727 144.437223 
L 93.567273 143.863076 
L 94.581818 141.624167 
L 95.596364 142.588306 
L 96.610909 141.948949 
L 97.625455 142.307941 
L 98.64 144.281434 
L 99.654545 140.431177 
L 100.669091 140.303463 
L 101.683636 141.33359 
L 102.698182 140.197088 
L 103.712727 141.622538 
L 104.727273 140.225137 
L 105.741818 143.237313 
L 106.756364 144.16281 
L 107.770909 141.038241 
L 108.785455 139.319516 
L 109.8 140.994709 
L 110.814545 142.238936 
L 111.829091 142.630257 
L 112.843636 140.971967 
L 113.858182 142.451718 
L 115.887273 143.016728 
L 116.901818 142.000545 
L 117.916364 142.523126 
L 118.930909 143.624829 
L 119.945455 140.723082 
L 120.96 141.68071 
L 121.974545 140.319917 
L 122.989091 140.523721 
L 124.003636 142.486299 
L 125.018182 143.745052 
L 126.032727 143.510905 
L 127.047273 142.934127 
L 128.061818 144.471475 
L 129.076364 146.219421 
L 130.090909 143.003385 
L 131.105455 142.941752 
L 132.12 145.105603 
L 133.134545 145.466926 
L 134.149091 143.030225 
L 135.163636 144.963569 
L 136.178182 144.858278 
L 137.192727 143.948653 
L 138.207273 145.633853 
L 139.221818 146.01045 
L 140.236364 143.556951 
L 141.250909 145.312349 
L 142.265455 146.261314 
L 143.28 143.637903 
L 144.294545 142.683519 
L 145.309091 144.019208 
L 146.323636 143.982443 
L 148.352727 145.179634 
L 149.367273 140.927096 
L 150.381818 140.856841 
L 152.410909 146.150994 
L 153.425455 141.781977 
L 154.44 142.30375 
L 155.454545 142.223735 
L 156.469091 144.110546 
L 158.498182 145.871003 
L 159.512727 144.673469 
L 160.527273 145.623977 
L 161.541818 142.654149 
L 162.556364 141.329226 
L 163.570909 141.672441 
L 164.585455 141.304794 
L 165.6 141.296272 
L 166.614545 139.899475 
L 167.629091 142.129792 
L 168.643636 142.248862 
L 169.658182 142.977105 
L 170.672727 141.937252 
L 171.687273 142.459823 
L 172.701818 145.855021 
L 173.716364 145.31267 
L 174.730909 139.314968 
L 175.745455 139.525527 
L 176.76 139.29098 
L 177.774545 143.371206 
L 178.789091 143.748039 
L 179.803636 141.131942 
L 181.832727 142.156184 
L 182.847273 139.887456 
L 183.861818 137.939892 
L 184.876364 136.552519 
L 185.890909 136.711855 
L 186.905455 137.572228 
L 187.92 135.559233 
L 188.934545 132.001611 
L 189.949091 132.031667 
L 190.963636 132.880609 
L 191.978182 132.316937 
L 192.992727 131.31026 
L 194.007273 133.085541 
L 195.021818 131.452826 
L 196.036364 130.616782 
L 197.050909 130.305086 
L 198.065455 126.817572 
L 199.08 125.710771 
L 200.094545 126.036666 
L 201.109091 124.806978 
L 202.123636 124.775804 
L 203.138182 124.175438 
L 204.152727 123.892961 
L 205.167273 124.976177 
L 206.181818 124.128315 
L 209.225455 112.246482 
L 210.24 112.300838 
L 211.254545 109.486097 
L 212.269091 104.205006 
L 213.283636 99.996803 
L 214.298182 97.167562 
L 215.312727 95.168221 
L 216.327273 88.244456 
L 217.341818 82.955221 
L 218.356364 75.279375 
L 219.370909 69.373815 
L 220.385455 66.292075 
L 223.429091 50.468655 
L 224.443636 47.227337 
L 225.458182 44.64 
L 226.472727 45.007539 
L 227.487273 51.815325 
L 229.516364 75.90425 
L 230.530909 87.857258 
L 232.56 106.606461 
L 233.574545 114.698384 
L 234.589091 120.293822 
L 235.603636 123.046427 
L 236.618182 126.551888 
L 238.647273 144.143305 
L 239.661818 150.471682 
L 241.690909 161.265319 
L 242.705455 169.720839 
L 243.72 177.048769 
L 244.734545 182.392021 
L 245.749091 183.924025 
L 246.763636 188.054209 
L 248.792727 213.103662 
L 250.821818 234.078742 
L 252.850909 243.797507 
L 253.865455 245.456376 
L 254.88 242.954297 
L 256.909091 228.358253 
L 257.923636 223.650496 
L 260.967273 201.393327 
L 261.981818 197.751807 
L 262.996364 193.049571 
L 264.010909 187.729875 
L 265.025455 181.395093 
L 266.04 176.825229 
L 267.054545 176.951586 
L 268.069091 176.057029 
L 269.083636 171.488694 
L 270.098182 169.045015 
L 271.112727 166.998667 
L 272.127273 164.516589 
L 273.141818 159.620618 
L 274.156364 156.636342 
L 275.170909 156.859129 
L 276.185455 155.201976 
L 277.2 156.529926 
L 278.214545 158.225038 
L 279.229091 155.543223 
L 280.243636 153.840128 
L 281.258182 154.292123 
L 282.272727 155.716834 
L 283.287273 155.624554 
L 284.301818 152.751496 
L 286.330909 150.535399 
L 287.345455 151.800006 
L 288.36 151.109914 
L 289.374545 149.948117 
L 290.389091 150.014102 
L 291.403636 149.37287 
L 292.418182 147.523947 
L 293.432727 146.83946 
L 294.447273 144.120127 
L 295.461818 145.106961 
L 296.476364 145.691587 
L 297.490909 147.308185 
L 298.505455 148.686025 
L 300.534545 140.559735 
L 301.549091 144.566829 
L 302.563636 143.073892 
L 303.578182 142.287386 
L 304.592727 145.283241 
L 305.607273 143.822574 
L 306.621818 143.186058 
L 307.636364 143.371697 
L 308.650909 141.324335 
L 309.665455 141.145228 
L 310.68 141.783962 
L 311.694545 143.025403 
L 313.723636 145.933047 
L 314.738182 145.193094 
L 315.752727 142.674919 
L 316.767273 141.089807 
L 317.781818 141.067962 
L 318.796364 141.57752 
L 319.810909 143.682466 
L 320.825455 145.191949 
L 321.84 146.09514 
L 322.854545 144.477788 
L 323.869091 142.619957 
L 324.883636 141.529052 
L 325.898182 142.14149 
L 326.912727 144.262331 
L 327.927273 143.973497 
L 328.941818 141.310233 
L 329.956364 143.15743 
L 330.970909 145.30903 
L 331.985455 143.653199 
L 333 142.728356 
L 334.014545 141.541724 
L 335.029091 143.639539 
L 336.043636 144.803388 
L 337.058182 143.105993 
L 338.072727 143.133699 
L 339.087273 142.228989 
L 340.101818 142.39368 
L 341.116364 143.936045 
L 342.130909 140.442589 
L 343.145455 140.056694 
L 344.16 142.323469 
L 345.174545 141.240148 
L 346.189091 142.226623 
L 347.203636 141.406303 
L 348.218182 144.324502 
L 349.232727 144.192312 
L 351.261818 142.532793 
L 352.276364 138.694834 
L 353.290909 138.375797 
L 354.305455 138.228834 
L 355.32 137.084746 
L 356.334545 138.449749 
L 357.349091 138.846535 
L 358.363636 135.477438 
L 359.378182 137.152476 
L 360.392727 134.798305 
L 361.407273 135.480467 
L 362.421818 133.450471 
L 364.450909 127.063847 
L 365.465455 127.840552 
L 366.48 128.784576 
L 368.509091 126.002258 
L 369.523636 125.199582 
L 370.538182 125.258182 
L 371.552727 125.54836 
L 372.567273 122.645417 
L 373.581818 118.884465 
L 373.581818 118.884465 
" clip-path="url(#p5eb33a1189)" style="fill: none; stroke-dasharray: 5.55,2.4; stroke-dashoffset: 0; stroke: #2ca02c; stroke-width: 1.5"/>
   </g>
   <g id="patch_3">
    <path d="M 54 256.32 
L 54 34.56 
" style="fill: none; stroke: #000000; stroke-width: 0.8; stroke-linejoin: miter; stroke-linecap: square"/>
   </g>
   <g id="patch_4">
    <path d="M 388.8 256.32 
L 388.8 34.56 
" style="fill: none; stroke: #000000; stroke-width: 0.8; stroke-linejoin: miter; stroke-linecap: square"/>
   </g>
   <g id="patch_5">
    <path d="M 54 256.32 
L 388.8 256.32 
" style="fill: none; stroke: #000000; stroke-width: 0.8; stroke-linejoin: miter; stroke-linecap: square"/>
   </g>
   <g id="patch_6">
    <path d="M 54 34.56 
L 388.8 34.56 
" style="fill: none; stroke: #000000; stroke-width: 0.8; stroke-linejoin: miter; stroke-linecap: square"/>
   </g>
   <g id="legend_1">
    <g id="patch_7">
     <path d="M 289.5 86.594375 
L 381.8 86.594375 
Q 383.8 86.594375 383.8 84.594375 
L 383.8 41.56 
Q 383.8 39.56 381.8 39.56 
L 289.5 39.56 
Q 287.5 39.56 287.5 41.56 
L 287.5 84.594375 
Q 287.5 86.594375 289.5 86.594375 
z
" style="fill: #ffffff; opacity: 0.8; stroke: #cccccc; stroke-linejoin: miter"/>
    </g>
    <g id="line2d_13">
     <path d="M 291.5 47.658438 
L 301.5 47.658438 
L 311.5 47.658438 
" style="fill: none; stroke: #1f77b4; stroke-width: 1.5; stroke-linecap: square"/>
    </g>
    <g id="text_10">
     <!-- $B=B_0$ -->
     <g transform="translate(319.5 51.158438)scale(0.1 -0.1)">
      <defs>
       <path id="DejaVuSans-Oblique-42" d="M 1081 4666 
L 2694 4666 
Q 3350 4666 3675 4422 
Q 4000 4178 4000 3688 
Q 4000 3238 3720 2911 
Q 3441 2584 2988 2516 
Q 3375 2428 3569 2181 
Q 3763 1934 3763 1522 
Q 3763 819 3242 409 
Q 2722 0 1819 0 
L 172 0 
L 1081 4666 
z
M 1234 2228 
L 903 519 
L 1919 519 
Q 2491 519 2800 781 
Q 3109 1044 3109 1522 
Q 3109 1891 2904 2059 
Q 2700 2228 2247 2228 
L 1234 2228 
z
M 1606 4147 
L 1331 2741 
L 2272 2741 
Q 2775 2741 3058 2959 
Q 3341 3178 3341 3566 
Q 3341 3869 3150 4008 
Q 2959 4147 2541 4147 
L 1606 4147 
z
" transform="scale(0.015625)"/>
       <path id="DejaVuSans-3d" d="M 678 2906 
L 4684 2906 
L 4684 2381 
L 678 2381 
L 678 2906 
z
M 678 1631 
L 4684 1631 
L 4684 1100 
L 678 1100 
L 678 1631 
z
" transform="scale(0.015625)"/>
      </defs>
      <use xlink:href="#DejaVuSans-Oblique-42" transform="translate(0 0.09375)"/>
      <use xlink:href="#DejaVuSans-3d" transform="translate(88.085938 0.09375)"/>
      <use xlink:href="#DejaVuSans-Oblique-42" transform="translate(191.357422 0.09375)"/>
      <use xlink:href="#DejaVuSans-30" transform="translate(259.960938 -16.3125)scale(0.7)"/>
     </g>
    </g>
    <g id="line2d_14">
     <path d="M 291.5 62.336563 
L 301.5 62.336563 
L 311.5 62.336563 
" style="fill: none; stroke-dasharray: 5.55,2.4; stroke-dashoffset: 0; stroke: #ff7f0e; stroke-width: 1.5"/>
    </g>
    <g id="text_11">
     <!-- $B=B_0+1$ G -->
     <g transform="translate(319.5 65.836563)scale(0.1 -0.1)">
      <defs>
       <path id="DejaVuSans-2b" d="M 2944 4013 
L 2944 2272 
L 4684 2272 
L 4684 1741 
L 2944 1741 
L 2944 0 
L 2419 0 
L 2419 1741 
L 678 1741 
L 678 2272 
L 2419 2272 
L 2419 4013 
L 2944 4013 
z
" transform="scale(0.015625)"/>
       <path id="DejaVuSans-20" transform="scale(0.015625)"/>
       <path id="DejaVuSans-47" d="M 3809 666 
L 3809 1919 
L 2778 1919 
L 2778 2438 
L 4434 2438 
L 4434 434 
Q 4069 175 3628 42 
Q 3188 -91 2688 -91 
Q 1594 -91 976 548 
Q 359 1188 359 2328 
Q 359 3472 976 4111 
Q 1594 4750 2688 4750 
Q 3144 4750 3555 4637 
Q 3966 4525 4313 4306 
L 4313 3634 
Q 3963 3931 3569 4081 
Q 3175 4231 2741 4231 
Q 1884 4231 1454 3753 
Q 1025 3275 1025 2328 
Q 1025 1384 1454 906 
Q 1884 428 2741 428 
Q 3075 428 3337 486 
Q 3600 544 3809 666 
z
" transform="scale(0.015625)"/>
      </defs>
      <use xlink:href="#DejaVuSans-Oblique-42" transform="translate(0 0.78125)"/>
      <use xlink:href="#DejaVuSans-3d" transform="translate(88.085938 0.78125)"/>
      <use xlink:href="#DejaVuSans-Oblique-42" transform="translate(191.357422 0.78125)"/>
      <use xlink:href="#DejaVuSans-30" transform="translate(259.960938 -15.625)scale(0.7)"/>
      <use xlink:href="#DejaVuSans-2b" transform="translate(326.713867 0.78125)"/>
      <use xlink:href="#DejaVuSans-31" transform="translate(429.985352 0.78125)"/>
      <use xlink:href="#DejaVuSans-20" transform="translate(493.608398 0.78125)"/>
      <use xlink:href="#DejaVuSans-47" transform="translate(525.395508 0.78125)"/>
     </g>
    </g>
    <g id="line2d_15">
     <path d="M 291.5 77.014688 
L 301.5 77.014688 
L 311.5 77.014688 
" style="fill: none; stroke-dasharray: 5.55,2.4; stroke-dashoffset: 0; stroke: #2ca02c; stroke-width: 1.5"/>
    </g>
    <g id="text_12">
     <!-- $B=B_0-1$ G -->
     <g transform="translate(319.5 80.514688)scale(0.1 -0.1)">
      <use xlink:href="#DejaVuSans-Oblique-42" transform="translate(0 0.78125)"/>
      <use xlink:href="#DejaVuSans-3d" transform="translate(88.085938 0.78125)"/>
      <use xlink:href="#DejaVuSans-Oblique-42" transform="translate(191.357422 0.78125)"/>
      <use xlink:href="#DejaVuSans-30" transform="translate(259.960938 -15.625)scale(0.7)"/>
      <use xlink:href="#DejaVuSans-2212" transform="translate(326.713867 0.78125)"/>
      <use xlink:href="#DejaVuSans-31" transform="translate(429.985352 0.78125)"/>
      <use xlink:href="#DejaVuSans-20" transform="translate(493.608398 0.78125)"/>
      <use xlink:href="#DejaVuSans-47" transform="translate(525.395508 0.78125)"/>
     </g>
    </g>
   </g>
  </g>
 </g>
 <defs>
  <clipPath id="p5eb33a1189">
   <rect x="54" y="34.56" width="334.8" height="221.76"/>
  </clipPath>
 </defs>
</svg>
