<?xml version="1.0" encoding="utf-8" standalone="no"?>
<!DOCTYPE svg PUBLIC "-//W3C//DTD SVG 1.1//EN"
  "http://www.w3.org/Graphics/SVG/1.1/DTD/svg11.dtd">
<svg xmlns:xlink="http://www.w3.org/1999/xlink" width="432pt" height="216pt" viewBox="0 0 432 216" xmlns="http://www.w3.org/2000/svg" version="1.1">
 <metadata>
  <rdf:RDF xmlns:dc="http://purl.org/dc/elements/1.1/" xmlns:cc="http://creativecommons.org/ns#" xmlns:rdf="http://www.w3.org/1999/02/22-rdf-syntax-ns#">
   <cc:Work>
    <dc:type rdf:resource="http://purl.org/dc/dcmitype/StillImage"/>
    <dc:date>2022-06-10T16:37:44.408609</dc:date>
    <dc:format>image/svg+xml</dc:format>
    <dc:creator>
     <cc:Agent>
      <dc:title>Matplotlib v3.5.1, https://matplotlib.org/</dc:title>
     </cc:Agent>
    </dc:creator>
   </cc:Work>
  </rdf:RDF>
 </metadata>
 <defs>
  <style type="text/css">*{stroke-linejoin: round; stroke-linecap: butt}</style>
 </defs>
 <g id="figure_1">
  <g id="patch_1">
   <path d="M 0 216 
L 432 216 
L 432 0 
L 0 0 
z
" style="fill: #ffffff"/>
  </g>
  <g id="axes_1">
   <g id="patch_2">
    <path d="M 54 192.24 
L 388.8 192.24 
L 388.8 25.92 
L 54 25.92 
z
" style="fill: #ffffff"/>
   </g>
   <g id="matplotlib.axis_1">
    <g id="xtick_1">
     <g id="line2d_1">
      <defs>
       <path id="mb75b30f705" d="M 0 0 
L 0 3.5 
" style="stroke: #000000; stroke-width: 0.8"/>
      </defs>
      <g>
       <use xlink:href="#mb75b30f705" x="80.009247" y="192.24" style="stroke: #000000; stroke-width: 0.8"/>
      </g>
     </g>
     <g id="text_1">
      <!-- 10 -->
      <g transform="translate(72.374247 208.358125)scale(0.12 -0.12)">
       <defs>
        <path id="DejaVuSans-31" d="M 794 531 
L 1825 531 
L 1825 4091 
L 703 3866 
L 703 4441 
L 1819 4666 
L 2450 4666 
L 2450 531 
L 3481 531 
L 3481 0 
L 794 0 
L 794 531 
z
" transform="scale(0.015625)"/>
        <path id="DejaVuSans-30" d="M 2034 4250 
Q 1547 4250 1301 3770 
Q 1056 3291 1056 2328 
Q 1056 1369 1301 889 
Q 1547 409 2034 409 
Q 2525 409 2770 889 
Q 3016 1369 3016 2328 
Q 3016 3291 2770 3770 
Q 2525 4250 2034 4250 
z
M 2034 4750 
Q 2819 4750 3233 4129 
Q 3647 3509 3647 2328 
Q 3647 1150 3233 529 
Q 2819 -91 2034 -91 
Q 1250 -91 836 529 
Q 422 1150 422 2328 
Q 422 3509 836 4129 
Q 1250 4750 2034 4750 
z
" transform="scale(0.015625)"/>
       </defs>
       <use xlink:href="#DejaVuSans-31"/>
       <use xlink:href="#DejaVuSans-30" x="63.623047"/>
      </g>
     </g>
    </g>
    <g id="xtick_2">
     <g id="line2d_2">
      <g>
       <use xlink:href="#mb75b30f705" x="159.123237" y="192.24" style="stroke: #000000; stroke-width: 0.8"/>
      </g>
     </g>
     <g id="text_2">
      <!-- 15 -->
      <g transform="translate(151.488237 208.358125)scale(0.12 -0.12)">
       <defs>
        <path id="DejaVuSans-35" d="M 691 4666 
L 3169 4666 
L 3169 4134 
L 1269 4134 
L 1269 2991 
Q 1406 3038 1543 3061 
Q 1681 3084 1819 3084 
Q 2600 3084 3056 2656 
Q 3513 2228 3513 1497 
Q 3513 744 3044 326 
Q 2575 -91 1722 -91 
Q 1428 -91 1123 -41 
Q 819 9 494 109 
L 494 744 
Q 775 591 1075 516 
Q 1375 441 1709 441 
Q 2250 441 2565 725 
Q 2881 1009 2881 1497 
Q 2881 1984 2565 2268 
Q 2250 2553 1709 2553 
Q 1456 2553 1204 2497 
Q 953 2441 691 2322 
L 691 4666 
z
" transform="scale(0.015625)"/>
       </defs>
       <use xlink:href="#DejaVuSans-31"/>
       <use xlink:href="#DejaVuSans-35" x="63.623047"/>
      </g>
     </g>
    </g>
    <g id="xtick_3">
     <g id="line2d_3">
      <g>
       <use xlink:href="#mb75b30f705" x="211.6194" y="192.24" style="stroke: #000000; stroke-width: 0.8"/>
      </g>
     </g>
     <g id="text_3">
      <!-- 20 -->
      <g transform="translate(203.9844 208.358125)scale(0.12 -0.12)">
       <defs>
        <path id="DejaVuSans-32" d="M 1228 531 
L 3431 531 
L 3431 0 
L 469 0 
L 469 531 
Q 828 903 1448 1529 
Q 2069 2156 2228 2338 
Q 2531 2678 2651 2914 
Q 2772 3150 2772 3378 
Q 2772 3750 2511 3984 
Q 2250 4219 1831 4219 
Q 1534 4219 1204 4116 
Q 875 4013 500 3803 
L 500 4441 
Q 881 4594 1212 4672 
Q 1544 4750 1819 4750 
Q 2544 4750 2975 4387 
Q 3406 4025 3406 3419 
Q 3406 3131 3298 2873 
Q 3191 2616 2906 2266 
Q 2828 2175 2409 1742 
Q 1991 1309 1228 531 
z
" transform="scale(0.015625)"/>
       </defs>
       <use xlink:href="#DejaVuSans-32"/>
       <use xlink:href="#DejaVuSans-30" x="63.623047"/>
      </g>
     </g>
    </g>
    <g id="xtick_4">
     <g id="line2d_4">
      <g>
       <use xlink:href="#mb75b30f705" x="251.853565" y="192.24" style="stroke: #000000; stroke-width: 0.8"/>
      </g>
     </g>
     <g id="text_4">
      <!-- 25 -->
      <g transform="translate(244.218565 208.358125)scale(0.12 -0.12)">
       <use xlink:href="#DejaVuSans-32"/>
       <use xlink:href="#DejaVuSans-35" x="63.623047"/>
      </g>
     </g>
    </g>
    <g id="xtick_5">
     <g id="line2d_5">
      <g>
       <use xlink:href="#mb75b30f705" x="288.675428" y="192.24" style="stroke: #000000; stroke-width: 0.8"/>
      </g>
     </g>
     <g id="text_5">
      <!-- 30 -->
      <g transform="translate(281.040428 208.358125)scale(0.12 -0.12)">
       <defs>
        <path id="DejaVuSans-33" d="M 2597 2516 
Q 3050 2419 3304 2112 
Q 3559 1806 3559 1356 
Q 3559 666 3084 287 
Q 2609 -91 1734 -91 
Q 1441 -91 1130 -33 
Q 819 25 488 141 
L 488 750 
Q 750 597 1062 519 
Q 1375 441 1716 441 
Q 2309 441 2620 675 
Q 2931 909 2931 1356 
Q 2931 1769 2642 2001 
Q 2353 2234 1838 2234 
L 1294 2234 
L 1294 2753 
L 1863 2753 
Q 2328 2753 2575 2939 
Q 2822 3125 2822 3475 
Q 2822 3834 2567 4026 
Q 2313 4219 1838 4219 
Q 1578 4219 1281 4162 
Q 984 4106 628 3988 
L 628 4550 
Q 988 4650 1302 4700 
Q 1616 4750 1894 4750 
Q 2613 4750 3031 4423 
Q 3450 4097 3450 3541 
Q 3450 3153 3228 2886 
Q 3006 2619 2597 2516 
z
" transform="scale(0.015625)"/>
       </defs>
       <use xlink:href="#DejaVuSans-33"/>
       <use xlink:href="#DejaVuSans-30" x="63.623047"/>
      </g>
     </g>
    </g>
    <g id="xtick_6">
     <g id="line2d_6">
      <g>
       <use xlink:href="#mb75b30f705" x="325.428553" y="192.24" style="stroke: #000000; stroke-width: 0.8"/>
      </g>
     </g>
     <g id="text_6">
      <!-- 35 -->
      <g transform="translate(317.793553 208.358125)scale(0.12 -0.12)">
       <use xlink:href="#DejaVuSans-33"/>
       <use xlink:href="#DejaVuSans-35" x="63.623047"/>
      </g>
     </g>
    </g>
    <g id="xtick_7">
     <g id="line2d_7">
      <g>
       <use xlink:href="#mb75b30f705" x="359.950377" y="192.24" style="stroke: #000000; stroke-width: 0.8"/>
      </g>
     </g>
     <g id="text_7">
      <!-- 40 -->
      <g transform="translate(352.315377 208.358125)scale(0.12 -0.12)">
       <defs>
        <path id="DejaVuSans-34" d="M 2419 4116 
L 825 1625 
L 2419 1625 
L 2419 4116 
z
M 2253 4666 
L 3047 4666 
L 3047 1625 
L 3713 1625 
L 3713 1100 
L 3047 1100 
L 3047 0 
L 2419 0 
L 2419 1100 
L 313 1100 
L 313 1709 
L 2253 4666 
z
" transform="scale(0.015625)"/>
       </defs>
       <use xlink:href="#DejaVuSans-34"/>
       <use xlink:href="#DejaVuSans-30" x="63.623047"/>
      </g>
     </g>
    </g>
    <g id="xtick_8">
     <g id="line2d_8">
      <g>
       <use xlink:href="#mb75b30f705" x="384.572202" y="192.24" style="stroke: #000000; stroke-width: 0.8"/>
      </g>
     </g>
     <g id="text_8">
      <!-- 45 -->
      <g transform="translate(376.937202 208.358125)scale(0.12 -0.12)">
       <use xlink:href="#DejaVuSans-34"/>
       <use xlink:href="#DejaVuSans-35" x="63.623047"/>
      </g>
     </g>
    </g>
    <g id="xtick_9">
     <g id="line2d_9">
      <g>
       <use xlink:href="#mb75b30f705" x="386.119202" y="192.24" style="stroke: #000000; stroke-width: 0.8"/>
      </g>
     </g>
     <g id="text_9">
      <!-- 50 -->
      <g transform="translate(378.484202 208.358125)scale(0.12 -0.12)">
       <use xlink:href="#DejaVuSans-35"/>
       <use xlink:href="#DejaVuSans-30" x="63.623047"/>
      </g>
     </g>
    </g>
   </g>
   <g id="matplotlib.axis_2">
    <g id="ytick_1">
     <g id="line2d_10">
      <defs>
       <path id="maac26bb104" d="M 0 0 
L -3.5 0 
" style="stroke: #000000; stroke-width: 0.8"/>
      </defs>
      <g>
       <use xlink:href="#maac26bb104" x="54" y="192.24" style="stroke: #000000; stroke-width: 0.8"/>
      </g>
     </g>
     <g id="text_10">
      <!-- 0 -->
      <g transform="translate(39.365 196.799062)scale(0.12 -0.12)">
       <use xlink:href="#DejaVuSans-30"/>
      </g>
     </g>
    </g>
    <g id="ytick_2">
     <g id="line2d_11">
      <g>
       <use xlink:href="#maac26bb104" x="54" y="169.31371" style="stroke: #000000; stroke-width: 0.8"/>
      </g>
     </g>
     <g id="text_11">
      <!-- 25 -->
      <g transform="translate(31.73 173.872772)scale(0.12 -0.12)">
       <use xlink:href="#DejaVuSans-32"/>
       <use xlink:href="#DejaVuSans-35" x="63.623047"/>
      </g>
     </g>
    </g>
    <g id="ytick_3">
     <g id="line2d_12">
      <g>
       <use xlink:href="#maac26bb104" x="54" y="146.38742" style="stroke: #000000; stroke-width: 0.8"/>
      </g>
     </g>
     <g id="text_12">
      <!-- 50 -->
      <g transform="translate(31.73 150.946482)scale(0.12 -0.12)">
       <use xlink:href="#DejaVuSans-35"/>
       <use xlink:href="#DejaVuSans-30" x="63.623047"/>
      </g>
     </g>
    </g>
    <g id="ytick_4">
     <g id="line2d_13">
      <g>
       <use xlink:href="#maac26bb104" x="54" y="123.46113" style="stroke: #000000; stroke-width: 0.8"/>
      </g>
     </g>
     <g id="text_13">
      <!-- 75 -->
      <g transform="translate(31.73 128.020192)scale(0.12 -0.12)">
       <defs>
        <path id="DejaVuSans-37" d="M 525 4666 
L 3525 4666 
L 3525 4397 
L 1831 0 
L 1172 0 
L 2766 4134 
L 525 4134 
L 525 4666 
z
" transform="scale(0.015625)"/>
       </defs>
       <use xlink:href="#DejaVuSans-37"/>
       <use xlink:href="#DejaVuSans-35" x="63.623047"/>
      </g>
     </g>
    </g>
    <g id="ytick_5">
     <g id="line2d_14">
      <g>
       <use xlink:href="#maac26bb104" x="54" y="100.53484" style="stroke: #000000; stroke-width: 0.8"/>
      </g>
     </g>
     <g id="text_14">
      <!-- 100 -->
      <g transform="translate(24.095 105.093902)scale(0.12 -0.12)">
       <use xlink:href="#DejaVuSans-31"/>
       <use xlink:href="#DejaVuSans-30" x="63.623047"/>
       <use xlink:href="#DejaVuSans-30" x="127.246094"/>
      </g>
     </g>
    </g>
    <g id="ytick_6">
     <g id="line2d_15">
      <g>
       <use xlink:href="#maac26bb104" x="54" y="77.60855" style="stroke: #000000; stroke-width: 0.8"/>
      </g>
     </g>
     <g id="text_15">
      <!-- 125 -->
      <g transform="translate(24.095 82.167612)scale(0.12 -0.12)">
       <use xlink:href="#DejaVuSans-31"/>
       <use xlink:href="#DejaVuSans-32" x="63.623047"/>
       <use xlink:href="#DejaVuSans-35" x="127.246094"/>
      </g>
     </g>
    </g>
    <g id="ytick_7">
     <g id="line2d_16">
      <g>
       <use xlink:href="#maac26bb104" x="54" y="54.68226" style="stroke: #000000; stroke-width: 0.8"/>
      </g>
     </g>
     <g id="text_16">
      <!-- 150 -->
      <g transform="translate(24.095 59.241322)scale(0.12 -0.12)">
       <use xlink:href="#DejaVuSans-31"/>
       <use xlink:href="#DejaVuSans-35" x="63.623047"/>
       <use xlink:href="#DejaVuSans-30" x="127.246094"/>
      </g>
     </g>
    </g>
    <g id="ytick_8">
     <g id="line2d_17">
      <g>
       <use xlink:href="#maac26bb104" x="54" y="31.75597" style="stroke: #000000; stroke-width: 0.8"/>
      </g>
     </g>
     <g id="text_17">
      <!-- 175 -->
      <g transform="translate(24.095 36.315032)scale(0.12 -0.12)">
       <use xlink:href="#DejaVuSans-31"/>
       <use xlink:href="#DejaVuSans-37" x="63.623047"/>
       <use xlink:href="#DejaVuSans-35" x="127.246094"/>
      </g>
     </g>
    </g>
   </g>
   <g id="line2d_18">
    <defs>
     <path id="m104c6113d9" d="M 0 2.5 
C 0.663008 2.5 1.29895 2.236584 1.767767 1.767767 
C 2.236584 1.29895 2.5 0.663008 2.5 0 
C 2.5 -0.663008 2.236584 -1.29895 1.767767 -1.767767 
C 1.29895 -2.236584 0.663008 -2.5 0 -2.5 
C -0.663008 -2.5 -1.29895 -2.236584 -1.767767 -1.767767 
C -2.236584 -1.29895 -2.5 -0.663008 -2.5 0 
C -2.5 0.663008 -2.236584 1.29895 -1.767767 1.767767 
C -1.29895 2.236584 -0.663008 2.5 0 2.5 
z
" style="stroke: #1f77b4; stroke-width: 0.7"/>
    </defs>
    <g clip-path="url(#p8859e201b5)">
     <use xlink:href="#m104c6113d9" x="69.49054" y="37.172465" style="fill-opacity: 0; stroke: #1f77b4; stroke-width: 0.7"/>
     <use xlink:href="#m104c6113d9" x="67.763485" y="41.111617" style="fill-opacity: 0; stroke: #1f77b4; stroke-width: 0.7"/>
     <use xlink:href="#m104c6113d9" x="66.12468" y="36.69046" style="fill-opacity: 0; stroke: #1f77b4; stroke-width: 0.7"/>
     <use xlink:href="#m104c6113d9" x="64.575455" y="39.07383" style="fill-opacity: 0; stroke: #1f77b4; stroke-width: 0.7"/>
     <use xlink:href="#m104c6113d9" x="63.117016" y="40.376235" style="fill-opacity: 0; stroke: #1f77b4; stroke-width: 0.7"/>
     <use xlink:href="#m104c6113d9" x="61.750443" y="41.619626" style="fill-opacity: 0; stroke: #1f77b4; stroke-width: 0.7"/>
     <use xlink:href="#m104c6113d9" x="60.476693" y="36.787315" style="fill-opacity: 0; stroke: #1f77b4; stroke-width: 0.7"/>
     <use xlink:href="#m104c6113d9" x="59.296595" y="35.793008" style="fill-opacity: 0; stroke: #1f77b4; stroke-width: 0.7"/>
     <use xlink:href="#m104c6113d9" x="58.210853" y="37.126551" style="fill-opacity: 0; stroke: #1f77b4; stroke-width: 0.7"/>
     <use xlink:href="#m104c6113d9" x="57.220044" y="38.520188" style="fill-opacity: 0; stroke: #1f77b4; stroke-width: 0.7"/>
     <use xlink:href="#m104c6113d9" x="56.32462" y="37.510646" style="fill-opacity: 0; stroke: #1f77b4; stroke-width: 0.7"/>
     <use xlink:href="#m104c6113d9" x="55.524909" y="35.149757" style="fill-opacity: 0; stroke: #1f77b4; stroke-width: 0.7"/>
     <use xlink:href="#m104c6113d9" x="54.821113" y="36.490283" style="fill-opacity: 0; stroke: #1f77b4; stroke-width: 0.7"/>
     <use xlink:href="#m104c6113d9" x="54.213311" y="39.190444" style="fill-opacity: 0; stroke: #1f77b4; stroke-width: 0.7"/>
     <use xlink:href="#m104c6113d9" x="53.701464" y="40.857118" style="fill-opacity: 0; stroke: #1f77b4; stroke-width: 0.7"/>
     <use xlink:href="#m104c6113d9" x="53.285411" y="32.41202" style="fill-opacity: 0; stroke: #1f77b4; stroke-width: 0.7"/>
     <use xlink:href="#m104c6113d9" x="52.964872" y="37.323017" style="fill-opacity: 0; stroke: #1f77b4; stroke-width: 0.7"/>
     <use xlink:href="#m104c6113d9" x="52.739456" y="39.430394" style="fill-opacity: 0; stroke: #1f77b4; stroke-width: 0.7"/>
     <use xlink:href="#m104c6113d9" x="52.608655" y="42.95106" style="fill-opacity: 0; stroke: #1f77b4; stroke-width: 0.7"/>
     <use xlink:href="#m104c6113d9" x="52.571853" y="44.048697" style="fill-opacity: 0; stroke: #1f77b4; stroke-width: 0.7"/>
     <use xlink:href="#m104c6113d9" x="52.628325" y="38.77479" style="fill-opacity: 0; stroke: #1f77b4; stroke-width: 0.7"/>
     <use xlink:href="#m104c6113d9" x="52.777243" y="39.857311" style="fill-opacity: 0; stroke: #1f77b4; stroke-width: 0.7"/>
     <use xlink:href="#m104c6113d9" x="53.017675" y="43.488719" style="fill-opacity: 0; stroke: #1f77b4; stroke-width: 0.7"/>
     <use xlink:href="#m104c6113d9" x="53.348593" y="41.598281" style="fill-opacity: 0; stroke: #1f77b4; stroke-width: 0.7"/>
     <use xlink:href="#m104c6113d9" x="53.768873" y="48.466134" style="fill-opacity: 0; stroke: #1f77b4; stroke-width: 0.7"/>
     <use xlink:href="#m104c6113d9" x="54.2773" y="47.625156" style="fill-opacity: 0; stroke: #1f77b4; stroke-width: 0.7"/>
     <use xlink:href="#m104c6113d9" x="54.87257" y="45.507121" style="fill-opacity: 0; stroke: #1f77b4; stroke-width: 0.7"/>
     <use xlink:href="#m104c6113d9" x="55.553296" y="49.223572" style="fill-opacity: 0; stroke: #1f77b4; stroke-width: 0.7"/>
     <use xlink:href="#m104c6113d9" x="56.318011" y="52.062601" style="fill-opacity: 0; stroke: #1f77b4; stroke-width: 0.7"/>
     <use xlink:href="#m104c6113d9" x="57.16517" y="50.611488" style="fill-opacity: 0; stroke: #1f77b4; stroke-width: 0.7"/>
     <use xlink:href="#m104c6113d9" x="58.093158" y="54.379983" style="fill-opacity: 0; stroke: #1f77b4; stroke-width: 0.7"/>
     <use xlink:href="#m104c6113d9" x="59.100289" y="52.586869" style="fill-opacity: 0; stroke: #1f77b4; stroke-width: 0.7"/>
     <use xlink:href="#m104c6113d9" x="60.184815" y="53.260129" style="fill-opacity: 0; stroke: #1f77b4; stroke-width: 0.7"/>
     <use xlink:href="#m104c6113d9" x="61.344925" y="57.079928" style="fill-opacity: 0; stroke: #1f77b4; stroke-width: 0.7"/>
     <use xlink:href="#m104c6113d9" x="62.578755" y="53.779743" style="fill-opacity: 0; stroke: #1f77b4; stroke-width: 0.7"/>
     <use xlink:href="#m104c6113d9" x="63.884387" y="56.977652" style="fill-opacity: 0; stroke: #1f77b4; stroke-width: 0.7"/>
     <use xlink:href="#m104c6113d9" x="65.259855" y="55.070068" style="fill-opacity: 0; stroke: #1f77b4; stroke-width: 0.7"/>
     <use xlink:href="#m104c6113d9" x="66.703152" y="60.046664" style="fill-opacity: 0; stroke: #1f77b4; stroke-width: 0.7"/>
     <use xlink:href="#m104c6113d9" x="68.212228" y="59.472195" style="fill-opacity: 0; stroke: #1f77b4; stroke-width: 0.7"/>
     <use xlink:href="#m104c6113d9" x="69.785" y="57.314046" style="fill-opacity: 0; stroke: #1f77b4; stroke-width: 0.7"/>
     <use xlink:href="#m104c6113d9" x="71.419355" y="60.211629" style="fill-opacity: 0; stroke: #1f77b4; stroke-width: 0.7"/>
     <use xlink:href="#m104c6113d9" x="73.11315" y="60.975182" style="fill-opacity: 0; stroke: #1f77b4; stroke-width: 0.7"/>
     <use xlink:href="#m104c6113d9" x="74.864222" y="64.045992" style="fill-opacity: 0; stroke: #1f77b4; stroke-width: 0.7"/>
     <use xlink:href="#m104c6113d9" x="76.670389" y="63.545292" style="fill-opacity: 0; stroke: #1f77b4; stroke-width: 0.7"/>
     <use xlink:href="#m104c6113d9" x="78.529451" y="65.463499" style="fill-opacity: 0; stroke: #1f77b4; stroke-width: 0.7"/>
     <use xlink:href="#m104c6113d9" x="80.439202" y="66.457905" style="fill-opacity: 0; stroke: #1f77b4; stroke-width: 0.7"/>
     <use xlink:href="#m104c6113d9" x="82.397427" y="68.930892" style="fill-opacity: 0; stroke: #1f77b4; stroke-width: 0.7"/>
     <use xlink:href="#m104c6113d9" x="84.401907" y="67.186172" style="fill-opacity: 0; stroke: #1f77b4; stroke-width: 0.7"/>
     <use xlink:href="#m104c6113d9" x="86.450425" y="68.953391" style="fill-opacity: 0; stroke: #1f77b4; stroke-width: 0.7"/>
     <use xlink:href="#m104c6113d9" x="88.540768" y="71.625119" style="fill-opacity: 0; stroke: #1f77b4; stroke-width: 0.7"/>
     <use xlink:href="#m104c6113d9" x="90.670733" y="69.978499" style="fill-opacity: 0; stroke: #1f77b4; stroke-width: 0.7"/>
     <use xlink:href="#m104c6113d9" x="92.838125" y="69.174821" style="fill-opacity: 0; stroke: #1f77b4; stroke-width: 0.7"/>
     <use xlink:href="#m104c6113d9" x="95.040768" y="72.036791" style="fill-opacity: 0; stroke: #1f77b4; stroke-width: 0.7"/>
     <use xlink:href="#m104c6113d9" x="97.276503" y="71.340953" style="fill-opacity: 0; stroke: #1f77b4; stroke-width: 0.7"/>
     <use xlink:href="#m104c6113d9" x="99.543191" y="73.31019" style="fill-opacity: 0; stroke: #1f77b4; stroke-width: 0.7"/>
     <use xlink:href="#m104c6113d9" x="101.838722" y="76.621409" style="fill-opacity: 0; stroke: #1f77b4; stroke-width: 0.7"/>
     <use xlink:href="#m104c6113d9" x="104.161009" y="72.138063" style="fill-opacity: 0; stroke: #1f77b4; stroke-width: 0.7"/>
     <use xlink:href="#m104c6113d9" x="106.508002" y="74.756539" style="fill-opacity: 0; stroke: #1f77b4; stroke-width: 0.7"/>
     <use xlink:href="#m104c6113d9" x="108.877679" y="78.634361" style="fill-opacity: 0; stroke: #1f77b4; stroke-width: 0.7"/>
     <use xlink:href="#m104c6113d9" x="111.268059" y="78.241521" style="fill-opacity: 0; stroke: #1f77b4; stroke-width: 0.7"/>
     <use xlink:href="#m104c6113d9" x="113.677198" y="77.889327" style="fill-opacity: 0; stroke: #1f77b4; stroke-width: 0.7"/>
     <use xlink:href="#m104c6113d9" x="116.103196" y="78.933546" style="fill-opacity: 0; stroke: #1f77b4; stroke-width: 0.7"/>
     <use xlink:href="#m104c6113d9" x="118.544193" y="80.0412" style="fill-opacity: 0; stroke: #1f77b4; stroke-width: 0.7"/>
     <use xlink:href="#m104c6113d9" x="120.998381" y="81.735849" style="fill-opacity: 0; stroke: #1f77b4; stroke-width: 0.7"/>
     <use xlink:href="#m104c6113d9" x="123.463998" y="78.852182" style="fill-opacity: 0; stroke: #1f77b4; stroke-width: 0.7"/>
     <use xlink:href="#m104c6113d9" x="125.939332" y="80.477675" style="fill-opacity: 0; stroke: #1f77b4; stroke-width: 0.7"/>
     <use xlink:href="#m104c6113d9" x="128.422725" y="90.032753" style="fill-opacity: 0; stroke: #1f77b4; stroke-width: 0.7"/>
     <use xlink:href="#m104c6113d9" x="130.912573" y="87.157643" style="fill-opacity: 0; stroke: #1f77b4; stroke-width: 0.7"/>
     <use xlink:href="#m104c6113d9" x="133.40733" y="90.560929" style="fill-opacity: 0; stroke: #1f77b4; stroke-width: 0.7"/>
     <use xlink:href="#m104c6113d9" x="135.905505" y="89.103971" style="fill-opacity: 0; stroke: #1f77b4; stroke-width: 0.7"/>
     <use xlink:href="#m104c6113d9" x="138.405668" y="89.439593" style="fill-opacity: 0; stroke: #1f77b4; stroke-width: 0.7"/>
     <use xlink:href="#m104c6113d9" x="140.90645" y="92.47224" style="fill-opacity: 0; stroke: #1f77b4; stroke-width: 0.7"/>
     <use xlink:href="#m104c6113d9" x="143.406542" y="93.912952" style="fill-opacity: 0; stroke: #1f77b4; stroke-width: 0.7"/>
     <use xlink:href="#m104c6113d9" x="145.9047" y="94.566252" style="fill-opacity: 0; stroke: #1f77b4; stroke-width: 0.7"/>
     <use xlink:href="#m104c6113d9" x="148.399743" y="100.600595" style="fill-opacity: 0; stroke: #1f77b4; stroke-width: 0.7"/>
     <use xlink:href="#m104c6113d9" x="150.890553" y="100.342639" style="fill-opacity: 0; stroke: #1f77b4; stroke-width: 0.7"/>
     <use xlink:href="#m104c6113d9" x="153.376079" y="101.761027" style="fill-opacity: 0; stroke: #1f77b4; stroke-width: 0.7"/>
     <use xlink:href="#m104c6113d9" x="155.855337" y="100.037282" style="fill-opacity: 0; stroke: #1f77b4; stroke-width: 0.7"/>
     <use xlink:href="#m104c6113d9" x="158.327407" y="108.466761" style="fill-opacity: 0; stroke: #1f77b4; stroke-width: 0.7"/>
     <use xlink:href="#m104c6113d9" x="160.791437" y="107.961401" style="fill-opacity: 0; stroke: #1f77b4; stroke-width: 0.7"/>
     <use xlink:href="#m104c6113d9" x="163.246641" y="108.238558" style="fill-opacity: 0; stroke: #1f77b4; stroke-width: 0.7"/>
     <use xlink:href="#m104c6113d9" x="165.692302" y="110.100186" style="fill-opacity: 0; stroke: #1f77b4; stroke-width: 0.7"/>
     <use xlink:href="#m104c6113d9" x="168.127768" y="114.427464" style="fill-opacity: 0; stroke: #1f77b4; stroke-width: 0.7"/>
     <use xlink:href="#m104c6113d9" x="170.552454" y="115.525992" style="fill-opacity: 0; stroke: #1f77b4; stroke-width: 0.7"/>
     <use xlink:href="#m104c6113d9" x="172.965843" y="116.292906" style="fill-opacity: 0; stroke: #1f77b4; stroke-width: 0.7"/>
     <use xlink:href="#m104c6113d9" x="175.367482" y="113.753782" style="fill-opacity: 0; stroke: #1f77b4; stroke-width: 0.7"/>
     <use xlink:href="#m104c6113d9" x="177.756986" y="117.755001" style="fill-opacity: 0; stroke: #1f77b4; stroke-width: 0.7"/>
     <use xlink:href="#m104c6113d9" x="180.134033" y="121.033024" style="fill-opacity: 0; stroke: #1f77b4; stroke-width: 0.7"/>
     <use xlink:href="#m104c6113d9" x="182.498368" y="119.067836" style="fill-opacity: 0; stroke: #1f77b4; stroke-width: 0.7"/>
     <use xlink:href="#m104c6113d9" x="184.849796" y="122.368797" style="fill-opacity: 0; stroke: #1f77b4; stroke-width: 0.7"/>
     <use xlink:href="#m104c6113d9" x="187.188189" y="109.171126" style="fill-opacity: 0; stroke: #1f77b4; stroke-width: 0.7"/>
     <use xlink:href="#m104c6113d9" x="189.513476" y="110.798766" style="fill-opacity: 0; stroke: #1f77b4; stroke-width: 0.7"/>
     <use xlink:href="#m104c6113d9" x="191.825651" y="111.818216" style="fill-opacity: 0; stroke: #1f77b4; stroke-width: 0.7"/>
     <use xlink:href="#m104c6113d9" x="194.124763" y="113.170618" style="fill-opacity: 0; stroke: #1f77b4; stroke-width: 0.7"/>
     <use xlink:href="#m104c6113d9" x="196.410921" y="112.179671" style="fill-opacity: 0; stroke: #1f77b4; stroke-width: 0.7"/>
     <use xlink:href="#m104c6113d9" x="198.684291" y="115.601927" style="fill-opacity: 0; stroke: #1f77b4; stroke-width: 0.7"/>
     <use xlink:href="#m104c6113d9" x="200.945094" y="119.293278" style="fill-opacity: 0; stroke: #1f77b4; stroke-width: 0.7"/>
     <use xlink:href="#m104c6113d9" x="203.193601" y="121.723676" style="fill-opacity: 0; stroke: #1f77b4; stroke-width: 0.7"/>
     <use xlink:href="#m104c6113d9" x="205.430139" y="124.979584" style="fill-opacity: 0; stroke: #1f77b4; stroke-width: 0.7"/>
     <use xlink:href="#m104c6113d9" x="207.655082" y="122.136947" style="fill-opacity: 0; stroke: #1f77b4; stroke-width: 0.7"/>
     <use xlink:href="#m104c6113d9" x="209.868852" y="127.748111" style="fill-opacity: 0; stroke: #1f77b4; stroke-width: 0.7"/>
     <use xlink:href="#m104c6113d9" x="212.071917" y="127.879869" style="fill-opacity: 0; stroke: #1f77b4; stroke-width: 0.7"/>
     <use xlink:href="#m104c6113d9" x="214.26479" y="128.13213" style="fill-opacity: 0; stroke: #1f77b4; stroke-width: 0.7"/>
     <use xlink:href="#m104c6113d9" x="216.448024" y="126.893819" style="fill-opacity: 0; stroke: #1f77b4; stroke-width: 0.7"/>
     <use xlink:href="#m104c6113d9" x="218.622211" y="126.577765" style="fill-opacity: 0; stroke: #1f77b4; stroke-width: 0.7"/>
     <use xlink:href="#m104c6113d9" x="220.787981" y="128.350122" style="fill-opacity: 0; stroke: #1f77b4; stroke-width: 0.7"/>
     <use xlink:href="#m104c6113d9" x="222.945999" y="131.017788" style="fill-opacity: 0; stroke: #1f77b4; stroke-width: 0.7"/>
     <use xlink:href="#m104c6113d9" x="225.09696" y="126.581829" style="fill-opacity: 0; stroke: #1f77b4; stroke-width: 0.7"/>
     <use xlink:href="#m104c6113d9" x="227.241589" y="129.113908" style="fill-opacity: 0; stroke: #1f77b4; stroke-width: 0.7"/>
     <use xlink:href="#m104c6113d9" x="229.38064" y="127.886794" style="fill-opacity: 0; stroke: #1f77b4; stroke-width: 0.7"/>
     <use xlink:href="#m104c6113d9" x="231.514888" y="134.513068" style="fill-opacity: 0; stroke: #1f77b4; stroke-width: 0.7"/>
     <use xlink:href="#m104c6113d9" x="233.645131" y="129.619258" style="fill-opacity: 0; stroke: #1f77b4; stroke-width: 0.7"/>
     <use xlink:href="#m104c6113d9" x="235.772185" y="130.296024" style="fill-opacity: 0; stroke: #1f77b4; stroke-width: 0.7"/>
     <use xlink:href="#m104c6113d9" x="237.896882" y="131.459551" style="fill-opacity: 0; stroke: #1f77b4; stroke-width: 0.7"/>
     <use xlink:href="#m104c6113d9" x="240.020065" y="128.088232" style="fill-opacity: 0; stroke: #1f77b4; stroke-width: 0.7"/>
     <use xlink:href="#m104c6113d9" x="242.142589" y="132.213466" style="fill-opacity: 0; stroke: #1f77b4; stroke-width: 0.7"/>
     <use xlink:href="#m104c6113d9" x="244.265312" y="127.952557" style="fill-opacity: 0; stroke: #1f77b4; stroke-width: 0.7"/>
     <use xlink:href="#m104c6113d9" x="246.389097" y="129.593051" style="fill-opacity: 0; stroke: #1f77b4; stroke-width: 0.7"/>
     <use xlink:href="#m104c6113d9" x="248.514807" y="132.6799" style="fill-opacity: 0; stroke: #1f77b4; stroke-width: 0.7"/>
     <use xlink:href="#m104c6113d9" x="250.643301" y="132.386905" style="fill-opacity: 0; stroke: #1f77b4; stroke-width: 0.7"/>
     <use xlink:href="#m104c6113d9" x="252.77543" y="134.828988" style="fill-opacity: 0; stroke: #1f77b4; stroke-width: 0.7"/>
     <use xlink:href="#m104c6113d9" x="254.912037" y="133.880348" style="fill-opacity: 0; stroke: #1f77b4; stroke-width: 0.7"/>
     <use xlink:href="#m104c6113d9" x="257.053949" y="131.745839" style="fill-opacity: 0; stroke: #1f77b4; stroke-width: 0.7"/>
     <use xlink:href="#m104c6113d9" x="259.201977" y="135.36458" style="fill-opacity: 0; stroke: #1f77b4; stroke-width: 0.7"/>
     <use xlink:href="#m104c6113d9" x="261.356911" y="135.921796" style="fill-opacity: 0; stroke: #1f77b4; stroke-width: 0.7"/>
     <use xlink:href="#m104c6113d9" x="263.519515" y="135.043292" style="fill-opacity: 0; stroke: #1f77b4; stroke-width: 0.7"/>
     <use xlink:href="#m104c6113d9" x="265.690526" y="137.230399" style="fill-opacity: 0; stroke: #1f77b4; stroke-width: 0.7"/>
     <use xlink:href="#m104c6113d9" x="267.870647" y="135.727222" style="fill-opacity: 0; stroke: #1f77b4; stroke-width: 0.7"/>
     <use xlink:href="#m104c6113d9" x="270.060548" y="137.294621" style="fill-opacity: 0; stroke: #1f77b4; stroke-width: 0.7"/>
     <use xlink:href="#m104c6113d9" x="272.260857" y="136.799952" style="fill-opacity: 0; stroke: #1f77b4; stroke-width: 0.7"/>
     <use xlink:href="#m104c6113d9" x="274.472158" y="135.26542" style="fill-opacity: 0; stroke: #1f77b4; stroke-width: 0.7"/>
     <use xlink:href="#m104c6113d9" x="276.694988" y="134.873357" style="fill-opacity: 0; stroke: #1f77b4; stroke-width: 0.7"/>
     <use xlink:href="#m104c6113d9" x="278.929832" y="139.97016" style="fill-opacity: 0; stroke: #1f77b4; stroke-width: 0.7"/>
     <use xlink:href="#m104c6113d9" x="281.177119" y="138.237927" style="fill-opacity: 0; stroke: #1f77b4; stroke-width: 0.7"/>
     <use xlink:href="#m104c6113d9" x="283.437217" y="135.989204" style="fill-opacity: 0; stroke: #1f77b4; stroke-width: 0.7"/>
     <use xlink:href="#m104c6113d9" x="285.710432" y="136.573345" style="fill-opacity: 0; stroke: #1f77b4; stroke-width: 0.7"/>
     <use xlink:href="#m104c6113d9" x="287.996998" y="137.349708" style="fill-opacity: 0; stroke: #1f77b4; stroke-width: 0.7"/>
     <use xlink:href="#m104c6113d9" x="290.29708" y="138.862681" style="fill-opacity: 0; stroke: #1f77b4; stroke-width: 0.7"/>
     <use xlink:href="#m104c6113d9" x="292.610762" y="140.770537" style="fill-opacity: 0; stroke: #1f77b4; stroke-width: 0.7"/>
     <use xlink:href="#m104c6113d9" x="294.938048" y="138.204339" style="fill-opacity: 0; stroke: #1f77b4; stroke-width: 0.7"/>
     <use xlink:href="#m104c6113d9" x="297.278857" y="136.960813" style="fill-opacity: 0; stroke: #1f77b4; stroke-width: 0.7"/>
     <use xlink:href="#m104c6113d9" x="299.633016" y="136.94694" style="fill-opacity: 0; stroke: #1f77b4; stroke-width: 0.7"/>
     <use xlink:href="#m104c6113d9" x="302.000257" y="137.569605" style="fill-opacity: 0; stroke: #1f77b4; stroke-width: 0.7"/>
     <use xlink:href="#m104c6113d9" x="304.380211" y="138.522463" style="fill-opacity: 0; stroke: #1f77b4; stroke-width: 0.7"/>
     <use xlink:href="#m104c6113d9" x="306.772406" y="137.870235" style="fill-opacity: 0; stroke: #1f77b4; stroke-width: 0.7"/>
     <use xlink:href="#m104c6113d9" x="309.17626" y="141.367333" style="fill-opacity: 0; stroke: #1f77b4; stroke-width: 0.7"/>
     <use xlink:href="#m104c6113d9" x="311.591076" y="145.607969" style="fill-opacity: 0; stroke: #1f77b4; stroke-width: 0.7"/>
     <use xlink:href="#m104c6113d9" x="314.01604" y="140.456184" style="fill-opacity: 0; stroke: #1f77b4; stroke-width: 0.7"/>
     <use xlink:href="#m104c6113d9" x="316.450211" y="141.525013" style="fill-opacity: 0; stroke: #1f77b4; stroke-width: 0.7"/>
     <use xlink:href="#m104c6113d9" x="318.892521" y="142.09105" style="fill-opacity: 0; stroke: #1f77b4; stroke-width: 0.7"/>
     <use xlink:href="#m104c6113d9" x="321.341768" y="142.022212" style="fill-opacity: 0; stroke: #1f77b4; stroke-width: 0.7"/>
     <use xlink:href="#m104c6113d9" x="323.796609" y="139.525912" style="fill-opacity: 0; stroke: #1f77b4; stroke-width: 0.7"/>
     <use xlink:href="#m104c6113d9" x="326.255558" y="140.768052" style="fill-opacity: 0; stroke: #1f77b4; stroke-width: 0.7"/>
     <use xlink:href="#m104c6113d9" x="328.716978" y="138.797487" style="fill-opacity: 0; stroke: #1f77b4; stroke-width: 0.7"/>
     <use xlink:href="#m104c6113d9" x="331.179078" y="137.942723" style="fill-opacity: 0; stroke: #1f77b4; stroke-width: 0.7"/>
     <use xlink:href="#m104c6113d9" x="333.639906" y="136.407922" style="fill-opacity: 0; stroke: #1f77b4; stroke-width: 0.7"/>
     <use xlink:href="#m104c6113d9" x="336.097342" y="137.929779" style="fill-opacity: 0; stroke: #1f77b4; stroke-width: 0.7"/>
     <use xlink:href="#m104c6113d9" x="338.549098" y="140.813435" style="fill-opacity: 0; stroke: #1f77b4; stroke-width: 0.7"/>
     <use xlink:href="#m104c6113d9" x="340.992704" y="137.755257" style="fill-opacity: 0; stroke: #1f77b4; stroke-width: 0.7"/>
     <use xlink:href="#m104c6113d9" x="343.425511" y="140.236397" style="fill-opacity: 0; stroke: #1f77b4; stroke-width: 0.7"/>
     <use xlink:href="#m104c6113d9" x="345.844678" y="138.273594" style="fill-opacity: 0; stroke: #1f77b4; stroke-width: 0.7"/>
     <use xlink:href="#m104c6113d9" x="348.24717" y="139.762533" style="fill-opacity: 0; stroke: #1f77b4; stroke-width: 0.7"/>
     <use xlink:href="#m104c6113d9" x="350.629751" y="137.982858" style="fill-opacity: 0; stroke: #1f77b4; stroke-width: 0.7"/>
     <use xlink:href="#m104c6113d9" x="352.988977" y="140.213563" style="fill-opacity: 0; stroke: #1f77b4; stroke-width: 0.7"/>
     <use xlink:href="#m104c6113d9" x="355.321192" y="138.564018" style="fill-opacity: 0; stroke: #1f77b4; stroke-width: 0.7"/>
     <use xlink:href="#m104c6113d9" x="357.622518" y="135.258304" style="fill-opacity: 0; stroke: #1f77b4; stroke-width: 0.7"/>
     <use xlink:href="#m104c6113d9" x="359.888851" y="140.087185" style="fill-opacity: 0; stroke: #1f77b4; stroke-width: 0.7"/>
     <use xlink:href="#m104c6113d9" x="362.115856" y="138.153508" style="fill-opacity: 0; stroke: #1f77b4; stroke-width: 0.7"/>
     <use xlink:href="#m104c6113d9" x="364.298957" y="137.482737" style="fill-opacity: 0; stroke: #1f77b4; stroke-width: 0.7"/>
     <use xlink:href="#m104c6113d9" x="366.433331" y="140.044001" style="fill-opacity: 0; stroke: #1f77b4; stroke-width: 0.7"/>
     <use xlink:href="#m104c6113d9" x="368.513903" y="137.008368" style="fill-opacity: 0; stroke: #1f77b4; stroke-width: 0.7"/>
     <use xlink:href="#m104c6113d9" x="370.535335" y="139.647745" style="fill-opacity: 0; stroke: #1f77b4; stroke-width: 0.7"/>
     <use xlink:href="#m104c6113d9" x="372.492024" y="140.008684" style="fill-opacity: 0; stroke: #1f77b4; stroke-width: 0.7"/>
     <use xlink:href="#m104c6113d9" x="374.378091" y="136.797314" style="fill-opacity: 0; stroke: #1f77b4; stroke-width: 0.7"/>
     <use xlink:href="#m104c6113d9" x="376.187374" y="136.665939" style="fill-opacity: 0; stroke: #1f77b4; stroke-width: 0.7"/>
     <use xlink:href="#m104c6113d9" x="377.91342" y="134.881919" style="fill-opacity: 0; stroke: #1f77b4; stroke-width: 0.7"/>
     <use xlink:href="#m104c6113d9" x="379.549481" y="137.593651" style="fill-opacity: 0; stroke: #1f77b4; stroke-width: 0.7"/>
     <use xlink:href="#m104c6113d9" x="381.088499" y="140.870059" style="fill-opacity: 0; stroke: #1f77b4; stroke-width: 0.7"/>
     <use xlink:href="#m104c6113d9" x="382.523106" y="140.279564" style="fill-opacity: 0; stroke: #1f77b4; stroke-width: 0.7"/>
     <use xlink:href="#m104c6113d9" x="383.845608" y="141.194311" style="fill-opacity: 0; stroke: #1f77b4; stroke-width: 0.7"/>
    </g>
   </g>
   <g id="line2d_19">
    <path d="M 69.49054 162.252413 
L 52.571853 162.252413 
L 383.845608 162.252413 
L 383.845608 162.252413 
" clip-path="url(#p8859e201b5)" style="fill: none; stroke-dasharray: 7.4,3.2; stroke-dashoffset: 0; stroke: #ff7f0e; stroke-width: 2"/>
   </g>
   <g id="patch_3">
    <path d="M 54 192.24 
L 54 25.92 
" style="fill: none; stroke: #000000; stroke-width: 0.8; stroke-linejoin: miter; stroke-linecap: square"/>
   </g>
   <g id="patch_4">
    <path d="M 388.8 192.24 
L 388.8 25.92 
" style="fill: none; stroke: #000000; stroke-width: 0.8; stroke-linejoin: miter; stroke-linecap: square"/>
   </g>
   <g id="patch_5">
    <path d="M 54 192.24 
L 388.8 192.24 
" style="fill: none; stroke: #000000; stroke-width: 0.8; stroke-linejoin: miter; stroke-linecap: square"/>
   </g>
   <g id="patch_6">
    <path d="M 54 25.92 
L 388.8 25.92 
" style="fill: none; stroke: #000000; stroke-width: 0.8; stroke-linejoin: miter; stroke-linecap: square"/>
   </g>
  </g>
 </g>
 <defs>
  <clipPath id="p8859e201b5">
   <rect x="54" y="25.92" width="334.8" height="166.32"/>
  </clipPath>
 </defs>
</svg>
