<?xml version="1.0" encoding="utf-8" standalone="no"?>
<!DOCTYPE svg PUBLIC "-//W3C//DTD SVG 1.1//EN"
  "http://www.w3.org/Graphics/SVG/1.1/DTD/svg11.dtd">
<svg xmlns:xlink="http://www.w3.org/1999/xlink" width="324pt" height="216pt" viewBox="0 0 324 216" xmlns="http://www.w3.org/2000/svg" version="1.1">
 <metadata>
  <rdf:RDF xmlns:dc="http://purl.org/dc/elements/1.1/" xmlns:cc="http://creativecommons.org/ns#" xmlns:rdf="http://www.w3.org/1999/02/22-rdf-syntax-ns#">
   <cc:Work>
    <dc:type rdf:resource="http://purl.org/dc/dcmitype/StillImage"/>
    <dc:date>2022-06-10T16:24:51.588346</dc:date>
    <dc:format>image/svg+xml</dc:format>
    <dc:creator>
     <cc:Agent>
      <dc:title>Matplotlib v3.5.1, https://matplotlib.org/</dc:title>
     </cc:Agent>
    </dc:creator>
   </cc:Work>
  </rdf:RDF>
 </metadata>
 <defs>
  <style type="text/css">*{stroke-linejoin: round; stroke-linecap: butt}</style>
 </defs>
 <g id="figure_1">
  <g id="patch_1">
   <path d="M 0 216 
L 324 216 
L 324 0 
L 0 0 
z
" style="fill: #ffffff"/>
  </g>
  <g id="axes_1">
   <g id="patch_2">
    <path d="M 40.5 192.24 
L 291.6 192.24 
L 291.6 25.92 
L 40.5 25.92 
z
" style="fill: #ffffff"/>
   </g>
   <g id="matplotlib.axis_1">
    <g id="xtick_1">
     <g id="line2d_1">
      <defs>
       <path id="mdfd7231626" d="M 0 0 
L 0 3.5 
" style="stroke: #000000; stroke-width: 0.8"/>
      </defs>
      <g>
       <use xlink:href="#mdfd7231626" x="52.880371" y="192.24" style="stroke: #000000; stroke-width: 0.8"/>
      </g>
     </g>
     <g id="text_1">
      <!-- 20 -->
      <g transform="translate(45.245371 208.358125)scale(0.12 -0.12)">
       <defs>
        <path id="DejaVuSans-32" d="M 1228 531 
L 3431 531 
L 3431 0 
L 469 0 
L 469 531 
Q 828 903 1448 1529 
Q 2069 2156 2228 2338 
Q 2531 2678 2651 2914 
Q 2772 3150 2772 3378 
Q 2772 3750 2511 3984 
Q 2250 4219 1831 4219 
Q 1534 4219 1204 4116 
Q 875 4013 500 3803 
L 500 4441 
Q 881 4594 1212 4672 
Q 1544 4750 1819 4750 
Q 2544 4750 2975 4387 
Q 3406 4025 3406 3419 
Q 3406 3131 3298 2873 
Q 3191 2616 2906 2266 
Q 2828 2175 2409 1742 
Q 1991 1309 1228 531 
z
" transform="scale(0.015625)"/>
        <path id="DejaVuSans-30" d="M 2034 4250 
Q 1547 4250 1301 3770 
Q 1056 3291 1056 2328 
Q 1056 1369 1301 889 
Q 1547 409 2034 409 
Q 2525 409 2770 889 
Q 3016 1369 3016 2328 
Q 3016 3291 2770 3770 
Q 2525 4250 2034 4250 
z
M 2034 4750 
Q 2819 4750 3233 4129 
Q 3647 3509 3647 2328 
Q 3647 1150 3233 529 
Q 2819 -91 2034 -91 
Q 1250 -91 836 529 
Q 422 1150 422 2328 
Q 422 3509 836 4129 
Q 1250 4750 2034 4750 
z
" transform="scale(0.015625)"/>
       </defs>
       <use xlink:href="#DejaVuSans-32"/>
       <use xlink:href="#DejaVuSans-30" x="63.623047"/>
      </g>
     </g>
    </g>
    <g id="xtick_2">
     <g id="line2d_2">
      <g>
       <use xlink:href="#mdfd7231626" x="94.018004" y="192.24" style="stroke: #000000; stroke-width: 0.8"/>
      </g>
     </g>
     <g id="text_2">
      <!-- 40 -->
      <g transform="translate(86.383004 208.358125)scale(0.12 -0.12)">
       <defs>
        <path id="DejaVuSans-34" d="M 2419 4116 
L 825 1625 
L 2419 1625 
L 2419 4116 
z
M 2253 4666 
L 3047 4666 
L 3047 1625 
L 3713 1625 
L 3713 1100 
L 3047 1100 
L 3047 0 
L 2419 0 
L 2419 1100 
L 313 1100 
L 313 1709 
L 2253 4666 
z
" transform="scale(0.015625)"/>
       </defs>
       <use xlink:href="#DejaVuSans-34"/>
       <use xlink:href="#DejaVuSans-30" x="63.623047"/>
      </g>
     </g>
    </g>
    <g id="xtick_3">
     <g id="line2d_3">
      <g>
       <use xlink:href="#mdfd7231626" x="135.155637" y="192.24" style="stroke: #000000; stroke-width: 0.8"/>
      </g>
     </g>
     <g id="text_3">
      <!-- 60 -->
      <g transform="translate(127.520637 208.358125)scale(0.12 -0.12)">
       <defs>
        <path id="DejaVuSans-36" d="M 2113 2584 
Q 1688 2584 1439 2293 
Q 1191 2003 1191 1497 
Q 1191 994 1439 701 
Q 1688 409 2113 409 
Q 2538 409 2786 701 
Q 3034 994 3034 1497 
Q 3034 2003 2786 2293 
Q 2538 2584 2113 2584 
z
M 3366 4563 
L 3366 3988 
Q 3128 4100 2886 4159 
Q 2644 4219 2406 4219 
Q 1781 4219 1451 3797 
Q 1122 3375 1075 2522 
Q 1259 2794 1537 2939 
Q 1816 3084 2150 3084 
Q 2853 3084 3261 2657 
Q 3669 2231 3669 1497 
Q 3669 778 3244 343 
Q 2819 -91 2113 -91 
Q 1303 -91 875 529 
Q 447 1150 447 2328 
Q 447 3434 972 4092 
Q 1497 4750 2381 4750 
Q 2619 4750 2861 4703 
Q 3103 4656 3366 4563 
z
" transform="scale(0.015625)"/>
       </defs>
       <use xlink:href="#DejaVuSans-36"/>
       <use xlink:href="#DejaVuSans-30" x="63.623047"/>
      </g>
     </g>
    </g>
    <g id="xtick_4">
     <g id="line2d_4">
      <g>
       <use xlink:href="#mdfd7231626" x="176.293271" y="192.24" style="stroke: #000000; stroke-width: 0.8"/>
      </g>
     </g>
     <g id="text_4">
      <!-- 80 -->
      <g transform="translate(168.658271 208.358125)scale(0.12 -0.12)">
       <defs>
        <path id="DejaVuSans-38" d="M 2034 2216 
Q 1584 2216 1326 1975 
Q 1069 1734 1069 1313 
Q 1069 891 1326 650 
Q 1584 409 2034 409 
Q 2484 409 2743 651 
Q 3003 894 3003 1313 
Q 3003 1734 2745 1975 
Q 2488 2216 2034 2216 
z
M 1403 2484 
Q 997 2584 770 2862 
Q 544 3141 544 3541 
Q 544 4100 942 4425 
Q 1341 4750 2034 4750 
Q 2731 4750 3128 4425 
Q 3525 4100 3525 3541 
Q 3525 3141 3298 2862 
Q 3072 2584 2669 2484 
Q 3125 2378 3379 2068 
Q 3634 1759 3634 1313 
Q 3634 634 3220 271 
Q 2806 -91 2034 -91 
Q 1263 -91 848 271 
Q 434 634 434 1313 
Q 434 1759 690 2068 
Q 947 2378 1403 2484 
z
M 1172 3481 
Q 1172 3119 1398 2916 
Q 1625 2713 2034 2713 
Q 2441 2713 2670 2916 
Q 2900 3119 2900 3481 
Q 2900 3844 2670 4047 
Q 2441 4250 2034 4250 
Q 1625 4250 1398 4047 
Q 1172 3844 1172 3481 
z
" transform="scale(0.015625)"/>
       </defs>
       <use xlink:href="#DejaVuSans-38"/>
       <use xlink:href="#DejaVuSans-30" x="63.623047"/>
      </g>
     </g>
    </g>
    <g id="xtick_5">
     <g id="line2d_5">
      <g>
       <use xlink:href="#mdfd7231626" x="217.430904" y="192.24" style="stroke: #000000; stroke-width: 0.8"/>
      </g>
     </g>
     <g id="text_5">
      <!-- 100 -->
      <g transform="translate(205.978404 208.358125)scale(0.12 -0.12)">
       <defs>
        <path id="DejaVuSans-31" d="M 794 531 
L 1825 531 
L 1825 4091 
L 703 3866 
L 703 4441 
L 1819 4666 
L 2450 4666 
L 2450 531 
L 3481 531 
L 3481 0 
L 794 0 
L 794 531 
z
" transform="scale(0.015625)"/>
       </defs>
       <use xlink:href="#DejaVuSans-31"/>
       <use xlink:href="#DejaVuSans-30" x="63.623047"/>
       <use xlink:href="#DejaVuSans-30" x="127.246094"/>
      </g>
     </g>
    </g>
    <g id="xtick_6">
     <g id="line2d_6">
      <g>
       <use xlink:href="#mdfd7231626" x="258.568537" y="192.24" style="stroke: #000000; stroke-width: 0.8"/>
      </g>
     </g>
     <g id="text_6">
      <!-- 120 -->
      <g transform="translate(247.116037 208.358125)scale(0.12 -0.12)">
       <use xlink:href="#DejaVuSans-31"/>
       <use xlink:href="#DejaVuSans-32" x="63.623047"/>
       <use xlink:href="#DejaVuSans-30" x="127.246094"/>
      </g>
     </g>
    </g>
   </g>
   <g id="matplotlib.axis_2">
    <g id="ytick_1">
     <g id="line2d_7">
      <defs>
       <path id="m1969d41a62" d="M 0 0 
L -3.5 0 
" style="stroke: #000000; stroke-width: 0.8"/>
      </defs>
      <g>
       <use xlink:href="#m1969d41a62" x="40.5" y="192.24" style="stroke: #000000; stroke-width: 0.8"/>
      </g>
     </g>
     <g id="text_7">
      <!-- 0 -->
      <g transform="translate(25.865 196.799062)scale(0.12 -0.12)">
       <use xlink:href="#DejaVuSans-30"/>
      </g>
     </g>
    </g>
    <g id="ytick_2">
     <g id="line2d_8">
      <g>
       <use xlink:href="#m1969d41a62" x="40.5" y="169.31371" style="stroke: #000000; stroke-width: 0.8"/>
      </g>
     </g>
     <g id="text_8">
      <!-- 25 -->
      <g transform="translate(18.23 173.872772)scale(0.12 -0.12)">
       <defs>
        <path id="DejaVuSans-35" d="M 691 4666 
L 3169 4666 
L 3169 4134 
L 1269 4134 
L 1269 2991 
Q 1406 3038 1543 3061 
Q 1681 3084 1819 3084 
Q 2600 3084 3056 2656 
Q 3513 2228 3513 1497 
Q 3513 744 3044 326 
Q 2575 -91 1722 -91 
Q 1428 -91 1123 -41 
Q 819 9 494 109 
L 494 744 
Q 775 591 1075 516 
Q 1375 441 1709 441 
Q 2250 441 2565 725 
Q 2881 1009 2881 1497 
Q 2881 1984 2565 2268 
Q 2250 2553 1709 2553 
Q 1456 2553 1204 2497 
Q 953 2441 691 2322 
L 691 4666 
z
" transform="scale(0.015625)"/>
       </defs>
       <use xlink:href="#DejaVuSans-32"/>
       <use xlink:href="#DejaVuSans-35" x="63.623047"/>
      </g>
     </g>
    </g>
    <g id="ytick_3">
     <g id="line2d_9">
      <g>
       <use xlink:href="#m1969d41a62" x="40.5" y="146.38742" style="stroke: #000000; stroke-width: 0.8"/>
      </g>
     </g>
     <g id="text_9">
      <!-- 50 -->
      <g transform="translate(18.23 150.946482)scale(0.12 -0.12)">
       <use xlink:href="#DejaVuSans-35"/>
       <use xlink:href="#DejaVuSans-30" x="63.623047"/>
      </g>
     </g>
    </g>
    <g id="ytick_4">
     <g id="line2d_10">
      <g>
       <use xlink:href="#m1969d41a62" x="40.5" y="123.46113" style="stroke: #000000; stroke-width: 0.8"/>
      </g>
     </g>
     <g id="text_10">
      <!-- 75 -->
      <g transform="translate(18.23 128.020192)scale(0.12 -0.12)">
       <defs>
        <path id="DejaVuSans-37" d="M 525 4666 
L 3525 4666 
L 3525 4397 
L 1831 0 
L 1172 0 
L 2766 4134 
L 525 4134 
L 525 4666 
z
" transform="scale(0.015625)"/>
       </defs>
       <use xlink:href="#DejaVuSans-37"/>
       <use xlink:href="#DejaVuSans-35" x="63.623047"/>
      </g>
     </g>
    </g>
    <g id="ytick_5">
     <g id="line2d_11">
      <g>
       <use xlink:href="#m1969d41a62" x="40.5" y="100.53484" style="stroke: #000000; stroke-width: 0.8"/>
      </g>
     </g>
     <g id="text_11">
      <!-- 100 -->
      <g transform="translate(10.595 105.093902)scale(0.12 -0.12)">
       <use xlink:href="#DejaVuSans-31"/>
       <use xlink:href="#DejaVuSans-30" x="63.623047"/>
       <use xlink:href="#DejaVuSans-30" x="127.246094"/>
      </g>
     </g>
    </g>
    <g id="ytick_6">
     <g id="line2d_12">
      <g>
       <use xlink:href="#m1969d41a62" x="40.5" y="77.60855" style="stroke: #000000; stroke-width: 0.8"/>
      </g>
     </g>
     <g id="text_12">
      <!-- 125 -->
      <g transform="translate(10.595 82.167612)scale(0.12 -0.12)">
       <use xlink:href="#DejaVuSans-31"/>
       <use xlink:href="#DejaVuSans-32" x="63.623047"/>
       <use xlink:href="#DejaVuSans-35" x="127.246094"/>
      </g>
     </g>
    </g>
    <g id="ytick_7">
     <g id="line2d_13">
      <g>
       <use xlink:href="#m1969d41a62" x="40.5" y="54.68226" style="stroke: #000000; stroke-width: 0.8"/>
      </g>
     </g>
     <g id="text_13">
      <!-- 150 -->
      <g transform="translate(10.595 59.241322)scale(0.12 -0.12)">
       <use xlink:href="#DejaVuSans-31"/>
       <use xlink:href="#DejaVuSans-35" x="63.623047"/>
       <use xlink:href="#DejaVuSans-30" x="127.246094"/>
      </g>
     </g>
    </g>
    <g id="ytick_8">
     <g id="line2d_14">
      <g>
       <use xlink:href="#m1969d41a62" x="40.5" y="31.75597" style="stroke: #000000; stroke-width: 0.8"/>
      </g>
     </g>
     <g id="text_14">
      <!-- 175 -->
      <g transform="translate(10.595 36.315032)scale(0.12 -0.12)">
       <use xlink:href="#DejaVuSans-31"/>
       <use xlink:href="#DejaVuSans-37" x="63.623047"/>
       <use xlink:href="#DejaVuSans-35" x="127.246094"/>
      </g>
     </g>
    </g>
   </g>
   <g id="line2d_15">
    <defs>
     <path id="m2dc969f585" d="M 0 2.5 
C 0.663008 2.5 1.29895 2.236584 1.767767 1.767767 
C 2.236584 1.29895 2.5 0.663008 2.5 0 
C 2.5 -0.663008 2.236584 -1.29895 1.767767 -1.767767 
C 1.29895 -2.236584 0.663008 -2.5 0 -2.5 
C -0.663008 -2.5 -1.29895 -2.236584 -1.767767 -1.767767 
C -2.236584 -1.29895 -2.5 -0.663008 -2.5 0 
C -2.5 0.663008 -2.236584 1.29895 -1.767767 1.767767 
C -1.29895 2.236584 -0.663008 2.5 0 2.5 
z
" style="stroke: #1f77b4; stroke-width: 0.7"/>
    </defs>
    <g clip-path="url(#pe8a747730d)">
     <use xlink:href="#m2dc969f585" x="51.913636" y="37.172465" style="fill-opacity: 0; stroke: #1f77b4; stroke-width: 0.7"/>
     <use xlink:href="#m2dc969f585" x="53.188903" y="41.111617" style="fill-opacity: 0; stroke: #1f77b4; stroke-width: 0.7"/>
     <use xlink:href="#m2dc969f585" x="54.46417" y="36.69046" style="fill-opacity: 0; stroke: #1f77b4; stroke-width: 0.7"/>
     <use xlink:href="#m2dc969f585" x="55.739436" y="39.07383" style="fill-opacity: 0; stroke: #1f77b4; stroke-width: 0.7"/>
     <use xlink:href="#m2dc969f585" x="57.014703" y="40.376235" style="fill-opacity: 0; stroke: #1f77b4; stroke-width: 0.7"/>
     <use xlink:href="#m2dc969f585" x="58.28997" y="41.619626" style="fill-opacity: 0; stroke: #1f77b4; stroke-width: 0.7"/>
     <use xlink:href="#m2dc969f585" x="59.565236" y="36.787315" style="fill-opacity: 0; stroke: #1f77b4; stroke-width: 0.7"/>
     <use xlink:href="#m2dc969f585" x="60.840503" y="35.793008" style="fill-opacity: 0; stroke: #1f77b4; stroke-width: 0.7"/>
     <use xlink:href="#m2dc969f585" x="62.115769" y="37.126551" style="fill-opacity: 0; stroke: #1f77b4; stroke-width: 0.7"/>
     <use xlink:href="#m2dc969f585" x="63.391036" y="38.520188" style="fill-opacity: 0; stroke: #1f77b4; stroke-width: 0.7"/>
     <use xlink:href="#m2dc969f585" x="64.666303" y="37.510646" style="fill-opacity: 0; stroke: #1f77b4; stroke-width: 0.7"/>
     <use xlink:href="#m2dc969f585" x="65.941569" y="35.149757" style="fill-opacity: 0; stroke: #1f77b4; stroke-width: 0.7"/>
     <use xlink:href="#m2dc969f585" x="67.216836" y="36.490283" style="fill-opacity: 0; stroke: #1f77b4; stroke-width: 0.7"/>
     <use xlink:href="#m2dc969f585" x="68.492103" y="39.190444" style="fill-opacity: 0; stroke: #1f77b4; stroke-width: 0.7"/>
     <use xlink:href="#m2dc969f585" x="69.767369" y="40.857118" style="fill-opacity: 0; stroke: #1f77b4; stroke-width: 0.7"/>
     <use xlink:href="#m2dc969f585" x="71.042636" y="32.41202" style="fill-opacity: 0; stroke: #1f77b4; stroke-width: 0.7"/>
     <use xlink:href="#m2dc969f585" x="72.317902" y="37.323017" style="fill-opacity: 0; stroke: #1f77b4; stroke-width: 0.7"/>
     <use xlink:href="#m2dc969f585" x="73.593169" y="39.430394" style="fill-opacity: 0; stroke: #1f77b4; stroke-width: 0.7"/>
     <use xlink:href="#m2dc969f585" x="74.868436" y="42.95106" style="fill-opacity: 0; stroke: #1f77b4; stroke-width: 0.7"/>
     <use xlink:href="#m2dc969f585" x="76.143702" y="44.048697" style="fill-opacity: 0; stroke: #1f77b4; stroke-width: 0.7"/>
     <use xlink:href="#m2dc969f585" x="77.418969" y="38.77479" style="fill-opacity: 0; stroke: #1f77b4; stroke-width: 0.7"/>
     <use xlink:href="#m2dc969f585" x="78.694236" y="39.857311" style="fill-opacity: 0; stroke: #1f77b4; stroke-width: 0.7"/>
     <use xlink:href="#m2dc969f585" x="79.969502" y="43.488719" style="fill-opacity: 0; stroke: #1f77b4; stroke-width: 0.7"/>
     <use xlink:href="#m2dc969f585" x="81.244769" y="41.598281" style="fill-opacity: 0; stroke: #1f77b4; stroke-width: 0.7"/>
     <use xlink:href="#m2dc969f585" x="82.520036" y="48.466134" style="fill-opacity: 0; stroke: #1f77b4; stroke-width: 0.7"/>
     <use xlink:href="#m2dc969f585" x="83.795302" y="47.625156" style="fill-opacity: 0; stroke: #1f77b4; stroke-width: 0.7"/>
     <use xlink:href="#m2dc969f585" x="85.070569" y="45.507121" style="fill-opacity: 0; stroke: #1f77b4; stroke-width: 0.7"/>
     <use xlink:href="#m2dc969f585" x="86.345835" y="49.223572" style="fill-opacity: 0; stroke: #1f77b4; stroke-width: 0.7"/>
     <use xlink:href="#m2dc969f585" x="87.621102" y="52.062601" style="fill-opacity: 0; stroke: #1f77b4; stroke-width: 0.7"/>
     <use xlink:href="#m2dc969f585" x="88.896369" y="50.611488" style="fill-opacity: 0; stroke: #1f77b4; stroke-width: 0.7"/>
     <use xlink:href="#m2dc969f585" x="90.171635" y="54.379983" style="fill-opacity: 0; stroke: #1f77b4; stroke-width: 0.7"/>
     <use xlink:href="#m2dc969f585" x="91.446902" y="52.586869" style="fill-opacity: 0; stroke: #1f77b4; stroke-width: 0.7"/>
     <use xlink:href="#m2dc969f585" x="92.722169" y="53.260129" style="fill-opacity: 0; stroke: #1f77b4; stroke-width: 0.7"/>
     <use xlink:href="#m2dc969f585" x="93.997435" y="57.079928" style="fill-opacity: 0; stroke: #1f77b4; stroke-width: 0.7"/>
     <use xlink:href="#m2dc969f585" x="95.272702" y="53.779743" style="fill-opacity: 0; stroke: #1f77b4; stroke-width: 0.7"/>
     <use xlink:href="#m2dc969f585" x="96.547969" y="56.977652" style="fill-opacity: 0; stroke: #1f77b4; stroke-width: 0.7"/>
     <use xlink:href="#m2dc969f585" x="97.823235" y="55.070068" style="fill-opacity: 0; stroke: #1f77b4; stroke-width: 0.7"/>
     <use xlink:href="#m2dc969f585" x="99.098502" y="60.046664" style="fill-opacity: 0; stroke: #1f77b4; stroke-width: 0.7"/>
     <use xlink:href="#m2dc969f585" x="100.373768" y="59.472195" style="fill-opacity: 0; stroke: #1f77b4; stroke-width: 0.7"/>
     <use xlink:href="#m2dc969f585" x="101.649035" y="57.314046" style="fill-opacity: 0; stroke: #1f77b4; stroke-width: 0.7"/>
     <use xlink:href="#m2dc969f585" x="102.924302" y="60.211629" style="fill-opacity: 0; stroke: #1f77b4; stroke-width: 0.7"/>
     <use xlink:href="#m2dc969f585" x="104.199568" y="60.975182" style="fill-opacity: 0; stroke: #1f77b4; stroke-width: 0.7"/>
     <use xlink:href="#m2dc969f585" x="105.474835" y="64.045992" style="fill-opacity: 0; stroke: #1f77b4; stroke-width: 0.7"/>
     <use xlink:href="#m2dc969f585" x="106.750102" y="63.545292" style="fill-opacity: 0; stroke: #1f77b4; stroke-width: 0.7"/>
     <use xlink:href="#m2dc969f585" x="108.025368" y="65.463499" style="fill-opacity: 0; stroke: #1f77b4; stroke-width: 0.7"/>
     <use xlink:href="#m2dc969f585" x="109.300635" y="66.457905" style="fill-opacity: 0; stroke: #1f77b4; stroke-width: 0.7"/>
     <use xlink:href="#m2dc969f585" x="110.575901" y="68.930892" style="fill-opacity: 0; stroke: #1f77b4; stroke-width: 0.7"/>
     <use xlink:href="#m2dc969f585" x="111.851168" y="67.186172" style="fill-opacity: 0; stroke: #1f77b4; stroke-width: 0.7"/>
     <use xlink:href="#m2dc969f585" x="113.126435" y="68.953391" style="fill-opacity: 0; stroke: #1f77b4; stroke-width: 0.7"/>
     <use xlink:href="#m2dc969f585" x="114.401701" y="71.625119" style="fill-opacity: 0; stroke: #1f77b4; stroke-width: 0.7"/>
     <use xlink:href="#m2dc969f585" x="115.676968" y="69.978499" style="fill-opacity: 0; stroke: #1f77b4; stroke-width: 0.7"/>
     <use xlink:href="#m2dc969f585" x="116.952235" y="69.174821" style="fill-opacity: 0; stroke: #1f77b4; stroke-width: 0.7"/>
     <use xlink:href="#m2dc969f585" x="118.227501" y="72.036791" style="fill-opacity: 0; stroke: #1f77b4; stroke-width: 0.7"/>
     <use xlink:href="#m2dc969f585" x="119.502768" y="71.340953" style="fill-opacity: 0; stroke: #1f77b4; stroke-width: 0.7"/>
     <use xlink:href="#m2dc969f585" x="120.778035" y="73.31019" style="fill-opacity: 0; stroke: #1f77b4; stroke-width: 0.7"/>
     <use xlink:href="#m2dc969f585" x="122.053301" y="76.621409" style="fill-opacity: 0; stroke: #1f77b4; stroke-width: 0.7"/>
     <use xlink:href="#m2dc969f585" x="123.328568" y="72.138063" style="fill-opacity: 0; stroke: #1f77b4; stroke-width: 0.7"/>
     <use xlink:href="#m2dc969f585" x="124.603834" y="74.756539" style="fill-opacity: 0; stroke: #1f77b4; stroke-width: 0.7"/>
     <use xlink:href="#m2dc969f585" x="125.879101" y="78.634361" style="fill-opacity: 0; stroke: #1f77b4; stroke-width: 0.7"/>
     <use xlink:href="#m2dc969f585" x="127.154368" y="78.241521" style="fill-opacity: 0; stroke: #1f77b4; stroke-width: 0.7"/>
     <use xlink:href="#m2dc969f585" x="128.429634" y="77.889327" style="fill-opacity: 0; stroke: #1f77b4; stroke-width: 0.7"/>
     <use xlink:href="#m2dc969f585" x="129.704901" y="78.933546" style="fill-opacity: 0; stroke: #1f77b4; stroke-width: 0.7"/>
     <use xlink:href="#m2dc969f585" x="130.980168" y="80.0412" style="fill-opacity: 0; stroke: #1f77b4; stroke-width: 0.7"/>
     <use xlink:href="#m2dc969f585" x="132.255434" y="81.735849" style="fill-opacity: 0; stroke: #1f77b4; stroke-width: 0.7"/>
     <use xlink:href="#m2dc969f585" x="133.530701" y="78.852182" style="fill-opacity: 0; stroke: #1f77b4; stroke-width: 0.7"/>
     <use xlink:href="#m2dc969f585" x="134.805967" y="80.477675" style="fill-opacity: 0; stroke: #1f77b4; stroke-width: 0.7"/>
     <use xlink:href="#m2dc969f585" x="136.081234" y="90.032753" style="fill-opacity: 0; stroke: #1f77b4; stroke-width: 0.7"/>
     <use xlink:href="#m2dc969f585" x="137.356501" y="87.157643" style="fill-opacity: 0; stroke: #1f77b4; stroke-width: 0.7"/>
     <use xlink:href="#m2dc969f585" x="138.631767" y="90.560929" style="fill-opacity: 0; stroke: #1f77b4; stroke-width: 0.7"/>
     <use xlink:href="#m2dc969f585" x="139.907034" y="89.103971" style="fill-opacity: 0; stroke: #1f77b4; stroke-width: 0.7"/>
     <use xlink:href="#m2dc969f585" x="141.182301" y="89.439593" style="fill-opacity: 0; stroke: #1f77b4; stroke-width: 0.7"/>
     <use xlink:href="#m2dc969f585" x="142.457567" y="92.47224" style="fill-opacity: 0; stroke: #1f77b4; stroke-width: 0.7"/>
     <use xlink:href="#m2dc969f585" x="143.732834" y="93.912952" style="fill-opacity: 0; stroke: #1f77b4; stroke-width: 0.7"/>
     <use xlink:href="#m2dc969f585" x="145.008101" y="94.566252" style="fill-opacity: 0; stroke: #1f77b4; stroke-width: 0.7"/>
     <use xlink:href="#m2dc969f585" x="146.283367" y="100.600595" style="fill-opacity: 0; stroke: #1f77b4; stroke-width: 0.7"/>
     <use xlink:href="#m2dc969f585" x="147.558634" y="100.342639" style="fill-opacity: 0; stroke: #1f77b4; stroke-width: 0.7"/>
     <use xlink:href="#m2dc969f585" x="148.8339" y="101.761027" style="fill-opacity: 0; stroke: #1f77b4; stroke-width: 0.7"/>
     <use xlink:href="#m2dc969f585" x="150.109167" y="100.037282" style="fill-opacity: 0; stroke: #1f77b4; stroke-width: 0.7"/>
     <use xlink:href="#m2dc969f585" x="151.384434" y="108.466761" style="fill-opacity: 0; stroke: #1f77b4; stroke-width: 0.7"/>
     <use xlink:href="#m2dc969f585" x="152.6597" y="107.961401" style="fill-opacity: 0; stroke: #1f77b4; stroke-width: 0.7"/>
     <use xlink:href="#m2dc969f585" x="153.934967" y="108.238558" style="fill-opacity: 0; stroke: #1f77b4; stroke-width: 0.7"/>
     <use xlink:href="#m2dc969f585" x="155.210234" y="110.100186" style="fill-opacity: 0; stroke: #1f77b4; stroke-width: 0.7"/>
     <use xlink:href="#m2dc969f585" x="156.4855" y="114.427464" style="fill-opacity: 0; stroke: #1f77b4; stroke-width: 0.7"/>
     <use xlink:href="#m2dc969f585" x="157.760767" y="115.525992" style="fill-opacity: 0; stroke: #1f77b4; stroke-width: 0.7"/>
     <use xlink:href="#m2dc969f585" x="159.036034" y="116.292906" style="fill-opacity: 0; stroke: #1f77b4; stroke-width: 0.7"/>
     <use xlink:href="#m2dc969f585" x="160.3113" y="113.753782" style="fill-opacity: 0; stroke: #1f77b4; stroke-width: 0.7"/>
     <use xlink:href="#m2dc969f585" x="161.586567" y="117.755001" style="fill-opacity: 0; stroke: #1f77b4; stroke-width: 0.7"/>
     <use xlink:href="#m2dc969f585" x="162.861833" y="121.033024" style="fill-opacity: 0; stroke: #1f77b4; stroke-width: 0.7"/>
     <use xlink:href="#m2dc969f585" x="164.1371" y="119.067836" style="fill-opacity: 0; stroke: #1f77b4; stroke-width: 0.7"/>
     <use xlink:href="#m2dc969f585" x="165.412367" y="122.368797" style="fill-opacity: 0; stroke: #1f77b4; stroke-width: 0.7"/>
     <use xlink:href="#m2dc969f585" x="166.687633" y="109.171126" style="fill-opacity: 0; stroke: #1f77b4; stroke-width: 0.7"/>
     <use xlink:href="#m2dc969f585" x="167.9629" y="110.798766" style="fill-opacity: 0; stroke: #1f77b4; stroke-width: 0.7"/>
     <use xlink:href="#m2dc969f585" x="169.238167" y="111.818216" style="fill-opacity: 0; stroke: #1f77b4; stroke-width: 0.7"/>
     <use xlink:href="#m2dc969f585" x="170.513433" y="113.170618" style="fill-opacity: 0; stroke: #1f77b4; stroke-width: 0.7"/>
     <use xlink:href="#m2dc969f585" x="171.7887" y="112.179671" style="fill-opacity: 0; stroke: #1f77b4; stroke-width: 0.7"/>
     <use xlink:href="#m2dc969f585" x="173.063966" y="115.601927" style="fill-opacity: 0; stroke: #1f77b4; stroke-width: 0.7"/>
     <use xlink:href="#m2dc969f585" x="174.339233" y="119.293278" style="fill-opacity: 0; stroke: #1f77b4; stroke-width: 0.7"/>
     <use xlink:href="#m2dc969f585" x="175.6145" y="121.723676" style="fill-opacity: 0; stroke: #1f77b4; stroke-width: 0.7"/>
     <use xlink:href="#m2dc969f585" x="176.889766" y="124.979584" style="fill-opacity: 0; stroke: #1f77b4; stroke-width: 0.7"/>
     <use xlink:href="#m2dc969f585" x="178.165033" y="122.136947" style="fill-opacity: 0; stroke: #1f77b4; stroke-width: 0.7"/>
     <use xlink:href="#m2dc969f585" x="179.4403" y="127.748111" style="fill-opacity: 0; stroke: #1f77b4; stroke-width: 0.7"/>
     <use xlink:href="#m2dc969f585" x="180.715566" y="127.879869" style="fill-opacity: 0; stroke: #1f77b4; stroke-width: 0.7"/>
     <use xlink:href="#m2dc969f585" x="181.990833" y="128.13213" style="fill-opacity: 0; stroke: #1f77b4; stroke-width: 0.7"/>
     <use xlink:href="#m2dc969f585" x="183.2661" y="126.893819" style="fill-opacity: 0; stroke: #1f77b4; stroke-width: 0.7"/>
     <use xlink:href="#m2dc969f585" x="184.541366" y="126.577765" style="fill-opacity: 0; stroke: #1f77b4; stroke-width: 0.7"/>
     <use xlink:href="#m2dc969f585" x="185.816633" y="128.350122" style="fill-opacity: 0; stroke: #1f77b4; stroke-width: 0.7"/>
     <use xlink:href="#m2dc969f585" x="187.091899" y="131.017788" style="fill-opacity: 0; stroke: #1f77b4; stroke-width: 0.7"/>
     <use xlink:href="#m2dc969f585" x="188.367166" y="126.581829" style="fill-opacity: 0; stroke: #1f77b4; stroke-width: 0.7"/>
     <use xlink:href="#m2dc969f585" x="189.642433" y="129.113908" style="fill-opacity: 0; stroke: #1f77b4; stroke-width: 0.7"/>
     <use xlink:href="#m2dc969f585" x="190.917699" y="127.886794" style="fill-opacity: 0; stroke: #1f77b4; stroke-width: 0.7"/>
     <use xlink:href="#m2dc969f585" x="192.192966" y="134.513068" style="fill-opacity: 0; stroke: #1f77b4; stroke-width: 0.7"/>
     <use xlink:href="#m2dc969f585" x="193.468233" y="129.619258" style="fill-opacity: 0; stroke: #1f77b4; stroke-width: 0.7"/>
     <use xlink:href="#m2dc969f585" x="194.743499" y="130.296024" style="fill-opacity: 0; stroke: #1f77b4; stroke-width: 0.7"/>
     <use xlink:href="#m2dc969f585" x="196.018766" y="131.459551" style="fill-opacity: 0; stroke: #1f77b4; stroke-width: 0.7"/>
     <use xlink:href="#m2dc969f585" x="197.294033" y="128.088232" style="fill-opacity: 0; stroke: #1f77b4; stroke-width: 0.7"/>
     <use xlink:href="#m2dc969f585" x="198.569299" y="132.213466" style="fill-opacity: 0; stroke: #1f77b4; stroke-width: 0.7"/>
     <use xlink:href="#m2dc969f585" x="199.844566" y="127.952557" style="fill-opacity: 0; stroke: #1f77b4; stroke-width: 0.7"/>
     <use xlink:href="#m2dc969f585" x="201.119832" y="129.593051" style="fill-opacity: 0; stroke: #1f77b4; stroke-width: 0.7"/>
     <use xlink:href="#m2dc969f585" x="202.395099" y="132.6799" style="fill-opacity: 0; stroke: #1f77b4; stroke-width: 0.7"/>
     <use xlink:href="#m2dc969f585" x="203.670366" y="132.386905" style="fill-opacity: 0; stroke: #1f77b4; stroke-width: 0.7"/>
     <use xlink:href="#m2dc969f585" x="204.945632" y="134.828988" style="fill-opacity: 0; stroke: #1f77b4; stroke-width: 0.7"/>
     <use xlink:href="#m2dc969f585" x="206.220899" y="133.880348" style="fill-opacity: 0; stroke: #1f77b4; stroke-width: 0.7"/>
     <use xlink:href="#m2dc969f585" x="207.496166" y="131.745839" style="fill-opacity: 0; stroke: #1f77b4; stroke-width: 0.7"/>
     <use xlink:href="#m2dc969f585" x="208.771432" y="135.36458" style="fill-opacity: 0; stroke: #1f77b4; stroke-width: 0.7"/>
     <use xlink:href="#m2dc969f585" x="210.046699" y="135.921796" style="fill-opacity: 0; stroke: #1f77b4; stroke-width: 0.7"/>
     <use xlink:href="#m2dc969f585" x="211.321965" y="135.043292" style="fill-opacity: 0; stroke: #1f77b4; stroke-width: 0.7"/>
     <use xlink:href="#m2dc969f585" x="212.597232" y="137.230399" style="fill-opacity: 0; stroke: #1f77b4; stroke-width: 0.7"/>
     <use xlink:href="#m2dc969f585" x="213.872499" y="135.727222" style="fill-opacity: 0; stroke: #1f77b4; stroke-width: 0.7"/>
     <use xlink:href="#m2dc969f585" x="215.147765" y="137.294621" style="fill-opacity: 0; stroke: #1f77b4; stroke-width: 0.7"/>
     <use xlink:href="#m2dc969f585" x="216.423032" y="136.799952" style="fill-opacity: 0; stroke: #1f77b4; stroke-width: 0.7"/>
     <use xlink:href="#m2dc969f585" x="217.698299" y="135.26542" style="fill-opacity: 0; stroke: #1f77b4; stroke-width: 0.7"/>
     <use xlink:href="#m2dc969f585" x="218.973565" y="134.873357" style="fill-opacity: 0; stroke: #1f77b4; stroke-width: 0.7"/>
     <use xlink:href="#m2dc969f585" x="220.248832" y="139.97016" style="fill-opacity: 0; stroke: #1f77b4; stroke-width: 0.7"/>
     <use xlink:href="#m2dc969f585" x="221.524099" y="138.237927" style="fill-opacity: 0; stroke: #1f77b4; stroke-width: 0.7"/>
     <use xlink:href="#m2dc969f585" x="222.799365" y="135.989204" style="fill-opacity: 0; stroke: #1f77b4; stroke-width: 0.7"/>
     <use xlink:href="#m2dc969f585" x="224.074632" y="136.573345" style="fill-opacity: 0; stroke: #1f77b4; stroke-width: 0.7"/>
     <use xlink:href="#m2dc969f585" x="225.349898" y="137.349708" style="fill-opacity: 0; stroke: #1f77b4; stroke-width: 0.7"/>
     <use xlink:href="#m2dc969f585" x="226.625165" y="138.862681" style="fill-opacity: 0; stroke: #1f77b4; stroke-width: 0.7"/>
     <use xlink:href="#m2dc969f585" x="227.900432" y="140.770537" style="fill-opacity: 0; stroke: #1f77b4; stroke-width: 0.7"/>
     <use xlink:href="#m2dc969f585" x="229.175698" y="138.204339" style="fill-opacity: 0; stroke: #1f77b4; stroke-width: 0.7"/>
     <use xlink:href="#m2dc969f585" x="230.450965" y="136.960813" style="fill-opacity: 0; stroke: #1f77b4; stroke-width: 0.7"/>
     <use xlink:href="#m2dc969f585" x="231.726232" y="136.94694" style="fill-opacity: 0; stroke: #1f77b4; stroke-width: 0.7"/>
     <use xlink:href="#m2dc969f585" x="233.001498" y="137.569605" style="fill-opacity: 0; stroke: #1f77b4; stroke-width: 0.7"/>
     <use xlink:href="#m2dc969f585" x="234.276765" y="138.522463" style="fill-opacity: 0; stroke: #1f77b4; stroke-width: 0.7"/>
     <use xlink:href="#m2dc969f585" x="235.552031" y="137.870235" style="fill-opacity: 0; stroke: #1f77b4; stroke-width: 0.7"/>
     <use xlink:href="#m2dc969f585" x="236.827298" y="141.367333" style="fill-opacity: 0; stroke: #1f77b4; stroke-width: 0.7"/>
     <use xlink:href="#m2dc969f585" x="238.102565" y="145.607969" style="fill-opacity: 0; stroke: #1f77b4; stroke-width: 0.7"/>
     <use xlink:href="#m2dc969f585" x="239.377831" y="140.456184" style="fill-opacity: 0; stroke: #1f77b4; stroke-width: 0.7"/>
     <use xlink:href="#m2dc969f585" x="240.653098" y="141.525013" style="fill-opacity: 0; stroke: #1f77b4; stroke-width: 0.7"/>
     <use xlink:href="#m2dc969f585" x="241.928365" y="142.09105" style="fill-opacity: 0; stroke: #1f77b4; stroke-width: 0.7"/>
     <use xlink:href="#m2dc969f585" x="243.203631" y="142.022212" style="fill-opacity: 0; stroke: #1f77b4; stroke-width: 0.7"/>
     <use xlink:href="#m2dc969f585" x="244.478898" y="139.525912" style="fill-opacity: 0; stroke: #1f77b4; stroke-width: 0.7"/>
     <use xlink:href="#m2dc969f585" x="245.754165" y="140.768052" style="fill-opacity: 0; stroke: #1f77b4; stroke-width: 0.7"/>
     <use xlink:href="#m2dc969f585" x="247.029431" y="138.797487" style="fill-opacity: 0; stroke: #1f77b4; stroke-width: 0.7"/>
     <use xlink:href="#m2dc969f585" x="248.304698" y="137.942723" style="fill-opacity: 0; stroke: #1f77b4; stroke-width: 0.7"/>
     <use xlink:href="#m2dc969f585" x="249.579964" y="136.407922" style="fill-opacity: 0; stroke: #1f77b4; stroke-width: 0.7"/>
     <use xlink:href="#m2dc969f585" x="250.855231" y="137.929779" style="fill-opacity: 0; stroke: #1f77b4; stroke-width: 0.7"/>
     <use xlink:href="#m2dc969f585" x="252.130498" y="140.813435" style="fill-opacity: 0; stroke: #1f77b4; stroke-width: 0.7"/>
     <use xlink:href="#m2dc969f585" x="253.405764" y="137.755257" style="fill-opacity: 0; stroke: #1f77b4; stroke-width: 0.7"/>
     <use xlink:href="#m2dc969f585" x="254.681031" y="140.236397" style="fill-opacity: 0; stroke: #1f77b4; stroke-width: 0.7"/>
     <use xlink:href="#m2dc969f585" x="255.956298" y="138.273594" style="fill-opacity: 0; stroke: #1f77b4; stroke-width: 0.7"/>
     <use xlink:href="#m2dc969f585" x="257.231564" y="139.762533" style="fill-opacity: 0; stroke: #1f77b4; stroke-width: 0.7"/>
     <use xlink:href="#m2dc969f585" x="258.506831" y="137.982858" style="fill-opacity: 0; stroke: #1f77b4; stroke-width: 0.7"/>
     <use xlink:href="#m2dc969f585" x="259.782098" y="140.213563" style="fill-opacity: 0; stroke: #1f77b4; stroke-width: 0.7"/>
     <use xlink:href="#m2dc969f585" x="261.057364" y="138.564018" style="fill-opacity: 0; stroke: #1f77b4; stroke-width: 0.7"/>
     <use xlink:href="#m2dc969f585" x="262.332631" y="135.258304" style="fill-opacity: 0; stroke: #1f77b4; stroke-width: 0.7"/>
     <use xlink:href="#m2dc969f585" x="263.607897" y="140.087185" style="fill-opacity: 0; stroke: #1f77b4; stroke-width: 0.7"/>
     <use xlink:href="#m2dc969f585" x="264.883164" y="138.153508" style="fill-opacity: 0; stroke: #1f77b4; stroke-width: 0.7"/>
     <use xlink:href="#m2dc969f585" x="266.158431" y="137.482737" style="fill-opacity: 0; stroke: #1f77b4; stroke-width: 0.7"/>
     <use xlink:href="#m2dc969f585" x="267.433697" y="140.044001" style="fill-opacity: 0; stroke: #1f77b4; stroke-width: 0.7"/>
     <use xlink:href="#m2dc969f585" x="268.708964" y="137.008368" style="fill-opacity: 0; stroke: #1f77b4; stroke-width: 0.7"/>
     <use xlink:href="#m2dc969f585" x="269.984231" y="139.647745" style="fill-opacity: 0; stroke: #1f77b4; stroke-width: 0.7"/>
     <use xlink:href="#m2dc969f585" x="271.259497" y="140.008684" style="fill-opacity: 0; stroke: #1f77b4; stroke-width: 0.7"/>
     <use xlink:href="#m2dc969f585" x="272.534764" y="136.797314" style="fill-opacity: 0; stroke: #1f77b4; stroke-width: 0.7"/>
     <use xlink:href="#m2dc969f585" x="273.81003" y="136.665939" style="fill-opacity: 0; stroke: #1f77b4; stroke-width: 0.7"/>
     <use xlink:href="#m2dc969f585" x="275.085297" y="134.881919" style="fill-opacity: 0; stroke: #1f77b4; stroke-width: 0.7"/>
     <use xlink:href="#m2dc969f585" x="276.360564" y="137.593651" style="fill-opacity: 0; stroke: #1f77b4; stroke-width: 0.7"/>
     <use xlink:href="#m2dc969f585" x="277.63583" y="140.870059" style="fill-opacity: 0; stroke: #1f77b4; stroke-width: 0.7"/>
     <use xlink:href="#m2dc969f585" x="278.911097" y="140.279564" style="fill-opacity: 0; stroke: #1f77b4; stroke-width: 0.7"/>
     <use xlink:href="#m2dc969f585" x="280.186364" y="141.194311" style="fill-opacity: 0; stroke: #1f77b4; stroke-width: 0.7"/>
    </g>
   </g>
   <g id="line2d_16">
    <path d="M 51.913636 162.252413 
L 280.186364 162.252413 
L 280.186364 162.252413 
" clip-path="url(#pe8a747730d)" style="fill: none; stroke-dasharray: 7.4,3.2; stroke-dashoffset: 0; stroke: #ff7f0e; stroke-width: 2"/>
   </g>
   <g id="patch_3">
    <path d="M 40.5 192.24 
L 40.5 25.92 
" style="fill: none; stroke: #000000; stroke-width: 0.8; stroke-linejoin: miter; stroke-linecap: square"/>
   </g>
   <g id="patch_4">
    <path d="M 291.6 192.24 
L 291.6 25.92 
" style="fill: none; stroke: #000000; stroke-width: 0.8; stroke-linejoin: miter; stroke-linecap: square"/>
   </g>
   <g id="patch_5">
    <path d="M 40.5 192.24 
L 291.6 192.24 
" style="fill: none; stroke: #000000; stroke-width: 0.8; stroke-linejoin: miter; stroke-linecap: square"/>
   </g>
   <g id="patch_6">
    <path d="M 40.5 25.92 
L 291.6 25.92 
" style="fill: none; stroke: #000000; stroke-width: 0.8; stroke-linejoin: miter; stroke-linecap: square"/>
   </g>
  </g>
 </g>
 <defs>
  <clipPath id="pe8a747730d">
   <rect x="40.5" y="25.92" width="251.1" height="166.32"/>
  </clipPath>
 </defs>
</svg>
