<?xml version="1.0" encoding="utf-8" standalone="no"?>
<!DOCTYPE svg PUBLIC "-//W3C//DTD SVG 1.1//EN"
  "http://www.w3.org/Graphics/SVG/1.1/DTD/svg11.dtd">
<svg xmlns:xlink="http://www.w3.org/1999/xlink" width="216pt" height="144pt" viewBox="0 0 216 144" xmlns="http://www.w3.org/2000/svg" version="1.1">
 <metadata>
  <rdf:RDF xmlns:dc="http://purl.org/dc/elements/1.1/" xmlns:cc="http://creativecommons.org/ns#" xmlns:rdf="http://www.w3.org/1999/02/22-rdf-syntax-ns#">
   <cc:Work>
    <dc:type rdf:resource="http://purl.org/dc/dcmitype/StillImage"/>
    <dc:date>2022-06-22T12:12:26.035379</dc:date>
    <dc:format>image/svg+xml</dc:format>
    <dc:creator>
     <cc:Agent>
      <dc:title>Matplotlib v3.5.1, https://matplotlib.org/</dc:title>
     </cc:Agent>
    </dc:creator>
   </cc:Work>
  </rdf:RDF>
 </metadata>
 <defs>
  <style type="text/css">*{stroke-linejoin: round; stroke-linecap: butt}</style>
 </defs>
 <g id="figure_1">
  <g id="patch_1">
   <path d="M 0 144 
L 216 144 
L 216 0 
L 0 0 
z
" style="fill: #ffffff"/>
  </g>
  <g id="axes_1">
   <g id="patch_2">
    <path d="M 27 128.16 
L 194.4 128.16 
L 194.4 17.28 
L 27 17.28 
z
" style="fill: #ffffff"/>
   </g>
   <g id="matplotlib.axis_1">
    <g id="xtick_1">
     <g id="line2d_1">
      <defs>
       <path id="m78eb65c182" d="M 0 0 
L 0 3.5 
" style="stroke: #000000; stroke-width: 0.8"/>
      </defs>
      <g>
       <use xlink:href="#m78eb65c182" x="72.654545" y="128.16" style="stroke: #000000; stroke-width: 0.8"/>
      </g>
     </g>
     <g id="text_1">
      <!-- 2800 -->
      <g transform="translate(56.112045 145.037969)scale(0.13 -0.13)">
       <defs>
        <path id="DejaVuSans-32" d="M 1228 531 
L 3431 531 
L 3431 0 
L 469 0 
L 469 531 
Q 828 903 1448 1529 
Q 2069 2156 2228 2338 
Q 2531 2678 2651 2914 
Q 2772 3150 2772 3378 
Q 2772 3750 2511 3984 
Q 2250 4219 1831 4219 
Q 1534 4219 1204 4116 
Q 875 4013 500 3803 
L 500 4441 
Q 881 4594 1212 4672 
Q 1544 4750 1819 4750 
Q 2544 4750 2975 4387 
Q 3406 4025 3406 3419 
Q 3406 3131 3298 2873 
Q 3191 2616 2906 2266 
Q 2828 2175 2409 1742 
Q 1991 1309 1228 531 
z
" transform="scale(0.015625)"/>
        <path id="DejaVuSans-38" d="M 2034 2216 
Q 1584 2216 1326 1975 
Q 1069 1734 1069 1313 
Q 1069 891 1326 650 
Q 1584 409 2034 409 
Q 2484 409 2743 651 
Q 3003 894 3003 1313 
Q 3003 1734 2745 1975 
Q 2488 2216 2034 2216 
z
M 1403 2484 
Q 997 2584 770 2862 
Q 544 3141 544 3541 
Q 544 4100 942 4425 
Q 1341 4750 2034 4750 
Q 2731 4750 3128 4425 
Q 3525 4100 3525 3541 
Q 3525 3141 3298 2862 
Q 3072 2584 2669 2484 
Q 3125 2378 3379 2068 
Q 3634 1759 3634 1313 
Q 3634 634 3220 271 
Q 2806 -91 2034 -91 
Q 1263 -91 848 271 
Q 434 634 434 1313 
Q 434 1759 690 2068 
Q 947 2378 1403 2484 
z
M 1172 3481 
Q 1172 3119 1398 2916 
Q 1625 2713 2034 2713 
Q 2441 2713 2670 2916 
Q 2900 3119 2900 3481 
Q 2900 3844 2670 4047 
Q 2441 4250 2034 4250 
Q 1625 4250 1398 4047 
Q 1172 3844 1172 3481 
z
" transform="scale(0.015625)"/>
        <path id="DejaVuSans-30" d="M 2034 4250 
Q 1547 4250 1301 3770 
Q 1056 3291 1056 2328 
Q 1056 1369 1301 889 
Q 1547 409 2034 409 
Q 2525 409 2770 889 
Q 3016 1369 3016 2328 
Q 3016 3291 2770 3770 
Q 2525 4250 2034 4250 
z
M 2034 4750 
Q 2819 4750 3233 4129 
Q 3647 3509 3647 2328 
Q 3647 1150 3233 529 
Q 2819 -91 2034 -91 
Q 1250 -91 836 529 
Q 422 1150 422 2328 
Q 422 3509 836 4129 
Q 1250 4750 2034 4750 
z
" transform="scale(0.015625)"/>
       </defs>
       <use xlink:href="#DejaVuSans-32"/>
       <use xlink:href="#DejaVuSans-38" x="63.623047"/>
       <use xlink:href="#DejaVuSans-30" x="127.246094"/>
       <use xlink:href="#DejaVuSans-30" x="190.869141"/>
      </g>
     </g>
    </g>
    <g id="xtick_2">
     <g id="line2d_2">
      <g>
       <use xlink:href="#m78eb65c182" x="148.745455" y="128.16" style="stroke: #000000; stroke-width: 0.8"/>
      </g>
     </g>
     <g id="text_2">
      <!-- 3000 -->
      <g transform="translate(132.202955 145.037969)scale(0.13 -0.13)">
       <defs>
        <path id="DejaVuSans-33" d="M 2597 2516 
Q 3050 2419 3304 2112 
Q 3559 1806 3559 1356 
Q 3559 666 3084 287 
Q 2609 -91 1734 -91 
Q 1441 -91 1130 -33 
Q 819 25 488 141 
L 488 750 
Q 750 597 1062 519 
Q 1375 441 1716 441 
Q 2309 441 2620 675 
Q 2931 909 2931 1356 
Q 2931 1769 2642 2001 
Q 2353 2234 1838 2234 
L 1294 2234 
L 1294 2753 
L 1863 2753 
Q 2328 2753 2575 2939 
Q 2822 3125 2822 3475 
Q 2822 3834 2567 4026 
Q 2313 4219 1838 4219 
Q 1578 4219 1281 4162 
Q 984 4106 628 3988 
L 628 4550 
Q 988 4650 1302 4700 
Q 1616 4750 1894 4750 
Q 2613 4750 3031 4423 
Q 3450 4097 3450 3541 
Q 3450 3153 3228 2886 
Q 3006 2619 2597 2516 
z
" transform="scale(0.015625)"/>
       </defs>
       <use xlink:href="#DejaVuSans-33"/>
       <use xlink:href="#DejaVuSans-30" x="63.623047"/>
       <use xlink:href="#DejaVuSans-30" x="127.246094"/>
       <use xlink:href="#DejaVuSans-30" x="190.869141"/>
      </g>
     </g>
    </g>
   </g>
   <g id="matplotlib.axis_2">
    <g id="ytick_1">
     <g id="line2d_3">
      <defs>
       <path id="m5909adc52c" d="M 0 0 
L -3.5 0 
" style="stroke: #000000; stroke-width: 0.8"/>
      </defs>
      <g>
       <use xlink:href="#m5909adc52c" x="27" y="123.096364" style="stroke: #000000; stroke-width: 0.8"/>
      </g>
     </g>
     <g id="text_3">
      <!-- 0.0 -->
      <g transform="translate(-0.674063 128.035349)scale(0.13 -0.13)">
       <defs>
        <path id="DejaVuSans-2e" d="M 684 794 
L 1344 794 
L 1344 0 
L 684 0 
L 684 794 
z
" transform="scale(0.015625)"/>
       </defs>
       <use xlink:href="#DejaVuSans-30"/>
       <use xlink:href="#DejaVuSans-2e" x="63.623047"/>
       <use xlink:href="#DejaVuSans-30" x="95.410156"/>
      </g>
     </g>
    </g>
    <g id="ytick_2">
     <g id="line2d_4">
      <g>
       <use xlink:href="#m5909adc52c" x="27" y="72.708182" style="stroke: #000000; stroke-width: 0.8"/>
      </g>
     </g>
     <g id="text_4">
      <!-- 0.5 -->
      <g transform="translate(-0.674063 77.647167)scale(0.13 -0.13)">
       <defs>
        <path id="DejaVuSans-35" d="M 691 4666 
L 3169 4666 
L 3169 4134 
L 1269 4134 
L 1269 2991 
Q 1406 3038 1543 3061 
Q 1681 3084 1819 3084 
Q 2600 3084 3056 2656 
Q 3513 2228 3513 1497 
Q 3513 744 3044 326 
Q 2575 -91 1722 -91 
Q 1428 -91 1123 -41 
Q 819 9 494 109 
L 494 744 
Q 775 591 1075 516 
Q 1375 441 1709 441 
Q 2250 441 2565 725 
Q 2881 1009 2881 1497 
Q 2881 1984 2565 2268 
Q 2250 2553 1709 2553 
Q 1456 2553 1204 2497 
Q 953 2441 691 2322 
L 691 4666 
z
" transform="scale(0.015625)"/>
       </defs>
       <use xlink:href="#DejaVuSans-30"/>
       <use xlink:href="#DejaVuSans-2e" x="63.623047"/>
       <use xlink:href="#DejaVuSans-35" x="95.410156"/>
      </g>
     </g>
    </g>
    <g id="ytick_3">
     <g id="line2d_5">
      <g>
       <use xlink:href="#m5909adc52c" x="27" y="22.32" style="stroke: #000000; stroke-width: 0.8"/>
      </g>
     </g>
     <g id="text_5">
      <!-- 1.0 -->
      <g transform="translate(-0.674063 27.258984)scale(0.13 -0.13)">
       <defs>
        <path id="DejaVuSans-31" d="M 794 531 
L 1825 531 
L 1825 4091 
L 703 3866 
L 703 4441 
L 1819 4666 
L 2450 4666 
L 2450 531 
L 3481 531 
L 3481 0 
L 794 0 
L 794 531 
z
" transform="scale(0.015625)"/>
       </defs>
       <use xlink:href="#DejaVuSans-31"/>
       <use xlink:href="#DejaVuSans-2e" x="63.623047"/>
       <use xlink:href="#DejaVuSans-30" x="95.410156"/>
      </g>
     </g>
    </g>
   </g>
   <g id="line2d_6">
    <path d="M 34.609091 122.895683 
L 35.217818 123.06114 
L 35.522182 122.925049 
L 37.348364 122.953244 
L 38.261455 122.984609 
L 38.565818 123.043749 
L 39.478909 122.803674 
L 40.087636 123.020582 
L 40.392 122.85737 
L 40.696364 122.485426 
L 41.305091 122.413416 
L 41.609455 122.066799 
L 42.522545 121.85765 
L 42.826909 121.619215 
L 43.131273 121.546105 
L 43.435636 121.352733 
L 44.044364 121.718238 
L 44.348727 121.943129 
L 44.957455 122.060213 
L 45.566182 122.373762 
L 46.479273 122.520931 
L 47.088 122.118652 
L 47.392364 122.113909 
L 48.609818 121.612279 
L 48.914182 121.647455 
L 49.218545 121.80364 
L 49.522909 122.094278 
L 49.827273 122.037557 
L 50.740364 122.493762 
L 51.349091 122.726678 
L 53.175273 122.889172 
L 53.479636 122.751104 
L 54.088364 122.825974 
L 54.392727 122.774899 
L 54.697091 122.976823 
L 55.305818 122.849714 
L 55.610182 122.979904 
L 55.914545 122.984016 
L 56.218909 122.774445 
L 56.523273 122.757185 
L 57.132 122.857791 
L 58.349455 122.901723 
L 58.958182 122.379022 
L 59.262545 122.447373 
L 59.566909 122.317677 
L 59.871273 122.372251 
L 60.48 121.859653 
L 60.784364 121.715418 
L 61.697455 120.265772 
L 62.306182 118.222846 
L 63.219273 112.641691 
L 63.828 105.593487 
L 64.436727 95.76454 
L 65.045455 80.703954 
L 65.958545 50.821276 
L 66.871636 28.208484 
L 67.176 23.154865 
L 67.480364 22.32 
L 67.784727 25.832087 
L 68.393455 40.509595 
L 69.002182 59.301737 
L 69.915273 93.479159 
L 70.524 106.508708 
L 71.132727 113.687709 
L 71.741455 117.764131 
L 72.350182 120.389502 
L 72.958909 121.721596 
L 73.263273 122.112057 
L 73.872 122.568881 
L 74.176364 122.518612 
L 75.089455 122.797397 
L 76.306909 122.824295 
L 76.611273 122.865201 
L 76.915636 122.6979 
L 77.828727 122.915156 
L 78.133091 122.940748 
L 78.437455 122.794892 
L 78.741818 122.83379 
L 79.046182 122.685448 
L 79.959273 122.947724 
L 80.263636 122.737045 
L 81.481091 123.018404 
L 82.089818 122.808241 
L 82.394182 122.903588 
L 82.698545 122.851956 
L 83.611636 122.96859 
L 83.916 122.882309 
L 84.220364 123.005003 
L 85.133455 122.944651 
L 85.742182 122.912536 
L 86.046545 123.007086 
L 87.264 122.939544 
L 87.872727 122.900085 
L 88.177091 122.696313 
L 88.785818 122.638438 
L 89.090182 122.555422 
L 89.394545 122.639635 
L 90.612 121.883028 
L 91.220727 121.60345 
L 92.742545 122.169364 
L 93.351273 122.529449 
L 93.655636 122.610589 
L 94.568727 122.321255 
L 95.177455 122.203246 
L 95.481818 122.107541 
L 95.786182 122.175748 
L 96.394909 122.086337 
L 97.003636 122.004283 
L 97.308 122.268465 
L 97.916727 122.21887 
L 98.829818 122.482581 
L 99.134182 122.33323 
L 100.351636 122.809684 
L 101.264727 122.906349 
L 101.569091 122.980144 
L 101.873455 122.912839 
L 102.482182 122.910096 
L 103.090909 122.887116 
L 103.395273 123.107794 
L 104.004 122.815348 
L 104.612727 122.926709 
L 105.525818 123.088305 
L 106.438909 122.817113 
L 107.047636 123.044845 
L 107.960727 123.01961 
L 108.265091 122.853501 
L 108.873818 123.067451 
L 110.395636 122.870937 
L 111.004364 122.901577 
L 111.613091 122.845504 
L 111.917455 122.553863 
L 112.526182 122.208003 
L 113.134909 121.706632 
L 113.439273 121.288013 
L 113.743636 121.08714 
L 114.352364 121.158868 
L 115.265455 121.551274 
L 116.178545 122.279714 
L 116.787273 122.296134 
L 117.091636 122.265919 
L 117.700364 122.002311 
L 118.309091 122.14613 
L 118.613455 121.934108 
L 118.917818 121.881817 
L 120.439636 122.228624 
L 120.744 122.113531 
L 121.048364 122.138395 
L 121.657091 122.464904 
L 121.961455 122.469949 
L 122.874545 122.888892 
L 124.092 122.94654 
L 124.396364 122.817561 
L 124.700727 123.005317 
L 125.309455 122.965696 
L 125.613818 122.906482 
L 126.526909 123.069827 
L 127.44 122.829546 
L 128.353091 122.89714 
L 128.961818 122.805445 
L 129.570545 122.89766 
L 129.874909 122.827808 
L 130.179273 122.64352 
L 131.092364 122.627742 
L 131.701091 122.325827 
L 132.309818 121.699465 
L 132.918545 120.640772 
L 133.527273 118.510492 
L 134.136 114.626891 
L 134.744727 108.858856 
L 135.353455 100.122662 
L 135.962182 86.163132 
L 136.570909 66.059753 
L 137.179636 44.236989 
L 137.788364 31.038822 
L 138.092727 28.082067 
L 138.397091 28.520205 
L 138.701455 32.055158 
L 139.310182 49.158917 
L 140.223273 79.079225 
L 140.832 96.369986 
L 141.440727 107.048389 
L 142.049455 113.215778 
L 142.658182 116.969135 
L 143.266909 119.749051 
L 143.875636 121.16182 
L 145.093091 122.304682 
L 145.701818 122.51043 
L 146.006182 122.422034 
L 146.310545 122.450802 
L 146.614909 122.660937 
L 147.832364 122.88575 
L 148.136727 122.799334 
L 148.441091 122.839851 
L 149.049818 122.723263 
L 149.658545 122.733656 
L 149.962909 122.856938 
L 150.571636 122.749412 
L 151.484727 122.936678 
L 152.702182 122.669098 
L 153.615273 122.96495 
L 153.919636 122.862739 
L 154.528364 123.022365 
L 154.832727 122.938321 
L 155.745818 123.053835 
L 156.050182 122.945627 
L 156.963273 123.051614 
L 157.267636 122.888055 
L 157.876364 122.970322 
L 158.180727 122.96737 
L 158.485091 122.830251 
L 159.093818 122.890211 
L 160.311273 122.439752 
L 160.615636 122.415909 
L 160.92 122.126219 
L 161.833091 121.872833 
L 162.441818 121.898827 
L 163.050545 121.90866 
L 163.354909 122.019406 
L 163.659273 122.33116 
L 163.963636 122.450153 
L 164.268 122.434062 
L 164.572364 122.560295 
L 165.181091 122.466591 
L 165.485455 122.422242 
L 165.789818 122.179285 
L 168.224727 121.684924 
L 169.137818 122.263737 
L 170.964 122.924937 
L 171.572727 122.891831 
L 172.181455 123.021016 
L 172.485818 122.979961 
L 172.790182 122.821043 
L 173.398909 122.973738 
L 174.007636 123.063349 
L 174.312 122.874945 
L 174.616364 122.824097 
L 175.225091 122.927914 
L 176.442545 122.898482 
L 176.746909 122.91092 
L 177.051273 123.062243 
L 177.66 122.898352 
L 178.268727 123.002809 
L 178.877455 122.923772 
L 179.181818 123.090668 
L 179.486182 122.967578 
L 180.399273 122.996826 
L 182.225455 122.924819 
L 182.834182 123.12 
L 183.442909 122.891444 
L 183.747273 122.846463 
L 184.660364 123.030316 
L 185.269091 122.901463 
L 185.877818 123.050021 
L 186.790909 123.007523 
L 186.790909 123.007523 
" clip-path="url(#pf52fb9ffae)" style="fill: none; stroke: #1f77b4; stroke-width: 1.5; stroke-linecap: square"/>
   </g>
   <g id="patch_3">
    <path d="M 27 128.16 
L 27 17.28 
" style="fill: none; stroke: #000000; stroke-width: 0.8; stroke-linejoin: miter; stroke-linecap: square"/>
   </g>
   <g id="patch_4">
    <path d="M 194.4 128.16 
L 194.4 17.28 
" style="fill: none; stroke: #000000; stroke-width: 0.8; stroke-linejoin: miter; stroke-linecap: square"/>
   </g>
   <g id="patch_5">
    <path d="M 27 128.16 
L 194.4 128.16 
" style="fill: none; stroke: #000000; stroke-width: 0.8; stroke-linejoin: miter; stroke-linecap: square"/>
   </g>
   <g id="patch_6">
    <path d="M 27 17.28 
L 194.4 17.28 
" style="fill: none; stroke: #000000; stroke-width: 0.8; stroke-linejoin: miter; stroke-linecap: square"/>
   </g>
  </g>
 </g>
 <defs>
  <clipPath id="pf52fb9ffae">
   <rect x="27" y="17.28" width="167.4" height="110.88"/>
  </clipPath>
 </defs>
</svg>
