<?xml version="1.0" encoding="utf-8" standalone="no"?>
<!DOCTYPE svg PUBLIC "-//W3C//DTD SVG 1.1//EN"
  "http://www.w3.org/Graphics/SVG/1.1/DTD/svg11.dtd">
<svg xmlns:xlink="http://www.w3.org/1999/xlink" width="216pt" height="144pt" viewBox="0 0 216 144" xmlns="http://www.w3.org/2000/svg" version="1.1">
 <metadata>
  <rdf:RDF xmlns:dc="http://purl.org/dc/elements/1.1/" xmlns:cc="http://creativecommons.org/ns#" xmlns:rdf="http://www.w3.org/1999/02/22-rdf-syntax-ns#">
   <cc:Work>
    <dc:type rdf:resource="http://purl.org/dc/dcmitype/StillImage"/>
    <dc:date>2022-04-19T16:59:16.101854</dc:date>
    <dc:format>image/svg+xml</dc:format>
    <dc:creator>
     <cc:Agent>
      <dc:title>Matplotlib v3.5.1, https://matplotlib.org/</dc:title>
     </cc:Agent>
    </dc:creator>
   </cc:Work>
  </rdf:RDF>
 </metadata>
 <defs>
  <style type="text/css">*{stroke-linejoin: round; stroke-linecap: butt}</style>
 </defs>
 <g id="figure_1">
  <g id="patch_1">
   <path d="M 0 144 
L 216 144 
L 216 0 
L 0 0 
z
" style="fill: #ffffff"/>
  </g>
  <g id="axes_1">
   <g id="patch_2">
    <path d="M 27 128.16 
L 194.4 128.16 
L 194.4 17.28 
L 27 17.28 
z
" style="fill: #ffffff"/>
   </g>
   <g id="matplotlib.axis_1">
    <g id="xtick_1">
     <g id="line2d_1">
      <defs>
       <path id="mb70222a704" d="M 0 0 
L 0 3.5 
" style="stroke: #000000; stroke-width: 0.8"/>
      </defs>
      <g>
       <use xlink:href="#mb70222a704" x="34.609091" y="128.16" style="stroke: #000000; stroke-width: 0.8"/>
      </g>
     </g>
     <g id="text_1">
      <!-- 2600 -->
      <g transform="translate(20.611591 143.518281)scale(0.11 -0.11)">
       <defs>
        <path id="DejaVuSans-32" d="M 1228 531 
L 3431 531 
L 3431 0 
L 469 0 
L 469 531 
Q 828 903 1448 1529 
Q 2069 2156 2228 2338 
Q 2531 2678 2651 2914 
Q 2772 3150 2772 3378 
Q 2772 3750 2511 3984 
Q 2250 4219 1831 4219 
Q 1534 4219 1204 4116 
Q 875 4013 500 3803 
L 500 4441 
Q 881 4594 1212 4672 
Q 1544 4750 1819 4750 
Q 2544 4750 2975 4387 
Q 3406 4025 3406 3419 
Q 3406 3131 3298 2873 
Q 3191 2616 2906 2266 
Q 2828 2175 2409 1742 
Q 1991 1309 1228 531 
z
" transform="scale(0.015625)"/>
        <path id="DejaVuSans-36" d="M 2113 2584 
Q 1688 2584 1439 2293 
Q 1191 2003 1191 1497 
Q 1191 994 1439 701 
Q 1688 409 2113 409 
Q 2538 409 2786 701 
Q 3034 994 3034 1497 
Q 3034 2003 2786 2293 
Q 2538 2584 2113 2584 
z
M 3366 4563 
L 3366 3988 
Q 3128 4100 2886 4159 
Q 2644 4219 2406 4219 
Q 1781 4219 1451 3797 
Q 1122 3375 1075 2522 
Q 1259 2794 1537 2939 
Q 1816 3084 2150 3084 
Q 2853 3084 3261 2657 
Q 3669 2231 3669 1497 
Q 3669 778 3244 343 
Q 2819 -91 2113 -91 
Q 1303 -91 875 529 
Q 447 1150 447 2328 
Q 447 3434 972 4092 
Q 1497 4750 2381 4750 
Q 2619 4750 2861 4703 
Q 3103 4656 3366 4563 
z
" transform="scale(0.015625)"/>
        <path id="DejaVuSans-30" d="M 2034 4250 
Q 1547 4250 1301 3770 
Q 1056 3291 1056 2328 
Q 1056 1369 1301 889 
Q 1547 409 2034 409 
Q 2525 409 2770 889 
Q 3016 1369 3016 2328 
Q 3016 3291 2770 3770 
Q 2525 4250 2034 4250 
z
M 2034 4750 
Q 2819 4750 3233 4129 
Q 3647 3509 3647 2328 
Q 3647 1150 3233 529 
Q 2819 -91 2034 -91 
Q 1250 -91 836 529 
Q 422 1150 422 2328 
Q 422 3509 836 4129 
Q 1250 4750 2034 4750 
z
" transform="scale(0.015625)"/>
       </defs>
       <use xlink:href="#DejaVuSans-32"/>
       <use xlink:href="#DejaVuSans-36" x="63.623047"/>
       <use xlink:href="#DejaVuSans-30" x="127.246094"/>
       <use xlink:href="#DejaVuSans-30" x="190.869141"/>
      </g>
     </g>
    </g>
    <g id="xtick_2">
     <g id="line2d_2">
      <g>
       <use xlink:href="#mb70222a704" x="85.540088" y="128.16" style="stroke: #000000; stroke-width: 0.8"/>
      </g>
     </g>
     <g id="text_2">
      <!-- 2700 -->
      <g transform="translate(71.542588 143.518281)scale(0.11 -0.11)">
       <defs>
        <path id="DejaVuSans-37" d="M 525 4666 
L 3525 4666 
L 3525 4397 
L 1831 0 
L 1172 0 
L 2766 4134 
L 525 4134 
L 525 4666 
z
" transform="scale(0.015625)"/>
       </defs>
       <use xlink:href="#DejaVuSans-32"/>
       <use xlink:href="#DejaVuSans-37" x="63.623047"/>
       <use xlink:href="#DejaVuSans-30" x="127.246094"/>
       <use xlink:href="#DejaVuSans-30" x="190.869141"/>
      </g>
     </g>
    </g>
    <g id="xtick_3">
     <g id="line2d_3">
      <g>
       <use xlink:href="#mb70222a704" x="136.471084" y="128.16" style="stroke: #000000; stroke-width: 0.8"/>
      </g>
     </g>
     <g id="text_3">
      <!-- 2800 -->
      <g transform="translate(122.473584 143.518281)scale(0.11 -0.11)">
       <defs>
        <path id="DejaVuSans-38" d="M 2034 2216 
Q 1584 2216 1326 1975 
Q 1069 1734 1069 1313 
Q 1069 891 1326 650 
Q 1584 409 2034 409 
Q 2484 409 2743 651 
Q 3003 894 3003 1313 
Q 3003 1734 2745 1975 
Q 2488 2216 2034 2216 
z
M 1403 2484 
Q 997 2584 770 2862 
Q 544 3141 544 3541 
Q 544 4100 942 4425 
Q 1341 4750 2034 4750 
Q 2731 4750 3128 4425 
Q 3525 4100 3525 3541 
Q 3525 3141 3298 2862 
Q 3072 2584 2669 2484 
Q 3125 2378 3379 2068 
Q 3634 1759 3634 1313 
Q 3634 634 3220 271 
Q 2806 -91 2034 -91 
Q 1263 -91 848 271 
Q 434 634 434 1313 
Q 434 1759 690 2068 
Q 947 2378 1403 2484 
z
M 1172 3481 
Q 1172 3119 1398 2916 
Q 1625 2713 2034 2713 
Q 2441 2713 2670 2916 
Q 2900 3119 2900 3481 
Q 2900 3844 2670 4047 
Q 2441 4250 2034 4250 
Q 1625 4250 1398 4047 
Q 1172 3844 1172 3481 
z
" transform="scale(0.015625)"/>
       </defs>
       <use xlink:href="#DejaVuSans-32"/>
       <use xlink:href="#DejaVuSans-38" x="63.623047"/>
       <use xlink:href="#DejaVuSans-30" x="127.246094"/>
       <use xlink:href="#DejaVuSans-30" x="190.869141"/>
      </g>
     </g>
    </g>
    <g id="xtick_4">
     <g id="line2d_4">
      <g>
       <use xlink:href="#mb70222a704" x="187.402081" y="128.16" style="stroke: #000000; stroke-width: 0.8"/>
      </g>
     </g>
     <g id="text_4">
      <!-- 2900 -->
      <g transform="translate(173.404581 143.518281)scale(0.11 -0.11)">
       <defs>
        <path id="DejaVuSans-39" d="M 703 97 
L 703 672 
Q 941 559 1184 500 
Q 1428 441 1663 441 
Q 2288 441 2617 861 
Q 2947 1281 2994 2138 
Q 2813 1869 2534 1725 
Q 2256 1581 1919 1581 
Q 1219 1581 811 2004 
Q 403 2428 403 3163 
Q 403 3881 828 4315 
Q 1253 4750 1959 4750 
Q 2769 4750 3195 4129 
Q 3622 3509 3622 2328 
Q 3622 1225 3098 567 
Q 2575 -91 1691 -91 
Q 1453 -91 1209 -44 
Q 966 3 703 97 
z
M 1959 2075 
Q 2384 2075 2632 2365 
Q 2881 2656 2881 3163 
Q 2881 3666 2632 3958 
Q 2384 4250 1959 4250 
Q 1534 4250 1286 3958 
Q 1038 3666 1038 3163 
Q 1038 2656 1286 2365 
Q 1534 2075 1959 2075 
z
" transform="scale(0.015625)"/>
       </defs>
       <use xlink:href="#DejaVuSans-32"/>
       <use xlink:href="#DejaVuSans-39" x="63.623047"/>
       <use xlink:href="#DejaVuSans-30" x="127.246094"/>
       <use xlink:href="#DejaVuSans-30" x="190.869141"/>
      </g>
     </g>
    </g>
   </g>
   <g id="matplotlib.axis_2">
    <g id="ytick_1">
     <g id="line2d_5">
      <defs>
       <path id="m4a9507c13d" d="M 0 0 
L -3.5 0 
" style="stroke: #000000; stroke-width: 0.8"/>
      </defs>
      <g>
       <use xlink:href="#m4a9507c13d" x="27" y="122.913846" style="stroke: #000000; stroke-width: 0.8"/>
      </g>
     </g>
     <g id="text_5">
      <!-- 0.00 -->
      <g transform="translate(-6.71875 127.472908)scale(0.12 -0.12)">
       <defs>
        <path id="DejaVuSans-2e" d="M 684 794 
L 1344 794 
L 1344 0 
L 684 0 
L 684 794 
z
" transform="scale(0.015625)"/>
       </defs>
       <use xlink:href="#DejaVuSans-30"/>
       <use xlink:href="#DejaVuSans-2e" x="63.623047"/>
       <use xlink:href="#DejaVuSans-30" x="95.410156"/>
       <use xlink:href="#DejaVuSans-30" x="159.033203"/>
      </g>
     </g>
    </g>
    <g id="ytick_2">
     <g id="line2d_6">
      <g>
       <use xlink:href="#m4a9507c13d" x="27" y="97.765384" style="stroke: #000000; stroke-width: 0.8"/>
      </g>
     </g>
     <g id="text_6">
      <!-- 0.25 -->
      <g transform="translate(-6.71875 102.324447)scale(0.12 -0.12)">
       <defs>
        <path id="DejaVuSans-35" d="M 691 4666 
L 3169 4666 
L 3169 4134 
L 1269 4134 
L 1269 2991 
Q 1406 3038 1543 3061 
Q 1681 3084 1819 3084 
Q 2600 3084 3056 2656 
Q 3513 2228 3513 1497 
Q 3513 744 3044 326 
Q 2575 -91 1722 -91 
Q 1428 -91 1123 -41 
Q 819 9 494 109 
L 494 744 
Q 775 591 1075 516 
Q 1375 441 1709 441 
Q 2250 441 2565 725 
Q 2881 1009 2881 1497 
Q 2881 1984 2565 2268 
Q 2250 2553 1709 2553 
Q 1456 2553 1204 2497 
Q 953 2441 691 2322 
L 691 4666 
z
" transform="scale(0.015625)"/>
       </defs>
       <use xlink:href="#DejaVuSans-30"/>
       <use xlink:href="#DejaVuSans-2e" x="63.623047"/>
       <use xlink:href="#DejaVuSans-32" x="95.410156"/>
       <use xlink:href="#DejaVuSans-35" x="159.033203"/>
      </g>
     </g>
    </g>
    <g id="ytick_3">
     <g id="line2d_7">
      <g>
       <use xlink:href="#m4a9507c13d" x="27" y="72.616923" style="stroke: #000000; stroke-width: 0.8"/>
      </g>
     </g>
     <g id="text_7">
      <!-- 0.50 -->
      <g transform="translate(-6.71875 77.175985)scale(0.12 -0.12)">
       <use xlink:href="#DejaVuSans-30"/>
       <use xlink:href="#DejaVuSans-2e" x="63.623047"/>
       <use xlink:href="#DejaVuSans-35" x="95.410156"/>
       <use xlink:href="#DejaVuSans-30" x="159.033203"/>
      </g>
     </g>
    </g>
    <g id="ytick_4">
     <g id="line2d_8">
      <g>
       <use xlink:href="#m4a9507c13d" x="27" y="47.468461" style="stroke: #000000; stroke-width: 0.8"/>
      </g>
     </g>
     <g id="text_8">
      <!-- 0.75 -->
      <g transform="translate(-6.71875 52.027524)scale(0.12 -0.12)">
       <use xlink:href="#DejaVuSans-30"/>
       <use xlink:href="#DejaVuSans-2e" x="63.623047"/>
       <use xlink:href="#DejaVuSans-37" x="95.410156"/>
       <use xlink:href="#DejaVuSans-35" x="159.033203"/>
      </g>
     </g>
    </g>
    <g id="ytick_5">
     <g id="line2d_9">
      <g>
       <use xlink:href="#m4a9507c13d" x="27" y="22.32" style="stroke: #000000; stroke-width: 0.8"/>
      </g>
     </g>
     <g id="text_9">
      <!-- 1.00 -->
      <g transform="translate(-6.71875 26.879063)scale(0.12 -0.12)">
       <defs>
        <path id="DejaVuSans-31" d="M 794 531 
L 1825 531 
L 1825 4091 
L 703 3866 
L 703 4441 
L 1819 4666 
L 2450 4666 
L 2450 531 
L 3481 531 
L 3481 0 
L 794 0 
L 794 531 
z
" transform="scale(0.015625)"/>
       </defs>
       <use xlink:href="#DejaVuSans-31"/>
       <use xlink:href="#DejaVuSans-2e" x="63.623047"/>
       <use xlink:href="#DejaVuSans-30" x="95.410156"/>
       <use xlink:href="#DejaVuSans-30" x="159.033203"/>
      </g>
     </g>
    </g>
   </g>
   <g id="line2d_10">
    <path d="M 34.609091 122.518785 
L 35.220263 122.089098 
L 35.831435 122.418452 
L 37.053779 121.873829 
L 37.664951 122.490954 
L 38.276123 122.875744 
L 38.887295 122.756009 
L 39.498467 121.808448 
L 40.109639 122.575049 
L 40.720811 122.36486 
L 41.331982 121.818925 
L 41.943154 121.581443 
L 42.554326 122.181863 
L 43.165498 122.595516 
L 43.77667 122.055429 
L 44.387842 121.754528 
L 44.999014 122.108267 
L 46.221358 122.113626 
L 46.83253 122.04768 
L 47.443702 122.516027 
L 48.666046 123.12 
L 49.277218 122.562936 
L 49.88839 122.528017 
L 50.499562 121.997592 
L 51.110734 122.423955 
L 51.721906 123.003674 
L 52.333078 122.59409 
L 52.94425 122.606698 
L 54.166594 122.324487 
L 54.777766 122.834638 
L 55.388938 122.613213 
L 57.222453 122.467779 
L 58.444797 121.901262 
L 59.055969 122.05558 
L 59.667141 122.918609 
L 60.278313 122.881243 
L 60.889485 122.616237 
L 62.111829 121.457713 
L 62.723001 121.996649 
L 63.334173 121.743026 
L 63.945345 120.07295 
L 65.167689 117.483225 
L 65.778861 115.811321 
L 66.390033 111.721168 
L 67.001205 106.115798 
L 68.223549 87.11389 
L 68.834721 82.198827 
L 69.445893 82.098117 
L 70.057065 82.922616 
L 70.668237 88.506729 
L 71.890581 107.793266 
L 72.501752 113.311423 
L 73.112924 116.688937 
L 73.724096 118.039252 
L 74.335268 119.805883 
L 74.94644 120.951275 
L 75.557612 121.663632 
L 76.168784 121.023605 
L 76.779956 121.718117 
L 77.391128 122.694984 
L 78.0023 122.348519 
L 78.613472 121.174145 
L 79.224644 122.280176 
L 79.835816 122.686318 
L 81.05816 122.279594 
L 81.669332 121.751295 
L 82.280504 121.860147 
L 82.891676 122.516867 
L 83.502848 122.472716 
L 84.11402 122.241991 
L 84.725192 122.237479 
L 85.336364 122.563014 
L 85.947536 121.921557 
L 86.558708 122.653427 
L 87.16988 122.440423 
L 87.781051 122.424574 
L 88.392223 122.099031 
L 89.003395 122.752022 
L 90.225739 123.017999 
L 90.836911 122.628153 
L 91.448083 121.904913 
L 92.670427 122.523342 
L 93.281599 122.442255 
L 93.892771 122.950156 
L 94.503943 122.514634 
L 95.726287 122.500657 
L 96.337459 122.124567 
L 98.170975 119.324649 
L 98.782147 118.68924 
L 99.393319 115.777688 
L 100.004491 110.534092 
L 100.615663 103.911363 
L 101.226835 92.841677 
L 101.838007 75.305066 
L 102.449179 64.549128 
L 103.06035 61.442208 
L 103.671522 63.152893 
L 104.282694 70.639512 
L 105.505038 99.721816 
L 106.11621 108.718073 
L 106.727382 113.598511 
L 107.338554 116.994165 
L 107.949726 118.876101 
L 109.17207 120.999507 
L 109.783242 121.232331 
L 110.394414 121.653011 
L 111.005586 121.069879 
L 111.616758 121.757286 
L 112.22793 121.790308 
L 112.839102 121.627332 
L 113.450274 121.72485 
L 114.061446 122.37694 
L 114.672618 122.548374 
L 115.28379 122.096863 
L 115.894962 122.385315 
L 116.506134 121.388563 
L 117.117306 121.797102 
L 118.33965 123.062122 
L 118.950821 122.140236 
L 119.561993 122.548894 
L 120.173165 122.622474 
L 120.784337 122.813326 
L 122.006681 121.521496 
L 122.617853 122.247301 
L 123.229025 122.491106 
L 123.840197 120.783168 
L 124.451369 120.509406 
L 125.062541 119.825658 
L 125.673713 119.416381 
L 126.284885 118.492291 
L 126.896057 116.238308 
L 128.118401 108.763785 
L 128.729573 104.63439 
L 129.340745 97.8422 
L 129.951917 83.612457 
L 130.563089 62.149148 
L 131.174261 50.616767 
L 131.785433 48.415601 
L 132.396605 52.824723 
L 133.007777 60.672663 
L 134.23012 94.793332 
L 134.841292 105.911784 
L 135.452464 112.063482 
L 136.674808 118.758354 
L 137.28598 119.5825 
L 137.897152 120.146981 
L 138.508324 121.008764 
L 139.119496 120.916163 
L 140.34184 122.205658 
L 140.953012 122.085247 
L 141.564184 122.628317 
L 142.175356 122.277041 
L 142.786528 121.578026 
L 143.3977 121.923721 
L 144.008872 122.482755 
L 144.620044 122.772432 
L 145.842388 122.127402 
L 146.45356 122.499916 
L 147.675904 122.244166 
L 148.898248 121.328931 
L 149.509419 121.830169 
L 150.120591 122.486759 
L 150.731763 122.330936 
L 151.342935 122.779648 
L 151.954107 122.533917 
L 153.176451 123.024363 
L 154.398795 122.454171 
L 155.009967 122.430655 
L 155.621139 121.040032 
L 156.232311 120.179528 
L 157.454655 114.941937 
L 158.065827 110.843437 
L 158.676999 105.28369 
L 159.288171 97.734786 
L 159.899343 82.842099 
L 161.121687 32.995186 
L 161.732859 22.781319 
L 162.344031 22.32 
L 162.955203 27.298368 
L 163.566375 44.528238 
L 164.177547 68.39746 
L 164.788719 87.837958 
L 165.39989 100.222067 
L 166.011062 108.194286 
L 166.622234 112.368435 
L 167.844578 119.112399 
L 168.45575 120.635492 
L 169.066922 120.375973 
L 169.678094 121.926679 
L 170.289266 122.233914 
L 170.900438 122.750125 
L 171.51161 122.153815 
L 172.122782 122.036289 
L 172.733954 122.211611 
L 173.345126 121.561385 
L 173.956298 120.133504 
L 174.56747 120.095843 
L 175.789814 121.035365 
L 176.400986 121.05993 
L 177.012158 120.642511 
L 177.62333 120.866988 
L 178.234502 122.165928 
L 178.845674 121.796967 
L 179.456846 122.009741 
L 180.068018 122.46557 
L 183.123877 122.831843 
L 183.735049 122.935036 
L 184.346221 122.833879 
L 184.957393 122.303245 
L 185.568565 122.25782 
L 186.179737 122.576471 
L 186.790909 122.472597 
L 186.790909 122.472597 
" clip-path="url(#pa775beeaea)" style="fill: none; stroke: #1f77b4; stroke-width: 1.5; stroke-linecap: square"/>
   </g>
   <g id="patch_3">
    <path d="M 27 128.16 
L 27 17.28 
" style="fill: none; stroke: #000000; stroke-width: 0.8; stroke-linejoin: miter; stroke-linecap: square"/>
   </g>
   <g id="patch_4">
    <path d="M 194.4 128.16 
L 194.4 17.28 
" style="fill: none; stroke: #000000; stroke-width: 0.8; stroke-linejoin: miter; stroke-linecap: square"/>
   </g>
   <g id="patch_5">
    <path d="M 27 128.16 
L 194.4 128.16 
" style="fill: none; stroke: #000000; stroke-width: 0.8; stroke-linejoin: miter; stroke-linecap: square"/>
   </g>
   <g id="patch_6">
    <path d="M 27 17.28 
L 194.4 17.28 
" style="fill: none; stroke: #000000; stroke-width: 0.8; stroke-linejoin: miter; stroke-linecap: square"/>
   </g>
  </g>
 </g>
 <defs>
  <clipPath id="pa775beeaea">
   <rect x="27" y="17.28" width="167.4" height="110.88"/>
  </clipPath>
 </defs>
</svg>
