<?xml version="1.0" encoding="utf-8" standalone="no"?>
<!DOCTYPE svg PUBLIC "-//W3C//DTD SVG 1.1//EN"
  "http://www.w3.org/Graphics/SVG/1.1/DTD/svg11.dtd">
<svg xmlns:xlink="http://www.w3.org/1999/xlink" width="216pt" height="144pt" viewBox="0 0 216 144" xmlns="http://www.w3.org/2000/svg" version="1.1">
 <metadata>
  <rdf:RDF xmlns:dc="http://purl.org/dc/elements/1.1/" xmlns:cc="http://creativecommons.org/ns#" xmlns:rdf="http://www.w3.org/1999/02/22-rdf-syntax-ns#">
   <cc:Work>
    <dc:type rdf:resource="http://purl.org/dc/dcmitype/StillImage"/>
    <dc:date>2022-07-08T18:46:51.661824</dc:date>
    <dc:format>image/svg+xml</dc:format>
    <dc:creator>
     <cc:Agent>
      <dc:title>Matplotlib v3.5.1, https://matplotlib.org/</dc:title>
     </cc:Agent>
    </dc:creator>
   </cc:Work>
  </rdf:RDF>
 </metadata>
 <defs>
  <style type="text/css">*{stroke-linejoin: round; stroke-linecap: butt}</style>
 </defs>
 <g id="figure_1">
  <g id="patch_1">
   <path d="M 0 144 
L 216 144 
L 216 0 
L 0 0 
z
" style="fill: #ffffff"/>
  </g>
  <g id="axes_1">
   <g id="patch_2">
    <path d="M 27 128.16 
L 194.4 128.16 
L 194.4 17.28 
L 27 17.28 
z
" style="fill: #ffffff"/>
   </g>
   <g id="matplotlib.axis_1">
    <g id="xtick_1">
     <g id="line2d_1">
      <defs>
       <path id="m91412a64a1" d="M 0 0 
L 0 3.5 
" style="stroke: #000000; stroke-width: 0.8"/>
      </defs>
      <g>
       <use xlink:href="#m91412a64a1" x="34.609091" y="128.16" style="stroke: #000000; stroke-width: 0.8"/>
      </g>
     </g>
     <g id="text_1">
      <!-- 2800 -->
      <g transform="translate(19.339091 144.278125)scale(0.12 -0.12)">
       <defs>
        <path id="DejaVuSans-32" d="M 1228 531 
L 3431 531 
L 3431 0 
L 469 0 
L 469 531 
Q 828 903 1448 1529 
Q 2069 2156 2228 2338 
Q 2531 2678 2651 2914 
Q 2772 3150 2772 3378 
Q 2772 3750 2511 3984 
Q 2250 4219 1831 4219 
Q 1534 4219 1204 4116 
Q 875 4013 500 3803 
L 500 4441 
Q 881 4594 1212 4672 
Q 1544 4750 1819 4750 
Q 2544 4750 2975 4387 
Q 3406 4025 3406 3419 
Q 3406 3131 3298 2873 
Q 3191 2616 2906 2266 
Q 2828 2175 2409 1742 
Q 1991 1309 1228 531 
z
" transform="scale(0.015625)"/>
        <path id="DejaVuSans-38" d="M 2034 2216 
Q 1584 2216 1326 1975 
Q 1069 1734 1069 1313 
Q 1069 891 1326 650 
Q 1584 409 2034 409 
Q 2484 409 2743 651 
Q 3003 894 3003 1313 
Q 3003 1734 2745 1975 
Q 2488 2216 2034 2216 
z
M 1403 2484 
Q 997 2584 770 2862 
Q 544 3141 544 3541 
Q 544 4100 942 4425 
Q 1341 4750 2034 4750 
Q 2731 4750 3128 4425 
Q 3525 4100 3525 3541 
Q 3525 3141 3298 2862 
Q 3072 2584 2669 2484 
Q 3125 2378 3379 2068 
Q 3634 1759 3634 1313 
Q 3634 634 3220 271 
Q 2806 -91 2034 -91 
Q 1263 -91 848 271 
Q 434 634 434 1313 
Q 434 1759 690 2068 
Q 947 2378 1403 2484 
z
M 1172 3481 
Q 1172 3119 1398 2916 
Q 1625 2713 2034 2713 
Q 2441 2713 2670 2916 
Q 2900 3119 2900 3481 
Q 2900 3844 2670 4047 
Q 2441 4250 2034 4250 
Q 1625 4250 1398 4047 
Q 1172 3844 1172 3481 
z
" transform="scale(0.015625)"/>
        <path id="DejaVuSans-30" d="M 2034 4250 
Q 1547 4250 1301 3770 
Q 1056 3291 1056 2328 
Q 1056 1369 1301 889 
Q 1547 409 2034 409 
Q 2525 409 2770 889 
Q 3016 1369 3016 2328 
Q 3016 3291 2770 3770 
Q 2525 4250 2034 4250 
z
M 2034 4750 
Q 2819 4750 3233 4129 
Q 3647 3509 3647 2328 
Q 3647 1150 3233 529 
Q 2819 -91 2034 -91 
Q 1250 -91 836 529 
Q 422 1150 422 2328 
Q 422 3509 836 4129 
Q 1250 4750 2034 4750 
z
" transform="scale(0.015625)"/>
       </defs>
       <use xlink:href="#DejaVuSans-32"/>
       <use xlink:href="#DejaVuSans-38" x="63.623047"/>
       <use xlink:href="#DejaVuSans-30" x="127.246094"/>
       <use xlink:href="#DejaVuSans-30" x="190.869141"/>
      </g>
     </g>
    </g>
    <g id="xtick_2">
     <g id="line2d_2">
      <g>
       <use xlink:href="#m91412a64a1" x="85.50602" y="128.16" style="stroke: #000000; stroke-width: 0.8"/>
      </g>
     </g>
     <g id="text_2">
      <!-- 2850 -->
      <g transform="translate(70.23602 144.278125)scale(0.12 -0.12)">
       <defs>
        <path id="DejaVuSans-35" d="M 691 4666 
L 3169 4666 
L 3169 4134 
L 1269 4134 
L 1269 2991 
Q 1406 3038 1543 3061 
Q 1681 3084 1819 3084 
Q 2600 3084 3056 2656 
Q 3513 2228 3513 1497 
Q 3513 744 3044 326 
Q 2575 -91 1722 -91 
Q 1428 -91 1123 -41 
Q 819 9 494 109 
L 494 744 
Q 775 591 1075 516 
Q 1375 441 1709 441 
Q 2250 441 2565 725 
Q 2881 1009 2881 1497 
Q 2881 1984 2565 2268 
Q 2250 2553 1709 2553 
Q 1456 2553 1204 2497 
Q 953 2441 691 2322 
L 691 4666 
z
" transform="scale(0.015625)"/>
       </defs>
       <use xlink:href="#DejaVuSans-32"/>
       <use xlink:href="#DejaVuSans-38" x="63.623047"/>
       <use xlink:href="#DejaVuSans-35" x="127.246094"/>
       <use xlink:href="#DejaVuSans-30" x="190.869141"/>
      </g>
     </g>
    </g>
    <g id="xtick_3">
     <g id="line2d_3">
      <g>
       <use xlink:href="#m91412a64a1" x="136.402949" y="128.16" style="stroke: #000000; stroke-width: 0.8"/>
      </g>
     </g>
     <g id="text_3">
      <!-- 2900 -->
      <g transform="translate(121.132949 144.278125)scale(0.12 -0.12)">
       <defs>
        <path id="DejaVuSans-39" d="M 703 97 
L 703 672 
Q 941 559 1184 500 
Q 1428 441 1663 441 
Q 2288 441 2617 861 
Q 2947 1281 2994 2138 
Q 2813 1869 2534 1725 
Q 2256 1581 1919 1581 
Q 1219 1581 811 2004 
Q 403 2428 403 3163 
Q 403 3881 828 4315 
Q 1253 4750 1959 4750 
Q 2769 4750 3195 4129 
Q 3622 3509 3622 2328 
Q 3622 1225 3098 567 
Q 2575 -91 1691 -91 
Q 1453 -91 1209 -44 
Q 966 3 703 97 
z
M 1959 2075 
Q 2384 2075 2632 2365 
Q 2881 2656 2881 3163 
Q 2881 3666 2632 3958 
Q 2384 4250 1959 4250 
Q 1534 4250 1286 3958 
Q 1038 3666 1038 3163 
Q 1038 2656 1286 2365 
Q 1534 2075 1959 2075 
z
" transform="scale(0.015625)"/>
       </defs>
       <use xlink:href="#DejaVuSans-32"/>
       <use xlink:href="#DejaVuSans-39" x="63.623047"/>
       <use xlink:href="#DejaVuSans-30" x="127.246094"/>
       <use xlink:href="#DejaVuSans-30" x="190.869141"/>
      </g>
     </g>
    </g>
    <g id="xtick_4">
     <g id="line2d_4">
      <g>
       <use xlink:href="#m91412a64a1" x="187.299878" y="128.16" style="stroke: #000000; stroke-width: 0.8"/>
      </g>
     </g>
     <g id="text_4">
      <!-- 2950 -->
      <g transform="translate(172.029878 144.278125)scale(0.12 -0.12)">
       <use xlink:href="#DejaVuSans-32"/>
       <use xlink:href="#DejaVuSans-39" x="63.623047"/>
       <use xlink:href="#DejaVuSans-35" x="127.246094"/>
       <use xlink:href="#DejaVuSans-30" x="190.869141"/>
      </g>
     </g>
    </g>
   </g>
   <g id="matplotlib.axis_2">
    <g id="ytick_1">
     <g id="line2d_5">
      <defs>
       <path id="m56babb0791" d="M 0 0 
L -3.5 0 
" style="stroke: #000000; stroke-width: 0.8"/>
      </defs>
      <g>
       <use xlink:href="#m56babb0791" x="27" y="125.035703" style="stroke: #000000; stroke-width: 0.8"/>
      </g>
     </g>
     <g id="text_5">
      <!-- 0.0 -->
      <g transform="translate(0.91625 129.594766)scale(0.12 -0.12)">
       <defs>
        <path id="DejaVuSans-2e" d="M 684 794 
L 1344 794 
L 1344 0 
L 684 0 
L 684 794 
z
" transform="scale(0.015625)"/>
       </defs>
       <use xlink:href="#DejaVuSans-30"/>
       <use xlink:href="#DejaVuSans-2e" x="63.623047"/>
       <use xlink:href="#DejaVuSans-30" x="95.410156"/>
      </g>
     </g>
    </g>
    <g id="ytick_2">
     <g id="line2d_6">
      <g>
       <use xlink:href="#m56babb0791" x="27" y="101.713875" style="stroke: #000000; stroke-width: 0.8"/>
      </g>
     </g>
     <g id="text_6">
      <!-- 0.5 -->
      <g transform="translate(0.91625 106.272937)scale(0.12 -0.12)">
       <use xlink:href="#DejaVuSans-30"/>
       <use xlink:href="#DejaVuSans-2e" x="63.623047"/>
       <use xlink:href="#DejaVuSans-35" x="95.410156"/>
      </g>
     </g>
    </g>
    <g id="ytick_3">
     <g id="line2d_7">
      <g>
       <use xlink:href="#m56babb0791" x="27" y="78.392046" style="stroke: #000000; stroke-width: 0.8"/>
      </g>
     </g>
     <g id="text_7">
      <!-- 1.0 -->
      <g transform="translate(0.91625 82.951108)scale(0.12 -0.12)">
       <defs>
        <path id="DejaVuSans-31" d="M 794 531 
L 1825 531 
L 1825 4091 
L 703 3866 
L 703 4441 
L 1819 4666 
L 2450 4666 
L 2450 531 
L 3481 531 
L 3481 0 
L 794 0 
L 794 531 
z
" transform="scale(0.015625)"/>
       </defs>
       <use xlink:href="#DejaVuSans-31"/>
       <use xlink:href="#DejaVuSans-2e" x="63.623047"/>
       <use xlink:href="#DejaVuSans-30" x="95.410156"/>
      </g>
     </g>
    </g>
    <g id="ytick_4">
     <g id="line2d_8">
      <g>
       <use xlink:href="#m56babb0791" x="27" y="55.070217" style="stroke: #000000; stroke-width: 0.8"/>
      </g>
     </g>
     <g id="text_8">
      <!-- 1.5 -->
      <g transform="translate(0.91625 59.629279)scale(0.12 -0.12)">
       <use xlink:href="#DejaVuSans-31"/>
       <use xlink:href="#DejaVuSans-2e" x="63.623047"/>
       <use xlink:href="#DejaVuSans-35" x="95.410156"/>
      </g>
     </g>
    </g>
    <g id="ytick_5">
     <g id="line2d_9">
      <g>
       <use xlink:href="#m56babb0791" x="27" y="31.748388" style="stroke: #000000; stroke-width: 0.8"/>
      </g>
     </g>
     <g id="text_9">
      <!-- 2.0 -->
      <g transform="translate(0.91625 36.307451)scale(0.12 -0.12)">
       <use xlink:href="#DejaVuSans-32"/>
       <use xlink:href="#DejaVuSans-2e" x="63.623047"/>
       <use xlink:href="#DejaVuSans-30" x="95.410156"/>
      </g>
     </g>
    </g>
   </g>
   <g id="line2d_10">
    <path d="M 34.609091 122.799368 
L 35.11806 122.841697 
L 35.627029 122.604035 
L 36.135999 122.61073 
L 37.662907 122.19676 
L 38.171876 122.375382 
L 39.698784 121.546107 
L 40.207753 121.277721 
L 40.716722 120.770864 
L 41.225692 120.450303 
L 41.734661 120.285277 
L 42.24363 119.822958 
L 43.770538 117.942437 
L 44.788477 116.981207 
L 46.315385 113.78209 
L 47.333323 111.247001 
L 48.860231 106.623172 
L 49.87817 104.07924 
L 50.387139 103.061232 
L 50.896108 102.45905 
L 52.423016 102.671892 
L 54.458893 105.332272 
L 55.476832 106.998611 
L 55.985801 108.14537 
L 57.512709 110.093164 
L 58.530648 111.142693 
L 59.039617 111.776853 
L 59.548586 112.01109 
L 60.057555 112.027444 
L 60.566525 112.605309 
L 61.075494 112.701888 
L 61.584463 112.522598 
L 62.602402 112.901877 
L 64.638279 111.777627 
L 65.147248 111.942524 
L 66.165187 111.539209 
L 67.692095 110.361231 
L 69.219003 108.060956 
L 71.25488 102.4714 
L 72.781788 96.689316 
L 73.799726 90.975004 
L 74.817665 83.736439 
L 75.835604 73.666868 
L 76.853542 59.813258 
L 78.38045 36.069606 
L 78.889419 30.26137 
L 79.398389 26.381999 
L 79.907358 24.257531 
L 80.416327 22.980023 
L 80.925296 22.32 
L 81.434266 23.124688 
L 81.943235 25.382813 
L 82.452204 28.78529 
L 82.961174 33.10624 
L 83.470143 39.438038 
L 84.488081 57.706407 
L 85.50602 75.751501 
L 86.523959 88.465778 
L 87.541897 97.104486 
L 88.050867 100.306325 
L 89.068805 104.667384 
L 90.595713 109.192571 
L 91.613652 111.089515 
L 92.122621 111.745649 
L 92.63159 112.129884 
L 93.140559 112.852255 
L 94.158498 111.362521 
L 94.667467 110.533694 
L 95.176437 109.403912 
L 96.194375 106.312193 
L 96.703344 104.580417 
L 97.721283 100.046232 
L 98.739222 93.78756 
L 100.26613 81.718148 
L 101.284068 71.638906 
L 102.302007 61.066907 
L 102.810976 57.666346 
L 103.319945 56.824326 
L 103.828915 59.509065 
L 104.337884 63.909748 
L 104.846853 69.40766 
L 105.864792 85.473216 
L 106.88273 102.633987 
L 107.3917 108.214821 
L 107.900669 110.039878 
L 108.409638 107.673638 
L 108.918607 101.323725 
L 110.445515 76.090116 
L 110.954485 69.792845 
L 111.463454 65.243299 
L 111.972423 62.289117 
L 112.481393 61.15504 
L 112.990362 62.707267 
L 113.499331 66.810396 
L 115.026239 82.427692 
L 116.044178 91.245797 
L 117.571085 101.122052 
L 118.589024 105.508328 
L 120.115932 109.451547 
L 120.624901 110.234601 
L 121.13387 111.468264 
L 121.64284 111.737595 
L 122.660778 111.477829 
L 123.169748 110.954224 
L 123.678717 110.157807 
L 124.696656 107.552759 
L 126.223563 102.902306 
L 126.732533 100.684838 
L 127.750471 94.237098 
L 128.259441 90.084597 
L 128.76841 84.681214 
L 129.786348 69.042909 
L 131.313256 39.929475 
L 131.822226 33.543585 
L 132.331195 29.307 
L 132.840164 26.192068 
L 133.349133 24.080813 
L 133.858103 22.854575 
L 134.367072 22.793496 
L 134.876041 24.08795 
L 135.385011 25.890568 
L 135.89398 29.535812 
L 136.402949 35.251334 
L 138.947796 71.701809 
L 139.965734 81.913611 
L 140.474704 86.277658 
L 141.492642 92.718414 
L 142.001611 94.712974 
L 143.01955 99.324979 
L 143.528519 100.622793 
L 144.546458 103.704156 
L 145.564396 105.617536 
L 146.073366 106.432196 
L 147.091304 107.214124 
L 148.618212 108.250141 
L 149.127182 108.944954 
L 149.636151 108.908829 
L 150.654089 108.426698 
L 151.163059 108.493213 
L 152.180997 109.147979 
L 154.725844 108.627155 
L 155.234813 108.30099 
L 156.252752 107.185522 
L 156.761721 106.513236 
L 158.288629 103.528738 
L 158.797598 102.888558 
L 159.306567 102.651456 
L 161.342445 103.376878 
L 161.851414 103.991803 
L 163.378322 106.542118 
L 164.39626 109.525726 
L 166.432137 114.824786 
L 166.941107 115.92041 
L 167.450076 116.407063 
L 167.959045 117.092531 
L 168.468015 118.10826 
L 168.976984 118.77389 
L 170.503892 120.235077 
L 171.012861 120.366873 
L 172.539769 121.253839 
L 173.557708 121.541152 
L 174.066677 121.600618 
L 174.575646 121.935423 
L 175.593585 121.865217 
L 176.102554 122.257387 
L 176.611523 122.422562 
L 177.120493 122.119465 
L 178.138431 122.230208 
L 179.15637 121.98848 
L 179.665339 121.91281 
L 180.174308 122.255265 
L 181.701216 122.679097 
L 182.210185 123.111616 
L 183.228124 122.840832 
L 183.737093 122.856213 
L 184.246063 122.738091 
L 184.755032 123.021084 
L 185.264001 123.116049 
L 186.790909 123.12 
L 186.790909 123.12 
" clip-path="url(#pd0b58de1f9)" style="fill: none; stroke: #1f77b4; stroke-width: 1.5; stroke-linecap: square"/>
   </g>
   <g id="patch_3">
    <path d="M 27 128.16 
L 27 17.28 
" style="fill: none; stroke: #000000; stroke-width: 0.8; stroke-linejoin: miter; stroke-linecap: square"/>
   </g>
   <g id="patch_4">
    <path d="M 194.4 128.16 
L 194.4 17.28 
" style="fill: none; stroke: #000000; stroke-width: 0.8; stroke-linejoin: miter; stroke-linecap: square"/>
   </g>
   <g id="patch_5">
    <path d="M 27 128.16 
L 194.4 128.16 
" style="fill: none; stroke: #000000; stroke-width: 0.8; stroke-linejoin: miter; stroke-linecap: square"/>
   </g>
   <g id="patch_6">
    <path d="M 27 17.28 
L 194.4 17.28 
" style="fill: none; stroke: #000000; stroke-width: 0.8; stroke-linejoin: miter; stroke-linecap: square"/>
   </g>
  </g>
 </g>
 <defs>
  <clipPath id="pd0b58de1f9">
   <rect x="27" y="17.28" width="167.4" height="110.88"/>
  </clipPath>
 </defs>
</svg>
