<?xml version="1.0" encoding="utf-8" standalone="no"?>
<!DOCTYPE svg PUBLIC "-//W3C//DTD SVG 1.1//EN"
  "http://www.w3.org/Graphics/SVG/1.1/DTD/svg11.dtd">
<svg xmlns:xlink="http://www.w3.org/1999/xlink" width="216pt" height="144pt" viewBox="0 0 216 144" xmlns="http://www.w3.org/2000/svg" version="1.1">
 <metadata>
  <rdf:RDF xmlns:dc="http://purl.org/dc/elements/1.1/" xmlns:cc="http://creativecommons.org/ns#" xmlns:rdf="http://www.w3.org/1999/02/22-rdf-syntax-ns#">
   <cc:Work>
    <dc:type rdf:resource="http://purl.org/dc/dcmitype/StillImage"/>
    <dc:date>2022-04-19T18:56:33.173937</dc:date>
    <dc:format>image/svg+xml</dc:format>
    <dc:creator>
     <cc:Agent>
      <dc:title>Matplotlib v3.5.1, https://matplotlib.org/</dc:title>
     </cc:Agent>
    </dc:creator>
   </cc:Work>
  </rdf:RDF>
 </metadata>
 <defs>
  <style type="text/css">*{stroke-linejoin: round; stroke-linecap: butt}</style>
 </defs>
 <g id="figure_1">
  <g id="patch_1">
   <path d="M 0 144 
L 216 144 
L 216 0 
L 0 0 
z
" style="fill: #ffffff"/>
  </g>
  <g id="axes_1">
   <g id="patch_2">
    <path d="M 27 128.16 
L 194.4 128.16 
L 194.4 17.28 
L 27 17.28 
z
" style="fill: #ffffff"/>
   </g>
   <g id="matplotlib.axis_1">
    <g id="xtick_1">
     <g id="line2d_1">
      <defs>
       <path id="ma93fe43f09" d="M 0 0 
L 0 3.5 
" style="stroke: #000000; stroke-width: 0.8"/>
      </defs>
      <g>
       <use xlink:href="#ma93fe43f09" x="52.512834" y="128.16" style="stroke: #000000; stroke-width: 0.8"/>
      </g>
     </g>
     <g id="text_1">
      <!-- 2700 -->
      <g transform="translate(38.515334 143.518281)scale(0.11 -0.11)">
       <defs>
        <path id="DejaVuSans-32" d="M 1228 531 
L 3431 531 
L 3431 0 
L 469 0 
L 469 531 
Q 828 903 1448 1529 
Q 2069 2156 2228 2338 
Q 2531 2678 2651 2914 
Q 2772 3150 2772 3378 
Q 2772 3750 2511 3984 
Q 2250 4219 1831 4219 
Q 1534 4219 1204 4116 
Q 875 4013 500 3803 
L 500 4441 
Q 881 4594 1212 4672 
Q 1544 4750 1819 4750 
Q 2544 4750 2975 4387 
Q 3406 4025 3406 3419 
Q 3406 3131 3298 2873 
Q 3191 2616 2906 2266 
Q 2828 2175 2409 1742 
Q 1991 1309 1228 531 
z
" transform="scale(0.015625)"/>
        <path id="DejaVuSans-37" d="M 525 4666 
L 3525 4666 
L 3525 4397 
L 1831 0 
L 1172 0 
L 2766 4134 
L 525 4134 
L 525 4666 
z
" transform="scale(0.015625)"/>
        <path id="DejaVuSans-30" d="M 2034 4250 
Q 1547 4250 1301 3770 
Q 1056 3291 1056 2328 
Q 1056 1369 1301 889 
Q 1547 409 2034 409 
Q 2525 409 2770 889 
Q 3016 1369 3016 2328 
Q 3016 3291 2770 3770 
Q 2525 4250 2034 4250 
z
M 2034 4750 
Q 2819 4750 3233 4129 
Q 3647 3509 3647 2328 
Q 3647 1150 3233 529 
Q 2819 -91 2034 -91 
Q 1250 -91 836 529 
Q 422 1150 422 2328 
Q 422 3509 836 4129 
Q 1250 4750 2034 4750 
z
" transform="scale(0.015625)"/>
       </defs>
       <use xlink:href="#DejaVuSans-32"/>
       <use xlink:href="#DejaVuSans-37" x="63.623047"/>
       <use xlink:href="#DejaVuSans-30" x="127.246094"/>
       <use xlink:href="#DejaVuSans-30" x="190.869141"/>
      </g>
     </g>
    </g>
    <g id="xtick_2">
     <g id="line2d_2">
      <g>
       <use xlink:href="#ma93fe43f09" x="97.272193" y="128.16" style="stroke: #000000; stroke-width: 0.8"/>
      </g>
     </g>
     <g id="text_2">
      <!-- 2750 -->
      <g transform="translate(83.274693 143.518281)scale(0.11 -0.11)">
       <defs>
        <path id="DejaVuSans-35" d="M 691 4666 
L 3169 4666 
L 3169 4134 
L 1269 4134 
L 1269 2991 
Q 1406 3038 1543 3061 
Q 1681 3084 1819 3084 
Q 2600 3084 3056 2656 
Q 3513 2228 3513 1497 
Q 3513 744 3044 326 
Q 2575 -91 1722 -91 
Q 1428 -91 1123 -41 
Q 819 9 494 109 
L 494 744 
Q 775 591 1075 516 
Q 1375 441 1709 441 
Q 2250 441 2565 725 
Q 2881 1009 2881 1497 
Q 2881 1984 2565 2268 
Q 2250 2553 1709 2553 
Q 1456 2553 1204 2497 
Q 953 2441 691 2322 
L 691 4666 
z
" transform="scale(0.015625)"/>
       </defs>
       <use xlink:href="#DejaVuSans-32"/>
       <use xlink:href="#DejaVuSans-37" x="63.623047"/>
       <use xlink:href="#DejaVuSans-35" x="127.246094"/>
       <use xlink:href="#DejaVuSans-30" x="190.869141"/>
      </g>
     </g>
    </g>
    <g id="xtick_3">
     <g id="line2d_3">
      <g>
       <use xlink:href="#ma93fe43f09" x="142.031551" y="128.16" style="stroke: #000000; stroke-width: 0.8"/>
      </g>
     </g>
     <g id="text_3">
      <!-- 2800 -->
      <g transform="translate(128.034051 143.518281)scale(0.11 -0.11)">
       <defs>
        <path id="DejaVuSans-38" d="M 2034 2216 
Q 1584 2216 1326 1975 
Q 1069 1734 1069 1313 
Q 1069 891 1326 650 
Q 1584 409 2034 409 
Q 2484 409 2743 651 
Q 3003 894 3003 1313 
Q 3003 1734 2745 1975 
Q 2488 2216 2034 2216 
z
M 1403 2484 
Q 997 2584 770 2862 
Q 544 3141 544 3541 
Q 544 4100 942 4425 
Q 1341 4750 2034 4750 
Q 2731 4750 3128 4425 
Q 3525 4100 3525 3541 
Q 3525 3141 3298 2862 
Q 3072 2584 2669 2484 
Q 3125 2378 3379 2068 
Q 3634 1759 3634 1313 
Q 3634 634 3220 271 
Q 2806 -91 2034 -91 
Q 1263 -91 848 271 
Q 434 634 434 1313 
Q 434 1759 690 2068 
Q 947 2378 1403 2484 
z
M 1172 3481 
Q 1172 3119 1398 2916 
Q 1625 2713 2034 2713 
Q 2441 2713 2670 2916 
Q 2900 3119 2900 3481 
Q 2900 3844 2670 4047 
Q 2441 4250 2034 4250 
Q 1625 4250 1398 4047 
Q 1172 3844 1172 3481 
z
" transform="scale(0.015625)"/>
       </defs>
       <use xlink:href="#DejaVuSans-32"/>
       <use xlink:href="#DejaVuSans-38" x="63.623047"/>
       <use xlink:href="#DejaVuSans-30" x="127.246094"/>
       <use xlink:href="#DejaVuSans-30" x="190.869141"/>
      </g>
     </g>
    </g>
    <g id="xtick_4">
     <g id="line2d_4">
      <g>
       <use xlink:href="#ma93fe43f09" x="186.790909" y="128.16" style="stroke: #000000; stroke-width: 0.8"/>
      </g>
     </g>
     <g id="text_4">
      <!-- 2850 -->
      <g transform="translate(172.793409 143.518281)scale(0.11 -0.11)">
       <use xlink:href="#DejaVuSans-32"/>
       <use xlink:href="#DejaVuSans-38" x="63.623047"/>
       <use xlink:href="#DejaVuSans-35" x="127.246094"/>
       <use xlink:href="#DejaVuSans-30" x="190.869141"/>
      </g>
     </g>
    </g>
   </g>
   <g id="matplotlib.axis_2">
    <g id="ytick_1">
     <g id="line2d_5">
      <defs>
       <path id="m7ef3abc8e9" d="M 0 0 
L -3.5 0 
" style="stroke: #000000; stroke-width: 0.8"/>
      </defs>
      <g>
       <use xlink:href="#m7ef3abc8e9" x="27" y="123.03182" style="stroke: #000000; stroke-width: 0.8"/>
      </g>
     </g>
     <g id="text_5">
      <!-- 0.0 -->
      <g transform="translate(0.91625 127.590882)scale(0.12 -0.12)">
       <defs>
        <path id="DejaVuSans-2e" d="M 684 794 
L 1344 794 
L 1344 0 
L 684 0 
L 684 794 
z
" transform="scale(0.015625)"/>
       </defs>
       <use xlink:href="#DejaVuSans-30"/>
       <use xlink:href="#DejaVuSans-2e" x="63.623047"/>
       <use xlink:href="#DejaVuSans-30" x="95.410156"/>
      </g>
     </g>
    </g>
    <g id="ytick_2">
     <g id="line2d_6">
      <g>
       <use xlink:href="#m7ef3abc8e9" x="27" y="79.29652" style="stroke: #000000; stroke-width: 0.8"/>
      </g>
     </g>
     <g id="text_6">
      <!-- 0.5 -->
      <g transform="translate(0.91625 83.855583)scale(0.12 -0.12)">
       <use xlink:href="#DejaVuSans-30"/>
       <use xlink:href="#DejaVuSans-2e" x="63.623047"/>
       <use xlink:href="#DejaVuSans-35" x="95.410156"/>
      </g>
     </g>
    </g>
    <g id="ytick_3">
     <g id="line2d_7">
      <g>
       <use xlink:href="#m7ef3abc8e9" x="27" y="35.561221" style="stroke: #000000; stroke-width: 0.8"/>
      </g>
     </g>
     <g id="text_7">
      <!-- 1.0 -->
      <g transform="translate(0.91625 40.120284)scale(0.12 -0.12)">
       <defs>
        <path id="DejaVuSans-31" d="M 794 531 
L 1825 531 
L 1825 4091 
L 703 3866 
L 703 4441 
L 1819 4666 
L 2450 4666 
L 2450 531 
L 3481 531 
L 3481 0 
L 794 0 
L 794 531 
z
" transform="scale(0.015625)"/>
       </defs>
       <use xlink:href="#DejaVuSans-31"/>
       <use xlink:href="#DejaVuSans-2e" x="63.623047"/>
       <use xlink:href="#DejaVuSans-30" x="95.410156"/>
      </g>
     </g>
    </g>
   </g>
   <g id="line2d_8">
    <path d="M 34.609091 122.750393 
L 34.913455 122.458461 
L 35.217818 122.759508 
L 35.522182 122.701359 
L 35.826545 122.439254 
L 36.130909 122.586988 
L 36.435273 122.965445 
L 37.044 122.351429 
L 37.348364 122.680328 
L 37.957091 122.845923 
L 38.565818 122.511765 
L 38.870182 122.46437 
L 39.174545 122.987173 
L 39.478909 122.98178 
L 39.783273 122.818416 
L 40.392 122.909429 
L 40.696364 122.5658 
L 41.305091 123.044269 
L 41.609455 122.958446 
L 41.913818 123.000212 
L 42.218182 122.589923 
L 42.522545 122.858267 
L 43.131273 122.497226 
L 43.435636 122.673332 
L 44.348727 122.65854 
L 44.653091 122.593278 
L 44.957455 122.233171 
L 45.261818 122.785838 
L 46.479273 122.741675 
L 46.783636 122.538649 
L 47.088 122.63027 
L 47.392364 122.924079 
L 47.696727 122.229571 
L 48.001091 121.98127 
L 48.305455 122.35308 
L 48.609818 122.467764 
L 49.218545 122.391448 
L 49.827273 122.319441 
L 50.131636 122.123821 
L 50.436 122.072519 
L 51.349091 121.471608 
L 51.653455 121.405075 
L 52.262182 122.039791 
L 52.566545 122.066813 
L 52.870909 121.94186 
L 53.175273 122.131809 
L 53.479636 122.001543 
L 53.784 121.60886 
L 54.088364 122.042859 
L 54.392727 121.772153 
L 54.697091 121.918842 
L 55.001455 121.796615 
L 55.305818 121.985024 
L 55.914545 121.94081 
L 56.218909 122.236419 
L 56.523273 122.809639 
L 56.827636 122.250249 
L 57.132 122.265056 
L 57.740727 122.612416 
L 58.349455 122.101274 
L 58.958182 122.238172 
L 59.262545 121.972989 
L 59.566909 122.255222 
L 59.871273 122.184789 
L 60.175636 122.5123 
L 60.48 122.333117 
L 61.088727 122.575518 
L 61.393091 122.568208 
L 61.697455 122.777051 
L 62.001818 122.357712 
L 62.914909 122.488817 
L 63.219273 122.104095 
L 63.523636 122.196337 
L 63.828 122.57331 
L 64.436727 121.746607 
L 64.741091 121.745736 
L 65.045455 122.042864 
L 65.349818 122.074066 
L 65.654182 122.387157 
L 65.958545 122.123653 
L 66.262909 121.467258 
L 66.567273 121.541228 
L 67.176 121.986203 
L 67.480364 121.903166 
L 68.089091 122.412379 
L 68.393455 122.415414 
L 68.697818 122.14732 
L 69.002182 122.091928 
L 69.306545 122.517005 
L 69.915273 121.807728 
L 70.219636 122.258104 
L 70.524 122.248724 
L 71.132727 122.362937 
L 71.437091 122.189852 
L 71.741455 122.443355 
L 72.045818 122.3344 
L 72.350182 122.365433 
L 72.654545 122.273935 
L 72.958909 122.307899 
L 73.567636 122.076001 
L 73.872 122.208517 
L 74.785091 122.214497 
L 75.089455 122.533867 
L 76.002545 122.006946 
L 76.306909 122.186091 
L 76.611273 121.950168 
L 76.915636 122.034908 
L 77.828727 121.104482 
L 78.133091 121.134422 
L 78.437455 120.978396 
L 79.046182 120.434107 
L 79.654909 120.087699 
L 80.568 118.15084 
L 80.872364 117.868055 
L 81.481091 116.45452 
L 81.785455 116.16193 
L 82.698545 113.172143 
L 83.916 106.747264 
L 84.524727 102.333303 
L 85.437818 96.638243 
L 85.742182 96.36655 
L 86.046545 95.709187 
L 86.655273 93.148272 
L 86.959636 91.620091 
L 87.264 89.305787 
L 89.090182 67.505286 
L 89.394545 65.816972 
L 89.698909 64.89193 
L 90.003273 64.7518 
L 90.307636 64.886884 
L 90.612 65.507141 
L 91.525091 65.967905 
L 91.829455 66.289183 
L 92.133818 66.861393 
L 92.742545 68.758236 
L 93.351273 71.006444 
L 93.655636 72.494595 
L 94.264364 77.818484 
L 94.873091 82.704723 
L 95.481818 86.653739 
L 96.090545 91.065792 
L 96.699273 95.72604 
L 97.612364 104.073679 
L 98.525455 109.732261 
L 99.438545 114.233559 
L 100.047273 115.037225 
L 100.351636 116.183379 
L 101.569091 118.733644 
L 101.873455 118.974149 
L 102.177818 119.63124 
L 102.482182 119.627491 
L 103.090909 120.584107 
L 103.699636 120.878384 
L 104.004 121.446314 
L 104.612727 121.632084 
L 105.221455 122.262489 
L 105.525818 122.059932 
L 105.830182 122.653931 
L 106.134545 122.364672 
L 106.438909 122.485347 
L 106.743273 122.461201 
L 107.047636 122.237692 
L 107.352 122.292549 
L 107.656364 121.979537 
L 107.960727 122.235917 
L 108.265091 122.813443 
L 108.569455 122.569887 
L 108.873818 122.492339 
L 109.178182 122.60093 
L 109.482545 122.441593 
L 110.091273 122.656433 
L 110.7 122.80368 
L 111.004364 122.266319 
L 111.308727 122.647269 
L 111.613091 122.617766 
L 112.221818 122.217747 
L 112.830545 122.346766 
L 113.134909 122.912825 
L 113.439273 122.690235 
L 113.743636 122.252156 
L 114.048 122.489093 
L 114.656727 122.402935 
L 114.961091 122.403038 
L 115.265455 122.172275 
L 115.569818 122.265192 
L 115.874182 122.493135 
L 116.482909 122.469995 
L 116.787273 122.133975 
L 117.091636 122.29874 
L 117.396 122.32452 
L 117.700364 121.78854 
L 118.004727 121.555637 
L 118.309091 122.134182 
L 118.613455 121.918048 
L 119.222182 121.141551 
L 119.526545 120.856676 
L 119.830909 121.097569 
L 120.135273 120.854838 
L 121.048364 118.719128 
L 121.352727 118.298054 
L 121.657091 118.118984 
L 122.265818 116.650454 
L 123.483273 112.97216 
L 124.092 109.6634 
L 124.700727 105.578783 
L 125.918182 98.083335 
L 127.135636 87.299235 
L 127.744364 79.478653 
L 128.353091 67.100475 
L 129.570545 38.779153 
L 130.179273 30.259713 
L 130.788 25.292991 
L 131.092364 23.40102 
L 131.396727 22.615334 
L 131.701091 22.32 
L 132.309818 24.288996 
L 132.614182 25.11329 
L 133.527273 30.888219 
L 134.136 40.733217 
L 135.962182 76.331191 
L 136.875273 89.842894 
L 138.092727 102.389219 
L 139.310182 110.913721 
L 139.614545 112.302059 
L 139.918909 112.661554 
L 141.136364 116.491111 
L 141.440727 116.446554 
L 142.353818 118.910873 
L 142.658182 119.267638 
L 142.962545 119.397104 
L 143.266909 120.36487 
L 143.571273 120.814525 
L 143.875636 121.036139 
L 144.18 120.855445 
L 144.484364 121.074278 
L 144.788727 121.507745 
L 145.093091 121.729162 
L 145.397455 121.633984 
L 145.701818 121.974613 
L 146.614909 122.563806 
L 147.223636 122.267217 
L 147.528 122.527807 
L 148.136727 122.527717 
L 148.441091 122.883477 
L 149.354182 122.693872 
L 149.962909 122.914182 
L 150.267273 122.805958 
L 150.571636 123.12 
L 151.484727 122.520339 
L 152.093455 122.851499 
L 152.397818 122.806408 
L 152.702182 122.904448 
L 153.006545 122.672287 
L 153.310909 122.915653 
L 153.919636 122.962277 
L 154.224 122.834186 
L 154.528364 122.831068 
L 154.832727 122.585097 
L 155.137091 122.594482 
L 155.441455 122.857991 
L 155.745818 122.773408 
L 156.050182 122.44421 
L 156.354545 122.980334 
L 156.963273 122.288788 
L 157.267636 122.867518 
L 157.876364 122.796661 
L 158.180727 122.729432 
L 158.485091 122.860058 
L 159.093818 122.485498 
L 159.702545 122.728653 
L 160.006909 122.774549 
L 160.311273 122.656792 
L 160.615636 122.290143 
L 160.92 122.266513 
L 161.224364 122.370761 
L 161.528727 122.053093 
L 161.833091 122.054754 
L 162.137455 121.86751 
L 162.441818 121.909838 
L 163.050545 121.362446 
L 163.354909 121.669277 
L 163.659273 121.704024 
L 163.963636 121.003818 
L 164.268 120.642474 
L 164.572364 121.345457 
L 164.876727 121.509187 
L 165.181091 121.236636 
L 165.485455 121.166368 
L 165.789818 121.368748 
L 166.094182 121.186973 
L 166.398545 121.24991 
L 166.702909 121.054261 
L 167.007273 121.096069 
L 167.616 120.902083 
L 167.920364 121.118225 
L 168.224727 120.705998 
L 169.137818 122.006292 
L 170.050909 121.778236 
L 170.355273 121.951175 
L 170.659636 121.616293 
L 171.877091 121.91108 
L 172.181455 121.725851 
L 172.485818 121.798855 
L 172.790182 122.33787 
L 173.094545 121.950318 
L 173.398909 122.304287 
L 174.312 122.013937 
L 174.616364 122.156037 
L 174.920727 121.648738 
L 175.225091 121.570837 
L 175.529455 121.237574 
L 176.138182 121.696311 
L 176.442545 121.346297 
L 177.051273 121.363947 
L 177.355636 121.359946 
L 177.66 121.749792 
L 177.964364 121.436117 
L 178.573091 121.670702 
L 179.181818 121.410459 
L 179.486182 121.604036 
L 180.094909 121.742527 
L 180.399273 121.836368 
L 180.703636 121.69467 
L 181.008 121.701802 
L 181.312364 122.167336 
L 181.616727 121.546944 
L 181.921091 121.526803 
L 182.225455 121.792152 
L 182.834182 121.872752 
L 183.138545 121.567054 
L 183.747273 122.761107 
L 184.356 122.221353 
L 184.660364 122.363498 
L 185.269091 122.08987 
L 185.573455 122.319451 
L 185.877818 122.755645 
L 186.182182 122.821288 
L 186.486545 122.7222 
L 186.790909 122.38349 
L 186.790909 122.38349 
" clip-path="url(#p99bbcd132d)" style="fill: none; stroke: #1f77b4; stroke-width: 1.5; stroke-linecap: square"/>
   </g>
   <g id="patch_3">
    <path d="M 27 128.16 
L 27 17.28 
" style="fill: none; stroke: #000000; stroke-width: 0.8; stroke-linejoin: miter; stroke-linecap: square"/>
   </g>
   <g id="patch_4">
    <path d="M 194.4 128.16 
L 194.4 17.28 
" style="fill: none; stroke: #000000; stroke-width: 0.8; stroke-linejoin: miter; stroke-linecap: square"/>
   </g>
   <g id="patch_5">
    <path d="M 27 128.16 
L 194.4 128.16 
" style="fill: none; stroke: #000000; stroke-width: 0.8; stroke-linejoin: miter; stroke-linecap: square"/>
   </g>
   <g id="patch_6">
    <path d="M 27 17.28 
L 194.4 17.28 
" style="fill: none; stroke: #000000; stroke-width: 0.8; stroke-linejoin: miter; stroke-linecap: square"/>
   </g>
  </g>
 </g>
 <defs>
  <clipPath id="p99bbcd132d">
   <rect x="27" y="17.28" width="167.4" height="110.88"/>
  </clipPath>
 </defs>
</svg>
