<?xml version="1.0" encoding="utf-8" standalone="no"?>
<!DOCTYPE svg PUBLIC "-//W3C//DTD SVG 1.1//EN"
  "http://www.w3.org/Graphics/SVG/1.1/DTD/svg11.dtd">
<svg xmlns:xlink="http://www.w3.org/1999/xlink" width="216pt" height="144pt" viewBox="0 0 216 144" xmlns="http://www.w3.org/2000/svg" version="1.1">
 <metadata>
  <rdf:RDF xmlns:dc="http://purl.org/dc/elements/1.1/" xmlns:cc="http://creativecommons.org/ns#" xmlns:rdf="http://www.w3.org/1999/02/22-rdf-syntax-ns#">
   <cc:Work>
    <dc:type rdf:resource="http://purl.org/dc/dcmitype/StillImage"/>
    <dc:date>2022-04-19T11:50:58.964948</dc:date>
    <dc:format>image/svg+xml</dc:format>
    <dc:creator>
     <cc:Agent>
      <dc:title>Matplotlib v3.5.1, https://matplotlib.org/</dc:title>
     </cc:Agent>
    </dc:creator>
   </cc:Work>
  </rdf:RDF>
 </metadata>
 <defs>
  <style type="text/css">*{stroke-linejoin: round; stroke-linecap: butt}</style>
 </defs>
 <g id="figure_1">
  <g id="patch_1">
   <path d="M 0 144 
L 216 144 
L 216 0 
L 0 0 
z
" style="fill: #ffffff"/>
  </g>
  <g id="axes_1">
   <g id="patch_2">
    <path d="M 27 128.16 
L 194.4 128.16 
L 194.4 17.28 
L 27 17.28 
z
" style="fill: #ffffff"/>
   </g>
   <g id="matplotlib.axis_1">
    <g id="xtick_1">
     <g id="line2d_1">
      <defs>
       <path id="m75dcd3e177" d="M 0 0 
L 0 3.5 
" style="stroke: #000000; stroke-width: 0.8"/>
      </defs>
      <g>
       <use xlink:href="#m75dcd3e177" x="55.272" y="128.16" style="stroke: #000000; stroke-width: 0.8"/>
      </g>
     </g>
     <g id="text_1">
      <!-- −100 -->
      <g transform="translate(40.165047 143.518281)scale(0.11 -0.11)">
       <defs>
        <path id="DejaVuSans-2212" d="M 678 2272 
L 4684 2272 
L 4684 1741 
L 678 1741 
L 678 2272 
z
" transform="scale(0.015625)"/>
        <path id="DejaVuSans-31" d="M 794 531 
L 1825 531 
L 1825 4091 
L 703 3866 
L 703 4441 
L 1819 4666 
L 2450 4666 
L 2450 531 
L 3481 531 
L 3481 0 
L 794 0 
L 794 531 
z
" transform="scale(0.015625)"/>
        <path id="DejaVuSans-30" d="M 2034 4250 
Q 1547 4250 1301 3770 
Q 1056 3291 1056 2328 
Q 1056 1369 1301 889 
Q 1547 409 2034 409 
Q 2525 409 2770 889 
Q 3016 1369 3016 2328 
Q 3016 3291 2770 3770 
Q 2525 4250 2034 4250 
z
M 2034 4750 
Q 2819 4750 3233 4129 
Q 3647 3509 3647 2328 
Q 3647 1150 3233 529 
Q 2819 -91 2034 -91 
Q 1250 -91 836 529 
Q 422 1150 422 2328 
Q 422 3509 836 4129 
Q 1250 4750 2034 4750 
z
" transform="scale(0.015625)"/>
       </defs>
       <use xlink:href="#DejaVuSans-2212"/>
       <use xlink:href="#DejaVuSans-31" x="83.789062"/>
       <use xlink:href="#DejaVuSans-30" x="147.412109"/>
       <use xlink:href="#DejaVuSans-30" x="211.035156"/>
      </g>
     </g>
    </g>
    <g id="xtick_2">
     <g id="line2d_2">
      <g>
       <use xlink:href="#m75dcd3e177" x="108.112909" y="128.16" style="stroke: #000000; stroke-width: 0.8"/>
      </g>
     </g>
     <g id="text_2">
      <!-- 0 -->
      <g transform="translate(104.613534 143.518281)scale(0.11 -0.11)">
       <use xlink:href="#DejaVuSans-30"/>
      </g>
     </g>
    </g>
    <g id="xtick_3">
     <g id="line2d_3">
      <g>
       <use xlink:href="#m75dcd3e177" x="160.953818" y="128.16" style="stroke: #000000; stroke-width: 0.8"/>
      </g>
     </g>
     <g id="text_3">
      <!-- 100 -->
      <g transform="translate(150.455693 143.518281)scale(0.11 -0.11)">
       <use xlink:href="#DejaVuSans-31"/>
       <use xlink:href="#DejaVuSans-30" x="63.623047"/>
       <use xlink:href="#DejaVuSans-30" x="127.246094"/>
      </g>
     </g>
    </g>
   </g>
   <g id="matplotlib.axis_2">
    <g id="ytick_1">
     <g id="line2d_4">
      <defs>
       <path id="m402932a3b0" d="M 0 0 
L -3.5 0 
" style="stroke: #000000; stroke-width: 0.8"/>
      </defs>
      <g>
       <use xlink:href="#m402932a3b0" x="27" y="106.243191" style="stroke: #000000; stroke-width: 0.8"/>
      </g>
     </g>
     <g id="text_4">
      <!-- 0.96 -->
      <g transform="translate(-6.71875 110.802253)scale(0.12 -0.12)">
       <defs>
        <path id="DejaVuSans-2e" d="M 684 794 
L 1344 794 
L 1344 0 
L 684 0 
L 684 794 
z
" transform="scale(0.015625)"/>
        <path id="DejaVuSans-39" d="M 703 97 
L 703 672 
Q 941 559 1184 500 
Q 1428 441 1663 441 
Q 2288 441 2617 861 
Q 2947 1281 2994 2138 
Q 2813 1869 2534 1725 
Q 2256 1581 1919 1581 
Q 1219 1581 811 2004 
Q 403 2428 403 3163 
Q 403 3881 828 4315 
Q 1253 4750 1959 4750 
Q 2769 4750 3195 4129 
Q 3622 3509 3622 2328 
Q 3622 1225 3098 567 
Q 2575 -91 1691 -91 
Q 1453 -91 1209 -44 
Q 966 3 703 97 
z
M 1959 2075 
Q 2384 2075 2632 2365 
Q 2881 2656 2881 3163 
Q 2881 3666 2632 3958 
Q 2384 4250 1959 4250 
Q 1534 4250 1286 3958 
Q 1038 3666 1038 3163 
Q 1038 2656 1286 2365 
Q 1534 2075 1959 2075 
z
" transform="scale(0.015625)"/>
        <path id="DejaVuSans-36" d="M 2113 2584 
Q 1688 2584 1439 2293 
Q 1191 2003 1191 1497 
Q 1191 994 1439 701 
Q 1688 409 2113 409 
Q 2538 409 2786 701 
Q 3034 994 3034 1497 
Q 3034 2003 2786 2293 
Q 2538 2584 2113 2584 
z
M 3366 4563 
L 3366 3988 
Q 3128 4100 2886 4159 
Q 2644 4219 2406 4219 
Q 1781 4219 1451 3797 
Q 1122 3375 1075 2522 
Q 1259 2794 1537 2939 
Q 1816 3084 2150 3084 
Q 2853 3084 3261 2657 
Q 3669 2231 3669 1497 
Q 3669 778 3244 343 
Q 2819 -91 2113 -91 
Q 1303 -91 875 529 
Q 447 1150 447 2328 
Q 447 3434 972 4092 
Q 1497 4750 2381 4750 
Q 2619 4750 2861 4703 
Q 3103 4656 3366 4563 
z
" transform="scale(0.015625)"/>
       </defs>
       <use xlink:href="#DejaVuSans-30"/>
       <use xlink:href="#DejaVuSans-2e" x="63.623047"/>
       <use xlink:href="#DejaVuSans-39" x="95.410156"/>
       <use xlink:href="#DejaVuSans-36" x="159.033203"/>
      </g>
     </g>
    </g>
    <g id="ytick_2">
     <g id="line2d_5">
      <g>
       <use xlink:href="#m402932a3b0" x="27" y="64.281595" style="stroke: #000000; stroke-width: 0.8"/>
      </g>
     </g>
     <g id="text_5">
      <!-- 0.98 -->
      <g transform="translate(-6.71875 68.840658)scale(0.12 -0.12)">
       <defs>
        <path id="DejaVuSans-38" d="M 2034 2216 
Q 1584 2216 1326 1975 
Q 1069 1734 1069 1313 
Q 1069 891 1326 650 
Q 1584 409 2034 409 
Q 2484 409 2743 651 
Q 3003 894 3003 1313 
Q 3003 1734 2745 1975 
Q 2488 2216 2034 2216 
z
M 1403 2484 
Q 997 2584 770 2862 
Q 544 3141 544 3541 
Q 544 4100 942 4425 
Q 1341 4750 2034 4750 
Q 2731 4750 3128 4425 
Q 3525 4100 3525 3541 
Q 3525 3141 3298 2862 
Q 3072 2584 2669 2484 
Q 3125 2378 3379 2068 
Q 3634 1759 3634 1313 
Q 3634 634 3220 271 
Q 2806 -91 2034 -91 
Q 1263 -91 848 271 
Q 434 634 434 1313 
Q 434 1759 690 2068 
Q 947 2378 1403 2484 
z
M 1172 3481 
Q 1172 3119 1398 2916 
Q 1625 2713 2034 2713 
Q 2441 2713 2670 2916 
Q 2900 3119 2900 3481 
Q 2900 3844 2670 4047 
Q 2441 4250 2034 4250 
Q 1625 4250 1398 4047 
Q 1172 3844 1172 3481 
z
" transform="scale(0.015625)"/>
       </defs>
       <use xlink:href="#DejaVuSans-30"/>
       <use xlink:href="#DejaVuSans-2e" x="63.623047"/>
       <use xlink:href="#DejaVuSans-39" x="95.410156"/>
       <use xlink:href="#DejaVuSans-38" x="159.033203"/>
      </g>
     </g>
    </g>
    <g id="ytick_3">
     <g id="line2d_6">
      <g>
       <use xlink:href="#m402932a3b0" x="27" y="22.32" style="stroke: #000000; stroke-width: 0.8"/>
      </g>
     </g>
     <g id="text_6">
      <!-- 1.00 -->
      <g transform="translate(-6.71875 26.879063)scale(0.12 -0.12)">
       <use xlink:href="#DejaVuSans-31"/>
       <use xlink:href="#DejaVuSans-2e" x="63.623047"/>
       <use xlink:href="#DejaVuSans-30" x="95.410156"/>
       <use xlink:href="#DejaVuSans-30" x="159.033203"/>
      </g>
     </g>
    </g>
   </g>
   <g id="line2d_7">
    <path d="M 186.790909 121.29372 
L 186.486545 121.444785 
L 186.182182 121.377514 
L 185.573455 120.758369 
L 184.660364 119.638602 
L 184.051636 118.801583 
L 182.529818 116.750155 
L 182.225455 116.451935 
L 181.921091 115.849944 
L 181.312364 115.227435 
L 180.703636 114.410808 
L 179.181818 112.025422 
L 178.877455 111.677421 
L 178.573091 111.071268 
L 178.268727 110.760602 
L 177.964364 110.111774 
L 177.66 109.910465 
L 177.355636 109.22859 
L 177.051273 108.825973 
L 176.746909 108.217255 
L 176.442545 107.893304 
L 175.225091 105.831323 
L 174.616364 104.86918 
L 174.312 104.309276 
L 174.007636 104.034894 
L 173.703273 103.343559 
L 173.398909 102.99581 
L 172.790182 101.742552 
L 167.311636 92.147571 
L 166.094182 89.698194 
L 165.789818 89.251809 
L 165.485455 88.582379 
L 165.181091 88.221302 
L 164.876727 87.419264 
L 164.572364 87.022408 
L 163.354909 84.660693 
L 163.050545 84.242772 
L 162.746182 83.427448 
L 162.441818 82.97236 
L 161.833091 81.753705 
L 161.528727 81.410455 
L 161.224364 80.533284 
L 160.92 80.079836 
L 160.615636 79.193457 
L 160.311273 78.734753 
L 159.702545 77.420489 
L 159.398182 76.996808 
L 158.789455 75.759654 
L 156.963273 72.076401 
L 153.919636 65.715682 
L 153.615273 65.349055 
L 152.397818 62.803691 
L 152.093455 62.301892 
L 151.484727 60.998307 
L 150.876 59.70578 
L 150.571636 59.256158 
L 149.049818 56.042457 
L 148.745455 55.603598 
L 147.223636 52.506444 
L 144.788727 47.570397 
L 144.484364 46.796445 
L 144.18 46.432425 
L 143.266909 44.577891 
L 141.440727 41.047387 
L 141.136364 40.643299 
L 140.223273 38.745207 
L 137.788364 35.026302 
L 137.484 34.666528 
L 136.570909 33.081962 
L 136.266545 32.80716 
L 135.049091 30.870261 
L 134.440364 30.018696 
L 132.005455 26.770897 
L 131.701091 26.659269 
L 131.396727 26.075021 
L 131.092364 25.826161 
L 130.483636 25.13449 
L 130.179273 24.890506 
L 129.874909 24.390431 
L 129.570545 24.431887 
L 128.961818 23.759934 
L 128.657455 23.585156 
L 128.353091 23.209868 
L 128.048727 23.32486 
L 127.744364 22.861615 
L 127.44 23.096811 
L 126.222545 22.606911 
L 125.918182 22.662283 
L 125.613818 22.447226 
L 124.700727 22.32 
L 124.396364 22.487126 
L 124.092 22.420612 
L 123.787636 22.822766 
L 123.483273 22.857747 
L 123.178909 23.019996 
L 122.874545 23.396041 
L 122.570182 23.421814 
L 121.657091 24.891515 
L 121.048364 25.723615 
L 120.439636 26.855112 
L 118.917818 30.98622 
L 118.309091 33.230588 
L 116.178545 42.853275 
L 114.352364 54.492366 
L 113.439273 61.31221 
L 112.221818 71.971501 
L 109.786909 94.080602 
L 109.178182 97.510705 
L 108.873818 98.403979 
L 108.569455 98.773339 
L 108.265091 98.469779 
L 107.960727 97.670516 
L 107.656364 96.430964 
L 107.047636 92.635369 
L 106.134545 84.335522 
L 104.004 64.537263 
L 102.482182 53.724426 
L 101.264727 47.016925 
L 100.351636 42.549673 
L 99.438545 38.5069 
L 97.916727 33.496939 
L 97.003636 31.360751 
L 96.394909 29.872507 
L 96.090545 29.289016 
L 95.481818 27.625154 
L 95.177455 27.301539 
L 94.873091 26.72015 
L 94.568727 26.491807 
L 93.96 25.789877 
L 92.742545 24.564957 
L 92.133818 24.599475 
L 91.525091 24.458627 
L 91.220727 24.088595 
L 90.916364 24.0381 
L 90.612 23.854702 
L 88.785818 24.092631 
L 88.481455 24.222254 
L 88.177091 24.228056 
L 87.872727 24.381518 
L 86.655273 25.443642 
L 86.350909 25.619303 
L 85.437818 26.669066 
L 84.829091 27.226027 
L 83.611636 28.767246 
L 82.089818 30.815141 
L 79.654909 34.609811 
L 79.350545 35.199272 
L 79.046182 35.529698 
L 78.741818 36.194756 
L 78.133091 37.018068 
L 76.002545 40.536842 
L 75.393818 41.586731 
L 74.176364 43.910522 
L 73.872 44.251165 
L 73.567636 45.03361 
L 73.263273 45.349994 
L 72.654545 46.81877 
L 72.350182 47.295469 
L 71.437091 49.215297 
L 71.132727 49.746233 
L 70.524 51.271518 
L 70.219636 51.707938 
L 69.002182 54.354839 
L 68.089091 56.091312 
L 67.784727 56.785843 
L 67.480364 57.144271 
L 67.176 57.926043 
L 66.567273 58.956844 
L 66.262909 59.660414 
L 65.958545 60.04533 
L 63.523636 65.240665 
L 62.610545 67.298735 
L 62.306182 67.671458 
L 61.697455 69.088268 
L 61.393091 69.610795 
L 61.088727 70.39467 
L 60.784364 70.866323 
L 60.48 71.830442 
L 60.175636 72.361462 
L 59.566909 73.625147 
L 55.001455 83.122837 
L 54.088364 85.489723 
L 51.957818 89.898367 
L 51.653455 90.67564 
L 51.349091 91.04458 
L 50.131636 93.578718 
L 49.218545 95.235433 
L 48.001091 97.642136 
L 47.088 99.240073 
L 45.870545 101.873899 
L 45.566182 102.202055 
L 44.957455 103.662255 
L 42.218182 109.152952 
L 41.913818 109.448356 
L 40.696364 111.902989 
L 37.044 118.703536 
L 36.130909 120.248876 
L 35.522182 121.532952 
L 35.217818 121.938512 
L 34.913455 122.757199 
L 34.609091 123.12 
L 34.609091 123.12 
" clip-path="url(#p6099c0d348)" style="fill: none; stroke: #1f77b4; stroke-width: 1.5; stroke-linecap: square"/>
   </g>
   <g id="patch_3">
    <path d="M 27 128.16 
L 27 17.28 
" style="fill: none; stroke: #000000; stroke-width: 0.8; stroke-linejoin: miter; stroke-linecap: square"/>
   </g>
   <g id="patch_4">
    <path d="M 194.4 128.16 
L 194.4 17.28 
" style="fill: none; stroke: #000000; stroke-width: 0.8; stroke-linejoin: miter; stroke-linecap: square"/>
   </g>
   <g id="patch_5">
    <path d="M 27 128.16 
L 194.4 128.16 
" style="fill: none; stroke: #000000; stroke-width: 0.8; stroke-linejoin: miter; stroke-linecap: square"/>
   </g>
   <g id="patch_6">
    <path d="M 27 17.28 
L 194.4 17.28 
" style="fill: none; stroke: #000000; stroke-width: 0.8; stroke-linejoin: miter; stroke-linecap: square"/>
   </g>
  </g>
 </g>
 <defs>
  <clipPath id="p6099c0d348">
   <rect x="27" y="17.28" width="167.4" height="110.88"/>
  </clipPath>
 </defs>
</svg>
