<?xml version="1.0" encoding="UTF-8" standalone="no"?>
<!-- Created with Inkscape (http://www.inkscape.org/) -->

<svg
   width="187.78761mm"
   height="105.16429mm"
   viewBox="0 0 187.78761 105.16429"
   version="1.1"
   id="svg171977"
   xml:space="preserve"
   sodipodi:docname="Diamant_et_NV.svg"
   inkscape:version="1.2 (1:1.2.1+202207142221+cd75a1ee6d)"
   xmlns:inkscape="http://www.inkscape.org/namespaces/inkscape"
   xmlns:sodipodi="http://sodipodi.sourceforge.net/DTD/sodipodi-0.dtd"
   xmlns:xlink="http://www.w3.org/1999/xlink"
   xmlns="http://www.w3.org/2000/svg"
   xmlns:svg="http://www.w3.org/2000/svg"
   xmlns:ns12="http://www.iki.fi/pav/software/textext/"><sodipodi:namedview
     id="namedview171979"
     pagecolor="#ffffff"
     bordercolor="#666666"
     borderopacity="1.0"
     inkscape:showpageshadow="2"
     inkscape:pageopacity="0.0"
     inkscape:pagecheckerboard="0"
     inkscape:deskcolor="#d1d1d1"
     inkscape:document-units="mm"
     showgrid="false"
     inkscape:zoom="0.73071669"
     inkscape:cx="327.76041"
     inkscape:cy="256.5974"
     inkscape:window-width="1366"
     inkscape:window-height="746"
     inkscape:window-x="74"
     inkscape:window-y="27"
     inkscape:window-maximized="1"
     inkscape:current-layer="layer1" /><defs
     id="defs171974"><linearGradient
       inkscape:collect="always"
       id="linearGradient181242"><stop
         style="stop-color:#ff0000;stop-opacity:1;"
         offset="0"
         id="stop181238" /><stop
         style="stop-color:#ffffff;stop-opacity:1;"
         offset="1"
         id="stop181240" /></linearGradient><inkscape:path-effect
       effect="bspline"
       id="path-effect181118"
       is_visible="true"
       lpeversion="1"
       weight="33.333333"
       steps="2"
       helper_size="0"
       apply_no_weight="true"
       apply_with_weight="true"
       only_selected="false" /><marker
       style="overflow:visible"
       id="marker179788"
       refX="0"
       refY="0"
       orient="auto-start-reverse"
       inkscape:stockid="Arrow2"
       markerWidth="7.6999998"
       markerHeight="5.5999999"
       viewBox="0 0 7.7 5.6"
       inkscape:isstock="true"
       inkscape:collect="always"
       preserveAspectRatio="xMidYMid"><path
         transform="scale(0.7)"
         d="M -2,-4 9,0 -2,4 c 2,-2.33 2,-5.66 0,-8 z"
         style="fill:context-stroke;fill-rule:evenodd;stroke:none"
         id="path179786" /></marker><marker
       style="overflow:visible"
       id="Arrow2"
       refX="0"
       refY="0"
       orient="auto-start-reverse"
       inkscape:stockid="Arrow2"
       markerWidth="7.6999998"
       markerHeight="5.5999999"
       viewBox="0 0 7.7 5.6"
       inkscape:isstock="true"
       inkscape:collect="always"
       preserveAspectRatio="xMidYMid"><path
         transform="scale(0.7)"
         d="M -2,-4 9,0 -2,4 c 2,-2.33 2,-5.66 0,-8 z"
         style="fill:context-stroke;fill-rule:evenodd;stroke:none"
         id="arrow2L" /></marker><inkscape:path-effect
       effect="bspline"
       id="path-effect179758"
       is_visible="true"
       lpeversion="1"
       weight="33.333333"
       steps="2"
       helper_size="0"
       apply_no_weight="true"
       apply_with_weight="true"
       only_selected="false" /><inkscape:path-effect
       effect="bspline"
       id="path-effect178302"
       is_visible="true"
       lpeversion="1"
       weight="33.333333"
       steps="2"
       helper_size="0"
       apply_no_weight="true"
       apply_with_weight="true"
       only_selected="false" /><radialGradient
       inkscape:collect="always"
       xlink:href="#linearGradient20638"
       id="radialGradient20518"
       cx="38.207649"
       cy="207.16107"
       fx="38.207649"
       fy="207.16107"
       r="10.869583"
       gradientUnits="userSpaceOnUse"
       gradientTransform="matrix(0.51890803,0,0,0.51890803,140.71159,27.426592)" /><linearGradient
       inkscape:collect="always"
       id="linearGradient20638"><stop
         style="stop-color:#ffffff;stop-opacity:1"
         offset="0"
         id="stop20634" /><stop
         style="stop-color:#000000;stop-opacity:0.99977201"
         offset="1"
         id="stop20636" /></linearGradient><radialGradient
       inkscape:collect="always"
       xlink:href="#linearGradient20628"
       id="radialGradient20518-0-6"
       cx="38.207649"
       cy="207.16107"
       fx="38.207649"
       fy="207.16107"
       r="10.869583"
       gradientUnits="userSpaceOnUse"
       gradientTransform="matrix(0.43734349,0,0,0.43734349,159.45187,16.373992)" /><linearGradient
       inkscape:collect="always"
       id="linearGradient20628"><stop
         style="stop-color:#ffffff;stop-opacity:0.99992597"
         offset="0"
         id="stop20624" /><stop
         style="stop-color:#002ba4;stop-opacity:1"
         offset="1"
         id="stop20626" /></linearGradient><radialGradient
       inkscape:collect="always"
       xlink:href="#linearGradient20638"
       id="radialGradient20518-9"
       cx="38.207649"
       cy="207.16107"
       fx="38.207649"
       fy="207.16107"
       r="10.869583"
       gradientUnits="userSpaceOnUse"
       gradientTransform="matrix(0.36560073,0,0,0.36560073,162.19698,55.361495)" /><radialGradient
       inkscape:collect="always"
       xlink:href="#linearGradient20638"
       id="radialGradient20518-7"
       cx="38.207649"
       cy="207.16107"
       fx="38.207649"
       fy="207.16107"
       r="10.869583"
       gradientUnits="userSpaceOnUse"
       gradientTransform="matrix(0.51890803,0,0,0.51890803,170.94702,27.813762)" /><radialGradient
       inkscape:collect="always"
       xlink:href="#linearGradient20638"
       id="radialGradient20518-1-5"
       cx="38.207649"
       cy="207.16107"
       fx="38.207649"
       fy="207.16107"
       r="10.869583"
       gradientUnits="userSpaceOnUse"
       gradientTransform="matrix(0.51890803,0,0,0.51890803,156.09848,-10.450918)" /><radialGradient
       inkscape:collect="always"
       xlink:href="#linearGradient20638"
       id="radialGradient20518-9-9"
       cx="38.207649"
       cy="207.16107"
       fx="38.207649"
       fy="207.16107"
       r="10.869583"
       gradientUnits="userSpaceOnUse"
       gradientTransform="matrix(0.36560073,0,0,0.36560073,146.33614,16.439892)" /><radialGradient
       inkscape:collect="always"
       xlink:href="#linearGradient20638"
       id="radialGradient20518-9-3"
       cx="38.207649"
       cy="207.16107"
       fx="38.207649"
       fy="207.16107"
       r="10.869583"
       gradientUnits="userSpaceOnUse"
       gradientTransform="matrix(0.36560073,0,0,0.36560073,178.78519,16.710012)" /><radialGradient
       inkscape:collect="always"
       xlink:href="#linearGradient181242"
       id="radialGradient181244"
       cx="48.163166"
       cy="127.24375"
       fx="48.163166"
       fy="127.24375"
       r="1.9154823"
       gradientUnits="userSpaceOnUse"
       gradientTransform="matrix(0.98008532,0,0,0.96412256,-3.2997383,2.9174554)" /><radialGradient
       inkscape:collect="always"
       xlink:href="#linearGradient181242"
       id="radialGradient181244-0"
       cx="48.163166"
       cy="127.24375"
       fx="48.163166"
       fy="127.24375"
       r="1.9154823"
       gradientUnits="userSpaceOnUse"
       gradientTransform="matrix(0.98008532,0,0,0.96412256,-13.732169,-21.057968)" /><radialGradient
       inkscape:collect="always"
       xlink:href="#linearGradient181242"
       id="radialGradient181244-3"
       cx="48.163166"
       cy="127.24375"
       fx="48.163166"
       fy="127.24375"
       r="1.9154823"
       gradientUnits="userSpaceOnUse"
       gradientTransform="matrix(0.98008532,0,0,0.96412256,5.5390912,-34.602706)" /><radialGradient
       inkscape:collect="always"
       xlink:href="#linearGradient181242"
       id="radialGradient181244-4"
       cx="48.163166"
       cy="127.24375"
       fx="48.163166"
       fy="127.24375"
       r="1.9154823"
       gradientUnits="userSpaceOnUse"
       gradientTransform="matrix(0.98008532,0,0,0.96412256,18.084781,-10.7915)" /><radialGradient
       inkscape:collect="always"
       xlink:href="#linearGradient181242"
       id="radialGradient181244-7"
       cx="48.163166"
       cy="127.24375"
       fx="48.163166"
       fy="127.24375"
       r="1.9154823"
       gradientUnits="userSpaceOnUse"
       gradientTransform="matrix(0.98008532,0,0,0.96412256,19.364954,24.541259)" /><radialGradient
       inkscape:collect="always"
       xlink:href="#linearGradient181242"
       id="radialGradient181244-9"
       cx="48.163166"
       cy="127.24375"
       fx="48.163166"
       fy="127.24375"
       r="1.9154823"
       gradientUnits="userSpaceOnUse"
       gradientTransform="matrix(0.98008532,0,0,0.96412256,29.350298,-30.25012)" /><radialGradient
       inkscape:collect="always"
       xlink:href="#linearGradient181242"
       id="radialGradient181244-76"
       cx="48.163166"
       cy="127.24375"
       fx="48.163166"
       fy="127.24375"
       r="1.9154823"
       gradientUnits="userSpaceOnUse"
       gradientTransform="matrix(0.98008532,0,0,0.96412256,57.770126,-28.713913)" /><radialGradient
       inkscape:collect="always"
       xlink:href="#linearGradient181242"
       id="radialGradient181244-33"
       cx="48.163166"
       cy="127.24375"
       fx="48.163166"
       fy="127.24375"
       r="1.9154823"
       gradientUnits="userSpaceOnUse"
       gradientTransform="matrix(0.98008532,0,0,0.96412256,25.253747,2.7783285)" /><radialGradient
       inkscape:collect="always"
       xlink:href="#linearGradient181242"
       id="radialGradient181244-1"
       cx="48.163166"
       cy="127.24375"
       fx="48.163166"
       fy="127.24375"
       r="1.9154823"
       gradientUnits="userSpaceOnUse"
       gradientTransform="matrix(0.98008532,0,0,0.96412256,46.565175,1.4734158)" /></defs><g
     inkscape:label="Calque 1"
     inkscape:groupmode="layer"
     id="layer1"
     transform="translate(-17.20809,-59.901351)"><g
       id="g75652"
       transform="translate(-109.78492,0.69073552)"><path
         id="path34147-9-7"
         style="mix-blend-mode:normal;fill:none;stroke:none;stroke-width:0.5;stroke-linecap:round;stroke-linejoin:bevel;stroke-miterlimit:4;stroke-dasharray:none;stroke-opacity:1"
         d="m 141.00725,73.639703 36.06586,5.011978 36.09401,-4.806551 -36.0696,-3.765741 -36.09027,3.560314 m 55.33835,28.059047 -38.67568,-0.11004 19.40319,-22.936995 z m -19.51655,62.67612 19.51655,-62.67607 30.64921,4.91362 -13.83128,-32.78202 -16.81793,27.8684 m 30.64921,4.91362 -50.16576,57.76247 m 0,0 -19.15913,-62.78618 -30.67691,4.73902 14.01424,-32.688027 16.66267,27.949007 m -30.67691,4.73902 49.83604,58.04718"
         sodipodi:nodetypes="ccccccccccccccccccccccc" /><path
         style="fill:#b4ddff;fill-opacity:1;stroke:none;stroke-width:0.264583px;stroke-linecap:butt;stroke-linejoin:miter;stroke-opacity:1"
         d="m 126.99301,106.32773 30.67691,-4.73902 19.15913,62.78616 z"
         id="path31056-1" /><path
         style="fill:#e0f1ff;fill-opacity:1;stroke:none;stroke-width:0.264583px;stroke-linecap:butt;stroke-linejoin:miter;stroke-opacity:1"
         d="m 126.99301,106.32773 14.01424,-32.688029 16.66267,27.949009 z"
         id="path31058-7" /><path
         style="fill:#afdbff;fill-opacity:1;stroke:none;stroke-width:0.264583px;stroke-linecap:butt;stroke-linejoin:miter;stroke-opacity:1"
         d="m 141.00725,73.639701 16.66267,27.949009 19.40319,-22.936997 -36.06586,-5.012012"
         id="path31060-2" /><path
         style="fill:#8fcbff;fill-opacity:1;stroke:none;stroke-width:0.264583px;stroke-linecap:butt;stroke-linejoin:miter;stroke-opacity:1"
         d="m 176.82905,164.37487 -19.15913,-62.78616 38.67568,0.11004 z"
         id="path31062-7" /><path
         style="fill:#6ebbff;fill-opacity:1;stroke:none;stroke-width:0.264583px;stroke-linecap:butt;stroke-linejoin:miter;stroke-opacity:1"
         d="M 157.66992,101.58871 196.3456,101.6988 177.07311,78.651713 157.66992,101.58871"
         id="path31269-2" /><path
         style="fill:#6ebbff;fill-opacity:1;stroke:none;stroke-width:0.264583px;stroke-linecap:butt;stroke-linejoin:miter;stroke-opacity:1"
         d="m 141.00725,73.639701 36.09027,-3.560313 36.06601,3.751011 -36.09042,4.821315 z"
         id="path31271-2" /><path
         style="fill:#38a2ff;fill-opacity:1;stroke:none;stroke-width:0.264583px;stroke-linecap:butt;stroke-linejoin:miter;stroke-opacity:1"
         d="m 177.07311,78.651714 19.27249,23.047036 16.82152,-27.853621 -36.09401,4.80655"
         id="path31273-6" /><path
         style="fill:#38a2ff;fill-opacity:1;stroke:none;stroke-width:0.264583px;stroke-linecap:butt;stroke-linejoin:miter;stroke-opacity:1"
         d="m 176.82905,164.37487 19.51655,-62.67612 30.64921,4.91367 z"
         id="path31275-1" /><path
         style="fill:#108fff;fill-opacity:1;stroke:none;stroke-width:0.264583px;stroke-linecap:butt;stroke-linejoin:miter;stroke-opacity:1"
         d="m 196.3456,101.69875 16.82152,-27.853621 13.82769,32.767291 -30.64921,-4.91367"
         id="path31277-0" /></g><path
       style="fill:none;stroke:#000000;stroke-width:0.5;stroke-linecap:butt;stroke-linejoin:miter;stroke-dasharray:none;stroke-opacity:1"
       d="m 93.954656,124.44407 c 16.971684,12.92854 33.943064,25.85686 50.914154,38.78495"
       id="path178300"
       inkscape:path-effect="#path-effect178302"
       inkscape:original-d="m 93.954656,124.44407 c 16.971654,12.92858 33.943034,25.8569 50.914154,38.78495"
       sodipodi:nodetypes="cc" /><g
       id="g186465"><path
         style="fill:none;stroke:#000000;stroke-width:0.311345;stroke-linecap:butt;stroke-linejoin:miter;stroke-dasharray:0.62269, 0.311345;stroke-dashoffset:0;stroke-opacity:1"
         d="m 161.27195,93.493869 16.04662,15.054611 16.40244,-14.784488"
         id="path133116" /><path
         style="fill:none;stroke:#000000;stroke-width:0.311345;stroke-linecap:butt;stroke-linejoin:miter;stroke-dasharray:0.62269, 0.311345;stroke-dashoffset:0;stroke-opacity:1"
         d="m 161.27195,93.493868 15.29027,5.420212 17.15879,-5.150088 z"
         id="path133114" /><path
         style="fill:none;stroke:#000000;stroke-width:0.311345;stroke-linecap:butt;stroke-linejoin:miter;stroke-dasharray:0.62269, 0.311345;stroke-dashoffset:0;stroke-opacity:1"
         d="m 177.31857,108.54848 -0.0852,16.28452"
         id="path133397" /><path
         style="fill:none;stroke:#000000;stroke-width:0.311345;stroke-linecap:butt;stroke-linejoin:miter;stroke-dasharray:0.62269, 0.311345;stroke-dashoffset:0;stroke-opacity:1"
         d="m 161.91043,137.17878 h 30.23544 l -15.01308,-4.76331 z"
         id="path133399" /><path
         style="fill:none;stroke:#000000;stroke-width:0.311345;stroke-linecap:butt;stroke-linejoin:miter;stroke-dasharray:0.62269, 0.311345;stroke-dashoffset:0;stroke-opacity:1"
         d="M 161.91043,137.17878 177.2334,124.833 192.14587,137.17878"
         id="path133401" /><circle
         style="fill:url(#radialGradient20518);fill-opacity:1;fill-rule:nonzero;stroke:none;stroke-width:0.415126;stroke-linecap:round"
         id="path19949"
         cx="161.91043"
         cy="136.7916"
         r="5.6403141" /><circle
         style="fill:url(#radialGradient20518-0-6);fill-opacity:1;fill-rule:nonzero;stroke:none;stroke-width:0.349874;stroke-linecap:round"
         id="path19949-8-0"
         cx="177.31857"
         cy="108.54849"
         r="4.7537413" /><circle
         style="fill:url(#radialGradient20518-9);fill-opacity:1;fill-rule:nonzero;stroke:none;stroke-width:0.29248;stroke-linecap:round"
         id="path19949-9"
         cx="177.1328"
         cy="132.41547"
         r="3.9739277" /><circle
         style="fill:url(#radialGradient20518-7);fill-opacity:1;fill-rule:nonzero;stroke:none;stroke-width:0.415126;stroke-linecap:round"
         id="path19949-3"
         cx="192.14587"
         cy="137.17877"
         r="5.6403141" /><text
         xml:space="preserve"
         style="font-size:10.0279px;line-height:125%;font-family:Sans;letter-spacing:0px;word-spacing:0px;fill:#002ba4;fill-opacity:1;stroke:#000000;stroke-width:0.188023px;stroke-linecap:butt;stroke-linejoin:miter;stroke-opacity:1"
         x="163.40396"
         y="112.07356"
         id="text20909"><tspan
           sodipodi:role="line"
           id="tspan20907"
           x="163.40396"
           y="112.07356"
           style="fill:#002ba4;fill-opacity:1;stroke-width:0.188023px">N</tspan></text><text
         xml:space="preserve"
         style="font-size:8.8142px;line-height:125%;font-family:Sans;letter-spacing:0px;word-spacing:0px;fill:#cacaca;fill-opacity:1;stroke:#000000;stroke-width:0.165266px;stroke-linecap:butt;stroke-linejoin:miter;stroke-opacity:1"
         x="164.48923"
         y="127.72786"
         id="text20909-3"><tspan
           sodipodi:role="line"
           id="tspan20907-7"
           x="164.48923"
           y="127.72786"
           style="fill:#cacaca;fill-opacity:1;stroke-width:0.165266px">V</tspan></text><circle
         style="fill:#ffffff;fill-opacity:1;fill-rule:nonzero;stroke:#000000;stroke-width:0.36;stroke-linecap:round;stroke-dasharray:0.36, 0.72;stroke-dashoffset:0;stroke-opacity:1"
         id="path19949-4-9"
         cx="177.2334"
         cy="124.83302"
         r="4.8895602" /><circle
         style="fill:url(#radialGradient20518-1-5);fill-opacity:1;fill-rule:nonzero;stroke:none;stroke-width:0.415126;stroke-linecap:round"
         id="path19949-92-9"
         cx="177.29733"
         cy="98.914085"
         r="5.6403141" /><circle
         style="fill:url(#radialGradient20518-9-9);fill-opacity:1;fill-rule:nonzero;stroke:none;stroke-width:0.29248;stroke-linecap:round"
         id="path19949-9-9"
         cx="161.27196"
         cy="93.493874"
         r="3.9739277" /><circle
         style="fill:url(#radialGradient20518-9-3);fill-opacity:1;fill-rule:nonzero;stroke:none;stroke-width:0.29248;stroke-linecap:round"
         id="path19949-9-0"
         cx="193.72101"
         cy="93.764"
         r="3.9739277" /><path
         style="fill:none;stroke:#000000;stroke-width:0.8;stroke-linecap:butt;stroke-linejoin:miter;stroke-dasharray:none;stroke-opacity:1;marker-start:url(#Arrow2);marker-end:url(#marker179788)"
         d="m 165.86292,147.61656 c 7.49165,0 14.98303,0 22.47415,0"
         id="path179756"
         inkscape:path-effect="#path-effect179758"
         inkscape:original-d="m 165.86292,147.61656 c 7.49165,2.6e-4 14.98303,2.6e-4 22.47415,0"
         sodipodi:nodetypes="cc" /><g
         transform="matrix(0.601862,0,0,0.601862,168.7414,152.98106)"
         ns12:version="1.8.1"
         ns12:texconverter="pdflatex"
         ns12:pdfconverter="inkscape"
         ns12:text="1.54 \\AA"
         ns12:preamble="/home/pellet-mary/.config/inkscape/extensions/textext/default_packages.tex"
         ns12:scale="1.7060657462278157"
         ns12:alignment="middle center"
         ns12:stroke-to-path="0"
         ns12:jacobian_sqrt="0.601862"
         id="g180754"><defs
   id="id-25ae2c6d-90af-428a-af74-2ef2293d6617">
    <g
   id="id-b5ff97ff-f190-4cae-914b-2bc531e42e3c">
      <symbol
   overflow="visible"
   id="id-94870b19-a939-435a-abc4-400f74a879e8">
        <path
   style="stroke:none"
   d=""
   id="id-80cb218d-745a-4dd9-90d0-0e9c5400fb3f" />
      </symbol>
      <symbol
   overflow="visible"
   id="id-86c18ea3-07ab-4ee6-877d-7d00b8e6036f">
        <path
   style="stroke:none"
   d="m 2.9375,-6.375 c 0,-0.25 0,-0.265625 -0.234375,-0.265625 C 2.078125,-6 1.203125,-6 0.890625,-6 v 0.3125 c 0.203125,0 0.78125,0 1.296875,-0.265625 v 5.171875 c 0,0.359375 -0.03125,0.46875 -0.921875,0.46875 h -0.3125 V 0 c 0.34375,-0.03125 1.203125,-0.03125 1.609375,-0.03125 0.390625,0 1.265625,0 1.609375,0.03125 v -0.3125 h -0.3125 c -0.90625,0 -0.921875,-0.109375 -0.921875,-0.46875 z m 0,0"
   id="id-52247664-773a-4710-9d6c-07b9de123793" />
      </symbol>
      <symbol
   overflow="visible"
   id="id-abb008c2-1386-4751-8f47-ec993c0b5414">
        <path
   style="stroke:none"
   d="m 1.90625,-0.53125 c 0,-0.28125 -0.234375,-0.53125 -0.515625,-0.53125 -0.296875,0 -0.53125,0.25 -0.53125,0.53125 C 0.859375,-0.234375 1.09375,0 1.390625,0 1.671875,0 1.90625,-0.234375 1.90625,-0.53125 Z m 0,0"
   id="id-febfcbc7-44b3-4603-b682-3b9e6a53b4fe" />
      </symbol>
      <symbol
   overflow="visible"
   id="id-ec66ce1f-ef3f-42fc-a856-7594c62a8ab5">
        <path
   style="stroke:none"
   d="m 4.46875,-2 c 0,-1.1875 -0.8125,-2.1875 -1.890625,-2.1875 -0.46875,0 -0.90625,0.15625 -1.265625,0.515625 V -5.625 c 0.203125,0.0625 0.53125,0.125 0.84375,0.125 1.234375,0 1.9375,-0.90625 1.9375,-1.03125 0,-0.0625 -0.03125,-0.109375 -0.109375,-0.109375 0,0 -0.03125,0 -0.078125,0.03125 C 3.703125,-6.515625 3.21875,-6.3125 2.546875,-6.3125 2.15625,-6.3125 1.6875,-6.390625 1.21875,-6.59375 1.140625,-6.625 1.125,-6.625 1.109375,-6.625 1,-6.625 1,-6.546875 1,-6.390625 V -3.4375 c 0,0.171875 0,0.25 0.140625,0.25 0.078125,0 0.09375,-0.015625 0.140625,-0.078125 C 1.390625,-3.421875 1.75,-3.96875 2.5625,-3.96875 c 0.515625,0 0.765625,0.453125 0.84375,0.640625 0.15625,0.375 0.1875,0.75 0.1875,1.25 0,0.359375 0,0.953125 -0.25,1.375 C 3.109375,-0.3125 2.734375,-0.0625 2.28125,-0.0625 c -0.71875,0 -1.296875,-0.53125 -1.46875,-1.109375 0.03125,0 0.0625,0.015625 0.171875,0.015625 0.328125,0 0.5,-0.25 0.5,-0.484375 0,-0.25 -0.171875,-0.5 -0.5,-0.5 C 0.84375,-2.140625 0.5,-2.0625 0.5,-1.609375 0.5,-0.75 1.1875,0.21875 2.296875,0.21875 3.453125,0.21875 4.46875,-0.734375 4.46875,-2 Z m 0,0"
   id="id-b25b7731-d7ca-43c2-8e6f-5f839e18f121" />
      </symbol>
      <symbol
   overflow="visible"
   id="id-9fc14076-84ee-463e-82c0-bcdc3c69695e">
        <path
   style="stroke:none"
   d="m 2.9375,-1.640625 v 0.859375 c 0,0.359375 -0.03125,0.46875 -0.765625,0.46875 H 1.96875 V 0 C 2.375,-0.03125 2.890625,-0.03125 3.3125,-0.03125 c 0.421875,0 0.9375,0 1.359375,0.03125 v -0.3125 h -0.21875 c -0.734375,0 -0.75,-0.109375 -0.75,-0.46875 V -1.640625 H 4.6875 v -0.3125 H 3.703125 v -4.53125 c 0,-0.203125 0,-0.265625 -0.171875,-0.265625 -0.078125,0 -0.109375,0 -0.1875,0.125 l -3.0625,4.671875 v 0.3125 z m 0.046875,-0.3125 H 0.5625 l 2.421875,-3.71875 z m 0,0"
   id="id-54ce0f3f-11a0-40ab-9636-faa95fcbff98" />
      </symbol>
      <symbol
   overflow="visible"
   id="id-1fbf1566-e0c3-4ad5-ba6f-8750e1331ff7">
        <path
   style="stroke:none"
   d="m 4.6875,-6.265625 c 0,-0.46875 -0.40625,-0.875 -0.953125,-0.875 -0.5625,0 -0.953125,0.4375 -0.953125,0.875 0,0.5 0.4375,0.875 0.953125,0.875 0.546875,0 0.953125,-0.40625 0.953125,-0.875 z m -0.953125,0.65625 c -0.421875,0 -0.703125,-0.1875 -0.703125,-0.65625 0,-0.453125 0.265625,-0.65625 0.703125,-0.65625 0.421875,0 0.703125,0.1875 0.703125,0.65625 0,0.453125 -0.265625,0.65625 -0.703125,0.65625 z m 0,0"
   id="id-206a5caf-534f-4f2d-8a33-ea189b054bba" />
      </symbol>
      <symbol
   overflow="visible"
   id="id-f1a4670a-8db4-478f-a24c-b44628f8ba50">
        <path
   style="stroke:none"
   d="m 3.96875,-6.9375 c -0.046875,-0.125 -0.078125,-0.203125 -0.234375,-0.203125 -0.15625,0 -0.1875,0.0625 -0.234375,0.203125 L 1.4375,-0.984375 C 1.25,-0.46875 0.859375,-0.3125 0.3125,-0.3125 V 0 c 0.234375,-0.015625 0.671875,-0.03125 1.015625,-0.03125 0.3125,0 0.828125,0.015625 1.15625,0.03125 v -0.3125 c -0.5,0 -0.75,-0.25 -0.75,-0.5 0,-0.03125 0.015625,-0.140625 0.015625,-0.15625 L 2.21875,-2.265625 H 4.671875 L 5.203125,-0.75 c 0.015625,0.046875 0.03125,0.109375 0.03125,0.140625 0,0.296875 -0.5625,0.296875 -0.828125,0.296875 V 0 c 0.359375,-0.03125 1.0625,-0.03125 1.4375,-0.03125 0.421875,0 0.890625,0.015625 1.296875,0.03125 V -0.3125 H 6.96875 C 6.375,-0.3125 6.234375,-0.375 6.125,-0.703125 Z m -0.53125,1.109375 1.125,3.25 H 2.328125 Z m 0,0"
   id="id-f5016d4e-6937-4f32-bc75-226e4df368cc" />
      </symbol>
    </g>
  </defs>
  <g
   id="id-3a96e48b-04e7-48b5-9973-80e625da4a8c"
   transform="translate(-149.603,-125.862)">
    <g
   style="fill:#000000;fill-opacity:1"
   id="id-f96ae4fb-7827-4d13-8852-e0389eb5145d">
      <g
   transform="translate(148.712,134.765)"
   id="g180981"><path
   style="stroke:none"
   d="m 2.9375,-6.375 c 0,-0.25 0,-0.265625 -0.234375,-0.265625 C 2.078125,-6 1.203125,-6 0.890625,-6 v 0.3125 c 0.203125,0 0.78125,0 1.296875,-0.265625 v 5.171875 c 0,0.359375 -0.03125,0.46875 -0.921875,0.46875 h -0.3125 V 0 c 0.34375,-0.03125 1.203125,-0.03125 1.609375,-0.03125 0.390625,0 1.265625,0 1.609375,0.03125 v -0.3125 h -0.3125 c -0.90625,0 -0.921875,-0.109375 -0.921875,-0.46875 z m 0,0"
   id="id-45f9863c-41cd-4dd2-9c91-e27f8fc0528a" />
      </g><g
   transform="translate(153.693,134.765)"
   id="g180984"><path
   style="stroke:none"
   d="m 1.90625,-0.53125 c 0,-0.28125 -0.234375,-0.53125 -0.515625,-0.53125 -0.296875,0 -0.53125,0.25 -0.53125,0.53125 C 0.859375,-0.234375 1.09375,0 1.390625,0 1.671875,0 1.90625,-0.234375 1.90625,-0.53125 Z m 0,0"
   id="id-013cbede-6a9f-45f0-af45-3f71d2f4825a" />
      </g><g
   transform="translate(156.461,134.765)"
   id="g180987"><path
   style="stroke:none"
   d="m 4.46875,-2 c 0,-1.1875 -0.8125,-2.1875 -1.890625,-2.1875 -0.46875,0 -0.90625,0.15625 -1.265625,0.515625 V -5.625 c 0.203125,0.0625 0.53125,0.125 0.84375,0.125 1.234375,0 1.9375,-0.90625 1.9375,-1.03125 0,-0.0625 -0.03125,-0.109375 -0.109375,-0.109375 0,0 -0.03125,0 -0.078125,0.03125 C 3.703125,-6.515625 3.21875,-6.3125 2.546875,-6.3125 2.15625,-6.3125 1.6875,-6.390625 1.21875,-6.59375 1.140625,-6.625 1.125,-6.625 1.109375,-6.625 1,-6.625 1,-6.546875 1,-6.390625 V -3.4375 c 0,0.171875 0,0.25 0.140625,0.25 0.078125,0 0.09375,-0.015625 0.140625,-0.078125 C 1.390625,-3.421875 1.75,-3.96875 2.5625,-3.96875 c 0.515625,0 0.765625,0.453125 0.84375,0.640625 0.15625,0.375 0.1875,0.75 0.1875,1.25 0,0.359375 0,0.953125 -0.25,1.375 C 3.109375,-0.3125 2.734375,-0.0625 2.28125,-0.0625 c -0.71875,0 -1.296875,-0.53125 -1.46875,-1.109375 0.03125,0 0.0625,0.015625 0.171875,0.015625 0.328125,0 0.5,-0.25 0.5,-0.484375 0,-0.25 -0.171875,-0.5 -0.5,-0.5 C 0.84375,-2.140625 0.5,-2.0625 0.5,-1.609375 0.5,-0.75 1.1875,0.21875 2.296875,0.21875 3.453125,0.21875 4.46875,-0.734375 4.46875,-2 Z m 0,0"
   id="id-c4cdc702-73e1-47c4-9034-b3822a6c44f0" />
      </g><g
   transform="translate(161.442,134.765)"
   id="g180990"><path
   style="stroke:none"
   d="m 2.9375,-1.640625 v 0.859375 c 0,0.359375 -0.03125,0.46875 -0.765625,0.46875 H 1.96875 V 0 C 2.375,-0.03125 2.890625,-0.03125 3.3125,-0.03125 c 0.421875,0 0.9375,0 1.359375,0.03125 v -0.3125 h -0.21875 c -0.734375,0 -0.75,-0.109375 -0.75,-0.46875 V -1.640625 H 4.6875 v -0.3125 H 3.703125 v -4.53125 c 0,-0.203125 0,-0.265625 -0.171875,-0.265625 -0.078125,0 -0.109375,0 -0.1875,0.125 l -3.0625,4.671875 v 0.3125 z m 0.046875,-0.3125 H 0.5625 l 2.421875,-3.71875 z m 0,0"
   id="id-cf6bcce7-94b1-4c3f-b36a-415acf9f0bda" />
      </g></g>
    <g
   style="fill:#000000;fill-opacity:1"
   id="id-290f7e9b-36bf-453f-ae1a-060b127ea6ed">
      <g
   transform="translate(169.745,133.003)"
   id="g180994"><path
   style="stroke:none"
   d="m 4.6875,-6.265625 c 0,-0.46875 -0.40625,-0.875 -0.953125,-0.875 -0.5625,0 -0.953125,0.4375 -0.953125,0.875 0,0.5 0.4375,0.875 0.953125,0.875 0.546875,0 0.953125,-0.40625 0.953125,-0.875 z m -0.953125,0.65625 c -0.421875,0 -0.703125,-0.1875 -0.703125,-0.65625 0,-0.453125 0.265625,-0.65625 0.703125,-0.65625 0.421875,0 0.703125,0.1875 0.703125,0.65625 0,0.453125 -0.265625,0.65625 -0.703125,0.65625 z m 0,0"
   id="id-578f9ace-6953-4e04-8ab4-c41829d99d54" />
      </g></g>
    <g
   style="fill:#000000;fill-opacity:1"
   id="id-db1ca32e-445d-482f-93b5-c78eed0c4135">
      <g
   transform="translate(169.745,134.765)"
   id="g180998"><path
   style="stroke:none"
   d="m 3.96875,-6.9375 c -0.046875,-0.125 -0.078125,-0.203125 -0.234375,-0.203125 -0.15625,0 -0.1875,0.0625 -0.234375,0.203125 L 1.4375,-0.984375 C 1.25,-0.46875 0.859375,-0.3125 0.3125,-0.3125 V 0 c 0.234375,-0.015625 0.671875,-0.03125 1.015625,-0.03125 0.3125,0 0.828125,0.015625 1.15625,0.03125 v -0.3125 c -0.5,0 -0.75,-0.25 -0.75,-0.5 0,-0.03125 0.015625,-0.140625 0.015625,-0.15625 L 2.21875,-2.265625 H 4.671875 L 5.203125,-0.75 c 0.015625,0.046875 0.03125,0.109375 0.03125,0.140625 0,0.296875 -0.5625,0.296875 -0.828125,0.296875 V 0 c 0.359375,-0.03125 1.0625,-0.03125 1.4375,-0.03125 0.421875,0 0.890625,0.015625 1.296875,0.03125 V -0.3125 H 6.96875 C 6.375,-0.3125 6.234375,-0.375 6.125,-0.703125 Z m -0.53125,1.109375 1.125,3.25 H 2.328125 Z m 0,0"
   id="id-90c95458-ee46-4fd8-abdd-534402fc90c8" />
      </g></g>
  </g>
</g><rect
         style="fill:none;fill-opacity:1;stroke:#000000;stroke-width:0.8;stroke-linecap:round;stroke-linejoin:bevel;stroke-dasharray:1.6, 1.6;stroke-dashoffset:0;stroke-opacity:1"
         id="rect181114"
         width="59.417782"
         height="75.872009"
         x="145.17792"
         y="87.576164"
         rx="0"
         ry="0" /></g><path
       style="fill:none;stroke:#000000;stroke-width:0.5;stroke-linecap:butt;stroke-linejoin:miter;stroke-dasharray:none;stroke-dashoffset:0;stroke-opacity:1"
       d="M 94.193822,124.18071 C 110.9814,112.00356 127.76893,99.826433 144.5564,87.649358"
       id="path181116"
       inkscape:path-effect="#path-effect181118"
       inkscape:original-d="M 94.193822,124.18071 C 110.98162,112.00386 127.76915,99.826734 144.5564,87.649358"
       sodipodi:nodetypes="cc" /><circle
       style="fill:url(#radialGradient181244);fill-opacity:1;stroke:none;stroke-width:0.499999;stroke-linecap:round;stroke-linejoin:bevel;stroke-dasharray:none;stroke-dashoffset:0;stroke-opacity:1"
       id="path181184"
       cx="43.904274"
       cy="125.59602"
       r="1.6654828" /><circle
       style="fill:url(#radialGradient181244-0);fill-opacity:1;stroke:none;stroke-width:0.499999;stroke-linecap:round;stroke-linejoin:bevel;stroke-dasharray:none;stroke-dashoffset:0;stroke-opacity:1"
       id="path181184-6"
       cx="33.471844"
       cy="101.6206"
       r="1.6654828" /><circle
       style="fill:url(#radialGradient181244-3);fill-opacity:1;stroke:none;stroke-width:0.499999;stroke-linecap:round;stroke-linejoin:bevel;stroke-dasharray:none;stroke-dashoffset:0;stroke-opacity:1"
       id="path181184-3"
       cx="52.743103"
       cy="88.075859"
       r="1.6654828" /><circle
       style="fill:url(#radialGradient181244-4);fill-opacity:1;stroke:none;stroke-width:0.499999;stroke-linecap:round;stroke-linejoin:bevel;stroke-dasharray:none;stroke-dashoffset:0;stroke-opacity:1"
       id="path181184-9"
       cx="65.288795"
       cy="111.88707"
       r="1.6654828" /><circle
       style="fill:url(#radialGradient181244-7);fill-opacity:1;stroke:none;stroke-width:0.499999;stroke-linecap:round;stroke-linejoin:bevel;stroke-dasharray:none;stroke-dashoffset:0;stroke-opacity:1"
       id="path181184-8"
       cx="66.56897"
       cy="147.21983"
       r="1.6654828" /><circle
       style="fill:url(#radialGradient181244-9);fill-opacity:1;stroke:none;stroke-width:0.499999;stroke-linecap:round;stroke-linejoin:bevel;stroke-dasharray:none;stroke-dashoffset:0;stroke-opacity:1"
       id="path181184-4"
       cx="76.554314"
       cy="92.428452"
       r="1.6654828" /><circle
       style="fill:url(#radialGradient181244-76);fill-opacity:1;stroke:none;stroke-width:0.499999;stroke-linecap:round;stroke-linejoin:bevel;stroke-dasharray:none;stroke-dashoffset:0;stroke-opacity:1"
       id="path181184-1"
       cx="104.97414"
       cy="93.964653"
       r="1.6654828" /><circle
       style="fill:url(#radialGradient181244-33);fill-opacity:1;stroke:none;stroke-width:0.499999;stroke-linecap:round;stroke-linejoin:bevel;stroke-dasharray:none;stroke-dashoffset:0;stroke-opacity:1"
       id="path181184-5"
       cx="72.457756"
       cy="125.45689"
       r="1.6654828" /><circle
       style="fill:url(#radialGradient181244-1);fill-opacity:1;stroke:none;stroke-width:0.499999;stroke-linecap:round;stroke-linejoin:bevel;stroke-dasharray:none;stroke-dashoffset:0;stroke-opacity:1"
       id="path181184-7"
       cx="93.769188"
       cy="124.15199"
       r="1.6654828" /><text
       xml:space="preserve"
       style="font-size:8.46667px;line-height:1.25;font-family:sans-serif;-inkscape-font-specification:sans-serif;letter-spacing:0px;word-spacing:0px;stroke-width:0.264583"
       x="27.172003"
       y="66.325768"
       id="text186656"><tspan
         sodipodi:role="line"
         id="tspan186654"
         style="font-size:8.46667px;stroke-width:0.264583"
         x="27.172003"
         y="66.325768">(a)</tspan></text><text
       xml:space="preserve"
       style="font-size:8.46667px;line-height:1.25;font-family:sans-serif;-inkscape-font-specification:sans-serif;letter-spacing:0px;word-spacing:0px;stroke-width:0.264583"
       x="149.11697"
       y="81.413109"
       id="text186656-6"><tspan
         sodipodi:role="line"
         id="tspan186654-3"
         style="font-size:8.46667px;stroke-width:0.264583"
         x="149.11697"
         y="81.413109">(b)</tspan></text></g></svg>
