<?xml version="1.0" encoding="utf-8" standalone="no"?>
<!DOCTYPE svg PUBLIC "-//W3C//DTD SVG 1.1//EN"
  "http://www.w3.org/Graphics/SVG/1.1/DTD/svg11.dtd">
<svg xmlns:xlink="http://www.w3.org/1999/xlink" width="324pt" height="216pt" viewBox="0 0 324 216" xmlns="http://www.w3.org/2000/svg" version="1.1">
 <metadata>
  <rdf:RDF xmlns:dc="http://purl.org/dc/elements/1.1/" xmlns:cc="http://creativecommons.org/ns#" xmlns:rdf="http://www.w3.org/1999/02/22-rdf-syntax-ns#">
   <cc:Work>
    <dc:type rdf:resource="http://purl.org/dc/dcmitype/StillImage"/>
    <dc:date>2022-09-13T19:58:02.603060</dc:date>
    <dc:format>image/svg+xml</dc:format>
    <dc:creator>
     <cc:Agent>
      <dc:title>Matplotlib v3.5.3, https://matplotlib.org/</dc:title>
     </cc:Agent>
    </dc:creator>
   </cc:Work>
  </rdf:RDF>
 </metadata>
 <defs>
  <style type="text/css">*{stroke-linejoin: round; stroke-linecap: butt}</style>
 </defs>
 <g id="figure_1">
  <g id="patch_1">
   <path d="M 0 216 
L 324 216 
L 324 0 
L 0 0 
z
" style="fill: #ffffff"/>
  </g>
  <g id="axes_1">
   <g id="patch_2">
    <path d="M 40.5 192.24 
L 291.6 192.24 
L 291.6 25.92 
L 40.5 25.92 
z
" style="fill: #ffffff"/>
   </g>
   <g id="matplotlib.axis_1">
    <g id="xtick_1">
     <g id="line2d_1">
      <defs>
       <path id="m1671162d9b" d="M 0 0 
L 0 3.5 
" style="stroke: #000000; stroke-width: 0.8"/>
      </defs>
      <g>
       <use xlink:href="#m1671162d9b" x="51.913636" y="192.24" style="stroke: #000000; stroke-width: 0.8"/>
      </g>
     </g>
     <g id="text_1">
      <!-- 2600 -->
      <g transform="translate(31.553636 211.3975)scale(0.16 -0.16)">
       <defs>
        <path id="DejaVuSans-32" d="M 1228 531 
L 3431 531 
L 3431 0 
L 469 0 
L 469 531 
Q 828 903 1448 1529 
Q 2069 2156 2228 2338 
Q 2531 2678 2651 2914 
Q 2772 3150 2772 3378 
Q 2772 3750 2511 3984 
Q 2250 4219 1831 4219 
Q 1534 4219 1204 4116 
Q 875 4013 500 3803 
L 500 4441 
Q 881 4594 1212 4672 
Q 1544 4750 1819 4750 
Q 2544 4750 2975 4387 
Q 3406 4025 3406 3419 
Q 3406 3131 3298 2873 
Q 3191 2616 2906 2266 
Q 2828 2175 2409 1742 
Q 1991 1309 1228 531 
z
" transform="scale(0.015625)"/>
        <path id="DejaVuSans-36" d="M 2113 2584 
Q 1688 2584 1439 2293 
Q 1191 2003 1191 1497 
Q 1191 994 1439 701 
Q 1688 409 2113 409 
Q 2538 409 2786 701 
Q 3034 994 3034 1497 
Q 3034 2003 2786 2293 
Q 2538 2584 2113 2584 
z
M 3366 4563 
L 3366 3988 
Q 3128 4100 2886 4159 
Q 2644 4219 2406 4219 
Q 1781 4219 1451 3797 
Q 1122 3375 1075 2522 
Q 1259 2794 1537 2939 
Q 1816 3084 2150 3084 
Q 2853 3084 3261 2657 
Q 3669 2231 3669 1497 
Q 3669 778 3244 343 
Q 2819 -91 2113 -91 
Q 1303 -91 875 529 
Q 447 1150 447 2328 
Q 447 3434 972 4092 
Q 1497 4750 2381 4750 
Q 2619 4750 2861 4703 
Q 3103 4656 3366 4563 
z
" transform="scale(0.015625)"/>
        <path id="DejaVuSans-30" d="M 2034 4250 
Q 1547 4250 1301 3770 
Q 1056 3291 1056 2328 
Q 1056 1369 1301 889 
Q 1547 409 2034 409 
Q 2525 409 2770 889 
Q 3016 1369 3016 2328 
Q 3016 3291 2770 3770 
Q 2525 4250 2034 4250 
z
M 2034 4750 
Q 2819 4750 3233 4129 
Q 3647 3509 3647 2328 
Q 3647 1150 3233 529 
Q 2819 -91 2034 -91 
Q 1250 -91 836 529 
Q 422 1150 422 2328 
Q 422 3509 836 4129 
Q 1250 4750 2034 4750 
z
" transform="scale(0.015625)"/>
       </defs>
       <use xlink:href="#DejaVuSans-32"/>
       <use xlink:href="#DejaVuSans-36" x="63.623047"/>
       <use xlink:href="#DejaVuSans-30" x="127.246094"/>
       <use xlink:href="#DejaVuSans-30" x="190.869141"/>
      </g>
     </g>
    </g>
    <g id="xtick_2">
     <g id="line2d_2">
      <g>
       <use xlink:href="#m1671162d9b" x="128.004545" y="192.24" style="stroke: #000000; stroke-width: 0.8"/>
      </g>
     </g>
     <g id="text_2">
      <!-- 2800 -->
      <g transform="translate(107.644545 211.3975)scale(0.16 -0.16)">
       <defs>
        <path id="DejaVuSans-38" d="M 2034 2216 
Q 1584 2216 1326 1975 
Q 1069 1734 1069 1313 
Q 1069 891 1326 650 
Q 1584 409 2034 409 
Q 2484 409 2743 651 
Q 3003 894 3003 1313 
Q 3003 1734 2745 1975 
Q 2488 2216 2034 2216 
z
M 1403 2484 
Q 997 2584 770 2862 
Q 544 3141 544 3541 
Q 544 4100 942 4425 
Q 1341 4750 2034 4750 
Q 2731 4750 3128 4425 
Q 3525 4100 3525 3541 
Q 3525 3141 3298 2862 
Q 3072 2584 2669 2484 
Q 3125 2378 3379 2068 
Q 3634 1759 3634 1313 
Q 3634 634 3220 271 
Q 2806 -91 2034 -91 
Q 1263 -91 848 271 
Q 434 634 434 1313 
Q 434 1759 690 2068 
Q 947 2378 1403 2484 
z
M 1172 3481 
Q 1172 3119 1398 2916 
Q 1625 2713 2034 2713 
Q 2441 2713 2670 2916 
Q 2900 3119 2900 3481 
Q 2900 3844 2670 4047 
Q 2441 4250 2034 4250 
Q 1625 4250 1398 4047 
Q 1172 3844 1172 3481 
z
" transform="scale(0.015625)"/>
       </defs>
       <use xlink:href="#DejaVuSans-32"/>
       <use xlink:href="#DejaVuSans-38" x="63.623047"/>
       <use xlink:href="#DejaVuSans-30" x="127.246094"/>
       <use xlink:href="#DejaVuSans-30" x="190.869141"/>
      </g>
     </g>
    </g>
    <g id="xtick_3">
     <g id="line2d_3">
      <g>
       <use xlink:href="#m1671162d9b" x="204.095455" y="192.24" style="stroke: #000000; stroke-width: 0.8"/>
      </g>
     </g>
     <g id="text_3">
      <!-- 3000 -->
      <g transform="translate(183.735455 211.3975)scale(0.16 -0.16)">
       <defs>
        <path id="DejaVuSans-33" d="M 2597 2516 
Q 3050 2419 3304 2112 
Q 3559 1806 3559 1356 
Q 3559 666 3084 287 
Q 2609 -91 1734 -91 
Q 1441 -91 1130 -33 
Q 819 25 488 141 
L 488 750 
Q 750 597 1062 519 
Q 1375 441 1716 441 
Q 2309 441 2620 675 
Q 2931 909 2931 1356 
Q 2931 1769 2642 2001 
Q 2353 2234 1838 2234 
L 1294 2234 
L 1294 2753 
L 1863 2753 
Q 2328 2753 2575 2939 
Q 2822 3125 2822 3475 
Q 2822 3834 2567 4026 
Q 2313 4219 1838 4219 
Q 1578 4219 1281 4162 
Q 984 4106 628 3988 
L 628 4550 
Q 988 4650 1302 4700 
Q 1616 4750 1894 4750 
Q 2613 4750 3031 4423 
Q 3450 4097 3450 3541 
Q 3450 3153 3228 2886 
Q 3006 2619 2597 2516 
z
" transform="scale(0.015625)"/>
       </defs>
       <use xlink:href="#DejaVuSans-33"/>
       <use xlink:href="#DejaVuSans-30" x="63.623047"/>
       <use xlink:href="#DejaVuSans-30" x="127.246094"/>
       <use xlink:href="#DejaVuSans-30" x="190.869141"/>
      </g>
     </g>
    </g>
    <g id="xtick_4">
     <g id="line2d_4">
      <g>
       <use xlink:href="#m1671162d9b" x="280.186364" y="192.24" style="stroke: #000000; stroke-width: 0.8"/>
      </g>
     </g>
     <g id="text_4">
      <!-- 3200 -->
      <g transform="translate(259.826364 211.3975)scale(0.16 -0.16)">
       <use xlink:href="#DejaVuSans-33"/>
       <use xlink:href="#DejaVuSans-32" x="63.623047"/>
       <use xlink:href="#DejaVuSans-30" x="127.246094"/>
       <use xlink:href="#DejaVuSans-30" x="190.869141"/>
      </g>
     </g>
    </g>
   </g>
   <g id="matplotlib.axis_2">
    <g id="ytick_1">
     <g id="line2d_5">
      <defs>
       <path id="m06286a1f1c" d="M 0 0 
L -3.5 0 
" style="stroke: #000000; stroke-width: 0.8"/>
      </defs>
      <g>
       <use xlink:href="#m06286a1f1c" x="40.5" y="184.338029" style="stroke: #000000; stroke-width: 0.8"/>
      </g>
     </g>
     <g id="text_5">
      <!-- 0.0 -->
      <g transform="translate(8.055 190.416779)scale(0.16 -0.16)">
       <defs>
        <path id="DejaVuSans-2e" d="M 684 794 
L 1344 794 
L 1344 0 
L 684 0 
L 684 794 
z
" transform="scale(0.015625)"/>
       </defs>
       <use xlink:href="#DejaVuSans-30"/>
       <use xlink:href="#DejaVuSans-2e" x="63.623047"/>
       <use xlink:href="#DejaVuSans-30" x="95.410156"/>
      </g>
     </g>
    </g>
    <g id="ytick_2">
     <g id="line2d_6">
      <g>
       <use xlink:href="#m06286a1f1c" x="40.5" y="149.153971" style="stroke: #000000; stroke-width: 0.8"/>
      </g>
     </g>
     <g id="text_6">
      <!-- 0.2 -->
      <g transform="translate(8.055 155.232721)scale(0.16 -0.16)">
       <use xlink:href="#DejaVuSans-30"/>
       <use xlink:href="#DejaVuSans-2e" x="63.623047"/>
       <use xlink:href="#DejaVuSans-32" x="95.410156"/>
      </g>
     </g>
    </g>
    <g id="ytick_3">
     <g id="line2d_7">
      <g>
       <use xlink:href="#m06286a1f1c" x="40.5" y="113.969912" style="stroke: #000000; stroke-width: 0.8"/>
      </g>
     </g>
     <g id="text_7">
      <!-- 0.4 -->
      <g transform="translate(8.055 120.048662)scale(0.16 -0.16)">
       <defs>
        <path id="DejaVuSans-34" d="M 2419 4116 
L 825 1625 
L 2419 1625 
L 2419 4116 
z
M 2253 4666 
L 3047 4666 
L 3047 1625 
L 3713 1625 
L 3713 1100 
L 3047 1100 
L 3047 0 
L 2419 0 
L 2419 1100 
L 313 1100 
L 313 1709 
L 2253 4666 
z
" transform="scale(0.015625)"/>
       </defs>
       <use xlink:href="#DejaVuSans-30"/>
       <use xlink:href="#DejaVuSans-2e" x="63.623047"/>
       <use xlink:href="#DejaVuSans-34" x="95.410156"/>
      </g>
     </g>
    </g>
    <g id="ytick_4">
     <g id="line2d_8">
      <g>
       <use xlink:href="#m06286a1f1c" x="40.5" y="78.785854" style="stroke: #000000; stroke-width: 0.8"/>
      </g>
     </g>
     <g id="text_8">
      <!-- 0.6 -->
      <g transform="translate(8.055 84.864604)scale(0.16 -0.16)">
       <use xlink:href="#DejaVuSans-30"/>
       <use xlink:href="#DejaVuSans-2e" x="63.623047"/>
       <use xlink:href="#DejaVuSans-36" x="95.410156"/>
      </g>
     </g>
    </g>
    <g id="ytick_5">
     <g id="line2d_9">
      <g>
       <use xlink:href="#m06286a1f1c" x="40.5" y="43.601795" style="stroke: #000000; stroke-width: 0.8"/>
      </g>
     </g>
     <g id="text_9">
      <!-- 0.8 -->
      <g transform="translate(8.055 49.680545)scale(0.16 -0.16)">
       <use xlink:href="#DejaVuSans-30"/>
       <use xlink:href="#DejaVuSans-2e" x="63.623047"/>
       <use xlink:href="#DejaVuSans-38" x="95.410156"/>
      </g>
     </g>
    </g>
   </g>
   <g id="line2d_10">
    <path d="M 51.913636 183.943266 
L 52.370182 182.678052 
L 52.826727 183.172863 
L 53.283273 184.079341 
L 54.196364 182.61832 
L 54.652909 184.061532 
L 55.109455 183.87085 
L 55.566 183.115012 
L 56.022545 183.113224 
L 56.479091 183.802223 
L 57.392182 183.411894 
L 57.848727 184.40571 
L 58.305273 183.763788 
L 59.218364 184.503848 
L 59.674909 183.620703 
L 60.131455 183.502408 
L 60.588 184.138986 
L 61.044545 182.974425 
L 61.957636 183.77738 
L 62.414182 183.104832 
L 62.870727 183.312322 
L 63.327273 182.767866 
L 63.783818 182.900881 
L 64.696909 183.640021 
L 65.153455 184.392118 
L 66.066545 183.707966 
L 66.523091 183.598191 
L 66.979636 184.310193 
L 67.436182 183.179081 
L 67.892727 183.381123 
L 68.349273 183.395652 
L 68.805818 183.255754 
L 69.262364 183.3887 
L 69.718909 183.829917 
L 70.175455 182.90648 
L 70.632 183.632473 
L 71.088545 183.772059 
L 71.545091 183.793472 
L 72.001636 183.934723 
L 72.458182 183.329605 
L 72.914727 183.990094 
L 73.371273 184.253561 
L 74.284364 184.211864 
L 74.740909 183.460208 
L 75.197455 183.944943 
L 75.654 183.44805 
L 76.110545 182.621513 
L 76.567091 181.135951 
L 77.023636 178.698999 
L 77.480182 174.365588 
L 77.936727 167.175658 
L 78.393273 157.557176 
L 79.306364 130.385697 
L 79.762909 123.249119 
L 80.219455 122.788179 
L 80.676 126.872822 
L 81.132545 137.108841 
L 82.045636 163.247152 
L 82.502182 170.523963 
L 83.415273 177.77986 
L 83.871818 179.989662 
L 84.328364 181.491553 
L 84.784909 182.51496 
L 85.241455 182.880111 
L 85.698 183.07103 
L 86.611091 184.021969 
L 87.067636 183.052573 
L 87.524182 183.049508 
L 87.980727 182.70832 
L 88.437273 183.865934 
L 88.893818 183.721987 
L 89.806909 184.234526 
L 90.263455 184.167374 
L 90.72 183.821964 
L 91.176545 183.170914 
L 91.633091 182.908354 
L 92.089636 184.210656 
L 92.546182 183.679399 
L 93.002727 184.134243 
L 93.915818 183.9326 
L 94.372364 183.691864 
L 94.828909 183.927042 
L 95.285455 184.38907 
L 95.742 183.791129 
L 96.198545 183.431583 
L 96.655091 183.747437 
L 97.111636 184.309586 
L 98.481273 181.777596 
L 98.937818 181.834268 
L 99.394364 182.145905 
L 99.850909 183.181892 
L 100.764 179.2013 
L 101.220545 176.67827 
L 101.677091 171.783509 
L 102.133636 164.922667 
L 102.590182 156.314526 
L 103.046727 139.465637 
L 103.503273 116.95688 
L 103.959818 104.978181 
L 104.416364 101.979881 
L 104.872909 107.202672 
L 105.329455 117.764617 
L 106.242545 156.017673 
L 106.699091 167.832092 
L 107.155636 174.293906 
L 107.612182 177.17473 
L 108.068727 179.042749 
L 108.525273 179.37293 
L 108.981818 181.295995 
L 109.438364 181.844274 
L 109.894909 181.791443 
L 110.351455 181.524342 
L 110.808 182.324764 
L 111.264545 182.78294 
L 111.721091 183.575258 
L 112.177636 182.874148 
L 112.634182 182.422485 
L 113.090727 183.129715 
L 113.547273 182.811605 
L 114.003818 183.798382 
L 114.916909 183.931536 
L 115.83 183.075299 
L 116.286545 183.544897 
L 116.743091 183.560052 
L 117.199636 183.993859 
L 117.656182 183.268502 
L 118.112727 184.367941 
L 118.569273 183.019332 
L 119.025818 182.080464 
L 119.482364 182.705011 
L 119.938909 182.346807 
L 120.852 178.874284 
L 121.308545 175.059173 
L 121.765091 169.860386 
L 122.221636 166.402063 
L 122.678182 160.61532 
L 123.134727 152.519348 
L 123.591273 137.849502 
L 124.504364 89.480243 
L 124.960909 82.29134 
L 125.417455 86.250387 
L 125.874 92.601012 
L 126.330545 112.163922 
L 126.787091 138.764053 
L 127.243636 155.769648 
L 127.700182 165.275914 
L 128.156727 171.851581 
L 129.069818 177.16156 
L 129.982909 181.257595 
L 130.439455 181.690419 
L 130.896 181.622844 
L 131.352545 182.115863 
L 131.809091 183.19844 
L 132.265636 183.542989 
L 133.635273 183.746343 
L 134.091818 183.621796 
L 134.548364 182.882922 
L 135.004909 183.133376 
L 135.461455 183.843804 
L 135.918 183.226846 
L 136.374545 183.111744 
L 136.831091 183.809412 
L 137.287636 183.833647 
L 137.744182 184.027077 
L 138.200727 183.55163 
L 138.657273 183.290591 
L 139.113818 182.487798 
L 139.570364 182.870932 
L 140.026909 183.941161 
L 140.483455 183.431132 
L 140.94 184.086947 
L 141.396545 183.234729 
L 141.853091 182.869596 
L 142.766182 179.318491 
L 143.679273 171.772398 
L 144.135818 165.607483 
L 144.592364 156.885189 
L 145.048909 145.274936 
L 145.505455 122.122746 
L 145.962 81.919482 
L 146.418545 51.502182 
L 146.875091 39.024439 
L 147.331636 41.56042 
L 147.788182 50.777035 
L 148.244727 78.949745 
L 148.701273 114.989616 
L 149.157818 138.702158 
L 149.614364 154.715633 
L 150.070909 165.222528 
L 150.984 174.856385 
L 151.440545 179.218855 
L 151.897091 182.187689 
L 152.353636 183.294259 
L 152.810182 182.501506 
L 153.266727 182.360509 
L 154.636364 183.317481 
L 155.092909 182.55255 
L 155.549455 182.042151 
L 156.006 182.302449 
L 156.462545 182.849537 
L 156.919091 182.142643 
L 157.375636 181.846998 
L 157.832182 183.285675 
L 158.288727 183.422936 
L 158.745273 183.146766 
L 159.201818 183.322513 
L 159.658364 183.758629 
L 160.114909 182.799216 
L 160.571455 183.490701 
L 161.028 182.986479 
L 161.484545 183.381273 
L 161.941091 183.305589 
L 163.310727 184.036753 
L 163.767273 184.131935 
L 164.223818 183.224382 
L 164.680364 183.677878 
L 165.136909 182.71913 
L 165.593455 182.855303 
L 166.05 183.439056 
L 166.506545 183.347477 
L 166.963091 182.742208 
L 167.876182 183.008059 
L 168.332727 183.398307 
L 168.789273 183.532896 
L 169.702364 182.572708 
L 170.158909 182.391321 
L 170.615455 181.647629 
L 171.072 181.8223 
L 171.528545 182.935805 
L 171.985091 183.463447 
L 172.441636 183.768953 
L 172.898182 183.518684 
L 173.354727 183.484397 
L 173.811273 183.723994 
L 174.267818 183.200812 
L 174.724364 183.922259 
L 175.180909 183.859363 
L 175.637455 183.413976 
L 176.550545 183.578283 
L 177.007091 182.603704 
L 177.463636 181.98936 
L 177.920182 182.372459 
L 178.376727 183.470122 
L 178.833273 182.773494 
L 179.289818 181.777382 
L 179.746364 180.208831 
L 180.202909 179.718513 
L 180.659455 177.74928 
L 181.572545 169.37609 
L 182.029091 162.137986 
L 182.485636 150.582767 
L 182.942182 126.047033 
L 183.398727 86.199367 
L 183.855273 56.08945 
L 184.311818 40.65682 
L 184.768364 33.48 
L 185.224909 38.429074 
L 187.051091 142.669346 
L 187.507636 155.120722 
L 188.420727 170.609029 
L 189.333818 177.532316 
L 189.790364 180.234436 
L 190.246909 181.780106 
L 190.703455 182.257403 
L 191.16 183.1278 
L 191.616545 183.162279 
L 192.073091 183.774506 
L 192.529636 183.533248 
L 193.442727 183.701332 
L 193.899273 183.288868 
L 194.355818 183.68383 
L 195.268909 183.724925 
L 195.725455 183.349253 
L 196.182 183.303872 
L 196.638545 183.867131 
L 197.095091 184.206364 
L 197.551636 183.712623 
L 198.008182 182.393843 
L 198.464727 182.764882 
L 198.921273 183.463516 
L 200.290909 175.659409 
L 200.747455 171.994938 
L 201.204 164.178807 
L 201.660545 150.684994 
L 202.573636 101.069316 
L 203.030182 88.903507 
L 203.486727 83.508308 
L 203.943273 84.1492 
L 204.856364 123.832385 
L 205.312909 142.615167 
L 205.769455 155.496556 
L 206.682545 168.782158 
L 207.139091 173.764807 
L 208.508727 182.171042 
L 208.965273 183.480857 
L 209.421818 183.3475 
L 209.878364 182.765258 
L 210.334909 183.151017 
L 210.791455 182.831548 
L 211.248 183.46159 
L 212.161091 182.755199 
L 213.530727 184.326029 
L 214.443818 183.504652 
L 215.813455 177.889236 
L 216.726545 170.872051 
L 217.183091 167.380904 
L 217.639636 156.749646 
L 218.552727 118.259307 
L 219.009273 106.597294 
L 219.465818 106.364325 
L 219.922364 108.543886 
L 220.378909 120.211597 
L 220.835455 138.94039 
L 221.292 153.097663 
L 221.748545 163.567396 
L 222.205091 169.678826 
L 223.574727 179.874346 
L 224.031273 182.508609 
L 224.487818 183.310916 
L 224.944364 183.030669 
L 225.400909 183.024145 
L 225.857455 184.018158 
L 226.314 183.917863 
L 226.770545 182.557947 
L 227.227091 183.440837 
L 227.683636 184.01183 
L 228.140182 182.98593 
L 228.596727 183.778184 
L 229.053273 183.886022 
L 229.509818 184.193506 
L 230.422909 183.822438 
L 231.336 183.18036 
L 231.792545 182.193606 
L 232.249091 180.457792 
L 232.705636 178.133553 
L 233.618727 171.790236 
L 234.075273 166.321665 
L 234.531818 155.573767 
L 234.988364 138.685714 
L 235.444909 127.33589 
L 235.901455 123.719509 
L 236.358 124.833505 
L 236.814545 129.5517 
L 238.184182 162.796126 
L 239.097273 174.784681 
L 239.553818 178.057927 
L 240.010364 179.592792 
L 240.466909 182.111137 
L 240.923455 182.255448 
L 241.38 182.953736 
L 241.836545 183.437529 
L 242.293091 183.100592 
L 242.749636 183.878439 
L 243.206182 183.370712 
L 243.662727 183.883928 
L 244.119273 183.842289 
L 244.575818 183.370891 
L 245.032364 183.276802 
L 245.488909 183.736244 
L 245.945455 183.996178 
L 246.402 184.018545 
L 246.858545 183.530894 
L 247.315091 183.388399 
L 247.771636 183.8866 
L 248.684727 183.968386 
L 249.141273 182.769382 
L 250.054364 184.232976 
L 250.510909 184.260196 
L 250.967455 182.82935 
L 251.424 183.304664 
L 251.880545 184.23293 
L 252.337091 184.565783 
L 252.793636 183.76908 
L 253.250182 184.163365 
L 253.706727 184.334798 
L 254.163273 183.634712 
L 254.619818 184.127753 
L 255.076364 183.882002 
L 255.532909 183.815786 
L 255.989455 184.017834 
L 256.446 183.693518 
L 257.359091 183.715757 
L 257.815636 184.375442 
L 258.272182 184.355707 
L 258.728727 184.164453 
L 259.641818 183.337934 
L 260.098364 183.385097 
L 260.554909 184.68 
L 261.011455 183.466374 
L 261.468 183.871556 
L 261.924545 183.649548 
L 262.381091 182.797822 
L 262.837636 182.955697 
L 263.294182 183.986583 
L 263.750727 183.742295 
L 264.207273 183.640675 
L 264.663818 183.228882 
L 265.120364 183.783055 
L 265.576909 183.584981 
L 266.033455 183.726094 
L 266.49 183.154175 
L 266.946545 184.032606 
L 267.403091 183.86041 
L 267.859636 183.323468 
L 268.316182 183.356657 
L 268.772727 182.953782 
L 269.229273 183.741491 
L 269.685818 183.935093 
L 270.598909 183.318569 
L 271.055455 184.609551 
L 271.512 183.400239 
L 271.968545 183.666848 
L 272.425091 184.229286 
L 272.881636 183.498764 
L 273.338182 183.188185 
L 273.794727 183.422213 
L 274.251273 183.447038 
L 274.707818 183.266836 
L 275.164364 182.796972 
L 275.620909 184.135712 
L 276.077455 183.570451 
L 276.534 182.749022 
L 276.990545 183.711871 
L 277.447091 184.098787 
L 277.903636 184.109042 
L 278.360182 183.802923 
L 279.273273 183.73662 
L 280.186364 184.185657 
L 280.186364 184.185657 
" clip-path="url(#p286ff9141f)" style="fill: none; stroke: #1f77b4; stroke-width: 1.5; stroke-linecap: square"/>
   </g>
   <g id="patch_3">
    <path d="M 40.5 192.24 
L 40.5 25.92 
" style="fill: none; stroke: #000000; stroke-width: 0.8; stroke-linejoin: miter; stroke-linecap: square"/>
   </g>
   <g id="patch_4">
    <path d="M 291.6 192.24 
L 291.6 25.92 
" style="fill: none; stroke: #000000; stroke-width: 0.8; stroke-linejoin: miter; stroke-linecap: square"/>
   </g>
   <g id="patch_5">
    <path d="M 40.5 192.24 
L 291.6 192.24 
" style="fill: none; stroke: #000000; stroke-width: 0.8; stroke-linejoin: miter; stroke-linecap: square"/>
   </g>
   <g id="patch_6">
    <path d="M 40.5 25.92 
L 291.6 25.92 
" style="fill: none; stroke: #000000; stroke-width: 0.8; stroke-linejoin: miter; stroke-linecap: square"/>
   </g>
  </g>
 </g>
 <defs>
  <clipPath id="p286ff9141f">
   <rect x="40.5" y="25.92" width="251.1" height="166.32"/>
  </clipPath>
 </defs>
</svg>
