<?xml version="1.0" encoding="utf-8" standalone="no"?>
<!DOCTYPE svg PUBLIC "-//W3C//DTD SVG 1.1//EN"
  "http://www.w3.org/Graphics/SVG/1.1/DTD/svg11.dtd">
<svg xmlns:xlink="http://www.w3.org/1999/xlink" width="324pt" height="216pt" viewBox="0 0 324 216" xmlns="http://www.w3.org/2000/svg" version="1.1">
 <metadata>
  <rdf:RDF xmlns:dc="http://purl.org/dc/elements/1.1/" xmlns:cc="http://creativecommons.org/ns#" xmlns:rdf="http://www.w3.org/1999/02/22-rdf-syntax-ns#">
   <cc:Work>
    <dc:type rdf:resource="http://purl.org/dc/dcmitype/StillImage"/>
    <dc:date>2022-09-13T12:26:27.957661</dc:date>
    <dc:format>image/svg+xml</dc:format>
    <dc:creator>
     <cc:Agent>
      <dc:title>Matplotlib v3.5.3, https://matplotlib.org/</dc:title>
     </cc:Agent>
    </dc:creator>
   </cc:Work>
  </rdf:RDF>
 </metadata>
 <defs>
  <style type="text/css">*{stroke-linejoin: round; stroke-linecap: butt}</style>
 </defs>
 <g id="figure_1">
  <g id="patch_1">
   <path d="M 0 216 
L 324 216 
L 324 0 
L 0 0 
z
" style="fill: #ffffff"/>
  </g>
  <g id="axes_1">
   <g id="patch_2">
    <path d="M 40.5 192.24 
L 291.6 192.24 
L 291.6 25.92 
L 40.5 25.92 
z
" style="fill: #ffffff"/>
   </g>
   <g id="matplotlib.axis_1">
    <g id="xtick_1">
     <g id="line2d_1">
      <defs>
       <path id="m5457fa3200" d="M 0 0 
L 0 3.5 
" style="stroke: #000000; stroke-width: 0.8"/>
      </defs>
      <g>
       <use xlink:href="#m5457fa3200" x="51.913636" y="192.24" style="stroke: #000000; stroke-width: 0.8"/>
      </g>
     </g>
     <g id="text_1">
      <!-- 2840 -->
      <g transform="translate(31.553636 211.3975)scale(0.16 -0.16)">
       <defs>
        <path id="DejaVuSans-32" d="M 1228 531 
L 3431 531 
L 3431 0 
L 469 0 
L 469 531 
Q 828 903 1448 1529 
Q 2069 2156 2228 2338 
Q 2531 2678 2651 2914 
Q 2772 3150 2772 3378 
Q 2772 3750 2511 3984 
Q 2250 4219 1831 4219 
Q 1534 4219 1204 4116 
Q 875 4013 500 3803 
L 500 4441 
Q 881 4594 1212 4672 
Q 1544 4750 1819 4750 
Q 2544 4750 2975 4387 
Q 3406 4025 3406 3419 
Q 3406 3131 3298 2873 
Q 3191 2616 2906 2266 
Q 2828 2175 2409 1742 
Q 1991 1309 1228 531 
z
" transform="scale(0.015625)"/>
        <path id="DejaVuSans-38" d="M 2034 2216 
Q 1584 2216 1326 1975 
Q 1069 1734 1069 1313 
Q 1069 891 1326 650 
Q 1584 409 2034 409 
Q 2484 409 2743 651 
Q 3003 894 3003 1313 
Q 3003 1734 2745 1975 
Q 2488 2216 2034 2216 
z
M 1403 2484 
Q 997 2584 770 2862 
Q 544 3141 544 3541 
Q 544 4100 942 4425 
Q 1341 4750 2034 4750 
Q 2731 4750 3128 4425 
Q 3525 4100 3525 3541 
Q 3525 3141 3298 2862 
Q 3072 2584 2669 2484 
Q 3125 2378 3379 2068 
Q 3634 1759 3634 1313 
Q 3634 634 3220 271 
Q 2806 -91 2034 -91 
Q 1263 -91 848 271 
Q 434 634 434 1313 
Q 434 1759 690 2068 
Q 947 2378 1403 2484 
z
M 1172 3481 
Q 1172 3119 1398 2916 
Q 1625 2713 2034 2713 
Q 2441 2713 2670 2916 
Q 2900 3119 2900 3481 
Q 2900 3844 2670 4047 
Q 2441 4250 2034 4250 
Q 1625 4250 1398 4047 
Q 1172 3844 1172 3481 
z
" transform="scale(0.015625)"/>
        <path id="DejaVuSans-34" d="M 2419 4116 
L 825 1625 
L 2419 1625 
L 2419 4116 
z
M 2253 4666 
L 3047 4666 
L 3047 1625 
L 3713 1625 
L 3713 1100 
L 3047 1100 
L 3047 0 
L 2419 0 
L 2419 1100 
L 313 1100 
L 313 1709 
L 2253 4666 
z
" transform="scale(0.015625)"/>
        <path id="DejaVuSans-30" d="M 2034 4250 
Q 1547 4250 1301 3770 
Q 1056 3291 1056 2328 
Q 1056 1369 1301 889 
Q 1547 409 2034 409 
Q 2525 409 2770 889 
Q 3016 1369 3016 2328 
Q 3016 3291 2770 3770 
Q 2525 4250 2034 4250 
z
M 2034 4750 
Q 2819 4750 3233 4129 
Q 3647 3509 3647 2328 
Q 3647 1150 3233 529 
Q 2819 -91 2034 -91 
Q 1250 -91 836 529 
Q 422 1150 422 2328 
Q 422 3509 836 4129 
Q 1250 4750 2034 4750 
z
" transform="scale(0.015625)"/>
       </defs>
       <use xlink:href="#DejaVuSans-32"/>
       <use xlink:href="#DejaVuSans-38" x="63.623047"/>
       <use xlink:href="#DejaVuSans-34" x="127.246094"/>
       <use xlink:href="#DejaVuSans-30" x="190.869141"/>
      </g>
     </g>
    </g>
    <g id="xtick_2">
     <g id="line2d_2">
      <g>
       <use xlink:href="#m5457fa3200" x="128.004545" y="192.24" style="stroke: #000000; stroke-width: 0.8"/>
      </g>
     </g>
     <g id="text_2">
      <!-- 2860 -->
      <g transform="translate(107.644545 211.3975)scale(0.16 -0.16)">
       <defs>
        <path id="DejaVuSans-36" d="M 2113 2584 
Q 1688 2584 1439 2293 
Q 1191 2003 1191 1497 
Q 1191 994 1439 701 
Q 1688 409 2113 409 
Q 2538 409 2786 701 
Q 3034 994 3034 1497 
Q 3034 2003 2786 2293 
Q 2538 2584 2113 2584 
z
M 3366 4563 
L 3366 3988 
Q 3128 4100 2886 4159 
Q 2644 4219 2406 4219 
Q 1781 4219 1451 3797 
Q 1122 3375 1075 2522 
Q 1259 2794 1537 2939 
Q 1816 3084 2150 3084 
Q 2853 3084 3261 2657 
Q 3669 2231 3669 1497 
Q 3669 778 3244 343 
Q 2819 -91 2113 -91 
Q 1303 -91 875 529 
Q 447 1150 447 2328 
Q 447 3434 972 4092 
Q 1497 4750 2381 4750 
Q 2619 4750 2861 4703 
Q 3103 4656 3366 4563 
z
" transform="scale(0.015625)"/>
       </defs>
       <use xlink:href="#DejaVuSans-32"/>
       <use xlink:href="#DejaVuSans-38" x="63.623047"/>
       <use xlink:href="#DejaVuSans-36" x="127.246094"/>
       <use xlink:href="#DejaVuSans-30" x="190.869141"/>
      </g>
     </g>
    </g>
    <g id="xtick_3">
     <g id="line2d_3">
      <g>
       <use xlink:href="#m5457fa3200" x="204.095455" y="192.24" style="stroke: #000000; stroke-width: 0.8"/>
      </g>
     </g>
     <g id="text_3">
      <!-- 2880 -->
      <g transform="translate(183.735455 211.3975)scale(0.16 -0.16)">
       <use xlink:href="#DejaVuSans-32"/>
       <use xlink:href="#DejaVuSans-38" x="63.623047"/>
       <use xlink:href="#DejaVuSans-38" x="127.246094"/>
       <use xlink:href="#DejaVuSans-30" x="190.869141"/>
      </g>
     </g>
    </g>
    <g id="xtick_4">
     <g id="line2d_4">
      <g>
       <use xlink:href="#m5457fa3200" x="280.186364" y="192.24" style="stroke: #000000; stroke-width: 0.8"/>
      </g>
     </g>
     <g id="text_4">
      <!-- 2900 -->
      <g transform="translate(259.826364 211.3975)scale(0.16 -0.16)">
       <defs>
        <path id="DejaVuSans-39" d="M 703 97 
L 703 672 
Q 941 559 1184 500 
Q 1428 441 1663 441 
Q 2288 441 2617 861 
Q 2947 1281 2994 2138 
Q 2813 1869 2534 1725 
Q 2256 1581 1919 1581 
Q 1219 1581 811 2004 
Q 403 2428 403 3163 
Q 403 3881 828 4315 
Q 1253 4750 1959 4750 
Q 2769 4750 3195 4129 
Q 3622 3509 3622 2328 
Q 3622 1225 3098 567 
Q 2575 -91 1691 -91 
Q 1453 -91 1209 -44 
Q 966 3 703 97 
z
M 1959 2075 
Q 2384 2075 2632 2365 
Q 2881 2656 2881 3163 
Q 2881 3666 2632 3958 
Q 2384 4250 1959 4250 
Q 1534 4250 1286 3958 
Q 1038 3666 1038 3163 
Q 1038 2656 1286 2365 
Q 1534 2075 1959 2075 
z
" transform="scale(0.015625)"/>
       </defs>
       <use xlink:href="#DejaVuSans-32"/>
       <use xlink:href="#DejaVuSans-39" x="63.623047"/>
       <use xlink:href="#DejaVuSans-30" x="127.246094"/>
       <use xlink:href="#DejaVuSans-30" x="190.869141"/>
      </g>
     </g>
    </g>
   </g>
   <g id="matplotlib.axis_2">
    <g id="ytick_1">
     <g id="line2d_5">
      <defs>
       <path id="m709b61c946" d="M 0 0 
L -3.5 0 
" style="stroke: #000000; stroke-width: 0.8"/>
      </defs>
      <g>
       <use xlink:href="#m709b61c946" x="40.5" y="164.715939" style="stroke: #000000; stroke-width: 0.8"/>
      </g>
     </g>
     <g id="text_5">
      <!-- 0.98 -->
      <g transform="translate(-2.125 170.794689)scale(0.16 -0.16)">
       <defs>
        <path id="DejaVuSans-2e" d="M 684 794 
L 1344 794 
L 1344 0 
L 684 0 
L 684 794 
z
" transform="scale(0.015625)"/>
       </defs>
       <use xlink:href="#DejaVuSans-30"/>
       <use xlink:href="#DejaVuSans-2e" x="63.623047"/>
       <use xlink:href="#DejaVuSans-39" x="95.410156"/>
       <use xlink:href="#DejaVuSans-38" x="159.033203"/>
      </g>
     </g>
    </g>
    <g id="ytick_2">
     <g id="line2d_6">
      <g>
       <use xlink:href="#m709b61c946" x="40.5" y="99.097969" style="stroke: #000000; stroke-width: 0.8"/>
      </g>
     </g>
     <g id="text_6">
      <!-- 0.99 -->
      <g transform="translate(-2.125 105.176719)scale(0.16 -0.16)">
       <use xlink:href="#DejaVuSans-30"/>
       <use xlink:href="#DejaVuSans-2e" x="63.623047"/>
       <use xlink:href="#DejaVuSans-39" x="95.410156"/>
       <use xlink:href="#DejaVuSans-39" x="159.033203"/>
      </g>
     </g>
    </g>
    <g id="ytick_3">
     <g id="line2d_7">
      <g>
       <use xlink:href="#m709b61c946" x="40.5" y="33.48" style="stroke: #000000; stroke-width: 0.8"/>
      </g>
     </g>
     <g id="text_7">
      <!-- 1.00 -->
      <g transform="translate(-2.125 39.55875)scale(0.16 -0.16)">
       <defs>
        <path id="DejaVuSans-31" d="M 794 531 
L 1825 531 
L 1825 4091 
L 703 3866 
L 703 4441 
L 1819 4666 
L 2450 4666 
L 2450 531 
L 3481 531 
L 3481 0 
L 794 0 
L 794 531 
z
" transform="scale(0.015625)"/>
       </defs>
       <use xlink:href="#DejaVuSans-31"/>
       <use xlink:href="#DejaVuSans-2e" x="63.623047"/>
       <use xlink:href="#DejaVuSans-30" x="95.410156"/>
       <use xlink:href="#DejaVuSans-30" x="159.033203"/>
      </g>
     </g>
    </g>
   </g>
   <g id="line2d_8">
    <path d="M 51.913636 33.98741 
L 52.484318 34.252699 
L 53.625682 34.442399 
L 54.196364 34.299617 
L 54.767045 34.284268 
L 55.337727 34.548978 
L 55.908409 34.175661 
L 56.479091 34.605453 
L 57.049773 34.419809 
L 58.191136 34.585759 
L 58.761818 34.202016 
L 59.3325 34.484104 
L 60.473864 34.257623 
L 61.044545 34.217076 
L 62.185909 34.602847 
L 62.756591 34.106443 
L 63.327273 33.868667 
L 63.897955 34.182902 
L 64.468636 33.988568 
L 65.039318 34.407934 
L 65.61 34.31294 
L 66.180682 34.48671 
L 66.751364 34.314677 
L 67.322045 34.512486 
L 67.892727 34.166683 
L 68.463409 34.454563 
L 69.034091 34.492503 
L 69.604773 34.303382 
L 70.746136 34.399825 
L 71.316818 34.766481 
L 71.8875 34.404748 
L 72.458182 34.544344 
L 73.028864 34.936776 
L 73.599545 34.774011 
L 74.170227 34.769377 
L 74.740909 34.629492 
L 75.882273 34.592421 
L 76.452955 34.473098 
L 77.023636 34.548688 
L 77.594318 34.927218 
L 78.165 34.63818 
L 78.735682 34.700158 
L 79.306364 34.365071 
L 81.018409 35.389158 
L 81.589091 35.264333 
L 82.159773 34.946623 
L 82.730455 35.004257 
L 83.301136 35.460694 
L 83.871818 35.13777 
L 85.583864 35.807366 
L 86.154545 35.647207 
L 87.295909 35.732065 
L 87.866591 35.302852 
L 89.007955 35.487918 
L 89.578636 35.362803 
L 90.149318 35.937983 
L 90.72 35.538601 
L 91.290682 35.883246 
L 91.861364 35.809103 
L 92.432045 36.001409 
L 93.002727 35.755235 
L 93.573409 35.699338 
L 94.714773 36.173153 
L 95.285455 36.088005 
L 95.856136 35.808524 
L 96.426818 36.2053 
L 96.9975 36.188213 
L 98.709545 36.664054 
L 99.280227 37.190868 
L 99.850909 37.117885 
L 100.421591 37.388967 
L 100.992273 37.171464 
L 101.562955 37.577218 
L 102.133636 37.55289 
L 102.704318 37.706387 
L 103.275 37.739114 
L 103.845682 37.973415 
L 104.416364 38.016857 
L 104.987045 38.758857 
L 106.699091 38.883103 
L 107.269773 39.333458 
L 107.840455 39.276114 
L 108.411136 39.884021 
L 108.981818 39.590638 
L 109.5525 40.10442 
L 110.123182 40.272977 
L 111.264545 40.901157 
L 111.835227 41.407409 
L 112.976591 41.945807 
L 113.547273 42.127108 
L 114.688636 42.890829 
L 115.259318 43.237212 
L 115.83 43.771845 
L 116.400682 44.092162 
L 116.971364 45.063829 
L 117.542045 45.168381 
L 118.112727 45.645381 
L 118.683409 44.938425 
L 119.254091 46.567812 
L 119.824773 47.218293 
L 120.395455 48.069768 
L 120.966136 48.671304 
L 123.248864 52.310926 
L 124.390227 54.342013 
L 126.102273 57.370253 
L 127.814318 61.155264 
L 128.955682 64.236504 
L 131.809091 71.443344 
L 132.379773 73.110672 
L 132.950455 74.385857 
L 133.521136 76.221453 
L 134.091818 77.121004 
L 135.233182 81.134523 
L 136.374545 84.438189 
L 136.945227 86.53444 
L 137.515909 88.105904 
L 142.652045 110.73777 
L 144.364091 119.743424 
L 144.934773 123.461823 
L 145.505455 126.056795 
L 147.2175 136.262335 
L 148.358864 143.668432 
L 151.212273 159.584359 
L 152.924318 166.486522 
L 153.495 168.184838 
L 154.065682 169.272641 
L 154.636364 169.855062 
L 155.207045 169.796559 
L 155.777727 169.456259 
L 156.348409 168.440281 
L 157.489773 163.723282 
L 158.631136 156.761457 
L 159.7725 147.271852 
L 161.484545 130.874002 
L 163.196591 113.971059 
L 164.337955 105.08994 
L 164.908636 101.010679 
L 165.479318 98.188936 
L 166.05 96.173778 
L 166.620682 95.348368 
L 167.191364 94.961149 
L 167.762045 96.024625 
L 168.332727 97.885417 
L 168.903409 100.673274 
L 170.044773 109.222781 
L 171.186136 120.531763 
L 174.610227 158.178266 
L 176.322273 172.617433 
L 176.892955 176.443859 
L 178.034318 181.608607 
L 178.605 183.383962 
L 179.175682 184.147973 
L 179.746364 184.540404 
L 180.317045 184.68 
L 180.887727 183.493727 
L 181.458409 182.741301 
L 182.029091 180.967973 
L 183.170455 176.100662 
L 184.311818 170.891893 
L 189.447955 141.170771 
L 190.589318 133.951187 
L 193.442727 118.460709 
L 194.013409 116.068469 
L 195.154773 110.106404 
L 196.296136 105.133672 
L 197.4375 99.902313 
L 198.008182 98.240198 
L 198.578864 95.453789 
L 200.861591 87.615582 
L 204.285682 76.214502 
L 204.856364 74.679819 
L 205.997727 71.054098 
L 207.139091 67.873519 
L 208.280455 64.434023 
L 208.851136 62.73252 
L 209.9925 60.448597 
L 212.275227 55.154101 
L 212.845909 54.766013 
L 213.987273 52.200582 
L 215.128636 50.476779 
L 216.27 48.963238 
L 216.840682 47.932779 
L 217.411364 47.739604 
L 218.552727 45.957588 
L 219.123409 45.667102 
L 219.694091 45.096845 
L 220.264773 44.349053 
L 221.406136 43.406348 
L 222.5475 42.56443 
L 223.118182 40.931567 
L 223.688864 41.597108 
L 224.259545 41.657638 
L 224.830227 41.151097 
L 225.400909 40.794578 
L 225.971591 40.683944 
L 226.542273 40.178562 
L 227.112955 40.190726 
L 227.683636 39.43772 
L 228.254318 39.679261 
L 228.825 39.190097 
L 229.966364 38.641852 
L 230.537045 38.324431 
L 231.107727 38.35513 
L 231.678409 38.086655 
L 232.249091 38.024387 
L 232.819773 37.411557 
L 233.961136 37.574322 
L 234.531818 37.049245 
L 235.1025 37.106879 
L 235.673182 37.009278 
L 236.243864 36.688382 
L 236.814545 37.014491 
L 237.385227 36.519535 
L 238.526591 36.118125 
L 239.097273 36.008071 
L 239.667955 36.222098 
L 240.809318 36.912256 
L 241.38 36.80365 
L 241.950682 37.320617 
L 242.521364 37.365797 
L 243.092045 36.79554 
L 243.662727 36.476961 
L 244.804091 36.282628 
L 245.374773 36.208196 
L 245.945455 36.481016 
L 246.516136 36.208196 
L 247.086818 36.290737 
L 248.228182 35.575093 
L 248.798864 35.969552 
L 249.940227 35.961732 
L 250.510909 35.501819 
L 251.081591 35.802732 
L 251.652273 35.918579 
L 252.222955 35.665743 
L 252.793636 34.991513 
L 253.364318 35.031191 
L 256.217727 34.56288 
L 256.788409 34.868426 
L 257.359091 34.817164 
L 257.929773 34.579388 
L 258.500455 34.904049 
L 259.071136 34.411699 
L 259.641818 34.462093 
L 260.2125 34.633836 
L 260.783182 34.222579 
L 261.353864 34.657005 
L 261.924545 34.416044 
L 262.495227 34.340164 
L 263.065909 34.07806 
L 263.636591 34.256464 
L 264.207273 34.036355 
L 264.777955 34.370284 
L 265.348636 34.353197 
L 265.919318 33.897049 
L 266.49 33.687945 
L 267.060682 34.065606 
L 267.631364 33.48 
L 268.202045 33.970902 
L 269.914091 34.132508 
L 270.484773 33.933831 
L 271.055455 33.868956 
L 271.626136 33.654639 
L 272.7675 34.448481 
L 273.338182 33.946863 
L 275.050227 34.200858 
L 275.620909 33.786415 
L 276.191591 34.39635 
L 276.762273 34.091672 
L 277.332955 34.418071 
L 278.474318 34.402432 
L 279.045 34.013765 
L 279.615682 33.998415 
L 280.186364 34.109049 
L 280.186364 34.109049 
" clip-path="url(#p598d2c2e8a)" style="fill: none; stroke: #1f77b4; stroke-width: 1.5; stroke-linecap: square"/>
   </g>
   <g id="patch_3">
    <path d="M 40.5 192.24 
L 40.5 25.92 
" style="fill: none; stroke: #000000; stroke-width: 0.8; stroke-linejoin: miter; stroke-linecap: square"/>
   </g>
   <g id="patch_4">
    <path d="M 291.6 192.24 
L 291.6 25.92 
" style="fill: none; stroke: #000000; stroke-width: 0.8; stroke-linejoin: miter; stroke-linecap: square"/>
   </g>
   <g id="patch_5">
    <path d="M 40.5 192.24 
L 291.6 192.24 
" style="fill: none; stroke: #000000; stroke-width: 0.8; stroke-linejoin: miter; stroke-linecap: square"/>
   </g>
   <g id="patch_6">
    <path d="M 40.5 25.92 
L 291.6 25.92 
" style="fill: none; stroke: #000000; stroke-width: 0.8; stroke-linejoin: miter; stroke-linecap: square"/>
   </g>
  </g>
 </g>
 <defs>
  <clipPath id="p598d2c2e8a">
   <rect x="40.5" y="25.92" width="251.1" height="166.32"/>
  </clipPath>
 </defs>
</svg>
