<?xml version="1.0" encoding="utf-8" standalone="no"?>
<!DOCTYPE svg PUBLIC "-//W3C//DTD SVG 1.1//EN"
  "http://www.w3.org/Graphics/SVG/1.1/DTD/svg11.dtd">
<svg xmlns:xlink="http://www.w3.org/1999/xlink" width="324pt" height="216pt" viewBox="0 0 324 216" xmlns="http://www.w3.org/2000/svg" version="1.1">
 <metadata>
  <rdf:RDF xmlns:dc="http://purl.org/dc/elements/1.1/" xmlns:cc="http://creativecommons.org/ns#" xmlns:rdf="http://www.w3.org/1999/02/22-rdf-syntax-ns#">
   <cc:Work>
    <dc:type rdf:resource="http://purl.org/dc/dcmitype/StillImage"/>
    <dc:date>2022-09-14T19:19:03.987767</dc:date>
    <dc:format>image/svg+xml</dc:format>
    <dc:creator>
     <cc:Agent>
      <dc:title>Matplotlib v3.5.1, https://matplotlib.org/</dc:title>
     </cc:Agent>
    </dc:creator>
   </cc:Work>
  </rdf:RDF>
 </metadata>
 <defs>
  <style type="text/css">*{stroke-linejoin: round; stroke-linecap: butt}</style>
 </defs>
 <g id="figure_1">
  <g id="patch_1">
   <path d="M 0 216 
L 324 216 
L 324 0 
L 0 0 
z
" style="fill: #ffffff"/>
  </g>
  <g id="axes_1">
   <g id="patch_2">
    <path d="M 40.5 192.24 
L 291.6 192.24 
L 291.6 25.92 
L 40.5 25.92 
z
" style="fill: #ffffff"/>
   </g>
   <g id="matplotlib.axis_1">
    <g id="xtick_1">
     <g id="line2d_1">
      <defs>
       <path id="mfa50601e3b" d="M 0 0 
L 0 3.5 
" style="stroke: #000000; stroke-width: 0.8"/>
      </defs>
      <g>
       <use xlink:href="#mfa50601e3b" x="50.766537" y="192.24" style="stroke: #000000; stroke-width: 0.8"/>
      </g>
     </g>
     <g id="text_1">
      <!-- 0.0 -->
      <g transform="translate(38.044037 211.3975)scale(0.16 -0.16)">
       <defs>
        <path id="DejaVuSans-30" d="M 2034 4250 
Q 1547 4250 1301 3770 
Q 1056 3291 1056 2328 
Q 1056 1369 1301 889 
Q 1547 409 2034 409 
Q 2525 409 2770 889 
Q 3016 1369 3016 2328 
Q 3016 3291 2770 3770 
Q 2525 4250 2034 4250 
z
M 2034 4750 
Q 2819 4750 3233 4129 
Q 3647 3509 3647 2328 
Q 3647 1150 3233 529 
Q 2819 -91 2034 -91 
Q 1250 -91 836 529 
Q 422 1150 422 2328 
Q 422 3509 836 4129 
Q 1250 4750 2034 4750 
z
" transform="scale(0.015625)"/>
        <path id="DejaVuSans-2e" d="M 684 794 
L 1344 794 
L 1344 0 
L 684 0 
L 684 794 
z
" transform="scale(0.015625)"/>
       </defs>
       <use xlink:href="#DejaVuSans-30"/>
       <use xlink:href="#DejaVuSans-2e" x="63.623047"/>
       <use xlink:href="#DejaVuSans-30" x="95.410156"/>
      </g>
     </g>
    </g>
    <g id="xtick_2">
     <g id="line2d_2">
      <g>
       <use xlink:href="#mfa50601e3b" x="108.121494" y="192.24" style="stroke: #000000; stroke-width: 0.8"/>
      </g>
     </g>
     <g id="text_2">
      <!-- 2.5 -->
      <g transform="translate(95.398994 211.3975)scale(0.16 -0.16)">
       <defs>
        <path id="DejaVuSans-32" d="M 1228 531 
L 3431 531 
L 3431 0 
L 469 0 
L 469 531 
Q 828 903 1448 1529 
Q 2069 2156 2228 2338 
Q 2531 2678 2651 2914 
Q 2772 3150 2772 3378 
Q 2772 3750 2511 3984 
Q 2250 4219 1831 4219 
Q 1534 4219 1204 4116 
Q 875 4013 500 3803 
L 500 4441 
Q 881 4594 1212 4672 
Q 1544 4750 1819 4750 
Q 2544 4750 2975 4387 
Q 3406 4025 3406 3419 
Q 3406 3131 3298 2873 
Q 3191 2616 2906 2266 
Q 2828 2175 2409 1742 
Q 1991 1309 1228 531 
z
" transform="scale(0.015625)"/>
        <path id="DejaVuSans-35" d="M 691 4666 
L 3169 4666 
L 3169 4134 
L 1269 4134 
L 1269 2991 
Q 1406 3038 1543 3061 
Q 1681 3084 1819 3084 
Q 2600 3084 3056 2656 
Q 3513 2228 3513 1497 
Q 3513 744 3044 326 
Q 2575 -91 1722 -91 
Q 1428 -91 1123 -41 
Q 819 9 494 109 
L 494 744 
Q 775 591 1075 516 
Q 1375 441 1709 441 
Q 2250 441 2565 725 
Q 2881 1009 2881 1497 
Q 2881 1984 2565 2268 
Q 2250 2553 1709 2553 
Q 1456 2553 1204 2497 
Q 953 2441 691 2322 
L 691 4666 
z
" transform="scale(0.015625)"/>
       </defs>
       <use xlink:href="#DejaVuSans-32"/>
       <use xlink:href="#DejaVuSans-2e" x="63.623047"/>
       <use xlink:href="#DejaVuSans-35" x="95.410156"/>
      </g>
     </g>
    </g>
    <g id="xtick_3">
     <g id="line2d_3">
      <g>
       <use xlink:href="#mfa50601e3b" x="165.47645" y="192.24" style="stroke: #000000; stroke-width: 0.8"/>
      </g>
     </g>
     <g id="text_3">
      <!-- 5.0 -->
      <g transform="translate(152.75395 211.3975)scale(0.16 -0.16)">
       <use xlink:href="#DejaVuSans-35"/>
       <use xlink:href="#DejaVuSans-2e" x="63.623047"/>
       <use xlink:href="#DejaVuSans-30" x="95.410156"/>
      </g>
     </g>
    </g>
    <g id="xtick_4">
     <g id="line2d_4">
      <g>
       <use xlink:href="#mfa50601e3b" x="222.831407" y="192.24" style="stroke: #000000; stroke-width: 0.8"/>
      </g>
     </g>
     <g id="text_4">
      <!-- 7.5 -->
      <g transform="translate(210.108907 211.3975)scale(0.16 -0.16)">
       <defs>
        <path id="DejaVuSans-37" d="M 525 4666 
L 3525 4666 
L 3525 4397 
L 1831 0 
L 1172 0 
L 2766 4134 
L 525 4134 
L 525 4666 
z
" transform="scale(0.015625)"/>
       </defs>
       <use xlink:href="#DejaVuSans-37"/>
       <use xlink:href="#DejaVuSans-2e" x="63.623047"/>
       <use xlink:href="#DejaVuSans-35" x="95.410156"/>
      </g>
     </g>
    </g>
    <g id="xtick_5">
     <g id="line2d_5">
      <g>
       <use xlink:href="#mfa50601e3b" x="280.186364" y="192.24" style="stroke: #000000; stroke-width: 0.8"/>
      </g>
     </g>
     <g id="text_5">
      <!-- 10.0 -->
      <g transform="translate(262.373864 211.3975)scale(0.16 -0.16)">
       <defs>
        <path id="DejaVuSans-31" d="M 794 531 
L 1825 531 
L 1825 4091 
L 703 3866 
L 703 4441 
L 1819 4666 
L 2450 4666 
L 2450 531 
L 3481 531 
L 3481 0 
L 794 0 
L 794 531 
z
" transform="scale(0.015625)"/>
       </defs>
       <use xlink:href="#DejaVuSans-31"/>
       <use xlink:href="#DejaVuSans-30" x="63.623047"/>
       <use xlink:href="#DejaVuSans-2e" x="127.246094"/>
       <use xlink:href="#DejaVuSans-30" x="159.033203"/>
      </g>
     </g>
    </g>
   </g>
   <g id="matplotlib.axis_2">
    <g id="ytick_1">
     <g id="line2d_6">
      <defs>
       <path id="m63a6c6fefb" d="M 0 0 
L -3.5 0 
" style="stroke: #000000; stroke-width: 0.8"/>
      </defs>
      <g>
       <use xlink:href="#m63a6c6fefb" x="40.5" y="178.525271" style="stroke: #000000; stroke-width: 0.8"/>
      </g>
     </g>
     <g id="text_6">
      <!-- 3.54 -->
      <g transform="translate(-2.125 184.604021)scale(0.16 -0.16)">
       <defs>
        <path id="DejaVuSans-33" d="M 2597 2516 
Q 3050 2419 3304 2112 
Q 3559 1806 3559 1356 
Q 3559 666 3084 287 
Q 2609 -91 1734 -91 
Q 1441 -91 1130 -33 
Q 819 25 488 141 
L 488 750 
Q 750 597 1062 519 
Q 1375 441 1716 441 
Q 2309 441 2620 675 
Q 2931 909 2931 1356 
Q 2931 1769 2642 2001 
Q 2353 2234 1838 2234 
L 1294 2234 
L 1294 2753 
L 1863 2753 
Q 2328 2753 2575 2939 
Q 2822 3125 2822 3475 
Q 2822 3834 2567 4026 
Q 2313 4219 1838 4219 
Q 1578 4219 1281 4162 
Q 984 4106 628 3988 
L 628 4550 
Q 988 4650 1302 4700 
Q 1616 4750 1894 4750 
Q 2613 4750 3031 4423 
Q 3450 4097 3450 3541 
Q 3450 3153 3228 2886 
Q 3006 2619 2597 2516 
z
" transform="scale(0.015625)"/>
        <path id="DejaVuSans-34" d="M 2419 4116 
L 825 1625 
L 2419 1625 
L 2419 4116 
z
M 2253 4666 
L 3047 4666 
L 3047 1625 
L 3713 1625 
L 3713 1100 
L 3047 1100 
L 3047 0 
L 2419 0 
L 2419 1100 
L 313 1100 
L 313 1709 
L 2253 4666 
z
" transform="scale(0.015625)"/>
       </defs>
       <use xlink:href="#DejaVuSans-33"/>
       <use xlink:href="#DejaVuSans-2e" x="63.623047"/>
       <use xlink:href="#DejaVuSans-35" x="95.410156"/>
       <use xlink:href="#DejaVuSans-34" x="159.033203"/>
      </g>
     </g>
    </g>
    <g id="ytick_2">
     <g id="line2d_7">
      <g>
       <use xlink:href="#m63a6c6fefb" x="40.5" y="122.182892" style="stroke: #000000; stroke-width: 0.8"/>
      </g>
     </g>
     <g id="text_7">
      <!-- 3.56 -->
      <g transform="translate(-2.125 128.261642)scale(0.16 -0.16)">
       <defs>
        <path id="DejaVuSans-36" d="M 2113 2584 
Q 1688 2584 1439 2293 
Q 1191 2003 1191 1497 
Q 1191 994 1439 701 
Q 1688 409 2113 409 
Q 2538 409 2786 701 
Q 3034 994 3034 1497 
Q 3034 2003 2786 2293 
Q 2538 2584 2113 2584 
z
M 3366 4563 
L 3366 3988 
Q 3128 4100 2886 4159 
Q 2644 4219 2406 4219 
Q 1781 4219 1451 3797 
Q 1122 3375 1075 2522 
Q 1259 2794 1537 2939 
Q 1816 3084 2150 3084 
Q 2853 3084 3261 2657 
Q 3669 2231 3669 1497 
Q 3669 778 3244 343 
Q 2819 -91 2113 -91 
Q 1303 -91 875 529 
Q 447 1150 447 2328 
Q 447 3434 972 4092 
Q 1497 4750 2381 4750 
Q 2619 4750 2861 4703 
Q 3103 4656 3366 4563 
z
" transform="scale(0.015625)"/>
       </defs>
       <use xlink:href="#DejaVuSans-33"/>
       <use xlink:href="#DejaVuSans-2e" x="63.623047"/>
       <use xlink:href="#DejaVuSans-35" x="95.410156"/>
       <use xlink:href="#DejaVuSans-36" x="159.033203"/>
      </g>
     </g>
    </g>
    <g id="ytick_3">
     <g id="line2d_8">
      <g>
       <use xlink:href="#m63a6c6fefb" x="40.5" y="65.840514" style="stroke: #000000; stroke-width: 0.8"/>
      </g>
     </g>
     <g id="text_8">
      <!-- 3.58 -->
      <g transform="translate(-2.125 71.919264)scale(0.16 -0.16)">
       <defs>
        <path id="DejaVuSans-38" d="M 2034 2216 
Q 1584 2216 1326 1975 
Q 1069 1734 1069 1313 
Q 1069 891 1326 650 
Q 1584 409 2034 409 
Q 2484 409 2743 651 
Q 3003 894 3003 1313 
Q 3003 1734 2745 1975 
Q 2488 2216 2034 2216 
z
M 1403 2484 
Q 997 2584 770 2862 
Q 544 3141 544 3541 
Q 544 4100 942 4425 
Q 1341 4750 2034 4750 
Q 2731 4750 3128 4425 
Q 3525 4100 3525 3541 
Q 3525 3141 3298 2862 
Q 3072 2584 2669 2484 
Q 3125 2378 3379 2068 
Q 3634 1759 3634 1313 
Q 3634 634 3220 271 
Q 2806 -91 2034 -91 
Q 1263 -91 848 271 
Q 434 634 434 1313 
Q 434 1759 690 2068 
Q 947 2378 1403 2484 
z
M 1172 3481 
Q 1172 3119 1398 2916 
Q 1625 2713 2034 2713 
Q 2441 2713 2670 2916 
Q 2900 3119 2900 3481 
Q 2900 3844 2670 4047 
Q 2441 4250 2034 4250 
Q 1625 4250 1398 4047 
Q 1172 3844 1172 3481 
z
" transform="scale(0.015625)"/>
       </defs>
       <use xlink:href="#DejaVuSans-33"/>
       <use xlink:href="#DejaVuSans-2e" x="63.623047"/>
       <use xlink:href="#DejaVuSans-35" x="95.410156"/>
       <use xlink:href="#DejaVuSans-38" x="159.033203"/>
      </g>
     </g>
    </g>
   </g>
   <g id="line2d_9">
    <path d="M 51.913636 33.48 
L 53.060735 36.549998 
L 54.207835 37.55341 
L 55.354934 37.995794 
L 56.502033 38.699946 
L 57.649132 39.87515 
L 58.796231 40.050031 
L 61.090429 41.180468 
L 62.237529 41.873814 
L 63.384628 42.217621 
L 64.531727 43.146052 
L 65.678826 43.156858 
L 67.973024 44.180118 
L 69.120123 44.418511 
L 70.267222 45.101492 
L 71.414322 45.404721 
L 72.561421 45.9201 
L 74.855619 46.64013 
L 76.002718 46.643438 
L 77.149817 46.854486 
L 78.296916 47.541878 
L 79.444016 47.518501 
L 80.591115 47.321127 
L 81.738214 47.790415 
L 82.885313 47.714112 
L 84.032412 47.90884 
L 85.179511 48.622695 
L 86.32661 49.000463 
L 87.473709 48.800002 
L 88.620809 49.569431 
L 89.767908 49.591484 
L 92.062106 50.158467 
L 93.209205 50.148763 
L 95.503403 50.776171 
L 96.650503 51.168274 
L 97.797602 50.982587 
L 98.944701 50.990085 
L 101.238899 51.667995 
L 103.533097 51.981147 
L 104.680196 52.403903 
L 105.827296 53.065714 
L 106.974395 53.3427 
L 109.268593 52.848713 
L 110.415692 53.562568 
L 111.562791 54.02943 
L 113.856989 54.092502 
L 115.004089 54.630816 
L 116.151188 54.997336 
L 117.298287 55.141783 
L 118.445386 55.824765 
L 119.592485 55.963037 
L 120.739584 56.553176 
L 121.886683 56.454158 
L 123.033783 56.80877 
L 124.180882 56.966228 
L 125.327981 57.389425 
L 126.47508 57.965229 
L 127.622179 57.871945 
L 128.769278 58.44841 
L 131.063476 58.938649 
L 132.210576 59.544004 
L 134.504774 60.247494 
L 135.651873 60.910187 
L 136.798972 60.464716 
L 137.946071 61.444972 
L 141.387369 62.6881 
L 144.828666 64.279444 
L 145.975765 63.817875 
L 147.122864 65.12231 
L 148.269963 65.560944 
L 149.417063 65.780151 
L 151.711261 66.934184 
L 152.85836 66.949401 
L 154.005459 67.730297 
L 157.446757 68.977174 
L 158.593856 69.214685 
L 159.740955 70.524412 
L 160.888054 70.655187 
L 162.035153 71.027882 
L 165.47645 72.860266 
L 166.62355 74.017387 
L 167.770649 74.019151 
L 168.917748 75.215306 
L 170.064847 75.015726 
L 171.211946 75.667172 
L 173.506144 77.624596 
L 174.653243 77.991117 
L 175.800343 78.972255 
L 176.947442 78.968726 
L 178.094541 79.357962 
L 179.24164 80.181862 
L 180.388739 81.32553 
L 181.535838 82.309094 
L 182.682937 82.599752 
L 183.830037 84.057676 
L 184.977136 84.699639 
L 186.124235 84.854672 
L 189.565532 87.574027 
L 190.712631 88.130645 
L 191.85973 89.43133 
L 193.00683 90.036685 
L 194.153929 90.836327 
L 195.301028 92.101728 
L 198.742325 94.797266 
L 199.889424 96.094865 
L 201.036524 96.491598 
L 202.183623 97.635046 
L 205.62492 99.999348 
L 206.772019 101.376558 
L 207.919118 102.422532 
L 209.066217 102.853888 
L 210.213317 104.526388 
L 211.360416 105.510613 
L 212.507515 105.980122 
L 213.654614 107.179805 
L 214.801713 108.735864 
L 215.948812 109.411348 
L 218.243011 111.448163 
L 219.39011 112.979964 
L 220.537209 113.477039 
L 221.684308 114.82999 
L 223.978506 116.543729 
L 225.125605 118.307087 
L 227.419804 120.343902 
L 228.566903 121.785286 
L 229.714002 122.454815 
L 230.861101 124.252575 
L 232.0082 125.5945 
L 233.155299 126.513669 
L 234.302398 127.78723 
L 236.596597 129.889542 
L 237.743696 131.29079 
L 238.890795 132.364992 
L 241.184993 135.244011 
L 242.332092 136.243012 
L 244.626291 138.945386 
L 245.77339 139.759142 
L 249.214687 144.002801 
L 250.361786 145.109199 
L 251.508885 146.608362 
L 252.655984 147.480779 
L 254.950183 150.234317 
L 256.097282 151.881235 
L 257.244381 153.316003 
L 258.39148 154.294494 
L 259.538579 156.45238 
L 260.685678 157.19689 
L 261.832778 158.443546 
L 262.979877 160.249025 
L 264.126976 161.308451 
L 265.274075 162.901119 
L 266.421174 164.823258 
L 267.568273 165.929216 
L 269.862471 169.337066 
L 271.009571 170.060846 
L 272.15667 172.065243 
L 273.303769 173.367914 
L 274.450868 175.323353 
L 275.597967 176.467022 
L 277.892165 180.048429 
L 279.039265 181.451661 
L 280.186364 182.605474 
L 280.186364 182.605474 
" clip-path="url(#p9b6bc66d8b)" style="fill: none; stroke: #1f77b4; stroke-width: 1.5; stroke-linecap: square"/>
   </g>
   <g id="line2d_10">
    <path d="M 51.913636 54.361765 
L 53.060735 57.239241 
L 54.207835 57.080239 
L 55.354934 57.539382 
L 56.502033 57.42603 
L 57.649132 58.294477 
L 58.796231 58.7201 
L 59.94333 58.615128 
L 64.531727 59.96786 
L 65.678826 59.951982 
L 66.825925 60.107455 
L 69.120123 61.080213 
L 71.414322 60.931797 
L 72.561421 61.377047 
L 73.70852 60.890999 
L 74.855619 61.237893 
L 77.149817 61.732542 
L 78.296916 61.187833 
L 80.591115 61.835309 
L 81.738214 61.113073 
L 82.885313 61.310007 
L 84.032412 61.648741 
L 85.179511 62.368992 
L 86.32661 61.771356 
L 87.473709 61.759006 
L 89.767908 62.566146 
L 98.944701 62.565485 
L 101.238899 63.022202 
L 102.385998 63.519718 
L 103.533097 62.484771 
L 104.680196 63.122764 
L 105.827296 63.475612 
L 106.974395 63.409233 
L 108.121494 62.895839 
L 109.268593 63.721283 
L 110.415692 63.909395 
L 111.562791 63.304922 
L 112.70989 63.875433 
L 113.856989 63.610577 
L 115.004089 63.901676 
L 117.298287 64.812024 
L 118.445386 64.423009 
L 119.592485 64.874434 
L 120.739584 64.940373 
L 121.886683 65.50118 
L 123.033783 66.257378 
L 124.180882 66.354411 
L 125.327981 66.075882 
L 126.47508 65.958119 
L 127.622179 66.96572 
L 128.769278 66.825463 
L 129.916377 66.908603 
L 132.210576 67.457502 
L 133.357675 68.270376 
L 135.651873 68.436435 
L 136.798972 68.384831 
L 137.946071 69.057006 
L 139.09317 69.027676 
L 140.24027 69.525191 
L 141.387369 70.251397 
L 142.534468 70.23221 
L 144.828666 71.172991 
L 145.975765 71.246428 
L 147.122864 71.532896 
L 148.269963 72.423176 
L 149.417063 72.838213 
L 151.711261 72.923117 
L 152.85836 74.075387 
L 154.005459 74.075607 
L 155.152558 74.386113 
L 156.299657 74.574225 
L 157.446757 75.178037 
L 158.593856 75.576534 
L 159.740955 76.48203 
L 160.888054 76.996306 
L 162.035153 77.344082 
L 163.182252 77.976342 
L 164.329351 77.955832 
L 165.47645 78.952628 
L 166.62355 79.00776 
L 167.770649 79.850846 
L 168.917748 80.298743 
L 170.064847 81.231805 
L 171.211946 81.223205 
L 172.359045 82.163545 
L 173.506144 82.663707 
L 174.653243 82.90629 
L 176.947442 84.712871 
L 178.094541 84.715959 
L 179.24164 85.491342 
L 180.388739 86.031861 
L 181.535838 87.294616 
L 182.682937 88.19526 
L 183.830037 88.056106 
L 184.977136 89.278504 
L 186.124235 89.922672 
L 187.271334 91.000622 
L 188.418433 91.322375 
L 189.565532 91.821876 
L 190.712631 93.130721 
L 191.85973 93.580823 
L 193.00683 94.615109 
L 194.153929 95.413207 
L 195.301028 95.969604 
L 197.595226 98.240181 
L 198.742325 98.886113 
L 199.889424 99.993835 
L 201.036524 100.654543 
L 202.183623 101.900758 
L 203.330722 102.695107 
L 204.477821 103.913756 
L 205.62492 104.362755 
L 206.772019 105.521419 
L 209.066217 106.617233 
L 211.360416 109.367463 
L 212.507515 109.949441 
L 214.801713 112.013381 
L 217.095911 113.891194 
L 218.243011 115.068824 
L 219.39011 116.030335 
L 220.537209 117.162095 
L 221.684308 117.802955 
L 222.831407 119.497728 
L 223.978506 120.121387 
L 225.125605 121.15038 
L 227.419804 123.665525 
L 229.714002 125.707191 
L 230.861101 127.027504 
L 232.0082 128.017022 
L 233.155299 129.553014 
L 234.302398 130.224307 
L 236.596597 132.524876 
L 237.743696 133.980374 
L 238.890795 135.736013 
L 240.037894 136.648125 
L 241.184993 137.775254 
L 242.332092 139.208038 
L 243.479191 139.978349 
L 244.626291 141.220153 
L 245.77339 142.792973 
L 246.920489 143.963105 
L 248.067588 144.878525 
L 250.361786 147.954257 
L 251.508885 148.846742 
L 252.655984 150.338407 
L 253.803084 151.384601 
L 254.950183 153.401789 
L 256.097282 154.262738 
L 257.244381 155.808212 
L 258.39148 156.697389 
L 259.538579 158.156195 
L 260.685678 159.807965 
L 262.979877 162.282091 
L 267.568273 168.317336 
L 268.715372 170.076503 
L 269.862471 170.652969 
L 271.009571 172.113098 
L 272.15667 174.499012 
L 273.303769 175.812489 
L 274.450868 176.782821 
L 277.892165 182.05878 
L 279.039265 183.503252 
L 280.186364 184.68 
L 280.186364 184.68 
" clip-path="url(#p9b6bc66d8b)" style="fill: none; stroke: #ff7f0e; stroke-width: 1.5; stroke-linecap: square"/>
   </g>
   <g id="patch_3">
    <path d="M 40.5 192.24 
L 40.5 25.92 
" style="fill: none; stroke: #000000; stroke-width: 0.8; stroke-linejoin: miter; stroke-linecap: square"/>
   </g>
   <g id="patch_4">
    <path d="M 291.6 192.24 
L 291.6 25.92 
" style="fill: none; stroke: #000000; stroke-width: 0.8; stroke-linejoin: miter; stroke-linecap: square"/>
   </g>
   <g id="patch_5">
    <path d="M 40.5 192.24 
L 291.6 192.24 
" style="fill: none; stroke: #000000; stroke-width: 0.8; stroke-linejoin: miter; stroke-linecap: square"/>
   </g>
   <g id="patch_6">
    <path d="M 40.5 25.92 
L 291.6 25.92 
" style="fill: none; stroke: #000000; stroke-width: 0.8; stroke-linejoin: miter; stroke-linecap: square"/>
   </g>
   <g id="legend_1">
    <g id="patch_7">
     <path d="M 241.5 63.27625 
L 284.6 63.27625 
Q 286.6 63.27625 286.6 61.27625 
L 286.6 32.92 
Q 286.6 30.92 284.6 30.92 
L 241.5 30.92 
Q 239.5 30.92 239.5 32.92 
L 239.5 61.27625 
Q 239.5 63.27625 241.5 63.27625 
z
" style="fill: #ffffff; opacity: 0.8; stroke: #cccccc; stroke-linejoin: miter"/>
    </g>
    <g id="line2d_11">
     <path d="M 243.5 39.018437 
L 253.5 39.018437 
L 263.5 39.018437 
" style="fill: none; stroke: #1f77b4; stroke-width: 1.5; stroke-linecap: square"/>
    </g>
    <g id="text_9">
     <!-- $S_1$ -->
     <g transform="translate(271.5 42.518437)scale(0.1 -0.1)">
      <defs>
       <path id="DejaVuSans-Oblique-53" d="M 3859 4513 
L 3738 3897 
Q 3422 4066 3111 4152 
Q 2800 4238 2509 4238 
Q 1944 4238 1609 3991 
Q 1275 3744 1275 3334 
Q 1275 3109 1398 2989 
Q 1522 2869 2034 2731 
L 2413 2638 
Q 3053 2472 3303 2217 
Q 3553 1963 3553 1503 
Q 3553 797 2998 353 
Q 2444 -91 1538 -91 
Q 1166 -91 791 -17 
Q 416 56 38 206 
L 166 856 
Q 513 641 861 531 
Q 1209 422 1556 422 
Q 2147 422 2503 684 
Q 2859 947 2859 1369 
Q 2859 1650 2717 1795 
Q 2575 1941 2106 2059 
L 1728 2156 
Q 1081 2325 845 2545 
Q 609 2766 609 3163 
Q 609 3859 1145 4304 
Q 1681 4750 2541 4750 
Q 2875 4750 3203 4690 
Q 3531 4631 3859 4513 
z
" transform="scale(0.015625)"/>
      </defs>
      <use xlink:href="#DejaVuSans-Oblique-53" transform="translate(0 0.78125)"/>
      <use xlink:href="#DejaVuSans-31" transform="translate(63.476562 -15.625)scale(0.7)"/>
     </g>
    </g>
    <g id="line2d_12">
     <path d="M 243.5 53.696562 
L 253.5 53.696562 
L 263.5 53.696562 
" style="fill: none; stroke: #ff7f0e; stroke-width: 1.5; stroke-linecap: square"/>
    </g>
    <g id="text_10">
     <!-- $S_2$ -->
     <g transform="translate(271.5 57.196562)scale(0.1 -0.1)">
      <use xlink:href="#DejaVuSans-Oblique-53" transform="translate(0 0.78125)"/>
      <use xlink:href="#DejaVuSans-32" transform="translate(63.476562 -15.625)scale(0.7)"/>
     </g>
    </g>
   </g>
  </g>
 </g>
 <defs>
  <clipPath id="p9b6bc66d8b">
   <rect x="40.5" y="25.92" width="251.1" height="166.32"/>
  </clipPath>
 </defs>
</svg>
