<?xml version="1.0" encoding="utf-8" standalone="no"?>
<!DOCTYPE svg PUBLIC "-//W3C//DTD SVG 1.1//EN"
  "http://www.w3.org/Graphics/SVG/1.1/DTD/svg11.dtd">
<svg xmlns:xlink="http://www.w3.org/1999/xlink" width="288pt" height="216pt" viewBox="0 0 288 216" xmlns="http://www.w3.org/2000/svg" version="1.1">
 <metadata>
  <rdf:RDF xmlns:dc="http://purl.org/dc/elements/1.1/" xmlns:cc="http://creativecommons.org/ns#" xmlns:rdf="http://www.w3.org/1999/02/22-rdf-syntax-ns#">
   <cc:Work>
    <dc:type rdf:resource="http://purl.org/dc/dcmitype/StillImage"/>
    <dc:date>2022-05-31T17:21:35.584758</dc:date>
    <dc:format>image/svg+xml</dc:format>
    <dc:creator>
     <cc:Agent>
      <dc:title>Matplotlib v3.5.1, https://matplotlib.org/</dc:title>
     </cc:Agent>
    </dc:creator>
   </cc:Work>
  </rdf:RDF>
 </metadata>
 <defs>
  <style type="text/css">*{stroke-linejoin: round; stroke-linecap: butt}</style>
 </defs>
 <g id="figure_1">
  <g id="patch_1">
   <path d="M 0 216 
L 288 216 
L 288 0 
L 0 0 
z
" style="fill: #ffffff"/>
  </g>
  <g id="axes_1">
   <g id="patch_2">
    <path d="M 36 192.24 
L 259.2 192.24 
L 259.2 25.92 
L 36 25.92 
z
" style="fill: #ffffff"/>
   </g>
   <g id="matplotlib.axis_1">
    <g id="xtick_1">
     <g id="line2d_1">
      <defs>
       <path id="m988ca4cf83" d="M 0 0 
L 0 3.5 
" style="stroke: #000000; stroke-width: 0.8"/>
      </defs>
      <g>
       <use xlink:href="#m988ca4cf83" x="46.145455" y="192.24" style="stroke: #000000; stroke-width: 0.8"/>
      </g>
     </g>
     <g id="text_1">
      <!-- 2600 -->
      <g transform="translate(29.602955 209.117969)scale(0.13 -0.13)">
       <defs>
        <path id="DejaVuSans-32" d="M 1228 531 
L 3431 531 
L 3431 0 
L 469 0 
L 469 531 
Q 828 903 1448 1529 
Q 2069 2156 2228 2338 
Q 2531 2678 2651 2914 
Q 2772 3150 2772 3378 
Q 2772 3750 2511 3984 
Q 2250 4219 1831 4219 
Q 1534 4219 1204 4116 
Q 875 4013 500 3803 
L 500 4441 
Q 881 4594 1212 4672 
Q 1544 4750 1819 4750 
Q 2544 4750 2975 4387 
Q 3406 4025 3406 3419 
Q 3406 3131 3298 2873 
Q 3191 2616 2906 2266 
Q 2828 2175 2409 1742 
Q 1991 1309 1228 531 
z
" transform="scale(0.015625)"/>
        <path id="DejaVuSans-36" d="M 2113 2584 
Q 1688 2584 1439 2293 
Q 1191 2003 1191 1497 
Q 1191 994 1439 701 
Q 1688 409 2113 409 
Q 2538 409 2786 701 
Q 3034 994 3034 1497 
Q 3034 2003 2786 2293 
Q 2538 2584 2113 2584 
z
M 3366 4563 
L 3366 3988 
Q 3128 4100 2886 4159 
Q 2644 4219 2406 4219 
Q 1781 4219 1451 3797 
Q 1122 3375 1075 2522 
Q 1259 2794 1537 2939 
Q 1816 3084 2150 3084 
Q 2853 3084 3261 2657 
Q 3669 2231 3669 1497 
Q 3669 778 3244 343 
Q 2819 -91 2113 -91 
Q 1303 -91 875 529 
Q 447 1150 447 2328 
Q 447 3434 972 4092 
Q 1497 4750 2381 4750 
Q 2619 4750 2861 4703 
Q 3103 4656 3366 4563 
z
" transform="scale(0.015625)"/>
        <path id="DejaVuSans-30" d="M 2034 4250 
Q 1547 4250 1301 3770 
Q 1056 3291 1056 2328 
Q 1056 1369 1301 889 
Q 1547 409 2034 409 
Q 2525 409 2770 889 
Q 3016 1369 3016 2328 
Q 3016 3291 2770 3770 
Q 2525 4250 2034 4250 
z
M 2034 4750 
Q 2819 4750 3233 4129 
Q 3647 3509 3647 2328 
Q 3647 1150 3233 529 
Q 2819 -91 2034 -91 
Q 1250 -91 836 529 
Q 422 1150 422 2328 
Q 422 3509 836 4129 
Q 1250 4750 2034 4750 
z
" transform="scale(0.015625)"/>
       </defs>
       <use xlink:href="#DejaVuSans-32"/>
       <use xlink:href="#DejaVuSans-36" x="63.623047"/>
       <use xlink:href="#DejaVuSans-30" x="127.246094"/>
       <use xlink:href="#DejaVuSans-30" x="190.869141"/>
      </g>
     </g>
    </g>
    <g id="xtick_2">
     <g id="line2d_2">
      <g>
       <use xlink:href="#m988ca4cf83" x="113.781818" y="192.24" style="stroke: #000000; stroke-width: 0.8"/>
      </g>
     </g>
     <g id="text_2">
      <!-- 2800 -->
      <g transform="translate(97.239318 209.117969)scale(0.13 -0.13)">
       <defs>
        <path id="DejaVuSans-38" d="M 2034 2216 
Q 1584 2216 1326 1975 
Q 1069 1734 1069 1313 
Q 1069 891 1326 650 
Q 1584 409 2034 409 
Q 2484 409 2743 651 
Q 3003 894 3003 1313 
Q 3003 1734 2745 1975 
Q 2488 2216 2034 2216 
z
M 1403 2484 
Q 997 2584 770 2862 
Q 544 3141 544 3541 
Q 544 4100 942 4425 
Q 1341 4750 2034 4750 
Q 2731 4750 3128 4425 
Q 3525 4100 3525 3541 
Q 3525 3141 3298 2862 
Q 3072 2584 2669 2484 
Q 3125 2378 3379 2068 
Q 3634 1759 3634 1313 
Q 3634 634 3220 271 
Q 2806 -91 2034 -91 
Q 1263 -91 848 271 
Q 434 634 434 1313 
Q 434 1759 690 2068 
Q 947 2378 1403 2484 
z
M 1172 3481 
Q 1172 3119 1398 2916 
Q 1625 2713 2034 2713 
Q 2441 2713 2670 2916 
Q 2900 3119 2900 3481 
Q 2900 3844 2670 4047 
Q 2441 4250 2034 4250 
Q 1625 4250 1398 4047 
Q 1172 3844 1172 3481 
z
" transform="scale(0.015625)"/>
       </defs>
       <use xlink:href="#DejaVuSans-32"/>
       <use xlink:href="#DejaVuSans-38" x="63.623047"/>
       <use xlink:href="#DejaVuSans-30" x="127.246094"/>
       <use xlink:href="#DejaVuSans-30" x="190.869141"/>
      </g>
     </g>
    </g>
    <g id="xtick_3">
     <g id="line2d_3">
      <g>
       <use xlink:href="#m988ca4cf83" x="181.418182" y="192.24" style="stroke: #000000; stroke-width: 0.8"/>
      </g>
     </g>
     <g id="text_3">
      <!-- 3000 -->
      <g transform="translate(164.875682 209.117969)scale(0.13 -0.13)">
       <defs>
        <path id="DejaVuSans-33" d="M 2597 2516 
Q 3050 2419 3304 2112 
Q 3559 1806 3559 1356 
Q 3559 666 3084 287 
Q 2609 -91 1734 -91 
Q 1441 -91 1130 -33 
Q 819 25 488 141 
L 488 750 
Q 750 597 1062 519 
Q 1375 441 1716 441 
Q 2309 441 2620 675 
Q 2931 909 2931 1356 
Q 2931 1769 2642 2001 
Q 2353 2234 1838 2234 
L 1294 2234 
L 1294 2753 
L 1863 2753 
Q 2328 2753 2575 2939 
Q 2822 3125 2822 3475 
Q 2822 3834 2567 4026 
Q 2313 4219 1838 4219 
Q 1578 4219 1281 4162 
Q 984 4106 628 3988 
L 628 4550 
Q 988 4650 1302 4700 
Q 1616 4750 1894 4750 
Q 2613 4750 3031 4423 
Q 3450 4097 3450 3541 
Q 3450 3153 3228 2886 
Q 3006 2619 2597 2516 
z
" transform="scale(0.015625)"/>
       </defs>
       <use xlink:href="#DejaVuSans-33"/>
       <use xlink:href="#DejaVuSans-30" x="63.623047"/>
       <use xlink:href="#DejaVuSans-30" x="127.246094"/>
       <use xlink:href="#DejaVuSans-30" x="190.869141"/>
      </g>
     </g>
    </g>
    <g id="xtick_4">
     <g id="line2d_4">
      <g>
       <use xlink:href="#m988ca4cf83" x="249.054545" y="192.24" style="stroke: #000000; stroke-width: 0.8"/>
      </g>
     </g>
     <g id="text_4">
      <!-- 3200 -->
      <g transform="translate(232.512045 209.117969)scale(0.13 -0.13)">
       <use xlink:href="#DejaVuSans-33"/>
       <use xlink:href="#DejaVuSans-32" x="63.623047"/>
       <use xlink:href="#DejaVuSans-30" x="127.246094"/>
       <use xlink:href="#DejaVuSans-30" x="190.869141"/>
      </g>
     </g>
    </g>
   </g>
   <g id="matplotlib.axis_2">
    <g id="ytick_1">
     <g id="line2d_5">
      <defs>
       <path id="ma67bc08a3f" d="M 0 0 
L -3.5 0 
" style="stroke: #000000; stroke-width: 0.8"/>
      </defs>
      <g>
       <use xlink:href="#ma67bc08a3f" x="36" y="184.405868" style="stroke: #000000; stroke-width: 0.8"/>
      </g>
     </g>
     <g id="text_5">
      <!-- 0.0 -->
      <g transform="translate(8.325937 189.344853)scale(0.13 -0.13)">
       <defs>
        <path id="DejaVuSans-2e" d="M 684 794 
L 1344 794 
L 1344 0 
L 684 0 
L 684 794 
z
" transform="scale(0.015625)"/>
       </defs>
       <use xlink:href="#DejaVuSans-30"/>
       <use xlink:href="#DejaVuSans-2e" x="63.623047"/>
       <use xlink:href="#DejaVuSans-30" x="95.410156"/>
      </g>
     </g>
    </g>
    <g id="ytick_2">
     <g id="line2d_6">
      <g>
       <use xlink:href="#ma67bc08a3f" x="36" y="154.220695" style="stroke: #000000; stroke-width: 0.8"/>
      </g>
     </g>
     <g id="text_6">
      <!-- 0.2 -->
      <g transform="translate(8.325937 159.159679)scale(0.13 -0.13)">
       <use xlink:href="#DejaVuSans-30"/>
       <use xlink:href="#DejaVuSans-2e" x="63.623047"/>
       <use xlink:href="#DejaVuSans-32" x="95.410156"/>
      </g>
     </g>
    </g>
    <g id="ytick_3">
     <g id="line2d_7">
      <g>
       <use xlink:href="#ma67bc08a3f" x="36" y="124.035521" style="stroke: #000000; stroke-width: 0.8"/>
      </g>
     </g>
     <g id="text_7">
      <!-- 0.4 -->
      <g transform="translate(8.325937 128.974505)scale(0.13 -0.13)">
       <defs>
        <path id="DejaVuSans-34" d="M 2419 4116 
L 825 1625 
L 2419 1625 
L 2419 4116 
z
M 2253 4666 
L 3047 4666 
L 3047 1625 
L 3713 1625 
L 3713 1100 
L 3047 1100 
L 3047 0 
L 2419 0 
L 2419 1100 
L 313 1100 
L 313 1709 
L 2253 4666 
z
" transform="scale(0.015625)"/>
       </defs>
       <use xlink:href="#DejaVuSans-30"/>
       <use xlink:href="#DejaVuSans-2e" x="63.623047"/>
       <use xlink:href="#DejaVuSans-34" x="95.410156"/>
      </g>
     </g>
    </g>
    <g id="ytick_4">
     <g id="line2d_8">
      <g>
       <use xlink:href="#ma67bc08a3f" x="36" y="93.850347" style="stroke: #000000; stroke-width: 0.8"/>
      </g>
     </g>
     <g id="text_8">
      <!-- 0.6 -->
      <g transform="translate(8.325937 98.789332)scale(0.13 -0.13)">
       <use xlink:href="#DejaVuSans-30"/>
       <use xlink:href="#DejaVuSans-2e" x="63.623047"/>
       <use xlink:href="#DejaVuSans-36" x="95.410156"/>
      </g>
     </g>
    </g>
    <g id="ytick_5">
     <g id="line2d_9">
      <g>
       <use xlink:href="#ma67bc08a3f" x="36" y="63.665174" style="stroke: #000000; stroke-width: 0.8"/>
      </g>
     </g>
     <g id="text_9">
      <!-- 0.8 -->
      <g transform="translate(8.325937 68.604158)scale(0.13 -0.13)">
       <use xlink:href="#DejaVuSans-30"/>
       <use xlink:href="#DejaVuSans-2e" x="63.623047"/>
       <use xlink:href="#DejaVuSans-38" x="95.410156"/>
      </g>
     </g>
    </g>
    <g id="ytick_6">
     <g id="line2d_10">
      <g>
       <use xlink:href="#ma67bc08a3f" x="36" y="33.48" style="stroke: #000000; stroke-width: 0.8"/>
      </g>
     </g>
     <g id="text_10">
      <!-- 1.0 -->
      <g transform="translate(8.325937 38.418984)scale(0.13 -0.13)">
       <defs>
        <path id="DejaVuSans-31" d="M 794 531 
L 1825 531 
L 1825 4091 
L 703 3866 
L 703 4441 
L 1819 4666 
L 2450 4666 
L 2450 531 
L 3481 531 
L 3481 0 
L 794 0 
L 794 531 
z
" transform="scale(0.015625)"/>
       </defs>
       <use xlink:href="#DejaVuSans-31"/>
       <use xlink:href="#DejaVuSans-2e" x="63.623047"/>
       <use xlink:href="#DejaVuSans-30" x="95.410156"/>
      </g>
     </g>
    </g>
   </g>
   <g id="line2d_11">
    <path d="M 46.145455 183.880539 
L 46.551273 183.309166 
L 46.957091 183.747122 
L 47.362909 183.301794 
L 47.768727 183.022913 
L 48.174545 183.843531 
L 48.580364 184.355203 
L 48.986182 184.195986 
L 49.392 182.935973 
L 49.797818 183.955355 
L 50.203636 183.675858 
L 50.609455 182.949905 
L 51.015273 182.634115 
L 51.421091 183.432519 
L 51.826909 183.982571 
L 52.232727 183.264394 
L 52.638545 182.864274 
L 53.044364 183.334655 
L 53.450182 183.408583 
L 54.261818 183.25409 
L 54.667636 183.876872 
L 55.479273 184.68 
L 55.885091 183.939249 
L 56.290909 183.892815 
L 56.696727 183.187485 
L 57.102545 183.754439 
L 57.508364 184.525317 
L 57.914182 183.980675 
L 58.32 183.997441 
L 59.131636 183.622172 
L 59.537455 184.300541 
L 59.943273 184.006104 
L 61.160727 183.812713 
L 61.972364 183.059392 
L 62.378182 183.264595 
L 62.784 184.412202 
L 63.189818 184.362515 
L 63.595636 184.010125 
L 64.407273 182.469586 
L 64.813091 183.186232 
L 65.218909 182.848979 
L 66.030545 178.939604 
L 66.842182 174.961337 
L 67.248 169.522484 
L 67.653818 162.068784 
L 68.465455 136.801133 
L 68.871273 130.265362 
L 69.277091 130.131444 
L 69.682909 131.227815 
L 70.088727 138.653249 
L 70.900364 164.299384 
L 71.306182 171.637115 
L 71.712 176.12834 
L 72.117818 177.923911 
L 72.523636 180.273077 
L 72.929455 181.796153 
L 73.335273 182.743405 
L 73.741091 181.892334 
L 74.146909 182.815856 
L 74.552727 184.114839 
L 74.958545 183.654129 
L 75.364364 182.092514 
L 75.770182 183.56325 
L 76.176 184.103315 
L 76.987636 183.562476 
L 77.393455 182.859975 
L 77.799273 183.004719 
L 78.205091 183.877989 
L 78.610909 183.819279 
L 79.016727 183.512473 
L 79.422545 183.506474 
L 79.828364 183.939352 
L 80.234182 183.086379 
L 80.64 184.059578 
L 81.045818 183.776338 
L 81.451636 183.755262 
L 81.857455 183.322373 
L 82.263273 184.190685 
L 83.074909 184.544365 
L 83.480727 184.02597 
L 83.886545 183.064247 
L 84.698182 183.886598 
L 85.104 183.778773 
L 85.509818 184.454151 
L 85.915636 183.875019 
L 86.727273 183.856434 
L 87.133091 183.35633 
L 88.350545 179.633159 
L 88.756364 178.788228 
L 89.162182 174.916614 
L 89.973818 159.137452 
L 90.379636 144.417616 
L 90.785455 121.098433 
L 91.191273 106.795801 
L 91.597091 102.664396 
L 92.002909 104.939168 
L 92.408727 114.894446 
L 93.220364 153.566432 
L 93.626182 165.52914 
L 94.032 172.018868 
L 94.437818 176.534214 
L 94.843636 179.036706 
L 95.655273 181.86029 
L 96.061091 182.169885 
L 96.466909 182.729282 
L 96.872727 181.953866 
L 97.278545 182.867941 
L 97.684364 182.911852 
L 98.090182 182.695135 
L 98.496 182.824809 
L 98.901818 183.691921 
L 99.307636 183.919884 
L 99.713455 183.319491 
L 100.119273 183.703058 
L 100.525091 182.377633 
L 100.930909 182.920886 
L 101.742545 184.603037 
L 102.148364 183.377166 
L 102.554182 183.920576 
L 102.96 184.018418 
L 103.365818 184.272203 
L 104.177455 182.5544 
L 104.583273 183.519535 
L 104.989091 183.843733 
L 105.394909 181.572615 
L 105.800727 181.208581 
L 106.206545 180.299372 
L 106.612364 179.755139 
L 107.018182 178.526337 
L 107.424 175.529119 
L 108.235636 165.589926 
L 108.641455 160.098892 
L 109.047273 151.067025 
L 109.453091 132.145126 
L 109.858909 103.604444 
L 110.264727 88.269343 
L 110.670545 85.342358 
L 111.076364 91.205357 
L 111.482182 101.641099 
L 112.293818 147.012816 
L 112.699636 161.797498 
L 113.105455 169.977674 
L 113.917091 178.880132 
L 114.322909 179.976035 
L 114.728727 180.726649 
L 115.134545 181.872598 
L 115.540364 181.749463 
L 116.352 183.46416 
L 116.757818 183.304044 
L 117.163636 184.026188 
L 117.569455 183.559082 
L 117.975273 182.629571 
L 118.381091 183.089256 
L 118.786909 183.832628 
L 119.192727 184.217825 
L 120.004364 183.3601 
L 120.410182 183.855447 
L 121.221818 183.515367 
L 122.033455 182.298338 
L 122.845091 183.837952 
L 123.250909 183.630748 
L 123.656727 184.22742 
L 124.062545 183.900661 
L 124.874182 184.552827 
L 125.685818 183.794618 
L 126.091636 183.763348 
L 126.497455 181.914178 
L 126.903273 180.769928 
L 127.714909 173.80528 
L 128.120727 168.355328 
L 128.526545 160.962294 
L 128.932364 150.924193 
L 129.338182 131.120749 
L 130.149818 64.837171 
L 130.555636 51.255355 
L 130.961455 50.641919 
L 131.367273 57.261868 
L 131.773091 80.173165 
L 132.584727 137.763956 
L 132.990545 154.231637 
L 133.396364 164.832638 
L 134.208 174.6904 
L 134.613818 179.350922 
L 135.019636 181.376243 
L 135.425455 181.03115 
L 135.831273 183.09319 
L 136.237091 183.501734 
L 136.642909 184.188162 
L 137.048727 183.395223 
L 137.454545 183.238943 
L 137.860364 183.472077 
L 138.266182 182.607443 
L 138.672 180.708728 
L 139.077818 180.658649 
L 139.889455 181.907971 
L 140.295273 181.940636 
L 140.701091 181.385577 
L 141.106909 181.684073 
L 141.512727 183.411329 
L 141.918545 182.920706 
L 142.324364 183.203641 
L 142.730182 183.809776 
L 144.353455 184.123311 
L 145.165091 184.434045 
L 145.570909 184.299533 
L 145.976727 183.593926 
L 146.382545 183.533522 
L 146.788364 183.957246 
L 147.194182 183.819121 
L 147.6 183.501336 
L 148.005818 182.97455 
L 148.411636 182.893239 
L 148.817455 182.584859 
L 149.629091 181.120688 
L 150.034909 181.59849 
L 150.440727 182.677149 
L 151.252364 183.935734 
L 151.658182 182.659201 
L 152.064 182.495936 
L 152.469818 183.415917 
L 152.875636 183.142141 
L 153.687273 184.031255 
L 154.093091 182.8482 
L 154.498909 183.961626 
L 155.310545 183.884042 
L 155.716364 182.818968 
L 156.122182 183.21499 
L 156.528 183.812779 
L 156.933818 183.092907 
L 157.339636 183.9947 
L 157.745455 184.525246 
L 158.151273 184.283509 
L 158.557091 183.194394 
L 158.962909 182.999592 
L 159.368727 182.940278 
L 159.774545 183.339477 
L 160.180364 181.439105 
L 160.586182 181.21834 
L 160.992 182.321169 
L 161.397818 181.866523 
L 162.209455 173.117195 
L 162.615273 168.355824 
L 163.021091 160.27367 
L 163.426909 147.476108 
L 163.832727 120.033932 
L 164.644364 52.177459 
L 165.050182 38.826234 
L 165.456 33.48 
L 165.861818 43.38832 
L 166.673455 103.334243 
L 167.485091 143.719163 
L 167.890909 156.749123 
L 168.702545 172.157711 
L 169.514182 178.766281 
L 169.92 180.890736 
L 170.325818 181.574663 
L 170.731636 181.756508 
L 171.543273 183.635298 
L 171.949091 183.303935 
L 172.354909 184.022265 
L 172.760727 184.010578 
L 173.166545 184.245161 
L 173.572364 183.970066 
L 173.978182 183.241013 
L 174.384 183.692504 
L 174.789818 184.350255 
L 175.195636 184.068737 
L 176.007273 183.997321 
L 176.413091 182.717191 
L 176.818909 183.335014 
L 177.630545 184.054968 
L 178.036364 183.616653 
L 178.442182 182.717415 
L 179.253818 179.209588 
L 179.659636 175.703189 
L 180.065455 170.000041 
L 180.471273 161.411196 
L 180.877091 143.632523 
L 181.282909 115.776198 
L 182.094545 83.967985 
L 182.500364 79.102632 
L 182.906182 83.452102 
L 184.529455 155.740208 
L 184.935273 164.795047 
L 185.341091 170.811691 
L 186.152727 178.737049 
L 186.558545 180.807698 
L 186.964364 181.591887 
L 187.776 183.98535 
L 188.181818 184.403342 
L 188.993455 183.469706 
L 189.399273 181.975247 
L 189.805091 181.696812 
L 190.616727 183.677422 
L 191.022545 183.371897 
L 191.428364 182.140446 
L 191.834182 182.910898 
L 192.24 183.207482 
L 192.645818 183.039678 
L 193.051636 180.622818 
L 193.457455 179.168107 
L 194.269091 174.27419 
L 195.080727 165.369984 
L 195.486545 150.836464 
L 196.298182 111.847016 
L 196.704 103.407256 
L 197.109818 101.759776 
L 197.515636 105.370541 
L 197.921455 120.391845 
L 198.327273 140.779038 
L 198.733091 155.330482 
L 199.544727 171.86006 
L 200.356364 178.627546 
L 200.762182 180.987424 
L 201.168 182.114009 
L 201.573818 182.37146 
L 201.979636 182.416281 
L 202.385455 183.876223 
L 202.791273 184.17053 
L 203.197091 184.22026 
L 203.602909 183.301701 
L 204.008727 183.972524 
L 204.414545 183.394084 
L 204.820364 183.687181 
L 205.226182 183.741531 
L 205.632 183.985094 
L 206.037818 183.85032 
L 206.443636 183.348435 
L 206.849455 183.884952 
L 207.255273 183.346756 
L 208.066909 184.456298 
L 208.472727 182.569215 
L 208.878545 181.502397 
L 209.284364 179.81611 
L 210.096 169.856735 
L 210.501818 163.421408 
L 211.313455 135.722061 
L 211.719273 127.876402 
L 212.125091 124.897608 
L 212.530909 124.497647 
L 212.936727 132.590034 
L 213.748364 159.097911 
L 214.154182 167.514397 
L 215.371636 179.040057 
L 216.183273 182.110674 
L 216.589091 183.559109 
L 216.994909 183.558733 
L 217.400727 183.997915 
L 217.806545 184.126559 
L 219.024 184.135642 
L 219.429818 184.373761 
L 219.835636 184.026237 
L 220.241455 184.16695 
L 220.647273 183.877569 
L 221.053091 184.142796 
L 221.458909 184.142235 
L 221.864727 183.593272 
L 222.270545 182.734371 
L 222.676364 184.189758 
L 223.082182 184.241701 
L 223.488 183.736257 
L 223.893818 183.505575 
L 224.299636 183.55839 
L 224.705455 183.905586 
L 225.111273 184.520347 
L 225.517091 184.447972 
L 225.922909 183.139428 
L 226.328727 183.976861 
L 226.734545 184.035086 
L 227.140364 183.662552 
L 227.546182 183.907243 
L 227.952 183.629806 
L 228.763636 184.425006 
L 229.575273 183.231222 
L 229.981091 183.111122 
L 230.386909 184.192635 
L 230.792727 184.409243 
L 231.198545 182.896606 
L 231.604364 183.25536 
L 232.010182 184.486255 
L 232.416 183.565751 
L 232.821818 182.938441 
L 233.227636 182.590324 
L 233.633455 183.647857 
L 234.039273 184.259594 
L 234.445091 183.052695 
L 234.850909 184.066307 
L 235.256727 184.265561 
L 235.662545 184.03022 
L 236.068364 183.581852 
L 236.474182 184.117383 
L 237.285818 184.217645 
L 237.691636 183.787186 
L 238.503273 184.371075 
L 238.909091 184.453268 
L 239.314909 183.982604 
L 239.720727 183.908518 
L 240.126545 184.396695 
L 240.532364 184.472246 
L 240.938182 184.172791 
L 241.344 183.675144 
L 241.749818 183.811209 
L 242.155636 183.70818 
L 242.561455 182.299848 
L 242.967273 182.786194 
L 243.373091 183.043634 
L 243.778909 183.501734 
L 244.184727 183.602072 
L 244.590545 182.954014 
L 244.996364 183.66629 
L 245.402182 184.073821 
L 245.808 183.852587 
L 246.213818 183.768503 
L 246.619636 184.373924 
L 247.025455 183.426618 
L 247.431273 183.383415 
L 247.837091 183.180822 
L 248.242909 183.825234 
L 248.648727 184.133615 
L 249.054545 184.285988 
L 249.054545 184.285988 
" clip-path="url(#p8fee853d38)" style="fill: none; stroke: #1f77b4; stroke-width: 1.5; stroke-linecap: square"/>
   </g>
   <g id="patch_3">
    <path d="M 36 192.24 
L 36 25.92 
" style="fill: none; stroke: #000000; stroke-width: 0.8; stroke-linejoin: miter; stroke-linecap: square"/>
   </g>
   <g id="patch_4">
    <path d="M 259.2 192.24 
L 259.2 25.92 
" style="fill: none; stroke: #000000; stroke-width: 0.8; stroke-linejoin: miter; stroke-linecap: square"/>
   </g>
   <g id="patch_5">
    <path d="M 36 192.24 
L 259.2 192.24 
" style="fill: none; stroke: #000000; stroke-width: 0.8; stroke-linejoin: miter; stroke-linecap: square"/>
   </g>
   <g id="patch_6">
    <path d="M 36 25.92 
L 259.2 25.92 
" style="fill: none; stroke: #000000; stroke-width: 0.8; stroke-linejoin: miter; stroke-linecap: square"/>
   </g>
  </g>
 </g>
 <defs>
  <clipPath id="p8fee853d38">
   <rect x="36" y="25.92" width="223.2" height="166.32"/>
  </clipPath>
 </defs>
</svg>
