<?xml version="1.0" encoding="utf-8" standalone="no"?>
<!DOCTYPE svg PUBLIC "-//W3C//DTD SVG 1.1//EN"
  "http://www.w3.org/Graphics/SVG/1.1/DTD/svg11.dtd">
<svg xmlns:xlink="http://www.w3.org/1999/xlink" width="432pt" height="288pt" viewBox="0 0 432 288" xmlns="http://www.w3.org/2000/svg" version="1.1">
 <metadata>
  <rdf:RDF xmlns:dc="http://purl.org/dc/elements/1.1/" xmlns:cc="http://creativecommons.org/ns#" xmlns:rdf="http://www.w3.org/1999/02/22-rdf-syntax-ns#">
   <cc:Work>
    <dc:type rdf:resource="http://purl.org/dc/dcmitype/StillImage"/>
    <dc:date>2022-11-04T13:56:17.261952</dc:date>
    <dc:format>image/svg+xml</dc:format>
    <dc:creator>
     <cc:Agent>
      <dc:title>Matplotlib v3.5.1, https://matplotlib.org/</dc:title>
     </cc:Agent>
    </dc:creator>
   </cc:Work>
  </rdf:RDF>
 </metadata>
 <defs>
  <style type="text/css">*{stroke-linejoin: round; stroke-linecap: butt}</style>
 </defs>
 <g id="figure_1">
  <g id="patch_1">
   <path d="M 0 288 
L 432 288 
L 432 0 
L 0 0 
z
" style="fill: #ffffff"/>
  </g>
  <g id="axes_1">
   <g id="patch_2">
    <path d="M 54 256.32 
L 388.8 256.32 
L 388.8 34.56 
L 54 34.56 
z
" style="fill: #ffffff"/>
   </g>
   <g id="matplotlib.axis_1">
    <g id="xtick_1">
     <g id="line2d_1">
      <defs>
       <path id="mc8f19f4b83" d="M 0 0 
L 0 3.5 
" style="stroke: #000000; stroke-width: 0.8"/>
      </defs>
      <g>
       <use xlink:href="#mc8f19f4b83" x="69.218182" y="256.32" style="stroke: #000000; stroke-width: 0.8"/>
      </g>
     </g>
     <g id="text_1">
      <!-- 0 -->
      <g transform="translate(64.128182 275.4775)scale(0.16 -0.16)">
       <defs>
        <path id="DejaVuSans-30" d="M 2034 4250 
Q 1547 4250 1301 3770 
Q 1056 3291 1056 2328 
Q 1056 1369 1301 889 
Q 1547 409 2034 409 
Q 2525 409 2770 889 
Q 3016 1369 3016 2328 
Q 3016 3291 2770 3770 
Q 2525 4250 2034 4250 
z
M 2034 4750 
Q 2819 4750 3233 4129 
Q 3647 3509 3647 2328 
Q 3647 1150 3233 529 
Q 2819 -91 2034 -91 
Q 1250 -91 836 529 
Q 422 1150 422 2328 
Q 422 3509 836 4129 
Q 1250 4750 2034 4750 
z
" transform="scale(0.015625)"/>
       </defs>
       <use xlink:href="#DejaVuSans-30"/>
      </g>
     </g>
    </g>
    <g id="xtick_2">
     <g id="line2d_2">
      <g>
       <use xlink:href="#mc8f19f4b83" x="145.309091" y="256.32" style="stroke: #000000; stroke-width: 0.8"/>
      </g>
     </g>
     <g id="text_2">
      <!-- 2500 -->
      <g transform="translate(124.949091 275.4775)scale(0.16 -0.16)">
       <defs>
        <path id="DejaVuSans-32" d="M 1228 531 
L 3431 531 
L 3431 0 
L 469 0 
L 469 531 
Q 828 903 1448 1529 
Q 2069 2156 2228 2338 
Q 2531 2678 2651 2914 
Q 2772 3150 2772 3378 
Q 2772 3750 2511 3984 
Q 2250 4219 1831 4219 
Q 1534 4219 1204 4116 
Q 875 4013 500 3803 
L 500 4441 
Q 881 4594 1212 4672 
Q 1544 4750 1819 4750 
Q 2544 4750 2975 4387 
Q 3406 4025 3406 3419 
Q 3406 3131 3298 2873 
Q 3191 2616 2906 2266 
Q 2828 2175 2409 1742 
Q 1991 1309 1228 531 
z
" transform="scale(0.015625)"/>
        <path id="DejaVuSans-35" d="M 691 4666 
L 3169 4666 
L 3169 4134 
L 1269 4134 
L 1269 2991 
Q 1406 3038 1543 3061 
Q 1681 3084 1819 3084 
Q 2600 3084 3056 2656 
Q 3513 2228 3513 1497 
Q 3513 744 3044 326 
Q 2575 -91 1722 -91 
Q 1428 -91 1123 -41 
Q 819 9 494 109 
L 494 744 
Q 775 591 1075 516 
Q 1375 441 1709 441 
Q 2250 441 2565 725 
Q 2881 1009 2881 1497 
Q 2881 1984 2565 2268 
Q 2250 2553 1709 2553 
Q 1456 2553 1204 2497 
Q 953 2441 691 2322 
L 691 4666 
z
" transform="scale(0.015625)"/>
       </defs>
       <use xlink:href="#DejaVuSans-32"/>
       <use xlink:href="#DejaVuSans-35" x="63.623047"/>
       <use xlink:href="#DejaVuSans-30" x="127.246094"/>
       <use xlink:href="#DejaVuSans-30" x="190.869141"/>
      </g>
     </g>
    </g>
    <g id="xtick_3">
     <g id="line2d_3">
      <g>
       <use xlink:href="#mc8f19f4b83" x="221.4" y="256.32" style="stroke: #000000; stroke-width: 0.8"/>
      </g>
     </g>
     <g id="text_3">
      <!-- 5000 -->
      <g transform="translate(201.04 275.4775)scale(0.16 -0.16)">
       <use xlink:href="#DejaVuSans-35"/>
       <use xlink:href="#DejaVuSans-30" x="63.623047"/>
       <use xlink:href="#DejaVuSans-30" x="127.246094"/>
       <use xlink:href="#DejaVuSans-30" x="190.869141"/>
      </g>
     </g>
    </g>
    <g id="xtick_4">
     <g id="line2d_4">
      <g>
       <use xlink:href="#mc8f19f4b83" x="297.490909" y="256.32" style="stroke: #000000; stroke-width: 0.8"/>
      </g>
     </g>
     <g id="text_4">
      <!-- 7500 -->
      <g transform="translate(277.130909 275.4775)scale(0.16 -0.16)">
       <defs>
        <path id="DejaVuSans-37" d="M 525 4666 
L 3525 4666 
L 3525 4397 
L 1831 0 
L 1172 0 
L 2766 4134 
L 525 4134 
L 525 4666 
z
" transform="scale(0.015625)"/>
       </defs>
       <use xlink:href="#DejaVuSans-37"/>
       <use xlink:href="#DejaVuSans-35" x="63.623047"/>
       <use xlink:href="#DejaVuSans-30" x="127.246094"/>
       <use xlink:href="#DejaVuSans-30" x="190.869141"/>
      </g>
     </g>
    </g>
    <g id="xtick_5">
     <g id="line2d_5">
      <g>
       <use xlink:href="#mc8f19f4b83" x="373.581818" y="256.32" style="stroke: #000000; stroke-width: 0.8"/>
      </g>
     </g>
     <g id="text_5">
      <!-- 10000 -->
      <g transform="translate(348.131818 275.4775)scale(0.16 -0.16)">
       <defs>
        <path id="DejaVuSans-31" d="M 794 531 
L 1825 531 
L 1825 4091 
L 703 3866 
L 703 4441 
L 1819 4666 
L 2450 4666 
L 2450 531 
L 3481 531 
L 3481 0 
L 794 0 
L 794 531 
z
" transform="scale(0.015625)"/>
       </defs>
       <use xlink:href="#DejaVuSans-31"/>
       <use xlink:href="#DejaVuSans-30" x="63.623047"/>
       <use xlink:href="#DejaVuSans-30" x="127.246094"/>
       <use xlink:href="#DejaVuSans-30" x="190.869141"/>
       <use xlink:href="#DejaVuSans-30" x="254.492188"/>
      </g>
     </g>
    </g>
   </g>
   <g id="matplotlib.axis_2">
    <g id="ytick_1">
     <g id="line2d_6">
      <defs>
       <path id="m1d56a34b18" d="M 0 0 
L -3.5 0 
" style="stroke: #000000; stroke-width: 0.8"/>
      </defs>
      <g>
       <use xlink:href="#m1d56a34b18" x="54" y="245.489498" style="stroke: #000000; stroke-width: 0.8"/>
      </g>
     </g>
     <g id="text_6">
      <!-- −100 -->
      <g transform="translate(3.0525 251.568248)scale(0.16 -0.16)">
       <defs>
        <path id="DejaVuSans-2212" d="M 678 2272 
L 4684 2272 
L 4684 1741 
L 678 1741 
L 678 2272 
z
" transform="scale(0.015625)"/>
       </defs>
       <use xlink:href="#DejaVuSans-2212"/>
       <use xlink:href="#DejaVuSans-31" x="83.789062"/>
       <use xlink:href="#DejaVuSans-30" x="147.412109"/>
       <use xlink:href="#DejaVuSans-30" x="211.035156"/>
      </g>
     </g>
    </g>
    <g id="ytick_2">
     <g id="line2d_7">
      <g>
       <use xlink:href="#m1d56a34b18" x="54" y="196.065847" style="stroke: #000000; stroke-width: 0.8"/>
      </g>
     </g>
     <g id="text_7">
      <!-- −80 -->
      <g transform="translate(13.2325 202.144597)scale(0.16 -0.16)">
       <defs>
        <path id="DejaVuSans-38" d="M 2034 2216 
Q 1584 2216 1326 1975 
Q 1069 1734 1069 1313 
Q 1069 891 1326 650 
Q 1584 409 2034 409 
Q 2484 409 2743 651 
Q 3003 894 3003 1313 
Q 3003 1734 2745 1975 
Q 2488 2216 2034 2216 
z
M 1403 2484 
Q 997 2584 770 2862 
Q 544 3141 544 3541 
Q 544 4100 942 4425 
Q 1341 4750 2034 4750 
Q 2731 4750 3128 4425 
Q 3525 4100 3525 3541 
Q 3525 3141 3298 2862 
Q 3072 2584 2669 2484 
Q 3125 2378 3379 2068 
Q 3634 1759 3634 1313 
Q 3634 634 3220 271 
Q 2806 -91 2034 -91 
Q 1263 -91 848 271 
Q 434 634 434 1313 
Q 434 1759 690 2068 
Q 947 2378 1403 2484 
z
M 1172 3481 
Q 1172 3119 1398 2916 
Q 1625 2713 2034 2713 
Q 2441 2713 2670 2916 
Q 2900 3119 2900 3481 
Q 2900 3844 2670 4047 
Q 2441 4250 2034 4250 
Q 1625 4250 1398 4047 
Q 1172 3844 1172 3481 
z
" transform="scale(0.015625)"/>
       </defs>
       <use xlink:href="#DejaVuSans-2212"/>
       <use xlink:href="#DejaVuSans-38" x="83.789062"/>
       <use xlink:href="#DejaVuSans-30" x="147.412109"/>
      </g>
     </g>
    </g>
    <g id="ytick_3">
     <g id="line2d_8">
      <g>
       <use xlink:href="#m1d56a34b18" x="54" y="146.642195" style="stroke: #000000; stroke-width: 0.8"/>
      </g>
     </g>
     <g id="text_8">
      <!-- −60 -->
      <g transform="translate(13.2325 152.720945)scale(0.16 -0.16)">
       <defs>
        <path id="DejaVuSans-36" d="M 2113 2584 
Q 1688 2584 1439 2293 
Q 1191 2003 1191 1497 
Q 1191 994 1439 701 
Q 1688 409 2113 409 
Q 2538 409 2786 701 
Q 3034 994 3034 1497 
Q 3034 2003 2786 2293 
Q 2538 2584 2113 2584 
z
M 3366 4563 
L 3366 3988 
Q 3128 4100 2886 4159 
Q 2644 4219 2406 4219 
Q 1781 4219 1451 3797 
Q 1122 3375 1075 2522 
Q 1259 2794 1537 2939 
Q 1816 3084 2150 3084 
Q 2853 3084 3261 2657 
Q 3669 2231 3669 1497 
Q 3669 778 3244 343 
Q 2819 -91 2113 -91 
Q 1303 -91 875 529 
Q 447 1150 447 2328 
Q 447 3434 972 4092 
Q 1497 4750 2381 4750 
Q 2619 4750 2861 4703 
Q 3103 4656 3366 4563 
z
" transform="scale(0.015625)"/>
       </defs>
       <use xlink:href="#DejaVuSans-2212"/>
       <use xlink:href="#DejaVuSans-36" x="83.789062"/>
       <use xlink:href="#DejaVuSans-30" x="147.412109"/>
      </g>
     </g>
    </g>
    <g id="ytick_4">
     <g id="line2d_9">
      <g>
       <use xlink:href="#m1d56a34b18" x="54" y="97.218544" style="stroke: #000000; stroke-width: 0.8"/>
      </g>
     </g>
     <g id="text_9">
      <!-- −40 -->
      <g transform="translate(13.2325 103.297294)scale(0.16 -0.16)">
       <defs>
        <path id="DejaVuSans-34" d="M 2419 4116 
L 825 1625 
L 2419 1625 
L 2419 4116 
z
M 2253 4666 
L 3047 4666 
L 3047 1625 
L 3713 1625 
L 3713 1100 
L 3047 1100 
L 3047 0 
L 2419 0 
L 2419 1100 
L 313 1100 
L 313 1709 
L 2253 4666 
z
" transform="scale(0.015625)"/>
       </defs>
       <use xlink:href="#DejaVuSans-2212"/>
       <use xlink:href="#DejaVuSans-34" x="83.789062"/>
       <use xlink:href="#DejaVuSans-30" x="147.412109"/>
      </g>
     </g>
    </g>
    <g id="ytick_5">
     <g id="line2d_10">
      <g>
       <use xlink:href="#m1d56a34b18" x="54" y="47.794892" style="stroke: #000000; stroke-width: 0.8"/>
      </g>
     </g>
     <g id="text_10">
      <!-- −20 -->
      <g transform="translate(13.2325 53.873642)scale(0.16 -0.16)">
       <use xlink:href="#DejaVuSans-2212"/>
       <use xlink:href="#DejaVuSans-32" x="83.789062"/>
       <use xlink:href="#DejaVuSans-30" x="147.412109"/>
      </g>
     </g>
    </g>
   </g>
   <g id="line2d_11">
    <path d="M 69.218182 44.64 
L 69.522545 44.994465 
L 69.826909 46.057117 
L 70.131273 47.830155 
L 70.74 53.632488 
L 71.348727 62.633916 
L 71.957455 75.195168 
L 72.566182 92.003826 
L 73.174909 116.364856 
L 73.783636 141.950974 
L 74.392364 159.609204 
L 74.696727 160.926845 
L 75.914182 154.07255 
L 77.436 142.649206 
L 77.740364 141.547542 
L 78.044727 140.988758 
L 78.349091 141.088015 
L 78.653455 141.878753 
L 78.957818 143.351098 
L 79.566545 148.326847 
L 80.175273 155.905803 
L 81.088364 171.483081 
L 81.697091 181.539341 
L 82.305818 187.989755 
L 82.610182 189.21184 
L 83.523273 190.217961 
L 84.132 190.390737 
L 84.436364 190.360661 
L 84.740727 190.028432 
L 85.653818 188.009844 
L 85.958182 187.736441 
L 86.262545 187.749003 
L 87.175636 189.179295 
L 87.784364 189.407844 
L 88.697455 190.718896 
L 89.610545 190.190228 
L 90.219273 190.322215 
L 90.828 190.804244 
L 92.045455 192.015111 
L 92.654182 192.196989 
L 93.262909 192.528168 
L 93.567273 192.365654 
L 94.176 191.719435 
L 94.784727 191.500805 
L 96.610909 191.023112 
L 97.219636 190.630006 
L 97.524 190.95193 
L 98.132727 192.028151 
L 99.045818 192.365824 
L 99.654545 192.937144 
L 100.263273 192.982359 
L 100.872 192.75007 
L 101.480727 192.552679 
L 101.785091 192.54887 
L 102.089455 192.720954 
L 102.698182 193.73404 
L 103.002545 193.918391 
L 103.611273 193.682441 
L 104.524364 193.026209 
L 105.741818 192.176968 
L 106.350545 192.008266 
L 106.654909 192.034535 
L 106.959273 192.232931 
L 107.568 192.887025 
L 108.481091 192.800654 
L 109.089818 193.204376 
L 109.394182 193.007652 
L 110.307273 191.846328 
L 110.611636 191.564255 
L 110.916 191.526223 
L 111.524727 191.959589 
L 112.133455 192.615048 
L 112.742182 193.581947 
L 113.350909 194.863442 
L 113.655273 195.620778 
L 113.959636 195.808211 
L 114.264 195.157634 
L 114.872727 193.557839 
L 115.481455 192.558593 
L 115.785818 192.436654 
L 116.394545 192.603042 
L 117.916364 193.6452 
L 118.525091 194.374374 
L 118.829455 194.441975 
L 119.438182 194.108125 
L 120.046909 193.643925 
L 120.351273 193.700837 
L 121.568727 195.172013 
L 121.873091 195.28113 
L 123.699273 194.063877 
L 124.308 193.880692 
L 125.221091 193.424464 
L 125.525455 193.32873 
L 125.829818 193.392139 
L 127.351636 194.827406 
L 127.960364 195.646078 
L 128.264727 195.60211 
L 128.873455 194.537559 
L 129.786545 192.949064 
L 130.090909 192.987022 
L 131.308364 193.656698 
L 132.525818 193.398912 
L 132.830182 193.459869 
L 133.743273 194.032199 
L 134.960727 193.222987 
L 135.569455 193.242916 
L 135.873818 193.391586 
L 136.178182 193.715661 
L 136.786909 194.699434 
L 137.091273 194.780438 
L 137.395636 194.693205 
L 137.7 194.726379 
L 138.308727 195.130051 
L 138.917455 195.086567 
L 139.526182 194.787803 
L 139.830545 194.64871 
L 140.134909 194.89975 
L 140.743636 196.120636 
L 141.048 196.213598 
L 141.656727 195.84293 
L 142.569818 194.93477 
L 143.178545 194.760913 
L 144.396 194.922935 
L 145.004727 194.649485 
L 145.613455 194.099669 
L 146.222182 193.354699 
L 146.830909 193.118047 
L 147.744 193.098738 
L 148.048364 193.25549 
L 148.657091 193.783818 
L 149.265818 193.820332 
L 150.178909 193.525306 
L 150.483273 193.83478 
L 151.092 194.77667 
L 151.396364 194.820236 
L 153.526909 194.172634 
L 154.135636 193.725319 
L 155.048727 193.653149 
L 155.657455 192.568295 
L 155.961818 192.472503 
L 156.570545 193.152133 
L 157.179273 194.395607 
L 157.483636 194.572374 
L 158.092364 193.715773 
L 158.396727 193.630896 
L 159.309818 193.810232 
L 159.918545 193.898218 
L 160.222909 194.033999 
L 160.527273 194.038737 
L 161.440364 193.112952 
L 162.657818 193.620016 
L 163.266545 193.582843 
L 164.484 193.306186 
L 165.397091 193.585614 
L 166.310182 193.886904 
L 167.832 193.851668 
L 168.440727 193.80603 
L 169.353818 194.211048 
L 170.266909 194.043815 
L 170.571273 194.074545 
L 170.875636 193.978633 
L 172.093091 192.807977 
L 172.397455 192.745749 
L 173.614909 193.818222 
L 173.919273 193.911109 
L 174.832364 195.16406 
L 176.049818 194.669586 
L 176.962909 194.552025 
L 177.571636 194.259153 
L 178.484727 193.52118 
L 180.310909 191.871591 
L 180.615273 191.897413 
L 181.528364 192.460785 
L 181.832727 192.772364 
L 182.745818 194.313837 
L 183.354545 194.51479 
L 184.267636 194.693955 
L 184.876364 194.681366 
L 185.789455 194.344808 
L 186.093818 194.627173 
L 186.398182 195.062091 
L 186.702545 195.045907 
L 187.615636 193.270798 
L 188.224364 193.16442 
L 188.833091 192.82431 
L 189.137455 193.025109 
L 190.659273 195.709539 
L 191.572364 195.992632 
L 192.181091 196.546945 
L 192.789818 196.5092 
L 193.094182 196.676851 
L 193.702909 197.324446 
L 194.007273 197.155315 
L 194.920364 195.804979 
L 195.529091 194.938949 
L 196.137818 194.416247 
L 197.050909 193.994081 
L 198.268364 192.929859 
L 198.572727 192.847526 
L 199.485818 193.14786 
L 200.094545 193.155544 
L 201.312 193.85492 
L 201.616364 193.850974 
L 201.920727 193.625145 
L 202.529455 192.822209 
L 203.138182 191.777659 
L 203.442545 191.71667 
L 204.051273 192.12961 
L 204.964364 192.253052 
L 205.573091 192.337249 
L 206.790545 193.559374 
L 208.008 193.931014 
L 208.312364 193.756456 
L 208.921091 192.999104 
L 209.529818 191.833804 
L 209.834182 191.577481 
L 210.138545 191.520226 
L 210.442909 191.787192 
L 211.660364 194.302685 
L 211.964727 194.658405 
L 212.877818 195.032063 
L 213.182182 195.148779 
L 213.486545 195.389821 
L 214.399636 196.911293 
L 214.704 196.934289 
L 215.008364 196.757933 
L 215.312727 196.343722 
L 215.921455 195.335842 
L 216.834545 195.351095 
L 217.747636 194.39699 
L 218.356364 193.738628 
L 219.878182 192.775817 
L 220.182545 192.708384 
L 220.486909 192.764337 
L 220.791273 193.059444 
L 221.4 194.086148 
L 222.313091 194.947538 
L 223.834909 196.159777 
L 224.443636 195.564428 
L 225.661091 194.35548 
L 226.269818 194.092841 
L 227.182909 193.835236 
L 228.096 193.390153 
L 228.704727 193.251668 
L 229.922182 193.378359 
L 231.139636 193.386793 
L 231.444 193.391307 
L 231.748364 193.516754 
L 232.661455 194.392739 
L 233.270182 195.100095 
L 234.183273 196.415707 
L 234.792 196.897215 
L 235.096364 196.908178 
L 235.400727 196.774219 
L 235.705091 196.493493 
L 237.835636 193.157077 
L 238.14 193.000015 
L 238.748727 193.393221 
L 239.661818 193.9255 
L 240.270545 193.769381 
L 240.879273 193.130502 
L 241.488 192.6048 
L 241.792364 192.495232 
L 242.096727 192.598852 
L 242.705455 193.250338 
L 243.009818 193.095756 
L 244.227273 191.623611 
L 244.531636 191.534373 
L 244.836 191.621743 
L 245.140364 191.901093 
L 245.749091 193.099981 
L 246.966545 196.058806 
L 247.270909 196.448379 
L 247.575273 196.380497 
L 248.488364 194.377741 
L 249.097091 193.999741 
L 249.705818 194.038205 
L 250.923273 194.489455 
L 251.836364 194.011793 
L 252.140727 193.843503 
L 252.445091 193.866108 
L 253.358182 194.287099 
L 253.966909 194.398837 
L 255.793091 194.398533 
L 256.401818 194.777401 
L 256.706182 195.065079 
L 257.010545 195.097419 
L 257.923636 193.807444 
L 258.532364 193.673877 
L 259.445455 192.223337 
L 259.749818 192.271195 
L 260.967273 192.864189 
L 261.576 192.740926 
L 261.880364 192.869335 
L 263.402182 194.491881 
L 264.010909 196.205478 
L 264.315273 196.231597 
L 264.924 195.345742 
L 267.358909 193.705623 
L 267.967636 193.033121 
L 268.272 192.941352 
L 270.402545 193.245839 
L 271.011273 193.887746 
L 271.62 195.015469 
L 271.924364 195.490001 
L 272.228727 195.337286 
L 272.837455 194.274835 
L 273.750545 193.495858 
L 274.359273 193.214872 
L 274.663636 193.330106 
L 275.881091 194.315728 
L 277.098545 195.851718 
L 278.011636 196.134356 
L 278.316 196.086236 
L 279.229091 195.132288 
L 279.837818 195.367254 
L 281.359636 195.191989 
L 281.664 194.873868 
L 282.272727 193.784205 
L 282.577091 193.629534 
L 283.490182 193.705038 
L 283.794545 193.734886 
L 285.012 193.323592 
L 286.229455 193.791745 
L 286.838182 194.312876 
L 288.055636 195.631646 
L 288.664364 195.370168 
L 289.577455 195.473704 
L 290.186182 195.391993 
L 291.099273 195.57222 
L 292.012364 195.101467 
L 292.316727 195.079702 
L 292.621091 195.191078 
L 293.229818 195.854531 
L 293.534182 195.961434 
L 294.142909 195.861543 
L 294.751636 196.079974 
L 295.056 195.929573 
L 295.969091 194.755968 
L 297.186545 193.926583 
L 297.795273 193.86266 
L 299.012727 193.90109 
L 299.621455 193.510231 
L 300.230182 193.5985 
L 301.447636 193.776938 
L 302.360727 193.914273 
L 302.969455 193.965369 
L 303.578182 193.690334 
L 304.491273 193.713599 
L 305.1 193.834481 
L 305.708727 193.57642 
L 306.317455 193.35548 
L 306.926182 193.320267 
L 307.230545 193.352313 
L 307.534909 193.539419 
L 308.448 195.176737 
L 309.056727 195.038219 
L 309.969818 195.037865 
L 310.578545 195.153752 
L 310.882909 195.008988 
L 311.491636 194.371236 
L 312.100364 194.081788 
L 312.404727 194.101046 
L 313.317818 194.752696 
L 314.535273 195.625258 
L 314.839636 195.471641 
L 315.448364 194.538688 
L 316.057091 194.245382 
L 316.665818 194.319773 
L 316.970182 194.404399 
L 317.578909 194.233206 
L 317.883273 194.042545 
L 318.492 193.37068 
L 318.796364 193.395523 
L 320.013818 194.757174 
L 320.318182 194.796648 
L 320.926909 194.15504 
L 321.84 192.942912 
L 322.448727 192.643752 
L 322.753091 192.734002 
L 323.970545 193.774892 
L 324.579273 194.060033 
L 324.883636 194.091712 
L 325.188 193.919843 
L 325.492364 193.601434 
L 325.796727 193.467981 
L 326.405455 193.927243 
L 327.927273 195.121371 
L 328.231636 195.076578 
L 328.840364 194.381719 
L 329.753455 194.092311 
L 330.362182 193.117189 
L 330.666545 192.919879 
L 331.884 193.187191 
L 332.492727 193.483781 
L 333.405818 194.211717 
L 334.623273 195.206652 
L 335.536364 195.198219 
L 335.840727 195.234062 
L 336.449455 194.98326 
L 336.753818 194.707959 
L 337.666909 193.291619 
L 338.275636 193.086746 
L 338.884364 193.018507 
L 339.493091 193.253577 
L 340.101818 193.908034 
L 340.710545 194.992327 
L 341.319273 195.460192 
L 341.623636 195.645278 
L 342.232364 196.165608 
L 342.536727 195.759659 
L 343.449818 193.241493 
L 343.754182 192.64494 
L 344.058545 192.358806 
L 344.362909 192.391149 
L 344.971636 192.950906 
L 346.189091 194.917266 
L 346.493455 195.088739 
L 347.102182 194.856794 
L 348.015273 194.001235 
L 348.624 194.049225 
L 350.145818 194.863215 
L 350.754545 194.671405 
L 351.972 194.057916 
L 352.580727 193.979791 
L 353.493818 194.172345 
L 354.102545 193.763086 
L 355.624364 192.365847 
L 355.928727 192.385265 
L 356.537455 192.950874 
L 357.146182 193.105986 
L 357.754909 192.971052 
L 358.363636 192.839555 
L 358.972364 192.99042 
L 359.885455 193.392913 
L 360.494182 193.216449 
L 361.102909 193.291924 
L 361.407273 193.664685 
L 362.016 195.352487 
L 362.320364 195.271256 
L 362.929091 194.075211 
L 363.233455 194.141539 
L 363.842182 194.513527 
L 364.450909 194.584064 
L 366.277091 194.070515 
L 366.581455 193.686301 
L 366.885818 193.56695 
L 368.103273 195.174235 
L 368.407636 195.252845 
L 368.712 194.921725 
L 369.320727 193.933088 
L 370.538182 193.056142 
L 370.842545 192.9521 
L 371.451273 193.340766 
L 371.755636 193.177784 
L 372.364364 192.239558 
L 372.668727 192.301164 
L 373.581818 193.085119 
L 373.581818 193.085119 
" clip-path="url(#p09c3fbe8e2)" style="fill: none; stroke: #1f77b4; stroke-width: 1.5; stroke-linecap: square"/>
   </g>
   <g id="line2d_12">
    <path d="M 69.218182 44.641566 
L 69.522545 44.995292 
L 69.826909 46.057152 
L 70.131273 47.82921 
L 70.74 53.629009 
L 71.348727 62.626264 
L 71.957455 75.179453 
L 72.566182 91.980369 
L 73.174909 116.14525 
L 74.088 152.334003 
L 74.392364 159.481209 
L 74.696727 161.143138 
L 75.305455 159.0615 
L 75.609818 158.075926 
L 75.914182 156.635408 
L 76.827273 149.871279 
L 77.436 145.645362 
L 77.740364 144.368102 
L 78.044727 143.630493 
L 78.349091 143.52907 
L 78.653455 144.068832 
L 78.957818 145.282606 
L 79.566545 149.946758 
L 80.175273 157.839486 
L 82.001455 187.112156 
L 82.305818 189.365344 
L 82.610182 190.040459 
L 82.914545 189.883418 
L 84.132 190.058325 
L 85.045091 189.750982 
L 85.653818 189.571177 
L 86.262545 189.613953 
L 86.871273 189.886286 
L 87.784364 190.754012 
L 88.088727 190.717141 
L 88.697455 190.495321 
L 89.001818 190.547685 
L 89.306182 190.736672 
L 89.610545 191.178662 
L 90.219273 192.324536 
L 90.828 192.727354 
L 92.654182 193.732604 
L 93.262909 194.421361 
L 93.871636 194.668425 
L 94.784727 194.780515 
L 95.393455 194.592959 
L 95.697818 194.388512 
L 96.610909 193.385636 
L 97.219636 193.226817 
L 98.132727 192.090793 
L 98.437091 192.108518 
L 98.741455 192.307428 
L 99.045818 192.668426 
L 99.654545 193.69028 
L 99.958909 193.793027 
L 100.567636 193.733454 
L 101.176364 193.804889 
L 101.480727 193.556157 
L 101.785091 193.154322 
L 102.089455 193.013612 
L 102.393818 193.214113 
L 102.698182 193.650626 
L 103.002545 194.38507 
L 103.611273 196.247922 
L 103.915636 196.19086 
L 104.828727 194.971826 
L 105.133091 194.711363 
L 105.437455 194.828888 
L 105.741818 195.188485 
L 106.046182 195.344381 
L 106.350545 195.224895 
L 106.654909 194.943022 
L 106.959273 194.463834 
L 107.568 193.171378 
L 108.176727 192.654934 
L 108.481091 192.60492 
L 109.394182 192.906913 
L 110.611636 192.93162 
L 112.133455 193.228714 
L 112.437818 193.129058 
L 113.046545 192.73336 
L 113.350909 193.087948 
L 113.959636 194.17109 
L 114.264 194.340759 
L 114.872727 194.343682 
L 116.090182 193.825835 
L 116.394545 193.890298 
L 117.003273 194.376191 
L 117.307636 194.187505 
L 117.916364 193.556144 
L 118.525091 193.661083 
L 119.438182 194.017062 
L 120.046909 193.656138 
L 120.96 193.017327 
L 121.264364 193.124306 
L 121.873091 193.510246 
L 122.481818 193.334349 
L 123.394909 192.530665 
L 123.699273 192.638209 
L 124.003636 192.950425 
L 124.308 193.478336 
L 124.916727 195.064065 
L 125.525455 195.849419 
L 125.829818 195.891374 
L 126.742909 194.936905 
L 127.351636 194.700164 
L 128.873455 193.039279 
L 129.177818 193.0333 
L 129.786545 193.351063 
L 130.395273 193.874339 
L 130.699636 193.84299 
L 131.308364 193.295723 
L 131.917091 192.399024 
L 132.221455 192.29866 
L 132.830182 192.819515 
L 134.047636 193.141479 
L 134.960727 193.947811 
L 135.569455 194.839015 
L 135.873818 195.325528 
L 136.178182 195.383209 
L 136.786909 194.663017 
L 137.091273 194.778992 
L 137.7 195.258227 
L 138.917455 195.323145 
L 139.526182 195.64974 
L 139.830545 195.868129 
L 140.134909 195.891343 
L 140.743636 195.634128 
L 141.656727 196.706687 
L 142.569818 195.733441 
L 143.178545 195.613487 
L 144.091636 196.084492 
L 146.222182 195.15924 
L 148.048364 193.495667 
L 149.265818 191.380483 
L 149.570182 191.258445 
L 152.613818 194.171919 
L 153.831273 195.806059 
L 154.135636 195.955545 
L 154.44 195.907451 
L 155.048727 195.523518 
L 155.657455 195.373727 
L 156.266182 194.889382 
L 156.874909 194.011634 
L 157.483636 193.01415 
L 158.092364 192.512448 
L 158.396727 192.428341 
L 158.701091 192.461666 
L 159.005455 192.722655 
L 159.918545 194.487386 
L 160.527273 194.789669 
L 161.136 194.961057 
L 161.440364 194.861465 
L 162.353455 194.042803 
L 162.657818 193.8742 
L 162.962182 193.833836 
L 164.484 194.605723 
L 165.092727 195.166271 
L 165.397091 195.225379 
L 166.614545 194.368374 
L 167.223273 193.705393 
L 167.832 193.030954 
L 168.440727 192.73363 
L 169.049455 192.917373 
L 169.962545 193.290504 
L 170.266909 193.186274 
L 170.875636 192.66578 
L 171.484364 191.883388 
L 171.788727 191.69358 
L 172.093091 191.646101 
L 172.397455 191.717997 
L 173.006182 192.214014 
L 173.614909 193.242566 
L 174.223636 194.289928 
L 174.832364 195.094676 
L 175.441091 196.109477 
L 175.745455 196.086061 
L 176.658545 194.712167 
L 177.571636 193.325899 
L 177.876 193.0114 
L 178.180364 192.915124 
L 178.789091 193.088509 
L 180.006545 193.785906 
L 180.310909 194.0984 
L 181.224 195.966827 
L 181.528364 196.040863 
L 181.832727 195.892115 
L 182.137091 195.478461 
L 182.745818 194.358795 
L 183.354545 193.753793 
L 183.963273 193.50251 
L 185.180727 193.214073 
L 186.702545 193.617718 
L 187.311273 193.225794 
L 187.615636 193.516356 
L 188.224364 194.693291 
L 188.833091 195.314384 
L 189.137455 195.442384 
L 190.050545 195.292178 
L 190.659273 195.023032 
L 191.268 194.44712 
L 191.876727 194.299868 
L 195.224727 194.174984 
L 196.137818 194.54083 
L 197.050909 194.760758 
L 197.659636 194.75058 
L 198.572727 195.205788 
L 199.181455 194.545222 
L 199.485818 194.727052 
L 200.094545 195.637302 
L 200.703273 195.996014 
L 201.007636 195.853686 
L 201.616364 194.955184 
L 202.529455 193.297268 
L 203.138182 193.053293 
L 204.051273 192.092253 
L 204.964364 192.668997 
L 205.573091 192.577474 
L 206.790545 192.723333 
L 207.094909 192.725087 
L 207.399273 192.970435 
L 208.008 193.64769 
L 209.529818 193.645447 
L 210.138545 193.95562 
L 210.442909 193.845488 
L 211.051636 192.908641 
L 211.356 192.835834 
L 211.660364 192.995972 
L 211.964727 193.305454 
L 213.182182 195.29281 
L 213.486545 195.513591 
L 213.790909 195.356372 
L 214.095273 195.022661 
L 214.399636 194.918774 
L 215.008364 195.250756 
L 215.312727 195.11848 
L 215.921455 194.630517 
L 216.530182 194.579201 
L 217.138909 194.853221 
L 217.747636 195.09637 
L 218.356364 195.216539 
L 218.965091 195.387848 
L 219.269455 195.097815 
L 219.878182 194.271133 
L 220.486909 194.29176 
L 220.791273 194.108227 
L 222.008727 192.804472 
L 222.313091 192.672772 
L 222.921818 192.819334 
L 223.834909 193.428573 
L 224.443636 193.372092 
L 224.748 193.564976 
L 225.356727 194.215989 
L 225.661091 194.24891 
L 225.965455 194.133912 
L 226.269818 193.867105 
L 226.878545 192.933367 
L 227.182909 192.720738 
L 227.791636 192.67044 
L 229.313455 193.382873 
L 230.226545 193.393375 
L 230.835273 193.270452 
L 231.748364 193.418749 
L 232.661455 192.749335 
L 233.270182 192.698237 
L 233.878909 192.45723 
L 234.183273 192.546911 
L 235.096364 193.437066 
L 236.922545 194.544835 
L 237.531273 194.485252 
L 237.835636 194.401591 
L 238.14 194.479259 
L 238.748727 194.949586 
L 239.053091 194.86898 
L 239.966182 194.267765 
L 240.574909 193.849166 
L 241.183636 193.306359 
L 241.792364 193.165481 
L 242.096727 193.343111 
L 242.705455 194.141899 
L 243.314182 194.44478 
L 244.227273 194.663389 
L 245.444727 194.425702 
L 246.966545 195.002527 
L 247.270909 195.323336 
L 247.575273 195.346431 
L 248.488364 194.307345 
L 249.097091 194.334844 
L 250.314545 194.764023 
L 250.923273 194.893157 
L 251.532 194.982706 
L 252.140727 195.374506 
L 253.053818 196.161012 
L 253.358182 195.924161 
L 254.88 193.96228 
L 256.097455 193.507236 
L 256.401818 193.700109 
L 258.228 195.879353 
L 259.749818 196.940866 
L 260.358545 196.939132 
L 260.662909 196.843281 
L 260.967273 196.59764 
L 261.880364 195.206891 
L 262.184727 195.124601 
L 262.489091 195.167984 
L 263.097818 195.609776 
L 264.010909 196.320801 
L 264.315273 196.303095 
L 264.924 195.866431 
L 265.837091 194.771468 
L 266.750182 194.514328 
L 267.358909 194.288303 
L 268.272 194.429024 
L 268.880727 194.375092 
L 269.793818 194.846125 
L 270.402545 194.711654 
L 271.315636 194.334211 
L 271.62 194.31233 
L 271.924364 194.408269 
L 272.228727 194.748999 
L 272.837455 195.620355 
L 273.446182 195.666069 
L 274.359273 195.583182 
L 274.968 196.020525 
L 275.272364 195.87404 
L 275.881091 194.641162 
L 276.185455 194.389258 
L 276.489818 194.338772 
L 276.794182 194.412689 
L 277.707273 195.107992 
L 278.316 195.165116 
L 278.924727 195.609736 
L 279.229091 196.056578 
L 279.837818 197.352771 
L 280.142182 196.958255 
L 280.750909 195.311536 
L 282.272727 194.344174 
L 282.881455 194.318917 
L 283.185818 194.46991 
L 285.316364 196.404874 
L 285.925091 196.645353 
L 286.229455 196.49415 
L 287.446909 194.197741 
L 287.751273 193.963344 
L 288.055636 194.063404 
L 288.36 194.372725 
L 288.664364 194.35548 
L 289.273091 193.17536 
L 289.577455 192.93916 
L 290.186182 193.079772 
L 290.794909 193.507843 
L 292.925455 195.366082 
L 293.229818 195.707955 
L 293.534182 195.864375 
L 294.142909 195.925924 
L 294.751636 196.468226 
L 295.056 196.343687 
L 295.969091 194.856684 
L 296.882182 194.195093 
L 297.186545 194.11417 
L 297.490909 194.229356 
L 298.404 194.983706 
L 298.708364 195.114434 
L 299.012727 195.100976 
L 299.621455 194.752007 
L 300.534545 194.820681 
L 301.143273 194.304462 
L 301.447636 194.441939 
L 302.056364 195.152504 
L 302.360727 195.141084 
L 303.578182 194.684066 
L 304.491273 194.624615 
L 305.1 194.217428 
L 306.013091 193.442978 
L 306.926182 193.248833 
L 307.534909 192.604804 
L 307.839273 192.621784 
L 308.448 192.885596 
L 309.056727 192.880664 
L 309.665455 193.329966 
L 310.274182 194.177545 
L 310.578545 194.660997 
L 310.882909 194.842892 
L 311.491636 194.561206 
L 312.404727 193.82166 
L 313.013455 194.169869 
L 314.839636 195.185636 
L 315.448364 194.639946 
L 315.752727 194.820872 
L 316.057091 195.159174 
L 316.361455 195.242792 
L 316.970182 194.702864 
L 317.274545 194.823331 
L 317.883273 195.480147 
L 319.100727 195.975647 
L 319.709455 196.096799 
L 320.318182 196.036558 
L 321.84 195.404762 
L 322.448727 194.700157 
L 322.753091 194.5426 
L 323.361818 194.564738 
L 324.274909 194.133738 
L 325.492364 194.814866 
L 325.796727 194.801514 
L 327.014182 193.865946 
L 327.622909 193.558982 
L 327.927273 193.370352 
L 328.231636 193.383199 
L 328.536 193.594928 
L 328.840364 193.968284 
L 330.057818 196.334825 
L 330.362182 196.568816 
L 330.666545 196.554724 
L 331.275273 195.918105 
L 332.188364 194.440771 
L 332.797091 194.146256 
L 334.623273 193.754367 
L 335.536364 193.490535 
L 335.840727 193.487581 
L 336.145091 193.669854 
L 336.753818 194.498988 
L 337.058182 194.531647 
L 337.971273 194.107721 
L 338.275636 194.053558 
L 338.884364 194.30489 
L 339.493091 194.856694 
L 339.797455 195.182994 
L 340.101818 195.256725 
L 340.710545 194.809875 
L 341.014909 194.918077 
L 341.623636 195.326431 
L 342.232364 195.156743 
L 344.058545 194.320995 
L 344.667273 193.596842 
L 344.971636 193.668566 
L 345.580364 194.215701 
L 346.189091 194.514636 
L 347.102182 195.586137 
L 347.406545 195.526179 
L 348.015273 195.214487 
L 348.928364 195.059222 
L 349.537091 194.863179 
L 350.145818 195.135761 
L 350.450182 194.93976 
L 351.058909 194.153775 
L 351.363273 194.074288 
L 351.972 194.238053 
L 352.885091 194.807054 
L 354.102545 195.131907 
L 354.711273 194.895954 
L 355.32 194.391207 
L 355.928727 193.89176 
L 357.146182 193.455781 
L 357.450545 193.200187 
L 358.059273 192.354157 
L 358.363636 192.198332 
L 358.972364 192.321962 
L 359.581091 192.666767 
L 361.407273 194.004272 
L 362.016 195.019234 
L 362.320364 195.209689 
L 362.929091 195.207942 
L 363.537818 195.648761 
L 363.842182 195.420581 
L 364.450909 194.127259 
L 364.755273 193.943961 
L 365.364 194.0395 
L 366.277091 194.368273 
L 366.581455 194.3299 
L 366.885818 194.545447 
L 367.494545 196.213526 
L 367.798909 196.298477 
L 368.407636 194.97246 
L 369.016364 194.475507 
L 369.625091 193.910536 
L 370.233818 193.349713 
L 370.842545 193.003085 
L 371.755636 192.858568 
L 372.668727 192.203538 
L 372.973091 192.064828 
L 373.277455 192.220482 
L 373.581818 192.800243 
L 373.581818 192.800243 
" clip-path="url(#p09c3fbe8e2)" style="fill: none; stroke: #ff7f0e; stroke-width: 1.5; stroke-linecap: square"/>
   </g>
   <g id="line2d_13">
    <path d="M 69.218182 44.642211 
L 69.522545 44.996713 
L 69.826909 46.059331 
L 70.131273 47.832135 
L 70.74 53.633986 
L 71.348727 62.634901 
L 71.957455 75.195823 
L 72.566182 92.008748 
L 73.174909 115.213701 
L 73.783636 145.909768 
L 74.392364 178.819055 
L 74.696727 183.38226 
L 75.001091 183.153403 
L 75.305455 182.054921 
L 75.914182 175.878205 
L 76.522909 173.015805 
L 76.827273 172.616551 
L 77.131636 172.93989 
L 77.436 173.976519 
L 77.740364 175.7619 
L 78.349091 181.408993 
L 78.957818 190.298933 
L 79.262182 191.921352 
L 79.870909 189.597006 
L 80.175273 189.923302 
L 80.479636 190.911782 
L 80.784 192.630078 
L 81.392727 198.3187 
L 81.697091 199.764502 
L 82.001455 200.318534 
L 82.305818 200.387783 
L 82.914545 198.839115 
L 83.218909 199.233896 
L 83.523273 201.016639 
L 83.827636 201.741695 
L 84.132 199.522554 
L 84.740727 192.764553 
L 85.349455 188.462442 
L 85.653818 187.397381 
L 85.958182 187.043609 
L 86.262545 187.408029 
L 86.566909 188.481513 
L 86.871273 190.285939 
L 87.175636 193.149433 
L 87.784364 200.505311 
L 88.088727 200.28664 
L 88.393091 198.427758 
L 88.697455 197.3439 
L 89.001818 196.934856 
L 89.306182 197.104755 
L 89.610545 198.096634 
L 89.914909 199.810476 
L 90.523636 205.552311 
L 91.132364 214.222262 
L 91.741091 224.68109 
L 92.045455 226.781702 
L 92.349818 227.541125 
L 92.958545 230.250443 
L 93.567273 232.939428 
L 93.871636 233.935095 
L 94.176 234.515625 
L 94.480364 234.487444 
L 94.784727 234.202657 
L 95.089091 234.177808 
L 95.393455 234.39452 
L 95.697818 234.114431 
L 96.002182 232.904055 
L 96.610909 228.929115 
L 97.219636 223.561766 
L 97.828364 220.833611 
L 98.132727 220.488882 
L 98.437091 221.264337 
L 98.741455 222.355709 
L 99.045818 222.788011 
L 99.350182 222.881431 
L 99.654545 222.056955 
L 100.872 212.610916 
L 101.176364 212.186367 
L 101.480727 212.538712 
L 101.785091 213.651775 
L 102.089455 215.34185 
L 102.698182 220.911498 
L 103.002545 221.605165 
L 103.915636 218.736445 
L 104.22 218.231689 
L 104.524364 218.525313 
L 105.133091 221.14213 
L 105.437455 221.368451 
L 105.741818 220.977148 
L 106.046182 220.00759 
L 106.654909 216.036823 
L 106.959273 214.977154 
L 107.263636 214.599678 
L 107.568 214.910015 
L 107.872364 216.085408 
L 108.481091 219.979969 
L 109.089818 224.795838 
L 109.394182 224.772674 
L 110.002909 222.575413 
L 110.307273 222.373474 
L 110.611636 222.662079 
L 110.916 223.723372 
L 111.524727 227.634737 
L 112.437818 234.916602 
L 113.046545 237.93011 
L 113.350909 238.810695 
L 113.959636 239.585372 
L 114.264 239.827888 
L 114.568364 239.68864 
L 114.872727 238.680374 
L 115.481455 235.217511 
L 116.090182 233.203699 
L 116.394545 232.79738 
L 116.698909 232.919306 
L 117.612 233.889556 
L 117.916364 233.45621 
L 118.829455 228.602287 
L 119.133818 227.609932 
L 119.438182 227.236769 
L 119.742545 227.708838 
L 120.351273 230.202884 
L 120.96 234.033105 
L 121.568727 236.164535 
L 122.177455 237.353262 
L 123.090545 238.291274 
L 123.394909 238.396335 
L 123.699273 238.22518 
L 124.916727 237.090508 
L 125.221091 237.249743 
L 125.829818 238.183737 
L 126.438545 239.627873 
L 127.656 244.130478 
L 127.960364 244.455294 
L 128.264727 244.280828 
L 128.873455 242.720946 
L 129.177818 242.429153 
L 129.482182 242.302749 
L 129.786545 241.827688 
L 131.004 238.211269 
L 131.308364 237.687899 
L 131.612727 237.46855 
L 132.525818 237.433291 
L 132.830182 237.404887 
L 134.352 236.259579 
L 134.960727 236.421767 
L 135.265091 236.768522 
L 136.178182 238.802419 
L 136.482545 238.939316 
L 136.786909 238.839742 
L 137.091273 238.44846 
L 138.004364 236.84026 
L 138.308727 236.460628 
L 138.613091 236.281473 
L 139.221818 236.309448 
L 140.439273 236.722816 
L 140.743636 236.759738 
L 141.352364 237.114455 
L 141.656727 236.983125 
L 142.265455 235.811619 
L 144.091636 230.939977 
L 144.396 230.607242 
L 144.700364 230.630014 
L 145.004727 231.270589 
L 145.613455 233.06222 
L 145.917818 233.712399 
L 146.222182 234.0951 
L 146.526545 233.936764 
L 148.657091 229.749287 
L 149.265818 228.07292 
L 149.570182 227.659721 
L 149.874545 227.650763 
L 150.178909 228.006473 
L 150.483273 228.833163 
L 151.396364 232.208697 
L 152.005091 233.552192 
L 152.309455 233.769766 
L 152.613818 233.788393 
L 152.918182 233.56712 
L 153.526909 232.992309 
L 154.744364 232.884781 
L 155.048727 232.655543 
L 155.657455 231.588268 
L 155.961818 231.393815 
L 156.570545 231.635817 
L 157.483636 232.110621 
L 158.092364 231.917876 
L 158.396727 232.089547 
L 158.701091 232.392059 
L 159.005455 232.264294 
L 159.309818 231.572403 
L 159.918545 229.174589 
L 161.440364 220.957734 
L 162.049091 218.944995 
L 162.353455 218.873301 
L 162.657818 219.388056 
L 162.962182 220.324695 
L 164.484 227.540622 
L 164.788364 227.73343 
L 165.397091 227.337686 
L 166.005818 227.181487 
L 166.918909 226.747158 
L 168.136364 227.876188 
L 168.745091 227.964544 
L 169.658182 227.742764 
L 170.266909 227.425946 
L 170.875636 227.07654 
L 171.484364 227.188619 
L 172.093091 227.70748 
L 172.397455 228.090587 
L 173.006182 229.263496 
L 173.310545 229.203103 
L 174.832364 225.728544 
L 175.745455 225.101671 
L 176.354182 224.403714 
L 176.658545 224.500967 
L 177.267273 224.892779 
L 177.876 225.0211 
L 178.789091 226.480206 
L 179.397818 226.495449 
L 179.702182 226.842769 
L 180.919636 229.054409 
L 181.528364 229.934972 
L 181.832727 230.120256 
L 182.137091 229.734725 
L 182.745818 228.518629 
L 183.050182 228.347576 
L 183.658909 228.352546 
L 184.267636 228.676292 
L 185.180727 229.493117 
L 185.789455 229.555185 
L 186.702545 230.078759 
L 188.224364 229.009734 
L 189.441818 229.096812 
L 189.746182 229.087074 
L 190.659273 229.921403 
L 191.572364 229.384484 
L 192.181091 229.427464 
L 193.094182 229.068433 
L 194.007273 229.313519 
L 194.616 229.348203 
L 195.224727 229.665099 
L 195.529091 229.455505 
L 196.137818 228.669387 
L 197.050909 228.453516 
L 197.659636 227.706153 
L 198.268364 226.455049 
L 198.572727 226.237633 
L 199.181455 227.056412 
L 199.485818 227.148706 
L 199.790182 227.051204 
L 200.094545 227.147815 
L 200.703273 228.129752 
L 201.920727 231.002593 
L 202.225091 231.089403 
L 202.529455 230.982392 
L 203.746909 229.63766 
L 204.051273 229.491919 
L 204.964364 229.454983 
L 205.877455 228.750021 
L 206.486182 228.319046 
L 207.094909 227.571183 
L 207.399273 227.713599 
L 209.225455 230.293826 
L 209.529818 230.452581 
L 210.138545 230.439166 
L 211.051636 230.511943 
L 211.660364 230.728298 
L 212.269091 231.196609 
L 214.095273 233.060723 
L 214.399636 233.116614 
L 215.008364 232.605239 
L 216.225818 231.507554 
L 216.530182 231.377164 
L 216.834545 231.385639 
L 217.443273 231.727265 
L 218.356364 232.523578 
L 219.269455 233.575587 
L 219.878182 234.257272 
L 220.182545 234.3064 
L 220.486909 234.18052 
L 220.791273 233.787399 
L 221.4 232.493152 
L 222.008727 231.886561 
L 222.921818 231.346624 
L 223.226182 231.477611 
L 223.834909 232.222394 
L 224.443636 233.526771 
L 224.748 233.796728 
L 225.356727 233.764271 
L 226.269818 234.400218 
L 226.878545 234.240736 
L 227.487273 234.431965 
L 228.096 234.846074 
L 228.400364 235.059833 
L 228.704727 235.087693 
L 229.313455 234.762874 
L 230.226545 233.840402 
L 231.444 233.763338 
L 231.748364 233.863313 
L 232.357091 234.430143 
L 233.270182 235.553297 
L 233.574545 235.292928 
L 234.792 233.426638 
L 235.096364 233.353715 
L 235.705091 233.676298 
L 236.313818 234.246654 
L 237.531273 235.825 
L 238.748727 237.547937 
L 239.053091 237.45827 
L 239.661818 236.638438 
L 240.270545 235.508053 
L 240.574909 235.224486 
L 240.879273 235.1273 
L 241.183636 235.255991 
L 242.401091 237.133242 
L 242.705455 237.295515 
L 243.009818 237.188202 
L 243.922909 236.481671 
L 244.227273 236.427083 
L 244.531636 236.810391 
L 245.140364 238.1484 
L 245.444727 238.33388 
L 246.053455 238.49833 
L 246.966545 238.954574 
L 247.575273 239.050083 
L 248.184 238.901673 
L 249.097091 239.111002 
L 250.010182 237.814619 
L 250.923273 238.151705 
L 251.532 238.014124 
L 253.053818 237.114496 
L 253.662545 236.573584 
L 253.966909 236.478439 
L 254.575636 236.654328 
L 255.184364 236.970948 
L 255.488727 236.964591 
L 256.097455 236.451601 
L 256.401818 236.42878 
L 256.706182 236.550969 
L 257.010545 236.921835 
L 259.141091 242.161208 
L 259.445455 242.447854 
L 259.749818 242.270196 
L 260.358545 241.35855 
L 260.967273 239.977267 
L 261.880364 237.522798 
L 262.184727 237.221987 
L 262.793455 237.065257 
L 263.097818 237.194683 
L 263.402182 237.542579 
L 264.010909 238.869769 
L 264.924 241.120008 
L 265.228364 241.155394 
L 265.532727 241.05521 
L 265.837091 241.311573 
L 266.750182 242.721737 
L 268.272 244.044667 
L 268.880727 244.253816 
L 269.489455 244.126107 
L 269.793818 243.836006 
L 271.011273 241.821967 
L 271.924364 240.139866 
L 272.228727 240.095772 
L 272.837455 240.715785 
L 273.750545 241.879977 
L 274.359273 242.31474 
L 274.968 243.244355 
L 276.185455 245.524534 
L 276.794182 246.013915 
L 277.402909 246.24 
L 278.011636 246.077596 
L 278.924727 245.337867 
L 279.229091 244.399347 
L 280.142182 239.902798 
L 280.446545 239.125724 
L 280.750909 238.669013 
L 281.055273 238.613658 
L 281.664 238.967356 
L 282.272727 239.462225 
L 283.185818 239.385197 
L 283.490182 239.382921 
L 283.794545 239.493231 
L 284.403273 240.363663 
L 285.012 241.109987 
L 285.925091 241.795843 
L 286.229455 241.934909 
L 286.838182 241.920264 
L 287.142545 242.160944 
L 287.751273 243.164011 
L 288.055636 242.882816 
L 288.664364 241.615333 
L 289.273091 240.87897 
L 290.186182 238.678871 
L 290.490545 238.646222 
L 291.099273 239.323704 
L 291.708 240.438366 
L 292.316727 240.828891 
L 293.229818 241.031286 
L 293.534182 240.703725 
L 294.751636 238.537223 
L 295.056 238.266664 
L 295.664727 238.193267 
L 296.577818 238.48091 
L 297.186545 238.629489 
L 297.490909 238.432065 
L 298.099636 237.574331 
L 298.708364 236.286145 
L 299.012727 235.963822 
L 299.317091 235.941868 
L 299.621455 236.092774 
L 300.838909 237.330013 
L 301.143273 237.230825 
L 301.447636 236.692209 
L 302.056364 234.708874 
L 302.969455 231.279802 
L 303.273818 230.814291 
L 303.578182 230.663462 
L 303.882545 230.831176 
L 304.186909 231.305231 
L 304.491273 232.009198 
L 305.708727 236.07513 
L 306.013091 236.615409 
L 306.317455 236.524687 
L 306.926182 235.549282 
L 307.534909 234.200154 
L 308.143636 233.617289 
L 308.448 233.50912 
L 309.361091 233.710709 
L 309.665455 233.849867 
L 309.969818 233.199402 
L 310.578545 228.770064 
L 311.796 219.425952 
L 312.100364 217.901609 
L 312.404727 216.972503 
L 312.709091 216.639245 
L 313.013455 216.880691 
L 313.317818 217.711326 
L 313.926545 221.004039 
L 315.144 230.567201 
L 315.448364 232.006298 
L 315.752727 232.749502 
L 316.057091 232.96869 
L 316.361455 232.946279 
L 316.970182 232.13512 
L 317.274545 232.252047 
L 319.405091 235.30594 
L 319.709455 234.985608 
L 321.231273 231.574868 
L 321.535636 231.183594 
L 321.84 231.116538 
L 322.144364 231.51723 
L 322.753091 232.646465 
L 323.361818 233.696876 
L 324.274909 236.432037 
L 324.579273 236.245836 
L 325.492364 235.137111 
L 326.101091 234.551157 
L 326.405455 234.364743 
L 326.709818 234.353703 
L 327.014182 234.499985 
L 327.318545 234.773595 
L 327.927273 235.866566 
L 328.231636 236.070558 
L 328.840364 235.4808 
L 330.666545 234.017191 
L 331.275273 234.585193 
L 332.188364 234.929587 
L 333.405818 236.100558 
L 334.318909 236.57759 
L 334.623273 236.39123 
L 336.145091 234.304302 
L 336.753818 233.793138 
L 337.058182 233.922161 
L 338.275636 235.167808 
L 338.58 235.285406 
L 339.493091 235.153965 
L 340.101818 235.06267 
L 340.406182 235.25271 
L 340.710545 235.215308 
L 341.014909 234.555719 
L 342.232364 230.464813 
L 342.841091 228.988517 
L 343.145455 228.57331 
L 343.449818 228.552327 
L 344.362909 229.33376 
L 345.580364 230.862749 
L 347.102182 234.870131 
L 347.710909 235.621098 
L 348.015273 235.802798 
L 348.319636 235.854802 
L 348.624 235.789658 
L 349.232727 235.280145 
L 350.450182 234.139125 
L 350.754545 233.915222 
L 351.058909 233.886982 
L 351.972 234.905599 
L 352.580727 234.788667 
L 352.885091 235.199177 
L 353.493818 236.207887 
L 354.102545 236.266783 
L 355.928727 236.352924 
L 356.841818 235.824224 
L 358.059273 235.648719 
L 358.363636 235.794115 
L 358.972364 236.25708 
L 359.581091 236.19593 
L 360.189818 235.809802 
L 360.494182 235.47296 
L 362.929091 231.494356 
L 363.233455 231.238468 
L 363.537818 231.148481 
L 363.842182 231.398265 
L 364.146545 232.11914 
L 364.450909 232.467176 
L 364.755273 231.789906 
L 366.277091 225.802895 
L 366.885818 224.406857 
L 367.798909 223.589241 
L 369.320727 220.923855 
L 370.538182 218.692147 
L 370.842545 217.593858 
L 372.06 209.861565 
L 372.364364 208.81608 
L 372.668727 208.542896 
L 372.973091 208.872755 
L 373.277455 209.633815 
L 373.581818 211.05182 
L 373.581818 211.05182 
" clip-path="url(#p09c3fbe8e2)" style="fill: none; stroke: #2ca02c; stroke-width: 1.5; stroke-linecap: square"/>
   </g>
   <g id="line2d_14">
    <path d="M 69.218182 197.301438 
L 373.581818 197.301438 
" clip-path="url(#p09c3fbe8e2)" style="fill: none; stroke-dasharray: 5.55,2.4; stroke-dashoffset: 0; stroke: #d62728; stroke-width: 1.5"/>
   </g>
   <g id="patch_3">
    <path d="M 54 256.32 
L 54 34.56 
" style="fill: none; stroke: #000000; stroke-width: 0.8; stroke-linejoin: miter; stroke-linecap: square"/>
   </g>
   <g id="patch_4">
    <path d="M 388.8 256.32 
L 388.8 34.56 
" style="fill: none; stroke: #000000; stroke-width: 0.8; stroke-linejoin: miter; stroke-linecap: square"/>
   </g>
   <g id="patch_5">
    <path d="M 54 256.32 
L 388.8 256.32 
" style="fill: none; stroke: #000000; stroke-width: 0.8; stroke-linejoin: miter; stroke-linecap: square"/>
   </g>
   <g id="patch_6">
    <path d="M 54 34.56 
L 388.8 34.56 
" style="fill: none; stroke: #000000; stroke-width: 0.8; stroke-linejoin: miter; stroke-linecap: square"/>
   </g>
   <g id="legend_1">
    <g id="patch_7">
     <path d="M 246.14375 101.2725 
L 381.8 101.2725 
Q 383.8 101.2725 383.8 99.2725 
L 383.8 41.56 
Q 383.8 39.56 381.8 39.56 
L 246.14375 39.56 
Q 244.14375 39.56 244.14375 41.56 
L 244.14375 99.2725 
Q 244.14375 101.2725 246.14375 101.2725 
z
" style="fill: #ffffff; opacity: 0.8; stroke: #cccccc; stroke-linejoin: miter"/>
    </g>
    <g id="line2d_15">
     <path d="M 248.14375 47.658438 
L 258.14375 47.658438 
L 268.14375 47.658438 
" style="fill: none; stroke: #1f77b4; stroke-width: 1.5; stroke-linecap: square"/>
    </g>
    <g id="text_11">
     <!-- magnetic sensitive -->
     <g transform="translate(276.14375 51.158438)scale(0.1 -0.1)">
      <defs>
       <path id="DejaVuSans-6d" d="M 3328 2828 
Q 3544 3216 3844 3400 
Q 4144 3584 4550 3584 
Q 5097 3584 5394 3201 
Q 5691 2819 5691 2113 
L 5691 0 
L 5113 0 
L 5113 2094 
Q 5113 2597 4934 2840 
Q 4756 3084 4391 3084 
Q 3944 3084 3684 2787 
Q 3425 2491 3425 1978 
L 3425 0 
L 2847 0 
L 2847 2094 
Q 2847 2600 2669 2842 
Q 2491 3084 2119 3084 
Q 1678 3084 1418 2786 
Q 1159 2488 1159 1978 
L 1159 0 
L 581 0 
L 581 3500 
L 1159 3500 
L 1159 2956 
Q 1356 3278 1631 3431 
Q 1906 3584 2284 3584 
Q 2666 3584 2933 3390 
Q 3200 3197 3328 2828 
z
" transform="scale(0.015625)"/>
       <path id="DejaVuSans-61" d="M 2194 1759 
Q 1497 1759 1228 1600 
Q 959 1441 959 1056 
Q 959 750 1161 570 
Q 1363 391 1709 391 
Q 2188 391 2477 730 
Q 2766 1069 2766 1631 
L 2766 1759 
L 2194 1759 
z
M 3341 1997 
L 3341 0 
L 2766 0 
L 2766 531 
Q 2569 213 2275 61 
Q 1981 -91 1556 -91 
Q 1019 -91 701 211 
Q 384 513 384 1019 
Q 384 1609 779 1909 
Q 1175 2209 1959 2209 
L 2766 2209 
L 2766 2266 
Q 2766 2663 2505 2880 
Q 2244 3097 1772 3097 
Q 1472 3097 1187 3025 
Q 903 2953 641 2809 
L 641 3341 
Q 956 3463 1253 3523 
Q 1550 3584 1831 3584 
Q 2591 3584 2966 3190 
Q 3341 2797 3341 1997 
z
" transform="scale(0.015625)"/>
       <path id="DejaVuSans-67" d="M 2906 1791 
Q 2906 2416 2648 2759 
Q 2391 3103 1925 3103 
Q 1463 3103 1205 2759 
Q 947 2416 947 1791 
Q 947 1169 1205 825 
Q 1463 481 1925 481 
Q 2391 481 2648 825 
Q 2906 1169 2906 1791 
z
M 3481 434 
Q 3481 -459 3084 -895 
Q 2688 -1331 1869 -1331 
Q 1566 -1331 1297 -1286 
Q 1028 -1241 775 -1147 
L 775 -588 
Q 1028 -725 1275 -790 
Q 1522 -856 1778 -856 
Q 2344 -856 2625 -561 
Q 2906 -266 2906 331 
L 2906 616 
Q 2728 306 2450 153 
Q 2172 0 1784 0 
Q 1141 0 747 490 
Q 353 981 353 1791 
Q 353 2603 747 3093 
Q 1141 3584 1784 3584 
Q 2172 3584 2450 3431 
Q 2728 3278 2906 2969 
L 2906 3500 
L 3481 3500 
L 3481 434 
z
" transform="scale(0.015625)"/>
       <path id="DejaVuSans-6e" d="M 3513 2113 
L 3513 0 
L 2938 0 
L 2938 2094 
Q 2938 2591 2744 2837 
Q 2550 3084 2163 3084 
Q 1697 3084 1428 2787 
Q 1159 2491 1159 1978 
L 1159 0 
L 581 0 
L 581 3500 
L 1159 3500 
L 1159 2956 
Q 1366 3272 1645 3428 
Q 1925 3584 2291 3584 
Q 2894 3584 3203 3211 
Q 3513 2838 3513 2113 
z
" transform="scale(0.015625)"/>
       <path id="DejaVuSans-65" d="M 3597 1894 
L 3597 1613 
L 953 1613 
Q 991 1019 1311 708 
Q 1631 397 2203 397 
Q 2534 397 2845 478 
Q 3156 559 3463 722 
L 3463 178 
Q 3153 47 2828 -22 
Q 2503 -91 2169 -91 
Q 1331 -91 842 396 
Q 353 884 353 1716 
Q 353 2575 817 3079 
Q 1281 3584 2069 3584 
Q 2775 3584 3186 3129 
Q 3597 2675 3597 1894 
z
M 3022 2063 
Q 3016 2534 2758 2815 
Q 2500 3097 2075 3097 
Q 1594 3097 1305 2825 
Q 1016 2553 972 2059 
L 3022 2063 
z
" transform="scale(0.015625)"/>
       <path id="DejaVuSans-74" d="M 1172 4494 
L 1172 3500 
L 2356 3500 
L 2356 3053 
L 1172 3053 
L 1172 1153 
Q 1172 725 1289 603 
Q 1406 481 1766 481 
L 2356 481 
L 2356 0 
L 1766 0 
Q 1100 0 847 248 
Q 594 497 594 1153 
L 594 3053 
L 172 3053 
L 172 3500 
L 594 3500 
L 594 4494 
L 1172 4494 
z
" transform="scale(0.015625)"/>
       <path id="DejaVuSans-69" d="M 603 3500 
L 1178 3500 
L 1178 0 
L 603 0 
L 603 3500 
z
M 603 4863 
L 1178 4863 
L 1178 4134 
L 603 4134 
L 603 4863 
z
" transform="scale(0.015625)"/>
       <path id="DejaVuSans-63" d="M 3122 3366 
L 3122 2828 
Q 2878 2963 2633 3030 
Q 2388 3097 2138 3097 
Q 1578 3097 1268 2742 
Q 959 2388 959 1747 
Q 959 1106 1268 751 
Q 1578 397 2138 397 
Q 2388 397 2633 464 
Q 2878 531 3122 666 
L 3122 134 
Q 2881 22 2623 -34 
Q 2366 -91 2075 -91 
Q 1284 -91 818 406 
Q 353 903 353 1747 
Q 353 2603 823 3093 
Q 1294 3584 2113 3584 
Q 2378 3584 2631 3529 
Q 2884 3475 3122 3366 
z
" transform="scale(0.015625)"/>
       <path id="DejaVuSans-20" transform="scale(0.015625)"/>
       <path id="DejaVuSans-73" d="M 2834 3397 
L 2834 2853 
Q 2591 2978 2328 3040 
Q 2066 3103 1784 3103 
Q 1356 3103 1142 2972 
Q 928 2841 928 2578 
Q 928 2378 1081 2264 
Q 1234 2150 1697 2047 
L 1894 2003 
Q 2506 1872 2764 1633 
Q 3022 1394 3022 966 
Q 3022 478 2636 193 
Q 2250 -91 1575 -91 
Q 1294 -91 989 -36 
Q 684 19 347 128 
L 347 722 
Q 666 556 975 473 
Q 1284 391 1588 391 
Q 1994 391 2212 530 
Q 2431 669 2431 922 
Q 2431 1156 2273 1281 
Q 2116 1406 1581 1522 
L 1381 1569 
Q 847 1681 609 1914 
Q 372 2147 372 2553 
Q 372 3047 722 3315 
Q 1072 3584 1716 3584 
Q 2034 3584 2315 3537 
Q 2597 3491 2834 3397 
z
" transform="scale(0.015625)"/>
       <path id="DejaVuSans-76" d="M 191 3500 
L 800 3500 
L 1894 563 
L 2988 3500 
L 3597 3500 
L 2284 0 
L 1503 0 
L 191 3500 
z
" transform="scale(0.015625)"/>
      </defs>
      <use xlink:href="#DejaVuSans-6d"/>
      <use xlink:href="#DejaVuSans-61" x="97.412109"/>
      <use xlink:href="#DejaVuSans-67" x="158.691406"/>
      <use xlink:href="#DejaVuSans-6e" x="222.167969"/>
      <use xlink:href="#DejaVuSans-65" x="285.546875"/>
      <use xlink:href="#DejaVuSans-74" x="347.070312"/>
      <use xlink:href="#DejaVuSans-69" x="386.279297"/>
      <use xlink:href="#DejaVuSans-63" x="414.0625"/>
      <use xlink:href="#DejaVuSans-20" x="469.042969"/>
      <use xlink:href="#DejaVuSans-73" x="500.830078"/>
      <use xlink:href="#DejaVuSans-65" x="552.929688"/>
      <use xlink:href="#DejaVuSans-6e" x="614.453125"/>
      <use xlink:href="#DejaVuSans-73" x="677.832031"/>
      <use xlink:href="#DejaVuSans-69" x="729.931641"/>
      <use xlink:href="#DejaVuSans-74" x="757.714844"/>
      <use xlink:href="#DejaVuSans-69" x="796.923828"/>
      <use xlink:href="#DejaVuSans-76" x="824.707031"/>
      <use xlink:href="#DejaVuSans-65" x="883.886719"/>
     </g>
    </g>
    <g id="line2d_16">
     <path d="M 248.14375 62.336563 
L 258.14375 62.336563 
L 268.14375 62.336563 
" style="fill: none; stroke: #ff7f0e; stroke-width: 1.5; stroke-linecap: square"/>
    </g>
    <g id="text_12">
     <!-- magnetic insensitive -->
     <g transform="translate(276.14375 65.836563)scale(0.1 -0.1)">
      <use xlink:href="#DejaVuSans-6d"/>
      <use xlink:href="#DejaVuSans-61" x="97.412109"/>
      <use xlink:href="#DejaVuSans-67" x="158.691406"/>
      <use xlink:href="#DejaVuSans-6e" x="222.167969"/>
      <use xlink:href="#DejaVuSans-65" x="285.546875"/>
      <use xlink:href="#DejaVuSans-74" x="347.070312"/>
      <use xlink:href="#DejaVuSans-69" x="386.279297"/>
      <use xlink:href="#DejaVuSans-63" x="414.0625"/>
      <use xlink:href="#DejaVuSans-20" x="469.042969"/>
      <use xlink:href="#DejaVuSans-69" x="500.830078"/>
      <use xlink:href="#DejaVuSans-6e" x="528.613281"/>
      <use xlink:href="#DejaVuSans-73" x="591.992188"/>
      <use xlink:href="#DejaVuSans-65" x="644.091797"/>
      <use xlink:href="#DejaVuSans-6e" x="705.615234"/>
      <use xlink:href="#DejaVuSans-73" x="768.994141"/>
      <use xlink:href="#DejaVuSans-69" x="821.09375"/>
      <use xlink:href="#DejaVuSans-74" x="848.876953"/>
      <use xlink:href="#DejaVuSans-69" x="888.085938"/>
      <use xlink:href="#DejaVuSans-76" x="915.869141"/>
      <use xlink:href="#DejaVuSans-65" x="975.048828"/>
     </g>
    </g>
    <g id="line2d_17">
     <path d="M 248.14375 77.014688 
L 258.14375 77.014688 
L 268.14375 77.014688 
" style="fill: none; stroke: #2ca02c; stroke-width: 1.5; stroke-linecap: square"/>
    </g>
    <g id="text_13">
     <!-- electronic noise -->
     <g transform="translate(276.14375 80.514688)scale(0.1 -0.1)">
      <defs>
       <path id="DejaVuSans-6c" d="M 603 4863 
L 1178 4863 
L 1178 0 
L 603 0 
L 603 4863 
z
" transform="scale(0.015625)"/>
       <path id="DejaVuSans-72" d="M 2631 2963 
Q 2534 3019 2420 3045 
Q 2306 3072 2169 3072 
Q 1681 3072 1420 2755 
Q 1159 2438 1159 1844 
L 1159 0 
L 581 0 
L 581 3500 
L 1159 3500 
L 1159 2956 
Q 1341 3275 1631 3429 
Q 1922 3584 2338 3584 
Q 2397 3584 2469 3576 
Q 2541 3569 2628 3553 
L 2631 2963 
z
" transform="scale(0.015625)"/>
       <path id="DejaVuSans-6f" d="M 1959 3097 
Q 1497 3097 1228 2736 
Q 959 2375 959 1747 
Q 959 1119 1226 758 
Q 1494 397 1959 397 
Q 2419 397 2687 759 
Q 2956 1122 2956 1747 
Q 2956 2369 2687 2733 
Q 2419 3097 1959 3097 
z
M 1959 3584 
Q 2709 3584 3137 3096 
Q 3566 2609 3566 1747 
Q 3566 888 3137 398 
Q 2709 -91 1959 -91 
Q 1206 -91 779 398 
Q 353 888 353 1747 
Q 353 2609 779 3096 
Q 1206 3584 1959 3584 
z
" transform="scale(0.015625)"/>
      </defs>
      <use xlink:href="#DejaVuSans-65"/>
      <use xlink:href="#DejaVuSans-6c" x="61.523438"/>
      <use xlink:href="#DejaVuSans-65" x="89.306641"/>
      <use xlink:href="#DejaVuSans-63" x="150.830078"/>
      <use xlink:href="#DejaVuSans-74" x="205.810547"/>
      <use xlink:href="#DejaVuSans-72" x="245.019531"/>
      <use xlink:href="#DejaVuSans-6f" x="283.882812"/>
      <use xlink:href="#DejaVuSans-6e" x="345.064453"/>
      <use xlink:href="#DejaVuSans-69" x="408.443359"/>
      <use xlink:href="#DejaVuSans-63" x="436.226562"/>
      <use xlink:href="#DejaVuSans-20" x="491.207031"/>
      <use xlink:href="#DejaVuSans-6e" x="522.994141"/>
      <use xlink:href="#DejaVuSans-6f" x="586.373047"/>
      <use xlink:href="#DejaVuSans-69" x="647.554688"/>
      <use xlink:href="#DejaVuSans-73" x="675.337891"/>
      <use xlink:href="#DejaVuSans-65" x="727.4375"/>
     </g>
    </g>
    <g id="line2d_18">
     <path d="M 248.14375 91.692813 
L 258.14375 91.692813 
L 268.14375 91.692813 
" style="fill: none; stroke-dasharray: 5.55,2.4; stroke-dashoffset: 0; stroke: #d62728; stroke-width: 1.5"/>
    </g>
    <g id="text_14">
     <!-- shot noise limit -->
     <g transform="translate(276.14375 95.192813)scale(0.1 -0.1)">
      <defs>
       <path id="DejaVuSans-68" d="M 3513 2113 
L 3513 0 
L 2938 0 
L 2938 2094 
Q 2938 2591 2744 2837 
Q 2550 3084 2163 3084 
Q 1697 3084 1428 2787 
Q 1159 2491 1159 1978 
L 1159 0 
L 581 0 
L 581 4863 
L 1159 4863 
L 1159 2956 
Q 1366 3272 1645 3428 
Q 1925 3584 2291 3584 
Q 2894 3584 3203 3211 
Q 3513 2838 3513 2113 
z
" transform="scale(0.015625)"/>
      </defs>
      <use xlink:href="#DejaVuSans-73"/>
      <use xlink:href="#DejaVuSans-68" x="52.099609"/>
      <use xlink:href="#DejaVuSans-6f" x="115.478516"/>
      <use xlink:href="#DejaVuSans-74" x="176.660156"/>
      <use xlink:href="#DejaVuSans-20" x="215.869141"/>
      <use xlink:href="#DejaVuSans-6e" x="247.65625"/>
      <use xlink:href="#DejaVuSans-6f" x="311.035156"/>
      <use xlink:href="#DejaVuSans-69" x="372.216797"/>
      <use xlink:href="#DejaVuSans-73" x="400"/>
      <use xlink:href="#DejaVuSans-65" x="452.099609"/>
      <use xlink:href="#DejaVuSans-20" x="513.623047"/>
      <use xlink:href="#DejaVuSans-6c" x="545.410156"/>
      <use xlink:href="#DejaVuSans-69" x="573.193359"/>
      <use xlink:href="#DejaVuSans-6d" x="600.976562"/>
      <use xlink:href="#DejaVuSans-69" x="698.388672"/>
      <use xlink:href="#DejaVuSans-74" x="726.171875"/>
     </g>
    </g>
   </g>
  </g>
 </g>
 <defs>
  <clipPath id="p09c3fbe8e2">
   <rect x="54" y="34.56" width="334.8" height="221.76"/>
  </clipPath>
 </defs>
</svg>
