<?xml version="1.0" encoding="utf-8" standalone="no"?>
<!DOCTYPE svg PUBLIC "-//W3C//DTD SVG 1.1//EN"
  "http://www.w3.org/Graphics/SVG/1.1/DTD/svg11.dtd">
<!-- Created with matplotlib (https://matplotlib.org/) -->
<svg height="470.88pt" version="1.1" viewBox="0 0 850.32 470.88" width="850.32pt" xmlns="http://www.w3.org/2000/svg" xmlns:xlink="http://www.w3.org/1999/xlink">
 <defs>
  <style type="text/css">
*{stroke-linecap:butt;stroke-linejoin:round;}
  </style>
 </defs>
 <g id="figure_1">
  <g id="patch_1">
   <path d="M 0 470.88 
L 850.32 470.88 
L 850.32 0 
L 0 0 
z
" style="fill:#ffffff;"/>
  </g>
  <g id="axes_1">
   <g id="patch_2">
    <path d="M 106.29 419.0832 
L 765.288 419.0832 
L 765.288 56.5056 
L 106.29 56.5056 
z
" style="fill:#ffffff;"/>
   </g>
   <g id="matplotlib.axis_1">
    <g id="xtick_1">
     <g id="line2d_1">
      <defs>
       <path d="M 0 0 
L 0 3.5 
" id="mdff315c166" style="stroke:#000000;stroke-width:0.8;"/>
      </defs>
      <g>
       <use style="stroke:#000000;stroke-width:0.8;" x="117.715926" xlink:href="#mdff315c166" y="419.0832"/>
      </g>
     </g>
     <g id="text_1">
      <!-- 0 -->
      <defs>
       <path d="M 31.78125 66.40625 
Q 24.171875 66.40625 20.328125 58.90625 
Q 16.5 51.421875 16.5 36.375 
Q 16.5 21.390625 20.328125 13.890625 
Q 24.171875 6.390625 31.78125 6.390625 
Q 39.453125 6.390625 43.28125 13.890625 
Q 47.125 21.390625 47.125 36.375 
Q 47.125 51.421875 43.28125 58.90625 
Q 39.453125 66.40625 31.78125 66.40625 
z
M 31.78125 74.21875 
Q 44.046875 74.21875 50.515625 64.515625 
Q 56.984375 54.828125 56.984375 36.375 
Q 56.984375 17.96875 50.515625 8.265625 
Q 44.046875 -1.421875 31.78125 -1.421875 
Q 19.53125 -1.421875 13.0625 8.265625 
Q 6.59375 17.96875 6.59375 36.375 
Q 6.59375 54.828125 13.0625 64.515625 
Q 19.53125 74.21875 31.78125 74.21875 
z
" id="DejaVuSans-48"/>
      </defs>
      <g transform="translate(114.534676 433.681638)scale(0.1 -0.1)">
       <use xlink:href="#DejaVuSans-48"/>
      </g>
     </g>
    </g>
    <g id="xtick_2">
     <g id="line2d_2">
      <g>
       <use style="stroke:#000000;stroke-width:0.8;" x="194.918128" xlink:href="#mdff315c166" y="419.0832"/>
      </g>
     </g>
     <g id="text_2">
      <!-- 1 -->
      <defs>
       <path d="M 12.40625 8.296875 
L 28.515625 8.296875 
L 28.515625 63.921875 
L 10.984375 60.40625 
L 10.984375 69.390625 
L 28.421875 72.90625 
L 38.28125 72.90625 
L 38.28125 8.296875 
L 54.390625 8.296875 
L 54.390625 0 
L 12.40625 0 
z
" id="DejaVuSans-49"/>
      </defs>
      <g transform="translate(191.736878 433.681638)scale(0.1 -0.1)">
       <use xlink:href="#DejaVuSans-49"/>
      </g>
     </g>
    </g>
    <g id="xtick_3">
     <g id="line2d_3">
      <g>
       <use style="stroke:#000000;stroke-width:0.8;" x="272.120331" xlink:href="#mdff315c166" y="419.0832"/>
      </g>
     </g>
     <g id="text_3">
      <!-- 2 -->
      <defs>
       <path d="M 19.1875 8.296875 
L 53.609375 8.296875 
L 53.609375 0 
L 7.328125 0 
L 7.328125 8.296875 
Q 12.9375 14.109375 22.625 23.890625 
Q 32.328125 33.6875 34.8125 36.53125 
Q 39.546875 41.84375 41.421875 45.53125 
Q 43.3125 49.21875 43.3125 52.78125 
Q 43.3125 58.59375 39.234375 62.25 
Q 35.15625 65.921875 28.609375 65.921875 
Q 23.96875 65.921875 18.8125 64.3125 
Q 13.671875 62.703125 7.8125 59.421875 
L 7.8125 69.390625 
Q 13.765625 71.78125 18.9375 73 
Q 24.125 74.21875 28.421875 74.21875 
Q 39.75 74.21875 46.484375 68.546875 
Q 53.21875 62.890625 53.21875 53.421875 
Q 53.21875 48.921875 51.53125 44.890625 
Q 49.859375 40.875 45.40625 35.40625 
Q 44.1875 33.984375 37.640625 27.21875 
Q 31.109375 20.453125 19.1875 8.296875 
z
" id="DejaVuSans-50"/>
      </defs>
      <g transform="translate(268.939081 433.681638)scale(0.1 -0.1)">
       <use xlink:href="#DejaVuSans-50"/>
      </g>
     </g>
    </g>
    <g id="xtick_4">
     <g id="line2d_4">
      <g>
       <use style="stroke:#000000;stroke-width:0.8;" x="349.322533" xlink:href="#mdff315c166" y="419.0832"/>
      </g>
     </g>
     <g id="text_4">
      <!-- 3 -->
      <defs>
       <path d="M 40.578125 39.3125 
Q 47.65625 37.796875 51.625 33 
Q 55.609375 28.21875 55.609375 21.1875 
Q 55.609375 10.40625 48.1875 4.484375 
Q 40.765625 -1.421875 27.09375 -1.421875 
Q 22.515625 -1.421875 17.65625 -0.515625 
Q 12.796875 0.390625 7.625 2.203125 
L 7.625 11.71875 
Q 11.71875 9.328125 16.59375 8.109375 
Q 21.484375 6.890625 26.8125 6.890625 
Q 36.078125 6.890625 40.9375 10.546875 
Q 45.796875 14.203125 45.796875 21.1875 
Q 45.796875 27.640625 41.28125 31.265625 
Q 36.765625 34.90625 28.71875 34.90625 
L 20.21875 34.90625 
L 20.21875 43.015625 
L 29.109375 43.015625 
Q 36.375 43.015625 40.234375 45.921875 
Q 44.09375 48.828125 44.09375 54.296875 
Q 44.09375 59.90625 40.109375 62.90625 
Q 36.140625 65.921875 28.71875 65.921875 
Q 24.65625 65.921875 20.015625 65.03125 
Q 15.375 64.15625 9.8125 62.3125 
L 9.8125 71.09375 
Q 15.4375 72.65625 20.34375 73.4375 
Q 25.25 74.21875 29.59375 74.21875 
Q 40.828125 74.21875 47.359375 69.109375 
Q 53.90625 64.015625 53.90625 55.328125 
Q 53.90625 49.265625 50.4375 45.09375 
Q 46.96875 40.921875 40.578125 39.3125 
z
" id="DejaVuSans-51"/>
      </defs>
      <g transform="translate(346.141283 433.681638)scale(0.1 -0.1)">
       <use xlink:href="#DejaVuSans-51"/>
      </g>
     </g>
    </g>
    <g id="xtick_5">
     <g id="line2d_5">
      <g>
       <use style="stroke:#000000;stroke-width:0.8;" x="426.524736" xlink:href="#mdff315c166" y="419.0832"/>
      </g>
     </g>
     <g id="text_5">
      <!-- 4 -->
      <defs>
       <path d="M 37.796875 64.3125 
L 12.890625 25.390625 
L 37.796875 25.390625 
z
M 35.203125 72.90625 
L 47.609375 72.90625 
L 47.609375 25.390625 
L 58.015625 25.390625 
L 58.015625 17.1875 
L 47.609375 17.1875 
L 47.609375 0 
L 37.796875 0 
L 37.796875 17.1875 
L 4.890625 17.1875 
L 4.890625 26.703125 
z
" id="DejaVuSans-52"/>
      </defs>
      <g transform="translate(423.343486 433.681638)scale(0.1 -0.1)">
       <use xlink:href="#DejaVuSans-52"/>
      </g>
     </g>
    </g>
    <g id="xtick_6">
     <g id="line2d_6">
      <g>
       <use style="stroke:#000000;stroke-width:0.8;" x="503.726938" xlink:href="#mdff315c166" y="419.0832"/>
      </g>
     </g>
     <g id="text_6">
      <!-- 5 -->
      <defs>
       <path d="M 10.796875 72.90625 
L 49.515625 72.90625 
L 49.515625 64.59375 
L 19.828125 64.59375 
L 19.828125 46.734375 
Q 21.96875 47.46875 24.109375 47.828125 
Q 26.265625 48.1875 28.421875 48.1875 
Q 40.625 48.1875 47.75 41.5 
Q 54.890625 34.8125 54.890625 23.390625 
Q 54.890625 11.625 47.5625 5.09375 
Q 40.234375 -1.421875 26.90625 -1.421875 
Q 22.3125 -1.421875 17.546875 -0.640625 
Q 12.796875 0.140625 7.71875 1.703125 
L 7.71875 11.625 
Q 12.109375 9.234375 16.796875 8.0625 
Q 21.484375 6.890625 26.703125 6.890625 
Q 35.15625 6.890625 40.078125 11.328125 
Q 45.015625 15.765625 45.015625 23.390625 
Q 45.015625 31 40.078125 35.4375 
Q 35.15625 39.890625 26.703125 39.890625 
Q 22.75 39.890625 18.8125 39.015625 
Q 14.890625 38.140625 10.796875 36.28125 
z
" id="DejaVuSans-53"/>
      </defs>
      <g transform="translate(500.545688 433.681638)scale(0.1 -0.1)">
       <use xlink:href="#DejaVuSans-53"/>
      </g>
     </g>
    </g>
    <g id="xtick_7">
     <g id="line2d_7">
      <g>
       <use style="stroke:#000000;stroke-width:0.8;" x="580.929141" xlink:href="#mdff315c166" y="419.0832"/>
      </g>
     </g>
     <g id="text_7">
      <!-- 6 -->
      <defs>
       <path d="M 33.015625 40.375 
Q 26.375 40.375 22.484375 35.828125 
Q 18.609375 31.296875 18.609375 23.390625 
Q 18.609375 15.53125 22.484375 10.953125 
Q 26.375 6.390625 33.015625 6.390625 
Q 39.65625 6.390625 43.53125 10.953125 
Q 47.40625 15.53125 47.40625 23.390625 
Q 47.40625 31.296875 43.53125 35.828125 
Q 39.65625 40.375 33.015625 40.375 
z
M 52.59375 71.296875 
L 52.59375 62.3125 
Q 48.875 64.0625 45.09375 64.984375 
Q 41.3125 65.921875 37.59375 65.921875 
Q 27.828125 65.921875 22.671875 59.328125 
Q 17.53125 52.734375 16.796875 39.40625 
Q 19.671875 43.65625 24.015625 45.921875 
Q 28.375 48.1875 33.59375 48.1875 
Q 44.578125 48.1875 50.953125 41.515625 
Q 57.328125 34.859375 57.328125 23.390625 
Q 57.328125 12.15625 50.6875 5.359375 
Q 44.046875 -1.421875 33.015625 -1.421875 
Q 20.359375 -1.421875 13.671875 8.265625 
Q 6.984375 17.96875 6.984375 36.375 
Q 6.984375 53.65625 15.1875 63.9375 
Q 23.390625 74.21875 37.203125 74.21875 
Q 40.921875 74.21875 44.703125 73.484375 
Q 48.484375 72.75 52.59375 71.296875 
z
" id="DejaVuSans-54"/>
      </defs>
      <g transform="translate(577.747891 433.681638)scale(0.1 -0.1)">
       <use xlink:href="#DejaVuSans-54"/>
      </g>
     </g>
    </g>
    <g id="xtick_8">
     <g id="line2d_8">
      <g>
       <use style="stroke:#000000;stroke-width:0.8;" x="658.131343" xlink:href="#mdff315c166" y="419.0832"/>
      </g>
     </g>
     <g id="text_8">
      <!-- 7 -->
      <defs>
       <path d="M 8.203125 72.90625 
L 55.078125 72.90625 
L 55.078125 68.703125 
L 28.609375 0 
L 18.3125 0 
L 43.21875 64.59375 
L 8.203125 64.59375 
z
" id="DejaVuSans-55"/>
      </defs>
      <g transform="translate(654.950093 433.681638)scale(0.1 -0.1)">
       <use xlink:href="#DejaVuSans-55"/>
      </g>
     </g>
    </g>
    <g id="xtick_9">
     <g id="line2d_9">
      <g>
       <use style="stroke:#000000;stroke-width:0.8;" x="735.333545" xlink:href="#mdff315c166" y="419.0832"/>
      </g>
     </g>
     <g id="text_9">
      <!-- 8 -->
      <defs>
       <path d="M 31.78125 34.625 
Q 24.75 34.625 20.71875 30.859375 
Q 16.703125 27.09375 16.703125 20.515625 
Q 16.703125 13.921875 20.71875 10.15625 
Q 24.75 6.390625 31.78125 6.390625 
Q 38.8125 6.390625 42.859375 10.171875 
Q 46.921875 13.96875 46.921875 20.515625 
Q 46.921875 27.09375 42.890625 30.859375 
Q 38.875 34.625 31.78125 34.625 
z
M 21.921875 38.8125 
Q 15.578125 40.375 12.03125 44.71875 
Q 8.5 49.078125 8.5 55.328125 
Q 8.5 64.0625 14.71875 69.140625 
Q 20.953125 74.21875 31.78125 74.21875 
Q 42.671875 74.21875 48.875 69.140625 
Q 55.078125 64.0625 55.078125 55.328125 
Q 55.078125 49.078125 51.53125 44.71875 
Q 48 40.375 41.703125 38.8125 
Q 48.828125 37.15625 52.796875 32.3125 
Q 56.78125 27.484375 56.78125 20.515625 
Q 56.78125 9.90625 50.3125 4.234375 
Q 43.84375 -1.421875 31.78125 -1.421875 
Q 19.734375 -1.421875 13.25 4.234375 
Q 6.78125 9.90625 6.78125 20.515625 
Q 6.78125 27.484375 10.78125 32.3125 
Q 14.796875 37.15625 21.921875 38.8125 
z
M 18.3125 54.390625 
Q 18.3125 48.734375 21.84375 45.5625 
Q 25.390625 42.390625 31.78125 42.390625 
Q 38.140625 42.390625 41.71875 45.5625 
Q 45.3125 48.734375 45.3125 54.390625 
Q 45.3125 60.0625 41.71875 63.234375 
Q 38.140625 66.40625 31.78125 66.40625 
Q 25.390625 66.40625 21.84375 63.234375 
Q 18.3125 60.0625 18.3125 54.390625 
z
" id="DejaVuSans-56"/>
      </defs>
      <g transform="translate(732.152295 433.681638)scale(0.1 -0.1)">
       <use xlink:href="#DejaVuSans-56"/>
      </g>
     </g>
    </g>
    <g id="text_10">
     <!-- time (ms) -->
     <defs>
      <path d="M 18.3125 70.21875 
L 18.3125 54.6875 
L 36.8125 54.6875 
L 36.8125 47.703125 
L 18.3125 47.703125 
L 18.3125 18.015625 
Q 18.3125 11.328125 20.140625 9.421875 
Q 21.96875 7.515625 27.59375 7.515625 
L 36.8125 7.515625 
L 36.8125 0 
L 27.59375 0 
Q 17.1875 0 13.234375 3.875 
Q 9.28125 7.765625 9.28125 18.015625 
L 9.28125 47.703125 
L 2.6875 47.703125 
L 2.6875 54.6875 
L 9.28125 54.6875 
L 9.28125 70.21875 
z
" id="DejaVuSans-116"/>
      <path d="M 9.421875 54.6875 
L 18.40625 54.6875 
L 18.40625 0 
L 9.421875 0 
z
M 9.421875 75.984375 
L 18.40625 75.984375 
L 18.40625 64.59375 
L 9.421875 64.59375 
z
" id="DejaVuSans-105"/>
      <path d="M 52 44.1875 
Q 55.375 50.25 60.0625 53.125 
Q 64.75 56 71.09375 56 
Q 79.640625 56 84.28125 50.015625 
Q 88.921875 44.046875 88.921875 33.015625 
L 88.921875 0 
L 79.890625 0 
L 79.890625 32.71875 
Q 79.890625 40.578125 77.09375 44.375 
Q 74.3125 48.1875 68.609375 48.1875 
Q 61.625 48.1875 57.5625 43.546875 
Q 53.515625 38.921875 53.515625 30.90625 
L 53.515625 0 
L 44.484375 0 
L 44.484375 32.71875 
Q 44.484375 40.625 41.703125 44.40625 
Q 38.921875 48.1875 33.109375 48.1875 
Q 26.21875 48.1875 22.15625 43.53125 
Q 18.109375 38.875 18.109375 30.90625 
L 18.109375 0 
L 9.078125 0 
L 9.078125 54.6875 
L 18.109375 54.6875 
L 18.109375 46.1875 
Q 21.1875 51.21875 25.484375 53.609375 
Q 29.78125 56 35.6875 56 
Q 41.65625 56 45.828125 52.96875 
Q 50 49.953125 52 44.1875 
z
" id="DejaVuSans-109"/>
      <path d="M 56.203125 29.59375 
L 56.203125 25.203125 
L 14.890625 25.203125 
Q 15.484375 15.921875 20.484375 11.0625 
Q 25.484375 6.203125 34.421875 6.203125 
Q 39.59375 6.203125 44.453125 7.46875 
Q 49.3125 8.734375 54.109375 11.28125 
L 54.109375 2.78125 
Q 49.265625 0.734375 44.1875 -0.34375 
Q 39.109375 -1.421875 33.890625 -1.421875 
Q 20.796875 -1.421875 13.15625 6.1875 
Q 5.515625 13.8125 5.515625 26.8125 
Q 5.515625 40.234375 12.765625 48.109375 
Q 20.015625 56 32.328125 56 
Q 43.359375 56 49.78125 48.890625 
Q 56.203125 41.796875 56.203125 29.59375 
z
M 47.21875 32.234375 
Q 47.125 39.59375 43.09375 43.984375 
Q 39.0625 48.390625 32.421875 48.390625 
Q 24.90625 48.390625 20.390625 44.140625 
Q 15.875 39.890625 15.1875 32.171875 
z
" id="DejaVuSans-101"/>
      <path id="DejaVuSans-32"/>
      <path d="M 31 75.875 
Q 24.46875 64.65625 21.28125 53.65625 
Q 18.109375 42.671875 18.109375 31.390625 
Q 18.109375 20.125 21.3125 9.0625 
Q 24.515625 -2 31 -13.1875 
L 23.1875 -13.1875 
Q 15.875 -1.703125 12.234375 9.375 
Q 8.59375 20.453125 8.59375 31.390625 
Q 8.59375 42.28125 12.203125 53.3125 
Q 15.828125 64.359375 23.1875 75.875 
z
" id="DejaVuSans-40"/>
      <path d="M 44.28125 53.078125 
L 44.28125 44.578125 
Q 40.484375 46.53125 36.375 47.5 
Q 32.28125 48.484375 27.875 48.484375 
Q 21.1875 48.484375 17.84375 46.4375 
Q 14.5 44.390625 14.5 40.28125 
Q 14.5 37.15625 16.890625 35.375 
Q 19.28125 33.59375 26.515625 31.984375 
L 29.59375 31.296875 
Q 39.15625 29.25 43.1875 25.515625 
Q 47.21875 21.78125 47.21875 15.09375 
Q 47.21875 7.46875 41.1875 3.015625 
Q 35.15625 -1.421875 24.609375 -1.421875 
Q 20.21875 -1.421875 15.453125 -0.5625 
Q 10.6875 0.296875 5.421875 2 
L 5.421875 11.28125 
Q 10.40625 8.6875 15.234375 7.390625 
Q 20.0625 6.109375 24.8125 6.109375 
Q 31.15625 6.109375 34.5625 8.28125 
Q 37.984375 10.453125 37.984375 14.40625 
Q 37.984375 18.0625 35.515625 20.015625 
Q 33.0625 21.96875 24.703125 23.78125 
L 21.578125 24.515625 
Q 13.234375 26.265625 9.515625 29.90625 
Q 5.8125 33.546875 5.8125 39.890625 
Q 5.8125 47.609375 11.28125 51.796875 
Q 16.75 56 26.8125 56 
Q 31.78125 56 36.171875 55.265625 
Q 40.578125 54.546875 44.28125 53.078125 
z
" id="DejaVuSans-115"/>
      <path d="M 8.015625 75.875 
L 15.828125 75.875 
Q 23.140625 64.359375 26.78125 53.3125 
Q 30.421875 42.28125 30.421875 31.390625 
Q 30.421875 20.453125 26.78125 9.375 
Q 23.140625 -1.703125 15.828125 -13.1875 
L 8.015625 -13.1875 
Q 14.5 -2 17.703125 9.0625 
Q 20.90625 20.125 20.90625 31.390625 
Q 20.90625 42.671875 17.703125 53.65625 
Q 14.5 64.65625 8.015625 75.875 
z
" id="DejaVuSans-41"/>
     </defs>
     <g transform="translate(411.527281 447.359762)scale(0.1 -0.1)">
      <use xlink:href="#DejaVuSans-116"/>
      <use x="39.208984" xlink:href="#DejaVuSans-105"/>
      <use x="66.992188" xlink:href="#DejaVuSans-109"/>
      <use x="164.404297" xlink:href="#DejaVuSans-101"/>
      <use x="225.927734" xlink:href="#DejaVuSans-32"/>
      <use x="257.714844" xlink:href="#DejaVuSans-40"/>
      <use x="296.728516" xlink:href="#DejaVuSans-109"/>
      <use x="394.140625" xlink:href="#DejaVuSans-115"/>
      <use x="446.240234" xlink:href="#DejaVuSans-41"/>
     </g>
    </g>
   </g>
   <g id="matplotlib.axis_2">
    <g id="ytick_1">
     <g id="line2d_10">
      <defs>
       <path d="M 0 0 
L -3.5 0 
" id="mc676f60c30" style="stroke:#000000;stroke-width:0.8;"/>
      </defs>
      <g>
       <use style="stroke:#000000;stroke-width:0.8;" x="106.29" xlink:href="#mc676f60c30" y="410.892608"/>
      </g>
     </g>
     <g id="text_11">
      <!-- 1780000 -->
      <g transform="translate(54.7525 414.691827)scale(0.1 -0.1)">
       <use xlink:href="#DejaVuSans-49"/>
       <use x="63.623047" xlink:href="#DejaVuSans-55"/>
       <use x="127.246094" xlink:href="#DejaVuSans-56"/>
       <use x="190.869141" xlink:href="#DejaVuSans-48"/>
       <use x="254.492188" xlink:href="#DejaVuSans-48"/>
       <use x="318.115234" xlink:href="#DejaVuSans-48"/>
       <use x="381.738281" xlink:href="#DejaVuSans-48"/>
      </g>
     </g>
    </g>
    <g id="ytick_2">
     <g id="line2d_11">
      <g>
       <use style="stroke:#000000;stroke-width:0.8;" x="106.29" xlink:href="#mc676f60c30" y="364.448865"/>
      </g>
     </g>
     <g id="text_12">
      <!-- 1800000 -->
      <g transform="translate(54.7525 368.248083)scale(0.1 -0.1)">
       <use xlink:href="#DejaVuSans-49"/>
       <use x="63.623047" xlink:href="#DejaVuSans-56"/>
       <use x="127.246094" xlink:href="#DejaVuSans-48"/>
       <use x="190.869141" xlink:href="#DejaVuSans-48"/>
       <use x="254.492188" xlink:href="#DejaVuSans-48"/>
       <use x="318.115234" xlink:href="#DejaVuSans-48"/>
       <use x="381.738281" xlink:href="#DejaVuSans-48"/>
      </g>
     </g>
    </g>
    <g id="ytick_3">
     <g id="line2d_12">
      <g>
       <use style="stroke:#000000;stroke-width:0.8;" x="106.29" xlink:href="#mc676f60c30" y="318.005121"/>
      </g>
     </g>
     <g id="text_13">
      <!-- 1820000 -->
      <g transform="translate(54.7525 321.80434)scale(0.1 -0.1)">
       <use xlink:href="#DejaVuSans-49"/>
       <use x="63.623047" xlink:href="#DejaVuSans-56"/>
       <use x="127.246094" xlink:href="#DejaVuSans-50"/>
       <use x="190.869141" xlink:href="#DejaVuSans-48"/>
       <use x="254.492188" xlink:href="#DejaVuSans-48"/>
       <use x="318.115234" xlink:href="#DejaVuSans-48"/>
       <use x="381.738281" xlink:href="#DejaVuSans-48"/>
      </g>
     </g>
    </g>
    <g id="ytick_4">
     <g id="line2d_13">
      <g>
       <use style="stroke:#000000;stroke-width:0.8;" x="106.29" xlink:href="#mc676f60c30" y="271.561377"/>
      </g>
     </g>
     <g id="text_14">
      <!-- 1840000 -->
      <g transform="translate(54.7525 275.360596)scale(0.1 -0.1)">
       <use xlink:href="#DejaVuSans-49"/>
       <use x="63.623047" xlink:href="#DejaVuSans-56"/>
       <use x="127.246094" xlink:href="#DejaVuSans-52"/>
       <use x="190.869141" xlink:href="#DejaVuSans-48"/>
       <use x="254.492188" xlink:href="#DejaVuSans-48"/>
       <use x="318.115234" xlink:href="#DejaVuSans-48"/>
       <use x="381.738281" xlink:href="#DejaVuSans-48"/>
      </g>
     </g>
    </g>
    <g id="ytick_5">
     <g id="line2d_14">
      <g>
       <use style="stroke:#000000;stroke-width:0.8;" x="106.29" xlink:href="#mc676f60c30" y="225.117634"/>
      </g>
     </g>
     <g id="text_15">
      <!-- 1860000 -->
      <g transform="translate(54.7525 228.916853)scale(0.1 -0.1)">
       <use xlink:href="#DejaVuSans-49"/>
       <use x="63.623047" xlink:href="#DejaVuSans-56"/>
       <use x="127.246094" xlink:href="#DejaVuSans-54"/>
       <use x="190.869141" xlink:href="#DejaVuSans-48"/>
       <use x="254.492188" xlink:href="#DejaVuSans-48"/>
       <use x="318.115234" xlink:href="#DejaVuSans-48"/>
       <use x="381.738281" xlink:href="#DejaVuSans-48"/>
      </g>
     </g>
    </g>
    <g id="ytick_6">
     <g id="line2d_15">
      <g>
       <use style="stroke:#000000;stroke-width:0.8;" x="106.29" xlink:href="#mc676f60c30" y="178.67389"/>
      </g>
     </g>
     <g id="text_16">
      <!-- 1880000 -->
      <g transform="translate(54.7525 182.473109)scale(0.1 -0.1)">
       <use xlink:href="#DejaVuSans-49"/>
       <use x="63.623047" xlink:href="#DejaVuSans-56"/>
       <use x="127.246094" xlink:href="#DejaVuSans-56"/>
       <use x="190.869141" xlink:href="#DejaVuSans-48"/>
       <use x="254.492188" xlink:href="#DejaVuSans-48"/>
       <use x="318.115234" xlink:href="#DejaVuSans-48"/>
       <use x="381.738281" xlink:href="#DejaVuSans-48"/>
      </g>
     </g>
    </g>
    <g id="ytick_7">
     <g id="line2d_16">
      <g>
       <use style="stroke:#000000;stroke-width:0.8;" x="106.29" xlink:href="#mc676f60c30" y="132.230147"/>
      </g>
     </g>
     <g id="text_17">
      <!-- 1900000 -->
      <defs>
       <path d="M 10.984375 1.515625 
L 10.984375 10.5 
Q 14.703125 8.734375 18.5 7.8125 
Q 22.3125 6.890625 25.984375 6.890625 
Q 35.75 6.890625 40.890625 13.453125 
Q 46.046875 20.015625 46.78125 33.40625 
Q 43.953125 29.203125 39.59375 26.953125 
Q 35.25 24.703125 29.984375 24.703125 
Q 19.046875 24.703125 12.671875 31.3125 
Q 6.296875 37.9375 6.296875 49.421875 
Q 6.296875 60.640625 12.9375 67.421875 
Q 19.578125 74.21875 30.609375 74.21875 
Q 43.265625 74.21875 49.921875 64.515625 
Q 56.59375 54.828125 56.59375 36.375 
Q 56.59375 19.140625 48.40625 8.859375 
Q 40.234375 -1.421875 26.421875 -1.421875 
Q 22.703125 -1.421875 18.890625 -0.6875 
Q 15.09375 0.046875 10.984375 1.515625 
z
M 30.609375 32.421875 
Q 37.25 32.421875 41.125 36.953125 
Q 45.015625 41.5 45.015625 49.421875 
Q 45.015625 57.28125 41.125 61.84375 
Q 37.25 66.40625 30.609375 66.40625 
Q 23.96875 66.40625 20.09375 61.84375 
Q 16.21875 57.28125 16.21875 49.421875 
Q 16.21875 41.5 20.09375 36.953125 
Q 23.96875 32.421875 30.609375 32.421875 
z
" id="DejaVuSans-57"/>
      </defs>
      <g transform="translate(54.7525 136.029366)scale(0.1 -0.1)">
       <use xlink:href="#DejaVuSans-49"/>
       <use x="63.623047" xlink:href="#DejaVuSans-57"/>
       <use x="127.246094" xlink:href="#DejaVuSans-48"/>
       <use x="190.869141" xlink:href="#DejaVuSans-48"/>
       <use x="254.492188" xlink:href="#DejaVuSans-48"/>
       <use x="318.115234" xlink:href="#DejaVuSans-48"/>
       <use x="381.738281" xlink:href="#DejaVuSans-48"/>
      </g>
     </g>
    </g>
    <g id="ytick_8">
     <g id="line2d_17">
      <g>
       <use style="stroke:#000000;stroke-width:0.8;" x="106.29" xlink:href="#mc676f60c30" y="85.786403"/>
      </g>
     </g>
     <g id="text_18">
      <!-- 1920000 -->
      <g transform="translate(54.7525 89.585622)scale(0.1 -0.1)">
       <use xlink:href="#DejaVuSans-49"/>
       <use x="63.623047" xlink:href="#DejaVuSans-57"/>
       <use x="127.246094" xlink:href="#DejaVuSans-50"/>
       <use x="190.869141" xlink:href="#DejaVuSans-48"/>
       <use x="254.492188" xlink:href="#DejaVuSans-48"/>
       <use x="318.115234" xlink:href="#DejaVuSans-48"/>
       <use x="381.738281" xlink:href="#DejaVuSans-48"/>
      </g>
     </g>
    </g>
    <g id="text_19">
     <!-- photoluminescence (counts/s) -->
     <defs>
      <path d="M 18.109375 8.203125 
L 18.109375 -20.796875 
L 9.078125 -20.796875 
L 9.078125 54.6875 
L 18.109375 54.6875 
L 18.109375 46.390625 
Q 20.953125 51.265625 25.265625 53.625 
Q 29.59375 56 35.59375 56 
Q 45.5625 56 51.78125 48.09375 
Q 58.015625 40.1875 58.015625 27.296875 
Q 58.015625 14.40625 51.78125 6.484375 
Q 45.5625 -1.421875 35.59375 -1.421875 
Q 29.59375 -1.421875 25.265625 0.953125 
Q 20.953125 3.328125 18.109375 8.203125 
z
M 48.6875 27.296875 
Q 48.6875 37.203125 44.609375 42.84375 
Q 40.53125 48.484375 33.40625 48.484375 
Q 26.265625 48.484375 22.1875 42.84375 
Q 18.109375 37.203125 18.109375 27.296875 
Q 18.109375 17.390625 22.1875 11.75 
Q 26.265625 6.109375 33.40625 6.109375 
Q 40.53125 6.109375 44.609375 11.75 
Q 48.6875 17.390625 48.6875 27.296875 
z
" id="DejaVuSans-112"/>
      <path d="M 54.890625 33.015625 
L 54.890625 0 
L 45.90625 0 
L 45.90625 32.71875 
Q 45.90625 40.484375 42.875 44.328125 
Q 39.84375 48.1875 33.796875 48.1875 
Q 26.515625 48.1875 22.3125 43.546875 
Q 18.109375 38.921875 18.109375 30.90625 
L 18.109375 0 
L 9.078125 0 
L 9.078125 75.984375 
L 18.109375 75.984375 
L 18.109375 46.1875 
Q 21.34375 51.125 25.703125 53.5625 
Q 30.078125 56 35.796875 56 
Q 45.21875 56 50.046875 50.171875 
Q 54.890625 44.34375 54.890625 33.015625 
z
" id="DejaVuSans-104"/>
      <path d="M 30.609375 48.390625 
Q 23.390625 48.390625 19.1875 42.75 
Q 14.984375 37.109375 14.984375 27.296875 
Q 14.984375 17.484375 19.15625 11.84375 
Q 23.34375 6.203125 30.609375 6.203125 
Q 37.796875 6.203125 41.984375 11.859375 
Q 46.1875 17.53125 46.1875 27.296875 
Q 46.1875 37.015625 41.984375 42.703125 
Q 37.796875 48.390625 30.609375 48.390625 
z
M 30.609375 56 
Q 42.328125 56 49.015625 48.375 
Q 55.71875 40.765625 55.71875 27.296875 
Q 55.71875 13.875 49.015625 6.21875 
Q 42.328125 -1.421875 30.609375 -1.421875 
Q 18.84375 -1.421875 12.171875 6.21875 
Q 5.515625 13.875 5.515625 27.296875 
Q 5.515625 40.765625 12.171875 48.375 
Q 18.84375 56 30.609375 56 
z
" id="DejaVuSans-111"/>
      <path d="M 9.421875 75.984375 
L 18.40625 75.984375 
L 18.40625 0 
L 9.421875 0 
z
" id="DejaVuSans-108"/>
      <path d="M 8.5 21.578125 
L 8.5 54.6875 
L 17.484375 54.6875 
L 17.484375 21.921875 
Q 17.484375 14.15625 20.5 10.265625 
Q 23.53125 6.390625 29.59375 6.390625 
Q 36.859375 6.390625 41.078125 11.03125 
Q 45.3125 15.671875 45.3125 23.6875 
L 45.3125 54.6875 
L 54.296875 54.6875 
L 54.296875 0 
L 45.3125 0 
L 45.3125 8.40625 
Q 42.046875 3.421875 37.71875 1 
Q 33.40625 -1.421875 27.6875 -1.421875 
Q 18.265625 -1.421875 13.375 4.4375 
Q 8.5 10.296875 8.5 21.578125 
z
M 31.109375 56 
z
" id="DejaVuSans-117"/>
      <path d="M 54.890625 33.015625 
L 54.890625 0 
L 45.90625 0 
L 45.90625 32.71875 
Q 45.90625 40.484375 42.875 44.328125 
Q 39.84375 48.1875 33.796875 48.1875 
Q 26.515625 48.1875 22.3125 43.546875 
Q 18.109375 38.921875 18.109375 30.90625 
L 18.109375 0 
L 9.078125 0 
L 9.078125 54.6875 
L 18.109375 54.6875 
L 18.109375 46.1875 
Q 21.34375 51.125 25.703125 53.5625 
Q 30.078125 56 35.796875 56 
Q 45.21875 56 50.046875 50.171875 
Q 54.890625 44.34375 54.890625 33.015625 
z
" id="DejaVuSans-110"/>
      <path d="M 48.78125 52.59375 
L 48.78125 44.1875 
Q 44.96875 46.296875 41.140625 47.34375 
Q 37.3125 48.390625 33.40625 48.390625 
Q 24.65625 48.390625 19.8125 42.84375 
Q 14.984375 37.3125 14.984375 27.296875 
Q 14.984375 17.28125 19.8125 11.734375 
Q 24.65625 6.203125 33.40625 6.203125 
Q 37.3125 6.203125 41.140625 7.25 
Q 44.96875 8.296875 48.78125 10.40625 
L 48.78125 2.09375 
Q 45.015625 0.34375 40.984375 -0.53125 
Q 36.96875 -1.421875 32.421875 -1.421875 
Q 20.0625 -1.421875 12.78125 6.34375 
Q 5.515625 14.109375 5.515625 27.296875 
Q 5.515625 40.671875 12.859375 48.328125 
Q 20.21875 56 33.015625 56 
Q 37.15625 56 41.109375 55.140625 
Q 45.0625 54.296875 48.78125 52.59375 
z
" id="DejaVuSans-99"/>
      <path d="M 25.390625 72.90625 
L 33.6875 72.90625 
L 8.296875 -9.28125 
L 0 -9.28125 
z
" id="DejaVuSans-47"/>
     </defs>
     <g transform="translate(48.672812 313.1944)rotate(-90)scale(0.1 -0.1)">
      <use xlink:href="#DejaVuSans-112"/>
      <use x="63.476562" xlink:href="#DejaVuSans-104"/>
      <use x="126.855469" xlink:href="#DejaVuSans-111"/>
      <use x="188.037109" xlink:href="#DejaVuSans-116"/>
      <use x="227.246094" xlink:href="#DejaVuSans-111"/>
      <use x="288.427734" xlink:href="#DejaVuSans-108"/>
      <use x="316.210938" xlink:href="#DejaVuSans-117"/>
      <use x="379.589844" xlink:href="#DejaVuSans-109"/>
      <use x="477.001953" xlink:href="#DejaVuSans-105"/>
      <use x="504.785156" xlink:href="#DejaVuSans-110"/>
      <use x="568.164062" xlink:href="#DejaVuSans-101"/>
      <use x="629.6875" xlink:href="#DejaVuSans-115"/>
      <use x="681.787109" xlink:href="#DejaVuSans-99"/>
      <use x="736.767578" xlink:href="#DejaVuSans-101"/>
      <use x="798.291016" xlink:href="#DejaVuSans-110"/>
      <use x="861.669922" xlink:href="#DejaVuSans-99"/>
      <use x="916.650391" xlink:href="#DejaVuSans-101"/>
      <use x="978.173828" xlink:href="#DejaVuSans-32"/>
      <use x="1009.960938" xlink:href="#DejaVuSans-40"/>
      <use x="1048.974609" xlink:href="#DejaVuSans-99"/>
      <use x="1103.955078" xlink:href="#DejaVuSans-111"/>
      <use x="1165.136719" xlink:href="#DejaVuSans-117"/>
      <use x="1228.515625" xlink:href="#DejaVuSans-110"/>
      <use x="1291.894531" xlink:href="#DejaVuSans-116"/>
      <use x="1331.103516" xlink:href="#DejaVuSans-115"/>
      <use x="1383.203125" xlink:href="#DejaVuSans-47"/>
      <use x="1416.894531" xlink:href="#DejaVuSans-115"/>
      <use x="1468.994141" xlink:href="#DejaVuSans-41"/>
     </g>
    </g>
   </g>
   <g id="line2d_18">
    <path clip-path="url(#pc4cee0c4da)" d="M 136.244455 76.404767 
L 142.420631 84.88075 
L 148.596807 89.269684 
L 154.772983 92.242084 
L 160.949159 95.237705 
L 167.125336 100.160742 
L 173.301512 104.456788 
L 179.477688 115.440733 
L 185.653864 116.973377 
L 191.83004 123.196839 
L 198.006216 133.437684 
L 204.182393 135.713428 
L 210.358569 144.932511 
L 216.534745 145.234395 
L 222.710921 150.319985 
L 228.887097 157.797428 
L 235.063274 163.347455 
L 241.23945 161.721924 
L 247.415626 168.920704 
L 253.591802 174.493953 
L 259.767978 178.464893 
L 265.944155 185.059905 
L 272.120331 186.383552 
L 278.296507 188.96118 
L 284.472683 191.190479 
L 290.648859 199.132359 
L 296.825036 200.548894 
L 303.001212 203.823177 
L 309.177388 209.628645 
L 315.353564 207.585121 
L 321.52974 218.801285 
L 327.705917 219.35861 
L 333.882093 221.053806 
L 340.058269 231.875199 
L 346.234445 227.834593 
L 352.410621 232.525411 
L 358.586798 231.480427 
L 364.762974 239.004313 
L 370.93915 238.493432 
L 377.115326 241.976713 
L 383.291502 246.179872 
L 389.467679 249.825706 
L 395.643855 246.992637 
L 401.820031 252.264002 
L 407.996207 255.631173 
L 414.172383 262.481626 
L 420.34856 267.660103 
L 426.524736 264.037491 
L 432.700912 263.247947 
L 438.877088 263.967825 
L 445.053264 263.991047 
L 451.22944 270.191287 
L 457.405617 272.397365 
L 463.581793 271.282715 
L 469.757969 274.231893 
L 475.934145 277.761617 
L 482.110321 281.384229 
L 488.286498 285.146172 
L 494.462674 281.755779 
L 500.63885 286.632372 
L 506.815026 281.546782 
L 512.991202 285.401613 
L 519.167379 287.770244 
L 525.343555 288.21146 
L 531.519731 294.945802 
L 537.695907 294.481365 
L 543.872083 294.969024 
L 550.04826 300.797714 
L 556.224436 300.402942 
L 562.400612 300.00817 
L 568.576788 301.773033 
L 574.752964 306.417407 
L 580.929141 304.071998 
L 587.105317 309.087922 
L 593.281493 305.418867 
L 599.457669 302.562576 
L 605.633845 311.108225 
L 611.810022 306.394185 
L 617.986198 315.497159 
L 624.162374 317.169134 
L 630.33855 311.502997 
L 636.514726 315.473937 
L 642.690903 316.472478 
L 648.867079 319.328768 
L 655.043255 318.49278 
L 661.219431 318.376671 
L 667.395607 321.511624 
L 673.571784 321.186518 
L 679.74796 319.816427 
L 685.924136 321.999283 
L 692.100312 320.071868 
L 698.276488 321.697399 
L 704.452664 324.600133 
L 710.628841 323.833811 
L 716.805017 332.170463 
L 722.981193 325.320011 
L 729.157369 324.32147 
L 735.333545 329.964385 
" style="fill:none;stroke:#1f77b4;stroke-linecap:square;stroke-width:1.5;"/>
   </g>
   <g id="line2d_19">
    <path clip-path="url(#pc4cee0c4da)" d="M 136.244455 72.9864 
L 142.420631 79.47112 
L 148.596807 85.809134 
L 154.772983 92.003762 
L 160.949159 98.058246 
L 167.125336 103.975757 
L 173.301512 109.759395 
L 179.477688 115.412188 
L 185.653864 120.937095 
L 191.83004 126.337011 
L 198.006216 131.614762 
L 204.182393 136.773114 
L 210.358569 141.814766 
L 216.534745 146.742359 
L 222.710921 151.558473 
L 228.887097 156.265631 
L 235.063274 160.866298 
L 241.23945 165.362882 
L 247.415626 169.757738 
L 253.591802 174.053168 
L 259.767978 178.251421 
L 265.944155 182.354696 
L 272.120331 186.365141 
L 278.296507 190.284856 
L 284.472683 194.115894 
L 290.648859 197.860261 
L 296.825036 201.519918 
L 303.001212 205.096782 
L 309.177388 208.592725 
L 315.353564 212.009578 
L 321.52974 215.349131 
L 327.705917 218.613131 
L 333.882093 221.80329 
L 340.058269 224.921276 
L 346.234445 227.968723 
L 352.410621 230.947226 
L 358.586798 233.858346 
L 364.762974 236.703606 
L 370.93915 239.484498 
L 377.115326 242.202476 
L 383.291502 244.858964 
L 389.467679 247.455354 
L 395.643855 249.993005 
L 401.820031 252.473246 
L 407.996207 254.897376 
L 414.172383 257.266663 
L 420.34856 259.58235 
L 426.524736 261.845647 
L 432.700912 264.057742 
L 438.877088 266.219791 
L 445.053264 268.332928 
L 451.22944 270.398259 
L 457.405617 272.416865 
L 463.581793 274.389803 
L 469.757969 276.318107 
L 475.934145 278.202786 
L 482.110321 280.044828 
L 488.286498 281.845196 
L 494.462674 283.604834 
L 500.63885 285.324663 
L 506.815026 287.005584 
L 512.991202 288.648477 
L 519.167379 290.254202 
L 525.343555 291.823601 
L 531.519731 293.357494 
L 537.695907 294.856685 
L 543.872083 296.32196 
L 550.04826 297.754086 
L 556.224436 299.153811 
L 562.400612 300.521871 
L 568.576788 301.85898 
L 574.752964 303.16584 
L 580.929141 304.443134 
L 587.105317 305.691531 
L 593.281493 306.911686 
L 599.457669 308.104236 
L 605.633845 309.269807 
L 611.810022 310.409009 
L 617.986198 311.522439 
L 624.162374 312.610679 
L 630.33855 313.674299 
L 636.514726 314.713856 
L 642.690903 315.729896 
L 648.867079 316.722949 
L 655.043255 317.693536 
L 661.219431 318.642165 
L 667.395607 319.569333 
L 673.571784 320.475525 
L 679.74796 321.361217 
L 685.924136 322.226871 
L 692.100312 323.072941 
L 698.276488 323.89987 
L 704.452664 324.708091 
L 710.628841 325.498027 
L 716.805017 326.270093 
L 722.981193 327.024692 
L 729.157369 327.762219 
L 735.333545 328.483061 
" style="fill:none;stroke:#ff7f0e;stroke-linecap:square;stroke-width:1.5;"/>
   </g>
   <g id="line2d_20">
    <path clip-path="url(#pc4cee0c4da)" d="M 148.596807 207.07424 
L 154.772983 226.301949 
L 160.949159 230.481886 
L 167.125336 227.463043 
L 173.301512 243.161028 
L 179.477688 236.078357 
L 185.653864 259.764667 
L 191.83004 254.47008 
L 198.006216 258.673239 
L 204.182393 254.911295 
L 210.358569 265.500469 
L 216.534745 264.455485 
L 222.710921 267.265331 
L 228.887097 279.52648 
L 235.063274 286.9807 
L 241.23945 283.822526 
L 247.415626 290.626534 
L 253.591802 290.928419 
L 259.767978 305.95297 
L 265.944155 322.974602 
L 272.120331 296.246227 
L 278.296507 322.486942 
L 284.472683 304.513214 
L 290.648859 311.317222 
L 296.825036 321.349071 
L 303.001212 313.77874 
L 309.177388 329.290951 
L 315.353564 317.74968 
L 321.52974 341.923649 
L 327.705917 319.816427 
L 333.882093 317.703237 
L 340.058269 347.496898 
L 346.234445 340.182009 
L 352.410621 346.03392 
L 358.586798 348.309664 
L 364.762974 339.973012 
L 370.93915 346.335805 
L 377.115326 343.781399 
L 383.291502 360.640478 
L 389.467679 358.178959 
L 395.643855 360.408259 
L 401.820031 360.733365 
L 407.996207 363.496768 
L 414.172383 366.956827 
L 420.34856 348.495439 
L 426.524736 357.528747 
L 432.700912 346.312583 
L 438.877088 350.446076 
L 445.053264 363.659321 
L 451.22944 362.892999 
L 457.405617 371.926307 
L 463.581793 371.926307 
L 469.757969 358.713062 
L 475.934145 354.742122 
L 482.110321 366.167283 
L 488.286498 362.985887 
L 494.462674 375.177369 
L 500.63885 379.008978 
L 506.815026 345.476595 
L 512.991202 381.958156 
L 519.167379 378.66065 
L 525.343555 391.339792 
L 531.519731 384.837668 
L 537.695907 363.845096 
L 543.872083 375.456032 
L 550.04826 375.781138 
L 556.224436 372.57652 
L 562.400612 376.91901 
L 568.576788 375.316701 
L 574.752964 374.109163 
L 580.929141 376.059801 
L 587.105317 383.351468 
L 593.281493 398.143801 
L 599.457669 391.177239 
L 605.633845 377.220894 
L 611.810022 357.923519 
L 617.986198 377.476335 
L 624.162374 384.141012 
L 630.33855 379.821744 
L 636.514726 382.469037 
L 642.690903 386.765083 
L 648.867079 376.408129 
L 655.043255 376.245576 
L 661.219431 399.560335 
L 667.395607 379.984297 
L 673.571784 389.064049 
L 679.74796 383.514021 
L 685.924136 399.74611 
L 692.100312 381.772381 
L 698.276488 383.37469 
L 704.452664 384.907334 
L 710.628841 395.194623 
L 716.805017 372.901626 
L 722.981193 394.706964 
L 729.157369 389.226602 
L 735.333545 402.6024 
" style="fill:none;stroke:#2ca02c;stroke-linecap:square;stroke-width:1.5;"/>
   </g>
   <g id="line2d_21">
    <path clip-path="url(#pc4cee0c4da)" d="M 148.596807 212.264179 
L 154.772983 218.798437 
L 160.949159 225.097338 
L 167.125336 231.169358 
L 173.301512 237.022669 
L 179.477688 242.66515 
L 185.653864 248.104394 
L 191.83004 253.347722 
L 198.006216 258.40219 
L 204.182393 263.2746 
L 210.358569 267.971512 
L 216.534745 272.499245 
L 222.710921 276.863893 
L 228.887097 281.071331 
L 235.063274 285.12722 
L 241.23945 289.037021 
L 247.415626 292.805994 
L 253.591802 296.439213 
L 259.767978 299.941566 
L 265.944155 303.317768 
L 272.120331 306.572362 
L 278.296507 309.709729 
L 284.472683 312.734091 
L 290.648859 315.649519 
L 296.825036 318.459935 
L 303.001212 321.169123 
L 309.177388 323.780729 
L 315.353564 326.298267 
L 321.52974 328.725125 
L 327.705917 331.064571 
L 333.882093 333.319752 
L 340.058269 335.493703 
L 346.234445 337.589351 
L 352.410621 339.609515 
L 358.586798 341.556915 
L 364.762974 343.434172 
L 370.93915 345.243812 
L 377.115326 346.98827 
L 383.291502 348.669894 
L 389.467679 350.290948 
L 395.643855 351.853613 
L 401.820031 353.359992 
L 407.996207 354.812113 
L 414.172383 356.21193 
L 420.34856 357.561327 
L 426.524736 358.86212 
L 432.700912 360.11606 
L 438.877088 361.324833 
L 445.053264 362.490068 
L 451.22944 363.613333 
L 457.405617 364.696138 
L 463.581793 365.739942 
L 469.757969 366.746149 
L 475.934145 367.716113 
L 482.110321 368.65114 
L 488.286498 369.552489 
L 494.462674 370.421371 
L 500.63885 371.258958 
L 506.815026 372.066375 
L 512.991202 372.84471 
L 519.167379 373.59501 
L 525.343555 374.318285 
L 531.519731 375.015508 
L 537.695907 375.687618 
L 543.872083 376.335519 
L 550.04826 376.960083 
L 556.224436 377.562151 
L 562.400612 378.142534 
L 568.576788 378.702011 
L 574.752964 379.241337 
L 580.929141 379.761236 
L 587.105317 380.262409 
L 593.281493 380.745531 
L 599.457669 381.211251 
L 605.633845 381.660196 
L 611.810022 382.09297 
L 617.986198 382.510157 
L 624.162374 382.912317 
L 630.33855 383.299991 
L 636.514726 383.673702 
L 642.690903 384.033952 
L 648.867079 384.381226 
L 655.043255 384.715991 
L 661.219431 385.038699 
L 667.395607 385.349783 
L 673.571784 385.649662 
L 679.74796 385.93874 
L 685.924136 386.217405 
L 692.100312 386.486034 
L 698.276488 386.744986 
L 704.452664 386.994611 
L 710.628841 387.235245 
L 716.805017 387.467212 
L 722.981193 387.690823 
L 729.157369 387.90638 
L 735.333545 388.114173 
" style="fill:none;stroke:#d62728;stroke-linecap:square;stroke-width:1.5;"/>
   </g>
   <g id="patch_3">
    <path d="M 106.29 419.0832 
L 106.29 56.5056 
" style="fill:none;stroke:#000000;stroke-linecap:square;stroke-linejoin:miter;stroke-width:0.8;"/>
   </g>
   <g id="patch_4">
    <path d="M 765.288 419.0832 
L 765.288 56.5056 
" style="fill:none;stroke:#000000;stroke-linecap:square;stroke-linejoin:miter;stroke-width:0.8;"/>
   </g>
   <g id="patch_5">
    <path d="M 106.29 419.0832 
L 765.288 419.0832 
" style="fill:none;stroke:#000000;stroke-linecap:square;stroke-linejoin:miter;stroke-width:0.8;"/>
   </g>
   <g id="patch_6">
    <path d="M 106.29 56.5056 
L 765.288 56.5056 
" style="fill:none;stroke:#000000;stroke-linecap:square;stroke-linejoin:miter;stroke-width:0.8;"/>
   </g>
   <g id="legend_1">
    <g id="patch_7">
     <path d="M 645.470812 93.86185 
L 758.288 93.86185 
Q 760.288 93.86185 760.288 91.86185 
L 760.288 63.5056 
Q 760.288 61.5056 758.288 61.5056 
L 645.470812 61.5056 
Q 643.470812 61.5056 643.470812 63.5056 
L 643.470812 91.86185 
Q 643.470812 93.86185 645.470812 93.86185 
z
" style="fill:#ffffff;opacity:0.8;stroke:#cccccc;stroke-linejoin:miter;"/>
    </g>
    <g id="line2d_22">
     <path d="M 647.470812 69.604038 
L 667.470812 69.604038 
" style="fill:none;stroke:#ff7f0e;stroke-linecap:square;stroke-width:1.5;"/>
    </g>
    <g id="line2d_23"/>
    <g id="text_20">
     <!-- tau=3.496E+00 -->
     <defs>
      <path d="M 34.28125 27.484375 
Q 23.390625 27.484375 19.1875 25 
Q 14.984375 22.515625 14.984375 16.5 
Q 14.984375 11.71875 18.140625 8.90625 
Q 21.296875 6.109375 26.703125 6.109375 
Q 34.1875 6.109375 38.703125 11.40625 
Q 43.21875 16.703125 43.21875 25.484375 
L 43.21875 27.484375 
z
M 52.203125 31.203125 
L 52.203125 0 
L 43.21875 0 
L 43.21875 8.296875 
Q 40.140625 3.328125 35.546875 0.953125 
Q 30.953125 -1.421875 24.3125 -1.421875 
Q 15.921875 -1.421875 10.953125 3.296875 
Q 6 8.015625 6 15.921875 
Q 6 25.140625 12.171875 29.828125 
Q 18.359375 34.515625 30.609375 34.515625 
L 43.21875 34.515625 
L 43.21875 35.40625 
Q 43.21875 41.609375 39.140625 45 
Q 35.0625 48.390625 27.6875 48.390625 
Q 23 48.390625 18.546875 47.265625 
Q 14.109375 46.140625 10.015625 43.890625 
L 10.015625 52.203125 
Q 14.9375 54.109375 19.578125 55.046875 
Q 24.21875 56 28.609375 56 
Q 40.484375 56 46.34375 49.84375 
Q 52.203125 43.703125 52.203125 31.203125 
z
" id="DejaVuSans-97"/>
      <path d="M 10.59375 45.40625 
L 73.1875 45.40625 
L 73.1875 37.203125 
L 10.59375 37.203125 
z
M 10.59375 25.484375 
L 73.1875 25.484375 
L 73.1875 17.1875 
L 10.59375 17.1875 
z
" id="DejaVuSans-61"/>
      <path d="M 10.6875 12.40625 
L 21 12.40625 
L 21 0 
L 10.6875 0 
z
" id="DejaVuSans-46"/>
      <path d="M 9.8125 72.90625 
L 55.90625 72.90625 
L 55.90625 64.59375 
L 19.671875 64.59375 
L 19.671875 43.015625 
L 54.390625 43.015625 
L 54.390625 34.71875 
L 19.671875 34.71875 
L 19.671875 8.296875 
L 56.78125 8.296875 
L 56.78125 0 
L 9.8125 0 
z
" id="DejaVuSans-69"/>
      <path d="M 46 62.703125 
L 46 35.5 
L 73.1875 35.5 
L 73.1875 27.203125 
L 46 27.203125 
L 46 0 
L 37.796875 0 
L 37.796875 27.203125 
L 10.59375 27.203125 
L 10.59375 35.5 
L 37.796875 35.5 
L 37.796875 62.703125 
z
" id="DejaVuSans-43"/>
     </defs>
     <g transform="translate(675.470812 73.104038)scale(0.1 -0.1)">
      <use xlink:href="#DejaVuSans-116"/>
      <use x="39.208984" xlink:href="#DejaVuSans-97"/>
      <use x="100.488281" xlink:href="#DejaVuSans-117"/>
      <use x="163.867188" xlink:href="#DejaVuSans-61"/>
      <use x="247.65625" xlink:href="#DejaVuSans-51"/>
      <use x="311.279297" xlink:href="#DejaVuSans-46"/>
      <use x="343.066406" xlink:href="#DejaVuSans-52"/>
      <use x="406.689453" xlink:href="#DejaVuSans-57"/>
      <use x="470.3125" xlink:href="#DejaVuSans-54"/>
      <use x="533.935547" xlink:href="#DejaVuSans-69"/>
      <use x="597.119141" xlink:href="#DejaVuSans-43"/>
      <use x="680.908203" xlink:href="#DejaVuSans-48"/>
      <use x="744.53125" xlink:href="#DejaVuSans-48"/>
     </g>
    </g>
    <g id="line2d_24">
     <path d="M 647.470812 84.282163 
L 667.470812 84.282163 
" style="fill:none;stroke:#d62728;stroke-linecap:square;stroke-width:1.5;"/>
    </g>
    <g id="line2d_25"/>
    <g id="text_21">
     <!-- tau=2.181E+00 -->
     <g transform="translate(675.470812 87.782163)scale(0.1 -0.1)">
      <use xlink:href="#DejaVuSans-116"/>
      <use x="39.208984" xlink:href="#DejaVuSans-97"/>
      <use x="100.488281" xlink:href="#DejaVuSans-117"/>
      <use x="163.867188" xlink:href="#DejaVuSans-61"/>
      <use x="247.65625" xlink:href="#DejaVuSans-50"/>
      <use x="311.279297" xlink:href="#DejaVuSans-46"/>
      <use x="343.066406" xlink:href="#DejaVuSans-49"/>
      <use x="406.689453" xlink:href="#DejaVuSans-56"/>
      <use x="470.3125" xlink:href="#DejaVuSans-49"/>
      <use x="533.935547" xlink:href="#DejaVuSans-69"/>
      <use x="597.119141" xlink:href="#DejaVuSans-43"/>
      <use x="680.908203" xlink:href="#DejaVuSans-48"/>
      <use x="744.53125" xlink:href="#DejaVuSans-48"/>
     </g>
    </g>
   </g>
  </g>
 </g>
 <defs>
  <clipPath id="pc4cee0c4da">
   <rect height="362.5776" width="658.998" x="106.29" y="56.5056"/>
  </clipPath>
 </defs>
</svg>
