<?xml version="1.0" encoding="utf-8" standalone="no"?>
<!DOCTYPE svg PUBLIC "-//W3C//DTD SVG 1.1//EN"
  "http://www.w3.org/Graphics/SVG/1.1/DTD/svg11.dtd">
<!-- Created with matplotlib (http://matplotlib.org/) -->
<svg height="281.7pt" version="1.1" viewBox="0 0 596.7 281.7" width="596.7pt" xmlns="http://www.w3.org/2000/svg" xmlns:xlink="http://www.w3.org/1999/xlink">
 <defs>
  <style type="text/css">
*{stroke-linecap:butt;stroke-linejoin:round;}
  </style>
 </defs>
 <g id="figure_1">
  <g id="patch_1">
   <path d="M 0 281.7 
L 596.7 281.7 
L 596.7 0 
L 0 0 
z
" style="fill:#ffffff;"/>
  </g>
  <g id="axes_1">
   <g id="patch_2">
    <path d="M 74.5875 250.713 
L 537.03 250.713 
L 537.03 33.804 
L 74.5875 33.804 
z
" style="fill:#ffffff;"/>
   </g>
   <g id="matplotlib.axis_1">
    <g id="xtick_1">
     <g id="line2d_1">
      <defs>
       <path d="M 0 0 
L 0 3.5 
" id="mcd73d38128" style="stroke:#000000;stroke-width:0.8;"/>
      </defs>
      <g>
       <use style="stroke:#000000;stroke-width:0.8;" x="95.607614" xlink:href="#mcd73d38128" y="250.713"/>
      </g>
     </g>
     <g id="text_1">
      <!-- 0 -->
      <defs>
       <path d="M 31.78125 66.40625 
Q 24.171875 66.40625 20.328125 58.90625 
Q 16.5 51.421875 16.5 36.375 
Q 16.5 21.390625 20.328125 13.890625 
Q 24.171875 6.390625 31.78125 6.390625 
Q 39.453125 6.390625 43.28125 13.890625 
Q 47.125 21.390625 47.125 36.375 
Q 47.125 51.421875 43.28125 58.90625 
Q 39.453125 66.40625 31.78125 66.40625 
z
M 31.78125 74.21875 
Q 44.046875 74.21875 50.515625 64.515625 
Q 56.984375 54.828125 56.984375 36.375 
Q 56.984375 17.96875 50.515625 8.265625 
Q 44.046875 -1.421875 31.78125 -1.421875 
Q 19.53125 -1.421875 13.0625 8.265625 
Q 6.59375 17.96875 6.59375 36.375 
Q 6.59375 54.828125 13.0625 64.515625 
Q 19.53125 74.21875 31.78125 74.21875 
z
" id="DejaVuSans-30"/>
      </defs>
      <g transform="translate(89.245114 272.909875)scale(0.2 -0.2)">
       <use xlink:href="#DejaVuSans-30"/>
      </g>
     </g>
    </g>
    <g id="xtick_2">
     <g id="line2d_2">
      <g>
       <use style="stroke:#000000;stroke-width:0.8;" x="198.345217" xlink:href="#mcd73d38128" y="250.713"/>
      </g>
     </g>
     <g id="text_2">
      <!-- 10 -->
      <defs>
       <path d="M 12.40625 8.296875 
L 28.515625 8.296875 
L 28.515625 63.921875 
L 10.984375 60.40625 
L 10.984375 69.390625 
L 28.421875 72.90625 
L 38.28125 72.90625 
L 38.28125 8.296875 
L 54.390625 8.296875 
L 54.390625 0 
L 12.40625 0 
z
" id="DejaVuSans-31"/>
      </defs>
      <g transform="translate(185.620217 272.909875)scale(0.2 -0.2)">
       <use xlink:href="#DejaVuSans-31"/>
       <use x="63.623047" xlink:href="#DejaVuSans-30"/>
      </g>
     </g>
    </g>
    <g id="xtick_3">
     <g id="line2d_3">
      <g>
       <use style="stroke:#000000;stroke-width:0.8;" x="301.08282" xlink:href="#mcd73d38128" y="250.713"/>
      </g>
     </g>
     <g id="text_3">
      <!-- 20 -->
      <defs>
       <path d="M 19.1875 8.296875 
L 53.609375 8.296875 
L 53.609375 0 
L 7.328125 0 
L 7.328125 8.296875 
Q 12.9375 14.109375 22.625 23.890625 
Q 32.328125 33.6875 34.8125 36.53125 
Q 39.546875 41.84375 41.421875 45.53125 
Q 43.3125 49.21875 43.3125 52.78125 
Q 43.3125 58.59375 39.234375 62.25 
Q 35.15625 65.921875 28.609375 65.921875 
Q 23.96875 65.921875 18.8125 64.3125 
Q 13.671875 62.703125 7.8125 59.421875 
L 7.8125 69.390625 
Q 13.765625 71.78125 18.9375 73 
Q 24.125 74.21875 28.421875 74.21875 
Q 39.75 74.21875 46.484375 68.546875 
Q 53.21875 62.890625 53.21875 53.421875 
Q 53.21875 48.921875 51.53125 44.890625 
Q 49.859375 40.875 45.40625 35.40625 
Q 44.1875 33.984375 37.640625 27.21875 
Q 31.109375 20.453125 19.1875 8.296875 
z
" id="DejaVuSans-32"/>
      </defs>
      <g transform="translate(288.35782 272.909875)scale(0.2 -0.2)">
       <use xlink:href="#DejaVuSans-32"/>
       <use x="63.623047" xlink:href="#DejaVuSans-30"/>
      </g>
     </g>
    </g>
    <g id="xtick_4">
     <g id="line2d_4">
      <g>
       <use style="stroke:#000000;stroke-width:0.8;" x="403.820424" xlink:href="#mcd73d38128" y="250.713"/>
      </g>
     </g>
     <g id="text_4">
      <!-- 30 -->
      <defs>
       <path d="M 40.578125 39.3125 
Q 47.65625 37.796875 51.625 33 
Q 55.609375 28.21875 55.609375 21.1875 
Q 55.609375 10.40625 48.1875 4.484375 
Q 40.765625 -1.421875 27.09375 -1.421875 
Q 22.515625 -1.421875 17.65625 -0.515625 
Q 12.796875 0.390625 7.625 2.203125 
L 7.625 11.71875 
Q 11.71875 9.328125 16.59375 8.109375 
Q 21.484375 6.890625 26.8125 6.890625 
Q 36.078125 6.890625 40.9375 10.546875 
Q 45.796875 14.203125 45.796875 21.1875 
Q 45.796875 27.640625 41.28125 31.265625 
Q 36.765625 34.90625 28.71875 34.90625 
L 20.21875 34.90625 
L 20.21875 43.015625 
L 29.109375 43.015625 
Q 36.375 43.015625 40.234375 45.921875 
Q 44.09375 48.828125 44.09375 54.296875 
Q 44.09375 59.90625 40.109375 62.90625 
Q 36.140625 65.921875 28.71875 65.921875 
Q 24.65625 65.921875 20.015625 65.03125 
Q 15.375 64.15625 9.8125 62.3125 
L 9.8125 71.09375 
Q 15.4375 72.65625 20.34375 73.4375 
Q 25.25 74.21875 29.59375 74.21875 
Q 40.828125 74.21875 47.359375 69.109375 
Q 53.90625 64.015625 53.90625 55.328125 
Q 53.90625 49.265625 50.4375 45.09375 
Q 46.96875 40.921875 40.578125 39.3125 
z
" id="DejaVuSans-33"/>
      </defs>
      <g transform="translate(391.095424 272.909875)scale(0.2 -0.2)">
       <use xlink:href="#DejaVuSans-33"/>
       <use x="63.623047" xlink:href="#DejaVuSans-30"/>
      </g>
     </g>
    </g>
    <g id="xtick_5">
     <g id="line2d_5">
      <g>
       <use style="stroke:#000000;stroke-width:0.8;" x="506.558027" xlink:href="#mcd73d38128" y="250.713"/>
      </g>
     </g>
     <g id="text_5">
      <!-- 40 -->
      <defs>
       <path d="M 37.796875 64.3125 
L 12.890625 25.390625 
L 37.796875 25.390625 
z
M 35.203125 72.90625 
L 47.609375 72.90625 
L 47.609375 25.390625 
L 58.015625 25.390625 
L 58.015625 17.1875 
L 47.609375 17.1875 
L 47.609375 0 
L 37.796875 0 
L 37.796875 17.1875 
L 4.890625 17.1875 
L 4.890625 26.703125 
z
" id="DejaVuSans-34"/>
      </defs>
      <g transform="translate(493.833027 272.909875)scale(0.2 -0.2)">
       <use xlink:href="#DejaVuSans-34"/>
       <use x="63.623047" xlink:href="#DejaVuSans-30"/>
      </g>
     </g>
    </g>
    <g id="text_6">
     <!-- B$_{\mathrm{scan}}$ (G) -->
     <defs>
      <path d="M 38.375 44.671875 
Q 42.828125 44.671875 45.109375 46.625 
Q 47.40625 48.578125 47.40625 52.390625 
Q 47.40625 56.15625 45.109375 58.125 
Q 42.828125 60.109375 38.375 60.109375 
L 27.984375 60.109375 
L 27.984375 44.671875 
z
M 39.015625 12.796875 
Q 44.671875 12.796875 47.53125 15.1875 
Q 50.390625 17.578125 50.390625 22.40625 
Q 50.390625 27.15625 47.5625 29.515625 
Q 44.734375 31.890625 39.015625 31.890625 
L 27.984375 31.890625 
L 27.984375 12.796875 
z
M 56.5 39.015625 
Q 62.546875 37.25 65.859375 32.515625 
Q 69.1875 27.78125 69.1875 20.90625 
Q 69.1875 10.359375 62.0625 5.171875 
Q 54.9375 0 40.375 0 
L 9.1875 0 
L 9.1875 72.90625 
L 37.40625 72.90625 
Q 52.59375 72.90625 59.40625 68.3125 
Q 66.21875 63.71875 66.21875 53.609375 
Q 66.21875 48.296875 63.71875 44.5625 
Q 61.234375 40.828125 56.5 39.015625 
z
" id="DejaVuSans-Bold-42"/>
      <path d="M 44.28125 53.078125 
L 44.28125 44.578125 
Q 40.484375 46.53125 36.375 47.5 
Q 32.28125 48.484375 27.875 48.484375 
Q 21.1875 48.484375 17.84375 46.4375 
Q 14.5 44.390625 14.5 40.28125 
Q 14.5 37.15625 16.890625 35.375 
Q 19.28125 33.59375 26.515625 31.984375 
L 29.59375 31.296875 
Q 39.15625 29.25 43.1875 25.515625 
Q 47.21875 21.78125 47.21875 15.09375 
Q 47.21875 7.46875 41.1875 3.015625 
Q 35.15625 -1.421875 24.609375 -1.421875 
Q 20.21875 -1.421875 15.453125 -0.5625 
Q 10.6875 0.296875 5.421875 2 
L 5.421875 11.28125 
Q 10.40625 8.6875 15.234375 7.390625 
Q 20.0625 6.109375 24.8125 6.109375 
Q 31.15625 6.109375 34.5625 8.28125 
Q 37.984375 10.453125 37.984375 14.40625 
Q 37.984375 18.0625 35.515625 20.015625 
Q 33.0625 21.96875 24.703125 23.78125 
L 21.578125 24.515625 
Q 13.234375 26.265625 9.515625 29.90625 
Q 5.8125 33.546875 5.8125 39.890625 
Q 5.8125 47.609375 11.28125 51.796875 
Q 16.75 56 26.8125 56 
Q 31.78125 56 36.171875 55.265625 
Q 40.578125 54.546875 44.28125 53.078125 
z
" id="DejaVuSans-73"/>
      <path d="M 48.78125 52.59375 
L 48.78125 44.1875 
Q 44.96875 46.296875 41.140625 47.34375 
Q 37.3125 48.390625 33.40625 48.390625 
Q 24.65625 48.390625 19.8125 42.84375 
Q 14.984375 37.3125 14.984375 27.296875 
Q 14.984375 17.28125 19.8125 11.734375 
Q 24.65625 6.203125 33.40625 6.203125 
Q 37.3125 6.203125 41.140625 7.25 
Q 44.96875 8.296875 48.78125 10.40625 
L 48.78125 2.09375 
Q 45.015625 0.34375 40.984375 -0.53125 
Q 36.96875 -1.421875 32.421875 -1.421875 
Q 20.0625 -1.421875 12.78125 6.34375 
Q 5.515625 14.109375 5.515625 27.296875 
Q 5.515625 40.671875 12.859375 48.328125 
Q 20.21875 56 33.015625 56 
Q 37.15625 56 41.109375 55.140625 
Q 45.0625 54.296875 48.78125 52.59375 
z
" id="DejaVuSans-63"/>
      <path d="M 34.28125 27.484375 
Q 23.390625 27.484375 19.1875 25 
Q 14.984375 22.515625 14.984375 16.5 
Q 14.984375 11.71875 18.140625 8.90625 
Q 21.296875 6.109375 26.703125 6.109375 
Q 34.1875 6.109375 38.703125 11.40625 
Q 43.21875 16.703125 43.21875 25.484375 
L 43.21875 27.484375 
z
M 52.203125 31.203125 
L 52.203125 0 
L 43.21875 0 
L 43.21875 8.296875 
Q 40.140625 3.328125 35.546875 0.953125 
Q 30.953125 -1.421875 24.3125 -1.421875 
Q 15.921875 -1.421875 10.953125 3.296875 
Q 6 8.015625 6 15.921875 
Q 6 25.140625 12.171875 29.828125 
Q 18.359375 34.515625 30.609375 34.515625 
L 43.21875 34.515625 
L 43.21875 35.40625 
Q 43.21875 41.609375 39.140625 45 
Q 35.0625 48.390625 27.6875 48.390625 
Q 23 48.390625 18.546875 47.265625 
Q 14.109375 46.140625 10.015625 43.890625 
L 10.015625 52.203125 
Q 14.9375 54.109375 19.578125 55.046875 
Q 24.21875 56 28.609375 56 
Q 40.484375 56 46.34375 49.84375 
Q 52.203125 43.703125 52.203125 31.203125 
z
" id="DejaVuSans-61"/>
      <path d="M 54.890625 33.015625 
L 54.890625 0 
L 45.90625 0 
L 45.90625 32.71875 
Q 45.90625 40.484375 42.875 44.328125 
Q 39.84375 48.1875 33.796875 48.1875 
Q 26.515625 48.1875 22.3125 43.546875 
Q 18.109375 38.921875 18.109375 30.90625 
L 18.109375 0 
L 9.078125 0 
L 9.078125 54.6875 
L 18.109375 54.6875 
L 18.109375 46.1875 
Q 21.34375 51.125 25.703125 53.5625 
Q 30.078125 56 35.796875 56 
Q 45.21875 56 50.046875 50.171875 
Q 54.890625 44.34375 54.890625 33.015625 
z
" id="DejaVuSans-6e"/>
      <path id="DejaVuSans-Bold-20"/>
      <path d="M 37.703125 -13.1875 
L 23.1875 -13.1875 
Q 15.71875 -1.125 12.15625 9.734375 
Q 8.59375 20.609375 8.59375 31.296875 
Q 8.59375 42 12.171875 52.953125 
Q 15.765625 63.921875 23.1875 75.875 
L 37.703125 75.875 
Q 31.453125 64.3125 28.328125 53.25 
Q 25.203125 42.1875 25.203125 31.390625 
Q 25.203125 20.609375 28.296875 9.515625 
Q 31.390625 -1.5625 37.703125 -13.1875 
z
" id="DejaVuSans-Bold-28"/>
      <path d="M 74.703125 5.421875 
Q 67.671875 2 60.109375 0.28125 
Q 52.546875 -1.421875 44.484375 -1.421875 
Q 26.265625 -1.421875 15.625 8.765625 
Q 4.984375 18.953125 4.984375 36.375 
Q 4.984375 54 15.8125 64.109375 
Q 26.65625 74.21875 45.515625 74.21875 
Q 52.78125 74.21875 59.4375 72.84375 
Q 66.109375 71.484375 72.015625 68.796875 
L 72.015625 53.71875 
Q 65.921875 57.171875 59.890625 58.875 
Q 53.859375 60.59375 47.796875 60.59375 
Q 36.578125 60.59375 30.5 54.3125 
Q 24.421875 48.046875 24.421875 36.375 
Q 24.421875 24.8125 30.28125 18.5 
Q 36.140625 12.203125 46.921875 12.203125 
Q 49.859375 12.203125 52.375 12.5625 
Q 54.890625 12.9375 56.890625 13.71875 
L 56.890625 27.875 
L 45.40625 27.875 
L 45.40625 40.484375 
L 74.703125 40.484375 
z
" id="DejaVuSans-Bold-47"/>
      <path d="M 8.015625 -13.1875 
Q 14.265625 -1.5625 17.390625 9.515625 
Q 20.515625 20.609375 20.515625 31.390625 
Q 20.515625 42.1875 17.390625 53.25 
Q 14.265625 64.3125 8.015625 75.875 
L 22.515625 75.875 
Q 29.9375 63.921875 33.515625 52.953125 
Q 37.109375 42 37.109375 31.296875 
Q 37.109375 20.609375 33.546875 9.734375 
Q 29.984375 -1.125 22.515625 -13.1875 
z
" id="DejaVuSans-Bold-29"/>
     </defs>
     <g transform="translate(249.43375 300.065344)scale(0.25 -0.25)">
      <use transform="translate(0 0.125)" xlink:href="#DejaVuSans-Bold-42"/>
      <use transform="translate(77.177734 -16.28125)scale(0.7)" xlink:href="#DejaVuSans-73"/>
      <use transform="translate(113.647461 -16.28125)scale(0.7)" xlink:href="#DejaVuSans-63"/>
      <use transform="translate(152.133789 -16.28125)scale(0.7)" xlink:href="#DejaVuSans-61"/>
      <use transform="translate(195.029297 -16.28125)scale(0.7)" xlink:href="#DejaVuSans-6e"/>
      <use transform="translate(242.128906 0.125)" xlink:href="#DejaVuSans-Bold-20"/>
      <use transform="translate(276.943359 0.125)" xlink:href="#DejaVuSans-Bold-28"/>
      <use transform="translate(322.646484 0.125)" xlink:href="#DejaVuSans-Bold-47"/>
      <use transform="translate(404.726562 0.125)" xlink:href="#DejaVuSans-Bold-29"/>
     </g>
    </g>
   </g>
   <g id="matplotlib.axis_2">
    <g id="ytick_1">
     <g id="line2d_6">
      <defs>
       <path d="M 0 0 
L -3.5 0 
" id="ma1a0e289ad" style="stroke:#000000;stroke-width:0.8;"/>
      </defs>
      <g>
       <use style="stroke:#000000;stroke-width:0.8;" x="74.5875" xlink:href="#ma1a0e289ad" y="247.74902"/>
      </g>
     </g>
     <g id="text_7">
      <!-- 0.994 -->
      <defs>
       <path d="M 10.6875 12.40625 
L 21 12.40625 
L 21 0 
L 10.6875 0 
z
" id="DejaVuSans-2e"/>
       <path d="M 10.984375 1.515625 
L 10.984375 10.5 
Q 14.703125 8.734375 18.5 7.8125 
Q 22.3125 6.890625 25.984375 6.890625 
Q 35.75 6.890625 40.890625 13.453125 
Q 46.046875 20.015625 46.78125 33.40625 
Q 43.953125 29.203125 39.59375 26.953125 
Q 35.25 24.703125 29.984375 24.703125 
Q 19.046875 24.703125 12.671875 31.3125 
Q 6.296875 37.9375 6.296875 49.421875 
Q 6.296875 60.640625 12.9375 67.421875 
Q 19.578125 74.21875 30.609375 74.21875 
Q 43.265625 74.21875 49.921875 64.515625 
Q 56.59375 54.828125 56.59375 36.375 
Q 56.59375 19.140625 48.40625 8.859375 
Q 40.234375 -1.421875 26.421875 -1.421875 
Q 22.703125 -1.421875 18.890625 -0.6875 
Q 15.09375 0.046875 10.984375 1.515625 
z
M 30.609375 32.421875 
Q 37.25 32.421875 41.125 36.953125 
Q 45.015625 41.5 45.015625 49.421875 
Q 45.015625 57.28125 41.125 61.84375 
Q 37.25 66.40625 30.609375 66.40625 
Q 23.96875 66.40625 20.09375 61.84375 
Q 16.21875 57.28125 16.21875 49.421875 
Q 16.21875 41.5 20.09375 36.953125 
Q 23.96875 32.421875 30.609375 32.421875 
z
" id="DejaVuSans-39"/>
      </defs>
      <g transform="translate(10.33125 255.347457)scale(0.2 -0.2)">
       <use xlink:href="#DejaVuSans-30"/>
       <use x="63.623047" xlink:href="#DejaVuSans-2e"/>
       <use x="95.410156" xlink:href="#DejaVuSans-39"/>
       <use x="159.033203" xlink:href="#DejaVuSans-39"/>
       <use x="222.65625" xlink:href="#DejaVuSans-34"/>
      </g>
     </g>
    </g>
    <g id="ytick_2">
     <g id="line2d_7">
      <g>
       <use style="stroke:#000000;stroke-width:0.8;" x="74.5875" xlink:href="#ma1a0e289ad" y="179.720513"/>
      </g>
     </g>
     <g id="text_8">
      <!-- 0.996 -->
      <defs>
       <path d="M 33.015625 40.375 
Q 26.375 40.375 22.484375 35.828125 
Q 18.609375 31.296875 18.609375 23.390625 
Q 18.609375 15.53125 22.484375 10.953125 
Q 26.375 6.390625 33.015625 6.390625 
Q 39.65625 6.390625 43.53125 10.953125 
Q 47.40625 15.53125 47.40625 23.390625 
Q 47.40625 31.296875 43.53125 35.828125 
Q 39.65625 40.375 33.015625 40.375 
z
M 52.59375 71.296875 
L 52.59375 62.3125 
Q 48.875 64.0625 45.09375 64.984375 
Q 41.3125 65.921875 37.59375 65.921875 
Q 27.828125 65.921875 22.671875 59.328125 
Q 17.53125 52.734375 16.796875 39.40625 
Q 19.671875 43.65625 24.015625 45.921875 
Q 28.375 48.1875 33.59375 48.1875 
Q 44.578125 48.1875 50.953125 41.515625 
Q 57.328125 34.859375 57.328125 23.390625 
Q 57.328125 12.15625 50.6875 5.359375 
Q 44.046875 -1.421875 33.015625 -1.421875 
Q 20.359375 -1.421875 13.671875 8.265625 
Q 6.984375 17.96875 6.984375 36.375 
Q 6.984375 53.65625 15.1875 63.9375 
Q 23.390625 74.21875 37.203125 74.21875 
Q 40.921875 74.21875 44.703125 73.484375 
Q 48.484375 72.75 52.59375 71.296875 
z
" id="DejaVuSans-36"/>
      </defs>
      <g transform="translate(10.33125 187.318951)scale(0.2 -0.2)">
       <use xlink:href="#DejaVuSans-30"/>
       <use x="63.623047" xlink:href="#DejaVuSans-2e"/>
       <use x="95.410156" xlink:href="#DejaVuSans-39"/>
       <use x="159.033203" xlink:href="#DejaVuSans-39"/>
       <use x="222.65625" xlink:href="#DejaVuSans-36"/>
      </g>
     </g>
    </g>
    <g id="ytick_3">
     <g id="line2d_8">
      <g>
       <use style="stroke:#000000;stroke-width:0.8;" x="74.5875" xlink:href="#ma1a0e289ad" y="111.692007"/>
      </g>
     </g>
     <g id="text_9">
      <!-- 0.998 -->
      <defs>
       <path d="M 31.78125 34.625 
Q 24.75 34.625 20.71875 30.859375 
Q 16.703125 27.09375 16.703125 20.515625 
Q 16.703125 13.921875 20.71875 10.15625 
Q 24.75 6.390625 31.78125 6.390625 
Q 38.8125 6.390625 42.859375 10.171875 
Q 46.921875 13.96875 46.921875 20.515625 
Q 46.921875 27.09375 42.890625 30.859375 
Q 38.875 34.625 31.78125 34.625 
z
M 21.921875 38.8125 
Q 15.578125 40.375 12.03125 44.71875 
Q 8.5 49.078125 8.5 55.328125 
Q 8.5 64.0625 14.71875 69.140625 
Q 20.953125 74.21875 31.78125 74.21875 
Q 42.671875 74.21875 48.875 69.140625 
Q 55.078125 64.0625 55.078125 55.328125 
Q 55.078125 49.078125 51.53125 44.71875 
Q 48 40.375 41.703125 38.8125 
Q 48.828125 37.15625 52.796875 32.3125 
Q 56.78125 27.484375 56.78125 20.515625 
Q 56.78125 9.90625 50.3125 4.234375 
Q 43.84375 -1.421875 31.78125 -1.421875 
Q 19.734375 -1.421875 13.25 4.234375 
Q 6.78125 9.90625 6.78125 20.515625 
Q 6.78125 27.484375 10.78125 32.3125 
Q 14.796875 37.15625 21.921875 38.8125 
z
M 18.3125 54.390625 
Q 18.3125 48.734375 21.84375 45.5625 
Q 25.390625 42.390625 31.78125 42.390625 
Q 38.140625 42.390625 41.71875 45.5625 
Q 45.3125 48.734375 45.3125 54.390625 
Q 45.3125 60.0625 41.71875 63.234375 
Q 38.140625 66.40625 31.78125 66.40625 
Q 25.390625 66.40625 21.84375 63.234375 
Q 18.3125 60.0625 18.3125 54.390625 
z
" id="DejaVuSans-38"/>
      </defs>
      <g transform="translate(10.33125 119.290444)scale(0.2 -0.2)">
       <use xlink:href="#DejaVuSans-30"/>
       <use x="63.623047" xlink:href="#DejaVuSans-2e"/>
       <use x="95.410156" xlink:href="#DejaVuSans-39"/>
       <use x="159.033203" xlink:href="#DejaVuSans-39"/>
       <use x="222.65625" xlink:href="#DejaVuSans-38"/>
      </g>
     </g>
    </g>
    <g id="ytick_4">
     <g id="line2d_9">
      <g>
       <use style="stroke:#000000;stroke-width:0.8;" x="74.5875" xlink:href="#ma1a0e289ad" y="43.6635"/>
      </g>
     </g>
     <g id="text_10">
      <!-- 1.000 -->
      <g transform="translate(10.33125 51.261938)scale(0.2 -0.2)">
       <use xlink:href="#DejaVuSans-31"/>
       <use x="63.623047" xlink:href="#DejaVuSans-2e"/>
       <use x="95.410156" xlink:href="#DejaVuSans-30"/>
       <use x="159.033203" xlink:href="#DejaVuSans-30"/>
       <use x="222.65625" xlink:href="#DejaVuSans-30"/>
      </g>
     </g>
    </g>
    <g id="text_11">
     <!-- Reflected signal -->
     <defs>
      <path d="M 35.890625 40.578125 
Q 41.796875 40.578125 44.359375 42.765625 
Q 46.921875 44.96875 46.921875 50 
Q 46.921875 54.984375 44.359375 57.125 
Q 41.796875 59.28125 35.890625 59.28125 
L 27.984375 59.28125 
L 27.984375 40.578125 
z
M 27.984375 27.59375 
L 27.984375 0 
L 9.1875 0 
L 9.1875 72.90625 
L 37.890625 72.90625 
Q 52.296875 72.90625 59 68.0625 
Q 65.71875 63.234375 65.71875 52.78125 
Q 65.71875 45.5625 62.21875 40.921875 
Q 58.734375 36.28125 51.703125 34.078125 
Q 55.5625 33.203125 58.609375 30.09375 
Q 61.671875 27 64.796875 20.703125 
L 75 0 
L 54.984375 0 
L 46.09375 18.109375 
Q 43.40625 23.578125 40.640625 25.578125 
Q 37.890625 27.59375 33.296875 27.59375 
z
" id="DejaVuSans-Bold-52"/>
      <path d="M 62.984375 27.484375 
L 62.984375 22.515625 
L 22.125 22.515625 
Q 22.75 16.359375 26.5625 13.28125 
Q 30.375 10.203125 37.203125 10.203125 
Q 42.71875 10.203125 48.5 11.84375 
Q 54.296875 13.484375 60.40625 16.796875 
L 60.40625 3.328125 
Q 54.203125 0.984375 48 -0.21875 
Q 41.796875 -1.421875 35.59375 -1.421875 
Q 20.75 -1.421875 12.515625 6.125 
Q 4.296875 13.671875 4.296875 27.296875 
Q 4.296875 40.671875 12.375 48.328125 
Q 20.453125 56 34.625 56 
Q 47.515625 56 55.25 48.234375 
Q 62.984375 40.484375 62.984375 27.484375 
z
M 45.015625 33.296875 
Q 45.015625 38.28125 42.109375 41.328125 
Q 39.203125 44.390625 34.515625 44.390625 
Q 29.4375 44.390625 26.265625 41.53125 
Q 23.09375 38.671875 22.3125 33.296875 
z
" id="DejaVuSans-Bold-65"/>
      <path d="M 44.390625 75.984375 
L 44.390625 64.5 
L 34.71875 64.5 
Q 31 64.5 29.53125 63.15625 
Q 28.078125 61.8125 28.078125 58.5 
L 28.078125 54.6875 
L 43.015625 54.6875 
L 43.015625 42.1875 
L 28.078125 42.1875 
L 28.078125 0 
L 10.59375 0 
L 10.59375 42.1875 
L 1.90625 42.1875 
L 1.90625 54.6875 
L 10.59375 54.6875 
L 10.59375 58.5 
Q 10.59375 67.4375 15.578125 71.703125 
Q 20.5625 75.984375 31 75.984375 
z
" id="DejaVuSans-Bold-66"/>
      <path d="M 8.40625 75.984375 
L 25.875 75.984375 
L 25.875 0 
L 8.40625 0 
z
" id="DejaVuSans-Bold-6c"/>
      <path d="M 52.59375 52.984375 
L 52.59375 38.71875 
Q 49.03125 41.15625 45.4375 42.328125 
Q 41.84375 43.5 37.984375 43.5 
Q 30.671875 43.5 26.59375 39.234375 
Q 22.515625 34.96875 22.515625 27.296875 
Q 22.515625 19.625 26.59375 15.34375 
Q 30.671875 11.078125 37.984375 11.078125 
Q 42.09375 11.078125 45.78125 12.296875 
Q 49.46875 13.53125 52.59375 15.921875 
L 52.59375 1.609375 
Q 48.484375 0.09375 44.265625 -0.65625 
Q 40.046875 -1.421875 35.796875 -1.421875 
Q 21 -1.421875 12.640625 6.171875 
Q 4.296875 13.765625 4.296875 27.296875 
Q 4.296875 40.828125 12.640625 48.40625 
Q 21 56 35.796875 56 
Q 40.09375 56 44.265625 55.25 
Q 48.4375 54.5 52.59375 52.984375 
z
" id="DejaVuSans-Bold-63"/>
      <path d="M 27.484375 70.21875 
L 27.484375 54.6875 
L 45.515625 54.6875 
L 45.515625 42.1875 
L 27.484375 42.1875 
L 27.484375 19 
Q 27.484375 15.1875 29 13.84375 
Q 30.515625 12.5 35.015625 12.5 
L 44 12.5 
L 44 0 
L 29 0 
Q 18.65625 0 14.328125 4.3125 
Q 10.015625 8.640625 10.015625 19 
L 10.015625 42.1875 
L 1.3125 42.1875 
L 1.3125 54.6875 
L 10.015625 54.6875 
L 10.015625 70.21875 
z
" id="DejaVuSans-Bold-74"/>
      <path d="M 45.609375 46.6875 
L 45.609375 75.984375 
L 63.1875 75.984375 
L 63.1875 0 
L 45.609375 0 
L 45.609375 7.90625 
Q 42 3.078125 37.640625 0.828125 
Q 33.296875 -1.421875 27.59375 -1.421875 
Q 17.484375 -1.421875 10.984375 6.609375 
Q 4.5 14.65625 4.5 27.296875 
Q 4.5 39.9375 10.984375 47.96875 
Q 17.484375 56 27.59375 56 
Q 33.25 56 37.625 53.734375 
Q 42 51.46875 45.609375 46.6875 
z
M 34.078125 11.28125 
Q 39.703125 11.28125 42.65625 15.375 
Q 45.609375 19.484375 45.609375 27.296875 
Q 45.609375 35.109375 42.65625 39.203125 
Q 39.703125 43.3125 34.078125 43.3125 
Q 28.515625 43.3125 25.5625 39.203125 
Q 22.609375 35.109375 22.609375 27.296875 
Q 22.609375 19.484375 25.5625 15.375 
Q 28.515625 11.28125 34.078125 11.28125 
z
" id="DejaVuSans-Bold-64"/>
      <path d="M 51.125 52.984375 
L 51.125 39.703125 
Q 45.515625 42.046875 40.28125 43.21875 
Q 35.0625 44.390625 30.421875 44.390625 
Q 25.4375 44.390625 23.015625 43.140625 
Q 20.609375 41.890625 20.609375 39.3125 
Q 20.609375 37.203125 22.4375 36.078125 
Q 24.265625 34.96875 29 34.421875 
L 32.078125 33.984375 
Q 45.515625 32.28125 50.140625 28.375 
Q 54.78125 24.46875 54.78125 16.109375 
Q 54.78125 7.375 48.328125 2.96875 
Q 41.890625 -1.421875 29.109375 -1.421875 
Q 23.6875 -1.421875 17.890625 -0.5625 
Q 12.109375 0.296875 6 2 
L 6 15.28125 
Q 11.234375 12.75 16.71875 11.46875 
Q 22.21875 10.203125 27.875 10.203125 
Q 33.015625 10.203125 35.59375 11.609375 
Q 38.1875 13.03125 38.1875 15.828125 
Q 38.1875 18.171875 36.40625 19.3125 
Q 34.625 20.453125 29.296875 21.09375 
L 26.21875 21.484375 
Q 14.546875 22.953125 9.859375 26.90625 
Q 5.171875 30.859375 5.171875 38.921875 
Q 5.171875 47.609375 11.125 51.796875 
Q 17.09375 56 29.390625 56 
Q 34.234375 56 39.546875 55.265625 
Q 44.875 54.546875 51.125 52.984375 
z
" id="DejaVuSans-Bold-73"/>
      <path d="M 8.40625 54.6875 
L 25.875 54.6875 
L 25.875 0 
L 8.40625 0 
z
M 8.40625 75.984375 
L 25.875 75.984375 
L 25.875 61.71875 
L 8.40625 61.71875 
z
" id="DejaVuSans-Bold-69"/>
      <path d="M 45.609375 9.28125 
Q 42 4.5 37.640625 2.25 
Q 33.296875 0 27.59375 0 
Q 17.578125 0 11.03125 7.875 
Q 4.5 15.765625 4.5 27.984375 
Q 4.5 40.234375 11.03125 48.0625 
Q 17.578125 55.90625 27.59375 55.90625 
Q 33.296875 55.90625 37.640625 53.65625 
Q 42 51.421875 45.609375 46.578125 
L 45.609375 54.6875 
L 63.1875 54.6875 
L 63.1875 5.515625 
Q 63.1875 -7.671875 54.859375 -14.625 
Q 46.53125 -21.578125 30.71875 -21.578125 
Q 25.59375 -21.578125 20.796875 -20.796875 
Q 16.015625 -20.015625 11.1875 -18.40625 
L 11.1875 -4.78125 
Q 15.765625 -7.421875 20.15625 -8.71875 
Q 24.5625 -10.015625 29 -10.015625 
Q 37.59375 -10.015625 41.59375 -6.25 
Q 45.609375 -2.484375 45.609375 5.515625 
z
M 34.078125 43.3125 
Q 28.65625 43.3125 25.625 39.296875 
Q 22.609375 35.296875 22.609375 27.984375 
Q 22.609375 20.453125 25.53125 16.578125 
Q 28.46875 12.703125 34.078125 12.703125 
Q 39.546875 12.703125 42.578125 16.703125 
Q 45.609375 20.703125 45.609375 27.984375 
Q 45.609375 35.296875 42.578125 39.296875 
Q 39.546875 43.3125 34.078125 43.3125 
z
" id="DejaVuSans-Bold-67"/>
      <path d="M 63.375 33.296875 
L 63.375 0 
L 45.796875 0 
L 45.796875 5.421875 
L 45.796875 25.484375 
Q 45.796875 32.5625 45.484375 35.25 
Q 45.171875 37.9375 44.390625 39.203125 
Q 43.359375 40.921875 41.59375 41.875 
Q 39.84375 42.828125 37.59375 42.828125 
Q 32.125 42.828125 29 38.59375 
Q 25.875 34.375 25.875 26.90625 
L 25.875 0 
L 8.40625 0 
L 8.40625 54.6875 
L 25.875 54.6875 
L 25.875 46.6875 
Q 29.828125 51.46875 34.265625 53.734375 
Q 38.71875 56 44.09375 56 
Q 53.5625 56 58.46875 50.1875 
Q 63.375 44.390625 63.375 33.296875 
z
" id="DejaVuSans-Bold-6e"/>
      <path d="M 32.90625 24.609375 
Q 27.4375 24.609375 24.671875 22.75 
Q 21.921875 20.90625 21.921875 17.28125 
Q 21.921875 13.96875 24.140625 12.078125 
Q 26.375 10.203125 30.328125 10.203125 
Q 35.25 10.203125 38.625 13.734375 
Q 42 17.28125 42 22.609375 
L 42 24.609375 
z
M 59.625 31.203125 
L 59.625 0 
L 42 0 
L 42 8.109375 
Q 38.484375 3.125 34.078125 0.84375 
Q 29.6875 -1.421875 23.390625 -1.421875 
Q 14.890625 -1.421875 9.59375 3.53125 
Q 4.296875 8.5 4.296875 16.40625 
Q 4.296875 26.03125 10.90625 30.515625 
Q 17.53125 35.015625 31.6875 35.015625 
L 42 35.015625 
L 42 36.375 
Q 42 40.53125 38.71875 42.453125 
Q 35.453125 44.390625 28.515625 44.390625 
Q 22.90625 44.390625 18.0625 43.265625 
Q 13.234375 42.140625 9.078125 39.890625 
L 9.078125 53.21875 
Q 14.703125 54.59375 20.359375 55.296875 
Q 26.03125 56 31.6875 56 
Q 46.484375 56 53.046875 50.171875 
Q 59.625 44.34375 59.625 31.203125 
z
" id="DejaVuSans-Bold-61"/>
     </defs>
     <g transform="translate(0.936719 256.016313)rotate(-90)scale(0.25 -0.25)">
      <use xlink:href="#DejaVuSans-Bold-52"/>
      <use x="77.001953" xlink:href="#DejaVuSans-Bold-65"/>
      <use x="144.824219" xlink:href="#DejaVuSans-Bold-66"/>
      <use x="188.330078" xlink:href="#DejaVuSans-Bold-6c"/>
      <use x="222.607422" xlink:href="#DejaVuSans-Bold-65"/>
      <use x="290.429688" xlink:href="#DejaVuSans-Bold-63"/>
      <use x="349.707031" xlink:href="#DejaVuSans-Bold-74"/>
      <use x="397.509766" xlink:href="#DejaVuSans-Bold-65"/>
      <use x="465.332031" xlink:href="#DejaVuSans-Bold-64"/>
      <use x="536.914062" xlink:href="#DejaVuSans-Bold-20"/>
      <use x="571.728516" xlink:href="#DejaVuSans-Bold-73"/>
      <use x="631.25" xlink:href="#DejaVuSans-Bold-69"/>
      <use x="665.527344" xlink:href="#DejaVuSans-Bold-67"/>
      <use x="737.109375" xlink:href="#DejaVuSans-Bold-6e"/>
      <use x="808.300781" xlink:href="#DejaVuSans-Bold-61"/>
      <use x="875.78125" xlink:href="#DejaVuSans-Bold-6c"/>
     </g>
    </g>
   </g>
   <g id="line2d_10">
    <defs>
     <path d="M 0 5 
C 1.326016 5 2.597899 4.473168 3.535534 3.535534 
C 4.473168 2.597899 5 1.326016 5 0 
C 5 -1.326016 4.473168 -2.597899 3.535534 -3.535534 
C 2.597899 -4.473168 1.326016 -5 0 -5 
C -1.326016 -5 -2.597899 -4.473168 -3.535534 -3.535534 
C -4.473168 -2.597899 -5 -1.326016 -5 0 
C -5 1.326016 -4.473168 2.597899 -3.535534 3.535534 
C -2.597899 4.473168 -1.326016 5 0 5 
z
" id="m9b6e5c0983" style="stroke:#1f77b4;stroke-width:3;"/>
    </defs>
    <g clip-path="url(#p71c7938c93)">
     <use style="fill-opacity:0;stroke:#1f77b4;stroke-width:3;" x="95.607614" xlink:href="#m9b6e5c0983" y="115.694044"/>
     <use style="fill-opacity:0;stroke:#1f77b4;stroke-width:3;" x="99.110966" xlink:href="#m9b6e5c0983" y="120.291738"/>
     <use style="fill-opacity:0;stroke:#1f77b4;stroke-width:3;" x="102.614318" xlink:href="#m9b6e5c0983" y="101.900961"/>
     <use style="fill-opacity:0;stroke:#1f77b4;stroke-width:3;" x="106.11767" xlink:href="#m9b6e5c0983" y="144.30192"/>
     <use style="fill-opacity:0;stroke:#1f77b4;stroke-width:3;" x="109.621023" xlink:href="#m9b6e5c0983" y="89.129588"/>
     <use style="fill-opacity:0;stroke:#1f77b4;stroke-width:3;" x="113.124375" xlink:href="#m9b6e5c0983" y="121.824303"/>
     <use style="fill-opacity:0;stroke:#1f77b4;stroke-width:3;" x="116.627727" xlink:href="#m9b6e5c0983" y="84.021039"/>
     <use style="fill-opacity:0;stroke:#1f77b4;stroke-width:3;" x="120.13108" xlink:href="#m9b6e5c0983" y="85.553604"/>
     <use style="fill-opacity:0;stroke:#1f77b4;stroke-width:3;" x="123.634432" xlink:href="#m9b6e5c0983" y="124.378578"/>
     <use style="fill-opacity:0;stroke:#1f77b4;stroke-width:3;" x="127.137784" xlink:href="#m9b6e5c0983" y="115.183189"/>
     <use style="fill-opacity:0;stroke:#1f77b4;stroke-width:3;" x="130.641136" xlink:href="#m9b6e5c0983" y="108.542075"/>
     <use style="fill-opacity:0;stroke:#1f77b4;stroke-width:3;" x="134.144489" xlink:href="#m9b6e5c0983" y="116.204899"/>
     <use style="fill-opacity:0;stroke:#1f77b4;stroke-width:3;" x="137.647841" xlink:href="#m9b6e5c0983" y="90.151298"/>
     <use style="fill-opacity:0;stroke:#1f77b4;stroke-width:3;" x="141.151193" xlink:href="#m9b6e5c0983" y="108.03122"/>
     <use style="fill-opacity:0;stroke:#1f77b4;stroke-width:3;" x="144.654545" xlink:href="#m9b6e5c0983" y="102.922671"/>
     <use style="fill-opacity:0;stroke:#1f77b4;stroke-width:3;" x="148.157898" xlink:href="#m9b6e5c0983" y="105.476946"/>
     <use style="fill-opacity:0;stroke:#1f77b4;stroke-width:3;" x="151.66125" xlink:href="#m9b6e5c0983" y="98.835832"/>
     <use style="fill-opacity:0;stroke:#1f77b4;stroke-width:3;" x="155.164602" xlink:href="#m9b6e5c0983" y="102.411816"/>
     <use style="fill-opacity:0;stroke:#1f77b4;stroke-width:3;" x="158.667955" xlink:href="#m9b6e5c0983" y="93.727282"/>
     <use style="fill-opacity:0;stroke:#1f77b4;stroke-width:3;" x="162.171307" xlink:href="#m9b6e5c0983" y="75.336505"/>
     <use style="fill-opacity:0;stroke:#1f77b4;stroke-width:3;" x="165.674659" xlink:href="#m9b6e5c0983" y="85.553604"/>
     <use style="fill-opacity:0;stroke:#1f77b4;stroke-width:3;" x="169.178011" xlink:href="#m9b6e5c0983" y="94.238137"/>
     <use style="fill-opacity:0;stroke:#1f77b4;stroke-width:3;" x="172.681364" xlink:href="#m9b6e5c0983" y="99.857541"/>
     <use style="fill-opacity:0;stroke:#1f77b4;stroke-width:3;" x="176.184716" xlink:href="#m9b6e5c0983" y="77.379925"/>
     <use style="fill-opacity:0;stroke:#1f77b4;stroke-width:3;" x="179.688068" xlink:href="#m9b6e5c0983" y="69.717101"/>
     <use style="fill-opacity:0;stroke:#1f77b4;stroke-width:3;" x="183.19142" xlink:href="#m9b6e5c0983" y="92.705573"/>
     <use style="fill-opacity:0;stroke:#1f77b4;stroke-width:3;" x="186.694773" xlink:href="#m9b6e5c0983" y="81.466764"/>
     <use style="fill-opacity:0;stroke:#1f77b4;stroke-width:3;" x="190.198125" xlink:href="#m9b6e5c0983" y="113.650624"/>
     <use style="fill-opacity:0;stroke:#1f77b4;stroke-width:3;" x="193.701477" xlink:href="#m9b6e5c0983" y="103.944381"/>
     <use style="fill-opacity:0;stroke:#1f77b4;stroke-width:3;" x="197.20483" xlink:href="#m9b6e5c0983" y="91.683863"/>
     <use style="fill-opacity:0;stroke:#1f77b4;stroke-width:3;" x="200.708182" xlink:href="#m9b6e5c0983" y="94.238137"/>
     <use style="fill-opacity:0;stroke:#1f77b4;stroke-width:3;" x="204.211534" xlink:href="#m9b6e5c0983" y="92.705573"/>
     <use style="fill-opacity:0;stroke:#1f77b4;stroke-width:3;" x="207.714886" xlink:href="#m9b6e5c0983" y="97.814122"/>
     <use style="fill-opacity:0;stroke:#1f77b4;stroke-width:3;" x="211.218239" xlink:href="#m9b6e5c0983" y="120.802593"/>
     <use style="fill-opacity:0;stroke:#1f77b4;stroke-width:3;" x="214.721591" xlink:href="#m9b6e5c0983" y="69.206246"/>
     <use style="fill-opacity:0;stroke:#1f77b4;stroke-width:3;" x="218.224943" xlink:href="#m9b6e5c0983" y="112.11806"/>
     <use style="fill-opacity:0;stroke:#1f77b4;stroke-width:3;" x="221.728295" xlink:href="#m9b6e5c0983" y="93.216427"/>
     <use style="fill-opacity:0;stroke:#1f77b4;stroke-width:3;" x="225.231648" xlink:href="#m9b6e5c0983" y="107.00951"/>
     <use style="fill-opacity:0;stroke:#1f77b4;stroke-width:3;" x="228.735" xlink:href="#m9b6e5c0983" y="69.206246"/>
     <use style="fill-opacity:0;stroke:#1f77b4;stroke-width:3;" x="232.238352" xlink:href="#m9b6e5c0983" y="117.226609"/>
     <use style="fill-opacity:0;stroke:#1f77b4;stroke-width:3;" x="235.741705" xlink:href="#m9b6e5c0983" y="126.932852"/>
     <use style="fill-opacity:0;stroke:#1f77b4;stroke-width:3;" x="239.245057" xlink:href="#m9b6e5c0983" y="107.00951"/>
     <use style="fill-opacity:0;stroke:#1f77b4;stroke-width:3;" x="242.748409" xlink:href="#m9b6e5c0983" y="147.877904"/>
     <use style="fill-opacity:0;stroke:#1f77b4;stroke-width:3;" x="246.251761" xlink:href="#m9b6e5c0983" y="129.487127"/>
     <use style="fill-opacity:0;stroke:#1f77b4;stroke-width:3;" x="249.755114" xlink:href="#m9b6e5c0983" y="163.203552"/>
     <use style="fill-opacity:0;stroke:#1f77b4;stroke-width:3;" x="253.258466" xlink:href="#m9b6e5c0983" y="167.801246"/>
     <use style="fill-opacity:0;stroke:#1f77b4;stroke-width:3;" x="256.761818" xlink:href="#m9b6e5c0983" y="152.475598"/>
     <use style="fill-opacity:0;stroke:#1f77b4;stroke-width:3;" x="260.26517" xlink:href="#m9b6e5c0983" y="155.540728"/>
     <use style="fill-opacity:0;stroke:#1f77b4;stroke-width:3;" x="263.768523" xlink:href="#m9b6e5c0983" y="197.941687"/>
     <use style="fill-opacity:0;stroke:#1f77b4;stroke-width:3;" x="267.271875" xlink:href="#m9b6e5c0983" y="240.8535"/>
     <use style="fill-opacity:0;stroke:#1f77b4;stroke-width:3;" x="270.775227" xlink:href="#m9b6e5c0983" y="212.756479"/>
     <use style="fill-opacity:0;stroke:#1f77b4;stroke-width:3;" x="274.27858" xlink:href="#m9b6e5c0983" y="240.8535"/>
     <use style="fill-opacity:0;stroke:#1f77b4;stroke-width:3;" x="277.781932" xlink:href="#m9b6e5c0983" y="222.973578"/>
     <use style="fill-opacity:0;stroke:#1f77b4;stroke-width:3;" x="281.285284" xlink:href="#m9b6e5c0983" y="221.441013"/>
     <use style="fill-opacity:0;stroke:#1f77b4;stroke-width:3;" x="284.788636" xlink:href="#m9b6e5c0983" y="215.310754"/>
     <use style="fill-opacity:0;stroke:#1f77b4;stroke-width:3;" x="288.291989" xlink:href="#m9b6e5c0983" y="201.517671"/>
     <use style="fill-opacity:0;stroke:#1f77b4;stroke-width:3;" x="291.795341" xlink:href="#m9b6e5c0983" y="209.180495"/>
     <use style="fill-opacity:0;stroke:#1f77b4;stroke-width:3;" x="295.298693" xlink:href="#m9b6e5c0983" y="189.257153"/>
     <use style="fill-opacity:0;stroke:#1f77b4;stroke-width:3;" x="298.802045" xlink:href="#m9b6e5c0983" y="117.737464"/>
     <use style="fill-opacity:0;stroke:#1f77b4;stroke-width:3;" x="302.305398" xlink:href="#m9b6e5c0983" y="133.573966"/>
     <use style="fill-opacity:0;stroke:#1f77b4;stroke-width:3;" x="305.80875" xlink:href="#m9b6e5c0983" y="150.943034"/>
     <use style="fill-opacity:0;stroke:#1f77b4;stroke-width:3;" x="309.312102" xlink:href="#m9b6e5c0983" y="102.411816"/>
     <use style="fill-opacity:0;stroke:#1f77b4;stroke-width:3;" x="312.815455" xlink:href="#m9b6e5c0983" y="88.618733"/>
     <use style="fill-opacity:0;stroke:#1f77b4;stroke-width:3;" x="316.318807" xlink:href="#m9b6e5c0983" y="103.433526"/>
     <use style="fill-opacity:0;stroke:#1f77b4;stroke-width:3;" x="319.822159" xlink:href="#m9b6e5c0983" y="107.00951"/>
     <use style="fill-opacity:0;stroke:#1f77b4;stroke-width:3;" x="323.325511" xlink:href="#m9b6e5c0983" y="72.782231"/>
     <use style="fill-opacity:0;stroke:#1f77b4;stroke-width:3;" x="326.828864" xlink:href="#m9b6e5c0983" y="97.303267"/>
     <use style="fill-opacity:0;stroke:#1f77b4;stroke-width:3;" x="330.332216" xlink:href="#m9b6e5c0983" y="87.597023"/>
     <use style="fill-opacity:0;stroke:#1f77b4;stroke-width:3;" x="333.835568" xlink:href="#m9b6e5c0983" y="73.80394"/>
     <use style="fill-opacity:0;stroke:#1f77b4;stroke-width:3;" x="337.33892" xlink:href="#m9b6e5c0983" y="105.476946"/>
     <use style="fill-opacity:0;stroke:#1f77b4;stroke-width:3;" x="340.842273" xlink:href="#m9b6e5c0983" y="69.717101"/>
     <use style="fill-opacity:0;stroke:#1f77b4;stroke-width:3;" x="344.345625" xlink:href="#m9b6e5c0983" y="109.563785"/>
     <use style="fill-opacity:0;stroke:#1f77b4;stroke-width:3;" x="347.848977" xlink:href="#m9b6e5c0983" y="84.531894"/>
     <use style="fill-opacity:0;stroke:#1f77b4;stroke-width:3;" x="351.35233" xlink:href="#m9b6e5c0983" y="86.064459"/>
     <use style="fill-opacity:0;stroke:#1f77b4;stroke-width:3;" x="354.855682" xlink:href="#m9b6e5c0983" y="111.607205"/>
     <use style="fill-opacity:0;stroke:#1f77b4;stroke-width:3;" x="358.359034" xlink:href="#m9b6e5c0983" y="91.683863"/>
     <use style="fill-opacity:0;stroke:#1f77b4;stroke-width:3;" x="361.862386" xlink:href="#m9b6e5c0983" y="79.423345"/>
     <use style="fill-opacity:0;stroke:#1f77b4;stroke-width:3;" x="365.365739" xlink:href="#m9b6e5c0983" y="84.021039"/>
     <use style="fill-opacity:0;stroke:#1f77b4;stroke-width:3;" x="368.869091" xlink:href="#m9b6e5c0983" y="86.064459"/>
     <use style="fill-opacity:0;stroke:#1f77b4;stroke-width:3;" x="372.372443" xlink:href="#m9b6e5c0983" y="114.672334"/>
     <use style="fill-opacity:0;stroke:#1f77b4;stroke-width:3;" x="375.875795" xlink:href="#m9b6e5c0983" y="94.238137"/>
     <use style="fill-opacity:0;stroke:#1f77b4;stroke-width:3;" x="379.379148" xlink:href="#m9b6e5c0983" y="89.640443"/>
     <use style="fill-opacity:0;stroke:#1f77b4;stroke-width:3;" x="382.8825" xlink:href="#m9b6e5c0983" y="101.900961"/>
     <use style="fill-opacity:0;stroke:#1f77b4;stroke-width:3;" x="386.385852" xlink:href="#m9b6e5c0983" y="82.999329"/>
     <use style="fill-opacity:0;stroke:#1f77b4;stroke-width:3;" x="389.889205" xlink:href="#m9b6e5c0983" y="90.151298"/>
     <use style="fill-opacity:0;stroke:#1f77b4;stroke-width:3;" x="393.392557" xlink:href="#m9b6e5c0983" y="68.695391"/>
     <use style="fill-opacity:0;stroke:#1f77b4;stroke-width:3;" x="396.895909" xlink:href="#m9b6e5c0983" y="77.89078"/>
     <use style="fill-opacity:0;stroke:#1f77b4;stroke-width:3;" x="400.399261" xlink:href="#m9b6e5c0983" y="78.91249"/>
     <use style="fill-opacity:0;stroke:#1f77b4;stroke-width:3;" x="403.902614" xlink:href="#m9b6e5c0983" y="93.216427"/>
     <use style="fill-opacity:0;stroke:#1f77b4;stroke-width:3;" x="407.405966" xlink:href="#m9b6e5c0983" y="55.413163"/>
     <use style="fill-opacity:0;stroke:#1f77b4;stroke-width:3;" x="410.909318" xlink:href="#m9b6e5c0983" y="43.6635"/>
     <use style="fill-opacity:0;stroke:#1f77b4;stroke-width:3;" x="414.41267" xlink:href="#m9b6e5c0983" y="86.064459"/>
     <use style="fill-opacity:0;stroke:#1f77b4;stroke-width:3;" x="417.916023" xlink:href="#m9b6e5c0983" y="60.010858"/>
     <use style="fill-opacity:0;stroke:#1f77b4;stroke-width:3;" x="421.419375" xlink:href="#m9b6e5c0983" y="84.531894"/>
     <use style="fill-opacity:0;stroke:#1f77b4;stroke-width:3;" x="424.922727" xlink:href="#m9b6e5c0983" y="61.543422"/>
     <use style="fill-opacity:0;stroke:#1f77b4;stroke-width:3;" x="428.42608" xlink:href="#m9b6e5c0983" y="73.80394"/>
     <use style="fill-opacity:0;stroke:#1f77b4;stroke-width:3;" x="431.929432" xlink:href="#m9b6e5c0983" y="70.227956"/>
     <use style="fill-opacity:0;stroke:#1f77b4;stroke-width:3;" x="435.432784" xlink:href="#m9b6e5c0983" y="64.608552"/>
     <use style="fill-opacity:0;stroke:#1f77b4;stroke-width:3;" x="438.936136" xlink:href="#m9b6e5c0983" y="96.792412"/>
     <use style="fill-opacity:0;stroke:#1f77b4;stroke-width:3;" x="442.439489" xlink:href="#m9b6e5c0983" y="98.324977"/>
     <use style="fill-opacity:0;stroke:#1f77b4;stroke-width:3;" x="445.942841" xlink:href="#m9b6e5c0983" y="104.966091"/>
     <use style="fill-opacity:0;stroke:#1f77b4;stroke-width:3;" x="449.446193" xlink:href="#m9b6e5c0983" y="76.358215"/>
     <use style="fill-opacity:0;stroke:#1f77b4;stroke-width:3;" x="452.949545" xlink:href="#m9b6e5c0983" y="73.80394"/>
     <use style="fill-opacity:0;stroke:#1f77b4;stroke-width:3;" x="456.452898" xlink:href="#m9b6e5c0983" y="115.694044"/>
     <use style="fill-opacity:0;stroke:#1f77b4;stroke-width:3;" x="459.95625" xlink:href="#m9b6e5c0983" y="90.151298"/>
     <use style="fill-opacity:0;stroke:#1f77b4;stroke-width:3;" x="463.459602" xlink:href="#m9b6e5c0983" y="94.748992"/>
     <use style="fill-opacity:0;stroke:#1f77b4;stroke-width:3;" x="466.962955" xlink:href="#m9b6e5c0983" y="111.09635"/>
     <use style="fill-opacity:0;stroke:#1f77b4;stroke-width:3;" x="470.466307" xlink:href="#m9b6e5c0983" y="69.717101"/>
     <use style="fill-opacity:0;stroke:#1f77b4;stroke-width:3;" x="473.969659" xlink:href="#m9b6e5c0983" y="110.07464"/>
     <use style="fill-opacity:0;stroke:#1f77b4;stroke-width:3;" x="477.473011" xlink:href="#m9b6e5c0983" y="80.445054"/>
     <use style="fill-opacity:0;stroke:#1f77b4;stroke-width:3;" x="480.976364" xlink:href="#m9b6e5c0983" y="79.934199"/>
     <use style="fill-opacity:0;stroke:#1f77b4;stroke-width:3;" x="484.479716" xlink:href="#m9b6e5c0983" y="62.054277"/>
     <use style="fill-opacity:0;stroke:#1f77b4;stroke-width:3;" x="487.983068" xlink:href="#m9b6e5c0983" y="91.683863"/>
     <use style="fill-opacity:0;stroke:#1f77b4;stroke-width:3;" x="491.48642" xlink:href="#m9b6e5c0983" y="90.662153"/>
     <use style="fill-opacity:0;stroke:#1f77b4;stroke-width:3;" x="494.989773" xlink:href="#m9b6e5c0983" y="79.423345"/>
     <use style="fill-opacity:0;stroke:#1f77b4;stroke-width:3;" x="498.493125" xlink:href="#m9b6e5c0983" y="104.966091"/>
     <use style="fill-opacity:0;stroke:#1f77b4;stroke-width:3;" x="501.996477" xlink:href="#m9b6e5c0983" y="90.662153"/>
     <use style="fill-opacity:0;stroke:#1f77b4;stroke-width:3;" x="505.49983" xlink:href="#m9b6e5c0983" y="103.944381"/>
     <use style="fill-opacity:0;stroke:#1f77b4;stroke-width:3;" x="509.003182" xlink:href="#m9b6e5c0983" y="84.021039"/>
     <use style="fill-opacity:0;stroke:#1f77b4;stroke-width:3;" x="512.506534" xlink:href="#m9b6e5c0983" y="105.476946"/>
     <use style="fill-opacity:0;stroke:#1f77b4;stroke-width:3;" x="516.009886" xlink:href="#m9b6e5c0983" y="116.715754"/>
    </g>
   </g>
   <g id="line2d_11">
    <path clip-path="url(#p71c7938c93)" d="M 165.674659 91.993011 
L 169.178011 91.993017 
L 172.681364 91.993036 
L 176.184716 91.993087 
L 179.688068 91.993222 
L 183.19142 91.993568 
L 186.694773 91.994419 
L 190.198125 91.996438 
L 193.701477 92.001054 
L 197.20483 92.01122 
L 200.708182 92.032779 
L 204.211534 92.076813 
L 207.714886 92.163397 
L 211.218239 92.327273 
L 214.721591 92.625737 
L 218.224943 93.148647 
L 221.728295 94.029603 
L 225.231648 95.456103 
L 228.735 97.675016 
L 232.238352 100.988333 
L 235.741705 105.733729 
L 239.245057 112.245564 
L 242.748409 120.795349 
L 246.251761 131.516322 
L 249.755114 144.323709 
L 253.258466 158.848546 
L 256.761818 174.406033 
L 260.26517 190.016903 
L 263.768523 204.491238 
L 267.271875 216.569776 
L 270.775227 225.10159 
L 274.27858 229.224154 
L 277.781932 228.506934 
L 281.285284 223.025456 
L 284.788636 213.348207 
L 288.291989 200.43951 
L 291.795341 185.501348 
L 295.298693 169.789995 
L 298.802045 154.445941 
L 302.305398 140.367959 
L 305.80875 128.1478 
L 309.312102 118.065877 
L 312.815455 110.135186 
L 316.318807 104.173579 
L 319.822159 99.883853 
L 323.325511 96.925393 
L 326.828864 94.967879 
L 330.332216 93.724246 
L 333.835568 92.965135 
L 337.33892 92.519712 
L 340.842273 92.26836 
L 344.345625 92.131903 
L 347.848977 92.06061 
L 351.35233 92.024756 
L 354.855682 92.007394 
L 358.359034 91.999298 
L 361.862386 91.995661 
L 365.365739 91.994088 
L 368.869091 91.993432 
L 372.372443 91.993168 
L 375.875795 91.993066 
L 379.379148 91.993028 
L 382.8825 91.993015 
L 386.385852 91.99301 
L 389.889205 91.993008 
" style="fill:none;stroke:#ff7f0e;stroke-linecap:square;stroke-width:5;"/>
   </g>
   <g id="patch_3">
    <path d="M 74.5875 250.713 
L 74.5875 33.804 
" style="fill:none;stroke:#000000;stroke-linecap:square;stroke-linejoin:miter;stroke-width:0.8;"/>
   </g>
   <g id="patch_4">
    <path d="M 537.03 250.713 
L 537.03 33.804 
" style="fill:none;stroke:#000000;stroke-linecap:square;stroke-linejoin:miter;stroke-width:0.8;"/>
   </g>
   <g id="patch_5">
    <path d="M 74.5875 250.713 
L 537.03 250.713 
" style="fill:none;stroke:#000000;stroke-linecap:square;stroke-linejoin:miter;stroke-width:0.8;"/>
   </g>
   <g id="patch_6">
    <path d="M 74.5875 33.804 
L 537.03 33.804 
" style="fill:none;stroke:#000000;stroke-linecap:square;stroke-linejoin:miter;stroke-width:0.8;"/>
   </g>
  </g>
 </g>
 <defs>
  <clipPath id="p71c7938c93">
   <rect height="216.909" width="462.4425" x="74.5875" y="33.804"/>
  </clipPath>
 </defs>
</svg>
