<?xml version="1.0" encoding="utf-8" standalone="no"?>
<!DOCTYPE svg PUBLIC "-//W3C//DTD SVG 1.1//EN"
  "http://www.w3.org/Graphics/SVG/1.1/DTD/svg11.dtd">
<!-- Created with matplotlib (http://matplotlib.org/) -->
<svg height="260.64pt" version="1.1" viewBox="0 0 560.16 260.64" width="560.16pt" xmlns="http://www.w3.org/2000/svg" xmlns:xlink="http://www.w3.org/1999/xlink">
 <defs>
  <style type="text/css">
*{stroke-linecap:butt;stroke-linejoin:round;}
  </style>
 </defs>
 <g id="figure_1">
  <g id="patch_1">
   <path d="M 0 260.64 
L 560.16 260.64 
L 560.16 0 
L 0 0 
z
" style="fill:#ffffff;"/>
  </g>
  <g id="axes_1">
   <g id="patch_2">
    <path d="M 70.02 231.9696 
L 504.144 231.9696 
L 504.144 31.2768 
L 70.02 31.2768 
z
" style="fill:#ffffff;"/>
   </g>
   <g id="matplotlib.axis_1">
    <g id="xtick_1">
     <g id="line2d_1">
      <defs>
       <path d="M 0 0 
L 0 3.5 
" id="m5c3709e5b5" style="stroke:#000000;stroke-width:0.8;"/>
      </defs>
      <g>
       <use style="stroke:#000000;stroke-width:0.8;" x="89.752909" xlink:href="#m5c3709e5b5" y="231.9696"/>
      </g>
     </g>
     <g id="text_1">
      <!-- 0 -->
      <defs>
       <path d="M 31.78125 66.40625 
Q 24.171875 66.40625 20.328125 58.90625 
Q 16.5 51.421875 16.5 36.375 
Q 16.5 21.390625 20.328125 13.890625 
Q 24.171875 6.390625 31.78125 6.390625 
Q 39.453125 6.390625 43.28125 13.890625 
Q 47.125 21.390625 47.125 36.375 
Q 47.125 51.421875 43.28125 58.90625 
Q 39.453125 66.40625 31.78125 66.40625 
z
M 31.78125 74.21875 
Q 44.046875 74.21875 50.515625 64.515625 
Q 56.984375 54.828125 56.984375 36.375 
Q 56.984375 17.96875 50.515625 8.265625 
Q 44.046875 -1.421875 31.78125 -1.421875 
Q 19.53125 -1.421875 13.0625 8.265625 
Q 6.59375 17.96875 6.59375 36.375 
Q 6.59375 54.828125 13.0625 64.515625 
Q 19.53125 74.21875 31.78125 74.21875 
z
" id="DejaVuSans-30"/>
      </defs>
      <g transform="translate(84.981034 250.367256)scale(0.15 -0.15)">
       <use xlink:href="#DejaVuSans-30"/>
      </g>
     </g>
    </g>
    <g id="xtick_2">
     <g id="line2d_2">
      <g>
       <use style="stroke:#000000;stroke-width:0.8;" x="141.290614" xlink:href="#m5c3709e5b5" y="231.9696"/>
      </g>
     </g>
     <g id="text_2">
      <!-- 5 -->
      <defs>
       <path d="M 10.796875 72.90625 
L 49.515625 72.90625 
L 49.515625 64.59375 
L 19.828125 64.59375 
L 19.828125 46.734375 
Q 21.96875 47.46875 24.109375 47.828125 
Q 26.265625 48.1875 28.421875 48.1875 
Q 40.625 48.1875 47.75 41.5 
Q 54.890625 34.8125 54.890625 23.390625 
Q 54.890625 11.625 47.5625 5.09375 
Q 40.234375 -1.421875 26.90625 -1.421875 
Q 22.3125 -1.421875 17.546875 -0.640625 
Q 12.796875 0.140625 7.71875 1.703125 
L 7.71875 11.625 
Q 12.109375 9.234375 16.796875 8.0625 
Q 21.484375 6.890625 26.703125 6.890625 
Q 35.15625 6.890625 40.078125 11.328125 
Q 45.015625 15.765625 45.015625 23.390625 
Q 45.015625 31 40.078125 35.4375 
Q 35.15625 39.890625 26.703125 39.890625 
Q 22.75 39.890625 18.8125 39.015625 
Q 14.890625 38.140625 10.796875 36.28125 
z
" id="DejaVuSans-35"/>
      </defs>
      <g transform="translate(136.518739 250.367256)scale(0.15 -0.15)">
       <use xlink:href="#DejaVuSans-35"/>
      </g>
     </g>
    </g>
    <g id="xtick_3">
     <g id="line2d_3">
      <g>
       <use style="stroke:#000000;stroke-width:0.8;" x="192.828319" xlink:href="#m5c3709e5b5" y="231.9696"/>
      </g>
     </g>
     <g id="text_3">
      <!-- 10 -->
      <defs>
       <path d="M 12.40625 8.296875 
L 28.515625 8.296875 
L 28.515625 63.921875 
L 10.984375 60.40625 
L 10.984375 69.390625 
L 28.421875 72.90625 
L 38.28125 72.90625 
L 38.28125 8.296875 
L 54.390625 8.296875 
L 54.390625 0 
L 12.40625 0 
z
" id="DejaVuSans-31"/>
      </defs>
      <g transform="translate(183.284569 250.367256)scale(0.15 -0.15)">
       <use xlink:href="#DejaVuSans-31"/>
       <use x="63.623047" xlink:href="#DejaVuSans-30"/>
      </g>
     </g>
    </g>
    <g id="xtick_4">
     <g id="line2d_4">
      <g>
       <use style="stroke:#000000;stroke-width:0.8;" x="244.366025" xlink:href="#m5c3709e5b5" y="231.9696"/>
      </g>
     </g>
     <g id="text_4">
      <!-- 15 -->
      <g transform="translate(234.822275 250.367256)scale(0.15 -0.15)">
       <use xlink:href="#DejaVuSans-31"/>
       <use x="63.623047" xlink:href="#DejaVuSans-35"/>
      </g>
     </g>
    </g>
    <g id="xtick_5">
     <g id="line2d_5">
      <g>
       <use style="stroke:#000000;stroke-width:0.8;" x="295.90373" xlink:href="#m5c3709e5b5" y="231.9696"/>
      </g>
     </g>
     <g id="text_5">
      <!-- 20 -->
      <defs>
       <path d="M 19.1875 8.296875 
L 53.609375 8.296875 
L 53.609375 0 
L 7.328125 0 
L 7.328125 8.296875 
Q 12.9375 14.109375 22.625 23.890625 
Q 32.328125 33.6875 34.8125 36.53125 
Q 39.546875 41.84375 41.421875 45.53125 
Q 43.3125 49.21875 43.3125 52.78125 
Q 43.3125 58.59375 39.234375 62.25 
Q 35.15625 65.921875 28.609375 65.921875 
Q 23.96875 65.921875 18.8125 64.3125 
Q 13.671875 62.703125 7.8125 59.421875 
L 7.8125 69.390625 
Q 13.765625 71.78125 18.9375 73 
Q 24.125 74.21875 28.421875 74.21875 
Q 39.75 74.21875 46.484375 68.546875 
Q 53.21875 62.890625 53.21875 53.421875 
Q 53.21875 48.921875 51.53125 44.890625 
Q 49.859375 40.875 45.40625 35.40625 
Q 44.1875 33.984375 37.640625 27.21875 
Q 31.109375 20.453125 19.1875 8.296875 
z
" id="DejaVuSans-32"/>
      </defs>
      <g transform="translate(286.35998 250.367256)scale(0.15 -0.15)">
       <use xlink:href="#DejaVuSans-32"/>
       <use x="63.623047" xlink:href="#DejaVuSans-30"/>
      </g>
     </g>
    </g>
    <g id="xtick_6">
     <g id="line2d_6">
      <g>
       <use style="stroke:#000000;stroke-width:0.8;" x="347.441435" xlink:href="#m5c3709e5b5" y="231.9696"/>
      </g>
     </g>
     <g id="text_6">
      <!-- 25 -->
      <g transform="translate(337.897685 250.367256)scale(0.15 -0.15)">
       <use xlink:href="#DejaVuSans-32"/>
       <use x="63.623047" xlink:href="#DejaVuSans-35"/>
      </g>
     </g>
    </g>
    <g id="xtick_7">
     <g id="line2d_7">
      <g>
       <use style="stroke:#000000;stroke-width:0.8;" x="398.97914" xlink:href="#m5c3709e5b5" y="231.9696"/>
      </g>
     </g>
     <g id="text_7">
      <!-- 30 -->
      <defs>
       <path d="M 40.578125 39.3125 
Q 47.65625 37.796875 51.625 33 
Q 55.609375 28.21875 55.609375 21.1875 
Q 55.609375 10.40625 48.1875 4.484375 
Q 40.765625 -1.421875 27.09375 -1.421875 
Q 22.515625 -1.421875 17.65625 -0.515625 
Q 12.796875 0.390625 7.625 2.203125 
L 7.625 11.71875 
Q 11.71875 9.328125 16.59375 8.109375 
Q 21.484375 6.890625 26.8125 6.890625 
Q 36.078125 6.890625 40.9375 10.546875 
Q 45.796875 14.203125 45.796875 21.1875 
Q 45.796875 27.640625 41.28125 31.265625 
Q 36.765625 34.90625 28.71875 34.90625 
L 20.21875 34.90625 
L 20.21875 43.015625 
L 29.109375 43.015625 
Q 36.375 43.015625 40.234375 45.921875 
Q 44.09375 48.828125 44.09375 54.296875 
Q 44.09375 59.90625 40.109375 62.90625 
Q 36.140625 65.921875 28.71875 65.921875 
Q 24.65625 65.921875 20.015625 65.03125 
Q 15.375 64.15625 9.8125 62.3125 
L 9.8125 71.09375 
Q 15.4375 72.65625 20.34375 73.4375 
Q 25.25 74.21875 29.59375 74.21875 
Q 40.828125 74.21875 47.359375 69.109375 
Q 53.90625 64.015625 53.90625 55.328125 
Q 53.90625 49.265625 50.4375 45.09375 
Q 46.96875 40.921875 40.578125 39.3125 
z
" id="DejaVuSans-33"/>
      </defs>
      <g transform="translate(389.43539 250.367256)scale(0.15 -0.15)">
       <use xlink:href="#DejaVuSans-33"/>
       <use x="63.623047" xlink:href="#DejaVuSans-30"/>
      </g>
     </g>
    </g>
    <g id="xtick_8">
     <g id="line2d_8">
      <g>
       <use style="stroke:#000000;stroke-width:0.8;" x="450.516845" xlink:href="#m5c3709e5b5" y="231.9696"/>
      </g>
     </g>
     <g id="text_8">
      <!-- 35 -->
      <g transform="translate(440.973095 250.367256)scale(0.15 -0.15)">
       <use xlink:href="#DejaVuSans-33"/>
       <use x="63.623047" xlink:href="#DejaVuSans-35"/>
      </g>
     </g>
    </g>
    <g id="xtick_9">
     <g id="line2d_9">
      <g>
       <use style="stroke:#000000;stroke-width:0.8;" x="502.054551" xlink:href="#m5c3709e5b5" y="231.9696"/>
      </g>
     </g>
     <g id="text_9">
      <!-- 40 -->
      <defs>
       <path d="M 37.796875 64.3125 
L 12.890625 25.390625 
L 37.796875 25.390625 
z
M 35.203125 72.90625 
L 47.609375 72.90625 
L 47.609375 25.390625 
L 58.015625 25.390625 
L 58.015625 17.1875 
L 47.609375 17.1875 
L 47.609375 0 
L 37.796875 0 
L 37.796875 17.1875 
L 4.890625 17.1875 
L 4.890625 26.703125 
z
" id="DejaVuSans-34"/>
      </defs>
      <g transform="translate(492.510801 250.367256)scale(0.15 -0.15)">
       <use xlink:href="#DejaVuSans-34"/>
       <use x="63.623047" xlink:href="#DejaVuSans-30"/>
      </g>
     </g>
    </g>
    <g id="text_10">
     <!-- B$_{\mathrm{scan}}$ (G) -->
     <defs>
      <path d="M 38.375 44.671875 
Q 42.828125 44.671875 45.109375 46.625 
Q 47.40625 48.578125 47.40625 52.390625 
Q 47.40625 56.15625 45.109375 58.125 
Q 42.828125 60.109375 38.375 60.109375 
L 27.984375 60.109375 
L 27.984375 44.671875 
z
M 39.015625 12.796875 
Q 44.671875 12.796875 47.53125 15.1875 
Q 50.390625 17.578125 50.390625 22.40625 
Q 50.390625 27.15625 47.5625 29.515625 
Q 44.734375 31.890625 39.015625 31.890625 
L 27.984375 31.890625 
L 27.984375 12.796875 
z
M 56.5 39.015625 
Q 62.546875 37.25 65.859375 32.515625 
Q 69.1875 27.78125 69.1875 20.90625 
Q 69.1875 10.359375 62.0625 5.171875 
Q 54.9375 0 40.375 0 
L 9.1875 0 
L 9.1875 72.90625 
L 37.40625 72.90625 
Q 52.59375 72.90625 59.40625 68.3125 
Q 66.21875 63.71875 66.21875 53.609375 
Q 66.21875 48.296875 63.71875 44.5625 
Q 61.234375 40.828125 56.5 39.015625 
z
" id="DejaVuSans-Bold-42"/>
      <path d="M 44.28125 53.078125 
L 44.28125 44.578125 
Q 40.484375 46.53125 36.375 47.5 
Q 32.28125 48.484375 27.875 48.484375 
Q 21.1875 48.484375 17.84375 46.4375 
Q 14.5 44.390625 14.5 40.28125 
Q 14.5 37.15625 16.890625 35.375 
Q 19.28125 33.59375 26.515625 31.984375 
L 29.59375 31.296875 
Q 39.15625 29.25 43.1875 25.515625 
Q 47.21875 21.78125 47.21875 15.09375 
Q 47.21875 7.46875 41.1875 3.015625 
Q 35.15625 -1.421875 24.609375 -1.421875 
Q 20.21875 -1.421875 15.453125 -0.5625 
Q 10.6875 0.296875 5.421875 2 
L 5.421875 11.28125 
Q 10.40625 8.6875 15.234375 7.390625 
Q 20.0625 6.109375 24.8125 6.109375 
Q 31.15625 6.109375 34.5625 8.28125 
Q 37.984375 10.453125 37.984375 14.40625 
Q 37.984375 18.0625 35.515625 20.015625 
Q 33.0625 21.96875 24.703125 23.78125 
L 21.578125 24.515625 
Q 13.234375 26.265625 9.515625 29.90625 
Q 5.8125 33.546875 5.8125 39.890625 
Q 5.8125 47.609375 11.28125 51.796875 
Q 16.75 56 26.8125 56 
Q 31.78125 56 36.171875 55.265625 
Q 40.578125 54.546875 44.28125 53.078125 
z
" id="DejaVuSans-73"/>
      <path d="M 48.78125 52.59375 
L 48.78125 44.1875 
Q 44.96875 46.296875 41.140625 47.34375 
Q 37.3125 48.390625 33.40625 48.390625 
Q 24.65625 48.390625 19.8125 42.84375 
Q 14.984375 37.3125 14.984375 27.296875 
Q 14.984375 17.28125 19.8125 11.734375 
Q 24.65625 6.203125 33.40625 6.203125 
Q 37.3125 6.203125 41.140625 7.25 
Q 44.96875 8.296875 48.78125 10.40625 
L 48.78125 2.09375 
Q 45.015625 0.34375 40.984375 -0.53125 
Q 36.96875 -1.421875 32.421875 -1.421875 
Q 20.0625 -1.421875 12.78125 6.34375 
Q 5.515625 14.109375 5.515625 27.296875 
Q 5.515625 40.671875 12.859375 48.328125 
Q 20.21875 56 33.015625 56 
Q 37.15625 56 41.109375 55.140625 
Q 45.0625 54.296875 48.78125 52.59375 
z
" id="DejaVuSans-63"/>
      <path d="M 34.28125 27.484375 
Q 23.390625 27.484375 19.1875 25 
Q 14.984375 22.515625 14.984375 16.5 
Q 14.984375 11.71875 18.140625 8.90625 
Q 21.296875 6.109375 26.703125 6.109375 
Q 34.1875 6.109375 38.703125 11.40625 
Q 43.21875 16.703125 43.21875 25.484375 
L 43.21875 27.484375 
z
M 52.203125 31.203125 
L 52.203125 0 
L 43.21875 0 
L 43.21875 8.296875 
Q 40.140625 3.328125 35.546875 0.953125 
Q 30.953125 -1.421875 24.3125 -1.421875 
Q 15.921875 -1.421875 10.953125 3.296875 
Q 6 8.015625 6 15.921875 
Q 6 25.140625 12.171875 29.828125 
Q 18.359375 34.515625 30.609375 34.515625 
L 43.21875 34.515625 
L 43.21875 35.40625 
Q 43.21875 41.609375 39.140625 45 
Q 35.0625 48.390625 27.6875 48.390625 
Q 23 48.390625 18.546875 47.265625 
Q 14.109375 46.140625 10.015625 43.890625 
L 10.015625 52.203125 
Q 14.9375 54.109375 19.578125 55.046875 
Q 24.21875 56 28.609375 56 
Q 40.484375 56 46.34375 49.84375 
Q 52.203125 43.703125 52.203125 31.203125 
z
" id="DejaVuSans-61"/>
      <path d="M 54.890625 33.015625 
L 54.890625 0 
L 45.90625 0 
L 45.90625 32.71875 
Q 45.90625 40.484375 42.875 44.328125 
Q 39.84375 48.1875 33.796875 48.1875 
Q 26.515625 48.1875 22.3125 43.546875 
Q 18.109375 38.921875 18.109375 30.90625 
L 18.109375 0 
L 9.078125 0 
L 9.078125 54.6875 
L 18.109375 54.6875 
L 18.109375 46.1875 
Q 21.34375 51.125 25.703125 53.5625 
Q 30.078125 56 35.796875 56 
Q 45.21875 56 50.046875 50.171875 
Q 54.890625 44.34375 54.890625 33.015625 
z
" id="DejaVuSans-6e"/>
      <path id="DejaVuSans-Bold-20"/>
      <path d="M 37.703125 -13.1875 
L 23.1875 -13.1875 
Q 15.71875 -1.125 12.15625 9.734375 
Q 8.59375 20.609375 8.59375 31.296875 
Q 8.59375 42 12.171875 52.953125 
Q 15.765625 63.921875 23.1875 75.875 
L 37.703125 75.875 
Q 31.453125 64.3125 28.328125 53.25 
Q 25.203125 42.1875 25.203125 31.390625 
Q 25.203125 20.609375 28.296875 9.515625 
Q 31.390625 -1.5625 37.703125 -13.1875 
z
" id="DejaVuSans-Bold-28"/>
      <path d="M 74.703125 5.421875 
Q 67.671875 2 60.109375 0.28125 
Q 52.546875 -1.421875 44.484375 -1.421875 
Q 26.265625 -1.421875 15.625 8.765625 
Q 4.984375 18.953125 4.984375 36.375 
Q 4.984375 54 15.8125 64.109375 
Q 26.65625 74.21875 45.515625 74.21875 
Q 52.78125 74.21875 59.4375 72.84375 
Q 66.109375 71.484375 72.015625 68.796875 
L 72.015625 53.71875 
Q 65.921875 57.171875 59.890625 58.875 
Q 53.859375 60.59375 47.796875 60.59375 
Q 36.578125 60.59375 30.5 54.3125 
Q 24.421875 48.046875 24.421875 36.375 
Q 24.421875 24.8125 30.28125 18.5 
Q 36.140625 12.203125 46.921875 12.203125 
Q 49.859375 12.203125 52.375 12.5625 
Q 54.890625 12.9375 56.890625 13.71875 
L 56.890625 27.875 
L 45.40625 27.875 
L 45.40625 40.484375 
L 74.703125 40.484375 
z
" id="DejaVuSans-Bold-47"/>
      <path d="M 8.015625 -13.1875 
Q 14.265625 -1.5625 17.390625 9.515625 
Q 20.515625 20.609375 20.515625 31.390625 
Q 20.515625 42.1875 17.390625 53.25 
Q 14.265625 64.3125 8.015625 75.875 
L 22.515625 75.875 
Q 29.9375 63.921875 33.515625 52.953125 
Q 37.109375 42 37.109375 31.296875 
Q 37.109375 20.609375 33.546875 9.734375 
Q 29.984375 -1.125 22.515625 -13.1875 
z
" id="DejaVuSans-Bold-29"/>
     </defs>
     <g transform="translate(241.982 272.683662)scale(0.2 -0.2)">
      <use transform="translate(0 0.125)" xlink:href="#DejaVuSans-Bold-42"/>
      <use transform="translate(77.177734 -16.28125)scale(0.7)" xlink:href="#DejaVuSans-73"/>
      <use transform="translate(113.647461 -16.28125)scale(0.7)" xlink:href="#DejaVuSans-63"/>
      <use transform="translate(152.133789 -16.28125)scale(0.7)" xlink:href="#DejaVuSans-61"/>
      <use transform="translate(195.029297 -16.28125)scale(0.7)" xlink:href="#DejaVuSans-6e"/>
      <use transform="translate(242.128906 0.125)" xlink:href="#DejaVuSans-Bold-20"/>
      <use transform="translate(276.943359 0.125)" xlink:href="#DejaVuSans-Bold-28"/>
      <use transform="translate(322.646484 0.125)" xlink:href="#DejaVuSans-Bold-47"/>
      <use transform="translate(404.726562 0.125)" xlink:href="#DejaVuSans-Bold-29"/>
     </g>
    </g>
   </g>
   <g id="matplotlib.axis_2">
    <g id="ytick_1">
     <g id="line2d_10">
      <defs>
       <path d="M 0 0 
L -3.5 0 
" id="ma99921e65b" style="stroke:#000000;stroke-width:0.8;"/>
      </defs>
      <g>
       <use style="stroke:#000000;stroke-width:0.8;" x="70.02" xlink:href="#ma99921e65b" y="206.696712"/>
      </g>
     </g>
     <g id="text_11">
      <!-- 2600 -->
      <defs>
       <path d="M 33.015625 40.375 
Q 26.375 40.375 22.484375 35.828125 
Q 18.609375 31.296875 18.609375 23.390625 
Q 18.609375 15.53125 22.484375 10.953125 
Q 26.375 6.390625 33.015625 6.390625 
Q 39.65625 6.390625 43.53125 10.953125 
Q 47.40625 15.53125 47.40625 23.390625 
Q 47.40625 31.296875 43.53125 35.828125 
Q 39.65625 40.375 33.015625 40.375 
z
M 52.59375 71.296875 
L 52.59375 62.3125 
Q 48.875 64.0625 45.09375 64.984375 
Q 41.3125 65.921875 37.59375 65.921875 
Q 27.828125 65.921875 22.671875 59.328125 
Q 17.53125 52.734375 16.796875 39.40625 
Q 19.671875 43.65625 24.015625 45.921875 
Q 28.375 48.1875 33.59375 48.1875 
Q 44.578125 48.1875 50.953125 41.515625 
Q 57.328125 34.859375 57.328125 23.390625 
Q 57.328125 12.15625 50.6875 5.359375 
Q 44.046875 -1.421875 33.015625 -1.421875 
Q 20.359375 -1.421875 13.671875 8.265625 
Q 6.984375 17.96875 6.984375 36.375 
Q 6.984375 53.65625 15.1875 63.9375 
Q 23.390625 74.21875 37.203125 74.21875 
Q 40.921875 74.21875 44.703125 73.484375 
Q 48.484375 72.75 52.59375 71.296875 
z
" id="DejaVuSans-36"/>
      </defs>
      <g transform="translate(24.845 212.39554)scale(0.15 -0.15)">
       <use xlink:href="#DejaVuSans-32"/>
       <use x="63.623047" xlink:href="#DejaVuSans-36"/>
       <use x="127.246094" xlink:href="#DejaVuSans-30"/>
       <use x="190.869141" xlink:href="#DejaVuSans-30"/>
      </g>
     </g>
    </g>
    <g id="ytick_2">
     <g id="line2d_11">
      <g>
       <use style="stroke:#000000;stroke-width:0.8;" x="70.02" xlink:href="#ma99921e65b" y="179.353856"/>
      </g>
     </g>
     <g id="text_12">
      <!-- 2650 -->
      <g transform="translate(24.845 185.052684)scale(0.15 -0.15)">
       <use xlink:href="#DejaVuSans-32"/>
       <use x="63.623047" xlink:href="#DejaVuSans-36"/>
       <use x="127.246094" xlink:href="#DejaVuSans-35"/>
       <use x="190.869141" xlink:href="#DejaVuSans-30"/>
      </g>
     </g>
    </g>
    <g id="ytick_3">
     <g id="line2d_12">
      <g>
       <use style="stroke:#000000;stroke-width:0.8;" x="70.02" xlink:href="#ma99921e65b" y="152.011"/>
      </g>
     </g>
     <g id="text_13">
      <!-- 2700 -->
      <defs>
       <path d="M 8.203125 72.90625 
L 55.078125 72.90625 
L 55.078125 68.703125 
L 28.609375 0 
L 18.3125 0 
L 43.21875 64.59375 
L 8.203125 64.59375 
z
" id="DejaVuSans-37"/>
      </defs>
      <g transform="translate(24.845 157.709828)scale(0.15 -0.15)">
       <use xlink:href="#DejaVuSans-32"/>
       <use x="63.623047" xlink:href="#DejaVuSans-37"/>
       <use x="127.246094" xlink:href="#DejaVuSans-30"/>
       <use x="190.869141" xlink:href="#DejaVuSans-30"/>
      </g>
     </g>
    </g>
    <g id="ytick_4">
     <g id="line2d_13">
      <g>
       <use style="stroke:#000000;stroke-width:0.8;" x="70.02" xlink:href="#ma99921e65b" y="124.668144"/>
      </g>
     </g>
     <g id="text_14">
      <!-- 2750 -->
      <g transform="translate(24.845 130.366972)scale(0.15 -0.15)">
       <use xlink:href="#DejaVuSans-32"/>
       <use x="63.623047" xlink:href="#DejaVuSans-37"/>
       <use x="127.246094" xlink:href="#DejaVuSans-35"/>
       <use x="190.869141" xlink:href="#DejaVuSans-30"/>
      </g>
     </g>
    </g>
    <g id="ytick_5">
     <g id="line2d_14">
      <g>
       <use style="stroke:#000000;stroke-width:0.8;" x="70.02" xlink:href="#ma99921e65b" y="97.325288"/>
      </g>
     </g>
     <g id="text_15">
      <!-- 2800 -->
      <defs>
       <path d="M 31.78125 34.625 
Q 24.75 34.625 20.71875 30.859375 
Q 16.703125 27.09375 16.703125 20.515625 
Q 16.703125 13.921875 20.71875 10.15625 
Q 24.75 6.390625 31.78125 6.390625 
Q 38.8125 6.390625 42.859375 10.171875 
Q 46.921875 13.96875 46.921875 20.515625 
Q 46.921875 27.09375 42.890625 30.859375 
Q 38.875 34.625 31.78125 34.625 
z
M 21.921875 38.8125 
Q 15.578125 40.375 12.03125 44.71875 
Q 8.5 49.078125 8.5 55.328125 
Q 8.5 64.0625 14.71875 69.140625 
Q 20.953125 74.21875 31.78125 74.21875 
Q 42.671875 74.21875 48.875 69.140625 
Q 55.078125 64.0625 55.078125 55.328125 
Q 55.078125 49.078125 51.53125 44.71875 
Q 48 40.375 41.703125 38.8125 
Q 48.828125 37.15625 52.796875 32.3125 
Q 56.78125 27.484375 56.78125 20.515625 
Q 56.78125 9.90625 50.3125 4.234375 
Q 43.84375 -1.421875 31.78125 -1.421875 
Q 19.734375 -1.421875 13.25 4.234375 
Q 6.78125 9.90625 6.78125 20.515625 
Q 6.78125 27.484375 10.78125 32.3125 
Q 14.796875 37.15625 21.921875 38.8125 
z
M 18.3125 54.390625 
Q 18.3125 48.734375 21.84375 45.5625 
Q 25.390625 42.390625 31.78125 42.390625 
Q 38.140625 42.390625 41.71875 45.5625 
Q 45.3125 48.734375 45.3125 54.390625 
Q 45.3125 60.0625 41.71875 63.234375 
Q 38.140625 66.40625 31.78125 66.40625 
Q 25.390625 66.40625 21.84375 63.234375 
Q 18.3125 60.0625 18.3125 54.390625 
z
" id="DejaVuSans-38"/>
      </defs>
      <g transform="translate(24.845 103.024116)scale(0.15 -0.15)">
       <use xlink:href="#DejaVuSans-32"/>
       <use x="63.623047" xlink:href="#DejaVuSans-38"/>
       <use x="127.246094" xlink:href="#DejaVuSans-30"/>
       <use x="190.869141" xlink:href="#DejaVuSans-30"/>
      </g>
     </g>
    </g>
    <g id="ytick_6">
     <g id="line2d_15">
      <g>
       <use style="stroke:#000000;stroke-width:0.8;" x="70.02" xlink:href="#ma99921e65b" y="69.982432"/>
      </g>
     </g>
     <g id="text_16">
      <!-- 2850 -->
      <g transform="translate(24.845 75.68126)scale(0.15 -0.15)">
       <use xlink:href="#DejaVuSans-32"/>
       <use x="63.623047" xlink:href="#DejaVuSans-38"/>
       <use x="127.246094" xlink:href="#DejaVuSans-35"/>
       <use x="190.869141" xlink:href="#DejaVuSans-30"/>
      </g>
     </g>
    </g>
    <g id="ytick_7">
     <g id="line2d_16">
      <g>
       <use style="stroke:#000000;stroke-width:0.8;" x="70.02" xlink:href="#ma99921e65b" y="42.639576"/>
      </g>
     </g>
     <g id="text_17">
      <!-- 2900 -->
      <defs>
       <path d="M 10.984375 1.515625 
L 10.984375 10.5 
Q 14.703125 8.734375 18.5 7.8125 
Q 22.3125 6.890625 25.984375 6.890625 
Q 35.75 6.890625 40.890625 13.453125 
Q 46.046875 20.015625 46.78125 33.40625 
Q 43.953125 29.203125 39.59375 26.953125 
Q 35.25 24.703125 29.984375 24.703125 
Q 19.046875 24.703125 12.671875 31.3125 
Q 6.296875 37.9375 6.296875 49.421875 
Q 6.296875 60.640625 12.9375 67.421875 
Q 19.578125 74.21875 30.609375 74.21875 
Q 43.265625 74.21875 49.921875 64.515625 
Q 56.59375 54.828125 56.59375 36.375 
Q 56.59375 19.140625 48.40625 8.859375 
Q 40.234375 -1.421875 26.421875 -1.421875 
Q 22.703125 -1.421875 18.890625 -0.6875 
Q 15.09375 0.046875 10.984375 1.515625 
z
M 30.609375 32.421875 
Q 37.25 32.421875 41.125 36.953125 
Q 45.015625 41.5 45.015625 49.421875 
Q 45.015625 57.28125 41.125 61.84375 
Q 37.25 66.40625 30.609375 66.40625 
Q 23.96875 66.40625 20.09375 61.84375 
Q 16.21875 57.28125 16.21875 49.421875 
Q 16.21875 41.5 20.09375 36.953125 
Q 23.96875 32.421875 30.609375 32.421875 
z
" id="DejaVuSans-39"/>
      </defs>
      <g transform="translate(24.845 48.338405)scale(0.15 -0.15)">
       <use xlink:href="#DejaVuSans-32"/>
       <use x="63.623047" xlink:href="#DejaVuSans-39"/>
       <use x="127.246094" xlink:href="#DejaVuSans-30"/>
       <use x="190.869141" xlink:href="#DejaVuSans-30"/>
      </g>
     </g>
    </g>
    <g id="text_18">
     <!-- Transitions (MHz) -->
     <defs>
      <path d="M 0.484375 72.90625 
L 67.671875 72.90625 
L 67.671875 58.6875 
L 43.5 58.6875 
L 43.5 0 
L 24.703125 0 
L 24.703125 58.6875 
L 0.484375 58.6875 
z
" id="DejaVuSans-Bold-54"/>
      <path d="M 49.03125 39.796875 
Q 46.734375 40.875 44.453125 41.375 
Q 42.1875 41.890625 39.890625 41.890625 
Q 33.15625 41.890625 29.515625 37.5625 
Q 25.875 33.25 25.875 25.203125 
L 25.875 0 
L 8.40625 0 
L 8.40625 54.6875 
L 25.875 54.6875 
L 25.875 45.703125 
Q 29.25 51.078125 33.609375 53.53125 
Q 37.984375 56 44.09375 56 
Q 44.96875 56 45.984375 55.921875 
Q 47.015625 55.859375 48.96875 55.609375 
z
" id="DejaVuSans-Bold-72"/>
      <path d="M 32.90625 24.609375 
Q 27.4375 24.609375 24.671875 22.75 
Q 21.921875 20.90625 21.921875 17.28125 
Q 21.921875 13.96875 24.140625 12.078125 
Q 26.375 10.203125 30.328125 10.203125 
Q 35.25 10.203125 38.625 13.734375 
Q 42 17.28125 42 22.609375 
L 42 24.609375 
z
M 59.625 31.203125 
L 59.625 0 
L 42 0 
L 42 8.109375 
Q 38.484375 3.125 34.078125 0.84375 
Q 29.6875 -1.421875 23.390625 -1.421875 
Q 14.890625 -1.421875 9.59375 3.53125 
Q 4.296875 8.5 4.296875 16.40625 
Q 4.296875 26.03125 10.90625 30.515625 
Q 17.53125 35.015625 31.6875 35.015625 
L 42 35.015625 
L 42 36.375 
Q 42 40.53125 38.71875 42.453125 
Q 35.453125 44.390625 28.515625 44.390625 
Q 22.90625 44.390625 18.0625 43.265625 
Q 13.234375 42.140625 9.078125 39.890625 
L 9.078125 53.21875 
Q 14.703125 54.59375 20.359375 55.296875 
Q 26.03125 56 31.6875 56 
Q 46.484375 56 53.046875 50.171875 
Q 59.625 44.34375 59.625 31.203125 
z
" id="DejaVuSans-Bold-61"/>
      <path d="M 63.375 33.296875 
L 63.375 0 
L 45.796875 0 
L 45.796875 5.421875 
L 45.796875 25.484375 
Q 45.796875 32.5625 45.484375 35.25 
Q 45.171875 37.9375 44.390625 39.203125 
Q 43.359375 40.921875 41.59375 41.875 
Q 39.84375 42.828125 37.59375 42.828125 
Q 32.125 42.828125 29 38.59375 
Q 25.875 34.375 25.875 26.90625 
L 25.875 0 
L 8.40625 0 
L 8.40625 54.6875 
L 25.875 54.6875 
L 25.875 46.6875 
Q 29.828125 51.46875 34.265625 53.734375 
Q 38.71875 56 44.09375 56 
Q 53.5625 56 58.46875 50.1875 
Q 63.375 44.390625 63.375 33.296875 
z
" id="DejaVuSans-Bold-6e"/>
      <path d="M 51.125 52.984375 
L 51.125 39.703125 
Q 45.515625 42.046875 40.28125 43.21875 
Q 35.0625 44.390625 30.421875 44.390625 
Q 25.4375 44.390625 23.015625 43.140625 
Q 20.609375 41.890625 20.609375 39.3125 
Q 20.609375 37.203125 22.4375 36.078125 
Q 24.265625 34.96875 29 34.421875 
L 32.078125 33.984375 
Q 45.515625 32.28125 50.140625 28.375 
Q 54.78125 24.46875 54.78125 16.109375 
Q 54.78125 7.375 48.328125 2.96875 
Q 41.890625 -1.421875 29.109375 -1.421875 
Q 23.6875 -1.421875 17.890625 -0.5625 
Q 12.109375 0.296875 6 2 
L 6 15.28125 
Q 11.234375 12.75 16.71875 11.46875 
Q 22.21875 10.203125 27.875 10.203125 
Q 33.015625 10.203125 35.59375 11.609375 
Q 38.1875 13.03125 38.1875 15.828125 
Q 38.1875 18.171875 36.40625 19.3125 
Q 34.625 20.453125 29.296875 21.09375 
L 26.21875 21.484375 
Q 14.546875 22.953125 9.859375 26.90625 
Q 5.171875 30.859375 5.171875 38.921875 
Q 5.171875 47.609375 11.125 51.796875 
Q 17.09375 56 29.390625 56 
Q 34.234375 56 39.546875 55.265625 
Q 44.875 54.546875 51.125 52.984375 
z
" id="DejaVuSans-Bold-73"/>
      <path d="M 8.40625 54.6875 
L 25.875 54.6875 
L 25.875 0 
L 8.40625 0 
z
M 8.40625 75.984375 
L 25.875 75.984375 
L 25.875 61.71875 
L 8.40625 61.71875 
z
" id="DejaVuSans-Bold-69"/>
      <path d="M 27.484375 70.21875 
L 27.484375 54.6875 
L 45.515625 54.6875 
L 45.515625 42.1875 
L 27.484375 42.1875 
L 27.484375 19 
Q 27.484375 15.1875 29 13.84375 
Q 30.515625 12.5 35.015625 12.5 
L 44 12.5 
L 44 0 
L 29 0 
Q 18.65625 0 14.328125 4.3125 
Q 10.015625 8.640625 10.015625 19 
L 10.015625 42.1875 
L 1.3125 42.1875 
L 1.3125 54.6875 
L 10.015625 54.6875 
L 10.015625 70.21875 
z
" id="DejaVuSans-Bold-74"/>
      <path d="M 34.421875 43.5 
Q 28.609375 43.5 25.5625 39.328125 
Q 22.515625 35.15625 22.515625 27.296875 
Q 22.515625 19.4375 25.5625 15.25 
Q 28.609375 11.078125 34.421875 11.078125 
Q 40.140625 11.078125 43.15625 15.25 
Q 46.1875 19.4375 46.1875 27.296875 
Q 46.1875 35.15625 43.15625 39.328125 
Q 40.140625 43.5 34.421875 43.5 
z
M 34.421875 56 
Q 48.53125 56 56.46875 48.375 
Q 64.40625 40.765625 64.40625 27.296875 
Q 64.40625 13.8125 56.46875 6.1875 
Q 48.53125 -1.421875 34.421875 -1.421875 
Q 20.265625 -1.421875 12.28125 6.1875 
Q 4.296875 13.8125 4.296875 27.296875 
Q 4.296875 40.765625 12.28125 48.375 
Q 20.265625 56 34.421875 56 
z
" id="DejaVuSans-Bold-6f"/>
      <path d="M 9.1875 72.90625 
L 33.109375 72.90625 
L 49.703125 33.890625 
L 66.40625 72.90625 
L 90.28125 72.90625 
L 90.28125 0 
L 72.515625 0 
L 72.515625 53.328125 
L 55.71875 14.015625 
L 43.796875 14.015625 
L 27 53.328125 
L 27 0 
L 9.1875 0 
z
" id="DejaVuSans-Bold-4d"/>
      <path d="M 9.1875 72.90625 
L 27.984375 72.90625 
L 27.984375 45.125 
L 55.71875 45.125 
L 55.71875 72.90625 
L 74.515625 72.90625 
L 74.515625 0 
L 55.71875 0 
L 55.71875 30.90625 
L 27.984375 30.90625 
L 27.984375 0 
L 9.1875 0 
z
" id="DejaVuSans-Bold-48"/>
      <path d="M 5.71875 54.6875 
L 53.421875 54.6875 
L 53.421875 42.484375 
L 24.609375 12.5 
L 53.421875 12.5 
L 53.421875 0 
L 4.5 0 
L 4.5 12.203125 
L 33.296875 42.1875 
L 5.71875 42.1875 
z
" id="DejaVuSans-Bold-7a"/>
     </defs>
     <g transform="translate(16.685625 231.51695)rotate(-90)scale(0.2 -0.2)">
      <use xlink:href="#DejaVuSans-Bold-54"/>
      <use x="68.041016" xlink:href="#DejaVuSans-Bold-72"/>
      <use x="117.357422" xlink:href="#DejaVuSans-Bold-61"/>
      <use x="184.837891" xlink:href="#DejaVuSans-Bold-6e"/>
      <use x="256.029297" xlink:href="#DejaVuSans-Bold-73"/>
      <use x="315.550781" xlink:href="#DejaVuSans-Bold-69"/>
      <use x="349.828125" xlink:href="#DejaVuSans-Bold-74"/>
      <use x="397.630859" xlink:href="#DejaVuSans-Bold-69"/>
      <use x="431.908203" xlink:href="#DejaVuSans-Bold-6f"/>
      <use x="500.609375" xlink:href="#DejaVuSans-Bold-6e"/>
      <use x="571.800781" xlink:href="#DejaVuSans-Bold-73"/>
      <use x="631.322266" xlink:href="#DejaVuSans-Bold-20"/>
      <use x="666.136719" xlink:href="#DejaVuSans-Bold-28"/>
      <use x="711.839844" xlink:href="#DejaVuSans-Bold-4d"/>
      <use x="811.351562" xlink:href="#DejaVuSans-Bold-48"/>
      <use x="895.042969" xlink:href="#DejaVuSans-Bold-7a"/>
      <use x="953.246094" xlink:href="#DejaVuSans-Bold-29"/>
     </g>
    </g>
   </g>
   <g id="line2d_17">
    <path clip-path="url(#p6866ae0ad8)" d="M 89.752909 222.8472 
L 93.041727 222.846751 
L 96.330545 222.845828 
L 99.619364 222.844429 
L 102.908182 222.842557 
L 106.197 222.840209 
L 109.485818 222.837388 
L 112.774636 222.834091 
L 116.063455 222.83032 
L 119.352273 222.826075 
L 122.641091 222.821356 
L 125.929909 222.816162 
L 129.218727 222.810493 
L 132.507545 222.804351 
L 135.796364 222.797734 
L 139.085182 222.790643 
L 142.374 222.783078 
L 145.662818 222.775039 
L 148.951636 222.766526 
L 152.240455 222.757539 
L 155.529273 222.748078 
L 158.818091 222.738143 
L 162.106909 222.727735 
L 165.395727 222.716852 
L 168.684545 222.705496 
L 171.973364 222.693666 
L 175.262182 222.681362 
L 178.551 222.668585 
L 181.839818 222.655335 
L 185.128636 222.641611 
L 188.417455 222.627413 
L 191.706273 222.612742 
L 194.995091 222.597598 
L 198.283909 222.581981 
L 201.572727 222.565891 
L 204.861545 222.549327 
L 208.150364 222.532291 
L 211.439182 222.514781 
L 214.728 222.496799 
L 218.016818 222.478344 
L 221.305636 222.459416 
L 224.594455 222.440015 
L 227.883273 222.420142 
L 231.172091 222.399796 
L 234.460909 222.378978 
L 237.749727 222.357687 
L 241.038545 222.335924 
L 244.327364 222.313689 
L 247.616182 222.290982 
L 250.905 222.267802 
L 254.193818 222.244151 
L 257.482636 222.220027 
L 260.771455 222.195432 
L 264.060273 222.170365 
L 267.349091 222.144826 
L 270.637909 222.118816 
L 273.926727 222.092334 
L 277.215545 222.065381 
L 280.504364 222.037956 
L 283.793182 222.01006 
L 287.082 221.981693 
L 290.370818 221.952855 
L 293.659636 221.923546 
L 296.948455 221.893765 
L 300.237273 221.863514 
L 303.526091 221.832793 
L 306.814909 221.8016 
L 310.103727 221.769938 
L 313.392545 221.737804 
L 316.681364 221.705201 
L 319.970182 221.672127 
L 323.259 221.638583 
L 326.547818 221.604569 
L 329.836636 221.570085 
L 333.125455 221.535131 
L 336.414273 221.499707 
L 339.703091 221.463814 
L 342.991909 221.427451 
L 346.280727 221.390619 
L 349.569545 221.353317 
L 352.858364 221.315546 
L 356.147182 221.277306 
L 359.436 221.238597 
L 362.724818 221.199419 
L 366.013636 221.159773 
L 369.302455 221.119657 
L 372.591273 221.079074 
L 375.880091 221.038021 
L 379.168909 220.996501 
L 382.457727 220.954512 
L 385.746545 220.912055 
L 389.035364 220.86913 
L 392.324182 220.825737 
L 395.613 220.781876 
L 398.901818 220.737548 
L 402.190636 220.692752 
L 405.479455 220.647489 
L 408.768273 220.601758 
L 412.057091 220.555561 
L 415.345909 220.508896 
L 418.634727 220.461765 
L 421.923545 220.414167 
L 425.212364 220.366102 
L 428.501182 220.31757 
L 431.79 220.268572 
L 435.078818 220.219108 
L 438.367636 220.169178 
L 441.656455 220.118782 
L 444.945273 220.06792 
L 448.234091 220.016592 
L 451.522909 219.964799 
L 454.811727 219.91254 
L 458.100545 219.859816 
L 461.389364 219.806627 
L 464.678182 219.752973 
L 467.967 219.698853 
L 471.255818 219.644269 
L 474.544636 219.589221 
L 477.833455 219.533708 
L 481.122273 219.47773 
L 484.411091 219.421289 
" style="fill:none;stroke:#1f77b4;stroke-linecap:square;stroke-width:3;"/>
   </g>
   <g id="line2d_18">
    <path clip-path="url(#p6866ae0ad8)" d="M 89.752909 40.3992 
L 93.041727 40.415312 
L 96.330545 40.437169 
L 99.619364 40.4647 
L 102.908182 40.497831 
L 106.197 40.536475 
L 109.485818 40.580544 
L 112.774636 40.62994 
L 116.063455 40.68456 
L 119.352273 40.744298 
L 122.641091 40.809042 
L 125.929909 40.878677 
L 129.218727 40.953085 
L 132.507545 41.032145 
L 135.796364 41.115735 
L 139.085182 41.203731 
L 142.374 41.29601 
L 145.662818 41.392445 
L 148.951636 41.492912 
L 152.240455 41.597287 
L 155.529273 41.705447 
L 158.818091 41.817268 
L 162.106909 41.932631 
L 165.395727 42.051417 
L 168.684545 42.173507 
L 171.973364 42.298789 
L 175.262182 42.427148 
L 178.551 42.558475 
L 181.839818 42.692663 
L 185.128636 42.829607 
L 188.417455 42.969204 
L 191.706273 43.111356 
L 194.995091 43.255966 
L 198.283909 43.402941 
L 201.572727 43.55219 
L 204.861545 43.703625 
L 208.150364 43.857161 
L 211.439182 44.012716 
L 214.728 44.170211 
L 218.016818 44.329568 
L 221.305636 44.490713 
L 224.594455 44.653576 
L 227.883273 44.818086 
L 231.172091 44.984178 
L 234.460909 45.151787 
L 237.749727 45.320851 
L 241.038545 45.491311 
L 244.327364 45.66311 
L 247.616182 45.836191 
L 250.905 46.010503 
L 254.193818 46.185993 
L 257.482636 46.362612 
L 260.771455 46.540313 
L 264.060273 46.719051 
L 267.349091 46.89878 
L 270.637909 47.079459 
L 273.926727 47.261048 
L 277.215545 47.443506 
L 280.504364 47.626797 
L 283.793182 47.810883 
L 287.082 47.99573 
L 290.370818 48.181304 
L 293.659636 48.367573 
L 296.948455 48.554505 
L 300.237273 48.742071 
L 303.526091 48.930241 
L 306.814909 49.118988 
L 310.103727 49.308285 
L 313.392545 49.498105 
L 316.681364 49.688425 
L 319.970182 49.879219 
L 323.259 50.070465 
L 326.547818 50.26214 
L 329.836636 50.454224 
L 333.125455 50.646694 
L 336.414273 50.839531 
L 339.703091 51.032716 
L 342.991909 51.226231 
L 346.280727 51.420056 
L 349.569545 51.614175 
L 352.858364 51.808571 
L 356.147182 52.003227 
L 359.436 52.198129 
L 362.724818 52.393261 
L 366.013636 52.588608 
L 369.302455 52.784156 
L 372.591273 52.979893 
L 375.880091 53.175803 
L 379.168909 53.371876 
L 382.457727 53.568098 
L 385.746545 53.764458 
L 389.035364 53.960944 
L 392.324182 54.157544 
L 395.613 54.354249 
L 398.901818 54.551047 
L 402.190636 54.747929 
L 405.479455 54.944885 
L 408.768273 55.141905 
L 412.057091 55.33898 
L 415.345909 55.536102 
L 418.634727 55.733261 
L 421.923545 55.930449 
L 425.212364 56.127659 
L 428.501182 56.324881 
L 431.79 56.52211 
L 435.078818 56.719336 
L 438.367636 56.916554 
L 441.656455 57.113756 
L 444.945273 57.310935 
L 448.234091 57.508085 
L 451.522909 57.7052 
L 454.811727 57.902273 
L 458.100545 58.099298 
L 461.389364 58.29627 
L 464.678182 58.493183 
L 467.967 58.690031 
L 471.255818 58.886809 
L 474.544636 59.083511 
L 477.833455 59.280134 
L 481.122273 59.476672 
L 484.411091 59.673119 
" style="fill:none;stroke:#1f77b4;stroke-linecap:square;stroke-width:3;"/>
   </g>
   <g id="line2d_19">
    <path clip-path="url(#p6866ae0ad8)" d="M 89.752909 139.863419 
L 93.041727 139.633634 
L 96.330545 139.403469 
L 99.619364 139.172926 
L 102.908182 138.942003 
L 106.197 138.710702 
L 109.485818 138.479022 
L 112.774636 138.246964 
L 116.063455 138.014529 
L 119.352273 137.781716 
L 122.641091 137.548526 
L 125.929909 137.314959 
L 129.218727 137.081015 
L 132.507545 136.846695 
L 135.796364 136.611999 
L 139.085182 136.376927 
L 142.374 136.141479 
L 145.662818 135.905656 
L 148.951636 135.669458 
L 152.240455 135.432885 
L 155.529273 135.195939 
L 158.818091 134.958617 
L 162.106909 134.720923 
L 165.395727 134.482854 
L 168.684545 134.244413 
L 171.973364 134.005598 
L 175.262182 133.766411 
L 178.551 133.526852 
L 181.839818 133.286921 
L 185.128636 133.046618 
L 188.417455 132.805944 
L 191.706273 132.564899 
L 194.995091 132.323483 
L 198.283909 132.081696 
L 201.572727 131.83954 
L 204.861545 131.597014 
L 208.150364 131.354118 
L 211.439182 131.110854 
L 214.728 130.867221 
L 218.016818 130.623219 
L 221.305636 130.378849 
L 224.594455 130.134112 
L 227.883273 129.889007 
L 231.172091 129.643535 
L 234.460909 129.397696 
L 237.749727 129.151491 
L 241.038545 128.90492 
L 244.327364 128.657984 
L 247.616182 128.410682 
L 250.905 128.163015 
L 254.193818 127.914983 
L 257.482636 127.666588 
L 260.771455 127.417828 
L 264.060273 127.168705 
L 267.349091 126.919219 
L 270.637909 126.66937 
L 273.926727 126.419159 
L 277.215545 126.168586 
L 280.504364 125.917651 
L 283.793182 125.666355 
L 287.082 125.414698 
L 290.370818 125.162681 
L 293.659636 124.910304 
L 296.948455 124.657567 
L 300.237273 124.404471 
L 303.526091 124.151016 
L 306.814909 123.897202 
L 310.103727 123.64303 
L 313.392545 123.388501 
L 316.681364 123.133615 
L 319.970182 122.878372 
L 323.259 122.622772 
L 326.547818 122.366816 
L 329.836636 122.110505 
L 333.125455 121.853839 
L 336.414273 121.596818 
L 339.703091 121.339442 
L 342.991909 121.081713 
L 346.280727 120.823631 
L 349.569545 120.565195 
L 352.858364 120.306407 
L 356.147182 120.047267 
L 359.436 119.787776 
L 362.724818 119.527933 
L 366.013636 119.267739 
L 369.302455 119.007196 
L 372.591273 118.746302 
L 375.880091 118.485059 
L 379.168909 118.223467 
L 382.457727 117.961527 
L 385.746545 117.699239 
L 389.035364 117.436604 
L 392.324182 117.173622 
L 395.613 116.910293 
L 398.901818 116.646618 
L 402.190636 116.382598 
L 405.479455 116.118233 
L 408.768273 115.853523 
L 412.057091 115.58847 
L 415.345909 115.323073 
L 418.634727 115.057333 
L 421.923545 114.79125 
L 425.212364 114.524826 
L 428.501182 114.258061 
L 431.79 113.990954 
L 435.078818 113.723507 
L 438.367636 113.455721 
L 441.656455 113.187595 
L 444.945273 112.91913 
L 448.234091 112.650328 
L 451.522909 112.381188 
L 454.811727 112.11171 
L 458.100545 111.841896 
L 461.389364 111.571747 
L 464.678182 111.301262 
L 467.967 111.030442 
L 471.255818 110.759288 
L 474.544636 110.4878 
L 477.833455 110.215979 
L 481.122273 109.943826 
L 484.411091 109.671341 
" style="fill:none;stroke:#1f77b4;stroke-linecap:square;stroke-width:3;"/>
   </g>
   <g id="line2d_20">
    <path clip-path="url(#p6866ae0ad8)" d="M 89.752909 100.090256 
L 93.041727 100.579653 
L 96.330545 101.069085 
L 99.619364 101.558549 
L 102.908182 102.048045 
L 106.197 102.53757 
L 109.485818 103.027124 
L 112.774636 103.516705 
L 116.063455 104.006312 
L 119.352273 104.495943 
L 122.641091 104.985597 
L 125.929909 105.475273 
L 129.218727 105.96497 
L 132.507545 106.454686 
L 135.796364 106.944421 
L 139.085182 107.434173 
L 142.374 107.923942 
L 145.662818 108.413725 
L 148.951636 108.903522 
L 152.240455 109.393333 
L 155.529273 109.883156 
L 158.818091 110.37299 
L 162.106909 110.862834 
L 165.395727 111.352687 
L 168.684545 111.842549 
L 171.973364 112.332418 
L 175.262182 112.822293 
L 178.551 113.312175 
L 181.839818 113.802061 
L 185.128636 114.291952 
L 188.417455 114.781846 
L 191.706273 115.271743 
L 194.995091 115.761641 
L 198.283909 116.251541 
L 201.572727 116.741441 
L 204.861545 117.231341 
L 208.150364 117.721239 
L 211.439182 118.211136 
L 214.728 118.701031 
L 218.016818 119.190923 
L 221.305636 119.680811 
L 224.594455 120.170695 
L 227.883273 120.660574 
L 231.172091 121.150448 
L 234.460909 121.640316 
L 237.749727 122.130177 
L 241.038545 122.620031 
L 244.327364 123.109878 
L 247.616182 123.599716 
L 250.905 124.089546 
L 254.193818 124.579366 
L 257.482636 125.069177 
L 260.771455 125.558977 
L 264.060273 126.048767 
L 267.349091 126.538545 
L 270.637909 127.028312 
L 273.926727 127.518067 
L 277.215545 128.007809 
L 280.504364 128.497538 
L 283.793182 128.987254 
L 287.082 129.476956 
L 290.370818 129.966644 
L 293.659636 130.456317 
L 296.948455 130.945975 
L 300.237273 131.435617 
L 303.526091 131.925244 
L 306.814909 132.414855 
L 310.103727 132.904449 
L 313.392545 133.394025 
L 316.681364 133.883585 
L 319.970182 134.373127 
L 323.259 134.862651 
L 326.547818 135.352157 
L 329.836636 135.841644 
L 333.125455 136.331112 
L 336.414273 136.820561 
L 339.703091 137.30999 
L 342.991909 137.799399 
L 346.280727 138.288788 
L 349.569545 138.778156 
L 352.858364 139.267504 
L 356.147182 139.75683 
L 359.436 140.246135 
L 362.724818 140.735418 
L 366.013636 141.22468 
L 369.302455 141.713919 
L 372.591273 142.203135 
L 375.880091 142.692329 
L 379.168909 143.1815 
L 382.457727 143.670648 
L 385.746545 144.159772 
L 389.035364 144.648872 
L 392.324182 145.137948 
L 395.613 145.627001 
L 398.901818 146.116028 
L 402.190636 146.605031 
L 405.479455 147.094009 
L 408.768273 147.582962 
L 412.057091 148.071889 
L 415.345909 148.560791 
L 418.634727 149.049667 
L 421.923545 149.538517 
L 425.212364 150.027341 
L 428.501182 150.516139 
L 431.79 151.00491 
L 435.078818 151.493654 
L 438.367636 151.982371 
L 441.656455 152.471061 
L 444.945273 152.959723 
L 448.234091 153.448358 
L 451.522909 153.936966 
L 454.811727 154.425545 
L 458.100545 154.914096 
L 461.389364 155.402619 
L 464.678182 155.891113 
L 467.967 156.379579 
L 471.255818 156.868016 
L 474.544636 157.356425 
L 477.833455 157.844804 
L 481.122273 158.333153 
L 484.411091 158.821474 
" style="fill:none;stroke:#1f77b4;stroke-linecap:square;stroke-width:3;"/>
   </g>
   <g id="patch_3">
    <path d="M 70.02 231.9696 
L 70.02 31.2768 
" style="fill:none;stroke:#000000;stroke-linecap:square;stroke-linejoin:miter;stroke-width:0.8;"/>
   </g>
   <g id="patch_4">
    <path d="M 504.144 231.9696 
L 504.144 31.2768 
" style="fill:none;stroke:#000000;stroke-linecap:square;stroke-linejoin:miter;stroke-width:0.8;"/>
   </g>
   <g id="patch_5">
    <path d="M 70.02 231.9696 
L 504.144 231.9696 
" style="fill:none;stroke:#000000;stroke-linecap:square;stroke-linejoin:miter;stroke-width:0.8;"/>
   </g>
   <g id="patch_6">
    <path d="M 70.02 31.2768 
L 504.144 31.2768 
" style="fill:none;stroke:#000000;stroke-linecap:square;stroke-linejoin:miter;stroke-width:0.8;"/>
   </g>
  </g>
 </g>
 <defs>
  <clipPath id="p6866ae0ad8">
   <rect height="200.6928" width="434.124" x="70.02" y="31.2768"/>
  </clipPath>
 </defs>
</svg>
