<?xml version="1.0" encoding="utf-8" standalone="no"?>
<!DOCTYPE svg PUBLIC "-//W3C//DTD SVG 1.1//EN"
  "http://www.w3.org/Graphics/SVG/1.1/DTD/svg11.dtd">
<!-- Created with matplotlib (http://matplotlib.org/) -->
<svg height="345.6pt" version="1.1" viewBox="0 0 460.8 345.6" width="460.8pt" xmlns="http://www.w3.org/2000/svg" xmlns:xlink="http://www.w3.org/1999/xlink">
 <defs>
  <style type="text/css">
*{stroke-linecap:butt;stroke-linejoin:round;}
  </style>
 </defs>
 <g id="figure_1">
  <g id="patch_1">
   <path d="M 0 345.6 
L 460.8 345.6 
L 460.8 0 
L 0 0 
z
" style="fill:#ffffff;"/>
  </g>
  <g id="axes_1">
   <g id="patch_2">
    <path d="M 57.6 307.584 
L 414.72 307.584 
L 414.72 41.472 
L 57.6 41.472 
z
" style="fill:#ffffff;"/>
   </g>
   <g id="matplotlib.axis_1">
    <g id="xtick_1">
     <g id="line2d_1">
      <defs>
       <path d="M 0 0 
L 0 3.5 
" id="m7a3d7d2f16" style="stroke:#000000;stroke-width:0.8;"/>
      </defs>
      <g>
       <use style="stroke:#000000;stroke-width:0.8;" x="73.832727" xlink:href="#m7a3d7d2f16" y="307.584"/>
      </g>
     </g>
     <g id="text_1">
      <!-- 0 -->
      <defs>
       <path d="M 31.78125 66.40625 
Q 24.171875 66.40625 20.328125 58.90625 
Q 16.5 51.421875 16.5 36.375 
Q 16.5 21.390625 20.328125 13.890625 
Q 24.171875 6.390625 31.78125 6.390625 
Q 39.453125 6.390625 43.28125 13.890625 
Q 47.125 21.390625 47.125 36.375 
Q 47.125 51.421875 43.28125 58.90625 
Q 39.453125 66.40625 31.78125 66.40625 
z
M 31.78125 74.21875 
Q 44.046875 74.21875 50.515625 64.515625 
Q 56.984375 54.828125 56.984375 36.375 
Q 56.984375 17.96875 50.515625 8.265625 
Q 44.046875 -1.421875 31.78125 -1.421875 
Q 19.53125 -1.421875 13.0625 8.265625 
Q 6.59375 17.96875 6.59375 36.375 
Q 6.59375 54.828125 13.0625 64.515625 
Q 19.53125 74.21875 31.78125 74.21875 
z
" id="DejaVuSans-30"/>
      </defs>
      <g transform="translate(69.060852 325.981656)scale(0.15 -0.15)">
       <use xlink:href="#DejaVuSans-30"/>
      </g>
     </g>
    </g>
    <g id="xtick_2">
     <g id="line2d_2">
      <g>
       <use style="stroke:#000000;stroke-width:0.8;" x="143.787083" xlink:href="#m7a3d7d2f16" y="307.584"/>
      </g>
     </g>
     <g id="text_2">
      <!-- 10 -->
      <defs>
       <path d="M 12.40625 8.296875 
L 28.515625 8.296875 
L 28.515625 63.921875 
L 10.984375 60.40625 
L 10.984375 69.390625 
L 28.421875 72.90625 
L 38.28125 72.90625 
L 38.28125 8.296875 
L 54.390625 8.296875 
L 54.390625 0 
L 12.40625 0 
z
" id="DejaVuSans-31"/>
      </defs>
      <g transform="translate(134.243333 325.981656)scale(0.15 -0.15)">
       <use xlink:href="#DejaVuSans-31"/>
       <use x="63.623047" xlink:href="#DejaVuSans-30"/>
      </g>
     </g>
    </g>
    <g id="xtick_3">
     <g id="line2d_3">
      <g>
       <use style="stroke:#000000;stroke-width:0.8;" x="213.741439" xlink:href="#m7a3d7d2f16" y="307.584"/>
      </g>
     </g>
     <g id="text_3">
      <!-- 20 -->
      <defs>
       <path d="M 19.1875 8.296875 
L 53.609375 8.296875 
L 53.609375 0 
L 7.328125 0 
L 7.328125 8.296875 
Q 12.9375 14.109375 22.625 23.890625 
Q 32.328125 33.6875 34.8125 36.53125 
Q 39.546875 41.84375 41.421875 45.53125 
Q 43.3125 49.21875 43.3125 52.78125 
Q 43.3125 58.59375 39.234375 62.25 
Q 35.15625 65.921875 28.609375 65.921875 
Q 23.96875 65.921875 18.8125 64.3125 
Q 13.671875 62.703125 7.8125 59.421875 
L 7.8125 69.390625 
Q 13.765625 71.78125 18.9375 73 
Q 24.125 74.21875 28.421875 74.21875 
Q 39.75 74.21875 46.484375 68.546875 
Q 53.21875 62.890625 53.21875 53.421875 
Q 53.21875 48.921875 51.53125 44.890625 
Q 49.859375 40.875 45.40625 35.40625 
Q 44.1875 33.984375 37.640625 27.21875 
Q 31.109375 20.453125 19.1875 8.296875 
z
" id="DejaVuSans-32"/>
      </defs>
      <g transform="translate(204.197689 325.981656)scale(0.15 -0.15)">
       <use xlink:href="#DejaVuSans-32"/>
       <use x="63.623047" xlink:href="#DejaVuSans-30"/>
      </g>
     </g>
    </g>
    <g id="xtick_4">
     <g id="line2d_4">
      <g>
       <use style="stroke:#000000;stroke-width:0.8;" x="283.695795" xlink:href="#m7a3d7d2f16" y="307.584"/>
      </g>
     </g>
     <g id="text_4">
      <!-- 30 -->
      <defs>
       <path d="M 40.578125 39.3125 
Q 47.65625 37.796875 51.625 33 
Q 55.609375 28.21875 55.609375 21.1875 
Q 55.609375 10.40625 48.1875 4.484375 
Q 40.765625 -1.421875 27.09375 -1.421875 
Q 22.515625 -1.421875 17.65625 -0.515625 
Q 12.796875 0.390625 7.625 2.203125 
L 7.625 11.71875 
Q 11.71875 9.328125 16.59375 8.109375 
Q 21.484375 6.890625 26.8125 6.890625 
Q 36.078125 6.890625 40.9375 10.546875 
Q 45.796875 14.203125 45.796875 21.1875 
Q 45.796875 27.640625 41.28125 31.265625 
Q 36.765625 34.90625 28.71875 34.90625 
L 20.21875 34.90625 
L 20.21875 43.015625 
L 29.109375 43.015625 
Q 36.375 43.015625 40.234375 45.921875 
Q 44.09375 48.828125 44.09375 54.296875 
Q 44.09375 59.90625 40.109375 62.90625 
Q 36.140625 65.921875 28.71875 65.921875 
Q 24.65625 65.921875 20.015625 65.03125 
Q 15.375 64.15625 9.8125 62.3125 
L 9.8125 71.09375 
Q 15.4375 72.65625 20.34375 73.4375 
Q 25.25 74.21875 29.59375 74.21875 
Q 40.828125 74.21875 47.359375 69.109375 
Q 53.90625 64.015625 53.90625 55.328125 
Q 53.90625 49.265625 50.4375 45.09375 
Q 46.96875 40.921875 40.578125 39.3125 
z
" id="DejaVuSans-33"/>
      </defs>
      <g transform="translate(274.152045 325.981656)scale(0.15 -0.15)">
       <use xlink:href="#DejaVuSans-33"/>
       <use x="63.623047" xlink:href="#DejaVuSans-30"/>
      </g>
     </g>
    </g>
    <g id="xtick_5">
     <g id="line2d_5">
      <g>
       <use style="stroke:#000000;stroke-width:0.8;" x="353.65015" xlink:href="#m7a3d7d2f16" y="307.584"/>
      </g>
     </g>
     <g id="text_5">
      <!-- 40 -->
      <defs>
       <path d="M 37.796875 64.3125 
L 12.890625 25.390625 
L 37.796875 25.390625 
z
M 35.203125 72.90625 
L 47.609375 72.90625 
L 47.609375 25.390625 
L 58.015625 25.390625 
L 58.015625 17.1875 
L 47.609375 17.1875 
L 47.609375 0 
L 37.796875 0 
L 37.796875 17.1875 
L 4.890625 17.1875 
L 4.890625 26.703125 
z
" id="DejaVuSans-34"/>
      </defs>
      <g transform="translate(344.1064 325.981656)scale(0.15 -0.15)">
       <use xlink:href="#DejaVuSans-34"/>
       <use x="63.623047" xlink:href="#DejaVuSans-30"/>
      </g>
     </g>
    </g>
   </g>
   <g id="matplotlib.axis_2">
    <g id="ytick_1">
     <g id="line2d_6">
      <defs>
       <path d="M 0 0 
L -3.5 0 
" id="m85ad24eae4" style="stroke:#000000;stroke-width:0.8;"/>
      </defs>
      <g>
       <use style="stroke:#000000;stroke-width:0.8;" x="57.6" xlink:href="#m85ad24eae4" y="290.754235"/>
      </g>
     </g>
     <g id="text_6">
      <!-- −30 -->
      <defs>
       <path d="M 10.59375 35.5 
L 73.1875 35.5 
L 73.1875 27.203125 
L 10.59375 27.203125 
z
" id="DejaVuSans-2212"/>
      </defs>
      <g transform="translate(18.942969 296.453063)scale(0.15 -0.15)">
       <use xlink:href="#DejaVuSans-2212"/>
       <use x="83.789062" xlink:href="#DejaVuSans-33"/>
       <use x="147.412109" xlink:href="#DejaVuSans-30"/>
      </g>
     </g>
    </g>
    <g id="ytick_2">
     <g id="line2d_7">
      <g>
       <use style="stroke:#000000;stroke-width:0.8;" x="57.6" xlink:href="#m85ad24eae4" y="253.21422"/>
      </g>
     </g>
     <g id="text_7">
      <!-- −20 -->
      <g transform="translate(18.942969 258.913048)scale(0.15 -0.15)">
       <use xlink:href="#DejaVuSans-2212"/>
       <use x="83.789062" xlink:href="#DejaVuSans-32"/>
       <use x="147.412109" xlink:href="#DejaVuSans-30"/>
      </g>
     </g>
    </g>
    <g id="ytick_3">
     <g id="line2d_8">
      <g>
       <use style="stroke:#000000;stroke-width:0.8;" x="57.6" xlink:href="#m85ad24eae4" y="215.674205"/>
      </g>
     </g>
     <g id="text_8">
      <!-- −10 -->
      <g transform="translate(18.942969 221.373033)scale(0.15 -0.15)">
       <use xlink:href="#DejaVuSans-2212"/>
       <use x="83.789062" xlink:href="#DejaVuSans-31"/>
       <use x="147.412109" xlink:href="#DejaVuSans-30"/>
      </g>
     </g>
    </g>
    <g id="ytick_4">
     <g id="line2d_9">
      <g>
       <use style="stroke:#000000;stroke-width:0.8;" x="57.6" xlink:href="#m85ad24eae4" y="178.13419"/>
      </g>
     </g>
     <g id="text_9">
      <!-- 0 -->
      <g transform="translate(41.05625 183.833019)scale(0.15 -0.15)">
       <use xlink:href="#DejaVuSans-30"/>
      </g>
     </g>
    </g>
    <g id="ytick_5">
     <g id="line2d_10">
      <g>
       <use style="stroke:#000000;stroke-width:0.8;" x="57.6" xlink:href="#m85ad24eae4" y="140.594176"/>
      </g>
     </g>
     <g id="text_10">
      <!-- 10 -->
      <g transform="translate(31.5125 146.293004)scale(0.15 -0.15)">
       <use xlink:href="#DejaVuSans-31"/>
       <use x="63.623047" xlink:href="#DejaVuSans-30"/>
      </g>
     </g>
    </g>
    <g id="ytick_6">
     <g id="line2d_11">
      <g>
       <use style="stroke:#000000;stroke-width:0.8;" x="57.6" xlink:href="#m85ad24eae4" y="103.054161"/>
      </g>
     </g>
     <g id="text_11">
      <!-- 20 -->
      <g transform="translate(31.5125 108.752989)scale(0.15 -0.15)">
       <use xlink:href="#DejaVuSans-32"/>
       <use x="63.623047" xlink:href="#DejaVuSans-30"/>
      </g>
     </g>
    </g>
    <g id="ytick_7">
     <g id="line2d_12">
      <g>
       <use style="stroke:#000000;stroke-width:0.8;" x="57.6" xlink:href="#m85ad24eae4" y="65.514146"/>
      </g>
     </g>
     <g id="text_12">
      <!-- 30 -->
      <g transform="translate(31.5125 71.212974)scale(0.15 -0.15)">
       <use xlink:href="#DejaVuSans-33"/>
       <use x="63.623047" xlink:href="#DejaVuSans-30"/>
      </g>
     </g>
    </g>
   </g>
   <g id="line2d_13">
    <path clip-path="url(#p93544c1ae0)" d="M 73.832727 261.606242 
L 104.388449 262.09234 
L 127.305241 262.235297 
L 142.583102 262.136044 
L 155.95123 261.822852 
L 165.499893 261.386097 
L 173.138824 260.836632 
L 178.868021 260.255577 
L 184.597219 259.472431 
L 190.326417 258.410999 
L 194.145882 257.496093 
L 197.965348 256.365421 
L 201.784813 254.963346 
L 205.604278 253.221156 
L 209.423743 251.057803 
L 211.333476 249.790847 
L 213.243209 248.386256 
L 215.152941 246.835211 
L 217.062674 245.131989 
L 220.882139 241.275406 
L 224.701604 236.940652 
L 228.52107 232.574303 
L 230.430802 230.675358 
L 232.340535 229.209234 
L 234.250267 228.373943 
L 236.16 228.307187 
L 238.069733 229.024792 
L 239.979465 230.412808 
L 241.889198 232.280459 
L 245.708663 236.696803 
L 249.528128 241.166078 
L 253.347594 245.190914 
L 257.167059 248.62401 
L 260.986524 251.474892 
L 264.805989 253.813882 
L 268.625455 255.726585 
L 272.44492 257.293917 
L 276.264385 258.585001 
L 280.08385 259.656062 
L 285.813048 260.945027 
L 291.542246 261.949187 
L 297.271444 262.746075 
L 304.910374 263.576921 
L 314.459037 264.357252 
L 325.917433 265.044113 
L 339.285561 265.624672 
L 356.473155 266.149931 
L 377.480214 266.572972 
L 398.487273 266.820533 
L 398.487273 266.820533 
" style="fill:none;stroke:#1f77b4;stroke-dasharray:7.4,3.2;stroke-dashoffset:0;stroke-width:2;"/>
   </g>
   <g id="line2d_14">
    <path clip-path="url(#p93544c1ae0)" d="M 73.832727 127.212206 
L 136.853904 114.862093 
L 152.131765 112.090787 
L 163.59016 110.219194 
L 171.229091 109.148171 
L 178.868021 108.308208 
L 184.597219 107.907484 
L 188.416684 107.795502 
L 192.23615 107.848942 
L 196.055615 108.115894 
L 199.87508 108.659326 
L 203.694545 109.560223 
L 205.604278 110.175291 
L 207.514011 110.918483 
L 209.423743 111.804201 
L 211.333476 112.846306 
L 213.243209 114.056595 
L 215.152941 115.442422 
L 217.062674 117.003236 
L 220.882139 120.578125 
L 224.701604 124.409452 
L 226.611337 126.174133 
L 228.52107 127.641713 
L 230.430802 128.644741 
L 232.340535 129.035413 
L 234.250267 128.72449 
L 236.16 127.708827 
L 238.069733 126.071054 
L 239.979465 123.952019 
L 243.79893 118.903819 
L 249.528128 111.121683 
L 253.347594 106.525128 
L 257.167059 102.550993 
L 260.986524 99.153499 
L 264.805989 96.240935 
L 268.625455 93.718482 
L 272.44492 91.503776 
L 276.264385 89.530234 
L 281.993583 86.911437 
L 287.722781 84.592316 
L 295.361711 81.820481 
L 303.000642 79.296651 
L 312.549305 76.368688 
L 325.917433 72.531373 
L 343.105027 67.85148 
L 367.931551 61.347445 
L 398.487273 53.568 
L 398.487273 53.568 
" style="fill:none;stroke:#1f77b4;stroke-dasharray:7.4,3.2;stroke-dashoffset:0;stroke-width:2;"/>
   </g>
   <g id="line2d_15">
    <path clip-path="url(#p93544c1ae0)" d="M 73.832727 239.623821 
L 112.02738 245.179948 
L 134.944171 248.328578 
L 150.222032 250.238598 
L 161.680428 251.470848 
L 171.229091 252.266214 
L 178.868021 252.656021 
L 184.597219 252.730783 
L 190.326417 252.536334 
L 194.145882 252.203925 
L 197.965348 251.658538 
L 201.784813 250.843229 
L 205.604278 249.687092 
L 209.423743 248.105529 
L 211.333476 247.126233 
L 213.243209 246.005961 
L 215.152941 244.734767 
L 217.062674 243.305601 
L 218.972406 241.716446 
L 222.791872 238.095212 
L 228.52107 232.177532 
L 230.430802 230.468154 
L 232.340535 229.178935 
L 234.250267 228.51282 
L 236.16 228.614759 
L 238.069733 229.508541 
L 239.979465 231.086739 
L 241.889198 233.162317 
L 245.708663 238.049932 
L 249.528128 243.054443 
L 253.347594 247.661482 
L 257.167059 251.708357 
L 260.986524 255.193024 
L 264.805989 258.177942 
L 268.625455 260.743744 
L 272.44492 262.968374 
L 276.264385 264.919282 
L 280.08385 266.651818 
L 285.813048 268.935306 
L 291.542246 270.936585 
L 299.181176 273.297013 
L 306.820107 275.414814 
L 316.36877 277.837028 
L 329.736898 280.966703 
L 346.924492 284.740728 
L 373.660749 290.360515 
L 398.487273 295.488 
L 398.487273 295.488 
" style="fill:none;stroke:#1f77b4;stroke-dasharray:7.4,3.2;stroke-dashoffset:0;stroke-width:2;"/>
   </g>
   <g id="line2d_16">
    <path clip-path="url(#p93544c1ae0)" d="M 73.832727 86.781569 
L 94.839786 87.48287 
L 115.846845 88.411131 
L 133.034439 89.374725 
L 146.402567 90.311722 
L 157.860963 91.320777 
L 167.409626 92.391581 
L 175.048556 93.482133 
L 180.777754 94.501896 
L 186.506952 95.768898 
L 190.326417 96.79947 
L 194.145882 98.026022 
L 197.965348 99.502955 
L 201.784813 101.300194 
L 205.604278 103.50479 
L 207.514011 104.791142 
L 209.423743 106.217674 
L 211.333476 107.796569 
L 213.243209 109.537457 
L 215.152941 111.444964 
L 218.972406 115.730964 
L 226.611337 124.905006 
L 228.52107 126.728153 
L 230.430802 128.059128 
L 232.340535 128.75814 
L 234.250267 128.747462 
L 236.16 128.036913 
L 238.069733 126.720911 
L 239.979465 124.948871 
L 243.79893 120.68508 
L 247.618396 116.314625 
L 251.437861 112.416601 
L 253.347594 110.713737 
L 255.257326 109.180317 
L 257.167059 107.809706 
L 259.076791 106.590962 
L 262.896257 104.556522 
L 266.715722 102.970976 
L 270.535187 101.739132 
L 274.354652 100.783272 
L 278.174118 100.042569 
L 283.903316 99.235796 
L 289.632513 98.696629 
L 297.271444 98.265776 
L 304.910374 98.060624 
L 314.459037 98.014733 
L 327.827166 98.201485 
L 345.014759 98.69861 
L 367.931551 99.613273 
L 398.487273 101.076146 
L 398.487273 101.076146 
" style="fill:none;stroke:#1f77b4;stroke-dasharray:7.4,3.2;stroke-dashoffset:0;stroke-width:2;"/>
   </g>
   <g id="line2d_17">
    <path clip-path="url(#p93544c1ae0)" d="M 73.832727 180.821266 
L 129.214973 180.84965 
L 184.597219 181.021767 
L 194.145882 181.275651 
L 199.87508 181.604255 
L 205.604278 182.185758 
L 209.423743 182.782637 
L 213.243209 183.583698 
L 220.882139 185.480287 
L 222.791872 185.773511 
L 224.701604 185.820405 
L 226.611337 185.502086 
L 228.52107 184.719129 
L 230.430802 183.44481 
L 232.340535 181.779151 
L 236.16 178.265114 
L 238.069733 176.922726 
L 239.979465 175.997866 
L 241.889198 175.439516 
L 243.79893 175.153556 
L 245.708663 175.057236 
L 249.528128 175.22757 
L 253.347594 175.68869 
L 274.354652 178.815615 
L 281.993583 179.552983 
L 291.542246 180.214174 
L 303.000642 180.759472 
L 318.278503 181.246639 
L 341.195294 181.727117 
L 385.119144 182.366646 
L 398.487273 182.550107 
L 398.487273 182.550107 
" style="fill:none;stroke:#ff7f0e;stroke-linecap:square;stroke-width:3;"/>
   </g>
   <g id="patch_3">
    <path d="M 57.6 307.584 
L 57.6 41.472 
" style="fill:none;stroke:#000000;stroke-linecap:square;stroke-linejoin:miter;stroke-width:0.8;"/>
   </g>
   <g id="patch_4">
    <path d="M 414.72 307.584 
L 414.72 41.472 
" style="fill:none;stroke:#000000;stroke-linecap:square;stroke-linejoin:miter;stroke-width:0.8;"/>
   </g>
   <g id="patch_5">
    <path d="M 57.6 307.584 
L 414.72 307.584 
" style="fill:none;stroke:#000000;stroke-linecap:square;stroke-linejoin:miter;stroke-width:0.8;"/>
   </g>
   <g id="patch_6">
    <path d="M 57.6 41.472 
L 414.72 41.472 
" style="fill:none;stroke:#000000;stroke-linecap:square;stroke-linejoin:miter;stroke-width:0.8;"/>
   </g>
  </g>
 </g>
 <defs>
  <clipPath id="p93544c1ae0">
   <rect height="266.112" width="357.12" x="57.6" y="41.472"/>
  </clipPath>
 </defs>
</svg>
