<?xml version="1.0" encoding="utf-8" standalone="no"?>
<!DOCTYPE svg PUBLIC "-//W3C//DTD SVG 1.1//EN"
  "http://www.w3.org/Graphics/SVG/1.1/DTD/svg11.dtd">
<!-- Created with matplotlib (http://matplotlib.org/) -->
<svg height="345.6pt" version="1.1" viewBox="0 0 460.8 345.6" width="460.8pt" xmlns="http://www.w3.org/2000/svg" xmlns:xlink="http://www.w3.org/1999/xlink">
 <defs>
  <style type="text/css">
*{stroke-linecap:butt;stroke-linejoin:round;}
  </style>
 </defs>
 <g id="figure_1">
  <g id="patch_1">
   <path d="M 0 345.6 
L 460.8 345.6 
L 460.8 0 
L 0 0 
z
" style="fill:#ffffff;"/>
  </g>
  <g id="axes_1">
   <g id="patch_2">
    <path d="M 57.6 307.584 
L 414.72 307.584 
L 414.72 41.472 
L 57.6 41.472 
z
" style="fill:#ffffff;"/>
   </g>
   <g id="matplotlib.axis_1">
    <g id="xtick_1">
     <g id="line2d_1">
      <defs>
       <path d="M 0 0 
L 0 3.5 
" id="m46a04d43d8" style="stroke:#000000;stroke-width:0.8;"/>
      </defs>
      <g>
       <use style="stroke:#000000;stroke-width:0.8;" x="73.832727" xlink:href="#m46a04d43d8" y="307.584"/>
      </g>
     </g>
     <g id="text_1">
      <!-- 0 -->
      <defs>
       <path d="M 31.78125 66.40625 
Q 24.171875 66.40625 20.328125 58.90625 
Q 16.5 51.421875 16.5 36.375 
Q 16.5 21.390625 20.328125 13.890625 
Q 24.171875 6.390625 31.78125 6.390625 
Q 39.453125 6.390625 43.28125 13.890625 
Q 47.125 21.390625 47.125 36.375 
Q 47.125 51.421875 43.28125 58.90625 
Q 39.453125 66.40625 31.78125 66.40625 
z
M 31.78125 74.21875 
Q 44.046875 74.21875 50.515625 64.515625 
Q 56.984375 54.828125 56.984375 36.375 
Q 56.984375 17.96875 50.515625 8.265625 
Q 44.046875 -1.421875 31.78125 -1.421875 
Q 19.53125 -1.421875 13.0625 8.265625 
Q 6.59375 17.96875 6.59375 36.375 
Q 6.59375 54.828125 13.0625 64.515625 
Q 19.53125 74.21875 31.78125 74.21875 
z
" id="DejaVuSans-30"/>
      </defs>
      <g transform="translate(69.060852 325.981656)scale(0.15 -0.15)">
       <use xlink:href="#DejaVuSans-30"/>
      </g>
     </g>
    </g>
    <g id="xtick_2">
     <g id="line2d_2">
      <g>
       <use style="stroke:#000000;stroke-width:0.8;" x="116.228783" xlink:href="#m46a04d43d8" y="307.584"/>
      </g>
     </g>
     <g id="text_2">
      <!-- 5 -->
      <defs>
       <path d="M 10.796875 72.90625 
L 49.515625 72.90625 
L 49.515625 64.59375 
L 19.828125 64.59375 
L 19.828125 46.734375 
Q 21.96875 47.46875 24.109375 47.828125 
Q 26.265625 48.1875 28.421875 48.1875 
Q 40.625 48.1875 47.75 41.5 
Q 54.890625 34.8125 54.890625 23.390625 
Q 54.890625 11.625 47.5625 5.09375 
Q 40.234375 -1.421875 26.90625 -1.421875 
Q 22.3125 -1.421875 17.546875 -0.640625 
Q 12.796875 0.140625 7.71875 1.703125 
L 7.71875 11.625 
Q 12.109375 9.234375 16.796875 8.0625 
Q 21.484375 6.890625 26.703125 6.890625 
Q 35.15625 6.890625 40.078125 11.328125 
Q 45.015625 15.765625 45.015625 23.390625 
Q 45.015625 31 40.078125 35.4375 
Q 35.15625 39.890625 26.703125 39.890625 
Q 22.75 39.890625 18.8125 39.015625 
Q 14.890625 38.140625 10.796875 36.28125 
z
" id="DejaVuSans-35"/>
      </defs>
      <g transform="translate(111.456908 325.981656)scale(0.15 -0.15)">
       <use xlink:href="#DejaVuSans-35"/>
      </g>
     </g>
    </g>
    <g id="xtick_3">
     <g id="line2d_3">
      <g>
       <use style="stroke:#000000;stroke-width:0.8;" x="158.624839" xlink:href="#m46a04d43d8" y="307.584"/>
      </g>
     </g>
     <g id="text_3">
      <!-- 10 -->
      <defs>
       <path d="M 12.40625 8.296875 
L 28.515625 8.296875 
L 28.515625 63.921875 
L 10.984375 60.40625 
L 10.984375 69.390625 
L 28.421875 72.90625 
L 38.28125 72.90625 
L 38.28125 8.296875 
L 54.390625 8.296875 
L 54.390625 0 
L 12.40625 0 
z
" id="DejaVuSans-31"/>
      </defs>
      <g transform="translate(149.081089 325.981656)scale(0.15 -0.15)">
       <use xlink:href="#DejaVuSans-31"/>
       <use x="63.623047" xlink:href="#DejaVuSans-30"/>
      </g>
     </g>
    </g>
    <g id="xtick_4">
     <g id="line2d_4">
      <g>
       <use style="stroke:#000000;stroke-width:0.8;" x="201.020894" xlink:href="#m46a04d43d8" y="307.584"/>
      </g>
     </g>
     <g id="text_4">
      <!-- 15 -->
      <g transform="translate(191.477144 325.981656)scale(0.15 -0.15)">
       <use xlink:href="#DejaVuSans-31"/>
       <use x="63.623047" xlink:href="#DejaVuSans-35"/>
      </g>
     </g>
    </g>
    <g id="xtick_5">
     <g id="line2d_5">
      <g>
       <use style="stroke:#000000;stroke-width:0.8;" x="243.41695" xlink:href="#m46a04d43d8" y="307.584"/>
      </g>
     </g>
     <g id="text_5">
      <!-- 20 -->
      <defs>
       <path d="M 19.1875 8.296875 
L 53.609375 8.296875 
L 53.609375 0 
L 7.328125 0 
L 7.328125 8.296875 
Q 12.9375 14.109375 22.625 23.890625 
Q 32.328125 33.6875 34.8125 36.53125 
Q 39.546875 41.84375 41.421875 45.53125 
Q 43.3125 49.21875 43.3125 52.78125 
Q 43.3125 58.59375 39.234375 62.25 
Q 35.15625 65.921875 28.609375 65.921875 
Q 23.96875 65.921875 18.8125 64.3125 
Q 13.671875 62.703125 7.8125 59.421875 
L 7.8125 69.390625 
Q 13.765625 71.78125 18.9375 73 
Q 24.125 74.21875 28.421875 74.21875 
Q 39.75 74.21875 46.484375 68.546875 
Q 53.21875 62.890625 53.21875 53.421875 
Q 53.21875 48.921875 51.53125 44.890625 
Q 49.859375 40.875 45.40625 35.40625 
Q 44.1875 33.984375 37.640625 27.21875 
Q 31.109375 20.453125 19.1875 8.296875 
z
" id="DejaVuSans-32"/>
      </defs>
      <g transform="translate(233.8732 325.981656)scale(0.15 -0.15)">
       <use xlink:href="#DejaVuSans-32"/>
       <use x="63.623047" xlink:href="#DejaVuSans-30"/>
      </g>
     </g>
    </g>
    <g id="xtick_6">
     <g id="line2d_6">
      <g>
       <use style="stroke:#000000;stroke-width:0.8;" x="285.813006" xlink:href="#m46a04d43d8" y="307.584"/>
      </g>
     </g>
     <g id="text_6">
      <!-- 25 -->
      <g transform="translate(276.269256 325.981656)scale(0.15 -0.15)">
       <use xlink:href="#DejaVuSans-32"/>
       <use x="63.623047" xlink:href="#DejaVuSans-35"/>
      </g>
     </g>
    </g>
    <g id="xtick_7">
     <g id="line2d_7">
      <g>
       <use style="stroke:#000000;stroke-width:0.8;" x="328.209061" xlink:href="#m46a04d43d8" y="307.584"/>
      </g>
     </g>
     <g id="text_7">
      <!-- 30 -->
      <defs>
       <path d="M 40.578125 39.3125 
Q 47.65625 37.796875 51.625 33 
Q 55.609375 28.21875 55.609375 21.1875 
Q 55.609375 10.40625 48.1875 4.484375 
Q 40.765625 -1.421875 27.09375 -1.421875 
Q 22.515625 -1.421875 17.65625 -0.515625 
Q 12.796875 0.390625 7.625 2.203125 
L 7.625 11.71875 
Q 11.71875 9.328125 16.59375 8.109375 
Q 21.484375 6.890625 26.8125 6.890625 
Q 36.078125 6.890625 40.9375 10.546875 
Q 45.796875 14.203125 45.796875 21.1875 
Q 45.796875 27.640625 41.28125 31.265625 
Q 36.765625 34.90625 28.71875 34.90625 
L 20.21875 34.90625 
L 20.21875 43.015625 
L 29.109375 43.015625 
Q 36.375 43.015625 40.234375 45.921875 
Q 44.09375 48.828125 44.09375 54.296875 
Q 44.09375 59.90625 40.109375 62.90625 
Q 36.140625 65.921875 28.71875 65.921875 
Q 24.65625 65.921875 20.015625 65.03125 
Q 15.375 64.15625 9.8125 62.3125 
L 9.8125 71.09375 
Q 15.4375 72.65625 20.34375 73.4375 
Q 25.25 74.21875 29.59375 74.21875 
Q 40.828125 74.21875 47.359375 69.109375 
Q 53.90625 64.015625 53.90625 55.328125 
Q 53.90625 49.265625 50.4375 45.09375 
Q 46.96875 40.921875 40.578125 39.3125 
z
" id="DejaVuSans-33"/>
      </defs>
      <g transform="translate(318.665311 325.981656)scale(0.15 -0.15)">
       <use xlink:href="#DejaVuSans-33"/>
       <use x="63.623047" xlink:href="#DejaVuSans-30"/>
      </g>
     </g>
    </g>
    <g id="xtick_8">
     <g id="line2d_8">
      <g>
       <use style="stroke:#000000;stroke-width:0.8;" x="370.605117" xlink:href="#m46a04d43d8" y="307.584"/>
      </g>
     </g>
     <g id="text_8">
      <!-- 35 -->
      <g transform="translate(361.061367 325.981656)scale(0.15 -0.15)">
       <use xlink:href="#DejaVuSans-33"/>
       <use x="63.623047" xlink:href="#DejaVuSans-35"/>
      </g>
     </g>
    </g>
    <g id="xtick_9">
     <g id="line2d_9">
      <g>
       <use style="stroke:#000000;stroke-width:0.8;" x="413.001173" xlink:href="#m46a04d43d8" y="307.584"/>
      </g>
     </g>
     <g id="text_9">
      <!-- 40 -->
      <defs>
       <path d="M 37.796875 64.3125 
L 12.890625 25.390625 
L 37.796875 25.390625 
z
M 35.203125 72.90625 
L 47.609375 72.90625 
L 47.609375 25.390625 
L 58.015625 25.390625 
L 58.015625 17.1875 
L 47.609375 17.1875 
L 47.609375 0 
L 37.796875 0 
L 37.796875 17.1875 
L 4.890625 17.1875 
L 4.890625 26.703125 
z
" id="DejaVuSans-34"/>
      </defs>
      <g transform="translate(403.457423 325.981656)scale(0.15 -0.15)">
       <use xlink:href="#DejaVuSans-34"/>
       <use x="63.623047" xlink:href="#DejaVuSans-30"/>
      </g>
     </g>
    </g>
   </g>
   <g id="matplotlib.axis_2">
    <g id="ytick_1">
     <g id="line2d_10">
      <defs>
       <path d="M 0 0 
L -3.5 0 
" id="m36f271bc3e" style="stroke:#000000;stroke-width:0.8;"/>
      </defs>
      <g>
       <use style="stroke:#000000;stroke-width:0.8;" x="57.6" xlink:href="#m36f271bc3e" y="288.869541"/>
      </g>
     </g>
     <g id="text_10">
      <!-- −30 -->
      <defs>
       <path d="M 10.59375 35.5 
L 73.1875 35.5 
L 73.1875 27.203125 
L 10.59375 27.203125 
z
" id="DejaVuSans-2212"/>
      </defs>
      <g transform="translate(18.942969 294.568369)scale(0.15 -0.15)">
       <use xlink:href="#DejaVuSans-2212"/>
       <use x="83.789062" xlink:href="#DejaVuSans-33"/>
       <use x="147.412109" xlink:href="#DejaVuSans-30"/>
      </g>
     </g>
    </g>
    <g id="ytick_2">
     <g id="line2d_11">
      <g>
       <use style="stroke:#000000;stroke-width:0.8;" x="57.6" xlink:href="#m36f271bc3e" y="253.154146"/>
      </g>
     </g>
     <g id="text_11">
      <!-- −20 -->
      <g transform="translate(18.942969 258.852974)scale(0.15 -0.15)">
       <use xlink:href="#DejaVuSans-2212"/>
       <use x="83.789062" xlink:href="#DejaVuSans-32"/>
       <use x="147.412109" xlink:href="#DejaVuSans-30"/>
      </g>
     </g>
    </g>
    <g id="ytick_3">
     <g id="line2d_12">
      <g>
       <use style="stroke:#000000;stroke-width:0.8;" x="57.6" xlink:href="#m36f271bc3e" y="217.438751"/>
      </g>
     </g>
     <g id="text_12">
      <!-- −10 -->
      <g transform="translate(18.942969 223.137579)scale(0.15 -0.15)">
       <use xlink:href="#DejaVuSans-2212"/>
       <use x="83.789062" xlink:href="#DejaVuSans-31"/>
       <use x="147.412109" xlink:href="#DejaVuSans-30"/>
      </g>
     </g>
    </g>
    <g id="ytick_4">
     <g id="line2d_13">
      <g>
       <use style="stroke:#000000;stroke-width:0.8;" x="57.6" xlink:href="#m36f271bc3e" y="181.723356"/>
      </g>
     </g>
     <g id="text_13">
      <!-- 0 -->
      <g transform="translate(41.05625 187.422184)scale(0.15 -0.15)">
       <use xlink:href="#DejaVuSans-30"/>
      </g>
     </g>
    </g>
    <g id="ytick_5">
     <g id="line2d_14">
      <g>
       <use style="stroke:#000000;stroke-width:0.8;" x="57.6" xlink:href="#m36f271bc3e" y="146.007961"/>
      </g>
     </g>
     <g id="text_14">
      <!-- 10 -->
      <g transform="translate(31.5125 151.706789)scale(0.15 -0.15)">
       <use xlink:href="#DejaVuSans-31"/>
       <use x="63.623047" xlink:href="#DejaVuSans-30"/>
      </g>
     </g>
    </g>
    <g id="ytick_6">
     <g id="line2d_15">
      <g>
       <use style="stroke:#000000;stroke-width:0.8;" x="57.6" xlink:href="#m36f271bc3e" y="110.292567"/>
      </g>
     </g>
     <g id="text_15">
      <!-- 20 -->
      <g transform="translate(31.5125 115.991395)scale(0.15 -0.15)">
       <use xlink:href="#DejaVuSans-32"/>
       <use x="63.623047" xlink:href="#DejaVuSans-30"/>
      </g>
     </g>
    </g>
    <g id="ytick_7">
     <g id="line2d_16">
      <g>
       <use style="stroke:#000000;stroke-width:0.8;" x="57.6" xlink:href="#m36f271bc3e" y="74.577172"/>
      </g>
     </g>
     <g id="text_16">
      <!-- 30 -->
      <g transform="translate(31.5125 80.276)scale(0.15 -0.15)">
       <use xlink:href="#DejaVuSans-33"/>
       <use x="63.623047" xlink:href="#DejaVuSans-30"/>
      </g>
     </g>
    </g>
   </g>
   <g id="line2d_17">
    <path clip-path="url(#pc8cfb3e27d)" d="M 73.832727 231.227424 
L 76.538182 231.764442 
L 79.243636 232.301514 
L 81.949091 232.838638 
L 84.654545 233.375812 
L 87.36 233.913034 
L 90.065455 234.450305 
L 92.770909 234.987621 
L 95.476364 235.524981 
L 98.181818 236.062384 
L 100.887273 236.599828 
L 103.592727 237.137312 
L 106.298182 237.674835 
L 109.003636 238.212393 
L 111.709091 238.749987 
L 114.414545 239.287614 
L 117.12 239.825273 
L 119.825455 240.362962 
L 122.530909 240.90068 
L 125.236364 241.438425 
L 127.941818 241.976195 
L 130.647273 242.513989 
L 133.352727 243.051806 
L 136.058182 243.589642 
L 138.763636 244.127498 
L 141.469091 244.665371 
L 144.174545 245.203259 
L 146.88 245.741161 
L 149.585455 246.279075 
L 152.290909 246.817 
L 154.996364 247.354933 
L 157.701818 247.892873 
L 160.407273 248.430818 
L 163.112727 248.968767 
L 165.818182 249.506717 
L 168.523636 250.044667 
L 171.229091 250.582615 
L 173.934545 251.120559 
L 176.64 251.658497 
L 179.345455 252.196427 
L 182.050909 252.734348 
L 184.756364 253.272257 
L 187.461818 253.810152 
L 190.167273 254.348033 
L 192.872727 254.885895 
L 195.578182 255.423739 
L 198.283636 255.96156 
L 200.989091 256.499359 
L 203.694545 257.037131 
L 206.4 257.574876 
L 209.105455 258.11259 
L 211.810909 258.650273 
L 214.516364 259.187921 
L 217.221818 259.725533 
L 219.927273 260.263105 
L 222.632727 260.800637 
L 225.338182 261.338125 
L 228.043636 261.875567 
L 230.749091 262.41296 
L 233.454545 262.950303 
L 236.16 263.487592 
L 238.865455 264.024826 
L 241.570909 264.562001 
L 244.276364 265.099115 
L 246.981818 265.636165 
L 249.687273 266.173148 
L 252.392727 266.710063 
L 255.098182 267.246905 
L 257.803636 267.783672 
L 260.509091 268.320361 
L 263.214545 268.856968 
L 265.92 269.393492 
L 268.625455 269.929929 
L 271.330909 270.466275 
L 274.036364 271.002527 
L 276.741818 271.538683 
L 279.447273 272.074737 
L 282.152727 272.610688 
L 284.858182 273.146531 
L 287.563636 273.682263 
L 290.269091 274.21788 
L 292.974545 274.753377 
L 295.68 275.288752 
L 298.385455 275.824 
L 301.090909 276.359117 
L 303.796364 276.894098 
L 306.501818 277.42894 
L 309.207273 277.963638 
L 311.912727 278.498186 
L 314.618182 279.032581 
L 317.323636 279.566817 
L 320.029091 280.10089 
L 322.734545 280.634794 
L 325.44 281.168523 
L 328.145455 281.702073 
L 330.850909 282.235438 
L 333.556364 282.768611 
L 336.261818 283.301587 
L 338.967273 283.83436 
L 341.672727 284.366923 
L 344.378182 284.899269 
L 347.083636 285.431391 
L 349.789091 285.963283 
L 352.494545 286.494937 
L 355.2 287.026345 
L 357.905455 287.557499 
L 360.610909 288.088392 
L 363.316364 288.619015 
L 366.021818 289.149358 
L 368.727273 289.679414 
L 371.432727 290.209171 
L 374.138182 290.738622 
L 376.843636 291.267754 
L 379.549091 291.796558 
L 382.254545 292.325022 
L 384.96 292.853136 
L 387.665455 293.380886 
L 390.370909 293.908261 
L 393.076364 294.435248 
L 395.781818 294.961832 
L 398.487273 295.488 
" style="fill:none;stroke:#1f77b4;stroke-dasharray:7.4,3.2;stroke-dashoffset:0;stroke-width:2;"/>
   </g>
   <g id="line2d_18">
    <path clip-path="url(#pc8cfb3e27d)" d="M 73.832727 180.005333 
L 76.538182 179.631304 
L 79.243636 179.259155 
L 81.949091 178.889104 
L 84.654545 178.521349 
L 87.36 178.156066 
L 90.065455 177.793411 
L 92.770909 177.433515 
L 95.476364 177.076488 
L 98.181818 176.722418 
L 100.887273 176.37137 
L 103.592727 176.023388 
L 106.298182 175.678499 
L 109.003636 175.33671 
L 111.709091 174.99801 
L 114.414545 174.662377 
L 117.12 174.32977 
L 119.825455 174.000141 
L 122.530909 173.673429 
L 125.236364 173.349564 
L 127.941818 173.028472 
L 130.647273 172.710068 
L 133.352727 172.394268 
L 136.058182 172.080981 
L 138.763636 171.770114 
L 141.469091 171.461575 
L 144.174545 171.155269 
L 146.88 170.851103 
L 149.585455 170.548984 
L 152.290909 170.248821 
L 154.996364 169.950524 
L 157.701818 169.654008 
L 160.407273 169.359188 
L 163.112727 169.065982 
L 165.818182 168.774314 
L 168.523636 168.484106 
L 171.229091 168.195289 
L 173.934545 167.907792 
L 176.64 167.621553 
L 179.345455 167.336507 
L 182.050909 167.052598 
L 184.756364 166.769769 
L 187.461818 166.487968 
L 190.167273 166.207147 
L 192.872727 165.927258 
L 195.578182 165.648258 
L 198.283636 165.370106 
L 200.989091 165.092764 
L 203.694545 164.816196 
L 206.4 164.540369 
L 209.105455 164.26525 
L 211.810909 163.990812 
L 214.516364 163.717026 
L 217.221818 163.443868 
L 219.927273 163.171313 
L 222.632727 162.89934 
L 225.338182 162.627929 
L 228.043636 162.35706 
L 230.749091 162.086717 
L 233.454545 161.816883 
L 236.16 161.547542 
L 238.865455 161.278683 
L 241.570909 161.010291 
L 244.276364 160.742355 
L 246.981818 160.474864 
L 249.687273 160.207809 
L 252.392727 159.94118 
L 255.098182 159.674969 
L 257.803636 159.409169 
L 260.509091 159.143773 
L 263.214545 158.878775 
L 265.92 158.614168 
L 268.625455 158.349949 
L 271.330909 158.086112 
L 274.036364 157.822653 
L 276.741818 157.559569 
L 279.447273 157.296856 
L 282.152727 157.034512 
L 284.858182 156.772535 
L 287.563636 156.510922 
L 290.269091 156.249671 
L 292.974545 155.988781 
L 295.68 155.728251 
L 298.385455 155.468081 
L 301.090909 155.208268 
L 303.796364 154.948814 
L 306.501818 154.689717 
L 309.207273 154.430978 
L 311.912727 154.172598 
L 314.618182 153.914576 
L 317.323636 153.656913 
L 320.029091 153.39961 
L 322.734545 153.142668 
L 325.44 152.886088 
L 328.145455 152.629871 
L 330.850909 152.374019 
L 333.556364 152.118533 
L 336.261818 151.863415 
L 338.967273 151.608667 
L 341.672727 151.354291 
L 344.378182 151.100288 
L 347.083636 150.846662 
L 349.789091 150.593413 
L 352.494545 150.340546 
L 355.2 150.088062 
L 357.905455 149.835963 
L 360.610909 149.584254 
L 363.316364 149.332937 
L 366.021818 149.082014 
L 368.727273 148.83149 
L 371.432727 148.581367 
L 374.138182 148.331649 
L 376.843636 148.082339 
L 379.549091 147.833442 
L 382.254545 147.584961 
L 384.96 147.3369 
L 387.665455 147.089264 
L 390.370909 146.842057 
L 393.076364 146.595283 
L 395.781818 146.348947 
L 398.487273 146.103055 
" style="fill:none;stroke:#1f77b4;stroke-dasharray:7.4,3.2;stroke-dashoffset:0;stroke-width:2;"/>
   </g>
   <g id="line2d_19">
    <path clip-path="url(#pc8cfb3e27d)" d="M 73.832727 210.942116 
L 76.538182 211.193609 
L 79.243636 211.443385 
L 81.949091 211.691396 
L 84.654545 211.937593 
L 87.36 212.18192 
L 90.065455 212.424315 
L 92.770909 212.664712 
L 95.476364 212.903035 
L 98.181818 213.139203 
L 100.887273 213.373125 
L 103.592727 213.604698 
L 106.298182 213.833809 
L 109.003636 214.060333 
L 111.709091 214.284129 
L 114.414545 214.505038 
L 117.12 214.722882 
L 119.825455 214.937462 
L 122.530909 215.148551 
L 125.236364 215.355892 
L 127.941818 215.559195 
L 130.647273 215.758128 
L 133.352727 215.952311 
L 136.058182 216.14131 
L 138.763636 216.324624 
L 141.469091 216.501677 
L 144.174545 216.671799 
L 146.88 216.834212 
L 149.585455 216.98801 
L 152.290909 217.132129 
L 154.996364 217.265317 
L 157.701818 217.386096 
L 160.407273 217.492713 
L 163.112727 217.583078 
L 165.818182 217.65469 
L 168.523636 217.704547 
L 171.229091 217.729026 
L 173.934545 217.723739 
L 176.64 217.683363 
L 179.345455 217.601416 
L 182.050909 217.470009 
L 184.756364 217.279545 
L 187.461818 217.018401 
L 190.167273 216.672637 
L 192.872727 216.225806 
L 195.578182 215.659078 
L 198.283636 214.952015 
L 200.989091 214.084614 
L 203.694545 213.041599 
L 206.4 211.820361 
L 209.105455 210.444133 
L 211.810909 208.981231 
L 214.516364 207.567517 
L 217.221818 206.418193 
L 219.927273 205.795099 
L 222.632727 205.898847 
L 225.338182 206.743311 
L 228.043636 208.148273 
L 230.749091 209.85819 
L 233.454545 211.654237 
L 236.16 213.393121 
L 238.865455 214.998812 
L 241.570909 216.441495 
L 244.276364 217.718663 
L 246.981818 218.841846 
L 249.687273 219.828413 
L 252.392727 220.697009 
L 255.098182 221.465274 
L 257.803636 222.148886 
L 260.509091 222.761308 
L 263.214545 223.313874 
L 265.92 223.816025 
L 268.625455 224.275578 
L 271.330909 224.698993 
L 274.036364 225.091612 
L 276.741818 225.457855 
L 279.447273 225.801393 
L 282.152727 226.125283 
L 284.858182 226.432079 
L 287.563636 226.723927 
L 290.269091 227.002634 
L 292.974545 227.269727 
L 295.68 227.526507 
L 298.385455 227.774081 
L 301.090909 228.013397 
L 303.796364 228.245271 
L 306.501818 228.470407 
L 309.207273 228.689413 
L 311.912727 228.902819 
L 314.618182 229.111087 
L 317.323636 229.31462 
L 320.029091 229.513772 
L 322.734545 229.708855 
L 325.44 229.900143 
L 328.145455 230.08788 
L 330.850909 230.272281 
L 333.556364 230.453539 
L 336.261818 230.631824 
L 338.967273 230.807288 
L 341.672727 230.98007 
L 344.378182 231.15029 
L 347.083636 231.31806 
L 349.789091 231.483479 
L 352.494545 231.646636 
L 355.2 231.807612 
L 357.905455 231.96648 
L 360.610909 232.123306 
L 363.316364 232.278151 
L 366.021818 232.431069 
L 368.727273 232.582108 
L 371.432727 232.731315 
L 374.138182 232.878731 
L 376.843636 233.024391 
L 379.549091 233.168331 
L 382.254545 233.310582 
L 384.96 233.45117 
L 387.665455 233.590123 
L 390.370909 233.727462 
L 393.076364 233.863209 
L 395.781818 233.997384 
L 398.487273 234.130002 
" style="fill:none;stroke:#1f77b4;stroke-dasharray:7.4,3.2;stroke-dashoffset:0;stroke-width:2;"/>
   </g>
   <g id="line2d_20">
    <path clip-path="url(#pc8cfb3e27d)" d="M 73.832727 106.912219 
L 76.538182 106.456962 
L 79.243636 106.003678 
L 81.949091 105.552477 
L 84.654545 105.103477 
L 87.36 104.656809 
L 90.065455 104.212618 
L 92.770909 103.771064 
L 95.476364 103.332324 
L 98.181818 102.896595 
L 100.887273 102.464092 
L 103.592727 102.03506 
L 106.298182 101.609767 
L 109.003636 101.188514 
L 111.709091 100.77164 
L 114.414545 100.359523 
L 117.12 99.952588 
L 119.825455 99.551314 
L 122.530909 99.156243 
L 125.236364 98.76799 
L 127.941818 98.387252 
L 130.647273 98.014825 
L 133.352727 97.651616 
L 136.058182 97.298669 
L 138.763636 96.957182 
L 141.469091 96.628538 
L 144.174545 96.314341 
L 146.88 96.016455 
L 149.585455 95.737055 
L 152.290909 95.478689 
L 154.996364 95.244357 
L 157.701818 95.0376 
L 160.407273 94.86262 
L 163.112727 94.724424 
L 165.818182 94.629 
L 168.523636 94.583544 
L 171.229091 94.596733 
L 173.934545 94.67907 
L 176.64 94.843306 
L 179.345455 95.104954 
L 182.050909 95.482904 
L 184.756364 96.000123 
L 187.461818 96.684417 
L 190.167273 97.569138 
L 192.872727 98.693615 
L 195.578182 100.10286 
L 198.283636 101.845694 
L 200.989091 103.969847 
L 203.694545 106.511659 
L 206.4 109.477059 
L 209.105455 112.810024 
L 211.810909 116.346534 
L 214.516364 119.760908 
L 217.221818 122.537765 
L 219.927273 124.050609 
L 222.632727 123.820248 
L 225.338182 121.814975 
L 228.043636 118.467485 
L 230.749091 114.390119 
L 233.454545 110.106685 
L 236.16 105.959844 
L 238.865455 102.131137 
L 241.570909 98.69152 
L 244.276364 95.646655 
L 246.981818 92.968694 
L 249.687273 90.615882 
L 252.392727 88.543467 
L 255.098182 86.709144 
L 257.803636 85.075329 
L 260.509091 83.609765 
L 263.214545 82.285299 
L 265.92 81.079323 
L 268.625455 79.973119 
L 271.330909 78.95122 
L 274.036364 78.000843 
L 276.741818 77.111406 
L 279.447273 76.274129 
L 282.152727 75.481696 
L 284.858182 74.727997 
L 287.563636 74.007901 
L 290.269091 73.317089 
L 292.974545 72.651904 
L 295.68 72.009242 
L 298.385455 71.386455 
L 301.090909 70.781276 
L 303.796364 70.191757 
L 306.501818 69.616219 
L 309.207273 69.053206 
L 311.912727 68.501455 
L 314.618182 67.959864 
L 317.323636 67.427472 
L 320.029091 66.903434 
L 322.734545 66.387007 
L 325.44 65.877537 
L 328.145455 65.374445 
L 330.850909 64.877218 
L 333.556364 64.3854 
L 336.261818 63.898584 
L 338.967273 63.416408 
L 341.672727 62.938549 
L 344.378182 62.464715 
L 347.083636 61.994646 
L 349.789091 61.528108 
L 352.494545 61.064889 
L 355.2 60.6048 
L 357.905455 60.147669 
L 360.610909 59.693341 
L 363.316364 59.241676 
L 366.021818 58.792545 
L 368.727273 58.345836 
L 371.432727 57.901442 
L 374.138182 57.459271 
L 376.843636 57.019236 
L 379.549091 56.581261 
L 382.254545 56.145275 
L 384.96 55.711215 
L 387.665455 55.279024 
L 390.370909 54.84865 
L 393.076364 54.420049 
L 395.781818 53.993177 
L 398.487273 53.568 
" style="fill:none;stroke:#1f77b4;stroke-dasharray:7.4,3.2;stroke-dashoffset:0;stroke-width:2;"/>
   </g>
   <g id="line2d_21">
    <path clip-path="url(#pc8cfb3e27d)" d="M 73.832727 183.917023 
L 76.538182 183.876249 
L 79.243636 183.837664 
L 81.949091 183.801546 
L 84.654545 183.768162 
L 87.36 183.737761 
L 90.065455 183.71058 
L 92.770909 183.686843 
L 95.476364 183.666761 
L 98.181818 183.650532 
L 100.887273 183.638346 
L 103.592727 183.630389 
L 106.298182 183.626841 
L 109.003636 183.627882 
L 111.709091 183.633698 
L 114.414545 183.644483 
L 117.12 183.660444 
L 119.825455 183.68181 
L 122.530909 183.708834 
L 125.236364 183.741803 
L 127.941818 183.781046 
L 130.647273 183.826942 
L 133.352727 183.879932 
L 136.058182 183.940533 
L 138.763636 184.009349 
L 141.469091 184.087092 
L 144.174545 184.174599 
L 146.88 184.272863 
L 149.585455 184.383055 
L 152.290909 184.50657 
L 154.996364 184.645062 
L 157.701818 184.800509 
L 160.407273 184.975271 
L 163.112727 185.172183 
L 165.818182 185.394653 
L 168.523636 185.646796 
L 171.229091 185.933593 
L 173.934545 186.261091 
L 176.64 186.636649 
L 179.345455 187.069236 
L 182.050909 187.56979 
L 184.756364 188.151624 
L 187.461818 188.83087 
L 190.167273 189.626886 
L 192.872727 190.562506 
L 195.578182 191.663866 
L 198.283636 192.959308 
L 200.989091 194.476516 
L 203.694545 196.236517 
L 206.4 198.242596 
L 209.105455 200.461929 
L 211.810909 202.798782 
L 214.516364 205.063304 
L 217.221818 206.955289 
L 219.927273 208.110058 
L 222.632727 208.249004 
L 225.338182 207.35427 
L 228.043636 205.678316 
L 230.749091 203.577918 
L 233.454545 201.35804 
L 236.16 199.218031 
L 238.865455 197.263389 
L 241.570909 195.535238 
L 244.276364 194.036719 
L 246.981818 192.7515 
L 249.687273 191.655183 
L 252.392727 190.72165 
L 255.098182 189.926223 
L 257.803636 189.246988 
L 260.509091 188.665138 
L 263.214545 188.164848 
L 265.92 187.73294 
L 268.625455 187.358506 
L 271.330909 187.032531 
L 274.036364 186.747566 
L 276.741818 186.497444 
L 279.447273 186.277046 
L 282.152727 186.082111 
L 284.858182 185.909073 
L 287.563636 185.754944 
L 290.269091 185.617204 
L 292.974545 185.493721 
L 295.68 185.382684 
L 298.385455 185.282547 
L 301.090909 185.191989 
L 303.796364 185.109872 
L 306.501818 185.035214 
L 309.207273 184.967166 
L 311.912727 184.904989 
L 314.618182 184.84804 
L 317.323636 184.795754 
L 320.029091 184.747637 
L 322.734545 184.703255 
L 325.44 184.662223 
L 328.145455 184.624201 
L 330.850909 184.588888 
L 333.556364 184.556015 
L 336.261818 184.525342 
L 338.967273 184.496655 
L 341.672727 184.469763 
L 344.378182 184.444493 
L 347.083636 184.42069 
L 349.789091 184.398214 
L 352.494545 184.376939 
L 355.2 184.35675 
L 357.905455 184.337544 
L 360.610909 184.319225 
L 363.316364 184.30171 
L 366.021818 184.284918 
L 368.727273 184.268779 
L 371.432727 184.253227 
L 374.138182 184.238203 
L 376.843636 184.223652 
L 379.549091 184.209524 
L 382.254545 184.195771 
L 384.96 184.182353 
L 387.665455 184.169228 
L 390.370909 184.156362 
L 393.076364 184.14372 
L 395.781818 184.131272 
L 398.487273 184.118989 
" style="fill:none;stroke:#ff7f0e;stroke-linecap:square;stroke-width:3;"/>
   </g>
   <g id="patch_3">
    <path d="M 57.6 307.584 
L 57.6 41.472 
" style="fill:none;stroke:#000000;stroke-linecap:square;stroke-linejoin:miter;stroke-width:0.8;"/>
   </g>
   <g id="patch_4">
    <path d="M 414.72 307.584 
L 414.72 41.472 
" style="fill:none;stroke:#000000;stroke-linecap:square;stroke-linejoin:miter;stroke-width:0.8;"/>
   </g>
   <g id="patch_5">
    <path d="M 57.6 307.584 
L 414.72 307.584 
" style="fill:none;stroke:#000000;stroke-linecap:square;stroke-linejoin:miter;stroke-width:0.8;"/>
   </g>
   <g id="patch_6">
    <path d="M 57.6 41.472 
L 414.72 41.472 
" style="fill:none;stroke:#000000;stroke-linecap:square;stroke-linejoin:miter;stroke-width:0.8;"/>
   </g>
  </g>
 </g>
 <defs>
  <clipPath id="pc8cfb3e27d">
   <rect height="266.112" width="357.12" x="57.6" y="41.472"/>
  </clipPath>
 </defs>
</svg>
