<?xml version="1.0" encoding="utf-8" standalone="no"?>
<!DOCTYPE svg PUBLIC "-//W3C//DTD SVG 1.1//EN"
  "http://www.w3.org/Graphics/SVG/1.1/DTD/svg11.dtd">
<!-- Created with matplotlib (https://matplotlib.org/) -->
<svg height="322.2pt" version="1.1" viewBox="0 0 512.1 322.2" width="512.1pt" xmlns="http://www.w3.org/2000/svg" xmlns:xlink="http://www.w3.org/1999/xlink">
 <defs>
  <style type="text/css">
*{stroke-linecap:butt;stroke-linejoin:round;}
  </style>
 </defs>
 <g id="figure_1">
  <g id="patch_1">
   <path d="M 0 322.2 
L 512.1 322.2 
L 512.1 0 
L 0 0 
z
" style="fill:#ffffff;"/>
  </g>
  <g id="axes_1">
   <g id="patch_2">
    <path d="M 64.0125 286.758 
L 460.89 286.758 
L 460.89 38.664 
L 64.0125 38.664 
z
" style="fill:#ffffff;"/>
   </g>
   <g id="matplotlib.axis_1">
    <g id="xtick_1">
     <g id="line2d_1">
      <defs>
       <path d="M 0 0 
L 0 3.5 
" id="m505deedb22" style="stroke:#000000;stroke-width:0.8;"/>
      </defs>
      <g>
       <use style="stroke:#000000;stroke-width:0.8;" x="82.052386" xlink:href="#m505deedb22" y="286.758"/>
      </g>
     </g>
     <g id="text_1">
      <!-- 2500 -->
      <defs>
       <path d="M 19.1875 8.296875 
L 53.609375 8.296875 
L 53.609375 0 
L 7.328125 0 
L 7.328125 8.296875 
Q 12.9375 14.109375 22.625 23.890625 
Q 32.328125 33.6875 34.8125 36.53125 
Q 39.546875 41.84375 41.421875 45.53125 
Q 43.3125 49.21875 43.3125 52.78125 
Q 43.3125 58.59375 39.234375 62.25 
Q 35.15625 65.921875 28.609375 65.921875 
Q 23.96875 65.921875 18.8125 64.3125 
Q 13.671875 62.703125 7.8125 59.421875 
L 7.8125 69.390625 
Q 13.765625 71.78125 18.9375 73 
Q 24.125 74.21875 28.421875 74.21875 
Q 39.75 74.21875 46.484375 68.546875 
Q 53.21875 62.890625 53.21875 53.421875 
Q 53.21875 48.921875 51.53125 44.890625 
Q 49.859375 40.875 45.40625 35.40625 
Q 44.1875 33.984375 37.640625 27.21875 
Q 31.109375 20.453125 19.1875 8.296875 
z
" id="DejaVuSans-50"/>
       <path d="M 10.796875 72.90625 
L 49.515625 72.90625 
L 49.515625 64.59375 
L 19.828125 64.59375 
L 19.828125 46.734375 
Q 21.96875 47.46875 24.109375 47.828125 
Q 26.265625 48.1875 28.421875 48.1875 
Q 40.625 48.1875 47.75 41.5 
Q 54.890625 34.8125 54.890625 23.390625 
Q 54.890625 11.625 47.5625 5.09375 
Q 40.234375 -1.421875 26.90625 -1.421875 
Q 22.3125 -1.421875 17.546875 -0.640625 
Q 12.796875 0.140625 7.71875 1.703125 
L 7.71875 11.625 
Q 12.109375 9.234375 16.796875 8.0625 
Q 21.484375 6.890625 26.703125 6.890625 
Q 35.15625 6.890625 40.078125 11.328125 
Q 45.015625 15.765625 45.015625 23.390625 
Q 45.015625 31 40.078125 35.4375 
Q 35.15625 39.890625 26.703125 39.890625 
Q 22.75 39.890625 18.8125 39.015625 
Q 14.890625 38.140625 10.796875 36.28125 
z
" id="DejaVuSans-53"/>
       <path d="M 31.78125 66.40625 
Q 24.171875 66.40625 20.328125 58.90625 
Q 16.5 51.421875 16.5 36.375 
Q 16.5 21.390625 20.328125 13.890625 
Q 24.171875 6.390625 31.78125 6.390625 
Q 39.453125 6.390625 43.28125 13.890625 
Q 47.125 21.390625 47.125 36.375 
Q 47.125 51.421875 43.28125 58.90625 
Q 39.453125 66.40625 31.78125 66.40625 
z
M 31.78125 74.21875 
Q 44.046875 74.21875 50.515625 64.515625 
Q 56.984375 54.828125 56.984375 36.375 
Q 56.984375 17.96875 50.515625 8.265625 
Q 44.046875 -1.421875 31.78125 -1.421875 
Q 19.53125 -1.421875 13.0625 8.265625 
Q 6.59375 17.96875 6.59375 36.375 
Q 6.59375 54.828125 13.0625 64.515625 
Q 19.53125 74.21875 31.78125 74.21875 
z
" id="DejaVuSans-48"/>
      </defs>
      <g transform="translate(56.602386 308.954875)scale(0.2 -0.2)">
       <use xlink:href="#DejaVuSans-50"/>
       <use x="63.623047" xlink:href="#DejaVuSans-53"/>
       <use x="127.246094" xlink:href="#DejaVuSans-48"/>
       <use x="190.869141" xlink:href="#DejaVuSans-48"/>
      </g>
     </g>
    </g>
    <g id="xtick_2">
     <g id="line2d_2">
      <g>
       <use style="stroke:#000000;stroke-width:0.8;" x="172.545922" xlink:href="#m505deedb22" y="286.758"/>
      </g>
     </g>
     <g id="text_2">
      <!-- 2600 -->
      <defs>
       <path d="M 33.015625 40.375 
Q 26.375 40.375 22.484375 35.828125 
Q 18.609375 31.296875 18.609375 23.390625 
Q 18.609375 15.53125 22.484375 10.953125 
Q 26.375 6.390625 33.015625 6.390625 
Q 39.65625 6.390625 43.53125 10.953125 
Q 47.40625 15.53125 47.40625 23.390625 
Q 47.40625 31.296875 43.53125 35.828125 
Q 39.65625 40.375 33.015625 40.375 
z
M 52.59375 71.296875 
L 52.59375 62.3125 
Q 48.875 64.0625 45.09375 64.984375 
Q 41.3125 65.921875 37.59375 65.921875 
Q 27.828125 65.921875 22.671875 59.328125 
Q 17.53125 52.734375 16.796875 39.40625 
Q 19.671875 43.65625 24.015625 45.921875 
Q 28.375 48.1875 33.59375 48.1875 
Q 44.578125 48.1875 50.953125 41.515625 
Q 57.328125 34.859375 57.328125 23.390625 
Q 57.328125 12.15625 50.6875 5.359375 
Q 44.046875 -1.421875 33.015625 -1.421875 
Q 20.359375 -1.421875 13.671875 8.265625 
Q 6.984375 17.96875 6.984375 36.375 
Q 6.984375 53.65625 15.1875 63.9375 
Q 23.390625 74.21875 37.203125 74.21875 
Q 40.921875 74.21875 44.703125 73.484375 
Q 48.484375 72.75 52.59375 71.296875 
z
" id="DejaVuSans-54"/>
      </defs>
      <g transform="translate(147.095922 308.954875)scale(0.2 -0.2)">
       <use xlink:href="#DejaVuSans-50"/>
       <use x="63.623047" xlink:href="#DejaVuSans-54"/>
       <use x="127.246094" xlink:href="#DejaVuSans-48"/>
       <use x="190.869141" xlink:href="#DejaVuSans-48"/>
      </g>
     </g>
    </g>
    <g id="xtick_3">
     <g id="line2d_3">
      <g>
       <use style="stroke:#000000;stroke-width:0.8;" x="263.039458" xlink:href="#m505deedb22" y="286.758"/>
      </g>
     </g>
     <g id="text_3">
      <!-- 2700 -->
      <defs>
       <path d="M 8.203125 72.90625 
L 55.078125 72.90625 
L 55.078125 68.703125 
L 28.609375 0 
L 18.3125 0 
L 43.21875 64.59375 
L 8.203125 64.59375 
z
" id="DejaVuSans-55"/>
      </defs>
      <g transform="translate(237.589458 308.954875)scale(0.2 -0.2)">
       <use xlink:href="#DejaVuSans-50"/>
       <use x="63.623047" xlink:href="#DejaVuSans-55"/>
       <use x="127.246094" xlink:href="#DejaVuSans-48"/>
       <use x="190.869141" xlink:href="#DejaVuSans-48"/>
      </g>
     </g>
    </g>
    <g id="xtick_4">
     <g id="line2d_4">
      <g>
       <use style="stroke:#000000;stroke-width:0.8;" x="353.532994" xlink:href="#m505deedb22" y="286.758"/>
      </g>
     </g>
     <g id="text_4">
      <!-- 2800 -->
      <defs>
       <path d="M 31.78125 34.625 
Q 24.75 34.625 20.71875 30.859375 
Q 16.703125 27.09375 16.703125 20.515625 
Q 16.703125 13.921875 20.71875 10.15625 
Q 24.75 6.390625 31.78125 6.390625 
Q 38.8125 6.390625 42.859375 10.171875 
Q 46.921875 13.96875 46.921875 20.515625 
Q 46.921875 27.09375 42.890625 30.859375 
Q 38.875 34.625 31.78125 34.625 
z
M 21.921875 38.8125 
Q 15.578125 40.375 12.03125 44.71875 
Q 8.5 49.078125 8.5 55.328125 
Q 8.5 64.0625 14.71875 69.140625 
Q 20.953125 74.21875 31.78125 74.21875 
Q 42.671875 74.21875 48.875 69.140625 
Q 55.078125 64.0625 55.078125 55.328125 
Q 55.078125 49.078125 51.53125 44.71875 
Q 48 40.375 41.703125 38.8125 
Q 48.828125 37.15625 52.796875 32.3125 
Q 56.78125 27.484375 56.78125 20.515625 
Q 56.78125 9.90625 50.3125 4.234375 
Q 43.84375 -1.421875 31.78125 -1.421875 
Q 19.734375 -1.421875 13.25 4.234375 
Q 6.78125 9.90625 6.78125 20.515625 
Q 6.78125 27.484375 10.78125 32.3125 
Q 14.796875 37.15625 21.921875 38.8125 
z
M 18.3125 54.390625 
Q 18.3125 48.734375 21.84375 45.5625 
Q 25.390625 42.390625 31.78125 42.390625 
Q 38.140625 42.390625 41.71875 45.5625 
Q 45.3125 48.734375 45.3125 54.390625 
Q 45.3125 60.0625 41.71875 63.234375 
Q 38.140625 66.40625 31.78125 66.40625 
Q 25.390625 66.40625 21.84375 63.234375 
Q 18.3125 60.0625 18.3125 54.390625 
z
" id="DejaVuSans-56"/>
      </defs>
      <g transform="translate(328.082994 308.954875)scale(0.2 -0.2)">
       <use xlink:href="#DejaVuSans-50"/>
       <use x="63.623047" xlink:href="#DejaVuSans-56"/>
       <use x="127.246094" xlink:href="#DejaVuSans-48"/>
       <use x="190.869141" xlink:href="#DejaVuSans-48"/>
      </g>
     </g>
    </g>
    <g id="xtick_5">
     <g id="line2d_5">
      <g>
       <use style="stroke:#000000;stroke-width:0.8;" x="444.02653" xlink:href="#m505deedb22" y="286.758"/>
      </g>
     </g>
     <g id="text_5">
      <!-- 2900 -->
      <defs>
       <path d="M 10.984375 1.515625 
L 10.984375 10.5 
Q 14.703125 8.734375 18.5 7.8125 
Q 22.3125 6.890625 25.984375 6.890625 
Q 35.75 6.890625 40.890625 13.453125 
Q 46.046875 20.015625 46.78125 33.40625 
Q 43.953125 29.203125 39.59375 26.953125 
Q 35.25 24.703125 29.984375 24.703125 
Q 19.046875 24.703125 12.671875 31.3125 
Q 6.296875 37.9375 6.296875 49.421875 
Q 6.296875 60.640625 12.9375 67.421875 
Q 19.578125 74.21875 30.609375 74.21875 
Q 43.265625 74.21875 49.921875 64.515625 
Q 56.59375 54.828125 56.59375 36.375 
Q 56.59375 19.140625 48.40625 8.859375 
Q 40.234375 -1.421875 26.421875 -1.421875 
Q 22.703125 -1.421875 18.890625 -0.6875 
Q 15.09375 0.046875 10.984375 1.515625 
z
M 30.609375 32.421875 
Q 37.25 32.421875 41.125 36.953125 
Q 45.015625 41.5 45.015625 49.421875 
Q 45.015625 57.28125 41.125 61.84375 
Q 37.25 66.40625 30.609375 66.40625 
Q 23.96875 66.40625 20.09375 61.84375 
Q 16.21875 57.28125 16.21875 49.421875 
Q 16.21875 41.5 20.09375 36.953125 
Q 23.96875 32.421875 30.609375 32.421875 
z
" id="DejaVuSans-57"/>
      </defs>
      <g transform="translate(418.57653 308.954875)scale(0.2 -0.2)">
       <use xlink:href="#DejaVuSans-50"/>
       <use x="63.623047" xlink:href="#DejaVuSans-57"/>
       <use x="127.246094" xlink:href="#DejaVuSans-48"/>
       <use x="190.869141" xlink:href="#DejaVuSans-48"/>
      </g>
     </g>
    </g>
    <g id="text_6">
     <!-- Microwave frequency (MHz) -->
     <defs>
      <path d="M 9.1875 72.90625 
L 33.109375 72.90625 
L 49.703125 33.890625 
L 66.40625 72.90625 
L 90.28125 72.90625 
L 90.28125 0 
L 72.515625 0 
L 72.515625 53.328125 
L 55.71875 14.015625 
L 43.796875 14.015625 
L 27 53.328125 
L 27 0 
L 9.1875 0 
z
" id="DejaVuSans-Bold-77"/>
      <path d="M 8.40625 54.6875 
L 25.875 54.6875 
L 25.875 0 
L 8.40625 0 
z
M 8.40625 75.984375 
L 25.875 75.984375 
L 25.875 61.71875 
L 8.40625 61.71875 
z
" id="DejaVuSans-Bold-105"/>
      <path d="M 52.59375 52.984375 
L 52.59375 38.71875 
Q 49.03125 41.15625 45.4375 42.328125 
Q 41.84375 43.5 37.984375 43.5 
Q 30.671875 43.5 26.59375 39.234375 
Q 22.515625 34.96875 22.515625 27.296875 
Q 22.515625 19.625 26.59375 15.34375 
Q 30.671875 11.078125 37.984375 11.078125 
Q 42.09375 11.078125 45.78125 12.296875 
Q 49.46875 13.53125 52.59375 15.921875 
L 52.59375 1.609375 
Q 48.484375 0.09375 44.265625 -0.65625 
Q 40.046875 -1.421875 35.796875 -1.421875 
Q 21 -1.421875 12.640625 6.171875 
Q 4.296875 13.765625 4.296875 27.296875 
Q 4.296875 40.828125 12.640625 48.40625 
Q 21 56 35.796875 56 
Q 40.09375 56 44.265625 55.25 
Q 48.4375 54.5 52.59375 52.984375 
z
" id="DejaVuSans-Bold-99"/>
      <path d="M 49.03125 39.796875 
Q 46.734375 40.875 44.453125 41.375 
Q 42.1875 41.890625 39.890625 41.890625 
Q 33.15625 41.890625 29.515625 37.5625 
Q 25.875 33.25 25.875 25.203125 
L 25.875 0 
L 8.40625 0 
L 8.40625 54.6875 
L 25.875 54.6875 
L 25.875 45.703125 
Q 29.25 51.078125 33.609375 53.53125 
Q 37.984375 56 44.09375 56 
Q 44.96875 56 45.984375 55.921875 
Q 47.015625 55.859375 48.96875 55.609375 
z
" id="DejaVuSans-Bold-114"/>
      <path d="M 34.421875 43.5 
Q 28.609375 43.5 25.5625 39.328125 
Q 22.515625 35.15625 22.515625 27.296875 
Q 22.515625 19.4375 25.5625 15.25 
Q 28.609375 11.078125 34.421875 11.078125 
Q 40.140625 11.078125 43.15625 15.25 
Q 46.1875 19.4375 46.1875 27.296875 
Q 46.1875 35.15625 43.15625 39.328125 
Q 40.140625 43.5 34.421875 43.5 
z
M 34.421875 56 
Q 48.53125 56 56.46875 48.375 
Q 64.40625 40.765625 64.40625 27.296875 
Q 64.40625 13.8125 56.46875 6.1875 
Q 48.53125 -1.421875 34.421875 -1.421875 
Q 20.265625 -1.421875 12.28125 6.1875 
Q 4.296875 13.8125 4.296875 27.296875 
Q 4.296875 40.765625 12.28125 48.375 
Q 20.265625 56 34.421875 56 
z
" id="DejaVuSans-Bold-111"/>
      <path d="M 3.515625 54.6875 
L 20.515625 54.6875 
L 29.6875 17 
L 38.921875 54.6875 
L 53.515625 54.6875 
L 62.703125 17.390625 
L 71.921875 54.6875 
L 88.921875 54.6875 
L 74.515625 0 
L 55.421875 0 
L 46.1875 37.59375 
L 37.015625 0 
L 17.921875 0 
z
" id="DejaVuSans-Bold-119"/>
      <path d="M 32.90625 24.609375 
Q 27.4375 24.609375 24.671875 22.75 
Q 21.921875 20.90625 21.921875 17.28125 
Q 21.921875 13.96875 24.140625 12.078125 
Q 26.375 10.203125 30.328125 10.203125 
Q 35.25 10.203125 38.625 13.734375 
Q 42 17.28125 42 22.609375 
L 42 24.609375 
z
M 59.625 31.203125 
L 59.625 0 
L 42 0 
L 42 8.109375 
Q 38.484375 3.125 34.078125 0.84375 
Q 29.6875 -1.421875 23.390625 -1.421875 
Q 14.890625 -1.421875 9.59375 3.53125 
Q 4.296875 8.5 4.296875 16.40625 
Q 4.296875 26.03125 10.90625 30.515625 
Q 17.53125 35.015625 31.6875 35.015625 
L 42 35.015625 
L 42 36.375 
Q 42 40.53125 38.71875 42.453125 
Q 35.453125 44.390625 28.515625 44.390625 
Q 22.90625 44.390625 18.0625 43.265625 
Q 13.234375 42.140625 9.078125 39.890625 
L 9.078125 53.21875 
Q 14.703125 54.59375 20.359375 55.296875 
Q 26.03125 56 31.6875 56 
Q 46.484375 56 53.046875 50.171875 
Q 59.625 44.34375 59.625 31.203125 
z
" id="DejaVuSans-Bold-97"/>
      <path d="M 1.515625 54.6875 
L 19 54.6875 
L 32.625 16.890625 
L 46.1875 54.6875 
L 63.71875 54.6875 
L 42.1875 0 
L 23 0 
z
" id="DejaVuSans-Bold-118"/>
      <path d="M 62.984375 27.484375 
L 62.984375 22.515625 
L 22.125 22.515625 
Q 22.75 16.359375 26.5625 13.28125 
Q 30.375 10.203125 37.203125 10.203125 
Q 42.71875 10.203125 48.5 11.84375 
Q 54.296875 13.484375 60.40625 16.796875 
L 60.40625 3.328125 
Q 54.203125 0.984375 48 -0.21875 
Q 41.796875 -1.421875 35.59375 -1.421875 
Q 20.75 -1.421875 12.515625 6.125 
Q 4.296875 13.671875 4.296875 27.296875 
Q 4.296875 40.671875 12.375 48.328125 
Q 20.453125 56 34.625 56 
Q 47.515625 56 55.25 48.234375 
Q 62.984375 40.484375 62.984375 27.484375 
z
M 45.015625 33.296875 
Q 45.015625 38.28125 42.109375 41.328125 
Q 39.203125 44.390625 34.515625 44.390625 
Q 29.4375 44.390625 26.265625 41.53125 
Q 23.09375 38.671875 22.3125 33.296875 
z
" id="DejaVuSans-Bold-101"/>
      <path id="DejaVuSans-Bold-32"/>
      <path d="M 44.390625 75.984375 
L 44.390625 64.5 
L 34.71875 64.5 
Q 31 64.5 29.53125 63.15625 
Q 28.078125 61.8125 28.078125 58.5 
L 28.078125 54.6875 
L 43.015625 54.6875 
L 43.015625 42.1875 
L 28.078125 42.1875 
L 28.078125 0 
L 10.59375 0 
L 10.59375 42.1875 
L 1.90625 42.1875 
L 1.90625 54.6875 
L 10.59375 54.6875 
L 10.59375 58.5 
Q 10.59375 67.4375 15.578125 71.703125 
Q 20.5625 75.984375 31 75.984375 
z
" id="DejaVuSans-Bold-102"/>
      <path d="M 34.078125 43.3125 
Q 28.515625 43.3125 25.5625 39.203125 
Q 22.609375 35.109375 22.609375 27.296875 
Q 22.609375 19.484375 25.5625 15.375 
Q 28.515625 11.28125 34.078125 11.28125 
Q 39.703125 11.28125 42.65625 15.375 
Q 45.609375 19.484375 45.609375 27.296875 
Q 45.609375 35.109375 42.65625 39.203125 
Q 39.703125 43.3125 34.078125 43.3125 
z
M 45.609375 7.90625 
Q 42 3.078125 37.640625 0.828125 
Q 33.296875 -1.421875 27.59375 -1.421875 
Q 17.484375 -1.421875 10.984375 6.609375 
Q 4.5 14.65625 4.5 27.296875 
Q 4.5 39.9375 10.984375 47.921875 
Q 17.484375 55.90625 27.59375 55.90625 
Q 33.296875 55.90625 37.640625 53.65625 
Q 42 51.421875 45.609375 46.578125 
L 45.609375 54.6875 
L 63.1875 54.6875 
L 63.1875 -20.796875 
L 45.609375 -20.796875 
z
" id="DejaVuSans-Bold-113"/>
      <path d="M 7.8125 21.296875 
L 7.8125 54.6875 
L 25.390625 54.6875 
L 25.390625 49.21875 
Q 25.390625 44.78125 25.34375 38.0625 
Q 25.296875 31.34375 25.296875 29.109375 
Q 25.296875 22.515625 25.640625 19.609375 
Q 25.984375 16.703125 26.8125 15.375 
Q 27.875 13.671875 29.609375 12.734375 
Q 31.34375 11.8125 33.59375 11.8125 
Q 39.0625 11.8125 42.1875 16.015625 
Q 45.3125 20.21875 45.3125 27.6875 
L 45.3125 54.6875 
L 62.796875 54.6875 
L 62.796875 0 
L 45.3125 0 
L 45.3125 7.90625 
Q 41.359375 3.125 36.9375 0.84375 
Q 32.515625 -1.421875 27.203125 -1.421875 
Q 17.71875 -1.421875 12.765625 4.390625 
Q 7.8125 10.203125 7.8125 21.296875 
z
" id="DejaVuSans-Bold-117"/>
      <path d="M 63.375 33.296875 
L 63.375 0 
L 45.796875 0 
L 45.796875 5.421875 
L 45.796875 25.484375 
Q 45.796875 32.5625 45.484375 35.25 
Q 45.171875 37.9375 44.390625 39.203125 
Q 43.359375 40.921875 41.59375 41.875 
Q 39.84375 42.828125 37.59375 42.828125 
Q 32.125 42.828125 29 38.59375 
Q 25.875 34.375 25.875 26.90625 
L 25.875 0 
L 8.40625 0 
L 8.40625 54.6875 
L 25.875 54.6875 
L 25.875 46.6875 
Q 29.828125 51.46875 34.265625 53.734375 
Q 38.71875 56 44.09375 56 
Q 53.5625 56 58.46875 50.1875 
Q 63.375 44.390625 63.375 33.296875 
z
" id="DejaVuSans-Bold-110"/>
      <path d="M 1.21875 54.6875 
L 18.703125 54.6875 
L 33.40625 17.578125 
L 45.90625 54.6875 
L 63.375 54.6875 
L 40.375 -5.171875 
Q 36.921875 -14.3125 32.296875 -17.9375 
Q 27.6875 -21.578125 20.125 -21.578125 
L 10.015625 -21.578125 
L 10.015625 -10.109375 
L 15.484375 -10.109375 
Q 19.921875 -10.109375 21.9375 -8.6875 
Q 23.96875 -7.28125 25.09375 -3.609375 
L 25.59375 -2.09375 
z
" id="DejaVuSans-Bold-121"/>
      <path d="M 37.703125 -13.1875 
L 23.1875 -13.1875 
Q 15.71875 -1.125 12.15625 9.734375 
Q 8.59375 20.609375 8.59375 31.296875 
Q 8.59375 42 12.171875 52.953125 
Q 15.765625 63.921875 23.1875 75.875 
L 37.703125 75.875 
Q 31.453125 64.3125 28.328125 53.25 
Q 25.203125 42.1875 25.203125 31.390625 
Q 25.203125 20.609375 28.296875 9.515625 
Q 31.390625 -1.5625 37.703125 -13.1875 
z
" id="DejaVuSans-Bold-40"/>
      <path d="M 9.1875 72.90625 
L 27.984375 72.90625 
L 27.984375 45.125 
L 55.71875 45.125 
L 55.71875 72.90625 
L 74.515625 72.90625 
L 74.515625 0 
L 55.71875 0 
L 55.71875 30.90625 
L 27.984375 30.90625 
L 27.984375 0 
L 9.1875 0 
z
" id="DejaVuSans-Bold-72"/>
      <path d="M 5.71875 54.6875 
L 53.421875 54.6875 
L 53.421875 42.484375 
L 24.609375 12.5 
L 53.421875 12.5 
L 53.421875 0 
L 4.5 0 
L 4.5 12.203125 
L 33.296875 42.1875 
L 5.71875 42.1875 
z
" id="DejaVuSans-Bold-122"/>
      <path d="M 8.015625 -13.1875 
Q 14.265625 -1.5625 17.390625 9.515625 
Q 20.515625 20.609375 20.515625 31.390625 
Q 20.515625 42.1875 17.390625 53.25 
Q 14.265625 64.3125 8.015625 75.875 
L 22.515625 75.875 
Q 29.9375 63.921875 33.515625 52.953125 
Q 37.109375 42 37.109375 31.296875 
Q 37.109375 20.609375 33.546875 9.734375 
Q 29.984375 -1.125 22.515625 -13.1875 
z
" id="DejaVuSans-Bold-41"/>
     </defs>
     <g transform="translate(105.12 332.311125)scale(0.2 -0.2)">
      <use xlink:href="#DejaVuSans-Bold-77"/>
      <use x="99.511719" xlink:href="#DejaVuSans-Bold-105"/>
      <use x="133.789062" xlink:href="#DejaVuSans-Bold-99"/>
      <use x="193.066406" xlink:href="#DejaVuSans-Bold-114"/>
      <use x="242.382812" xlink:href="#DejaVuSans-Bold-111"/>
      <use x="311.083984" xlink:href="#DejaVuSans-Bold-119"/>
      <use x="403.466797" xlink:href="#DejaVuSans-Bold-97"/>
      <use x="470.947266" xlink:href="#DejaVuSans-Bold-118"/>
      <use x="536.132812" xlink:href="#DejaVuSans-Bold-101"/>
      <use x="603.955078" xlink:href="#DejaVuSans-Bold-32"/>
      <use x="638.769531" xlink:href="#DejaVuSans-Bold-102"/>
      <use x="682.275391" xlink:href="#DejaVuSans-Bold-114"/>
      <use x="731.591797" xlink:href="#DejaVuSans-Bold-101"/>
      <use x="799.414062" xlink:href="#DejaVuSans-Bold-113"/>
      <use x="870.996094" xlink:href="#DejaVuSans-Bold-117"/>
      <use x="942.1875" xlink:href="#DejaVuSans-Bold-101"/>
      <use x="1010.009766" xlink:href="#DejaVuSans-Bold-110"/>
      <use x="1081.201172" xlink:href="#DejaVuSans-Bold-99"/>
      <use x="1140.478516" xlink:href="#DejaVuSans-Bold-121"/>
      <use x="1205.664062" xlink:href="#DejaVuSans-Bold-32"/>
      <use x="1240.478516" xlink:href="#DejaVuSans-Bold-40"/>
      <use x="1286.181641" xlink:href="#DejaVuSans-Bold-77"/>
      <use x="1385.693359" xlink:href="#DejaVuSans-Bold-72"/>
      <use x="1469.384766" xlink:href="#DejaVuSans-Bold-122"/>
      <use x="1527.587891" xlink:href="#DejaVuSans-Bold-41"/>
     </g>
    </g>
   </g>
   <g id="matplotlib.axis_2">
    <g id="ytick_1">
     <g id="line2d_6">
      <defs>
       <path d="M 0 0 
L -3.5 0 
" id="md77e545c9f" style="stroke:#000000;stroke-width:0.8;"/>
      </defs>
      <g>
       <use style="stroke:#000000;stroke-width:0.8;" x="64.0125" xlink:href="#md77e545c9f" y="266.440688"/>
      </g>
     </g>
     <g id="text_7">
      <!-- 0.990 -->
      <defs>
       <path d="M 10.6875 12.40625 
L 21 12.40625 
L 21 0 
L 10.6875 0 
z
" id="DejaVuSans-46"/>
      </defs>
      <g transform="translate(-0.24375 274.039125)scale(0.2 -0.2)">
       <use xlink:href="#DejaVuSans-48"/>
       <use x="63.623047" xlink:href="#DejaVuSans-46"/>
       <use x="95.410156" xlink:href="#DejaVuSans-57"/>
       <use x="159.033203" xlink:href="#DejaVuSans-57"/>
       <use x="222.65625" xlink:href="#DejaVuSans-48"/>
      </g>
     </g>
    </g>
    <g id="ytick_2">
     <g id="line2d_7">
      <g>
       <use style="stroke:#000000;stroke-width:0.8;" x="64.0125" xlink:href="#md77e545c9f" y="223.14075"/>
      </g>
     </g>
     <g id="text_8">
      <!-- 0.992 -->
      <g transform="translate(-0.24375 230.739188)scale(0.2 -0.2)">
       <use xlink:href="#DejaVuSans-48"/>
       <use x="63.623047" xlink:href="#DejaVuSans-46"/>
       <use x="95.410156" xlink:href="#DejaVuSans-57"/>
       <use x="159.033203" xlink:href="#DejaVuSans-57"/>
       <use x="222.65625" xlink:href="#DejaVuSans-50"/>
      </g>
     </g>
    </g>
    <g id="ytick_3">
     <g id="line2d_8">
      <g>
       <use style="stroke:#000000;stroke-width:0.8;" x="64.0125" xlink:href="#md77e545c9f" y="179.840813"/>
      </g>
     </g>
     <g id="text_9">
      <!-- 0.994 -->
      <defs>
       <path d="M 37.796875 64.3125 
L 12.890625 25.390625 
L 37.796875 25.390625 
z
M 35.203125 72.90625 
L 47.609375 72.90625 
L 47.609375 25.390625 
L 58.015625 25.390625 
L 58.015625 17.1875 
L 47.609375 17.1875 
L 47.609375 0 
L 37.796875 0 
L 37.796875 17.1875 
L 4.890625 17.1875 
L 4.890625 26.703125 
z
" id="DejaVuSans-52"/>
      </defs>
      <g transform="translate(-0.24375 187.43925)scale(0.2 -0.2)">
       <use xlink:href="#DejaVuSans-48"/>
       <use x="63.623047" xlink:href="#DejaVuSans-46"/>
       <use x="95.410156" xlink:href="#DejaVuSans-57"/>
       <use x="159.033203" xlink:href="#DejaVuSans-57"/>
       <use x="222.65625" xlink:href="#DejaVuSans-52"/>
      </g>
     </g>
    </g>
    <g id="ytick_4">
     <g id="line2d_9">
      <g>
       <use style="stroke:#000000;stroke-width:0.8;" x="64.0125" xlink:href="#md77e545c9f" y="136.540875"/>
      </g>
     </g>
     <g id="text_10">
      <!-- 0.996 -->
      <g transform="translate(-0.24375 144.139313)scale(0.2 -0.2)">
       <use xlink:href="#DejaVuSans-48"/>
       <use x="63.623047" xlink:href="#DejaVuSans-46"/>
       <use x="95.410156" xlink:href="#DejaVuSans-57"/>
       <use x="159.033203" xlink:href="#DejaVuSans-57"/>
       <use x="222.65625" xlink:href="#DejaVuSans-54"/>
      </g>
     </g>
    </g>
    <g id="ytick_5">
     <g id="line2d_10">
      <g>
       <use style="stroke:#000000;stroke-width:0.8;" x="64.0125" xlink:href="#md77e545c9f" y="93.240938"/>
      </g>
     </g>
     <g id="text_11">
      <!-- 0.998 -->
      <g transform="translate(-0.24375 100.839375)scale(0.2 -0.2)">
       <use xlink:href="#DejaVuSans-48"/>
       <use x="63.623047" xlink:href="#DejaVuSans-46"/>
       <use x="95.410156" xlink:href="#DejaVuSans-57"/>
       <use x="159.033203" xlink:href="#DejaVuSans-57"/>
       <use x="222.65625" xlink:href="#DejaVuSans-56"/>
      </g>
     </g>
    </g>
    <g id="ytick_6">
     <g id="line2d_11">
      <g>
       <use style="stroke:#000000;stroke-width:0.8;" x="64.0125" xlink:href="#md77e545c9f" y="49.941"/>
      </g>
     </g>
     <g id="text_12">
      <!-- 1.000 -->
      <defs>
       <path d="M 12.40625 8.296875 
L 28.515625 8.296875 
L 28.515625 63.921875 
L 10.984375 60.40625 
L 10.984375 69.390625 
L 28.421875 72.90625 
L 38.28125 72.90625 
L 38.28125 8.296875 
L 54.390625 8.296875 
L 54.390625 0 
L 12.40625 0 
z
" id="DejaVuSans-49"/>
      </defs>
      <g transform="translate(-0.24375 57.539438)scale(0.2 -0.2)">
       <use xlink:href="#DejaVuSans-49"/>
       <use x="63.623047" xlink:href="#DejaVuSans-46"/>
       <use x="95.410156" xlink:href="#DejaVuSans-48"/>
       <use x="159.033203" xlink:href="#DejaVuSans-48"/>
       <use x="222.65625" xlink:href="#DejaVuSans-48"/>
      </g>
     </g>
    </g>
    <g id="text_13">
     <!-- Photoluminescence -->
     <defs>
      <path d="M 9.1875 72.90625 
L 40.375 72.90625 
Q 54.296875 72.90625 61.734375 66.71875 
Q 69.1875 60.546875 69.1875 49.125 
Q 69.1875 37.640625 61.734375 31.46875 
Q 54.296875 25.296875 40.375 25.296875 
L 27.984375 25.296875 
L 27.984375 0 
L 9.1875 0 
z
M 27.984375 59.28125 
L 27.984375 38.921875 
L 38.375 38.921875 
Q 43.84375 38.921875 46.828125 41.578125 
Q 49.8125 44.234375 49.8125 49.125 
Q 49.8125 54 46.828125 56.640625 
Q 43.84375 59.28125 38.375 59.28125 
z
" id="DejaVuSans-Bold-80"/>
      <path d="M 63.375 33.296875 
L 63.375 0 
L 45.796875 0 
L 45.796875 5.421875 
L 45.796875 25.390625 
Q 45.796875 32.5625 45.484375 35.25 
Q 45.171875 37.9375 44.390625 39.203125 
Q 43.359375 40.921875 41.59375 41.875 
Q 39.84375 42.828125 37.59375 42.828125 
Q 32.125 42.828125 29 38.59375 
Q 25.875 34.375 25.875 26.90625 
L 25.875 0 
L 8.40625 0 
L 8.40625 75.984375 
L 25.875 75.984375 
L 25.875 46.6875 
Q 29.828125 51.46875 34.265625 53.734375 
Q 38.71875 56 44.09375 56 
Q 53.5625 56 58.46875 50.1875 
Q 63.375 44.390625 63.375 33.296875 
z
" id="DejaVuSans-Bold-104"/>
      <path d="M 27.484375 70.21875 
L 27.484375 54.6875 
L 45.515625 54.6875 
L 45.515625 42.1875 
L 27.484375 42.1875 
L 27.484375 19 
Q 27.484375 15.1875 29 13.84375 
Q 30.515625 12.5 35.015625 12.5 
L 44 12.5 
L 44 0 
L 29 0 
Q 18.65625 0 14.328125 4.3125 
Q 10.015625 8.640625 10.015625 19 
L 10.015625 42.1875 
L 1.3125 42.1875 
L 1.3125 54.6875 
L 10.015625 54.6875 
L 10.015625 70.21875 
z
" id="DejaVuSans-Bold-116"/>
      <path d="M 8.40625 75.984375 
L 25.875 75.984375 
L 25.875 0 
L 8.40625 0 
z
" id="DejaVuSans-Bold-108"/>
      <path d="M 59.078125 45.609375 
Q 62.40625 50.6875 66.96875 53.34375 
Q 71.53125 56 77 56 
Q 86.421875 56 91.359375 50.1875 
Q 96.296875 44.390625 96.296875 33.296875 
L 96.296875 0 
L 78.71875 0 
L 78.71875 28.515625 
Q 78.765625 29.15625 78.78125 29.828125 
Q 78.8125 30.515625 78.8125 31.78125 
Q 78.8125 37.59375 77.09375 40.203125 
Q 75.390625 42.828125 71.578125 42.828125 
Q 66.609375 42.828125 63.890625 38.71875 
Q 61.1875 34.625 61.078125 26.859375 
L 61.078125 0 
L 43.5 0 
L 43.5 28.515625 
Q 43.5 37.59375 41.9375 40.203125 
Q 40.375 42.828125 36.375 42.828125 
Q 31.34375 42.828125 28.609375 38.703125 
Q 25.875 34.578125 25.875 26.90625 
L 25.875 0 
L 8.296875 0 
L 8.296875 54.6875 
L 25.875 54.6875 
L 25.875 46.6875 
Q 29.109375 51.3125 33.28125 53.65625 
Q 37.453125 56 42.484375 56 
Q 48.140625 56 52.484375 53.265625 
Q 56.84375 50.53125 59.078125 45.609375 
z
" id="DejaVuSans-Bold-109"/>
      <path d="M 51.125 52.984375 
L 51.125 39.703125 
Q 45.515625 42.046875 40.28125 43.21875 
Q 35.0625 44.390625 30.421875 44.390625 
Q 25.4375 44.390625 23.015625 43.140625 
Q 20.609375 41.890625 20.609375 39.3125 
Q 20.609375 37.203125 22.4375 36.078125 
Q 24.265625 34.96875 29 34.421875 
L 32.078125 33.984375 
Q 45.515625 32.28125 50.140625 28.375 
Q 54.78125 24.46875 54.78125 16.109375 
Q 54.78125 7.375 48.328125 2.96875 
Q 41.890625 -1.421875 29.109375 -1.421875 
Q 23.6875 -1.421875 17.890625 -0.5625 
Q 12.109375 0.296875 6 2 
L 6 15.28125 
Q 11.234375 12.75 16.71875 11.46875 
Q 22.21875 10.203125 27.875 10.203125 
Q 33.015625 10.203125 35.59375 11.609375 
Q 38.1875 13.03125 38.1875 15.828125 
Q 38.1875 18.171875 36.40625 19.3125 
Q 34.625 20.453125 29.296875 21.09375 
L 26.21875 21.484375 
Q 14.546875 22.953125 9.859375 26.90625 
Q 5.171875 30.859375 5.171875 38.921875 
Q 5.171875 47.609375 11.125 51.796875 
Q 17.09375 56 29.390625 56 
Q 34.234375 56 39.546875 55.265625 
Q 44.875 54.546875 51.125 52.984375 
z
" id="DejaVuSans-Bold-115"/>
     </defs>
     <g transform="translate(-8.403125 272.468813)rotate(-90)scale(0.2 -0.2)">
      <use xlink:href="#DejaVuSans-Bold-80"/>
      <use x="73.291016" xlink:href="#DejaVuSans-Bold-104"/>
      <use x="144.482422" xlink:href="#DejaVuSans-Bold-111"/>
      <use x="213.183594" xlink:href="#DejaVuSans-Bold-116"/>
      <use x="260.986328" xlink:href="#DejaVuSans-Bold-111"/>
      <use x="329.6875" xlink:href="#DejaVuSans-Bold-108"/>
      <use x="363.964844" xlink:href="#DejaVuSans-Bold-117"/>
      <use x="435.15625" xlink:href="#DejaVuSans-Bold-109"/>
      <use x="539.355469" xlink:href="#DejaVuSans-Bold-105"/>
      <use x="573.632812" xlink:href="#DejaVuSans-Bold-110"/>
      <use x="644.824219" xlink:href="#DejaVuSans-Bold-101"/>
      <use x="712.646484" xlink:href="#DejaVuSans-Bold-115"/>
      <use x="772.167969" xlink:href="#DejaVuSans-Bold-99"/>
      <use x="831.445312" xlink:href="#DejaVuSans-Bold-101"/>
      <use x="899.267578" xlink:href="#DejaVuSans-Bold-110"/>
      <use x="970.458984" xlink:href="#DejaVuSans-Bold-99"/>
      <use x="1029.736328" xlink:href="#DejaVuSans-Bold-101"/>
     </g>
    </g>
   </g>
   <g id="line2d_12">
    <defs>
     <path d="M 0 5 
C 1.326016 5 2.597899 4.473168 3.535534 3.535534 
C 4.473168 2.597899 5 1.326016 5 0 
C 5 -1.326016 4.473168 -2.597899 3.535534 -3.535534 
C 2.597899 -4.473168 1.326016 -5 0 -5 
C -1.326016 -5 -2.597899 -4.473168 -3.535534 -3.535534 
C -4.473168 -2.597899 -5 -1.326016 -5 0 
C -5 1.326016 -4.473168 2.597899 -3.535534 3.535534 
C -2.597899 4.473168 -1.326016 5 0 5 
z
" id="mfcff7a0f86" style="stroke:#1f77b4;stroke-width:3;"/>
    </defs>
    <g clip-path="url(#pf554f10fbf)">
     <use style="fill-opacity:0;stroke:#1f77b4;stroke-width:3;" x="82.052386" xlink:href="#mfcff7a0f86" y="58.035808"/>
     <use style="fill-opacity:0;stroke:#1f77b4;stroke-width:3;" x="83.228802" xlink:href="#mfcff7a0f86" y="65.725876"/>
     <use style="fill-opacity:0;stroke:#1f77b4;stroke-width:3;" x="84.495712" xlink:href="#mfcff7a0f86" y="66.940097"/>
     <use style="fill-opacity:0;stroke:#1f77b4;stroke-width:3;" x="85.672128" xlink:href="#mfcff7a0f86" y="72.606462"/>
     <use style="fill-opacity:0;stroke:#1f77b4;stroke-width:3;" x="86.848544" xlink:href="#mfcff7a0f86" y="68.154318"/>
     <use style="fill-opacity:0;stroke:#1f77b4;stroke-width:3;" x="88.115453" xlink:href="#mfcff7a0f86" y="67.749578"/>
     <use style="fill-opacity:0;stroke:#1f77b4;stroke-width:3;" x="89.291869" xlink:href="#mfcff7a0f86" y="79.89179"/>
     <use style="fill-opacity:0;stroke:#1f77b4;stroke-width:3;" x="90.468285" xlink:href="#mfcff7a0f86" y="92.843483"/>
     <use style="fill-opacity:0;stroke:#1f77b4;stroke-width:3;" x="91.735195" xlink:href="#mfcff7a0f86" y="71.796982"/>
     <use style="fill-opacity:0;stroke:#1f77b4;stroke-width:3;" x="92.911611" xlink:href="#mfcff7a0f86" y="75.439645"/>
     <use style="fill-opacity:0;stroke:#1f77b4;stroke-width:3;" x="94.088027" xlink:href="#mfcff7a0f86" y="75.034905"/>
     <use style="fill-opacity:0;stroke:#1f77b4;stroke-width:3;" x="95.354936" xlink:href="#mfcff7a0f86" y="63.297433"/>
     <use style="fill-opacity:0;stroke:#1f77b4;stroke-width:3;" x="96.531352" xlink:href="#mfcff7a0f86" y="64.106914"/>
     <use style="fill-opacity:0;stroke:#1f77b4;stroke-width:3;" x="97.707768" xlink:href="#mfcff7a0f86" y="86.367636"/>
     <use style="fill-opacity:0;stroke:#1f77b4;stroke-width:3;" x="98.974678" xlink:href="#mfcff7a0f86" y="60.46425"/>
     <use style="fill-opacity:0;stroke:#1f77b4;stroke-width:3;" x="100.151094" xlink:href="#mfcff7a0f86" y="66.130616"/>
     <use style="fill-opacity:0;stroke:#1f77b4;stroke-width:3;" x="101.327509" xlink:href="#mfcff7a0f86" y="81.510751"/>
     <use style="fill-opacity:0;stroke:#1f77b4;stroke-width:3;" x="102.594419" xlink:href="#mfcff7a0f86" y="69.368539"/>
     <use style="fill-opacity:0;stroke:#1f77b4;stroke-width:3;" x="103.770835" xlink:href="#mfcff7a0f86" y="73.011203"/>
     <use style="fill-opacity:0;stroke:#1f77b4;stroke-width:3;" x="104.947251" xlink:href="#mfcff7a0f86" y="79.89179"/>
     <use style="fill-opacity:0;stroke:#1f77b4;stroke-width:3;" x="106.21416" xlink:href="#mfcff7a0f86" y="69.368539"/>
     <use style="fill-opacity:0;stroke:#1f77b4;stroke-width:3;" x="107.390576" xlink:href="#mfcff7a0f86" y="70.987501"/>
     <use style="fill-opacity:0;stroke:#1f77b4;stroke-width:3;" x="108.566992" xlink:href="#mfcff7a0f86" y="78.677568"/>
     <use style="fill-opacity:0;stroke:#1f77b4;stroke-width:3;" x="109.833902" xlink:href="#mfcff7a0f86" y="68.559058"/>
     <use style="fill-opacity:0;stroke:#1f77b4;stroke-width:3;" x="111.010318" xlink:href="#mfcff7a0f86" y="70.987501"/>
     <use style="fill-opacity:0;stroke:#1f77b4;stroke-width:3;" x="112.186734" xlink:href="#mfcff7a0f86" y="63.297433"/>
     <use style="fill-opacity:0;stroke:#1f77b4;stroke-width:3;" x="113.453643" xlink:href="#mfcff7a0f86" y="62.083212"/>
     <use style="fill-opacity:0;stroke:#1f77b4;stroke-width:3;" x="114.630059" xlink:href="#mfcff7a0f86" y="73.415943"/>
     <use style="fill-opacity:0;stroke:#1f77b4;stroke-width:3;" x="115.806475" xlink:href="#mfcff7a0f86" y="86.367636"/>
     <use style="fill-opacity:0;stroke:#1f77b4;stroke-width:3;" x="117.073385" xlink:href="#mfcff7a0f86" y="51.559962"/>
     <use style="fill-opacity:0;stroke:#1f77b4;stroke-width:3;" x="118.249801" xlink:href="#mfcff7a0f86" y="72.201722"/>
     <use style="fill-opacity:0;stroke:#1f77b4;stroke-width:3;" x="119.426217" xlink:href="#mfcff7a0f86" y="65.321135"/>
     <use style="fill-opacity:0;stroke:#1f77b4;stroke-width:3;" x="120.693126" xlink:href="#mfcff7a0f86" y="77.058607"/>
     <use style="fill-opacity:0;stroke:#1f77b4;stroke-width:3;" x="121.869542" xlink:href="#mfcff7a0f86" y="66.940097"/>
     <use style="fill-opacity:0;stroke:#1f77b4;stroke-width:3;" x="123.045958" xlink:href="#mfcff7a0f86" y="81.106011"/>
     <use style="fill-opacity:0;stroke:#1f77b4;stroke-width:3;" x="124.312868" xlink:href="#mfcff7a0f86" y="75.034905"/>
     <use style="fill-opacity:0;stroke:#1f77b4;stroke-width:3;" x="125.489284" xlink:href="#mfcff7a0f86" y="70.17802"/>
     <use style="fill-opacity:0;stroke:#1f77b4;stroke-width:3;" x="126.6657" xlink:href="#mfcff7a0f86" y="56.821587"/>
     <use style="fill-opacity:0;stroke:#1f77b4;stroke-width:3;" x="127.932609" xlink:href="#mfcff7a0f86" y="72.606462"/>
     <use style="fill-opacity:0;stroke:#1f77b4;stroke-width:3;" x="129.109025" xlink:href="#mfcff7a0f86" y="79.89179"/>
     <use style="fill-opacity:0;stroke:#1f77b4;stroke-width:3;" x="130.285441" xlink:href="#mfcff7a0f86" y="69.77328"/>
     <use style="fill-opacity:0;stroke:#1f77b4;stroke-width:3;" x="131.55235" xlink:href="#mfcff7a0f86" y="69.368539"/>
     <use style="fill-opacity:0;stroke:#1f77b4;stroke-width:3;" x="132.728766" xlink:href="#mfcff7a0f86" y="79.89179"/>
     <use style="fill-opacity:0;stroke:#1f77b4;stroke-width:3;" x="133.905182" xlink:href="#mfcff7a0f86" y="61.678472"/>
     <use style="fill-opacity:0;stroke:#1f77b4;stroke-width:3;" x="135.172092" xlink:href="#mfcff7a0f86" y="70.987501"/>
     <use style="fill-opacity:0;stroke:#1f77b4;stroke-width:3;" x="136.348508" xlink:href="#mfcff7a0f86" y="79.082309"/>
     <use style="fill-opacity:0;stroke:#1f77b4;stroke-width:3;" x="137.524924" xlink:href="#mfcff7a0f86" y="70.987501"/>
     <use style="fill-opacity:0;stroke:#1f77b4;stroke-width:3;" x="138.791833" xlink:href="#mfcff7a0f86" y="57.226327"/>
     <use style="fill-opacity:0;stroke:#1f77b4;stroke-width:3;" x="139.968249" xlink:href="#mfcff7a0f86" y="77.868088"/>
     <use style="fill-opacity:0;stroke:#1f77b4;stroke-width:3;" x="141.144665" xlink:href="#mfcff7a0f86" y="80.29653"/>
     <use style="fill-opacity:0;stroke:#1f77b4;stroke-width:3;" x="142.411575" xlink:href="#mfcff7a0f86" y="56.821587"/>
     <use style="fill-opacity:0;stroke:#1f77b4;stroke-width:3;" x="143.587991" xlink:href="#mfcff7a0f86" y="62.892693"/>
     <use style="fill-opacity:0;stroke:#1f77b4;stroke-width:3;" x="144.764407" xlink:href="#mfcff7a0f86" y="68.154318"/>
     <use style="fill-opacity:0;stroke:#1f77b4;stroke-width:3;" x="146.031316" xlink:href="#mfcff7a0f86" y="77.058607"/>
     <use style="fill-opacity:0;stroke:#1f77b4;stroke-width:3;" x="147.207732" xlink:href="#mfcff7a0f86" y="60.46425"/>
     <use style="fill-opacity:0;stroke:#1f77b4;stroke-width:3;" x="148.384148" xlink:href="#mfcff7a0f86" y="81.510751"/>
     <use style="fill-opacity:0;stroke:#1f77b4;stroke-width:3;" x="149.651058" xlink:href="#mfcff7a0f86" y="66.130616"/>
     <use style="fill-opacity:0;stroke:#1f77b4;stroke-width:3;" x="150.827474" xlink:href="#mfcff7a0f86" y="58.845289"/>
     <use style="fill-opacity:0;stroke:#1f77b4;stroke-width:3;" x="152.00389" xlink:href="#mfcff7a0f86" y="69.368539"/>
     <use style="fill-opacity:0;stroke:#1f77b4;stroke-width:3;" x="153.270799" xlink:href="#mfcff7a0f86" y="79.082309"/>
     <use style="fill-opacity:0;stroke:#1f77b4;stroke-width:3;" x="154.447215" xlink:href="#mfcff7a0f86" y="75.034905"/>
     <use style="fill-opacity:0;stroke:#1f77b4;stroke-width:3;" x="155.623631" xlink:href="#mfcff7a0f86" y="78.272828"/>
     <use style="fill-opacity:0;stroke:#1f77b4;stroke-width:3;" x="156.89054" xlink:href="#mfcff7a0f86" y="81.915492"/>
     <use style="fill-opacity:0;stroke:#1f77b4;stroke-width:3;" x="158.066956" xlink:href="#mfcff7a0f86" y="74.630164"/>
     <use style="fill-opacity:0;stroke:#1f77b4;stroke-width:3;" x="159.243372" xlink:href="#mfcff7a0f86" y="74.225424"/>
     <use style="fill-opacity:0;stroke:#1f77b4;stroke-width:3;" x="160.510282" xlink:href="#mfcff7a0f86" y="77.463347"/>
     <use style="fill-opacity:0;stroke:#1f77b4;stroke-width:3;" x="161.686698" xlink:href="#mfcff7a0f86" y="77.058607"/>
     <use style="fill-opacity:0;stroke:#1f77b4;stroke-width:3;" x="162.863114" xlink:href="#mfcff7a0f86" y="76.249126"/>
     <use style="fill-opacity:0;stroke:#1f77b4;stroke-width:3;" x="164.130023" xlink:href="#mfcff7a0f86" y="73.820684"/>
     <use style="fill-opacity:0;stroke:#1f77b4;stroke-width:3;" x="165.306439" xlink:href="#mfcff7a0f86" y="71.796982"/>
     <use style="fill-opacity:0;stroke:#1f77b4;stroke-width:3;" x="166.482855" xlink:href="#mfcff7a0f86" y="75.034905"/>
     <use style="fill-opacity:0;stroke:#1f77b4;stroke-width:3;" x="167.749765" xlink:href="#mfcff7a0f86" y="76.249126"/>
     <use style="fill-opacity:0;stroke:#1f77b4;stroke-width:3;" x="168.926181" xlink:href="#mfcff7a0f86" y="75.034905"/>
     <use style="fill-opacity:0;stroke:#1f77b4;stroke-width:3;" x="170.102597" xlink:href="#mfcff7a0f86" y="58.440548"/>
     <use style="fill-opacity:0;stroke:#1f77b4;stroke-width:3;" x="171.369506" xlink:href="#mfcff7a0f86" y="69.77328"/>
     <use style="fill-opacity:0;stroke:#1f77b4;stroke-width:3;" x="172.545922" xlink:href="#mfcff7a0f86" y="81.915492"/>
     <use style="fill-opacity:0;stroke:#1f77b4;stroke-width:3;" x="173.722338" xlink:href="#mfcff7a0f86" y="74.630164"/>
     <use style="fill-opacity:0;stroke:#1f77b4;stroke-width:3;" x="174.989248" xlink:href="#mfcff7a0f86" y="76.653866"/>
     <use style="fill-opacity:0;stroke:#1f77b4;stroke-width:3;" x="176.165664" xlink:href="#mfcff7a0f86" y="66.940097"/>
     <use style="fill-opacity:0;stroke:#1f77b4;stroke-width:3;" x="177.34208" xlink:href="#mfcff7a0f86" y="53.583664"/>
     <use style="fill-opacity:0;stroke:#1f77b4;stroke-width:3;" x="178.608989" xlink:href="#mfcff7a0f86" y="65.725876"/>
     <use style="fill-opacity:0;stroke:#1f77b4;stroke-width:3;" x="179.785405" xlink:href="#mfcff7a0f86" y="70.17802"/>
     <use style="fill-opacity:0;stroke:#1f77b4;stroke-width:3;" x="180.961821" xlink:href="#mfcff7a0f86" y="66.940097"/>
     <use style="fill-opacity:0;stroke:#1f77b4;stroke-width:3;" x="182.228731" xlink:href="#mfcff7a0f86" y="64.916395"/>
     <use style="fill-opacity:0;stroke:#1f77b4;stroke-width:3;" x="183.405146" xlink:href="#mfcff7a0f86" y="82.724972"/>
     <use style="fill-opacity:0;stroke:#1f77b4;stroke-width:3;" x="184.581562" xlink:href="#mfcff7a0f86" y="76.249126"/>
     <use style="fill-opacity:0;stroke:#1f77b4;stroke-width:3;" x="185.848472" xlink:href="#mfcff7a0f86" y="80.70127"/>
     <use style="fill-opacity:0;stroke:#1f77b4;stroke-width:3;" x="187.024888" xlink:href="#mfcff7a0f86" y="81.915492"/>
     <use style="fill-opacity:0;stroke:#1f77b4;stroke-width:3;" x="188.201304" xlink:href="#mfcff7a0f86" y="69.368539"/>
     <use style="fill-opacity:0;stroke:#1f77b4;stroke-width:3;" x="189.468213" xlink:href="#mfcff7a0f86" y="87.177117"/>
     <use style="fill-opacity:0;stroke:#1f77b4;stroke-width:3;" x="190.644629" xlink:href="#mfcff7a0f86" y="62.487952"/>
     <use style="fill-opacity:0;stroke:#1f77b4;stroke-width:3;" x="191.821045" xlink:href="#mfcff7a0f86" y="81.915492"/>
     <use style="fill-opacity:0;stroke:#1f77b4;stroke-width:3;" x="193.087955" xlink:href="#mfcff7a0f86" y="71.796982"/>
     <use style="fill-opacity:0;stroke:#1f77b4;stroke-width:3;" x="194.264371" xlink:href="#mfcff7a0f86" y="71.392241"/>
     <use style="fill-opacity:0;stroke:#1f77b4;stroke-width:3;" x="195.440787" xlink:href="#mfcff7a0f86" y="63.297433"/>
     <use style="fill-opacity:0;stroke:#1f77b4;stroke-width:3;" x="196.707696" xlink:href="#mfcff7a0f86" y="90.0103"/>
     <use style="fill-opacity:0;stroke:#1f77b4;stroke-width:3;" x="197.884112" xlink:href="#mfcff7a0f86" y="58.440548"/>
     <use style="fill-opacity:0;stroke:#1f77b4;stroke-width:3;" x="199.060528" xlink:href="#mfcff7a0f86" y="67.344837"/>
     <use style="fill-opacity:0;stroke:#1f77b4;stroke-width:3;" x="200.327438" xlink:href="#mfcff7a0f86" y="70.58276"/>
     <use style="fill-opacity:0;stroke:#1f77b4;stroke-width:3;" x="201.503854" xlink:href="#mfcff7a0f86" y="68.154318"/>
     <use style="fill-opacity:0;stroke:#1f77b4;stroke-width:3;" x="202.68027" xlink:href="#mfcff7a0f86" y="75.034905"/>
     <use style="fill-opacity:0;stroke:#1f77b4;stroke-width:3;" x="203.947179" xlink:href="#mfcff7a0f86" y="77.463347"/>
     <use style="fill-opacity:0;stroke:#1f77b4;stroke-width:3;" x="205.123595" xlink:href="#mfcff7a0f86" y="79.89179"/>
     <use style="fill-opacity:0;stroke:#1f77b4;stroke-width:3;" x="206.300011" xlink:href="#mfcff7a0f86" y="70.987501"/>
     <use style="fill-opacity:0;stroke:#1f77b4;stroke-width:3;" x="207.566921" xlink:href="#mfcff7a0f86" y="77.058607"/>
     <use style="fill-opacity:0;stroke:#1f77b4;stroke-width:3;" x="208.743336" xlink:href="#mfcff7a0f86" y="68.154318"/>
     <use style="fill-opacity:0;stroke:#1f77b4;stroke-width:3;" x="209.919752" xlink:href="#mfcff7a0f86" y="74.225424"/>
     <use style="fill-opacity:0;stroke:#1f77b4;stroke-width:3;" x="211.186662" xlink:href="#mfcff7a0f86" y="81.510751"/>
     <use style="fill-opacity:0;stroke:#1f77b4;stroke-width:3;" x="212.363078" xlink:href="#mfcff7a0f86" y="68.154318"/>
     <use style="fill-opacity:0;stroke:#1f77b4;stroke-width:3;" x="213.539494" xlink:href="#mfcff7a0f86" y="73.415943"/>
     <use style="fill-opacity:0;stroke:#1f77b4;stroke-width:3;" x="214.806403" xlink:href="#mfcff7a0f86" y="57.631068"/>
     <use style="fill-opacity:0;stroke:#1f77b4;stroke-width:3;" x="215.982819" xlink:href="#mfcff7a0f86" y="60.46425"/>
     <use style="fill-opacity:0;stroke:#1f77b4;stroke-width:3;" x="217.159235" xlink:href="#mfcff7a0f86" y="73.011203"/>
     <use style="fill-opacity:0;stroke:#1f77b4;stroke-width:3;" x="218.426145" xlink:href="#mfcff7a0f86" y="58.845289"/>
     <use style="fill-opacity:0;stroke:#1f77b4;stroke-width:3;" x="219.602561" xlink:href="#mfcff7a0f86" y="67.749578"/>
     <use style="fill-opacity:0;stroke:#1f77b4;stroke-width:3;" x="220.778977" xlink:href="#mfcff7a0f86" y="81.106011"/>
     <use style="fill-opacity:0;stroke:#1f77b4;stroke-width:3;" x="222.045886" xlink:href="#mfcff7a0f86" y="76.653866"/>
     <use style="fill-opacity:0;stroke:#1f77b4;stroke-width:3;" x="223.222302" xlink:href="#mfcff7a0f86" y="82.320232"/>
     <use style="fill-opacity:0;stroke:#1f77b4;stroke-width:3;" x="224.398718" xlink:href="#mfcff7a0f86" y="83.534453"/>
     <use style="fill-opacity:0;stroke:#1f77b4;stroke-width:3;" x="225.665628" xlink:href="#mfcff7a0f86" y="82.320232"/>
     <use style="fill-opacity:0;stroke:#1f77b4;stroke-width:3;" x="226.842044" xlink:href="#mfcff7a0f86" y="96.081406"/>
     <use style="fill-opacity:0;stroke:#1f77b4;stroke-width:3;" x="228.01846" xlink:href="#mfcff7a0f86" y="79.082309"/>
     <use style="fill-opacity:0;stroke:#1f77b4;stroke-width:3;" x="229.285369" xlink:href="#mfcff7a0f86" y="79.082309"/>
     <use style="fill-opacity:0;stroke:#1f77b4;stroke-width:3;" x="230.461785" xlink:href="#mfcff7a0f86" y="64.106914"/>
     <use style="fill-opacity:0;stroke:#1f77b4;stroke-width:3;" x="231.638201" xlink:href="#mfcff7a0f86" y="72.201722"/>
     <use style="fill-opacity:0;stroke:#1f77b4;stroke-width:3;" x="232.905111" xlink:href="#mfcff7a0f86" y="79.487049"/>
     <use style="fill-opacity:0;stroke:#1f77b4;stroke-width:3;" x="234.081527" xlink:href="#mfcff7a0f86" y="55.607366"/>
     <use style="fill-opacity:0;stroke:#1f77b4;stroke-width:3;" x="235.257942" xlink:href="#mfcff7a0f86" y="83.939194"/>
     <use style="fill-opacity:0;stroke:#1f77b4;stroke-width:3;" x="236.524852" xlink:href="#mfcff7a0f86" y="76.249126"/>
     <use style="fill-opacity:0;stroke:#1f77b4;stroke-width:3;" x="237.701268" xlink:href="#mfcff7a0f86" y="84.748674"/>
     <use style="fill-opacity:0;stroke:#1f77b4;stroke-width:3;" x="238.877684" xlink:href="#mfcff7a0f86" y="77.058607"/>
     <use style="fill-opacity:0;stroke:#1f77b4;stroke-width:3;" x="240.144593" xlink:href="#mfcff7a0f86" y="84.343934"/>
     <use style="fill-opacity:0;stroke:#1f77b4;stroke-width:3;" x="241.321009" xlink:href="#mfcff7a0f86" y="103.771473"/>
     <use style="fill-opacity:0;stroke:#1f77b4;stroke-width:3;" x="242.497425" xlink:href="#mfcff7a0f86" y="118.342128"/>
     <use style="fill-opacity:0;stroke:#1f77b4;stroke-width:3;" x="243.764335" xlink:href="#mfcff7a0f86" y="142.221811"/>
     <use style="fill-opacity:0;stroke:#1f77b4;stroke-width:3;" x="244.940751" xlink:href="#mfcff7a0f86" y="173.386822"/>
     <use style="fill-opacity:0;stroke:#1f77b4;stroke-width:3;" x="246.117167" xlink:href="#mfcff7a0f86" y="176.220005"/>
     <use style="fill-opacity:0;stroke:#1f77b4;stroke-width:3;" x="247.384076" xlink:href="#mfcff7a0f86" y="188.362217"/>
     <use style="fill-opacity:0;stroke:#1f77b4;stroke-width:3;" x="248.560492" xlink:href="#mfcff7a0f86" y="219.931968"/>
     <use style="fill-opacity:0;stroke:#1f77b4;stroke-width:3;" x="249.736908" xlink:href="#mfcff7a0f86" y="227.622036"/>
     <use style="fill-opacity:0;stroke:#1f77b4;stroke-width:3;" x="251.003818" xlink:href="#mfcff7a0f86" y="235.312104"/>
     <use style="fill-opacity:0;stroke:#1f77b4;stroke-width:3;" x="252.180234" xlink:href="#mfcff7a0f86" y="233.693142"/>
     <use style="fill-opacity:0;stroke:#1f77b4;stroke-width:3;" x="253.35665" xlink:href="#mfcff7a0f86" y="216.289305"/>
     <use style="fill-opacity:0;stroke:#1f77b4;stroke-width:3;" x="254.623559" xlink:href="#mfcff7a0f86" y="203.337612"/>
     <use style="fill-opacity:0;stroke:#1f77b4;stroke-width:3;" x="255.799975" xlink:href="#mfcff7a0f86" y="141.817071"/>
     <use style="fill-opacity:0;stroke:#1f77b4;stroke-width:3;" x="256.976391" xlink:href="#mfcff7a0f86" y="140.60285"/>
     <use style="fill-opacity:0;stroke:#1f77b4;stroke-width:3;" x="258.243301" xlink:href="#mfcff7a0f86" y="137.769667"/>
     <use style="fill-opacity:0;stroke:#1f77b4;stroke-width:3;" x="259.419717" xlink:href="#mfcff7a0f86" y="100.12881"/>
     <use style="fill-opacity:0;stroke:#1f77b4;stroke-width:3;" x="260.596133" xlink:href="#mfcff7a0f86" y="100.53355"/>
     <use style="fill-opacity:0;stroke:#1f77b4;stroke-width:3;" x="261.863042" xlink:href="#mfcff7a0f86" y="90.41504"/>
     <use style="fill-opacity:0;stroke:#1f77b4;stroke-width:3;" x="263.039458" xlink:href="#mfcff7a0f86" y="73.820684"/>
     <use style="fill-opacity:0;stroke:#1f77b4;stroke-width:3;" x="264.215874" xlink:href="#mfcff7a0f86" y="111.056801"/>
     <use style="fill-opacity:0;stroke:#1f77b4;stroke-width:3;" x="265.482783" xlink:href="#mfcff7a0f86" y="77.058607"/>
     <use style="fill-opacity:0;stroke:#1f77b4;stroke-width:3;" x="266.659199" xlink:href="#mfcff7a0f86" y="93.248223"/>
     <use style="fill-opacity:0;stroke:#1f77b4;stroke-width:3;" x="267.835615" xlink:href="#mfcff7a0f86" y="64.106914"/>
     <use style="fill-opacity:0;stroke:#1f77b4;stroke-width:3;" x="269.102525" xlink:href="#mfcff7a0f86" y="76.653866"/>
     <use style="fill-opacity:0;stroke:#1f77b4;stroke-width:3;" x="270.278941" xlink:href="#mfcff7a0f86" y="90.0103"/>
     <use style="fill-opacity:0;stroke:#1f77b4;stroke-width:3;" x="271.455357" xlink:href="#mfcff7a0f86" y="68.154318"/>
     <use style="fill-opacity:0;stroke:#1f77b4;stroke-width:3;" x="272.722266" xlink:href="#mfcff7a0f86" y="49.941"/>
     <use style="fill-opacity:0;stroke:#1f77b4;stroke-width:3;" x="273.898682" xlink:href="#mfcff7a0f86" y="74.225424"/>
     <use style="fill-opacity:0;stroke:#1f77b4;stroke-width:3;" x="275.075098" xlink:href="#mfcff7a0f86" y="62.892693"/>
     <use style="fill-opacity:0;stroke:#1f77b4;stroke-width:3;" x="276.342008" xlink:href="#mfcff7a0f86" y="83.939194"/>
     <use style="fill-opacity:0;stroke:#1f77b4;stroke-width:3;" x="277.518424" xlink:href="#mfcff7a0f86" y="62.892693"/>
     <use style="fill-opacity:0;stroke:#1f77b4;stroke-width:3;" x="278.69484" xlink:href="#mfcff7a0f86" y="77.058607"/>
     <use style="fill-opacity:0;stroke:#1f77b4;stroke-width:3;" x="279.961749" xlink:href="#mfcff7a0f86" y="64.106914"/>
     <use style="fill-opacity:0;stroke:#1f77b4;stroke-width:3;" x="281.138165" xlink:href="#mfcff7a0f86" y="77.463347"/>
     <use style="fill-opacity:0;stroke:#1f77b4;stroke-width:3;" x="282.314581" xlink:href="#mfcff7a0f86" y="77.058607"/>
     <use style="fill-opacity:0;stroke:#1f77b4;stroke-width:3;" x="283.581491" xlink:href="#mfcff7a0f86" y="59.250029"/>
     <use style="fill-opacity:0;stroke:#1f77b4;stroke-width:3;" x="284.757907" xlink:href="#mfcff7a0f86" y="73.011203"/>
     <use style="fill-opacity:0;stroke:#1f77b4;stroke-width:3;" x="285.934323" xlink:href="#mfcff7a0f86" y="85.153415"/>
     <use style="fill-opacity:0;stroke:#1f77b4;stroke-width:3;" x="287.201232" xlink:href="#mfcff7a0f86" y="78.677568"/>
     <use style="fill-opacity:0;stroke:#1f77b4;stroke-width:3;" x="288.377648" xlink:href="#mfcff7a0f86" y="78.272828"/>
     <use style="fill-opacity:0;stroke:#1f77b4;stroke-width:3;" x="289.554064" xlink:href="#mfcff7a0f86" y="68.963799"/>
     <use style="fill-opacity:0;stroke:#1f77b4;stroke-width:3;" x="290.820973" xlink:href="#mfcff7a0f86" y="69.77328"/>
     <use style="fill-opacity:0;stroke:#1f77b4;stroke-width:3;" x="291.997389" xlink:href="#mfcff7a0f86" y="74.225424"/>
     <use style="fill-opacity:0;stroke:#1f77b4;stroke-width:3;" x="293.173805" xlink:href="#mfcff7a0f86" y="64.106914"/>
     <use style="fill-opacity:0;stroke:#1f77b4;stroke-width:3;" x="294.440715" xlink:href="#mfcff7a0f86" y="68.559058"/>
     <use style="fill-opacity:0;stroke:#1f77b4;stroke-width:3;" x="295.617131" xlink:href="#mfcff7a0f86" y="77.463347"/>
     <use style="fill-opacity:0;stroke:#1f77b4;stroke-width:3;" x="296.793547" xlink:href="#mfcff7a0f86" y="88.796078"/>
     <use style="fill-opacity:0;stroke:#1f77b4;stroke-width:3;" x="298.060456" xlink:href="#mfcff7a0f86" y="74.225424"/>
     <use style="fill-opacity:0;stroke:#1f77b4;stroke-width:3;" x="299.236872" xlink:href="#mfcff7a0f86" y="82.724972"/>
     <use style="fill-opacity:0;stroke:#1f77b4;stroke-width:3;" x="300.413288" xlink:href="#mfcff7a0f86" y="79.082309"/>
     <use style="fill-opacity:0;stroke:#1f77b4;stroke-width:3;" x="301.680198" xlink:href="#mfcff7a0f86" y="59.250029"/>
     <use style="fill-opacity:0;stroke:#1f77b4;stroke-width:3;" x="302.856614" xlink:href="#mfcff7a0f86" y="70.58276"/>
     <use style="fill-opacity:0;stroke:#1f77b4;stroke-width:3;" x="304.03303" xlink:href="#mfcff7a0f86" y="68.154318"/>
     <use style="fill-opacity:0;stroke:#1f77b4;stroke-width:3;" x="305.299939" xlink:href="#mfcff7a0f86" y="70.987501"/>
     <use style="fill-opacity:0;stroke:#1f77b4;stroke-width:3;" x="306.476355" xlink:href="#mfcff7a0f86" y="76.653866"/>
     <use style="fill-opacity:0;stroke:#1f77b4;stroke-width:3;" x="307.652771" xlink:href="#mfcff7a0f86" y="70.987501"/>
     <use style="fill-opacity:0;stroke:#1f77b4;stroke-width:3;" x="308.919681" xlink:href="#mfcff7a0f86" y="78.677568"/>
     <use style="fill-opacity:0;stroke:#1f77b4;stroke-width:3;" x="310.096097" xlink:href="#mfcff7a0f86" y="91.224521"/>
     <use style="fill-opacity:0;stroke:#1f77b4;stroke-width:3;" x="311.272513" xlink:href="#mfcff7a0f86" y="85.558155"/>
     <use style="fill-opacity:0;stroke:#1f77b4;stroke-width:3;" x="312.539422" xlink:href="#mfcff7a0f86" y="66.940097"/>
     <use style="fill-opacity:0;stroke:#1f77b4;stroke-width:3;" x="313.715838" xlink:href="#mfcff7a0f86" y="72.201722"/>
     <use style="fill-opacity:0;stroke:#1f77b4;stroke-width:3;" x="314.892254" xlink:href="#mfcff7a0f86" y="53.583664"/>
     <use style="fill-opacity:0;stroke:#1f77b4;stroke-width:3;" x="316.159164" xlink:href="#mfcff7a0f86" y="70.17802"/>
     <use style="fill-opacity:0;stroke:#1f77b4;stroke-width:3;" x="317.335579" xlink:href="#mfcff7a0f86" y="77.868088"/>
     <use style="fill-opacity:0;stroke:#1f77b4;stroke-width:3;" x="318.511995" xlink:href="#mfcff7a0f86" y="68.154318"/>
     <use style="fill-opacity:0;stroke:#1f77b4;stroke-width:3;" x="319.778905" xlink:href="#mfcff7a0f86" y="73.011203"/>
     <use style="fill-opacity:0;stroke:#1f77b4;stroke-width:3;" x="320.955321" xlink:href="#mfcff7a0f86" y="61.273731"/>
     <use style="fill-opacity:0;stroke:#1f77b4;stroke-width:3;" x="322.131737" xlink:href="#mfcff7a0f86" y="55.607366"/>
     <use style="fill-opacity:0;stroke:#1f77b4;stroke-width:3;" x="323.398646" xlink:href="#mfcff7a0f86" y="66.535356"/>
     <use style="fill-opacity:0;stroke:#1f77b4;stroke-width:3;" x="324.575062" xlink:href="#mfcff7a0f86" y="75.439645"/>
     <use style="fill-opacity:0;stroke:#1f77b4;stroke-width:3;" x="325.751478" xlink:href="#mfcff7a0f86" y="68.963799"/>
     <use style="fill-opacity:0;stroke:#1f77b4;stroke-width:3;" x="327.018388" xlink:href="#mfcff7a0f86" y="59.250029"/>
     <use style="fill-opacity:0;stroke:#1f77b4;stroke-width:3;" x="328.194804" xlink:href="#mfcff7a0f86" y="70.17802"/>
     <use style="fill-opacity:0;stroke:#1f77b4;stroke-width:3;" x="329.37122" xlink:href="#mfcff7a0f86" y="73.820684"/>
     <use style="fill-opacity:0;stroke:#1f77b4;stroke-width:3;" x="330.638129" xlink:href="#mfcff7a0f86" y="70.987501"/>
     <use style="fill-opacity:0;stroke:#1f77b4;stroke-width:3;" x="331.814545" xlink:href="#mfcff7a0f86" y="87.986598"/>
     <use style="fill-opacity:0;stroke:#1f77b4;stroke-width:3;" x="332.990961" xlink:href="#mfcff7a0f86" y="98.105108"/>
     <use style="fill-opacity:0;stroke:#1f77b4;stroke-width:3;" x="334.257871" xlink:href="#mfcff7a0f86" y="127.246417"/>
     <use style="fill-opacity:0;stroke:#1f77b4;stroke-width:3;" x="335.434287" xlink:href="#mfcff7a0f86" y="119.961089"/>
     <use style="fill-opacity:0;stroke:#1f77b4;stroke-width:3;" x="336.610703" xlink:href="#mfcff7a0f86" y="181.07689"/>
     <use style="fill-opacity:0;stroke:#1f77b4;stroke-width:3;" x="337.877612" xlink:href="#mfcff7a0f86" y="194.838064"/>
     <use style="fill-opacity:0;stroke:#1f77b4;stroke-width:3;" x="339.054028" xlink:href="#mfcff7a0f86" y="220.741449"/>
     <use style="fill-opacity:0;stroke:#1f77b4;stroke-width:3;" x="340.230444" xlink:href="#mfcff7a0f86" y="260.001268"/>
     <use style="fill-opacity:0;stroke:#1f77b4;stroke-width:3;" x="341.497354" xlink:href="#mfcff7a0f86" y="259.596528"/>
     <use style="fill-opacity:0;stroke:#1f77b4;stroke-width:3;" x="342.673769" xlink:href="#mfcff7a0f86" y="267.691336"/>
     <use style="fill-opacity:0;stroke:#1f77b4;stroke-width:3;" x="343.850185" xlink:href="#mfcff7a0f86" y="249.073277"/>
     <use style="fill-opacity:0;stroke:#1f77b4;stroke-width:3;" x="345.117095" xlink:href="#mfcff7a0f86" y="266.881855"/>
     <use style="fill-opacity:0;stroke:#1f77b4;stroke-width:3;" x="346.293511" xlink:href="#mfcff7a0f86" y="247.454316"/>
     <use style="fill-opacity:0;stroke:#1f77b4;stroke-width:3;" x="347.469927" xlink:href="#mfcff7a0f86" y="233.693142"/>
     <use style="fill-opacity:0;stroke:#1f77b4;stroke-width:3;" x="348.736836" xlink:href="#mfcff7a0f86" y="207.789756"/>
     <use style="fill-opacity:0;stroke:#1f77b4;stroke-width:3;" x="349.913252" xlink:href="#mfcff7a0f86" y="161.649351"/>
     <use style="fill-opacity:0;stroke:#1f77b4;stroke-width:3;" x="351.089668" xlink:href="#mfcff7a0f86" y="137.364927"/>
     <use style="fill-opacity:0;stroke:#1f77b4;stroke-width:3;" x="352.356578" xlink:href="#mfcff7a0f86" y="110.65206"/>
     <use style="fill-opacity:0;stroke:#1f77b4;stroke-width:3;" x="353.532994" xlink:href="#mfcff7a0f86" y="80.29653"/>
     <use style="fill-opacity:0;stroke:#1f77b4;stroke-width:3;" x="354.70941" xlink:href="#mfcff7a0f86" y="94.462444"/>
     <use style="fill-opacity:0;stroke:#1f77b4;stroke-width:3;" x="355.976319" xlink:href="#mfcff7a0f86" y="50.750481"/>
     <use style="fill-opacity:0;stroke:#1f77b4;stroke-width:3;" x="357.152735" xlink:href="#mfcff7a0f86" y="79.89179"/>
     <use style="fill-opacity:0;stroke:#1f77b4;stroke-width:3;" x="358.329151" xlink:href="#mfcff7a0f86" y="63.297433"/>
     <use style="fill-opacity:0;stroke:#1f77b4;stroke-width:3;" x="359.596061" xlink:href="#mfcff7a0f86" y="79.487049"/>
     <use style="fill-opacity:0;stroke:#1f77b4;stroke-width:3;" x="360.772477" xlink:href="#mfcff7a0f86" y="66.535356"/>
     <use style="fill-opacity:0;stroke:#1f77b4;stroke-width:3;" x="361.948893" xlink:href="#mfcff7a0f86" y="71.392241"/>
     <use style="fill-opacity:0;stroke:#1f77b4;stroke-width:3;" x="363.215802" xlink:href="#mfcff7a0f86" y="90.0103"/>
     <use style="fill-opacity:0;stroke:#1f77b4;stroke-width:3;" x="364.392218" xlink:href="#mfcff7a0f86" y="59.250029"/>
     <use style="fill-opacity:0;stroke:#1f77b4;stroke-width:3;" x="365.568634" xlink:href="#mfcff7a0f86" y="77.463347"/>
     <use style="fill-opacity:0;stroke:#1f77b4;stroke-width:3;" x="366.835544" xlink:href="#mfcff7a0f86" y="64.106914"/>
     <use style="fill-opacity:0;stroke:#1f77b4;stroke-width:3;" x="368.01196" xlink:href="#mfcff7a0f86" y="73.415943"/>
     <use style="fill-opacity:0;stroke:#1f77b4;stroke-width:3;" x="369.188375" xlink:href="#mfcff7a0f86" y="66.535356"/>
     <use style="fill-opacity:0;stroke:#1f77b4;stroke-width:3;" x="370.455285" xlink:href="#mfcff7a0f86" y="65.725876"/>
     <use style="fill-opacity:0;stroke:#1f77b4;stroke-width:3;" x="371.631701" xlink:href="#mfcff7a0f86" y="65.725876"/>
     <use style="fill-opacity:0;stroke:#1f77b4;stroke-width:3;" x="372.808117" xlink:href="#mfcff7a0f86" y="55.202625"/>
     <use style="fill-opacity:0;stroke:#1f77b4;stroke-width:3;" x="374.075026" xlink:href="#mfcff7a0f86" y="61.273731"/>
     <use style="fill-opacity:0;stroke:#1f77b4;stroke-width:3;" x="375.251442" xlink:href="#mfcff7a0f86" y="62.892693"/>
     <use style="fill-opacity:0;stroke:#1f77b4;stroke-width:3;" x="376.427858" xlink:href="#mfcff7a0f86" y="65.725876"/>
     <use style="fill-opacity:0;stroke:#1f77b4;stroke-width:3;" x="377.694768" xlink:href="#mfcff7a0f86" y="78.272828"/>
     <use style="fill-opacity:0;stroke:#1f77b4;stroke-width:3;" x="378.871184" xlink:href="#mfcff7a0f86" y="72.201722"/>
     <use style="fill-opacity:0;stroke:#1f77b4;stroke-width:3;" x="380.0476" xlink:href="#mfcff7a0f86" y="65.725876"/>
     <use style="fill-opacity:0;stroke:#1f77b4;stroke-width:3;" x="381.314509" xlink:href="#mfcff7a0f86" y="73.415943"/>
     <use style="fill-opacity:0;stroke:#1f77b4;stroke-width:3;" x="382.490925" xlink:href="#mfcff7a0f86" y="64.916395"/>
     <use style="fill-opacity:0;stroke:#1f77b4;stroke-width:3;" x="383.667341" xlink:href="#mfcff7a0f86" y="84.343934"/>
     <use style="fill-opacity:0;stroke:#1f77b4;stroke-width:3;" x="384.934251" xlink:href="#mfcff7a0f86" y="84.343934"/>
     <use style="fill-opacity:0;stroke:#1f77b4;stroke-width:3;" x="386.110667" xlink:href="#mfcff7a0f86" y="72.201722"/>
     <use style="fill-opacity:0;stroke:#1f77b4;stroke-width:3;" x="387.287083" xlink:href="#mfcff7a0f86" y="75.844386"/>
     <use style="fill-opacity:0;stroke:#1f77b4;stroke-width:3;" x="388.553992" xlink:href="#mfcff7a0f86" y="66.535356"/>
     <use style="fill-opacity:0;stroke:#1f77b4;stroke-width:3;" x="389.730408" xlink:href="#mfcff7a0f86" y="77.868088"/>
     <use style="fill-opacity:0;stroke:#1f77b4;stroke-width:3;" x="390.906824" xlink:href="#mfcff7a0f86" y="73.011203"/>
     <use style="fill-opacity:0;stroke:#1f77b4;stroke-width:3;" x="392.173734" xlink:href="#mfcff7a0f86" y="81.510751"/>
     <use style="fill-opacity:0;stroke:#1f77b4;stroke-width:3;" x="393.35015" xlink:href="#mfcff7a0f86" y="83.939194"/>
     <use style="fill-opacity:0;stroke:#1f77b4;stroke-width:3;" x="394.526566" xlink:href="#mfcff7a0f86" y="90.0103"/>
     <use style="fill-opacity:0;stroke:#1f77b4;stroke-width:3;" x="395.793475" xlink:href="#mfcff7a0f86" y="79.89179"/>
     <use style="fill-opacity:0;stroke:#1f77b4;stroke-width:3;" x="396.969891" xlink:href="#mfcff7a0f86" y="81.915492"/>
     <use style="fill-opacity:0;stroke:#1f77b4;stroke-width:3;" x="398.146307" xlink:href="#mfcff7a0f86" y="62.892693"/>
     <use style="fill-opacity:0;stroke:#1f77b4;stroke-width:3;" x="399.413216" xlink:href="#mfcff7a0f86" y="75.844386"/>
     <use style="fill-opacity:0;stroke:#1f77b4;stroke-width:3;" x="400.589632" xlink:href="#mfcff7a0f86" y="66.940097"/>
     <use style="fill-opacity:0;stroke:#1f77b4;stroke-width:3;" x="401.766048" xlink:href="#mfcff7a0f86" y="71.392241"/>
     <use style="fill-opacity:0;stroke:#1f77b4;stroke-width:3;" x="403.032958" xlink:href="#mfcff7a0f86" y="75.844386"/>
     <use style="fill-opacity:0;stroke:#1f77b4;stroke-width:3;" x="404.209374" xlink:href="#mfcff7a0f86" y="66.940097"/>
     <use style="fill-opacity:0;stroke:#1f77b4;stroke-width:3;" x="405.38579" xlink:href="#mfcff7a0f86" y="64.916395"/>
     <use style="fill-opacity:0;stroke:#1f77b4;stroke-width:3;" x="406.652699" xlink:href="#mfcff7a0f86" y="76.249126"/>
     <use style="fill-opacity:0;stroke:#1f77b4;stroke-width:3;" x="407.829115" xlink:href="#mfcff7a0f86" y="81.510751"/>
     <use style="fill-opacity:0;stroke:#1f77b4;stroke-width:3;" x="409.005531" xlink:href="#mfcff7a0f86" y="66.130616"/>
     <use style="fill-opacity:0;stroke:#1f77b4;stroke-width:3;" x="410.272441" xlink:href="#mfcff7a0f86" y="75.034905"/>
     <use style="fill-opacity:0;stroke:#1f77b4;stroke-width:3;" x="411.448857" xlink:href="#mfcff7a0f86" y="75.034905"/>
     <use style="fill-opacity:0;stroke:#1f77b4;stroke-width:3;" x="412.625273" xlink:href="#mfcff7a0f86" y="59.65477"/>
     <use style="fill-opacity:0;stroke:#1f77b4;stroke-width:3;" x="413.892182" xlink:href="#mfcff7a0f86" y="68.154318"/>
     <use style="fill-opacity:0;stroke:#1f77b4;stroke-width:3;" x="415.068598" xlink:href="#mfcff7a0f86" y="65.725876"/>
     <use style="fill-opacity:0;stroke:#1f77b4;stroke-width:3;" x="416.245014" xlink:href="#mfcff7a0f86" y="91.629261"/>
     <use style="fill-opacity:0;stroke:#1f77b4;stroke-width:3;" x="417.511924" xlink:href="#mfcff7a0f86" y="78.272828"/>
     <use style="fill-opacity:0;stroke:#1f77b4;stroke-width:3;" x="418.68834" xlink:href="#mfcff7a0f86" y="78.272828"/>
     <use style="fill-opacity:0;stroke:#1f77b4;stroke-width:3;" x="419.864756" xlink:href="#mfcff7a0f86" y="74.225424"/>
     <use style="fill-opacity:0;stroke:#1f77b4;stroke-width:3;" x="421.131665" xlink:href="#mfcff7a0f86" y="77.463347"/>
     <use style="fill-opacity:0;stroke:#1f77b4;stroke-width:3;" x="422.308081" xlink:href="#mfcff7a0f86" y="65.321135"/>
     <use style="fill-opacity:0;stroke:#1f77b4;stroke-width:3;" x="423.484497" xlink:href="#mfcff7a0f86" y="76.249126"/>
     <use style="fill-opacity:0;stroke:#1f77b4;stroke-width:3;" x="424.751406" xlink:href="#mfcff7a0f86" y="62.487952"/>
     <use style="fill-opacity:0;stroke:#1f77b4;stroke-width:3;" x="425.927822" xlink:href="#mfcff7a0f86" y="62.487952"/>
     <use style="fill-opacity:0;stroke:#1f77b4;stroke-width:3;" x="427.104238" xlink:href="#mfcff7a0f86" y="65.321135"/>
     <use style="fill-opacity:0;stroke:#1f77b4;stroke-width:3;" x="428.371148" xlink:href="#mfcff7a0f86" y="77.463347"/>
     <use style="fill-opacity:0;stroke:#1f77b4;stroke-width:3;" x="429.547564" xlink:href="#mfcff7a0f86" y="73.011203"/>
     <use style="fill-opacity:0;stroke:#1f77b4;stroke-width:3;" x="430.72398" xlink:href="#mfcff7a0f86" y="66.940097"/>
     <use style="fill-opacity:0;stroke:#1f77b4;stroke-width:3;" x="431.990889" xlink:href="#mfcff7a0f86" y="71.392241"/>
     <use style="fill-opacity:0;stroke:#1f77b4;stroke-width:3;" x="433.167305" xlink:href="#mfcff7a0f86" y="72.606462"/>
     <use style="fill-opacity:0;stroke:#1f77b4;stroke-width:3;" x="434.343721" xlink:href="#mfcff7a0f86" y="77.868088"/>
     <use style="fill-opacity:0;stroke:#1f77b4;stroke-width:3;" x="435.610631" xlink:href="#mfcff7a0f86" y="70.987501"/>
     <use style="fill-opacity:0;stroke:#1f77b4;stroke-width:3;" x="436.787047" xlink:href="#mfcff7a0f86" y="73.820684"/>
     <use style="fill-opacity:0;stroke:#1f77b4;stroke-width:3;" x="437.963463" xlink:href="#mfcff7a0f86" y="67.344837"/>
     <use style="fill-opacity:0;stroke:#1f77b4;stroke-width:3;" x="439.230372" xlink:href="#mfcff7a0f86" y="59.65477"/>
     <use style="fill-opacity:0;stroke:#1f77b4;stroke-width:3;" x="440.406788" xlink:href="#mfcff7a0f86" y="71.796982"/>
     <use style="fill-opacity:0;stroke:#1f77b4;stroke-width:3;" x="441.583204" xlink:href="#mfcff7a0f86" y="88.391338"/>
     <use style="fill-opacity:0;stroke:#1f77b4;stroke-width:3;" x="442.850114" xlink:href="#mfcff7a0f86" y="71.392241"/>
    </g>
   </g>
   <g id="line2d_13">
    <path clip-path="url(#pf554f10fbf)" d="M 82.052386 72.058021 
L 230.461785 72.132715 
L 231.638201 72.236029 
L 232.905111 72.485857 
L 234.081527 72.972956 
L 235.257942 73.915192 
L 236.524852 75.813226 
L 237.701268 78.897955 
L 238.877684 83.883521 
L 240.144593 92.17421 
L 241.321009 103.266286 
L 242.497425 118.014088 
L 243.764335 137.825859 
L 247.384076 203.289245 
L 248.560492 219.755244 
L 249.736908 229.839786 
L 251.003818 231.872661 
L 252.180234 225.257517 
L 253.35665 211.453099 
L 254.623559 190.840316 
L 256.976391 147.219244 
L 258.243301 125.939887 
L 259.419717 109.528966 
L 260.596133 96.792115 
L 261.863042 86.97529 
L 263.039458 80.893843 
L 264.215874 77.025705 
L 265.482783 74.57855 
L 266.659199 73.329634 
L 267.835615 72.666951 
L 269.102525 72.317947 
L 271.455357 72.103576 
L 277.518424 72.058217 
L 322.131737 72.110595 
L 324.575062 72.376935 
L 325.751478 72.760004 
L 327.018388 73.608282 
L 328.194804 75.12531 
L 329.37122 77.82317 
L 330.638129 82.79829 
L 331.814545 90.203479 
L 332.990961 101.180387 
L 334.257871 117.825555 
L 335.434287 138.083752 
L 336.610703 162.542664 
L 340.230444 244.981976 
L 341.497354 265.450001 
L 342.673769 275.481 
L 343.850185 275.325317 
L 345.117095 263.826416 
L 346.293511 244.300992 
L 347.469927 219.022348 
L 349.913252 161.762695 
L 351.089668 137.414465 
L 352.356578 115.936381 
L 353.532994 100.79365 
L 354.70941 89.935117 
L 355.976319 82.182791 
L 357.152735 77.719872 
L 358.329151 75.065742 
L 359.596061 73.495005 
L 360.772477 72.744185 
L 361.948893 72.369272 
L 364.392218 72.109169 
L 370.455285 72.058244 
L 442.850114 72.058021 
L 442.850114 72.058021 
" style="fill:none;stroke:#ff7f0e;stroke-linecap:square;stroke-width:4;"/>
   </g>
   <g id="patch_3">
    <path d="M 64.0125 286.758 
L 64.0125 38.664 
" style="fill:none;stroke:#000000;stroke-linecap:square;stroke-linejoin:miter;stroke-width:0.8;"/>
   </g>
   <g id="patch_4">
    <path d="M 460.89 286.758 
L 460.89 38.664 
" style="fill:none;stroke:#000000;stroke-linecap:square;stroke-linejoin:miter;stroke-width:0.8;"/>
   </g>
   <g id="patch_5">
    <path d="M 64.0125 286.758 
L 460.89 286.758 
" style="fill:none;stroke:#000000;stroke-linecap:square;stroke-linejoin:miter;stroke-width:0.8;"/>
   </g>
   <g id="patch_6">
    <path d="M 64.0125 38.664 
L 460.89 38.664 
" style="fill:none;stroke:#000000;stroke-linecap:square;stroke-linejoin:miter;stroke-width:0.8;"/>
   </g>
  </g>
 </g>
 <defs>
  <clipPath id="pf554f10fbf">
   <rect height="248.094" width="396.8775" x="64.0125" y="38.664"/>
  </clipPath>
 </defs>
</svg>
