<?xml version="1.0" encoding="utf-8" standalone="no"?>
<!DOCTYPE svg PUBLIC "-//W3C//DTD SVG 1.1//EN"
  "http://www.w3.org/Graphics/SVG/1.1/DTD/svg11.dtd">
<!-- Created with matplotlib (https://matplotlib.org/) -->
<svg height="336.6pt" version="1.1" viewBox="0 0 792 336.6" width="792pt" xmlns="http://www.w3.org/2000/svg" xmlns:xlink="http://www.w3.org/1999/xlink">
 <defs>
  <style type="text/css">
*{stroke-linecap:butt;stroke-linejoin:round;}
  </style>
 </defs>
 <g id="figure_1">
  <g id="patch_1">
   <path d="M 0 336.6 
L 792 336.6 
L 792 0 
L 0 0 
z
" style="fill:#ffffff;"/>
  </g>
  <g id="axes_1">
   <g id="patch_2">
    <path d="M 99 299.574 
L 712.8 299.574 
L 712.8 40.392 
L 99 40.392 
z
" style="fill:#ffffff;"/>
   </g>
   <g id="matplotlib.axis_1">
    <g id="xtick_1">
     <g id="line2d_1">
      <defs>
       <path d="M 0 0 
L 0 3.5 
" id="m663f80ef72" style="stroke:#000000;stroke-width:0.8;"/>
      </defs>
      <g>
       <use style="stroke:#000000;stroke-width:0.8;" x="126.9" xlink:href="#m663f80ef72" y="299.574"/>
      </g>
     </g>
     <g id="text_1">
      <!-- 2700 -->
      <defs>
       <path d="M 19.1875 8.296875 
L 53.609375 8.296875 
L 53.609375 0 
L 7.328125 0 
L 7.328125 8.296875 
Q 12.9375 14.109375 22.625 23.890625 
Q 32.328125 33.6875 34.8125 36.53125 
Q 39.546875 41.84375 41.421875 45.53125 
Q 43.3125 49.21875 43.3125 52.78125 
Q 43.3125 58.59375 39.234375 62.25 
Q 35.15625 65.921875 28.609375 65.921875 
Q 23.96875 65.921875 18.8125 64.3125 
Q 13.671875 62.703125 7.8125 59.421875 
L 7.8125 69.390625 
Q 13.765625 71.78125 18.9375 73 
Q 24.125 74.21875 28.421875 74.21875 
Q 39.75 74.21875 46.484375 68.546875 
Q 53.21875 62.890625 53.21875 53.421875 
Q 53.21875 48.921875 51.53125 44.890625 
Q 49.859375 40.875 45.40625 35.40625 
Q 44.1875 33.984375 37.640625 27.21875 
Q 31.109375 20.453125 19.1875 8.296875 
z
" id="DejaVuSans-50"/>
       <path d="M 8.203125 72.90625 
L 55.078125 72.90625 
L 55.078125 68.703125 
L 28.609375 0 
L 18.3125 0 
L 43.21875 64.59375 
L 8.203125 64.59375 
z
" id="DejaVuSans-55"/>
       <path d="M 31.78125 66.40625 
Q 24.171875 66.40625 20.328125 58.90625 
Q 16.5 51.421875 16.5 36.375 
Q 16.5 21.390625 20.328125 13.890625 
Q 24.171875 6.390625 31.78125 6.390625 
Q 39.453125 6.390625 43.28125 13.890625 
Q 47.125 21.390625 47.125 36.375 
Q 47.125 51.421875 43.28125 58.90625 
Q 39.453125 66.40625 31.78125 66.40625 
z
M 31.78125 74.21875 
Q 44.046875 74.21875 50.515625 64.515625 
Q 56.984375 54.828125 56.984375 36.375 
Q 56.984375 17.96875 50.515625 8.265625 
Q 44.046875 -1.421875 31.78125 -1.421875 
Q 19.53125 -1.421875 13.0625 8.265625 
Q 6.59375 17.96875 6.59375 36.375 
Q 6.59375 54.828125 13.0625 64.515625 
Q 19.53125 74.21875 31.78125 74.21875 
z
" id="DejaVuSans-48"/>
      </defs>
      <g transform="translate(101.45 321.770875)scale(0.2 -0.2)">
       <use xlink:href="#DejaVuSans-50"/>
       <use x="63.623047" xlink:href="#DejaVuSans-55"/>
       <use x="127.246094" xlink:href="#DejaVuSans-48"/>
       <use x="190.869141" xlink:href="#DejaVuSans-48"/>
      </g>
     </g>
    </g>
    <g id="xtick_2">
     <g id="line2d_2">
      <g>
       <use style="stroke:#000000;stroke-width:0.8;" x="206.888532" xlink:href="#m663f80ef72" y="299.574"/>
      </g>
     </g>
     <g id="text_2">
      <!-- 2750 -->
      <defs>
       <path d="M 10.796875 72.90625 
L 49.515625 72.90625 
L 49.515625 64.59375 
L 19.828125 64.59375 
L 19.828125 46.734375 
Q 21.96875 47.46875 24.109375 47.828125 
Q 26.265625 48.1875 28.421875 48.1875 
Q 40.625 48.1875 47.75 41.5 
Q 54.890625 34.8125 54.890625 23.390625 
Q 54.890625 11.625 47.5625 5.09375 
Q 40.234375 -1.421875 26.90625 -1.421875 
Q 22.3125 -1.421875 17.546875 -0.640625 
Q 12.796875 0.140625 7.71875 1.703125 
L 7.71875 11.625 
Q 12.109375 9.234375 16.796875 8.0625 
Q 21.484375 6.890625 26.703125 6.890625 
Q 35.15625 6.890625 40.078125 11.328125 
Q 45.015625 15.765625 45.015625 23.390625 
Q 45.015625 31 40.078125 35.4375 
Q 35.15625 39.890625 26.703125 39.890625 
Q 22.75 39.890625 18.8125 39.015625 
Q 14.890625 38.140625 10.796875 36.28125 
z
" id="DejaVuSans-53"/>
      </defs>
      <g transform="translate(181.438532 321.770875)scale(0.2 -0.2)">
       <use xlink:href="#DejaVuSans-50"/>
       <use x="63.623047" xlink:href="#DejaVuSans-55"/>
       <use x="127.246094" xlink:href="#DejaVuSans-53"/>
       <use x="190.869141" xlink:href="#DejaVuSans-48"/>
      </g>
     </g>
    </g>
    <g id="xtick_3">
     <g id="line2d_3">
      <g>
       <use style="stroke:#000000;stroke-width:0.8;" x="286.877064" xlink:href="#m663f80ef72" y="299.574"/>
      </g>
     </g>
     <g id="text_3">
      <!-- 2800 -->
      <defs>
       <path d="M 31.78125 34.625 
Q 24.75 34.625 20.71875 30.859375 
Q 16.703125 27.09375 16.703125 20.515625 
Q 16.703125 13.921875 20.71875 10.15625 
Q 24.75 6.390625 31.78125 6.390625 
Q 38.8125 6.390625 42.859375 10.171875 
Q 46.921875 13.96875 46.921875 20.515625 
Q 46.921875 27.09375 42.890625 30.859375 
Q 38.875 34.625 31.78125 34.625 
z
M 21.921875 38.8125 
Q 15.578125 40.375 12.03125 44.71875 
Q 8.5 49.078125 8.5 55.328125 
Q 8.5 64.0625 14.71875 69.140625 
Q 20.953125 74.21875 31.78125 74.21875 
Q 42.671875 74.21875 48.875 69.140625 
Q 55.078125 64.0625 55.078125 55.328125 
Q 55.078125 49.078125 51.53125 44.71875 
Q 48 40.375 41.703125 38.8125 
Q 48.828125 37.15625 52.796875 32.3125 
Q 56.78125 27.484375 56.78125 20.515625 
Q 56.78125 9.90625 50.3125 4.234375 
Q 43.84375 -1.421875 31.78125 -1.421875 
Q 19.734375 -1.421875 13.25 4.234375 
Q 6.78125 9.90625 6.78125 20.515625 
Q 6.78125 27.484375 10.78125 32.3125 
Q 14.796875 37.15625 21.921875 38.8125 
z
M 18.3125 54.390625 
Q 18.3125 48.734375 21.84375 45.5625 
Q 25.390625 42.390625 31.78125 42.390625 
Q 38.140625 42.390625 41.71875 45.5625 
Q 45.3125 48.734375 45.3125 54.390625 
Q 45.3125 60.0625 41.71875 63.234375 
Q 38.140625 66.40625 31.78125 66.40625 
Q 25.390625 66.40625 21.84375 63.234375 
Q 18.3125 60.0625 18.3125 54.390625 
z
" id="DejaVuSans-56"/>
      </defs>
      <g transform="translate(261.427064 321.770875)scale(0.2 -0.2)">
       <use xlink:href="#DejaVuSans-50"/>
       <use x="63.623047" xlink:href="#DejaVuSans-56"/>
       <use x="127.246094" xlink:href="#DejaVuSans-48"/>
       <use x="190.869141" xlink:href="#DejaVuSans-48"/>
      </g>
     </g>
    </g>
    <g id="xtick_4">
     <g id="line2d_4">
      <g>
       <use style="stroke:#000000;stroke-width:0.8;" x="366.865596" xlink:href="#m663f80ef72" y="299.574"/>
      </g>
     </g>
     <g id="text_4">
      <!-- 2850 -->
      <g transform="translate(341.415596 321.770875)scale(0.2 -0.2)">
       <use xlink:href="#DejaVuSans-50"/>
       <use x="63.623047" xlink:href="#DejaVuSans-56"/>
       <use x="127.246094" xlink:href="#DejaVuSans-53"/>
       <use x="190.869141" xlink:href="#DejaVuSans-48"/>
      </g>
     </g>
    </g>
    <g id="xtick_5">
     <g id="line2d_5">
      <g>
       <use style="stroke:#000000;stroke-width:0.8;" x="446.854128" xlink:href="#m663f80ef72" y="299.574"/>
      </g>
     </g>
     <g id="text_5">
      <!-- 2900 -->
      <defs>
       <path d="M 10.984375 1.515625 
L 10.984375 10.5 
Q 14.703125 8.734375 18.5 7.8125 
Q 22.3125 6.890625 25.984375 6.890625 
Q 35.75 6.890625 40.890625 13.453125 
Q 46.046875 20.015625 46.78125 33.40625 
Q 43.953125 29.203125 39.59375 26.953125 
Q 35.25 24.703125 29.984375 24.703125 
Q 19.046875 24.703125 12.671875 31.3125 
Q 6.296875 37.9375 6.296875 49.421875 
Q 6.296875 60.640625 12.9375 67.421875 
Q 19.578125 74.21875 30.609375 74.21875 
Q 43.265625 74.21875 49.921875 64.515625 
Q 56.59375 54.828125 56.59375 36.375 
Q 56.59375 19.140625 48.40625 8.859375 
Q 40.234375 -1.421875 26.421875 -1.421875 
Q 22.703125 -1.421875 18.890625 -0.6875 
Q 15.09375 0.046875 10.984375 1.515625 
z
M 30.609375 32.421875 
Q 37.25 32.421875 41.125 36.953125 
Q 45.015625 41.5 45.015625 49.421875 
Q 45.015625 57.28125 41.125 61.84375 
Q 37.25 66.40625 30.609375 66.40625 
Q 23.96875 66.40625 20.09375 61.84375 
Q 16.21875 57.28125 16.21875 49.421875 
Q 16.21875 41.5 20.09375 36.953125 
Q 23.96875 32.421875 30.609375 32.421875 
z
" id="DejaVuSans-57"/>
      </defs>
      <g transform="translate(421.404128 321.770875)scale(0.2 -0.2)">
       <use xlink:href="#DejaVuSans-50"/>
       <use x="63.623047" xlink:href="#DejaVuSans-57"/>
       <use x="127.246094" xlink:href="#DejaVuSans-48"/>
       <use x="190.869141" xlink:href="#DejaVuSans-48"/>
      </g>
     </g>
    </g>
    <g id="xtick_6">
     <g id="line2d_6">
      <g>
       <use style="stroke:#000000;stroke-width:0.8;" x="526.842661" xlink:href="#m663f80ef72" y="299.574"/>
      </g>
     </g>
     <g id="text_6">
      <!-- 2950 -->
      <g transform="translate(501.392661 321.770875)scale(0.2 -0.2)">
       <use xlink:href="#DejaVuSans-50"/>
       <use x="63.623047" xlink:href="#DejaVuSans-57"/>
       <use x="127.246094" xlink:href="#DejaVuSans-53"/>
       <use x="190.869141" xlink:href="#DejaVuSans-48"/>
      </g>
     </g>
    </g>
    <g id="xtick_7">
     <g id="line2d_7">
      <g>
       <use style="stroke:#000000;stroke-width:0.8;" x="606.831193" xlink:href="#m663f80ef72" y="299.574"/>
      </g>
     </g>
     <g id="text_7">
      <!-- 3000 -->
      <defs>
       <path d="M 40.578125 39.3125 
Q 47.65625 37.796875 51.625 33 
Q 55.609375 28.21875 55.609375 21.1875 
Q 55.609375 10.40625 48.1875 4.484375 
Q 40.765625 -1.421875 27.09375 -1.421875 
Q 22.515625 -1.421875 17.65625 -0.515625 
Q 12.796875 0.390625 7.625 2.203125 
L 7.625 11.71875 
Q 11.71875 9.328125 16.59375 8.109375 
Q 21.484375 6.890625 26.8125 6.890625 
Q 36.078125 6.890625 40.9375 10.546875 
Q 45.796875 14.203125 45.796875 21.1875 
Q 45.796875 27.640625 41.28125 31.265625 
Q 36.765625 34.90625 28.71875 34.90625 
L 20.21875 34.90625 
L 20.21875 43.015625 
L 29.109375 43.015625 
Q 36.375 43.015625 40.234375 45.921875 
Q 44.09375 48.828125 44.09375 54.296875 
Q 44.09375 59.90625 40.109375 62.90625 
Q 36.140625 65.921875 28.71875 65.921875 
Q 24.65625 65.921875 20.015625 65.03125 
Q 15.375 64.15625 9.8125 62.3125 
L 9.8125 71.09375 
Q 15.4375 72.65625 20.34375 73.4375 
Q 25.25 74.21875 29.59375 74.21875 
Q 40.828125 74.21875 47.359375 69.109375 
Q 53.90625 64.015625 53.90625 55.328125 
Q 53.90625 49.265625 50.4375 45.09375 
Q 46.96875 40.921875 40.578125 39.3125 
z
" id="DejaVuSans-51"/>
      </defs>
      <g transform="translate(581.381193 321.770875)scale(0.2 -0.2)">
       <use xlink:href="#DejaVuSans-51"/>
       <use x="63.623047" xlink:href="#DejaVuSans-48"/>
       <use x="127.246094" xlink:href="#DejaVuSans-48"/>
       <use x="190.869141" xlink:href="#DejaVuSans-48"/>
      </g>
     </g>
    </g>
    <g id="xtick_8">
     <g id="line2d_8">
      <g>
       <use style="stroke:#000000;stroke-width:0.8;" x="686.819725" xlink:href="#m663f80ef72" y="299.574"/>
      </g>
     </g>
     <g id="text_8">
      <!-- 3050 -->
      <g transform="translate(661.369725 321.770875)scale(0.2 -0.2)">
       <use xlink:href="#DejaVuSans-51"/>
       <use x="63.623047" xlink:href="#DejaVuSans-48"/>
       <use x="127.246094" xlink:href="#DejaVuSans-53"/>
       <use x="190.869141" xlink:href="#DejaVuSans-48"/>
      </g>
     </g>
    </g>
    <g id="text_9">
     <!-- Microwave frequency (MHz) -->
     <defs>
      <path d="M 9.1875 72.90625 
L 33.109375 72.90625 
L 49.703125 33.890625 
L 66.40625 72.90625 
L 90.28125 72.90625 
L 90.28125 0 
L 72.515625 0 
L 72.515625 53.328125 
L 55.71875 14.015625 
L 43.796875 14.015625 
L 27 53.328125 
L 27 0 
L 9.1875 0 
z
" id="DejaVuSans-Bold-77"/>
      <path d="M 8.40625 54.6875 
L 25.875 54.6875 
L 25.875 0 
L 8.40625 0 
z
M 8.40625 75.984375 
L 25.875 75.984375 
L 25.875 61.71875 
L 8.40625 61.71875 
z
" id="DejaVuSans-Bold-105"/>
      <path d="M 52.59375 52.984375 
L 52.59375 38.71875 
Q 49.03125 41.15625 45.4375 42.328125 
Q 41.84375 43.5 37.984375 43.5 
Q 30.671875 43.5 26.59375 39.234375 
Q 22.515625 34.96875 22.515625 27.296875 
Q 22.515625 19.625 26.59375 15.34375 
Q 30.671875 11.078125 37.984375 11.078125 
Q 42.09375 11.078125 45.78125 12.296875 
Q 49.46875 13.53125 52.59375 15.921875 
L 52.59375 1.609375 
Q 48.484375 0.09375 44.265625 -0.65625 
Q 40.046875 -1.421875 35.796875 -1.421875 
Q 21 -1.421875 12.640625 6.171875 
Q 4.296875 13.765625 4.296875 27.296875 
Q 4.296875 40.828125 12.640625 48.40625 
Q 21 56 35.796875 56 
Q 40.09375 56 44.265625 55.25 
Q 48.4375 54.5 52.59375 52.984375 
z
" id="DejaVuSans-Bold-99"/>
      <path d="M 49.03125 39.796875 
Q 46.734375 40.875 44.453125 41.375 
Q 42.1875 41.890625 39.890625 41.890625 
Q 33.15625 41.890625 29.515625 37.5625 
Q 25.875 33.25 25.875 25.203125 
L 25.875 0 
L 8.40625 0 
L 8.40625 54.6875 
L 25.875 54.6875 
L 25.875 45.703125 
Q 29.25 51.078125 33.609375 53.53125 
Q 37.984375 56 44.09375 56 
Q 44.96875 56 45.984375 55.921875 
Q 47.015625 55.859375 48.96875 55.609375 
z
" id="DejaVuSans-Bold-114"/>
      <path d="M 34.421875 43.5 
Q 28.609375 43.5 25.5625 39.328125 
Q 22.515625 35.15625 22.515625 27.296875 
Q 22.515625 19.4375 25.5625 15.25 
Q 28.609375 11.078125 34.421875 11.078125 
Q 40.140625 11.078125 43.15625 15.25 
Q 46.1875 19.4375 46.1875 27.296875 
Q 46.1875 35.15625 43.15625 39.328125 
Q 40.140625 43.5 34.421875 43.5 
z
M 34.421875 56 
Q 48.53125 56 56.46875 48.375 
Q 64.40625 40.765625 64.40625 27.296875 
Q 64.40625 13.8125 56.46875 6.1875 
Q 48.53125 -1.421875 34.421875 -1.421875 
Q 20.265625 -1.421875 12.28125 6.1875 
Q 4.296875 13.8125 4.296875 27.296875 
Q 4.296875 40.765625 12.28125 48.375 
Q 20.265625 56 34.421875 56 
z
" id="DejaVuSans-Bold-111"/>
      <path d="M 3.515625 54.6875 
L 20.515625 54.6875 
L 29.6875 17 
L 38.921875 54.6875 
L 53.515625 54.6875 
L 62.703125 17.390625 
L 71.921875 54.6875 
L 88.921875 54.6875 
L 74.515625 0 
L 55.421875 0 
L 46.1875 37.59375 
L 37.015625 0 
L 17.921875 0 
z
" id="DejaVuSans-Bold-119"/>
      <path d="M 32.90625 24.609375 
Q 27.4375 24.609375 24.671875 22.75 
Q 21.921875 20.90625 21.921875 17.28125 
Q 21.921875 13.96875 24.140625 12.078125 
Q 26.375 10.203125 30.328125 10.203125 
Q 35.25 10.203125 38.625 13.734375 
Q 42 17.28125 42 22.609375 
L 42 24.609375 
z
M 59.625 31.203125 
L 59.625 0 
L 42 0 
L 42 8.109375 
Q 38.484375 3.125 34.078125 0.84375 
Q 29.6875 -1.421875 23.390625 -1.421875 
Q 14.890625 -1.421875 9.59375 3.53125 
Q 4.296875 8.5 4.296875 16.40625 
Q 4.296875 26.03125 10.90625 30.515625 
Q 17.53125 35.015625 31.6875 35.015625 
L 42 35.015625 
L 42 36.375 
Q 42 40.53125 38.71875 42.453125 
Q 35.453125 44.390625 28.515625 44.390625 
Q 22.90625 44.390625 18.0625 43.265625 
Q 13.234375 42.140625 9.078125 39.890625 
L 9.078125 53.21875 
Q 14.703125 54.59375 20.359375 55.296875 
Q 26.03125 56 31.6875 56 
Q 46.484375 56 53.046875 50.171875 
Q 59.625 44.34375 59.625 31.203125 
z
" id="DejaVuSans-Bold-97"/>
      <path d="M 1.515625 54.6875 
L 19 54.6875 
L 32.625 16.890625 
L 46.1875 54.6875 
L 63.71875 54.6875 
L 42.1875 0 
L 23 0 
z
" id="DejaVuSans-Bold-118"/>
      <path d="M 62.984375 27.484375 
L 62.984375 22.515625 
L 22.125 22.515625 
Q 22.75 16.359375 26.5625 13.28125 
Q 30.375 10.203125 37.203125 10.203125 
Q 42.71875 10.203125 48.5 11.84375 
Q 54.296875 13.484375 60.40625 16.796875 
L 60.40625 3.328125 
Q 54.203125 0.984375 48 -0.21875 
Q 41.796875 -1.421875 35.59375 -1.421875 
Q 20.75 -1.421875 12.515625 6.125 
Q 4.296875 13.671875 4.296875 27.296875 
Q 4.296875 40.671875 12.375 48.328125 
Q 20.453125 56 34.625 56 
Q 47.515625 56 55.25 48.234375 
Q 62.984375 40.484375 62.984375 27.484375 
z
M 45.015625 33.296875 
Q 45.015625 38.28125 42.109375 41.328125 
Q 39.203125 44.390625 34.515625 44.390625 
Q 29.4375 44.390625 26.265625 41.53125 
Q 23.09375 38.671875 22.3125 33.296875 
z
" id="DejaVuSans-Bold-101"/>
      <path id="DejaVuSans-Bold-32"/>
      <path d="M 44.390625 75.984375 
L 44.390625 64.5 
L 34.71875 64.5 
Q 31 64.5 29.53125 63.15625 
Q 28.078125 61.8125 28.078125 58.5 
L 28.078125 54.6875 
L 43.015625 54.6875 
L 43.015625 42.1875 
L 28.078125 42.1875 
L 28.078125 0 
L 10.59375 0 
L 10.59375 42.1875 
L 1.90625 42.1875 
L 1.90625 54.6875 
L 10.59375 54.6875 
L 10.59375 58.5 
Q 10.59375 67.4375 15.578125 71.703125 
Q 20.5625 75.984375 31 75.984375 
z
" id="DejaVuSans-Bold-102"/>
      <path d="M 34.078125 43.3125 
Q 28.515625 43.3125 25.5625 39.203125 
Q 22.609375 35.109375 22.609375 27.296875 
Q 22.609375 19.484375 25.5625 15.375 
Q 28.515625 11.28125 34.078125 11.28125 
Q 39.703125 11.28125 42.65625 15.375 
Q 45.609375 19.484375 45.609375 27.296875 
Q 45.609375 35.109375 42.65625 39.203125 
Q 39.703125 43.3125 34.078125 43.3125 
z
M 45.609375 7.90625 
Q 42 3.078125 37.640625 0.828125 
Q 33.296875 -1.421875 27.59375 -1.421875 
Q 17.484375 -1.421875 10.984375 6.609375 
Q 4.5 14.65625 4.5 27.296875 
Q 4.5 39.9375 10.984375 47.921875 
Q 17.484375 55.90625 27.59375 55.90625 
Q 33.296875 55.90625 37.640625 53.65625 
Q 42 51.421875 45.609375 46.578125 
L 45.609375 54.6875 
L 63.1875 54.6875 
L 63.1875 -20.796875 
L 45.609375 -20.796875 
z
" id="DejaVuSans-Bold-113"/>
      <path d="M 7.8125 21.296875 
L 7.8125 54.6875 
L 25.390625 54.6875 
L 25.390625 49.21875 
Q 25.390625 44.78125 25.34375 38.0625 
Q 25.296875 31.34375 25.296875 29.109375 
Q 25.296875 22.515625 25.640625 19.609375 
Q 25.984375 16.703125 26.8125 15.375 
Q 27.875 13.671875 29.609375 12.734375 
Q 31.34375 11.8125 33.59375 11.8125 
Q 39.0625 11.8125 42.1875 16.015625 
Q 45.3125 20.21875 45.3125 27.6875 
L 45.3125 54.6875 
L 62.796875 54.6875 
L 62.796875 0 
L 45.3125 0 
L 45.3125 7.90625 
Q 41.359375 3.125 36.9375 0.84375 
Q 32.515625 -1.421875 27.203125 -1.421875 
Q 17.71875 -1.421875 12.765625 4.390625 
Q 7.8125 10.203125 7.8125 21.296875 
z
" id="DejaVuSans-Bold-117"/>
      <path d="M 63.375 33.296875 
L 63.375 0 
L 45.796875 0 
L 45.796875 5.421875 
L 45.796875 25.484375 
Q 45.796875 32.5625 45.484375 35.25 
Q 45.171875 37.9375 44.390625 39.203125 
Q 43.359375 40.921875 41.59375 41.875 
Q 39.84375 42.828125 37.59375 42.828125 
Q 32.125 42.828125 29 38.59375 
Q 25.875 34.375 25.875 26.90625 
L 25.875 0 
L 8.40625 0 
L 8.40625 54.6875 
L 25.875 54.6875 
L 25.875 46.6875 
Q 29.828125 51.46875 34.265625 53.734375 
Q 38.71875 56 44.09375 56 
Q 53.5625 56 58.46875 50.1875 
Q 63.375 44.390625 63.375 33.296875 
z
" id="DejaVuSans-Bold-110"/>
      <path d="M 1.21875 54.6875 
L 18.703125 54.6875 
L 33.40625 17.578125 
L 45.90625 54.6875 
L 63.375 54.6875 
L 40.375 -5.171875 
Q 36.921875 -14.3125 32.296875 -17.9375 
Q 27.6875 -21.578125 20.125 -21.578125 
L 10.015625 -21.578125 
L 10.015625 -10.109375 
L 15.484375 -10.109375 
Q 19.921875 -10.109375 21.9375 -8.6875 
Q 23.96875 -7.28125 25.09375 -3.609375 
L 25.59375 -2.09375 
z
" id="DejaVuSans-Bold-121"/>
      <path d="M 37.703125 -13.1875 
L 23.1875 -13.1875 
Q 15.71875 -1.125 12.15625 9.734375 
Q 8.59375 20.609375 8.59375 31.296875 
Q 8.59375 42 12.171875 52.953125 
Q 15.765625 63.921875 23.1875 75.875 
L 37.703125 75.875 
Q 31.453125 64.3125 28.328125 53.25 
Q 25.203125 42.1875 25.203125 31.390625 
Q 25.203125 20.609375 28.296875 9.515625 
Q 31.390625 -1.5625 37.703125 -13.1875 
z
" id="DejaVuSans-Bold-40"/>
      <path d="M 9.1875 72.90625 
L 27.984375 72.90625 
L 27.984375 45.125 
L 55.71875 45.125 
L 55.71875 72.90625 
L 74.515625 72.90625 
L 74.515625 0 
L 55.71875 0 
L 55.71875 30.90625 
L 27.984375 30.90625 
L 27.984375 0 
L 9.1875 0 
z
" id="DejaVuSans-Bold-72"/>
      <path d="M 5.71875 54.6875 
L 53.421875 54.6875 
L 53.421875 42.484375 
L 24.609375 12.5 
L 53.421875 12.5 
L 53.421875 0 
L 4.5 0 
L 4.5 12.203125 
L 33.296875 42.1875 
L 5.71875 42.1875 
z
" id="DejaVuSans-Bold-122"/>
      <path d="M 8.015625 -13.1875 
Q 14.265625 -1.5625 17.390625 9.515625 
Q 20.515625 20.609375 20.515625 31.390625 
Q 20.515625 42.1875 17.390625 53.25 
Q 14.265625 64.3125 8.015625 75.875 
L 22.515625 75.875 
Q 29.9375 63.921875 33.515625 52.953125 
Q 37.109375 42 37.109375 31.296875 
Q 37.109375 20.609375 33.546875 9.734375 
Q 29.984375 -1.125 22.515625 -13.1875 
z
" id="DejaVuSans-Bold-41"/>
     </defs>
     <g transform="translate(248.56875 345.127125)scale(0.2 -0.2)">
      <use xlink:href="#DejaVuSans-Bold-77"/>
      <use x="99.511719" xlink:href="#DejaVuSans-Bold-105"/>
      <use x="133.789062" xlink:href="#DejaVuSans-Bold-99"/>
      <use x="193.066406" xlink:href="#DejaVuSans-Bold-114"/>
      <use x="242.382812" xlink:href="#DejaVuSans-Bold-111"/>
      <use x="311.083984" xlink:href="#DejaVuSans-Bold-119"/>
      <use x="403.466797" xlink:href="#DejaVuSans-Bold-97"/>
      <use x="470.947266" xlink:href="#DejaVuSans-Bold-118"/>
      <use x="536.132812" xlink:href="#DejaVuSans-Bold-101"/>
      <use x="603.955078" xlink:href="#DejaVuSans-Bold-32"/>
      <use x="638.769531" xlink:href="#DejaVuSans-Bold-102"/>
      <use x="682.275391" xlink:href="#DejaVuSans-Bold-114"/>
      <use x="731.591797" xlink:href="#DejaVuSans-Bold-101"/>
      <use x="799.414062" xlink:href="#DejaVuSans-Bold-113"/>
      <use x="870.996094" xlink:href="#DejaVuSans-Bold-117"/>
      <use x="942.1875" xlink:href="#DejaVuSans-Bold-101"/>
      <use x="1010.009766" xlink:href="#DejaVuSans-Bold-110"/>
      <use x="1081.201172" xlink:href="#DejaVuSans-Bold-99"/>
      <use x="1140.478516" xlink:href="#DejaVuSans-Bold-121"/>
      <use x="1205.664062" xlink:href="#DejaVuSans-Bold-32"/>
      <use x="1240.478516" xlink:href="#DejaVuSans-Bold-40"/>
      <use x="1286.181641" xlink:href="#DejaVuSans-Bold-77"/>
      <use x="1385.693359" xlink:href="#DejaVuSans-Bold-72"/>
      <use x="1469.384766" xlink:href="#DejaVuSans-Bold-122"/>
      <use x="1527.587891" xlink:href="#DejaVuSans-Bold-41"/>
     </g>
    </g>
   </g>
   <g id="matplotlib.axis_2">
    <g id="ytick_1">
     <g id="line2d_9">
      <defs>
       <path d="M 0 0 
L -3.5 0 
" id="m3e46acf3a8" style="stroke:#000000;stroke-width:0.8;"/>
      </defs>
      <g>
       <use style="stroke:#000000;stroke-width:0.8;" x="99" xlink:href="#m3e46acf3a8" y="259.419968"/>
      </g>
     </g>
     <g id="text_10">
      <!-- 0.9900 -->
      <defs>
       <path d="M 10.6875 12.40625 
L 21 12.40625 
L 21 0 
L 10.6875 0 
z
" id="DejaVuSans-46"/>
      </defs>
      <g transform="translate(22.01875 267.018406)scale(0.2 -0.2)">
       <use xlink:href="#DejaVuSans-48"/>
       <use x="63.623047" xlink:href="#DejaVuSans-46"/>
       <use x="95.410156" xlink:href="#DejaVuSans-57"/>
       <use x="159.033203" xlink:href="#DejaVuSans-57"/>
       <use x="222.65625" xlink:href="#DejaVuSans-48"/>
       <use x="286.279297" xlink:href="#DejaVuSans-48"/>
      </g>
     </g>
    </g>
    <g id="ytick_2">
     <g id="line2d_10">
      <g>
       <use style="stroke:#000000;stroke-width:0.8;" x="99" xlink:href="#m3e46acf3a8" y="207.608226"/>
      </g>
     </g>
     <g id="text_11">
      <!-- 0.9925 -->
      <g transform="translate(22.01875 215.206664)scale(0.2 -0.2)">
       <use xlink:href="#DejaVuSans-48"/>
       <use x="63.623047" xlink:href="#DejaVuSans-46"/>
       <use x="95.410156" xlink:href="#DejaVuSans-57"/>
       <use x="159.033203" xlink:href="#DejaVuSans-57"/>
       <use x="222.65625" xlink:href="#DejaVuSans-50"/>
       <use x="286.279297" xlink:href="#DejaVuSans-53"/>
      </g>
     </g>
    </g>
    <g id="ytick_3">
     <g id="line2d_11">
      <g>
       <use style="stroke:#000000;stroke-width:0.8;" x="99" xlink:href="#m3e46acf3a8" y="155.796484"/>
      </g>
     </g>
     <g id="text_12">
      <!-- 0.9950 -->
      <g transform="translate(22.01875 163.394922)scale(0.2 -0.2)">
       <use xlink:href="#DejaVuSans-48"/>
       <use x="63.623047" xlink:href="#DejaVuSans-46"/>
       <use x="95.410156" xlink:href="#DejaVuSans-57"/>
       <use x="159.033203" xlink:href="#DejaVuSans-57"/>
       <use x="222.65625" xlink:href="#DejaVuSans-53"/>
       <use x="286.279297" xlink:href="#DejaVuSans-48"/>
      </g>
     </g>
    </g>
    <g id="ytick_4">
     <g id="line2d_12">
      <g>
       <use style="stroke:#000000;stroke-width:0.8;" x="99" xlink:href="#m3e46acf3a8" y="103.984742"/>
      </g>
     </g>
     <g id="text_13">
      <!-- 0.9975 -->
      <g transform="translate(22.01875 111.58318)scale(0.2 -0.2)">
       <use xlink:href="#DejaVuSans-48"/>
       <use x="63.623047" xlink:href="#DejaVuSans-46"/>
       <use x="95.410156" xlink:href="#DejaVuSans-57"/>
       <use x="159.033203" xlink:href="#DejaVuSans-57"/>
       <use x="222.65625" xlink:href="#DejaVuSans-55"/>
       <use x="286.279297" xlink:href="#DejaVuSans-53"/>
      </g>
     </g>
    </g>
    <g id="ytick_5">
     <g id="line2d_13">
      <g>
       <use style="stroke:#000000;stroke-width:0.8;" x="99" xlink:href="#m3e46acf3a8" y="52.173"/>
      </g>
     </g>
     <g id="text_14">
      <!-- 1.0000 -->
      <defs>
       <path d="M 12.40625 8.296875 
L 28.515625 8.296875 
L 28.515625 63.921875 
L 10.984375 60.40625 
L 10.984375 69.390625 
L 28.421875 72.90625 
L 38.28125 72.90625 
L 38.28125 8.296875 
L 54.390625 8.296875 
L 54.390625 0 
L 12.40625 0 
z
" id="DejaVuSans-49"/>
      </defs>
      <g transform="translate(22.01875 59.771438)scale(0.2 -0.2)">
       <use xlink:href="#DejaVuSans-49"/>
       <use x="63.623047" xlink:href="#DejaVuSans-46"/>
       <use x="95.410156" xlink:href="#DejaVuSans-48"/>
       <use x="159.033203" xlink:href="#DejaVuSans-48"/>
       <use x="222.65625" xlink:href="#DejaVuSans-48"/>
       <use x="286.279297" xlink:href="#DejaVuSans-48"/>
      </g>
     </g>
    </g>
    <g id="text_15">
     <!-- Photoluminescence -->
     <defs>
      <path d="M 9.1875 72.90625 
L 40.375 72.90625 
Q 54.296875 72.90625 61.734375 66.71875 
Q 69.1875 60.546875 69.1875 49.125 
Q 69.1875 37.640625 61.734375 31.46875 
Q 54.296875 25.296875 40.375 25.296875 
L 27.984375 25.296875 
L 27.984375 0 
L 9.1875 0 
z
M 27.984375 59.28125 
L 27.984375 38.921875 
L 38.375 38.921875 
Q 43.84375 38.921875 46.828125 41.578125 
Q 49.8125 44.234375 49.8125 49.125 
Q 49.8125 54 46.828125 56.640625 
Q 43.84375 59.28125 38.375 59.28125 
z
" id="DejaVuSans-Bold-80"/>
      <path d="M 63.375 33.296875 
L 63.375 0 
L 45.796875 0 
L 45.796875 5.421875 
L 45.796875 25.390625 
Q 45.796875 32.5625 45.484375 35.25 
Q 45.171875 37.9375 44.390625 39.203125 
Q 43.359375 40.921875 41.59375 41.875 
Q 39.84375 42.828125 37.59375 42.828125 
Q 32.125 42.828125 29 38.59375 
Q 25.875 34.375 25.875 26.90625 
L 25.875 0 
L 8.40625 0 
L 8.40625 75.984375 
L 25.875 75.984375 
L 25.875 46.6875 
Q 29.828125 51.46875 34.265625 53.734375 
Q 38.71875 56 44.09375 56 
Q 53.5625 56 58.46875 50.1875 
Q 63.375 44.390625 63.375 33.296875 
z
" id="DejaVuSans-Bold-104"/>
      <path d="M 27.484375 70.21875 
L 27.484375 54.6875 
L 45.515625 54.6875 
L 45.515625 42.1875 
L 27.484375 42.1875 
L 27.484375 19 
Q 27.484375 15.1875 29 13.84375 
Q 30.515625 12.5 35.015625 12.5 
L 44 12.5 
L 44 0 
L 29 0 
Q 18.65625 0 14.328125 4.3125 
Q 10.015625 8.640625 10.015625 19 
L 10.015625 42.1875 
L 1.3125 42.1875 
L 1.3125 54.6875 
L 10.015625 54.6875 
L 10.015625 70.21875 
z
" id="DejaVuSans-Bold-116"/>
      <path d="M 8.40625 75.984375 
L 25.875 75.984375 
L 25.875 0 
L 8.40625 0 
z
" id="DejaVuSans-Bold-108"/>
      <path d="M 59.078125 45.609375 
Q 62.40625 50.6875 66.96875 53.34375 
Q 71.53125 56 77 56 
Q 86.421875 56 91.359375 50.1875 
Q 96.296875 44.390625 96.296875 33.296875 
L 96.296875 0 
L 78.71875 0 
L 78.71875 28.515625 
Q 78.765625 29.15625 78.78125 29.828125 
Q 78.8125 30.515625 78.8125 31.78125 
Q 78.8125 37.59375 77.09375 40.203125 
Q 75.390625 42.828125 71.578125 42.828125 
Q 66.609375 42.828125 63.890625 38.71875 
Q 61.1875 34.625 61.078125 26.859375 
L 61.078125 0 
L 43.5 0 
L 43.5 28.515625 
Q 43.5 37.59375 41.9375 40.203125 
Q 40.375 42.828125 36.375 42.828125 
Q 31.34375 42.828125 28.609375 38.703125 
Q 25.875 34.578125 25.875 26.90625 
L 25.875 0 
L 8.296875 0 
L 8.296875 54.6875 
L 25.875 54.6875 
L 25.875 46.6875 
Q 29.109375 51.3125 33.28125 53.65625 
Q 37.453125 56 42.484375 56 
Q 48.140625 56 52.484375 53.265625 
Q 56.84375 50.53125 59.078125 45.609375 
z
" id="DejaVuSans-Bold-109"/>
      <path d="M 51.125 52.984375 
L 51.125 39.703125 
Q 45.515625 42.046875 40.28125 43.21875 
Q 35.0625 44.390625 30.421875 44.390625 
Q 25.4375 44.390625 23.015625 43.140625 
Q 20.609375 41.890625 20.609375 39.3125 
Q 20.609375 37.203125 22.4375 36.078125 
Q 24.265625 34.96875 29 34.421875 
L 32.078125 33.984375 
Q 45.515625 32.28125 50.140625 28.375 
Q 54.78125 24.46875 54.78125 16.109375 
Q 54.78125 7.375 48.328125 2.96875 
Q 41.890625 -1.421875 29.109375 -1.421875 
Q 23.6875 -1.421875 17.890625 -0.5625 
Q 12.109375 0.296875 6 2 
L 6 15.28125 
Q 11.234375 12.75 16.71875 11.46875 
Q 22.21875 10.203125 27.875 10.203125 
Q 33.015625 10.203125 35.59375 11.609375 
Q 38.1875 13.03125 38.1875 15.828125 
Q 38.1875 18.171875 36.40625 19.3125 
Q 34.625 20.453125 29.296875 21.09375 
L 26.21875 21.484375 
Q 14.546875 22.953125 9.859375 26.90625 
Q 5.171875 30.859375 5.171875 38.921875 
Q 5.171875 47.609375 11.125 51.796875 
Q 17.09375 56 29.390625 56 
Q 34.234375 56 39.546875 55.265625 
Q 44.875 54.546875 51.125 52.984375 
z
" id="DejaVuSans-Bold-115"/>
     </defs>
     <g transform="translate(13.859375 279.740813)rotate(-90)scale(0.2 -0.2)">
      <use xlink:href="#DejaVuSans-Bold-80"/>
      <use x="73.291016" xlink:href="#DejaVuSans-Bold-104"/>
      <use x="144.482422" xlink:href="#DejaVuSans-Bold-111"/>
      <use x="213.183594" xlink:href="#DejaVuSans-Bold-116"/>
      <use x="260.986328" xlink:href="#DejaVuSans-Bold-111"/>
      <use x="329.6875" xlink:href="#DejaVuSans-Bold-108"/>
      <use x="363.964844" xlink:href="#DejaVuSans-Bold-117"/>
      <use x="435.15625" xlink:href="#DejaVuSans-Bold-109"/>
      <use x="539.355469" xlink:href="#DejaVuSans-Bold-105"/>
      <use x="573.632812" xlink:href="#DejaVuSans-Bold-110"/>
      <use x="644.824219" xlink:href="#DejaVuSans-Bold-101"/>
      <use x="712.646484" xlink:href="#DejaVuSans-Bold-115"/>
      <use x="772.167969" xlink:href="#DejaVuSans-Bold-99"/>
      <use x="831.445312" xlink:href="#DejaVuSans-Bold-101"/>
      <use x="899.267578" xlink:href="#DejaVuSans-Bold-110"/>
      <use x="970.458984" xlink:href="#DejaVuSans-Bold-99"/>
      <use x="1029.736328" xlink:href="#DejaVuSans-Bold-101"/>
     </g>
    </g>
   </g>
   <g id="line2d_14">
    <defs>
     <path d="M 0 5 
C 1.326016 5 2.597899 4.473168 3.535534 3.535534 
C 4.473168 2.597899 5 1.326016 5 0 
C 5 -1.326016 4.473168 -2.597899 3.535534 -3.535534 
C 2.597899 -4.473168 1.326016 -5 0 -5 
C -1.326016 -5 -2.597899 -4.473168 -3.535534 -3.535534 
C -4.473168 -2.597899 -5 -1.326016 -5 0 
C -5 1.326016 -4.473168 2.597899 -3.535534 3.535534 
C -2.597899 4.473168 -1.326016 5 0 5 
z
" id="mebb48b522d" style="stroke:#1f77b4;stroke-width:3;"/>
    </defs>
    <g clip-path="url(#p93ae5c815d)">
     <use style="fill-opacity:0;stroke:#1f77b4;stroke-width:3;" x="126.9" xlink:href="#mebb48b522d" y="89.981791"/>
     <use style="fill-opacity:0;stroke:#1f77b4;stroke-width:3;" x="128.819725" xlink:href="#mebb48b522d" y="89.433837"/>
     <use style="fill-opacity:0;stroke:#1f77b4;stroke-width:3;" x="130.579472" xlink:href="#mebb48b522d" y="63.680023"/>
     <use style="fill-opacity:0;stroke:#1f77b4;stroke-width:3;" x="132.499197" xlink:href="#mebb48b522d" y="79.570674"/>
     <use style="fill-opacity:0;stroke:#1f77b4;stroke-width:3;" x="134.418922" xlink:href="#mebb48b522d" y="82.310442"/>
     <use style="fill-opacity:0;stroke:#1f77b4;stroke-width:3;" x="136.17867" xlink:href="#mebb48b522d" y="52.173"/>
     <use style="fill-opacity:0;stroke:#1f77b4;stroke-width:3;" x="138.098394" xlink:href="#mebb48b522d" y="75.187047"/>
     <use style="fill-opacity:0;stroke:#1f77b4;stroke-width:3;" x="140.018119" xlink:href="#mebb48b522d" y="77.926814"/>
     <use style="fill-opacity:0;stroke:#1f77b4;stroke-width:3;" x="141.777867" xlink:href="#mebb48b522d" y="97.105186"/>
     <use style="fill-opacity:0;stroke:#1f77b4;stroke-width:3;" x="143.697592" xlink:href="#mebb48b522d" y="65.871837"/>
     <use style="fill-opacity:0;stroke:#1f77b4;stroke-width:3;" x="145.617317" xlink:href="#mebb48b522d" y="88.33793"/>
     <use style="fill-opacity:0;stroke:#1f77b4;stroke-width:3;" x="147.377064" xlink:href="#mebb48b522d" y="92.721558"/>
     <use style="fill-opacity:0;stroke:#1f77b4;stroke-width:3;" x="149.296789" xlink:href="#mebb48b522d" y="98.201093"/>
     <use style="fill-opacity:0;stroke:#1f77b4;stroke-width:3;" x="151.216514" xlink:href="#mebb48b522d" y="90.529744"/>
     <use style="fill-opacity:0;stroke:#1f77b4;stroke-width:3;" x="152.976261" xlink:href="#mebb48b522d" y="90.529744"/>
     <use style="fill-opacity:0;stroke:#1f77b4;stroke-width:3;" x="154.895986" xlink:href="#mebb48b522d" y="85.598163"/>
     <use style="fill-opacity:0;stroke:#1f77b4;stroke-width:3;" x="156.815711" xlink:href="#mebb48b522d" y="95.461326"/>
     <use style="fill-opacity:0;stroke:#1f77b4;stroke-width:3;" x="158.575459" xlink:href="#mebb48b522d" y="92.173605"/>
     <use style="fill-opacity:0;stroke:#1f77b4;stroke-width:3;" x="160.495183" xlink:href="#mebb48b522d" y="74.639093"/>
     <use style="fill-opacity:0;stroke:#1f77b4;stroke-width:3;" x="162.414908" xlink:href="#mebb48b522d" y="91.077698"/>
     <use style="fill-opacity:0;stroke:#1f77b4;stroke-width:3;" x="164.174656" xlink:href="#mebb48b522d" y="98.201093"/>
     <use style="fill-opacity:0;stroke:#1f77b4;stroke-width:3;" x="166.094381" xlink:href="#mebb48b522d" y="61.488209"/>
     <use style="fill-opacity:0;stroke:#1f77b4;stroke-width:3;" x="168.014106" xlink:href="#mebb48b522d" y="94.365419"/>
     <use style="fill-opacity:0;stroke:#1f77b4;stroke-width:3;" x="169.773853" xlink:href="#mebb48b522d" y="94.913372"/>
     <use style="fill-opacity:0;stroke:#1f77b4;stroke-width:3;" x="171.693578" xlink:href="#mebb48b522d" y="84.502256"/>
     <use style="fill-opacity:0;stroke:#1f77b4;stroke-width:3;" x="173.613303" xlink:href="#mebb48b522d" y="94.365419"/>
     <use style="fill-opacity:0;stroke:#1f77b4;stroke-width:3;" x="175.37305" xlink:href="#mebb48b522d" y="90.529744"/>
     <use style="fill-opacity:0;stroke:#1f77b4;stroke-width:3;" x="177.292775" xlink:href="#mebb48b522d" y="94.913372"/>
     <use style="fill-opacity:0;stroke:#1f77b4;stroke-width:3;" x="179.2125" xlink:href="#mebb48b522d" y="115.187651"/>
     <use style="fill-opacity:0;stroke:#1f77b4;stroke-width:3;" x="180.972248" xlink:href="#mebb48b522d" y="150.256674"/>
     <use style="fill-opacity:0;stroke:#1f77b4;stroke-width:3;" x="182.891972" xlink:href="#mebb48b522d" y="211.079512"/>
     <use style="fill-opacity:0;stroke:#1f77b4;stroke-width:3;" x="184.811697" xlink:href="#mebb48b522d" y="235.737419"/>
     <use style="fill-opacity:0;stroke:#1f77b4;stroke-width:3;" x="186.571445" xlink:href="#mebb48b522d" y="252.723977"/>
     <use style="fill-opacity:0;stroke:#1f77b4;stroke-width:3;" x="188.49117" xlink:href="#mebb48b522d" y="259.847372"/>
     <use style="fill-opacity:0;stroke:#1f77b4;stroke-width:3;" x="190.410894" xlink:href="#mebb48b522d" y="260.943279"/>
     <use style="fill-opacity:0;stroke:#1f77b4;stroke-width:3;" x="192.170642" xlink:href="#mebb48b522d" y="196.284767"/>
     <use style="fill-opacity:0;stroke:#1f77b4;stroke-width:3;" x="194.090367" xlink:href="#mebb48b522d" y="163.955512"/>
     <use style="fill-opacity:0;stroke:#1f77b4;stroke-width:3;" x="196.010092" xlink:href="#mebb48b522d" y="120.119233"/>
     <use style="fill-opacity:0;stroke:#1f77b4;stroke-width:3;" x="197.769839" xlink:href="#mebb48b522d" y="108.612209"/>
     <use style="fill-opacity:0;stroke:#1f77b4;stroke-width:3;" x="199.689564" xlink:href="#mebb48b522d" y="117.927419"/>
     <use style="fill-opacity:0;stroke:#1f77b4;stroke-width:3;" x="201.609289" xlink:href="#mebb48b522d" y="71.351372"/>
     <use style="fill-opacity:0;stroke:#1f77b4;stroke-width:3;" x="203.369037" xlink:href="#mebb48b522d" y="104.228581"/>
     <use style="fill-opacity:0;stroke:#1f77b4;stroke-width:3;" x="205.288761" xlink:href="#mebb48b522d" y="87.789977"/>
     <use style="fill-opacity:0;stroke:#1f77b4;stroke-width:3;" x="207.208486" xlink:href="#mebb48b522d" y="106.420395"/>
     <use style="fill-opacity:0;stroke:#1f77b4;stroke-width:3;" x="208.968234" xlink:href="#mebb48b522d" y="86.69407"/>
     <use style="fill-opacity:0;stroke:#1f77b4;stroke-width:3;" x="210.887959" xlink:href="#mebb48b522d" y="77.37886"/>
     <use style="fill-opacity:0;stroke:#1f77b4;stroke-width:3;" x="212.807683" xlink:href="#mebb48b522d" y="97.65314"/>
     <use style="fill-opacity:0;stroke:#1f77b4;stroke-width:3;" x="214.567431" xlink:href="#mebb48b522d" y="69.707512"/>
     <use style="fill-opacity:0;stroke:#1f77b4;stroke-width:3;" x="216.487156" xlink:href="#mebb48b522d" y="85.598163"/>
     <use style="fill-opacity:0;stroke:#1f77b4;stroke-width:3;" x="218.406881" xlink:href="#mebb48b522d" y="87.789977"/>
     <use style="fill-opacity:0;stroke:#1f77b4;stroke-width:3;" x="220.166628" xlink:href="#mebb48b522d" y="93.817465"/>
     <use style="fill-opacity:0;stroke:#1f77b4;stroke-width:3;" x="222.086353" xlink:href="#mebb48b522d" y="90.529744"/>
     <use style="fill-opacity:0;stroke:#1f77b4;stroke-width:3;" x="224.006078" xlink:href="#mebb48b522d" y="112.447884"/>
     <use style="fill-opacity:0;stroke:#1f77b4;stroke-width:3;" x="225.765826" xlink:href="#mebb48b522d" y="115.187651"/>
     <use style="fill-opacity:0;stroke:#1f77b4;stroke-width:3;" x="227.68555" xlink:href="#mebb48b522d" y="116.831512"/>
     <use style="fill-opacity:0;stroke:#1f77b4;stroke-width:3;" x="229.605275" xlink:href="#mebb48b522d" y="137.105791"/>
     <use style="fill-opacity:0;stroke:#1f77b4;stroke-width:3;" x="231.365023" xlink:href="#mebb48b522d" y="197.380674"/>
     <use style="fill-opacity:0;stroke:#1f77b4;stroke-width:3;" x="233.284748" xlink:href="#mebb48b522d" y="231.353791"/>
     <use style="fill-opacity:0;stroke:#1f77b4;stroke-width:3;" x="235.204472" xlink:href="#mebb48b522d" y="230.257884"/>
     <use style="fill-opacity:0;stroke:#1f77b4;stroke-width:3;" x="236.96422" xlink:href="#mebb48b522d" y="211.079512"/>
     <use style="fill-opacity:0;stroke:#1f77b4;stroke-width:3;" x="238.883945" xlink:href="#mebb48b522d" y="207.243837"/>
     <use style="fill-opacity:0;stroke:#1f77b4;stroke-width:3;" x="240.80367" xlink:href="#mebb48b522d" y="197.928628"/>
     <use style="fill-opacity:0;stroke:#1f77b4;stroke-width:3;" x="242.563417" xlink:href="#mebb48b522d" y="167.243233"/>
     <use style="fill-opacity:0;stroke:#1f77b4;stroke-width:3;" x="244.483142" xlink:href="#mebb48b522d" y="135.46193"/>
     <use style="fill-opacity:0;stroke:#1f77b4;stroke-width:3;" x="246.402867" xlink:href="#mebb48b522d" y="120.119233"/>
     <use style="fill-opacity:0;stroke:#1f77b4;stroke-width:3;" x="248.162615" xlink:href="#mebb48b522d" y="111.351977"/>
     <use style="fill-opacity:0;stroke:#1f77b4;stroke-width:3;" x="250.082339" xlink:href="#mebb48b522d" y="89.981791"/>
     <use style="fill-opacity:0;stroke:#1f77b4;stroke-width:3;" x="252.002064" xlink:href="#mebb48b522d" y="107.516302"/>
     <use style="fill-opacity:0;stroke:#1f77b4;stroke-width:3;" x="253.761812" xlink:href="#mebb48b522d" y="96.557233"/>
     <use style="fill-opacity:0;stroke:#1f77b4;stroke-width:3;" x="255.681537" xlink:href="#mebb48b522d" y="83.954302"/>
     <use style="fill-opacity:0;stroke:#1f77b4;stroke-width:3;" x="257.601261" xlink:href="#mebb48b522d" y="81.762488"/>
     <use style="fill-opacity:0;stroke:#1f77b4;stroke-width:3;" x="259.361009" xlink:href="#mebb48b522d" y="83.406349"/>
     <use style="fill-opacity:0;stroke:#1f77b4;stroke-width:3;" x="261.280734" xlink:href="#mebb48b522d" y="67.515698"/>
     <use style="fill-opacity:0;stroke:#1f77b4;stroke-width:3;" x="263.200459" xlink:href="#mebb48b522d" y="102.036767"/>
     <use style="fill-opacity:0;stroke:#1f77b4;stroke-width:3;" x="264.960206" xlink:href="#mebb48b522d" y="81.762488"/>
     <use style="fill-opacity:0;stroke:#1f77b4;stroke-width:3;" x="266.879931" xlink:href="#mebb48b522d" y="89.981791"/>
     <use style="fill-opacity:0;stroke:#1f77b4;stroke-width:3;" x="268.799656" xlink:href="#mebb48b522d" y="84.502256"/>
     <use style="fill-opacity:0;stroke:#1f77b4;stroke-width:3;" x="270.559404" xlink:href="#mebb48b522d" y="92.721558"/>
     <use style="fill-opacity:0;stroke:#1f77b4;stroke-width:3;" x="272.479128" xlink:href="#mebb48b522d" y="91.625651"/>
     <use style="fill-opacity:0;stroke:#1f77b4;stroke-width:3;" x="274.398853" xlink:href="#mebb48b522d" y="112.447884"/>
     <use style="fill-opacity:0;stroke:#1f77b4;stroke-width:3;" x="276.158601" xlink:href="#mebb48b522d" y="96.557233"/>
     <use style="fill-opacity:0;stroke:#1f77b4;stroke-width:3;" x="278.078326" xlink:href="#mebb48b522d" y="116.283558"/>
     <use style="fill-opacity:0;stroke:#1f77b4;stroke-width:3;" x="279.99805" xlink:href="#mebb48b522d" y="115.735605"/>
     <use style="fill-opacity:0;stroke:#1f77b4;stroke-width:3;" x="281.757798" xlink:href="#mebb48b522d" y="136.557837"/>
     <use style="fill-opacity:0;stroke:#1f77b4;stroke-width:3;" x="283.677523" xlink:href="#mebb48b522d" y="131.626256"/>
     <use style="fill-opacity:0;stroke:#1f77b4;stroke-width:3;" x="285.597248" xlink:href="#mebb48b522d" y="196.832721"/>
     <use style="fill-opacity:0;stroke:#1f77b4;stroke-width:3;" x="287.356995" xlink:href="#mebb48b522d" y="287.793"/>
     <use style="fill-opacity:0;stroke:#1f77b4;stroke-width:3;" x="289.27672" xlink:href="#mebb48b522d" y="192.997047"/>
     <use style="fill-opacity:0;stroke:#1f77b4;stroke-width:3;" x="291.196445" xlink:href="#mebb48b522d" y="265.326907"/>
     <use style="fill-opacity:0;stroke:#1f77b4;stroke-width:3;" x="292.956193" xlink:href="#mebb48b522d" y="251.080116"/>
     <use style="fill-opacity:0;stroke:#1f77b4;stroke-width:3;" x="294.875917" xlink:href="#mebb48b522d" y="270.258488"/>
     <use style="fill-opacity:0;stroke:#1f77b4;stroke-width:3;" x="296.795642" xlink:href="#mebb48b522d" y="180.394116"/>
     <use style="fill-opacity:0;stroke:#1f77b4;stroke-width:3;" x="298.55539" xlink:href="#mebb48b522d" y="153.544395"/>
     <use style="fill-opacity:0;stroke:#1f77b4;stroke-width:3;" x="300.475115" xlink:href="#mebb48b522d" y="137.105791"/>
     <use style="fill-opacity:0;stroke:#1f77b4;stroke-width:3;" x="302.394839" xlink:href="#mebb48b522d" y="127.242628"/>
     <use style="fill-opacity:0;stroke:#1f77b4;stroke-width:3;" x="304.154587" xlink:href="#mebb48b522d" y="99.297"/>
     <use style="fill-opacity:0;stroke:#1f77b4;stroke-width:3;" x="306.074312" xlink:href="#mebb48b522d" y="103.680628"/>
     <use style="fill-opacity:0;stroke:#1f77b4;stroke-width:3;" x="307.994037" xlink:href="#mebb48b522d" y="82.858395"/>
     <use style="fill-opacity:0;stroke:#1f77b4;stroke-width:3;" x="309.753784" xlink:href="#mebb48b522d" y="102.584721"/>
     <use style="fill-opacity:0;stroke:#1f77b4;stroke-width:3;" x="311.673509" xlink:href="#mebb48b522d" y="97.105186"/>
     <use style="fill-opacity:0;stroke:#1f77b4;stroke-width:3;" x="313.593234" xlink:href="#mebb48b522d" y="108.064256"/>
     <use style="fill-opacity:0;stroke:#1f77b4;stroke-width:3;" x="315.352982" xlink:href="#mebb48b522d" y="83.406349"/>
     <use style="fill-opacity:0;stroke:#1f77b4;stroke-width:3;" x="317.272706" xlink:href="#mebb48b522d" y="108.612209"/>
     <use style="fill-opacity:0;stroke:#1f77b4;stroke-width:3;" x="319.192431" xlink:href="#mebb48b522d" y="99.297"/>
     <use style="fill-opacity:0;stroke:#1f77b4;stroke-width:3;" x="320.952179" xlink:href="#mebb48b522d" y="92.173605"/>
     <use style="fill-opacity:0;stroke:#1f77b4;stroke-width:3;" x="322.871904" xlink:href="#mebb48b522d" y="103.132674"/>
     <use style="fill-opacity:0;stroke:#1f77b4;stroke-width:3;" x="324.791628" xlink:href="#mebb48b522d" y="107.516302"/>
     <use style="fill-opacity:0;stroke:#1f77b4;stroke-width:3;" x="326.551376" xlink:href="#mebb48b522d" y="101.488814"/>
     <use style="fill-opacity:0;stroke:#1f77b4;stroke-width:3;" x="328.471101" xlink:href="#mebb48b522d" y="129.982395"/>
     <use style="fill-opacity:0;stroke:#1f77b4;stroke-width:3;" x="330.390826" xlink:href="#mebb48b522d" y="163.407558"/>
     <use style="fill-opacity:0;stroke:#1f77b4;stroke-width:3;" x="332.150573" xlink:href="#mebb48b522d" y="227.518116"/>
     <use style="fill-opacity:0;stroke:#1f77b4;stroke-width:3;" x="334.070298" xlink:href="#mebb48b522d" y="220.394721"/>
     <use style="fill-opacity:0;stroke:#1f77b4;stroke-width:3;" x="335.990023" xlink:href="#mebb48b522d" y="283.957326"/>
     <use style="fill-opacity:0;stroke:#1f77b4;stroke-width:3;" x="337.749771" xlink:href="#mebb48b522d" y="271.354395"/>
     <use style="fill-opacity:0;stroke:#1f77b4;stroke-width:3;" x="339.669495" xlink:href="#mebb48b522d" y="265.326907"/>
     <use style="fill-opacity:0;stroke:#1f77b4;stroke-width:3;" x="341.58922" xlink:href="#mebb48b522d" y="247.792395"/>
     <use style="fill-opacity:0;stroke:#1f77b4;stroke-width:3;" x="343.348968" xlink:href="#mebb48b522d" y="196.832721"/>
     <use style="fill-opacity:0;stroke:#1f77b4;stroke-width:3;" x="345.268693" xlink:href="#mebb48b522d" y="168.887093"/>
     <use style="fill-opacity:0;stroke:#1f77b4;stroke-width:3;" x="347.188417" xlink:href="#mebb48b522d" y="140.941465"/>
     <use style="fill-opacity:0;stroke:#1f77b4;stroke-width:3;" x="348.948165" xlink:href="#mebb48b522d" y="104.776535"/>
     <use style="fill-opacity:0;stroke:#1f77b4;stroke-width:3;" x="350.86789" xlink:href="#mebb48b522d" y="81.214535"/>
     <use style="fill-opacity:0;stroke:#1f77b4;stroke-width:3;" x="352.787615" xlink:href="#mebb48b522d" y="93.269512"/>
     <use style="fill-opacity:0;stroke:#1f77b4;stroke-width:3;" x="354.547362" xlink:href="#mebb48b522d" y="98.201093"/>
     <use style="fill-opacity:0;stroke:#1f77b4;stroke-width:3;" x="356.467087" xlink:href="#mebb48b522d" y="92.173605"/>
     <use style="fill-opacity:0;stroke:#1f77b4;stroke-width:3;" x="358.386812" xlink:href="#mebb48b522d" y="66.967744"/>
     <use style="fill-opacity:0;stroke:#1f77b4;stroke-width:3;" x="360.14656" xlink:href="#mebb48b522d" y="76.830907"/>
     <use style="fill-opacity:0;stroke:#1f77b4;stroke-width:3;" x="362.066284" xlink:href="#mebb48b522d" y="76.282953"/>
     <use style="fill-opacity:0;stroke:#1f77b4;stroke-width:3;" x="363.986009" xlink:href="#mebb48b522d" y="83.954302"/>
     <use style="fill-opacity:0;stroke:#1f77b4;stroke-width:3;" x="365.745757" xlink:href="#mebb48b522d" y="86.69407"/>
     <use style="fill-opacity:0;stroke:#1f77b4;stroke-width:3;" x="367.665482" xlink:href="#mebb48b522d" y="99.844953"/>
     <use style="fill-opacity:0;stroke:#1f77b4;stroke-width:3;" x="369.585206" xlink:href="#mebb48b522d" y="88.33793"/>
     <use style="fill-opacity:0;stroke:#1f77b4;stroke-width:3;" x="371.344954" xlink:href="#mebb48b522d" y="84.502256"/>
     <use style="fill-opacity:0;stroke:#1f77b4;stroke-width:3;" x="373.264679" xlink:href="#mebb48b522d" y="75.187047"/>
     <use style="fill-opacity:0;stroke:#1f77b4;stroke-width:3;" x="375.184404" xlink:href="#mebb48b522d" y="92.173605"/>
     <use style="fill-opacity:0;stroke:#1f77b4;stroke-width:3;" x="376.944151" xlink:href="#mebb48b522d" y="79.022721"/>
     <use style="fill-opacity:0;stroke:#1f77b4;stroke-width:3;" x="378.863876" xlink:href="#mebb48b522d" y="84.502256"/>
     <use style="fill-opacity:0;stroke:#1f77b4;stroke-width:3;" x="380.783601" xlink:href="#mebb48b522d" y="74.09114"/>
     <use style="fill-opacity:0;stroke:#1f77b4;stroke-width:3;" x="382.543349" xlink:href="#mebb48b522d" y="68.063651"/>
     <use style="fill-opacity:0;stroke:#1f77b4;stroke-width:3;" x="384.463073" xlink:href="#mebb48b522d" y="98.201093"/>
     <use style="fill-opacity:0;stroke:#1f77b4;stroke-width:3;" x="386.382798" xlink:href="#mebb48b522d" y="69.159558"/>
     <use style="fill-opacity:0;stroke:#1f77b4;stroke-width:3;" x="388.142546" xlink:href="#mebb48b522d" y="69.159558"/>
     <use style="fill-opacity:0;stroke:#1f77b4;stroke-width:3;" x="390.062271" xlink:href="#mebb48b522d" y="108.064256"/>
     <use style="fill-opacity:0;stroke:#1f77b4;stroke-width:3;" x="391.981995" xlink:href="#mebb48b522d" y="59.296395"/>
     <use style="fill-opacity:0;stroke:#1f77b4;stroke-width:3;" x="393.741743" xlink:href="#mebb48b522d" y="105.324488"/>
     <use style="fill-opacity:0;stroke:#1f77b4;stroke-width:3;" x="395.661468" xlink:href="#mebb48b522d" y="97.105186"/>
     <use style="fill-opacity:0;stroke:#1f77b4;stroke-width:3;" x="397.581193" xlink:href="#mebb48b522d" y="91.625651"/>
     <use style="fill-opacity:0;stroke:#1f77b4;stroke-width:3;" x="399.34094" xlink:href="#mebb48b522d" y="83.406349"/>
     <use style="fill-opacity:0;stroke:#1f77b4;stroke-width:3;" x="401.260665" xlink:href="#mebb48b522d" y="73.543186"/>
     <use style="fill-opacity:0;stroke:#1f77b4;stroke-width:3;" x="403.18039" xlink:href="#mebb48b522d" y="86.146116"/>
     <use style="fill-opacity:0;stroke:#1f77b4;stroke-width:3;" x="404.940138" xlink:href="#mebb48b522d" y="79.022721"/>
     <use style="fill-opacity:0;stroke:#1f77b4;stroke-width:3;" x="406.859862" xlink:href="#mebb48b522d" y="88.33793"/>
     <use style="fill-opacity:0;stroke:#1f77b4;stroke-width:3;" x="408.779587" xlink:href="#mebb48b522d" y="70.255465"/>
     <use style="fill-opacity:0;stroke:#1f77b4;stroke-width:3;" x="410.539335" xlink:href="#mebb48b522d" y="96.557233"/>
     <use style="fill-opacity:0;stroke:#1f77b4;stroke-width:3;" x="412.45906" xlink:href="#mebb48b522d" y="89.433837"/>
     <use style="fill-opacity:0;stroke:#1f77b4;stroke-width:3;" x="414.378784" xlink:href="#mebb48b522d" y="96.557233"/>
     <use style="fill-opacity:0;stroke:#1f77b4;stroke-width:3;" x="416.138532" xlink:href="#mebb48b522d" y="64.227977"/>
     <use style="fill-opacity:0;stroke:#1f77b4;stroke-width:3;" x="418.058257" xlink:href="#mebb48b522d" y="93.269512"/>
     <use style="fill-opacity:0;stroke:#1f77b4;stroke-width:3;" x="419.977982" xlink:href="#mebb48b522d" y="86.69407"/>
     <use style="fill-opacity:0;stroke:#1f77b4;stroke-width:3;" x="421.737729" xlink:href="#mebb48b522d" y="75.735"/>
     <use style="fill-opacity:0;stroke:#1f77b4;stroke-width:3;" x="423.657454" xlink:href="#mebb48b522d" y="73.543186"/>
     <use style="fill-opacity:0;stroke:#1f77b4;stroke-width:3;" x="425.577179" xlink:href="#mebb48b522d" y="86.69407"/>
     <use style="fill-opacity:0;stroke:#1f77b4;stroke-width:3;" x="427.336927" xlink:href="#mebb48b522d" y="58.200488"/>
     <use style="fill-opacity:0;stroke:#1f77b4;stroke-width:3;" x="429.256651" xlink:href="#mebb48b522d" y="76.282953"/>
     <use style="fill-opacity:0;stroke:#1f77b4;stroke-width:3;" x="431.176376" xlink:href="#mebb48b522d" y="93.817465"/>
     <use style="fill-opacity:0;stroke:#1f77b4;stroke-width:3;" x="432.936124" xlink:href="#mebb48b522d" y="81.214535"/>
     <use style="fill-opacity:0;stroke:#1f77b4;stroke-width:3;" x="434.855849" xlink:href="#mebb48b522d" y="92.721558"/>
     <use style="fill-opacity:0;stroke:#1f77b4;stroke-width:3;" x="436.775573" xlink:href="#mebb48b522d" y="87.789977"/>
     <use style="fill-opacity:0;stroke:#1f77b4;stroke-width:3;" x="438.535321" xlink:href="#mebb48b522d" y="76.830907"/>
     <use style="fill-opacity:0;stroke:#1f77b4;stroke-width:3;" x="440.455046" xlink:href="#mebb48b522d" y="80.118628"/>
     <use style="fill-opacity:0;stroke:#1f77b4;stroke-width:3;" x="442.374771" xlink:href="#mebb48b522d" y="65.871837"/>
     <use style="fill-opacity:0;stroke:#1f77b4;stroke-width:3;" x="444.134518" xlink:href="#mebb48b522d" y="83.954302"/>
     <use style="fill-opacity:0;stroke:#1f77b4;stroke-width:3;" x="446.054243" xlink:href="#mebb48b522d" y="77.37886"/>
     <use style="fill-opacity:0;stroke:#1f77b4;stroke-width:3;" x="447.973968" xlink:href="#mebb48b522d" y="88.33793"/>
     <use style="fill-opacity:0;stroke:#1f77b4;stroke-width:3;" x="449.733716" xlink:href="#mebb48b522d" y="84.502256"/>
     <use style="fill-opacity:0;stroke:#1f77b4;stroke-width:3;" x="451.65344" xlink:href="#mebb48b522d" y="70.255465"/>
     <use style="fill-opacity:0;stroke:#1f77b4;stroke-width:3;" x="453.573165" xlink:href="#mebb48b522d" y="93.817465"/>
     <use style="fill-opacity:0;stroke:#1f77b4;stroke-width:3;" x="455.332913" xlink:href="#mebb48b522d" y="78.474767"/>
     <use style="fill-opacity:0;stroke:#1f77b4;stroke-width:3;" x="457.252638" xlink:href="#mebb48b522d" y="90.529744"/>
     <use style="fill-opacity:0;stroke:#1f77b4;stroke-width:3;" x="459.172362" xlink:href="#mebb48b522d" y="90.529744"/>
     <use style="fill-opacity:0;stroke:#1f77b4;stroke-width:3;" x="460.93211" xlink:href="#mebb48b522d" y="82.858395"/>
     <use style="fill-opacity:0;stroke:#1f77b4;stroke-width:3;" x="462.851835" xlink:href="#mebb48b522d" y="94.913372"/>
     <use style="fill-opacity:0;stroke:#1f77b4;stroke-width:3;" x="464.77156" xlink:href="#mebb48b522d" y="70.803419"/>
     <use style="fill-opacity:0;stroke:#1f77b4;stroke-width:3;" x="466.531307" xlink:href="#mebb48b522d" y="100.94086"/>
     <use style="fill-opacity:0;stroke:#1f77b4;stroke-width:3;" x="468.451032" xlink:href="#mebb48b522d" y="73.543186"/>
     <use style="fill-opacity:0;stroke:#1f77b4;stroke-width:3;" x="470.370757" xlink:href="#mebb48b522d" y="81.214535"/>
     <use style="fill-opacity:0;stroke:#1f77b4;stroke-width:3;" x="472.130505" xlink:href="#mebb48b522d" y="81.214535"/>
     <use style="fill-opacity:0;stroke:#1f77b4;stroke-width:3;" x="474.050229" xlink:href="#mebb48b522d" y="66.419791"/>
     <use style="fill-opacity:0;stroke:#1f77b4;stroke-width:3;" x="475.969954" xlink:href="#mebb48b522d" y="70.255465"/>
     <use style="fill-opacity:0;stroke:#1f77b4;stroke-width:3;" x="477.729702" xlink:href="#mebb48b522d" y="84.502256"/>
     <use style="fill-opacity:0;stroke:#1f77b4;stroke-width:3;" x="479.649427" xlink:href="#mebb48b522d" y="93.817465"/>
     <use style="fill-opacity:0;stroke:#1f77b4;stroke-width:3;" x="481.569151" xlink:href="#mebb48b522d" y="73.543186"/>
     <use style="fill-opacity:0;stroke:#1f77b4;stroke-width:3;" x="483.328899" xlink:href="#mebb48b522d" y="74.09114"/>
     <use style="fill-opacity:0;stroke:#1f77b4;stroke-width:3;" x="485.248624" xlink:href="#mebb48b522d" y="79.022721"/>
     <use style="fill-opacity:0;stroke:#1f77b4;stroke-width:3;" x="487.168349" xlink:href="#mebb48b522d" y="69.159558"/>
     <use style="fill-opacity:0;stroke:#1f77b4;stroke-width:3;" x="488.928096" xlink:href="#mebb48b522d" y="99.844953"/>
     <use style="fill-opacity:0;stroke:#1f77b4;stroke-width:3;" x="490.847821" xlink:href="#mebb48b522d" y="123.406953"/>
     <use style="fill-opacity:0;stroke:#1f77b4;stroke-width:3;" x="492.767546" xlink:href="#mebb48b522d" y="97.105186"/>
     <use style="fill-opacity:0;stroke:#1f77b4;stroke-width:3;" x="494.527294" xlink:href="#mebb48b522d" y="118.475372"/>
     <use style="fill-opacity:0;stroke:#1f77b4;stroke-width:3;" x="496.447018" xlink:href="#mebb48b522d" y="124.50286"/>
     <use style="fill-opacity:0;stroke:#1f77b4;stroke-width:3;" x="498.366743" xlink:href="#mebb48b522d" y="184.229791"/>
     <use style="fill-opacity:0;stroke:#1f77b4;stroke-width:3;" x="500.126491" xlink:href="#mebb48b522d" y="256.011698"/>
     <use style="fill-opacity:0;stroke:#1f77b4;stroke-width:3;" x="502.046216" xlink:href="#mebb48b522d" y="230.257884"/>
     <use style="fill-opacity:0;stroke:#1f77b4;stroke-width:3;" x="503.96594" xlink:href="#mebb48b522d" y="243.408767"/>
     <use style="fill-opacity:0;stroke:#1f77b4;stroke-width:3;" x="505.725688" xlink:href="#mebb48b522d" y="252.723977"/>
     <use style="fill-opacity:0;stroke:#1f77b4;stroke-width:3;" x="507.645413" xlink:href="#mebb48b522d" y="241.216953"/>
     <use style="fill-opacity:0;stroke:#1f77b4;stroke-width:3;" x="509.565138" xlink:href="#mebb48b522d" y="152.448488"/>
     <use style="fill-opacity:0;stroke:#1f77b4;stroke-width:3;" x="511.324885" xlink:href="#mebb48b522d" y="196.284767"/>
     <use style="fill-opacity:0;stroke:#1f77b4;stroke-width:3;" x="513.24461" xlink:href="#mebb48b522d" y="146.421"/>
     <use style="fill-opacity:0;stroke:#1f77b4;stroke-width:3;" x="515.164335" xlink:href="#mebb48b522d" y="116.831512"/>
     <use style="fill-opacity:0;stroke:#1f77b4;stroke-width:3;" x="516.924083" xlink:href="#mebb48b522d" y="96.009279"/>
     <use style="fill-opacity:0;stroke:#1f77b4;stroke-width:3;" x="518.843807" xlink:href="#mebb48b522d" y="106.420395"/>
     <use style="fill-opacity:0;stroke:#1f77b4;stroke-width:3;" x="520.763532" xlink:href="#mebb48b522d" y="104.776535"/>
     <use style="fill-opacity:0;stroke:#1f77b4;stroke-width:3;" x="522.52328" xlink:href="#mebb48b522d" y="85.598163"/>
     <use style="fill-opacity:0;stroke:#1f77b4;stroke-width:3;" x="524.443005" xlink:href="#mebb48b522d" y="95.461326"/>
     <use style="fill-opacity:0;stroke:#1f77b4;stroke-width:3;" x="526.362729" xlink:href="#mebb48b522d" y="86.69407"/>
     <use style="fill-opacity:0;stroke:#1f77b4;stroke-width:3;" x="528.122477" xlink:href="#mebb48b522d" y="99.297"/>
     <use style="fill-opacity:0;stroke:#1f77b4;stroke-width:3;" x="530.042202" xlink:href="#mebb48b522d" y="97.105186"/>
     <use style="fill-opacity:0;stroke:#1f77b4;stroke-width:3;" x="531.961927" xlink:href="#mebb48b522d" y="118.475372"/>
     <use style="fill-opacity:0;stroke:#1f77b4;stroke-width:3;" x="533.721674" xlink:href="#mebb48b522d" y="99.297"/>
     <use style="fill-opacity:0;stroke:#1f77b4;stroke-width:3;" x="535.641399" xlink:href="#mebb48b522d" y="121.763093"/>
     <use style="fill-opacity:0;stroke:#1f77b4;stroke-width:3;" x="537.561124" xlink:href="#mebb48b522d" y="159.02393"/>
     <use style="fill-opacity:0;stroke:#1f77b4;stroke-width:3;" x="539.320872" xlink:href="#mebb48b522d" y="287.245047"/>
     <use style="fill-opacity:0;stroke:#1f77b4;stroke-width:3;" x="541.240596" xlink:href="#mebb48b522d" y="259.299419"/>
     <use style="fill-opacity:0;stroke:#1f77b4;stroke-width:3;" x="543.160321" xlink:href="#mebb48b522d" y="272.998256"/>
     <use style="fill-opacity:0;stroke:#1f77b4;stroke-width:3;" x="544.920069" xlink:href="#mebb48b522d" y="245.600581"/>
     <use style="fill-opacity:0;stroke:#1f77b4;stroke-width:3;" x="546.839794" xlink:href="#mebb48b522d" y="254.915791"/>
     <use style="fill-opacity:0;stroke:#1f77b4;stroke-width:3;" x="548.759518" xlink:href="#mebb48b522d" y="183.681837"/>
     <use style="fill-opacity:0;stroke:#1f77b4;stroke-width:3;" x="550.519266" xlink:href="#mebb48b522d" y="160.119837"/>
     <use style="fill-opacity:0;stroke:#1f77b4;stroke-width:3;" x="552.438991" xlink:href="#mebb48b522d" y="119.023326"/>
     <use style="fill-opacity:0;stroke:#1f77b4;stroke-width:3;" x="554.358716" xlink:href="#mebb48b522d" y="79.022721"/>
     <use style="fill-opacity:0;stroke:#1f77b4;stroke-width:3;" x="556.118463" xlink:href="#mebb48b522d" y="91.625651"/>
     <use style="fill-opacity:0;stroke:#1f77b4;stroke-width:3;" x="558.038188" xlink:href="#mebb48b522d" y="118.475372"/>
     <use style="fill-opacity:0;stroke:#1f77b4;stroke-width:3;" x="559.957913" xlink:href="#mebb48b522d" y="78.474767"/>
     <use style="fill-opacity:0;stroke:#1f77b4;stroke-width:3;" x="561.717661" xlink:href="#mebb48b522d" y="94.913372"/>
     <use style="fill-opacity:0;stroke:#1f77b4;stroke-width:3;" x="563.637385" xlink:href="#mebb48b522d" y="76.830907"/>
     <use style="fill-opacity:0;stroke:#1f77b4;stroke-width:3;" x="565.55711" xlink:href="#mebb48b522d" y="69.707512"/>
     <use style="fill-opacity:0;stroke:#1f77b4;stroke-width:3;" x="567.316858" xlink:href="#mebb48b522d" y="94.365419"/>
     <use style="fill-opacity:0;stroke:#1f77b4;stroke-width:3;" x="569.236583" xlink:href="#mebb48b522d" y="87.789977"/>
     <use style="fill-opacity:0;stroke:#1f77b4;stroke-width:3;" x="571.156307" xlink:href="#mebb48b522d" y="95.461326"/>
     <use style="fill-opacity:0;stroke:#1f77b4;stroke-width:3;" x="572.916055" xlink:href="#mebb48b522d" y="92.721558"/>
     <use style="fill-opacity:0;stroke:#1f77b4;stroke-width:3;" x="574.83578" xlink:href="#mebb48b522d" y="97.105186"/>
     <use style="fill-opacity:0;stroke:#1f77b4;stroke-width:3;" x="576.755505" xlink:href="#mebb48b522d" y="97.105186"/>
     <use style="fill-opacity:0;stroke:#1f77b4;stroke-width:3;" x="578.515252" xlink:href="#mebb48b522d" y="89.981791"/>
     <use style="fill-opacity:0;stroke:#1f77b4;stroke-width:3;" x="580.434977" xlink:href="#mebb48b522d" y="124.50286"/>
     <use style="fill-opacity:0;stroke:#1f77b4;stroke-width:3;" x="582.354702" xlink:href="#mebb48b522d" y="117.379465"/>
     <use style="fill-opacity:0;stroke:#1f77b4;stroke-width:3;" x="584.11445" xlink:href="#mebb48b522d" y="145.325093"/>
     <use style="fill-opacity:0;stroke:#1f77b4;stroke-width:3;" x="586.034174" xlink:href="#mebb48b522d" y="212.723372"/>
     <use style="fill-opacity:0;stroke:#1f77b4;stroke-width:3;" x="587.953899" xlink:href="#mebb48b522d" y="191.90114"/>
     <use style="fill-opacity:0;stroke:#1f77b4;stroke-width:3;" x="589.713647" xlink:href="#mebb48b522d" y="198.476581"/>
     <use style="fill-opacity:0;stroke:#1f77b4;stroke-width:3;" x="591.633372" xlink:href="#mebb48b522d" y="202.312256"/>
     <use style="fill-opacity:0;stroke:#1f77b4;stroke-width:3;" x="593.553096" xlink:href="#mebb48b522d" y="194.092953"/>
     <use style="fill-opacity:0;stroke:#1f77b4;stroke-width:3;" x="595.312844" xlink:href="#mebb48b522d" y="161.763698"/>
     <use style="fill-opacity:0;stroke:#1f77b4;stroke-width:3;" x="597.232569" xlink:href="#mebb48b522d" y="124.50286"/>
     <use style="fill-opacity:0;stroke:#1f77b4;stroke-width:3;" x="599.152294" xlink:href="#mebb48b522d" y="121.21514"/>
     <use style="fill-opacity:0;stroke:#1f77b4;stroke-width:3;" x="600.912041" xlink:href="#mebb48b522d" y="117.927419"/>
     <use style="fill-opacity:0;stroke:#1f77b4;stroke-width:3;" x="602.831766" xlink:href="#mebb48b522d" y="87.789977"/>
     <use style="fill-opacity:0;stroke:#1f77b4;stroke-width:3;" x="604.751491" xlink:href="#mebb48b522d" y="91.625651"/>
     <use style="fill-opacity:0;stroke:#1f77b4;stroke-width:3;" x="606.511239" xlink:href="#mebb48b522d" y="79.022721"/>
     <use style="fill-opacity:0;stroke:#1f77b4;stroke-width:3;" x="608.430963" xlink:href="#mebb48b522d" y="105.872442"/>
     <use style="fill-opacity:0;stroke:#1f77b4;stroke-width:3;" x="610.350688" xlink:href="#mebb48b522d" y="91.077698"/>
     <use style="fill-opacity:0;stroke:#1f77b4;stroke-width:3;" x="612.110436" xlink:href="#mebb48b522d" y="113.543791"/>
     <use style="fill-opacity:0;stroke:#1f77b4;stroke-width:3;" x="614.030161" xlink:href="#mebb48b522d" y="109.708116"/>
     <use style="fill-opacity:0;stroke:#1f77b4;stroke-width:3;" x="615.949885" xlink:href="#mebb48b522d" y="104.228581"/>
     <use style="fill-opacity:0;stroke:#1f77b4;stroke-width:3;" x="617.709633" xlink:href="#mebb48b522d" y="85.598163"/>
     <use style="fill-opacity:0;stroke:#1f77b4;stroke-width:3;" x="619.629358" xlink:href="#mebb48b522d" y="142.585326"/>
     <use style="fill-opacity:0;stroke:#1f77b4;stroke-width:3;" x="621.549083" xlink:href="#mebb48b522d" y="163.955512"/>
     <use style="fill-opacity:0;stroke:#1f77b4;stroke-width:3;" x="623.30883" xlink:href="#mebb48b522d" y="226.422209"/>
     <use style="fill-opacity:0;stroke:#1f77b4;stroke-width:3;" x="625.228555" xlink:href="#mebb48b522d" y="231.901744"/>
     <use style="fill-opacity:0;stroke:#1f77b4;stroke-width:3;" x="627.14828" xlink:href="#mebb48b522d" y="256.559651"/>
     <use style="fill-opacity:0;stroke:#1f77b4;stroke-width:3;" x="628.908028" xlink:href="#mebb48b522d" y="219.298814"/>
     <use style="fill-opacity:0;stroke:#1f77b4;stroke-width:3;" x="630.827752" xlink:href="#mebb48b522d" y="183.133884"/>
     <use style="fill-opacity:0;stroke:#1f77b4;stroke-width:3;" x="632.747477" xlink:href="#mebb48b522d" y="132.722163"/>
     <use style="fill-opacity:0;stroke:#1f77b4;stroke-width:3;" x="634.507225" xlink:href="#mebb48b522d" y="128.886488"/>
     <use style="fill-opacity:0;stroke:#1f77b4;stroke-width:3;" x="636.42695" xlink:href="#mebb48b522d" y="115.735605"/>
     <use style="fill-opacity:0;stroke:#1f77b4;stroke-width:3;" x="638.346674" xlink:href="#mebb48b522d" y="120.667186"/>
     <use style="fill-opacity:0;stroke:#1f77b4;stroke-width:3;" x="640.106422" xlink:href="#mebb48b522d" y="105.872442"/>
     <use style="fill-opacity:0;stroke:#1f77b4;stroke-width:3;" x="642.026147" xlink:href="#mebb48b522d" y="92.721558"/>
     <use style="fill-opacity:0;stroke:#1f77b4;stroke-width:3;" x="643.945872" xlink:href="#mebb48b522d" y="70.255465"/>
     <use style="fill-opacity:0;stroke:#1f77b4;stroke-width:3;" x="645.705619" xlink:href="#mebb48b522d" y="88.33793"/>
     <use style="fill-opacity:0;stroke:#1f77b4;stroke-width:3;" x="647.625344" xlink:href="#mebb48b522d" y="88.885884"/>
     <use style="fill-opacity:0;stroke:#1f77b4;stroke-width:3;" x="649.545069" xlink:href="#mebb48b522d" y="77.926814"/>
     <use style="fill-opacity:0;stroke:#1f77b4;stroke-width:3;" x="651.304817" xlink:href="#mebb48b522d" y="82.858395"/>
     <use style="fill-opacity:0;stroke:#1f77b4;stroke-width:3;" x="653.224541" xlink:href="#mebb48b522d" y="104.776535"/>
     <use style="fill-opacity:0;stroke:#1f77b4;stroke-width:3;" x="655.144266" xlink:href="#mebb48b522d" y="91.077698"/>
     <use style="fill-opacity:0;stroke:#1f77b4;stroke-width:3;" x="656.904014" xlink:href="#mebb48b522d" y="71.899326"/>
     <use style="fill-opacity:0;stroke:#1f77b4;stroke-width:3;" x="658.823739" xlink:href="#mebb48b522d" y="68.611605"/>
     <use style="fill-opacity:0;stroke:#1f77b4;stroke-width:3;" x="660.743463" xlink:href="#mebb48b522d" y="81.762488"/>
     <use style="fill-opacity:0;stroke:#1f77b4;stroke-width:3;" x="662.503211" xlink:href="#mebb48b522d" y="76.282953"/>
     <use style="fill-opacity:0;stroke:#1f77b4;stroke-width:3;" x="664.422936" xlink:href="#mebb48b522d" y="94.913372"/>
     <use style="fill-opacity:0;stroke:#1f77b4;stroke-width:3;" x="666.342661" xlink:href="#mebb48b522d" y="75.187047"/>
     <use style="fill-opacity:0;stroke:#1f77b4;stroke-width:3;" x="668.102408" xlink:href="#mebb48b522d" y="72.447279"/>
     <use style="fill-opacity:0;stroke:#1f77b4;stroke-width:3;" x="670.022133" xlink:href="#mebb48b522d" y="93.269512"/>
     <use style="fill-opacity:0;stroke:#1f77b4;stroke-width:3;" x="671.941858" xlink:href="#mebb48b522d" y="89.981791"/>
     <use style="fill-opacity:0;stroke:#1f77b4;stroke-width:3;" x="673.701606" xlink:href="#mebb48b522d" y="86.69407"/>
     <use style="fill-opacity:0;stroke:#1f77b4;stroke-width:3;" x="675.62133" xlink:href="#mebb48b522d" y="102.036767"/>
     <use style="fill-opacity:0;stroke:#1f77b4;stroke-width:3;" x="677.541055" xlink:href="#mebb48b522d" y="83.954302"/>
     <use style="fill-opacity:0;stroke:#1f77b4;stroke-width:3;" x="679.300803" xlink:href="#mebb48b522d" y="76.282953"/>
     <use style="fill-opacity:0;stroke:#1f77b4;stroke-width:3;" x="681.220528" xlink:href="#mebb48b522d" y="86.69407"/>
     <use style="fill-opacity:0;stroke:#1f77b4;stroke-width:3;" x="683.140252" xlink:href="#mebb48b522d" y="70.255465"/>
     <use style="fill-opacity:0;stroke:#1f77b4;stroke-width:3;" x="684.9" xlink:href="#mebb48b522d" y="64.77593"/>
    </g>
   </g>
   <g id="line2d_15">
    <path clip-path="url(#p93ae5c815d)" d="M 126.9 85.75682 
L 168.014106 85.797065 
L 169.773853 85.925276 
L 171.693578 86.446636 
L 173.613303 88.166996 
L 175.37305 92.356663 
L 177.292775 102.767858 
L 179.2125 123.167603 
L 180.972248 152.774052 
L 184.811697 236.261855 
L 186.571445 262.135264 
L 188.49117 265.869404 
L 190.410894 242.688784 
L 192.170642 206.069299 
L 194.090367 163.088937 
L 196.010092 128.167763 
L 197.769839 107.02753 
L 199.689564 94.362435 
L 201.609289 88.727467 
L 203.369037 86.731509 
L 205.288761 86.005115 
L 207.208486 85.81125 
L 210.887959 85.768441 
L 214.567431 85.884683 
L 216.487156 86.173955 
L 218.406881 86.977337 
L 220.166628 88.723949 
L 222.086353 92.800434 
L 224.006078 100.749347 
L 225.765826 112.983353 
L 227.68555 132.774402 
L 229.605275 158.559672 
L 231.365023 184.518987 
L 233.284748 209.826982 
L 235.204472 225.51082 
L 236.96422 227.378974 
L 238.883945 215.181389 
L 240.80367 191.809688 
L 244.483142 139.128199 
L 246.402867 117.571159 
L 248.162615 103.747158 
L 250.082339 94.457284 
L 252.002064 89.529637 
L 253.761812 87.350522 
L 255.681537 86.317509 
L 257.601261 85.933715 
L 261.280734 85.771782 
L 266.879931 85.802951 
L 268.799656 85.916673 
L 270.559404 86.214599 
L 272.479128 87.065153 
L 274.398853 89.133273 
L 276.158601 93.118124 
L 278.078326 101.379098 
L 279.99805 115.693981 
L 281.757798 135.439056 
L 283.677523 164.048248 
L 287.356995 226.488186 
L 289.27672 250.431724 
L 291.196445 259.753331 
L 292.956193 253.067642 
L 294.875917 231.129898 
L 296.795642 199.813453 
L 298.55539 169.240297 
L 300.475115 139.618999 
L 302.394839 117.136169 
L 304.154587 103.240002 
L 306.074312 94.132664 
L 307.994037 89.380338 
L 309.753784 87.294323 
L 311.673509 86.307709 
L 313.593234 85.951822 
L 315.352982 85.884238 
L 317.272706 86.031166 
L 319.192431 86.606975 
L 320.952179 88.018074 
L 322.871904 91.659033 
L 324.791628 99.473664 
L 326.551376 112.582989 
L 328.471101 135.631817 
L 330.390826 168.291553 
L 334.070298 242.274572 
L 335.990023 270.182059 
L 337.749771 279.27168 
L 339.669495 268.165036 
L 341.58922 238.796494 
L 345.268693 164.701936 
L 347.188417 132.918339 
L 348.948165 112.307177 
L 350.86789 98.445201 
L 352.787615 91.154059 
L 354.547362 87.982427 
L 356.467087 86.514154 
L 358.386812 85.9862 
L 360.14656 85.826103 
L 365.745757 85.757621 
L 479.649427 85.778075 
L 481.569151 85.837965 
L 483.328899 86.008755 
L 485.248624 86.538431 
L 487.168349 87.932913 
L 488.928096 90.815136 
L 490.847821 97.200912 
L 492.767546 108.991787 
L 494.527294 126.19314 
L 496.447018 152.471419 
L 500.126491 214.459044 
L 502.046216 240.606086 
L 503.96594 252.94962 
L 505.725688 248.85503 
L 507.645413 228.858964 
L 509.565138 198.432038 
L 511.324885 168.049472 
L 513.24461 138.410879 
L 515.164335 115.990298 
L 516.924083 102.288759 
L 518.843807 93.471235 
L 520.763532 88.991179 
L 522.52328 87.101231 
L 524.443005 86.317313 
L 526.362729 86.366896 
L 528.122477 87.359168 
L 530.042202 90.707387 
L 531.961927 99.132196 
L 533.721674 114.790868 
L 535.641399 143.961509 
L 537.561124 185.518016 
L 539.320872 228.213426 
L 541.240596 266.578859 
L 543.160321 281.987456 
L 544.920069 270.062908 
L 546.839794 233.878825 
L 548.759518 187.533002 
L 550.519266 148.63079 
L 552.438991 117.750332 
L 554.358716 99.67555 
L 556.118463 91.412389 
L 558.038188 87.578955 
L 559.957913 86.258792 
L 561.717661 85.891273 
L 565.55711 85.769774 
L 569.236583 85.876239 
L 571.156307 86.162876 
L 572.916055 86.880804 
L 574.83578 88.80216 
L 576.755505 93.082546 
L 578.515252 100.510977 
L 580.434977 114.012859 
L 582.354702 133.801644 
L 586.034174 181.059417 
L 587.953899 200.297696 
L 589.713647 207.874452 
L 591.633372 202.603439 
L 593.553096 185.020955 
L 597.232569 137.833769 
L 599.152294 117.027854 
L 600.912041 103.405611 
L 602.831766 94.194192 
L 604.751491 89.340054 
L 606.511239 87.23975 
L 608.430963 86.32392 
L 610.350688 86.238445 
L 612.110436 86.988304 
L 614.030161 89.790816 
L 615.949885 97.212654 
L 617.709633 111.392615 
L 619.629358 137.984285 
L 623.30883 211.179959 
L 625.228555 239.33866 
L 627.14828 243.698659 
L 628.908028 224.767741 
L 630.827752 188.065753 
L 632.747477 148.994119 
L 634.507225 120.658977 
L 636.42695 101.195826 
L 638.346674 91.492455 
L 640.106422 87.741944 
L 642.026147 86.284605 
L 643.945872 85.874668 
L 647.625344 85.760907 
L 684.9 85.75682 
L 684.9 85.75682 
" style="fill:none;stroke:#ff7f0e;stroke-linecap:square;stroke-width:2;"/>
   </g>
   <g id="patch_3">
    <path d="M 99 299.574 
L 99 40.392 
" style="fill:none;stroke:#000000;stroke-linecap:square;stroke-linejoin:miter;stroke-width:0.8;"/>
   </g>
   <g id="patch_4">
    <path d="M 712.8 299.574 
L 712.8 40.392 
" style="fill:none;stroke:#000000;stroke-linecap:square;stroke-linejoin:miter;stroke-width:0.8;"/>
   </g>
   <g id="patch_5">
    <path d="M 99 299.574 
L 712.8 299.574 
" style="fill:none;stroke:#000000;stroke-linecap:square;stroke-linejoin:miter;stroke-width:0.8;"/>
   </g>
   <g id="patch_6">
    <path d="M 99 40.392 
L 712.8 40.392 
" style="fill:none;stroke:#000000;stroke-linecap:square;stroke-linejoin:miter;stroke-width:0.8;"/>
   </g>
  </g>
 </g>
 <defs>
  <clipPath id="p93ae5c815d">
   <rect height="259.182" width="613.8" x="99" y="40.392"/>
  </clipPath>
 </defs>
</svg>
