<?xml version="1.0" encoding="utf-8" standalone="no"?>
<!DOCTYPE svg PUBLIC "-//W3C//DTD SVG 1.1//EN"
  "http://www.w3.org/Graphics/SVG/1.1/DTD/svg11.dtd">
<!-- Created with matplotlib (https://matplotlib.org/) -->
<svg height="342.9pt" version="1.1" viewBox="0 0 513 342.9" width="513pt" xmlns="http://www.w3.org/2000/svg" xmlns:xlink="http://www.w3.org/1999/xlink">
 <defs>
  <style type="text/css">
*{stroke-linecap:butt;stroke-linejoin:round;}
  </style>
 </defs>
 <g id="figure_1">
  <g id="patch_1">
   <path d="M 0 342.9 
L 513 342.9 
L 513 0 
L 0 0 
z
" style="fill:#ffffff;"/>
  </g>
  <g id="axes_1">
   <g id="patch_2">
    <path d="M 64.125 305.181 
L 461.7 305.181 
L 461.7 41.148 
L 64.125 41.148 
z
" style="fill:#ffffff;"/>
   </g>
   <g id="matplotlib.axis_1">
    <g id="xtick_1">
     <g id="line2d_1">
      <defs>
       <path d="M 0 0 
L 0 3.5 
" id="m83c3407208" style="stroke:#000000;stroke-width:0.8;"/>
      </defs>
      <g>
       <use style="stroke:#000000;stroke-width:0.8;" x="82.196591" xlink:href="#m83c3407208" y="305.181"/>
      </g>
     </g>
     <g id="text_1">
      <!-- 2500 -->
      <defs>
       <path d="M 19.1875 8.296875 
L 53.609375 8.296875 
L 53.609375 0 
L 7.328125 0 
L 7.328125 8.296875 
Q 12.9375 14.109375 22.625 23.890625 
Q 32.328125 33.6875 34.8125 36.53125 
Q 39.546875 41.84375 41.421875 45.53125 
Q 43.3125 49.21875 43.3125 52.78125 
Q 43.3125 58.59375 39.234375 62.25 
Q 35.15625 65.921875 28.609375 65.921875 
Q 23.96875 65.921875 18.8125 64.3125 
Q 13.671875 62.703125 7.8125 59.421875 
L 7.8125 69.390625 
Q 13.765625 71.78125 18.9375 73 
Q 24.125 74.21875 28.421875 74.21875 
Q 39.75 74.21875 46.484375 68.546875 
Q 53.21875 62.890625 53.21875 53.421875 
Q 53.21875 48.921875 51.53125 44.890625 
Q 49.859375 40.875 45.40625 35.40625 
Q 44.1875 33.984375 37.640625 27.21875 
Q 31.109375 20.453125 19.1875 8.296875 
z
" id="DejaVuSans-50"/>
       <path d="M 10.796875 72.90625 
L 49.515625 72.90625 
L 49.515625 64.59375 
L 19.828125 64.59375 
L 19.828125 46.734375 
Q 21.96875 47.46875 24.109375 47.828125 
Q 26.265625 48.1875 28.421875 48.1875 
Q 40.625 48.1875 47.75 41.5 
Q 54.890625 34.8125 54.890625 23.390625 
Q 54.890625 11.625 47.5625 5.09375 
Q 40.234375 -1.421875 26.90625 -1.421875 
Q 22.3125 -1.421875 17.546875 -0.640625 
Q 12.796875 0.140625 7.71875 1.703125 
L 7.71875 11.625 
Q 12.109375 9.234375 16.796875 8.0625 
Q 21.484375 6.890625 26.703125 6.890625 
Q 35.15625 6.890625 40.078125 11.328125 
Q 45.015625 15.765625 45.015625 23.390625 
Q 45.015625 31 40.078125 35.4375 
Q 35.15625 39.890625 26.703125 39.890625 
Q 22.75 39.890625 18.8125 39.015625 
Q 14.890625 38.140625 10.796875 36.28125 
z
" id="DejaVuSans-53"/>
       <path d="M 31.78125 66.40625 
Q 24.171875 66.40625 20.328125 58.90625 
Q 16.5 51.421875 16.5 36.375 
Q 16.5 21.390625 20.328125 13.890625 
Q 24.171875 6.390625 31.78125 6.390625 
Q 39.453125 6.390625 43.28125 13.890625 
Q 47.125 21.390625 47.125 36.375 
Q 47.125 51.421875 43.28125 58.90625 
Q 39.453125 66.40625 31.78125 66.40625 
z
M 31.78125 74.21875 
Q 44.046875 74.21875 50.515625 64.515625 
Q 56.984375 54.828125 56.984375 36.375 
Q 56.984375 17.96875 50.515625 8.265625 
Q 44.046875 -1.421875 31.78125 -1.421875 
Q 19.53125 -1.421875 13.0625 8.265625 
Q 6.59375 17.96875 6.59375 36.375 
Q 6.59375 54.828125 13.0625 64.515625 
Q 19.53125 74.21875 31.78125 74.21875 
z
" id="DejaVuSans-48"/>
      </defs>
      <g transform="translate(56.746591 327.377875)scale(0.2 -0.2)">
       <use xlink:href="#DejaVuSans-50"/>
       <use x="63.623047" xlink:href="#DejaVuSans-53"/>
       <use x="127.246094" xlink:href="#DejaVuSans-48"/>
       <use x="190.869141" xlink:href="#DejaVuSans-48"/>
      </g>
     </g>
    </g>
    <g id="xtick_2">
     <g id="line2d_2">
      <g>
       <use style="stroke:#000000;stroke-width:0.8;" x="172.849166" xlink:href="#m83c3407208" y="305.181"/>
      </g>
     </g>
     <g id="text_2">
      <!-- 2600 -->
      <defs>
       <path d="M 33.015625 40.375 
Q 26.375 40.375 22.484375 35.828125 
Q 18.609375 31.296875 18.609375 23.390625 
Q 18.609375 15.53125 22.484375 10.953125 
Q 26.375 6.390625 33.015625 6.390625 
Q 39.65625 6.390625 43.53125 10.953125 
Q 47.40625 15.53125 47.40625 23.390625 
Q 47.40625 31.296875 43.53125 35.828125 
Q 39.65625 40.375 33.015625 40.375 
z
M 52.59375 71.296875 
L 52.59375 62.3125 
Q 48.875 64.0625 45.09375 64.984375 
Q 41.3125 65.921875 37.59375 65.921875 
Q 27.828125 65.921875 22.671875 59.328125 
Q 17.53125 52.734375 16.796875 39.40625 
Q 19.671875 43.65625 24.015625 45.921875 
Q 28.375 48.1875 33.59375 48.1875 
Q 44.578125 48.1875 50.953125 41.515625 
Q 57.328125 34.859375 57.328125 23.390625 
Q 57.328125 12.15625 50.6875 5.359375 
Q 44.046875 -1.421875 33.015625 -1.421875 
Q 20.359375 -1.421875 13.671875 8.265625 
Q 6.984375 17.96875 6.984375 36.375 
Q 6.984375 53.65625 15.1875 63.9375 
Q 23.390625 74.21875 37.203125 74.21875 
Q 40.921875 74.21875 44.703125 73.484375 
Q 48.484375 72.75 52.59375 71.296875 
z
" id="DejaVuSans-54"/>
      </defs>
      <g transform="translate(147.399166 327.377875)scale(0.2 -0.2)">
       <use xlink:href="#DejaVuSans-50"/>
       <use x="63.623047" xlink:href="#DejaVuSans-54"/>
       <use x="127.246094" xlink:href="#DejaVuSans-48"/>
       <use x="190.869141" xlink:href="#DejaVuSans-48"/>
      </g>
     </g>
    </g>
    <g id="xtick_3">
     <g id="line2d_3">
      <g>
       <use style="stroke:#000000;stroke-width:0.8;" x="263.501742" xlink:href="#m83c3407208" y="305.181"/>
      </g>
     </g>
     <g id="text_3">
      <!-- 2700 -->
      <defs>
       <path d="M 8.203125 72.90625 
L 55.078125 72.90625 
L 55.078125 68.703125 
L 28.609375 0 
L 18.3125 0 
L 43.21875 64.59375 
L 8.203125 64.59375 
z
" id="DejaVuSans-55"/>
      </defs>
      <g transform="translate(238.051742 327.377875)scale(0.2 -0.2)">
       <use xlink:href="#DejaVuSans-50"/>
       <use x="63.623047" xlink:href="#DejaVuSans-55"/>
       <use x="127.246094" xlink:href="#DejaVuSans-48"/>
       <use x="190.869141" xlink:href="#DejaVuSans-48"/>
      </g>
     </g>
    </g>
    <g id="xtick_4">
     <g id="line2d_4">
      <g>
       <use style="stroke:#000000;stroke-width:0.8;" x="354.154317" xlink:href="#m83c3407208" y="305.181"/>
      </g>
     </g>
     <g id="text_4">
      <!-- 2800 -->
      <defs>
       <path d="M 31.78125 34.625 
Q 24.75 34.625 20.71875 30.859375 
Q 16.703125 27.09375 16.703125 20.515625 
Q 16.703125 13.921875 20.71875 10.15625 
Q 24.75 6.390625 31.78125 6.390625 
Q 38.8125 6.390625 42.859375 10.171875 
Q 46.921875 13.96875 46.921875 20.515625 
Q 46.921875 27.09375 42.890625 30.859375 
Q 38.875 34.625 31.78125 34.625 
z
M 21.921875 38.8125 
Q 15.578125 40.375 12.03125 44.71875 
Q 8.5 49.078125 8.5 55.328125 
Q 8.5 64.0625 14.71875 69.140625 
Q 20.953125 74.21875 31.78125 74.21875 
Q 42.671875 74.21875 48.875 69.140625 
Q 55.078125 64.0625 55.078125 55.328125 
Q 55.078125 49.078125 51.53125 44.71875 
Q 48 40.375 41.703125 38.8125 
Q 48.828125 37.15625 52.796875 32.3125 
Q 56.78125 27.484375 56.78125 20.515625 
Q 56.78125 9.90625 50.3125 4.234375 
Q 43.84375 -1.421875 31.78125 -1.421875 
Q 19.734375 -1.421875 13.25 4.234375 
Q 6.78125 9.90625 6.78125 20.515625 
Q 6.78125 27.484375 10.78125 32.3125 
Q 14.796875 37.15625 21.921875 38.8125 
z
M 18.3125 54.390625 
Q 18.3125 48.734375 21.84375 45.5625 
Q 25.390625 42.390625 31.78125 42.390625 
Q 38.140625 42.390625 41.71875 45.5625 
Q 45.3125 48.734375 45.3125 54.390625 
Q 45.3125 60.0625 41.71875 63.234375 
Q 38.140625 66.40625 31.78125 66.40625 
Q 25.390625 66.40625 21.84375 63.234375 
Q 18.3125 60.0625 18.3125 54.390625 
z
" id="DejaVuSans-56"/>
      </defs>
      <g transform="translate(328.704317 327.377875)scale(0.2 -0.2)">
       <use xlink:href="#DejaVuSans-50"/>
       <use x="63.623047" xlink:href="#DejaVuSans-56"/>
       <use x="127.246094" xlink:href="#DejaVuSans-48"/>
       <use x="190.869141" xlink:href="#DejaVuSans-48"/>
      </g>
     </g>
    </g>
    <g id="xtick_5">
     <g id="line2d_5">
      <g>
       <use style="stroke:#000000;stroke-width:0.8;" x="444.806893" xlink:href="#m83c3407208" y="305.181"/>
      </g>
     </g>
     <g id="text_5">
      <!-- 2900 -->
      <defs>
       <path d="M 10.984375 1.515625 
L 10.984375 10.5 
Q 14.703125 8.734375 18.5 7.8125 
Q 22.3125 6.890625 25.984375 6.890625 
Q 35.75 6.890625 40.890625 13.453125 
Q 46.046875 20.015625 46.78125 33.40625 
Q 43.953125 29.203125 39.59375 26.953125 
Q 35.25 24.703125 29.984375 24.703125 
Q 19.046875 24.703125 12.671875 31.3125 
Q 6.296875 37.9375 6.296875 49.421875 
Q 6.296875 60.640625 12.9375 67.421875 
Q 19.578125 74.21875 30.609375 74.21875 
Q 43.265625 74.21875 49.921875 64.515625 
Q 56.59375 54.828125 56.59375 36.375 
Q 56.59375 19.140625 48.40625 8.859375 
Q 40.234375 -1.421875 26.421875 -1.421875 
Q 22.703125 -1.421875 18.890625 -0.6875 
Q 15.09375 0.046875 10.984375 1.515625 
z
M 30.609375 32.421875 
Q 37.25 32.421875 41.125 36.953125 
Q 45.015625 41.5 45.015625 49.421875 
Q 45.015625 57.28125 41.125 61.84375 
Q 37.25 66.40625 30.609375 66.40625 
Q 23.96875 66.40625 20.09375 61.84375 
Q 16.21875 57.28125 16.21875 49.421875 
Q 16.21875 41.5 20.09375 36.953125 
Q 23.96875 32.421875 30.609375 32.421875 
z
" id="DejaVuSans-57"/>
      </defs>
      <g transform="translate(419.356893 327.377875)scale(0.2 -0.2)">
       <use xlink:href="#DejaVuSans-50"/>
       <use x="63.623047" xlink:href="#DejaVuSans-57"/>
       <use x="127.246094" xlink:href="#DejaVuSans-48"/>
       <use x="190.869141" xlink:href="#DejaVuSans-48"/>
      </g>
     </g>
    </g>
    <g id="text_6">
     <!-- Microwave frequency (MHz) -->
     <defs>
      <path d="M 9.1875 72.90625 
L 33.109375 72.90625 
L 49.703125 33.890625 
L 66.40625 72.90625 
L 90.28125 72.90625 
L 90.28125 0 
L 72.515625 0 
L 72.515625 53.328125 
L 55.71875 14.015625 
L 43.796875 14.015625 
L 27 53.328125 
L 27 0 
L 9.1875 0 
z
" id="DejaVuSans-Bold-77"/>
      <path d="M 8.40625 54.6875 
L 25.875 54.6875 
L 25.875 0 
L 8.40625 0 
z
M 8.40625 75.984375 
L 25.875 75.984375 
L 25.875 61.71875 
L 8.40625 61.71875 
z
" id="DejaVuSans-Bold-105"/>
      <path d="M 52.59375 52.984375 
L 52.59375 38.71875 
Q 49.03125 41.15625 45.4375 42.328125 
Q 41.84375 43.5 37.984375 43.5 
Q 30.671875 43.5 26.59375 39.234375 
Q 22.515625 34.96875 22.515625 27.296875 
Q 22.515625 19.625 26.59375 15.34375 
Q 30.671875 11.078125 37.984375 11.078125 
Q 42.09375 11.078125 45.78125 12.296875 
Q 49.46875 13.53125 52.59375 15.921875 
L 52.59375 1.609375 
Q 48.484375 0.09375 44.265625 -0.65625 
Q 40.046875 -1.421875 35.796875 -1.421875 
Q 21 -1.421875 12.640625 6.171875 
Q 4.296875 13.765625 4.296875 27.296875 
Q 4.296875 40.828125 12.640625 48.40625 
Q 21 56 35.796875 56 
Q 40.09375 56 44.265625 55.25 
Q 48.4375 54.5 52.59375 52.984375 
z
" id="DejaVuSans-Bold-99"/>
      <path d="M 49.03125 39.796875 
Q 46.734375 40.875 44.453125 41.375 
Q 42.1875 41.890625 39.890625 41.890625 
Q 33.15625 41.890625 29.515625 37.5625 
Q 25.875 33.25 25.875 25.203125 
L 25.875 0 
L 8.40625 0 
L 8.40625 54.6875 
L 25.875 54.6875 
L 25.875 45.703125 
Q 29.25 51.078125 33.609375 53.53125 
Q 37.984375 56 44.09375 56 
Q 44.96875 56 45.984375 55.921875 
Q 47.015625 55.859375 48.96875 55.609375 
z
" id="DejaVuSans-Bold-114"/>
      <path d="M 34.421875 43.5 
Q 28.609375 43.5 25.5625 39.328125 
Q 22.515625 35.15625 22.515625 27.296875 
Q 22.515625 19.4375 25.5625 15.25 
Q 28.609375 11.078125 34.421875 11.078125 
Q 40.140625 11.078125 43.15625 15.25 
Q 46.1875 19.4375 46.1875 27.296875 
Q 46.1875 35.15625 43.15625 39.328125 
Q 40.140625 43.5 34.421875 43.5 
z
M 34.421875 56 
Q 48.53125 56 56.46875 48.375 
Q 64.40625 40.765625 64.40625 27.296875 
Q 64.40625 13.8125 56.46875 6.1875 
Q 48.53125 -1.421875 34.421875 -1.421875 
Q 20.265625 -1.421875 12.28125 6.1875 
Q 4.296875 13.8125 4.296875 27.296875 
Q 4.296875 40.765625 12.28125 48.375 
Q 20.265625 56 34.421875 56 
z
" id="DejaVuSans-Bold-111"/>
      <path d="M 3.515625 54.6875 
L 20.515625 54.6875 
L 29.6875 17 
L 38.921875 54.6875 
L 53.515625 54.6875 
L 62.703125 17.390625 
L 71.921875 54.6875 
L 88.921875 54.6875 
L 74.515625 0 
L 55.421875 0 
L 46.1875 37.59375 
L 37.015625 0 
L 17.921875 0 
z
" id="DejaVuSans-Bold-119"/>
      <path d="M 32.90625 24.609375 
Q 27.4375 24.609375 24.671875 22.75 
Q 21.921875 20.90625 21.921875 17.28125 
Q 21.921875 13.96875 24.140625 12.078125 
Q 26.375 10.203125 30.328125 10.203125 
Q 35.25 10.203125 38.625 13.734375 
Q 42 17.28125 42 22.609375 
L 42 24.609375 
z
M 59.625 31.203125 
L 59.625 0 
L 42 0 
L 42 8.109375 
Q 38.484375 3.125 34.078125 0.84375 
Q 29.6875 -1.421875 23.390625 -1.421875 
Q 14.890625 -1.421875 9.59375 3.53125 
Q 4.296875 8.5 4.296875 16.40625 
Q 4.296875 26.03125 10.90625 30.515625 
Q 17.53125 35.015625 31.6875 35.015625 
L 42 35.015625 
L 42 36.375 
Q 42 40.53125 38.71875 42.453125 
Q 35.453125 44.390625 28.515625 44.390625 
Q 22.90625 44.390625 18.0625 43.265625 
Q 13.234375 42.140625 9.078125 39.890625 
L 9.078125 53.21875 
Q 14.703125 54.59375 20.359375 55.296875 
Q 26.03125 56 31.6875 56 
Q 46.484375 56 53.046875 50.171875 
Q 59.625 44.34375 59.625 31.203125 
z
" id="DejaVuSans-Bold-97"/>
      <path d="M 1.515625 54.6875 
L 19 54.6875 
L 32.625 16.890625 
L 46.1875 54.6875 
L 63.71875 54.6875 
L 42.1875 0 
L 23 0 
z
" id="DejaVuSans-Bold-118"/>
      <path d="M 62.984375 27.484375 
L 62.984375 22.515625 
L 22.125 22.515625 
Q 22.75 16.359375 26.5625 13.28125 
Q 30.375 10.203125 37.203125 10.203125 
Q 42.71875 10.203125 48.5 11.84375 
Q 54.296875 13.484375 60.40625 16.796875 
L 60.40625 3.328125 
Q 54.203125 0.984375 48 -0.21875 
Q 41.796875 -1.421875 35.59375 -1.421875 
Q 20.75 -1.421875 12.515625 6.125 
Q 4.296875 13.671875 4.296875 27.296875 
Q 4.296875 40.671875 12.375 48.328125 
Q 20.453125 56 34.625 56 
Q 47.515625 56 55.25 48.234375 
Q 62.984375 40.484375 62.984375 27.484375 
z
M 45.015625 33.296875 
Q 45.015625 38.28125 42.109375 41.328125 
Q 39.203125 44.390625 34.515625 44.390625 
Q 29.4375 44.390625 26.265625 41.53125 
Q 23.09375 38.671875 22.3125 33.296875 
z
" id="DejaVuSans-Bold-101"/>
      <path id="DejaVuSans-Bold-32"/>
      <path d="M 44.390625 75.984375 
L 44.390625 64.5 
L 34.71875 64.5 
Q 31 64.5 29.53125 63.15625 
Q 28.078125 61.8125 28.078125 58.5 
L 28.078125 54.6875 
L 43.015625 54.6875 
L 43.015625 42.1875 
L 28.078125 42.1875 
L 28.078125 0 
L 10.59375 0 
L 10.59375 42.1875 
L 1.90625 42.1875 
L 1.90625 54.6875 
L 10.59375 54.6875 
L 10.59375 58.5 
Q 10.59375 67.4375 15.578125 71.703125 
Q 20.5625 75.984375 31 75.984375 
z
" id="DejaVuSans-Bold-102"/>
      <path d="M 34.078125 43.3125 
Q 28.515625 43.3125 25.5625 39.203125 
Q 22.609375 35.109375 22.609375 27.296875 
Q 22.609375 19.484375 25.5625 15.375 
Q 28.515625 11.28125 34.078125 11.28125 
Q 39.703125 11.28125 42.65625 15.375 
Q 45.609375 19.484375 45.609375 27.296875 
Q 45.609375 35.109375 42.65625 39.203125 
Q 39.703125 43.3125 34.078125 43.3125 
z
M 45.609375 7.90625 
Q 42 3.078125 37.640625 0.828125 
Q 33.296875 -1.421875 27.59375 -1.421875 
Q 17.484375 -1.421875 10.984375 6.609375 
Q 4.5 14.65625 4.5 27.296875 
Q 4.5 39.9375 10.984375 47.921875 
Q 17.484375 55.90625 27.59375 55.90625 
Q 33.296875 55.90625 37.640625 53.65625 
Q 42 51.421875 45.609375 46.578125 
L 45.609375 54.6875 
L 63.1875 54.6875 
L 63.1875 -20.796875 
L 45.609375 -20.796875 
z
" id="DejaVuSans-Bold-113"/>
      <path d="M 7.8125 21.296875 
L 7.8125 54.6875 
L 25.390625 54.6875 
L 25.390625 49.21875 
Q 25.390625 44.78125 25.34375 38.0625 
Q 25.296875 31.34375 25.296875 29.109375 
Q 25.296875 22.515625 25.640625 19.609375 
Q 25.984375 16.703125 26.8125 15.375 
Q 27.875 13.671875 29.609375 12.734375 
Q 31.34375 11.8125 33.59375 11.8125 
Q 39.0625 11.8125 42.1875 16.015625 
Q 45.3125 20.21875 45.3125 27.6875 
L 45.3125 54.6875 
L 62.796875 54.6875 
L 62.796875 0 
L 45.3125 0 
L 45.3125 7.90625 
Q 41.359375 3.125 36.9375 0.84375 
Q 32.515625 -1.421875 27.203125 -1.421875 
Q 17.71875 -1.421875 12.765625 4.390625 
Q 7.8125 10.203125 7.8125 21.296875 
z
" id="DejaVuSans-Bold-117"/>
      <path d="M 63.375 33.296875 
L 63.375 0 
L 45.796875 0 
L 45.796875 5.421875 
L 45.796875 25.484375 
Q 45.796875 32.5625 45.484375 35.25 
Q 45.171875 37.9375 44.390625 39.203125 
Q 43.359375 40.921875 41.59375 41.875 
Q 39.84375 42.828125 37.59375 42.828125 
Q 32.125 42.828125 29 38.59375 
Q 25.875 34.375 25.875 26.90625 
L 25.875 0 
L 8.40625 0 
L 8.40625 54.6875 
L 25.875 54.6875 
L 25.875 46.6875 
Q 29.828125 51.46875 34.265625 53.734375 
Q 38.71875 56 44.09375 56 
Q 53.5625 56 58.46875 50.1875 
Q 63.375 44.390625 63.375 33.296875 
z
" id="DejaVuSans-Bold-110"/>
      <path d="M 1.21875 54.6875 
L 18.703125 54.6875 
L 33.40625 17.578125 
L 45.90625 54.6875 
L 63.375 54.6875 
L 40.375 -5.171875 
Q 36.921875 -14.3125 32.296875 -17.9375 
Q 27.6875 -21.578125 20.125 -21.578125 
L 10.015625 -21.578125 
L 10.015625 -10.109375 
L 15.484375 -10.109375 
Q 19.921875 -10.109375 21.9375 -8.6875 
Q 23.96875 -7.28125 25.09375 -3.609375 
L 25.59375 -2.09375 
z
" id="DejaVuSans-Bold-121"/>
      <path d="M 37.703125 -13.1875 
L 23.1875 -13.1875 
Q 15.71875 -1.125 12.15625 9.734375 
Q 8.59375 20.609375 8.59375 31.296875 
Q 8.59375 42 12.171875 52.953125 
Q 15.765625 63.921875 23.1875 75.875 
L 37.703125 75.875 
Q 31.453125 64.3125 28.328125 53.25 
Q 25.203125 42.1875 25.203125 31.390625 
Q 25.203125 20.609375 28.296875 9.515625 
Q 31.390625 -1.5625 37.703125 -13.1875 
z
" id="DejaVuSans-Bold-40"/>
      <path d="M 9.1875 72.90625 
L 27.984375 72.90625 
L 27.984375 45.125 
L 55.71875 45.125 
L 55.71875 72.90625 
L 74.515625 72.90625 
L 74.515625 0 
L 55.71875 0 
L 55.71875 30.90625 
L 27.984375 30.90625 
L 27.984375 0 
L 9.1875 0 
z
" id="DejaVuSans-Bold-72"/>
      <path d="M 5.71875 54.6875 
L 53.421875 54.6875 
L 53.421875 42.484375 
L 24.609375 12.5 
L 53.421875 12.5 
L 53.421875 0 
L 4.5 0 
L 4.5 12.203125 
L 33.296875 42.1875 
L 5.71875 42.1875 
z
" id="DejaVuSans-Bold-122"/>
      <path d="M 8.015625 -13.1875 
Q 14.265625 -1.5625 17.390625 9.515625 
Q 20.515625 20.609375 20.515625 31.390625 
Q 20.515625 42.1875 17.390625 53.25 
Q 14.265625 64.3125 8.015625 75.875 
L 22.515625 75.875 
Q 29.9375 63.921875 33.515625 52.953125 
Q 37.109375 42 37.109375 31.296875 
Q 37.109375 20.609375 33.546875 9.734375 
Q 29.984375 -1.125 22.515625 -13.1875 
z
" id="DejaVuSans-Bold-41"/>
     </defs>
     <g transform="translate(105.58125 350.734125)scale(0.2 -0.2)">
      <use xlink:href="#DejaVuSans-Bold-77"/>
      <use x="99.511719" xlink:href="#DejaVuSans-Bold-105"/>
      <use x="133.789062" xlink:href="#DejaVuSans-Bold-99"/>
      <use x="193.066406" xlink:href="#DejaVuSans-Bold-114"/>
      <use x="242.382812" xlink:href="#DejaVuSans-Bold-111"/>
      <use x="311.083984" xlink:href="#DejaVuSans-Bold-119"/>
      <use x="403.466797" xlink:href="#DejaVuSans-Bold-97"/>
      <use x="470.947266" xlink:href="#DejaVuSans-Bold-118"/>
      <use x="536.132812" xlink:href="#DejaVuSans-Bold-101"/>
      <use x="603.955078" xlink:href="#DejaVuSans-Bold-32"/>
      <use x="638.769531" xlink:href="#DejaVuSans-Bold-102"/>
      <use x="682.275391" xlink:href="#DejaVuSans-Bold-114"/>
      <use x="731.591797" xlink:href="#DejaVuSans-Bold-101"/>
      <use x="799.414062" xlink:href="#DejaVuSans-Bold-113"/>
      <use x="870.996094" xlink:href="#DejaVuSans-Bold-117"/>
      <use x="942.1875" xlink:href="#DejaVuSans-Bold-101"/>
      <use x="1010.009766" xlink:href="#DejaVuSans-Bold-110"/>
      <use x="1081.201172" xlink:href="#DejaVuSans-Bold-99"/>
      <use x="1140.478516" xlink:href="#DejaVuSans-Bold-121"/>
      <use x="1205.664062" xlink:href="#DejaVuSans-Bold-32"/>
      <use x="1240.478516" xlink:href="#DejaVuSans-Bold-40"/>
      <use x="1286.181641" xlink:href="#DejaVuSans-Bold-77"/>
      <use x="1385.693359" xlink:href="#DejaVuSans-Bold-72"/>
      <use x="1469.384766" xlink:href="#DejaVuSans-Bold-122"/>
      <use x="1527.587891" xlink:href="#DejaVuSans-Bold-41"/>
     </g>
    </g>
   </g>
   <g id="matplotlib.axis_2">
    <g id="ytick_1">
     <g id="line2d_6">
      <defs>
       <path d="M 0 0 
L -3.5 0 
" id="m505843c71d" style="stroke:#000000;stroke-width:0.8;"/>
      </defs>
      <g>
       <use style="stroke:#000000;stroke-width:0.8;" x="64.125" xlink:href="#m505843c71d" y="259.161055"/>
      </g>
     </g>
     <g id="text_7">
      <!-- 0.992 -->
      <defs>
       <path d="M 10.6875 12.40625 
L 21 12.40625 
L 21 0 
L 10.6875 0 
z
" id="DejaVuSans-46"/>
      </defs>
      <g transform="translate(-0.13125 266.759492)scale(0.2 -0.2)">
       <use xlink:href="#DejaVuSans-48"/>
       <use x="63.623047" xlink:href="#DejaVuSans-46"/>
       <use x="95.410156" xlink:href="#DejaVuSans-57"/>
       <use x="159.033203" xlink:href="#DejaVuSans-57"/>
       <use x="222.65625" xlink:href="#DejaVuSans-50"/>
      </g>
     </g>
    </g>
    <g id="ytick_2">
     <g id="line2d_7">
      <g>
       <use style="stroke:#000000;stroke-width:0.8;" x="64.125" xlink:href="#m505843c71d" y="207.658166"/>
      </g>
     </g>
     <g id="text_8">
      <!-- 0.994 -->
      <defs>
       <path d="M 37.796875 64.3125 
L 12.890625 25.390625 
L 37.796875 25.390625 
z
M 35.203125 72.90625 
L 47.609375 72.90625 
L 47.609375 25.390625 
L 58.015625 25.390625 
L 58.015625 17.1875 
L 47.609375 17.1875 
L 47.609375 0 
L 37.796875 0 
L 37.796875 17.1875 
L 4.890625 17.1875 
L 4.890625 26.703125 
z
" id="DejaVuSans-52"/>
      </defs>
      <g transform="translate(-0.13125 215.256604)scale(0.2 -0.2)">
       <use xlink:href="#DejaVuSans-48"/>
       <use x="63.623047" xlink:href="#DejaVuSans-46"/>
       <use x="95.410156" xlink:href="#DejaVuSans-57"/>
       <use x="159.033203" xlink:href="#DejaVuSans-57"/>
       <use x="222.65625" xlink:href="#DejaVuSans-52"/>
      </g>
     </g>
    </g>
    <g id="ytick_3">
     <g id="line2d_8">
      <g>
       <use style="stroke:#000000;stroke-width:0.8;" x="64.125" xlink:href="#m505843c71d" y="156.155277"/>
      </g>
     </g>
     <g id="text_9">
      <!-- 0.996 -->
      <g transform="translate(-0.13125 163.753715)scale(0.2 -0.2)">
       <use xlink:href="#DejaVuSans-48"/>
       <use x="63.623047" xlink:href="#DejaVuSans-46"/>
       <use x="95.410156" xlink:href="#DejaVuSans-57"/>
       <use x="159.033203" xlink:href="#DejaVuSans-57"/>
       <use x="222.65625" xlink:href="#DejaVuSans-54"/>
      </g>
     </g>
    </g>
    <g id="ytick_4">
     <g id="line2d_9">
      <g>
       <use style="stroke:#000000;stroke-width:0.8;" x="64.125" xlink:href="#m505843c71d" y="104.652389"/>
      </g>
     </g>
     <g id="text_10">
      <!-- 0.998 -->
      <g transform="translate(-0.13125 112.250826)scale(0.2 -0.2)">
       <use xlink:href="#DejaVuSans-48"/>
       <use x="63.623047" xlink:href="#DejaVuSans-46"/>
       <use x="95.410156" xlink:href="#DejaVuSans-57"/>
       <use x="159.033203" xlink:href="#DejaVuSans-57"/>
       <use x="222.65625" xlink:href="#DejaVuSans-56"/>
      </g>
     </g>
    </g>
    <g id="ytick_5">
     <g id="line2d_10">
      <g>
       <use style="stroke:#000000;stroke-width:0.8;" x="64.125" xlink:href="#m505843c71d" y="53.1495"/>
      </g>
     </g>
     <g id="text_11">
      <!-- 1.000 -->
      <defs>
       <path d="M 12.40625 8.296875 
L 28.515625 8.296875 
L 28.515625 63.921875 
L 10.984375 60.40625 
L 10.984375 69.390625 
L 28.421875 72.90625 
L 38.28125 72.90625 
L 38.28125 8.296875 
L 54.390625 8.296875 
L 54.390625 0 
L 12.40625 0 
z
" id="DejaVuSans-49"/>
      </defs>
      <g transform="translate(-0.13125 60.747937)scale(0.2 -0.2)">
       <use xlink:href="#DejaVuSans-49"/>
       <use x="63.623047" xlink:href="#DejaVuSans-46"/>
       <use x="95.410156" xlink:href="#DejaVuSans-48"/>
       <use x="159.033203" xlink:href="#DejaVuSans-48"/>
       <use x="222.65625" xlink:href="#DejaVuSans-48"/>
      </g>
     </g>
    </g>
    <g id="text_12">
     <!-- Photoluminescence -->
     <defs>
      <path d="M 9.1875 72.90625 
L 40.375 72.90625 
Q 54.296875 72.90625 61.734375 66.71875 
Q 69.1875 60.546875 69.1875 49.125 
Q 69.1875 37.640625 61.734375 31.46875 
Q 54.296875 25.296875 40.375 25.296875 
L 27.984375 25.296875 
L 27.984375 0 
L 9.1875 0 
z
M 27.984375 59.28125 
L 27.984375 38.921875 
L 38.375 38.921875 
Q 43.84375 38.921875 46.828125 41.578125 
Q 49.8125 44.234375 49.8125 49.125 
Q 49.8125 54 46.828125 56.640625 
Q 43.84375 59.28125 38.375 59.28125 
z
" id="DejaVuSans-Bold-80"/>
      <path d="M 63.375 33.296875 
L 63.375 0 
L 45.796875 0 
L 45.796875 5.421875 
L 45.796875 25.390625 
Q 45.796875 32.5625 45.484375 35.25 
Q 45.171875 37.9375 44.390625 39.203125 
Q 43.359375 40.921875 41.59375 41.875 
Q 39.84375 42.828125 37.59375 42.828125 
Q 32.125 42.828125 29 38.59375 
Q 25.875 34.375 25.875 26.90625 
L 25.875 0 
L 8.40625 0 
L 8.40625 75.984375 
L 25.875 75.984375 
L 25.875 46.6875 
Q 29.828125 51.46875 34.265625 53.734375 
Q 38.71875 56 44.09375 56 
Q 53.5625 56 58.46875 50.1875 
Q 63.375 44.390625 63.375 33.296875 
z
" id="DejaVuSans-Bold-104"/>
      <path d="M 27.484375 70.21875 
L 27.484375 54.6875 
L 45.515625 54.6875 
L 45.515625 42.1875 
L 27.484375 42.1875 
L 27.484375 19 
Q 27.484375 15.1875 29 13.84375 
Q 30.515625 12.5 35.015625 12.5 
L 44 12.5 
L 44 0 
L 29 0 
Q 18.65625 0 14.328125 4.3125 
Q 10.015625 8.640625 10.015625 19 
L 10.015625 42.1875 
L 1.3125 42.1875 
L 1.3125 54.6875 
L 10.015625 54.6875 
L 10.015625 70.21875 
z
" id="DejaVuSans-Bold-116"/>
      <path d="M 8.40625 75.984375 
L 25.875 75.984375 
L 25.875 0 
L 8.40625 0 
z
" id="DejaVuSans-Bold-108"/>
      <path d="M 59.078125 45.609375 
Q 62.40625 50.6875 66.96875 53.34375 
Q 71.53125 56 77 56 
Q 86.421875 56 91.359375 50.1875 
Q 96.296875 44.390625 96.296875 33.296875 
L 96.296875 0 
L 78.71875 0 
L 78.71875 28.515625 
Q 78.765625 29.15625 78.78125 29.828125 
Q 78.8125 30.515625 78.8125 31.78125 
Q 78.8125 37.59375 77.09375 40.203125 
Q 75.390625 42.828125 71.578125 42.828125 
Q 66.609375 42.828125 63.890625 38.71875 
Q 61.1875 34.625 61.078125 26.859375 
L 61.078125 0 
L 43.5 0 
L 43.5 28.515625 
Q 43.5 37.59375 41.9375 40.203125 
Q 40.375 42.828125 36.375 42.828125 
Q 31.34375 42.828125 28.609375 38.703125 
Q 25.875 34.578125 25.875 26.90625 
L 25.875 0 
L 8.296875 0 
L 8.296875 54.6875 
L 25.875 54.6875 
L 25.875 46.6875 
Q 29.109375 51.3125 33.28125 53.65625 
Q 37.453125 56 42.484375 56 
Q 48.140625 56 52.484375 53.265625 
Q 56.84375 50.53125 59.078125 45.609375 
z
" id="DejaVuSans-Bold-109"/>
      <path d="M 51.125 52.984375 
L 51.125 39.703125 
Q 45.515625 42.046875 40.28125 43.21875 
Q 35.0625 44.390625 30.421875 44.390625 
Q 25.4375 44.390625 23.015625 43.140625 
Q 20.609375 41.890625 20.609375 39.3125 
Q 20.609375 37.203125 22.4375 36.078125 
Q 24.265625 34.96875 29 34.421875 
L 32.078125 33.984375 
Q 45.515625 32.28125 50.140625 28.375 
Q 54.78125 24.46875 54.78125 16.109375 
Q 54.78125 7.375 48.328125 2.96875 
Q 41.890625 -1.421875 29.109375 -1.421875 
Q 23.6875 -1.421875 17.890625 -0.5625 
Q 12.109375 0.296875 6 2 
L 6 15.28125 
Q 11.234375 12.75 16.71875 11.46875 
Q 22.21875 10.203125 27.875 10.203125 
Q 33.015625 10.203125 35.59375 11.609375 
Q 38.1875 13.03125 38.1875 15.828125 
Q 38.1875 18.171875 36.40625 19.3125 
Q 34.625 20.453125 29.296875 21.09375 
L 26.21875 21.484375 
Q 14.546875 22.953125 9.859375 26.90625 
Q 5.171875 30.859375 5.171875 38.921875 
Q 5.171875 47.609375 11.125 51.796875 
Q 17.09375 56 29.390625 56 
Q 34.234375 56 39.546875 55.265625 
Q 44.875 54.546875 51.125 52.984375 
z
" id="DejaVuSans-Bold-115"/>
     </defs>
     <g transform="translate(-8.290625 282.922313)rotate(-90)scale(0.2 -0.2)">
      <use xlink:href="#DejaVuSans-Bold-80"/>
      <use x="73.291016" xlink:href="#DejaVuSans-Bold-104"/>
      <use x="144.482422" xlink:href="#DejaVuSans-Bold-111"/>
      <use x="213.183594" xlink:href="#DejaVuSans-Bold-116"/>
      <use x="260.986328" xlink:href="#DejaVuSans-Bold-111"/>
      <use x="329.6875" xlink:href="#DejaVuSans-Bold-108"/>
      <use x="363.964844" xlink:href="#DejaVuSans-Bold-117"/>
      <use x="435.15625" xlink:href="#DejaVuSans-Bold-109"/>
      <use x="539.355469" xlink:href="#DejaVuSans-Bold-105"/>
      <use x="573.632812" xlink:href="#DejaVuSans-Bold-110"/>
      <use x="644.824219" xlink:href="#DejaVuSans-Bold-101"/>
      <use x="712.646484" xlink:href="#DejaVuSans-Bold-115"/>
      <use x="772.167969" xlink:href="#DejaVuSans-Bold-99"/>
      <use x="831.445312" xlink:href="#DejaVuSans-Bold-101"/>
      <use x="899.267578" xlink:href="#DejaVuSans-Bold-110"/>
      <use x="970.458984" xlink:href="#DejaVuSans-Bold-99"/>
      <use x="1029.736328" xlink:href="#DejaVuSans-Bold-101"/>
     </g>
    </g>
   </g>
   <g id="line2d_11">
    <defs>
     <path d="M 0 5 
C 1.326016 5 2.597899 4.473168 3.535534 3.535534 
C 4.473168 2.597899 5 1.326016 5 0 
C 5 -1.326016 4.473168 -2.597899 3.535534 -3.535534 
C 2.597899 -4.473168 1.326016 -5 0 -5 
C -1.326016 -5 -2.597899 -4.473168 -3.535534 -3.535534 
C -4.473168 -2.597899 -5 -1.326016 -5 0 
C -5 1.326016 -4.473168 2.597899 -3.535534 3.535534 
C -2.597899 4.473168 -1.326016 5 0 5 
z
" id="m17e1d74f69" style="stroke:#1f77b4;stroke-width:3;"/>
    </defs>
    <g clip-path="url(#pbc00991088)">
     <use style="fill-opacity:0;stroke:#1f77b4;stroke-width:3;" x="82.196591" xlink:href="#m17e1d74f69" y="89.92829"/>
     <use style="fill-opacity:0;stroke:#1f77b4;stroke-width:3;" x="83.375074" xlink:href="#m17e1d74f69" y="110.737343"/>
     <use style="fill-opacity:0;stroke:#1f77b4;stroke-width:3;" x="84.64421" xlink:href="#m17e1d74f69" y="61.376335"/>
     <use style="fill-opacity:0;stroke:#1f77b4;stroke-width:3;" x="85.822694" xlink:href="#m17e1d74f69" y="79.281798"/>
     <use style="fill-opacity:0;stroke:#1f77b4;stroke-width:3;" x="87.001177" xlink:href="#m17e1d74f69" y="72.022827"/>
     <use style="fill-opacity:0;stroke:#1f77b4;stroke-width:3;" x="88.270313" xlink:href="#m17e1d74f69" y="92.831879"/>
     <use style="fill-opacity:0;stroke:#1f77b4;stroke-width:3;" x="89.448797" xlink:href="#m17e1d74f69" y="90.896153"/>
     <use style="fill-opacity:0;stroke:#1f77b4;stroke-width:3;" x="90.62728" xlink:href="#m17e1d74f69" y="102.026577"/>
     <use style="fill-opacity:0;stroke:#1f77b4;stroke-width:3;" x="91.896416" xlink:href="#m17e1d74f69" y="92.831879"/>
     <use style="fill-opacity:0;stroke:#1f77b4;stroke-width:3;" x="93.0749" xlink:href="#m17e1d74f69" y="77.346073"/>
     <use style="fill-opacity:0;stroke:#1f77b4;stroke-width:3;" x="94.253383" xlink:href="#m17e1d74f69" y="101.542645"/>
     <use style="fill-opacity:0;stroke:#1f77b4;stroke-width:3;" x="95.522519" xlink:href="#m17e1d74f69" y="103.962302"/>
     <use style="fill-opacity:0;stroke:#1f77b4;stroke-width:3;" x="96.701003" xlink:href="#m17e1d74f69" y="85.572907"/>
     <use style="fill-opacity:0;stroke:#1f77b4;stroke-width:3;" x="97.879486" xlink:href="#m17e1d74f69" y="80.733593"/>
     <use style="fill-opacity:0;stroke:#1f77b4;stroke-width:3;" x="99.148623" xlink:href="#m17e1d74f69" y="101.542645"/>
     <use style="fill-opacity:0;stroke:#1f77b4;stroke-width:3;" x="100.327106" xlink:href="#m17e1d74f69" y="95.251536"/>
     <use style="fill-opacity:0;stroke:#1f77b4;stroke-width:3;" x="101.505589" xlink:href="#m17e1d74f69" y="108.801617"/>
     <use style="fill-opacity:0;stroke:#1f77b4;stroke-width:3;" x="102.774726" xlink:href="#m17e1d74f69" y="53.1495"/>
     <use style="fill-opacity:0;stroke:#1f77b4;stroke-width:3;" x="103.953209" xlink:href="#m17e1d74f69" y="89.444359"/>
     <use style="fill-opacity:0;stroke:#1f77b4;stroke-width:3;" x="105.131692" xlink:href="#m17e1d74f69" y="95.251536"/>
     <use style="fill-opacity:0;stroke:#1f77b4;stroke-width:3;" x="106.400829" xlink:href="#m17e1d74f69" y="91.864016"/>
     <use style="fill-opacity:0;stroke:#1f77b4;stroke-width:3;" x="107.579312" xlink:href="#m17e1d74f69" y="90.896153"/>
     <use style="fill-opacity:0;stroke:#1f77b4;stroke-width:3;" x="108.757796" xlink:href="#m17e1d74f69" y="107.833754"/>
     <use style="fill-opacity:0;stroke:#1f77b4;stroke-width:3;" x="110.026932" xlink:href="#m17e1d74f69" y="81.217524"/>
     <use style="fill-opacity:0;stroke:#1f77b4;stroke-width:3;" x="111.205415" xlink:href="#m17e1d74f69" y="102.026577"/>
     <use style="fill-opacity:0;stroke:#1f77b4;stroke-width:3;" x="112.383899" xlink:href="#m17e1d74f69" y="91.864016"/>
     <use style="fill-opacity:0;stroke:#1f77b4;stroke-width:3;" x="113.653035" xlink:href="#m17e1d74f69" y="77.346073"/>
     <use style="fill-opacity:0;stroke:#1f77b4;stroke-width:3;" x="114.831518" xlink:href="#m17e1d74f69" y="103.478371"/>
     <use style="fill-opacity:0;stroke:#1f77b4;stroke-width:3;" x="116.010002" xlink:href="#m17e1d74f69" y="78.313935"/>
     <use style="fill-opacity:0;stroke:#1f77b4;stroke-width:3;" x="117.279138" xlink:href="#m17e1d74f69" y="102.510508"/>
     <use style="fill-opacity:0;stroke:#1f77b4;stroke-width:3;" x="118.457621" xlink:href="#m17e1d74f69" y="73.474621"/>
     <use style="fill-opacity:0;stroke:#1f77b4;stroke-width:3;" x="119.636105" xlink:href="#m17e1d74f69" y="54.601294"/>
     <use style="fill-opacity:0;stroke:#1f77b4;stroke-width:3;" x="120.905241" xlink:href="#m17e1d74f69" y="73.474621"/>
     <use style="fill-opacity:0;stroke:#1f77b4;stroke-width:3;" x="122.083724" xlink:href="#m17e1d74f69" y="140.257161"/>
     <use style="fill-opacity:0;stroke:#1f77b4;stroke-width:3;" x="123.262208" xlink:href="#m17e1d74f69" y="86.056839"/>
     <use style="fill-opacity:0;stroke:#1f77b4;stroke-width:3;" x="124.531344" xlink:href="#m17e1d74f69" y="92.347948"/>
     <use style="fill-opacity:0;stroke:#1f77b4;stroke-width:3;" x="125.709827" xlink:href="#m17e1d74f69" y="99.606919"/>
     <use style="fill-opacity:0;stroke:#1f77b4;stroke-width:3;" x="126.888311" xlink:href="#m17e1d74f69" y="71.054964"/>
     <use style="fill-opacity:0;stroke:#1f77b4;stroke-width:3;" x="128.157447" xlink:href="#m17e1d74f69" y="76.37821"/>
     <use style="fill-opacity:0;stroke:#1f77b4;stroke-width:3;" x="129.33593" xlink:href="#m17e1d74f69" y="60.408472"/>
     <use style="fill-opacity:0;stroke:#1f77b4;stroke-width:3;" x="130.514414" xlink:href="#m17e1d74f69" y="103.962302"/>
     <use style="fill-opacity:0;stroke:#1f77b4;stroke-width:3;" x="131.78355" xlink:href="#m17e1d74f69" y="85.088976"/>
     <use style="fill-opacity:0;stroke:#1f77b4;stroke-width:3;" x="132.962033" xlink:href="#m17e1d74f69" y="57.020952"/>
     <use style="fill-opacity:0;stroke:#1f77b4;stroke-width:3;" x="134.140517" xlink:href="#m17e1d74f69" y="82.185387"/>
     <use style="fill-opacity:0;stroke:#1f77b4;stroke-width:3;" x="135.409653" xlink:href="#m17e1d74f69" y="82.669319"/>
     <use style="fill-opacity:0;stroke:#1f77b4;stroke-width:3;" x="136.588136" xlink:href="#m17e1d74f69" y="103.962302"/>
     <use style="fill-opacity:0;stroke:#1f77b4;stroke-width:3;" x="137.76662" xlink:href="#m17e1d74f69" y="88.476496"/>
     <use style="fill-opacity:0;stroke:#1f77b4;stroke-width:3;" x="139.035756" xlink:href="#m17e1d74f69" y="72.506758"/>
     <use style="fill-opacity:0;stroke:#1f77b4;stroke-width:3;" x="140.214239" xlink:href="#m17e1d74f69" y="95.251536"/>
     <use style="fill-opacity:0;stroke:#1f77b4;stroke-width:3;" x="141.392723" xlink:href="#m17e1d74f69" y="95.735468"/>
     <use style="fill-opacity:0;stroke:#1f77b4;stroke-width:3;" x="142.661859" xlink:href="#m17e1d74f69" y="107.349823"/>
     <use style="fill-opacity:0;stroke:#1f77b4;stroke-width:3;" x="143.840342" xlink:href="#m17e1d74f69" y="92.831879"/>
     <use style="fill-opacity:0;stroke:#1f77b4;stroke-width:3;" x="145.018826" xlink:href="#m17e1d74f69" y="108.801617"/>
     <use style="fill-opacity:0;stroke:#1f77b4;stroke-width:3;" x="146.287962" xlink:href="#m17e1d74f69" y="88.960427"/>
     <use style="fill-opacity:0;stroke:#1f77b4;stroke-width:3;" x="147.466445" xlink:href="#m17e1d74f69" y="93.799742"/>
     <use style="fill-opacity:0;stroke:#1f77b4;stroke-width:3;" x="148.644929" xlink:href="#m17e1d74f69" y="122.835629"/>
     <use style="fill-opacity:0;stroke:#1f77b4;stroke-width:3;" x="149.914065" xlink:href="#m17e1d74f69" y="88.960427"/>
     <use style="fill-opacity:0;stroke:#1f77b4;stroke-width:3;" x="151.092548" xlink:href="#m17e1d74f69" y="86.54077"/>
     <use style="fill-opacity:0;stroke:#1f77b4;stroke-width:3;" x="152.271032" xlink:href="#m17e1d74f69" y="85.572907"/>
     <use style="fill-opacity:0;stroke:#1f77b4;stroke-width:3;" x="153.540168" xlink:href="#m17e1d74f69" y="79.76573"/>
     <use style="fill-opacity:0;stroke:#1f77b4;stroke-width:3;" x="154.718651" xlink:href="#m17e1d74f69" y="120.415972"/>
     <use style="fill-opacity:0;stroke:#1f77b4;stroke-width:3;" x="155.897135" xlink:href="#m17e1d74f69" y="109.285548"/>
     <use style="fill-opacity:0;stroke:#1f77b4;stroke-width:3;" x="157.166271" xlink:href="#m17e1d74f69" y="79.281798"/>
     <use style="fill-opacity:0;stroke:#1f77b4;stroke-width:3;" x="158.344754" xlink:href="#m17e1d74f69" y="87.508633"/>
     <use style="fill-opacity:0;stroke:#1f77b4;stroke-width:3;" x="159.523238" xlink:href="#m17e1d74f69" y="73.474621"/>
     <use style="fill-opacity:0;stroke:#1f77b4;stroke-width:3;" x="160.792374" xlink:href="#m17e1d74f69" y="122.351698"/>
     <use style="fill-opacity:0;stroke:#1f77b4;stroke-width:3;" x="161.970857" xlink:href="#m17e1d74f69" y="70.087101"/>
     <use style="fill-opacity:0;stroke:#1f77b4;stroke-width:3;" x="163.149341" xlink:href="#m17e1d74f69" y="117.512383"/>
     <use style="fill-opacity:0;stroke:#1f77b4;stroke-width:3;" x="164.418477" xlink:href="#m17e1d74f69" y="95.251536"/>
     <use style="fill-opacity:0;stroke:#1f77b4;stroke-width:3;" x="165.59696" xlink:href="#m17e1d74f69" y="104.930165"/>
     <use style="fill-opacity:0;stroke:#1f77b4;stroke-width:3;" x="166.775444" xlink:href="#m17e1d74f69" y="84.121113"/>
     <use style="fill-opacity:0;stroke:#1f77b4;stroke-width:3;" x="168.04458" xlink:href="#m17e1d74f69" y="92.347948"/>
     <use style="fill-opacity:0;stroke:#1f77b4;stroke-width:3;" x="169.223063" xlink:href="#m17e1d74f69" y="91.380085"/>
     <use style="fill-opacity:0;stroke:#1f77b4;stroke-width:3;" x="170.401547" xlink:href="#m17e1d74f69" y="75.894278"/>
     <use style="fill-opacity:0;stroke:#1f77b4;stroke-width:3;" x="171.670683" xlink:href="#m17e1d74f69" y="92.831879"/>
     <use style="fill-opacity:0;stroke:#1f77b4;stroke-width:3;" x="172.849166" xlink:href="#m17e1d74f69" y="87.508633"/>
     <use style="fill-opacity:0;stroke:#1f77b4;stroke-width:3;" x="174.02765" xlink:href="#m17e1d74f69" y="97.671194"/>
     <use style="fill-opacity:0;stroke:#1f77b4;stroke-width:3;" x="175.296786" xlink:href="#m17e1d74f69" y="108.801617"/>
     <use style="fill-opacity:0;stroke:#1f77b4;stroke-width:3;" x="176.475269" xlink:href="#m17e1d74f69" y="85.088976"/>
     <use style="fill-opacity:0;stroke:#1f77b4;stroke-width:3;" x="177.653753" xlink:href="#m17e1d74f69" y="84.605044"/>
     <use style="fill-opacity:0;stroke:#1f77b4;stroke-width:3;" x="178.922889" xlink:href="#m17e1d74f69" y="80.733593"/>
     <use style="fill-opacity:0;stroke:#1f77b4;stroke-width:3;" x="180.101372" xlink:href="#m17e1d74f69" y="128.158875"/>
     <use style="fill-opacity:0;stroke:#1f77b4;stroke-width:3;" x="181.279856" xlink:href="#m17e1d74f69" y="75.410347"/>
     <use style="fill-opacity:0;stroke:#1f77b4;stroke-width:3;" x="182.548992" xlink:href="#m17e1d74f69" y="107.349823"/>
     <use style="fill-opacity:0;stroke:#1f77b4;stroke-width:3;" x="183.727475" xlink:href="#m17e1d74f69" y="99.122988"/>
     <use style="fill-opacity:0;stroke:#1f77b4;stroke-width:3;" x="184.905959" xlink:href="#m17e1d74f69" y="111.221274"/>
     <use style="fill-opacity:0;stroke:#1f77b4;stroke-width:3;" x="186.175095" xlink:href="#m17e1d74f69" y="102.510508"/>
     <use style="fill-opacity:0;stroke:#1f77b4;stroke-width:3;" x="187.353578" xlink:href="#m17e1d74f69" y="87.992565"/>
     <use style="fill-opacity:0;stroke:#1f77b4;stroke-width:3;" x="188.532062" xlink:href="#m17e1d74f69" y="99.122988"/>
     <use style="fill-opacity:0;stroke:#1f77b4;stroke-width:3;" x="189.801198" xlink:href="#m17e1d74f69" y="94.767605"/>
     <use style="fill-opacity:0;stroke:#1f77b4;stroke-width:3;" x="190.979681" xlink:href="#m17e1d74f69" y="135.417847"/>
     <use style="fill-opacity:0;stroke:#1f77b4;stroke-width:3;" x="192.158165" xlink:href="#m17e1d74f69" y="130.094601"/>
     <use style="fill-opacity:0;stroke:#1f77b4;stroke-width:3;" x="193.427301" xlink:href="#m17e1d74f69" y="148.967927"/>
     <use style="fill-opacity:0;stroke:#1f77b4;stroke-width:3;" x="194.605784" xlink:href="#m17e1d74f69" y="162.518008"/>
     <use style="fill-opacity:0;stroke:#1f77b4;stroke-width:3;" x="195.784268" xlink:href="#m17e1d74f69" y="213.814742"/>
     <use style="fill-opacity:0;stroke:#1f77b4;stroke-width:3;" x="197.053404" xlink:href="#m17e1d74f69" y="238.979177"/>
     <use style="fill-opacity:0;stroke:#1f77b4;stroke-width:3;" x="198.231887" xlink:href="#m17e1d74f69" y="268.498996"/>
     <use style="fill-opacity:0;stroke:#1f77b4;stroke-width:3;" x="199.410371" xlink:href="#m17e1d74f69" y="179.455609"/>
     <use style="fill-opacity:0;stroke:#1f77b4;stroke-width:3;" x="200.679507" xlink:href="#m17e1d74f69" y="265.111476"/>
     <use style="fill-opacity:0;stroke:#1f77b4;stroke-width:3;" x="201.85799" xlink:href="#m17e1d74f69" y="211.395085"/>
     <use style="fill-opacity:0;stroke:#1f77b4;stroke-width:3;" x="203.036474" xlink:href="#m17e1d74f69" y="203.16825"/>
     <use style="fill-opacity:0;stroke:#1f77b4;stroke-width:3;" x="204.30561" xlink:href="#m17e1d74f69" y="139.289298"/>
     <use style="fill-opacity:0;stroke:#1f77b4;stroke-width:3;" x="205.484093" xlink:href="#m17e1d74f69" y="130.094601"/>
     <use style="fill-opacity:0;stroke:#1f77b4;stroke-width:3;" x="206.662577" xlink:href="#m17e1d74f69" y="124.287423"/>
     <use style="fill-opacity:0;stroke:#1f77b4;stroke-width:3;" x="207.931713" xlink:href="#m17e1d74f69" y="79.281798"/>
     <use style="fill-opacity:0;stroke:#1f77b4;stroke-width:3;" x="209.110196" xlink:href="#m17e1d74f69" y="85.088976"/>
     <use style="fill-opacity:0;stroke:#1f77b4;stroke-width:3;" x="210.28868" xlink:href="#m17e1d74f69" y="120.415972"/>
     <use style="fill-opacity:0;stroke:#1f77b4;stroke-width:3;" x="211.557816" xlink:href="#m17e1d74f69" y="117.512383"/>
     <use style="fill-opacity:0;stroke:#1f77b4;stroke-width:3;" x="212.7363" xlink:href="#m17e1d74f69" y="98.155125"/>
     <use style="fill-opacity:0;stroke:#1f77b4;stroke-width:3;" x="213.914783" xlink:href="#m17e1d74f69" y="117.028452"/>
     <use style="fill-opacity:0;stroke:#1f77b4;stroke-width:3;" x="215.183919" xlink:href="#m17e1d74f69" y="67.667444"/>
     <use style="fill-opacity:0;stroke:#1f77b4;stroke-width:3;" x="216.362403" xlink:href="#m17e1d74f69" y="72.99069"/>
     <use style="fill-opacity:0;stroke:#1f77b4;stroke-width:3;" x="217.540886" xlink:href="#m17e1d74f69" y="94.767605"/>
     <use style="fill-opacity:0;stroke:#1f77b4;stroke-width:3;" x="218.810022" xlink:href="#m17e1d74f69" y="59.440609"/>
     <use style="fill-opacity:0;stroke:#1f77b4;stroke-width:3;" x="219.988506" xlink:href="#m17e1d74f69" y="80.249661"/>
     <use style="fill-opacity:0;stroke:#1f77b4;stroke-width:3;" x="221.166989" xlink:href="#m17e1d74f69" y="89.92829"/>
     <use style="fill-opacity:0;stroke:#1f77b4;stroke-width:3;" x="222.436125" xlink:href="#m17e1d74f69" y="109.76948"/>
     <use style="fill-opacity:0;stroke:#1f77b4;stroke-width:3;" x="223.614609" xlink:href="#m17e1d74f69" y="90.412222"/>
     <use style="fill-opacity:0;stroke:#1f77b4;stroke-width:3;" x="224.793092" xlink:href="#m17e1d74f69" y="112.189137"/>
     <use style="fill-opacity:0;stroke:#1f77b4;stroke-width:3;" x="226.062228" xlink:href="#m17e1d74f69" y="91.380085"/>
     <use style="fill-opacity:0;stroke:#1f77b4;stroke-width:3;" x="227.240712" xlink:href="#m17e1d74f69" y="104.930165"/>
     <use style="fill-opacity:0;stroke:#1f77b4;stroke-width:3;" x="228.419195" xlink:href="#m17e1d74f69" y="79.281798"/>
     <use style="fill-opacity:0;stroke:#1f77b4;stroke-width:3;" x="229.688331" xlink:href="#m17e1d74f69" y="88.476496"/>
     <use style="fill-opacity:0;stroke:#1f77b4;stroke-width:3;" x="230.866815" xlink:href="#m17e1d74f69" y="87.992565"/>
     <use style="fill-opacity:0;stroke:#1f77b4;stroke-width:3;" x="232.045298" xlink:href="#m17e1d74f69" y="104.446234"/>
     <use style="fill-opacity:0;stroke:#1f77b4;stroke-width:3;" x="233.314434" xlink:href="#m17e1d74f69" y="92.347948"/>
     <use style="fill-opacity:0;stroke:#1f77b4;stroke-width:3;" x="234.492918" xlink:href="#m17e1d74f69" y="69.603169"/>
     <use style="fill-opacity:0;stroke:#1f77b4;stroke-width:3;" x="235.671401" xlink:href="#m17e1d74f69" y="120.415972"/>
     <use style="fill-opacity:0;stroke:#1f77b4;stroke-width:3;" x="236.940537" xlink:href="#m17e1d74f69" y="90.896153"/>
     <use style="fill-opacity:0;stroke:#1f77b4;stroke-width:3;" x="238.119021" xlink:href="#m17e1d74f69" y="86.54077"/>
     <use style="fill-opacity:0;stroke:#1f77b4;stroke-width:3;" x="239.297504" xlink:href="#m17e1d74f69" y="92.347948"/>
     <use style="fill-opacity:0;stroke:#1f77b4;stroke-width:3;" x="240.56664" xlink:href="#m17e1d74f69" y="92.347948"/>
     <use style="fill-opacity:0;stroke:#1f77b4;stroke-width:3;" x="241.745124" xlink:href="#m17e1d74f69" y="111.705206"/>
     <use style="fill-opacity:0;stroke:#1f77b4;stroke-width:3;" x="242.923607" xlink:href="#m17e1d74f69" y="87.508633"/>
     <use style="fill-opacity:0;stroke:#1f77b4;stroke-width:3;" x="244.192743" xlink:href="#m17e1d74f69" y="82.185387"/>
     <use style="fill-opacity:0;stroke:#1f77b4;stroke-width:3;" x="245.371227" xlink:href="#m17e1d74f69" y="88.960427"/>
     <use style="fill-opacity:0;stroke:#1f77b4;stroke-width:3;" x="246.54971" xlink:href="#m17e1d74f69" y="100.090851"/>
     <use style="fill-opacity:0;stroke:#1f77b4;stroke-width:3;" x="247.818846" xlink:href="#m17e1d74f69" y="92.347948"/>
     <use style="fill-opacity:0;stroke:#1f77b4;stroke-width:3;" x="248.99733" xlink:href="#m17e1d74f69" y="84.121113"/>
     <use style="fill-opacity:0;stroke:#1f77b4;stroke-width:3;" x="250.175813" xlink:href="#m17e1d74f69" y="100.574782"/>
     <use style="fill-opacity:0;stroke:#1f77b4;stroke-width:3;" x="251.444949" xlink:href="#m17e1d74f69" y="119.448109"/>
     <use style="fill-opacity:0;stroke:#1f77b4;stroke-width:3;" x="252.623433" xlink:href="#m17e1d74f69" y="64.279923"/>
     <use style="fill-opacity:0;stroke:#1f77b4;stroke-width:3;" x="253.801916" xlink:href="#m17e1d74f69" y="121.867766"/>
     <use style="fill-opacity:0;stroke:#1f77b4;stroke-width:3;" x="255.071052" xlink:href="#m17e1d74f69" y="97.187262"/>
     <use style="fill-opacity:0;stroke:#1f77b4;stroke-width:3;" x="256.249536" xlink:href="#m17e1d74f69" y="102.510508"/>
     <use style="fill-opacity:0;stroke:#1f77b4;stroke-width:3;" x="257.428019" xlink:href="#m17e1d74f69" y="99.122988"/>
     <use style="fill-opacity:0;stroke:#1f77b4;stroke-width:3;" x="258.697155" xlink:href="#m17e1d74f69" y="82.185387"/>
     <use style="fill-opacity:0;stroke:#1f77b4;stroke-width:3;" x="259.875639" xlink:href="#m17e1d74f69" y="103.478371"/>
     <use style="fill-opacity:0;stroke:#1f77b4;stroke-width:3;" x="261.054122" xlink:href="#m17e1d74f69" y="123.803492"/>
     <use style="fill-opacity:0;stroke:#1f77b4;stroke-width:3;" x="262.323258" xlink:href="#m17e1d74f69" y="85.572907"/>
     <use style="fill-opacity:0;stroke:#1f77b4;stroke-width:3;" x="263.501742" xlink:href="#m17e1d74f69" y="116.060589"/>
     <use style="fill-opacity:0;stroke:#1f77b4;stroke-width:3;" x="264.680225" xlink:href="#m17e1d74f69" y="102.026577"/>
     <use style="fill-opacity:0;stroke:#1f77b4;stroke-width:3;" x="265.949361" xlink:href="#m17e1d74f69" y="103.962302"/>
     <use style="fill-opacity:0;stroke:#1f77b4;stroke-width:3;" x="267.127845" xlink:href="#m17e1d74f69" y="102.99444"/>
     <use style="fill-opacity:0;stroke:#1f77b4;stroke-width:3;" x="268.306328" xlink:href="#m17e1d74f69" y="81.701456"/>
     <use style="fill-opacity:0;stroke:#1f77b4;stroke-width:3;" x="269.575464" xlink:href="#m17e1d74f69" y="99.606919"/>
     <use style="fill-opacity:0;stroke:#1f77b4;stroke-width:3;" x="270.753948" xlink:href="#m17e1d74f69" y="98.639056"/>
     <use style="fill-opacity:0;stroke:#1f77b4;stroke-width:3;" x="271.932431" xlink:href="#m17e1d74f69" y="118.480246"/>
     <use style="fill-opacity:0;stroke:#1f77b4;stroke-width:3;" x="273.201567" xlink:href="#m17e1d74f69" y="83.15325"/>
     <use style="fill-opacity:0;stroke:#1f77b4;stroke-width:3;" x="274.380051" xlink:href="#m17e1d74f69" y="83.637181"/>
     <use style="fill-opacity:0;stroke:#1f77b4;stroke-width:3;" x="275.558534" xlink:href="#m17e1d74f69" y="102.026577"/>
     <use style="fill-opacity:0;stroke:#1f77b4;stroke-width:3;" x="276.82767" xlink:href="#m17e1d74f69" y="82.669319"/>
     <use style="fill-opacity:0;stroke:#1f77b4;stroke-width:3;" x="278.006154" xlink:href="#m17e1d74f69" y="116.060589"/>
     <use style="fill-opacity:0;stroke:#1f77b4;stroke-width:3;" x="279.184637" xlink:href="#m17e1d74f69" y="104.930165"/>
     <use style="fill-opacity:0;stroke:#1f77b4;stroke-width:3;" x="280.453773" xlink:href="#m17e1d74f69" y="119.93204"/>
     <use style="fill-opacity:0;stroke:#1f77b4;stroke-width:3;" x="281.632257" xlink:href="#m17e1d74f69" y="90.412222"/>
     <use style="fill-opacity:0;stroke:#1f77b4;stroke-width:3;" x="282.81074" xlink:href="#m17e1d74f69" y="104.446234"/>
     <use style="fill-opacity:0;stroke:#1f77b4;stroke-width:3;" x="284.079876" xlink:href="#m17e1d74f69" y="147.516133"/>
     <use style="fill-opacity:0;stroke:#1f77b4;stroke-width:3;" x="285.25836" xlink:href="#m17e1d74f69" y="180.423472"/>
     <use style="fill-opacity:0;stroke:#1f77b4;stroke-width:3;" x="286.436843" xlink:href="#m17e1d74f69" y="192.521758"/>
     <use style="fill-opacity:0;stroke:#1f77b4;stroke-width:3;" x="287.705979" xlink:href="#m17e1d74f69" y="234.623794"/>
     <use style="fill-opacity:0;stroke:#1f77b4;stroke-width:3;" x="288.884463" xlink:href="#m17e1d74f69" y="229.300548"/>
     <use style="fill-opacity:0;stroke:#1f77b4;stroke-width:3;" x="290.062946" xlink:href="#m17e1d74f69" y="263.17575"/>
     <use style="fill-opacity:0;stroke:#1f77b4;stroke-width:3;" x="291.332082" xlink:href="#m17e1d74f69" y="277.693694"/>
     <use style="fill-opacity:0;stroke:#1f77b4;stroke-width:3;" x="292.510566" xlink:href="#m17e1d74f69" y="277.209762"/>
     <use style="fill-opacity:0;stroke:#1f77b4;stroke-width:3;" x="293.689049" xlink:href="#m17e1d74f69" y="293.1795"/>
     <use style="fill-opacity:0;stroke:#1f77b4;stroke-width:3;" x="294.958185" xlink:href="#m17e1d74f69" y="245.754218"/>
     <use style="fill-opacity:0;stroke:#1f77b4;stroke-width:3;" x="296.136669" xlink:href="#m17e1d74f69" y="190.102101"/>
     <use style="fill-opacity:0;stroke:#1f77b4;stroke-width:3;" x="297.315152" xlink:href="#m17e1d74f69" y="186.714581"/>
     <use style="fill-opacity:0;stroke:#1f77b4;stroke-width:3;" x="298.584288" xlink:href="#m17e1d74f69" y="150.419722"/>
     <use style="fill-opacity:0;stroke:#1f77b4;stroke-width:3;" x="299.762772" xlink:href="#m17e1d74f69" y="137.353573"/>
     <use style="fill-opacity:0;stroke:#1f77b4;stroke-width:3;" x="300.941255" xlink:href="#m17e1d74f69" y="116.060589"/>
     <use style="fill-opacity:0;stroke:#1f77b4;stroke-width:3;" x="302.210391" xlink:href="#m17e1d74f69" y="106.38196"/>
     <use style="fill-opacity:0;stroke:#1f77b4;stroke-width:3;" x="303.388875" xlink:href="#m17e1d74f69" y="110.737343"/>
     <use style="fill-opacity:0;stroke:#1f77b4;stroke-width:3;" x="304.567358" xlink:href="#m17e1d74f69" y="87.024702"/>
     <use style="fill-opacity:0;stroke:#1f77b4;stroke-width:3;" x="305.836494" xlink:href="#m17e1d74f69" y="88.476496"/>
     <use style="fill-opacity:0;stroke:#1f77b4;stroke-width:3;" x="307.014978" xlink:href="#m17e1d74f69" y="69.603169"/>
     <use style="fill-opacity:0;stroke:#1f77b4;stroke-width:3;" x="308.193461" xlink:href="#m17e1d74f69" y="113.640931"/>
     <use style="fill-opacity:0;stroke:#1f77b4;stroke-width:3;" x="309.462597" xlink:href="#m17e1d74f69" y="109.76948"/>
     <use style="fill-opacity:0;stroke:#1f77b4;stroke-width:3;" x="310.641081" xlink:href="#m17e1d74f69" y="142.676819"/>
     <use style="fill-opacity:0;stroke:#1f77b4;stroke-width:3;" x="311.819564" xlink:href="#m17e1d74f69" y="104.930165"/>
     <use style="fill-opacity:0;stroke:#1f77b4;stroke-width:3;" x="313.0887" xlink:href="#m17e1d74f69" y="80.249661"/>
     <use style="fill-opacity:0;stroke:#1f77b4;stroke-width:3;" x="314.267184" xlink:href="#m17e1d74f69" y="102.99444"/>
     <use style="fill-opacity:0;stroke:#1f77b4;stroke-width:3;" x="315.445667" xlink:href="#m17e1d74f69" y="78.797867"/>
     <use style="fill-opacity:0;stroke:#1f77b4;stroke-width:3;" x="316.714804" xlink:href="#m17e1d74f69" y="101.542645"/>
     <use style="fill-opacity:0;stroke:#1f77b4;stroke-width:3;" x="317.893287" xlink:href="#m17e1d74f69" y="88.476496"/>
     <use style="fill-opacity:0;stroke:#1f77b4;stroke-width:3;" x="319.07177" xlink:href="#m17e1d74f69" y="65.731718"/>
     <use style="fill-opacity:0;stroke:#1f77b4;stroke-width:3;" x="320.340907" xlink:href="#m17e1d74f69" y="108.317685"/>
     <use style="fill-opacity:0;stroke:#1f77b4;stroke-width:3;" x="321.51939" xlink:href="#m17e1d74f69" y="100.574782"/>
     <use style="fill-opacity:0;stroke:#1f77b4;stroke-width:3;" x="322.697873" xlink:href="#m17e1d74f69" y="114.608794"/>
     <use style="fill-opacity:0;stroke:#1f77b4;stroke-width:3;" x="323.96701" xlink:href="#m17e1d74f69" y="78.797867"/>
     <use style="fill-opacity:0;stroke:#1f77b4;stroke-width:3;" x="325.145493" xlink:href="#m17e1d74f69" y="58.956677"/>
     <use style="fill-opacity:0;stroke:#1f77b4;stroke-width:3;" x="326.323977" xlink:href="#m17e1d74f69" y="71.054964"/>
     <use style="fill-opacity:0;stroke:#1f77b4;stroke-width:3;" x="327.593113" xlink:href="#m17e1d74f69" y="105.414097"/>
     <use style="fill-opacity:0;stroke:#1f77b4;stroke-width:3;" x="328.771596" xlink:href="#m17e1d74f69" y="93.31581"/>
     <use style="fill-opacity:0;stroke:#1f77b4;stroke-width:3;" x="329.95008" xlink:href="#m17e1d74f69" y="97.187262"/>
     <use style="fill-opacity:0;stroke:#1f77b4;stroke-width:3;" x="331.219216" xlink:href="#m17e1d74f69" y="67.667444"/>
     <use style="fill-opacity:0;stroke:#1f77b4;stroke-width:3;" x="332.397699" xlink:href="#m17e1d74f69" y="62.344198"/>
     <use style="fill-opacity:0;stroke:#1f77b4;stroke-width:3;" x="333.576183" xlink:href="#m17e1d74f69" y="87.992565"/>
     <use style="fill-opacity:0;stroke:#1f77b4;stroke-width:3;" x="334.845319" xlink:href="#m17e1d74f69" y="77.830004"/>
     <use style="fill-opacity:0;stroke:#1f77b4;stroke-width:3;" x="336.023802" xlink:href="#m17e1d74f69" y="95.251536"/>
     <use style="fill-opacity:0;stroke:#1f77b4;stroke-width:3;" x="337.202286" xlink:href="#m17e1d74f69" y="111.221274"/>
     <use style="fill-opacity:0;stroke:#1f77b4;stroke-width:3;" x="338.471422" xlink:href="#m17e1d74f69" y="86.056839"/>
     <use style="fill-opacity:0;stroke:#1f77b4;stroke-width:3;" x="339.649905" xlink:href="#m17e1d74f69" y="99.122988"/>
     <use style="fill-opacity:0;stroke:#1f77b4;stroke-width:3;" x="340.828389" xlink:href="#m17e1d74f69" y="97.671194"/>
     <use style="fill-opacity:0;stroke:#1f77b4;stroke-width:3;" x="342.097525" xlink:href="#m17e1d74f69" y="91.380085"/>
     <use style="fill-opacity:0;stroke:#1f77b4;stroke-width:3;" x="343.276008" xlink:href="#m17e1d74f69" y="130.094601"/>
     <use style="fill-opacity:0;stroke:#1f77b4;stroke-width:3;" x="344.454492" xlink:href="#m17e1d74f69" y="106.38196"/>
     <use style="fill-opacity:0;stroke:#1f77b4;stroke-width:3;" x="345.723628" xlink:href="#m17e1d74f69" y="74.926415"/>
     <use style="fill-opacity:0;stroke:#1f77b4;stroke-width:3;" x="346.902111" xlink:href="#m17e1d74f69" y="86.056839"/>
     <use style="fill-opacity:0;stroke:#1f77b4;stroke-width:3;" x="348.080595" xlink:href="#m17e1d74f69" y="91.380085"/>
     <use style="fill-opacity:0;stroke:#1f77b4;stroke-width:3;" x="349.349731" xlink:href="#m17e1d74f69" y="64.279923"/>
     <use style="fill-opacity:0;stroke:#1f77b4;stroke-width:3;" x="350.528214" xlink:href="#m17e1d74f69" y="82.669319"/>
     <use style="fill-opacity:0;stroke:#1f77b4;stroke-width:3;" x="351.706698" xlink:href="#m17e1d74f69" y="106.865891"/>
     <use style="fill-opacity:0;stroke:#1f77b4;stroke-width:3;" x="352.975834" xlink:href="#m17e1d74f69" y="89.444359"/>
     <use style="fill-opacity:0;stroke:#1f77b4;stroke-width:3;" x="354.154317" xlink:href="#m17e1d74f69" y="119.93204"/>
     <use style="fill-opacity:0;stroke:#1f77b4;stroke-width:3;" x="355.332801" xlink:href="#m17e1d74f69" y="98.639056"/>
     <use style="fill-opacity:0;stroke:#1f77b4;stroke-width:3;" x="356.601937" xlink:href="#m17e1d74f69" y="100.090851"/>
     <use style="fill-opacity:0;stroke:#1f77b4;stroke-width:3;" x="357.78042" xlink:href="#m17e1d74f69" y="112.673069"/>
     <use style="fill-opacity:0;stroke:#1f77b4;stroke-width:3;" x="358.958904" xlink:href="#m17e1d74f69" y="92.831879"/>
     <use style="fill-opacity:0;stroke:#1f77b4;stroke-width:3;" x="360.22804" xlink:href="#m17e1d74f69" y="83.637181"/>
     <use style="fill-opacity:0;stroke:#1f77b4;stroke-width:3;" x="361.406523" xlink:href="#m17e1d74f69" y="106.38196"/>
     <use style="fill-opacity:0;stroke:#1f77b4;stroke-width:3;" x="362.585007" xlink:href="#m17e1d74f69" y="99.606919"/>
     <use style="fill-opacity:0;stroke:#1f77b4;stroke-width:3;" x="363.854143" xlink:href="#m17e1d74f69" y="105.898028"/>
     <use style="fill-opacity:0;stroke:#1f77b4;stroke-width:3;" x="365.032626" xlink:href="#m17e1d74f69" y="85.088976"/>
     <use style="fill-opacity:0;stroke:#1f77b4;stroke-width:3;" x="366.21111" xlink:href="#m17e1d74f69" y="116.060589"/>
     <use style="fill-opacity:0;stroke:#1f77b4;stroke-width:3;" x="367.480246" xlink:href="#m17e1d74f69" y="132.514258"/>
     <use style="fill-opacity:0;stroke:#1f77b4;stroke-width:3;" x="368.658729" xlink:href="#m17e1d74f69" y="181.875266"/>
     <use style="fill-opacity:0;stroke:#1f77b4;stroke-width:3;" x="369.837213" xlink:href="#m17e1d74f69" y="181.875266"/>
     <use style="fill-opacity:0;stroke:#1f77b4;stroke-width:3;" x="371.106349" xlink:href="#m17e1d74f69" y="212.846879"/>
     <use style="fill-opacity:0;stroke:#1f77b4;stroke-width:3;" x="372.284832" xlink:href="#m17e1d74f69" y="243.818492"/>
     <use style="fill-opacity:0;stroke:#1f77b4;stroke-width:3;" x="373.463316" xlink:href="#m17e1d74f69" y="230.268411"/>
     <use style="fill-opacity:0;stroke:#1f77b4;stroke-width:3;" x="374.732452" xlink:href="#m17e1d74f69" y="268.498996"/>
     <use style="fill-opacity:0;stroke:#1f77b4;stroke-width:3;" x="375.910935" xlink:href="#m17e1d74f69" y="217.202262"/>
     <use style="fill-opacity:0;stroke:#1f77b4;stroke-width:3;" x="377.089419" xlink:href="#m17e1d74f69" y="200.748593"/>
     <use style="fill-opacity:0;stroke:#1f77b4;stroke-width:3;" x="378.358555" xlink:href="#m17e1d74f69" y="176.068089"/>
     <use style="fill-opacity:0;stroke:#1f77b4;stroke-width:3;" x="379.537038" xlink:href="#m17e1d74f69" y="148.000065"/>
     <use style="fill-opacity:0;stroke:#1f77b4;stroke-width:3;" x="380.715522" xlink:href="#m17e1d74f69" y="135.901778"/>
     <use style="fill-opacity:0;stroke:#1f77b4;stroke-width:3;" x="381.984658" xlink:href="#m17e1d74f69" y="109.76948"/>
     <use style="fill-opacity:0;stroke:#1f77b4;stroke-width:3;" x="383.163141" xlink:href="#m17e1d74f69" y="135.417847"/>
     <use style="fill-opacity:0;stroke:#1f77b4;stroke-width:3;" x="384.341625" xlink:href="#m17e1d74f69" y="104.446234"/>
     <use style="fill-opacity:0;stroke:#1f77b4;stroke-width:3;" x="385.610761" xlink:href="#m17e1d74f69" y="110.737343"/>
     <use style="fill-opacity:0;stroke:#1f77b4;stroke-width:3;" x="386.789244" xlink:href="#m17e1d74f69" y="105.414097"/>
     <use style="fill-opacity:0;stroke:#1f77b4;stroke-width:3;" x="387.967728" xlink:href="#m17e1d74f69" y="107.833754"/>
     <use style="fill-opacity:0;stroke:#1f77b4;stroke-width:3;" x="389.236864" xlink:href="#m17e1d74f69" y="93.799742"/>
     <use style="fill-opacity:0;stroke:#1f77b4;stroke-width:3;" x="390.415347" xlink:href="#m17e1d74f69" y="83.637181"/>
     <use style="fill-opacity:0;stroke:#1f77b4;stroke-width:3;" x="391.593831" xlink:href="#m17e1d74f69" y="102.510508"/>
     <use style="fill-opacity:0;stroke:#1f77b4;stroke-width:3;" x="392.862967" xlink:href="#m17e1d74f69" y="56.053089"/>
     <use style="fill-opacity:0;stroke:#1f77b4;stroke-width:3;" x="394.04145" xlink:href="#m17e1d74f69" y="66.215649"/>
     <use style="fill-opacity:0;stroke:#1f77b4;stroke-width:3;" x="395.219934" xlink:href="#m17e1d74f69" y="99.606919"/>
     <use style="fill-opacity:0;stroke:#1f77b4;stroke-width:3;" x="396.48907" xlink:href="#m17e1d74f69" y="100.574782"/>
     <use style="fill-opacity:0;stroke:#1f77b4;stroke-width:3;" x="397.667553" xlink:href="#m17e1d74f69" y="94.767605"/>
     <use style="fill-opacity:0;stroke:#1f77b4;stroke-width:3;" x="398.846037" xlink:href="#m17e1d74f69" y="106.865891"/>
     <use style="fill-opacity:0;stroke:#1f77b4;stroke-width:3;" x="400.115173" xlink:href="#m17e1d74f69" y="86.056839"/>
     <use style="fill-opacity:0;stroke:#1f77b4;stroke-width:3;" x="401.293656" xlink:href="#m17e1d74f69" y="87.024702"/>
     <use style="fill-opacity:0;stroke:#1f77b4;stroke-width:3;" x="402.47214" xlink:href="#m17e1d74f69" y="103.962302"/>
     <use style="fill-opacity:0;stroke:#1f77b4;stroke-width:3;" x="403.741276" xlink:href="#m17e1d74f69" y="94.767605"/>
     <use style="fill-opacity:0;stroke:#1f77b4;stroke-width:3;" x="404.919759" xlink:href="#m17e1d74f69" y="117.512383"/>
     <use style="fill-opacity:0;stroke:#1f77b4;stroke-width:3;" x="406.098243" xlink:href="#m17e1d74f69" y="88.960427"/>
     <use style="fill-opacity:0;stroke:#1f77b4;stroke-width:3;" x="407.367379" xlink:href="#m17e1d74f69" y="100.090851"/>
     <use style="fill-opacity:0;stroke:#1f77b4;stroke-width:3;" x="408.545862" xlink:href="#m17e1d74f69" y="97.187262"/>
     <use style="fill-opacity:0;stroke:#1f77b4;stroke-width:3;" x="409.724346" xlink:href="#m17e1d74f69" y="102.99444"/>
     <use style="fill-opacity:0;stroke:#1f77b4;stroke-width:3;" x="410.993482" xlink:href="#m17e1d74f69" y="95.251536"/>
     <use style="fill-opacity:0;stroke:#1f77b4;stroke-width:3;" x="412.171965" xlink:href="#m17e1d74f69" y="96.703331"/>
     <use style="fill-opacity:0;stroke:#1f77b4;stroke-width:3;" x="413.350449" xlink:href="#m17e1d74f69" y="78.313935"/>
     <use style="fill-opacity:0;stroke:#1f77b4;stroke-width:3;" x="414.619585" xlink:href="#m17e1d74f69" y="105.898028"/>
     <use style="fill-opacity:0;stroke:#1f77b4;stroke-width:3;" x="415.798068" xlink:href="#m17e1d74f69" y="104.930165"/>
     <use style="fill-opacity:0;stroke:#1f77b4;stroke-width:3;" x="416.976552" xlink:href="#m17e1d74f69" y="83.637181"/>
     <use style="fill-opacity:0;stroke:#1f77b4;stroke-width:3;" x="418.245688" xlink:href="#m17e1d74f69" y="115.092726"/>
     <use style="fill-opacity:0;stroke:#1f77b4;stroke-width:3;" x="419.424171" xlink:href="#m17e1d74f69" y="91.380085"/>
     <use style="fill-opacity:0;stroke:#1f77b4;stroke-width:3;" x="420.602655" xlink:href="#m17e1d74f69" y="102.99444"/>
     <use style="fill-opacity:0;stroke:#1f77b4;stroke-width:3;" x="421.871791" xlink:href="#m17e1d74f69" y="83.637181"/>
     <use style="fill-opacity:0;stroke:#1f77b4;stroke-width:3;" x="423.050274" xlink:href="#m17e1d74f69" y="100.574782"/>
     <use style="fill-opacity:0;stroke:#1f77b4;stroke-width:3;" x="424.228758" xlink:href="#m17e1d74f69" y="75.410347"/>
     <use style="fill-opacity:0;stroke:#1f77b4;stroke-width:3;" x="425.497894" xlink:href="#m17e1d74f69" y="71.054964"/>
     <use style="fill-opacity:0;stroke:#1f77b4;stroke-width:3;" x="426.676377" xlink:href="#m17e1d74f69" y="93.799742"/>
     <use style="fill-opacity:0;stroke:#1f77b4;stroke-width:3;" x="427.854861" xlink:href="#m17e1d74f69" y="100.090851"/>
     <use style="fill-opacity:0;stroke:#1f77b4;stroke-width:3;" x="429.123997" xlink:href="#m17e1d74f69" y="84.121113"/>
     <use style="fill-opacity:0;stroke:#1f77b4;stroke-width:3;" x="430.302481" xlink:href="#m17e1d74f69" y="98.155125"/>
     <use style="fill-opacity:0;stroke:#1f77b4;stroke-width:3;" x="431.480964" xlink:href="#m17e1d74f69" y="108.801617"/>
     <use style="fill-opacity:0;stroke:#1f77b4;stroke-width:3;" x="432.7501" xlink:href="#m17e1d74f69" y="87.992565"/>
     <use style="fill-opacity:0;stroke:#1f77b4;stroke-width:3;" x="433.928584" xlink:href="#m17e1d74f69" y="82.669319"/>
     <use style="fill-opacity:0;stroke:#1f77b4;stroke-width:3;" x="435.107067" xlink:href="#m17e1d74f69" y="78.313935"/>
     <use style="fill-opacity:0;stroke:#1f77b4;stroke-width:3;" x="436.376203" xlink:href="#m17e1d74f69" y="92.831879"/>
     <use style="fill-opacity:0;stroke:#1f77b4;stroke-width:3;" x="437.554687" xlink:href="#m17e1d74f69" y="96.703331"/>
     <use style="fill-opacity:0;stroke:#1f77b4;stroke-width:3;" x="438.73317" xlink:href="#m17e1d74f69" y="92.347948"/>
     <use style="fill-opacity:0;stroke:#1f77b4;stroke-width:3;" x="440.002306" xlink:href="#m17e1d74f69" y="113.157"/>
     <use style="fill-opacity:0;stroke:#1f77b4;stroke-width:3;" x="441.18079" xlink:href="#m17e1d74f69" y="102.510508"/>
     <use style="fill-opacity:0;stroke:#1f77b4;stroke-width:3;" x="442.359273" xlink:href="#m17e1d74f69" y="80.733593"/>
     <use style="fill-opacity:0;stroke:#1f77b4;stroke-width:3;" x="443.628409" xlink:href="#m17e1d74f69" y="100.090851"/>
    </g>
   </g>
   <g id="line2d_12">
    <path clip-path="url(#pbc00991088)" d="M 82.196591 93.282571 
L 182.548992 93.318339 
L 183.727475 93.396583 
L 184.905959 93.615876 
L 186.175095 94.243208 
L 187.353578 95.629121 
L 188.532062 98.53953 
L 189.801198 104.658171 
L 190.979681 114.576593 
L 192.158165 129.839968 
L 193.427301 152.675747 
L 197.053404 230.006982 
L 198.231887 243.581253 
L 199.410371 244.812515 
L 200.679507 232.054887 
L 201.85799 210.185342 
L 204.30561 155.384755 
L 205.484093 133.373093 
L 206.662577 117.018745 
L 207.931713 105.536015 
L 209.110196 99.344431 
L 210.28868 96.03292 
L 211.557816 94.34857 
L 212.7363 93.686698 
L 213.914783 93.423083 
L 216.362403 93.29445 
L 232.045298 93.282571 
L 273.201567 93.338826 
L 274.380051 93.435631 
L 275.558534 93.672492 
L 276.82767 94.274231 
L 278.006154 95.486052 
L 279.184637 97.866855 
L 280.453773 102.656907 
L 281.632257 110.293773 
L 282.81074 122.185714 
L 284.079876 140.804753 
L 285.25836 163.709499 
L 288.884463 249.640735 
L 290.062946 270.467334 
L 291.332082 281.622472 
L 292.510566 279.44004 
L 293.689049 265.562289 
L 294.958185 240.524822 
L 298.584288 155.013192 
L 299.762772 133.97696 
L 300.941255 118.400508 
L 302.210391 107.161212 
L 303.388875 100.75443 
L 304.567358 97.048967 
L 305.836494 94.955861 
L 307.014978 94.018271 
L 308.193461 93.585434 
L 310.641081 93.321417 
L 316.714804 93.282641 
L 357.78042 93.361766 
L 358.958904 93.51269 
L 360.22804 93.945549 
L 361.406523 94.910688 
L 362.585007 96.969718 
L 363.854143 101.40448 
L 365.032626 108.827662 
L 366.21111 120.720207 
L 367.480246 139.492565 
L 368.658729 162.214372 
L 371.106349 215.387271 
L 372.284832 235.242135 
L 373.463316 245.48277 
L 374.732452 243.129387 
L 375.910935 229.060245 
L 377.089419 206.738579 
L 379.537038 153.595545 
L 380.715522 132.561392 
L 381.984658 115.889096 
L 383.163141 105.72519 
L 384.341625 99.598076 
L 385.610761 96.061676 
L 386.789244 94.474723 
L 387.967728 93.754174 
L 389.236864 93.441241 
L 391.593831 93.298927 
L 403.741276 93.282571 
L 443.628409 93.282571 
L 443.628409 93.282571 
" style="fill:none;stroke:#ff7f0e;stroke-linecap:square;stroke-width:4;"/>
   </g>
   <g id="patch_3">
    <path d="M 64.125 305.181 
L 64.125 41.148 
" style="fill:none;stroke:#000000;stroke-linecap:square;stroke-linejoin:miter;stroke-width:0.8;"/>
   </g>
   <g id="patch_4">
    <path d="M 461.7 305.181 
L 461.7 41.148 
" style="fill:none;stroke:#000000;stroke-linecap:square;stroke-linejoin:miter;stroke-width:0.8;"/>
   </g>
   <g id="patch_5">
    <path d="M 64.125 305.181 
L 461.7 305.181 
" style="fill:none;stroke:#000000;stroke-linecap:square;stroke-linejoin:miter;stroke-width:0.8;"/>
   </g>
   <g id="patch_6">
    <path d="M 64.125 41.148 
L 461.7 41.148 
" style="fill:none;stroke:#000000;stroke-linecap:square;stroke-linejoin:miter;stroke-width:0.8;"/>
   </g>
  </g>
 </g>
 <defs>
  <clipPath id="pbc00991088">
   <rect height="264.033" width="397.575" x="64.125" y="41.148"/>
  </clipPath>
 </defs>
</svg>
