<?xml version="1.0" encoding="utf-8" standalone="no"?>
<!DOCTYPE svg PUBLIC "-//W3C//DTD SVG 1.1//EN"
  "http://www.w3.org/Graphics/SVG/1.1/DTD/svg11.dtd">
<!-- Created with matplotlib (https://matplotlib.org/) -->
<svg height="432pt" version="1.1" viewBox="0 0 648 432" width="648pt" xmlns="http://www.w3.org/2000/svg" xmlns:xlink="http://www.w3.org/1999/xlink">
 <defs>
  <style type="text/css">
*{stroke-linecap:butt;stroke-linejoin:round;}
  </style>
 </defs>
 <g id="figure_1">
  <g id="patch_1">
   <path d="M 0 432 
L 648 432 
L 648 0 
L 0 0 
z
" style="fill:#ffffff;"/>
  </g>
  <g id="axes_1">
   <g id="patch_2">
    <path d="M 81 384.48 
L 583.2 384.48 
L 583.2 51.84 
L 81 51.84 
z
" style="fill:#ffffff;"/>
   </g>
   <g id="matplotlib.axis_1">
    <g id="xtick_1">
     <g id="line2d_1">
      <defs>
       <path d="M 0 0 
L 0 3.5 
" id="m03dc20bba1" style="stroke:#000000;stroke-width:0.8;"/>
      </defs>
      <g>
       <use style="stroke:#000000;stroke-width:0.8;" x="103.827273" xlink:href="#m03dc20bba1" y="384.48"/>
      </g>
     </g>
     <g id="text_1">
      <!-- 2500 -->
      <defs>
       <path d="M 19.1875 8.296875 
L 53.609375 8.296875 
L 53.609375 0 
L 7.328125 0 
L 7.328125 8.296875 
Q 12.9375 14.109375 22.625 23.890625 
Q 32.328125 33.6875 34.8125 36.53125 
Q 39.546875 41.84375 41.421875 45.53125 
Q 43.3125 49.21875 43.3125 52.78125 
Q 43.3125 58.59375 39.234375 62.25 
Q 35.15625 65.921875 28.609375 65.921875 
Q 23.96875 65.921875 18.8125 64.3125 
Q 13.671875 62.703125 7.8125 59.421875 
L 7.8125 69.390625 
Q 13.765625 71.78125 18.9375 73 
Q 24.125 74.21875 28.421875 74.21875 
Q 39.75 74.21875 46.484375 68.546875 
Q 53.21875 62.890625 53.21875 53.421875 
Q 53.21875 48.921875 51.53125 44.890625 
Q 49.859375 40.875 45.40625 35.40625 
Q 44.1875 33.984375 37.640625 27.21875 
Q 31.109375 20.453125 19.1875 8.296875 
z
" id="DejaVuSans-50"/>
       <path d="M 10.796875 72.90625 
L 49.515625 72.90625 
L 49.515625 64.59375 
L 19.828125 64.59375 
L 19.828125 46.734375 
Q 21.96875 47.46875 24.109375 47.828125 
Q 26.265625 48.1875 28.421875 48.1875 
Q 40.625 48.1875 47.75 41.5 
Q 54.890625 34.8125 54.890625 23.390625 
Q 54.890625 11.625 47.5625 5.09375 
Q 40.234375 -1.421875 26.90625 -1.421875 
Q 22.3125 -1.421875 17.546875 -0.640625 
Q 12.796875 0.140625 7.71875 1.703125 
L 7.71875 11.625 
Q 12.109375 9.234375 16.796875 8.0625 
Q 21.484375 6.890625 26.703125 6.890625 
Q 35.15625 6.890625 40.078125 11.328125 
Q 45.015625 15.765625 45.015625 23.390625 
Q 45.015625 31 40.078125 35.4375 
Q 35.15625 39.890625 26.703125 39.890625 
Q 22.75 39.890625 18.8125 39.015625 
Q 14.890625 38.140625 10.796875 36.28125 
z
" id="DejaVuSans-53"/>
       <path d="M 31.78125 66.40625 
Q 24.171875 66.40625 20.328125 58.90625 
Q 16.5 51.421875 16.5 36.375 
Q 16.5 21.390625 20.328125 13.890625 
Q 24.171875 6.390625 31.78125 6.390625 
Q 39.453125 6.390625 43.28125 13.890625 
Q 47.125 21.390625 47.125 36.375 
Q 47.125 51.421875 43.28125 58.90625 
Q 39.453125 66.40625 31.78125 66.40625 
z
M 31.78125 74.21875 
Q 44.046875 74.21875 50.515625 64.515625 
Q 56.984375 54.828125 56.984375 36.375 
Q 56.984375 17.96875 50.515625 8.265625 
Q 44.046875 -1.421875 31.78125 -1.421875 
Q 19.53125 -1.421875 13.0625 8.265625 
Q 6.59375 17.96875 6.59375 36.375 
Q 6.59375 54.828125 13.0625 64.515625 
Q 19.53125 74.21875 31.78125 74.21875 
z
" id="DejaVuSans-48"/>
      </defs>
      <g transform="translate(78.377273 406.676875)scale(0.2 -0.2)">
       <use xlink:href="#DejaVuSans-50"/>
       <use x="63.623047" xlink:href="#DejaVuSans-53"/>
       <use x="127.246094" xlink:href="#DejaVuSans-48"/>
       <use x="190.869141" xlink:href="#DejaVuSans-48"/>
      </g>
     </g>
    </g>
    <g id="xtick_2">
     <g id="line2d_2">
      <g>
       <use style="stroke:#000000;stroke-width:0.8;" x="218.335789" xlink:href="#m03dc20bba1" y="384.48"/>
      </g>
     </g>
     <g id="text_2">
      <!-- 2600 -->
      <defs>
       <path d="M 33.015625 40.375 
Q 26.375 40.375 22.484375 35.828125 
Q 18.609375 31.296875 18.609375 23.390625 
Q 18.609375 15.53125 22.484375 10.953125 
Q 26.375 6.390625 33.015625 6.390625 
Q 39.65625 6.390625 43.53125 10.953125 
Q 47.40625 15.53125 47.40625 23.390625 
Q 47.40625 31.296875 43.53125 35.828125 
Q 39.65625 40.375 33.015625 40.375 
z
M 52.59375 71.296875 
L 52.59375 62.3125 
Q 48.875 64.0625 45.09375 64.984375 
Q 41.3125 65.921875 37.59375 65.921875 
Q 27.828125 65.921875 22.671875 59.328125 
Q 17.53125 52.734375 16.796875 39.40625 
Q 19.671875 43.65625 24.015625 45.921875 
Q 28.375 48.1875 33.59375 48.1875 
Q 44.578125 48.1875 50.953125 41.515625 
Q 57.328125 34.859375 57.328125 23.390625 
Q 57.328125 12.15625 50.6875 5.359375 
Q 44.046875 -1.421875 33.015625 -1.421875 
Q 20.359375 -1.421875 13.671875 8.265625 
Q 6.984375 17.96875 6.984375 36.375 
Q 6.984375 53.65625 15.1875 63.9375 
Q 23.390625 74.21875 37.203125 74.21875 
Q 40.921875 74.21875 44.703125 73.484375 
Q 48.484375 72.75 52.59375 71.296875 
z
" id="DejaVuSans-54"/>
      </defs>
      <g transform="translate(192.885789 406.676875)scale(0.2 -0.2)">
       <use xlink:href="#DejaVuSans-50"/>
       <use x="63.623047" xlink:href="#DejaVuSans-54"/>
       <use x="127.246094" xlink:href="#DejaVuSans-48"/>
       <use x="190.869141" xlink:href="#DejaVuSans-48"/>
      </g>
     </g>
    </g>
    <g id="xtick_3">
     <g id="line2d_3">
      <g>
       <use style="stroke:#000000;stroke-width:0.8;" x="332.844305" xlink:href="#m03dc20bba1" y="384.48"/>
      </g>
     </g>
     <g id="text_3">
      <!-- 2700 -->
      <defs>
       <path d="M 8.203125 72.90625 
L 55.078125 72.90625 
L 55.078125 68.703125 
L 28.609375 0 
L 18.3125 0 
L 43.21875 64.59375 
L 8.203125 64.59375 
z
" id="DejaVuSans-55"/>
      </defs>
      <g transform="translate(307.394305 406.676875)scale(0.2 -0.2)">
       <use xlink:href="#DejaVuSans-50"/>
       <use x="63.623047" xlink:href="#DejaVuSans-55"/>
       <use x="127.246094" xlink:href="#DejaVuSans-48"/>
       <use x="190.869141" xlink:href="#DejaVuSans-48"/>
      </g>
     </g>
    </g>
    <g id="xtick_4">
     <g id="line2d_4">
      <g>
       <use style="stroke:#000000;stroke-width:0.8;" x="447.352822" xlink:href="#m03dc20bba1" y="384.48"/>
      </g>
     </g>
     <g id="text_4">
      <!-- 2800 -->
      <defs>
       <path d="M 31.78125 34.625 
Q 24.75 34.625 20.71875 30.859375 
Q 16.703125 27.09375 16.703125 20.515625 
Q 16.703125 13.921875 20.71875 10.15625 
Q 24.75 6.390625 31.78125 6.390625 
Q 38.8125 6.390625 42.859375 10.171875 
Q 46.921875 13.96875 46.921875 20.515625 
Q 46.921875 27.09375 42.890625 30.859375 
Q 38.875 34.625 31.78125 34.625 
z
M 21.921875 38.8125 
Q 15.578125 40.375 12.03125 44.71875 
Q 8.5 49.078125 8.5 55.328125 
Q 8.5 64.0625 14.71875 69.140625 
Q 20.953125 74.21875 31.78125 74.21875 
Q 42.671875 74.21875 48.875 69.140625 
Q 55.078125 64.0625 55.078125 55.328125 
Q 55.078125 49.078125 51.53125 44.71875 
Q 48 40.375 41.703125 38.8125 
Q 48.828125 37.15625 52.796875 32.3125 
Q 56.78125 27.484375 56.78125 20.515625 
Q 56.78125 9.90625 50.3125 4.234375 
Q 43.84375 -1.421875 31.78125 -1.421875 
Q 19.734375 -1.421875 13.25 4.234375 
Q 6.78125 9.90625 6.78125 20.515625 
Q 6.78125 27.484375 10.78125 32.3125 
Q 14.796875 37.15625 21.921875 38.8125 
z
M 18.3125 54.390625 
Q 18.3125 48.734375 21.84375 45.5625 
Q 25.390625 42.390625 31.78125 42.390625 
Q 38.140625 42.390625 41.71875 45.5625 
Q 45.3125 48.734375 45.3125 54.390625 
Q 45.3125 60.0625 41.71875 63.234375 
Q 38.140625 66.40625 31.78125 66.40625 
Q 25.390625 66.40625 21.84375 63.234375 
Q 18.3125 60.0625 18.3125 54.390625 
z
" id="DejaVuSans-56"/>
      </defs>
      <g transform="translate(421.902822 406.676875)scale(0.2 -0.2)">
       <use xlink:href="#DejaVuSans-50"/>
       <use x="63.623047" xlink:href="#DejaVuSans-56"/>
       <use x="127.246094" xlink:href="#DejaVuSans-48"/>
       <use x="190.869141" xlink:href="#DejaVuSans-48"/>
      </g>
     </g>
    </g>
    <g id="xtick_5">
     <g id="line2d_5">
      <g>
       <use style="stroke:#000000;stroke-width:0.8;" x="561.861338" xlink:href="#m03dc20bba1" y="384.48"/>
      </g>
     </g>
     <g id="text_5">
      <!-- 2900 -->
      <defs>
       <path d="M 10.984375 1.515625 
L 10.984375 10.5 
Q 14.703125 8.734375 18.5 7.8125 
Q 22.3125 6.890625 25.984375 6.890625 
Q 35.75 6.890625 40.890625 13.453125 
Q 46.046875 20.015625 46.78125 33.40625 
Q 43.953125 29.203125 39.59375 26.953125 
Q 35.25 24.703125 29.984375 24.703125 
Q 19.046875 24.703125 12.671875 31.3125 
Q 6.296875 37.9375 6.296875 49.421875 
Q 6.296875 60.640625 12.9375 67.421875 
Q 19.578125 74.21875 30.609375 74.21875 
Q 43.265625 74.21875 49.921875 64.515625 
Q 56.59375 54.828125 56.59375 36.375 
Q 56.59375 19.140625 48.40625 8.859375 
Q 40.234375 -1.421875 26.421875 -1.421875 
Q 22.703125 -1.421875 18.890625 -0.6875 
Q 15.09375 0.046875 10.984375 1.515625 
z
M 30.609375 32.421875 
Q 37.25 32.421875 41.125 36.953125 
Q 45.015625 41.5 45.015625 49.421875 
Q 45.015625 57.28125 41.125 61.84375 
Q 37.25 66.40625 30.609375 66.40625 
Q 23.96875 66.40625 20.09375 61.84375 
Q 16.21875 57.28125 16.21875 49.421875 
Q 16.21875 41.5 20.09375 36.953125 
Q 23.96875 32.421875 30.609375 32.421875 
z
" id="DejaVuSans-57"/>
      </defs>
      <g transform="translate(536.411338 406.676875)scale(0.2 -0.2)">
       <use xlink:href="#DejaVuSans-50"/>
       <use x="63.623047" xlink:href="#DejaVuSans-57"/>
       <use x="127.246094" xlink:href="#DejaVuSans-48"/>
       <use x="190.869141" xlink:href="#DejaVuSans-48"/>
      </g>
     </g>
    </g>
    <g id="text_6">
     <!-- Microwave frequency (MHz) -->
     <defs>
      <path d="M 9.1875 72.90625 
L 33.109375 72.90625 
L 49.703125 33.890625 
L 66.40625 72.90625 
L 90.28125 72.90625 
L 90.28125 0 
L 72.515625 0 
L 72.515625 53.328125 
L 55.71875 14.015625 
L 43.796875 14.015625 
L 27 53.328125 
L 27 0 
L 9.1875 0 
z
" id="DejaVuSans-Bold-77"/>
      <path d="M 8.40625 54.6875 
L 25.875 54.6875 
L 25.875 0 
L 8.40625 0 
z
M 8.40625 75.984375 
L 25.875 75.984375 
L 25.875 61.71875 
L 8.40625 61.71875 
z
" id="DejaVuSans-Bold-105"/>
      <path d="M 52.59375 52.984375 
L 52.59375 38.71875 
Q 49.03125 41.15625 45.4375 42.328125 
Q 41.84375 43.5 37.984375 43.5 
Q 30.671875 43.5 26.59375 39.234375 
Q 22.515625 34.96875 22.515625 27.296875 
Q 22.515625 19.625 26.59375 15.34375 
Q 30.671875 11.078125 37.984375 11.078125 
Q 42.09375 11.078125 45.78125 12.296875 
Q 49.46875 13.53125 52.59375 15.921875 
L 52.59375 1.609375 
Q 48.484375 0.09375 44.265625 -0.65625 
Q 40.046875 -1.421875 35.796875 -1.421875 
Q 21 -1.421875 12.640625 6.171875 
Q 4.296875 13.765625 4.296875 27.296875 
Q 4.296875 40.828125 12.640625 48.40625 
Q 21 56 35.796875 56 
Q 40.09375 56 44.265625 55.25 
Q 48.4375 54.5 52.59375 52.984375 
z
" id="DejaVuSans-Bold-99"/>
      <path d="M 49.03125 39.796875 
Q 46.734375 40.875 44.453125 41.375 
Q 42.1875 41.890625 39.890625 41.890625 
Q 33.15625 41.890625 29.515625 37.5625 
Q 25.875 33.25 25.875 25.203125 
L 25.875 0 
L 8.40625 0 
L 8.40625 54.6875 
L 25.875 54.6875 
L 25.875 45.703125 
Q 29.25 51.078125 33.609375 53.53125 
Q 37.984375 56 44.09375 56 
Q 44.96875 56 45.984375 55.921875 
Q 47.015625 55.859375 48.96875 55.609375 
z
" id="DejaVuSans-Bold-114"/>
      <path d="M 34.421875 43.5 
Q 28.609375 43.5 25.5625 39.328125 
Q 22.515625 35.15625 22.515625 27.296875 
Q 22.515625 19.4375 25.5625 15.25 
Q 28.609375 11.078125 34.421875 11.078125 
Q 40.140625 11.078125 43.15625 15.25 
Q 46.1875 19.4375 46.1875 27.296875 
Q 46.1875 35.15625 43.15625 39.328125 
Q 40.140625 43.5 34.421875 43.5 
z
M 34.421875 56 
Q 48.53125 56 56.46875 48.375 
Q 64.40625 40.765625 64.40625 27.296875 
Q 64.40625 13.8125 56.46875 6.1875 
Q 48.53125 -1.421875 34.421875 -1.421875 
Q 20.265625 -1.421875 12.28125 6.1875 
Q 4.296875 13.8125 4.296875 27.296875 
Q 4.296875 40.765625 12.28125 48.375 
Q 20.265625 56 34.421875 56 
z
" id="DejaVuSans-Bold-111"/>
      <path d="M 3.515625 54.6875 
L 20.515625 54.6875 
L 29.6875 17 
L 38.921875 54.6875 
L 53.515625 54.6875 
L 62.703125 17.390625 
L 71.921875 54.6875 
L 88.921875 54.6875 
L 74.515625 0 
L 55.421875 0 
L 46.1875 37.59375 
L 37.015625 0 
L 17.921875 0 
z
" id="DejaVuSans-Bold-119"/>
      <path d="M 32.90625 24.609375 
Q 27.4375 24.609375 24.671875 22.75 
Q 21.921875 20.90625 21.921875 17.28125 
Q 21.921875 13.96875 24.140625 12.078125 
Q 26.375 10.203125 30.328125 10.203125 
Q 35.25 10.203125 38.625 13.734375 
Q 42 17.28125 42 22.609375 
L 42 24.609375 
z
M 59.625 31.203125 
L 59.625 0 
L 42 0 
L 42 8.109375 
Q 38.484375 3.125 34.078125 0.84375 
Q 29.6875 -1.421875 23.390625 -1.421875 
Q 14.890625 -1.421875 9.59375 3.53125 
Q 4.296875 8.5 4.296875 16.40625 
Q 4.296875 26.03125 10.90625 30.515625 
Q 17.53125 35.015625 31.6875 35.015625 
L 42 35.015625 
L 42 36.375 
Q 42 40.53125 38.71875 42.453125 
Q 35.453125 44.390625 28.515625 44.390625 
Q 22.90625 44.390625 18.0625 43.265625 
Q 13.234375 42.140625 9.078125 39.890625 
L 9.078125 53.21875 
Q 14.703125 54.59375 20.359375 55.296875 
Q 26.03125 56 31.6875 56 
Q 46.484375 56 53.046875 50.171875 
Q 59.625 44.34375 59.625 31.203125 
z
" id="DejaVuSans-Bold-97"/>
      <path d="M 1.515625 54.6875 
L 19 54.6875 
L 32.625 16.890625 
L 46.1875 54.6875 
L 63.71875 54.6875 
L 42.1875 0 
L 23 0 
z
" id="DejaVuSans-Bold-118"/>
      <path d="M 62.984375 27.484375 
L 62.984375 22.515625 
L 22.125 22.515625 
Q 22.75 16.359375 26.5625 13.28125 
Q 30.375 10.203125 37.203125 10.203125 
Q 42.71875 10.203125 48.5 11.84375 
Q 54.296875 13.484375 60.40625 16.796875 
L 60.40625 3.328125 
Q 54.203125 0.984375 48 -0.21875 
Q 41.796875 -1.421875 35.59375 -1.421875 
Q 20.75 -1.421875 12.515625 6.125 
Q 4.296875 13.671875 4.296875 27.296875 
Q 4.296875 40.671875 12.375 48.328125 
Q 20.453125 56 34.625 56 
Q 47.515625 56 55.25 48.234375 
Q 62.984375 40.484375 62.984375 27.484375 
z
M 45.015625 33.296875 
Q 45.015625 38.28125 42.109375 41.328125 
Q 39.203125 44.390625 34.515625 44.390625 
Q 29.4375 44.390625 26.265625 41.53125 
Q 23.09375 38.671875 22.3125 33.296875 
z
" id="DejaVuSans-Bold-101"/>
      <path id="DejaVuSans-Bold-32"/>
      <path d="M 44.390625 75.984375 
L 44.390625 64.5 
L 34.71875 64.5 
Q 31 64.5 29.53125 63.15625 
Q 28.078125 61.8125 28.078125 58.5 
L 28.078125 54.6875 
L 43.015625 54.6875 
L 43.015625 42.1875 
L 28.078125 42.1875 
L 28.078125 0 
L 10.59375 0 
L 10.59375 42.1875 
L 1.90625 42.1875 
L 1.90625 54.6875 
L 10.59375 54.6875 
L 10.59375 58.5 
Q 10.59375 67.4375 15.578125 71.703125 
Q 20.5625 75.984375 31 75.984375 
z
" id="DejaVuSans-Bold-102"/>
      <path d="M 34.078125 43.3125 
Q 28.515625 43.3125 25.5625 39.203125 
Q 22.609375 35.109375 22.609375 27.296875 
Q 22.609375 19.484375 25.5625 15.375 
Q 28.515625 11.28125 34.078125 11.28125 
Q 39.703125 11.28125 42.65625 15.375 
Q 45.609375 19.484375 45.609375 27.296875 
Q 45.609375 35.109375 42.65625 39.203125 
Q 39.703125 43.3125 34.078125 43.3125 
z
M 45.609375 7.90625 
Q 42 3.078125 37.640625 0.828125 
Q 33.296875 -1.421875 27.59375 -1.421875 
Q 17.484375 -1.421875 10.984375 6.609375 
Q 4.5 14.65625 4.5 27.296875 
Q 4.5 39.9375 10.984375 47.921875 
Q 17.484375 55.90625 27.59375 55.90625 
Q 33.296875 55.90625 37.640625 53.65625 
Q 42 51.421875 45.609375 46.578125 
L 45.609375 54.6875 
L 63.1875 54.6875 
L 63.1875 -20.796875 
L 45.609375 -20.796875 
z
" id="DejaVuSans-Bold-113"/>
      <path d="M 7.8125 21.296875 
L 7.8125 54.6875 
L 25.390625 54.6875 
L 25.390625 49.21875 
Q 25.390625 44.78125 25.34375 38.0625 
Q 25.296875 31.34375 25.296875 29.109375 
Q 25.296875 22.515625 25.640625 19.609375 
Q 25.984375 16.703125 26.8125 15.375 
Q 27.875 13.671875 29.609375 12.734375 
Q 31.34375 11.8125 33.59375 11.8125 
Q 39.0625 11.8125 42.1875 16.015625 
Q 45.3125 20.21875 45.3125 27.6875 
L 45.3125 54.6875 
L 62.796875 54.6875 
L 62.796875 0 
L 45.3125 0 
L 45.3125 7.90625 
Q 41.359375 3.125 36.9375 0.84375 
Q 32.515625 -1.421875 27.203125 -1.421875 
Q 17.71875 -1.421875 12.765625 4.390625 
Q 7.8125 10.203125 7.8125 21.296875 
z
" id="DejaVuSans-Bold-117"/>
      <path d="M 63.375 33.296875 
L 63.375 0 
L 45.796875 0 
L 45.796875 5.421875 
L 45.796875 25.484375 
Q 45.796875 32.5625 45.484375 35.25 
Q 45.171875 37.9375 44.390625 39.203125 
Q 43.359375 40.921875 41.59375 41.875 
Q 39.84375 42.828125 37.59375 42.828125 
Q 32.125 42.828125 29 38.59375 
Q 25.875 34.375 25.875 26.90625 
L 25.875 0 
L 8.40625 0 
L 8.40625 54.6875 
L 25.875 54.6875 
L 25.875 46.6875 
Q 29.828125 51.46875 34.265625 53.734375 
Q 38.71875 56 44.09375 56 
Q 53.5625 56 58.46875 50.1875 
Q 63.375 44.390625 63.375 33.296875 
z
" id="DejaVuSans-Bold-110"/>
      <path d="M 1.21875 54.6875 
L 18.703125 54.6875 
L 33.40625 17.578125 
L 45.90625 54.6875 
L 63.375 54.6875 
L 40.375 -5.171875 
Q 36.921875 -14.3125 32.296875 -17.9375 
Q 27.6875 -21.578125 20.125 -21.578125 
L 10.015625 -21.578125 
L 10.015625 -10.109375 
L 15.484375 -10.109375 
Q 19.921875 -10.109375 21.9375 -8.6875 
Q 23.96875 -7.28125 25.09375 -3.609375 
L 25.59375 -2.09375 
z
" id="DejaVuSans-Bold-121"/>
      <path d="M 37.703125 -13.1875 
L 23.1875 -13.1875 
Q 15.71875 -1.125 12.15625 9.734375 
Q 8.59375 20.609375 8.59375 31.296875 
Q 8.59375 42 12.171875 52.953125 
Q 15.765625 63.921875 23.1875 75.875 
L 37.703125 75.875 
Q 31.453125 64.3125 28.328125 53.25 
Q 25.203125 42.1875 25.203125 31.390625 
Q 25.203125 20.609375 28.296875 9.515625 
Q 31.390625 -1.5625 37.703125 -13.1875 
z
" id="DejaVuSans-Bold-40"/>
      <path d="M 9.1875 72.90625 
L 27.984375 72.90625 
L 27.984375 45.125 
L 55.71875 45.125 
L 55.71875 72.90625 
L 74.515625 72.90625 
L 74.515625 0 
L 55.71875 0 
L 55.71875 30.90625 
L 27.984375 30.90625 
L 27.984375 0 
L 9.1875 0 
z
" id="DejaVuSans-Bold-72"/>
      <path d="M 5.71875 54.6875 
L 53.421875 54.6875 
L 53.421875 42.484375 
L 24.609375 12.5 
L 53.421875 12.5 
L 53.421875 0 
L 4.5 0 
L 4.5 12.203125 
L 33.296875 42.1875 
L 5.71875 42.1875 
z
" id="DejaVuSans-Bold-122"/>
      <path d="M 8.015625 -13.1875 
Q 14.265625 -1.5625 17.390625 9.515625 
Q 20.515625 20.609375 20.515625 31.390625 
Q 20.515625 42.1875 17.390625 53.25 
Q 14.265625 64.3125 8.015625 75.875 
L 22.515625 75.875 
Q 29.9375 63.921875 33.515625 52.953125 
Q 37.109375 42 37.109375 31.296875 
Q 37.109375 20.609375 33.546875 9.734375 
Q 29.984375 -1.125 22.515625 -13.1875 
z
" id="DejaVuSans-Bold-41"/>
     </defs>
     <g transform="translate(174.76875 430.033125)scale(0.2 -0.2)">
      <use xlink:href="#DejaVuSans-Bold-77"/>
      <use x="99.511719" xlink:href="#DejaVuSans-Bold-105"/>
      <use x="133.789062" xlink:href="#DejaVuSans-Bold-99"/>
      <use x="193.066406" xlink:href="#DejaVuSans-Bold-114"/>
      <use x="242.382812" xlink:href="#DejaVuSans-Bold-111"/>
      <use x="311.083984" xlink:href="#DejaVuSans-Bold-119"/>
      <use x="403.466797" xlink:href="#DejaVuSans-Bold-97"/>
      <use x="470.947266" xlink:href="#DejaVuSans-Bold-118"/>
      <use x="536.132812" xlink:href="#DejaVuSans-Bold-101"/>
      <use x="603.955078" xlink:href="#DejaVuSans-Bold-32"/>
      <use x="638.769531" xlink:href="#DejaVuSans-Bold-102"/>
      <use x="682.275391" xlink:href="#DejaVuSans-Bold-114"/>
      <use x="731.591797" xlink:href="#DejaVuSans-Bold-101"/>
      <use x="799.414062" xlink:href="#DejaVuSans-Bold-113"/>
      <use x="870.996094" xlink:href="#DejaVuSans-Bold-117"/>
      <use x="942.1875" xlink:href="#DejaVuSans-Bold-101"/>
      <use x="1010.009766" xlink:href="#DejaVuSans-Bold-110"/>
      <use x="1081.201172" xlink:href="#DejaVuSans-Bold-99"/>
      <use x="1140.478516" xlink:href="#DejaVuSans-Bold-121"/>
      <use x="1205.664062" xlink:href="#DejaVuSans-Bold-32"/>
      <use x="1240.478516" xlink:href="#DejaVuSans-Bold-40"/>
      <use x="1286.181641" xlink:href="#DejaVuSans-Bold-77"/>
      <use x="1385.693359" xlink:href="#DejaVuSans-Bold-72"/>
      <use x="1469.384766" xlink:href="#DejaVuSans-Bold-122"/>
      <use x="1527.587891" xlink:href="#DejaVuSans-Bold-41"/>
     </g>
    </g>
   </g>
   <g id="matplotlib.axis_2">
    <g id="ytick_1">
     <g id="line2d_6">
      <defs>
       <path d="M 0 0 
L -3.5 0 
" id="md063dcf062" style="stroke:#000000;stroke-width:0.8;"/>
      </defs>
      <g>
       <use style="stroke:#000000;stroke-width:0.8;" x="81" xlink:href="#md063dcf062" y="363.622495"/>
      </g>
     </g>
     <g id="text_7">
      <!-- 0.992 -->
      <defs>
       <path d="M 10.6875 12.40625 
L 21 12.40625 
L 21 0 
L 10.6875 0 
z
" id="DejaVuSans-46"/>
      </defs>
      <g transform="translate(16.74375 371.220932)scale(0.2 -0.2)">
       <use xlink:href="#DejaVuSans-48"/>
       <use x="63.623047" xlink:href="#DejaVuSans-46"/>
       <use x="95.410156" xlink:href="#DejaVuSans-57"/>
       <use x="159.033203" xlink:href="#DejaVuSans-57"/>
       <use x="222.65625" xlink:href="#DejaVuSans-50"/>
      </g>
     </g>
    </g>
    <g id="ytick_2">
     <g id="line2d_7">
      <g>
       <use style="stroke:#000000;stroke-width:0.8;" x="81" xlink:href="#md063dcf062" y="289.456871"/>
      </g>
     </g>
     <g id="text_8">
      <!-- 0.994 -->
      <defs>
       <path d="M 37.796875 64.3125 
L 12.890625 25.390625 
L 37.796875 25.390625 
z
M 35.203125 72.90625 
L 47.609375 72.90625 
L 47.609375 25.390625 
L 58.015625 25.390625 
L 58.015625 17.1875 
L 47.609375 17.1875 
L 47.609375 0 
L 37.796875 0 
L 37.796875 17.1875 
L 4.890625 17.1875 
L 4.890625 26.703125 
z
" id="DejaVuSans-52"/>
      </defs>
      <g transform="translate(16.74375 297.055309)scale(0.2 -0.2)">
       <use xlink:href="#DejaVuSans-48"/>
       <use x="63.623047" xlink:href="#DejaVuSans-46"/>
       <use x="95.410156" xlink:href="#DejaVuSans-57"/>
       <use x="159.033203" xlink:href="#DejaVuSans-57"/>
       <use x="222.65625" xlink:href="#DejaVuSans-52"/>
      </g>
     </g>
    </g>
    <g id="ytick_3">
     <g id="line2d_8">
      <g>
       <use style="stroke:#000000;stroke-width:0.8;" x="81" xlink:href="#md063dcf062" y="215.291247"/>
      </g>
     </g>
     <g id="text_9">
      <!-- 0.996 -->
      <g transform="translate(16.74375 222.889685)scale(0.2 -0.2)">
       <use xlink:href="#DejaVuSans-48"/>
       <use x="63.623047" xlink:href="#DejaVuSans-46"/>
       <use x="95.410156" xlink:href="#DejaVuSans-57"/>
       <use x="159.033203" xlink:href="#DejaVuSans-57"/>
       <use x="222.65625" xlink:href="#DejaVuSans-54"/>
      </g>
     </g>
    </g>
    <g id="ytick_4">
     <g id="line2d_9">
      <g>
       <use style="stroke:#000000;stroke-width:0.8;" x="81" xlink:href="#md063dcf062" y="141.125624"/>
      </g>
     </g>
     <g id="text_10">
      <!-- 0.998 -->
      <g transform="translate(16.74375 148.724061)scale(0.2 -0.2)">
       <use xlink:href="#DejaVuSans-48"/>
       <use x="63.623047" xlink:href="#DejaVuSans-46"/>
       <use x="95.410156" xlink:href="#DejaVuSans-57"/>
       <use x="159.033203" xlink:href="#DejaVuSans-57"/>
       <use x="222.65625" xlink:href="#DejaVuSans-56"/>
      </g>
     </g>
    </g>
    <g id="ytick_5">
     <g id="line2d_10">
      <g>
       <use style="stroke:#000000;stroke-width:0.8;" x="81" xlink:href="#md063dcf062" y="66.96"/>
      </g>
     </g>
     <g id="text_11">
      <!-- 1.000 -->
      <defs>
       <path d="M 12.40625 8.296875 
L 28.515625 8.296875 
L 28.515625 63.921875 
L 10.984375 60.40625 
L 10.984375 69.390625 
L 28.421875 72.90625 
L 38.28125 72.90625 
L 38.28125 8.296875 
L 54.390625 8.296875 
L 54.390625 0 
L 12.40625 0 
z
" id="DejaVuSans-49"/>
      </defs>
      <g transform="translate(16.74375 74.558438)scale(0.2 -0.2)">
       <use xlink:href="#DejaVuSans-49"/>
       <use x="63.623047" xlink:href="#DejaVuSans-46"/>
       <use x="95.410156" xlink:href="#DejaVuSans-48"/>
       <use x="159.033203" xlink:href="#DejaVuSans-48"/>
       <use x="222.65625" xlink:href="#DejaVuSans-48"/>
      </g>
     </g>
    </g>
    <g id="text_12">
     <!-- Photoluminescence -->
     <defs>
      <path d="M 9.1875 72.90625 
L 40.375 72.90625 
Q 54.296875 72.90625 61.734375 66.71875 
Q 69.1875 60.546875 69.1875 49.125 
Q 69.1875 37.640625 61.734375 31.46875 
Q 54.296875 25.296875 40.375 25.296875 
L 27.984375 25.296875 
L 27.984375 0 
L 9.1875 0 
z
M 27.984375 59.28125 
L 27.984375 38.921875 
L 38.375 38.921875 
Q 43.84375 38.921875 46.828125 41.578125 
Q 49.8125 44.234375 49.8125 49.125 
Q 49.8125 54 46.828125 56.640625 
Q 43.84375 59.28125 38.375 59.28125 
z
" id="DejaVuSans-Bold-80"/>
      <path d="M 63.375 33.296875 
L 63.375 0 
L 45.796875 0 
L 45.796875 5.421875 
L 45.796875 25.390625 
Q 45.796875 32.5625 45.484375 35.25 
Q 45.171875 37.9375 44.390625 39.203125 
Q 43.359375 40.921875 41.59375 41.875 
Q 39.84375 42.828125 37.59375 42.828125 
Q 32.125 42.828125 29 38.59375 
Q 25.875 34.375 25.875 26.90625 
L 25.875 0 
L 8.40625 0 
L 8.40625 75.984375 
L 25.875 75.984375 
L 25.875 46.6875 
Q 29.828125 51.46875 34.265625 53.734375 
Q 38.71875 56 44.09375 56 
Q 53.5625 56 58.46875 50.1875 
Q 63.375 44.390625 63.375 33.296875 
z
" id="DejaVuSans-Bold-104"/>
      <path d="M 27.484375 70.21875 
L 27.484375 54.6875 
L 45.515625 54.6875 
L 45.515625 42.1875 
L 27.484375 42.1875 
L 27.484375 19 
Q 27.484375 15.1875 29 13.84375 
Q 30.515625 12.5 35.015625 12.5 
L 44 12.5 
L 44 0 
L 29 0 
Q 18.65625 0 14.328125 4.3125 
Q 10.015625 8.640625 10.015625 19 
L 10.015625 42.1875 
L 1.3125 42.1875 
L 1.3125 54.6875 
L 10.015625 54.6875 
L 10.015625 70.21875 
z
" id="DejaVuSans-Bold-116"/>
      <path d="M 8.40625 75.984375 
L 25.875 75.984375 
L 25.875 0 
L 8.40625 0 
z
" id="DejaVuSans-Bold-108"/>
      <path d="M 59.078125 45.609375 
Q 62.40625 50.6875 66.96875 53.34375 
Q 71.53125 56 77 56 
Q 86.421875 56 91.359375 50.1875 
Q 96.296875 44.390625 96.296875 33.296875 
L 96.296875 0 
L 78.71875 0 
L 78.71875 28.515625 
Q 78.765625 29.15625 78.78125 29.828125 
Q 78.8125 30.515625 78.8125 31.78125 
Q 78.8125 37.59375 77.09375 40.203125 
Q 75.390625 42.828125 71.578125 42.828125 
Q 66.609375 42.828125 63.890625 38.71875 
Q 61.1875 34.625 61.078125 26.859375 
L 61.078125 0 
L 43.5 0 
L 43.5 28.515625 
Q 43.5 37.59375 41.9375 40.203125 
Q 40.375 42.828125 36.375 42.828125 
Q 31.34375 42.828125 28.609375 38.703125 
Q 25.875 34.578125 25.875 26.90625 
L 25.875 0 
L 8.296875 0 
L 8.296875 54.6875 
L 25.875 54.6875 
L 25.875 46.6875 
Q 29.109375 51.3125 33.28125 53.65625 
Q 37.453125 56 42.484375 56 
Q 48.140625 56 52.484375 53.265625 
Q 56.84375 50.53125 59.078125 45.609375 
z
" id="DejaVuSans-Bold-109"/>
      <path d="M 51.125 52.984375 
L 51.125 39.703125 
Q 45.515625 42.046875 40.28125 43.21875 
Q 35.0625 44.390625 30.421875 44.390625 
Q 25.4375 44.390625 23.015625 43.140625 
Q 20.609375 41.890625 20.609375 39.3125 
Q 20.609375 37.203125 22.4375 36.078125 
Q 24.265625 34.96875 29 34.421875 
L 32.078125 33.984375 
Q 45.515625 32.28125 50.140625 28.375 
Q 54.78125 24.46875 54.78125 16.109375 
Q 54.78125 7.375 48.328125 2.96875 
Q 41.890625 -1.421875 29.109375 -1.421875 
Q 23.6875 -1.421875 17.890625 -0.5625 
Q 12.109375 0.296875 6 2 
L 6 15.28125 
Q 11.234375 12.75 16.71875 11.46875 
Q 22.21875 10.203125 27.875 10.203125 
Q 33.015625 10.203125 35.59375 11.609375 
Q 38.1875 13.03125 38.1875 15.828125 
Q 38.1875 18.171875 36.40625 19.3125 
Q 34.625 20.453125 29.296875 21.09375 
L 26.21875 21.484375 
Q 14.546875 22.953125 9.859375 26.90625 
Q 5.171875 30.859375 5.171875 38.921875 
Q 5.171875 47.609375 11.125 51.796875 
Q 17.09375 56 29.390625 56 
Q 34.234375 56 39.546875 55.265625 
Q 44.875 54.546875 51.125 52.984375 
z
" id="DejaVuSans-Bold-115"/>
     </defs>
     <g transform="translate(8.584375 327.917812)rotate(-90)scale(0.2 -0.2)">
      <use xlink:href="#DejaVuSans-Bold-80"/>
      <use x="73.291016" xlink:href="#DejaVuSans-Bold-104"/>
      <use x="144.482422" xlink:href="#DejaVuSans-Bold-111"/>
      <use x="213.183594" xlink:href="#DejaVuSans-Bold-116"/>
      <use x="260.986328" xlink:href="#DejaVuSans-Bold-111"/>
      <use x="329.6875" xlink:href="#DejaVuSans-Bold-108"/>
      <use x="363.964844" xlink:href="#DejaVuSans-Bold-117"/>
      <use x="435.15625" xlink:href="#DejaVuSans-Bold-109"/>
      <use x="539.355469" xlink:href="#DejaVuSans-Bold-105"/>
      <use x="573.632812" xlink:href="#DejaVuSans-Bold-110"/>
      <use x="644.824219" xlink:href="#DejaVuSans-Bold-101"/>
      <use x="712.646484" xlink:href="#DejaVuSans-Bold-115"/>
      <use x="772.167969" xlink:href="#DejaVuSans-Bold-99"/>
      <use x="831.445312" xlink:href="#DejaVuSans-Bold-101"/>
      <use x="899.267578" xlink:href="#DejaVuSans-Bold-110"/>
      <use x="970.458984" xlink:href="#DejaVuSans-Bold-99"/>
      <use x="1029.736328" xlink:href="#DejaVuSans-Bold-101"/>
     </g>
    </g>
   </g>
   <g id="line2d_11">
    <defs>
     <path d="M 0 5 
C 1.326016 5 2.597899 4.473168 3.535534 3.535534 
C 4.473168 2.597899 5 1.326016 5 0 
C 5 -1.326016 4.473168 -2.597899 3.535534 -3.535534 
C 2.597899 -4.473168 1.326016 -5 0 -5 
C -1.326016 -5 -2.597899 -4.473168 -3.535534 -3.535534 
C -4.473168 -2.597899 -5 -1.326016 -5 0 
C -5 1.326016 -4.473168 2.597899 -3.535534 3.535534 
C -2.597899 4.473168 -1.326016 5 0 5 
z
" id="m54334f0913" style="stroke:#1f77b4;stroke-width:3;"/>
    </defs>
    <g clip-path="url(#pd1efb2654d)">
     <use style="fill-opacity:0;stroke:#1f77b4;stroke-width:3;" x="103.827273" xlink:href="#m54334f0913" y="135.377197"/>
     <use style="fill-opacity:0;stroke:#1f77b4;stroke-width:3;" x="105.315883" xlink:href="#m54334f0913" y="112.571465"/>
     <use style="fill-opacity:0;stroke:#1f77b4;stroke-width:3;" x="106.919003" xlink:href="#m54334f0913" y="118.79121"/>
     <use style="fill-opacity:0;stroke:#1f77b4;stroke-width:3;" x="108.407613" xlink:href="#m54334f0913" y="107.733885"/>
     <use style="fill-opacity:0;stroke:#1f77b4;stroke-width:3;" x="109.896224" xlink:href="#m54334f0913" y="113.262547"/>
     <use style="fill-opacity:0;stroke:#1f77b4;stroke-width:3;" x="111.499343" xlink:href="#m54334f0913" y="133.995031"/>
     <use style="fill-opacity:0;stroke:#1f77b4;stroke-width:3;" x="112.987954" xlink:href="#m54334f0913" y="137.450445"/>
     <use style="fill-opacity:0;stroke:#1f77b4;stroke-width:3;" x="114.476565" xlink:href="#m54334f0913" y="104.969554"/>
     <use style="fill-opacity:0;stroke:#1f77b4;stroke-width:3;" x="116.079684" xlink:href="#m54334f0913" y="98.749809"/>
     <use style="fill-opacity:0;stroke:#1f77b4;stroke-width:3;" x="117.568295" xlink:href="#m54334f0913" y="117.409044"/>
     <use style="fill-opacity:0;stroke:#1f77b4;stroke-width:3;" x="119.056905" xlink:href="#m54334f0913" y="154.727515"/>
     <use style="fill-opacity:0;stroke:#1f77b4;stroke-width:3;" x="120.660025" xlink:href="#m54334f0913" y="122.937707"/>
     <use style="fill-opacity:0;stroke:#1f77b4;stroke-width:3;" x="122.148635" xlink:href="#m54334f0913" y="104.969554"/>
     <use style="fill-opacity:0;stroke:#1f77b4;stroke-width:3;" x="123.637246" xlink:href="#m54334f0913" y="120.864458"/>
     <use style="fill-opacity:0;stroke:#1f77b4;stroke-width:3;" x="125.240365" xlink:href="#m54334f0913" y="130.539617"/>
     <use style="fill-opacity:0;stroke:#1f77b4;stroke-width:3;" x="126.728976" xlink:href="#m54334f0913" y="146.434522"/>
     <use style="fill-opacity:0;stroke:#1f77b4;stroke-width:3;" x="128.217587" xlink:href="#m54334f0913" y="78.708408"/>
     <use style="fill-opacity:0;stroke:#1f77b4;stroke-width:3;" x="129.820706" xlink:href="#m54334f0913" y="122.246624"/>
     <use style="fill-opacity:0;stroke:#1f77b4;stroke-width:3;" x="131.309317" xlink:href="#m54334f0913" y="112.571465"/>
     <use style="fill-opacity:0;stroke:#1f77b4;stroke-width:3;" x="132.797927" xlink:href="#m54334f0913" y="117.409044"/>
     <use style="fill-opacity:0;stroke:#1f77b4;stroke-width:3;" x="134.401047" xlink:href="#m54334f0913" y="103.587388"/>
     <use style="fill-opacity:0;stroke:#1f77b4;stroke-width:3;" x="135.889657" xlink:href="#m54334f0913" y="117.409044"/>
     <use style="fill-opacity:0;stroke:#1f77b4;stroke-width:3;" x="137.378268" xlink:href="#m54334f0913" y="140.905859"/>
     <use style="fill-opacity:0;stroke:#1f77b4;stroke-width:3;" x="138.981387" xlink:href="#m54334f0913" y="161.638343"/>
     <use style="fill-opacity:0;stroke:#1f77b4;stroke-width:3;" x="140.469998" xlink:href="#m54334f0913" y="146.434522"/>
     <use style="fill-opacity:0;stroke:#1f77b4;stroke-width:3;" x="141.958609" xlink:href="#m54334f0913" y="179.606496"/>
     <use style="fill-opacity:0;stroke:#1f77b4;stroke-width:3;" x="143.561728" xlink:href="#m54334f0913" y="85.619236"/>
     <use style="fill-opacity:0;stroke:#1f77b4;stroke-width:3;" x="145.050339" xlink:href="#m54334f0913" y="141.596942"/>
     <use style="fill-opacity:0;stroke:#1f77b4;stroke-width:3;" x="146.538949" xlink:href="#m54334f0913" y="123.628789"/>
     <use style="fill-opacity:0;stroke:#1f77b4;stroke-width:3;" x="148.142069" xlink:href="#m54334f0913" y="161.638343"/>
     <use style="fill-opacity:0;stroke:#1f77b4;stroke-width:3;" x="149.630679" xlink:href="#m54334f0913" y="122.937707"/>
     <use style="fill-opacity:0;stroke:#1f77b4;stroke-width:3;" x="151.11929" xlink:href="#m54334f0913" y="118.79121"/>
     <use style="fill-opacity:0;stroke:#1f77b4;stroke-width:3;" x="152.722409" xlink:href="#m54334f0913" y="93.912229"/>
     <use style="fill-opacity:0;stroke:#1f77b4;stroke-width:3;" x="154.21102" xlink:href="#m54334f0913" y="114.644713"/>
     <use style="fill-opacity:0;stroke:#1f77b4;stroke-width:3;" x="155.699631" xlink:href="#m54334f0913" y="125.702038"/>
     <use style="fill-opacity:0;stroke:#1f77b4;stroke-width:3;" x="157.30275" xlink:href="#m54334f0913" y="148.50777"/>
     <use style="fill-opacity:0;stroke:#1f77b4;stroke-width:3;" x="158.791361" xlink:href="#m54334f0913" y="131.2307"/>
     <use style="fill-opacity:0;stroke:#1f77b4;stroke-width:3;" x="160.279971" xlink:href="#m54334f0913" y="112.571465"/>
     <use style="fill-opacity:0;stroke:#1f77b4;stroke-width:3;" x="161.88309" xlink:href="#m54334f0913" y="124.319872"/>
     <use style="fill-opacity:0;stroke:#1f77b4;stroke-width:3;" x="163.371701" xlink:href="#m54334f0913" y="100.131974"/>
     <use style="fill-opacity:0;stroke:#1f77b4;stroke-width:3;" x="164.860312" xlink:href="#m54334f0913" y="176.151082"/>
     <use style="fill-opacity:0;stroke:#1f77b4;stroke-width:3;" x="166.463431" xlink:href="#m54334f0913" y="116.717961"/>
     <use style="fill-opacity:0;stroke:#1f77b4;stroke-width:3;" x="167.952042" xlink:href="#m54334f0913" y="158.874012"/>
     <use style="fill-opacity:0;stroke:#1f77b4;stroke-width:3;" x="169.440653" xlink:href="#m54334f0913" y="118.100127"/>
     <use style="fill-opacity:0;stroke:#1f77b4;stroke-width:3;" x="171.043772" xlink:href="#m54334f0913" y="134.686114"/>
     <use style="fill-opacity:0;stroke:#1f77b4;stroke-width:3;" x="172.532383" xlink:href="#m54334f0913" y="132.612866"/>
     <use style="fill-opacity:0;stroke:#1f77b4;stroke-width:3;" x="174.020993" xlink:href="#m54334f0913" y="123.628789"/>
     <use style="fill-opacity:0;stroke:#1f77b4;stroke-width:3;" x="175.624112" xlink:href="#m54334f0913" y="98.749809"/>
     <use style="fill-opacity:0;stroke:#1f77b4;stroke-width:3;" x="177.112723" xlink:href="#m54334f0913" y="118.100127"/>
     <use style="fill-opacity:0;stroke:#1f77b4;stroke-width:3;" x="178.601334" xlink:href="#m54334f0913" y="109.807133"/>
     <use style="fill-opacity:0;stroke:#1f77b4;stroke-width:3;" x="180.204453" xlink:href="#m54334f0913" y="158.182929"/>
     <use style="fill-opacity:0;stroke:#1f77b4;stroke-width:3;" x="181.693064" xlink:href="#m54334f0913" y="142.979108"/>
     <use style="fill-opacity:0;stroke:#1f77b4;stroke-width:3;" x="183.181675" xlink:href="#m54334f0913" y="133.303949"/>
     <use style="fill-opacity:0;stroke:#1f77b4;stroke-width:3;" x="184.784794" xlink:href="#m54334f0913" y="113.262547"/>
     <use style="fill-opacity:0;stroke:#1f77b4;stroke-width:3;" x="186.273404" xlink:href="#m54334f0913" y="154.727515"/>
     <use style="fill-opacity:0;stroke:#1f77b4;stroke-width:3;" x="187.762015" xlink:href="#m54334f0913" y="127.775286"/>
     <use style="fill-opacity:0;stroke:#1f77b4;stroke-width:3;" x="189.365134" xlink:href="#m54334f0913" y="119.482293"/>
     <use style="fill-opacity:0;stroke:#1f77b4;stroke-width:3;" x="190.853745" xlink:href="#m54334f0913" y="113.95363"/>
     <use style="fill-opacity:0;stroke:#1f77b4;stroke-width:3;" x="192.342356" xlink:href="#m54334f0913" y="127.084203"/>
     <use style="fill-opacity:0;stroke:#1f77b4;stroke-width:3;" x="193.945475" xlink:href="#m54334f0913" y="122.937707"/>
     <use style="fill-opacity:0;stroke:#1f77b4;stroke-width:3;" x="195.434086" xlink:href="#m54334f0913" y="127.084203"/>
     <use style="fill-opacity:0;stroke:#1f77b4;stroke-width:3;" x="196.922696" xlink:href="#m54334f0913" y="107.042802"/>
     <use style="fill-opacity:0;stroke:#1f77b4;stroke-width:3;" x="198.525816" xlink:href="#m54334f0913" y="92.530064"/>
     <use style="fill-opacity:0;stroke:#1f77b4;stroke-width:3;" x="200.014426" xlink:href="#m54334f0913" y="105.660637"/>
     <use style="fill-opacity:0;stroke:#1f77b4;stroke-width:3;" x="201.503037" xlink:href="#m54334f0913" y="131.921783"/>
     <use style="fill-opacity:0;stroke:#1f77b4;stroke-width:3;" x="203.106156" xlink:href="#m54334f0913" y="104.969554"/>
     <use style="fill-opacity:0;stroke:#1f77b4;stroke-width:3;" x="204.594767" xlink:href="#m54334f0913" y="125.010955"/>
     <use style="fill-opacity:0;stroke:#1f77b4;stroke-width:3;" x="206.083378" xlink:href="#m54334f0913" y="84.23707"/>
     <use style="fill-opacity:0;stroke:#1f77b4;stroke-width:3;" x="207.686497" xlink:href="#m54334f0913" y="142.979108"/>
     <use style="fill-opacity:0;stroke:#1f77b4;stroke-width:3;" x="209.175108" xlink:href="#m54334f0913" y="116.026879"/>
     <use style="fill-opacity:0;stroke:#1f77b4;stroke-width:3;" x="210.663718" xlink:href="#m54334f0913" y="128.466369"/>
     <use style="fill-opacity:0;stroke:#1f77b4;stroke-width:3;" x="212.266838" xlink:href="#m54334f0913" y="150.581019"/>
     <use style="fill-opacity:0;stroke:#1f77b4;stroke-width:3;" x="213.755448" xlink:href="#m54334f0913" y="146.434522"/>
     <use style="fill-opacity:0;stroke:#1f77b4;stroke-width:3;" x="215.244059" xlink:href="#m54334f0913" y="161.638343"/>
     <use style="fill-opacity:0;stroke:#1f77b4;stroke-width:3;" x="216.847178" xlink:href="#m54334f0913" y="148.50777"/>
     <use style="fill-opacity:0;stroke:#1f77b4;stroke-width:3;" x="218.335789" xlink:href="#m54334f0913" y="161.638343"/>
     <use style="fill-opacity:0;stroke:#1f77b4;stroke-width:3;" x="219.8244" xlink:href="#m54334f0913" y="123.628789"/>
     <use style="fill-opacity:0;stroke:#1f77b4;stroke-width:3;" x="221.427519" xlink:href="#m54334f0913" y="113.95363"/>
     <use style="fill-opacity:0;stroke:#1f77b4;stroke-width:3;" x="222.91613" xlink:href="#m54334f0913" y="126.393121"/>
     <use style="fill-opacity:0;stroke:#1f77b4;stroke-width:3;" x="224.40474" xlink:href="#m54334f0913" y="110.498216"/>
     <use style="fill-opacity:0;stroke:#1f77b4;stroke-width:3;" x="226.00786" xlink:href="#m54334f0913" y="100.131974"/>
     <use style="fill-opacity:0;stroke:#1f77b4;stroke-width:3;" x="227.49647" xlink:href="#m54334f0913" y="116.026879"/>
     <use style="fill-opacity:0;stroke:#1f77b4;stroke-width:3;" x="228.985081" xlink:href="#m54334f0913" y="120.864458"/>
     <use style="fill-opacity:0;stroke:#1f77b4;stroke-width:3;" x="230.5882" xlink:href="#m54334f0913" y="126.393121"/>
     <use style="fill-opacity:0;stroke:#1f77b4;stroke-width:3;" x="232.076811" xlink:href="#m54334f0913" y="162.329426"/>
     <use style="fill-opacity:0;stroke:#1f77b4;stroke-width:3;" x="233.565422" xlink:href="#m54334f0913" y="126.393121"/>
     <use style="fill-opacity:0;stroke:#1f77b4;stroke-width:3;" x="235.168541" xlink:href="#m54334f0913" y="123.628789"/>
     <use style="fill-opacity:0;stroke:#1f77b4;stroke-width:3;" x="236.657152" xlink:href="#m54334f0913" y="137.450445"/>
     <use style="fill-opacity:0;stroke:#1f77b4;stroke-width:3;" x="238.145762" xlink:href="#m54334f0913" y="107.733885"/>
     <use style="fill-opacity:0;stroke:#1f77b4;stroke-width:3;" x="239.748882" xlink:href="#m54334f0913" y="154.727515"/>
     <use style="fill-opacity:0;stroke:#1f77b4;stroke-width:3;" x="241.237492" xlink:href="#m54334f0913" y="132.612866"/>
     <use style="fill-opacity:0;stroke:#1f77b4;stroke-width:3;" x="242.726103" xlink:href="#m54334f0913" y="111.880382"/>
     <use style="fill-opacity:0;stroke:#1f77b4;stroke-width:3;" x="244.329222" xlink:href="#m54334f0913" y="147.816687"/>
     <use style="fill-opacity:0;stroke:#1f77b4;stroke-width:3;" x="245.817833" xlink:href="#m54334f0913" y="156.800764"/>
     <use style="fill-opacity:0;stroke:#1f77b4;stroke-width:3;" x="247.306444" xlink:href="#m54334f0913" y="142.979108"/>
     <use style="fill-opacity:0;stroke:#1f77b4;stroke-width:3;" x="248.909563" xlink:href="#m54334f0913" y="133.303949"/>
     <use style="fill-opacity:0;stroke:#1f77b4;stroke-width:3;" x="250.398174" xlink:href="#m54334f0913" y="82.854904"/>
     <use style="fill-opacity:0;stroke:#1f77b4;stroke-width:3;" x="251.886784" xlink:href="#m54334f0913" y="114.644713"/>
     <use style="fill-opacity:0;stroke:#1f77b4;stroke-width:3;" x="253.489904" xlink:href="#m54334f0913" y="140.214777"/>
     <use style="fill-opacity:0;stroke:#1f77b4;stroke-width:3;" x="254.978514" xlink:href="#m54334f0913" y="137.450445"/>
     <use style="fill-opacity:0;stroke:#1f77b4;stroke-width:3;" x="256.467125" xlink:href="#m54334f0913" y="93.221146"/>
     <use style="fill-opacity:0;stroke:#1f77b4;stroke-width:3;" x="258.070244" xlink:href="#m54334f0913" y="105.660637"/>
     <use style="fill-opacity:0;stroke:#1f77b4;stroke-width:3;" x="259.558855" xlink:href="#m54334f0913" y="119.482293"/>
     <use style="fill-opacity:0;stroke:#1f77b4;stroke-width:3;" x="261.047466" xlink:href="#m54334f0913" y="105.660637"/>
     <use style="fill-opacity:0;stroke:#1f77b4;stroke-width:3;" x="262.650585" xlink:href="#m54334f0913" y="110.498216"/>
     <use style="fill-opacity:0;stroke:#1f77b4;stroke-width:3;" x="264.139196" xlink:href="#m54334f0913" y="116.717961"/>
     <use style="fill-opacity:0;stroke:#1f77b4;stroke-width:3;" x="265.627806" xlink:href="#m54334f0913" y="113.95363"/>
     <use style="fill-opacity:0;stroke:#1f77b4;stroke-width:3;" x="267.230926" xlink:href="#m54334f0913" y="143.670191"/>
     <use style="fill-opacity:0;stroke:#1f77b4;stroke-width:3;" x="268.719536" xlink:href="#m54334f0913" y="142.979108"/>
     <use style="fill-opacity:0;stroke:#1f77b4;stroke-width:3;" x="270.208147" xlink:href="#m54334f0913" y="134.686114"/>
     <use style="fill-opacity:0;stroke:#1f77b4;stroke-width:3;" x="271.811266" xlink:href="#m54334f0913" y="100.823057"/>
     <use style="fill-opacity:0;stroke:#1f77b4;stroke-width:3;" x="273.299877" xlink:href="#m54334f0913" y="133.303949"/>
     <use style="fill-opacity:0;stroke:#1f77b4;stroke-width:3;" x="274.788488" xlink:href="#m54334f0913" y="171.313502"/>
     <use style="fill-opacity:0;stroke:#1f77b4;stroke-width:3;" x="276.391607" xlink:href="#m54334f0913" y="131.2307"/>
     <use style="fill-opacity:0;stroke:#1f77b4;stroke-width:3;" x="277.880218" xlink:href="#m54334f0913" y="143.670191"/>
     <use style="fill-opacity:0;stroke:#1f77b4;stroke-width:3;" x="279.368828" xlink:href="#m54334f0913" y="150.581019"/>
     <use style="fill-opacity:0;stroke:#1f77b4;stroke-width:3;" x="280.971947" xlink:href="#m54334f0913" y="121.555541"/>
     <use style="fill-opacity:0;stroke:#1f77b4;stroke-width:3;" x="282.460558" xlink:href="#m54334f0913" y="156.109681"/>
     <use style="fill-opacity:0;stroke:#1f77b4;stroke-width:3;" x="283.949169" xlink:href="#m54334f0913" y="157.491846"/>
     <use style="fill-opacity:0;stroke:#1f77b4;stroke-width:3;" x="285.552288" xlink:href="#m54334f0913" y="165.78484"/>
     <use style="fill-opacity:0;stroke:#1f77b4;stroke-width:3;" x="287.040899" xlink:href="#m54334f0913" y="216.233884"/>
     <use style="fill-opacity:0;stroke:#1f77b4;stroke-width:3;" x="288.52951" xlink:href="#m54334f0913" y="263.918597"/>
     <use style="fill-opacity:0;stroke:#1f77b4;stroke-width:3;" x="290.132629" xlink:href="#m54334f0913" y="288.797578"/>
     <use style="fill-opacity:0;stroke:#1f77b4;stroke-width:3;" x="291.621239" xlink:href="#m54334f0913" y="217.61605"/>
     <use style="fill-opacity:0;stroke:#1f77b4;stroke-width:3;" x="293.10985" xlink:href="#m54334f0913" y="317.131973"/>
     <use style="fill-opacity:0;stroke:#1f77b4;stroke-width:3;" x="294.712969" xlink:href="#m54334f0913" y="344.775285"/>
     <use style="fill-opacity:0;stroke:#1f77b4;stroke-width:3;" x="296.20158" xlink:href="#m54334f0913" y="333.026877"/>
     <use style="fill-opacity:0;stroke:#1f77b4;stroke-width:3;" x="297.690191" xlink:href="#m54334f0913" y="272.902674"/>
     <use style="fill-opacity:0;stroke:#1f77b4;stroke-width:3;" x="299.29331" xlink:href="#m54334f0913" y="275.667005"/>
     <use style="fill-opacity:0;stroke:#1f77b4;stroke-width:3;" x="300.781921" xlink:href="#m54334f0913" y="196.883566"/>
     <use style="fill-opacity:0;stroke:#1f77b4;stroke-width:3;" x="302.270532" xlink:href="#m54334f0913" y="210.014139"/>
     <use style="fill-opacity:0;stroke:#1f77b4;stroke-width:3;" x="303.873651" xlink:href="#m54334f0913" y="169.240254"/>
     <use style="fill-opacity:0;stroke:#1f77b4;stroke-width:3;" x="305.362261" xlink:href="#m54334f0913" y="149.198853"/>
     <use style="fill-opacity:0;stroke:#1f77b4;stroke-width:3;" x="306.850872" xlink:href="#m54334f0913" y="149.889936"/>
     <use style="fill-opacity:0;stroke:#1f77b4;stroke-width:3;" x="308.453991" xlink:href="#m54334f0913" y="148.50777"/>
     <use style="fill-opacity:0;stroke:#1f77b4;stroke-width:3;" x="309.942602" xlink:href="#m54334f0913" y="136.759363"/>
     <use style="fill-opacity:0;stroke:#1f77b4;stroke-width:3;" x="311.431213" xlink:href="#m54334f0913" y="142.288025"/>
     <use style="fill-opacity:0;stroke:#1f77b4;stroke-width:3;" x="313.034332" xlink:href="#m54334f0913" y="129.848535"/>
     <use style="fill-opacity:0;stroke:#1f77b4;stroke-width:3;" x="314.522943" xlink:href="#m54334f0913" y="150.581019"/>
     <use style="fill-opacity:0;stroke:#1f77b4;stroke-width:3;" x="316.011553" xlink:href="#m54334f0913" y="126.393121"/>
     <use style="fill-opacity:0;stroke:#1f77b4;stroke-width:3;" x="317.614673" xlink:href="#m54334f0913" y="134.686114"/>
     <use style="fill-opacity:0;stroke:#1f77b4;stroke-width:3;" x="319.103283" xlink:href="#m54334f0913" y="139.523694"/>
     <use style="fill-opacity:0;stroke:#1f77b4;stroke-width:3;" x="320.591894" xlink:href="#m54334f0913" y="163.711592"/>
     <use style="fill-opacity:0;stroke:#1f77b4;stroke-width:3;" x="322.195013" xlink:href="#m54334f0913" y="111.189299"/>
     <use style="fill-opacity:0;stroke:#1f77b4;stroke-width:3;" x="323.683624" xlink:href="#m54334f0913" y="148.50777"/>
     <use style="fill-opacity:0;stroke:#1f77b4;stroke-width:3;" x="325.172235" xlink:href="#m54334f0913" y="203.103311"/>
     <use style="fill-opacity:0;stroke:#1f77b4;stroke-width:3;" x="326.775354" xlink:href="#m54334f0913" y="200.33898"/>
     <use style="fill-opacity:0;stroke:#1f77b4;stroke-width:3;" x="328.263965" xlink:href="#m54334f0913" y="258.389935"/>
     <use style="fill-opacity:0;stroke:#1f77b4;stroke-width:3;" x="329.752575" xlink:href="#m54334f0913" y="290.179744"/>
     <use style="fill-opacity:0;stroke:#1f77b4;stroke-width:3;" x="331.355695" xlink:href="#m54334f0913" y="270.138343"/>
     <use style="fill-opacity:0;stroke:#1f77b4;stroke-width:3;" x="332.844305" xlink:href="#m54334f0913" y="285.342164"/>
     <use style="fill-opacity:0;stroke:#1f77b4;stroke-width:3;" x="334.332916" xlink:href="#m54334f0913" y="282.577833"/>
     <use style="fill-opacity:0;stroke:#1f77b4;stroke-width:3;" x="335.936035" xlink:href="#m54334f0913" y="208.631974"/>
     <use style="fill-opacity:0;stroke:#1f77b4;stroke-width:3;" x="337.424646" xlink:href="#m54334f0913" y="192.045986"/>
     <use style="fill-opacity:0;stroke:#1f77b4;stroke-width:3;" x="338.913257" xlink:href="#m54334f0913" y="160.94726"/>
     <use style="fill-opacity:0;stroke:#1f77b4;stroke-width:3;" x="340.516376" xlink:href="#m54334f0913" y="147.816687"/>
     <use style="fill-opacity:0;stroke:#1f77b4;stroke-width:3;" x="342.004987" xlink:href="#m54334f0913" y="154.036433"/>
     <use style="fill-opacity:0;stroke:#1f77b4;stroke-width:3;" x="343.493597" xlink:href="#m54334f0913" y="165.78484"/>
     <use style="fill-opacity:0;stroke:#1f77b4;stroke-width:3;" x="345.096717" xlink:href="#m54334f0913" y="125.010955"/>
     <use style="fill-opacity:0;stroke:#1f77b4;stroke-width:3;" x="346.585327" xlink:href="#m54334f0913" y="107.733885"/>
     <use style="fill-opacity:0;stroke:#1f77b4;stroke-width:3;" x="348.073938" xlink:href="#m54334f0913" y="133.303949"/>
     <use style="fill-opacity:0;stroke:#1f77b4;stroke-width:3;" x="349.677057" xlink:href="#m54334f0913" y="127.775286"/>
     <use style="fill-opacity:0;stroke:#1f77b4;stroke-width:3;" x="351.165668" xlink:href="#m54334f0913" y="155.418598"/>
     <use style="fill-opacity:0;stroke:#1f77b4;stroke-width:3;" x="352.654279" xlink:href="#m54334f0913" y="127.775286"/>
     <use style="fill-opacity:0;stroke:#1f77b4;stroke-width:3;" x="354.257398" xlink:href="#m54334f0913" y="120.173375"/>
     <use style="fill-opacity:0;stroke:#1f77b4;stroke-width:3;" x="355.746009" xlink:href="#m54334f0913" y="153.34535"/>
     <use style="fill-opacity:0;stroke:#1f77b4;stroke-width:3;" x="357.234619" xlink:href="#m54334f0913" y="85.619236"/>
     <use style="fill-opacity:0;stroke:#1f77b4;stroke-width:3;" x="358.837739" xlink:href="#m54334f0913" y="113.95363"/>
     <use style="fill-opacity:0;stroke:#1f77b4;stroke-width:3;" x="360.326349" xlink:href="#m54334f0913" y="119.482293"/>
     <use style="fill-opacity:0;stroke:#1f77b4;stroke-width:3;" x="361.81496" xlink:href="#m54334f0913" y="130.539617"/>
     <use style="fill-opacity:0;stroke:#1f77b4;stroke-width:3;" x="363.418079" xlink:href="#m54334f0913" y="127.084203"/>
     <use style="fill-opacity:0;stroke:#1f77b4;stroke-width:3;" x="364.90669" xlink:href="#m54334f0913" y="156.800764"/>
     <use style="fill-opacity:0;stroke:#1f77b4;stroke-width:3;" x="366.395301" xlink:href="#m54334f0913" y="111.189299"/>
     <use style="fill-opacity:0;stroke:#1f77b4;stroke-width:3;" x="367.99842" xlink:href="#m54334f0913" y="93.912229"/>
     <use style="fill-opacity:0;stroke:#1f77b4;stroke-width:3;" x="369.487031" xlink:href="#m54334f0913" y="95.985478"/>
     <use style="fill-opacity:0;stroke:#1f77b4;stroke-width:3;" x="370.975641" xlink:href="#m54334f0913" y="151.963184"/>
     <use style="fill-opacity:0;stroke:#1f77b4;stroke-width:3;" x="372.578761" xlink:href="#m54334f0913" y="120.173375"/>
     <use style="fill-opacity:0;stroke:#1f77b4;stroke-width:3;" x="374.067371" xlink:href="#m54334f0913" y="150.581019"/>
     <use style="fill-opacity:0;stroke:#1f77b4;stroke-width:3;" x="375.555982" xlink:href="#m54334f0913" y="128.466369"/>
     <use style="fill-opacity:0;stroke:#1f77b4;stroke-width:3;" x="377.159101" xlink:href="#m54334f0913" y="98.749809"/>
     <use style="fill-opacity:0;stroke:#1f77b4;stroke-width:3;" x="378.647712" xlink:href="#m54334f0913" y="149.889936"/>
     <use style="fill-opacity:0;stroke:#1f77b4;stroke-width:3;" x="380.136323" xlink:href="#m54334f0913" y="125.702038"/>
     <use style="fill-opacity:0;stroke:#1f77b4;stroke-width:3;" x="381.739442" xlink:href="#m54334f0913" y="141.596942"/>
     <use style="fill-opacity:0;stroke:#1f77b4;stroke-width:3;" x="383.228053" xlink:href="#m54334f0913" y="145.052356"/>
     <use style="fill-opacity:0;stroke:#1f77b4;stroke-width:3;" x="384.716663" xlink:href="#m54334f0913" y="110.498216"/>
     <use style="fill-opacity:0;stroke:#1f77b4;stroke-width:3;" x="386.319782" xlink:href="#m54334f0913" y="131.2307"/>
     <use style="fill-opacity:0;stroke:#1f77b4;stroke-width:3;" x="387.808393" xlink:href="#m54334f0913" y="150.581019"/>
     <use style="fill-opacity:0;stroke:#1f77b4;stroke-width:3;" x="389.297004" xlink:href="#m54334f0913" y="136.759363"/>
     <use style="fill-opacity:0;stroke:#1f77b4;stroke-width:3;" x="390.900123" xlink:href="#m54334f0913" y="131.921783"/>
     <use style="fill-opacity:0;stroke:#1f77b4;stroke-width:3;" x="392.388734" xlink:href="#m54334f0913" y="111.189299"/>
     <use style="fill-opacity:0;stroke:#1f77b4;stroke-width:3;" x="393.877345" xlink:href="#m54334f0913" y="148.50777"/>
     <use style="fill-opacity:0;stroke:#1f77b4;stroke-width:3;" x="395.480464" xlink:href="#m54334f0913" y="138.832611"/>
     <use style="fill-opacity:0;stroke:#1f77b4;stroke-width:3;" x="396.969074" xlink:href="#m54334f0913" y="111.880382"/>
     <use style="fill-opacity:0;stroke:#1f77b4;stroke-width:3;" x="398.457685" xlink:href="#m54334f0913" y="201.721146"/>
     <use style="fill-opacity:0;stroke:#1f77b4;stroke-width:3;" x="400.060804" xlink:href="#m54334f0913" y="118.100127"/>
     <use style="fill-opacity:0;stroke:#1f77b4;stroke-width:3;" x="401.549415" xlink:href="#m54334f0913" y="163.711592"/>
     <use style="fill-opacity:0;stroke:#1f77b4;stroke-width:3;" x="403.038026" xlink:href="#m54334f0913" y="173.386751"/>
     <use style="fill-opacity:0;stroke:#1f77b4;stroke-width:3;" x="404.641145" xlink:href="#m54334f0913" y="217.61605"/>
     <use style="fill-opacity:0;stroke:#1f77b4;stroke-width:3;" x="406.129756" xlink:href="#m54334f0913" y="278.431336"/>
     <use style="fill-opacity:0;stroke:#1f77b4;stroke-width:3;" x="407.618367" xlink:href="#m54334f0913" y="344.775285"/>
     <use style="fill-opacity:0;stroke:#1f77b4;stroke-width:3;" x="409.221486" xlink:href="#m54334f0913" y="357.214775"/>
     <use style="fill-opacity:0;stroke:#1f77b4;stroke-width:3;" x="410.710096" xlink:href="#m54334f0913" y="353.759361"/>
     <use style="fill-opacity:0;stroke:#1f77b4;stroke-width:3;" x="412.198707" xlink:href="#m54334f0913" y="346.15745"/>
     <use style="fill-opacity:0;stroke:#1f77b4;stroke-width:3;" x="413.801826" xlink:href="#m54334f0913" y="350.99503"/>
     <use style="fill-opacity:0;stroke:#1f77b4;stroke-width:3;" x="415.290437" xlink:href="#m54334f0913" y="323.351718"/>
     <use style="fill-opacity:0;stroke:#1f77b4;stroke-width:3;" x="416.779048" xlink:href="#m54334f0913" y="281.88675"/>
     <use style="fill-opacity:0;stroke:#1f77b4;stroke-width:3;" x="418.382167" xlink:href="#m54334f0913" y="189.972738"/>
     <use style="fill-opacity:0;stroke:#1f77b4;stroke-width:3;" x="419.870778" xlink:href="#m54334f0913" y="182.370827"/>
     <use style="fill-opacity:0;stroke:#1f77b4;stroke-width:3;" x="421.359388" xlink:href="#m54334f0913" y="190.663821"/>
     <use style="fill-opacity:0;stroke:#1f77b4;stroke-width:3;" x="422.962508" xlink:href="#m54334f0913" y="155.418598"/>
     <use style="fill-opacity:0;stroke:#1f77b4;stroke-width:3;" x="424.451118" xlink:href="#m54334f0913" y="118.79121"/>
     <use style="fill-opacity:0;stroke:#1f77b4;stroke-width:3;" x="425.939729" xlink:href="#m54334f0913" y="132.612866"/>
     <use style="fill-opacity:0;stroke:#1f77b4;stroke-width:3;" x="427.542848" xlink:href="#m54334f0913" y="135.377197"/>
     <use style="fill-opacity:0;stroke:#1f77b4;stroke-width:3;" x="429.031459" xlink:href="#m54334f0913" y="148.50777"/>
     <use style="fill-opacity:0;stroke:#1f77b4;stroke-width:3;" x="430.52007" xlink:href="#m54334f0913" y="123.628789"/>
     <use style="fill-opacity:0;stroke:#1f77b4;stroke-width:3;" x="432.123189" xlink:href="#m54334f0913" y="150.581019"/>
     <use style="fill-opacity:0;stroke:#1f77b4;stroke-width:3;" x="433.6118" xlink:href="#m54334f0913" y="157.491846"/>
     <use style="fill-opacity:0;stroke:#1f77b4;stroke-width:3;" x="435.10041" xlink:href="#m54334f0913" y="176.151082"/>
     <use style="fill-opacity:0;stroke:#1f77b4;stroke-width:3;" x="436.70353" xlink:href="#m54334f0913" y="153.34535"/>
     <use style="fill-opacity:0;stroke:#1f77b4;stroke-width:3;" x="438.19214" xlink:href="#m54334f0913" y="211.396305"/>
     <use style="fill-opacity:0;stroke:#1f77b4;stroke-width:3;" x="439.680751" xlink:href="#m54334f0913" y="243.186113"/>
     <use style="fill-opacity:0;stroke:#1f77b4;stroke-width:3;" x="441.28387" xlink:href="#m54334f0913" y="261.845349"/>
     <use style="fill-opacity:0;stroke:#1f77b4;stroke-width:3;" x="442.772481" xlink:href="#m54334f0913" y="326.116049"/>
     <use style="fill-opacity:0;stroke:#1f77b4;stroke-width:3;" x="444.261092" xlink:href="#m54334f0913" y="346.848533"/>
     <use style="fill-opacity:0;stroke:#1f77b4;stroke-width:3;" x="445.864211" xlink:href="#m54334f0913" y="335.791208"/>
     <use style="fill-opacity:0;stroke:#1f77b4;stroke-width:3;" x="447.352822" xlink:href="#m54334f0913" y="353.759361"/>
     <use style="fill-opacity:0;stroke:#1f77b4;stroke-width:3;" x="448.841432" xlink:href="#m54334f0913" y="236.966368"/>
     <use style="fill-opacity:0;stroke:#1f77b4;stroke-width:3;" x="450.444552" xlink:href="#m54334f0913" y="286.033247"/>
     <use style="fill-opacity:0;stroke:#1f77b4;stroke-width:3;" x="451.933162" xlink:href="#m54334f0913" y="277.740253"/>
     <use style="fill-opacity:0;stroke:#1f77b4;stroke-width:3;" x="453.421773" xlink:href="#m54334f0913" y="225.217961"/>
     <use style="fill-opacity:0;stroke:#1f77b4;stroke-width:3;" x="455.024892" xlink:href="#m54334f0913" y="166.475923"/>
     <use style="fill-opacity:0;stroke:#1f77b4;stroke-width:3;" x="456.513503" xlink:href="#m54334f0913" y="181.679744"/>
     <use style="fill-opacity:0;stroke:#1f77b4;stroke-width:3;" x="458.002114" xlink:href="#m54334f0913" y="161.638343"/>
     <use style="fill-opacity:0;stroke:#1f77b4;stroke-width:3;" x="459.605233" xlink:href="#m54334f0913" y="107.733885"/>
     <use style="fill-opacity:0;stroke:#1f77b4;stroke-width:3;" x="461.093844" xlink:href="#m54334f0913" y="140.905859"/>
     <use style="fill-opacity:0;stroke:#1f77b4;stroke-width:3;" x="462.582454" xlink:href="#m54334f0913" y="149.198853"/>
     <use style="fill-opacity:0;stroke:#1f77b4;stroke-width:3;" x="464.185574" xlink:href="#m54334f0913" y="157.491846"/>
     <use style="fill-opacity:0;stroke:#1f77b4;stroke-width:3;" x="465.674184" xlink:href="#m54334f0913" y="133.995031"/>
     <use style="fill-opacity:0;stroke:#1f77b4;stroke-width:3;" x="467.162795" xlink:href="#m54334f0913" y="131.921783"/>
     <use style="fill-opacity:0;stroke:#1f77b4;stroke-width:3;" x="468.765914" xlink:href="#m54334f0913" y="146.434522"/>
     <use style="fill-opacity:0;stroke:#1f77b4;stroke-width:3;" x="470.254525" xlink:href="#m54334f0913" y="122.246624"/>
     <use style="fill-opacity:0;stroke:#1f77b4;stroke-width:3;" x="471.743136" xlink:href="#m54334f0913" y="127.775286"/>
     <use style="fill-opacity:0;stroke:#1f77b4;stroke-width:3;" x="473.346255" xlink:href="#m54334f0913" y="102.205223"/>
     <use style="fill-opacity:0;stroke:#1f77b4;stroke-width:3;" x="474.834866" xlink:href="#m54334f0913" y="133.303949"/>
     <use style="fill-opacity:0;stroke:#1f77b4;stroke-width:3;" x="476.323476" xlink:href="#m54334f0913" y="132.612866"/>
     <use style="fill-opacity:0;stroke:#1f77b4;stroke-width:3;" x="477.926596" xlink:href="#m54334f0913" y="120.864458"/>
     <use style="fill-opacity:0;stroke:#1f77b4;stroke-width:3;" x="479.415206" xlink:href="#m54334f0913" y="104.969554"/>
     <use style="fill-opacity:0;stroke:#1f77b4;stroke-width:3;" x="480.903817" xlink:href="#m54334f0913" y="154.727515"/>
     <use style="fill-opacity:0;stroke:#1f77b4;stroke-width:3;" x="482.506936" xlink:href="#m54334f0913" y="140.905859"/>
     <use style="fill-opacity:0;stroke:#1f77b4;stroke-width:3;" x="483.995547" xlink:href="#m54334f0913" y="167.167006"/>
     <use style="fill-opacity:0;stroke:#1f77b4;stroke-width:3;" x="485.484158" xlink:href="#m54334f0913" y="109.807133"/>
     <use style="fill-opacity:0;stroke:#1f77b4;stroke-width:3;" x="487.087277" xlink:href="#m54334f0913" y="112.571465"/>
     <use style="fill-opacity:0;stroke:#1f77b4;stroke-width:3;" x="488.575888" xlink:href="#m54334f0913" y="127.084203"/>
     <use style="fill-opacity:0;stroke:#1f77b4;stroke-width:3;" x="490.064498" xlink:href="#m54334f0913" y="138.141528"/>
     <use style="fill-opacity:0;stroke:#1f77b4;stroke-width:3;" x="491.667617" xlink:href="#m54334f0913" y="125.010955"/>
     <use style="fill-opacity:0;stroke:#1f77b4;stroke-width:3;" x="493.156228" xlink:href="#m54334f0913" y="105.660637"/>
     <use style="fill-opacity:0;stroke:#1f77b4;stroke-width:3;" x="494.644839" xlink:href="#m54334f0913" y="116.026879"/>
     <use style="fill-opacity:0;stroke:#1f77b4;stroke-width:3;" x="496.247958" xlink:href="#m54334f0913" y="125.702038"/>
     <use style="fill-opacity:0;stroke:#1f77b4;stroke-width:3;" x="497.736569" xlink:href="#m54334f0913" y="116.717961"/>
     <use style="fill-opacity:0;stroke:#1f77b4;stroke-width:3;" x="499.22518" xlink:href="#m54334f0913" y="101.51414"/>
     <use style="fill-opacity:0;stroke:#1f77b4;stroke-width:3;" x="500.828299" xlink:href="#m54334f0913" y="129.848535"/>
     <use style="fill-opacity:0;stroke:#1f77b4;stroke-width:3;" x="502.31691" xlink:href="#m54334f0913" y="131.2307"/>
     <use style="fill-opacity:0;stroke:#1f77b4;stroke-width:3;" x="503.80552" xlink:href="#m54334f0913" y="136.759363"/>
     <use style="fill-opacity:0;stroke:#1f77b4;stroke-width:3;" x="505.408639" xlink:href="#m54334f0913" y="131.2307"/>
     <use style="fill-opacity:0;stroke:#1f77b4;stroke-width:3;" x="506.89725" xlink:href="#m54334f0913" y="149.889936"/>
     <use style="fill-opacity:0;stroke:#1f77b4;stroke-width:3;" x="508.385861" xlink:href="#m54334f0913" y="129.157452"/>
     <use style="fill-opacity:0;stroke:#1f77b4;stroke-width:3;" x="509.98898" xlink:href="#m54334f0913" y="113.262547"/>
     <use style="fill-opacity:0;stroke:#1f77b4;stroke-width:3;" x="511.477591" xlink:href="#m54334f0913" y="156.109681"/>
     <use style="fill-opacity:0;stroke:#1f77b4;stroke-width:3;" x="512.966202" xlink:href="#m54334f0913" y="122.937707"/>
     <use style="fill-opacity:0;stroke:#1f77b4;stroke-width:3;" x="514.569321" xlink:href="#m54334f0913" y="142.979108"/>
     <use style="fill-opacity:0;stroke:#1f77b4;stroke-width:3;" x="516.057931" xlink:href="#m54334f0913" y="163.711592"/>
     <use style="fill-opacity:0;stroke:#1f77b4;stroke-width:3;" x="517.546542" xlink:href="#m54334f0913" y="133.995031"/>
     <use style="fill-opacity:0;stroke:#1f77b4;stroke-width:3;" x="519.149661" xlink:href="#m54334f0913" y="135.377197"/>
     <use style="fill-opacity:0;stroke:#1f77b4;stroke-width:3;" x="520.638272" xlink:href="#m54334f0913" y="136.759363"/>
     <use style="fill-opacity:0;stroke:#1f77b4;stroke-width:3;" x="522.126883" xlink:href="#m54334f0913" y="120.864458"/>
     <use style="fill-opacity:0;stroke:#1f77b4;stroke-width:3;" x="523.730002" xlink:href="#m54334f0913" y="137.450445"/>
     <use style="fill-opacity:0;stroke:#1f77b4;stroke-width:3;" x="525.218613" xlink:href="#m54334f0913" y="130.539617"/>
     <use style="fill-opacity:0;stroke:#1f77b4;stroke-width:3;" x="526.707223" xlink:href="#m54334f0913" y="121.555541"/>
     <use style="fill-opacity:0;stroke:#1f77b4;stroke-width:3;" x="528.310343" xlink:href="#m54334f0913" y="140.214777"/>
     <use style="fill-opacity:0;stroke:#1f77b4;stroke-width:3;" x="529.798953" xlink:href="#m54334f0913" y="101.51414"/>
     <use style="fill-opacity:0;stroke:#1f77b4;stroke-width:3;" x="531.287564" xlink:href="#m54334f0913" y="142.288025"/>
     <use style="fill-opacity:0;stroke:#1f77b4;stroke-width:3;" x="532.890683" xlink:href="#m54334f0913" y="135.377197"/>
     <use style="fill-opacity:0;stroke:#1f77b4;stroke-width:3;" x="534.379294" xlink:href="#m54334f0913" y="125.702038"/>
     <use style="fill-opacity:0;stroke:#1f77b4;stroke-width:3;" x="535.867905" xlink:href="#m54334f0913" y="114.644713"/>
     <use style="fill-opacity:0;stroke:#1f77b4;stroke-width:3;" x="537.471024" xlink:href="#m54334f0913" y="120.864458"/>
     <use style="fill-opacity:0;stroke:#1f77b4;stroke-width:3;" x="538.959635" xlink:href="#m54334f0913" y="131.2307"/>
     <use style="fill-opacity:0;stroke:#1f77b4;stroke-width:3;" x="540.448245" xlink:href="#m54334f0913" y="123.628789"/>
     <use style="fill-opacity:0;stroke:#1f77b4;stroke-width:3;" x="542.051365" xlink:href="#m54334f0913" y="111.880382"/>
     <use style="fill-opacity:0;stroke:#1f77b4;stroke-width:3;" x="543.539975" xlink:href="#m54334f0913" y="114.644713"/>
     <use style="fill-opacity:0;stroke:#1f77b4;stroke-width:3;" x="545.028586" xlink:href="#m54334f0913" y="115.335796"/>
     <use style="fill-opacity:0;stroke:#1f77b4;stroke-width:3;" x="546.631705" xlink:href="#m54334f0913" y="107.733885"/>
     <use style="fill-opacity:0;stroke:#1f77b4;stroke-width:3;" x="548.120316" xlink:href="#m54334f0913" y="139.523694"/>
     <use style="fill-opacity:0;stroke:#1f77b4;stroke-width:3;" x="549.608927" xlink:href="#m54334f0913" y="115.335796"/>
     <use style="fill-opacity:0;stroke:#1f77b4;stroke-width:3;" x="551.212046" xlink:href="#m54334f0913" y="115.335796"/>
     <use style="fill-opacity:0;stroke:#1f77b4;stroke-width:3;" x="552.700657" xlink:href="#m54334f0913" y="124.319872"/>
     <use style="fill-opacity:0;stroke:#1f77b4;stroke-width:3;" x="554.189267" xlink:href="#m54334f0913" y="109.807133"/>
     <use style="fill-opacity:0;stroke:#1f77b4;stroke-width:3;" x="555.792387" xlink:href="#m54334f0913" y="148.50777"/>
     <use style="fill-opacity:0;stroke:#1f77b4;stroke-width:3;" x="557.280997" xlink:href="#m54334f0913" y="66.96"/>
     <use style="fill-opacity:0;stroke:#1f77b4;stroke-width:3;" x="558.769608" xlink:href="#m54334f0913" y="125.702038"/>
     <use style="fill-opacity:0;stroke:#1f77b4;stroke-width:3;" x="560.372727" xlink:href="#m54334f0913" y="107.733885"/>
    </g>
   </g>
   <g id="line2d_12">
    <path clip-path="url(#pd1efb2654d)" d="M 103.827273 127.253987 
L 271.811266 127.312545 
L 273.299877 127.417538 
L 274.788488 127.680015 
L 276.391607 128.358934 
L 277.880218 129.744183 
L 279.368828 132.488101 
L 280.971947 138.028634 
L 282.460558 146.847798 
L 283.949169 160.485688 
L 285.552288 181.55014 
L 287.040899 206.926567 
L 290.132629 268.650783 
L 291.621239 294.672455 
L 293.10985 312.131864 
L 294.712969 317.543386 
L 296.20158 309.057535 
L 297.690191 289.251335 
L 299.29331 259.594902 
L 302.270532 200.609943 
L 303.873651 174.817967 
L 305.362261 156.841872 
L 306.850872 144.419936 
L 308.453991 136.088311 
L 309.942602 131.689068 
L 311.431213 129.333795 
L 313.034332 128.121852 
L 314.522943 127.677411 
L 316.011553 127.669443 
L 317.614673 128.284443 
L 319.103283 130.040955 
L 320.591894 134.185221 
L 322.195013 143.556597 
L 323.683624 159.237975 
L 325.172235 183.119016 
L 329.752575 277.12682 
L 331.355695 290.483133 
L 332.844305 283.85436 
L 334.332916 261.005368 
L 337.424646 193.737308 
L 338.913257 166.960849 
L 340.516376 147.268025 
L 342.004987 136.6431 
L 343.493597 131.175239 
L 345.096717 128.598581 
L 346.585327 127.695078 
L 348.073938 127.382805 
L 351.165668 127.26088 
L 381.739442 127.254 
L 390.900123 127.336862 
L 392.388734 127.508104 
L 393.877345 127.969949 
L 395.480464 129.241197 
L 396.969074 131.950329 
L 398.457685 137.45209 
L 400.060804 148.63742 
L 401.549415 166.203052 
L 403.038026 192.440888 
L 404.641145 230.511664 
L 407.618367 314.241508 
L 409.221486 351.012003 
L 410.710096 369.36 
L 412.198707 367.954078 
L 413.801826 344.847659 
L 415.290437 308.712445 
L 418.382167 222.212945 
L 419.870778 188.294107 
L 421.359388 163.322743 
L 422.962508 145.926378 
L 424.451118 136.672736 
L 425.939729 131.969403 
L 427.542848 130.203433 
L 429.031459 130.770949 
L 430.52007 133.426247 
L 432.123189 139.338815 
L 433.6118 148.811788 
L 435.10041 163.365548 
L 436.70353 185.712433 
L 438.19214 212.582206 
L 442.772481 307.122743 
L 444.261092 327.339197 
L 445.864211 335.542747 
L 447.352822 329.0048 
L 448.841432 310.073688 
L 450.444552 279.860183 
L 453.421773 216.138523 
L 455.024892 186.74806 
L 456.513503 165.494177 
L 458.002114 150.248522 
L 459.605233 139.595558 
L 461.093844 133.715961 
L 462.582454 130.419312 
L 464.185574 128.616254 
L 465.674184 127.835026 
L 467.162795 127.485837 
L 470.254525 127.281787 
L 480.903817 127.253989 
L 560.372727 127.253987 
L 560.372727 127.253987 
" style="fill:none;stroke:#ff7f0e;stroke-linecap:square;stroke-width:4;"/>
   </g>
   <g id="patch_3">
    <path d="M 81 384.48 
L 81 51.84 
" style="fill:none;stroke:#000000;stroke-linecap:square;stroke-linejoin:miter;stroke-width:0.8;"/>
   </g>
   <g id="patch_4">
    <path d="M 583.2 384.48 
L 583.2 51.84 
" style="fill:none;stroke:#000000;stroke-linecap:square;stroke-linejoin:miter;stroke-width:0.8;"/>
   </g>
   <g id="patch_5">
    <path d="M 81 384.48 
L 583.2 384.48 
" style="fill:none;stroke:#000000;stroke-linecap:square;stroke-linejoin:miter;stroke-width:0.8;"/>
   </g>
   <g id="patch_6">
    <path d="M 81 51.84 
L 583.2 51.84 
" style="fill:none;stroke:#000000;stroke-linecap:square;stroke-linejoin:miter;stroke-width:0.8;"/>
   </g>
  </g>
 </g>
 <defs>
  <clipPath id="pd1efb2654d">
   <rect height="332.64" width="502.2" x="81" y="51.84"/>
  </clipPath>
 </defs>
</svg>
