<?xml version="1.0" encoding="utf-8" standalone="no"?>
<!DOCTYPE svg PUBLIC "-//W3C//DTD SVG 1.1//EN"
  "http://www.w3.org/Graphics/SVG/1.1/DTD/svg11.dtd">
<!-- Created with matplotlib (http://matplotlib.org/) -->
<svg height="319.5pt" version="1.1" viewBox="0 0 501.3 319.5" width="501.3pt" xmlns="http://www.w3.org/2000/svg" xmlns:xlink="http://www.w3.org/1999/xlink">
 <defs>
  <style type="text/css">
*{stroke-linecap:butt;stroke-linejoin:round;}
  </style>
 </defs>
 <g id="figure_1">
  <g id="patch_1">
   <path d="M 0 319.5 
L 501.3 319.5 
L 501.3 0 
L 0 0 
z
" style="fill:#ffffff;"/>
  </g>
  <g id="axes_1">
   <g id="patch_2">
    <path d="M 62.6625 284.355 
L 451.17 284.355 
L 451.17 38.34 
L 62.6625 38.34 
z
" style="fill:#ffffff;"/>
   </g>
   <g id="matplotlib.axis_1">
    <g id="xtick_1">
     <g id="line2d_1">
      <defs>
       <path d="M 0 0 
L 0 3.5 
" id="m172ea72b23" style="stroke:#000000;stroke-width:0.8;"/>
      </defs>
      <g>
       <use style="stroke:#000000;stroke-width:0.8;" x="80.321932" xlink:href="#m172ea72b23" y="284.355"/>
      </g>
     </g>
     <g id="text_1">
      <!-- 2500 -->
      <defs>
       <path d="M 19.1875 8.296875 
L 53.609375 8.296875 
L 53.609375 0 
L 7.328125 0 
L 7.328125 8.296875 
Q 12.9375 14.109375 22.625 23.890625 
Q 32.328125 33.6875 34.8125 36.53125 
Q 39.546875 41.84375 41.421875 45.53125 
Q 43.3125 49.21875 43.3125 52.78125 
Q 43.3125 58.59375 39.234375 62.25 
Q 35.15625 65.921875 28.609375 65.921875 
Q 23.96875 65.921875 18.8125 64.3125 
Q 13.671875 62.703125 7.8125 59.421875 
L 7.8125 69.390625 
Q 13.765625 71.78125 18.9375 73 
Q 24.125 74.21875 28.421875 74.21875 
Q 39.75 74.21875 46.484375 68.546875 
Q 53.21875 62.890625 53.21875 53.421875 
Q 53.21875 48.921875 51.53125 44.890625 
Q 49.859375 40.875 45.40625 35.40625 
Q 44.1875 33.984375 37.640625 27.21875 
Q 31.109375 20.453125 19.1875 8.296875 
z
" id="DejaVuSans-32"/>
       <path d="M 10.796875 72.90625 
L 49.515625 72.90625 
L 49.515625 64.59375 
L 19.828125 64.59375 
L 19.828125 46.734375 
Q 21.96875 47.46875 24.109375 47.828125 
Q 26.265625 48.1875 28.421875 48.1875 
Q 40.625 48.1875 47.75 41.5 
Q 54.890625 34.8125 54.890625 23.390625 
Q 54.890625 11.625 47.5625 5.09375 
Q 40.234375 -1.421875 26.90625 -1.421875 
Q 22.3125 -1.421875 17.546875 -0.640625 
Q 12.796875 0.140625 7.71875 1.703125 
L 7.71875 11.625 
Q 12.109375 9.234375 16.796875 8.0625 
Q 21.484375 6.890625 26.703125 6.890625 
Q 35.15625 6.890625 40.078125 11.328125 
Q 45.015625 15.765625 45.015625 23.390625 
Q 45.015625 31 40.078125 35.4375 
Q 35.15625 39.890625 26.703125 39.890625 
Q 22.75 39.890625 18.8125 39.015625 
Q 14.890625 38.140625 10.796875 36.28125 
z
" id="DejaVuSans-35"/>
       <path d="M 31.78125 66.40625 
Q 24.171875 66.40625 20.328125 58.90625 
Q 16.5 51.421875 16.5 36.375 
Q 16.5 21.390625 20.328125 13.890625 
Q 24.171875 6.390625 31.78125 6.390625 
Q 39.453125 6.390625 43.28125 13.890625 
Q 47.125 21.390625 47.125 36.375 
Q 47.125 51.421875 43.28125 58.90625 
Q 39.453125 66.40625 31.78125 66.40625 
z
M 31.78125 74.21875 
Q 44.046875 74.21875 50.515625 64.515625 
Q 56.984375 54.828125 56.984375 36.375 
Q 56.984375 17.96875 50.515625 8.265625 
Q 44.046875 -1.421875 31.78125 -1.421875 
Q 19.53125 -1.421875 13.0625 8.265625 
Q 6.59375 17.96875 6.59375 36.375 
Q 6.59375 54.828125 13.0625 64.515625 
Q 19.53125 74.21875 31.78125 74.21875 
z
" id="DejaVuSans-30"/>
      </defs>
      <g transform="translate(54.871932 306.551875)scale(0.2 -0.2)">
       <use xlink:href="#DejaVuSans-32"/>
       <use x="63.623047" xlink:href="#DejaVuSans-35"/>
       <use x="127.246094" xlink:href="#DejaVuSans-30"/>
       <use x="190.869141" xlink:href="#DejaVuSans-30"/>
      </g>
     </g>
    </g>
    <g id="xtick_2">
     <g id="line2d_2">
      <g>
       <use style="stroke:#000000;stroke-width:0.8;" x="168.906992" xlink:href="#m172ea72b23" y="284.355"/>
      </g>
     </g>
     <g id="text_2">
      <!-- 2600 -->
      <defs>
       <path d="M 33.015625 40.375 
Q 26.375 40.375 22.484375 35.828125 
Q 18.609375 31.296875 18.609375 23.390625 
Q 18.609375 15.53125 22.484375 10.953125 
Q 26.375 6.390625 33.015625 6.390625 
Q 39.65625 6.390625 43.53125 10.953125 
Q 47.40625 15.53125 47.40625 23.390625 
Q 47.40625 31.296875 43.53125 35.828125 
Q 39.65625 40.375 33.015625 40.375 
z
M 52.59375 71.296875 
L 52.59375 62.3125 
Q 48.875 64.0625 45.09375 64.984375 
Q 41.3125 65.921875 37.59375 65.921875 
Q 27.828125 65.921875 22.671875 59.328125 
Q 17.53125 52.734375 16.796875 39.40625 
Q 19.671875 43.65625 24.015625 45.921875 
Q 28.375 48.1875 33.59375 48.1875 
Q 44.578125 48.1875 50.953125 41.515625 
Q 57.328125 34.859375 57.328125 23.390625 
Q 57.328125 12.15625 50.6875 5.359375 
Q 44.046875 -1.421875 33.015625 -1.421875 
Q 20.359375 -1.421875 13.671875 8.265625 
Q 6.984375 17.96875 6.984375 36.375 
Q 6.984375 53.65625 15.1875 63.9375 
Q 23.390625 74.21875 37.203125 74.21875 
Q 40.921875 74.21875 44.703125 73.484375 
Q 48.484375 72.75 52.59375 71.296875 
z
" id="DejaVuSans-36"/>
      </defs>
      <g transform="translate(143.456992 306.551875)scale(0.2 -0.2)">
       <use xlink:href="#DejaVuSans-32"/>
       <use x="63.623047" xlink:href="#DejaVuSans-36"/>
       <use x="127.246094" xlink:href="#DejaVuSans-30"/>
       <use x="190.869141" xlink:href="#DejaVuSans-30"/>
      </g>
     </g>
    </g>
    <g id="xtick_3">
     <g id="line2d_3">
      <g>
       <use style="stroke:#000000;stroke-width:0.8;" x="257.492053" xlink:href="#m172ea72b23" y="284.355"/>
      </g>
     </g>
     <g id="text_3">
      <!-- 2700 -->
      <defs>
       <path d="M 8.203125 72.90625 
L 55.078125 72.90625 
L 55.078125 68.703125 
L 28.609375 0 
L 18.3125 0 
L 43.21875 64.59375 
L 8.203125 64.59375 
z
" id="DejaVuSans-37"/>
      </defs>
      <g transform="translate(232.042053 306.551875)scale(0.2 -0.2)">
       <use xlink:href="#DejaVuSans-32"/>
       <use x="63.623047" xlink:href="#DejaVuSans-37"/>
       <use x="127.246094" xlink:href="#DejaVuSans-30"/>
       <use x="190.869141" xlink:href="#DejaVuSans-30"/>
      </g>
     </g>
    </g>
    <g id="xtick_4">
     <g id="line2d_4">
      <g>
       <use style="stroke:#000000;stroke-width:0.8;" x="346.077113" xlink:href="#m172ea72b23" y="284.355"/>
      </g>
     </g>
     <g id="text_4">
      <!-- 2800 -->
      <defs>
       <path d="M 31.78125 34.625 
Q 24.75 34.625 20.71875 30.859375 
Q 16.703125 27.09375 16.703125 20.515625 
Q 16.703125 13.921875 20.71875 10.15625 
Q 24.75 6.390625 31.78125 6.390625 
Q 38.8125 6.390625 42.859375 10.171875 
Q 46.921875 13.96875 46.921875 20.515625 
Q 46.921875 27.09375 42.890625 30.859375 
Q 38.875 34.625 31.78125 34.625 
z
M 21.921875 38.8125 
Q 15.578125 40.375 12.03125 44.71875 
Q 8.5 49.078125 8.5 55.328125 
Q 8.5 64.0625 14.71875 69.140625 
Q 20.953125 74.21875 31.78125 74.21875 
Q 42.671875 74.21875 48.875 69.140625 
Q 55.078125 64.0625 55.078125 55.328125 
Q 55.078125 49.078125 51.53125 44.71875 
Q 48 40.375 41.703125 38.8125 
Q 48.828125 37.15625 52.796875 32.3125 
Q 56.78125 27.484375 56.78125 20.515625 
Q 56.78125 9.90625 50.3125 4.234375 
Q 43.84375 -1.421875 31.78125 -1.421875 
Q 19.734375 -1.421875 13.25 4.234375 
Q 6.78125 9.90625 6.78125 20.515625 
Q 6.78125 27.484375 10.78125 32.3125 
Q 14.796875 37.15625 21.921875 38.8125 
z
M 18.3125 54.390625 
Q 18.3125 48.734375 21.84375 45.5625 
Q 25.390625 42.390625 31.78125 42.390625 
Q 38.140625 42.390625 41.71875 45.5625 
Q 45.3125 48.734375 45.3125 54.390625 
Q 45.3125 60.0625 41.71875 63.234375 
Q 38.140625 66.40625 31.78125 66.40625 
Q 25.390625 66.40625 21.84375 63.234375 
Q 18.3125 60.0625 18.3125 54.390625 
z
" id="DejaVuSans-38"/>
      </defs>
      <g transform="translate(320.627113 306.551875)scale(0.2 -0.2)">
       <use xlink:href="#DejaVuSans-32"/>
       <use x="63.623047" xlink:href="#DejaVuSans-38"/>
       <use x="127.246094" xlink:href="#DejaVuSans-30"/>
       <use x="190.869141" xlink:href="#DejaVuSans-30"/>
      </g>
     </g>
    </g>
    <g id="xtick_5">
     <g id="line2d_5">
      <g>
       <use style="stroke:#000000;stroke-width:0.8;" x="434.662174" xlink:href="#m172ea72b23" y="284.355"/>
      </g>
     </g>
     <g id="text_5">
      <!-- 2900 -->
      <defs>
       <path d="M 10.984375 1.515625 
L 10.984375 10.5 
Q 14.703125 8.734375 18.5 7.8125 
Q 22.3125 6.890625 25.984375 6.890625 
Q 35.75 6.890625 40.890625 13.453125 
Q 46.046875 20.015625 46.78125 33.40625 
Q 43.953125 29.203125 39.59375 26.953125 
Q 35.25 24.703125 29.984375 24.703125 
Q 19.046875 24.703125 12.671875 31.3125 
Q 6.296875 37.9375 6.296875 49.421875 
Q 6.296875 60.640625 12.9375 67.421875 
Q 19.578125 74.21875 30.609375 74.21875 
Q 43.265625 74.21875 49.921875 64.515625 
Q 56.59375 54.828125 56.59375 36.375 
Q 56.59375 19.140625 48.40625 8.859375 
Q 40.234375 -1.421875 26.421875 -1.421875 
Q 22.703125 -1.421875 18.890625 -0.6875 
Q 15.09375 0.046875 10.984375 1.515625 
z
M 30.609375 32.421875 
Q 37.25 32.421875 41.125 36.953125 
Q 45.015625 41.5 45.015625 49.421875 
Q 45.015625 57.28125 41.125 61.84375 
Q 37.25 66.40625 30.609375 66.40625 
Q 23.96875 66.40625 20.09375 61.84375 
Q 16.21875 57.28125 16.21875 49.421875 
Q 16.21875 41.5 20.09375 36.953125 
Q 23.96875 32.421875 30.609375 32.421875 
z
" id="DejaVuSans-39"/>
      </defs>
      <g transform="translate(409.212174 306.551875)scale(0.2 -0.2)">
       <use xlink:href="#DejaVuSans-32"/>
       <use x="63.623047" xlink:href="#DejaVuSans-39"/>
       <use x="127.246094" xlink:href="#DejaVuSans-30"/>
       <use x="190.869141" xlink:href="#DejaVuSans-30"/>
      </g>
     </g>
    </g>
    <g id="text_6">
     <!-- Microwave frequency (MHz) -->
     <defs>
      <path d="M 9.1875 72.90625 
L 33.109375 72.90625 
L 49.703125 33.890625 
L 66.40625 72.90625 
L 90.28125 72.90625 
L 90.28125 0 
L 72.515625 0 
L 72.515625 53.328125 
L 55.71875 14.015625 
L 43.796875 14.015625 
L 27 53.328125 
L 27 0 
L 9.1875 0 
z
" id="DejaVuSans-Bold-4d"/>
      <path d="M 8.40625 54.6875 
L 25.875 54.6875 
L 25.875 0 
L 8.40625 0 
z
M 8.40625 75.984375 
L 25.875 75.984375 
L 25.875 61.71875 
L 8.40625 61.71875 
z
" id="DejaVuSans-Bold-69"/>
      <path d="M 52.59375 52.984375 
L 52.59375 38.71875 
Q 49.03125 41.15625 45.4375 42.328125 
Q 41.84375 43.5 37.984375 43.5 
Q 30.671875 43.5 26.59375 39.234375 
Q 22.515625 34.96875 22.515625 27.296875 
Q 22.515625 19.625 26.59375 15.34375 
Q 30.671875 11.078125 37.984375 11.078125 
Q 42.09375 11.078125 45.78125 12.296875 
Q 49.46875 13.53125 52.59375 15.921875 
L 52.59375 1.609375 
Q 48.484375 0.09375 44.265625 -0.65625 
Q 40.046875 -1.421875 35.796875 -1.421875 
Q 21 -1.421875 12.640625 6.171875 
Q 4.296875 13.765625 4.296875 27.296875 
Q 4.296875 40.828125 12.640625 48.40625 
Q 21 56 35.796875 56 
Q 40.09375 56 44.265625 55.25 
Q 48.4375 54.5 52.59375 52.984375 
z
" id="DejaVuSans-Bold-63"/>
      <path d="M 49.03125 39.796875 
Q 46.734375 40.875 44.453125 41.375 
Q 42.1875 41.890625 39.890625 41.890625 
Q 33.15625 41.890625 29.515625 37.5625 
Q 25.875 33.25 25.875 25.203125 
L 25.875 0 
L 8.40625 0 
L 8.40625 54.6875 
L 25.875 54.6875 
L 25.875 45.703125 
Q 29.25 51.078125 33.609375 53.53125 
Q 37.984375 56 44.09375 56 
Q 44.96875 56 45.984375 55.921875 
Q 47.015625 55.859375 48.96875 55.609375 
z
" id="DejaVuSans-Bold-72"/>
      <path d="M 34.421875 43.5 
Q 28.609375 43.5 25.5625 39.328125 
Q 22.515625 35.15625 22.515625 27.296875 
Q 22.515625 19.4375 25.5625 15.25 
Q 28.609375 11.078125 34.421875 11.078125 
Q 40.140625 11.078125 43.15625 15.25 
Q 46.1875 19.4375 46.1875 27.296875 
Q 46.1875 35.15625 43.15625 39.328125 
Q 40.140625 43.5 34.421875 43.5 
z
M 34.421875 56 
Q 48.53125 56 56.46875 48.375 
Q 64.40625 40.765625 64.40625 27.296875 
Q 64.40625 13.8125 56.46875 6.1875 
Q 48.53125 -1.421875 34.421875 -1.421875 
Q 20.265625 -1.421875 12.28125 6.1875 
Q 4.296875 13.8125 4.296875 27.296875 
Q 4.296875 40.765625 12.28125 48.375 
Q 20.265625 56 34.421875 56 
z
" id="DejaVuSans-Bold-6f"/>
      <path d="M 3.515625 54.6875 
L 20.515625 54.6875 
L 29.6875 17 
L 38.921875 54.6875 
L 53.515625 54.6875 
L 62.703125 17.390625 
L 71.921875 54.6875 
L 88.921875 54.6875 
L 74.515625 0 
L 55.421875 0 
L 46.1875 37.59375 
L 37.015625 0 
L 17.921875 0 
z
" id="DejaVuSans-Bold-77"/>
      <path d="M 32.90625 24.609375 
Q 27.4375 24.609375 24.671875 22.75 
Q 21.921875 20.90625 21.921875 17.28125 
Q 21.921875 13.96875 24.140625 12.078125 
Q 26.375 10.203125 30.328125 10.203125 
Q 35.25 10.203125 38.625 13.734375 
Q 42 17.28125 42 22.609375 
L 42 24.609375 
z
M 59.625 31.203125 
L 59.625 0 
L 42 0 
L 42 8.109375 
Q 38.484375 3.125 34.078125 0.84375 
Q 29.6875 -1.421875 23.390625 -1.421875 
Q 14.890625 -1.421875 9.59375 3.53125 
Q 4.296875 8.5 4.296875 16.40625 
Q 4.296875 26.03125 10.90625 30.515625 
Q 17.53125 35.015625 31.6875 35.015625 
L 42 35.015625 
L 42 36.375 
Q 42 40.53125 38.71875 42.453125 
Q 35.453125 44.390625 28.515625 44.390625 
Q 22.90625 44.390625 18.0625 43.265625 
Q 13.234375 42.140625 9.078125 39.890625 
L 9.078125 53.21875 
Q 14.703125 54.59375 20.359375 55.296875 
Q 26.03125 56 31.6875 56 
Q 46.484375 56 53.046875 50.171875 
Q 59.625 44.34375 59.625 31.203125 
z
" id="DejaVuSans-Bold-61"/>
      <path d="M 1.515625 54.6875 
L 19 54.6875 
L 32.625 16.890625 
L 46.1875 54.6875 
L 63.71875 54.6875 
L 42.1875 0 
L 23 0 
z
" id="DejaVuSans-Bold-76"/>
      <path d="M 62.984375 27.484375 
L 62.984375 22.515625 
L 22.125 22.515625 
Q 22.75 16.359375 26.5625 13.28125 
Q 30.375 10.203125 37.203125 10.203125 
Q 42.71875 10.203125 48.5 11.84375 
Q 54.296875 13.484375 60.40625 16.796875 
L 60.40625 3.328125 
Q 54.203125 0.984375 48 -0.21875 
Q 41.796875 -1.421875 35.59375 -1.421875 
Q 20.75 -1.421875 12.515625 6.125 
Q 4.296875 13.671875 4.296875 27.296875 
Q 4.296875 40.671875 12.375 48.328125 
Q 20.453125 56 34.625 56 
Q 47.515625 56 55.25 48.234375 
Q 62.984375 40.484375 62.984375 27.484375 
z
M 45.015625 33.296875 
Q 45.015625 38.28125 42.109375 41.328125 
Q 39.203125 44.390625 34.515625 44.390625 
Q 29.4375 44.390625 26.265625 41.53125 
Q 23.09375 38.671875 22.3125 33.296875 
z
" id="DejaVuSans-Bold-65"/>
      <path id="DejaVuSans-Bold-20"/>
      <path d="M 44.390625 75.984375 
L 44.390625 64.5 
L 34.71875 64.5 
Q 31 64.5 29.53125 63.15625 
Q 28.078125 61.8125 28.078125 58.5 
L 28.078125 54.6875 
L 43.015625 54.6875 
L 43.015625 42.1875 
L 28.078125 42.1875 
L 28.078125 0 
L 10.59375 0 
L 10.59375 42.1875 
L 1.90625 42.1875 
L 1.90625 54.6875 
L 10.59375 54.6875 
L 10.59375 58.5 
Q 10.59375 67.4375 15.578125 71.703125 
Q 20.5625 75.984375 31 75.984375 
z
" id="DejaVuSans-Bold-66"/>
      <path d="M 34.078125 43.3125 
Q 28.515625 43.3125 25.5625 39.203125 
Q 22.609375 35.109375 22.609375 27.296875 
Q 22.609375 19.484375 25.5625 15.375 
Q 28.515625 11.28125 34.078125 11.28125 
Q 39.703125 11.28125 42.65625 15.375 
Q 45.609375 19.484375 45.609375 27.296875 
Q 45.609375 35.109375 42.65625 39.203125 
Q 39.703125 43.3125 34.078125 43.3125 
z
M 45.609375 7.90625 
Q 42 3.078125 37.640625 0.828125 
Q 33.296875 -1.421875 27.59375 -1.421875 
Q 17.484375 -1.421875 10.984375 6.609375 
Q 4.5 14.65625 4.5 27.296875 
Q 4.5 39.9375 10.984375 47.921875 
Q 17.484375 55.90625 27.59375 55.90625 
Q 33.296875 55.90625 37.640625 53.65625 
Q 42 51.421875 45.609375 46.578125 
L 45.609375 54.6875 
L 63.1875 54.6875 
L 63.1875 -20.796875 
L 45.609375 -20.796875 
z
" id="DejaVuSans-Bold-71"/>
      <path d="M 7.8125 21.296875 
L 7.8125 54.6875 
L 25.390625 54.6875 
L 25.390625 49.21875 
Q 25.390625 44.78125 25.34375 38.0625 
Q 25.296875 31.34375 25.296875 29.109375 
Q 25.296875 22.515625 25.640625 19.609375 
Q 25.984375 16.703125 26.8125 15.375 
Q 27.875 13.671875 29.609375 12.734375 
Q 31.34375 11.8125 33.59375 11.8125 
Q 39.0625 11.8125 42.1875 16.015625 
Q 45.3125 20.21875 45.3125 27.6875 
L 45.3125 54.6875 
L 62.796875 54.6875 
L 62.796875 0 
L 45.3125 0 
L 45.3125 7.90625 
Q 41.359375 3.125 36.9375 0.84375 
Q 32.515625 -1.421875 27.203125 -1.421875 
Q 17.71875 -1.421875 12.765625 4.390625 
Q 7.8125 10.203125 7.8125 21.296875 
z
" id="DejaVuSans-Bold-75"/>
      <path d="M 63.375 33.296875 
L 63.375 0 
L 45.796875 0 
L 45.796875 5.421875 
L 45.796875 25.484375 
Q 45.796875 32.5625 45.484375 35.25 
Q 45.171875 37.9375 44.390625 39.203125 
Q 43.359375 40.921875 41.59375 41.875 
Q 39.84375 42.828125 37.59375 42.828125 
Q 32.125 42.828125 29 38.59375 
Q 25.875 34.375 25.875 26.90625 
L 25.875 0 
L 8.40625 0 
L 8.40625 54.6875 
L 25.875 54.6875 
L 25.875 46.6875 
Q 29.828125 51.46875 34.265625 53.734375 
Q 38.71875 56 44.09375 56 
Q 53.5625 56 58.46875 50.1875 
Q 63.375 44.390625 63.375 33.296875 
z
" id="DejaVuSans-Bold-6e"/>
      <path d="M 1.21875 54.6875 
L 18.703125 54.6875 
L 33.40625 17.578125 
L 45.90625 54.6875 
L 63.375 54.6875 
L 40.375 -5.171875 
Q 36.921875 -14.3125 32.296875 -17.9375 
Q 27.6875 -21.578125 20.125 -21.578125 
L 10.015625 -21.578125 
L 10.015625 -10.109375 
L 15.484375 -10.109375 
Q 19.921875 -10.109375 21.9375 -8.6875 
Q 23.96875 -7.28125 25.09375 -3.609375 
L 25.59375 -2.09375 
z
" id="DejaVuSans-Bold-79"/>
      <path d="M 37.703125 -13.1875 
L 23.1875 -13.1875 
Q 15.71875 -1.125 12.15625 9.734375 
Q 8.59375 20.609375 8.59375 31.296875 
Q 8.59375 42 12.171875 52.953125 
Q 15.765625 63.921875 23.1875 75.875 
L 37.703125 75.875 
Q 31.453125 64.3125 28.328125 53.25 
Q 25.203125 42.1875 25.203125 31.390625 
Q 25.203125 20.609375 28.296875 9.515625 
Q 31.390625 -1.5625 37.703125 -13.1875 
z
" id="DejaVuSans-Bold-28"/>
      <path d="M 9.1875 72.90625 
L 27.984375 72.90625 
L 27.984375 45.125 
L 55.71875 45.125 
L 55.71875 72.90625 
L 74.515625 72.90625 
L 74.515625 0 
L 55.71875 0 
L 55.71875 30.90625 
L 27.984375 30.90625 
L 27.984375 0 
L 9.1875 0 
z
" id="DejaVuSans-Bold-48"/>
      <path d="M 5.71875 54.6875 
L 53.421875 54.6875 
L 53.421875 42.484375 
L 24.609375 12.5 
L 53.421875 12.5 
L 53.421875 0 
L 4.5 0 
L 4.5 12.203125 
L 33.296875 42.1875 
L 5.71875 42.1875 
z
" id="DejaVuSans-Bold-7a"/>
      <path d="M 8.015625 -13.1875 
Q 14.265625 -1.5625 17.390625 9.515625 
Q 20.515625 20.609375 20.515625 31.390625 
Q 20.515625 42.1875 17.390625 53.25 
Q 14.265625 64.3125 8.015625 75.875 
L 22.515625 75.875 
Q 29.9375 63.921875 33.515625 52.953125 
Q 37.109375 42 37.109375 31.296875 
Q 37.109375 20.609375 33.546875 9.734375 
Q 29.984375 -1.125 22.515625 -13.1875 
z
" id="DejaVuSans-Bold-29"/>
     </defs>
     <g transform="translate(99.585 329.908125)scale(0.2 -0.2)">
      <use xlink:href="#DejaVuSans-Bold-4d"/>
      <use x="99.511719" xlink:href="#DejaVuSans-Bold-69"/>
      <use x="133.789062" xlink:href="#DejaVuSans-Bold-63"/>
      <use x="193.066406" xlink:href="#DejaVuSans-Bold-72"/>
      <use x="242.382812" xlink:href="#DejaVuSans-Bold-6f"/>
      <use x="311.083984" xlink:href="#DejaVuSans-Bold-77"/>
      <use x="403.466797" xlink:href="#DejaVuSans-Bold-61"/>
      <use x="470.947266" xlink:href="#DejaVuSans-Bold-76"/>
      <use x="536.132812" xlink:href="#DejaVuSans-Bold-65"/>
      <use x="603.955078" xlink:href="#DejaVuSans-Bold-20"/>
      <use x="638.769531" xlink:href="#DejaVuSans-Bold-66"/>
      <use x="682.275391" xlink:href="#DejaVuSans-Bold-72"/>
      <use x="731.591797" xlink:href="#DejaVuSans-Bold-65"/>
      <use x="799.414062" xlink:href="#DejaVuSans-Bold-71"/>
      <use x="870.996094" xlink:href="#DejaVuSans-Bold-75"/>
      <use x="942.1875" xlink:href="#DejaVuSans-Bold-65"/>
      <use x="1010.009766" xlink:href="#DejaVuSans-Bold-6e"/>
      <use x="1081.201172" xlink:href="#DejaVuSans-Bold-63"/>
      <use x="1140.478516" xlink:href="#DejaVuSans-Bold-79"/>
      <use x="1205.664062" xlink:href="#DejaVuSans-Bold-20"/>
      <use x="1240.478516" xlink:href="#DejaVuSans-Bold-28"/>
      <use x="1286.181641" xlink:href="#DejaVuSans-Bold-4d"/>
      <use x="1385.693359" xlink:href="#DejaVuSans-Bold-48"/>
      <use x="1469.384766" xlink:href="#DejaVuSans-Bold-7a"/>
      <use x="1527.587891" xlink:href="#DejaVuSans-Bold-29"/>
     </g>
    </g>
   </g>
   <g id="matplotlib.axis_2">
    <g id="ytick_1">
     <g id="line2d_6">
      <defs>
       <path d="M 0 0 
L -3.5 0 
" id="m1c2224aa14" style="stroke:#000000;stroke-width:0.8;"/>
      </defs>
      <g>
       <use style="stroke:#000000;stroke-width:0.8;" x="62.6625" xlink:href="#m1c2224aa14" y="270.744003"/>
      </g>
     </g>
     <g id="text_7">
      <!-- 0.992 -->
      <defs>
       <path d="M 10.6875 12.40625 
L 21 12.40625 
L 21 0 
L 10.6875 0 
z
" id="DejaVuSans-2e"/>
      </defs>
      <g transform="translate(-1.59375 278.342441)scale(0.2 -0.2)">
       <use xlink:href="#DejaVuSans-30"/>
       <use x="63.623047" xlink:href="#DejaVuSans-2e"/>
       <use x="95.410156" xlink:href="#DejaVuSans-39"/>
       <use x="159.033203" xlink:href="#DejaVuSans-39"/>
       <use x="222.65625" xlink:href="#DejaVuSans-32"/>
      </g>
     </g>
    </g>
    <g id="ytick_2">
     <g id="line2d_7">
      <g>
       <use style="stroke:#000000;stroke-width:0.8;" x="62.6625" xlink:href="#m1c2224aa14" y="215.438628"/>
      </g>
     </g>
     <g id="text_8">
      <!-- 0.994 -->
      <defs>
       <path d="M 37.796875 64.3125 
L 12.890625 25.390625 
L 37.796875 25.390625 
z
M 35.203125 72.90625 
L 47.609375 72.90625 
L 47.609375 25.390625 
L 58.015625 25.390625 
L 58.015625 17.1875 
L 47.609375 17.1875 
L 47.609375 0 
L 37.796875 0 
L 37.796875 17.1875 
L 4.890625 17.1875 
L 4.890625 26.703125 
z
" id="DejaVuSans-34"/>
      </defs>
      <g transform="translate(-1.59375 223.037065)scale(0.2 -0.2)">
       <use xlink:href="#DejaVuSans-30"/>
       <use x="63.623047" xlink:href="#DejaVuSans-2e"/>
       <use x="95.410156" xlink:href="#DejaVuSans-39"/>
       <use x="159.033203" xlink:href="#DejaVuSans-39"/>
       <use x="222.65625" xlink:href="#DejaVuSans-34"/>
      </g>
     </g>
    </g>
    <g id="ytick_3">
     <g id="line2d_8">
      <g>
       <use style="stroke:#000000;stroke-width:0.8;" x="62.6625" xlink:href="#m1c2224aa14" y="160.133252"/>
      </g>
     </g>
     <g id="text_9">
      <!-- 0.996 -->
      <g transform="translate(-1.59375 167.731689)scale(0.2 -0.2)">
       <use xlink:href="#DejaVuSans-30"/>
       <use x="63.623047" xlink:href="#DejaVuSans-2e"/>
       <use x="95.410156" xlink:href="#DejaVuSans-39"/>
       <use x="159.033203" xlink:href="#DejaVuSans-39"/>
       <use x="222.65625" xlink:href="#DejaVuSans-36"/>
      </g>
     </g>
    </g>
    <g id="ytick_4">
     <g id="line2d_9">
      <g>
       <use style="stroke:#000000;stroke-width:0.8;" x="62.6625" xlink:href="#m1c2224aa14" y="104.827876"/>
      </g>
     </g>
     <g id="text_10">
      <!-- 0.998 -->
      <g transform="translate(-1.59375 112.426313)scale(0.2 -0.2)">
       <use xlink:href="#DejaVuSans-30"/>
       <use x="63.623047" xlink:href="#DejaVuSans-2e"/>
       <use x="95.410156" xlink:href="#DejaVuSans-39"/>
       <use x="159.033203" xlink:href="#DejaVuSans-39"/>
       <use x="222.65625" xlink:href="#DejaVuSans-38"/>
      </g>
     </g>
    </g>
    <g id="ytick_5">
     <g id="line2d_10">
      <g>
       <use style="stroke:#000000;stroke-width:0.8;" x="62.6625" xlink:href="#m1c2224aa14" y="49.5225"/>
      </g>
     </g>
     <g id="text_11">
      <!-- 1.000 -->
      <defs>
       <path d="M 12.40625 8.296875 
L 28.515625 8.296875 
L 28.515625 63.921875 
L 10.984375 60.40625 
L 10.984375 69.390625 
L 28.421875 72.90625 
L 38.28125 72.90625 
L 38.28125 8.296875 
L 54.390625 8.296875 
L 54.390625 0 
L 12.40625 0 
z
" id="DejaVuSans-31"/>
      </defs>
      <g transform="translate(-1.59375 57.120937)scale(0.2 -0.2)">
       <use xlink:href="#DejaVuSans-31"/>
       <use x="63.623047" xlink:href="#DejaVuSans-2e"/>
       <use x="95.410156" xlink:href="#DejaVuSans-30"/>
       <use x="159.033203" xlink:href="#DejaVuSans-30"/>
       <use x="222.65625" xlink:href="#DejaVuSans-30"/>
      </g>
     </g>
    </g>
    <g id="text_12">
     <!-- Photoluminescence -->
     <defs>
      <path d="M 9.1875 72.90625 
L 40.375 72.90625 
Q 54.296875 72.90625 61.734375 66.71875 
Q 69.1875 60.546875 69.1875 49.125 
Q 69.1875 37.640625 61.734375 31.46875 
Q 54.296875 25.296875 40.375 25.296875 
L 27.984375 25.296875 
L 27.984375 0 
L 9.1875 0 
z
M 27.984375 59.28125 
L 27.984375 38.921875 
L 38.375 38.921875 
Q 43.84375 38.921875 46.828125 41.578125 
Q 49.8125 44.234375 49.8125 49.125 
Q 49.8125 54 46.828125 56.640625 
Q 43.84375 59.28125 38.375 59.28125 
z
" id="DejaVuSans-Bold-50"/>
      <path d="M 63.375 33.296875 
L 63.375 0 
L 45.796875 0 
L 45.796875 5.421875 
L 45.796875 25.390625 
Q 45.796875 32.5625 45.484375 35.25 
Q 45.171875 37.9375 44.390625 39.203125 
Q 43.359375 40.921875 41.59375 41.875 
Q 39.84375 42.828125 37.59375 42.828125 
Q 32.125 42.828125 29 38.59375 
Q 25.875 34.375 25.875 26.90625 
L 25.875 0 
L 8.40625 0 
L 8.40625 75.984375 
L 25.875 75.984375 
L 25.875 46.6875 
Q 29.828125 51.46875 34.265625 53.734375 
Q 38.71875 56 44.09375 56 
Q 53.5625 56 58.46875 50.1875 
Q 63.375 44.390625 63.375 33.296875 
z
" id="DejaVuSans-Bold-68"/>
      <path d="M 27.484375 70.21875 
L 27.484375 54.6875 
L 45.515625 54.6875 
L 45.515625 42.1875 
L 27.484375 42.1875 
L 27.484375 19 
Q 27.484375 15.1875 29 13.84375 
Q 30.515625 12.5 35.015625 12.5 
L 44 12.5 
L 44 0 
L 29 0 
Q 18.65625 0 14.328125 4.3125 
Q 10.015625 8.640625 10.015625 19 
L 10.015625 42.1875 
L 1.3125 42.1875 
L 1.3125 54.6875 
L 10.015625 54.6875 
L 10.015625 70.21875 
z
" id="DejaVuSans-Bold-74"/>
      <path d="M 8.40625 75.984375 
L 25.875 75.984375 
L 25.875 0 
L 8.40625 0 
z
" id="DejaVuSans-Bold-6c"/>
      <path d="M 59.078125 45.609375 
Q 62.40625 50.6875 66.96875 53.34375 
Q 71.53125 56 77 56 
Q 86.421875 56 91.359375 50.1875 
Q 96.296875 44.390625 96.296875 33.296875 
L 96.296875 0 
L 78.71875 0 
L 78.71875 28.515625 
Q 78.765625 29.15625 78.78125 29.828125 
Q 78.8125 30.515625 78.8125 31.78125 
Q 78.8125 37.59375 77.09375 40.203125 
Q 75.390625 42.828125 71.578125 42.828125 
Q 66.609375 42.828125 63.890625 38.71875 
Q 61.1875 34.625 61.078125 26.859375 
L 61.078125 0 
L 43.5 0 
L 43.5 28.515625 
Q 43.5 37.59375 41.9375 40.203125 
Q 40.375 42.828125 36.375 42.828125 
Q 31.34375 42.828125 28.609375 38.703125 
Q 25.875 34.578125 25.875 26.90625 
L 25.875 0 
L 8.296875 0 
L 8.296875 54.6875 
L 25.875 54.6875 
L 25.875 46.6875 
Q 29.109375 51.3125 33.28125 53.65625 
Q 37.453125 56 42.484375 56 
Q 48.140625 56 52.484375 53.265625 
Q 56.84375 50.53125 59.078125 45.609375 
z
" id="DejaVuSans-Bold-6d"/>
      <path d="M 51.125 52.984375 
L 51.125 39.703125 
Q 45.515625 42.046875 40.28125 43.21875 
Q 35.0625 44.390625 30.421875 44.390625 
Q 25.4375 44.390625 23.015625 43.140625 
Q 20.609375 41.890625 20.609375 39.3125 
Q 20.609375 37.203125 22.4375 36.078125 
Q 24.265625 34.96875 29 34.421875 
L 32.078125 33.984375 
Q 45.515625 32.28125 50.140625 28.375 
Q 54.78125 24.46875 54.78125 16.109375 
Q 54.78125 7.375 48.328125 2.96875 
Q 41.890625 -1.421875 29.109375 -1.421875 
Q 23.6875 -1.421875 17.890625 -0.5625 
Q 12.109375 0.296875 6 2 
L 6 15.28125 
Q 11.234375 12.75 16.71875 11.46875 
Q 22.21875 10.203125 27.875 10.203125 
Q 33.015625 10.203125 35.59375 11.609375 
Q 38.1875 13.03125 38.1875 15.828125 
Q 38.1875 18.171875 36.40625 19.3125 
Q 34.625 20.453125 29.296875 21.09375 
L 26.21875 21.484375 
Q 14.546875 22.953125 9.859375 26.90625 
Q 5.171875 30.859375 5.171875 38.921875 
Q 5.171875 47.609375 11.125 51.796875 
Q 17.09375 56 29.390625 56 
Q 34.234375 56 39.546875 55.265625 
Q 44.875 54.546875 51.125 52.984375 
z
" id="DejaVuSans-Bold-73"/>
     </defs>
     <g transform="translate(-9.753125 271.105312)rotate(-90)scale(0.2 -0.2)">
      <use xlink:href="#DejaVuSans-Bold-50"/>
      <use x="73.291016" xlink:href="#DejaVuSans-Bold-68"/>
      <use x="144.482422" xlink:href="#DejaVuSans-Bold-6f"/>
      <use x="213.183594" xlink:href="#DejaVuSans-Bold-74"/>
      <use x="260.986328" xlink:href="#DejaVuSans-Bold-6f"/>
      <use x="329.6875" xlink:href="#DejaVuSans-Bold-6c"/>
      <use x="363.964844" xlink:href="#DejaVuSans-Bold-75"/>
      <use x="435.15625" xlink:href="#DejaVuSans-Bold-6d"/>
      <use x="539.355469" xlink:href="#DejaVuSans-Bold-69"/>
      <use x="573.632812" xlink:href="#DejaVuSans-Bold-6e"/>
      <use x="644.824219" xlink:href="#DejaVuSans-Bold-65"/>
      <use x="712.646484" xlink:href="#DejaVuSans-Bold-73"/>
      <use x="772.167969" xlink:href="#DejaVuSans-Bold-63"/>
      <use x="831.445312" xlink:href="#DejaVuSans-Bold-65"/>
      <use x="899.267578" xlink:href="#DejaVuSans-Bold-6e"/>
      <use x="970.458984" xlink:href="#DejaVuSans-Bold-63"/>
      <use x="1029.736328" xlink:href="#DejaVuSans-Bold-65"/>
     </g>
    </g>
   </g>
   <g id="line2d_11">
    <defs>
     <path d="M 0 5 
C 1.326016 5 2.597899 4.473168 3.535534 3.535534 
C 4.473168 2.597899 5 1.326016 5 0 
C 5 -1.326016 4.473168 -2.597899 3.535534 -3.535534 
C 2.597899 -4.473168 1.326016 -5 0 -5 
C -1.326016 -5 -2.597899 -4.473168 -3.535534 -3.535534 
C -4.473168 -2.597899 -5 -1.326016 -5 0 
C -5 1.326016 -4.473168 2.597899 -3.535534 3.535534 
C -2.597899 4.473168 -1.326016 5 0 5 
z
" id="m55d2b952a5" style="stroke:#1f77b4;stroke-width:3;"/>
    </defs>
    <g clip-path="url(#p5a9c979863)">
     <use style="fill-opacity:0;stroke:#1f77b4;stroke-width:3;" x="80.321932" xlink:href="#m55d2b952a5" y="82.732709"/>
     <use style="fill-opacity:0;stroke:#1f77b4;stroke-width:3;" x="81.473538" xlink:href="#m55d2b952a5" y="113.86728"/>
     <use style="fill-opacity:0;stroke:#1f77b4;stroke-width:3;" x="82.713728" xlink:href="#m55d2b952a5" y="109.197094"/>
     <use style="fill-opacity:0;stroke:#1f77b4;stroke-width:3;" x="83.865334" xlink:href="#m55d2b952a5" y="84.289437"/>
     <use style="fill-opacity:0;stroke:#1f77b4;stroke-width:3;" x="85.01694" xlink:href="#m55d2b952a5" y="70.79779"/>
     <use style="fill-opacity:0;stroke:#1f77b4;stroke-width:3;" x="86.257131" xlink:href="#m55d2b952a5" y="102.97018"/>
     <use style="fill-opacity:0;stroke:#1f77b4;stroke-width:3;" x="87.408737" xlink:href="#m55d2b952a5" y="78.062523"/>
     <use style="fill-opacity:0;stroke:#1f77b4;stroke-width:3;" x="88.560342" xlink:href="#m55d2b952a5" y="72.354519"/>
     <use style="fill-opacity:0;stroke:#1f77b4;stroke-width:3;" x="89.800533" xlink:href="#m55d2b952a5" y="98.818904"/>
     <use style="fill-opacity:0;stroke:#1f77b4;stroke-width:3;" x="90.952139" xlink:href="#m55d2b952a5" y="97.262175"/>
     <use style="fill-opacity:0;stroke:#1f77b4;stroke-width:3;" x="92.103745" xlink:href="#m55d2b952a5" y="107.121456"/>
     <use style="fill-opacity:0;stroke:#1f77b4;stroke-width:3;" x="93.343936" xlink:href="#m55d2b952a5" y="67.165423"/>
     <use style="fill-opacity:0;stroke:#1f77b4;stroke-width:3;" x="94.495542" xlink:href="#m55d2b952a5" y="73.392338"/>
     <use style="fill-opacity:0;stroke:#1f77b4;stroke-width:3;" x="95.647147" xlink:href="#m55d2b952a5" y="76.505795"/>
     <use style="fill-opacity:0;stroke:#1f77b4;stroke-width:3;" x="96.887338" xlink:href="#m55d2b952a5" y="68.722152"/>
     <use style="fill-opacity:0;stroke:#1f77b4;stroke-width:3;" x="98.038944" xlink:href="#m55d2b952a5" y="75.467976"/>
     <use style="fill-opacity:0;stroke:#1f77b4;stroke-width:3;" x="99.19055" xlink:href="#m55d2b952a5" y="97.781085"/>
     <use style="fill-opacity:0;stroke:#1f77b4;stroke-width:3;" x="100.430741" xlink:href="#m55d2b952a5" y="89.997442"/>
     <use style="fill-opacity:0;stroke:#1f77b4;stroke-width:3;" x="101.582346" xlink:href="#m55d2b952a5" y="98.299994"/>
     <use style="fill-opacity:0;stroke:#1f77b4;stroke-width:3;" x="102.733952" xlink:href="#m55d2b952a5" y="89.478532"/>
     <use style="fill-opacity:0;stroke:#1f77b4;stroke-width:3;" x="103.974143" xlink:href="#m55d2b952a5" y="82.213799"/>
     <use style="fill-opacity:0;stroke:#1f77b4;stroke-width:3;" x="105.125749" xlink:href="#m55d2b952a5" y="86.365075"/>
     <use style="fill-opacity:0;stroke:#1f77b4;stroke-width:3;" x="106.277355" xlink:href="#m55d2b952a5" y="104.007999"/>
     <use style="fill-opacity:0;stroke:#1f77b4;stroke-width:3;" x="107.517545" xlink:href="#m55d2b952a5" y="89.997442"/>
     <use style="fill-opacity:0;stroke:#1f77b4;stroke-width:3;" x="108.669151" xlink:href="#m55d2b952a5" y="70.278881"/>
     <use style="fill-opacity:0;stroke:#1f77b4;stroke-width:3;" x="109.820757" xlink:href="#m55d2b952a5" y="110.234913"/>
     <use style="fill-opacity:0;stroke:#1f77b4;stroke-width:3;" x="111.060948" xlink:href="#m55d2b952a5" y="84.289437"/>
     <use style="fill-opacity:0;stroke:#1f77b4;stroke-width:3;" x="112.212554" xlink:href="#m55d2b952a5" y="114.905099"/>
     <use style="fill-opacity:0;stroke:#1f77b4;stroke-width:3;" x="113.364159" xlink:href="#m55d2b952a5" y="79.100342"/>
     <use style="fill-opacity:0;stroke:#1f77b4;stroke-width:3;" x="114.60435" xlink:href="#m55d2b952a5" y="87.402894"/>
     <use style="fill-opacity:0;stroke:#1f77b4;stroke-width:3;" x="115.755956" xlink:href="#m55d2b952a5" y="68.203242"/>
     <use style="fill-opacity:0;stroke:#1f77b4;stroke-width:3;" x="116.907562" xlink:href="#m55d2b952a5" y="101.413451"/>
     <use style="fill-opacity:0;stroke:#1f77b4;stroke-width:3;" x="118.147753" xlink:href="#m55d2b952a5" y="87.402894"/>
     <use style="fill-opacity:0;stroke:#1f77b4;stroke-width:3;" x="119.299358" xlink:href="#m55d2b952a5" y="81.17598"/>
     <use style="fill-opacity:0;stroke:#1f77b4;stroke-width:3;" x="120.450964" xlink:href="#m55d2b952a5" y="108.678184"/>
     <use style="fill-opacity:0;stroke:#1f77b4;stroke-width:3;" x="121.691155" xlink:href="#m55d2b952a5" y="102.97018"/>
     <use style="fill-opacity:0;stroke:#1f77b4;stroke-width:3;" x="122.842761" xlink:href="#m55d2b952a5" y="97.781085"/>
     <use style="fill-opacity:0;stroke:#1f77b4;stroke-width:3;" x="123.994367" xlink:href="#m55d2b952a5" y="95.705447"/>
     <use style="fill-opacity:0;stroke:#1f77b4;stroke-width:3;" x="125.234558" xlink:href="#m55d2b952a5" y="70.278881"/>
     <use style="fill-opacity:0;stroke:#1f77b4;stroke-width:3;" x="126.386163" xlink:href="#m55d2b952a5" y="127.358927"/>
     <use style="fill-opacity:0;stroke:#1f77b4;stroke-width:3;" x="127.537769" xlink:href="#m55d2b952a5" y="98.299994"/>
     <use style="fill-opacity:0;stroke:#1f77b4;stroke-width:3;" x="128.77796" xlink:href="#m55d2b952a5" y="58.862871"/>
     <use style="fill-opacity:0;stroke:#1f77b4;stroke-width:3;" x="129.929566" xlink:href="#m55d2b952a5" y="87.921804"/>
     <use style="fill-opacity:0;stroke:#1f77b4;stroke-width:3;" x="131.081172" xlink:href="#m55d2b952a5" y="99.337813"/>
     <use style="fill-opacity:0;stroke:#1f77b4;stroke-width:3;" x="132.321362" xlink:href="#m55d2b952a5" y="101.413451"/>
     <use style="fill-opacity:0;stroke:#1f77b4;stroke-width:3;" x="133.472968" xlink:href="#m55d2b952a5" y="85.846166"/>
     <use style="fill-opacity:0;stroke:#1f77b4;stroke-width:3;" x="134.624574" xlink:href="#m55d2b952a5" y="125.283289"/>
     <use style="fill-opacity:0;stroke:#1f77b4;stroke-width:3;" x="135.864765" xlink:href="#m55d2b952a5" y="88.959623"/>
     <use style="fill-opacity:0;stroke:#1f77b4;stroke-width:3;" x="137.016371" xlink:href="#m55d2b952a5" y="84.808347"/>
     <use style="fill-opacity:0;stroke:#1f77b4;stroke-width:3;" x="138.167976" xlink:href="#m55d2b952a5" y="101.932361"/>
     <use style="fill-opacity:0;stroke:#1f77b4;stroke-width:3;" x="139.408167" xlink:href="#m55d2b952a5" y="122.169832"/>
     <use style="fill-opacity:0;stroke:#1f77b4;stroke-width:3;" x="140.559773" xlink:href="#m55d2b952a5" y="86.365075"/>
     <use style="fill-opacity:0;stroke:#1f77b4;stroke-width:3;" x="141.711379" xlink:href="#m55d2b952a5" y="68.203242"/>
     <use style="fill-opacity:0;stroke:#1f77b4;stroke-width:3;" x="142.95157" xlink:href="#m55d2b952a5" y="133.066932"/>
     <use style="fill-opacity:0;stroke:#1f77b4;stroke-width:3;" x="144.103175" xlink:href="#m55d2b952a5" y="77.024704"/>
     <use style="fill-opacity:0;stroke:#1f77b4;stroke-width:3;" x="145.254781" xlink:href="#m55d2b952a5" y="83.251618"/>
     <use style="fill-opacity:0;stroke:#1f77b4;stroke-width:3;" x="146.494972" xlink:href="#m55d2b952a5" y="95.186537"/>
     <use style="fill-opacity:0;stroke:#1f77b4;stroke-width:3;" x="147.646578" xlink:href="#m55d2b952a5" y="95.186537"/>
     <use style="fill-opacity:0;stroke:#1f77b4;stroke-width:3;" x="148.798184" xlink:href="#m55d2b952a5" y="98.818904"/>
     <use style="fill-opacity:0;stroke:#1f77b4;stroke-width:3;" x="150.038374" xlink:href="#m55d2b952a5" y="106.602546"/>
     <use style="fill-opacity:0;stroke:#1f77b4;stroke-width:3;" x="151.18998" xlink:href="#m55d2b952a5" y="98.299994"/>
     <use style="fill-opacity:0;stroke:#1f77b4;stroke-width:3;" x="152.341586" xlink:href="#m55d2b952a5" y="112.829461"/>
     <use style="fill-opacity:0;stroke:#1f77b4;stroke-width:3;" x="153.581777" xlink:href="#m55d2b952a5" y="84.808347"/>
     <use style="fill-opacity:0;stroke:#1f77b4;stroke-width:3;" x="154.733383" xlink:href="#m55d2b952a5" y="69.759971"/>
     <use style="fill-opacity:0;stroke:#1f77b4;stroke-width:3;" x="155.884988" xlink:href="#m55d2b952a5" y="113.86728"/>
     <use style="fill-opacity:0;stroke:#1f77b4;stroke-width:3;" x="157.125179" xlink:href="#m55d2b952a5" y="113.86728"/>
     <use style="fill-opacity:0;stroke:#1f77b4;stroke-width:3;" x="158.276785" xlink:href="#m55d2b952a5" y="94.148718"/>
     <use style="fill-opacity:0;stroke:#1f77b4;stroke-width:3;" x="159.428391" xlink:href="#m55d2b952a5" y="83.770528"/>
     <use style="fill-opacity:0;stroke:#1f77b4;stroke-width:3;" x="160.668582" xlink:href="#m55d2b952a5" y="89.478532"/>
     <use style="fill-opacity:0;stroke:#1f77b4;stroke-width:3;" x="161.820188" xlink:href="#m55d2b952a5" y="99.856723"/>
     <use style="fill-opacity:0;stroke:#1f77b4;stroke-width:3;" x="162.971793" xlink:href="#m55d2b952a5" y="126.321108"/>
     <use style="fill-opacity:0;stroke:#1f77b4;stroke-width:3;" x="164.211984" xlink:href="#m55d2b952a5" y="93.629809"/>
     <use style="fill-opacity:0;stroke:#1f77b4;stroke-width:3;" x="165.36359" xlink:href="#m55d2b952a5" y="84.289437"/>
     <use style="fill-opacity:0;stroke:#1f77b4;stroke-width:3;" x="166.515196" xlink:href="#m55d2b952a5" y="86.365075"/>
     <use style="fill-opacity:0;stroke:#1f77b4;stroke-width:3;" x="167.755387" xlink:href="#m55d2b952a5" y="116.980737"/>
     <use style="fill-opacity:0;stroke:#1f77b4;stroke-width:3;" x="168.906992" xlink:href="#m55d2b952a5" y="101.413451"/>
     <use style="fill-opacity:0;stroke:#1f77b4;stroke-width:3;" x="170.058598" xlink:href="#m55d2b952a5" y="131.510203"/>
     <use style="fill-opacity:0;stroke:#1f77b4;stroke-width:3;" x="171.298789" xlink:href="#m55d2b952a5" y="115.424008"/>
     <use style="fill-opacity:0;stroke:#1f77b4;stroke-width:3;" x="172.450395" xlink:href="#m55d2b952a5" y="150.190945"/>
     <use style="fill-opacity:0;stroke:#1f77b4;stroke-width:3;" x="173.602001" xlink:href="#m55d2b952a5" y="216.611363"/>
     <use style="fill-opacity:0;stroke:#1f77b4;stroke-width:3;" x="174.842191" xlink:href="#m55d2b952a5" y="255.010667"/>
     <use style="fill-opacity:0;stroke:#1f77b4;stroke-width:3;" x="175.993797" xlink:href="#m55d2b952a5" y="259.680853"/>
     <use style="fill-opacity:0;stroke:#1f77b4;stroke-width:3;" x="177.145403" xlink:href="#m55d2b952a5" y="202.081897"/>
     <use style="fill-opacity:0;stroke:#1f77b4;stroke-width:3;" x="178.385594" xlink:href="#m55d2b952a5" y="248.783753"/>
     <use style="fill-opacity:0;stroke:#1f77b4;stroke-width:3;" x="179.5372" xlink:href="#m55d2b952a5" y="190.146978"/>
     <use style="fill-opacity:0;stroke:#1f77b4;stroke-width:3;" x="180.688805" xlink:href="#m55d2b952a5" y="184.957883"/>
     <use style="fill-opacity:0;stroke:#1f77b4;stroke-width:3;" x="181.928996" xlink:href="#m55d2b952a5" y="146.558579"/>
     <use style="fill-opacity:0;stroke:#1f77b4;stroke-width:3;" x="183.080602" xlink:href="#m55d2b952a5" y="161.606955"/>
     <use style="fill-opacity:0;stroke:#1f77b4;stroke-width:3;" x="184.232208" xlink:href="#m55d2b952a5" y="138.774936"/>
     <use style="fill-opacity:0;stroke:#1f77b4;stroke-width:3;" x="185.472399" xlink:href="#m55d2b952a5" y="107.121456"/>
     <use style="fill-opacity:0;stroke:#1f77b4;stroke-width:3;" x="186.624004" xlink:href="#m55d2b952a5" y="89.997442"/>
     <use style="fill-opacity:0;stroke:#1f77b4;stroke-width:3;" x="187.77561" xlink:href="#m55d2b952a5" y="82.213799"/>
     <use style="fill-opacity:0;stroke:#1f77b4;stroke-width:3;" x="189.015801" xlink:href="#m55d2b952a5" y="107.640365"/>
     <use style="fill-opacity:0;stroke:#1f77b4;stroke-width:3;" x="190.167407" xlink:href="#m55d2b952a5" y="112.829461"/>
     <use style="fill-opacity:0;stroke:#1f77b4;stroke-width:3;" x="191.319013" xlink:href="#m55d2b952a5" y="49.5225"/>
     <use style="fill-opacity:0;stroke:#1f77b4;stroke-width:3;" x="192.559204" xlink:href="#m55d2b952a5" y="90.516352"/>
     <use style="fill-opacity:0;stroke:#1f77b4;stroke-width:3;" x="193.710809" xlink:href="#m55d2b952a5" y="84.808347"/>
     <use style="fill-opacity:0;stroke:#1f77b4;stroke-width:3;" x="194.862415" xlink:href="#m55d2b952a5" y="114.905099"/>
     <use style="fill-opacity:0;stroke:#1f77b4;stroke-width:3;" x="196.102606" xlink:href="#m55d2b952a5" y="117.499646"/>
     <use style="fill-opacity:0;stroke:#1f77b4;stroke-width:3;" x="197.254212" xlink:href="#m55d2b952a5" y="97.781085"/>
     <use style="fill-opacity:0;stroke:#1f77b4;stroke-width:3;" x="198.405818" xlink:href="#m55d2b952a5" y="123.72656"/>
     <use style="fill-opacity:0;stroke:#1f77b4;stroke-width:3;" x="199.646008" xlink:href="#m55d2b952a5" y="86.883985"/>
     <use style="fill-opacity:0;stroke:#1f77b4;stroke-width:3;" x="200.797614" xlink:href="#m55d2b952a5" y="81.69489"/>
     <use style="fill-opacity:0;stroke:#1f77b4;stroke-width:3;" x="201.94922" xlink:href="#m55d2b952a5" y="112.310551"/>
     <use style="fill-opacity:0;stroke:#1f77b4;stroke-width:3;" x="203.189411" xlink:href="#m55d2b952a5" y="91.035261"/>
     <use style="fill-opacity:0;stroke:#1f77b4;stroke-width:3;" x="204.341017" xlink:href="#m55d2b952a5" y="93.110899"/>
     <use style="fill-opacity:0;stroke:#1f77b4;stroke-width:3;" x="205.492622" xlink:href="#m55d2b952a5" y="86.365075"/>
     <use style="fill-opacity:0;stroke:#1f77b4;stroke-width:3;" x="206.732813" xlink:href="#m55d2b952a5" y="109.197094"/>
     <use style="fill-opacity:0;stroke:#1f77b4;stroke-width:3;" x="207.884419" xlink:href="#m55d2b952a5" y="85.846166"/>
     <use style="fill-opacity:0;stroke:#1f77b4;stroke-width:3;" x="209.036025" xlink:href="#m55d2b952a5" y="116.461827"/>
     <use style="fill-opacity:0;stroke:#1f77b4;stroke-width:3;" x="210.276216" xlink:href="#m55d2b952a5" y="87.402894"/>
     <use style="fill-opacity:0;stroke:#1f77b4;stroke-width:3;" x="211.427821" xlink:href="#m55d2b952a5" y="95.186537"/>
     <use style="fill-opacity:0;stroke:#1f77b4;stroke-width:3;" x="212.579427" xlink:href="#m55d2b952a5" y="86.365075"/>
     <use style="fill-opacity:0;stroke:#1f77b4;stroke-width:3;" x="213.819618" xlink:href="#m55d2b952a5" y="99.856723"/>
     <use style="fill-opacity:0;stroke:#1f77b4;stroke-width:3;" x="214.971224" xlink:href="#m55d2b952a5" y="85.327256"/>
     <use style="fill-opacity:0;stroke:#1f77b4;stroke-width:3;" x="216.12283" xlink:href="#m55d2b952a5" y="104.526908"/>
     <use style="fill-opacity:0;stroke:#1f77b4;stroke-width:3;" x="217.36302" xlink:href="#m55d2b952a5" y="100.375632"/>
     <use style="fill-opacity:0;stroke:#1f77b4;stroke-width:3;" x="218.514626" xlink:href="#m55d2b952a5" y="92.59199"/>
     <use style="fill-opacity:0;stroke:#1f77b4;stroke-width:3;" x="219.666232" xlink:href="#m55d2b952a5" y="102.97018"/>
     <use style="fill-opacity:0;stroke:#1f77b4;stroke-width:3;" x="220.906423" xlink:href="#m55d2b952a5" y="96.224356"/>
     <use style="fill-opacity:0;stroke:#1f77b4;stroke-width:3;" x="222.058029" xlink:href="#m55d2b952a5" y="88.959623"/>
     <use style="fill-opacity:0;stroke:#1f77b4;stroke-width:3;" x="223.209634" xlink:href="#m55d2b952a5" y="89.997442"/>
     <use style="fill-opacity:0;stroke:#1f77b4;stroke-width:3;" x="224.449825" xlink:href="#m55d2b952a5" y="109.197094"/>
     <use style="fill-opacity:0;stroke:#1f77b4;stroke-width:3;" x="225.601431" xlink:href="#m55d2b952a5" y="97.262175"/>
     <use style="fill-opacity:0;stroke:#1f77b4;stroke-width:3;" x="226.753037" xlink:href="#m55d2b952a5" y="111.791642"/>
     <use style="fill-opacity:0;stroke:#1f77b4;stroke-width:3;" x="227.993228" xlink:href="#m55d2b952a5" y="118.018556"/>
     <use style="fill-opacity:0;stroke:#1f77b4;stroke-width:3;" x="229.144834" xlink:href="#m55d2b952a5" y="91.554171"/>
     <use style="fill-opacity:0;stroke:#1f77b4;stroke-width:3;" x="230.296439" xlink:href="#m55d2b952a5" y="109.716003"/>
     <use style="fill-opacity:0;stroke:#1f77b4;stroke-width:3;" x="231.53663" xlink:href="#m55d2b952a5" y="94.148718"/>
     <use style="fill-opacity:0;stroke:#1f77b4;stroke-width:3;" x="232.688236" xlink:href="#m55d2b952a5" y="95.705447"/>
     <use style="fill-opacity:0;stroke:#1f77b4;stroke-width:3;" x="233.839842" xlink:href="#m55d2b952a5" y="96.743266"/>
     <use style="fill-opacity:0;stroke:#1f77b4;stroke-width:3;" x="235.080033" xlink:href="#m55d2b952a5" y="73.911247"/>
     <use style="fill-opacity:0;stroke:#1f77b4;stroke-width:3;" x="236.231638" xlink:href="#m55d2b952a5" y="86.365075"/>
     <use style="fill-opacity:0;stroke:#1f77b4;stroke-width:3;" x="237.383244" xlink:href="#m55d2b952a5" y="107.640365"/>
     <use style="fill-opacity:0;stroke:#1f77b4;stroke-width:3;" x="238.623435" xlink:href="#m55d2b952a5" y="106.602546"/>
     <use style="fill-opacity:0;stroke:#1f77b4;stroke-width:3;" x="239.775041" xlink:href="#m55d2b952a5" y="83.251618"/>
     <use style="fill-opacity:0;stroke:#1f77b4;stroke-width:3;" x="240.926647" xlink:href="#m55d2b952a5" y="55.749414"/>
     <use style="fill-opacity:0;stroke:#1f77b4;stroke-width:3;" x="242.166837" xlink:href="#m55d2b952a5" y="109.197094"/>
     <use style="fill-opacity:0;stroke:#1f77b4;stroke-width:3;" x="243.318443" xlink:href="#m55d2b952a5" y="98.818904"/>
     <use style="fill-opacity:0;stroke:#1f77b4;stroke-width:3;" x="244.470049" xlink:href="#m55d2b952a5" y="116.980737"/>
     <use style="fill-opacity:0;stroke:#1f77b4;stroke-width:3;" x="245.71024" xlink:href="#m55d2b952a5" y="93.110899"/>
     <use style="fill-opacity:0;stroke:#1f77b4;stroke-width:3;" x="246.861846" xlink:href="#m55d2b952a5" y="108.159275"/>
     <use style="fill-opacity:0;stroke:#1f77b4;stroke-width:3;" x="248.013451" xlink:href="#m55d2b952a5" y="117.499646"/>
     <use style="fill-opacity:0;stroke:#1f77b4;stroke-width:3;" x="249.253642" xlink:href="#m55d2b952a5" y="99.856723"/>
     <use style="fill-opacity:0;stroke:#1f77b4;stroke-width:3;" x="250.405248" xlink:href="#m55d2b952a5" y="82.213799"/>
     <use style="fill-opacity:0;stroke:#1f77b4;stroke-width:3;" x="251.556854" xlink:href="#m55d2b952a5" y="82.732709"/>
     <use style="fill-opacity:0;stroke:#1f77b4;stroke-width:3;" x="252.797045" xlink:href="#m55d2b952a5" y="113.86728"/>
     <use style="fill-opacity:0;stroke:#1f77b4;stroke-width:3;" x="253.94865" xlink:href="#m55d2b952a5" y="75.467976"/>
     <use style="fill-opacity:0;stroke:#1f77b4;stroke-width:3;" x="255.100256" xlink:href="#m55d2b952a5" y="114.386189"/>
     <use style="fill-opacity:0;stroke:#1f77b4;stroke-width:3;" x="256.340447" xlink:href="#m55d2b952a5" y="109.197094"/>
     <use style="fill-opacity:0;stroke:#1f77b4;stroke-width:3;" x="257.492053" xlink:href="#m55d2b952a5" y="125.802198"/>
     <use style="fill-opacity:0;stroke:#1f77b4;stroke-width:3;" x="258.643659" xlink:href="#m55d2b952a5" y="122.688741"/>
     <use style="fill-opacity:0;stroke:#1f77b4;stroke-width:3;" x="259.88385" xlink:href="#m55d2b952a5" y="146.558579"/>
     <use style="fill-opacity:0;stroke:#1f77b4;stroke-width:3;" x="261.035455" xlink:href="#m55d2b952a5" y="135.14257"/>
     <use style="fill-opacity:0;stroke:#1f77b4;stroke-width:3;" x="262.187061" xlink:href="#m55d2b952a5" y="185.995702"/>
     <use style="fill-opacity:0;stroke:#1f77b4;stroke-width:3;" x="263.427252" xlink:href="#m55d2b952a5" y="184.957883"/>
     <use style="fill-opacity:0;stroke:#1f77b4;stroke-width:3;" x="264.578858" xlink:href="#m55d2b952a5" y="194.817164"/>
     <use style="fill-opacity:0;stroke:#1f77b4;stroke-width:3;" x="265.730464" xlink:href="#m55d2b952a5" y="273.1725"/>
     <use style="fill-opacity:0;stroke:#1f77b4;stroke-width:3;" x="266.970654" xlink:href="#m55d2b952a5" y="258.124124"/>
     <use style="fill-opacity:0;stroke:#1f77b4;stroke-width:3;" x="268.12226" xlink:href="#m55d2b952a5" y="247.745934"/>
     <use style="fill-opacity:0;stroke:#1f77b4;stroke-width:3;" x="269.273866" xlink:href="#m55d2b952a5" y="228.546282"/>
     <use style="fill-opacity:0;stroke:#1f77b4;stroke-width:3;" x="270.514057" xlink:href="#m55d2b952a5" y="236.329925"/>
     <use style="fill-opacity:0;stroke:#1f77b4;stroke-width:3;" x="271.665663" xlink:href="#m55d2b952a5" y="195.336073"/>
     <use style="fill-opacity:0;stroke:#1f77b4;stroke-width:3;" x="272.817268" xlink:href="#m55d2b952a5" y="178.730969"/>
     <use style="fill-opacity:0;stroke:#1f77b4;stroke-width:3;" x="274.057459" xlink:href="#m55d2b952a5" y="150.709855"/>
     <use style="fill-opacity:0;stroke:#1f77b4;stroke-width:3;" x="275.209065" xlink:href="#m55d2b952a5" y="105.564727"/>
     <use style="fill-opacity:0;stroke:#1f77b4;stroke-width:3;" x="276.360671" xlink:href="#m55d2b952a5" y="119.575284"/>
     <use style="fill-opacity:0;stroke:#1f77b4;stroke-width:3;" x="277.600862" xlink:href="#m55d2b952a5" y="101.932361"/>
     <use style="fill-opacity:0;stroke:#1f77b4;stroke-width:3;" x="278.752467" xlink:href="#m55d2b952a5" y="110.753823"/>
     <use style="fill-opacity:0;stroke:#1f77b4;stroke-width:3;" x="279.904073" xlink:href="#m55d2b952a5" y="80.138161"/>
     <use style="fill-opacity:0;stroke:#1f77b4;stroke-width:3;" x="281.144264" xlink:href="#m55d2b952a5" y="107.121456"/>
     <use style="fill-opacity:0;stroke:#1f77b4;stroke-width:3;" x="282.29587" xlink:href="#m55d2b952a5" y="104.526908"/>
     <use style="fill-opacity:0;stroke:#1f77b4;stroke-width:3;" x="283.447476" xlink:href="#m55d2b952a5" y="75.986885"/>
     <use style="fill-opacity:0;stroke:#1f77b4;stroke-width:3;" x="284.687666" xlink:href="#m55d2b952a5" y="97.781085"/>
     <use style="fill-opacity:0;stroke:#1f77b4;stroke-width:3;" x="285.839272" xlink:href="#m55d2b952a5" y="126.321108"/>
     <use style="fill-opacity:0;stroke:#1f77b4;stroke-width:3;" x="286.990878" xlink:href="#m55d2b952a5" y="105.045818"/>
     <use style="fill-opacity:0;stroke:#1f77b4;stroke-width:3;" x="288.231069" xlink:href="#m55d2b952a5" y="109.716003"/>
     <use style="fill-opacity:0;stroke:#1f77b4;stroke-width:3;" x="289.382675" xlink:href="#m55d2b952a5" y="88.959623"/>
     <use style="fill-opacity:0;stroke:#1f77b4;stroke-width:3;" x="290.53428" xlink:href="#m55d2b952a5" y="110.234913"/>
     <use style="fill-opacity:0;stroke:#1f77b4;stroke-width:3;" x="291.774471" xlink:href="#m55d2b952a5" y="138.256027"/>
     <use style="fill-opacity:0;stroke:#1f77b4;stroke-width:3;" x="292.926077" xlink:href="#m55d2b952a5" y="152.785493"/>
     <use style="fill-opacity:0;stroke:#1f77b4;stroke-width:3;" x="294.077683" xlink:href="#m55d2b952a5" y="162.125864"/>
     <use style="fill-opacity:0;stroke:#1f77b4;stroke-width:3;" x="295.317874" xlink:href="#m55d2b952a5" y="196.892802"/>
     <use style="fill-opacity:0;stroke:#1f77b4;stroke-width:3;" x="296.46948" xlink:href="#m55d2b952a5" y="208.82772"/>
     <use style="fill-opacity:0;stroke:#1f77b4;stroke-width:3;" x="297.621085" xlink:href="#m55d2b952a5" y="200.525168"/>
     <use style="fill-opacity:0;stroke:#1f77b4;stroke-width:3;" x="298.861276" xlink:href="#m55d2b952a5" y="142.407303"/>
     <use style="fill-opacity:0;stroke:#1f77b4;stroke-width:3;" x="300.012882" xlink:href="#m55d2b952a5" y="156.41786"/>
     <use style="fill-opacity:0;stroke:#1f77b4;stroke-width:3;" x="301.164488" xlink:href="#m55d2b952a5" y="154.861131"/>
     <use style="fill-opacity:0;stroke:#1f77b4;stroke-width:3;" x="302.404679" xlink:href="#m55d2b952a5" y="130.472384"/>
     <use style="fill-opacity:0;stroke:#1f77b4;stroke-width:3;" x="303.556284" xlink:href="#m55d2b952a5" y="104.526908"/>
     <use style="fill-opacity:0;stroke:#1f77b4;stroke-width:3;" x="304.70789" xlink:href="#m55d2b952a5" y="119.056375"/>
     <use style="fill-opacity:0;stroke:#1f77b4;stroke-width:3;" x="305.948081" xlink:href="#m55d2b952a5" y="113.86728"/>
     <use style="fill-opacity:0;stroke:#1f77b4;stroke-width:3;" x="307.099687" xlink:href="#m55d2b952a5" y="112.829461"/>
     <use style="fill-opacity:0;stroke:#1f77b4;stroke-width:3;" x="308.251293" xlink:href="#m55d2b952a5" y="103.489089"/>
     <use style="fill-opacity:0;stroke:#1f77b4;stroke-width:3;" x="309.491483" xlink:href="#m55d2b952a5" y="117.499646"/>
     <use style="fill-opacity:0;stroke:#1f77b4;stroke-width:3;" x="310.643089" xlink:href="#m55d2b952a5" y="88.959623"/>
     <use style="fill-opacity:0;stroke:#1f77b4;stroke-width:3;" x="311.794695" xlink:href="#m55d2b952a5" y="107.640365"/>
     <use style="fill-opacity:0;stroke:#1f77b4;stroke-width:3;" x="313.034886" xlink:href="#m55d2b952a5" y="118.537465"/>
     <use style="fill-opacity:0;stroke:#1f77b4;stroke-width:3;" x="314.186492" xlink:href="#m55d2b952a5" y="106.602546"/>
     <use style="fill-opacity:0;stroke:#1f77b4;stroke-width:3;" x="315.338097" xlink:href="#m55d2b952a5" y="99.337813"/>
     <use style="fill-opacity:0;stroke:#1f77b4;stroke-width:3;" x="316.578288" xlink:href="#m55d2b952a5" y="78.062523"/>
     <use style="fill-opacity:0;stroke:#1f77b4;stroke-width:3;" x="317.729894" xlink:href="#m55d2b952a5" y="94.148718"/>
     <use style="fill-opacity:0;stroke:#1f77b4;stroke-width:3;" x="318.8815" xlink:href="#m55d2b952a5" y="78.062523"/>
     <use style="fill-opacity:0;stroke:#1f77b4;stroke-width:3;" x="320.121691" xlink:href="#m55d2b952a5" y="91.554171"/>
     <use style="fill-opacity:0;stroke:#1f77b4;stroke-width:3;" x="321.273296" xlink:href="#m55d2b952a5" y="102.45127"/>
     <use style="fill-opacity:0;stroke:#1f77b4;stroke-width:3;" x="322.424902" xlink:href="#m55d2b952a5" y="108.678184"/>
     <use style="fill-opacity:0;stroke:#1f77b4;stroke-width:3;" x="323.665093" xlink:href="#m55d2b952a5" y="58.343962"/>
     <use style="fill-opacity:0;stroke:#1f77b4;stroke-width:3;" x="324.816699" xlink:href="#m55d2b952a5" y="93.629809"/>
     <use style="fill-opacity:0;stroke:#1f77b4;stroke-width:3;" x="325.968305" xlink:href="#m55d2b952a5" y="132.029113"/>
     <use style="fill-opacity:0;stroke:#1f77b4;stroke-width:3;" x="327.208496" xlink:href="#m55d2b952a5" y="79.100342"/>
     <use style="fill-opacity:0;stroke:#1f77b4;stroke-width:3;" x="328.360101" xlink:href="#m55d2b952a5" y="102.97018"/>
     <use style="fill-opacity:0;stroke:#1f77b4;stroke-width:3;" x="329.511707" xlink:href="#m55d2b952a5" y="96.743266"/>
     <use style="fill-opacity:0;stroke:#1f77b4;stroke-width:3;" x="330.751898" xlink:href="#m55d2b952a5" y="113.86728"/>
     <use style="fill-opacity:0;stroke:#1f77b4;stroke-width:3;" x="331.903504" xlink:href="#m55d2b952a5" y="106.083637"/>
     <use style="fill-opacity:0;stroke:#1f77b4;stroke-width:3;" x="333.05511" xlink:href="#m55d2b952a5" y="92.07308"/>
     <use style="fill-opacity:0;stroke:#1f77b4;stroke-width:3;" x="334.2953" xlink:href="#m55d2b952a5" y="109.197094"/>
     <use style="fill-opacity:0;stroke:#1f77b4;stroke-width:3;" x="335.446906" xlink:href="#m55d2b952a5" y="66.127604"/>
     <use style="fill-opacity:0;stroke:#1f77b4;stroke-width:3;" x="336.598512" xlink:href="#m55d2b952a5" y="88.959623"/>
     <use style="fill-opacity:0;stroke:#1f77b4;stroke-width:3;" x="337.838703" xlink:href="#m55d2b952a5" y="70.79779"/>
     <use style="fill-opacity:0;stroke:#1f77b4;stroke-width:3;" x="338.990309" xlink:href="#m55d2b952a5" y="109.197094"/>
     <use style="fill-opacity:0;stroke:#1f77b4;stroke-width:3;" x="340.141914" xlink:href="#m55d2b952a5" y="110.753823"/>
     <use style="fill-opacity:0;stroke:#1f77b4;stroke-width:3;" x="341.382105" xlink:href="#m55d2b952a5" y="103.489089"/>
     <use style="fill-opacity:0;stroke:#1f77b4;stroke-width:3;" x="342.533711" xlink:href="#m55d2b952a5" y="91.035261"/>
     <use style="fill-opacity:0;stroke:#1f77b4;stroke-width:3;" x="343.685317" xlink:href="#m55d2b952a5" y="97.262175"/>
     <use style="fill-opacity:0;stroke:#1f77b4;stroke-width:3;" x="344.925508" xlink:href="#m55d2b952a5" y="101.413451"/>
     <use style="fill-opacity:0;stroke:#1f77b4;stroke-width:3;" x="346.077113" xlink:href="#m55d2b952a5" y="81.17598"/>
     <use style="fill-opacity:0;stroke:#1f77b4;stroke-width:3;" x="347.228719" xlink:href="#m55d2b952a5" y="100.894542"/>
     <use style="fill-opacity:0;stroke:#1f77b4;stroke-width:3;" x="348.46891" xlink:href="#m55d2b952a5" y="88.959623"/>
     <use style="fill-opacity:0;stroke:#1f77b4;stroke-width:3;" x="349.620516" xlink:href="#m55d2b952a5" y="81.69489"/>
     <use style="fill-opacity:0;stroke:#1f77b4;stroke-width:3;" x="350.772122" xlink:href="#m55d2b952a5" y="79.619252"/>
     <use style="fill-opacity:0;stroke:#1f77b4;stroke-width:3;" x="352.012312" xlink:href="#m55d2b952a5" y="95.705447"/>
     <use style="fill-opacity:0;stroke:#1f77b4;stroke-width:3;" x="353.163918" xlink:href="#m55d2b952a5" y="84.808347"/>
     <use style="fill-opacity:0;stroke:#1f77b4;stroke-width:3;" x="354.315524" xlink:href="#m55d2b952a5" y="116.980737"/>
     <use style="fill-opacity:0;stroke:#1f77b4;stroke-width:3;" x="355.555715" xlink:href="#m55d2b952a5" y="67.684333"/>
     <use style="fill-opacity:0;stroke:#1f77b4;stroke-width:3;" x="356.707321" xlink:href="#m55d2b952a5" y="118.537465"/>
     <use style="fill-opacity:0;stroke:#1f77b4;stroke-width:3;" x="357.858926" xlink:href="#m55d2b952a5" y="122.688741"/>
     <use style="fill-opacity:0;stroke:#1f77b4;stroke-width:3;" x="359.099117" xlink:href="#m55d2b952a5" y="69.759971"/>
     <use style="fill-opacity:0;stroke:#1f77b4;stroke-width:3;" x="360.250723" xlink:href="#m55d2b952a5" y="77.543614"/>
     <use style="fill-opacity:0;stroke:#1f77b4;stroke-width:3;" x="361.402329" xlink:href="#m55d2b952a5" y="90.516352"/>
     <use style="fill-opacity:0;stroke:#1f77b4;stroke-width:3;" x="362.64252" xlink:href="#m55d2b952a5" y="104.007999"/>
     <use style="fill-opacity:0;stroke:#1f77b4;stroke-width:3;" x="363.794126" xlink:href="#m55d2b952a5" y="96.743266"/>
     <use style="fill-opacity:0;stroke:#1f77b4;stroke-width:3;" x="364.945731" xlink:href="#m55d2b952a5" y="101.932361"/>
     <use style="fill-opacity:0;stroke:#1f77b4;stroke-width:3;" x="366.185922" xlink:href="#m55d2b952a5" y="85.846166"/>
     <use style="fill-opacity:0;stroke:#1f77b4;stroke-width:3;" x="367.337528" xlink:href="#m55d2b952a5" y="136.180389"/>
     <use style="fill-opacity:0;stroke:#1f77b4;stroke-width:3;" x="368.489134" xlink:href="#m55d2b952a5" y="115.424008"/>
     <use style="fill-opacity:0;stroke:#1f77b4;stroke-width:3;" x="369.729325" xlink:href="#m55d2b952a5" y="118.537465"/>
     <use style="fill-opacity:0;stroke:#1f77b4;stroke-width:3;" x="370.88093" xlink:href="#m55d2b952a5" y="171.985145"/>
     <use style="fill-opacity:0;stroke:#1f77b4;stroke-width:3;" x="372.032536" xlink:href="#m55d2b952a5" y="122.688741"/>
     <use style="fill-opacity:0;stroke:#1f77b4;stroke-width:3;" x="373.272727" xlink:href="#m55d2b952a5" y="166.79605"/>
     <use style="fill-opacity:0;stroke:#1f77b4;stroke-width:3;" x="374.424333" xlink:href="#m55d2b952a5" y="190.146978"/>
     <use style="fill-opacity:0;stroke:#1f77b4;stroke-width:3;" x="375.575939" xlink:href="#m55d2b952a5" y="223.876096"/>
     <use style="fill-opacity:0;stroke:#1f77b4;stroke-width:3;" x="376.816129" xlink:href="#m55d2b952a5" y="222.838277"/>
     <use style="fill-opacity:0;stroke:#1f77b4;stroke-width:3;" x="377.967735" xlink:href="#m55d2b952a5" y="242.037929"/>
     <use style="fill-opacity:0;stroke:#1f77b4;stroke-width:3;" x="379.119341" xlink:href="#m55d2b952a5" y="252.935029"/>
     <use style="fill-opacity:0;stroke:#1f77b4;stroke-width:3;" x="380.359532" xlink:href="#m55d2b952a5" y="214.535725"/>
     <use style="fill-opacity:0;stroke:#1f77b4;stroke-width:3;" x="381.511138" xlink:href="#m55d2b952a5" y="212.978997"/>
     <use style="fill-opacity:0;stroke:#1f77b4;stroke-width:3;" x="382.662743" xlink:href="#m55d2b952a5" y="171.466235"/>
     <use style="fill-opacity:0;stroke:#1f77b4;stroke-width:3;" x="383.902934" xlink:href="#m55d2b952a5" y="137.737117"/>
     <use style="fill-opacity:0;stroke:#1f77b4;stroke-width:3;" x="385.05454" xlink:href="#m55d2b952a5" y="138.256027"/>
     <use style="fill-opacity:0;stroke:#1f77b4;stroke-width:3;" x="386.206146" xlink:href="#m55d2b952a5" y="109.197094"/>
     <use style="fill-opacity:0;stroke:#1f77b4;stroke-width:3;" x="387.446337" xlink:href="#m55d2b952a5" y="94.148718"/>
     <use style="fill-opacity:0;stroke:#1f77b4;stroke-width:3;" x="388.597942" xlink:href="#m55d2b952a5" y="122.169832"/>
     <use style="fill-opacity:0;stroke:#1f77b4;stroke-width:3;" x="389.749548" xlink:href="#m55d2b952a5" y="91.035261"/>
     <use style="fill-opacity:0;stroke:#1f77b4;stroke-width:3;" x="390.989739" xlink:href="#m55d2b952a5" y="134.104751"/>
     <use style="fill-opacity:0;stroke:#1f77b4;stroke-width:3;" x="392.141345" xlink:href="#m55d2b952a5" y="102.45127"/>
     <use style="fill-opacity:0;stroke:#1f77b4;stroke-width:3;" x="393.292951" xlink:href="#m55d2b952a5" y="106.083637"/>
     <use style="fill-opacity:0;stroke:#1f77b4;stroke-width:3;" x="394.533142" xlink:href="#m55d2b952a5" y="92.07308"/>
     <use style="fill-opacity:0;stroke:#1f77b4;stroke-width:3;" x="395.684747" xlink:href="#m55d2b952a5" y="89.478532"/>
     <use style="fill-opacity:0;stroke:#1f77b4;stroke-width:3;" x="396.836353" xlink:href="#m55d2b952a5" y="107.640365"/>
     <use style="fill-opacity:0;stroke:#1f77b4;stroke-width:3;" x="398.076544" xlink:href="#m55d2b952a5" y="99.856723"/>
     <use style="fill-opacity:0;stroke:#1f77b4;stroke-width:3;" x="399.22815" xlink:href="#m55d2b952a5" y="95.705447"/>
     <use style="fill-opacity:0;stroke:#1f77b4;stroke-width:3;" x="400.379756" xlink:href="#m55d2b952a5" y="66.127604"/>
     <use style="fill-opacity:0;stroke:#1f77b4;stroke-width:3;" x="401.619946" xlink:href="#m55d2b952a5" y="105.564727"/>
     <use style="fill-opacity:0;stroke:#1f77b4;stroke-width:3;" x="402.771552" xlink:href="#m55d2b952a5" y="91.554171"/>
     <use style="fill-opacity:0;stroke:#1f77b4;stroke-width:3;" x="403.923158" xlink:href="#m55d2b952a5" y="132.548022"/>
     <use style="fill-opacity:0;stroke:#1f77b4;stroke-width:3;" x="405.163349" xlink:href="#m55d2b952a5" y="91.035261"/>
     <use style="fill-opacity:0;stroke:#1f77b4;stroke-width:3;" x="406.314955" xlink:href="#m55d2b952a5" y="100.375632"/>
     <use style="fill-opacity:0;stroke:#1f77b4;stroke-width:3;" x="407.46656" xlink:href="#m55d2b952a5" y="100.375632"/>
     <use style="fill-opacity:0;stroke:#1f77b4;stroke-width:3;" x="408.706751" xlink:href="#m55d2b952a5" y="112.829461"/>
     <use style="fill-opacity:0;stroke:#1f77b4;stroke-width:3;" x="409.858357" xlink:href="#m55d2b952a5" y="94.667628"/>
     <use style="fill-opacity:0;stroke:#1f77b4;stroke-width:3;" x="411.009963" xlink:href="#m55d2b952a5" y="85.846166"/>
     <use style="fill-opacity:0;stroke:#1f77b4;stroke-width:3;" x="412.250154" xlink:href="#m55d2b952a5" y="75.467976"/>
     <use style="fill-opacity:0;stroke:#1f77b4;stroke-width:3;" x="413.401759" xlink:href="#m55d2b952a5" y="107.640365"/>
     <use style="fill-opacity:0;stroke:#1f77b4;stroke-width:3;" x="414.553365" xlink:href="#m55d2b952a5" y="76.505795"/>
     <use style="fill-opacity:0;stroke:#1f77b4;stroke-width:3;" x="415.793556" xlink:href="#m55d2b952a5" y="67.165423"/>
     <use style="fill-opacity:0;stroke:#1f77b4;stroke-width:3;" x="416.945162" xlink:href="#m55d2b952a5" y="82.732709"/>
     <use style="fill-opacity:0;stroke:#1f77b4;stroke-width:3;" x="418.096768" xlink:href="#m55d2b952a5" y="106.083637"/>
     <use style="fill-opacity:0;stroke:#1f77b4;stroke-width:3;" x="419.336958" xlink:href="#m55d2b952a5" y="93.629809"/>
     <use style="fill-opacity:0;stroke:#1f77b4;stroke-width:3;" x="420.488564" xlink:href="#m55d2b952a5" y="91.035261"/>
     <use style="fill-opacity:0;stroke:#1f77b4;stroke-width:3;" x="421.64017" xlink:href="#m55d2b952a5" y="70.278881"/>
     <use style="fill-opacity:0;stroke:#1f77b4;stroke-width:3;" x="422.880361" xlink:href="#m55d2b952a5" y="87.921804"/>
     <use style="fill-opacity:0;stroke:#1f77b4;stroke-width:3;" x="424.031967" xlink:href="#m55d2b952a5" y="71.835609"/>
     <use style="fill-opacity:0;stroke:#1f77b4;stroke-width:3;" x="425.183572" xlink:href="#m55d2b952a5" y="104.007999"/>
     <use style="fill-opacity:0;stroke:#1f77b4;stroke-width:3;" x="426.423763" xlink:href="#m55d2b952a5" y="105.045818"/>
     <use style="fill-opacity:0;stroke:#1f77b4;stroke-width:3;" x="427.575369" xlink:href="#m55d2b952a5" y="85.327256"/>
     <use style="fill-opacity:0;stroke:#1f77b4;stroke-width:3;" x="428.726975" xlink:href="#m55d2b952a5" y="119.056375"/>
     <use style="fill-opacity:0;stroke:#1f77b4;stroke-width:3;" x="429.967166" xlink:href="#m55d2b952a5" y="101.413451"/>
     <use style="fill-opacity:0;stroke:#1f77b4;stroke-width:3;" x="431.118772" xlink:href="#m55d2b952a5" y="77.543614"/>
     <use style="fill-opacity:0;stroke:#1f77b4;stroke-width:3;" x="432.270377" xlink:href="#m55d2b952a5" y="88.959623"/>
     <use style="fill-opacity:0;stroke:#1f77b4;stroke-width:3;" x="433.510568" xlink:href="#m55d2b952a5" y="80.657071"/>
    </g>
   </g>
   <g id="line2d_12">
    <path clip-path="url(#p5a9c979863)" d="M 80.321932 95.174761 
L 161.820188 95.224835 
L 162.971793 95.337536 
L 164.211984 95.696382 
L 165.36359 96.570037 
L 166.515196 98.572546 
L 167.755387 103.15235 
L 168.906992 111.160527 
L 170.058598 124.337362 
L 171.298789 145.340749 
L 172.450395 170.480493 
L 173.602001 198.089524 
L 174.842191 224.883172 
L 175.993797 241.037257 
L 177.145403 244.50581 
L 178.385594 233.069576 
L 179.5372 211.341092 
L 181.928996 155.451362 
L 183.080602 133.214535 
L 184.232208 117.030126 
L 185.472399 106.008306 
L 186.624004 100.29649 
L 187.77561 97.379178 
L 189.015801 95.975358 
L 190.167407 95.458303 
L 191.319013 95.266183 
L 194.862415 95.17632 
L 249.253642 95.209782 
L 251.556854 95.43228 
L 252.797045 95.849182 
L 253.94865 96.712274 
L 255.100256 98.451658 
L 256.340447 102.040431 
L 257.492053 107.89779 
L 258.643659 117.216947 
L 259.88385 132.121262 
L 261.035455 150.829347 
L 262.187061 173.551124 
L 264.578858 223.866267 
L 265.730464 242.492158 
L 266.970654 253.21571 
L 268.12226 252.477863 
L 269.273866 241.54792 
L 270.514057 220.799597 
L 274.057459 147.960897 
L 275.209065 129.890594 
L 276.360671 116.519565 
L 277.600862 106.899621 
L 278.752467 101.443429 
L 279.904073 98.310279 
L 281.144264 96.563989 
L 282.29587 95.818102 
L 283.447476 95.564458 
L 284.687666 95.728074 
L 285.839272 96.445784 
L 286.990878 98.168099 
L 288.231069 102.053982 
L 289.382675 108.661263 
L 290.53428 119.151323 
L 291.774471 135.102414 
L 294.077683 171.300353 
L 295.317874 186.766451 
L 296.46948 193.395655 
L 297.621085 190.663059 
L 298.861276 178.18099 
L 302.404679 124.893961 
L 303.556284 112.60172 
L 304.70789 104.438889 
L 305.948081 99.378496 
L 307.099687 96.997558 
L 308.251293 95.8913 
L 309.491483 95.409674 
L 311.794695 95.196657 
L 321.273296 95.174762 
L 361.402329 95.271641 
L 362.64252 95.4516 
L 363.794126 95.857092 
L 364.945731 96.742532 
L 366.185922 98.725116 
L 367.337528 102.225756 
L 368.489134 108.228866 
L 369.729325 118.602543 
L 370.88093 132.665085 
L 372.032536 151.102242 
L 375.575939 218.461644 
L 376.816129 234.134941 
L 377.967735 239.551469 
L 379.119341 235.011713 
L 380.359532 220.082732 
L 381.511138 199.744565 
L 383.902934 152.944898 
L 385.05454 134.144627 
L 386.206146 119.680764 
L 387.446337 108.922463 
L 388.597942 102.647245 
L 389.749548 98.961087 
L 390.989739 96.858095 
L 392.141345 95.912011 
L 393.292951 95.475769 
L 395.684747 95.212188 
L 401.619946 95.174819 
L 433.510568 95.174761 
L 433.510568 95.174761 
" style="fill:none;stroke:#ff7f0e;stroke-linecap:square;stroke-width:4;"/>
   </g>
   <g id="patch_3">
    <path d="M 62.6625 284.355 
L 62.6625 38.34 
" style="fill:none;stroke:#000000;stroke-linecap:square;stroke-linejoin:miter;stroke-width:0.8;"/>
   </g>
   <g id="patch_4">
    <path d="M 451.17 284.355 
L 451.17 38.34 
" style="fill:none;stroke:#000000;stroke-linecap:square;stroke-linejoin:miter;stroke-width:0.8;"/>
   </g>
   <g id="patch_5">
    <path d="M 62.6625 284.355 
L 451.17 284.355 
" style="fill:none;stroke:#000000;stroke-linecap:square;stroke-linejoin:miter;stroke-width:0.8;"/>
   </g>
   <g id="patch_6">
    <path d="M 62.6625 38.34 
L 451.17 38.34 
" style="fill:none;stroke:#000000;stroke-linecap:square;stroke-linejoin:miter;stroke-width:0.8;"/>
   </g>
  </g>
 </g>
 <defs>
  <clipPath id="p5a9c979863">
   <rect height="246.015" width="388.5075" x="62.6625" y="38.34"/>
  </clipPath>
 </defs>
</svg>
