<?xml version="1.0" encoding="utf-8" standalone="no"?>
<!DOCTYPE svg PUBLIC "-//W3C//DTD SVG 1.1//EN"
  "http://www.w3.org/Graphics/SVG/1.1/DTD/svg11.dtd">
<!-- Created with matplotlib (http://matplotlib.org/) -->
<svg height="268.2pt" version="1.1" viewBox="0 0 711 268.2" width="711pt" xmlns="http://www.w3.org/2000/svg" xmlns:xlink="http://www.w3.org/1999/xlink">
 <defs>
  <style type="text/css">
*{stroke-linecap:butt;stroke-linejoin:round;}
  </style>
 </defs>
 <g id="figure_1">
  <g id="patch_1">
   <path d="M 0 268.2 
L 711 268.2 
L 711 0 
L 0 0 
z
" style="fill:#ffffff;"/>
  </g>
  <g id="axes_1">
   <g id="patch_2">
    <path d="M 88.875 238.698 
L 639.9 238.698 
L 639.9 32.184 
L 88.875 32.184 
z
" style="fill:#ffffff;"/>
   </g>
   <g id="PathCollection_1">
    <path clip-path="url(#p2dd1d58e9f)" d="M 300.130738 137.446999 
C 301.316762 137.446999 302.45437 136.975787 303.293015 136.137141 
C 304.131661 135.298495 304.602874 134.160887 304.602874 132.974863 
C 304.602874 131.788839 304.131661 130.651231 303.293015 129.812585 
C 302.45437 128.97394 301.316762 128.502727 300.130738 128.502727 
C 298.944714 128.502727 297.807106 128.97394 296.96846 129.812585 
C 296.129814 130.651231 295.658602 131.788839 295.658602 132.974863 
C 295.658602 134.160887 296.129814 135.298495 296.96846 136.137141 
C 297.807106 136.975787 298.944714 137.446999 300.130738 137.446999 
z
" style="fill:none;stroke:#9467bd;stroke-width:2;"/>
   </g>
   <g id="PathCollection_2">
    <path clip-path="url(#p2dd1d58e9f)" d="M 534.675844 152.633066 
C 535.861869 152.633066 536.999476 152.161854 537.838122 151.323208 
C 538.676768 150.484562 539.14798 149.346955 539.14798 148.16093 
C 539.14798 146.974906 538.676768 145.837299 537.838122 144.998653 
C 536.999476 144.160007 535.861869 143.688795 534.675844 143.688795 
C 533.48982 143.688795 532.352212 144.160007 531.513567 144.998653 
C 530.674921 145.837299 530.203708 146.974906 530.203708 148.16093 
C 530.203708 149.346955 530.674921 150.484562 531.513567 151.323208 
C 532.352212 152.161854 533.48982 152.633066 534.675844 152.633066 
z
" style="fill:none;stroke:#9467bd;stroke-width:2;"/>
   </g>
   <g id="matplotlib.axis_1">
    <g id="xtick_1">
     <g id="line2d_1">
      <defs>
       <path d="M 0 0 
L 0 3.5 
" id="m4e57198548" style="stroke:#000000;stroke-width:0.8;"/>
      </defs>
      <g>
       <use style="stroke:#000000;stroke-width:0.8;" x="113.921591" xlink:href="#m4e57198548" y="238.698"/>
      </g>
     </g>
     <g id="text_1">
      <!-- 0 -->
      <defs>
       <path d="M 31.78125 66.40625 
Q 24.171875 66.40625 20.328125 58.90625 
Q 16.5 51.421875 16.5 36.375 
Q 16.5 21.390625 20.328125 13.890625 
Q 24.171875 6.390625 31.78125 6.390625 
Q 39.453125 6.390625 43.28125 13.890625 
Q 47.125 21.390625 47.125 36.375 
Q 47.125 51.421875 43.28125 58.90625 
Q 39.453125 66.40625 31.78125 66.40625 
z
M 31.78125 74.21875 
Q 44.046875 74.21875 50.515625 64.515625 
Q 56.984375 54.828125 56.984375 36.375 
Q 56.984375 17.96875 50.515625 8.265625 
Q 44.046875 -1.421875 31.78125 -1.421875 
Q 19.53125 -1.421875 13.0625 8.265625 
Q 6.59375 17.96875 6.59375 36.375 
Q 6.59375 54.828125 13.0625 64.515625 
Q 19.53125 74.21875 31.78125 74.21875 
z
" id="DejaVuSans-30"/>
      </defs>
      <g transform="translate(107.559091 260.894875)scale(0.2 -0.2)">
       <use xlink:href="#DejaVuSans-30"/>
      </g>
     </g>
    </g>
    <g id="xtick_2">
     <g id="line2d_2">
      <g>
       <use style="stroke:#000000;stroke-width:0.8;" x="182.619132" xlink:href="#m4e57198548" y="238.698"/>
      </g>
     </g>
     <g id="text_2">
      <!-- 20 -->
      <defs>
       <path d="M 19.1875 8.296875 
L 53.609375 8.296875 
L 53.609375 0 
L 7.328125 0 
L 7.328125 8.296875 
Q 12.9375 14.109375 22.625 23.890625 
Q 32.328125 33.6875 34.8125 36.53125 
Q 39.546875 41.84375 41.421875 45.53125 
Q 43.3125 49.21875 43.3125 52.78125 
Q 43.3125 58.59375 39.234375 62.25 
Q 35.15625 65.921875 28.609375 65.921875 
Q 23.96875 65.921875 18.8125 64.3125 
Q 13.671875 62.703125 7.8125 59.421875 
L 7.8125 69.390625 
Q 13.765625 71.78125 18.9375 73 
Q 24.125 74.21875 28.421875 74.21875 
Q 39.75 74.21875 46.484375 68.546875 
Q 53.21875 62.890625 53.21875 53.421875 
Q 53.21875 48.921875 51.53125 44.890625 
Q 49.859375 40.875 45.40625 35.40625 
Q 44.1875 33.984375 37.640625 27.21875 
Q 31.109375 20.453125 19.1875 8.296875 
z
" id="DejaVuSans-32"/>
      </defs>
      <g transform="translate(169.894132 260.894875)scale(0.2 -0.2)">
       <use xlink:href="#DejaVuSans-32"/>
       <use x="63.623047" xlink:href="#DejaVuSans-30"/>
      </g>
     </g>
    </g>
    <g id="xtick_3">
     <g id="line2d_3">
      <g>
       <use style="stroke:#000000;stroke-width:0.8;" x="251.316672" xlink:href="#m4e57198548" y="238.698"/>
      </g>
     </g>
     <g id="text_3">
      <!-- 40 -->
      <defs>
       <path d="M 37.796875 64.3125 
L 12.890625 25.390625 
L 37.796875 25.390625 
z
M 35.203125 72.90625 
L 47.609375 72.90625 
L 47.609375 25.390625 
L 58.015625 25.390625 
L 58.015625 17.1875 
L 47.609375 17.1875 
L 47.609375 0 
L 37.796875 0 
L 37.796875 17.1875 
L 4.890625 17.1875 
L 4.890625 26.703125 
z
" id="DejaVuSans-34"/>
      </defs>
      <g transform="translate(238.591672 260.894875)scale(0.2 -0.2)">
       <use xlink:href="#DejaVuSans-34"/>
       <use x="63.623047" xlink:href="#DejaVuSans-30"/>
      </g>
     </g>
    </g>
    <g id="xtick_4">
     <g id="line2d_4">
      <g>
       <use style="stroke:#000000;stroke-width:0.8;" x="320.014213" xlink:href="#m4e57198548" y="238.698"/>
      </g>
     </g>
     <g id="text_4">
      <!-- 60 -->
      <defs>
       <path d="M 33.015625 40.375 
Q 26.375 40.375 22.484375 35.828125 
Q 18.609375 31.296875 18.609375 23.390625 
Q 18.609375 15.53125 22.484375 10.953125 
Q 26.375 6.390625 33.015625 6.390625 
Q 39.65625 6.390625 43.53125 10.953125 
Q 47.40625 15.53125 47.40625 23.390625 
Q 47.40625 31.296875 43.53125 35.828125 
Q 39.65625 40.375 33.015625 40.375 
z
M 52.59375 71.296875 
L 52.59375 62.3125 
Q 48.875 64.0625 45.09375 64.984375 
Q 41.3125 65.921875 37.59375 65.921875 
Q 27.828125 65.921875 22.671875 59.328125 
Q 17.53125 52.734375 16.796875 39.40625 
Q 19.671875 43.65625 24.015625 45.921875 
Q 28.375 48.1875 33.59375 48.1875 
Q 44.578125 48.1875 50.953125 41.515625 
Q 57.328125 34.859375 57.328125 23.390625 
Q 57.328125 12.15625 50.6875 5.359375 
Q 44.046875 -1.421875 33.015625 -1.421875 
Q 20.359375 -1.421875 13.671875 8.265625 
Q 6.984375 17.96875 6.984375 36.375 
Q 6.984375 53.65625 15.1875 63.9375 
Q 23.390625 74.21875 37.203125 74.21875 
Q 40.921875 74.21875 44.703125 73.484375 
Q 48.484375 72.75 52.59375 71.296875 
z
" id="DejaVuSans-36"/>
      </defs>
      <g transform="translate(307.289213 260.894875)scale(0.2 -0.2)">
       <use xlink:href="#DejaVuSans-36"/>
       <use x="63.623047" xlink:href="#DejaVuSans-30"/>
      </g>
     </g>
    </g>
    <g id="xtick_5">
     <g id="line2d_5">
      <g>
       <use style="stroke:#000000;stroke-width:0.8;" x="388.711753" xlink:href="#m4e57198548" y="238.698"/>
      </g>
     </g>
     <g id="text_5">
      <!-- 80 -->
      <defs>
       <path d="M 31.78125 34.625 
Q 24.75 34.625 20.71875 30.859375 
Q 16.703125 27.09375 16.703125 20.515625 
Q 16.703125 13.921875 20.71875 10.15625 
Q 24.75 6.390625 31.78125 6.390625 
Q 38.8125 6.390625 42.859375 10.171875 
Q 46.921875 13.96875 46.921875 20.515625 
Q 46.921875 27.09375 42.890625 30.859375 
Q 38.875 34.625 31.78125 34.625 
z
M 21.921875 38.8125 
Q 15.578125 40.375 12.03125 44.71875 
Q 8.5 49.078125 8.5 55.328125 
Q 8.5 64.0625 14.71875 69.140625 
Q 20.953125 74.21875 31.78125 74.21875 
Q 42.671875 74.21875 48.875 69.140625 
Q 55.078125 64.0625 55.078125 55.328125 
Q 55.078125 49.078125 51.53125 44.71875 
Q 48 40.375 41.703125 38.8125 
Q 48.828125 37.15625 52.796875 32.3125 
Q 56.78125 27.484375 56.78125 20.515625 
Q 56.78125 9.90625 50.3125 4.234375 
Q 43.84375 -1.421875 31.78125 -1.421875 
Q 19.734375 -1.421875 13.25 4.234375 
Q 6.78125 9.90625 6.78125 20.515625 
Q 6.78125 27.484375 10.78125 32.3125 
Q 14.796875 37.15625 21.921875 38.8125 
z
M 18.3125 54.390625 
Q 18.3125 48.734375 21.84375 45.5625 
Q 25.390625 42.390625 31.78125 42.390625 
Q 38.140625 42.390625 41.71875 45.5625 
Q 45.3125 48.734375 45.3125 54.390625 
Q 45.3125 60.0625 41.71875 63.234375 
Q 38.140625 66.40625 31.78125 66.40625 
Q 25.390625 66.40625 21.84375 63.234375 
Q 18.3125 60.0625 18.3125 54.390625 
z
" id="DejaVuSans-38"/>
      </defs>
      <g transform="translate(375.986753 260.894875)scale(0.2 -0.2)">
       <use xlink:href="#DejaVuSans-38"/>
       <use x="63.623047" xlink:href="#DejaVuSans-30"/>
      </g>
     </g>
    </g>
    <g id="xtick_6">
     <g id="line2d_6">
      <g>
       <use style="stroke:#000000;stroke-width:0.8;" x="457.409294" xlink:href="#m4e57198548" y="238.698"/>
      </g>
     </g>
     <g id="text_6">
      <!-- 100 -->
      <defs>
       <path d="M 12.40625 8.296875 
L 28.515625 8.296875 
L 28.515625 63.921875 
L 10.984375 60.40625 
L 10.984375 69.390625 
L 28.421875 72.90625 
L 38.28125 72.90625 
L 38.28125 8.296875 
L 54.390625 8.296875 
L 54.390625 0 
L 12.40625 0 
z
" id="DejaVuSans-31"/>
      </defs>
      <g transform="translate(438.321794 260.894875)scale(0.2 -0.2)">
       <use xlink:href="#DejaVuSans-31"/>
       <use x="63.623047" xlink:href="#DejaVuSans-30"/>
       <use x="127.246094" xlink:href="#DejaVuSans-30"/>
      </g>
     </g>
    </g>
    <g id="xtick_7">
     <g id="line2d_7">
      <g>
       <use style="stroke:#000000;stroke-width:0.8;" x="526.106835" xlink:href="#m4e57198548" y="238.698"/>
      </g>
     </g>
     <g id="text_7">
      <!-- 120 -->
      <g transform="translate(507.019335 260.894875)scale(0.2 -0.2)">
       <use xlink:href="#DejaVuSans-31"/>
       <use x="63.623047" xlink:href="#DejaVuSans-32"/>
       <use x="127.246094" xlink:href="#DejaVuSans-30"/>
      </g>
     </g>
    </g>
    <g id="xtick_8">
     <g id="line2d_8">
      <g>
       <use style="stroke:#000000;stroke-width:0.8;" x="594.804375" xlink:href="#m4e57198548" y="238.698"/>
      </g>
     </g>
     <g id="text_8">
      <!-- 140 -->
      <g transform="translate(575.716875 260.894875)scale(0.2 -0.2)">
       <use xlink:href="#DejaVuSans-31"/>
       <use x="63.623047" xlink:href="#DejaVuSans-34"/>
       <use x="127.246094" xlink:href="#DejaVuSans-30"/>
      </g>
     </g>
    </g>
   </g>
   <g id="matplotlib.axis_2">
    <g id="ytick_1">
     <g id="line2d_9">
      <defs>
       <path d="M 0 0 
L -3.5 0 
" id="mcb92dc2e7f" style="stroke:#000000;stroke-width:0.8;"/>
      </defs>
      <g>
       <use style="stroke:#000000;stroke-width:0.8;" x="88.875" xlink:href="#mcb92dc2e7f" y="209.638837"/>
      </g>
     </g>
     <g id="text_9">
      <!-- 2400 -->
      <g transform="translate(30.975 217.237274)scale(0.2 -0.2)">
       <use xlink:href="#DejaVuSans-32"/>
       <use x="63.623047" xlink:href="#DejaVuSans-34"/>
       <use x="127.246094" xlink:href="#DejaVuSans-30"/>
       <use x="190.869141" xlink:href="#DejaVuSans-30"/>
      </g>
     </g>
    </g>
    <g id="ytick_2">
     <g id="line2d_10">
      <g>
       <use style="stroke:#000000;stroke-width:0.8;" x="88.875" xlink:href="#mcb92dc2e7f" y="170.351523"/>
      </g>
     </g>
     <g id="text_10">
      <!-- 2600 -->
      <g transform="translate(30.975 177.94996)scale(0.2 -0.2)">
       <use xlink:href="#DejaVuSans-32"/>
       <use x="63.623047" xlink:href="#DejaVuSans-36"/>
       <use x="127.246094" xlink:href="#DejaVuSans-30"/>
       <use x="190.869141" xlink:href="#DejaVuSans-30"/>
      </g>
     </g>
    </g>
    <g id="ytick_3">
     <g id="line2d_11">
      <g>
       <use style="stroke:#000000;stroke-width:0.8;" x="88.875" xlink:href="#mcb92dc2e7f" y="131.064209"/>
      </g>
     </g>
     <g id="text_11">
      <!-- 2800 -->
      <g transform="translate(30.975 138.662646)scale(0.2 -0.2)">
       <use xlink:href="#DejaVuSans-32"/>
       <use x="63.623047" xlink:href="#DejaVuSans-38"/>
       <use x="127.246094" xlink:href="#DejaVuSans-30"/>
       <use x="190.869141" xlink:href="#DejaVuSans-30"/>
      </g>
     </g>
    </g>
    <g id="ytick_4">
     <g id="line2d_12">
      <g>
       <use style="stroke:#000000;stroke-width:0.8;" x="88.875" xlink:href="#mcb92dc2e7f" y="91.776895"/>
      </g>
     </g>
     <g id="text_12">
      <!-- 3000 -->
      <defs>
       <path d="M 40.578125 39.3125 
Q 47.65625 37.796875 51.625 33 
Q 55.609375 28.21875 55.609375 21.1875 
Q 55.609375 10.40625 48.1875 4.484375 
Q 40.765625 -1.421875 27.09375 -1.421875 
Q 22.515625 -1.421875 17.65625 -0.515625 
Q 12.796875 0.390625 7.625 2.203125 
L 7.625 11.71875 
Q 11.71875 9.328125 16.59375 8.109375 
Q 21.484375 6.890625 26.8125 6.890625 
Q 36.078125 6.890625 40.9375 10.546875 
Q 45.796875 14.203125 45.796875 21.1875 
Q 45.796875 27.640625 41.28125 31.265625 
Q 36.765625 34.90625 28.71875 34.90625 
L 20.21875 34.90625 
L 20.21875 43.015625 
L 29.109375 43.015625 
Q 36.375 43.015625 40.234375 45.921875 
Q 44.09375 48.828125 44.09375 54.296875 
Q 44.09375 59.90625 40.109375 62.90625 
Q 36.140625 65.921875 28.71875 65.921875 
Q 24.65625 65.921875 20.015625 65.03125 
Q 15.375 64.15625 9.8125 62.3125 
L 9.8125 71.09375 
Q 15.4375 72.65625 20.34375 73.4375 
Q 25.25 74.21875 29.59375 74.21875 
Q 40.828125 74.21875 47.359375 69.109375 
Q 53.90625 64.015625 53.90625 55.328125 
Q 53.90625 49.265625 50.4375 45.09375 
Q 46.96875 40.921875 40.578125 39.3125 
z
" id="DejaVuSans-33"/>
      </defs>
      <g transform="translate(30.975 99.375332)scale(0.2 -0.2)">
       <use xlink:href="#DejaVuSans-33"/>
       <use x="63.623047" xlink:href="#DejaVuSans-30"/>
       <use x="127.246094" xlink:href="#DejaVuSans-30"/>
       <use x="190.869141" xlink:href="#DejaVuSans-30"/>
      </g>
     </g>
    </g>
    <g id="ytick_5">
     <g id="line2d_13">
      <g>
       <use style="stroke:#000000;stroke-width:0.8;" x="88.875" xlink:href="#mcb92dc2e7f" y="52.489581"/>
      </g>
     </g>
     <g id="text_13">
      <!-- 3200 -->
      <g transform="translate(30.975 60.088018)scale(0.2 -0.2)">
       <use xlink:href="#DejaVuSans-33"/>
       <use x="63.623047" xlink:href="#DejaVuSans-32"/>
       <use x="127.246094" xlink:href="#DejaVuSans-30"/>
       <use x="190.869141" xlink:href="#DejaVuSans-30"/>
      </g>
     </g>
    </g>
   </g>
   <g id="line2d_14">
    <path clip-path="url(#p2dd1d58e9f)" d="M 113.921591 116.724339 
L 118.981508 116.559776 
L 124.041426 116.202458 
L 129.101343 115.779748 
L 134.16126 115.331414 
L 139.221178 114.870168 
L 144.281095 114.400995 
L 149.341012 113.9262 
L 154.40093 113.446984 
L 159.460847 112.964033 
L 164.520764 112.477765 
L 169.580682 111.98845 
L 174.640599 111.496269 
L 179.700517 111.001349 
L 184.760434 110.503783 
L 189.820351 110.003637 
L 194.880269 109.500963 
L 199.940186 108.9958 
L 205.000103 108.48818 
L 210.060021 107.978127 
L 215.119938 107.465662 
L 220.179855 106.950801 
L 225.239773 106.433559 
L 230.29969 105.913946 
L 235.359607 105.391973 
L 240.419525 104.867649 
L 245.479442 104.340981 
L 250.53936 103.811976 
L 255.599277 103.28064 
L 260.659194 102.746979 
L 265.719112 102.210996 
L 270.779029 101.672697 
L 275.838946 101.132086 
L 280.898864 100.589166 
L 285.958781 100.043941 
L 291.018698 99.496414 
L 296.078616 98.946589 
L 301.138533 98.394469 
L 306.19845 97.840056 
L 311.258368 97.283353 
L 316.318285 96.724363 
L 321.378202 96.163088 
L 326.43812 95.599532 
L 331.498037 95.033696 
L 336.557955 94.465582 
L 341.617872 93.895194 
L 346.677789 93.322534 
L 351.737707 92.747603 
L 356.797624 92.170405 
L 361.857541 91.590941 
L 366.917459 91.009214 
L 371.977376 90.425225 
L 377.037293 89.838978 
L 382.097211 89.250474 
L 387.157128 88.659715 
L 392.217045 88.066704 
L 397.276963 87.471443 
L 402.33688 86.873934 
L 407.396798 86.274178 
L 412.456715 85.67218 
L 417.516632 85.06794 
L 422.57655 84.46146 
L 427.636467 83.852744 
L 432.696384 83.241792 
L 437.756302 82.628608 
L 442.816219 82.013194 
L 447.876136 81.395551 
L 452.936054 80.775682 
L 457.995971 80.15359 
L 463.055888 79.529275 
L 468.115806 78.902742 
L 473.175723 78.273991 
L 478.23564 77.643026 
L 483.295558 77.009848 
L 488.355475 76.37446 
L 493.415393 75.736864 
L 498.47531 75.097062 
L 503.535227 74.455057 
L 508.595145 73.810851 
L 513.655062 73.164446 
L 518.714979 72.515845 
L 523.774897 71.86505 
L 528.834814 71.212064 
L 533.894731 70.556888 
L 538.954649 69.899526 
L 544.014566 69.239979 
L 549.074483 68.57825 
L 554.134401 67.914342 
L 559.194318 67.248256 
L 564.254236 66.579997 
L 569.314153 65.909565 
L 574.37407 65.236963 
L 579.433988 64.562194 
L 584.493905 63.885261 
L 589.553822 63.206165 
L 594.61374 62.52491 
L 599.673657 61.841497 
L 604.733574 61.155931 
L 609.793492 60.468212 
L 614.853409 59.778344 
" style="fill:none;stroke:#1f77b4;stroke-linecap:square;stroke-width:5;"/>
   </g>
   <g id="line2d_15">
    <path clip-path="url(#p2dd1d58e9f)" d="M 113.921591 117.902959 
L 118.981508 118.065195 
L 124.041426 118.415534 
L 129.101343 118.826611 
L 134.16126 119.258661 
L 139.221178 119.698969 
L 144.281095 120.142552 
L 149.341012 120.587105 
L 154.40093 121.031426 
L 159.460847 121.474831 
L 164.520764 121.916902 
L 169.580682 122.357369 
L 174.640599 122.796051 
L 179.700517 123.232821 
L 184.760434 123.667588 
L 189.820351 124.100286 
L 194.880269 124.530863 
L 199.940186 124.959281 
L 205.000103 125.385509 
L 210.060021 125.809523 
L 215.119938 126.231303 
L 220.179855 126.650834 
L 225.239773 127.068102 
L 230.29969 127.483096 
L 235.359607 127.895808 
L 240.419525 128.306229 
L 245.479442 128.714352 
L 250.53936 129.120173 
L 255.599277 129.523686 
L 260.659194 129.924886 
L 265.719112 130.323771 
L 270.779029 130.720336 
L 275.838946 131.114579 
L 280.898864 131.506498 
L 285.958781 131.896089 
L 291.018698 132.283351 
L 296.078616 132.668282 
L 301.138533 133.05088 
L 306.19845 133.431144 
L 311.258368 133.809072 
L 316.318285 134.184664 
L 321.378202 134.557918 
L 326.43812 134.928833 
L 331.498037 135.297408 
L 336.557955 135.663643 
L 341.617872 136.027536 
L 346.677789 136.389087 
L 351.737707 136.748297 
L 356.797624 137.105163 
L 361.857541 137.459685 
L 366.917459 137.811864 
L 371.977376 138.161699 
L 377.037293 138.509189 
L 382.097211 138.854335 
L 387.157128 139.197136 
L 392.217045 139.537591 
L 397.276963 139.875702 
L 402.33688 140.211467 
L 407.396798 140.544887 
L 412.456715 140.875962 
L 417.516632 141.204692 
L 422.57655 141.531076 
L 427.636467 141.855115 
L 432.696384 142.176809 
L 437.756302 142.496159 
L 442.816219 142.813164 
L 447.876136 143.127824 
L 452.936054 143.440141 
L 457.995971 143.750113 
L 463.055888 144.057742 
L 468.115806 144.363028 
L 473.175723 144.665971 
L 478.23564 144.966571 
L 483.295558 145.264829 
L 488.355475 145.560746 
L 493.415393 145.854321 
L 498.47531 146.145556 
L 503.535227 146.434451 
L 508.595145 146.721006 
L 513.655062 147.005222 
L 518.714979 147.287099 
L 523.774897 147.566639 
L 528.834814 147.843841 
L 533.894731 148.118707 
L 538.954649 148.391237 
L 544.014566 148.661432 
L 549.074483 148.929292 
L 554.134401 149.194818 
L 559.194318 149.458012 
L 564.254236 149.718874 
L 569.314153 149.977404 
L 574.37407 150.233604 
L 579.433988 150.487474 
L 584.493905 150.739016 
L 589.553822 150.98823 
L 594.61374 151.235117 
L 599.673657 151.479678 
L 604.733574 151.721915 
L 609.793492 151.961827 
L 614.853409 152.199417 
" style="fill:none;stroke:#1f77b4;stroke-linecap:square;stroke-width:5;"/>
   </g>
   <g id="line2d_16">
    <path clip-path="url(#p2dd1d58e9f)" d="M 113.921591 151.297175 
L 118.981508 151.132517 
L 124.041426 150.774937 
L 129.101343 150.351814 
L 134.16126 149.902916 
L 139.221178 149.440955 
L 144.281095 148.970916 
L 149.341012 148.495105 
L 154.40093 148.014722 
L 159.460847 147.530454 
L 164.520764 147.042718 
L 169.580682 146.551784 
L 174.640599 146.057835 
L 179.700517 145.560997 
L 184.760434 145.061363 
L 189.820351 144.558999 
L 194.880269 144.053958 
L 199.940186 143.546279 
L 205.000103 143.035994 
L 210.060021 142.523127 
L 215.119938 142.007699 
L 220.179855 141.489728 
L 225.239773 140.969226 
L 230.29969 140.446206 
L 235.359607 139.920678 
L 240.419525 139.392651 
L 245.479442 138.862133 
L 250.53936 138.329131 
L 255.599277 137.793652 
L 260.659194 137.255699 
L 265.719112 136.71528 
L 270.779029 136.172398 
L 275.838946 135.627057 
L 280.898864 135.079262 
L 285.958781 134.529017 
L 291.018698 133.976326 
L 296.078616 133.42119 
L 301.138533 132.863615 
L 306.19845 132.303603 
L 311.258368 131.741157 
L 316.318285 131.17628 
L 321.378202 130.608974 
L 326.43812 130.039244 
L 331.498037 129.467091 
L 336.557955 128.892518 
L 341.617872 128.315528 
L 346.677789 127.736123 
L 351.737707 127.154307 
L 356.797624 126.570081 
L 361.857541 125.983448 
L 366.917459 125.394411 
L 371.977376 124.802973 
L 377.037293 124.209135 
L 382.097211 123.6129 
L 387.157128 123.014271 
L 392.217045 122.413251 
L 397.276963 121.809841 
L 402.33688 121.204045 
L 407.396798 120.595864 
L 412.456715 119.985302 
L 417.516632 119.37236 
L 422.57655 118.757042 
L 427.636467 118.13935 
L 432.696384 117.519286 
L 437.756302 116.896854 
L 442.816219 116.272054 
L 447.876136 115.644891 
L 452.936054 115.015367 
L 457.995971 114.383484 
L 463.055888 113.749245 
L 468.115806 113.112652 
L 473.175723 112.473709 
L 478.23564 111.832417 
L 483.295558 111.18878 
L 488.355475 110.542799 
L 493.415393 109.894479 
L 498.47531 109.243821 
L 503.535227 108.590828 
L 508.595145 107.935503 
L 513.655062 107.277848 
L 518.714979 106.617867 
L 523.774897 105.955562 
L 528.834814 105.290936 
L 533.894731 104.623991 
L 538.954649 103.954731 
L 544.014566 103.283159 
L 549.074483 102.609276 
L 554.134401 101.933086 
L 559.194318 101.254592 
L 564.254236 100.573797 
L 569.314153 99.890703 
L 574.37407 99.205313 
L 579.433988 98.517631 
L 584.493905 97.82766 
L 589.553822 97.135401 
L 594.61374 96.440859 
L 599.673657 95.744036 
L 604.733574 95.044935 
L 609.793492 94.343559 
L 614.853409 93.639911 
" style="fill:none;stroke:#ff7f0e;stroke-dasharray:9.25,4;stroke-dashoffset:0;stroke-width:2.5;"/>
   </g>
   <g id="line2d_17">
    <path clip-path="url(#p2dd1d58e9f)" d="M 113.921591 152.475795 
L 118.981508 152.637975 
L 124.041426 152.98812 
L 129.101343 153.398852 
L 134.16126 153.830402 
L 139.221178 154.270059 
L 144.281095 154.712838 
L 149.341012 155.156434 
L 154.40093 155.599646 
L 159.460847 156.041788 
L 164.520764 156.482443 
L 169.580682 156.921342 
L 174.640599 157.358302 
L 179.700517 157.793197 
L 184.760434 158.225937 
L 189.820351 158.656454 
L 194.880269 159.084696 
L 199.940186 159.510626 
L 205.000103 159.934213 
L 210.060021 160.355432 
L 215.119938 160.774264 
L 220.179855 161.190692 
L 225.239773 161.604705 
L 230.29969 162.016289 
L 235.359607 162.425438 
L 240.419525 162.832141 
L 245.479442 163.236394 
L 250.53936 163.63819 
L 255.599277 164.037525 
L 260.659194 164.434393 
L 265.719112 164.828791 
L 270.779029 165.220716 
L 275.838946 165.610165 
L 280.898864 165.997136 
L 285.958781 166.381625 
L 291.018698 166.763631 
L 296.078616 167.143153 
L 301.138533 167.520187 
L 306.19845 167.894734 
L 311.258368 168.266791 
L 316.318285 168.636358 
L 321.378202 169.003433 
L 326.43812 169.368016 
L 331.498037 169.730105 
L 336.557955 170.0897 
L 341.617872 170.446801 
L 346.677789 170.801406 
L 351.737707 171.153515 
L 356.797624 171.503128 
L 361.857541 171.850244 
L 366.917459 172.194863 
L 371.977376 172.536985 
L 377.037293 172.876609 
L 382.097211 173.213736 
L 387.157128 173.548365 
L 392.217045 173.880496 
L 397.276963 174.210129 
L 402.33688 174.537265 
L 407.396798 174.861903 
L 412.456715 175.184043 
L 417.516632 175.503686 
L 422.57655 175.820832 
L 427.636467 176.13548 
L 432.696384 176.447632 
L 437.756302 176.757288 
L 442.816219 177.064447 
L 447.876136 177.36911 
L 452.936054 177.671279 
L 457.995971 177.970952 
L 463.055888 178.268131 
L 468.115806 178.562815 
L 473.175723 178.855007 
L 478.23564 179.144705 
L 483.295558 179.431911 
L 488.355475 179.716626 
L 493.415393 179.99885 
L 498.47531 180.278583 
L 503.535227 180.555826 
L 508.595145 180.830581 
L 513.655062 181.102848 
L 518.714979 181.372627 
L 523.774897 181.63992 
L 528.834814 181.904727 
L 533.894731 182.16705 
L 538.954649 182.426889 
L 544.014566 182.684244 
L 549.074483 182.939118 
L 554.134401 183.191511 
L 559.194318 183.441425 
L 564.254236 183.688859 
L 569.314153 183.933816 
L 574.37407 184.176295 
L 579.433988 184.4163 
L 584.493905 184.65383 
L 589.553822 184.888887 
L 594.61374 185.121472 
L 599.673657 185.351586 
L 604.733574 185.579231 
L 609.793492 185.804408 
L 614.853409 186.027118 
" style="fill:none;stroke:#ff7f0e;stroke-dasharray:9.25,4;stroke-dashoffset:0;stroke-width:2.5;"/>
   </g>
   <g id="line2d_18">
    <path clip-path="url(#p2dd1d58e9f)" d="M 113.921591 195.69184 
L 118.981508 195.527039 
L 124.041426 195.169068 
L 129.101343 194.745328 
L 134.16126 194.295588 
L 139.221178 193.83256 
L 144.281095 193.36123 
L 149.341012 192.883901 
L 154.40093 192.401777 
L 159.460847 191.915542 
L 164.520764 191.425615 
L 169.580682 190.932267 
L 174.640599 190.435679 
L 179.700517 189.935979 
L 184.760434 189.433259 
L 189.820351 188.927586 
L 194.880269 188.419014 
L 199.940186 187.907581 
L 205.000103 187.39332 
L 210.060021 186.876255 
L 215.119938 186.356408 
L 220.179855 185.833796 
L 225.239773 185.308433 
L 230.29969 184.780332 
L 235.359607 184.249503 
L 240.419525 183.715955 
L 245.479442 183.179697 
L 250.53936 182.640736 
L 255.599277 182.099079 
L 260.659194 181.55473 
L 265.719112 181.007697 
L 270.779029 180.457984 
L 275.838946 179.905596 
L 280.898864 179.350537 
L 285.958781 178.792811 
L 291.018698 178.232423 
L 296.078616 177.669377 
L 301.138533 177.103675 
L 306.19845 176.535323 
L 311.258368 175.964322 
L 316.318285 175.390677 
L 321.378202 174.814391 
L 326.43812 174.235467 
L 331.498037 173.653909 
L 336.557955 173.069719 
L 341.617872 172.482901 
L 346.677789 171.893458 
L 351.737707 171.301393 
L 356.797624 170.706708 
L 361.857541 170.109408 
L 366.917459 169.509495 
L 371.977376 168.906972 
L 377.037293 168.301843 
L 382.097211 167.69411 
L 387.157128 167.083776 
L 392.217045 166.470844 
L 397.276963 165.855318 
L 402.33688 165.2372 
L 407.396798 164.616494 
L 412.456715 163.993202 
L 417.516632 163.367329 
L 422.57655 162.738875 
L 427.636467 162.107846 
L 432.696384 161.474244 
L 437.756302 160.838072 
L 442.816219 160.199333 
L 447.876136 159.55803 
L 452.936054 158.914167 
L 457.995971 158.267747 
L 463.055888 157.618773 
L 468.115806 156.967248 
L 473.175723 156.313176 
L 478.23564 155.656559 
L 483.295558 154.997402 
L 488.355475 154.335707 
L 493.415393 153.671477 
L 498.47531 153.004716 
L 503.535227 152.335428 
L 508.595145 151.663615 
L 513.655062 150.989281 
L 518.714979 150.312429 
L 523.774897 149.633064 
L 528.834814 148.951187 
L 533.894731 148.266804 
L 538.954649 147.579916 
L 544.014566 146.890529 
L 549.074483 146.198644 
L 554.134401 145.504266 
L 559.194318 144.807399 
L 564.254236 144.108045 
L 569.314153 143.406209 
L 574.37407 142.701893 
L 579.433988 141.995103 
L 584.493905 141.28584 
L 589.553822 140.57411 
L 594.61374 139.859915 
L 599.673657 139.143259 
L 604.733574 138.424147 
L 609.793492 137.702581 
L 614.853409 136.978565 
" style="fill:none;stroke:#2ca02c;stroke-dasharray:16,4,2.5,4;stroke-dashoffset:0;stroke-width:2.5;"/>
   </g>
   <g id="line2d_19">
    <path clip-path="url(#p2dd1d58e9f)" d="M 113.921591 196.87046 
L 118.981508 197.032556 
L 124.041426 197.382412 
L 129.101343 197.792627 
L 134.16126 198.223433 
L 139.221178 198.662117 
L 144.281095 199.103695 
L 149.341012 199.545862 
L 154.40093 199.987416 
L 159.460847 200.427673 
L 164.520764 200.866214 
L 169.580682 201.30277 
L 174.640599 201.737159 
L 179.700517 202.169255 
L 184.760434 202.598966 
L 189.820351 203.026225 
L 194.880269 203.450982 
L 199.940186 203.873196 
L 205.000103 204.292837 
L 210.060021 204.709882 
L 215.119938 205.12431 
L 220.179855 205.536105 
L 225.239773 205.945255 
L 230.29969 206.351747 
L 235.359607 206.755574 
L 240.419525 207.156726 
L 245.479442 207.555197 
L 250.53936 207.950982 
L 255.599277 208.344076 
L 260.659194 208.734473 
L 265.719112 209.122171 
L 270.779029 209.507166 
L 275.838946 209.889455 
L 280.898864 210.269036 
L 285.958781 210.645906 
L 291.018698 211.020063 
L 296.078616 211.391505 
L 301.138533 211.760232 
L 306.19845 212.12624 
L 311.258368 212.48953 
L 316.318285 212.850101 
L 321.378202 213.20795 
L 326.43812 213.563077 
L 331.498037 213.915482 
L 336.557955 214.265164 
L 341.617872 214.612122 
L 346.677789 214.956356 
L 351.737707 215.297865 
L 356.797624 215.63665 
L 361.857541 215.97271 
L 366.917459 216.306044 
L 371.977376 216.636653 
L 377.037293 216.964536 
L 382.097211 217.289694 
L 387.157128 217.612127 
L 392.217045 217.931835 
L 397.276963 218.248818 
L 402.33688 218.563076 
L 407.396798 218.874609 
L 412.456715 219.183419 
L 417.516632 219.489504 
L 422.57655 219.792867 
L 427.636467 220.093506 
L 432.696384 220.391423 
L 437.756302 220.686619 
L 442.816219 220.979093 
L 447.876136 221.268847 
L 452.936054 221.555881 
L 457.995971 221.840195 
L 463.055888 222.121792 
L 468.115806 222.400671 
L 473.175723 222.676833 
L 478.23564 222.950279 
L 483.295558 223.221011 
L 488.355475 223.489028 
L 493.415393 223.754333 
L 498.47531 224.016926 
L 503.535227 224.276807 
L 508.595145 224.53398 
L 513.655062 224.788443 
L 518.714979 225.040199 
L 523.774897 225.289249 
L 528.834814 225.535594 
L 533.894731 225.779236 
L 538.954649 226.020175 
L 544.014566 226.258413 
L 549.074483 226.493952 
L 554.134401 226.726793 
L 559.194318 226.956937 
L 564.254236 227.184386 
L 569.314153 227.409141 
L 574.37407 227.631204 
L 579.433988 227.850577 
L 584.493905 228.067262 
L 589.553822 228.281259 
L 594.61374 228.492571 
L 599.673657 228.701199 
L 604.733574 228.907145 
L 609.793492 229.110412 
L 614.853409 229.311 
" style="fill:none;stroke:#2ca02c;stroke-dasharray:16,4,2.5,4;stroke-dashoffset:0;stroke-width:2.5;"/>
   </g>
   <g id="line2d_20">
    <path clip-path="url(#p2dd1d58e9f)" d="M 300.130738 132.974863 
L 300.130738 269.2 
" style="fill:none;stroke:#9467bd;stroke-dasharray:7.4,3.2;stroke-dashoffset:0;stroke-width:2;"/>
   </g>
   <g id="line2d_21">
    <path clip-path="url(#p2dd1d58e9f)" d="M 534.675844 148.16093 
L 534.675844 269.2 
" style="fill:none;stroke:#9467bd;stroke-dasharray:7.4,3.2;stroke-dashoffset:0;stroke-width:2;"/>
   </g>
   <g id="patch_3">
    <path d="M 88.875 238.698 
L 88.875 32.184 
" style="fill:none;stroke:#000000;stroke-linecap:square;stroke-linejoin:miter;stroke-width:0.8;"/>
   </g>
   <g id="patch_4">
    <path d="M 639.9 238.698 
L 639.9 32.184 
" style="fill:none;stroke:#000000;stroke-linecap:square;stroke-linejoin:miter;stroke-width:0.8;"/>
   </g>
   <g id="patch_5">
    <path d="M 88.875 238.698 
L 639.9 238.698 
" style="fill:none;stroke:#000000;stroke-linecap:square;stroke-linejoin:miter;stroke-width:0.8;"/>
   </g>
   <g id="patch_6">
    <path d="M 88.875 32.184 
L 639.9 32.184 
" style="fill:none;stroke:#000000;stroke-linecap:square;stroke-linejoin:miter;stroke-width:0.8;"/>
   </g>
  </g>
 </g>
 <defs>
  <clipPath id="p2dd1d58e9f">
   <rect height="206.514" width="551.025" x="88.875" y="32.184"/>
  </clipPath>
 </defs>
</svg>
