<?xml version="1.0" encoding="utf-8" standalone="no"?>
<!DOCTYPE svg PUBLIC "-//W3C//DTD SVG 1.1//EN"
  "http://www.w3.org/Graphics/SVG/1.1/DTD/svg11.dtd">
<!-- Created with matplotlib (http://matplotlib.org/) -->
<svg height="275.4pt" version="1.1" viewBox="0 0 713.7 275.4" width="713.7pt" xmlns="http://www.w3.org/2000/svg" xmlns:xlink="http://www.w3.org/1999/xlink">
 <defs>
  <style type="text/css">
*{stroke-linecap:butt;stroke-linejoin:round;}
  </style>
 </defs>
 <g id="figure_1">
  <g id="patch_1">
   <path d="M 0 275.4 
L 713.7 275.4 
L 713.7 0 
L 0 0 
z
" style="fill:#ffffff;"/>
  </g>
  <g id="axes_1">
   <g id="patch_2">
    <path d="M 89.2125 245.106 
L 642.33 245.106 
L 642.33 33.048 
L 89.2125 33.048 
z
" style="fill:#ffffff;"/>
   </g>
   <g id="matplotlib.axis_1">
    <g id="xtick_1">
     <g id="line2d_1">
      <defs>
       <path d="M 0 0 
L 0 3.5 
" id="m2af3a8e25f" style="stroke:#000000;stroke-width:0.8;"/>
      </defs>
      <g>
       <use style="stroke:#000000;stroke-width:0.8;" x="114.354205" xlink:href="#m2af3a8e25f" y="245.106"/>
      </g>
     </g>
     <g id="text_1">
      <!-- 0 -->
      <defs>
       <path d="M 31.78125 66.40625 
Q 24.171875 66.40625 20.328125 58.90625 
Q 16.5 51.421875 16.5 36.375 
Q 16.5 21.390625 20.328125 13.890625 
Q 24.171875 6.390625 31.78125 6.390625 
Q 39.453125 6.390625 43.28125 13.890625 
Q 47.125 21.390625 47.125 36.375 
Q 47.125 51.421875 43.28125 58.90625 
Q 39.453125 66.40625 31.78125 66.40625 
z
M 31.78125 74.21875 
Q 44.046875 74.21875 50.515625 64.515625 
Q 56.984375 54.828125 56.984375 36.375 
Q 56.984375 17.96875 50.515625 8.265625 
Q 44.046875 -1.421875 31.78125 -1.421875 
Q 19.53125 -1.421875 13.0625 8.265625 
Q 6.59375 17.96875 6.59375 36.375 
Q 6.59375 54.828125 13.0625 64.515625 
Q 19.53125 74.21875 31.78125 74.21875 
z
" id="DejaVuSans-30"/>
      </defs>
      <g transform="translate(107.991705 267.302875)scale(0.2 -0.2)">
       <use xlink:href="#DejaVuSans-30"/>
      </g>
     </g>
    </g>
    <g id="xtick_2">
     <g id="line2d_2">
      <g>
       <use style="stroke:#000000;stroke-width:0.8;" x="183.312622" xlink:href="#m2af3a8e25f" y="245.106"/>
      </g>
     </g>
     <g id="text_2">
      <!-- 20 -->
      <defs>
       <path d="M 19.1875 8.296875 
L 53.609375 8.296875 
L 53.609375 0 
L 7.328125 0 
L 7.328125 8.296875 
Q 12.9375 14.109375 22.625 23.890625 
Q 32.328125 33.6875 34.8125 36.53125 
Q 39.546875 41.84375 41.421875 45.53125 
Q 43.3125 49.21875 43.3125 52.78125 
Q 43.3125 58.59375 39.234375 62.25 
Q 35.15625 65.921875 28.609375 65.921875 
Q 23.96875 65.921875 18.8125 64.3125 
Q 13.671875 62.703125 7.8125 59.421875 
L 7.8125 69.390625 
Q 13.765625 71.78125 18.9375 73 
Q 24.125 74.21875 28.421875 74.21875 
Q 39.75 74.21875 46.484375 68.546875 
Q 53.21875 62.890625 53.21875 53.421875 
Q 53.21875 48.921875 51.53125 44.890625 
Q 49.859375 40.875 45.40625 35.40625 
Q 44.1875 33.984375 37.640625 27.21875 
Q 31.109375 20.453125 19.1875 8.296875 
z
" id="DejaVuSans-32"/>
      </defs>
      <g transform="translate(170.587622 267.302875)scale(0.2 -0.2)">
       <use xlink:href="#DejaVuSans-32"/>
       <use x="63.623047" xlink:href="#DejaVuSans-30"/>
      </g>
     </g>
    </g>
    <g id="xtick_3">
     <g id="line2d_3">
      <g>
       <use style="stroke:#000000;stroke-width:0.8;" x="252.271039" xlink:href="#m2af3a8e25f" y="245.106"/>
      </g>
     </g>
     <g id="text_3">
      <!-- 40 -->
      <defs>
       <path d="M 37.796875 64.3125 
L 12.890625 25.390625 
L 37.796875 25.390625 
z
M 35.203125 72.90625 
L 47.609375 72.90625 
L 47.609375 25.390625 
L 58.015625 25.390625 
L 58.015625 17.1875 
L 47.609375 17.1875 
L 47.609375 0 
L 37.796875 0 
L 37.796875 17.1875 
L 4.890625 17.1875 
L 4.890625 26.703125 
z
" id="DejaVuSans-34"/>
      </defs>
      <g transform="translate(239.546039 267.302875)scale(0.2 -0.2)">
       <use xlink:href="#DejaVuSans-34"/>
       <use x="63.623047" xlink:href="#DejaVuSans-30"/>
      </g>
     </g>
    </g>
    <g id="xtick_4">
     <g id="line2d_4">
      <g>
       <use style="stroke:#000000;stroke-width:0.8;" x="321.229457" xlink:href="#m2af3a8e25f" y="245.106"/>
      </g>
     </g>
     <g id="text_4">
      <!-- 60 -->
      <defs>
       <path d="M 33.015625 40.375 
Q 26.375 40.375 22.484375 35.828125 
Q 18.609375 31.296875 18.609375 23.390625 
Q 18.609375 15.53125 22.484375 10.953125 
Q 26.375 6.390625 33.015625 6.390625 
Q 39.65625 6.390625 43.53125 10.953125 
Q 47.40625 15.53125 47.40625 23.390625 
Q 47.40625 31.296875 43.53125 35.828125 
Q 39.65625 40.375 33.015625 40.375 
z
M 52.59375 71.296875 
L 52.59375 62.3125 
Q 48.875 64.0625 45.09375 64.984375 
Q 41.3125 65.921875 37.59375 65.921875 
Q 27.828125 65.921875 22.671875 59.328125 
Q 17.53125 52.734375 16.796875 39.40625 
Q 19.671875 43.65625 24.015625 45.921875 
Q 28.375 48.1875 33.59375 48.1875 
Q 44.578125 48.1875 50.953125 41.515625 
Q 57.328125 34.859375 57.328125 23.390625 
Q 57.328125 12.15625 50.6875 5.359375 
Q 44.046875 -1.421875 33.015625 -1.421875 
Q 20.359375 -1.421875 13.671875 8.265625 
Q 6.984375 17.96875 6.984375 36.375 
Q 6.984375 53.65625 15.1875 63.9375 
Q 23.390625 74.21875 37.203125 74.21875 
Q 40.921875 74.21875 44.703125 73.484375 
Q 48.484375 72.75 52.59375 71.296875 
z
" id="DejaVuSans-36"/>
      </defs>
      <g transform="translate(308.504457 267.302875)scale(0.2 -0.2)">
       <use xlink:href="#DejaVuSans-36"/>
       <use x="63.623047" xlink:href="#DejaVuSans-30"/>
      </g>
     </g>
    </g>
    <g id="xtick_5">
     <g id="line2d_5">
      <g>
       <use style="stroke:#000000;stroke-width:0.8;" x="390.187874" xlink:href="#m2af3a8e25f" y="245.106"/>
      </g>
     </g>
     <g id="text_5">
      <!-- 80 -->
      <defs>
       <path d="M 31.78125 34.625 
Q 24.75 34.625 20.71875 30.859375 
Q 16.703125 27.09375 16.703125 20.515625 
Q 16.703125 13.921875 20.71875 10.15625 
Q 24.75 6.390625 31.78125 6.390625 
Q 38.8125 6.390625 42.859375 10.171875 
Q 46.921875 13.96875 46.921875 20.515625 
Q 46.921875 27.09375 42.890625 30.859375 
Q 38.875 34.625 31.78125 34.625 
z
M 21.921875 38.8125 
Q 15.578125 40.375 12.03125 44.71875 
Q 8.5 49.078125 8.5 55.328125 
Q 8.5 64.0625 14.71875 69.140625 
Q 20.953125 74.21875 31.78125 74.21875 
Q 42.671875 74.21875 48.875 69.140625 
Q 55.078125 64.0625 55.078125 55.328125 
Q 55.078125 49.078125 51.53125 44.71875 
Q 48 40.375 41.703125 38.8125 
Q 48.828125 37.15625 52.796875 32.3125 
Q 56.78125 27.484375 56.78125 20.515625 
Q 56.78125 9.90625 50.3125 4.234375 
Q 43.84375 -1.421875 31.78125 -1.421875 
Q 19.734375 -1.421875 13.25 4.234375 
Q 6.78125 9.90625 6.78125 20.515625 
Q 6.78125 27.484375 10.78125 32.3125 
Q 14.796875 37.15625 21.921875 38.8125 
z
M 18.3125 54.390625 
Q 18.3125 48.734375 21.84375 45.5625 
Q 25.390625 42.390625 31.78125 42.390625 
Q 38.140625 42.390625 41.71875 45.5625 
Q 45.3125 48.734375 45.3125 54.390625 
Q 45.3125 60.0625 41.71875 63.234375 
Q 38.140625 66.40625 31.78125 66.40625 
Q 25.390625 66.40625 21.84375 63.234375 
Q 18.3125 60.0625 18.3125 54.390625 
z
" id="DejaVuSans-38"/>
      </defs>
      <g transform="translate(377.462874 267.302875)scale(0.2 -0.2)">
       <use xlink:href="#DejaVuSans-38"/>
       <use x="63.623047" xlink:href="#DejaVuSans-30"/>
      </g>
     </g>
    </g>
    <g id="xtick_6">
     <g id="line2d_6">
      <g>
       <use style="stroke:#000000;stroke-width:0.8;" x="459.146291" xlink:href="#m2af3a8e25f" y="245.106"/>
      </g>
     </g>
     <g id="text_6">
      <!-- 100 -->
      <defs>
       <path d="M 12.40625 8.296875 
L 28.515625 8.296875 
L 28.515625 63.921875 
L 10.984375 60.40625 
L 10.984375 69.390625 
L 28.421875 72.90625 
L 38.28125 72.90625 
L 38.28125 8.296875 
L 54.390625 8.296875 
L 54.390625 0 
L 12.40625 0 
z
" id="DejaVuSans-31"/>
      </defs>
      <g transform="translate(440.058791 267.302875)scale(0.2 -0.2)">
       <use xlink:href="#DejaVuSans-31"/>
       <use x="63.623047" xlink:href="#DejaVuSans-30"/>
       <use x="127.246094" xlink:href="#DejaVuSans-30"/>
      </g>
     </g>
    </g>
    <g id="xtick_7">
     <g id="line2d_7">
      <g>
       <use style="stroke:#000000;stroke-width:0.8;" x="528.104709" xlink:href="#m2af3a8e25f" y="245.106"/>
      </g>
     </g>
     <g id="text_7">
      <!-- 120 -->
      <g transform="translate(509.017209 267.302875)scale(0.2 -0.2)">
       <use xlink:href="#DejaVuSans-31"/>
       <use x="63.623047" xlink:href="#DejaVuSans-32"/>
       <use x="127.246094" xlink:href="#DejaVuSans-30"/>
      </g>
     </g>
    </g>
    <g id="xtick_8">
     <g id="line2d_8">
      <g>
       <use style="stroke:#000000;stroke-width:0.8;" x="597.063126" xlink:href="#m2af3a8e25f" y="245.106"/>
      </g>
     </g>
     <g id="text_8">
      <!-- 140 -->
      <g transform="translate(577.975626 267.302875)scale(0.2 -0.2)">
       <use xlink:href="#DejaVuSans-31"/>
       <use x="63.623047" xlink:href="#DejaVuSans-34"/>
       <use x="127.246094" xlink:href="#DejaVuSans-30"/>
      </g>
     </g>
    </g>
   </g>
   <g id="matplotlib.axis_2">
    <g id="ytick_1">
     <g id="line2d_9">
      <defs>
       <path d="M 0 0 
L -3.5 0 
" id="m64868b198c" style="stroke:#000000;stroke-width:0.8;"/>
      </defs>
      <g>
       <use style="stroke:#000000;stroke-width:0.8;" x="89.2125" xlink:href="#m64868b198c" y="215.266725"/>
      </g>
     </g>
     <g id="text_9">
      <!-- 2400 -->
      <g transform="translate(31.3125 222.865162)scale(0.2 -0.2)">
       <use xlink:href="#DejaVuSans-32"/>
       <use x="63.623047" xlink:href="#DejaVuSans-34"/>
       <use x="127.246094" xlink:href="#DejaVuSans-30"/>
       <use x="190.869141" xlink:href="#DejaVuSans-30"/>
      </g>
     </g>
    </g>
    <g id="ytick_2">
     <g id="line2d_10">
      <g>
       <use style="stroke:#000000;stroke-width:0.8;" x="89.2125" xlink:href="#m64868b198c" y="174.924718"/>
      </g>
     </g>
     <g id="text_10">
      <!-- 2600 -->
      <g transform="translate(31.3125 182.523155)scale(0.2 -0.2)">
       <use xlink:href="#DejaVuSans-32"/>
       <use x="63.623047" xlink:href="#DejaVuSans-36"/>
       <use x="127.246094" xlink:href="#DejaVuSans-30"/>
       <use x="190.869141" xlink:href="#DejaVuSans-30"/>
      </g>
     </g>
    </g>
    <g id="ytick_3">
     <g id="line2d_11">
      <g>
       <use style="stroke:#000000;stroke-width:0.8;" x="89.2125" xlink:href="#m64868b198c" y="134.582711"/>
      </g>
     </g>
     <g id="text_11">
      <!-- 2800 -->
      <g transform="translate(31.3125 142.181149)scale(0.2 -0.2)">
       <use xlink:href="#DejaVuSans-32"/>
       <use x="63.623047" xlink:href="#DejaVuSans-38"/>
       <use x="127.246094" xlink:href="#DejaVuSans-30"/>
       <use x="190.869141" xlink:href="#DejaVuSans-30"/>
      </g>
     </g>
    </g>
    <g id="ytick_4">
     <g id="line2d_12">
      <g>
       <use style="stroke:#000000;stroke-width:0.8;" x="89.2125" xlink:href="#m64868b198c" y="94.240704"/>
      </g>
     </g>
     <g id="text_12">
      <!-- 3000 -->
      <defs>
       <path d="M 40.578125 39.3125 
Q 47.65625 37.796875 51.625 33 
Q 55.609375 28.21875 55.609375 21.1875 
Q 55.609375 10.40625 48.1875 4.484375 
Q 40.765625 -1.421875 27.09375 -1.421875 
Q 22.515625 -1.421875 17.65625 -0.515625 
Q 12.796875 0.390625 7.625 2.203125 
L 7.625 11.71875 
Q 11.71875 9.328125 16.59375 8.109375 
Q 21.484375 6.890625 26.8125 6.890625 
Q 36.078125 6.890625 40.9375 10.546875 
Q 45.796875 14.203125 45.796875 21.1875 
Q 45.796875 27.640625 41.28125 31.265625 
Q 36.765625 34.90625 28.71875 34.90625 
L 20.21875 34.90625 
L 20.21875 43.015625 
L 29.109375 43.015625 
Q 36.375 43.015625 40.234375 45.921875 
Q 44.09375 48.828125 44.09375 54.296875 
Q 44.09375 59.90625 40.109375 62.90625 
Q 36.140625 65.921875 28.71875 65.921875 
Q 24.65625 65.921875 20.015625 65.03125 
Q 15.375 64.15625 9.8125 62.3125 
L 9.8125 71.09375 
Q 15.4375 72.65625 20.34375 73.4375 
Q 25.25 74.21875 29.59375 74.21875 
Q 40.828125 74.21875 47.359375 69.109375 
Q 53.90625 64.015625 53.90625 55.328125 
Q 53.90625 49.265625 50.4375 45.09375 
Q 46.96875 40.921875 40.578125 39.3125 
z
" id="DejaVuSans-33"/>
      </defs>
      <g transform="translate(31.3125 101.839142)scale(0.2 -0.2)">
       <use xlink:href="#DejaVuSans-33"/>
       <use x="63.623047" xlink:href="#DejaVuSans-30"/>
       <use x="127.246094" xlink:href="#DejaVuSans-30"/>
       <use x="190.869141" xlink:href="#DejaVuSans-30"/>
      </g>
     </g>
    </g>
    <g id="ytick_5">
     <g id="line2d_13">
      <g>
       <use style="stroke:#000000;stroke-width:0.8;" x="89.2125" xlink:href="#m64868b198c" y="53.898697"/>
      </g>
     </g>
     <g id="text_13">
      <!-- 3200 -->
      <g transform="translate(31.3125 61.497135)scale(0.2 -0.2)">
       <use xlink:href="#DejaVuSans-33"/>
       <use x="63.623047" xlink:href="#DejaVuSans-32"/>
       <use x="127.246094" xlink:href="#DejaVuSans-30"/>
       <use x="190.869141" xlink:href="#DejaVuSans-30"/>
      </g>
     </g>
    </g>
   </g>
   <g id="line2d_14">
    <path clip-path="url(#p6c36ca50ba)" d="M 114.354205 119.857879 
L 119.433337 119.688898 
L 124.512469 119.321987 
L 129.591601 118.88793 
L 134.670733 118.42756 
L 139.749866 117.953931 
L 144.828998 117.472163 
L 149.90813 116.984621 
L 154.987262 116.492541 
L 160.066395 115.996624 
L 165.145527 115.497302 
L 170.224659 114.994851 
L 175.303791 114.489457 
L 180.382924 113.981251 
L 185.462056 113.470327 
L 190.541188 112.956755 
L 195.62032 112.440586 
L 200.699452 111.921862 
L 205.778585 111.400615 
L 210.857717 110.876869 
L 215.936849 110.350646 
L 221.015981 109.821964 
L 226.095114 109.290835 
L 231.174246 108.757273 
L 236.253378 108.221288 
L 241.33251 107.682888 
L 246.411643 107.142081 
L 251.490775 106.598875 
L 256.569907 106.053275 
L 261.649039 105.505287 
L 266.728171 104.954915 
L 271.807304 104.402165 
L 276.886436 103.847041 
L 281.965568 103.289546 
L 287.0447 102.729684 
L 292.123833 102.167459 
L 297.202965 101.602874 
L 302.282097 101.035931 
L 307.361229 100.466634 
L 312.440362 99.894986 
L 317.519494 99.32099 
L 322.598626 98.744648 
L 327.677758 98.165962 
L 332.75689 97.584936 
L 337.836023 97.001571 
L 342.915155 96.415871 
L 347.994287 95.827837 
L 353.073419 95.237472 
L 358.152552 94.644778 
L 363.231684 94.049758 
L 368.310816 93.452414 
L 373.389948 92.852748 
L 378.469081 92.250762 
L 383.548213 91.64646 
L 388.627345 91.039842 
L 393.706477 90.430911 
L 398.78561 89.819669 
L 403.864742 89.20612 
L 408.943874 88.590264 
L 414.023006 87.972104 
L 419.102138 87.351643 
L 424.181271 86.728882 
L 429.260403 86.103824 
L 434.339535 85.476471 
L 439.418667 84.846826 
L 444.4978 84.21489 
L 449.576932 83.580667 
L 454.656064 82.944157 
L 459.735196 82.305364 
L 464.814329 81.66429 
L 469.893461 81.020936 
L 474.972593 80.375306 
L 480.051725 79.727402 
L 485.130857 79.077226 
L 490.20999 78.424781 
L 495.289122 77.770068 
L 500.368254 77.11309 
L 505.447386 76.45385 
L 510.526519 75.79235 
L 515.605651 75.128592 
L 520.684783 74.462579 
L 525.763915 73.794313 
L 530.843048 73.123797 
L 535.92218 72.451033 
L 541.001312 71.776023 
L 546.080444 71.09877 
L 551.159576 70.419277 
L 556.238709 69.737546 
L 561.317841 69.053579 
L 566.396973 68.367379 
L 571.476105 67.678949 
L 576.555238 66.988291 
L 581.63437 66.295407 
L 586.713502 65.600301 
L 591.792634 64.902975 
L 596.871767 64.203431 
L 601.950899 63.501672 
L 607.030031 62.797701 
L 612.109163 62.09152 
L 617.188295 61.383131 
" style="fill:none;stroke:#1f77b4;stroke-linecap:square;stroke-width:5;"/>
   </g>
   <g id="line2d_15">
    <path clip-path="url(#p6c36ca50ba)" d="M 114.354205 121.068139 
L 119.433337 121.23473 
L 124.512469 121.594474 
L 129.591601 122.016588 
L 134.670733 122.460235 
L 139.749866 122.912364 
L 144.828998 123.367855 
L 149.90813 123.824343 
L 154.987262 124.280592 
L 160.066395 124.735901 
L 165.145527 125.189839 
L 170.224659 125.64213 
L 175.303791 126.092589 
L 180.382924 126.541084 
L 185.462056 126.987524 
L 190.541188 127.431837 
L 195.62032 127.873974 
L 200.699452 128.313893 
L 205.778585 128.751563 
L 210.857717 129.18696 
L 215.936849 129.620063 
L 221.015981 130.050856 
L 226.095114 130.479326 
L 231.174246 130.905461 
L 236.253378 131.329252 
L 241.33251 131.750691 
L 246.411643 132.169771 
L 251.490775 132.586486 
L 256.569907 133.000832 
L 261.649039 133.412803 
L 266.728171 133.822396 
L 271.807304 134.229607 
L 276.886436 134.634434 
L 281.965568 135.036874 
L 287.0447 135.436924 
L 292.123833 135.834582 
L 297.202965 136.229846 
L 302.282097 136.622716 
L 307.361229 137.013188 
L 312.440362 137.401262 
L 317.519494 137.786937 
L 322.598626 138.170211 
L 327.677758 138.551083 
L 332.75689 138.929553 
L 337.836023 139.30562 
L 342.915155 139.679282 
L 347.994287 140.05054 
L 353.073419 140.419392 
L 358.152552 140.785838 
L 363.231684 141.149878 
L 368.310816 141.511512 
L 373.389948 141.870738 
L 378.469081 142.227557 
L 383.548213 142.581968 
L 388.627345 142.933972 
L 393.706477 143.283567 
L 398.78561 143.630754 
L 403.864742 143.975534 
L 408.943874 144.317904 
L 414.023006 144.657867 
L 419.102138 144.995422 
L 424.181271 145.330568 
L 429.260403 145.663306 
L 434.339535 145.993637 
L 439.418667 146.321559 
L 444.4978 146.647074 
L 449.576932 146.970182 
L 454.656064 147.290883 
L 459.735196 147.609177 
L 464.814329 147.925064 
L 469.893461 148.238545 
L 474.972593 148.549621 
L 480.051725 148.858291 
L 485.130857 149.164556 
L 490.20999 149.468417 
L 495.289122 149.769874 
L 500.368254 150.068927 
L 505.447386 150.365577 
L 510.526519 150.659825 
L 515.605651 150.951671 
L 520.684783 151.241115 
L 525.763915 151.528159 
L 530.843048 151.812803 
L 535.92218 152.095048 
L 541.001312 152.374894 
L 546.080444 152.652342 
L 551.159576 152.927394 
L 556.238709 153.200049 
L 561.317841 153.470308 
L 566.396973 153.738172 
L 571.476105 154.003643 
L 576.555238 154.266721 
L 581.63437 154.527407 
L 586.713502 154.785701 
L 591.792634 155.041605 
L 596.871767 155.29512 
L 601.950899 155.546247 
L 607.030031 155.794986 
L 612.109163 156.041339 
L 617.188295 156.285307 
" style="fill:none;stroke:#1f77b4;stroke-linecap:square;stroke-width:5;"/>
   </g>
   <g id="patch_3">
    <path d="M 89.2125 245.106 
L 89.2125 33.048 
" style="fill:none;stroke:#000000;stroke-linecap:square;stroke-linejoin:miter;stroke-width:0.8;"/>
   </g>
   <g id="patch_4">
    <path d="M 642.33 245.106 
L 642.33 33.048 
" style="fill:none;stroke:#000000;stroke-linecap:square;stroke-linejoin:miter;stroke-width:0.8;"/>
   </g>
   <g id="patch_5">
    <path d="M 89.2125 245.106 
L 642.33 245.106 
" style="fill:none;stroke:#000000;stroke-linecap:square;stroke-linejoin:miter;stroke-width:0.8;"/>
   </g>
   <g id="patch_6">
    <path d="M 89.2125 33.048 
L 642.33 33.048 
" style="fill:none;stroke:#000000;stroke-linecap:square;stroke-linejoin:miter;stroke-width:0.8;"/>
   </g>
  </g>
 </g>
 <defs>
  <clipPath id="p6c36ca50ba">
   <rect height="212.058" width="553.1175" x="89.2125" y="33.048"/>
  </clipPath>
 </defs>
</svg>
