<?xml version="1.0" encoding="utf-8" standalone="no"?>
<!DOCTYPE svg PUBLIC "-//W3C//DTD SVG 1.1//EN"
  "http://www.w3.org/Graphics/SVG/1.1/DTD/svg11.dtd">
<!-- Created with matplotlib (http://matplotlib.org/) -->
<svg height="345.6pt" version="1.1" viewBox="0 0 460.8 345.6" width="460.8pt" xmlns="http://www.w3.org/2000/svg" xmlns:xlink="http://www.w3.org/1999/xlink">
 <defs>
  <style type="text/css">
*{stroke-linecap:butt;stroke-linejoin:round;}
  </style>
 </defs>
 <g id="figure_1">
  <g id="patch_1">
   <path d="M 0 345.6 
L 460.8 345.6 
L 460.8 0 
L 0 0 
z
" style="fill:#ffffff;"/>
  </g>
  <g id="axes_1">
   <g id="patch_2">
    <path d="M 57.6 307.584 
L 414.72 307.584 
L 414.72 41.472 
L 57.6 41.472 
z
" style="fill:#ffffff;"/>
   </g>
   <g id="PathCollection_1">
    <defs>
     <path d="M 0 1.767767 
C 0.468817 1.767767 0.918496 1.581504 1.25 1.25 
C 1.581504 0.918496 1.767767 0.468817 1.767767 0 
C 1.767767 -0.468817 1.581504 -0.918496 1.25 -1.25 
C 0.918496 -1.581504 0.468817 -1.767767 0 -1.767767 
C -0.468817 -1.767767 -0.918496 -1.581504 -1.25 -1.25 
C -1.581504 -0.918496 -1.767767 -0.468817 -1.767767 0 
C -1.767767 0.468817 -1.581504 0.918496 -1.25 1.25 
C -0.918496 1.581504 -0.468817 1.767767 0 1.767767 
z
" id="me3d584c82d" style="stroke:#ff0000;"/>
    </defs>
    <g clip-path="url(#p8f9c5d9ba3)">
     <use style="fill:#ff0000;stroke:#ff0000;" x="188.59731" xlink:href="#me3d584c82d" y="263.547781"/>
    </g>
   </g>
   <g id="PathCollection_2">
    <g clip-path="url(#p8f9c5d9ba3)">
     <use style="fill:#ff0000;stroke:#ff0000;" x="185.192642" xlink:href="#me3d584c82d" y="265.113184"/>
    </g>
   </g>
   <g id="PathCollection_3">
    <g clip-path="url(#p8f9c5d9ba3)">
     <use style="fill:#ff0000;stroke:#ff0000;" x="181.511951" xlink:href="#me3d584c82d" y="266.527851"/>
    </g>
   </g>
   <g id="PathCollection_4">
    <g clip-path="url(#p8f9c5d9ba3)">
     <use style="fill:#ff0000;stroke:#ff0000;" x="177.562144" xlink:href="#me3d584c82d" y="267.776447"/>
    </g>
   </g>
   <g id="PathCollection_5">
    <g clip-path="url(#p8f9c5d9ba3)">
     <use style="fill:#ff0000;stroke:#ff0000;" x="173.363628" xlink:href="#me3d584c82d" y="268.84525"/>
    </g>
   </g>
   <g id="PathCollection_6">
    <g clip-path="url(#p8f9c5d9ba3)">
     <use style="fill:#ff0000;stroke:#ff0000;" x="168.952384" xlink:href="#me3d584c82d" y="269.723175"/>
    </g>
   </g>
   <g id="PathCollection_7">
    <g clip-path="url(#p8f9c5d9ba3)">
     <use style="fill:#ff0000;stroke:#ff0000;" x="164.380268" xlink:href="#me3d584c82d" y="270.402859"/>
    </g>
   </g>
   <g id="PathCollection_8">
    <g clip-path="url(#p8f9c5d9ba3)">
     <use style="fill:#ff0000;stroke:#ff0000;" x="159.712796" xlink:href="#me3d584c82d" y="270.881611"/>
    </g>
   </g>
   <g id="PathCollection_9">
    <g clip-path="url(#p8f9c5d9ba3)">
     <use style="fill:#ff0000;stroke:#ff0000;" x="155.024281" xlink:href="#me3d584c82d" y="271.161999"/>
    </g>
   </g>
   <g id="PathCollection_10">
    <g clip-path="url(#p8f9c5d9ba3)">
     <use style="fill:#ff0000;stroke:#ff0000;" x="150.391051" xlink:href="#me3d584c82d" y="271.251908"/>
    </g>
   </g>
   <g id="PathCollection_11">
    <g clip-path="url(#p8f9c5d9ba3)">
     <use style="fill:#ff0000;stroke:#ff0000;" x="145.884199" xlink:href="#me3d584c82d" y="271.163993"/>
    </g>
   </g>
   <g id="PathCollection_12">
    <g clip-path="url(#p8f9c5d9ba3)">
     <use style="fill:#ff0000;stroke:#ff0000;" x="141.563522" xlink:href="#me3d584c82d" y="270.914634"/>
    </g>
   </g>
   <g id="PathCollection_13">
    <g clip-path="url(#p8f9c5d9ba3)">
     <use style="fill:#ff0000;stroke:#ff0000;" x="137.473819" xlink:href="#me3d584c82d" y="270.522603"/>
    </g>
   </g>
   <g id="PathCollection_14">
    <g clip-path="url(#p8f9c5d9ba3)">
     <use style="fill:#ff0000;stroke:#ff0000;" x="133.643875" xlink:href="#me3d584c82d" y="270.007708"/>
    </g>
   </g>
   <g id="PathCollection_15">
    <g clip-path="url(#p8f9c5d9ba3)">
     <use style="fill:#ff0000;stroke:#ff0000;" x="130.08767" xlink:href="#me3d584c82d" y="269.389605"/>
    </g>
   </g>
   <g id="matplotlib.axis_1">
    <g id="xtick_1">
     <g id="line2d_1">
      <defs>
       <path d="M 0 0 
L 0 3.5 
" id="m57ed921456" style="stroke:#000000;stroke-width:0.8;"/>
      </defs>
      <g>
       <use style="stroke:#000000;stroke-width:0.8;" x="73.832727" xlink:href="#m57ed921456" y="307.584"/>
      </g>
     </g>
     <g id="text_1">
      <!-- 0 -->
      <defs>
       <path d="M 31.78125 66.40625 
Q 24.171875 66.40625 20.328125 58.90625 
Q 16.5 51.421875 16.5 36.375 
Q 16.5 21.390625 20.328125 13.890625 
Q 24.171875 6.390625 31.78125 6.390625 
Q 39.453125 6.390625 43.28125 13.890625 
Q 47.125 21.390625 47.125 36.375 
Q 47.125 51.421875 43.28125 58.90625 
Q 39.453125 66.40625 31.78125 66.40625 
z
M 31.78125 74.21875 
Q 44.046875 74.21875 50.515625 64.515625 
Q 56.984375 54.828125 56.984375 36.375 
Q 56.984375 17.96875 50.515625 8.265625 
Q 44.046875 -1.421875 31.78125 -1.421875 
Q 19.53125 -1.421875 13.0625 8.265625 
Q 6.59375 17.96875 6.59375 36.375 
Q 6.59375 54.828125 13.0625 64.515625 
Q 19.53125 74.21875 31.78125 74.21875 
z
" id="DejaVuSans-30"/>
      </defs>
      <g transform="translate(69.060852 325.981656)scale(0.15 -0.15)">
       <use xlink:href="#DejaVuSans-30"/>
      </g>
     </g>
    </g>
    <g id="xtick_2">
     <g id="line2d_2">
      <g>
       <use style="stroke:#000000;stroke-width:0.8;" x="164.014545" xlink:href="#m57ed921456" y="307.584"/>
      </g>
     </g>
     <g id="text_2">
      <!-- 100 -->
      <defs>
       <path d="M 12.40625 8.296875 
L 28.515625 8.296875 
L 28.515625 63.921875 
L 10.984375 60.40625 
L 10.984375 69.390625 
L 28.421875 72.90625 
L 38.28125 72.90625 
L 38.28125 8.296875 
L 54.390625 8.296875 
L 54.390625 0 
L 12.40625 0 
z
" id="DejaVuSans-31"/>
      </defs>
      <g transform="translate(149.69892 325.981656)scale(0.15 -0.15)">
       <use xlink:href="#DejaVuSans-31"/>
       <use x="63.623047" xlink:href="#DejaVuSans-30"/>
       <use x="127.246094" xlink:href="#DejaVuSans-30"/>
      </g>
     </g>
    </g>
    <g id="xtick_3">
     <g id="line2d_3">
      <g>
       <use style="stroke:#000000;stroke-width:0.8;" x="254.196364" xlink:href="#m57ed921456" y="307.584"/>
      </g>
     </g>
     <g id="text_3">
      <!-- 200 -->
      <defs>
       <path d="M 19.1875 8.296875 
L 53.609375 8.296875 
L 53.609375 0 
L 7.328125 0 
L 7.328125 8.296875 
Q 12.9375 14.109375 22.625 23.890625 
Q 32.328125 33.6875 34.8125 36.53125 
Q 39.546875 41.84375 41.421875 45.53125 
Q 43.3125 49.21875 43.3125 52.78125 
Q 43.3125 58.59375 39.234375 62.25 
Q 35.15625 65.921875 28.609375 65.921875 
Q 23.96875 65.921875 18.8125 64.3125 
Q 13.671875 62.703125 7.8125 59.421875 
L 7.8125 69.390625 
Q 13.765625 71.78125 18.9375 73 
Q 24.125 74.21875 28.421875 74.21875 
Q 39.75 74.21875 46.484375 68.546875 
Q 53.21875 62.890625 53.21875 53.421875 
Q 53.21875 48.921875 51.53125 44.890625 
Q 49.859375 40.875 45.40625 35.40625 
Q 44.1875 33.984375 37.640625 27.21875 
Q 31.109375 20.453125 19.1875 8.296875 
z
" id="DejaVuSans-32"/>
      </defs>
      <g transform="translate(239.880739 325.981656)scale(0.15 -0.15)">
       <use xlink:href="#DejaVuSans-32"/>
       <use x="63.623047" xlink:href="#DejaVuSans-30"/>
       <use x="127.246094" xlink:href="#DejaVuSans-30"/>
      </g>
     </g>
    </g>
    <g id="xtick_4">
     <g id="line2d_4">
      <g>
       <use style="stroke:#000000;stroke-width:0.8;" x="344.378182" xlink:href="#m57ed921456" y="307.584"/>
      </g>
     </g>
     <g id="text_4">
      <!-- 300 -->
      <defs>
       <path d="M 40.578125 39.3125 
Q 47.65625 37.796875 51.625 33 
Q 55.609375 28.21875 55.609375 21.1875 
Q 55.609375 10.40625 48.1875 4.484375 
Q 40.765625 -1.421875 27.09375 -1.421875 
Q 22.515625 -1.421875 17.65625 -0.515625 
Q 12.796875 0.390625 7.625 2.203125 
L 7.625 11.71875 
Q 11.71875 9.328125 16.59375 8.109375 
Q 21.484375 6.890625 26.8125 6.890625 
Q 36.078125 6.890625 40.9375 10.546875 
Q 45.796875 14.203125 45.796875 21.1875 
Q 45.796875 27.640625 41.28125 31.265625 
Q 36.765625 34.90625 28.71875 34.90625 
L 20.21875 34.90625 
L 20.21875 43.015625 
L 29.109375 43.015625 
Q 36.375 43.015625 40.234375 45.921875 
Q 44.09375 48.828125 44.09375 54.296875 
Q 44.09375 59.90625 40.109375 62.90625 
Q 36.140625 65.921875 28.71875 65.921875 
Q 24.65625 65.921875 20.015625 65.03125 
Q 15.375 64.15625 9.8125 62.3125 
L 9.8125 71.09375 
Q 15.4375 72.65625 20.34375 73.4375 
Q 25.25 74.21875 29.59375 74.21875 
Q 40.828125 74.21875 47.359375 69.109375 
Q 53.90625 64.015625 53.90625 55.328125 
Q 53.90625 49.265625 50.4375 45.09375 
Q 46.96875 40.921875 40.578125 39.3125 
z
" id="DejaVuSans-33"/>
      </defs>
      <g transform="translate(330.062557 325.981656)scale(0.15 -0.15)">
       <use xlink:href="#DejaVuSans-33"/>
       <use x="63.623047" xlink:href="#DejaVuSans-30"/>
       <use x="127.246094" xlink:href="#DejaVuSans-30"/>
      </g>
     </g>
    </g>
   </g>
   <g id="matplotlib.axis_2">
    <g id="ytick_1">
     <g id="line2d_5">
      <defs>
       <path d="M 0 0 
L -3.5 0 
" id="mdc08afae94" style="stroke:#000000;stroke-width:0.8;"/>
      </defs>
      <g>
       <use style="stroke:#000000;stroke-width:0.8;" x="57.6" xlink:href="#mdc08afae94" y="295.488"/>
      </g>
     </g>
     <g id="text_5">
      <!-- 0 -->
      <g transform="translate(41.05625 301.186828)scale(0.15 -0.15)">
       <use xlink:href="#DejaVuSans-30"/>
      </g>
     </g>
    </g>
    <g id="ytick_2">
     <g id="line2d_6">
      <g>
       <use style="stroke:#000000;stroke-width:0.8;" x="57.6" xlink:href="#mdc08afae94" y="261.888"/>
      </g>
     </g>
     <g id="text_6">
      <!-- 25 -->
      <defs>
       <path d="M 10.796875 72.90625 
L 49.515625 72.90625 
L 49.515625 64.59375 
L 19.828125 64.59375 
L 19.828125 46.734375 
Q 21.96875 47.46875 24.109375 47.828125 
Q 26.265625 48.1875 28.421875 48.1875 
Q 40.625 48.1875 47.75 41.5 
Q 54.890625 34.8125 54.890625 23.390625 
Q 54.890625 11.625 47.5625 5.09375 
Q 40.234375 -1.421875 26.90625 -1.421875 
Q 22.3125 -1.421875 17.546875 -0.640625 
Q 12.796875 0.140625 7.71875 1.703125 
L 7.71875 11.625 
Q 12.109375 9.234375 16.796875 8.0625 
Q 21.484375 6.890625 26.703125 6.890625 
Q 35.15625 6.890625 40.078125 11.328125 
Q 45.015625 15.765625 45.015625 23.390625 
Q 45.015625 31 40.078125 35.4375 
Q 35.15625 39.890625 26.703125 39.890625 
Q 22.75 39.890625 18.8125 39.015625 
Q 14.890625 38.140625 10.796875 36.28125 
z
" id="DejaVuSans-35"/>
      </defs>
      <g transform="translate(31.5125 267.586828)scale(0.15 -0.15)">
       <use xlink:href="#DejaVuSans-32"/>
       <use x="63.623047" xlink:href="#DejaVuSans-35"/>
      </g>
     </g>
    </g>
    <g id="ytick_3">
     <g id="line2d_7">
      <g>
       <use style="stroke:#000000;stroke-width:0.8;" x="57.6" xlink:href="#mdc08afae94" y="228.288"/>
      </g>
     </g>
     <g id="text_7">
      <!-- 50 -->
      <g transform="translate(31.5125 233.986828)scale(0.15 -0.15)">
       <use xlink:href="#DejaVuSans-35"/>
       <use x="63.623047" xlink:href="#DejaVuSans-30"/>
      </g>
     </g>
    </g>
    <g id="ytick_4">
     <g id="line2d_8">
      <g>
       <use style="stroke:#000000;stroke-width:0.8;" x="57.6" xlink:href="#mdc08afae94" y="194.688"/>
      </g>
     </g>
     <g id="text_8">
      <!-- 75 -->
      <defs>
       <path d="M 8.203125 72.90625 
L 55.078125 72.90625 
L 55.078125 68.703125 
L 28.609375 0 
L 18.3125 0 
L 43.21875 64.59375 
L 8.203125 64.59375 
z
" id="DejaVuSans-37"/>
      </defs>
      <g transform="translate(31.5125 200.386828)scale(0.15 -0.15)">
       <use xlink:href="#DejaVuSans-37"/>
       <use x="63.623047" xlink:href="#DejaVuSans-35"/>
      </g>
     </g>
    </g>
    <g id="ytick_5">
     <g id="line2d_9">
      <g>
       <use style="stroke:#000000;stroke-width:0.8;" x="57.6" xlink:href="#mdc08afae94" y="161.088"/>
      </g>
     </g>
     <g id="text_9">
      <!-- 100 -->
      <g transform="translate(21.96875 166.786828)scale(0.15 -0.15)">
       <use xlink:href="#DejaVuSans-31"/>
       <use x="63.623047" xlink:href="#DejaVuSans-30"/>
       <use x="127.246094" xlink:href="#DejaVuSans-30"/>
      </g>
     </g>
    </g>
    <g id="ytick_6">
     <g id="line2d_10">
      <g>
       <use style="stroke:#000000;stroke-width:0.8;" x="57.6" xlink:href="#mdc08afae94" y="127.488"/>
      </g>
     </g>
     <g id="text_10">
      <!-- 125 -->
      <g transform="translate(21.96875 133.186828)scale(0.15 -0.15)">
       <use xlink:href="#DejaVuSans-31"/>
       <use x="63.623047" xlink:href="#DejaVuSans-32"/>
       <use x="127.246094" xlink:href="#DejaVuSans-35"/>
      </g>
     </g>
    </g>
    <g id="ytick_7">
     <g id="line2d_11">
      <g>
       <use style="stroke:#000000;stroke-width:0.8;" x="57.6" xlink:href="#mdc08afae94" y="93.888"/>
      </g>
     </g>
     <g id="text_11">
      <!-- 150 -->
      <g transform="translate(21.96875 99.586828)scale(0.15 -0.15)">
       <use xlink:href="#DejaVuSans-31"/>
       <use x="63.623047" xlink:href="#DejaVuSans-35"/>
       <use x="127.246094" xlink:href="#DejaVuSans-30"/>
      </g>
     </g>
    </g>
    <g id="ytick_8">
     <g id="line2d_12">
      <g>
       <use style="stroke:#000000;stroke-width:0.8;" x="57.6" xlink:href="#mdc08afae94" y="60.288"/>
      </g>
     </g>
     <g id="text_12">
      <!-- 175 -->
      <g transform="translate(21.96875 65.986828)scale(0.15 -0.15)">
       <use xlink:href="#DejaVuSans-31"/>
       <use x="63.623047" xlink:href="#DejaVuSans-37"/>
       <use x="127.246094" xlink:href="#DejaVuSans-35"/>
      </g>
     </g>
    </g>
   </g>
   <g id="line2d_13">
    <path clip-path="url(#p8f9c5d9ba3)" d="M 154.996364 295.488 
L 154.996364 53.568 
" style="fill:none;stroke:#1f77b4;stroke-linecap:square;stroke-width:3;"/>
   </g>
   <g id="line2d_14">
    <path clip-path="url(#p8f9c5d9ba3)" d="M 317.323636 295.488 
L 317.323636 53.568 
" style="fill:none;stroke:#1f77b4;stroke-linecap:square;stroke-width:3;"/>
   </g>
   <g id="line2d_15">
    <path clip-path="url(#p8f9c5d9ba3)" d="M 236.16 295.488 
L 236.16 53.568 
" style="fill:none;stroke:#1f77b4;stroke-linecap:square;stroke-width:3;"/>
   </g>
   <g id="line2d_16">
    <path clip-path="url(#p8f9c5d9ba3)" d="M 73.832727 295.488 
L 73.832727 53.568 
" style="fill:none;stroke:#1f77b4;stroke-linecap:square;stroke-width:1.5;"/>
   </g>
   <g id="line2d_17">
    <path clip-path="url(#p8f9c5d9ba3)" d="M 398.487273 295.488 
L 398.487273 53.568 
" style="fill:none;stroke:#1f77b4;stroke-linecap:square;stroke-width:1.5;"/>
   </g>
   <g id="line2d_18">
    <path clip-path="url(#p8f9c5d9ba3)" d="M 73.832727 174.528 
L 398.487273 174.528 
" style="fill:none;stroke:#1f77b4;stroke-linecap:square;stroke-width:3;"/>
   </g>
   <g id="line2d_19">
    <path clip-path="url(#p8f9c5d9ba3)" d="M 195.578182 295.488 
L 195.578182 53.568 
" style="fill:none;stroke:#ff7f0e;stroke-dasharray:7.4,3.2;stroke-dashoffset:0;stroke-width:2;"/>
   </g>
   <g id="line2d_20">
    <path clip-path="url(#p8f9c5d9ba3)" d="M 357.905455 295.488 
L 357.905455 53.568 
" style="fill:none;stroke:#ff7f0e;stroke-dasharray:7.4,3.2;stroke-dashoffset:0;stroke-width:2;"/>
   </g>
   <g id="line2d_21">
    <path clip-path="url(#p8f9c5d9ba3)" d="M 114.414545 295.488 
L 114.414545 53.568 
" style="fill:none;stroke:#ff7f0e;stroke-dasharray:7.4,3.2;stroke-dashoffset:0;stroke-width:2;"/>
   </g>
   <g id="line2d_22">
    <path clip-path="url(#p8f9c5d9ba3)" d="M 276.741818 295.488 
L 276.741818 53.568 
" style="fill:none;stroke:#ff7f0e;stroke-dasharray:7.4,3.2;stroke-dashoffset:0;stroke-width:2;"/>
   </g>
   <g id="line2d_23">
    <path clip-path="url(#p8f9c5d9ba3)" d="M 73.832727 114.048 
L 77.736389 114.157986 
L 81.640051 114.489198 
L 85.543713 115.045403 
L 89.447375 115.832888 
L 93.351037 116.860452 
L 97.254698 118.139386 
L 101.15836 119.683384 
L 105.062022 121.50837 
L 108.315074 123.25665 
L 111.568125 125.223474 
L 114.821177 127.420214 
L 118.074228 129.858074 
L 121.32728 132.547435 
L 124.580332 135.497005 
L 127.833383 138.712758 
L 131.086435 142.196676 
L 134.990097 146.726092 
L 138.893758 151.617319 
L 143.448031 157.731719 
L 148.652913 165.144661 
L 157.761457 178.642994 
L 164.267561 188.12787 
L 168.821833 194.431997 
L 172.725495 199.518758 
L 176.629156 204.26259 
L 180.532818 208.634734 
L 184.43648 212.622397 
L 187.689532 215.651351 
L 190.942583 218.417962 
L 194.195635 220.93024 
L 197.448686 223.198163 
L 200.701738 225.232765 
L 203.95479 227.045425 
L 207.858451 228.94338 
L 211.762113 230.55605 
L 215.665775 231.899875 
L 219.569437 232.989128 
L 223.473099 233.835709 
L 227.376761 234.449047 
L 231.280423 234.836056 
L 235.184085 235.001132 
L 239.087746 234.946159 
L 242.991408 234.670508 
L 246.89507 234.171042 
L 250.798732 233.442104 
L 254.702394 232.475522 
L 258.606056 231.260622 
L 262.509718 229.784301 
L 266.413379 228.031166 
L 269.666431 226.346268 
L 272.919483 224.446196 
L 276.172534 222.319625 
L 279.425586 219.955243 
L 282.678637 217.342341 
L 285.931689 214.471608 
L 289.18474 211.336126 
L 292.437792 207.932573 
L 296.341454 203.4972 
L 300.245116 198.693743 
L 304.148778 193.553889 
L 308.70305 187.20029 
L 315.209153 177.676627 
L 326.269528 161.391183 
L 330.8238 155.062041 
L 335.378073 149.128311 
L 339.281734 144.414595 
L 343.185396 140.0742 
L 347.089058 136.118732 
L 350.34211 133.116295 
L 353.595161 130.375518 
L 356.848213 127.888148 
L 360.101264 125.644064 
L 363.354316 123.632169 
L 366.607367 121.841081 
L 370.511029 119.967575 
L 374.414691 118.377908 
L 378.318353 117.055811 
L 382.222015 115.987202 
L 386.125677 115.160383 
L 390.029339 114.566135 
L 393.933001 114.197754 
L 397.836662 114.051052 
L 398.487273 114.048 
L 398.487273 114.048 
" style="fill:none;stroke:#ff7f0e;stroke-dasharray:7.4,3.2;stroke-dashoffset:0;stroke-width:2;"/>
   </g>
   <g id="line2d_24">
    <path clip-path="url(#p8f9c5d9ba3)" d="M 73.832727 235.008 
L 77.736389 234.898014 
L 81.640051 234.566802 
L 85.543713 234.010597 
L 89.447375 233.223112 
L 93.351037 232.195548 
L 97.254698 230.916614 
L 101.15836 229.372616 
L 105.062022 227.54763 
L 108.315074 225.79935 
L 111.568125 223.832526 
L 114.821177 221.635786 
L 118.074228 219.197926 
L 121.32728 216.508565 
L 124.580332 213.558995 
L 127.833383 210.343242 
L 131.086435 206.859324 
L 134.990097 202.329908 
L 138.893758 197.438681 
L 143.448031 191.324281 
L 148.652913 183.911339 
L 157.761457 170.413006 
L 164.267561 160.92813 
L 168.821833 154.624003 
L 172.725495 149.537242 
L 176.629156 144.79341 
L 180.532818 140.421266 
L 184.43648 136.433603 
L 187.689532 133.404649 
L 190.942583 130.638038 
L 194.195635 128.12576 
L 197.448686 125.857837 
L 200.701738 123.823235 
L 203.95479 122.010575 
L 207.858451 120.11262 
L 211.762113 118.49995 
L 215.665775 117.156125 
L 219.569437 116.066872 
L 223.473099 115.220291 
L 227.376761 114.606953 
L 231.280423 114.219944 
L 235.184085 114.054868 
L 239.087746 114.109841 
L 242.991408 114.385492 
L 246.89507 114.884958 
L 250.798732 115.613896 
L 254.702394 116.580478 
L 258.606056 117.795378 
L 262.509718 119.271699 
L 266.413379 121.024834 
L 269.666431 122.709732 
L 272.919483 124.609804 
L 276.172534 126.736375 
L 279.425586 129.100757 
L 282.678637 131.713659 
L 285.931689 134.584392 
L 289.18474 137.719874 
L 292.437792 141.123427 
L 296.341454 145.5588 
L 300.245116 150.362257 
L 304.148778 155.502111 
L 308.70305 161.85571 
L 315.209153 171.379373 
L 326.269528 187.664817 
L 330.8238 193.993959 
L 335.378073 199.927689 
L 339.281734 204.641405 
L 343.185396 208.9818 
L 347.089058 212.937268 
L 350.34211 215.939705 
L 353.595161 218.680482 
L 356.848213 221.167852 
L 360.101264 223.411936 
L 363.354316 225.423831 
L 366.607367 227.214919 
L 370.511029 229.088425 
L 374.414691 230.678092 
L 378.318353 232.000189 
L 382.222015 233.068798 
L 386.125677 233.895617 
L 390.029339 234.489865 
L 393.933001 234.858246 
L 397.836662 235.004948 
L 398.487273 235.008 
L 398.487273 235.008 
" style="fill:none;stroke:#ff7f0e;stroke-dasharray:7.4,3.2;stroke-dashoffset:0;stroke-width:2;"/>
   </g>
   <g id="line2d_25">
    <path clip-path="url(#p8f9c5d9ba3)" d="M 73.832727 174.528 
L 82.290661 162.088511 
L 87.495544 154.842766 
L 92.049816 148.92475 
L 95.953478 144.226162 
L 99.85714 139.901672 
L 103.760802 135.962299 
L 107.013853 132.9731 
L 110.266905 130.245209 
L 113.519956 127.770255 
L 116.773008 125.538049 
L 120.026059 123.537465 
L 123.279111 121.757121 
L 127.182773 119.895791 
L 131.086435 118.317584 
L 134.990097 117.006314 
L 138.893758 115.947996 
L 142.79742 115.131034 
L 146.701082 114.546314 
L 150.604744 114.187236 
L 154.508406 114.049717 
L 158.412068 114.132189 
L 162.31573 114.435593 
L 166.219392 114.963382 
L 170.123053 115.721527 
L 174.026715 116.718515 
L 177.930377 117.965327 
L 181.834039 119.475364 
L 185.737701 121.264287 
L 188.990752 122.980751 
L 192.243804 124.914072 
L 195.496856 127.0756 
L 198.749907 129.476601 
L 202.002959 132.12763 
L 205.25601 135.037708 
L 208.509062 138.213295 
L 211.762113 141.657056 
L 215.665775 146.139583 
L 219.569437 150.987189 
L 224.123709 157.05786 
L 229.328592 164.434831 
L 237.135915 175.98217 
L 244.943239 187.432735 
L 250.148122 194.650243 
L 254.051784 199.723524 
L 257.955445 204.452322 
L 261.859107 208.808602 
L 265.762769 212.780167 
L 269.015821 215.795856 
L 272.268872 218.54954 
L 275.521924 221.049351 
L 278.774975 223.305341 
L 282.028027 225.328575 
L 285.281079 227.130435 
L 289.18474 229.016149 
L 293.088402 230.617304 
L 296.992064 231.950252 
L 300.895726 233.029173 
L 304.799388 233.865865 
L 308.70305 234.469652 
L 312.606712 234.847343 
L 316.510373 235.003231 
L 320.414035 234.939092 
L 324.317697 234.654197 
L 328.221359 234.145299 
L 332.125021 233.40664 
L 336.028683 232.429941 
L 339.932345 231.204428 
L 343.836007 229.716894 
L 347.739668 227.951861 
L 350.99272 226.256468 
L 354.245772 224.345341 
L 357.498823 222.207147 
L 360.751875 219.830585 
L 364.004926 217.204997 
L 367.257978 214.321166 
L 370.511029 211.172324 
L 373.764081 207.755363 
L 377.667743 203.304245 
L 381.571405 198.486015 
L 385.475066 193.333102 
L 390.029339 186.967489 
L 396.535442 177.434785 
L 398.487273 174.528 
L 398.487273 174.528 
" style="fill:none;stroke:#ff7f0e;stroke-dasharray:7.4,3.2;stroke-dashoffset:0;stroke-width:2;"/>
   </g>
   <g id="line2d_26">
    <path clip-path="url(#p8f9c5d9ba3)" d="M 73.832727 174.528 
L 82.290661 186.967489 
L 87.495544 194.213234 
L 92.049816 200.13125 
L 95.953478 204.829838 
L 99.85714 209.154328 
L 103.760802 213.093701 
L 107.013853 216.0829 
L 110.266905 218.810791 
L 113.519956 221.285745 
L 116.773008 223.517951 
L 120.026059 225.518535 
L 123.279111 227.298879 
L 127.182773 229.160209 
L 131.086435 230.738416 
L 134.990097 232.049686 
L 138.893758 233.108004 
L 142.79742 233.924966 
L 146.701082 234.509686 
L 150.604744 234.868764 
L 154.508406 235.006283 
L 158.412068 234.923811 
L 162.31573 234.620407 
L 166.219392 234.092618 
L 170.123053 233.334473 
L 174.026715 232.337485 
L 177.930377 231.090673 
L 181.834039 229.580636 
L 185.737701 227.791713 
L 188.990752 226.075249 
L 192.243804 224.141928 
L 195.496856 221.9804 
L 198.749907 219.579399 
L 202.002959 216.92837 
L 205.25601 214.018292 
L 208.509062 210.842705 
L 211.762113 207.398944 
L 215.665775 202.916417 
L 219.569437 198.068811 
L 224.123709 191.99814 
L 229.328592 184.621169 
L 237.135915 173.07383 
L 244.943239 161.623265 
L 250.148122 154.405757 
L 254.051784 149.332476 
L 257.955445 144.603678 
L 261.859107 140.247398 
L 265.762769 136.275833 
L 269.015821 133.260144 
L 272.268872 130.50646 
L 275.521924 128.006649 
L 278.774975 125.750659 
L 282.028027 123.727425 
L 285.281079 121.925565 
L 289.18474 120.039851 
L 293.088402 118.438696 
L 296.992064 117.105748 
L 300.895726 116.026827 
L 304.799388 115.190135 
L 308.70305 114.586348 
L 312.606712 114.208657 
L 316.510373 114.052769 
L 320.414035 114.116908 
L 324.317697 114.401803 
L 328.221359 114.910701 
L 332.125021 115.64936 
L 336.028683 116.626059 
L 339.932345 117.851572 
L 343.836007 119.339106 
L 347.739668 121.104139 
L 350.99272 122.799532 
L 354.245772 124.710659 
L 357.498823 126.848853 
L 360.751875 129.225415 
L 364.004926 131.851003 
L 367.257978 134.734834 
L 370.511029 137.883676 
L 373.764081 141.300637 
L 377.667743 145.751755 
L 381.571405 150.569985 
L 385.475066 155.722898 
L 390.029339 162.088511 
L 396.535442 171.621215 
L 398.487273 174.528 
L 398.487273 174.528 
" style="fill:none;stroke:#ff7f0e;stroke-dasharray:7.4,3.2;stroke-dashoffset:0;stroke-width:2;"/>
   </g>
   <g id="patch_3">
    <path d="M 57.6 307.584 
L 57.6 41.472 
" style="fill:none;stroke:#000000;stroke-linecap:square;stroke-linejoin:miter;stroke-width:0.8;"/>
   </g>
   <g id="patch_4">
    <path d="M 414.72 307.584 
L 414.72 41.472 
" style="fill:none;stroke:#000000;stroke-linecap:square;stroke-linejoin:miter;stroke-width:0.8;"/>
   </g>
   <g id="patch_5">
    <path d="M 57.6 307.584 
L 414.72 307.584 
" style="fill:none;stroke:#000000;stroke-linecap:square;stroke-linejoin:miter;stroke-width:0.8;"/>
   </g>
   <g id="patch_6">
    <path d="M 57.6 41.472 
L 414.72 41.472 
" style="fill:none;stroke:#000000;stroke-linecap:square;stroke-linejoin:miter;stroke-width:0.8;"/>
   </g>
  </g>
 </g>
 <defs>
  <clipPath id="p8f9c5d9ba3">
   <rect height="266.112" width="357.12" x="57.6" y="41.472"/>
  </clipPath>
 </defs>
</svg>
