<?xml version="1.0" encoding="utf-8" standalone="no"?>
<!DOCTYPE svg PUBLIC "-//W3C//DTD SVG 1.1//EN"
  "http://www.w3.org/Graphics/SVG/1.1/DTD/svg11.dtd">
<!-- Created with matplotlib (http://matplotlib.org/) -->
<svg height="345.6pt" version="1.1" viewBox="0 0 460.8 345.6" width="460.8pt" xmlns="http://www.w3.org/2000/svg" xmlns:xlink="http://www.w3.org/1999/xlink">
 <defs>
  <style type="text/css">
*{stroke-linecap:butt;stroke-linejoin:round;}
  </style>
 </defs>
 <g id="figure_1">
  <g id="patch_1">
   <path d="M 0 345.6 
L 460.8 345.6 
L 460.8 0 
L 0 0 
z
" style="fill:#ffffff;"/>
  </g>
  <g id="axes_1">
   <g id="patch_2">
    <path d="M 57.6 162.432 
L 414.72 162.432 
L 414.72 41.472 
L 57.6 41.472 
z
" style="fill:#ffffff;"/>
   </g>
   <g id="matplotlib.axis_1">
    <g id="xtick_1">
     <g id="line2d_1">
      <defs>
       <path d="M 0 0 
L 0 3.5 
" id="me927a1e3a7" style="stroke:#000000;stroke-width:0.8;"/>
      </defs>
      <g>
       <use style="stroke:#000000;stroke-width:0.8;" x="73.832727" xlink:href="#me927a1e3a7" y="162.432"/>
      </g>
     </g>
     <g id="text_1">
      <!-- 0 -->
      <defs>
       <path d="M 31.78125 66.40625 
Q 24.171875 66.40625 20.328125 58.90625 
Q 16.5 51.421875 16.5 36.375 
Q 16.5 21.390625 20.328125 13.890625 
Q 24.171875 6.390625 31.78125 6.390625 
Q 39.453125 6.390625 43.28125 13.890625 
Q 47.125 21.390625 47.125 36.375 
Q 47.125 51.421875 43.28125 58.90625 
Q 39.453125 66.40625 31.78125 66.40625 
z
M 31.78125 74.21875 
Q 44.046875 74.21875 50.515625 64.515625 
Q 56.984375 54.828125 56.984375 36.375 
Q 56.984375 17.96875 50.515625 8.265625 
Q 44.046875 -1.421875 31.78125 -1.421875 
Q 19.53125 -1.421875 13.0625 8.265625 
Q 6.59375 17.96875 6.59375 36.375 
Q 6.59375 54.828125 13.0625 64.515625 
Q 19.53125 74.21875 31.78125 74.21875 
z
" id="DejaVuSans-30"/>
      </defs>
      <g transform="translate(69.060852 180.829656)scale(0.15 -0.15)">
       <use xlink:href="#DejaVuSans-30"/>
      </g>
     </g>
    </g>
    <g id="xtick_2">
     <g id="line2d_2">
      <g>
       <use style="stroke:#000000;stroke-width:0.8;" x="144.201014" xlink:href="#me927a1e3a7" y="162.432"/>
      </g>
     </g>
     <g id="text_2">
      <!-- 10 -->
      <defs>
       <path d="M 12.40625 8.296875 
L 28.515625 8.296875 
L 28.515625 63.921875 
L 10.984375 60.40625 
L 10.984375 69.390625 
L 28.421875 72.90625 
L 38.28125 72.90625 
L 38.28125 8.296875 
L 54.390625 8.296875 
L 54.390625 0 
L 12.40625 0 
z
" id="DejaVuSans-31"/>
      </defs>
      <g transform="translate(134.657264 180.829656)scale(0.15 -0.15)">
       <use xlink:href="#DejaVuSans-31"/>
       <use x="63.623047" xlink:href="#DejaVuSans-30"/>
      </g>
     </g>
    </g>
    <g id="xtick_3">
     <g id="line2d_3">
      <g>
       <use style="stroke:#000000;stroke-width:0.8;" x="214.569301" xlink:href="#me927a1e3a7" y="162.432"/>
      </g>
     </g>
     <g id="text_3">
      <!-- 20 -->
      <defs>
       <path d="M 19.1875 8.296875 
L 53.609375 8.296875 
L 53.609375 0 
L 7.328125 0 
L 7.328125 8.296875 
Q 12.9375 14.109375 22.625 23.890625 
Q 32.328125 33.6875 34.8125 36.53125 
Q 39.546875 41.84375 41.421875 45.53125 
Q 43.3125 49.21875 43.3125 52.78125 
Q 43.3125 58.59375 39.234375 62.25 
Q 35.15625 65.921875 28.609375 65.921875 
Q 23.96875 65.921875 18.8125 64.3125 
Q 13.671875 62.703125 7.8125 59.421875 
L 7.8125 69.390625 
Q 13.765625 71.78125 18.9375 73 
Q 24.125 74.21875 28.421875 74.21875 
Q 39.75 74.21875 46.484375 68.546875 
Q 53.21875 62.890625 53.21875 53.421875 
Q 53.21875 48.921875 51.53125 44.890625 
Q 49.859375 40.875 45.40625 35.40625 
Q 44.1875 33.984375 37.640625 27.21875 
Q 31.109375 20.453125 19.1875 8.296875 
z
" id="DejaVuSans-32"/>
      </defs>
      <g transform="translate(205.025551 180.829656)scale(0.15 -0.15)">
       <use xlink:href="#DejaVuSans-32"/>
       <use x="63.623047" xlink:href="#DejaVuSans-30"/>
      </g>
     </g>
    </g>
    <g id="xtick_4">
     <g id="line2d_4">
      <g>
       <use style="stroke:#000000;stroke-width:0.8;" x="284.937588" xlink:href="#me927a1e3a7" y="162.432"/>
      </g>
     </g>
     <g id="text_4">
      <!-- 30 -->
      <defs>
       <path d="M 40.578125 39.3125 
Q 47.65625 37.796875 51.625 33 
Q 55.609375 28.21875 55.609375 21.1875 
Q 55.609375 10.40625 48.1875 4.484375 
Q 40.765625 -1.421875 27.09375 -1.421875 
Q 22.515625 -1.421875 17.65625 -0.515625 
Q 12.796875 0.390625 7.625 2.203125 
L 7.625 11.71875 
Q 11.71875 9.328125 16.59375 8.109375 
Q 21.484375 6.890625 26.8125 6.890625 
Q 36.078125 6.890625 40.9375 10.546875 
Q 45.796875 14.203125 45.796875 21.1875 
Q 45.796875 27.640625 41.28125 31.265625 
Q 36.765625 34.90625 28.71875 34.90625 
L 20.21875 34.90625 
L 20.21875 43.015625 
L 29.109375 43.015625 
Q 36.375 43.015625 40.234375 45.921875 
Q 44.09375 48.828125 44.09375 54.296875 
Q 44.09375 59.90625 40.109375 62.90625 
Q 36.140625 65.921875 28.71875 65.921875 
Q 24.65625 65.921875 20.015625 65.03125 
Q 15.375 64.15625 9.8125 62.3125 
L 9.8125 71.09375 
Q 15.4375 72.65625 20.34375 73.4375 
Q 25.25 74.21875 29.59375 74.21875 
Q 40.828125 74.21875 47.359375 69.109375 
Q 53.90625 64.015625 53.90625 55.328125 
Q 53.90625 49.265625 50.4375 45.09375 
Q 46.96875 40.921875 40.578125 39.3125 
z
" id="DejaVuSans-33"/>
      </defs>
      <g transform="translate(275.393838 180.829656)scale(0.15 -0.15)">
       <use xlink:href="#DejaVuSans-33"/>
       <use x="63.623047" xlink:href="#DejaVuSans-30"/>
      </g>
     </g>
    </g>
    <g id="xtick_5">
     <g id="line2d_5">
      <g>
       <use style="stroke:#000000;stroke-width:0.8;" x="355.305875" xlink:href="#me927a1e3a7" y="162.432"/>
      </g>
     </g>
     <g id="text_5">
      <!-- 40 -->
      <defs>
       <path d="M 37.796875 64.3125 
L 12.890625 25.390625 
L 37.796875 25.390625 
z
M 35.203125 72.90625 
L 47.609375 72.90625 
L 47.609375 25.390625 
L 58.015625 25.390625 
L 58.015625 17.1875 
L 47.609375 17.1875 
L 47.609375 0 
L 37.796875 0 
L 37.796875 17.1875 
L 4.890625 17.1875 
L 4.890625 26.703125 
z
" id="DejaVuSans-34"/>
      </defs>
      <g transform="translate(345.762125 180.829656)scale(0.15 -0.15)">
       <use xlink:href="#DejaVuSans-34"/>
       <use x="63.623047" xlink:href="#DejaVuSans-30"/>
      </g>
     </g>
    </g>
   </g>
   <g id="matplotlib.axis_2">
    <g id="ytick_1">
     <g id="line2d_6">
      <defs>
       <path d="M 0 0 
L -3.5 0 
" id="m80e88a9231" style="stroke:#000000;stroke-width:0.8;"/>
      </defs>
      <g>
       <use style="stroke:#000000;stroke-width:0.8;" x="57.6" xlink:href="#m80e88a9231" y="136.966002"/>
      </g>
     </g>
     <g id="text_6">
      <!-- 0.994 -->
      <defs>
       <path d="M 10.6875 12.40625 
L 21 12.40625 
L 21 0 
L 10.6875 0 
z
" id="DejaVuSans-2e"/>
       <path d="M 10.984375 1.515625 
L 10.984375 10.5 
Q 14.703125 8.734375 18.5 7.8125 
Q 22.3125 6.890625 25.984375 6.890625 
Q 35.75 6.890625 40.890625 13.453125 
Q 46.046875 20.015625 46.78125 33.40625 
Q 43.953125 29.203125 39.59375 26.953125 
Q 35.25 24.703125 29.984375 24.703125 
Q 19.046875 24.703125 12.671875 31.3125 
Q 6.296875 37.9375 6.296875 49.421875 
Q 6.296875 60.640625 12.9375 67.421875 
Q 19.578125 74.21875 30.609375 74.21875 
Q 43.265625 74.21875 49.921875 64.515625 
Q 56.59375 54.828125 56.59375 36.375 
Q 56.59375 19.140625 48.40625 8.859375 
Q 40.234375 -1.421875 26.421875 -1.421875 
Q 22.703125 -1.421875 18.890625 -0.6875 
Q 15.09375 0.046875 10.984375 1.515625 
z
M 30.609375 32.421875 
Q 37.25 32.421875 41.125 36.953125 
Q 45.015625 41.5 45.015625 49.421875 
Q 45.015625 57.28125 41.125 61.84375 
Q 37.25 66.40625 30.609375 66.40625 
Q 23.96875 66.40625 20.09375 61.84375 
Q 16.21875 57.28125 16.21875 49.421875 
Q 16.21875 41.5 20.09375 36.953125 
Q 23.96875 32.421875 30.609375 32.421875 
z
" id="DejaVuSans-39"/>
      </defs>
      <g transform="translate(7.657813 142.66483)scale(0.15 -0.15)">
       <use xlink:href="#DejaVuSans-30"/>
       <use x="63.623047" xlink:href="#DejaVuSans-2e"/>
       <use x="95.410156" xlink:href="#DejaVuSans-39"/>
       <use x="159.033203" xlink:href="#DejaVuSans-39"/>
       <use x="222.65625" xlink:href="#DejaVuSans-34"/>
      </g>
     </g>
    </g>
    <g id="ytick_2">
     <g id="line2d_7">
      <g>
       <use style="stroke:#000000;stroke-width:0.8;" x="57.6" xlink:href="#m80e88a9231" y="97.752655"/>
      </g>
     </g>
     <g id="text_7">
      <!-- 0.996 -->
      <defs>
       <path d="M 33.015625 40.375 
Q 26.375 40.375 22.484375 35.828125 
Q 18.609375 31.296875 18.609375 23.390625 
Q 18.609375 15.53125 22.484375 10.953125 
Q 26.375 6.390625 33.015625 6.390625 
Q 39.65625 6.390625 43.53125 10.953125 
Q 47.40625 15.53125 47.40625 23.390625 
Q 47.40625 31.296875 43.53125 35.828125 
Q 39.65625 40.375 33.015625 40.375 
z
M 52.59375 71.296875 
L 52.59375 62.3125 
Q 48.875 64.0625 45.09375 64.984375 
Q 41.3125 65.921875 37.59375 65.921875 
Q 27.828125 65.921875 22.671875 59.328125 
Q 17.53125 52.734375 16.796875 39.40625 
Q 19.671875 43.65625 24.015625 45.921875 
Q 28.375 48.1875 33.59375 48.1875 
Q 44.578125 48.1875 50.953125 41.515625 
Q 57.328125 34.859375 57.328125 23.390625 
Q 57.328125 12.15625 50.6875 5.359375 
Q 44.046875 -1.421875 33.015625 -1.421875 
Q 20.359375 -1.421875 13.671875 8.265625 
Q 6.984375 17.96875 6.984375 36.375 
Q 6.984375 53.65625 15.1875 63.9375 
Q 23.390625 74.21875 37.203125 74.21875 
Q 40.921875 74.21875 44.703125 73.484375 
Q 48.484375 72.75 52.59375 71.296875 
z
" id="DejaVuSans-36"/>
      </defs>
      <g transform="translate(7.657813 103.451483)scale(0.15 -0.15)">
       <use xlink:href="#DejaVuSans-30"/>
       <use x="63.623047" xlink:href="#DejaVuSans-2e"/>
       <use x="95.410156" xlink:href="#DejaVuSans-39"/>
       <use x="159.033203" xlink:href="#DejaVuSans-39"/>
       <use x="222.65625" xlink:href="#DejaVuSans-36"/>
      </g>
     </g>
    </g>
    <g id="ytick_3">
     <g id="line2d_8">
      <g>
       <use style="stroke:#000000;stroke-width:0.8;" x="57.6" xlink:href="#m80e88a9231" y="58.539308"/>
      </g>
     </g>
     <g id="text_8">
      <!-- 0.998 -->
      <defs>
       <path d="M 31.78125 34.625 
Q 24.75 34.625 20.71875 30.859375 
Q 16.703125 27.09375 16.703125 20.515625 
Q 16.703125 13.921875 20.71875 10.15625 
Q 24.75 6.390625 31.78125 6.390625 
Q 38.8125 6.390625 42.859375 10.171875 
Q 46.921875 13.96875 46.921875 20.515625 
Q 46.921875 27.09375 42.890625 30.859375 
Q 38.875 34.625 31.78125 34.625 
z
M 21.921875 38.8125 
Q 15.578125 40.375 12.03125 44.71875 
Q 8.5 49.078125 8.5 55.328125 
Q 8.5 64.0625 14.71875 69.140625 
Q 20.953125 74.21875 31.78125 74.21875 
Q 42.671875 74.21875 48.875 69.140625 
Q 55.078125 64.0625 55.078125 55.328125 
Q 55.078125 49.078125 51.53125 44.71875 
Q 48 40.375 41.703125 38.8125 
Q 48.828125 37.15625 52.796875 32.3125 
Q 56.78125 27.484375 56.78125 20.515625 
Q 56.78125 9.90625 50.3125 4.234375 
Q 43.84375 -1.421875 31.78125 -1.421875 
Q 19.734375 -1.421875 13.25 4.234375 
Q 6.78125 9.90625 6.78125 20.515625 
Q 6.78125 27.484375 10.78125 32.3125 
Q 14.796875 37.15625 21.921875 38.8125 
z
M 18.3125 54.390625 
Q 18.3125 48.734375 21.84375 45.5625 
Q 25.390625 42.390625 31.78125 42.390625 
Q 38.140625 42.390625 41.71875 45.5625 
Q 45.3125 48.734375 45.3125 54.390625 
Q 45.3125 60.0625 41.71875 63.234375 
Q 38.140625 66.40625 31.78125 66.40625 
Q 25.390625 66.40625 21.84375 63.234375 
Q 18.3125 60.0625 18.3125 54.390625 
z
" id="DejaVuSans-38"/>
      </defs>
      <g transform="translate(7.657813 64.238137)scale(0.15 -0.15)">
       <use xlink:href="#DejaVuSans-30"/>
       <use x="63.623047" xlink:href="#DejaVuSans-2e"/>
       <use x="95.410156" xlink:href="#DejaVuSans-39"/>
       <use x="159.033203" xlink:href="#DejaVuSans-39"/>
       <use x="222.65625" xlink:href="#DejaVuSans-38"/>
      </g>
     </g>
    </g>
   </g>
   <g id="line2d_9">
    <defs>
     <path d="M -4 4 
L 4 -4 
M -4 -4 
L 4 4 
" id="md634b26e37" style="stroke:#1f77b4;stroke-width:2;"/>
    </defs>
    <g clip-path="url(#p421914f817)">
     <use style="fill:#1f77b4;stroke:#1f77b4;stroke-width:2;" x="73.832727" xlink:href="#md634b26e37" y="129.961537"/>
     <use style="fill:#1f77b4;stroke:#1f77b4;stroke-width:2;" x="75.75376" xlink:href="#md634b26e37" y="126.515074"/>
     <use style="fill:#1f77b4;stroke:#1f77b4;stroke-width:2;" x="77.674793" xlink:href="#md634b26e37" y="148.281686"/>
     <use style="fill:#1f77b4;stroke:#1f77b4;stroke-width:2;" x="79.595826" xlink:href="#md634b26e37" y="122.02461"/>
     <use style="fill:#1f77b4;stroke:#1f77b4;stroke-width:2;" x="81.516859" xlink:href="#md634b26e37" y="135.42203"/>
     <use style="fill:#1f77b4;stroke:#1f77b4;stroke-width:2;" x="83.437891" xlink:href="#md634b26e37" y="136.500941"/>
     <use style="fill:#1f77b4;stroke:#1f77b4;stroke-width:2;" x="85.358924" xlink:href="#md634b26e37" y="118.612133"/>
     <use style="fill:#1f77b4;stroke:#1f77b4;stroke-width:2;" x="87.279957" xlink:href="#md634b26e37" y="131.25835"/>
     <use style="fill:#1f77b4;stroke:#1f77b4;stroke-width:2;" x="89.20099" xlink:href="#md634b26e37" y="130.969804"/>
     <use style="fill:#1f77b4;stroke:#1f77b4;stroke-width:2;" x="91.122023" xlink:href="#md634b26e37" y="115.907625"/>
     <use style="fill:#1f77b4;stroke:#1f77b4;stroke-width:2;" x="93.043055" xlink:href="#md634b26e37" y="132.67152"/>
     <use style="fill:#1f77b4;stroke:#1f77b4;stroke-width:2;" x="94.964088" xlink:href="#md634b26e37" y="118.656484"/>
     <use style="fill:#1f77b4;stroke:#1f77b4;stroke-width:2;" x="96.885121" xlink:href="#md634b26e37" y="117.563211"/>
     <use style="fill:#1f77b4;stroke:#1f77b4;stroke-width:2;" x="98.806154" xlink:href="#md634b26e37" y="133.675243"/>
     <use style="fill:#1f77b4;stroke:#1f77b4;stroke-width:2;" x="100.727187" xlink:href="#md634b26e37" y="120.41183"/>
     <use style="fill:#1f77b4;stroke:#1f77b4;stroke-width:2;" x="102.648219" xlink:href="#md634b26e37" y="117.488399"/>
     <use style="fill:#1f77b4;stroke:#1f77b4;stroke-width:2;" x="104.569252" xlink:href="#md634b26e37" y="136.346939"/>
     <use style="fill:#1f77b4;stroke:#1f77b4;stroke-width:2;" x="106.490285" xlink:href="#md634b26e37" y="101.734738"/>
     <use style="fill:#1f77b4;stroke:#1f77b4;stroke-width:2;" x="108.411318" xlink:href="#md634b26e37" y="130.210442"/>
     <use style="fill:#1f77b4;stroke:#1f77b4;stroke-width:2;" x="110.332351" xlink:href="#md634b26e37" y="129.352815"/>
     <use style="fill:#1f77b4;stroke:#1f77b4;stroke-width:2;" x="112.253384" xlink:href="#md634b26e37" y="119.498469"/>
     <use style="fill:#1f77b4;stroke:#1f77b4;stroke-width:2;" x="114.174416" xlink:href="#md634b26e37" y="125.66396"/>
     <use style="fill:#1f77b4;stroke:#1f77b4;stroke-width:2;" x="116.095449" xlink:href="#md634b26e37" y="135.794846"/>
     <use style="fill:#1f77b4;stroke:#1f77b4;stroke-width:2;" x="118.016482" xlink:href="#md634b26e37" y="120.878114"/>
     <use style="fill:#1f77b4;stroke:#1f77b4;stroke-width:2;" x="119.937515" xlink:href="#md634b26e37" y="146.860223"/>
     <use style="fill:#1f77b4;stroke:#1f77b4;stroke-width:2;" x="121.858548" xlink:href="#md634b26e37" y="120.770899"/>
     <use style="fill:#1f77b4;stroke:#1f77b4;stroke-width:2;" x="123.77958" xlink:href="#md634b26e37" y="130.665614"/>
     <use style="fill:#1f77b4;stroke:#1f77b4;stroke-width:2;" x="125.700613" xlink:href="#md634b26e37" y="148.6253"/>
     <use style="fill:#1f77b4;stroke:#1f77b4;stroke-width:2;" x="127.621646" xlink:href="#md634b26e37" y="136.711228"/>
     <use style="fill:#1f77b4;stroke:#1f77b4;stroke-width:2;" x="129.542679" xlink:href="#md634b26e37" y="133.293311"/>
     <use style="fill:#1f77b4;stroke:#1f77b4;stroke-width:2;" x="131.463712" xlink:href="#md634b26e37" y="156.933818"/>
     <use style="fill:#1f77b4;stroke:#1f77b4;stroke-width:2;" x="133.384744" xlink:href="#md634b26e37" y="126.035967"/>
     <use style="fill:#1f77b4;stroke:#1f77b4;stroke-width:2;" x="135.305777" xlink:href="#md634b26e37" y="149.909592"/>
     <use style="fill:#1f77b4;stroke:#1f77b4;stroke-width:2;" x="137.22681" xlink:href="#md634b26e37" y="148.974195"/>
     <use style="fill:#1f77b4;stroke:#1f77b4;stroke-width:2;" x="139.147843" xlink:href="#md634b26e37" y="125.905311"/>
     <use style="fill:#1f77b4;stroke:#1f77b4;stroke-width:2;" x="141.068876" xlink:href="#md634b26e37" y="154.208885"/>
     <use style="fill:#1f77b4;stroke:#1f77b4;stroke-width:2;" x="142.989909" xlink:href="#md634b26e37" y="138.515044"/>
     <use style="fill:#1f77b4;stroke:#1f77b4;stroke-width:2;" x="144.910941" xlink:href="#md634b26e37" y="135.889507"/>
     <use style="fill:#1f77b4;stroke:#1f77b4;stroke-width:2;" x="146.831974" xlink:href="#md634b26e37" y="153.188849"/>
     <use style="fill:#1f77b4;stroke:#1f77b4;stroke-width:2;" x="148.753007" xlink:href="#md634b26e37" y="138.326403"/>
     <use style="fill:#1f77b4;stroke:#1f77b4;stroke-width:2;" x="150.67404" xlink:href="#md634b26e37" y="135.45533"/>
     <use style="fill:#1f77b4;stroke:#1f77b4;stroke-width:2;" x="152.595073" xlink:href="#md634b26e37" y="150.787818"/>
     <use style="fill:#1f77b4;stroke:#1f77b4;stroke-width:2;" x="154.516105" xlink:href="#md634b26e37" y="128.839783"/>
     <use style="fill:#1f77b4;stroke:#1f77b4;stroke-width:2;" x="156.437138" xlink:href="#md634b26e37" y="145.564656"/>
     <use style="fill:#1f77b4;stroke:#1f77b4;stroke-width:2;" x="158.358171" xlink:href="#md634b26e37" y="140.387356"/>
     <use style="fill:#1f77b4;stroke:#1f77b4;stroke-width:2;" x="160.279204" xlink:href="#md634b26e37" y="120.281716"/>
     <use style="fill:#1f77b4;stroke:#1f77b4;stroke-width:2;" x="162.200237" xlink:href="#md634b26e37" y="136.44873"/>
     <use style="fill:#1f77b4;stroke:#1f77b4;stroke-width:2;" x="164.121269" xlink:href="#md634b26e37" y="120.943976"/>
     <use style="fill:#1f77b4;stroke:#1f77b4;stroke-width:2;" x="166.042302" xlink:href="#md634b26e37" y="130.420316"/>
     <use style="fill:#1f77b4;stroke:#1f77b4;stroke-width:2;" x="167.963335" xlink:href="#md634b26e37" y="137.773361"/>
     <use style="fill:#1f77b4;stroke:#1f77b4;stroke-width:2;" x="169.884368" xlink:href="#md634b26e37" y="122.322534"/>
     <use style="fill:#1f77b4;stroke:#1f77b4;stroke-width:2;" x="171.805401" xlink:href="#md634b26e37" y="123.458791"/>
     <use style="fill:#1f77b4;stroke:#1f77b4;stroke-width:2;" x="173.726434" xlink:href="#md634b26e37" y="126.383632"/>
     <use style="fill:#1f77b4;stroke:#1f77b4;stroke-width:2;" x="175.647466" xlink:href="#md634b26e37" y="113.41764"/>
     <use style="fill:#1f77b4;stroke:#1f77b4;stroke-width:2;" x="177.568499" xlink:href="#md634b26e37" y="106.10557"/>
     <use style="fill:#1f77b4;stroke:#1f77b4;stroke-width:2;" x="179.489532" xlink:href="#md634b26e37" y="126.145836"/>
     <use style="fill:#1f77b4;stroke:#1f77b4;stroke-width:2;" x="181.410565" xlink:href="#md634b26e37" y="92.422413"/>
     <use style="fill:#1f77b4;stroke:#1f77b4;stroke-width:2;" x="183.331598" xlink:href="#md634b26e37" y="109.744028"/>
     <use style="fill:#1f77b4;stroke:#1f77b4;stroke-width:2;" x="185.25263" xlink:href="#md634b26e37" y="88.126331"/>
     <use style="fill:#1f77b4;stroke:#1f77b4;stroke-width:2;" x="187.173663" xlink:href="#md634b26e37" y="88.803802"/>
     <use style="fill:#1f77b4;stroke:#1f77b4;stroke-width:2;" x="189.094696" xlink:href="#md634b26e37" y="93.228176"/>
     <use style="fill:#1f77b4;stroke:#1f77b4;stroke-width:2;" x="191.015729" xlink:href="#md634b26e37" y="82.005659"/>
     <use style="fill:#1f77b4;stroke:#1f77b4;stroke-width:2;" x="192.936762" xlink:href="#md634b26e37" y="69.128102"/>
     <use style="fill:#1f77b4;stroke:#1f77b4;stroke-width:2;" x="194.857795" xlink:href="#md634b26e37" y="86.348855"/>
     <use style="fill:#1f77b4;stroke:#1f77b4;stroke-width:2;" x="196.778827" xlink:href="#md634b26e37" y="46.970182"/>
     <use style="fill:#1f77b4;stroke:#1f77b4;stroke-width:2;" x="198.69986" xlink:href="#md634b26e37" y="61.786931"/>
     <use style="fill:#1f77b4;stroke:#1f77b4;stroke-width:2;" x="200.620893" xlink:href="#md634b26e37" y="59.090928"/>
     <use style="fill:#1f77b4;stroke:#1f77b4;stroke-width:2;" x="202.541926" xlink:href="#md634b26e37" y="48.215919"/>
     <use style="fill:#1f77b4;stroke:#1f77b4;stroke-width:2;" x="204.462959" xlink:href="#md634b26e37" y="56.666416"/>
     <use style="fill:#1f77b4;stroke:#1f77b4;stroke-width:2;" x="206.383991" xlink:href="#md634b26e37" y="54.762657"/>
     <use style="fill:#1f77b4;stroke:#1f77b4;stroke-width:2;" x="208.305024" xlink:href="#md634b26e37" y="48.672629"/>
     <use style="fill:#1f77b4;stroke:#1f77b4;stroke-width:2;" x="210.226057" xlink:href="#md634b26e37" y="58.283571"/>
     <use style="fill:#1f77b4;stroke:#1f77b4;stroke-width:2;" x="212.14709" xlink:href="#md634b26e37" y="53.749195"/>
     <use style="fill:#1f77b4;stroke:#1f77b4;stroke-width:2;" x="214.068123" xlink:href="#md634b26e37" y="65.315069"/>
     <use style="fill:#1f77b4;stroke:#1f77b4;stroke-width:2;" x="215.989155" xlink:href="#md634b26e37" y="77.401192"/>
     <use style="fill:#1f77b4;stroke:#1f77b4;stroke-width:2;" x="217.910188" xlink:href="#md634b26e37" y="81.528265"/>
     <use style="fill:#1f77b4;stroke:#1f77b4;stroke-width:2;" x="219.831221" xlink:href="#md634b26e37" y="76.549476"/>
     <use style="fill:#1f77b4;stroke:#1f77b4;stroke-width:2;" x="221.752254" xlink:href="#md634b26e37" y="98.348884"/>
     <use style="fill:#1f77b4;stroke:#1f77b4;stroke-width:2;" x="223.673287" xlink:href="#md634b26e37" y="87.613123"/>
     <use style="fill:#1f77b4;stroke:#1f77b4;stroke-width:2;" x="225.59432" xlink:href="#md634b26e37" y="108.048823"/>
     <use style="fill:#1f77b4;stroke:#1f77b4;stroke-width:2;" x="227.515352" xlink:href="#md634b26e37" y="106.845318"/>
     <use style="fill:#1f77b4;stroke:#1f77b4;stroke-width:2;" x="229.436385" xlink:href="#md634b26e37" y="103.118326"/>
     <use style="fill:#1f77b4;stroke:#1f77b4;stroke-width:2;" x="231.357418" xlink:href="#md634b26e37" y="117.458136"/>
     <use style="fill:#1f77b4;stroke:#1f77b4;stroke-width:2;" x="233.278451" xlink:href="#md634b26e37" y="113.684434"/>
     <use style="fill:#1f77b4;stroke:#1f77b4;stroke-width:2;" x="235.199484" xlink:href="#md634b26e37" y="109.944747"/>
     <use style="fill:#1f77b4;stroke:#1f77b4;stroke-width:2;" x="237.120516" xlink:href="#md634b26e37" y="123.67116"/>
     <use style="fill:#1f77b4;stroke:#1f77b4;stroke-width:2;" x="239.041549" xlink:href="#md634b26e37" y="106.012169"/>
     <use style="fill:#1f77b4;stroke:#1f77b4;stroke-width:2;" x="240.962582" xlink:href="#md634b26e37" y="108.467837"/>
     <use style="fill:#1f77b4;stroke:#1f77b4;stroke-width:2;" x="242.883615" xlink:href="#md634b26e37" y="110.681961"/>
     <use style="fill:#1f77b4;stroke:#1f77b4;stroke-width:2;" x="244.804648" xlink:href="#md634b26e37" y="95.980247"/>
     <use style="fill:#1f77b4;stroke:#1f77b4;stroke-width:2;" x="246.72568" xlink:href="#md634b26e37" y="106.203577"/>
     <use style="fill:#1f77b4;stroke:#1f77b4;stroke-width:2;" x="248.646713" xlink:href="#md634b26e37" y="90.110057"/>
     <use style="fill:#1f77b4;stroke:#1f77b4;stroke-width:2;" x="250.567746" xlink:href="#md634b26e37" y="81.253358"/>
     <use style="fill:#1f77b4;stroke:#1f77b4;stroke-width:2;" x="252.488779" xlink:href="#md634b26e37" y="91.50142"/>
     <use style="fill:#1f77b4;stroke:#1f77b4;stroke-width:2;" x="254.409812" xlink:href="#md634b26e37" y="82.177376"/>
     <use style="fill:#1f77b4;stroke:#1f77b4;stroke-width:2;" x="256.330845" xlink:href="#md634b26e37" y="77.960434"/>
     <use style="fill:#1f77b4;stroke:#1f77b4;stroke-width:2;" x="258.251877" xlink:href="#md634b26e37" y="100.36054"/>
     <use style="fill:#1f77b4;stroke:#1f77b4;stroke-width:2;" x="260.17291" xlink:href="#md634b26e37" y="87.084509"/>
     <use style="fill:#1f77b4;stroke:#1f77b4;stroke-width:2;" x="262.093943" xlink:href="#md634b26e37" y="94.904863"/>
     <use style="fill:#1f77b4;stroke:#1f77b4;stroke-width:2;" x="264.014976" xlink:href="#md634b26e37" y="93.19555"/>
     <use style="fill:#1f77b4;stroke:#1f77b4;stroke-width:2;" x="265.936009" xlink:href="#md634b26e37" y="97.495011"/>
     <use style="fill:#1f77b4;stroke:#1f77b4;stroke-width:2;" x="267.857041" xlink:href="#md634b26e37" y="106.260625"/>
     <use style="fill:#1f77b4;stroke:#1f77b4;stroke-width:2;" x="269.778074" xlink:href="#md634b26e37" y="120.111954"/>
     <use style="fill:#1f77b4;stroke:#1f77b4;stroke-width:2;" x="271.699107" xlink:href="#md634b26e37" y="97.834211"/>
     <use style="fill:#1f77b4;stroke:#1f77b4;stroke-width:2;" x="273.62014" xlink:href="#md634b26e37" y="123.26261"/>
     <use style="fill:#1f77b4;stroke:#1f77b4;stroke-width:2;" x="275.541173" xlink:href="#md634b26e37" y="115.390402"/>
     <use style="fill:#1f77b4;stroke:#1f77b4;stroke-width:2;" x="277.462205" xlink:href="#md634b26e37" y="124.478021"/>
     <use style="fill:#1f77b4;stroke:#1f77b4;stroke-width:2;" x="279.383238" xlink:href="#md634b26e37" y="133.921603"/>
     <use style="fill:#1f77b4;stroke:#1f77b4;stroke-width:2;" x="281.304271" xlink:href="#md634b26e37" y="135.199574"/>
     <use style="fill:#1f77b4;stroke:#1f77b4;stroke-width:2;" x="283.225304" xlink:href="#md634b26e37" y="117.215936"/>
     <use style="fill:#1f77b4;stroke:#1f77b4;stroke-width:2;" x="285.146337" xlink:href="#md634b26e37" y="128.841349"/>
     <use style="fill:#1f77b4;stroke:#1f77b4;stroke-width:2;" x="287.06737" xlink:href="#md634b26e37" y="110.648545"/>
     <use style="fill:#1f77b4;stroke:#1f77b4;stroke-width:2;" x="288.988402" xlink:href="#md634b26e37" y="126.422115"/>
     <use style="fill:#1f77b4;stroke:#1f77b4;stroke-width:2;" x="290.909435" xlink:href="#md634b26e37" y="125.106305"/>
     <use style="fill:#1f77b4;stroke:#1f77b4;stroke-width:2;" x="292.830468" xlink:href="#md634b26e37" y="110.597973"/>
     <use style="fill:#1f77b4;stroke:#1f77b4;stroke-width:2;" x="294.751501" xlink:href="#md634b26e37" y="113.246316"/>
     <use style="fill:#1f77b4;stroke:#1f77b4;stroke-width:2;" x="296.672534" xlink:href="#md634b26e37" y="114.327235"/>
     <use style="fill:#1f77b4;stroke:#1f77b4;stroke-width:2;" x="298.593566" xlink:href="#md634b26e37" y="111.399585"/>
     <use style="fill:#1f77b4;stroke:#1f77b4;stroke-width:2;" x="300.514599" xlink:href="#md634b26e37" y="119.193843"/>
     <use style="fill:#1f77b4;stroke:#1f77b4;stroke-width:2;" x="302.435632" xlink:href="#md634b26e37" y="102.571961"/>
     <use style="fill:#1f77b4;stroke:#1f77b4;stroke-width:2;" x="304.356665" xlink:href="#md634b26e37" y="100.287386"/>
     <use style="fill:#1f77b4;stroke:#1f77b4;stroke-width:2;" x="306.277698" xlink:href="#md634b26e37" y="102.203023"/>
     <use style="fill:#1f77b4;stroke:#1f77b4;stroke-width:2;" x="308.198731" xlink:href="#md634b26e37" y="89.266953"/>
     <use style="fill:#1f77b4;stroke:#1f77b4;stroke-width:2;" x="310.119763" xlink:href="#md634b26e37" y="97.133361"/>
     <use style="fill:#1f77b4;stroke:#1f77b4;stroke-width:2;" x="312.040796" xlink:href="#md634b26e37" y="97.681344"/>
     <use style="fill:#1f77b4;stroke:#1f77b4;stroke-width:2;" x="313.961829" xlink:href="#md634b26e37" y="89.399427"/>
     <use style="fill:#1f77b4;stroke:#1f77b4;stroke-width:2;" x="315.882862" xlink:href="#md634b26e37" y="99.016081"/>
     <use style="fill:#1f77b4;stroke:#1f77b4;stroke-width:2;" x="317.803895" xlink:href="#md634b26e37" y="91.762049"/>
     <use style="fill:#1f77b4;stroke:#1f77b4;stroke-width:2;" x="319.724927" xlink:href="#md634b26e37" y="88.849189"/>
     <use style="fill:#1f77b4;stroke:#1f77b4;stroke-width:2;" x="321.64596" xlink:href="#md634b26e37" y="105.384561"/>
     <use style="fill:#1f77b4;stroke:#1f77b4;stroke-width:2;" x="323.566993" xlink:href="#md634b26e37" y="104.842851"/>
     <use style="fill:#1f77b4;stroke:#1f77b4;stroke-width:2;" x="325.488026" xlink:href="#md634b26e37" y="98.45077"/>
     <use style="fill:#1f77b4;stroke:#1f77b4;stroke-width:2;" x="327.409059" xlink:href="#md634b26e37" y="110.858501"/>
     <use style="fill:#1f77b4;stroke:#1f77b4;stroke-width:2;" x="329.330091" xlink:href="#md634b26e37" y="105.614513"/>
     <use style="fill:#1f77b4;stroke:#1f77b4;stroke-width:2;" x="331.251124" xlink:href="#md634b26e37" y="103.915421"/>
     <use style="fill:#1f77b4;stroke:#1f77b4;stroke-width:2;" x="333.172157" xlink:href="#md634b26e37" y="110.66674"/>
     <use style="fill:#1f77b4;stroke:#1f77b4;stroke-width:2;" x="335.09319" xlink:href="#md634b26e37" y="99.864785"/>
     <use style="fill:#1f77b4;stroke:#1f77b4;stroke-width:2;" x="337.014223" xlink:href="#md634b26e37" y="102.517737"/>
     <use style="fill:#1f77b4;stroke:#1f77b4;stroke-width:2;" x="338.935256" xlink:href="#md634b26e37" y="96.329155"/>
     <use style="fill:#1f77b4;stroke:#1f77b4;stroke-width:2;" x="340.856288" xlink:href="#md634b26e37" y="93.578989"/>
     <use style="fill:#1f77b4;stroke:#1f77b4;stroke-width:2;" x="342.777321" xlink:href="#md634b26e37" y="100.016024"/>
     <use style="fill:#1f77b4;stroke:#1f77b4;stroke-width:2;" x="344.698354" xlink:href="#md634b26e37" y="99.929087"/>
     <use style="fill:#1f77b4;stroke:#1f77b4;stroke-width:2;" x="346.619387" xlink:href="#md634b26e37" y="90.524136"/>
     <use style="fill:#1f77b4;stroke:#1f77b4;stroke-width:2;" x="348.54042" xlink:href="#md634b26e37" y="105.88301"/>
     <use style="fill:#1f77b4;stroke:#1f77b4;stroke-width:2;" x="350.461452" xlink:href="#md634b26e37" y="92.472814"/>
     <use style="fill:#1f77b4;stroke:#1f77b4;stroke-width:2;" x="352.382485" xlink:href="#md634b26e37" y="92.216716"/>
     <use style="fill:#1f77b4;stroke:#1f77b4;stroke-width:2;" x="354.303518" xlink:href="#md634b26e37" y="99.30599"/>
     <use style="fill:#1f77b4;stroke:#1f77b4;stroke-width:2;" x="356.224551" xlink:href="#md634b26e37" y="95.79509"/>
     <use style="fill:#1f77b4;stroke:#1f77b4;stroke-width:2;" x="358.145584" xlink:href="#md634b26e37" y="106.586331"/>
     <use style="fill:#1f77b4;stroke:#1f77b4;stroke-width:2;" x="360.066616" xlink:href="#md634b26e37" y="95.960149"/>
     <use style="fill:#1f77b4;stroke:#1f77b4;stroke-width:2;" x="361.987649" xlink:href="#md634b26e37" y="95.341451"/>
     <use style="fill:#1f77b4;stroke:#1f77b4;stroke-width:2;" x="363.908682" xlink:href="#md634b26e37" y="101.708034"/>
     <use style="fill:#1f77b4;stroke:#1f77b4;stroke-width:2;" x="365.829715" xlink:href="#md634b26e37" y="92.171194"/>
     <use style="fill:#1f77b4;stroke:#1f77b4;stroke-width:2;" x="367.750748" xlink:href="#md634b26e37" y="92.423039"/>
     <use style="fill:#1f77b4;stroke:#1f77b4;stroke-width:2;" x="369.671781" xlink:href="#md634b26e37" y="107.923828"/>
     <use style="fill:#1f77b4;stroke:#1f77b4;stroke-width:2;" x="371.592813" xlink:href="#md634b26e37" y="100.49866"/>
     <use style="fill:#1f77b4;stroke:#1f77b4;stroke-width:2;" x="373.513846" xlink:href="#md634b26e37" y="96.578432"/>
     <use style="fill:#1f77b4;stroke:#1f77b4;stroke-width:2;" x="375.434879" xlink:href="#md634b26e37" y="107.864425"/>
     <use style="fill:#1f77b4;stroke:#1f77b4;stroke-width:2;" x="377.355912" xlink:href="#md634b26e37" y="88.232033"/>
     <use style="fill:#1f77b4;stroke:#1f77b4;stroke-width:2;" x="379.276945" xlink:href="#md634b26e37" y="104.041826"/>
     <use style="fill:#1f77b4;stroke:#1f77b4;stroke-width:2;" x="381.197977" xlink:href="#md634b26e37" y="98.185675"/>
     <use style="fill:#1f77b4;stroke:#1f77b4;stroke-width:2;" x="383.11901" xlink:href="#md634b26e37" y="88.671867"/>
     <use style="fill:#1f77b4;stroke:#1f77b4;stroke-width:2;" x="385.040043" xlink:href="#md634b26e37" y="99.402323"/>
     <use style="fill:#1f77b4;stroke:#1f77b4;stroke-width:2;" x="386.961076" xlink:href="#md634b26e37" y="96.254998"/>
     <use style="fill:#1f77b4;stroke:#1f77b4;stroke-width:2;" x="388.882109" xlink:href="#md634b26e37" y="90.218385"/>
     <use style="fill:#1f77b4;stroke:#1f77b4;stroke-width:2;" x="390.803141" xlink:href="#md634b26e37" y="106.624132"/>
     <use style="fill:#1f77b4;stroke:#1f77b4;stroke-width:2;" x="392.724174" xlink:href="#md634b26e37" y="97.230751"/>
     <use style="fill:#1f77b4;stroke:#1f77b4;stroke-width:2;" x="394.645207" xlink:href="#md634b26e37" y="98.747077"/>
     <use style="fill:#1f77b4;stroke:#1f77b4;stroke-width:2;" x="396.56624" xlink:href="#md634b26e37" y="97.63305"/>
     <use style="fill:#1f77b4;stroke:#1f77b4;stroke-width:2;" x="398.487273" xlink:href="#md634b26e37" y="85.89081"/>
    </g>
   </g>
   <g id="line2d_10">
    <path clip-path="url(#p421914f817)" d="M 169.884368 124.16675 
L 171.805401 122.639605 
L 173.726434 120.690127 
L 175.647466 118.253959 
L 177.568499 115.275178 
L 179.489532 111.713461 
L 181.410565 107.551875 
L 183.331598 102.804542 
L 185.25263 97.523266 
L 187.173663 91.80206 
L 189.094696 85.7786 
L 191.015729 79.631801 
L 192.936762 73.575074 
L 194.857795 67.84532 
L 196.778827 62.688284 
L 198.69986 58.341426 
L 200.620893 55.015929 
L 202.541926 52.879739 
L 204.462959 52.04349 
L 206.383991 52.550971 
L 208.305024 54.375237 
L 210.226057 57.420808 
L 212.14709 61.531603 
L 214.068123 66.50359 
L 215.989155 72.100478 
L 217.910188 78.070508 
L 219.831221 84.162287 
L 221.752254 90.137914 
L 223.673287 95.782126 
L 225.59432 100.907018 
L 227.515352 105.352716 
L 229.436385 108.985342 
L 231.357418 111.694316 
L 233.278451 113.39139 
L 235.199484 114.013636 
L 237.120516 113.531666 
L 239.041549 111.962812 
L 240.962582 109.386976 
L 242.883615 105.96095 
L 244.804648 101.925832 
L 246.72568 97.60233 
L 248.646713 93.370634 
L 250.567746 89.634917 
L 252.488779 86.776648 
L 254.409812 85.104632 
L 256.330845 84.811653 
L 258.251877 85.947142 
L 260.17291 88.412127 
L 262.093943 91.977786 
L 264.014976 96.323587 
L 265.936009 101.086769 
L 267.857041 105.913 
L 269.778074 110.498836 
L 271.699107 114.619541 
L 273.62014 118.139895 
L 275.541173 121.009561 
L 277.462205 123.247333 
L 279.383238 124.919789 
L 281.304271 126.11946 
L 283.225304 126.946289 
" style="fill:none;stroke:#ff7f0e;stroke-linecap:square;stroke-width:5;"/>
   </g>
   <g id="patch_3">
    <path d="M 57.6 162.432 
L 57.6 41.472 
" style="fill:none;stroke:#000000;stroke-linecap:square;stroke-linejoin:miter;stroke-width:0.8;"/>
   </g>
   <g id="patch_4">
    <path d="M 414.72 162.432 
L 414.72 41.472 
" style="fill:none;stroke:#000000;stroke-linecap:square;stroke-linejoin:miter;stroke-width:0.8;"/>
   </g>
   <g id="patch_5">
    <path d="M 57.6 162.432 
L 414.72 162.432 
" style="fill:none;stroke:#000000;stroke-linecap:square;stroke-linejoin:miter;stroke-width:0.8;"/>
   </g>
   <g id="patch_6">
    <path d="M 57.6 41.472 
L 414.72 41.472 
" style="fill:none;stroke:#000000;stroke-linecap:square;stroke-linejoin:miter;stroke-width:0.8;"/>
   </g>
  </g>
  <g id="axes_2">
   <g id="patch_7">
    <path d="M 57.6 307.584 
L 414.72 307.584 
L 414.72 186.624 
L 57.6 186.624 
z
" style="fill:#ffffff;"/>
   </g>
   <g id="matplotlib.axis_3">
    <g id="xtick_6">
     <g id="line2d_11">
      <g>
       <use style="stroke:#000000;stroke-width:0.8;" x="73.832727" xlink:href="#me927a1e3a7" y="307.584"/>
      </g>
     </g>
     <g id="text_9">
      <!-- 0 -->
      <g transform="translate(69.060852 325.981656)scale(0.15 -0.15)">
       <use xlink:href="#DejaVuSans-30"/>
      </g>
     </g>
    </g>
    <g id="xtick_7">
     <g id="line2d_12">
      <g>
       <use style="stroke:#000000;stroke-width:0.8;" x="143.787083" xlink:href="#me927a1e3a7" y="307.584"/>
      </g>
     </g>
     <g id="text_10">
      <!-- 10 -->
      <g transform="translate(134.243333 325.981656)scale(0.15 -0.15)">
       <use xlink:href="#DejaVuSans-31"/>
       <use x="63.623047" xlink:href="#DejaVuSans-30"/>
      </g>
     </g>
    </g>
    <g id="xtick_8">
     <g id="line2d_13">
      <g>
       <use style="stroke:#000000;stroke-width:0.8;" x="213.741439" xlink:href="#me927a1e3a7" y="307.584"/>
      </g>
     </g>
     <g id="text_11">
      <!-- 20 -->
      <g transform="translate(204.197689 325.981656)scale(0.15 -0.15)">
       <use xlink:href="#DejaVuSans-32"/>
       <use x="63.623047" xlink:href="#DejaVuSans-30"/>
      </g>
     </g>
    </g>
    <g id="xtick_9">
     <g id="line2d_14">
      <g>
       <use style="stroke:#000000;stroke-width:0.8;" x="283.695795" xlink:href="#me927a1e3a7" y="307.584"/>
      </g>
     </g>
     <g id="text_12">
      <!-- 30 -->
      <g transform="translate(274.152045 325.981656)scale(0.15 -0.15)">
       <use xlink:href="#DejaVuSans-33"/>
       <use x="63.623047" xlink:href="#DejaVuSans-30"/>
      </g>
     </g>
    </g>
    <g id="xtick_10">
     <g id="line2d_15">
      <g>
       <use style="stroke:#000000;stroke-width:0.8;" x="353.65015" xlink:href="#me927a1e3a7" y="307.584"/>
      </g>
     </g>
     <g id="text_13">
      <!-- 40 -->
      <g transform="translate(344.1064 325.981656)scale(0.15 -0.15)">
       <use xlink:href="#DejaVuSans-34"/>
       <use x="63.623047" xlink:href="#DejaVuSans-30"/>
      </g>
     </g>
    </g>
   </g>
   <g id="matplotlib.axis_4">
    <g id="ytick_4">
     <g id="line2d_16">
      <g>
       <use style="stroke:#000000;stroke-width:0.8;" x="57.6" xlink:href="#m80e88a9231" y="300.265091"/>
      </g>
     </g>
     <g id="text_14">
      <!-- −2 -->
      <defs>
       <path d="M 10.59375 35.5 
L 73.1875 35.5 
L 73.1875 27.203125 
L 10.59375 27.203125 
z
" id="DejaVuSans-2212"/>
      </defs>
      <g transform="translate(28.486719 305.963919)scale(0.15 -0.15)">
       <use xlink:href="#DejaVuSans-2212"/>
       <use x="83.789062" xlink:href="#DejaVuSans-32"/>
      </g>
     </g>
    </g>
    <g id="ytick_5">
     <g id="line2d_17">
      <g>
       <use style="stroke:#000000;stroke-width:0.8;" x="57.6" xlink:href="#m80e88a9231" y="261.911734"/>
      </g>
     </g>
     <g id="text_15">
      <!-- −1 -->
      <g transform="translate(28.486719 267.610562)scale(0.15 -0.15)">
       <use xlink:href="#DejaVuSans-2212"/>
       <use x="83.789062" xlink:href="#DejaVuSans-31"/>
      </g>
     </g>
    </g>
    <g id="ytick_6">
     <g id="line2d_18">
      <g>
       <use style="stroke:#000000;stroke-width:0.8;" x="57.6" xlink:href="#m80e88a9231" y="223.558376"/>
      </g>
     </g>
     <g id="text_16">
      <!-- 0 -->
      <g transform="translate(41.05625 229.257204)scale(0.15 -0.15)">
       <use xlink:href="#DejaVuSans-30"/>
      </g>
     </g>
    </g>
   </g>
   <g id="line2d_19">
    <path clip-path="url(#pc559e55ae5)" d="M 73.832727 251.011315 
L 87.200856 250.911081 
L 106.298182 251.022888 
L 165.499893 251.763138 
L 173.138824 252.015966 
L 178.868021 252.384645 
L 182.687487 252.787879 
L 186.506952 253.392747 
L 190.326417 254.299165 
L 192.23615 254.908926 
L 194.145882 255.653608 
L 196.055615 256.561845 
L 197.965348 257.667632 
L 199.87508 259.010846 
L 201.784813 260.637471 
L 203.694545 262.599194 
L 205.604278 264.951861 
L 207.514011 267.751968 
L 209.423743 271.049971 
L 211.333476 274.878638 
L 213.243209 279.234141 
L 217.062674 289.141715 
L 218.972406 294.181655 
L 220.882139 298.610953 
L 222.791872 301.60672 
L 224.701604 302.085818 
L 226.611337 298.833659 
L 228.52107 290.834461 
L 230.430802 277.815174 
L 232.340535 260.797701 
L 234.250267 242.172666 
L 236.16 224.895978 
L 238.069733 211.181257 
L 239.979465 201.73228 
L 241.889198 196.0278 
L 243.79893 193.106246 
L 245.708663 192.122182 
L 247.618396 192.498153 
L 249.528128 193.862422 
L 251.437861 195.955658 
L 253.347594 198.573525 
L 255.257326 201.543959 
L 266.715722 220.463384 
L 270.535187 225.832197 
L 274.354652 230.520261 
L 278.174118 234.569531 
L 281.993583 238.053696 
L 285.813048 241.053436 
L 289.632513 243.644881 
L 293.451979 245.895144 
L 297.271444 247.861333 
L 301.090909 249.591128 
L 304.910374 251.123956 
L 310.639572 253.123279 
L 316.36877 254.837478 
L 322.097968 256.331272 
L 329.736898 258.062921 
L 337.375829 259.573731 
L 346.924492 261.242952 
L 360.29262 263.315094 
L 379.389947 266.010074 
L 398.487273 268.6743 
L 398.487273 268.6743 
" style="fill:none;stroke:#1f77b4;stroke-linecap:square;stroke-width:3;"/>
   </g>
   <g id="line2d_20">
    <path clip-path="url(#pc559e55ae5)" d="M 73.832727 249.189623 
L 144.492834 253.557907 
L 314.459037 263.766226 
L 398.487273 268.741916 
L 398.487273 268.741916 
" style="fill:none;stroke:#1f77b4;stroke-dasharray:11.1,4.8;stroke-dashoffset:0;stroke-width:3;"/>
   </g>
   <g id="patch_8">
    <path d="M 57.6 307.584 
L 57.6 186.624 
" style="fill:none;stroke:#000000;stroke-linecap:square;stroke-linejoin:miter;stroke-width:0.8;"/>
   </g>
   <g id="patch_9">
    <path d="M 414.72 307.584 
L 414.72 186.624 
" style="fill:none;stroke:#000000;stroke-linecap:square;stroke-linejoin:miter;stroke-width:0.8;"/>
   </g>
   <g id="patch_10">
    <path d="M 57.6 307.584 
L 414.72 307.584 
" style="fill:none;stroke:#000000;stroke-linecap:square;stroke-linejoin:miter;stroke-width:0.8;"/>
   </g>
   <g id="patch_11">
    <path d="M 57.6 186.624 
L 414.72 186.624 
" style="fill:none;stroke:#000000;stroke-linecap:square;stroke-linejoin:miter;stroke-width:0.8;"/>
   </g>
   <g id="legend_1">
    <g id="patch_12">
     <path d="M 68.1 242.658375 
L 200.709375 242.658375 
Q 203.709375 242.658375 203.709375 239.658375 
L 203.709375 197.124 
Q 203.709375 194.124 200.709375 194.124 
L 68.1 194.124 
Q 65.1 194.124 65.1 197.124 
L 65.1 239.658375 
Q 65.1 242.658375 68.1 242.658375 
z
" style="fill:#ffffff;opacity:0.8;stroke:#cccccc;stroke-linejoin:miter;"/>
    </g>
    <g id="line2d_21">
     <path d="M 71.1 206.271656 
L 101.1 206.271656 
" style="fill:none;stroke:#1f77b4;stroke-linecap:square;stroke-width:3;"/>
    </g>
    <g id="line2d_22"/>
    <g id="text_17">
     <!-- With CR -->
     <defs>
      <path d="M 3.328125 72.90625 
L 13.28125 72.90625 
L 28.609375 11.28125 
L 43.890625 72.90625 
L 54.984375 72.90625 
L 70.3125 11.28125 
L 85.59375 72.90625 
L 95.609375 72.90625 
L 77.296875 0 
L 64.890625 0 
L 49.515625 63.28125 
L 33.984375 0 
L 21.578125 0 
z
" id="DejaVuSans-57"/>
      <path d="M 9.421875 54.6875 
L 18.40625 54.6875 
L 18.40625 0 
L 9.421875 0 
z
M 9.421875 75.984375 
L 18.40625 75.984375 
L 18.40625 64.59375 
L 9.421875 64.59375 
z
" id="DejaVuSans-69"/>
      <path d="M 18.3125 70.21875 
L 18.3125 54.6875 
L 36.8125 54.6875 
L 36.8125 47.703125 
L 18.3125 47.703125 
L 18.3125 18.015625 
Q 18.3125 11.328125 20.140625 9.421875 
Q 21.96875 7.515625 27.59375 7.515625 
L 36.8125 7.515625 
L 36.8125 0 
L 27.59375 0 
Q 17.1875 0 13.234375 3.875 
Q 9.28125 7.765625 9.28125 18.015625 
L 9.28125 47.703125 
L 2.6875 47.703125 
L 2.6875 54.6875 
L 9.28125 54.6875 
L 9.28125 70.21875 
z
" id="DejaVuSans-74"/>
      <path d="M 54.890625 33.015625 
L 54.890625 0 
L 45.90625 0 
L 45.90625 32.71875 
Q 45.90625 40.484375 42.875 44.328125 
Q 39.84375 48.1875 33.796875 48.1875 
Q 26.515625 48.1875 22.3125 43.546875 
Q 18.109375 38.921875 18.109375 30.90625 
L 18.109375 0 
L 9.078125 0 
L 9.078125 75.984375 
L 18.109375 75.984375 
L 18.109375 46.1875 
Q 21.34375 51.125 25.703125 53.5625 
Q 30.078125 56 35.796875 56 
Q 45.21875 56 50.046875 50.171875 
Q 54.890625 44.34375 54.890625 33.015625 
z
" id="DejaVuSans-68"/>
      <path id="DejaVuSans-20"/>
      <path d="M 64.40625 67.28125 
L 64.40625 56.890625 
Q 59.421875 61.53125 53.78125 63.8125 
Q 48.140625 66.109375 41.796875 66.109375 
Q 29.296875 66.109375 22.65625 58.46875 
Q 16.015625 50.828125 16.015625 36.375 
Q 16.015625 21.96875 22.65625 14.328125 
Q 29.296875 6.6875 41.796875 6.6875 
Q 48.140625 6.6875 53.78125 8.984375 
Q 59.421875 11.28125 64.40625 15.921875 
L 64.40625 5.609375 
Q 59.234375 2.09375 53.4375 0.328125 
Q 47.65625 -1.421875 41.21875 -1.421875 
Q 24.65625 -1.421875 15.125 8.703125 
Q 5.609375 18.84375 5.609375 36.375 
Q 5.609375 53.953125 15.125 64.078125 
Q 24.65625 74.21875 41.21875 74.21875 
Q 47.75 74.21875 53.53125 72.484375 
Q 59.328125 70.75 64.40625 67.28125 
z
" id="DejaVuSans-43"/>
      <path d="M 44.390625 34.1875 
Q 47.5625 33.109375 50.5625 29.59375 
Q 53.5625 26.078125 56.59375 19.921875 
L 66.609375 0 
L 56 0 
L 46.6875 18.703125 
Q 43.0625 26.03125 39.671875 28.421875 
Q 36.28125 30.8125 30.421875 30.8125 
L 19.671875 30.8125 
L 19.671875 0 
L 9.8125 0 
L 9.8125 72.90625 
L 32.078125 72.90625 
Q 44.578125 72.90625 50.734375 67.671875 
Q 56.890625 62.453125 56.890625 51.90625 
Q 56.890625 45.015625 53.6875 40.46875 
Q 50.484375 35.9375 44.390625 34.1875 
z
M 19.671875 64.796875 
L 19.671875 38.921875 
L 32.078125 38.921875 
Q 39.203125 38.921875 42.84375 42.21875 
Q 46.484375 45.515625 46.484375 51.90625 
Q 46.484375 58.296875 42.84375 61.546875 
Q 39.203125 64.796875 32.078125 64.796875 
z
" id="DejaVuSans-52"/>
     </defs>
     <g transform="translate(113.1 211.521656)scale(0.15 -0.15)">
      <use xlink:href="#DejaVuSans-57"/>
      <use x="98.845703" xlink:href="#DejaVuSans-69"/>
      <use x="126.628906" xlink:href="#DejaVuSans-74"/>
      <use x="165.837891" xlink:href="#DejaVuSans-68"/>
      <use x="229.216797" xlink:href="#DejaVuSans-20"/>
      <use x="261.003906" xlink:href="#DejaVuSans-43"/>
      <use x="330.828125" xlink:href="#DejaVuSans-52"/>
     </g>
    </g>
    <g id="line2d_23">
     <path d="M 71.1 228.288844 
L 101.1 228.288844 
" style="fill:none;stroke:#1f77b4;stroke-dasharray:11.1,4.8;stroke-dashoffset:0;stroke-width:3;"/>
    </g>
    <g id="line2d_24"/>
    <g id="text_18">
     <!-- Without CR -->
     <defs>
      <path d="M 30.609375 48.390625 
Q 23.390625 48.390625 19.1875 42.75 
Q 14.984375 37.109375 14.984375 27.296875 
Q 14.984375 17.484375 19.15625 11.84375 
Q 23.34375 6.203125 30.609375 6.203125 
Q 37.796875 6.203125 41.984375 11.859375 
Q 46.1875 17.53125 46.1875 27.296875 
Q 46.1875 37.015625 41.984375 42.703125 
Q 37.796875 48.390625 30.609375 48.390625 
z
M 30.609375 56 
Q 42.328125 56 49.015625 48.375 
Q 55.71875 40.765625 55.71875 27.296875 
Q 55.71875 13.875 49.015625 6.21875 
Q 42.328125 -1.421875 30.609375 -1.421875 
Q 18.84375 -1.421875 12.171875 6.21875 
Q 5.515625 13.875 5.515625 27.296875 
Q 5.515625 40.765625 12.171875 48.375 
Q 18.84375 56 30.609375 56 
z
" id="DejaVuSans-6f"/>
      <path d="M 8.5 21.578125 
L 8.5 54.6875 
L 17.484375 54.6875 
L 17.484375 21.921875 
Q 17.484375 14.15625 20.5 10.265625 
Q 23.53125 6.390625 29.59375 6.390625 
Q 36.859375 6.390625 41.078125 11.03125 
Q 45.3125 15.671875 45.3125 23.6875 
L 45.3125 54.6875 
L 54.296875 54.6875 
L 54.296875 0 
L 45.3125 0 
L 45.3125 8.40625 
Q 42.046875 3.421875 37.71875 1 
Q 33.40625 -1.421875 27.6875 -1.421875 
Q 18.265625 -1.421875 13.375 4.4375 
Q 8.5 10.296875 8.5 21.578125 
z
M 31.109375 56 
z
" id="DejaVuSans-75"/>
     </defs>
     <g transform="translate(113.1 233.538844)scale(0.15 -0.15)">
      <use xlink:href="#DejaVuSans-57"/>
      <use x="98.845703" xlink:href="#DejaVuSans-69"/>
      <use x="126.628906" xlink:href="#DejaVuSans-74"/>
      <use x="165.837891" xlink:href="#DejaVuSans-68"/>
      <use x="229.216797" xlink:href="#DejaVuSans-6f"/>
      <use x="290.398438" xlink:href="#DejaVuSans-75"/>
      <use x="353.777344" xlink:href="#DejaVuSans-74"/>
      <use x="392.986328" xlink:href="#DejaVuSans-20"/>
      <use x="424.773438" xlink:href="#DejaVuSans-43"/>
      <use x="494.597656" xlink:href="#DejaVuSans-52"/>
     </g>
    </g>
   </g>
  </g>
 </g>
 <defs>
  <clipPath id="p421914f817">
   <rect height="120.96" width="357.12" x="57.6" y="41.472"/>
  </clipPath>
  <clipPath id="pc559e55ae5">
   <rect height="120.96" width="357.12" x="57.6" y="186.624"/>
  </clipPath>
 </defs>
</svg>
