<?xml version="1.0" encoding="UTF-8" standalone="no"?>
<svg
   xmlns:ns1="http://www.iki.fi/pav/software/textext/"
   xmlns:dc="http://purl.org/dc/elements/1.1/"
   xmlns:cc="http://creativecommons.org/ns#"
   xmlns:rdf="http://www.w3.org/1999/02/22-rdf-syntax-ns#"
   xmlns:svg="http://www.w3.org/2000/svg"
   xmlns="http://www.w3.org/2000/svg"
   xmlns:sodipodi="http://sodipodi.sourceforge.net/DTD/sodipodi-0.dtd"
   xmlns:inkscape="http://www.inkscape.org/namespaces/inkscape"
   inkscape:version="1.0 (1.0+r73+1)"
   sodipodi:docname="Cristallo.svg"
   viewBox="0 0 279.10166 171.1192"
   height="171.1192"
   width="279.10165"
   xml:space="preserve"
   id="svg29"
   version="1.1"><metadata
     id="metadata35"><rdf:RDF><cc:Work
         rdf:about=""><dc:format>image/svg+xml</dc:format><dc:type
           rdf:resource="http://purl.org/dc/dcmitype/StillImage" /><dc:title /></cc:Work></rdf:RDF></metadata><defs
     id="defs33"><marker
       inkscape:stockid="Arrow1Mend"
       orient="auto"
       refY="0"
       refX="0"
       id="marker1042"
       style="overflow:visible"
       inkscape:isstock="true"><path
         id="path1040"
         d="M 0,0 5,-5 -12.5,0 5,5 Z"
         style="fill:#0064e2;fill-opacity:1;fill-rule:evenodd;stroke:#0064e2;stroke-width:1pt;stroke-opacity:1"
         transform="matrix(-0.4,0,0,-0.4,-4,0)" /></marker><marker
       inkscape:stockid="Arrow1Mend"
       orient="auto"
       refY="0"
       refX="0"
       id="marker1721"
       style="overflow:visible"
       inkscape:isstock="true"><path
         id="path1719"
         d="M 0,0 5,-5 -12.5,0 5,5 Z"
         style="fill:#f80000;fill-opacity:1;fill-rule:evenodd;stroke:#f80000;stroke-width:1pt;stroke-opacity:1"
         transform="matrix(-0.4,0,0,-0.4,-4,0)" /></marker><marker
       inkscape:stockid="Arrow1Mstart"
       orient="auto"
       refY="0"
       refX="0"
       id="marker1239"
       style="overflow:visible"
       inkscape:isstock="true"><path
         id="path1237"
         d="M 0,0 5,-5 -12.5,0 5,5 Z"
         style="fill:#f80000;fill-opacity:1;fill-rule:evenodd;stroke:#f80000;stroke-width:1pt;stroke-opacity:1"
         transform="matrix(0.4,0,0,0.4,4,0)" /></marker><inkscape:path-effect
       lpeversion="0"
       is_visible="true"
       id="path-effect1568"
       effect="spiro" /><inkscape:path-effect
       lpeversion="0"
       is_visible="true"
       id="path-effect1564"
       effect="spiro" /><inkscape:path-effect
       lpeversion="0"
       is_visible="true"
       id="path-effect1560"
       effect="spiro" /><inkscape:path-effect
       lpeversion="0"
       is_visible="true"
       id="path-effect1538"
       effect="spiro" /><inkscape:path-effect
       lpeversion="0"
       only_selected="false"
       apply_with_weight="true"
       apply_no_weight="true"
       helper_size="0"
       steps="2"
       weight="33.333333"
       is_visible="true"
       id="path-effect1508"
       effect="bspline" /><inkscape:path-effect
       lpeversion="0"
       only_selected="false"
       apply_with_weight="true"
       apply_no_weight="true"
       helper_size="0"
       steps="2"
       weight="33.333333"
       is_visible="true"
       id="path-effect1504"
       effect="bspline" /><inkscape:path-effect
       lpeversion="0"
       only_selected="false"
       apply_with_weight="true"
       apply_no_weight="true"
       helper_size="0"
       steps="2"
       weight="33.333333"
       is_visible="true"
       id="path-effect1500"
       effect="bspline" /><inkscape:path-effect
       lpeversion="0"
       only_selected="false"
       apply_with_weight="true"
       apply_no_weight="true"
       helper_size="0"
       steps="2"
       weight="33.333333"
       is_visible="true"
       id="path-effect1496"
       effect="bspline" /><marker
       inkscape:isstock="true"
       style="overflow:visible"
       id="SquareS"
       refX="0"
       refY="0"
       orient="auto"
       inkscape:stockid="SquareS"><path
         transform="scale(0.2)"
         style="fill:#000000;fill-opacity:1;fill-rule:evenodd;stroke:#000000;stroke-width:1pt;stroke-opacity:1"
         d="M -5,-5 V 5 H 5 V -5 Z"
         id="path1024" /></marker><marker
       inkscape:isstock="true"
       style="overflow:visible"
       id="DotM"
       refX="0"
       refY="0"
       orient="auto"
       inkscape:stockid="DotM"><path
         transform="matrix(0.4,0,0,0.4,2.96,0.4)"
         style="fill:#000000;fill-opacity:1;fill-rule:evenodd;stroke:#000000;stroke-width:1pt;stroke-opacity:1"
         d="m -2.5,-1 c 0,2.76 -2.24,5 -5,5 -2.76,0 -5,-2.24 -5,-5 0,-2.76 2.24,-5 5,-5 2.76,0 5,2.24 5,5 z"
         id="path1012" /></marker><marker
       inkscape:collect="always"
       inkscape:isstock="true"
       style="overflow:visible"
       id="Arrow1Mstart"
       refX="0"
       refY="0"
       orient="auto"
       inkscape:stockid="Arrow1Mstart"><path
         transform="matrix(0.4,0,0,0.4,4,0)"
         style="fill:#000000;fill-opacity:1;fill-rule:evenodd;stroke:#000000;stroke-width:1pt;stroke-opacity:1"
         d="M 0,0 5,-5 -12.5,0 5,5 Z"
         id="path954" /></marker><marker
       inkscape:collect="always"
       inkscape:isstock="true"
       style="overflow:visible"
       id="marker1272"
       refX="0"
       refY="0"
       orient="auto"
       inkscape:stockid="Arrow1Mend"><path
         transform="matrix(-0.4,0,0,-0.4,-4,0)"
         style="fill:#000000;fill-opacity:1;fill-rule:evenodd;stroke:#000000;stroke-width:1pt;stroke-opacity:1"
         d="M 0,0 5,-5 -12.5,0 5,5 Z"
         id="path1270" /></marker><marker
       inkscape:isstock="true"
       style="overflow:visible"
       id="Arrow1Mend"
       refX="0"
       refY="0"
       orient="auto"
       inkscape:stockid="Arrow1Mend"><path
         transform="matrix(-0.4,0,0,-0.4,-4,0)"
         style="fill:#000000;fill-opacity:1;fill-rule:evenodd;stroke:#000000;stroke-width:1pt;stroke-opacity:1"
         d="M 0,0 5,-5 -12.5,0 5,5 Z"
         id="path957" /></marker><marker
       inkscape:isstock="true"
       style="overflow:visible"
       id="Arrow1Lend"
       refX="0"
       refY="0"
       orient="auto"
       inkscape:stockid="Arrow1Lend"><path
         transform="matrix(-0.8,0,0,-0.8,-10,0)"
         style="fill:#000000;fill-opacity:1;fill-rule:evenodd;stroke:#000000;stroke-width:1pt;stroke-opacity:1"
         d="M 0,0 5,-5 -12.5,0 5,5 Z"
         id="path951" /></marker></defs><sodipodi:namedview
     inkscape:document-rotation="0"
     inkscape:current-layer="g37"
     inkscape:window-maximized="1"
     inkscape:window-y="0"
     inkscape:window-x="1366"
     inkscape:cy="98.597611"
     inkscape:cx="133.68503"
     inkscape:zoom="2.927679"
     showgrid="false"
     id="namedview31"
     inkscape:window-height="1022"
     inkscape:window-width="1680"
     inkscape:pageshadow="2"
     inkscape:pageopacity="0"
     guidetolerance="10"
     gridtolerance="10"
     objecttolerance="10"
     borderopacity="1"
     bordercolor="#666666"
     pagecolor="#ffffff" /><g
     transform="matrix(1.3333333,0,0,-1.3333333,-2.6325879,191.74822)"
     inkscape:label="ink_ext_XXXXXX"
     inkscape:groupmode="layer"
     id="g37"><g
   transform="matrix(0.08267161,0,0,0.08267161,30.090315,15.471762)"
   id="g39"><path
     inkscape:connector-curvature="0"
     id="path41"
     style="fill:none;stroke:#231f20;stroke-width:10;stroke-linecap:butt;stroke-linejoin:miter;stroke-miterlimit:10;stroke-dasharray:none;stroke-opacity:1"
     d="M 1714.35,68.3906 H 496.488 V 1286.25 H 1714.35 Z" /><path
     inkscape:connector-curvature="0"
     id="path43"
     style="fill:none;stroke:#231f20;stroke-width:10;stroke-linecap:butt;stroke-linejoin:miter;stroke-miterlimit:10;stroke-dasharray:none;stroke-opacity:1"
     d="M 905.684,1484.01 496.488,1286.25" /><path
     inkscape:connector-curvature="0"
     id="path45"
     style="fill:none;stroke:#231f20;stroke-width:10;stroke-linecap:butt;stroke-linejoin:miter;stroke-miterlimit:10;stroke-dasharray:none;stroke-opacity:1"
     d="M 2123.54,1484.01 1714.35,1286.25" /><path
     inkscape:connector-curvature="0"
     id="path47"
     style="fill:none;stroke:#231f20;stroke-width:10;stroke-linecap:butt;stroke-linejoin:miter;stroke-miterlimit:10;stroke-dasharray:none;stroke-opacity:1"
     d="M 905.684,1484.01 H 2123.54" /><path
     inkscape:connector-curvature="0"
     id="path49"
     style="fill:none;stroke:#231f20;stroke-width:10;stroke-linecap:butt;stroke-linejoin:miter;stroke-miterlimit:10;stroke-dasharray:none;stroke-opacity:1"
     d="M 2123.54,266.148 V 1484.01" /><path
     inkscape:connector-curvature="0"
     id="path51"
     style="fill:none;stroke:#231f20;stroke-width:10;stroke-linecap:butt;stroke-linejoin:miter;stroke-miterlimit:10;stroke-dasharray:none;stroke-opacity:1"
     d="M 2123.54,266.148 1714.35,68.3906" /><path
     inkscape:connector-curvature="0"
     id="path53"
     style="fill:none;stroke:#231f20;stroke-width:10;stroke-linecap:butt;stroke-linejoin:miter;stroke-miterlimit:10;stroke-dasharray:none;stroke-opacity:1"
     d="m 905.684,266.148 v 35" /><path
     inkscape:connector-curvature="0"
     id="path55"
     style="fill:none;stroke:#231f20;stroke-width:10;stroke-linecap:butt;stroke-linejoin:miter;stroke-miterlimit:10;stroke-dasharray:67.521, 67.521;stroke-dashoffset:0;stroke-opacity:1"
     d="M 905.684,368.672 V 1415.25" /><path
     inkscape:connector-curvature="0"
     id="path57"
     style="fill:none;stroke:#231f20;stroke-width:10;stroke-linecap:butt;stroke-linejoin:miter;stroke-miterlimit:10;stroke-dasharray:none;stroke-opacity:1"
     d="m 905.684,1449.01 v 35" /><path
     inkscape:connector-curvature="0"
     id="path59"
     style="fill:none;stroke:#231f20;stroke-width:10;stroke-linecap:butt;stroke-linejoin:miter;stroke-miterlimit:10;stroke-dasharray:none;stroke-opacity:1"
     d="M 905.684,266.148 874.168,250.922" /><path
     inkscape:connector-curvature="0"
     id="path61"
     style="fill:none;stroke:#231f20;stroke-width:10;stroke-linecap:butt;stroke-linejoin:miter;stroke-miterlimit:10;stroke-dasharray:76.8947, 76.8947;stroke-dashoffset:0;stroke-opacity:1"
     d="M 804.934,217.469 562.617,100.359" /><path
     inkscape:connector-curvature="0"
     id="path63"
     style="fill:none;stroke:#231f20;stroke-width:10;stroke-linecap:butt;stroke-linejoin:miter;stroke-miterlimit:10;stroke-dasharray:none;stroke-opacity:1"
     d="M 528.004,83.6289 496.488,68.3906" /><path
     inkscape:connector-curvature="0"
     id="path65"
     style="fill:none;stroke:#231f20;stroke-width:10;stroke-linecap:butt;stroke-linejoin:miter;stroke-miterlimit:10;stroke-dasharray:none;stroke-opacity:1"
     d="m 905.684,266.148 h 35" /><path
     inkscape:connector-curvature="0"
     id="path67"
     style="fill:none;stroke:#231f20;stroke-width:10;stroke-linecap:butt;stroke-linejoin:miter;stroke-miterlimit:10;stroke-dasharray:67.521, 67.521;stroke-dashoffset:0;stroke-opacity:1"
     d="M 1008.2,266.148 H 2054.78" /><path
     inkscape:connector-curvature="0"
     id="path69"
     style="fill:none;stroke:#231f20;stroke-width:10;stroke-linecap:butt;stroke-linejoin:miter;stroke-miterlimit:10;stroke-dasharray:none;stroke-opacity:1"
     d="m 2088.54,266.148 h 35" /><path
     inkscape:connector-curvature="0"
     id="path71"
     style="fill:none;stroke:#231f20;stroke-width:10;stroke-linecap:butt;stroke-linejoin:miter;stroke-miterlimit:10;stroke-dasharray:none;stroke-opacity:1"
     d="M 942.918,1420.61 1299.21,759.703" /><path
     inkscape:connector-curvature="0"
     id="path73"
     style="fill:none;stroke:#231f20;stroke-width:10;stroke-linecap:butt;stroke-linejoin:miter;stroke-miterlimit:10;stroke-dasharray:none;stroke-opacity:1"
     d="M 1714.35,1286.25 1299.21,759.703" /><path
     inkscape:connector-curvature="0"
     id="path75"
     style="fill:none;stroke:#231f20;stroke-width:10;stroke-linecap:butt;stroke-linejoin:miter;stroke-miterlimit:10;stroke-dasharray:none;stroke-opacity:1"
     d="M 1299.21,759.703 493.516,66.2617" /><path
     inkscape:connector-curvature="0"
     id="path77"
     style="fill:none;stroke:#231f20;stroke-width:10;stroke-linecap:butt;stroke-linejoin:miter;stroke-miterlimit:10;stroke-dasharray:none;stroke-opacity:1"
     d="M 2123.54,266.148 1299.21,759.703" /><path
     inkscape:connector-curvature="0"
     id="path79"
     style="fill:#00adef;fill-opacity:1;fill-rule:nonzero;stroke:none"
     d="m 1362.6,759.703 c 0,-35.012 -28.38,-63.39 -63.39,-63.39 -35.02,0 -63.4,28.378 -63.4,63.39 0,35.016 28.38,63.391 63.4,63.391 35.01,0 63.39,-28.375 63.39,-63.391" /><path
     inkscape:connector-curvature="0"
     id="path81"
     style="fill:none;stroke:#231f20;stroke-width:10;stroke-linecap:butt;stroke-linejoin:miter;stroke-miterlimit:10;stroke-dasharray:none;stroke-opacity:1"
     d="m 1362.6,759.703 c 0,-35.012 -28.38,-63.39 -63.39,-63.39 -35.02,0 -63.4,28.378 -63.4,63.39 0,35.016 28.38,63.391 63.4,63.391 35.01,0 63.39,-28.375 63.39,-63.391 z" /><path
     inkscape:connector-curvature="0"
     id="path83"
     style="fill:#ffffff;fill-opacity:1;fill-rule:nonzero;stroke:none"
     d="m 1777.74,1286.25 c 0,-35.01 -28.38,-63.39 -63.39,-63.39 -35.02,0 -63.4,28.38 -63.4,63.39 0,35.02 28.38,63.4 63.4,63.4 35.01,0 63.39,-28.38 63.39,-63.4" /><path
     inkscape:connector-curvature="0"
     id="path85"
     style="fill:none;stroke:#231f20;stroke-width:10;stroke-linecap:butt;stroke-linejoin:miter;stroke-miterlimit:10;stroke-dasharray:none;stroke-opacity:1"
     d="m 1777.74,1286.25 c 0,-35.01 -28.38,-63.39 -63.39,-63.39 -35.02,0 -63.4,28.38 -63.4,63.39 0,35.02 28.38,63.4 63.4,63.4 35.01,0 63.39,-28.38 63.39,-63.4 z" /><path
     inkscape:connector-curvature="0"
     id="path87"
     style="fill:#ffffff;fill-opacity:1;fill-rule:nonzero;stroke:none"
     d="m 2186.93,266.148 c 0,-35.007 -28.38,-63.386 -63.39,-63.386 -35.01,0 -63.39,28.379 -63.39,63.386 0,35.012 28.38,63.403 63.39,63.403 35.01,0 63.39,-28.391 63.39,-63.403" /><path
     inkscape:connector-curvature="0"
     id="path89"
     style="fill:none;stroke:#231f20;stroke-width:10;stroke-linecap:butt;stroke-linejoin:miter;stroke-miterlimit:10;stroke-dasharray:none;stroke-opacity:1"
     d="m 2186.93,266.148 c 0,-35.007 -28.38,-63.386 -63.39,-63.386 -35.01,0 -63.39,28.379 -63.39,63.386 0,35.012 28.38,63.403 63.39,63.403 35.01,0 63.39,-28.391 63.39,-63.403 z" /><path
     inkscape:connector-curvature="0"
     id="path91"
     style="fill:#ffffff;fill-opacity:1;fill-rule:nonzero;stroke:none"
     d="m 969.074,1484.01 c 0,-35.02 -28.383,-63.4 -63.39,-63.4 -35.012,0 -63.395,28.38 -63.395,63.4 0,35.01 28.383,63.39 63.395,63.39 35.007,0 63.39,-28.38 63.39,-63.39" /><path
     inkscape:connector-curvature="0"
     id="path93"
     style="fill:none;stroke:#231f20;stroke-width:10;stroke-linecap:butt;stroke-linejoin:miter;stroke-miterlimit:10;stroke-dasharray:none;stroke-opacity:1"
     d="m 969.074,1484.01 c 0,-35.02 -28.383,-63.4 -63.39,-63.4 -35.012,0 -63.395,28.38 -63.395,63.4 0,35.01 28.383,63.39 63.395,63.39 35.007,0 63.39,-28.38 63.39,-63.39 z" /><path
     inkscape:connector-curvature="0"
     id="path95"
     style="fill:#ffffff;fill-opacity:1;fill-rule:nonzero;stroke:none"
     d="M 559.883,68.3906 C 559.883,33.3789 531.496,5 496.488,5 c -35.011,0 -63.394,28.3789 -63.394,63.3906 0,35.0074 28.383,63.3984 63.394,63.3984 35.008,0 63.395,-28.391 63.395,-63.3984" /><path
     inkscape:connector-curvature="0"
     id="path97"
     style="fill:none;stroke:#231f20;stroke-width:10;stroke-linecap:butt;stroke-linejoin:miter;stroke-miterlimit:10;stroke-dasharray:none;stroke-opacity:1"
     d="M 559.883,68.3906 C 559.883,33.3789 531.496,5 496.488,5 c -35.011,0 -63.394,28.3789 -63.394,63.3906 0,35.0074 28.383,63.3984 63.394,63.3984 35.008,0 63.395,-28.391 63.395,-63.3984 z" /><g
     transform="scale(10)"
     id="g111"><text
   id="text119"
   style="font-variant:normal;font-weight:normal;font-size:12px;font-family:MyriadPro;-inkscape-font-specification:MyriadPro-Regular;writing-mode:lr-tb;fill:#231f20;fill-opacity:1;fill-rule:nonzero;stroke:none"
   transform="matrix(1,0,0,-1,25.4984,20.2762)"><tspan
     id="tspan115"
     y="-24.9109"
     x="-4.7910199" /></text>
</g></g>


<g
   transform="matrix(1.1963987,0,0,1.1963987,2.0406681,3.9614655)"
   id="g1386"><path
     style="fill:none;fill-rule:evenodd;stroke:#000000;stroke-width:0.75px;stroke-linecap:butt;stroke-linejoin:miter;stroke-opacity:1;marker-end:url(#Arrow1Mend)"
     d="M 19.563501,47.821902 V 80.065445"
     id="path141"
     inkscape:connector-curvature="0" /><path
     style="fill:none;fill-rule:evenodd;stroke:#000000;stroke-width:0.75px;stroke-linecap:butt;stroke-linejoin:miter;stroke-opacity:1;marker-start:url(#Arrow1Mstart);marker-end:url(#marker1272)"
     d="M 47.27846,47.821902 H 19.563501 L 2.988865,31.247266"
     id="path1268"
     inkscape:connector-curvature="0" /></g><path
   inkscape:connector-curvature="0"
   id="path1388"
   d="M 25.446415,61.175527 37.149289,89.349111"
   style="fill:none;fill-rule:evenodd;stroke:#0064e2;stroke-width:0.4485;stroke-linecap:butt;stroke-linejoin:miter;stroke-miterlimit:4;stroke-dasharray:none;stroke-dashoffset:0;stroke-opacity:1;marker-end:url(#marker1042)" /><g
   transform="matrix(1.1963987,0,0,1.1963987,2.0406681,3.9614655)"
   id="g1859"><path
     style="fill:none;fill-rule:evenodd;stroke:#000000;stroke-width:0.375;stroke-linecap:butt;stroke-linejoin:miter;stroke-miterlimit:4;stroke-dasharray:0.375, 0.375;stroke-dashoffset:0;stroke-opacity:1;marker-end:url(#SquareS)"
     d="M 29.345252,71.37056 V 40.395012"
     id="path1440"
     inkscape:connector-curvature="0" /><path
     style="fill:none;fill-rule:evenodd;stroke:#000000;stroke-width:0.375;stroke-linecap:butt;stroke-linejoin:miter;stroke-miterlimit:4;stroke-dasharray:0.375, 0.375;stroke-dashoffset:0;stroke-opacity:1"
     d="m 19.563501,47.821902 9.781751,-7.42689"
     id="path1492"
     inkscape:connector-curvature="0" /><text
     xml:space="preserve"
     style="font-style:normal;font-weight:normal;font-size:10px;line-height:125%;font-family:Sans;letter-spacing:0px;word-spacing:0px;fill:#000000;fill-opacity:1;stroke:none;stroke-width:0.75px;stroke-linecap:butt;stroke-linejoin:miter;stroke-opacity:1"
     x="12.136616"
     y="-78.616295"
     id="text1512"
     transform="scale(1,-1)"><tspan
       sodipodi:role="line"
       id="tspan1510"
       x="12.136616"
       y="-78.616295"
       style="stroke-width:0.75px">z</tspan></text><text
     xml:space="preserve"
     style="font-style:normal;font-weight:normal;font-size:10px;line-height:125%;font-family:Sans;letter-spacing:0px;word-spacing:0px;fill:#000000;fill-opacity:1;stroke:none;stroke-width:0.75px;stroke-linecap:butt;stroke-linejoin:miter;stroke-opacity:1"
     x="6.7023106"
     y="-26.628115"
     id="text1516"
     transform="scale(1,-1)"><tspan
       sodipodi:role="line"
       id="tspan1514"
       x="6.7023106"
       y="-26.628115"
       style="stroke-width:0.75px">x</tspan></text><text
     xml:space="preserve"
     style="font-style:normal;font-weight:normal;font-size:10px;line-height:125%;font-family:Sans;letter-spacing:0px;word-spacing:0px;fill:#000000;fill-opacity:1;stroke:none;stroke-width:0.75px;stroke-linecap:butt;stroke-linejoin:miter;stroke-opacity:1"
     x="40.938435"
     y="-39.670433"
     id="text1520"
     transform="scale(1,-1)"><tspan
       sodipodi:role="line"
       id="tspan1518"
       x="40.938435"
       y="-39.670433"
       style="stroke-width:0.75px">y</tspan></text><path
     style="fill:none;fill-rule:evenodd;stroke:#f80000;stroke-width:0.375;stroke-linecap:butt;stroke-linejoin:miter;stroke-miterlimit:4;stroke-dasharray:none;stroke-opacity:1"
     d="m 19.382357,63.400243 c 1.018067,0.896844 2.491025,1.247547 3.804014,0.905715 0.943143,-0.245544 1.79305,-0.833941 2.354866,-1.63029"
     id="path1562"
     inkscape:connector-curvature="0"
     inkscape:path-effect="#path-effect1564"
     inkscape:original-d="m 19.382357,63.400243 c 1.268755,0.302655 2.53676,0.60456 3.804014,0.905715 1.267255,0.301155 1.570661,-1.086113 2.354866,-1.63029" /><path
     style="fill:none;fill-rule:evenodd;stroke:#ff0000;stroke-width:0.375;stroke-linecap:butt;stroke-linejoin:miter;stroke-miterlimit:4;stroke-dasharray:none;stroke-opacity:1"
     d="m 14.672625,42.931025 c 1.608434,-0.807552 3.486174,-1.066551 5.253163,-0.724576 1.559613,0.30184 3.02653,1.067189 4.166301,2.173726"
     id="path1566"
     inkscape:connector-curvature="0"
     inkscape:path-effect="#path-effect1568"
     inkscape:original-d="m 14.672625,42.931025 c 1.751805,-0.240773 3.502859,-0.482303 5.253163,-0.724576 1.750304,-0.242272 2.778284,1.449901 4.166301,2.173726" /><g
     id="g157"
     ns1:jacobian_sqrt="1.33333"
     ns1:inkscapeversion="0.92.3"
     ns1:alignment="middle center"
     ns1:scale="1.0"
     ns1:preamble="/home/zouzou/.config/inkscape/extensions/textext/default_packages.tex"
     ns1:text="$\\theta$"
     ns1:pdfconverter="inkscape"
     ns1:texconverter="pdflatex"
     ns1:version="1.1.0"
     transform="matrix(0.80978195,0,0,0.80978195,22.139821,65.556955)"><defs
   id="id-b28e4b3d-6d48-4634-abb1-0214a14d60fd">
    <g
   id="id-40e3ce35-4af6-4ecf-8584-5e84c4b816c5">
      <symbol
   overflow="visible"
   id="id-d7148bcb-dcca-4ea7-82f8-b69c44f4c4d7">
        <path
   style="stroke:none"
   d=""
   id="id-8b7d980c-034c-44f2-88b0-de662f3057a4" />
      </symbol>
      <symbol
   overflow="visible"
   id="id-8740ff21-9f88-41ec-9c32-c0fa27197db9">
        <path
   style="stroke:none"
   d="m 4.53125,-4.984375 c 0,-0.65625 -0.171875,-2.046875 -1.1875,-2.046875 -1.390625,0 -2.921875,2.8125 -2.921875,5.09375 0,0.9375 0.28125,2.046875 1.1875,2.046875 1.40625,0 2.921875,-2.859375 2.921875,-5.09375 z M 1.46875,-3.625 C 1.640625,-4.25 1.84375,-5.046875 2.25,-5.765625 2.515625,-6.25 2.875,-6.8125 3.328125,-6.8125 c 0.484375,0 0.546875,0.640625 0.546875,1.203125 0,0.5 -0.078125,1 -0.3125,1.984375 z m 2,0.328125 C 3.359375,-2.84375 3.15625,-2 2.765625,-1.28125 c -0.34375,0.6875 -0.71875,1.171875 -1.15625,1.171875 -0.328125,0 -0.53125,-0.296875 -0.53125,-1.21875 0,-0.421875 0.0625,-1 0.3125,-1.96875 z m 0,0"
   id="id-39df336b-cdd6-476d-bf45-d37dbc1afc8d" />
      </symbol>
    </g>
  </defs>
  <g
   id="id-66d2c8ba-ac77-4997-b2a5-747aeffa2d3a"
   transform="translate(-149.134,-127.734)">
    <g
   style="fill:#000000;fill-opacity:1"
   id="id-9ee4cf3f-f1b4-41ee-bb0a-afe62eb3ad0d">
      <g
   id="g153"
   transform="translate(148.712,134.765)"><path
   style="stroke:none"
   d="m 4.53125,-4.984375 c 0,-0.65625 -0.171875,-2.046875 -1.1875,-2.046875 -1.390625,0 -2.921875,2.8125 -2.921875,5.09375 0,0.9375 0.28125,2.046875 1.1875,2.046875 1.40625,0 2.921875,-2.859375 2.921875,-5.09375 z M 1.46875,-3.625 C 1.640625,-4.25 1.84375,-5.046875 2.25,-5.765625 2.515625,-6.25 2.875,-6.8125 3.328125,-6.8125 c 0.484375,0 0.546875,0.640625 0.546875,1.203125 0,0.5 -0.078125,1 -0.3125,1.984375 z m 2,0.328125 C 3.359375,-2.84375 3.15625,-2 2.765625,-1.28125 c -0.34375,0.6875 -0.71875,1.171875 -1.15625,1.171875 -0.328125,0 -0.53125,-0.296875 -0.53125,-1.21875 0,-0.421875 0.0625,-1 0.3125,-1.96875 z m 0,0"
   id="id-7ba21b8f-649c-42ac-8fe2-34df0a883158" />
      </g></g>
  </g>
</g><g
     id="g362"
     ns1:jacobian_sqrt="0.809782"
     ns1:inkscapeversion="0.92.3"
     ns1:alignment="middle center"
     ns1:scale="0.6073379808449522"
     ns1:preamble="/home/zouzou/.config/inkscape/extensions/textext/default_packages.tex"
     ns1:text="$\\phi$"
     ns1:pdfconverter="inkscape"
     ns1:texconverter="pdflatex"
     ns1:version="1.1.0"
     transform="matrix(0.809782,0,0,0.809782,17.562623,33.681705)"><defs
   id="id-393d69ed-fd58-416c-9398-2b431e60e5ff">
    <g
   id="id-89afd30d-558d-473f-af60-440a320f845c">
      <symbol
   overflow="visible"
   id="id-8ef4cce2-db8d-4c32-be60-380f187bc907">
        <path
   style="stroke:none"
   d=""
   id="id-02526933-5bb4-4957-984f-101b2e8e0c8f" />
      </symbol>
      <symbol
   overflow="visible"
   id="id-c4200522-639b-4424-8eaa-520490cd493f">
        <path
   style="stroke:none"
   d="m 4.359375,-6.671875 c 0,-0.03125 0.03125,-0.140625 0.03125,-0.140625 0,-0.015625 0,-0.109375 -0.125,-0.109375 -0.09375,0 -0.109375,0.03125 -0.15625,0.203125 L 3.53125,-4.421875 c -1.578125,0.0625 -3.046875,1.375 -3.046875,2.734375 0,0.953125 0.703125,1.734375 1.921875,1.8125 C 2.328125,0.421875 2.25,0.75 2.171875,1.0625 c -0.125,0.46875 -0.21875,0.84375 -0.21875,0.875 0,0.09375 0.078125,0.109375 0.125,0.109375 C 2.125,2.046875 2.140625,2.03125 2.171875,2 2.1875,1.984375 2.25,1.75 2.28125,1.609375 L 2.65625,0.125 c 1.609375,-0.0625 3.0625,-1.40625 3.0625,-2.734375 0,-0.796875 -0.53125,-1.703125 -1.921875,-1.8125 z m -1.90625,6.578125 c -0.59375,-0.03125 -1.3125,-0.390625 -1.3125,-1.375 0,-1.203125 0.859375,-2.59375 2.34375,-2.734375 z m 1.28125,-4.109375 c 0.765625,0.046875 1.328125,0.5 1.328125,1.375 0,1.1875 -0.859375,2.609375 -2.34375,2.734375 z m 0,0"
   id="id-7660706d-05b1-41ef-b870-3989c9304980" />
      </symbol>
    </g>
  </defs>
  <g
   id="id-f50069ef-bf82-41e8-a3a4-37860a04e13d"
   transform="translate(-149.196,-127.843)">
    <g
   style="fill:#000000;fill-opacity:1"
   id="id-0a24a144-cb8f-41e0-9e54-e342fbc25e67">
      <g
   id="g358"
   transform="translate(148.712,134.765)"><path
   style="stroke:none"
   d="m 4.359375,-6.671875 c 0,-0.03125 0.03125,-0.140625 0.03125,-0.140625 0,-0.015625 0,-0.109375 -0.125,-0.109375 -0.09375,0 -0.109375,0.03125 -0.15625,0.203125 L 3.53125,-4.421875 c -1.578125,0.0625 -3.046875,1.375 -3.046875,2.734375 0,0.953125 0.703125,1.734375 1.921875,1.8125 C 2.328125,0.421875 2.25,0.75 2.171875,1.0625 c -0.125,0.46875 -0.21875,0.84375 -0.21875,0.875 0,0.09375 0.078125,0.109375 0.125,0.109375 C 2.125,2.046875 2.140625,2.03125 2.171875,2 2.1875,1.984375 2.25,1.75 2.28125,1.609375 L 2.65625,0.125 c 1.609375,-0.0625 3.0625,-1.40625 3.0625,-2.734375 0,-0.796875 -0.53125,-1.703125 -1.921875,-1.8125 z m -1.90625,6.578125 c -0.59375,-0.03125 -1.3125,-0.390625 -1.3125,-1.375 0,-1.203125 0.859375,-2.59375 2.34375,-2.734375 z m 1.28125,-4.109375 c 0.765625,0.046875 1.328125,0.5 1.328125,1.375 0,1.1875 -0.859375,2.609375 -2.34375,2.734375 z m 0,0"
   id="id-13d307c3-6cb1-44c5-afd2-1ce5401e0a22" />
      </g></g>
  </g>
</g></g><text
   xml:space="preserve"
   style="font-style:normal;font-weight:normal;font-size:9.99998px;line-height:125%;font-family:Sans;letter-spacing:0px;word-spacing:0px;fill:#000000;fill-opacity:1;stroke:none;stroke-width:0.75px;stroke-linecap:butt;stroke-linejoin:miter;stroke-opacity:1"
   x="1.1150677"
   y="-26.003683"
   id="text105"
   transform="scale(1,-1)"><tspan
     sodipodi:role="line"
     x="1.1150677"
     y="-26.003683"
     style="stroke-width:0.75px"
     id="tspan107">(100)</tspan></text><text
   id="text105-3"
   y="-40.568905"
   x="40.493298"
   style="font-style:normal;font-weight:normal;font-size:9.99998px;line-height:125%;font-family:Sans;letter-spacing:0px;word-spacing:0px;fill:#000000;fill-opacity:1;stroke:none;stroke-width:0.75px;stroke-linecap:butt;stroke-linejoin:miter;stroke-opacity:1"
   xml:space="preserve"
   transform="scale(1,-1)"><tspan
     id="tspan107-6"
     style="stroke-width:0.75px"
     y="-40.568905"
     x="40.493298"
     sodipodi:role="line">(010)</tspan></text><text
   id="text105-7"
   y="-107.48273"
   x="6.639338"
   style="font-style:normal;font-weight:normal;font-size:9.99998px;line-height:125%;font-family:Sans;letter-spacing:0px;word-spacing:0px;fill:#000000;fill-opacity:1;stroke:none;stroke-width:0.75px;stroke-linecap:butt;stroke-linejoin:miter;stroke-opacity:1"
   xml:space="preserve"
   transform="scale(1,-1)"><tspan
     id="tspan107-5"
     style="stroke-width:0.75px"
     y="-107.48273"
     x="6.639338"
     sodipodi:role="line">(001)</tspan></text><g
   style="fill:#0064e2;fill-opacity:1;stroke:none;stroke-width:0.614497;stroke-miterlimit:4;stroke-dasharray:none;stroke-opacity:1"
   transform="matrix(1.1890596,-0.00865558,-0.00821563,-1.2527339,39.314654,95.488288)"
   ns1:version="1.1.0"
   ns1:texconverter="pdflatex"
   ns1:pdfconverter="inkscape"
   ns1:text="$\\vec{B}$"
   ns1:preamble="/home/zouzou/.config/inkscape/extensions/textext/default_packages.tex"
   ns1:scale="3.0"
   ns1:alignment="middle center"
   ns1:inkscapeversion="1.0"
   ns1:jacobian_sqrt="3.99999"
   id="g1274"><defs
   id="id-0b79fda2-1b3c-4931-aaab-ba916d3624da">
    <g
   id="id-325e804d-c0af-496a-96a6-816a615b4fd9">
      <symbol
   id="id-c77605de-dcaf-4855-bb34-4fda314ebc81"
   overflow="visible">
        <path
   id="id-4ed76c24-628b-48e6-bfe9-c71f605f4af9"
   d=""
   style="stroke:none" />
      </symbol>
      <symbol
   id="id-e4a35910-06f8-48ef-8738-f0073c1c24cf"
   overflow="visible">
        <path
   id="id-febe6e69-290c-40b4-9c8a-2e364ca45571"
   d="m 5.359375,-5.9375 c -0.140625,0.140625 -0.46875,0.421875 -0.46875,0.59375 0,0.09375 0.09375,0.203125 0.1875,0.203125 0.09375,0 0.140625,-0.078125 0.203125,-0.140625 C 5.390625,-5.421875 5.625,-5.703125 6.0625,-5.921875 6.125,-5.96875 6.234375,-6.015625 6.234375,-6.125 6.234375,-6.234375 6.15625,-6.28125 6.09375,-6.328125 5.875,-6.484375 5.765625,-6.65625 5.6875,-6.890625 5.65625,-6.984375 5.625,-7.125 5.484375,-7.125 c -0.140625,0 -0.203125,0.140625 -0.203125,0.21875 0,0.046875 0.078125,0.359375 0.234375,0.578125 H 2.15625 c -0.15625,0 -0.34375,0 -0.34375,0.203125 0,0.1875 0.1875,0.1875 0.34375,0.1875 z m 0,0"
   style="stroke:none" />
      </symbol>
      <symbol
   id="id-342e2c05-fa49-4b8c-9e71-5b3b892db59e"
   overflow="visible">
        <path
   id="id-d63d5b36-1ed3-400b-a0e3-8167658cd232"
   d="M 1.59375,-0.78125 C 1.5,-0.390625 1.46875,-0.3125 0.6875,-0.3125 c -0.171875,0 -0.265625,0 -0.265625,0.203125 C 0.421875,0 0.515625,0 0.6875,0 H 4.25 C 5.828125,0 7,-1.171875 7,-2.15625 7,-2.875 6.421875,-3.453125 5.453125,-3.5625 6.484375,-3.75 7.53125,-4.484375 7.53125,-5.4375 c 0,-0.734375 -0.65625,-1.375 -1.84375,-1.375 H 2.328125 c -0.1875,0 -0.28125,0 -0.28125,0.203125 0,0.109375 0.09375,0.109375 0.28125,0.109375 0.015625,0 0.203125,0 0.375,0.015625 0.171875,0.03125 0.265625,0.03125 0.265625,0.171875 0,0.03125 -0.015625,0.0625 -0.03125,0.1875 z m 1.5,-2.875 0.625,-2.46875 C 3.8125,-6.46875 3.828125,-6.5 4.25,-6.5 h 1.296875 c 0.875,0 1.078125,0.59375 1.078125,1.03125 0,0.875 -0.859375,1.8125 -2.0625,1.8125 z m -0.4375,3.34375 c -0.140625,0 -0.15625,0 -0.21875,0 -0.109375,-0.015625 -0.140625,-0.03125 -0.140625,-0.109375 0,-0.03125 0,-0.046875 0.0625,-0.21875 l 0.6875,-2.78125 h 1.875 c 0.953125,0 1.15625,0.734375 1.15625,1.15625 C 6.078125,-1.28125 5.1875,-0.3125 4,-0.3125 Z m 0,0"
   style="stroke:none" />
      </symbol>
    </g>
  </defs>
  <g
   style="fill:#0064e2;fill-opacity:1;stroke:none;stroke-width:0.614497;stroke-miterlimit:4;stroke-dasharray:none;stroke-opacity:1"
   transform="translate(-149.134,-125.121)"
   id="id-b8439f3a-3657-4f25-b22c-b3a93df50203">
    <g
   id="id-1e947d72-819b-4cc2-8b74-8d516c4d499b"
   style="fill:#0064e2;fill-opacity:1;stroke:none;stroke-width:0.614497;stroke-miterlimit:4;stroke-dasharray:none;stroke-opacity:1">
      <g
   style="fill:#0064e2;fill-opacity:1;stroke:none;stroke-width:0.614497;stroke-miterlimit:4;stroke-dasharray:none;stroke-opacity:1"
   transform="translate(150.314,132.246)"
   id="g1266"><path
   id="id-302cd12a-a5ab-4b91-88b5-30275989c50e"
   d="m 5.359375,-5.9375 c -0.140625,0.140625 -0.46875,0.421875 -0.46875,0.59375 0,0.09375 0.09375,0.203125 0.1875,0.203125 0.09375,0 0.140625,-0.078125 0.203125,-0.140625 C 5.390625,-5.421875 5.625,-5.703125 6.0625,-5.921875 6.125,-5.96875 6.234375,-6.015625 6.234375,-6.125 6.234375,-6.234375 6.15625,-6.28125 6.09375,-6.328125 5.875,-6.484375 5.765625,-6.65625 5.6875,-6.890625 5.65625,-6.984375 5.625,-7.125 5.484375,-7.125 c -0.140625,0 -0.203125,0.140625 -0.203125,0.21875 0,0.046875 0.078125,0.359375 0.234375,0.578125 H 2.15625 c -0.15625,0 -0.34375,0 -0.34375,0.203125 0,0.1875 0.1875,0.1875 0.34375,0.1875 z m 0,0"
   style="fill:#0064e2;fill-opacity:1;stroke:none;stroke-width:0.614497;stroke-miterlimit:4;stroke-dasharray:none;stroke-opacity:1" />
      </g></g>
    <g
   id="id-75a1edd6-1bce-4b24-aabc-56a976f91caa"
   style="fill:#0064e2;fill-opacity:1;stroke:none;stroke-width:0.614497;stroke-miterlimit:4;stroke-dasharray:none;stroke-opacity:1">
      <g
   style="fill:#0064e2;fill-opacity:1;stroke:none;stroke-width:0.614497;stroke-miterlimit:4;stroke-dasharray:none;stroke-opacity:1"
   transform="translate(148.712,134.765)"
   id="g1270"><path
   id="id-30030ea7-7a63-4bcd-ab41-9923a723ece7"
   d="M 1.59375,-0.78125 C 1.5,-0.390625 1.46875,-0.3125 0.6875,-0.3125 c -0.171875,0 -0.265625,0 -0.265625,0.203125 C 0.421875,0 0.515625,0 0.6875,0 H 4.25 C 5.828125,0 7,-1.171875 7,-2.15625 7,-2.875 6.421875,-3.453125 5.453125,-3.5625 6.484375,-3.75 7.53125,-4.484375 7.53125,-5.4375 c 0,-0.734375 -0.65625,-1.375 -1.84375,-1.375 H 2.328125 c -0.1875,0 -0.28125,0 -0.28125,0.203125 0,0.109375 0.09375,0.109375 0.28125,0.109375 0.015625,0 0.203125,0 0.375,0.015625 0.171875,0.03125 0.265625,0.03125 0.265625,0.171875 0,0.03125 -0.015625,0.0625 -0.03125,0.1875 z m 1.5,-2.875 0.625,-2.46875 C 3.8125,-6.46875 3.828125,-6.5 4.25,-6.5 h 1.296875 c 0.875,0 1.078125,0.59375 1.078125,1.03125 0,0.875 -0.859375,1.8125 -2.0625,1.8125 z m -0.4375,3.34375 c -0.140625,0 -0.15625,0 -0.21875,0 -0.109375,-0.015625 -0.140625,-0.03125 -0.140625,-0.109375 0,-0.03125 0,-0.046875 0.0625,-0.21875 l 0.6875,-2.78125 h 1.875 c 0.953125,0 1.15625,0.734375 1.15625,1.15625 C 6.078125,-1.28125 5.1875,-0.3125 4,-0.3125 Z m 0,0"
   style="fill:#0064e2;fill-opacity:1;stroke:none;stroke-width:0.614497;stroke-miterlimit:4;stroke-dasharray:none;stroke-opacity:1" />
      </g></g>
  </g>
</g></g></svg>
