<?xml version="1.0" encoding="utf-8" standalone="no"?>
<!DOCTYPE svg PUBLIC "-//W3C//DTD SVG 1.1//EN"
  "http://www.w3.org/Graphics/SVG/1.1/DTD/svg11.dtd">
<!-- Created with matplotlib (http://matplotlib.org/) -->
<svg height="430.56pt" version="1.1" viewBox="0 0 669.6 430.56" width="669.6pt" xmlns="http://www.w3.org/2000/svg" xmlns:xlink="http://www.w3.org/1999/xlink">
 <defs>
  <style type="text/css">
*{stroke-linecap:butt;stroke-linejoin:round;}
  </style>
 </defs>
 <g id="figure_1">
  <g id="patch_1">
   <path d="M 0 430.56 
L 669.6 430.56 
L 669.6 0 
L 0 0 
z
" style="fill:#ffffff;"/>
  </g>
  <g id="axes_1">
   <g id="patch_2">
    <path d="M 83.7 383.1984 
L 602.64 383.1984 
L 602.64 51.6672 
L 83.7 51.6672 
z
" style="fill:#ffffff;"/>
   </g>
   <g id="matplotlib.axis_1">
    <g id="xtick_1">
     <g id="line2d_1">
      <defs>
       <path d="M 0 0 
L 0 3.5 
" id="m1795787307" style="stroke:#000000;stroke-width:0.8;"/>
      </defs>
      <g>
       <use style="stroke:#000000;stroke-width:0.8;" x="107.288182" xlink:href="#m1795787307" y="383.1984"/>
      </g>
     </g>
     <g id="text_1">
      <!-- 0 -->
      <defs>
       <path d="M 31.78125 66.40625 
Q 24.171875 66.40625 20.328125 58.90625 
Q 16.5 51.421875 16.5 36.375 
Q 16.5 21.390625 20.328125 13.890625 
Q 24.171875 6.390625 31.78125 6.390625 
Q 39.453125 6.390625 43.28125 13.890625 
Q 47.125 21.390625 47.125 36.375 
Q 47.125 51.421875 43.28125 58.90625 
Q 39.453125 66.40625 31.78125 66.40625 
z
M 31.78125 74.21875 
Q 44.046875 74.21875 50.515625 64.515625 
Q 56.984375 54.828125 56.984375 36.375 
Q 56.984375 17.96875 50.515625 8.265625 
Q 44.046875 -1.421875 31.78125 -1.421875 
Q 19.53125 -1.421875 13.0625 8.265625 
Q 6.59375 17.96875 6.59375 36.375 
Q 6.59375 54.828125 13.0625 64.515625 
Q 19.53125 74.21875 31.78125 74.21875 
z
" id="DejaVuSans-30"/>
      </defs>
      <g transform="translate(102.516307 401.596056)scale(0.15 -0.15)">
       <use xlink:href="#DejaVuSans-30"/>
      </g>
     </g>
    </g>
    <g id="xtick_2">
     <g id="line2d_2">
      <g>
       <use style="stroke:#000000;stroke-width:0.8;" x="176.15964" xlink:href="#m1795787307" y="383.1984"/>
      </g>
     </g>
     <g id="text_2">
      <!-- 20 -->
      <defs>
       <path d="M 19.1875 8.296875 
L 53.609375 8.296875 
L 53.609375 0 
L 7.328125 0 
L 7.328125 8.296875 
Q 12.9375 14.109375 22.625 23.890625 
Q 32.328125 33.6875 34.8125 36.53125 
Q 39.546875 41.84375 41.421875 45.53125 
Q 43.3125 49.21875 43.3125 52.78125 
Q 43.3125 58.59375 39.234375 62.25 
Q 35.15625 65.921875 28.609375 65.921875 
Q 23.96875 65.921875 18.8125 64.3125 
Q 13.671875 62.703125 7.8125 59.421875 
L 7.8125 69.390625 
Q 13.765625 71.78125 18.9375 73 
Q 24.125 74.21875 28.421875 74.21875 
Q 39.75 74.21875 46.484375 68.546875 
Q 53.21875 62.890625 53.21875 53.421875 
Q 53.21875 48.921875 51.53125 44.890625 
Q 49.859375 40.875 45.40625 35.40625 
Q 44.1875 33.984375 37.640625 27.21875 
Q 31.109375 20.453125 19.1875 8.296875 
z
" id="DejaVuSans-32"/>
      </defs>
      <g transform="translate(166.61589 401.596056)scale(0.15 -0.15)">
       <use xlink:href="#DejaVuSans-32"/>
       <use x="63.623047" xlink:href="#DejaVuSans-30"/>
      </g>
     </g>
    </g>
    <g id="xtick_3">
     <g id="line2d_3">
      <g>
       <use style="stroke:#000000;stroke-width:0.8;" x="245.031099" xlink:href="#m1795787307" y="383.1984"/>
      </g>
     </g>
     <g id="text_3">
      <!-- 40 -->
      <defs>
       <path d="M 37.796875 64.3125 
L 12.890625 25.390625 
L 37.796875 25.390625 
z
M 35.203125 72.90625 
L 47.609375 72.90625 
L 47.609375 25.390625 
L 58.015625 25.390625 
L 58.015625 17.1875 
L 47.609375 17.1875 
L 47.609375 0 
L 37.796875 0 
L 37.796875 17.1875 
L 4.890625 17.1875 
L 4.890625 26.703125 
z
" id="DejaVuSans-34"/>
      </defs>
      <g transform="translate(235.487349 401.596056)scale(0.15 -0.15)">
       <use xlink:href="#DejaVuSans-34"/>
       <use x="63.623047" xlink:href="#DejaVuSans-30"/>
      </g>
     </g>
    </g>
    <g id="xtick_4">
     <g id="line2d_4">
      <g>
       <use style="stroke:#000000;stroke-width:0.8;" x="313.902557" xlink:href="#m1795787307" y="383.1984"/>
      </g>
     </g>
     <g id="text_4">
      <!-- 60 -->
      <defs>
       <path d="M 33.015625 40.375 
Q 26.375 40.375 22.484375 35.828125 
Q 18.609375 31.296875 18.609375 23.390625 
Q 18.609375 15.53125 22.484375 10.953125 
Q 26.375 6.390625 33.015625 6.390625 
Q 39.65625 6.390625 43.53125 10.953125 
Q 47.40625 15.53125 47.40625 23.390625 
Q 47.40625 31.296875 43.53125 35.828125 
Q 39.65625 40.375 33.015625 40.375 
z
M 52.59375 71.296875 
L 52.59375 62.3125 
Q 48.875 64.0625 45.09375 64.984375 
Q 41.3125 65.921875 37.59375 65.921875 
Q 27.828125 65.921875 22.671875 59.328125 
Q 17.53125 52.734375 16.796875 39.40625 
Q 19.671875 43.65625 24.015625 45.921875 
Q 28.375 48.1875 33.59375 48.1875 
Q 44.578125 48.1875 50.953125 41.515625 
Q 57.328125 34.859375 57.328125 23.390625 
Q 57.328125 12.15625 50.6875 5.359375 
Q 44.046875 -1.421875 33.015625 -1.421875 
Q 20.359375 -1.421875 13.671875 8.265625 
Q 6.984375 17.96875 6.984375 36.375 
Q 6.984375 53.65625 15.1875 63.9375 
Q 23.390625 74.21875 37.203125 74.21875 
Q 40.921875 74.21875 44.703125 73.484375 
Q 48.484375 72.75 52.59375 71.296875 
z
" id="DejaVuSans-36"/>
      </defs>
      <g transform="translate(304.358807 401.596056)scale(0.15 -0.15)">
       <use xlink:href="#DejaVuSans-36"/>
       <use x="63.623047" xlink:href="#DejaVuSans-30"/>
      </g>
     </g>
    </g>
    <g id="xtick_5">
     <g id="line2d_5">
      <g>
       <use style="stroke:#000000;stroke-width:0.8;" x="382.774016" xlink:href="#m1795787307" y="383.1984"/>
      </g>
     </g>
     <g id="text_5">
      <!-- 80 -->
      <defs>
       <path d="M 31.78125 34.625 
Q 24.75 34.625 20.71875 30.859375 
Q 16.703125 27.09375 16.703125 20.515625 
Q 16.703125 13.921875 20.71875 10.15625 
Q 24.75 6.390625 31.78125 6.390625 
Q 38.8125 6.390625 42.859375 10.171875 
Q 46.921875 13.96875 46.921875 20.515625 
Q 46.921875 27.09375 42.890625 30.859375 
Q 38.875 34.625 31.78125 34.625 
z
M 21.921875 38.8125 
Q 15.578125 40.375 12.03125 44.71875 
Q 8.5 49.078125 8.5 55.328125 
Q 8.5 64.0625 14.71875 69.140625 
Q 20.953125 74.21875 31.78125 74.21875 
Q 42.671875 74.21875 48.875 69.140625 
Q 55.078125 64.0625 55.078125 55.328125 
Q 55.078125 49.078125 51.53125 44.71875 
Q 48 40.375 41.703125 38.8125 
Q 48.828125 37.15625 52.796875 32.3125 
Q 56.78125 27.484375 56.78125 20.515625 
Q 56.78125 9.90625 50.3125 4.234375 
Q 43.84375 -1.421875 31.78125 -1.421875 
Q 19.734375 -1.421875 13.25 4.234375 
Q 6.78125 9.90625 6.78125 20.515625 
Q 6.78125 27.484375 10.78125 32.3125 
Q 14.796875 37.15625 21.921875 38.8125 
z
M 18.3125 54.390625 
Q 18.3125 48.734375 21.84375 45.5625 
Q 25.390625 42.390625 31.78125 42.390625 
Q 38.140625 42.390625 41.71875 45.5625 
Q 45.3125 48.734375 45.3125 54.390625 
Q 45.3125 60.0625 41.71875 63.234375 
Q 38.140625 66.40625 31.78125 66.40625 
Q 25.390625 66.40625 21.84375 63.234375 
Q 18.3125 60.0625 18.3125 54.390625 
z
" id="DejaVuSans-38"/>
      </defs>
      <g transform="translate(373.230266 401.596056)scale(0.15 -0.15)">
       <use xlink:href="#DejaVuSans-38"/>
       <use x="63.623047" xlink:href="#DejaVuSans-30"/>
      </g>
     </g>
    </g>
    <g id="xtick_6">
     <g id="line2d_6">
      <g>
       <use style="stroke:#000000;stroke-width:0.8;" x="451.645474" xlink:href="#m1795787307" y="383.1984"/>
      </g>
     </g>
     <g id="text_6">
      <!-- 100 -->
      <defs>
       <path d="M 12.40625 8.296875 
L 28.515625 8.296875 
L 28.515625 63.921875 
L 10.984375 60.40625 
L 10.984375 69.390625 
L 28.421875 72.90625 
L 38.28125 72.90625 
L 38.28125 8.296875 
L 54.390625 8.296875 
L 54.390625 0 
L 12.40625 0 
z
" id="DejaVuSans-31"/>
      </defs>
      <g transform="translate(437.329849 401.596056)scale(0.15 -0.15)">
       <use xlink:href="#DejaVuSans-31"/>
       <use x="63.623047" xlink:href="#DejaVuSans-30"/>
       <use x="127.246094" xlink:href="#DejaVuSans-30"/>
      </g>
     </g>
    </g>
    <g id="xtick_7">
     <g id="line2d_7">
      <g>
       <use style="stroke:#000000;stroke-width:0.8;" x="520.516933" xlink:href="#m1795787307" y="383.1984"/>
      </g>
     </g>
     <g id="text_7">
      <!-- 120 -->
      <g transform="translate(506.201308 401.596056)scale(0.15 -0.15)">
       <use xlink:href="#DejaVuSans-31"/>
       <use x="63.623047" xlink:href="#DejaVuSans-32"/>
       <use x="127.246094" xlink:href="#DejaVuSans-30"/>
      </g>
     </g>
    </g>
    <g id="xtick_8">
     <g id="line2d_8">
      <g>
       <use style="stroke:#000000;stroke-width:0.8;" x="589.388391" xlink:href="#m1795787307" y="383.1984"/>
      </g>
     </g>
     <g id="text_8">
      <!-- 140 -->
      <g transform="translate(575.072766 401.596056)scale(0.15 -0.15)">
       <use xlink:href="#DejaVuSans-31"/>
       <use x="63.623047" xlink:href="#DejaVuSans-34"/>
       <use x="127.246094" xlink:href="#DejaVuSans-30"/>
      </g>
     </g>
    </g>
    <g id="text_9">
     <!-- B$\parallel$(100) (G) -->
     <defs>
      <path d="M 19.671875 34.8125 
L 19.671875 8.109375 
L 35.5 8.109375 
Q 43.453125 8.109375 47.28125 11.40625 
Q 51.125 14.703125 51.125 21.484375 
Q 51.125 28.328125 47.28125 31.5625 
Q 43.453125 34.8125 35.5 34.8125 
z
M 19.671875 64.796875 
L 19.671875 42.828125 
L 34.28125 42.828125 
Q 41.5 42.828125 45.03125 45.53125 
Q 48.578125 48.25 48.578125 53.8125 
Q 48.578125 59.328125 45.03125 62.0625 
Q 41.5 64.796875 34.28125 64.796875 
z
M 9.8125 72.90625 
L 35.015625 72.90625 
Q 46.296875 72.90625 52.390625 68.21875 
Q 58.5 63.53125 58.5 54.890625 
Q 58.5 48.1875 55.375 44.234375 
Q 52.25 40.28125 46.1875 39.3125 
Q 53.46875 37.75 57.5 32.78125 
Q 61.53125 27.828125 61.53125 20.40625 
Q 61.53125 10.640625 54.890625 5.3125 
Q 48.25 0 35.984375 0 
L 9.8125 0 
z
" id="DejaVuSans-42"/>
      <path d="M 13.28125 77.09375 
L 21.09375 77.09375 
L 21.09375 -21.390625 
L 13.28125 -21.390625 
z
M 28.90625 77.09375 
L 36.71875 77.09375 
L 36.71875 -21.390625 
L 28.90625 -21.390625 
z
" id="DejaVuSans-2225"/>
      <path d="M 31 75.875 
Q 24.46875 64.65625 21.28125 53.65625 
Q 18.109375 42.671875 18.109375 31.390625 
Q 18.109375 20.125 21.3125 9.0625 
Q 24.515625 -2 31 -13.1875 
L 23.1875 -13.1875 
Q 15.875 -1.703125 12.234375 9.375 
Q 8.59375 20.453125 8.59375 31.390625 
Q 8.59375 42.28125 12.203125 53.3125 
Q 15.828125 64.359375 23.1875 75.875 
z
" id="DejaVuSans-28"/>
      <path d="M 8.015625 75.875 
L 15.828125 75.875 
Q 23.140625 64.359375 26.78125 53.3125 
Q 30.421875 42.28125 30.421875 31.390625 
Q 30.421875 20.453125 26.78125 9.375 
Q 23.140625 -1.703125 15.828125 -13.1875 
L 8.015625 -13.1875 
Q 14.5 -2 17.703125 9.0625 
Q 20.90625 20.125 20.90625 31.390625 
Q 20.90625 42.671875 17.703125 53.65625 
Q 14.5 64.65625 8.015625 75.875 
z
" id="DejaVuSans-29"/>
      <path id="DejaVuSans-20"/>
      <path d="M 59.515625 10.40625 
L 59.515625 29.984375 
L 43.40625 29.984375 
L 43.40625 38.09375 
L 69.28125 38.09375 
L 69.28125 6.78125 
Q 63.578125 2.734375 56.6875 0.65625 
Q 49.8125 -1.421875 42 -1.421875 
Q 24.90625 -1.421875 15.25 8.5625 
Q 5.609375 18.5625 5.609375 36.375 
Q 5.609375 54.25 15.25 64.234375 
Q 24.90625 74.21875 42 74.21875 
Q 49.125 74.21875 55.546875 72.453125 
Q 61.96875 70.703125 67.390625 67.28125 
L 67.390625 56.78125 
Q 61.921875 61.421875 55.765625 63.765625 
Q 49.609375 66.109375 42.828125 66.109375 
Q 29.4375 66.109375 22.71875 58.640625 
Q 16.015625 51.171875 16.015625 36.375 
Q 16.015625 21.625 22.71875 14.15625 
Q 29.4375 6.6875 42.828125 6.6875 
Q 48.046875 6.6875 52.140625 7.59375 
Q 56.25 8.5 59.515625 10.40625 
z
" id="DejaVuSans-47"/>
     </defs>
     <g transform="translate(266.42 428.215588)scale(0.25 -0.25)">
      <use transform="translate(0 0.90625)" xlink:href="#DejaVuSans-42"/>
      <use transform="translate(88.085938 0.90625)" xlink:href="#DejaVuSans-2225"/>
      <use transform="translate(157.568359 0.90625)" xlink:href="#DejaVuSans-28"/>
      <use transform="translate(196.582031 0.90625)" xlink:href="#DejaVuSans-31"/>
      <use transform="translate(260.205078 0.90625)" xlink:href="#DejaVuSans-30"/>
      <use transform="translate(323.828125 0.90625)" xlink:href="#DejaVuSans-30"/>
      <use transform="translate(387.451172 0.90625)" xlink:href="#DejaVuSans-29"/>
      <use transform="translate(426.464844 0.90625)" xlink:href="#DejaVuSans-20"/>
      <use transform="translate(458.251953 0.90625)" xlink:href="#DejaVuSans-28"/>
      <use transform="translate(497.265625 0.90625)" xlink:href="#DejaVuSans-47"/>
      <use transform="translate(574.755859 0.90625)" xlink:href="#DejaVuSans-29"/>
     </g>
    </g>
   </g>
   <g id="matplotlib.axis_2">
    <g id="ytick_1">
     <g id="line2d_9">
      <defs>
       <path d="M 0 0 
L -3.5 0 
" id="mbc7fb24fe8" style="stroke:#000000;stroke-width:0.8;"/>
      </defs>
      <g>
       <use style="stroke:#000000;stroke-width:0.8;" x="83.7" xlink:href="#mbc7fb24fe8" y="380.821098"/>
      </g>
     </g>
     <g id="text_10">
      <!-- 0.970 -->
      <defs>
       <path d="M 10.6875 12.40625 
L 21 12.40625 
L 21 0 
L 10.6875 0 
z
" id="DejaVuSans-2e"/>
       <path d="M 10.984375 1.515625 
L 10.984375 10.5 
Q 14.703125 8.734375 18.5 7.8125 
Q 22.3125 6.890625 25.984375 6.890625 
Q 35.75 6.890625 40.890625 13.453125 
Q 46.046875 20.015625 46.78125 33.40625 
Q 43.953125 29.203125 39.59375 26.953125 
Q 35.25 24.703125 29.984375 24.703125 
Q 19.046875 24.703125 12.671875 31.3125 
Q 6.296875 37.9375 6.296875 49.421875 
Q 6.296875 60.640625 12.9375 67.421875 
Q 19.578125 74.21875 30.609375 74.21875 
Q 43.265625 74.21875 49.921875 64.515625 
Q 56.59375 54.828125 56.59375 36.375 
Q 56.59375 19.140625 48.40625 8.859375 
Q 40.234375 -1.421875 26.421875 -1.421875 
Q 22.703125 -1.421875 18.890625 -0.6875 
Q 15.09375 0.046875 10.984375 1.515625 
z
M 30.609375 32.421875 
Q 37.25 32.421875 41.125 36.953125 
Q 45.015625 41.5 45.015625 49.421875 
Q 45.015625 57.28125 41.125 61.84375 
Q 37.25 66.40625 30.609375 66.40625 
Q 23.96875 66.40625 20.09375 61.84375 
Q 16.21875 57.28125 16.21875 49.421875 
Q 16.21875 41.5 20.09375 36.953125 
Q 23.96875 32.421875 30.609375 32.421875 
z
" id="DejaVuSans-39"/>
       <path d="M 8.203125 72.90625 
L 55.078125 72.90625 
L 55.078125 68.703125 
L 28.609375 0 
L 18.3125 0 
L 43.21875 64.59375 
L 8.203125 64.59375 
z
" id="DejaVuSans-37"/>
      </defs>
      <g transform="translate(33.757813 386.519926)scale(0.15 -0.15)">
       <use xlink:href="#DejaVuSans-30"/>
       <use x="63.623047" xlink:href="#DejaVuSans-2e"/>
       <use x="95.410156" xlink:href="#DejaVuSans-39"/>
       <use x="159.033203" xlink:href="#DejaVuSans-37"/>
       <use x="222.65625" xlink:href="#DejaVuSans-30"/>
      </g>
     </g>
    </g>
    <g id="ytick_2">
     <g id="line2d_10">
      <g>
       <use style="stroke:#000000;stroke-width:0.8;" x="83.7" xlink:href="#mbc7fb24fe8" y="328.473715"/>
      </g>
     </g>
     <g id="text_11">
      <!-- 0.975 -->
      <defs>
       <path d="M 10.796875 72.90625 
L 49.515625 72.90625 
L 49.515625 64.59375 
L 19.828125 64.59375 
L 19.828125 46.734375 
Q 21.96875 47.46875 24.109375 47.828125 
Q 26.265625 48.1875 28.421875 48.1875 
Q 40.625 48.1875 47.75 41.5 
Q 54.890625 34.8125 54.890625 23.390625 
Q 54.890625 11.625 47.5625 5.09375 
Q 40.234375 -1.421875 26.90625 -1.421875 
Q 22.3125 -1.421875 17.546875 -0.640625 
Q 12.796875 0.140625 7.71875 1.703125 
L 7.71875 11.625 
Q 12.109375 9.234375 16.796875 8.0625 
Q 21.484375 6.890625 26.703125 6.890625 
Q 35.15625 6.890625 40.078125 11.328125 
Q 45.015625 15.765625 45.015625 23.390625 
Q 45.015625 31 40.078125 35.4375 
Q 35.15625 39.890625 26.703125 39.890625 
Q 22.75 39.890625 18.8125 39.015625 
Q 14.890625 38.140625 10.796875 36.28125 
z
" id="DejaVuSans-35"/>
      </defs>
      <g transform="translate(33.757813 334.172543)scale(0.15 -0.15)">
       <use xlink:href="#DejaVuSans-30"/>
       <use x="63.623047" xlink:href="#DejaVuSans-2e"/>
       <use x="95.410156" xlink:href="#DejaVuSans-39"/>
       <use x="159.033203" xlink:href="#DejaVuSans-37"/>
       <use x="222.65625" xlink:href="#DejaVuSans-35"/>
      </g>
     </g>
    </g>
    <g id="ytick_3">
     <g id="line2d_11">
      <g>
       <use style="stroke:#000000;stroke-width:0.8;" x="83.7" xlink:href="#mbc7fb24fe8" y="276.126332"/>
      </g>
     </g>
     <g id="text_12">
      <!-- 0.980 -->
      <g transform="translate(33.757813 281.82516)scale(0.15 -0.15)">
       <use xlink:href="#DejaVuSans-30"/>
       <use x="63.623047" xlink:href="#DejaVuSans-2e"/>
       <use x="95.410156" xlink:href="#DejaVuSans-39"/>
       <use x="159.033203" xlink:href="#DejaVuSans-38"/>
       <use x="222.65625" xlink:href="#DejaVuSans-30"/>
      </g>
     </g>
    </g>
    <g id="ytick_4">
     <g id="line2d_12">
      <g>
       <use style="stroke:#000000;stroke-width:0.8;" x="83.7" xlink:href="#mbc7fb24fe8" y="223.778949"/>
      </g>
     </g>
     <g id="text_13">
      <!-- 0.985 -->
      <g transform="translate(33.757813 229.477777)scale(0.15 -0.15)">
       <use xlink:href="#DejaVuSans-30"/>
       <use x="63.623047" xlink:href="#DejaVuSans-2e"/>
       <use x="95.410156" xlink:href="#DejaVuSans-39"/>
       <use x="159.033203" xlink:href="#DejaVuSans-38"/>
       <use x="222.65625" xlink:href="#DejaVuSans-35"/>
      </g>
     </g>
    </g>
    <g id="ytick_5">
     <g id="line2d_13">
      <g>
       <use style="stroke:#000000;stroke-width:0.8;" x="83.7" xlink:href="#mbc7fb24fe8" y="171.431566"/>
      </g>
     </g>
     <g id="text_14">
      <!-- 0.990 -->
      <g transform="translate(33.757813 177.130394)scale(0.15 -0.15)">
       <use xlink:href="#DejaVuSans-30"/>
       <use x="63.623047" xlink:href="#DejaVuSans-2e"/>
       <use x="95.410156" xlink:href="#DejaVuSans-39"/>
       <use x="159.033203" xlink:href="#DejaVuSans-39"/>
       <use x="222.65625" xlink:href="#DejaVuSans-30"/>
      </g>
     </g>
    </g>
    <g id="ytick_6">
     <g id="line2d_14">
      <g>
       <use style="stroke:#000000;stroke-width:0.8;" x="83.7" xlink:href="#mbc7fb24fe8" y="119.084183"/>
      </g>
     </g>
     <g id="text_15">
      <!-- 0.995 -->
      <g transform="translate(33.757813 124.783011)scale(0.15 -0.15)">
       <use xlink:href="#DejaVuSans-30"/>
       <use x="63.623047" xlink:href="#DejaVuSans-2e"/>
       <use x="95.410156" xlink:href="#DejaVuSans-39"/>
       <use x="159.033203" xlink:href="#DejaVuSans-39"/>
       <use x="222.65625" xlink:href="#DejaVuSans-35"/>
      </g>
     </g>
    </g>
    <g id="ytick_7">
     <g id="line2d_15">
      <g>
       <use style="stroke:#000000;stroke-width:0.8;" x="83.7" xlink:href="#mbc7fb24fe8" y="66.7368"/>
      </g>
     </g>
     <g id="text_16">
      <!-- 1.000 -->
      <g transform="translate(33.757813 72.435628)scale(0.15 -0.15)">
       <use xlink:href="#DejaVuSans-31"/>
       <use x="63.623047" xlink:href="#DejaVuSans-2e"/>
       <use x="95.410156" xlink:href="#DejaVuSans-30"/>
       <use x="159.033203" xlink:href="#DejaVuSans-30"/>
       <use x="222.65625" xlink:href="#DejaVuSans-30"/>
      </g>
     </g>
    </g>
    <g id="text_17">
     <!-- PL (arb.) -->
     <defs>
      <path d="M 19.671875 64.796875 
L 19.671875 37.40625 
L 32.078125 37.40625 
Q 38.96875 37.40625 42.71875 40.96875 
Q 46.484375 44.53125 46.484375 51.125 
Q 46.484375 57.671875 42.71875 61.234375 
Q 38.96875 64.796875 32.078125 64.796875 
z
M 9.8125 72.90625 
L 32.078125 72.90625 
Q 44.34375 72.90625 50.609375 67.359375 
Q 56.890625 61.8125 56.890625 51.125 
Q 56.890625 40.328125 50.609375 34.8125 
Q 44.34375 29.296875 32.078125 29.296875 
L 19.671875 29.296875 
L 19.671875 0 
L 9.8125 0 
z
" id="DejaVuSans-50"/>
      <path d="M 9.8125 72.90625 
L 19.671875 72.90625 
L 19.671875 8.296875 
L 55.171875 8.296875 
L 55.171875 0 
L 9.8125 0 
z
" id="DejaVuSans-4c"/>
      <path d="M 34.28125 27.484375 
Q 23.390625 27.484375 19.1875 25 
Q 14.984375 22.515625 14.984375 16.5 
Q 14.984375 11.71875 18.140625 8.90625 
Q 21.296875 6.109375 26.703125 6.109375 
Q 34.1875 6.109375 38.703125 11.40625 
Q 43.21875 16.703125 43.21875 25.484375 
L 43.21875 27.484375 
z
M 52.203125 31.203125 
L 52.203125 0 
L 43.21875 0 
L 43.21875 8.296875 
Q 40.140625 3.328125 35.546875 0.953125 
Q 30.953125 -1.421875 24.3125 -1.421875 
Q 15.921875 -1.421875 10.953125 3.296875 
Q 6 8.015625 6 15.921875 
Q 6 25.140625 12.171875 29.828125 
Q 18.359375 34.515625 30.609375 34.515625 
L 43.21875 34.515625 
L 43.21875 35.40625 
Q 43.21875 41.609375 39.140625 45 
Q 35.0625 48.390625 27.6875 48.390625 
Q 23 48.390625 18.546875 47.265625 
Q 14.109375 46.140625 10.015625 43.890625 
L 10.015625 52.203125 
Q 14.9375 54.109375 19.578125 55.046875 
Q 24.21875 56 28.609375 56 
Q 40.484375 56 46.34375 49.84375 
Q 52.203125 43.703125 52.203125 31.203125 
z
" id="DejaVuSans-61"/>
      <path d="M 41.109375 46.296875 
Q 39.59375 47.171875 37.8125 47.578125 
Q 36.03125 48 33.890625 48 
Q 26.265625 48 22.1875 43.046875 
Q 18.109375 38.09375 18.109375 28.8125 
L 18.109375 0 
L 9.078125 0 
L 9.078125 54.6875 
L 18.109375 54.6875 
L 18.109375 46.1875 
Q 20.953125 51.171875 25.484375 53.578125 
Q 30.03125 56 36.53125 56 
Q 37.453125 56 38.578125 55.875 
Q 39.703125 55.765625 41.0625 55.515625 
z
" id="DejaVuSans-72"/>
      <path d="M 48.6875 27.296875 
Q 48.6875 37.203125 44.609375 42.84375 
Q 40.53125 48.484375 33.40625 48.484375 
Q 26.265625 48.484375 22.1875 42.84375 
Q 18.109375 37.203125 18.109375 27.296875 
Q 18.109375 17.390625 22.1875 11.75 
Q 26.265625 6.109375 33.40625 6.109375 
Q 40.53125 6.109375 44.609375 11.75 
Q 48.6875 17.390625 48.6875 27.296875 
z
M 18.109375 46.390625 
Q 20.953125 51.265625 25.265625 53.625 
Q 29.59375 56 35.59375 56 
Q 45.5625 56 51.78125 48.09375 
Q 58.015625 40.1875 58.015625 27.296875 
Q 58.015625 14.40625 51.78125 6.484375 
Q 45.5625 -1.421875 35.59375 -1.421875 
Q 29.59375 -1.421875 25.265625 0.953125 
Q 20.953125 3.328125 18.109375 8.203125 
L 18.109375 0 
L 9.078125 0 
L 9.078125 75.984375 
L 18.109375 75.984375 
z
" id="DejaVuSans-62"/>
     </defs>
     <g transform="translate(24.558594 270.368347)rotate(-90)scale(0.25 -0.25)">
      <use xlink:href="#DejaVuSans-50"/>
      <use x="60.302734" xlink:href="#DejaVuSans-4c"/>
      <use x="116.015625" xlink:href="#DejaVuSans-20"/>
      <use x="147.802734" xlink:href="#DejaVuSans-28"/>
      <use x="186.816406" xlink:href="#DejaVuSans-61"/>
      <use x="248.095703" xlink:href="#DejaVuSans-72"/>
      <use x="289.208984" xlink:href="#DejaVuSans-62"/>
      <use x="352.685547" xlink:href="#DejaVuSans-2e"/>
      <use x="384.472656" xlink:href="#DejaVuSans-29"/>
     </g>
    </g>
   </g>
   <g id="line2d_16">
    <path clip-path="url(#p55427b0474)" d="M 107.288182 150.283671 
L 107.883851 150.135276 
L 109.713559 148.502921 
L 110.59105 145.089816 
L 111.25931 140.489544 
L 113.086883 135.592481 
L 113.684687 129.063063 
L 114.598474 123.572416 
L 116.391887 117.784977 
L 117.023851 111.849143 
L 117.937638 106.506892 
L 119.765211 102.500203 
L 120.39931 97.454744 
L 121.13589 93.151264 
L 121.981357 89.886555 
L 123.738474 84.6927 
L 124.615965 82.763553 
L 125.250065 79.350448 
L 127.007182 78.756865 
L 127.639147 75.788948 
L 128.482478 74.156593 
L 129.257488 73.56301 
L 130.873695 72.079051 
L 131.753321 70.595092 
L 132.596652 70.149905 
L 134.424225 68.962738 
L 136.006271 68.51755 
L 137.833844 68.814342 
L 138.324898 67.775571 
L 139.27498 68.072363 
L 140.927482 68.072363 
L 141.629902 68.369155 
L 142.261866 67.478779 
L 143.282403 68.220759 
L 144.969065 66.7368 
L 145.848692 68.814342 
L 146.551112 68.369155 
L 148.308229 68.072363 
L 149.010649 68.220759 
L 149.890275 69.25953 
L 150.663151 69.556321 
L 152.386108 69.111134 
L 153.018073 71.782259 
L 154.03861 72.375843 
L 155.795727 71.930655 
L 157.202702 74.750177 
L 158.95982 75.640552 
L 159.6964 76.382531 
L 160.223749 76.382531 
L 162.369439 78.014886 
L 163.283226 79.053657 
L 163.774279 80.240824 
L 164.478834 80.834407 
L 166.306407 80.686011 
L 167.079283 81.279595 
L 167.747543 81.279595 
L 169.50466 81.427991 
L 170.629813 82.16997 
L 171.227617 82.763553 
L 172.984735 81.873178 
L 173.828066 83.060345 
L 175.269201 83.653929 
L 176.851247 83.95072 
L 177.835489 83.802324 
L 178.258222 84.989491 
L 180.435938 85.137887 
L 181.104198 84.247512 
L 181.490636 85.583075 
L 185.077461 84.099116 
L 186.025408 84.544304 
L 187.573294 82.763553 
L 188.205258 83.505533 
L 191.051234 84.099116 
L 191.860404 84.099116 
L 192.317298 84.544304 
L 194.322077 83.505533 
L 195.024497 83.357137 
L 195.622301 84.6927 
L 196.676999 84.395908 
L 198.22275 84.841095 
L 199.066081 85.286283 
L 199.841091 86.028262 
L 201.668664 86.176658 
L 204.937373 87.957409 
L 205.814864 86.770242 
L 206.132981 88.402596 
L 207.221839 88.699388 
L 208.73343 89.589763 
L 209.717672 90.480138 
L 210.420092 89.886555 
L 211.827067 91.073722 
L 212.881764 91.518909 
L 213.759255 91.518909 
L 216.255088 93.893243 
L 216.993803 93.596451 
L 218.048501 95.228806 
L 219.630547 95.08041 
L 220.262512 95.377202 
L 221.176298 96.267577 
L 222.758345 97.009556 
L 223.392444 98.048327 
L 224.19948 98.048327 
L 226.097508 98.345119 
L 226.731608 98.938703 
L 227.538644 99.235494 
L 228.277359 100.125869 
L 229.859405 100.867849 
L 230.843647 102.500203 
L 231.582362 101.016245 
L 233.33948 102.203412 
L 234.287427 103.984162 
L 235.096597 104.874537 
L 236.712804 103.835766 
L 237.487815 104.874537 
L 238.119779 106.506892 
L 240.017808 106.655287 
L 240.756523 106.2101 
L 241.354327 107.694058 
L 242.372729 108.287642 
L 244.025231 108.584434 
L 244.834402 109.029621 
L 245.570982 109.623205 
L 247.575761 110.51358 
L 248.13727 110.365184 
L 248.841825 112.442726 
L 249.789772 112.887914 
L 251.230907 113.333101 
L 252.180989 114.520268 
L 252.917569 113.926685 
L 254.606366 115.855831 
L 255.449697 116.59781 
L 256.188413 117.042998 
L 258.156897 118.823748 
L 258.577495 118.081769 
L 259.491281 120.307707 
L 261.248399 121.346478 
L 261.916659 121.198082 
L 263.428249 123.127228 
L 265.362573 123.720812 
L 266.099153 125.798354 
L 266.767413 127.133917 
L 268.560826 127.579104 
L 269.229086 129.805042 
L 270.177032 131.140605 
L 270.881587 131.882584 
L 272.743321 135.295689 
L 273.270669 137.818419 
L 274.254911 140.044357 
L 276.048324 141.825107 
L 276.925816 146.128587 
L 277.382709 147.612546 
L 279.351193 150.877255 
L 279.878542 153.399985 
L 280.854243 153.399985 
L 282.519555 155.329131 
L 283.288161 154.735547 
L 284.270268 154.29036 
L 284.910772 152.954797 
L 286.810936 153.399985 
L 287.216589 152.509609 
L 288.390847 150.728859 
L 289.821307 149.98688 
L 290.782064 148.948109 
L 291.337168 147.760942 
L 294.774543 148.354525 
L 295.564498 147.46415 
L 297.528712 148.206129 
L 298.062466 148.057734 
L 299.001873 149.838484 
L 300.624484 149.393296 
L 301.286339 149.393296 
L 302.054945 149.541692 
L 303.848357 151.470838 
L 304.723714 151.470838 
L 305.321518 152.658005 
L 306.239574 151.916026 
L 307.904886 152.658005 
L 308.844293 153.548381 
L 309.506148 154.883943 
L 311.19281 155.180735 
L 311.897365 156.219506 
L 312.58057 157.851861 
L 314.651534 158.59384 
L 315.206638 158.297048 
L 316.060644 159.187423 
L 316.637098 160.819778 
L 318.430511 162.006945 
L 319.135066 161.413361 
L 320.159874 163.787695 
L 321.782485 164.826466 
L 322.42299 164.232883 
L 325.091759 166.013633 
L 325.689563 167.942779 
L 326.69302 168.239571 
L 327.440275 168.684759 
L 329.084237 169.426738 
L 329.831492 171.50428 
L 330.536047 171.355884 
L 332.564312 172.988239 
L 333.098066 172.543051 
L 333.973422 174.323801 
L 335.660084 175.510968 
L 336.236538 175.659364 
L 337.94455 178.033698 
L 339.503111 177.885302 
L 340.485218 179.666053 
L 341.040322 180.11124 
L 342.833735 181.150011 
L 343.602341 181.446803 
L 344.477697 183.227553 
L 346.078958 182.782366 
L 346.868914 184.41472 
L 347.658869 185.453491 
L 348.491525 186.195471 
L 350.220888 186.195471 
L 350.946793 187.382638 
L 351.758099 187.679429 
L 353.551511 190.202159 
L 354.320117 190.053763 
L 356.818085 192.428097 
L 357.56534 192.724889 
L 358.312595 193.76366 
L 360.063308 194.802431 
L 361.088115 195.692806 
L 361.74997 197.028369 
L 362.582626 197.473556 
L 363.927685 197.918744 
L 364.738991 199.254307 
L 365.763798 200.441474 
L 368.176366 202.37062 
L 368.987671 201.925432 
L 369.585476 201.035057 
L 371.314838 204.299766 
L 372.296945 204.744954 
L 373.065551 206.080516 
L 374.709512 206.525704 
L 375.456768 206.970892 
L 376.374824 209.048434 
L 377.912035 207.712871 
L 378.766041 209.345225 
L 379.363845 210.829184 
L 381.285359 210.97758 
L 382.053965 212.313143 
L 382.80122 212.461539 
L 383.463075 213.648705 
L 386.943149 216.171435 
L 388.715212 216.616623 
L 389.334366 218.545769 
L 390.145672 217.06181 
L 391.063729 219.139352 
L 392.750391 219.732936 
L 394.223551 221.513686 
L 395.974264 223.146041 
L 396.82827 223.146041 
L 397.319323 224.184812 
L 399.326238 225.66877 
L 399.924042 225.817166 
L 400.756698 226.707542 
L 402.48606 226.41075 
L 403.254666 228.488292 
L 404.877277 229.230271 
L 406.71339 229.972251 
L 407.311195 231.753001 
L 408.0371 231.456209 
L 409.937263 233.23696 
L 410.577768 232.346584 
L 411.282323 235.462897 
L 412.28578 235.166106 
L 413.67354 237.243648 
L 414.570246 237.095252 
L 417.281716 239.766378 
L 417.85817 239.914773 
L 418.733526 241.250336 
L 420.334787 242.140711 
L 421.017992 242.289107 
L 421.936049 243.476274 
L 424.028364 244.663441 
L 424.562117 245.257025 
L 425.330723 246.295796 
L 426.31283 247.037775 
L 427.78599 246.889379 
L 428.639996 248.966921 
L 429.301851 249.115317 
L 431.842519 251.786443 
L 432.184122 252.23163 
L 433.529181 253.715589 
L 435.045042 254.457568 
L 435.877698 254.605964 
L 436.795755 255.941527 
L 438.525117 256.53511 
L 439.144271 257.425485 
L 439.912877 259.354632 
L 441.74899 259.05784 
L 442.240043 260.986986 
L 443.1581 260.986986 
L 445.698768 262.767736 
L 446.574124 263.658112 
L 447.278679 264.993674 
L 448.879941 264.696883 
L 449.691246 266.032445 
L 450.395801 267.813196 
L 452.189214 267.813196 
L 452.93647 268.555175 
L 453.939927 269.148759 
L 455.77604 271.671488 
L 456.267093 270.781113 
L 456.971648 271.819884 
L 457.911055 274.49101 
L 459.469616 273.897426 
L 461.113578 275.826573 
L 463.013741 277.310531 
L 463.504795 277.458927 
L 464.465552 278.646094 
L 466.002763 278.79449 
L 466.878119 280.426844 
L 467.625374 281.465615 
L 468.43668 282.207595 
L 470.187393 283.09797 
L 470.721146 284.285137 
L 471.639203 284.87872 
L 473.176414 285.472304 
L 474.09447 286.214283 
L 474.969827 287.253054 
L 476.720539 287.846638 
L 477.254293 288.885409 
L 477.809397 290.369367 
L 478.727453 290.814555 
L 480.627617 292.298513 
L 481.545673 293.930868 
L 482.314279 293.930868 
L 483.787439 295.266431 
L 484.705496 296.305202 
L 485.410051 297.937556 
L 487.374265 297.195577 
L 488.07882 300.163494 
L 488.890126 301.053869 
L 489.637381 302.241036 
L 491.238643 302.686224 
L 492.092649 304.021787 
L 492.797204 305.802537 
L 494.398465 306.396121 
L 495.209771 307.1381 
L 496.021077 308.622058 
L 498.583095 311.144788 
L 499.394401 312.183559 
L 501.892368 313.073934 
L 502.639624 315.448268 
L 503.408229 315.448268 
L 505.906197 318.26779 
L 506.781553 319.009769 
L 508.318764 318.712977 
L 509.279521 320.04854 
L 509.941376 321.532499 
L 510.902133 320.938915 
L 512.332593 321.82929 
L 512.973097 322.57127 
L 514.019255 322.422874 
L 515.855368 323.164853 
L 516.581273 322.868061 
L 517.477979 325.093999 
L 519.057891 324.797208 
L 520.531051 326.726354 
L 522.431215 327.319937 
L 523.15712 327.171542 
L 523.840325 327.616729 
L 524.672981 328.803896 
L 526.423693 329.249084 
L 527.213649 330.287855 
L 528.046305 329.991063 
L 529.839718 331.029834 
L 530.288071 331.771813 
L 531.974733 333.107376 
L 533.853546 333.997751 
L 534.40865 333.997751 
L 535.219956 335.036522 
L 536.842567 336.223689 
L 537.846025 336.817273 
L 538.700031 337.707648 
L 540.173191 338.746419 
L 540.941797 338.894815 
L 541.689052 339.636794 
L 543.525165 340.972357 
L 545.233177 342.604711 
L 545.895032 344.237066 
L 547.560344 344.979045 
L 548.264899 344.979045 
L 549.076205 346.6114 
L 550.720166 346.314608 
L 551.659573 347.650171 
L 552.449529 349.430921 
L 553.004633 349.282525 
L 555.011547 349.282525 
L 555.652051 350.766484 
L 556.548758 351.063276 
L 558.128669 352.844026 
L 558.939975 352.69563 
L 559.68723 355.21836 
L 561.501993 355.366756 
L 562.099797 356.108735 
L 562.740302 356.257131 
L 564.597765 356.553923 
L 565.494472 358.186277 
L 566.156326 358.928256 
L 567.074383 359.076652 
L 568.611594 361.30259 
L 569.358849 361.154194 
L 570.020704 361.599382 
L 571.750066 363.528528 
L 572.540022 363.380132 
L 574.482886 365.160883 
L 575.934696 365.160883 
L 576.617901 366.496445 
L 579.051818 368.1288 
L 579.051818 368.1288 
" style="fill:none;stroke:#1f77b4;stroke-linecap:square;stroke-width:2;"/>
   </g>
   <g id="line2d_17">
    <path clip-path="url(#p55427b0474)" d="M 107.288182 383.1984 
L 107.288182 51.6672 
" style="fill:none;stroke:#ff7f0e;stroke-dasharray:5.55,2.4;stroke-dashoffset:0;stroke-width:1.5;"/>
   </g>
   <g id="line2d_18">
    <path clip-path="url(#p55427b0474)" d="M 169.111588 383.1984 
L 169.111588 51.6672 
" style="fill:none;stroke:#2ca02c;stroke-dasharray:5.55,2.4;stroke-dashoffset:0;stroke-width:1.5;"/>
   </g>
   <g id="line2d_19">
    <path clip-path="url(#p55427b0474)" d="M 175.145684 383.1984 
L 175.145684 51.6672 
" style="fill:none;stroke:#2ca02c;stroke-dasharray:5.55,2.4;stroke-dashoffset:0;stroke-width:1.5;"/>
   </g>
   <g id="line2d_20">
    <path clip-path="url(#p55427b0474)" d="M 191.010099 383.1984 
L 191.010099 51.6672 
" style="fill:none;stroke:#2ca02c;stroke-dasharray:5.55,2.4;stroke-dashoffset:0;stroke-width:1.5;"/>
   </g>
   <g id="line2d_21">
    <path clip-path="url(#p55427b0474)" d="M 183.450722 383.1984 
L 183.450722 51.6672 
" style="fill:none;stroke:#2ca02c;stroke-dasharray:5.55,2.4;stroke-dashoffset:0;stroke-width:1.5;"/>
   </g>
   <g id="patch_3">
    <path d="M 83.7 383.1984 
L 83.7 51.6672 
" style="fill:none;stroke:#000000;stroke-linecap:square;stroke-linejoin:miter;stroke-width:0.8;"/>
   </g>
   <g id="patch_4">
    <path d="M 602.64 383.1984 
L 602.64 51.6672 
" style="fill:none;stroke:#000000;stroke-linecap:square;stroke-linejoin:miter;stroke-width:0.8;"/>
   </g>
   <g id="patch_5">
    <path d="M 83.7 383.1984 
L 602.64 383.1984 
" style="fill:none;stroke:#000000;stroke-linecap:square;stroke-linejoin:miter;stroke-width:0.8;"/>
   </g>
   <g id="patch_6">
    <path d="M 83.7 51.6672 
L 602.64 51.6672 
" style="fill:none;stroke:#000000;stroke-linecap:square;stroke-linejoin:miter;stroke-width:0.8;"/>
   </g>
   <g id="legend_1">
    <g id="patch_7">
     <path d="M 315.52875 145.329075 
L 590.04 145.329075 
Q 593.64 145.329075 593.64 141.729075 
L 593.64 64.2672 
Q 593.64 60.6672 590.04 60.6672 
L 315.52875 60.6672 
Q 311.92875 60.6672 311.92875 64.2672 
L 311.92875 141.729075 
Q 311.92875 145.329075 315.52875 145.329075 
z
" style="fill:#ffffff;opacity:0.8;stroke:#cccccc;stroke-linejoin:miter;"/>
    </g>
    <g id="line2d_22">
     <path d="M 319.12875 75.244387 
L 355.12875 75.244387 
" style="fill:none;stroke:#1f77b4;stroke-linecap:square;stroke-width:2;"/>
    </g>
    <g id="line2d_23"/>
    <g id="text_18">
     <!-- Photoluminescence -->
     <defs>
      <path d="M 54.890625 33.015625 
L 54.890625 0 
L 45.90625 0 
L 45.90625 32.71875 
Q 45.90625 40.484375 42.875 44.328125 
Q 39.84375 48.1875 33.796875 48.1875 
Q 26.515625 48.1875 22.3125 43.546875 
Q 18.109375 38.921875 18.109375 30.90625 
L 18.109375 0 
L 9.078125 0 
L 9.078125 75.984375 
L 18.109375 75.984375 
L 18.109375 46.1875 
Q 21.34375 51.125 25.703125 53.5625 
Q 30.078125 56 35.796875 56 
Q 45.21875 56 50.046875 50.171875 
Q 54.890625 44.34375 54.890625 33.015625 
z
" id="DejaVuSans-68"/>
      <path d="M 30.609375 48.390625 
Q 23.390625 48.390625 19.1875 42.75 
Q 14.984375 37.109375 14.984375 27.296875 
Q 14.984375 17.484375 19.15625 11.84375 
Q 23.34375 6.203125 30.609375 6.203125 
Q 37.796875 6.203125 41.984375 11.859375 
Q 46.1875 17.53125 46.1875 27.296875 
Q 46.1875 37.015625 41.984375 42.703125 
Q 37.796875 48.390625 30.609375 48.390625 
z
M 30.609375 56 
Q 42.328125 56 49.015625 48.375 
Q 55.71875 40.765625 55.71875 27.296875 
Q 55.71875 13.875 49.015625 6.21875 
Q 42.328125 -1.421875 30.609375 -1.421875 
Q 18.84375 -1.421875 12.171875 6.21875 
Q 5.515625 13.875 5.515625 27.296875 
Q 5.515625 40.765625 12.171875 48.375 
Q 18.84375 56 30.609375 56 
z
" id="DejaVuSans-6f"/>
      <path d="M 18.3125 70.21875 
L 18.3125 54.6875 
L 36.8125 54.6875 
L 36.8125 47.703125 
L 18.3125 47.703125 
L 18.3125 18.015625 
Q 18.3125 11.328125 20.140625 9.421875 
Q 21.96875 7.515625 27.59375 7.515625 
L 36.8125 7.515625 
L 36.8125 0 
L 27.59375 0 
Q 17.1875 0 13.234375 3.875 
Q 9.28125 7.765625 9.28125 18.015625 
L 9.28125 47.703125 
L 2.6875 47.703125 
L 2.6875 54.6875 
L 9.28125 54.6875 
L 9.28125 70.21875 
z
" id="DejaVuSans-74"/>
      <path d="M 9.421875 75.984375 
L 18.40625 75.984375 
L 18.40625 0 
L 9.421875 0 
z
" id="DejaVuSans-6c"/>
      <path d="M 8.5 21.578125 
L 8.5 54.6875 
L 17.484375 54.6875 
L 17.484375 21.921875 
Q 17.484375 14.15625 20.5 10.265625 
Q 23.53125 6.390625 29.59375 6.390625 
Q 36.859375 6.390625 41.078125 11.03125 
Q 45.3125 15.671875 45.3125 23.6875 
L 45.3125 54.6875 
L 54.296875 54.6875 
L 54.296875 0 
L 45.3125 0 
L 45.3125 8.40625 
Q 42.046875 3.421875 37.71875 1 
Q 33.40625 -1.421875 27.6875 -1.421875 
Q 18.265625 -1.421875 13.375 4.4375 
Q 8.5 10.296875 8.5 21.578125 
z
M 31.109375 56 
z
" id="DejaVuSans-75"/>
      <path d="M 52 44.1875 
Q 55.375 50.25 60.0625 53.125 
Q 64.75 56 71.09375 56 
Q 79.640625 56 84.28125 50.015625 
Q 88.921875 44.046875 88.921875 33.015625 
L 88.921875 0 
L 79.890625 0 
L 79.890625 32.71875 
Q 79.890625 40.578125 77.09375 44.375 
Q 74.3125 48.1875 68.609375 48.1875 
Q 61.625 48.1875 57.5625 43.546875 
Q 53.515625 38.921875 53.515625 30.90625 
L 53.515625 0 
L 44.484375 0 
L 44.484375 32.71875 
Q 44.484375 40.625 41.703125 44.40625 
Q 38.921875 48.1875 33.109375 48.1875 
Q 26.21875 48.1875 22.15625 43.53125 
Q 18.109375 38.875 18.109375 30.90625 
L 18.109375 0 
L 9.078125 0 
L 9.078125 54.6875 
L 18.109375 54.6875 
L 18.109375 46.1875 
Q 21.1875 51.21875 25.484375 53.609375 
Q 29.78125 56 35.6875 56 
Q 41.65625 56 45.828125 52.96875 
Q 50 49.953125 52 44.1875 
z
" id="DejaVuSans-6d"/>
      <path d="M 9.421875 54.6875 
L 18.40625 54.6875 
L 18.40625 0 
L 9.421875 0 
z
M 9.421875 75.984375 
L 18.40625 75.984375 
L 18.40625 64.59375 
L 9.421875 64.59375 
z
" id="DejaVuSans-69"/>
      <path d="M 54.890625 33.015625 
L 54.890625 0 
L 45.90625 0 
L 45.90625 32.71875 
Q 45.90625 40.484375 42.875 44.328125 
Q 39.84375 48.1875 33.796875 48.1875 
Q 26.515625 48.1875 22.3125 43.546875 
Q 18.109375 38.921875 18.109375 30.90625 
L 18.109375 0 
L 9.078125 0 
L 9.078125 54.6875 
L 18.109375 54.6875 
L 18.109375 46.1875 
Q 21.34375 51.125 25.703125 53.5625 
Q 30.078125 56 35.796875 56 
Q 45.21875 56 50.046875 50.171875 
Q 54.890625 44.34375 54.890625 33.015625 
z
" id="DejaVuSans-6e"/>
      <path d="M 56.203125 29.59375 
L 56.203125 25.203125 
L 14.890625 25.203125 
Q 15.484375 15.921875 20.484375 11.0625 
Q 25.484375 6.203125 34.421875 6.203125 
Q 39.59375 6.203125 44.453125 7.46875 
Q 49.3125 8.734375 54.109375 11.28125 
L 54.109375 2.78125 
Q 49.265625 0.734375 44.1875 -0.34375 
Q 39.109375 -1.421875 33.890625 -1.421875 
Q 20.796875 -1.421875 13.15625 6.1875 
Q 5.515625 13.8125 5.515625 26.8125 
Q 5.515625 40.234375 12.765625 48.109375 
Q 20.015625 56 32.328125 56 
Q 43.359375 56 49.78125 48.890625 
Q 56.203125 41.796875 56.203125 29.59375 
z
M 47.21875 32.234375 
Q 47.125 39.59375 43.09375 43.984375 
Q 39.0625 48.390625 32.421875 48.390625 
Q 24.90625 48.390625 20.390625 44.140625 
Q 15.875 39.890625 15.1875 32.171875 
z
" id="DejaVuSans-65"/>
      <path d="M 44.28125 53.078125 
L 44.28125 44.578125 
Q 40.484375 46.53125 36.375 47.5 
Q 32.28125 48.484375 27.875 48.484375 
Q 21.1875 48.484375 17.84375 46.4375 
Q 14.5 44.390625 14.5 40.28125 
Q 14.5 37.15625 16.890625 35.375 
Q 19.28125 33.59375 26.515625 31.984375 
L 29.59375 31.296875 
Q 39.15625 29.25 43.1875 25.515625 
Q 47.21875 21.78125 47.21875 15.09375 
Q 47.21875 7.46875 41.1875 3.015625 
Q 35.15625 -1.421875 24.609375 -1.421875 
Q 20.21875 -1.421875 15.453125 -0.5625 
Q 10.6875 0.296875 5.421875 2 
L 5.421875 11.28125 
Q 10.40625 8.6875 15.234375 7.390625 
Q 20.0625 6.109375 24.8125 6.109375 
Q 31.15625 6.109375 34.5625 8.28125 
Q 37.984375 10.453125 37.984375 14.40625 
Q 37.984375 18.0625 35.515625 20.015625 
Q 33.0625 21.96875 24.703125 23.78125 
L 21.578125 24.515625 
Q 13.234375 26.265625 9.515625 29.90625 
Q 5.8125 33.546875 5.8125 39.890625 
Q 5.8125 47.609375 11.28125 51.796875 
Q 16.75 56 26.8125 56 
Q 31.78125 56 36.171875 55.265625 
Q 40.578125 54.546875 44.28125 53.078125 
z
" id="DejaVuSans-73"/>
      <path d="M 48.78125 52.59375 
L 48.78125 44.1875 
Q 44.96875 46.296875 41.140625 47.34375 
Q 37.3125 48.390625 33.40625 48.390625 
Q 24.65625 48.390625 19.8125 42.84375 
Q 14.984375 37.3125 14.984375 27.296875 
Q 14.984375 17.28125 19.8125 11.734375 
Q 24.65625 6.203125 33.40625 6.203125 
Q 37.3125 6.203125 41.140625 7.25 
Q 44.96875 8.296875 48.78125 10.40625 
L 48.78125 2.09375 
Q 45.015625 0.34375 40.984375 -0.53125 
Q 36.96875 -1.421875 32.421875 -1.421875 
Q 20.0625 -1.421875 12.78125 6.34375 
Q 5.515625 14.109375 5.515625 27.296875 
Q 5.515625 40.671875 12.859375 48.328125 
Q 20.21875 56 33.015625 56 
Q 37.15625 56 41.109375 55.140625 
Q 45.0625 54.296875 48.78125 52.59375 
z
" id="DejaVuSans-63"/>
     </defs>
     <g transform="translate(369.52875 81.544387)scale(0.18 -0.18)">
      <use xlink:href="#DejaVuSans-50"/>
      <use x="60.302734" xlink:href="#DejaVuSans-68"/>
      <use x="123.681641" xlink:href="#DejaVuSans-6f"/>
      <use x="184.863281" xlink:href="#DejaVuSans-74"/>
      <use x="224.072266" xlink:href="#DejaVuSans-6f"/>
      <use x="285.253906" xlink:href="#DejaVuSans-6c"/>
      <use x="313.037109" xlink:href="#DejaVuSans-75"/>
      <use x="376.416016" xlink:href="#DejaVuSans-6d"/>
      <use x="473.828125" xlink:href="#DejaVuSans-69"/>
      <use x="501.611328" xlink:href="#DejaVuSans-6e"/>
      <use x="564.990234" xlink:href="#DejaVuSans-65"/>
      <use x="626.513672" xlink:href="#DejaVuSans-73"/>
      <use x="678.613281" xlink:href="#DejaVuSans-63"/>
      <use x="733.59375" xlink:href="#DejaVuSans-65"/>
      <use x="795.117188" xlink:href="#DejaVuSans-6e"/>
      <use x="858.496094" xlink:href="#DejaVuSans-63"/>
      <use x="913.476562" xlink:href="#DejaVuSans-65"/>
     </g>
    </g>
    <g id="line2d_24">
     <path d="M 319.12875 101.665012 
L 355.12875 101.665012 
" style="fill:none;stroke:#ff7f0e;stroke-dasharray:5.55,2.4;stroke-dashoffset:0;stroke-width:1.5;"/>
    </g>
    <g id="line2d_25"/>
    <g id="text_19">
     <!-- Double quantums -->
     <defs>
      <path d="M 19.671875 64.796875 
L 19.671875 8.109375 
L 31.59375 8.109375 
Q 46.6875 8.109375 53.6875 14.9375 
Q 60.6875 21.78125 60.6875 36.53125 
Q 60.6875 51.171875 53.6875 57.984375 
Q 46.6875 64.796875 31.59375 64.796875 
z
M 9.8125 72.90625 
L 30.078125 72.90625 
Q 51.265625 72.90625 61.171875 64.09375 
Q 71.09375 55.28125 71.09375 36.53125 
Q 71.09375 17.671875 61.125 8.828125 
Q 51.171875 0 30.078125 0 
L 9.8125 0 
z
" id="DejaVuSans-44"/>
      <path d="M 14.796875 27.296875 
Q 14.796875 17.390625 18.875 11.75 
Q 22.953125 6.109375 30.078125 6.109375 
Q 37.203125 6.109375 41.296875 11.75 
Q 45.40625 17.390625 45.40625 27.296875 
Q 45.40625 37.203125 41.296875 42.84375 
Q 37.203125 48.484375 30.078125 48.484375 
Q 22.953125 48.484375 18.875 42.84375 
Q 14.796875 37.203125 14.796875 27.296875 
z
M 45.40625 8.203125 
Q 42.578125 3.328125 38.25 0.953125 
Q 33.9375 -1.421875 27.875 -1.421875 
Q 17.96875 -1.421875 11.734375 6.484375 
Q 5.515625 14.40625 5.515625 27.296875 
Q 5.515625 40.1875 11.734375 48.09375 
Q 17.96875 56 27.875 56 
Q 33.9375 56 38.25 53.625 
Q 42.578125 51.265625 45.40625 46.390625 
L 45.40625 54.6875 
L 54.390625 54.6875 
L 54.390625 -20.796875 
L 45.40625 -20.796875 
z
" id="DejaVuSans-71"/>
     </defs>
     <g transform="translate(369.52875 107.965012)scale(0.18 -0.18)">
      <use xlink:href="#DejaVuSans-44"/>
      <use x="77.001953" xlink:href="#DejaVuSans-6f"/>
      <use x="138.183594" xlink:href="#DejaVuSans-75"/>
      <use x="201.5625" xlink:href="#DejaVuSans-62"/>
      <use x="265.039062" xlink:href="#DejaVuSans-6c"/>
      <use x="292.822266" xlink:href="#DejaVuSans-65"/>
      <use x="354.345703" xlink:href="#DejaVuSans-20"/>
      <use x="386.132812" xlink:href="#DejaVuSans-71"/>
      <use x="449.609375" xlink:href="#DejaVuSans-75"/>
      <use x="512.988281" xlink:href="#DejaVuSans-61"/>
      <use x="574.267578" xlink:href="#DejaVuSans-6e"/>
      <use x="637.646484" xlink:href="#DejaVuSans-74"/>
      <use x="676.855469" xlink:href="#DejaVuSans-75"/>
      <use x="740.234375" xlink:href="#DejaVuSans-6d"/>
      <use x="837.646484" xlink:href="#DejaVuSans-73"/>
     </g>
    </g>
    <g id="line2d_26">
     <path d="M 319.12875 128.085637 
L 355.12875 128.085637 
" style="fill:none;stroke:#2ca02c;stroke-dasharray:5.55,2.4;stroke-dashoffset:0;stroke-width:1.5;"/>
    </g>
    <g id="line2d_27"/>
    <g id="text_20">
     <!-- 13C-NV cross relaxation -->
     <defs>
      <path d="M 40.578125 39.3125 
Q 47.65625 37.796875 51.625 33 
Q 55.609375 28.21875 55.609375 21.1875 
Q 55.609375 10.40625 48.1875 4.484375 
Q 40.765625 -1.421875 27.09375 -1.421875 
Q 22.515625 -1.421875 17.65625 -0.515625 
Q 12.796875 0.390625 7.625 2.203125 
L 7.625 11.71875 
Q 11.71875 9.328125 16.59375 8.109375 
Q 21.484375 6.890625 26.8125 6.890625 
Q 36.078125 6.890625 40.9375 10.546875 
Q 45.796875 14.203125 45.796875 21.1875 
Q 45.796875 27.640625 41.28125 31.265625 
Q 36.765625 34.90625 28.71875 34.90625 
L 20.21875 34.90625 
L 20.21875 43.015625 
L 29.109375 43.015625 
Q 36.375 43.015625 40.234375 45.921875 
Q 44.09375 48.828125 44.09375 54.296875 
Q 44.09375 59.90625 40.109375 62.90625 
Q 36.140625 65.921875 28.71875 65.921875 
Q 24.65625 65.921875 20.015625 65.03125 
Q 15.375 64.15625 9.8125 62.3125 
L 9.8125 71.09375 
Q 15.4375 72.65625 20.34375 73.4375 
Q 25.25 74.21875 29.59375 74.21875 
Q 40.828125 74.21875 47.359375 69.109375 
Q 53.90625 64.015625 53.90625 55.328125 
Q 53.90625 49.265625 50.4375 45.09375 
Q 46.96875 40.921875 40.578125 39.3125 
z
" id="DejaVuSans-33"/>
      <path d="M 64.40625 67.28125 
L 64.40625 56.890625 
Q 59.421875 61.53125 53.78125 63.8125 
Q 48.140625 66.109375 41.796875 66.109375 
Q 29.296875 66.109375 22.65625 58.46875 
Q 16.015625 50.828125 16.015625 36.375 
Q 16.015625 21.96875 22.65625 14.328125 
Q 29.296875 6.6875 41.796875 6.6875 
Q 48.140625 6.6875 53.78125 8.984375 
Q 59.421875 11.28125 64.40625 15.921875 
L 64.40625 5.609375 
Q 59.234375 2.09375 53.4375 0.328125 
Q 47.65625 -1.421875 41.21875 -1.421875 
Q 24.65625 -1.421875 15.125 8.703125 
Q 5.609375 18.84375 5.609375 36.375 
Q 5.609375 53.953125 15.125 64.078125 
Q 24.65625 74.21875 41.21875 74.21875 
Q 47.75 74.21875 53.53125 72.484375 
Q 59.328125 70.75 64.40625 67.28125 
z
" id="DejaVuSans-43"/>
      <path d="M 4.890625 31.390625 
L 31.203125 31.390625 
L 31.203125 23.390625 
L 4.890625 23.390625 
z
" id="DejaVuSans-2d"/>
      <path d="M 9.8125 72.90625 
L 23.09375 72.90625 
L 55.421875 11.921875 
L 55.421875 72.90625 
L 64.984375 72.90625 
L 64.984375 0 
L 51.703125 0 
L 19.390625 60.984375 
L 19.390625 0 
L 9.8125 0 
z
" id="DejaVuSans-4e"/>
      <path d="M 28.609375 0 
L 0.78125 72.90625 
L 11.078125 72.90625 
L 34.1875 11.53125 
L 57.328125 72.90625 
L 67.578125 72.90625 
L 39.796875 0 
z
" id="DejaVuSans-56"/>
      <path d="M 54.890625 54.6875 
L 35.109375 28.078125 
L 55.90625 0 
L 45.3125 0 
L 29.390625 21.484375 
L 13.484375 0 
L 2.875 0 
L 24.125 28.609375 
L 4.6875 54.6875 
L 15.28125 54.6875 
L 29.78125 35.203125 
L 44.28125 54.6875 
z
" id="DejaVuSans-78"/>
     </defs>
     <g transform="translate(369.52875 134.385637)scale(0.18 -0.18)">
      <use xlink:href="#DejaVuSans-31"/>
      <use x="63.623047" xlink:href="#DejaVuSans-33"/>
      <use x="127.246094" xlink:href="#DejaVuSans-43"/>
      <use x="197.070312" xlink:href="#DejaVuSans-2d"/>
      <use x="233.154297" xlink:href="#DejaVuSans-4e"/>
      <use x="307.958984" xlink:href="#DejaVuSans-56"/>
      <use x="376.367188" xlink:href="#DejaVuSans-20"/>
      <use x="408.154297" xlink:href="#DejaVuSans-63"/>
      <use x="463.134766" xlink:href="#DejaVuSans-72"/>
      <use x="504.216797" xlink:href="#DejaVuSans-6f"/>
      <use x="565.398438" xlink:href="#DejaVuSans-73"/>
      <use x="617.498047" xlink:href="#DejaVuSans-73"/>
      <use x="669.597656" xlink:href="#DejaVuSans-20"/>
      <use x="701.384766" xlink:href="#DejaVuSans-72"/>
      <use x="742.466797" xlink:href="#DejaVuSans-65"/>
      <use x="803.990234" xlink:href="#DejaVuSans-6c"/>
      <use x="831.773438" xlink:href="#DejaVuSans-61"/>
      <use x="893.052734" xlink:href="#DejaVuSans-78"/>
      <use x="952.232422" xlink:href="#DejaVuSans-61"/>
      <use x="1013.511719" xlink:href="#DejaVuSans-74"/>
      <use x="1052.720703" xlink:href="#DejaVuSans-69"/>
      <use x="1080.503906" xlink:href="#DejaVuSans-6f"/>
      <use x="1141.685547" xlink:href="#DejaVuSans-6e"/>
     </g>
    </g>
   </g>
  </g>
 </g>
 <defs>
  <clipPath id="p55427b0474">
   <rect height="331.5312" width="518.94" x="83.7" y="51.6672"/>
  </clipPath>
 </defs>
</svg>
