<?xml version="1.0" encoding="utf-8" standalone="no"?>
<!DOCTYPE svg PUBLIC "-//W3C//DTD SVG 1.1//EN"
  "http://www.w3.org/Graphics/SVG/1.1/DTD/svg11.dtd">
<svg xmlns:xlink="http://www.w3.org/1999/xlink" width="648pt" height="432pt" viewBox="0 0 648 432" xmlns="http://www.w3.org/2000/svg" version="1.1">
 <metadata>
  <rdf:RDF xmlns:dc="http://purl.org/dc/elements/1.1/" xmlns:cc="http://creativecommons.org/ns#" xmlns:rdf="http://www.w3.org/1999/02/22-rdf-syntax-ns#">
   <cc:Work>
    <dc:type rdf:resource="http://purl.org/dc/dcmitype/StillImage"/>
    <dc:date>2022-11-18T18:16:28.593590</dc:date>
    <dc:format>image/svg+xml</dc:format>
    <dc:creator>
     <cc:Agent>
      <dc:title>Matplotlib v3.5.1, https://matplotlib.org/</dc:title>
     </cc:Agent>
    </dc:creator>
   </cc:Work>
  </rdf:RDF>
 </metadata>
 <defs>
  <style type="text/css">*{stroke-linejoin: round; stroke-linecap: butt}</style>
 </defs>
 <g id="figure_1">
  <g id="patch_1">
   <path d="M 0 432 
L 648 432 
L 648 0 
L 0 0 
z
" style="fill: #ffffff"/>
  </g>
  <g id="axes_1">
   <g id="patch_2">
    <path d="M 81 384.48 
L 583.2 384.48 
L 583.2 51.84 
L 81 51.84 
z
" style="fill: #ffffff"/>
   </g>
   <g id="matplotlib.axis_1">
    <g id="xtick_1">
     <g id="line2d_1">
      <defs>
       <path id="m0c1740b2d9" d="M 0 0 
L 0 3.5 
" style="stroke: #000000; stroke-width: 0.8"/>
      </defs>
      <g>
       <use xlink:href="#m0c1740b2d9" x="103.827273" y="384.48" style="stroke: #000000; stroke-width: 0.8"/>
      </g>
     </g>
     <g id="text_1">
      <!-- 2840 -->
      <g transform="translate(83.467273 403.6375)scale(0.16 -0.16)">
       <defs>
        <path id="DejaVuSans-32" d="M 1228 531 
L 3431 531 
L 3431 0 
L 469 0 
L 469 531 
Q 828 903 1448 1529 
Q 2069 2156 2228 2338 
Q 2531 2678 2651 2914 
Q 2772 3150 2772 3378 
Q 2772 3750 2511 3984 
Q 2250 4219 1831 4219 
Q 1534 4219 1204 4116 
Q 875 4013 500 3803 
L 500 4441 
Q 881 4594 1212 4672 
Q 1544 4750 1819 4750 
Q 2544 4750 2975 4387 
Q 3406 4025 3406 3419 
Q 3406 3131 3298 2873 
Q 3191 2616 2906 2266 
Q 2828 2175 2409 1742 
Q 1991 1309 1228 531 
z
" transform="scale(0.015625)"/>
        <path id="DejaVuSans-38" d="M 2034 2216 
Q 1584 2216 1326 1975 
Q 1069 1734 1069 1313 
Q 1069 891 1326 650 
Q 1584 409 2034 409 
Q 2484 409 2743 651 
Q 3003 894 3003 1313 
Q 3003 1734 2745 1975 
Q 2488 2216 2034 2216 
z
M 1403 2484 
Q 997 2584 770 2862 
Q 544 3141 544 3541 
Q 544 4100 942 4425 
Q 1341 4750 2034 4750 
Q 2731 4750 3128 4425 
Q 3525 4100 3525 3541 
Q 3525 3141 3298 2862 
Q 3072 2584 2669 2484 
Q 3125 2378 3379 2068 
Q 3634 1759 3634 1313 
Q 3634 634 3220 271 
Q 2806 -91 2034 -91 
Q 1263 -91 848 271 
Q 434 634 434 1313 
Q 434 1759 690 2068 
Q 947 2378 1403 2484 
z
M 1172 3481 
Q 1172 3119 1398 2916 
Q 1625 2713 2034 2713 
Q 2441 2713 2670 2916 
Q 2900 3119 2900 3481 
Q 2900 3844 2670 4047 
Q 2441 4250 2034 4250 
Q 1625 4250 1398 4047 
Q 1172 3844 1172 3481 
z
" transform="scale(0.015625)"/>
        <path id="DejaVuSans-34" d="M 2419 4116 
L 825 1625 
L 2419 1625 
L 2419 4116 
z
M 2253 4666 
L 3047 4666 
L 3047 1625 
L 3713 1625 
L 3713 1100 
L 3047 1100 
L 3047 0 
L 2419 0 
L 2419 1100 
L 313 1100 
L 313 1709 
L 2253 4666 
z
" transform="scale(0.015625)"/>
        <path id="DejaVuSans-30" d="M 2034 4250 
Q 1547 4250 1301 3770 
Q 1056 3291 1056 2328 
Q 1056 1369 1301 889 
Q 1547 409 2034 409 
Q 2525 409 2770 889 
Q 3016 1369 3016 2328 
Q 3016 3291 2770 3770 
Q 2525 4250 2034 4250 
z
M 2034 4750 
Q 2819 4750 3233 4129 
Q 3647 3509 3647 2328 
Q 3647 1150 3233 529 
Q 2819 -91 2034 -91 
Q 1250 -91 836 529 
Q 422 1150 422 2328 
Q 422 3509 836 4129 
Q 1250 4750 2034 4750 
z
" transform="scale(0.015625)"/>
       </defs>
       <use xlink:href="#DejaVuSans-32"/>
       <use xlink:href="#DejaVuSans-38" x="63.623047"/>
       <use xlink:href="#DejaVuSans-34" x="127.246094"/>
       <use xlink:href="#DejaVuSans-30" x="190.869141"/>
      </g>
     </g>
    </g>
    <g id="xtick_2">
     <g id="line2d_2">
      <g>
       <use xlink:href="#m0c1740b2d9" x="256.009091" y="384.48" style="stroke: #000000; stroke-width: 0.8"/>
      </g>
     </g>
     <g id="text_2">
      <!-- 2860 -->
      <g transform="translate(235.649091 403.6375)scale(0.16 -0.16)">
       <defs>
        <path id="DejaVuSans-36" d="M 2113 2584 
Q 1688 2584 1439 2293 
Q 1191 2003 1191 1497 
Q 1191 994 1439 701 
Q 1688 409 2113 409 
Q 2538 409 2786 701 
Q 3034 994 3034 1497 
Q 3034 2003 2786 2293 
Q 2538 2584 2113 2584 
z
M 3366 4563 
L 3366 3988 
Q 3128 4100 2886 4159 
Q 2644 4219 2406 4219 
Q 1781 4219 1451 3797 
Q 1122 3375 1075 2522 
Q 1259 2794 1537 2939 
Q 1816 3084 2150 3084 
Q 2853 3084 3261 2657 
Q 3669 2231 3669 1497 
Q 3669 778 3244 343 
Q 2819 -91 2113 -91 
Q 1303 -91 875 529 
Q 447 1150 447 2328 
Q 447 3434 972 4092 
Q 1497 4750 2381 4750 
Q 2619 4750 2861 4703 
Q 3103 4656 3366 4563 
z
" transform="scale(0.015625)"/>
       </defs>
       <use xlink:href="#DejaVuSans-32"/>
       <use xlink:href="#DejaVuSans-38" x="63.623047"/>
       <use xlink:href="#DejaVuSans-36" x="127.246094"/>
       <use xlink:href="#DejaVuSans-30" x="190.869141"/>
      </g>
     </g>
    </g>
    <g id="xtick_3">
     <g id="line2d_3">
      <g>
       <use xlink:href="#m0c1740b2d9" x="408.190909" y="384.48" style="stroke: #000000; stroke-width: 0.8"/>
      </g>
     </g>
     <g id="text_3">
      <!-- 2880 -->
      <g transform="translate(387.830909 403.6375)scale(0.16 -0.16)">
       <use xlink:href="#DejaVuSans-32"/>
       <use xlink:href="#DejaVuSans-38" x="63.623047"/>
       <use xlink:href="#DejaVuSans-38" x="127.246094"/>
       <use xlink:href="#DejaVuSans-30" x="190.869141"/>
      </g>
     </g>
    </g>
    <g id="xtick_4">
     <g id="line2d_4">
      <g>
       <use xlink:href="#m0c1740b2d9" x="560.372727" y="384.48" style="stroke: #000000; stroke-width: 0.8"/>
      </g>
     </g>
     <g id="text_4">
      <!-- 2900 -->
      <g transform="translate(540.012727 403.6375)scale(0.16 -0.16)">
       <defs>
        <path id="DejaVuSans-39" d="M 703 97 
L 703 672 
Q 941 559 1184 500 
Q 1428 441 1663 441 
Q 2288 441 2617 861 
Q 2947 1281 2994 2138 
Q 2813 1869 2534 1725 
Q 2256 1581 1919 1581 
Q 1219 1581 811 2004 
Q 403 2428 403 3163 
Q 403 3881 828 4315 
Q 1253 4750 1959 4750 
Q 2769 4750 3195 4129 
Q 3622 3509 3622 2328 
Q 3622 1225 3098 567 
Q 2575 -91 1691 -91 
Q 1453 -91 1209 -44 
Q 966 3 703 97 
z
M 1959 2075 
Q 2384 2075 2632 2365 
Q 2881 2656 2881 3163 
Q 2881 3666 2632 3958 
Q 2384 4250 1959 4250 
Q 1534 4250 1286 3958 
Q 1038 3666 1038 3163 
Q 1038 2656 1286 2365 
Q 1534 2075 1959 2075 
z
" transform="scale(0.015625)"/>
       </defs>
       <use xlink:href="#DejaVuSans-32"/>
       <use xlink:href="#DejaVuSans-39" x="63.623047"/>
       <use xlink:href="#DejaVuSans-30" x="127.246094"/>
       <use xlink:href="#DejaVuSans-30" x="190.869141"/>
      </g>
     </g>
    </g>
   </g>
   <g id="matplotlib.axis_2">
    <g id="ytick_1">
     <g id="line2d_5">
      <defs>
       <path id="m74535a521a" d="M 0 0 
L -3.5 0 
" style="stroke: #000000; stroke-width: 0.8"/>
      </defs>
      <g>
       <use xlink:href="#m74535a521a" x="81" y="384.48" style="stroke: #000000; stroke-width: 0.8"/>
      </g>
     </g>
     <g id="text_5">
      <!-- 0.96 -->
      <g transform="translate(38.375 390.55875)scale(0.16 -0.16)">
       <defs>
        <path id="DejaVuSans-2e" d="M 684 794 
L 1344 794 
L 1344 0 
L 684 0 
L 684 794 
z
" transform="scale(0.015625)"/>
       </defs>
       <use xlink:href="#DejaVuSans-30"/>
       <use xlink:href="#DejaVuSans-2e" x="63.623047"/>
       <use xlink:href="#DejaVuSans-39" x="95.410156"/>
       <use xlink:href="#DejaVuSans-36" x="159.033203"/>
      </g>
     </g>
    </g>
    <g id="ytick_2">
     <g id="line2d_6">
      <g>
       <use xlink:href="#m74535a521a" x="81" y="304.325783" style="stroke: #000000; stroke-width: 0.8"/>
      </g>
     </g>
     <g id="text_6">
      <!-- 0.97 -->
      <g transform="translate(38.375 310.404533)scale(0.16 -0.16)">
       <defs>
        <path id="DejaVuSans-37" d="M 525 4666 
L 3525 4666 
L 3525 4397 
L 1831 0 
L 1172 0 
L 2766 4134 
L 525 4134 
L 525 4666 
z
" transform="scale(0.015625)"/>
       </defs>
       <use xlink:href="#DejaVuSans-30"/>
       <use xlink:href="#DejaVuSans-2e" x="63.623047"/>
       <use xlink:href="#DejaVuSans-39" x="95.410156"/>
       <use xlink:href="#DejaVuSans-37" x="159.033203"/>
      </g>
     </g>
    </g>
    <g id="ytick_3">
     <g id="line2d_7">
      <g>
       <use xlink:href="#m74535a521a" x="81" y="224.171566" style="stroke: #000000; stroke-width: 0.8"/>
      </g>
     </g>
     <g id="text_7">
      <!-- 0.98 -->
      <g transform="translate(38.375 230.250316)scale(0.16 -0.16)">
       <use xlink:href="#DejaVuSans-30"/>
       <use xlink:href="#DejaVuSans-2e" x="63.623047"/>
       <use xlink:href="#DejaVuSans-39" x="95.410156"/>
       <use xlink:href="#DejaVuSans-38" x="159.033203"/>
      </g>
     </g>
    </g>
    <g id="ytick_4">
     <g id="line2d_8">
      <g>
       <use xlink:href="#m74535a521a" x="81" y="144.017349" style="stroke: #000000; stroke-width: 0.8"/>
      </g>
     </g>
     <g id="text_8">
      <!-- 0.99 -->
      <g transform="translate(38.375 150.096099)scale(0.16 -0.16)">
       <use xlink:href="#DejaVuSans-30"/>
       <use xlink:href="#DejaVuSans-2e" x="63.623047"/>
       <use xlink:href="#DejaVuSans-39" x="95.410156"/>
       <use xlink:href="#DejaVuSans-39" x="159.033203"/>
      </g>
     </g>
    </g>
    <g id="ytick_5">
     <g id="line2d_9">
      <g>
       <use xlink:href="#m74535a521a" x="81" y="63.863133" style="stroke: #000000; stroke-width: 0.8"/>
      </g>
     </g>
     <g id="text_9">
      <!-- 1.00 -->
      <g transform="translate(38.375 69.941883)scale(0.16 -0.16)">
       <defs>
        <path id="DejaVuSans-31" d="M 794 531 
L 1825 531 
L 1825 4091 
L 703 3866 
L 703 4441 
L 1819 4666 
L 2450 4666 
L 2450 531 
L 3481 531 
L 3481 0 
L 794 0 
L 794 531 
z
" transform="scale(0.015625)"/>
       </defs>
       <use xlink:href="#DejaVuSans-31"/>
       <use xlink:href="#DejaVuSans-2e" x="63.623047"/>
       <use xlink:href="#DejaVuSans-30" x="95.410156"/>
       <use xlink:href="#DejaVuSans-30" x="159.033203"/>
      </g>
     </g>
    </g>
   </g>
   <g id="line2d_10">
    <path d="M 103.827273 64.482948 
L 104.968636 64.807007 
L 107.251364 65.03873 
L 108.392727 64.864318 
L 109.534091 64.845568 
L 110.675455 65.16892 
L 111.816818 64.712902 
L 112.958182 65.237906 
L 114.099545 65.011135 
L 116.382273 65.213849 
L 117.523636 64.745096 
L 118.665 65.089674 
L 120.947727 64.813021 
L 122.089091 64.763492 
L 124.371818 65.234722 
L 125.513182 64.62835 
L 126.654545 64.3379 
L 127.795909 64.721747 
L 128.937273 64.484363 
L 130.078636 64.996631 
L 131.22 64.880592 
L 132.361364 65.092858 
L 133.502727 64.882715 
L 134.644091 65.124344 
L 135.785455 64.701935 
L 136.926818 65.053589 
L 138.068182 65.099933 
L 139.209545 64.868918 
L 141.492273 64.986725 
L 142.633636 65.434605 
L 143.775 64.992739 
L 144.916364 65.163259 
L 146.057727 65.642626 
L 147.199091 65.443803 
L 148.340455 65.438143 
L 149.481818 65.267269 
L 151.764545 65.221986 
L 152.905909 65.07623 
L 154.047273 65.168566 
L 155.188636 65.630951 
L 156.33 65.277883 
L 157.471364 65.353591 
L 158.612727 64.944272 
L 160.895455 65.736376 
L 162.036818 66.195224 
L 163.178182 66.042746 
L 164.319545 65.654654 
L 165.460909 65.725055 
L 166.602273 66.282606 
L 167.743636 65.888146 
L 171.167727 66.706076 
L 172.309091 66.510438 
L 174.591818 66.614094 
L 175.733182 66.089798 
L 178.015909 66.315861 
L 179.157273 66.16303 
L 180.298636 66.865629 
L 181.44 66.377772 
L 182.581364 66.798765 
L 183.722727 66.708199 
L 184.864091 66.943106 
L 186.005455 66.642396 
L 187.146818 66.574118 
L 189.429545 67.152895 
L 190.570909 67.048885 
L 191.712273 66.707491 
L 192.853636 67.192164 
L 193.995 67.171291 
L 195.136364 67.376128 
L 196.277727 67.451482 
L 197.419091 67.752545 
L 198.560455 68.396064 
L 199.701818 68.306912 
L 200.843182 68.638047 
L 201.984545 68.372361 
L 203.125909 68.868001 
L 204.267273 68.838284 
L 205.408636 69.025785 
L 206.55 69.065762 
L 207.691364 69.351966 
L 208.832727 69.405033 
L 209.974091 70.311407 
L 213.398182 70.463177 
L 214.539545 71.013298 
L 215.680909 70.943251 
L 216.822273 71.685826 
L 217.963636 71.327451 
L 219.105 71.95505 
L 220.246364 72.160947 
L 222.529091 72.928287 
L 223.670455 73.546688 
L 225.953182 74.204357 
L 227.094545 74.425821 
L 228.235909 74.973466 
L 230.518636 75.781844 
L 231.66 76.434915 
L 232.801364 76.826191 
L 233.942727 78.013109 
L 235.084091 78.140822 
L 236.225455 78.723491 
L 237.366818 77.859924 
L 238.508182 79.850268 
L 239.649545 80.644848 
L 240.790909 81.68495 
L 241.932273 82.419742 
L 245.356364 85.577193 
L 248.780455 89.346675 
L 249.921818 90.500339 
L 254.487273 95.710043 
L 257.911364 101.433077 
L 261.335455 106.780047 
L 262.476818 108.715201 
L 263.618182 110.236438 
L 264.759545 112.273126 
L 265.900909 113.830801 
L 267.042273 116.073033 
L 268.183636 117.171861 
L 269.325 119.895229 
L 270.466364 122.074488 
L 272.749091 126.110011 
L 273.890455 128.670641 
L 275.031818 130.590229 
L 277.314545 136.578241 
L 278.455909 139.126843 
L 283.021364 151.491312 
L 284.162727 155.154309 
L 285.304091 158.235697 
L 286.445455 161.744801 
L 287.586818 165.79129 
L 288.728182 169.23636 
L 289.869545 173.77849 
L 291.010909 176.948322 
L 292.152273 181.04151 
L 293.293636 185.668192 
L 294.435 189.414679 
L 295.576364 194.198791 
L 297.859091 202.32078 
L 300.141818 210.710576 
L 303.565909 220.809465 
L 304.707273 223.855122 
L 305.848636 226.334384 
L 306.99 228.408926 
L 308.131364 229.737709 
L 309.272727 230.449152 
L 310.414091 230.377689 
L 311.555455 229.962002 
L 312.696818 228.720956 
L 313.838182 225.624356 
L 314.979545 222.959007 
L 317.262273 214.454941 
L 318.403636 209.105141 
L 320.686364 196.510364 
L 324.110455 175.686404 
L 327.534545 156.295236 
L 329.817273 146.353778 
L 330.958636 142.906939 
L 332.1 140.445366 
L 333.241364 139.437105 
L 334.382727 138.964106 
L 335.524091 140.263171 
L 336.665455 142.536182 
L 337.806818 145.941629 
L 340.089545 156.385095 
L 342.372273 170.199339 
L 349.220455 216.185613 
L 352.644545 233.823467 
L 353.785909 238.497555 
L 354.927273 241.968097 
L 356.068636 244.806441 
L 357.21 246.975088 
L 358.351364 247.908349 
L 359.492727 248.387715 
L 360.634091 248.558235 
L 361.775455 247.109169 
L 362.916818 246.190059 
L 364.058182 244.023889 
L 365.199545 241.277526 
L 368.623636 231.71567 
L 369.765 227.702789 
L 370.906364 224.174935 
L 374.330455 211.763414 
L 375.471818 207.243926 
L 376.613182 203.370787 
L 377.754545 199.032432 
L 378.895909 195.410474 
L 380.037273 190.661032 
L 383.461364 178.519088 
L 386.885455 167.669487 
L 388.026818 164.747297 
L 389.168182 160.852932 
L 391.450909 154.140033 
L 392.592273 151.390133 
L 394.875 144.999878 
L 396.016364 142.969557 
L 397.157727 139.565879 
L 400.581818 132.197787 
L 402.864545 127.633016 
L 404.005909 125.196561 
L 405.147273 123.219661 
L 406.288636 120.961509 
L 407.43 118.218684 
L 408.571364 116.064543 
L 409.712727 114.189884 
L 411.995455 109.760963 
L 414.278182 105.875795 
L 415.419545 103.567407 
L 417.702273 99.595918 
L 419.985 96.806041 
L 424.550455 90.338663 
L 425.691818 89.864603 
L 426.833182 88.16471 
L 427.974545 86.730856 
L 429.115909 85.595235 
L 432.54 82.776349 
L 433.681364 81.517614 
L 434.822727 81.281645 
L 435.964091 80.290011 
L 437.105455 79.104862 
L 438.246818 78.750024 
L 439.388182 78.05344 
L 440.529545 77.13999 
L 441.670909 76.484797 
L 445.095 74.960023 
L 446.236364 72.965434 
L 447.377727 73.778411 
L 448.519091 73.85235 
L 449.660455 73.233596 
L 450.801818 72.798098 
L 451.943182 72.662955 
L 453.084545 72.045616 
L 454.225909 72.060475 
L 455.367273 71.140658 
L 456.508636 71.435707 
L 457.65 70.838179 
L 459.932727 70.168481 
L 461.074091 69.780743 
L 462.215455 69.818243 
L 463.356818 69.490293 
L 464.498182 69.414231 
L 465.639545 68.665641 
L 467.922273 68.864463 
L 469.063636 68.223067 
L 470.205 68.293469 
L 471.346364 68.174246 
L 472.487727 67.782262 
L 473.629091 68.180614 
L 474.770455 67.576011 
L 475.911818 67.259028 
L 478.194545 66.951243 
L 479.335909 67.212683 
L 481.618636 68.055731 
L 482.76 67.923065 
L 483.901364 68.554555 
L 485.042727 68.609744 
L 486.184091 67.91316 
L 487.325455 67.524006 
L 488.466818 67.343934 
L 490.749545 67.195702 
L 491.890909 67.528959 
L 493.032273 67.195702 
L 494.173636 67.296528 
L 495.315 66.933554 
L 496.456364 66.422348 
L 497.597727 66.904191 
L 499.880455 66.894639 
L 501.021818 66.332842 
L 502.163182 66.700416 
L 503.304545 66.841926 
L 504.445909 66.53308 
L 505.587273 65.709489 
L 506.728636 65.757957 
L 510.152727 65.460785 
L 511.294091 65.198637 
L 512.435455 65.185901 
L 513.576818 65.559134 
L 514.718182 65.496516 
L 515.859545 65.206066 
L 517.000909 65.602649 
L 518.142273 65.00123 
L 519.283636 65.062787 
L 520.425 65.272576 
L 521.566364 64.770214 
L 522.707727 65.300878 
L 523.849091 65.006536 
L 524.990455 64.913847 
L 526.131818 64.59368 
L 527.273182 64.811606 
L 528.414545 64.542736 
L 529.555909 64.95064 
L 530.697273 64.929767 
L 531.838636 64.37257 
L 532.98 64.117144 
L 534.121364 64.578467 
L 535.262727 63.863133 
L 536.404091 64.462783 
L 538.686818 64.471273 
L 539.828182 64.66019 
L 540.969545 64.417499 
L 542.110909 64.338254 
L 543.252273 64.076459 
L 545.535 65.046159 
L 546.676364 64.433419 
L 550.100455 64.743681 
L 551.241818 64.237427 
L 552.383182 64.98248 
L 553.524545 64.610307 
L 554.665909 65.009013 
L 556.948636 64.989909 
L 558.09 64.515142 
L 559.231364 64.496391 
L 560.372727 64.631534 
L 560.372727 64.631534 
" clip-path="url(#p6a8cba1bc7)" style="fill: none; stroke: #1f77b4; stroke-width: 1.5; stroke-linecap: square"/>
   </g>
   <g id="patch_3">
    <path d="M 81 384.48 
L 81 51.84 
" style="fill: none; stroke: #000000; stroke-width: 0.8; stroke-linejoin: miter; stroke-linecap: square"/>
   </g>
   <g id="patch_4">
    <path d="M 583.2 384.48 
L 583.2 51.84 
" style="fill: none; stroke: #000000; stroke-width: 0.8; stroke-linejoin: miter; stroke-linecap: square"/>
   </g>
   <g id="patch_5">
    <path d="M 81 384.48 
L 583.2 384.48 
" style="fill: none; stroke: #000000; stroke-width: 0.8; stroke-linejoin: miter; stroke-linecap: square"/>
   </g>
   <g id="patch_6">
    <path d="M 81 51.84 
L 583.2 51.84 
" style="fill: none; stroke: #000000; stroke-width: 0.8; stroke-linejoin: miter; stroke-linecap: square"/>
   </g>
  </g>
 </g>
 <defs>
  <clipPath id="p6a8cba1bc7">
   <rect x="81" y="51.84" width="502.2" height="332.64"/>
  </clipPath>
 </defs>
</svg>
