<?xml version="1.0" encoding="utf-8" standalone="no"?>
<!DOCTYPE svg PUBLIC "-//W3C//DTD SVG 1.1//EN"
  "http://www.w3.org/Graphics/SVG/1.1/DTD/svg11.dtd">
<svg xmlns:xlink="http://www.w3.org/1999/xlink" width="623.7pt" height="341.1pt" viewBox="0 0 623.7 341.1" xmlns="http://www.w3.org/2000/svg" version="1.1">
 <metadata>
  <rdf:RDF xmlns:dc="http://purl.org/dc/elements/1.1/" xmlns:cc="http://creativecommons.org/ns#" xmlns:rdf="http://www.w3.org/1999/02/22-rdf-syntax-ns#">
   <cc:Work>
    <dc:type rdf:resource="http://purl.org/dc/dcmitype/StillImage"/>
    <dc:date>2022-12-02T22:25:09.487642</dc:date>
    <dc:format>image/svg+xml</dc:format>
    <dc:creator>
     <cc:Agent>
      <dc:title>Matplotlib v3.5.1, https://matplotlib.org/</dc:title>
     </cc:Agent>
    </dc:creator>
   </cc:Work>
  </rdf:RDF>
 </metadata>
 <defs>
  <style type="text/css">*{stroke-linejoin: round; stroke-linecap: butt}</style>
 </defs>
 <g id="figure_1">
  <g id="patch_1">
   <path d="M 0 341.1 
L 623.7 341.1 
L 623.7 0 
L 0 0 
z
" style="fill: #ffffff"/>
  </g>
  <g id="axes_1">
   <g id="patch_2">
    <path d="M 77.9625 303.579 
L 561.33 303.579 
L 561.33 40.932 
L 77.9625 40.932 
z
" style="fill: #ffffff"/>
   </g>
   <g id="matplotlib.axis_1">
    <g id="xtick_1">
     <g id="line2d_1">
      <defs>
       <path id="m482fc9fd7e" d="M 0 0 
L 0 3.5 
" style="stroke: #000000; stroke-width: 0.8"/>
      </defs>
      <g>
       <use xlink:href="#m482fc9fd7e" x="99.93375" y="303.579" style="stroke: #000000; stroke-width: 0.8"/>
      </g>
     </g>
     <g id="text_1">
      <!-- 2500 -->
      <g transform="translate(79.57375 322.7365)scale(0.16 -0.16)">
       <defs>
        <path id="DejaVuSans-32" d="M 1228 531 
L 3431 531 
L 3431 0 
L 469 0 
L 469 531 
Q 828 903 1448 1529 
Q 2069 2156 2228 2338 
Q 2531 2678 2651 2914 
Q 2772 3150 2772 3378 
Q 2772 3750 2511 3984 
Q 2250 4219 1831 4219 
Q 1534 4219 1204 4116 
Q 875 4013 500 3803 
L 500 4441 
Q 881 4594 1212 4672 
Q 1544 4750 1819 4750 
Q 2544 4750 2975 4387 
Q 3406 4025 3406 3419 
Q 3406 3131 3298 2873 
Q 3191 2616 2906 2266 
Q 2828 2175 2409 1742 
Q 1991 1309 1228 531 
z
" transform="scale(0.015625)"/>
        <path id="DejaVuSans-35" d="M 691 4666 
L 3169 4666 
L 3169 4134 
L 1269 4134 
L 1269 2991 
Q 1406 3038 1543 3061 
Q 1681 3084 1819 3084 
Q 2600 3084 3056 2656 
Q 3513 2228 3513 1497 
Q 3513 744 3044 326 
Q 2575 -91 1722 -91 
Q 1428 -91 1123 -41 
Q 819 9 494 109 
L 494 744 
Q 775 591 1075 516 
Q 1375 441 1709 441 
Q 2250 441 2565 725 
Q 2881 1009 2881 1497 
Q 2881 1984 2565 2268 
Q 2250 2553 1709 2553 
Q 1456 2553 1204 2497 
Q 953 2441 691 2322 
L 691 4666 
z
" transform="scale(0.015625)"/>
        <path id="DejaVuSans-30" d="M 2034 4250 
Q 1547 4250 1301 3770 
Q 1056 3291 1056 2328 
Q 1056 1369 1301 889 
Q 1547 409 2034 409 
Q 2525 409 2770 889 
Q 3016 1369 3016 2328 
Q 3016 3291 2770 3770 
Q 2525 4250 2034 4250 
z
M 2034 4750 
Q 2819 4750 3233 4129 
Q 3647 3509 3647 2328 
Q 3647 1150 3233 529 
Q 2819 -91 2034 -91 
Q 1250 -91 836 529 
Q 422 1150 422 2328 
Q 422 3509 836 4129 
Q 1250 4750 2034 4750 
z
" transform="scale(0.015625)"/>
       </defs>
       <use xlink:href="#DejaVuSans-32"/>
       <use xlink:href="#DejaVuSans-35" x="63.623047"/>
       <use xlink:href="#DejaVuSans-30" x="127.246094"/>
       <use xlink:href="#DejaVuSans-30" x="190.869141"/>
      </g>
     </g>
    </g>
    <g id="xtick_2">
     <g id="line2d_2">
      <g>
       <use xlink:href="#m482fc9fd7e" x="162.70875" y="303.579" style="stroke: #000000; stroke-width: 0.8"/>
      </g>
     </g>
     <g id="text_2">
      <!-- 2600 -->
      <g transform="translate(142.34875 322.7365)scale(0.16 -0.16)">
       <defs>
        <path id="DejaVuSans-36" d="M 2113 2584 
Q 1688 2584 1439 2293 
Q 1191 2003 1191 1497 
Q 1191 994 1439 701 
Q 1688 409 2113 409 
Q 2538 409 2786 701 
Q 3034 994 3034 1497 
Q 3034 2003 2786 2293 
Q 2538 2584 2113 2584 
z
M 3366 4563 
L 3366 3988 
Q 3128 4100 2886 4159 
Q 2644 4219 2406 4219 
Q 1781 4219 1451 3797 
Q 1122 3375 1075 2522 
Q 1259 2794 1537 2939 
Q 1816 3084 2150 3084 
Q 2853 3084 3261 2657 
Q 3669 2231 3669 1497 
Q 3669 778 3244 343 
Q 2819 -91 2113 -91 
Q 1303 -91 875 529 
Q 447 1150 447 2328 
Q 447 3434 972 4092 
Q 1497 4750 2381 4750 
Q 2619 4750 2861 4703 
Q 3103 4656 3366 4563 
z
" transform="scale(0.015625)"/>
       </defs>
       <use xlink:href="#DejaVuSans-32"/>
       <use xlink:href="#DejaVuSans-36" x="63.623047"/>
       <use xlink:href="#DejaVuSans-30" x="127.246094"/>
       <use xlink:href="#DejaVuSans-30" x="190.869141"/>
      </g>
     </g>
    </g>
    <g id="xtick_3">
     <g id="line2d_3">
      <g>
       <use xlink:href="#m482fc9fd7e" x="225.48375" y="303.579" style="stroke: #000000; stroke-width: 0.8"/>
      </g>
     </g>
     <g id="text_3">
      <!-- 2700 -->
      <g transform="translate(205.12375 322.7365)scale(0.16 -0.16)">
       <defs>
        <path id="DejaVuSans-37" d="M 525 4666 
L 3525 4666 
L 3525 4397 
L 1831 0 
L 1172 0 
L 2766 4134 
L 525 4134 
L 525 4666 
z
" transform="scale(0.015625)"/>
       </defs>
       <use xlink:href="#DejaVuSans-32"/>
       <use xlink:href="#DejaVuSans-37" x="63.623047"/>
       <use xlink:href="#DejaVuSans-30" x="127.246094"/>
       <use xlink:href="#DejaVuSans-30" x="190.869141"/>
      </g>
     </g>
    </g>
    <g id="xtick_4">
     <g id="line2d_4">
      <g>
       <use xlink:href="#m482fc9fd7e" x="288.25875" y="303.579" style="stroke: #000000; stroke-width: 0.8"/>
      </g>
     </g>
     <g id="text_4">
      <!-- 2800 -->
      <g transform="translate(267.89875 322.7365)scale(0.16 -0.16)">
       <defs>
        <path id="DejaVuSans-38" d="M 2034 2216 
Q 1584 2216 1326 1975 
Q 1069 1734 1069 1313 
Q 1069 891 1326 650 
Q 1584 409 2034 409 
Q 2484 409 2743 651 
Q 3003 894 3003 1313 
Q 3003 1734 2745 1975 
Q 2488 2216 2034 2216 
z
M 1403 2484 
Q 997 2584 770 2862 
Q 544 3141 544 3541 
Q 544 4100 942 4425 
Q 1341 4750 2034 4750 
Q 2731 4750 3128 4425 
Q 3525 4100 3525 3541 
Q 3525 3141 3298 2862 
Q 3072 2584 2669 2484 
Q 3125 2378 3379 2068 
Q 3634 1759 3634 1313 
Q 3634 634 3220 271 
Q 2806 -91 2034 -91 
Q 1263 -91 848 271 
Q 434 634 434 1313 
Q 434 1759 690 2068 
Q 947 2378 1403 2484 
z
M 1172 3481 
Q 1172 3119 1398 2916 
Q 1625 2713 2034 2713 
Q 2441 2713 2670 2916 
Q 2900 3119 2900 3481 
Q 2900 3844 2670 4047 
Q 2441 4250 2034 4250 
Q 1625 4250 1398 4047 
Q 1172 3844 1172 3481 
z
" transform="scale(0.015625)"/>
       </defs>
       <use xlink:href="#DejaVuSans-32"/>
       <use xlink:href="#DejaVuSans-38" x="63.623047"/>
       <use xlink:href="#DejaVuSans-30" x="127.246094"/>
       <use xlink:href="#DejaVuSans-30" x="190.869141"/>
      </g>
     </g>
    </g>
    <g id="xtick_5">
     <g id="line2d_5">
      <g>
       <use xlink:href="#m482fc9fd7e" x="351.03375" y="303.579" style="stroke: #000000; stroke-width: 0.8"/>
      </g>
     </g>
     <g id="text_5">
      <!-- 2900 -->
      <g transform="translate(330.67375 322.7365)scale(0.16 -0.16)">
       <defs>
        <path id="DejaVuSans-39" d="M 703 97 
L 703 672 
Q 941 559 1184 500 
Q 1428 441 1663 441 
Q 2288 441 2617 861 
Q 2947 1281 2994 2138 
Q 2813 1869 2534 1725 
Q 2256 1581 1919 1581 
Q 1219 1581 811 2004 
Q 403 2428 403 3163 
Q 403 3881 828 4315 
Q 1253 4750 1959 4750 
Q 2769 4750 3195 4129 
Q 3622 3509 3622 2328 
Q 3622 1225 3098 567 
Q 2575 -91 1691 -91 
Q 1453 -91 1209 -44 
Q 966 3 703 97 
z
M 1959 2075 
Q 2384 2075 2632 2365 
Q 2881 2656 2881 3163 
Q 2881 3666 2632 3958 
Q 2384 4250 1959 4250 
Q 1534 4250 1286 3958 
Q 1038 3666 1038 3163 
Q 1038 2656 1286 2365 
Q 1534 2075 1959 2075 
z
" transform="scale(0.015625)"/>
       </defs>
       <use xlink:href="#DejaVuSans-32"/>
       <use xlink:href="#DejaVuSans-39" x="63.623047"/>
       <use xlink:href="#DejaVuSans-30" x="127.246094"/>
       <use xlink:href="#DejaVuSans-30" x="190.869141"/>
      </g>
     </g>
    </g>
    <g id="xtick_6">
     <g id="line2d_6">
      <g>
       <use xlink:href="#m482fc9fd7e" x="413.80875" y="303.579" style="stroke: #000000; stroke-width: 0.8"/>
      </g>
     </g>
     <g id="text_6">
      <!-- 3000 -->
      <g transform="translate(393.44875 322.7365)scale(0.16 -0.16)">
       <defs>
        <path id="DejaVuSans-33" d="M 2597 2516 
Q 3050 2419 3304 2112 
Q 3559 1806 3559 1356 
Q 3559 666 3084 287 
Q 2609 -91 1734 -91 
Q 1441 -91 1130 -33 
Q 819 25 488 141 
L 488 750 
Q 750 597 1062 519 
Q 1375 441 1716 441 
Q 2309 441 2620 675 
Q 2931 909 2931 1356 
Q 2931 1769 2642 2001 
Q 2353 2234 1838 2234 
L 1294 2234 
L 1294 2753 
L 1863 2753 
Q 2328 2753 2575 2939 
Q 2822 3125 2822 3475 
Q 2822 3834 2567 4026 
Q 2313 4219 1838 4219 
Q 1578 4219 1281 4162 
Q 984 4106 628 3988 
L 628 4550 
Q 988 4650 1302 4700 
Q 1616 4750 1894 4750 
Q 2613 4750 3031 4423 
Q 3450 4097 3450 3541 
Q 3450 3153 3228 2886 
Q 3006 2619 2597 2516 
z
" transform="scale(0.015625)"/>
       </defs>
       <use xlink:href="#DejaVuSans-33"/>
       <use xlink:href="#DejaVuSans-30" x="63.623047"/>
       <use xlink:href="#DejaVuSans-30" x="127.246094"/>
       <use xlink:href="#DejaVuSans-30" x="190.869141"/>
      </g>
     </g>
    </g>
    <g id="xtick_7">
     <g id="line2d_7">
      <g>
       <use xlink:href="#m482fc9fd7e" x="476.58375" y="303.579" style="stroke: #000000; stroke-width: 0.8"/>
      </g>
     </g>
     <g id="text_7">
      <!-- 3100 -->
      <g transform="translate(456.22375 322.7365)scale(0.16 -0.16)">
       <defs>
        <path id="DejaVuSans-31" d="M 794 531 
L 1825 531 
L 1825 4091 
L 703 3866 
L 703 4441 
L 1819 4666 
L 2450 4666 
L 2450 531 
L 3481 531 
L 3481 0 
L 794 0 
L 794 531 
z
" transform="scale(0.015625)"/>
       </defs>
       <use xlink:href="#DejaVuSans-33"/>
       <use xlink:href="#DejaVuSans-31" x="63.623047"/>
       <use xlink:href="#DejaVuSans-30" x="127.246094"/>
       <use xlink:href="#DejaVuSans-30" x="190.869141"/>
      </g>
     </g>
    </g>
    <g id="xtick_8">
     <g id="line2d_8">
      <g>
       <use xlink:href="#m482fc9fd7e" x="539.35875" y="303.579" style="stroke: #000000; stroke-width: 0.8"/>
      </g>
     </g>
     <g id="text_8">
      <!-- 3200 -->
      <g transform="translate(518.99875 322.7365)scale(0.16 -0.16)">
       <use xlink:href="#DejaVuSans-33"/>
       <use xlink:href="#DejaVuSans-32" x="63.623047"/>
       <use xlink:href="#DejaVuSans-30" x="127.246094"/>
       <use xlink:href="#DejaVuSans-30" x="190.869141"/>
      </g>
     </g>
    </g>
   </g>
   <g id="matplotlib.axis_2">
    <g id="ytick_1">
     <g id="line2d_9">
      <defs>
       <path id="m0abd19ee4d" d="M 0 0 
L -3.5 0 
" style="stroke: #000000; stroke-width: 0.8"/>
      </defs>
      <g>
       <use xlink:href="#m0abd19ee4d" x="77.9625" y="303.579" style="stroke: #000000; stroke-width: 0.8"/>
      </g>
     </g>
     <g id="text_9">
      <!-- 0.992 -->
      <g transform="translate(25.1575 309.65775)scale(0.16 -0.16)">
       <defs>
        <path id="DejaVuSans-2e" d="M 684 794 
L 1344 794 
L 1344 0 
L 684 0 
L 684 794 
z
" transform="scale(0.015625)"/>
       </defs>
       <use xlink:href="#DejaVuSans-30"/>
       <use xlink:href="#DejaVuSans-2e" x="63.623047"/>
       <use xlink:href="#DejaVuSans-39" x="95.410156"/>
       <use xlink:href="#DejaVuSans-39" x="159.033203"/>
       <use xlink:href="#DejaVuSans-32" x="222.65625"/>
      </g>
     </g>
    </g>
    <g id="ytick_2">
     <g id="line2d_10">
      <g>
       <use xlink:href="#m0abd19ee4d" x="77.9625" y="240.290566" style="stroke: #000000; stroke-width: 0.8"/>
      </g>
     </g>
     <g id="text_10">
      <!-- 0.994 -->
      <g transform="translate(25.1575 246.369316)scale(0.16 -0.16)">
       <defs>
        <path id="DejaVuSans-34" d="M 2419 4116 
L 825 1625 
L 2419 1625 
L 2419 4116 
z
M 2253 4666 
L 3047 4666 
L 3047 1625 
L 3713 1625 
L 3713 1100 
L 3047 1100 
L 3047 0 
L 2419 0 
L 2419 1100 
L 313 1100 
L 313 1709 
L 2253 4666 
z
" transform="scale(0.015625)"/>
       </defs>
       <use xlink:href="#DejaVuSans-30"/>
       <use xlink:href="#DejaVuSans-2e" x="63.623047"/>
       <use xlink:href="#DejaVuSans-39" x="95.410156"/>
       <use xlink:href="#DejaVuSans-39" x="159.033203"/>
       <use xlink:href="#DejaVuSans-34" x="222.65625"/>
      </g>
     </g>
    </g>
    <g id="ytick_3">
     <g id="line2d_11">
      <g>
       <use xlink:href="#m0abd19ee4d" x="77.9625" y="177.002133" style="stroke: #000000; stroke-width: 0.8"/>
      </g>
     </g>
     <g id="text_11">
      <!-- 0.996 -->
      <g transform="translate(25.1575 183.080883)scale(0.16 -0.16)">
       <use xlink:href="#DejaVuSans-30"/>
       <use xlink:href="#DejaVuSans-2e" x="63.623047"/>
       <use xlink:href="#DejaVuSans-39" x="95.410156"/>
       <use xlink:href="#DejaVuSans-39" x="159.033203"/>
       <use xlink:href="#DejaVuSans-36" x="222.65625"/>
      </g>
     </g>
    </g>
    <g id="ytick_4">
     <g id="line2d_12">
      <g>
       <use xlink:href="#m0abd19ee4d" x="77.9625" y="113.713699" style="stroke: #000000; stroke-width: 0.8"/>
      </g>
     </g>
     <g id="text_12">
      <!-- 0.998 -->
      <g transform="translate(25.1575 119.792449)scale(0.16 -0.16)">
       <use xlink:href="#DejaVuSans-30"/>
       <use xlink:href="#DejaVuSans-2e" x="63.623047"/>
       <use xlink:href="#DejaVuSans-39" x="95.410156"/>
       <use xlink:href="#DejaVuSans-39" x="159.033203"/>
       <use xlink:href="#DejaVuSans-38" x="222.65625"/>
      </g>
     </g>
    </g>
    <g id="ytick_5">
     <g id="line2d_13">
      <g>
       <use xlink:href="#m0abd19ee4d" x="77.9625" y="50.425265" style="stroke: #000000; stroke-width: 0.8"/>
      </g>
     </g>
     <g id="text_13">
      <!-- 1.000 -->
      <g transform="translate(25.1575 56.504015)scale(0.16 -0.16)">
       <use xlink:href="#DejaVuSans-31"/>
       <use xlink:href="#DejaVuSans-2e" x="63.623047"/>
       <use xlink:href="#DejaVuSans-30" x="95.410156"/>
       <use xlink:href="#DejaVuSans-30" x="159.033203"/>
       <use xlink:href="#DejaVuSans-30" x="222.65625"/>
      </g>
     </g>
    </g>
   </g>
   <g id="line2d_14">
    <path d="M 99.93375 52.510637 
L 100.153462 52.598922 
L 100.373175 51.590858 
L 100.592887 52.591998 
L 100.8126 50.752439 
L 101.032312 51.819937 
L 101.252025 51.876486 
L 101.471737 51.631827 
L 101.69145 52.87301 
L 101.911163 52.395232 
L 102.130875 53.10959 
L 102.5703 52.860892 
L 102.790013 51.935342 
L 103.009725 51.553928 
L 103.229437 52.98149 
L 103.44915 52.194427 
L 103.668862 50.533169 
L 103.888575 52.323681 
L 104.108287 53.029961 
L 104.328 52.382537 
L 104.547712 52.131531 
L 104.767425 51.651445 
L 104.987138 51.768582 
L 105.426563 51.108464 
L 105.646275 52.52564 
L 105.865987 51.982081 
L 106.0857 51.971118 
L 106.305413 52.282135 
L 106.525125 51.371588 
L 106.96455 52.459859 
L 107.184263 52.235973 
L 107.403975 51.336966 
L 107.623687 52.118259 
L 107.8434 51.444293 
L 108.063112 51.260799 
L 108.282825 51.92611 
L 108.502538 51.692991 
L 108.72225 51.682028 
L 108.941962 52.759912 
L 109.161675 50.904774 
L 109.381388 52.412543 
L 109.820812 51.040375 
L 110.040525 51.235987 
L 110.260237 51.928418 
L 110.47995 51.010946 
L 110.699662 50.97344 
L 110.919375 51.339274 
L 111.139087 52.32772 
L 111.3588 51.78647 
L 111.798225 52.772607 
L 112.017938 52.342146 
L 112.23765 52.582188 
L 112.457362 51.434484 
L 112.677075 52.021319 
L 112.896788 53.233074 
L 113.1165 52.6497 
L 113.336212 53.088817 
L 113.555925 52.294829 
L 113.775638 53.099781 
L 113.99535 53.370406 
L 114.215062 51.691837 
L 114.434775 52.932443 
L 114.654487 53.123439 
L 114.8742 52.184617 
L 115.093912 52.664703 
L 115.313625 52.84185 
L 115.533337 52.466783 
L 115.75305 51.504304 
L 116.192475 52.615656 
L 116.412187 51.379666 
L 116.6319 50.824567 
L 116.851612 52.150573 
L 117.071325 52.061711 
L 117.291037 51.587973 
L 117.51075 51.750117 
L 117.730462 52.190388 
L 117.950175 51.550466 
L 118.3896 51.810128 
L 118.609312 51.349084 
L 119.048737 51.727613 
L 119.26845 51.54585 
L 119.488163 52.055941 
L 119.707875 51.484108 
L 119.927587 51.842441 
L 120.1473 51.694722 
L 120.367013 52.099218 
L 120.586725 51.497379 
L 120.806437 52.029975 
L 121.02615 50.495662 
L 121.465575 51.586241 
L 121.685287 51.346776 
L 122.124712 51.43333 
L 122.344425 51.978619 
L 122.564138 51.023641 
L 122.78385 51.900144 
L 123.003563 51.843018 
L 123.223275 52.376767 
L 123.442987 51.480069 
L 123.6627 51.098077 
L 123.882413 51.345045 
L 124.102125 50.425265 
L 124.321837 51.612785 
L 124.54155 50.682042 
L 124.980975 51.972272 
L 125.200687 51.703378 
L 125.4204 51.087691 
L 125.640112 51.092307 
L 125.859825 51.681451 
L 126.079538 52.916287 
L 126.29925 51.901298 
L 126.518962 51.587396 
L 126.738675 51.847634 
L 126.958388 52.298869 
L 127.1781 51.270608 
L 127.617525 51.881102 
L 127.837237 51.847057 
L 128.496375 51.008061 
L 128.716087 52.125184 
L 128.9358 51.082498 
L 129.155512 51.255606 
L 129.375225 52.024204 
L 129.594938 51.778391 
L 129.81465 52.073251 
L 130.034362 50.751285 
L 130.473788 53.852223 
L 130.913212 51.844749 
L 131.132925 51.465643 
L 131.352638 52.51583 
L 131.57235 52.926673 
L 131.792062 51.574701 
L 132.231487 51.28965 
L 132.670912 52.250398 
L 132.890625 51.270031 
L 133.110337 51.597205 
L 133.33005 52.533718 
L 133.549763 52.872433 
L 133.989187 53.000532 
L 134.2089 53.454652 
L 134.428612 53.051888 
L 134.648325 54.958959 
L 134.868037 54.296533 
L 135.08775 53.186335 
L 135.307462 53.062851 
L 135.527175 54.317883 
L 135.746887 54.842976 
L 135.9666 53.69181 
L 136.186312 53.452344 
L 136.625737 55.28267 
L 136.84545 54.427518 
L 137.065163 54.186898 
L 137.284875 54.951457 
L 137.504587 53.973975 
L 137.944013 54.170164 
L 138.383437 53.115938 
L 138.60315 52.949177 
L 138.822862 52.09287 
L 139.042575 53.31732 
L 139.262287 53.021305 
L 139.482 51.925533 
L 139.701712 53.132094 
L 139.921425 53.421184 
L 140.141138 53.248076 
L 140.36085 52.379075 
L 140.580563 52.827425 
L 140.800275 52.679129 
L 141.019987 52.06575 
L 141.2397 52.582765 
L 141.898837 52.465629 
L 142.557975 51.47199 
L 142.777687 51.463335 
L 142.9974 51.654908 
L 143.436825 51.282149 
L 143.656538 51.620863 
L 143.87625 51.559698 
L 144.095962 52.006316 
L 144.535388 52.205967 
L 144.7551 50.858035 
L 144.974812 51.220984 
L 145.194525 52.864354 
L 145.414237 51.166744 
L 145.63395 52.283289 
L 145.853662 52.639314 
L 146.073375 51.627787 
L 146.293087 52.267132 
L 146.5128 52.145957 
L 146.732512 52.75645 
L 146.952225 52.640468 
L 147.171938 51.683759 
L 147.39165 52.803189 
L 147.611362 51.828592 
L 147.831075 51.922648 
L 148.050788 52.99707 
L 148.2705 53.03977 
L 148.490212 51.971118 
L 148.709925 52.910516 
L 148.929638 53.208262 
L 149.14935 52.690669 
L 149.369062 52.626619 
L 149.588775 54.11073 
L 149.808487 52.858584 
L 150.0282 52.668742 
L 150.247912 53.067467 
L 150.467625 52.953793 
L 151.126763 53.927813 
L 151.346475 54.841822 
L 151.566187 54.337502 
L 152.005612 52.62258 
L 152.225325 53.568326 
L 152.445037 52.379652 
L 152.66475 52.270017 
L 152.884462 51.791663 
L 153.323887 53.260194 
L 153.5436 53.378484 
L 153.763312 52.722406 
L 153.983025 53.213455 
L 154.202737 51.573547 
L 154.42245 52.885127 
L 154.642163 52.468514 
L 155.081587 52.499097 
L 155.3013 52.367535 
L 155.521013 53.522741 
L 155.740725 53.068044 
L 155.960437 53.503699 
L 156.399862 53.0767 
L 156.619575 53.099781 
L 156.839287 51.497379 
L 157.059 53.358865 
L 157.278712 52.197312 
L 157.498425 53.111898 
L 157.718138 53.547553 
L 157.93785 53.621412 
L 158.157563 53.008034 
L 158.377275 52.805498 
L 158.596987 52.219239 
L 159.036413 53.931275 
L 159.256125 53.429263 
L 159.475837 53.332899 
L 159.69555 52.754719 
L 159.915263 52.886281 
L 160.134975 52.533718 
L 160.354687 51.882256 
L 160.5744 53.037462 
L 160.794112 52.762221 
L 161.013825 52.852814 
L 161.233538 54.663521 
L 161.45325 53.32309 
L 161.892675 53.294239 
L 162.3321 52.868393 
L 162.551812 53.5966 
L 162.991237 53.882228 
L 163.21095 55.128604 
L 163.430662 54.292494 
L 163.650375 52.802035 
L 163.870087 53.319051 
L 164.0898 52.537757 
L 164.309512 54.032255 
L 164.529225 54.327115 
L 164.96865 52.903592 
L 165.188362 54.119963 
L 165.408075 53.759322 
L 165.627788 54.870097 
L 166.067212 55.385381 
L 166.286925 55.364031 
L 166.506638 56.479999 
L 166.72635 55.331141 
L 166.946062 55.218043 
L 167.165775 55.706784 
L 167.385487 54.505993 
L 167.824912 54.351927 
L 168.044625 53.978014 
L 168.264337 54.103806 
L 168.48405 54.07207 
L 168.703763 53.84703 
L 168.923475 54.013213 
L 169.143187 54.77835 
L 169.3629 54.214018 
L 169.582612 55.430389 
L 170.022037 54.932416 
L 170.24175 55.470204 
L 170.461462 55.409616 
L 170.681175 55.512904 
L 171.1206 57.752919 
L 171.340312 57.080684 
L 171.99945 60.163157 
L 172.219163 62.018295 
L 172.438875 62.246221 
L 172.658587 65.103077 
L 172.8783 64.987671 
L 173.098013 68.040716 
L 173.537437 71.527685 
L 173.976862 77.613001 
L 174.416287 81.16402 
L 174.636 81.406948 
L 174.855712 82.306531 
L 175.734563 94.675085 
L 176.173987 109.12324 
L 176.613413 134.034609 
L 177.27255 183.693471 
L 177.492263 187.899413 
L 177.711975 183.807145 
L 177.931687 176.358892 
L 178.1514 175.762825 
L 178.590825 189.567019 
L 178.810538 192.914347 
L 179.469675 172.57187 
L 179.689388 173.64687 
L 179.9091 180.632924 
L 180.128812 179.810662 
L 180.348525 168.619242 
L 181.007662 120.274845 
L 181.447087 103.421646 
L 181.6668 104.292955 
L 181.886512 101.900605 
L 182.325938 91.055977 
L 182.985075 77.513176 
L 183.4245 73.236259 
L 184.30335 67.945507 
L 184.742775 64.86188 
L 184.962487 63.812269 
L 185.1822 61.682466 
L 185.401912 62.081768 
L 185.621625 61.03562 
L 185.841337 61.31317 
L 186.06105 60.192585 
L 186.280763 58.260702 
L 186.500475 58.57922 
L 186.720187 56.73793 
L 186.9399 56.389406 
L 187.159612 56.67388 
L 187.379325 57.506529 
L 187.599037 56.083583 
L 188.258175 54.405014 
L 188.6976 53.797982 
L 188.917312 54.280376 
L 189.356737 53.330014 
L 189.796163 53.879343 
L 190.015875 53.851646 
L 190.235587 54.100344 
L 190.4553 55.081865 
L 190.675013 55.085327 
L 191.114437 53.14652 
L 191.33415 54.873559 
L 191.553862 53.903001 
L 191.773575 54.231329 
L 191.993287 53.507161 
L 192.213 55.216889 
L 192.432712 55.401538 
L 192.872138 54.749498 
L 193.09185 53.820486 
L 193.311563 55.11591 
L 193.531275 55.087059 
L 193.750987 53.765092 
L 193.9707 55.496747 
L 194.190413 55.372686 
L 194.410125 54.822781 
L 194.629837 53.467923 
L 194.84955 54.027639 
L 195.069263 53.758168 
L 195.288975 53.747204 
L 195.508687 54.46387 
L 195.948112 54.01956 
L 196.167825 55.910475 
L 196.387538 54.33 
L 196.60725 53.879343 
L 196.826962 54.364622 
L 197.046675 54.493876 
L 197.266388 53.396372 
L 197.4861 54.298841 
L 197.705812 54.509455 
L 197.925525 54.419439 
L 198.145237 54.148237 
L 198.36495 54.257295 
L 198.584662 54.665829 
L 198.804375 53.86434 
L 199.024087 54.77431 
L 199.463512 53.152867 
L 199.683225 53.887421 
L 200.12265 53.126901 
L 200.342362 51.783584 
L 200.562075 52.672782 
L 200.781788 54.439635 
L 201.0015 53.960704 
L 201.221212 52.401579 
L 201.440925 52.761067 
L 201.660638 51.462758 
L 202.100062 53.854531 
L 202.319775 53.29193 
L 202.539487 53.286737 
L 202.7592 52.878203 
L 203.198625 54.200747 
L 204.077475 52.144803 
L 204.297187 53.550438 
L 204.5169 53.147674 
L 204.736612 53.049003 
L 204.956325 52.581611 
L 205.176037 52.757604 
L 205.39575 51.907068 
L 205.615462 52.11422 
L 205.835175 52.149419 
L 206.054887 53.22211 
L 206.2746 52.87301 
L 206.494312 52.949177 
L 206.714025 53.435033 
L 206.933737 52.970527 
L 207.15345 53.692387 
L 207.812587 52.805498 
L 208.0323 53.201914 
L 208.252013 52.814153 
L 208.471725 53.326552 
L 208.691437 52.694709 
L 208.91115 53.062274 
L 209.130862 52.549298 
L 209.350575 53.8955 
L 209.570287 53.380792 
L 210.009712 52.995339 
L 210.229425 52.283289 
L 210.449138 52.694131 
L 210.66885 54.33981 
L 210.888563 53.634107 
L 211.108275 54.376162 
L 211.327987 53.826257 
L 211.5477 53.780672 
L 211.767413 52.403887 
L 211.987125 53.300009 
L 212.206837 52.034014 
L 212.646263 53.827988 
L 212.865975 53.914542 
L 213.085687 53.061697 
L 213.3054 52.949177 
L 213.525112 53.806638 
L 213.744825 55.375572 
L 213.964538 54.213441 
L 214.18425 55.853926 
L 214.403962 55.652544 
L 214.843388 57.433823 
L 215.282812 59.279153 
L 215.502525 59.752891 
L 215.722237 62.34143 
L 215.94195 62.126199 
L 216.161662 64.113477 
L 216.381375 64.755707 
L 216.601087 66.279633 
L 217.040512 67.609678 
L 217.260225 69.232852 
L 218.139075 83.760637 
L 218.5785 91.297751 
L 218.798212 90.992504 
L 219.017925 92.422375 
L 219.237638 92.742047 
L 219.677062 98.9872 
L 220.116487 108.664504 
L 220.775625 137.867793 
L 221.21505 178.130939 
L 221.434763 190.861288 
L 221.654475 195.894686 
L 221.874187 194.129564 
L 222.313612 187.451641 
L 222.97275 194.887776 
L 223.412175 187.853828 
L 223.631887 183.057588 
L 223.8516 182.781769 
L 224.071312 184.191444 
L 224.291025 183.692894 
L 224.510737 177.410811 
L 225.389587 130.73979 
L 225.829013 123.87895 
L 226.048725 122.95744 
L 226.268437 118.241983 
L 227.367 83.95798 
L 227.586712 79.697797 
L 227.806425 78.419684 
L 228.465563 68.613703 
L 228.685275 67.641991 
L 228.904987 67.933389 
L 229.344413 63.917865 
L 229.564125 64.46027 
L 229.783837 62.056956 
L 230.00355 61.887311 
L 230.223263 59.245685 
L 230.442975 58.339754 
L 230.662687 58.052395 
L 230.8824 57.440171 
L 231.102112 58.383031 
L 231.321825 56.955469 
L 231.76125 56.201296 
L 231.980962 56.065695 
L 232.200675 54.995311 
L 232.6401 55.891433 
L 232.859812 54.863749 
L 233.079525 54.937032 
L 233.51895 54.589662 
L 233.738662 55.035126 
L 233.958375 54.754692 
L 234.3978 53.855108 
L 234.617512 54.882214 
L 234.837225 54.135543 
L 235.056938 54.717762 
L 235.27665 54.808355 
L 235.496362 54.450599 
L 235.716075 53.512931 
L 235.935788 54.170741 
L 236.1555 54.332885 
L 236.375212 53.250385 
L 236.594925 54.489837 
L 236.814638 54.599472 
L 237.03435 53.80433 
L 237.254062 54.392319 
L 237.473775 54.357698 
L 237.693487 54.741997 
L 238.132912 53.610449 
L 238.352625 54.464447 
L 238.572337 53.953779 
L 238.79205 54.983194 
L 239.011763 54.582161 
L 239.451187 55.670432 
L 239.6709 53.572365 
L 239.890612 53.932429 
L 240.330037 53.83722 
L 240.54975 54.777773 
L 240.989175 55.43789 
L 241.208887 54.412515 
L 241.4286 55.24978 
L 241.648312 53.467923 
L 241.868025 53.643339 
L 242.087737 53.493313 
L 242.30745 54.171318 
L 242.527163 53.896077 
L 242.746875 54.61332 
L 242.966587 54.792775 
L 243.1863 54.420016 
L 243.406013 54.398089 
L 243.625725 53.485811 
L 243.845437 54.548693 
L 244.06515 55.043782 
L 244.284862 53.924351 
L 244.504575 53.755282 
L 244.724287 53.250385 
L 244.944 55.766795 
L 245.163712 53.346171 
L 245.383425 54.096305 
L 245.603138 54.079571 
L 245.82285 54.793929 
L 246.042563 54.267682 
L 246.262275 54.284992 
L 246.7017 52.013818 
L 246.921413 53.600639 
L 247.141125 54.338656 
L 247.360837 52.968219 
L 247.58055 53.553323 
L 247.800263 52.05017 
L 248.019975 53.10959 
L 248.239687 53.402719 
L 248.4594 52.75068 
L 248.679112 52.700479 
L 248.898825 52.89032 
L 249.118538 52.480055 
L 249.33825 52.874164 
L 249.557962 52.858584 
L 249.777675 54.209402 
L 249.997388 52.523332 
L 250.2171 53.184604 
L 250.436812 54.577545 
L 250.656525 53.60641 
L 250.876237 53.692387 
L 251.09595 53.452921 
L 251.315662 54.618513 
L 251.535375 53.735086 
L 251.755087 53.699888 
L 251.9748 54.096305 
L 252.414225 52.755873 
L 252.633938 53.772593 
L 252.85365 55.414809 
L 253.073362 53.826834 
L 253.293075 53.537167 
L 253.7325 54.684294 
L 253.952212 52.997647 
L 254.171925 53.932429 
L 254.391638 53.204223 
L 254.61135 54.13208 
L 254.831062 53.577558 
L 255.050775 54.221519 
L 255.270487 53.816447 
L 255.4902 54.219211 
L 255.709912 54.990695 
L 255.929625 54.276337 
L 256.149337 55.471358 
L 256.36905 54.574082 
L 256.588763 55.17015 
L 257.2479 54.274029 
L 257.467612 54.29711 
L 257.687325 56.078389 
L 257.907037 56.890842 
L 258.12675 55.862582 
L 258.566175 56.848719 
L 258.785887 54.440212 
L 259.0056 55.435582 
L 259.225312 55.750638 
L 259.445025 55.241124 
L 259.664737 55.909898 
L 259.88445 54.76854 
L 260.543587 54.576967 
L 260.7633 54.660636 
L 260.983013 54.864326 
L 261.202725 54.527343 
L 261.422437 55.12745 
L 261.64215 54.6716 
L 261.861862 53.0767 
L 262.081575 52.98553 
L 262.301287 54.033986 
L 262.740712 54.204209 
L 263.180138 53.151136 
L 263.39985 52.934751 
L 263.839275 54.12054 
L 264.058987 54.06226 
L 264.2787 55.052437 
L 264.498413 54.553886 
L 264.718125 53.257309 
L 265.15755 54.189783 
L 265.377263 52.44024 
L 265.596975 53.332322 
L 266.0364 53.737395 
L 266.256112 53.406182 
L 266.475825 53.605833 
L 266.91525 52.599499 
L 267.134962 53.421761 
L 267.354675 52.838965 
L 267.574388 53.459845 
L 267.7941 53.640454 
L 268.013812 53.050734 
L 268.233525 53.431571 
L 268.453237 52.803766 
L 268.67295 52.967065 
L 268.892662 52.781839 
L 269.112375 54.022445 
L 269.332087 53.58506 
L 269.5518 54.053605 
L 269.771512 53.82164 
L 269.991225 54.255564 
L 270.210938 54.076109 
L 270.43065 54.119963 
L 270.650362 53.697003 
L 270.870075 54.33404 
L 271.089788 53.776055 
L 271.3095 54.98204 
L 271.529212 53.714891 
L 271.748925 53.752397 
L 271.968638 54.284415 
L 272.18835 55.707362 
L 272.408062 54.042641 
L 272.627775 56.198988 
L 272.847487 54.888562 
L 273.0672 55.353068 
L 273.286912 55.050706 
L 273.506625 56.737353 
L 273.726337 55.717748 
L 273.94605 56.80198 
L 274.165763 55.965869 
L 274.385475 56.620794 
L 274.8249 56.286696 
L 275.044612 57.421129 
L 275.264325 56.566553 
L 275.484037 56.565399 
L 275.70375 58.078939 
L 275.923462 58.252623 
L 276.143175 57.187433 
L 276.5826 58.567103 
L 276.802312 58.453428 
L 277.022025 58.209923 
L 277.241737 58.705012 
L 277.681163 60.059869 
L 278.3403 61.44704 
L 278.560013 63.249092 
L 278.779725 63.480479 
L 278.999437 65.915529 
L 279.21915 65.755693 
L 279.438862 68.7268 
L 279.878287 70.699075 
L 280.098 72.835803 
L 280.317712 73.205676 
L 280.757137 79.273682 
L 280.97685 83.115522 
L 281.635987 99.607503 
L 281.8557 102.279134 
L 282.075413 102.857891 
L 282.295125 103.846914 
L 282.514837 103.980784 
L 282.73455 106.284272 
L 283.173975 114.521319 
L 283.6134 128.968897 
L 284.272537 175.222151 
L 284.711962 205.390804 
L 284.931675 210.579999 
L 285.3711 202.94883 
L 285.590812 198.953502 
L 285.810525 198.749234 
L 286.030237 200.030809 
L 286.24995 199.601502 
L 287.1288 183.653656 
L 287.348512 184.249147 
L 287.568225 183.522671 
L 287.787937 176.034604 
L 288.666788 121.825891 
L 289.106212 112.87564 
L 289.325925 110.531761 
L 289.545638 105.435467 
L 289.76535 95.405023 
L 289.985062 92.802635 
L 290.424487 80.290402 
L 291.303337 69.55541 
L 291.52305 68.049372 
L 291.962475 63.749374 
L 292.182187 62.754004 
L 292.4019 61.181031 
L 292.621612 61.473583 
L 292.841325 61.320671 
L 293.061037 58.621343 
L 293.28075 58.591338 
L 293.500462 57.187433 
L 293.720175 56.62541 
L 293.939887 56.605791 
L 294.1596 56.256113 
L 294.379312 55.671586 
L 294.599025 56.880455 
L 294.818737 55.656583 
L 295.03845 55.257858 
L 295.258163 55.660622 
L 295.477875 56.505389 
L 295.697587 55.782952 
L 295.9173 55.662931 
L 296.137013 54.821627 
L 296.356725 54.806047 
L 296.576437 53.635261 
L 296.79615 53.859147 
L 297.015862 53.592561 
L 297.235575 53.841259 
L 297.455287 53.589676 
L 297.675 54.158624 
L 297.894712 53.531396 
L 298.114425 53.653726 
L 298.334137 54.15343 
L 298.55385 52.112489 
L 298.773563 53.288468 
L 298.993275 52.886281 
L 299.212987 53.934737 
L 299.652413 53.410221 
L 299.872125 53.757013 
L 300.091837 53.604102 
L 300.31155 54.838937 
L 300.750975 53.849915 
L 300.970687 53.581021 
L 301.1904 54.412515 
L 301.410112 52.261939 
L 301.629825 53.057658 
L 301.849537 52.952062 
L 302.06925 53.143058 
L 302.288962 54.14766 
L 302.508675 53.417722 
L 302.728388 52.163268 
L 302.9481 53.089971 
L 303.167812 51.784161 
L 303.607237 53.650264 
L 303.82695 52.41889 
L 304.046662 52.389462 
L 304.266375 53.05535 
L 304.486087 52.359456 
L 304.7058 52.261362 
L 304.925512 52.478324 
L 305.145225 53.467923 
L 305.58465 52.326566 
L 306.024075 53.163831 
L 306.243788 53.112475 
L 306.4635 53.221533 
L 306.902925 52.394655 
L 307.122638 52.589113 
L 307.34235 53.304048 
L 307.562062 53.134979 
L 307.781775 52.658933 
L 308.001487 53.896077 
L 308.440912 52.85166 
L 308.660625 53.383101 
L 308.880337 54.23306 
L 309.10005 54.455792 
L 309.319763 53.334053 
L 309.539475 54.083033 
L 309.759187 52.720098 
L 309.9789 53.164408 
L 310.198612 52.462167 
L 310.418325 53.765092 
L 310.638037 53.189797 
L 311.077462 53.374445 
L 311.297175 53.080739 
L 311.516887 53.656034 
L 311.7366 52.937059 
L 311.956312 52.833195 
L 312.395737 53.486388 
L 312.61545 53.143058 
L 312.835163 52.474285 
L 313.054875 53.049003 
L 313.274587 52.701056 
L 313.4943 53.379638 
L 313.714013 52.879934 
L 313.933725 54.364622 
L 314.153437 53.832604 
L 314.37315 55.39519 
L 314.592862 53.536012 
L 314.812575 54.387126 
L 315.032287 53.66642 
L 315.252 53.846453 
L 315.471712 55.068017 
L 315.691425 55.229007 
L 315.911137 56.018379 
L 316.13085 55.976833 
L 316.350563 55.6185 
L 316.570275 56.286696 
L 316.789987 57.612702 
L 317.0097 57.78177 
L 317.449125 59.795014 
L 318.108263 60.577461 
L 318.327975 61.237002 
L 318.547687 62.428561 
L 318.7674 62.483955 
L 318.987112 63.36392 
L 319.64625 68.918373 
L 319.865962 68.562925 
L 320.744812 74.525912 
L 321.40395 83.899123 
L 321.623662 88.118338 
L 322.2828 111.549635 
L 322.722225 126.419596 
L 322.941937 130.451277 
L 323.16165 129.685563 
L 323.381362 128.344555 
L 323.601075 128.021997 
L 324.0405 130.503209 
L 324.260212 120.962083 
L 324.479925 126.837363 
L 324.699638 124.208432 
L 324.91935 123.70238 
L 325.139062 120.697806 
L 325.358775 121.321571 
L 325.7982 110.237477 
L 326.457337 86.971787 
L 326.67705 81.219991 
L 327.116475 76.746885 
L 327.775612 69.20227 
L 328.654462 61.551481 
L 328.874175 61.880963 
L 329.3136 60.062754 
L 329.753025 57.226094 
L 329.972737 56.047807 
L 330.19245 56.788708 
L 330.412163 56.81352 
L 330.631875 57.365157 
L 331.291013 54.986656 
L 331.510725 54.987233 
L 331.730437 54.395204 
L 331.95015 54.964152 
L 332.169862 53.396949 
L 332.389575 53.809523 
L 332.609287 53.727585 
L 332.829 55.387112 
L 333.268425 52.690669 
L 333.488137 54.013213 
L 333.70785 54.520419 
L 333.927563 54.08938 
L 334.366987 54.694104 
L 334.5867 56.084737 
L 334.806413 55.930094 
L 335.026125 56.430375 
L 335.245837 56.25092 
L 335.46555 56.89892 
L 335.685263 55.140722 
L 335.904975 55.525021 
L 336.3444 54.895486 
L 336.564112 54.977424 
L 336.783825 55.332295 
L 337.442962 53.161523 
L 337.662675 53.144789 
L 337.882388 54.38251 
L 338.1021 53.67623 
L 338.321812 54.561965 
L 338.541525 53.576981 
L 338.761237 54.364045 
L 338.98095 54.649096 
L 339.200662 53.006303 
L 339.640087 54.779504 
L 339.8598 54.397512 
L 340.079512 53.486965 
L 340.299225 53.742588 
L 340.518937 53.818178 
L 340.73865 54.014367 
L 340.958362 55.173035 
L 341.397788 53.316743 
L 341.6175 54.523304 
L 341.837212 53.54813 
L 342.056925 54.218057 
L 342.276638 55.777182 
L 342.49635 54.469641 
L 342.716062 55.122834 
L 342.935775 54.824512 
L 343.155487 54.000518 
L 343.3752 54.658328 
L 343.594912 54.621976 
L 343.814625 55.114756 
L 344.034337 54.164394 
L 344.25405 54.134389 
L 344.473763 54.678524 
L 344.693475 54.214018 
L 345.1329 54.429826 
L 345.352612 54.226136 
L 345.572325 53.410221 
L 346.01175 54.229021 
L 346.231462 53.517548 
L 346.451175 53.944547 
L 346.670887 53.631799 
L 346.8906 52.340992 
L 347.110312 54.26595 
L 347.549737 53.271735 
L 347.76945 54.820472 
L 347.989163 53.948009 
L 348.208875 53.635838 
L 348.428587 54.195553 
L 348.6483 54.425787 
L 349.307437 53.619104 
L 349.52715 53.887421 
L 349.966575 53.094011 
L 350.186287 52.576995 
L 350.406 53.813562 
L 350.845425 53.182296 
L 351.065137 53.787596 
L 351.28485 53.320205 
L 351.724275 53.692964 
L 351.943987 52.978605 
L 352.1637 53.084201 
L 352.383413 53.780095 
L 352.603125 52.647392 
L 352.822837 52.871278 
L 353.04255 52.920326 
L 353.262263 52.497943 
L 353.481975 53.917427 
L 353.701687 52.668165 
L 353.9214 53.965897 
L 354.141112 54.218057 
L 354.360825 52.422352 
L 354.580537 53.031115 
L 355.019962 52.824539 
L 355.239675 53.21057 
L 355.459388 52.282712 
L 355.6791 52.913401 
L 355.898812 51.473144 
L 356.338237 52.958986 
L 356.55795 53.762784 
L 356.777662 53.412529 
L 356.997375 52.852814 
L 357.217087 53.122285 
L 357.4368 53.881651 
L 357.876225 53.540052 
L 358.31565 54.270567 
L 358.535362 53.233074 
L 358.755075 53.695272 
L 358.974788 53.05535 
L 359.1945 54.275183 
L 359.414212 52.687207 
L 359.853638 53.612757 
L 360.07335 52.842427 
L 360.293062 52.940522 
L 360.512775 52.866662 
L 360.9522 53.525049 
L 361.171912 54.947418 
L 361.611337 53.986093 
L 361.83105 53.688347 
L 362.050763 54.143621 
L 362.270475 54.05649 
L 362.490187 53.384255 
L 362.7099 54.52215 
L 363.149325 52.572956 
L 363.369037 53.664689 
L 363.58875 53.214609 
L 363.808462 52.318488 
L 364.247887 53.953202 
L 364.4676 53.026498 
L 364.687312 52.904746 
L 364.907025 53.215763 
L 365.126737 53.031115 
L 365.566163 53.723546 
L 365.785875 52.733369 
L 366.005587 53.032269 
L 366.2253 53.60641 
L 366.445013 52.859161 
L 366.664725 53.345594 
L 366.884437 53.178833 
L 367.10415 54.028216 
L 367.323862 54.018983 
L 367.543575 53.727008 
L 367.763287 54.314998 
L 367.983 53.594292 
L 368.202712 53.75182 
L 368.422425 52.980913 
L 368.86185 53.38137 
L 369.081563 52.673359 
L 369.301275 52.908785 
L 369.520987 52.976297 
L 369.960413 54.420593 
L 370.399837 52.748372 
L 370.61955 53.792789 
L 370.839263 53.674499 
L 371.058975 54.856248 
L 371.278687 53.64507 
L 371.4984 54.25441 
L 372.157537 52.59546 
L 372.37725 53.859724 
L 372.596962 53.978591 
L 372.816675 53.743742 
L 373.036388 52.431585 
L 373.2561 54.438481 
L 373.475812 52.609886 
L 373.695525 54.084764 
L 374.13495 53.864917 
L 374.354662 54.615051 
L 374.794087 52.555068 
L 375.0138 55.049552 
L 375.233512 53.555631 
L 375.453225 53.325975 
L 375.672937 53.797982 
L 375.89265 53.214032 
L 376.112362 53.826834 
L 376.332075 54.07784 
L 376.551788 52.352532 
L 376.7715 53.092279 
L 376.991212 52.773184 
L 377.210925 54.654289 
L 377.430638 53.360597 
L 377.65035 53.981477 
L 377.870062 52.845889 
L 378.089775 53.212301 
L 378.5292 54.561965 
L 378.748912 53.459268 
L 379.40805 54.717185 
L 379.627763 53.708543 
L 379.847475 53.837797 
L 380.067187 53.598908 
L 380.2869 53.043232 
L 380.506612 54.49503 
L 380.726325 54.435019 
L 380.946037 53.675076 
L 381.16575 53.70912 
L 381.385462 54.551578 
L 381.605175 53.88569 
L 381.824887 55.031087 
L 382.0446 55.279785 
L 382.264312 54.564273 
L 382.484025 54.648519 
L 382.703737 55.042628 
L 382.92345 54.525612 
L 383.143163 53.545245 
L 383.362875 54.807778 
L 383.582587 53.579289 
L 383.8023 54.95492 
L 384.022013 55.286133 
L 384.241725 55.25555 
L 384.461437 55.604651 
L 384.900862 54.433288 
L 385.120575 55.647928 
L 385.340287 54.275183 
L 385.56 54.629477 
L 385.779712 54.701605 
L 385.999425 55.277477 
L 386.219137 54.293648 
L 386.43885 55.834884 
L 386.658563 54.800277 
L 386.878275 54.96646 
L 387.097987 55.293057 
L 387.3177 54.958959 
L 387.537413 54.08938 
L 387.757125 53.820486 
L 387.976837 53.729316 
L 388.19655 54.729302 
L 388.416263 53.495621 
L 388.635975 53.821063 
L 388.855687 54.849901 
L 389.0754 54.19613 
L 389.514825 54.915682 
L 389.95425 56.44307 
L 390.173962 56.028765 
L 390.393675 56.942774 
L 390.613388 56.451148 
L 390.8331 56.927772 
L 391.052812 56.519814 
L 391.71195 60.048328 
L 392.151375 60.459171 
L 392.371087 60.290679 
L 392.810512 63.43374 
L 393.030225 63.336223 
L 393.249937 63.861894 
L 393.46965 67.164791 
L 393.689362 68.570426 
L 393.909075 68.966843 
L 395.007638 80.482552 
L 395.447062 90.519343 
L 395.886487 107.560076 
L 396.765337 147.322365 
L 396.98505 151.02341 
L 397.204763 151.732575 
L 397.424475 152.9501 
L 397.644187 153.44288 
L 397.8639 156.67538 
L 398.083612 157.757881 
L 398.303325 157.95407 
L 398.74275 155.398421 
L 398.962462 156.246072 
L 399.182175 155.349374 
L 399.401887 153.633298 
L 399.6216 146.899981 
L 400.50045 106.475844 
L 400.939875 96.092838 
L 401.599013 85.011052 
L 402.697575 70.75447 
L 403.356712 63.339685 
L 403.576425 63.103104 
L 403.796137 61.307399 
L 404.01585 61.242195 
L 404.235563 60.95599 
L 404.8947 59.08181 
L 405.114413 56.932965 
L 405.334125 56.915077 
L 405.553837 55.960099 
L 405.77355 55.875276 
L 405.993263 55.508288 
L 406.212975 55.422311 
L 406.432687 55.162649 
L 406.6524 55.421734 
L 406.872112 55.035703 
L 407.091825 55.244587 
L 407.53125 54.032832 
L 407.750962 54.088803 
L 407.970675 54.31846 
L 408.190388 54.16901 
L 408.4101 53.418876 
L 408.629812 53.141904 
L 408.849525 53.336939 
L 409.069237 54.169587 
L 409.28895 54.095151 
L 409.508662 52.644507 
L 409.728375 52.152881 
L 409.948087 53.877612 
L 410.1678 53.495621 
L 410.387512 54.191514 
L 410.607225 53.038616 
L 410.826937 53.462153 
L 411.04665 53.433879 
L 411.266362 53.714891 
L 411.486075 52.653163 
L 411.705788 53.527357 
L 411.9255 53.037462 
L 412.145212 53.35021 
L 412.364925 52.930712 
L 412.584638 53.379061 
L 412.80435 54.759885 
L 413.243775 53.225572 
L 413.463487 53.957819 
L 413.6832 53.053042 
L 413.902912 53.050734 
L 414.122625 54.443674 
L 414.342337 53.218648 
L 414.56205 53.437918 
L 415.001475 54.139005 
L 415.221187 53.080162 
L 415.4409 55.381919 
L 415.660612 53.512354 
L 415.880325 54.44656 
L 416.100037 53.576981 
L 416.31975 54.639286 
L 416.539462 54.187475 
L 416.759175 53.308664 
L 416.978887 54.182282 
L 417.1986 54.230175 
L 417.418312 53.360597 
L 417.638025 53.79452 
L 417.857737 54.81124 
L 418.297163 53.466769 
L 418.516875 53.921466 
L 418.736587 55.18573 
L 418.9563 54.882791 
L 419.176013 55.508288 
L 419.395725 55.230161 
L 419.615437 53.290776 
L 419.83515 54.020137 
L 420.054862 53.027076 
L 420.274575 54.231906 
L 420.494287 54.054182 
L 420.714 55.069171 
L 420.933712 54.740266 
L 421.153425 53.857993 
L 421.59285 55.223237 
L 421.812563 55.825652 
L 422.032275 57.143002 
L 422.251987 57.737916 
L 422.4717 59.155092 
L 422.691413 59.283769 
L 423.130837 61.274509 
L 423.35055 63.211585 
L 423.570263 62.66745 
L 423.789975 63.36969 
L 424.009687 64.500084 
L 424.668825 71.51499 
L 425.327962 81.561014 
L 425.547675 83.46116 
L 425.767388 84.150707 
L 425.9871 87.14201 
L 426.206812 88.138534 
L 426.86595 100.178759 
L 427.305375 116.02678 
L 428.62365 195.692727 
L 428.843362 193.806429 
L 429.063075 190.462563 
L 429.282788 190.725687 
L 429.5025 192.827793 
L 429.722212 196.348229 
L 429.941925 197.18434 
L 430.601062 186.681889 
L 430.820775 187.007331 
L 431.040487 189.492582 
L 431.2602 188.083485 
L 431.479912 178.529087 
L 432.13905 135.652013 
L 432.578475 121.702985 
L 433.457325 100.381872 
L 434.116462 82.841434 
L 434.336175 78.541436 
L 434.7756 73.745773 
L 435.215025 67.530625 
L 435.65445 64.773018 
L 435.874163 63.709559 
L 436.093875 63.254862 
L 436.313587 61.553789 
L 436.5333 60.970993 
L 436.753013 59.509386 
L 437.41215 57.579234 
L 437.631862 56.316701 
L 437.851575 56.837179 
L 438.291 55.979141 
L 438.510712 54.261334 
L 438.730425 55.609267 
L 438.950137 54.745459 
L 439.16985 54.407322 
L 439.389563 53.548707 
L 439.609275 54.713723 
L 439.828987 54.128041 
L 440.0487 54.585623 
L 440.268413 54.468487 
L 440.488125 52.822808 
L 440.707837 54.688334 
L 440.92755 54.025331 
L 441.147263 54.05072 
L 441.366975 54.348465 
L 441.586687 54.22729 
L 441.8064 54.669869 
L 442.026112 53.937623 
L 442.245825 54.449445 
L 442.68525 53.857993 
L 442.904962 53.722392 
L 443.124675 54.152276 
L 443.344388 54.108999 
L 443.5641 54.218634 
L 443.783812 52.735677 
L 444.003525 54.343272 
L 444.223237 53.799713 
L 444.44295 54.504262 
L 444.662662 53.348479 
L 444.882375 54.735073 
L 445.102087 53.271735 
L 445.541512 53.820486 
L 445.761225 53.39868 
L 445.980937 54.21171 
L 446.20065 54.545231 
L 446.420362 53.702196 
L 446.640075 53.605256 
L 446.859788 53.285583 
L 447.299212 54.012636 
L 447.738638 55.073787 
L 447.95835 55.128604 
L 448.178062 55.599458 
L 448.397775 55.002236 
L 448.8372 55.425196 
L 449.056912 54.740266 
L 449.276625 56.29939 
L 449.496337 55.153994 
L 449.71605 55.896049 
L 449.935763 54.01379 
L 450.155475 54.681409 
L 450.5949 56.461535 
L 450.814612 55.498478 
L 451.034325 55.066863 
L 451.254037 55.190346 
L 451.693462 55.650236 
L 451.913175 54.637555 
L 452.132887 54.715454 
L 452.3526 55.687166 
L 452.792025 54.570043 
L 453.011737 54.310958 
L 453.23145 55.413078 
L 453.451163 53.96532 
L 453.670875 54.032832 
L 453.890587 54.521573 
L 454.1103 54.483489 
L 454.330013 53.845875 
L 454.549725 53.725854 
L 454.769437 53.952625 
L 454.98915 55.28671 
L 455.208862 54.593701 
L 455.428575 54.736804 
L 455.868 54.124002 
L 456.087712 54.121117 
L 456.307425 52.677975 
L 456.527137 53.554477 
L 456.74685 53.458114 
L 456.966563 53.225572 
L 457.186275 54.145352 
L 457.405987 53.306356 
L 457.6257 54.15747 
L 457.845413 54.391742 
L 458.065125 53.78875 
L 458.50455 55.714286 
L 458.724263 55.155725 
L 458.943975 55.930094 
L 459.163687 55.238239 
L 459.3834 56.76505 
L 459.603112 56.519814 
L 459.822825 57.776577 
L 460.26225 56.6583 
L 460.481962 56.711964 
L 460.701675 57.17647 
L 460.921388 56.541741 
L 461.360812 58.152798 
L 461.580525 57.236481 
L 461.800237 57.234749 
L 462.01995 58.898316 
L 462.239662 57.174162 
L 462.459375 57.253214 
L 462.679087 57.544035 
L 463.118512 58.758675 
L 463.338225 57.009132 
L 463.557937 57.904677 
L 463.77765 58.084132 
L 463.997362 56.002799 
L 464.217075 56.413641 
L 464.436788 54.560811 
L 464.6565 56.836024 
L 464.876212 57.411896 
L 465.095925 56.827946 
L 465.315638 56.803711 
L 465.53535 57.418821 
L 466.194487 56.741969 
L 466.4142 55.638118 
L 466.633912 55.991258 
L 466.853625 56.670995 
L 467.29305 57.299953 
L 467.512763 57.084723 
L 467.732475 58.036239 
L 468.1719 61.179877 
L 468.391612 60.067947 
L 468.611325 60.70383 
L 468.831037 62.91961 
L 469.05075 61.530131 
L 469.270462 64.639148 
L 469.490175 64.639148 
L 469.709887 65.367932 
L 469.9296 67.839911 
L 470.149312 68.820279 
L 470.369025 72.881965 
L 471.028163 77.470476 
L 471.247875 77.703595 
L 471.467587 78.439303 
L 472.346437 88.497444 
L 473.005575 107.201166 
L 473.884425 150.225383 
L 474.104137 151.311923 
L 474.543563 144.807108 
L 474.763275 144.583222 
L 475.2027 151.77816 
L 475.422413 149.95418 
L 475.861837 142.345515 
L 476.08155 141.928325 
L 476.301263 142.662879 
L 476.520975 145.426834 
L 476.740687 144.496668 
L 477.180112 124.891631 
L 477.619537 103.700349 
L 478.058962 94.864349 
L 478.498388 91.756487 
L 478.937812 83.408651 
L 479.377237 74.35165 
L 480.036375 70.174559 
L 480.256087 67.882034 
L 480.695512 65.676064 
L 480.915225 63.114068 
L 481.134937 62.931728 
L 481.35465 62.999817 
L 481.574362 61.36164 
L 481.794075 62.370281 
L 482.2335 60.379541 
L 482.453212 57.623665 
L 482.672925 57.707911 
L 483.11235 58.534212 
L 483.332062 57.089916 
L 483.771487 57.969304 
L 483.9912 56.717157 
L 484.210912 57.018365 
L 484.430625 55.88624 
L 484.650337 55.773142 
L 484.87005 56.489232 
L 485.089763 56.253228 
L 485.309475 56.663494 
L 485.529187 56.586172 
L 485.7489 56.214567 
L 485.968612 55.133798 
L 486.188325 55.259589 
L 486.408037 55.065709 
L 486.62775 55.732174 
L 486.847462 55.643312 
L 487.286887 54.868943 
L 487.5066 55.261897 
L 487.726312 54.59774 
L 487.946025 55.121103 
L 488.165737 53.584483 
L 488.38545 54.583892 
L 488.605163 53.937046 
L 488.824875 54.712569 
L 489.044587 54.141313 
L 489.2643 54.54927 
L 489.484013 54.390011 
L 489.703725 55.570029 
L 489.923437 54.6716 
L 490.14315 55.133221 
L 490.362862 55.188038 
L 490.582575 54.911643 
L 490.802287 55.361146 
L 491.022 54.012059 
L 491.241712 54.242869 
L 491.461425 54.170164 
L 491.681137 55.576954 
L 491.90085 55.94048 
L 492.120563 54.685448 
L 492.340275 56.169559 
L 492.559987 55.522713 
L 492.7797 57.207629 
L 492.999413 55.34095 
L 493.219125 55.239393 
L 493.438837 55.689474 
L 493.65855 57.248598 
L 493.878263 56.500772 
L 494.097975 57.692331 
L 494.317687 57.297068 
L 494.5374 57.228402 
L 494.757112 57.66925 
L 494.976825 57.581542 
L 495.196537 58.524403 
L 495.41625 60.390505 
L 495.635962 61.037928 
L 495.855675 63.058673 
L 496.075388 62.833633 
L 496.514812 66.528331 
L 496.734525 66.061517 
L 497.833087 80.48486 
L 498.272512 83.240737 
L 498.492225 82.90433 
L 499.590788 99.848123 
L 500.030212 114.123748 
L 500.469638 139.849877 
L 501.128775 187.96808 
L 501.348487 191.306752 
L 501.5682 188.728023 
L 501.787912 183.871772 
L 502.007625 182.261869 
L 502.44705 193.585428 
L 502.666763 194.200538 
L 502.886475 189.146367 
L 503.106187 181.463265 
L 503.3259 177.697593 
L 503.545612 179.352504 
L 503.765325 183.70905 
L 503.985037 181.67965 
L 504.20475 170.592094 
L 504.863887 123.7295 
L 505.303312 108.61488 
L 505.96245 97.656001 
L 506.621587 82.206129 
L 507.280725 73.658065 
L 507.500437 72.909085 
L 507.72015 70.86122 
L 507.939862 70.74466 
L 508.159575 66.010739 
L 508.379287 66.052862 
L 508.599 65.402553 
L 508.818712 65.18386 
L 509.038425 61.803065 
L 509.258137 61.751709 
L 509.47785 61.21219 
L 509.697563 58.99641 
L 509.917275 59.076617 
L 510.3567 58.554408 
L 510.576413 58.681354 
L 510.796125 57.080106 
L 511.015837 57.672712 
L 511.23555 56.919116 
L 511.455263 56.700423 
L 511.674975 57.312071 
L 511.894687 56.109549 
L 512.1144 55.987796 
L 512.334112 56.47596 
L 512.553825 56.063964 
L 512.99325 54.849324 
L 513.212962 55.684858 
L 513.432675 54.665829 
L 513.652388 56.0957 
L 514.091812 55.208811 
L 514.311525 53.522164 
L 514.531237 54.440212 
L 514.970662 53.332322 
L 515.6298 54.501377 
L 515.849512 53.222687 
L 516.069225 53.722392 
L 516.288937 52.730484 
L 516.50865 53.259617 
L 516.728362 53.021882 
L 516.948075 54.024754 
L 517.167788 53.460422 
L 517.3875 54.226713 
L 517.607212 53.856262 
L 518.046638 52.465629 
L 518.26635 53.644493 
L 518.486062 53.611603 
L 518.705775 52.702787 
L 518.925487 53.031115 
L 519.1452 53.857416 
L 519.364912 52.655471 
L 519.584625 52.605269 
L 519.804337 53.726431 
L 520.02405 53.338093 
L 520.243763 53.369252 
L 520.463475 54.445983 
L 520.683187 52.92148 
L 520.9029 54.200747 
L 521.122612 54.163817 
L 521.342325 54.253256 
L 521.562037 53.557939 
L 522.001462 54.968768 
L 522.440887 53.766246 
L 522.6606 53.84703 
L 523.100025 53.693541 
L 523.319737 54.596586 
L 523.53945 54.583315 
L 523.759163 54.95492 
L 523.978875 54.679101 
L 524.198587 54.024177 
L 524.4183 54.538307 
L 524.638013 54.576967 
L 524.857725 53.921466 
L 525.077437 55.268822 
L 525.29715 54.455792 
L 525.516862 54.758154 
L 525.736575 54.578699 
L 526.176 54.107268 
L 526.395712 54.276337 
L 526.615425 54.715454 
L 526.835137 53.394641 
L 527.05485 55.70967 
L 527.274563 55.499055 
L 527.713987 55.336334 
L 527.9337 54.742574 
L 528.153413 54.75296 
L 528.373125 54.231906 
L 528.81255 55.029356 
L 529.032263 55.126296 
L 529.471687 54.397512 
L 529.6914 54.978001 
L 529.911112 54.536576 
L 530.130825 54.707375 
L 530.350537 55.043782 
L 530.57025 54.72007 
L 530.789962 53.493313 
L 531.009675 54.46387 
L 531.229388 53.815293 
L 531.4491 53.894923 
L 531.668812 54.249217 
L 531.888525 54.040333 
L 532.108237 54.002827 
L 532.32795 55.087059 
L 532.767375 53.977437 
L 532.987087 54.10496 
L 533.2068 53.939931 
L 533.426512 53.523895 
L 533.646225 54.092843 
L 533.865937 52.391193 
L 534.08565 53.496775 
L 534.305362 53.608718 
L 534.525075 54.697566 
L 534.744788 52.473708 
L 534.9645 54.57639 
L 535.184212 54.200169 
L 535.403925 54.315575 
L 535.623638 53.551592 
L 536.063062 54.396935 
L 536.282775 53.982631 
L 536.502487 54.884522 
L 536.7222 54.872982 
L 536.941912 52.372151 
L 537.161625 54.010328 
L 537.381337 54.241138 
L 537.60105 54.926645 
L 537.820763 53.031692 
L 538.040475 56.00453 
L 538.260187 54.991849 
L 538.4799 54.774887 
L 538.919325 53.267695 
L 539.139037 55.790453 
L 539.35875 54.223828 
L 539.35875 54.223828 
" clip-path="url(#pd5b7832c7e)" style="fill: none; stroke: #1f77b4; stroke-width: 1.5; stroke-linecap: square"/>
   </g>
   <g id="patch_3">
    <path d="M 77.9625 303.579 
L 77.9625 40.932 
" style="fill: none; stroke: #000000; stroke-width: 0.8; stroke-linejoin: miter; stroke-linecap: square"/>
   </g>
   <g id="patch_4">
    <path d="M 561.33 303.579 
L 561.33 40.932 
" style="fill: none; stroke: #000000; stroke-width: 0.8; stroke-linejoin: miter; stroke-linecap: square"/>
   </g>
   <g id="patch_5">
    <path d="M 77.9625 303.579 
L 561.33 303.579 
" style="fill: none; stroke: #000000; stroke-width: 0.8; stroke-linejoin: miter; stroke-linecap: square"/>
   </g>
   <g id="patch_6">
    <path d="M 77.9625 40.932 
L 561.33 40.932 
" style="fill: none; stroke: #000000; stroke-width: 0.8; stroke-linejoin: miter; stroke-linecap: square"/>
   </g>
  </g>
 </g>
 <defs>
  <clipPath id="pd5b7832c7e">
   <rect x="77.9625" y="40.932" width="483.3675" height="262.647"/>
  </clipPath>
 </defs>
</svg>
