<?xml version="1.0" encoding="utf-8" standalone="no"?>
<!DOCTYPE svg PUBLIC "-//W3C//DTD SVG 1.1//EN"
  "http://www.w3.org/Graphics/SVG/1.1/DTD/svg11.dtd">
<svg xmlns:xlink="http://www.w3.org/1999/xlink" width="288pt" height="216pt" viewBox="0 0 288 216" xmlns="http://www.w3.org/2000/svg" version="1.1">
 <metadata>
  <rdf:RDF xmlns:dc="http://purl.org/dc/elements/1.1/" xmlns:cc="http://creativecommons.org/ns#" xmlns:rdf="http://www.w3.org/1999/02/22-rdf-syntax-ns#">
   <cc:Work>
    <dc:type rdf:resource="http://purl.org/dc/dcmitype/StillImage"/>
    <dc:date>2022-11-21T17:05:26.537258</dc:date>
    <dc:format>image/svg+xml</dc:format>
    <dc:creator>
     <cc:Agent>
      <dc:title>Matplotlib v3.5.1, https://matplotlib.org/</dc:title>
     </cc:Agent>
    </dc:creator>
   </cc:Work>
  </rdf:RDF>
 </metadata>
 <defs>
  <style type="text/css">*{stroke-linejoin: round; stroke-linecap: butt}</style>
 </defs>
 <g id="figure_1">
  <g id="patch_1">
   <path d="M 0 216 
L 288 216 
L 288 0 
L 0 0 
z
" style="fill: #ffffff"/>
  </g>
  <g id="axes_1">
   <g id="patch_2">
    <path d="M 36 192.24 
L 259.2 192.24 
L 259.2 25.92 
L 36 25.92 
z
" style="fill: #ffffff"/>
   </g>
   <g id="matplotlib.axis_1">
    <g id="xtick_1">
     <g id="line2d_1">
      <defs>
       <path id="m5aea20591c" d="M 0 0 
L 0 3.5 
" style="stroke: #000000; stroke-width: 0.8"/>
      </defs>
      <g>
       <use xlink:href="#m5aea20591c" x="36.847313" y="192.24" style="stroke: #000000; stroke-width: 0.8"/>
      </g>
     </g>
     <g id="text_1">
      <!-- 2580 -->
      <g transform="translate(16.487313 211.3975)scale(0.16 -0.16)">
       <defs>
        <path id="DejaVuSans-32" d="M 1228 531 
L 3431 531 
L 3431 0 
L 469 0 
L 469 531 
Q 828 903 1448 1529 
Q 2069 2156 2228 2338 
Q 2531 2678 2651 2914 
Q 2772 3150 2772 3378 
Q 2772 3750 2511 3984 
Q 2250 4219 1831 4219 
Q 1534 4219 1204 4116 
Q 875 4013 500 3803 
L 500 4441 
Q 881 4594 1212 4672 
Q 1544 4750 1819 4750 
Q 2544 4750 2975 4387 
Q 3406 4025 3406 3419 
Q 3406 3131 3298 2873 
Q 3191 2616 2906 2266 
Q 2828 2175 2409 1742 
Q 1991 1309 1228 531 
z
" transform="scale(0.015625)"/>
        <path id="DejaVuSans-35" d="M 691 4666 
L 3169 4666 
L 3169 4134 
L 1269 4134 
L 1269 2991 
Q 1406 3038 1543 3061 
Q 1681 3084 1819 3084 
Q 2600 3084 3056 2656 
Q 3513 2228 3513 1497 
Q 3513 744 3044 326 
Q 2575 -91 1722 -91 
Q 1428 -91 1123 -41 
Q 819 9 494 109 
L 494 744 
Q 775 591 1075 516 
Q 1375 441 1709 441 
Q 2250 441 2565 725 
Q 2881 1009 2881 1497 
Q 2881 1984 2565 2268 
Q 2250 2553 1709 2553 
Q 1456 2553 1204 2497 
Q 953 2441 691 2322 
L 691 4666 
z
" transform="scale(0.015625)"/>
        <path id="DejaVuSans-38" d="M 2034 2216 
Q 1584 2216 1326 1975 
Q 1069 1734 1069 1313 
Q 1069 891 1326 650 
Q 1584 409 2034 409 
Q 2484 409 2743 651 
Q 3003 894 3003 1313 
Q 3003 1734 2745 1975 
Q 2488 2216 2034 2216 
z
M 1403 2484 
Q 997 2584 770 2862 
Q 544 3141 544 3541 
Q 544 4100 942 4425 
Q 1341 4750 2034 4750 
Q 2731 4750 3128 4425 
Q 3525 4100 3525 3541 
Q 3525 3141 3298 2862 
Q 3072 2584 2669 2484 
Q 3125 2378 3379 2068 
Q 3634 1759 3634 1313 
Q 3634 634 3220 271 
Q 2806 -91 2034 -91 
Q 1263 -91 848 271 
Q 434 634 434 1313 
Q 434 1759 690 2068 
Q 947 2378 1403 2484 
z
M 1172 3481 
Q 1172 3119 1398 2916 
Q 1625 2713 2034 2713 
Q 2441 2713 2670 2916 
Q 2900 3119 2900 3481 
Q 2900 3844 2670 4047 
Q 2441 4250 2034 4250 
Q 1625 4250 1398 4047 
Q 1172 3844 1172 3481 
z
" transform="scale(0.015625)"/>
        <path id="DejaVuSans-30" d="M 2034 4250 
Q 1547 4250 1301 3770 
Q 1056 3291 1056 2328 
Q 1056 1369 1301 889 
Q 1547 409 2034 409 
Q 2525 409 2770 889 
Q 3016 1369 3016 2328 
Q 3016 3291 2770 3770 
Q 2525 4250 2034 4250 
z
M 2034 4750 
Q 2819 4750 3233 4129 
Q 3647 3509 3647 2328 
Q 3647 1150 3233 529 
Q 2819 -91 2034 -91 
Q 1250 -91 836 529 
Q 422 1150 422 2328 
Q 422 3509 836 4129 
Q 1250 4750 2034 4750 
z
" transform="scale(0.015625)"/>
       </defs>
       <use xlink:href="#DejaVuSans-32"/>
       <use xlink:href="#DejaVuSans-35" x="63.623047"/>
       <use xlink:href="#DejaVuSans-38" x="127.246094"/>
       <use xlink:href="#DejaVuSans-30" x="190.869141"/>
      </g>
     </g>
    </g>
    <g id="xtick_2">
     <g id="line2d_2">
      <g>
       <use xlink:href="#m5aea20591c" x="89.593385" y="192.24" style="stroke: #000000; stroke-width: 0.8"/>
      </g>
     </g>
     <g id="text_2">
      <!-- 2600 -->
      <g transform="translate(69.233385 211.3975)scale(0.16 -0.16)">
       <defs>
        <path id="DejaVuSans-36" d="M 2113 2584 
Q 1688 2584 1439 2293 
Q 1191 2003 1191 1497 
Q 1191 994 1439 701 
Q 1688 409 2113 409 
Q 2538 409 2786 701 
Q 3034 994 3034 1497 
Q 3034 2003 2786 2293 
Q 2538 2584 2113 2584 
z
M 3366 4563 
L 3366 3988 
Q 3128 4100 2886 4159 
Q 2644 4219 2406 4219 
Q 1781 4219 1451 3797 
Q 1122 3375 1075 2522 
Q 1259 2794 1537 2939 
Q 1816 3084 2150 3084 
Q 2853 3084 3261 2657 
Q 3669 2231 3669 1497 
Q 3669 778 3244 343 
Q 2819 -91 2113 -91 
Q 1303 -91 875 529 
Q 447 1150 447 2328 
Q 447 3434 972 4092 
Q 1497 4750 2381 4750 
Q 2619 4750 2861 4703 
Q 3103 4656 3366 4563 
z
" transform="scale(0.015625)"/>
       </defs>
       <use xlink:href="#DejaVuSans-32"/>
       <use xlink:href="#DejaVuSans-36" x="63.623047"/>
       <use xlink:href="#DejaVuSans-30" x="127.246094"/>
       <use xlink:href="#DejaVuSans-30" x="190.869141"/>
      </g>
     </g>
    </g>
    <g id="xtick_3">
     <g id="line2d_3">
      <g>
       <use xlink:href="#m5aea20591c" x="142.339457" y="192.24" style="stroke: #000000; stroke-width: 0.8"/>
      </g>
     </g>
     <g id="text_3">
      <!-- 2620 -->
      <g transform="translate(121.979457 211.3975)scale(0.16 -0.16)">
       <use xlink:href="#DejaVuSans-32"/>
       <use xlink:href="#DejaVuSans-36" x="63.623047"/>
       <use xlink:href="#DejaVuSans-32" x="127.246094"/>
       <use xlink:href="#DejaVuSans-30" x="190.869141"/>
      </g>
     </g>
    </g>
    <g id="xtick_4">
     <g id="line2d_4">
      <g>
       <use xlink:href="#m5aea20591c" x="195.08553" y="192.24" style="stroke: #000000; stroke-width: 0.8"/>
      </g>
     </g>
     <g id="text_4">
      <!-- 2640 -->
      <g transform="translate(174.72553 211.3975)scale(0.16 -0.16)">
       <defs>
        <path id="DejaVuSans-34" d="M 2419 4116 
L 825 1625 
L 2419 1625 
L 2419 4116 
z
M 2253 4666 
L 3047 4666 
L 3047 1625 
L 3713 1625 
L 3713 1100 
L 3047 1100 
L 3047 0 
L 2419 0 
L 2419 1100 
L 313 1100 
L 313 1709 
L 2253 4666 
z
" transform="scale(0.015625)"/>
       </defs>
       <use xlink:href="#DejaVuSans-32"/>
       <use xlink:href="#DejaVuSans-36" x="63.623047"/>
       <use xlink:href="#DejaVuSans-34" x="127.246094"/>
       <use xlink:href="#DejaVuSans-30" x="190.869141"/>
      </g>
     </g>
    </g>
    <g id="xtick_5">
     <g id="line2d_5">
      <g>
       <use xlink:href="#m5aea20591c" x="247.831602" y="192.24" style="stroke: #000000; stroke-width: 0.8"/>
      </g>
     </g>
     <g id="text_5">
      <!-- 2660 -->
      <g transform="translate(227.471602 211.3975)scale(0.16 -0.16)">
       <use xlink:href="#DejaVuSans-32"/>
       <use xlink:href="#DejaVuSans-36" x="63.623047"/>
       <use xlink:href="#DejaVuSans-36" x="127.246094"/>
       <use xlink:href="#DejaVuSans-30" x="190.869141"/>
      </g>
     </g>
    </g>
   </g>
   <g id="matplotlib.axis_2">
    <g id="ytick_1">
     <g id="line2d_6">
      <defs>
       <path id="m7f24b661f6" d="M 0 0 
L -3.5 0 
" style="stroke: #000000; stroke-width: 0.8"/>
      </defs>
      <g>
       <use xlink:href="#m7f24b661f6" x="36" y="173.139384" style="stroke: #000000; stroke-width: 0.8"/>
      </g>
     </g>
     <g id="text_6">
      <!-- 0.996 -->
      <g transform="translate(-16.805 179.218134)scale(0.16 -0.16)">
       <defs>
        <path id="DejaVuSans-2e" d="M 684 794 
L 1344 794 
L 1344 0 
L 684 0 
L 684 794 
z
" transform="scale(0.015625)"/>
        <path id="DejaVuSans-39" d="M 703 97 
L 703 672 
Q 941 559 1184 500 
Q 1428 441 1663 441 
Q 2288 441 2617 861 
Q 2947 1281 2994 2138 
Q 2813 1869 2534 1725 
Q 2256 1581 1919 1581 
Q 1219 1581 811 2004 
Q 403 2428 403 3163 
Q 403 3881 828 4315 
Q 1253 4750 1959 4750 
Q 2769 4750 3195 4129 
Q 3622 3509 3622 2328 
Q 3622 1225 3098 567 
Q 2575 -91 1691 -91 
Q 1453 -91 1209 -44 
Q 966 3 703 97 
z
M 1959 2075 
Q 2384 2075 2632 2365 
Q 2881 2656 2881 3163 
Q 2881 3666 2632 3958 
Q 2384 4250 1959 4250 
Q 1534 4250 1286 3958 
Q 1038 3666 1038 3163 
Q 1038 2656 1286 2365 
Q 1534 2075 1959 2075 
z
" transform="scale(0.015625)"/>
       </defs>
       <use xlink:href="#DejaVuSans-30"/>
       <use xlink:href="#DejaVuSans-2e" x="63.623047"/>
       <use xlink:href="#DejaVuSans-39" x="95.410156"/>
       <use xlink:href="#DejaVuSans-39" x="159.033203"/>
       <use xlink:href="#DejaVuSans-36" x="222.65625"/>
      </g>
     </g>
    </g>
    <g id="ytick_2">
     <g id="line2d_7">
      <g>
       <use xlink:href="#m7f24b661f6" x="36" y="137.490933" style="stroke: #000000; stroke-width: 0.8"/>
      </g>
     </g>
     <g id="text_7">
      <!-- 0.997 -->
      <g transform="translate(-16.805 143.569683)scale(0.16 -0.16)">
       <defs>
        <path id="DejaVuSans-37" d="M 525 4666 
L 3525 4666 
L 3525 4397 
L 1831 0 
L 1172 0 
L 2766 4134 
L 525 4134 
L 525 4666 
z
" transform="scale(0.015625)"/>
       </defs>
       <use xlink:href="#DejaVuSans-30"/>
       <use xlink:href="#DejaVuSans-2e" x="63.623047"/>
       <use xlink:href="#DejaVuSans-39" x="95.410156"/>
       <use xlink:href="#DejaVuSans-39" x="159.033203"/>
       <use xlink:href="#DejaVuSans-37" x="222.65625"/>
      </g>
     </g>
    </g>
    <g id="ytick_3">
     <g id="line2d_8">
      <g>
       <use xlink:href="#m7f24b661f6" x="36" y="101.842481" style="stroke: #000000; stroke-width: 0.8"/>
      </g>
     </g>
     <g id="text_8">
      <!-- 0.998 -->
      <g transform="translate(-16.805 107.921231)scale(0.16 -0.16)">
       <use xlink:href="#DejaVuSans-30"/>
       <use xlink:href="#DejaVuSans-2e" x="63.623047"/>
       <use xlink:href="#DejaVuSans-39" x="95.410156"/>
       <use xlink:href="#DejaVuSans-39" x="159.033203"/>
       <use xlink:href="#DejaVuSans-38" x="222.65625"/>
      </g>
     </g>
    </g>
    <g id="ytick_4">
     <g id="line2d_9">
      <g>
       <use xlink:href="#m7f24b661f6" x="36" y="66.19403" style="stroke: #000000; stroke-width: 0.8"/>
      </g>
     </g>
     <g id="text_9">
      <!-- 0.999 -->
      <g transform="translate(-16.805 72.27278)scale(0.16 -0.16)">
       <use xlink:href="#DejaVuSans-30"/>
       <use xlink:href="#DejaVuSans-2e" x="63.623047"/>
       <use xlink:href="#DejaVuSans-39" x="95.410156"/>
       <use xlink:href="#DejaVuSans-39" x="159.033203"/>
       <use xlink:href="#DejaVuSans-39" x="222.65625"/>
      </g>
     </g>
    </g>
    <g id="ytick_5">
     <g id="line2d_10">
      <g>
       <use xlink:href="#m7f24b661f6" x="36" y="30.545579" style="stroke: #000000; stroke-width: 0.8"/>
      </g>
     </g>
     <g id="text_10">
      <!-- 1.000 -->
      <g transform="translate(-16.805 36.624329)scale(0.16 -0.16)">
       <defs>
        <path id="DejaVuSans-31" d="M 794 531 
L 1825 531 
L 1825 4091 
L 703 3866 
L 703 4441 
L 1819 4666 
L 2450 4666 
L 2450 531 
L 3481 531 
L 3481 0 
L 794 0 
L 794 531 
z
" transform="scale(0.015625)"/>
       </defs>
       <use xlink:href="#DejaVuSans-31"/>
       <use xlink:href="#DejaVuSans-2e" x="63.623047"/>
       <use xlink:href="#DejaVuSans-30" x="95.410156"/>
       <use xlink:href="#DejaVuSans-30" x="159.033203"/>
       <use xlink:href="#DejaVuSans-30" x="222.65625"/>
      </g>
     </g>
    </g>
   </g>
   <g id="line2d_11">
    <path d="M 35.396796 33.286808 
L 36.319852 33.072944 
L 37.242908 33.522123 
L 38.165964 33.394065 
L 39.089021 33.708035 
L 40.012077 34.198168 
L 40.935133 34.491337 
L 41.85819 35.521004 
L 42.781246 34.952867 
L 44.627358 33.020941 
L 45.550415 34.08636 
L 46.473471 32.747273 
L 47.396527 32.623765 
L 48.319583 32.084879 
L 49.24264 33.024191 
L 50.165696 33.739238 
L 51.088752 33.872496 
L 52.011808 33.133398 
L 52.934865 33.686584 
L 53.857921 31.839163 
L 54.780977 33.31671 
L 55.704034 32.847379 
L 57.550146 32.881832 
L 58.473202 32.733622 
L 59.396259 34.035007 
L 60.319315 33.522773 
L 61.242371 34.013555 
L 63.088484 33.532524 
L 64.01154 33.558526 
L 64.934596 31.753358 
L 65.857653 33.850395 
L 66.780709 32.541859 
L 67.703765 33.572177 
L 68.626821 34.062959 
L 69.549878 34.146164 
L 70.472934 33.455169 
L 71.39599 33.227004 
L 72.319046 32.566561 
L 74.165159 34.495237 
L 75.088215 33.9297 
L 76.011271 33.821143 
L 76.934328 33.1698 
L 77.857384 33.31801 
L 78.78044 32.920834 
L 79.703497 32.186936 
L 80.626553 33.488321 
L 81.549609 33.178251 
L 82.472665 33.280308 
L 83.395722 35.320141 
L 84.318778 33.810092 
L 86.16489 33.77759 
L 88.011003 33.297859 
L 88.934059 34.118212 
L 89.857115 34.362628 
L 90.780172 34.439983 
L 91.703228 35.844075 
L 92.626284 34.902164 
L 93.549341 33.223104 
L 94.472397 33.805542 
L 95.395453 32.925384 
L 96.318509 34.608994 
L 97.241566 34.941166 
L 98.164622 33.952451 
L 99.087678 33.337511 
L 100.010734 34.707801 
L 100.933791 34.301524 
L 101.856847 35.552856 
L 103.702959 36.133344 
L 104.626016 36.109292 
L 105.549072 37.366475 
L 106.472128 36.07224 
L 107.395185 35.944832 
L 108.318241 36.495418 
L 109.241297 35.142679 
L 111.08741 34.969118 
L 112.010466 34.54789 
L 112.933522 34.6896 
L 113.856578 34.653847 
L 114.779635 34.400331 
L 115.702691 34.587543 
L 116.625747 35.449499 
L 117.548803 34.813758 
L 118.47186 36.184047 
L 120.317972 35.623061 
L 121.241029 36.2289 
L 122.164085 36.160646 
L 123.087141 36.277003 
L 124.010197 37.44643 
L 124.933254 38.800468 
L 125.85631 38.043169 
L 126.779366 39.13784 
L 127.702422 40.601086 
L 128.625479 41.515696 
L 129.548535 43.605582 
L 130.471591 43.862349 
L 131.394647 47.080709 
L 132.317704 46.950701 
L 133.24076 50.390075 
L 134.163816 52.011931 
L 135.086873 54.318282 
L 136.932985 61.17363 
L 138.779098 65.173991 
L 139.702154 65.447659 
L 140.62521 66.461076 
L 141.548266 70.112364 
L 142.471323 72.254904 
L 144.317435 80.394736 
L 145.240491 87.144127 
L 146.163548 96.671149 
L 147.086604 108.112547 
L 148.00966 124.734783 
L 149.855773 165.222679 
L 150.778829 180.677438 
L 151.701885 185.415598 
L 152.624942 180.805497 
L 153.547998 172.414749 
L 154.471054 171.743255 
L 156.317167 187.294221 
L 157.240223 191.065117 
L 158.163279 182.69517 
L 159.086335 171.570993 
L 160.009392 168.14852 
L 160.932448 169.359549 
L 161.855504 177.229613 
L 162.778561 176.303303 
L 163.701617 163.695729 
L 165.547729 123.970983 
L 166.470786 109.23387 
L 168.316898 90.24808 
L 169.239954 91.229644 
L 170.163011 88.534568 
L 171.086067 83.471387 
L 172.009123 76.31767 
L 172.932179 70.330128 
L 174.778292 61.061173 
L 175.701348 58.235438 
L 176.624405 56.243058 
L 177.547461 54.877319 
L 178.470517 54.193474 
L 179.393573 51.813018 
L 180.31663 50.282818 
L 181.239686 48.31449 
L 182.162742 46.808991 
L 183.085798 45.626564 
L 184.008855 43.227257 
L 184.931911 43.677087 
L 185.854967 42.49856 
L 186.778023 42.81123 
L 187.70108 41.548848 
L 188.624136 39.372506 
L 189.547192 39.731329 
L 190.470249 37.657044 
L 191.393305 37.264418 
L 192.316361 37.584889 
L 193.239417 38.5229 
L 194.162474 36.919895 
L 195.08553 36.200948 
L 196.008586 35.140729 
L 196.931642 35.028922 
L 197.854699 34.561541 
L 198.777755 34.345077 
L 199.700811 34.888513 
L 201.546924 33.817893 
L 202.46998 34.223519 
L 203.393036 34.436733 
L 204.316093 34.405531 
L 205.239149 34.685699 
L 206.162205 35.791422 
L 207.085261 35.795322 
L 208.008318 34.839109 
L 208.931374 33.611179 
L 209.85443 35.556756 
L 210.777486 34.463385 
L 211.700543 34.833259 
L 212.623599 34.017456 
L 213.546655 35.943532 
L 214.469711 36.151545 
L 216.315824 35.416997 
L 217.23888 34.370429 
L 218.161937 35.829774 
L 219.084993 35.797272 
L 220.008049 34.308025 
L 220.931105 36.258802 
L 221.854162 36.119043 
L 222.777218 35.499553 
L 223.700274 33.973253 
L 224.62333 34.603794 
L 225.546387 34.300224 
L 226.469443 34.287873 
L 227.392499 35.095226 
L 228.315555 34.766305 
L 229.238612 34.594693 
L 230.161668 36.724883 
L 231.084724 34.944416 
L 232.007781 34.436733 
L 232.930837 34.983419 
L 233.853893 35.129028 
L 234.776949 33.892648 
L 235.700006 34.909314 
L 236.623062 35.146579 
L 237.546118 35.045173 
L 238.469174 34.739653 
L 239.392231 34.862511 
L 240.315287 35.322741 
L 241.238343 34.419832 
L 242.161399 35.444949 
L 243.084456 34.612895 
L 244.007512 33.61833 
L 244.930568 34.445834 
L 246.776681 33.589078 
L 247.699737 32.075779 
L 248.622793 33.077494 
L 249.54585 35.067924 
L 250.468906 34.528389 
L 251.391962 32.771974 
L 252.315018 33.176951 
L 253.238075 31.714355 
L 254.161131 33.387565 
L 255.084187 34.408781 
L 256.007243 33.77499 
L 256.9303 33.769139 
L 257.853356 33.308909 
L 258.776412 34.181916 
L 259.699469 34.798807 
L 259.699469 34.798807 
" clip-path="url(#pae5d92336b)" style="fill: none; stroke: #1f77b4; stroke-width: 1.5; stroke-linecap: square"/>
   </g>
   <g id="patch_3">
    <path d="M 36 192.24 
L 36 25.92 
" style="fill: none; stroke: #000000; stroke-width: 0.8; stroke-linejoin: miter; stroke-linecap: square"/>
   </g>
   <g id="patch_4">
    <path d="M 259.2 192.24 
L 259.2 25.92 
" style="fill: none; stroke: #000000; stroke-width: 0.8; stroke-linejoin: miter; stroke-linecap: square"/>
   </g>
   <g id="patch_5">
    <path d="M 36 192.24 
L 259.2 192.24 
" style="fill: none; stroke: #000000; stroke-width: 0.8; stroke-linejoin: miter; stroke-linecap: square"/>
   </g>
   <g id="patch_6">
    <path d="M 36 25.92 
L 259.2 25.92 
" style="fill: none; stroke: #000000; stroke-width: 0.8; stroke-linejoin: miter; stroke-linecap: square"/>
   </g>
  </g>
 </g>
 <defs>
  <clipPath id="pae5d92336b">
   <rect x="36" y="25.92" width="223.2" height="166.32"/>
  </clipPath>
 </defs>
</svg>
