<?xml version="1.0" encoding="utf-8" standalone="no"?>
<!DOCTYPE svg PUBLIC "-//W3C//DTD SVG 1.1//EN"
  "http://www.w3.org/Graphics/SVG/1.1/DTD/svg11.dtd">
<svg xmlns:xlink="http://www.w3.org/1999/xlink" width="648pt" height="360pt" viewBox="0 0 648 360" xmlns="http://www.w3.org/2000/svg" version="1.1">
 <metadata>
  <rdf:RDF xmlns:dc="http://purl.org/dc/elements/1.1/" xmlns:cc="http://creativecommons.org/ns#" xmlns:rdf="http://www.w3.org/1999/02/22-rdf-syntax-ns#">
   <cc:Work>
    <dc:type rdf:resource="http://purl.org/dc/dcmitype/StillImage"/>
    <dc:date>2022-11-20T22:24:44.335293</dc:date>
    <dc:format>image/svg+xml</dc:format>
    <dc:creator>
     <cc:Agent>
      <dc:title>Matplotlib v3.5.1, https://matplotlib.org/</dc:title>
     </cc:Agent>
    </dc:creator>
   </cc:Work>
  </rdf:RDF>
 </metadata>
 <defs>
  <style type="text/css">*{stroke-linejoin: round; stroke-linecap: butt}</style>
 </defs>
 <g id="figure_1">
  <g id="patch_1">
   <path d="M 0 360 
L 648 360 
L 648 0 
L 0 0 
z
" style="fill: #ffffff"/>
  </g>
  <g id="axes_1">
   <g id="patch_2">
    <path d="M 81 320.4 
L 583.2 320.4 
L 583.2 43.2 
L 81 43.2 
z
" style="fill: #ffffff"/>
   </g>
   <g id="matplotlib.axis_1">
    <g id="xtick_1">
     <g id="line2d_1">
      <defs>
       <path id="ma67eadede7" d="M 0 0 
L 0 3.5 
" style="stroke: #000000; stroke-width: 0.8"/>
      </defs>
      <g>
       <use xlink:href="#ma67eadede7" x="169.048052" y="320.4" style="stroke: #000000; stroke-width: 0.8"/>
      </g>
     </g>
     <g id="text_1">
      <!-- 2600 -->
      <g transform="translate(148.688052 339.5575)scale(0.16 -0.16)">
       <defs>
        <path id="DejaVuSans-32" d="M 1228 531 
L 3431 531 
L 3431 0 
L 469 0 
L 469 531 
Q 828 903 1448 1529 
Q 2069 2156 2228 2338 
Q 2531 2678 2651 2914 
Q 2772 3150 2772 3378 
Q 2772 3750 2511 3984 
Q 2250 4219 1831 4219 
Q 1534 4219 1204 4116 
Q 875 4013 500 3803 
L 500 4441 
Q 881 4594 1212 4672 
Q 1544 4750 1819 4750 
Q 2544 4750 2975 4387 
Q 3406 4025 3406 3419 
Q 3406 3131 3298 2873 
Q 3191 2616 2906 2266 
Q 2828 2175 2409 1742 
Q 1991 1309 1228 531 
z
" transform="scale(0.015625)"/>
        <path id="DejaVuSans-36" d="M 2113 2584 
Q 1688 2584 1439 2293 
Q 1191 2003 1191 1497 
Q 1191 994 1439 701 
Q 1688 409 2113 409 
Q 2538 409 2786 701 
Q 3034 994 3034 1497 
Q 3034 2003 2786 2293 
Q 2538 2584 2113 2584 
z
M 3366 4563 
L 3366 3988 
Q 3128 4100 2886 4159 
Q 2644 4219 2406 4219 
Q 1781 4219 1451 3797 
Q 1122 3375 1075 2522 
Q 1259 2794 1537 2939 
Q 1816 3084 2150 3084 
Q 2853 3084 3261 2657 
Q 3669 2231 3669 1497 
Q 3669 778 3244 343 
Q 2819 -91 2113 -91 
Q 1303 -91 875 529 
Q 447 1150 447 2328 
Q 447 3434 972 4092 
Q 1497 4750 2381 4750 
Q 2619 4750 2861 4703 
Q 3103 4656 3366 4563 
z
" transform="scale(0.015625)"/>
        <path id="DejaVuSans-30" d="M 2034 4250 
Q 1547 4250 1301 3770 
Q 1056 3291 1056 2328 
Q 1056 1369 1301 889 
Q 1547 409 2034 409 
Q 2525 409 2770 889 
Q 3016 1369 3016 2328 
Q 3016 3291 2770 3770 
Q 2525 4250 2034 4250 
z
M 2034 4750 
Q 2819 4750 3233 4129 
Q 3647 3509 3647 2328 
Q 3647 1150 3233 529 
Q 2819 -91 2034 -91 
Q 1250 -91 836 529 
Q 422 1150 422 2328 
Q 422 3509 836 4129 
Q 1250 4750 2034 4750 
z
" transform="scale(0.015625)"/>
       </defs>
       <use xlink:href="#DejaVuSans-32"/>
       <use xlink:href="#DejaVuSans-36" x="63.623047"/>
       <use xlink:href="#DejaVuSans-30" x="127.246094"/>
       <use xlink:href="#DejaVuSans-30" x="190.869141"/>
      </g>
     </g>
    </g>
    <g id="xtick_2">
     <g id="line2d_2">
      <g>
       <use xlink:href="#ma67eadede7" x="299.48961" y="320.4" style="stroke: #000000; stroke-width: 0.8"/>
      </g>
     </g>
     <g id="text_2">
      <!-- 2800 -->
      <g transform="translate(279.12961 339.5575)scale(0.16 -0.16)">
       <defs>
        <path id="DejaVuSans-38" d="M 2034 2216 
Q 1584 2216 1326 1975 
Q 1069 1734 1069 1313 
Q 1069 891 1326 650 
Q 1584 409 2034 409 
Q 2484 409 2743 651 
Q 3003 894 3003 1313 
Q 3003 1734 2745 1975 
Q 2488 2216 2034 2216 
z
M 1403 2484 
Q 997 2584 770 2862 
Q 544 3141 544 3541 
Q 544 4100 942 4425 
Q 1341 4750 2034 4750 
Q 2731 4750 3128 4425 
Q 3525 4100 3525 3541 
Q 3525 3141 3298 2862 
Q 3072 2584 2669 2484 
Q 3125 2378 3379 2068 
Q 3634 1759 3634 1313 
Q 3634 634 3220 271 
Q 2806 -91 2034 -91 
Q 1263 -91 848 271 
Q 434 634 434 1313 
Q 434 1759 690 2068 
Q 947 2378 1403 2484 
z
M 1172 3481 
Q 1172 3119 1398 2916 
Q 1625 2713 2034 2713 
Q 2441 2713 2670 2916 
Q 2900 3119 2900 3481 
Q 2900 3844 2670 4047 
Q 2441 4250 2034 4250 
Q 1625 4250 1398 4047 
Q 1172 3844 1172 3481 
z
" transform="scale(0.015625)"/>
       </defs>
       <use xlink:href="#DejaVuSans-32"/>
       <use xlink:href="#DejaVuSans-38" x="63.623047"/>
       <use xlink:href="#DejaVuSans-30" x="127.246094"/>
       <use xlink:href="#DejaVuSans-30" x="190.869141"/>
      </g>
     </g>
    </g>
    <g id="xtick_3">
     <g id="line2d_3">
      <g>
       <use xlink:href="#ma67eadede7" x="429.931169" y="320.4" style="stroke: #000000; stroke-width: 0.8"/>
      </g>
     </g>
     <g id="text_3">
      <!-- 3000 -->
      <g transform="translate(409.571169 339.5575)scale(0.16 -0.16)">
       <defs>
        <path id="DejaVuSans-33" d="M 2597 2516 
Q 3050 2419 3304 2112 
Q 3559 1806 3559 1356 
Q 3559 666 3084 287 
Q 2609 -91 1734 -91 
Q 1441 -91 1130 -33 
Q 819 25 488 141 
L 488 750 
Q 750 597 1062 519 
Q 1375 441 1716 441 
Q 2309 441 2620 675 
Q 2931 909 2931 1356 
Q 2931 1769 2642 2001 
Q 2353 2234 1838 2234 
L 1294 2234 
L 1294 2753 
L 1863 2753 
Q 2328 2753 2575 2939 
Q 2822 3125 2822 3475 
Q 2822 3834 2567 4026 
Q 2313 4219 1838 4219 
Q 1578 4219 1281 4162 
Q 984 4106 628 3988 
L 628 4550 
Q 988 4650 1302 4700 
Q 1616 4750 1894 4750 
Q 2613 4750 3031 4423 
Q 3450 4097 3450 3541 
Q 3450 3153 3228 2886 
Q 3006 2619 2597 2516 
z
" transform="scale(0.015625)"/>
       </defs>
       <use xlink:href="#DejaVuSans-33"/>
       <use xlink:href="#DejaVuSans-30" x="63.623047"/>
       <use xlink:href="#DejaVuSans-30" x="127.246094"/>
       <use xlink:href="#DejaVuSans-30" x="190.869141"/>
      </g>
     </g>
    </g>
    <g id="xtick_4">
     <g id="line2d_4">
      <g>
       <use xlink:href="#ma67eadede7" x="560.372727" y="320.4" style="stroke: #000000; stroke-width: 0.8"/>
      </g>
     </g>
     <g id="text_4">
      <!-- 3200 -->
      <g transform="translate(540.012727 339.5575)scale(0.16 -0.16)">
       <use xlink:href="#DejaVuSans-33"/>
       <use xlink:href="#DejaVuSans-32" x="63.623047"/>
       <use xlink:href="#DejaVuSans-30" x="127.246094"/>
       <use xlink:href="#DejaVuSans-30" x="190.869141"/>
      </g>
     </g>
    </g>
   </g>
   <g id="matplotlib.axis_2">
    <g id="ytick_1">
     <g id="line2d_5">
      <defs>
       <path id="m4e0a4a850f" d="M 0 0 
L -3.5 0 
" style="stroke: #000000; stroke-width: 0.8"/>
      </defs>
      <g>
       <use xlink:href="#m4e0a4a850f" x="81" y="254.965955" style="stroke: #000000; stroke-width: 0.8"/>
      </g>
     </g>
     <g id="text_5">
      <!-- 0.996 -->
      <g transform="translate(28.195 261.044705)scale(0.16 -0.16)">
       <defs>
        <path id="DejaVuSans-2e" d="M 684 794 
L 1344 794 
L 1344 0 
L 684 0 
L 684 794 
z
" transform="scale(0.015625)"/>
        <path id="DejaVuSans-39" d="M 703 97 
L 703 672 
Q 941 559 1184 500 
Q 1428 441 1663 441 
Q 2288 441 2617 861 
Q 2947 1281 2994 2138 
Q 2813 1869 2534 1725 
Q 2256 1581 1919 1581 
Q 1219 1581 811 2004 
Q 403 2428 403 3163 
Q 403 3881 828 4315 
Q 1253 4750 1959 4750 
Q 2769 4750 3195 4129 
Q 3622 3509 3622 2328 
Q 3622 1225 3098 567 
Q 2575 -91 1691 -91 
Q 1453 -91 1209 -44 
Q 966 3 703 97 
z
M 1959 2075 
Q 2384 2075 2632 2365 
Q 2881 2656 2881 3163 
Q 2881 3666 2632 3958 
Q 2384 4250 1959 4250 
Q 1534 4250 1286 3958 
Q 1038 3666 1038 3163 
Q 1038 2656 1286 2365 
Q 1534 2075 1959 2075 
z
" transform="scale(0.015625)"/>
       </defs>
       <use xlink:href="#DejaVuSans-30"/>
       <use xlink:href="#DejaVuSans-2e" x="63.623047"/>
       <use xlink:href="#DejaVuSans-39" x="95.410156"/>
       <use xlink:href="#DejaVuSans-39" x="159.033203"/>
       <use xlink:href="#DejaVuSans-36" x="222.65625"/>
      </g>
     </g>
    </g>
    <g id="ytick_2">
     <g id="line2d_6">
      <g>
       <use xlink:href="#m4e0a4a850f" x="81" y="155.382977" style="stroke: #000000; stroke-width: 0.8"/>
      </g>
     </g>
     <g id="text_6">
      <!-- 0.998 -->
      <g transform="translate(28.195 161.461727)scale(0.16 -0.16)">
       <use xlink:href="#DejaVuSans-30"/>
       <use xlink:href="#DejaVuSans-2e" x="63.623047"/>
       <use xlink:href="#DejaVuSans-39" x="95.410156"/>
       <use xlink:href="#DejaVuSans-39" x="159.033203"/>
       <use xlink:href="#DejaVuSans-38" x="222.65625"/>
      </g>
     </g>
    </g>
    <g id="ytick_3">
     <g id="line2d_7">
      <g>
       <use xlink:href="#m4e0a4a850f" x="81" y="55.8" style="stroke: #000000; stroke-width: 0.8"/>
      </g>
     </g>
     <g id="text_7">
      <!-- 1.000 -->
      <g transform="translate(28.195 61.87875)scale(0.16 -0.16)">
       <defs>
        <path id="DejaVuSans-31" d="M 794 531 
L 1825 531 
L 1825 4091 
L 703 3866 
L 703 4441 
L 1819 4666 
L 2450 4666 
L 2450 531 
L 3481 531 
L 3481 0 
L 794 0 
L 794 531 
z
" transform="scale(0.015625)"/>
       </defs>
       <use xlink:href="#DejaVuSans-31"/>
       <use xlink:href="#DejaVuSans-2e" x="63.623047"/>
       <use xlink:href="#DejaVuSans-30" x="95.410156"/>
       <use xlink:href="#DejaVuSans-30" x="159.033203"/>
       <use xlink:href="#DejaVuSans-30" x="222.65625"/>
      </g>
     </g>
    </g>
   </g>
   <g id="line2d_8">
    <path d="M 103.827273 59.081288 
L 104.055545 59.220202 
L 104.283818 57.634035 
L 104.512091 59.209307 
L 104.740364 56.314801 
L 104.968636 57.994486 
L 105.196909 58.083464 
L 105.425182 57.698498 
L 105.653455 59.651473 
L 105.881727 58.8997 
L 106.11 60.023727 
L 106.566545 59.632406 
L 106.794818 58.176074 
L 107.023091 57.575927 
L 107.251364 59.822165 
L 107.479636 58.583738 
L 107.707909 55.969784 
L 107.936182 58.787116 
L 108.164455 59.898432 
L 108.392727 58.879726 
L 108.621 58.484773 
L 108.849273 57.729368 
L 109.077545 57.91368 
L 109.534091 56.874999 
L 109.762364 59.104894 
L 109.990636 58.249617 
L 110.218909 58.232366 
L 110.447182 58.721744 
L 110.675455 57.289018 
L 111.132 59.001389 
L 111.360273 58.649109 
L 111.588545 57.234542 
L 111.816818 58.46389 
L 112.045091 57.403418 
L 112.273364 57.114694 
L 112.501636 58.161547 
L 112.729909 57.79474 
L 112.958182 57.777489 
L 113.186455 59.473517 
L 113.414727 56.554496 
L 113.643 58.926938 
L 114.099545 56.767862 
L 114.327818 57.075653 
L 114.556091 58.165178 
L 114.784364 56.721557 
L 115.012636 56.662541 
L 115.240909 57.238174 
L 115.469182 58.793471 
L 115.697455 57.941826 
L 116.154 59.493492 
L 116.382273 58.81617 
L 116.610545 59.193872 
L 116.838818 57.387984 
L 117.067091 58.311356 
L 117.295364 60.218026 
L 117.523636 59.300101 
L 117.751909 59.991042 
L 117.980182 58.741719 
L 118.208455 60.008292 
L 118.436727 60.434115 
L 118.665 57.792924 
L 118.893273 59.74499 
L 119.121545 60.045518 
L 119.349818 58.568303 
L 119.578091 59.323707 
L 119.806364 59.602444 
L 120.034636 59.012285 
L 120.262909 57.497844 
L 120.719455 59.246533 
L 120.947727 57.301729 
L 121.176 56.428293 
L 121.404273 58.514735 
L 121.632545 58.374912 
L 121.860818 57.629495 
L 122.089091 57.884626 
L 122.317364 58.577382 
L 122.545636 57.570479 
L 122.773909 57.685787 
L 123.002182 57.979051 
L 123.230455 57.253609 
L 123.687 57.849216 
L 123.915273 57.563216 
L 124.143545 58.365833 
L 124.371818 57.466066 
L 124.600091 58.029896 
L 124.828364 57.797464 
L 125.056636 58.433928 
L 125.284909 57.486949 
L 125.513182 58.324975 
L 125.741455 55.910768 
L 125.969727 57.065666 
L 126.198 57.626771 
L 126.426273 57.249977 
L 126.654545 57.406142 
L 126.882818 57.386168 
L 127.111091 58.244169 
L 127.339364 56.741532 
L 127.567636 58.120689 
L 127.795909 58.030804 
L 128.024182 58.870646 
L 128.252455 57.459711 
L 128.480727 56.858656 
L 128.709 57.247253 
L 128.937273 55.8 
L 129.165545 57.668536 
L 129.393818 56.204032 
L 129.850364 58.234182 
L 130.078636 57.811083 
L 130.306909 56.842313 
L 130.535182 56.849576 
L 130.763455 57.776581 
L 130.991727 59.719568 
L 131.22 58.122505 
L 131.448273 57.628587 
L 131.676545 58.038067 
L 131.904818 58.748075 
L 132.133091 57.130129 
L 132.589636 58.090727 
L 132.817909 58.037159 
L 133.502727 56.717017 
L 133.731 58.474785 
L 133.959273 56.834141 
L 134.187545 57.106523 
L 134.415818 58.315896 
L 134.644091 57.929115 
L 134.872364 58.393071 
L 135.100636 56.312985 
L 135.557182 61.192244 
L 136.013727 58.033527 
L 136.242 57.437012 
L 136.470273 59.089459 
L 136.698545 59.735911 
L 136.926818 57.608612 
L 137.383364 57.160091 
L 137.839909 58.671808 
L 138.068182 57.129221 
L 138.296455 57.644022 
L 138.524727 59.117605 
L 138.753 59.650565 
L 138.981273 59.675079 
L 139.209545 59.852127 
L 139.437818 60.566674 
L 139.666091 59.932934 
L 139.894364 62.933669 
L 140.122636 61.891356 
L 140.350909 60.144483 
L 140.579182 59.950184 
L 140.807455 61.92495 
L 141.035727 62.751173 
L 141.264 60.939837 
L 141.492273 60.563043 
L 141.948818 63.443022 
L 142.177091 62.097458 
L 142.405364 61.718848 
L 142.633636 62.921865 
L 142.861909 61.383819 
L 143.318455 61.692517 
L 143.775 60.033715 
L 144.003273 59.771321 
L 144.231545 58.423941 
L 144.459818 60.350585 
L 144.688091 59.884813 
L 144.916364 58.160639 
L 145.144636 60.059137 
L 145.372909 60.514014 
L 145.601182 60.241633 
L 145.829455 58.874278 
L 146.057727 59.579746 
L 146.286 59.346406 
L 146.514273 58.381268 
L 146.742545 59.19478 
L 146.970818 59.177529 
L 147.199091 59.28739 
L 147.427364 59.010469 
L 148.112182 57.446999 
L 148.340455 57.43338 
L 148.568727 57.734816 
L 149.025273 57.148288 
L 149.253545 57.681247 
L 149.481818 57.585006 
L 149.710091 58.28775 
L 150.166636 58.601897 
L 150.394909 56.480953 
L 150.623182 57.052046 
L 150.851455 59.637854 
L 151.079727 56.9667 
L 151.308 58.72356 
L 151.536273 59.283758 
L 151.764545 57.692143 
L 151.992818 58.698138 
L 152.221091 58.507471 
L 152.449364 59.468069 
L 152.677636 59.285574 
L 152.905909 57.780213 
L 153.134182 59.541612 
L 153.362455 58.008105 
L 153.590727 58.156099 
L 153.819 59.84668 
L 154.047273 59.913867 
L 154.275545 58.232366 
L 154.503818 59.710489 
L 154.732091 60.178985 
L 154.960364 59.364564 
L 155.188636 59.263783 
L 155.416909 61.599 
L 155.645182 59.628774 
L 155.873455 59.330063 
L 156.101727 59.957448 
L 156.33 59.778584 
L 156.558273 60.217118 
L 157.014818 61.311183 
L 157.243091 62.749357 
L 157.471364 61.955819 
L 157.927909 59.257428 
L 158.156182 60.745538 
L 158.384455 58.875186 
L 158.612727 58.702678 
L 158.841 57.949997 
L 159.297545 60.260699 
L 159.525818 60.446827 
L 159.754091 59.414501 
L 159.982364 60.187156 
L 160.210636 57.606797 
L 160.438909 59.67054 
L 160.667182 59.015008 
L 161.123727 59.063129 
L 161.352 58.856119 
L 161.580273 60.673811 
L 161.808545 59.958356 
L 162.036818 60.643849 
L 162.493364 59.971975 
L 162.721636 60.008292 
L 162.949909 57.486949 
L 163.178182 60.415957 
L 163.406455 58.588278 
L 163.634727 60.027359 
L 163.863 60.712852 
L 164.091273 60.829068 
L 164.319545 59.86393 
L 164.547818 59.545244 
L 164.776091 58.622779 
L 165.232636 61.316631 
L 165.460909 60.526725 
L 165.689182 60.375099 
L 165.917455 59.465346 
L 166.145727 59.672355 
L 166.374 59.117605 
L 166.602273 58.092543 
L 166.830545 59.910235 
L 167.058818 59.477149 
L 167.287091 59.619695 
L 167.515364 62.468804 
L 167.743636 60.359664 
L 168.200182 60.314268 
L 168.656727 59.644209 
L 168.885 60.790027 
L 169.113273 61.131412 
L 169.341545 61.239456 
L 169.569818 63.200602 
L 169.798091 61.885 
L 170.026364 59.539796 
L 170.254636 60.353309 
L 170.482909 59.123961 
L 170.711182 61.47552 
L 170.939455 61.939477 
L 171.396 59.699594 
L 171.624273 61.613527 
L 171.852545 61.046066 
L 172.080818 62.793846 
L 172.537364 63.604635 
L 172.765636 63.571041 
L 172.993909 65.326993 
L 173.222182 63.519289 
L 173.450455 63.341333 
L 173.678727 64.110356 
L 173.907 62.220937 
L 174.135273 62.165553 
L 174.363545 61.978518 
L 174.591818 61.390174 
L 174.820091 61.588105 
L 175.048364 61.538168 
L 175.276636 61.184072 
L 175.504909 61.445558 
L 175.733182 62.649484 
L 175.961455 61.761521 
L 176.189727 63.675454 
L 176.646273 62.891903 
L 176.874545 63.738102 
L 177.102818 63.642768 
L 177.331091 63.805289 
L 177.787636 67.329904 
L 178.015909 66.272157 
L 178.700727 71.122361 
L 178.929 74.041382 
L 179.157273 74.400017 
L 179.385545 78.895218 
L 179.613818 78.713631 
L 179.842091 83.51753 
L 180.298636 89.0042 
L 180.755182 98.579313 
L 181.211727 104.166764 
L 181.44 104.549006 
L 181.668273 105.964481 
L 182.581364 125.426131 
L 183.037909 148.15999 
L 183.494455 187.357488 
L 184.179273 265.49463 
L 184.407545 272.11259 
L 184.635818 265.673494 
L 184.864091 253.953831 
L 185.092364 253.015931 
L 185.548909 274.736531 
L 185.777182 280.003479 
L 186.462 247.995034 
L 186.690273 249.686522 
L 186.918545 260.678927 
L 187.146818 259.385116 
L 187.375091 241.775659 
L 188.059909 165.706799 
L 188.516455 139.188655 
L 188.744727 140.559641 
L 188.973 136.795331 
L 189.429545 119.731544 
L 190.114364 98.42224 
L 190.570909 91.692604 
L 190.799182 89.785026 
L 191.027455 88.829875 
L 191.484 83.367721 
L 191.940545 78.5157 
L 192.168818 76.864161 
L 192.397091 73.512962 
L 192.625364 74.141255 
L 192.853636 72.495163 
L 193.081909 72.931882 
L 193.310182 71.168666 
L 193.538455 68.12889 
L 193.766727 68.630071 
L 193.995 65.732841 
L 194.223273 65.184447 
L 194.451545 65.63206 
L 194.679818 66.942215 
L 194.908091 64.70324 
L 195.592909 62.062048 
L 195.821182 61.409241 
L 196.049455 61.106897 
L 196.277727 61.865934 
L 196.734273 60.37056 
L 197.190818 61.234917 
L 197.419091 61.191336 
L 197.647364 61.582657 
L 197.875636 63.127059 
L 198.103909 63.132507 
L 198.560455 60.081835 
L 198.788727 62.799294 
L 199.017 61.272142 
L 199.245273 61.788759 
L 199.473545 60.649297 
L 199.701818 63.339517 
L 199.930091 63.630057 
L 200.386636 62.604087 
L 200.614909 61.142307 
L 200.843182 63.180628 
L 201.071455 63.135231 
L 201.299727 61.055145 
L 201.528 63.779867 
L 201.756273 63.58466 
L 201.984545 62.719395 
L 202.212818 60.587557 
L 202.441091 61.468257 
L 202.669364 61.04425 
L 202.897636 61.026999 
L 203.125909 62.154658 
L 203.582455 61.455546 
L 203.810727 64.430858 
L 204.039 61.944016 
L 204.267273 61.234917 
L 204.495545 61.998493 
L 204.723818 62.201871 
L 204.952091 60.474973 
L 205.180364 61.894988 
L 205.408636 62.226385 
L 205.636909 62.084747 
L 205.865182 61.658016 
L 206.093455 61.829616 
L 206.321727 62.472436 
L 206.55 61.21131 
L 206.778273 62.643128 
L 207.234818 60.091823 
L 207.463091 61.247628 
L 207.919636 60.050966 
L 208.147909 57.937286 
L 208.376182 59.336418 
L 208.604455 62.116524 
L 208.832727 61.362936 
L 209.061 58.909688 
L 209.289273 59.475333 
L 209.517545 57.432472 
L 209.974091 61.195875 
L 210.202364 60.310636 
L 210.430636 60.302464 
L 210.658909 59.659644 
L 211.115455 61.740638 
L 212.028545 58.505655 
L 212.256818 60.717392 
L 212.485091 60.083651 
L 212.713364 59.928394 
L 212.941636 59.192964 
L 213.169909 59.469885 
L 213.398182 58.131585 
L 213.626455 58.457534 
L 213.854727 58.512919 
L 214.083 60.200775 
L 214.311273 59.651473 
L 214.539545 59.771321 
L 214.767818 60.535804 
L 214.996091 59.804914 
L 215.224364 60.940745 
L 215.909182 59.545244 
L 216.137455 60.168998 
L 216.365727 59.558863 
L 216.594 60.365112 
L 216.822273 59.37092 
L 217.050545 59.949277 
L 217.278818 59.14212 
L 217.507091 61.260339 
L 217.735364 60.450458 
L 218.191909 59.843956 
L 218.420182 58.72356 
L 218.648455 59.370012 
L 218.876727 61.959451 
L 219.105 60.849043 
L 219.333273 62.016651 
L 219.561545 61.151386 
L 219.789818 61.079659 
L 220.018091 58.913319 
L 220.246364 60.323347 
L 220.474636 58.331331 
L 220.931182 61.15411 
L 221.159455 61.290301 
L 221.387727 59.948369 
L 221.616 59.771321 
L 221.844273 61.120517 
L 222.072545 63.5892 
L 222.300818 61.760613 
L 222.529091 64.34188 
L 222.757364 64.02501 
L 223.213909 66.827815 
L 223.670455 69.7314 
L 223.898727 70.476817 
L 224.127 74.549827 
L 224.355273 74.211166 
L 224.583545 77.338105 
L 224.811818 78.34864 
L 225.040091 80.746504 
L 225.496636 82.839301 
L 225.724909 85.39333 
L 226.638 108.252485 
L 227.094545 120.11197 
L 227.322818 119.631671 
L 227.551091 121.881541 
L 227.779364 122.384539 
L 228.235909 132.211152 
L 228.692455 147.438179 
L 229.377273 193.38892 
L 229.833818 256.742108 
L 230.062091 276.773036 
L 230.290364 284.692979 
L 230.518636 281.915596 
L 230.975182 271.40803 
L 231.66 283.108627 
L 232.116545 272.040863 
L 232.344818 264.494082 
L 232.573091 264.060088 
L 232.801364 266.278181 
L 233.029636 265.493722 
L 233.257909 255.609001 
L 234.171 182.173162 
L 234.627545 171.37778 
L 234.855818 169.927803 
L 235.084091 162.508134 
L 236.225455 108.562999 
L 236.453727 101.859693 
L 236.682 99.848611 
L 237.366818 84.419113 
L 237.595091 82.890145 
L 237.823364 83.348654 
L 238.279909 77.030314 
L 238.508182 77.883775 
L 238.736455 74.102214 
L 238.964727 73.83528 
L 239.193 69.67874 
L 239.421273 68.253277 
L 239.649545 67.801124 
L 239.877818 66.837802 
L 240.106091 68.321373 
L 240.334364 66.075134 
L 240.790909 64.888459 
L 241.019182 64.675094 
L 241.247455 62.990869 
L 241.704 64.400896 
L 241.932273 62.783859 
L 242.160545 62.899167 
L 242.617091 62.352588 
L 242.845364 63.053516 
L 243.073636 62.612259 
L 243.530182 61.196783 
L 243.758455 62.812913 
L 243.986727 61.638041 
L 244.215 62.554151 
L 244.443273 62.696697 
L 244.671545 62.133775 
L 244.899818 60.658376 
L 245.128091 61.693425 
L 245.356364 61.948556 
L 245.584636 60.245264 
L 245.812909 62.195515 
L 246.041182 62.368023 
L 246.269455 61.116885 
L 246.497727 62.042074 
L 246.726 61.987597 
L 246.954273 62.592284 
L 247.410818 60.811818 
L 247.639091 62.155566 
L 247.867364 61.352041 
L 248.095636 62.971802 
L 248.323909 62.340785 
L 248.780455 64.053156 
L 249.008727 60.751894 
L 249.237 61.318447 
L 249.693545 61.168637 
L 249.921818 62.648576 
L 250.378364 63.687257 
L 250.606636 62.073851 
L 250.834909 63.391269 
L 251.063182 60.587557 
L 251.291455 60.86357 
L 251.519727 60.627506 
L 251.748 61.694333 
L 251.976273 61.261247 
L 252.204545 62.389814 
L 252.432818 62.672182 
L 252.661091 62.085655 
L 252.889364 62.051153 
L 253.117636 60.615703 
L 253.345909 62.288125 
L 253.574182 63.067136 
L 253.802455 61.305736 
L 254.030727 61.03971 
L 254.259 60.245264 
L 254.487273 64.204782 
L 254.715545 60.395982 
L 254.943818 61.576301 
L 255.172091 61.549971 
L 255.400364 62.673998 
L 255.628636 61.845959 
L 255.856909 61.873197 
L 256.313455 58.299553 
L 256.541727 60.796383 
L 256.77 61.957635 
L 256.998273 59.801283 
L 257.226545 60.721932 
L 257.454818 58.356753 
L 257.683091 60.023727 
L 257.911364 60.48496 
L 258.139636 59.45899 
L 258.367909 59.379999 
L 258.596182 59.678711 
L 258.824455 59.033167 
L 259.052727 59.653289 
L 259.281 59.628774 
L 259.509273 61.754257 
L 259.737545 59.101262 
L 259.965818 60.141759 
L 260.194091 62.333522 
L 260.422364 60.805462 
L 260.650636 60.940745 
L 260.878909 60.563951 
L 261.107182 62.397985 
L 261.335455 61.007932 
L 261.563727 60.952548 
L 261.792 61.576301 
L 262.248545 59.467161 
L 262.476818 61.066948 
L 262.705091 63.65094 
L 262.933364 61.152294 
L 263.161636 60.696509 
L 263.618182 62.50149 
L 263.846455 59.847587 
L 264.074727 61.318447 
L 264.303 60.172629 
L 264.531273 61.632594 
L 264.759545 60.760065 
L 264.987818 61.773324 
L 265.216091 61.135951 
L 265.444364 61.769692 
L 265.672636 62.983605 
L 265.900909 61.859578 
L 266.129182 63.739918 
L 266.357455 62.328074 
L 266.585727 63.265974 
L 267.270545 61.855946 
L 267.498818 61.892264 
L 267.727091 64.695068 
L 267.955364 65.973445 
L 268.183636 64.355499 
L 268.640182 65.907165 
L 268.868455 62.117432 
L 269.096727 63.683625 
L 269.325 64.17936 
L 269.553273 63.37765 
L 269.781545 64.42995 
L 270.009818 62.634049 
L 270.694636 62.332614 
L 270.922909 62.464265 
L 271.151182 62.784767 
L 271.379455 62.254531 
L 271.607727 63.198787 
L 271.836 62.481516 
L 272.064273 59.971975 
L 272.292545 59.828521 
L 272.520818 61.478244 
L 272.977364 61.746086 
L 273.433909 60.089099 
L 273.662182 59.748622 
L 274.118727 61.614435 
L 274.347 61.522733 
L 274.575273 63.080755 
L 274.803545 62.296296 
L 275.031818 60.25616 
L 275.488364 61.723387 
L 275.716636 58.970519 
L 275.944909 60.374191 
L 276.401455 61.011564 
L 276.629727 60.490408 
L 276.858 60.804554 
L 277.314545 59.22111 
L 277.542818 60.514922 
L 277.771091 59.597905 
L 277.999364 60.574846 
L 278.227636 60.85903 
L 278.455909 59.931118 
L 278.684182 60.530357 
L 278.912455 59.54252 
L 279.140727 59.799467 
L 279.369 59.508019 
L 279.597273 61.460085 
L 279.825545 60.771868 
L 280.053818 61.509114 
L 280.282091 61.144123 
L 280.510364 61.826892 
L 280.738636 61.544524 
L 280.966909 61.613527 
L 281.195182 60.948008 
L 281.423455 61.950372 
L 281.651727 61.072396 
L 281.88 62.969986 
L 282.108273 60.976154 
L 282.336545 61.03517 
L 282.564818 61.872289 
L 282.793091 64.111264 
L 283.021364 61.491863 
L 283.249636 64.884827 
L 283.477909 62.8229 
L 283.706182 63.55379 
L 283.934455 63.078031 
L 284.162727 65.731933 
L 284.391 64.127607 
L 284.619273 65.833623 
L 284.847545 64.51802 
L 285.075818 65.54853 
L 285.532364 65.022834 
L 285.760636 66.80784 
L 285.988909 65.463184 
L 286.217182 65.461368 
L 286.445455 67.842889 
L 286.673727 68.116179 
L 286.902 66.440125 
L 287.358545 68.611005 
L 287.586818 68.432141 
L 287.815091 68.048991 
L 288.043364 68.828002 
L 288.499909 70.95984 
L 289.184727 73.142523 
L 289.413 75.978013 
L 289.641273 76.342097 
L 289.869545 80.173595 
L 290.097818 79.922096 
L 290.326091 84.597069 
L 290.782636 87.700401 
L 291.010909 91.062495 
L 291.239182 91.644483 
L 291.695727 101.192359 
L 291.924 107.23741 
L 292.608818 133.187185 
L 292.837091 137.390938 
L 293.065364 138.3016 
L 293.293636 139.857805 
L 293.521909 140.068447 
L 293.750182 143.692935 
L 294.206727 156.65375 
L 294.663273 179.386701 
L 295.348091 252.165193 
L 295.804636 299.634914 
L 296.032909 307.8 
L 296.489455 295.79252 
L 296.717727 289.505958 
L 296.946 289.184548 
L 297.174273 291.201078 
L 297.402545 290.525572 
L 297.630818 283.692431 
L 297.859091 273.467233 
L 298.315636 265.431982 
L 298.543909 266.368974 
L 298.772182 265.22588 
L 299.000455 253.443569 
L 299.913545 168.147337 
L 300.370091 154.064311 
L 300.598364 150.376267 
L 300.826636 142.357359 
L 301.054909 126.574673 
L 301.283182 122.479873 
L 301.739727 102.792146 
L 302.652818 85.900868 
L 302.881091 83.531149 
L 303.337636 76.765196 
L 303.565909 75.199003 
L 303.794182 72.723964 
L 304.022455 73.184288 
L 304.250727 72.943685 
L 304.479 68.696351 
L 304.707273 68.649138 
L 304.935545 66.440125 
L 305.163818 65.555793 
L 305.392091 65.524924 
L 305.620364 64.974713 
L 305.848636 64.054972 
L 306.076909 65.957102 
L 306.305182 64.031366 
L 306.533455 63.403981 
L 306.761727 64.037721 
L 306.99 65.366942 
L 307.218273 64.230204 
L 307.446545 64.041353 
L 307.674818 62.717579 
L 307.903091 62.693065 
L 308.131364 60.850859 
L 308.359636 61.203139 
L 308.587909 60.783672 
L 308.816182 61.174993 
L 309.044455 60.779132 
L 309.272727 61.674359 
L 309.501 60.68743 
L 309.729273 60.879913 
L 309.957545 61.666187 
L 310.185818 58.454811 
L 310.414091 60.305188 
L 310.642364 59.672355 
L 310.870636 61.322079 
L 311.327182 60.496763 
L 311.555455 61.042434 
L 311.783727 60.80183 
L 312.012 62.744818 
L 312.468545 61.188612 
L 312.696818 60.765513 
L 312.925091 62.073851 
L 313.153364 58.689967 
L 313.381636 59.942013 
L 313.609909 59.77586 
L 313.838182 60.076388 
L 314.066455 61.657108 
L 314.294727 60.508566 
L 314.523 58.534709 
L 314.751273 59.992858 
L 314.979545 57.938194 
L 315.436091 60.874465 
L 315.664364 58.936926 
L 315.892636 58.890621 
L 316.120909 59.938381 
L 316.349182 58.843408 
L 316.577455 58.689059 
L 316.805727 59.030443 
L 317.034 60.587557 
L 317.490545 58.791656 
L 317.947091 60.109074 
L 318.175364 60.028267 
L 318.403636 60.199867 
L 318.860182 58.898792 
L 319.088455 59.204767 
L 319.316727 60.329703 
L 319.545 60.063677 
L 319.773273 59.314628 
L 320.001545 61.261247 
L 320.458091 59.617879 
L 320.686364 60.45409 
L 320.914636 61.791483 
L 321.142909 62.141947 
L 321.371182 60.376915 
L 321.599455 61.555419 
L 321.827727 59.410869 
L 322.056 60.109982 
L 322.284273 59.005021 
L 322.512545 61.055145 
L 322.740818 60.149931 
L 323.197364 60.440471 
L 323.425636 59.978331 
L 323.653909 60.883545 
L 323.882182 59.752254 
L 324.110455 59.588825 
L 324.567 60.616611 
L 324.795273 60.076388 
L 325.023545 59.024088 
L 325.251818 59.928394 
L 325.480091 59.380907 
L 325.708364 60.448642 
L 325.936636 59.662368 
L 326.164909 61.998493 
L 326.393182 61.161374 
L 326.621455 63.62007 
L 326.849727 60.694694 
L 327.078 62.033902 
L 327.306273 60.899888 
L 327.534545 61.183164 
L 327.762818 63.105269 
L 327.991091 63.358584 
L 328.219364 64.600643 
L 328.447636 64.535271 
L 328.675909 63.971442 
L 328.904182 65.022834 
L 329.132455 67.109275 
L 329.360727 67.375301 
L 329.817273 70.543097 
L 330.502091 71.774261 
L 330.730364 72.812034 
L 330.958636 74.686926 
L 331.186909 74.774088 
L 331.415182 76.158693 
L 332.1 84.898504 
L 332.328273 84.339214 
L 333.241364 93.721845 
L 333.926182 108.47039 
L 334.154455 115.109232 
L 334.839273 151.977869 
L 335.295818 175.375431 
L 335.524091 181.719193 
L 335.752364 180.51436 
L 335.980636 178.404312 
L 336.208909 177.896775 
L 336.665455 181.800908 
L 336.893727 166.788153 
L 337.122 176.032778 
L 337.350273 171.896213 
L 337.578545 171.099951 
L 337.806818 166.372318 
L 338.035091 167.353799 
L 338.491636 149.913218 
L 339.176455 113.305159 
L 339.404727 104.254834 
L 339.861273 97.216498 
L 340.317818 89.367375 
L 341.002636 78.955142 
L 341.459182 73.30686 
L 341.687455 73.825293 
L 342.144 70.96438 
L 342.600545 66.500957 
L 342.828818 64.646948 
L 343.057091 65.81274 
L 343.285364 65.851781 
L 343.513636 66.71977 
L 344.198455 62.97725 
L 344.426727 62.978158 
L 344.655 62.046613 
L 344.883273 62.94184 
L 345.111545 60.475881 
L 345.339818 61.125056 
L 345.568091 60.996129 
L 345.796364 63.607359 
L 346.252909 59.364564 
L 346.481182 61.445558 
L 346.709455 62.243636 
L 346.937727 61.565406 
L 347.394273 62.516925 
L 347.622545 64.705056 
L 347.850818 64.461728 
L 348.079091 65.24891 
L 348.307364 64.966542 
L 348.535636 65.986156 
L 348.763909 63.219669 
L 348.992182 63.824356 
L 349.448727 62.833795 
L 349.677 62.962723 
L 349.905273 63.521105 
L 350.590091 60.105442 
L 350.818364 60.079112 
L 351.046636 62.026639 
L 351.274909 60.915323 
L 351.503182 62.309007 
L 351.731455 60.759157 
L 351.959727 61.997585 
L 352.188 62.446106 
L 352.416273 59.861207 
L 352.644545 61.727927 
L 352.872818 62.6513 
L 353.101091 62.050245 
L 353.329364 60.617519 
L 353.557636 61.019735 
L 353.785909 61.138675 
L 354.014182 61.447374 
L 354.242455 63.270514 
L 354.699 60.349677 
L 354.927273 62.248175 
L 355.155545 60.71376 
L 355.383818 61.767876 
L 355.612091 64.221125 
L 355.840364 62.163737 
L 356.068636 63.191523 
L 356.296909 62.722119 
L 356.525182 61.425584 
L 356.753455 62.460633 
L 356.981727 62.403433 
L 357.21 63.178812 
L 357.438273 61.683438 
L 357.666545 61.636225 
L 357.894818 62.492411 
L 358.123091 61.761521 
L 358.579636 62.10109 
L 358.807909 61.780587 
L 359.036182 60.496763 
L 359.492727 61.785127 
L 359.721 60.66564 
L 359.949273 61.337514 
L 360.177545 60.845411 
L 360.405818 58.814354 
L 360.634091 61.843235 
L 360.862364 60.798199 
L 361.090636 60.278858 
L 361.318909 62.715764 
L 361.547182 61.342961 
L 361.775455 60.851767 
L 362.003727 61.732467 
L 362.232 62.094734 
L 362.460273 61.614435 
L 362.688545 60.84178 
L 362.916818 60.825437 
L 363.145091 61.247628 
L 363.601636 59.999213 
L 363.829909 59.185701 
L 364.058182 61.131412 
L 364.514727 60.138128 
L 364.743 61.090555 
L 364.971273 60.355125 
L 365.199545 60.548516 
L 365.427818 60.941653 
L 365.656091 59.817626 
L 365.884364 59.983778 
L 366.112636 61.078751 
L 366.340909 59.296469 
L 366.569182 59.648749 
L 366.797455 59.725924 
L 367.025727 59.061313 
L 367.254 61.294841 
L 367.482273 59.329155 
L 367.710545 61.371107 
L 367.938818 61.767876 
L 368.167091 58.942373 
L 368.395364 59.900248 
L 368.851909 59.575206 
L 369.080182 60.182617 
L 369.308455 58.722652 
L 369.536727 59.715029 
L 369.765 57.448815 
L 370.221545 59.786756 
L 370.449818 61.051513 
L 370.678091 60.500395 
L 370.906364 59.619695 
L 371.134636 60.043702 
L 371.362909 61.238548 
L 371.591182 61.066948 
L 371.819455 60.701049 
L 372.276 61.850499 
L 372.504273 60.218026 
L 372.732545 60.945284 
L 372.960818 59.938381 
L 373.189091 61.857762 
L 373.417364 59.359117 
L 373.873909 60.815449 
L 374.102182 59.603352 
L 374.330455 59.757702 
L 374.558727 59.641486 
L 375.015273 60.677443 
L 375.243545 62.91551 
L 375.471818 61.895896 
L 375.928364 60.934389 
L 376.156636 61.650752 
L 376.384909 61.513654 
L 376.613182 60.455906 
L 376.841455 62.24636 
L 377.298 59.179345 
L 377.526273 60.897164 
L 377.754545 60.188972 
L 377.982818 58.778944 
L 378.439364 61.351133 
L 378.667636 59.892984 
L 378.895909 59.701409 
L 379.124182 60.190788 
L 379.352455 59.900248 
L 379.809 60.989773 
L 380.037273 59.431752 
L 380.265545 59.902064 
L 380.493818 60.805462 
L 380.722091 59.629682 
L 380.950364 60.395074 
L 381.178636 60.13268 
L 381.406909 61.469165 
L 381.635182 61.454638 
L 381.863455 60.995221 
L 382.091727 61.92041 
L 382.32 60.786395 
L 382.548273 61.034262 
L 382.776545 59.821257 
L 383.233091 60.451366 
L 383.461364 59.337326 
L 383.689636 59.707765 
L 383.917909 59.813994 
L 384.374455 62.086563 
L 384.831 59.455358 
L 385.059273 61.098726 
L 385.287545 60.912599 
L 385.515818 62.772056 
L 385.744091 60.866294 
L 385.972364 61.825076 
L 386.657182 59.214755 
L 386.885455 61.204047 
L 387.113727 61.391082 
L 387.342 61.021551 
L 387.570273 58.9569 
L 387.798545 62.114709 
L 388.026818 59.237453 
L 388.255091 61.558143 
L 388.711636 61.212218 
L 388.939909 62.392538 
L 389.396455 59.151199 
L 389.624727 63.076215 
L 389.853 60.725563 
L 390.081273 60.364204 
L 390.309545 61.106897 
L 390.537818 60.188064 
L 390.766091 61.152294 
L 390.994364 61.547247 
L 391.222636 58.832513 
L 391.450909 59.996489 
L 391.679182 59.4944 
L 391.907455 62.454277 
L 392.135727 60.41868 
L 392.364 61.395622 
L 392.592273 59.6088 
L 392.820545 60.18534 
L 393.277091 62.309007 
L 393.505364 60.573938 
L 394.190182 62.553243 
L 394.418455 60.966167 
L 394.646727 61.169545 
L 394.875 60.793659 
L 395.103273 59.919315 
L 395.331545 62.203687 
L 395.559818 62.109261 
L 395.788091 60.913507 
L 396.016364 60.967075 
L 396.244636 62.292664 
L 396.472909 61.244904 
L 396.701182 63.047161 
L 396.929455 63.438482 
L 397.157727 62.312639 
L 397.386 62.445198 
L 397.614273 63.06532 
L 397.842545 62.251807 
L 398.070818 60.709221 
L 398.299091 62.695789 
L 398.527364 60.762789 
L 398.755636 62.927313 
L 398.983909 63.448469 
L 399.212182 63.400349 
L 399.440455 63.949651 
L 399.897 62.106537 
L 400.125273 64.017747 
L 400.353545 61.857762 
L 400.581818 62.415236 
L 400.810091 62.528728 
L 401.038364 63.43485 
L 401.266636 61.886816 
L 401.494909 64.311918 
L 401.723182 62.683986 
L 401.951455 62.945472 
L 402.179727 63.459365 
L 402.408 62.933669 
L 402.636273 61.565406 
L 402.864545 61.142307 
L 403.092818 60.998853 
L 403.321091 62.572309 
L 403.549364 60.631138 
L 403.777636 61.143215 
L 404.005909 62.762068 
L 404.234182 61.733375 
L 404.690727 62.865573 
L 405.147273 65.268885 
L 405.375545 64.616986 
L 405.603818 66.055159 
L 405.832091 65.281596 
L 406.060364 66.031553 
L 406.288636 65.389641 
L 406.973455 70.941682 
L 407.43 71.588133 
L 407.658273 71.323015 
L 408.114818 76.268554 
L 408.343091 76.115112 
L 408.571364 76.942244 
L 408.799636 82.139281 
L 409.027909 84.351017 
L 409.256182 84.974771 
L 410.397545 103.094489 
L 410.854091 118.887162 
L 411.310636 145.700386 
L 412.223727 208.265484 
L 412.452 214.088998 
L 412.680273 215.204854 
L 412.908545 217.120603 
L 413.136818 217.895982 
L 413.365091 222.98225 
L 413.593364 224.685542 
L 413.821636 224.994241 
L 414.278182 220.972984 
L 414.506455 222.306745 
L 414.734727 220.895809 
L 414.963 218.195601 
L 415.191273 207.600873 
L 416.104364 143.994371 
L 416.560909 127.656935 
L 417.245727 110.219986 
L 418.387091 87.787563 
L 419.071909 76.12056 
L 419.300182 75.748305 
L 419.528455 72.922802 
L 419.756727 72.820205 
L 419.985 72.369868 
L 420.669818 69.420885 
L 420.898091 66.039724 
L 421.126364 66.011578 
L 421.354636 64.508941 
L 421.582909 64.375474 
L 421.811182 63.798026 
L 422.039455 63.662743 
L 422.267727 63.254171 
L 422.496 63.661835 
L 422.724273 63.054424 
L 422.952545 63.383098 
L 423.409091 61.476428 
L 423.637364 61.564498 
L 423.865636 61.925857 
L 424.093909 61.690702 
L 424.322182 60.510382 
L 424.550455 60.074572 
L 424.778727 60.381455 
L 425.007 61.691609 
L 425.235273 61.574485 
L 425.463545 59.291929 
L 425.691818 58.518366 
L 425.920091 61.232193 
L 426.148364 60.631138 
L 426.376636 61.726111 
L 426.604909 59.912051 
L 426.833182 60.578478 
L 427.061455 60.533989 
L 427.289727 60.976154 
L 427.518 59.305549 
L 427.746273 60.681075 
L 427.974545 59.910235 
L 428.202818 60.402338 
L 428.431091 59.742267 
L 428.659364 60.447734 
L 428.887636 62.62043 
L 429.344182 60.206223 
L 429.572455 61.358396 
L 429.800727 59.93475 
L 430.029 59.931118 
L 430.257273 62.12288 
L 430.485545 60.195328 
L 430.713818 60.540344 
L 431.170364 61.643489 
L 431.398636 59.977423 
L 431.626909 63.599187 
L 431.855182 60.657468 
L 432.083455 62.12742 
L 432.311727 60.759157 
L 432.54 62.430671 
L 432.768273 61.719756 
L 432.996545 60.336966 
L 433.224818 61.711584 
L 433.453091 61.786943 
L 433.681364 60.41868 
L 433.909636 61.10145 
L 434.137909 62.701237 
L 434.594455 60.585741 
L 434.822727 61.301196 
L 435.051 63.290488 
L 435.279273 62.813821 
L 435.507545 63.798026 
L 435.735818 63.360399 
L 435.964091 60.30882 
L 436.192364 61.456454 
L 436.420636 59.893892 
L 436.648909 61.789667 
L 436.877182 61.510022 
L 437.105455 63.107085 
L 437.333727 62.58956 
L 437.562 61.201323 
L 438.018545 63.349504 
L 438.246818 64.297391 
L 438.475091 66.370214 
L 438.703364 67.306298 
L 438.931636 69.536194 
L 439.159909 69.738664 
L 439.616455 72.87105 
L 439.844727 75.918997 
L 440.073 75.062812 
L 440.301273 76.167772 
L 440.529545 77.946423 
L 441.214364 88.984225 
L 441.899182 104.791425 
L 442.127455 107.781265 
L 442.355727 108.866251 
L 442.584 113.573001 
L 442.812273 115.14101 
L 443.497091 134.086044 
L 443.953636 159.02256 
L 444.638455 234.198916 
L 445.095 277.317798 
L 445.323273 284.3752 
L 445.551545 281.407151 
L 445.779818 276.145651 
L 446.008091 276.55967 
L 446.236364 279.867288 
L 446.464636 285.406618 
L 446.692909 286.72222 
L 446.921182 281.133862 
L 447.149455 272.779924 
L 447.377727 270.196841 
L 447.606 270.708918 
L 447.834273 274.619407 
L 448.062545 272.402222 
L 448.290818 257.368585 
L 448.975636 189.902438 
L 449.203909 175.275558 
L 450.117 148.089171 
L 450.573545 124.312999 
L 451.258364 100.040186 
L 451.714909 92.494313 
L 452.171455 82.714913 
L 452.628 78.375878 
L 452.856273 76.702548 
L 453.084545 75.987093 
L 453.312818 73.310492 
L 453.541091 72.393474 
L 453.769364 70.093667 
L 454.454182 67.056615 
L 454.682455 65.070047 
L 454.910727 65.889007 
L 455.367273 64.538903 
L 455.595545 61.835972 
L 455.823818 63.956915 
L 456.052091 62.597732 
L 456.280364 62.06568 
L 456.508636 60.714668 
L 456.736909 62.547795 
L 456.965182 61.626238 
L 457.193455 62.346233 
L 457.421727 62.161921 
L 457.65 59.572482 
L 457.878273 62.507846 
L 458.106545 61.464625 
L 458.334818 61.504574 
L 458.563091 61.97307 
L 458.791364 61.782403 
L 459.019636 62.478792 
L 459.247909 61.326618 
L 459.476182 62.131959 
L 459.932727 61.201323 
L 460.161 60.987958 
L 460.389273 61.664371 
L 460.617545 61.596276 
L 460.845818 61.768784 
L 461.074091 59.435384 
L 461.302364 61.964899 
L 461.530636 61.109621 
L 461.758909 62.218214 
L 461.987182 60.399614 
L 462.215455 62.581389 
L 462.443727 60.278858 
L 462.900273 61.142307 
L 463.128545 60.478604 
L 463.356818 61.757889 
L 463.585091 62.282677 
L 463.813364 60.95618 
L 464.041636 60.803646 
L 464.269909 60.300649 
L 464.498182 60.745538 
L 465.639545 63.94148 
L 465.867818 63.001764 
L 466.096091 63.471168 
L 466.324364 63.667283 
L 466.552636 62.58956 
L 466.780909 65.042809 
L 467.009182 63.240552 
L 467.237455 64.40816 
L 467.465727 61.446466 
L 467.694 62.49695 
L 468.150545 65.297939 
L 468.378818 63.782591 
L 468.607091 63.103453 
L 468.835364 63.297752 
L 469.063636 63.817092 
L 469.291909 64.021378 
L 469.520182 62.427947 
L 469.748455 62.550519 
L 469.976727 64.079486 
L 470.433273 62.321718 
L 470.661545 61.914054 
L 470.889818 63.648216 
L 471.118091 61.370199 
L 471.346364 61.476428 
L 471.574636 62.245452 
L 471.802909 62.185528 
L 472.031182 61.182256 
L 472.259455 60.993405 
L 472.487727 61.350225 
L 472.716 63.449377 
L 472.944273 62.358944 
L 473.172545 62.584113 
L 473.629091 61.619882 
L 473.857364 61.615343 
L 474.085636 59.34459 
L 474.313909 60.723748 
L 474.542182 60.572122 
L 474.770455 60.206223 
L 474.998727 61.653476 
L 475.227 60.333334 
L 475.455273 61.672543 
L 475.683545 62.041166 
L 475.911818 61.09237 
L 476.368364 64.122159 
L 476.596636 63.243275 
L 476.824909 64.461728 
L 477.053182 63.373111 
L 477.281455 65.775514 
L 477.509727 65.389641 
L 477.738 67.36713 
L 478.194545 65.607546 
L 478.422818 65.691984 
L 478.651091 66.422874 
L 478.879364 65.424142 
L 479.335909 67.959105 
L 479.564182 66.5173 
L 479.792455 66.514576 
L 480.020727 69.132161 
L 480.249 66.419243 
L 480.477273 66.54363 
L 480.705545 67.001231 
L 481.162091 68.91244 
L 481.390364 66.159572 
L 481.618636 67.568692 
L 481.846909 67.851061 
L 482.075182 64.576128 
L 482.303455 65.22258 
L 482.531727 62.307191 
L 482.76 65.887191 
L 482.988273 66.793313 
L 483.216545 65.87448 
L 483.444818 65.836346 
L 483.673091 66.804208 
L 484.357909 65.739197 
L 484.586182 64.002312 
L 484.814455 64.55797 
L 485.042727 65.627521 
L 485.499273 66.617173 
L 485.727545 66.278512 
L 485.955818 67.775702 
L 486.412364 72.722148 
L 486.640636 70.972551 
L 486.868909 71.973099 
L 487.097182 75.459581 
L 487.325455 73.273266 
L 487.553727 78.165236 
L 487.782 78.165236 
L 488.010273 79.311962 
L 488.238545 83.201568 
L 488.466818 84.744155 
L 488.695091 91.13513 
L 489.379909 98.355053 
L 489.608182 98.72186 
L 489.836455 99.879481 
L 490.749545 115.705747 
L 491.434364 145.135649 
L 492.347455 212.83332 
L 492.575727 214.542967 
L 493.032273 204.307782 
L 493.260545 203.955502 
L 493.717091 215.276581 
L 493.945364 212.406589 
L 494.401909 200.434519 
L 494.630182 199.77808 
L 494.858455 200.933885 
L 495.086727 205.282908 
L 495.315 203.819312 
L 495.543273 191.449565 
L 496.228091 139.627189 
L 496.684636 125.723935 
L 497.141182 120.833781 
L 497.597727 107.698642 
L 498.054273 93.447648 
L 498.739091 86.875085 
L 498.967364 83.267847 
L 499.423909 79.796801 
L 499.652182 75.765556 
L 499.880455 75.478648 
L 500.108727 75.585784 
L 500.337 73.008148 
L 500.565273 74.595224 
L 501.021818 71.462838 
L 501.250091 67.126526 
L 501.478364 67.259085 
L 501.934909 68.559252 
L 502.163182 66.286684 
L 502.619727 67.670381 
L 502.848 65.700156 
L 503.076273 66.174099 
L 503.304545 64.392725 
L 503.532818 64.214769 
L 503.761091 65.34152 
L 503.989364 64.970174 
L 504.217636 65.615717 
L 504.445909 65.494054 
L 504.674182 64.909342 
L 504.902455 63.208774 
L 505.130727 63.406704 
L 505.359 63.101637 
L 505.587273 64.150306 
L 505.815545 64.010483 
L 506.272091 62.79203 
L 506.500364 63.410336 
L 506.728636 62.365299 
L 506.956909 63.188799 
L 507.185182 60.77096 
L 507.413455 62.343509 
L 507.641727 61.32571 
L 507.87 62.545979 
L 508.098273 61.647121 
L 508.326545 62.289033 
L 508.554818 62.038442 
L 508.783091 63.895175 
L 509.011364 62.481516 
L 509.239636 63.207866 
L 509.467909 63.29412 
L 509.696182 62.859218 
L 509.924455 63.566501 
L 510.152727 61.443742 
L 510.381 61.806918 
L 510.609273 61.692517 
L 510.837545 63.90607 
L 511.065818 64.478071 
L 511.294091 62.503306 
L 511.522364 64.838522 
L 511.750636 63.820724 
L 511.978909 66.471903 
L 512.207182 63.534724 
L 512.435455 63.374926 
L 512.663727 64.083118 
L 512.892 66.536367 
L 513.120273 65.359679 
L 513.348545 67.234571 
L 513.576818 66.612633 
L 513.805091 66.504589 
L 514.033364 67.198253 
L 514.261636 67.060247 
L 514.489909 68.543817 
L 514.718182 71.480089 
L 514.946455 72.498795 
L 515.174727 75.678394 
L 515.403 75.324298 
L 515.859545 81.137825 
L 516.087818 80.403303 
L 517.229182 103.098121 
L 517.685727 107.434432 
L 517.914 106.905105 
L 519.055364 133.565795 
L 519.511909 156.028181 
L 519.968455 196.507687 
L 520.653273 272.220635 
L 520.881545 277.473964 
L 521.109818 273.416389 
L 521.338091 265.775183 
L 521.566364 263.242036 
L 522.022909 281.059411 
L 522.251182 282.027273 
L 522.479455 274.074644 
L 522.707727 261.98545 
L 522.936 256.060247 
L 523.164273 258.664213 
L 523.392545 265.519144 
L 523.620818 262.325927 
L 523.849091 244.879898 
L 524.533909 171.142624 
L 524.990455 147.360097 
L 525.675273 130.116539 
L 526.360091 105.8065 
L 527.044909 92.356307 
L 527.273182 91.177803 
L 527.501455 87.955531 
L 527.729727 87.772128 
L 527.958 80.323405 
L 528.186273 80.389684 
L 528.414545 79.366438 
L 528.642818 79.022329 
L 528.871091 73.702721 
L 529.099364 73.621914 
L 529.327636 72.772992 
L 529.555909 69.286511 
L 529.784182 69.412714 
L 530.240727 68.59103 
L 530.469 68.790776 
L 530.697273 66.271249 
L 530.925545 67.203701 
L 531.153818 66.017934 
L 531.382091 65.673825 
L 531.610364 66.63624 
L 531.838636 64.744097 
L 532.066909 64.552522 
L 532.295182 65.320638 
L 532.523455 64.67237 
L 532.98 62.76116 
L 533.208273 64.075855 
L 533.436545 62.472436 
L 533.664818 64.722306 
L 534.121364 63.326806 
L 534.349636 60.672903 
L 534.577909 62.117432 
L 535.034455 60.374191 
L 535.491 61.343869 
L 535.719273 62.213674 
L 535.947545 60.201683 
L 536.175818 60.987958 
L 536.404091 59.427212 
L 536.632364 60.259791 
L 536.860636 59.885721 
L 537.088909 61.463717 
L 537.317182 60.575754 
L 537.545455 61.781495 
L 537.773727 61.198599 
L 538.230273 59.010469 
L 538.458545 60.865386 
L 538.686818 60.813633 
L 538.915091 59.383631 
L 539.143364 59.900248 
L 539.371636 61.200415 
L 539.599909 59.30918 
L 539.828182 59.23019 
L 540.056455 60.994313 
L 540.284727 60.383271 
L 540.513 60.4323 
L 540.741273 62.126512 
L 540.969545 59.72774 
L 541.197818 61.740638 
L 541.426091 61.68253 
L 541.654364 61.82326 
L 541.882636 60.729195 
L 542.339182 62.949104 
L 542.795727 61.056961 
L 543.024 61.184072 
L 543.480545 60.942561 
L 543.708818 62.363484 
L 543.937091 62.342601 
L 544.165364 62.927313 
L 544.393636 62.493319 
L 544.621909 61.462809 
L 544.850182 62.271782 
L 545.078455 62.332614 
L 545.306727 61.301196 
L 545.535 63.421231 
L 545.763273 62.141947 
L 545.991545 62.617706 
L 546.219818 62.335338 
L 546.448091 61.826892 
L 546.676364 61.593552 
L 546.904636 61.859578 
L 547.132909 62.550519 
L 547.361182 60.472249 
L 547.589455 64.114896 
L 547.817727 63.783499 
L 548.046 63.742641 
L 548.274273 63.52746 
L 548.502545 62.593192 
L 548.730818 62.609535 
L 548.959091 61.789667 
L 549.187364 62.631325 
L 549.415636 63.044437 
L 549.643909 63.196971 
L 550.100455 62.050245 
L 550.328727 62.963631 
L 550.557 62.269058 
L 550.785273 62.537808 
L 551.013545 63.067136 
L 551.241818 62.557782 
L 551.470091 60.627506 
L 551.698364 62.154658 
L 551.926636 61.134136 
L 552.154909 61.259431 
L 552.383182 61.816905 
L 552.611455 61.488231 
L 552.839727 61.429215 
L 553.068 63.135231 
L 553.524545 61.389266 
L 553.752818 61.58992 
L 553.981091 61.33025 
L 554.209364 60.675627 
L 554.437636 61.570854 
L 554.665909 58.893345 
L 554.894182 60.632954 
L 555.122455 60.809094 
L 555.350727 62.522373 
L 555.579 59.02318 
L 555.807273 62.331706 
L 556.035545 61.73973 
L 556.263818 61.921318 
L 556.492091 60.719208 
L 556.948636 62.049337 
L 557.176909 61.397438 
L 557.405182 62.816545 
L 557.633455 62.798386 
L 557.861727 58.863383 
L 558.09 61.441019 
L 558.318273 61.804194 
L 558.546545 62.882824 
L 558.774818 59.901156 
L 559.003091 64.578852 
L 559.231364 62.985421 
L 559.459636 62.644036 
L 559.916182 60.272502 
L 560.144455 64.242007 
L 560.372727 61.776956 
L 560.372727 61.776956 
" clip-path="url(#p13896567bd)" style="fill: none; stroke: #1f77b4; stroke-width: 1.5; stroke-linecap: square"/>
   </g>
   <g id="patch_3">
    <path d="M 81 320.4 
L 81 43.2 
" style="fill: none; stroke: #000000; stroke-width: 0.8; stroke-linejoin: miter; stroke-linecap: square"/>
   </g>
   <g id="patch_4">
    <path d="M 583.2 320.4 
L 583.2 43.2 
" style="fill: none; stroke: #000000; stroke-width: 0.8; stroke-linejoin: miter; stroke-linecap: square"/>
   </g>
   <g id="patch_5">
    <path d="M 81 320.4 
L 583.2 320.4 
" style="fill: none; stroke: #000000; stroke-width: 0.8; stroke-linejoin: miter; stroke-linecap: square"/>
   </g>
   <g id="patch_6">
    <path d="M 81 43.2 
L 583.2 43.2 
" style="fill: none; stroke: #000000; stroke-width: 0.8; stroke-linejoin: miter; stroke-linecap: square"/>
   </g>
  </g>
 </g>
 <defs>
  <clipPath id="p13896567bd">
   <rect x="81" y="43.2" width="502.2" height="277.2"/>
  </clipPath>
 </defs>
</svg>
