<?xml version="1.0" encoding="utf-8" standalone="no"?>
<!DOCTYPE svg PUBLIC "-//W3C//DTD SVG 1.1//EN"
  "http://www.w3.org/Graphics/SVG/1.1/DTD/svg11.dtd">
<svg xmlns:xlink="http://www.w3.org/1999/xlink" width="520.2pt" height="246.6pt" viewBox="0 0 520.2 246.6" xmlns="http://www.w3.org/2000/svg" version="1.1">
 <metadata>
  <rdf:RDF xmlns:dc="http://purl.org/dc/elements/1.1/" xmlns:cc="http://creativecommons.org/ns#" xmlns:rdf="http://www.w3.org/1999/02/22-rdf-syntax-ns#">
   <cc:Work>
    <dc:type rdf:resource="http://purl.org/dc/dcmitype/StillImage"/>
    <dc:date>2022-12-02T22:34:20.010728</dc:date>
    <dc:format>image/svg+xml</dc:format>
    <dc:creator>
     <cc:Agent>
      <dc:title>Matplotlib v3.5.1, https://matplotlib.org/</dc:title>
     </cc:Agent>
    </dc:creator>
   </cc:Work>
  </rdf:RDF>
 </metadata>
 <defs>
  <style type="text/css">*{stroke-linejoin: round; stroke-linecap: butt}</style>
 </defs>
 <g id="figure_1">
  <g id="patch_1">
   <path d="M 0 246.6 
L 520.2 246.6 
L 520.2 0 
L 0 0 
z
" style="fill: #ffffff"/>
  </g>
  <g id="axes_1">
   <g id="patch_2">
    <path d="M 65.025 219.474 
L 468.18 219.474 
L 468.18 29.592 
L 65.025 29.592 
z
" style="fill: #ffffff"/>
   </g>
   <g id="matplotlib.axis_1">
    <g id="xtick_1">
     <g id="line2d_1">
      <defs>
       <path id="ma77a5e5d82" d="M 0 0 
L 0 3.5 
" style="stroke: #000000; stroke-width: 0.8"/>
      </defs>
      <g>
       <use xlink:href="#ma77a5e5d82" x="78.710929" y="219.474" style="stroke: #000000; stroke-width: 0.8"/>
      </g>
     </g>
     <g id="text_1">
      <!-- 0 -->
      <g transform="translate(74.257179 237.111812)scale(0.14 -0.14)">
       <defs>
        <path id="DejaVuSans-30" d="M 2034 4250 
Q 1547 4250 1301 3770 
Q 1056 3291 1056 2328 
Q 1056 1369 1301 889 
Q 1547 409 2034 409 
Q 2525 409 2770 889 
Q 3016 1369 3016 2328 
Q 3016 3291 2770 3770 
Q 2525 4250 2034 4250 
z
M 2034 4750 
Q 2819 4750 3233 4129 
Q 3647 3509 3647 2328 
Q 3647 1150 3233 529 
Q 2819 -91 2034 -91 
Q 1250 -91 836 529 
Q 422 1150 422 2328 
Q 422 3509 836 4129 
Q 1250 4750 2034 4750 
z
" transform="scale(0.015625)"/>
       </defs>
       <use xlink:href="#DejaVuSans-30"/>
      </g>
     </g>
    </g>
    <g id="xtick_2">
     <g id="line2d_2">
      <g>
       <use xlink:href="#ma77a5e5d82" x="171.49689" y="219.474" style="stroke: #000000; stroke-width: 0.8"/>
      </g>
     </g>
     <g id="text_2">
      <!-- 100 -->
      <g transform="translate(158.13564 237.111812)scale(0.14 -0.14)">
       <defs>
        <path id="DejaVuSans-31" d="M 794 531 
L 1825 531 
L 1825 4091 
L 703 3866 
L 703 4441 
L 1819 4666 
L 2450 4666 
L 2450 531 
L 3481 531 
L 3481 0 
L 794 0 
L 794 531 
z
" transform="scale(0.015625)"/>
       </defs>
       <use xlink:href="#DejaVuSans-31"/>
       <use xlink:href="#DejaVuSans-30" x="63.623047"/>
       <use xlink:href="#DejaVuSans-30" x="127.246094"/>
      </g>
     </g>
    </g>
    <g id="xtick_3">
     <g id="line2d_3">
      <g>
       <use xlink:href="#ma77a5e5d82" x="264.282851" y="219.474" style="stroke: #000000; stroke-width: 0.8"/>
      </g>
     </g>
     <g id="text_3">
      <!-- 200 -->
      <g transform="translate(250.921601 237.111812)scale(0.14 -0.14)">
       <defs>
        <path id="DejaVuSans-32" d="M 1228 531 
L 3431 531 
L 3431 0 
L 469 0 
L 469 531 
Q 828 903 1448 1529 
Q 2069 2156 2228 2338 
Q 2531 2678 2651 2914 
Q 2772 3150 2772 3378 
Q 2772 3750 2511 3984 
Q 2250 4219 1831 4219 
Q 1534 4219 1204 4116 
Q 875 4013 500 3803 
L 500 4441 
Q 881 4594 1212 4672 
Q 1544 4750 1819 4750 
Q 2544 4750 2975 4387 
Q 3406 4025 3406 3419 
Q 3406 3131 3298 2873 
Q 3191 2616 2906 2266 
Q 2828 2175 2409 1742 
Q 1991 1309 1228 531 
z
" transform="scale(0.015625)"/>
       </defs>
       <use xlink:href="#DejaVuSans-32"/>
       <use xlink:href="#DejaVuSans-30" x="63.623047"/>
       <use xlink:href="#DejaVuSans-30" x="127.246094"/>
      </g>
     </g>
    </g>
    <g id="xtick_4">
     <g id="line2d_4">
      <g>
       <use xlink:href="#ma77a5e5d82" x="357.068812" y="219.474" style="stroke: #000000; stroke-width: 0.8"/>
      </g>
     </g>
     <g id="text_4">
      <!-- 300 -->
      <g transform="translate(343.707562 237.111812)scale(0.14 -0.14)">
       <defs>
        <path id="DejaVuSans-33" d="M 2597 2516 
Q 3050 2419 3304 2112 
Q 3559 1806 3559 1356 
Q 3559 666 3084 287 
Q 2609 -91 1734 -91 
Q 1441 -91 1130 -33 
Q 819 25 488 141 
L 488 750 
Q 750 597 1062 519 
Q 1375 441 1716 441 
Q 2309 441 2620 675 
Q 2931 909 2931 1356 
Q 2931 1769 2642 2001 
Q 2353 2234 1838 2234 
L 1294 2234 
L 1294 2753 
L 1863 2753 
Q 2328 2753 2575 2939 
Q 2822 3125 2822 3475 
Q 2822 3834 2567 4026 
Q 2313 4219 1838 4219 
Q 1578 4219 1281 4162 
Q 984 4106 628 3988 
L 628 4550 
Q 988 4650 1302 4700 
Q 1616 4750 1894 4750 
Q 2613 4750 3031 4423 
Q 3450 4097 3450 3541 
Q 3450 3153 3228 2886 
Q 3006 2619 2597 2516 
z
" transform="scale(0.015625)"/>
       </defs>
       <use xlink:href="#DejaVuSans-33"/>
       <use xlink:href="#DejaVuSans-30" x="63.623047"/>
       <use xlink:href="#DejaVuSans-30" x="127.246094"/>
      </g>
     </g>
    </g>
    <g id="xtick_5">
     <g id="line2d_5">
      <g>
       <use xlink:href="#ma77a5e5d82" x="449.854773" y="219.474" style="stroke: #000000; stroke-width: 0.8"/>
      </g>
     </g>
     <g id="text_5">
      <!-- 400 -->
      <g transform="translate(436.493523 237.111812)scale(0.14 -0.14)">
       <defs>
        <path id="DejaVuSans-34" d="M 2419 4116 
L 825 1625 
L 2419 1625 
L 2419 4116 
z
M 2253 4666 
L 3047 4666 
L 3047 1625 
L 3713 1625 
L 3713 1100 
L 3047 1100 
L 3047 0 
L 2419 0 
L 2419 1100 
L 313 1100 
L 313 1709 
L 2253 4666 
z
" transform="scale(0.015625)"/>
       </defs>
       <use xlink:href="#DejaVuSans-34"/>
       <use xlink:href="#DejaVuSans-30" x="63.623047"/>
       <use xlink:href="#DejaVuSans-30" x="127.246094"/>
      </g>
     </g>
    </g>
   </g>
   <g id="matplotlib.axis_2">
    <g id="ytick_1">
     <g id="line2d_6">
      <defs>
       <path id="med378517fc" d="M 0 0 
L -3.5 0 
" style="stroke: #000000; stroke-width: 0.8"/>
      </defs>
      <g>
       <use xlink:href="#med378517fc" x="65.025" y="199.373676" style="stroke: #000000; stroke-width: 0.8"/>
      </g>
     </g>
     <g id="text_6">
      <!-- 0.7 -->
      <g transform="translate(35.760625 204.692583)scale(0.14 -0.14)">
       <defs>
        <path id="DejaVuSans-2e" d="M 684 794 
L 1344 794 
L 1344 0 
L 684 0 
L 684 794 
z
" transform="scale(0.015625)"/>
        <path id="DejaVuSans-37" d="M 525 4666 
L 3525 4666 
L 3525 4397 
L 1831 0 
L 1172 0 
L 2766 4134 
L 525 4134 
L 525 4666 
z
" transform="scale(0.015625)"/>
       </defs>
       <use xlink:href="#DejaVuSans-30"/>
       <use xlink:href="#DejaVuSans-2e" x="63.623047"/>
       <use xlink:href="#DejaVuSans-37" x="95.410156"/>
      </g>
     </g>
    </g>
    <g id="ytick_2">
     <g id="line2d_7">
      <g>
       <use xlink:href="#med378517fc" x="65.025" y="145.656784" style="stroke: #000000; stroke-width: 0.8"/>
      </g>
     </g>
     <g id="text_7">
      <!-- 0.8 -->
      <g transform="translate(35.760625 150.97569)scale(0.14 -0.14)">
       <defs>
        <path id="DejaVuSans-38" d="M 2034 2216 
Q 1584 2216 1326 1975 
Q 1069 1734 1069 1313 
Q 1069 891 1326 650 
Q 1584 409 2034 409 
Q 2484 409 2743 651 
Q 3003 894 3003 1313 
Q 3003 1734 2745 1975 
Q 2488 2216 2034 2216 
z
M 1403 2484 
Q 997 2584 770 2862 
Q 544 3141 544 3541 
Q 544 4100 942 4425 
Q 1341 4750 2034 4750 
Q 2731 4750 3128 4425 
Q 3525 4100 3525 3541 
Q 3525 3141 3298 2862 
Q 3072 2584 2669 2484 
Q 3125 2378 3379 2068 
Q 3634 1759 3634 1313 
Q 3634 634 3220 271 
Q 2806 -91 2034 -91 
Q 1263 -91 848 271 
Q 434 634 434 1313 
Q 434 1759 690 2068 
Q 947 2378 1403 2484 
z
M 1172 3481 
Q 1172 3119 1398 2916 
Q 1625 2713 2034 2713 
Q 2441 2713 2670 2916 
Q 2900 3119 2900 3481 
Q 2900 3844 2670 4047 
Q 2441 4250 2034 4250 
Q 1625 4250 1398 4047 
Q 1172 3844 1172 3481 
z
" transform="scale(0.015625)"/>
       </defs>
       <use xlink:href="#DejaVuSans-30"/>
       <use xlink:href="#DejaVuSans-2e" x="63.623047"/>
       <use xlink:href="#DejaVuSans-38" x="95.410156"/>
      </g>
     </g>
    </g>
    <g id="ytick_3">
     <g id="line2d_8">
      <g>
       <use xlink:href="#med378517fc" x="65.025" y="91.939892" style="stroke: #000000; stroke-width: 0.8"/>
      </g>
     </g>
     <g id="text_8">
      <!-- 0.9 -->
      <g transform="translate(35.760625 97.258798)scale(0.14 -0.14)">
       <defs>
        <path id="DejaVuSans-39" d="M 703 97 
L 703 672 
Q 941 559 1184 500 
Q 1428 441 1663 441 
Q 2288 441 2617 861 
Q 2947 1281 2994 2138 
Q 2813 1869 2534 1725 
Q 2256 1581 1919 1581 
Q 1219 1581 811 2004 
Q 403 2428 403 3163 
Q 403 3881 828 4315 
Q 1253 4750 1959 4750 
Q 2769 4750 3195 4129 
Q 3622 3509 3622 2328 
Q 3622 1225 3098 567 
Q 2575 -91 1691 -91 
Q 1453 -91 1209 -44 
Q 966 3 703 97 
z
M 1959 2075 
Q 2384 2075 2632 2365 
Q 2881 2656 2881 3163 
Q 2881 3666 2632 3958 
Q 2384 4250 1959 4250 
Q 1534 4250 1286 3958 
Q 1038 3666 1038 3163 
Q 1038 2656 1286 2365 
Q 1534 2075 1959 2075 
z
" transform="scale(0.015625)"/>
       </defs>
       <use xlink:href="#DejaVuSans-30"/>
       <use xlink:href="#DejaVuSans-2e" x="63.623047"/>
       <use xlink:href="#DejaVuSans-39" x="95.410156"/>
      </g>
     </g>
    </g>
    <g id="ytick_4">
     <g id="line2d_9">
      <g>
       <use xlink:href="#med378517fc" x="65.025" y="38.223" style="stroke: #000000; stroke-width: 0.8"/>
      </g>
     </g>
     <g id="text_9">
      <!-- 1.0 -->
      <g transform="translate(35.760625 43.541906)scale(0.14 -0.14)">
       <use xlink:href="#DejaVuSans-31"/>
       <use xlink:href="#DejaVuSans-2e" x="63.623047"/>
       <use xlink:href="#DejaVuSans-30" x="95.410156"/>
      </g>
     </g>
    </g>
   </g>
   <g id="line2d_10">
    <path d="M 83.350227 38.223 
L 87.052293 38.223 
L 90.75436 38.223 
L 94.456426 38.223 
L 98.158492 38.223 
L 101.860558 38.223 
L 105.562624 38.223 
L 109.26469 38.223 
L 112.966756 38.223 
L 116.668822 38.223 
L 120.370888 38.223 
L 124.072955 38.223 
L 127.775021 38.223 
L 131.477087 38.223 
L 135.179153 38.223 
L 138.881219 38.223 
L 142.583285 38.223 
L 146.285351 38.223 
L 149.987417 38.223 
L 153.689483 38.223 
L 157.39155 38.223 
L 161.093616 38.223 
L 164.795682 38.223 
L 168.497748 38.223 
L 172.199814 38.223 
L 175.90188 38.223 
L 179.603946 38.223 
L 183.306012 38.223 
L 187.008079 38.223 
L 190.710145 38.223 
L 194.412211 38.223 
L 198.114277 38.223 
L 201.816343 38.223 
L 205.518409 38.223 
L 209.220475 38.223 
L 212.922541 38.223 
L 216.624607 38.223 
L 220.326674 38.223 
L 224.02874 38.223 
L 227.730806 38.223 
L 231.432872 38.223 
L 235.134938 38.223 
L 238.837004 38.223 
L 242.53907 38.223 
L 246.241136 38.223 
L 249.943202 38.223 
L 253.645269 38.223 
L 257.347335 38.223 
L 261.049401 38.223 
L 264.751467 38.223 
L 268.453533 38.223 
L 272.155599 38.223 
L 275.857665 38.223 
L 279.559731 38.223 
L 283.261798 38.223 
L 286.963864 38.223 
L 290.66593 38.223 
L 294.367996 38.223 
L 298.070062 38.223 
L 301.772128 38.223 
L 305.474194 38.223 
L 309.17626 38.223 
L 312.878326 38.223 
L 316.580393 38.223 
L 320.282459 38.223 
L 323.984525 38.223 
L 327.686591 38.223 
L 331.388657 38.223 
L 335.090723 38.223 
L 338.792789 38.223 
L 342.494855 38.223 
L 346.196921 38.223 
L 349.898988 38.223 
L 353.601054 38.223 
L 357.30312 38.223 
L 361.005186 38.223 
L 364.707252 38.223 
L 368.409318 38.223 
L 372.111384 38.223 
L 375.81345 38.223 
L 379.515517 38.223 
L 383.217583 38.223 
L 386.919649 38.223 
L 390.621715 38.223 
L 394.323781 38.223 
L 398.025847 38.223 
L 401.727913 38.223 
L 405.429979 38.223 
L 409.132045 38.223 
L 412.834112 38.223 
L 416.536178 38.223 
L 420.238244 38.223 
L 423.94031 38.223 
L 427.642376 38.223 
L 431.344442 38.223 
L 435.046508 38.223 
L 438.748574 38.223 
L 442.45064 38.223 
L 446.152707 38.223 
L 449.854773 38.223 
" clip-path="url(#p6e26e08129)" style="fill: none; stroke: #1f77b4; stroke-width: 1.5; stroke-linecap: square"/>
   </g>
   <g id="line2d_11">
    <path d="M 83.350227 38.223 
L 87.052293 38.637501 
L 90.75436 39.283613 
L 94.456426 40.156158 
L 98.158492 41.248713 
L 101.860558 42.5537 
L 105.562624 44.062482 
L 109.26469 45.765476 
L 112.966756 47.652272 
L 116.668822 49.71176 
L 120.370888 51.932261 
L 124.072955 54.301658 
L 127.775021 56.807524 
L 131.477087 59.437252 
L 135.179153 62.178176 
L 138.881219 65.017681 
L 142.583285 67.94331 
L 146.285351 70.942858 
L 149.987417 74.004459 
L 153.689483 77.116656 
L 157.39155 80.268463 
L 161.093616 83.449422 
L 164.795682 86.649634 
L 168.497748 89.859797 
L 172.199814 93.071224 
L 175.90188 96.275855 
L 179.603946 99.466259 
L 183.306012 102.635634 
L 187.008079 105.777796 
L 190.710145 108.887165 
L 194.412211 111.958747 
L 198.114277 114.988107 
L 201.816343 117.97135 
L 205.518409 120.905088 
L 209.220475 123.786416 
L 212.922541 126.612876 
L 216.624607 129.38243 
L 220.326674 132.093432 
L 224.02874 134.744592 
L 227.730806 137.33495 
L 231.432872 139.863847 
L 235.134938 142.330896 
L 238.837004 144.735958 
L 242.53907 147.079114 
L 246.241136 149.360645 
L 249.943202 151.581005 
L 253.645269 153.740803 
L 257.347335 155.840785 
L 261.049401 157.881814 
L 264.751467 159.864852 
L 268.453533 161.790949 
L 272.155599 163.661226 
L 275.857665 165.476865 
L 279.559731 167.239092 
L 283.261798 168.949175 
L 286.963864 170.608408 
L 290.66593 172.218104 
L 294.367996 173.77959 
L 298.070062 175.2942 
L 301.772128 176.763264 
L 305.474194 178.188112 
L 309.17626 179.570061 
L 312.878326 180.910414 
L 316.580393 182.210461 
L 320.282459 183.471468 
L 323.984525 184.694681 
L 327.686591 185.881322 
L 331.388657 187.032586 
L 335.090723 188.149642 
L 338.792789 189.23363 
L 342.494855 190.28566 
L 346.196921 191.306814 
L 349.898988 192.298143 
L 353.601054 193.260668 
L 357.30312 194.195378 
L 361.005186 195.103235 
L 364.707252 195.985168 
L 368.409318 196.842076 
L 372.111384 197.674831 
L 375.81345 198.484275 
L 379.515517 199.271219 
L 383.217583 200.036451 
L 386.919649 200.780726 
L 390.621715 201.504777 
L 394.323781 202.209309 
L 398.025847 202.895001 
L 401.727913 203.562508 
L 405.429979 204.212462 
L 409.132045 204.845472 
L 412.834112 205.462121 
L 416.536178 206.062975 
L 420.238244 206.648576 
L 423.94031 207.219446 
L 427.642376 207.776088 
L 431.344442 208.318987 
L 435.046508 208.848606 
L 438.748574 209.365394 
L 442.45064 209.869782 
L 446.152707 210.362185 
L 449.854773 210.843 
" clip-path="url(#p6e26e08129)" style="fill: none; stroke: #ff7f0e; stroke-width: 1.5; stroke-linecap: square"/>
   </g>
   <g id="patch_3">
    <path d="M 65.025 219.474 
L 65.025 29.592 
" style="fill: none; stroke: #000000; stroke-width: 0.8; stroke-linejoin: miter; stroke-linecap: square"/>
   </g>
   <g id="patch_4">
    <path d="M 468.18 219.474 
L 468.18 29.592 
" style="fill: none; stroke: #000000; stroke-width: 0.8; stroke-linejoin: miter; stroke-linecap: square"/>
   </g>
   <g id="patch_5">
    <path d="M 65.025 219.474 
L 468.18 219.474 
" style="fill: none; stroke: #000000; stroke-width: 0.8; stroke-linejoin: miter; stroke-linecap: square"/>
   </g>
   <g id="patch_6">
    <path d="M 65.025 29.592 
L 468.18 29.592 
" style="fill: none; stroke: #000000; stroke-width: 0.8; stroke-linejoin: miter; stroke-linecap: square"/>
   </g>
   <g id="legend_1">
    <g id="patch_7">
     <path d="M 72.025 214.474 
L 140.225 214.474 
Q 142.225 214.474 142.225 212.474 
L 142.225 184.11775 
Q 142.225 182.11775 140.225 182.11775 
L 72.025 182.11775 
Q 70.025 182.11775 70.025 184.11775 
L 70.025 212.474 
Q 70.025 214.474 72.025 214.474 
z
" style="fill: #ffffff; opacity: 0.8; stroke: #cccccc; stroke-linejoin: miter"/>
    </g>
    <g id="line2d_12">
     <path d="M 74.025 190.216187 
L 84.025 190.216187 
L 94.025 190.216187 
" style="fill: none; stroke: #1f77b4; stroke-width: 1.5; stroke-linecap: square"/>
    </g>
    <g id="text_10">
     <!-- $\theta=$0° -->
     <g transform="translate(102.025 193.716187)scale(0.1 -0.1)">
      <defs>
       <path id="DejaVuSans-Oblique-3b8" d="M 2913 2219 
L 925 2219 
Q 791 1284 928 888 
Q 1100 400 1566 400 
Q 2034 400 2391 891 
Q 2703 1322 2913 2219 
z
M 3009 2750 
Q 3094 3638 2984 3950 
Q 2813 4444 2353 4444 
Q 1875 4444 1525 3956 
Q 1250 3563 1034 2750 
L 3009 2750 
z
M 2444 4913 
Q 3194 4913 3494 4250 
Q 3794 3591 3566 2422 
Q 3341 1256 2781 594 
Q 2225 -72 1475 -72 
Q 722 -72 425 594 
Q 128 1256 353 2422 
Q 581 3591 1134 4250 
Q 1691 4913 2444 4913 
z
" transform="scale(0.015625)"/>
       <path id="DejaVuSans-3d" d="M 678 2906 
L 4684 2906 
L 4684 2381 
L 678 2381 
L 678 2906 
z
M 678 1631 
L 4684 1631 
L 4684 1100 
L 678 1100 
L 678 1631 
z
" transform="scale(0.015625)"/>
       <path id="DejaVuSans-b0" d="M 1600 4347 
Q 1350 4347 1178 4173 
Q 1006 4000 1006 3750 
Q 1006 3503 1178 3333 
Q 1350 3163 1600 3163 
Q 1850 3163 2022 3333 
Q 2194 3503 2194 3750 
Q 2194 3997 2020 4172 
Q 1847 4347 1600 4347 
z
M 1600 4750 
Q 1800 4750 1984 4673 
Q 2169 4597 2303 4453 
Q 2447 4313 2519 4134 
Q 2591 3956 2591 3750 
Q 2591 3338 2302 3052 
Q 2013 2766 1594 2766 
Q 1172 2766 890 3047 
Q 609 3328 609 3750 
Q 609 4169 896 4459 
Q 1184 4750 1600 4750 
z
" transform="scale(0.015625)"/>
      </defs>
      <use xlink:href="#DejaVuSans-Oblique-3b8" transform="translate(0 0.234375)"/>
      <use xlink:href="#DejaVuSans-3d" transform="translate(80.664062 0.234375)"/>
      <use xlink:href="#DejaVuSans-30" transform="translate(183.935547 0.234375)"/>
      <use xlink:href="#DejaVuSans-b0" transform="translate(247.558594 0.234375)"/>
     </g>
    </g>
    <g id="line2d_13">
     <path d="M 74.025 204.894313 
L 84.025 204.894313 
L 94.025 204.894313 
" style="fill: none; stroke: #ff7f0e; stroke-width: 1.5; stroke-linecap: square"/>
    </g>
    <g id="text_11">
     <!-- $\theta=$45° -->
     <g transform="translate(102.025 208.394313)scale(0.1 -0.1)">
      <defs>
       <path id="DejaVuSans-35" d="M 691 4666 
L 3169 4666 
L 3169 4134 
L 1269 4134 
L 1269 2991 
Q 1406 3038 1543 3061 
Q 1681 3084 1819 3084 
Q 2600 3084 3056 2656 
Q 3513 2228 3513 1497 
Q 3513 744 3044 326 
Q 2575 -91 1722 -91 
Q 1428 -91 1123 -41 
Q 819 9 494 109 
L 494 744 
Q 775 591 1075 516 
Q 1375 441 1709 441 
Q 2250 441 2565 725 
Q 2881 1009 2881 1497 
Q 2881 1984 2565 2268 
Q 2250 2553 1709 2553 
Q 1456 2553 1204 2497 
Q 953 2441 691 2322 
L 691 4666 
z
" transform="scale(0.015625)"/>
      </defs>
      <use xlink:href="#DejaVuSans-Oblique-3b8" transform="translate(0 0.234375)"/>
      <use xlink:href="#DejaVuSans-3d" transform="translate(80.664062 0.234375)"/>
      <use xlink:href="#DejaVuSans-34" transform="translate(183.935547 0.234375)"/>
      <use xlink:href="#DejaVuSans-35" transform="translate(247.558594 0.234375)"/>
      <use xlink:href="#DejaVuSans-b0" transform="translate(311.181641 0.234375)"/>
     </g>
    </g>
   </g>
  </g>
 </g>
 <defs>
  <clipPath id="p6e26e08129">
   <rect x="65.025" y="29.592" width="403.155" height="189.882"/>
  </clipPath>
 </defs>
</svg>
