<?xml version="1.0" encoding="utf-8" standalone="no"?>
<!DOCTYPE svg PUBLIC "-//W3C//DTD SVG 1.1//EN"
  "http://www.w3.org/Graphics/SVG/1.1/DTD/svg11.dtd">
<!-- Created with matplotlib (http://matplotlib.org/) -->
<svg height="229.68pt" version="1.1" viewBox="0 0 493.2 229.68" width="493.2pt" xmlns="http://www.w3.org/2000/svg" xmlns:xlink="http://www.w3.org/1999/xlink">
 <defs>
  <style type="text/css">
*{stroke-linecap:butt;stroke-linejoin:round;}
  </style>
 </defs>
 <g id="figure_1">
  <g id="patch_1">
   <path d="M 0 229.68 
L 493.2 229.68 
L 493.2 0 
L 0 0 
z
" style="fill:#ffffff;"/>
  </g>
  <g id="axes_1">
   <g id="patch_2">
    <path d="M 61.65 204.4152 
L 443.88 204.4152 
L 443.88 27.5616 
L 61.65 27.5616 
z
" style="fill:#ffffff;"/>
   </g>
   <g id="matplotlib.axis_1">
    <g id="xtick_1">
     <g id="line2d_1">
      <defs>
       <path d="M 0 0 
L 0 3.5 
" id="m77e23159ad" style="stroke:#000000;stroke-width:0.8;"/>
      </defs>
      <g>
       <use style="stroke:#000000;stroke-width:0.8;" x="79.024091" xlink:href="#m77e23159ad" y="204.4152"/>
      </g>
     </g>
     <g id="text_1">
      <!-- 0 -->
      <defs>
       <path d="M 31.78125 66.40625 
Q 24.171875 66.40625 20.328125 58.90625 
Q 16.5 51.421875 16.5 36.375 
Q 16.5 21.390625 20.328125 13.890625 
Q 24.171875 6.390625 31.78125 6.390625 
Q 39.453125 6.390625 43.28125 13.890625 
Q 47.125 21.390625 47.125 36.375 
Q 47.125 51.421875 43.28125 58.90625 
Q 39.453125 66.40625 31.78125 66.40625 
z
M 31.78125 74.21875 
Q 44.046875 74.21875 50.515625 64.515625 
Q 56.984375 54.828125 56.984375 36.375 
Q 56.984375 17.96875 50.515625 8.265625 
Q 44.046875 -1.421875 31.78125 -1.421875 
Q 19.53125 -1.421875 13.0625 8.265625 
Q 6.59375 17.96875 6.59375 36.375 
Q 6.59375 54.828125 13.0625 64.515625 
Q 19.53125 74.21875 31.78125 74.21875 
z
" id="DejaVuSans-30"/>
      </defs>
      <g transform="translate(74.252216 222.812856)scale(0.15 -0.15)">
       <use xlink:href="#DejaVuSans-30"/>
      </g>
     </g>
    </g>
    <g id="xtick_2">
     <g id="line2d_2">
      <g>
       <use style="stroke:#000000;stroke-width:0.8;" x="124.401119" xlink:href="#m77e23159ad" y="204.4152"/>
      </g>
     </g>
     <g id="text_2">
      <!-- 5 -->
      <defs>
       <path d="M 10.796875 72.90625 
L 49.515625 72.90625 
L 49.515625 64.59375 
L 19.828125 64.59375 
L 19.828125 46.734375 
Q 21.96875 47.46875 24.109375 47.828125 
Q 26.265625 48.1875 28.421875 48.1875 
Q 40.625 48.1875 47.75 41.5 
Q 54.890625 34.8125 54.890625 23.390625 
Q 54.890625 11.625 47.5625 5.09375 
Q 40.234375 -1.421875 26.90625 -1.421875 
Q 22.3125 -1.421875 17.546875 -0.640625 
Q 12.796875 0.140625 7.71875 1.703125 
L 7.71875 11.625 
Q 12.109375 9.234375 16.796875 8.0625 
Q 21.484375 6.890625 26.703125 6.890625 
Q 35.15625 6.890625 40.078125 11.328125 
Q 45.015625 15.765625 45.015625 23.390625 
Q 45.015625 31 40.078125 35.4375 
Q 35.15625 39.890625 26.703125 39.890625 
Q 22.75 39.890625 18.8125 39.015625 
Q 14.890625 38.140625 10.796875 36.28125 
z
" id="DejaVuSans-35"/>
      </defs>
      <g transform="translate(119.629244 222.812856)scale(0.15 -0.15)">
       <use xlink:href="#DejaVuSans-35"/>
      </g>
     </g>
    </g>
    <g id="xtick_3">
     <g id="line2d_3">
      <g>
       <use style="stroke:#000000;stroke-width:0.8;" x="169.778148" xlink:href="#m77e23159ad" y="204.4152"/>
      </g>
     </g>
     <g id="text_3">
      <!-- 10 -->
      <defs>
       <path d="M 12.40625 8.296875 
L 28.515625 8.296875 
L 28.515625 63.921875 
L 10.984375 60.40625 
L 10.984375 69.390625 
L 28.421875 72.90625 
L 38.28125 72.90625 
L 38.28125 8.296875 
L 54.390625 8.296875 
L 54.390625 0 
L 12.40625 0 
z
" id="DejaVuSans-31"/>
      </defs>
      <g transform="translate(160.234398 222.812856)scale(0.15 -0.15)">
       <use xlink:href="#DejaVuSans-31"/>
       <use x="63.623047" xlink:href="#DejaVuSans-30"/>
      </g>
     </g>
    </g>
    <g id="xtick_4">
     <g id="line2d_4">
      <g>
       <use style="stroke:#000000;stroke-width:0.8;" x="215.155176" xlink:href="#m77e23159ad" y="204.4152"/>
      </g>
     </g>
     <g id="text_4">
      <!-- 15 -->
      <g transform="translate(205.611426 222.812856)scale(0.15 -0.15)">
       <use xlink:href="#DejaVuSans-31"/>
       <use x="63.623047" xlink:href="#DejaVuSans-35"/>
      </g>
     </g>
    </g>
    <g id="xtick_5">
     <g id="line2d_5">
      <g>
       <use style="stroke:#000000;stroke-width:0.8;" x="260.532204" xlink:href="#m77e23159ad" y="204.4152"/>
      </g>
     </g>
     <g id="text_5">
      <!-- 20 -->
      <defs>
       <path d="M 19.1875 8.296875 
L 53.609375 8.296875 
L 53.609375 0 
L 7.328125 0 
L 7.328125 8.296875 
Q 12.9375 14.109375 22.625 23.890625 
Q 32.328125 33.6875 34.8125 36.53125 
Q 39.546875 41.84375 41.421875 45.53125 
Q 43.3125 49.21875 43.3125 52.78125 
Q 43.3125 58.59375 39.234375 62.25 
Q 35.15625 65.921875 28.609375 65.921875 
Q 23.96875 65.921875 18.8125 64.3125 
Q 13.671875 62.703125 7.8125 59.421875 
L 7.8125 69.390625 
Q 13.765625 71.78125 18.9375 73 
Q 24.125 74.21875 28.421875 74.21875 
Q 39.75 74.21875 46.484375 68.546875 
Q 53.21875 62.890625 53.21875 53.421875 
Q 53.21875 48.921875 51.53125 44.890625 
Q 49.859375 40.875 45.40625 35.40625 
Q 44.1875 33.984375 37.640625 27.21875 
Q 31.109375 20.453125 19.1875 8.296875 
z
" id="DejaVuSans-32"/>
      </defs>
      <g transform="translate(250.988454 222.812856)scale(0.15 -0.15)">
       <use xlink:href="#DejaVuSans-32"/>
       <use x="63.623047" xlink:href="#DejaVuSans-30"/>
      </g>
     </g>
    </g>
    <g id="xtick_6">
     <g id="line2d_6">
      <g>
       <use style="stroke:#000000;stroke-width:0.8;" x="305.909233" xlink:href="#m77e23159ad" y="204.4152"/>
      </g>
     </g>
     <g id="text_6">
      <!-- 25 -->
      <g transform="translate(296.365483 222.812856)scale(0.15 -0.15)">
       <use xlink:href="#DejaVuSans-32"/>
       <use x="63.623047" xlink:href="#DejaVuSans-35"/>
      </g>
     </g>
    </g>
    <g id="xtick_7">
     <g id="line2d_7">
      <g>
       <use style="stroke:#000000;stroke-width:0.8;" x="351.286261" xlink:href="#m77e23159ad" y="204.4152"/>
      </g>
     </g>
     <g id="text_7">
      <!-- 30 -->
      <defs>
       <path d="M 40.578125 39.3125 
Q 47.65625 37.796875 51.625 33 
Q 55.609375 28.21875 55.609375 21.1875 
Q 55.609375 10.40625 48.1875 4.484375 
Q 40.765625 -1.421875 27.09375 -1.421875 
Q 22.515625 -1.421875 17.65625 -0.515625 
Q 12.796875 0.390625 7.625 2.203125 
L 7.625 11.71875 
Q 11.71875 9.328125 16.59375 8.109375 
Q 21.484375 6.890625 26.8125 6.890625 
Q 36.078125 6.890625 40.9375 10.546875 
Q 45.796875 14.203125 45.796875 21.1875 
Q 45.796875 27.640625 41.28125 31.265625 
Q 36.765625 34.90625 28.71875 34.90625 
L 20.21875 34.90625 
L 20.21875 43.015625 
L 29.109375 43.015625 
Q 36.375 43.015625 40.234375 45.921875 
Q 44.09375 48.828125 44.09375 54.296875 
Q 44.09375 59.90625 40.109375 62.90625 
Q 36.140625 65.921875 28.71875 65.921875 
Q 24.65625 65.921875 20.015625 65.03125 
Q 15.375 64.15625 9.8125 62.3125 
L 9.8125 71.09375 
Q 15.4375 72.65625 20.34375 73.4375 
Q 25.25 74.21875 29.59375 74.21875 
Q 40.828125 74.21875 47.359375 69.109375 
Q 53.90625 64.015625 53.90625 55.328125 
Q 53.90625 49.265625 50.4375 45.09375 
Q 46.96875 40.921875 40.578125 39.3125 
z
" id="DejaVuSans-33"/>
      </defs>
      <g transform="translate(341.742511 222.812856)scale(0.15 -0.15)">
       <use xlink:href="#DejaVuSans-33"/>
       <use x="63.623047" xlink:href="#DejaVuSans-30"/>
      </g>
     </g>
    </g>
    <g id="xtick_8">
     <g id="line2d_8">
      <g>
       <use style="stroke:#000000;stroke-width:0.8;" x="396.663289" xlink:href="#m77e23159ad" y="204.4152"/>
      </g>
     </g>
     <g id="text_8">
      <!-- 35 -->
      <g transform="translate(387.119539 222.812856)scale(0.15 -0.15)">
       <use xlink:href="#DejaVuSans-33"/>
       <use x="63.623047" xlink:href="#DejaVuSans-35"/>
      </g>
     </g>
    </g>
    <g id="xtick_9">
     <g id="line2d_9">
      <g>
       <use style="stroke:#000000;stroke-width:0.8;" x="442.040318" xlink:href="#m77e23159ad" y="204.4152"/>
      </g>
     </g>
     <g id="text_9">
      <!-- 40 -->
      <defs>
       <path d="M 37.796875 64.3125 
L 12.890625 25.390625 
L 37.796875 25.390625 
z
M 35.203125 72.90625 
L 47.609375 72.90625 
L 47.609375 25.390625 
L 58.015625 25.390625 
L 58.015625 17.1875 
L 47.609375 17.1875 
L 47.609375 0 
L 37.796875 0 
L 37.796875 17.1875 
L 4.890625 17.1875 
L 4.890625 26.703125 
z
" id="DejaVuSans-34"/>
      </defs>
      <g transform="translate(432.496568 222.812856)scale(0.15 -0.15)">
       <use xlink:href="#DejaVuSans-34"/>
       <use x="63.623047" xlink:href="#DejaVuSans-30"/>
      </g>
     </g>
    </g>
   </g>
   <g id="matplotlib.axis_2">
    <g id="ytick_1">
     <g id="line2d_10">
      <defs>
       <path d="M 0 0 
L -3.5 0 
" id="m20b04e26d4" style="stroke:#000000;stroke-width:0.8;"/>
      </defs>
      <g>
       <use style="stroke:#000000;stroke-width:0.8;" x="61.65" xlink:href="#m20b04e26d4" y="182.14434"/>
      </g>
     </g>
     <g id="text_10">
      <!-- 2600 -->
      <defs>
       <path d="M 33.015625 40.375 
Q 26.375 40.375 22.484375 35.828125 
Q 18.609375 31.296875 18.609375 23.390625 
Q 18.609375 15.53125 22.484375 10.953125 
Q 26.375 6.390625 33.015625 6.390625 
Q 39.65625 6.390625 43.53125 10.953125 
Q 47.40625 15.53125 47.40625 23.390625 
Q 47.40625 31.296875 43.53125 35.828125 
Q 39.65625 40.375 33.015625 40.375 
z
M 52.59375 71.296875 
L 52.59375 62.3125 
Q 48.875 64.0625 45.09375 64.984375 
Q 41.3125 65.921875 37.59375 65.921875 
Q 27.828125 65.921875 22.671875 59.328125 
Q 17.53125 52.734375 16.796875 39.40625 
Q 19.671875 43.65625 24.015625 45.921875 
Q 28.375 48.1875 33.59375 48.1875 
Q 44.578125 48.1875 50.953125 41.515625 
Q 57.328125 34.859375 57.328125 23.390625 
Q 57.328125 12.15625 50.6875 5.359375 
Q 44.046875 -1.421875 33.015625 -1.421875 
Q 20.359375 -1.421875 13.671875 8.265625 
Q 6.984375 17.96875 6.984375 36.375 
Q 6.984375 53.65625 15.1875 63.9375 
Q 23.390625 74.21875 37.203125 74.21875 
Q 40.921875 74.21875 44.703125 73.484375 
Q 48.484375 72.75 52.59375 71.296875 
z
" id="DejaVuSans-36"/>
      </defs>
      <g transform="translate(16.475 187.843168)scale(0.15 -0.15)">
       <use xlink:href="#DejaVuSans-32"/>
       <use x="63.623047" xlink:href="#DejaVuSans-36"/>
       <use x="127.246094" xlink:href="#DejaVuSans-30"/>
       <use x="190.869141" xlink:href="#DejaVuSans-30"/>
      </g>
     </g>
    </g>
    <g id="ytick_2">
     <g id="line2d_11">
      <g>
       <use style="stroke:#000000;stroke-width:0.8;" x="61.65" xlink:href="#m20b04e26d4" y="158.049392"/>
      </g>
     </g>
     <g id="text_11">
      <!-- 2650 -->
      <g transform="translate(16.475 163.748221)scale(0.15 -0.15)">
       <use xlink:href="#DejaVuSans-32"/>
       <use x="63.623047" xlink:href="#DejaVuSans-36"/>
       <use x="127.246094" xlink:href="#DejaVuSans-35"/>
       <use x="190.869141" xlink:href="#DejaVuSans-30"/>
      </g>
     </g>
    </g>
    <g id="ytick_3">
     <g id="line2d_12">
      <g>
       <use style="stroke:#000000;stroke-width:0.8;" x="61.65" xlink:href="#m20b04e26d4" y="133.954445"/>
      </g>
     </g>
     <g id="text_12">
      <!-- 2700 -->
      <defs>
       <path d="M 8.203125 72.90625 
L 55.078125 72.90625 
L 55.078125 68.703125 
L 28.609375 0 
L 18.3125 0 
L 43.21875 64.59375 
L 8.203125 64.59375 
z
" id="DejaVuSans-37"/>
      </defs>
      <g transform="translate(16.475 139.653273)scale(0.15 -0.15)">
       <use xlink:href="#DejaVuSans-32"/>
       <use x="63.623047" xlink:href="#DejaVuSans-37"/>
       <use x="127.246094" xlink:href="#DejaVuSans-30"/>
       <use x="190.869141" xlink:href="#DejaVuSans-30"/>
      </g>
     </g>
    </g>
    <g id="ytick_4">
     <g id="line2d_13">
      <g>
       <use style="stroke:#000000;stroke-width:0.8;" x="61.65" xlink:href="#m20b04e26d4" y="109.859497"/>
      </g>
     </g>
     <g id="text_13">
      <!-- 2750 -->
      <g transform="translate(16.475 115.558325)scale(0.15 -0.15)">
       <use xlink:href="#DejaVuSans-32"/>
       <use x="63.623047" xlink:href="#DejaVuSans-37"/>
       <use x="127.246094" xlink:href="#DejaVuSans-35"/>
       <use x="190.869141" xlink:href="#DejaVuSans-30"/>
      </g>
     </g>
    </g>
    <g id="ytick_5">
     <g id="line2d_14">
      <g>
       <use style="stroke:#000000;stroke-width:0.8;" x="61.65" xlink:href="#m20b04e26d4" y="85.76455"/>
      </g>
     </g>
     <g id="text_14">
      <!-- 2800 -->
      <defs>
       <path d="M 31.78125 34.625 
Q 24.75 34.625 20.71875 30.859375 
Q 16.703125 27.09375 16.703125 20.515625 
Q 16.703125 13.921875 20.71875 10.15625 
Q 24.75 6.390625 31.78125 6.390625 
Q 38.8125 6.390625 42.859375 10.171875 
Q 46.921875 13.96875 46.921875 20.515625 
Q 46.921875 27.09375 42.890625 30.859375 
Q 38.875 34.625 31.78125 34.625 
z
M 21.921875 38.8125 
Q 15.578125 40.375 12.03125 44.71875 
Q 8.5 49.078125 8.5 55.328125 
Q 8.5 64.0625 14.71875 69.140625 
Q 20.953125 74.21875 31.78125 74.21875 
Q 42.671875 74.21875 48.875 69.140625 
Q 55.078125 64.0625 55.078125 55.328125 
Q 55.078125 49.078125 51.53125 44.71875 
Q 48 40.375 41.703125 38.8125 
Q 48.828125 37.15625 52.796875 32.3125 
Q 56.78125 27.484375 56.78125 20.515625 
Q 56.78125 9.90625 50.3125 4.234375 
Q 43.84375 -1.421875 31.78125 -1.421875 
Q 19.734375 -1.421875 13.25 4.234375 
Q 6.78125 9.90625 6.78125 20.515625 
Q 6.78125 27.484375 10.78125 32.3125 
Q 14.796875 37.15625 21.921875 38.8125 
z
M 18.3125 54.390625 
Q 18.3125 48.734375 21.84375 45.5625 
Q 25.390625 42.390625 31.78125 42.390625 
Q 38.140625 42.390625 41.71875 45.5625 
Q 45.3125 48.734375 45.3125 54.390625 
Q 45.3125 60.0625 41.71875 63.234375 
Q 38.140625 66.40625 31.78125 66.40625 
Q 25.390625 66.40625 21.84375 63.234375 
Q 18.3125 60.0625 18.3125 54.390625 
z
" id="DejaVuSans-38"/>
      </defs>
      <g transform="translate(16.475 91.463378)scale(0.15 -0.15)">
       <use xlink:href="#DejaVuSans-32"/>
       <use x="63.623047" xlink:href="#DejaVuSans-38"/>
       <use x="127.246094" xlink:href="#DejaVuSans-30"/>
       <use x="190.869141" xlink:href="#DejaVuSans-30"/>
      </g>
     </g>
    </g>
    <g id="ytick_6">
     <g id="line2d_15">
      <g>
       <use style="stroke:#000000;stroke-width:0.8;" x="61.65" xlink:href="#m20b04e26d4" y="61.669602"/>
      </g>
     </g>
     <g id="text_15">
      <!-- 2850 -->
      <g transform="translate(16.475 67.36843)scale(0.15 -0.15)">
       <use xlink:href="#DejaVuSans-32"/>
       <use x="63.623047" xlink:href="#DejaVuSans-38"/>
       <use x="127.246094" xlink:href="#DejaVuSans-35"/>
       <use x="190.869141" xlink:href="#DejaVuSans-30"/>
      </g>
     </g>
    </g>
    <g id="ytick_7">
     <g id="line2d_16">
      <g>
       <use style="stroke:#000000;stroke-width:0.8;" x="61.65" xlink:href="#m20b04e26d4" y="37.574654"/>
      </g>
     </g>
     <g id="text_16">
      <!-- 2900 -->
      <defs>
       <path d="M 10.984375 1.515625 
L 10.984375 10.5 
Q 14.703125 8.734375 18.5 7.8125 
Q 22.3125 6.890625 25.984375 6.890625 
Q 35.75 6.890625 40.890625 13.453125 
Q 46.046875 20.015625 46.78125 33.40625 
Q 43.953125 29.203125 39.59375 26.953125 
Q 35.25 24.703125 29.984375 24.703125 
Q 19.046875 24.703125 12.671875 31.3125 
Q 6.296875 37.9375 6.296875 49.421875 
Q 6.296875 60.640625 12.9375 67.421875 
Q 19.578125 74.21875 30.609375 74.21875 
Q 43.265625 74.21875 49.921875 64.515625 
Q 56.59375 54.828125 56.59375 36.375 
Q 56.59375 19.140625 48.40625 8.859375 
Q 40.234375 -1.421875 26.421875 -1.421875 
Q 22.703125 -1.421875 18.890625 -0.6875 
Q 15.09375 0.046875 10.984375 1.515625 
z
M 30.609375 32.421875 
Q 37.25 32.421875 41.125 36.953125 
Q 45.015625 41.5 45.015625 49.421875 
Q 45.015625 57.28125 41.125 61.84375 
Q 37.25 66.40625 30.609375 66.40625 
Q 23.96875 66.40625 20.09375 61.84375 
Q 16.21875 57.28125 16.21875 49.421875 
Q 16.21875 41.5 20.09375 36.953125 
Q 23.96875 32.421875 30.609375 32.421875 
z
" id="DejaVuSans-39"/>
      </defs>
      <g transform="translate(16.475 43.273483)scale(0.15 -0.15)">
       <use xlink:href="#DejaVuSans-32"/>
       <use x="63.623047" xlink:href="#DejaVuSans-39"/>
       <use x="127.246094" xlink:href="#DejaVuSans-30"/>
       <use x="190.869141" xlink:href="#DejaVuSans-30"/>
      </g>
     </g>
    </g>
   </g>
   <g id="line2d_17">
    <path clip-path="url(#p5d8e5b6b61)" d="M 79.024091 196.3764 
L 81.919773 196.376004 
L 84.815455 196.375191 
L 87.711136 196.373959 
L 90.606818 196.372308 
L 93.5025 196.37024 
L 96.398182 196.367753 
L 99.293864 196.364848 
L 102.189545 196.361525 
L 105.085227 196.357784 
L 107.980909 196.353625 
L 110.876591 196.349049 
L 113.772273 196.344054 
L 116.667955 196.338641 
L 119.563636 196.33281 
L 122.459318 196.326561 
L 125.355 196.319895 
L 128.250682 196.312811 
L 131.146364 196.305309 
L 134.042045 196.297389 
L 136.937727 196.289052 
L 139.833409 196.280297 
L 142.729091 196.271125 
L 145.624773 196.261535 
L 148.520455 196.251528 
L 151.416136 196.241103 
L 154.311818 196.230261 
L 157.2075 196.219002 
L 160.103182 196.207325 
L 162.998864 196.195231 
L 165.894545 196.18272 
L 168.790227 196.169792 
L 171.685909 196.156447 
L 174.581591 196.142685 
L 177.477273 196.128506 
L 180.372955 196.11391 
L 183.268636 196.098897 
L 186.164318 196.083467 
L 189.06 196.067621 
L 191.955682 196.051358 
L 194.851364 196.034678 
L 197.747045 196.017582 
L 200.642727 196.00007 
L 203.538409 195.982141 
L 206.434091 195.963795 
L 209.329773 195.945034 
L 212.225455 195.925856 
L 215.121136 195.906262 
L 218.016818 195.886252 
L 220.9125 195.865826 
L 223.808182 195.844984 
L 226.703864 195.823726 
L 229.599545 195.802052 
L 232.495227 195.779962 
L 235.390909 195.757457 
L 238.286591 195.734537 
L 241.182273 195.7112 
L 244.077955 195.687449 
L 246.973636 195.663282 
L 249.869318 195.638699 
L 252.765 195.613702 
L 255.660682 195.588289 
L 258.556364 195.562461 
L 261.452045 195.536219 
L 264.347727 195.509561 
L 267.243409 195.482489 
L 270.139091 195.455002 
L 273.034773 195.4271 
L 275.930455 195.398783 
L 278.826136 195.370053 
L 281.721818 195.340907 
L 284.6175 195.311348 
L 287.513182 195.281374 
L 290.408864 195.250986 
L 293.304545 195.220184 
L 296.200227 195.188968 
L 299.095909 195.157339 
L 301.991591 195.125295 
L 304.887273 195.092838 
L 307.782955 195.059967 
L 310.678636 195.026683 
L 313.574318 194.992985 
L 316.47 194.958874 
L 319.365682 194.92435 
L 322.261364 194.889413 
L 325.157045 194.854063 
L 328.052727 194.8183 
L 330.948409 194.782124 
L 333.844091 194.745535 
L 336.739773 194.708534 
L 339.635455 194.67112 
L 342.531136 194.633294 
L 345.426818 194.595055 
L 348.3225 194.556405 
L 351.218182 194.517342 
L 354.113864 194.477867 
L 357.009545 194.437981 
L 359.905227 194.397682 
L 362.800909 194.356972 
L 365.696591 194.315851 
L 368.592273 194.274318 
L 371.487955 194.232373 
L 374.383636 194.190018 
L 377.279318 194.147251 
L 380.175 194.104073 
L 383.070682 194.060485 
L 385.966364 194.016486 
L 388.862045 193.972076 
L 391.757727 193.927256 
L 394.653409 193.882025 
L 397.549091 193.836384 
L 400.444773 193.790332 
L 403.340455 193.743871 
L 406.236136 193.697 
L 409.131818 193.649719 
L 412.0275 193.602028 
L 414.923182 193.553928 
L 417.818864 193.505418 
L 420.714545 193.456499 
L 423.610227 193.407171 
L 426.505909 193.357434 
" style="fill:none;stroke:#1f77b4;stroke-linecap:square;stroke-width:3;"/>
   </g>
   <g id="line2d_18">
    <path clip-path="url(#p5d8e5b6b61)" d="M 79.024091 35.6004 
L 81.919773 35.614598 
L 84.815455 35.633859 
L 87.711136 35.65812 
L 90.606818 35.687315 
L 93.5025 35.721369 
L 96.398182 35.760203 
L 99.293864 35.803731 
L 102.189545 35.851864 
L 105.085227 35.904506 
L 107.980909 35.961559 
L 110.876591 36.022922 
L 113.772273 36.088492 
L 116.667955 36.158161 
L 119.563636 36.231822 
L 122.459318 36.309366 
L 125.355 36.390683 
L 128.250682 36.475663 
L 131.146364 36.564196 
L 134.042045 36.656173 
L 136.937727 36.751485 
L 139.833409 36.850024 
L 142.729091 36.951683 
L 145.624773 37.056359 
L 148.520455 37.163947 
L 151.416136 37.274347 
L 154.311818 37.387459 
L 157.2075 37.503187 
L 160.103182 37.621435 
L 162.998864 37.742112 
L 165.894545 37.865127 
L 168.790227 37.990394 
L 171.685909 38.117827 
L 174.581591 38.247343 
L 177.477273 38.378863 
L 180.372955 38.51231 
L 183.268636 38.647609 
L 186.164318 38.784686 
L 189.06 38.923473 
L 191.955682 39.063901 
L 194.851364 39.205905 
L 197.747045 39.349422 
L 200.642727 39.494391 
L 203.538409 39.640754 
L 206.434091 39.788453 
L 209.329773 39.937435 
L 212.225455 40.087647 
L 215.121136 40.239039 
L 218.016818 40.391561 
L 220.9125 40.545167 
L 223.808182 40.699811 
L 226.703864 40.855451 
L 229.599545 41.012044 
L 232.495227 41.16955 
L 235.390909 41.327931 
L 238.286591 41.487148 
L 241.182273 41.647166 
L 244.077955 41.807952 
L 246.973636 41.96947 
L 249.869318 42.13169 
L 252.765 42.29458 
L 255.660682 42.45811 
L 258.556364 42.622253 
L 261.452045 42.786981 
L 264.347727 42.952267 
L 267.243409 43.118086 
L 270.139091 43.284412 
L 273.034773 43.451223 
L 275.930455 43.618496 
L 278.826136 43.786209 
L 281.721818 43.954339 
L 284.6175 44.122868 
L 287.513182 44.291776 
L 290.408864 44.461042 
L 293.304545 44.63065 
L 296.200227 44.800581 
L 299.095909 44.970819 
L 301.991591 45.141347 
L 304.887273 45.312149 
L 307.782955 45.483209 
L 310.678636 45.654514 
L 313.574318 45.826048 
L 316.47 45.997799 
L 319.365682 46.169752 
L 322.261364 46.341895 
L 325.157045 46.514215 
L 328.052727 46.686701 
L 330.948409 46.859341 
L 333.844091 47.032123 
L 336.739773 47.205037 
L 339.635455 47.378072 
L 342.531136 47.551218 
L 345.426818 47.724466 
L 348.3225 47.897805 
L 351.218182 48.071227 
L 354.113864 48.244722 
L 357.009545 48.418283 
L 359.905227 48.5919 
L 362.800909 48.765566 
L 365.696591 48.939272 
L 368.592273 49.113012 
L 371.487955 49.286777 
L 374.383636 49.460561 
L 377.279318 49.634357 
L 380.175 49.808157 
L 383.070682 49.981956 
L 385.966364 50.155748 
L 388.862045 50.329525 
L 391.757727 50.503283 
L 394.653409 50.677014 
L 397.549091 50.850715 
L 400.444773 51.024379 
L 403.340455 51.198 
L 406.236136 51.371575 
L 409.131818 51.545097 
L 412.0275 51.718563 
L 414.923182 51.891967 
L 417.818864 52.065304 
L 420.714545 52.238571 
L 423.610227 52.411763 
L 426.505909 52.584876 
" style="fill:none;stroke:#1f77b4;stroke-linecap:square;stroke-width:3;"/>
   </g>
   <g id="line2d_19">
    <path clip-path="url(#p5d8e5b6b61)" d="M 79.024091 123.249809 
L 81.919773 123.047318 
L 84.815455 122.844494 
L 87.711136 122.641335 
L 90.606818 122.437842 
L 93.5025 122.234016 
L 96.398182 122.029856 
L 99.293864 121.825364 
L 102.189545 121.620538 
L 105.085227 121.41538 
L 107.980909 121.209889 
L 110.876591 121.004066 
L 113.772273 120.797911 
L 116.667955 120.591425 
L 119.563636 120.384607 
L 122.459318 120.177457 
L 125.355 119.969977 
L 128.250682 119.762166 
L 131.146364 119.554025 
L 134.042045 119.345554 
L 136.937727 119.136752 
L 139.833409 118.927621 
L 142.729091 118.718161 
L 145.624773 118.508372 
L 148.520455 118.298253 
L 151.416136 118.087806 
L 154.311818 117.877031 
L 157.2075 117.665928 
L 160.103182 117.454497 
L 162.998864 117.242738 
L 165.894545 117.030652 
L 168.790227 116.818239 
L 171.685909 116.6055 
L 174.581591 116.392434 
L 177.477273 116.179042 
L 180.372955 115.965324 
L 183.268636 115.751281 
L 186.164318 115.536913 
L 189.06 115.322219 
L 191.955682 115.107201 
L 194.851364 114.891859 
L 197.747045 114.676192 
L 200.642727 114.460202 
L 203.538409 114.243888 
L 206.434091 114.027252 
L 209.329773 113.810292 
L 212.225455 113.59301 
L 215.121136 113.375405 
L 218.016818 113.157479 
L 220.9125 112.939231 
L 223.808182 112.720662 
L 226.703864 112.501772 
L 229.599545 112.282561 
L 232.495227 112.06303 
L 235.390909 111.843179 
L 238.286591 111.623009 
L 241.182273 111.402519 
L 244.077955 111.18171 
L 246.973636 110.960582 
L 249.869318 110.739136 
L 252.765 110.517372 
L 255.660682 110.295291 
L 258.556364 110.072892 
L 261.452045 109.850176 
L 264.347727 109.627144 
L 267.243409 109.403795 
L 270.139091 109.180131 
L 273.034773 108.956151 
L 275.930455 108.731856 
L 278.826136 108.507246 
L 281.721818 108.282322 
L 284.6175 108.057084 
L 287.513182 107.831531 
L 290.408864 107.605666 
L 293.304545 107.379488 
L 296.200227 107.152997 
L 299.095909 106.926194 
L 301.991591 106.699079 
L 304.887273 106.471653 
L 307.782955 106.243915 
L 310.678636 106.015867 
L 313.574318 105.787509 
L 316.47 105.558841 
L 319.365682 105.329863 
L 322.261364 105.100577 
L 325.157045 104.870982 
L 328.052727 104.641078 
L 330.948409 104.410867 
L 333.844091 104.180348 
L 336.739773 103.949523 
L 339.635455 103.71839 
L 342.531136 103.486952 
L 345.426818 103.255208 
L 348.3225 103.023159 
L 351.218182 102.790804 
L 354.113864 102.558146 
L 357.009545 102.325183 
L 359.905227 102.091917 
L 362.800909 101.858348 
L 365.696591 101.624476 
L 368.592273 101.390301 
L 371.487955 101.155826 
L 374.383636 100.921048 
L 377.279318 100.68597 
L 380.175 100.450592 
L 383.070682 100.214914 
L 385.966364 99.978936 
L 388.862045 99.74266 
L 391.757727 99.506085 
L 394.653409 99.269211 
L 397.549091 99.032041 
L 400.444773 98.794573 
L 403.340455 98.556809 
L 406.236136 98.318749 
L 409.131818 98.080394 
L 412.0275 97.841743 
L 414.923182 97.602798 
L 417.818864 97.363559 
L 420.714545 97.124026 
L 423.610227 96.8842 
L 426.505909 96.644082 
" style="fill:none;stroke:#1f77b4;stroke-linecap:square;stroke-width:3;"/>
   </g>
   <g id="line2d_20">
    <path clip-path="url(#p5d8e5b6b61)" d="M 79.024091 88.201082 
L 81.919773 88.632346 
L 84.815455 89.063641 
L 87.711136 89.494965 
L 90.606818 89.926316 
L 93.5025 90.357693 
L 96.398182 90.789096 
L 99.293864 91.220522 
L 102.189545 91.651971 
L 105.085227 92.083441 
L 107.980909 92.514932 
L 110.876591 92.946442 
L 113.772273 93.377971 
L 116.667955 93.809516 
L 119.563636 94.241078 
L 122.459318 94.672655 
L 125.355 95.104247 
L 128.250682 95.535852 
L 131.146364 95.967469 
L 134.042045 96.399097 
L 136.937727 96.830737 
L 139.833409 97.262386 
L 142.729091 97.694044 
L 145.624773 98.12571 
L 148.520455 98.557384 
L 151.416136 98.989064 
L 154.311818 99.42075 
L 157.2075 99.852441 
L 160.103182 100.284137 
L 162.998864 100.715836 
L 165.894545 101.147538 
L 168.790227 101.579243 
L 171.685909 102.010949 
L 174.581591 102.442656 
L 177.477273 102.874364 
L 180.372955 103.306071 
L 183.268636 103.737777 
L 186.164318 104.169482 
L 189.06 104.601185 
L 191.955682 105.032885 
L 194.851364 105.464582 
L 197.747045 105.896276 
L 200.642727 106.327965 
L 203.538409 106.759649 
L 206.434091 107.191328 
L 209.329773 107.623002 
L 212.225455 108.054669 
L 215.121136 108.486329 
L 218.016818 108.917982 
L 220.9125 109.349627 
L 223.808182 109.781265 
L 226.703864 110.212893 
L 229.599545 110.644513 
L 232.495227 111.076123 
L 235.390909 111.507724 
L 238.286591 111.939314 
L 241.182273 112.370893 
L 244.077955 112.802462 
L 246.973636 113.234019 
L 249.869318 113.665564 
L 252.765 114.097097 
L 255.660682 114.528617 
L 258.556364 114.960125 
L 261.452045 115.391619 
L 264.347727 115.823099 
L 267.243409 116.254566 
L 270.139091 116.686018 
L 273.034773 117.117456 
L 275.930455 117.548879 
L 278.826136 117.980286 
L 281.721818 118.411678 
L 284.6175 118.843054 
L 287.513182 119.274414 
L 290.408864 119.705758 
L 293.304545 120.137085 
L 296.200227 120.568395 
L 299.095909 120.999687 
L 301.991591 121.430962 
L 304.887273 121.862219 
L 307.782955 122.293458 
L 310.678636 122.724679 
L 313.574318 123.155881 
L 316.47 123.587064 
L 319.365682 124.018228 
L 322.261364 124.449372 
L 325.157045 124.880498 
L 328.052727 125.311603 
L 330.948409 125.742688 
L 333.844091 126.173753 
L 336.739773 126.604797 
L 339.635455 127.035821 
L 342.531136 127.466824 
L 345.426818 127.897805 
L 348.3225 128.328766 
L 351.218182 128.759704 
L 354.113864 129.190621 
L 357.009545 129.621516 
L 359.905227 130.052389 
L 362.800909 130.48324 
L 365.696591 130.914067 
L 368.592273 131.344873 
L 371.487955 131.775655 
L 374.383636 132.206414 
L 377.279318 132.63715 
L 380.175 133.067862 
L 383.070682 133.498551 
L 385.966364 133.929216 
L 388.862045 134.359857 
L 391.757727 134.790474 
L 394.653409 135.221067 
L 397.549091 135.651635 
L 400.444773 136.082179 
L 403.340455 136.512698 
L 406.236136 136.943192 
L 409.131818 137.373661 
L 412.0275 137.804104 
L 414.923182 138.234523 
L 417.818864 138.664916 
L 420.714545 139.095283 
L 423.610227 139.525624 
L 426.505909 139.95594 
" style="fill:none;stroke:#1f77b4;stroke-linecap:square;stroke-width:3;"/>
   </g>
   <g id="patch_3">
    <path d="M 61.65 204.4152 
L 61.65 27.5616 
" style="fill:none;stroke:#000000;stroke-linecap:square;stroke-linejoin:miter;stroke-width:0.8;"/>
   </g>
   <g id="patch_4">
    <path d="M 443.88 204.4152 
L 443.88 27.5616 
" style="fill:none;stroke:#000000;stroke-linecap:square;stroke-linejoin:miter;stroke-width:0.8;"/>
   </g>
   <g id="patch_5">
    <path d="M 61.65 204.4152 
L 443.88 204.4152 
" style="fill:none;stroke:#000000;stroke-linecap:square;stroke-linejoin:miter;stroke-width:0.8;"/>
   </g>
   <g id="patch_6">
    <path d="M 61.65 27.5616 
L 443.88 27.5616 
" style="fill:none;stroke:#000000;stroke-linecap:square;stroke-linejoin:miter;stroke-width:0.8;"/>
   </g>
  </g>
 </g>
 <defs>
  <clipPath id="p5d8e5b6b61">
   <rect height="176.8536" width="382.23" x="61.65" y="27.5616"/>
  </clipPath>
 </defs>
</svg>
