<?xml version="1.0" encoding="utf-8" standalone="no"?>
<!DOCTYPE svg PUBLIC "-//W3C//DTD SVG 1.1//EN"
  "http://www.w3.org/Graphics/SVG/1.1/DTD/svg11.dtd">
<!-- Created with matplotlib (http://matplotlib.org/) -->
<svg height="504pt" version="1.1" viewBox="0 0 792 504" width="792pt" xmlns="http://www.w3.org/2000/svg" xmlns:xlink="http://www.w3.org/1999/xlink">
 <defs>
  <style type="text/css">
*{stroke-linecap:butt;stroke-linejoin:round;}
  </style>
 </defs>
 <g id="figure_1">
  <g id="patch_1">
   <path d="M 0 504 
L 792 504 
L 792 0 
L 0 0 
z
" style="fill:#ffffff;"/>
  </g>
  <g id="axes_1">
   <g id="patch_2">
    <path d="M 99 448.56 
L 712.8 448.56 
L 712.8 60.48 
L 99 60.48 
z
" style="fill:#ffffff;"/>
   </g>
   <g id="matplotlib.axis_1">
    <g id="xtick_1">
     <g id="line2d_1">
      <defs>
       <path d="M 0 0 
L 0 3.5 
" id="m3b553a4489" style="stroke:#000000;stroke-width:0.8;"/>
      </defs>
      <g>
       <use style="stroke:#000000;stroke-width:0.8;" x="126.9" xlink:href="#m3b553a4489" y="448.56"/>
      </g>
     </g>
     <g id="text_1">
      <!-- 0 -->
      <defs>
       <path d="M 31.78125 66.40625 
Q 24.171875 66.40625 20.328125 58.90625 
Q 16.5 51.421875 16.5 36.375 
Q 16.5 21.390625 20.328125 13.890625 
Q 24.171875 6.390625 31.78125 6.390625 
Q 39.453125 6.390625 43.28125 13.890625 
Q 47.125 21.390625 47.125 36.375 
Q 47.125 51.421875 43.28125 58.90625 
Q 39.453125 66.40625 31.78125 66.40625 
z
M 31.78125 74.21875 
Q 44.046875 74.21875 50.515625 64.515625 
Q 56.984375 54.828125 56.984375 36.375 
Q 56.984375 17.96875 50.515625 8.265625 
Q 44.046875 -1.421875 31.78125 -1.421875 
Q 19.53125 -1.421875 13.0625 8.265625 
Q 6.59375 17.96875 6.59375 36.375 
Q 6.59375 54.828125 13.0625 64.515625 
Q 19.53125 74.21875 31.78125 74.21875 
z
" id="DejaVuSans-30"/>
      </defs>
      <g transform="translate(120.5375 470.756875)scale(0.2 -0.2)">
       <use xlink:href="#DejaVuSans-30"/>
      </g>
     </g>
    </g>
    <g id="xtick_2">
     <g id="line2d_2">
      <g>
       <use style="stroke:#000000;stroke-width:0.8;" x="263.263636" xlink:href="#m3b553a4489" y="448.56"/>
      </g>
     </g>
     <g id="text_2">
      <!-- 10 -->
      <defs>
       <path d="M 12.40625 8.296875 
L 28.515625 8.296875 
L 28.515625 63.921875 
L 10.984375 60.40625 
L 10.984375 69.390625 
L 28.421875 72.90625 
L 38.28125 72.90625 
L 38.28125 8.296875 
L 54.390625 8.296875 
L 54.390625 0 
L 12.40625 0 
z
" id="DejaVuSans-31"/>
      </defs>
      <g transform="translate(250.538636 470.756875)scale(0.2 -0.2)">
       <use xlink:href="#DejaVuSans-31"/>
       <use x="63.623047" xlink:href="#DejaVuSans-30"/>
      </g>
     </g>
    </g>
    <g id="xtick_3">
     <g id="line2d_3">
      <g>
       <use style="stroke:#000000;stroke-width:0.8;" x="399.627273" xlink:href="#m3b553a4489" y="448.56"/>
      </g>
     </g>
     <g id="text_3">
      <!-- 20 -->
      <defs>
       <path d="M 19.1875 8.296875 
L 53.609375 8.296875 
L 53.609375 0 
L 7.328125 0 
L 7.328125 8.296875 
Q 12.9375 14.109375 22.625 23.890625 
Q 32.328125 33.6875 34.8125 36.53125 
Q 39.546875 41.84375 41.421875 45.53125 
Q 43.3125 49.21875 43.3125 52.78125 
Q 43.3125 58.59375 39.234375 62.25 
Q 35.15625 65.921875 28.609375 65.921875 
Q 23.96875 65.921875 18.8125 64.3125 
Q 13.671875 62.703125 7.8125 59.421875 
L 7.8125 69.390625 
Q 13.765625 71.78125 18.9375 73 
Q 24.125 74.21875 28.421875 74.21875 
Q 39.75 74.21875 46.484375 68.546875 
Q 53.21875 62.890625 53.21875 53.421875 
Q 53.21875 48.921875 51.53125 44.890625 
Q 49.859375 40.875 45.40625 35.40625 
Q 44.1875 33.984375 37.640625 27.21875 
Q 31.109375 20.453125 19.1875 8.296875 
z
" id="DejaVuSans-32"/>
      </defs>
      <g transform="translate(386.902273 470.756875)scale(0.2 -0.2)">
       <use xlink:href="#DejaVuSans-32"/>
       <use x="63.623047" xlink:href="#DejaVuSans-30"/>
      </g>
     </g>
    </g>
    <g id="xtick_4">
     <g id="line2d_4">
      <g>
       <use style="stroke:#000000;stroke-width:0.8;" x="535.990909" xlink:href="#m3b553a4489" y="448.56"/>
      </g>
     </g>
     <g id="text_4">
      <!-- 30 -->
      <defs>
       <path d="M 40.578125 39.3125 
Q 47.65625 37.796875 51.625 33 
Q 55.609375 28.21875 55.609375 21.1875 
Q 55.609375 10.40625 48.1875 4.484375 
Q 40.765625 -1.421875 27.09375 -1.421875 
Q 22.515625 -1.421875 17.65625 -0.515625 
Q 12.796875 0.390625 7.625 2.203125 
L 7.625 11.71875 
Q 11.71875 9.328125 16.59375 8.109375 
Q 21.484375 6.890625 26.8125 6.890625 
Q 36.078125 6.890625 40.9375 10.546875 
Q 45.796875 14.203125 45.796875 21.1875 
Q 45.796875 27.640625 41.28125 31.265625 
Q 36.765625 34.90625 28.71875 34.90625 
L 20.21875 34.90625 
L 20.21875 43.015625 
L 29.109375 43.015625 
Q 36.375 43.015625 40.234375 45.921875 
Q 44.09375 48.828125 44.09375 54.296875 
Q 44.09375 59.90625 40.109375 62.90625 
Q 36.140625 65.921875 28.71875 65.921875 
Q 24.65625 65.921875 20.015625 65.03125 
Q 15.375 64.15625 9.8125 62.3125 
L 9.8125 71.09375 
Q 15.4375 72.65625 20.34375 73.4375 
Q 25.25 74.21875 29.59375 74.21875 
Q 40.828125 74.21875 47.359375 69.109375 
Q 53.90625 64.015625 53.90625 55.328125 
Q 53.90625 49.265625 50.4375 45.09375 
Q 46.96875 40.921875 40.578125 39.3125 
z
" id="DejaVuSans-33"/>
      </defs>
      <g transform="translate(523.265909 470.756875)scale(0.2 -0.2)">
       <use xlink:href="#DejaVuSans-33"/>
       <use x="63.623047" xlink:href="#DejaVuSans-30"/>
      </g>
     </g>
    </g>
    <g id="xtick_5">
     <g id="line2d_5">
      <g>
       <use style="stroke:#000000;stroke-width:0.8;" x="672.354545" xlink:href="#m3b553a4489" y="448.56"/>
      </g>
     </g>
     <g id="text_5">
      <!-- 40 -->
      <defs>
       <path d="M 37.796875 64.3125 
L 12.890625 25.390625 
L 37.796875 25.390625 
z
M 35.203125 72.90625 
L 47.609375 72.90625 
L 47.609375 25.390625 
L 58.015625 25.390625 
L 58.015625 17.1875 
L 47.609375 17.1875 
L 47.609375 0 
L 37.796875 0 
L 37.796875 17.1875 
L 4.890625 17.1875 
L 4.890625 26.703125 
z
" id="DejaVuSans-34"/>
      </defs>
      <g transform="translate(659.629545 470.756875)scale(0.2 -0.2)">
       <use xlink:href="#DejaVuSans-34"/>
       <use x="63.623047" xlink:href="#DejaVuSans-30"/>
      </g>
     </g>
    </g>
    <g id="text_6">
     <!-- B$_{\mathrm{scan}}$ (G) -->
     <defs>
      <path d="M 38.375 44.671875 
Q 42.828125 44.671875 45.109375 46.625 
Q 47.40625 48.578125 47.40625 52.390625 
Q 47.40625 56.15625 45.109375 58.125 
Q 42.828125 60.109375 38.375 60.109375 
L 27.984375 60.109375 
L 27.984375 44.671875 
z
M 39.015625 12.796875 
Q 44.671875 12.796875 47.53125 15.1875 
Q 50.390625 17.578125 50.390625 22.40625 
Q 50.390625 27.15625 47.5625 29.515625 
Q 44.734375 31.890625 39.015625 31.890625 
L 27.984375 31.890625 
L 27.984375 12.796875 
z
M 56.5 39.015625 
Q 62.546875 37.25 65.859375 32.515625 
Q 69.1875 27.78125 69.1875 20.90625 
Q 69.1875 10.359375 62.0625 5.171875 
Q 54.9375 0 40.375 0 
L 9.1875 0 
L 9.1875 72.90625 
L 37.40625 72.90625 
Q 52.59375 72.90625 59.40625 68.3125 
Q 66.21875 63.71875 66.21875 53.609375 
Q 66.21875 48.296875 63.71875 44.5625 
Q 61.234375 40.828125 56.5 39.015625 
z
" id="DejaVuSans-Bold-42"/>
      <path d="M 44.28125 53.078125 
L 44.28125 44.578125 
Q 40.484375 46.53125 36.375 47.5 
Q 32.28125 48.484375 27.875 48.484375 
Q 21.1875 48.484375 17.84375 46.4375 
Q 14.5 44.390625 14.5 40.28125 
Q 14.5 37.15625 16.890625 35.375 
Q 19.28125 33.59375 26.515625 31.984375 
L 29.59375 31.296875 
Q 39.15625 29.25 43.1875 25.515625 
Q 47.21875 21.78125 47.21875 15.09375 
Q 47.21875 7.46875 41.1875 3.015625 
Q 35.15625 -1.421875 24.609375 -1.421875 
Q 20.21875 -1.421875 15.453125 -0.5625 
Q 10.6875 0.296875 5.421875 2 
L 5.421875 11.28125 
Q 10.40625 8.6875 15.234375 7.390625 
Q 20.0625 6.109375 24.8125 6.109375 
Q 31.15625 6.109375 34.5625 8.28125 
Q 37.984375 10.453125 37.984375 14.40625 
Q 37.984375 18.0625 35.515625 20.015625 
Q 33.0625 21.96875 24.703125 23.78125 
L 21.578125 24.515625 
Q 13.234375 26.265625 9.515625 29.90625 
Q 5.8125 33.546875 5.8125 39.890625 
Q 5.8125 47.609375 11.28125 51.796875 
Q 16.75 56 26.8125 56 
Q 31.78125 56 36.171875 55.265625 
Q 40.578125 54.546875 44.28125 53.078125 
z
" id="DejaVuSans-73"/>
      <path d="M 48.78125 52.59375 
L 48.78125 44.1875 
Q 44.96875 46.296875 41.140625 47.34375 
Q 37.3125 48.390625 33.40625 48.390625 
Q 24.65625 48.390625 19.8125 42.84375 
Q 14.984375 37.3125 14.984375 27.296875 
Q 14.984375 17.28125 19.8125 11.734375 
Q 24.65625 6.203125 33.40625 6.203125 
Q 37.3125 6.203125 41.140625 7.25 
Q 44.96875 8.296875 48.78125 10.40625 
L 48.78125 2.09375 
Q 45.015625 0.34375 40.984375 -0.53125 
Q 36.96875 -1.421875 32.421875 -1.421875 
Q 20.0625 -1.421875 12.78125 6.34375 
Q 5.515625 14.109375 5.515625 27.296875 
Q 5.515625 40.671875 12.859375 48.328125 
Q 20.21875 56 33.015625 56 
Q 37.15625 56 41.109375 55.140625 
Q 45.0625 54.296875 48.78125 52.59375 
z
" id="DejaVuSans-63"/>
      <path d="M 34.28125 27.484375 
Q 23.390625 27.484375 19.1875 25 
Q 14.984375 22.515625 14.984375 16.5 
Q 14.984375 11.71875 18.140625 8.90625 
Q 21.296875 6.109375 26.703125 6.109375 
Q 34.1875 6.109375 38.703125 11.40625 
Q 43.21875 16.703125 43.21875 25.484375 
L 43.21875 27.484375 
z
M 52.203125 31.203125 
L 52.203125 0 
L 43.21875 0 
L 43.21875 8.296875 
Q 40.140625 3.328125 35.546875 0.953125 
Q 30.953125 -1.421875 24.3125 -1.421875 
Q 15.921875 -1.421875 10.953125 3.296875 
Q 6 8.015625 6 15.921875 
Q 6 25.140625 12.171875 29.828125 
Q 18.359375 34.515625 30.609375 34.515625 
L 43.21875 34.515625 
L 43.21875 35.40625 
Q 43.21875 41.609375 39.140625 45 
Q 35.0625 48.390625 27.6875 48.390625 
Q 23 48.390625 18.546875 47.265625 
Q 14.109375 46.140625 10.015625 43.890625 
L 10.015625 52.203125 
Q 14.9375 54.109375 19.578125 55.046875 
Q 24.21875 56 28.609375 56 
Q 40.484375 56 46.34375 49.84375 
Q 52.203125 43.703125 52.203125 31.203125 
z
" id="DejaVuSans-61"/>
      <path d="M 54.890625 33.015625 
L 54.890625 0 
L 45.90625 0 
L 45.90625 32.71875 
Q 45.90625 40.484375 42.875 44.328125 
Q 39.84375 48.1875 33.796875 48.1875 
Q 26.515625 48.1875 22.3125 43.546875 
Q 18.109375 38.921875 18.109375 30.90625 
L 18.109375 0 
L 9.078125 0 
L 9.078125 54.6875 
L 18.109375 54.6875 
L 18.109375 46.1875 
Q 21.34375 51.125 25.703125 53.5625 
Q 30.078125 56 35.796875 56 
Q 45.21875 56 50.046875 50.171875 
Q 54.890625 44.34375 54.890625 33.015625 
z
" id="DejaVuSans-6e"/>
      <path id="DejaVuSans-Bold-20"/>
      <path d="M 37.703125 -13.1875 
L 23.1875 -13.1875 
Q 15.71875 -1.125 12.15625 9.734375 
Q 8.59375 20.609375 8.59375 31.296875 
Q 8.59375 42 12.171875 52.953125 
Q 15.765625 63.921875 23.1875 75.875 
L 37.703125 75.875 
Q 31.453125 64.3125 28.328125 53.25 
Q 25.203125 42.1875 25.203125 31.390625 
Q 25.203125 20.609375 28.296875 9.515625 
Q 31.390625 -1.5625 37.703125 -13.1875 
z
" id="DejaVuSans-Bold-28"/>
      <path d="M 74.703125 5.421875 
Q 67.671875 2 60.109375 0.28125 
Q 52.546875 -1.421875 44.484375 -1.421875 
Q 26.265625 -1.421875 15.625 8.765625 
Q 4.984375 18.953125 4.984375 36.375 
Q 4.984375 54 15.8125 64.109375 
Q 26.65625 74.21875 45.515625 74.21875 
Q 52.78125 74.21875 59.4375 72.84375 
Q 66.109375 71.484375 72.015625 68.796875 
L 72.015625 53.71875 
Q 65.921875 57.171875 59.890625 58.875 
Q 53.859375 60.59375 47.796875 60.59375 
Q 36.578125 60.59375 30.5 54.3125 
Q 24.421875 48.046875 24.421875 36.375 
Q 24.421875 24.8125 30.28125 18.5 
Q 36.140625 12.203125 46.921875 12.203125 
Q 49.859375 12.203125 52.375 12.5625 
Q 54.890625 12.9375 56.890625 13.71875 
L 56.890625 27.875 
L 45.40625 27.875 
L 45.40625 40.484375 
L 74.703125 40.484375 
z
" id="DejaVuSans-Bold-47"/>
      <path d="M 8.015625 -13.1875 
Q 14.265625 -1.5625 17.390625 9.515625 
Q 20.515625 20.609375 20.515625 31.390625 
Q 20.515625 42.1875 17.390625 53.25 
Q 14.265625 64.3125 8.015625 75.875 
L 22.515625 75.875 
Q 29.9375 63.921875 33.515625 52.953125 
Q 37.109375 42 37.109375 31.296875 
Q 37.109375 20.609375 33.546875 9.734375 
Q 29.984375 -1.125 22.515625 -13.1875 
z
" id="DejaVuSans-Bold-29"/>
     </defs>
     <g transform="translate(349.525 497.912344)scale(0.25 -0.25)">
      <use transform="translate(0 0.125)" xlink:href="#DejaVuSans-Bold-42"/>
      <use transform="translate(77.177734 -16.28125)scale(0.7)" xlink:href="#DejaVuSans-73"/>
      <use transform="translate(113.647461 -16.28125)scale(0.7)" xlink:href="#DejaVuSans-63"/>
      <use transform="translate(152.133789 -16.28125)scale(0.7)" xlink:href="#DejaVuSans-61"/>
      <use transform="translate(195.029297 -16.28125)scale(0.7)" xlink:href="#DejaVuSans-6e"/>
      <use transform="translate(242.128906 0.125)" xlink:href="#DejaVuSans-Bold-20"/>
      <use transform="translate(276.943359 0.125)" xlink:href="#DejaVuSans-Bold-28"/>
      <use transform="translate(322.646484 0.125)" xlink:href="#DejaVuSans-Bold-47"/>
      <use transform="translate(404.726562 0.125)" xlink:href="#DejaVuSans-Bold-29"/>
     </g>
    </g>
   </g>
   <g id="matplotlib.axis_2">
    <g id="ytick_1">
     <g id="line2d_6">
      <defs>
       <path d="M 0 0 
L -3.5 0 
" id="m47532ebf53" style="stroke:#000000;stroke-width:0.8;"/>
      </defs>
      <g>
       <use style="stroke:#000000;stroke-width:0.8;" x="99" xlink:href="#m47532ebf53" y="443.257032"/>
      </g>
     </g>
     <g id="text_7">
      <!-- 0.994 -->
      <defs>
       <path d="M 10.6875 12.40625 
L 21 12.40625 
L 21 0 
L 10.6875 0 
z
" id="DejaVuSans-2e"/>
       <path d="M 10.984375 1.515625 
L 10.984375 10.5 
Q 14.703125 8.734375 18.5 7.8125 
Q 22.3125 6.890625 25.984375 6.890625 
Q 35.75 6.890625 40.890625 13.453125 
Q 46.046875 20.015625 46.78125 33.40625 
Q 43.953125 29.203125 39.59375 26.953125 
Q 35.25 24.703125 29.984375 24.703125 
Q 19.046875 24.703125 12.671875 31.3125 
Q 6.296875 37.9375 6.296875 49.421875 
Q 6.296875 60.640625 12.9375 67.421875 
Q 19.578125 74.21875 30.609375 74.21875 
Q 43.265625 74.21875 49.921875 64.515625 
Q 56.59375 54.828125 56.59375 36.375 
Q 56.59375 19.140625 48.40625 8.859375 
Q 40.234375 -1.421875 26.421875 -1.421875 
Q 22.703125 -1.421875 18.890625 -0.6875 
Q 15.09375 0.046875 10.984375 1.515625 
z
M 30.609375 32.421875 
Q 37.25 32.421875 41.125 36.953125 
Q 45.015625 41.5 45.015625 49.421875 
Q 45.015625 57.28125 41.125 61.84375 
Q 37.25 66.40625 30.609375 66.40625 
Q 23.96875 66.40625 20.09375 61.84375 
Q 16.21875 57.28125 16.21875 49.421875 
Q 16.21875 41.5 20.09375 36.953125 
Q 23.96875 32.421875 30.609375 32.421875 
z
" id="DejaVuSans-39"/>
      </defs>
      <g transform="translate(34.74375 450.85547)scale(0.2 -0.2)">
       <use xlink:href="#DejaVuSans-30"/>
       <use x="63.623047" xlink:href="#DejaVuSans-2e"/>
       <use x="95.410156" xlink:href="#DejaVuSans-39"/>
       <use x="159.033203" xlink:href="#DejaVuSans-39"/>
       <use x="222.65625" xlink:href="#DejaVuSans-34"/>
      </g>
     </g>
    </g>
    <g id="ytick_2">
     <g id="line2d_7">
      <g>
       <use style="stroke:#000000;stroke-width:0.8;" x="99" xlink:href="#m47532ebf53" y="382.40086"/>
      </g>
     </g>
     <g id="text_8">
      <!-- 0.995 -->
      <defs>
       <path d="M 10.796875 72.90625 
L 49.515625 72.90625 
L 49.515625 64.59375 
L 19.828125 64.59375 
L 19.828125 46.734375 
Q 21.96875 47.46875 24.109375 47.828125 
Q 26.265625 48.1875 28.421875 48.1875 
Q 40.625 48.1875 47.75 41.5 
Q 54.890625 34.8125 54.890625 23.390625 
Q 54.890625 11.625 47.5625 5.09375 
Q 40.234375 -1.421875 26.90625 -1.421875 
Q 22.3125 -1.421875 17.546875 -0.640625 
Q 12.796875 0.140625 7.71875 1.703125 
L 7.71875 11.625 
Q 12.109375 9.234375 16.796875 8.0625 
Q 21.484375 6.890625 26.703125 6.890625 
Q 35.15625 6.890625 40.078125 11.328125 
Q 45.015625 15.765625 45.015625 23.390625 
Q 45.015625 31 40.078125 35.4375 
Q 35.15625 39.890625 26.703125 39.890625 
Q 22.75 39.890625 18.8125 39.015625 
Q 14.890625 38.140625 10.796875 36.28125 
z
" id="DejaVuSans-35"/>
      </defs>
      <g transform="translate(34.74375 389.999298)scale(0.2 -0.2)">
       <use xlink:href="#DejaVuSans-30"/>
       <use x="63.623047" xlink:href="#DejaVuSans-2e"/>
       <use x="95.410156" xlink:href="#DejaVuSans-39"/>
       <use x="159.033203" xlink:href="#DejaVuSans-39"/>
       <use x="222.65625" xlink:href="#DejaVuSans-35"/>
      </g>
     </g>
    </g>
    <g id="ytick_3">
     <g id="line2d_8">
      <g>
       <use style="stroke:#000000;stroke-width:0.8;" x="99" xlink:href="#m47532ebf53" y="321.544688"/>
      </g>
     </g>
     <g id="text_9">
      <!-- 0.996 -->
      <defs>
       <path d="M 33.015625 40.375 
Q 26.375 40.375 22.484375 35.828125 
Q 18.609375 31.296875 18.609375 23.390625 
Q 18.609375 15.53125 22.484375 10.953125 
Q 26.375 6.390625 33.015625 6.390625 
Q 39.65625 6.390625 43.53125 10.953125 
Q 47.40625 15.53125 47.40625 23.390625 
Q 47.40625 31.296875 43.53125 35.828125 
Q 39.65625 40.375 33.015625 40.375 
z
M 52.59375 71.296875 
L 52.59375 62.3125 
Q 48.875 64.0625 45.09375 64.984375 
Q 41.3125 65.921875 37.59375 65.921875 
Q 27.828125 65.921875 22.671875 59.328125 
Q 17.53125 52.734375 16.796875 39.40625 
Q 19.671875 43.65625 24.015625 45.921875 
Q 28.375 48.1875 33.59375 48.1875 
Q 44.578125 48.1875 50.953125 41.515625 
Q 57.328125 34.859375 57.328125 23.390625 
Q 57.328125 12.15625 50.6875 5.359375 
Q 44.046875 -1.421875 33.015625 -1.421875 
Q 20.359375 -1.421875 13.671875 8.265625 
Q 6.984375 17.96875 6.984375 36.375 
Q 6.984375 53.65625 15.1875 63.9375 
Q 23.390625 74.21875 37.203125 74.21875 
Q 40.921875 74.21875 44.703125 73.484375 
Q 48.484375 72.75 52.59375 71.296875 
z
" id="DejaVuSans-36"/>
      </defs>
      <g transform="translate(34.74375 329.143126)scale(0.2 -0.2)">
       <use xlink:href="#DejaVuSans-30"/>
       <use x="63.623047" xlink:href="#DejaVuSans-2e"/>
       <use x="95.410156" xlink:href="#DejaVuSans-39"/>
       <use x="159.033203" xlink:href="#DejaVuSans-39"/>
       <use x="222.65625" xlink:href="#DejaVuSans-36"/>
      </g>
     </g>
    </g>
    <g id="ytick_4">
     <g id="line2d_9">
      <g>
       <use style="stroke:#000000;stroke-width:0.8;" x="99" xlink:href="#m47532ebf53" y="260.688516"/>
      </g>
     </g>
     <g id="text_10">
      <!-- 0.997 -->
      <defs>
       <path d="M 8.203125 72.90625 
L 55.078125 72.90625 
L 55.078125 68.703125 
L 28.609375 0 
L 18.3125 0 
L 43.21875 64.59375 
L 8.203125 64.59375 
z
" id="DejaVuSans-37"/>
      </defs>
      <g transform="translate(34.74375 268.286954)scale(0.2 -0.2)">
       <use xlink:href="#DejaVuSans-30"/>
       <use x="63.623047" xlink:href="#DejaVuSans-2e"/>
       <use x="95.410156" xlink:href="#DejaVuSans-39"/>
       <use x="159.033203" xlink:href="#DejaVuSans-39"/>
       <use x="222.65625" xlink:href="#DejaVuSans-37"/>
      </g>
     </g>
    </g>
    <g id="ytick_5">
     <g id="line2d_10">
      <g>
       <use style="stroke:#000000;stroke-width:0.8;" x="99" xlink:href="#m47532ebf53" y="199.832344"/>
      </g>
     </g>
     <g id="text_11">
      <!-- 0.998 -->
      <defs>
       <path d="M 31.78125 34.625 
Q 24.75 34.625 20.71875 30.859375 
Q 16.703125 27.09375 16.703125 20.515625 
Q 16.703125 13.921875 20.71875 10.15625 
Q 24.75 6.390625 31.78125 6.390625 
Q 38.8125 6.390625 42.859375 10.171875 
Q 46.921875 13.96875 46.921875 20.515625 
Q 46.921875 27.09375 42.890625 30.859375 
Q 38.875 34.625 31.78125 34.625 
z
M 21.921875 38.8125 
Q 15.578125 40.375 12.03125 44.71875 
Q 8.5 49.078125 8.5 55.328125 
Q 8.5 64.0625 14.71875 69.140625 
Q 20.953125 74.21875 31.78125 74.21875 
Q 42.671875 74.21875 48.875 69.140625 
Q 55.078125 64.0625 55.078125 55.328125 
Q 55.078125 49.078125 51.53125 44.71875 
Q 48 40.375 41.703125 38.8125 
Q 48.828125 37.15625 52.796875 32.3125 
Q 56.78125 27.484375 56.78125 20.515625 
Q 56.78125 9.90625 50.3125 4.234375 
Q 43.84375 -1.421875 31.78125 -1.421875 
Q 19.734375 -1.421875 13.25 4.234375 
Q 6.78125 9.90625 6.78125 20.515625 
Q 6.78125 27.484375 10.78125 32.3125 
Q 14.796875 37.15625 21.921875 38.8125 
z
M 18.3125 54.390625 
Q 18.3125 48.734375 21.84375 45.5625 
Q 25.390625 42.390625 31.78125 42.390625 
Q 38.140625 42.390625 41.71875 45.5625 
Q 45.3125 48.734375 45.3125 54.390625 
Q 45.3125 60.0625 41.71875 63.234375 
Q 38.140625 66.40625 31.78125 66.40625 
Q 25.390625 66.40625 21.84375 63.234375 
Q 18.3125 60.0625 18.3125 54.390625 
z
" id="DejaVuSans-38"/>
      </defs>
      <g transform="translate(34.74375 207.430782)scale(0.2 -0.2)">
       <use xlink:href="#DejaVuSans-30"/>
       <use x="63.623047" xlink:href="#DejaVuSans-2e"/>
       <use x="95.410156" xlink:href="#DejaVuSans-39"/>
       <use x="159.033203" xlink:href="#DejaVuSans-39"/>
       <use x="222.65625" xlink:href="#DejaVuSans-38"/>
      </g>
     </g>
    </g>
    <g id="ytick_6">
     <g id="line2d_11">
      <g>
       <use style="stroke:#000000;stroke-width:0.8;" x="99" xlink:href="#m47532ebf53" y="138.976172"/>
      </g>
     </g>
     <g id="text_12">
      <!-- 0.999 -->
      <g transform="translate(34.74375 146.57461)scale(0.2 -0.2)">
       <use xlink:href="#DejaVuSans-30"/>
       <use x="63.623047" xlink:href="#DejaVuSans-2e"/>
       <use x="95.410156" xlink:href="#DejaVuSans-39"/>
       <use x="159.033203" xlink:href="#DejaVuSans-39"/>
       <use x="222.65625" xlink:href="#DejaVuSans-39"/>
      </g>
     </g>
    </g>
    <g id="ytick_7">
     <g id="line2d_12">
      <g>
       <use style="stroke:#000000;stroke-width:0.8;" x="99" xlink:href="#m47532ebf53" y="78.12"/>
      </g>
     </g>
     <g id="text_13">
      <!-- 1.000 -->
      <g transform="translate(34.74375 85.718438)scale(0.2 -0.2)">
       <use xlink:href="#DejaVuSans-31"/>
       <use x="63.623047" xlink:href="#DejaVuSans-2e"/>
       <use x="95.410156" xlink:href="#DejaVuSans-30"/>
       <use x="159.033203" xlink:href="#DejaVuSans-30"/>
       <use x="222.65625" xlink:href="#DejaVuSans-30"/>
      </g>
     </g>
    </g>
    <g id="text_14">
     <!-- Reflected signal -->
     <defs>
      <path d="M 35.890625 40.578125 
Q 41.796875 40.578125 44.359375 42.765625 
Q 46.921875 44.96875 46.921875 50 
Q 46.921875 54.984375 44.359375 57.125 
Q 41.796875 59.28125 35.890625 59.28125 
L 27.984375 59.28125 
L 27.984375 40.578125 
z
M 27.984375 27.59375 
L 27.984375 0 
L 9.1875 0 
L 9.1875 72.90625 
L 37.890625 72.90625 
Q 52.296875 72.90625 59 68.0625 
Q 65.71875 63.234375 65.71875 52.78125 
Q 65.71875 45.5625 62.21875 40.921875 
Q 58.734375 36.28125 51.703125 34.078125 
Q 55.5625 33.203125 58.609375 30.09375 
Q 61.671875 27 64.796875 20.703125 
L 75 0 
L 54.984375 0 
L 46.09375 18.109375 
Q 43.40625 23.578125 40.640625 25.578125 
Q 37.890625 27.59375 33.296875 27.59375 
z
" id="DejaVuSans-Bold-52"/>
      <path d="M 62.984375 27.484375 
L 62.984375 22.515625 
L 22.125 22.515625 
Q 22.75 16.359375 26.5625 13.28125 
Q 30.375 10.203125 37.203125 10.203125 
Q 42.71875 10.203125 48.5 11.84375 
Q 54.296875 13.484375 60.40625 16.796875 
L 60.40625 3.328125 
Q 54.203125 0.984375 48 -0.21875 
Q 41.796875 -1.421875 35.59375 -1.421875 
Q 20.75 -1.421875 12.515625 6.125 
Q 4.296875 13.671875 4.296875 27.296875 
Q 4.296875 40.671875 12.375 48.328125 
Q 20.453125 56 34.625 56 
Q 47.515625 56 55.25 48.234375 
Q 62.984375 40.484375 62.984375 27.484375 
z
M 45.015625 33.296875 
Q 45.015625 38.28125 42.109375 41.328125 
Q 39.203125 44.390625 34.515625 44.390625 
Q 29.4375 44.390625 26.265625 41.53125 
Q 23.09375 38.671875 22.3125 33.296875 
z
" id="DejaVuSans-Bold-65"/>
      <path d="M 44.390625 75.984375 
L 44.390625 64.5 
L 34.71875 64.5 
Q 31 64.5 29.53125 63.15625 
Q 28.078125 61.8125 28.078125 58.5 
L 28.078125 54.6875 
L 43.015625 54.6875 
L 43.015625 42.1875 
L 28.078125 42.1875 
L 28.078125 0 
L 10.59375 0 
L 10.59375 42.1875 
L 1.90625 42.1875 
L 1.90625 54.6875 
L 10.59375 54.6875 
L 10.59375 58.5 
Q 10.59375 67.4375 15.578125 71.703125 
Q 20.5625 75.984375 31 75.984375 
z
" id="DejaVuSans-Bold-66"/>
      <path d="M 8.40625 75.984375 
L 25.875 75.984375 
L 25.875 0 
L 8.40625 0 
z
" id="DejaVuSans-Bold-6c"/>
      <path d="M 52.59375 52.984375 
L 52.59375 38.71875 
Q 49.03125 41.15625 45.4375 42.328125 
Q 41.84375 43.5 37.984375 43.5 
Q 30.671875 43.5 26.59375 39.234375 
Q 22.515625 34.96875 22.515625 27.296875 
Q 22.515625 19.625 26.59375 15.34375 
Q 30.671875 11.078125 37.984375 11.078125 
Q 42.09375 11.078125 45.78125 12.296875 
Q 49.46875 13.53125 52.59375 15.921875 
L 52.59375 1.609375 
Q 48.484375 0.09375 44.265625 -0.65625 
Q 40.046875 -1.421875 35.796875 -1.421875 
Q 21 -1.421875 12.640625 6.171875 
Q 4.296875 13.765625 4.296875 27.296875 
Q 4.296875 40.828125 12.640625 48.40625 
Q 21 56 35.796875 56 
Q 40.09375 56 44.265625 55.25 
Q 48.4375 54.5 52.59375 52.984375 
z
" id="DejaVuSans-Bold-63"/>
      <path d="M 27.484375 70.21875 
L 27.484375 54.6875 
L 45.515625 54.6875 
L 45.515625 42.1875 
L 27.484375 42.1875 
L 27.484375 19 
Q 27.484375 15.1875 29 13.84375 
Q 30.515625 12.5 35.015625 12.5 
L 44 12.5 
L 44 0 
L 29 0 
Q 18.65625 0 14.328125 4.3125 
Q 10.015625 8.640625 10.015625 19 
L 10.015625 42.1875 
L 1.3125 42.1875 
L 1.3125 54.6875 
L 10.015625 54.6875 
L 10.015625 70.21875 
z
" id="DejaVuSans-Bold-74"/>
      <path d="M 45.609375 46.6875 
L 45.609375 75.984375 
L 63.1875 75.984375 
L 63.1875 0 
L 45.609375 0 
L 45.609375 7.90625 
Q 42 3.078125 37.640625 0.828125 
Q 33.296875 -1.421875 27.59375 -1.421875 
Q 17.484375 -1.421875 10.984375 6.609375 
Q 4.5 14.65625 4.5 27.296875 
Q 4.5 39.9375 10.984375 47.96875 
Q 17.484375 56 27.59375 56 
Q 33.25 56 37.625 53.734375 
Q 42 51.46875 45.609375 46.6875 
z
M 34.078125 11.28125 
Q 39.703125 11.28125 42.65625 15.375 
Q 45.609375 19.484375 45.609375 27.296875 
Q 45.609375 35.109375 42.65625 39.203125 
Q 39.703125 43.3125 34.078125 43.3125 
Q 28.515625 43.3125 25.5625 39.203125 
Q 22.609375 35.109375 22.609375 27.296875 
Q 22.609375 19.484375 25.5625 15.375 
Q 28.515625 11.28125 34.078125 11.28125 
z
" id="DejaVuSans-Bold-64"/>
      <path d="M 51.125 52.984375 
L 51.125 39.703125 
Q 45.515625 42.046875 40.28125 43.21875 
Q 35.0625 44.390625 30.421875 44.390625 
Q 25.4375 44.390625 23.015625 43.140625 
Q 20.609375 41.890625 20.609375 39.3125 
Q 20.609375 37.203125 22.4375 36.078125 
Q 24.265625 34.96875 29 34.421875 
L 32.078125 33.984375 
Q 45.515625 32.28125 50.140625 28.375 
Q 54.78125 24.46875 54.78125 16.109375 
Q 54.78125 7.375 48.328125 2.96875 
Q 41.890625 -1.421875 29.109375 -1.421875 
Q 23.6875 -1.421875 17.890625 -0.5625 
Q 12.109375 0.296875 6 2 
L 6 15.28125 
Q 11.234375 12.75 16.71875 11.46875 
Q 22.21875 10.203125 27.875 10.203125 
Q 33.015625 10.203125 35.59375 11.609375 
Q 38.1875 13.03125 38.1875 15.828125 
Q 38.1875 18.171875 36.40625 19.3125 
Q 34.625 20.453125 29.296875 21.09375 
L 26.21875 21.484375 
Q 14.546875 22.953125 9.859375 26.90625 
Q 5.171875 30.859375 5.171875 38.921875 
Q 5.171875 47.609375 11.125 51.796875 
Q 17.09375 56 29.390625 56 
Q 34.234375 56 39.546875 55.265625 
Q 44.875 54.546875 51.125 52.984375 
z
" id="DejaVuSans-Bold-73"/>
      <path d="M 8.40625 54.6875 
L 25.875 54.6875 
L 25.875 0 
L 8.40625 0 
z
M 8.40625 75.984375 
L 25.875 75.984375 
L 25.875 61.71875 
L 8.40625 61.71875 
z
" id="DejaVuSans-Bold-69"/>
      <path d="M 45.609375 9.28125 
Q 42 4.5 37.640625 2.25 
Q 33.296875 0 27.59375 0 
Q 17.578125 0 11.03125 7.875 
Q 4.5 15.765625 4.5 27.984375 
Q 4.5 40.234375 11.03125 48.0625 
Q 17.578125 55.90625 27.59375 55.90625 
Q 33.296875 55.90625 37.640625 53.65625 
Q 42 51.421875 45.609375 46.578125 
L 45.609375 54.6875 
L 63.1875 54.6875 
L 63.1875 5.515625 
Q 63.1875 -7.671875 54.859375 -14.625 
Q 46.53125 -21.578125 30.71875 -21.578125 
Q 25.59375 -21.578125 20.796875 -20.796875 
Q 16.015625 -20.015625 11.1875 -18.40625 
L 11.1875 -4.78125 
Q 15.765625 -7.421875 20.15625 -8.71875 
Q 24.5625 -10.015625 29 -10.015625 
Q 37.59375 -10.015625 41.59375 -6.25 
Q 45.609375 -2.484375 45.609375 5.515625 
z
M 34.078125 43.3125 
Q 28.65625 43.3125 25.625 39.296875 
Q 22.609375 35.296875 22.609375 27.984375 
Q 22.609375 20.453125 25.53125 16.578125 
Q 28.46875 12.703125 34.078125 12.703125 
Q 39.546875 12.703125 42.578125 16.703125 
Q 45.609375 20.703125 45.609375 27.984375 
Q 45.609375 35.296875 42.578125 39.296875 
Q 39.546875 43.3125 34.078125 43.3125 
z
" id="DejaVuSans-Bold-67"/>
      <path d="M 63.375 33.296875 
L 63.375 0 
L 45.796875 0 
L 45.796875 5.421875 
L 45.796875 25.484375 
Q 45.796875 32.5625 45.484375 35.25 
Q 45.171875 37.9375 44.390625 39.203125 
Q 43.359375 40.921875 41.59375 41.875 
Q 39.84375 42.828125 37.59375 42.828125 
Q 32.125 42.828125 29 38.59375 
Q 25.875 34.375 25.875 26.90625 
L 25.875 0 
L 8.40625 0 
L 8.40625 54.6875 
L 25.875 54.6875 
L 25.875 46.6875 
Q 29.828125 51.46875 34.265625 53.734375 
Q 38.71875 56 44.09375 56 
Q 53.5625 56 58.46875 50.1875 
Q 63.375 44.390625 63.375 33.296875 
z
" id="DejaVuSans-Bold-6e"/>
      <path d="M 32.90625 24.609375 
Q 27.4375 24.609375 24.671875 22.75 
Q 21.921875 20.90625 21.921875 17.28125 
Q 21.921875 13.96875 24.140625 12.078125 
Q 26.375 10.203125 30.328125 10.203125 
Q 35.25 10.203125 38.625 13.734375 
Q 42 17.28125 42 22.609375 
L 42 24.609375 
z
M 59.625 31.203125 
L 59.625 0 
L 42 0 
L 42 8.109375 
Q 38.484375 3.125 34.078125 0.84375 
Q 29.6875 -1.421875 23.390625 -1.421875 
Q 14.890625 -1.421875 9.59375 3.53125 
Q 4.296875 8.5 4.296875 16.40625 
Q 4.296875 26.03125 10.90625 30.515625 
Q 17.53125 35.015625 31.6875 35.015625 
L 42 35.015625 
L 42 36.375 
Q 42 40.53125 38.71875 42.453125 
Q 35.453125 44.390625 28.515625 44.390625 
Q 22.90625 44.390625 18.0625 43.265625 
Q 13.234375 42.140625 9.078125 39.890625 
L 9.078125 53.21875 
Q 14.703125 54.59375 20.359375 55.296875 
Q 26.03125 56 31.6875 56 
Q 46.484375 56 53.046875 50.171875 
Q 59.625 44.34375 59.625 31.203125 
z
" id="DejaVuSans-Bold-61"/>
     </defs>
     <g transform="translate(25.349219 368.277812)rotate(-90)scale(0.25 -0.25)">
      <use xlink:href="#DejaVuSans-Bold-52"/>
      <use x="77.001953" xlink:href="#DejaVuSans-Bold-65"/>
      <use x="144.824219" xlink:href="#DejaVuSans-Bold-66"/>
      <use x="188.330078" xlink:href="#DejaVuSans-Bold-6c"/>
      <use x="222.607422" xlink:href="#DejaVuSans-Bold-65"/>
      <use x="290.429688" xlink:href="#DejaVuSans-Bold-63"/>
      <use x="349.707031" xlink:href="#DejaVuSans-Bold-74"/>
      <use x="397.509766" xlink:href="#DejaVuSans-Bold-65"/>
      <use x="465.332031" xlink:href="#DejaVuSans-Bold-64"/>
      <use x="536.914062" xlink:href="#DejaVuSans-Bold-20"/>
      <use x="571.728516" xlink:href="#DejaVuSans-Bold-73"/>
      <use x="631.25" xlink:href="#DejaVuSans-Bold-69"/>
      <use x="665.527344" xlink:href="#DejaVuSans-Bold-67"/>
      <use x="737.109375" xlink:href="#DejaVuSans-Bold-6e"/>
      <use x="808.300781" xlink:href="#DejaVuSans-Bold-61"/>
      <use x="875.78125" xlink:href="#DejaVuSans-Bold-6c"/>
     </g>
    </g>
   </g>
   <g id="line2d_13">
    <defs>
     <path d="M 0 5 
C 1.326016 5 2.597899 4.473168 3.535534 3.535534 
C 4.473168 2.597899 5 1.326016 5 0 
C 5 -1.326016 4.473168 -2.597899 3.535534 -3.535534 
C 2.597899 -4.473168 1.326016 -5 0 -5 
C -1.326016 -5 -2.597899 -4.473168 -3.535534 -3.535534 
C -4.473168 -2.597899 -5 -1.326016 -5 0 
C -5 1.326016 -4.473168 2.597899 -3.535534 3.535534 
C -2.597899 4.473168 -1.326016 5 0 5 
z
" id="m85ac988bd5" style="stroke:#1f77b4;stroke-width:3;"/>
    </defs>
    <g clip-path="url(#p4a6c7ada6f)">
     <use style="fill-opacity:0;stroke:#1f77b4;stroke-width:3;" x="126.9" xlink:href="#m85ac988bd5" y="206.992539"/>
     <use style="fill-opacity:0;stroke:#1f77b4;stroke-width:3;" x="131.55" xlink:href="#m85ac988bd5" y="215.218446"/>
     <use style="fill-opacity:0;stroke:#1f77b4;stroke-width:3;" x="136.2" xlink:href="#m85ac988bd5" y="182.314819"/>
     <use style="fill-opacity:0;stroke:#1f77b4;stroke-width:3;" x="140.85" xlink:href="#m85ac988bd5" y="258.175959"/>
     <use style="fill-opacity:0;stroke:#1f77b4;stroke-width:3;" x="145.5" xlink:href="#m85ac988bd5" y="159.465078"/>
     <use style="fill-opacity:0;stroke:#1f77b4;stroke-width:3;" x="150.15" xlink:href="#m85ac988bd5" y="217.960415"/>
     <use style="fill-opacity:0;stroke:#1f77b4;stroke-width:3;" x="154.8" xlink:href="#m85ac988bd5" y="150.325181"/>
     <use style="fill-opacity:0;stroke:#1f77b4;stroke-width:3;" x="159.45" xlink:href="#m85ac988bd5" y="153.06715"/>
     <use style="fill-opacity:0;stroke:#1f77b4;stroke-width:3;" x="164.1" xlink:href="#m85ac988bd5" y="222.530363"/>
     <use style="fill-opacity:0;stroke:#1f77b4;stroke-width:3;" x="168.75" xlink:href="#m85ac988bd5" y="206.078549"/>
     <use style="fill-opacity:0;stroke:#1f77b4;stroke-width:3;" x="173.4" xlink:href="#m85ac988bd5" y="194.196684"/>
     <use style="fill-opacity:0;stroke:#1f77b4;stroke-width:3;" x="178.05" xlink:href="#m85ac988bd5" y="207.906528"/>
     <use style="fill-opacity:0;stroke:#1f77b4;stroke-width:3;" x="182.7" xlink:href="#m85ac988bd5" y="161.293057"/>
     <use style="fill-opacity:0;stroke:#1f77b4;stroke-width:3;" x="187.35" xlink:href="#m85ac988bd5" y="193.282694"/>
     <use style="fill-opacity:0;stroke:#1f77b4;stroke-width:3;" x="192" xlink:href="#m85ac988bd5" y="184.142798"/>
     <use style="fill-opacity:0;stroke:#1f77b4;stroke-width:3;" x="196.65" xlink:href="#m85ac988bd5" y="188.712746"/>
     <use style="fill-opacity:0;stroke:#1f77b4;stroke-width:3;" x="201.3" xlink:href="#m85ac988bd5" y="176.830881"/>
     <use style="fill-opacity:0;stroke:#1f77b4;stroke-width:3;" x="205.95" xlink:href="#m85ac988bd5" y="183.228808"/>
     <use style="fill-opacity:0;stroke:#1f77b4;stroke-width:3;" x="210.6" xlink:href="#m85ac988bd5" y="167.690984"/>
     <use style="fill-opacity:0;stroke:#1f77b4;stroke-width:3;" x="215.25" xlink:href="#m85ac988bd5" y="134.787358"/>
     <use style="fill-opacity:0;stroke:#1f77b4;stroke-width:3;" x="219.9" xlink:href="#m85ac988bd5" y="153.06715"/>
     <use style="fill-opacity:0;stroke:#1f77b4;stroke-width:3;" x="224.55" xlink:href="#m85ac988bd5" y="168.604974"/>
     <use style="fill-opacity:0;stroke:#1f77b4;stroke-width:3;" x="229.2" xlink:href="#m85ac988bd5" y="178.65886"/>
     <use style="fill-opacity:0;stroke:#1f77b4;stroke-width:3;" x="233.85" xlink:href="#m85ac988bd5" y="138.443316"/>
     <use style="fill-opacity:0;stroke:#1f77b4;stroke-width:3;" x="238.5" xlink:href="#m85ac988bd5" y="124.733472"/>
     <use style="fill-opacity:0;stroke:#1f77b4;stroke-width:3;" x="243.15" xlink:href="#m85ac988bd5" y="165.863005"/>
     <use style="fill-opacity:0;stroke:#1f77b4;stroke-width:3;" x="247.8" xlink:href="#m85ac988bd5" y="145.755233"/>
     <use style="fill-opacity:0;stroke:#1f77b4;stroke-width:3;" x="252.45" xlink:href="#m85ac988bd5" y="203.33658"/>
     <use style="fill-opacity:0;stroke:#1f77b4;stroke-width:3;" x="257.1" xlink:href="#m85ac988bd5" y="185.970777"/>
     <use style="fill-opacity:0;stroke:#1f77b4;stroke-width:3;" x="261.75" xlink:href="#m85ac988bd5" y="164.035026"/>
     <use style="fill-opacity:0;stroke:#1f77b4;stroke-width:3;" x="266.4" xlink:href="#m85ac988bd5" y="168.604974"/>
     <use style="fill-opacity:0;stroke:#1f77b4;stroke-width:3;" x="271.05" xlink:href="#m85ac988bd5" y="165.863005"/>
     <use style="fill-opacity:0;stroke:#1f77b4;stroke-width:3;" x="275.7" xlink:href="#m85ac988bd5" y="175.002902"/>
     <use style="fill-opacity:0;stroke:#1f77b4;stroke-width:3;" x="280.35" xlink:href="#m85ac988bd5" y="216.132435"/>
     <use style="fill-opacity:0;stroke:#1f77b4;stroke-width:3;" x="285" xlink:href="#m85ac988bd5" y="123.819482"/>
     <use style="fill-opacity:0;stroke:#1f77b4;stroke-width:3;" x="289.65" xlink:href="#m85ac988bd5" y="200.594611"/>
     <use style="fill-opacity:0;stroke:#1f77b4;stroke-width:3;" x="294.3" xlink:href="#m85ac988bd5" y="166.776995"/>
     <use style="fill-opacity:0;stroke:#1f77b4;stroke-width:3;" x="298.95" xlink:href="#m85ac988bd5" y="191.454715"/>
     <use style="fill-opacity:0;stroke:#1f77b4;stroke-width:3;" x="303.6" xlink:href="#m85ac988bd5" y="123.819482"/>
     <use style="fill-opacity:0;stroke:#1f77b4;stroke-width:3;" x="308.25" xlink:href="#m85ac988bd5" y="209.734508"/>
     <use style="fill-opacity:0;stroke:#1f77b4;stroke-width:3;" x="312.9" xlink:href="#m85ac988bd5" y="227.100311"/>
     <use style="fill-opacity:0;stroke:#1f77b4;stroke-width:3;" x="317.55" xlink:href="#m85ac988bd5" y="191.454715"/>
     <use style="fill-opacity:0;stroke:#1f77b4;stroke-width:3;" x="322.2" xlink:href="#m85ac988bd5" y="264.573886"/>
     <use style="fill-opacity:0;stroke:#1f77b4;stroke-width:3;" x="326.85" xlink:href="#m85ac988bd5" y="231.670259"/>
     <use style="fill-opacity:0;stroke:#1f77b4;stroke-width:3;" x="331.5" xlink:href="#m85ac988bd5" y="291.993575"/>
     <use style="fill-opacity:0;stroke:#1f77b4;stroke-width:3;" x="336.15" xlink:href="#m85ac988bd5" y="300.219482"/>
     <use style="fill-opacity:0;stroke:#1f77b4;stroke-width:3;" x="340.8" xlink:href="#m85ac988bd5" y="272.799793"/>
     <use style="fill-opacity:0;stroke:#1f77b4;stroke-width:3;" x="345.45" xlink:href="#m85ac988bd5" y="278.283731"/>
     <use style="fill-opacity:0;stroke:#1f77b4;stroke-width:3;" x="350.1" xlink:href="#m85ac988bd5" y="354.14487"/>
     <use style="fill-opacity:0;stroke:#1f77b4;stroke-width:3;" x="354.75" xlink:href="#m85ac988bd5" y="430.92"/>
     <use style="fill-opacity:0;stroke:#1f77b4;stroke-width:3;" x="359.4" xlink:href="#m85ac988bd5" y="380.65057"/>
     <use style="fill-opacity:0;stroke:#1f77b4;stroke-width:3;" x="364.05" xlink:href="#m85ac988bd5" y="430.92"/>
     <use style="fill-opacity:0;stroke:#1f77b4;stroke-width:3;" x="368.7" xlink:href="#m85ac988bd5" y="398.930363"/>
     <use style="fill-opacity:0;stroke:#1f77b4;stroke-width:3;" x="373.35" xlink:href="#m85ac988bd5" y="396.188394"/>
     <use style="fill-opacity:0;stroke:#1f77b4;stroke-width:3;" x="378" xlink:href="#m85ac988bd5" y="385.220518"/>
     <use style="fill-opacity:0;stroke:#1f77b4;stroke-width:3;" x="382.65" xlink:href="#m85ac988bd5" y="360.542798"/>
     <use style="fill-opacity:0;stroke:#1f77b4;stroke-width:3;" x="387.3" xlink:href="#m85ac988bd5" y="374.252642"/>
     <use style="fill-opacity:0;stroke:#1f77b4;stroke-width:3;" x="391.95" xlink:href="#m85ac988bd5" y="338.607047"/>
     <use style="fill-opacity:0;stroke:#1f77b4;stroke-width:3;" x="396.6" xlink:href="#m85ac988bd5" y="210.648497"/>
     <use style="fill-opacity:0;stroke:#1f77b4;stroke-width:3;" x="401.25" xlink:href="#m85ac988bd5" y="238.982176"/>
     <use style="fill-opacity:0;stroke:#1f77b4;stroke-width:3;" x="405.9" xlink:href="#m85ac988bd5" y="270.057824"/>
     <use style="fill-opacity:0;stroke:#1f77b4;stroke-width:3;" x="410.55" xlink:href="#m85ac988bd5" y="183.228808"/>
     <use style="fill-opacity:0;stroke:#1f77b4;stroke-width:3;" x="415.2" xlink:href="#m85ac988bd5" y="158.551088"/>
     <use style="fill-opacity:0;stroke:#1f77b4;stroke-width:3;" x="419.85" xlink:href="#m85ac988bd5" y="185.056788"/>
     <use style="fill-opacity:0;stroke:#1f77b4;stroke-width:3;" x="424.5" xlink:href="#m85ac988bd5" y="191.454715"/>
     <use style="fill-opacity:0;stroke:#1f77b4;stroke-width:3;" x="429.15" xlink:href="#m85ac988bd5" y="130.217409"/>
     <use style="fill-opacity:0;stroke:#1f77b4;stroke-width:3;" x="433.8" xlink:href="#m85ac988bd5" y="174.088912"/>
     <use style="fill-opacity:0;stroke:#1f77b4;stroke-width:3;" x="438.45" xlink:href="#m85ac988bd5" y="156.723109"/>
     <use style="fill-opacity:0;stroke:#1f77b4;stroke-width:3;" x="443.1" xlink:href="#m85ac988bd5" y="132.045389"/>
     <use style="fill-opacity:0;stroke:#1f77b4;stroke-width:3;" x="447.75" xlink:href="#m85ac988bd5" y="188.712746"/>
     <use style="fill-opacity:0;stroke:#1f77b4;stroke-width:3;" x="452.4" xlink:href="#m85ac988bd5" y="124.733472"/>
     <use style="fill-opacity:0;stroke:#1f77b4;stroke-width:3;" x="457.05" xlink:href="#m85ac988bd5" y="196.024663"/>
     <use style="fill-opacity:0;stroke:#1f77b4;stroke-width:3;" x="461.7" xlink:href="#m85ac988bd5" y="151.239171"/>
     <use style="fill-opacity:0;stroke:#1f77b4;stroke-width:3;" x="466.35" xlink:href="#m85ac988bd5" y="153.98114"/>
     <use style="fill-opacity:0;stroke:#1f77b4;stroke-width:3;" x="471" xlink:href="#m85ac988bd5" y="199.680622"/>
     <use style="fill-opacity:0;stroke:#1f77b4;stroke-width:3;" x="475.65" xlink:href="#m85ac988bd5" y="164.035026"/>
     <use style="fill-opacity:0;stroke:#1f77b4;stroke-width:3;" x="480.3" xlink:href="#m85ac988bd5" y="142.099275"/>
     <use style="fill-opacity:0;stroke:#1f77b4;stroke-width:3;" x="484.95" xlink:href="#m85ac988bd5" y="150.325181"/>
     <use style="fill-opacity:0;stroke:#1f77b4;stroke-width:3;" x="489.6" xlink:href="#m85ac988bd5" y="153.98114"/>
     <use style="fill-opacity:0;stroke:#1f77b4;stroke-width:3;" x="494.25" xlink:href="#m85ac988bd5" y="205.16456"/>
     <use style="fill-opacity:0;stroke:#1f77b4;stroke-width:3;" x="498.9" xlink:href="#m85ac988bd5" y="168.604974"/>
     <use style="fill-opacity:0;stroke:#1f77b4;stroke-width:3;" x="503.55" xlink:href="#m85ac988bd5" y="160.379067"/>
     <use style="fill-opacity:0;stroke:#1f77b4;stroke-width:3;" x="508.2" xlink:href="#m85ac988bd5" y="182.314819"/>
     <use style="fill-opacity:0;stroke:#1f77b4;stroke-width:3;" x="512.85" xlink:href="#m85ac988bd5" y="148.497202"/>
     <use style="fill-opacity:0;stroke:#1f77b4;stroke-width:3;" x="517.5" xlink:href="#m85ac988bd5" y="161.293057"/>
     <use style="fill-opacity:0;stroke:#1f77b4;stroke-width:3;" x="522.15" xlink:href="#m85ac988bd5" y="122.905492"/>
     <use style="fill-opacity:0;stroke:#1f77b4;stroke-width:3;" x="526.8" xlink:href="#m85ac988bd5" y="139.357306"/>
     <use style="fill-opacity:0;stroke:#1f77b4;stroke-width:3;" x="531.45" xlink:href="#m85ac988bd5" y="141.185285"/>
     <use style="fill-opacity:0;stroke:#1f77b4;stroke-width:3;" x="536.1" xlink:href="#m85ac988bd5" y="166.776995"/>
     <use style="fill-opacity:0;stroke:#1f77b4;stroke-width:3;" x="540.75" xlink:href="#m85ac988bd5" y="99.141762"/>
     <use style="fill-opacity:0;stroke:#1f77b4;stroke-width:3;" x="545.4" xlink:href="#m85ac988bd5" y="78.12"/>
     <use style="fill-opacity:0;stroke:#1f77b4;stroke-width:3;" x="550.05" xlink:href="#m85ac988bd5" y="153.98114"/>
     <use style="fill-opacity:0;stroke:#1f77b4;stroke-width:3;" x="554.7" xlink:href="#m85ac988bd5" y="107.367668"/>
     <use style="fill-opacity:0;stroke:#1f77b4;stroke-width:3;" x="559.35" xlink:href="#m85ac988bd5" y="151.239171"/>
     <use style="fill-opacity:0;stroke:#1f77b4;stroke-width:3;" x="564" xlink:href="#m85ac988bd5" y="110.109637"/>
     <use style="fill-opacity:0;stroke:#1f77b4;stroke-width:3;" x="568.65" xlink:href="#m85ac988bd5" y="132.045389"/>
     <use style="fill-opacity:0;stroke:#1f77b4;stroke-width:3;" x="573.3" xlink:href="#m85ac988bd5" y="125.647461"/>
     <use style="fill-opacity:0;stroke:#1f77b4;stroke-width:3;" x="577.95" xlink:href="#m85ac988bd5" y="115.593575"/>
     <use style="fill-opacity:0;stroke:#1f77b4;stroke-width:3;" x="582.6" xlink:href="#m85ac988bd5" y="173.174922"/>
     <use style="fill-opacity:0;stroke:#1f77b4;stroke-width:3;" x="587.25" xlink:href="#m85ac988bd5" y="175.916891"/>
     <use style="fill-opacity:0;stroke:#1f77b4;stroke-width:3;" x="591.9" xlink:href="#m85ac988bd5" y="187.798756"/>
     <use style="fill-opacity:0;stroke:#1f77b4;stroke-width:3;" x="596.55" xlink:href="#m85ac988bd5" y="136.615337"/>
     <use style="fill-opacity:0;stroke:#1f77b4;stroke-width:3;" x="601.2" xlink:href="#m85ac988bd5" y="132.045389"/>
     <use style="fill-opacity:0;stroke:#1f77b4;stroke-width:3;" x="605.85" xlink:href="#m85ac988bd5" y="206.992539"/>
     <use style="fill-opacity:0;stroke:#1f77b4;stroke-width:3;" x="610.5" xlink:href="#m85ac988bd5" y="161.293057"/>
     <use style="fill-opacity:0;stroke:#1f77b4;stroke-width:3;" x="615.15" xlink:href="#m85ac988bd5" y="169.518964"/>
     <use style="fill-opacity:0;stroke:#1f77b4;stroke-width:3;" x="619.8" xlink:href="#m85ac988bd5" y="198.766632"/>
     <use style="fill-opacity:0;stroke:#1f77b4;stroke-width:3;" x="624.45" xlink:href="#m85ac988bd5" y="124.733472"/>
     <use style="fill-opacity:0;stroke:#1f77b4;stroke-width:3;" x="629.1" xlink:href="#m85ac988bd5" y="196.938653"/>
     <use style="fill-opacity:0;stroke:#1f77b4;stroke-width:3;" x="633.75" xlink:href="#m85ac988bd5" y="143.927254"/>
     <use style="fill-opacity:0;stroke:#1f77b4;stroke-width:3;" x="638.4" xlink:href="#m85ac988bd5" y="143.013264"/>
     <use style="fill-opacity:0;stroke:#1f77b4;stroke-width:3;" x="643.05" xlink:href="#m85ac988bd5" y="111.023627"/>
     <use style="fill-opacity:0;stroke:#1f77b4;stroke-width:3;" x="647.7" xlink:href="#m85ac988bd5" y="164.035026"/>
     <use style="fill-opacity:0;stroke:#1f77b4;stroke-width:3;" x="652.35" xlink:href="#m85ac988bd5" y="162.207047"/>
     <use style="fill-opacity:0;stroke:#1f77b4;stroke-width:3;" x="657" xlink:href="#m85ac988bd5" y="142.099275"/>
     <use style="fill-opacity:0;stroke:#1f77b4;stroke-width:3;" x="661.65" xlink:href="#m85ac988bd5" y="187.798756"/>
     <use style="fill-opacity:0;stroke:#1f77b4;stroke-width:3;" x="666.3" xlink:href="#m85ac988bd5" y="162.207047"/>
     <use style="fill-opacity:0;stroke:#1f77b4;stroke-width:3;" x="670.95" xlink:href="#m85ac988bd5" y="185.970777"/>
     <use style="fill-opacity:0;stroke:#1f77b4;stroke-width:3;" x="675.6" xlink:href="#m85ac988bd5" y="150.325181"/>
     <use style="fill-opacity:0;stroke:#1f77b4;stroke-width:3;" x="680.25" xlink:href="#m85ac988bd5" y="188.712746"/>
     <use style="fill-opacity:0;stroke:#1f77b4;stroke-width:3;" x="684.9" xlink:href="#m85ac988bd5" y="208.820518"/>
    </g>
   </g>
   <g id="line2d_14">
    <path clip-path="url(#p4a6c7ada6f)" d="M 219.9 164.588134 
L 224.55 164.588146 
L 229.2 164.588179 
L 233.85 164.58827 
L 238.5 164.588512 
L 243.15 164.589131 
L 247.8 164.590653 
L 252.45 164.594266 
L 257.1 164.602525 
L 261.75 164.620712 
L 266.4 164.659286 
L 271.05 164.738067 
L 275.7 164.892978 
L 280.35 165.186175 
L 285 165.720168 
L 289.65 166.655727 
L 294.3 168.231877 
L 298.95 170.784082 
L 303.6 174.754021 
L 308.25 180.682001 
L 312.9 189.172168 
L 317.55 200.822734 
L 322.2 216.119473 
L 326.85 235.300768 
L 331.5 258.214943 
L 336.15 284.201872 
L 340.8 312.036353 
L 345.45 339.966345 
L 350.1 365.862919 
L 354.75 387.473081 
L 359.4 402.737669 
L 364.05 410.113502 
L 368.7 408.830297 
L 373.35 399.02318 
L 378 381.709251 
L 382.65 358.613821 
L 387.3 331.887396 
L 391.95 303.777627 
L 396.6 276.325007 
L 401.25 251.137562 
L 405.9 229.274019 
L 410.55 211.236074 
L 415.2 197.046978 
L 419.85 186.380844 
L 424.5 178.705934 
L 429.15 173.412844 
L 433.8 169.910581 
L 438.45 167.685552 
L 443.1 166.327398 
L 447.75 165.530476 
L 452.4 165.080772 
L 457.05 164.836632 
L 461.7 164.709079 
L 466.35 164.64493 
L 471 164.613868 
L 475.65 164.599382 
L 480.3 164.592876 
L 484.95 164.590061 
L 489.6 164.588888 
L 494.25 164.588416 
L 498.9 164.588234 
L 503.55 164.588166 
L 508.2 164.588141 
L 512.85 164.588133 
L 517.5 164.58813 
" style="fill:none;stroke:#ff7f0e;stroke-linecap:square;stroke-width:5;"/>
   </g>
   <g id="patch_3">
    <path d="M 99 448.56 
L 99 60.48 
" style="fill:none;stroke:#000000;stroke-linecap:square;stroke-linejoin:miter;stroke-width:0.8;"/>
   </g>
   <g id="patch_4">
    <path d="M 712.8 448.56 
L 712.8 60.48 
" style="fill:none;stroke:#000000;stroke-linecap:square;stroke-linejoin:miter;stroke-width:0.8;"/>
   </g>
   <g id="patch_5">
    <path d="M 99 448.56 
L 712.8 448.56 
" style="fill:none;stroke:#000000;stroke-linecap:square;stroke-linejoin:miter;stroke-width:0.8;"/>
   </g>
   <g id="patch_6">
    <path d="M 99 60.48 
L 712.8 60.48 
" style="fill:none;stroke:#000000;stroke-linecap:square;stroke-linejoin:miter;stroke-width:0.8;"/>
   </g>
  </g>
 </g>
 <defs>
  <clipPath id="p4a6c7ada6f">
   <rect height="388.08" width="613.8" x="99" y="60.48"/>
  </clipPath>
 </defs>
</svg>
