<?xml version="1.0" encoding="UTF-8" standalone="no"?>
<!-- Created with Inkscape (http://www.inkscape.org/) -->

<svg
   width="56.959515mm"
   height="39.354706mm"
   viewBox="0 0 56.959515 39.354706"
   version="1.1"
   id="svg102801"
   inkscape:version="1.1 (c68e22c387, 2021-05-23)"
   sodipodi:docname="signature Gabriel svg.svg"
   xmlns:inkscape="http://www.inkscape.org/namespaces/inkscape"
   xmlns:sodipodi="http://sodipodi.sourceforge.net/DTD/sodipodi-0.dtd"
   xmlns="http://www.w3.org/2000/svg"
   xmlns:svg="http://www.w3.org/2000/svg">
  <sodipodi:namedview
     id="namedview102803"
     pagecolor="#ffffff"
     bordercolor="#666666"
     borderopacity="1.0"
     inkscape:pageshadow="2"
     inkscape:pageopacity="0.0"
     inkscape:pagecheckerboard="0"
     inkscape:document-units="mm"
     showgrid="false"
     inkscape:zoom="0.57370932"
     inkscape:cx="133.34279"
     inkscape:cy="28.760209"
     inkscape:window-width="1280"
     inkscape:window-height="649"
     inkscape:window-x="1592"
     inkscape:window-y="-8"
     inkscape:window-maximized="1"
     inkscape:current-layer="layer1" />
  <defs
     id="defs102798">
    <clipPath
       id="clip1">
      <path
         d="m 0,36 h 161.46094 v 75.55859 H 0 Z m 0,0"
         id="path102862" />
    </clipPath>
  </defs>
  <g
     inkscape:label="Calque 1"
     inkscape:groupmode="layer"
     id="layer1"
     transform="translate(-69.751609,-141.27451)">
    <g
       id="surface2162468"
       transform="matrix(0.35277778,0,0,0.35277778,69.751293,141.27382)">
      <g
         clip-path="url(#clip1)"
         clip-rule="nonzero"
         id="g102869">
        <path
           style="fill:#020505;fill-opacity:1;fill-rule:nonzero;stroke:none"
           d="m 40.203125,46.890625 c -1.011719,16.390625 -0.109375,32.75 2.6875,48.929687 0.02734,0.152344 0.253906,0.136719 0.289063,0 1.238281,-4.679687 15.027343,-57.019531 15.089843,-57.003906 1.511719,0.386719 1.882813,9.609375 2.179688,11.78125 0.800781,5.855469 1.550781,11.71875 2.25,17.589844 1.128906,9.476562 2.125,18.96875 2.984375,28.472656 0.183594,2.015625 2.226562,13.019534 0.132812,13.566404 -1.242187,0.32422 -8.019531,-7.21484 -8.980468,-8.16406 C 50.640625,95.960938 44.859375,89.449219 38.480469,83.535156 27.855469,73.679688 15.058594,65.453125 0.148438,65.152344 c -0.164063,-0.0039 -0.210938,0.273437 -0.039063,0.296875 53.785156,7.441406 108.636715,4.355469 161.246095,-9.078125 0.1875,-0.04687 0.10937,-0.335938 -0.082,-0.289063 C 129.84766,64.105469 97.566406,68.53125 65.132812,69.105469 49.078125,69.390625 33.007812,68.75 17.027344,67.171875 13.265625,66.800781 9.515625,66.34375 5.765625,65.902344 4.621094,65.769531 -0.179688,65.203125 3.332031,65.585938 5.691406,65.839844 8,66.207031 10.292969,66.816406 c 6.980469,1.851563 13.414062,5.398438 19.21875,9.636719 13.875,10.128906 24.070312,24.351565 37.449219,35.070315 0.08984,0.0742 0.265624,0.0391 0.253906,-0.10547 -1.921875,-24.957032 -4.738282,-49.828126 -8.441406,-74.582032 -0.02344,-0.152344 -0.253907,-0.132813 -0.289063,0 C 53.875,54.253906 49.261719,71.671875 44.652344,89.089844 44.40625,90.019531 43.90625,94.09375 42.859375,93.882812 42.648438,93.839844 42.039062,88.585938 41.996094,88.285156 41.300781,83.3125 40.796875,78.3125 40.476562,73.300781 39.910156,64.503906 39.960938,55.691406 40.5,46.890625 c 0.01563,-0.191406 -0.285156,-0.191406 -0.296875,0"
           id="path102867" />
      </g>
      <path
         style="fill:#020505;fill-opacity:1;fill-rule:nonzero;stroke:none"
         d="m 74.230469,60.03125 c 1.902343,-0.05078 3.800781,-0.105469 5.703125,-0.160156 0.136718,-0.0039 0.222656,-0.214844 0.07422,-0.277344 -2.117187,-0.90625 -4.625,-2.023438 -6.730468,-0.507812 -1.296875,0.9375 -1.804688,2.277343 -1.019532,3.789062 2.03125,3.914062 11.71875,5.914062 15.574219,5.082031 6.804688,-1.472656 8.449219,-10.625 9.796875,-16.253906 2.261719,-9.464844 2.542972,-19.207031 1.179688,-28.824219 -0.01953,-0.152344 -0.257813,-0.136718 -0.289063,0 -3.1875,13.050782 -1.898437,26.894532 4.164057,38.953125 1.32422,2.632813 3.36719,7.292969 6.92579,4.796875 2.02343,-1.421875 3.19531,-4.523437 4.0664,-6.660156 0.64063,-1.570312 1.16016,-3.195312 1.54297,-4.847656 0.14063,-0.605469 0.17969,-3.273438 0.70313,-3.691406 -0.55079,0.441406 5.33984,2.757812 7.02734,2.339843 4.85156,-1.1875 7.25781,-7.070312 8.99609,-11.121093 5.75781,-13.414063 7.32422,-28.171876 4.9961,-42.539063 -0.0234,-0.1367188 -0.21485,-0.1367188 -0.27735,-0.0351562 -10.01562,15.9453122 -11.38281,35.9140622 -3.64844,53.0820312 0.0703,0.15625 0.33594,0.04297 0.27735,-0.113281 -5.1875,-13.789063 -21.91406,-9.367188 -30.65625,-2.144531 -11.105468,9.175781 -21.124999,25.464843 -20.187499,40.378906 0.3125,5.015625 2.855469,10.339846 8.453125,10.804686 4.9375,0.41406 9.578124,-3.33203 12.152344,-7.214842 8.23828,-12.417969 2.77734,-29.761719 -7.113282,-39.40625 -2.964844,-2.890626 -6.394531,-5.332032 -10.042968,-7.28125 -1.613282,-0.863282 -3.277344,-1.632813 -4.972657,-2.3125 -3.726562,-1.492188 -1.4375,-1.953126 1.191407,-3.21875 9.566404,-4.605469 18.38281,-10.507813 26.42187,-17.425782 0.14453,-0.128906 -0.0664,-0.339844 -0.21484,-0.214844 -9.394532,8.085938 -19.808595,14.617188 -31.171876,19.5625 -0.125,0.05469 -0.07422,0.238282 0.03516,0.273438 17.109375,5.667969 31.996086,20.933594 29.050776,40.1875 -0.69922,4.558594 -2.33203,8.988281 -5.60547,12.332031 -4.226556,4.320309 -11.796868,6.734379 -15.8789,0.726563 -5.023437,-7.394532 -0.636718,-19.433594 2.691406,-26.691406 3.453126,-7.527344 8.496094,-14.394532 14.808594,-19.777344 7.23437,-6.171875 18.84765,-11.242188 27.16015,-3.84375 1.5,1.332031 3.13672,4.800781 2.0625,0.882812 -0.41797,-1.519531 -1.0039,-2.992187 -1.40625,-4.523437 -1.20312,-4.570313 -1.80469,-9.308594 -1.80078,-14.03125 0,-8.667969 1.97656,-17.34375 5.90234,-25.085938 1.6211,-3.195312 2.60938,-5.40625 3.1836,0.28125 0.23437,2.296875 0.36328,4.605469 0.3789,6.917969 0.0469,5.179688 -0.44531,10.378906 -1.46093,15.460938 -0.90625,4.53125 -2.22657,8.980468 -3.94532,13.269531 -1.16015,2.898437 -2.44921,5.910156 -4.29687,8.449219 -2.56641,3.535156 -9.78125,7.253906 -12.0625,0.613281 -0.0586,-0.164063 -0.28125,-0.128907 -0.29687,0.03906 -0.26563,2.839844 -0.7461,5.558594 -1.6836,8.25 -1.07422,3.082031 -3.73828,11.125 -9.46094,6.300781 -1.53515,-1.292968 -2.94921,-5.78125 -3.60156,-7.4375 -0.8125,-2.066406 -1.496088,-4.175781 -2.050776,-6.324218 -1.253906,-4.8125 -1.863281,-9.796875 -1.808594,-14.769532 0.03125,-2.757812 0.265625,-5.511718 0.710938,-8.234374 0.496094,-3.03125 0.730468,-4.171876 1.285156,-0.429688 1.417966,9.625 -0.265625,20.269531 -3.171875,29.445312 -2.156254,6.80469 -5.539067,12.394534 -13.69141,10.55469 -1.910157,-0.429688 -5.789063,-1.191406 -6.988281,-2.664062 -2.703126,-1.007813 -1.761719,-2.710938 2.820312,-5.117188 -1.265625,0.03516 -2.535156,0.07422 -3.800781,0.109375 -0.195313,0.0039 -0.195313,0.304687 0,0.296875"
         id="path102871" />
    </g>
  </g>
</svg>
