<?xml version="1.0" encoding="utf-8" standalone="no"?>
<!DOCTYPE svg PUBLIC "-//W3C//DTD SVG 1.1//EN"
  "http://www.w3.org/Graphics/SVG/1.1/DTD/svg11.dtd">
<svg xmlns:xlink="http://www.w3.org/1999/xlink" width="288pt" height="216pt" viewBox="0 0 288 216" xmlns="http://www.w3.org/2000/svg" version="1.1">
 <metadata>
  <rdf:RDF xmlns:dc="http://purl.org/dc/elements/1.1/" xmlns:cc="http://creativecommons.org/ns#" xmlns:rdf="http://www.w3.org/1999/02/22-rdf-syntax-ns#">
   <cc:Work>
    <dc:type rdf:resource="http://purl.org/dc/dcmitype/StillImage"/>
    <dc:date>2022-05-31T16:52:47.358337</dc:date>
    <dc:format>image/svg+xml</dc:format>
    <dc:creator>
     <cc:Agent>
      <dc:title>Matplotlib v3.5.1, https://matplotlib.org/</dc:title>
     </cc:Agent>
    </dc:creator>
   </cc:Work>
  </rdf:RDF>
 </metadata>
 <defs>
  <style type="text/css">*{stroke-linejoin: round; stroke-linecap: butt}</style>
 </defs>
 <g id="figure_1">
  <g id="patch_1">
   <path d="M 0 216 
L 288 216 
L 288 0 
L 0 0 
z
" style="fill: #ffffff"/>
  </g>
  <g id="axes_1">
   <g id="patch_2">
    <path d="M 36 192.24 
L 259.2 192.24 
L 259.2 25.92 
L 36 25.92 
z
" style="fill: #ffffff"/>
   </g>
   <g id="matplotlib.axis_1">
    <g id="xtick_1">
     <g id="line2d_1">
      <defs>
       <path id="m16b7923451" d="M 0 0 
L 0 3.5 
" style="stroke: #000000; stroke-width: 0.8"/>
      </defs>
      <g>
       <use xlink:href="#m16b7923451" x="46.145455" y="192.24" style="stroke: #000000; stroke-width: 0.8"/>
      </g>
     </g>
     <g id="text_1">
      <!-- 2600 -->
      <g transform="translate(29.602955 209.117969)scale(0.13 -0.13)">
       <defs>
        <path id="DejaVuSans-32" d="M 1228 531 
L 3431 531 
L 3431 0 
L 469 0 
L 469 531 
Q 828 903 1448 1529 
Q 2069 2156 2228 2338 
Q 2531 2678 2651 2914 
Q 2772 3150 2772 3378 
Q 2772 3750 2511 3984 
Q 2250 4219 1831 4219 
Q 1534 4219 1204 4116 
Q 875 4013 500 3803 
L 500 4441 
Q 881 4594 1212 4672 
Q 1544 4750 1819 4750 
Q 2544 4750 2975 4387 
Q 3406 4025 3406 3419 
Q 3406 3131 3298 2873 
Q 3191 2616 2906 2266 
Q 2828 2175 2409 1742 
Q 1991 1309 1228 531 
z
" transform="scale(0.015625)"/>
        <path id="DejaVuSans-36" d="M 2113 2584 
Q 1688 2584 1439 2293 
Q 1191 2003 1191 1497 
Q 1191 994 1439 701 
Q 1688 409 2113 409 
Q 2538 409 2786 701 
Q 3034 994 3034 1497 
Q 3034 2003 2786 2293 
Q 2538 2584 2113 2584 
z
M 3366 4563 
L 3366 3988 
Q 3128 4100 2886 4159 
Q 2644 4219 2406 4219 
Q 1781 4219 1451 3797 
Q 1122 3375 1075 2522 
Q 1259 2794 1537 2939 
Q 1816 3084 2150 3084 
Q 2853 3084 3261 2657 
Q 3669 2231 3669 1497 
Q 3669 778 3244 343 
Q 2819 -91 2113 -91 
Q 1303 -91 875 529 
Q 447 1150 447 2328 
Q 447 3434 972 4092 
Q 1497 4750 2381 4750 
Q 2619 4750 2861 4703 
Q 3103 4656 3366 4563 
z
" transform="scale(0.015625)"/>
        <path id="DejaVuSans-30" d="M 2034 4250 
Q 1547 4250 1301 3770 
Q 1056 3291 1056 2328 
Q 1056 1369 1301 889 
Q 1547 409 2034 409 
Q 2525 409 2770 889 
Q 3016 1369 3016 2328 
Q 3016 3291 2770 3770 
Q 2525 4250 2034 4250 
z
M 2034 4750 
Q 2819 4750 3233 4129 
Q 3647 3509 3647 2328 
Q 3647 1150 3233 529 
Q 2819 -91 2034 -91 
Q 1250 -91 836 529 
Q 422 1150 422 2328 
Q 422 3509 836 4129 
Q 1250 4750 2034 4750 
z
" transform="scale(0.015625)"/>
       </defs>
       <use xlink:href="#DejaVuSans-32"/>
       <use xlink:href="#DejaVuSans-36" x="63.623047"/>
       <use xlink:href="#DejaVuSans-30" x="127.246094"/>
       <use xlink:href="#DejaVuSans-30" x="190.869141"/>
      </g>
     </g>
    </g>
    <g id="xtick_2">
     <g id="line2d_2">
      <g>
       <use xlink:href="#m16b7923451" x="113.781818" y="192.24" style="stroke: #000000; stroke-width: 0.8"/>
      </g>
     </g>
     <g id="text_2">
      <!-- 2800 -->
      <g transform="translate(97.239318 209.117969)scale(0.13 -0.13)">
       <defs>
        <path id="DejaVuSans-38" d="M 2034 2216 
Q 1584 2216 1326 1975 
Q 1069 1734 1069 1313 
Q 1069 891 1326 650 
Q 1584 409 2034 409 
Q 2484 409 2743 651 
Q 3003 894 3003 1313 
Q 3003 1734 2745 1975 
Q 2488 2216 2034 2216 
z
M 1403 2484 
Q 997 2584 770 2862 
Q 544 3141 544 3541 
Q 544 4100 942 4425 
Q 1341 4750 2034 4750 
Q 2731 4750 3128 4425 
Q 3525 4100 3525 3541 
Q 3525 3141 3298 2862 
Q 3072 2584 2669 2484 
Q 3125 2378 3379 2068 
Q 3634 1759 3634 1313 
Q 3634 634 3220 271 
Q 2806 -91 2034 -91 
Q 1263 -91 848 271 
Q 434 634 434 1313 
Q 434 1759 690 2068 
Q 947 2378 1403 2484 
z
M 1172 3481 
Q 1172 3119 1398 2916 
Q 1625 2713 2034 2713 
Q 2441 2713 2670 2916 
Q 2900 3119 2900 3481 
Q 2900 3844 2670 4047 
Q 2441 4250 2034 4250 
Q 1625 4250 1398 4047 
Q 1172 3844 1172 3481 
z
" transform="scale(0.015625)"/>
       </defs>
       <use xlink:href="#DejaVuSans-32"/>
       <use xlink:href="#DejaVuSans-38" x="63.623047"/>
       <use xlink:href="#DejaVuSans-30" x="127.246094"/>
       <use xlink:href="#DejaVuSans-30" x="190.869141"/>
      </g>
     </g>
    </g>
    <g id="xtick_3">
     <g id="line2d_3">
      <g>
       <use xlink:href="#m16b7923451" x="181.418182" y="192.24" style="stroke: #000000; stroke-width: 0.8"/>
      </g>
     </g>
     <g id="text_3">
      <!-- 3000 -->
      <g transform="translate(164.875682 209.117969)scale(0.13 -0.13)">
       <defs>
        <path id="DejaVuSans-33" d="M 2597 2516 
Q 3050 2419 3304 2112 
Q 3559 1806 3559 1356 
Q 3559 666 3084 287 
Q 2609 -91 1734 -91 
Q 1441 -91 1130 -33 
Q 819 25 488 141 
L 488 750 
Q 750 597 1062 519 
Q 1375 441 1716 441 
Q 2309 441 2620 675 
Q 2931 909 2931 1356 
Q 2931 1769 2642 2001 
Q 2353 2234 1838 2234 
L 1294 2234 
L 1294 2753 
L 1863 2753 
Q 2328 2753 2575 2939 
Q 2822 3125 2822 3475 
Q 2822 3834 2567 4026 
Q 2313 4219 1838 4219 
Q 1578 4219 1281 4162 
Q 984 4106 628 3988 
L 628 4550 
Q 988 4650 1302 4700 
Q 1616 4750 1894 4750 
Q 2613 4750 3031 4423 
Q 3450 4097 3450 3541 
Q 3450 3153 3228 2886 
Q 3006 2619 2597 2516 
z
" transform="scale(0.015625)"/>
       </defs>
       <use xlink:href="#DejaVuSans-33"/>
       <use xlink:href="#DejaVuSans-30" x="63.623047"/>
       <use xlink:href="#DejaVuSans-30" x="127.246094"/>
       <use xlink:href="#DejaVuSans-30" x="190.869141"/>
      </g>
     </g>
    </g>
    <g id="xtick_4">
     <g id="line2d_4">
      <g>
       <use xlink:href="#m16b7923451" x="249.054545" y="192.24" style="stroke: #000000; stroke-width: 0.8"/>
      </g>
     </g>
     <g id="text_4">
      <!-- 3200 -->
      <g transform="translate(232.512045 209.117969)scale(0.13 -0.13)">
       <use xlink:href="#DejaVuSans-33"/>
       <use xlink:href="#DejaVuSans-32" x="63.623047"/>
       <use xlink:href="#DejaVuSans-30" x="127.246094"/>
       <use xlink:href="#DejaVuSans-30" x="190.869141"/>
      </g>
     </g>
    </g>
   </g>
   <g id="matplotlib.axis_2">
    <g id="ytick_1">
     <g id="line2d_5">
      <defs>
       <path id="me887a2472e" d="M 0 0 
L -3.5 0 
" style="stroke: #000000; stroke-width: 0.8"/>
      </defs>
      <g>
       <use xlink:href="#me887a2472e" x="36" y="184.946634" style="stroke: #000000; stroke-width: 0.8"/>
      </g>
     </g>
     <g id="text_5">
      <!-- 0.0 -->
      <g transform="translate(8.325937 189.885619)scale(0.13 -0.13)">
       <defs>
        <path id="DejaVuSans-2e" d="M 684 794 
L 1344 794 
L 1344 0 
L 684 0 
L 684 794 
z
" transform="scale(0.015625)"/>
       </defs>
       <use xlink:href="#DejaVuSans-30"/>
       <use xlink:href="#DejaVuSans-2e" x="63.623047"/>
       <use xlink:href="#DejaVuSans-30" x="95.410156"/>
      </g>
     </g>
    </g>
    <g id="ytick_2">
     <g id="line2d_6">
      <g>
       <use xlink:href="#me887a2472e" x="36" y="154.653307" style="stroke: #000000; stroke-width: 0.8"/>
      </g>
     </g>
     <g id="text_6">
      <!-- 0.2 -->
      <g transform="translate(8.325937 159.592292)scale(0.13 -0.13)">
       <use xlink:href="#DejaVuSans-30"/>
       <use xlink:href="#DejaVuSans-2e" x="63.623047"/>
       <use xlink:href="#DejaVuSans-32" x="95.410156"/>
      </g>
     </g>
    </g>
    <g id="ytick_3">
     <g id="line2d_7">
      <g>
       <use xlink:href="#me887a2472e" x="36" y="124.359981" style="stroke: #000000; stroke-width: 0.8"/>
      </g>
     </g>
     <g id="text_7">
      <!-- 0.4 -->
      <g transform="translate(8.325937 129.298965)scale(0.13 -0.13)">
       <defs>
        <path id="DejaVuSans-34" d="M 2419 4116 
L 825 1625 
L 2419 1625 
L 2419 4116 
z
M 2253 4666 
L 3047 4666 
L 3047 1625 
L 3713 1625 
L 3713 1100 
L 3047 1100 
L 3047 0 
L 2419 0 
L 2419 1100 
L 313 1100 
L 313 1709 
L 2253 4666 
z
" transform="scale(0.015625)"/>
       </defs>
       <use xlink:href="#DejaVuSans-30"/>
       <use xlink:href="#DejaVuSans-2e" x="63.623047"/>
       <use xlink:href="#DejaVuSans-34" x="95.410156"/>
      </g>
     </g>
    </g>
    <g id="ytick_4">
     <g id="line2d_8">
      <g>
       <use xlink:href="#me887a2472e" x="36" y="94.066654" style="stroke: #000000; stroke-width: 0.8"/>
      </g>
     </g>
     <g id="text_8">
      <!-- 0.6 -->
      <g transform="translate(8.325937 99.005638)scale(0.13 -0.13)">
       <use xlink:href="#DejaVuSans-30"/>
       <use xlink:href="#DejaVuSans-2e" x="63.623047"/>
       <use xlink:href="#DejaVuSans-36" x="95.410156"/>
      </g>
     </g>
    </g>
    <g id="ytick_5">
     <g id="line2d_9">
      <g>
       <use xlink:href="#me887a2472e" x="36" y="63.773327" style="stroke: #000000; stroke-width: 0.8"/>
      </g>
     </g>
     <g id="text_9">
      <!-- 0.8 -->
      <g transform="translate(8.325937 68.712311)scale(0.13 -0.13)">
       <use xlink:href="#DejaVuSans-30"/>
       <use xlink:href="#DejaVuSans-2e" x="63.623047"/>
       <use xlink:href="#DejaVuSans-38" x="95.410156"/>
      </g>
     </g>
    </g>
    <g id="ytick_6">
     <g id="line2d_10">
      <g>
       <use xlink:href="#me887a2472e" x="36" y="33.48" style="stroke: #000000; stroke-width: 0.8"/>
      </g>
     </g>
     <g id="text_10">
      <!-- 1.0 -->
      <g transform="translate(8.325937 38.418984)scale(0.13 -0.13)">
       <defs>
        <path id="DejaVuSans-31" d="M 794 531 
L 1825 531 
L 1825 4091 
L 703 3866 
L 703 4441 
L 1819 4666 
L 2450 4666 
L 2450 531 
L 3481 531 
L 3481 0 
L 794 0 
L 794 531 
z
" transform="scale(0.015625)"/>
       </defs>
       <use xlink:href="#DejaVuSans-31"/>
       <use xlink:href="#DejaVuSans-2e" x="63.623047"/>
       <use xlink:href="#DejaVuSans-30" x="95.410156"/>
      </g>
     </g>
    </g>
   </g>
   <g id="line2d_11">
    <path d="M 46.145455 183.549867 
L 46.957091 182.124128 
L 47.362909 182.837756 
L 47.768727 182.593314 
L 48.580364 183.203915 
L 48.986182 182.435419 
L 49.392 182.860238 
L 49.797818 183.092833 
L 50.203636 183.547831 
L 50.609455 183.662078 
L 51.015273 183.221787 
L 51.421091 183.281006 
L 51.826909 183.781224 
L 52.232727 182.907475 
L 52.638545 182.774493 
L 53.044364 183.251575 
L 53.450182 183.190062 
L 53.856 183.589614 
L 54.667636 182.546692 
L 55.073455 183.125698 
L 55.479273 183.252925 
L 55.885091 183.519537 
L 56.290909 183.38926 
L 56.696727 183.704938 
L 57.102545 183.412294 
L 57.508364 182.764228 
L 57.914182 183.578693 
L 58.32 183.528609 
L 58.725818 183.591637 
L 59.131636 183.863726 
L 59.537455 183.661034 
L 59.943273 183.928145 
L 60.349091 183.676933 
L 60.754909 183.217 
L 61.160727 182.97504 
L 61.566545 181.985124 
L 61.972364 182.443878 
L 62.378182 183.091878 
L 62.784 183.514185 
L 63.189818 183.582223 
L 63.595636 183.281495 
L 64.001455 183.560883 
L 64.407273 182.723641 
L 65.218909 182.823512 
L 65.624727 183.570701 
L 66.030545 182.785088 
L 66.436364 183.382571 
L 66.842182 183.563405 
L 67.248 182.856873 
L 67.653818 182.820593 
L 68.465455 183.804268 
L 68.871273 183.668176 
L 69.277091 183.742751 
L 70.088727 183.427057 
L 70.494545 183.323067 
L 70.900364 183.022714 
L 71.712 182.963929 
L 72.117818 182.536637 
L 72.523636 181.654969 
L 72.929455 181.8911 
L 73.335273 182.774548 
L 73.741091 182.417583 
L 74.146909 182.414861 
L 74.958545 183.348557 
L 75.770182 183.389322 
L 76.176 183.666875 
L 76.581818 183.617028 
L 76.987636 183.138619 
L 77.799273 184.473476 
L 78.205091 183.880272 
L 78.610909 183.589509 
L 79.016727 182.962277 
L 79.422545 182.663864 
L 79.828364 182.523063 
L 80.234182 182.52633 
L 80.64 182.872345 
L 81.451636 181.434841 
L 81.857455 182.04031 
L 82.263273 183.131408 
L 82.669091 183.584177 
L 83.074909 183.425011 
L 83.480727 182.913829 
L 83.886545 183.290475 
L 84.292364 182.866674 
L 84.698182 182.120047 
L 85.104 182.172872 
L 85.915636 183.069964 
L 86.321455 182.905984 
L 86.727273 182.340555 
L 87.133091 183.355436 
L 87.538909 183.921552 
L 88.350545 182.64392 
L 88.756364 182.421855 
L 89.162182 182.427808 
L 89.568 182.739536 
L 90.379636 182.361071 
L 90.785455 183.021647 
L 91.191273 183.233073 
L 91.597091 182.760203 
L 92.002909 182.915753 
L 92.814545 182.146381 
L 93.626182 183.216632 
L 94.437818 182.55314 
L 94.843636 182.143761 
L 95.249455 182.28705 
L 95.655273 182.239626 
L 96.466909 182.562797 
L 96.872727 182.094826 
L 97.278545 181.117535 
L 97.684364 180.430904 
L 98.496 174.337802 
L 98.901818 170.0363 
L 99.307636 162.451418 
L 99.713455 151.305666 
L 100.119273 132.239035 
L 100.930909 77.448361 
L 101.336727 58.305001 
L 101.742545 49.694109 
L 102.148364 54.623439 
L 102.554182 73.895041 
L 103.365818 122.772547 
L 104.177455 151.108806 
L 104.989091 168.258269 
L 105.394909 173.854747 
L 105.800727 177.88179 
L 106.206545 180.366872 
L 106.612364 180.562577 
L 107.018182 180.170018 
L 107.424 178.972557 
L 107.829818 178.462905 
L 108.235636 180.083619 
L 108.641455 182.582413 
L 109.047273 183.017703 
L 109.453091 183.625608 
L 109.858909 183.279269 
L 110.264727 182.623996 
L 110.670545 182.677251 
L 111.482182 183.109418 
L 111.888 182.792588 
L 112.293818 183.453341 
L 112.699636 183.831383 
L 113.105455 183.648084 
L 113.917091 183.620138 
L 114.728727 181.869156 
L 115.540364 183.431056 
L 115.946182 182.812424 
L 117.975273 183.585772 
L 118.381091 183.888359 
L 118.786909 182.715212 
L 119.192727 181.182233 
L 119.598545 177.985596 
L 120.410182 168.292825 
L 120.816 161.71016 
L 121.221818 152.500414 
L 121.627636 139.54491 
L 122.033455 117.005778 
L 122.845091 55.517854 
L 123.250909 37.957674 
L 123.656727 33.48 
L 124.062545 45.509441 
L 125.28 126.336 
L 125.685818 144.513717 
L 126.497455 164.195283 
L 126.903273 171.150192 
L 127.309091 175.436443 
L 128.120727 180.571964 
L 128.932364 181.920494 
L 129.338182 183.568366 
L 129.744 183.081768 
L 130.149818 181.669685 
L 130.555636 182.21587 
L 130.961455 182.434605 
L 131.367273 182.291792 
L 132.584727 183.557731 
L 132.990545 183.659504 
L 133.396364 182.81398 
L 133.802182 182.559786 
L 135.019636 182.781322 
L 135.425455 182.13655 
L 135.831273 182.215325 
L 136.237091 182.997293 
L 136.642909 183.396806 
L 137.048727 184.055372 
L 137.454545 183.836693 
L 137.860364 183.304013 
L 138.266182 183.283685 
L 138.672 183.792408 
L 139.077818 183.512484 
L 139.483636 183.068296 
L 139.889455 183.633341 
L 140.295273 182.53605 
L 140.701091 181.955198 
L 141.512727 182.227254 
L 141.918545 182.354179 
L 142.730182 182.967275 
L 143.136 182.910686 
L 143.541818 182.544153 
L 143.947636 181.686172 
L 144.353455 181.582308 
L 144.759273 181.735773 
L 145.165091 182.389069 
L 145.570909 182.152596 
L 146.382545 181.355479 
L 146.788364 180.558019 
L 147.194182 180.962231 
L 148.005818 182.738817 
L 148.411636 182.681792 
L 148.817455 182.76672 
L 149.223273 183.229622 
L 150.034909 181.896859 
L 151.252364 181.7107 
L 151.658182 182.185967 
L 152.064 182.860639 
L 152.469818 182.651262 
L 152.875636 182.298825 
L 153.687273 182.782741 
L 154.498909 181.968319 
L 155.310545 181.52216 
L 156.122182 179.795132 
L 156.528 177.494597 
L 157.339636 168.644704 
L 158.151273 157.013911 
L 158.557091 146.665075 
L 158.962909 126.530207 
L 159.774545 72.00628 
L 160.180364 56.142883 
L 160.586182 49.002435 
L 160.992 55.082411 
L 162.615273 143.683588 
L 163.021091 155.704785 
L 163.426909 164.071895 
L 164.238545 174.170559 
L 165.050182 179.554384 
L 165.456 180.874909 
L 165.861818 181.256979 
L 166.267636 180.889336 
L 166.673455 181.262226 
L 167.079273 182.29496 
L 167.485091 182.945866 
L 167.890909 183.24135 
L 168.296727 183.01372 
L 168.702545 183.012489 
L 169.108364 182.778538 
L 169.514182 183.271047 
L 169.92 183.321081 
L 170.325818 182.867075 
L 170.731636 183.287612 
L 171.137455 183.479179 
L 171.949091 183.053103 
L 172.760727 183.25261 
L 173.572364 183.558956 
L 174.384 182.663956 
L 174.789818 182.703726 
L 175.195636 180.734525 
L 176.007273 172.414788 
L 176.413091 166.763538 
L 176.818909 158.463421 
L 177.224727 144.437241 
L 178.442182 77.204077 
L 178.848 66.860236 
L 179.253818 64.933975 
L 179.659636 77.677379 
L 180.471273 123.941157 
L 180.877091 140.402801 
L 181.282909 152.250029 
L 182.094545 167.872042 
L 182.500364 173.168143 
L 183.312 179.368471 
L 183.717818 181.001909 
L 184.123636 181.801181 
L 184.935273 181.992863 
L 185.341091 182.952982 
L 185.746909 183.205081 
L 186.964364 182.417028 
L 187.370182 182.62109 
L 187.776 183.54245 
L 188.587636 183.044992 
L 188.993455 182.00141 
L 190.210909 182.285651 
L 190.616727 183.435114 
L 191.022545 183.064657 
L 191.428364 182.888263 
L 191.834182 182.878199 
L 192.24 182.571971 
L 192.645818 183.006572 
L 193.051636 182.89796 
L 193.457455 183.231523 
L 193.863273 183.866136 
L 194.269091 183.483842 
L 194.674909 183.450639 
L 195.080727 183.122599 
L 195.486545 183.306663 
L 195.892364 183.702735 
L 196.704 182.591764 
L 197.515636 182.973366 
L 197.921455 182.947239 
L 198.327273 183.412284 
L 199.138909 182.661914 
L 199.544727 182.597553 
L 199.950545 182.345799 
L 200.356364 182.230134 
L 200.762182 181.76516 
L 201.168 181.874459 
L 201.573818 181.688861 
L 201.979636 182.298106 
L 203.197091 183.287044 
L 203.602909 182.941394 
L 204.414545 184.1955 
L 204.820364 184.090571 
L 205.226182 184.160914 
L 205.632 183.55689 
L 206.037818 183.951462 
L 206.443636 183.365875 
L 206.849455 182.494313 
L 207.255273 183.268597 
L 207.661091 183.359672 
L 208.066909 182.621162 
L 208.472727 182.622364 
L 208.878545 183.160238 
L 209.284364 184.077726 
L 209.690182 184.68 
L 210.096 184.350157 
L 210.907636 182.430133 
L 211.313455 181.83727 
L 212.530909 182.17721 
L 212.936727 182.850394 
L 213.342545 182.779214 
L 214.154182 181.570707 
L 214.56 182.235808 
L 214.965818 182.489988 
L 215.371636 183.073231 
L 215.777455 183.981578 
L 216.589091 183.125209 
L 216.994909 183.043259 
L 217.400727 183.210761 
L 217.806545 183.838587 
L 218.212364 183.580066 
L 218.618182 182.925124 
L 219.024 183.140885 
L 219.429818 183.898709 
L 219.835636 183.948667 
L 220.647273 182.275663 
L 221.053091 182.464643 
L 221.458909 184.088536 
L 222.270545 183.898354 
L 222.676364 183.659701 
L 223.082182 183.84061 
L 223.488 183.10407 
L 223.893818 182.889416 
L 224.299636 182.945042 
L 224.705455 182.673616 
L 225.111273 183.09765 
L 225.517091 182.869419 
L 225.922909 183.458181 
L 226.734545 182.850834 
L 227.140364 183.30228 
L 227.546182 184.178593 
L 227.952 183.957228 
L 228.357818 183.193812 
L 228.763636 182.983325 
L 229.169455 183.198175 
L 229.981091 182.486803 
L 230.386909 182.883926 
L 231.198545 181.378023 
L 231.604364 181.450408 
L 232.010182 182.213989 
L 232.821818 182.897891 
L 233.227636 182.281261 
L 233.633455 181.980336 
L 234.039273 182.846044 
L 234.445091 182.961512 
L 234.850909 181.994262 
L 235.256727 181.396309 
L 236.88 182.900209 
L 237.285818 183.920826 
L 237.691636 183.024507 
L 238.097455 181.292888 
L 238.503273 181.472638 
L 238.909091 183.143061 
L 239.314909 183.800475 
L 239.720727 183.222799 
L 240.938182 183.04341 
L 241.344 183.411726 
L 241.749818 183.40006 
L 242.155636 183.171864 
L 242.561455 183.70766 
L 243.373091 183.239446 
L 243.778909 183.359774 
L 244.184727 182.427769 
L 244.590545 182.915753 
L 244.996364 183.879188 
L 246.213818 183.71295 
L 246.619636 183.336822 
L 247.025455 183.120766 
L 247.431273 183.106962 
L 248.242909 184.250922 
L 248.648727 184.220809 
L 249.054545 183.81888 
L 249.054545 183.81888 
" clip-path="url(#pb15fc46958)" style="fill: none; stroke: #1f77b4; stroke-width: 1.5; stroke-linecap: square"/>
   </g>
   <g id="patch_3">
    <path d="M 36 192.24 
L 36 25.92 
" style="fill: none; stroke: #000000; stroke-width: 0.8; stroke-linejoin: miter; stroke-linecap: square"/>
   </g>
   <g id="patch_4">
    <path d="M 259.2 192.24 
L 259.2 25.92 
" style="fill: none; stroke: #000000; stroke-width: 0.8; stroke-linejoin: miter; stroke-linecap: square"/>
   </g>
   <g id="patch_5">
    <path d="M 36 192.24 
L 259.2 192.24 
" style="fill: none; stroke: #000000; stroke-width: 0.8; stroke-linejoin: miter; stroke-linecap: square"/>
   </g>
   <g id="patch_6">
    <path d="M 36 25.92 
L 259.2 25.92 
" style="fill: none; stroke: #000000; stroke-width: 0.8; stroke-linejoin: miter; stroke-linecap: square"/>
   </g>
  </g>
 </g>
 <defs>
  <clipPath id="pb15fc46958">
   <rect x="36" y="25.92" width="223.2" height="166.32"/>
  </clipPath>
 </defs>
</svg>
