<?xml version="1.0" encoding="UTF-8" standalone="no"?>
<svg
   width="409.16153pt"
   height="269.66309pt"
   viewBox="0 0 409.16153 269.66309"
   version="1.1"
   id="svg729351"
   sodipodi:docname="deconvolution.svg"
   inkscape:version="1.2 (1:1.2+202205241504+da316b6974)"
   xmlns:inkscape="http://www.inkscape.org/namespaces/inkscape"
   xmlns:sodipodi="http://sodipodi.sourceforge.net/DTD/sodipodi-0.dtd"
   xmlns:xlink="http://www.w3.org/1999/xlink"
   xmlns="http://www.w3.org/2000/svg"
   xmlns:svg="http://www.w3.org/2000/svg"
   xmlns:rdf="http://www.w3.org/1999/02/22-rdf-syntax-ns#"
   xmlns:cc="http://creativecommons.org/ns#"
   xmlns:dc="http://purl.org/dc/elements/1.1/"
   xmlns:ns14="http://www.iki.fi/pav/software/textext/">
  <sodipodi:namedview
     id="namedview729353"
     pagecolor="#ffffff"
     bordercolor="#666666"
     borderopacity="1.0"
     inkscape:showpageshadow="2"
     inkscape:pageopacity="0.0"
     inkscape:pagecheckerboard="0"
     inkscape:deskcolor="#d1d1d1"
     inkscape:document-units="pt"
     showgrid="false"
     inkscape:zoom="0.75520833"
     inkscape:cx="324.41379"
     inkscape:cy="130.42759"
     inkscape:window-width="1366"
     inkscape:window-height="746"
     inkscape:window-x="74"
     inkscape:window-y="27"
     inkscape:window-maximized="1"
     inkscape:current-layer="svg729351" />
  <metadata
     id="metadata728734">
    <rdf:RDF>
      <cc:Work>
        <dc:type
           rdf:resource="http://purl.org/dc/dcmitype/StillImage" />
        <dc:date>2022-08-06T19:38:01.219848</dc:date>
        <dc:format>image/svg+xml</dc:format>
        <dc:creator>
          <cc:Agent>
            <dc:title>Matplotlib v3.5.1, https://matplotlib.org/</dc:title>
          </cc:Agent>
        </dc:creator>
      </cc:Work>
    </rdf:RDF>
  </metadata>
  <defs
     id="defs728738">
    <style
       type="text/css"
       id="style728736">*{stroke-linejoin: round; stroke-linecap: butt}</style>
    <g
       id="id-2fbf7e97-9d7d-4878-9d3d-0775b48ee6af">
      <symbol
   overflow="visible"
   id="id-7ed513b3-4f80-4356-94e6-d4e48dcd2118">
        <path
   style="stroke:none"
   d=""
   id="id-bbc51e82-6b64-47b3-ab54-d2759bcf2ea3" />

      </symbol>

      <symbol
   overflow="visible"
   id="id-302c153c-dcd0-41cb-bf4d-95c882ed2ad7">
        <path
   style="stroke:none"
   d="m 4.40625,-6.953125 c -0.0625,-0.140625 -0.09375,-0.1875 -0.265625,-0.1875 -0.15625,0 -0.1875,0.046875 -0.25,0.1875 l -3.375,6.75 C 0.46875,-0.109375 0.46875,-0.09375 0.46875,-0.078125 0.46875,0 0.53125,0 0.6875,0 h 6.921875 c 0.15625,0 0.21875,0 0.21875,-0.078125 0,-0.015625 0,-0.03125 -0.046875,-0.125 z m -0.578125,0.8125 2.6875,5.390625 h -5.375 z m 0,0"
   id="id-a85f1b27-2b08-4fcf-84f2-2aca4f46de91" />

      </symbol>

      <symbol
   overflow="visible"
   id="id-3734b465-3a8f-4034-aa13-39344258102a">
        <path
   style="stroke:none"
   d="m 3.296875,2.390625 c 0,-0.03125 0,-0.046875 -0.171875,-0.21875 C 1.890625,0.921875 1.5625,-0.96875 1.5625,-2.5 c 0,-1.734375 0.375,-3.46875 1.609375,-4.703125 0.125,-0.125 0.125,-0.140625 0.125,-0.171875 0,-0.078125 -0.03125,-0.109375 -0.09375,-0.109375 -0.109375,0 -1,0.6875 -1.59375,1.953125 -0.5,1.09375 -0.625,2.203125 -0.625,3.03125 0,0.78125 0.109375,1.984375 0.65625,3.125 C 2.25,1.84375 3.09375,2.5 3.203125,2.5 c 0.0625,0 0.09375,-0.03125 0.09375,-0.109375 z m 0,0"
   id="id-0f251483-5bdc-46d3-a681-ca81d95db166" />

      </symbol>

      <symbol
   overflow="visible"
   id="id-a5f4b03a-5697-4639-b0df-248b3f0eca2f">
        <path
   style="stroke:none"
   d="M 2.40625,-6.59375 C 2.3125,-6.8125 2.28125,-6.8125 2.046875,-6.8125 H 0.375 V -6.5 h 0.234375 c 0.765625,0 0.78125,0.109375 0.78125,0.46875 v 4.984375 c 0,0.265625 0,0.734375 -1.015625,0.734375 V 0 c 0.34375,-0.015625 0.828125,-0.03125 1.15625,-0.03125 0.328125,0 0.828125,0.015625 1.171875,0.03125 v -0.3125 c -1.03125,0 -1.03125,-0.46875 -1.03125,-0.734375 v -5.375 H 1.6875 L 4.09375,-0.21875 C 4.140625,-0.09375 4.1875,0 4.28125,0 4.390625,0 4.421875,-0.078125 4.46875,-0.1875 L 6.921875,-6.5 v 5.71875 c 0,0.359375 -0.015625,0.46875 -0.78125,0.46875 H 5.90625 V 0 c 0.359375,-0.03125 1.046875,-0.03125 1.4375,-0.03125 0.375,0 1.046875,0 1.421875,0.03125 v -0.3125 h -0.25 c -0.765625,0 -0.78125,-0.109375 -0.78125,-0.46875 v -5.25 C 7.734375,-6.390625 7.75,-6.5 8.515625,-6.5 h 0.25 v -0.3125 h -1.6875 C 6.8125,-6.8125 6.8125,-6.796875 6.75,-6.625 L 4.5625,-1 Z m 0,0"
   id="id-6471f235-17ad-4a35-b383-cb9121b2e684" />

      </symbol>

      <symbol
   overflow="visible"
   id="id-2761ba4f-a60a-469f-8ed3-1ee016b70a05">
        <path
   style="stroke:none"
   d="M 6.109375,-6.03125 C 6.109375,-6.390625 6.125,-6.5 6.890625,-6.5 h 0.25 v -0.3125 c -0.359375,0.03125 -1.09375,0.03125 -1.46875,0.03125 -0.375,0 -1.125,0 -1.46875,-0.03125 V -6.5 H 4.4375 c 0.765625,0 0.78125,0.109375 0.78125,0.46875 v 2.328125 H 2.25 V -6.03125 C 2.25,-6.390625 2.265625,-6.5 3.03125,-6.5 h 0.234375 v -0.3125 c -0.34375,0.03125 -1.078125,0.03125 -1.46875,0.03125 -0.375,0 -1.125,0 -1.46875,-0.03125 V -6.5 H 0.5625 c 0.765625,0 0.796875,0.109375 0.796875,0.46875 v 5.25 c 0,0.359375 -0.03125,0.46875 -0.796875,0.46875 H 0.328125 V 0 c 0.34375,-0.03125 1.09375,-0.03125 1.46875,-0.03125 0.375,0 1.125,0 1.46875,0.03125 V -0.3125 H 3.03125 C 2.265625,-0.3125 2.25,-0.421875 2.25,-0.78125 v -2.609375 h 2.96875 v 2.609375 c 0,0.359375 -0.015625,0.46875 -0.78125,0.46875 H 4.203125 V 0 c 0.34375,-0.03125 1.078125,-0.03125 1.453125,-0.03125 0.390625,0 1.125,0 1.484375,0.03125 v -0.3125 h -0.25 c -0.765625,0 -0.78125,-0.109375 -0.78125,-0.46875 z m 0,0"
   id="id-8e225f59-0ef0-499e-a8b5-8a2e23224ac3" />

      </symbol>

      <symbol
   overflow="visible"
   id="id-8e43f027-d082-46c9-a540-073cb1a802ee">
        <path
   style="stroke:none"
   d="m 3.890625,-4 c 0.09375,-0.109375 0.09375,-0.125 0.09375,-0.171875 0,-0.125 -0.09375,-0.125 -0.265625,-0.125 H 0.53125 L 0.421875,-2.6875 h 0.25 c 0.0625,-1.015625 0.25,-1.390625 1.34375,-1.390625 H 3.15625 L 0.375,-0.3125 C 0.28125,-0.203125 0.28125,-0.1875 0.28125,-0.140625 0.28125,0 0.34375,0 0.53125,0 H 3.828125 L 4,-1.859375 H 3.75 C 3.65625,-0.6875 3.453125,-0.25 2.296875,-0.25 h -1.1875 z m 0,0"
   id="id-e0f62893-0b00-4422-a381-2626286ec809" />

      </symbol>

      <symbol
   overflow="visible"
   id="id-ee1b0c21-6d68-425e-a5b0-c758f737978d">
        <path
   style="stroke:none"
   d="m 2.875,-2.5 c 0,-0.765625 -0.109375,-1.96875 -0.65625,-3.109375 -0.59375,-1.21875 -1.453125,-1.875 -1.546875,-1.875 -0.0625,0 -0.109375,0.046875 -0.109375,0.109375 0,0.03125 0,0.046875 0.1875,0.234375 0.984375,0.984375 1.546875,2.5625 1.546875,4.640625 0,1.71875 -0.359375,3.46875 -1.59375,4.71875 C 0.5625,2.34375 0.5625,2.359375 0.5625,2.390625 0.5625,2.453125 0.609375,2.5 0.671875,2.5 0.765625,2.5 1.671875,1.8125 2.25,0.546875 2.765625,-0.546875 2.875,-1.65625 2.875,-2.5 Z m 0,0"
   id="id-debbbd07-140a-433e-a98a-d005f3d4dc51" />

      </symbol>

      <symbol
   overflow="visible"
   id="id-664efbee-e3b8-4457-89b1-e8b89a36b669">
        <path
   style="stroke:none"
   d=""
   id="id-fba50cde-537b-49b6-bfc7-7edd0791f116" />

      </symbol>

      <symbol
   overflow="visible"
   id="id-5425afe8-3209-4ada-8e22-0a091289f7cb">
        <path
   style="stroke:none"
   d="m 2.234375,-4.296875 c 0,-0.015625 0,-0.109375 -0.125,-0.109375 -0.234375,0 -0.96875,0.078125 -1.21875,0.09375 -0.078125,0.015625 -0.1875,0.03125 -0.1875,0.203125 0,0.125 0.078125,0.125 0.234375,0.125 0.484375,0 0.5,0.0625 0.5,0.171875 0,0.0625 -0.125,0.53125 -0.1875,0.796875 L 0.640625,-0.5625 C 0.59375,-0.421875 0.53125,-0.140625 0.53125,-0.125 0.53125,-0.015625 0.625,0 0.6875,0 h 0.140625 c 0.703125,-0.125 1.78125,-0.515625 2.8125,-1.46875 1.3125,-1.21875 1.578125,-2.578125 1.578125,-2.671875 0,-0.171875 -0.109375,-0.265625 -0.28125,-0.265625 -0.078125,0 -0.3125,0.046875 -0.390625,0.328125 -0.640625,2.265625 -2.15625,3.375 -3.296875,3.75 z m 0,0"
   id="id-d6dfaa57-3ce8-40cb-8eda-1ce5152e5d73" />

      </symbol>

    </g>
    <g
       id="id-ea9c6553-4f03-4234-9a45-b7ddcb00c963">
      <symbol
   overflow="visible"
   id="id-5d0916cb-392d-4f8d-935b-367860f39ec4">
        <path
   style="stroke:none;stroke-width:0"
   d=""
   id="id-1aca0889-21a2-4b1d-a6a7-6fa8a244511c" />

      </symbol>

      <symbol
   overflow="visible"
   id="id-071f1da9-2efd-44eb-af72-5b936fe015e6">
        <path
   style="stroke:none;stroke-width:0"
   d="m 2.9375,-6.375 c 0,-0.25 0,-0.265625 -0.234375,-0.265625 C 2.078125,-6 1.203125,-6 0.890625,-6 v 0.3125 c 0.203125,0 0.78125,0 1.296875,-0.265625 v 5.171875 c 0,0.359375 -0.03125,0.46875 -0.921875,0.46875 h -0.3125 V 0 c 0.34375,-0.03125 1.203125,-0.03125 1.609375,-0.03125 0.390625,0 1.265625,0 1.609375,0.03125 v -0.3125 h -0.3125 c -0.90625,0 -0.921875,-0.109375 -0.921875,-0.46875 z m 0,0"
   id="id-84c390a9-bac8-434c-b554-b0bffc18e889" />

      </symbol>

      <symbol
   overflow="visible"
   id="id-393f9007-4312-4718-b2bf-660084ab1abf">
        <path
   style="stroke:none;stroke-width:0"
   d="m 3.296875,2.390625 c 0,-0.03125 0,-0.046875 -0.171875,-0.21875 C 1.890625,0.921875 1.5625,-0.96875 1.5625,-2.5 c 0,-1.734375 0.375,-3.46875 1.609375,-4.703125 0.125,-0.125 0.125,-0.140625 0.125,-0.171875 0,-0.078125 -0.03125,-0.109375 -0.09375,-0.109375 -0.109375,0 -1,0.6875 -1.59375,1.953125 -0.5,1.09375 -0.625,2.203125 -0.625,3.03125 0,0.78125 0.109375,1.984375 0.65625,3.125 C 2.25,1.84375 3.09375,2.5 3.203125,2.5 c 0.0625,0 0.09375,-0.03125 0.09375,-0.109375 z m 0,0"
   id="id-39401966-10ee-4fe7-bf5b-07b1ce4a064a" />

      </symbol>

      <symbol
   overflow="visible"
   id="id-e62407ee-c5e9-4c7b-8fe5-acb07db1161a">
        <path
   style="stroke:none;stroke-width:0"
   d="m 2.078125,-1.9375 c 0.21875,0.046875 1.03125,0.203125 1.03125,0.921875 0,0.5 -0.34375,0.90625 -1.125,0.90625 -0.84375,0 -1.203125,-0.5625 -1.390625,-1.421875 C 0.5625,-1.65625 0.5625,-1.6875 0.453125,-1.6875 c -0.125,0 -0.125,0.0625 -0.125,0.234375 V -0.125 c 0,0.171875 0,0.234375 0.109375,0.234375 0.046875,0 0.0625,-0.015625 0.25,-0.203125 0.015625,-0.015625 0.015625,-0.03125 0.203125,-0.21875 0.4375,0.40625 0.890625,0.421875 1.09375,0.421875 1.140625,0 1.609375,-0.671875 1.609375,-1.390625 0,-0.515625 -0.296875,-0.828125 -0.421875,-0.9375 C 2.84375,-2.546875 2.453125,-2.625 2.03125,-2.703125 1.46875,-2.8125 0.8125,-2.9375 0.8125,-3.515625 c 0,-0.359375 0.25,-0.765625 1.109375,-0.765625 1.09375,0 1.15625,0.90625 1.171875,1.203125 0,0.09375 0.09375,0.09375 0.109375,0.09375 0.140625,0 0.140625,-0.046875 0.140625,-0.234375 v -1.015625 c 0,-0.15625 0,-0.234375 -0.109375,-0.234375 -0.046875,0 -0.078125,0 -0.203125,0.125 -0.03125,0.03125 -0.125,0.125 -0.171875,0.15625 -0.375,-0.28125 -0.78125,-0.28125 -0.9375,-0.28125 -1.21875,0 -1.59375,0.671875 -1.59375,1.234375 0,0.34375 0.15625,0.625 0.421875,0.84375 0.328125,0.25 0.609375,0.3125 1.328125,0.453125 z m 0,0"
   id="id-e8bddee0-a979-4114-9638-a94a62533b6e" />

      </symbol>

      <symbol
   overflow="visible"
   id="id-df709a97-f964-49e9-92b2-a1b0e235df67">
        <path
   style="stroke:none;stroke-width:0"
   d="m 2.875,-2.5 c 0,-0.765625 -0.109375,-1.96875 -0.65625,-3.109375 -0.59375,-1.21875 -1.453125,-1.875 -1.546875,-1.875 -0.0625,0 -0.109375,0.046875 -0.109375,0.109375 0,0.03125 0,0.046875 0.1875,0.234375 0.984375,0.984375 1.546875,2.5625 1.546875,4.640625 0,1.71875 -0.359375,3.46875 -1.59375,4.71875 C 0.5625,2.34375 0.5625,2.359375 0.5625,2.390625 0.5625,2.453125 0.609375,2.5 0.671875,2.5 0.765625,2.5 1.671875,1.8125 2.25,0.546875 2.765625,-0.546875 2.875,-1.65625 2.875,-2.5 Z m 0,0"
   id="id-27e09cec-df1f-40df-8565-42e3525b49ca" />

      </symbol>

      <symbol
   overflow="visible"
   id="id-c14f6c45-01a8-4571-8821-44f827c84970">
        <path
   style="stroke:none;stroke-width:0"
   d=""
   id="id-8c85ad63-497c-4a50-84e8-5540b5481de3" />

      </symbol>

      <symbol
   overflow="visible"
   id="id-c1d1be35-0af6-48a1-a5b7-fd234df2d68d">
        <path
   style="stroke:none;stroke-width:0"
   d="m 4.375,-7.09375 c 0.046875,-0.140625 0.046875,-0.171875 0.046875,-0.1875 0,-0.109375 -0.078125,-0.203125 -0.1875,-0.203125 -0.078125,0 -0.140625,0.03125 -0.171875,0.09375 l -3.46875,9.5 C 0.546875,2.25 0.546875,2.28125 0.546875,2.296875 0.546875,2.40625 0.640625,2.5 0.75,2.5 0.875,2.5 0.90625,2.421875 0.96875,2.25 Z m 0,0"
   id="id-b40915b6-3bba-4cd5-9194-e0c51ddbe7a8" />

      </symbol>

      <symbol
   overflow="visible"
   id="id-27db7095-3bba-4e36-a938-542db74d4a26">
        <path
   style="stroke:none;stroke-width:0"
   d="m 4.25,-6.046875 c 0.078125,-0.28125 0.109375,-0.34375 0.234375,-0.375 0.09375,-0.015625 0.421875,-0.015625 0.625,-0.015625 1.015625,0 1.453125,0.03125 1.453125,0.8125 0,0.15625 -0.03125,0.546875 -0.078125,0.796875 0,0.046875 -0.03125,0.15625 -0.03125,0.1875 0,0.0625 0.03125,0.140625 0.125,0.140625 0.109375,0 0.125,-0.078125 0.15625,-0.234375 L 7,-6.46875 C 7.015625,-6.515625 7.015625,-6.609375 7.015625,-6.640625 7.015625,-6.75 6.921875,-6.75 6.75,-6.75 H 1.21875 c -0.234375,0 -0.25,0.015625 -0.328125,0.203125 l -0.59375,1.75 c 0,0.015625 -0.0625,0.15625 -0.0625,0.1875 0,0.046875 0.0625,0.109375 0.125,0.109375 0.09375,0 0.109375,-0.0625 0.171875,-0.21875 C 1.0625,-6.265625 1.328125,-6.4375 2.796875,-6.4375 H 3.1875 c 0.28125,0 0.28125,0.03125 0.28125,0.125 0,0.046875 -0.03125,0.171875 -0.046875,0.203125 L 2.09375,-0.78125 C 2,-0.421875 1.96875,-0.3125 0.90625,-0.3125 c -0.359375,0 -0.421875,0 -0.421875,0.1875 C 0.484375,0 0.59375,0 0.65625,0 c 0.265625,0 0.546875,-0.015625 0.8125,-0.015625 0.28125,0 0.578125,-0.015625 0.859375,-0.015625 0.28125,0 0.546875,0.015625 0.828125,0.015625 C 3.4375,-0.015625 3.734375,0 4.015625,0 c 0.09375,0 0.21875,0 0.21875,-0.203125 0,-0.109375 -0.078125,-0.109375 -0.34375,-0.109375 -0.234375,0 -0.375,0 -0.625,-0.015625 -0.296875,-0.03125 -0.375,-0.0625 -0.375,-0.21875 0,-0.015625 0,-0.0625 0.046875,-0.203125 z m 0,0"
   id="id-11f81b04-b90d-414c-9792-4ac596898e73" />

      </symbol>

      <symbol
   overflow="visible"
   id="id-51d2110d-bbf8-4d6c-9ffc-7b5a21d4abbc">
        <path
   style="stroke:none;stroke-width:0"
   d=""
   id="id-7ef623a9-0efc-4ea5-9a03-9e20d5599844" />

      </symbol>

      <symbol
   overflow="visible"
   id="id-61fcd90d-ef04-46e1-afce-fbcaff9ee1b5">
        <path
   style="stroke:none;stroke-width:0"
   d="m 2.484375,-4.765625 v 0.25 C 2.953125,-4.515625 3,-4.453125 3,-4.125 v 1.453125 c -0.25,-0.25 -0.59375,-0.40625 -0.96875,-0.40625 -0.9375,0 -1.703125,0.703125 -1.703125,1.578125 0,0.875 0.734375,1.5625 1.609375,1.5625 0.578125,0 0.921875,-0.296875 1.03125,-0.421875 V 0.0625 L 4.046875,0 V -0.25 C 3.578125,-0.25 3.53125,-0.296875 3.53125,-0.640625 V -4.84375 Z m 0.484375,4.03125 C 2.796875,-0.40625 2.4375,-0.125 1.984375,-0.125 1.59375,-0.125 1.3125,-0.359375 1.171875,-0.5625 1.03125,-0.765625 0.953125,-1.046875 0.953125,-1.484375 c 0,-0.171875 0,-0.6875 0.28125,-1.015625 0.28125,-0.3125 0.625,-0.375 0.828125,-0.375 0.328125,0 0.640625,0.15625 0.828125,0.40625 0.078125,0.109375 0.078125,0.109375 0.078125,0.25 z m 0,0"
   id="id-db1b032c-6c65-4f4d-a6a9-19b0f77dfe53" />

      </symbol>

      <symbol
   overflow="visible"
   id="id-0fcc9e0b-3181-4814-8a0e-77c83e3327f5">
        <path
   style="stroke:none;stroke-width:0"
   d="m 2.328125,-4.4375 c 0,-0.1875 0,-0.1875 -0.203125,-0.1875 -0.453125,0.4375 -1.078125,0.4375 -1.359375,0.4375 v 0.25 c 0.15625,0 0.625,0 1,-0.1875 v 3.546875 c 0,0.234375 0,0.328125 -0.6875,0.328125 H 0.8125 V 0 c 0.125,0 0.984375,-0.03125 1.234375,-0.03125 0.21875,0 1.09375,0.03125 1.25,0.03125 V -0.25 H 3.03125 c -0.703125,0 -0.703125,-0.09375 -0.703125,-0.328125 z m 0,0"
   id="id-d086ca95-b85c-4806-a9e6-f17b37134803" />

      </symbol>

      <symbol
   overflow="visible"
   id="id-98c3a4d2-1514-4888-a6e0-baeaf3f4c994">
        <path
   style="stroke:none;stroke-width:0"
   d=""
   id="id-8dbafaba-afa8-49cf-b36f-5ad3f02090fb" />

      </symbol>

      <symbol
   overflow="visible"
   id="id-c7e8b243-23b7-43af-92f5-ddddb494724e">
        <path
   style="stroke:none;stroke-width:0"
   d="m 5.1875,-1.578125 c 0.109375,0 0.28125,0 0.28125,-0.15625 0,-0.1875 -0.171875,-0.1875 -0.28125,-0.1875 H 1.03125 c -0.109375,0 -0.28125,0 -0.28125,0.171875 0,0.171875 0.15625,0.171875 0.28125,0.171875 z m 0,0"
   id="id-d9850bb7-6dfc-431d-9058-f62ae34290de" />

      </symbol>

    </g>
  </defs>
  <g
     id="patch_2"
     transform="translate(14.909498,-34.16)">
    <path
       d="M 54,256.32 H 388.8 V 34.56 H 54 Z"
       style="fill:#ffffff"
       id="path728743" />
  </g>
  <g
     id="matplotlib.axis_1"
     transform="translate(14.909498,-34.16)">
    <g
       id="xtick_1">
      <g
         id="line2d_1">
        <defs
           id="defs728747">
          <path
             id="mad7fed4000"
             d="M 0,0 V 3.5"
             style="stroke:#000000;stroke-width:0.8" />
        </defs>
        <g
           id="g728751">
          <use
             xlink:href="#mad7fed4000"
             x="61.830116"
             y="256.32001"
             style="stroke:#000000;stroke-width:0.8"
             id="use728749" />
        </g>
      </g>
      <g
         id="text_1">
        <!-- −50 -->
        <g
           transform="matrix(0.15,0,0,-0.15,46.001599,274.71766)"
           id="g728765">
          <defs
             id="defs728757">
            <path
               id="DejaVuSans-2212"
               d="M 678,2272 H 4684 V 1741 H 678 Z"
               transform="scale(0.015625)" />
            <path
               id="DejaVuSans-35"
               d="M 691,4666 H 3169 V 4134 H 1269 V 2991 q 137,47 274,70 138,23 276,23 781,0 1237,-428 457,-428 457,-1159 Q 3513,744 3044,326 2575,-91 1722,-91 1428,-91 1123,-41 819,9 494,109 v 635 q 281,-153 581,-228 300,-75 634,-75 541,0 856,284 316,284 316,772 0,487 -316,771 -315,285 -856,285 -253,0 -505,-56 -251,-56 -513,-175 z"
               transform="scale(0.015625)" />
            <path
               id="DejaVuSans-30"
               d="m 2034,4250 q -487,0 -733,-480 -245,-479 -245,-1442 0,-959 245,-1439 246,-480 733,-480 491,0 736,480 246,480 246,1439 0,963 -246,1442 -245,480 -736,480 z m 0,500 q 785,0 1199,-621 414,-620 414,-1801 0,-1178 -414,-1799 -414,-620 -1199,-620 -784,0 -1198,620 -414,621 -414,1799 0,1181 414,1801 414,621 1198,621 z"
               transform="scale(0.015625)" />
          </defs>
          <use
             xlink:href="#DejaVuSans-2212"
             id="use728759" />
          <use
             xlink:href="#DejaVuSans-35"
             x="83.789062"
             id="use728761" />
          <use
             xlink:href="#DejaVuSans-30"
             x="147.41211"
             id="use728763" />
        </g>
      </g>
    </g>
    <g
       id="xtick_2">
      <g
         id="line2d_2">
        <g
           id="g728771">
          <use
             xlink:href="#mad7fed4000"
             x="142.79875"
             y="256.32001"
             style="stroke:#000000;stroke-width:0.8"
             id="use728769" />
        </g>
      </g>
      <g
         id="text_2">
        <!-- −25 -->
        <g
           transform="matrix(0.15,0,0,-0.15,126.97024,274.71766)"
           id="g728783">
          <defs
             id="defs728775">
            <path
               id="DejaVuSans-32"
               d="M 1228,531 H 3431 V 0 H 469 v 531 q 359,372 979,998 621,627 780,809 303,340 423,576 121,236 121,464 0,372 -261,606 -261,235 -680,235 -297,0 -627,-103 -329,-103 -704,-313 v 638 q 381,153 712,231 332,78 607,78 725,0 1156,-363 431,-362 431,-968 0,-288 -108,-546 -107,-257 -392,-607 -78,-91 -497,-524 Q 1991,1309 1228,531 Z"
               transform="scale(0.015625)" />
          </defs>
          <use
             xlink:href="#DejaVuSans-2212"
             id="use728777" />
          <use
             xlink:href="#DejaVuSans-32"
             x="83.789062"
             id="use728779" />
          <use
             xlink:href="#DejaVuSans-35"
             x="147.41211"
             id="use728781" />
        </g>
      </g>
    </g>
    <g
       id="xtick_3">
      <g
         id="line2d_3">
        <g
           id="g728789">
          <use
             xlink:href="#mad7fed4000"
             x="223.7674"
             y="256.32001"
             style="stroke:#000000;stroke-width:0.8"
             id="use728787" />
        </g>
      </g>
      <g
         id="text_3">
        <!-- 0 -->
        <g
           transform="matrix(0.15,0,0,-0.15,218.99552,274.71766)"
           id="g728794">
          <use
             xlink:href="#DejaVuSans-30"
             id="use728792" />
        </g>
      </g>
    </g>
    <g
       id="xtick_4">
      <g
         id="line2d_4">
        <g
           id="g728800">
          <use
             xlink:href="#mad7fed4000"
             x="304.73605"
             y="256.32001"
             style="stroke:#000000;stroke-width:0.8"
             id="use728798" />
        </g>
      </g>
      <g
         id="text_4">
        <!-- 25 -->
        <g
           transform="matrix(0.15,0,0,-0.15,295.19229,274.71766)"
           id="g728807">
          <use
             xlink:href="#DejaVuSans-32"
             id="use728803" />
          <use
             xlink:href="#DejaVuSans-35"
             x="63.623047"
             id="use728805" />
        </g>
      </g>
    </g>
    <g
       id="xtick_5">
      <g
         id="line2d_5">
        <g
           id="g728813">
          <use
             xlink:href="#mad7fed4000"
             x="385.70468"
             y="256.32001"
             style="stroke:#000000;stroke-width:0.8"
             id="use728811" />
        </g>
      </g>
      <g
         id="text_5">
        <!-- 50 -->
        <g
           transform="matrix(0.15,0,0,-0.15,376.16093,274.71766)"
           id="g728820">
          <use
             xlink:href="#DejaVuSans-35"
             id="use728816" />
          <use
             xlink:href="#DejaVuSans-30"
             x="63.623047"
             id="use728818" />
        </g>
      </g>
    </g>
  </g>
  <g
     id="matplotlib.axis_2"
     transform="translate(14.909498,-34.16)">
    <g
       id="ytick_1">
      <g
         id="line2d_6">
        <defs
           id="defs728826">
          <path
             id="m2217b81af8"
             d="M 0,0 H -3.5"
             style="stroke:#000000;stroke-width:0.8" />
        </defs>
        <g
           id="g728830">
          <use
             xlink:href="#m2217b81af8"
             x="54"
             y="232.42961"
             style="stroke:#000000;stroke-width:0.8"
             id="use728828" />
        </g>
      </g>
      <g
         id="text_6">
        <!-- 150 -->
        <g
           transform="matrix(0.15,0,0,-0.15,18.36875,238.12844)"
           id="g728842">
          <defs
             id="defs728834">
            <path
               id="DejaVuSans-31"
               d="M 794,531 H 1825 V 4091 L 703,3866 v 575 l 1116,225 h 631 V 531 H 3481 V 0 H 794 Z"
               transform="scale(0.015625)" />
          </defs>
          <use
             xlink:href="#DejaVuSans-31"
             id="use728836" />
          <use
             xlink:href="#DejaVuSans-35"
             x="63.623047"
             id="use728838" />
          <use
             xlink:href="#DejaVuSans-30"
             x="127.24609"
             id="use728840" />
        </g>
      </g>
    </g>
    <g
       id="ytick_2">
      <g
         id="line2d_7">
        <g
           id="g728848">
          <use
             xlink:href="#m2217b81af8"
             x="54"
             y="187.99008"
             style="stroke:#000000;stroke-width:0.8"
             id="use728846" />
        </g>
      </g>
      <g
         id="text_7">
        <!-- 200 -->
        <g
           transform="matrix(0.15,0,0,-0.15,18.36875,193.68891)"
           id="g728857">
          <use
             xlink:href="#DejaVuSans-32"
             id="use728851" />
          <use
             xlink:href="#DejaVuSans-30"
             x="63.623047"
             id="use728853" />
          <use
             xlink:href="#DejaVuSans-30"
             x="127.24609"
             id="use728855" />
        </g>
      </g>
    </g>
    <g
       id="ytick_3">
      <g
         id="line2d_8">
        <g
           id="g728863">
          <use
             xlink:href="#m2217b81af8"
             x="54"
             y="143.55057"
             style="stroke:#000000;stroke-width:0.8"
             id="use728861" />
        </g>
      </g>
      <g
         id="text_8">
        <!-- 250 -->
        <g
           transform="matrix(0.15,0,0,-0.15,18.36875,149.24939)"
           id="g728872">
          <use
             xlink:href="#DejaVuSans-32"
             id="use728866" />
          <use
             xlink:href="#DejaVuSans-35"
             x="63.623047"
             id="use728868" />
          <use
             xlink:href="#DejaVuSans-30"
             x="127.24609"
             id="use728870" />
        </g>
      </g>
    </g>
    <g
       id="ytick_4">
      <g
         id="line2d_9">
        <g
           id="g728878">
          <use
             xlink:href="#m2217b81af8"
             x="54"
             y="99.111038"
             style="stroke:#000000;stroke-width:0.8"
             id="use728876" />
        </g>
      </g>
      <g
         id="text_9">
        <!-- 300 -->
        <g
           transform="matrix(0.15,0,0,-0.15,18.36875,104.80987)"
           id="g728890">
          <defs
             id="defs728882">
            <path
               id="DejaVuSans-33"
               d="m 2597,2516 q 453,-97 707,-404 255,-306 255,-756 0,-690 -475,-1069 -475,-378 -1350,-378 -293,0 -604,58 -311,58 -642,174 v 609 q 262,-153 574,-231 313,-78 654,-78 593,0 904,234 311,234 311,681 0,413 -289,645 -289,233 -804,233 h -544 v 519 h 569 q 465,0 712,186 247,186 247,536 0,359 -255,551 -254,193 -729,193 -260,0 -557,-57 -297,-56 -653,-174 v 562 q 360,100 674,150 314,50 592,50 719,0 1137,-327 419,-326 419,-882 0,-388 -222,-655 -222,-267 -631,-370 z"
               transform="scale(0.015625)" />
          </defs>
          <use
             xlink:href="#DejaVuSans-33"
             id="use728884" />
          <use
             xlink:href="#DejaVuSans-30"
             x="63.623047"
             id="use728886" />
          <use
             xlink:href="#DejaVuSans-30"
             x="127.24609"
             id="use728888" />
        </g>
      </g>
    </g>
    <g
       id="ytick_5">
      <g
         id="line2d_10">
        <g
           id="g728896">
          <use
             xlink:href="#m2217b81af8"
             x="54"
             y="54.67152"
             style="stroke:#000000;stroke-width:0.8"
             id="use728894" />
        </g>
      </g>
      <g
         id="text_10">
        <!-- 350 -->
        <g
           transform="matrix(0.15,0,0,-0.15,18.36875,60.370347)"
           id="g728905">
          <use
             xlink:href="#DejaVuSans-33"
             id="use728899" />
          <use
             xlink:href="#DejaVuSans-35"
             x="63.623047"
             id="use728901" />
          <use
             xlink:href="#DejaVuSans-30"
             x="127.24609"
             id="use728903" />
        </g>
      </g>
    </g>
  </g>
  <g
     id="line2d_11"
     transform="translate(14.909498,-34.16)">
    <defs
       id="defs728911">
      <path
         id="m4322ad22c2"
         d="M 0,3 C 0.795609,3 1.55874,2.683901 2.12132,2.12132 2.683901,1.55874 3,0.795609 3,0 3,-0.795609 2.683901,-1.55874 2.12132,-2.12132 1.55874,-2.683901 0.795609,-3 0,-3 -0.795609,-3 -1.55874,-2.683901 -2.12132,-2.12132 -2.683901,-1.55874 -3,-0.795609 -3,0 -3,0.795609 -2.683901,1.55874 -2.12132,2.12132 -1.55874,2.683901 -0.795609,3 0,3 Z"
         style="stroke:#1f77b4" />
    </defs>
    <g
       clip-path="url(#p22ee7837f5)"
       id="g729007">
      <use
         xlink:href="#m4322ad22c2"
         x="69.218185"
         y="236.83328"
         style="fill-opacity:0;stroke:#1f77b4"
         id="use728913" />
      <use
         xlink:href="#m4322ad22c2"
         x="75.834717"
         y="230.63148"
         style="fill-opacity:0;stroke:#1f77b4"
         id="use728915" />
      <use
         xlink:href="#m4322ad22c2"
         x="82.451256"
         y="230.34673"
         style="fill-opacity:0;stroke:#1f77b4"
         id="use728917" />
      <use
         xlink:href="#m4322ad22c2"
         x="89.067986"
         y="226.45483"
         style="fill-opacity:0;stroke:#1f77b4"
         id="use728919" />
      <use
         xlink:href="#m4322ad22c2"
         x="95.684525"
         y="228.89021"
         style="fill-opacity:0;stroke:#1f77b4"
         id="use728921" />
      <use
         xlink:href="#m4322ad22c2"
         x="102.30106"
         y="226.12849"
         style="fill-opacity:0;stroke:#1f77b4"
         id="use728923" />
      <use
         xlink:href="#m4322ad22c2"
         x="108.91779"
         y="225.24509"
         style="fill-opacity:0;stroke:#1f77b4"
         id="use728925" />
      <use
         xlink:href="#m4322ad22c2"
         x="115.53433"
         y="223.01518"
         style="fill-opacity:0;stroke:#1f77b4"
         id="use728927" />
      <use
         xlink:href="#m4322ad22c2"
         x="122.15086"
         y="222.55957"
         style="fill-opacity:0;stroke:#1f77b4"
         id="use728929" />
      <use
         xlink:href="#m4322ad22c2"
         x="128.76761"
         y="217.38911"
         style="fill-opacity:0;stroke:#1f77b4"
         id="use728931" />
      <use
         xlink:href="#m4322ad22c2"
         x="135.38414"
         y="221.23494"
         style="fill-opacity:0;stroke:#1f77b4"
         id="use728933" />
      <use
         xlink:href="#m4322ad22c2"
         x="142.00067"
         y="211.56348"
         style="fill-opacity:0;stroke:#1f77b4"
         id="use728935" />
      <use
         xlink:href="#m4322ad22c2"
         x="148.61742"
         y="214.25246"
         style="fill-opacity:0;stroke:#1f77b4"
         id="use728937" />
      <use
         xlink:href="#m4322ad22c2"
         x="155.23395"
         y="212.68446"
         style="fill-opacity:0;stroke:#1f77b4"
         id="use728939" />
      <use
         xlink:href="#m4322ad22c2"
         x="161.85048"
         y="204.48734"
         style="fill-opacity:0;stroke:#1f77b4"
         id="use728941" />
      <use
         xlink:href="#m4322ad22c2"
         x="168.46721"
         y="202.64452"
         style="fill-opacity:0;stroke:#1f77b4"
         id="use728943" />
      <use
         xlink:href="#m4322ad22c2"
         x="175.08376"
         y="191.34186"
         style="fill-opacity:0;stroke:#1f77b4"
         id="use728945" />
      <use
         xlink:href="#m4322ad22c2"
         x="181.70029"
         y="179.98663"
         style="fill-opacity:0;stroke:#1f77b4"
         id="use728947" />
      <use
         xlink:href="#m4322ad22c2"
         x="188.31702"
         y="164.74266"
         style="fill-opacity:0;stroke:#1f77b4"
         id="use728949" />
      <use
         xlink:href="#m4322ad22c2"
         x="194.93356"
         y="152.76149"
         style="fill-opacity:0;stroke:#1f77b4"
         id="use728951" />
      <use
         xlink:href="#m4322ad22c2"
         x="201.55009"
         y="132.31152"
         style="fill-opacity:0;stroke:#1f77b4"
         id="use728953" />
      <use
         xlink:href="#m4322ad22c2"
         x="208.16682"
         y="104.57054"
         style="fill-opacity:0;stroke:#1f77b4"
         id="use728955" />
      <use
         xlink:href="#m4322ad22c2"
         x="214.78337"
         y="74.943832"
         style="fill-opacity:0;stroke:#1f77b4"
         id="use728957" />
      <use
         xlink:href="#m4322ad22c2"
         x="221.3999"
         y="51.539928"
         style="fill-opacity:0;stroke:#1f77b4"
         id="use728959" />
      <use
         xlink:href="#m4322ad22c2"
         x="228.01663"
         y="45.742573"
         style="fill-opacity:0;stroke:#1f77b4"
         id="use728961" />
      <use
         xlink:href="#m4322ad22c2"
         x="234.63316"
         y="60.160004"
         style="fill-opacity:0;stroke:#1f77b4"
         id="use728963" />
      <use
         xlink:href="#m4322ad22c2"
         x="241.24971"
         y="75.749809"
         style="fill-opacity:0;stroke:#1f77b4"
         id="use728965" />
      <use
         xlink:href="#m4322ad22c2"
         x="247.86644"
         y="110.2039"
         style="fill-opacity:0;stroke:#1f77b4"
         id="use728967" />
      <use
         xlink:href="#m4322ad22c2"
         x="254.48297"
         y="142.72502"
         style="fill-opacity:0;stroke:#1f77b4"
         id="use728969" />
      <use
         xlink:href="#m4322ad22c2"
         x="261.09952"
         y="162.21634"
         style="fill-opacity:0;stroke:#1f77b4"
         id="use728971" />
      <use
         xlink:href="#m4322ad22c2"
         x="267.71625"
         y="180.88287"
         style="fill-opacity:0;stroke:#1f77b4"
         id="use728973" />
      <use
         xlink:href="#m4322ad22c2"
         x="274.33279"
         y="194.96968"
         style="fill-opacity:0;stroke:#1f77b4"
         id="use728975" />
      <use
         xlink:href="#m4322ad22c2"
         x="280.94931"
         y="202.10652"
         style="fill-opacity:0;stroke:#1f77b4"
         id="use728977" />
      <use
         xlink:href="#m4322ad22c2"
         x="287.56604"
         y="211.29808"
         style="fill-opacity:0;stroke:#1f77b4"
         id="use728979" />
      <use
         xlink:href="#m4322ad22c2"
         x="294.18259"
         y="212.46297"
         style="fill-opacity:0;stroke:#1f77b4"
         id="use728981" />
      <use
         xlink:href="#m4322ad22c2"
         x="300.79913"
         y="215.50427"
         style="fill-opacity:0;stroke:#1f77b4"
         id="use728983" />
      <use
         xlink:href="#m4322ad22c2"
         x="307.41586"
         y="225.15422"
         style="fill-opacity:0;stroke:#1f77b4"
         id="use728985" />
      <use
         xlink:href="#m4322ad22c2"
         x="314.03241"
         y="219.60393"
         style="fill-opacity:0;stroke:#1f77b4"
         id="use728987" />
      <use
         xlink:href="#m4322ad22c2"
         x="320.64893"
         y="225.43268"
         style="fill-opacity:0;stroke:#1f77b4"
         id="use728989" />
      <use
         xlink:href="#m4322ad22c2"
         x="327.26566"
         y="231.84163"
         style="fill-opacity:0;stroke:#1f77b4"
         id="use728991" />
      <use
         xlink:href="#m4322ad22c2"
         x="333.8822"
         y="230.81281"
         style="fill-opacity:0;stroke:#1f77b4"
         id="use728993" />
      <use
         xlink:href="#m4322ad22c2"
         x="340.49875"
         y="233.86429"
         style="fill-opacity:0;stroke:#1f77b4"
         id="use728995" />
      <use
         xlink:href="#m4322ad22c2"
         x="347.11548"
         y="233.92009"
         style="fill-opacity:0;stroke:#1f77b4"
         id="use728997" />
      <use
         xlink:href="#m4322ad22c2"
         x="353.73203"
         y="233.60616"
         style="fill-opacity:0;stroke:#1f77b4"
         id="use728999" />
      <use
         xlink:href="#m4322ad22c2"
         x="360.34854"
         y="234.69301"
         style="fill-opacity:0;stroke:#1f77b4"
         id="use729001" />
      <use
         xlink:href="#m4322ad22c2"
         x="366.96527"
         y="237.30675"
         style="fill-opacity:0;stroke:#1f77b4"
         id="use729003" />
      <use
         xlink:href="#m4322ad22c2"
         x="373.58182"
         y="236.55519"
         style="fill-opacity:0;stroke:#1f77b4"
         id="use729005" />
    </g>
  </g>
  <g
     id="line2d_12"
     transform="translate(14.909498,-34.16)">
    <path
       d="m 69.218182,233.86832 6.616536,-0.53641 6.616536,-0.60829 6.616735,-0.69343 6.616536,-0.79489 6.616535,-0.91679 6.61673,-1.06445 6.61654,-1.24471 6.61654,-1.46696 6.61673,-1.74378 6.61654,-2.09205 6.61653,-2.5355 6.61674,-3.10703 6.61653,-3.8526 6.61654,-4.83799 6.61673,-6.15589 6.61654,-7.93477 6.61654,-10.34676 6.61673,-13.59365 6.61654,-17.82675 6.61653,-22.8894 6.61674,-27.67246 6.61653,-29.12635 6.61654,-22.455186 6.61673,-5.732224 6.61654,14.122402 6.61654,26.681581 6.61673,29.188967 6.61654,25.73688 6.61653,20.59263 6.61674,15.83634 6.61653,12.04602 6.61654,9.19245 6.61673,7.08356 6.61654,5.52632 6.61654,4.3687 6.61673,3.49873 6.61654,2.83656 6.61653,2.32637 6.61674,1.92835 6.61653,1.61399 6.61654,1.36307 6.61673,1.16067 6.61654,0.99574 6.61654,0.86022 6.61673,0.7479 6.61654,0.65406"
       clip-path="url(#p22ee7837f5)"
       style="fill:none;stroke:#1f77b4;stroke-width:2;stroke-linecap:square"
       id="path729010" />
  </g>
  <g
     id="line2d_13"
     transform="translate(14.909498,-34.16)">
    <defs
       id="defs729014">
      <path
         id="m09d9ae896c"
         d="M 0,3 C 0.795609,3 1.55874,2.683901 2.12132,2.12132 2.683901,1.55874 3,0.795609 3,0 3,-0.795609 2.683901,-1.55874 2.12132,-2.12132 1.55874,-2.683901 0.795609,-3 0,-3 -0.795609,-3 -1.55874,-2.683901 -2.12132,-2.12132 -2.683901,-1.55874 -3,-0.795609 -3,0 -3,0.795609 -2.683901,1.55874 -2.12132,2.12132 -1.55874,2.683901 -0.795609,3 0,3 Z"
         style="stroke:#d62728" />
    </defs>
    <g
       clip-path="url(#p22ee7837f5)"
       id="g729102">
      <use
         xlink:href="#m09d9ae896c"
         x="82.451256"
         y="233.36792"
         style="fill-opacity:0;stroke:#d62728"
         id="use729016" />
      <use
         xlink:href="#m09d9ae896c"
         x="89.067986"
         y="229.75673"
         style="fill-opacity:0;stroke:#d62728"
         id="use729018" />
      <use
         xlink:href="#m09d9ae896c"
         x="95.684525"
         y="229.92847"
         style="fill-opacity:0;stroke:#d62728"
         id="use729020" />
      <use
         xlink:href="#m09d9ae896c"
         x="102.30106"
         y="228.65814"
         style="fill-opacity:0;stroke:#d62728"
         id="use729022" />
      <use
         xlink:href="#m09d9ae896c"
         x="108.91779"
         y="227.52139"
         style="fill-opacity:0;stroke:#d62728"
         id="use729024" />
      <use
         xlink:href="#m09d9ae896c"
         x="115.53433"
         y="225.60753"
         style="fill-opacity:0;stroke:#d62728"
         id="use729026" />
      <use
         xlink:href="#m09d9ae896c"
         x="122.15086"
         y="224.9057"
         style="fill-opacity:0;stroke:#d62728"
         id="use729028" />
      <use
         xlink:href="#m09d9ae896c"
         x="128.76761"
         y="220.78311"
         style="fill-opacity:0;stroke:#d62728"
         id="use729030" />
      <use
         xlink:href="#m09d9ae896c"
         x="135.38414"
         y="222.57521"
         style="fill-opacity:0;stroke:#d62728"
         id="use729032" />
      <use
         xlink:href="#m09d9ae896c"
         x="142.00067"
         y="216.54045"
         style="fill-opacity:0;stroke:#d62728"
         id="use729034" />
      <use
         xlink:href="#m09d9ae896c"
         x="148.61742"
         y="215.69374"
         style="fill-opacity:0;stroke:#d62728"
         id="use729036" />
      <use
         xlink:href="#m09d9ae896c"
         x="155.23395"
         y="215.64275"
         style="fill-opacity:0;stroke:#d62728"
         id="use729038" />
      <use
         xlink:href="#m09d9ae896c"
         x="161.85048"
         y="209.93111"
         style="fill-opacity:0;stroke:#d62728"
         id="use729040" />
      <use
         xlink:href="#m09d9ae896c"
         x="168.46721"
         y="207.0365"
         style="fill-opacity:0;stroke:#d62728"
         id="use729042" />
      <use
         xlink:href="#m09d9ae896c"
         x="175.08376"
         y="199.27737"
         style="fill-opacity:0;stroke:#d62728"
         id="use729044" />
      <use
         xlink:href="#m09d9ae896c"
         x="181.70029"
         y="189.06198"
         style="fill-opacity:0;stroke:#d62728"
         id="use729046" />
      <use
         xlink:href="#m09d9ae896c"
         x="188.31702"
         y="175.27202"
         style="fill-opacity:0;stroke:#d62728"
         id="use729048" />
      <use
         xlink:href="#m09d9ae896c"
         x="194.93356"
         y="163.37271"
         style="fill-opacity:0;stroke:#d62728"
         id="use729050" />
      <use
         xlink:href="#m09d9ae896c"
         x="201.55009"
         y="147.298"
         style="fill-opacity:0;stroke:#d62728"
         id="use729052" />
      <use
         xlink:href="#m09d9ae896c"
         x="208.16682"
         y="123.70471"
         style="fill-opacity:0;stroke:#d62728"
         id="use729054" />
      <use
         xlink:href="#m09d9ae896c"
         x="214.78337"
         y="91.740807"
         style="fill-opacity:0;stroke:#d62728"
         id="use729056" />
      <use
         xlink:href="#m09d9ae896c"
         x="221.3999"
         y="45.742573"
         style="fill-opacity:0;stroke:#d62728"
         id="use729058" />
      <use
         xlink:href="#m09d9ae896c"
         x="228.01663"
         y="53.195328"
         style="fill-opacity:0;stroke:#d62728"
         id="use729060" />
      <use
         xlink:href="#m09d9ae896c"
         x="234.63316"
         y="81.89315"
         style="fill-opacity:0;stroke:#d62728"
         id="use729062" />
      <use
         xlink:href="#m09d9ae896c"
         x="241.24971"
         y="105.17198"
         style="fill-opacity:0;stroke:#d62728"
         id="use729064" />
      <use
         xlink:href="#m09d9ae896c"
         x="247.86644"
         y="137.94997"
         style="fill-opacity:0;stroke:#d62728"
         id="use729066" />
      <use
         xlink:href="#m09d9ae896c"
         x="254.48297"
         y="164.3717"
         style="fill-opacity:0;stroke:#d62728"
         id="use729068" />
      <use
         xlink:href="#m09d9ae896c"
         x="261.09952"
         y="181.34633"
         style="fill-opacity:0;stroke:#d62728"
         id="use729070" />
      <use
         xlink:href="#m09d9ae896c"
         x="267.71625"
         y="196.96811"
         style="fill-opacity:0;stroke:#d62728"
         id="use729072" />
      <use
         xlink:href="#m09d9ae896c"
         x="274.33279"
         y="207.75266"
         style="fill-opacity:0;stroke:#d62728"
         id="use729074" />
      <use
         xlink:href="#m09d9ae896c"
         x="280.94931"
         y="214.22842"
         style="fill-opacity:0;stroke:#d62728"
         id="use729076" />
      <use
         xlink:href="#m09d9ae896c"
         x="287.56604"
         y="220.43892"
         style="fill-opacity:0;stroke:#d62728"
         id="use729078" />
      <use
         xlink:href="#m09d9ae896c"
         x="294.18259"
         y="221.94139"
         style="fill-opacity:0;stroke:#d62728"
         id="use729080" />
      <use
         xlink:href="#m09d9ae896c"
         x="300.79913"
         y="226.32262"
         style="fill-opacity:0;stroke:#d62728"
         id="use729082" />
      <use
         xlink:href="#m09d9ae896c"
         x="307.41586"
         y="231.46568"
         style="fill-opacity:0;stroke:#d62728"
         id="use729084" />
      <use
         xlink:href="#m09d9ae896c"
         x="314.03241"
         y="228.99664"
         style="fill-opacity:0;stroke:#d62728"
         id="use729086" />
      <use
         xlink:href="#m09d9ae896c"
         x="320.64893"
         y="235.04303"
         style="fill-opacity:0;stroke:#d62728"
         id="use729088" />
      <use
         xlink:href="#m09d9ae896c"
         x="327.26566"
         y="238.98787"
         style="fill-opacity:0;stroke:#d62728"
         id="use729090" />
      <use
         xlink:href="#m09d9ae896c"
         x="333.8822"
         y="238.67607"
         style="fill-opacity:0;stroke:#d62728"
         id="use729092" />
      <use
         xlink:href="#m09d9ae896c"
         x="340.49875"
         y="240.76537"
         style="fill-opacity:0;stroke:#d62728"
         id="use729094" />
      <use
         xlink:href="#m09d9ae896c"
         x="347.11548"
         y="240.60576"
         style="fill-opacity:0;stroke:#d62728"
         id="use729096" />
      <use
         xlink:href="#m09d9ae896c"
         x="353.73203"
         y="241.03355"
         style="fill-opacity:0;stroke:#d62728"
         id="use729098" />
      <use
         xlink:href="#m09d9ae896c"
         x="360.34854"
         y="242.40172"
         style="fill-opacity:0;stroke:#d62728"
         id="use729100" />
    </g>
  </g>
  <g
     id="line2d_14"
     transform="translate(14.909498,-34.16)">
    <path
       d="m 82.451254,234.79279 6.616735,-0.50901 6.616536,-0.58548 6.616535,-0.67785 6.61673,-0.79044 6.61654,-0.9289 6.61654,-1.10101 6.61673,-1.31743 6.61654,-1.59279 6.61653,-1.94805 6.61674,-2.41316 6.61653,-3.03154 6.61654,-3.86789 6.61673,-5.01892 6.61654,-6.62925 6.61654,-8.91459 6.61673,-12.17749 6.61654,-16.77231 6.61653,-22.86145 6.61674,-29.52424 6.61653,-32.759251 6.61654,-24.634991 6.61673,-1.844259 6.61654,22.265915 6.61654,32.512136 6.61673,30.31547 6.61654,23.78717 6.61653,17.5218 6.61674,12.72105 6.61653,9.29629 6.61654,6.89685 6.61673,5.20855 6.61654,4.00442 6.61654,3.13155 6.61673,2.4877 6.61654,2.00451 6.61653,1.63621 6.61674,1.35131 6.61653,1.12778 6.61654,0.9503 6.61673,0.80775 6.61654,0.69198 6.61654,0.59712"
       clip-path="url(#p22ee7837f5)"
       style="fill:none;stroke:#d62728;stroke-width:2;stroke-linecap:square"
       id="path729105" />
  </g>
  <g
     id="line2d_15"
     transform="translate(14.909498,-34.16)">
    <defs
       id="defs729109">
      <path
         id="m6c14c9fc2d"
         d="M 0,3 C 0.795609,3 1.55874,2.683901 2.12132,2.12132 2.683901,1.55874 3,0.795609 3,0 3,-0.795609 2.683901,-1.55874 2.12132,-2.12132 1.55874,-2.683901 0.795609,-3 0,-3 -0.795609,-3 -1.55874,-2.683901 -2.12132,-2.12132 -2.683901,-1.55874 -3,-0.795609 -3,0 -3,0.795609 -2.683901,1.55874 -2.12132,2.12132 -1.55874,2.683901 -0.795609,3 0,3 Z"
         style="stroke:#2ca02c" />
    </defs>
    <g
       clip-path="url(#p22ee7837f5)"
       id="g729189">
      <use
         xlink:href="#m6c14c9fc2d"
         x="95.684525"
         y="230.92703"
         style="fill-opacity:0;stroke:#2ca02c"
         id="use729111" />
      <use
         xlink:href="#m6c14c9fc2d"
         x="102.30106"
         y="229.85242"
         style="fill-opacity:0;stroke:#2ca02c"
         id="use729113" />
      <use
         xlink:href="#m6c14c9fc2d"
         x="108.91779"
         y="228.34814"
         style="fill-opacity:0;stroke:#2ca02c"
         id="use729115" />
      <use
         xlink:href="#m6c14c9fc2d"
         x="115.53433"
         y="226.632"
         style="fill-opacity:0;stroke:#2ca02c"
         id="use729117" />
      <use
         xlink:href="#m6c14c9fc2d"
         x="122.15086"
         y="225.78865"
         style="fill-opacity:0;stroke:#2ca02c"
         id="use729119" />
      <use
         xlink:href="#m6c14c9fc2d"
         x="128.76761"
         y="222.43901"
         style="fill-opacity:0;stroke:#2ca02c"
         id="use729121" />
      <use
         xlink:href="#m6c14c9fc2d"
         x="135.38414"
         y="222.84779"
         style="fill-opacity:0;stroke:#2ca02c"
         id="use729123" />
      <use
         xlink:href="#m6c14c9fc2d"
         x="142.00067"
         y="219.00494"
         style="fill-opacity:0;stroke:#2ca02c"
         id="use729125" />
      <use
         xlink:href="#m6c14c9fc2d"
         x="148.61742"
         y="216.57152"
         style="fill-opacity:0;stroke:#2ca02c"
         id="use729127" />
      <use
         xlink:href="#m6c14c9fc2d"
         x="155.23395"
         y="216.41635"
         style="fill-opacity:0;stroke:#2ca02c"
         id="use729129" />
      <use
         xlink:href="#m6c14c9fc2d"
         x="161.85048"
         y="212.71054"
         style="fill-opacity:0;stroke:#2ca02c"
         id="use729131" />
      <use
         xlink:href="#m6c14c9fc2d"
         x="168.46721"
         y="209.63475"
         style="fill-opacity:0;stroke:#2ca02c"
         id="use729133" />
      <use
         xlink:href="#m6c14c9fc2d"
         x="175.08376"
         y="203.98009"
         style="fill-opacity:0;stroke:#2ca02c"
         id="use729135" />
      <use
         xlink:href="#m6c14c9fc2d"
         x="181.70029"
         y="195.45259"
         style="fill-opacity:0;stroke:#2ca02c"
         id="use729137" />
      <use
         xlink:href="#m6c14c9fc2d"
         x="188.31702"
         y="183.10298"
         style="fill-opacity:0;stroke:#2ca02c"
         id="use729139" />
      <use
         xlink:href="#m6c14c9fc2d"
         x="194.93356"
         y="171.20404"
         style="fill-opacity:0;stroke:#2ca02c"
         id="use729141" />
      <use
         xlink:href="#m6c14c9fc2d"
         x="201.55009"
         y="157.76994"
         style="fill-opacity:0;stroke:#2ca02c"
         id="use729143" />
      <use
         xlink:href="#m6c14c9fc2d"
         x="208.16682"
         y="138.92599"
         style="fill-opacity:0;stroke:#2ca02c"
         id="use729145" />
      <use
         xlink:href="#m6c14c9fc2d"
         x="214.78337"
         y="108.882"
         style="fill-opacity:0;stroke:#2ca02c"
         id="use729147" />
      <use
         xlink:href="#m6c14c9fc2d"
         x="221.3999"
         y="45.742573"
         style="fill-opacity:0;stroke:#2ca02c"
         id="use729149" />
      <use
         xlink:href="#m6c14c9fc2d"
         x="228.01663"
         y="62.547787"
         style="fill-opacity:0;stroke:#2ca02c"
         id="use729151" />
      <use
         xlink:href="#m6c14c9fc2d"
         x="234.63316"
         y="103.45017"
         style="fill-opacity:0;stroke:#2ca02c"
         id="use729153" />
      <use
         xlink:href="#m6c14c9fc2d"
         x="241.24971"
         y="130.5312"
         style="fill-opacity:0;stroke:#2ca02c"
         id="use729155" />
      <use
         xlink:href="#m6c14c9fc2d"
         x="247.86644"
         y="159.93474"
         style="fill-opacity:0;stroke:#2ca02c"
         id="use729157" />
      <use
         xlink:href="#m6c14c9fc2d"
         x="254.48297"
         y="181.54262"
         style="fill-opacity:0;stroke:#2ca02c"
         id="use729159" />
      <use
         xlink:href="#m6c14c9fc2d"
         x="261.09952"
         y="196.32024"
         style="fill-opacity:0;stroke:#2ca02c"
         id="use729161" />
      <use
         xlink:href="#m6c14c9fc2d"
         x="267.71625"
         y="209.23241"
         style="fill-opacity:0;stroke:#2ca02c"
         id="use729163" />
      <use
         xlink:href="#m6c14c9fc2d"
         x="274.33279"
         y="217.7128"
         style="fill-opacity:0;stroke:#2ca02c"
         id="use729165" />
      <use
         xlink:href="#m6c14c9fc2d"
         x="280.94931"
         y="223.20824"
         style="fill-opacity:0;stroke:#2ca02c"
         id="use729167" />
      <use
         xlink:href="#m6c14c9fc2d"
         x="287.56604"
         y="227.65578"
         style="fill-opacity:0;stroke:#2ca02c"
         id="use729169" />
      <use
         xlink:href="#m6c14c9fc2d"
         x="294.18259"
         y="229.75766"
         style="fill-opacity:0;stroke:#2ca02c"
         id="use729171" />
      <use
         xlink:href="#m6c14c9fc2d"
         x="300.79913"
         y="233.98764"
         style="fill-opacity:0;stroke:#2ca02c"
         id="use729173" />
      <use
         xlink:href="#m6c14c9fc2d"
         x="307.41586"
         y="236.8649"
         style="fill-opacity:0;stroke:#2ca02c"
         id="use729175" />
      <use
         xlink:href="#m6c14c9fc2d"
         x="314.03241"
         y="236.72371"
         style="fill-opacity:0;stroke:#2ca02c"
         id="use729177" />
      <use
         xlink:href="#m6c14c9fc2d"
         x="320.64893"
         y="242.15213"
         style="fill-opacity:0;stroke:#2ca02c"
         id="use729179" />
      <use
         xlink:href="#m6c14c9fc2d"
         x="327.26566"
         y="244.53287"
         style="fill-opacity:0;stroke:#2ca02c"
         id="use729181" />
      <use
         xlink:href="#m6c14c9fc2d"
         x="333.8822"
         y="244.60666"
         style="fill-opacity:0;stroke:#2ca02c"
         id="use729183" />
      <use
         xlink:href="#m6c14c9fc2d"
         x="340.49875"
         y="246.24001"
         style="fill-opacity:0;stroke:#2ca02c"
         id="use729185" />
      <use
         xlink:href="#m6c14c9fc2d"
         x="347.11548"
         y="246.06909"
         style="fill-opacity:0;stroke:#2ca02c"
         id="use729187" />
    </g>
  </g>
  <g
     id="line2d_16"
     transform="translate(14.909498,-34.16)">
    <path
       d="m 95.684525,234.519 6.616535,-0.49131 6.61673,-0.57483 6.61654,-0.67811 6.61654,-0.80734 6.61673,-0.97105 6.61654,-1.1812 6.61653,-1.45517 6.61674,-1.81845 6.61653,-2.30895 6.61654,-2.98514 6.61673,-3.93839 6.61654,-5.31382 6.61654,-7.34609 6.61673,-10.40824 6.61654,-15.04967 6.61653,-21.86676 6.61674,-30.545 6.61653,-36.558654 6.61654,-27.471845 6.61673,2.873138 6.61654,30.591415 6.61654,36.191316 6.61673,29.08882 6.61654,20.58181 6.61653,14.14899 6.61674,9.81205 6.61653,6.95256 6.61654,5.04974 6.61673,3.75708 6.61654,2.85767 6.61654,2.21725 6.61673,1.75108 6.61654,1.40471 6.61653,1.14273 6.61674,0.94126 6.61653,0.78395 6.61654,0.6595 6.61673,0.55985"
       clip-path="url(#p22ee7837f5)"
       style="fill:none;stroke:#2ca02c;stroke-width:2;stroke-linecap:square"
       id="path729192" />
  </g>
  <g
     id="patch_3"
     transform="translate(14.909498,-34.16)">
    <path
       d="M 54,256.32 V 34.56"
       style="fill:none;stroke:#000000;stroke-width:0.8;stroke-linecap:square;stroke-linejoin:miter"
       id="path729195" />
  </g>
  <g
     id="patch_4"
     transform="translate(14.909498,-34.16)">
    <path
       d="M 388.8,256.32 V 34.56"
       style="fill:none;stroke:#000000;stroke-width:0.8;stroke-linecap:square;stroke-linejoin:miter"
       id="path729198" />
  </g>
  <g
     id="patch_5"
     transform="translate(14.909498,-34.16)">
    <path
       d="M 54,256.32 H 388.8"
       style="fill:none;stroke:#000000;stroke-width:0.8;stroke-linecap:square;stroke-linejoin:miter"
       id="path729201" />
  </g>
  <g
     id="patch_6"
     transform="translate(14.909498,-34.16)">
    <path
       d="M 54,34.56 H 388.8"
       style="fill:none;stroke:#000000;stroke-width:0.8;stroke-linecap:square;stroke-linejoin:miter"
       id="path729204" />
  </g>
  <g
     id="legend_1"
     transform="matrix(1.1879866,0,0,1.1879866,-0.3476617,-45.004806)">
    <g
       id="patch_7">
      <path
         d="m 61,86.594375 h 124.99062 q 2,0 2,-2 V 41.56 q 0,-2 -2,-2 H 61 q -2,0 -2,2 v 43.034375 q 0,2 2,2 z"
         style="opacity:0.8;fill:#ffffff;stroke:#cccccc;stroke-linejoin:miter"
         id="path729207" />
    </g>
    <g
       id="line2d_17">
      <g
         id="g729212">
        <use
           xlink:href="#m4322ad22c2"
           x="73"
           y="47.65844"
           style="fill-opacity:0;stroke:#1f77b4"
           id="use729210" />
      </g>
    </g>
    <g
       id="text_11">
      <!-- Experiment -->
      <g
         transform="matrix(0.1,0,0,-0.1,91,51.158438)"
         id="g729246">
        <defs
           id="defs729224">
          <path
             id="DejaVuSans-45"
             d="M 628,4666 H 3578 V 4134 H 1259 V 2753 H 3481 V 2222 H 1259 V 531 H 3634 V 0 H 628 Z"
             transform="scale(0.015625)" />
          <path
             id="DejaVuSans-78"
             d="M 3513,3500 2247,1797 3578,0 H 2900 L 1881,1375 863,0 H 184 L 1544,1831 300,3500 h 678 l 928,-1247 928,1247 z"
             transform="scale(0.015625)" />
          <path
             id="DejaVuSans-70"
             d="M 1159,525 V -1331 H 581 v 4831 h 578 v -531 q 182,312 458,463 277,152 661,152 638,0 1036,-506 399,-506 399,-1331 0,-825 -399,-1332 -398,-506 -1036,-506 -384,0 -661,152 -276,152 -458,464 z m 1957,1222 q 0,634 -261,995 -261,361 -717,361 -457,0 -718,-361 -261,-361 -261,-995 0,-634 261,-995 261,-361 718,-361 456,0 717,361 261,361 261,995 z"
             transform="scale(0.015625)" />
          <path
             id="DejaVuSans-65"
             d="M 3597,1894 V 1613 H 953 q 38,-594 358,-905 320,-311 892,-311 331,0 642,81 311,81 618,244 V 178 Q 3153,47 2828,-22 2503,-91 2169,-91 1331,-91 842,396 353,884 353,1716 q 0,859 464,1363 464,505 1252,505 706,0 1117,-455 411,-454 411,-1235 z m -575,169 q -6,471 -264,752 -258,282 -683,282 -481,0 -770,-272 -289,-272 -333,-766 z"
             transform="scale(0.015625)" />
          <path
             id="DejaVuSans-72"
             d="m 2631,2963 q -97,56 -211,82 -114,27 -251,27 -488,0 -749,-317 -261,-317 -261,-911 V 0 H 581 v 3500 h 578 v -544 q 182,319 472,473 291,155 707,155 59,0 131,-8 72,-7 159,-23 z"
             transform="scale(0.015625)" />
          <path
             id="DejaVuSans-69"
             d="m 603,3500 h 575 V 0 H 603 Z m 0,1363 h 575 V 4134 H 603 Z"
             transform="scale(0.015625)" />
          <path
             id="DejaVuSans-6d"
             d="m 3328,2828 q 216,388 516,572 300,184 706,184 547,0 844,-383 297,-382 297,-1088 V 0 h -578 v 2094 q 0,503 -179,746 -178,244 -543,244 -447,0 -707,-297 -259,-296 -259,-809 V 0 h -578 v 2094 q 0,506 -178,748 -178,242 -550,242 -441,0 -701,-298 -259,-298 -259,-808 V 0 H 581 v 3500 h 578 v -544 q 197,322 472,475 275,153 653,153 382,0 649,-194 267,-193 395,-562 z"
             transform="scale(0.015625)" />
          <path
             id="DejaVuSans-6e"
             d="M 3513,2113 V 0 h -575 v 2094 q 0,497 -194,743 -194,247 -581,247 -466,0 -735,-297 -269,-296 -269,-809 V 0 H 581 v 3500 h 578 v -544 q 207,316 486,472 280,156 646,156 603,0 912,-373 310,-373 310,-1098 z"
             transform="scale(0.015625)" />
          <path
             id="DejaVuSans-74"
             d="M 1172,4494 V 3500 H 2356 V 3053 H 1172 V 1153 q 0,-428 117,-550 117,-122 477,-122 h 590 V 0 H 1766 Q 1100,0 847,248 594,497 594,1153 V 3053 H 172 v 447 h 422 v 994 z"
             transform="scale(0.015625)" />
        </defs>
        <use
           xlink:href="#DejaVuSans-45"
           id="use729226" />
        <use
           xlink:href="#DejaVuSans-78"
           x="63.183594"
           id="use729228" />
        <use
           xlink:href="#DejaVuSans-70"
           x="122.36328"
           id="use729230" />
        <use
           xlink:href="#DejaVuSans-65"
           x="185.83984"
           id="use729232" />
        <use
           xlink:href="#DejaVuSans-72"
           x="247.36328"
           id="use729234" />
        <use
           xlink:href="#DejaVuSans-69"
           x="288.47656"
           id="use729236" />
        <use
           xlink:href="#DejaVuSans-6d"
           x="316.25977"
           id="use729238" />
        <use
           xlink:href="#DejaVuSans-65"
           x="413.67188"
           id="use729240" />
        <use
           xlink:href="#DejaVuSans-6e"
           x="475.19531"
           id="use729242" />
        <use
           xlink:href="#DejaVuSans-74"
           x="538.57422"
           id="use729244" />
      </g>
    </g>
    <g
       id="line2d_18">
      <g
         id="g729251">
        <use
           xlink:href="#m09d9ae896c"
           x="73"
           y="62.336563"
           style="fill-opacity:0;stroke:#d62728"
           id="use729249" />
      </g>
    </g>
    <g
       id="text_12">
      <!-- 1st deconvolution -->
      <g
         transform="matrix(0.1,0,0,-0.1,91,65.836563)"
         id="g729298">
        <defs
           id="defs729262">
          <path
             id="DejaVuSans-73"
             d="m 2834,3397 v -544 q -243,125 -506,187 -262,63 -544,63 -428,0 -642,-131 -214,-131 -214,-394 0,-200 153,-314 153,-114 616,-217 l 197,-44 q 612,-131 870,-370 258,-239 258,-667 0,-488 -386,-773 Q 2250,-91 1575,-91 1294,-91 989,-36 684,19 347,128 v 594 q 319,-166 628,-249 309,-82 613,-82 406,0 624,139 219,139 219,392 0,234 -158,359 -157,125 -692,241 l -200,47 q -534,112 -772,345 -237,233 -237,639 0,494 350,762 350,269 994,269 318,0 599,-47 282,-46 519,-140 z"
             transform="scale(0.015625)" />
          <path
             id="DejaVuSans-20"
             transform="scale(0.015625)"
             d="" />
          <path
             id="DejaVuSans-64"
             d="m 2906,2969 v 1894 h 575 V 0 H 2906 V 525 Q 2725,213 2448,61 2172,-91 1784,-91 1150,-91 751,415 353,922 353,1747 q 0,825 398,1331 399,506 1033,506 388,0 664,-152 277,-151 458,-463 z M 947,1747 q 0,-634 261,-995 261,-361 717,-361 456,0 718,361 263,361 263,995 0,634 -263,995 -262,361 -718,361 -456,0 -717,-361 -261,-361 -261,-995 z"
             transform="scale(0.015625)" />
          <path
             id="DejaVuSans-63"
             d="m 3122,3366 v -538 q -244,135 -489,202 -245,67 -495,67 -560,0 -870,-355 -309,-354 -309,-995 0,-641 309,-996 310,-354 870,-354 250,0 495,67 245,67 489,202 V 134 Q 2881,22 2623,-34 2366,-91 2075,-91 1284,-91 818,406 353,903 353,1747 q 0,856 470,1346 471,491 1290,491 265,0 518,-55 253,-54 491,-163 z"
             transform="scale(0.015625)" />
          <path
             id="DejaVuSans-6f"
             d="m 1959,3097 q -462,0 -731,-361 -269,-361 -269,-989 0,-628 267,-989 268,-361 733,-361 460,0 728,362 269,363 269,988 0,622 -269,986 -268,364 -728,364 z m 0,487 q 750,0 1178,-488 429,-487 429,-1349 Q 3566,888 3137,398 2709,-91 1959,-91 1206,-91 779,398 353,888 353,1747 q 0,862 426,1349 427,488 1180,488 z"
             transform="scale(0.015625)" />
          <path
             id="DejaVuSans-76"
             d="M 191,3500 H 800 L 1894,563 2988,3500 h 609 L 2284,0 h -781 z"
             transform="scale(0.015625)" />
          <path
             id="DejaVuSans-6c"
             d="m 603,4863 h 575 V 0 H 603 Z"
             transform="scale(0.015625)" />
          <path
             id="DejaVuSans-75"
             d="m 544,1381 v 2119 h 575 V 1403 q 0,-497 193,-746 194,-248 582,-248 465,0 735,297 271,297 271,810 v 1984 h 575 V 0 H 2900 V 538 Q 2691,219 2414,64 2138,-91 1772,-91 1169,-91 856,284 544,659 544,1381 Z m 1447,2203 z"
             transform="scale(0.015625)" />
        </defs>
        <use
           xlink:href="#DejaVuSans-31"
           id="use729264" />
        <use
           xlink:href="#DejaVuSans-73"
           x="63.623047"
           id="use729266" />
        <use
           xlink:href="#DejaVuSans-74"
           x="115.72266"
           id="use729268" />
        <use
           xlink:href="#DejaVuSans-20"
           x="154.93164"
           id="use729270" />
        <use
           xlink:href="#DejaVuSans-64"
           x="186.71875"
           id="use729272" />
        <use
           xlink:href="#DejaVuSans-65"
           x="250.19531"
           id="use729274" />
        <use
           xlink:href="#DejaVuSans-63"
           x="311.71875"
           id="use729276" />
        <use
           xlink:href="#DejaVuSans-6f"
           x="366.69922"
           id="use729278" />
        <use
           xlink:href="#DejaVuSans-6e"
           x="427.88086"
           id="use729280" />
        <use
           xlink:href="#DejaVuSans-76"
           x="491.25977"
           id="use729282" />
        <use
           xlink:href="#DejaVuSans-6f"
           x="550.43945"
           id="use729284" />
        <use
           xlink:href="#DejaVuSans-6c"
           x="611.62109"
           id="use729286" />
        <use
           xlink:href="#DejaVuSans-75"
           x="639.4043"
           id="use729288" />
        <use
           xlink:href="#DejaVuSans-74"
           x="702.7832"
           id="use729290" />
        <use
           xlink:href="#DejaVuSans-69"
           x="741.99219"
           id="use729292" />
        <use
           xlink:href="#DejaVuSans-6f"
           x="769.77539"
           id="use729294" />
        <use
           xlink:href="#DejaVuSans-6e"
           x="830.95703"
           id="use729296" />
      </g>
    </g>
    <g
       id="line2d_19">
      <g
         id="g729303">
        <use
           xlink:href="#m6c14c9fc2d"
           x="73"
           y="77.014687"
           style="fill-opacity:0;stroke:#2ca02c"
           id="use729301" />
      </g>
    </g>
    <g
       id="text_13">
      <!-- 2nd deconvolution -->
      <g
         transform="matrix(0.1,0,0,-0.1,91,80.514688)"
         id="g729340">
        <use
           xlink:href="#DejaVuSans-32"
           id="use729306" />
        <use
           xlink:href="#DejaVuSans-6e"
           x="63.623047"
           id="use729308" />
        <use
           xlink:href="#DejaVuSans-64"
           x="127.00195"
           id="use729310" />
        <use
           xlink:href="#DejaVuSans-20"
           x="190.47852"
           id="use729312" />
        <use
           xlink:href="#DejaVuSans-64"
           x="222.26562"
           id="use729314" />
        <use
           xlink:href="#DejaVuSans-65"
           x="285.74219"
           id="use729316" />
        <use
           xlink:href="#DejaVuSans-63"
           x="347.26562"
           id="use729318" />
        <use
           xlink:href="#DejaVuSans-6f"
           x="402.24609"
           id="use729320" />
        <use
           xlink:href="#DejaVuSans-6e"
           x="463.42773"
           id="use729322" />
        <use
           xlink:href="#DejaVuSans-76"
           x="526.80664"
           id="use729324" />
        <use
           xlink:href="#DejaVuSans-6f"
           x="585.98633"
           id="use729326" />
        <use
           xlink:href="#DejaVuSans-6c"
           x="647.16797"
           id="use729328" />
        <use
           xlink:href="#DejaVuSans-75"
           x="674.95117"
           id="use729330" />
        <use
           xlink:href="#DejaVuSans-74"
           x="738.33008"
           id="use729332" />
        <use
           xlink:href="#DejaVuSans-69"
           x="777.53906"
           id="use729334" />
        <use
           xlink:href="#DejaVuSans-6f"
           x="805.32227"
           id="use729336" />
        <use
           xlink:href="#DejaVuSans-6e"
           x="866.50391"
           id="use729338" />
      </g>
    </g>
  </g>
  <defs
     id="defs729349">
    <clipPath
       id="p22ee7837f5">
      <rect
         x="54"
         y="34.560001"
         width="334.79999"
         height="221.75999"
         id="rect729346" />
    </clipPath>
  </defs>
  <g
     transform="matrix(2.2308531,0,0,2.2308531,210.70225,247.39026)"
     ns14:version="1.8.1"
     ns14:texconverter="pdflatex"
     ns14:pdfconverter="inkscape"
     ns14:text="$\\Delta \\nu$ (MHz)"
     ns14:preamble="/home/pellet-mary/.config/inkscape/extensions/textext/default_packages.tex"
     ns14:scale="2.429784428979403"
     ns14:alignment="middle center"
     ns14:stroke-to-path="0"
     ns14:jacobian_sqrt="0.857174"
     id="g711160"
     style="stroke-linecap:butt;stroke-linejoin:round"><defs
   id="id-43576753-f8e1-4c05-a134-8a4cb98647a5">
    <g
   id="g732643">
      <symbol
   overflow="visible"
   id="symbol732609">
        <path
   style="stroke:none"
   d=""
   id="path732607" />

      </symbol>

      <symbol
   overflow="visible"
   id="symbol732613">
        <path
   style="stroke:none"
   d="m 4.40625,-6.953125 c -0.0625,-0.140625 -0.09375,-0.1875 -0.265625,-0.1875 -0.15625,0 -0.1875,0.046875 -0.25,0.1875 l -3.375,6.75 C 0.46875,-0.109375 0.46875,-0.09375 0.46875,-0.078125 0.46875,0 0.53125,0 0.6875,0 h 6.921875 c 0.15625,0 0.21875,0 0.21875,-0.078125 0,-0.015625 0,-0.03125 -0.046875,-0.125 z m -0.578125,0.8125 2.6875,5.390625 h -5.375 z m 0,0"
   id="path732611" />

      </symbol>

      <symbol
   overflow="visible"
   id="symbol732617">
        <path
   style="stroke:none"
   d="m 3.296875,2.390625 c 0,-0.03125 0,-0.046875 -0.171875,-0.21875 C 1.890625,0.921875 1.5625,-0.96875 1.5625,-2.5 c 0,-1.734375 0.375,-3.46875 1.609375,-4.703125 0.125,-0.125 0.125,-0.140625 0.125,-0.171875 0,-0.078125 -0.03125,-0.109375 -0.09375,-0.109375 -0.109375,0 -1,0.6875 -1.59375,1.953125 -0.5,1.09375 -0.625,2.203125 -0.625,3.03125 0,0.78125 0.109375,1.984375 0.65625,3.125 C 2.25,1.84375 3.09375,2.5 3.203125,2.5 c 0.0625,0 0.09375,-0.03125 0.09375,-0.109375 z m 0,0"
   id="path732615" />

      </symbol>

      <symbol
   overflow="visible"
   id="symbol732621">
        <path
   style="stroke:none"
   d="M 2.40625,-6.59375 C 2.3125,-6.8125 2.28125,-6.8125 2.046875,-6.8125 H 0.375 V -6.5 h 0.234375 c 0.765625,0 0.78125,0.109375 0.78125,0.46875 v 4.984375 c 0,0.265625 0,0.734375 -1.015625,0.734375 V 0 c 0.34375,-0.015625 0.828125,-0.03125 1.15625,-0.03125 0.328125,0 0.828125,0.015625 1.171875,0.03125 v -0.3125 c -1.03125,0 -1.03125,-0.46875 -1.03125,-0.734375 v -5.375 H 1.6875 L 4.09375,-0.21875 C 4.140625,-0.09375 4.1875,0 4.28125,0 4.390625,0 4.421875,-0.078125 4.46875,-0.1875 L 6.921875,-6.5 v 5.71875 c 0,0.359375 -0.015625,0.46875 -0.78125,0.46875 H 5.90625 V 0 c 0.359375,-0.03125 1.046875,-0.03125 1.4375,-0.03125 0.375,0 1.046875,0 1.421875,0.03125 v -0.3125 h -0.25 c -0.765625,0 -0.78125,-0.109375 -0.78125,-0.46875 v -5.25 C 7.734375,-6.390625 7.75,-6.5 8.515625,-6.5 h 0.25 v -0.3125 h -1.6875 C 6.8125,-6.8125 6.8125,-6.796875 6.75,-6.625 L 4.5625,-1 Z m 0,0"
   id="path732619" />

      </symbol>

      <symbol
   overflow="visible"
   id="symbol732625">
        <path
   style="stroke:none"
   d="M 6.109375,-6.03125 C 6.109375,-6.390625 6.125,-6.5 6.890625,-6.5 h 0.25 v -0.3125 c -0.359375,0.03125 -1.09375,0.03125 -1.46875,0.03125 -0.375,0 -1.125,0 -1.46875,-0.03125 V -6.5 H 4.4375 c 0.765625,0 0.78125,0.109375 0.78125,0.46875 v 2.328125 H 2.25 V -6.03125 C 2.25,-6.390625 2.265625,-6.5 3.03125,-6.5 h 0.234375 v -0.3125 c -0.34375,0.03125 -1.078125,0.03125 -1.46875,0.03125 -0.375,0 -1.125,0 -1.46875,-0.03125 V -6.5 H 0.5625 c 0.765625,0 0.796875,0.109375 0.796875,0.46875 v 5.25 c 0,0.359375 -0.03125,0.46875 -0.796875,0.46875 H 0.328125 V 0 c 0.34375,-0.03125 1.09375,-0.03125 1.46875,-0.03125 0.375,0 1.125,0 1.46875,0.03125 V -0.3125 H 3.03125 C 2.265625,-0.3125 2.25,-0.421875 2.25,-0.78125 v -2.609375 h 2.96875 v 2.609375 c 0,0.359375 -0.015625,0.46875 -0.78125,0.46875 H 4.203125 V 0 c 0.34375,-0.03125 1.078125,-0.03125 1.453125,-0.03125 0.390625,0 1.125,0 1.484375,0.03125 v -0.3125 h -0.25 c -0.765625,0 -0.78125,-0.109375 -0.78125,-0.46875 z m 0,0"
   id="path732623" />

      </symbol>

      <symbol
   overflow="visible"
   id="symbol732629">
        <path
   style="stroke:none"
   d="m 3.890625,-4 c 0.09375,-0.109375 0.09375,-0.125 0.09375,-0.171875 0,-0.125 -0.09375,-0.125 -0.265625,-0.125 H 0.53125 L 0.421875,-2.6875 h 0.25 c 0.0625,-1.015625 0.25,-1.390625 1.34375,-1.390625 H 3.15625 L 0.375,-0.3125 C 0.28125,-0.203125 0.28125,-0.1875 0.28125,-0.140625 0.28125,0 0.34375,0 0.53125,0 H 3.828125 L 4,-1.859375 H 3.75 C 3.65625,-0.6875 3.453125,-0.25 2.296875,-0.25 h -1.1875 z m 0,0"
   id="path732627" />

      </symbol>

      <symbol
   overflow="visible"
   id="symbol732633">
        <path
   style="stroke:none"
   d="m 2.875,-2.5 c 0,-0.765625 -0.109375,-1.96875 -0.65625,-3.109375 -0.59375,-1.21875 -1.453125,-1.875 -1.546875,-1.875 -0.0625,0 -0.109375,0.046875 -0.109375,0.109375 0,0.03125 0,0.046875 0.1875,0.234375 0.984375,0.984375 1.546875,2.5625 1.546875,4.640625 0,1.71875 -0.359375,3.46875 -1.59375,4.71875 C 0.5625,2.34375 0.5625,2.359375 0.5625,2.390625 0.5625,2.453125 0.609375,2.5 0.671875,2.5 0.765625,2.5 1.671875,1.8125 2.25,0.546875 2.765625,-0.546875 2.875,-1.65625 2.875,-2.5 Z m 0,0"
   id="path732631" />

      </symbol>

      <symbol
   overflow="visible"
   id="symbol732637">
        <path
   style="stroke:none"
   d=""
   id="path732635" />

      </symbol>

      <symbol
   overflow="visible"
   id="symbol732641">
        <path
   style="stroke:none"
   d="m 2.234375,-4.296875 c 0,-0.015625 0,-0.109375 -0.125,-0.109375 -0.234375,0 -0.96875,0.078125 -1.21875,0.09375 -0.078125,0.015625 -0.1875,0.03125 -0.1875,0.203125 0,0.125 0.078125,0.125 0.234375,0.125 0.484375,0 0.5,0.0625 0.5,0.171875 0,0.0625 -0.125,0.53125 -0.1875,0.796875 L 0.640625,-0.5625 C 0.59375,-0.421875 0.53125,-0.140625 0.53125,-0.125 0.53125,-0.015625 0.625,0 0.6875,0 h 0.140625 c 0.703125,-0.125 1.78125,-0.515625 2.8125,-1.46875 1.3125,-1.21875 1.578125,-2.578125 1.578125,-2.671875 0,-0.171875 -0.109375,-0.265625 -0.28125,-0.265625 -0.078125,0 -0.3125,0.046875 -0.390625,0.328125 -0.640625,2.265625 -2.15625,3.375 -3.296875,3.75 z m 0,0"
   id="path732639" />

      </symbol>

    </g>

  </defs>

  <g
   id="id-4f39c824-03e6-414b-b752-e35849dcaf40"
   transform="translate(-149.181,-127.281)"
   style="stroke-linecap:butt;stroke-linejoin:round">
    <g
   style="fill:#000000;fill-opacity:1;stroke-linecap:butt;stroke-linejoin:round"
   id="id-7c4ff02c-d8b4-4bfe-88fc-93b9e662f94b">
      <g
   transform="translate(148.712,134.765)"
   id="g713157"
   style="stroke-linecap:butt;stroke-linejoin:round"><path
   style="stroke:none;stroke-linecap:butt;stroke-linejoin:round"
   d="m 4.40625,-6.953125 c -0.0625,-0.140625 -0.09375,-0.1875 -0.265625,-0.1875 -0.15625,0 -0.1875,0.046875 -0.25,0.1875 l -3.375,6.75 C 0.46875,-0.109375 0.46875,-0.09375 0.46875,-0.078125 0.46875,0 0.53125,0 0.6875,0 h 6.921875 c 0.15625,0 0.21875,0 0.21875,-0.078125 0,-0.015625 0,-0.03125 -0.046875,-0.125 z m -0.578125,0.8125 2.6875,5.390625 h -5.375 z m 0,0"
   id="id-29e2bd36-5eec-4b9e-9b38-4a7a051a6392" />

      </g>
</g>

    <g
   style="fill:#000000;fill-opacity:1;stroke-linecap:butt;stroke-linejoin:round"
   id="id-11004c4f-71f4-4f47-b882-7f148fb29aef">
      <g
   transform="translate(157.015,134.765)"
   id="g713161"
   style="stroke-linecap:butt;stroke-linejoin:round"><path
   style="stroke:none;stroke-linecap:butt;stroke-linejoin:round"
   d="m 2.234375,-4.296875 c 0,-0.015625 0,-0.109375 -0.125,-0.109375 -0.234375,0 -0.96875,0.078125 -1.21875,0.09375 -0.078125,0.015625 -0.1875,0.03125 -0.1875,0.203125 0,0.125 0.078125,0.125 0.234375,0.125 0.484375,0 0.5,0.0625 0.5,0.171875 0,0.0625 -0.125,0.53125 -0.1875,0.796875 L 0.640625,-0.5625 C 0.59375,-0.421875 0.53125,-0.140625 0.53125,-0.125 0.53125,-0.015625 0.625,0 0.6875,0 h 0.140625 c 0.703125,-0.125 1.78125,-0.515625 2.8125,-1.46875 1.3125,-1.21875 1.578125,-2.578125 1.578125,-2.671875 0,-0.171875 -0.109375,-0.265625 -0.28125,-0.265625 -0.078125,0 -0.3125,0.046875 -0.390625,0.328125 -0.640625,2.265625 -2.15625,3.375 -3.296875,3.75 z m 0,0"
   id="id-9c2bf2ee-9269-4985-b63a-98f1737990a8" />

      </g>
</g>

    <g
   style="fill:#000000;fill-opacity:1;stroke-linecap:butt;stroke-linejoin:round"
   id="id-e524f733-df72-4b2f-9019-d0a11a7a0d39">
      <g
   transform="translate(165.891,134.765)"
   id="g713165"
   style="stroke-linecap:butt;stroke-linejoin:round"><path
   style="stroke:none;stroke-linecap:butt;stroke-linejoin:round"
   d="m 3.296875,2.390625 c 0,-0.03125 0,-0.046875 -0.171875,-0.21875 C 1.890625,0.921875 1.5625,-0.96875 1.5625,-2.5 c 0,-1.734375 0.375,-3.46875 1.609375,-4.703125 0.125,-0.125 0.125,-0.140625 0.125,-0.171875 0,-0.078125 -0.03125,-0.109375 -0.09375,-0.109375 -0.109375,0 -1,0.6875 -1.59375,1.953125 -0.5,1.09375 -0.625,2.203125 -0.625,3.03125 0,0.78125 0.109375,1.984375 0.65625,3.125 C 2.25,1.84375 3.09375,2.5 3.203125,2.5 c 0.0625,0 0.09375,-0.03125 0.09375,-0.109375 z m 0,0"
   id="id-ad1df7df-706f-46be-8e82-7eefc98c4ba7" />

      </g>
<g
   transform="translate(169.765,134.765)"
   id="g713168"
   style="stroke-linecap:butt;stroke-linejoin:round"><path
   style="stroke:none;stroke-linecap:butt;stroke-linejoin:round"
   d="M 2.40625,-6.59375 C 2.3125,-6.8125 2.28125,-6.8125 2.046875,-6.8125 H 0.375 V -6.5 h 0.234375 c 0.765625,0 0.78125,0.109375 0.78125,0.46875 v 4.984375 c 0,0.265625 0,0.734375 -1.015625,0.734375 V 0 c 0.34375,-0.015625 0.828125,-0.03125 1.15625,-0.03125 0.328125,0 0.828125,0.015625 1.171875,0.03125 v -0.3125 c -1.03125,0 -1.03125,-0.46875 -1.03125,-0.734375 v -5.375 H 1.6875 L 4.09375,-0.21875 C 4.140625,-0.09375 4.1875,0 4.28125,0 4.390625,0 4.421875,-0.078125 4.46875,-0.1875 L 6.921875,-6.5 v 5.71875 c 0,0.359375 -0.015625,0.46875 -0.78125,0.46875 H 5.90625 V 0 c 0.359375,-0.03125 1.046875,-0.03125 1.4375,-0.03125 0.375,0 1.046875,0 1.421875,0.03125 v -0.3125 h -0.25 c -0.765625,0 -0.78125,-0.109375 -0.78125,-0.46875 v -5.25 C 7.734375,-6.390625 7.75,-6.5 8.515625,-6.5 h 0.25 v -0.3125 h -1.6875 C 6.8125,-6.8125 6.8125,-6.796875 6.75,-6.625 L 4.5625,-1 Z m 0,0"
   id="id-841f5fe4-a579-4718-a5f8-6bf6fb63f2cd" />

      </g>
<g
   transform="translate(178.898,134.765)"
   id="g713171"
   style="stroke-linecap:butt;stroke-linejoin:round"><path
   style="stroke:none;stroke-linecap:butt;stroke-linejoin:round"
   d="M 6.109375,-6.03125 C 6.109375,-6.390625 6.125,-6.5 6.890625,-6.5 h 0.25 v -0.3125 c -0.359375,0.03125 -1.09375,0.03125 -1.46875,0.03125 -0.375,0 -1.125,0 -1.46875,-0.03125 V -6.5 H 4.4375 c 0.765625,0 0.78125,0.109375 0.78125,0.46875 v 2.328125 H 2.25 V -6.03125 C 2.25,-6.390625 2.265625,-6.5 3.03125,-6.5 h 0.234375 v -0.3125 c -0.34375,0.03125 -1.078125,0.03125 -1.46875,0.03125 -0.375,0 -1.125,0 -1.46875,-0.03125 V -6.5 H 0.5625 c 0.765625,0 0.796875,0.109375 0.796875,0.46875 v 5.25 c 0,0.359375 -0.03125,0.46875 -0.796875,0.46875 H 0.328125 V 0 c 0.34375,-0.03125 1.09375,-0.03125 1.46875,-0.03125 0.375,0 1.125,0 1.46875,0.03125 V -0.3125 H 3.03125 C 2.265625,-0.3125 2.25,-0.421875 2.25,-0.78125 v -2.609375 h 2.96875 v 2.609375 c 0,0.359375 -0.015625,0.46875 -0.78125,0.46875 H 4.203125 V 0 c 0.34375,-0.03125 1.078125,-0.03125 1.453125,-0.03125 0.390625,0 1.125,0 1.484375,0.03125 v -0.3125 h -0.25 c -0.765625,0 -0.78125,-0.109375 -0.78125,-0.46875 z m 0,0"
   id="id-cd2767f3-280b-42d7-8249-c8245e062ccd" />

      </g>
<g
   transform="translate(186.37,134.765)"
   id="g713174"
   style="stroke-linecap:butt;stroke-linejoin:round"><path
   style="stroke:none;stroke-linecap:butt;stroke-linejoin:round"
   d="m 3.890625,-4 c 0.09375,-0.109375 0.09375,-0.125 0.09375,-0.171875 0,-0.125 -0.09375,-0.125 -0.265625,-0.125 H 0.53125 L 0.421875,-2.6875 h 0.25 c 0.0625,-1.015625 0.25,-1.390625 1.34375,-1.390625 H 3.15625 L 0.375,-0.3125 C 0.28125,-0.203125 0.28125,-0.1875 0.28125,-0.140625 0.28125,0 0.34375,0 0.53125,0 H 3.828125 L 4,-1.859375 H 3.75 C 3.65625,-0.6875 3.453125,-0.25 2.296875,-0.25 h -1.1875 z m 0,0"
   id="id-156574f5-6972-4639-9af0-45a5680aae7f" />

      </g>
<g
   transform="translate(190.798,134.765)"
   id="g713177"
   style="stroke-linecap:butt;stroke-linejoin:round"><path
   style="stroke:none;stroke-linecap:butt;stroke-linejoin:round"
   d="m 2.875,-2.5 c 0,-0.765625 -0.109375,-1.96875 -0.65625,-3.109375 -0.59375,-1.21875 -1.453125,-1.875 -1.546875,-1.875 -0.0625,0 -0.109375,0.046875 -0.109375,0.109375 0,0.03125 0,0.046875 0.1875,0.234375 0.984375,0.984375 1.546875,2.5625 1.546875,4.640625 0,1.71875 -0.359375,3.46875 -1.59375,4.71875 C 0.5625,2.34375 0.5625,2.359375 0.5625,2.390625 0.5625,2.453125 0.609375,2.5 0.671875,2.5 0.765625,2.5 1.671875,1.8125 2.25,0.546875 2.765625,-0.546875 2.875,-1.65625 2.875,-2.5 Z m 0,0"
   id="id-dcf56eda-4a16-49b6-b701-e54b4a9b8a48" />

      </g>
</g>

  </g>

</g>
  <g
     transform="matrix(0,-2.2151854,2.2151854,0,-5.5379635e-4,175.57347)"
     ns14:version="1.8.1"
     ns14:texconverter="pdflatex"
     ns14:pdfconverter="inkscape"
     ns14:text="$1/T_1^{\\rm dd}$ (s$^{-1}$)"
     ns14:preamble="/home/pellet-mary/.config/inkscape/extensions/textext/default_packages.tex"
     ns14:scale="2.429784428979403"
     ns14:alignment="middle center"
     ns14:stroke-to-path="0"
     ns14:jacobian_sqrt="0.857174"
     id="g715307"
     style="stroke-linecap:butt;stroke-linejoin:round"><defs
   id="id-a149d3c3-3b06-41a8-9da1-30ec9989dd84">
    <g
   id="g734584">
      <symbol
   overflow="visible"
   id="symbol734534">
        <path
   style="stroke:none;stroke-width:0"
   d=""
   id="path734532" />

      </symbol>

      <symbol
   overflow="visible"
   id="symbol734538">
        <path
   style="stroke:none;stroke-width:0"
   d="m 2.9375,-6.375 c 0,-0.25 0,-0.265625 -0.234375,-0.265625 C 2.078125,-6 1.203125,-6 0.890625,-6 v 0.3125 c 0.203125,0 0.78125,0 1.296875,-0.265625 v 5.171875 c 0,0.359375 -0.03125,0.46875 -0.921875,0.46875 h -0.3125 V 0 c 0.34375,-0.03125 1.203125,-0.03125 1.609375,-0.03125 0.390625,0 1.265625,0 1.609375,0.03125 v -0.3125 h -0.3125 c -0.90625,0 -0.921875,-0.109375 -0.921875,-0.46875 z m 0,0"
   id="path734536" />

      </symbol>

      <symbol
   overflow="visible"
   id="symbol734542">
        <path
   style="stroke:none;stroke-width:0"
   d="m 3.296875,2.390625 c 0,-0.03125 0,-0.046875 -0.171875,-0.21875 C 1.890625,0.921875 1.5625,-0.96875 1.5625,-2.5 c 0,-1.734375 0.375,-3.46875 1.609375,-4.703125 0.125,-0.125 0.125,-0.140625 0.125,-0.171875 0,-0.078125 -0.03125,-0.109375 -0.09375,-0.109375 -0.109375,0 -1,0.6875 -1.59375,1.953125 -0.5,1.09375 -0.625,2.203125 -0.625,3.03125 0,0.78125 0.109375,1.984375 0.65625,3.125 C 2.25,1.84375 3.09375,2.5 3.203125,2.5 c 0.0625,0 0.09375,-0.03125 0.09375,-0.109375 z m 0,0"
   id="path734540" />

      </symbol>

      <symbol
   overflow="visible"
   id="symbol734546">
        <path
   style="stroke:none;stroke-width:0"
   d="m 2.078125,-1.9375 c 0.21875,0.046875 1.03125,0.203125 1.03125,0.921875 0,0.5 -0.34375,0.90625 -1.125,0.90625 -0.84375,0 -1.203125,-0.5625 -1.390625,-1.421875 C 0.5625,-1.65625 0.5625,-1.6875 0.453125,-1.6875 c -0.125,0 -0.125,0.0625 -0.125,0.234375 V -0.125 c 0,0.171875 0,0.234375 0.109375,0.234375 0.046875,0 0.0625,-0.015625 0.25,-0.203125 0.015625,-0.015625 0.015625,-0.03125 0.203125,-0.21875 0.4375,0.40625 0.890625,0.421875 1.09375,0.421875 1.140625,0 1.609375,-0.671875 1.609375,-1.390625 0,-0.515625 -0.296875,-0.828125 -0.421875,-0.9375 C 2.84375,-2.546875 2.453125,-2.625 2.03125,-2.703125 1.46875,-2.8125 0.8125,-2.9375 0.8125,-3.515625 c 0,-0.359375 0.25,-0.765625 1.109375,-0.765625 1.09375,0 1.15625,0.90625 1.171875,1.203125 0,0.09375 0.09375,0.09375 0.109375,0.09375 0.140625,0 0.140625,-0.046875 0.140625,-0.234375 v -1.015625 c 0,-0.15625 0,-0.234375 -0.109375,-0.234375 -0.046875,0 -0.078125,0 -0.203125,0.125 -0.03125,0.03125 -0.125,0.125 -0.171875,0.15625 -0.375,-0.28125 -0.78125,-0.28125 -0.9375,-0.28125 -1.21875,0 -1.59375,0.671875 -1.59375,1.234375 0,0.34375 0.15625,0.625 0.421875,0.84375 0.328125,0.25 0.609375,0.3125 1.328125,0.453125 z m 0,0"
   id="path734544" />

      </symbol>

      <symbol
   overflow="visible"
   id="symbol734550">
        <path
   style="stroke:none;stroke-width:0"
   d="m 2.875,-2.5 c 0,-0.765625 -0.109375,-1.96875 -0.65625,-3.109375 -0.59375,-1.21875 -1.453125,-1.875 -1.546875,-1.875 -0.0625,0 -0.109375,0.046875 -0.109375,0.109375 0,0.03125 0,0.046875 0.1875,0.234375 0.984375,0.984375 1.546875,2.5625 1.546875,4.640625 0,1.71875 -0.359375,3.46875 -1.59375,4.71875 C 0.5625,2.34375 0.5625,2.359375 0.5625,2.390625 0.5625,2.453125 0.609375,2.5 0.671875,2.5 0.765625,2.5 1.671875,1.8125 2.25,0.546875 2.765625,-0.546875 2.875,-1.65625 2.875,-2.5 Z m 0,0"
   id="path734548" />

      </symbol>

      <symbol
   overflow="visible"
   id="symbol734554">
        <path
   style="stroke:none;stroke-width:0"
   d=""
   id="path734552" />

      </symbol>

      <symbol
   overflow="visible"
   id="symbol734558">
        <path
   style="stroke:none;stroke-width:0"
   d="m 4.375,-7.09375 c 0.046875,-0.140625 0.046875,-0.171875 0.046875,-0.1875 0,-0.109375 -0.078125,-0.203125 -0.1875,-0.203125 -0.078125,0 -0.140625,0.03125 -0.171875,0.09375 l -3.46875,9.5 C 0.546875,2.25 0.546875,2.28125 0.546875,2.296875 0.546875,2.40625 0.640625,2.5 0.75,2.5 0.875,2.5 0.90625,2.421875 0.96875,2.25 Z m 0,0"
   id="path734556" />

      </symbol>

      <symbol
   overflow="visible"
   id="symbol734562">
        <path
   style="stroke:none;stroke-width:0"
   d="m 4.25,-6.046875 c 0.078125,-0.28125 0.109375,-0.34375 0.234375,-0.375 0.09375,-0.015625 0.421875,-0.015625 0.625,-0.015625 1.015625,0 1.453125,0.03125 1.453125,0.8125 0,0.15625 -0.03125,0.546875 -0.078125,0.796875 0,0.046875 -0.03125,0.15625 -0.03125,0.1875 0,0.0625 0.03125,0.140625 0.125,0.140625 0.109375,0 0.125,-0.078125 0.15625,-0.234375 L 7,-6.46875 C 7.015625,-6.515625 7.015625,-6.609375 7.015625,-6.640625 7.015625,-6.75 6.921875,-6.75 6.75,-6.75 H 1.21875 c -0.234375,0 -0.25,0.015625 -0.328125,0.203125 l -0.59375,1.75 c 0,0.015625 -0.0625,0.15625 -0.0625,0.1875 0,0.046875 0.0625,0.109375 0.125,0.109375 0.09375,0 0.109375,-0.0625 0.171875,-0.21875 C 1.0625,-6.265625 1.328125,-6.4375 2.796875,-6.4375 H 3.1875 c 0.28125,0 0.28125,0.03125 0.28125,0.125 0,0.046875 -0.03125,0.171875 -0.046875,0.203125 L 2.09375,-0.78125 C 2,-0.421875 1.96875,-0.3125 0.90625,-0.3125 c -0.359375,0 -0.421875,0 -0.421875,0.1875 C 0.484375,0 0.59375,0 0.65625,0 c 0.265625,0 0.546875,-0.015625 0.8125,-0.015625 0.28125,0 0.578125,-0.015625 0.859375,-0.015625 0.28125,0 0.546875,0.015625 0.828125,0.015625 C 3.4375,-0.015625 3.734375,0 4.015625,0 c 0.09375,0 0.21875,0 0.21875,-0.203125 0,-0.109375 -0.078125,-0.109375 -0.34375,-0.109375 -0.234375,0 -0.375,0 -0.625,-0.015625 -0.296875,-0.03125 -0.375,-0.0625 -0.375,-0.21875 0,-0.015625 0,-0.0625 0.046875,-0.203125 z m 0,0"
   id="path734560" />

      </symbol>

      <symbol
   overflow="visible"
   id="symbol734566">
        <path
   style="stroke:none;stroke-width:0"
   d=""
   id="path734564" />

      </symbol>

      <symbol
   overflow="visible"
   id="symbol734570">
        <path
   style="stroke:none;stroke-width:0"
   d="m 2.484375,-4.765625 v 0.25 C 2.953125,-4.515625 3,-4.453125 3,-4.125 v 1.453125 c -0.25,-0.25 -0.59375,-0.40625 -0.96875,-0.40625 -0.9375,0 -1.703125,0.703125 -1.703125,1.578125 0,0.875 0.734375,1.5625 1.609375,1.5625 0.578125,0 0.921875,-0.296875 1.03125,-0.421875 V 0.0625 L 4.046875,0 V -0.25 C 3.578125,-0.25 3.53125,-0.296875 3.53125,-0.640625 V -4.84375 Z m 0.484375,4.03125 C 2.796875,-0.40625 2.4375,-0.125 1.984375,-0.125 1.59375,-0.125 1.3125,-0.359375 1.171875,-0.5625 1.03125,-0.765625 0.953125,-1.046875 0.953125,-1.484375 c 0,-0.171875 0,-0.6875 0.28125,-1.015625 0.28125,-0.3125 0.625,-0.375 0.828125,-0.375 0.328125,0 0.640625,0.15625 0.828125,0.40625 0.078125,0.109375 0.078125,0.109375 0.078125,0.25 z m 0,0"
   id="path734568" />

      </symbol>

      <symbol
   overflow="visible"
   id="symbol734574">
        <path
   style="stroke:none;stroke-width:0"
   d="m 2.328125,-4.4375 c 0,-0.1875 0,-0.1875 -0.203125,-0.1875 -0.453125,0.4375 -1.078125,0.4375 -1.359375,0.4375 v 0.25 c 0.15625,0 0.625,0 1,-0.1875 v 3.546875 c 0,0.234375 0,0.328125 -0.6875,0.328125 H 0.8125 V 0 c 0.125,0 0.984375,-0.03125 1.234375,-0.03125 0.21875,0 1.09375,0.03125 1.25,0.03125 V -0.25 H 3.03125 c -0.703125,0 -0.703125,-0.09375 -0.703125,-0.328125 z m 0,0"
   id="path734572" />

      </symbol>

      <symbol
   overflow="visible"
   id="symbol734578">
        <path
   style="stroke:none;stroke-width:0"
   d=""
   id="path734576" />

      </symbol>

      <symbol
   overflow="visible"
   id="symbol734582">
        <path
   style="stroke:none;stroke-width:0"
   d="m 5.1875,-1.578125 c 0.109375,0 0.28125,0 0.28125,-0.15625 0,-0.1875 -0.171875,-0.1875 -0.28125,-0.1875 H 1.03125 c -0.109375,0 -0.28125,0 -0.28125,0.171875 0,0.171875 0.15625,0.171875 0.28125,0.171875 z m 0,0"
   id="path734580" />

      </symbol>

    </g>

  </defs>

  <g
   id="id-63f4acf7-aae6-49a9-9514-9cd5307e822f"
   transform="translate(-149.603,-126.305)"
   style="stroke-linecap:butt;stroke-linejoin:round">
    <g
   style="fill:#000000;fill-opacity:1;stroke-linecap:butt;stroke-linejoin:round"
   id="id-86923592-7373-418e-90e5-fa5e35ad132f">
      <g
   transform="translate(148.712,134.765)"
   id="g715266"
   style="stroke-linecap:butt;stroke-linejoin:round"><path
   style="stroke:none;stroke-width:0;stroke-linecap:butt;stroke-linejoin:round"
   d="m 2.9375,-6.375 c 0,-0.25 0,-0.265625 -0.234375,-0.265625 C 2.078125,-6 1.203125,-6 0.890625,-6 v 0.3125 c 0.203125,0 0.78125,0 1.296875,-0.265625 v 5.171875 c 0,0.359375 -0.03125,0.46875 -0.921875,0.46875 h -0.3125 V 0 c 0.34375,-0.03125 1.203125,-0.03125 1.609375,-0.03125 0.390625,0 1.265625,0 1.609375,0.03125 v -0.3125 h -0.3125 c -0.90625,0 -0.921875,-0.109375 -0.921875,-0.46875 z m 0,0"
   id="id-ae45cd88-8deb-4d95-8c9f-821fd7b6d38f" />

      </g>
</g>

    <g
   style="fill:#000000;fill-opacity:1;stroke-linecap:butt;stroke-linejoin:round"
   id="id-8bea7fe0-e573-4fcd-8e04-3ece8bf86e38">
      <g
   transform="translate(153.694,134.765)"
   id="g715270"
   style="stroke-linecap:butt;stroke-linejoin:round"><path
   style="stroke:none;stroke-width:0;stroke-linecap:butt;stroke-linejoin:round"
   d="m 4.375,-7.09375 c 0.046875,-0.140625 0.046875,-0.171875 0.046875,-0.1875 0,-0.109375 -0.078125,-0.203125 -0.1875,-0.203125 -0.078125,0 -0.140625,0.03125 -0.171875,0.09375 l -3.46875,9.5 C 0.546875,2.25 0.546875,2.28125 0.546875,2.296875 0.546875,2.40625 0.640625,2.5 0.75,2.5 0.875,2.5 0.90625,2.421875 0.96875,2.25 Z m 0,0"
   id="id-ad955beb-9e4e-43f1-8f41-38860f5e07da" />

      </g>
<g
   transform="translate(158.675,134.765)"
   id="g715273"
   style="stroke-linecap:butt;stroke-linejoin:round"><path
   style="stroke:none;stroke-width:0;stroke-linecap:butt;stroke-linejoin:round"
   d="m 4.25,-6.046875 c 0.078125,-0.28125 0.109375,-0.34375 0.234375,-0.375 0.09375,-0.015625 0.421875,-0.015625 0.625,-0.015625 1.015625,0 1.453125,0.03125 1.453125,0.8125 0,0.15625 -0.03125,0.546875 -0.078125,0.796875 0,0.046875 -0.03125,0.15625 -0.03125,0.1875 0,0.0625 0.03125,0.140625 0.125,0.140625 0.109375,0 0.125,-0.078125 0.15625,-0.234375 L 7,-6.46875 C 7.015625,-6.515625 7.015625,-6.609375 7.015625,-6.640625 7.015625,-6.75 6.921875,-6.75 6.75,-6.75 H 1.21875 c -0.234375,0 -0.25,0.015625 -0.328125,0.203125 l -0.59375,1.75 c 0,0.015625 -0.0625,0.15625 -0.0625,0.1875 0,0.046875 0.0625,0.109375 0.125,0.109375 0.09375,0 0.109375,-0.0625 0.171875,-0.21875 C 1.0625,-6.265625 1.328125,-6.4375 2.796875,-6.4375 H 3.1875 c 0.28125,0 0.28125,0.03125 0.28125,0.125 0,0.046875 -0.03125,0.171875 -0.046875,0.203125 L 2.09375,-0.78125 C 2,-0.421875 1.96875,-0.3125 0.90625,-0.3125 c -0.359375,0 -0.421875,0 -0.421875,0.1875 C 0.484375,0 0.59375,0 0.65625,0 c 0.265625,0 0.546875,-0.015625 0.8125,-0.015625 0.28125,0 0.578125,-0.015625 0.859375,-0.015625 0.28125,0 0.546875,0.015625 0.828125,0.015625 C 3.4375,-0.015625 3.734375,0 4.015625,0 c 0.09375,0 0.21875,0 0.21875,-0.203125 0,-0.109375 -0.078125,-0.109375 -0.34375,-0.109375 -0.234375,0 -0.375,0 -0.625,-0.015625 -0.296875,-0.03125 -0.375,-0.0625 -0.375,-0.21875 0,-0.015625 0,-0.0625 0.046875,-0.203125 z m 0,0"
   id="id-7cbbf4f3-f388-4547-9a85-46e66166f71e" />

      </g>
</g>

    <g
   style="fill:#000000;fill-opacity:1;stroke-linecap:butt;stroke-linejoin:round"
   id="id-357e0c6b-693d-4e3f-b9af-a4edb7010ac0">
      <g
   transform="translate(165.881,131.149)"
   id="g715277"
   style="stroke-linecap:butt;stroke-linejoin:round"><path
   style="stroke:none;stroke-width:0;stroke-linecap:butt;stroke-linejoin:round"
   d="m 2.484375,-4.765625 v 0.25 C 2.953125,-4.515625 3,-4.453125 3,-4.125 v 1.453125 c -0.25,-0.25 -0.59375,-0.40625 -0.96875,-0.40625 -0.9375,0 -1.703125,0.703125 -1.703125,1.578125 0,0.875 0.734375,1.5625 1.609375,1.5625 0.578125,0 0.921875,-0.296875 1.03125,-0.421875 V 0.0625 L 4.046875,0 V -0.25 C 3.578125,-0.25 3.53125,-0.296875 3.53125,-0.640625 V -4.84375 Z m 0.484375,4.03125 C 2.796875,-0.40625 2.4375,-0.125 1.984375,-0.125 1.59375,-0.125 1.3125,-0.359375 1.171875,-0.5625 1.03125,-0.765625 0.953125,-1.046875 0.953125,-1.484375 c 0,-0.171875 0,-0.6875 0.28125,-1.015625 0.28125,-0.3125 0.625,-0.375 0.828125,-0.375 0.328125,0 0.640625,0.15625 0.828125,0.40625 0.078125,0.109375 0.078125,0.109375 0.078125,0.25 z m 0,0"
   id="id-fbb256de-8357-4add-b1d8-c03f7dabf0a6" />

      </g>
<g
   transform="translate(170.281,131.149)"
   id="g715280"
   style="stroke-linecap:butt;stroke-linejoin:round"><path
   style="stroke:none;stroke-width:0;stroke-linecap:butt;stroke-linejoin:round"
   d="m 2.484375,-4.765625 v 0.25 C 2.953125,-4.515625 3,-4.453125 3,-4.125 v 1.453125 c -0.25,-0.25 -0.59375,-0.40625 -0.96875,-0.40625 -0.9375,0 -1.703125,0.703125 -1.703125,1.578125 0,0.875 0.734375,1.5625 1.609375,1.5625 0.578125,0 0.921875,-0.296875 1.03125,-0.421875 V 0.0625 L 4.046875,0 V -0.25 C 3.578125,-0.25 3.53125,-0.296875 3.53125,-0.640625 V -4.84375 Z m 0.484375,4.03125 C 2.796875,-0.40625 2.4375,-0.125 1.984375,-0.125 1.59375,-0.125 1.3125,-0.359375 1.171875,-0.5625 1.03125,-0.765625 0.953125,-1.046875 0.953125,-1.484375 c 0,-0.171875 0,-0.6875 0.28125,-1.015625 0.28125,-0.3125 0.625,-0.375 0.828125,-0.375 0.328125,0 0.640625,0.15625 0.828125,0.40625 0.078125,0.109375 0.078125,0.109375 0.078125,0.25 z m 0,0"
   id="id-ccd3f746-76a8-41dd-808b-204d0d4a2c93" />

      </g>
</g>

    <g
   style="fill:#000000;fill-opacity:1;stroke-linecap:butt;stroke-linejoin:round"
   id="id-ef946cb4-445b-430f-9f6c-01f1c224cd5d">
      <g
   transform="translate(164.497,137.237)"
   id="g715284"
   style="stroke-linecap:butt;stroke-linejoin:round"><path
   style="stroke:none;stroke-width:0;stroke-linecap:butt;stroke-linejoin:round"
   d="m 2.328125,-4.4375 c 0,-0.1875 0,-0.1875 -0.203125,-0.1875 -0.453125,0.4375 -1.078125,0.4375 -1.359375,0.4375 v 0.25 c 0.15625,0 0.625,0 1,-0.1875 v 3.546875 c 0,0.234375 0,0.328125 -0.6875,0.328125 H 0.8125 V 0 c 0.125,0 0.984375,-0.03125 1.234375,-0.03125 0.21875,0 1.09375,0.03125 1.25,0.03125 V -0.25 H 3.03125 c -0.703125,0 -0.703125,-0.09375 -0.703125,-0.328125 z m 0,0"
   id="id-d24e440f-a29d-42a8-bb2f-f2cb3dc9384a" />

      </g>
</g>

    <g
   style="fill:#000000;fill-opacity:1;stroke-linecap:butt;stroke-linejoin:round"
   id="id-b69de67a-2680-457a-b673-5069286d715a">
      <g
   transform="translate(178.5,134.765)"
   id="g715288"
   style="stroke-linecap:butt;stroke-linejoin:round"><path
   style="stroke:none;stroke-width:0;stroke-linecap:butt;stroke-linejoin:round"
   d="m 3.296875,2.390625 c 0,-0.03125 0,-0.046875 -0.171875,-0.21875 C 1.890625,0.921875 1.5625,-0.96875 1.5625,-2.5 c 0,-1.734375 0.375,-3.46875 1.609375,-4.703125 0.125,-0.125 0.125,-0.140625 0.125,-0.171875 0,-0.078125 -0.03125,-0.109375 -0.09375,-0.109375 -0.109375,0 -1,0.6875 -1.59375,1.953125 -0.5,1.09375 -0.625,2.203125 -0.625,3.03125 0,0.78125 0.109375,1.984375 0.65625,3.125 C 2.25,1.84375 3.09375,2.5 3.203125,2.5 c 0.0625,0 0.09375,-0.03125 0.09375,-0.109375 z m 0,0"
   id="id-9ce3f4c5-3554-4d3b-9e12-8ac1397ff7cc" />

      </g>
<g
   transform="translate(182.374,134.765)"
   id="g715291"
   style="stroke-linecap:butt;stroke-linejoin:round"><path
   style="stroke:none;stroke-width:0;stroke-linecap:butt;stroke-linejoin:round"
   d="m 2.078125,-1.9375 c 0.21875,0.046875 1.03125,0.203125 1.03125,0.921875 0,0.5 -0.34375,0.90625 -1.125,0.90625 -0.84375,0 -1.203125,-0.5625 -1.390625,-1.421875 C 0.5625,-1.65625 0.5625,-1.6875 0.453125,-1.6875 c -0.125,0 -0.125,0.0625 -0.125,0.234375 V -0.125 c 0,0.171875 0,0.234375 0.109375,0.234375 0.046875,0 0.0625,-0.015625 0.25,-0.203125 0.015625,-0.015625 0.015625,-0.03125 0.203125,-0.21875 0.4375,0.40625 0.890625,0.421875 1.09375,0.421875 1.140625,0 1.609375,-0.671875 1.609375,-1.390625 0,-0.515625 -0.296875,-0.828125 -0.421875,-0.9375 C 2.84375,-2.546875 2.453125,-2.625 2.03125,-2.703125 1.46875,-2.8125 0.8125,-2.9375 0.8125,-3.515625 c 0,-0.359375 0.25,-0.765625 1.109375,-0.765625 1.09375,0 1.15625,0.90625 1.171875,1.203125 0,0.09375 0.09375,0.09375 0.109375,0.09375 0.140625,0 0.140625,-0.046875 0.140625,-0.234375 v -1.015625 c 0,-0.15625 0,-0.234375 -0.109375,-0.234375 -0.046875,0 -0.078125,0 -0.203125,0.125 -0.03125,0.03125 -0.125,0.125 -0.171875,0.15625 -0.375,-0.28125 -0.78125,-0.28125 -0.9375,-0.28125 -1.21875,0 -1.59375,0.671875 -1.59375,1.234375 0,0.34375 0.15625,0.625 0.421875,0.84375 0.328125,0.25 0.609375,0.3125 1.328125,0.453125 z m 0,0"
   id="id-f2fdcfa4-6ba5-46cf-b92c-8f82d3bc9f7c" />

      </g>
</g>

    <g
   style="fill:#000000;fill-opacity:1;stroke-linecap:butt;stroke-linejoin:round"
   id="id-e6902097-098e-4b64-9ded-acb6d6602832">
      <g
   transform="translate(186.304,131.149)"
   id="g715295"
   style="stroke-linecap:butt;stroke-linejoin:round"><path
   style="stroke:none;stroke-width:0;stroke-linecap:butt;stroke-linejoin:round"
   d="m 5.1875,-1.578125 c 0.109375,0 0.28125,0 0.28125,-0.15625 0,-0.1875 -0.171875,-0.1875 -0.28125,-0.1875 H 1.03125 c -0.109375,0 -0.28125,0 -0.28125,0.171875 0,0.171875 0.15625,0.171875 0.28125,0.171875 z m 0,0"
   id="id-c3d52ebc-b957-4219-9bb4-79603bf14b2a" />

      </g>
</g>

    <g
   style="fill:#000000;fill-opacity:1;stroke-linecap:butt;stroke-linejoin:round"
   id="id-ade3ea7b-80e2-4d5a-a75d-b90ce2c788c3">
      <g
   transform="translate(192.531,131.149)"
   id="g715299"
   style="stroke-linecap:butt;stroke-linejoin:round"><path
   style="stroke:none;stroke-width:0;stroke-linecap:butt;stroke-linejoin:round"
   d="m 2.328125,-4.4375 c 0,-0.1875 0,-0.1875 -0.203125,-0.1875 -0.453125,0.4375 -1.078125,0.4375 -1.359375,0.4375 v 0.25 c 0.15625,0 0.625,0 1,-0.1875 v 3.546875 c 0,0.234375 0,0.328125 -0.6875,0.328125 H 0.8125 V 0 c 0.125,0 0.984375,-0.03125 1.234375,-0.03125 0.21875,0 1.09375,0.03125 1.25,0.03125 V -0.25 H 3.03125 c -0.703125,0 -0.703125,-0.09375 -0.703125,-0.328125 z m 0,0"
   id="id-28a05bdc-8b91-44df-a038-4797fdf41046" />

      </g>
</g>

    <g
   style="fill:#000000;fill-opacity:1;stroke-linecap:butt;stroke-linejoin:round"
   id="id-7e173380-a728-4aa1-9ea2-ac925c39f8f0">
      <g
   transform="translate(197,134.765)"
   id="g715303"
   style="stroke-linecap:butt;stroke-linejoin:round"><path
   style="stroke:none;stroke-width:0;stroke-linecap:butt;stroke-linejoin:round"
   d="m 2.875,-2.5 c 0,-0.765625 -0.109375,-1.96875 -0.65625,-3.109375 -0.59375,-1.21875 -1.453125,-1.875 -1.546875,-1.875 -0.0625,0 -0.109375,0.046875 -0.109375,0.109375 0,0.03125 0,0.046875 0.1875,0.234375 0.984375,0.984375 1.546875,2.5625 1.546875,4.640625 0,1.71875 -0.359375,3.46875 -1.59375,4.71875 C 0.5625,2.34375 0.5625,2.359375 0.5625,2.390625 0.5625,2.453125 0.609375,2.5 0.671875,2.5 0.765625,2.5 1.671875,1.8125 2.25,0.546875 2.765625,-0.546875 2.875,-1.65625 2.875,-2.5 Z m 0,0"
   id="id-a1328148-9554-453d-b302-3431965e62fd" />

      </g>
</g>

  </g>

</g>
</svg>
