<?xml version="1.0" encoding="utf-8" standalone="no"?>
<!DOCTYPE svg PUBLIC "-//W3C//DTD SVG 1.1//EN"
  "http://www.w3.org/Graphics/SVG/1.1/DTD/svg11.dtd">
<svg xmlns:xlink="http://www.w3.org/1999/xlink" width="288pt" height="216pt" viewBox="0 0 288 216" xmlns="http://www.w3.org/2000/svg" version="1.1">
 <metadata>
  <rdf:RDF xmlns:dc="http://purl.org/dc/elements/1.1/" xmlns:cc="http://creativecommons.org/ns#" xmlns:rdf="http://www.w3.org/1999/02/22-rdf-syntax-ns#">
   <cc:Work>
    <dc:type rdf:resource="http://purl.org/dc/dcmitype/StillImage"/>
    <dc:date>2022-08-09T18:45:05.180381</dc:date>
    <dc:format>image/svg+xml</dc:format>
    <dc:creator>
     <cc:Agent>
      <dc:title>Matplotlib v3.5.1, https://matplotlib.org/</dc:title>
     </cc:Agent>
    </dc:creator>
   </cc:Work>
  </rdf:RDF>
 </metadata>
 <defs>
  <style type="text/css">*{stroke-linejoin: round; stroke-linecap: butt}</style>
 </defs>
 <g id="figure_1">
  <g id="patch_1">
   <path d="M 0 216 
L 288 216 
L 288 0 
L 0 0 
z
" style="fill: #ffffff"/>
  </g>
  <g id="axes_1">
   <g id="patch_2">
    <path d="M 36 192.24 
L 259.2 192.24 
L 259.2 25.92 
L 36 25.92 
z
" style="fill: #ffffff"/>
   </g>
   <g id="matplotlib.axis_1">
    <g id="xtick_1">
     <g id="line2d_1">
      <defs>
       <path id="me3f28dccfa" d="M 0 0 
L 0 3.5 
" style="stroke: #000000; stroke-width: 0.8"/>
      </defs>
      <g>
       <use xlink:href="#me3f28dccfa" x="46.145455" y="192.24" style="stroke: #000000; stroke-width: 0.8"/>
      </g>
     </g>
     <g id="text_1">
      <!-- 2700 -->
      <g transform="translate(29.602955 209.117969)scale(0.13 -0.13)">
       <defs>
        <path id="DejaVuSans-32" d="M 1228 531 
L 3431 531 
L 3431 0 
L 469 0 
L 469 531 
Q 828 903 1448 1529 
Q 2069 2156 2228 2338 
Q 2531 2678 2651 2914 
Q 2772 3150 2772 3378 
Q 2772 3750 2511 3984 
Q 2250 4219 1831 4219 
Q 1534 4219 1204 4116 
Q 875 4013 500 3803 
L 500 4441 
Q 881 4594 1212 4672 
Q 1544 4750 1819 4750 
Q 2544 4750 2975 4387 
Q 3406 4025 3406 3419 
Q 3406 3131 3298 2873 
Q 3191 2616 2906 2266 
Q 2828 2175 2409 1742 
Q 1991 1309 1228 531 
z
" transform="scale(0.015625)"/>
        <path id="DejaVuSans-37" d="M 525 4666 
L 3525 4666 
L 3525 4397 
L 1831 0 
L 1172 0 
L 2766 4134 
L 525 4134 
L 525 4666 
z
" transform="scale(0.015625)"/>
        <path id="DejaVuSans-30" d="M 2034 4250 
Q 1547 4250 1301 3770 
Q 1056 3291 1056 2328 
Q 1056 1369 1301 889 
Q 1547 409 2034 409 
Q 2525 409 2770 889 
Q 3016 1369 3016 2328 
Q 3016 3291 2770 3770 
Q 2525 4250 2034 4250 
z
M 2034 4750 
Q 2819 4750 3233 4129 
Q 3647 3509 3647 2328 
Q 3647 1150 3233 529 
Q 2819 -91 2034 -91 
Q 1250 -91 836 529 
Q 422 1150 422 2328 
Q 422 3509 836 4129 
Q 1250 4750 2034 4750 
z
" transform="scale(0.015625)"/>
       </defs>
       <use xlink:href="#DejaVuSans-32"/>
       <use xlink:href="#DejaVuSans-37" x="63.623047"/>
       <use xlink:href="#DejaVuSans-30" x="127.246094"/>
       <use xlink:href="#DejaVuSans-30" x="190.869141"/>
      </g>
     </g>
    </g>
    <g id="xtick_2">
     <g id="line2d_2">
      <g>
       <use xlink:href="#me3f28dccfa" x="96.872727" y="192.24" style="stroke: #000000; stroke-width: 0.8"/>
      </g>
     </g>
     <g id="text_2">
      <!-- 2800 -->
      <g transform="translate(80.330227 209.117969)scale(0.13 -0.13)">
       <defs>
        <path id="DejaVuSans-38" d="M 2034 2216 
Q 1584 2216 1326 1975 
Q 1069 1734 1069 1313 
Q 1069 891 1326 650 
Q 1584 409 2034 409 
Q 2484 409 2743 651 
Q 3003 894 3003 1313 
Q 3003 1734 2745 1975 
Q 2488 2216 2034 2216 
z
M 1403 2484 
Q 997 2584 770 2862 
Q 544 3141 544 3541 
Q 544 4100 942 4425 
Q 1341 4750 2034 4750 
Q 2731 4750 3128 4425 
Q 3525 4100 3525 3541 
Q 3525 3141 3298 2862 
Q 3072 2584 2669 2484 
Q 3125 2378 3379 2068 
Q 3634 1759 3634 1313 
Q 3634 634 3220 271 
Q 2806 -91 2034 -91 
Q 1263 -91 848 271 
Q 434 634 434 1313 
Q 434 1759 690 2068 
Q 947 2378 1403 2484 
z
M 1172 3481 
Q 1172 3119 1398 2916 
Q 1625 2713 2034 2713 
Q 2441 2713 2670 2916 
Q 2900 3119 2900 3481 
Q 2900 3844 2670 4047 
Q 2441 4250 2034 4250 
Q 1625 4250 1398 4047 
Q 1172 3844 1172 3481 
z
" transform="scale(0.015625)"/>
       </defs>
       <use xlink:href="#DejaVuSans-32"/>
       <use xlink:href="#DejaVuSans-38" x="63.623047"/>
       <use xlink:href="#DejaVuSans-30" x="127.246094"/>
       <use xlink:href="#DejaVuSans-30" x="190.869141"/>
      </g>
     </g>
    </g>
    <g id="xtick_3">
     <g id="line2d_3">
      <g>
       <use xlink:href="#me3f28dccfa" x="147.6" y="192.24" style="stroke: #000000; stroke-width: 0.8"/>
      </g>
     </g>
     <g id="text_3">
      <!-- 2900 -->
      <g transform="translate(131.0575 209.117969)scale(0.13 -0.13)">
       <defs>
        <path id="DejaVuSans-39" d="M 703 97 
L 703 672 
Q 941 559 1184 500 
Q 1428 441 1663 441 
Q 2288 441 2617 861 
Q 2947 1281 2994 2138 
Q 2813 1869 2534 1725 
Q 2256 1581 1919 1581 
Q 1219 1581 811 2004 
Q 403 2428 403 3163 
Q 403 3881 828 4315 
Q 1253 4750 1959 4750 
Q 2769 4750 3195 4129 
Q 3622 3509 3622 2328 
Q 3622 1225 3098 567 
Q 2575 -91 1691 -91 
Q 1453 -91 1209 -44 
Q 966 3 703 97 
z
M 1959 2075 
Q 2384 2075 2632 2365 
Q 2881 2656 2881 3163 
Q 2881 3666 2632 3958 
Q 2384 4250 1959 4250 
Q 1534 4250 1286 3958 
Q 1038 3666 1038 3163 
Q 1038 2656 1286 2365 
Q 1534 2075 1959 2075 
z
" transform="scale(0.015625)"/>
       </defs>
       <use xlink:href="#DejaVuSans-32"/>
       <use xlink:href="#DejaVuSans-39" x="63.623047"/>
       <use xlink:href="#DejaVuSans-30" x="127.246094"/>
       <use xlink:href="#DejaVuSans-30" x="190.869141"/>
      </g>
     </g>
    </g>
    <g id="xtick_4">
     <g id="line2d_4">
      <g>
       <use xlink:href="#me3f28dccfa" x="198.327273" y="192.24" style="stroke: #000000; stroke-width: 0.8"/>
      </g>
     </g>
     <g id="text_4">
      <!-- 3000 -->
      <g transform="translate(181.784773 209.117969)scale(0.13 -0.13)">
       <defs>
        <path id="DejaVuSans-33" d="M 2597 2516 
Q 3050 2419 3304 2112 
Q 3559 1806 3559 1356 
Q 3559 666 3084 287 
Q 2609 -91 1734 -91 
Q 1441 -91 1130 -33 
Q 819 25 488 141 
L 488 750 
Q 750 597 1062 519 
Q 1375 441 1716 441 
Q 2309 441 2620 675 
Q 2931 909 2931 1356 
Q 2931 1769 2642 2001 
Q 2353 2234 1838 2234 
L 1294 2234 
L 1294 2753 
L 1863 2753 
Q 2328 2753 2575 2939 
Q 2822 3125 2822 3475 
Q 2822 3834 2567 4026 
Q 2313 4219 1838 4219 
Q 1578 4219 1281 4162 
Q 984 4106 628 3988 
L 628 4550 
Q 988 4650 1302 4700 
Q 1616 4750 1894 4750 
Q 2613 4750 3031 4423 
Q 3450 4097 3450 3541 
Q 3450 3153 3228 2886 
Q 3006 2619 2597 2516 
z
" transform="scale(0.015625)"/>
       </defs>
       <use xlink:href="#DejaVuSans-33"/>
       <use xlink:href="#DejaVuSans-30" x="63.623047"/>
       <use xlink:href="#DejaVuSans-30" x="127.246094"/>
       <use xlink:href="#DejaVuSans-30" x="190.869141"/>
      </g>
     </g>
    </g>
    <g id="xtick_5">
     <g id="line2d_5">
      <g>
       <use xlink:href="#me3f28dccfa" x="249.054545" y="192.24" style="stroke: #000000; stroke-width: 0.8"/>
      </g>
     </g>
     <g id="text_5">
      <!-- 3100 -->
      <g transform="translate(232.512045 209.117969)scale(0.13 -0.13)">
       <defs>
        <path id="DejaVuSans-31" d="M 794 531 
L 1825 531 
L 1825 4091 
L 703 3866 
L 703 4441 
L 1819 4666 
L 2450 4666 
L 2450 531 
L 3481 531 
L 3481 0 
L 794 0 
L 794 531 
z
" transform="scale(0.015625)"/>
       </defs>
       <use xlink:href="#DejaVuSans-33"/>
       <use xlink:href="#DejaVuSans-31" x="63.623047"/>
       <use xlink:href="#DejaVuSans-30" x="127.246094"/>
       <use xlink:href="#DejaVuSans-30" x="190.869141"/>
      </g>
     </g>
    </g>
   </g>
   <g id="matplotlib.axis_2">
    <g id="ytick_1">
     <g id="line2d_6">
      <defs>
       <path id="m81877543b5" d="M 0 0 
L -3.5 0 
" style="stroke: #000000; stroke-width: 0.8"/>
      </defs>
      <g>
       <use xlink:href="#m81877543b5" x="36" y="184.637927" style="stroke: #000000; stroke-width: 0.8"/>
      </g>
     </g>
     <g id="text_6">
      <!-- 0.0 -->
      <g transform="translate(8.325937 189.576911)scale(0.13 -0.13)">
       <defs>
        <path id="DejaVuSans-2e" d="M 684 794 
L 1344 794 
L 1344 0 
L 684 0 
L 684 794 
z
" transform="scale(0.015625)"/>
       </defs>
       <use xlink:href="#DejaVuSans-30"/>
       <use xlink:href="#DejaVuSans-2e" x="63.623047"/>
       <use xlink:href="#DejaVuSans-30" x="95.410156"/>
      </g>
     </g>
    </g>
    <g id="ytick_2">
     <g id="line2d_7">
      <g>
       <use xlink:href="#m81877543b5" x="36" y="154.406341" style="stroke: #000000; stroke-width: 0.8"/>
      </g>
     </g>
     <g id="text_7">
      <!-- 0.2 -->
      <g transform="translate(8.325937 159.345326)scale(0.13 -0.13)">
       <use xlink:href="#DejaVuSans-30"/>
       <use xlink:href="#DejaVuSans-2e" x="63.623047"/>
       <use xlink:href="#DejaVuSans-32" x="95.410156"/>
      </g>
     </g>
    </g>
    <g id="ytick_3">
     <g id="line2d_8">
      <g>
       <use xlink:href="#m81877543b5" x="36" y="124.174756" style="stroke: #000000; stroke-width: 0.8"/>
      </g>
     </g>
     <g id="text_8">
      <!-- 0.4 -->
      <g transform="translate(8.325937 129.11374)scale(0.13 -0.13)">
       <defs>
        <path id="DejaVuSans-34" d="M 2419 4116 
L 825 1625 
L 2419 1625 
L 2419 4116 
z
M 2253 4666 
L 3047 4666 
L 3047 1625 
L 3713 1625 
L 3713 1100 
L 3047 1100 
L 3047 0 
L 2419 0 
L 2419 1100 
L 313 1100 
L 313 1709 
L 2253 4666 
z
" transform="scale(0.015625)"/>
       </defs>
       <use xlink:href="#DejaVuSans-30"/>
       <use xlink:href="#DejaVuSans-2e" x="63.623047"/>
       <use xlink:href="#DejaVuSans-34" x="95.410156"/>
      </g>
     </g>
    </g>
    <g id="ytick_4">
     <g id="line2d_9">
      <g>
       <use xlink:href="#m81877543b5" x="36" y="93.943171" style="stroke: #000000; stroke-width: 0.8"/>
      </g>
     </g>
     <g id="text_9">
      <!-- 0.6 -->
      <g transform="translate(8.325937 98.882155)scale(0.13 -0.13)">
       <defs>
        <path id="DejaVuSans-36" d="M 2113 2584 
Q 1688 2584 1439 2293 
Q 1191 2003 1191 1497 
Q 1191 994 1439 701 
Q 1688 409 2113 409 
Q 2538 409 2786 701 
Q 3034 994 3034 1497 
Q 3034 2003 2786 2293 
Q 2538 2584 2113 2584 
z
M 3366 4563 
L 3366 3988 
Q 3128 4100 2886 4159 
Q 2644 4219 2406 4219 
Q 1781 4219 1451 3797 
Q 1122 3375 1075 2522 
Q 1259 2794 1537 2939 
Q 1816 3084 2150 3084 
Q 2853 3084 3261 2657 
Q 3669 2231 3669 1497 
Q 3669 778 3244 343 
Q 2819 -91 2113 -91 
Q 1303 -91 875 529 
Q 447 1150 447 2328 
Q 447 3434 972 4092 
Q 1497 4750 2381 4750 
Q 2619 4750 2861 4703 
Q 3103 4656 3366 4563 
z
" transform="scale(0.015625)"/>
       </defs>
       <use xlink:href="#DejaVuSans-30"/>
       <use xlink:href="#DejaVuSans-2e" x="63.623047"/>
       <use xlink:href="#DejaVuSans-36" x="95.410156"/>
      </g>
     </g>
    </g>
    <g id="ytick_5">
     <g id="line2d_10">
      <g>
       <use xlink:href="#m81877543b5" x="36" y="63.711585" style="stroke: #000000; stroke-width: 0.8"/>
      </g>
     </g>
     <g id="text_10">
      <!-- 0.8 -->
      <g transform="translate(8.325937 68.65057)scale(0.13 -0.13)">
       <use xlink:href="#DejaVuSans-30"/>
       <use xlink:href="#DejaVuSans-2e" x="63.623047"/>
       <use xlink:href="#DejaVuSans-38" x="95.410156"/>
      </g>
     </g>
    </g>
    <g id="ytick_6">
     <g id="line2d_11">
      <g>
       <use xlink:href="#m81877543b5" x="36" y="33.48" style="stroke: #000000; stroke-width: 0.8"/>
      </g>
     </g>
     <g id="text_11">
      <!-- 1.0 -->
      <g transform="translate(8.325937 38.418984)scale(0.13 -0.13)">
       <use xlink:href="#DejaVuSans-31"/>
       <use xlink:href="#DejaVuSans-2e" x="63.623047"/>
       <use xlink:href="#DejaVuSans-30" x="95.410156"/>
      </g>
     </g>
    </g>
   </g>
   <g id="line2d_12">
    <path d="M 46.145455 184.57834 
L 46.551273 184.476523 
L 48.580364 184.558824 
L 49.392 184.489053 
L 50.203636 184.478585 
L 50.609455 184.506703 
L 51.015273 184.392545 
L 51.421091 184.538566 
L 53.044364 184.561356 
L 54.261818 184.453086 
L 55.073455 184.500747 
L 57.102545 184.579677 
L 58.32 184.586366 
L 59.537455 184.496688 
L 60.754909 184.532705 
L 62.378182 184.479061 
L 63.595636 184.409885 
L 64.813091 184.540062 
L 69.277091 184.403535 
L 70.088727 184.419585 
L 70.494545 184.567326 
L 70.900364 184.593454 
L 71.306182 184.492344 
L 72.117818 184.637235 
L 72.523636 184.497744 
L 73.335273 184.508318 
L 73.741091 184.628482 
L 74.146909 184.498587 
L 76.987636 184.58379 
L 77.393455 184.498913 
L 78.205091 184.599898 
L 79.828364 184.504013 
L 80.234182 184.521438 
L 80.64 184.311607 
L 81.451636 184.501258 
L 81.857455 184.410517 
L 82.669091 184.595896 
L 85.509818 184.465521 
L 86.321455 184.510157 
L 87.133091 184.560414 
L 87.944727 184.575249 
L 88.756364 184.398391 
L 89.162182 184.57272 
L 89.568 184.503342 
L 90.379636 184.642527 
L 91.597091 184.533016 
L 92.002909 184.457682 
L 92.814545 184.523193 
L 93.626182 184.595527 
L 94.437818 184.566095 
L 95.249455 184.455884 
L 95.655273 184.581682 
L 96.466909 184.450958 
L 97.278545 184.428878 
L 97.684364 184.30616 
L 98.496 184.268934 
L 98.901818 184.027557 
L 99.713455 183.85245 
L 100.525091 183.203229 
L 100.930909 182.69717 
L 102.96 178.110243 
L 103.365818 177.662312 
L 104.177455 177.386179 
L 104.989091 177.489733 
L 105.800727 178.642149 
L 107.018182 181.444533 
L 107.424 182.255253 
L 107.829818 182.713001 
L 109.047273 183.347311 
L 109.858909 183.616452 
L 110.670545 183.889521 
L 111.076364 183.834763 
L 111.482182 183.635665 
L 112.293818 183.773179 
L 114.728727 183.403257 
L 115.134545 183.696296 
L 115.540364 183.677003 
L 116.352 183.334972 
L 116.757818 183.356238 
L 117.569455 182.91948 
L 119.192727 182.365802 
L 120.004364 181.937261 
L 120.410182 181.853796 
L 120.816 181.550434 
L 122.033455 179.873408 
L 123.250909 177.455306 
L 123.656727 176.182959 
L 124.062545 174.445164 
L 124.874182 169.521462 
L 125.685818 161.337455 
L 126.091636 156.239614 
L 126.903273 140.194619 
L 128.120727 109.638402 
L 128.932364 82.712222 
L 130.149818 39.386144 
L 130.555636 33.771749 
L 130.961455 38.065153 
L 131.367273 53.203389 
L 132.178909 105.448671 
L 132.584727 118.300464 
L 132.990545 108.727773 
L 134.208 39.716113 
L 134.613818 33.48 
L 135.019636 37.387904 
L 135.425455 48.363206 
L 137.048727 106.092177 
L 138.266182 138.088834 
L 139.077818 153.967135 
L 139.889455 164.845861 
L 140.295273 168.970458 
L 141.106909 173.732332 
L 141.918545 177.198498 
L 142.730182 179.049027 
L 143.947636 180.734861 
L 144.759273 181.171194 
L 145.570909 182.095169 
L 145.976727 182.14268 
L 148.005818 182.989164 
L 148.411636 182.968462 
L 150.034909 183.404269 
L 151.658182 183.366588 
L 152.064 183.567705 
L 152.469818 183.526529 
L 152.875636 183.652257 
L 153.281455 183.485532 
L 154.093091 183.690802 
L 154.498909 183.509648 
L 155.310545 183.671825 
L 156.933818 184.026509 
L 157.745455 184.12263 
L 158.151273 184.040418 
L 159.774545 184.324395 
L 160.180364 184.224613 
L 160.992 184.378144 
L 161.397818 184.195361 
L 162.209455 184.316826 
L 162.615273 184.06535 
L 163.832727 183.953896 
L 164.238545 183.956774 
L 164.644364 183.698698 
L 165.456 182.620919 
L 167.079273 179.60227 
L 167.485091 179.098815 
L 167.890909 178.961113 
L 168.296727 178.651485 
L 168.702545 178.617234 
L 169.92 180.00116 
L 170.325818 180.675376 
L 171.137455 182.343409 
L 171.949091 183.337506 
L 173.166545 184.294249 
L 173.572364 184.249217 
L 174.789818 184.49629 
L 176.818909 184.371254 
L 177.224727 184.560917 
L 178.036364 184.446091 
L 178.848 184.308905 
L 180.065455 184.499363 
L 180.471273 184.370633 
L 180.877091 184.486866 
L 181.688727 184.479177 
L 182.906182 184.536276 
L 183.717818 184.333313 
L 184.123636 184.49355 
L 184.935273 184.37594 
L 185.341091 184.593386 
L 185.746909 184.535811 
L 186.152727 184.671349 
L 186.964364 184.549672 
L 187.370182 184.607101 
L 187.776 184.44988 
L 197.515636 184.553711 
L 198.733091 184.45508 
L 199.950545 184.624335 
L 200.356364 184.480827 
L 200.762182 184.557906 
L 201.168 184.502516 
L 201.573818 184.60836 
L 207.255273 184.422419 
L 207.661091 184.526329 
L 208.472727 184.504441 
L 209.690182 184.586497 
L 210.501818 184.544988 
L 212.125091 184.603004 
L 213.748364 184.506816 
L 214.154182 184.591031 
L 214.965818 184.526282 
L 216.183273 184.494432 
L 218.212364 184.467382 
L 219.024 184.625305 
L 221.053091 184.551932 
L 221.864727 184.542927 
L 222.676364 184.397134 
L 223.488 184.587636 
L 223.893818 184.435009 
L 224.299636 184.526898 
L 225.517091 184.368524 
L 227.546182 184.554756 
L 227.952 184.436643 
L 228.357818 184.562258 
L 228.763636 184.491036 
L 229.169455 184.537359 
L 229.981091 184.499911 
L 230.386909 184.588572 
L 230.792727 184.543156 
L 231.198545 184.616038 
L 232.010182 184.527191 
L 234.445091 184.576285 
L 235.256727 184.592214 
L 235.662545 184.478553 
L 236.474182 184.48766 
L 236.88 184.397722 
L 238.909091 184.59538 
L 239.314909 184.429541 
L 239.720727 184.390163 
L 240.126545 184.482114 
L 241.344 184.479093 
L 242.561455 184.632932 
L 243.373091 184.429029 
L 244.184727 184.579597 
L 249.054545 184.528509 
L 249.054545 184.528509 
" clip-path="url(#p92311be419)" style="fill: none; stroke: #1f77b4; stroke-width: 1.5; stroke-linecap: square"/>
   </g>
   <g id="patch_3">
    <path d="M 36 192.24 
L 36 25.92 
" style="fill: none; stroke: #000000; stroke-width: 0.8; stroke-linejoin: miter; stroke-linecap: square"/>
   </g>
   <g id="patch_4">
    <path d="M 259.2 192.24 
L 259.2 25.92 
" style="fill: none; stroke: #000000; stroke-width: 0.8; stroke-linejoin: miter; stroke-linecap: square"/>
   </g>
   <g id="patch_5">
    <path d="M 36 192.24 
L 259.2 192.24 
" style="fill: none; stroke: #000000; stroke-width: 0.8; stroke-linejoin: miter; stroke-linecap: square"/>
   </g>
   <g id="patch_6">
    <path d="M 36 25.92 
L 259.2 25.92 
" style="fill: none; stroke: #000000; stroke-width: 0.8; stroke-linejoin: miter; stroke-linecap: square"/>
   </g>
  </g>
 </g>
 <defs>
  <clipPath id="p92311be419">
   <rect x="36" y="25.92" width="223.2" height="166.32"/>
  </clipPath>
 </defs>
</svg>
