<?xml version="1.0" encoding="utf-8" standalone="no"?>
<!DOCTYPE svg PUBLIC "-//W3C//DTD SVG 1.1//EN"
  "http://www.w3.org/Graphics/SVG/1.1/DTD/svg11.dtd">
<svg xmlns:xlink="http://www.w3.org/1999/xlink" width="324pt" height="216pt" viewBox="0 0 324 216" xmlns="http://www.w3.org/2000/svg" version="1.1">
 <metadata>
  <rdf:RDF xmlns:dc="http://purl.org/dc/elements/1.1/" xmlns:cc="http://creativecommons.org/ns#" xmlns:rdf="http://www.w3.org/1999/02/22-rdf-syntax-ns#">
   <cc:Work>
    <dc:type rdf:resource="http://purl.org/dc/dcmitype/StillImage"/>
    <dc:date>2022-10-07T16:35:36.835840</dc:date>
    <dc:format>image/svg+xml</dc:format>
    <dc:creator>
     <cc:Agent>
      <dc:title>Matplotlib v3.5.1, https://matplotlib.org/</dc:title>
     </cc:Agent>
    </dc:creator>
   </cc:Work>
  </rdf:RDF>
 </metadata>
 <defs>
  <style type="text/css">*{stroke-linejoin: round; stroke-linecap: butt}</style>
 </defs>
 <g id="figure_1">
  <g id="patch_1">
   <path d="M 0 216 
L 324 216 
L 324 0 
L 0 0 
z
" style="fill: #ffffff"/>
  </g>
  <g id="axes_1">
   <g id="patch_2">
    <path d="M 40.5 192.24 
L 291.6 192.24 
L 291.6 25.92 
L 40.5 25.92 
z
" style="fill: #ffffff"/>
   </g>
   <g id="matplotlib.axis_1">
    <g id="xtick_1">
     <g id="line2d_1">
      <defs>
       <path id="m95a0ebd468" d="M 0 0 
L 0 3.5 
" style="stroke: #000000; stroke-width: 0.8"/>
      </defs>
      <g>
       <use xlink:href="#m95a0ebd468" x="46.372586" y="192.24" style="stroke: #000000; stroke-width: 0.8"/>
      </g>
     </g>
     <g id="text_1">
      <!-- −50 -->
      <g transform="translate(29.488836 211.3975)scale(0.16 -0.16)">
       <defs>
        <path id="DejaVuSans-2212" d="M 678 2272 
L 4684 2272 
L 4684 1741 
L 678 1741 
L 678 2272 
z
" transform="scale(0.015625)"/>
        <path id="DejaVuSans-35" d="M 691 4666 
L 3169 4666 
L 3169 4134 
L 1269 4134 
L 1269 2991 
Q 1406 3038 1543 3061 
Q 1681 3084 1819 3084 
Q 2600 3084 3056 2656 
Q 3513 2228 3513 1497 
Q 3513 744 3044 326 
Q 2575 -91 1722 -91 
Q 1428 -91 1123 -41 
Q 819 9 494 109 
L 494 744 
Q 775 591 1075 516 
Q 1375 441 1709 441 
Q 2250 441 2565 725 
Q 2881 1009 2881 1497 
Q 2881 1984 2565 2268 
Q 2250 2553 1709 2553 
Q 1456 2553 1204 2497 
Q 953 2441 691 2322 
L 691 4666 
z
" transform="scale(0.015625)"/>
        <path id="DejaVuSans-30" d="M 2034 4250 
Q 1547 4250 1301 3770 
Q 1056 3291 1056 2328 
Q 1056 1369 1301 889 
Q 1547 409 2034 409 
Q 2525 409 2770 889 
Q 3016 1369 3016 2328 
Q 3016 3291 2770 3770 
Q 2525 4250 2034 4250 
z
M 2034 4750 
Q 2819 4750 3233 4129 
Q 3647 3509 3647 2328 
Q 3647 1150 3233 529 
Q 2819 -91 2034 -91 
Q 1250 -91 836 529 
Q 422 1150 422 2328 
Q 422 3509 836 4129 
Q 1250 4750 2034 4750 
z
" transform="scale(0.015625)"/>
       </defs>
       <use xlink:href="#DejaVuSans-2212"/>
       <use xlink:href="#DejaVuSans-35" x="83.789062"/>
       <use xlink:href="#DejaVuSans-30" x="147.412109"/>
      </g>
     </g>
    </g>
    <g id="xtick_2">
     <g id="line2d_2">
      <g>
       <use xlink:href="#m95a0ebd468" x="107.099068" y="192.24" style="stroke: #000000; stroke-width: 0.8"/>
      </g>
     </g>
     <g id="text_2">
      <!-- −25 -->
      <g transform="translate(90.215318 211.3975)scale(0.16 -0.16)">
       <defs>
        <path id="DejaVuSans-32" d="M 1228 531 
L 3431 531 
L 3431 0 
L 469 0 
L 469 531 
Q 828 903 1448 1529 
Q 2069 2156 2228 2338 
Q 2531 2678 2651 2914 
Q 2772 3150 2772 3378 
Q 2772 3750 2511 3984 
Q 2250 4219 1831 4219 
Q 1534 4219 1204 4116 
Q 875 4013 500 3803 
L 500 4441 
Q 881 4594 1212 4672 
Q 1544 4750 1819 4750 
Q 2544 4750 2975 4387 
Q 3406 4025 3406 3419 
Q 3406 3131 3298 2873 
Q 3191 2616 2906 2266 
Q 2828 2175 2409 1742 
Q 1991 1309 1228 531 
z
" transform="scale(0.015625)"/>
       </defs>
       <use xlink:href="#DejaVuSans-2212"/>
       <use xlink:href="#DejaVuSans-32" x="83.789062"/>
       <use xlink:href="#DejaVuSans-35" x="147.412109"/>
      </g>
     </g>
    </g>
    <g id="xtick_3">
     <g id="line2d_3">
      <g>
       <use xlink:href="#m95a0ebd468" x="167.82555" y="192.24" style="stroke: #000000; stroke-width: 0.8"/>
      </g>
     </g>
     <g id="text_3">
      <!-- 0 -->
      <g transform="translate(162.73555 211.3975)scale(0.16 -0.16)">
       <use xlink:href="#DejaVuSans-30"/>
      </g>
     </g>
    </g>
    <g id="xtick_4">
     <g id="line2d_4">
      <g>
       <use xlink:href="#m95a0ebd468" x="228.552031" y="192.24" style="stroke: #000000; stroke-width: 0.8"/>
      </g>
     </g>
     <g id="text_4">
      <!-- 25 -->
      <g transform="translate(218.372031 211.3975)scale(0.16 -0.16)">
       <use xlink:href="#DejaVuSans-32"/>
       <use xlink:href="#DejaVuSans-35" x="63.623047"/>
      </g>
     </g>
    </g>
    <g id="xtick_5">
     <g id="line2d_5">
      <g>
       <use xlink:href="#m95a0ebd468" x="289.278513" y="192.24" style="stroke: #000000; stroke-width: 0.8"/>
      </g>
     </g>
     <g id="text_5">
      <!-- 50 -->
      <g transform="translate(279.098513 211.3975)scale(0.16 -0.16)">
       <use xlink:href="#DejaVuSans-35"/>
       <use xlink:href="#DejaVuSans-30" x="63.623047"/>
      </g>
     </g>
    </g>
   </g>
   <g id="matplotlib.axis_2">
    <g id="ytick_1">
     <g id="line2d_6">
      <defs>
       <path id="md8c82f3392" d="M 0 0 
L -3.5 0 
" style="stroke: #000000; stroke-width: 0.8"/>
      </defs>
      <g>
       <use xlink:href="#md8c82f3392" x="40.5" y="180.852547" style="stroke: #000000; stroke-width: 0.8"/>
      </g>
     </g>
     <g id="text_6">
      <!-- 150 -->
      <g transform="translate(2.96 186.931297)scale(0.16 -0.16)">
       <defs>
        <path id="DejaVuSans-31" d="M 794 531 
L 1825 531 
L 1825 4091 
L 703 3866 
L 703 4441 
L 1819 4666 
L 2450 4666 
L 2450 531 
L 3481 531 
L 3481 0 
L 794 0 
L 794 531 
z
" transform="scale(0.015625)"/>
       </defs>
       <use xlink:href="#DejaVuSans-31"/>
       <use xlink:href="#DejaVuSans-35" x="63.623047"/>
       <use xlink:href="#DejaVuSans-30" x="127.246094"/>
      </g>
     </g>
    </g>
    <g id="ytick_2">
     <g id="line2d_7">
      <g>
       <use xlink:href="#md8c82f3392" x="40.5" y="145.977531" style="stroke: #000000; stroke-width: 0.8"/>
      </g>
     </g>
     <g id="text_7">
      <!-- 200 -->
      <g transform="translate(2.96 152.056281)scale(0.16 -0.16)">
       <use xlink:href="#DejaVuSans-32"/>
       <use xlink:href="#DejaVuSans-30" x="63.623047"/>
       <use xlink:href="#DejaVuSans-30" x="127.246094"/>
      </g>
     </g>
    </g>
    <g id="ytick_3">
     <g id="line2d_8">
      <g>
       <use xlink:href="#md8c82f3392" x="40.5" y="111.102515" style="stroke: #000000; stroke-width: 0.8"/>
      </g>
     </g>
     <g id="text_8">
      <!-- 250 -->
      <g transform="translate(2.96 117.181265)scale(0.16 -0.16)">
       <use xlink:href="#DejaVuSans-32"/>
       <use xlink:href="#DejaVuSans-35" x="63.623047"/>
       <use xlink:href="#DejaVuSans-30" x="127.246094"/>
      </g>
     </g>
    </g>
    <g id="ytick_4">
     <g id="line2d_9">
      <g>
       <use xlink:href="#md8c82f3392" x="40.5" y="76.227499" style="stroke: #000000; stroke-width: 0.8"/>
      </g>
     </g>
     <g id="text_9">
      <!-- 300 -->
      <g transform="translate(2.96 82.306249)scale(0.16 -0.16)">
       <defs>
        <path id="DejaVuSans-33" d="M 2597 2516 
Q 3050 2419 3304 2112 
Q 3559 1806 3559 1356 
Q 3559 666 3084 287 
Q 2609 -91 1734 -91 
Q 1441 -91 1130 -33 
Q 819 25 488 141 
L 488 750 
Q 750 597 1062 519 
Q 1375 441 1716 441 
Q 2309 441 2620 675 
Q 2931 909 2931 1356 
Q 2931 1769 2642 2001 
Q 2353 2234 1838 2234 
L 1294 2234 
L 1294 2753 
L 1863 2753 
Q 2328 2753 2575 2939 
Q 2822 3125 2822 3475 
Q 2822 3834 2567 4026 
Q 2313 4219 1838 4219 
Q 1578 4219 1281 4162 
Q 984 4106 628 3988 
L 628 4550 
Q 988 4650 1302 4700 
Q 1616 4750 1894 4750 
Q 2613 4750 3031 4423 
Q 3450 4097 3450 3541 
Q 3450 3153 3228 2886 
Q 3006 2619 2597 2516 
z
" transform="scale(0.015625)"/>
       </defs>
       <use xlink:href="#DejaVuSans-33"/>
       <use xlink:href="#DejaVuSans-30" x="63.623047"/>
       <use xlink:href="#DejaVuSans-30" x="127.246094"/>
      </g>
     </g>
    </g>
    <g id="ytick_5">
     <g id="line2d_10">
      <g>
       <use xlink:href="#md8c82f3392" x="40.5" y="41.352483" style="stroke: #000000; stroke-width: 0.8"/>
      </g>
     </g>
     <g id="text_10">
      <!-- 350 -->
      <g transform="translate(2.96 47.431233)scale(0.16 -0.16)">
       <use xlink:href="#DejaVuSans-33"/>
       <use xlink:href="#DejaVuSans-35" x="63.623047"/>
       <use xlink:href="#DejaVuSans-30" x="127.246094"/>
      </g>
     </g>
    </g>
   </g>
   <g id="line2d_11">
    <defs>
     <path id="m4d3267d2a1" d="M 0 3 
C 0.795609 3 1.55874 2.683901 2.12132 2.12132 
C 2.683901 1.55874 3 0.795609 3 0 
C 3 -0.795609 2.683901 -1.55874 2.12132 -2.12132 
C 1.55874 -2.683901 0.795609 -3 0 -3 
C -0.795609 -3 -1.55874 -2.683901 -2.12132 -2.12132 
C -2.683901 -1.55874 -3 -0.795609 -3 0 
C -3 0.795609 -2.683901 1.55874 -2.12132 2.12132 
C -1.55874 2.683901 -0.795609 3 0 3 
z
" style="stroke: #1f77b4"/>
    </defs>
    <g clip-path="url(#p1c4e460f84)">
     <use xlink:href="#m4d3267d2a1" x="51.913636" y="184.308439" style="fill-opacity: 0; stroke: #1f77b4"/>
     <use xlink:href="#m4d3267d2a1" x="56.876038" y="179.441423" style="fill-opacity: 0; stroke: #1f77b4"/>
     <use xlink:href="#m4d3267d2a1" x="61.83844" y="179.217956" style="fill-opacity: 0; stroke: #1f77b4"/>
     <use xlink:href="#m4d3267d2a1" x="66.800991" y="176.163699" style="fill-opacity: 0; stroke: #1f77b4"/>
     <use xlink:href="#m4d3267d2a1" x="71.763393" y="178.074917" style="fill-opacity: 0; stroke: #1f77b4"/>
     <use xlink:href="#m4d3267d2a1" x="76.725795" y="175.907595" style="fill-opacity: 0; stroke: #1f77b4"/>
     <use xlink:href="#m4d3267d2a1" x="81.688346" y="175.214319" style="fill-opacity: 0; stroke: #1f77b4"/>
     <use xlink:href="#m4d3267d2a1" x="86.650748" y="173.46434" style="fill-opacity: 0; stroke: #1f77b4"/>
     <use xlink:href="#m4d3267d2a1" x="91.61315" y="173.106789" style="fill-opacity: 0; stroke: #1f77b4"/>
     <use xlink:href="#m4d3267d2a1" x="96.575701" y="169.049141" style="fill-opacity: 0; stroke: #1f77b4"/>
     <use xlink:href="#m4d3267d2a1" x="101.538103" y="172.067247" style="fill-opacity: 0; stroke: #1f77b4"/>
     <use xlink:href="#m4d3267d2a1" x="106.500506" y="164.47733" style="fill-opacity: 0; stroke: #1f77b4"/>
     <use xlink:href="#m4d3267d2a1" x="111.463056" y="166.587576" style="fill-opacity: 0; stroke: #1f77b4"/>
     <use xlink:href="#m4d3267d2a1" x="116.425458" y="165.357052" style="fill-opacity: 0; stroke: #1f77b4"/>
     <use xlink:href="#m4d3267d2a1" x="121.387861" y="158.924159" style="fill-opacity: 0; stroke: #1f77b4"/>
     <use xlink:href="#m4d3267d2a1" x="126.350411" y="157.477959" style="fill-opacity: 0; stroke: #1f77b4"/>
     <use xlink:href="#m4d3267d2a1" x="131.312813" y="148.607918" style="fill-opacity: 0; stroke: #1f77b4"/>
     <use xlink:href="#m4d3267d2a1" x="136.275216" y="139.696627" style="fill-opacity: 0; stroke: #1f77b4"/>
     <use xlink:href="#m4d3267d2a1" x="141.237766" y="127.733537" style="fill-opacity: 0; stroke: #1f77b4"/>
     <use xlink:href="#m4d3267d2a1" x="146.200169" y="118.331011" style="fill-opacity: 0; stroke: #1f77b4"/>
     <use xlink:href="#m4d3267d2a1" x="151.162571" y="102.282405" style="fill-opacity: 0; stroke: #1f77b4"/>
     <use xlink:href="#m4d3267d2a1" x="156.125121" y="80.511975" style="fill-opacity: 0; stroke: #1f77b4"/>
     <use xlink:href="#m4d3267d2a1" x="161.087524" y="57.261685" style="fill-opacity: 0; stroke: #1f77b4"/>
     <use xlink:href="#m4d3267d2a1" x="166.049926" y="38.894889" style="fill-opacity: 0; stroke: #1f77b4"/>
     <use xlink:href="#m4d3267d2a1" x="171.012476" y="34.34527" style="fill-opacity: 0; stroke: #1f77b4"/>
     <use xlink:href="#m4d3267d2a1" x="175.974879" y="45.659708" style="fill-opacity: 0; stroke: #1f77b4"/>
     <use xlink:href="#m4d3267d2a1" x="180.937281" y="57.894192" style="fill-opacity: 0; stroke: #1f77b4"/>
     <use xlink:href="#m4d3267d2a1" x="185.899831" y="84.932892" style="fill-opacity: 0; stroke: #1f77b4"/>
     <use xlink:href="#m4d3267d2a1" x="190.862234" y="110.454645" style="fill-opacity: 0; stroke: #1f77b4"/>
     <use xlink:href="#m4d3267d2a1" x="195.824636" y="125.750949" style="fill-opacity: 0; stroke: #1f77b4"/>
     <use xlink:href="#m4d3267d2a1" x="200.787187" y="140.399964" style="fill-opacity: 0; stroke: #1f77b4"/>
     <use xlink:href="#m4d3267d2a1" x="205.749589" y="151.454936" style="fill-opacity: 0; stroke: #1f77b4"/>
     <use xlink:href="#m4d3267d2a1" x="210.711991" y="157.055751" style="fill-opacity: 0; stroke: #1f77b4"/>
     <use xlink:href="#m4d3267d2a1" x="215.674542" y="164.269052" style="fill-opacity: 0; stroke: #1f77b4"/>
     <use xlink:href="#m4d3267d2a1" x="220.636944" y="165.183224" style="fill-opacity: 0; stroke: #1f77b4"/>
     <use xlink:href="#m4d3267d2a1" x="225.599346" y="167.569971" style="fill-opacity: 0; stroke: #1f77b4"/>
     <use xlink:href="#m4d3267d2a1" x="230.561897" y="175.143" style="fill-opacity: 0; stroke: #1f77b4"/>
     <use xlink:href="#m4d3267d2a1" x="235.524299" y="170.787274" style="fill-opacity: 0; stroke: #1f77b4"/>
     <use xlink:href="#m4d3267d2a1" x="240.486701" y="175.361533" style="fill-opacity: 0; stroke: #1f77b4"/>
     <use xlink:href="#m4d3267d2a1" x="245.449252" y="180.39112" style="fill-opacity: 0; stroke: #1f77b4"/>
     <use xlink:href="#m4d3267d2a1" x="250.411654" y="179.583713" style="fill-opacity: 0; stroke: #1f77b4"/>
     <use xlink:href="#m4d3267d2a1" x="255.374056" y="181.978444" style="fill-opacity: 0; stroke: #1f77b4"/>
     <use xlink:href="#m4d3267d2a1" x="260.336607" y="182.022233" style="fill-opacity: 0; stroke: #1f77b4"/>
     <use xlink:href="#m4d3267d2a1" x="265.299009" y="181.775875" style="fill-opacity: 0; stroke: #1f77b4"/>
     <use xlink:href="#m4d3267d2a1" x="270.261411" y="182.628799" style="fill-opacity: 0; stroke: #1f77b4"/>
     <use xlink:href="#m4d3267d2a1" x="275.223962" y="184.68" style="fill-opacity: 0; stroke: #1f77b4"/>
     <use xlink:href="#m4d3267d2a1" x="280.186364" y="184.0902" style="fill-opacity: 0; stroke: #1f77b4"/>
    </g>
   </g>
   <g id="line2d_12">
    <path d="M 51.913636 181.981609 
L 56.876038 181.560648 
L 61.83844 181.083278 
L 66.800991 180.539095 
L 71.763393 179.915286 
L 76.725795 179.195807 
L 81.688346 178.360458 
L 86.650748 177.383642 
L 91.61315 176.232403 
L 96.575701 174.863931 
L 101.538103 173.222143 
L 106.500506 171.232349 
L 111.463056 168.794031 
L 116.425458 165.770602 
L 121.387861 161.973876 
L 126.350411 157.142888 
L 131.312813 150.915879 
L 136.275216 142.796003 
L 141.237766 132.128049 
L 146.200169 118.138065 
L 151.162571 100.175045 
L 156.125121 78.458391 
L 161.087524 55.600768 
L 166.049926 37.978505 
L 171.012476 33.48 
L 175.974879 44.562904 
L 180.937281 65.501936 
L 185.899831 88.408701 
L 190.862234 108.606352 
L 195.824636 124.766934 
L 200.787187 137.194894 
L 205.749589 146.648303 
L 210.711991 153.862305 
L 215.674542 159.421305 
L 220.636944 163.75822 
L 225.599346 167.186666 
L 230.561897 169.932382 
L 235.524299 172.158447 
L 240.486701 173.984123 
L 245.449252 175.497439 
L 250.411654 176.764058 
L 255.374056 177.833759 
L 260.336607 178.744627 
L 265.299009 179.526062 
L 270.261411 180.201136 
L 275.223962 180.788073 
L 280.186364 181.301359 
" clip-path="url(#p1c4e460f84)" style="fill: none; stroke: #ff7f0e; stroke-width: 2; stroke-linecap: square"/>
   </g>
   <g id="patch_3">
    <path d="M 40.5 192.24 
L 40.5 25.92 
" style="fill: none; stroke: #000000; stroke-width: 0.8; stroke-linejoin: miter; stroke-linecap: square"/>
   </g>
   <g id="patch_4">
    <path d="M 291.6 192.24 
L 291.6 25.92 
" style="fill: none; stroke: #000000; stroke-width: 0.8; stroke-linejoin: miter; stroke-linecap: square"/>
   </g>
   <g id="patch_5">
    <path d="M 40.5 192.24 
L 291.6 192.24 
" style="fill: none; stroke: #000000; stroke-width: 0.8; stroke-linejoin: miter; stroke-linecap: square"/>
   </g>
   <g id="patch_6">
    <path d="M 40.5 25.92 
L 291.6 25.92 
" style="fill: none; stroke: #000000; stroke-width: 0.8; stroke-linejoin: miter; stroke-linecap: square"/>
   </g>
   <g id="legend_1">
    <g id="patch_7">
     <path d="M 47.5 63.27625 
L 145.201563 63.27625 
Q 147.201563 63.27625 147.201563 61.27625 
L 147.201563 32.92 
Q 147.201563 30.92 145.201563 30.92 
L 47.5 30.92 
Q 45.5 30.92 45.5 32.92 
L 45.5 61.27625 
Q 45.5 63.27625 47.5 63.27625 
z
" style="fill: #ffffff; opacity: 0.8; stroke: #cccccc; stroke-linejoin: miter"/>
    </g>
    <g id="line2d_13">
     <g>
      <use xlink:href="#m4d3267d2a1" x="59.5" y="39.018437" style="fill-opacity: 0; stroke: #1f77b4"/>
     </g>
    </g>
    <g id="text_11">
     <!-- Experiment -->
     <g transform="translate(77.5 42.518437)scale(0.1 -0.1)">
      <defs>
       <path id="DejaVuSans-45" d="M 628 4666 
L 3578 4666 
L 3578 4134 
L 1259 4134 
L 1259 2753 
L 3481 2753 
L 3481 2222 
L 1259 2222 
L 1259 531 
L 3634 531 
L 3634 0 
L 628 0 
L 628 4666 
z
" transform="scale(0.015625)"/>
       <path id="DejaVuSans-78" d="M 3513 3500 
L 2247 1797 
L 3578 0 
L 2900 0 
L 1881 1375 
L 863 0 
L 184 0 
L 1544 1831 
L 300 3500 
L 978 3500 
L 1906 2253 
L 2834 3500 
L 3513 3500 
z
" transform="scale(0.015625)"/>
       <path id="DejaVuSans-70" d="M 1159 525 
L 1159 -1331 
L 581 -1331 
L 581 3500 
L 1159 3500 
L 1159 2969 
Q 1341 3281 1617 3432 
Q 1894 3584 2278 3584 
Q 2916 3584 3314 3078 
Q 3713 2572 3713 1747 
Q 3713 922 3314 415 
Q 2916 -91 2278 -91 
Q 1894 -91 1617 61 
Q 1341 213 1159 525 
z
M 3116 1747 
Q 3116 2381 2855 2742 
Q 2594 3103 2138 3103 
Q 1681 3103 1420 2742 
Q 1159 2381 1159 1747 
Q 1159 1113 1420 752 
Q 1681 391 2138 391 
Q 2594 391 2855 752 
Q 3116 1113 3116 1747 
z
" transform="scale(0.015625)"/>
       <path id="DejaVuSans-65" d="M 3597 1894 
L 3597 1613 
L 953 1613 
Q 991 1019 1311 708 
Q 1631 397 2203 397 
Q 2534 397 2845 478 
Q 3156 559 3463 722 
L 3463 178 
Q 3153 47 2828 -22 
Q 2503 -91 2169 -91 
Q 1331 -91 842 396 
Q 353 884 353 1716 
Q 353 2575 817 3079 
Q 1281 3584 2069 3584 
Q 2775 3584 3186 3129 
Q 3597 2675 3597 1894 
z
M 3022 2063 
Q 3016 2534 2758 2815 
Q 2500 3097 2075 3097 
Q 1594 3097 1305 2825 
Q 1016 2553 972 2059 
L 3022 2063 
z
" transform="scale(0.015625)"/>
       <path id="DejaVuSans-72" d="M 2631 2963 
Q 2534 3019 2420 3045 
Q 2306 3072 2169 3072 
Q 1681 3072 1420 2755 
Q 1159 2438 1159 1844 
L 1159 0 
L 581 0 
L 581 3500 
L 1159 3500 
L 1159 2956 
Q 1341 3275 1631 3429 
Q 1922 3584 2338 3584 
Q 2397 3584 2469 3576 
Q 2541 3569 2628 3553 
L 2631 2963 
z
" transform="scale(0.015625)"/>
       <path id="DejaVuSans-69" d="M 603 3500 
L 1178 3500 
L 1178 0 
L 603 0 
L 603 3500 
z
M 603 4863 
L 1178 4863 
L 1178 4134 
L 603 4134 
L 603 4863 
z
" transform="scale(0.015625)"/>
       <path id="DejaVuSans-6d" d="M 3328 2828 
Q 3544 3216 3844 3400 
Q 4144 3584 4550 3584 
Q 5097 3584 5394 3201 
Q 5691 2819 5691 2113 
L 5691 0 
L 5113 0 
L 5113 2094 
Q 5113 2597 4934 2840 
Q 4756 3084 4391 3084 
Q 3944 3084 3684 2787 
Q 3425 2491 3425 1978 
L 3425 0 
L 2847 0 
L 2847 2094 
Q 2847 2600 2669 2842 
Q 2491 3084 2119 3084 
Q 1678 3084 1418 2786 
Q 1159 2488 1159 1978 
L 1159 0 
L 581 0 
L 581 3500 
L 1159 3500 
L 1159 2956 
Q 1356 3278 1631 3431 
Q 1906 3584 2284 3584 
Q 2666 3584 2933 3390 
Q 3200 3197 3328 2828 
z
" transform="scale(0.015625)"/>
       <path id="DejaVuSans-6e" d="M 3513 2113 
L 3513 0 
L 2938 0 
L 2938 2094 
Q 2938 2591 2744 2837 
Q 2550 3084 2163 3084 
Q 1697 3084 1428 2787 
Q 1159 2491 1159 1978 
L 1159 0 
L 581 0 
L 581 3500 
L 1159 3500 
L 1159 2956 
Q 1366 3272 1645 3428 
Q 1925 3584 2291 3584 
Q 2894 3584 3203 3211 
Q 3513 2838 3513 2113 
z
" transform="scale(0.015625)"/>
       <path id="DejaVuSans-74" d="M 1172 4494 
L 1172 3500 
L 2356 3500 
L 2356 3053 
L 1172 3053 
L 1172 1153 
Q 1172 725 1289 603 
Q 1406 481 1766 481 
L 2356 481 
L 2356 0 
L 1766 0 
Q 1100 0 847 248 
Q 594 497 594 1153 
L 594 3053 
L 172 3053 
L 172 3500 
L 594 3500 
L 594 4494 
L 1172 4494 
z
" transform="scale(0.015625)"/>
      </defs>
      <use xlink:href="#DejaVuSans-45"/>
      <use xlink:href="#DejaVuSans-78" x="63.183594"/>
      <use xlink:href="#DejaVuSans-70" x="122.363281"/>
      <use xlink:href="#DejaVuSans-65" x="185.839844"/>
      <use xlink:href="#DejaVuSans-72" x="247.363281"/>
      <use xlink:href="#DejaVuSans-69" x="288.476562"/>
      <use xlink:href="#DejaVuSans-6d" x="316.259766"/>
      <use xlink:href="#DejaVuSans-65" x="413.671875"/>
      <use xlink:href="#DejaVuSans-6e" x="475.195312"/>
      <use xlink:href="#DejaVuSans-74" x="538.574219"/>
     </g>
    </g>
    <g id="line2d_14">
     <path d="M 49.5 53.696562 
L 59.5 53.696562 
L 69.5 53.696562 
" style="fill: none; stroke: #ff7f0e; stroke-width: 2; stroke-linecap: square"/>
    </g>
    <g id="text_12">
     <!-- Lorentzian fit -->
     <g transform="translate(77.5 57.196562)scale(0.1 -0.1)">
      <defs>
       <path id="DejaVuSans-4c" d="M 628 4666 
L 1259 4666 
L 1259 531 
L 3531 531 
L 3531 0 
L 628 0 
L 628 4666 
z
" transform="scale(0.015625)"/>
       <path id="DejaVuSans-6f" d="M 1959 3097 
Q 1497 3097 1228 2736 
Q 959 2375 959 1747 
Q 959 1119 1226 758 
Q 1494 397 1959 397 
Q 2419 397 2687 759 
Q 2956 1122 2956 1747 
Q 2956 2369 2687 2733 
Q 2419 3097 1959 3097 
z
M 1959 3584 
Q 2709 3584 3137 3096 
Q 3566 2609 3566 1747 
Q 3566 888 3137 398 
Q 2709 -91 1959 -91 
Q 1206 -91 779 398 
Q 353 888 353 1747 
Q 353 2609 779 3096 
Q 1206 3584 1959 3584 
z
" transform="scale(0.015625)"/>
       <path id="DejaVuSans-7a" d="M 353 3500 
L 3084 3500 
L 3084 2975 
L 922 459 
L 3084 459 
L 3084 0 
L 275 0 
L 275 525 
L 2438 3041 
L 353 3041 
L 353 3500 
z
" transform="scale(0.015625)"/>
       <path id="DejaVuSans-61" d="M 2194 1759 
Q 1497 1759 1228 1600 
Q 959 1441 959 1056 
Q 959 750 1161 570 
Q 1363 391 1709 391 
Q 2188 391 2477 730 
Q 2766 1069 2766 1631 
L 2766 1759 
L 2194 1759 
z
M 3341 1997 
L 3341 0 
L 2766 0 
L 2766 531 
Q 2569 213 2275 61 
Q 1981 -91 1556 -91 
Q 1019 -91 701 211 
Q 384 513 384 1019 
Q 384 1609 779 1909 
Q 1175 2209 1959 2209 
L 2766 2209 
L 2766 2266 
Q 2766 2663 2505 2880 
Q 2244 3097 1772 3097 
Q 1472 3097 1187 3025 
Q 903 2953 641 2809 
L 641 3341 
Q 956 3463 1253 3523 
Q 1550 3584 1831 3584 
Q 2591 3584 2966 3190 
Q 3341 2797 3341 1997 
z
" transform="scale(0.015625)"/>
       <path id="DejaVuSans-20" transform="scale(0.015625)"/>
       <path id="DejaVuSans-66" d="M 2375 4863 
L 2375 4384 
L 1825 4384 
Q 1516 4384 1395 4259 
Q 1275 4134 1275 3809 
L 1275 3500 
L 2222 3500 
L 2222 3053 
L 1275 3053 
L 1275 0 
L 697 0 
L 697 3053 
L 147 3053 
L 147 3500 
L 697 3500 
L 697 3744 
Q 697 4328 969 4595 
Q 1241 4863 1831 4863 
L 2375 4863 
z
" transform="scale(0.015625)"/>
      </defs>
      <use xlink:href="#DejaVuSans-4c"/>
      <use xlink:href="#DejaVuSans-6f" x="53.962891"/>
      <use xlink:href="#DejaVuSans-72" x="115.144531"/>
      <use xlink:href="#DejaVuSans-65" x="154.007812"/>
      <use xlink:href="#DejaVuSans-6e" x="215.53125"/>
      <use xlink:href="#DejaVuSans-74" x="278.910156"/>
      <use xlink:href="#DejaVuSans-7a" x="318.119141"/>
      <use xlink:href="#DejaVuSans-69" x="370.609375"/>
      <use xlink:href="#DejaVuSans-61" x="398.392578"/>
      <use xlink:href="#DejaVuSans-6e" x="459.671875"/>
      <use xlink:href="#DejaVuSans-20" x="523.050781"/>
      <use xlink:href="#DejaVuSans-66" x="554.837891"/>
      <use xlink:href="#DejaVuSans-69" x="590.042969"/>
      <use xlink:href="#DejaVuSans-74" x="617.826172"/>
     </g>
    </g>
   </g>
  </g>
  <g id="axes_2">
   <g id="matplotlib.axis_3">
    <g id="ytick_6">
     <g id="line2d_15">
      <defs>
       <path id="m2b03be58fd" d="M 0 0 
L 3.5 0 
" style="stroke: #000000; stroke-width: 0.8"/>
      </defs>
      <g>
       <use xlink:href="#m2b03be58fd" x="291.6" y="167.622248" style="stroke: #000000; stroke-width: 0.8"/>
      </g>
     </g>
     <g id="text_13">
      <!-- 0.2 -->
      <g transform="translate(298.6 173.321077)scale(0.15 -0.15)">
       <defs>
        <path id="DejaVuSans-2e" d="M 684 794 
L 1344 794 
L 1344 0 
L 684 0 
L 684 794 
z
" transform="scale(0.015625)"/>
       </defs>
       <use xlink:href="#DejaVuSans-30"/>
       <use xlink:href="#DejaVuSans-2e" x="63.623047"/>
       <use xlink:href="#DejaVuSans-32" x="95.410156"/>
      </g>
     </g>
    </g>
    <g id="ytick_7">
     <g id="line2d_16">
      <g>
       <use xlink:href="#m2b03be58fd" x="291.6" y="134.086686" style="stroke: #000000; stroke-width: 0.8"/>
      </g>
     </g>
     <g id="text_14">
      <!-- 0.4 -->
      <g transform="translate(298.6 139.785514)scale(0.15 -0.15)">
       <defs>
        <path id="DejaVuSans-34" d="M 2419 4116 
L 825 1625 
L 2419 1625 
L 2419 4116 
z
M 2253 4666 
L 3047 4666 
L 3047 1625 
L 3713 1625 
L 3713 1100 
L 3047 1100 
L 3047 0 
L 2419 0 
L 2419 1100 
L 313 1100 
L 313 1709 
L 2253 4666 
z
" transform="scale(0.015625)"/>
       </defs>
       <use xlink:href="#DejaVuSans-30"/>
       <use xlink:href="#DejaVuSans-2e" x="63.623047"/>
       <use xlink:href="#DejaVuSans-34" x="95.410156"/>
      </g>
     </g>
    </g>
    <g id="ytick_8">
     <g id="line2d_17">
      <g>
       <use xlink:href="#m2b03be58fd" x="291.6" y="100.551124" style="stroke: #000000; stroke-width: 0.8"/>
      </g>
     </g>
     <g id="text_15">
      <!-- 0.6 -->
      <g transform="translate(298.6 106.249952)scale(0.15 -0.15)">
       <defs>
        <path id="DejaVuSans-36" d="M 2113 2584 
Q 1688 2584 1439 2293 
Q 1191 2003 1191 1497 
Q 1191 994 1439 701 
Q 1688 409 2113 409 
Q 2538 409 2786 701 
Q 3034 994 3034 1497 
Q 3034 2003 2786 2293 
Q 2538 2584 2113 2584 
z
M 3366 4563 
L 3366 3988 
Q 3128 4100 2886 4159 
Q 2644 4219 2406 4219 
Q 1781 4219 1451 3797 
Q 1122 3375 1075 2522 
Q 1259 2794 1537 2939 
Q 1816 3084 2150 3084 
Q 2853 3084 3261 2657 
Q 3669 2231 3669 1497 
Q 3669 778 3244 343 
Q 2819 -91 2113 -91 
Q 1303 -91 875 529 
Q 447 1150 447 2328 
Q 447 3434 972 4092 
Q 1497 4750 2381 4750 
Q 2619 4750 2861 4703 
Q 3103 4656 3366 4563 
z
" transform="scale(0.015625)"/>
       </defs>
       <use xlink:href="#DejaVuSans-30"/>
       <use xlink:href="#DejaVuSans-2e" x="63.623047"/>
       <use xlink:href="#DejaVuSans-36" x="95.410156"/>
      </g>
     </g>
    </g>
    <g id="ytick_9">
     <g id="line2d_18">
      <g>
       <use xlink:href="#m2b03be58fd" x="291.6" y="67.015562" style="stroke: #000000; stroke-width: 0.8"/>
      </g>
     </g>
     <g id="text_16">
      <!-- 0.8 -->
      <g transform="translate(298.6 72.71439)scale(0.15 -0.15)">
       <defs>
        <path id="DejaVuSans-38" d="M 2034 2216 
Q 1584 2216 1326 1975 
Q 1069 1734 1069 1313 
Q 1069 891 1326 650 
Q 1584 409 2034 409 
Q 2484 409 2743 651 
Q 3003 894 3003 1313 
Q 3003 1734 2745 1975 
Q 2488 2216 2034 2216 
z
M 1403 2484 
Q 997 2584 770 2862 
Q 544 3141 544 3541 
Q 544 4100 942 4425 
Q 1341 4750 2034 4750 
Q 2731 4750 3128 4425 
Q 3525 4100 3525 3541 
Q 3525 3141 3298 2862 
Q 3072 2584 2669 2484 
Q 3125 2378 3379 2068 
Q 3634 1759 3634 1313 
Q 3634 634 3220 271 
Q 2806 -91 2034 -91 
Q 1263 -91 848 271 
Q 434 634 434 1313 
Q 434 1759 690 2068 
Q 947 2378 1403 2484 
z
M 1172 3481 
Q 1172 3119 1398 2916 
Q 1625 2713 2034 2713 
Q 2441 2713 2670 2916 
Q 2900 3119 2900 3481 
Q 2900 3844 2670 4047 
Q 2441 4250 2034 4250 
Q 1625 4250 1398 4047 
Q 1172 3844 1172 3481 
z
" transform="scale(0.015625)"/>
       </defs>
       <use xlink:href="#DejaVuSans-30"/>
       <use xlink:href="#DejaVuSans-2e" x="63.623047"/>
       <use xlink:href="#DejaVuSans-38" x="95.410156"/>
      </g>
     </g>
    </g>
    <g id="ytick_10">
     <g id="line2d_19">
      <g>
       <use xlink:href="#m2b03be58fd" x="291.6" y="33.48" style="stroke: #000000; stroke-width: 0.8"/>
      </g>
     </g>
     <g id="text_17">
      <!-- 1.0 -->
      <g transform="translate(298.6 39.178828)scale(0.15 -0.15)">
       <use xlink:href="#DejaVuSans-31"/>
       <use xlink:href="#DejaVuSans-2e" x="63.623047"/>
       <use xlink:href="#DejaVuSans-30" x="95.410156"/>
      </g>
     </g>
    </g>
   </g>
   <g id="line2d_20">
    <path d="M 107.099068 183.948748 
L 107.366264 183.428598 
L 107.633461 182.043524 
L 107.900657 181.451876 
L 108.167854 182.825985 
L 108.43505 182.869085 
L 108.702247 183.687913 
L 108.969443 183.503851 
L 109.23664 183.125242 
L 109.503836 181.802129 
L 109.771033 181.553479 
L 110.03823 182.054059 
L 110.305426 183.220735 
L 110.839819 183.579398 
L 111.107016 184.129137 
L 111.374212 183.024991 
L 111.641409 182.958255 
L 111.908605 181.403904 
L 112.175802 182.450842 
L 112.442998 182.105364 
L 112.710195 182.222162 
L 113.244588 184.134898 
L 114.046177 181.315369 
L 114.313374 182.441819 
L 114.58057 182.348781 
L 114.847767 182.643534 
L 115.114963 183.685434 
L 115.38216 183.536467 
L 115.649356 184.175626 
L 115.916553 183.87765 
L 116.450946 182.355919 
L 116.718143 183.731892 
L 116.985339 182.548768 
L 117.252536 182.979047 
L 117.519732 182.91135 
L 117.786929 183.205871 
L 118.054125 182.491761 
L 118.321322 182.207226 
L 118.588518 183.11413 
L 118.855715 182.47065 
L 119.390108 183.132154 
L 119.924501 182.449305 
L 120.191697 183.87148 
L 120.458894 184.638057 
L 120.72609 183.174577 
L 120.993287 182.423611 
L 121.260483 183.126623 
L 121.52768 182.447638 
L 121.794876 183.022024 
L 122.062073 182.147309 
L 122.596466 183.625385 
L 122.863662 183.244238 
L 123.130859 183.171766 
L 123.398055 182.392966 
L 123.665252 183.263262 
L 123.932449 182.734346 
L 124.199645 182.935378 
L 124.466842 182.68426 
L 124.734038 183.245792 
L 125.001235 183.478658 
L 125.535628 181.6166 
L 126.070021 184.467778 
L 126.337217 183.193502 
L 126.604414 184.347267 
L 126.87161 183.639395 
L 127.138807 182.390598 
L 127.406003 182.2056 
L 127.940396 183.936406 
L 128.207593 183.069693 
L 128.474789 183.570858 
L 128.741986 182.079323 
L 129.009182 183.319165 
L 129.276379 183.773264 
L 129.543575 182.588884 
L 129.810772 180.855665 
L 130.077968 181.77684 
L 130.345165 183.406867 
L 130.612362 183.77378 
L 130.879558 183.043749 
L 131.146755 183.091497 
L 131.413951 184.511025 
L 131.948344 181.817275 
L 132.215541 181.510565 
L 132.749934 182.677365 
L 133.01713 183.295304 
L 133.284327 183.402527 
L 133.551523 183.178213 
L 133.81872 183.280378 
L 134.085916 183.636875 
L 134.353113 181.981287 
L 134.620309 182.807731 
L 134.887506 182.301766 
L 135.154702 183.35435 
L 135.421899 183.514905 
L 135.689095 183.871026 
L 135.956292 183.486907 
L 136.223488 182.125205 
L 136.490685 183.17345 
L 136.757881 183.193837 
L 137.025078 182.506475 
L 137.292275 182.189185 
L 137.559471 183.624058 
L 137.826668 183.654969 
L 138.093864 182.415682 
L 138.361061 182.370823 
L 138.628257 181.679353 
L 138.895454 181.726883 
L 139.429847 183.740251 
L 139.697043 181.958662 
L 139.96424 183.065195 
L 140.231436 183.126855 
L 140.498633 183.054492 
L 140.765829 184.24366 
L 141.033026 184.031184 
L 141.834615 182.151481 
L 142.101812 182.417934 
L 142.369008 182.019146 
L 142.903401 182.202289 
L 143.170598 182.052488 
L 143.437794 182.834838 
L 143.972188 182.9952 
L 144.239384 183.021942 
L 144.506581 183.38507 
L 144.773777 183.304427 
L 145.040974 181.426527 
L 145.30817 180.560871 
L 145.575367 181.197046 
L 145.842563 181.09781 
L 146.10976 181.128925 
L 146.376956 179.712693 
L 146.644153 180.113109 
L 147.178546 179.252485 
L 147.445742 180.532229 
L 147.712939 179.912731 
L 147.980135 180.22224 
L 148.247332 179.90301 
L 148.514528 179.106686 
L 148.781725 179.55302 
L 149.316118 177.690508 
L 149.583314 179.418832 
L 149.850511 177.265253 
L 150.117707 177.587312 
L 150.384904 177.390019 
L 150.919297 175.020926 
L 151.186494 175.100871 
L 151.45369 177.849072 
L 151.988083 174.466737 
L 152.25528 175.220287 
L 152.522476 174.2787 
L 152.789673 172.922997 
L 153.056869 174.37317 
L 153.324066 175.029208 
L 154.125655 170.55102 
L 154.392852 169.754321 
L 154.660048 170.250763 
L 154.927245 169.964032 
L 155.194441 169.328966 
L 155.728834 166.826468 
L 155.996031 167.33697 
L 156.263227 166.39564 
L 156.530424 166.142092 
L 157.064817 165.079396 
L 157.332014 165.534218 
L 157.59921 162.988318 
L 158.133603 160.939717 
L 158.4008 157.755537 
L 158.935193 155.926691 
L 159.202389 156.67965 
L 159.469586 155.964534 
L 160.271175 146.508798 
L 160.538372 145.057563 
L 160.805568 142.77111 
L 162.408747 120.80406 
L 163.210337 108.136552 
L 163.74473 93.859036 
L 164.813516 69.38397 
L 165.347909 59.025648 
L 166.683892 43.35035 
L 167.218285 39.075563 
L 167.485481 35.675612 
L 167.752678 34.5734 
L 168.019874 34.394749 
L 168.287071 33.48 
L 168.554267 34.832056 
L 168.821464 35.578857 
L 169.08866 34.718414 
L 169.355857 34.994067 
L 169.623053 37.08884 
L 169.89025 37.461077 
L 170.157446 35.377465 
L 170.424643 34.632952 
L 170.959036 40.554363 
L 171.226233 41.588708 
L 171.493429 44.675399 
L 172.027822 47.438528 
L 172.562215 48.379484 
L 172.829412 50.162706 
L 173.363805 54.883263 
L 173.631001 56.621465 
L 173.898198 56.781702 
L 174.432591 60.510365 
L 174.699787 61.899633 
L 175.23418 66.441576 
L 175.768573 74.951465 
L 176.302966 79.678242 
L 176.837359 85.420077 
L 177.104556 87.468397 
L 177.371752 91.113919 
L 177.906146 99.98682 
L 178.707735 111.860091 
L 180.043718 133.830299 
L 180.845307 149.110291 
L 182.448486 165.265458 
L 182.715683 166.000472 
L 182.982879 167.736864 
L 183.250076 171.295143 
L 183.517272 171.88781 
L 183.784469 173.832901 
L 184.051665 174.697467 
L 184.318862 174.597139 
L 184.853255 176.247097 
L 185.120452 176.218219 
L 185.387648 178.082133 
L 185.654845 178.184658 
L 185.922041 178.146851 
L 186.189238 179.486633 
L 186.456434 179.220139 
L 186.723631 179.678829 
L 186.990827 179.882155 
L 187.258024 178.838856 
L 187.52522 179.982952 
L 187.792417 181.880476 
L 188.059613 181.975515 
L 188.32681 180.595099 
L 188.594006 181.521622 
L 188.861203 180.640833 
L 189.128399 180.693204 
L 189.395596 181.380619 
L 189.662792 182.664496 
L 189.929989 182.058898 
L 190.197185 181.912181 
L 190.464382 182.0131 
L 190.731578 181.548527 
L 190.998775 181.541948 
L 191.265972 180.400994 
L 191.533168 182.465406 
L 191.800365 181.226759 
L 192.067561 180.858747 
L 192.601954 180.90006 
L 193.136347 183.496539 
L 193.403544 180.582467 
L 193.67074 182.241128 
L 193.937937 181.482484 
L 194.205133 181.913257 
L 194.47233 183.517163 
L 194.739526 182.503064 
L 195.006723 182.449742 
L 195.273919 182.863971 
L 195.541116 182.718104 
L 195.808312 184.404736 
L 196.075509 184.171445 
L 196.342705 182.264816 
L 196.609902 182.612279 
L 197.144295 182.423512 
L 197.411491 182.362808 
L 197.678688 181.46523 
L 197.945884 182.824796 
L 198.213081 182.218063 
L 198.747474 182.865474 
L 199.014671 183.008204 
L 199.281867 182.632276 
L 199.549064 183.816756 
L 199.81626 183.927275 
L 200.083457 182.964261 
L 200.350653 183.614493 
L 200.61785 183.074368 
L 200.885046 183.491763 
L 201.686636 181.915089 
L 202.221029 183.382099 
L 202.488225 183.294104 
L 202.755422 183.887291 
L 203.022618 182.944142 
L 203.557011 182.709458 
L 203.824208 181.523456 
L 204.091404 182.046335 
L 204.358601 181.531582 
L 204.625797 181.622598 
L 205.160191 184.238772 
L 205.427387 183.666242 
L 205.694584 182.728544 
L 205.96178 182.678854 
L 206.228977 183.169426 
L 206.496173 183.189425 
L 206.76337 183.843385 
L 207.030566 184.013367 
L 207.297763 184.349169 
L 207.564959 183.184132 
L 208.099352 181.915344 
L 208.366549 182.268546 
L 208.633745 181.761746 
L 208.900942 181.601993 
L 209.168138 182.076338 
L 209.435335 183.946006 
L 209.702531 184.282099 
L 209.969728 183.639483 
L 210.236924 183.913662 
L 210.771317 182.444354 
L 211.038514 183.424786 
L 211.572907 183.317476 
L 211.840104 181.819166 
L 212.1073 183.920044 
L 212.641693 183.483209 
L 213.176086 183.657799 
L 213.443283 183.47772 
L 213.710479 183.831252 
L 213.977676 183.511076 
L 214.244872 182.989565 
L 214.512069 183.101497 
L 214.779265 181.937291 
L 215.046462 182.53696 
L 215.313658 182.459868 
L 215.580855 183.771745 
L 215.848051 182.608612 
L 216.382444 182.621122 
L 216.649641 184.629449 
L 216.916837 184.547165 
L 217.184034 182.995763 
L 217.45123 183.943875 
L 217.985623 182.103327 
L 218.25282 183.264742 
L 218.520017 182.612256 
L 218.787213 183.130904 
L 219.05441 181.207878 
L 219.321606 181.458843 
L 219.588803 182.874478 
L 219.855999 183.468714 
L 220.123196 182.413417 
L 220.390392 183.562234 
L 220.657589 183.485414 
L 220.924785 182.272996 
L 221.459178 184.520549 
L 221.726375 182.955339 
L 221.993571 183.683774 
L 222.260768 182.646584 
L 222.527964 183.805794 
L 223.062357 183.602213 
L 223.329554 184.010082 
L 223.59675 182.089138 
L 223.863947 182.203347 
L 224.131143 181.566831 
L 224.39834 182.677731 
L 224.665536 182.733933 
L 224.932733 183.198472 
L 225.19993 184.267211 
L 225.734323 182.296462 
L 226.001519 182.831893 
L 226.535912 182.151626 
L 226.803109 183.081672 
L 227.070305 182.158796 
L 227.337502 182.857248 
L 227.604698 182.312743 
L 227.871895 182.50004 
L 228.139091 181.809975 
L 228.406288 182.154867 
L 228.673484 183.314784 
L 228.940681 183.066375 
L 229.207877 181.457901 
L 229.475074 181.910827 
L 230.009467 183.339219 
L 230.276663 183.525736 
L 230.54386 183.478408 
L 230.811056 183.00707 
L 231.078253 181.917764 
L 231.612646 183.451538 
L 232.147039 182.388633 
L 232.681432 184.68 
L 232.948629 181.844783 
L 233.483022 183.850154 
L 233.750218 183.874062 
L 234.017415 183.544639 
L 234.284611 182.521188 
L 234.551808 183.355576 
L 234.819004 182.614026 
L 235.086201 182.960755 
L 235.353397 183.582478 
L 235.88779 182.004044 
L 236.154987 182.949019 
L 236.422183 182.342258 
L 236.956576 183.590173 
L 237.223773 183.694177 
L 237.490969 183.948351 
L 237.758166 182.813105 
L 238.025362 182.643346 
L 238.559755 183.602934 
L 238.826952 183.723823 
L 239.094149 182.610331 
L 239.361345 181.987956 
L 239.628542 182.81044 
L 239.895738 181.953745 
L 240.697328 184.218277 
L 240.697328 184.218277 
" clip-path="url(#p1c4e460f84)" style="fill: none; stroke-dasharray: 5.55,2.4; stroke-dashoffset: 0; stroke: #2ca02c; stroke-width: 1.5"/>
   </g>
   <g id="line2d_21">
    <path d="M 97.382831 183.280378 
L 97.917224 183.636875 
L 98.451617 181.981287 
L 98.98601 182.807731 
L 99.520403 182.301766 
L 100.054796 183.35435 
L 100.589189 183.514905 
L 101.123582 183.871026 
L 101.657975 183.486907 
L 102.192368 182.125205 
L 102.726761 183.17345 
L 103.261154 183.193837 
L 103.795547 182.506475 
L 104.32994 182.189185 
L 104.864333 183.624058 
L 105.398726 183.654969 
L 105.933119 182.415682 
L 106.467512 182.370823 
L 107.001905 181.679353 
L 107.536298 181.726883 
L 108.070692 182.573718 
L 108.605085 183.740251 
L 109.139478 181.958662 
L 109.673871 183.065195 
L 110.208264 183.126855 
L 110.742657 183.054492 
L 111.27705 184.24366 
L 111.811443 184.031184 
L 113.414622 182.151481 
L 113.949015 182.417934 
L 114.483408 182.019146 
L 115.552194 182.202289 
L 116.086587 182.052488 
L 116.62098 182.834838 
L 117.689766 182.9952 
L 118.224159 183.021942 
L 118.758552 183.38507 
L 119.292945 183.304427 
L 119.827338 181.426527 
L 120.361731 180.560871 
L 120.896124 181.197046 
L 121.430517 181.09781 
L 121.964911 181.128925 
L 122.499304 179.712693 
L 123.033697 180.113109 
L 124.102483 179.252485 
L 124.636876 180.532229 
L 125.171269 179.912731 
L 125.705662 180.22224 
L 126.240055 179.90301 
L 126.774448 179.106686 
L 127.308841 179.55302 
L 127.843234 178.495907 
L 128.377627 177.690508 
L 128.91202 179.418832 
L 129.446413 177.265253 
L 129.980806 177.587312 
L 130.515199 177.390019 
L 131.583985 175.020926 
L 132.118378 175.100871 
L 132.652771 177.849072 
L 133.187164 175.830421 
L 133.721557 174.466737 
L 134.25595 175.220287 
L 134.790343 174.2787 
L 135.324737 172.922997 
L 135.85913 174.37317 
L 136.393523 175.029208 
L 136.927916 173.326073 
L 137.462309 171.020241 
L 137.996702 170.55102 
L 138.531095 169.754321 
L 139.065488 170.250763 
L 139.599881 169.964032 
L 140.134274 169.328966 
L 141.20306 166.826468 
L 141.737453 167.33697 
L 142.271846 166.39564 
L 142.806239 166.142092 
L 143.340632 165.468025 
L 143.875025 165.079396 
L 144.409418 165.534218 
L 144.943811 162.988318 
L 146.012597 160.939717 
L 146.54699 157.755537 
L 147.615776 155.926691 
L 148.150169 156.67965 
L 148.684562 155.964534 
L 150.287742 146.508798 
L 150.822135 145.057563 
L 151.356528 142.77111 
L 154.028493 125.402798 
L 155.631672 112.241173 
L 156.166065 108.136552 
L 156.700458 99.952545 
L 159.906816 63.667726 
L 160.441209 59.025648 
L 160.975602 55.619208 
L 161.509995 51.06869 
L 163.113175 43.35035 
L 163.647568 41.522941 
L 164.181961 39.075563 
L 164.716354 35.675612 
L 165.250747 34.5734 
L 165.78514 34.394749 
L 166.319533 33.48 
L 166.853926 34.832056 
L 167.388319 35.578857 
L 167.922712 34.718414 
L 168.457105 34.994067 
L 168.991498 37.08884 
L 169.525891 37.461077 
L 170.060284 35.377465 
L 170.594677 34.632952 
L 171.663463 40.554363 
L 172.197856 41.588708 
L 172.732249 44.675399 
L 173.801035 47.438528 
L 174.869821 48.379484 
L 175.404214 50.162706 
L 175.938608 53.009244 
L 177.007394 56.621465 
L 177.541787 56.781702 
L 178.07618 58.961704 
L 179.144966 61.899633 
L 180.213752 66.441576 
L 180.748145 71.552826 
L 181.282538 74.951465 
L 181.816931 77.037616 
L 183.954503 87.468397 
L 184.488896 91.113919 
L 185.023289 96.609748 
L 186.092075 103.536712 
L 187.160861 111.860091 
L 189.832827 133.830299 
L 190.36722 139.150336 
L 190.901613 142.839538 
L 191.436006 149.110291 
L 191.970399 151.948683 
L 193.039185 158.70078 
L 193.573578 160.930134 
L 194.107971 163.656086 
L 194.642364 165.265458 
L 195.176757 166.000472 
L 195.71115 167.736864 
L 196.245543 171.295143 
L 196.779936 171.88781 
L 197.314329 173.832901 
L 197.848722 174.697467 
L 198.383115 174.597139 
L 198.917508 175.53557 
L 199.451901 176.247097 
L 199.986294 176.218219 
L 200.520687 178.082133 
L 201.05508 178.184658 
L 201.589473 178.146851 
L 202.123866 179.486633 
L 202.658259 179.220139 
L 203.192653 179.678829 
L 203.727046 179.882155 
L 204.261439 178.838856 
L 204.795832 179.982952 
L 205.330225 181.880476 
L 205.864618 181.975515 
L 206.399011 180.595099 
L 206.933404 181.521622 
L 207.467797 180.640833 
L 208.00219 180.693204 
L 208.536583 181.380619 
L 209.070976 182.664496 
L 209.605369 182.058898 
L 210.139762 181.912181 
L 210.674155 182.0131 
L 211.208548 181.548527 
L 211.742941 181.541948 
L 212.277334 180.400994 
L 212.811727 182.465406 
L 213.34612 181.226759 
L 213.880513 180.858747 
L 214.949299 180.90006 
L 216.018085 183.496539 
L 216.552479 180.582467 
L 217.086872 182.241128 
L 217.621265 181.482484 
L 218.155658 181.913257 
L 218.690051 183.517163 
L 219.224444 182.503064 
L 219.758837 182.449742 
L 220.29323 182.863971 
L 220.827623 182.718104 
L 221.362016 184.404736 
L 221.896409 184.171445 
L 222.430802 182.264816 
L 222.965195 182.612279 
L 224.033981 182.423512 
L 224.568374 182.362808 
L 225.102767 181.46523 
L 225.63716 182.824796 
L 226.171553 182.218063 
L 227.240339 182.865474 
L 227.774732 183.008204 
L 228.309125 182.632276 
L 228.843518 183.816756 
L 229.377911 183.927275 
L 229.912304 182.964261 
L 230.446698 183.614493 
L 230.981091 183.074368 
L 231.515484 183.491763 
L 233.118663 181.915089 
L 233.653056 182.813827 
L 234.187449 183.382099 
L 234.721842 183.294104 
L 235.256235 183.887291 
L 235.790628 182.944142 
L 236.325021 182.763918 
L 236.859414 182.709458 
L 237.393807 181.523456 
L 237.9282 182.046335 
L 238.462593 181.531582 
L 238.996986 181.622598 
L 240.065772 184.238772 
L 240.600165 183.666242 
L 241.134558 182.728544 
L 241.668951 182.678854 
L 242.203344 183.169426 
L 242.737737 183.189425 
L 243.27213 183.843385 
L 243.806524 184.013367 
L 244.340917 184.349169 
L 244.87531 183.184132 
L 245.944096 181.915344 
L 246.478489 182.268546 
L 247.012882 181.761746 
L 247.547275 181.601993 
L 248.081668 182.076338 
L 248.616061 183.946006 
L 249.150454 184.282099 
L 249.684847 183.639483 
L 250.21924 183.913662 
L 251.288026 182.444354 
L 251.822419 183.424786 
L 252.891205 183.317476 
L 253.425598 181.819166 
L 253.959991 183.920044 
L 255.028777 183.483209 
L 256.097563 183.657799 
L 256.631956 183.47772 
L 257.16635 183.831252 
L 257.16635 183.831252 
" clip-path="url(#p1c4e460f84)" style="fill: none; stroke-dasharray: 5.55,2.4; stroke-dashoffset: 0; stroke: #d62728; stroke-width: 1.5"/>
   </g>
   <g id="patch_8">
    <path d="M 40.5 192.24 
L 40.5 25.92 
" style="fill: none; stroke: #000000; stroke-width: 0.8; stroke-linejoin: miter; stroke-linecap: square"/>
   </g>
   <g id="patch_9">
    <path d="M 291.6 192.24 
L 291.6 25.92 
" style="fill: none; stroke: #000000; stroke-width: 0.8; stroke-linejoin: miter; stroke-linecap: square"/>
   </g>
   <g id="patch_10">
    <path d="M 40.5 192.24 
L 291.6 192.24 
" style="fill: none; stroke: #000000; stroke-width: 0.8; stroke-linejoin: miter; stroke-linecap: square"/>
   </g>
   <g id="patch_11">
    <path d="M 40.5 25.92 
L 291.6 25.92 
" style="fill: none; stroke: #000000; stroke-width: 0.8; stroke-linejoin: miter; stroke-linecap: square"/>
   </g>
   <g id="legend_2">
    <g id="patch_12">
     <path d="M 206.7 63.27625 
L 284.6 63.27625 
Q 286.6 63.27625 286.6 61.27625 
L 286.6 32.92 
Q 286.6 30.92 284.6 30.92 
L 206.7 30.92 
Q 204.7 30.92 204.7 32.92 
L 204.7 61.27625 
Q 204.7 63.27625 206.7 63.27625 
z
" style="fill: #ffffff; opacity: 0.8; stroke: #cccccc; stroke-linejoin: miter"/>
    </g>
    <g id="line2d_22">
     <path d="M 208.7 39.018437 
L 218.7 39.018437 
L 228.7 39.018437 
" style="fill: none; stroke-dasharray: 5.55,2.4; stroke-dashoffset: 0; stroke: #2ca02c; stroke-width: 1.5"/>
    </g>
    <g id="text_18">
     <!-- ODMR -->
     <g transform="translate(236.7 42.518437)scale(0.1 -0.1)">
      <defs>
       <path id="DejaVuSans-4f" d="M 2522 4238 
Q 1834 4238 1429 3725 
Q 1025 3213 1025 2328 
Q 1025 1447 1429 934 
Q 1834 422 2522 422 
Q 3209 422 3611 934 
Q 4013 1447 4013 2328 
Q 4013 3213 3611 3725 
Q 3209 4238 2522 4238 
z
M 2522 4750 
Q 3503 4750 4090 4092 
Q 4678 3434 4678 2328 
Q 4678 1225 4090 567 
Q 3503 -91 2522 -91 
Q 1538 -91 948 565 
Q 359 1222 359 2328 
Q 359 3434 948 4092 
Q 1538 4750 2522 4750 
z
" transform="scale(0.015625)"/>
       <path id="DejaVuSans-44" d="M 1259 4147 
L 1259 519 
L 2022 519 
Q 2988 519 3436 956 
Q 3884 1394 3884 2338 
Q 3884 3275 3436 3711 
Q 2988 4147 2022 4147 
L 1259 4147 
z
M 628 4666 
L 1925 4666 
Q 3281 4666 3915 4102 
Q 4550 3538 4550 2338 
Q 4550 1131 3912 565 
Q 3275 0 1925 0 
L 628 0 
L 628 4666 
z
" transform="scale(0.015625)"/>
       <path id="DejaVuSans-4d" d="M 628 4666 
L 1569 4666 
L 2759 1491 
L 3956 4666 
L 4897 4666 
L 4897 0 
L 4281 0 
L 4281 4097 
L 3078 897 
L 2444 897 
L 1241 4097 
L 1241 0 
L 628 0 
L 628 4666 
z
" transform="scale(0.015625)"/>
       <path id="DejaVuSans-52" d="M 2841 2188 
Q 3044 2119 3236 1894 
Q 3428 1669 3622 1275 
L 4263 0 
L 3584 0 
L 2988 1197 
Q 2756 1666 2539 1819 
Q 2322 1972 1947 1972 
L 1259 1972 
L 1259 0 
L 628 0 
L 628 4666 
L 2053 4666 
Q 2853 4666 3247 4331 
Q 3641 3997 3641 3322 
Q 3641 2881 3436 2590 
Q 3231 2300 2841 2188 
z
M 1259 4147 
L 1259 2491 
L 2053 2491 
Q 2509 2491 2742 2702 
Q 2975 2913 2975 3322 
Q 2975 3731 2742 3939 
Q 2509 4147 2053 4147 
L 1259 4147 
z
" transform="scale(0.015625)"/>
      </defs>
      <use xlink:href="#DejaVuSans-4f"/>
      <use xlink:href="#DejaVuSans-44" x="78.710938"/>
      <use xlink:href="#DejaVuSans-4d" x="155.712891"/>
      <use xlink:href="#DejaVuSans-52" x="241.992188"/>
     </g>
    </g>
    <g id="line2d_23">
     <path d="M 208.7 53.696562 
L 218.7 53.696562 
L 228.7 53.696562 
" style="fill: none; stroke-dasharray: 5.55,2.4; stroke-dashoffset: 0; stroke: #d62728; stroke-width: 1.5"/>
    </g>
    <g id="text_19">
     <!-- ODMR$\times 2$ -->
     <g transform="translate(236.7 57.196562)scale(0.1 -0.1)">
      <defs>
       <path id="DejaVuSans-d7" d="M 4488 3438 
L 3059 2003 
L 4488 575 
L 4116 197 
L 2681 1631 
L 1247 197 
L 878 575 
L 2303 2003 
L 878 3438 
L 1247 3816 
L 2681 2381 
L 4116 3816 
L 4488 3438 
z
" transform="scale(0.015625)"/>
      </defs>
      <use xlink:href="#DejaVuSans-4f" transform="translate(0 0.78125)"/>
      <use xlink:href="#DejaVuSans-44" transform="translate(78.710938 0.78125)"/>
      <use xlink:href="#DejaVuSans-4d" transform="translate(155.712891 0.78125)"/>
      <use xlink:href="#DejaVuSans-52" transform="translate(241.992188 0.78125)"/>
      <use xlink:href="#DejaVuSans-d7" transform="translate(311.474609 0.78125)"/>
      <use xlink:href="#DejaVuSans-32" transform="translate(395.263672 0.78125)"/>
     </g>
    </g>
   </g>
  </g>
 </g>
 <defs>
  <clipPath id="p1c4e460f84">
   <rect x="40.5" y="25.92" width="251.1" height="166.32"/>
  </clipPath>
 </defs>
</svg>
