<?xml version="1.0" encoding="utf-8" standalone="no"?>
<!DOCTYPE svg PUBLIC "-//W3C//DTD SVG 1.1//EN"
  "http://www.w3.org/Graphics/SVG/1.1/DTD/svg11.dtd">
<svg xmlns:xlink="http://www.w3.org/1999/xlink" width="432pt" height="288pt" viewBox="0 0 432 288" xmlns="http://www.w3.org/2000/svg" version="1.1">
 <metadata>
  <rdf:RDF xmlns:dc="http://purl.org/dc/elements/1.1/" xmlns:cc="http://creativecommons.org/ns#" xmlns:rdf="http://www.w3.org/1999/02/22-rdf-syntax-ns#">
   <cc:Work>
    <dc:type rdf:resource="http://purl.org/dc/dcmitype/StillImage"/>
    <dc:date>2022-08-07T14:11:16.205247</dc:date>
    <dc:format>image/svg+xml</dc:format>
    <dc:creator>
     <cc:Agent>
      <dc:title>Matplotlib v3.5.1, https://matplotlib.org/</dc:title>
     </cc:Agent>
    </dc:creator>
   </cc:Work>
  </rdf:RDF>
 </metadata>
 <defs>
  <style type="text/css">*{stroke-linejoin: round; stroke-linecap: butt}</style>
 </defs>
 <g id="figure_1">
  <g id="patch_1">
   <path d="M 0 288 
L 432 288 
L 432 0 
L 0 0 
z
" style="fill: #ffffff"/>
  </g>
  <g id="axes_1">
   <g id="patch_2">
    <path d="M 54 256.32 
L 388.8 256.32 
L 388.8 34.56 
L 54 34.56 
z
" style="fill: #ffffff"/>
   </g>
   <g id="matplotlib.axis_1">
    <g id="xtick_1">
     <g id="line2d_1">
      <defs>
       <path id="m0dbe9661f1" d="M 0 0 
L 0 3.5 
" style="stroke: #000000; stroke-width: 0.8"/>
      </defs>
      <g>
       <use xlink:href="#m0dbe9661f1" x="61.830115" y="256.32" style="stroke: #000000; stroke-width: 0.8"/>
      </g>
     </g>
     <g id="text_1">
      <!-- −50 -->
      <g transform="translate(46.001599 274.717656)scale(0.15 -0.15)">
       <defs>
        <path id="DejaVuSans-2212" d="M 678 2272 
L 4684 2272 
L 4684 1741 
L 678 1741 
L 678 2272 
z
" transform="scale(0.015625)"/>
        <path id="DejaVuSans-35" d="M 691 4666 
L 3169 4666 
L 3169 4134 
L 1269 4134 
L 1269 2991 
Q 1406 3038 1543 3061 
Q 1681 3084 1819 3084 
Q 2600 3084 3056 2656 
Q 3513 2228 3513 1497 
Q 3513 744 3044 326 
Q 2575 -91 1722 -91 
Q 1428 -91 1123 -41 
Q 819 9 494 109 
L 494 744 
Q 775 591 1075 516 
Q 1375 441 1709 441 
Q 2250 441 2565 725 
Q 2881 1009 2881 1497 
Q 2881 1984 2565 2268 
Q 2250 2553 1709 2553 
Q 1456 2553 1204 2497 
Q 953 2441 691 2322 
L 691 4666 
z
" transform="scale(0.015625)"/>
        <path id="DejaVuSans-30" d="M 2034 4250 
Q 1547 4250 1301 3770 
Q 1056 3291 1056 2328 
Q 1056 1369 1301 889 
Q 1547 409 2034 409 
Q 2525 409 2770 889 
Q 3016 1369 3016 2328 
Q 3016 3291 2770 3770 
Q 2525 4250 2034 4250 
z
M 2034 4750 
Q 2819 4750 3233 4129 
Q 3647 3509 3647 2328 
Q 3647 1150 3233 529 
Q 2819 -91 2034 -91 
Q 1250 -91 836 529 
Q 422 1150 422 2328 
Q 422 3509 836 4129 
Q 1250 4750 2034 4750 
z
" transform="scale(0.015625)"/>
       </defs>
       <use xlink:href="#DejaVuSans-2212"/>
       <use xlink:href="#DejaVuSans-35" x="83.789062"/>
       <use xlink:href="#DejaVuSans-30" x="147.412109"/>
      </g>
     </g>
    </g>
    <g id="xtick_2">
     <g id="line2d_2">
      <g>
       <use xlink:href="#m0dbe9661f1" x="142.798757" y="256.32" style="stroke: #000000; stroke-width: 0.8"/>
      </g>
     </g>
     <g id="text_2">
      <!-- −25 -->
      <g transform="translate(126.970241 274.717656)scale(0.15 -0.15)">
       <defs>
        <path id="DejaVuSans-32" d="M 1228 531 
L 3431 531 
L 3431 0 
L 469 0 
L 469 531 
Q 828 903 1448 1529 
Q 2069 2156 2228 2338 
Q 2531 2678 2651 2914 
Q 2772 3150 2772 3378 
Q 2772 3750 2511 3984 
Q 2250 4219 1831 4219 
Q 1534 4219 1204 4116 
Q 875 4013 500 3803 
L 500 4441 
Q 881 4594 1212 4672 
Q 1544 4750 1819 4750 
Q 2544 4750 2975 4387 
Q 3406 4025 3406 3419 
Q 3406 3131 3298 2873 
Q 3191 2616 2906 2266 
Q 2828 2175 2409 1742 
Q 1991 1309 1228 531 
z
" transform="scale(0.015625)"/>
       </defs>
       <use xlink:href="#DejaVuSans-2212"/>
       <use xlink:href="#DejaVuSans-32" x="83.789062"/>
       <use xlink:href="#DejaVuSans-35" x="147.412109"/>
      </g>
     </g>
    </g>
    <g id="xtick_3">
     <g id="line2d_3">
      <g>
       <use xlink:href="#m0dbe9661f1" x="223.767399" y="256.32" style="stroke: #000000; stroke-width: 0.8"/>
      </g>
     </g>
     <g id="text_3">
      <!-- 0 -->
      <g transform="translate(218.995524 274.717656)scale(0.15 -0.15)">
       <use xlink:href="#DejaVuSans-30"/>
      </g>
     </g>
    </g>
    <g id="xtick_4">
     <g id="line2d_4">
      <g>
       <use xlink:href="#m0dbe9661f1" x="304.736042" y="256.32" style="stroke: #000000; stroke-width: 0.8"/>
      </g>
     </g>
     <g id="text_4">
      <!-- 25 -->
      <g transform="translate(295.192292 274.717656)scale(0.15 -0.15)">
       <use xlink:href="#DejaVuSans-32"/>
       <use xlink:href="#DejaVuSans-35" x="63.623047"/>
      </g>
     </g>
    </g>
    <g id="xtick_5">
     <g id="line2d_5">
      <g>
       <use xlink:href="#m0dbe9661f1" x="385.704684" y="256.32" style="stroke: #000000; stroke-width: 0.8"/>
      </g>
     </g>
     <g id="text_5">
      <!-- 50 -->
      <g transform="translate(376.160934 274.717656)scale(0.15 -0.15)">
       <use xlink:href="#DejaVuSans-35"/>
       <use xlink:href="#DejaVuSans-30" x="63.623047"/>
      </g>
     </g>
    </g>
   </g>
   <g id="matplotlib.axis_2">
    <g id="ytick_1">
     <g id="line2d_6">
      <defs>
       <path id="mdc66118379" d="M 0 0 
L -3.5 0 
" style="stroke: #000000; stroke-width: 0.8"/>
      </defs>
      <g>
       <use xlink:href="#mdc66118379" x="54" y="241.136729" style="stroke: #000000; stroke-width: 0.8"/>
      </g>
     </g>
     <g id="text_6">
      <!-- 150 -->
      <g transform="translate(18.36875 246.835557)scale(0.15 -0.15)">
       <defs>
        <path id="DejaVuSans-31" d="M 794 531 
L 1825 531 
L 1825 4091 
L 703 3866 
L 703 4441 
L 1819 4666 
L 2450 4666 
L 2450 531 
L 3481 531 
L 3481 0 
L 794 0 
L 794 531 
z
" transform="scale(0.015625)"/>
       </defs>
       <use xlink:href="#DejaVuSans-31"/>
       <use xlink:href="#DejaVuSans-35" x="63.623047"/>
       <use xlink:href="#DejaVuSans-30" x="127.246094"/>
      </g>
     </g>
    </g>
    <g id="ytick_2">
     <g id="line2d_7">
      <g>
       <use xlink:href="#mdc66118379" x="54" y="194.636708" style="stroke: #000000; stroke-width: 0.8"/>
      </g>
     </g>
     <g id="text_7">
      <!-- 200 -->
      <g transform="translate(18.36875 200.335536)scale(0.15 -0.15)">
       <use xlink:href="#DejaVuSans-32"/>
       <use xlink:href="#DejaVuSans-30" x="63.623047"/>
       <use xlink:href="#DejaVuSans-30" x="127.246094"/>
      </g>
     </g>
    </g>
    <g id="ytick_3">
     <g id="line2d_8">
      <g>
       <use xlink:href="#mdc66118379" x="54" y="148.136686" style="stroke: #000000; stroke-width: 0.8"/>
      </g>
     </g>
     <g id="text_8">
      <!-- 250 -->
      <g transform="translate(18.36875 153.835515)scale(0.15 -0.15)">
       <use xlink:href="#DejaVuSans-32"/>
       <use xlink:href="#DejaVuSans-35" x="63.623047"/>
       <use xlink:href="#DejaVuSans-30" x="127.246094"/>
      </g>
     </g>
    </g>
    <g id="ytick_4">
     <g id="line2d_9">
      <g>
       <use xlink:href="#mdc66118379" x="54" y="101.636665" style="stroke: #000000; stroke-width: 0.8"/>
      </g>
     </g>
     <g id="text_9">
      <!-- 300 -->
      <g transform="translate(18.36875 107.335493)scale(0.15 -0.15)">
       <defs>
        <path id="DejaVuSans-33" d="M 2597 2516 
Q 3050 2419 3304 2112 
Q 3559 1806 3559 1356 
Q 3559 666 3084 287 
Q 2609 -91 1734 -91 
Q 1441 -91 1130 -33 
Q 819 25 488 141 
L 488 750 
Q 750 597 1062 519 
Q 1375 441 1716 441 
Q 2309 441 2620 675 
Q 2931 909 2931 1356 
Q 2931 1769 2642 2001 
Q 2353 2234 1838 2234 
L 1294 2234 
L 1294 2753 
L 1863 2753 
Q 2328 2753 2575 2939 
Q 2822 3125 2822 3475 
Q 2822 3834 2567 4026 
Q 2313 4219 1838 4219 
Q 1578 4219 1281 4162 
Q 984 4106 628 3988 
L 628 4550 
Q 988 4650 1302 4700 
Q 1616 4750 1894 4750 
Q 2613 4750 3031 4423 
Q 3450 4097 3450 3541 
Q 3450 3153 3228 2886 
Q 3006 2619 2597 2516 
z
" transform="scale(0.015625)"/>
       </defs>
       <use xlink:href="#DejaVuSans-33"/>
       <use xlink:href="#DejaVuSans-30" x="63.623047"/>
       <use xlink:href="#DejaVuSans-30" x="127.246094"/>
      </g>
     </g>
    </g>
    <g id="ytick_5">
     <g id="line2d_10">
      <g>
       <use xlink:href="#mdc66118379" x="54" y="55.136644" style="stroke: #000000; stroke-width: 0.8"/>
      </g>
     </g>
     <g id="text_10">
      <!-- 350 -->
      <g transform="translate(18.36875 60.835472)scale(0.15 -0.15)">
       <use xlink:href="#DejaVuSans-33"/>
       <use xlink:href="#DejaVuSans-35" x="63.623047"/>
       <use xlink:href="#DejaVuSans-30" x="127.246094"/>
      </g>
     </g>
    </g>
   </g>
   <g id="line2d_11">
    <defs>
     <path id="m315467186f" d="M 0 3 
C 0.795609 3 1.55874 2.683901 2.12132 2.12132 
C 2.683901 1.55874 3 0.795609 3 0 
C 3 -0.795609 2.683901 -1.55874 2.12132 -2.12132 
C 1.55874 -2.683901 0.795609 -3 0 -3 
C -0.795609 -3 -1.55874 -2.683901 -2.12132 -2.12132 
C -2.683901 -1.55874 -3 -0.795609 -3 0 
C -3 0.795609 -2.683901 1.55874 -2.12132 2.12132 
C -1.55874 2.683901 -0.795609 3 0 3 
z
" style="stroke: #1f77b4"/>
    </defs>
    <g clip-path="url(#p5392409172)">
     <use xlink:href="#m315467186f" x="69.218182" y="245.744585" style="fill-opacity: 0; stroke: #1f77b4"/>
     <use xlink:href="#m315467186f" x="75.834718" y="239.255231" style="fill-opacity: 0; stroke: #1f77b4"/>
     <use xlink:href="#m315467186f" x="82.451254" y="238.957275" style="fill-opacity: 0; stroke: #1f77b4"/>
     <use xlink:href="#m315467186f" x="89.067989" y="234.884932" style="fill-opacity: 0; stroke: #1f77b4"/>
     <use xlink:href="#m315467186f" x="95.684525" y="237.433223" style="fill-opacity: 0; stroke: #1f77b4"/>
     <use xlink:href="#m315467186f" x="102.301061" y="234.54346" style="fill-opacity: 0; stroke: #1f77b4"/>
     <use xlink:href="#m315467186f" x="108.917795" y="233.619092" style="fill-opacity: 0; stroke: #1f77b4"/>
     <use xlink:href="#m315467186f" x="115.534331" y="231.285787" style="fill-opacity: 0; stroke: #1f77b4"/>
     <use xlink:href="#m315467186f" x="122.150867" y="230.809052" style="fill-opacity: 0; stroke: #1f77b4"/>
     <use xlink:href="#m315467186f" x="128.767602" y="225.398854" style="fill-opacity: 0; stroke: #1f77b4"/>
     <use xlink:href="#m315467186f" x="135.384138" y="229.422996" style="fill-opacity: 0; stroke: #1f77b4"/>
     <use xlink:href="#m315467186f" x="142.000674" y="219.303107" style="fill-opacity: 0; stroke: #1f77b4"/>
     <use xlink:href="#m315467186f" x="148.617409" y="222.116769" style="fill-opacity: 0; stroke: #1f77b4"/>
     <use xlink:href="#m315467186f" x="155.233945" y="220.47607" style="fill-opacity: 0; stroke: #1f77b4"/>
     <use xlink:href="#m315467186f" x="161.850481" y="211.898879" style="fill-opacity: 0; stroke: #1f77b4"/>
     <use xlink:href="#m315467186f" x="168.467215" y="209.970612" style="fill-opacity: 0; stroke: #1f77b4"/>
     <use xlink:href="#m315467186f" x="175.083751" y="198.143891" style="fill-opacity: 0; stroke: #1f77b4"/>
     <use xlink:href="#m315467186f" x="181.700287" y="186.262169" style="fill-opacity: 0; stroke: #1f77b4"/>
     <use xlink:href="#m315467186f" x="188.317022" y="170.311383" style="fill-opacity: 0; stroke: #1f77b4"/>
     <use xlink:href="#m315467186f" x="194.933558" y="157.774681" style="fill-opacity: 0; stroke: #1f77b4"/>
     <use xlink:href="#m315467186f" x="201.550094" y="136.37654" style="fill-opacity: 0; stroke: #1f77b4"/>
     <use xlink:href="#m315467186f" x="208.166829" y="107.3493" style="fill-opacity: 0; stroke: #1f77b4"/>
     <use xlink:href="#m315467186f" x="214.783365" y="76.348913" style="fill-opacity: 0; stroke: #1f77b4"/>
     <use xlink:href="#m315467186f" x="221.399901" y="51.859852" style="fill-opacity: 0; stroke: #1f77b4"/>
     <use xlink:href="#m315467186f" x="228.016635" y="45.793693" style="fill-opacity: 0; stroke: #1f77b4"/>
     <use xlink:href="#m315467186f" x="234.633171" y="60.87961" style="fill-opacity: 0; stroke: #1f77b4"/>
     <use xlink:href="#m315467186f" x="241.249707" y="77.192256" style="fill-opacity: 0; stroke: #1f77b4"/>
     <use xlink:href="#m315467186f" x="247.866442" y="113.243856" style="fill-opacity: 0; stroke: #1f77b4"/>
     <use xlink:href="#m315467186f" x="254.482978" y="147.27286" style="fill-opacity: 0; stroke: #1f77b4"/>
     <use xlink:href="#m315467186f" x="261.099514" y="167.667931" style="fill-opacity: 0; stroke: #1f77b4"/>
     <use xlink:href="#m315467186f" x="267.716249" y="187.199952" style="fill-opacity: 0; stroke: #1f77b4"/>
     <use xlink:href="#m315467186f" x="274.332785" y="201.939914" style="fill-opacity: 0; stroke: #1f77b4"/>
     <use xlink:href="#m315467186f" x="280.949321" y="209.407667" style="fill-opacity: 0; stroke: #1f77b4"/>
     <use xlink:href="#m315467186f" x="287.566055" y="219.025403" style="fill-opacity: 0; stroke: #1f77b4"/>
     <use xlink:href="#m315467186f" x="294.182591" y="220.244298" style="fill-opacity: 0; stroke: #1f77b4"/>
     <use xlink:href="#m315467186f" x="300.799127" y="223.426628" style="fill-opacity: 0; stroke: #1f77b4"/>
     <use xlink:href="#m315467186f" x="307.415862" y="233.524" style="fill-opacity: 0; stroke: #1f77b4"/>
     <use xlink:href="#m315467186f" x="314.032398" y="227.716366" style="fill-opacity: 0; stroke: #1f77b4"/>
     <use xlink:href="#m315467186f" x="320.648934" y="233.815378" style="fill-opacity: 0; stroke: #1f77b4"/>
     <use xlink:href="#m315467186f" x="327.265669" y="240.521493" style="fill-opacity: 0; stroke: #1f77b4"/>
     <use xlink:href="#m315467186f" x="333.882205" y="239.444951" style="fill-opacity: 0; stroke: #1f77b4"/>
     <use xlink:href="#m315467186f" x="340.498741" y="242.637925" style="fill-opacity: 0; stroke: #1f77b4"/>
     <use xlink:href="#m315467186f" x="347.115475" y="242.69631" style="fill-opacity: 0; stroke: #1f77b4"/>
     <use xlink:href="#m315467186f" x="353.732011" y="242.367833" style="fill-opacity: 0; stroke: #1f77b4"/>
     <use xlink:href="#m315467186f" x="360.348548" y="243.505065" style="fill-opacity: 0; stroke: #1f77b4"/>
     <use xlink:href="#m315467186f" x="366.965282" y="246.24" style="fill-opacity: 0; stroke: #1f77b4"/>
     <use xlink:href="#m315467186f" x="373.581818" y="245.4536" style="fill-opacity: 0; stroke: #1f77b4"/>
    </g>
   </g>
   <g id="line2d_12">
    <path d="M 69.218182 242.642146 
L 75.834718 242.080864 
L 82.451254 241.44437 
L 89.067989 240.718793 
L 95.684525 239.887047 
L 102.301061 238.927743 
L 108.917795 237.813944 
L 115.534331 236.511523 
L 122.150867 234.976537 
L 128.767602 233.151907 
L 135.384138 230.962857 
L 142.000674 228.309798 
L 148.617409 225.058708 
L 155.233945 221.02747 
L 161.850481 215.965168 
L 168.467215 209.523851 
L 175.083751 201.221171 
L 181.700287 190.39467 
L 188.317022 176.170732 
L 194.933558 157.51742 
L 201.550094 133.566726 
L 208.166829 104.611188 
L 214.783365 74.134357 
L 221.399901 50.638006 
L 228.016635 44.64 
L 234.633171 59.417206 
L 241.249707 87.335914 
L 247.866442 117.878268 
L 254.482978 144.80847 
L 261.099514 166.355912 
L 267.716249 182.926525 
L 274.332785 195.531071 
L 280.949321 205.14974 
L 287.566055 212.56174 
L 294.182591 218.344293 
L 300.799127 222.915554 
L 307.415862 226.57651 
L 314.032398 229.544596 
L 320.648934 231.97883 
L 327.265669 233.996586 
L 333.882205 235.685411 
L 340.498741 237.111679 
L 347.115475 238.326169 
L 353.732011 239.368082 
L 360.348548 240.268182 
L 366.965282 241.050764 
L 373.581818 241.735145 
" clip-path="url(#p5392409172)" style="fill: none; stroke: #ff7f0e; stroke-width: 2; stroke-linecap: square"/>
   </g>
   <g id="patch_3">
    <path d="M 54 256.32 
L 54 34.56 
" style="fill: none; stroke: #000000; stroke-width: 0.8; stroke-linejoin: miter; stroke-linecap: square"/>
   </g>
   <g id="patch_4">
    <path d="M 388.8 256.32 
L 388.8 34.56 
" style="fill: none; stroke: #000000; stroke-width: 0.8; stroke-linejoin: miter; stroke-linecap: square"/>
   </g>
   <g id="patch_5">
    <path d="M 54 256.32 
L 388.8 256.32 
" style="fill: none; stroke: #000000; stroke-width: 0.8; stroke-linejoin: miter; stroke-linecap: square"/>
   </g>
   <g id="patch_6">
    <path d="M 54 34.56 
L 388.8 34.56 
" style="fill: none; stroke: #000000; stroke-width: 0.8; stroke-linejoin: miter; stroke-linecap: square"/>
   </g>
   <g id="legend_1">
    <g id="patch_7">
     <path d="M 61 71.91625 
L 158.701563 71.91625 
Q 160.701563 71.91625 160.701563 69.91625 
L 160.701563 41.56 
Q 160.701563 39.56 158.701563 39.56 
L 61 39.56 
Q 59 39.56 59 41.56 
L 59 69.91625 
Q 59 71.91625 61 71.91625 
z
" style="fill: #ffffff; opacity: 0.8; stroke: #cccccc; stroke-linejoin: miter"/>
    </g>
    <g id="line2d_13">
     <g>
      <use xlink:href="#m315467186f" x="73" y="47.658437" style="fill-opacity: 0; stroke: #1f77b4"/>
     </g>
    </g>
    <g id="text_11">
     <!-- Experiment -->
     <g transform="translate(91 51.158437)scale(0.1 -0.1)">
      <defs>
       <path id="DejaVuSans-45" d="M 628 4666 
L 3578 4666 
L 3578 4134 
L 1259 4134 
L 1259 2753 
L 3481 2753 
L 3481 2222 
L 1259 2222 
L 1259 531 
L 3634 531 
L 3634 0 
L 628 0 
L 628 4666 
z
" transform="scale(0.015625)"/>
       <path id="DejaVuSans-78" d="M 3513 3500 
L 2247 1797 
L 3578 0 
L 2900 0 
L 1881 1375 
L 863 0 
L 184 0 
L 1544 1831 
L 300 3500 
L 978 3500 
L 1906 2253 
L 2834 3500 
L 3513 3500 
z
" transform="scale(0.015625)"/>
       <path id="DejaVuSans-70" d="M 1159 525 
L 1159 -1331 
L 581 -1331 
L 581 3500 
L 1159 3500 
L 1159 2969 
Q 1341 3281 1617 3432 
Q 1894 3584 2278 3584 
Q 2916 3584 3314 3078 
Q 3713 2572 3713 1747 
Q 3713 922 3314 415 
Q 2916 -91 2278 -91 
Q 1894 -91 1617 61 
Q 1341 213 1159 525 
z
M 3116 1747 
Q 3116 2381 2855 2742 
Q 2594 3103 2138 3103 
Q 1681 3103 1420 2742 
Q 1159 2381 1159 1747 
Q 1159 1113 1420 752 
Q 1681 391 2138 391 
Q 2594 391 2855 752 
Q 3116 1113 3116 1747 
z
" transform="scale(0.015625)"/>
       <path id="DejaVuSans-65" d="M 3597 1894 
L 3597 1613 
L 953 1613 
Q 991 1019 1311 708 
Q 1631 397 2203 397 
Q 2534 397 2845 478 
Q 3156 559 3463 722 
L 3463 178 
Q 3153 47 2828 -22 
Q 2503 -91 2169 -91 
Q 1331 -91 842 396 
Q 353 884 353 1716 
Q 353 2575 817 3079 
Q 1281 3584 2069 3584 
Q 2775 3584 3186 3129 
Q 3597 2675 3597 1894 
z
M 3022 2063 
Q 3016 2534 2758 2815 
Q 2500 3097 2075 3097 
Q 1594 3097 1305 2825 
Q 1016 2553 972 2059 
L 3022 2063 
z
" transform="scale(0.015625)"/>
       <path id="DejaVuSans-72" d="M 2631 2963 
Q 2534 3019 2420 3045 
Q 2306 3072 2169 3072 
Q 1681 3072 1420 2755 
Q 1159 2438 1159 1844 
L 1159 0 
L 581 0 
L 581 3500 
L 1159 3500 
L 1159 2956 
Q 1341 3275 1631 3429 
Q 1922 3584 2338 3584 
Q 2397 3584 2469 3576 
Q 2541 3569 2628 3553 
L 2631 2963 
z
" transform="scale(0.015625)"/>
       <path id="DejaVuSans-69" d="M 603 3500 
L 1178 3500 
L 1178 0 
L 603 0 
L 603 3500 
z
M 603 4863 
L 1178 4863 
L 1178 4134 
L 603 4134 
L 603 4863 
z
" transform="scale(0.015625)"/>
       <path id="DejaVuSans-6d" d="M 3328 2828 
Q 3544 3216 3844 3400 
Q 4144 3584 4550 3584 
Q 5097 3584 5394 3201 
Q 5691 2819 5691 2113 
L 5691 0 
L 5113 0 
L 5113 2094 
Q 5113 2597 4934 2840 
Q 4756 3084 4391 3084 
Q 3944 3084 3684 2787 
Q 3425 2491 3425 1978 
L 3425 0 
L 2847 0 
L 2847 2094 
Q 2847 2600 2669 2842 
Q 2491 3084 2119 3084 
Q 1678 3084 1418 2786 
Q 1159 2488 1159 1978 
L 1159 0 
L 581 0 
L 581 3500 
L 1159 3500 
L 1159 2956 
Q 1356 3278 1631 3431 
Q 1906 3584 2284 3584 
Q 2666 3584 2933 3390 
Q 3200 3197 3328 2828 
z
" transform="scale(0.015625)"/>
       <path id="DejaVuSans-6e" d="M 3513 2113 
L 3513 0 
L 2938 0 
L 2938 2094 
Q 2938 2591 2744 2837 
Q 2550 3084 2163 3084 
Q 1697 3084 1428 2787 
Q 1159 2491 1159 1978 
L 1159 0 
L 581 0 
L 581 3500 
L 1159 3500 
L 1159 2956 
Q 1366 3272 1645 3428 
Q 1925 3584 2291 3584 
Q 2894 3584 3203 3211 
Q 3513 2838 3513 2113 
z
" transform="scale(0.015625)"/>
       <path id="DejaVuSans-74" d="M 1172 4494 
L 1172 3500 
L 2356 3500 
L 2356 3053 
L 1172 3053 
L 1172 1153 
Q 1172 725 1289 603 
Q 1406 481 1766 481 
L 2356 481 
L 2356 0 
L 1766 0 
Q 1100 0 847 248 
Q 594 497 594 1153 
L 594 3053 
L 172 3053 
L 172 3500 
L 594 3500 
L 594 4494 
L 1172 4494 
z
" transform="scale(0.015625)"/>
      </defs>
      <use xlink:href="#DejaVuSans-45"/>
      <use xlink:href="#DejaVuSans-78" x="63.183594"/>
      <use xlink:href="#DejaVuSans-70" x="122.363281"/>
      <use xlink:href="#DejaVuSans-65" x="185.839844"/>
      <use xlink:href="#DejaVuSans-72" x="247.363281"/>
      <use xlink:href="#DejaVuSans-69" x="288.476562"/>
      <use xlink:href="#DejaVuSans-6d" x="316.259766"/>
      <use xlink:href="#DejaVuSans-65" x="413.671875"/>
      <use xlink:href="#DejaVuSans-6e" x="475.195312"/>
      <use xlink:href="#DejaVuSans-74" x="538.574219"/>
     </g>
    </g>
    <g id="line2d_14">
     <path d="M 63 62.336562 
L 73 62.336562 
L 83 62.336562 
" style="fill: none; stroke: #ff7f0e; stroke-width: 2; stroke-linecap: square"/>
    </g>
    <g id="text_12">
     <!-- Lorentzian fit -->
     <g transform="translate(91 65.836562)scale(0.1 -0.1)">
      <defs>
       <path id="DejaVuSans-4c" d="M 628 4666 
L 1259 4666 
L 1259 531 
L 3531 531 
L 3531 0 
L 628 0 
L 628 4666 
z
" transform="scale(0.015625)"/>
       <path id="DejaVuSans-6f" d="M 1959 3097 
Q 1497 3097 1228 2736 
Q 959 2375 959 1747 
Q 959 1119 1226 758 
Q 1494 397 1959 397 
Q 2419 397 2687 759 
Q 2956 1122 2956 1747 
Q 2956 2369 2687 2733 
Q 2419 3097 1959 3097 
z
M 1959 3584 
Q 2709 3584 3137 3096 
Q 3566 2609 3566 1747 
Q 3566 888 3137 398 
Q 2709 -91 1959 -91 
Q 1206 -91 779 398 
Q 353 888 353 1747 
Q 353 2609 779 3096 
Q 1206 3584 1959 3584 
z
" transform="scale(0.015625)"/>
       <path id="DejaVuSans-7a" d="M 353 3500 
L 3084 3500 
L 3084 2975 
L 922 459 
L 3084 459 
L 3084 0 
L 275 0 
L 275 525 
L 2438 3041 
L 353 3041 
L 353 3500 
z
" transform="scale(0.015625)"/>
       <path id="DejaVuSans-61" d="M 2194 1759 
Q 1497 1759 1228 1600 
Q 959 1441 959 1056 
Q 959 750 1161 570 
Q 1363 391 1709 391 
Q 2188 391 2477 730 
Q 2766 1069 2766 1631 
L 2766 1759 
L 2194 1759 
z
M 3341 1997 
L 3341 0 
L 2766 0 
L 2766 531 
Q 2569 213 2275 61 
Q 1981 -91 1556 -91 
Q 1019 -91 701 211 
Q 384 513 384 1019 
Q 384 1609 779 1909 
Q 1175 2209 1959 2209 
L 2766 2209 
L 2766 2266 
Q 2766 2663 2505 2880 
Q 2244 3097 1772 3097 
Q 1472 3097 1187 3025 
Q 903 2953 641 2809 
L 641 3341 
Q 956 3463 1253 3523 
Q 1550 3584 1831 3584 
Q 2591 3584 2966 3190 
Q 3341 2797 3341 1997 
z
" transform="scale(0.015625)"/>
       <path id="DejaVuSans-20" transform="scale(0.015625)"/>
       <path id="DejaVuSans-66" d="M 2375 4863 
L 2375 4384 
L 1825 4384 
Q 1516 4384 1395 4259 
Q 1275 4134 1275 3809 
L 1275 3500 
L 2222 3500 
L 2222 3053 
L 1275 3053 
L 1275 0 
L 697 0 
L 697 3053 
L 147 3053 
L 147 3500 
L 697 3500 
L 697 3744 
Q 697 4328 969 4595 
Q 1241 4863 1831 4863 
L 2375 4863 
z
" transform="scale(0.015625)"/>
      </defs>
      <use xlink:href="#DejaVuSans-4c"/>
      <use xlink:href="#DejaVuSans-6f" x="53.962891"/>
      <use xlink:href="#DejaVuSans-72" x="115.144531"/>
      <use xlink:href="#DejaVuSans-65" x="154.007812"/>
      <use xlink:href="#DejaVuSans-6e" x="215.53125"/>
      <use xlink:href="#DejaVuSans-74" x="278.910156"/>
      <use xlink:href="#DejaVuSans-7a" x="318.119141"/>
      <use xlink:href="#DejaVuSans-69" x="370.609375"/>
      <use xlink:href="#DejaVuSans-61" x="398.392578"/>
      <use xlink:href="#DejaVuSans-6e" x="459.671875"/>
      <use xlink:href="#DejaVuSans-20" x="523.050781"/>
      <use xlink:href="#DejaVuSans-66" x="554.837891"/>
      <use xlink:href="#DejaVuSans-69" x="590.042969"/>
      <use xlink:href="#DejaVuSans-74" x="617.826172"/>
     </g>
    </g>
   </g>
  </g>
  <g id="axes_2">
   <g id="matplotlib.axis_3">
    <g id="ytick_6">
     <g id="line2d_15">
      <defs>
       <path id="md4d735461f" d="M 0 0 
L 3.5 0 
" style="stroke: #000000; stroke-width: 0.8"/>
      </defs>
      <g>
       <use xlink:href="#md4d735461f" x="388.8" y="223.496331" style="stroke: #000000; stroke-width: 0.8"/>
      </g>
     </g>
     <g id="text_13">
      <!-- 0.2 -->
      <g transform="translate(395.8 229.195159)scale(0.15 -0.15)">
       <defs>
        <path id="DejaVuSans-2e" d="M 684 794 
L 1344 794 
L 1344 0 
L 684 0 
L 684 794 
z
" transform="scale(0.015625)"/>
       </defs>
       <use xlink:href="#DejaVuSans-30"/>
       <use xlink:href="#DejaVuSans-2e" x="63.623047"/>
       <use xlink:href="#DejaVuSans-32" x="95.410156"/>
      </g>
     </g>
    </g>
    <g id="ytick_7">
     <g id="line2d_16">
      <g>
       <use xlink:href="#md4d735461f" x="388.8" y="178.782248" style="stroke: #000000; stroke-width: 0.8"/>
      </g>
     </g>
     <g id="text_14">
      <!-- 0.4 -->
      <g transform="translate(395.8 184.481077)scale(0.15 -0.15)">
       <defs>
        <path id="DejaVuSans-34" d="M 2419 4116 
L 825 1625 
L 2419 1625 
L 2419 4116 
z
M 2253 4666 
L 3047 4666 
L 3047 1625 
L 3713 1625 
L 3713 1100 
L 3047 1100 
L 3047 0 
L 2419 0 
L 2419 1100 
L 313 1100 
L 313 1709 
L 2253 4666 
z
" transform="scale(0.015625)"/>
       </defs>
       <use xlink:href="#DejaVuSans-30"/>
       <use xlink:href="#DejaVuSans-2e" x="63.623047"/>
       <use xlink:href="#DejaVuSans-34" x="95.410156"/>
      </g>
     </g>
    </g>
    <g id="ytick_8">
     <g id="line2d_17">
      <g>
       <use xlink:href="#md4d735461f" x="388.8" y="134.068166" style="stroke: #000000; stroke-width: 0.8"/>
      </g>
     </g>
     <g id="text_15">
      <!-- 0.6 -->
      <g transform="translate(395.8 139.766994)scale(0.15 -0.15)">
       <defs>
        <path id="DejaVuSans-36" d="M 2113 2584 
Q 1688 2584 1439 2293 
Q 1191 2003 1191 1497 
Q 1191 994 1439 701 
Q 1688 409 2113 409 
Q 2538 409 2786 701 
Q 3034 994 3034 1497 
Q 3034 2003 2786 2293 
Q 2538 2584 2113 2584 
z
M 3366 4563 
L 3366 3988 
Q 3128 4100 2886 4159 
Q 2644 4219 2406 4219 
Q 1781 4219 1451 3797 
Q 1122 3375 1075 2522 
Q 1259 2794 1537 2939 
Q 1816 3084 2150 3084 
Q 2853 3084 3261 2657 
Q 3669 2231 3669 1497 
Q 3669 778 3244 343 
Q 2819 -91 2113 -91 
Q 1303 -91 875 529 
Q 447 1150 447 2328 
Q 447 3434 972 4092 
Q 1497 4750 2381 4750 
Q 2619 4750 2861 4703 
Q 3103 4656 3366 4563 
z
" transform="scale(0.015625)"/>
       </defs>
       <use xlink:href="#DejaVuSans-30"/>
       <use xlink:href="#DejaVuSans-2e" x="63.623047"/>
       <use xlink:href="#DejaVuSans-36" x="95.410156"/>
      </g>
     </g>
    </g>
    <g id="ytick_9">
     <g id="line2d_18">
      <g>
       <use xlink:href="#md4d735461f" x="388.8" y="89.354083" style="stroke: #000000; stroke-width: 0.8"/>
      </g>
     </g>
     <g id="text_16">
      <!-- 0.8 -->
      <g transform="translate(395.8 95.052911)scale(0.15 -0.15)">
       <defs>
        <path id="DejaVuSans-38" d="M 2034 2216 
Q 1584 2216 1326 1975 
Q 1069 1734 1069 1313 
Q 1069 891 1326 650 
Q 1584 409 2034 409 
Q 2484 409 2743 651 
Q 3003 894 3003 1313 
Q 3003 1734 2745 1975 
Q 2488 2216 2034 2216 
z
M 1403 2484 
Q 997 2584 770 2862 
Q 544 3141 544 3541 
Q 544 4100 942 4425 
Q 1341 4750 2034 4750 
Q 2731 4750 3128 4425 
Q 3525 4100 3525 3541 
Q 3525 3141 3298 2862 
Q 3072 2584 2669 2484 
Q 3125 2378 3379 2068 
Q 3634 1759 3634 1313 
Q 3634 634 3220 271 
Q 2806 -91 2034 -91 
Q 1263 -91 848 271 
Q 434 634 434 1313 
Q 434 1759 690 2068 
Q 947 2378 1403 2484 
z
M 1172 3481 
Q 1172 3119 1398 2916 
Q 1625 2713 2034 2713 
Q 2441 2713 2670 2916 
Q 2900 3119 2900 3481 
Q 2900 3844 2670 4047 
Q 2441 4250 2034 4250 
Q 1625 4250 1398 4047 
Q 1172 3844 1172 3481 
z
" transform="scale(0.015625)"/>
       </defs>
       <use xlink:href="#DejaVuSans-30"/>
       <use xlink:href="#DejaVuSans-2e" x="63.623047"/>
       <use xlink:href="#DejaVuSans-38" x="95.410156"/>
      </g>
     </g>
    </g>
    <g id="ytick_10">
     <g id="line2d_19">
      <g>
       <use xlink:href="#md4d735461f" x="388.8" y="44.64" style="stroke: #000000; stroke-width: 0.8"/>
      </g>
     </g>
     <g id="text_17">
      <!-- 1.0 -->
      <g transform="translate(395.8 50.338828)scale(0.15 -0.15)">
       <use xlink:href="#DejaVuSans-31"/>
       <use xlink:href="#DejaVuSans-2e" x="63.623047"/>
       <use xlink:href="#DejaVuSans-30" x="95.410156"/>
      </g>
     </g>
    </g>
   </g>
   <g id="line2d_20">
    <path d="M 142.798757 245.264998 
L 143.155019 244.571464 
L 143.511281 242.724698 
L 143.867543 241.935834 
L 144.223805 243.76798 
L 144.580067 243.825446 
L 144.936329 244.917217 
L 145.292591 244.671801 
L 145.648853 244.16699 
L 146.005115 242.402839 
L 146.361377 242.071306 
L 146.717639 242.738746 
L 147.073901 244.294313 
L 147.786425 244.772531 
L 148.142687 245.505515 
L 148.498949 244.033322 
L 148.855212 243.944341 
L 149.211474 241.871872 
L 149.567736 243.26779 
L 149.923998 242.807153 
L 150.28026 242.962883 
L 150.992784 245.513198 
L 151.705308 243.65465 
L 152.06157 241.753825 
L 152.417832 243.255759 
L 152.774094 243.131708 
L 153.130356 243.524712 
L 153.486618 244.913911 
L 153.84288 244.715289 
L 154.199142 245.567502 
L 154.555404 245.1702 
L 155.267928 243.141226 
L 155.62419 244.975856 
L 155.980452 243.398358 
L 156.336714 243.972062 
L 156.692976 243.8818 
L 157.049238 244.274494 
L 157.4055 243.322347 
L 157.761762 242.942967 
L 158.118024 244.152174 
L 158.474286 243.2942 
L 158.830548 243.867462 
L 159.18681 244.176206 
L 159.543072 243.804128 
L 159.899334 243.265741 
L 160.255596 245.161974 
L 160.611858 246.184076 
L 160.96812 244.23277 
L 161.324382 243.231481 
L 161.680644 244.16883 
L 162.036906 243.263518 
L 162.393169 244.029365 
L 162.749431 242.863079 
L 163.461955 244.833847 
L 163.818217 244.32565 
L 164.174479 244.229022 
L 164.530741 243.190621 
L 164.887003 244.351016 
L 165.243265 243.645795 
L 165.599527 243.913838 
L 165.955789 243.579013 
L 166.312051 244.327722 
L 166.668313 244.638211 
L 167.380837 242.155466 
L 168.093361 245.957038 
L 168.449623 244.258003 
L 168.805885 245.796356 
L 169.162147 244.852527 
L 169.518409 243.187464 
L 169.874671 242.9408 
L 170.587195 245.248542 
L 170.943457 244.092924 
L 171.299719 244.761144 
L 171.655981 242.772431 
L 172.012243 244.425554 
L 172.368505 245.031019 
L 172.724767 243.451846 
L 173.081029 241.140887 
L 173.437291 242.369119 
L 173.793553 244.54249 
L 174.149815 245.031707 
L 174.506077 244.058332 
L 174.862339 244.121996 
L 175.218601 246.014701 
L 175.931126 242.423033 
L 176.287388 242.014087 
L 176.999912 243.569819 
L 177.356174 244.393738 
L 177.712436 244.536702 
L 178.068698 244.237617 
L 178.42496 244.373837 
L 178.781222 244.849166 
L 179.137484 242.641716 
L 179.493746 243.743641 
L 179.850008 243.069022 
L 180.20627 244.472467 
L 180.562532 244.686539 
L 180.918794 245.161368 
L 181.275056 244.649209 
L 181.631318 242.833607 
L 181.98758 244.231267 
L 182.343842 244.258449 
L 182.700104 243.341967 
L 183.056366 242.918913 
L 183.412628 244.832077 
L 183.76889 244.873292 
L 184.125152 243.22091 
L 184.481414 243.161097 
L 184.837676 242.239138 
L 185.193938 242.30251 
L 185.5502 243.431624 
L 185.906462 244.987001 
L 186.262724 242.611549 
L 186.618986 244.086927 
L 186.975248 244.16914 
L 187.33151 244.072656 
L 187.687772 245.658213 
L 188.044034 245.374912 
L 189.11282 242.868642 
L 189.469083 243.223912 
L 189.825345 242.692195 
L 190.537869 242.936385 
L 190.894131 242.736651 
L 191.250393 243.779784 
L 191.962917 243.9936 
L 192.319179 244.029256 
L 192.675441 244.513427 
L 193.031703 244.405903 
L 193.387965 241.902036 
L 193.744227 240.747828 
L 194.100489 241.596062 
L 194.456751 241.463747 
L 194.813013 241.505233 
L 195.169275 239.616923 
L 195.525537 240.150812 
L 196.238061 239.003313 
L 196.594323 240.709639 
L 196.950585 239.883641 
L 197.306847 240.29632 
L 197.663109 239.870681 
L 198.019371 238.808915 
L 198.375633 239.404026 
L 199.088157 236.920677 
L 199.444419 239.22511 
L 199.800681 236.353671 
L 200.156943 236.783083 
L 200.513205 236.520026 
L 201.225729 233.361234 
L 201.581991 233.467828 
L 201.938253 237.132096 
L 202.294515 234.440561 
L 202.650777 232.622316 
L 203.00704 233.627049 
L 203.363302 232.371599 
L 203.719564 230.563996 
L 204.075826 232.497559 
L 204.432088 233.372277 
L 204.78835 231.101431 
L 205.144612 228.026987 
L 205.500874 227.40136 
L 205.857136 226.339095 
L 206.213398 227.001018 
L 206.56966 226.618709 
L 206.925922 225.771954 
L 207.638446 222.435291 
L 207.994708 223.11596 
L 208.35097 221.860854 
L 208.707232 221.522789 
L 209.063494 220.624033 
L 209.419756 220.105861 
L 209.776018 220.71229 
L 210.13228 217.317758 
L 210.844804 214.586289 
L 211.201066 210.340715 
L 211.91359 207.902255 
L 212.269852 208.9062 
L 212.626114 207.952712 
L 213.6949 195.345064 
L 214.051162 193.410084 
L 214.407424 190.36148 
L 216.544997 161.07208 
L 217.613783 144.182069 
L 218.326307 125.145382 
L 219.038831 108.777774 
L 220.463879 78.700864 
L 220.820141 74.158944 
L 221.176403 68.091587 
L 222.601451 55.363922 
L 222.957713 52.100751 
L 223.313975 47.567483 
L 223.670237 46.097866 
L 224.026499 45.859665 
L 224.382761 44.64 
L 224.739023 46.442742 
L 225.095285 47.438475 
L 225.451547 46.291218 
L 225.807809 46.658757 
L 226.164071 49.451787 
L 226.520333 49.948102 
L 226.876595 47.169953 
L 227.232857 46.177269 
L 227.945381 54.072484 
L 228.301643 55.45161 
L 228.657905 59.567199 
L 229.370429 63.25137 
L 230.082953 64.505979 
L 230.439216 66.883609 
L 230.795478 70.678991 
L 231.508002 75.495287 
L 231.864264 75.708937 
L 232.576788 80.680487 
L 232.93305 82.532844 
L 233.645574 88.588768 
L 234.001836 95.403768 
L 234.358098 99.935286 
L 235.070622 106.237656 
L 235.783146 113.893436 
L 236.139408 116.62453 
L 236.49567 121.485226 
L 236.851932 128.812997 
L 237.564456 138.048949 
L 239.345766 166.875806 
L 240.05829 178.440399 
L 241.127076 198.813721 
L 241.8396 207.30262 
L 242.552124 214.573512 
L 242.908386 218.208114 
L 243.264648 220.353945 
L 243.62091 221.333963 
L 243.977173 223.649152 
L 244.333435 228.393524 
L 244.689697 229.183746 
L 245.045959 231.777201 
L 245.402221 232.929956 
L 245.758483 232.796185 
L 246.471007 234.99613 
L 246.827269 234.957625 
L 247.183531 237.442845 
L 247.539793 237.579544 
L 247.896055 237.529135 
L 248.252317 239.315511 
L 248.608579 238.960186 
L 248.964841 239.571772 
L 249.321103 239.842874 
L 249.677365 238.451809 
L 250.033627 239.97727 
L 250.389889 242.507302 
L 250.746151 242.63402 
L 251.102413 240.793466 
L 251.458675 242.028829 
L 251.814937 240.854444 
L 252.171199 240.924272 
L 252.527461 241.840825 
L 252.883723 243.552662 
L 253.239985 242.745197 
L 253.596247 242.549574 
L 253.952509 242.684134 
L 254.308771 242.064703 
L 254.665033 242.055931 
L 255.021295 240.534658 
L 255.377557 243.287208 
L 255.733819 241.635679 
L 256.090081 241.144995 
L 256.802605 241.20008 
L 257.51513 244.662052 
L 257.871392 240.776622 
L 258.227654 242.98817 
L 258.583916 241.976645 
L 258.940178 242.551009 
L 259.29644 244.689551 
L 259.652702 243.337418 
L 260.008964 243.266323 
L 260.365226 243.818628 
L 260.721488 243.624138 
L 261.07775 245.872982 
L 261.434012 245.561926 
L 261.790274 243.019755 
L 262.146536 243.483039 
L 262.85906 243.23135 
L 263.215322 243.15041 
L 263.571584 241.95364 
L 263.927846 243.766394 
L 264.284108 242.957417 
L 264.996632 243.820632 
L 265.352894 244.010938 
L 265.709156 243.509701 
L 266.065418 245.089007 
L 266.42168 245.236366 
L 266.777942 243.952347 
L 267.134204 244.819325 
L 267.490466 244.099157 
L 267.846728 244.655684 
L 268.915514 242.553452 
L 269.271776 243.75177 
L 269.628038 244.509466 
L 269.9843 244.392139 
L 270.340562 245.183055 
L 270.696824 243.925523 
L 271.053087 243.685224 
L 271.409349 243.61261 
L 271.765611 242.031275 
L 272.121873 242.728446 
L 272.478135 242.042109 
L 272.834397 242.163464 
L 273.546921 245.651696 
L 273.903183 244.888322 
L 274.259445 243.638058 
L 274.615707 243.571805 
L 274.971969 244.225901 
L 275.328231 244.252566 
L 275.684493 245.124514 
L 276.040755 245.351156 
L 276.397017 245.798892 
L 276.753279 244.245509 
L 277.465803 242.553792 
L 277.822065 243.024728 
L 278.178327 242.348994 
L 278.534589 242.135991 
L 278.890851 242.76845 
L 279.247113 245.261341 
L 279.603375 245.709465 
L 279.959637 244.852644 
L 280.315899 245.218216 
L 281.028423 243.259138 
L 281.384685 244.566381 
L 282.097209 244.423302 
L 282.453471 242.425555 
L 282.809733 245.226726 
L 283.522257 244.644279 
L 284.234781 244.877065 
L 284.591044 244.63696 
L 284.947306 245.108335 
L 285.303568 244.681434 
L 285.65983 243.986086 
L 286.016092 244.135329 
L 286.372354 242.583055 
L 286.728616 243.382614 
L 287.084878 243.279825 
L 287.44114 245.028994 
L 287.797402 243.478149 
L 288.509926 243.49483 
L 288.866188 246.172599 
L 289.22245 246.062887 
L 289.578712 243.994351 
L 289.934974 245.2585 
L 290.647498 242.804436 
L 291.00376 244.352989 
L 291.360022 243.483008 
L 291.716284 244.174539 
L 292.072546 241.610504 
L 292.428808 241.945124 
L 292.78507 243.832638 
L 293.141332 244.624952 
L 293.497594 243.21789 
L 293.853856 244.749645 
L 294.210118 244.647219 
L 294.56638 243.030661 
L 295.278904 246.027399 
L 295.635166 243.940451 
L 295.991428 244.911699 
L 296.34769 243.528778 
L 296.703952 245.074393 
L 297.416476 244.802951 
L 297.772738 245.346776 
L 298.129001 242.785518 
L 298.485263 242.937796 
L 298.841525 242.089108 
L 299.197787 243.570308 
L 299.554049 243.645244 
L 299.910311 244.264629 
L 300.266573 245.689615 
L 300.622835 244.042206 
L 300.979097 243.061949 
L 301.335359 243.775857 
L 302.047883 242.868834 
L 302.404145 244.108896 
L 302.760407 242.878395 
L 303.116669 243.809665 
L 303.472931 243.083657 
L 303.829193 243.333387 
L 304.185455 242.4133 
L 304.541717 242.873156 
L 304.897979 244.419712 
L 305.254241 244.0885 
L 305.610503 241.943868 
L 305.966765 242.547769 
L 306.679289 244.452292 
L 307.035551 244.700981 
L 307.391813 244.637878 
L 307.748075 244.009426 
L 308.104337 242.557018 
L 308.460599 243.821155 
L 308.816861 244.60205 
L 309.173123 244.027153 
L 309.529385 243.184844 
L 310.241909 246.24 
L 310.598171 242.45971 
L 311.310695 245.133539 
L 311.666958 245.165415 
L 312.02322 244.726186 
L 312.379482 243.361585 
L 312.735744 244.474101 
L 313.092006 243.485368 
L 313.448268 243.947673 
L 313.80453 244.776637 
L 314.517054 242.672059 
L 314.873316 243.932025 
L 315.229578 243.123011 
L 315.942102 244.786897 
L 316.298364 244.925569 
L 316.654626 245.264469 
L 317.010888 243.750807 
L 317.36715 243.524461 
L 318.079674 244.803912 
L 318.435936 244.965098 
L 318.792198 243.480441 
L 319.14846 242.650609 
L 319.504722 243.747254 
L 319.860984 242.604993 
L 320.217246 243.696906 
L 320.573508 244.398934 
L 320.92977 245.624369 
L 320.92977 245.624369 
" clip-path="url(#p5392409172)" style="fill: none; stroke-dasharray: 5.55,2.4; stroke-dashoffset: 0; stroke: #2ca02c; stroke-width: 1.5"/>
   </g>
   <g id="line2d_21">
    <path d="M 109.260447 245.264998 
L 109.764278 244.571464 
L 110.268108 242.724698 
L 110.771939 241.935834 
L 111.27577 243.76798 
L 111.7796 243.825446 
L 112.283431 244.917217 
L 112.787261 244.671801 
L 113.291092 244.16699 
L 113.794923 242.402839 
L 114.298753 242.071306 
L 114.802584 242.738746 
L 115.306414 244.294313 
L 116.314076 244.772531 
L 116.817906 245.505515 
L 117.321737 244.033322 
L 117.825567 243.944341 
L 118.329398 241.871872 
L 118.833228 243.26779 
L 119.337059 242.807153 
L 119.84089 242.962883 
L 120.34472 244.417269 
L 120.848551 245.513198 
L 121.352381 244.413477 
L 121.856212 243.65465 
L 122.360043 241.753825 
L 122.863873 243.255759 
L 123.367704 243.131708 
L 123.871534 243.524712 
L 124.375365 244.913911 
L 124.879196 244.715289 
L 125.383026 245.567502 
L 125.886857 245.1702 
L 126.894518 243.141226 
L 127.398348 244.975856 
L 127.902179 243.398358 
L 128.40601 243.972062 
L 128.90984 243.8818 
L 129.413671 244.274494 
L 129.917501 243.322347 
L 130.421332 242.942967 
L 130.925163 244.152174 
L 131.428993 243.2942 
L 131.932824 243.867462 
L 132.436654 244.176206 
L 132.940485 243.804128 
L 133.444316 243.265741 
L 133.948146 245.161974 
L 134.451977 246.184076 
L 134.955807 244.23277 
L 135.459638 243.231481 
L 135.963469 244.16883 
L 136.467299 243.263518 
L 136.97113 244.029365 
L 137.47496 242.863079 
L 138.482621 244.833847 
L 138.986452 244.32565 
L 139.490283 244.229022 
L 139.994113 243.190621 
L 140.497944 244.351016 
L 141.001774 243.645795 
L 141.505605 243.913838 
L 142.009436 243.579013 
L 142.513266 244.327722 
L 143.017097 244.638211 
L 144.024758 242.155466 
L 145.032419 245.957038 
L 145.53625 244.258003 
L 146.04008 245.796356 
L 146.543911 244.852527 
L 147.047741 243.187464 
L 147.551572 242.9408 
L 148.559233 245.248542 
L 149.063064 244.092924 
L 149.566894 244.761144 
L 150.070725 242.772431 
L 150.574556 244.425554 
L 151.078386 245.031019 
L 151.582217 243.451846 
L 152.086047 241.140887 
L 152.589878 242.369119 
L 153.093709 244.54249 
L 153.597539 245.031707 
L 154.10137 244.058332 
L 154.6052 244.121996 
L 155.109031 246.014701 
L 156.116692 242.423033 
L 156.620523 242.014087 
L 157.124353 242.681977 
L 158.132014 244.393738 
L 158.635845 244.536702 
L 159.139676 244.237617 
L 159.643506 244.373837 
L 160.147337 244.849166 
L 160.651167 242.641716 
L 161.154998 243.743641 
L 161.658829 243.069022 
L 162.162659 244.472467 
L 162.66649 244.686539 
L 163.17032 245.161368 
L 163.674151 244.649209 
L 164.177982 242.833607 
L 164.681812 244.231267 
L 165.185643 244.258449 
L 165.689473 243.341967 
L 166.193304 242.918913 
L 166.697134 244.832077 
L 167.200965 244.873292 
L 167.704796 243.22091 
L 168.208626 243.161097 
L 168.712457 242.239138 
L 169.216287 242.30251 
L 169.720118 243.431624 
L 170.223949 244.987001 
L 170.727779 242.611549 
L 171.23161 244.086927 
L 171.73544 244.16914 
L 172.239271 244.072656 
L 172.743102 245.658213 
L 173.246932 245.374912 
L 174.758424 242.868642 
L 175.262254 243.223912 
L 175.766085 242.692195 
L 176.773746 242.936385 
L 177.277577 242.736651 
L 177.781407 243.779784 
L 178.789069 243.9936 
L 179.292899 244.029256 
L 179.79673 244.513427 
L 180.30056 244.405903 
L 180.804391 241.902036 
L 181.308222 240.747828 
L 181.812052 241.596062 
L 182.315883 241.463747 
L 182.819713 241.505233 
L 183.323544 239.616923 
L 183.827374 240.150812 
L 184.835036 239.003313 
L 185.338866 240.709639 
L 185.842697 239.883641 
L 186.346527 240.29632 
L 186.850358 239.870681 
L 187.354189 238.808915 
L 187.858019 239.404026 
L 188.36185 237.994543 
L 188.86568 236.920677 
L 189.369511 239.22511 
L 189.873342 236.353671 
L 190.377172 236.783083 
L 190.881003 236.520026 
L 191.888664 233.361234 
L 192.392495 233.467828 
L 192.896325 237.132096 
L 193.400156 234.440561 
L 193.903986 232.622316 
L 194.407817 233.627049 
L 194.911647 232.371599 
L 195.415478 230.563996 
L 195.919309 232.497559 
L 196.423139 233.372277 
L 196.92697 231.101431 
L 197.4308 228.026987 
L 197.934631 227.40136 
L 198.438462 226.339095 
L 198.942292 227.001018 
L 199.446123 226.618709 
L 199.949953 225.771954 
L 200.957615 222.435291 
L 201.461445 223.11596 
L 201.965276 221.860854 
L 202.469106 221.522789 
L 202.972937 220.624033 
L 203.476767 220.105861 
L 203.980598 220.71229 
L 204.484429 217.317758 
L 205.49209 214.586289 
L 205.99592 210.340715 
L 207.003582 207.902255 
L 207.507412 208.9062 
L 208.011243 207.952712 
L 209.522735 195.345064 
L 210.026565 193.410084 
L 210.530396 190.36148 
L 213.049549 167.203731 
L 214.56104 149.654897 
L 215.064871 144.182069 
L 215.568702 133.27006 
L 218.591685 84.890301 
L 219.095516 78.700864 
L 219.599346 74.158944 
L 220.103177 68.091587 
L 221.614669 57.800466 
L 222.118499 55.363922 
L 222.62233 52.100751 
L 223.12616 47.567483 
L 223.629991 46.097866 
L 224.133822 45.859665 
L 224.637652 44.64 
L 225.141483 46.442742 
L 225.645313 47.438475 
L 226.149144 46.291218 
L 226.652975 46.658757 
L 227.156805 49.451787 
L 227.660636 49.948102 
L 228.164466 47.169953 
L 228.668297 46.177269 
L 229.675958 54.072484 
L 230.179789 55.45161 
L 230.683619 59.567199 
L 231.69128 63.25137 
L 232.195111 63.980487 
L 232.698942 64.505979 
L 233.202772 66.883609 
L 233.706603 70.678991 
L 234.714264 75.495287 
L 235.218095 75.708937 
L 235.721925 78.615605 
L 236.729586 82.532844 
L 237.737248 88.588768 
L 238.241078 95.403768 
L 238.744909 99.935286 
L 239.248739 102.716822 
L 241.264062 116.62453 
L 241.767892 121.485226 
L 242.271723 128.812997 
L 243.279384 138.048949 
L 244.287045 149.146788 
L 246.806198 178.440399 
L 247.310029 185.533782 
L 247.813859 190.452717 
L 248.31769 198.813721 
L 248.821521 202.598244 
L 249.829182 211.60104 
L 251.340673 220.353945 
L 251.844504 221.333963 
L 252.348335 223.649152 
L 252.852165 228.393524 
L 253.355996 229.183746 
L 253.859826 231.777201 
L 254.363657 232.929956 
L 254.867488 232.796185 
L 255.371318 234.047427 
L 255.875149 234.99613 
L 256.378979 234.957625 
L 256.88281 237.442845 
L 257.386641 237.579544 
L 257.890471 237.529135 
L 258.394302 239.315511 
L 258.898132 238.960186 
L 259.401963 239.571772 
L 259.905793 239.842874 
L 260.409624 238.451809 
L 260.913455 239.97727 
L 261.417285 242.507302 
L 261.921116 242.63402 
L 262.424946 240.793466 
L 262.928777 242.028829 
L 263.432608 240.854444 
L 263.936438 240.924272 
L 264.440269 241.840825 
L 264.944099 243.552662 
L 265.44793 242.745197 
L 265.951761 242.549574 
L 266.455591 242.684134 
L 266.959422 242.064703 
L 267.463252 242.055931 
L 267.967083 240.534658 
L 268.470914 243.287208 
L 268.974744 241.635679 
L 269.478575 241.144995 
L 270.486236 241.20008 
L 271.493897 244.662052 
L 271.997728 240.776622 
L 272.501558 242.98817 
L 273.005389 241.976645 
L 273.509219 242.551009 
L 274.01305 244.689551 
L 274.516881 243.337418 
L 275.020711 243.266323 
L 275.524542 243.818628 
L 276.028372 243.624138 
L 276.532203 245.872982 
L 277.036034 245.561926 
L 277.539864 243.019755 
L 278.043695 243.483039 
L 279.051356 243.23135 
L 279.555186 243.15041 
L 280.059017 241.95364 
L 280.562848 243.766394 
L 281.066678 242.957417 
L 282.074339 243.820632 
L 282.57817 244.010938 
L 283.082001 243.509701 
L 283.585831 245.089007 
L 284.089662 245.236366 
L 284.593492 243.952347 
L 285.097323 244.819325 
L 285.601154 244.099157 
L 286.104984 244.655684 
L 287.616476 242.553452 
L 288.120306 243.75177 
L 288.624137 244.509466 
L 289.127968 244.392139 
L 289.631798 245.183055 
L 290.135629 243.925523 
L 290.639459 243.685224 
L 291.14329 243.61261 
L 291.647121 242.031275 
L 292.150951 242.728446 
L 292.654782 242.042109 
L 293.158612 242.163464 
L 294.166274 245.651696 
L 294.670104 244.888322 
L 295.173935 243.638058 
L 295.677765 243.571805 
L 296.181596 244.225901 
L 296.685427 244.252566 
L 297.189257 245.124514 
L 297.693088 245.351156 
L 298.196918 245.798892 
L 298.700749 244.245509 
L 299.70841 242.553792 
L 300.212241 243.024728 
L 300.716071 242.348994 
L 301.219902 242.135991 
L 301.723732 242.76845 
L 302.227563 245.261341 
L 302.731394 245.709465 
L 303.235224 244.852644 
L 303.739055 245.218216 
L 304.746716 243.259138 
L 305.250547 244.566381 
L 306.258208 244.423302 
L 306.762038 242.425555 
L 307.265869 245.226726 
L 307.769699 244.860731 
L 308.27353 244.644279 
L 309.281191 244.877065 
L 309.785022 244.63696 
L 310.288852 245.108335 
L 310.792683 244.681434 
L 311.296514 243.986086 
L 311.800344 244.135329 
L 312.304175 242.583055 
L 312.808005 243.382614 
L 313.311836 243.279825 
L 313.815667 245.028994 
L 314.319497 243.478149 
L 315.327158 243.49483 
L 315.830989 246.172599 
L 316.334819 246.062887 
L 316.83865 243.994351 
L 317.342481 245.2585 
L 318.350142 242.804436 
L 318.853972 244.352989 
L 319.357803 243.483008 
L 319.861634 244.174539 
L 320.365464 241.610504 
L 320.869295 241.945124 
L 321.373125 243.832638 
L 321.876956 244.624952 
L 322.380787 243.21789 
L 322.884617 244.749645 
L 323.388448 244.647219 
L 323.892278 243.030661 
L 324.89994 246.027399 
L 325.40377 243.940451 
L 325.907601 244.911699 
L 326.411431 243.528778 
L 326.915262 245.074393 
L 327.922923 244.802951 
L 328.426754 245.346776 
L 328.930584 242.785518 
L 329.434415 242.937796 
L 329.938245 242.089108 
L 330.442076 243.570308 
L 330.945907 243.645244 
L 331.449737 244.264629 
L 331.953568 245.689615 
L 332.457398 244.042206 
L 332.961229 243.061949 
L 333.46506 243.775857 
L 334.472721 242.868834 
L 334.976551 244.108896 
L 335.480382 242.878395 
L 335.984212 243.809665 
L 336.488043 243.083657 
L 336.991874 243.333387 
L 337.495704 242.4133 
L 337.999535 242.873156 
L 338.503365 244.419712 
L 339.007196 244.0885 
L 339.511027 241.943868 
L 340.014857 242.547769 
L 341.022518 244.452292 
L 341.526349 244.700981 
L 342.03018 244.637878 
L 342.53401 244.009426 
L 343.037841 242.557018 
L 343.541671 243.821155 
L 344.045502 244.60205 
L 344.549332 244.027153 
L 345.053163 243.184844 
L 346.060824 246.24 
L 346.564655 242.45971 
L 347.572316 245.133539 
L 348.076147 245.165415 
L 348.579977 244.726186 
L 349.083808 243.361585 
L 349.587638 244.474101 
L 350.091469 243.485368 
L 350.5953 243.947673 
L 351.09913 244.776637 
L 352.106791 242.672059 
L 352.610622 243.932025 
L 353.114453 243.123011 
L 354.122114 244.786897 
L 354.625944 244.925569 
L 355.129775 245.264469 
L 355.633605 243.750807 
L 356.137436 243.524461 
L 357.145097 244.803912 
L 357.648928 244.965098 
L 358.152758 243.480441 
L 358.656589 242.650609 
L 359.16042 243.747254 
L 359.66425 242.604993 
L 360.168081 243.696906 
L 360.671911 244.398934 
L 361.175742 245.624369 
L 361.175742 245.624369 
" clip-path="url(#p5392409172)" style="fill: none; stroke-dasharray: 5.55,2.4; stroke-dashoffset: 0; stroke: #d62728; stroke-width: 1.5"/>
   </g>
   <g id="patch_8">
    <path d="M 54 256.32 
L 54 34.56 
" style="fill: none; stroke: #000000; stroke-width: 0.8; stroke-linejoin: miter; stroke-linecap: square"/>
   </g>
   <g id="patch_9">
    <path d="M 388.8 256.32 
L 388.8 34.56 
" style="fill: none; stroke: #000000; stroke-width: 0.8; stroke-linejoin: miter; stroke-linecap: square"/>
   </g>
   <g id="patch_10">
    <path d="M 54 256.32 
L 388.8 256.32 
" style="fill: none; stroke: #000000; stroke-width: 0.8; stroke-linejoin: miter; stroke-linecap: square"/>
   </g>
   <g id="patch_11">
    <path d="M 54 34.56 
L 388.8 34.56 
" style="fill: none; stroke: #000000; stroke-width: 0.8; stroke-linejoin: miter; stroke-linecap: square"/>
   </g>
   <g id="legend_2">
    <g id="patch_12">
     <path d="M 285.6 73.638125 
L 381.8 73.638125 
Q 383.8 73.638125 383.8 71.638125 
L 383.8 41.56 
Q 383.8 39.56 381.8 39.56 
L 285.6 39.56 
Q 283.6 39.56 283.6 41.56 
L 283.6 71.638125 
Q 283.6 73.638125 285.6 73.638125 
z
" style="fill: #ffffff; opacity: 0.8; stroke: #cccccc; stroke-linejoin: miter"/>
    </g>
    <g id="line2d_22">
     <path d="M 287.6 47.658437 
L 297.6 47.658437 
L 307.6 47.658437 
" style="fill: none; stroke-dasharray: 5.55,2.4; stroke-dashoffset: 0; stroke: #2ca02c; stroke-width: 1.5"/>
    </g>
    <g id="text_18">
     <!-- ESR line -->
     <g transform="translate(315.6 51.158437)scale(0.1 -0.1)">
      <defs>
       <path id="DejaVuSans-53" d="M 3425 4513 
L 3425 3897 
Q 3066 4069 2747 4153 
Q 2428 4238 2131 4238 
Q 1616 4238 1336 4038 
Q 1056 3838 1056 3469 
Q 1056 3159 1242 3001 
Q 1428 2844 1947 2747 
L 2328 2669 
Q 3034 2534 3370 2195 
Q 3706 1856 3706 1288 
Q 3706 609 3251 259 
Q 2797 -91 1919 -91 
Q 1588 -91 1214 -16 
Q 841 59 441 206 
L 441 856 
Q 825 641 1194 531 
Q 1563 422 1919 422 
Q 2459 422 2753 634 
Q 3047 847 3047 1241 
Q 3047 1584 2836 1778 
Q 2625 1972 2144 2069 
L 1759 2144 
Q 1053 2284 737 2584 
Q 422 2884 422 3419 
Q 422 4038 858 4394 
Q 1294 4750 2059 4750 
Q 2388 4750 2728 4690 
Q 3069 4631 3425 4513 
z
" transform="scale(0.015625)"/>
       <path id="DejaVuSans-52" d="M 2841 2188 
Q 3044 2119 3236 1894 
Q 3428 1669 3622 1275 
L 4263 0 
L 3584 0 
L 2988 1197 
Q 2756 1666 2539 1819 
Q 2322 1972 1947 1972 
L 1259 1972 
L 1259 0 
L 628 0 
L 628 4666 
L 2053 4666 
Q 2853 4666 3247 4331 
Q 3641 3997 3641 3322 
Q 3641 2881 3436 2590 
Q 3231 2300 2841 2188 
z
M 1259 4147 
L 1259 2491 
L 2053 2491 
Q 2509 2491 2742 2702 
Q 2975 2913 2975 3322 
Q 2975 3731 2742 3939 
Q 2509 4147 2053 4147 
L 1259 4147 
z
" transform="scale(0.015625)"/>
       <path id="DejaVuSans-6c" d="M 603 4863 
L 1178 4863 
L 1178 0 
L 603 0 
L 603 4863 
z
" transform="scale(0.015625)"/>
      </defs>
      <use xlink:href="#DejaVuSans-45"/>
      <use xlink:href="#DejaVuSans-53" x="63.183594"/>
      <use xlink:href="#DejaVuSans-52" x="126.660156"/>
      <use xlink:href="#DejaVuSans-20" x="196.142578"/>
      <use xlink:href="#DejaVuSans-6c" x="227.929688"/>
      <use xlink:href="#DejaVuSans-69" x="255.712891"/>
      <use xlink:href="#DejaVuSans-6e" x="283.496094"/>
      <use xlink:href="#DejaVuSans-65" x="346.875"/>
     </g>
    </g>
    <g id="line2d_23">
     <path d="M 287.6 64.058437 
L 297.6 64.058437 
L 307.6 64.058437 
" style="fill: none; stroke-dasharray: 5.55,2.4; stroke-dashoffset: 0; stroke: #d62728; stroke-width: 1.5"/>
    </g>
    <g id="text_19">
     <!-- ESR line$\times \sqrt{2}$ -->
     <g transform="translate(315.6 67.558437)scale(0.1 -0.1)">
      <defs>
       <path id="DejaVuSans-d7" d="M 4488 3438 
L 3059 2003 
L 4488 575 
L 4116 197 
L 2681 1631 
L 1247 197 
L 878 575 
L 2303 2003 
L 878 3438 
L 1247 3816 
L 2681 2381 
L 4116 3816 
L 4488 3438 
z
" transform="scale(0.015625)"/>
       <path id="STIXSizeOneSym-Regular-221a" d="M 6970 9933 
L 3373 -1888 
L 3104 -1888 
L 1626 2918 
Q 1555 3149 1465 3251 
Q 1376 3354 1229 3354 
Q 1011 3354 794 3181 
L 717 3309 
L 1766 4115 
L 1926 4115 
L 3379 -602 
L 3405 -602 
L 6605 9933 
L 6970 9933 
z
" transform="scale(0.015625)"/>
      </defs>
      <use xlink:href="#DejaVuSans-45" transform="translate(0 0.71875)"/>
      <use xlink:href="#DejaVuSans-53" transform="translate(63.183594 0.71875)"/>
      <use xlink:href="#DejaVuSans-52" transform="translate(126.660156 0.71875)"/>
      <use xlink:href="#DejaVuSans-20" transform="translate(196.142578 0.71875)"/>
      <use xlink:href="#DejaVuSans-6c" transform="translate(227.929688 0.71875)"/>
      <use xlink:href="#DejaVuSans-69" transform="translate(255.712891 0.71875)"/>
      <use xlink:href="#DejaVuSans-6e" transform="translate(283.496094 0.71875)"/>
      <use xlink:href="#DejaVuSans-65" transform="translate(346.875 0.71875)"/>
      <use xlink:href="#DejaVuSans-d7" transform="translate(408.398438 0.71875)"/>
      <use xlink:href="#STIXSizeOneSym-Regular-221a" transform="translate(492.1875 17.53125)scale(0.571018)"/>
      <use xlink:href="#DejaVuSans-32" transform="translate(565.068619 0.53125)"/>
      <path d="M 552.568619 99.5 
L 552.568619 105.75 
L 641.191666 105.75 
L 641.191666 99.5 
L 552.568619 99.5 
z
"/>
     </g>
    </g>
   </g>
  </g>
 </g>
 <defs>
  <clipPath id="p5392409172">
   <rect x="54" y="34.56" width="334.8" height="221.76"/>
  </clipPath>
 </defs>
</svg>
