<?xml version="1.0" encoding="utf-8" standalone="no"?>
<!DOCTYPE svg PUBLIC "-//W3C//DTD SVG 1.1//EN"
  "http://www.w3.org/Graphics/SVG/1.1/DTD/svg11.dtd">
<svg xmlns:xlink="http://www.w3.org/1999/xlink" width="432pt" height="288pt" viewBox="0 0 432 288" xmlns="http://www.w3.org/2000/svg" version="1.1">
 <metadata>
  <rdf:RDF xmlns:dc="http://purl.org/dc/elements/1.1/" xmlns:cc="http://creativecommons.org/ns#" xmlns:rdf="http://www.w3.org/1999/02/22-rdf-syntax-ns#">
   <cc:Work>
    <dc:type rdf:resource="http://purl.org/dc/dcmitype/StillImage"/>
    <dc:date>2022-08-02T20:27:44.801643</dc:date>
    <dc:format>image/svg+xml</dc:format>
    <dc:creator>
     <cc:Agent>
      <dc:title>Matplotlib v3.5.1, https://matplotlib.org/</dc:title>
     </cc:Agent>
    </dc:creator>
   </cc:Work>
  </rdf:RDF>
 </metadata>
 <defs>
  <style type="text/css">*{stroke-linejoin: round; stroke-linecap: butt}</style>
 </defs>
 <g id="figure_1">
  <g id="patch_1">
   <path d="M 0 288 
L 432 288 
L 432 0 
L 0 0 
z
" style="fill: #ffffff"/>
  </g>
  <g id="axes_1">
   <g id="patch_2">
    <path d="M 54 256.32 
L 388.8 256.32 
L 388.8 34.56 
L 54 34.56 
z
" style="fill: #ffffff"/>
   </g>
   <g id="matplotlib.axis_1">
    <g id="xtick_1">
     <g id="line2d_1">
      <defs>
       <path id="m4caedabe3c" d="M 0 0 
L 0 3.5 
" style="stroke: #000000; stroke-width: 0.8"/>
      </defs>
      <g>
       <use xlink:href="#m4caedabe3c" x="69.218182" y="256.32" style="stroke: #000000; stroke-width: 0.8"/>
      </g>
     </g>
     <g id="text_1">
      <!-- 0 -->
      <g transform="translate(64.764432 273.957812)scale(0.14 -0.14)">
       <defs>
        <path id="DejaVuSans-30" d="M 2034 4250 
Q 1547 4250 1301 3770 
Q 1056 3291 1056 2328 
Q 1056 1369 1301 889 
Q 1547 409 2034 409 
Q 2525 409 2770 889 
Q 3016 1369 3016 2328 
Q 3016 3291 2770 3770 
Q 2525 4250 2034 4250 
z
M 2034 4750 
Q 2819 4750 3233 4129 
Q 3647 3509 3647 2328 
Q 3647 1150 3233 529 
Q 2819 -91 2034 -91 
Q 1250 -91 836 529 
Q 422 1150 422 2328 
Q 422 3509 836 4129 
Q 1250 4750 2034 4750 
z
" transform="scale(0.015625)"/>
       </defs>
       <use xlink:href="#DejaVuSans-30"/>
      </g>
     </g>
    </g>
    <g id="xtick_2">
     <g id="line2d_2">
      <g>
       <use xlink:href="#m4caedabe3c" x="131.796612" y="256.32" style="stroke: #000000; stroke-width: 0.8"/>
      </g>
     </g>
     <g id="text_2">
      <!-- 20 -->
      <g transform="translate(122.889112 273.957812)scale(0.14 -0.14)">
       <defs>
        <path id="DejaVuSans-32" d="M 1228 531 
L 3431 531 
L 3431 0 
L 469 0 
L 469 531 
Q 828 903 1448 1529 
Q 2069 2156 2228 2338 
Q 2531 2678 2651 2914 
Q 2772 3150 2772 3378 
Q 2772 3750 2511 3984 
Q 2250 4219 1831 4219 
Q 1534 4219 1204 4116 
Q 875 4013 500 3803 
L 500 4441 
Q 881 4594 1212 4672 
Q 1544 4750 1819 4750 
Q 2544 4750 2975 4387 
Q 3406 4025 3406 3419 
Q 3406 3131 3298 2873 
Q 3191 2616 2906 2266 
Q 2828 2175 2409 1742 
Q 1991 1309 1228 531 
z
" transform="scale(0.015625)"/>
       </defs>
       <use xlink:href="#DejaVuSans-32"/>
       <use xlink:href="#DejaVuSans-30" x="63.623047"/>
      </g>
     </g>
    </g>
    <g id="xtick_3">
     <g id="line2d_3">
      <g>
       <use xlink:href="#m4caedabe3c" x="194.375043" y="256.32" style="stroke: #000000; stroke-width: 0.8"/>
      </g>
     </g>
     <g id="text_3">
      <!-- 40 -->
      <g transform="translate(185.467543 273.957812)scale(0.14 -0.14)">
       <defs>
        <path id="DejaVuSans-34" d="M 2419 4116 
L 825 1625 
L 2419 1625 
L 2419 4116 
z
M 2253 4666 
L 3047 4666 
L 3047 1625 
L 3713 1625 
L 3713 1100 
L 3047 1100 
L 3047 0 
L 2419 0 
L 2419 1100 
L 313 1100 
L 313 1709 
L 2253 4666 
z
" transform="scale(0.015625)"/>
       </defs>
       <use xlink:href="#DejaVuSans-34"/>
       <use xlink:href="#DejaVuSans-30" x="63.623047"/>
      </g>
     </g>
    </g>
    <g id="xtick_4">
     <g id="line2d_4">
      <g>
       <use xlink:href="#m4caedabe3c" x="256.953474" y="256.32" style="stroke: #000000; stroke-width: 0.8"/>
      </g>
     </g>
     <g id="text_4">
      <!-- 60 -->
      <g transform="translate(248.045974 273.957812)scale(0.14 -0.14)">
       <defs>
        <path id="DejaVuSans-36" d="M 2113 2584 
Q 1688 2584 1439 2293 
Q 1191 2003 1191 1497 
Q 1191 994 1439 701 
Q 1688 409 2113 409 
Q 2538 409 2786 701 
Q 3034 994 3034 1497 
Q 3034 2003 2786 2293 
Q 2538 2584 2113 2584 
z
M 3366 4563 
L 3366 3988 
Q 3128 4100 2886 4159 
Q 2644 4219 2406 4219 
Q 1781 4219 1451 3797 
Q 1122 3375 1075 2522 
Q 1259 2794 1537 2939 
Q 1816 3084 2150 3084 
Q 2853 3084 3261 2657 
Q 3669 2231 3669 1497 
Q 3669 778 3244 343 
Q 2819 -91 2113 -91 
Q 1303 -91 875 529 
Q 447 1150 447 2328 
Q 447 3434 972 4092 
Q 1497 4750 2381 4750 
Q 2619 4750 2861 4703 
Q 3103 4656 3366 4563 
z
" transform="scale(0.015625)"/>
       </defs>
       <use xlink:href="#DejaVuSans-36"/>
       <use xlink:href="#DejaVuSans-30" x="63.623047"/>
      </g>
     </g>
    </g>
    <g id="xtick_5">
     <g id="line2d_5">
      <g>
       <use xlink:href="#m4caedabe3c" x="319.531904" y="256.32" style="stroke: #000000; stroke-width: 0.8"/>
      </g>
     </g>
     <g id="text_5">
      <!-- 80 -->
      <g transform="translate(310.624404 273.957812)scale(0.14 -0.14)">
       <defs>
        <path id="DejaVuSans-38" d="M 2034 2216 
Q 1584 2216 1326 1975 
Q 1069 1734 1069 1313 
Q 1069 891 1326 650 
Q 1584 409 2034 409 
Q 2484 409 2743 651 
Q 3003 894 3003 1313 
Q 3003 1734 2745 1975 
Q 2488 2216 2034 2216 
z
M 1403 2484 
Q 997 2584 770 2862 
Q 544 3141 544 3541 
Q 544 4100 942 4425 
Q 1341 4750 2034 4750 
Q 2731 4750 3128 4425 
Q 3525 4100 3525 3541 
Q 3525 3141 3298 2862 
Q 3072 2584 2669 2484 
Q 3125 2378 3379 2068 
Q 3634 1759 3634 1313 
Q 3634 634 3220 271 
Q 2806 -91 2034 -91 
Q 1263 -91 848 271 
Q 434 634 434 1313 
Q 434 1759 690 2068 
Q 947 2378 1403 2484 
z
M 1172 3481 
Q 1172 3119 1398 2916 
Q 1625 2713 2034 2713 
Q 2441 2713 2670 2916 
Q 2900 3119 2900 3481 
Q 2900 3844 2670 4047 
Q 2441 4250 2034 4250 
Q 1625 4250 1398 4047 
Q 1172 3844 1172 3481 
z
" transform="scale(0.015625)"/>
       </defs>
       <use xlink:href="#DejaVuSans-38"/>
       <use xlink:href="#DejaVuSans-30" x="63.623047"/>
      </g>
     </g>
    </g>
    <g id="xtick_6">
     <g id="line2d_6">
      <g>
       <use xlink:href="#m4caedabe3c" x="382.110335" y="256.32" style="stroke: #000000; stroke-width: 0.8"/>
      </g>
     </g>
     <g id="text_6">
      <!-- 100 -->
      <g transform="translate(368.749085 273.957812)scale(0.14 -0.14)">
       <defs>
        <path id="DejaVuSans-31" d="M 794 531 
L 1825 531 
L 1825 4091 
L 703 3866 
L 703 4441 
L 1819 4666 
L 2450 4666 
L 2450 531 
L 3481 531 
L 3481 0 
L 794 0 
L 794 531 
z
" transform="scale(0.015625)"/>
       </defs>
       <use xlink:href="#DejaVuSans-31"/>
       <use xlink:href="#DejaVuSans-30" x="63.623047"/>
       <use xlink:href="#DejaVuSans-30" x="127.246094"/>
      </g>
     </g>
    </g>
   </g>
   <g id="matplotlib.axis_2">
    <g id="ytick_1">
     <g id="line2d_7">
      <defs>
       <path id="m5a964cdfe4" d="M 0 0 
L -3.5 0 
" style="stroke: #000000; stroke-width: 0.8"/>
      </defs>
      <g>
       <use xlink:href="#m5a964cdfe4" x="54" y="234.572936" style="stroke: #000000; stroke-width: 0.8"/>
      </g>
     </g>
     <g id="text_7">
      <!-- 0.988 -->
      <g transform="translate(6.920625 239.891842)scale(0.14 -0.14)">
       <defs>
        <path id="DejaVuSans-2e" d="M 684 794 
L 1344 794 
L 1344 0 
L 684 0 
L 684 794 
z
" transform="scale(0.015625)"/>
        <path id="DejaVuSans-39" d="M 703 97 
L 703 672 
Q 941 559 1184 500 
Q 1428 441 1663 441 
Q 2288 441 2617 861 
Q 2947 1281 2994 2138 
Q 2813 1869 2534 1725 
Q 2256 1581 1919 1581 
Q 1219 1581 811 2004 
Q 403 2428 403 3163 
Q 403 3881 828 4315 
Q 1253 4750 1959 4750 
Q 2769 4750 3195 4129 
Q 3622 3509 3622 2328 
Q 3622 1225 3098 567 
Q 2575 -91 1691 -91 
Q 1453 -91 1209 -44 
Q 966 3 703 97 
z
M 1959 2075 
Q 2384 2075 2632 2365 
Q 2881 2656 2881 3163 
Q 2881 3666 2632 3958 
Q 2384 4250 1959 4250 
Q 1534 4250 1286 3958 
Q 1038 3666 1038 3163 
Q 1038 2656 1286 2365 
Q 1534 2075 1959 2075 
z
" transform="scale(0.015625)"/>
       </defs>
       <use xlink:href="#DejaVuSans-30"/>
       <use xlink:href="#DejaVuSans-2e" x="63.623047"/>
       <use xlink:href="#DejaVuSans-39" x="95.410156"/>
       <use xlink:href="#DejaVuSans-38" x="159.033203"/>
       <use xlink:href="#DejaVuSans-38" x="222.65625"/>
      </g>
     </g>
    </g>
    <g id="ytick_2">
     <g id="line2d_8">
      <g>
       <use xlink:href="#m5a964cdfe4" x="54" y="202.917447" style="stroke: #000000; stroke-width: 0.8"/>
      </g>
     </g>
     <g id="text_8">
      <!-- 0.990 -->
      <g transform="translate(6.920625 208.236353)scale(0.14 -0.14)">
       <use xlink:href="#DejaVuSans-30"/>
       <use xlink:href="#DejaVuSans-2e" x="63.623047"/>
       <use xlink:href="#DejaVuSans-39" x="95.410156"/>
       <use xlink:href="#DejaVuSans-39" x="159.033203"/>
       <use xlink:href="#DejaVuSans-30" x="222.65625"/>
      </g>
     </g>
    </g>
    <g id="ytick_3">
     <g id="line2d_9">
      <g>
       <use xlink:href="#m5a964cdfe4" x="54" y="171.261957" style="stroke: #000000; stroke-width: 0.8"/>
      </g>
     </g>
     <g id="text_9">
      <!-- 0.992 -->
      <g transform="translate(6.920625 176.580864)scale(0.14 -0.14)">
       <use xlink:href="#DejaVuSans-30"/>
       <use xlink:href="#DejaVuSans-2e" x="63.623047"/>
       <use xlink:href="#DejaVuSans-39" x="95.410156"/>
       <use xlink:href="#DejaVuSans-39" x="159.033203"/>
       <use xlink:href="#DejaVuSans-32" x="222.65625"/>
      </g>
     </g>
    </g>
    <g id="ytick_4">
     <g id="line2d_10">
      <g>
       <use xlink:href="#m5a964cdfe4" x="54" y="139.606468" style="stroke: #000000; stroke-width: 0.8"/>
      </g>
     </g>
     <g id="text_10">
      <!-- 0.994 -->
      <g transform="translate(6.920625 144.925374)scale(0.14 -0.14)">
       <use xlink:href="#DejaVuSans-30"/>
       <use xlink:href="#DejaVuSans-2e" x="63.623047"/>
       <use xlink:href="#DejaVuSans-39" x="95.410156"/>
       <use xlink:href="#DejaVuSans-39" x="159.033203"/>
       <use xlink:href="#DejaVuSans-34" x="222.65625"/>
      </g>
     </g>
    </g>
    <g id="ytick_5">
     <g id="line2d_11">
      <g>
       <use xlink:href="#m5a964cdfe4" x="54" y="107.950979" style="stroke: #000000; stroke-width: 0.8"/>
      </g>
     </g>
     <g id="text_11">
      <!-- 0.996 -->
      <g transform="translate(6.920625 113.269885)scale(0.14 -0.14)">
       <use xlink:href="#DejaVuSans-30"/>
       <use xlink:href="#DejaVuSans-2e" x="63.623047"/>
       <use xlink:href="#DejaVuSans-39" x="95.410156"/>
       <use xlink:href="#DejaVuSans-39" x="159.033203"/>
       <use xlink:href="#DejaVuSans-36" x="222.65625"/>
      </g>
     </g>
    </g>
    <g id="ytick_6">
     <g id="line2d_12">
      <g>
       <use xlink:href="#m5a964cdfe4" x="54" y="76.295489" style="stroke: #000000; stroke-width: 0.8"/>
      </g>
     </g>
     <g id="text_12">
      <!-- 0.998 -->
      <g transform="translate(6.920625 81.614396)scale(0.14 -0.14)">
       <use xlink:href="#DejaVuSans-30"/>
       <use xlink:href="#DejaVuSans-2e" x="63.623047"/>
       <use xlink:href="#DejaVuSans-39" x="95.410156"/>
       <use xlink:href="#DejaVuSans-39" x="159.033203"/>
       <use xlink:href="#DejaVuSans-38" x="222.65625"/>
      </g>
     </g>
    </g>
    <g id="ytick_7">
     <g id="line2d_13">
      <g>
       <use xlink:href="#m5a964cdfe4" x="54" y="44.64" style="stroke: #000000; stroke-width: 0.8"/>
      </g>
     </g>
     <g id="text_13">
      <!-- 1.000 -->
      <g transform="translate(6.920625 49.958906)scale(0.14 -0.14)">
       <use xlink:href="#DejaVuSans-31"/>
       <use xlink:href="#DejaVuSans-2e" x="63.623047"/>
       <use xlink:href="#DejaVuSans-30" x="95.410156"/>
       <use xlink:href="#DejaVuSans-30" x="159.033203"/>
       <use xlink:href="#DejaVuSans-30" x="222.65625"/>
      </g>
     </g>
    </g>
   </g>
   <g id="line2d_14">
    <path d="M 69.218182 55.79234 
L 69.980998 60.939574 
L 70.743814 60.36766 
L 71.50663 55.79234 
L 72.269446 59.22383 
L 73.032262 61.511489 
L 73.795079 61.225532 
L 74.557895 58.937872 
L 75.320711 60.36766 
L 76.083527 62.655319 
L 76.846343 62.655319 
L 77.609159 63.799149 
L 78.371975 62.941277 
L 79.134792 60.653617 
L 79.897608 64.371064 
L 80.660424 63.799149 
L 81.42324 64.371064 
L 82.186056 63.227234 
L 82.948872 65.800851 
L 83.711688 69.23234 
L 84.474504 66.658723 
L 85.237321 68.374468 
L 86.000137 69.804255 
L 86.762953 68.946383 
L 88.288585 74.665532 
L 89.051401 75.809362 
L 89.814217 78.668936 
L 90.577033 80.384681 
L 92.865482 86.10383 
L 93.628298 92.394894 
L 94.391114 91.251064 
L 95.15393 100.68766 
L 95.916746 100.401702 
L 96.679563 100.68766 
L 97.442379 104.405106 
L 98.205195 110.410213 
L 99.730827 120.418723 
L 100.493643 125.851915 
L 101.256459 128.997447 
L 102.019275 133.858723 
L 102.782092 140.149787 
L 103.544908 138.72 
L 104.307724 144.439149 
L 105.07054 147.870638 
L 105.833356 153.589787 
L 106.596172 152.445957 
L 107.358988 156.735319 
L 108.121805 156.449362 
L 108.884621 158.737021 
L 109.647437 157.021277 
L 110.410253 156.163404 
L 111.173069 154.44766 
L 111.935885 150.730213 
L 112.698701 150.444255 
L 113.461517 143.867234 
L 114.224334 141.00766 
L 114.98715 134.430638 
L 115.749966 129.855319 
L 117.275598 116.987234 
L 118.038414 117.273191 
L 118.80123 108.122553 
L 119.564046 100.68766 
L 120.326863 101.831489 
L 121.089679 95.826383 
L 121.852495 88.391489 
L 122.615311 83.530213 
L 123.378127 84.102128 
L 124.140943 80.098723 
L 124.903759 77.525106 
L 125.666576 70.090213 
L 126.429392 72.949787 
L 127.192208 68.946383 
L 127.955024 66.372766 
L 128.71784 62.083404 
L 129.480656 64.942979 
L 130.243472 61.225532 
L 131.006288 59.509787 
L 131.769105 56.93617 
L 132.531921 56.93617 
L 133.294737 56.078298 
L 134.057553 58.365957 
L 134.820369 52.932766 
L 135.583185 50.359149 
L 136.346001 48.643404 
L 137.108817 53.218723 
L 137.871634 50.073191 
L 138.63445 48.643404 
L 139.397266 51.788936 
L 140.160082 49.501277 
L 140.922898 50.931064 
L 141.685714 45.497872 
L 142.44853 50.359149 
L 143.211347 48.929362 
L 143.974163 46.641702 
L 144.736979 49.787234 
L 145.499795 48.071489 
L 146.262611 47.213617 
L 147.025427 48.071489 
L 147.788243 46.92766 
L 148.551059 51.217021 
L 149.313876 48.071489 
L 150.076692 50.645106 
L 150.839508 51.217021 
L 151.602324 46.641702 
L 152.36514 45.497872 
L 153.127956 46.069787 
L 153.890772 49.215319 
L 154.653589 49.787234 
L 155.416405 44.64 
L 156.179221 45.78383 
L 156.942037 46.641702 
L 157.704853 47.785532 
L 158.467669 49.501277 
L 159.230485 50.645106 
L 160.756118 48.357447 
L 161.518934 47.785532 
L 162.28175 52.074894 
L 163.044566 52.932766 
L 163.807382 52.074894 
L 164.570198 46.355745 
L 165.333014 50.359149 
L 166.858647 50.359149 
L 167.621463 50.931064 
L 168.384279 51.788936 
L 169.147095 55.220426 
L 169.909911 53.218723 
L 170.672727 50.359149 
L 171.435543 50.645106 
L 172.19836 52.360851 
L 172.961176 51.502979 
L 173.723992 53.790638 
L 174.486808 53.218723 
L 175.249624 54.934468 
L 176.01244 54.362553 
L 176.775256 57.794043 
L 178.300889 54.076596 
L 179.063705 57.794043 
L 179.826521 58.08 
L 180.589337 58.08 
L 181.352153 61.511489 
L 182.114969 60.939574 
L 182.877785 62.941277 
L 183.640602 66.658723 
L 184.403418 67.230638 
L 185.92905 74.665532 
L 186.691866 74.665532 
L 187.454682 77.525106 
L 188.217498 82.67234 
L 188.980314 84.96 
L 189.743131 91.822979 
L 190.505947 91.537021 
L 191.268763 94.110638 
L 192.031579 105.548936 
L 192.794395 105.834894 
L 193.557211 117.559149 
L 194.320027 123.850213 
L 195.082843 131.571064 
L 195.84566 143.009362 
L 196.608476 150.730213 
L 197.371292 163.598298 
L 201.185373 215.070638 
L 201.948189 221.361702 
L 202.711005 230.226383 
L 203.473821 234.515745 
L 204.236637 241.664681 
L 204.999453 245.382128 
L 205.762269 246.24 
L 206.525085 240.520851 
L 207.287902 242.236596 
L 208.050718 239.377021 
L 208.813534 228.796596 
L 209.57635 220.50383 
L 210.339166 209.923404 
L 211.101982 202.202553 
L 211.864798 189.048511 
L 212.627614 181.32766 
L 213.390431 167.601702 
L 214.153247 159.594894 
L 215.678879 137.57617 
L 216.441695 129.569362 
L 217.204511 125.851915 
L 217.967327 114.413617 
L 218.730144 111.554043 
L 219.49296 102.975319 
L 220.255776 96.398298 
L 221.018592 92.966809 
L 221.781408 90.393191 
L 222.544224 81.814468 
L 223.30704 80.956596 
L 224.069856 78.382979 
L 224.832673 73.521702 
L 225.595489 72.949787 
L 226.358305 70.948085 
L 227.121121 66.086809 
L 227.883937 66.372766 
L 228.646753 65.514894 
L 229.409569 65.800851 
L 230.172386 64.085106 
L 230.935202 60.653617 
L 232.460834 60.081702 
L 233.22365 57.508085 
L 233.986466 56.93617 
L 234.749282 59.509787 
L 236.274915 57.222128 
L 237.037731 57.794043 
L 237.800547 55.220426 
L 238.563363 59.509787 
L 239.326179 54.362553 
L 240.851811 58.937872 
L 241.614627 57.508085 
L 242.377444 56.93617 
L 243.14026 58.08 
L 243.903076 55.506383 
L 244.665892 53.504681 
L 245.428708 54.648511 
L 246.191524 57.508085 
L 246.95434 57.508085 
L 247.717157 57.794043 
L 248.479973 57.794043 
L 249.242789 57.222128 
L 250.005605 53.504681 
L 250.768421 54.934468 
L 251.531237 57.508085 
L 253.056869 57.508085 
L 253.819686 59.795745 
L 254.582502 55.79234 
L 255.345318 56.650213 
L 256.108134 60.081702 
L 256.87095 59.22383 
L 257.633766 59.795745 
L 258.396582 59.795745 
L 259.159398 56.93617 
L 260.685031 61.225532 
L 261.447847 64.657021 
L 262.210663 60.081702 
L 262.973479 58.08 
L 263.736295 59.22383 
L 264.499111 63.227234 
L 265.261928 60.081702 
L 266.024744 60.081702 
L 266.78756 62.083404 
L 267.550376 63.227234 
L 268.313192 63.513191 
L 269.076008 61.225532 
L 269.838824 63.227234 
L 270.60164 63.513191 
L 271.364457 66.372766 
L 272.127273 66.658723 
L 272.890089 66.658723 
L 273.652905 66.086809 
L 274.415721 67.516596 
L 275.178537 65.800851 
L 275.941353 64.371064 
L 276.70417 69.804255 
L 277.466986 69.804255 
L 278.229802 67.516596 
L 278.992618 74.379574 
L 279.755434 72.377872 
L 280.51825 73.80766 
L 281.281066 73.80766 
L 282.043882 73.235745 
L 282.806699 77.239149 
L 283.569515 78.668936 
L 284.332331 83.81617 
L 285.095147 81.242553 
L 285.857963 82.67234 
L 286.620779 86.961702 
L 287.383595 89.249362 
L 288.146411 88.391489 
L 288.909228 90.679149 
L 290.43486 100.68766 
L 291.197676 101.831489 
L 292.723308 110.982128 
L 293.486124 113.555745 
L 294.248941 120.132766 
L 295.011757 123.278298 
L 295.774573 129.855319 
L 296.537389 133.858723 
L 297.300205 142.723404 
L 298.825837 154.733617 
L 299.588653 159.880851 
L 301.114286 176.466383 
L 302.639918 185.331064 
L 303.402734 192.48 
L 304.928366 197.341277 
L 305.691183 204.204255 
L 306.453999 204.204255 
L 307.216815 204.77617 
L 307.979631 200.772766 
L 308.742447 200.200851 
L 309.505263 197.627234 
L 310.268079 192.194043 
L 311.030895 189.048511 
L 312.556528 179.325957 
L 314.08216 166.457872 
L 314.844976 164.742128 
L 315.607792 157.021277 
L 316.370608 153.875745 
L 317.133424 147.298723 
L 317.896241 144.153191 
L 318.659057 135.860426 
L 319.421873 131.857021 
L 320.184689 130.141277 
L 320.947505 128.139574 
L 321.710321 122.420426 
L 322.473137 118.131064 
L 323.235954 118.988936 
L 323.99877 117.559149 
L 324.761586 114.699574 
L 325.524402 116.129362 
L 326.287218 115.557447 
L 327.050034 107.264681 
L 327.81285 108.980426 
L 328.575666 110.410213 
L 329.338483 107.264681 
L 330.101299 108.408511 
L 330.864115 106.692766 
L 331.626931 108.408511 
L 332.389747 109.266383 
L 333.152563 106.120851 
L 333.915379 107.836596 
L 334.678195 108.980426 
L 335.441012 106.692766 
L 336.203828 110.124255 
L 336.966644 105.548936 
L 337.72946 108.408511 
L 338.492276 108.122553 
L 339.255092 107.264681 
L 340.017908 111.554043 
L 340.780725 109.55234 
L 343.069173 111.268085 
L 343.831989 110.69617 
L 344.594805 113.841702 
L 345.357621 112.697872 
L 346.883254 116.415319 
L 347.64607 118.131064 
L 348.408886 113.269787 
L 349.171702 118.702979 
L 349.934518 119.560851 
L 350.697334 115.271489 
L 351.46015 117.559149 
L 352.222967 121.276596 
L 352.985783 118.131064 
L 353.748599 122.99234 
L 354.511415 122.706383 
L 355.274231 124.708085 
L 356.037047 123.278298 
L 356.799863 127.853617 
L 357.562679 122.706383 
L 358.325496 126.137872 
L 359.088312 125.28 
L 359.851128 129.569362 
L 360.613944 128.425532 
L 361.37676 129.283404 
L 362.139576 126.42383 
L 362.902392 131.857021 
L 363.665208 132.428936 
L 364.428025 133.858723 
L 365.190841 134.144681 
L 365.953657 135.002553 
L 366.716473 132.142979 
L 367.479289 135.002553 
L 368.242105 136.43234 
L 369.004921 135.574468 
L 369.767738 138.148085 
L 370.530554 137.57617 
L 372.056186 140.435745 
L 372.819002 140.721702 
L 373.581818 140.721702 
L 373.581818 140.721702 
" clip-path="url(#p7e209f2874)" style="fill: none; stroke: #1f77b4; stroke-width: 1.5; stroke-linecap: square"/>
   </g>
   <g id="patch_3">
    <path d="M 54 256.32 
L 54 34.56 
" style="fill: none; stroke: #000000; stroke-width: 0.8; stroke-linejoin: miter; stroke-linecap: square"/>
   </g>
   <g id="patch_4">
    <path d="M 388.8 256.32 
L 388.8 34.56 
" style="fill: none; stroke: #000000; stroke-width: 0.8; stroke-linejoin: miter; stroke-linecap: square"/>
   </g>
   <g id="patch_5">
    <path d="M 54 256.32 
L 388.8 256.32 
" style="fill: none; stroke: #000000; stroke-width: 0.8; stroke-linejoin: miter; stroke-linecap: square"/>
   </g>
   <g id="patch_6">
    <path d="M 54 34.56 
L 388.8 34.56 
" style="fill: none; stroke: #000000; stroke-width: 0.8; stroke-linejoin: miter; stroke-linecap: square"/>
   </g>
  </g>
 </g>
 <defs>
  <clipPath id="p7e209f2874">
   <rect x="54" y="34.56" width="334.8" height="221.76"/>
  </clipPath>
 </defs>
</svg>
