<?xml version="1.0" encoding="utf-8" standalone="no"?>
<!DOCTYPE svg PUBLIC "-//W3C//DTD SVG 1.1//EN"
  "http://www.w3.org/Graphics/SVG/1.1/DTD/svg11.dtd">
<svg xmlns:xlink="http://www.w3.org/1999/xlink" width="432pt" height="288pt" viewBox="0 0 432 288" xmlns="http://www.w3.org/2000/svg" version="1.1">
 <metadata>
  <rdf:RDF xmlns:dc="http://purl.org/dc/elements/1.1/" xmlns:cc="http://creativecommons.org/ns#" xmlns:rdf="http://www.w3.org/1999/02/22-rdf-syntax-ns#">
   <cc:Work>
    <dc:type rdf:resource="http://purl.org/dc/dcmitype/StillImage"/>
    <dc:date>2022-08-06T10:25:19.602798</dc:date>
    <dc:format>image/svg+xml</dc:format>
    <dc:creator>
     <cc:Agent>
      <dc:title>Matplotlib v3.5.1, https://matplotlib.org/</dc:title>
     </cc:Agent>
    </dc:creator>
   </cc:Work>
  </rdf:RDF>
 </metadata>
 <defs>
  <style type="text/css">*{stroke-linejoin: round; stroke-linecap: butt}</style>
 </defs>
 <g id="figure_1">
  <g id="patch_1">
   <path d="M 0 288 
L 432 288 
L 432 0 
L 0 0 
z
" style="fill: #ffffff"/>
  </g>
  <g id="axes_1">
   <g id="patch_2">
    <path d="M 54 256.32 
L 388.8 256.32 
L 388.8 34.56 
L 54 34.56 
z
" style="fill: #ffffff"/>
   </g>
   <g id="matplotlib.axis_1">
    <g id="xtick_1">
     <g id="line2d_1">
      <defs>
       <path id="m8bbb80790c" d="M 0 0 
L 0 3.5 
" style="stroke: #000000; stroke-width: 0.8"/>
      </defs>
      <g>
       <use xlink:href="#m8bbb80790c" x="69.218182" y="256.32" style="stroke: #000000; stroke-width: 0.8"/>
      </g>
     </g>
     <g id="text_1">
      <!-- 0 -->
      <g transform="translate(64.446307 274.717656)scale(0.15 -0.15)">
       <defs>
        <path id="DejaVuSans-30" d="M 2034 4250 
Q 1547 4250 1301 3770 
Q 1056 3291 1056 2328 
Q 1056 1369 1301 889 
Q 1547 409 2034 409 
Q 2525 409 2770 889 
Q 3016 1369 3016 2328 
Q 3016 3291 2770 3770 
Q 2525 4250 2034 4250 
z
M 2034 4750 
Q 2819 4750 3233 4129 
Q 3647 3509 3647 2328 
Q 3647 1150 3233 529 
Q 2819 -91 2034 -91 
Q 1250 -91 836 529 
Q 422 1150 422 2328 
Q 422 3509 836 4129 
Q 1250 4750 2034 4750 
z
" transform="scale(0.015625)"/>
       </defs>
       <use xlink:href="#DejaVuSans-30"/>
      </g>
     </g>
    </g>
    <g id="xtick_2">
     <g id="line2d_2">
      <g>
       <use xlink:href="#m8bbb80790c" x="148.976085" y="256.32" style="stroke: #000000; stroke-width: 0.8"/>
      </g>
     </g>
     <g id="text_2">
      <!-- 10 -->
      <g transform="translate(139.432335 274.717656)scale(0.15 -0.15)">
       <defs>
        <path id="DejaVuSans-31" d="M 794 531 
L 1825 531 
L 1825 4091 
L 703 3866 
L 703 4441 
L 1819 4666 
L 2450 4666 
L 2450 531 
L 3481 531 
L 3481 0 
L 794 0 
L 794 531 
z
" transform="scale(0.015625)"/>
       </defs>
       <use xlink:href="#DejaVuSans-31"/>
       <use xlink:href="#DejaVuSans-30" x="63.623047"/>
      </g>
     </g>
    </g>
    <g id="xtick_3">
     <g id="line2d_3">
      <g>
       <use xlink:href="#m8bbb80790c" x="228.733987" y="256.32" style="stroke: #000000; stroke-width: 0.8"/>
      </g>
     </g>
     <g id="text_3">
      <!-- 20 -->
      <g transform="translate(219.190237 274.717656)scale(0.15 -0.15)">
       <defs>
        <path id="DejaVuSans-32" d="M 1228 531 
L 3431 531 
L 3431 0 
L 469 0 
L 469 531 
Q 828 903 1448 1529 
Q 2069 2156 2228 2338 
Q 2531 2678 2651 2914 
Q 2772 3150 2772 3378 
Q 2772 3750 2511 3984 
Q 2250 4219 1831 4219 
Q 1534 4219 1204 4116 
Q 875 4013 500 3803 
L 500 4441 
Q 881 4594 1212 4672 
Q 1544 4750 1819 4750 
Q 2544 4750 2975 4387 
Q 3406 4025 3406 3419 
Q 3406 3131 3298 2873 
Q 3191 2616 2906 2266 
Q 2828 2175 2409 1742 
Q 1991 1309 1228 531 
z
" transform="scale(0.015625)"/>
       </defs>
       <use xlink:href="#DejaVuSans-32"/>
       <use xlink:href="#DejaVuSans-30" x="63.623047"/>
      </g>
     </g>
    </g>
    <g id="xtick_4">
     <g id="line2d_4">
      <g>
       <use xlink:href="#m8bbb80790c" x="308.49189" y="256.32" style="stroke: #000000; stroke-width: 0.8"/>
      </g>
     </g>
     <g id="text_4">
      <!-- 30 -->
      <g transform="translate(298.94814 274.717656)scale(0.15 -0.15)">
       <defs>
        <path id="DejaVuSans-33" d="M 2597 2516 
Q 3050 2419 3304 2112 
Q 3559 1806 3559 1356 
Q 3559 666 3084 287 
Q 2609 -91 1734 -91 
Q 1441 -91 1130 -33 
Q 819 25 488 141 
L 488 750 
Q 750 597 1062 519 
Q 1375 441 1716 441 
Q 2309 441 2620 675 
Q 2931 909 2931 1356 
Q 2931 1769 2642 2001 
Q 2353 2234 1838 2234 
L 1294 2234 
L 1294 2753 
L 1863 2753 
Q 2328 2753 2575 2939 
Q 2822 3125 2822 3475 
Q 2822 3834 2567 4026 
Q 2313 4219 1838 4219 
Q 1578 4219 1281 4162 
Q 984 4106 628 3988 
L 628 4550 
Q 988 4650 1302 4700 
Q 1616 4750 1894 4750 
Q 2613 4750 3031 4423 
Q 3450 4097 3450 3541 
Q 3450 3153 3228 2886 
Q 3006 2619 2597 2516 
z
" transform="scale(0.015625)"/>
       </defs>
       <use xlink:href="#DejaVuSans-33"/>
       <use xlink:href="#DejaVuSans-30" x="63.623047"/>
      </g>
     </g>
    </g>
    <g id="xtick_5">
     <g id="line2d_5">
      <g>
       <use xlink:href="#m8bbb80790c" x="388.249793" y="256.32" style="stroke: #000000; stroke-width: 0.8"/>
      </g>
     </g>
     <g id="text_5">
      <!-- 40 -->
      <g transform="translate(378.706043 274.717656)scale(0.15 -0.15)">
       <defs>
        <path id="DejaVuSans-34" d="M 2419 4116 
L 825 1625 
L 2419 1625 
L 2419 4116 
z
M 2253 4666 
L 3047 4666 
L 3047 1625 
L 3713 1625 
L 3713 1100 
L 3047 1100 
L 3047 0 
L 2419 0 
L 2419 1100 
L 313 1100 
L 313 1709 
L 2253 4666 
z
" transform="scale(0.015625)"/>
       </defs>
       <use xlink:href="#DejaVuSans-34"/>
       <use xlink:href="#DejaVuSans-30" x="63.623047"/>
      </g>
     </g>
    </g>
   </g>
   <g id="matplotlib.axis_2">
    <g id="ytick_1">
     <g id="line2d_6">
      <defs>
       <path id="mfdaae67c1b" d="M 0 0 
L -3.5 0 
" style="stroke: #000000; stroke-width: 0.8"/>
      </defs>
      <g>
       <use xlink:href="#mfdaae67c1b" x="54" y="228.309748" style="stroke: #000000; stroke-width: 0.8"/>
      </g>
     </g>
     <g id="text_6">
      <!-- 2600 -->
      <g transform="translate(8.825 234.008576)scale(0.15 -0.15)">
       <defs>
        <path id="DejaVuSans-36" d="M 2113 2584 
Q 1688 2584 1439 2293 
Q 1191 2003 1191 1497 
Q 1191 994 1439 701 
Q 1688 409 2113 409 
Q 2538 409 2786 701 
Q 3034 994 3034 1497 
Q 3034 2003 2786 2293 
Q 2538 2584 2113 2584 
z
M 3366 4563 
L 3366 3988 
Q 3128 4100 2886 4159 
Q 2644 4219 2406 4219 
Q 1781 4219 1451 3797 
Q 1122 3375 1075 2522 
Q 1259 2794 1537 2939 
Q 1816 3084 2150 3084 
Q 2853 3084 3261 2657 
Q 3669 2231 3669 1497 
Q 3669 778 3244 343 
Q 2819 -91 2113 -91 
Q 1303 -91 875 529 
Q 447 1150 447 2328 
Q 447 3434 972 4092 
Q 1497 4750 2381 4750 
Q 2619 4750 2861 4703 
Q 3103 4656 3366 4563 
z
" transform="scale(0.015625)"/>
       </defs>
       <use xlink:href="#DejaVuSans-32"/>
       <use xlink:href="#DejaVuSans-36" x="63.623047"/>
       <use xlink:href="#DejaVuSans-30" x="127.246094"/>
       <use xlink:href="#DejaVuSans-30" x="190.869141"/>
      </g>
     </g>
    </g>
    <g id="ytick_2">
     <g id="line2d_7">
      <g>
       <use xlink:href="#mfdaae67c1b" x="54" y="197.504458" style="stroke: #000000; stroke-width: 0.8"/>
      </g>
     </g>
     <g id="text_7">
      <!-- 2650 -->
      <g transform="translate(8.825 203.203286)scale(0.15 -0.15)">
       <defs>
        <path id="DejaVuSans-35" d="M 691 4666 
L 3169 4666 
L 3169 4134 
L 1269 4134 
L 1269 2991 
Q 1406 3038 1543 3061 
Q 1681 3084 1819 3084 
Q 2600 3084 3056 2656 
Q 3513 2228 3513 1497 
Q 3513 744 3044 326 
Q 2575 -91 1722 -91 
Q 1428 -91 1123 -41 
Q 819 9 494 109 
L 494 744 
Q 775 591 1075 516 
Q 1375 441 1709 441 
Q 2250 441 2565 725 
Q 2881 1009 2881 1497 
Q 2881 1984 2565 2268 
Q 2250 2553 1709 2553 
Q 1456 2553 1204 2497 
Q 953 2441 691 2322 
L 691 4666 
z
" transform="scale(0.015625)"/>
       </defs>
       <use xlink:href="#DejaVuSans-32"/>
       <use xlink:href="#DejaVuSans-36" x="63.623047"/>
       <use xlink:href="#DejaVuSans-35" x="127.246094"/>
       <use xlink:href="#DejaVuSans-30" x="190.869141"/>
      </g>
     </g>
    </g>
    <g id="ytick_3">
     <g id="line2d_8">
      <g>
       <use xlink:href="#mfdaae67c1b" x="54" y="166.699167" style="stroke: #000000; stroke-width: 0.8"/>
      </g>
     </g>
     <g id="text_8">
      <!-- 2700 -->
      <g transform="translate(8.825 172.397996)scale(0.15 -0.15)">
       <defs>
        <path id="DejaVuSans-37" d="M 525 4666 
L 3525 4666 
L 3525 4397 
L 1831 0 
L 1172 0 
L 2766 4134 
L 525 4134 
L 525 4666 
z
" transform="scale(0.015625)"/>
       </defs>
       <use xlink:href="#DejaVuSans-32"/>
       <use xlink:href="#DejaVuSans-37" x="63.623047"/>
       <use xlink:href="#DejaVuSans-30" x="127.246094"/>
       <use xlink:href="#DejaVuSans-30" x="190.869141"/>
      </g>
     </g>
    </g>
    <g id="ytick_4">
     <g id="line2d_9">
      <g>
       <use xlink:href="#mfdaae67c1b" x="54" y="135.893877" style="stroke: #000000; stroke-width: 0.8"/>
      </g>
     </g>
     <g id="text_9">
      <!-- 2750 -->
      <g transform="translate(8.825 141.592706)scale(0.15 -0.15)">
       <use xlink:href="#DejaVuSans-32"/>
       <use xlink:href="#DejaVuSans-37" x="63.623047"/>
       <use xlink:href="#DejaVuSans-35" x="127.246094"/>
       <use xlink:href="#DejaVuSans-30" x="190.869141"/>
      </g>
     </g>
    </g>
    <g id="ytick_5">
     <g id="line2d_10">
      <g>
       <use xlink:href="#mfdaae67c1b" x="54" y="105.088587" style="stroke: #000000; stroke-width: 0.8"/>
      </g>
     </g>
     <g id="text_10">
      <!-- 2800 -->
      <g transform="translate(8.825 110.787416)scale(0.15 -0.15)">
       <defs>
        <path id="DejaVuSans-38" d="M 2034 2216 
Q 1584 2216 1326 1975 
Q 1069 1734 1069 1313 
Q 1069 891 1326 650 
Q 1584 409 2034 409 
Q 2484 409 2743 651 
Q 3003 894 3003 1313 
Q 3003 1734 2745 1975 
Q 2488 2216 2034 2216 
z
M 1403 2484 
Q 997 2584 770 2862 
Q 544 3141 544 3541 
Q 544 4100 942 4425 
Q 1341 4750 2034 4750 
Q 2731 4750 3128 4425 
Q 3525 4100 3525 3541 
Q 3525 3141 3298 2862 
Q 3072 2584 2669 2484 
Q 3125 2378 3379 2068 
Q 3634 1759 3634 1313 
Q 3634 634 3220 271 
Q 2806 -91 2034 -91 
Q 1263 -91 848 271 
Q 434 634 434 1313 
Q 434 1759 690 2068 
Q 947 2378 1403 2484 
z
M 1172 3481 
Q 1172 3119 1398 2916 
Q 1625 2713 2034 2713 
Q 2441 2713 2670 2916 
Q 2900 3119 2900 3481 
Q 2900 3844 2670 4047 
Q 2441 4250 2034 4250 
Q 1625 4250 1398 4047 
Q 1172 3844 1172 3481 
z
" transform="scale(0.015625)"/>
       </defs>
       <use xlink:href="#DejaVuSans-32"/>
       <use xlink:href="#DejaVuSans-38" x="63.623047"/>
       <use xlink:href="#DejaVuSans-30" x="127.246094"/>
       <use xlink:href="#DejaVuSans-30" x="190.869141"/>
      </g>
     </g>
    </g>
    <g id="ytick_6">
     <g id="line2d_11">
      <g>
       <use xlink:href="#mfdaae67c1b" x="54" y="74.283297" style="stroke: #000000; stroke-width: 0.8"/>
      </g>
     </g>
     <g id="text_11">
      <!-- 2850 -->
      <g transform="translate(8.825 79.982125)scale(0.15 -0.15)">
       <use xlink:href="#DejaVuSans-32"/>
       <use xlink:href="#DejaVuSans-38" x="63.623047"/>
       <use xlink:href="#DejaVuSans-35" x="127.246094"/>
       <use xlink:href="#DejaVuSans-30" x="190.869141"/>
      </g>
     </g>
    </g>
    <g id="ytick_7">
     <g id="line2d_12">
      <g>
       <use xlink:href="#mfdaae67c1b" x="54" y="43.478007" style="stroke: #000000; stroke-width: 0.8"/>
      </g>
     </g>
     <g id="text_12">
      <!-- 2900 -->
      <g transform="translate(8.825 49.176835)scale(0.15 -0.15)">
       <defs>
        <path id="DejaVuSans-39" d="M 703 97 
L 703 672 
Q 941 559 1184 500 
Q 1428 441 1663 441 
Q 2288 441 2617 861 
Q 2947 1281 2994 2138 
Q 2813 1869 2534 1725 
Q 2256 1581 1919 1581 
Q 1219 1581 811 2004 
Q 403 2428 403 3163 
Q 403 3881 828 4315 
Q 1253 4750 1959 4750 
Q 2769 4750 3195 4129 
Q 3622 3509 3622 2328 
Q 3622 1225 3098 567 
Q 2575 -91 1691 -91 
Q 1453 -91 1209 -44 
Q 966 3 703 97 
z
M 1959 2075 
Q 2384 2075 2632 2365 
Q 2881 2656 2881 3163 
Q 2881 3666 2632 3958 
Q 2384 4250 1959 4250 
Q 1534 4250 1286 3958 
Q 1038 3666 1038 3163 
Q 1038 2656 1286 2365 
Q 1534 2075 1959 2075 
z
" transform="scale(0.015625)"/>
       </defs>
       <use xlink:href="#DejaVuSans-32"/>
       <use xlink:href="#DejaVuSans-39" x="63.623047"/>
       <use xlink:href="#DejaVuSans-30" x="127.246094"/>
       <use xlink:href="#DejaVuSans-30" x="190.869141"/>
      </g>
     </g>
    </g>
   </g>
   <g id="line2d_13">
    <path d="M 69.218182 246.24 
L 72.261818 245.992596 
L 75.305455 245.744542 
L 78.349091 245.495839 
L 81.392727 245.246487 
L 84.436364 244.996485 
L 87.48 244.745834 
L 90.523636 244.494534 
L 93.567273 244.242585 
L 96.610909 243.989988 
L 99.654545 243.736742 
L 102.698182 243.482848 
L 105.741818 243.228306 
L 108.785455 242.973116 
L 111.829091 242.717278 
L 114.872727 242.460793 
L 117.916364 242.20366 
L 120.96 241.94588 
L 124.003636 241.687452 
L 127.047273 241.428378 
L 130.090909 241.168657 
L 133.134545 240.90829 
L 136.178182 240.647276 
L 139.221818 240.385616 
L 142.265455 240.12331 
L 145.309091 239.860358 
L 148.352727 239.596761 
L 151.396364 239.332518 
L 154.44 239.06763 
L 157.483636 238.802097 
L 160.527273 238.535919 
L 163.570909 238.269096 
L 166.614545 238.001629 
L 169.658182 237.733518 
L 172.701818 237.464762 
L 175.745455 237.195363 
L 178.789091 236.92532 
L 181.832727 236.654634 
L 184.876364 236.383304 
L 187.92 236.111331 
L 190.963636 235.838716 
L 194.007273 235.565458 
L 197.050909 235.291558 
L 200.094545 235.017015 
L 203.138182 234.741831 
L 206.181818 234.466005 
L 209.225455 234.189537 
L 212.269091 233.912428 
L 215.312727 233.634678 
L 218.356364 233.356287 
L 221.4 233.077256 
L 224.443636 232.797584 
L 227.487273 232.517273 
L 230.530909 232.236321 
L 233.574545 231.95473 
L 236.618182 231.672499 
L 239.661818 231.389629 
L 242.705455 231.10612 
L 245.749091 230.821973 
L 248.792727 230.537187 
L 251.836364 230.251763 
L 254.88 229.965701 
L 257.923636 229.679001 
L 260.967273 229.391664 
L 264.010909 229.10369 
L 267.054545 228.815079 
L 270.098182 228.525831 
L 273.141818 228.235947 
L 276.185455 227.945427 
L 279.229091 227.65427 
L 282.272727 227.362479 
L 285.316364 227.070052 
L 288.36 226.77699 
L 291.403636 226.483293 
L 294.447273 226.188961 
L 297.490909 225.893996 
L 300.534545 225.598396 
L 303.578182 225.302163 
L 306.621818 225.005297 
L 309.665455 224.707797 
L 312.709091 224.409664 
L 315.752727 224.110899 
L 318.796364 223.811502 
L 321.84 223.511473 
L 324.883636 223.210812 
L 327.927273 222.90952 
L 330.970909 222.607597 
L 334.014545 222.305043 
L 337.058182 222.001859 
L 340.101818 221.698044 
L 343.145455 221.3936 
L 346.189091 221.088526 
L 349.232727 220.782823 
L 352.276364 220.476492 
L 355.32 220.169531 
L 358.363636 219.861942 
L 361.407273 219.553726 
L 364.450909 219.244882 
L 367.494545 218.93541 
L 370.538182 218.625312 
L 373.581818 218.314587 
" clip-path="url(#p1e06d47114)" style="fill: none; stroke: #1f77b4; stroke-width: 1.5; stroke-linecap: square"/>
   </g>
   <g id="line2d_14">
    <path d="M 69.218182 151.211304 
L 72.261818 150.796086 
L 75.305455 150.380456 
L 78.349091 149.964417 
L 81.392727 149.547968 
L 84.436364 149.13111 
L 87.48 148.713842 
L 90.523636 148.296166 
L 93.567273 147.878082 
L 96.610909 147.459591 
L 99.654545 147.040692 
L 102.698182 146.621386 
L 105.741818 146.201674 
L 108.785455 145.781556 
L 111.829091 145.361032 
L 114.872727 144.940104 
L 117.916364 144.518771 
L 120.96 144.097034 
L 124.003636 143.674893 
L 127.047273 143.25235 
L 130.090909 142.829403 
L 133.134545 142.406055 
L 136.178182 141.982305 
L 139.221818 141.558154 
L 142.265455 141.133603 
L 145.309091 140.708651 
L 148.352727 140.2833 
L 151.396364 139.85755 
L 154.44 139.431402 
L 157.483636 139.004856 
L 160.527273 138.577912 
L 163.570909 138.150572 
L 166.614545 137.722836 
L 169.658182 137.294704 
L 172.701818 136.866177 
L 175.745455 136.437256 
L 178.789091 136.007942 
L 181.832727 135.578234 
L 184.876364 135.148134 
L 187.92 134.717642 
L 190.963636 134.286758 
L 194.007273 133.855485 
L 197.050909 133.423821 
L 200.094545 132.991769 
L 203.138182 132.559328 
L 206.181818 132.126499 
L 209.225455 131.693283 
L 212.269091 131.259681 
L 215.312727 130.825694 
L 218.356364 130.391321 
L 221.4 129.956565 
L 224.443636 129.521425 
L 227.487273 129.085903 
L 230.530909 128.65 
L 233.574545 128.929318 
L 236.618182 129.524271 
L 239.661818 130.119028 
L 242.705455 130.713586 
L 245.749091 131.307945 
L 248.792727 131.902101 
L 251.836364 132.496054 
L 254.88 133.0898 
L 257.923636 133.683339 
L 260.967273 134.276669 
L 264.010909 134.869788 
L 267.054545 135.462694 
L 270.098182 136.055386 
L 273.141818 136.647862 
L 276.185455 137.240121 
L 279.229091 137.83216 
L 282.272727 138.423979 
L 285.316364 139.015575 
L 288.36 139.606948 
L 291.403636 140.198096 
L 294.447273 140.789018 
L 297.490909 141.379712 
L 300.534545 141.970176 
L 303.578182 142.56041 
L 306.621818 143.150411 
L 309.665455 143.74018 
L 312.709091 144.329714 
L 315.752727 144.919012 
L 318.796364 145.508073 
L 321.84 146.096895 
L 324.883636 146.685479 
L 327.927273 147.273821 
L 330.970909 147.861922 
L 334.014545 148.449779 
L 337.058182 149.037393 
L 340.101818 149.624761 
L 343.145455 150.211883 
L 346.189091 150.798757 
L 349.232727 151.385383 
L 352.276364 151.971759 
L 355.32 152.557885 
L 358.363636 153.143759 
L 361.407273 153.72938 
L 364.450909 154.314748 
L 367.494545 154.899862 
L 370.538182 155.48472 
L 373.581818 156.069321 
" clip-path="url(#p1e06d47114)" style="fill: none; stroke: #1f77b4; stroke-width: 1.5; stroke-linecap: square"/>
   </g>
   <g id="line2d_15">
    <path d="M 69.218182 96.585573 
L 72.261818 97.186606 
L 75.305455 97.787649 
L 78.349091 98.388696 
L 81.392727 98.989739 
L 84.436364 99.590772 
L 87.48 100.191789 
L 90.523636 100.792784 
L 93.567273 101.39375 
L 96.610909 101.994681 
L 99.654545 102.595573 
L 102.698182 103.196419 
L 105.741818 103.797214 
L 108.785455 104.397953 
L 111.829091 104.99863 
L 114.872727 105.599241 
L 117.916364 106.199781 
L 120.96 106.800245 
L 124.003636 107.400628 
L 127.047273 108.000926 
L 130.090909 108.601135 
L 133.134545 109.201249 
L 136.178182 109.801266 
L 139.221818 110.40118 
L 142.265455 111.000988 
L 145.309091 111.600687 
L 148.352727 112.200271 
L 151.396364 112.799737 
L 154.44 113.399083 
L 157.483636 113.998303 
L 160.527273 114.597395 
L 163.570909 115.196356 
L 166.614545 115.795181 
L 169.658182 116.393869 
L 172.701818 116.992414 
L 175.745455 117.590816 
L 178.789091 118.18907 
L 181.832727 118.787173 
L 184.876364 119.385123 
L 187.92 119.982917 
L 190.963636 120.580551 
L 194.007273 121.178024 
L 197.050909 121.775333 
L 200.094545 122.372474 
L 203.138182 122.969446 
L 206.181818 123.566246 
L 209.225455 124.162872 
L 212.269091 124.75932 
L 215.312727 125.35559 
L 218.356364 125.951678 
L 221.4 126.547582 
L 224.443636 127.1433 
L 227.487273 127.73883 
L 230.530909 128.33417 
L 233.574545 128.213715 
L 236.618182 127.77705 
L 239.661818 127.340007 
L 242.705455 126.902584 
L 245.749091 126.464785 
L 248.792727 126.026609 
L 251.836364 125.588057 
L 254.88 125.14913 
L 257.923636 124.70983 
L 260.967273 124.270157 
L 264.010909 123.830112 
L 267.054545 123.389696 
L 270.098182 122.94891 
L 273.141818 122.507755 
L 276.185455 122.066232 
L 279.229091 121.624342 
L 282.272727 121.182087 
L 285.316364 120.739467 
L 288.36 120.296484 
L 291.403636 119.853138 
L 294.447273 119.409431 
L 297.490909 118.965363 
L 300.534545 118.520937 
L 303.578182 118.076154 
L 306.621818 117.631014 
L 309.665455 117.185519 
L 312.709091 116.73967 
L 315.752727 116.293468 
L 318.796364 115.846916 
L 321.84 115.400013 
L 324.883636 114.952763 
L 327.927273 114.505165 
L 330.970909 114.057222 
L 334.014545 113.608935 
L 337.058182 113.160306 
L 340.101818 112.711335 
L 343.145455 112.262026 
L 346.189091 111.812379 
L 349.232727 111.362395 
L 352.276364 110.912078 
L 355.32 110.461428 
L 358.363636 110.010447 
L 361.407273 109.559137 
L 364.450909 109.1075 
L 367.494545 108.655537 
L 370.538182 108.203252 
L 373.581818 107.750644 
" clip-path="url(#p1e06d47114)" style="fill: none; stroke: #1f77b4; stroke-width: 1.5; stroke-linecap: square"/>
   </g>
   <g id="line2d_16">
    <path d="M 69.218182 48.113058 
L 72.261818 47.95732 
L 75.305455 47.803502 
L 78.349091 47.651699 
L 81.392727 47.502013 
L 84.436364 47.354548 
L 87.48 47.209411 
L 90.523636 47.066717 
L 93.567273 46.926581 
L 96.610909 46.789125 
L 99.654545 46.654475 
L 102.698182 46.522761 
L 105.741818 46.394119 
L 108.785455 46.268687 
L 111.829091 46.146608 
L 114.872727 46.028032 
L 117.916364 45.913109 
L 120.96 45.801998 
L 124.003636 45.694856 
L 127.047273 45.591849 
L 130.090909 45.493144 
L 133.134545 45.39891 
L 136.178182 45.30932 
L 139.221818 45.224549 
L 142.265455 45.144773 
L 145.309091 45.070169 
L 148.352727 45.000914 
L 151.396364 44.937186 
L 154.44 44.879158 
L 157.483636 44.827005 
L 160.527273 44.780896 
L 163.570909 44.740996 
L 166.614545 44.707466 
L 169.658182 44.680459 
L 172.701818 44.660122 
L 175.745455 44.646593 
L 178.789091 44.64 
L 181.832727 44.64046 
L 184.876364 44.64808 
L 187.92 44.662953 
L 190.963636 44.685159 
L 194.007273 44.714764 
L 197.050909 44.751818 
L 200.094545 44.796358 
L 203.138182 44.848404 
L 206.181818 44.90796 
L 209.225455 44.975014 
L 212.269091 45.04954 
L 215.312727 45.131495 
L 218.356364 45.22082 
L 221.4 45.317443 
L 224.443636 45.421279 
L 227.487273 45.532227 
L 230.530909 45.650177 
L 233.574545 45.775006 
L 236.618182 45.906581 
L 239.661818 46.04476 
L 242.705455 46.189392 
L 245.749091 46.340321 
L 248.792727 46.497385 
L 251.836364 46.660414 
L 254.88 46.829237 
L 257.923636 47.003681 
L 260.967273 47.183569 
L 264.010909 47.368723 
L 267.054545 47.558967 
L 270.098182 47.754122 
L 273.141818 47.954013 
L 276.185455 48.158467 
L 279.229091 48.36731 
L 282.272727 48.580374 
L 285.316364 48.797493 
L 288.36 49.018504 
L 291.403636 49.24325 
L 294.447273 49.471573 
L 297.490909 49.703325 
L 300.534545 49.938359 
L 303.578182 50.176533 
L 306.621818 50.417709 
L 309.665455 50.661753 
L 312.709091 50.908539 
L 315.752727 51.157941 
L 318.796364 51.40984 
L 321.84 51.66412 
L 324.883636 51.920671 
L 327.927273 52.179385 
L 330.970909 52.44016 
L 334.014545 52.702897 
L 337.058182 52.967501 
L 340.101818 53.23388 
L 343.145455 53.501949 
L 346.189091 53.771622 
L 349.232727 54.042819 
L 352.276364 54.315462 
L 355.32 54.589479 
L 358.363636 54.864797 
L 361.407273 55.14135 
L 364.450909 55.41907 
L 367.494545 55.697896 
L 370.538182 55.977769 
L 373.581818 56.258629 
" clip-path="url(#p1e06d47114)" style="fill: none; stroke: #1f77b4; stroke-width: 1.5; stroke-linecap: square"/>
   </g>
   <g id="line2d_17">
    <defs>
     <path id="mc6001dae85" d="M 0 2.5 
C 0.663008 2.5 1.29895 2.236584 1.767767 1.767767 
C 2.236584 1.29895 2.5 0.663008 2.5 0 
C 2.5 -0.663008 2.236584 -1.29895 1.767767 -1.767767 
C 1.29895 -2.236584 0.663008 -2.5 0 -2.5 
C -0.663008 -2.5 -1.29895 -2.236584 -1.767767 -1.767767 
C -2.236584 -1.29895 -2.5 -0.663008 -2.5 0 
C -2.5 0.663008 -2.236584 1.29895 -1.767767 1.767767 
C -1.29895 2.236584 -0.663008 2.5 0 2.5 
z
" style="stroke: #ff7f0e; stroke-width: 0.7"/>
    </defs>
    <g clip-path="url(#p1e06d47114)">
     <use xlink:href="#mc6001dae85" x="69.218182" y="149.938379" style="fill-opacity: 0; stroke: #ff7f0e; stroke-width: 0.7"/>
     <use xlink:href="#mc6001dae85" x="72.261818" y="149.578943" style="fill-opacity: 0; stroke: #ff7f0e; stroke-width: 0.7"/>
     <use xlink:href="#mc6001dae85" x="75.305455" y="149.14542" style="fill-opacity: 0; stroke: #ff7f0e; stroke-width: 0.7"/>
     <use xlink:href="#mc6001dae85" x="78.349091" y="148.753662" style="fill-opacity: 0; stroke: #ff7f0e; stroke-width: 0.7"/>
     <use xlink:href="#mc6001dae85" x="81.392727" y="148.389754" style="fill-opacity: 0; stroke: #ff7f0e; stroke-width: 0.7"/>
     <use xlink:href="#mc6001dae85" x="84.436364" y="148.039808" style="fill-opacity: 0; stroke: #ff7f0e; stroke-width: 0.7"/>
     <use xlink:href="#mc6001dae85" x="87.48" y="147.666177" style="fill-opacity: 0; stroke: #ff7f0e; stroke-width: 0.7"/>
     <use xlink:href="#mc6001dae85" x="90.523636" y="147.310448" style="fill-opacity: 0; stroke: #ff7f0e; stroke-width: 0.7"/>
     <use xlink:href="#mc6001dae85" x="93.567273" y="146.942124" style="fill-opacity: 0; stroke: #ff7f0e; stroke-width: 0.7"/>
     <use xlink:href="#mc6001dae85" x="96.610909" y="146.574486" style="fill-opacity: 0; stroke: #ff7f0e; stroke-width: 0.7"/>
     <use xlink:href="#mc6001dae85" x="99.654545" y="146.197921" style="fill-opacity: 0; stroke: #ff7f0e; stroke-width: 0.7"/>
     <use xlink:href="#mc6001dae85" x="102.698182" y="145.812506" style="fill-opacity: 0; stroke: #ff7f0e; stroke-width: 0.7"/>
     <use xlink:href="#mc6001dae85" x="105.741818" y="145.439017" style="fill-opacity: 0; stroke: #ff7f0e; stroke-width: 0.7"/>
     <use xlink:href="#mc6001dae85" x="108.785455" y="145.077562" style="fill-opacity: 0; stroke: #ff7f0e; stroke-width: 0.7"/>
     <use xlink:href="#mc6001dae85" x="111.829091" y="144.720567" style="fill-opacity: 0; stroke: #ff7f0e; stroke-width: 0.7"/>
     <use xlink:href="#mc6001dae85" x="114.872727" y="144.374482" style="fill-opacity: 0; stroke: #ff7f0e; stroke-width: 0.7"/>
     <use xlink:href="#mc6001dae85" x="117.916364" y="143.999035" style="fill-opacity: 0; stroke: #ff7f0e; stroke-width: 0.7"/>
     <use xlink:href="#mc6001dae85" x="120.96" y="143.628003" style="fill-opacity: 0; stroke: #ff7f0e; stroke-width: 0.7"/>
     <use xlink:href="#mc6001dae85" x="124.003636" y="143.232197" style="fill-opacity: 0; stroke: #ff7f0e; stroke-width: 0.7"/>
     <use xlink:href="#mc6001dae85" x="127.047273" y="142.805156" style="fill-opacity: 0; stroke: #ff7f0e; stroke-width: 0.7"/>
     <use xlink:href="#mc6001dae85" x="130.090909" y="142.396617" style="fill-opacity: 0; stroke: #ff7f0e; stroke-width: 0.7"/>
     <use xlink:href="#mc6001dae85" x="133.134545" y="141.956985" style="fill-opacity: 0; stroke: #ff7f0e; stroke-width: 0.7"/>
     <use xlink:href="#mc6001dae85" x="136.178182" y="141.524264" style="fill-opacity: 0; stroke: #ff7f0e; stroke-width: 0.7"/>
     <use xlink:href="#mc6001dae85" x="139.221818" y="141.115454" style="fill-opacity: 0; stroke: #ff7f0e; stroke-width: 0.7"/>
     <use xlink:href="#mc6001dae85" x="142.265455" y="140.697362" style="fill-opacity: 0; stroke: #ff7f0e; stroke-width: 0.7"/>
     <use xlink:href="#mc6001dae85" x="145.309091" y="140.294817" style="fill-opacity: 0; stroke: #ff7f0e; stroke-width: 0.7"/>
     <use xlink:href="#mc6001dae85" x="148.352727" y="139.876695" style="fill-opacity: 0; stroke: #ff7f0e; stroke-width: 0.7"/>
     <use xlink:href="#mc6001dae85" x="151.396364" y="139.449575" style="fill-opacity: 0; stroke: #ff7f0e; stroke-width: 0.7"/>
     <use xlink:href="#mc6001dae85" x="154.44" y="139.034055" style="fill-opacity: 0; stroke: #ff7f0e; stroke-width: 0.7"/>
     <use xlink:href="#mc6001dae85" x="157.483636" y="138.586515" style="fill-opacity: 0; stroke: #ff7f0e; stroke-width: 0.7"/>
     <use xlink:href="#mc6001dae85" x="160.527273" y="138.160867" style="fill-opacity: 0; stroke: #ff7f0e; stroke-width: 0.7"/>
     <use xlink:href="#mc6001dae85" x="163.570909" y="137.688767" style="fill-opacity: 0; stroke: #ff7f0e; stroke-width: 0.7"/>
     <use xlink:href="#mc6001dae85" x="166.614545" y="137.239526" style="fill-opacity: 0; stroke: #ff7f0e; stroke-width: 0.7"/>
     <use xlink:href="#mc6001dae85" x="169.658182" y="136.807256" style="fill-opacity: 0; stroke: #ff7f0e; stroke-width: 0.7"/>
     <use xlink:href="#mc6001dae85" x="172.701818" y="136.357238" style="fill-opacity: 0; stroke: #ff7f0e; stroke-width: 0.7"/>
     <use xlink:href="#mc6001dae85" x="175.745455" y="135.90992" style="fill-opacity: 0; stroke: #ff7f0e; stroke-width: 0.7"/>
     <use xlink:href="#mc6001dae85" x="178.789091" y="135.485322" style="fill-opacity: 0; stroke: #ff7f0e; stroke-width: 0.7"/>
     <use xlink:href="#mc6001dae85" x="181.832727" y="135.012402" style="fill-opacity: 0; stroke: #ff7f0e; stroke-width: 0.7"/>
     <use xlink:href="#mc6001dae85" x="184.876364" y="134.570733" style="fill-opacity: 0; stroke: #ff7f0e; stroke-width: 0.7"/>
     <use xlink:href="#mc6001dae85" x="187.92" y="134.087668" style="fill-opacity: 0; stroke: #ff7f0e; stroke-width: 0.7"/>
     <use xlink:href="#mc6001dae85" x="190.963636" y="133.613978" style="fill-opacity: 0; stroke: #ff7f0e; stroke-width: 0.7"/>
     <use xlink:href="#mc6001dae85" x="194.007273" y="133.111678" style="fill-opacity: 0; stroke: #ff7f0e; stroke-width: 0.7"/>
     <use xlink:href="#mc6001dae85" x="197.050909" y="132.653001" style="fill-opacity: 0; stroke: #ff7f0e; stroke-width: 0.7"/>
     <use xlink:href="#mc6001dae85" x="200.094545" y="132.182281" style="fill-opacity: 0; stroke: #ff7f0e; stroke-width: 0.7"/>
     <use xlink:href="#mc6001dae85" x="203.138182" y="131.748422" style="fill-opacity: 0; stroke: #ff7f0e; stroke-width: 0.7"/>
     <use xlink:href="#mc6001dae85" x="206.181818" y="131.323579" style="fill-opacity: 0; stroke: #ff7f0e; stroke-width: 0.7"/>
     <use xlink:href="#mc6001dae85" x="209.225455" y="130.935639" style="fill-opacity: 0; stroke: #ff7f0e; stroke-width: 0.7"/>
     <use xlink:href="#mc6001dae85" x="242.705455" y="132.367503" style="fill-opacity: 0; stroke: #ff7f0e; stroke-width: 0.7"/>
     <use xlink:href="#mc6001dae85" x="245.749091" y="132.665325" style="fill-opacity: 0; stroke: #ff7f0e; stroke-width: 0.7"/>
     <use xlink:href="#mc6001dae85" x="248.792727" y="133.134885" style="fill-opacity: 0; stroke: #ff7f0e; stroke-width: 0.7"/>
     <use xlink:href="#mc6001dae85" x="251.836364" y="133.71528" style="fill-opacity: 0; stroke: #ff7f0e; stroke-width: 0.7"/>
     <use xlink:href="#mc6001dae85" x="254.88" y="134.337878" style="fill-opacity: 0; stroke: #ff7f0e; stroke-width: 0.7"/>
     <use xlink:href="#mc6001dae85" x="257.923636" y="134.98766" style="fill-opacity: 0; stroke: #ff7f0e; stroke-width: 0.7"/>
     <use xlink:href="#mc6001dae85" x="260.967273" y="135.623003" style="fill-opacity: 0; stroke: #ff7f0e; stroke-width: 0.7"/>
     <use xlink:href="#mc6001dae85" x="264.010909" y="136.260257" style="fill-opacity: 0; stroke: #ff7f0e; stroke-width: 0.7"/>
     <use xlink:href="#mc6001dae85" x="267.054545" y="136.887096" style="fill-opacity: 0; stroke: #ff7f0e; stroke-width: 0.7"/>
     <use xlink:href="#mc6001dae85" x="270.098182" y="137.531095" style="fill-opacity: 0; stroke: #ff7f0e; stroke-width: 0.7"/>
     <use xlink:href="#mc6001dae85" x="273.141818" y="138.162428" style="fill-opacity: 0; stroke: #ff7f0e; stroke-width: 0.7"/>
     <use xlink:href="#mc6001dae85" x="276.185455" y="138.802333" style="fill-opacity: 0; stroke: #ff7f0e; stroke-width: 0.7"/>
     <use xlink:href="#mc6001dae85" x="279.229091" y="139.445869" style="fill-opacity: 0; stroke: #ff7f0e; stroke-width: 0.7"/>
     <use xlink:href="#mc6001dae85" x="282.272727" y="140.071365" style="fill-opacity: 0; stroke: #ff7f0e; stroke-width: 0.7"/>
     <use xlink:href="#mc6001dae85" x="285.316364" y="140.686385" style="fill-opacity: 0; stroke: #ff7f0e; stroke-width: 0.7"/>
     <use xlink:href="#mc6001dae85" x="288.36" y="141.273667" style="fill-opacity: 0; stroke: #ff7f0e; stroke-width: 0.7"/>
     <use xlink:href="#mc6001dae85" x="291.403636" y="141.847986" style="fill-opacity: 0; stroke: #ff7f0e; stroke-width: 0.7"/>
     <use xlink:href="#mc6001dae85" x="294.447273" y="142.410629" style="fill-opacity: 0; stroke: #ff7f0e; stroke-width: 0.7"/>
     <use xlink:href="#mc6001dae85" x="297.490909" y="142.95483" style="fill-opacity: 0; stroke: #ff7f0e; stroke-width: 0.7"/>
     <use xlink:href="#mc6001dae85" x="300.534545" y="143.503788" style="fill-opacity: 0; stroke: #ff7f0e; stroke-width: 0.7"/>
     <use xlink:href="#mc6001dae85" x="303.578182" y="144.041413" style="fill-opacity: 0; stroke: #ff7f0e; stroke-width: 0.7"/>
     <use xlink:href="#mc6001dae85" x="306.621818" y="144.58345" style="fill-opacity: 0; stroke: #ff7f0e; stroke-width: 0.7"/>
     <use xlink:href="#mc6001dae85" x="309.665455" y="145.153785" style="fill-opacity: 0; stroke: #ff7f0e; stroke-width: 0.7"/>
     <use xlink:href="#mc6001dae85" x="312.709091" y="145.712558" style="fill-opacity: 0; stroke: #ff7f0e; stroke-width: 0.7"/>
     <use xlink:href="#mc6001dae85" x="315.752727" y="146.273996" style="fill-opacity: 0; stroke: #ff7f0e; stroke-width: 0.7"/>
     <use xlink:href="#mc6001dae85" x="318.796364" y="146.836691" style="fill-opacity: 0; stroke: #ff7f0e; stroke-width: 0.7"/>
     <use xlink:href="#mc6001dae85" x="321.84" y="147.378489" style="fill-opacity: 0; stroke: #ff7f0e; stroke-width: 0.7"/>
     <use xlink:href="#mc6001dae85" x="324.883636" y="147.913956" style="fill-opacity: 0; stroke: #ff7f0e; stroke-width: 0.7"/>
     <use xlink:href="#mc6001dae85" x="327.927273" y="148.447036" style="fill-opacity: 0; stroke: #ff7f0e; stroke-width: 0.7"/>
     <use xlink:href="#mc6001dae85" x="330.970909" y="148.999528" style="fill-opacity: 0; stroke: #ff7f0e; stroke-width: 0.7"/>
     <use xlink:href="#mc6001dae85" x="334.014545" y="149.559663" style="fill-opacity: 0; stroke: #ff7f0e; stroke-width: 0.7"/>
     <use xlink:href="#mc6001dae85" x="337.058182" y="150.123637" style="fill-opacity: 0; stroke: #ff7f0e; stroke-width: 0.7"/>
     <use xlink:href="#mc6001dae85" x="340.101818" y="150.69834" style="fill-opacity: 0; stroke: #ff7f0e; stroke-width: 0.7"/>
     <use xlink:href="#mc6001dae85" x="343.145455" y="151.281289" style="fill-opacity: 0; stroke: #ff7f0e; stroke-width: 0.7"/>
     <use xlink:href="#mc6001dae85" x="346.189091" y="151.850948" style="fill-opacity: 0; stroke: #ff7f0e; stroke-width: 0.7"/>
     <use xlink:href="#mc6001dae85" x="349.232727" y="152.422818" style="fill-opacity: 0; stroke: #ff7f0e; stroke-width: 0.7"/>
     <use xlink:href="#mc6001dae85" x="352.276364" y="152.973486" style="fill-opacity: 0; stroke: #ff7f0e; stroke-width: 0.7"/>
     <use xlink:href="#mc6001dae85" x="355.32" y="153.529479" style="fill-opacity: 0; stroke: #ff7f0e; stroke-width: 0.7"/>
     <use xlink:href="#mc6001dae85" x="358.363636" y="154.076735" style="fill-opacity: 0; stroke: #ff7f0e; stroke-width: 0.7"/>
     <use xlink:href="#mc6001dae85" x="361.407273" y="154.642116" style="fill-opacity: 0; stroke: #ff7f0e; stroke-width: 0.7"/>
     <use xlink:href="#mc6001dae85" x="364.450909" y="155.208359" style="fill-opacity: 0; stroke: #ff7f0e; stroke-width: 0.7"/>
     <use xlink:href="#mc6001dae85" x="367.494545" y="155.761349" style="fill-opacity: 0; stroke: #ff7f0e; stroke-width: 0.7"/>
     <use xlink:href="#mc6001dae85" x="370.538182" y="156.343195" style="fill-opacity: 0; stroke: #ff7f0e; stroke-width: 0.7"/>
     <use xlink:href="#mc6001dae85" x="373.581818" y="156.916894" style="fill-opacity: 0; stroke: #ff7f0e; stroke-width: 0.7"/>
    </g>
   </g>
   <g id="line2d_18">
    <g clip-path="url(#p1e06d47114)">
     <use xlink:href="#mc6001dae85" x="69.218182" y="95.747845" style="fill-opacity: 0; stroke: #ff7f0e; stroke-width: 0.7"/>
     <use xlink:href="#mc6001dae85" x="72.261818" y="96.349396" style="fill-opacity: 0; stroke: #ff7f0e; stroke-width: 0.7"/>
     <use xlink:href="#mc6001dae85" x="75.305455" y="96.96942" style="fill-opacity: 0; stroke: #ff7f0e; stroke-width: 0.7"/>
     <use xlink:href="#mc6001dae85" x="78.349091" y="97.604726" style="fill-opacity: 0; stroke: #ff7f0e; stroke-width: 0.7"/>
     <use xlink:href="#mc6001dae85" x="81.392727" y="98.252898" style="fill-opacity: 0; stroke: #ff7f0e; stroke-width: 0.7"/>
     <use xlink:href="#mc6001dae85" x="84.436364" y="98.893535" style="fill-opacity: 0; stroke: #ff7f0e; stroke-width: 0.7"/>
     <use xlink:href="#mc6001dae85" x="87.48" y="99.538384" style="fill-opacity: 0; stroke: #ff7f0e; stroke-width: 0.7"/>
     <use xlink:href="#mc6001dae85" x="90.523636" y="100.185329" style="fill-opacity: 0; stroke: #ff7f0e; stroke-width: 0.7"/>
     <use xlink:href="#mc6001dae85" x="93.567273" y="100.843417" style="fill-opacity: 0; stroke: #ff7f0e; stroke-width: 0.7"/>
     <use xlink:href="#mc6001dae85" x="96.610909" y="101.537597" style="fill-opacity: 0; stroke: #ff7f0e; stroke-width: 0.7"/>
     <use xlink:href="#mc6001dae85" x="99.654545" y="102.20962" style="fill-opacity: 0; stroke: #ff7f0e; stroke-width: 0.7"/>
     <use xlink:href="#mc6001dae85" x="102.698182" y="102.889416" style="fill-opacity: 0; stroke: #ff7f0e; stroke-width: 0.7"/>
     <use xlink:href="#mc6001dae85" x="105.741818" y="103.55596" style="fill-opacity: 0; stroke: #ff7f0e; stroke-width: 0.7"/>
     <use xlink:href="#mc6001dae85" x="108.785455" y="104.233592" style="fill-opacity: 0; stroke: #ff7f0e; stroke-width: 0.7"/>
     <use xlink:href="#mc6001dae85" x="111.829091" y="104.902537" style="fill-opacity: 0; stroke: #ff7f0e; stroke-width: 0.7"/>
     <use xlink:href="#mc6001dae85" x="114.872727" y="105.546736" style="fill-opacity: 0; stroke: #ff7f0e; stroke-width: 0.7"/>
     <use xlink:href="#mc6001dae85" x="117.916364" y="106.218836" style="fill-opacity: 0; stroke: #ff7f0e; stroke-width: 0.7"/>
     <use xlink:href="#mc6001dae85" x="120.96" y="106.87242" style="fill-opacity: 0; stroke: #ff7f0e; stroke-width: 0.7"/>
     <use xlink:href="#mc6001dae85" x="124.003636" y="107.531234" style="fill-opacity: 0; stroke: #ff7f0e; stroke-width: 0.7"/>
     <use xlink:href="#mc6001dae85" x="127.047273" y="108.208398" style="fill-opacity: 0; stroke: #ff7f0e; stroke-width: 0.7"/>
     <use xlink:href="#mc6001dae85" x="130.090909" y="108.874558" style="fill-opacity: 0; stroke: #ff7f0e; stroke-width: 0.7"/>
     <use xlink:href="#mc6001dae85" x="133.134545" y="109.518867" style="fill-opacity: 0; stroke: #ff7f0e; stroke-width: 0.7"/>
     <use xlink:href="#mc6001dae85" x="136.178182" y="110.167262" style="fill-opacity: 0; stroke: #ff7f0e; stroke-width: 0.7"/>
     <use xlink:href="#mc6001dae85" x="139.221818" y="110.799089" style="fill-opacity: 0; stroke: #ff7f0e; stroke-width: 0.7"/>
     <use xlink:href="#mc6001dae85" x="142.265455" y="111.438273" style="fill-opacity: 0; stroke: #ff7f0e; stroke-width: 0.7"/>
     <use xlink:href="#mc6001dae85" x="145.309091" y="112.068404" style="fill-opacity: 0; stroke: #ff7f0e; stroke-width: 0.7"/>
     <use xlink:href="#mc6001dae85" x="148.352727" y="112.696528" style="fill-opacity: 0; stroke: #ff7f0e; stroke-width: 0.7"/>
     <use xlink:href="#mc6001dae85" x="151.396364" y="113.309666" style="fill-opacity: 0; stroke: #ff7f0e; stroke-width: 0.7"/>
     <use xlink:href="#mc6001dae85" x="154.44" y="113.940879" style="fill-opacity: 0; stroke: #ff7f0e; stroke-width: 0.7"/>
     <use xlink:href="#mc6001dae85" x="157.483636" y="114.563843" style="fill-opacity: 0; stroke: #ff7f0e; stroke-width: 0.7"/>
     <use xlink:href="#mc6001dae85" x="160.527273" y="115.191218" style="fill-opacity: 0; stroke: #ff7f0e; stroke-width: 0.7"/>
     <use xlink:href="#mc6001dae85" x="163.570909" y="115.810099" style="fill-opacity: 0; stroke: #ff7f0e; stroke-width: 0.7"/>
     <use xlink:href="#mc6001dae85" x="166.614545" y="116.394772" style="fill-opacity: 0; stroke: #ff7f0e; stroke-width: 0.7"/>
     <use xlink:href="#mc6001dae85" x="169.658182" y="116.996338" style="fill-opacity: 0; stroke: #ff7f0e; stroke-width: 0.7"/>
     <use xlink:href="#mc6001dae85" x="172.701818" y="117.577999" style="fill-opacity: 0; stroke: #ff7f0e; stroke-width: 0.7"/>
     <use xlink:href="#mc6001dae85" x="175.745455" y="118.1524" style="fill-opacity: 0; stroke: #ff7f0e; stroke-width: 0.7"/>
     <use xlink:href="#mc6001dae85" x="178.789091" y="118.715067" style="fill-opacity: 0; stroke: #ff7f0e; stroke-width: 0.7"/>
     <use xlink:href="#mc6001dae85" x="181.832727" y="119.306064" style="fill-opacity: 0; stroke: #ff7f0e; stroke-width: 0.7"/>
     <use xlink:href="#mc6001dae85" x="184.876364" y="119.893565" style="fill-opacity: 0; stroke: #ff7f0e; stroke-width: 0.7"/>
     <use xlink:href="#mc6001dae85" x="187.92" y="120.522202" style="fill-opacity: 0; stroke: #ff7f0e; stroke-width: 0.7"/>
     <use xlink:href="#mc6001dae85" x="190.963636" y="121.137448" style="fill-opacity: 0; stroke: #ff7f0e; stroke-width: 0.7"/>
     <use xlink:href="#mc6001dae85" x="194.007273" y="121.75832" style="fill-opacity: 0; stroke: #ff7f0e; stroke-width: 0.7"/>
     <use xlink:href="#mc6001dae85" x="197.050909" y="122.380251" style="fill-opacity: 0; stroke: #ff7f0e; stroke-width: 0.7"/>
     <use xlink:href="#mc6001dae85" x="200.094545" y="122.986571" style="fill-opacity: 0; stroke: #ff7f0e; stroke-width: 0.7"/>
     <use xlink:href="#mc6001dae85" x="203.138182" y="123.59371" style="fill-opacity: 0; stroke: #ff7f0e; stroke-width: 0.7"/>
     <use xlink:href="#mc6001dae85" x="206.181818" y="124.203732" style="fill-opacity: 0; stroke: #ff7f0e; stroke-width: 0.7"/>
     <use xlink:href="#mc6001dae85" x="209.225455" y="124.794541" style="fill-opacity: 0; stroke: #ff7f0e; stroke-width: 0.7"/>
     <use xlink:href="#mc6001dae85" x="242.705455" y="126.759498" style="fill-opacity: 0; stroke: #ff7f0e; stroke-width: 0.7"/>
     <use xlink:href="#mc6001dae85" x="245.749091" y="126.038203" style="fill-opacity: 0; stroke: #ff7f0e; stroke-width: 0.7"/>
     <use xlink:href="#mc6001dae85" x="248.792727" y="125.428572" style="fill-opacity: 0; stroke: #ff7f0e; stroke-width: 0.7"/>
     <use xlink:href="#mc6001dae85" x="251.836364" y="124.90731" style="fill-opacity: 0; stroke: #ff7f0e; stroke-width: 0.7"/>
     <use xlink:href="#mc6001dae85" x="254.88" y="124.391571" style="fill-opacity: 0; stroke: #ff7f0e; stroke-width: 0.7"/>
     <use xlink:href="#mc6001dae85" x="257.923636" y="123.886604" style="fill-opacity: 0; stroke: #ff7f0e; stroke-width: 0.7"/>
     <use xlink:href="#mc6001dae85" x="260.967273" y="123.403607" style="fill-opacity: 0; stroke: #ff7f0e; stroke-width: 0.7"/>
     <use xlink:href="#mc6001dae85" x="264.010909" y="122.947778" style="fill-opacity: 0; stroke: #ff7f0e; stroke-width: 0.7"/>
     <use xlink:href="#mc6001dae85" x="267.054545" y="122.500857" style="fill-opacity: 0; stroke: #ff7f0e; stroke-width: 0.7"/>
     <use xlink:href="#mc6001dae85" x="270.098182" y="122.031471" style="fill-opacity: 0; stroke: #ff7f0e; stroke-width: 0.7"/>
     <use xlink:href="#mc6001dae85" x="273.141818" y="121.589153" style="fill-opacity: 0; stroke: #ff7f0e; stroke-width: 0.7"/>
     <use xlink:href="#mc6001dae85" x="276.185455" y="121.160078" style="fill-opacity: 0; stroke: #ff7f0e; stroke-width: 0.7"/>
     <use xlink:href="#mc6001dae85" x="279.229091" y="120.707005" style="fill-opacity: 0; stroke: #ff7f0e; stroke-width: 0.7"/>
     <use xlink:href="#mc6001dae85" x="282.272727" y="120.250205" style="fill-opacity: 0; stroke: #ff7f0e; stroke-width: 0.7"/>
     <use xlink:href="#mc6001dae85" x="285.316364" y="119.813163" style="fill-opacity: 0; stroke: #ff7f0e; stroke-width: 0.7"/>
     <use xlink:href="#mc6001dae85" x="288.36" y="119.377939" style="fill-opacity: 0; stroke: #ff7f0e; stroke-width: 0.7"/>
     <use xlink:href="#mc6001dae85" x="291.403636" y="118.951957" style="fill-opacity: 0; stroke: #ff7f0e; stroke-width: 0.7"/>
     <use xlink:href="#mc6001dae85" x="294.447273" y="118.516268" style="fill-opacity: 0; stroke: #ff7f0e; stroke-width: 0.7"/>
     <use xlink:href="#mc6001dae85" x="297.490909" y="118.103996" style="fill-opacity: 0; stroke: #ff7f0e; stroke-width: 0.7"/>
     <use xlink:href="#mc6001dae85" x="300.534545" y="117.666216" style="fill-opacity: 0; stroke: #ff7f0e; stroke-width: 0.7"/>
     <use xlink:href="#mc6001dae85" x="303.578182" y="117.233225" style="fill-opacity: 0; stroke: #ff7f0e; stroke-width: 0.7"/>
     <use xlink:href="#mc6001dae85" x="306.621818" y="116.794111" style="fill-opacity: 0; stroke: #ff7f0e; stroke-width: 0.7"/>
     <use xlink:href="#mc6001dae85" x="309.665455" y="116.333717" style="fill-opacity: 0; stroke: #ff7f0e; stroke-width: 0.7"/>
     <use xlink:href="#mc6001dae85" x="312.709091" y="115.861716" style="fill-opacity: 0; stroke: #ff7f0e; stroke-width: 0.7"/>
     <use xlink:href="#mc6001dae85" x="315.752727" y="115.411354" style="fill-opacity: 0; stroke: #ff7f0e; stroke-width: 0.7"/>
     <use xlink:href="#mc6001dae85" x="318.796364" y="114.967749" style="fill-opacity: 0; stroke: #ff7f0e; stroke-width: 0.7"/>
     <use xlink:href="#mc6001dae85" x="321.84" y="114.532447" style="fill-opacity: 0; stroke: #ff7f0e; stroke-width: 0.7"/>
     <use xlink:href="#mc6001dae85" x="324.883636" y="114.100929" style="fill-opacity: 0; stroke: #ff7f0e; stroke-width: 0.7"/>
     <use xlink:href="#mc6001dae85" x="327.927273" y="113.660615" style="fill-opacity: 0; stroke: #ff7f0e; stroke-width: 0.7"/>
     <use xlink:href="#mc6001dae85" x="330.970909" y="113.218509" style="fill-opacity: 0; stroke: #ff7f0e; stroke-width: 0.7"/>
     <use xlink:href="#mc6001dae85" x="334.014545" y="112.762051" style="fill-opacity: 0; stroke: #ff7f0e; stroke-width: 0.7"/>
     <use xlink:href="#mc6001dae85" x="337.058182" y="112.305554" style="fill-opacity: 0; stroke: #ff7f0e; stroke-width: 0.7"/>
     <use xlink:href="#mc6001dae85" x="340.101818" y="111.809313" style="fill-opacity: 0; stroke: #ff7f0e; stroke-width: 0.7"/>
     <use xlink:href="#mc6001dae85" x="343.145455" y="111.330392" style="fill-opacity: 0; stroke: #ff7f0e; stroke-width: 0.7"/>
     <use xlink:href="#mc6001dae85" x="346.189091" y="110.848345" style="fill-opacity: 0; stroke: #ff7f0e; stroke-width: 0.7"/>
     <use xlink:href="#mc6001dae85" x="349.232727" y="110.373348" style="fill-opacity: 0; stroke: #ff7f0e; stroke-width: 0.7"/>
     <use xlink:href="#mc6001dae85" x="352.276364" y="109.885073" style="fill-opacity: 0; stroke: #ff7f0e; stroke-width: 0.7"/>
     <use xlink:href="#mc6001dae85" x="355.32" y="109.408271" style="fill-opacity: 0; stroke: #ff7f0e; stroke-width: 0.7"/>
     <use xlink:href="#mc6001dae85" x="358.363636" y="108.9347" style="fill-opacity: 0; stroke: #ff7f0e; stroke-width: 0.7"/>
     <use xlink:href="#mc6001dae85" x="361.407273" y="108.479175" style="fill-opacity: 0; stroke: #ff7f0e; stroke-width: 0.7"/>
     <use xlink:href="#mc6001dae85" x="364.450909" y="107.993577" style="fill-opacity: 0; stroke: #ff7f0e; stroke-width: 0.7"/>
     <use xlink:href="#mc6001dae85" x="367.494545" y="107.513464" style="fill-opacity: 0; stroke: #ff7f0e; stroke-width: 0.7"/>
     <use xlink:href="#mc6001dae85" x="370.538182" y="107.044899" style="fill-opacity: 0; stroke: #ff7f0e; stroke-width: 0.7"/>
     <use xlink:href="#mc6001dae85" x="373.581818" y="106.576236" style="fill-opacity: 0; stroke: #ff7f0e; stroke-width: 0.7"/>
    </g>
   </g>
   <g id="patch_3">
    <path d="M 54 256.32 
L 54 34.56 
" style="fill: none; stroke: #000000; stroke-width: 0.8; stroke-linejoin: miter; stroke-linecap: square"/>
   </g>
   <g id="patch_4">
    <path d="M 388.8 256.32 
L 388.8 34.56 
" style="fill: none; stroke: #000000; stroke-width: 0.8; stroke-linejoin: miter; stroke-linecap: square"/>
   </g>
   <g id="patch_5">
    <path d="M 54 256.32 
L 388.8 256.32 
" style="fill: none; stroke: #000000; stroke-width: 0.8; stroke-linejoin: miter; stroke-linecap: square"/>
   </g>
   <g id="patch_6">
    <path d="M 54 34.56 
L 388.8 34.56 
" style="fill: none; stroke: #000000; stroke-width: 0.8; stroke-linejoin: miter; stroke-linecap: square"/>
   </g>
   <g id="legend_1">
    <g id="patch_7">
     <path d="M 240.504687 251.32 
L 381.8 251.32 
Q 383.8 251.32 383.8 249.32 
L 383.8 220.96375 
Q 383.8 218.96375 381.8 218.96375 
L 240.504687 218.96375 
Q 238.504687 218.96375 238.504687 220.96375 
L 238.504687 249.32 
Q 238.504687 251.32 240.504687 251.32 
z
" style="fill: #ffffff; opacity: 0.8; stroke: #cccccc; stroke-linejoin: miter"/>
    </g>
    <g id="line2d_19">
     <path d="M 242.504687 227.062187 
L 252.504687 227.062187 
L 262.504687 227.062187 
" style="fill: none; stroke: #1f77b4; stroke-width: 1.5; stroke-linecap: square"/>
    </g>
    <g id="text_13">
     <!-- Predicted transitions -->
     <g transform="translate(270.504687 230.562187)scale(0.1 -0.1)">
      <defs>
       <path id="DejaVuSans-50" d="M 1259 4147 
L 1259 2394 
L 2053 2394 
Q 2494 2394 2734 2622 
Q 2975 2850 2975 3272 
Q 2975 3691 2734 3919 
Q 2494 4147 2053 4147 
L 1259 4147 
z
M 628 4666 
L 2053 4666 
Q 2838 4666 3239 4311 
Q 3641 3956 3641 3272 
Q 3641 2581 3239 2228 
Q 2838 1875 2053 1875 
L 1259 1875 
L 1259 0 
L 628 0 
L 628 4666 
z
" transform="scale(0.015625)"/>
       <path id="DejaVuSans-72" d="M 2631 2963 
Q 2534 3019 2420 3045 
Q 2306 3072 2169 3072 
Q 1681 3072 1420 2755 
Q 1159 2438 1159 1844 
L 1159 0 
L 581 0 
L 581 3500 
L 1159 3500 
L 1159 2956 
Q 1341 3275 1631 3429 
Q 1922 3584 2338 3584 
Q 2397 3584 2469 3576 
Q 2541 3569 2628 3553 
L 2631 2963 
z
" transform="scale(0.015625)"/>
       <path id="DejaVuSans-65" d="M 3597 1894 
L 3597 1613 
L 953 1613 
Q 991 1019 1311 708 
Q 1631 397 2203 397 
Q 2534 397 2845 478 
Q 3156 559 3463 722 
L 3463 178 
Q 3153 47 2828 -22 
Q 2503 -91 2169 -91 
Q 1331 -91 842 396 
Q 353 884 353 1716 
Q 353 2575 817 3079 
Q 1281 3584 2069 3584 
Q 2775 3584 3186 3129 
Q 3597 2675 3597 1894 
z
M 3022 2063 
Q 3016 2534 2758 2815 
Q 2500 3097 2075 3097 
Q 1594 3097 1305 2825 
Q 1016 2553 972 2059 
L 3022 2063 
z
" transform="scale(0.015625)"/>
       <path id="DejaVuSans-64" d="M 2906 2969 
L 2906 4863 
L 3481 4863 
L 3481 0 
L 2906 0 
L 2906 525 
Q 2725 213 2448 61 
Q 2172 -91 1784 -91 
Q 1150 -91 751 415 
Q 353 922 353 1747 
Q 353 2572 751 3078 
Q 1150 3584 1784 3584 
Q 2172 3584 2448 3432 
Q 2725 3281 2906 2969 
z
M 947 1747 
Q 947 1113 1208 752 
Q 1469 391 1925 391 
Q 2381 391 2643 752 
Q 2906 1113 2906 1747 
Q 2906 2381 2643 2742 
Q 2381 3103 1925 3103 
Q 1469 3103 1208 2742 
Q 947 2381 947 1747 
z
" transform="scale(0.015625)"/>
       <path id="DejaVuSans-69" d="M 603 3500 
L 1178 3500 
L 1178 0 
L 603 0 
L 603 3500 
z
M 603 4863 
L 1178 4863 
L 1178 4134 
L 603 4134 
L 603 4863 
z
" transform="scale(0.015625)"/>
       <path id="DejaVuSans-63" d="M 3122 3366 
L 3122 2828 
Q 2878 2963 2633 3030 
Q 2388 3097 2138 3097 
Q 1578 3097 1268 2742 
Q 959 2388 959 1747 
Q 959 1106 1268 751 
Q 1578 397 2138 397 
Q 2388 397 2633 464 
Q 2878 531 3122 666 
L 3122 134 
Q 2881 22 2623 -34 
Q 2366 -91 2075 -91 
Q 1284 -91 818 406 
Q 353 903 353 1747 
Q 353 2603 823 3093 
Q 1294 3584 2113 3584 
Q 2378 3584 2631 3529 
Q 2884 3475 3122 3366 
z
" transform="scale(0.015625)"/>
       <path id="DejaVuSans-74" d="M 1172 4494 
L 1172 3500 
L 2356 3500 
L 2356 3053 
L 1172 3053 
L 1172 1153 
Q 1172 725 1289 603 
Q 1406 481 1766 481 
L 2356 481 
L 2356 0 
L 1766 0 
Q 1100 0 847 248 
Q 594 497 594 1153 
L 594 3053 
L 172 3053 
L 172 3500 
L 594 3500 
L 594 4494 
L 1172 4494 
z
" transform="scale(0.015625)"/>
       <path id="DejaVuSans-20" transform="scale(0.015625)"/>
       <path id="DejaVuSans-61" d="M 2194 1759 
Q 1497 1759 1228 1600 
Q 959 1441 959 1056 
Q 959 750 1161 570 
Q 1363 391 1709 391 
Q 2188 391 2477 730 
Q 2766 1069 2766 1631 
L 2766 1759 
L 2194 1759 
z
M 3341 1997 
L 3341 0 
L 2766 0 
L 2766 531 
Q 2569 213 2275 61 
Q 1981 -91 1556 -91 
Q 1019 -91 701 211 
Q 384 513 384 1019 
Q 384 1609 779 1909 
Q 1175 2209 1959 2209 
L 2766 2209 
L 2766 2266 
Q 2766 2663 2505 2880 
Q 2244 3097 1772 3097 
Q 1472 3097 1187 3025 
Q 903 2953 641 2809 
L 641 3341 
Q 956 3463 1253 3523 
Q 1550 3584 1831 3584 
Q 2591 3584 2966 3190 
Q 3341 2797 3341 1997 
z
" transform="scale(0.015625)"/>
       <path id="DejaVuSans-6e" d="M 3513 2113 
L 3513 0 
L 2938 0 
L 2938 2094 
Q 2938 2591 2744 2837 
Q 2550 3084 2163 3084 
Q 1697 3084 1428 2787 
Q 1159 2491 1159 1978 
L 1159 0 
L 581 0 
L 581 3500 
L 1159 3500 
L 1159 2956 
Q 1366 3272 1645 3428 
Q 1925 3584 2291 3584 
Q 2894 3584 3203 3211 
Q 3513 2838 3513 2113 
z
" transform="scale(0.015625)"/>
       <path id="DejaVuSans-73" d="M 2834 3397 
L 2834 2853 
Q 2591 2978 2328 3040 
Q 2066 3103 1784 3103 
Q 1356 3103 1142 2972 
Q 928 2841 928 2578 
Q 928 2378 1081 2264 
Q 1234 2150 1697 2047 
L 1894 2003 
Q 2506 1872 2764 1633 
Q 3022 1394 3022 966 
Q 3022 478 2636 193 
Q 2250 -91 1575 -91 
Q 1294 -91 989 -36 
Q 684 19 347 128 
L 347 722 
Q 666 556 975 473 
Q 1284 391 1588 391 
Q 1994 391 2212 530 
Q 2431 669 2431 922 
Q 2431 1156 2273 1281 
Q 2116 1406 1581 1522 
L 1381 1569 
Q 847 1681 609 1914 
Q 372 2147 372 2553 
Q 372 3047 722 3315 
Q 1072 3584 1716 3584 
Q 2034 3584 2315 3537 
Q 2597 3491 2834 3397 
z
" transform="scale(0.015625)"/>
       <path id="DejaVuSans-6f" d="M 1959 3097 
Q 1497 3097 1228 2736 
Q 959 2375 959 1747 
Q 959 1119 1226 758 
Q 1494 397 1959 397 
Q 2419 397 2687 759 
Q 2956 1122 2956 1747 
Q 2956 2369 2687 2733 
Q 2419 3097 1959 3097 
z
M 1959 3584 
Q 2709 3584 3137 3096 
Q 3566 2609 3566 1747 
Q 3566 888 3137 398 
Q 2709 -91 1959 -91 
Q 1206 -91 779 398 
Q 353 888 353 1747 
Q 353 2609 779 3096 
Q 1206 3584 1959 3584 
z
" transform="scale(0.015625)"/>
      </defs>
      <use xlink:href="#DejaVuSans-50"/>
      <use xlink:href="#DejaVuSans-72" x="58.552734"/>
      <use xlink:href="#DejaVuSans-65" x="97.416016"/>
      <use xlink:href="#DejaVuSans-64" x="158.939453"/>
      <use xlink:href="#DejaVuSans-69" x="222.416016"/>
      <use xlink:href="#DejaVuSans-63" x="250.199219"/>
      <use xlink:href="#DejaVuSans-74" x="305.179688"/>
      <use xlink:href="#DejaVuSans-65" x="344.388672"/>
      <use xlink:href="#DejaVuSans-64" x="405.912109"/>
      <use xlink:href="#DejaVuSans-20" x="469.388672"/>
      <use xlink:href="#DejaVuSans-74" x="501.175781"/>
      <use xlink:href="#DejaVuSans-72" x="540.384766"/>
      <use xlink:href="#DejaVuSans-61" x="581.498047"/>
      <use xlink:href="#DejaVuSans-6e" x="642.777344"/>
      <use xlink:href="#DejaVuSans-73" x="706.15625"/>
      <use xlink:href="#DejaVuSans-69" x="758.255859"/>
      <use xlink:href="#DejaVuSans-74" x="786.039062"/>
      <use xlink:href="#DejaVuSans-69" x="825.248047"/>
      <use xlink:href="#DejaVuSans-6f" x="853.03125"/>
      <use xlink:href="#DejaVuSans-6e" x="914.212891"/>
      <use xlink:href="#DejaVuSans-73" x="977.591797"/>
     </g>
    </g>
    <g id="line2d_20">
     <g>
      <use xlink:href="#mc6001dae85" x="252.504687" y="241.740313" style="fill-opacity: 0; stroke: #ff7f0e; stroke-width: 0.7"/>
     </g>
    </g>
    <g id="text_14">
     <!-- ODMR measurements -->
     <g transform="translate(270.504687 245.240313)scale(0.1 -0.1)">
      <defs>
       <path id="DejaVuSans-4f" d="M 2522 4238 
Q 1834 4238 1429 3725 
Q 1025 3213 1025 2328 
Q 1025 1447 1429 934 
Q 1834 422 2522 422 
Q 3209 422 3611 934 
Q 4013 1447 4013 2328 
Q 4013 3213 3611 3725 
Q 3209 4238 2522 4238 
z
M 2522 4750 
Q 3503 4750 4090 4092 
Q 4678 3434 4678 2328 
Q 4678 1225 4090 567 
Q 3503 -91 2522 -91 
Q 1538 -91 948 565 
Q 359 1222 359 2328 
Q 359 3434 948 4092 
Q 1538 4750 2522 4750 
z
" transform="scale(0.015625)"/>
       <path id="DejaVuSans-44" d="M 1259 4147 
L 1259 519 
L 2022 519 
Q 2988 519 3436 956 
Q 3884 1394 3884 2338 
Q 3884 3275 3436 3711 
Q 2988 4147 2022 4147 
L 1259 4147 
z
M 628 4666 
L 1925 4666 
Q 3281 4666 3915 4102 
Q 4550 3538 4550 2338 
Q 4550 1131 3912 565 
Q 3275 0 1925 0 
L 628 0 
L 628 4666 
z
" transform="scale(0.015625)"/>
       <path id="DejaVuSans-4d" d="M 628 4666 
L 1569 4666 
L 2759 1491 
L 3956 4666 
L 4897 4666 
L 4897 0 
L 4281 0 
L 4281 4097 
L 3078 897 
L 2444 897 
L 1241 4097 
L 1241 0 
L 628 0 
L 628 4666 
z
" transform="scale(0.015625)"/>
       <path id="DejaVuSans-52" d="M 2841 2188 
Q 3044 2119 3236 1894 
Q 3428 1669 3622 1275 
L 4263 0 
L 3584 0 
L 2988 1197 
Q 2756 1666 2539 1819 
Q 2322 1972 1947 1972 
L 1259 1972 
L 1259 0 
L 628 0 
L 628 4666 
L 2053 4666 
Q 2853 4666 3247 4331 
Q 3641 3997 3641 3322 
Q 3641 2881 3436 2590 
Q 3231 2300 2841 2188 
z
M 1259 4147 
L 1259 2491 
L 2053 2491 
Q 2509 2491 2742 2702 
Q 2975 2913 2975 3322 
Q 2975 3731 2742 3939 
Q 2509 4147 2053 4147 
L 1259 4147 
z
" transform="scale(0.015625)"/>
       <path id="DejaVuSans-6d" d="M 3328 2828 
Q 3544 3216 3844 3400 
Q 4144 3584 4550 3584 
Q 5097 3584 5394 3201 
Q 5691 2819 5691 2113 
L 5691 0 
L 5113 0 
L 5113 2094 
Q 5113 2597 4934 2840 
Q 4756 3084 4391 3084 
Q 3944 3084 3684 2787 
Q 3425 2491 3425 1978 
L 3425 0 
L 2847 0 
L 2847 2094 
Q 2847 2600 2669 2842 
Q 2491 3084 2119 3084 
Q 1678 3084 1418 2786 
Q 1159 2488 1159 1978 
L 1159 0 
L 581 0 
L 581 3500 
L 1159 3500 
L 1159 2956 
Q 1356 3278 1631 3431 
Q 1906 3584 2284 3584 
Q 2666 3584 2933 3390 
Q 3200 3197 3328 2828 
z
" transform="scale(0.015625)"/>
       <path id="DejaVuSans-75" d="M 544 1381 
L 544 3500 
L 1119 3500 
L 1119 1403 
Q 1119 906 1312 657 
Q 1506 409 1894 409 
Q 2359 409 2629 706 
Q 2900 1003 2900 1516 
L 2900 3500 
L 3475 3500 
L 3475 0 
L 2900 0 
L 2900 538 
Q 2691 219 2414 64 
Q 2138 -91 1772 -91 
Q 1169 -91 856 284 
Q 544 659 544 1381 
z
M 1991 3584 
L 1991 3584 
z
" transform="scale(0.015625)"/>
      </defs>
      <use xlink:href="#DejaVuSans-4f"/>
      <use xlink:href="#DejaVuSans-44" x="78.710938"/>
      <use xlink:href="#DejaVuSans-4d" x="155.712891"/>
      <use xlink:href="#DejaVuSans-52" x="241.992188"/>
      <use xlink:href="#DejaVuSans-20" x="311.474609"/>
      <use xlink:href="#DejaVuSans-6d" x="343.261719"/>
      <use xlink:href="#DejaVuSans-65" x="440.673828"/>
      <use xlink:href="#DejaVuSans-61" x="502.197266"/>
      <use xlink:href="#DejaVuSans-73" x="563.476562"/>
      <use xlink:href="#DejaVuSans-75" x="615.576172"/>
      <use xlink:href="#DejaVuSans-72" x="678.955078"/>
      <use xlink:href="#DejaVuSans-65" x="717.818359"/>
      <use xlink:href="#DejaVuSans-6d" x="779.341797"/>
      <use xlink:href="#DejaVuSans-65" x="876.753906"/>
      <use xlink:href="#DejaVuSans-6e" x="938.277344"/>
      <use xlink:href="#DejaVuSans-74" x="1001.65625"/>
      <use xlink:href="#DejaVuSans-73" x="1040.865234"/>
     </g>
    </g>
   </g>
  </g>
 </g>
 <defs>
  <clipPath id="p1e06d47114">
   <rect x="54" y="34.56" width="334.8" height="221.76"/>
  </clipPath>
 </defs>
</svg>
