<?xml version="1.0" encoding="utf-8" standalone="no"?>
<!DOCTYPE svg PUBLIC "-//W3C//DTD SVG 1.1//EN"
  "http://www.w3.org/Graphics/SVG/1.1/DTD/svg11.dtd">
<svg xmlns:xlink="http://www.w3.org/1999/xlink" width="432pt" height="288pt" viewBox="0 0 432 288" xmlns="http://www.w3.org/2000/svg" version="1.1">
 <metadata>
  <rdf:RDF xmlns:dc="http://purl.org/dc/elements/1.1/" xmlns:cc="http://creativecommons.org/ns#" xmlns:rdf="http://www.w3.org/1999/02/22-rdf-syntax-ns#">
   <cc:Work>
    <dc:type rdf:resource="http://purl.org/dc/dcmitype/StillImage"/>
    <dc:date>2022-08-03T19:12:46.461358</dc:date>
    <dc:format>image/svg+xml</dc:format>
    <dc:creator>
     <cc:Agent>
      <dc:title>Matplotlib v3.5.1, https://matplotlib.org/</dc:title>
     </cc:Agent>
    </dc:creator>
   </cc:Work>
  </rdf:RDF>
 </metadata>
 <defs>
  <style type="text/css">*{stroke-linejoin: round; stroke-linecap: butt}</style>
 </defs>
 <g id="figure_1">
  <g id="patch_1">
   <path d="M 0 288 
L 432 288 
L 432 0 
L 0 0 
z
" style="fill: #ffffff"/>
  </g>
  <g id="axes_1">
   <g id="patch_2">
    <path d="M 54 256.32 
L 388.8 256.32 
L 388.8 34.56 
L 54 34.56 
z
" style="fill: #ffffff"/>
   </g>
   <g id="matplotlib.axis_1">
    <g id="xtick_1">
     <g id="line2d_1">
      <defs>
       <path id="mebcb8defdb" d="M 0 0 
L 0 3.5 
" style="stroke: #000000; stroke-width: 0.8"/>
      </defs>
      <g>
       <use xlink:href="#mebcb8defdb" x="69.218182" y="256.32" style="stroke: #000000; stroke-width: 0.8"/>
      </g>
     </g>
     <g id="text_1">
      <!-- 0 -->
      <g transform="translate(64.764432 273.957812)scale(0.14 -0.14)">
       <defs>
        <path id="DejaVuSans-30" d="M 2034 4250 
Q 1547 4250 1301 3770 
Q 1056 3291 1056 2328 
Q 1056 1369 1301 889 
Q 1547 409 2034 409 
Q 2525 409 2770 889 
Q 3016 1369 3016 2328 
Q 3016 3291 2770 3770 
Q 2525 4250 2034 4250 
z
M 2034 4750 
Q 2819 4750 3233 4129 
Q 3647 3509 3647 2328 
Q 3647 1150 3233 529 
Q 2819 -91 2034 -91 
Q 1250 -91 836 529 
Q 422 1150 422 2328 
Q 422 3509 836 4129 
Q 1250 4750 2034 4750 
z
" transform="scale(0.015625)"/>
       </defs>
       <use xlink:href="#DejaVuSans-30"/>
      </g>
     </g>
    </g>
    <g id="xtick_2">
     <g id="line2d_2">
      <g>
       <use xlink:href="#mebcb8defdb" x="130.090909" y="256.32" style="stroke: #000000; stroke-width: 0.8"/>
      </g>
     </g>
     <g id="text_2">
      <!-- 2000 -->
      <g transform="translate(112.275909 273.957812)scale(0.14 -0.14)">
       <defs>
        <path id="DejaVuSans-32" d="M 1228 531 
L 3431 531 
L 3431 0 
L 469 0 
L 469 531 
Q 828 903 1448 1529 
Q 2069 2156 2228 2338 
Q 2531 2678 2651 2914 
Q 2772 3150 2772 3378 
Q 2772 3750 2511 3984 
Q 2250 4219 1831 4219 
Q 1534 4219 1204 4116 
Q 875 4013 500 3803 
L 500 4441 
Q 881 4594 1212 4672 
Q 1544 4750 1819 4750 
Q 2544 4750 2975 4387 
Q 3406 4025 3406 3419 
Q 3406 3131 3298 2873 
Q 3191 2616 2906 2266 
Q 2828 2175 2409 1742 
Q 1991 1309 1228 531 
z
" transform="scale(0.015625)"/>
       </defs>
       <use xlink:href="#DejaVuSans-32"/>
       <use xlink:href="#DejaVuSans-30" x="63.623047"/>
       <use xlink:href="#DejaVuSans-30" x="127.246094"/>
       <use xlink:href="#DejaVuSans-30" x="190.869141"/>
      </g>
     </g>
    </g>
    <g id="xtick_3">
     <g id="line2d_3">
      <g>
       <use xlink:href="#mebcb8defdb" x="190.963636" y="256.32" style="stroke: #000000; stroke-width: 0.8"/>
      </g>
     </g>
     <g id="text_3">
      <!-- 4000 -->
      <g transform="translate(173.148636 273.957812)scale(0.14 -0.14)">
       <defs>
        <path id="DejaVuSans-34" d="M 2419 4116 
L 825 1625 
L 2419 1625 
L 2419 4116 
z
M 2253 4666 
L 3047 4666 
L 3047 1625 
L 3713 1625 
L 3713 1100 
L 3047 1100 
L 3047 0 
L 2419 0 
L 2419 1100 
L 313 1100 
L 313 1709 
L 2253 4666 
z
" transform="scale(0.015625)"/>
       </defs>
       <use xlink:href="#DejaVuSans-34"/>
       <use xlink:href="#DejaVuSans-30" x="63.623047"/>
       <use xlink:href="#DejaVuSans-30" x="127.246094"/>
       <use xlink:href="#DejaVuSans-30" x="190.869141"/>
      </g>
     </g>
    </g>
    <g id="xtick_4">
     <g id="line2d_4">
      <g>
       <use xlink:href="#mebcb8defdb" x="251.836364" y="256.32" style="stroke: #000000; stroke-width: 0.8"/>
      </g>
     </g>
     <g id="text_4">
      <!-- 6000 -->
      <g transform="translate(234.021364 273.957812)scale(0.14 -0.14)">
       <defs>
        <path id="DejaVuSans-36" d="M 2113 2584 
Q 1688 2584 1439 2293 
Q 1191 2003 1191 1497 
Q 1191 994 1439 701 
Q 1688 409 2113 409 
Q 2538 409 2786 701 
Q 3034 994 3034 1497 
Q 3034 2003 2786 2293 
Q 2538 2584 2113 2584 
z
M 3366 4563 
L 3366 3988 
Q 3128 4100 2886 4159 
Q 2644 4219 2406 4219 
Q 1781 4219 1451 3797 
Q 1122 3375 1075 2522 
Q 1259 2794 1537 2939 
Q 1816 3084 2150 3084 
Q 2853 3084 3261 2657 
Q 3669 2231 3669 1497 
Q 3669 778 3244 343 
Q 2819 -91 2113 -91 
Q 1303 -91 875 529 
Q 447 1150 447 2328 
Q 447 3434 972 4092 
Q 1497 4750 2381 4750 
Q 2619 4750 2861 4703 
Q 3103 4656 3366 4563 
z
" transform="scale(0.015625)"/>
       </defs>
       <use xlink:href="#DejaVuSans-36"/>
       <use xlink:href="#DejaVuSans-30" x="63.623047"/>
       <use xlink:href="#DejaVuSans-30" x="127.246094"/>
       <use xlink:href="#DejaVuSans-30" x="190.869141"/>
      </g>
     </g>
    </g>
    <g id="xtick_5">
     <g id="line2d_5">
      <g>
       <use xlink:href="#mebcb8defdb" x="312.709091" y="256.32" style="stroke: #000000; stroke-width: 0.8"/>
      </g>
     </g>
     <g id="text_5">
      <!-- 8000 -->
      <g transform="translate(294.894091 273.957812)scale(0.14 -0.14)">
       <defs>
        <path id="DejaVuSans-38" d="M 2034 2216 
Q 1584 2216 1326 1975 
Q 1069 1734 1069 1313 
Q 1069 891 1326 650 
Q 1584 409 2034 409 
Q 2484 409 2743 651 
Q 3003 894 3003 1313 
Q 3003 1734 2745 1975 
Q 2488 2216 2034 2216 
z
M 1403 2484 
Q 997 2584 770 2862 
Q 544 3141 544 3541 
Q 544 4100 942 4425 
Q 1341 4750 2034 4750 
Q 2731 4750 3128 4425 
Q 3525 4100 3525 3541 
Q 3525 3141 3298 2862 
Q 3072 2584 2669 2484 
Q 3125 2378 3379 2068 
Q 3634 1759 3634 1313 
Q 3634 634 3220 271 
Q 2806 -91 2034 -91 
Q 1263 -91 848 271 
Q 434 634 434 1313 
Q 434 1759 690 2068 
Q 947 2378 1403 2484 
z
M 1172 3481 
Q 1172 3119 1398 2916 
Q 1625 2713 2034 2713 
Q 2441 2713 2670 2916 
Q 2900 3119 2900 3481 
Q 2900 3844 2670 4047 
Q 2441 4250 2034 4250 
Q 1625 4250 1398 4047 
Q 1172 3844 1172 3481 
z
" transform="scale(0.015625)"/>
       </defs>
       <use xlink:href="#DejaVuSans-38"/>
       <use xlink:href="#DejaVuSans-30" x="63.623047"/>
       <use xlink:href="#DejaVuSans-30" x="127.246094"/>
       <use xlink:href="#DejaVuSans-30" x="190.869141"/>
      </g>
     </g>
    </g>
    <g id="xtick_6">
     <g id="line2d_6">
      <g>
       <use xlink:href="#mebcb8defdb" x="373.581818" y="256.32" style="stroke: #000000; stroke-width: 0.8"/>
      </g>
     </g>
     <g id="text_6">
      <!-- 10000 -->
      <g transform="translate(351.313068 273.957812)scale(0.14 -0.14)">
       <defs>
        <path id="DejaVuSans-31" d="M 794 531 
L 1825 531 
L 1825 4091 
L 703 3866 
L 703 4441 
L 1819 4666 
L 2450 4666 
L 2450 531 
L 3481 531 
L 3481 0 
L 794 0 
L 794 531 
z
" transform="scale(0.015625)"/>
       </defs>
       <use xlink:href="#DejaVuSans-31"/>
       <use xlink:href="#DejaVuSans-30" x="63.623047"/>
       <use xlink:href="#DejaVuSans-30" x="127.246094"/>
       <use xlink:href="#DejaVuSans-30" x="190.869141"/>
       <use xlink:href="#DejaVuSans-30" x="254.492188"/>
      </g>
     </g>
    </g>
   </g>
   <g id="matplotlib.axis_2">
    <g id="ytick_1">
     <g id="line2d_7">
      <defs>
       <path id="me06eb20937" d="M 0 0 
L -3.5 0 
" style="stroke: #000000; stroke-width: 0.8"/>
      </defs>
      <g>
       <use xlink:href="#me06eb20937" x="54" y="234.859355" style="stroke: #000000; stroke-width: 0.8"/>
      </g>
     </g>
     <g id="text_7">
      <!-- 0.68 -->
      <g transform="translate(15.828125 240.178261)scale(0.14 -0.14)">
       <defs>
        <path id="DejaVuSans-2e" d="M 684 794 
L 1344 794 
L 1344 0 
L 684 0 
L 684 794 
z
" transform="scale(0.015625)"/>
       </defs>
       <use xlink:href="#DejaVuSans-30"/>
       <use xlink:href="#DejaVuSans-2e" x="63.623047"/>
       <use xlink:href="#DejaVuSans-36" x="95.410156"/>
       <use xlink:href="#DejaVuSans-38" x="159.033203"/>
      </g>
     </g>
    </g>
    <g id="ytick_2">
     <g id="line2d_8">
      <g>
       <use xlink:href="#me06eb20937" x="54" y="206.245161" style="stroke: #000000; stroke-width: 0.8"/>
      </g>
     </g>
     <g id="text_8">
      <!-- 0.70 -->
      <g transform="translate(15.828125 211.564068)scale(0.14 -0.14)">
       <defs>
        <path id="DejaVuSans-37" d="M 525 4666 
L 3525 4666 
L 3525 4397 
L 1831 0 
L 1172 0 
L 2766 4134 
L 525 4134 
L 525 4666 
z
" transform="scale(0.015625)"/>
       </defs>
       <use xlink:href="#DejaVuSans-30"/>
       <use xlink:href="#DejaVuSans-2e" x="63.623047"/>
       <use xlink:href="#DejaVuSans-37" x="95.410156"/>
       <use xlink:href="#DejaVuSans-30" x="159.033203"/>
      </g>
     </g>
    </g>
    <g id="ytick_3">
     <g id="line2d_9">
      <g>
       <use xlink:href="#me06eb20937" x="54" y="177.630968" style="stroke: #000000; stroke-width: 0.8"/>
      </g>
     </g>
     <g id="text_9">
      <!-- 0.72 -->
      <g transform="translate(15.828125 182.949874)scale(0.14 -0.14)">
       <use xlink:href="#DejaVuSans-30"/>
       <use xlink:href="#DejaVuSans-2e" x="63.623047"/>
       <use xlink:href="#DejaVuSans-37" x="95.410156"/>
       <use xlink:href="#DejaVuSans-32" x="159.033203"/>
      </g>
     </g>
    </g>
    <g id="ytick_4">
     <g id="line2d_10">
      <g>
       <use xlink:href="#me06eb20937" x="54" y="149.016774" style="stroke: #000000; stroke-width: 0.8"/>
      </g>
     </g>
     <g id="text_10">
      <!-- 0.74 -->
      <g transform="translate(15.828125 154.33568)scale(0.14 -0.14)">
       <use xlink:href="#DejaVuSans-30"/>
       <use xlink:href="#DejaVuSans-2e" x="63.623047"/>
       <use xlink:href="#DejaVuSans-37" x="95.410156"/>
       <use xlink:href="#DejaVuSans-34" x="159.033203"/>
      </g>
     </g>
    </g>
    <g id="ytick_5">
     <g id="line2d_11">
      <g>
       <use xlink:href="#me06eb20937" x="54" y="120.402581" style="stroke: #000000; stroke-width: 0.8"/>
      </g>
     </g>
     <g id="text_11">
      <!-- 0.76 -->
      <g transform="translate(15.828125 125.721487)scale(0.14 -0.14)">
       <use xlink:href="#DejaVuSans-30"/>
       <use xlink:href="#DejaVuSans-2e" x="63.623047"/>
       <use xlink:href="#DejaVuSans-37" x="95.410156"/>
       <use xlink:href="#DejaVuSans-36" x="159.033203"/>
      </g>
     </g>
    </g>
    <g id="ytick_6">
     <g id="line2d_12">
      <g>
       <use xlink:href="#me06eb20937" x="54" y="91.788387" style="stroke: #000000; stroke-width: 0.8"/>
      </g>
     </g>
     <g id="text_12">
      <!-- 0.78 -->
      <g transform="translate(15.828125 97.107293)scale(0.14 -0.14)">
       <use xlink:href="#DejaVuSans-30"/>
       <use xlink:href="#DejaVuSans-2e" x="63.623047"/>
       <use xlink:href="#DejaVuSans-37" x="95.410156"/>
       <use xlink:href="#DejaVuSans-38" x="159.033203"/>
      </g>
     </g>
    </g>
    <g id="ytick_7">
     <g id="line2d_13">
      <g>
       <use xlink:href="#me06eb20937" x="54" y="63.174194" style="stroke: #000000; stroke-width: 0.8"/>
      </g>
     </g>
     <g id="text_13">
      <!-- 0.80 -->
      <g transform="translate(15.828125 68.4931)scale(0.14 -0.14)">
       <use xlink:href="#DejaVuSans-30"/>
       <use xlink:href="#DejaVuSans-2e" x="63.623047"/>
       <use xlink:href="#DejaVuSans-38" x="95.410156"/>
       <use xlink:href="#DejaVuSans-30" x="159.033203"/>
      </g>
     </g>
    </g>
    <g id="ytick_8">
     <g id="line2d_14">
      <g>
       <use xlink:href="#me06eb20937" x="54" y="34.56" style="stroke: #000000; stroke-width: 0.8"/>
      </g>
     </g>
     <g id="text_14">
      <!-- 0.82 -->
      <g transform="translate(15.828125 39.878906)scale(0.14 -0.14)">
       <use xlink:href="#DejaVuSans-30"/>
       <use xlink:href="#DejaVuSans-2e" x="63.623047"/>
       <use xlink:href="#DejaVuSans-38" x="95.410156"/>
       <use xlink:href="#DejaVuSans-32" x="159.033203"/>
      </g>
     </g>
    </g>
   </g>
   <g id="line2d_15">
    <path d="M 69.218182 45.290323 
L 72.292562 45.290323 
L 75.366942 45.290323 
L 78.441322 45.290323 
L 81.515702 45.290323 
L 84.590083 45.290323 
L 87.664463 45.290323 
L 90.738843 45.290323 
L 93.813223 45.290323 
L 96.887603 45.290323 
L 99.961983 45.290323 
L 103.036364 45.290323 
L 106.110744 45.290323 
L 109.185124 45.290323 
L 112.259504 45.290323 
L 115.333884 45.290323 
L 118.408264 45.290323 
L 121.482645 45.290323 
L 124.557025 45.290323 
L 127.631405 45.290323 
L 130.705785 45.290323 
L 133.780165 45.290323 
L 136.854545 45.290323 
L 139.928926 45.290323 
L 143.003306 45.290323 
L 146.077686 45.290323 
L 149.152066 45.290323 
L 152.226446 45.290323 
L 155.300826 45.290323 
L 158.375207 45.290323 
L 161.449587 45.290323 
L 164.523967 45.290323 
L 167.598347 45.290323 
L 170.672727 45.290323 
L 173.747107 45.290323 
L 176.821488 45.290323 
L 179.895868 45.290323 
L 182.970248 45.290323 
L 186.044628 45.290323 
L 189.119008 45.290323 
L 192.193388 45.290323 
L 195.267769 45.290323 
L 198.342149 45.290323 
L 201.416529 45.290323 
L 204.490909 45.290323 
L 207.565289 45.290323 
L 210.639669 45.290323 
L 213.71405 45.290323 
L 216.78843 45.290323 
L 219.86281 45.290323 
L 222.93719 45.290323 
L 226.01157 45.290323 
L 229.08595 45.290323 
L 232.160331 45.290323 
L 235.234711 45.290323 
L 238.309091 45.290323 
L 241.383471 45.290323 
L 244.457851 45.290323 
L 247.532231 45.290323 
L 250.606612 45.290323 
L 253.680992 45.290323 
L 256.755372 45.290323 
L 259.829752 45.290323 
L 262.904132 45.290323 
L 265.978512 45.290323 
L 269.052893 45.290323 
L 272.127273 45.290323 
L 275.201653 45.290323 
L 278.276033 45.290323 
L 281.350413 45.290323 
L 284.424793 45.290323 
L 287.499174 45.290323 
L 290.573554 45.290323 
L 293.647934 45.290323 
L 296.722314 45.290323 
L 299.796694 45.290323 
L 302.871074 45.290323 
L 305.945455 45.290323 
L 309.019835 45.290323 
L 312.094215 45.290323 
L 315.168595 45.290323 
L 318.242975 45.290323 
L 321.317355 45.290323 
L 324.391736 45.290323 
L 327.466116 45.290323 
L 330.540496 45.290323 
L 333.614876 45.290323 
L 336.689256 45.290323 
L 339.763636 45.290323 
L 342.838017 45.290323 
L 345.912397 45.290323 
L 348.986777 45.290323 
L 352.061157 45.290323 
L 355.135537 45.290323 
L 358.209917 45.290323 
L 361.284298 45.290323 
L 364.358678 45.290323 
L 367.433058 45.290323 
L 370.507438 45.290323 
L 373.581818 45.290323 
" clip-path="url(#p881d96a05c)" style="fill: none; stroke: #1f77b4; stroke-width: 1.5; stroke-linecap: square"/>
   </g>
   <g id="line2d_16">
    <path d="M 69.218182 106.258065 
L 72.292562 107.204573 
L 75.366942 107.981615 
L 78.441322 108.630966 
L 81.515702 109.181709 
L 84.590083 109.654722 
L 87.664463 110.065376 
L 90.738843 110.425239 
L 93.813223 110.743185 
L 96.887603 111.026136 
L 99.961983 111.279568 
L 103.036364 111.50787 
L 106.110744 111.714605 
L 109.185124 111.90269 
L 112.259504 112.07454 
L 115.333884 112.23217 
L 118.408264 112.377276 
L 121.482645 112.511292 
L 124.557025 112.635443 
L 127.631405 112.75078 
L 130.705785 112.85821 
L 133.780165 112.958518 
L 136.854545 113.052389 
L 139.928926 113.140425 
L 143.003306 113.223153 
L 146.077686 113.301039 
L 149.152066 113.374496 
L 152.226446 113.443891 
L 155.300826 113.509552 
L 158.375207 113.571772 
L 161.449587 113.630816 
L 164.523967 113.68692 
L 167.598347 113.740299 
L 170.672727 113.791146 
L 173.747107 113.839638 
L 176.821488 113.885934 
L 179.895868 113.93018 
L 182.970248 113.972509 
L 186.044628 114.013044 
L 189.119008 114.051895 
L 192.193388 114.089167 
L 195.267769 114.124952 
L 198.342149 114.159339 
L 201.416529 114.192408 
L 204.490909 114.224233 
L 207.565289 114.254883 
L 210.639669 114.284421 
L 213.71405 114.312908 
L 216.78843 114.340399 
L 219.86281 114.366944 
L 222.93719 114.392592 
L 226.01157 114.417388 
L 229.08595 114.441372 
L 232.160331 114.464586 
L 235.234711 114.487064 
L 238.309091 114.508842 
L 241.383471 114.529951 
L 244.457851 114.550422 
L 247.532231 114.570284 
L 250.606612 114.589563 
L 253.680992 114.608285 
L 256.755372 114.626473 
L 259.829752 114.64415 
L 262.904132 114.661337 
L 265.978512 114.678054 
L 269.052893 114.694321 
L 272.127273 114.710154 
L 275.201653 114.725572 
L 278.276033 114.740591 
L 281.350413 114.755225 
L 284.424793 114.769489 
L 287.499174 114.783398 
L 290.573554 114.796964 
L 293.647934 114.8102 
L 296.722314 114.823117 
L 299.796694 114.835728 
L 302.871074 114.848042 
L 305.945455 114.860071 
L 309.019835 114.871823 
L 312.094215 114.883309 
L 315.168595 114.894538 
L 318.242975 114.905517 
L 321.317355 114.916255 
L 324.391736 114.926761 
L 327.466116 114.937041 
L 330.540496 114.947102 
L 333.614876 114.956953 
L 336.689256 114.966598 
L 339.763636 114.976045 
L 342.838017 114.985299 
L 345.912397 114.994367 
L 348.986777 115.003254 
L 352.061157 115.011965 
L 355.135537 115.020505 
L 358.209917 115.02888 
L 361.284298 115.037094 
L 364.358678 115.045152 
L 367.433058 115.053058 
L 370.507438 115.060817 
L 373.581818 115.068432 
" clip-path="url(#p881d96a05c)" style="fill: none; stroke: #ff7f0e; stroke-width: 1.5; stroke-linecap: square"/>
   </g>
   <g id="line2d_17">
    <path d="M 69.218182 141.096774 
L 72.292562 143.45499 
L 75.366942 145.422773 
L 78.441322 147.089672 
L 81.515702 148.519795 
L 84.590083 149.760246 
L 87.664463 150.846413 
L 90.738843 151.805394 
L 93.813223 152.658293 
L 96.887603 153.421789 
L 99.961983 154.10924 
L 103.036364 154.731468 
L 106.110744 155.297335 
L 109.185124 155.814167 
L 112.259504 156.288072 
L 115.333884 156.724186 
L 118.408264 157.126855 
L 121.482645 157.499786 
L 124.557025 157.846154 
L 127.631405 158.1687 
L 130.705785 158.469801 
L 133.780165 158.751526 
L 136.854545 159.015687 
L 139.928926 159.263876 
L 143.003306 159.497501 
L 146.077686 159.717806 
L 149.152066 159.925899 
L 152.226446 160.122769 
L 155.300826 160.309298 
L 158.375207 160.486281 
L 161.449587 160.654433 
L 164.523967 160.814398 
L 167.598347 160.966761 
L 170.672727 161.11205 
L 173.747107 161.250746 
L 176.821488 161.38329 
L 179.895868 161.510081 
L 182.970248 161.631485 
L 186.044628 161.74784 
L 189.119008 161.859453 
L 192.193388 161.966608 
L 195.267769 162.069568 
L 198.342149 162.168574 
L 201.416529 162.26385 
L 204.490909 162.355602 
L 207.565289 162.444023 
L 210.639669 162.52929 
L 213.71405 162.61157 
L 216.78843 162.691016 
L 219.86281 162.767773 
L 222.93719 162.841974 
L 226.01157 162.913746 
L 229.08595 162.983206 
L 232.160331 163.050463 
L 235.234711 163.115622 
L 238.309091 163.178777 
L 241.383471 163.240022 
L 244.457851 163.29944 
L 247.532231 163.357113 
L 250.606612 163.413116 
L 253.680992 163.467521 
L 256.755372 163.520395 
L 259.829752 163.571802 
L 262.904132 163.621802 
L 265.978512 163.670452 
L 269.052893 163.717806 
L 272.127273 163.763916 
L 275.201653 163.808829 
L 278.276033 163.852591 
L 281.350413 163.895247 
L 284.424793 163.936837 
L 287.499174 163.977402 
L 290.573554 164.016978 
L 293.647934 164.055601 
L 296.722314 164.093306 
L 299.796694 164.130124 
L 302.871074 164.166087 
L 305.945455 164.201224 
L 309.019835 164.235563 
L 312.094215 164.269131 
L 315.168595 164.301954 
L 318.242975 164.334056 
L 321.317355 164.365461 
L 324.391736 164.396191 
L 327.466116 164.426267 
L 330.540496 164.455711 
L 333.614876 164.484542 
L 336.689256 164.51278 
L 339.763636 164.540441 
L 342.838017 164.567544 
L 345.912397 164.594105 
L 348.986777 164.620141 
L 352.061157 164.645667 
L 355.135537 164.670697 
L 358.209917 164.695247 
L 361.284298 164.719329 
L 364.358678 164.742957 
L 367.433058 164.766144 
L 370.507438 164.788902 
L 373.581818 164.811242 
" clip-path="url(#p881d96a05c)" style="fill: none; stroke: #2ca02c; stroke-width: 1.5; stroke-linecap: square"/>
   </g>
   <g id="line2d_18">
    <path d="M 69.218182 163.639469 
L 72.292562 167.258955 
L 75.366942 170.311621 
L 78.441322 172.920946 
L 81.515702 175.176972 
L 84.590083 177.146904 
L 87.664463 178.881917 
L 90.738843 180.42167 
L 93.813223 181.797367 
L 96.887603 183.033903 
L 99.961983 184.151376 
L 103.036364 185.166193 
L 106.110744 186.091878 
L 109.185124 186.939681 
L 112.259504 187.719033 
L 115.333884 188.437902 
L 118.408264 189.103067 
L 121.482645 189.720329 
L 124.557025 190.294682 
L 127.631405 190.830451 
L 130.705785 191.331397 
L 133.780165 191.800808 
L 136.854545 192.241572 
L 139.928926 192.656232 
L 143.003306 193.047042 
L 146.077686 193.416002 
L 149.152066 193.764893 
L 152.226446 194.095311 
L 155.300826 194.408684 
L 158.375207 194.706298 
L 161.449587 194.989313 
L 164.523967 195.258777 
L 167.598347 195.515642 
L 170.672727 195.760769 
L 173.747107 195.994946 
L 176.821488 196.218891 
L 179.895868 196.433259 
L 182.970248 196.638653 
L 186.044628 196.835624 
L 189.119008 197.02468 
L 192.193388 197.206288 
L 195.267769 197.380881 
L 198.342149 197.548857 
L 201.416529 197.710584 
L 204.490909 197.866407 
L 207.565289 198.016641 
L 210.639669 198.161583 
L 213.71405 198.301507 
L 216.78843 198.436669 
L 219.86281 198.567309 
L 222.93719 198.693649 
L 226.01157 198.815899 
L 229.08595 198.934254 
L 232.160331 199.048897 
L 235.234711 199.159999 
L 238.309091 199.267724 
L 241.383471 199.372222 
L 244.457851 199.473635 
L 247.532231 199.5721 
L 250.606612 199.667742 
L 253.680992 199.760681 
L 256.755372 199.851031 
L 259.829752 199.938897 
L 262.904132 200.024381 
L 265.978512 200.107578 
L 269.052893 200.18858 
L 272.127273 200.267471 
L 275.201653 200.344334 
L 278.276033 200.419245 
L 281.350413 200.492278 
L 284.424793 200.563502 
L 287.499174 200.632984 
L 290.573554 200.700788 
L 293.647934 200.766973 
L 296.722314 200.831596 
L 299.796694 200.894712 
L 302.871074 200.956374 
L 305.945455 201.01663 
L 309.019835 201.075529 
L 312.094215 201.133116 
L 315.168595 201.189434 
L 318.242975 201.244525 
L 321.317355 201.298427 
L 324.391736 201.351181 
L 327.466116 201.402821 
L 330.540496 201.453382 
L 333.614876 201.502899 
L 336.689256 201.551402 
L 339.763636 201.598924 
L 342.838017 201.645493 
L 345.912397 201.691138 
L 348.986777 201.735885 
L 352.061157 201.779762 
L 355.135537 201.822793 
L 358.209917 201.865003 
L 361.284298 201.906415 
L 364.358678 201.947051 
L 367.433058 201.986932 
L 370.507438 202.026081 
L 373.581818 202.064516 
" clip-path="url(#p881d96a05c)" style="fill: none; stroke: #d62728; stroke-width: 1.5; stroke-linecap: square"/>
   </g>
   <g id="line2d_19">
    <path d="M 69.218182 179.419355 
L 72.292562 184.087419 
L 75.366942 188.054271 
L 78.441322 191.466873 
L 81.515702 194.433799 
L 84.590083 197.037004 
L 87.664463 199.339508 
L 90.738843 201.390569 
L 93.813223 203.229242 
L 96.887603 204.886893 
L 99.961983 206.388999 
L 103.036364 207.756474 
L 106.110744 209.006641 
L 109.185124 210.153974 
L 112.259504 211.21066 
L 115.333884 212.187034 
L 118.408264 213.091915 
L 121.482645 213.93288 
L 124.557025 214.716469 
L 127.631405 215.44836 
L 130.705785 216.133506 
L 133.780165 216.776247 
L 136.854545 217.380402 
L 139.928926 217.949343 
L 143.003306 218.486063 
L 146.077686 218.993224 
L 149.152066 219.473201 
L 152.226446 219.928123 
L 155.300826 220.359902 
L 158.375207 220.770261 
L 161.449587 221.160755 
L 164.523967 221.532792 
L 167.598347 221.88765 
L 170.672727 222.226493 
L 173.747107 222.55038 
L 176.821488 222.860281 
L 179.895868 223.157083 
L 182.970248 223.441598 
L 186.044628 223.714574 
L 189.119008 223.976699 
L 192.193388 224.228608 
L 195.267769 224.470887 
L 198.342149 224.704076 
L 201.416529 224.928679 
L 204.490909 225.145161 
L 207.565289 225.353955 
L 210.639669 225.555463 
L 213.71405 225.750059 
L 216.78843 225.938094 
L 219.86281 226.119894 
L 222.93719 226.295764 
L 226.01157 226.465989 
L 229.08595 226.630837 
L 232.160331 226.790559 
L 235.234711 226.94539 
L 238.309091 227.095551 
L 241.383471 227.241251 
L 244.457851 227.382685 
L 247.532231 227.520038 
L 250.606612 227.653485 
L 253.680992 227.783189 
L 256.755372 227.909305 
L 259.829752 228.031981 
L 262.904132 228.151356 
L 265.978512 228.267561 
L 269.052893 228.38072 
L 272.127273 228.490952 
L 275.201653 228.598369 
L 278.276033 228.703077 
L 281.350413 228.805178 
L 284.424793 228.904767 
L 287.499174 229.001937 
L 290.573554 229.096774 
L 293.647934 229.189362 
L 296.722314 229.279779 
L 299.796694 229.368101 
L 302.871074 229.4544 
L 305.945455 229.538744 
L 309.019835 229.6212 
L 312.094215 229.70183 
L 315.168595 229.780694 
L 318.242975 229.857849 
L 321.317355 229.93335 
L 324.391736 230.007251 
L 327.466116 230.079601 
L 330.540496 230.150448 
L 333.614876 230.21984 
L 336.689256 230.28782 
L 339.763636 230.35443 
L 342.838017 230.419713 
L 345.912397 230.483707 
L 348.986777 230.54645 
L 352.061157 230.607979 
L 355.135537 230.668328 
L 358.209917 230.72753 
L 361.284298 230.78562 
L 364.358678 230.842626 
L 367.433058 230.89858 
L 370.507438 230.95351 
L 373.581818 231.007444 
" clip-path="url(#p881d96a05c)" style="fill: none; stroke: #9467bd; stroke-width: 1.5; stroke-linecap: square"/>
   </g>
   <g id="patch_3">
    <path d="M 54 256.32 
L 54 34.56 
" style="fill: none; stroke: #000000; stroke-width: 0.8; stroke-linejoin: miter; stroke-linecap: square"/>
   </g>
   <g id="patch_4">
    <path d="M 388.8 256.32 
L 388.8 34.56 
" style="fill: none; stroke: #000000; stroke-width: 0.8; stroke-linejoin: miter; stroke-linecap: square"/>
   </g>
   <g id="patch_5">
    <path d="M 54 256.32 
L 388.8 256.32 
" style="fill: none; stroke: #000000; stroke-width: 0.8; stroke-linejoin: miter; stroke-linecap: square"/>
   </g>
   <g id="patch_6">
    <path d="M 54 34.56 
L 388.8 34.56 
" style="fill: none; stroke: #000000; stroke-width: 0.8; stroke-linejoin: miter; stroke-linecap: square"/>
   </g>
  </g>
 </g>
 <defs>
  <clipPath id="p881d96a05c">
   <rect x="54" y="34.56" width="334.8" height="221.76"/>
  </clipPath>
 </defs>
</svg>
