<?xml version="1.0" encoding="utf-8" standalone="no"?>
<!DOCTYPE svg PUBLIC "-//W3C//DTD SVG 1.1//EN"
  "http://www.w3.org/Graphics/SVG/1.1/DTD/svg11.dtd">
<svg xmlns:xlink="http://www.w3.org/1999/xlink" width="324pt" height="216pt" viewBox="0 0 324 216" xmlns="http://www.w3.org/2000/svg" version="1.1">
 <metadata>
  <rdf:RDF xmlns:dc="http://purl.org/dc/elements/1.1/" xmlns:cc="http://creativecommons.org/ns#" xmlns:rdf="http://www.w3.org/1999/02/22-rdf-syntax-ns#">
   <cc:Work>
    <dc:type rdf:resource="http://purl.org/dc/dcmitype/StillImage"/>
    <dc:date>2022-10-03T16:50:21.617375</dc:date>
    <dc:format>image/svg+xml</dc:format>
    <dc:creator>
     <cc:Agent>
      <dc:title>Matplotlib v3.5.1, https://matplotlib.org/</dc:title>
     </cc:Agent>
    </dc:creator>
   </cc:Work>
  </rdf:RDF>
 </metadata>
 <defs>
  <style type="text/css">*{stroke-linejoin: round; stroke-linecap: butt}</style>
 </defs>
 <g id="figure_1">
  <g id="patch_1">
   <path d="M 0 216 
L 324 216 
L 324 0 
L 0 0 
z
" style="fill: #ffffff"/>
  </g>
  <g id="axes_1">
   <g id="patch_2">
    <path d="M 40.5 192.24 
L 291.6 192.24 
L 291.6 25.92 
L 40.5 25.92 
z
" style="fill: #ffffff"/>
   </g>
   <g id="matplotlib.axis_1">
    <g id="xtick_1">
     <g id="line2d_1">
      <defs>
       <path id="m67cb77981b" d="M 0 0 
L 0 3.5 
" style="stroke: #000000; stroke-width: 0.8"/>
      </defs>
      <g>
       <use xlink:href="#m67cb77981b" x="50.766537" y="192.24" style="stroke: #000000; stroke-width: 0.8"/>
      </g>
     </g>
     <g id="text_1">
      <!-- 0.0 -->
      <g transform="translate(38.044037 211.3975)scale(0.16 -0.16)">
       <defs>
        <path id="DejaVuSans-30" d="M 2034 4250 
Q 1547 4250 1301 3770 
Q 1056 3291 1056 2328 
Q 1056 1369 1301 889 
Q 1547 409 2034 409 
Q 2525 409 2770 889 
Q 3016 1369 3016 2328 
Q 3016 3291 2770 3770 
Q 2525 4250 2034 4250 
z
M 2034 4750 
Q 2819 4750 3233 4129 
Q 3647 3509 3647 2328 
Q 3647 1150 3233 529 
Q 2819 -91 2034 -91 
Q 1250 -91 836 529 
Q 422 1150 422 2328 
Q 422 3509 836 4129 
Q 1250 4750 2034 4750 
z
" transform="scale(0.015625)"/>
        <path id="DejaVuSans-2e" d="M 684 794 
L 1344 794 
L 1344 0 
L 684 0 
L 684 794 
z
" transform="scale(0.015625)"/>
       </defs>
       <use xlink:href="#DejaVuSans-30"/>
       <use xlink:href="#DejaVuSans-2e" x="63.623047"/>
       <use xlink:href="#DejaVuSans-30" x="95.410156"/>
      </g>
     </g>
    </g>
    <g id="xtick_2">
     <g id="line2d_2">
      <g>
       <use xlink:href="#m67cb77981b" x="108.121494" y="192.24" style="stroke: #000000; stroke-width: 0.8"/>
      </g>
     </g>
     <g id="text_2">
      <!-- 2.5 -->
      <g transform="translate(95.398994 211.3975)scale(0.16 -0.16)">
       <defs>
        <path id="DejaVuSans-32" d="M 1228 531 
L 3431 531 
L 3431 0 
L 469 0 
L 469 531 
Q 828 903 1448 1529 
Q 2069 2156 2228 2338 
Q 2531 2678 2651 2914 
Q 2772 3150 2772 3378 
Q 2772 3750 2511 3984 
Q 2250 4219 1831 4219 
Q 1534 4219 1204 4116 
Q 875 4013 500 3803 
L 500 4441 
Q 881 4594 1212 4672 
Q 1544 4750 1819 4750 
Q 2544 4750 2975 4387 
Q 3406 4025 3406 3419 
Q 3406 3131 3298 2873 
Q 3191 2616 2906 2266 
Q 2828 2175 2409 1742 
Q 1991 1309 1228 531 
z
" transform="scale(0.015625)"/>
        <path id="DejaVuSans-35" d="M 691 4666 
L 3169 4666 
L 3169 4134 
L 1269 4134 
L 1269 2991 
Q 1406 3038 1543 3061 
Q 1681 3084 1819 3084 
Q 2600 3084 3056 2656 
Q 3513 2228 3513 1497 
Q 3513 744 3044 326 
Q 2575 -91 1722 -91 
Q 1428 -91 1123 -41 
Q 819 9 494 109 
L 494 744 
Q 775 591 1075 516 
Q 1375 441 1709 441 
Q 2250 441 2565 725 
Q 2881 1009 2881 1497 
Q 2881 1984 2565 2268 
Q 2250 2553 1709 2553 
Q 1456 2553 1204 2497 
Q 953 2441 691 2322 
L 691 4666 
z
" transform="scale(0.015625)"/>
       </defs>
       <use xlink:href="#DejaVuSans-32"/>
       <use xlink:href="#DejaVuSans-2e" x="63.623047"/>
       <use xlink:href="#DejaVuSans-35" x="95.410156"/>
      </g>
     </g>
    </g>
    <g id="xtick_3">
     <g id="line2d_3">
      <g>
       <use xlink:href="#m67cb77981b" x="165.47645" y="192.24" style="stroke: #000000; stroke-width: 0.8"/>
      </g>
     </g>
     <g id="text_3">
      <!-- 5.0 -->
      <g transform="translate(152.75395 211.3975)scale(0.16 -0.16)">
       <use xlink:href="#DejaVuSans-35"/>
       <use xlink:href="#DejaVuSans-2e" x="63.623047"/>
       <use xlink:href="#DejaVuSans-30" x="95.410156"/>
      </g>
     </g>
    </g>
    <g id="xtick_4">
     <g id="line2d_4">
      <g>
       <use xlink:href="#m67cb77981b" x="222.831407" y="192.24" style="stroke: #000000; stroke-width: 0.8"/>
      </g>
     </g>
     <g id="text_4">
      <!-- 7.5 -->
      <g transform="translate(210.108907 211.3975)scale(0.16 -0.16)">
       <defs>
        <path id="DejaVuSans-37" d="M 525 4666 
L 3525 4666 
L 3525 4397 
L 1831 0 
L 1172 0 
L 2766 4134 
L 525 4134 
L 525 4666 
z
" transform="scale(0.015625)"/>
       </defs>
       <use xlink:href="#DejaVuSans-37"/>
       <use xlink:href="#DejaVuSans-2e" x="63.623047"/>
       <use xlink:href="#DejaVuSans-35" x="95.410156"/>
      </g>
     </g>
    </g>
    <g id="xtick_5">
     <g id="line2d_5">
      <g>
       <use xlink:href="#m67cb77981b" x="280.186364" y="192.24" style="stroke: #000000; stroke-width: 0.8"/>
      </g>
     </g>
     <g id="text_5">
      <!-- 10.0 -->
      <g transform="translate(262.373864 211.3975)scale(0.16 -0.16)">
       <defs>
        <path id="DejaVuSans-31" d="M 794 531 
L 1825 531 
L 1825 4091 
L 703 3866 
L 703 4441 
L 1819 4666 
L 2450 4666 
L 2450 531 
L 3481 531 
L 3481 0 
L 794 0 
L 794 531 
z
" transform="scale(0.015625)"/>
       </defs>
       <use xlink:href="#DejaVuSans-31"/>
       <use xlink:href="#DejaVuSans-30" x="63.623047"/>
       <use xlink:href="#DejaVuSans-2e" x="127.246094"/>
       <use xlink:href="#DejaVuSans-30" x="159.033203"/>
      </g>
     </g>
    </g>
   </g>
   <g id="matplotlib.axis_2">
    <g id="ytick_1">
     <g id="line2d_6">
      <defs>
       <path id="m0b056f8345" d="M 0 0 
L -3.5 0 
" style="stroke: #000000; stroke-width: 0.8"/>
      </defs>
      <g>
       <use xlink:href="#m0b056f8345" x="40.5" y="126.5756" style="stroke: #000000; stroke-width: 0.8"/>
      </g>
     </g>
     <g id="text_6">
      <!-- 0.5 -->
      <g transform="translate(8.055 132.65435)scale(0.16 -0.16)">
       <use xlink:href="#DejaVuSans-30"/>
       <use xlink:href="#DejaVuSans-2e" x="63.623047"/>
       <use xlink:href="#DejaVuSans-35" x="95.410156"/>
      </g>
     </g>
    </g>
    <g id="ytick_2">
     <g id="line2d_7">
      <g>
       <use xlink:href="#m0b056f8345" x="40.5" y="60.092033" style="stroke: #000000; stroke-width: 0.8"/>
      </g>
     </g>
     <g id="text_7">
      <!-- 1.0 -->
      <g transform="translate(8.055 66.170783)scale(0.16 -0.16)">
       <use xlink:href="#DejaVuSans-31"/>
       <use xlink:href="#DejaVuSans-2e" x="63.623047"/>
       <use xlink:href="#DejaVuSans-30" x="95.410156"/>
      </g>
     </g>
    </g>
   </g>
   <g id="line2d_8">
    <defs>
     <path id="m8d33aac3bc" d="M 0 2.5 
C 0.663008 2.5 1.29895 2.236584 1.767767 1.767767 
C 2.236584 1.29895 2.5 0.663008 2.5 0 
C 2.5 -0.663008 2.236584 -1.29895 1.767767 -1.767767 
C 1.29895 -2.236584 0.663008 -2.5 0 -2.5 
C -0.663008 -2.5 -1.29895 -2.236584 -1.767767 -1.767767 
C -2.236584 -1.29895 -2.5 -0.663008 -2.5 0 
C -2.5 0.663008 -2.236584 1.29895 -1.767767 1.767767 
C -1.29895 2.236584 -0.663008 2.5 0 2.5 
z
" style="stroke: #1f77b4; stroke-width: 0.8"/>
    </defs>
    <g clip-path="url(#pe9dbde873b)">
     <use xlink:href="#m8d33aac3bc" x="51.913636" y="60.092033" style="fill-opacity: 0; stroke: #1f77b4; stroke-width: 0.8"/>
     <use xlink:href="#m8d33aac3bc" x="53.060735" y="61.317944" style="fill-opacity: 0; stroke: #1f77b4; stroke-width: 0.8"/>
     <use xlink:href="#m8d33aac3bc" x="54.207835" y="68.719752" style="fill-opacity: 0; stroke: #1f77b4; stroke-width: 0.8"/>
     <use xlink:href="#m8d33aac3bc" x="55.354934" y="68.613029" style="fill-opacity: 0; stroke: #1f77b4; stroke-width: 0.8"/>
     <use xlink:href="#m8d33aac3bc" x="56.502033" y="73.818587" style="fill-opacity: 0; stroke: #1f77b4; stroke-width: 0.8"/>
     <use xlink:href="#m8d33aac3bc" x="57.649132" y="75.771901" style="fill-opacity: 0; stroke: #1f77b4; stroke-width: 0.8"/>
     <use xlink:href="#m8d33aac3bc" x="58.796231" y="74.175268" style="fill-opacity: 0; stroke: #1f77b4; stroke-width: 0.8"/>
     <use xlink:href="#m8d33aac3bc" x="59.94333" y="78.421722" style="fill-opacity: 0; stroke: #1f77b4; stroke-width: 0.8"/>
     <use xlink:href="#m8d33aac3bc" x="61.090429" y="80.050654" style="fill-opacity: 0; stroke: #1f77b4; stroke-width: 0.8"/>
     <use xlink:href="#m8d33aac3bc" x="62.237529" y="82.058733" style="fill-opacity: 0; stroke: #1f77b4; stroke-width: 0.8"/>
     <use xlink:href="#m8d33aac3bc" x="63.384628" y="82.795964" style="fill-opacity: 0; stroke: #1f77b4; stroke-width: 0.8"/>
     <use xlink:href="#m8d33aac3bc" x="64.531727" y="85.944296" style="fill-opacity: 0; stroke: #1f77b4; stroke-width: 0.8"/>
     <use xlink:href="#m8d33aac3bc" x="65.678826" y="86.11421" style="fill-opacity: 0; stroke: #1f77b4; stroke-width: 0.8"/>
     <use xlink:href="#m8d33aac3bc" x="66.825925" y="88.707862" style="fill-opacity: 0; stroke: #1f77b4; stroke-width: 0.8"/>
     <use xlink:href="#m8d33aac3bc" x="67.973024" y="88.344161" style="fill-opacity: 0; stroke: #1f77b4; stroke-width: 0.8"/>
     <use xlink:href="#m8d33aac3bc" x="69.120123" y="86.963782" style="fill-opacity: 0; stroke: #1f77b4; stroke-width: 0.8"/>
     <use xlink:href="#m8d33aac3bc" x="70.267222" y="91.457385" style="fill-opacity: 0; stroke: #1f77b4; stroke-width: 0.8"/>
     <use xlink:href="#m8d33aac3bc" x="71.414322" y="94.188653" style="fill-opacity: 0; stroke: #1f77b4; stroke-width: 0.8"/>
     <use xlink:href="#m8d33aac3bc" x="72.561421" y="94.635206" style="fill-opacity: 0; stroke: #1f77b4; stroke-width: 0.8"/>
     <use xlink:href="#m8d33aac3bc" x="73.70852" y="99.818296" style="fill-opacity: 0; stroke: #1f77b4; stroke-width: 0.8"/>
     <use xlink:href="#m8d33aac3bc" x="74.855619" y="100.106168" style="fill-opacity: 0; stroke: #1f77b4; stroke-width: 0.8"/>
     <use xlink:href="#m8d33aac3bc" x="76.002718" y="98.766512" style="fill-opacity: 0; stroke: #1f77b4; stroke-width: 0.8"/>
     <use xlink:href="#m8d33aac3bc" x="77.149817" y="98.321365" style="fill-opacity: 0; stroke: #1f77b4; stroke-width: 0.8"/>
     <use xlink:href="#m8d33aac3bc" x="78.296916" y="106.166915" style="fill-opacity: 0; stroke: #1f77b4; stroke-width: 0.8"/>
     <use xlink:href="#m8d33aac3bc" x="79.444016" y="104.008581" style="fill-opacity: 0; stroke: #1f77b4; stroke-width: 0.8"/>
     <use xlink:href="#m8d33aac3bc" x="80.591115" y="100.638379" style="fill-opacity: 0; stroke: #1f77b4; stroke-width: 0.8"/>
     <use xlink:href="#m8d33aac3bc" x="81.738214" y="108.225548" style="fill-opacity: 0; stroke: #1f77b4; stroke-width: 0.8"/>
     <use xlink:href="#m8d33aac3bc" x="82.885313" y="106.48568" style="fill-opacity: 0; stroke: #1f77b4; stroke-width: 0.8"/>
     <use xlink:href="#m8d33aac3bc" x="84.032412" y="105.568704" style="fill-opacity: 0; stroke: #1f77b4; stroke-width: 0.8"/>
     <use xlink:href="#m8d33aac3bc" x="85.179511" y="105.527981" style="fill-opacity: 0; stroke: #1f77b4; stroke-width: 0.8"/>
     <use xlink:href="#m8d33aac3bc" x="86.32661" y="111.738983" style="fill-opacity: 0; stroke: #1f77b4; stroke-width: 0.8"/>
     <use xlink:href="#m8d33aac3bc" x="87.473709" y="110.541158" style="fill-opacity: 0; stroke: #1f77b4; stroke-width: 0.8"/>
     <use xlink:href="#m8d33aac3bc" x="88.620809" y="113.120767" style="fill-opacity: 0; stroke: #1f77b4; stroke-width: 0.8"/>
     <use xlink:href="#m8d33aac3bc" x="89.767908" y="110.441456" style="fill-opacity: 0; stroke: #1f77b4; stroke-width: 0.8"/>
     <use xlink:href="#m8d33aac3bc" x="90.915007" y="112.479024" style="fill-opacity: 0; stroke: #1f77b4; stroke-width: 0.8"/>
     <use xlink:href="#m8d33aac3bc" x="92.062106" y="113.926807" style="fill-opacity: 0; stroke: #1f77b4; stroke-width: 0.8"/>
     <use xlink:href="#m8d33aac3bc" x="93.209205" y="114.487103" style="fill-opacity: 0; stroke: #1f77b4; stroke-width: 0.8"/>
     <use xlink:href="#m8d33aac3bc" x="94.356304" y="116.197481" style="fill-opacity: 0; stroke: #1f77b4; stroke-width: 0.8"/>
     <use xlink:href="#m8d33aac3bc" x="95.503403" y="117.952795" style="fill-opacity: 0; stroke: #1f77b4; stroke-width: 0.8"/>
     <use xlink:href="#m8d33aac3bc" x="96.650503" y="120.552064" style="fill-opacity: 0; stroke: #1f77b4; stroke-width: 0.8"/>
     <use xlink:href="#m8d33aac3bc" x="97.797602" y="120.017044" style="fill-opacity: 0; stroke: #1f77b4; stroke-width: 0.8"/>
     <use xlink:href="#m8d33aac3bc" x="98.944701" y="119.351429" style="fill-opacity: 0; stroke: #1f77b4; stroke-width: 0.8"/>
     <use xlink:href="#m8d33aac3bc" x="100.0918" y="120.245937" style="fill-opacity: 0; stroke: #1f77b4; stroke-width: 0.8"/>
     <use xlink:href="#m8d33aac3bc" x="101.238899" y="120.759893" style="fill-opacity: 0; stroke: #1f77b4; stroke-width: 0.8"/>
     <use xlink:href="#m8d33aac3bc" x="102.385998" y="118.393729" style="fill-opacity: 0; stroke: #1f77b4; stroke-width: 0.8"/>
     <use xlink:href="#m8d33aac3bc" x="103.533097" y="126.176089" style="fill-opacity: 0; stroke: #1f77b4; stroke-width: 0.8"/>
     <use xlink:href="#m8d33aac3bc" x="104.680196" y="124.805541" style="fill-opacity: 0; stroke: #1f77b4; stroke-width: 0.8"/>
     <use xlink:href="#m8d33aac3bc" x="105.827296" y="126.772896" style="fill-opacity: 0; stroke: #1f77b4; stroke-width: 0.8"/>
     <use xlink:href="#m8d33aac3bc" x="106.974395" y="128.959315" style="fill-opacity: 0; stroke: #1f77b4; stroke-width: 0.8"/>
     <use xlink:href="#m8d33aac3bc" x="108.121494" y="130.327056" style="fill-opacity: 0; stroke: #1f77b4; stroke-width: 0.8"/>
     <use xlink:href="#m8d33aac3bc" x="109.268593" y="123.826777" style="fill-opacity: 0; stroke: #1f77b4; stroke-width: 0.8"/>
     <use xlink:href="#m8d33aac3bc" x="110.415692" y="127.174513" style="fill-opacity: 0; stroke: #1f77b4; stroke-width: 0.8"/>
     <use xlink:href="#m8d33aac3bc" x="111.562791" y="133.996364" style="fill-opacity: 0; stroke: #1f77b4; stroke-width: 0.8"/>
     <use xlink:href="#m8d33aac3bc" x="112.70989" y="130.428161" style="fill-opacity: 0; stroke: #1f77b4; stroke-width: 0.8"/>
     <use xlink:href="#m8d33aac3bc" x="113.856989" y="132.451688" style="fill-opacity: 0; stroke: #1f77b4; stroke-width: 0.8"/>
     <use xlink:href="#m8d33aac3bc" x="115.004089" y="134.025853" style="fill-opacity: 0; stroke: #1f77b4; stroke-width: 0.8"/>
     <use xlink:href="#m8d33aac3bc" x="116.151188" y="133.577897" style="fill-opacity: 0; stroke: #1f77b4; stroke-width: 0.8"/>
     <use xlink:href="#m8d33aac3bc" x="117.298287" y="131.482754" style="fill-opacity: 0; stroke: #1f77b4; stroke-width: 0.8"/>
     <use xlink:href="#m8d33aac3bc" x="118.445386" y="138.308819" style="fill-opacity: 0; stroke: #1f77b4; stroke-width: 0.8"/>
     <use xlink:href="#m8d33aac3bc" x="119.592485" y="136.314783" style="fill-opacity: 0; stroke: #1f77b4; stroke-width: 0.8"/>
     <use xlink:href="#m8d33aac3bc" x="120.739584" y="139.652687" style="fill-opacity: 0; stroke: #1f77b4; stroke-width: 0.8"/>
     <use xlink:href="#m8d33aac3bc" x="121.886683" y="135.451168" style="fill-opacity: 0; stroke: #1f77b4; stroke-width: 0.8"/>
     <use xlink:href="#m8d33aac3bc" x="123.033783" y="132.894027" style="fill-opacity: 0; stroke: #1f77b4; stroke-width: 0.8"/>
     <use xlink:href="#m8d33aac3bc" x="124.180882" y="133.278791" style="fill-opacity: 0; stroke: #1f77b4; stroke-width: 0.8"/>
     <use xlink:href="#m8d33aac3bc" x="125.327981" y="137.747119" style="fill-opacity: 0; stroke: #1f77b4; stroke-width: 0.8"/>
     <use xlink:href="#m8d33aac3bc" x="126.47508" y="142.163488" style="fill-opacity: 0; stroke: #1f77b4; stroke-width: 0.8"/>
     <use xlink:href="#m8d33aac3bc" x="127.622179" y="135.153467" style="fill-opacity: 0; stroke: #1f77b4; stroke-width: 0.8"/>
     <use xlink:href="#m8d33aac3bc" x="128.769278" y="139.717283" style="fill-opacity: 0; stroke: #1f77b4; stroke-width: 0.8"/>
     <use xlink:href="#m8d33aac3bc" x="129.916377" y="140.818216" style="fill-opacity: 0; stroke: #1f77b4; stroke-width: 0.8"/>
     <use xlink:href="#m8d33aac3bc" x="131.063476" y="140.527536" style="fill-opacity: 0; stroke: #1f77b4; stroke-width: 0.8"/>
     <use xlink:href="#m8d33aac3bc" x="132.210576" y="142.669019" style="fill-opacity: 0; stroke: #1f77b4; stroke-width: 0.8"/>
     <use xlink:href="#m8d33aac3bc" x="133.357675" y="139.909665" style="fill-opacity: 0; stroke: #1f77b4; stroke-width: 0.8"/>
     <use xlink:href="#m8d33aac3bc" x="134.504774" y="141.386938" style="fill-opacity: 0; stroke: #1f77b4; stroke-width: 0.8"/>
     <use xlink:href="#m8d33aac3bc" x="135.651873" y="145.134883" style="fill-opacity: 0; stroke: #1f77b4; stroke-width: 0.8"/>
     <use xlink:href="#m8d33aac3bc" x="136.798972" y="142.626891" style="fill-opacity: 0; stroke: #1f77b4; stroke-width: 0.8"/>
     <use xlink:href="#m8d33aac3bc" x="137.946071" y="144.58863" style="fill-opacity: 0; stroke: #1f77b4; stroke-width: 0.8"/>
     <use xlink:href="#m8d33aac3bc" x="139.09317" y="147.235643" style="fill-opacity: 0; stroke: #1f77b4; stroke-width: 0.8"/>
     <use xlink:href="#m8d33aac3bc" x="140.24027" y="146.277944" style="fill-opacity: 0; stroke: #1f77b4; stroke-width: 0.8"/>
     <use xlink:href="#m8d33aac3bc" x="141.387369" y="144.89897" style="fill-opacity: 0; stroke: #1f77b4; stroke-width: 0.8"/>
     <use xlink:href="#m8d33aac3bc" x="142.534468" y="148.429258" style="fill-opacity: 0; stroke: #1f77b4; stroke-width: 0.8"/>
     <use xlink:href="#m8d33aac3bc" x="143.681567" y="148.176492" style="fill-opacity: 0; stroke: #1f77b4; stroke-width: 0.8"/>
     <use xlink:href="#m8d33aac3bc" x="144.828666" y="149.16368" style="fill-opacity: 0; stroke: #1f77b4; stroke-width: 0.8"/>
     <use xlink:href="#m8d33aac3bc" x="145.975765" y="145.756967" style="fill-opacity: 0; stroke: #1f77b4; stroke-width: 0.8"/>
     <use xlink:href="#m8d33aac3bc" x="147.122864" y="152.238991" style="fill-opacity: 0; stroke: #1f77b4; stroke-width: 0.8"/>
     <use xlink:href="#m8d33aac3bc" x="148.269963" y="149.363085" style="fill-opacity: 0; stroke: #1f77b4; stroke-width: 0.8"/>
     <use xlink:href="#m8d33aac3bc" x="149.417063" y="148.116109" style="fill-opacity: 0; stroke: #1f77b4; stroke-width: 0.8"/>
     <use xlink:href="#m8d33aac3bc" x="150.564162" y="151.5158" style="fill-opacity: 0; stroke: #1f77b4; stroke-width: 0.8"/>
     <use xlink:href="#m8d33aac3bc" x="151.711261" y="154.923919" style="fill-opacity: 0; stroke: #1f77b4; stroke-width: 0.8"/>
     <use xlink:href="#m8d33aac3bc" x="152.85836" y="147.6836" style="fill-opacity: 0; stroke: #1f77b4; stroke-width: 0.8"/>
     <use xlink:href="#m8d33aac3bc" x="154.005459" y="152.654649" style="fill-opacity: 0; stroke: #1f77b4; stroke-width: 0.8"/>
     <use xlink:href="#m8d33aac3bc" x="155.152558" y="153.383455" style="fill-opacity: 0; stroke: #1f77b4; stroke-width: 0.8"/>
     <use xlink:href="#m8d33aac3bc" x="156.299657" y="154.968854" style="fill-opacity: 0; stroke: #1f77b4; stroke-width: 0.8"/>
     <use xlink:href="#m8d33aac3bc" x="157.446757" y="153.574433" style="fill-opacity: 0; stroke: #1f77b4; stroke-width: 0.8"/>
     <use xlink:href="#m8d33aac3bc" x="158.593856" y="152.549329" style="fill-opacity: 0; stroke: #1f77b4; stroke-width: 0.8"/>
     <use xlink:href="#m8d33aac3bc" x="159.740955" y="155.123322" style="fill-opacity: 0; stroke: #1f77b4; stroke-width: 0.8"/>
     <use xlink:href="#m8d33aac3bc" x="160.888054" y="152.681329" style="fill-opacity: 0; stroke: #1f77b4; stroke-width: 0.8"/>
     <use xlink:href="#m8d33aac3bc" x="162.035153" y="152.84001" style="fill-opacity: 0; stroke: #1f77b4; stroke-width: 0.8"/>
     <use xlink:href="#m8d33aac3bc" x="163.182252" y="152.807712" style="fill-opacity: 0; stroke: #1f77b4; stroke-width: 0.8"/>
     <use xlink:href="#m8d33aac3bc" x="164.329351" y="156.291659" style="fill-opacity: 0; stroke: #1f77b4; stroke-width: 0.8"/>
     <use xlink:href="#m8d33aac3bc" x="165.47645" y="154.265325" style="fill-opacity: 0; stroke: #1f77b4; stroke-width: 0.8"/>
     <use xlink:href="#m8d33aac3bc" x="166.62355" y="161.282368" style="fill-opacity: 0; stroke: #1f77b4; stroke-width: 0.8"/>
     <use xlink:href="#m8d33aac3bc" x="167.770649" y="155.92515" style="fill-opacity: 0; stroke: #1f77b4; stroke-width: 0.8"/>
     <use xlink:href="#m8d33aac3bc" x="168.917748" y="160.689773" style="fill-opacity: 0; stroke: #1f77b4; stroke-width: 0.8"/>
     <use xlink:href="#m8d33aac3bc" x="170.064847" y="153.47754" style="fill-opacity: 0; stroke: #1f77b4; stroke-width: 0.8"/>
     <use xlink:href="#m8d33aac3bc" x="171.211946" y="157.680463" style="fill-opacity: 0; stroke: #1f77b4; stroke-width: 0.8"/>
     <use xlink:href="#m8d33aac3bc" x="172.359045" y="158.065228" style="fill-opacity: 0; stroke: #1f77b4; stroke-width: 0.8"/>
     <use xlink:href="#m8d33aac3bc" x="173.506144" y="160.972028" style="fill-opacity: 0; stroke: #1f77b4; stroke-width: 0.8"/>
     <use xlink:href="#m8d33aac3bc" x="174.653243" y="161.761217" style="fill-opacity: 0; stroke: #1f77b4; stroke-width: 0.8"/>
     <use xlink:href="#m8d33aac3bc" x="175.800343" y="162.263939" style="fill-opacity: 0; stroke: #1f77b4; stroke-width: 0.8"/>
     <use xlink:href="#m8d33aac3bc" x="176.947442" y="156.482637" style="fill-opacity: 0; stroke: #1f77b4; stroke-width: 0.8"/>
     <use xlink:href="#m8d33aac3bc" x="178.094541" y="158.941481" style="fill-opacity: 0; stroke: #1f77b4; stroke-width: 0.8"/>
     <use xlink:href="#m8d33aac3bc" x="179.24164" y="159.250416" style="fill-opacity: 0; stroke: #1f77b4; stroke-width: 0.8"/>
     <use xlink:href="#m8d33aac3bc" x="180.388739" y="163.091043" style="fill-opacity: 0; stroke: #1f77b4; stroke-width: 0.8"/>
     <use xlink:href="#m8d33aac3bc" x="181.535838" y="161.313261" style="fill-opacity: 0; stroke: #1f77b4; stroke-width: 0.8"/>
     <use xlink:href="#m8d33aac3bc" x="182.682937" y="157.429102" style="fill-opacity: 0; stroke: #1f77b4; stroke-width: 0.8"/>
     <use xlink:href="#m8d33aac3bc" x="183.830037" y="167.598689" style="fill-opacity: 0; stroke: #1f77b4; stroke-width: 0.8"/>
     <use xlink:href="#m8d33aac3bc" x="184.977136" y="163.9027" style="fill-opacity: 0; stroke: #1f77b4; stroke-width: 0.8"/>
     <use xlink:href="#m8d33aac3bc" x="186.124235" y="160.788071" style="fill-opacity: 0; stroke: #1f77b4; stroke-width: 0.8"/>
     <use xlink:href="#m8d33aac3bc" x="187.271334" y="159.914627" style="fill-opacity: 0; stroke: #1f77b4; stroke-width: 0.8"/>
     <use xlink:href="#m8d33aac3bc" x="188.418433" y="163.926573" style="fill-opacity: 0; stroke: #1f77b4; stroke-width: 0.8"/>
     <use xlink:href="#m8d33aac3bc" x="189.565532" y="166.01048" style="fill-opacity: 0; stroke: #1f77b4; stroke-width: 0.8"/>
     <use xlink:href="#m8d33aac3bc" x="190.712631" y="161.22058" style="fill-opacity: 0; stroke: #1f77b4; stroke-width: 0.8"/>
     <use xlink:href="#m8d33aac3bc" x="191.85973" y="166.636777" style="fill-opacity: 0; stroke: #1f77b4; stroke-width: 0.8"/>
     <use xlink:href="#m8d33aac3bc" x="193.00683" y="163.905509" style="fill-opacity: 0; stroke: #1f77b4; stroke-width: 0.8"/>
     <use xlink:href="#m8d33aac3bc" x="194.153929" y="163.915338" style="fill-opacity: 0; stroke: #1f77b4; stroke-width: 0.8"/>
     <use xlink:href="#m8d33aac3bc" x="195.301028" y="168.430006" style="fill-opacity: 0; stroke: #1f77b4; stroke-width: 0.8"/>
     <use xlink:href="#m8d33aac3bc" x="196.448127" y="167.420349" style="fill-opacity: 0; stroke: #1f77b4; stroke-width: 0.8"/>
     <use xlink:href="#m8d33aac3bc" x="197.595226" y="164.844953" style="fill-opacity: 0; stroke: #1f77b4; stroke-width: 0.8"/>
     <use xlink:href="#m8d33aac3bc" x="198.742325" y="167.022946" style="fill-opacity: 0; stroke: #1f77b4; stroke-width: 0.8"/>
     <use xlink:href="#m8d33aac3bc" x="199.889424" y="168.232007" style="fill-opacity: 0; stroke: #1f77b4; stroke-width: 0.8"/>
     <use xlink:href="#m8d33aac3bc" x="201.036524" y="166.551117" style="fill-opacity: 0; stroke: #1f77b4; stroke-width: 0.8"/>
     <use xlink:href="#m8d33aac3bc" x="202.183623" y="165.896737" style="fill-opacity: 0; stroke: #1f77b4; stroke-width: 0.8"/>
     <use xlink:href="#m8d33aac3bc" x="203.330722" y="165.886907" style="fill-opacity: 0; stroke: #1f77b4; stroke-width: 0.8"/>
     <use xlink:href="#m8d33aac3bc" x="204.477821" y="163.86619" style="fill-opacity: 0; stroke: #1f77b4; stroke-width: 0.8"/>
     <use xlink:href="#m8d33aac3bc" x="205.62492" y="165.274653" style="fill-opacity: 0; stroke: #1f77b4; stroke-width: 0.8"/>
     <use xlink:href="#m8d33aac3bc" x="206.772019" y="166.666267" style="fill-opacity: 0; stroke: #1f77b4; stroke-width: 0.8"/>
     <use xlink:href="#m8d33aac3bc" x="207.919118" y="169.585705" style="fill-opacity: 0; stroke: #1f77b4; stroke-width: 0.8"/>
     <use xlink:href="#m8d33aac3bc" x="209.066217" y="169.095621" style="fill-opacity: 0; stroke: #1f77b4; stroke-width: 0.8"/>
     <use xlink:href="#m8d33aac3bc" x="210.213317" y="171.145827" style="fill-opacity: 0; stroke: #1f77b4; stroke-width: 0.8"/>
     <use xlink:href="#m8d33aac3bc" x="211.360416" y="168.500218" style="fill-opacity: 0; stroke: #1f77b4; stroke-width: 0.8"/>
     <use xlink:href="#m8d33aac3bc" x="212.507515" y="167.784051" style="fill-opacity: 0; stroke: #1f77b4; stroke-width: 0.8"/>
     <use xlink:href="#m8d33aac3bc" x="213.654614" y="168.752983" style="fill-opacity: 0; stroke: #1f77b4; stroke-width: 0.8"/>
     <use xlink:href="#m8d33aac3bc" x="214.801713" y="172.189186" style="fill-opacity: 0; stroke: #1f77b4; stroke-width: 0.8"/>
     <use xlink:href="#m8d33aac3bc" x="215.948812" y="170.742808" style="fill-opacity: 0; stroke: #1f77b4; stroke-width: 0.8"/>
     <use xlink:href="#m8d33aac3bc" x="217.095911" y="170.995573" style="fill-opacity: 0; stroke: #1f77b4; stroke-width: 0.8"/>
     <use xlink:href="#m8d33aac3bc" x="218.243011" y="170.004171" style="fill-opacity: 0; stroke: #1f77b4; stroke-width: 0.8"/>
     <use xlink:href="#m8d33aac3bc" x="219.39011" y="173.635565" style="fill-opacity: 0; stroke: #1f77b4; stroke-width: 0.8"/>
     <use xlink:href="#m8d33aac3bc" x="220.537209" y="169.59413" style="fill-opacity: 0; stroke: #1f77b4; stroke-width: 0.8"/>
     <use xlink:href="#m8d33aac3bc" x="221.684308" y="174.128456" style="fill-opacity: 0; stroke: #1f77b4; stroke-width: 0.8"/>
     <use xlink:href="#m8d33aac3bc" x="222.831407" y="169.175663" style="fill-opacity: 0; stroke: #1f77b4; stroke-width: 0.8"/>
     <use xlink:href="#m8d33aac3bc" x="223.978506" y="170.278" style="fill-opacity: 0; stroke: #1f77b4; stroke-width: 0.8"/>
     <use xlink:href="#m8d33aac3bc" x="225.125605" y="174.954156" style="fill-opacity: 0; stroke: #1f77b4; stroke-width: 0.8"/>
     <use xlink:href="#m8d33aac3bc" x="226.272704" y="173.909394" style="fill-opacity: 0; stroke: #1f77b4; stroke-width: 0.8"/>
     <use xlink:href="#m8d33aac3bc" x="227.419804" y="171.908336" style="fill-opacity: 0; stroke: #1f77b4; stroke-width: 0.8"/>
     <use xlink:href="#m8d33aac3bc" x="228.566903" y="174.844625" style="fill-opacity: 0; stroke: #1f77b4; stroke-width: 0.8"/>
     <use xlink:href="#m8d33aac3bc" x="229.714002" y="172.349271" style="fill-opacity: 0; stroke: #1f77b4; stroke-width: 0.8"/>
     <use xlink:href="#m8d33aac3bc" x="230.861101" y="175.389474" style="fill-opacity: 0; stroke: #1f77b4; stroke-width: 0.8"/>
     <use xlink:href="#m8d33aac3bc" x="232.0082" y="177.633469" style="fill-opacity: 0; stroke: #1f77b4; stroke-width: 0.8"/>
     <use xlink:href="#m8d33aac3bc" x="233.155299" y="173.705777" style="fill-opacity: 0; stroke: #1f77b4; stroke-width: 0.8"/>
     <use xlink:href="#m8d33aac3bc" x="234.302398" y="177.540787" style="fill-opacity: 0; stroke: #1f77b4; stroke-width: 0.8"/>
     <use xlink:href="#m8d33aac3bc" x="235.449497" y="176.962236" style="fill-opacity: 0; stroke: #1f77b4; stroke-width: 0.8"/>
     <use xlink:href="#m8d33aac3bc" x="236.596597" y="176.278366" style="fill-opacity: 0; stroke: #1f77b4; stroke-width: 0.8"/>
     <use xlink:href="#m8d33aac3bc" x="237.743696" y="175.93292" style="fill-opacity: 0; stroke: #1f77b4; stroke-width: 0.8"/>
     <use xlink:href="#m8d33aac3bc" x="238.890795" y="171.593784" style="fill-opacity: 0; stroke: #1f77b4; stroke-width: 0.8"/>
     <use xlink:href="#m8d33aac3bc" x="240.037894" y="174.718242" style="fill-opacity: 0; stroke: #1f77b4; stroke-width: 0.8"/>
     <use xlink:href="#m8d33aac3bc" x="241.184993" y="176.941172" style="fill-opacity: 0; stroke: #1f77b4; stroke-width: 0.8"/>
     <use xlink:href="#m8d33aac3bc" x="242.332092" y="174.17901" style="fill-opacity: 0; stroke: #1f77b4; stroke-width: 0.8"/>
     <use xlink:href="#m8d33aac3bc" x="243.479191" y="177.974701" style="fill-opacity: 0; stroke: #1f77b4; stroke-width: 0.8"/>
     <use xlink:href="#m8d33aac3bc" x="244.626291" y="178.574316" style="fill-opacity: 0; stroke: #1f77b4; stroke-width: 0.8"/>
     <use xlink:href="#m8d33aac3bc" x="245.77339" y="173.740884" style="fill-opacity: 0; stroke: #1f77b4; stroke-width: 0.8"/>
     <use xlink:href="#m8d33aac3bc" x="246.920489" y="175.567814" style="fill-opacity: 0; stroke: #1f77b4; stroke-width: 0.8"/>
     <use xlink:href="#m8d33aac3bc" x="248.067588" y="179.348058" style="fill-opacity: 0; stroke: #1f77b4; stroke-width: 0.8"/>
     <use xlink:href="#m8d33aac3bc" x="249.214687" y="177.127937" style="fill-opacity: 0; stroke: #1f77b4; stroke-width: 0.8"/>
     <use xlink:href="#m8d33aac3bc" x="250.361786" y="174.942922" style="fill-opacity: 0; stroke: #1f77b4; stroke-width: 0.8"/>
     <use xlink:href="#m8d33aac3bc" x="251.508885" y="178.806017" style="fill-opacity: 0; stroke: #1f77b4; stroke-width: 0.8"/>
     <use xlink:href="#m8d33aac3bc" x="252.655984" y="174.86288" style="fill-opacity: 0; stroke: #1f77b4; stroke-width: 0.8"/>
     <use xlink:href="#m8d33aac3bc" x="253.803084" y="176.800746" style="fill-opacity: 0; stroke: #1f77b4; stroke-width: 0.8"/>
     <use xlink:href="#m8d33aac3bc" x="254.950183" y="172.889907" style="fill-opacity: 0; stroke: #1f77b4; stroke-width: 0.8"/>
     <use xlink:href="#m8d33aac3bc" x="256.097282" y="177.894659" style="fill-opacity: 0; stroke: #1f77b4; stroke-width: 0.8"/>
     <use xlink:href="#m8d33aac3bc" x="257.244381" y="177.189724" style="fill-opacity: 0; stroke: #1f77b4; stroke-width: 0.8"/>
     <use xlink:href="#m8d33aac3bc" x="258.39148" y="177.758446" style="fill-opacity: 0; stroke: #1f77b4; stroke-width: 0.8"/>
     <use xlink:href="#m8d33aac3bc" x="259.538579" y="182.209922" style="fill-opacity: 0; stroke: #1f77b4; stroke-width: 0.8"/>
     <use xlink:href="#m8d33aac3bc" x="260.685678" y="176.432833" style="fill-opacity: 0; stroke: #1f77b4; stroke-width: 0.8"/>
     <use xlink:href="#m8d33aac3bc" x="261.832778" y="176.894832" style="fill-opacity: 0; stroke: #1f77b4; stroke-width: 0.8"/>
     <use xlink:href="#m8d33aac3bc" x="262.979877" y="180.113376" style="fill-opacity: 0; stroke: #1f77b4; stroke-width: 0.8"/>
     <use xlink:href="#m8d33aac3bc" x="264.126976" y="177.486022" style="fill-opacity: 0; stroke: #1f77b4; stroke-width: 0.8"/>
     <use xlink:href="#m8d33aac3bc" x="265.274075" y="178.732997" style="fill-opacity: 0; stroke: #1f77b4; stroke-width: 0.8"/>
     <use xlink:href="#m8d33aac3bc" x="266.421174" y="180.652608" style="fill-opacity: 0; stroke: #1f77b4; stroke-width: 0.8"/>
     <use xlink:href="#m8d33aac3bc" x="267.568273" y="177.852531" style="fill-opacity: 0; stroke: #1f77b4; stroke-width: 0.8"/>
     <use xlink:href="#m8d33aac3bc" x="268.715372" y="177.032448" style="fill-opacity: 0; stroke: #1f77b4; stroke-width: 0.8"/>
     <use xlink:href="#m8d33aac3bc" x="269.862471" y="184.68" style="fill-opacity: 0; stroke: #1f77b4; stroke-width: 0.8"/>
     <use xlink:href="#m8d33aac3bc" x="271.009571" y="179.991206" style="fill-opacity: 0; stroke: #1f77b4; stroke-width: 0.8"/>
     <use xlink:href="#m8d33aac3bc" x="272.15667" y="177.561851" style="fill-opacity: 0; stroke: #1f77b4; stroke-width: 0.8"/>
     <use xlink:href="#m8d33aac3bc" x="273.303769" y="177.493043" style="fill-opacity: 0; stroke: #1f77b4; stroke-width: 0.8"/>
     <use xlink:href="#m8d33aac3bc" x="274.450868" y="183.765832" style="fill-opacity: 0; stroke: #1f77b4; stroke-width: 0.8"/>
     <use xlink:href="#m8d33aac3bc" x="275.597967" y="179.498313" style="fill-opacity: 0; stroke: #1f77b4; stroke-width: 0.8"/>
     <use xlink:href="#m8d33aac3bc" x="276.745066" y="180.555714" style="fill-opacity: 0; stroke: #1f77b4; stroke-width: 0.8"/>
     <use xlink:href="#m8d33aac3bc" x="277.892165" y="180.258013" style="fill-opacity: 0; stroke: #1f77b4; stroke-width: 0.8"/>
     <use xlink:href="#m8d33aac3bc" x="279.039265" y="179.995418" style="fill-opacity: 0; stroke: #1f77b4; stroke-width: 0.8"/>
     <use xlink:href="#m8d33aac3bc" x="280.186364" y="179.849376" style="fill-opacity: 0; stroke: #1f77b4; stroke-width: 0.8"/>
    </g>
   </g>
   <g id="line2d_9">
    <path d="M 51.913636 69.946378 
L 57.649132 77.245511 
L 63.384628 84.111891 
L 69.120123 90.571176 
L 74.855619 96.647502 
L 80.591115 102.363574 
L 86.32661 107.74075 
L 92.062106 112.799123 
L 97.797602 117.557595 
L 103.533097 122.033945 
L 109.268593 126.244901 
L 115.004089 130.206197 
L 120.739584 133.932635 
L 127.622179 138.113894 
L 134.504774 141.999467 
L 141.387369 145.610263 
L 148.269963 148.965715 
L 155.152558 152.083878 
L 162.035153 154.981533 
L 170.064847 158.104176 
L 178.094541 160.970739 
L 186.124235 163.602223 
L 194.153929 166.017907 
L 203.330722 168.537076 
L 212.507515 170.82156 
L 221.684308 172.89322 
L 232.0082 174.994061 
L 242.332092 176.876042 
L 253.803084 178.738093 
L 266.421174 180.539865 
L 279.039265 182.114951 
L 280.186364 182.247915 
L 280.186364 182.247915 
" clip-path="url(#pe9dbde873b)" style="fill: none; stroke: #ff7f0e; stroke-width: 2; stroke-linecap: square"/>
   </g>
   <g id="line2d_10">
    <path d="M 51.913636 33.48 
L 53.060735 43.835495 
L 54.207835 51.323553 
L 55.354934 57.343588 
L 56.502033 62.435116 
L 57.649132 66.873602 
L 59.94333 74.385937 
L 62.237529 80.632963 
L 64.531727 85.997182 
L 66.825925 90.703895 
L 69.120123 94.898676 
L 71.414322 98.681812 
L 73.70852 102.125729 
L 76.002718 105.284661 
L 79.444016 109.57767 
L 82.885313 113.427823 
L 86.32661 116.912658 
L 89.767908 120.090623 
L 93.209205 123.006982 
L 97.797602 126.54941 
L 102.385998 129.756198 
L 106.974395 132.678592 
L 111.562791 135.35695 
L 117.298287 138.410475 
L 123.033783 141.183377 
L 128.769278 143.715587 
L 135.651873 146.481333 
L 142.534468 148.991045 
L 149.417063 151.280348 
L 157.446757 153.710893 
L 165.47645 155.917809 
L 174.653243 158.204535 
L 183.830037 160.274726 
L 194.153929 162.381311 
L 205.62492 164.485215 
L 218.243011 166.554473 
L 232.0082 168.563966 
L 246.920489 170.494811 
L 262.979877 172.333574 
L 280.186364 174.071436 
L 280.186364 174.071436 
" clip-path="url(#pe9dbde873b)" style="fill: none; stroke: #2ca02c; stroke-width: 2; stroke-linecap: square"/>
   </g>
   <g id="patch_3">
    <path d="M 40.5 192.24 
L 40.5 25.92 
" style="fill: none; stroke: #000000; stroke-width: 0.8; stroke-linejoin: miter; stroke-linecap: square"/>
   </g>
   <g id="patch_4">
    <path d="M 291.6 192.24 
L 291.6 25.92 
" style="fill: none; stroke: #000000; stroke-width: 0.8; stroke-linejoin: miter; stroke-linecap: square"/>
   </g>
   <g id="patch_5">
    <path d="M 40.5 192.24 
L 291.6 192.24 
" style="fill: none; stroke: #000000; stroke-width: 0.8; stroke-linejoin: miter; stroke-linecap: square"/>
   </g>
   <g id="patch_6">
    <path d="M 40.5 25.92 
L 291.6 25.92 
" style="fill: none; stroke: #000000; stroke-width: 0.8; stroke-linejoin: miter; stroke-linecap: square"/>
   </g>
   <g id="legend_1">
    <g id="patch_7">
     <path d="M 160.210938 81.398125 
L 284.6 81.398125 
Q 286.6 81.398125 286.6 79.398125 
L 286.6 32.92 
Q 286.6 30.92 284.6 30.92 
L 160.210938 30.92 
Q 158.210938 30.92 158.210938 32.92 
L 158.210938 79.398125 
Q 158.210938 81.398125 160.210938 81.398125 
z
" style="fill: #ffffff; opacity: 0.8; stroke: #cccccc; stroke-linejoin: miter"/>
    </g>
    <g id="line2d_11">
     <g>
      <use xlink:href="#m8d33aac3bc" x="172.210938" y="39.018438" style="fill-opacity: 0; stroke: #1f77b4; stroke-width: 0.8"/>
     </g>
    </g>
    <g id="text_8">
     <!-- Experimental data -->
     <g transform="translate(190.210938 42.518438)scale(0.1 -0.1)">
      <defs>
       <path id="DejaVuSans-45" d="M 628 4666 
L 3578 4666 
L 3578 4134 
L 1259 4134 
L 1259 2753 
L 3481 2753 
L 3481 2222 
L 1259 2222 
L 1259 531 
L 3634 531 
L 3634 0 
L 628 0 
L 628 4666 
z
" transform="scale(0.015625)"/>
       <path id="DejaVuSans-78" d="M 3513 3500 
L 2247 1797 
L 3578 0 
L 2900 0 
L 1881 1375 
L 863 0 
L 184 0 
L 1544 1831 
L 300 3500 
L 978 3500 
L 1906 2253 
L 2834 3500 
L 3513 3500 
z
" transform="scale(0.015625)"/>
       <path id="DejaVuSans-70" d="M 1159 525 
L 1159 -1331 
L 581 -1331 
L 581 3500 
L 1159 3500 
L 1159 2969 
Q 1341 3281 1617 3432 
Q 1894 3584 2278 3584 
Q 2916 3584 3314 3078 
Q 3713 2572 3713 1747 
Q 3713 922 3314 415 
Q 2916 -91 2278 -91 
Q 1894 -91 1617 61 
Q 1341 213 1159 525 
z
M 3116 1747 
Q 3116 2381 2855 2742 
Q 2594 3103 2138 3103 
Q 1681 3103 1420 2742 
Q 1159 2381 1159 1747 
Q 1159 1113 1420 752 
Q 1681 391 2138 391 
Q 2594 391 2855 752 
Q 3116 1113 3116 1747 
z
" transform="scale(0.015625)"/>
       <path id="DejaVuSans-65" d="M 3597 1894 
L 3597 1613 
L 953 1613 
Q 991 1019 1311 708 
Q 1631 397 2203 397 
Q 2534 397 2845 478 
Q 3156 559 3463 722 
L 3463 178 
Q 3153 47 2828 -22 
Q 2503 -91 2169 -91 
Q 1331 -91 842 396 
Q 353 884 353 1716 
Q 353 2575 817 3079 
Q 1281 3584 2069 3584 
Q 2775 3584 3186 3129 
Q 3597 2675 3597 1894 
z
M 3022 2063 
Q 3016 2534 2758 2815 
Q 2500 3097 2075 3097 
Q 1594 3097 1305 2825 
Q 1016 2553 972 2059 
L 3022 2063 
z
" transform="scale(0.015625)"/>
       <path id="DejaVuSans-72" d="M 2631 2963 
Q 2534 3019 2420 3045 
Q 2306 3072 2169 3072 
Q 1681 3072 1420 2755 
Q 1159 2438 1159 1844 
L 1159 0 
L 581 0 
L 581 3500 
L 1159 3500 
L 1159 2956 
Q 1341 3275 1631 3429 
Q 1922 3584 2338 3584 
Q 2397 3584 2469 3576 
Q 2541 3569 2628 3553 
L 2631 2963 
z
" transform="scale(0.015625)"/>
       <path id="DejaVuSans-69" d="M 603 3500 
L 1178 3500 
L 1178 0 
L 603 0 
L 603 3500 
z
M 603 4863 
L 1178 4863 
L 1178 4134 
L 603 4134 
L 603 4863 
z
" transform="scale(0.015625)"/>
       <path id="DejaVuSans-6d" d="M 3328 2828 
Q 3544 3216 3844 3400 
Q 4144 3584 4550 3584 
Q 5097 3584 5394 3201 
Q 5691 2819 5691 2113 
L 5691 0 
L 5113 0 
L 5113 2094 
Q 5113 2597 4934 2840 
Q 4756 3084 4391 3084 
Q 3944 3084 3684 2787 
Q 3425 2491 3425 1978 
L 3425 0 
L 2847 0 
L 2847 2094 
Q 2847 2600 2669 2842 
Q 2491 3084 2119 3084 
Q 1678 3084 1418 2786 
Q 1159 2488 1159 1978 
L 1159 0 
L 581 0 
L 581 3500 
L 1159 3500 
L 1159 2956 
Q 1356 3278 1631 3431 
Q 1906 3584 2284 3584 
Q 2666 3584 2933 3390 
Q 3200 3197 3328 2828 
z
" transform="scale(0.015625)"/>
       <path id="DejaVuSans-6e" d="M 3513 2113 
L 3513 0 
L 2938 0 
L 2938 2094 
Q 2938 2591 2744 2837 
Q 2550 3084 2163 3084 
Q 1697 3084 1428 2787 
Q 1159 2491 1159 1978 
L 1159 0 
L 581 0 
L 581 3500 
L 1159 3500 
L 1159 2956 
Q 1366 3272 1645 3428 
Q 1925 3584 2291 3584 
Q 2894 3584 3203 3211 
Q 3513 2838 3513 2113 
z
" transform="scale(0.015625)"/>
       <path id="DejaVuSans-74" d="M 1172 4494 
L 1172 3500 
L 2356 3500 
L 2356 3053 
L 1172 3053 
L 1172 1153 
Q 1172 725 1289 603 
Q 1406 481 1766 481 
L 2356 481 
L 2356 0 
L 1766 0 
Q 1100 0 847 248 
Q 594 497 594 1153 
L 594 3053 
L 172 3053 
L 172 3500 
L 594 3500 
L 594 4494 
L 1172 4494 
z
" transform="scale(0.015625)"/>
       <path id="DejaVuSans-61" d="M 2194 1759 
Q 1497 1759 1228 1600 
Q 959 1441 959 1056 
Q 959 750 1161 570 
Q 1363 391 1709 391 
Q 2188 391 2477 730 
Q 2766 1069 2766 1631 
L 2766 1759 
L 2194 1759 
z
M 3341 1997 
L 3341 0 
L 2766 0 
L 2766 531 
Q 2569 213 2275 61 
Q 1981 -91 1556 -91 
Q 1019 -91 701 211 
Q 384 513 384 1019 
Q 384 1609 779 1909 
Q 1175 2209 1959 2209 
L 2766 2209 
L 2766 2266 
Q 2766 2663 2505 2880 
Q 2244 3097 1772 3097 
Q 1472 3097 1187 3025 
Q 903 2953 641 2809 
L 641 3341 
Q 956 3463 1253 3523 
Q 1550 3584 1831 3584 
Q 2591 3584 2966 3190 
Q 3341 2797 3341 1997 
z
" transform="scale(0.015625)"/>
       <path id="DejaVuSans-6c" d="M 603 4863 
L 1178 4863 
L 1178 0 
L 603 0 
L 603 4863 
z
" transform="scale(0.015625)"/>
       <path id="DejaVuSans-20" transform="scale(0.015625)"/>
       <path id="DejaVuSans-64" d="M 2906 2969 
L 2906 4863 
L 3481 4863 
L 3481 0 
L 2906 0 
L 2906 525 
Q 2725 213 2448 61 
Q 2172 -91 1784 -91 
Q 1150 -91 751 415 
Q 353 922 353 1747 
Q 353 2572 751 3078 
Q 1150 3584 1784 3584 
Q 2172 3584 2448 3432 
Q 2725 3281 2906 2969 
z
M 947 1747 
Q 947 1113 1208 752 
Q 1469 391 1925 391 
Q 2381 391 2643 752 
Q 2906 1113 2906 1747 
Q 2906 2381 2643 2742 
Q 2381 3103 1925 3103 
Q 1469 3103 1208 2742 
Q 947 2381 947 1747 
z
" transform="scale(0.015625)"/>
      </defs>
      <use xlink:href="#DejaVuSans-45"/>
      <use xlink:href="#DejaVuSans-78" x="63.183594"/>
      <use xlink:href="#DejaVuSans-70" x="122.363281"/>
      <use xlink:href="#DejaVuSans-65" x="185.839844"/>
      <use xlink:href="#DejaVuSans-72" x="247.363281"/>
      <use xlink:href="#DejaVuSans-69" x="288.476562"/>
      <use xlink:href="#DejaVuSans-6d" x="316.259766"/>
      <use xlink:href="#DejaVuSans-65" x="413.671875"/>
      <use xlink:href="#DejaVuSans-6e" x="475.195312"/>
      <use xlink:href="#DejaVuSans-74" x="538.574219"/>
      <use xlink:href="#DejaVuSans-61" x="577.783203"/>
      <use xlink:href="#DejaVuSans-6c" x="639.0625"/>
      <use xlink:href="#DejaVuSans-20" x="666.845703"/>
      <use xlink:href="#DejaVuSans-64" x="698.632812"/>
      <use xlink:href="#DejaVuSans-61" x="762.109375"/>
      <use xlink:href="#DejaVuSans-74" x="823.388672"/>
      <use xlink:href="#DejaVuSans-61" x="862.597656"/>
     </g>
    </g>
    <g id="line2d_12">
     <path d="M 162.210938 53.698125 
L 172.210938 53.698125 
L 182.210938 53.698125 
" style="fill: none; stroke: #ff7f0e; stroke-width: 2; stroke-linecap: square"/>
    </g>
    <g id="text_9">
     <!-- exp(-$t/\tau$) -->
     <g transform="translate(190.210938 57.198125)scale(0.1 -0.1)">
      <defs>
       <path id="DejaVuSans-28" d="M 1984 4856 
Q 1566 4138 1362 3434 
Q 1159 2731 1159 2009 
Q 1159 1288 1364 580 
Q 1569 -128 1984 -844 
L 1484 -844 
Q 1016 -109 783 600 
Q 550 1309 550 2009 
Q 550 2706 781 3412 
Q 1013 4119 1484 4856 
L 1984 4856 
z
" transform="scale(0.015625)"/>
       <path id="DejaVuSans-2d" d="M 313 2009 
L 1997 2009 
L 1997 1497 
L 313 1497 
L 313 2009 
z
" transform="scale(0.015625)"/>
       <path id="DejaVuSans-Oblique-74" d="M 2706 3500 
L 2619 3053 
L 1472 3053 
L 1100 1153 
Q 1081 1047 1072 975 
Q 1063 903 1063 863 
Q 1063 663 1183 572 
Q 1303 481 1569 481 
L 2150 481 
L 2053 0 
L 1503 0 
Q 991 0 739 200 
Q 488 400 488 806 
Q 488 878 497 964 
Q 506 1050 525 1153 
L 897 3053 
L 409 3053 
L 500 3500 
L 978 3500 
L 1172 4494 
L 1747 4494 
L 1556 3500 
L 2706 3500 
z
" transform="scale(0.015625)"/>
       <path id="DejaVuSans-2f" d="M 1625 4666 
L 2156 4666 
L 531 -594 
L 0 -594 
L 1625 4666 
z
" transform="scale(0.015625)"/>
       <path id="DejaVuSans-Oblique-3c4" d="M 2103 638 
Q 2188 488 2525 488 
L 2800 488 
L 2706 0 
L 2363 0 
Q 1800 0 1600 300 
Q 1403 606 1534 1269 
L 1856 2925 
L 541 2925 
L 653 3500 
L 3881 3500 
L 3769 2925 
L 2444 2925 
L 2113 1234 
Q 2025 781 2103 638 
z
" transform="scale(0.015625)"/>
       <path id="DejaVuSans-29" d="M 513 4856 
L 1013 4856 
Q 1481 4119 1714 3412 
Q 1947 2706 1947 2009 
Q 1947 1309 1714 600 
Q 1481 -109 1013 -844 
L 513 -844 
Q 928 -128 1133 580 
Q 1338 1288 1338 2009 
Q 1338 2731 1133 3434 
Q 928 4138 513 4856 
z
" transform="scale(0.015625)"/>
      </defs>
      <use xlink:href="#DejaVuSans-65" transform="translate(0 0.125)"/>
      <use xlink:href="#DejaVuSans-78" transform="translate(61.523438 0.125)"/>
      <use xlink:href="#DejaVuSans-70" transform="translate(120.703125 0.125)"/>
      <use xlink:href="#DejaVuSans-28" transform="translate(184.179688 0.125)"/>
      <use xlink:href="#DejaVuSans-2d" transform="translate(223.193359 0.125)"/>
      <use xlink:href="#DejaVuSans-Oblique-74" transform="translate(259.277344 0.125)"/>
      <use xlink:href="#DejaVuSans-2f" transform="translate(298.486328 0.125)"/>
      <use xlink:href="#DejaVuSans-Oblique-3c4" transform="translate(332.177734 0.125)"/>
      <use xlink:href="#DejaVuSans-29" transform="translate(392.382812 0.125)"/>
     </g>
    </g>
    <g id="line2d_13">
     <path d="M 162.210938 71.798125 
L 172.210938 71.798125 
L 182.210938 71.798125 
" style="fill: none; stroke: #2ca02c; stroke-width: 2; stroke-linecap: square"/>
    </g>
    <g id="text_10">
     <!-- exp(-$\sqrt{t/\tau}$) -->
     <g transform="translate(190.210938 75.298125)scale(0.1 -0.1)">
      <defs>
       <path id="STIXSizeOneSym-Regular-221a" d="M 6970 9933 
L 3373 -1888 
L 3104 -1888 
L 1626 2918 
Q 1555 3149 1465 3251 
Q 1376 3354 1229 3354 
Q 1011 3354 794 3181 
L 717 3309 
L 1766 4115 
L 1926 4115 
L 3379 -602 
L 3405 -602 
L 6605 9933 
L 6970 9933 
z
" transform="scale(0.015625)"/>
      </defs>
      <use xlink:href="#DejaVuSans-65" transform="translate(0 0.609375)"/>
      <use xlink:href="#DejaVuSans-78" transform="translate(61.523438 0.609375)"/>
      <use xlink:href="#DejaVuSans-70" transform="translate(120.703125 0.609375)"/>
      <use xlink:href="#DejaVuSans-28" transform="translate(184.179688 0.609375)"/>
      <use xlink:href="#DejaVuSans-2d" transform="translate(223.193359 0.609375)"/>
      <use xlink:href="#STIXSizeOneSym-Regular-221a" transform="translate(259.277344 9.328125)scale(0.614161)"/>
      <use xlink:href="#DejaVuSans-Oblique-74" transform="translate(336.650711 0.84375)"/>
      <use xlink:href="#DejaVuSans-2f" transform="translate(375.859695 0.84375)"/>
      <use xlink:href="#DejaVuSans-Oblique-3c4" transform="translate(409.551102 0.84375)"/>
      <use xlink:href="#DejaVuSans-29" transform="translate(482.25618 0.609375)"/>
      <path d="M 324.150711 97.5 
L 324.150711 103.75 
L 482.25618 103.75 
L 482.25618 97.5 
L 324.150711 97.5 
z
"/>
     </g>
    </g>
   </g>
  </g>
 </g>
 <defs>
  <clipPath id="pe9dbde873b">
   <rect x="40.5" y="25.92" width="251.1" height="166.32"/>
  </clipPath>
 </defs>
</svg>
