<?xml version="1.0" encoding="utf-8" standalone="no"?>
<!DOCTYPE svg PUBLIC "-//W3C//DTD SVG 1.1//EN"
  "http://www.w3.org/Graphics/SVG/1.1/DTD/svg11.dtd">
<svg xmlns:xlink="http://www.w3.org/1999/xlink" width="432pt" height="288pt" viewBox="0 0 432 288" xmlns="http://www.w3.org/2000/svg" version="1.1">
 <metadata>
  <rdf:RDF xmlns:dc="http://purl.org/dc/elements/1.1/" xmlns:cc="http://creativecommons.org/ns#" xmlns:rdf="http://www.w3.org/1999/02/22-rdf-syntax-ns#">
   <cc:Work>
    <dc:type rdf:resource="http://purl.org/dc/dcmitype/StillImage"/>
    <dc:date>2022-08-04T19:26:32.333020</dc:date>
    <dc:format>image/svg+xml</dc:format>
    <dc:creator>
     <cc:Agent>
      <dc:title>Matplotlib v3.5.1, https://matplotlib.org/</dc:title>
     </cc:Agent>
    </dc:creator>
   </cc:Work>
  </rdf:RDF>
 </metadata>
 <defs>
  <style type="text/css">*{stroke-linejoin: round; stroke-linecap: butt}</style>
 </defs>
 <g id="figure_1">
  <g id="patch_1">
   <path d="M 0 288 
L 432 288 
L 432 0 
L 0 0 
z
" style="fill: #ffffff"/>
  </g>
  <g id="axes_1">
   <g id="patch_2">
    <path d="M 54 256.32 
L 388.8 256.32 
L 388.8 34.56 
L 54 34.56 
z
" style="fill: #ffffff"/>
   </g>
   <g id="matplotlib.axis_1">
    <g id="xtick_1">
     <g id="line2d_1">
      <defs>
       <path id="m61a60f9ead" d="M 0 0 
L 0 3.5 
" style="stroke: #000000; stroke-width: 0.8"/>
      </defs>
      <g>
       <use xlink:href="#m61a60f9ead" x="67.688716" y="256.32" style="stroke: #000000; stroke-width: 0.8"/>
      </g>
     </g>
     <g id="text_1">
      <!-- 0.0 -->
      <g transform="translate(55.761373 274.717656)scale(0.15 -0.15)">
       <defs>
        <path id="DejaVuSans-30" d="M 2034 4250 
Q 1547 4250 1301 3770 
Q 1056 3291 1056 2328 
Q 1056 1369 1301 889 
Q 1547 409 2034 409 
Q 2525 409 2770 889 
Q 3016 1369 3016 2328 
Q 3016 3291 2770 3770 
Q 2525 4250 2034 4250 
z
M 2034 4750 
Q 2819 4750 3233 4129 
Q 3647 3509 3647 2328 
Q 3647 1150 3233 529 
Q 2819 -91 2034 -91 
Q 1250 -91 836 529 
Q 422 1150 422 2328 
Q 422 3509 836 4129 
Q 1250 4750 2034 4750 
z
" transform="scale(0.015625)"/>
        <path id="DejaVuSans-2e" d="M 684 794 
L 1344 794 
L 1344 0 
L 684 0 
L 684 794 
z
" transform="scale(0.015625)"/>
       </defs>
       <use xlink:href="#DejaVuSans-30"/>
       <use xlink:href="#DejaVuSans-2e" x="63.623047"/>
       <use xlink:href="#DejaVuSans-30" x="95.410156"/>
      </g>
     </g>
    </g>
    <g id="xtick_2">
     <g id="line2d_2">
      <g>
       <use xlink:href="#m61a60f9ead" x="144.161992" y="256.32" style="stroke: #000000; stroke-width: 0.8"/>
      </g>
     </g>
     <g id="text_2">
      <!-- 2.5 -->
      <g transform="translate(132.234648 274.717656)scale(0.15 -0.15)">
       <defs>
        <path id="DejaVuSans-32" d="M 1228 531 
L 3431 531 
L 3431 0 
L 469 0 
L 469 531 
Q 828 903 1448 1529 
Q 2069 2156 2228 2338 
Q 2531 2678 2651 2914 
Q 2772 3150 2772 3378 
Q 2772 3750 2511 3984 
Q 2250 4219 1831 4219 
Q 1534 4219 1204 4116 
Q 875 4013 500 3803 
L 500 4441 
Q 881 4594 1212 4672 
Q 1544 4750 1819 4750 
Q 2544 4750 2975 4387 
Q 3406 4025 3406 3419 
Q 3406 3131 3298 2873 
Q 3191 2616 2906 2266 
Q 2828 2175 2409 1742 
Q 1991 1309 1228 531 
z
" transform="scale(0.015625)"/>
        <path id="DejaVuSans-35" d="M 691 4666 
L 3169 4666 
L 3169 4134 
L 1269 4134 
L 1269 2991 
Q 1406 3038 1543 3061 
Q 1681 3084 1819 3084 
Q 2600 3084 3056 2656 
Q 3513 2228 3513 1497 
Q 3513 744 3044 326 
Q 2575 -91 1722 -91 
Q 1428 -91 1123 -41 
Q 819 9 494 109 
L 494 744 
Q 775 591 1075 516 
Q 1375 441 1709 441 
Q 2250 441 2565 725 
Q 2881 1009 2881 1497 
Q 2881 1984 2565 2268 
Q 2250 2553 1709 2553 
Q 1456 2553 1204 2497 
Q 953 2441 691 2322 
L 691 4666 
z
" transform="scale(0.015625)"/>
       </defs>
       <use xlink:href="#DejaVuSans-32"/>
       <use xlink:href="#DejaVuSans-2e" x="63.623047"/>
       <use xlink:href="#DejaVuSans-35" x="95.410156"/>
      </g>
     </g>
    </g>
    <g id="xtick_3">
     <g id="line2d_3">
      <g>
       <use xlink:href="#m61a60f9ead" x="220.635267" y="256.32" style="stroke: #000000; stroke-width: 0.8"/>
      </g>
     </g>
     <g id="text_3">
      <!-- 5.0 -->
      <g transform="translate(208.707923 274.717656)scale(0.15 -0.15)">
       <use xlink:href="#DejaVuSans-35"/>
       <use xlink:href="#DejaVuSans-2e" x="63.623047"/>
       <use xlink:href="#DejaVuSans-30" x="95.410156"/>
      </g>
     </g>
    </g>
    <g id="xtick_4">
     <g id="line2d_4">
      <g>
       <use xlink:href="#m61a60f9ead" x="297.108543" y="256.32" style="stroke: #000000; stroke-width: 0.8"/>
      </g>
     </g>
     <g id="text_4">
      <!-- 7.5 -->
      <g transform="translate(285.181199 274.717656)scale(0.15 -0.15)">
       <defs>
        <path id="DejaVuSans-37" d="M 525 4666 
L 3525 4666 
L 3525 4397 
L 1831 0 
L 1172 0 
L 2766 4134 
L 525 4134 
L 525 4666 
z
" transform="scale(0.015625)"/>
       </defs>
       <use xlink:href="#DejaVuSans-37"/>
       <use xlink:href="#DejaVuSans-2e" x="63.623047"/>
       <use xlink:href="#DejaVuSans-35" x="95.410156"/>
      </g>
     </g>
    </g>
    <g id="xtick_5">
     <g id="line2d_5">
      <g>
       <use xlink:href="#m61a60f9ead" x="373.581818" y="256.32" style="stroke: #000000; stroke-width: 0.8"/>
      </g>
     </g>
     <g id="text_5">
      <!-- 10.0 -->
      <g transform="translate(356.882599 274.717656)scale(0.15 -0.15)">
       <defs>
        <path id="DejaVuSans-31" d="M 794 531 
L 1825 531 
L 1825 4091 
L 703 3866 
L 703 4441 
L 1819 4666 
L 2450 4666 
L 2450 531 
L 3481 531 
L 3481 0 
L 794 0 
L 794 531 
z
" transform="scale(0.015625)"/>
       </defs>
       <use xlink:href="#DejaVuSans-31"/>
       <use xlink:href="#DejaVuSans-30" x="63.623047"/>
       <use xlink:href="#DejaVuSans-2e" x="127.246094"/>
       <use xlink:href="#DejaVuSans-30" x="159.033203"/>
      </g>
     </g>
    </g>
   </g>
   <g id="matplotlib.axis_2">
    <g id="ytick_1">
     <g id="line2d_6">
      <defs>
       <path id="m90692fbd7d" d="M 0 0 
L -3.5 0 
" style="stroke: #000000; stroke-width: 0.8"/>
      </defs>
      <g>
       <use xlink:href="#m90692fbd7d" x="54" y="221.954321" style="stroke: #000000; stroke-width: 0.8"/>
      </g>
     </g>
     <g id="text_6">
      <!-- 0.2 -->
      <g transform="translate(23.145312 227.653149)scale(0.15 -0.15)">
       <use xlink:href="#DejaVuSans-30"/>
       <use xlink:href="#DejaVuSans-2e" x="63.623047"/>
       <use xlink:href="#DejaVuSans-32" x="95.410156"/>
      </g>
     </g>
    </g>
    <g id="ytick_2">
     <g id="line2d_7">
      <g>
       <use xlink:href="#m90692fbd7d" x="54" y="186.496418" style="stroke: #000000; stroke-width: 0.8"/>
      </g>
     </g>
     <g id="text_7">
      <!-- 0.4 -->
      <g transform="translate(23.145312 192.195246)scale(0.15 -0.15)">
       <defs>
        <path id="DejaVuSans-34" d="M 2419 4116 
L 825 1625 
L 2419 1625 
L 2419 4116 
z
M 2253 4666 
L 3047 4666 
L 3047 1625 
L 3713 1625 
L 3713 1100 
L 3047 1100 
L 3047 0 
L 2419 0 
L 2419 1100 
L 313 1100 
L 313 1709 
L 2253 4666 
z
" transform="scale(0.015625)"/>
       </defs>
       <use xlink:href="#DejaVuSans-30"/>
       <use xlink:href="#DejaVuSans-2e" x="63.623047"/>
       <use xlink:href="#DejaVuSans-34" x="95.410156"/>
      </g>
     </g>
    </g>
    <g id="ytick_3">
     <g id="line2d_8">
      <g>
       <use xlink:href="#m90692fbd7d" x="54" y="151.038516" style="stroke: #000000; stroke-width: 0.8"/>
      </g>
     </g>
     <g id="text_8">
      <!-- 0.6 -->
      <g transform="translate(23.145312 156.737344)scale(0.15 -0.15)">
       <defs>
        <path id="DejaVuSans-36" d="M 2113 2584 
Q 1688 2584 1439 2293 
Q 1191 2003 1191 1497 
Q 1191 994 1439 701 
Q 1688 409 2113 409 
Q 2538 409 2786 701 
Q 3034 994 3034 1497 
Q 3034 2003 2786 2293 
Q 2538 2584 2113 2584 
z
M 3366 4563 
L 3366 3988 
Q 3128 4100 2886 4159 
Q 2644 4219 2406 4219 
Q 1781 4219 1451 3797 
Q 1122 3375 1075 2522 
Q 1259 2794 1537 2939 
Q 1816 3084 2150 3084 
Q 2853 3084 3261 2657 
Q 3669 2231 3669 1497 
Q 3669 778 3244 343 
Q 2819 -91 2113 -91 
Q 1303 -91 875 529 
Q 447 1150 447 2328 
Q 447 3434 972 4092 
Q 1497 4750 2381 4750 
Q 2619 4750 2861 4703 
Q 3103 4656 3366 4563 
z
" transform="scale(0.015625)"/>
       </defs>
       <use xlink:href="#DejaVuSans-30"/>
       <use xlink:href="#DejaVuSans-2e" x="63.623047"/>
       <use xlink:href="#DejaVuSans-36" x="95.410156"/>
      </g>
     </g>
    </g>
    <g id="ytick_4">
     <g id="line2d_9">
      <g>
       <use xlink:href="#m90692fbd7d" x="54" y="115.580613" style="stroke: #000000; stroke-width: 0.8"/>
      </g>
     </g>
     <g id="text_9">
      <!-- 0.8 -->
      <g transform="translate(23.145312 121.279441)scale(0.15 -0.15)">
       <defs>
        <path id="DejaVuSans-38" d="M 2034 2216 
Q 1584 2216 1326 1975 
Q 1069 1734 1069 1313 
Q 1069 891 1326 650 
Q 1584 409 2034 409 
Q 2484 409 2743 651 
Q 3003 894 3003 1313 
Q 3003 1734 2745 1975 
Q 2488 2216 2034 2216 
z
M 1403 2484 
Q 997 2584 770 2862 
Q 544 3141 544 3541 
Q 544 4100 942 4425 
Q 1341 4750 2034 4750 
Q 2731 4750 3128 4425 
Q 3525 4100 3525 3541 
Q 3525 3141 3298 2862 
Q 3072 2584 2669 2484 
Q 3125 2378 3379 2068 
Q 3634 1759 3634 1313 
Q 3634 634 3220 271 
Q 2806 -91 2034 -91 
Q 1263 -91 848 271 
Q 434 634 434 1313 
Q 434 1759 690 2068 
Q 947 2378 1403 2484 
z
M 1172 3481 
Q 1172 3119 1398 2916 
Q 1625 2713 2034 2713 
Q 2441 2713 2670 2916 
Q 2900 3119 2900 3481 
Q 2900 3844 2670 4047 
Q 2441 4250 2034 4250 
Q 1625 4250 1398 4047 
Q 1172 3844 1172 3481 
z
" transform="scale(0.015625)"/>
       </defs>
       <use xlink:href="#DejaVuSans-30"/>
       <use xlink:href="#DejaVuSans-2e" x="63.623047"/>
       <use xlink:href="#DejaVuSans-38" x="95.410156"/>
      </g>
     </g>
    </g>
    <g id="ytick_5">
     <g id="line2d_10">
      <g>
       <use xlink:href="#m90692fbd7d" x="54" y="80.122711" style="stroke: #000000; stroke-width: 0.8"/>
      </g>
     </g>
     <g id="text_10">
      <!-- 1.0 -->
      <g transform="translate(23.145312 85.821539)scale(0.15 -0.15)">
       <use xlink:href="#DejaVuSans-31"/>
       <use xlink:href="#DejaVuSans-2e" x="63.623047"/>
       <use xlink:href="#DejaVuSans-30" x="95.410156"/>
      </g>
     </g>
    </g>
    <g id="ytick_6">
     <g id="line2d_11">
      <g>
       <use xlink:href="#m90692fbd7d" x="54" y="44.664808" style="stroke: #000000; stroke-width: 0.8"/>
      </g>
     </g>
     <g id="text_11">
      <!-- 1.2 -->
      <g transform="translate(23.145312 50.363636)scale(0.15 -0.15)">
       <use xlink:href="#DejaVuSans-31"/>
       <use xlink:href="#DejaVuSans-2e" x="63.623047"/>
       <use xlink:href="#DejaVuSans-32" x="95.410156"/>
      </g>
     </g>
    </g>
   </g>
   <g id="line2d_12">
    <defs>
     <path id="mfcfea52a0b" d="M 0 2.5 
C 0.663008 2.5 1.29895 2.236584 1.767767 1.767767 
C 2.236584 1.29895 2.5 0.663008 2.5 0 
C 2.5 -0.663008 2.236584 -1.29895 1.767767 -1.767767 
C 1.29895 -2.236584 0.663008 -2.5 0 -2.5 
C -0.663008 -2.5 -1.29895 -2.236584 -1.767767 -1.767767 
C -2.236584 -1.29895 -2.5 -0.663008 -2.5 0 
C -2.5 0.663008 -2.236584 1.29895 -1.767767 1.767767 
C -1.29895 2.236584 -0.663008 2.5 0 2.5 
z
" style="stroke: #1f77b4"/>
    </defs>
    <g clip-path="url(#p4c08a156aa)">
     <use xlink:href="#mfcfea52a0b" x="69.218182" y="80.122711" style="fill-opacity: 0; stroke: #1f77b4"/>
     <use xlink:href="#mfcfea52a0b" x="70.747647" y="81.757259" style="fill-opacity: 0; stroke: #1f77b4"/>
     <use xlink:href="#mfcfea52a0b" x="72.277113" y="91.626336" style="fill-opacity: 0; stroke: #1f77b4"/>
     <use xlink:href="#mfcfea52a0b" x="73.806578" y="91.484039" style="fill-opacity: 0; stroke: #1f77b4"/>
     <use xlink:href="#mfcfea52a0b" x="75.336044" y="98.424783" style="fill-opacity: 0; stroke: #1f77b4"/>
     <use xlink:href="#mfcfea52a0b" x="76.865509" y="101.029201" style="fill-opacity: 0; stroke: #1f77b4"/>
     <use xlink:href="#mfcfea52a0b" x="78.394975" y="98.900357" style="fill-opacity: 0; stroke: #1f77b4"/>
     <use xlink:href="#mfcfea52a0b" x="79.92444" y="104.562297" style="fill-opacity: 0; stroke: #1f77b4"/>
     <use xlink:href="#mfcfea52a0b" x="81.453906" y="106.734205" style="fill-opacity: 0; stroke: #1f77b4"/>
     <use xlink:href="#mfcfea52a0b" x="82.983371" y="109.411644" style="fill-opacity: 0; stroke: #1f77b4"/>
     <use xlink:href="#mfcfea52a0b" x="84.512837" y="110.394619" style="fill-opacity: 0; stroke: #1f77b4"/>
     <use xlink:href="#mfcfea52a0b" x="86.042302" y="114.592394" style="fill-opacity: 0; stroke: #1f77b4"/>
     <use xlink:href="#mfcfea52a0b" x="87.571768" y="114.818946" style="fill-opacity: 0; stroke: #1f77b4"/>
     <use xlink:href="#mfcfea52a0b" x="89.101233" y="118.277149" style="fill-opacity: 0; stroke: #1f77b4"/>
     <use xlink:href="#mfcfea52a0b" x="90.630699" y="117.792214" style="fill-opacity: 0; stroke: #1f77b4"/>
     <use xlink:href="#mfcfea52a0b" x="92.160164" y="115.951709" style="fill-opacity: 0; stroke: #1f77b4"/>
     <use xlink:href="#mfcfea52a0b" x="93.68963" y="121.94318" style="fill-opacity: 0; stroke: #1f77b4"/>
     <use xlink:href="#mfcfea52a0b" x="95.219095" y="125.584871" style="fill-opacity: 0; stroke: #1f77b4"/>
     <use xlink:href="#mfcfea52a0b" x="96.748561" y="126.180274" style="fill-opacity: 0; stroke: #1f77b4"/>
     <use xlink:href="#mfcfea52a0b" x="98.278026" y="133.091062" style="fill-opacity: 0; stroke: #1f77b4"/>
     <use xlink:href="#mfcfea52a0b" x="99.807492" y="133.47489" style="fill-opacity: 0; stroke: #1f77b4"/>
     <use xlink:href="#mfcfea52a0b" x="101.336958" y="131.688683" style="fill-opacity: 0; stroke: #1f77b4"/>
     <use xlink:href="#mfcfea52a0b" x="102.866423" y="131.095153" style="fill-opacity: 0; stroke: #1f77b4"/>
     <use xlink:href="#mfcfea52a0b" x="104.395889" y="141.555887" style="fill-opacity: 0; stroke: #1f77b4"/>
     <use xlink:href="#mfcfea52a0b" x="105.925354" y="138.678109" style="fill-opacity: 0; stroke: #1f77b4"/>
     <use xlink:href="#mfcfea52a0b" x="107.45482" y="134.184505" style="fill-opacity: 0; stroke: #1f77b4"/>
     <use xlink:href="#mfcfea52a0b" x="108.984285" y="144.30073" style="fill-opacity: 0; stroke: #1f77b4"/>
     <use xlink:href="#mfcfea52a0b" x="110.513751" y="141.980907" style="fill-opacity: 0; stroke: #1f77b4"/>
     <use xlink:href="#mfcfea52a0b" x="112.043216" y="140.758272" style="fill-opacity: 0; stroke: #1f77b4"/>
     <use xlink:href="#mfcfea52a0b" x="113.572682" y="140.703975" style="fill-opacity: 0; stroke: #1f77b4"/>
     <use xlink:href="#mfcfea52a0b" x="115.102147" y="148.985311" style="fill-opacity: 0; stroke: #1f77b4"/>
     <use xlink:href="#mfcfea52a0b" x="116.631613" y="147.38821" style="fill-opacity: 0; stroke: #1f77b4"/>
     <use xlink:href="#mfcfea52a0b" x="118.161078" y="150.827689" style="fill-opacity: 0; stroke: #1f77b4"/>
     <use xlink:href="#mfcfea52a0b" x="119.690544" y="147.255274" style="fill-opacity: 0; stroke: #1f77b4"/>
     <use xlink:href="#mfcfea52a0b" x="121.220009" y="149.972033" style="fill-opacity: 0; stroke: #1f77b4"/>
     <use xlink:href="#mfcfea52a0b" x="122.749475" y="151.90241" style="fill-opacity: 0; stroke: #1f77b4"/>
     <use xlink:href="#mfcfea52a0b" x="124.27894" y="152.649471" style="fill-opacity: 0; stroke: #1f77b4"/>
     <use xlink:href="#mfcfea52a0b" x="125.808406" y="154.929974" style="fill-opacity: 0; stroke: #1f77b4"/>
     <use xlink:href="#mfcfea52a0b" x="127.337871" y="157.270393" style="fill-opacity: 0; stroke: #1f77b4"/>
     <use xlink:href="#mfcfea52a0b" x="128.867337" y="160.736085" style="fill-opacity: 0; stroke: #1f77b4"/>
     <use xlink:href="#mfcfea52a0b" x="130.396802" y="160.022725" style="fill-opacity: 0; stroke: #1f77b4"/>
     <use xlink:href="#mfcfea52a0b" x="131.926268" y="159.135239" style="fill-opacity: 0; stroke: #1f77b4"/>
     <use xlink:href="#mfcfea52a0b" x="133.455733" y="160.327916" style="fill-opacity: 0; stroke: #1f77b4"/>
     <use xlink:href="#mfcfea52a0b" x="134.985199" y="161.013191" style="fill-opacity: 0; stroke: #1f77b4"/>
     <use xlink:href="#mfcfea52a0b" x="136.514664" y="157.858306" style="fill-opacity: 0; stroke: #1f77b4"/>
     <use xlink:href="#mfcfea52a0b" x="138.04413" y="168.234785" style="fill-opacity: 0; stroke: #1f77b4"/>
     <use xlink:href="#mfcfea52a0b" x="139.573595" y="166.407388" style="fill-opacity: 0; stroke: #1f77b4"/>
     <use xlink:href="#mfcfea52a0b" x="141.103061" y="169.030528" style="fill-opacity: 0; stroke: #1f77b4"/>
     <use xlink:href="#mfcfea52a0b" x="142.632526" y="171.945753" style="fill-opacity: 0; stroke: #1f77b4"/>
     <use xlink:href="#mfcfea52a0b" x="144.161992" y="173.769407" style="fill-opacity: 0; stroke: #1f77b4"/>
     <use xlink:href="#mfcfea52a0b" x="145.691457" y="165.10237" style="fill-opacity: 0; stroke: #1f77b4"/>
     <use xlink:href="#mfcfea52a0b" x="147.220923" y="169.566017" style="fill-opacity: 0; stroke: #1f77b4"/>
     <use xlink:href="#mfcfea52a0b" x="148.750388" y="178.661819" style="fill-opacity: 0; stroke: #1f77b4"/>
     <use xlink:href="#mfcfea52a0b" x="150.279854" y="173.904215" style="fill-opacity: 0; stroke: #1f77b4"/>
     <use xlink:href="#mfcfea52a0b" x="151.809319" y="176.60225" style="fill-opacity: 0; stroke: #1f77b4"/>
     <use xlink:href="#mfcfea52a0b" x="153.338785" y="178.701138" style="fill-opacity: 0; stroke: #1f77b4"/>
     <use xlink:href="#mfcfea52a0b" x="154.86825" y="178.103863" style="fill-opacity: 0; stroke: #1f77b4"/>
     <use xlink:href="#mfcfea52a0b" x="156.397716" y="175.310338" style="fill-opacity: 0; stroke: #1f77b4"/>
     <use xlink:href="#mfcfea52a0b" x="157.927181" y="184.411758" style="fill-opacity: 0; stroke: #1f77b4"/>
     <use xlink:href="#mfcfea52a0b" x="159.456647" y="181.753043" style="fill-opacity: 0; stroke: #1f77b4"/>
     <use xlink:href="#mfcfea52a0b" x="160.986112" y="186.203583" style="fill-opacity: 0; stroke: #1f77b4"/>
     <use xlink:href="#mfcfea52a0b" x="162.515578" y="180.601558" style="fill-opacity: 0; stroke: #1f77b4"/>
     <use xlink:href="#mfcfea52a0b" x="164.045043" y="177.192036" style="fill-opacity: 0; stroke: #1f77b4"/>
     <use xlink:href="#mfcfea52a0b" x="165.574509" y="177.705055" style="fill-opacity: 0; stroke: #1f77b4"/>
     <use xlink:href="#mfcfea52a0b" x="167.103974" y="183.662825" style="fill-opacity: 0; stroke: #1f77b4"/>
     <use xlink:href="#mfcfea52a0b" x="168.63344" y="189.551318" style="fill-opacity: 0; stroke: #1f77b4"/>
     <use xlink:href="#mfcfea52a0b" x="170.162905" y="180.204622" style="fill-opacity: 0; stroke: #1f77b4"/>
     <use xlink:href="#mfcfea52a0b" x="171.692371" y="186.289711" style="fill-opacity: 0; stroke: #1f77b4"/>
     <use xlink:href="#mfcfea52a0b" x="173.221836" y="187.757621" style="fill-opacity: 0; stroke: #1f77b4"/>
     <use xlink:href="#mfcfea52a0b" x="174.751302" y="187.370048" style="fill-opacity: 0; stroke: #1f77b4"/>
     <use xlink:href="#mfcfea52a0b" x="176.280767" y="190.225359" style="fill-opacity: 0; stroke: #1f77b4"/>
     <use xlink:href="#mfcfea52a0b" x="177.810233" y="186.546221" style="fill-opacity: 0; stroke: #1f77b4"/>
     <use xlink:href="#mfcfea52a0b" x="179.339698" y="188.515917" style="fill-opacity: 0; stroke: #1f77b4"/>
     <use xlink:href="#mfcfea52a0b" x="180.869164" y="193.513178" style="fill-opacity: 0; stroke: #1f77b4"/>
     <use xlink:href="#mfcfea52a0b" x="182.39863" y="190.169189" style="fill-opacity: 0; stroke: #1f77b4"/>
     <use xlink:href="#mfcfea52a0b" x="183.928095" y="192.78484" style="fill-opacity: 0; stroke: #1f77b4"/>
     <use xlink:href="#mfcfea52a0b" x="185.457561" y="196.314191" style="fill-opacity: 0; stroke: #1f77b4"/>
     <use xlink:href="#mfcfea52a0b" x="186.987026" y="195.037259" style="fill-opacity: 0; stroke: #1f77b4"/>
     <use xlink:href="#mfcfea52a0b" x="188.516492" y="193.198627" style="fill-opacity: 0; stroke: #1f77b4"/>
     <use xlink:href="#mfcfea52a0b" x="190.045957" y="197.905677" style="fill-opacity: 0; stroke: #1f77b4"/>
     <use xlink:href="#mfcfea52a0b" x="191.575423" y="197.568656" style="fill-opacity: 0; stroke: #1f77b4"/>
     <use xlink:href="#mfcfea52a0b" x="193.104888" y="198.884907" style="fill-opacity: 0; stroke: #1f77b4"/>
     <use xlink:href="#mfcfea52a0b" x="194.634354" y="194.342622" style="fill-opacity: 0; stroke: #1f77b4"/>
     <use xlink:href="#mfcfea52a0b" x="196.163819" y="202.985321" style="fill-opacity: 0; stroke: #1f77b4"/>
     <use xlink:href="#mfcfea52a0b" x="197.693285" y="199.150779" style="fill-opacity: 0; stroke: #1f77b4"/>
     <use xlink:href="#mfcfea52a0b" x="199.22275" y="197.488146" style="fill-opacity: 0; stroke: #1f77b4"/>
     <use xlink:href="#mfcfea52a0b" x="200.752216" y="202.021067" style="fill-opacity: 0; stroke: #1f77b4"/>
     <use xlink:href="#mfcfea52a0b" x="202.281681" y="206.565225" style="fill-opacity: 0; stroke: #1f77b4"/>
     <use xlink:href="#mfcfea52a0b" x="203.811147" y="196.911466" style="fill-opacity: 0; stroke: #1f77b4"/>
     <use xlink:href="#mfcfea52a0b" x="205.340612" y="203.539532" style="fill-opacity: 0; stroke: #1f77b4"/>
     <use xlink:href="#mfcfea52a0b" x="206.870078" y="204.511273" style="fill-opacity: 0; stroke: #1f77b4"/>
     <use xlink:href="#mfcfea52a0b" x="208.399543" y="206.625139" style="fill-opacity: 0; stroke: #1f77b4"/>
     <use xlink:href="#mfcfea52a0b" x="209.929009" y="204.765911" style="fill-opacity: 0; stroke: #1f77b4"/>
     <use xlink:href="#mfcfea52a0b" x="211.458474" y="203.399106" style="fill-opacity: 0; stroke: #1f77b4"/>
     <use xlink:href="#mfcfea52a0b" x="212.98794" y="206.831096" style="fill-opacity: 0; stroke: #1f77b4"/>
     <use xlink:href="#mfcfea52a0b" x="214.517405" y="203.575106" style="fill-opacity: 0; stroke: #1f77b4"/>
     <use xlink:href="#mfcfea52a0b" x="216.046871" y="203.78668" style="fill-opacity: 0; stroke: #1f77b4"/>
     <use xlink:href="#mfcfea52a0b" x="217.576336" y="203.743616" style="fill-opacity: 0; stroke: #1f77b4"/>
     <use xlink:href="#mfcfea52a0b" x="219.105802" y="208.388879" style="fill-opacity: 0; stroke: #1f77b4"/>
     <use xlink:href="#mfcfea52a0b" x="220.635267" y="205.6871" style="fill-opacity: 0; stroke: #1f77b4"/>
     <use xlink:href="#mfcfea52a0b" x="222.164733" y="215.043157" style="fill-opacity: 0; stroke: #1f77b4"/>
     <use xlink:href="#mfcfea52a0b" x="223.694198" y="207.900199" style="fill-opacity: 0; stroke: #1f77b4"/>
     <use xlink:href="#mfcfea52a0b" x="225.223664" y="214.253031" style="fill-opacity: 0; stroke: #1f77b4"/>
     <use xlink:href="#mfcfea52a0b" x="226.753129" y="204.63672" style="fill-opacity: 0; stroke: #1f77b4"/>
     <use xlink:href="#mfcfea52a0b" x="228.282595" y="210.240618" style="fill-opacity: 0; stroke: #1f77b4"/>
     <use xlink:href="#mfcfea52a0b" x="229.81206" y="210.753637" style="fill-opacity: 0; stroke: #1f77b4"/>
     <use xlink:href="#mfcfea52a0b" x="231.341526" y="214.62937" style="fill-opacity: 0; stroke: #1f77b4"/>
     <use xlink:href="#mfcfea52a0b" x="232.870991" y="215.681623" style="fill-opacity: 0; stroke: #1f77b4"/>
     <use xlink:href="#mfcfea52a0b" x="234.400457" y="216.351919" style="fill-opacity: 0; stroke: #1f77b4"/>
     <use xlink:href="#mfcfea52a0b" x="235.929922" y="208.643515" style="fill-opacity: 0; stroke: #1f77b4"/>
     <use xlink:href="#mfcfea52a0b" x="237.459388" y="211.921974" style="fill-opacity: 0; stroke: #1f77b4"/>
     <use xlink:href="#mfcfea52a0b" x="238.988853" y="212.333887" style="fill-opacity: 0; stroke: #1f77b4"/>
     <use xlink:href="#mfcfea52a0b" x="240.518319" y="217.454724" style="fill-opacity: 0; stroke: #1f77b4"/>
     <use xlink:href="#mfcfea52a0b" x="242.047784" y="215.084349" style="fill-opacity: 0; stroke: #1f77b4"/>
     <use xlink:href="#mfcfea52a0b" x="243.57725" y="209.90547" style="fill-opacity: 0; stroke: #1f77b4"/>
     <use xlink:href="#mfcfea52a0b" x="245.106715" y="223.464919" style="fill-opacity: 0; stroke: #1f77b4"/>
     <use xlink:href="#mfcfea52a0b" x="246.636181" y="218.536933" style="fill-opacity: 0; stroke: #1f77b4"/>
     <use xlink:href="#mfcfea52a0b" x="248.165646" y="214.384095" style="fill-opacity: 0; stroke: #1f77b4"/>
     <use xlink:href="#mfcfea52a0b" x="249.695112" y="213.219503" style="fill-opacity: 0; stroke: #1f77b4"/>
     <use xlink:href="#mfcfea52a0b" x="251.224577" y="218.568764" style="fill-opacity: 0; stroke: #1f77b4"/>
     <use xlink:href="#mfcfea52a0b" x="252.754043" y="221.347307" style="fill-opacity: 0; stroke: #1f77b4"/>
     <use xlink:href="#mfcfea52a0b" x="254.283508" y="214.960774" style="fill-opacity: 0; stroke: #1f77b4"/>
     <use xlink:href="#mfcfea52a0b" x="255.812974" y="222.182369" style="fill-opacity: 0; stroke: #1f77b4"/>
     <use xlink:href="#mfcfea52a0b" x="257.342439" y="218.540678" style="fill-opacity: 0; stroke: #1f77b4"/>
     <use xlink:href="#mfcfea52a0b" x="258.871905" y="218.553785" style="fill-opacity: 0; stroke: #1f77b4"/>
     <use xlink:href="#mfcfea52a0b" x="260.40137" y="224.573341" style="fill-opacity: 0; stroke: #1f77b4"/>
     <use xlink:href="#mfcfea52a0b" x="261.930836" y="223.227132" style="fill-opacity: 0; stroke: #1f77b4"/>
     <use xlink:href="#mfcfea52a0b" x="263.460302" y="219.79327" style="fill-opacity: 0; stroke: #1f77b4"/>
     <use xlink:href="#mfcfea52a0b" x="264.989767" y="222.697262" style="fill-opacity: 0; stroke: #1f77b4"/>
     <use xlink:href="#mfcfea52a0b" x="266.519233" y="224.309342" style="fill-opacity: 0; stroke: #1f77b4"/>
     <use xlink:href="#mfcfea52a0b" x="268.048698" y="222.068156" style="fill-opacity: 0; stroke: #1f77b4"/>
     <use xlink:href="#mfcfea52a0b" x="269.578164" y="221.195649" style="fill-opacity: 0; stroke: #1f77b4"/>
     <use xlink:href="#mfcfea52a0b" x="271.107629" y="221.182542" style="fill-opacity: 0; stroke: #1f77b4"/>
     <use xlink:href="#mfcfea52a0b" x="272.637095" y="218.488253" style="fill-opacity: 0; stroke: #1f77b4"/>
     <use xlink:href="#mfcfea52a0b" x="274.16656" y="220.366204" style="fill-opacity: 0; stroke: #1f77b4"/>
     <use xlink:href="#mfcfea52a0b" x="275.696026" y="222.221689" style="fill-opacity: 0; stroke: #1f77b4"/>
     <use xlink:href="#mfcfea52a0b" x="277.225491" y="226.114274" style="fill-opacity: 0; stroke: #1f77b4"/>
     <use xlink:href="#mfcfea52a0b" x="278.754957" y="225.460827" style="fill-opacity: 0; stroke: #1f77b4"/>
     <use xlink:href="#mfcfea52a0b" x="280.284422" y="228.194437" style="fill-opacity: 0; stroke: #1f77b4"/>
     <use xlink:href="#mfcfea52a0b" x="281.813888" y="224.666958" style="fill-opacity: 0; stroke: #1f77b4"/>
     <use xlink:href="#mfcfea52a0b" x="283.343353" y="223.712067" style="fill-opacity: 0; stroke: #1f77b4"/>
     <use xlink:href="#mfcfea52a0b" x="284.872819" y="225.003977" style="fill-opacity: 0; stroke: #1f77b4"/>
     <use xlink:href="#mfcfea52a0b" x="286.402284" y="229.585581" style="fill-opacity: 0; stroke: #1f77b4"/>
     <use xlink:href="#mfcfea52a0b" x="287.93175" y="227.657077" style="fill-opacity: 0; stroke: #1f77b4"/>
     <use xlink:href="#mfcfea52a0b" x="289.461215" y="227.994097" style="fill-opacity: 0; stroke: #1f77b4"/>
     <use xlink:href="#mfcfea52a0b" x="290.990681" y="226.672229" style="fill-opacity: 0; stroke: #1f77b4"/>
     <use xlink:href="#mfcfea52a0b" x="292.520146" y="231.514086" style="fill-opacity: 0; stroke: #1f77b4"/>
     <use xlink:href="#mfcfea52a0b" x="294.049612" y="226.125507" style="fill-opacity: 0; stroke: #1f77b4"/>
     <use xlink:href="#mfcfea52a0b" x="295.579077" y="232.171275" style="fill-opacity: 0; stroke: #1f77b4"/>
     <use xlink:href="#mfcfea52a0b" x="297.108543" y="225.567551" style="fill-opacity: 0; stroke: #1f77b4"/>
     <use xlink:href="#mfcfea52a0b" x="298.638008" y="227.037334" style="fill-opacity: 0; stroke: #1f77b4"/>
     <use xlink:href="#mfcfea52a0b" x="300.167474" y="233.272208" style="fill-opacity: 0; stroke: #1f77b4"/>
     <use xlink:href="#mfcfea52a0b" x="301.696939" y="231.879193" style="fill-opacity: 0; stroke: #1f77b4"/>
     <use xlink:href="#mfcfea52a0b" x="303.226405" y="229.211114" style="fill-opacity: 0; stroke: #1f77b4"/>
     <use xlink:href="#mfcfea52a0b" x="304.75587" y="233.126167" style="fill-opacity: 0; stroke: #1f77b4"/>
     <use xlink:href="#mfcfea52a0b" x="306.285336" y="229.799028" style="fill-opacity: 0; stroke: #1f77b4"/>
     <use xlink:href="#mfcfea52a0b" x="307.814801" y="233.852633" style="fill-opacity: 0; stroke: #1f77b4"/>
     <use xlink:href="#mfcfea52a0b" x="309.344267" y="236.844625" style="fill-opacity: 0; stroke: #1f77b4"/>
     <use xlink:href="#mfcfea52a0b" x="310.873732" y="231.607703" style="fill-opacity: 0; stroke: #1f77b4"/>
     <use xlink:href="#mfcfea52a0b" x="312.403198" y="236.72105" style="fill-opacity: 0; stroke: #1f77b4"/>
     <use xlink:href="#mfcfea52a0b" x="313.932663" y="235.949648" style="fill-opacity: 0; stroke: #1f77b4"/>
     <use xlink:href="#mfcfea52a0b" x="315.462129" y="235.037821" style="fill-opacity: 0; stroke: #1f77b4"/>
     <use xlink:href="#mfcfea52a0b" x="316.991594" y="234.577226" style="fill-opacity: 0; stroke: #1f77b4"/>
     <use xlink:href="#mfcfea52a0b" x="318.52106" y="228.791712" style="fill-opacity: 0; stroke: #1f77b4"/>
     <use xlink:href="#mfcfea52a0b" x="320.050525" y="232.957656" style="fill-opacity: 0; stroke: #1f77b4"/>
     <use xlink:href="#mfcfea52a0b" x="321.579991" y="235.921563" style="fill-opacity: 0; stroke: #1f77b4"/>
     <use xlink:href="#mfcfea52a0b" x="323.109456" y="232.23868" style="fill-opacity: 0; stroke: #1f77b4"/>
     <use xlink:href="#mfcfea52a0b" x="324.638922" y="237.299601" style="fill-opacity: 0; stroke: #1f77b4"/>
     <use xlink:href="#mfcfea52a0b" x="326.168387" y="238.099088" style="fill-opacity: 0; stroke: #1f77b4"/>
     <use xlink:href="#mfcfea52a0b" x="327.697853" y="231.654511" style="fill-opacity: 0; stroke: #1f77b4"/>
     <use xlink:href="#mfcfea52a0b" x="329.227318" y="234.090419" style="fill-opacity: 0; stroke: #1f77b4"/>
     <use xlink:href="#mfcfea52a0b" x="330.756784" y="239.130744" style="fill-opacity: 0; stroke: #1f77b4"/>
     <use xlink:href="#mfcfea52a0b" x="332.286249" y="236.170583" style="fill-opacity: 0; stroke: #1f77b4"/>
     <use xlink:href="#mfcfea52a0b" x="333.815715" y="233.25723" style="fill-opacity: 0; stroke: #1f77b4"/>
     <use xlink:href="#mfcfea52a0b" x="335.34518" y="238.408022" style="fill-opacity: 0; stroke: #1f77b4"/>
     <use xlink:href="#mfcfea52a0b" x="336.874646" y="233.150506" style="fill-opacity: 0; stroke: #1f77b4"/>
     <use xlink:href="#mfcfea52a0b" x="338.404111" y="235.734329" style="fill-opacity: 0; stroke: #1f77b4"/>
     <use xlink:href="#mfcfea52a0b" x="339.933577" y="230.519876" style="fill-opacity: 0; stroke: #1f77b4"/>
     <use xlink:href="#mfcfea52a0b" x="341.463042" y="237.192878" style="fill-opacity: 0; stroke: #1f77b4"/>
     <use xlink:href="#mfcfea52a0b" x="342.992508" y="236.252966" style="fill-opacity: 0; stroke: #1f77b4"/>
     <use xlink:href="#mfcfea52a0b" x="344.521974" y="237.011262" style="fill-opacity: 0; stroke: #1f77b4"/>
     <use xlink:href="#mfcfea52a0b" x="346.051439" y="242.946563" style="fill-opacity: 0; stroke: #1f77b4"/>
     <use xlink:href="#mfcfea52a0b" x="347.580905" y="235.243777" style="fill-opacity: 0; stroke: #1f77b4"/>
     <use xlink:href="#mfcfea52a0b" x="349.11037" y="235.859776" style="fill-opacity: 0; stroke: #1f77b4"/>
     <use xlink:href="#mfcfea52a0b" x="350.639836" y="240.151167" style="fill-opacity: 0; stroke: #1f77b4"/>
     <use xlink:href="#mfcfea52a0b" x="352.169301" y="236.648029" style="fill-opacity: 0; stroke: #1f77b4"/>
     <use xlink:href="#mfcfea52a0b" x="353.698767" y="238.310662" style="fill-opacity: 0; stroke: #1f77b4"/>
     <use xlink:href="#mfcfea52a0b" x="355.228232" y="240.870144" style="fill-opacity: 0; stroke: #1f77b4"/>
     <use xlink:href="#mfcfea52a0b" x="356.757698" y="237.136708" style="fill-opacity: 0; stroke: #1f77b4"/>
     <use xlink:href="#mfcfea52a0b" x="358.287163" y="236.043265" style="fill-opacity: 0; stroke: #1f77b4"/>
     <use xlink:href="#mfcfea52a0b" x="359.816629" y="246.24" style="fill-opacity: 0; stroke: #1f77b4"/>
     <use xlink:href="#mfcfea52a0b" x="361.346094" y="239.988274" style="fill-opacity: 0; stroke: #1f77b4"/>
     <use xlink:href="#mfcfea52a0b" x="362.87556" y="236.749134" style="fill-opacity: 0; stroke: #1f77b4"/>
     <use xlink:href="#mfcfea52a0b" x="364.405025" y="236.65739" style="fill-opacity: 0; stroke: #1f77b4"/>
     <use xlink:href="#mfcfea52a0b" x="365.934491" y="245.02111" style="fill-opacity: 0; stroke: #1f77b4"/>
     <use xlink:href="#mfcfea52a0b" x="367.463956" y="239.331084" style="fill-opacity: 0; stroke: #1f77b4"/>
     <use xlink:href="#mfcfea52a0b" x="368.993422" y="240.740953" style="fill-opacity: 0; stroke: #1f77b4"/>
     <use xlink:href="#mfcfea52a0b" x="370.522887" y="240.344017" style="fill-opacity: 0; stroke: #1f77b4"/>
     <use xlink:href="#mfcfea52a0b" x="372.052353" y="239.993891" style="fill-opacity: 0; stroke: #1f77b4"/>
     <use xlink:href="#mfcfea52a0b" x="373.581818" y="239.799168" style="fill-opacity: 0; stroke: #1f77b4"/>
    </g>
   </g>
   <g id="line2d_13">
    <path d="M 69.218182 93.261838 
L 75.336044 101.094871 
L 81.453906 108.554123 
L 87.571768 115.657429 
L 93.68963 122.421775 
L 99.807492 128.863336 
L 105.925354 134.997514 
L 112.043216 140.838978 
L 118.161078 146.401695 
L 124.27894 151.698967 
L 130.396802 156.74346 
L 136.514664 161.547236 
L 142.632526 166.121783 
L 150.279854 171.534227 
L 157.927181 176.625776 
L 165.574509 181.415457 
L 173.221836 185.921167 
L 180.869164 190.159741 
L 188.516492 194.147018 
L 196.163819 197.897896 
L 203.811147 201.426392 
L 211.458474 204.74569 
L 220.635267 208.470117 
L 229.81206 211.931163 
L 238.988853 215.147454 
L 248.165646 218.136298 
L 257.342439 220.913779 
L 268.048698 223.906917 
L 278.754957 226.654595 
L 289.461215 229.176944 
L 300.167474 231.492442 
L 312.403198 233.907134 
L 324.638922 236.096873 
L 338.404111 238.317457 
L 352.169301 240.306705 
L 367.463956 242.274888 
L 373.581818 242.997221 
L 373.581818 242.997221 
" clip-path="url(#p4c08a156aa)" style="fill: none; stroke: #ff7f0e; stroke-width: 3; stroke-linecap: square"/>
   </g>
   <g id="line2d_14">
    <path d="M 69.218182 44.64 
L 70.747647 58.447326 
L 72.277113 68.431405 
L 73.806578 76.458118 
L 75.336044 83.246821 
L 76.865509 89.164803 
L 78.394975 94.4293 
L 79.92444 99.18125 
L 81.453906 103.51813 
L 84.512837 111.211841 
L 87.571768 117.896375 
L 90.630699 123.810938 
L 93.68963 129.115545 
L 96.748561 133.92325 
L 99.807492 138.317285 
L 102.866423 142.36093 
L 105.925354 146.10356 
L 108.984285 149.584525 
L 113.572682 154.383617 
L 118.161078 158.749841 
L 122.749475 162.748741 
L 127.337871 166.431847 
L 131.926268 169.840468 
L 136.514664 173.008265 
L 142.632526 176.904789 
L 148.750388 180.475933 
L 154.86825 183.764883 
L 160.986112 186.806848 
L 167.103974 189.630925 
L 174.751302 192.891318 
L 182.39863 195.888453 
L 190.045957 198.654727 
L 199.22275 201.70713 
L 208.399543 204.504194 
L 217.576336 207.077615 
L 228.282595 209.832228 
L 238.988853 212.352954 
L 251.224577 214.984061 
L 263.460302 217.382579 
L 277.225491 219.839138 
L 290.990681 222.072631 
L 306.285336 224.327003 
L 323.109456 226.567249 
L 341.463042 228.764539 
L 359.816629 230.740346 
L 373.581818 232.095248 
L 373.581818 232.095248 
" clip-path="url(#p4c08a156aa)" style="fill: none; stroke: #2ca02c; stroke-width: 3; stroke-linecap: square"/>
   </g>
   <g id="patch_3">
    <path d="M 54 256.32 
L 54 34.56 
" style="fill: none; stroke: #000000; stroke-width: 0.8; stroke-linejoin: miter; stroke-linecap: square"/>
   </g>
   <g id="patch_4">
    <path d="M 388.8 256.32 
L 388.8 34.56 
" style="fill: none; stroke: #000000; stroke-width: 0.8; stroke-linejoin: miter; stroke-linecap: square"/>
   </g>
   <g id="patch_5">
    <path d="M 54 256.32 
L 388.8 256.32 
" style="fill: none; stroke: #000000; stroke-width: 0.8; stroke-linejoin: miter; stroke-linecap: square"/>
   </g>
   <g id="patch_6">
    <path d="M 54 34.56 
L 388.8 34.56 
" style="fill: none; stroke: #000000; stroke-width: 0.8; stroke-linejoin: miter; stroke-linecap: square"/>
   </g>
   <g id="legend_1">
    <g id="patch_7">
     <path d="M 189.689063 117.777188 
L 378.3 117.777188 
Q 381.3 117.777188 381.3 114.777188 
L 381.3 45.06 
Q 381.3 42.06 378.3 42.06 
L 189.689063 42.06 
Q 186.689063 42.06 186.689063 45.06 
L 186.689063 114.777188 
Q 186.689063 117.777188 189.689063 117.777188 
z
" style="fill: #ffffff; opacity: 0.8; stroke: #cccccc; stroke-linejoin: miter"/>
    </g>
    <g id="line2d_15">
     <g>
      <use xlink:href="#mfcfea52a0b" x="207.689063" y="54.207656" style="fill-opacity: 0; stroke: #1f77b4"/>
     </g>
    </g>
    <g id="text_12">
     <!-- Experimental Data -->
     <g transform="translate(234.689063 59.457656)scale(0.15 -0.15)">
      <defs>
       <path id="DejaVuSans-45" d="M 628 4666 
L 3578 4666 
L 3578 4134 
L 1259 4134 
L 1259 2753 
L 3481 2753 
L 3481 2222 
L 1259 2222 
L 1259 531 
L 3634 531 
L 3634 0 
L 628 0 
L 628 4666 
z
" transform="scale(0.015625)"/>
       <path id="DejaVuSans-78" d="M 3513 3500 
L 2247 1797 
L 3578 0 
L 2900 0 
L 1881 1375 
L 863 0 
L 184 0 
L 1544 1831 
L 300 3500 
L 978 3500 
L 1906 2253 
L 2834 3500 
L 3513 3500 
z
" transform="scale(0.015625)"/>
       <path id="DejaVuSans-70" d="M 1159 525 
L 1159 -1331 
L 581 -1331 
L 581 3500 
L 1159 3500 
L 1159 2969 
Q 1341 3281 1617 3432 
Q 1894 3584 2278 3584 
Q 2916 3584 3314 3078 
Q 3713 2572 3713 1747 
Q 3713 922 3314 415 
Q 2916 -91 2278 -91 
Q 1894 -91 1617 61 
Q 1341 213 1159 525 
z
M 3116 1747 
Q 3116 2381 2855 2742 
Q 2594 3103 2138 3103 
Q 1681 3103 1420 2742 
Q 1159 2381 1159 1747 
Q 1159 1113 1420 752 
Q 1681 391 2138 391 
Q 2594 391 2855 752 
Q 3116 1113 3116 1747 
z
" transform="scale(0.015625)"/>
       <path id="DejaVuSans-65" d="M 3597 1894 
L 3597 1613 
L 953 1613 
Q 991 1019 1311 708 
Q 1631 397 2203 397 
Q 2534 397 2845 478 
Q 3156 559 3463 722 
L 3463 178 
Q 3153 47 2828 -22 
Q 2503 -91 2169 -91 
Q 1331 -91 842 396 
Q 353 884 353 1716 
Q 353 2575 817 3079 
Q 1281 3584 2069 3584 
Q 2775 3584 3186 3129 
Q 3597 2675 3597 1894 
z
M 3022 2063 
Q 3016 2534 2758 2815 
Q 2500 3097 2075 3097 
Q 1594 3097 1305 2825 
Q 1016 2553 972 2059 
L 3022 2063 
z
" transform="scale(0.015625)"/>
       <path id="DejaVuSans-72" d="M 2631 2963 
Q 2534 3019 2420 3045 
Q 2306 3072 2169 3072 
Q 1681 3072 1420 2755 
Q 1159 2438 1159 1844 
L 1159 0 
L 581 0 
L 581 3500 
L 1159 3500 
L 1159 2956 
Q 1341 3275 1631 3429 
Q 1922 3584 2338 3584 
Q 2397 3584 2469 3576 
Q 2541 3569 2628 3553 
L 2631 2963 
z
" transform="scale(0.015625)"/>
       <path id="DejaVuSans-69" d="M 603 3500 
L 1178 3500 
L 1178 0 
L 603 0 
L 603 3500 
z
M 603 4863 
L 1178 4863 
L 1178 4134 
L 603 4134 
L 603 4863 
z
" transform="scale(0.015625)"/>
       <path id="DejaVuSans-6d" d="M 3328 2828 
Q 3544 3216 3844 3400 
Q 4144 3584 4550 3584 
Q 5097 3584 5394 3201 
Q 5691 2819 5691 2113 
L 5691 0 
L 5113 0 
L 5113 2094 
Q 5113 2597 4934 2840 
Q 4756 3084 4391 3084 
Q 3944 3084 3684 2787 
Q 3425 2491 3425 1978 
L 3425 0 
L 2847 0 
L 2847 2094 
Q 2847 2600 2669 2842 
Q 2491 3084 2119 3084 
Q 1678 3084 1418 2786 
Q 1159 2488 1159 1978 
L 1159 0 
L 581 0 
L 581 3500 
L 1159 3500 
L 1159 2956 
Q 1356 3278 1631 3431 
Q 1906 3584 2284 3584 
Q 2666 3584 2933 3390 
Q 3200 3197 3328 2828 
z
" transform="scale(0.015625)"/>
       <path id="DejaVuSans-6e" d="M 3513 2113 
L 3513 0 
L 2938 0 
L 2938 2094 
Q 2938 2591 2744 2837 
Q 2550 3084 2163 3084 
Q 1697 3084 1428 2787 
Q 1159 2491 1159 1978 
L 1159 0 
L 581 0 
L 581 3500 
L 1159 3500 
L 1159 2956 
Q 1366 3272 1645 3428 
Q 1925 3584 2291 3584 
Q 2894 3584 3203 3211 
Q 3513 2838 3513 2113 
z
" transform="scale(0.015625)"/>
       <path id="DejaVuSans-74" d="M 1172 4494 
L 1172 3500 
L 2356 3500 
L 2356 3053 
L 1172 3053 
L 1172 1153 
Q 1172 725 1289 603 
Q 1406 481 1766 481 
L 2356 481 
L 2356 0 
L 1766 0 
Q 1100 0 847 248 
Q 594 497 594 1153 
L 594 3053 
L 172 3053 
L 172 3500 
L 594 3500 
L 594 4494 
L 1172 4494 
z
" transform="scale(0.015625)"/>
       <path id="DejaVuSans-61" d="M 2194 1759 
Q 1497 1759 1228 1600 
Q 959 1441 959 1056 
Q 959 750 1161 570 
Q 1363 391 1709 391 
Q 2188 391 2477 730 
Q 2766 1069 2766 1631 
L 2766 1759 
L 2194 1759 
z
M 3341 1997 
L 3341 0 
L 2766 0 
L 2766 531 
Q 2569 213 2275 61 
Q 1981 -91 1556 -91 
Q 1019 -91 701 211 
Q 384 513 384 1019 
Q 384 1609 779 1909 
Q 1175 2209 1959 2209 
L 2766 2209 
L 2766 2266 
Q 2766 2663 2505 2880 
Q 2244 3097 1772 3097 
Q 1472 3097 1187 3025 
Q 903 2953 641 2809 
L 641 3341 
Q 956 3463 1253 3523 
Q 1550 3584 1831 3584 
Q 2591 3584 2966 3190 
Q 3341 2797 3341 1997 
z
" transform="scale(0.015625)"/>
       <path id="DejaVuSans-6c" d="M 603 4863 
L 1178 4863 
L 1178 0 
L 603 0 
L 603 4863 
z
" transform="scale(0.015625)"/>
       <path id="DejaVuSans-20" transform="scale(0.015625)"/>
       <path id="DejaVuSans-44" d="M 1259 4147 
L 1259 519 
L 2022 519 
Q 2988 519 3436 956 
Q 3884 1394 3884 2338 
Q 3884 3275 3436 3711 
Q 2988 4147 2022 4147 
L 1259 4147 
z
M 628 4666 
L 1925 4666 
Q 3281 4666 3915 4102 
Q 4550 3538 4550 2338 
Q 4550 1131 3912 565 
Q 3275 0 1925 0 
L 628 0 
L 628 4666 
z
" transform="scale(0.015625)"/>
      </defs>
      <use xlink:href="#DejaVuSans-45"/>
      <use xlink:href="#DejaVuSans-78" x="63.183594"/>
      <use xlink:href="#DejaVuSans-70" x="122.363281"/>
      <use xlink:href="#DejaVuSans-65" x="185.839844"/>
      <use xlink:href="#DejaVuSans-72" x="247.363281"/>
      <use xlink:href="#DejaVuSans-69" x="288.476562"/>
      <use xlink:href="#DejaVuSans-6d" x="316.259766"/>
      <use xlink:href="#DejaVuSans-65" x="413.671875"/>
      <use xlink:href="#DejaVuSans-6e" x="475.195312"/>
      <use xlink:href="#DejaVuSans-74" x="538.574219"/>
      <use xlink:href="#DejaVuSans-61" x="577.783203"/>
      <use xlink:href="#DejaVuSans-6c" x="639.0625"/>
      <use xlink:href="#DejaVuSans-20" x="666.845703"/>
      <use xlink:href="#DejaVuSans-44" x="698.632812"/>
      <use xlink:href="#DejaVuSans-61" x="775.634766"/>
      <use xlink:href="#DejaVuSans-74" x="836.914062"/>
      <use xlink:href="#DejaVuSans-61" x="876.123047"/>
     </g>
    </g>
    <g id="line2d_16">
     <path d="M 192.689063 76.227188 
L 207.689063 76.227188 
L 222.689063 76.227188 
" style="fill: none; stroke: #ff7f0e; stroke-width: 3; stroke-linecap: square"/>
    </g>
    <g id="text_13">
     <!-- exp($-t/\tau$) -->
     <g transform="translate(234.689063 81.477188)scale(0.15 -0.15)">
      <defs>
       <path id="DejaVuSans-28" d="M 1984 4856 
Q 1566 4138 1362 3434 
Q 1159 2731 1159 2009 
Q 1159 1288 1364 580 
Q 1569 -128 1984 -844 
L 1484 -844 
Q 1016 -109 783 600 
Q 550 1309 550 2009 
Q 550 2706 781 3412 
Q 1013 4119 1484 4856 
L 1984 4856 
z
" transform="scale(0.015625)"/>
       <path id="DejaVuSans-2212" d="M 678 2272 
L 4684 2272 
L 4684 1741 
L 678 1741 
L 678 2272 
z
" transform="scale(0.015625)"/>
       <path id="DejaVuSans-Oblique-74" d="M 2706 3500 
L 2619 3053 
L 1472 3053 
L 1100 1153 
Q 1081 1047 1072 975 
Q 1063 903 1063 863 
Q 1063 663 1183 572 
Q 1303 481 1569 481 
L 2150 481 
L 2053 0 
L 1503 0 
Q 991 0 739 200 
Q 488 400 488 806 
Q 488 878 497 964 
Q 506 1050 525 1153 
L 897 3053 
L 409 3053 
L 500 3500 
L 978 3500 
L 1172 4494 
L 1747 4494 
L 1556 3500 
L 2706 3500 
z
" transform="scale(0.015625)"/>
       <path id="DejaVuSans-2f" d="M 1625 4666 
L 2156 4666 
L 531 -594 
L 0 -594 
L 1625 4666 
z
" transform="scale(0.015625)"/>
       <path id="DejaVuSans-Oblique-3c4" d="M 2103 638 
Q 2188 488 2525 488 
L 2800 488 
L 2706 0 
L 2363 0 
Q 1800 0 1600 300 
Q 1403 606 1534 1269 
L 1856 2925 
L 541 2925 
L 653 3500 
L 3881 3500 
L 3769 2925 
L 2444 2925 
L 2113 1234 
Q 2025 781 2103 638 
z
" transform="scale(0.015625)"/>
       <path id="DejaVuSans-29" d="M 513 4856 
L 1013 4856 
Q 1481 4119 1714 3412 
Q 1947 2706 1947 2009 
Q 1947 1309 1714 600 
Q 1481 -109 1013 -844 
L 513 -844 
Q 928 -128 1133 580 
Q 1338 1288 1338 2009 
Q 1338 2731 1133 3434 
Q 928 4138 513 4856 
z
" transform="scale(0.015625)"/>
      </defs>
      <use xlink:href="#DejaVuSans-65" transform="translate(0 0.125)"/>
      <use xlink:href="#DejaVuSans-78" transform="translate(61.523438 0.125)"/>
      <use xlink:href="#DejaVuSans-70" transform="translate(120.703125 0.125)"/>
      <use xlink:href="#DejaVuSans-28" transform="translate(184.179688 0.125)"/>
      <use xlink:href="#DejaVuSans-2212" transform="translate(223.193359 0.125)"/>
      <use xlink:href="#DejaVuSans-Oblique-74" transform="translate(306.982422 0.125)"/>
      <use xlink:href="#DejaVuSans-2f" transform="translate(346.191406 0.125)"/>
      <use xlink:href="#DejaVuSans-Oblique-3c4" transform="translate(379.882812 0.125)"/>
      <use xlink:href="#DejaVuSans-29" transform="translate(440.087891 0.125)"/>
     </g>
    </g>
    <g id="line2d_17">
     <path d="M 192.689063 103.377188 
L 207.689063 103.377188 
L 222.689063 103.377188 
" style="fill: none; stroke: #2ca02c; stroke-width: 3; stroke-linecap: square"/>
    </g>
    <g id="text_14">
     <!-- exp($-\sqrt{t/\tau}$) -->
     <g transform="translate(234.689063 108.627188)scale(0.15 -0.15)">
      <defs>
       <path id="STIXSizeOneSym-Regular-221a" d="M 6970 9933 
L 3373 -1888 
L 3104 -1888 
L 1626 2918 
Q 1555 3149 1465 3251 
Q 1376 3354 1229 3354 
Q 1011 3354 794 3181 
L 717 3309 
L 1766 4115 
L 1926 4115 
L 3379 -602 
L 3405 -602 
L 6605 9933 
L 6970 9933 
z
" transform="scale(0.015625)"/>
      </defs>
      <use xlink:href="#DejaVuSans-65" transform="translate(0 0.609375)"/>
      <use xlink:href="#DejaVuSans-78" transform="translate(61.523438 0.609375)"/>
      <use xlink:href="#DejaVuSans-70" transform="translate(120.703125 0.609375)"/>
      <use xlink:href="#DejaVuSans-28" transform="translate(184.179688 0.609375)"/>
      <use xlink:href="#DejaVuSans-2212" transform="translate(223.193359 0.609375)"/>
      <use xlink:href="#STIXSizeOneSym-Regular-221a" transform="translate(306.982422 9.328125)scale(0.614161)"/>
      <use xlink:href="#DejaVuSans-Oblique-74" transform="translate(384.355789 0.84375)"/>
      <use xlink:href="#DejaVuSans-2f" transform="translate(423.564774 0.84375)"/>
      <use xlink:href="#DejaVuSans-Oblique-3c4" transform="translate(457.25618 0.84375)"/>
      <use xlink:href="#DejaVuSans-29" transform="translate(529.961258 0.609375)"/>
      <path d="M 371.855789 97.5 
L 371.855789 103.75 
L 529.961258 103.75 
L 529.961258 97.5 
L 371.855789 97.5 
z
"/>
     </g>
    </g>
   </g>
  </g>
 </g>
 <defs>
  <clipPath id="p4c08a156aa">
   <rect x="54" y="34.56" width="334.8" height="221.76"/>
  </clipPath>
 </defs>
</svg>
