<?xml version="1.0" encoding="utf-8" standalone="no"?>
<!DOCTYPE svg PUBLIC "-//W3C//DTD SVG 1.1//EN"
  "http://www.w3.org/Graphics/SVG/1.1/DTD/svg11.dtd">
<svg xmlns:xlink="http://www.w3.org/1999/xlink" width="432pt" height="288pt" viewBox="0 0 432 288" xmlns="http://www.w3.org/2000/svg" version="1.1">
 <metadata>
  <rdf:RDF xmlns:dc="http://purl.org/dc/elements/1.1/" xmlns:cc="http://creativecommons.org/ns#" xmlns:rdf="http://www.w3.org/1999/02/22-rdf-syntax-ns#">
   <cc:Work>
    <dc:type rdf:resource="http://purl.org/dc/dcmitype/StillImage"/>
    <dc:date>2022-08-10T19:49:48.103258</dc:date>
    <dc:format>image/svg+xml</dc:format>
    <dc:creator>
     <cc:Agent>
      <dc:title>Matplotlib v3.5.1, https://matplotlib.org/</dc:title>
     </cc:Agent>
    </dc:creator>
   </cc:Work>
  </rdf:RDF>
 </metadata>
 <defs>
  <style type="text/css">*{stroke-linejoin: round; stroke-linecap: butt}</style>
 </defs>
 <g id="figure_1">
  <g id="patch_1">
   <path d="M 0 288 
L 432 288 
L 432 0 
L 0 0 
z
" style="fill: #ffffff"/>
  </g>
  <g id="axes_1">
   <g id="patch_2">
    <path d="M 54 256.32 
L 388.8 256.32 
L 388.8 34.56 
L 54 34.56 
z
" style="fill: #ffffff"/>
   </g>
   <g id="matplotlib.axis_1">
    <g id="xtick_1">
     <g id="line2d_1">
      <defs>
       <path id="m600be56656" d="M 0 0 
L 0 3.5 
" style="stroke: #000000; stroke-width: 0.8"/>
      </defs>
      <g>
       <use xlink:href="#m600be56656" x="67.680992" y="256.32" style="stroke: #000000; stroke-width: 0.8"/>
      </g>
     </g>
     <g id="text_1">
      <!-- 0 -->
      <g transform="translate(62.909117 274.717656)scale(0.15 -0.15)">
       <defs>
        <path id="DejaVuSans-30" d="M 2034 4250 
Q 1547 4250 1301 3770 
Q 1056 3291 1056 2328 
Q 1056 1369 1301 889 
Q 1547 409 2034 409 
Q 2525 409 2770 889 
Q 3016 1369 3016 2328 
Q 3016 3291 2770 3770 
Q 2525 4250 2034 4250 
z
M 2034 4750 
Q 2819 4750 3233 4129 
Q 3647 3509 3647 2328 
Q 3647 1150 3233 529 
Q 2819 -91 2034 -91 
Q 1250 -91 836 529 
Q 422 1150 422 2328 
Q 422 3509 836 4129 
Q 1250 4750 2034 4750 
z
" transform="scale(0.015625)"/>
       </defs>
       <use xlink:href="#DejaVuSans-30"/>
      </g>
     </g>
    </g>
    <g id="xtick_2">
     <g id="line2d_2">
      <g>
       <use xlink:href="#m600be56656" x="129.168595" y="256.32" style="stroke: #000000; stroke-width: 0.8"/>
      </g>
     </g>
     <g id="text_2">
      <!-- 1 -->
      <g transform="translate(124.39672 274.717656)scale(0.15 -0.15)">
       <defs>
        <path id="DejaVuSans-31" d="M 794 531 
L 1825 531 
L 1825 4091 
L 703 3866 
L 703 4441 
L 1819 4666 
L 2450 4666 
L 2450 531 
L 3481 531 
L 3481 0 
L 794 0 
L 794 531 
z
" transform="scale(0.015625)"/>
       </defs>
       <use xlink:href="#DejaVuSans-31"/>
      </g>
     </g>
    </g>
    <g id="xtick_3">
     <g id="line2d_3">
      <g>
       <use xlink:href="#m600be56656" x="190.656198" y="256.32" style="stroke: #000000; stroke-width: 0.8"/>
      </g>
     </g>
     <g id="text_3">
      <!-- 2 -->
      <g transform="translate(185.884323 274.717656)scale(0.15 -0.15)">
       <defs>
        <path id="DejaVuSans-32" d="M 1228 531 
L 3431 531 
L 3431 0 
L 469 0 
L 469 531 
Q 828 903 1448 1529 
Q 2069 2156 2228 2338 
Q 2531 2678 2651 2914 
Q 2772 3150 2772 3378 
Q 2772 3750 2511 3984 
Q 2250 4219 1831 4219 
Q 1534 4219 1204 4116 
Q 875 4013 500 3803 
L 500 4441 
Q 881 4594 1212 4672 
Q 1544 4750 1819 4750 
Q 2544 4750 2975 4387 
Q 3406 4025 3406 3419 
Q 3406 3131 3298 2873 
Q 3191 2616 2906 2266 
Q 2828 2175 2409 1742 
Q 1991 1309 1228 531 
z
" transform="scale(0.015625)"/>
       </defs>
       <use xlink:href="#DejaVuSans-32"/>
      </g>
     </g>
    </g>
    <g id="xtick_4">
     <g id="line2d_4">
      <g>
       <use xlink:href="#m600be56656" x="252.143802" y="256.32" style="stroke: #000000; stroke-width: 0.8"/>
      </g>
     </g>
     <g id="text_4">
      <!-- 3 -->
      <g transform="translate(247.371927 274.717656)scale(0.15 -0.15)">
       <defs>
        <path id="DejaVuSans-33" d="M 2597 2516 
Q 3050 2419 3304 2112 
Q 3559 1806 3559 1356 
Q 3559 666 3084 287 
Q 2609 -91 1734 -91 
Q 1441 -91 1130 -33 
Q 819 25 488 141 
L 488 750 
Q 750 597 1062 519 
Q 1375 441 1716 441 
Q 2309 441 2620 675 
Q 2931 909 2931 1356 
Q 2931 1769 2642 2001 
Q 2353 2234 1838 2234 
L 1294 2234 
L 1294 2753 
L 1863 2753 
Q 2328 2753 2575 2939 
Q 2822 3125 2822 3475 
Q 2822 3834 2567 4026 
Q 2313 4219 1838 4219 
Q 1578 4219 1281 4162 
Q 984 4106 628 3988 
L 628 4550 
Q 988 4650 1302 4700 
Q 1616 4750 1894 4750 
Q 2613 4750 3031 4423 
Q 3450 4097 3450 3541 
Q 3450 3153 3228 2886 
Q 3006 2619 2597 2516 
z
" transform="scale(0.015625)"/>
       </defs>
       <use xlink:href="#DejaVuSans-33"/>
      </g>
     </g>
    </g>
    <g id="xtick_5">
     <g id="line2d_5">
      <g>
       <use xlink:href="#m600be56656" x="313.631405" y="256.32" style="stroke: #000000; stroke-width: 0.8"/>
      </g>
     </g>
     <g id="text_5">
      <!-- 4 -->
      <g transform="translate(308.85953 274.717656)scale(0.15 -0.15)">
       <defs>
        <path id="DejaVuSans-34" d="M 2419 4116 
L 825 1625 
L 2419 1625 
L 2419 4116 
z
M 2253 4666 
L 3047 4666 
L 3047 1625 
L 3713 1625 
L 3713 1100 
L 3047 1100 
L 3047 0 
L 2419 0 
L 2419 1100 
L 313 1100 
L 313 1709 
L 2253 4666 
z
" transform="scale(0.015625)"/>
       </defs>
       <use xlink:href="#DejaVuSans-34"/>
      </g>
     </g>
    </g>
    <g id="xtick_6">
     <g id="line2d_6">
      <g>
       <use xlink:href="#m600be56656" x="375.119008" y="256.32" style="stroke: #000000; stroke-width: 0.8"/>
      </g>
     </g>
     <g id="text_6">
      <!-- 5 -->
      <g transform="translate(370.347133 274.717656)scale(0.15 -0.15)">
       <defs>
        <path id="DejaVuSans-35" d="M 691 4666 
L 3169 4666 
L 3169 4134 
L 1269 4134 
L 1269 2991 
Q 1406 3038 1543 3061 
Q 1681 3084 1819 3084 
Q 2600 3084 3056 2656 
Q 3513 2228 3513 1497 
Q 3513 744 3044 326 
Q 2575 -91 1722 -91 
Q 1428 -91 1123 -41 
Q 819 9 494 109 
L 494 744 
Q 775 591 1075 516 
Q 1375 441 1709 441 
Q 2250 441 2565 725 
Q 2881 1009 2881 1497 
Q 2881 1984 2565 2268 
Q 2250 2553 1709 2553 
Q 1456 2553 1204 2497 
Q 953 2441 691 2322 
L 691 4666 
z
" transform="scale(0.015625)"/>
       </defs>
       <use xlink:href="#DejaVuSans-35"/>
      </g>
     </g>
    </g>
   </g>
   <g id="matplotlib.axis_2">
    <g id="ytick_1">
     <g id="line2d_7">
      <defs>
       <path id="m04d4abdb33" d="M 0 0 
L -3.5 0 
" style="stroke: #000000; stroke-width: 0.8"/>
      </defs>
      <g>
       <use xlink:href="#m04d4abdb33" x="54" y="251.08042" style="stroke: #000000; stroke-width: 0.8"/>
      </g>
     </g>
     <g id="text_7">
      <!-- 0.0 -->
      <g transform="translate(23.145312 256.779248)scale(0.15 -0.15)">
       <defs>
        <path id="DejaVuSans-2e" d="M 684 794 
L 1344 794 
L 1344 0 
L 684 0 
L 684 794 
z
" transform="scale(0.015625)"/>
       </defs>
       <use xlink:href="#DejaVuSans-30"/>
       <use xlink:href="#DejaVuSans-2e" x="63.623047"/>
       <use xlink:href="#DejaVuSans-30" x="95.410156"/>
      </g>
     </g>
    </g>
    <g id="ytick_2">
     <g id="line2d_8">
      <g>
       <use xlink:href="#m04d4abdb33" x="54" y="214.639951" style="stroke: #000000; stroke-width: 0.8"/>
      </g>
     </g>
     <g id="text_8">
      <!-- 0.2 -->
      <g transform="translate(23.145312 220.338779)scale(0.15 -0.15)">
       <use xlink:href="#DejaVuSans-30"/>
       <use xlink:href="#DejaVuSans-2e" x="63.623047"/>
       <use xlink:href="#DejaVuSans-32" x="95.410156"/>
      </g>
     </g>
    </g>
    <g id="ytick_3">
     <g id="line2d_9">
      <g>
       <use xlink:href="#m04d4abdb33" x="54" y="178.199481" style="stroke: #000000; stroke-width: 0.8"/>
      </g>
     </g>
     <g id="text_9">
      <!-- 0.4 -->
      <g transform="translate(23.145312 183.89831)scale(0.15 -0.15)">
       <use xlink:href="#DejaVuSans-30"/>
       <use xlink:href="#DejaVuSans-2e" x="63.623047"/>
       <use xlink:href="#DejaVuSans-34" x="95.410156"/>
      </g>
     </g>
    </g>
    <g id="ytick_4">
     <g id="line2d_10">
      <g>
       <use xlink:href="#m04d4abdb33" x="54" y="141.759012" style="stroke: #000000; stroke-width: 0.8"/>
      </g>
     </g>
     <g id="text_10">
      <!-- 0.6 -->
      <g transform="translate(23.145312 147.45784)scale(0.15 -0.15)">
       <defs>
        <path id="DejaVuSans-36" d="M 2113 2584 
Q 1688 2584 1439 2293 
Q 1191 2003 1191 1497 
Q 1191 994 1439 701 
Q 1688 409 2113 409 
Q 2538 409 2786 701 
Q 3034 994 3034 1497 
Q 3034 2003 2786 2293 
Q 2538 2584 2113 2584 
z
M 3366 4563 
L 3366 3988 
Q 3128 4100 2886 4159 
Q 2644 4219 2406 4219 
Q 1781 4219 1451 3797 
Q 1122 3375 1075 2522 
Q 1259 2794 1537 2939 
Q 1816 3084 2150 3084 
Q 2853 3084 3261 2657 
Q 3669 2231 3669 1497 
Q 3669 778 3244 343 
Q 2819 -91 2113 -91 
Q 1303 -91 875 529 
Q 447 1150 447 2328 
Q 447 3434 972 4092 
Q 1497 4750 2381 4750 
Q 2619 4750 2861 4703 
Q 3103 4656 3366 4563 
z
" transform="scale(0.015625)"/>
       </defs>
       <use xlink:href="#DejaVuSans-30"/>
       <use xlink:href="#DejaVuSans-2e" x="63.623047"/>
       <use xlink:href="#DejaVuSans-36" x="95.410156"/>
      </g>
     </g>
    </g>
    <g id="ytick_5">
     <g id="line2d_11">
      <g>
       <use xlink:href="#m04d4abdb33" x="54" y="105.318543" style="stroke: #000000; stroke-width: 0.8"/>
      </g>
     </g>
     <g id="text_11">
      <!-- 0.8 -->
      <g transform="translate(23.145312 111.017371)scale(0.15 -0.15)">
       <defs>
        <path id="DejaVuSans-38" d="M 2034 2216 
Q 1584 2216 1326 1975 
Q 1069 1734 1069 1313 
Q 1069 891 1326 650 
Q 1584 409 2034 409 
Q 2484 409 2743 651 
Q 3003 894 3003 1313 
Q 3003 1734 2745 1975 
Q 2488 2216 2034 2216 
z
M 1403 2484 
Q 997 2584 770 2862 
Q 544 3141 544 3541 
Q 544 4100 942 4425 
Q 1341 4750 2034 4750 
Q 2731 4750 3128 4425 
Q 3525 4100 3525 3541 
Q 3525 3141 3298 2862 
Q 3072 2584 2669 2484 
Q 3125 2378 3379 2068 
Q 3634 1759 3634 1313 
Q 3634 634 3220 271 
Q 2806 -91 2034 -91 
Q 1263 -91 848 271 
Q 434 634 434 1313 
Q 434 1759 690 2068 
Q 947 2378 1403 2484 
z
M 1172 3481 
Q 1172 3119 1398 2916 
Q 1625 2713 2034 2713 
Q 2441 2713 2670 2916 
Q 2900 3119 2900 3481 
Q 2900 3844 2670 4047 
Q 2441 4250 2034 4250 
Q 1625 4250 1398 4047 
Q 1172 3844 1172 3481 
z
" transform="scale(0.015625)"/>
       </defs>
       <use xlink:href="#DejaVuSans-30"/>
       <use xlink:href="#DejaVuSans-2e" x="63.623047"/>
       <use xlink:href="#DejaVuSans-38" x="95.410156"/>
      </g>
     </g>
    </g>
    <g id="ytick_6">
     <g id="line2d_12">
      <g>
       <use xlink:href="#m04d4abdb33" x="54" y="68.878074" style="stroke: #000000; stroke-width: 0.8"/>
      </g>
     </g>
     <g id="text_12">
      <!-- 1.0 -->
      <g transform="translate(23.145312 74.576902)scale(0.15 -0.15)">
       <use xlink:href="#DejaVuSans-31"/>
       <use xlink:href="#DejaVuSans-2e" x="63.623047"/>
       <use xlink:href="#DejaVuSans-30" x="95.410156"/>
      </g>
     </g>
    </g>
   </g>
   <g id="line2d_13">
    <defs>
     <path id="m978697f81e" d="M -3.5 3.5 
L 3.5 -3.5 
M -3.5 -3.5 
L 3.5 3.5 
" style="stroke: #1f77b4"/>
    </defs>
    <g clip-path="url(#p26f0a6aa01)">
     <use xlink:href="#m978697f81e" x="69.218182" y="68.878074" style="fill-opacity: 0; stroke: #1f77b4"/>
     <use xlink:href="#m978697f81e" x="70.755372" y="77.779212" style="fill-opacity: 0; stroke: #1f77b4"/>
     <use xlink:href="#m978697f81e" x="72.292562" y="84.511772" style="fill-opacity: 0; stroke: #1f77b4"/>
     <use xlink:href="#m978697f81e" x="73.829752" y="90.017321" style="fill-opacity: 0; stroke: #1f77b4"/>
     <use xlink:href="#m978697f81e" x="75.366942" y="96.495112" style="fill-opacity: 0; stroke: #1f77b4"/>
     <use xlink:href="#m978697f81e" x="76.904132" y="101.073144" style="fill-opacity: 0; stroke: #1f77b4"/>
     <use xlink:href="#m978697f81e" x="78.441322" y="104.215603" style="fill-opacity: 0; stroke: #1f77b4"/>
     <use xlink:href="#m978697f81e" x="79.978512" y="110.442529" style="fill-opacity: 0; stroke: #1f77b4"/>
     <use xlink:href="#m978697f81e" x="81.515702" y="112.368046" style="fill-opacity: 0; stroke: #1f77b4"/>
     <use xlink:href="#m978697f81e" x="83.052893" y="118.669592" style="fill-opacity: 0; stroke: #1f77b4"/>
     <use xlink:href="#m978697f81e" x="84.590083" y="120.865177" style="fill-opacity: 0; stroke: #1f77b4"/>
     <use xlink:href="#m978697f81e" x="86.127273" y="124.515769" style="fill-opacity: 0; stroke: #1f77b4"/>
     <use xlink:href="#m978697f81e" x="87.664463" y="126.343173" style="fill-opacity: 0; stroke: #1f77b4"/>
     <use xlink:href="#m978697f81e" x="89.201653" y="130.030529" style="fill-opacity: 0; stroke: #1f77b4"/>
     <use xlink:href="#m978697f81e" x="90.738843" y="133.894912" style="fill-opacity: 0; stroke: #1f77b4"/>
     <use xlink:href="#m978697f81e" x="92.276033" y="136.895859" style="fill-opacity: 0; stroke: #1f77b4"/>
     <use xlink:href="#m978697f81e" x="93.813223" y="139.652732" style="fill-opacity: 0; stroke: #1f77b4"/>
     <use xlink:href="#m978697f81e" x="95.350413" y="141.422219" style="fill-opacity: 0; stroke: #1f77b4"/>
     <use xlink:href="#m978697f81e" x="96.887603" y="144.556406" style="fill-opacity: 0; stroke: #1f77b4"/>
     <use xlink:href="#m978697f81e" x="98.424793" y="145.835323" style="fill-opacity: 0; stroke: #1f77b4"/>
     <use xlink:href="#m978697f81e" x="99.961983" y="147.975724" style="fill-opacity: 0; stroke: #1f77b4"/>
     <use xlink:href="#m978697f81e" x="101.499174" y="150.669919" style="fill-opacity: 0; stroke: #1f77b4"/>
     <use xlink:href="#m978697f81e" x="103.036364" y="152.547823" style="fill-opacity: 0; stroke: #1f77b4"/>
     <use xlink:href="#m978697f81e" x="104.573554" y="154.757693" style="fill-opacity: 0; stroke: #1f77b4"/>
     <use xlink:href="#m978697f81e" x="106.110744" y="157.838178" style="fill-opacity: 0; stroke: #1f77b4"/>
     <use xlink:href="#m978697f81e" x="107.647934" y="158.601313" style="fill-opacity: 0; stroke: #1f77b4"/>
     <use xlink:href="#m978697f81e" x="109.185124" y="160.010737" style="fill-opacity: 0; stroke: #1f77b4"/>
     <use xlink:href="#m978697f81e" x="110.722314" y="161.700609" style="fill-opacity: 0; stroke: #1f77b4"/>
     <use xlink:href="#m978697f81e" x="112.259504" y="162.037803" style="fill-opacity: 0; stroke: #1f77b4"/>
     <use xlink:href="#m978697f81e" x="113.796694" y="164.251809" style="fill-opacity: 0; stroke: #1f77b4"/>
     <use xlink:href="#m978697f81e" x="115.333884" y="166.339835" style="fill-opacity: 0; stroke: #1f77b4"/>
     <use xlink:href="#m978697f81e" x="116.871074" y="167.607903" style="fill-opacity: 0; stroke: #1f77b4"/>
     <use xlink:href="#m978697f81e" x="118.408264" y="169.773984" style="fill-opacity: 0; stroke: #1f77b4"/>
     <use xlink:href="#m978697f81e" x="119.945455" y="171.371206" style="fill-opacity: 0; stroke: #1f77b4"/>
     <use xlink:href="#m978697f81e" x="121.482645" y="173.649529" style="fill-opacity: 0; stroke: #1f77b4"/>
     <use xlink:href="#m978697f81e" x="123.019835" y="173.861992" style="fill-opacity: 0; stroke: #1f77b4"/>
     <use xlink:href="#m978697f81e" x="124.557025" y="175.269855" style="fill-opacity: 0; stroke: #1f77b4"/>
     <use xlink:href="#m978697f81e" x="126.094215" y="177.696402" style="fill-opacity: 0; stroke: #1f77b4"/>
     <use xlink:href="#m978697f81e" x="127.631405" y="177.88943" style="fill-opacity: 0; stroke: #1f77b4"/>
     <use xlink:href="#m978697f81e" x="129.168595" y="179.241952" style="fill-opacity: 0; stroke: #1f77b4"/>
     <use xlink:href="#m978697f81e" x="130.705785" y="179.88106" style="fill-opacity: 0; stroke: #1f77b4"/>
     <use xlink:href="#m978697f81e" x="132.242975" y="181.517153" style="fill-opacity: 0; stroke: #1f77b4"/>
     <use xlink:href="#m978697f81e" x="133.780165" y="182.071337" style="fill-opacity: 0; stroke: #1f77b4"/>
     <use xlink:href="#m978697f81e" x="135.317355" y="183.930743" style="fill-opacity: 0; stroke: #1f77b4"/>
     <use xlink:href="#m978697f81e" x="136.854545" y="184.881053" style="fill-opacity: 0; stroke: #1f77b4"/>
     <use xlink:href="#m978697f81e" x="138.391736" y="185.619913" style="fill-opacity: 0; stroke: #1f77b4"/>
     <use xlink:href="#m978697f81e" x="139.928926" y="187.458089" style="fill-opacity: 0; stroke: #1f77b4"/>
     <use xlink:href="#m978697f81e" x="141.466116" y="188.347438" style="fill-opacity: 0; stroke: #1f77b4"/>
     <use xlink:href="#m978697f81e" x="143.003306" y="189.119237" style="fill-opacity: 0; stroke: #1f77b4"/>
     <use xlink:href="#m978697f81e" x="144.540496" y="188.622891" style="fill-opacity: 0; stroke: #1f77b4"/>
     <use xlink:href="#m978697f81e" x="146.077686" y="190.432264" style="fill-opacity: 0; stroke: #1f77b4"/>
     <use xlink:href="#m978697f81e" x="147.614876" y="191.160587" style="fill-opacity: 0; stroke: #1f77b4"/>
     <use xlink:href="#m978697f81e" x="149.152066" y="193.549044" style="fill-opacity: 0; stroke: #1f77b4"/>
     <use xlink:href="#m978697f81e" x="150.689256" y="193.886472" style="fill-opacity: 0; stroke: #1f77b4"/>
     <use xlink:href="#m978697f81e" x="152.226446" y="194.636105" style="fill-opacity: 0; stroke: #1f77b4"/>
     <use xlink:href="#m978697f81e" x="153.763636" y="195.597576" style="fill-opacity: 0; stroke: #1f77b4"/>
     <use xlink:href="#m978697f81e" x="155.300826" y="195.875604" style="fill-opacity: 0; stroke: #1f77b4"/>
     <use xlink:href="#m978697f81e" x="156.838017" y="197.082556" style="fill-opacity: 0; stroke: #1f77b4"/>
     <use xlink:href="#m978697f81e" x="158.375207" y="197.859195" style="fill-opacity: 0; stroke: #1f77b4"/>
     <use xlink:href="#m978697f81e" x="159.912397" y="198.13777" style="fill-opacity: 0; stroke: #1f77b4"/>
     <use xlink:href="#m978697f81e" x="161.449587" y="200.175217" style="fill-opacity: 0; stroke: #1f77b4"/>
     <use xlink:href="#m978697f81e" x="162.986777" y="201.422679" style="fill-opacity: 0; stroke: #1f77b4"/>
     <use xlink:href="#m978697f81e" x="164.523967" y="201.388647" style="fill-opacity: 0; stroke: #1f77b4"/>
     <use xlink:href="#m978697f81e" x="166.061157" y="202.677243" style="fill-opacity: 0; stroke: #1f77b4"/>
     <use xlink:href="#m978697f81e" x="167.598347" y="202.722437" style="fill-opacity: 0; stroke: #1f77b4"/>
     <use xlink:href="#m978697f81e" x="169.135537" y="204.478109" style="fill-opacity: 0; stroke: #1f77b4"/>
     <use xlink:href="#m978697f81e" x="170.672727" y="203.821829" style="fill-opacity: 0; stroke: #1f77b4"/>
     <use xlink:href="#m978697f81e" x="172.209917" y="204.744273" style="fill-opacity: 0; stroke: #1f77b4"/>
     <use xlink:href="#m978697f81e" x="173.747107" y="205.775603" style="fill-opacity: 0; stroke: #1f77b4"/>
     <use xlink:href="#m978697f81e" x="175.284298" y="206.012263" style="fill-opacity: 0; stroke: #1f77b4"/>
     <use xlink:href="#m978697f81e" x="176.821488" y="207.01323" style="fill-opacity: 0; stroke: #1f77b4"/>
     <use xlink:href="#m978697f81e" x="178.358678" y="207.570692" style="fill-opacity: 0; stroke: #1f77b4"/>
     <use xlink:href="#m978697f81e" x="179.895868" y="208.990419" style="fill-opacity: 0; stroke: #1f77b4"/>
     <use xlink:href="#m978697f81e" x="181.433058" y="208.050023" style="fill-opacity: 0; stroke: #1f77b4"/>
     <use xlink:href="#m978697f81e" x="182.970248" y="209.973902" style="fill-opacity: 0; stroke: #1f77b4"/>
     <use xlink:href="#m978697f81e" x="184.507438" y="209.798124" style="fill-opacity: 0; stroke: #1f77b4"/>
     <use xlink:href="#m978697f81e" x="186.044628" y="209.935265" style="fill-opacity: 0; stroke: #1f77b4"/>
     <use xlink:href="#m978697f81e" x="187.581818" y="210.727202" style="fill-opacity: 0; stroke: #1f77b4"/>
     <use xlink:href="#m978697f81e" x="189.119008" y="211.343596" style="fill-opacity: 0; stroke: #1f77b4"/>
     <use xlink:href="#m978697f81e" x="190.656198" y="211.787412" style="fill-opacity: 0; stroke: #1f77b4"/>
     <use xlink:href="#m978697f81e" x="192.193388" y="212.775343" style="fill-opacity: 0; stroke: #1f77b4"/>
     <use xlink:href="#m978697f81e" x="193.730579" y="213.216505" style="fill-opacity: 0; stroke: #1f77b4"/>
     <use xlink:href="#m978697f81e" x="195.267769" y="214.716004" style="fill-opacity: 0; stroke: #1f77b4"/>
     <use xlink:href="#m978697f81e" x="196.804959" y="214.965699" style="fill-opacity: 0; stroke: #1f77b4"/>
     <use xlink:href="#m978697f81e" x="198.342149" y="214.351257" style="fill-opacity: 0; stroke: #1f77b4"/>
     <use xlink:href="#m978697f81e" x="199.879339" y="215.39929" style="fill-opacity: 0; stroke: #1f77b4"/>
     <use xlink:href="#m978697f81e" x="201.416529" y="216.867723" style="fill-opacity: 0; stroke: #1f77b4"/>
     <use xlink:href="#m978697f81e" x="202.953719" y="217.197345" style="fill-opacity: 0; stroke: #1f77b4"/>
     <use xlink:href="#m978697f81e" x="204.490909" y="217.503708" style="fill-opacity: 0; stroke: #1f77b4"/>
     <use xlink:href="#m978697f81e" x="206.028099" y="218.050633" style="fill-opacity: 0; stroke: #1f77b4"/>
     <use xlink:href="#m978697f81e" x="207.565289" y="217.865255" style="fill-opacity: 0; stroke: #1f77b4"/>
     <use xlink:href="#m978697f81e" x="209.102479" y="218.063512" style="fill-opacity: 0; stroke: #1f77b4"/>
     <use xlink:href="#m978697f81e" x="210.639669" y="219.118102" style="fill-opacity: 0; stroke: #1f77b4"/>
     <use xlink:href="#m978697f81e" x="212.17686" y="218.52731" style="fill-opacity: 0; stroke: #1f77b4"/>
     <use xlink:href="#m978697f81e" x="213.71405" y="220.159969" style="fill-opacity: 0; stroke: #1f77b4"/>
     <use xlink:href="#m978697f81e" x="215.25124" y="220.633523" style="fill-opacity: 0; stroke: #1f77b4"/>
     <use xlink:href="#m978697f81e" x="216.78843" y="220.704709" style="fill-opacity: 0; stroke: #1f77b4"/>
     <use xlink:href="#m978697f81e" x="218.32562" y="221.11863" style="fill-opacity: 0; stroke: #1f77b4"/>
     <use xlink:href="#m978697f81e" x="219.86281" y="220.76684" style="fill-opacity: 0; stroke: #1f77b4"/>
     <use xlink:href="#m978697f81e" x="221.4" y="220.62283" style="fill-opacity: 0; stroke: #1f77b4"/>
     <use xlink:href="#m978697f81e" x="222.93719" y="221.594526" style="fill-opacity: 0; stroke: #1f77b4"/>
     <use xlink:href="#m978697f81e" x="224.47438" y="223.391021" style="fill-opacity: 0; stroke: #1f77b4"/>
     <use xlink:href="#m978697f81e" x="226.01157" y="222.615084" style="fill-opacity: 0; stroke: #1f77b4"/>
     <use xlink:href="#m978697f81e" x="227.54876" y="222.926286" style="fill-opacity: 0; stroke: #1f77b4"/>
     <use xlink:href="#m978697f81e" x="229.08595" y="223.055622" style="fill-opacity: 0; stroke: #1f77b4"/>
     <use xlink:href="#m978697f81e" x="230.62314" y="224.135891" style="fill-opacity: 0; stroke: #1f77b4"/>
     <use xlink:href="#m978697f81e" x="232.160331" y="224.280057" style="fill-opacity: 0; stroke: #1f77b4"/>
     <use xlink:href="#m978697f81e" x="233.697521" y="225.422848" style="fill-opacity: 0; stroke: #1f77b4"/>
     <use xlink:href="#m978697f81e" x="235.234711" y="224.629506" style="fill-opacity: 0; stroke: #1f77b4"/>
     <use xlink:href="#m978697f81e" x="236.771901" y="225.170499" style="fill-opacity: 0; stroke: #1f77b4"/>
     <use xlink:href="#m978697f81e" x="238.309091" y="227.132937" style="fill-opacity: 0; stroke: #1f77b4"/>
     <use xlink:href="#m978697f81e" x="239.846281" y="226.900257" style="fill-opacity: 0; stroke: #1f77b4"/>
     <use xlink:href="#m978697f81e" x="241.383471" y="225.435259" style="fill-opacity: 0; stroke: #1f77b4"/>
     <use xlink:href="#m978697f81e" x="242.920661" y="226.438333" style="fill-opacity: 0; stroke: #1f77b4"/>
     <use xlink:href="#m978697f81e" x="244.457851" y="227.225587" style="fill-opacity: 0; stroke: #1f77b4"/>
     <use xlink:href="#m978697f81e" x="245.995041" y="225.869552" style="fill-opacity: 0; stroke: #1f77b4"/>
     <use xlink:href="#m978697f81e" x="247.532231" y="226.593426" style="fill-opacity: 0; stroke: #1f77b4"/>
     <use xlink:href="#m978697f81e" x="249.069421" y="228.322092" style="fill-opacity: 0; stroke: #1f77b4"/>
     <use xlink:href="#m978697f81e" x="250.606612" y="229.181546" style="fill-opacity: 0; stroke: #1f77b4"/>
     <use xlink:href="#m978697f81e" x="252.143802" y="228.482103" style="fill-opacity: 0; stroke: #1f77b4"/>
     <use xlink:href="#m978697f81e" x="253.680992" y="228.652027" style="fill-opacity: 0; stroke: #1f77b4"/>
     <use xlink:href="#m978697f81e" x="255.218182" y="228.677316" style="fill-opacity: 0; stroke: #1f77b4"/>
     <use xlink:href="#m978697f81e" x="256.755372" y="229.097013" style="fill-opacity: 0; stroke: #1f77b4"/>
     <use xlink:href="#m978697f81e" x="258.292562" y="229.339137" style="fill-opacity: 0; stroke: #1f77b4"/>
     <use xlink:href="#m978697f81e" x="259.829752" y="229.303935" style="fill-opacity: 0; stroke: #1f77b4"/>
     <use xlink:href="#m978697f81e" x="261.366942" y="228.826478" style="fill-opacity: 0; stroke: #1f77b4"/>
     <use xlink:href="#m978697f81e" x="262.904132" y="229.989016" style="fill-opacity: 0; stroke: #1f77b4"/>
     <use xlink:href="#m978697f81e" x="264.441322" y="229.857261" style="fill-opacity: 0; stroke: #1f77b4"/>
     <use xlink:href="#m978697f81e" x="265.978512" y="229.943979" style="fill-opacity: 0; stroke: #1f77b4"/>
     <use xlink:href="#m978697f81e" x="267.515702" y="231.682947" style="fill-opacity: 0; stroke: #1f77b4"/>
     <use xlink:href="#m978697f81e" x="269.052893" y="230.701807" style="fill-opacity: 0; stroke: #1f77b4"/>
     <use xlink:href="#m978697f81e" x="270.590083" y="232.740191" style="fill-opacity: 0; stroke: #1f77b4"/>
     <use xlink:href="#m978697f81e" x="272.127273" y="230.505345" style="fill-opacity: 0; stroke: #1f77b4"/>
     <use xlink:href="#m978697f81e" x="273.664463" y="233.263622" style="fill-opacity: 0; stroke: #1f77b4"/>
     <use xlink:href="#m978697f81e" x="275.201653" y="233.014083" style="fill-opacity: 0; stroke: #1f77b4"/>
     <use xlink:href="#m978697f81e" x="276.738843" y="231.706754" style="fill-opacity: 0; stroke: #1f77b4"/>
     <use xlink:href="#m978697f81e" x="278.276033" y="231.928896" style="fill-opacity: 0; stroke: #1f77b4"/>
     <use xlink:href="#m978697f81e" x="279.813223" y="232.117865" style="fill-opacity: 0; stroke: #1f77b4"/>
     <use xlink:href="#m978697f81e" x="281.350413" y="233.500048" style="fill-opacity: 0; stroke: #1f77b4"/>
     <use xlink:href="#m978697f81e" x="282.887603" y="233.260422" style="fill-opacity: 0; stroke: #1f77b4"/>
     <use xlink:href="#m978697f81e" x="284.424793" y="233.187207" style="fill-opacity: 0; stroke: #1f77b4"/>
     <use xlink:href="#m978697f81e" x="285.961983" y="233.136784" style="fill-opacity: 0; stroke: #1f77b4"/>
     <use xlink:href="#m978697f81e" x="287.499174" y="233.668567" style="fill-opacity: 0; stroke: #1f77b4"/>
     <use xlink:href="#m978697f81e" x="289.036364" y="234.318212" style="fill-opacity: 0; stroke: #1f77b4"/>
     <use xlink:href="#m978697f81e" x="290.573554" y="234.872631" style="fill-opacity: 0; stroke: #1f77b4"/>
     <use xlink:href="#m978697f81e" x="292.110744" y="234.602875" style="fill-opacity: 0; stroke: #1f77b4"/>
     <use xlink:href="#m978697f81e" x="293.647934" y="234.969105" style="fill-opacity: 0; stroke: #1f77b4"/>
     <use xlink:href="#m978697f81e" x="295.185124" y="235.641854" style="fill-opacity: 0; stroke: #1f77b4"/>
     <use xlink:href="#m978697f81e" x="296.722314" y="235.116394" style="fill-opacity: 0; stroke: #1f77b4"/>
     <use xlink:href="#m978697f81e" x="298.259504" y="234.927815" style="fill-opacity: 0; stroke: #1f77b4"/>
     <use xlink:href="#m978697f81e" x="299.796694" y="235.511348" style="fill-opacity: 0; stroke: #1f77b4"/>
     <use xlink:href="#m978697f81e" x="301.333884" y="235.861967" style="fill-opacity: 0; stroke: #1f77b4"/>
     <use xlink:href="#m978697f81e" x="302.871074" y="235.788518" style="fill-opacity: 0; stroke: #1f77b4"/>
     <use xlink:href="#m978697f81e" x="304.408264" y="235.681194" style="fill-opacity: 0; stroke: #1f77b4"/>
     <use xlink:href="#m978697f81e" x="305.945455" y="236.463296" style="fill-opacity: 0; stroke: #1f77b4"/>
     <use xlink:href="#m978697f81e" x="307.482645" y="237.147831" style="fill-opacity: 0; stroke: #1f77b4"/>
     <use xlink:href="#m978697f81e" x="309.019835" y="235.542726" style="fill-opacity: 0; stroke: #1f77b4"/>
     <use xlink:href="#m978697f81e" x="310.557025" y="236.263634" style="fill-opacity: 0; stroke: #1f77b4"/>
     <use xlink:href="#m978697f81e" x="312.094215" y="236.472585" style="fill-opacity: 0; stroke: #1f77b4"/>
     <use xlink:href="#m978697f81e" x="313.631405" y="237.331493" style="fill-opacity: 0; stroke: #1f77b4"/>
     <use xlink:href="#m978697f81e" x="315.168595" y="237.772967" style="fill-opacity: 0; stroke: #1f77b4"/>
     <use xlink:href="#m978697f81e" x="316.705785" y="237.21605" style="fill-opacity: 0; stroke: #1f77b4"/>
     <use xlink:href="#m978697f81e" x="318.242975" y="236.638606" style="fill-opacity: 0; stroke: #1f77b4"/>
     <use xlink:href="#m978697f81e" x="319.780165" y="239.243897" style="fill-opacity: 0; stroke: #1f77b4"/>
     <use xlink:href="#m978697f81e" x="321.317355" y="237.390658" style="fill-opacity: 0; stroke: #1f77b4"/>
     <use xlink:href="#m978697f81e" x="322.854545" y="238.086432" style="fill-opacity: 0; stroke: #1f77b4"/>
     <use xlink:href="#m978697f81e" x="324.391736" y="238.298427" style="fill-opacity: 0; stroke: #1f77b4"/>
     <use xlink:href="#m978697f81e" x="325.928926" y="238.847538" style="fill-opacity: 0; stroke: #1f77b4"/>
     <use xlink:href="#m978697f81e" x="327.466116" y="238.700016" style="fill-opacity: 0; stroke: #1f77b4"/>
     <use xlink:href="#m978697f81e" x="329.003306" y="238.56147" style="fill-opacity: 0; stroke: #1f77b4"/>
     <use xlink:href="#m978697f81e" x="330.540496" y="238.13506" style="fill-opacity: 0; stroke: #1f77b4"/>
     <use xlink:href="#m978697f81e" x="332.077686" y="239.572037" style="fill-opacity: 0; stroke: #1f77b4"/>
     <use xlink:href="#m978697f81e" x="333.614876" y="238.241994" style="fill-opacity: 0; stroke: #1f77b4"/>
     <use xlink:href="#m978697f81e" x="335.152066" y="238.895308" style="fill-opacity: 0; stroke: #1f77b4"/>
     <use xlink:href="#m978697f81e" x="336.689256" y="239.529185" style="fill-opacity: 0; stroke: #1f77b4"/>
     <use xlink:href="#m978697f81e" x="338.226446" y="239.966211" style="fill-opacity: 0; stroke: #1f77b4"/>
     <use xlink:href="#m978697f81e" x="339.763636" y="239.510765" style="fill-opacity: 0; stroke: #1f77b4"/>
     <use xlink:href="#m978697f81e" x="341.300826" y="238.064967" style="fill-opacity: 0; stroke: #1f77b4"/>
     <use xlink:href="#m978697f81e" x="342.838017" y="239.506003" style="fill-opacity: 0; stroke: #1f77b4"/>
     <use xlink:href="#m978697f81e" x="344.375207" y="241.14795" style="fill-opacity: 0; stroke: #1f77b4"/>
     <use xlink:href="#m978697f81e" x="345.912397" y="240.966396" style="fill-opacity: 0; stroke: #1f77b4"/>
     <use xlink:href="#m978697f81e" x="347.449587" y="240.517663" style="fill-opacity: 0; stroke: #1f77b4"/>
     <use xlink:href="#m978697f81e" x="348.986777" y="241.497009" style="fill-opacity: 0; stroke: #1f77b4"/>
     <use xlink:href="#m978697f81e" x="350.523967" y="240.672991" style="fill-opacity: 0; stroke: #1f77b4"/>
     <use xlink:href="#m978697f81e" x="352.061157" y="241.009248" style="fill-opacity: 0; stroke: #1f77b4"/>
     <use xlink:href="#m978697f81e" x="353.598347" y="240.278974" style="fill-opacity: 0; stroke: #1f77b4"/>
     <use xlink:href="#m978697f81e" x="355.135537" y="241.422389" style="fill-opacity: 0; stroke: #1f77b4"/>
     <use xlink:href="#m978697f81e" x="356.672727" y="240.638335" style="fill-opacity: 0; stroke: #1f77b4"/>
     <use xlink:href="#m978697f81e" x="358.209917" y="240.72037" style="fill-opacity: 0; stroke: #1f77b4"/>
     <use xlink:href="#m978697f81e" x="359.747107" y="240.050197" style="fill-opacity: 0; stroke: #1f77b4"/>
     <use xlink:href="#m978697f81e" x="361.284298" y="241.100572" style="fill-opacity: 0; stroke: #1f77b4"/>
     <use xlink:href="#m978697f81e" x="362.821488" y="240.291696" style="fill-opacity: 0; stroke: #1f77b4"/>
     <use xlink:href="#m978697f81e" x="364.358678" y="240.961557" style="fill-opacity: 0; stroke: #1f77b4"/>
     <use xlink:href="#m978697f81e" x="365.895868" y="241.232405" style="fill-opacity: 0; stroke: #1f77b4"/>
     <use xlink:href="#m978697f81e" x="367.433058" y="241.213282" style="fill-opacity: 0; stroke: #1f77b4"/>
     <use xlink:href="#m978697f81e" x="368.970248" y="242.374571" style="fill-opacity: 0; stroke: #1f77b4"/>
     <use xlink:href="#m978697f81e" x="370.507438" y="241.39788" style="fill-opacity: 0; stroke: #1f77b4"/>
     <use xlink:href="#m978697f81e" x="372.044628" y="241.615885" style="fill-opacity: 0; stroke: #1f77b4"/>
     <use xlink:href="#m978697f81e" x="373.581818" y="241.57998" style="fill-opacity: 0; stroke: #1f77b4"/>
    </g>
   </g>
   <g id="line2d_14">
    <path d="M 69.218182 96.821864 
L 73.829752 104.704046 
L 78.441322 112.18347 
L 83.052893 119.280716 
L 87.664463 126.015313 
L 92.276033 132.405791 
L 96.887603 138.469734 
L 101.499174 144.223826 
L 106.110744 149.683899 
L 110.722314 154.864979 
L 115.333884 159.781319 
L 119.945455 164.446448 
L 126.094215 170.297939 
L 132.242975 175.754203 
L 138.391736 180.841937 
L 144.540496 185.586032 
L 150.689256 190.009699 
L 156.838017 194.134578 
L 162.986777 197.980853 
L 169.135537 201.56734 
L 175.284298 204.911585 
L 181.433058 208.029952 
L 187.581818 210.937696 
L 195.267769 214.297767 
L 202.953719 217.37659 
L 210.639669 220.197706 
L 218.32562 222.782685 
L 226.01157 225.151294 
L 235.234711 227.733407 
L 244.457851 230.058384 
L 253.680992 232.151832 
L 262.904132 234.036807 
L 273.664463 236.000038 
L 284.424793 237.737126 
L 296.722314 239.478737 
L 309.019835 240.993028 
L 322.854545 242.461674 
L 338.226446 243.844121 
L 353.598347 245.004824 
L 370.507438 246.067756 
L 373.581818 246.24 
L 373.581818 246.24 
" clip-path="url(#p26f0a6aa01)" style="fill: none; stroke: #ff7f0e; stroke-width: 3; stroke-linecap: square"/>
   </g>
   <g id="line2d_15">
    <path d="M 69.218182 44.64 
L 70.755372 61.854193 
L 72.292562 74.083346 
L 73.829752 83.77689 
L 75.366942 91.876211 
L 76.904132 98.860548 
L 78.441322 105.012547 
L 79.978512 110.515064 
L 81.515702 115.494225 
L 83.052893 120.041228 
L 86.127273 128.096648 
L 89.201653 135.066568 
L 92.276033 141.1986 
L 95.350413 146.662445 
L 98.424793 151.580043 
L 101.499174 156.042255 
L 104.573554 160.118768 
L 107.647934 163.864301 
L 110.722314 167.322661 
L 113.796694 170.529507 
L 118.408264 174.931217 
L 123.019835 178.912102 
L 127.631405 182.534627 
L 132.242975 185.848533 
L 136.854545 188.894093 
L 141.466116 191.704377 
L 146.077686 194.306876 
L 152.226446 197.493062 
L 158.375207 200.395892 
L 164.523967 203.052322 
L 170.672727 205.49284 
L 178.358678 208.278213 
L 186.044628 210.806759 
L 193.730579 213.11208 
L 202.953719 215.622625 
L 212.17686 217.891084 
L 221.4 219.949779 
L 232.160331 222.121852 
L 242.920661 224.079545 
L 255.218182 226.090927 
L 269.052893 228.10694 
L 282.887603 229.900179 
L 298.259504 231.670699 
L 315.168595 233.389565 
L 333.614876 235.034791 
L 353.598347 236.590706 
L 373.581818 237.949787 
L 373.581818 237.949787 
" clip-path="url(#p26f0a6aa01)" style="fill: none; stroke: #2ca02c; stroke-width: 3; stroke-linecap: square"/>
   </g>
   <g id="patch_3">
    <path d="M 54 256.32 
L 54 34.56 
" style="fill: none; stroke: #000000; stroke-width: 0.8; stroke-linejoin: miter; stroke-linecap: square"/>
   </g>
   <g id="patch_4">
    <path d="M 388.8 256.32 
L 388.8 34.56 
" style="fill: none; stroke: #000000; stroke-width: 0.8; stroke-linejoin: miter; stroke-linecap: square"/>
   </g>
   <g id="patch_5">
    <path d="M 54 256.32 
L 388.8 256.32 
" style="fill: none; stroke: #000000; stroke-width: 0.8; stroke-linejoin: miter; stroke-linecap: square"/>
   </g>
   <g id="patch_6">
    <path d="M 54 34.56 
L 388.8 34.56 
" style="fill: none; stroke: #000000; stroke-width: 0.8; stroke-linejoin: miter; stroke-linecap: square"/>
   </g>
   <g id="legend_1">
    <g id="patch_7">
     <path d="M 256.059375 90.038125 
L 381.8 90.038125 
Q 383.8 90.038125 383.8 88.038125 
L 383.8 41.56 
Q 383.8 39.56 381.8 39.56 
L 256.059375 39.56 
Q 254.059375 39.56 254.059375 41.56 
L 254.059375 88.038125 
Q 254.059375 90.038125 256.059375 90.038125 
z
" style="fill: #ffffff; opacity: 0.8; stroke: #cccccc; stroke-linejoin: miter"/>
    </g>
    <g id="line2d_16">
     <g>
      <use xlink:href="#m978697f81e" x="268.059375" y="47.658438" style="fill-opacity: 0; stroke: #1f77b4"/>
     </g>
    </g>
    <g id="text_13">
     <!-- Experimental Data -->
     <g transform="translate(286.059375 51.158438)scale(0.1 -0.1)">
      <defs>
       <path id="DejaVuSans-45" d="M 628 4666 
L 3578 4666 
L 3578 4134 
L 1259 4134 
L 1259 2753 
L 3481 2753 
L 3481 2222 
L 1259 2222 
L 1259 531 
L 3634 531 
L 3634 0 
L 628 0 
L 628 4666 
z
" transform="scale(0.015625)"/>
       <path id="DejaVuSans-78" d="M 3513 3500 
L 2247 1797 
L 3578 0 
L 2900 0 
L 1881 1375 
L 863 0 
L 184 0 
L 1544 1831 
L 300 3500 
L 978 3500 
L 1906 2253 
L 2834 3500 
L 3513 3500 
z
" transform="scale(0.015625)"/>
       <path id="DejaVuSans-70" d="M 1159 525 
L 1159 -1331 
L 581 -1331 
L 581 3500 
L 1159 3500 
L 1159 2969 
Q 1341 3281 1617 3432 
Q 1894 3584 2278 3584 
Q 2916 3584 3314 3078 
Q 3713 2572 3713 1747 
Q 3713 922 3314 415 
Q 2916 -91 2278 -91 
Q 1894 -91 1617 61 
Q 1341 213 1159 525 
z
M 3116 1747 
Q 3116 2381 2855 2742 
Q 2594 3103 2138 3103 
Q 1681 3103 1420 2742 
Q 1159 2381 1159 1747 
Q 1159 1113 1420 752 
Q 1681 391 2138 391 
Q 2594 391 2855 752 
Q 3116 1113 3116 1747 
z
" transform="scale(0.015625)"/>
       <path id="DejaVuSans-65" d="M 3597 1894 
L 3597 1613 
L 953 1613 
Q 991 1019 1311 708 
Q 1631 397 2203 397 
Q 2534 397 2845 478 
Q 3156 559 3463 722 
L 3463 178 
Q 3153 47 2828 -22 
Q 2503 -91 2169 -91 
Q 1331 -91 842 396 
Q 353 884 353 1716 
Q 353 2575 817 3079 
Q 1281 3584 2069 3584 
Q 2775 3584 3186 3129 
Q 3597 2675 3597 1894 
z
M 3022 2063 
Q 3016 2534 2758 2815 
Q 2500 3097 2075 3097 
Q 1594 3097 1305 2825 
Q 1016 2553 972 2059 
L 3022 2063 
z
" transform="scale(0.015625)"/>
       <path id="DejaVuSans-72" d="M 2631 2963 
Q 2534 3019 2420 3045 
Q 2306 3072 2169 3072 
Q 1681 3072 1420 2755 
Q 1159 2438 1159 1844 
L 1159 0 
L 581 0 
L 581 3500 
L 1159 3500 
L 1159 2956 
Q 1341 3275 1631 3429 
Q 1922 3584 2338 3584 
Q 2397 3584 2469 3576 
Q 2541 3569 2628 3553 
L 2631 2963 
z
" transform="scale(0.015625)"/>
       <path id="DejaVuSans-69" d="M 603 3500 
L 1178 3500 
L 1178 0 
L 603 0 
L 603 3500 
z
M 603 4863 
L 1178 4863 
L 1178 4134 
L 603 4134 
L 603 4863 
z
" transform="scale(0.015625)"/>
       <path id="DejaVuSans-6d" d="M 3328 2828 
Q 3544 3216 3844 3400 
Q 4144 3584 4550 3584 
Q 5097 3584 5394 3201 
Q 5691 2819 5691 2113 
L 5691 0 
L 5113 0 
L 5113 2094 
Q 5113 2597 4934 2840 
Q 4756 3084 4391 3084 
Q 3944 3084 3684 2787 
Q 3425 2491 3425 1978 
L 3425 0 
L 2847 0 
L 2847 2094 
Q 2847 2600 2669 2842 
Q 2491 3084 2119 3084 
Q 1678 3084 1418 2786 
Q 1159 2488 1159 1978 
L 1159 0 
L 581 0 
L 581 3500 
L 1159 3500 
L 1159 2956 
Q 1356 3278 1631 3431 
Q 1906 3584 2284 3584 
Q 2666 3584 2933 3390 
Q 3200 3197 3328 2828 
z
" transform="scale(0.015625)"/>
       <path id="DejaVuSans-6e" d="M 3513 2113 
L 3513 0 
L 2938 0 
L 2938 2094 
Q 2938 2591 2744 2837 
Q 2550 3084 2163 3084 
Q 1697 3084 1428 2787 
Q 1159 2491 1159 1978 
L 1159 0 
L 581 0 
L 581 3500 
L 1159 3500 
L 1159 2956 
Q 1366 3272 1645 3428 
Q 1925 3584 2291 3584 
Q 2894 3584 3203 3211 
Q 3513 2838 3513 2113 
z
" transform="scale(0.015625)"/>
       <path id="DejaVuSans-74" d="M 1172 4494 
L 1172 3500 
L 2356 3500 
L 2356 3053 
L 1172 3053 
L 1172 1153 
Q 1172 725 1289 603 
Q 1406 481 1766 481 
L 2356 481 
L 2356 0 
L 1766 0 
Q 1100 0 847 248 
Q 594 497 594 1153 
L 594 3053 
L 172 3053 
L 172 3500 
L 594 3500 
L 594 4494 
L 1172 4494 
z
" transform="scale(0.015625)"/>
       <path id="DejaVuSans-61" d="M 2194 1759 
Q 1497 1759 1228 1600 
Q 959 1441 959 1056 
Q 959 750 1161 570 
Q 1363 391 1709 391 
Q 2188 391 2477 730 
Q 2766 1069 2766 1631 
L 2766 1759 
L 2194 1759 
z
M 3341 1997 
L 3341 0 
L 2766 0 
L 2766 531 
Q 2569 213 2275 61 
Q 1981 -91 1556 -91 
Q 1019 -91 701 211 
Q 384 513 384 1019 
Q 384 1609 779 1909 
Q 1175 2209 1959 2209 
L 2766 2209 
L 2766 2266 
Q 2766 2663 2505 2880 
Q 2244 3097 1772 3097 
Q 1472 3097 1187 3025 
Q 903 2953 641 2809 
L 641 3341 
Q 956 3463 1253 3523 
Q 1550 3584 1831 3584 
Q 2591 3584 2966 3190 
Q 3341 2797 3341 1997 
z
" transform="scale(0.015625)"/>
       <path id="DejaVuSans-6c" d="M 603 4863 
L 1178 4863 
L 1178 0 
L 603 0 
L 603 4863 
z
" transform="scale(0.015625)"/>
       <path id="DejaVuSans-20" transform="scale(0.015625)"/>
       <path id="DejaVuSans-44" d="M 1259 4147 
L 1259 519 
L 2022 519 
Q 2988 519 3436 956 
Q 3884 1394 3884 2338 
Q 3884 3275 3436 3711 
Q 2988 4147 2022 4147 
L 1259 4147 
z
M 628 4666 
L 1925 4666 
Q 3281 4666 3915 4102 
Q 4550 3538 4550 2338 
Q 4550 1131 3912 565 
Q 3275 0 1925 0 
L 628 0 
L 628 4666 
z
" transform="scale(0.015625)"/>
      </defs>
      <use xlink:href="#DejaVuSans-45"/>
      <use xlink:href="#DejaVuSans-78" x="63.183594"/>
      <use xlink:href="#DejaVuSans-70" x="122.363281"/>
      <use xlink:href="#DejaVuSans-65" x="185.839844"/>
      <use xlink:href="#DejaVuSans-72" x="247.363281"/>
      <use xlink:href="#DejaVuSans-69" x="288.476562"/>
      <use xlink:href="#DejaVuSans-6d" x="316.259766"/>
      <use xlink:href="#DejaVuSans-65" x="413.671875"/>
      <use xlink:href="#DejaVuSans-6e" x="475.195312"/>
      <use xlink:href="#DejaVuSans-74" x="538.574219"/>
      <use xlink:href="#DejaVuSans-61" x="577.783203"/>
      <use xlink:href="#DejaVuSans-6c" x="639.0625"/>
      <use xlink:href="#DejaVuSans-20" x="666.845703"/>
      <use xlink:href="#DejaVuSans-44" x="698.632812"/>
      <use xlink:href="#DejaVuSans-61" x="775.634766"/>
      <use xlink:href="#DejaVuSans-74" x="836.914062"/>
      <use xlink:href="#DejaVuSans-61" x="876.123047"/>
     </g>
    </g>
    <g id="line2d_17">
     <path d="M 258.059375 62.338125 
L 268.059375 62.338125 
L 278.059375 62.338125 
" style="fill: none; stroke: #ff7f0e; stroke-width: 3; stroke-linecap: square"/>
    </g>
    <g id="text_14">
     <!-- exp($-t/\tau$) -->
     <g transform="translate(286.059375 65.838125)scale(0.1 -0.1)">
      <defs>
       <path id="DejaVuSans-28" d="M 1984 4856 
Q 1566 4138 1362 3434 
Q 1159 2731 1159 2009 
Q 1159 1288 1364 580 
Q 1569 -128 1984 -844 
L 1484 -844 
Q 1016 -109 783 600 
Q 550 1309 550 2009 
Q 550 2706 781 3412 
Q 1013 4119 1484 4856 
L 1984 4856 
z
" transform="scale(0.015625)"/>
       <path id="DejaVuSans-2212" d="M 678 2272 
L 4684 2272 
L 4684 1741 
L 678 1741 
L 678 2272 
z
" transform="scale(0.015625)"/>
       <path id="DejaVuSans-Oblique-74" d="M 2706 3500 
L 2619 3053 
L 1472 3053 
L 1100 1153 
Q 1081 1047 1072 975 
Q 1063 903 1063 863 
Q 1063 663 1183 572 
Q 1303 481 1569 481 
L 2150 481 
L 2053 0 
L 1503 0 
Q 991 0 739 200 
Q 488 400 488 806 
Q 488 878 497 964 
Q 506 1050 525 1153 
L 897 3053 
L 409 3053 
L 500 3500 
L 978 3500 
L 1172 4494 
L 1747 4494 
L 1556 3500 
L 2706 3500 
z
" transform="scale(0.015625)"/>
       <path id="DejaVuSans-2f" d="M 1625 4666 
L 2156 4666 
L 531 -594 
L 0 -594 
L 1625 4666 
z
" transform="scale(0.015625)"/>
       <path id="DejaVuSans-Oblique-3c4" d="M 2103 638 
Q 2188 488 2525 488 
L 2800 488 
L 2706 0 
L 2363 0 
Q 1800 0 1600 300 
Q 1403 606 1534 1269 
L 1856 2925 
L 541 2925 
L 653 3500 
L 3881 3500 
L 3769 2925 
L 2444 2925 
L 2113 1234 
Q 2025 781 2103 638 
z
" transform="scale(0.015625)"/>
       <path id="DejaVuSans-29" d="M 513 4856 
L 1013 4856 
Q 1481 4119 1714 3412 
Q 1947 2706 1947 2009 
Q 1947 1309 1714 600 
Q 1481 -109 1013 -844 
L 513 -844 
Q 928 -128 1133 580 
Q 1338 1288 1338 2009 
Q 1338 2731 1133 3434 
Q 928 4138 513 4856 
z
" transform="scale(0.015625)"/>
      </defs>
      <use xlink:href="#DejaVuSans-65" transform="translate(0 0.125)"/>
      <use xlink:href="#DejaVuSans-78" transform="translate(61.523438 0.125)"/>
      <use xlink:href="#DejaVuSans-70" transform="translate(120.703125 0.125)"/>
      <use xlink:href="#DejaVuSans-28" transform="translate(184.179688 0.125)"/>
      <use xlink:href="#DejaVuSans-2212" transform="translate(223.193359 0.125)"/>
      <use xlink:href="#DejaVuSans-Oblique-74" transform="translate(306.982422 0.125)"/>
      <use xlink:href="#DejaVuSans-2f" transform="translate(346.191406 0.125)"/>
      <use xlink:href="#DejaVuSans-Oblique-3c4" transform="translate(379.882812 0.125)"/>
      <use xlink:href="#DejaVuSans-29" transform="translate(440.087891 0.125)"/>
     </g>
    </g>
    <g id="line2d_18">
     <path d="M 258.059375 80.438125 
L 268.059375 80.438125 
L 278.059375 80.438125 
" style="fill: none; stroke: #2ca02c; stroke-width: 3; stroke-linecap: square"/>
    </g>
    <g id="text_15">
     <!-- exp($-\sqrt{t/\tau}$) -->
     <g transform="translate(286.059375 83.938125)scale(0.1 -0.1)">
      <defs>
       <path id="STIXSizeOneSym-Regular-221a" d="M 6970 9933 
L 3373 -1888 
L 3104 -1888 
L 1626 2918 
Q 1555 3149 1465 3251 
Q 1376 3354 1229 3354 
Q 1011 3354 794 3181 
L 717 3309 
L 1766 4115 
L 1926 4115 
L 3379 -602 
L 3405 -602 
L 6605 9933 
L 6970 9933 
z
" transform="scale(0.015625)"/>
      </defs>
      <use xlink:href="#DejaVuSans-65" transform="translate(0 0.609375)"/>
      <use xlink:href="#DejaVuSans-78" transform="translate(61.523438 0.609375)"/>
      <use xlink:href="#DejaVuSans-70" transform="translate(120.703125 0.609375)"/>
      <use xlink:href="#DejaVuSans-28" transform="translate(184.179688 0.609375)"/>
      <use xlink:href="#DejaVuSans-2212" transform="translate(223.193359 0.609375)"/>
      <use xlink:href="#STIXSizeOneSym-Regular-221a" transform="translate(306.982422 9.328125)scale(0.614161)"/>
      <use xlink:href="#DejaVuSans-Oblique-74" transform="translate(384.355789 0.84375)"/>
      <use xlink:href="#DejaVuSans-2f" transform="translate(423.564774 0.84375)"/>
      <use xlink:href="#DejaVuSans-Oblique-3c4" transform="translate(457.25618 0.84375)"/>
      <use xlink:href="#DejaVuSans-29" transform="translate(529.961258 0.609375)"/>
      <path d="M 371.855789 97.5 
L 371.855789 103.75 
L 529.961258 103.75 
L 529.961258 97.5 
L 371.855789 97.5 
z
"/>
     </g>
    </g>
   </g>
  </g>
 </g>
 <defs>
  <clipPath id="p26f0a6aa01">
   <rect x="54" y="34.56" width="334.8" height="221.76"/>
  </clipPath>
 </defs>
</svg>
