<?xml version="1.0" encoding="utf-8" standalone="no"?>
<!DOCTYPE svg PUBLIC "-//W3C//DTD SVG 1.1//EN"
  "http://www.w3.org/Graphics/SVG/1.1/DTD/svg11.dtd">
<svg xmlns:xlink="http://www.w3.org/1999/xlink" width="324pt" height="216pt" viewBox="0 0 324 216" xmlns="http://www.w3.org/2000/svg" version="1.1">
 <metadata>
  <rdf:RDF xmlns:dc="http://purl.org/dc/elements/1.1/" xmlns:cc="http://creativecommons.org/ns#" xmlns:rdf="http://www.w3.org/1999/02/22-rdf-syntax-ns#">
   <cc:Work>
    <dc:type rdf:resource="http://purl.org/dc/dcmitype/StillImage"/>
    <dc:date>2022-10-03T22:55:56.269890</dc:date>
    <dc:format>image/svg+xml</dc:format>
    <dc:creator>
     <cc:Agent>
      <dc:title>Matplotlib v3.5.1, https://matplotlib.org/</dc:title>
     </cc:Agent>
    </dc:creator>
   </cc:Work>
  </rdf:RDF>
 </metadata>
 <defs>
  <style type="text/css">*{stroke-linejoin: round; stroke-linecap: butt}</style>
 </defs>
 <g id="figure_1">
  <g id="patch_1">
   <path d="M 0 216 
L 324 216 
L 324 0 
L 0 0 
z
" style="fill: #ffffff"/>
  </g>
  <g id="axes_1">
   <g id="patch_2">
    <path d="M 40.5 192.24 
L 291.6 192.24 
L 291.6 25.92 
L 40.5 25.92 
z
" style="fill: #ffffff"/>
   </g>
   <g id="matplotlib.axis_1">
    <g id="xtick_1">
     <g id="line2d_1">
      <defs>
       <path id="m5e7cdbae34" d="M 0 0 
L 0 3.5 
" style="stroke: #000000; stroke-width: 0.8"/>
      </defs>
      <g>
       <use xlink:href="#m5e7cdbae34" x="50.760744" y="192.24" style="stroke: #000000; stroke-width: 0.8"/>
      </g>
     </g>
     <g id="text_1">
      <!-- 0 -->
      <g transform="translate(45.670744 211.3975)scale(0.16 -0.16)">
       <defs>
        <path id="DejaVuSans-30" d="M 2034 4250 
Q 1547 4250 1301 3770 
Q 1056 3291 1056 2328 
Q 1056 1369 1301 889 
Q 1547 409 2034 409 
Q 2525 409 2770 889 
Q 3016 1369 3016 2328 
Q 3016 3291 2770 3770 
Q 2525 4250 2034 4250 
z
M 2034 4750 
Q 2819 4750 3233 4129 
Q 3647 3509 3647 2328 
Q 3647 1150 3233 529 
Q 2819 -91 2034 -91 
Q 1250 -91 836 529 
Q 422 1150 422 2328 
Q 422 3509 836 4129 
Q 1250 4750 2034 4750 
z
" transform="scale(0.015625)"/>
       </defs>
       <use xlink:href="#DejaVuSans-30"/>
      </g>
     </g>
    </g>
    <g id="xtick_2">
     <g id="line2d_2">
      <g>
       <use xlink:href="#m5e7cdbae34" x="142.992149" y="192.24" style="stroke: #000000; stroke-width: 0.8"/>
      </g>
     </g>
     <g id="text_2">
      <!-- 2 -->
      <g transform="translate(137.902149 211.3975)scale(0.16 -0.16)">
       <defs>
        <path id="DejaVuSans-32" d="M 1228 531 
L 3431 531 
L 3431 0 
L 469 0 
L 469 531 
Q 828 903 1448 1529 
Q 2069 2156 2228 2338 
Q 2531 2678 2651 2914 
Q 2772 3150 2772 3378 
Q 2772 3750 2511 3984 
Q 2250 4219 1831 4219 
Q 1534 4219 1204 4116 
Q 875 4013 500 3803 
L 500 4441 
Q 881 4594 1212 4672 
Q 1544 4750 1819 4750 
Q 2544 4750 2975 4387 
Q 3406 4025 3406 3419 
Q 3406 3131 3298 2873 
Q 3191 2616 2906 2266 
Q 2828 2175 2409 1742 
Q 1991 1309 1228 531 
z
" transform="scale(0.015625)"/>
       </defs>
       <use xlink:href="#DejaVuSans-32"/>
      </g>
     </g>
    </g>
    <g id="xtick_3">
     <g id="line2d_3">
      <g>
       <use xlink:href="#m5e7cdbae34" x="235.223554" y="192.24" style="stroke: #000000; stroke-width: 0.8"/>
      </g>
     </g>
     <g id="text_3">
      <!-- 4 -->
      <g transform="translate(230.133554 211.3975)scale(0.16 -0.16)">
       <defs>
        <path id="DejaVuSans-34" d="M 2419 4116 
L 825 1625 
L 2419 1625 
L 2419 4116 
z
M 2253 4666 
L 3047 4666 
L 3047 1625 
L 3713 1625 
L 3713 1100 
L 3047 1100 
L 3047 0 
L 2419 0 
L 2419 1100 
L 313 1100 
L 313 1709 
L 2253 4666 
z
" transform="scale(0.015625)"/>
       </defs>
       <use xlink:href="#DejaVuSans-34"/>
      </g>
     </g>
    </g>
   </g>
   <g id="matplotlib.axis_2">
    <g id="ytick_1">
     <g id="line2d_4">
      <defs>
       <path id="mafda96bd8c" d="M 0 0 
L -3.5 0 
" style="stroke: #000000; stroke-width: 0.8"/>
      </defs>
      <g>
       <use xlink:href="#mafda96bd8c" x="40.5" y="131.241551" style="stroke: #000000; stroke-width: 0.8"/>
      </g>
     </g>
     <g id="text_4">
      <!-- $\mathdefault{10^{-1}}$ -->
      <g transform="translate(-4.1 137.320301)scale(0.16 -0.16)">
       <defs>
        <path id="DejaVuSans-31" d="M 794 531 
L 1825 531 
L 1825 4091 
L 703 3866 
L 703 4441 
L 1819 4666 
L 2450 4666 
L 2450 531 
L 3481 531 
L 3481 0 
L 794 0 
L 794 531 
z
" transform="scale(0.015625)"/>
        <path id="DejaVuSans-2212" d="M 678 2272 
L 4684 2272 
L 4684 1741 
L 678 1741 
L 678 2272 
z
" transform="scale(0.015625)"/>
       </defs>
       <use xlink:href="#DejaVuSans-31" transform="translate(0 0.684375)"/>
       <use xlink:href="#DejaVuSans-30" transform="translate(63.623047 0.684375)"/>
       <use xlink:href="#DejaVuSans-2212" transform="translate(128.203125 38.965625)scale(0.7)"/>
       <use xlink:href="#DejaVuSans-31" transform="translate(186.855469 38.965625)scale(0.7)"/>
      </g>
     </g>
    </g>
    <g id="ytick_2">
     <g id="line2d_5">
      <g>
       <use xlink:href="#mafda96bd8c" x="40.5" y="38.501235" style="stroke: #000000; stroke-width: 0.8"/>
      </g>
     </g>
     <g id="text_5">
      <!-- $\mathdefault{10^{0}}$ -->
      <g transform="translate(5.34 44.579985)scale(0.16 -0.16)">
       <use xlink:href="#DejaVuSans-31" transform="translate(0 0.765625)"/>
       <use xlink:href="#DejaVuSans-30" transform="translate(63.623047 0.765625)"/>
       <use xlink:href="#DejaVuSans-30" transform="translate(128.203125 39.046875)scale(0.7)"/>
      </g>
     </g>
    </g>
    <g id="ytick_3">
     <g id="line2d_6">
      <defs>
       <path id="m75a5842079" d="M 0 0 
L -2 0 
" style="stroke: #000000; stroke-width: 0.6"/>
      </defs>
      <g>
       <use xlink:href="#m75a5842079" x="40.5" y="179.733491" style="stroke: #000000; stroke-width: 0.6"/>
      </g>
     </g>
    </g>
    <g id="ytick_4">
     <g id="line2d_7">
      <g>
       <use xlink:href="#m75a5842079" x="40.5" y="168.146633" style="stroke: #000000; stroke-width: 0.6"/>
      </g>
     </g>
    </g>
    <g id="ytick_5">
     <g id="line2d_8">
      <g>
       <use xlink:href="#m75a5842079" x="40.5" y="159.159167" style="stroke: #000000; stroke-width: 0.6"/>
      </g>
     </g>
    </g>
    <g id="ytick_6">
     <g id="line2d_9">
      <g>
       <use xlink:href="#m75a5842079" x="40.5" y="151.815874" style="stroke: #000000; stroke-width: 0.6"/>
      </g>
     </g>
    </g>
    <g id="ytick_7">
     <g id="line2d_10">
      <g>
       <use xlink:href="#m75a5842079" x="40.5" y="145.607207" style="stroke: #000000; stroke-width: 0.6"/>
      </g>
     </g>
    </g>
    <g id="ytick_8">
     <g id="line2d_11">
      <g>
       <use xlink:href="#m75a5842079" x="40.5" y="140.229016" style="stroke: #000000; stroke-width: 0.6"/>
      </g>
     </g>
    </g>
    <g id="ytick_9">
     <g id="line2d_12">
      <g>
       <use xlink:href="#m75a5842079" x="40.5" y="135.485115" style="stroke: #000000; stroke-width: 0.6"/>
      </g>
     </g>
    </g>
    <g id="ytick_10">
     <g id="line2d_13">
      <g>
       <use xlink:href="#m75a5842079" x="40.5" y="103.323934" style="stroke: #000000; stroke-width: 0.6"/>
      </g>
     </g>
    </g>
    <g id="ytick_11">
     <g id="line2d_14">
      <g>
       <use xlink:href="#m75a5842079" x="40.5" y="86.993175" style="stroke: #000000; stroke-width: 0.6"/>
      </g>
     </g>
    </g>
    <g id="ytick_12">
     <g id="line2d_15">
      <g>
       <use xlink:href="#m75a5842079" x="40.5" y="75.406317" style="stroke: #000000; stroke-width: 0.6"/>
      </g>
     </g>
    </g>
    <g id="ytick_13">
     <g id="line2d_16">
      <g>
       <use xlink:href="#m75a5842079" x="40.5" y="66.418852" style="stroke: #000000; stroke-width: 0.6"/>
      </g>
     </g>
    </g>
    <g id="ytick_14">
     <g id="line2d_17">
      <g>
       <use xlink:href="#m75a5842079" x="40.5" y="59.075558" style="stroke: #000000; stroke-width: 0.6"/>
      </g>
     </g>
    </g>
    <g id="ytick_15">
     <g id="line2d_18">
      <g>
       <use xlink:href="#m75a5842079" x="40.5" y="52.866891" style="stroke: #000000; stroke-width: 0.6"/>
      </g>
     </g>
    </g>
    <g id="ytick_16">
     <g id="line2d_19">
      <g>
       <use xlink:href="#m75a5842079" x="40.5" y="47.4887" style="stroke: #000000; stroke-width: 0.6"/>
      </g>
     </g>
    </g>
    <g id="ytick_17">
     <g id="line2d_20">
      <g>
       <use xlink:href="#m75a5842079" x="40.5" y="42.744799" style="stroke: #000000; stroke-width: 0.6"/>
      </g>
     </g>
    </g>
   </g>
   <g id="line2d_21">
    <defs>
     <path id="mcd7831d93f" d="M 0 2.5 
C 0.663008 2.5 1.29895 2.236584 1.767767 1.767767 
C 2.236584 1.29895 2.5 0.663008 2.5 0 
C 2.5 -0.663008 2.236584 -1.29895 1.767767 -1.767767 
C 1.29895 -2.236584 0.663008 -2.5 0 -2.5 
C -0.663008 -2.5 -1.29895 -2.236584 -1.767767 -1.767767 
C -2.236584 -1.29895 -2.5 -0.663008 -2.5 0 
C -2.5 0.663008 -2.236584 1.29895 -1.767767 1.767767 
C -1.29895 2.236584 -0.663008 2.5 0 2.5 
z
" style="stroke: #1f77b4; stroke-width: 0.8"/>
    </defs>
    <g clip-path="url(#p0a49c8f2ae)">
     <use xlink:href="#mcd7831d93f" x="51.913636" y="38.501235" style="fill-opacity: 0; stroke: #1f77b4; stroke-width: 0.8"/>
     <use xlink:href="#mcd7831d93f" x="53.066529" y="40.518557" style="fill-opacity: 0; stroke: #1f77b4; stroke-width: 0.8"/>
     <use xlink:href="#mcd7831d93f" x="54.219421" y="42.114463" style="fill-opacity: 0; stroke: #1f77b4; stroke-width: 0.8"/>
     <use xlink:href="#mcd7831d93f" x="55.372314" y="43.468212" style="fill-opacity: 0; stroke: #1f77b4; stroke-width: 0.8"/>
     <use xlink:href="#mcd7831d93f" x="56.525207" y="45.121572" style="fill-opacity: 0; stroke: #1f77b4; stroke-width: 0.8"/>
     <use xlink:href="#mcd7831d93f" x="57.678099" y="46.332379" style="fill-opacity: 0; stroke: #1f77b4; stroke-width: 0.8"/>
     <use xlink:href="#mcd7831d93f" x="58.830992" y="47.185085" style="fill-opacity: 0; stroke: #1f77b4; stroke-width: 0.8"/>
     <use xlink:href="#mcd7831d93f" x="59.983884" y="48.930033" style="fill-opacity: 0; stroke: #1f77b4; stroke-width: 0.8"/>
     <use xlink:href="#mcd7831d93f" x="61.136777" y="49.485283" style="fill-opacity: 0; stroke: #1f77b4; stroke-width: 0.8"/>
     <use xlink:href="#mcd7831d93f" x="62.289669" y="51.357868" style="fill-opacity: 0; stroke: #1f77b4; stroke-width: 0.8"/>
     <use xlink:href="#mcd7831d93f" x="63.442562" y="52.031318" style="fill-opacity: 0; stroke: #1f77b4; stroke-width: 0.8"/>
     <use xlink:href="#mcd7831d93f" x="64.595455" y="53.176605" style="fill-opacity: 0; stroke: #1f77b4; stroke-width: 0.8"/>
     <use xlink:href="#mcd7831d93f" x="65.748347" y="53.762378" style="fill-opacity: 0; stroke: #1f77b4; stroke-width: 0.8"/>
     <use xlink:href="#mcd7831d93f" x="66.90124" y="54.970947" style="fill-opacity: 0; stroke: #1f77b4; stroke-width: 0.8"/>
     <use xlink:href="#mcd7831d93f" x="68.054132" y="56.277704" style="fill-opacity: 0; stroke: #1f77b4; stroke-width: 0.8"/>
     <use xlink:href="#mcd7831d93f" x="69.207025" y="57.322565" style="fill-opacity: 0; stroke: #1f77b4; stroke-width: 0.8"/>
     <use xlink:href="#mcd7831d93f" x="70.359917" y="58.306935" style="fill-opacity: 0; stroke: #1f77b4; stroke-width: 0.8"/>
     <use xlink:href="#mcd7831d93f" x="71.51281" y="58.951666" style="fill-opacity: 0; stroke: #1f77b4; stroke-width: 0.8"/>
     <use xlink:href="#mcd7831d93f" x="72.665702" y="60.1196" style="fill-opacity: 0; stroke: #1f77b4; stroke-width: 0.8"/>
     <use xlink:href="#mcd7831d93f" x="73.818595" y="60.606083" style="fill-opacity: 0; stroke: #1f77b4; stroke-width: 0.8"/>
     <use xlink:href="#mcd7831d93f" x="74.971488" y="61.433644" style="fill-opacity: 0; stroke: #1f77b4; stroke-width: 0.8"/>
     <use xlink:href="#mcd7831d93f" x="76.12438" y="62.500094" style="fill-opacity: 0; stroke: #1f77b4; stroke-width: 0.8"/>
     <use xlink:href="#mcd7831d93f" x="77.277273" y="63.260491" style="fill-opacity: 0; stroke: #1f77b4; stroke-width: 0.8"/>
     <use xlink:href="#mcd7831d93f" x="78.430165" y="64.174091" style="fill-opacity: 0; stroke: #1f77b4; stroke-width: 0.8"/>
     <use xlink:href="#mcd7831d93f" x="79.583058" y="65.483219" style="fill-opacity: 0; stroke: #1f77b4; stroke-width: 0.8"/>
     <use xlink:href="#mcd7831d93f" x="80.73595" y="65.814216" style="fill-opacity: 0; stroke: #1f77b4; stroke-width: 0.8"/>
     <use xlink:href="#mcd7831d93f" x="81.888843" y="66.432776" style="fill-opacity: 0; stroke: #1f77b4; stroke-width: 0.8"/>
     <use xlink:href="#mcd7831d93f" x="83.041736" y="67.187162" style="fill-opacity: 0; stroke: #1f77b4; stroke-width: 0.8"/>
     <use xlink:href="#mcd7831d93f" x="84.194628" y="67.339397" style="fill-opacity: 0; stroke: #1f77b4; stroke-width: 0.8"/>
     <use xlink:href="#mcd7831d93f" x="85.347521" y="68.353518" style="fill-opacity: 0; stroke: #1f77b4; stroke-width: 0.8"/>
     <use xlink:href="#mcd7831d93f" x="86.500413" y="69.333913" style="fill-opacity: 0; stroke: #1f77b4; stroke-width: 0.8"/>
     <use xlink:href="#mcd7831d93f" x="87.653306" y="69.941172" style="fill-opacity: 0; stroke: #1f77b4; stroke-width: 0.8"/>
     <use xlink:href="#mcd7831d93f" x="88.806198" y="71.000135" style="fill-opacity: 0; stroke: #1f77b4; stroke-width: 0.8"/>
     <use xlink:href="#mcd7831d93f" x="89.959091" y="71.799222" style="fill-opacity: 0; stroke: #1f77b4; stroke-width: 0.8"/>
     <use xlink:href="#mcd7831d93f" x="91.111983" y="72.967218" style="fill-opacity: 0; stroke: #1f77b4; stroke-width: 0.8"/>
     <use xlink:href="#mcd7831d93f" x="92.264876" y="73.077886" style="fill-opacity: 0; stroke: #1f77b4; stroke-width: 0.8"/>
     <use xlink:href="#mcd7831d93f" x="93.417769" y="73.818994" style="fill-opacity: 0; stroke: #1f77b4; stroke-width: 0.8"/>
     <use xlink:href="#mcd7831d93f" x="94.570661" y="75.129252" style="fill-opacity: 0; stroke: #1f77b4; stroke-width: 0.8"/>
     <use xlink:href="#mcd7831d93f" x="95.723554" y="75.235335" style="fill-opacity: 0; stroke: #1f77b4; stroke-width: 0.8"/>
     <use xlink:href="#mcd7831d93f" x="96.876446" y="75.986583" style="fill-opacity: 0; stroke: #1f77b4; stroke-width: 0.8"/>
     <use xlink:href="#mcd7831d93f" x="98.029339" y="76.346506" style="fill-opacity: 0; stroke: #1f77b4; stroke-width: 0.8"/>
     <use xlink:href="#mcd7831d93f" x="99.182231" y="77.282823" style="fill-opacity: 0; stroke: #1f77b4; stroke-width: 0.8"/>
     <use xlink:href="#mcd7831d93f" x="100.335124" y="77.604977" style="fill-opacity: 0; stroke: #1f77b4; stroke-width: 0.8"/>
     <use xlink:href="#mcd7831d93f" x="101.488017" y="78.705093" style="fill-opacity: 0; stroke: #1f77b4; stroke-width: 0.8"/>
     <use xlink:href="#mcd7831d93f" x="102.640909" y="79.279163" style="fill-opacity: 0; stroke: #1f77b4; stroke-width: 0.8"/>
     <use xlink:href="#mcd7831d93f" x="103.793802" y="79.731224" style="fill-opacity: 0; stroke: #1f77b4; stroke-width: 0.8"/>
     <use xlink:href="#mcd7831d93f" x="104.946694" y="80.878401" style="fill-opacity: 0; stroke: #1f77b4; stroke-width: 0.8"/>
     <use xlink:href="#mcd7831d93f" x="106.099587" y="81.445383" style="fill-opacity: 0; stroke: #1f77b4; stroke-width: 0.8"/>
     <use xlink:href="#mcd7831d93f" x="107.252479" y="81.943976" style="fill-opacity: 0; stroke: #1f77b4; stroke-width: 0.8"/>
     <use xlink:href="#mcd7831d93f" x="108.405372" y="81.622622" style="fill-opacity: 0; stroke: #1f77b4; stroke-width: 0.8"/>
     <use xlink:href="#mcd7831d93f" x="109.558264" y="82.806656" style="fill-opacity: 0; stroke: #1f77b4; stroke-width: 0.8"/>
     <use xlink:href="#mcd7831d93f" x="110.711157" y="83.293265" style="fill-opacity: 0; stroke: #1f77b4; stroke-width: 0.8"/>
     <use xlink:href="#mcd7831d93f" x="111.86405" y="84.9316" style="fill-opacity: 0; stroke: #1f77b4; stroke-width: 0.8"/>
     <use xlink:href="#mcd7831d93f" x="113.016942" y="85.168523" style="fill-opacity: 0; stroke: #1f77b4; stroke-width: 0.8"/>
     <use xlink:href="#mcd7831d93f" x="114.169835" y="85.699912" style="fill-opacity: 0; stroke: #1f77b4; stroke-width: 0.8"/>
     <use xlink:href="#mcd7831d93f" x="115.322727" y="86.391893" style="fill-opacity: 0; stroke: #1f77b4; stroke-width: 0.8"/>
     <use xlink:href="#mcd7831d93f" x="116.47562" y="86.59423" style="fill-opacity: 0; stroke: #1f77b4; stroke-width: 0.8"/>
     <use xlink:href="#mcd7831d93f" x="117.628512" y="87.484572" style="fill-opacity: 0; stroke: #1f77b4; stroke-width: 0.8"/>
     <use xlink:href="#mcd7831d93f" x="118.781405" y="88.068067" style="fill-opacity: 0; stroke: #1f77b4; stroke-width: 0.8"/>
     <use xlink:href="#mcd7831d93f" x="119.934298" y="88.279441" style="fill-opacity: 0; stroke: #1f77b4; stroke-width: 0.8"/>
     <use xlink:href="#mcd7831d93f" x="121.08719" y="89.860061" style="fill-opacity: 0; stroke: #1f77b4; stroke-width: 0.8"/>
     <use xlink:href="#mcd7831d93f" x="122.240083" y="90.859357" style="fill-opacity: 0; stroke: #1f77b4; stroke-width: 0.8"/>
     <use xlink:href="#mcd7831d93f" x="123.392975" y="90.831764" style="fill-opacity: 0; stroke: #1f77b4; stroke-width: 0.8"/>
     <use xlink:href="#mcd7831d93f" x="124.545868" y="91.889989" style="fill-opacity: 0; stroke: #1f77b4; stroke-width: 0.8"/>
     <use xlink:href="#mcd7831d93f" x="125.69876" y="91.927612" style="fill-opacity: 0; stroke: #1f77b4; stroke-width: 0.8"/>
     <use xlink:href="#mcd7831d93f" x="126.851653" y="93.417089" style="fill-opacity: 0; stroke: #1f77b4; stroke-width: 0.8"/>
     <use xlink:href="#mcd7831d93f" x="128.004545" y="92.853848" style="fill-opacity: 0; stroke: #1f77b4; stroke-width: 0.8"/>
     <use xlink:href="#mcd7831d93f" x="129.157438" y="93.647784" style="fill-opacity: 0; stroke: #1f77b4; stroke-width: 0.8"/>
     <use xlink:href="#mcd7831d93f" x="130.310331" y="94.55437" style="fill-opacity: 0; stroke: #1f77b4; stroke-width: 0.8"/>
     <use xlink:href="#mcd7831d93f" x="131.463223" y="94.765316" style="fill-opacity: 0; stroke: #1f77b4; stroke-width: 0.8"/>
     <use xlink:href="#mcd7831d93f" x="132.616116" y="95.669946" style="fill-opacity: 0; stroke: #1f77b4; stroke-width: 0.8"/>
     <use xlink:href="#mcd7831d93f" x="133.769008" y="96.182707" style="fill-opacity: 0; stroke: #1f77b4; stroke-width: 0.8"/>
     <use xlink:href="#mcd7831d93f" x="134.921901" y="97.518856" style="fill-opacity: 0; stroke: #1f77b4; stroke-width: 0.8"/>
     <use xlink:href="#mcd7831d93f" x="136.074793" y="96.628881" style="fill-opacity: 0; stroke: #1f77b4; stroke-width: 0.8"/>
     <use xlink:href="#mcd7831d93f" x="137.227686" y="98.471136" style="fill-opacity: 0; stroke: #1f77b4; stroke-width: 0.8"/>
     <use xlink:href="#mcd7831d93f" x="138.380579" y="98.299274" style="fill-opacity: 0; stroke: #1f77b4; stroke-width: 0.8"/>
     <use xlink:href="#mcd7831d93f" x="139.533471" y="98.433297" style="fill-opacity: 0; stroke: #1f77b4; stroke-width: 0.8"/>
     <use xlink:href="#mcd7831d93f" x="140.686364" y="99.216075" style="fill-opacity: 0; stroke: #1f77b4; stroke-width: 0.8"/>
     <use xlink:href="#mcd7831d93f" x="141.839256" y="99.836045" style="fill-opacity: 0; stroke: #1f77b4; stroke-width: 0.8"/>
     <use xlink:href="#mcd7831d93f" x="142.992149" y="100.288421" style="fill-opacity: 0; stroke: #1f77b4; stroke-width: 0.8"/>
     <use xlink:href="#mcd7831d93f" x="144.145041" y="101.314031" style="fill-opacity: 0; stroke: #1f77b4; stroke-width: 0.8"/>
     <use xlink:href="#mcd7831d93f" x="145.297934" y="101.780591" style="fill-opacity: 0; stroke: #1f77b4; stroke-width: 0.8"/>
     <use xlink:href="#mcd7831d93f" x="146.450826" y="103.408081" style="fill-opacity: 0; stroke: #1f77b4; stroke-width: 0.8"/>
     <use xlink:href="#mcd7831d93f" x="147.603719" y="103.685593" style="fill-opacity: 0; stroke: #1f77b4; stroke-width: 0.8"/>
     <use xlink:href="#mcd7831d93f" x="148.756612" y="103.006106" style="fill-opacity: 0; stroke: #1f77b4; stroke-width: 0.8"/>
     <use xlink:href="#mcd7831d93f" x="149.909504" y="104.172077" style="fill-opacity: 0; stroke: #1f77b4; stroke-width: 0.8"/>
     <use xlink:href="#mcd7831d93f" x="151.062397" y="105.864707" style="fill-opacity: 0; stroke: #1f77b4; stroke-width: 0.8"/>
     <use xlink:href="#mcd7831d93f" x="152.215289" y="106.254634" style="fill-opacity: 0; stroke: #1f77b4; stroke-width: 0.8"/>
     <use xlink:href="#mcd7831d93f" x="153.368182" y="106.620462" style="fill-opacity: 0; stroke: #1f77b4; stroke-width: 0.8"/>
     <use xlink:href="#mcd7831d93f" x="154.521074" y="107.281923" style="fill-opacity: 0; stroke: #1f77b4; stroke-width: 0.8"/>
     <use xlink:href="#mcd7831d93f" x="155.673967" y="107.056504" style="fill-opacity: 0; stroke: #1f77b4; stroke-width: 0.8"/>
     <use xlink:href="#mcd7831d93f" x="156.82686" y="107.29763" style="fill-opacity: 0; stroke: #1f77b4; stroke-width: 0.8"/>
     <use xlink:href="#mcd7831d93f" x="157.979752" y="108.605095" style="fill-opacity: 0; stroke: #1f77b4; stroke-width: 0.8"/>
     <use xlink:href="#mcd7831d93f" x="159.132645" y="107.867419" style="fill-opacity: 0; stroke: #1f77b4; stroke-width: 0.8"/>
     <use xlink:href="#mcd7831d93f" x="160.285537" y="109.939855" style="fill-opacity: 0; stroke: #1f77b4; stroke-width: 0.8"/>
     <use xlink:href="#mcd7831d93f" x="161.43843" y="110.561474" style="fill-opacity: 0; stroke: #1f77b4; stroke-width: 0.8"/>
     <use xlink:href="#mcd7831d93f" x="162.591322" y="110.655752" style="fill-opacity: 0; stroke: #1f77b4; stroke-width: 0.8"/>
     <use xlink:href="#mcd7831d93f" x="163.744215" y="111.208363" style="fill-opacity: 0; stroke: #1f77b4; stroke-width: 0.8"/>
     <use xlink:href="#mcd7831d93f" x="164.897107" y="110.738219" style="fill-opacity: 0; stroke: #1f77b4; stroke-width: 0.8"/>
     <use xlink:href="#mcd7831d93f" x="166.05" y="110.547331" style="fill-opacity: 0; stroke: #1f77b4; stroke-width: 0.8"/>
     <use xlink:href="#mcd7831d93f" x="167.202893" y="111.853229" style="fill-opacity: 0; stroke: #1f77b4; stroke-width: 0.8"/>
     <use xlink:href="#mcd7831d93f" x="168.355785" y="114.385111" style="fill-opacity: 0; stroke: #1f77b4; stroke-width: 0.8"/>
     <use xlink:href="#mcd7831d93f" x="169.508678" y="113.271969" style="fill-opacity: 0; stroke: #1f77b4; stroke-width: 0.8"/>
     <use xlink:href="#mcd7831d93f" x="170.66157" y="113.714725" style="fill-opacity: 0; stroke: #1f77b4; stroke-width: 0.8"/>
     <use xlink:href="#mcd7831d93f" x="171.814463" y="113.900175" style="fill-opacity: 0; stroke: #1f77b4; stroke-width: 0.8"/>
     <use xlink:href="#mcd7831d93f" x="172.967355" y="115.483429" style="fill-opacity: 0; stroke: #1f77b4; stroke-width: 0.8"/>
     <use xlink:href="#mcd7831d93f" x="174.120248" y="115.699507" style="fill-opacity: 0; stroke: #1f77b4; stroke-width: 0.8"/>
     <use xlink:href="#mcd7831d93f" x="175.27314" y="117.454628" style="fill-opacity: 0; stroke: #1f77b4; stroke-width: 0.8"/>
     <use xlink:href="#mcd7831d93f" x="176.426033" y="116.228125" style="fill-opacity: 0; stroke: #1f77b4; stroke-width: 0.8"/>
     <use xlink:href="#mcd7831d93f" x="177.578926" y="117.060432" style="fill-opacity: 0; stroke: #1f77b4; stroke-width: 0.8"/>
     <use xlink:href="#mcd7831d93f" x="178.731818" y="120.232726" style="fill-opacity: 0; stroke: #1f77b4; stroke-width: 0.8"/>
     <use xlink:href="#mcd7831d93f" x="179.884711" y="119.843278" style="fill-opacity: 0; stroke: #1f77b4; stroke-width: 0.8"/>
     <use xlink:href="#mcd7831d93f" x="181.037603" y="117.474115" style="fill-opacity: 0; stroke: #1f77b4; stroke-width: 0.8"/>
     <use xlink:href="#mcd7831d93f" x="182.190496" y="119.081114" style="fill-opacity: 0; stroke: #1f77b4; stroke-width: 0.8"/>
     <use xlink:href="#mcd7831d93f" x="183.343388" y="120.388855" style="fill-opacity: 0; stroke: #1f77b4; stroke-width: 0.8"/>
     <use xlink:href="#mcd7831d93f" x="184.496281" y="118.162029" style="fill-opacity: 0; stroke: #1f77b4; stroke-width: 0.8"/>
     <use xlink:href="#mcd7831d93f" x="185.649174" y="119.335409" style="fill-opacity: 0; stroke: #1f77b4; stroke-width: 0.8"/>
     <use xlink:href="#mcd7831d93f" x="186.802066" y="122.284098" style="fill-opacity: 0; stroke: #1f77b4; stroke-width: 0.8"/>
     <use xlink:href="#mcd7831d93f" x="187.954959" y="123.834584" style="fill-opacity: 0; stroke: #1f77b4; stroke-width: 0.8"/>
     <use xlink:href="#mcd7831d93f" x="189.107851" y="122.568278" style="fill-opacity: 0; stroke: #1f77b4; stroke-width: 0.8"/>
     <use xlink:href="#mcd7831d93f" x="190.260744" y="122.872275" style="fill-opacity: 0; stroke: #1f77b4; stroke-width: 0.8"/>
     <use xlink:href="#mcd7831d93f" x="191.413636" y="122.917715" style="fill-opacity: 0; stroke: #1f77b4; stroke-width: 0.8"/>
     <use xlink:href="#mcd7831d93f" x="192.566529" y="123.67941" style="fill-opacity: 0; stroke: #1f77b4; stroke-width: 0.8"/>
     <use xlink:href="#mcd7831d93f" x="193.719421" y="124.125475" style="fill-opacity: 0; stroke: #1f77b4; stroke-width: 0.8"/>
     <use xlink:href="#mcd7831d93f" x="194.872314" y="124.060314" style="fill-opacity: 0; stroke: #1f77b4; stroke-width: 0.8"/>
     <use xlink:href="#mcd7831d93f" x="196.025207" y="123.186777" style="fill-opacity: 0; stroke: #1f77b4; stroke-width: 0.8"/>
     <use xlink:href="#mcd7831d93f" x="197.178099" y="125.347763" style="fill-opacity: 0; stroke: #1f77b4; stroke-width: 0.8"/>
     <use xlink:href="#mcd7831d93f" x="198.330992" y="125.096942" style="fill-opacity: 0; stroke: #1f77b4; stroke-width: 0.8"/>
     <use xlink:href="#mcd7831d93f" x="199.483884" y="125.26185" style="fill-opacity: 0; stroke: #1f77b4; stroke-width: 0.8"/>
     <use xlink:href="#mcd7831d93f" x="200.636777" y="128.719832" style="fill-opacity: 0; stroke: #1f77b4; stroke-width: 0.8"/>
     <use xlink:href="#mcd7831d93f" x="201.789669" y="126.732455" style="fill-opacity: 0; stroke: #1f77b4; stroke-width: 0.8"/>
     <use xlink:href="#mcd7831d93f" x="202.942562" y="130.977168" style="fill-opacity: 0; stroke: #1f77b4; stroke-width: 0.8"/>
     <use xlink:href="#mcd7831d93f" x="204.095455" y="126.346024" style="fill-opacity: 0; stroke: #1f77b4; stroke-width: 0.8"/>
     <use xlink:href="#mcd7831d93f" x="205.248347" y="132.143386" style="fill-opacity: 0; stroke: #1f77b4; stroke-width: 0.8"/>
     <use xlink:href="#mcd7831d93f" x="206.40124" y="131.583193" style="fill-opacity: 0; stroke: #1f77b4; stroke-width: 0.8"/>
     <use xlink:href="#mcd7831d93f" x="207.554132" y="128.769294" style="fill-opacity: 0; stroke: #1f77b4; stroke-width: 0.8"/>
     <use xlink:href="#mcd7831d93f" x="208.707025" y="129.233782" style="fill-opacity: 0; stroke: #1f77b4; stroke-width: 0.8"/>
     <use xlink:href="#mcd7831d93f" x="209.859917" y="129.633166" style="fill-opacity: 0; stroke: #1f77b4; stroke-width: 0.8"/>
     <use xlink:href="#mcd7831d93f" x="211.01281" y="132.681429" style="fill-opacity: 0; stroke: #1f77b4; stroke-width: 0.8"/>
     <use xlink:href="#mcd7831d93f" x="212.165702" y="132.136153" style="fill-opacity: 0; stroke: #1f77b4; stroke-width: 0.8"/>
     <use xlink:href="#mcd7831d93f" x="213.318595" y="131.971012" style="fill-opacity: 0; stroke: #1f77b4; stroke-width: 0.8"/>
     <use xlink:href="#mcd7831d93f" x="214.471488" y="131.857673" style="fill-opacity: 0; stroke: #1f77b4; stroke-width: 0.8"/>
     <use xlink:href="#mcd7831d93f" x="215.62438" y="133.069368" style="fill-opacity: 0; stroke: #1f77b4; stroke-width: 0.8"/>
     <use xlink:href="#mcd7831d93f" x="216.777273" y="134.600859" style="fill-opacity: 0; stroke: #1f77b4; stroke-width: 0.8"/>
     <use xlink:href="#mcd7831d93f" x="217.930165" y="135.955558" style="fill-opacity: 0; stroke: #1f77b4; stroke-width: 0.8"/>
     <use xlink:href="#mcd7831d93f" x="219.083058" y="135.290729" style="fill-opacity: 0; stroke: #1f77b4; stroke-width: 0.8"/>
     <use xlink:href="#mcd7831d93f" x="220.23595" y="136.196015" style="fill-opacity: 0; stroke: #1f77b4; stroke-width: 0.8"/>
     <use xlink:href="#mcd7831d93f" x="221.388843" y="137.91394" style="fill-opacity: 0; stroke: #1f77b4; stroke-width: 0.8"/>
     <use xlink:href="#mcd7831d93f" x="222.541736" y="136.565914" style="fill-opacity: 0; stroke: #1f77b4; stroke-width: 0.8"/>
     <use xlink:href="#mcd7831d93f" x="223.694628" y="136.092926" style="fill-opacity: 0; stroke: #1f77b4; stroke-width: 0.8"/>
     <use xlink:href="#mcd7831d93f" x="224.847521" y="137.574901" style="fill-opacity: 0; stroke: #1f77b4; stroke-width: 0.8"/>
     <use xlink:href="#mcd7831d93f" x="226.000413" y="138.492309" style="fill-opacity: 0; stroke: #1f77b4; stroke-width: 0.8"/>
     <use xlink:href="#mcd7831d93f" x="227.153306" y="138.29839" style="fill-opacity: 0; stroke: #1f77b4; stroke-width: 0.8"/>
     <use xlink:href="#mcd7831d93f" x="228.306198" y="138.0167" style="fill-opacity: 0; stroke: #1f77b4; stroke-width: 0.8"/>
     <use xlink:href="#mcd7831d93f" x="229.459091" y="140.116061" style="fill-opacity: 0; stroke: #1f77b4; stroke-width: 0.8"/>
     <use xlink:href="#mcd7831d93f" x="230.611983" y="142.047851" style="fill-opacity: 0; stroke: #1f77b4; stroke-width: 0.8"/>
     <use xlink:href="#mcd7831d93f" x="231.764876" y="137.656156" style="fill-opacity: 0; stroke: #1f77b4; stroke-width: 0.8"/>
     <use xlink:href="#mcd7831d93f" x="232.917769" y="139.569626" style="fill-opacity: 0; stroke: #1f77b4; stroke-width: 0.8"/>
     <use xlink:href="#mcd7831d93f" x="234.070661" y="140.141663" style="fill-opacity: 0; stroke: #1f77b4; stroke-width: 0.8"/>
     <use xlink:href="#mcd7831d93f" x="235.223554" y="142.582314" style="fill-opacity: 0; stroke: #1f77b4; stroke-width: 0.8"/>
     <use xlink:href="#mcd7831d93f" x="236.376446" y="143.896803" style="fill-opacity: 0; stroke: #1f77b4; stroke-width: 0.8"/>
     <use xlink:href="#mcd7831d93f" x="237.529339" y="142.245545" style="fill-opacity: 0; stroke: #1f77b4; stroke-width: 0.8"/>
     <use xlink:href="#mcd7831d93f" x="238.682231" y="140.602036" style="fill-opacity: 0; stroke: #1f77b4; stroke-width: 0.8"/>
     <use xlink:href="#mcd7831d93f" x="239.835124" y="148.614579" style="fill-opacity: 0; stroke: #1f77b4; stroke-width: 0.8"/>
     <use xlink:href="#mcd7831d93f" x="240.988017" y="142.756008" style="fill-opacity: 0; stroke: #1f77b4; stroke-width: 0.8"/>
     <use xlink:href="#mcd7831d93f" x="242.140909" y="144.856897" style="fill-opacity: 0; stroke: #1f77b4; stroke-width: 0.8"/>
     <use xlink:href="#mcd7831d93f" x="243.293802" y="145.519424" style="fill-opacity: 0; stroke: #1f77b4; stroke-width: 0.8"/>
     <use xlink:href="#mcd7831d93f" x="244.446694" y="147.287961" style="fill-opacity: 0; stroke: #1f77b4; stroke-width: 0.8"/>
     <use xlink:href="#mcd7831d93f" x="245.599587" y="146.805151" style="fill-opacity: 0; stroke: #1f77b4; stroke-width: 0.8"/>
     <use xlink:href="#mcd7831d93f" x="246.752479" y="146.356929" style="fill-opacity: 0; stroke: #1f77b4; stroke-width: 0.8"/>
     <use xlink:href="#mcd7831d93f" x="247.905372" y="145.007908" style="fill-opacity: 0; stroke: #1f77b4; stroke-width: 0.8"/>
     <use xlink:href="#mcd7831d93f" x="249.058264" y="149.746922" style="fill-opacity: 0; stroke: #1f77b4; stroke-width: 0.8"/>
     <use xlink:href="#mcd7831d93f" x="250.211157" y="145.341992" style="fill-opacity: 0; stroke: #1f77b4; stroke-width: 0.8"/>
     <use xlink:href="#mcd7831d93f" x="251.36405" y="147.445549" style="fill-opacity: 0; stroke: #1f77b4; stroke-width: 0.8"/>
     <use xlink:href="#mcd7831d93f" x="252.516942" y="149.597229" style="fill-opacity: 0; stroke: #1f77b4; stroke-width: 0.8"/>
     <use xlink:href="#mcd7831d93f" x="253.669835" y="151.150614" style="fill-opacity: 0; stroke: #1f77b4; stroke-width: 0.8"/>
     <use xlink:href="#mcd7831d93f" x="254.822727" y="149.533052" style="fill-opacity: 0; stroke: #1f77b4; stroke-width: 0.8"/>
     <use xlink:href="#mcd7831d93f" x="255.97562" y="144.790419" style="fill-opacity: 0; stroke: #1f77b4; stroke-width: 0.8"/>
     <use xlink:href="#mcd7831d93f" x="257.128512" y="149.51648" style="fill-opacity: 0; stroke: #1f77b4; stroke-width: 0.8"/>
     <use xlink:href="#mcd7831d93f" x="258.281405" y="155.67832" style="fill-opacity: 0; stroke: #1f77b4; stroke-width: 0.8"/>
     <use xlink:href="#mcd7831d93f" x="259.434298" y="154.948758" style="fill-opacity: 0; stroke: #1f77b4; stroke-width: 0.8"/>
     <use xlink:href="#mcd7831d93f" x="260.58719" y="153.200296" style="fill-opacity: 0; stroke: #1f77b4; stroke-width: 0.8"/>
     <use xlink:href="#mcd7831d93f" x="261.740083" y="157.119237" style="fill-opacity: 0; stroke: #1f77b4; stroke-width: 0.8"/>
     <use xlink:href="#mcd7831d93f" x="262.892975" y="153.79697" style="fill-opacity: 0; stroke: #1f77b4; stroke-width: 0.8"/>
     <use xlink:href="#mcd7831d93f" x="264.045868" y="155.119768" style="fill-opacity: 0; stroke: #1f77b4; stroke-width: 0.8"/>
     <use xlink:href="#mcd7831d93f" x="265.19876" y="152.300285" style="fill-opacity: 0; stroke: #1f77b4; stroke-width: 0.8"/>
     <use xlink:href="#mcd7831d93f" x="266.351653" y="156.806844" style="fill-opacity: 0; stroke: #1f77b4; stroke-width: 0.8"/>
     <use xlink:href="#mcd7831d93f" x="267.504545" y="153.663074" style="fill-opacity: 0; stroke: #1f77b4; stroke-width: 0.8"/>
     <use xlink:href="#mcd7831d93f" x="268.657438" y="153.980744" style="fill-opacity: 0; stroke: #1f77b4; stroke-width: 0.8"/>
     <use xlink:href="#mcd7831d93f" x="269.810331" y="151.456127" style="fill-opacity: 0; stroke: #1f77b4; stroke-width: 0.8"/>
     <use xlink:href="#mcd7831d93f" x="270.963223" y="155.486653" style="fill-opacity: 0; stroke: #1f77b4; stroke-width: 0.8"/>
     <use xlink:href="#mcd7831d93f" x="272.116116" y="152.347754" style="fill-opacity: 0; stroke: #1f77b4; stroke-width: 0.8"/>
     <use xlink:href="#mcd7831d93f" x="273.269008" y="154.929492" style="fill-opacity: 0; stroke: #1f77b4; stroke-width: 0.8"/>
     <use xlink:href="#mcd7831d93f" x="274.421901" y="156.022251" style="fill-opacity: 0; stroke: #1f77b4; stroke-width: 0.8"/>
     <use xlink:href="#mcd7831d93f" x="275.574793" y="155.944117" style="fill-opacity: 0; stroke: #1f77b4; stroke-width: 0.8"/>
     <use xlink:href="#mcd7831d93f" x="276.727686" y="160.987345" style="fill-opacity: 0; stroke: #1f77b4; stroke-width: 0.8"/>
     <use xlink:href="#mcd7831d93f" x="277.880579" y="156.704764" style="fill-opacity: 0; stroke: #1f77b4; stroke-width: 0.8"/>
     <use xlink:href="#mcd7831d93f" x="279.033471" y="157.621968" style="fill-opacity: 0; stroke: #1f77b4; stroke-width: 0.8"/>
     <use xlink:href="#mcd7831d93f" x="280.186364" y="157.469463" style="fill-opacity: 0; stroke: #1f77b4; stroke-width: 0.8"/>
    </g>
   </g>
   <g id="line2d_22">
    <path d="M 51.913636 45.199838 
L 280.186364 184.68 
L 280.186364 184.68 
" clip-path="url(#p0a49c8f2ae)" style="fill: none; stroke: #ff7f0e; stroke-width: 2; stroke-linecap: square"/>
   </g>
   <g id="line2d_23">
    <path d="M 51.913636 33.48 
L 53.066529 36.985459 
L 54.219421 39.675292 
L 55.372314 41.942927 
L 57.678099 45.746926 
L 59.983884 48.953845 
L 62.289669 51.779198 
L 65.748347 55.53059 
L 69.207025 58.868781 
L 72.665702 61.906116 
L 77.277273 65.603845 
L 81.888843 68.991731 
L 86.500413 72.136656 
L 92.264876 75.794635 
L 98.029339 79.206246 
L 104.946694 83.035977 
L 111.86405 86.628111 
L 119.934298 90.570623 
L 129.157438 94.804156 
L 138.380579 98.795159 
L 148.756612 103.041404 
L 160.285537 107.503481 
L 172.967355 112.148238 
L 185.649174 116.557624 
L 199.483884 121.137446 
L 214.471488 125.864486 
L 230.611983 130.718996 
L 247.905372 135.684203 
L 266.351653 140.745858 
L 280.186364 144.401349 
L 280.186364 144.401349 
" clip-path="url(#p0a49c8f2ae)" style="fill: none; stroke: #2ca02c; stroke-width: 2; stroke-linecap: square"/>
   </g>
   <g id="patch_3">
    <path d="M 40.5 192.24 
L 40.5 25.92 
" style="fill: none; stroke: #000000; stroke-width: 0.8; stroke-linejoin: miter; stroke-linecap: square"/>
   </g>
   <g id="patch_4">
    <path d="M 291.6 192.24 
L 291.6 25.92 
" style="fill: none; stroke: #000000; stroke-width: 0.8; stroke-linejoin: miter; stroke-linecap: square"/>
   </g>
   <g id="patch_5">
    <path d="M 40.5 192.24 
L 291.6 192.24 
" style="fill: none; stroke: #000000; stroke-width: 0.8; stroke-linejoin: miter; stroke-linecap: square"/>
   </g>
   <g id="patch_6">
    <path d="M 40.5 25.92 
L 291.6 25.92 
" style="fill: none; stroke: #000000; stroke-width: 0.8; stroke-linejoin: miter; stroke-linecap: square"/>
   </g>
   <g id="legend_1">
    <g id="patch_7">
     <path d="M 160.210938 81.398125 
L 284.6 81.398125 
Q 286.6 81.398125 286.6 79.398125 
L 286.6 32.92 
Q 286.6 30.92 284.6 30.92 
L 160.210938 30.92 
Q 158.210938 30.92 158.210938 32.92 
L 158.210938 79.398125 
Q 158.210938 81.398125 160.210938 81.398125 
z
" style="fill: #ffffff; opacity: 0.8; stroke: #cccccc; stroke-linejoin: miter"/>
    </g>
    <g id="line2d_24">
     <g>
      <use xlink:href="#mcd7831d93f" x="172.210938" y="39.018438" style="fill-opacity: 0; stroke: #1f77b4; stroke-width: 0.8"/>
     </g>
    </g>
    <g id="text_6">
     <!-- Experimental data -->
     <g transform="translate(190.210938 42.518438)scale(0.1 -0.1)">
      <defs>
       <path id="DejaVuSans-45" d="M 628 4666 
L 3578 4666 
L 3578 4134 
L 1259 4134 
L 1259 2753 
L 3481 2753 
L 3481 2222 
L 1259 2222 
L 1259 531 
L 3634 531 
L 3634 0 
L 628 0 
L 628 4666 
z
" transform="scale(0.015625)"/>
       <path id="DejaVuSans-78" d="M 3513 3500 
L 2247 1797 
L 3578 0 
L 2900 0 
L 1881 1375 
L 863 0 
L 184 0 
L 1544 1831 
L 300 3500 
L 978 3500 
L 1906 2253 
L 2834 3500 
L 3513 3500 
z
" transform="scale(0.015625)"/>
       <path id="DejaVuSans-70" d="M 1159 525 
L 1159 -1331 
L 581 -1331 
L 581 3500 
L 1159 3500 
L 1159 2969 
Q 1341 3281 1617 3432 
Q 1894 3584 2278 3584 
Q 2916 3584 3314 3078 
Q 3713 2572 3713 1747 
Q 3713 922 3314 415 
Q 2916 -91 2278 -91 
Q 1894 -91 1617 61 
Q 1341 213 1159 525 
z
M 3116 1747 
Q 3116 2381 2855 2742 
Q 2594 3103 2138 3103 
Q 1681 3103 1420 2742 
Q 1159 2381 1159 1747 
Q 1159 1113 1420 752 
Q 1681 391 2138 391 
Q 2594 391 2855 752 
Q 3116 1113 3116 1747 
z
" transform="scale(0.015625)"/>
       <path id="DejaVuSans-65" d="M 3597 1894 
L 3597 1613 
L 953 1613 
Q 991 1019 1311 708 
Q 1631 397 2203 397 
Q 2534 397 2845 478 
Q 3156 559 3463 722 
L 3463 178 
Q 3153 47 2828 -22 
Q 2503 -91 2169 -91 
Q 1331 -91 842 396 
Q 353 884 353 1716 
Q 353 2575 817 3079 
Q 1281 3584 2069 3584 
Q 2775 3584 3186 3129 
Q 3597 2675 3597 1894 
z
M 3022 2063 
Q 3016 2534 2758 2815 
Q 2500 3097 2075 3097 
Q 1594 3097 1305 2825 
Q 1016 2553 972 2059 
L 3022 2063 
z
" transform="scale(0.015625)"/>
       <path id="DejaVuSans-72" d="M 2631 2963 
Q 2534 3019 2420 3045 
Q 2306 3072 2169 3072 
Q 1681 3072 1420 2755 
Q 1159 2438 1159 1844 
L 1159 0 
L 581 0 
L 581 3500 
L 1159 3500 
L 1159 2956 
Q 1341 3275 1631 3429 
Q 1922 3584 2338 3584 
Q 2397 3584 2469 3576 
Q 2541 3569 2628 3553 
L 2631 2963 
z
" transform="scale(0.015625)"/>
       <path id="DejaVuSans-69" d="M 603 3500 
L 1178 3500 
L 1178 0 
L 603 0 
L 603 3500 
z
M 603 4863 
L 1178 4863 
L 1178 4134 
L 603 4134 
L 603 4863 
z
" transform="scale(0.015625)"/>
       <path id="DejaVuSans-6d" d="M 3328 2828 
Q 3544 3216 3844 3400 
Q 4144 3584 4550 3584 
Q 5097 3584 5394 3201 
Q 5691 2819 5691 2113 
L 5691 0 
L 5113 0 
L 5113 2094 
Q 5113 2597 4934 2840 
Q 4756 3084 4391 3084 
Q 3944 3084 3684 2787 
Q 3425 2491 3425 1978 
L 3425 0 
L 2847 0 
L 2847 2094 
Q 2847 2600 2669 2842 
Q 2491 3084 2119 3084 
Q 1678 3084 1418 2786 
Q 1159 2488 1159 1978 
L 1159 0 
L 581 0 
L 581 3500 
L 1159 3500 
L 1159 2956 
Q 1356 3278 1631 3431 
Q 1906 3584 2284 3584 
Q 2666 3584 2933 3390 
Q 3200 3197 3328 2828 
z
" transform="scale(0.015625)"/>
       <path id="DejaVuSans-6e" d="M 3513 2113 
L 3513 0 
L 2938 0 
L 2938 2094 
Q 2938 2591 2744 2837 
Q 2550 3084 2163 3084 
Q 1697 3084 1428 2787 
Q 1159 2491 1159 1978 
L 1159 0 
L 581 0 
L 581 3500 
L 1159 3500 
L 1159 2956 
Q 1366 3272 1645 3428 
Q 1925 3584 2291 3584 
Q 2894 3584 3203 3211 
Q 3513 2838 3513 2113 
z
" transform="scale(0.015625)"/>
       <path id="DejaVuSans-74" d="M 1172 4494 
L 1172 3500 
L 2356 3500 
L 2356 3053 
L 1172 3053 
L 1172 1153 
Q 1172 725 1289 603 
Q 1406 481 1766 481 
L 2356 481 
L 2356 0 
L 1766 0 
Q 1100 0 847 248 
Q 594 497 594 1153 
L 594 3053 
L 172 3053 
L 172 3500 
L 594 3500 
L 594 4494 
L 1172 4494 
z
" transform="scale(0.015625)"/>
       <path id="DejaVuSans-61" d="M 2194 1759 
Q 1497 1759 1228 1600 
Q 959 1441 959 1056 
Q 959 750 1161 570 
Q 1363 391 1709 391 
Q 2188 391 2477 730 
Q 2766 1069 2766 1631 
L 2766 1759 
L 2194 1759 
z
M 3341 1997 
L 3341 0 
L 2766 0 
L 2766 531 
Q 2569 213 2275 61 
Q 1981 -91 1556 -91 
Q 1019 -91 701 211 
Q 384 513 384 1019 
Q 384 1609 779 1909 
Q 1175 2209 1959 2209 
L 2766 2209 
L 2766 2266 
Q 2766 2663 2505 2880 
Q 2244 3097 1772 3097 
Q 1472 3097 1187 3025 
Q 903 2953 641 2809 
L 641 3341 
Q 956 3463 1253 3523 
Q 1550 3584 1831 3584 
Q 2591 3584 2966 3190 
Q 3341 2797 3341 1997 
z
" transform="scale(0.015625)"/>
       <path id="DejaVuSans-6c" d="M 603 4863 
L 1178 4863 
L 1178 0 
L 603 0 
L 603 4863 
z
" transform="scale(0.015625)"/>
       <path id="DejaVuSans-20" transform="scale(0.015625)"/>
       <path id="DejaVuSans-64" d="M 2906 2969 
L 2906 4863 
L 3481 4863 
L 3481 0 
L 2906 0 
L 2906 525 
Q 2725 213 2448 61 
Q 2172 -91 1784 -91 
Q 1150 -91 751 415 
Q 353 922 353 1747 
Q 353 2572 751 3078 
Q 1150 3584 1784 3584 
Q 2172 3584 2448 3432 
Q 2725 3281 2906 2969 
z
M 947 1747 
Q 947 1113 1208 752 
Q 1469 391 1925 391 
Q 2381 391 2643 752 
Q 2906 1113 2906 1747 
Q 2906 2381 2643 2742 
Q 2381 3103 1925 3103 
Q 1469 3103 1208 2742 
Q 947 2381 947 1747 
z
" transform="scale(0.015625)"/>
      </defs>
      <use xlink:href="#DejaVuSans-45"/>
      <use xlink:href="#DejaVuSans-78" x="63.183594"/>
      <use xlink:href="#DejaVuSans-70" x="122.363281"/>
      <use xlink:href="#DejaVuSans-65" x="185.839844"/>
      <use xlink:href="#DejaVuSans-72" x="247.363281"/>
      <use xlink:href="#DejaVuSans-69" x="288.476562"/>
      <use xlink:href="#DejaVuSans-6d" x="316.259766"/>
      <use xlink:href="#DejaVuSans-65" x="413.671875"/>
      <use xlink:href="#DejaVuSans-6e" x="475.195312"/>
      <use xlink:href="#DejaVuSans-74" x="538.574219"/>
      <use xlink:href="#DejaVuSans-61" x="577.783203"/>
      <use xlink:href="#DejaVuSans-6c" x="639.0625"/>
      <use xlink:href="#DejaVuSans-20" x="666.845703"/>
      <use xlink:href="#DejaVuSans-64" x="698.632812"/>
      <use xlink:href="#DejaVuSans-61" x="762.109375"/>
      <use xlink:href="#DejaVuSans-74" x="823.388672"/>
      <use xlink:href="#DejaVuSans-61" x="862.597656"/>
     </g>
    </g>
    <g id="line2d_25">
     <path d="M 162.210938 53.698125 
L 172.210938 53.698125 
L 182.210938 53.698125 
" style="fill: none; stroke: #ff7f0e; stroke-width: 2; stroke-linecap: square"/>
    </g>
    <g id="text_7">
     <!-- exp(-$t/\tau$) -->
     <g transform="translate(190.210938 57.198125)scale(0.1 -0.1)">
      <defs>
       <path id="DejaVuSans-28" d="M 1984 4856 
Q 1566 4138 1362 3434 
Q 1159 2731 1159 2009 
Q 1159 1288 1364 580 
Q 1569 -128 1984 -844 
L 1484 -844 
Q 1016 -109 783 600 
Q 550 1309 550 2009 
Q 550 2706 781 3412 
Q 1013 4119 1484 4856 
L 1984 4856 
z
" transform="scale(0.015625)"/>
       <path id="DejaVuSans-2d" d="M 313 2009 
L 1997 2009 
L 1997 1497 
L 313 1497 
L 313 2009 
z
" transform="scale(0.015625)"/>
       <path id="DejaVuSans-Oblique-74" d="M 2706 3500 
L 2619 3053 
L 1472 3053 
L 1100 1153 
Q 1081 1047 1072 975 
Q 1063 903 1063 863 
Q 1063 663 1183 572 
Q 1303 481 1569 481 
L 2150 481 
L 2053 0 
L 1503 0 
Q 991 0 739 200 
Q 488 400 488 806 
Q 488 878 497 964 
Q 506 1050 525 1153 
L 897 3053 
L 409 3053 
L 500 3500 
L 978 3500 
L 1172 4494 
L 1747 4494 
L 1556 3500 
L 2706 3500 
z
" transform="scale(0.015625)"/>
       <path id="DejaVuSans-2f" d="M 1625 4666 
L 2156 4666 
L 531 -594 
L 0 -594 
L 1625 4666 
z
" transform="scale(0.015625)"/>
       <path id="DejaVuSans-Oblique-3c4" d="M 2103 638 
Q 2188 488 2525 488 
L 2800 488 
L 2706 0 
L 2363 0 
Q 1800 0 1600 300 
Q 1403 606 1534 1269 
L 1856 2925 
L 541 2925 
L 653 3500 
L 3881 3500 
L 3769 2925 
L 2444 2925 
L 2113 1234 
Q 2025 781 2103 638 
z
" transform="scale(0.015625)"/>
       <path id="DejaVuSans-29" d="M 513 4856 
L 1013 4856 
Q 1481 4119 1714 3412 
Q 1947 2706 1947 2009 
Q 1947 1309 1714 600 
Q 1481 -109 1013 -844 
L 513 -844 
Q 928 -128 1133 580 
Q 1338 1288 1338 2009 
Q 1338 2731 1133 3434 
Q 928 4138 513 4856 
z
" transform="scale(0.015625)"/>
      </defs>
      <use xlink:href="#DejaVuSans-65" transform="translate(0 0.125)"/>
      <use xlink:href="#DejaVuSans-78" transform="translate(61.523438 0.125)"/>
      <use xlink:href="#DejaVuSans-70" transform="translate(120.703125 0.125)"/>
      <use xlink:href="#DejaVuSans-28" transform="translate(184.179688 0.125)"/>
      <use xlink:href="#DejaVuSans-2d" transform="translate(223.193359 0.125)"/>
      <use xlink:href="#DejaVuSans-Oblique-74" transform="translate(259.277344 0.125)"/>
      <use xlink:href="#DejaVuSans-2f" transform="translate(298.486328 0.125)"/>
      <use xlink:href="#DejaVuSans-Oblique-3c4" transform="translate(332.177734 0.125)"/>
      <use xlink:href="#DejaVuSans-29" transform="translate(392.382812 0.125)"/>
     </g>
    </g>
    <g id="line2d_26">
     <path d="M 162.210938 71.798125 
L 172.210938 71.798125 
L 182.210938 71.798125 
" style="fill: none; stroke: #2ca02c; stroke-width: 2; stroke-linecap: square"/>
    </g>
    <g id="text_8">
     <!-- exp(-$\sqrt{t/\tau}$) -->
     <g transform="translate(190.210938 75.298125)scale(0.1 -0.1)">
      <defs>
       <path id="STIXSizeOneSym-Regular-221a" d="M 6970 9933 
L 3373 -1888 
L 3104 -1888 
L 1626 2918 
Q 1555 3149 1465 3251 
Q 1376 3354 1229 3354 
Q 1011 3354 794 3181 
L 717 3309 
L 1766 4115 
L 1926 4115 
L 3379 -602 
L 3405 -602 
L 6605 9933 
L 6970 9933 
z
" transform="scale(0.015625)"/>
      </defs>
      <use xlink:href="#DejaVuSans-65" transform="translate(0 0.609375)"/>
      <use xlink:href="#DejaVuSans-78" transform="translate(61.523438 0.609375)"/>
      <use xlink:href="#DejaVuSans-70" transform="translate(120.703125 0.609375)"/>
      <use xlink:href="#DejaVuSans-28" transform="translate(184.179688 0.609375)"/>
      <use xlink:href="#DejaVuSans-2d" transform="translate(223.193359 0.609375)"/>
      <use xlink:href="#STIXSizeOneSym-Regular-221a" transform="translate(259.277344 9.328125)scale(0.614161)"/>
      <use xlink:href="#DejaVuSans-Oblique-74" transform="translate(336.650711 0.84375)"/>
      <use xlink:href="#DejaVuSans-2f" transform="translate(375.859695 0.84375)"/>
      <use xlink:href="#DejaVuSans-Oblique-3c4" transform="translate(409.551102 0.84375)"/>
      <use xlink:href="#DejaVuSans-29" transform="translate(482.25618 0.609375)"/>
      <path d="M 324.150711 97.5 
L 324.150711 103.75 
L 482.25618 103.75 
L 482.25618 97.5 
L 324.150711 97.5 
z
"/>
     </g>
    </g>
   </g>
  </g>
 </g>
 <defs>
  <clipPath id="p0a49c8f2ae">
   <rect x="40.5" y="25.92" width="251.1" height="166.32"/>
  </clipPath>
 </defs>
</svg>
