<?xml version="1.0" encoding="utf-8" standalone="no"?>
<!DOCTYPE svg PUBLIC "-//W3C//DTD SVG 1.1//EN"
  "http://www.w3.org/Graphics/SVG/1.1/DTD/svg11.dtd">
<svg xmlns:xlink="http://www.w3.org/1999/xlink" width="324pt" height="216pt" viewBox="0 0 324 216" xmlns="http://www.w3.org/2000/svg" version="1.1">
 <metadata>
  <rdf:RDF xmlns:dc="http://purl.org/dc/elements/1.1/" xmlns:cc="http://creativecommons.org/ns#" xmlns:rdf="http://www.w3.org/1999/02/22-rdf-syntax-ns#">
   <cc:Work>
    <dc:type rdf:resource="http://purl.org/dc/dcmitype/StillImage"/>
    <dc:date>2022-06-10T16:23:45.990039</dc:date>
    <dc:format>image/svg+xml</dc:format>
    <dc:creator>
     <cc:Agent>
      <dc:title>Matplotlib v3.5.1, https://matplotlib.org/</dc:title>
     </cc:Agent>
    </dc:creator>
   </cc:Work>
  </rdf:RDF>
 </metadata>
 <defs>
  <style type="text/css">*{stroke-linejoin: round; stroke-linecap: butt}</style>
 </defs>
 <g id="figure_1">
  <g id="patch_1">
   <path d="M 0 216 
L 324 216 
L 324 0 
L 0 0 
z
" style="fill: #ffffff"/>
  </g>
  <g id="axes_1">
   <g id="patch_2">
    <path d="M 40.5 192.24 
L 291.6 192.24 
L 291.6 25.92 
L 40.5 25.92 
z
" style="fill: #ffffff"/>
   </g>
   <g id="matplotlib.axis_1">
    <g id="xtick_1">
     <g id="line2d_1">
      <defs>
       <path id="m5e447f81df" d="M 0 0 
L 0 3.5 
" style="stroke: #000000; stroke-width: 0.8"/>
      </defs>
      <g>
       <use xlink:href="#m5e447f81df" x="60.006936" y="192.24" style="stroke: #000000; stroke-width: 0.8"/>
      </g>
     </g>
     <g id="text_1">
      <!-- 10 -->
      <g transform="translate(52.371936 208.358125)scale(0.12 -0.12)">
       <defs>
        <path id="DejaVuSans-31" d="M 794 531 
L 1825 531 
L 1825 4091 
L 703 3866 
L 703 4441 
L 1819 4666 
L 2450 4666 
L 2450 531 
L 3481 531 
L 3481 0 
L 794 0 
L 794 531 
z
" transform="scale(0.015625)"/>
        <path id="DejaVuSans-30" d="M 2034 4250 
Q 1547 4250 1301 3770 
Q 1056 3291 1056 2328 
Q 1056 1369 1301 889 
Q 1547 409 2034 409 
Q 2525 409 2770 889 
Q 3016 1369 3016 2328 
Q 3016 3291 2770 3770 
Q 2525 4250 2034 4250 
z
M 2034 4750 
Q 2819 4750 3233 4129 
Q 3647 3509 3647 2328 
Q 3647 1150 3233 529 
Q 2819 -91 2034 -91 
Q 1250 -91 836 529 
Q 422 1150 422 2328 
Q 422 3509 836 4129 
Q 1250 4750 2034 4750 
z
" transform="scale(0.015625)"/>
       </defs>
       <use xlink:href="#DejaVuSans-31"/>
       <use xlink:href="#DejaVuSans-30" x="63.623047"/>
      </g>
     </g>
    </g>
    <g id="xtick_2">
     <g id="line2d_2">
      <g>
       <use xlink:href="#m5e447f81df" x="119.342427" y="192.24" style="stroke: #000000; stroke-width: 0.8"/>
      </g>
     </g>
     <g id="text_2">
      <!-- 15 -->
      <g transform="translate(111.707427 208.358125)scale(0.12 -0.12)">
       <defs>
        <path id="DejaVuSans-35" d="M 691 4666 
L 3169 4666 
L 3169 4134 
L 1269 4134 
L 1269 2991 
Q 1406 3038 1543 3061 
Q 1681 3084 1819 3084 
Q 2600 3084 3056 2656 
Q 3513 2228 3513 1497 
Q 3513 744 3044 326 
Q 2575 -91 1722 -91 
Q 1428 -91 1123 -41 
Q 819 9 494 109 
L 494 744 
Q 775 591 1075 516 
Q 1375 441 1709 441 
Q 2250 441 2565 725 
Q 2881 1009 2881 1497 
Q 2881 1984 2565 2268 
Q 2250 2553 1709 2553 
Q 1456 2553 1204 2497 
Q 953 2441 691 2322 
L 691 4666 
z
" transform="scale(0.015625)"/>
       </defs>
       <use xlink:href="#DejaVuSans-31"/>
       <use xlink:href="#DejaVuSans-35" x="63.623047"/>
      </g>
     </g>
    </g>
    <g id="xtick_3">
     <g id="line2d_3">
      <g>
       <use xlink:href="#m5e447f81df" x="158.71455" y="192.24" style="stroke: #000000; stroke-width: 0.8"/>
      </g>
     </g>
     <g id="text_3">
      <!-- 20 -->
      <g transform="translate(151.07955 208.358125)scale(0.12 -0.12)">
       <defs>
        <path id="DejaVuSans-32" d="M 1228 531 
L 3431 531 
L 3431 0 
L 469 0 
L 469 531 
Q 828 903 1448 1529 
Q 2069 2156 2228 2338 
Q 2531 2678 2651 2914 
Q 2772 3150 2772 3378 
Q 2772 3750 2511 3984 
Q 2250 4219 1831 4219 
Q 1534 4219 1204 4116 
Q 875 4013 500 3803 
L 500 4441 
Q 881 4594 1212 4672 
Q 1544 4750 1819 4750 
Q 2544 4750 2975 4387 
Q 3406 4025 3406 3419 
Q 3406 3131 3298 2873 
Q 3191 2616 2906 2266 
Q 2828 2175 2409 1742 
Q 1991 1309 1228 531 
z
" transform="scale(0.015625)"/>
       </defs>
       <use xlink:href="#DejaVuSans-32"/>
       <use xlink:href="#DejaVuSans-30" x="63.623047"/>
      </g>
     </g>
    </g>
    <g id="xtick_4">
     <g id="line2d_4">
      <g>
       <use xlink:href="#m5e447f81df" x="188.890174" y="192.24" style="stroke: #000000; stroke-width: 0.8"/>
      </g>
     </g>
     <g id="text_4">
      <!-- 25 -->
      <g transform="translate(181.255174 208.358125)scale(0.12 -0.12)">
       <use xlink:href="#DejaVuSans-32"/>
       <use xlink:href="#DejaVuSans-35" x="63.623047"/>
      </g>
     </g>
    </g>
    <g id="xtick_5">
     <g id="line2d_5">
      <g>
       <use xlink:href="#m5e447f81df" x="216.506571" y="192.24" style="stroke: #000000; stroke-width: 0.8"/>
      </g>
     </g>
     <g id="text_5">
      <!-- 30 -->
      <g transform="translate(208.871571 208.358125)scale(0.12 -0.12)">
       <defs>
        <path id="DejaVuSans-33" d="M 2597 2516 
Q 3050 2419 3304 2112 
Q 3559 1806 3559 1356 
Q 3559 666 3084 287 
Q 2609 -91 1734 -91 
Q 1441 -91 1130 -33 
Q 819 25 488 141 
L 488 750 
Q 750 597 1062 519 
Q 1375 441 1716 441 
Q 2309 441 2620 675 
Q 2931 909 2931 1356 
Q 2931 1769 2642 2001 
Q 2353 2234 1838 2234 
L 1294 2234 
L 1294 2753 
L 1863 2753 
Q 2328 2753 2575 2939 
Q 2822 3125 2822 3475 
Q 2822 3834 2567 4026 
Q 2313 4219 1838 4219 
Q 1578 4219 1281 4162 
Q 984 4106 628 3988 
L 628 4550 
Q 988 4650 1302 4700 
Q 1616 4750 1894 4750 
Q 2613 4750 3031 4423 
Q 3450 4097 3450 3541 
Q 3450 3153 3228 2886 
Q 3006 2619 2597 2516 
z
" transform="scale(0.015625)"/>
       </defs>
       <use xlink:href="#DejaVuSans-33"/>
       <use xlink:href="#DejaVuSans-30" x="63.623047"/>
      </g>
     </g>
    </g>
    <g id="xtick_6">
     <g id="line2d_6">
      <g>
       <use xlink:href="#m5e447f81df" x="244.071415" y="192.24" style="stroke: #000000; stroke-width: 0.8"/>
      </g>
     </g>
     <g id="text_6">
      <!-- 35 -->
      <g transform="translate(236.436415 208.358125)scale(0.12 -0.12)">
       <use xlink:href="#DejaVuSans-33"/>
       <use xlink:href="#DejaVuSans-35" x="63.623047"/>
      </g>
     </g>
    </g>
    <g id="xtick_7">
     <g id="line2d_7">
      <g>
       <use xlink:href="#m5e447f81df" x="269.962783" y="192.24" style="stroke: #000000; stroke-width: 0.8"/>
      </g>
     </g>
     <g id="text_7">
      <!-- 40 -->
      <g transform="translate(262.327783 208.358125)scale(0.12 -0.12)">
       <defs>
        <path id="DejaVuSans-34" d="M 2419 4116 
L 825 1625 
L 2419 1625 
L 2419 4116 
z
M 2253 4666 
L 3047 4666 
L 3047 1625 
L 3713 1625 
L 3713 1100 
L 3047 1100 
L 3047 0 
L 2419 0 
L 2419 1100 
L 313 1100 
L 313 1709 
L 2253 4666 
z
" transform="scale(0.015625)"/>
       </defs>
       <use xlink:href="#DejaVuSans-34"/>
       <use xlink:href="#DejaVuSans-30" x="63.623047"/>
      </g>
     </g>
    </g>
    <g id="xtick_8">
     <g id="line2d_8">
      <g>
       <use xlink:href="#m5e447f81df" x="288.429151" y="192.24" style="stroke: #000000; stroke-width: 0.8"/>
      </g>
     </g>
     <g id="text_8">
      <!-- 45 -->
      <g transform="translate(280.794151 208.358125)scale(0.12 -0.12)">
       <use xlink:href="#DejaVuSans-34"/>
       <use xlink:href="#DejaVuSans-35" x="63.623047"/>
      </g>
     </g>
    </g>
    <g id="xtick_9">
     <g id="line2d_9">
      <g>
       <use xlink:href="#m5e447f81df" x="289.589401" y="192.24" style="stroke: #000000; stroke-width: 0.8"/>
      </g>
     </g>
     <g id="text_9">
      <!-- 50 -->
      <g transform="translate(281.954401 208.358125)scale(0.12 -0.12)">
       <use xlink:href="#DejaVuSans-35"/>
       <use xlink:href="#DejaVuSans-30" x="63.623047"/>
      </g>
     </g>
    </g>
   </g>
   <g id="matplotlib.axis_2">
    <g id="ytick_1">
     <g id="line2d_10">
      <defs>
       <path id="m16dff95af3" d="M 0 0 
L -3.5 0 
" style="stroke: #000000; stroke-width: 0.8"/>
      </defs>
      <g>
       <use xlink:href="#m16dff95af3" x="40.5" y="192.24" style="stroke: #000000; stroke-width: 0.8"/>
      </g>
     </g>
     <g id="text_10">
      <!-- 0 -->
      <g transform="translate(25.865 196.799062)scale(0.12 -0.12)">
       <use xlink:href="#DejaVuSans-30"/>
      </g>
     </g>
    </g>
    <g id="ytick_2">
     <g id="line2d_11">
      <g>
       <use xlink:href="#m16dff95af3" x="40.5" y="169.31371" style="stroke: #000000; stroke-width: 0.8"/>
      </g>
     </g>
     <g id="text_11">
      <!-- 25 -->
      <g transform="translate(18.23 173.872772)scale(0.12 -0.12)">
       <use xlink:href="#DejaVuSans-32"/>
       <use xlink:href="#DejaVuSans-35" x="63.623047"/>
      </g>
     </g>
    </g>
    <g id="ytick_3">
     <g id="line2d_12">
      <g>
       <use xlink:href="#m16dff95af3" x="40.5" y="146.38742" style="stroke: #000000; stroke-width: 0.8"/>
      </g>
     </g>
     <g id="text_12">
      <!-- 50 -->
      <g transform="translate(18.23 150.946482)scale(0.12 -0.12)">
       <use xlink:href="#DejaVuSans-35"/>
       <use xlink:href="#DejaVuSans-30" x="63.623047"/>
      </g>
     </g>
    </g>
    <g id="ytick_4">
     <g id="line2d_13">
      <g>
       <use xlink:href="#m16dff95af3" x="40.5" y="123.46113" style="stroke: #000000; stroke-width: 0.8"/>
      </g>
     </g>
     <g id="text_13">
      <!-- 75 -->
      <g transform="translate(18.23 128.020192)scale(0.12 -0.12)">
       <defs>
        <path id="DejaVuSans-37" d="M 525 4666 
L 3525 4666 
L 3525 4397 
L 1831 0 
L 1172 0 
L 2766 4134 
L 525 4134 
L 525 4666 
z
" transform="scale(0.015625)"/>
       </defs>
       <use xlink:href="#DejaVuSans-37"/>
       <use xlink:href="#DejaVuSans-35" x="63.623047"/>
      </g>
     </g>
    </g>
    <g id="ytick_5">
     <g id="line2d_14">
      <g>
       <use xlink:href="#m16dff95af3" x="40.5" y="100.53484" style="stroke: #000000; stroke-width: 0.8"/>
      </g>
     </g>
     <g id="text_14">
      <!-- 100 -->
      <g transform="translate(10.595 105.093902)scale(0.12 -0.12)">
       <use xlink:href="#DejaVuSans-31"/>
       <use xlink:href="#DejaVuSans-30" x="63.623047"/>
       <use xlink:href="#DejaVuSans-30" x="127.246094"/>
      </g>
     </g>
    </g>
    <g id="ytick_6">
     <g id="line2d_15">
      <g>
       <use xlink:href="#m16dff95af3" x="40.5" y="77.60855" style="stroke: #000000; stroke-width: 0.8"/>
      </g>
     </g>
     <g id="text_15">
      <!-- 125 -->
      <g transform="translate(10.595 82.167612)scale(0.12 -0.12)">
       <use xlink:href="#DejaVuSans-31"/>
       <use xlink:href="#DejaVuSans-32" x="63.623047"/>
       <use xlink:href="#DejaVuSans-35" x="127.246094"/>
      </g>
     </g>
    </g>
    <g id="ytick_7">
     <g id="line2d_16">
      <g>
       <use xlink:href="#m16dff95af3" x="40.5" y="54.68226" style="stroke: #000000; stroke-width: 0.8"/>
      </g>
     </g>
     <g id="text_16">
      <!-- 150 -->
      <g transform="translate(10.595 59.241322)scale(0.12 -0.12)">
       <use xlink:href="#DejaVuSans-31"/>
       <use xlink:href="#DejaVuSans-35" x="63.623047"/>
       <use xlink:href="#DejaVuSans-30" x="127.246094"/>
      </g>
     </g>
    </g>
    <g id="ytick_8">
     <g id="line2d_17">
      <g>
       <use xlink:href="#m16dff95af3" x="40.5" y="31.75597" style="stroke: #000000; stroke-width: 0.8"/>
      </g>
     </g>
     <g id="text_17">
      <!-- 175 -->
      <g transform="translate(10.595 36.315032)scale(0.12 -0.12)">
       <use xlink:href="#DejaVuSans-31"/>
       <use xlink:href="#DejaVuSans-37" x="63.623047"/>
       <use xlink:href="#DejaVuSans-35" x="127.246094"/>
      </g>
     </g>
    </g>
   </g>
   <g id="line2d_18">
    <defs>
     <path id="mfc9dc658c0" d="M 0 2.5 
C 0.663008 2.5 1.29895 2.236584 1.767767 1.767767 
C 2.236584 1.29895 2.5 0.663008 2.5 0 
C 2.5 -0.663008 2.236584 -1.29895 1.767767 -1.767767 
C 1.29895 -2.236584 0.663008 -2.5 0 -2.5 
C -0.663008 -2.5 -1.29895 -2.236584 -1.767767 -1.767767 
C -2.236584 -1.29895 -2.5 -0.663008 -2.5 0 
C -2.5 0.663008 -2.236584 1.29895 -1.767767 1.767767 
C -1.29895 2.236584 -0.663008 2.5 0 2.5 
z
" style="stroke: #1f77b4; stroke-width: 0.7"/>
    </defs>
    <g clip-path="url(#p05ce9e83fc)">
     <use xlink:href="#mfc9dc658c0" x="52.117905" y="37.172465" style="fill-opacity: 0; stroke: #1f77b4; stroke-width: 0.7"/>
     <use xlink:href="#mfc9dc658c0" x="50.822614" y="41.111617" style="fill-opacity: 0; stroke: #1f77b4; stroke-width: 0.7"/>
     <use xlink:href="#mfc9dc658c0" x="49.59351" y="36.69046" style="fill-opacity: 0; stroke: #1f77b4; stroke-width: 0.7"/>
     <use xlink:href="#mfc9dc658c0" x="48.431591" y="39.07383" style="fill-opacity: 0; stroke: #1f77b4; stroke-width: 0.7"/>
     <use xlink:href="#mfc9dc658c0" x="47.337762" y="40.376235" style="fill-opacity: 0; stroke: #1f77b4; stroke-width: 0.7"/>
     <use xlink:href="#mfc9dc658c0" x="46.312832" y="41.619626" style="fill-opacity: 0; stroke: #1f77b4; stroke-width: 0.7"/>
     <use xlink:href="#mfc9dc658c0" x="45.35752" y="36.787315" style="fill-opacity: 0; stroke: #1f77b4; stroke-width: 0.7"/>
     <use xlink:href="#mfc9dc658c0" x="44.472446" y="35.793008" style="fill-opacity: 0; stroke: #1f77b4; stroke-width: 0.7"/>
     <use xlink:href="#mfc9dc658c0" x="43.658139" y="37.126551" style="fill-opacity: 0; stroke: #1f77b4; stroke-width: 0.7"/>
     <use xlink:href="#mfc9dc658c0" x="42.915033" y="38.520188" style="fill-opacity: 0; stroke: #1f77b4; stroke-width: 0.7"/>
     <use xlink:href="#mfc9dc658c0" x="42.243465" y="37.510646" style="fill-opacity: 0; stroke: #1f77b4; stroke-width: 0.7"/>
     <use xlink:href="#mfc9dc658c0" x="41.643682" y="35.149757" style="fill-opacity: 0; stroke: #1f77b4; stroke-width: 0.7"/>
     <use xlink:href="#mfc9dc658c0" x="41.115834" y="36.490283" style="fill-opacity: 0; stroke: #1f77b4; stroke-width: 0.7"/>
     <use xlink:href="#mfc9dc658c0" x="40.659984" y="39.190444" style="fill-opacity: 0; stroke: #1f77b4; stroke-width: 0.7"/>
     <use xlink:href="#mfc9dc658c0" x="40.276098" y="40.857118" style="fill-opacity: 0; stroke: #1f77b4; stroke-width: 0.7"/>
     <use xlink:href="#mfc9dc658c0" x="39.964058" y="32.41202" style="fill-opacity: 0; stroke: #1f77b4; stroke-width: 0.7"/>
     <use xlink:href="#mfc9dc658c0" x="39.723654" y="37.323017" style="fill-opacity: 0; stroke: #1f77b4; stroke-width: 0.7"/>
     <use xlink:href="#mfc9dc658c0" x="39.554592" y="39.430394" style="fill-opacity: 0; stroke: #1f77b4; stroke-width: 0.7"/>
     <use xlink:href="#mfc9dc658c0" x="39.456491" y="42.95106" style="fill-opacity: 0; stroke: #1f77b4; stroke-width: 0.7"/>
     <use xlink:href="#mfc9dc658c0" x="39.42889" y="44.048697" style="fill-opacity: 0; stroke: #1f77b4; stroke-width: 0.7"/>
     <use xlink:href="#mfc9dc658c0" x="39.471244" y="38.77479" style="fill-opacity: 0; stroke: #1f77b4; stroke-width: 0.7"/>
     <use xlink:href="#mfc9dc658c0" x="39.582932" y="39.857311" style="fill-opacity: 0; stroke: #1f77b4; stroke-width: 0.7"/>
     <use xlink:href="#mfc9dc658c0" x="39.763256" y="43.488719" style="fill-opacity: 0; stroke: #1f77b4; stroke-width: 0.7"/>
     <use xlink:href="#mfc9dc658c0" x="40.011445" y="41.598281" style="fill-opacity: 0; stroke: #1f77b4; stroke-width: 0.7"/>
     <use xlink:href="#mfc9dc658c0" x="40.326655" y="48.466134" style="fill-opacity: 0; stroke: #1f77b4; stroke-width: 0.7"/>
     <use xlink:href="#mfc9dc658c0" x="40.707975" y="47.625156" style="fill-opacity: 0; stroke: #1f77b4; stroke-width: 0.7"/>
     <use xlink:href="#mfc9dc658c0" x="41.154427" y="45.507121" style="fill-opacity: 0; stroke: #1f77b4; stroke-width: 0.7"/>
     <use xlink:href="#mfc9dc658c0" x="41.664972" y="49.223572" style="fill-opacity: 0; stroke: #1f77b4; stroke-width: 0.7"/>
     <use xlink:href="#mfc9dc658c0" x="42.238508" y="52.062601" style="fill-opacity: 0; stroke: #1f77b4; stroke-width: 0.7"/>
     <use xlink:href="#mfc9dc658c0" x="42.873878" y="50.611488" style="fill-opacity: 0; stroke: #1f77b4; stroke-width: 0.7"/>
     <use xlink:href="#mfc9dc658c0" x="43.569869" y="54.379983" style="fill-opacity: 0; stroke: #1f77b4; stroke-width: 0.7"/>
     <use xlink:href="#mfc9dc658c0" x="44.325217" y="52.586869" style="fill-opacity: 0; stroke: #1f77b4; stroke-width: 0.7"/>
     <use xlink:href="#mfc9dc658c0" x="45.138611" y="53.260129" style="fill-opacity: 0; stroke: #1f77b4; stroke-width: 0.7"/>
     <use xlink:href="#mfc9dc658c0" x="46.008694" y="57.079928" style="fill-opacity: 0; stroke: #1f77b4; stroke-width: 0.7"/>
     <use xlink:href="#mfc9dc658c0" x="46.934066" y="53.779743" style="fill-opacity: 0; stroke: #1f77b4; stroke-width: 0.7"/>
     <use xlink:href="#mfc9dc658c0" x="47.91329" y="56.977652" style="fill-opacity: 0; stroke: #1f77b4; stroke-width: 0.7"/>
     <use xlink:href="#mfc9dc658c0" x="48.944891" y="55.070068" style="fill-opacity: 0; stroke: #1f77b4; stroke-width: 0.7"/>
     <use xlink:href="#mfc9dc658c0" x="50.027364" y="60.046664" style="fill-opacity: 0; stroke: #1f77b4; stroke-width: 0.7"/>
     <use xlink:href="#mfc9dc658c0" x="51.159171" y="59.472195" style="fill-opacity: 0; stroke: #1f77b4; stroke-width: 0.7"/>
     <use xlink:href="#mfc9dc658c0" x="52.33875" y="57.314046" style="fill-opacity: 0; stroke: #1f77b4; stroke-width: 0.7"/>
     <use xlink:href="#mfc9dc658c0" x="53.564516" y="60.211629" style="fill-opacity: 0; stroke: #1f77b4; stroke-width: 0.7"/>
     <use xlink:href="#mfc9dc658c0" x="54.834863" y="60.975182" style="fill-opacity: 0; stroke: #1f77b4; stroke-width: 0.7"/>
     <use xlink:href="#mfc9dc658c0" x="56.148167" y="64.045992" style="fill-opacity: 0; stroke: #1f77b4; stroke-width: 0.7"/>
     <use xlink:href="#mfc9dc658c0" x="57.502791" y="63.545292" style="fill-opacity: 0; stroke: #1f77b4; stroke-width: 0.7"/>
     <use xlink:href="#mfc9dc658c0" x="58.897088" y="65.463499" style="fill-opacity: 0; stroke: #1f77b4; stroke-width: 0.7"/>
     <use xlink:href="#mfc9dc658c0" x="60.329402" y="66.457905" style="fill-opacity: 0; stroke: #1f77b4; stroke-width: 0.7"/>
     <use xlink:href="#mfc9dc658c0" x="61.79807" y="68.930892" style="fill-opacity: 0; stroke: #1f77b4; stroke-width: 0.7"/>
     <use xlink:href="#mfc9dc658c0" x="63.30143" y="67.186172" style="fill-opacity: 0; stroke: #1f77b4; stroke-width: 0.7"/>
     <use xlink:href="#mfc9dc658c0" x="64.837819" y="68.953391" style="fill-opacity: 0; stroke: #1f77b4; stroke-width: 0.7"/>
     <use xlink:href="#mfc9dc658c0" x="66.405576" y="71.625119" style="fill-opacity: 0; stroke: #1f77b4; stroke-width: 0.7"/>
     <use xlink:href="#mfc9dc658c0" x="68.003049" y="69.978499" style="fill-opacity: 0; stroke: #1f77b4; stroke-width: 0.7"/>
     <use xlink:href="#mfc9dc658c0" x="69.628594" y="69.174821" style="fill-opacity: 0; stroke: #1f77b4; stroke-width: 0.7"/>
     <use xlink:href="#mfc9dc658c0" x="71.280576" y="72.036791" style="fill-opacity: 0; stroke: #1f77b4; stroke-width: 0.7"/>
     <use xlink:href="#mfc9dc658c0" x="72.957377" y="71.340953" style="fill-opacity: 0; stroke: #1f77b4; stroke-width: 0.7"/>
     <use xlink:href="#mfc9dc658c0" x="74.657393" y="73.31019" style="fill-opacity: 0; stroke: #1f77b4; stroke-width: 0.7"/>
     <use xlink:href="#mfc9dc658c0" x="76.379041" y="76.621409" style="fill-opacity: 0; stroke: #1f77b4; stroke-width: 0.7"/>
     <use xlink:href="#mfc9dc658c0" x="78.120757" y="72.138063" style="fill-opacity: 0; stroke: #1f77b4; stroke-width: 0.7"/>
     <use xlink:href="#mfc9dc658c0" x="79.881001" y="74.756539" style="fill-opacity: 0; stroke: #1f77b4; stroke-width: 0.7"/>
     <use xlink:href="#mfc9dc658c0" x="81.658259" y="78.634361" style="fill-opacity: 0; stroke: #1f77b4; stroke-width: 0.7"/>
     <use xlink:href="#mfc9dc658c0" x="83.451044" y="78.241521" style="fill-opacity: 0; stroke: #1f77b4; stroke-width: 0.7"/>
     <use xlink:href="#mfc9dc658c0" x="85.257899" y="77.889327" style="fill-opacity: 0; stroke: #1f77b4; stroke-width: 0.7"/>
     <use xlink:href="#mfc9dc658c0" x="87.077397" y="78.933546" style="fill-opacity: 0; stroke: #1f77b4; stroke-width: 0.7"/>
     <use xlink:href="#mfc9dc658c0" x="88.908145" y="80.0412" style="fill-opacity: 0; stroke: #1f77b4; stroke-width: 0.7"/>
     <use xlink:href="#mfc9dc658c0" x="90.748786" y="81.735849" style="fill-opacity: 0; stroke: #1f77b4; stroke-width: 0.7"/>
     <use xlink:href="#mfc9dc658c0" x="92.597998" y="78.852182" style="fill-opacity: 0; stroke: #1f77b4; stroke-width: 0.7"/>
     <use xlink:href="#mfc9dc658c0" x="94.454499" y="80.477675" style="fill-opacity: 0; stroke: #1f77b4; stroke-width: 0.7"/>
     <use xlink:href="#mfc9dc658c0" x="96.317044" y="90.032753" style="fill-opacity: 0; stroke: #1f77b4; stroke-width: 0.7"/>
     <use xlink:href="#mfc9dc658c0" x="98.18443" y="87.157643" style="fill-opacity: 0; stroke: #1f77b4; stroke-width: 0.7"/>
     <use xlink:href="#mfc9dc658c0" x="100.055497" y="90.560929" style="fill-opacity: 0; stroke: #1f77b4; stroke-width: 0.7"/>
     <use xlink:href="#mfc9dc658c0" x="101.929129" y="89.103971" style="fill-opacity: 0; stroke: #1f77b4; stroke-width: 0.7"/>
     <use xlink:href="#mfc9dc658c0" x="103.804251" y="89.439593" style="fill-opacity: 0; stroke: #1f77b4; stroke-width: 0.7"/>
     <use xlink:href="#mfc9dc658c0" x="105.679837" y="92.47224" style="fill-opacity: 0; stroke: #1f77b4; stroke-width: 0.7"/>
     <use xlink:href="#mfc9dc658c0" x="107.554907" y="93.912952" style="fill-opacity: 0; stroke: #1f77b4; stroke-width: 0.7"/>
     <use xlink:href="#mfc9dc658c0" x="109.428525" y="94.566252" style="fill-opacity: 0; stroke: #1f77b4; stroke-width: 0.7"/>
     <use xlink:href="#mfc9dc658c0" x="111.299807" y="100.600595" style="fill-opacity: 0; stroke: #1f77b4; stroke-width: 0.7"/>
     <use xlink:href="#mfc9dc658c0" x="113.167914" y="100.342639" style="fill-opacity: 0; stroke: #1f77b4; stroke-width: 0.7"/>
     <use xlink:href="#mfc9dc658c0" x="115.032059" y="101.761027" style="fill-opacity: 0; stroke: #1f77b4; stroke-width: 0.7"/>
     <use xlink:href="#mfc9dc658c0" x="116.891503" y="100.037282" style="fill-opacity: 0; stroke: #1f77b4; stroke-width: 0.7"/>
     <use xlink:href="#mfc9dc658c0" x="118.745555" y="108.466761" style="fill-opacity: 0; stroke: #1f77b4; stroke-width: 0.7"/>
     <use xlink:href="#mfc9dc658c0" x="120.593578" y="107.961401" style="fill-opacity: 0; stroke: #1f77b4; stroke-width: 0.7"/>
     <use xlink:href="#mfc9dc658c0" x="122.434981" y="108.238558" style="fill-opacity: 0; stroke: #1f77b4; stroke-width: 0.7"/>
     <use xlink:href="#mfc9dc658c0" x="124.269227" y="110.100186" style="fill-opacity: 0; stroke: #1f77b4; stroke-width: 0.7"/>
     <use xlink:href="#mfc9dc658c0" x="126.095826" y="114.427464" style="fill-opacity: 0; stroke: #1f77b4; stroke-width: 0.7"/>
     <use xlink:href="#mfc9dc658c0" x="127.914341" y="115.525992" style="fill-opacity: 0; stroke: #1f77b4; stroke-width: 0.7"/>
     <use xlink:href="#mfc9dc658c0" x="129.724382" y="116.292906" style="fill-opacity: 0; stroke: #1f77b4; stroke-width: 0.7"/>
     <use xlink:href="#mfc9dc658c0" x="131.525611" y="113.753782" style="fill-opacity: 0; stroke: #1f77b4; stroke-width: 0.7"/>
     <use xlink:href="#mfc9dc658c0" x="133.317739" y="117.755001" style="fill-opacity: 0; stroke: #1f77b4; stroke-width: 0.7"/>
     <use xlink:href="#mfc9dc658c0" x="135.100525" y="121.033024" style="fill-opacity: 0; stroke: #1f77b4; stroke-width: 0.7"/>
     <use xlink:href="#mfc9dc658c0" x="136.873776" y="119.067836" style="fill-opacity: 0; stroke: #1f77b4; stroke-width: 0.7"/>
     <use xlink:href="#mfc9dc658c0" x="138.637347" y="122.368797" style="fill-opacity: 0; stroke: #1f77b4; stroke-width: 0.7"/>
     <use xlink:href="#mfc9dc658c0" x="140.391142" y="109.171126" style="fill-opacity: 0; stroke: #1f77b4; stroke-width: 0.7"/>
     <use xlink:href="#mfc9dc658c0" x="142.135107" y="110.798766" style="fill-opacity: 0; stroke: #1f77b4; stroke-width: 0.7"/>
     <use xlink:href="#mfc9dc658c0" x="143.869238" y="111.818216" style="fill-opacity: 0; stroke: #1f77b4; stroke-width: 0.7"/>
     <use xlink:href="#mfc9dc658c0" x="145.593572" y="113.170618" style="fill-opacity: 0; stroke: #1f77b4; stroke-width: 0.7"/>
     <use xlink:href="#mfc9dc658c0" x="147.308191" y="112.179671" style="fill-opacity: 0; stroke: #1f77b4; stroke-width: 0.7"/>
     <use xlink:href="#mfc9dc658c0" x="149.013218" y="115.601927" style="fill-opacity: 0; stroke: #1f77b4; stroke-width: 0.7"/>
     <use xlink:href="#mfc9dc658c0" x="150.70882" y="119.293278" style="fill-opacity: 0; stroke: #1f77b4; stroke-width: 0.7"/>
     <use xlink:href="#mfc9dc658c0" x="152.395201" y="121.723676" style="fill-opacity: 0; stroke: #1f77b4; stroke-width: 0.7"/>
     <use xlink:href="#mfc9dc658c0" x="154.072604" y="124.979584" style="fill-opacity: 0; stroke: #1f77b4; stroke-width: 0.7"/>
     <use xlink:href="#mfc9dc658c0" x="155.741311" y="122.136947" style="fill-opacity: 0; stroke: #1f77b4; stroke-width: 0.7"/>
     <use xlink:href="#mfc9dc658c0" x="157.401639" y="127.748111" style="fill-opacity: 0; stroke: #1f77b4; stroke-width: 0.7"/>
     <use xlink:href="#mfc9dc658c0" x="159.053938" y="127.879869" style="fill-opacity: 0; stroke: #1f77b4; stroke-width: 0.7"/>
     <use xlink:href="#mfc9dc658c0" x="160.698593" y="128.13213" style="fill-opacity: 0; stroke: #1f77b4; stroke-width: 0.7"/>
     <use xlink:href="#mfc9dc658c0" x="162.336018" y="126.893819" style="fill-opacity: 0; stroke: #1f77b4; stroke-width: 0.7"/>
     <use xlink:href="#mfc9dc658c0" x="163.966658" y="126.577765" style="fill-opacity: 0; stroke: #1f77b4; stroke-width: 0.7"/>
     <use xlink:href="#mfc9dc658c0" x="165.590986" y="128.350122" style="fill-opacity: 0; stroke: #1f77b4; stroke-width: 0.7"/>
     <use xlink:href="#mfc9dc658c0" x="167.209499" y="131.017788" style="fill-opacity: 0; stroke: #1f77b4; stroke-width: 0.7"/>
     <use xlink:href="#mfc9dc658c0" x="168.82272" y="126.581829" style="fill-opacity: 0; stroke: #1f77b4; stroke-width: 0.7"/>
     <use xlink:href="#mfc9dc658c0" x="170.431192" y="129.113908" style="fill-opacity: 0; stroke: #1f77b4; stroke-width: 0.7"/>
     <use xlink:href="#mfc9dc658c0" x="172.03548" y="127.886794" style="fill-opacity: 0; stroke: #1f77b4; stroke-width: 0.7"/>
     <use xlink:href="#mfc9dc658c0" x="173.636166" y="134.513068" style="fill-opacity: 0; stroke: #1f77b4; stroke-width: 0.7"/>
     <use xlink:href="#mfc9dc658c0" x="175.233848" y="129.619258" style="fill-opacity: 0; stroke: #1f77b4; stroke-width: 0.7"/>
     <use xlink:href="#mfc9dc658c0" x="176.829139" y="130.296024" style="fill-opacity: 0; stroke: #1f77b4; stroke-width: 0.7"/>
     <use xlink:href="#mfc9dc658c0" x="178.422661" y="131.459551" style="fill-opacity: 0; stroke: #1f77b4; stroke-width: 0.7"/>
     <use xlink:href="#mfc9dc658c0" x="180.015049" y="128.088232" style="fill-opacity: 0; stroke: #1f77b4; stroke-width: 0.7"/>
     <use xlink:href="#mfc9dc658c0" x="181.606942" y="132.213466" style="fill-opacity: 0; stroke: #1f77b4; stroke-width: 0.7"/>
     <use xlink:href="#mfc9dc658c0" x="183.198984" y="127.952557" style="fill-opacity: 0; stroke: #1f77b4; stroke-width: 0.7"/>
     <use xlink:href="#mfc9dc658c0" x="184.791823" y="129.593051" style="fill-opacity: 0; stroke: #1f77b4; stroke-width: 0.7"/>
     <use xlink:href="#mfc9dc658c0" x="186.386105" y="132.6799" style="fill-opacity: 0; stroke: #1f77b4; stroke-width: 0.7"/>
     <use xlink:href="#mfc9dc658c0" x="187.982475" y="132.386905" style="fill-opacity: 0; stroke: #1f77b4; stroke-width: 0.7"/>
     <use xlink:href="#mfc9dc658c0" x="189.581573" y="134.828988" style="fill-opacity: 0; stroke: #1f77b4; stroke-width: 0.7"/>
     <use xlink:href="#mfc9dc658c0" x="191.184028" y="133.880348" style="fill-opacity: 0; stroke: #1f77b4; stroke-width: 0.7"/>
     <use xlink:href="#mfc9dc658c0" x="192.790462" y="131.745839" style="fill-opacity: 0; stroke: #1f77b4; stroke-width: 0.7"/>
     <use xlink:href="#mfc9dc658c0" x="194.401483" y="135.36458" style="fill-opacity: 0; stroke: #1f77b4; stroke-width: 0.7"/>
     <use xlink:href="#mfc9dc658c0" x="196.017683" y="135.921796" style="fill-opacity: 0; stroke: #1f77b4; stroke-width: 0.7"/>
     <use xlink:href="#mfc9dc658c0" x="197.639636" y="135.043292" style="fill-opacity: 0; stroke: #1f77b4; stroke-width: 0.7"/>
     <use xlink:href="#mfc9dc658c0" x="199.267894" y="137.230399" style="fill-opacity: 0; stroke: #1f77b4; stroke-width: 0.7"/>
     <use xlink:href="#mfc9dc658c0" x="200.902986" y="135.727222" style="fill-opacity: 0; stroke: #1f77b4; stroke-width: 0.7"/>
     <use xlink:href="#mfc9dc658c0" x="202.545411" y="137.294621" style="fill-opacity: 0; stroke: #1f77b4; stroke-width: 0.7"/>
     <use xlink:href="#mfc9dc658c0" x="204.195643" y="136.799952" style="fill-opacity: 0; stroke: #1f77b4; stroke-width: 0.7"/>
     <use xlink:href="#mfc9dc658c0" x="205.854119" y="135.26542" style="fill-opacity: 0; stroke: #1f77b4; stroke-width: 0.7"/>
     <use xlink:href="#mfc9dc658c0" x="207.521241" y="134.873357" style="fill-opacity: 0; stroke: #1f77b4; stroke-width: 0.7"/>
     <use xlink:href="#mfc9dc658c0" x="209.197374" y="139.97016" style="fill-opacity: 0; stroke: #1f77b4; stroke-width: 0.7"/>
     <use xlink:href="#mfc9dc658c0" x="210.882839" y="138.237927" style="fill-opacity: 0; stroke: #1f77b4; stroke-width: 0.7"/>
     <use xlink:href="#mfc9dc658c0" x="212.577913" y="135.989204" style="fill-opacity: 0; stroke: #1f77b4; stroke-width: 0.7"/>
     <use xlink:href="#mfc9dc658c0" x="214.282824" y="136.573345" style="fill-opacity: 0; stroke: #1f77b4; stroke-width: 0.7"/>
     <use xlink:href="#mfc9dc658c0" x="215.997749" y="137.349708" style="fill-opacity: 0; stroke: #1f77b4; stroke-width: 0.7"/>
     <use xlink:href="#mfc9dc658c0" x="217.72281" y="138.862681" style="fill-opacity: 0; stroke: #1f77b4; stroke-width: 0.7"/>
     <use xlink:href="#mfc9dc658c0" x="219.458071" y="140.770537" style="fill-opacity: 0; stroke: #1f77b4; stroke-width: 0.7"/>
     <use xlink:href="#mfc9dc658c0" x="221.203536" y="138.204339" style="fill-opacity: 0; stroke: #1f77b4; stroke-width: 0.7"/>
     <use xlink:href="#mfc9dc658c0" x="222.959143" y="136.960813" style="fill-opacity: 0; stroke: #1f77b4; stroke-width: 0.7"/>
     <use xlink:href="#mfc9dc658c0" x="224.724762" y="136.94694" style="fill-opacity: 0; stroke: #1f77b4; stroke-width: 0.7"/>
     <use xlink:href="#mfc9dc658c0" x="226.500193" y="137.569605" style="fill-opacity: 0; stroke: #1f77b4; stroke-width: 0.7"/>
     <use xlink:href="#mfc9dc658c0" x="228.285158" y="138.522463" style="fill-opacity: 0; stroke: #1f77b4; stroke-width: 0.7"/>
     <use xlink:href="#mfc9dc658c0" x="230.079304" y="137.870235" style="fill-opacity: 0; stroke: #1f77b4; stroke-width: 0.7"/>
     <use xlink:href="#mfc9dc658c0" x="231.882195" y="141.367333" style="fill-opacity: 0; stroke: #1f77b4; stroke-width: 0.7"/>
     <use xlink:href="#mfc9dc658c0" x="233.693307" y="145.607969" style="fill-opacity: 0; stroke: #1f77b4; stroke-width: 0.7"/>
     <use xlink:href="#mfc9dc658c0" x="235.51203" y="140.456184" style="fill-opacity: 0; stroke: #1f77b4; stroke-width: 0.7"/>
     <use xlink:href="#mfc9dc658c0" x="237.337658" y="141.525013" style="fill-opacity: 0; stroke: #1f77b4; stroke-width: 0.7"/>
     <use xlink:href="#mfc9dc658c0" x="239.169391" y="142.09105" style="fill-opacity: 0; stroke: #1f77b4; stroke-width: 0.7"/>
     <use xlink:href="#mfc9dc658c0" x="241.006326" y="142.022212" style="fill-opacity: 0; stroke: #1f77b4; stroke-width: 0.7"/>
     <use xlink:href="#mfc9dc658c0" x="242.847457" y="139.525912" style="fill-opacity: 0; stroke: #1f77b4; stroke-width: 0.7"/>
     <use xlink:href="#mfc9dc658c0" x="244.691669" y="140.768052" style="fill-opacity: 0; stroke: #1f77b4; stroke-width: 0.7"/>
     <use xlink:href="#mfc9dc658c0" x="246.537734" y="138.797487" style="fill-opacity: 0; stroke: #1f77b4; stroke-width: 0.7"/>
     <use xlink:href="#mfc9dc658c0" x="248.384309" y="137.942723" style="fill-opacity: 0; stroke: #1f77b4; stroke-width: 0.7"/>
     <use xlink:href="#mfc9dc658c0" x="250.229929" y="136.407922" style="fill-opacity: 0; stroke: #1f77b4; stroke-width: 0.7"/>
     <use xlink:href="#mfc9dc658c0" x="252.073007" y="137.929779" style="fill-opacity: 0; stroke: #1f77b4; stroke-width: 0.7"/>
     <use xlink:href="#mfc9dc658c0" x="253.911823" y="140.813435" style="fill-opacity: 0; stroke: #1f77b4; stroke-width: 0.7"/>
     <use xlink:href="#mfc9dc658c0" x="255.744528" y="137.755257" style="fill-opacity: 0; stroke: #1f77b4; stroke-width: 0.7"/>
     <use xlink:href="#mfc9dc658c0" x="257.569133" y="140.236397" style="fill-opacity: 0; stroke: #1f77b4; stroke-width: 0.7"/>
     <use xlink:href="#mfc9dc658c0" x="259.383509" y="138.273594" style="fill-opacity: 0; stroke: #1f77b4; stroke-width: 0.7"/>
     <use xlink:href="#mfc9dc658c0" x="261.185378" y="139.762533" style="fill-opacity: 0; stroke: #1f77b4; stroke-width: 0.7"/>
     <use xlink:href="#mfc9dc658c0" x="262.972313" y="137.982858" style="fill-opacity: 0; stroke: #1f77b4; stroke-width: 0.7"/>
     <use xlink:href="#mfc9dc658c0" x="264.741733" y="140.213563" style="fill-opacity: 0; stroke: #1f77b4; stroke-width: 0.7"/>
     <use xlink:href="#mfc9dc658c0" x="266.490894" y="138.564018" style="fill-opacity: 0; stroke: #1f77b4; stroke-width: 0.7"/>
     <use xlink:href="#mfc9dc658c0" x="268.216888" y="135.258304" style="fill-opacity: 0; stroke: #1f77b4; stroke-width: 0.7"/>
     <use xlink:href="#mfc9dc658c0" x="269.916638" y="140.087185" style="fill-opacity: 0; stroke: #1f77b4; stroke-width: 0.7"/>
     <use xlink:href="#mfc9dc658c0" x="271.586892" y="138.153508" style="fill-opacity: 0; stroke: #1f77b4; stroke-width: 0.7"/>
     <use xlink:href="#mfc9dc658c0" x="273.224218" y="137.482737" style="fill-opacity: 0; stroke: #1f77b4; stroke-width: 0.7"/>
     <use xlink:href="#mfc9dc658c0" x="274.824999" y="140.044001" style="fill-opacity: 0; stroke: #1f77b4; stroke-width: 0.7"/>
     <use xlink:href="#mfc9dc658c0" x="276.385427" y="137.008368" style="fill-opacity: 0; stroke: #1f77b4; stroke-width: 0.7"/>
     <use xlink:href="#mfc9dc658c0" x="277.901501" y="139.647745" style="fill-opacity: 0; stroke: #1f77b4; stroke-width: 0.7"/>
     <use xlink:href="#mfc9dc658c0" x="279.369018" y="140.008684" style="fill-opacity: 0; stroke: #1f77b4; stroke-width: 0.7"/>
     <use xlink:href="#mfc9dc658c0" x="280.783568" y="136.797314" style="fill-opacity: 0; stroke: #1f77b4; stroke-width: 0.7"/>
     <use xlink:href="#mfc9dc658c0" x="282.14053" y="136.665939" style="fill-opacity: 0; stroke: #1f77b4; stroke-width: 0.7"/>
     <use xlink:href="#mfc9dc658c0" x="283.435065" y="134.881919" style="fill-opacity: 0; stroke: #1f77b4; stroke-width: 0.7"/>
     <use xlink:href="#mfc9dc658c0" x="284.662111" y="137.593651" style="fill-opacity: 0; stroke: #1f77b4; stroke-width: 0.7"/>
     <use xlink:href="#mfc9dc658c0" x="285.816374" y="140.870059" style="fill-opacity: 0; stroke: #1f77b4; stroke-width: 0.7"/>
     <use xlink:href="#mfc9dc658c0" x="286.892329" y="140.279564" style="fill-opacity: 0; stroke: #1f77b4; stroke-width: 0.7"/>
     <use xlink:href="#mfc9dc658c0" x="287.884206" y="141.194311" style="fill-opacity: 0; stroke: #1f77b4; stroke-width: 0.7"/>
    </g>
   </g>
   <g id="line2d_19">
    <path d="M 52.117905 162.252413 
L 39.42889 162.252413 
L 287.884206 162.252413 
L 287.884206 162.252413 
" clip-path="url(#p05ce9e83fc)" style="fill: none; stroke-dasharray: 7.4,3.2; stroke-dashoffset: 0; stroke: #ff7f0e; stroke-width: 2"/>
   </g>
   <g id="patch_3">
    <path d="M 40.5 192.24 
L 40.5 25.92 
" style="fill: none; stroke: #000000; stroke-width: 0.8; stroke-linejoin: miter; stroke-linecap: square"/>
   </g>
   <g id="patch_4">
    <path d="M 291.6 192.24 
L 291.6 25.92 
" style="fill: none; stroke: #000000; stroke-width: 0.8; stroke-linejoin: miter; stroke-linecap: square"/>
   </g>
   <g id="patch_5">
    <path d="M 40.5 192.24 
L 291.6 192.24 
" style="fill: none; stroke: #000000; stroke-width: 0.8; stroke-linejoin: miter; stroke-linecap: square"/>
   </g>
   <g id="patch_6">
    <path d="M 40.5 25.92 
L 291.6 25.92 
" style="fill: none; stroke: #000000; stroke-width: 0.8; stroke-linejoin: miter; stroke-linecap: square"/>
   </g>
  </g>
 </g>
 <defs>
  <clipPath id="p05ce9e83fc">
   <rect x="40.5" y="25.92" width="251.1" height="166.32"/>
  </clipPath>
 </defs>
</svg>
