<?xml version="1.0" encoding="utf-8" standalone="no"?>
<!DOCTYPE svg PUBLIC "-//W3C//DTD SVG 1.1//EN"
  "http://www.w3.org/Graphics/SVG/1.1/DTD/svg11.dtd">
<svg xmlns:xlink="http://www.w3.org/1999/xlink" width="235.8pt" height="144pt" viewBox="0 0 235.8 144" xmlns="http://www.w3.org/2000/svg" version="1.1">
 <metadata>
  <rdf:RDF xmlns:dc="http://purl.org/dc/elements/1.1/" xmlns:cc="http://creativecommons.org/ns#" xmlns:rdf="http://www.w3.org/1999/02/22-rdf-syntax-ns#">
   <cc:Work>
    <dc:type rdf:resource="http://purl.org/dc/dcmitype/StillImage"/>
    <dc:date>2022-04-29T11:59:44.684670</dc:date>
    <dc:format>image/svg+xml</dc:format>
    <dc:creator>
     <cc:Agent>
      <dc:title>Matplotlib v3.5.1, https://matplotlib.org/</dc:title>
     </cc:Agent>
    </dc:creator>
   </cc:Work>
  </rdf:RDF>
 </metadata>
 <defs>
  <style type="text/css">*{stroke-linejoin: round; stroke-linecap: butt}</style>
 </defs>
 <g id="figure_1">
  <g id="patch_1">
   <path d="M 0 144 
L 235.8 144 
L 235.8 0 
L 0 0 
z
" style="fill: #ffffff"/>
  </g>
  <g id="axes_1">
   <g id="patch_2">
    <path d="M 29.475 128.16 
L 212.22 128.16 
L 212.22 17.28 
L 29.475 17.28 
z
" style="fill: #ffffff"/>
   </g>
   <g id="matplotlib.axis_1">
    <g id="xtick_1">
     <g id="line2d_1">
      <defs>
       <path id="m9ca8a57911" d="M 0 0 
L 0 3.5 
" style="stroke: #000000; stroke-width: 0.8"/>
      </defs>
      <g>
       <use xlink:href="#m9ca8a57911" x="45.580002" y="128.16" style="stroke: #000000; stroke-width: 0.8"/>
      </g>
     </g>
     <g id="text_1">
      <!-- 25 -->
      <g transform="translate(38.263127 143.898203)scale(0.115 -0.115)">
       <defs>
        <path id="DejaVuSans-32" d="M 1228 531 
L 3431 531 
L 3431 0 
L 469 0 
L 469 531 
Q 828 903 1448 1529 
Q 2069 2156 2228 2338 
Q 2531 2678 2651 2914 
Q 2772 3150 2772 3378 
Q 2772 3750 2511 3984 
Q 2250 4219 1831 4219 
Q 1534 4219 1204 4116 
Q 875 4013 500 3803 
L 500 4441 
Q 881 4594 1212 4672 
Q 1544 4750 1819 4750 
Q 2544 4750 2975 4387 
Q 3406 4025 3406 3419 
Q 3406 3131 3298 2873 
Q 3191 2616 2906 2266 
Q 2828 2175 2409 1742 
Q 1991 1309 1228 531 
z
" transform="scale(0.015625)"/>
        <path id="DejaVuSans-35" d="M 691 4666 
L 3169 4666 
L 3169 4134 
L 1269 4134 
L 1269 2991 
Q 1406 3038 1543 3061 
Q 1681 3084 1819 3084 
Q 2600 3084 3056 2656 
Q 3513 2228 3513 1497 
Q 3513 744 3044 326 
Q 2575 -91 1722 -91 
Q 1428 -91 1123 -41 
Q 819 9 494 109 
L 494 744 
Q 775 591 1075 516 
Q 1375 441 1709 441 
Q 2250 441 2565 725 
Q 2881 1009 2881 1497 
Q 2881 1984 2565 2268 
Q 2250 2553 1709 2553 
Q 1456 2553 1204 2497 
Q 953 2441 691 2322 
L 691 4666 
z
" transform="scale(0.015625)"/>
       </defs>
       <use xlink:href="#DejaVuSans-32"/>
       <use xlink:href="#DejaVuSans-35" x="63.623047"/>
      </g>
     </g>
    </g>
    <g id="xtick_2">
     <g id="line2d_2">
      <g>
       <use xlink:href="#m9ca8a57911" x="81.221735" y="128.16" style="stroke: #000000; stroke-width: 0.8"/>
      </g>
     </g>
     <g id="text_2">
      <!-- 50 -->
      <g transform="translate(73.90486 143.898203)scale(0.115 -0.115)">
       <defs>
        <path id="DejaVuSans-30" d="M 2034 4250 
Q 1547 4250 1301 3770 
Q 1056 3291 1056 2328 
Q 1056 1369 1301 889 
Q 1547 409 2034 409 
Q 2525 409 2770 889 
Q 3016 1369 3016 2328 
Q 3016 3291 2770 3770 
Q 2525 4250 2034 4250 
z
M 2034 4750 
Q 2819 4750 3233 4129 
Q 3647 3509 3647 2328 
Q 3647 1150 3233 529 
Q 2819 -91 2034 -91 
Q 1250 -91 836 529 
Q 422 1150 422 2328 
Q 422 3509 836 4129 
Q 1250 4750 2034 4750 
z
" transform="scale(0.015625)"/>
       </defs>
       <use xlink:href="#DejaVuSans-35"/>
       <use xlink:href="#DejaVuSans-30" x="63.623047"/>
      </g>
     </g>
    </g>
    <g id="xtick_3">
     <g id="line2d_3">
      <g>
       <use xlink:href="#m9ca8a57911" x="116.863467" y="128.16" style="stroke: #000000; stroke-width: 0.8"/>
      </g>
     </g>
     <g id="text_3">
      <!-- 75 -->
      <g transform="translate(109.546592 143.898203)scale(0.115 -0.115)">
       <defs>
        <path id="DejaVuSans-37" d="M 525 4666 
L 3525 4666 
L 3525 4397 
L 1831 0 
L 1172 0 
L 2766 4134 
L 525 4134 
L 525 4666 
z
" transform="scale(0.015625)"/>
       </defs>
       <use xlink:href="#DejaVuSans-37"/>
       <use xlink:href="#DejaVuSans-35" x="63.623047"/>
      </g>
     </g>
    </g>
    <g id="xtick_4">
     <g id="line2d_4">
      <g>
       <use xlink:href="#m9ca8a57911" x="152.5052" y="128.16" style="stroke: #000000; stroke-width: 0.8"/>
      </g>
     </g>
     <g id="text_4">
      <!-- 100 -->
      <g transform="translate(141.529887 143.898203)scale(0.115 -0.115)">
       <defs>
        <path id="DejaVuSans-31" d="M 794 531 
L 1825 531 
L 1825 4091 
L 703 3866 
L 703 4441 
L 1819 4666 
L 2450 4666 
L 2450 531 
L 3481 531 
L 3481 0 
L 794 0 
L 794 531 
z
" transform="scale(0.015625)"/>
       </defs>
       <use xlink:href="#DejaVuSans-31"/>
       <use xlink:href="#DejaVuSans-30" x="63.623047"/>
       <use xlink:href="#DejaVuSans-30" x="127.246094"/>
      </g>
     </g>
    </g>
    <g id="xtick_5">
     <g id="line2d_5">
      <g>
       <use xlink:href="#m9ca8a57911" x="188.146932" y="128.16" style="stroke: #000000; stroke-width: 0.8"/>
      </g>
     </g>
     <g id="text_5">
      <!-- 125 -->
      <g transform="translate(177.17162 143.898203)scale(0.115 -0.115)">
       <use xlink:href="#DejaVuSans-31"/>
       <use xlink:href="#DejaVuSans-32" x="63.623047"/>
       <use xlink:href="#DejaVuSans-35" x="127.246094"/>
      </g>
     </g>
    </g>
   </g>
   <g id="matplotlib.axis_2">
    <g id="ytick_1">
     <g id="line2d_6">
      <defs>
       <path id="m91a9a395c6" d="M 0 0 
L -3.5 0 
" style="stroke: #000000; stroke-width: 0.8"/>
      </defs>
      <g>
       <use xlink:href="#m91a9a395c6" x="29.475" y="115.405714" style="stroke: #000000; stroke-width: 0.8"/>
      </g>
     </g>
     <g id="text_6">
      <!-- 2875 -->
      <g transform="translate(-6.7925 119.774816)scale(0.115 -0.115)">
       <defs>
        <path id="DejaVuSans-38" d="M 2034 2216 
Q 1584 2216 1326 1975 
Q 1069 1734 1069 1313 
Q 1069 891 1326 650 
Q 1584 409 2034 409 
Q 2484 409 2743 651 
Q 3003 894 3003 1313 
Q 3003 1734 2745 1975 
Q 2488 2216 2034 2216 
z
M 1403 2484 
Q 997 2584 770 2862 
Q 544 3141 544 3541 
Q 544 4100 942 4425 
Q 1341 4750 2034 4750 
Q 2731 4750 3128 4425 
Q 3525 4100 3525 3541 
Q 3525 3141 3298 2862 
Q 3072 2584 2669 2484 
Q 3125 2378 3379 2068 
Q 3634 1759 3634 1313 
Q 3634 634 3220 271 
Q 2806 -91 2034 -91 
Q 1263 -91 848 271 
Q 434 634 434 1313 
Q 434 1759 690 2068 
Q 947 2378 1403 2484 
z
M 1172 3481 
Q 1172 3119 1398 2916 
Q 1625 2713 2034 2713 
Q 2441 2713 2670 2916 
Q 2900 3119 2900 3481 
Q 2900 3844 2670 4047 
Q 2441 4250 2034 4250 
Q 1625 4250 1398 4047 
Q 1172 3844 1172 3481 
z
" transform="scale(0.015625)"/>
       </defs>
       <use xlink:href="#DejaVuSans-32"/>
       <use xlink:href="#DejaVuSans-38" x="63.623047"/>
       <use xlink:href="#DejaVuSans-37" x="127.246094"/>
       <use xlink:href="#DejaVuSans-35" x="190.869141"/>
      </g>
     </g>
    </g>
    <g id="ytick_2">
     <g id="line2d_7">
      <g>
       <use xlink:href="#m91a9a395c6" x="29.475" y="89.691429" style="stroke: #000000; stroke-width: 0.8"/>
      </g>
     </g>
     <g id="text_7">
      <!-- 2900 -->
      <g transform="translate(-6.7925 94.06053)scale(0.115 -0.115)">
       <defs>
        <path id="DejaVuSans-39" d="M 703 97 
L 703 672 
Q 941 559 1184 500 
Q 1428 441 1663 441 
Q 2288 441 2617 861 
Q 2947 1281 2994 2138 
Q 2813 1869 2534 1725 
Q 2256 1581 1919 1581 
Q 1219 1581 811 2004 
Q 403 2428 403 3163 
Q 403 3881 828 4315 
Q 1253 4750 1959 4750 
Q 2769 4750 3195 4129 
Q 3622 3509 3622 2328 
Q 3622 1225 3098 567 
Q 2575 -91 1691 -91 
Q 1453 -91 1209 -44 
Q 966 3 703 97 
z
M 1959 2075 
Q 2384 2075 2632 2365 
Q 2881 2656 2881 3163 
Q 2881 3666 2632 3958 
Q 2384 4250 1959 4250 
Q 1534 4250 1286 3958 
Q 1038 3666 1038 3163 
Q 1038 2656 1286 2365 
Q 1534 2075 1959 2075 
z
" transform="scale(0.015625)"/>
       </defs>
       <use xlink:href="#DejaVuSans-32"/>
       <use xlink:href="#DejaVuSans-39" x="63.623047"/>
       <use xlink:href="#DejaVuSans-30" x="127.246094"/>
       <use xlink:href="#DejaVuSans-30" x="190.869141"/>
      </g>
     </g>
    </g>
    <g id="ytick_3">
     <g id="line2d_8">
      <g>
       <use xlink:href="#m91a9a395c6" x="29.475" y="63.977143" style="stroke: #000000; stroke-width: 0.8"/>
      </g>
     </g>
     <g id="text_8">
      <!-- 2925 -->
      <g transform="translate(-6.7925 68.346244)scale(0.115 -0.115)">
       <use xlink:href="#DejaVuSans-32"/>
       <use xlink:href="#DejaVuSans-39" x="63.623047"/>
       <use xlink:href="#DejaVuSans-32" x="127.246094"/>
       <use xlink:href="#DejaVuSans-35" x="190.869141"/>
      </g>
     </g>
    </g>
    <g id="ytick_4">
     <g id="line2d_9">
      <g>
       <use xlink:href="#m91a9a395c6" x="29.475" y="38.262857" style="stroke: #000000; stroke-width: 0.8"/>
      </g>
     </g>
     <g id="text_9">
      <!-- 2950 -->
      <g transform="translate(-6.7925 42.631959)scale(0.115 -0.115)">
       <use xlink:href="#DejaVuSans-32"/>
       <use xlink:href="#DejaVuSans-39" x="63.623047"/>
       <use xlink:href="#DejaVuSans-35" x="127.246094"/>
       <use xlink:href="#DejaVuSans-30" x="190.869141"/>
      </g>
     </g>
    </g>
   </g>
   <g id="line2d_10">
    <path d="M 37.781591 123.12 
L 39.637812 123.12 
L 40.565923 122.605714 
L 44.278366 122.605714 
L 45.206477 122.091429 
L 47.990809 122.091429 
L 48.91892 121.577143 
L 50.775141 121.577143 
L 51.703252 121.062857 
L 53.559473 121.062857 
L 54.487584 120.548571 
L 56.343805 120.548571 
L 57.271916 120.034286 
L 59.128137 120.034286 
L 60.056248 119.52 
L 61.91247 119.52 
L 62.84058 119.005714 
L 63.768691 119.005714 
L 64.696802 118.491429 
L 65.624912 118.491429 
L 66.553023 117.977143 
L 68.409245 117.977143 
L 69.337355 117.462857 
L 71.193577 117.462857 
L 72.121687 116.948571 
L 73.049798 116.948571 
L 73.977909 116.434286 
L 74.90602 116.434286 
L 75.83413 115.92 
L 77.690352 115.92 
L 78.618462 115.405714 
L 79.546573 115.405714 
L 80.474684 114.891429 
L 81.402795 114.891429 
L 82.330905 114.377143 
L 83.259016 114.377143 
L 84.187127 113.862857 
L 86.043348 113.862857 
L 86.971459 113.348571 
L 87.89957 113.348571 
L 88.82768 112.834286 
L 89.755791 112.834286 
L 90.683902 112.32 
L 91.612012 112.32 
L 92.540123 111.805714 
L 94.396345 111.805714 
L 96.252566 110.777143 
L 98.108787 110.777143 
L 99.965009 109.748571 
L 101.82123 109.748571 
L 102.749341 109.234286 
L 103.677452 109.234286 
L 104.605562 108.72 
L 105.533673 108.72 
L 107.389895 107.691429 
L 108.318005 107.691429 
L 109.246116 107.177143 
L 111.102337 107.177143 
L 112.030448 106.662857 
L 112.958559 106.662857 
L 114.81478 105.634286 
L 115.742891 105.634286 
L 116.671002 104.605714 
L 119.455334 104.605714 
L 121.311555 103.577143 
L 122.239666 103.577143 
L 123.167777 103.062857 
L 124.095888 103.062857 
L 125.023998 102.548571 
L 125.952109 102.548571 
L 127.80833 101.52 
L 128.736441 101.52 
L 129.664552 101.005714 
L 130.592663 101.005714 
L 132.448884 99.977143 
L 134.305105 99.977143 
L 135.233216 98.948571 
L 136.161327 98.948571 
L 137.089438 98.434286 
L 138.017548 98.434286 
L 138.945659 97.92 
L 139.87377 97.92 
L 142.658102 96.377143 
L 143.586213 96.377143 
L 144.514323 95.862857 
L 145.442434 95.862857 
L 148.226766 94.32 
L 149.154877 94.32 
L 150.082988 93.805714 
L 151.011098 93.805714 
L 151.939209 93.291429 
L 152.86732 93.291429 
L 153.79543 92.262857 
L 154.723541 92.262857 
L 155.651652 91.234286 
L 156.579763 91.234286 
L 157.507873 90.72 
L 158.435984 90.72 
L 159.364095 90.205714 
L 160.292205 90.205714 
L 162.148427 89.177143 
L 163.076538 89.177143 
L 165.86087 87.634286 
L 166.78898 87.634286 
L 170.501423 85.577143 
L 171.429534 85.577143 
L 174.213866 84.034286 
L 175.141977 84.034286 
L 177.926309 82.491429 
L 178.85442 82.491429 
L 180.710641 81.462857 
L 181.638752 81.462857 
L 182.566863 80.434286 
L 183.494973 80.434286 
L 184.423084 79.92 
L 185.351195 79.92 
L 189.991748 77.348571 
L 190.919859 77.348571 
L 191.84797 76.32 
L 192.77608 76.32 
L 195.560413 74.777143 
L 196.488523 74.777143 
L 198.344745 73.748571 
L 199.272856 73.748571 
L 202.057188 72.205714 
L 202.985298 72.205714 
L 203.913409 71.691429 
L 203.913409 71.691429 
" clip-path="url(#p8ca0ee7206)" style="fill: none; stroke: #1f77b4; stroke-width: 2; stroke-linecap: square"/>
   </g>
   <g id="line2d_11">
    <path d="M 37.781591 113.862857 
L 40.565923 113.862857 
L 41.494034 113.348571 
L 44.278366 113.348571 
L 45.206477 112.834286 
L 47.990809 112.834286 
L 48.91892 112.32 
L 50.775141 112.32 
L 51.703252 111.805714 
L 53.559473 111.805714 
L 54.487584 111.291429 
L 56.343805 111.291429 
L 57.271916 110.777143 
L 59.128137 110.777143 
L 60.056248 110.262857 
L 61.91247 110.262857 
L 62.84058 109.748571 
L 63.768691 109.748571 
L 64.696802 109.234286 
L 65.624912 109.234286 
L 66.553023 108.72 
L 67.481134 108.72 
L 68.409245 108.205714 
L 69.337355 108.205714 
L 70.265466 107.691429 
L 71.193577 107.691429 
L 72.121687 107.177143 
L 73.049798 107.177143 
L 73.977909 106.662857 
L 74.90602 106.662857 
L 76.762241 105.634286 
L 77.690352 105.634286 
L 78.618462 104.605714 
L 80.474684 104.605714 
L 81.402795 104.091429 
L 82.330905 104.091429 
L 84.187127 103.062857 
L 85.115237 103.062857 
L 87.89957 101.52 
L 88.82768 101.52 
L 91.612012 99.977143 
L 92.540123 99.977143 
L 97.180677 97.405714 
L 98.108787 97.405714 
L 105.533673 93.291429 
L 106.461784 93.291429 
L 109.246116 91.748571 
L 110.174227 90.72 
L 111.102337 90.72 
L 113.88667 89.177143 
L 114.81478 88.148571 
L 115.742891 88.148571 
L 118.527223 86.605714 
L 119.455334 85.577143 
L 127.80833 80.948571 
L 128.736441 79.92 
L 133.376995 77.348571 
L 134.305105 76.32 
L 138.945659 73.748571 
L 139.87377 72.72 
L 143.586213 70.662857 
L 144.514323 69.634286 
L 148.226766 67.577143 
L 149.154877 66.548571 
L 151.011098 65.52 
L 151.939209 64.491429 
L 153.79543 63.462857 
L 154.723541 62.434286 
L 157.507873 60.891429 
L 159.364095 58.834286 
L 162.148427 57.291429 
L 164.004648 55.234286 
L 164.932759 54.72 
L 165.86087 53.691429 
L 167.717091 52.662857 
L 168.645202 51.634286 
L 169.573313 51.12 
L 170.501423 50.091429 
L 172.357645 49.062857 
L 173.285755 48.034286 
L 174.213866 47.52 
L 175.141977 46.491429 
L 176.070088 45.977143 
L 176.998198 44.948571 
L 177.926309 44.434286 
L 178.85442 43.405714 
L 179.78253 42.891429 
L 180.710641 41.862857 
L 181.638752 41.348571 
L 183.494973 39.291429 
L 184.423084 38.777143 
L 185.351195 37.748571 
L 186.279305 37.234286 
L 187.207416 36.205714 
L 188.135527 35.691429 
L 189.063638 34.662857 
L 189.991748 34.148571 
L 190.919859 33.12 
L 191.84797 32.605714 
L 192.77608 31.577143 
L 194.632302 30.548571 
L 196.488523 28.491429 
L 197.416634 27.977143 
L 199.272856 25.92 
L 200.200966 25.405714 
L 201.129077 24.377143 
L 202.985298 23.348571 
L 203.913409 22.32 
L 203.913409 22.32 
" clip-path="url(#p8ca0ee7206)" style="fill: none; stroke: #ff7f0e; stroke-width: 2; stroke-linecap: square"/>
   </g>
   <g id="patch_3">
    <path d="M 29.475 128.16 
L 29.475 17.28 
" style="fill: none; stroke: #000000; stroke-width: 0.8; stroke-linejoin: miter; stroke-linecap: square"/>
   </g>
   <g id="patch_4">
    <path d="M 212.22 128.16 
L 212.22 17.28 
" style="fill: none; stroke: #000000; stroke-width: 0.8; stroke-linejoin: miter; stroke-linecap: square"/>
   </g>
   <g id="patch_5">
    <path d="M 29.475 128.16 
L 212.22 128.16 
" style="fill: none; stroke: #000000; stroke-width: 0.8; stroke-linejoin: miter; stroke-linecap: square"/>
   </g>
   <g id="patch_6">
    <path d="M 29.475 17.28 
L 212.22 17.28 
" style="fill: none; stroke: #000000; stroke-width: 0.8; stroke-linejoin: miter; stroke-linecap: square"/>
   </g>
  </g>
 </g>
 <defs>
  <clipPath id="p8ca0ee7206">
   <rect x="29.475" y="17.28" width="182.745" height="110.88"/>
  </clipPath>
 </defs>
</svg>
