<?xml version="1.0" encoding="utf-8" standalone="no"?>
<!DOCTYPE svg PUBLIC "-//W3C//DTD SVG 1.1//EN"
  "http://www.w3.org/Graphics/SVG/1.1/DTD/svg11.dtd">
<svg xmlns:xlink="http://www.w3.org/1999/xlink" width="659.52pt" height="458.64pt" viewBox="0 0 659.52 458.64" xmlns="http://www.w3.org/2000/svg" version="1.1">
 <metadata>
  <rdf:RDF xmlns:dc="http://purl.org/dc/elements/1.1/" xmlns:cc="http://creativecommons.org/ns#" xmlns:rdf="http://www.w3.org/1999/02/22-rdf-syntax-ns#">
   <cc:Work>
    <dc:type rdf:resource="http://purl.org/dc/dcmitype/StillImage"/>
    <dc:date>2022-03-09T15:37:07.358947</dc:date>
    <dc:format>image/svg+xml</dc:format>
    <dc:creator>
     <cc:Agent>
      <dc:title>Matplotlib v3.5.1, https://matplotlib.org/</dc:title>
     </cc:Agent>
    </dc:creator>
   </cc:Work>
  </rdf:RDF>
 </metadata>
 <defs>
  <style type="text/css">*{stroke-linejoin: round; stroke-linecap: butt}</style>
 </defs>
 <g id="figure_1">
  <g id="patch_1">
   <path d="M 0 458.64 
L 659.52 458.64 
L 659.52 0 
L 0 0 
z
" style="fill: #ffffff"/>
  </g>
  <g id="axes_1">
   <g id="patch_2">
    <path d="M 82.44 408.1896 
L 593.568 408.1896 
L 593.568 55.0368 
L 82.44 55.0368 
z
" style="fill: #ffffff"/>
   </g>
   <g id="matplotlib.axis_1">
    <g id="xtick_1">
     <g id="line2d_1">
      <defs>
       <path id="m1b756b08e7" d="M 0 0 
L 0 3.5 
" style="stroke: #000000; stroke-width: 0.8"/>
      </defs>
      <g>
       <use xlink:href="#m1b756b08e7" x="122.718239" y="408.1896" style="stroke: #000000; stroke-width: 0.8"/>
      </g>
     </g>
     <g id="text_1">
      <!-- −40 -->
      <g transform="translate(101.613551 430.386475)scale(0.2 -0.2)">
       <defs>
        <path id="DejaVuSans-2212" d="M 678 2272 
L 4684 2272 
L 4684 1741 
L 678 1741 
L 678 2272 
z
" transform="scale(0.015625)"/>
        <path id="DejaVuSans-34" d="M 2419 4116 
L 825 1625 
L 2419 1625 
L 2419 4116 
z
M 2253 4666 
L 3047 4666 
L 3047 1625 
L 3713 1625 
L 3713 1100 
L 3047 1100 
L 3047 0 
L 2419 0 
L 2419 1100 
L 313 1100 
L 313 1709 
L 2253 4666 
z
" transform="scale(0.015625)"/>
        <path id="DejaVuSans-30" d="M 2034 4250 
Q 1547 4250 1301 3770 
Q 1056 3291 1056 2328 
Q 1056 1369 1301 889 
Q 1547 409 2034 409 
Q 2525 409 2770 889 
Q 3016 1369 3016 2328 
Q 3016 3291 2770 3770 
Q 2525 4250 2034 4250 
z
M 2034 4750 
Q 2819 4750 3233 4129 
Q 3647 3509 3647 2328 
Q 3647 1150 3233 529 
Q 2819 -91 2034 -91 
Q 1250 -91 836 529 
Q 422 1150 422 2328 
Q 422 3509 836 4129 
Q 1250 4750 2034 4750 
z
" transform="scale(0.015625)"/>
       </defs>
       <use xlink:href="#DejaVuSans-2212"/>
       <use xlink:href="#DejaVuSans-34" x="83.789062"/>
       <use xlink:href="#DejaVuSans-30" x="147.412109"/>
      </g>
     </g>
    </g>
    <g id="xtick_2">
     <g id="line2d_2">
      <g>
       <use xlink:href="#m1b756b08e7" x="230.161796" y="408.1896" style="stroke: #000000; stroke-width: 0.8"/>
      </g>
     </g>
     <g id="text_2">
      <!-- −20 -->
      <g transform="translate(209.057109 430.386475)scale(0.2 -0.2)">
       <defs>
        <path id="DejaVuSans-32" d="M 1228 531 
L 3431 531 
L 3431 0 
L 469 0 
L 469 531 
Q 828 903 1448 1529 
Q 2069 2156 2228 2338 
Q 2531 2678 2651 2914 
Q 2772 3150 2772 3378 
Q 2772 3750 2511 3984 
Q 2250 4219 1831 4219 
Q 1534 4219 1204 4116 
Q 875 4013 500 3803 
L 500 4441 
Q 881 4594 1212 4672 
Q 1544 4750 1819 4750 
Q 2544 4750 2975 4387 
Q 3406 4025 3406 3419 
Q 3406 3131 3298 2873 
Q 3191 2616 2906 2266 
Q 2828 2175 2409 1742 
Q 1991 1309 1228 531 
z
" transform="scale(0.015625)"/>
       </defs>
       <use xlink:href="#DejaVuSans-2212"/>
       <use xlink:href="#DejaVuSans-32" x="83.789062"/>
       <use xlink:href="#DejaVuSans-30" x="147.412109"/>
      </g>
     </g>
    </g>
    <g id="xtick_3">
     <g id="line2d_3">
      <g>
       <use xlink:href="#m1b756b08e7" x="337.605354" y="408.1896" style="stroke: #000000; stroke-width: 0.8"/>
      </g>
     </g>
     <g id="text_3">
      <!-- 0 -->
      <g transform="translate(331.242854 430.386475)scale(0.2 -0.2)">
       <use xlink:href="#DejaVuSans-30"/>
      </g>
     </g>
    </g>
    <g id="xtick_4">
     <g id="line2d_4">
      <g>
       <use xlink:href="#m1b756b08e7" x="445.048912" y="408.1896" style="stroke: #000000; stroke-width: 0.8"/>
      </g>
     </g>
     <g id="text_4">
      <!-- 20 -->
      <g transform="translate(432.323912 430.386475)scale(0.2 -0.2)">
       <use xlink:href="#DejaVuSans-32"/>
       <use xlink:href="#DejaVuSans-30" x="63.623047"/>
      </g>
     </g>
    </g>
    <g id="xtick_5">
     <g id="line2d_5">
      <g>
       <use xlink:href="#m1b756b08e7" x="552.49247" y="408.1896" style="stroke: #000000; stroke-width: 0.8"/>
      </g>
     </g>
     <g id="text_5">
      <!-- 40 -->
      <g transform="translate(539.76747 430.386475)scale(0.2 -0.2)">
       <use xlink:href="#DejaVuSans-34"/>
       <use xlink:href="#DejaVuSans-30" x="63.623047"/>
      </g>
     </g>
    </g>
    <g id="text_6">
     <!-- $\Delta \nu$ (MHz) -->
     <g transform="translate(293.104 453.742725)scale(0.2 -0.2)">
      <defs>
       <path id="DejaVuSans-394" d="M 2188 4044 
L 906 525 
L 3472 525 
L 2188 4044 
z
M 50 0 
L 1831 4666 
L 2547 4666 
L 4325 0 
L 50 0 
z
" transform="scale(0.015625)"/>
       <path id="DejaVuSans-Oblique-3bd" d="M 959 0 
L 572 3500 
L 1191 3500 
L 1522 563 
Q 1972 950 2391 1488 
Q 2706 1891 2788 2241 
Q 2825 2406 2809 2719 
Q 2794 3091 2544 3500 
L 3125 3500 
L 3125 3500 
Q 3288 3222 3353 2834 
Q 3416 2478 3369 2234 
Q 3250 1622 2719 1075 
Q 2025 363 1572 0 
L 959 0 
z
" transform="scale(0.015625)"/>
       <path id="DejaVuSans-20" transform="scale(0.015625)"/>
       <path id="DejaVuSans-28" d="M 1984 4856 
Q 1566 4138 1362 3434 
Q 1159 2731 1159 2009 
Q 1159 1288 1364 580 
Q 1569 -128 1984 -844 
L 1484 -844 
Q 1016 -109 783 600 
Q 550 1309 550 2009 
Q 550 2706 781 3412 
Q 1013 4119 1484 4856 
L 1984 4856 
z
" transform="scale(0.015625)"/>
       <path id="DejaVuSans-4d" d="M 628 4666 
L 1569 4666 
L 2759 1491 
L 3956 4666 
L 4897 4666 
L 4897 0 
L 4281 0 
L 4281 4097 
L 3078 897 
L 2444 897 
L 1241 4097 
L 1241 0 
L 628 0 
L 628 4666 
z
" transform="scale(0.015625)"/>
       <path id="DejaVuSans-48" d="M 628 4666 
L 1259 4666 
L 1259 2753 
L 3553 2753 
L 3553 4666 
L 4184 4666 
L 4184 0 
L 3553 0 
L 3553 2222 
L 1259 2222 
L 1259 0 
L 628 0 
L 628 4666 
z
" transform="scale(0.015625)"/>
       <path id="DejaVuSans-7a" d="M 353 3500 
L 3084 3500 
L 3084 2975 
L 922 459 
L 3084 459 
L 3084 0 
L 275 0 
L 275 525 
L 2438 3041 
L 353 3041 
L 353 3500 
z
" transform="scale(0.015625)"/>
       <path id="DejaVuSans-29" d="M 513 4856 
L 1013 4856 
Q 1481 4119 1714 3412 
Q 1947 2706 1947 2009 
Q 1947 1309 1714 600 
Q 1481 -109 1013 -844 
L 513 -844 
Q 928 -128 1133 580 
Q 1338 1288 1338 2009 
Q 1338 2731 1133 3434 
Q 928 4138 513 4856 
z
" transform="scale(0.015625)"/>
      </defs>
      <use xlink:href="#DejaVuSans-394" transform="translate(0 0.125)"/>
      <use xlink:href="#DejaVuSans-Oblique-3bd" transform="translate(68.408203 0.125)"/>
      <use xlink:href="#DejaVuSans-20" transform="translate(124.267578 0.125)"/>
      <use xlink:href="#DejaVuSans-28" transform="translate(156.054688 0.125)"/>
      <use xlink:href="#DejaVuSans-4d" transform="translate(195.068359 0.125)"/>
      <use xlink:href="#DejaVuSans-48" transform="translate(281.347656 0.125)"/>
      <use xlink:href="#DejaVuSans-7a" transform="translate(356.542969 0.125)"/>
      <use xlink:href="#DejaVuSans-29" transform="translate(409.033203 0.125)"/>
     </g>
    </g>
   </g>
   <g id="matplotlib.axis_2">
    <g id="ytick_1">
     <g id="line2d_6">
      <defs>
       <path id="m259bdc6bc5" d="M 0 0 
L -3.5 0 
" style="stroke: #000000; stroke-width: 0.8"/>
      </defs>
      <g>
       <use xlink:href="#m259bdc6bc5" x="82.44" y="393.557163" style="stroke: #000000; stroke-width: 0.8"/>
      </g>
     </g>
     <g id="text_7">
      <!-- 0.0 -->
      <g transform="translate(43.63375 401.155601)scale(0.2 -0.2)">
       <defs>
        <path id="DejaVuSans-2e" d="M 684 794 
L 1344 794 
L 1344 0 
L 684 0 
L 684 794 
z
" transform="scale(0.015625)"/>
       </defs>
       <use xlink:href="#DejaVuSans-30"/>
       <use xlink:href="#DejaVuSans-2e" x="63.623047"/>
       <use xlink:href="#DejaVuSans-30" x="95.410156"/>
      </g>
     </g>
    </g>
    <g id="ytick_2">
     <g id="line2d_7">
      <g>
       <use xlink:href="#m259bdc6bc5" x="82.44" y="329.063571" style="stroke: #000000; stroke-width: 0.8"/>
      </g>
     </g>
     <g id="text_8">
      <!-- 0.2 -->
      <g transform="translate(43.63375 336.662008)scale(0.2 -0.2)">
       <use xlink:href="#DejaVuSans-30"/>
       <use xlink:href="#DejaVuSans-2e" x="63.623047"/>
       <use xlink:href="#DejaVuSans-32" x="95.410156"/>
      </g>
     </g>
    </g>
    <g id="ytick_3">
     <g id="line2d_8">
      <g>
       <use xlink:href="#m259bdc6bc5" x="82.44" y="264.569978" style="stroke: #000000; stroke-width: 0.8"/>
      </g>
     </g>
     <g id="text_9">
      <!-- 0.4 -->
      <g transform="translate(43.63375 272.168416)scale(0.2 -0.2)">
       <use xlink:href="#DejaVuSans-30"/>
       <use xlink:href="#DejaVuSans-2e" x="63.623047"/>
       <use xlink:href="#DejaVuSans-34" x="95.410156"/>
      </g>
     </g>
    </g>
    <g id="ytick_4">
     <g id="line2d_9">
      <g>
       <use xlink:href="#m259bdc6bc5" x="82.44" y="200.076385" style="stroke: #000000; stroke-width: 0.8"/>
      </g>
     </g>
     <g id="text_10">
      <!-- 0.6 -->
      <g transform="translate(43.63375 207.674823)scale(0.2 -0.2)">
       <defs>
        <path id="DejaVuSans-36" d="M 2113 2584 
Q 1688 2584 1439 2293 
Q 1191 2003 1191 1497 
Q 1191 994 1439 701 
Q 1688 409 2113 409 
Q 2538 409 2786 701 
Q 3034 994 3034 1497 
Q 3034 2003 2786 2293 
Q 2538 2584 2113 2584 
z
M 3366 4563 
L 3366 3988 
Q 3128 4100 2886 4159 
Q 2644 4219 2406 4219 
Q 1781 4219 1451 3797 
Q 1122 3375 1075 2522 
Q 1259 2794 1537 2939 
Q 1816 3084 2150 3084 
Q 2853 3084 3261 2657 
Q 3669 2231 3669 1497 
Q 3669 778 3244 343 
Q 2819 -91 2113 -91 
Q 1303 -91 875 529 
Q 447 1150 447 2328 
Q 447 3434 972 4092 
Q 1497 4750 2381 4750 
Q 2619 4750 2861 4703 
Q 3103 4656 3366 4563 
z
" transform="scale(0.015625)"/>
       </defs>
       <use xlink:href="#DejaVuSans-30"/>
       <use xlink:href="#DejaVuSans-2e" x="63.623047"/>
       <use xlink:href="#DejaVuSans-36" x="95.410156"/>
      </g>
     </g>
    </g>
    <g id="ytick_5">
     <g id="line2d_10">
      <g>
       <use xlink:href="#m259bdc6bc5" x="82.44" y="135.582793" style="stroke: #000000; stroke-width: 0.8"/>
      </g>
     </g>
     <g id="text_11">
      <!-- 0.8 -->
      <g transform="translate(43.63375 143.18123)scale(0.2 -0.2)">
       <defs>
        <path id="DejaVuSans-38" d="M 2034 2216 
Q 1584 2216 1326 1975 
Q 1069 1734 1069 1313 
Q 1069 891 1326 650 
Q 1584 409 2034 409 
Q 2484 409 2743 651 
Q 3003 894 3003 1313 
Q 3003 1734 2745 1975 
Q 2488 2216 2034 2216 
z
M 1403 2484 
Q 997 2584 770 2862 
Q 544 3141 544 3541 
Q 544 4100 942 4425 
Q 1341 4750 2034 4750 
Q 2731 4750 3128 4425 
Q 3525 4100 3525 3541 
Q 3525 3141 3298 2862 
Q 3072 2584 2669 2484 
Q 3125 2378 3379 2068 
Q 3634 1759 3634 1313 
Q 3634 634 3220 271 
Q 2806 -91 2034 -91 
Q 1263 -91 848 271 
Q 434 634 434 1313 
Q 434 1759 690 2068 
Q 947 2378 1403 2484 
z
M 1172 3481 
Q 1172 3119 1398 2916 
Q 1625 2713 2034 2713 
Q 2441 2713 2670 2916 
Q 2900 3119 2900 3481 
Q 2900 3844 2670 4047 
Q 2441 4250 2034 4250 
Q 1625 4250 1398 4047 
Q 1172 3844 1172 3481 
z
" transform="scale(0.015625)"/>
       </defs>
       <use xlink:href="#DejaVuSans-30"/>
       <use xlink:href="#DejaVuSans-2e" x="63.623047"/>
       <use xlink:href="#DejaVuSans-38" x="95.410156"/>
      </g>
     </g>
    </g>
    <g id="ytick_6">
     <g id="line2d_11">
      <g>
       <use xlink:href="#m259bdc6bc5" x="82.44" y="71.0892" style="stroke: #000000; stroke-width: 0.8"/>
      </g>
     </g>
     <g id="text_12">
      <!-- 1.0 -->
      <g transform="translate(43.63375 78.687637)scale(0.2 -0.2)">
       <defs>
        <path id="DejaVuSans-31" d="M 794 531 
L 1825 531 
L 1825 4091 
L 703 3866 
L 703 4441 
L 1819 4666 
L 2450 4666 
L 2450 531 
L 3481 531 
L 3481 0 
L 794 0 
L 794 531 
z
" transform="scale(0.015625)"/>
       </defs>
       <use xlink:href="#DejaVuSans-31"/>
       <use xlink:href="#DejaVuSans-2e" x="63.623047"/>
       <use xlink:href="#DejaVuSans-30" x="95.410156"/>
      </g>
     </g>
    </g>
    <g id="text_13">
     <!-- ODMR relative contrast -->
     <g transform="translate(35.474375 348.077262)rotate(-90)scale(0.2 -0.2)">
      <defs>
       <path id="DejaVuSans-4f" d="M 2522 4238 
Q 1834 4238 1429 3725 
Q 1025 3213 1025 2328 
Q 1025 1447 1429 934 
Q 1834 422 2522 422 
Q 3209 422 3611 934 
Q 4013 1447 4013 2328 
Q 4013 3213 3611 3725 
Q 3209 4238 2522 4238 
z
M 2522 4750 
Q 3503 4750 4090 4092 
Q 4678 3434 4678 2328 
Q 4678 1225 4090 567 
Q 3503 -91 2522 -91 
Q 1538 -91 948 565 
Q 359 1222 359 2328 
Q 359 3434 948 4092 
Q 1538 4750 2522 4750 
z
" transform="scale(0.015625)"/>
       <path id="DejaVuSans-44" d="M 1259 4147 
L 1259 519 
L 2022 519 
Q 2988 519 3436 956 
Q 3884 1394 3884 2338 
Q 3884 3275 3436 3711 
Q 2988 4147 2022 4147 
L 1259 4147 
z
M 628 4666 
L 1925 4666 
Q 3281 4666 3915 4102 
Q 4550 3538 4550 2338 
Q 4550 1131 3912 565 
Q 3275 0 1925 0 
L 628 0 
L 628 4666 
z
" transform="scale(0.015625)"/>
       <path id="DejaVuSans-52" d="M 2841 2188 
Q 3044 2119 3236 1894 
Q 3428 1669 3622 1275 
L 4263 0 
L 3584 0 
L 2988 1197 
Q 2756 1666 2539 1819 
Q 2322 1972 1947 1972 
L 1259 1972 
L 1259 0 
L 628 0 
L 628 4666 
L 2053 4666 
Q 2853 4666 3247 4331 
Q 3641 3997 3641 3322 
Q 3641 2881 3436 2590 
Q 3231 2300 2841 2188 
z
M 1259 4147 
L 1259 2491 
L 2053 2491 
Q 2509 2491 2742 2702 
Q 2975 2913 2975 3322 
Q 2975 3731 2742 3939 
Q 2509 4147 2053 4147 
L 1259 4147 
z
" transform="scale(0.015625)"/>
       <path id="DejaVuSans-72" d="M 2631 2963 
Q 2534 3019 2420 3045 
Q 2306 3072 2169 3072 
Q 1681 3072 1420 2755 
Q 1159 2438 1159 1844 
L 1159 0 
L 581 0 
L 581 3500 
L 1159 3500 
L 1159 2956 
Q 1341 3275 1631 3429 
Q 1922 3584 2338 3584 
Q 2397 3584 2469 3576 
Q 2541 3569 2628 3553 
L 2631 2963 
z
" transform="scale(0.015625)"/>
       <path id="DejaVuSans-65" d="M 3597 1894 
L 3597 1613 
L 953 1613 
Q 991 1019 1311 708 
Q 1631 397 2203 397 
Q 2534 397 2845 478 
Q 3156 559 3463 722 
L 3463 178 
Q 3153 47 2828 -22 
Q 2503 -91 2169 -91 
Q 1331 -91 842 396 
Q 353 884 353 1716 
Q 353 2575 817 3079 
Q 1281 3584 2069 3584 
Q 2775 3584 3186 3129 
Q 3597 2675 3597 1894 
z
M 3022 2063 
Q 3016 2534 2758 2815 
Q 2500 3097 2075 3097 
Q 1594 3097 1305 2825 
Q 1016 2553 972 2059 
L 3022 2063 
z
" transform="scale(0.015625)"/>
       <path id="DejaVuSans-6c" d="M 603 4863 
L 1178 4863 
L 1178 0 
L 603 0 
L 603 4863 
z
" transform="scale(0.015625)"/>
       <path id="DejaVuSans-61" d="M 2194 1759 
Q 1497 1759 1228 1600 
Q 959 1441 959 1056 
Q 959 750 1161 570 
Q 1363 391 1709 391 
Q 2188 391 2477 730 
Q 2766 1069 2766 1631 
L 2766 1759 
L 2194 1759 
z
M 3341 1997 
L 3341 0 
L 2766 0 
L 2766 531 
Q 2569 213 2275 61 
Q 1981 -91 1556 -91 
Q 1019 -91 701 211 
Q 384 513 384 1019 
Q 384 1609 779 1909 
Q 1175 2209 1959 2209 
L 2766 2209 
L 2766 2266 
Q 2766 2663 2505 2880 
Q 2244 3097 1772 3097 
Q 1472 3097 1187 3025 
Q 903 2953 641 2809 
L 641 3341 
Q 956 3463 1253 3523 
Q 1550 3584 1831 3584 
Q 2591 3584 2966 3190 
Q 3341 2797 3341 1997 
z
" transform="scale(0.015625)"/>
       <path id="DejaVuSans-74" d="M 1172 4494 
L 1172 3500 
L 2356 3500 
L 2356 3053 
L 1172 3053 
L 1172 1153 
Q 1172 725 1289 603 
Q 1406 481 1766 481 
L 2356 481 
L 2356 0 
L 1766 0 
Q 1100 0 847 248 
Q 594 497 594 1153 
L 594 3053 
L 172 3053 
L 172 3500 
L 594 3500 
L 594 4494 
L 1172 4494 
z
" transform="scale(0.015625)"/>
       <path id="DejaVuSans-69" d="M 603 3500 
L 1178 3500 
L 1178 0 
L 603 0 
L 603 3500 
z
M 603 4863 
L 1178 4863 
L 1178 4134 
L 603 4134 
L 603 4863 
z
" transform="scale(0.015625)"/>
       <path id="DejaVuSans-76" d="M 191 3500 
L 800 3500 
L 1894 563 
L 2988 3500 
L 3597 3500 
L 2284 0 
L 1503 0 
L 191 3500 
z
" transform="scale(0.015625)"/>
       <path id="DejaVuSans-63" d="M 3122 3366 
L 3122 2828 
Q 2878 2963 2633 3030 
Q 2388 3097 2138 3097 
Q 1578 3097 1268 2742 
Q 959 2388 959 1747 
Q 959 1106 1268 751 
Q 1578 397 2138 397 
Q 2388 397 2633 464 
Q 2878 531 3122 666 
L 3122 134 
Q 2881 22 2623 -34 
Q 2366 -91 2075 -91 
Q 1284 -91 818 406 
Q 353 903 353 1747 
Q 353 2603 823 3093 
Q 1294 3584 2113 3584 
Q 2378 3584 2631 3529 
Q 2884 3475 3122 3366 
z
" transform="scale(0.015625)"/>
       <path id="DejaVuSans-6f" d="M 1959 3097 
Q 1497 3097 1228 2736 
Q 959 2375 959 1747 
Q 959 1119 1226 758 
Q 1494 397 1959 397 
Q 2419 397 2687 759 
Q 2956 1122 2956 1747 
Q 2956 2369 2687 2733 
Q 2419 3097 1959 3097 
z
M 1959 3584 
Q 2709 3584 3137 3096 
Q 3566 2609 3566 1747 
Q 3566 888 3137 398 
Q 2709 -91 1959 -91 
Q 1206 -91 779 398 
Q 353 888 353 1747 
Q 353 2609 779 3096 
Q 1206 3584 1959 3584 
z
" transform="scale(0.015625)"/>
       <path id="DejaVuSans-6e" d="M 3513 2113 
L 3513 0 
L 2938 0 
L 2938 2094 
Q 2938 2591 2744 2837 
Q 2550 3084 2163 3084 
Q 1697 3084 1428 2787 
Q 1159 2491 1159 1978 
L 1159 0 
L 581 0 
L 581 3500 
L 1159 3500 
L 1159 2956 
Q 1366 3272 1645 3428 
Q 1925 3584 2291 3584 
Q 2894 3584 3203 3211 
Q 3513 2838 3513 2113 
z
" transform="scale(0.015625)"/>
       <path id="DejaVuSans-73" d="M 2834 3397 
L 2834 2853 
Q 2591 2978 2328 3040 
Q 2066 3103 1784 3103 
Q 1356 3103 1142 2972 
Q 928 2841 928 2578 
Q 928 2378 1081 2264 
Q 1234 2150 1697 2047 
L 1894 2003 
Q 2506 1872 2764 1633 
Q 3022 1394 3022 966 
Q 3022 478 2636 193 
Q 2250 -91 1575 -91 
Q 1294 -91 989 -36 
Q 684 19 347 128 
L 347 722 
Q 666 556 975 473 
Q 1284 391 1588 391 
Q 1994 391 2212 530 
Q 2431 669 2431 922 
Q 2431 1156 2273 1281 
Q 2116 1406 1581 1522 
L 1381 1569 
Q 847 1681 609 1914 
Q 372 2147 372 2553 
Q 372 3047 722 3315 
Q 1072 3584 1716 3584 
Q 2034 3584 2315 3537 
Q 2597 3491 2834 3397 
z
" transform="scale(0.015625)"/>
      </defs>
      <use xlink:href="#DejaVuSans-4f"/>
      <use xlink:href="#DejaVuSans-44" x="78.710938"/>
      <use xlink:href="#DejaVuSans-4d" x="155.712891"/>
      <use xlink:href="#DejaVuSans-52" x="241.992188"/>
      <use xlink:href="#DejaVuSans-20" x="311.474609"/>
      <use xlink:href="#DejaVuSans-72" x="343.261719"/>
      <use xlink:href="#DejaVuSans-65" x="382.125"/>
      <use xlink:href="#DejaVuSans-6c" x="443.648438"/>
      <use xlink:href="#DejaVuSans-61" x="471.431641"/>
      <use xlink:href="#DejaVuSans-74" x="532.710938"/>
      <use xlink:href="#DejaVuSans-69" x="571.919922"/>
      <use xlink:href="#DejaVuSans-76" x="599.703125"/>
      <use xlink:href="#DejaVuSans-65" x="658.882812"/>
      <use xlink:href="#DejaVuSans-20" x="720.40625"/>
      <use xlink:href="#DejaVuSans-63" x="752.193359"/>
      <use xlink:href="#DejaVuSans-6f" x="807.173828"/>
      <use xlink:href="#DejaVuSans-6e" x="868.355469"/>
      <use xlink:href="#DejaVuSans-74" x="931.734375"/>
      <use xlink:href="#DejaVuSans-72" x="970.943359"/>
      <use xlink:href="#DejaVuSans-61" x="1012.056641"/>
      <use xlink:href="#DejaVuSans-73" x="1073.335938"/>
      <use xlink:href="#DejaVuSans-74" x="1125.435547"/>
     </g>
    </g>
   </g>
   <g id="line2d_12">
    <path d="M 161.895677 388.267251 
L 162.540339 390.244075 
L 163.185 388.620099 
L 163.829661 387.792326 
L 164.474323 390.528014 
L 166.408307 389.248714 
L 167.052968 389.430508 
L 168.986952 389.071914 
L 169.631613 389.270186 
L 170.276275 388.212275 
L 170.920936 387.454064 
L 171.565598 386.132707 
L 172.210259 387.721532 
L 172.85492 389.637571 
L 173.499582 389.030272 
L 174.144243 389.439292 
L 174.788904 391.57148 
L 175.433566 390.659277 
L 176.078227 390.523176 
L 176.722888 390.855516 
L 177.36755 389.193668 
L 178.012211 386.972261 
L 178.656872 385.727337 
L 179.301534 387.804275 
L 179.946195 385.236004 
L 180.590856 383.848109 
L 181.235518 386.828705 
L 181.880179 388.81337 
L 182.52484 389.342906 
L 183.169502 388.273341 
L 183.814163 387.756268 
L 184.458824 387.816357 
L 185.103486 387.157303 
L 186.392808 389.014202 
L 187.03747 390.742827 
L 187.682131 390.444133 
L 188.326793 389.324853 
L 188.971454 386.908254 
L 189.616115 387.588498 
L 190.260777 389.19748 
L 191.550099 389.221701 
L 192.194761 389.888259 
L 192.839422 388.384461 
L 193.484083 385.646874 
L 194.128745 386.146379 
L 195.418067 388.669554 
L 196.062729 388.208041 
L 196.70739 388.031698 
L 197.352051 388.382232 
L 197.996713 388.530542 
L 198.641374 389.507673 
L 199.286035 389.67301 
L 199.930697 387.836809 
L 200.575358 387.188058 
L 201.220019 387.761564 
L 201.864681 386.939494 
L 202.509342 385.639391 
L 203.154003 387.010984 
L 204.443326 391.778395 
L 205.087988 390.044516 
L 205.732649 389.117058 
L 206.37731 391.494118 
L 207.021972 389.975797 
L 207.666633 387.779301 
L 208.311294 387.057225 
L 208.955956 387.910099 
L 209.600617 388.534677 
L 210.245278 388.895233 
L 210.88994 388.573098 
L 211.534601 387.556997 
L 212.823924 389.733148 
L 213.468585 386.957126 
L 214.113246 385.935307 
L 214.757908 387.315354 
L 215.402569 388.266245 
L 216.04723 388.624206 
L 216.691892 387.107911 
L 217.336553 386.627986 
L 217.981214 389.377262 
L 218.625876 389.144487 
L 219.270537 389.500809 
L 219.915198 388.868051 
L 221.204521 384.046339 
L 221.849183 385.460755 
L 222.493844 386.471982 
L 223.138505 384.393715 
L 224.427828 386.467642 
L 225.072489 385.777777 
L 225.717151 387.385184 
L 226.361812 387.045607 
L 227.006473 386.236752 
L 227.651135 384.991772 
L 228.295796 386.067878 
L 228.940457 386.736686 
L 229.585119 386.770634 
L 230.22978 389.090847 
L 230.874441 389.700375 
L 231.519103 387.714682 
L 232.163764 386.564971 
L 232.808425 384.603549 
L 234.097748 383.747743 
L 234.742409 384.852162 
L 235.387071 385.212233 
L 236.031732 385.41303 
L 237.965716 388.722843 
L 238.610378 388.506743 
L 239.255039 387.151129 
L 239.8997 386.266972 
L 240.544362 383.938707 
L 241.189023 382.705867 
L 241.833684 384.857324 
L 242.478346 387.483672 
L 243.123007 388.880373 
L 243.767668 387.334666 
L 245.056991 382.898097 
L 245.701652 381.810289 
L 246.346314 384.098171 
L 246.990975 388.816563 
L 247.635636 390.02571 
L 248.924959 386.078469 
L 249.56962 384.625506 
L 250.858943 390.174716 
L 251.503604 388.574497 
L 252.792927 386.207629 
L 253.437588 386.506865 
L 254.08225 386.599664 
L 254.726911 386.109534 
L 256.660895 386.827073 
L 257.305557 389.475476 
L 257.950218 390.601044 
L 258.594879 388.895866 
L 259.239541 387.771635 
L 259.884202 389.315393 
L 260.528863 390.176186 
L 261.173525 388.834462 
L 261.818186 388.839835 
L 262.462847 387.728157 
L 263.107509 387.730098 
L 264.396831 384.702502 
L 265.041493 386.653782 
L 265.686154 386.036701 
L 266.330815 384.947528 
L 266.975477 385.12961 
L 267.620138 385.69474 
L 268.264799 386.89295 
L 268.909461 386.949629 
L 269.554122 384.621771 
L 270.198784 382.973413 
L 270.843445 382.095586 
L 271.488106 383.494839 
L 272.132768 384.275253 
L 272.777429 386.108957 
L 273.42209 384.897553 
L 274.066752 382.182471 
L 274.711413 381.132971 
L 275.356074 381.088832 
L 276.645397 383.692007 
L 277.290058 383.508933 
L 277.93472 381.274642 
L 278.579381 380.282636 
L 279.224042 378.029877 
L 281.158026 373.906005 
L 282.447349 373.396127 
L 283.09201 370.756262 
L 283.736672 369.993086 
L 284.381333 371.101381 
L 285.025994 370.639333 
L 285.670656 366.565466 
L 286.315317 363.798651 
L 286.959979 362.900985 
L 287.60464 363.059971 
L 288.249301 363.379546 
L 288.893963 362.114088 
L 289.538624 361.411697 
L 290.183285 359.183884 
L 290.827947 357.401711 
L 291.472608 358.407845 
L 292.117269 358.020923 
L 292.761931 355.104554 
L 294.051253 352.550646 
L 294.695915 350.353061 
L 295.340576 348.785258 
L 296.629899 344.674027 
L 297.27456 344.114651 
L 297.919221 343.03797 
L 299.208544 335.30208 
L 299.853205 336.491118 
L 300.497867 336.522633 
L 301.142528 334.626914 
L 301.787189 333.228506 
L 302.431851 327.94345 
L 303.076512 324.897156 
L 303.721174 323.782125 
L 304.365835 321.950294 
L 305.010496 321.544137 
L 305.655158 319.903143 
L 306.299819 317.641693 
L 306.94448 312.810366 
L 307.589142 309.744599 
L 308.233803 308.070748 
L 308.878464 308.249665 
L 309.523126 305.508558 
L 310.167787 300.0415 
L 310.812448 296.967688 
L 311.45711 292.70206 
L 312.746432 282.32036 
L 313.391094 279.298206 
L 314.035755 276.845427 
L 314.680416 272.252315 
L 316.6144 245.977436 
L 317.903723 231.672926 
L 318.548384 222.565321 
L 324.350337 124.471478 
L 325.639659 107.330701 
L 326.284321 100.971957 
L 326.928982 95.992542 
L 327.573643 94.217789 
L 328.218305 93.708982 
L 328.862966 91.323882 
L 329.507627 89.668287 
L 330.152289 88.331099 
L 331.441611 91.304021 
L 332.086273 90.626221 
L 332.730934 87.669285 
L 333.375595 84.026095 
L 334.020257 82.716504 
L 334.664918 79.990957 
L 335.309579 75.417911 
L 335.954241 72.807844 
L 336.598902 71.0892 
L 337.243564 74.867553 
L 337.888225 83.332015 
L 338.532886 80.188884 
L 339.177548 74.28495 
L 339.822209 73.185466 
L 342.400854 84.432989 
L 343.045516 88.534145 
L 344.334838 93.122651 
L 344.9795 95.363303 
L 345.624161 96.723686 
L 346.913484 105.630982 
L 347.558145 105.196991 
L 348.202806 102.310122 
L 348.847468 101.712033 
L 350.781452 117.347857 
L 351.426113 123.919348 
L 352.715436 145.153082 
L 353.360097 153.484188 
L 354.004759 164.972271 
L 355.938743 204.834169 
L 357.872727 235.922669 
L 358.517388 244.509742 
L 359.162049 249.08449 
L 359.806711 256.546128 
L 361.096033 275.530825 
L 361.740695 282.52136 
L 362.385356 287.216823 
L 363.030017 290.727054 
L 363.674679 292.790696 
L 364.31934 294.329022 
L 364.964001 299.791846 
L 365.608663 306.997218 
L 366.253324 312.346131 
L 367.542647 313.925334 
L 368.831969 320.694098 
L 369.476631 321.6593 
L 370.121292 323.139824 
L 371.410615 332.008502 
L 372.055276 335.548098 
L 372.699938 338.103369 
L 373.344599 340.134084 
L 373.98926 341.020821 
L 374.633922 341.674761 
L 375.278583 342.540005 
L 375.923244 344.513184 
L 376.567906 345.405758 
L 377.212567 344.33926 
L 377.857228 342.711882 
L 378.50189 342.066072 
L 379.146551 346.50927 
L 379.791212 352.323933 
L 380.435874 356.273514 
L 381.080535 356.602513 
L 381.725196 355.527794 
L 382.369858 354.813166 
L 383.014519 352.581112 
L 383.65918 352.228848 
L 384.303842 353.552792 
L 384.948503 357.488342 
L 385.593165 362.65425 
L 386.237826 365.10002 
L 386.882487 366.553539 
L 387.527149 367.280642 
L 388.17181 367.490286 
L 388.816471 365.31906 
L 389.461133 366.375353 
L 390.105794 368.787597 
L 390.750455 368.089736 
L 391.395117 367.745757 
L 392.039778 369.68636 
L 392.684439 370.364902 
L 393.329101 370.473785 
L 393.973762 371.198294 
L 394.618423 373.743025 
L 395.263085 374.118371 
L 395.907746 375.602019 
L 396.552407 378.053676 
L 397.197069 379.907923 
L 398.486391 378.347588 
L 399.131053 378.344255 
L 399.775714 378.743231 
L 400.420375 380.382911 
L 401.065037 381.238915 
L 401.709698 381.353614 
L 402.999021 386.7536 
L 403.643682 386.94377 
L 404.288344 386.181776 
L 404.933005 386.219725 
L 406.222328 384.437516 
L 406.866989 386.682399 
L 407.51165 386.604538 
L 408.156312 389.281016 
L 408.800973 390.707839 
L 410.090296 388.222233 
L 410.734957 385.779374 
L 411.379618 386.598553 
L 412.02428 387.622727 
L 412.668941 388.338445 
L 413.313602 388.051945 
L 413.958264 388.434592 
L 414.602925 388.123737 
L 415.892248 386.228052 
L 416.536909 388.498148 
L 417.18157 389.200736 
L 417.826232 389.101473 
L 418.470893 386.443287 
L 419.115555 385.729011 
L 419.760216 387.091721 
L 420.404877 385.963038 
L 421.049539 385.232847 
L 422.338861 387.440708 
L 422.983523 387.299305 
L 423.628184 386.284962 
L 424.272845 385.966498 
L 424.917507 384.731196 
L 425.562168 387.322675 
L 426.206829 392.1372 
L 426.851491 390.346924 
L 427.496152 389.368407 
L 428.140813 388.907548 
L 428.785475 386.401421 
L 429.430136 384.763682 
L 430.074797 384.078465 
L 430.719459 385.804587 
L 431.36412 388.226861 
L 432.008781 388.851911 
L 432.653443 386.210653 
L 433.298104 384.919467 
L 433.942765 385.951497 
L 434.587427 386.771183 
L 435.87675 390.495255 
L 436.521411 390.654417 
L 437.166072 390.594145 
L 437.810734 389.736587 
L 438.455395 388.102062 
L 439.100056 388.420083 
L 439.744718 388.60547 
L 440.389379 389.311469 
L 441.03404 389.824484 
L 441.678702 387.947725 
L 442.323363 386.52034 
L 442.968024 389.104167 
L 443.612686 389.032066 
L 444.257347 389.7897 
L 444.902008 389.054986 
L 445.54667 387.587717 
L 446.191331 386.954559 
L 446.835992 384.938393 
L 447.480654 383.802255 
L 448.125315 386.004033 
L 448.769976 387.577316 
L 449.414638 388.24374 
L 450.059299 388.13006 
L 450.70396 389.960149 
L 451.348622 389.039281 
L 452.637945 381.692333 
L 453.282606 384.0744 
L 453.927267 388.741065 
L 454.571929 389.253813 
L 455.21659 388.617243 
L 455.861251 388.465108 
L 456.505913 383.854305 
L 457.150574 384.743806 
L 457.795235 388.28003 
L 458.439897 388.674196 
L 459.084558 389.860964 
L 459.729219 390.230986 
L 460.373881 387.904817 
L 461.018542 387.305276 
L 462.307865 389.859811 
L 462.952526 390.600495 
L 463.597187 391.690174 
L 464.241849 391.457476 
L 464.88651 389.145914 
L 465.531171 389.221687 
L 466.175833 389.573016 
L 466.820494 388.570221 
L 467.465155 387.935199 
L 468.109817 389.380377 
L 468.754478 389.819034 
L 469.39914 388.408929 
L 470.043801 387.903699 
L 470.688462 388.808321 
L 471.333124 387.87262 
L 471.977785 389.510535 
L 472.622446 391.950005 
L 473.911769 387.241304 
L 474.55643 386.920182 
L 475.201092 387.783141 
L 475.845753 387.633952 
L 476.490414 388.700956 
L 477.135076 391.079415 
L 477.779737 391.742605 
L 478.424398 389.711585 
L 479.06906 389.375433 
L 479.713721 390.322963 
L 480.358382 390.187024 
L 481.003044 389.258237 
L 481.647705 386.974363 
L 482.292366 388.725417 
L 482.937028 389.426049 
L 483.581689 389.250297 
L 483.581689 389.250297 
" clip-path="url(#pc66b75e42b)" style="fill: none; stroke-dasharray: 3.7,1.6; stroke-dashoffset: 0; stroke: #1f77b4"/>
   </g>
   <g id="patch_3">
    <path d="M 82.44 408.1896 
L 82.44 55.0368 
" style="fill: none; stroke: #000000; stroke-width: 0.8; stroke-linejoin: miter; stroke-linecap: square"/>
   </g>
   <g id="patch_4">
    <path d="M 593.568 408.1896 
L 593.568 55.0368 
" style="fill: none; stroke: #000000; stroke-width: 0.8; stroke-linejoin: miter; stroke-linecap: square"/>
   </g>
   <g id="patch_5">
    <path d="M 82.44 408.1896 
L 593.568 408.1896 
" style="fill: none; stroke: #000000; stroke-width: 0.8; stroke-linejoin: miter; stroke-linecap: square"/>
   </g>
   <g id="patch_6">
    <path d="M 82.44 55.0368 
L 593.568 55.0368 
" style="fill: none; stroke: #000000; stroke-width: 0.8; stroke-linejoin: miter; stroke-linecap: square"/>
   </g>
   <g id="legend_1">
    <g id="patch_7">
     <path d="M 89.44 240.452262 
L 237.604062 240.452262 
Q 239.604062 240.452262 239.604062 238.452262 
L 239.604062 224.774137 
Q 239.604062 222.774137 237.604062 222.774137 
L 89.44 222.774137 
Q 87.44 222.774137 87.44 224.774137 
L 87.44 238.452262 
Q 87.44 240.452262 89.44 240.452262 
z
" style="fill: #ffffff; opacity: 0.8; stroke: #cccccc; stroke-linejoin: miter"/>
    </g>
    <g id="line2d_13">
     <path d="M 91.44 230.872575 
L 101.44 230.872575 
L 111.44 230.872575 
" style="fill: none; stroke-dasharray: 3.7,1.6; stroke-dashoffset: 0; stroke: #1f77b4"/>
    </g>
    <g id="text_14">
     <!-- ESR FWHM=7.065 MHz -->
     <g transform="translate(119.44 234.372575)scale(0.1 -0.1)">
      <defs>
       <path id="DejaVuSans-45" d="M 628 4666 
L 3578 4666 
L 3578 4134 
L 1259 4134 
L 1259 2753 
L 3481 2753 
L 3481 2222 
L 1259 2222 
L 1259 531 
L 3634 531 
L 3634 0 
L 628 0 
L 628 4666 
z
" transform="scale(0.015625)"/>
       <path id="DejaVuSans-53" d="M 3425 4513 
L 3425 3897 
Q 3066 4069 2747 4153 
Q 2428 4238 2131 4238 
Q 1616 4238 1336 4038 
Q 1056 3838 1056 3469 
Q 1056 3159 1242 3001 
Q 1428 2844 1947 2747 
L 2328 2669 
Q 3034 2534 3370 2195 
Q 3706 1856 3706 1288 
Q 3706 609 3251 259 
Q 2797 -91 1919 -91 
Q 1588 -91 1214 -16 
Q 841 59 441 206 
L 441 856 
Q 825 641 1194 531 
Q 1563 422 1919 422 
Q 2459 422 2753 634 
Q 3047 847 3047 1241 
Q 3047 1584 2836 1778 
Q 2625 1972 2144 2069 
L 1759 2144 
Q 1053 2284 737 2584 
Q 422 2884 422 3419 
Q 422 4038 858 4394 
Q 1294 4750 2059 4750 
Q 2388 4750 2728 4690 
Q 3069 4631 3425 4513 
z
" transform="scale(0.015625)"/>
       <path id="DejaVuSans-46" d="M 628 4666 
L 3309 4666 
L 3309 4134 
L 1259 4134 
L 1259 2759 
L 3109 2759 
L 3109 2228 
L 1259 2228 
L 1259 0 
L 628 0 
L 628 4666 
z
" transform="scale(0.015625)"/>
       <path id="DejaVuSans-57" d="M 213 4666 
L 850 4666 
L 1831 722 
L 2809 4666 
L 3519 4666 
L 4500 722 
L 5478 4666 
L 6119 4666 
L 4947 0 
L 4153 0 
L 3169 4050 
L 2175 0 
L 1381 0 
L 213 4666 
z
" transform="scale(0.015625)"/>
       <path id="DejaVuSans-3d" d="M 678 2906 
L 4684 2906 
L 4684 2381 
L 678 2381 
L 678 2906 
z
M 678 1631 
L 4684 1631 
L 4684 1100 
L 678 1100 
L 678 1631 
z
" transform="scale(0.015625)"/>
       <path id="DejaVuSans-37" d="M 525 4666 
L 3525 4666 
L 3525 4397 
L 1831 0 
L 1172 0 
L 2766 4134 
L 525 4134 
L 525 4666 
z
" transform="scale(0.015625)"/>
       <path id="DejaVuSans-35" d="M 691 4666 
L 3169 4666 
L 3169 4134 
L 1269 4134 
L 1269 2991 
Q 1406 3038 1543 3061 
Q 1681 3084 1819 3084 
Q 2600 3084 3056 2656 
Q 3513 2228 3513 1497 
Q 3513 744 3044 326 
Q 2575 -91 1722 -91 
Q 1428 -91 1123 -41 
Q 819 9 494 109 
L 494 744 
Q 775 591 1075 516 
Q 1375 441 1709 441 
Q 2250 441 2565 725 
Q 2881 1009 2881 1497 
Q 2881 1984 2565 2268 
Q 2250 2553 1709 2553 
Q 1456 2553 1204 2497 
Q 953 2441 691 2322 
L 691 4666 
z
" transform="scale(0.015625)"/>
      </defs>
      <use xlink:href="#DejaVuSans-45"/>
      <use xlink:href="#DejaVuSans-53" x="63.183594"/>
      <use xlink:href="#DejaVuSans-52" x="126.660156"/>
      <use xlink:href="#DejaVuSans-20" x="196.142578"/>
      <use xlink:href="#DejaVuSans-46" x="227.929688"/>
      <use xlink:href="#DejaVuSans-57" x="285.449219"/>
      <use xlink:href="#DejaVuSans-48" x="384.326172"/>
      <use xlink:href="#DejaVuSans-4d" x="459.521484"/>
      <use xlink:href="#DejaVuSans-3d" x="545.800781"/>
      <use xlink:href="#DejaVuSans-37" x="629.589844"/>
      <use xlink:href="#DejaVuSans-2e" x="693.212891"/>
      <use xlink:href="#DejaVuSans-30" x="725"/>
      <use xlink:href="#DejaVuSans-36" x="788.623047"/>
      <use xlink:href="#DejaVuSans-35" x="852.246094"/>
      <use xlink:href="#DejaVuSans-20" x="915.869141"/>
      <use xlink:href="#DejaVuSans-4d" x="947.65625"/>
      <use xlink:href="#DejaVuSans-48" x="1033.935547"/>
      <use xlink:href="#DejaVuSans-7a" x="1109.130859"/>
     </g>
    </g>
   </g>
  </g>
  <g id="axes_2">
   <g id="matplotlib.axis_3">
    <g id="ytick_7">
     <g id="line2d_14">
      <defs>
       <path id="m9510bc9d08" d="M 0 0 
L 3.5 0 
" style="stroke: #000000; stroke-width: 0.8"/>
      </defs>
      <g>
       <use xlink:href="#m9510bc9d08" x="593.568" y="334.910179" style="stroke: #000000; stroke-width: 0.8"/>
      </g>
     </g>
     <g id="text_15">
      <!-- 1500 -->
      <g transform="translate(600.568 342.508617)scale(0.2 -0.2)">
       <use xlink:href="#DejaVuSans-31"/>
       <use xlink:href="#DejaVuSans-35" x="63.623047"/>
       <use xlink:href="#DejaVuSans-30" x="127.246094"/>
       <use xlink:href="#DejaVuSans-30" x="190.869141"/>
      </g>
     </g>
    </g>
    <g id="ytick_8">
     <g id="line2d_15">
      <g>
       <use xlink:href="#m9510bc9d08" x="593.568" y="256.966605" style="stroke: #000000; stroke-width: 0.8"/>
      </g>
     </g>
     <g id="text_16">
      <!-- 2000 -->
      <g transform="translate(600.568 264.565042)scale(0.2 -0.2)">
       <use xlink:href="#DejaVuSans-32"/>
       <use xlink:href="#DejaVuSans-30" x="63.623047"/>
       <use xlink:href="#DejaVuSans-30" x="127.246094"/>
       <use xlink:href="#DejaVuSans-30" x="190.869141"/>
      </g>
     </g>
    </g>
    <g id="ytick_9">
     <g id="line2d_16">
      <g>
       <use xlink:href="#m9510bc9d08" x="593.568" y="179.023031" style="stroke: #000000; stroke-width: 0.8"/>
      </g>
     </g>
     <g id="text_17">
      <!-- 2500 -->
      <g transform="translate(600.568 186.621468)scale(0.2 -0.2)">
       <use xlink:href="#DejaVuSans-32"/>
       <use xlink:href="#DejaVuSans-35" x="63.623047"/>
       <use xlink:href="#DejaVuSans-30" x="127.246094"/>
       <use xlink:href="#DejaVuSans-30" x="190.869141"/>
      </g>
     </g>
    </g>
    <g id="ytick_10">
     <g id="line2d_17">
      <g>
       <use xlink:href="#m9510bc9d08" x="593.568" y="101.079457" style="stroke: #000000; stroke-width: 0.8"/>
      </g>
     </g>
     <g id="text_18">
      <!-- 3000 -->
      <g transform="translate(600.568 108.677894)scale(0.2 -0.2)">
       <defs>
        <path id="DejaVuSans-33" d="M 2597 2516 
Q 3050 2419 3304 2112 
Q 3559 1806 3559 1356 
Q 3559 666 3084 287 
Q 2609 -91 1734 -91 
Q 1441 -91 1130 -33 
Q 819 25 488 141 
L 488 750 
Q 750 597 1062 519 
Q 1375 441 1716 441 
Q 2309 441 2620 675 
Q 2931 909 2931 1356 
Q 2931 1769 2642 2001 
Q 2353 2234 1838 2234 
L 1294 2234 
L 1294 2753 
L 1863 2753 
Q 2328 2753 2575 2939 
Q 2822 3125 2822 3475 
Q 2822 3834 2567 4026 
Q 2313 4219 1838 4219 
Q 1578 4219 1281 4162 
Q 984 4106 628 3988 
L 628 4550 
Q 988 4650 1302 4700 
Q 1616 4750 1894 4750 
Q 2613 4750 3031 4423 
Q 3450 4097 3450 3541 
Q 3450 3153 3228 2886 
Q 3006 2619 2597 2516 
z
" transform="scale(0.015625)"/>
       </defs>
       <use xlink:href="#DejaVuSans-33"/>
       <use xlink:href="#DejaVuSans-30" x="63.623047"/>
       <use xlink:href="#DejaVuSans-30" x="127.246094"/>
       <use xlink:href="#DejaVuSans-30" x="190.869141"/>
      </g>
     </g>
    </g>
    <g id="text_19">
     <!-- 1/$T_1$ (s$^{-1}$) -->
     <g transform="translate(672.708625 279.1132)rotate(-90)scale(0.2 -0.2)">
      <defs>
       <path id="DejaVuSans-2f" d="M 1625 4666 
L 2156 4666 
L 531 -594 
L 0 -594 
L 1625 4666 
z
" transform="scale(0.015625)"/>
       <path id="DejaVuSans-Oblique-54" d="M 378 4666 
L 4325 4666 
L 4225 4134 
L 2559 4134 
L 1759 0 
L 1125 0 
L 1925 4134 
L 275 4134 
L 378 4666 
z
" transform="scale(0.015625)"/>
      </defs>
      <use xlink:href="#DejaVuSans-31" transform="translate(0 0.684375)"/>
      <use xlink:href="#DejaVuSans-2f" transform="translate(63.623047 0.684375)"/>
      <use xlink:href="#DejaVuSans-Oblique-54" transform="translate(97.314453 0.684375)"/>
      <use xlink:href="#DejaVuSans-31" transform="translate(158.398438 -15.721875)scale(0.7)"/>
      <use xlink:href="#DejaVuSans-20" transform="translate(205.668945 0.684375)"/>
      <use xlink:href="#DejaVuSans-28" transform="translate(237.456055 0.684375)"/>
      <use xlink:href="#DejaVuSans-73" transform="translate(276.469727 0.684375)"/>
      <use xlink:href="#DejaVuSans-2212" transform="translate(329.526367 38.965625)scale(0.7)"/>
      <use xlink:href="#DejaVuSans-31" transform="translate(388.178711 38.965625)scale(0.7)"/>
      <use xlink:href="#DejaVuSans-29" transform="translate(435.449219 0.684375)"/>
     </g>
    </g>
   </g>
   <g id="line2d_18">
    <defs>
     <path id="m81c3b0f3e7" d="M 0 4 
C 1.060812 4 2.078319 3.578535 2.828427 2.828427 
C 3.578535 2.078319 4 1.060812 4 0 
C 4 -1.060812 3.578535 -2.078319 2.828427 -2.828427 
C 2.078319 -3.578535 1.060812 -4 0 -4 
C -1.060812 -4 -2.078319 -3.578535 -2.828427 -2.828427 
C -3.578535 -2.078319 -4 -1.060812 -4 0 
C -4 1.060812 -3.578535 2.078319 -2.828427 2.828427 
C -2.078319 3.578535 -1.060812 4 0 4 
z
" style="stroke: #ff7f0e; stroke-width: 2"/>
    </defs>
    <g clip-path="url(#pc66b75e42b)">
     <use xlink:href="#m81c3b0f3e7" x="105.673091" y="383.459823" style="fill-opacity: 0; stroke: #ff7f0e; stroke-width: 2"/>
     <use xlink:href="#m81c3b0f3e7" x="109.713492" y="388.914467" style="fill-opacity: 0; stroke: #ff7f0e; stroke-width: 2"/>
     <use xlink:href="#m81c3b0f3e7" x="113.820932" y="377.926641" style="fill-opacity: 0; stroke: #ff7f0e; stroke-width: 2"/>
     <use xlink:href="#m81c3b0f3e7" x="117.993234" y="379.433055" style="fill-opacity: 0; stroke: #ff7f0e; stroke-width: 2"/>
     <use xlink:href="#m81c3b0f3e7" x="122.228244" y="368.395331" style="fill-opacity: 0; stroke: #ff7f0e; stroke-width: 2"/>
     <use xlink:href="#m81c3b0f3e7" x="126.523828" y="392.1372" style="fill-opacity: 0; stroke: #ff7f0e; stroke-width: 2"/>
     <use xlink:href="#m81c3b0f3e7" x="130.877871" y="366.278487" style="fill-opacity: 0; stroke: #ff7f0e; stroke-width: 2"/>
     <use xlink:href="#m81c3b0f3e7" x="135.28828" y="380.437928" style="fill-opacity: 0; stroke: #ff7f0e; stroke-width: 2"/>
     <use xlink:href="#m81c3b0f3e7" x="139.752983" y="381.342026" style="fill-opacity: 0; stroke: #ff7f0e; stroke-width: 2"/>
     <use xlink:href="#m81c3b0f3e7" x="144.269927" y="376.334311" style="fill-opacity: 0; stroke: #ff7f0e; stroke-width: 2"/>
     <use xlink:href="#m81c3b0f3e7" x="148.83708" y="386.845659" style="fill-opacity: 0; stroke: #ff7f0e; stroke-width: 2"/>
     <use xlink:href="#m81c3b0f3e7" x="153.452431" y="371.730385" style="fill-opacity: 0; stroke: #ff7f0e; stroke-width: 2"/>
     <use xlink:href="#m81c3b0f3e7" x="158.113991" y="382.055555" style="fill-opacity: 0; stroke: #ff7f0e; stroke-width: 2"/>
     <use xlink:href="#m81c3b0f3e7" x="162.819787" y="378.125185" style="fill-opacity: 0; stroke: #ff7f0e; stroke-width: 2"/>
     <use xlink:href="#m81c3b0f3e7" x="167.567872" y="376.151875" style="fill-opacity: 0; stroke: #ff7f0e; stroke-width: 2"/>
     <use xlink:href="#m81c3b0f3e7" x="172.356315" y="369.89621" style="fill-opacity: 0; stroke: #ff7f0e; stroke-width: 2"/>
     <use xlink:href="#m81c3b0f3e7" x="177.18321" y="368.332582" style="fill-opacity: 0; stroke: #ff7f0e; stroke-width: 2"/>
     <use xlink:href="#m81c3b0f3e7" x="182.046667" y="376.764199" style="fill-opacity: 0; stroke: #ff7f0e; stroke-width: 2"/>
     <use xlink:href="#m81c3b0f3e7" x="186.944819" y="363.619819" style="fill-opacity: 0; stroke: #ff7f0e; stroke-width: 2"/>
     <use xlink:href="#m81c3b0f3e7" x="191.87582" y="370.139934" style="fill-opacity: 0; stroke: #ff7f0e; stroke-width: 2"/>
     <use xlink:href="#m81c3b0f3e7" x="196.837843" y="369.408471" style="fill-opacity: 0; stroke: #ff7f0e; stroke-width: 2"/>
     <use xlink:href="#m81c3b0f3e7" x="201.829083" y="373.726557" style="fill-opacity: 0; stroke: #ff7f0e; stroke-width: 2"/>
     <use xlink:href="#m81c3b0f3e7" x="206.847755" y="374.889038" style="fill-opacity: 0; stroke: #ff7f0e; stroke-width: 2"/>
     <use xlink:href="#m81c3b0f3e7" x="211.892093" y="357.250407" style="fill-opacity: 0; stroke: #ff7f0e; stroke-width: 2"/>
     <use xlink:href="#m81c3b0f3e7" x="216.960354" y="363.754245" style="fill-opacity: 0; stroke: #ff7f0e; stroke-width: 2"/>
     <use xlink:href="#m81c3b0f3e7" x="222.050815" y="364.153619" style="fill-opacity: 0; stroke: #ff7f0e; stroke-width: 2"/>
     <use xlink:href="#m81c3b0f3e7" x="227.161771" y="370.635944" style="fill-opacity: 0; stroke: #ff7f0e; stroke-width: 2"/>
     <use xlink:href="#m81c3b0f3e7" x="232.291542" y="362.158956" style="fill-opacity: 0; stroke: #ff7f0e; stroke-width: 2"/>
     <use xlink:href="#m81c3b0f3e7" x="237.438464" y="359.860846" style="fill-opacity: 0; stroke: #ff7f0e; stroke-width: 2"/>
     <use xlink:href="#m81c3b0f3e7" x="242.600897" y="361.439712" style="fill-opacity: 0; stroke: #ff7f0e; stroke-width: 2"/>
     <use xlink:href="#m81c3b0f3e7" x="247.77722" y="355.032482" style="fill-opacity: 0; stroke: #ff7f0e; stroke-width: 2"/>
     <use xlink:href="#m81c3b0f3e7" x="252.965833" y="363.887567" style="fill-opacity: 0; stroke: #ff7f0e; stroke-width: 2"/>
     <use xlink:href="#m81c3b0f3e7" x="258.165155" y="341.695953" style="fill-opacity: 0; stroke: #ff7f0e; stroke-width: 2"/>
     <use xlink:href="#m81c3b0f3e7" x="263.373629" y="331.608703" style="fill-opacity: 0; stroke: #ff7f0e; stroke-width: 2"/>
     <use xlink:href="#m81c3b0f3e7" x="268.589714" y="336.994115" style="fill-opacity: 0; stroke: #ff7f0e; stroke-width: 2"/>
     <use xlink:href="#m81c3b0f3e7" x="273.811894" y="312.066661" style="fill-opacity: 0; stroke: #ff7f0e; stroke-width: 2"/>
     <use xlink:href="#m81c3b0f3e7" x="279.03867" y="312.499496" style="fill-opacity: 0; stroke: #ff7f0e; stroke-width: 2"/>
     <use xlink:href="#m81c3b0f3e7" x="284.268566" y="309.815299" style="fill-opacity: 0; stroke: #ff7f0e; stroke-width: 2"/>
     <use xlink:href="#m81c3b0f3e7" x="289.500124" y="299.988159" style="fill-opacity: 0; stroke: #ff7f0e; stroke-width: 2"/>
     <use xlink:href="#m81c3b0f3e7" x="294.731911" y="261.712903" style="fill-opacity: 0; stroke: #ff7f0e; stroke-width: 2"/>
     <use xlink:href="#m81c3b0f3e7" x="299.962509" y="237.347681" style="fill-opacity: 0; stroke: #ff7f0e; stroke-width: 2"/>
     <use xlink:href="#m81c3b0f3e7" x="305.190524" y="195.646168" style="fill-opacity: 0; stroke: #ff7f0e; stroke-width: 2"/>
     <use xlink:href="#m81c3b0f3e7" x="310.414582" y="178.955946" style="fill-opacity: 0; stroke: #ff7f0e; stroke-width: 2"/>
     <use xlink:href="#m81c3b0f3e7" x="320.845433" y="126.969766" style="fill-opacity: 0; stroke: #ff7f0e; stroke-width: 2"/>
     <use xlink:href="#m81c3b0f3e7" x="326.049581" y="107.932614" style="fill-opacity: 0; stroke: #ff7f0e; stroke-width: 2"/>
     <use xlink:href="#m81c3b0f3e7" x="331.244479" y="76.084195" style="fill-opacity: 0; stroke: #ff7f0e; stroke-width: 2"/>
     <use xlink:href="#m81c3b0f3e7" x="336.428858" y="72.294013" style="fill-opacity: 0; stroke: #ff7f0e; stroke-width: 2"/>
     <use xlink:href="#m81c3b0f3e7" x="341.601465" y="86.003655" style="fill-opacity: 0; stroke: #ff7f0e; stroke-width: 2"/>
     <use xlink:href="#m81c3b0f3e7" x="346.761071" y="126.12584" style="fill-opacity: 0; stroke: #ff7f0e; stroke-width: 2"/>
     <use xlink:href="#m81c3b0f3e7" x="351.906466" y="112.582371" style="fill-opacity: 0; stroke: #ff7f0e; stroke-width: 2"/>
     <use xlink:href="#m81c3b0f3e7" x="357.03646" y="128.324813" style="fill-opacity: 0; stroke: #ff7f0e; stroke-width: 2"/>
     <use xlink:href="#m81c3b0f3e7" x="362.149884" y="138.984563" style="fill-opacity: 0; stroke: #ff7f0e; stroke-width: 2"/>
     <use xlink:href="#m81c3b0f3e7" x="367.245591" y="198.845383" style="fill-opacity: 0; stroke: #ff7f0e; stroke-width: 2"/>
     <use xlink:href="#m81c3b0f3e7" x="372.322453" y="224.419087" style="fill-opacity: 0; stroke: #ff7f0e; stroke-width: 2"/>
     <use xlink:href="#m81c3b0f3e7" x="377.379362" y="262.60339" style="fill-opacity: 0; stroke: #ff7f0e; stroke-width: 2"/>
     <use xlink:href="#m81c3b0f3e7" x="382.415232" y="274.043384" style="fill-opacity: 0; stroke: #ff7f0e; stroke-width: 2"/>
     <use xlink:href="#m81c3b0f3e7" x="387.428996" y="293.095761" style="fill-opacity: 0; stroke: #ff7f0e; stroke-width: 2"/>
     <use xlink:href="#m81c3b0f3e7" x="392.41961" y="296.591708" style="fill-opacity: 0; stroke: #ff7f0e; stroke-width: 2"/>
     <use xlink:href="#m81c3b0f3e7" x="397.386049" y="317.149639" style="fill-opacity: 0; stroke: #ff7f0e; stroke-width: 2"/>
     <use xlink:href="#m81c3b0f3e7" x="402.327307" y="333.94327" style="fill-opacity: 0; stroke: #ff7f0e; stroke-width: 2"/>
     <use xlink:href="#m81c3b0f3e7" x="407.242402" y="320.014666" style="fill-opacity: 0; stroke: #ff7f0e; stroke-width: 2"/>
     <use xlink:href="#m81c3b0f3e7" x="412.130369" y="347.143464" style="fill-opacity: 0; stroke: #ff7f0e; stroke-width: 2"/>
     <use xlink:href="#m81c3b0f3e7" x="416.990266" y="349.719678" style="fill-opacity: 0; stroke: #ff7f0e; stroke-width: 2"/>
     <use xlink:href="#m81c3b0f3e7" x="421.821172" y="353.444504" style="fill-opacity: 0; stroke: #ff7f0e; stroke-width: 2"/>
     <use xlink:href="#m81c3b0f3e7" x="426.622183" y="348.824008" style="fill-opacity: 0; stroke: #ff7f0e; stroke-width: 2"/>
     <use xlink:href="#m81c3b0f3e7" x="431.392419" y="358.156787" style="fill-opacity: 0; stroke: #ff7f0e; stroke-width: 2"/>
     <use xlink:href="#m81c3b0f3e7" x="436.131019" y="350.202011" style="fill-opacity: 0; stroke: #ff7f0e; stroke-width: 2"/>
     <use xlink:href="#m81c3b0f3e7" x="440.837144" y="355.144833" style="fill-opacity: 0; stroke: #ff7f0e; stroke-width: 2"/>
     <use xlink:href="#m81c3b0f3e7" x="445.509973" y="368.029004" style="fill-opacity: 0; stroke: #ff7f0e; stroke-width: 2"/>
     <use xlink:href="#m81c3b0f3e7" x="450.148709" y="363.245513" style="fill-opacity: 0; stroke: #ff7f0e; stroke-width: 2"/>
     <use xlink:href="#m81c3b0f3e7" x="454.752572" y="364.470986" style="fill-opacity: 0; stroke: #ff7f0e; stroke-width: 2"/>
     <use xlink:href="#m81c3b0f3e7" x="459.320804" y="371.83919" style="fill-opacity: 0; stroke: #ff7f0e; stroke-width: 2"/>
     <use xlink:href="#m81c3b0f3e7" x="463.852669" y="366.697691" style="fill-opacity: 0; stroke: #ff7f0e; stroke-width: 2"/>
     <use xlink:href="#m81c3b0f3e7" x="468.347449" y="369.862404" style="fill-opacity: 0; stroke: #ff7f0e; stroke-width: 2"/>
     <use xlink:href="#m81c3b0f3e7" x="472.804448" y="371.518177" style="fill-opacity: 0; stroke: #ff7f0e; stroke-width: 2"/>
     <use xlink:href="#m81c3b0f3e7" x="477.222991" y="369.94015" style="fill-opacity: 0; stroke: #ff7f0e; stroke-width: 2"/>
     <use xlink:href="#m81c3b0f3e7" x="481.602423" y="371.385227" style="fill-opacity: 0; stroke: #ff7f0e; stroke-width: 2"/>
     <use xlink:href="#m81c3b0f3e7" x="485.942108" y="368.961037" style="fill-opacity: 0; stroke: #ff7f0e; stroke-width: 2"/>
     <use xlink:href="#m81c3b0f3e7" x="490.241433" y="372.924957" style="fill-opacity: 0; stroke: #ff7f0e; stroke-width: 2"/>
     <use xlink:href="#m81c3b0f3e7" x="494.499804" y="373.239154" style="fill-opacity: 0; stroke: #ff7f0e; stroke-width: 2"/>
     <use xlink:href="#m81c3b0f3e7" x="498.716649" y="376.397953" style="fill-opacity: 0; stroke: #ff7f0e; stroke-width: 2"/>
     <use xlink:href="#m81c3b0f3e7" x="502.891415" y="372.214725" style="fill-opacity: 0; stroke: #ff7f0e; stroke-width: 2"/>
     <use xlink:href="#m81c3b0f3e7" x="507.02357" y="366.158791" style="fill-opacity: 0; stroke: #ff7f0e; stroke-width: 2"/>
     <use xlink:href="#m81c3b0f3e7" x="511.112602" y="370.795723" style="fill-opacity: 0; stroke: #ff7f0e; stroke-width: 2"/>
     <use xlink:href="#m81c3b0f3e7" x="515.158022" y="381.071255" style="fill-opacity: 0; stroke: #ff7f0e; stroke-width: 2"/>
     <use xlink:href="#m81c3b0f3e7" x="519.159358" y="366.55034" style="fill-opacity: 0; stroke: #ff7f0e; stroke-width: 2"/>
     <use xlink:href="#m81c3b0f3e7" x="523.116162" y="377.834763" style="fill-opacity: 0; stroke: #ff7f0e; stroke-width: 2"/>
     <use xlink:href="#m81c3b0f3e7" x="527.028004" y="380.696171" style="fill-opacity: 0; stroke: #ff7f0e; stroke-width: 2"/>
     <use xlink:href="#m81c3b0f3e7" x="530.894475" y="381.527797" style="fill-opacity: 0; stroke: #ff7f0e; stroke-width: 2"/>
     <use xlink:href="#m81c3b0f3e7" x="534.715187" y="378.879166" style="fill-opacity: 0; stroke: #ff7f0e; stroke-width: 2"/>
     <use xlink:href="#m81c3b0f3e7" x="538.489773" y="374.152617" style="fill-opacity: 0; stroke: #ff7f0e; stroke-width: 2"/>
     <use xlink:href="#m81c3b0f3e7" x="542.217887" y="377.265913" style="fill-opacity: 0; stroke: #ff7f0e; stroke-width: 2"/>
     <use xlink:href="#m81c3b0f3e7" x="545.8992" y="380.786042" style="fill-opacity: 0; stroke: #ff7f0e; stroke-width: 2"/>
     <use xlink:href="#m81c3b0f3e7" x="549.533409" y="373.236169" style="fill-opacity: 0; stroke: #ff7f0e; stroke-width: 2"/>
     <use xlink:href="#m81c3b0f3e7" x="553.120227" y="381.095005" style="fill-opacity: 0; stroke: #ff7f0e; stroke-width: 2"/>
     <use xlink:href="#m81c3b0f3e7" x="556.659389" y="379.15527" style="fill-opacity: 0; stroke: #ff7f0e; stroke-width: 2"/>
     <use xlink:href="#m81c3b0f3e7" x="560.150652" y="380.538421" style="fill-opacity: 0; stroke: #ff7f0e; stroke-width: 2"/>
     <use xlink:href="#m81c3b0f3e7" x="563.593792" y="377.015088" style="fill-opacity: 0; stroke: #ff7f0e; stroke-width: 2"/>
     <use xlink:href="#m81c3b0f3e7" x="566.988605" y="372.569936" style="fill-opacity: 0; stroke: #ff7f0e; stroke-width: 2"/>
     <use xlink:href="#m81c3b0f3e7" x="570.334909" y="382.786167" style="fill-opacity: 0; stroke: #ff7f0e; stroke-width: 2"/>
    </g>
   </g>
   <g id="line2d_19">
    <path d="M 105.673091 382.586134 
L 109.713492 382.34391 
L 113.820932 382.084517 
L 117.993234 381.806472 
L 122.228244 381.508119 
L 126.523828 381.187613 
L 130.877871 380.842887 
L 135.28828 380.471628 
L 139.752983 380.071233 
L 144.269927 379.638773 
L 148.83708 379.170938 
L 153.452431 378.663981 
L 158.113991 378.113646 
L 162.819787 377.515086 
L 167.567872 376.862765 
L 172.356315 376.150335 
L 177.18321 375.370497 
L 182.046667 374.514826 
L 186.944819 373.573562 
L 191.87582 372.535355 
L 196.837843 371.386952 
L 201.829083 370.112814 
L 206.847755 368.694637 
L 211.892093 367.110771 
L 216.960354 365.335476 
L 222.050815 363.338009 
L 227.161771 361.081465 
L 232.291542 358.521318 
L 237.438464 355.603573 
L 242.600897 352.262427 
L 247.77722 348.417294 
L 252.965833 343.969063 
L 258.165155 338.79538 
L 263.373629 332.744833 
L 268.589714 325.62994 
L 273.811894 317.219134 
L 279.03867 307.228486 
L 284.268566 295.31521 
L 289.500124 281.077481 
L 294.731911 264.069933 
L 299.962509 243.852459 
L 305.190524 220.102122 
L 310.414582 192.829891 
L 320.845433 131.678443 
L 326.049581 103.004173 
L 331.244479 81.303619 
L 336.428858 71.0892 
L 341.601465 74.767778 
L 346.761071 91.329798 
L 351.906466 116.939317 
L 357.03646 146.863512 
L 362.149884 177.179126 
L 367.245591 205.432351 
L 372.322453 230.481383 
L 377.379362 252.052128 
L 382.415232 270.334545 
L 387.428996 285.714558 
L 392.41961 298.625284 
L 397.386049 309.476076 
L 402.327307 318.62503 
L 407.242402 326.373194 
L 412.130369 332.968368 
L 416.990266 338.612351 
L 421.821172 343.468726 
L 426.622183 347.669998 
L 431.392419 351.323662 
L 436.131019 354.517197 
L 440.837144 357.322074 
L 445.509973 359.796952 
L 450.148709 361.990209 
L 454.752572 363.941942 
L 459.320804 365.68555 
L 463.852669 367.248996 
L 468.347449 368.655798 
L 472.804448 369.925837 
L 477.222991 371.075993 
L 481.602423 372.120659 
L 485.942108 373.072167 
L 490.241433 373.941119 
L 494.499804 374.73667 
L 498.716649 375.466753 
L 502.891415 376.138269 
L 507.02357 376.757241 
L 511.112602 377.328942 
L 515.158022 377.858007 
L 519.159358 378.348517 
L 523.116162 378.804081 
L 527.028004 379.227896 
L 530.894475 379.622804 
L 534.715187 379.991335 
L 538.489773 380.335751 
L 542.217887 380.658077 
L 545.8992 380.960128 
L 549.533409 381.243538 
L 553.120227 381.509779 
L 556.659389 381.76018 
L 560.150652 381.995946 
L 563.593792 382.218165 
L 566.988605 382.42783 
L 570.334909 382.625841 
" clip-path="url(#pc66b75e42b)" style="fill: none; stroke: #2ca02c; stroke-width: 2; stroke-linecap: square"/>
   </g>
   <g id="patch_8">
    <path d="M 82.44 408.1896 
L 82.44 55.0368 
" style="fill: none; stroke: #000000; stroke-width: 0.8; stroke-linejoin: miter; stroke-linecap: square"/>
   </g>
   <g id="patch_9">
    <path d="M 593.568 408.1896 
L 593.568 55.0368 
" style="fill: none; stroke: #000000; stroke-width: 0.8; stroke-linejoin: miter; stroke-linecap: square"/>
   </g>
   <g id="patch_10">
    <path d="M 82.44 408.1896 
L 593.568 408.1896 
" style="fill: none; stroke: #000000; stroke-width: 0.8; stroke-linejoin: miter; stroke-linecap: square"/>
   </g>
   <g id="patch_11">
    <path d="M 82.44 55.0368 
L 593.568 55.0368 
" style="fill: none; stroke: #000000; stroke-width: 0.8; stroke-linejoin: miter; stroke-linecap: square"/>
   </g>
   <g id="legend_2">
    <g id="patch_12">
     <path d="M 416.058625 247.791325 
L 586.568 247.791325 
Q 588.568 247.791325 588.568 245.791325 
L 588.568 217.435075 
Q 588.568 215.435075 586.568 215.435075 
L 416.058625 215.435075 
Q 414.058625 215.435075 414.058625 217.435075 
L 414.058625 245.791325 
Q 414.058625 247.791325 416.058625 247.791325 
z
" style="fill: #ffffff; opacity: 0.8; stroke: #cccccc; stroke-linejoin: miter"/>
    </g>
    <g id="line2d_20">
     <g>
      <use xlink:href="#m81c3b0f3e7" x="428.058625" y="223.533512" style="fill-opacity: 0; stroke: #ff7f0e; stroke-width: 2"/>
     </g>
    </g>
    <g id="text_20">
     <!-- 1/T1 -->
     <g transform="translate(446.058625 227.033512)scale(0.1 -0.1)">
      <defs>
       <path id="DejaVuSans-54" d="M -19 4666 
L 3928 4666 
L 3928 4134 
L 2272 4134 
L 2272 0 
L 1638 0 
L 1638 4134 
L -19 4134 
L -19 4666 
z
" transform="scale(0.015625)"/>
      </defs>
      <use xlink:href="#DejaVuSans-31"/>
      <use xlink:href="#DejaVuSans-2f" x="63.623047"/>
      <use xlink:href="#DejaVuSans-54" x="97.314453"/>
      <use xlink:href="#DejaVuSans-31" x="158.398438"/>
     </g>
    </g>
    <g id="line2d_21">
     <path d="M 418.058625 238.211637 
L 428.058625 238.211637 
L 438.058625 238.211637 
" style="fill: none; stroke: #2ca02c; stroke-width: 2; stroke-linecap: square"/>
    </g>
    <g id="text_21">
     <!-- 1/T1 fit FWHM=12.873 MHz -->
     <g transform="translate(446.058625 241.711637)scale(0.1 -0.1)">
      <defs>
       <path id="DejaVuSans-66" d="M 2375 4863 
L 2375 4384 
L 1825 4384 
Q 1516 4384 1395 4259 
Q 1275 4134 1275 3809 
L 1275 3500 
L 2222 3500 
L 2222 3053 
L 1275 3053 
L 1275 0 
L 697 0 
L 697 3053 
L 147 3053 
L 147 3500 
L 697 3500 
L 697 3744 
Q 697 4328 969 4595 
Q 1241 4863 1831 4863 
L 2375 4863 
z
" transform="scale(0.015625)"/>
      </defs>
      <use xlink:href="#DejaVuSans-31"/>
      <use xlink:href="#DejaVuSans-2f" x="63.623047"/>
      <use xlink:href="#DejaVuSans-54" x="97.314453"/>
      <use xlink:href="#DejaVuSans-31" x="158.398438"/>
      <use xlink:href="#DejaVuSans-20" x="222.021484"/>
      <use xlink:href="#DejaVuSans-66" x="253.808594"/>
      <use xlink:href="#DejaVuSans-69" x="289.013672"/>
      <use xlink:href="#DejaVuSans-74" x="316.796875"/>
      <use xlink:href="#DejaVuSans-20" x="356.005859"/>
      <use xlink:href="#DejaVuSans-46" x="387.792969"/>
      <use xlink:href="#DejaVuSans-57" x="445.3125"/>
      <use xlink:href="#DejaVuSans-48" x="544.189453"/>
      <use xlink:href="#DejaVuSans-4d" x="619.384766"/>
      <use xlink:href="#DejaVuSans-3d" x="705.664062"/>
      <use xlink:href="#DejaVuSans-31" x="789.453125"/>
      <use xlink:href="#DejaVuSans-32" x="853.076172"/>
      <use xlink:href="#DejaVuSans-2e" x="916.699219"/>
      <use xlink:href="#DejaVuSans-38" x="948.486328"/>
      <use xlink:href="#DejaVuSans-37" x="1012.109375"/>
      <use xlink:href="#DejaVuSans-33" x="1075.732422"/>
      <use xlink:href="#DejaVuSans-20" x="1139.355469"/>
      <use xlink:href="#DejaVuSans-4d" x="1171.142578"/>
      <use xlink:href="#DejaVuSans-48" x="1257.421875"/>
      <use xlink:href="#DejaVuSans-7a" x="1332.617188"/>
     </g>
    </g>
   </g>
  </g>
 </g>
 <defs>
  <clipPath id="pc66b75e42b">
   <rect x="82.44" y="55.0368" width="511.128" height="353.1528"/>
  </clipPath>
 </defs>
</svg>
