<?xml version="1.0" encoding="utf-8" standalone="no"?>
<!DOCTYPE svg PUBLIC "-//W3C//DTD SVG 1.1//EN"
  "http://www.w3.org/Graphics/SVG/1.1/DTD/svg11.dtd">
<svg xmlns:xlink="http://www.w3.org/1999/xlink" width="216pt" height="144pt" viewBox="0 0 216 144" xmlns="http://www.w3.org/2000/svg" version="1.1">
 <metadata>
  <rdf:RDF xmlns:dc="http://purl.org/dc/elements/1.1/" xmlns:cc="http://creativecommons.org/ns#" xmlns:rdf="http://www.w3.org/1999/02/22-rdf-syntax-ns#">
   <cc:Work>
    <dc:type rdf:resource="http://purl.org/dc/dcmitype/StillImage"/>
    <dc:date>2022-04-19T11:42:27.334891</dc:date>
    <dc:format>image/svg+xml</dc:format>
    <dc:creator>
     <cc:Agent>
      <dc:title>Matplotlib v3.5.1, https://matplotlib.org/</dc:title>
     </cc:Agent>
    </dc:creator>
   </cc:Work>
  </rdf:RDF>
 </metadata>
 <defs>
  <style type="text/css">*{stroke-linejoin: round; stroke-linecap: butt}</style>
 </defs>
 <g id="figure_1">
  <g id="patch_1">
   <path d="M 0 144 
L 216 144 
L 216 0 
L 0 0 
z
" style="fill: #ffffff"/>
  </g>
  <g id="axes_1">
   <g id="patch_2">
    <path d="M 27 128.16 
L 194.4 128.16 
L 194.4 17.28 
L 27 17.28 
z
" style="fill: #ffffff"/>
   </g>
   <g id="matplotlib.axis_1">
    <g id="xtick_1">
     <g id="line2d_1">
      <defs>
       <path id="mc05fb3773f" d="M 0 0 
L 0 3.5 
" style="stroke: #000000; stroke-width: 0.8"/>
      </defs>
      <g>
       <use xlink:href="#mc05fb3773f" x="64.480208" y="128.16" style="stroke: #000000; stroke-width: 0.8"/>
      </g>
     </g>
     <g id="text_1">
      <!-- −100 -->
      <g transform="translate(49.373255 143.518281)scale(0.11 -0.11)">
       <defs>
        <path id="DejaVuSans-2212" d="M 678 2272 
L 4684 2272 
L 4684 1741 
L 678 1741 
L 678 2272 
z
" transform="scale(0.015625)"/>
        <path id="DejaVuSans-31" d="M 794 531 
L 1825 531 
L 1825 4091 
L 703 3866 
L 703 4441 
L 1819 4666 
L 2450 4666 
L 2450 531 
L 3481 531 
L 3481 0 
L 794 0 
L 794 531 
z
" transform="scale(0.015625)"/>
        <path id="DejaVuSans-30" d="M 2034 4250 
Q 1547 4250 1301 3770 
Q 1056 3291 1056 2328 
Q 1056 1369 1301 889 
Q 1547 409 2034 409 
Q 2525 409 2770 889 
Q 3016 1369 3016 2328 
Q 3016 3291 2770 3770 
Q 2525 4250 2034 4250 
z
M 2034 4750 
Q 2819 4750 3233 4129 
Q 3647 3509 3647 2328 
Q 3647 1150 3233 529 
Q 2819 -91 2034 -91 
Q 1250 -91 836 529 
Q 422 1150 422 2328 
Q 422 3509 836 4129 
Q 1250 4750 2034 4750 
z
" transform="scale(0.015625)"/>
       </defs>
       <use xlink:href="#DejaVuSans-2212"/>
       <use xlink:href="#DejaVuSans-31" x="83.789062"/>
       <use xlink:href="#DejaVuSans-30" x="147.412109"/>
       <use xlink:href="#DejaVuSans-30" x="211.035156"/>
      </g>
     </g>
    </g>
    <g id="xtick_2">
     <g id="line2d_2">
      <g>
       <use xlink:href="#mc05fb3773f" x="107.960727" y="128.16" style="stroke: #000000; stroke-width: 0.8"/>
      </g>
     </g>
     <g id="text_2">
      <!-- 0 -->
      <g transform="translate(104.461352 143.518281)scale(0.11 -0.11)">
       <use xlink:href="#DejaVuSans-30"/>
      </g>
     </g>
    </g>
    <g id="xtick_3">
     <g id="line2d_3">
      <g>
       <use xlink:href="#mc05fb3773f" x="151.441247" y="128.16" style="stroke: #000000; stroke-width: 0.8"/>
      </g>
     </g>
     <g id="text_3">
      <!-- 100 -->
      <g transform="translate(140.943122 143.518281)scale(0.11 -0.11)">
       <use xlink:href="#DejaVuSans-31"/>
       <use xlink:href="#DejaVuSans-30" x="63.623047"/>
       <use xlink:href="#DejaVuSans-30" x="127.246094"/>
      </g>
     </g>
    </g>
   </g>
   <g id="matplotlib.axis_2">
    <g id="ytick_1">
     <g id="line2d_4">
      <defs>
       <path id="ma9ca90afd0" d="M 0 0 
L -3.5 0 
" style="stroke: #000000; stroke-width: 0.8"/>
      </defs>
      <g>
       <use xlink:href="#ma9ca90afd0" x="27" y="102.429518" style="stroke: #000000; stroke-width: 0.8"/>
      </g>
     </g>
     <g id="text_4">
      <!-- 0.85 -->
      <g transform="translate(-6.71875 106.988581)scale(0.12 -0.12)">
       <defs>
        <path id="DejaVuSans-2e" d="M 684 794 
L 1344 794 
L 1344 0 
L 684 0 
L 684 794 
z
" transform="scale(0.015625)"/>
        <path id="DejaVuSans-38" d="M 2034 2216 
Q 1584 2216 1326 1975 
Q 1069 1734 1069 1313 
Q 1069 891 1326 650 
Q 1584 409 2034 409 
Q 2484 409 2743 651 
Q 3003 894 3003 1313 
Q 3003 1734 2745 1975 
Q 2488 2216 2034 2216 
z
M 1403 2484 
Q 997 2584 770 2862 
Q 544 3141 544 3541 
Q 544 4100 942 4425 
Q 1341 4750 2034 4750 
Q 2731 4750 3128 4425 
Q 3525 4100 3525 3541 
Q 3525 3141 3298 2862 
Q 3072 2584 2669 2484 
Q 3125 2378 3379 2068 
Q 3634 1759 3634 1313 
Q 3634 634 3220 271 
Q 2806 -91 2034 -91 
Q 1263 -91 848 271 
Q 434 634 434 1313 
Q 434 1759 690 2068 
Q 947 2378 1403 2484 
z
M 1172 3481 
Q 1172 3119 1398 2916 
Q 1625 2713 2034 2713 
Q 2441 2713 2670 2916 
Q 2900 3119 2900 3481 
Q 2900 3844 2670 4047 
Q 2441 4250 2034 4250 
Q 1625 4250 1398 4047 
Q 1172 3844 1172 3481 
z
" transform="scale(0.015625)"/>
        <path id="DejaVuSans-35" d="M 691 4666 
L 3169 4666 
L 3169 4134 
L 1269 4134 
L 1269 2991 
Q 1406 3038 1543 3061 
Q 1681 3084 1819 3084 
Q 2600 3084 3056 2656 
Q 3513 2228 3513 1497 
Q 3513 744 3044 326 
Q 2575 -91 1722 -91 
Q 1428 -91 1123 -41 
Q 819 9 494 109 
L 494 744 
Q 775 591 1075 516 
Q 1375 441 1709 441 
Q 2250 441 2565 725 
Q 2881 1009 2881 1497 
Q 2881 1984 2565 2268 
Q 2250 2553 1709 2553 
Q 1456 2553 1204 2497 
Q 953 2441 691 2322 
L 691 4666 
z
" transform="scale(0.015625)"/>
       </defs>
       <use xlink:href="#DejaVuSans-30"/>
       <use xlink:href="#DejaVuSans-2e" x="63.623047"/>
       <use xlink:href="#DejaVuSans-38" x="95.410156"/>
       <use xlink:href="#DejaVuSans-35" x="159.033203"/>
      </g>
     </g>
    </g>
    <g id="ytick_2">
     <g id="line2d_5">
      <g>
       <use xlink:href="#ma9ca90afd0" x="27" y="75.726346" style="stroke: #000000; stroke-width: 0.8"/>
      </g>
     </g>
     <g id="text_5">
      <!-- 0.90 -->
      <g transform="translate(-6.71875 80.285408)scale(0.12 -0.12)">
       <defs>
        <path id="DejaVuSans-39" d="M 703 97 
L 703 672 
Q 941 559 1184 500 
Q 1428 441 1663 441 
Q 2288 441 2617 861 
Q 2947 1281 2994 2138 
Q 2813 1869 2534 1725 
Q 2256 1581 1919 1581 
Q 1219 1581 811 2004 
Q 403 2428 403 3163 
Q 403 3881 828 4315 
Q 1253 4750 1959 4750 
Q 2769 4750 3195 4129 
Q 3622 3509 3622 2328 
Q 3622 1225 3098 567 
Q 2575 -91 1691 -91 
Q 1453 -91 1209 -44 
Q 966 3 703 97 
z
M 1959 2075 
Q 2384 2075 2632 2365 
Q 2881 2656 2881 3163 
Q 2881 3666 2632 3958 
Q 2384 4250 1959 4250 
Q 1534 4250 1286 3958 
Q 1038 3666 1038 3163 
Q 1038 2656 1286 2365 
Q 1534 2075 1959 2075 
z
" transform="scale(0.015625)"/>
       </defs>
       <use xlink:href="#DejaVuSans-30"/>
       <use xlink:href="#DejaVuSans-2e" x="63.623047"/>
       <use xlink:href="#DejaVuSans-39" x="95.410156"/>
       <use xlink:href="#DejaVuSans-30" x="159.033203"/>
      </g>
     </g>
    </g>
    <g id="ytick_3">
     <g id="line2d_6">
      <g>
       <use xlink:href="#ma9ca90afd0" x="27" y="49.023173" style="stroke: #000000; stroke-width: 0.8"/>
      </g>
     </g>
     <g id="text_6">
      <!-- 0.95 -->
      <g transform="translate(-6.71875 53.582235)scale(0.12 -0.12)">
       <use xlink:href="#DejaVuSans-30"/>
       <use xlink:href="#DejaVuSans-2e" x="63.623047"/>
       <use xlink:href="#DejaVuSans-39" x="95.410156"/>
       <use xlink:href="#DejaVuSans-35" x="159.033203"/>
      </g>
     </g>
    </g>
    <g id="ytick_4">
     <g id="line2d_7">
      <g>
       <use xlink:href="#ma9ca90afd0" x="27" y="22.32" style="stroke: #000000; stroke-width: 0.8"/>
      </g>
     </g>
     <g id="text_7">
      <!-- 1.00 -->
      <g transform="translate(-6.71875 26.879063)scale(0.12 -0.12)">
       <use xlink:href="#DejaVuSans-31"/>
       <use xlink:href="#DejaVuSans-2e" x="63.623047"/>
       <use xlink:href="#DejaVuSans-30" x="95.410156"/>
       <use xlink:href="#DejaVuSans-30" x="159.033203"/>
      </g>
     </g>
    </g>
   </g>
   <g id="line2d_8">
    <path d="M 186.790909 122.604419 
L 186.486545 122.658031 
L 185.877818 122.430856 
L 185.573455 122.355397 
L 185.269091 121.580981 
L 184.964727 121.469809 
L 184.660364 121.625479 
L 184.356 121.256951 
L 184.051636 121.311363 
L 183.747273 120.630388 
L 182.834182 119.431855 
L 182.529818 119.878602 
L 182.225455 119.235484 
L 181.921091 119.10622 
L 181.616727 118.253481 
L 181.312364 118.244889 
L 181.008 118.063556 
L 180.399273 117.333346 
L 180.094909 117.220457 
L 179.486182 116.385031 
L 179.181818 116.251088 
L 178.877455 115.662215 
L 178.573091 115.542772 
L 177.66 114.796098 
L 177.355636 114.104066 
L 176.746909 113.866427 
L 176.442545 113.009713 
L 176.138182 112.940044 
L 175.833818 112.361677 
L 175.529455 112.399482 
L 175.225091 112.091923 
L 174.920727 111.474777 
L 174.312 111.172721 
L 173.703273 109.96056 
L 172.485818 108.435925 
L 171.877091 108.178675 
L 171.268364 106.893972 
L 170.964 106.930513 
L 170.659636 106.377663 
L 170.355273 105.466792 
L 170.050909 105.584003 
L 169.442182 104.496307 
L 169.137818 104.130059 
L 168.833455 104.042047 
L 168.529091 103.452253 
L 167.920364 102.888634 
L 167.007273 101.202501 
L 166.702909 100.933668 
L 166.398545 100.47274 
L 166.094182 100.428646 
L 165.485455 99.138475 
L 165.181091 99.430183 
L 164.572364 97.790673 
L 163.963636 96.767617 
L 163.354909 96.150854 
L 163.050545 96.094906 
L 162.746182 95.232026 
L 162.137455 94.489206 
L 161.833091 94.195872 
L 160.615636 91.992805 
L 160.311273 91.761328 
L 159.702545 90.743859 
L 159.398182 90.496689 
L 159.093818 89.741041 
L 158.789455 89.66725 
L 157.267636 86.769339 
L 156.963273 86.573284 
L 156.658909 85.767197 
L 156.354545 85.610205 
L 156.050182 84.934513 
L 155.745818 84.556941 
L 155.441455 83.604447 
L 155.137091 83.487504 
L 154.528364 82.445215 
L 152.702182 79.161612 
L 152.397818 79.057531 
L 152.093455 77.95587 
L 151.789091 77.805485 
L 151.180364 76.550906 
L 150.876 76.423529 
L 150.571636 75.218058 
L 149.962909 74.674782 
L 147.528 70.169423 
L 146.919273 69.201059 
L 146.310545 67.556722 
L 146.006182 67.531315 
L 145.397455 66.555203 
L 145.093091 66.077211 
L 144.788727 65.291527 
L 144.484364 65.113882 
L 144.18 64.07471 
L 143.875636 63.832714 
L 143.571273 63.262548 
L 143.266909 62.373715 
L 142.658182 61.516294 
L 142.049455 60.815815 
L 141.745091 59.964147 
L 141.440727 59.792233 
L 141.136364 58.633264 
L 140.832 58.111644 
L 140.527636 57.972116 
L 140.223273 57.496777 
L 139.614545 55.863866 
L 139.310182 55.869046 
L 139.005818 55.121693 
L 138.701455 55.007285 
L 138.397091 53.898305 
L 137.788364 53.025251 
L 137.179636 52.119471 
L 136.875273 51.018693 
L 136.570909 50.818271 
L 136.266545 49.84613 
L 135.962182 49.943178 
L 135.353455 48.767836 
L 132.918545 44.400122 
L 132.614182 44.37521 
L 131.701091 42.565987 
L 131.396727 42.474529 
L 130.788 41.568301 
L 130.483636 40.754097 
L 130.179273 40.705148 
L 129.266182 39.00749 
L 128.961818 38.78553 
L 128.657455 37.888665 
L 128.048727 37.401439 
L 127.135636 35.921752 
L 126.831273 35.732081 
L 126.526909 35.1515 
L 126.222545 35.259048 
L 125.918182 34.857674 
L 125.613818 33.615894 
L 125.309455 33.732955 
L 124.700727 32.569056 
L 124.396364 32.803283 
L 123.787636 32.196138 
L 123.483273 31.248569 
L 123.178909 30.962934 
L 122.874545 30.876474 
L 122.265818 30.232331 
L 121.961455 29.537313 
L 121.657091 29.598568 
L 121.352727 29.476619 
L 121.048364 28.719274 
L 120.744 28.269766 
L 120.439636 28.228548 
L 119.830909 27.4767 
L 119.526545 27.602623 
L 118.917818 26.851628 
L 118.613455 26.880808 
L 118.309091 26.423044 
L 118.004727 26.689426 
L 117.700364 25.818688 
L 117.396 25.79472 
L 116.787273 25.449774 
L 116.178545 25.078471 
L 115.874182 25.108263 
L 115.569818 24.609811 
L 115.265455 24.61325 
L 114.961091 23.859828 
L 114.656727 24.015017 
L 114.352364 24.3724 
L 113.743636 23.636607 
L 113.439273 23.656343 
L 113.134909 23.800099 
L 112.830545 23.659472 
L 112.526182 23.256452 
L 111.613091 23.361887 
L 111.004364 22.734874 
L 110.7 23.256648 
L 110.395636 22.922553 
L 110.091273 23.056696 
L 109.786909 23.01944 
L 109.482545 22.689549 
L 109.178182 22.882418 
L 108.873818 22.626484 
L 108.569455 22.714772 
L 108.265091 23.05531 
L 107.960727 22.818943 
L 107.656364 23.090028 
L 107.352 22.998696 
L 107.047636 22.32 
L 106.743273 23.171365 
L 106.438909 22.756683 
L 106.134545 22.975571 
L 105.830182 23.381839 
L 105.525818 23.16965 
L 105.221455 23.318173 
L 104.917091 23.022222 
L 104.308364 23.208445 
L 104.004 22.991591 
L 103.699636 23.942511 
L 103.395273 23.570756 
L 103.090909 23.786378 
L 102.482182 24.51745 
L 102.177818 24.19536 
L 101.264727 24.946069 
L 100.960364 24.769478 
L 100.656 25.494439 
L 100.351636 25.401995 
L 100.047273 25.119496 
L 99.438545 26.007332 
L 99.134182 25.935309 
L 98.829818 26.174679 
L 98.525455 26.829706 
L 97.916727 27.088364 
L 97.612364 27.408362 
L 97.308 27.448409 
L 96.699273 28.652555 
L 96.394909 28.298389 
L 96.090545 28.78524 
L 95.481818 29.372707 
L 95.177455 29.345415 
L 94.264364 30.084429 
L 93.96 30.838319 
L 93.655636 30.934711 
L 93.351273 31.681184 
L 93.046909 31.641559 
L 92.742545 32.219199 
L 92.133818 32.357913 
L 91.525091 33.681754 
L 90.916364 34.272896 
L 90.612 35.019081 
L 90.307636 35.147017 
L 90.003273 35.647147 
L 89.698909 35.889611 
L 89.090182 36.924882 
L 88.785818 37.021816 
L 88.481455 37.827189 
L 88.177091 37.706179 
L 87.872727 38.923683 
L 87.568364 38.72379 
L 86.655273 40.363278 
L 86.350909 40.494591 
L 86.046545 40.816234 
L 85.133455 42.53622 
L 83.307273 45.419598 
L 83.002909 45.982824 
L 82.698545 46.123463 
L 82.089818 47.788849 
L 81.785455 48.126459 
L 81.481091 48.230764 
L 80.872364 49.643047 
L 80.263636 50.872443 
L 79.959273 51.139676 
L 79.350545 52.689568 
L 79.046182 52.655667 
L 78.741818 53.932434 
L 78.437455 53.632301 
L 77.828727 54.877931 
L 77.524364 55.355476 
L 77.22 56.073439 
L 76.915636 56.331777 
L 76.306909 57.848534 
L 76.002545 58.51962 
L 75.698182 58.787315 
L 75.089455 59.652388 
L 74.785091 60.055934 
L 74.480727 61.105363 
L 74.176364 61.14998 
L 73.263273 63.224837 
L 72.958909 63.705781 
L 72.654545 64.538631 
L 72.045818 64.946238 
L 71.741455 66.091007 
L 71.132727 66.895834 
L 70.828364 68.102184 
L 70.524 67.882381 
L 70.219636 68.689546 
L 69.915273 68.931053 
L 69.306545 70.647094 
L 68.697818 71.493325 
L 68.393455 71.889747 
L 68.089091 72.635029 
L 67.784727 72.880544 
L 67.480364 73.921665 
L 67.176 74.047947 
L 66.871636 75.049062 
L 66.567273 74.99571 
L 65.654182 77.24216 
L 65.349818 77.506755 
L 64.741091 78.274947 
L 64.436727 79.015071 
L 64.132364 79.437643 
L 63.828 80.231079 
L 63.523636 80.288012 
L 63.219273 80.959792 
L 62.914909 82.091625 
L 62.610545 81.97753 
L 62.306182 82.484424 
L 62.001818 83.395017 
L 61.393091 83.955629 
L 61.088727 84.974667 
L 60.784364 85.368967 
L 60.175636 86.67963 
L 59.262545 87.93 
L 58.653818 89.1703 
L 58.349455 89.33843 
L 57.436364 91.483444 
L 57.132 91.561065 
L 56.827636 92.454332 
L 56.523273 92.388767 
L 56.218909 93.248685 
L 55.914545 93.452098 
L 55.001455 95.43265 
L 54.697091 95.425356 
L 54.088364 96.971558 
L 53.784 97.187154 
L 52.566545 98.874396 
L 52.262182 99.210432 
L 51.957818 99.925895 
L 51.349091 100.737057 
L 51.044727 101.683486 
L 50.740364 101.707513 
L 50.436 102.231507 
L 50.131636 103.035798 
L 49.827273 103.132901 
L 49.522909 103.900498 
L 49.218545 104.031719 
L 48.305455 105.473851 
L 48.001091 105.652503 
L 47.696727 106.165213 
L 47.392364 107.093267 
L 47.088 107.103787 
L 46.479273 108.176794 
L 46.174909 108.305457 
L 45.870545 109.095212 
L 45.261818 109.960131 
L 44.957455 109.925489 
L 44.653091 110.653436 
L 44.348727 110.710718 
L 44.044364 111.630783 
L 43.131273 112.337568 
L 42.826909 113.361645 
L 42.218182 113.815487 
L 41.305091 115.445699 
L 40.392 116.327843 
L 40.087636 117.372792 
L 39.783273 117.461233 
L 39.478909 117.234726 
L 39.174545 118.176183 
L 38.870182 118.156327 
L 38.261455 119.226175 
L 37.957091 119.281883 
L 37.652727 120.019635 
L 37.348364 120.209438 
L 37.044 120.7919 
L 36.739636 120.918924 
L 35.826545 121.592138 
L 35.522182 122.486451 
L 34.913455 123.12 
L 34.609091 123.100746 
L 34.609091 123.100746 
" clip-path="url(#pc95c6dc994)" style="fill: none; stroke: #1f77b4; stroke-width: 1.5; stroke-linecap: square"/>
   </g>
   <g id="patch_3">
    <path d="M 27 128.16 
L 27 17.28 
" style="fill: none; stroke: #000000; stroke-width: 0.8; stroke-linejoin: miter; stroke-linecap: square"/>
   </g>
   <g id="patch_4">
    <path d="M 194.4 128.16 
L 194.4 17.28 
" style="fill: none; stroke: #000000; stroke-width: 0.8; stroke-linejoin: miter; stroke-linecap: square"/>
   </g>
   <g id="patch_5">
    <path d="M 27 128.16 
L 194.4 128.16 
" style="fill: none; stroke: #000000; stroke-width: 0.8; stroke-linejoin: miter; stroke-linecap: square"/>
   </g>
   <g id="patch_6">
    <path d="M 27 17.28 
L 194.4 17.28 
" style="fill: none; stroke: #000000; stroke-width: 0.8; stroke-linejoin: miter; stroke-linecap: square"/>
   </g>
  </g>
 </g>
 <defs>
  <clipPath id="pc95c6dc994">
   <rect x="27" y="17.28" width="167.4" height="110.88"/>
  </clipPath>
 </defs>
</svg>
