<?xml version="1.0" encoding="utf-8" standalone="no"?>
<!DOCTYPE svg PUBLIC "-//W3C//DTD SVG 1.1//EN"
  "http://www.w3.org/Graphics/SVG/1.1/DTD/svg11.dtd">
<svg xmlns:xlink="http://www.w3.org/1999/xlink" width="216pt" height="288pt" viewBox="0 0 216 288" xmlns="http://www.w3.org/2000/svg" version="1.1">
 <metadata>
  <rdf:RDF xmlns:dc="http://purl.org/dc/elements/1.1/" xmlns:cc="http://creativecommons.org/ns#" xmlns:rdf="http://www.w3.org/1999/02/22-rdf-syntax-ns#">
   <cc:Work>
    <dc:type rdf:resource="http://purl.org/dc/dcmitype/StillImage"/>
    <dc:date>2022-04-25T15:54:04.670057</dc:date>
    <dc:format>image/svg+xml</dc:format>
    <dc:creator>
     <cc:Agent>
      <dc:title>Matplotlib v3.5.1, https://matplotlib.org/</dc:title>
     </cc:Agent>
    </dc:creator>
   </cc:Work>
  </rdf:RDF>
 </metadata>
 <defs>
  <style type="text/css">*{stroke-linejoin: round; stroke-linecap: butt}</style>
 </defs>
 <g id="figure_1">
  <g id="patch_1">
   <path d="M 0 288 
L 216 288 
L 216 0 
L 0 0 
z
" style="fill: #ffffff"/>
  </g>
  <g id="axes_1">
   <g id="patch_2">
    <path d="M 27 135.36 
L 194.4 135.36 
L 194.4 34.56 
L 27 34.56 
z
" style="fill: #ffffff"/>
   </g>
   <g id="matplotlib.axis_1">
    <g id="xtick_1">
     <g id="line2d_1">
      <defs>
       <path id="mdfada3db82" d="M 0 0 
L 0 3.5 
" style="stroke: #000000; stroke-width: 0.8"/>
      </defs>
      <g>
       <use xlink:href="#mdfada3db82" x="67.219481" y="135.36" style="stroke: #000000; stroke-width: 0.8"/>
      </g>
     </g>
     <g id="text_1">
      <!-- −10 -->
      <g transform="translate(54.556668 151.478125)scale(0.12 -0.12)">
       <defs>
        <path id="DejaVuSans-2212" d="M 678 2272 
L 4684 2272 
L 4684 1741 
L 678 1741 
L 678 2272 
z
" transform="scale(0.015625)"/>
        <path id="DejaVuSans-31" d="M 794 531 
L 1825 531 
L 1825 4091 
L 703 3866 
L 703 4441 
L 1819 4666 
L 2450 4666 
L 2450 531 
L 3481 531 
L 3481 0 
L 794 0 
L 794 531 
z
" transform="scale(0.015625)"/>
        <path id="DejaVuSans-30" d="M 2034 4250 
Q 1547 4250 1301 3770 
Q 1056 3291 1056 2328 
Q 1056 1369 1301 889 
Q 1547 409 2034 409 
Q 2525 409 2770 889 
Q 3016 1369 3016 2328 
Q 3016 3291 2770 3770 
Q 2525 4250 2034 4250 
z
M 2034 4750 
Q 2819 4750 3233 4129 
Q 3647 3509 3647 2328 
Q 3647 1150 3233 529 
Q 2819 -91 2034 -91 
Q 1250 -91 836 529 
Q 422 1150 422 2328 
Q 422 3509 836 4129 
Q 1250 4750 2034 4750 
z
" transform="scale(0.015625)"/>
       </defs>
       <use xlink:href="#DejaVuSans-2212"/>
       <use xlink:href="#DejaVuSans-31" x="83.789062"/>
       <use xlink:href="#DejaVuSans-30" x="147.412109"/>
      </g>
     </g>
    </g>
    <g id="xtick_2">
     <g id="line2d_2">
      <g>
       <use xlink:href="#mdfada3db82" x="110.7" y="135.36" style="stroke: #000000; stroke-width: 0.8"/>
      </g>
     </g>
     <g id="text_2">
      <!-- 0 -->
      <g transform="translate(106.8825 151.478125)scale(0.12 -0.12)">
       <use xlink:href="#DejaVuSans-30"/>
      </g>
     </g>
    </g>
    <g id="xtick_3">
     <g id="line2d_3">
      <g>
       <use xlink:href="#mdfada3db82" x="154.180519" y="135.36" style="stroke: #000000; stroke-width: 0.8"/>
      </g>
     </g>
     <g id="text_3">
      <!-- 10 -->
      <g transform="translate(146.545519 151.478125)scale(0.12 -0.12)">
       <use xlink:href="#DejaVuSans-31"/>
       <use xlink:href="#DejaVuSans-30" x="63.623047"/>
      </g>
     </g>
    </g>
   </g>
   <g id="matplotlib.axis_2">
    <g id="ytick_1">
     <g id="line2d_4">
      <defs>
       <path id="mc2b81509ee" d="M 0 0 
L -3.5 0 
" style="stroke: #000000; stroke-width: 0.8"/>
      </defs>
      <g>
       <use xlink:href="#mc2b81509ee" x="27" y="128.138238" style="stroke: #000000; stroke-width: 0.8"/>
      </g>
     </g>
     <g id="text_4">
      <!-- 0.94 -->
      <g transform="translate(-6.71875 132.697301)scale(0.12 -0.12)">
       <defs>
        <path id="DejaVuSans-2e" d="M 684 794 
L 1344 794 
L 1344 0 
L 684 0 
L 684 794 
z
" transform="scale(0.015625)"/>
        <path id="DejaVuSans-39" d="M 703 97 
L 703 672 
Q 941 559 1184 500 
Q 1428 441 1663 441 
Q 2288 441 2617 861 
Q 2947 1281 2994 2138 
Q 2813 1869 2534 1725 
Q 2256 1581 1919 1581 
Q 1219 1581 811 2004 
Q 403 2428 403 3163 
Q 403 3881 828 4315 
Q 1253 4750 1959 4750 
Q 2769 4750 3195 4129 
Q 3622 3509 3622 2328 
Q 3622 1225 3098 567 
Q 2575 -91 1691 -91 
Q 1453 -91 1209 -44 
Q 966 3 703 97 
z
M 1959 2075 
Q 2384 2075 2632 2365 
Q 2881 2656 2881 3163 
Q 2881 3666 2632 3958 
Q 2384 4250 1959 4250 
Q 1534 4250 1286 3958 
Q 1038 3666 1038 3163 
Q 1038 2656 1286 2365 
Q 1534 2075 1959 2075 
z
" transform="scale(0.015625)"/>
        <path id="DejaVuSans-34" d="M 2419 4116 
L 825 1625 
L 2419 1625 
L 2419 4116 
z
M 2253 4666 
L 3047 4666 
L 3047 1625 
L 3713 1625 
L 3713 1100 
L 3047 1100 
L 3047 0 
L 2419 0 
L 2419 1100 
L 313 1100 
L 313 1709 
L 2253 4666 
z
" transform="scale(0.015625)"/>
       </defs>
       <use xlink:href="#DejaVuSans-30"/>
       <use xlink:href="#DejaVuSans-2e" x="63.623047"/>
       <use xlink:href="#DejaVuSans-39" x="95.410156"/>
       <use xlink:href="#DejaVuSans-34" x="159.033203"/>
      </g>
     </g>
    </g>
    <g id="ytick_2">
     <g id="line2d_5">
      <g>
       <use xlink:href="#mc2b81509ee" x="27" y="98.472765" style="stroke: #000000; stroke-width: 0.8"/>
      </g>
     </g>
     <g id="text_5">
      <!-- 0.96 -->
      <g transform="translate(-6.71875 103.031827)scale(0.12 -0.12)">
       <defs>
        <path id="DejaVuSans-36" d="M 2113 2584 
Q 1688 2584 1439 2293 
Q 1191 2003 1191 1497 
Q 1191 994 1439 701 
Q 1688 409 2113 409 
Q 2538 409 2786 701 
Q 3034 994 3034 1497 
Q 3034 2003 2786 2293 
Q 2538 2584 2113 2584 
z
M 3366 4563 
L 3366 3988 
Q 3128 4100 2886 4159 
Q 2644 4219 2406 4219 
Q 1781 4219 1451 3797 
Q 1122 3375 1075 2522 
Q 1259 2794 1537 2939 
Q 1816 3084 2150 3084 
Q 2853 3084 3261 2657 
Q 3669 2231 3669 1497 
Q 3669 778 3244 343 
Q 2819 -91 2113 -91 
Q 1303 -91 875 529 
Q 447 1150 447 2328 
Q 447 3434 972 4092 
Q 1497 4750 2381 4750 
Q 2619 4750 2861 4703 
Q 3103 4656 3366 4563 
z
" transform="scale(0.015625)"/>
       </defs>
       <use xlink:href="#DejaVuSans-30"/>
       <use xlink:href="#DejaVuSans-2e" x="63.623047"/>
       <use xlink:href="#DejaVuSans-39" x="95.410156"/>
       <use xlink:href="#DejaVuSans-36" x="159.033203"/>
      </g>
     </g>
    </g>
    <g id="ytick_3">
     <g id="line2d_6">
      <g>
       <use xlink:href="#mc2b81509ee" x="27" y="68.807291" style="stroke: #000000; stroke-width: 0.8"/>
      </g>
     </g>
     <g id="text_6">
      <!-- 0.98 -->
      <g transform="translate(-6.71875 73.366354)scale(0.12 -0.12)">
       <defs>
        <path id="DejaVuSans-38" d="M 2034 2216 
Q 1584 2216 1326 1975 
Q 1069 1734 1069 1313 
Q 1069 891 1326 650 
Q 1584 409 2034 409 
Q 2484 409 2743 651 
Q 3003 894 3003 1313 
Q 3003 1734 2745 1975 
Q 2488 2216 2034 2216 
z
M 1403 2484 
Q 997 2584 770 2862 
Q 544 3141 544 3541 
Q 544 4100 942 4425 
Q 1341 4750 2034 4750 
Q 2731 4750 3128 4425 
Q 3525 4100 3525 3541 
Q 3525 3141 3298 2862 
Q 3072 2584 2669 2484 
Q 3125 2378 3379 2068 
Q 3634 1759 3634 1313 
Q 3634 634 3220 271 
Q 2806 -91 2034 -91 
Q 1263 -91 848 271 
Q 434 634 434 1313 
Q 434 1759 690 2068 
Q 947 2378 1403 2484 
z
M 1172 3481 
Q 1172 3119 1398 2916 
Q 1625 2713 2034 2713 
Q 2441 2713 2670 2916 
Q 2900 3119 2900 3481 
Q 2900 3844 2670 4047 
Q 2441 4250 2034 4250 
Q 1625 4250 1398 4047 
Q 1172 3844 1172 3481 
z
" transform="scale(0.015625)"/>
       </defs>
       <use xlink:href="#DejaVuSans-30"/>
       <use xlink:href="#DejaVuSans-2e" x="63.623047"/>
       <use xlink:href="#DejaVuSans-39" x="95.410156"/>
       <use xlink:href="#DejaVuSans-38" x="159.033203"/>
      </g>
     </g>
    </g>
    <g id="ytick_4">
     <g id="line2d_7">
      <g>
       <use xlink:href="#mc2b81509ee" x="27" y="39.141818" style="stroke: #000000; stroke-width: 0.8"/>
      </g>
     </g>
     <g id="text_7">
      <!-- 1.00 -->
      <g transform="translate(-6.71875 43.700881)scale(0.12 -0.12)">
       <use xlink:href="#DejaVuSans-31"/>
       <use xlink:href="#DejaVuSans-2e" x="63.623047"/>
       <use xlink:href="#DejaVuSans-30" x="95.410156"/>
       <use xlink:href="#DejaVuSans-30" x="159.033203"/>
      </g>
     </g>
    </g>
    <g id="text_8">
     <!-- Photoluminescence (AU) -->
     <g transform="translate(-14.878125 207.600625)rotate(-90)scale(0.2 -0.2)">
      <defs>
       <path id="DejaVuSans-50" d="M 1259 4147 
L 1259 2394 
L 2053 2394 
Q 2494 2394 2734 2622 
Q 2975 2850 2975 3272 
Q 2975 3691 2734 3919 
Q 2494 4147 2053 4147 
L 1259 4147 
z
M 628 4666 
L 2053 4666 
Q 2838 4666 3239 4311 
Q 3641 3956 3641 3272 
Q 3641 2581 3239 2228 
Q 2838 1875 2053 1875 
L 1259 1875 
L 1259 0 
L 628 0 
L 628 4666 
z
" transform="scale(0.015625)"/>
       <path id="DejaVuSans-68" d="M 3513 2113 
L 3513 0 
L 2938 0 
L 2938 2094 
Q 2938 2591 2744 2837 
Q 2550 3084 2163 3084 
Q 1697 3084 1428 2787 
Q 1159 2491 1159 1978 
L 1159 0 
L 581 0 
L 581 4863 
L 1159 4863 
L 1159 2956 
Q 1366 3272 1645 3428 
Q 1925 3584 2291 3584 
Q 2894 3584 3203 3211 
Q 3513 2838 3513 2113 
z
" transform="scale(0.015625)"/>
       <path id="DejaVuSans-6f" d="M 1959 3097 
Q 1497 3097 1228 2736 
Q 959 2375 959 1747 
Q 959 1119 1226 758 
Q 1494 397 1959 397 
Q 2419 397 2687 759 
Q 2956 1122 2956 1747 
Q 2956 2369 2687 2733 
Q 2419 3097 1959 3097 
z
M 1959 3584 
Q 2709 3584 3137 3096 
Q 3566 2609 3566 1747 
Q 3566 888 3137 398 
Q 2709 -91 1959 -91 
Q 1206 -91 779 398 
Q 353 888 353 1747 
Q 353 2609 779 3096 
Q 1206 3584 1959 3584 
z
" transform="scale(0.015625)"/>
       <path id="DejaVuSans-74" d="M 1172 4494 
L 1172 3500 
L 2356 3500 
L 2356 3053 
L 1172 3053 
L 1172 1153 
Q 1172 725 1289 603 
Q 1406 481 1766 481 
L 2356 481 
L 2356 0 
L 1766 0 
Q 1100 0 847 248 
Q 594 497 594 1153 
L 594 3053 
L 172 3053 
L 172 3500 
L 594 3500 
L 594 4494 
L 1172 4494 
z
" transform="scale(0.015625)"/>
       <path id="DejaVuSans-6c" d="M 603 4863 
L 1178 4863 
L 1178 0 
L 603 0 
L 603 4863 
z
" transform="scale(0.015625)"/>
       <path id="DejaVuSans-75" d="M 544 1381 
L 544 3500 
L 1119 3500 
L 1119 1403 
Q 1119 906 1312 657 
Q 1506 409 1894 409 
Q 2359 409 2629 706 
Q 2900 1003 2900 1516 
L 2900 3500 
L 3475 3500 
L 3475 0 
L 2900 0 
L 2900 538 
Q 2691 219 2414 64 
Q 2138 -91 1772 -91 
Q 1169 -91 856 284 
Q 544 659 544 1381 
z
M 1991 3584 
L 1991 3584 
z
" transform="scale(0.015625)"/>
       <path id="DejaVuSans-6d" d="M 3328 2828 
Q 3544 3216 3844 3400 
Q 4144 3584 4550 3584 
Q 5097 3584 5394 3201 
Q 5691 2819 5691 2113 
L 5691 0 
L 5113 0 
L 5113 2094 
Q 5113 2597 4934 2840 
Q 4756 3084 4391 3084 
Q 3944 3084 3684 2787 
Q 3425 2491 3425 1978 
L 3425 0 
L 2847 0 
L 2847 2094 
Q 2847 2600 2669 2842 
Q 2491 3084 2119 3084 
Q 1678 3084 1418 2786 
Q 1159 2488 1159 1978 
L 1159 0 
L 581 0 
L 581 3500 
L 1159 3500 
L 1159 2956 
Q 1356 3278 1631 3431 
Q 1906 3584 2284 3584 
Q 2666 3584 2933 3390 
Q 3200 3197 3328 2828 
z
" transform="scale(0.015625)"/>
       <path id="DejaVuSans-69" d="M 603 3500 
L 1178 3500 
L 1178 0 
L 603 0 
L 603 3500 
z
M 603 4863 
L 1178 4863 
L 1178 4134 
L 603 4134 
L 603 4863 
z
" transform="scale(0.015625)"/>
       <path id="DejaVuSans-6e" d="M 3513 2113 
L 3513 0 
L 2938 0 
L 2938 2094 
Q 2938 2591 2744 2837 
Q 2550 3084 2163 3084 
Q 1697 3084 1428 2787 
Q 1159 2491 1159 1978 
L 1159 0 
L 581 0 
L 581 3500 
L 1159 3500 
L 1159 2956 
Q 1366 3272 1645 3428 
Q 1925 3584 2291 3584 
Q 2894 3584 3203 3211 
Q 3513 2838 3513 2113 
z
" transform="scale(0.015625)"/>
       <path id="DejaVuSans-65" d="M 3597 1894 
L 3597 1613 
L 953 1613 
Q 991 1019 1311 708 
Q 1631 397 2203 397 
Q 2534 397 2845 478 
Q 3156 559 3463 722 
L 3463 178 
Q 3153 47 2828 -22 
Q 2503 -91 2169 -91 
Q 1331 -91 842 396 
Q 353 884 353 1716 
Q 353 2575 817 3079 
Q 1281 3584 2069 3584 
Q 2775 3584 3186 3129 
Q 3597 2675 3597 1894 
z
M 3022 2063 
Q 3016 2534 2758 2815 
Q 2500 3097 2075 3097 
Q 1594 3097 1305 2825 
Q 1016 2553 972 2059 
L 3022 2063 
z
" transform="scale(0.015625)"/>
       <path id="DejaVuSans-73" d="M 2834 3397 
L 2834 2853 
Q 2591 2978 2328 3040 
Q 2066 3103 1784 3103 
Q 1356 3103 1142 2972 
Q 928 2841 928 2578 
Q 928 2378 1081 2264 
Q 1234 2150 1697 2047 
L 1894 2003 
Q 2506 1872 2764 1633 
Q 3022 1394 3022 966 
Q 3022 478 2636 193 
Q 2250 -91 1575 -91 
Q 1294 -91 989 -36 
Q 684 19 347 128 
L 347 722 
Q 666 556 975 473 
Q 1284 391 1588 391 
Q 1994 391 2212 530 
Q 2431 669 2431 922 
Q 2431 1156 2273 1281 
Q 2116 1406 1581 1522 
L 1381 1569 
Q 847 1681 609 1914 
Q 372 2147 372 2553 
Q 372 3047 722 3315 
Q 1072 3584 1716 3584 
Q 2034 3584 2315 3537 
Q 2597 3491 2834 3397 
z
" transform="scale(0.015625)"/>
       <path id="DejaVuSans-63" d="M 3122 3366 
L 3122 2828 
Q 2878 2963 2633 3030 
Q 2388 3097 2138 3097 
Q 1578 3097 1268 2742 
Q 959 2388 959 1747 
Q 959 1106 1268 751 
Q 1578 397 2138 397 
Q 2388 397 2633 464 
Q 2878 531 3122 666 
L 3122 134 
Q 2881 22 2623 -34 
Q 2366 -91 2075 -91 
Q 1284 -91 818 406 
Q 353 903 353 1747 
Q 353 2603 823 3093 
Q 1294 3584 2113 3584 
Q 2378 3584 2631 3529 
Q 2884 3475 3122 3366 
z
" transform="scale(0.015625)"/>
       <path id="DejaVuSans-20" transform="scale(0.015625)"/>
       <path id="DejaVuSans-28" d="M 1984 4856 
Q 1566 4138 1362 3434 
Q 1159 2731 1159 2009 
Q 1159 1288 1364 580 
Q 1569 -128 1984 -844 
L 1484 -844 
Q 1016 -109 783 600 
Q 550 1309 550 2009 
Q 550 2706 781 3412 
Q 1013 4119 1484 4856 
L 1984 4856 
z
" transform="scale(0.015625)"/>
       <path id="DejaVuSans-41" d="M 2188 4044 
L 1331 1722 
L 3047 1722 
L 2188 4044 
z
M 1831 4666 
L 2547 4666 
L 4325 0 
L 3669 0 
L 3244 1197 
L 1141 1197 
L 716 0 
L 50 0 
L 1831 4666 
z
" transform="scale(0.015625)"/>
       <path id="DejaVuSans-55" d="M 556 4666 
L 1191 4666 
L 1191 1831 
Q 1191 1081 1462 751 
Q 1734 422 2344 422 
Q 2950 422 3222 751 
Q 3494 1081 3494 1831 
L 3494 4666 
L 4128 4666 
L 4128 1753 
Q 4128 841 3676 375 
Q 3225 -91 2344 -91 
Q 1459 -91 1007 375 
Q 556 841 556 1753 
L 556 4666 
z
" transform="scale(0.015625)"/>
       <path id="DejaVuSans-29" d="M 513 4856 
L 1013 4856 
Q 1481 4119 1714 3412 
Q 1947 2706 1947 2009 
Q 1947 1309 1714 600 
Q 1481 -109 1013 -844 
L 513 -844 
Q 928 -128 1133 580 
Q 1338 1288 1338 2009 
Q 1338 2731 1133 3434 
Q 928 4138 513 4856 
z
" transform="scale(0.015625)"/>
      </defs>
      <use xlink:href="#DejaVuSans-50"/>
      <use xlink:href="#DejaVuSans-68" x="60.302734"/>
      <use xlink:href="#DejaVuSans-6f" x="123.681641"/>
      <use xlink:href="#DejaVuSans-74" x="184.863281"/>
      <use xlink:href="#DejaVuSans-6f" x="224.072266"/>
      <use xlink:href="#DejaVuSans-6c" x="285.253906"/>
      <use xlink:href="#DejaVuSans-75" x="313.037109"/>
      <use xlink:href="#DejaVuSans-6d" x="376.416016"/>
      <use xlink:href="#DejaVuSans-69" x="473.828125"/>
      <use xlink:href="#DejaVuSans-6e" x="501.611328"/>
      <use xlink:href="#DejaVuSans-65" x="564.990234"/>
      <use xlink:href="#DejaVuSans-73" x="626.513672"/>
      <use xlink:href="#DejaVuSans-63" x="678.613281"/>
      <use xlink:href="#DejaVuSans-65" x="733.59375"/>
      <use xlink:href="#DejaVuSans-6e" x="795.117188"/>
      <use xlink:href="#DejaVuSans-63" x="858.496094"/>
      <use xlink:href="#DejaVuSans-65" x="913.476562"/>
      <use xlink:href="#DejaVuSans-20" x="975"/>
      <use xlink:href="#DejaVuSans-28" x="1006.787109"/>
      <use xlink:href="#DejaVuSans-41" x="1045.800781"/>
      <use xlink:href="#DejaVuSans-55" x="1114.208984"/>
      <use xlink:href="#DejaVuSans-29" x="1187.402344"/>
     </g>
    </g>
   </g>
   <g id="line2d_8">
    <path d="M 34.609091 130.615831 
L 34.913455 130.778182 
L 35.217818 130.341357 
L 35.522182 130.326982 
L 36.435273 129.454515 
L 37.348364 128.984206 
L 37.652727 128.739834 
L 37.957091 128.270369 
L 39.783273 126.643817 
L 40.087636 126.253499 
L 40.392 126.198029 
L 40.696364 125.898018 
L 41.000727 125.405385 
L 41.305091 125.328607 
L 41.609455 124.93795 
L 42.218182 124.675652 
L 42.522545 124.100829 
L 42.826909 124.052969 
L 44.348727 122.454321 
L 44.957455 121.770757 
L 45.261818 121.477172 
L 45.566182 121.393122 
L 45.870545 120.925687 
L 46.174909 120.775682 
L 46.479273 120.495965 
L 47.088 119.580205 
L 48.001091 118.757628 
L 48.914182 117.628106 
L 49.218545 117.47049 
L 51.349091 114.893002 
L 51.653455 114.765489 
L 52.566545 113.639857 
L 52.870909 113.048461 
L 53.175273 112.933969 
L 54.697091 110.841674 
L 56.218909 108.94386 
L 56.827636 108.359398 
L 57.436364 107.443469 
L 57.740727 107.11048 
L 58.349455 106.06484 
L 58.653818 105.923798 
L 59.262545 105.235667 
L 59.566909 104.6118 
L 59.871273 104.398884 
L 60.48 103.443889 
L 60.784364 103.177532 
L 61.393091 102.361212 
L 61.697455 101.957703 
L 62.001818 101.362755 
L 62.306182 101.169625 
L 64.132364 98.854435 
L 64.741091 97.960153 
L 65.349818 96.927704 
L 65.958545 96.288278 
L 66.262909 95.804608 
L 66.871636 94.577338 
L 67.176 94.04547 
L 67.480364 93.853186 
L 72.958909 85.330446 
L 73.263273 85.129537 
L 73.567636 84.296305 
L 73.872 83.931185 
L 74.480727 83.016947 
L 75.089455 82.043688 
L 75.393818 81.602297 
L 76.002545 80.48529 
L 77.22 78.799885 
L 77.828727 77.60982 
L 78.133091 77.263134 
L 78.741818 76.25639 
L 79.046182 75.974813 
L 79.350545 75.345365 
L 79.654909 74.983797 
L 79.959273 74.297526 
L 80.872364 73.015462 
L 81.481091 72.057593 
L 81.785455 71.298941 
L 82.089818 71.157561 
L 82.698545 70.290844 
L 83.307273 69.146779 
L 83.611636 68.784703 
L 83.916 68.126505 
L 84.220364 67.976331 
L 85.133455 66.103378 
L 86.046545 65.032708 
L 86.655273 63.654418 
L 88.177091 61.595607 
L 89.090182 59.823954 
L 89.394545 59.659236 
L 90.003273 58.679719 
L 90.307636 58.376326 
L 90.916364 57.403744 
L 91.220727 57.095446 
L 91.525091 56.396492 
L 92.133818 55.597084 
L 93.351273 53.907283 
L 94.264364 52.69388 
L 94.873091 52.055469 
L 98.221091 47.615007 
L 98.525455 47.416127 
L 98.829818 46.976427 
L 99.134182 46.744401 
L 99.438545 46.103622 
L 99.742909 45.915904 
L 100.351636 45.249082 
L 102.177818 43.863351 
L 102.482182 43.833586 
L 102.786545 43.457981 
L 103.090909 43.702015 
L 103.395273 43.48115 
L 103.699636 43.493665 
L 104.004 43.635214 
L 104.308364 43.413842 
L 104.917091 43.44107 
L 105.221455 43.076457 
L 105.525818 43.011178 
L 106.134545 42.457664 
L 106.438909 41.922583 
L 106.743273 41.623417 
L 107.047636 41.501654 
L 107.352 41.082586 
L 107.656364 40.900956 
L 108.265091 40.102224 
L 108.569455 40.044049 
L 108.873818 39.87172 
L 109.178182 40.092416 
L 109.482545 39.878823 
L 109.786909 39.95019 
L 110.091273 40.752135 
L 110.395636 41.207055 
L 111.308727 44.318948 
L 111.917455 47.379598 
L 112.221818 49.148376 
L 112.830545 51.167952 
L 113.439273 51.323538 
L 113.743636 51.266039 
L 114.048 50.70948 
L 115.265455 45.658849 
L 115.874182 42.246608 
L 116.178545 41.239525 
L 117.091636 39.534504 
L 117.396 39.141818 
L 118.004727 39.467704 
L 118.309091 39.46449 
L 118.613455 39.820478 
L 118.917818 40.412551 
L 119.222182 40.445021 
L 119.526545 41.23107 
L 119.830909 41.424199 
L 120.135273 41.969428 
L 120.744 42.603272 
L 121.048364 43.392195 
L 121.961455 44.063414 
L 122.265818 44.323514 
L 122.570182 44.361903 
L 123.178909 44.822066 
L 123.483273 45.236737 
L 123.787636 45.14812 
L 124.092 45.457602 
L 124.396364 45.537593 
L 125.005091 46.085865 
L 125.918182 47.04086 
L 126.222545 47.211836 
L 126.831273 48.053354 
L 127.135636 48.759918 
L 127.44 49.151589 
L 127.744364 49.170361 
L 128.353091 50.211435 
L 128.657455 50.55846 
L 128.961818 51.113666 
L 129.266182 51.293097 
L 129.570545 51.851855 
L 129.874909 52.080329 
L 131.701091 54.68217 
L 132.614182 55.798839 
L 132.918545 56.524344 
L 133.222909 56.747914 
L 133.527273 57.342186 
L 133.831636 57.452618 
L 134.440364 58.543243 
L 135.657818 60.184001 
L 136.570909 61.648371 
L 136.875273 61.972565 
L 137.484 62.983199 
L 138.397091 64.227719 
L 138.701455 64.862916 
L 139.005818 64.987385 
L 139.614545 66.086466 
L 139.918909 66.141429 
L 140.223273 66.731472 
L 140.527636 67.072578 
L 140.832 67.881457 
L 141.745091 69.024001 
L 143.875636 72.305009 
L 144.18 72.604512 
L 144.484364 73.364178 
L 145.093091 74.136867 
L 145.397455 74.278754 
L 145.701818 75.041634 
L 146.006182 75.150713 
L 146.614909 76.509725 
L 146.919273 76.5794 
L 147.223636 77.326045 
L 147.832364 77.874993 
L 148.136727 78.712622 
L 148.441091 78.863304 
L 149.049818 79.895753 
L 149.354182 80.073324 
L 149.658545 80.729323 
L 149.962909 81.073811 
L 150.571636 82.226502 
L 150.876 82.495564 
L 151.484727 83.539852 
L 151.789091 83.910046 
L 152.397818 84.961098 
L 153.310909 86.297617 
L 153.615273 86.581731 
L 154.224 87.78245 
L 154.832727 88.562072 
L 155.137091 89.073477 
L 155.441455 89.359451 
L 156.050182 90.503009 
L 156.963273 91.552709 
L 157.267636 91.941674 
L 157.876364 93.305928 
L 158.180727 93.411118 
L 158.789455 94.343282 
L 159.093818 94.996575 
L 159.702545 95.676926 
L 160.006909 96.378417 
L 160.92 97.47902 
L 161.528727 98.61649 
L 161.833091 99.095932 
L 162.137455 99.296334 
L 162.746182 100.474223 
L 163.050545 100.905805 
L 163.354909 101.138508 
L 163.963636 102.098238 
L 166.094182 104.885936 
L 166.398545 105.445032 
L 167.311636 106.482555 
L 167.616 106.985842 
L 167.920364 107.205692 
L 168.833455 108.716738 
L 169.137818 108.905133 
L 169.442182 109.285304 
L 170.050909 110.413981 
L 170.355273 110.612353 
L 171.268364 111.792271 
L 171.572727 112.001298 
L 171.877091 112.645797 
L 178.268727 120.583905 
L 178.573091 120.788196 
L 178.877455 121.145199 
L 179.181818 121.685523 
L 180.399273 123.008005 
L 186.790909 130.08464 
L 186.790909 130.08464 
" clip-path="url(#p7ce6c26b0b)" style="fill: none; stroke: #1f77b4; stroke-width: 1.5; stroke-linecap: square"/>
   </g>
   <g id="patch_3">
    <path d="M 27 135.36 
L 27 34.56 
" style="fill: none; stroke: #000000; stroke-width: 0.8; stroke-linejoin: miter; stroke-linecap: square"/>
   </g>
   <g id="patch_4">
    <path d="M 194.4 135.36 
L 194.4 34.56 
" style="fill: none; stroke: #000000; stroke-width: 0.8; stroke-linejoin: miter; stroke-linecap: square"/>
   </g>
   <g id="patch_5">
    <path d="M 27 135.36 
L 194.4 135.36 
" style="fill: none; stroke: #000000; stroke-width: 0.8; stroke-linejoin: miter; stroke-linecap: square"/>
   </g>
   <g id="patch_6">
    <path d="M 27 34.56 
L 194.4 34.56 
" style="fill: none; stroke: #000000; stroke-width: 0.8; stroke-linejoin: miter; stroke-linecap: square"/>
   </g>
  </g>
  <g id="axes_2">
   <g id="patch_7">
    <path d="M 27 256.32 
L 194.4 256.32 
L 194.4 155.52 
L 27 155.52 
z
" style="fill: #ffffff"/>
   </g>
   <g id="matplotlib.axis_3">
    <g id="xtick_4">
     <g id="line2d_9">
      <g>
       <use xlink:href="#mdfada3db82" x="67.219481" y="256.32" style="stroke: #000000; stroke-width: 0.8"/>
      </g>
     </g>
     <g id="text_9">
      <!-- −10 -->
      <g transform="translate(54.556668 272.438125)scale(0.12 -0.12)">
       <use xlink:href="#DejaVuSans-2212"/>
       <use xlink:href="#DejaVuSans-31" x="83.789062"/>
       <use xlink:href="#DejaVuSans-30" x="147.412109"/>
      </g>
     </g>
    </g>
    <g id="xtick_5">
     <g id="line2d_10">
      <g>
       <use xlink:href="#mdfada3db82" x="110.7" y="256.32" style="stroke: #000000; stroke-width: 0.8"/>
      </g>
     </g>
     <g id="text_10">
      <!-- 0 -->
      <g transform="translate(106.8825 272.438125)scale(0.12 -0.12)">
       <use xlink:href="#DejaVuSans-30"/>
      </g>
     </g>
    </g>
    <g id="xtick_6">
     <g id="line2d_11">
      <g>
       <use xlink:href="#mdfada3db82" x="154.180519" y="256.32" style="stroke: #000000; stroke-width: 0.8"/>
      </g>
     </g>
     <g id="text_11">
      <!-- 10 -->
      <g transform="translate(146.545519 272.438125)scale(0.12 -0.12)">
       <use xlink:href="#DejaVuSans-31"/>
       <use xlink:href="#DejaVuSans-30" x="63.623047"/>
      </g>
     </g>
    </g>
    <g id="text_12">
     <!-- magnetic field (mT) -->
     <g transform="translate(12.209375 294.130625)scale(0.2 -0.2)">
      <defs>
       <path id="DejaVuSans-61" d="M 2194 1759 
Q 1497 1759 1228 1600 
Q 959 1441 959 1056 
Q 959 750 1161 570 
Q 1363 391 1709 391 
Q 2188 391 2477 730 
Q 2766 1069 2766 1631 
L 2766 1759 
L 2194 1759 
z
M 3341 1997 
L 3341 0 
L 2766 0 
L 2766 531 
Q 2569 213 2275 61 
Q 1981 -91 1556 -91 
Q 1019 -91 701 211 
Q 384 513 384 1019 
Q 384 1609 779 1909 
Q 1175 2209 1959 2209 
L 2766 2209 
L 2766 2266 
Q 2766 2663 2505 2880 
Q 2244 3097 1772 3097 
Q 1472 3097 1187 3025 
Q 903 2953 641 2809 
L 641 3341 
Q 956 3463 1253 3523 
Q 1550 3584 1831 3584 
Q 2591 3584 2966 3190 
Q 3341 2797 3341 1997 
z
" transform="scale(0.015625)"/>
       <path id="DejaVuSans-67" d="M 2906 1791 
Q 2906 2416 2648 2759 
Q 2391 3103 1925 3103 
Q 1463 3103 1205 2759 
Q 947 2416 947 1791 
Q 947 1169 1205 825 
Q 1463 481 1925 481 
Q 2391 481 2648 825 
Q 2906 1169 2906 1791 
z
M 3481 434 
Q 3481 -459 3084 -895 
Q 2688 -1331 1869 -1331 
Q 1566 -1331 1297 -1286 
Q 1028 -1241 775 -1147 
L 775 -588 
Q 1028 -725 1275 -790 
Q 1522 -856 1778 -856 
Q 2344 -856 2625 -561 
Q 2906 -266 2906 331 
L 2906 616 
Q 2728 306 2450 153 
Q 2172 0 1784 0 
Q 1141 0 747 490 
Q 353 981 353 1791 
Q 353 2603 747 3093 
Q 1141 3584 1784 3584 
Q 2172 3584 2450 3431 
Q 2728 3278 2906 2969 
L 2906 3500 
L 3481 3500 
L 3481 434 
z
" transform="scale(0.015625)"/>
       <path id="DejaVuSans-66" d="M 2375 4863 
L 2375 4384 
L 1825 4384 
Q 1516 4384 1395 4259 
Q 1275 4134 1275 3809 
L 1275 3500 
L 2222 3500 
L 2222 3053 
L 1275 3053 
L 1275 0 
L 697 0 
L 697 3053 
L 147 3053 
L 147 3500 
L 697 3500 
L 697 3744 
Q 697 4328 969 4595 
Q 1241 4863 1831 4863 
L 2375 4863 
z
" transform="scale(0.015625)"/>
       <path id="DejaVuSans-64" d="M 2906 2969 
L 2906 4863 
L 3481 4863 
L 3481 0 
L 2906 0 
L 2906 525 
Q 2725 213 2448 61 
Q 2172 -91 1784 -91 
Q 1150 -91 751 415 
Q 353 922 353 1747 
Q 353 2572 751 3078 
Q 1150 3584 1784 3584 
Q 2172 3584 2448 3432 
Q 2725 3281 2906 2969 
z
M 947 1747 
Q 947 1113 1208 752 
Q 1469 391 1925 391 
Q 2381 391 2643 752 
Q 2906 1113 2906 1747 
Q 2906 2381 2643 2742 
Q 2381 3103 1925 3103 
Q 1469 3103 1208 2742 
Q 947 2381 947 1747 
z
" transform="scale(0.015625)"/>
       <path id="DejaVuSans-54" d="M -19 4666 
L 3928 4666 
L 3928 4134 
L 2272 4134 
L 2272 0 
L 1638 0 
L 1638 4134 
L -19 4134 
L -19 4666 
z
" transform="scale(0.015625)"/>
      </defs>
      <use xlink:href="#DejaVuSans-6d"/>
      <use xlink:href="#DejaVuSans-61" x="97.412109"/>
      <use xlink:href="#DejaVuSans-67" x="158.691406"/>
      <use xlink:href="#DejaVuSans-6e" x="222.167969"/>
      <use xlink:href="#DejaVuSans-65" x="285.546875"/>
      <use xlink:href="#DejaVuSans-74" x="347.070312"/>
      <use xlink:href="#DejaVuSans-69" x="386.279297"/>
      <use xlink:href="#DejaVuSans-63" x="414.0625"/>
      <use xlink:href="#DejaVuSans-20" x="469.042969"/>
      <use xlink:href="#DejaVuSans-66" x="500.830078"/>
      <use xlink:href="#DejaVuSans-69" x="536.035156"/>
      <use xlink:href="#DejaVuSans-65" x="563.818359"/>
      <use xlink:href="#DejaVuSans-6c" x="625.341797"/>
      <use xlink:href="#DejaVuSans-64" x="653.125"/>
      <use xlink:href="#DejaVuSans-20" x="716.601562"/>
      <use xlink:href="#DejaVuSans-28" x="748.388672"/>
      <use xlink:href="#DejaVuSans-6d" x="787.402344"/>
      <use xlink:href="#DejaVuSans-54" x="884.814453"/>
      <use xlink:href="#DejaVuSans-29" x="945.898438"/>
     </g>
    </g>
   </g>
   <g id="matplotlib.axis_4">
    <g id="ytick_5">
     <g id="line2d_12">
      <g>
       <use xlink:href="#mc2b81509ee" x="27" y="249.431893" style="stroke: #000000; stroke-width: 0.8"/>
      </g>
     </g>
     <g id="text_13">
      <!-- −5 -->
      <g transform="translate(2.309375 253.990955)scale(0.12 -0.12)">
       <defs>
        <path id="DejaVuSans-35" d="M 691 4666 
L 3169 4666 
L 3169 4134 
L 1269 4134 
L 1269 2991 
Q 1406 3038 1543 3061 
Q 1681 3084 1819 3084 
Q 2600 3084 3056 2656 
Q 3513 2228 3513 1497 
Q 3513 744 3044 326 
Q 2575 -91 1722 -91 
Q 1428 -91 1123 -41 
Q 819 9 494 109 
L 494 744 
Q 775 591 1075 516 
Q 1375 441 1709 441 
Q 2250 441 2565 725 
Q 2881 1009 2881 1497 
Q 2881 1984 2565 2268 
Q 2250 2553 1709 2553 
Q 1456 2553 1204 2497 
Q 953 2441 691 2322 
L 691 4666 
z
" transform="scale(0.015625)"/>
       </defs>
       <use xlink:href="#DejaVuSans-2212"/>
       <use xlink:href="#DejaVuSans-35" x="83.789062"/>
      </g>
     </g>
    </g>
    <g id="ytick_6">
     <g id="line2d_13">
      <g>
       <use xlink:href="#mc2b81509ee" x="27" y="205.730198" style="stroke: #000000; stroke-width: 0.8"/>
      </g>
     </g>
     <g id="text_14">
      <!-- 0 -->
      <g transform="translate(12.365 210.28926)scale(0.12 -0.12)">
       <use xlink:href="#DejaVuSans-30"/>
      </g>
     </g>
    </g>
    <g id="ytick_7">
     <g id="line2d_14">
      <g>
       <use xlink:href="#mc2b81509ee" x="27" y="162.028503" style="stroke: #000000; stroke-width: 0.8"/>
      </g>
     </g>
     <g id="text_15">
      <!-- 5 -->
      <g transform="translate(12.365 166.587566)scale(0.12 -0.12)">
       <use xlink:href="#DejaVuSans-35"/>
      </g>
     </g>
    </g>
    <g id="text_16">
     <!-- Demodulated PL (AU) -->
     <g transform="translate(-5.85 313.566875)rotate(-90)scale(0.2 -0.2)">
      <defs>
       <path id="DejaVuSans-44" d="M 1259 4147 
L 1259 519 
L 2022 519 
Q 2988 519 3436 956 
Q 3884 1394 3884 2338 
Q 3884 3275 3436 3711 
Q 2988 4147 2022 4147 
L 1259 4147 
z
M 628 4666 
L 1925 4666 
Q 3281 4666 3915 4102 
Q 4550 3538 4550 2338 
Q 4550 1131 3912 565 
Q 3275 0 1925 0 
L 628 0 
L 628 4666 
z
" transform="scale(0.015625)"/>
       <path id="DejaVuSans-4c" d="M 628 4666 
L 1259 4666 
L 1259 531 
L 3531 531 
L 3531 0 
L 628 0 
L 628 4666 
z
" transform="scale(0.015625)"/>
      </defs>
      <use xlink:href="#DejaVuSans-44"/>
      <use xlink:href="#DejaVuSans-65" x="77.001953"/>
      <use xlink:href="#DejaVuSans-6d" x="138.525391"/>
      <use xlink:href="#DejaVuSans-6f" x="235.9375"/>
      <use xlink:href="#DejaVuSans-64" x="297.119141"/>
      <use xlink:href="#DejaVuSans-75" x="360.595703"/>
      <use xlink:href="#DejaVuSans-6c" x="423.974609"/>
      <use xlink:href="#DejaVuSans-61" x="451.757812"/>
      <use xlink:href="#DejaVuSans-74" x="513.037109"/>
      <use xlink:href="#DejaVuSans-65" x="552.246094"/>
      <use xlink:href="#DejaVuSans-64" x="613.769531"/>
      <use xlink:href="#DejaVuSans-20" x="677.246094"/>
      <use xlink:href="#DejaVuSans-50" x="709.033203"/>
      <use xlink:href="#DejaVuSans-4c" x="769.335938"/>
      <use xlink:href="#DejaVuSans-20" x="825.048828"/>
      <use xlink:href="#DejaVuSans-28" x="856.835938"/>
      <use xlink:href="#DejaVuSans-41" x="895.849609"/>
      <use xlink:href="#DejaVuSans-55" x="964.257812"/>
      <use xlink:href="#DejaVuSans-29" x="1037.451172"/>
     </g>
    </g>
   </g>
   <g id="line2d_15">
    <path d="M 34.609091 215.307206 
L 38.261455 215.496141 
L 38.870182 215.676127 
L 41.609455 215.805409 
L 42.218182 215.943977 
L 43.435636 215.994055 
L 44.653091 215.88285 
L 45.261818 215.986516 
L 45.870545 215.89037 
L 46.479273 216.079584 
L 47.088 216.170033 
L 50.131636 216.25169 
L 50.436 216.362744 
L 51.653455 216.434289 
L 52.262182 216.493224 
L 53.479636 216.490159 
L 54.088364 216.598047 
L 54.697091 216.511336 
L 56.218909 216.767647 
L 57.740727 216.709784 
L 58.653818 216.649748 
L 59.871273 216.537662 
L 60.784364 216.8134 
L 63.219273 216.097855 
L 64.132364 216.405428 
L 65.045455 217.188635 
L 65.958545 217.820881 
L 66.871636 218.257137 
L 67.176 218.22857 
L 67.784727 217.968816 
L 68.393455 217.773505 
L 69.002182 217.646859 
L 69.610909 217.696888 
L 70.524 217.307274 
L 71.741455 217.624985 
L 72.350182 217.979854 
L 72.654545 217.923216 
L 73.263273 217.562486 
L 73.872 217.490915 
L 74.785091 217.66899 
L 76.915636 217.576985 
L 77.524364 217.350161 
L 78.741818 217.264503 
L 80.872364 217.48916 
L 83.002909 217.17512 
L 83.611636 217.243575 
L 84.829091 217.090711 
L 85.742182 217.242863 
L 86.959636 217.22488 
L 88.177091 216.565447 
L 88.481455 216.585317 
L 89.698909 216.194072 
L 90.612 216.247209 
L 91.220727 216.046927 
L 92.133818 215.657939 
L 93.046909 215.631244 
L 93.96 215.141363 
L 94.568727 215.000651 
L 95.481818 214.995844 
L 96.090545 214.802835 
L 97.003636 214.31643 
L 97.612364 214.295068 
L 99.438545 213.262292 
L 100.351636 212.592553 
L 101.873455 211.670856 
L 102.177818 211.336496 
L 102.786545 209.941816 
L 104.612727 204.354369 
L 104.917091 204.348036 
L 105.221455 204.73282 
L 105.830182 206.346778 
L 106.438909 208.841098 
L 107.352 212.650302 
L 107.656364 213.366656 
L 107.960727 213.77971 
L 108.265091 213.861973 
L 108.569455 213.440286 
L 108.873818 212.489174 
L 109.482545 209.00302 
L 110.395636 201.760028 
L 111.004364 194.766564 
L 111.613091 184.211069 
L 112.526182 163.96622 
L 112.830545 160.125014 
L 113.134909 160.101818 
L 113.439273 164.799128 
L 113.743636 174.304526 
L 114.352364 203.071253 
L 114.961091 233.154171 
L 115.265455 244.096242 
L 115.569818 250.482171 
L 115.874182 251.738182 
L 116.178545 248.793585 
L 116.787273 236.170624 
L 117.700364 217.25766 
L 118.309091 209.416995 
L 119.222182 201.318248 
L 119.830909 197.164879 
L 120.135273 195.793601 
L 120.439636 195.031376 
L 120.744 194.807337 
L 121.048364 194.949818 
L 121.352727 195.420168 
L 121.961455 197.417146 
L 123.178909 202.516774 
L 123.787636 203.779862 
L 124.092 204.097161 
L 124.396364 203.998109 
L 124.700727 203.259862 
L 125.918182 198.695011 
L 126.526909 197.367233 
L 127.135636 196.502568 
L 127.744364 196.077522 
L 128.657455 195.674511 
L 129.266182 195.475544 
L 130.483636 194.857259 
L 131.396727 194.71064 
L 132.005455 194.559877 
L 132.614182 194.058663 
L 133.222909 194.017902 
L 134.440364 193.898423 
L 135.049091 193.657145 
L 135.962182 193.481987 
L 137.484 193.057373 
L 139.005818 192.766945 
L 139.918909 192.488266 
L 140.832 192.195167 
L 141.440727 191.907833 
L 143.571273 191.72247 
L 144.18 191.795739 
L 144.484364 191.755892 
L 145.397455 191.937753 
L 146.006182 191.814943 
L 146.919273 191.731304 
L 147.528 191.611751 
L 148.136727 191.56258 
L 148.745455 191.335338 
L 149.962909 191.518469 
L 150.571636 191.445716 
L 151.789091 191.373716 
L 152.397818 191.200248 
L 153.615273 191.301224 
L 153.919636 191.161432 
L 154.224 191.150668 
L 154.832727 191.267915 
L 156.354545 191.269002 
L 157.572 191.529313 
L 159.702545 191.407934 
L 160.615636 191.051724 
L 161.528727 190.843934 
L 162.137455 190.881829 
L 162.746182 191.077109 
L 165.181091 192.754183 
L 166.094182 192.750347 
L 167.616 192.353354 
L 168.224727 192.279891 
L 168.833455 192.17876 
L 169.746545 192.249262 
L 173.703273 192.627477 
L 174.616364 192.756804 
L 175.225091 192.695207 
L 180.399273 193.338652 
L 182.225455 193.383872 
L 182.834182 193.574024 
L 183.747273 193.649137 
L 185.573455 193.83981 
L 185.877818 193.952098 
L 186.790909 193.931208 
L 186.790909 193.931208 
" clip-path="url(#pf4284340a8)" style="fill: none; stroke: #1f77b4; stroke-width: 1.5; stroke-linecap: square"/>
   </g>
   <g id="patch_8">
    <path d="M 27 256.32 
L 27 155.52 
" style="fill: none; stroke: #000000; stroke-width: 0.8; stroke-linejoin: miter; stroke-linecap: square"/>
   </g>
   <g id="patch_9">
    <path d="M 194.4 256.32 
L 194.4 155.52 
" style="fill: none; stroke: #000000; stroke-width: 0.8; stroke-linejoin: miter; stroke-linecap: square"/>
   </g>
   <g id="patch_10">
    <path d="M 27 256.32 
L 194.4 256.32 
" style="fill: none; stroke: #000000; stroke-width: 0.8; stroke-linejoin: miter; stroke-linecap: square"/>
   </g>
   <g id="patch_11">
    <path d="M 27 155.52 
L 194.4 155.52 
" style="fill: none; stroke: #000000; stroke-width: 0.8; stroke-linejoin: miter; stroke-linecap: square"/>
   </g>
  </g>
 </g>
 <defs>
  <clipPath id="p7ce6c26b0b">
   <rect x="27" y="34.56" width="167.4" height="100.8"/>
  </clipPath>
  <clipPath id="pf4284340a8">
   <rect x="27" y="155.52" width="167.4" height="100.8"/>
  </clipPath>
 </defs>
</svg>
