<?xml version="1.0" encoding="utf-8" standalone="no"?>
<!DOCTYPE svg PUBLIC "-//W3C//DTD SVG 1.1//EN"
  "http://www.w3.org/Graphics/SVG/1.1/DTD/svg11.dtd">
<svg xmlns:xlink="http://www.w3.org/1999/xlink" width="229.68pt" height="177.84pt" viewBox="0 0 229.68 177.84" xmlns="http://www.w3.org/2000/svg" version="1.1">
 <metadata>
  <rdf:RDF xmlns:dc="http://purl.org/dc/elements/1.1/" xmlns:cc="http://creativecommons.org/ns#" xmlns:rdf="http://www.w3.org/1999/02/22-rdf-syntax-ns#">
   <cc:Work>
    <dc:type rdf:resource="http://purl.org/dc/dcmitype/StillImage"/>
    <dc:date>2022-04-01T19:15:37.390818</dc:date>
    <dc:format>image/svg+xml</dc:format>
    <dc:creator>
     <cc:Agent>
      <dc:title>Matplotlib v3.5.1, https://matplotlib.org/</dc:title>
     </cc:Agent>
    </dc:creator>
   </cc:Work>
  </rdf:RDF>
 </metadata>
 <defs>
  <style type="text/css">*{stroke-linejoin: round; stroke-linecap: butt}</style>
 </defs>
 <g id="figure_1">
  <g id="patch_1">
   <path d="M 0 177.84 
L 229.68 177.84 
L 229.68 0 
L 0 0 
z
" style="fill: #ffffff"/>
  </g>
  <g id="axes_1">
   <g id="patch_2">
    <path d="M 28.71 158.2776 
L 206.712 158.2776 
L 206.712 21.3408 
L 28.71 21.3408 
z
" style="fill: #ffffff"/>
   </g>
   <g id="matplotlib.axis_1">
    <g id="xtick_1">
     <g id="line2d_1">
      <defs>
       <path id="mb5f9569435" d="M 0 0 
L 0 3.5 
" style="stroke: #000000; stroke-width: 0.8"/>
      </defs>
      <g>
       <use xlink:href="#mb5f9569435" x="39.606587" y="158.2776" style="stroke: #000000; stroke-width: 0.8"/>
      </g>
     </g>
     <g id="text_1">
      <!-- 25 -->
      <g transform="translate(33.244087 172.876037)scale(0.1 -0.1)">
       <defs>
        <path id="DejaVuSans-32" d="M 1228 531 
L 3431 531 
L 3431 0 
L 469 0 
L 469 531 
Q 828 903 1448 1529 
Q 2069 2156 2228 2338 
Q 2531 2678 2651 2914 
Q 2772 3150 2772 3378 
Q 2772 3750 2511 3984 
Q 2250 4219 1831 4219 
Q 1534 4219 1204 4116 
Q 875 4013 500 3803 
L 500 4441 
Q 881 4594 1212 4672 
Q 1544 4750 1819 4750 
Q 2544 4750 2975 4387 
Q 3406 4025 3406 3419 
Q 3406 3131 3298 2873 
Q 3191 2616 2906 2266 
Q 2828 2175 2409 1742 
Q 1991 1309 1228 531 
z
" transform="scale(0.015625)"/>
        <path id="DejaVuSans-35" d="M 691 4666 
L 3169 4666 
L 3169 4134 
L 1269 4134 
L 1269 2991 
Q 1406 3038 1543 3061 
Q 1681 3084 1819 3084 
Q 2600 3084 3056 2656 
Q 3513 2228 3513 1497 
Q 3513 744 3044 326 
Q 2575 -91 1722 -91 
Q 1428 -91 1123 -41 
Q 819 9 494 109 
L 494 744 
Q 775 591 1075 516 
Q 1375 441 1709 441 
Q 2250 441 2565 725 
Q 2881 1009 2881 1497 
Q 2881 1984 2565 2268 
Q 2250 2553 1709 2553 
Q 1456 2553 1204 2497 
Q 953 2441 691 2322 
L 691 4666 
z
" transform="scale(0.015625)"/>
       </defs>
       <use xlink:href="#DejaVuSans-32"/>
       <use xlink:href="#DejaVuSans-35" x="63.623047"/>
      </g>
     </g>
    </g>
    <g id="xtick_2">
     <g id="line2d_2">
      <g>
       <use xlink:href="#mb5f9569435" x="78.573067" y="158.2776" style="stroke: #000000; stroke-width: 0.8"/>
      </g>
     </g>
     <g id="text_2">
      <!-- 50 -->
      <g transform="translate(72.210567 172.876037)scale(0.1 -0.1)">
       <defs>
        <path id="DejaVuSans-30" d="M 2034 4250 
Q 1547 4250 1301 3770 
Q 1056 3291 1056 2328 
Q 1056 1369 1301 889 
Q 1547 409 2034 409 
Q 2525 409 2770 889 
Q 3016 1369 3016 2328 
Q 3016 3291 2770 3770 
Q 2525 4250 2034 4250 
z
M 2034 4750 
Q 2819 4750 3233 4129 
Q 3647 3509 3647 2328 
Q 3647 1150 3233 529 
Q 2819 -91 2034 -91 
Q 1250 -91 836 529 
Q 422 1150 422 2328 
Q 422 3509 836 4129 
Q 1250 4750 2034 4750 
z
" transform="scale(0.015625)"/>
       </defs>
       <use xlink:href="#DejaVuSans-35"/>
       <use xlink:href="#DejaVuSans-30" x="63.623047"/>
      </g>
     </g>
    </g>
    <g id="xtick_3">
     <g id="line2d_3">
      <g>
       <use xlink:href="#mb5f9569435" x="117.539547" y="158.2776" style="stroke: #000000; stroke-width: 0.8"/>
      </g>
     </g>
     <g id="text_3">
      <!-- 75 -->
      <g transform="translate(111.177047 172.876037)scale(0.1 -0.1)">
       <defs>
        <path id="DejaVuSans-37" d="M 525 4666 
L 3525 4666 
L 3525 4397 
L 1831 0 
L 1172 0 
L 2766 4134 
L 525 4134 
L 525 4666 
z
" transform="scale(0.015625)"/>
       </defs>
       <use xlink:href="#DejaVuSans-37"/>
       <use xlink:href="#DejaVuSans-35" x="63.623047"/>
      </g>
     </g>
    </g>
    <g id="xtick_4">
     <g id="line2d_4">
      <g>
       <use xlink:href="#mb5f9569435" x="156.506028" y="158.2776" style="stroke: #000000; stroke-width: 0.8"/>
      </g>
     </g>
     <g id="text_4">
      <!-- 100 -->
      <g transform="translate(146.962278 172.876037)scale(0.1 -0.1)">
       <defs>
        <path id="DejaVuSans-31" d="M 794 531 
L 1825 531 
L 1825 4091 
L 703 3866 
L 703 4441 
L 1819 4666 
L 2450 4666 
L 2450 531 
L 3481 531 
L 3481 0 
L 794 0 
L 794 531 
z
" transform="scale(0.015625)"/>
       </defs>
       <use xlink:href="#DejaVuSans-31"/>
       <use xlink:href="#DejaVuSans-30" x="63.623047"/>
       <use xlink:href="#DejaVuSans-30" x="127.246094"/>
      </g>
     </g>
    </g>
    <g id="xtick_5">
     <g id="line2d_5">
      <g>
       <use xlink:href="#mb5f9569435" x="195.472508" y="158.2776" style="stroke: #000000; stroke-width: 0.8"/>
      </g>
     </g>
     <g id="text_5">
      <!-- 125 -->
      <g transform="translate(185.928758 172.876037)scale(0.1 -0.1)">
       <use xlink:href="#DejaVuSans-31"/>
       <use xlink:href="#DejaVuSans-32" x="63.623047"/>
       <use xlink:href="#DejaVuSans-35" x="127.246094"/>
      </g>
     </g>
    </g>
   </g>
   <g id="matplotlib.axis_2">
    <g id="ytick_1">
     <g id="line2d_6">
      <defs>
       <path id="m46874f8357" d="M 0 0 
L -3.5 0 
" style="stroke: #000000; stroke-width: 0.8"/>
      </defs>
      <g>
       <use xlink:href="#m46874f8357" x="28.71" y="158.2776" style="stroke: #000000; stroke-width: 0.8"/>
      </g>
     </g>
     <g id="text_6">
      <!-- 0 -->
      <g transform="translate(15.3475 162.076819)scale(0.1 -0.1)">
       <use xlink:href="#DejaVuSans-30"/>
      </g>
     </g>
    </g>
    <g id="ytick_2">
     <g id="line2d_7">
      <g>
       <use xlink:href="#m46874f8357" x="28.71" y="120.335791" style="stroke: #000000; stroke-width: 0.8"/>
      </g>
     </g>
     <g id="text_7">
      <!-- 50 -->
      <g transform="translate(8.985 124.13501)scale(0.1 -0.1)">
       <use xlink:href="#DejaVuSans-35"/>
       <use xlink:href="#DejaVuSans-30" x="63.623047"/>
      </g>
     </g>
    </g>
    <g id="ytick_3">
     <g id="line2d_8">
      <g>
       <use xlink:href="#m46874f8357" x="28.71" y="82.393983" style="stroke: #000000; stroke-width: 0.8"/>
      </g>
     </g>
     <g id="text_8">
      <!-- 100 -->
      <g transform="translate(2.6225 86.193202)scale(0.1 -0.1)">
       <use xlink:href="#DejaVuSans-31"/>
       <use xlink:href="#DejaVuSans-30" x="63.623047"/>
       <use xlink:href="#DejaVuSans-30" x="127.246094"/>
      </g>
     </g>
    </g>
    <g id="ytick_4">
     <g id="line2d_9">
      <g>
       <use xlink:href="#m46874f8357" x="28.71" y="44.452174" style="stroke: #000000; stroke-width: 0.8"/>
      </g>
     </g>
     <g id="text_9">
      <!-- 150 -->
      <g transform="translate(2.6225 48.251393)scale(0.1 -0.1)">
       <use xlink:href="#DejaVuSans-31"/>
       <use xlink:href="#DejaVuSans-35" x="63.623047"/>
       <use xlink:href="#DejaVuSans-30" x="127.246094"/>
      </g>
     </g>
    </g>
   </g>
   <g id="line2d_10">
    <defs>
     <path id="m7427943aff" d="M 0 3 
C 0.795609 3 1.55874 2.683901 2.12132 2.12132 
C 2.683901 1.55874 3 0.795609 3 0 
C 3 -0.795609 2.683901 -1.55874 2.12132 -2.12132 
C 1.55874 -2.683901 0.795609 -3 0 -3 
C -0.795609 -3 -1.55874 -2.683901 -2.12132 -2.12132 
C -2.683901 -1.55874 -3 -0.795609 -3 0 
C -3 0.795609 -2.683901 1.55874 -2.12132 2.12132 
C -1.55874 2.683901 -0.795609 3 0 3 
z
" style="stroke: #1f77b4"/>
    </defs>
    <g clip-path="url(#p3301eb9150)">
     <use xlink:href="#m7427943aff" x="36.801" y="29.963278" style="fill-opacity: 0; stroke: #1f77b4"/>
     <use xlink:href="#m7427943aff" x="37.705022" y="33.222823" style="fill-opacity: 0; stroke: #1f77b4"/>
     <use xlink:href="#m7427943aff" x="38.609045" y="29.564432" style="fill-opacity: 0; stroke: #1f77b4"/>
     <use xlink:href="#m7427943aff" x="39.513067" y="31.536608" style="fill-opacity: 0; stroke: #1f77b4"/>
     <use xlink:href="#m7427943aff" x="40.417089" y="32.614314" style="fill-opacity: 0; stroke: #1f77b4"/>
     <use xlink:href="#m7427943aff" x="41.321112" y="33.643187" style="fill-opacity: 0; stroke: #1f77b4"/>
     <use xlink:href="#m7427943aff" x="42.225134" y="29.644576" style="fill-opacity: 0; stroke: #1f77b4"/>
     <use xlink:href="#m7427943aff" x="43.129156" y="28.821813" style="fill-opacity: 0; stroke: #1f77b4"/>
     <use xlink:href="#m7427943aff" x="44.033179" y="29.925285" style="fill-opacity: 0; stroke: #1f77b4"/>
     <use xlink:href="#m7427943aff" x="44.937201" y="31.078484" style="fill-opacity: 0; stroke: #1f77b4"/>
     <use xlink:href="#m7427943aff" x="45.841223" y="30.243114" style="fill-opacity: 0; stroke: #1f77b4"/>
     <use xlink:href="#m7427943aff" x="46.745246" y="28.28954" style="fill-opacity: 0; stroke: #1f77b4"/>
     <use xlink:href="#m7427943aff" x="47.649268" y="29.39879" style="fill-opacity: 0; stroke: #1f77b4"/>
     <use xlink:href="#m7427943aff" x="48.553291" y="31.633103" style="fill-opacity: 0; stroke: #1f77b4"/>
     <use xlink:href="#m7427943aff" x="49.457313" y="33.012232" style="fill-opacity: 0; stroke: #1f77b4"/>
     <use xlink:href="#m7427943aff" x="50.361335" y="26.024134" style="fill-opacity: 0; stroke: #1f77b4"/>
     <use xlink:href="#m7427943aff" x="51.265358" y="30.087855" style="fill-opacity: 0; stroke: #1f77b4"/>
     <use xlink:href="#m7427943aff" x="52.16938" y="31.831655" style="fill-opacity: 0; stroke: #1f77b4"/>
     <use xlink:href="#m7427943aff" x="53.073402" y="34.744914" style="fill-opacity: 0; stroke: #1f77b4"/>
     <use xlink:href="#m7427943aff" x="53.977425" y="35.65318" style="fill-opacity: 0; stroke: #1f77b4"/>
     <use xlink:href="#m7427943aff" x="54.881447" y="31.28916" style="fill-opacity: 0; stroke: #1f77b4"/>
     <use xlink:href="#m7427943aff" x="55.785469" y="32.184917" style="fill-opacity: 0; stroke: #1f77b4"/>
     <use xlink:href="#m7427943aff" x="56.689492" y="35.189812" style="fill-opacity: 0; stroke: #1f77b4"/>
     <use xlink:href="#m7427943aff" x="57.593514" y="33.625525" style="fill-opacity: 0; stroke: #1f77b4"/>
     <use xlink:href="#m7427943aff" x="58.497536" y="39.308493" style="fill-opacity: 0; stroke: #1f77b4"/>
     <use xlink:href="#m7427943aff" x="59.401559" y="38.612606" style="fill-opacity: 0; stroke: #1f77b4"/>
     <use xlink:href="#m7427943aff" x="60.305581" y="36.859987" style="fill-opacity: 0; stroke: #1f77b4"/>
     <use xlink:href="#m7427943aff" x="61.209603" y="39.935253" style="fill-opacity: 0; stroke: #1f77b4"/>
     <use xlink:href="#m7427943aff" x="62.113626" y="42.284476" style="fill-opacity: 0; stroke: #1f77b4"/>
     <use xlink:href="#m7427943aff" x="63.017648" y="41.083717" style="fill-opacity: 0; stroke: #1f77b4"/>
     <use xlink:href="#m7427943aff" x="63.92167" y="44.202048" style="fill-opacity: 0; stroke: #1f77b4"/>
     <use xlink:href="#m7427943aff" x="64.825693" y="42.718293" style="fill-opacity: 0; stroke: #1f77b4"/>
     <use xlink:href="#m7427943aff" x="65.729715" y="43.275398" style="fill-opacity: 0; stroke: #1f77b4"/>
     <use xlink:href="#m7427943aff" x="66.633737" y="46.436182" style="fill-opacity: 0; stroke: #1f77b4"/>
     <use xlink:href="#m7427943aff" x="67.53776" y="43.705365" style="fill-opacity: 0; stroke: #1f77b4"/>
     <use xlink:href="#m7427943aff" x="68.441782" y="46.351551" style="fill-opacity: 0; stroke: #1f77b4"/>
     <use xlink:href="#m7427943aff" x="69.345804" y="44.773075" style="fill-opacity: 0; stroke: #1f77b4"/>
     <use xlink:href="#m7427943aff" x="70.249827" y="48.891078" style="fill-opacity: 0; stroke: #1f77b4"/>
     <use xlink:href="#m7427943aff" x="71.153849" y="48.41572" style="fill-opacity: 0; stroke: #1f77b4"/>
     <use xlink:href="#m7427943aff" x="72.057872" y="46.629909" style="fill-opacity: 0; stroke: #1f77b4"/>
     <use xlink:href="#m7427943aff" x="72.961894" y="49.027583" style="fill-opacity: 0; stroke: #1f77b4"/>
     <use xlink:href="#m7427943aff" x="73.865916" y="49.659403" style="fill-opacity: 0; stroke: #1f77b4"/>
     <use xlink:href="#m7427943aff" x="74.769939" y="52.200418" style="fill-opacity: 0; stroke: #1f77b4"/>
     <use xlink:href="#m7427943aff" x="75.673961" y="51.786101" style="fill-opacity: 0; stroke: #1f77b4"/>
     <use xlink:href="#m7427943aff" x="76.577983" y="53.373367" style="fill-opacity: 0; stroke: #1f77b4"/>
     <use xlink:href="#m7427943aff" x="77.482006" y="54.196212" style="fill-opacity: 0; stroke: #1f77b4"/>
     <use xlink:href="#m7427943aff" x="78.386028" y="56.242544" style="fill-opacity: 0; stroke: #1f77b4"/>
     <use xlink:href="#m7427943aff" x="79.29005" y="54.798834" style="fill-opacity: 0; stroke: #1f77b4"/>
     <use xlink:href="#m7427943aff" x="80.194073" y="56.261161" style="fill-opacity: 0; stroke: #1f77b4"/>
     <use xlink:href="#m7427943aff" x="81.098095" y="58.471947" style="fill-opacity: 0; stroke: #1f77b4"/>
     <use xlink:href="#m7427943aff" x="82.002117" y="57.109412" style="fill-opacity: 0; stroke: #1f77b4"/>
     <use xlink:href="#m7427943aff" x="82.90614" y="56.444389" style="fill-opacity: 0; stroke: #1f77b4"/>
     <use xlink:href="#m7427943aff" x="83.810162" y="58.812594" style="fill-opacity: 0; stroke: #1f77b4"/>
     <use xlink:href="#m7427943aff" x="84.714184" y="58.236807" style="fill-opacity: 0; stroke: #1f77b4"/>
     <use xlink:href="#m7427943aff" x="85.618207" y="59.866299" style="fill-opacity: 0; stroke: #1f77b4"/>
     <use xlink:href="#m7427943aff" x="86.522229" y="62.606245" style="fill-opacity: 0; stroke: #1f77b4"/>
     <use xlink:href="#m7427943aff" x="87.426251" y="58.896394" style="fill-opacity: 0; stroke: #1f77b4"/>
     <use xlink:href="#m7427943aff" x="88.330274" y="61.063115" style="fill-opacity: 0; stroke: #1f77b4"/>
     <use xlink:href="#m7427943aff" x="89.234296" y="64.271911" style="fill-opacity: 0; stroke: #1f77b4"/>
     <use xlink:href="#m7427943aff" x="90.138318" y="63.946846" style="fill-opacity: 0; stroke: #1f77b4"/>
     <use xlink:href="#m7427943aff" x="91.042341" y="63.655414" style="fill-opacity: 0; stroke: #1f77b4"/>
     <use xlink:href="#m7427943aff" x="91.946363" y="64.519479" style="fill-opacity: 0; stroke: #1f77b4"/>
     <use xlink:href="#m7427943aff" x="92.850385" y="65.436033" style="fill-opacity: 0; stroke: #1f77b4"/>
     <use xlink:href="#m7427943aff" x="93.754408" y="66.83831" style="fill-opacity: 0; stroke: #1f77b4"/>
     <use xlink:href="#m7427943aff" x="94.65843" y="64.452152" style="fill-opacity: 0; stroke: #1f77b4"/>
     <use xlink:href="#m7427943aff" x="95.562453" y="65.797204" style="fill-opacity: 0; stroke: #1f77b4"/>
     <use xlink:href="#m7427943aff" x="96.466475" y="73.703781" style="fill-opacity: 0; stroke: #1f77b4"/>
     <use xlink:href="#m7427943aff" x="97.370497" y="71.324703" style="fill-opacity: 0; stroke: #1f77b4"/>
     <use xlink:href="#m7427943aff" x="98.27452" y="74.140833" style="fill-opacity: 0; stroke: #1f77b4"/>
     <use xlink:href="#m7427943aff" x="99.178542" y="72.935238" style="fill-opacity: 0; stroke: #1f77b4"/>
     <use xlink:href="#m7427943aff" x="100.082564" y="73.212957" style="fill-opacity: 0; stroke: #1f77b4"/>
     <use xlink:href="#m7427943aff" x="100.986587" y="75.722393" style="fill-opacity: 0; stroke: #1f77b4"/>
     <use xlink:href="#m7427943aff" x="101.890609" y="76.914544" style="fill-opacity: 0; stroke: #1f77b4"/>
     <use xlink:href="#m7427943aff" x="102.794631" y="77.455133" style="fill-opacity: 0; stroke: #1f77b4"/>
     <use xlink:href="#m7427943aff" x="103.698654" y="82.448393" style="fill-opacity: 0; stroke: #1f77b4"/>
     <use xlink:href="#m7427943aff" x="104.602676" y="82.234942" style="fill-opacity: 0; stroke: #1f77b4"/>
     <use xlink:href="#m7427943aff" x="105.506698" y="83.408621" style="fill-opacity: 0; stroke: #1f77b4"/>
     <use xlink:href="#m7427943aff" x="106.410721" y="81.982267" style="fill-opacity: 0; stroke: #1f77b4"/>
     <use xlink:href="#m7427943aff" x="107.314743" y="88.95744" style="fill-opacity: 0; stroke: #1f77b4"/>
     <use xlink:href="#m7427943aff" x="108.218765" y="88.539267" style="fill-opacity: 0; stroke: #1f77b4"/>
     <use xlink:href="#m7427943aff" x="109.122788" y="88.768608" style="fill-opacity: 0; stroke: #1f77b4"/>
     <use xlink:href="#m7427943aff" x="110.02681" y="90.309056" style="fill-opacity: 0; stroke: #1f77b4"/>
     <use xlink:href="#m7427943aff" x="110.930832" y="93.889765" style="fill-opacity: 0; stroke: #1f77b4"/>
     <use xlink:href="#m7427943aff" x="111.834855" y="94.798768" style="fill-opacity: 0; stroke: #1f77b4"/>
     <use xlink:href="#m7427943aff" x="112.738877" y="95.433369" style="fill-opacity: 0; stroke: #1f77b4"/>
     <use xlink:href="#m7427943aff" x="113.642899" y="93.332311" style="fill-opacity: 0; stroke: #1f77b4"/>
     <use xlink:href="#m7427943aff" x="114.546922" y="96.643215" style="fill-opacity: 0; stroke: #1f77b4"/>
     <use xlink:href="#m7427943aff" x="115.450944" y="99.355693" style="fill-opacity: 0; stroke: #1f77b4"/>
     <use xlink:href="#m7427943aff" x="116.354966" y="97.729552" style="fill-opacity: 0; stroke: #1f77b4"/>
     <use xlink:href="#m7427943aff" x="117.258989" y="100.46101" style="fill-opacity: 0; stroke: #1f77b4"/>
     <use xlink:href="#m7427943aff" x="118.163011" y="89.540283" style="fill-opacity: 0; stroke: #1f77b4"/>
     <use xlink:href="#m7427943aff" x="119.067034" y="90.887112" style="fill-opacity: 0; stroke: #1f77b4"/>
     <use xlink:href="#m7427943aff" x="119.971056" y="91.730681" style="fill-opacity: 0; stroke: #1f77b4"/>
     <use xlink:href="#m7427943aff" x="120.875078" y="92.849758" style="fill-opacity: 0; stroke: #1f77b4"/>
     <use xlink:href="#m7427943aff" x="121.779101" y="92.029775" style="fill-opacity: 0; stroke: #1f77b4"/>
     <use xlink:href="#m7427943aff" x="122.683123" y="94.861603" style="fill-opacity: 0; stroke: #1f77b4"/>
     <use xlink:href="#m7427943aff" x="123.587145" y="97.916099" style="fill-opacity: 0; stroke: #1f77b4"/>
     <use xlink:href="#m7427943aff" x="124.491168" y="99.92719" style="fill-opacity: 0; stroke: #1f77b4"/>
     <use xlink:href="#m7427943aff" x="125.39519" y="102.621368" style="fill-opacity: 0; stroke: #1f77b4"/>
     <use xlink:href="#m7427943aff" x="126.299212" y="100.26916" style="fill-opacity: 0; stroke: #1f77b4"/>
     <use xlink:href="#m7427943aff" x="127.203235" y="104.912252" style="fill-opacity: 0; stroke: #1f77b4"/>
     <use xlink:href="#m7427943aff" x="128.107257" y="105.021278" style="fill-opacity: 0; stroke: #1f77b4"/>
     <use xlink:href="#m7427943aff" x="129.011279" y="105.230017" style="fill-opacity: 0; stroke: #1f77b4"/>
     <use xlink:href="#m7427943aff" x="129.915302" y="104.205347" style="fill-opacity: 0; stroke: #1f77b4"/>
     <use xlink:href="#m7427943aff" x="130.819324" y="103.943821" style="fill-opacity: 0; stroke: #1f77b4"/>
     <use xlink:href="#m7427943aff" x="131.723346" y="105.4104" style="fill-opacity: 0; stroke: #1f77b4"/>
     <use xlink:href="#m7427943aff" x="132.627369" y="107.617824" style="fill-opacity: 0; stroke: #1f77b4"/>
     <use xlink:href="#m7427943aff" x="133.531391" y="103.947184" style="fill-opacity: 0; stroke: #1f77b4"/>
     <use xlink:href="#m7427943aff" x="134.435413" y="106.042413" style="fill-opacity: 0; stroke: #1f77b4"/>
     <use xlink:href="#m7427943aff" x="135.339436" y="105.027008" style="fill-opacity: 0; stroke: #1f77b4"/>
     <use xlink:href="#m7427943aff" x="136.243458" y="110.510076" style="fill-opacity: 0; stroke: #1f77b4"/>
     <use xlink:href="#m7427943aff" x="137.14748" y="106.460577" style="fill-opacity: 0; stroke: #1f77b4"/>
     <use xlink:href="#m7427943aff" x="138.051503" y="107.020583" style="fill-opacity: 0; stroke: #1f77b4"/>
     <use xlink:href="#m7427943aff" x="138.955525" y="107.983371" style="fill-opacity: 0; stroke: #1f77b4"/>
     <use xlink:href="#m7427943aff" x="139.859547" y="105.193693" style="fill-opacity: 0; stroke: #1f77b4"/>
     <use xlink:href="#m7427943aff" x="140.76357" y="108.607216" style="fill-opacity: 0; stroke: #1f77b4"/>
     <use xlink:href="#m7427943aff" x="141.667592" y="105.081425" style="fill-opacity: 0; stroke: #1f77b4"/>
     <use xlink:href="#m7427943aff" x="142.571615" y="106.438891" style="fill-opacity: 0; stroke: #1f77b4"/>
     <use xlink:href="#m7427943aff" x="143.475637" y="108.993178" style="fill-opacity: 0; stroke: #1f77b4"/>
     <use xlink:href="#m7427943aff" x="144.379659" y="108.750732" style="fill-opacity: 0; stroke: #1f77b4"/>
     <use xlink:href="#m7427943aff" x="145.283682" y="110.771491" style="fill-opacity: 0; stroke: #1f77b4"/>
     <use xlink:href="#m7427943aff" x="146.187704" y="109.986517" style="fill-opacity: 0; stroke: #1f77b4"/>
     <use xlink:href="#m7427943aff" x="147.091726" y="108.220267" style="fill-opacity: 0; stroke: #1f77b4"/>
     <use xlink:href="#m7427943aff" x="147.995749" y="111.21468" style="fill-opacity: 0; stroke: #1f77b4"/>
     <use xlink:href="#m7427943aff" x="148.899771" y="111.675762" style="fill-opacity: 0; stroke: #1f77b4"/>
     <use xlink:href="#m7427943aff" x="149.803793" y="110.948822" style="fill-opacity: 0; stroke: #1f77b4"/>
     <use xlink:href="#m7427943aff" x="150.707816" y="112.758597" style="fill-opacity: 0; stroke: #1f77b4"/>
     <use xlink:href="#m7427943aff" x="151.611838" y="111.514757" style="fill-opacity: 0; stroke: #1f77b4"/>
     <use xlink:href="#m7427943aff" x="152.51586" y="112.811739" style="fill-opacity: 0; stroke: #1f77b4"/>
     <use xlink:href="#m7427943aff" x="153.419883" y="112.402413" style="fill-opacity: 0; stroke: #1f77b4"/>
     <use xlink:href="#m7427943aff" x="154.323905" y="111.132628" style="fill-opacity: 0; stroke: #1f77b4"/>
     <use xlink:href="#m7427943aff" x="155.227927" y="110.808206" style="fill-opacity: 0; stroke: #1f77b4"/>
     <use xlink:href="#m7427943aff" x="156.13195" y="115.025677" style="fill-opacity: 0; stroke: #1f77b4"/>
     <use xlink:href="#m7427943aff" x="157.035972" y="113.5923" style="fill-opacity: 0; stroke: #1f77b4"/>
     <use xlink:href="#m7427943aff" x="157.939994" y="111.731541" style="fill-opacity: 0; stroke: #1f77b4"/>
     <use xlink:href="#m7427943aff" x="158.844017" y="112.214902" style="fill-opacity: 0; stroke: #1f77b4"/>
     <use xlink:href="#m7427943aff" x="159.748039" y="112.857321" style="fill-opacity: 0; stroke: #1f77b4"/>
     <use xlink:href="#m7427943aff" x="160.652061" y="114.109267" style="fill-opacity: 0; stroke: #1f77b4"/>
     <use xlink:href="#m7427943aff" x="161.556084" y="115.687968" style="fill-opacity: 0; stroke: #1f77b4"/>
     <use xlink:href="#m7427943aff" x="162.460106" y="113.564507" style="fill-opacity: 0; stroke: #1f77b4"/>
     <use xlink:href="#m7427943aff" x="163.364128" y="112.535522" style="fill-opacity: 0; stroke: #1f77b4"/>
     <use xlink:href="#m7427943aff" x="164.268151" y="112.524042" style="fill-opacity: 0; stroke: #1f77b4"/>
     <use xlink:href="#m7427943aff" x="165.172173" y="113.039281" style="fill-opacity: 0; stroke: #1f77b4"/>
     <use xlink:href="#m7427943aff" x="166.076196" y="113.827745" style="fill-opacity: 0; stroke: #1f77b4"/>
     <use xlink:href="#m7427943aff" x="166.980218" y="113.288044" style="fill-opacity: 0; stroke: #1f77b4"/>
     <use xlink:href="#m7427943aff" x="167.88424" y="116.181801" style="fill-opacity: 0; stroke: #1f77b4"/>
     <use xlink:href="#m7427943aff" x="168.788263" y="119.690816" style="fill-opacity: 0; stroke: #1f77b4"/>
     <use xlink:href="#m7427943aff" x="169.692285" y="115.427849" style="fill-opacity: 0; stroke: #1f77b4"/>
     <use xlink:href="#m7427943aff" x="170.596307" y="116.312277" style="fill-opacity: 0; stroke: #1f77b4"/>
     <use xlink:href="#m7427943aff" x="171.50033" y="116.780658" style="fill-opacity: 0; stroke: #1f77b4"/>
     <use xlink:href="#m7427943aff" x="172.404352" y="116.723696" style="fill-opacity: 0; stroke: #1f77b4"/>
     <use xlink:href="#m7427943aff" x="173.308374" y="114.658073" style="fill-opacity: 0; stroke: #1f77b4"/>
     <use xlink:href="#m7427943aff" x="174.212397" y="115.685912" style="fill-opacity: 0; stroke: #1f77b4"/>
     <use xlink:href="#m7427943aff" x="175.116419" y="114.055321" style="fill-opacity: 0; stroke: #1f77b4"/>
     <use xlink:href="#m7427943aff" x="176.020441" y="113.348026" style="fill-opacity: 0; stroke: #1f77b4"/>
     <use xlink:href="#m7427943aff" x="176.924464" y="112.078018" style="fill-opacity: 0; stroke: #1f77b4"/>
     <use xlink:href="#m7427943aff" x="177.828486" y="113.337315" style="fill-opacity: 0; stroke: #1f77b4"/>
     <use xlink:href="#m7427943aff" x="178.732508" y="115.723465" style="fill-opacity: 0; stroke: #1f77b4"/>
     <use xlink:href="#m7427943aff" x="179.636531" y="113.192903" style="fill-opacity: 0; stroke: #1f77b4"/>
     <use xlink:href="#m7427943aff" x="180.540553" y="115.245981" style="fill-opacity: 0; stroke: #1f77b4"/>
     <use xlink:href="#m7427943aff" x="181.444575" y="113.621813" style="fill-opacity: 0; stroke: #1f77b4"/>
     <use xlink:href="#m7427943aff" x="182.348598" y="114.853871" style="fill-opacity: 0; stroke: #1f77b4"/>
     <use xlink:href="#m7427943aff" x="183.25262" y="113.381237" style="fill-opacity: 0; stroke: #1f77b4"/>
     <use xlink:href="#m7427943aff" x="184.156642" y="115.227086" style="fill-opacity: 0; stroke: #1f77b4"/>
     <use xlink:href="#m7427943aff" x="185.060665" y="113.862131" style="fill-opacity: 0; stroke: #1f77b4"/>
     <use xlink:href="#m7427943aff" x="185.964687" y="111.12674" style="fill-opacity: 0; stroke: #1f77b4"/>
     <use xlink:href="#m7427943aff" x="186.868709" y="115.122512" style="fill-opacity: 0; stroke: #1f77b4"/>
     <use xlink:href="#m7427943aff" x="187.772732" y="113.522445" style="fill-opacity: 0; stroke: #1f77b4"/>
     <use xlink:href="#m7427943aff" x="188.676754" y="112.967399" style="fill-opacity: 0; stroke: #1f77b4"/>
     <use xlink:href="#m7427943aff" x="189.580777" y="115.086779" style="fill-opacity: 0; stroke: #1f77b4"/>
     <use xlink:href="#m7427943aff" x="190.484799" y="112.574871" style="fill-opacity: 0; stroke: #1f77b4"/>
     <use xlink:href="#m7427943aff" x="191.388821" y="114.758887" style="fill-opacity: 0; stroke: #1f77b4"/>
     <use xlink:href="#m7427943aff" x="192.292844" y="115.057555" style="fill-opacity: 0; stroke: #1f77b4"/>
     <use xlink:href="#m7427943aff" x="193.196866" y="112.40023" style="fill-opacity: 0; stroke: #1f77b4"/>
     <use xlink:href="#m7427943aff" x="194.100888" y="112.29152" style="fill-opacity: 0; stroke: #1f77b4"/>
     <use xlink:href="#m7427943aff" x="195.004911" y="110.81529" style="fill-opacity: 0; stroke: #1f77b4"/>
     <use xlink:href="#m7427943aff" x="195.908933" y="113.059178" style="fill-opacity: 0; stroke: #1f77b4"/>
     <use xlink:href="#m7427943aff" x="196.812955" y="115.770319" style="fill-opacity: 0; stroke: #1f77b4"/>
     <use xlink:href="#m7427943aff" x="197.716978" y="115.281701" style="fill-opacity: 0; stroke: #1f77b4"/>
     <use xlink:href="#m7427943aff" x="198.621" y="116.03863" style="fill-opacity: 0; stroke: #1f77b4"/>
    </g>
   </g>
   <g id="patch_3">
    <path d="M 28.71 158.2776 
L 28.71 21.3408 
" style="fill: none; stroke: #000000; stroke-width: 0.8; stroke-linejoin: miter; stroke-linecap: square"/>
   </g>
   <g id="patch_4">
    <path d="M 206.712 158.2776 
L 206.712 21.3408 
" style="fill: none; stroke: #000000; stroke-width: 0.8; stroke-linejoin: miter; stroke-linecap: square"/>
   </g>
   <g id="patch_5">
    <path d="M 28.71 158.2776 
L 206.712 158.2776 
" style="fill: none; stroke: #000000; stroke-width: 0.8; stroke-linejoin: miter; stroke-linecap: square"/>
   </g>
   <g id="patch_6">
    <path d="M 28.71 21.3408 
L 206.712 21.3408 
" style="fill: none; stroke: #000000; stroke-width: 0.8; stroke-linejoin: miter; stroke-linecap: square"/>
   </g>
  </g>
 </g>
 <defs>
  <clipPath id="p3301eb9150">
   <rect x="28.71" y="21.3408" width="178.002" height="136.9368"/>
  </clipPath>
 </defs>
</svg>
