<?xml version="1.0" encoding="utf-8" standalone="no"?>
<!DOCTYPE svg PUBLIC "-//W3C//DTD SVG 1.1//EN"
  "http://www.w3.org/Graphics/SVG/1.1/DTD/svg11.dtd">
<svg xmlns:xlink="http://www.w3.org/1999/xlink" width="250.56pt" height="192.24pt" viewBox="0 0 250.56 192.24" xmlns="http://www.w3.org/2000/svg" version="1.1">
 <metadata>
  <rdf:RDF xmlns:dc="http://purl.org/dc/elements/1.1/" xmlns:cc="http://creativecommons.org/ns#" xmlns:rdf="http://www.w3.org/1999/02/22-rdf-syntax-ns#">
   <cc:Work>
    <dc:type rdf:resource="http://purl.org/dc/dcmitype/StillImage"/>
    <dc:date>2022-04-01T18:11:11.505426</dc:date>
    <dc:format>image/svg+xml</dc:format>
    <dc:creator>
     <cc:Agent>
      <dc:title>Matplotlib v3.5.1, https://matplotlib.org/</dc:title>
     </cc:Agent>
    </dc:creator>
   </cc:Work>
  </rdf:RDF>
 </metadata>
 <defs>
  <style type="text/css">*{stroke-linejoin: round; stroke-linecap: butt}</style>
 </defs>
 <g id="figure_1">
  <g id="patch_1">
   <path d="M 0 192.24 
L 250.56 192.24 
L 250.56 0 
L 0 0 
z
" style="fill: #ffffff"/>
  </g>
  <g id="axes_1">
   <g id="patch_2">
    <path d="M 31.32 171.0936 
L 225.504 171.0936 
L 225.504 23.0688 
L 31.32 23.0688 
z
" style="fill: #ffffff"/>
   </g>
   <g id="matplotlib.axis_1">
    <g id="xtick_1">
     <g id="line2d_1">
      <defs>
       <path id="mdfec5b08c3" d="M 0 0 
L 0 3.5 
" style="stroke: #000000; stroke-width: 0.8"/>
      </defs>
      <g>
       <use xlink:href="#mdfec5b08c3" x="46.546444" y="171.0936" style="stroke: #000000; stroke-width: 0.8"/>
      </g>
     </g>
     <g id="text_1">
      <!-- 10 -->
      <g transform="translate(40.183944 185.692037)scale(0.1 -0.1)">
       <defs>
        <path id="DejaVuSans-31" d="M 794 531 
L 1825 531 
L 1825 4091 
L 703 3866 
L 703 4441 
L 1819 4666 
L 2450 4666 
L 2450 531 
L 3481 531 
L 3481 0 
L 794 0 
L 794 531 
z
" transform="scale(0.015625)"/>
        <path id="DejaVuSans-30" d="M 2034 4250 
Q 1547 4250 1301 3770 
Q 1056 3291 1056 2328 
Q 1056 1369 1301 889 
Q 1547 409 2034 409 
Q 2525 409 2770 889 
Q 3016 1369 3016 2328 
Q 3016 3291 2770 3770 
Q 2525 4250 2034 4250 
z
M 2034 4750 
Q 2819 4750 3233 4129 
Q 3647 3509 3647 2328 
Q 3647 1150 3233 529 
Q 2819 -91 2034 -91 
Q 1250 -91 836 529 
Q 422 1150 422 2328 
Q 422 3509 836 4129 
Q 1250 4750 2034 4750 
z
" transform="scale(0.015625)"/>
       </defs>
       <use xlink:href="#DejaVuSans-31"/>
       <use xlink:href="#DejaVuSans-30" x="63.623047"/>
      </g>
     </g>
    </g>
    <g id="xtick_2">
     <g id="line2d_2">
      <g>
       <use xlink:href="#mdfec5b08c3" x="95.467995" y="171.0936" style="stroke: #000000; stroke-width: 0.8"/>
      </g>
     </g>
     <g id="text_2">
      <!-- 20 -->
      <g transform="translate(89.105495 185.692037)scale(0.1 -0.1)">
       <defs>
        <path id="DejaVuSans-32" d="M 1228 531 
L 3431 531 
L 3431 0 
L 469 0 
L 469 531 
Q 828 903 1448 1529 
Q 2069 2156 2228 2338 
Q 2531 2678 2651 2914 
Q 2772 3150 2772 3378 
Q 2772 3750 2511 3984 
Q 2250 4219 1831 4219 
Q 1534 4219 1204 4116 
Q 875 4013 500 3803 
L 500 4441 
Q 881 4594 1212 4672 
Q 1544 4750 1819 4750 
Q 2544 4750 2975 4387 
Q 3406 4025 3406 3419 
Q 3406 3131 3298 2873 
Q 3191 2616 2906 2266 
Q 2828 2175 2409 1742 
Q 1991 1309 1228 531 
z
" transform="scale(0.015625)"/>
       </defs>
       <use xlink:href="#DejaVuSans-32"/>
       <use xlink:href="#DejaVuSans-30" x="63.623047"/>
      </g>
     </g>
    </g>
    <g id="xtick_3">
     <g id="line2d_3">
      <g>
       <use xlink:href="#mdfec5b08c3" x="144.389547" y="171.0936" style="stroke: #000000; stroke-width: 0.8"/>
      </g>
     </g>
     <g id="text_3">
      <!-- 30 -->
      <g transform="translate(138.027047 185.692037)scale(0.1 -0.1)">
       <defs>
        <path id="DejaVuSans-33" d="M 2597 2516 
Q 3050 2419 3304 2112 
Q 3559 1806 3559 1356 
Q 3559 666 3084 287 
Q 2609 -91 1734 -91 
Q 1441 -91 1130 -33 
Q 819 25 488 141 
L 488 750 
Q 750 597 1062 519 
Q 1375 441 1716 441 
Q 2309 441 2620 675 
Q 2931 909 2931 1356 
Q 2931 1769 2642 2001 
Q 2353 2234 1838 2234 
L 1294 2234 
L 1294 2753 
L 1863 2753 
Q 2328 2753 2575 2939 
Q 2822 3125 2822 3475 
Q 2822 3834 2567 4026 
Q 2313 4219 1838 4219 
Q 1578 4219 1281 4162 
Q 984 4106 628 3988 
L 628 4550 
Q 988 4650 1302 4700 
Q 1616 4750 1894 4750 
Q 2613 4750 3031 4423 
Q 3450 4097 3450 3541 
Q 3450 3153 3228 2886 
Q 3006 2619 2597 2516 
z
" transform="scale(0.015625)"/>
       </defs>
       <use xlink:href="#DejaVuSans-33"/>
       <use xlink:href="#DejaVuSans-30" x="63.623047"/>
      </g>
     </g>
    </g>
    <g id="xtick_4">
     <g id="line2d_4">
      <g>
       <use xlink:href="#mdfec5b08c3" x="193.311098" y="171.0936" style="stroke: #000000; stroke-width: 0.8"/>
      </g>
     </g>
     <g id="text_4">
      <!-- 40 -->
      <g transform="translate(186.948598 185.692037)scale(0.1 -0.1)">
       <defs>
        <path id="DejaVuSans-34" d="M 2419 4116 
L 825 1625 
L 2419 1625 
L 2419 4116 
z
M 2253 4666 
L 3047 4666 
L 3047 1625 
L 3713 1625 
L 3713 1100 
L 3047 1100 
L 3047 0 
L 2419 0 
L 2419 1100 
L 313 1100 
L 313 1709 
L 2253 4666 
z
" transform="scale(0.015625)"/>
       </defs>
       <use xlink:href="#DejaVuSans-34"/>
       <use xlink:href="#DejaVuSans-30" x="63.623047"/>
      </g>
     </g>
    </g>
   </g>
   <g id="matplotlib.axis_2">
    <g id="ytick_1">
     <g id="line2d_5">
      <defs>
       <path id="m39880af6e2" d="M 0 0 
L -3.5 0 
" style="stroke: #000000; stroke-width: 0.8"/>
      </defs>
      <g>
       <use xlink:href="#m39880af6e2" x="31.32" y="171.0936" style="stroke: #000000; stroke-width: 0.8"/>
      </g>
     </g>
     <g id="text_5">
      <!-- 0 -->
      <g transform="translate(17.9575 174.892819)scale(0.1 -0.1)">
       <use xlink:href="#DejaVuSans-30"/>
      </g>
     </g>
    </g>
    <g id="ytick_2">
     <g id="line2d_6">
      <g>
       <use xlink:href="#m39880af6e2" x="31.32" y="130.285029" style="stroke: #000000; stroke-width: 0.8"/>
      </g>
     </g>
     <g id="text_6">
      <!-- 50 -->
      <g transform="translate(11.595 134.084247)scale(0.1 -0.1)">
       <defs>
        <path id="DejaVuSans-35" d="M 691 4666 
L 3169 4666 
L 3169 4134 
L 1269 4134 
L 1269 2991 
Q 1406 3038 1543 3061 
Q 1681 3084 1819 3084 
Q 2600 3084 3056 2656 
Q 3513 2228 3513 1497 
Q 3513 744 3044 326 
Q 2575 -91 1722 -91 
Q 1428 -91 1123 -41 
Q 819 9 494 109 
L 494 744 
Q 775 591 1075 516 
Q 1375 441 1709 441 
Q 2250 441 2565 725 
Q 2881 1009 2881 1497 
Q 2881 1984 2565 2268 
Q 2250 2553 1709 2553 
Q 1456 2553 1204 2497 
Q 953 2441 691 2322 
L 691 4666 
z
" transform="scale(0.015625)"/>
       </defs>
       <use xlink:href="#DejaVuSans-35"/>
       <use xlink:href="#DejaVuSans-30" x="63.623047"/>
      </g>
     </g>
    </g>
    <g id="ytick_3">
     <g id="line2d_7">
      <g>
       <use xlink:href="#m39880af6e2" x="31.32" y="89.476457" style="stroke: #000000; stroke-width: 0.8"/>
      </g>
     </g>
     <g id="text_7">
      <!-- 100 -->
      <g transform="translate(5.2325 93.275676)scale(0.1 -0.1)">
       <use xlink:href="#DejaVuSans-31"/>
       <use xlink:href="#DejaVuSans-30" x="63.623047"/>
       <use xlink:href="#DejaVuSans-30" x="127.246094"/>
      </g>
     </g>
    </g>
    <g id="ytick_4">
     <g id="line2d_8">
      <g>
       <use xlink:href="#m39880af6e2" x="31.32" y="48.667886" style="stroke: #000000; stroke-width: 0.8"/>
      </g>
     </g>
     <g id="text_8">
      <!-- 150 -->
      <g transform="translate(5.2325 52.467105)scale(0.1 -0.1)">
       <use xlink:href="#DejaVuSans-31"/>
       <use xlink:href="#DejaVuSans-35" x="63.623047"/>
       <use xlink:href="#DejaVuSans-30" x="127.246094"/>
      </g>
     </g>
    </g>
   </g>
   <g id="line2d_9">
    <defs>
     <path id="m6b33405992" d="M 0 3 
C 0.795609 3 1.55874 2.683901 2.12132 2.12132 
C 2.683901 1.55874 3 0.795609 3 0 
C 3 -0.795609 2.683901 -1.55874 2.12132 -2.12132 
C 1.55874 -2.683901 0.795609 -3 0 -3 
C -0.795609 -3 -1.55874 -2.683901 -2.12132 -2.12132 
C -2.683901 -1.55874 -3 -0.795609 -3 0 
C -3 0.795609 -2.683901 1.55874 -2.12132 2.12132 
C -1.55874 2.683901 -0.795609 3 0 3 
z
" style="stroke: #1f77b4"/>
    </defs>
    <g clip-path="url(#p89ad5b5e8d)">
     <use xlink:href="#m6b33405992" x="43.99951" y="33.084255" style="fill-opacity: 0; stroke: #1f77b4"/>
     <use xlink:href="#m6b33405992" x="43.59293" y="36.59008" style="fill-opacity: 0; stroke: #1f77b4"/>
     <use xlink:href="#m6b33405992" x="43.210027" y="32.655273" style="fill-opacity: 0; stroke: #1f77b4"/>
     <use xlink:href="#m6b33405992" x="42.850614" y="34.776461" style="fill-opacity: 0; stroke: #1f77b4"/>
     <use xlink:href="#m6b33405992" x="42.514506" y="35.935595" style="fill-opacity: 0; stroke: #1f77b4"/>
     <use xlink:href="#m6b33405992" x="42.201519" y="37.042206" style="fill-opacity: 0; stroke: #1f77b4"/>
     <use xlink:href="#m6b33405992" x="41.911469" y="32.741473" style="fill-opacity: 0; stroke: #1f77b4"/>
     <use xlink:href="#m6b33405992" x="41.644173" y="31.856545" style="fill-opacity: 0; stroke: #1f77b4"/>
     <use xlink:href="#m6b33405992" x="41.39945" y="33.043391" style="fill-opacity: 0; stroke: #1f77b4"/>
     <use xlink:href="#m6b33405992" x="41.177121" y="34.283722" style="fill-opacity: 0; stroke: #1f77b4"/>
     <use xlink:href="#m6b33405992" x="40.977005" y="33.385234" style="fill-opacity: 0; stroke: #1f77b4"/>
     <use xlink:href="#m6b33405992" x="40.798926" y="31.284054" style="fill-opacity: 0; stroke: #1f77b4"/>
     <use xlink:href="#m6b33405992" x="40.642705" y="32.477116" style="fill-opacity: 0; stroke: #1f77b4"/>
     <use xlink:href="#m6b33405992" x="40.508166" y="34.880246" style="fill-opacity: 0; stroke: #1f77b4"/>
     <use xlink:href="#m6b33405992" x="40.395135" y="36.363578" style="fill-opacity: 0; stroke: #1f77b4"/>
     <use xlink:href="#m6b33405992" x="40.303438" y="28.847482" style="fill-opacity: 0; stroke: #1f77b4"/>
     <use xlink:href="#m6b33405992" x="40.232902" y="33.218245" style="fill-opacity: 0; stroke: #1f77b4"/>
     <use xlink:href="#m6b33405992" x="40.183355" y="35.093801" style="fill-opacity: 0; stroke: #1f77b4"/>
     <use xlink:href="#m6b33405992" x="40.154626" y="38.227176" style="fill-opacity: 0; stroke: #1f77b4"/>
     <use xlink:href="#m6b33405992" x="40.146545" y="39.204067" style="fill-opacity: 0; stroke: #1f77b4"/>
     <use xlink:href="#m6b33405992" x="40.158945" y="34.510316" style="fill-opacity: 0; stroke: #1f77b4"/>
     <use xlink:href="#m6b33405992" x="40.191657" y="35.473754" style="fill-opacity: 0; stroke: #1f77b4"/>
     <use xlink:href="#m6b33405992" x="40.244515" y="38.705689" style="fill-opacity: 0; stroke: #1f77b4"/>
     <use xlink:href="#m6b33405992" x="40.317353" y="37.02321" style="fill-opacity: 0; stroke: #1f77b4"/>
     <use xlink:href="#m6b33405992" x="40.410007" y="43.135564" style="fill-opacity: 0; stroke: #1f77b4"/>
     <use xlink:href="#m6b33405992" x="40.522314" y="42.387098" style="fill-opacity: 0; stroke: #1f77b4"/>
     <use xlink:href="#m6b33405992" x="40.654111" y="40.502057" style="fill-opacity: 0; stroke: #1f77b4"/>
     <use xlink:href="#m6b33405992" x="40.805237" y="43.809681" style="fill-opacity: 0; stroke: #1f77b4"/>
     <use xlink:href="#m6b33405992" x="40.975531" y="46.336403" style="fill-opacity: 0; stroke: #1f77b4"/>
     <use xlink:href="#m6b33405992" x="41.164835" y="45.044919" style="fill-opacity: 0; stroke: #1f77b4"/>
     <use xlink:href="#m6b33405992" x="41.372991" y="48.398861" style="fill-opacity: 0; stroke: #1f77b4"/>
     <use xlink:href="#m6b33405992" x="41.599841" y="46.802999" style="fill-opacity: 0; stroke: #1f77b4"/>
     <use xlink:href="#m6b33405992" x="41.84523" y="47.402197" style="fill-opacity: 0; stroke: #1f77b4"/>
     <use xlink:href="#m6b33405992" x="42.109002" y="50.801799" style="fill-opacity: 0; stroke: #1f77b4"/>
     <use xlink:href="#m6b33405992" x="42.391004" y="47.864651" style="fill-opacity: 0; stroke: #1f77b4"/>
     <use xlink:href="#m6b33405992" x="42.691083" y="50.710774" style="fill-opacity: 0; stroke: #1f77b4"/>
     <use xlink:href="#m6b33405992" x="43.009087" y="49.013033" style="fill-opacity: 0; stroke: #1f77b4"/>
     <use xlink:href="#m6b33405992" x="43.344865" y="53.44218" style="fill-opacity: 0; stroke: #1f77b4"/>
     <use xlink:href="#m6b33405992" x="43.698269" y="52.930905" style="fill-opacity: 0; stroke: #1f77b4"/>
     <use xlink:href="#m6b33405992" x="44.069148" y="51.010163" style="fill-opacity: 0; stroke: #1f77b4"/>
     <use xlink:href="#m6b33405992" x="44.457355" y="53.588998" style="fill-opacity: 0; stroke: #1f77b4"/>
     <use xlink:href="#m6b33405992" x="44.862745" y="54.268556" style="fill-opacity: 0; stroke: #1f77b4"/>
     <use xlink:href="#m6b33405992" x="45.285172" y="57.001562" style="fill-opacity: 0; stroke: #1f77b4"/>
     <use xlink:href="#m6b33405992" x="45.724491" y="56.555941" style="fill-opacity: 0; stroke: #1f77b4"/>
     <use xlink:href="#m6b33405992" x="46.180558" y="58.263136" style="fill-opacity: 0; stroke: #1f77b4"/>
     <use xlink:href="#m6b33405992" x="46.653233" y="59.148152" style="fill-opacity: 0; stroke: #1f77b4"/>
     <use xlink:href="#m6b33405992" x="47.142373" y="61.349099" style="fill-opacity: 0; stroke: #1f77b4"/>
     <use xlink:href="#m6b33405992" x="47.647838" y="59.796307" style="fill-opacity: 0; stroke: #1f77b4"/>
     <use xlink:href="#m6b33405992" x="48.169489" y="61.369123" style="fill-opacity: 0; stroke: #1f77b4"/>
     <use xlink:href="#m6b33405992" x="48.707189" y="63.746948" style="fill-opacity: 0; stroke: #1f77b4"/>
     <use xlink:href="#m6b33405992" x="49.260799" y="62.281465" style="fill-opacity: 0; stroke: #1f77b4"/>
     <use xlink:href="#m6b33405992" x="49.830185" y="61.566194" style="fill-opacity: 0; stroke: #1f77b4"/>
     <use xlink:href="#m6b33405992" x="50.415211" y="64.113334" style="fill-opacity: 0; stroke: #1f77b4"/>
     <use xlink:href="#m6b33405992" x="51.015744" y="63.494042" style="fill-opacity: 0; stroke: #1f77b4"/>
     <use xlink:href="#m6b33405992" x="51.631651" y="65.246653" style="fill-opacity: 0; stroke: #1f77b4"/>
     <use xlink:href="#m6b33405992" x="52.262799" y="68.193621" style="fill-opacity: 0; stroke: #1f77b4"/>
     <use xlink:href="#m6b33405992" x="52.909059" y="64.203466" style="fill-opacity: 0; stroke: #1f77b4"/>
     <use xlink:href="#m6b33405992" x="53.5703" y="66.533897" style="fill-opacity: 0; stroke: #1f77b4"/>
     <use xlink:href="#m6b33405992" x="54.246394" y="69.985139" style="fill-opacity: 0; stroke: #1f77b4"/>
     <use xlink:href="#m6b33405992" x="54.937215" y="69.635513" style="fill-opacity: 0; stroke: #1f77b4"/>
     <use xlink:href="#m6b33405992" x="55.642634" y="69.322062" style="fill-opacity: 0; stroke: #1f77b4"/>
     <use xlink:href="#m6b33405992" x="56.362527" y="70.251412" style="fill-opacity: 0; stroke: #1f77b4"/>
     <use xlink:href="#m6b33405992" x="57.09677" y="71.237219" style="fill-opacity: 0; stroke: #1f77b4"/>
     <use xlink:href="#m6b33405992" x="57.845238" y="72.745447" style="fill-opacity: 0; stroke: #1f77b4"/>
     <use xlink:href="#m6b33405992" x="58.607811" y="70.178999" style="fill-opacity: 0; stroke: #1f77b4"/>
     <use xlink:href="#m6b33405992" x="59.384367" y="71.625679" style="fill-opacity: 0; stroke: #1f77b4"/>
     <use xlink:href="#m6b33405992" x="60.174785" y="80.129652" style="fill-opacity: 0; stroke: #1f77b4"/>
     <use xlink:href="#m6b33405992" x="60.978947" y="77.570818" style="fill-opacity: 0; stroke: #1f77b4"/>
     <use xlink:href="#m6b33405992" x="61.796734" y="80.599725" style="fill-opacity: 0; stroke: #1f77b4"/>
     <use xlink:href="#m6b33405992" x="62.62803" y="79.30304" style="fill-opacity: 0; stroke: #1f77b4"/>
     <use xlink:href="#m6b33405992" x="63.472719" y="79.601742" style="fill-opacity: 0; stroke: #1f77b4"/>
     <use xlink:href="#m6b33405992" x="64.330686" y="82.300783" style="fill-opacity: 0; stroke: #1f77b4"/>
     <use xlink:href="#m6b33405992" x="65.201816" y="83.58301" style="fill-opacity: 0; stroke: #1f77b4"/>
     <use xlink:href="#m6b33405992" x="66.085999" y="84.164444" style="fill-opacity: 0; stroke: #1f77b4"/>
     <use xlink:href="#m6b33405992" x="66.98312" y="89.534979" style="fill-opacity: 0; stroke: #1f77b4"/>
     <use xlink:href="#m6b33405992" x="67.893071" y="89.3054" style="fill-opacity: 0; stroke: #1f77b4"/>
     <use xlink:href="#m6b33405992" x="68.815742" y="90.567758" style="fill-opacity: 0; stroke: #1f77b4"/>
     <use xlink:href="#m6b33405992" x="69.751023" y="89.033634" style="fill-opacity: 0; stroke: #1f77b4"/>
     <use xlink:href="#m6b33405992" x="70.698808" y="96.535828" style="fill-opacity: 0; stroke: #1f77b4"/>
     <use xlink:href="#m6b33405992" x="71.65899" y="96.08606" style="fill-opacity: 0; stroke: #1f77b4"/>
     <use xlink:href="#m6b33405992" x="72.631464" y="96.332729" style="fill-opacity: 0; stroke: #1f77b4"/>
     <use xlink:href="#m6b33405992" x="73.616126" y="97.989569" style="fill-opacity: 0; stroke: #1f77b4"/>
     <use xlink:href="#m6b33405992" x="74.612871" y="101.840825" style="fill-opacity: 0; stroke: #1f77b4"/>
     <use xlink:href="#m6b33405992" x="75.621599" y="102.818509" style="fill-opacity: 0; stroke: #1f77b4"/>
     <use xlink:href="#m6b33405992" x="76.642208" y="103.501059" style="fill-opacity: 0; stroke: #1f77b4"/>
     <use xlink:href="#m6b33405992" x="77.674597" y="101.241251" style="fill-opacity: 0; stroke: #1f77b4"/>
     <use xlink:href="#m6b33405992" x="78.718669" y="104.802317" style="fill-opacity: 0; stroke: #1f77b4"/>
     <use xlink:href="#m6b33405992" x="79.774324" y="107.719741" style="fill-opacity: 0; stroke: #1f77b4"/>
     <use xlink:href="#m6b33405992" x="80.841466" y="105.970733" style="fill-opacity: 0; stroke: #1f77b4"/>
     <use xlink:href="#m6b33405992" x="81.919999" y="108.908572" style="fill-opacity: 0; stroke: #1f77b4"/>
     <use xlink:href="#m6b33405992" x="83.009829" y="97.16271" style="fill-opacity: 0; stroke: #1f77b4"/>
     <use xlink:href="#m6b33405992" x="84.110861" y="98.611301" style="fill-opacity: 0; stroke: #1f77b4"/>
     <use xlink:href="#m6b33405992" x="85.223003" y="99.518607" style="fill-opacity: 0; stroke: #1f77b4"/>
     <use xlink:href="#m6b33405992" x="86.346164" y="100.722238" style="fill-opacity: 0; stroke: #1f77b4"/>
     <use xlink:href="#m6b33405992" x="87.480252" y="99.8403" style="fill-opacity: 0; stroke: #1f77b4"/>
     <use xlink:href="#m6b33405992" x="88.625178" y="102.886091" style="fill-opacity: 0; stroke: #1f77b4"/>
     <use xlink:href="#m6b33405992" x="89.780854" y="106.171375" style="fill-opacity: 0; stroke: #1f77b4"/>
     <use xlink:href="#m6b33405992" x="90.947192" y="108.334418" style="fill-opacity: 0; stroke: #1f77b4"/>
     <use xlink:href="#m6b33405992" x="92.124106" y="111.23216" style="fill-opacity: 0; stroke: #1f77b4"/>
     <use xlink:href="#m6b33405992" x="93.311511" y="108.702227" style="fill-opacity: 0; stroke: #1f77b4"/>
     <use xlink:href="#m6b33405992" x="94.509322" y="113.696135" style="fill-opacity: 0; stroke: #1f77b4"/>
     <use xlink:href="#m6b33405992" x="95.717456" y="113.813399" style="fill-opacity: 0; stroke: #1f77b4"/>
     <use xlink:href="#m6b33405992" x="96.935831" y="114.03791" style="fill-opacity: 0; stroke: #1f77b4"/>
     <use xlink:href="#m6b33405992" x="98.164367" y="112.935819" style="fill-opacity: 0; stroke: #1f77b4"/>
     <use xlink:href="#m6b33405992" x="99.402982" y="112.654533" style="fill-opacity: 0; stroke: #1f77b4"/>
     <use xlink:href="#m6b33405992" x="100.651598" y="114.231922" style="fill-opacity: 0; stroke: #1f77b4"/>
     <use xlink:href="#m6b33405992" x="101.910137" y="116.606132" style="fill-opacity: 0; stroke: #1f77b4"/>
     <use xlink:href="#m6b33405992" x="103.178522" y="112.65815" style="fill-opacity: 0; stroke: #1f77b4"/>
     <use xlink:href="#m6b33405992" x="104.456677" y="114.911688" style="fill-opacity: 0; stroke: #1f77b4"/>
     <use xlink:href="#m6b33405992" x="105.744528" y="113.819562" style="fill-opacity: 0; stroke: #1f77b4"/>
     <use xlink:href="#m6b33405992" x="107.042001" y="119.716914" style="fill-opacity: 0; stroke: #1f77b4"/>
     <use xlink:href="#m6b33405992" x="108.349023" y="115.361447" style="fill-opacity: 0; stroke: #1f77b4"/>
     <use xlink:href="#m6b33405992" x="109.665523" y="115.963766" style="fill-opacity: 0; stroke: #1f77b4"/>
     <use xlink:href="#m6b33405992" x="110.99143" y="116.999299" style="fill-opacity: 0; stroke: #1f77b4"/>
     <use xlink:href="#m6b33405992" x="112.326674" y="113.998841" style="fill-opacity: 0; stroke: #1f77b4"/>
     <use xlink:href="#m6b33405992" x="113.671188" y="117.670279" style="fill-opacity: 0; stroke: #1f77b4"/>
     <use xlink:href="#m6b33405992" x="115.024904" y="113.878091" style="fill-opacity: 0; stroke: #1f77b4"/>
     <use xlink:href="#m6b33405992" x="116.387755" y="115.338122" style="fill-opacity: 0; stroke: #1f77b4"/>
     <use xlink:href="#m6b33405992" x="117.759676" y="118.085403" style="fill-opacity: 0; stroke: #1f77b4"/>
     <use xlink:href="#m6b33405992" x="119.140604" y="117.824639" style="fill-opacity: 0; stroke: #1f77b4"/>
     <use xlink:href="#m6b33405992" x="120.530474" y="119.998081" style="fill-opacity: 0; stroke: #1f77b4"/>
     <use xlink:href="#m6b33405992" x="121.929225" y="119.153796" style="fill-opacity: 0; stroke: #1f77b4"/>
     <use xlink:href="#m6b33405992" x="123.336796" y="117.254094" style="fill-opacity: 0; stroke: #1f77b4"/>
     <use xlink:href="#m6b33405992" x="124.753126" y="120.474755" style="fill-opacity: 0; stroke: #1f77b4"/>
     <use xlink:href="#m6b33405992" x="126.178158" y="120.970675" style="fill-opacity: 0; stroke: #1f77b4"/>
     <use xlink:href="#m6b33405992" x="127.611832" y="120.18881" style="fill-opacity: 0; stroke: #1f77b4"/>
     <use xlink:href="#m6b33405992" x="129.054093" y="122.135325" style="fill-opacity: 0; stroke: #1f77b4"/>
     <use xlink:href="#m6b33405992" x="130.504884" y="120.797505" style="fill-opacity: 0; stroke: #1f77b4"/>
     <use xlink:href="#m6b33405992" x="131.964151" y="122.192482" style="fill-opacity: 0; stroke: #1f77b4"/>
     <use xlink:href="#m6b33405992" x="133.431839" y="121.752229" style="fill-opacity: 0; stroke: #1f77b4"/>
     <use xlink:href="#m6b33405992" x="134.907897" y="120.386504" style="fill-opacity: 0; stroke: #1f77b4"/>
     <use xlink:href="#m6b33405992" x="136.392273" y="120.037569" style="fill-opacity: 0; stroke: #1f77b4"/>
     <use xlink:href="#m6b33405992" x="137.884917" y="124.573699" style="fill-opacity: 0; stroke: #1f77b4"/>
     <use xlink:href="#m6b33405992" x="139.385778" y="123.03202" style="fill-opacity: 0; stroke: #1f77b4"/>
     <use xlink:href="#m6b33405992" x="140.894809" y="121.030668" style="fill-opacity: 0; stroke: #1f77b4"/>
     <use xlink:href="#m6b33405992" x="142.411962" y="121.55055" style="fill-opacity: 0; stroke: #1f77b4"/>
     <use xlink:href="#m6b33405992" x="143.937191" y="122.241509" style="fill-opacity: 0; stroke: #1f77b4"/>
     <use xlink:href="#m6b33405992" x="145.47045" y="123.588048" style="fill-opacity: 0; stroke: #1f77b4"/>
     <use xlink:href="#m6b33405992" x="147.011697" y="125.286031" style="fill-opacity: 0; stroke: #1f77b4"/>
     <use xlink:href="#m6b33405992" x="148.560887" y="123.002127" style="fill-opacity: 0; stroke: #1f77b4"/>
     <use xlink:href="#m6b33405992" x="150.117978" y="121.895395" style="fill-opacity: 0; stroke: #1f77b4"/>
     <use xlink:href="#m6b33405992" x="151.682929" y="121.883048" style="fill-opacity: 0; stroke: #1f77b4"/>
     <use xlink:href="#m6b33405992" x="153.255702" y="122.437217" style="fill-opacity: 0; stroke: #1f77b4"/>
     <use xlink:href="#m6b33405992" x="154.836255" y="123.285255" style="fill-opacity: 0; stroke: #1f77b4"/>
     <use xlink:href="#m6b33405992" x="156.424553" y="122.704776" style="fill-opacity: 0; stroke: #1f77b4"/>
     <use xlink:href="#m6b33405992" x="158.020557" y="125.817176" style="fill-opacity: 0; stroke: #1f77b4"/>
     <use xlink:href="#m6b33405992" x="159.624233" y="129.591322" style="fill-opacity: 0; stroke: #1f77b4"/>
     <use xlink:href="#m6b33405992" x="161.235545" y="125.006258" style="fill-opacity: 0; stroke: #1f77b4"/>
     <use xlink:href="#m6b33405992" x="162.854461" y="125.95751" style="fill-opacity: 0; stroke: #1f77b4"/>
     <use xlink:href="#m6b33405992" x="164.480947" y="126.461281" style="fill-opacity: 0; stroke: #1f77b4"/>
     <use xlink:href="#m6b33405992" x="166.114971" y="126.400015" style="fill-opacity: 0; stroke: #1f77b4"/>
     <use xlink:href="#m6b33405992" x="167.756505" y="124.17832" style="fill-opacity: 0; stroke: #1f77b4"/>
     <use xlink:href="#m6b33405992" x="169.405517" y="125.283819" style="fill-opacity: 0; stroke: #1f77b4"/>
     <use xlink:href="#m6b33405992" x="171.06198" y="123.530025" style="fill-opacity: 0; stroke: #1f77b4"/>
     <use xlink:href="#m6b33405992" x="172.725866" y="122.76929" style="fill-opacity: 0; stroke: #1f77b4"/>
     <use xlink:href="#m6b33405992" x="174.39715" y="121.403325" style="fill-opacity: 0; stroke: #1f77b4"/>
     <use xlink:href="#m6b33405992" x="176.075806" y="122.75777" style="fill-opacity: 0; stroke: #1f77b4"/>
     <use xlink:href="#m6b33405992" x="177.76181" y="125.324209" style="fill-opacity: 0; stroke: #1f77b4"/>
     <use xlink:href="#m6b33405992" x="179.455138" y="122.602446" style="fill-opacity: 0; stroke: #1f77b4"/>
     <use xlink:href="#m6b33405992" x="181.15577" y="124.810649" style="fill-opacity: 0; stroke: #1f77b4"/>
     <use xlink:href="#m6b33405992" x="182.863683" y="123.063764" style="fill-opacity: 0; stroke: #1f77b4"/>
     <use xlink:href="#m6b33405992" x="184.578859" y="124.388912" style="fill-opacity: 0; stroke: #1f77b4"/>
     <use xlink:href="#m6b33405992" x="186.301277" y="122.80501" style="fill-opacity: 0; stroke: #1f77b4"/>
     <use xlink:href="#m6b33405992" x="188.030922" y="124.790326" style="fill-opacity: 0; stroke: #1f77b4"/>
     <use xlink:href="#m6b33405992" x="189.767774" y="123.322239" style="fill-opacity: 0; stroke: #1f77b4"/>
     <use xlink:href="#m6b33405992" x="191.51182" y="120.38017" style="fill-opacity: 0; stroke: #1f77b4"/>
     <use xlink:href="#m6b33405992" x="193.263044" y="124.67785" style="fill-opacity: 0; stroke: #1f77b4"/>
     <use xlink:href="#m6b33405992" x="195.021433" y="122.956887" style="fill-opacity: 0; stroke: #1f77b4"/>
     <use xlink:href="#m6b33405992" x="196.786974" y="122.359904" style="fill-opacity: 0; stroke: #1f77b4"/>
     <use xlink:href="#m6b33405992" x="198.559656" y="124.639417" style="fill-opacity: 0; stroke: #1f77b4"/>
     <use xlink:href="#m6b33405992" x="200.339468" y="121.937718" style="fill-opacity: 0; stroke: #1f77b4"/>
     <use xlink:href="#m6b33405992" x="202.126402" y="124.286751" style="fill-opacity: 0; stroke: #1f77b4"/>
     <use xlink:href="#m6b33405992" x="203.920448" y="124.607985" style="fill-opacity: 0; stroke: #1f77b4"/>
     <use xlink:href="#m6b33405992" x="205.7216" y="121.749881" style="fill-opacity: 0; stroke: #1f77b4"/>
     <use xlink:href="#m6b33405992" x="207.529851" y="121.632958" style="fill-opacity: 0; stroke: #1f77b4"/>
     <use xlink:href="#m6b33405992" x="209.345196" y="120.045189" style="fill-opacity: 0; stroke: #1f77b4"/>
     <use xlink:href="#m6b33405992" x="211.167632" y="122.458618" style="fill-opacity: 0; stroke: #1f77b4"/>
     <use xlink:href="#m6b33405992" x="212.997155" y="125.374604" style="fill-opacity: 0; stroke: #1f77b4"/>
     <use xlink:href="#m6b33405992" x="214.833762" y="124.849067" style="fill-opacity: 0; stroke: #1f77b4"/>
     <use xlink:href="#m6b33405992" x="216.677455" y="125.663187" style="fill-opacity: 0; stroke: #1f77b4"/>
    </g>
   </g>
   <g id="line2d_10">
    <path d="M 43.99951 48.013379 
L 42.201519 41.469574 
L 40.303438 33.660156 
L 40.146545 32.968264 
L 42.109002 41.11158 
L 44.069148 48.251871 
L 46.180558 55.009415 
L 48.169489 60.62564 
L 50.415211 66.228334 
L 52.262799 70.334726 
L 54.246394 74.308071 
L 56.362527 78.115065 
L 58.607811 81.732642 
L 60.978947 85.146447 
L 63.472719 88.349297 
L 66.085999 91.339721 
L 68.815742 94.120649 
L 71.65899 96.698283 
L 74.612871 99.081134 
L 77.674597 101.279252 
L 80.841466 103.3036 
L 84.110861 105.165577 
L 87.480252 106.876651 
L 92.124106 108.942771 
L 96.935831 110.786202 
L 101.910137 112.43084 
L 107.042001 113.898622 
L 112.326674 115.209446 
L 119.140604 116.65431 
L 126.178158 117.912464 
L 134.907897 119.212787 
L 143.937191 120.320779 
L 154.836255 121.412626 
L 167.756505 122.445321 
L 181.15577 123.294559 
L 198.559656 124.154413 
L 216.677455 124.840969 
L 216.677455 124.840969 
" clip-path="url(#p89ad5b5e8d)" style="fill: none; stroke: #ff7f0e; stroke-width: 1.5; stroke-linecap: square"/>
   </g>
   <g id="line2d_11">
    <path d="M 43.99951 144.421118 
L 40.146545 144.421118 
L 216.677455 144.421118 
L 216.677455 144.421118 
" clip-path="url(#p89ad5b5e8d)" style="fill: none; stroke-dasharray: 5.55,2.4; stroke-dashoffset: 0; stroke: #2ca02c; stroke-width: 1.5"/>
   </g>
   <g id="patch_3">
    <path d="M 31.32 171.0936 
L 31.32 23.0688 
" style="fill: none; stroke: #000000; stroke-width: 0.8; stroke-linejoin: miter; stroke-linecap: square"/>
   </g>
   <g id="patch_4">
    <path d="M 225.504 171.0936 
L 225.504 23.0688 
" style="fill: none; stroke: #000000; stroke-width: 0.8; stroke-linejoin: miter; stroke-linecap: square"/>
   </g>
   <g id="patch_5">
    <path d="M 31.32 171.0936 
L 225.504 171.0936 
" style="fill: none; stroke: #000000; stroke-width: 0.8; stroke-linejoin: miter; stroke-linecap: square"/>
   </g>
   <g id="patch_6">
    <path d="M 31.32 23.0688 
L 225.504 23.0688 
" style="fill: none; stroke: #000000; stroke-width: 0.8; stroke-linejoin: miter; stroke-linecap: square"/>
   </g>
  </g>
 </g>
 <defs>
  <clipPath id="p89ad5b5e8d">
   <rect x="31.32" y="23.0688" width="194.184" height="148.0248"/>
  </clipPath>
 </defs>
</svg>
