<?xml version="1.0" encoding="utf-8" standalone="no"?>
<!DOCTYPE svg PUBLIC "-//W3C//DTD SVG 1.1//EN"
  "http://www.w3.org/Graphics/SVG/1.1/DTD/svg11.dtd">
<svg xmlns:xlink="http://www.w3.org/1999/xlink" width="216pt" height="144pt" viewBox="0 0 216 144" xmlns="http://www.w3.org/2000/svg" version="1.1">
 <metadata>
  <rdf:RDF xmlns:dc="http://purl.org/dc/elements/1.1/" xmlns:cc="http://creativecommons.org/ns#" xmlns:rdf="http://www.w3.org/1999/02/22-rdf-syntax-ns#">
   <cc:Work>
    <dc:type rdf:resource="http://purl.org/dc/dcmitype/StillImage"/>
    <dc:date>2022-04-19T18:18:33.846426</dc:date>
    <dc:format>image/svg+xml</dc:format>
    <dc:creator>
     <cc:Agent>
      <dc:title>Matplotlib v3.5.1, https://matplotlib.org/</dc:title>
     </cc:Agent>
    </dc:creator>
   </cc:Work>
  </rdf:RDF>
 </metadata>
 <defs>
  <style type="text/css">*{stroke-linejoin: round; stroke-linecap: butt}</style>
 </defs>
 <g id="figure_1">
  <g id="patch_1">
   <path d="M 0 144 
L 216 144 
L 216 0 
L 0 0 
z
" style="fill: #ffffff"/>
  </g>
  <g id="axes_1">
   <g id="patch_2">
    <path d="M 27 128.16 
L 194.4 128.16 
L 194.4 17.28 
L 27 17.28 
z
" style="fill: #ffffff"/>
   </g>
   <g id="matplotlib.axis_1">
    <g id="xtick_1">
     <g id="line2d_1">
      <defs>
       <path id="m3a124ffc6b" d="M 0 0 
L 0 3.5 
" style="stroke: #000000; stroke-width: 0.8"/>
      </defs>
      <g>
       <use xlink:href="#m3a124ffc6b" x="33.848182" y="128.16" style="stroke: #000000; stroke-width: 0.8"/>
      </g>
     </g>
     <g id="text_1">
      <!-- 0.0 -->
      <g transform="translate(25.101463 143.518281)scale(0.11 -0.11)">
       <defs>
        <path id="DejaVuSans-30" d="M 2034 4250 
Q 1547 4250 1301 3770 
Q 1056 3291 1056 2328 
Q 1056 1369 1301 889 
Q 1547 409 2034 409 
Q 2525 409 2770 889 
Q 3016 1369 3016 2328 
Q 3016 3291 2770 3770 
Q 2525 4250 2034 4250 
z
M 2034 4750 
Q 2819 4750 3233 4129 
Q 3647 3509 3647 2328 
Q 3647 1150 3233 529 
Q 2819 -91 2034 -91 
Q 1250 -91 836 529 
Q 422 1150 422 2328 
Q 422 3509 836 4129 
Q 1250 4750 2034 4750 
z
" transform="scale(0.015625)"/>
        <path id="DejaVuSans-2e" d="M 684 794 
L 1344 794 
L 1344 0 
L 684 0 
L 684 794 
z
" transform="scale(0.015625)"/>
       </defs>
       <use xlink:href="#DejaVuSans-30"/>
       <use xlink:href="#DejaVuSans-2e" x="63.623047"/>
       <use xlink:href="#DejaVuSans-30" x="95.410156"/>
      </g>
     </g>
    </g>
    <g id="xtick_2">
     <g id="line2d_2">
      <g>
       <use xlink:href="#m3a124ffc6b" x="72.083864" y="128.16" style="stroke: #000000; stroke-width: 0.8"/>
      </g>
     </g>
     <g id="text_2">
      <!-- 2.5 -->
      <g transform="translate(63.337145 143.518281)scale(0.11 -0.11)">
       <defs>
        <path id="DejaVuSans-32" d="M 1228 531 
L 3431 531 
L 3431 0 
L 469 0 
L 469 531 
Q 828 903 1448 1529 
Q 2069 2156 2228 2338 
Q 2531 2678 2651 2914 
Q 2772 3150 2772 3378 
Q 2772 3750 2511 3984 
Q 2250 4219 1831 4219 
Q 1534 4219 1204 4116 
Q 875 4013 500 3803 
L 500 4441 
Q 881 4594 1212 4672 
Q 1544 4750 1819 4750 
Q 2544 4750 2975 4387 
Q 3406 4025 3406 3419 
Q 3406 3131 3298 2873 
Q 3191 2616 2906 2266 
Q 2828 2175 2409 1742 
Q 1991 1309 1228 531 
z
" transform="scale(0.015625)"/>
        <path id="DejaVuSans-35" d="M 691 4666 
L 3169 4666 
L 3169 4134 
L 1269 4134 
L 1269 2991 
Q 1406 3038 1543 3061 
Q 1681 3084 1819 3084 
Q 2600 3084 3056 2656 
Q 3513 2228 3513 1497 
Q 3513 744 3044 326 
Q 2575 -91 1722 -91 
Q 1428 -91 1123 -41 
Q 819 9 494 109 
L 494 744 
Q 775 591 1075 516 
Q 1375 441 1709 441 
Q 2250 441 2565 725 
Q 2881 1009 2881 1497 
Q 2881 1984 2565 2268 
Q 2250 2553 1709 2553 
Q 1456 2553 1204 2497 
Q 953 2441 691 2322 
L 691 4666 
z
" transform="scale(0.015625)"/>
       </defs>
       <use xlink:href="#DejaVuSans-32"/>
       <use xlink:href="#DejaVuSans-2e" x="63.623047"/>
       <use xlink:href="#DejaVuSans-35" x="95.410156"/>
      </g>
     </g>
    </g>
    <g id="xtick_3">
     <g id="line2d_3">
      <g>
       <use xlink:href="#m3a124ffc6b" x="110.319545" y="128.16" style="stroke: #000000; stroke-width: 0.8"/>
      </g>
     </g>
     <g id="text_3">
      <!-- 5.0 -->
      <g transform="translate(101.572827 143.518281)scale(0.11 -0.11)">
       <use xlink:href="#DejaVuSans-35"/>
       <use xlink:href="#DejaVuSans-2e" x="63.623047"/>
       <use xlink:href="#DejaVuSans-30" x="95.410156"/>
      </g>
     </g>
    </g>
    <g id="xtick_4">
     <g id="line2d_4">
      <g>
       <use xlink:href="#m3a124ffc6b" x="148.555227" y="128.16" style="stroke: #000000; stroke-width: 0.8"/>
      </g>
     </g>
     <g id="text_4">
      <!-- 7.5 -->
      <g transform="translate(139.808509 143.518281)scale(0.11 -0.11)">
       <defs>
        <path id="DejaVuSans-37" d="M 525 4666 
L 3525 4666 
L 3525 4397 
L 1831 0 
L 1172 0 
L 2766 4134 
L 525 4134 
L 525 4666 
z
" transform="scale(0.015625)"/>
       </defs>
       <use xlink:href="#DejaVuSans-37"/>
       <use xlink:href="#DejaVuSans-2e" x="63.623047"/>
       <use xlink:href="#DejaVuSans-35" x="95.410156"/>
      </g>
     </g>
    </g>
    <g id="xtick_5">
     <g id="line2d_5">
      <g>
       <use xlink:href="#m3a124ffc6b" x="186.790909" y="128.16" style="stroke: #000000; stroke-width: 0.8"/>
      </g>
     </g>
     <g id="text_5">
      <!-- 10.0 -->
      <g transform="translate(174.544815 143.518281)scale(0.11 -0.11)">
       <defs>
        <path id="DejaVuSans-31" d="M 794 531 
L 1825 531 
L 1825 4091 
L 703 3866 
L 703 4441 
L 1819 4666 
L 2450 4666 
L 2450 531 
L 3481 531 
L 3481 0 
L 794 0 
L 794 531 
z
" transform="scale(0.015625)"/>
       </defs>
       <use xlink:href="#DejaVuSans-31"/>
       <use xlink:href="#DejaVuSans-30" x="63.623047"/>
       <use xlink:href="#DejaVuSans-2e" x="127.246094"/>
       <use xlink:href="#DejaVuSans-30" x="159.033203"/>
      </g>
     </g>
    </g>
   </g>
   <g id="matplotlib.axis_2">
    <g id="ytick_1">
     <g id="line2d_6">
      <defs>
       <path id="m78416a602f" d="M 0 0 
L -3.5 0 
" style="stroke: #000000; stroke-width: 0.8"/>
      </defs>
      <g>
       <use xlink:href="#m78416a602f" x="27" y="122.98507" style="stroke: #000000; stroke-width: 0.8"/>
      </g>
     </g>
     <g id="text_6">
      <!-- 0.0 -->
      <g transform="translate(0.91625 127.544132)scale(0.12 -0.12)">
       <use xlink:href="#DejaVuSans-30"/>
       <use xlink:href="#DejaVuSans-2e" x="63.623047"/>
       <use xlink:href="#DejaVuSans-30" x="95.410156"/>
      </g>
     </g>
    </g>
    <g id="ytick_2">
     <g id="line2d_7">
      <g>
       <use xlink:href="#m78416a602f" x="27" y="96.384184" style="stroke: #000000; stroke-width: 0.8"/>
      </g>
     </g>
     <g id="text_7">
      <!-- 0.5 -->
      <g transform="translate(0.91625 100.943247)scale(0.12 -0.12)">
       <use xlink:href="#DejaVuSans-30"/>
       <use xlink:href="#DejaVuSans-2e" x="63.623047"/>
       <use xlink:href="#DejaVuSans-35" x="95.410156"/>
      </g>
     </g>
    </g>
    <g id="ytick_3">
     <g id="line2d_8">
      <g>
       <use xlink:href="#m78416a602f" x="27" y="69.783299" style="stroke: #000000; stroke-width: 0.8"/>
      </g>
     </g>
     <g id="text_8">
      <!-- 1.0 -->
      <g transform="translate(0.91625 74.342362)scale(0.12 -0.12)">
       <use xlink:href="#DejaVuSans-31"/>
       <use xlink:href="#DejaVuSans-2e" x="63.623047"/>
       <use xlink:href="#DejaVuSans-30" x="95.410156"/>
      </g>
     </g>
    </g>
    <g id="ytick_4">
     <g id="line2d_9">
      <g>
       <use xlink:href="#m78416a602f" x="27" y="43.182414" style="stroke: #000000; stroke-width: 0.8"/>
      </g>
     </g>
     <g id="text_9">
      <!-- 1.5 -->
      <g transform="translate(0.91625 47.741476)scale(0.12 -0.12)">
       <use xlink:href="#DejaVuSans-31"/>
       <use xlink:href="#DejaVuSans-2e" x="63.623047"/>
       <use xlink:href="#DejaVuSans-35" x="95.410156"/>
      </g>
     </g>
    </g>
   </g>
   <g id="line2d_10">
    <defs>
     <path id="m40d3fc9b3e" d="M 0 2.5 
C 0.663008 2.5 1.29895 2.236584 1.767767 1.767767 
C 2.236584 1.29895 2.5 0.663008 2.5 0 
C 2.5 -0.663008 2.236584 -1.29895 1.767767 -1.767767 
C 1.29895 -2.236584 0.663008 -2.5 0 -2.5 
C -0.663008 -2.5 -1.29895 -2.236584 -1.767767 -1.767767 
C -2.236584 -1.29895 -2.5 -0.663008 -2.5 0 
C -2.5 0.663008 -2.236584 1.29895 -1.767767 1.767767 
C -1.29895 2.236584 -0.663008 2.5 0 2.5 
z
" style="stroke: #1f77b4; stroke-width: 0.8"/>
    </defs>
    <g clip-path="url(#pcda1eb8b2a)">
     <use xlink:href="#m40d3fc9b3e" x="34.609091" y="25.078195" style="fill-opacity: 0; stroke: #1f77b4; stroke-width: 0.8"/>
     <use xlink:href="#m40d3fc9b3e" x="35.37" y="34.791194" style="fill-opacity: 0; stroke: #1f77b4; stroke-width: 0.8"/>
     <use xlink:href="#m40d3fc9b3e" x="36.130909" y="39.777935" style="fill-opacity: 0; stroke: #1f77b4; stroke-width: 0.8"/>
     <use xlink:href="#m40d3fc9b3e" x="36.891818" y="45.139682" style="fill-opacity: 0; stroke: #1f77b4; stroke-width: 0.8"/>
     <use xlink:href="#m40d3fc9b3e" x="37.652727" y="49.536023" style="fill-opacity: 0; stroke: #1f77b4; stroke-width: 0.8"/>
     <use xlink:href="#m40d3fc9b3e" x="38.413636" y="53.596812" style="fill-opacity: 0; stroke: #1f77b4; stroke-width: 0.8"/>
     <use xlink:href="#m40d3fc9b3e" x="39.174545" y="57.910262" style="fill-opacity: 0; stroke: #1f77b4; stroke-width: 0.8"/>
     <use xlink:href="#m40d3fc9b3e" x="39.935455" y="61.032514" style="fill-opacity: 0; stroke: #1f77b4; stroke-width: 0.8"/>
     <use xlink:href="#m40d3fc9b3e" x="40.696364" y="64.577439" style="fill-opacity: 0; stroke: #1f77b4; stroke-width: 0.8"/>
     <use xlink:href="#m40d3fc9b3e" x="41.457273" y="66.903567" style="fill-opacity: 0; stroke: #1f77b4; stroke-width: 0.8"/>
     <use xlink:href="#m40d3fc9b3e" x="42.218182" y="70.026403" style="fill-opacity: 0; stroke: #1f77b4; stroke-width: 0.8"/>
     <use xlink:href="#m40d3fc9b3e" x="42.979091" y="71.944825" style="fill-opacity: 0; stroke: #1f77b4; stroke-width: 0.8"/>
     <use xlink:href="#m40d3fc9b3e" x="43.74" y="74.948424" style="fill-opacity: 0; stroke: #1f77b4; stroke-width: 0.8"/>
     <use xlink:href="#m40d3fc9b3e" x="44.500909" y="77.019415" style="fill-opacity: 0; stroke: #1f77b4; stroke-width: 0.8"/>
     <use xlink:href="#m40d3fc9b3e" x="45.261818" y="79.184861" style="fill-opacity: 0; stroke: #1f77b4; stroke-width: 0.8"/>
     <use xlink:href="#m40d3fc9b3e" x="46.022727" y="81.139773" style="fill-opacity: 0; stroke: #1f77b4; stroke-width: 0.8"/>
     <use xlink:href="#m40d3fc9b3e" x="46.783636" y="81.941485" style="fill-opacity: 0; stroke: #1f77b4; stroke-width: 0.8"/>
     <use xlink:href="#m40d3fc9b3e" x="47.544545" y="84.804857" style="fill-opacity: 0; stroke: #1f77b4; stroke-width: 0.8"/>
     <use xlink:href="#m40d3fc9b3e" x="48.305455" y="85.372809" style="fill-opacity: 0; stroke: #1f77b4; stroke-width: 0.8"/>
     <use xlink:href="#m40d3fc9b3e" x="49.066364" y="87.151102" style="fill-opacity: 0; stroke: #1f77b4; stroke-width: 0.8"/>
     <use xlink:href="#m40d3fc9b3e" x="49.827273" y="89.633103" style="fill-opacity: 0; stroke: #1f77b4; stroke-width: 0.8"/>
     <use xlink:href="#m40d3fc9b3e" x="50.588182" y="90.080458" style="fill-opacity: 0; stroke: #1f77b4; stroke-width: 0.8"/>
     <use xlink:href="#m40d3fc9b3e" x="51.349091" y="92.045477" style="fill-opacity: 0; stroke: #1f77b4; stroke-width: 0.8"/>
     <use xlink:href="#m40d3fc9b3e" x="52.11" y="93.024439" style="fill-opacity: 0; stroke: #1f77b4; stroke-width: 0.8"/>
     <use xlink:href="#m40d3fc9b3e" x="52.870909" y="93.442835" style="fill-opacity: 0; stroke: #1f77b4; stroke-width: 0.8"/>
     <use xlink:href="#m40d3fc9b3e" x="53.631818" y="94.667316" style="fill-opacity: 0; stroke: #1f77b4; stroke-width: 0.8"/>
     <use xlink:href="#m40d3fc9b3e" x="54.392727" y="95.705459" style="fill-opacity: 0; stroke: #1f77b4; stroke-width: 0.8"/>
     <use xlink:href="#m40d3fc9b3e" x="55.153636" y="97.091836" style="fill-opacity: 0; stroke: #1f77b4; stroke-width: 0.8"/>
     <use xlink:href="#m40d3fc9b3e" x="55.914545" y="98.290808" style="fill-opacity: 0; stroke: #1f77b4; stroke-width: 0.8"/>
     <use xlink:href="#m40d3fc9b3e" x="56.675455" y="98.762991" style="fill-opacity: 0; stroke: #1f77b4; stroke-width: 0.8"/>
     <use xlink:href="#m40d3fc9b3e" x="57.436364" y="99.667127" style="fill-opacity: 0; stroke: #1f77b4; stroke-width: 0.8"/>
     <use xlink:href="#m40d3fc9b3e" x="58.197273" y="100.685689" style="fill-opacity: 0; stroke: #1f77b4; stroke-width: 0.8"/>
     <use xlink:href="#m40d3fc9b3e" x="58.958182" y="101.294844" style="fill-opacity: 0; stroke: #1f77b4; stroke-width: 0.8"/>
     <use xlink:href="#m40d3fc9b3e" x="59.719091" y="101.873777" style="fill-opacity: 0; stroke: #1f77b4; stroke-width: 0.8"/>
     <use xlink:href="#m40d3fc9b3e" x="60.48" y="103.062593" style="fill-opacity: 0; stroke: #1f77b4; stroke-width: 0.8"/>
     <use xlink:href="#m40d3fc9b3e" x="61.240909" y="103.959684" style="fill-opacity: 0; stroke: #1f77b4; stroke-width: 0.8"/>
     <use xlink:href="#m40d3fc9b3e" x="62.001818" y="103.269532" style="fill-opacity: 0; stroke: #1f77b4; stroke-width: 0.8"/>
     <use xlink:href="#m40d3fc9b3e" x="62.762727" y="104.366565" style="fill-opacity: 0; stroke: #1f77b4; stroke-width: 0.8"/>
     <use xlink:href="#m40d3fc9b3e" x="63.523636" y="105.205398" style="fill-opacity: 0; stroke: #1f77b4; stroke-width: 0.8"/>
     <use xlink:href="#m40d3fc9b3e" x="64.284545" y="105.767179" style="fill-opacity: 0; stroke: #1f77b4; stroke-width: 0.8"/>
     <use xlink:href="#m40d3fc9b3e" x="65.045455" y="106.873103" style="fill-opacity: 0; stroke: #1f77b4; stroke-width: 0.8"/>
     <use xlink:href="#m40d3fc9b3e" x="65.806364" y="106.95721" style="fill-opacity: 0; stroke: #1f77b4; stroke-width: 0.8"/>
     <use xlink:href="#m40d3fc9b3e" x="66.567273" y="107.465543" style="fill-opacity: 0; stroke: #1f77b4; stroke-width: 0.8"/>
     <use xlink:href="#m40d3fc9b3e" x="67.328182" y="107.535122" style="fill-opacity: 0; stroke: #1f77b4; stroke-width: 0.8"/>
     <use xlink:href="#m40d3fc9b3e" x="68.089091" y="108.648237" style="fill-opacity: 0; stroke: #1f77b4; stroke-width: 0.8"/>
     <use xlink:href="#m40d3fc9b3e" x="68.85" y="108.428083" style="fill-opacity: 0; stroke: #1f77b4; stroke-width: 0.8"/>
     <use xlink:href="#m40d3fc9b3e" x="69.610909" y="109.344366" style="fill-opacity: 0; stroke: #1f77b4; stroke-width: 0.8"/>
     <use xlink:href="#m40d3fc9b3e" x="70.371818" y="109.360594" style="fill-opacity: 0; stroke: #1f77b4; stroke-width: 0.8"/>
     <use xlink:href="#m40d3fc9b3e" x="71.132727" y="109.777047" style="fill-opacity: 0; stroke: #1f77b4; stroke-width: 0.8"/>
     <use xlink:href="#m40d3fc9b3e" x="71.893636" y="110.961442" style="fill-opacity: 0; stroke: #1f77b4; stroke-width: 0.8"/>
     <use xlink:href="#m40d3fc9b3e" x="72.654545" y="111.258512" style="fill-opacity: 0; stroke: #1f77b4; stroke-width: 0.8"/>
     <use xlink:href="#m40d3fc9b3e" x="73.415455" y="110.772092" style="fill-opacity: 0; stroke: #1f77b4; stroke-width: 0.8"/>
     <use xlink:href="#m40d3fc9b3e" x="74.176364" y="110.92777" style="fill-opacity: 0; stroke: #1f77b4; stroke-width: 0.8"/>
     <use xlink:href="#m40d3fc9b3e" x="74.937273" y="110.727585" style="fill-opacity: 0; stroke: #1f77b4; stroke-width: 0.8"/>
     <use xlink:href="#m40d3fc9b3e" x="75.698182" y="112.610926" style="fill-opacity: 0; stroke: #1f77b4; stroke-width: 0.8"/>
     <use xlink:href="#m40d3fc9b3e" x="76.459091" y="111.933164" style="fill-opacity: 0; stroke: #1f77b4; stroke-width: 0.8"/>
     <use xlink:href="#m40d3fc9b3e" x="77.22" y="112.432703" style="fill-opacity: 0; stroke: #1f77b4; stroke-width: 0.8"/>
     <use xlink:href="#m40d3fc9b3e" x="77.980909" y="112.311621" style="fill-opacity: 0; stroke: #1f77b4; stroke-width: 0.8"/>
     <use xlink:href="#m40d3fc9b3e" x="78.741818" y="113.661897" style="fill-opacity: 0; stroke: #1f77b4; stroke-width: 0.8"/>
     <use xlink:href="#m40d3fc9b3e" x="79.502727" y="113.533234" style="fill-opacity: 0; stroke: #1f77b4; stroke-width: 0.8"/>
     <use xlink:href="#m40d3fc9b3e" x="80.263636" y="112.827194" style="fill-opacity: 0; stroke: #1f77b4; stroke-width: 0.8"/>
     <use xlink:href="#m40d3fc9b3e" x="81.024545" y="114.087192" style="fill-opacity: 0; stroke: #1f77b4; stroke-width: 0.8"/>
     <use xlink:href="#m40d3fc9b3e" x="81.785455" y="113.617681" style="fill-opacity: 0; stroke: #1f77b4; stroke-width: 0.8"/>
     <use xlink:href="#m40d3fc9b3e" x="82.546364" y="114.853094" style="fill-opacity: 0; stroke: #1f77b4; stroke-width: 0.8"/>
     <use xlink:href="#m40d3fc9b3e" x="83.307273" y="114.572641" style="fill-opacity: 0; stroke: #1f77b4; stroke-width: 0.8"/>
     <use xlink:href="#m40d3fc9b3e" x="84.068182" y="114.241461" style="fill-opacity: 0; stroke: #1f77b4; stroke-width: 0.8"/>
     <use xlink:href="#m40d3fc9b3e" x="84.829091" y="115.978696" style="fill-opacity: 0; stroke: #1f77b4; stroke-width: 0.8"/>
     <use xlink:href="#m40d3fc9b3e" x="85.59" y="115.199287" style="fill-opacity: 0; stroke: #1f77b4; stroke-width: 0.8"/>
     <use xlink:href="#m40d3fc9b3e" x="86.350909" y="115.747366" style="fill-opacity: 0; stroke: #1f77b4; stroke-width: 0.8"/>
     <use xlink:href="#m40d3fc9b3e" x="87.111818" y="115.534597" style="fill-opacity: 0; stroke: #1f77b4; stroke-width: 0.8"/>
     <use xlink:href="#m40d3fc9b3e" x="87.872727" y="116.369106" style="fill-opacity: 0; stroke: #1f77b4; stroke-width: 0.8"/>
     <use xlink:href="#m40d3fc9b3e" x="88.633636" y="116.050024" style="fill-opacity: 0; stroke: #1f77b4; stroke-width: 0.8"/>
     <use xlink:href="#m40d3fc9b3e" x="89.394545" y="116.495533" style="fill-opacity: 0; stroke: #1f77b4; stroke-width: 0.8"/>
     <use xlink:href="#m40d3fc9b3e" x="90.155455" y="116.752081" style="fill-opacity: 0; stroke: #1f77b4; stroke-width: 0.8"/>
     <use xlink:href="#m40d3fc9b3e" x="90.916364" y="116.789154" style="fill-opacity: 0; stroke: #1f77b4; stroke-width: 0.8"/>
     <use xlink:href="#m40d3fc9b3e" x="91.677273" y="116.441211" style="fill-opacity: 0; stroke: #1f77b4; stroke-width: 0.8"/>
     <use xlink:href="#m40d3fc9b3e" x="92.438182" y="117.146571" style="fill-opacity: 0; stroke: #1f77b4; stroke-width: 0.8"/>
     <use xlink:href="#m40d3fc9b3e" x="93.199091" y="117.019075" style="fill-opacity: 0; stroke: #1f77b4; stroke-width: 0.8"/>
     <use xlink:href="#m40d3fc9b3e" x="93.96" y="116.355549" style="fill-opacity: 0; stroke: #1f77b4; stroke-width: 0.8"/>
     <use xlink:href="#m40d3fc9b3e" x="94.720909" y="117.349477" style="fill-opacity: 0; stroke: #1f77b4; stroke-width: 0.8"/>
     <use xlink:href="#m40d3fc9b3e" x="95.481818" y="117.253029" style="fill-opacity: 0; stroke: #1f77b4; stroke-width: 0.8"/>
     <use xlink:href="#m40d3fc9b3e" x="96.242727" y="117.916894" style="fill-opacity: 0; stroke: #1f77b4; stroke-width: 0.8"/>
     <use xlink:href="#m40d3fc9b3e" x="97.003636" y="118.311287" style="fill-opacity: 0; stroke: #1f77b4; stroke-width: 0.8"/>
     <use xlink:href="#m40d3fc9b3e" x="97.764545" y="117.8513" style="fill-opacity: 0; stroke: #1f77b4; stroke-width: 0.8"/>
     <use xlink:href="#m40d3fc9b3e" x="98.525455" y="118.016598" style="fill-opacity: 0; stroke: #1f77b4; stroke-width: 0.8"/>
     <use xlink:href="#m40d3fc9b3e" x="99.286364" y="118.065429" style="fill-opacity: 0; stroke: #1f77b4; stroke-width: 0.8"/>
     <use xlink:href="#m40d3fc9b3e" x="100.047273" y="118.314834" style="fill-opacity: 0; stroke: #1f77b4; stroke-width: 0.8"/>
     <use xlink:href="#m40d3fc9b3e" x="100.808182" y="118.627259" style="fill-opacity: 0; stroke: #1f77b4; stroke-width: 0.8"/>
     <use xlink:href="#m40d3fc9b3e" x="101.569091" y="118.822439" style="fill-opacity: 0; stroke: #1f77b4; stroke-width: 0.8"/>
     <use xlink:href="#m40d3fc9b3e" x="102.33" y="118.71569" style="fill-opacity: 0; stroke: #1f77b4; stroke-width: 0.8"/>
     <use xlink:href="#m40d3fc9b3e" x="103.090909" y="119.307985" style="fill-opacity: 0; stroke: #1f77b4; stroke-width: 0.8"/>
     <use xlink:href="#m40d3fc9b3e" x="103.851818" y="118.315223" style="fill-opacity: 0; stroke: #1f77b4; stroke-width: 0.8"/>
     <use xlink:href="#m40d3fc9b3e" x="104.612727" y="119.310657" style="fill-opacity: 0; stroke: #1f77b4; stroke-width: 0.8"/>
     <use xlink:href="#m40d3fc9b3e" x="105.373636" y="119.220379" style="fill-opacity: 0; stroke: #1f77b4; stroke-width: 0.8"/>
     <use xlink:href="#m40d3fc9b3e" x="106.134545" y="119.400109" style="fill-opacity: 0; stroke: #1f77b4; stroke-width: 0.8"/>
     <use xlink:href="#m40d3fc9b3e" x="106.895455" y="119.512883" style="fill-opacity: 0; stroke: #1f77b4; stroke-width: 0.8"/>
     <use xlink:href="#m40d3fc9b3e" x="107.656364" y="119.308713" style="fill-opacity: 0; stroke: #1f77b4; stroke-width: 0.8"/>
     <use xlink:href="#m40d3fc9b3e" x="108.417273" y="119.205463" style="fill-opacity: 0; stroke: #1f77b4; stroke-width: 0.8"/>
     <use xlink:href="#m40d3fc9b3e" x="109.178182" y="119.413616" style="fill-opacity: 0; stroke: #1f77b4; stroke-width: 0.8"/>
     <use xlink:href="#m40d3fc9b3e" x="109.939091" y="118.5088" style="fill-opacity: 0; stroke: #1f77b4; stroke-width: 0.8"/>
     <use xlink:href="#m40d3fc9b3e" x="110.7" y="119.330141" style="fill-opacity: 0; stroke: #1f77b4; stroke-width: 0.8"/>
     <use xlink:href="#m40d3fc9b3e" x="111.460909" y="119.045606" style="fill-opacity: 0; stroke: #1f77b4; stroke-width: 0.8"/>
     <use xlink:href="#m40d3fc9b3e" x="112.221818" y="119.218582" style="fill-opacity: 0; stroke: #1f77b4; stroke-width: 0.8"/>
     <use xlink:href="#m40d3fc9b3e" x="112.982727" y="119.70126" style="fill-opacity: 0; stroke: #1f77b4; stroke-width: 0.8"/>
     <use xlink:href="#m40d3fc9b3e" x="113.743636" y="119.329412" style="fill-opacity: 0; stroke: #1f77b4; stroke-width: 0.8"/>
     <use xlink:href="#m40d3fc9b3e" x="114.504545" y="119.477267" style="fill-opacity: 0; stroke: #1f77b4; stroke-width: 0.8"/>
     <use xlink:href="#m40d3fc9b3e" x="115.265455" y="119.579109" style="fill-opacity: 0; stroke: #1f77b4; stroke-width: 0.8"/>
     <use xlink:href="#m40d3fc9b3e" x="116.026364" y="120.190596" style="fill-opacity: 0; stroke: #1f77b4; stroke-width: 0.8"/>
     <use xlink:href="#m40d3fc9b3e" x="116.787273" y="119.82419" style="fill-opacity: 0; stroke: #1f77b4; stroke-width: 0.8"/>
     <use xlink:href="#m40d3fc9b3e" x="117.548182" y="119.880698" style="fill-opacity: 0; stroke: #1f77b4; stroke-width: 0.8"/>
     <use xlink:href="#m40d3fc9b3e" x="118.309091" y="120.756215" style="fill-opacity: 0; stroke: #1f77b4; stroke-width: 0.8"/>
     <use xlink:href="#m40d3fc9b3e" x="119.07" y="120.094293" style="fill-opacity: 0; stroke: #1f77b4; stroke-width: 0.8"/>
     <use xlink:href="#m40d3fc9b3e" x="119.830909" y="120.056783" style="fill-opacity: 0; stroke: #1f77b4; stroke-width: 0.8"/>
     <use xlink:href="#m40d3fc9b3e" x="120.591818" y="120.826474" style="fill-opacity: 0; stroke: #1f77b4; stroke-width: 0.8"/>
     <use xlink:href="#m40d3fc9b3e" x="121.352727" y="120.344476" style="fill-opacity: 0; stroke: #1f77b4; stroke-width: 0.8"/>
     <use xlink:href="#m40d3fc9b3e" x="122.113636" y="120.144728" style="fill-opacity: 0; stroke: #1f77b4; stroke-width: 0.8"/>
     <use xlink:href="#m40d3fc9b3e" x="122.874545" y="121.697327" style="fill-opacity: 0; stroke: #1f77b4; stroke-width: 0.8"/>
     <use xlink:href="#m40d3fc9b3e" x="123.635455" y="120.154494" style="fill-opacity: 0; stroke: #1f77b4; stroke-width: 0.8"/>
     <use xlink:href="#m40d3fc9b3e" x="124.396364" y="119.923893" style="fill-opacity: 0; stroke: #1f77b4; stroke-width: 0.8"/>
     <use xlink:href="#m40d3fc9b3e" x="125.157273" y="119.817679" style="fill-opacity: 0; stroke: #1f77b4; stroke-width: 0.8"/>
     <use xlink:href="#m40d3fc9b3e" x="125.918182" y="120.560112" style="fill-opacity: 0; stroke: #1f77b4; stroke-width: 0.8"/>
     <use xlink:href="#m40d3fc9b3e" x="126.679091" y="121.0201" style="fill-opacity: 0; stroke: #1f77b4; stroke-width: 0.8"/>
     <use xlink:href="#m40d3fc9b3e" x="127.44" y="121.267756" style="fill-opacity: 0; stroke: #1f77b4; stroke-width: 0.8"/>
     <use xlink:href="#m40d3fc9b3e" x="128.200909" y="121.37086" style="fill-opacity: 0; stroke: #1f77b4; stroke-width: 0.8"/>
     <use xlink:href="#m40d3fc9b3e" x="128.961818" y="121.041187" style="fill-opacity: 0; stroke: #1f77b4; stroke-width: 0.8"/>
     <use xlink:href="#m40d3fc9b3e" x="129.722727" y="120.53334" style="fill-opacity: 0; stroke: #1f77b4; stroke-width: 0.8"/>
     <use xlink:href="#m40d3fc9b3e" x="130.483636" y="121.06519" style="fill-opacity: 0; stroke: #1f77b4; stroke-width: 0.8"/>
     <use xlink:href="#m40d3fc9b3e" x="131.244545" y="120.482807" style="fill-opacity: 0; stroke: #1f77b4; stroke-width: 0.8"/>
     <use xlink:href="#m40d3fc9b3e" x="132.005455" y="121.149588" style="fill-opacity: 0; stroke: #1f77b4; stroke-width: 0.8"/>
     <use xlink:href="#m40d3fc9b3e" x="132.766364" y="120.354582" style="fill-opacity: 0; stroke: #1f77b4; stroke-width: 0.8"/>
     <use xlink:href="#m40d3fc9b3e" x="133.527273" y="121.38602" style="fill-opacity: 0; stroke: #1f77b4; stroke-width: 0.8"/>
     <use xlink:href="#m40d3fc9b3e" x="134.288182" y="121.419741" style="fill-opacity: 0; stroke: #1f77b4; stroke-width: 0.8"/>
     <use xlink:href="#m40d3fc9b3e" x="135.049091" y="121.255754" style="fill-opacity: 0; stroke: #1f77b4; stroke-width: 0.8"/>
     <use xlink:href="#m40d3fc9b3e" x="135.81" y="120.67687" style="fill-opacity: 0; stroke: #1f77b4; stroke-width: 0.8"/>
     <use xlink:href="#m40d3fc9b3e" x="136.570909" y="121.139725" style="fill-opacity: 0; stroke: #1f77b4; stroke-width: 0.8"/>
     <use xlink:href="#m40d3fc9b3e" x="137.331818" y="121.392288" style="fill-opacity: 0; stroke: #1f77b4; stroke-width: 0.8"/>
     <use xlink:href="#m40d3fc9b3e" x="138.092727" y="121.076268" style="fill-opacity: 0; stroke: #1f77b4; stroke-width: 0.8"/>
     <use xlink:href="#m40d3fc9b3e" x="138.853636" y="121.341319" style="fill-opacity: 0; stroke: #1f77b4; stroke-width: 0.8"/>
     <use xlink:href="#m40d3fc9b3e" x="139.614545" y="120.527169" style="fill-opacity: 0; stroke: #1f77b4; stroke-width: 0.8"/>
     <use xlink:href="#m40d3fc9b3e" x="140.375455" y="122.617594" style="fill-opacity: 0; stroke: #1f77b4; stroke-width: 0.8"/>
     <use xlink:href="#m40d3fc9b3e" x="141.136364" y="120.746886" style="fill-opacity: 0; stroke: #1f77b4; stroke-width: 0.8"/>
     <use xlink:href="#m40d3fc9b3e" x="141.897273" y="120.414346" style="fill-opacity: 0; stroke: #1f77b4; stroke-width: 0.8"/>
     <use xlink:href="#m40d3fc9b3e" x="142.658182" y="122.494422" style="fill-opacity: 0; stroke: #1f77b4; stroke-width: 0.8"/>
     <use xlink:href="#m40d3fc9b3e" x="143.419091" y="121.002414" style="fill-opacity: 0; stroke: #1f77b4; stroke-width: 0.8"/>
     <use xlink:href="#m40d3fc9b3e" x="144.18" y="120.472118" style="fill-opacity: 0; stroke: #1f77b4; stroke-width: 0.8"/>
     <use xlink:href="#m40d3fc9b3e" x="144.940909" y="122.339473" style="fill-opacity: 0; stroke: #1f77b4; stroke-width: 0.8"/>
     <use xlink:href="#m40d3fc9b3e" x="145.701818" y="121.880554" style="fill-opacity: 0; stroke: #1f77b4; stroke-width: 0.8"/>
     <use xlink:href="#m40d3fc9b3e" x="146.462727" y="121.043519" style="fill-opacity: 0; stroke: #1f77b4; stroke-width: 0.8"/>
     <use xlink:href="#m40d3fc9b3e" x="147.223636" y="121.076948" style="fill-opacity: 0; stroke: #1f77b4; stroke-width: 0.8"/>
     <use xlink:href="#m40d3fc9b3e" x="147.984545" y="121.566235" style="fill-opacity: 0; stroke: #1f77b4; stroke-width: 0.8"/>
     <use xlink:href="#m40d3fc9b3e" x="148.745455" y="122.002852" style="fill-opacity: 0; stroke: #1f77b4; stroke-width: 0.8"/>
     <use xlink:href="#m40d3fc9b3e" x="149.506364" y="122.343798" style="fill-opacity: 0; stroke: #1f77b4; stroke-width: 0.8"/>
     <use xlink:href="#m40d3fc9b3e" x="150.267273" y="121.75092" style="fill-opacity: 0; stroke: #1f77b4; stroke-width: 0.8"/>
     <use xlink:href="#m40d3fc9b3e" x="151.028182" y="121.408711" style="fill-opacity: 0; stroke: #1f77b4; stroke-width: 0.8"/>
     <use xlink:href="#m40d3fc9b3e" x="151.789091" y="122.255124" style="fill-opacity: 0; stroke: #1f77b4; stroke-width: 0.8"/>
     <use xlink:href="#m40d3fc9b3e" x="152.55" y="122.56818" style="fill-opacity: 0; stroke: #1f77b4; stroke-width: 0.8"/>
     <use xlink:href="#m40d3fc9b3e" x="153.310909" y="122.959706" style="fill-opacity: 0; stroke: #1f77b4; stroke-width: 0.8"/>
     <use xlink:href="#m40d3fc9b3e" x="154.071818" y="121.700194" style="fill-opacity: 0; stroke: #1f77b4; stroke-width: 0.8"/>
     <use xlink:href="#m40d3fc9b3e" x="154.832727" y="121.677746" style="fill-opacity: 0; stroke: #1f77b4; stroke-width: 0.8"/>
     <use xlink:href="#m40d3fc9b3e" x="155.593636" y="122.029867" style="fill-opacity: 0; stroke: #1f77b4; stroke-width: 0.8"/>
     <use xlink:href="#m40d3fc9b3e" x="156.354545" y="121.662489" style="fill-opacity: 0; stroke: #1f77b4; stroke-width: 0.8"/>
     <use xlink:href="#m40d3fc9b3e" x="157.115455" y="121.606223" style="fill-opacity: 0; stroke: #1f77b4; stroke-width: 0.8"/>
     <use xlink:href="#m40d3fc9b3e" x="157.876364" y="121.63766" style="fill-opacity: 0; stroke: #1f77b4; stroke-width: 0.8"/>
     <use xlink:href="#m40d3fc9b3e" x="158.637273" y="122.000325" style="fill-opacity: 0; stroke: #1f77b4; stroke-width: 0.8"/>
     <use xlink:href="#m40d3fc9b3e" x="159.398182" y="121.982202" style="fill-opacity: 0; stroke: #1f77b4; stroke-width: 0.8"/>
     <use xlink:href="#m40d3fc9b3e" x="160.159091" y="122.129619" style="fill-opacity: 0; stroke: #1f77b4; stroke-width: 0.8"/>
     <use xlink:href="#m40d3fc9b3e" x="160.92" y="122.206535" style="fill-opacity: 0; stroke: #1f77b4; stroke-width: 0.8"/>
     <use xlink:href="#m40d3fc9b3e" x="161.680909" y="122.450547" style="fill-opacity: 0; stroke: #1f77b4; stroke-width: 0.8"/>
     <use xlink:href="#m40d3fc9b3e" x="162.441818" y="122.542039" style="fill-opacity: 0; stroke: #1f77b4; stroke-width: 0.8"/>
     <use xlink:href="#m40d3fc9b3e" x="163.202727" y="122.139726" style="fill-opacity: 0; stroke: #1f77b4; stroke-width: 0.8"/>
     <use xlink:href="#m40d3fc9b3e" x="163.963636" y="121.879097" style="fill-opacity: 0; stroke: #1f77b4; stroke-width: 0.8"/>
     <use xlink:href="#m40d3fc9b3e" x="164.724545" y="121.545002" style="fill-opacity: 0; stroke: #1f77b4; stroke-width: 0.8"/>
     <use xlink:href="#m40d3fc9b3e" x="165.485455" y="121.772008" style="fill-opacity: 0; stroke: #1f77b4; stroke-width: 0.8"/>
     <use xlink:href="#m40d3fc9b3e" x="166.246364" y="121.959851" style="fill-opacity: 0; stroke: #1f77b4; stroke-width: 0.8"/>
     <use xlink:href="#m40d3fc9b3e" x="167.007273" y="122.506521" style="fill-opacity: 0; stroke: #1f77b4; stroke-width: 0.8"/>
     <use xlink:href="#m40d3fc9b3e" x="167.768182" y="122.437185" style="fill-opacity: 0; stroke: #1f77b4; stroke-width: 0.8"/>
     <use xlink:href="#m40d3fc9b3e" x="168.529091" y="121.723808" style="fill-opacity: 0; stroke: #1f77b4; stroke-width: 0.8"/>
     <use xlink:href="#m40d3fc9b3e" x="169.29" y="122.123109" style="fill-opacity: 0; stroke: #1f77b4; stroke-width: 0.8"/>
     <use xlink:href="#m40d3fc9b3e" x="170.050909" y="122.977781" style="fill-opacity: 0; stroke: #1f77b4; stroke-width: 0.8"/>
     <use xlink:href="#m40d3fc9b3e" x="170.811818" y="122.031811" style="fill-opacity: 0; stroke: #1f77b4; stroke-width: 0.8"/>
     <use xlink:href="#m40d3fc9b3e" x="171.572727" y="122.023696" style="fill-opacity: 0; stroke: #1f77b4; stroke-width: 0.8"/>
     <use xlink:href="#m40d3fc9b3e" x="172.333636" y="122.622162" style="fill-opacity: 0; stroke: #1f77b4; stroke-width: 0.8"/>
     <use xlink:href="#m40d3fc9b3e" x="173.094545" y="122.745334" style="fill-opacity: 0; stroke: #1f77b4; stroke-width: 0.8"/>
     <use xlink:href="#m40d3fc9b3e" x="173.855455" y="122.17262" style="fill-opacity: 0; stroke: #1f77b4; stroke-width: 0.8"/>
     <use xlink:href="#m40d3fc9b3e" x="174.616364" y="123.063151" style="fill-opacity: 0; stroke: #1f77b4; stroke-width: 0.8"/>
     <use xlink:href="#m40d3fc9b3e" x="175.377273" y="122.308717" style="fill-opacity: 0; stroke: #1f77b4; stroke-width: 0.8"/>
     <use xlink:href="#m40d3fc9b3e" x="176.138182" y="122.136859" style="fill-opacity: 0; stroke: #1f77b4; stroke-width: 0.8"/>
     <use xlink:href="#m40d3fc9b3e" x="176.899091" y="121.718269" style="fill-opacity: 0; stroke: #1f77b4; stroke-width: 0.8"/>
     <use xlink:href="#m40d3fc9b3e" x="177.66" y="123.12" style="fill-opacity: 0; stroke: #1f77b4; stroke-width: 0.8"/>
     <use xlink:href="#m40d3fc9b3e" x="178.420909" y="122.597916" style="fill-opacity: 0; stroke: #1f77b4; stroke-width: 0.8"/>
     <use xlink:href="#m40d3fc9b3e" x="179.181818" y="122.005962" style="fill-opacity: 0; stroke: #1f77b4; stroke-width: 0.8"/>
     <use xlink:href="#m40d3fc9b3e" x="179.942727" y="122.172912" style="fill-opacity: 0; stroke: #1f77b4; stroke-width: 0.8"/>
     <use xlink:href="#m40d3fc9b3e" x="180.703636" y="122.970687" style="fill-opacity: 0; stroke: #1f77b4; stroke-width: 0.8"/>
     <use xlink:href="#m40d3fc9b3e" x="181.464545" y="122.533876" style="fill-opacity: 0; stroke: #1f77b4; stroke-width: 0.8"/>
     <use xlink:href="#m40d3fc9b3e" x="182.225455" y="122.514392" style="fill-opacity: 0; stroke: #1f77b4; stroke-width: 0.8"/>
     <use xlink:href="#m40d3fc9b3e" x="182.986364" y="122.661081" style="fill-opacity: 0; stroke: #1f77b4; stroke-width: 0.8"/>
     <use xlink:href="#m40d3fc9b3e" x="183.747273" y="122.077144" style="fill-opacity: 0; stroke: #1f77b4; stroke-width: 0.8"/>
     <use xlink:href="#m40d3fc9b3e" x="184.508182" y="122.931622" style="fill-opacity: 0; stroke: #1f77b4; stroke-width: 0.8"/>
     <use xlink:href="#m40d3fc9b3e" x="185.269091" y="122.416923" style="fill-opacity: 0; stroke: #1f77b4; stroke-width: 0.8"/>
     <use xlink:href="#m40d3fc9b3e" x="186.03" y="122.367703" style="fill-opacity: 0; stroke: #1f77b4; stroke-width: 0.8"/>
     <use xlink:href="#m40d3fc9b3e" x="186.790909" y="122.19327" style="fill-opacity: 0; stroke: #1f77b4; stroke-width: 0.8"/>
    </g>
   </g>
   <g id="line2d_11">
    <path d="M 34.609091 22.32 
L 35.37 32.538225 
L 36.130909 39.935482 
L 36.891818 45.86586 
L 38.413636 55.179252 
L 39.935455 62.412755 
L 41.457273 68.322169 
L 42.979091 73.297856 
L 44.500909 77.57303 
L 46.022727 81.300321 
L 47.544545 84.586095 
L 49.827273 88.85132 
L 52.11 92.4815 
L 54.392727 95.607249 
L 56.675455 98.323411 
L 58.958182 100.701251 
L 61.240909 102.795772 
L 63.523636 104.650353 
L 66.567273 106.809119 
L 69.610909 108.667901 
L 72.654545 110.277521 
L 76.459091 111.999626 
L 80.263636 113.456312 
L 84.068182 114.695325 
L 88.633636 115.94715 
L 93.96 117.146431 
L 99.286364 118.122229 
L 105.373636 119.022687 
L 112.221818 119.82313 
L 120.591818 120.571116 
L 130.483636 121.217775 
L 142.658182 121.77008 
L 157.876364 122.215488 
L 177.66 122.553167 
L 186.790909 122.652536 
L 186.790909 122.652536 
" clip-path="url(#pcda1eb8b2a)" style="fill: none; stroke: #ff7f0e; stroke-width: 2; stroke-linecap: square"/>
   </g>
   <g id="patch_3">
    <path d="M 27 128.16 
L 27 17.28 
" style="fill: none; stroke: #000000; stroke-width: 0.8; stroke-linejoin: miter; stroke-linecap: square"/>
   </g>
   <g id="patch_4">
    <path d="M 194.4 128.16 
L 194.4 17.28 
" style="fill: none; stroke: #000000; stroke-width: 0.8; stroke-linejoin: miter; stroke-linecap: square"/>
   </g>
   <g id="patch_5">
    <path d="M 27 128.16 
L 194.4 128.16 
" style="fill: none; stroke: #000000; stroke-width: 0.8; stroke-linejoin: miter; stroke-linecap: square"/>
   </g>
   <g id="patch_6">
    <path d="M 27 17.28 
L 194.4 17.28 
" style="fill: none; stroke: #000000; stroke-width: 0.8; stroke-linejoin: miter; stroke-linecap: square"/>
   </g>
  </g>
 </g>
 <defs>
  <clipPath id="pcda1eb8b2a">
   <rect x="27" y="17.28" width="167.4" height="110.88"/>
  </clipPath>
 </defs>
</svg>
