<?xml version="1.0" encoding="utf-8" standalone="no"?>
<!DOCTYPE svg PUBLIC "-//W3C//DTD SVG 1.1//EN"
  "http://www.w3.org/Graphics/SVG/1.1/DTD/svg11.dtd">
<svg xmlns:xlink="http://www.w3.org/1999/xlink" width="424.08pt" height="308.16pt" viewBox="0 0 424.08 308.16" xmlns="http://www.w3.org/2000/svg" version="1.1">
 <metadata>
  <rdf:RDF xmlns:dc="http://purl.org/dc/elements/1.1/" xmlns:cc="http://creativecommons.org/ns#" xmlns:rdf="http://www.w3.org/1999/02/22-rdf-syntax-ns#">
   <cc:Work>
    <dc:type rdf:resource="http://purl.org/dc/dcmitype/StillImage"/>
    <dc:date>2022-03-23T11:24:33.120218</dc:date>
    <dc:format>image/svg+xml</dc:format>
    <dc:creator>
     <cc:Agent>
      <dc:title>Matplotlib v3.5.1, https://matplotlib.org/</dc:title>
     </cc:Agent>
    </dc:creator>
   </cc:Work>
  </rdf:RDF>
 </metadata>
 <defs>
  <style type="text/css">*{stroke-linejoin: round; stroke-linecap: butt}</style>
 </defs>
 <g id="figure_1">
  <g id="patch_1">
   <path d="M 0 308.16 
L 424.08 308.16 
L 424.08 0 
L 0 0 
z
" style="fill: #ffffff"/>
  </g>
  <g id="axes_1">
   <g id="patch_2">
    <path d="M 53.01 274.2624 
L 381.672 274.2624 
L 381.672 36.9792 
L 53.01 36.9792 
z
" style="fill: #ffffff"/>
   </g>
   <g id="matplotlib.axis_1">
    <g id="xtick_1">
     <g id="line2d_1">
      <defs>
       <path id="m6e291f0e11" d="M 0 0 
L 0 3.5 
" style="stroke: #000000; stroke-width: 0.8"/>
      </defs>
      <g>
       <use xlink:href="#m6e291f0e11" x="67.949182" y="274.2624" style="stroke: #000000; stroke-width: 0.8"/>
      </g>
     </g>
     <g id="text_1">
      <!-- 2600 -->
      <g transform="translate(55.224182 288.860838)scale(0.1 -0.1)">
       <defs>
        <path id="DejaVuSans-32" d="M 1228 531 
L 3431 531 
L 3431 0 
L 469 0 
L 469 531 
Q 828 903 1448 1529 
Q 2069 2156 2228 2338 
Q 2531 2678 2651 2914 
Q 2772 3150 2772 3378 
Q 2772 3750 2511 3984 
Q 2250 4219 1831 4219 
Q 1534 4219 1204 4116 
Q 875 4013 500 3803 
L 500 4441 
Q 881 4594 1212 4672 
Q 1544 4750 1819 4750 
Q 2544 4750 2975 4387 
Q 3406 4025 3406 3419 
Q 3406 3131 3298 2873 
Q 3191 2616 2906 2266 
Q 2828 2175 2409 1742 
Q 1991 1309 1228 531 
z
" transform="scale(0.015625)"/>
        <path id="DejaVuSans-36" d="M 2113 2584 
Q 1688 2584 1439 2293 
Q 1191 2003 1191 1497 
Q 1191 994 1439 701 
Q 1688 409 2113 409 
Q 2538 409 2786 701 
Q 3034 994 3034 1497 
Q 3034 2003 2786 2293 
Q 2538 2584 2113 2584 
z
M 3366 4563 
L 3366 3988 
Q 3128 4100 2886 4159 
Q 2644 4219 2406 4219 
Q 1781 4219 1451 3797 
Q 1122 3375 1075 2522 
Q 1259 2794 1537 2939 
Q 1816 3084 2150 3084 
Q 2853 3084 3261 2657 
Q 3669 2231 3669 1497 
Q 3669 778 3244 343 
Q 2819 -91 2113 -91 
Q 1303 -91 875 529 
Q 447 1150 447 2328 
Q 447 3434 972 4092 
Q 1497 4750 2381 4750 
Q 2619 4750 2861 4703 
Q 3103 4656 3366 4563 
z
" transform="scale(0.015625)"/>
        <path id="DejaVuSans-30" d="M 2034 4250 
Q 1547 4250 1301 3770 
Q 1056 3291 1056 2328 
Q 1056 1369 1301 889 
Q 1547 409 2034 409 
Q 2525 409 2770 889 
Q 3016 1369 3016 2328 
Q 3016 3291 2770 3770 
Q 2525 4250 2034 4250 
z
M 2034 4750 
Q 2819 4750 3233 4129 
Q 3647 3509 3647 2328 
Q 3647 1150 3233 529 
Q 2819 -91 2034 -91 
Q 1250 -91 836 529 
Q 422 1150 422 2328 
Q 422 3509 836 4129 
Q 1250 4750 2034 4750 
z
" transform="scale(0.015625)"/>
       </defs>
       <use xlink:href="#DejaVuSans-32"/>
       <use xlink:href="#DejaVuSans-36" x="63.623047"/>
       <use xlink:href="#DejaVuSans-30" x="127.246094"/>
       <use xlink:href="#DejaVuSans-30" x="190.869141"/>
      </g>
     </g>
    </g>
    <g id="xtick_2">
     <g id="line2d_2">
      <g>
       <use xlink:href="#m6e291f0e11" x="117.746455" y="274.2624" style="stroke: #000000; stroke-width: 0.8"/>
      </g>
     </g>
     <g id="text_2">
      <!-- 2700 -->
      <g transform="translate(105.021455 288.860838)scale(0.1 -0.1)">
       <defs>
        <path id="DejaVuSans-37" d="M 525 4666 
L 3525 4666 
L 3525 4397 
L 1831 0 
L 1172 0 
L 2766 4134 
L 525 4134 
L 525 4666 
z
" transform="scale(0.015625)"/>
       </defs>
       <use xlink:href="#DejaVuSans-32"/>
       <use xlink:href="#DejaVuSans-37" x="63.623047"/>
       <use xlink:href="#DejaVuSans-30" x="127.246094"/>
       <use xlink:href="#DejaVuSans-30" x="190.869141"/>
      </g>
     </g>
    </g>
    <g id="xtick_3">
     <g id="line2d_3">
      <g>
       <use xlink:href="#m6e291f0e11" x="167.543727" y="274.2624" style="stroke: #000000; stroke-width: 0.8"/>
      </g>
     </g>
     <g id="text_3">
      <!-- 2800 -->
      <g transform="translate(154.818727 288.860838)scale(0.1 -0.1)">
       <defs>
        <path id="DejaVuSans-38" d="M 2034 2216 
Q 1584 2216 1326 1975 
Q 1069 1734 1069 1313 
Q 1069 891 1326 650 
Q 1584 409 2034 409 
Q 2484 409 2743 651 
Q 3003 894 3003 1313 
Q 3003 1734 2745 1975 
Q 2488 2216 2034 2216 
z
M 1403 2484 
Q 997 2584 770 2862 
Q 544 3141 544 3541 
Q 544 4100 942 4425 
Q 1341 4750 2034 4750 
Q 2731 4750 3128 4425 
Q 3525 4100 3525 3541 
Q 3525 3141 3298 2862 
Q 3072 2584 2669 2484 
Q 3125 2378 3379 2068 
Q 3634 1759 3634 1313 
Q 3634 634 3220 271 
Q 2806 -91 2034 -91 
Q 1263 -91 848 271 
Q 434 634 434 1313 
Q 434 1759 690 2068 
Q 947 2378 1403 2484 
z
M 1172 3481 
Q 1172 3119 1398 2916 
Q 1625 2713 2034 2713 
Q 2441 2713 2670 2916 
Q 2900 3119 2900 3481 
Q 2900 3844 2670 4047 
Q 2441 4250 2034 4250 
Q 1625 4250 1398 4047 
Q 1172 3844 1172 3481 
z
" transform="scale(0.015625)"/>
       </defs>
       <use xlink:href="#DejaVuSans-32"/>
       <use xlink:href="#DejaVuSans-38" x="63.623047"/>
       <use xlink:href="#DejaVuSans-30" x="127.246094"/>
       <use xlink:href="#DejaVuSans-30" x="190.869141"/>
      </g>
     </g>
    </g>
    <g id="xtick_4">
     <g id="line2d_4">
      <g>
       <use xlink:href="#m6e291f0e11" x="217.341" y="274.2624" style="stroke: #000000; stroke-width: 0.8"/>
      </g>
     </g>
     <g id="text_4">
      <!-- 2900 -->
      <g transform="translate(204.616 288.860838)scale(0.1 -0.1)">
       <defs>
        <path id="DejaVuSans-39" d="M 703 97 
L 703 672 
Q 941 559 1184 500 
Q 1428 441 1663 441 
Q 2288 441 2617 861 
Q 2947 1281 2994 2138 
Q 2813 1869 2534 1725 
Q 2256 1581 1919 1581 
Q 1219 1581 811 2004 
Q 403 2428 403 3163 
Q 403 3881 828 4315 
Q 1253 4750 1959 4750 
Q 2769 4750 3195 4129 
Q 3622 3509 3622 2328 
Q 3622 1225 3098 567 
Q 2575 -91 1691 -91 
Q 1453 -91 1209 -44 
Q 966 3 703 97 
z
M 1959 2075 
Q 2384 2075 2632 2365 
Q 2881 2656 2881 3163 
Q 2881 3666 2632 3958 
Q 2384 4250 1959 4250 
Q 1534 4250 1286 3958 
Q 1038 3666 1038 3163 
Q 1038 2656 1286 2365 
Q 1534 2075 1959 2075 
z
" transform="scale(0.015625)"/>
       </defs>
       <use xlink:href="#DejaVuSans-32"/>
       <use xlink:href="#DejaVuSans-39" x="63.623047"/>
       <use xlink:href="#DejaVuSans-30" x="127.246094"/>
       <use xlink:href="#DejaVuSans-30" x="190.869141"/>
      </g>
     </g>
    </g>
    <g id="xtick_5">
     <g id="line2d_5">
      <g>
       <use xlink:href="#m6e291f0e11" x="267.138273" y="274.2624" style="stroke: #000000; stroke-width: 0.8"/>
      </g>
     </g>
     <g id="text_5">
      <!-- 3000 -->
      <g transform="translate(254.413273 288.860838)scale(0.1 -0.1)">
       <defs>
        <path id="DejaVuSans-33" d="M 2597 2516 
Q 3050 2419 3304 2112 
Q 3559 1806 3559 1356 
Q 3559 666 3084 287 
Q 2609 -91 1734 -91 
Q 1441 -91 1130 -33 
Q 819 25 488 141 
L 488 750 
Q 750 597 1062 519 
Q 1375 441 1716 441 
Q 2309 441 2620 675 
Q 2931 909 2931 1356 
Q 2931 1769 2642 2001 
Q 2353 2234 1838 2234 
L 1294 2234 
L 1294 2753 
L 1863 2753 
Q 2328 2753 2575 2939 
Q 2822 3125 2822 3475 
Q 2822 3834 2567 4026 
Q 2313 4219 1838 4219 
Q 1578 4219 1281 4162 
Q 984 4106 628 3988 
L 628 4550 
Q 988 4650 1302 4700 
Q 1616 4750 1894 4750 
Q 2613 4750 3031 4423 
Q 3450 4097 3450 3541 
Q 3450 3153 3228 2886 
Q 3006 2619 2597 2516 
z
" transform="scale(0.015625)"/>
       </defs>
       <use xlink:href="#DejaVuSans-33"/>
       <use xlink:href="#DejaVuSans-30" x="63.623047"/>
       <use xlink:href="#DejaVuSans-30" x="127.246094"/>
       <use xlink:href="#DejaVuSans-30" x="190.869141"/>
      </g>
     </g>
    </g>
    <g id="xtick_6">
     <g id="line2d_6">
      <g>
       <use xlink:href="#m6e291f0e11" x="316.935545" y="274.2624" style="stroke: #000000; stroke-width: 0.8"/>
      </g>
     </g>
     <g id="text_6">
      <!-- 3100 -->
      <g transform="translate(304.210545 288.860838)scale(0.1 -0.1)">
       <defs>
        <path id="DejaVuSans-31" d="M 794 531 
L 1825 531 
L 1825 4091 
L 703 3866 
L 703 4441 
L 1819 4666 
L 2450 4666 
L 2450 531 
L 3481 531 
L 3481 0 
L 794 0 
L 794 531 
z
" transform="scale(0.015625)"/>
       </defs>
       <use xlink:href="#DejaVuSans-33"/>
       <use xlink:href="#DejaVuSans-31" x="63.623047"/>
       <use xlink:href="#DejaVuSans-30" x="127.246094"/>
       <use xlink:href="#DejaVuSans-30" x="190.869141"/>
      </g>
     </g>
    </g>
    <g id="xtick_7">
     <g id="line2d_7">
      <g>
       <use xlink:href="#m6e291f0e11" x="366.732818" y="274.2624" style="stroke: #000000; stroke-width: 0.8"/>
      </g>
     </g>
     <g id="text_7">
      <!-- 3200 -->
      <g transform="translate(354.007818 288.860838)scale(0.1 -0.1)">
       <use xlink:href="#DejaVuSans-33"/>
       <use xlink:href="#DejaVuSans-32" x="63.623047"/>
       <use xlink:href="#DejaVuSans-30" x="127.246094"/>
       <use xlink:href="#DejaVuSans-30" x="190.869141"/>
      </g>
     </g>
    </g>
    <g id="text_8">
     <!-- Frequency (MHz) -->
     <g transform="translate(154.312875 306.338181)scale(0.15 -0.15)">
      <defs>
       <path id="DejaVuSans-46" d="M 628 4666 
L 3309 4666 
L 3309 4134 
L 1259 4134 
L 1259 2759 
L 3109 2759 
L 3109 2228 
L 1259 2228 
L 1259 0 
L 628 0 
L 628 4666 
z
" transform="scale(0.015625)"/>
       <path id="DejaVuSans-72" d="M 2631 2963 
Q 2534 3019 2420 3045 
Q 2306 3072 2169 3072 
Q 1681 3072 1420 2755 
Q 1159 2438 1159 1844 
L 1159 0 
L 581 0 
L 581 3500 
L 1159 3500 
L 1159 2956 
Q 1341 3275 1631 3429 
Q 1922 3584 2338 3584 
Q 2397 3584 2469 3576 
Q 2541 3569 2628 3553 
L 2631 2963 
z
" transform="scale(0.015625)"/>
       <path id="DejaVuSans-65" d="M 3597 1894 
L 3597 1613 
L 953 1613 
Q 991 1019 1311 708 
Q 1631 397 2203 397 
Q 2534 397 2845 478 
Q 3156 559 3463 722 
L 3463 178 
Q 3153 47 2828 -22 
Q 2503 -91 2169 -91 
Q 1331 -91 842 396 
Q 353 884 353 1716 
Q 353 2575 817 3079 
Q 1281 3584 2069 3584 
Q 2775 3584 3186 3129 
Q 3597 2675 3597 1894 
z
M 3022 2063 
Q 3016 2534 2758 2815 
Q 2500 3097 2075 3097 
Q 1594 3097 1305 2825 
Q 1016 2553 972 2059 
L 3022 2063 
z
" transform="scale(0.015625)"/>
       <path id="DejaVuSans-71" d="M 947 1747 
Q 947 1113 1208 752 
Q 1469 391 1925 391 
Q 2381 391 2643 752 
Q 2906 1113 2906 1747 
Q 2906 2381 2643 2742 
Q 2381 3103 1925 3103 
Q 1469 3103 1208 2742 
Q 947 2381 947 1747 
z
M 2906 525 
Q 2725 213 2448 61 
Q 2172 -91 1784 -91 
Q 1150 -91 751 415 
Q 353 922 353 1747 
Q 353 2572 751 3078 
Q 1150 3584 1784 3584 
Q 2172 3584 2448 3432 
Q 2725 3281 2906 2969 
L 2906 3500 
L 3481 3500 
L 3481 -1331 
L 2906 -1331 
L 2906 525 
z
" transform="scale(0.015625)"/>
       <path id="DejaVuSans-75" d="M 544 1381 
L 544 3500 
L 1119 3500 
L 1119 1403 
Q 1119 906 1312 657 
Q 1506 409 1894 409 
Q 2359 409 2629 706 
Q 2900 1003 2900 1516 
L 2900 3500 
L 3475 3500 
L 3475 0 
L 2900 0 
L 2900 538 
Q 2691 219 2414 64 
Q 2138 -91 1772 -91 
Q 1169 -91 856 284 
Q 544 659 544 1381 
z
M 1991 3584 
L 1991 3584 
z
" transform="scale(0.015625)"/>
       <path id="DejaVuSans-6e" d="M 3513 2113 
L 3513 0 
L 2938 0 
L 2938 2094 
Q 2938 2591 2744 2837 
Q 2550 3084 2163 3084 
Q 1697 3084 1428 2787 
Q 1159 2491 1159 1978 
L 1159 0 
L 581 0 
L 581 3500 
L 1159 3500 
L 1159 2956 
Q 1366 3272 1645 3428 
Q 1925 3584 2291 3584 
Q 2894 3584 3203 3211 
Q 3513 2838 3513 2113 
z
" transform="scale(0.015625)"/>
       <path id="DejaVuSans-63" d="M 3122 3366 
L 3122 2828 
Q 2878 2963 2633 3030 
Q 2388 3097 2138 3097 
Q 1578 3097 1268 2742 
Q 959 2388 959 1747 
Q 959 1106 1268 751 
Q 1578 397 2138 397 
Q 2388 397 2633 464 
Q 2878 531 3122 666 
L 3122 134 
Q 2881 22 2623 -34 
Q 2366 -91 2075 -91 
Q 1284 -91 818 406 
Q 353 903 353 1747 
Q 353 2603 823 3093 
Q 1294 3584 2113 3584 
Q 2378 3584 2631 3529 
Q 2884 3475 3122 3366 
z
" transform="scale(0.015625)"/>
       <path id="DejaVuSans-79" d="M 2059 -325 
Q 1816 -950 1584 -1140 
Q 1353 -1331 966 -1331 
L 506 -1331 
L 506 -850 
L 844 -850 
Q 1081 -850 1212 -737 
Q 1344 -625 1503 -206 
L 1606 56 
L 191 3500 
L 800 3500 
L 1894 763 
L 2988 3500 
L 3597 3500 
L 2059 -325 
z
" transform="scale(0.015625)"/>
       <path id="DejaVuSans-20" transform="scale(0.015625)"/>
       <path id="DejaVuSans-28" d="M 1984 4856 
Q 1566 4138 1362 3434 
Q 1159 2731 1159 2009 
Q 1159 1288 1364 580 
Q 1569 -128 1984 -844 
L 1484 -844 
Q 1016 -109 783 600 
Q 550 1309 550 2009 
Q 550 2706 781 3412 
Q 1013 4119 1484 4856 
L 1984 4856 
z
" transform="scale(0.015625)"/>
       <path id="DejaVuSans-4d" d="M 628 4666 
L 1569 4666 
L 2759 1491 
L 3956 4666 
L 4897 4666 
L 4897 0 
L 4281 0 
L 4281 4097 
L 3078 897 
L 2444 897 
L 1241 4097 
L 1241 0 
L 628 0 
L 628 4666 
z
" transform="scale(0.015625)"/>
       <path id="DejaVuSans-48" d="M 628 4666 
L 1259 4666 
L 1259 2753 
L 3553 2753 
L 3553 4666 
L 4184 4666 
L 4184 0 
L 3553 0 
L 3553 2222 
L 1259 2222 
L 1259 0 
L 628 0 
L 628 4666 
z
" transform="scale(0.015625)"/>
       <path id="DejaVuSans-7a" d="M 353 3500 
L 3084 3500 
L 3084 2975 
L 922 459 
L 3084 459 
L 3084 0 
L 275 0 
L 275 525 
L 2438 3041 
L 353 3041 
L 353 3500 
z
" transform="scale(0.015625)"/>
       <path id="DejaVuSans-29" d="M 513 4856 
L 1013 4856 
Q 1481 4119 1714 3412 
Q 1947 2706 1947 2009 
Q 1947 1309 1714 600 
Q 1481 -109 1013 -844 
L 513 -844 
Q 928 -128 1133 580 
Q 1338 1288 1338 2009 
Q 1338 2731 1133 3434 
Q 928 4138 513 4856 
z
" transform="scale(0.015625)"/>
      </defs>
      <use xlink:href="#DejaVuSans-46"/>
      <use xlink:href="#DejaVuSans-72" x="50.269531"/>
      <use xlink:href="#DejaVuSans-65" x="89.132812"/>
      <use xlink:href="#DejaVuSans-71" x="150.65625"/>
      <use xlink:href="#DejaVuSans-75" x="214.132812"/>
      <use xlink:href="#DejaVuSans-65" x="277.511719"/>
      <use xlink:href="#DejaVuSans-6e" x="339.035156"/>
      <use xlink:href="#DejaVuSans-63" x="402.414062"/>
      <use xlink:href="#DejaVuSans-79" x="457.394531"/>
      <use xlink:href="#DejaVuSans-20" x="516.574219"/>
      <use xlink:href="#DejaVuSans-28" x="548.361328"/>
      <use xlink:href="#DejaVuSans-4d" x="587.375"/>
      <use xlink:href="#DejaVuSans-48" x="673.654297"/>
      <use xlink:href="#DejaVuSans-7a" x="748.849609"/>
      <use xlink:href="#DejaVuSans-29" x="801.339844"/>
     </g>
    </g>
   </g>
   <g id="matplotlib.axis_2">
    <g id="ytick_1">
     <g id="line2d_8">
      <defs>
       <path id="mde1b2a2953" d="M 0 0 
L -3.5 0 
" style="stroke: #000000; stroke-width: 0.8"/>
      </defs>
      <g>
       <use xlink:href="#mde1b2a2953" x="53.01" y="257.335819" style="stroke: #000000; stroke-width: 0.8"/>
      </g>
     </g>
     <g id="text_9">
      <!-- 0.00 -->
      <g transform="translate(23.744375 261.135038)scale(0.1 -0.1)">
       <defs>
        <path id="DejaVuSans-2e" d="M 684 794 
L 1344 794 
L 1344 0 
L 684 0 
L 684 794 
z
" transform="scale(0.015625)"/>
       </defs>
       <use xlink:href="#DejaVuSans-30"/>
       <use xlink:href="#DejaVuSans-2e" x="63.623047"/>
       <use xlink:href="#DejaVuSans-30" x="95.410156"/>
       <use xlink:href="#DejaVuSans-30" x="159.033203"/>
      </g>
     </g>
    </g>
    <g id="ytick_2">
     <g id="line2d_9">
      <g>
       <use xlink:href="#mde1b2a2953" x="53.01" y="210.071031" style="stroke: #000000; stroke-width: 0.8"/>
      </g>
     </g>
     <g id="text_10">
      <!-- 0.05 -->
      <g transform="translate(23.744375 213.870249)scale(0.1 -0.1)">
       <defs>
        <path id="DejaVuSans-35" d="M 691 4666 
L 3169 4666 
L 3169 4134 
L 1269 4134 
L 1269 2991 
Q 1406 3038 1543 3061 
Q 1681 3084 1819 3084 
Q 2600 3084 3056 2656 
Q 3513 2228 3513 1497 
Q 3513 744 3044 326 
Q 2575 -91 1722 -91 
Q 1428 -91 1123 -41 
Q 819 9 494 109 
L 494 744 
Q 775 591 1075 516 
Q 1375 441 1709 441 
Q 2250 441 2565 725 
Q 2881 1009 2881 1497 
Q 2881 1984 2565 2268 
Q 2250 2553 1709 2553 
Q 1456 2553 1204 2497 
Q 953 2441 691 2322 
L 691 4666 
z
" transform="scale(0.015625)"/>
       </defs>
       <use xlink:href="#DejaVuSans-30"/>
       <use xlink:href="#DejaVuSans-2e" x="63.623047"/>
       <use xlink:href="#DejaVuSans-30" x="95.410156"/>
       <use xlink:href="#DejaVuSans-35" x="159.033203"/>
      </g>
     </g>
    </g>
    <g id="ytick_3">
     <g id="line2d_10">
      <g>
       <use xlink:href="#mde1b2a2953" x="53.01" y="162.806242" style="stroke: #000000; stroke-width: 0.8"/>
      </g>
     </g>
     <g id="text_11">
      <!-- 0.10 -->
      <g transform="translate(23.744375 166.605461)scale(0.1 -0.1)">
       <use xlink:href="#DejaVuSans-30"/>
       <use xlink:href="#DejaVuSans-2e" x="63.623047"/>
       <use xlink:href="#DejaVuSans-31" x="95.410156"/>
       <use xlink:href="#DejaVuSans-30" x="159.033203"/>
      </g>
     </g>
    </g>
    <g id="ytick_4">
     <g id="line2d_11">
      <g>
       <use xlink:href="#mde1b2a2953" x="53.01" y="115.541454" style="stroke: #000000; stroke-width: 0.8"/>
      </g>
     </g>
     <g id="text_12">
      <!-- 0.15 -->
      <g transform="translate(23.744375 119.340672)scale(0.1 -0.1)">
       <use xlink:href="#DejaVuSans-30"/>
       <use xlink:href="#DejaVuSans-2e" x="63.623047"/>
       <use xlink:href="#DejaVuSans-31" x="95.410156"/>
       <use xlink:href="#DejaVuSans-35" x="159.033203"/>
      </g>
     </g>
    </g>
    <g id="ytick_5">
     <g id="line2d_12">
      <g>
       <use xlink:href="#mde1b2a2953" x="53.01" y="68.276665" style="stroke: #000000; stroke-width: 0.8"/>
      </g>
     </g>
     <g id="text_13">
      <!-- 0.20 -->
      <g transform="translate(23.744375 72.075884)scale(0.1 -0.1)">
       <use xlink:href="#DejaVuSans-30"/>
       <use xlink:href="#DejaVuSans-2e" x="63.623047"/>
       <use xlink:href="#DejaVuSans-32" x="95.410156"/>
       <use xlink:href="#DejaVuSans-30" x="159.033203"/>
      </g>
     </g>
    </g>
    <g id="text_14">
     <!-- Signal (A.U) -->
     <g transform="translate(16.624844 199.767675)rotate(-90)scale(0.15 -0.15)">
      <defs>
       <path id="DejaVuSans-53" d="M 3425 4513 
L 3425 3897 
Q 3066 4069 2747 4153 
Q 2428 4238 2131 4238 
Q 1616 4238 1336 4038 
Q 1056 3838 1056 3469 
Q 1056 3159 1242 3001 
Q 1428 2844 1947 2747 
L 2328 2669 
Q 3034 2534 3370 2195 
Q 3706 1856 3706 1288 
Q 3706 609 3251 259 
Q 2797 -91 1919 -91 
Q 1588 -91 1214 -16 
Q 841 59 441 206 
L 441 856 
Q 825 641 1194 531 
Q 1563 422 1919 422 
Q 2459 422 2753 634 
Q 3047 847 3047 1241 
Q 3047 1584 2836 1778 
Q 2625 1972 2144 2069 
L 1759 2144 
Q 1053 2284 737 2584 
Q 422 2884 422 3419 
Q 422 4038 858 4394 
Q 1294 4750 2059 4750 
Q 2388 4750 2728 4690 
Q 3069 4631 3425 4513 
z
" transform="scale(0.015625)"/>
       <path id="DejaVuSans-69" d="M 603 3500 
L 1178 3500 
L 1178 0 
L 603 0 
L 603 3500 
z
M 603 4863 
L 1178 4863 
L 1178 4134 
L 603 4134 
L 603 4863 
z
" transform="scale(0.015625)"/>
       <path id="DejaVuSans-67" d="M 2906 1791 
Q 2906 2416 2648 2759 
Q 2391 3103 1925 3103 
Q 1463 3103 1205 2759 
Q 947 2416 947 1791 
Q 947 1169 1205 825 
Q 1463 481 1925 481 
Q 2391 481 2648 825 
Q 2906 1169 2906 1791 
z
M 3481 434 
Q 3481 -459 3084 -895 
Q 2688 -1331 1869 -1331 
Q 1566 -1331 1297 -1286 
Q 1028 -1241 775 -1147 
L 775 -588 
Q 1028 -725 1275 -790 
Q 1522 -856 1778 -856 
Q 2344 -856 2625 -561 
Q 2906 -266 2906 331 
L 2906 616 
Q 2728 306 2450 153 
Q 2172 0 1784 0 
Q 1141 0 747 490 
Q 353 981 353 1791 
Q 353 2603 747 3093 
Q 1141 3584 1784 3584 
Q 2172 3584 2450 3431 
Q 2728 3278 2906 2969 
L 2906 3500 
L 3481 3500 
L 3481 434 
z
" transform="scale(0.015625)"/>
       <path id="DejaVuSans-61" d="M 2194 1759 
Q 1497 1759 1228 1600 
Q 959 1441 959 1056 
Q 959 750 1161 570 
Q 1363 391 1709 391 
Q 2188 391 2477 730 
Q 2766 1069 2766 1631 
L 2766 1759 
L 2194 1759 
z
M 3341 1997 
L 3341 0 
L 2766 0 
L 2766 531 
Q 2569 213 2275 61 
Q 1981 -91 1556 -91 
Q 1019 -91 701 211 
Q 384 513 384 1019 
Q 384 1609 779 1909 
Q 1175 2209 1959 2209 
L 2766 2209 
L 2766 2266 
Q 2766 2663 2505 2880 
Q 2244 3097 1772 3097 
Q 1472 3097 1187 3025 
Q 903 2953 641 2809 
L 641 3341 
Q 956 3463 1253 3523 
Q 1550 3584 1831 3584 
Q 2591 3584 2966 3190 
Q 3341 2797 3341 1997 
z
" transform="scale(0.015625)"/>
       <path id="DejaVuSans-6c" d="M 603 4863 
L 1178 4863 
L 1178 0 
L 603 0 
L 603 4863 
z
" transform="scale(0.015625)"/>
       <path id="DejaVuSans-41" d="M 2188 4044 
L 1331 1722 
L 3047 1722 
L 2188 4044 
z
M 1831 4666 
L 2547 4666 
L 4325 0 
L 3669 0 
L 3244 1197 
L 1141 1197 
L 716 0 
L 50 0 
L 1831 4666 
z
" transform="scale(0.015625)"/>
       <path id="DejaVuSans-55" d="M 556 4666 
L 1191 4666 
L 1191 1831 
Q 1191 1081 1462 751 
Q 1734 422 2344 422 
Q 2950 422 3222 751 
Q 3494 1081 3494 1831 
L 3494 4666 
L 4128 4666 
L 4128 1753 
Q 4128 841 3676 375 
Q 3225 -91 2344 -91 
Q 1459 -91 1007 375 
Q 556 841 556 1753 
L 556 4666 
z
" transform="scale(0.015625)"/>
      </defs>
      <use xlink:href="#DejaVuSans-53"/>
      <use xlink:href="#DejaVuSans-69" x="63.476562"/>
      <use xlink:href="#DejaVuSans-67" x="91.259766"/>
      <use xlink:href="#DejaVuSans-6e" x="154.736328"/>
      <use xlink:href="#DejaVuSans-61" x="218.115234"/>
      <use xlink:href="#DejaVuSans-6c" x="279.394531"/>
      <use xlink:href="#DejaVuSans-20" x="307.177734"/>
      <use xlink:href="#DejaVuSans-28" x="338.964844"/>
      <use xlink:href="#DejaVuSans-41" x="377.978516"/>
      <use xlink:href="#DejaVuSans-2e" x="444.636719"/>
      <use xlink:href="#DejaVuSans-55" x="476.423828"/>
      <use xlink:href="#DejaVuSans-29" x="549.617188"/>
     </g>
    </g>
   </g>
   <g id="line2d_13">
    <path d="M 67.949182 262.998043 
L 68.945127 263.283606 
L 70.937018 262.312591 
L 71.932964 262.157639 
L 73.924855 263.4768 
L 74.9208 262.991802 
L 77.908636 262.178922 
L 78.904582 262.531768 
L 79.900527 262.67133 
L 81.892418 263.395321 
L 82.888364 263.225275 
L 83.884309 262.797763 
L 85.8762 262.466326 
L 86.872145 262.111914 
L 87.868091 262.214005 
L 88.864036 261.959746 
L 89.859982 262.192697 
L 90.855927 262.601835 
L 91.851873 263.213142 
L 92.847818 263.031162 
L 93.843764 262.10796 
L 94.839709 261.944653 
L 95.835655 262.659967 
L 96.8316 262.859103 
L 97.827545 262.757508 
L 98.823491 262.956023 
L 100.815382 262.221962 
L 101.811327 261.366241 
L 102.807273 261.086024 
L 103.803218 261.565004 
L 104.799164 262.409437 
L 106.791055 262.843985 
L 107.787 262.224647 
L 108.782945 261.171978 
L 109.778891 260.799167 
L 110.774836 260.900936 
L 111.770782 262.225368 
L 113.762673 262.178375 
L 114.758618 262.720759 
L 115.754564 262.392455 
L 117.746455 262.446534 
L 119.738345 261.84092 
L 120.734291 261.064814 
L 122.726182 260.980252 
L 123.722127 260.506493 
L 124.718073 260.798396 
L 125.714018 259.51397 
L 126.709964 254.390711 
L 127.705909 245.649461 
L 128.701855 232.333975 
L 129.6978 205.856541 
L 130.693745 164.140243 
L 131.689691 127.803332 
L 132.685636 116.924874 
L 133.681582 140.430951 
L 134.677527 178.188792 
L 135.673473 211.072741 
L 136.669418 233.043769 
L 137.665364 246.616597 
L 138.661309 254.78212 
L 139.657255 258.280788 
L 140.6532 259.54137 
L 141.649145 261.150745 
L 142.645091 261.050219 
L 143.641036 260.460643 
L 144.636982 260.749986 
L 145.632927 260.622583 
L 146.628873 259.241311 
L 147.624818 255.518593 
L 148.620764 247.614664 
L 149.616709 233.527498 
L 150.612655 204.478054 
L 152.604545 95.213583 
L 153.600491 72.963217 
L 154.596436 88.881686 
L 157.584273 210.979352 
L 158.580218 234.081867 
L 159.576164 247.329499 
L 160.572109 253.928066 
L 161.568055 257.027243 
L 162.564 254.454959 
L 163.559945 247.855497 
L 164.555891 238.571018 
L 165.551836 219.383345 
L 167.543727 135.038739 
L 168.539673 120.292034 
L 169.535618 146.180235 
L 170.531564 187.42195 
L 171.527509 218.783699 
L 172.523455 238.127718 
L 173.5194 249.446746 
L 174.515345 254.782593 
L 175.511291 258.168403 
L 176.507236 260.901806 
L 177.503182 261.710807 
L 178.499127 261.912007 
L 179.495073 261.346673 
L 180.491018 259.713255 
L 181.486964 256.148324 
L 182.482909 250.886274 
L 183.478855 241.610274 
L 184.4748 225.583589 
L 185.470745 191.946334 
L 187.462636 70.334468 
L 188.458582 47.7648 
L 189.454527 71.795503 
L 191.446418 173.088732 
L 192.442364 211.120704 
L 193.438309 234.515048 
L 194.434255 247.155127 
L 195.4302 254.517443 
L 196.426145 258.409659 
L 197.422091 260.38165 
L 198.418036 261.223994 
L 200.409927 261.911932 
L 202.401818 261.055963 
L 203.397764 261.102334 
L 205.389655 261.780998 
L 206.3856 261.697455 
L 207.381545 261.902409 
L 209.373436 261.517216 
L 212.361273 261.99468 
L 213.357218 261.808871 
L 214.353164 261.038658 
L 216.345055 262.367317 
L 217.341 262.145356 
L 218.336945 261.496951 
L 219.332891 261.122773 
L 220.328836 260.98791 
L 222.320727 261.507991 
L 224.312618 261.586934 
L 226.304509 260.79402 
L 227.300455 260.288883 
L 228.2964 259.010349 
L 229.292345 256.260138 
L 230.288291 252.623897 
L 231.284236 246.691861 
L 232.280182 236.392755 
L 233.276127 214.479287 
L 235.268018 117.509452 
L 236.263964 89.811973 
L 237.259909 97.684097 
L 238.255855 134.547078 
L 239.2518 177.761603 
L 240.247745 211.307059 
L 241.243691 233.433438 
L 242.239636 246.43877 
L 243.235582 254.305551 
L 244.231527 259.344596 
L 245.227473 261.958378 
L 246.223418 262.076681 
L 247.219364 260.940569 
L 248.215309 257.179809 
L 249.211255 250.138115 
L 250.2072 238.520544 
L 251.203145 218.417949 
L 252.199091 177.429097 
L 253.195036 129.214117 
L 254.190982 104.806969 
L 255.186927 126.994829 
L 256.182873 172.114261 
L 257.178818 209.790155 
L 258.174764 231.680847 
L 259.170709 242.363554 
L 260.166655 244.958663 
L 261.1626 239.614487 
L 262.158545 225.680385 
L 263.154491 193.42281 
L 264.150436 139.493304 
L 265.146382 95.080759 
L 266.142327 81.240872 
L 267.138273 108.618524 
L 268.134218 157.036416 
L 269.130164 198.912638 
L 270.126109 226.811922 
L 271.122055 244.23512 
L 272.118 254.088513 
L 273.113945 258.782619 
L 274.109891 259.924326 
L 275.105836 258.417466 
L 276.101782 256.162397 
L 277.097727 251.459564 
L 278.093673 241.881043 
L 279.089618 221.76517 
L 281.081509 132.568697 
L 282.077455 111.032572 
L 283.0734 124.287087 
L 285.065291 195.617035 
L 286.061236 222.811946 
L 287.057182 240.511308 
L 288.053127 251.671853 
L 289.049073 257.216309 
L 290.045018 259.553927 
L 291.040964 260.570393 
L 292.036909 260.875201 
L 293.032855 261.393467 
L 294.0288 262.271615 
L 295.024745 262.098263 
L 297.016636 260.295695 
L 299.008527 262.45638 
L 301.000418 262.201822 
L 301.996364 262.641642 
L 303.988255 261.598173 
L 304.9842 261.698574 
L 305.980145 261.930158 
L 306.976091 262.382733 
L 307.972036 262.500613 
L 308.967982 262.141203 
L 309.963927 262.020116 
L 310.959873 262.080809 
L 311.955818 262.420427 
L 312.951764 262.428607 
L 313.947709 261.837539 
L 315.9396 262.102614 
L 316.935545 262.180787 
L 318.927436 260.890741 
L 319.923382 261.252488 
L 320.919327 262.06405 
L 321.915273 262.622049 
L 322.911218 262.206521 
L 323.907164 262.343099 
L 324.903109 262.180016 
L 327.890945 262.91266 
L 328.886891 263.415386 
L 329.882836 262.766758 
L 332.870673 261.301943 
L 334.862564 261.175161 
L 335.858509 261.393467 
L 336.854455 261.915736 
L 338.846345 262.0321 
L 339.842291 262.290089 
L 340.838236 261.710235 
L 341.834182 261.896566 
L 342.830127 263.297307 
L 343.826073 263.325776 
L 347.809855 261.951118 
L 348.8058 262.27067 
L 349.801745 263.134944 
L 350.797691 263.190093 
L 351.793636 262.813055 
L 352.789582 262.190882 
L 353.785527 262.068775 
L 354.781473 262.114872 
L 355.777418 262.046621 
L 356.773364 262.332557 
L 357.769309 262.904902 
L 358.765255 262.153611 
L 359.7612 261.101389 
L 360.757145 260.949868 
L 361.753091 262.300035 
L 363.744982 262.592709 
L 364.740927 263.085167 
L 365.736873 262.691345 
L 366.732818 261.761231 
L 366.732818 261.761231 
" clip-path="url(#p031c401137)" style="fill: none; stroke: #1f77b4; stroke-width: 1.5; stroke-linecap: square"/>
    <defs>
     <path id="m86235cc1ce" d="M 0 3 
C 0.795609 3 1.55874 2.683901 2.12132 2.12132 
C 2.683901 1.55874 3 0.795609 3 0 
C 3 -0.795609 2.683901 -1.55874 2.12132 -2.12132 
C 1.55874 -2.683901 0.795609 -3 0 -3 
C -0.795609 -3 -1.55874 -2.683901 -2.12132 -2.12132 
C -2.683901 -1.55874 -3 -0.795609 -3 0 
C -3 0.795609 -2.683901 1.55874 -2.12132 2.12132 
C -1.55874 2.683901 -0.795609 3 0 3 
z
" style="stroke: #1f77b4"/>
    </defs>
    <g clip-path="url(#p031c401137)">
     <use xlink:href="#m86235cc1ce" x="67.949182" y="262.998043" style="fill-opacity: 0; stroke: #1f77b4"/>
     <use xlink:href="#m86235cc1ce" x="68.945127" y="263.283606" style="fill-opacity: 0; stroke: #1f77b4"/>
     <use xlink:href="#m86235cc1ce" x="69.941073" y="262.741745" style="fill-opacity: 0; stroke: #1f77b4"/>
     <use xlink:href="#m86235cc1ce" x="70.937018" y="262.312591" style="fill-opacity: 0; stroke: #1f77b4"/>
     <use xlink:href="#m86235cc1ce" x="71.932964" y="262.157639" style="fill-opacity: 0; stroke: #1f77b4"/>
     <use xlink:href="#m86235cc1ce" x="72.928909" y="262.864374" style="fill-opacity: 0; stroke: #1f77b4"/>
     <use xlink:href="#m86235cc1ce" x="73.924855" y="263.4768" style="fill-opacity: 0; stroke: #1f77b4"/>
     <use xlink:href="#m86235cc1ce" x="74.9208" y="262.991802" style="fill-opacity: 0; stroke: #1f77b4"/>
     <use xlink:href="#m86235cc1ce" x="75.916745" y="262.725135" style="fill-opacity: 0; stroke: #1f77b4"/>
     <use xlink:href="#m86235cc1ce" x="76.912691" y="262.42065" style="fill-opacity: 0; stroke: #1f77b4"/>
     <use xlink:href="#m86235cc1ce" x="77.908636" y="262.178922" style="fill-opacity: 0; stroke: #1f77b4"/>
     <use xlink:href="#m86235cc1ce" x="78.904582" y="262.531768" style="fill-opacity: 0; stroke: #1f77b4"/>
     <use xlink:href="#m86235cc1ce" x="79.900527" y="262.67133" style="fill-opacity: 0; stroke: #1f77b4"/>
     <use xlink:href="#m86235cc1ce" x="80.896473" y="263.053341" style="fill-opacity: 0; stroke: #1f77b4"/>
     <use xlink:href="#m86235cc1ce" x="81.892418" y="263.395321" style="fill-opacity: 0; stroke: #1f77b4"/>
     <use xlink:href="#m86235cc1ce" x="82.888364" y="263.225275" style="fill-opacity: 0; stroke: #1f77b4"/>
     <use xlink:href="#m86235cc1ce" x="83.884309" y="262.797763" style="fill-opacity: 0; stroke: #1f77b4"/>
     <use xlink:href="#m86235cc1ce" x="84.880255" y="262.622969" style="fill-opacity: 0; stroke: #1f77b4"/>
     <use xlink:href="#m86235cc1ce" x="85.8762" y="262.466326" style="fill-opacity: 0; stroke: #1f77b4"/>
     <use xlink:href="#m86235cc1ce" x="86.872145" y="262.111914" style="fill-opacity: 0; stroke: #1f77b4"/>
     <use xlink:href="#m86235cc1ce" x="87.868091" y="262.214005" style="fill-opacity: 0; stroke: #1f77b4"/>
     <use xlink:href="#m86235cc1ce" x="88.864036" y="261.959746" style="fill-opacity: 0; stroke: #1f77b4"/>
     <use xlink:href="#m86235cc1ce" x="89.859982" y="262.192697" style="fill-opacity: 0; stroke: #1f77b4"/>
     <use xlink:href="#m86235cc1ce" x="90.855927" y="262.601835" style="fill-opacity: 0; stroke: #1f77b4"/>
     <use xlink:href="#m86235cc1ce" x="91.851873" y="263.213142" style="fill-opacity: 0; stroke: #1f77b4"/>
     <use xlink:href="#m86235cc1ce" x="92.847818" y="263.031162" style="fill-opacity: 0; stroke: #1f77b4"/>
     <use xlink:href="#m86235cc1ce" x="93.843764" y="262.10796" style="fill-opacity: 0; stroke: #1f77b4"/>
     <use xlink:href="#m86235cc1ce" x="94.839709" y="261.944653" style="fill-opacity: 0; stroke: #1f77b4"/>
     <use xlink:href="#m86235cc1ce" x="95.835655" y="262.659967" style="fill-opacity: 0; stroke: #1f77b4"/>
     <use xlink:href="#m86235cc1ce" x="96.8316" y="262.859103" style="fill-opacity: 0; stroke: #1f77b4"/>
     <use xlink:href="#m86235cc1ce" x="97.827545" y="262.757508" style="fill-opacity: 0; stroke: #1f77b4"/>
     <use xlink:href="#m86235cc1ce" x="98.823491" y="262.956023" style="fill-opacity: 0; stroke: #1f77b4"/>
     <use xlink:href="#m86235cc1ce" x="99.819436" y="262.605887" style="fill-opacity: 0; stroke: #1f77b4"/>
     <use xlink:href="#m86235cc1ce" x="100.815382" y="262.221962" style="fill-opacity: 0; stroke: #1f77b4"/>
     <use xlink:href="#m86235cc1ce" x="101.811327" y="261.366241" style="fill-opacity: 0; stroke: #1f77b4"/>
     <use xlink:href="#m86235cc1ce" x="102.807273" y="261.086024" style="fill-opacity: 0; stroke: #1f77b4"/>
     <use xlink:href="#m86235cc1ce" x="103.803218" y="261.565004" style="fill-opacity: 0; stroke: #1f77b4"/>
     <use xlink:href="#m86235cc1ce" x="104.799164" y="262.409437" style="fill-opacity: 0; stroke: #1f77b4"/>
     <use xlink:href="#m86235cc1ce" x="105.795109" y="262.582565" style="fill-opacity: 0; stroke: #1f77b4"/>
     <use xlink:href="#m86235cc1ce" x="106.791055" y="262.843985" style="fill-opacity: 0; stroke: #1f77b4"/>
     <use xlink:href="#m86235cc1ce" x="107.787" y="262.224647" style="fill-opacity: 0; stroke: #1f77b4"/>
     <use xlink:href="#m86235cc1ce" x="108.782945" y="261.171978" style="fill-opacity: 0; stroke: #1f77b4"/>
     <use xlink:href="#m86235cc1ce" x="109.778891" y="260.799167" style="fill-opacity: 0; stroke: #1f77b4"/>
     <use xlink:href="#m86235cc1ce" x="110.774836" y="260.900936" style="fill-opacity: 0; stroke: #1f77b4"/>
     <use xlink:href="#m86235cc1ce" x="111.770782" y="262.225368" style="fill-opacity: 0; stroke: #1f77b4"/>
     <use xlink:href="#m86235cc1ce" x="112.766727" y="262.174621" style="fill-opacity: 0; stroke: #1f77b4"/>
     <use xlink:href="#m86235cc1ce" x="113.762673" y="262.178375" style="fill-opacity: 0; stroke: #1f77b4"/>
     <use xlink:href="#m86235cc1ce" x="114.758618" y="262.720759" style="fill-opacity: 0; stroke: #1f77b4"/>
     <use xlink:href="#m86235cc1ce" x="115.754564" y="262.392455" style="fill-opacity: 0; stroke: #1f77b4"/>
     <use xlink:href="#m86235cc1ce" x="116.750509" y="262.400336" style="fill-opacity: 0; stroke: #1f77b4"/>
     <use xlink:href="#m86235cc1ce" x="117.746455" y="262.446534" style="fill-opacity: 0; stroke: #1f77b4"/>
     <use xlink:href="#m86235cc1ce" x="118.7424" y="262.125763" style="fill-opacity: 0; stroke: #1f77b4"/>
     <use xlink:href="#m86235cc1ce" x="119.738345" y="261.84092" style="fill-opacity: 0; stroke: #1f77b4"/>
     <use xlink:href="#m86235cc1ce" x="120.734291" y="261.064814" style="fill-opacity: 0; stroke: #1f77b4"/>
     <use xlink:href="#m86235cc1ce" x="121.730236" y="260.989924" style="fill-opacity: 0; stroke: #1f77b4"/>
     <use xlink:href="#m86235cc1ce" x="122.726182" y="260.980252" style="fill-opacity: 0; stroke: #1f77b4"/>
     <use xlink:href="#m86235cc1ce" x="123.722127" y="260.506493" style="fill-opacity: 0; stroke: #1f77b4"/>
     <use xlink:href="#m86235cc1ce" x="124.718073" y="260.798396" style="fill-opacity: 0; stroke: #1f77b4"/>
     <use xlink:href="#m86235cc1ce" x="125.714018" y="259.51397" style="fill-opacity: 0; stroke: #1f77b4"/>
     <use xlink:href="#m86235cc1ce" x="126.709964" y="254.390711" style="fill-opacity: 0; stroke: #1f77b4"/>
     <use xlink:href="#m86235cc1ce" x="127.705909" y="245.649461" style="fill-opacity: 0; stroke: #1f77b4"/>
     <use xlink:href="#m86235cc1ce" x="128.701855" y="232.333975" style="fill-opacity: 0; stroke: #1f77b4"/>
     <use xlink:href="#m86235cc1ce" x="129.6978" y="205.856541" style="fill-opacity: 0; stroke: #1f77b4"/>
     <use xlink:href="#m86235cc1ce" x="130.693745" y="164.140243" style="fill-opacity: 0; stroke: #1f77b4"/>
     <use xlink:href="#m86235cc1ce" x="131.689691" y="127.803332" style="fill-opacity: 0; stroke: #1f77b4"/>
     <use xlink:href="#m86235cc1ce" x="132.685636" y="116.924874" style="fill-opacity: 0; stroke: #1f77b4"/>
     <use xlink:href="#m86235cc1ce" x="133.681582" y="140.430951" style="fill-opacity: 0; stroke: #1f77b4"/>
     <use xlink:href="#m86235cc1ce" x="134.677527" y="178.188792" style="fill-opacity: 0; stroke: #1f77b4"/>
     <use xlink:href="#m86235cc1ce" x="135.673473" y="211.072741" style="fill-opacity: 0; stroke: #1f77b4"/>
     <use xlink:href="#m86235cc1ce" x="136.669418" y="233.043769" style="fill-opacity: 0; stroke: #1f77b4"/>
     <use xlink:href="#m86235cc1ce" x="137.665364" y="246.616597" style="fill-opacity: 0; stroke: #1f77b4"/>
     <use xlink:href="#m86235cc1ce" x="138.661309" y="254.78212" style="fill-opacity: 0; stroke: #1f77b4"/>
     <use xlink:href="#m86235cc1ce" x="139.657255" y="258.280788" style="fill-opacity: 0; stroke: #1f77b4"/>
     <use xlink:href="#m86235cc1ce" x="140.6532" y="259.54137" style="fill-opacity: 0; stroke: #1f77b4"/>
     <use xlink:href="#m86235cc1ce" x="141.649145" y="261.150745" style="fill-opacity: 0; stroke: #1f77b4"/>
     <use xlink:href="#m86235cc1ce" x="142.645091" y="261.050219" style="fill-opacity: 0; stroke: #1f77b4"/>
     <use xlink:href="#m86235cc1ce" x="143.641036" y="260.460643" style="fill-opacity: 0; stroke: #1f77b4"/>
     <use xlink:href="#m86235cc1ce" x="144.636982" y="260.749986" style="fill-opacity: 0; stroke: #1f77b4"/>
     <use xlink:href="#m86235cc1ce" x="145.632927" y="260.622583" style="fill-opacity: 0; stroke: #1f77b4"/>
     <use xlink:href="#m86235cc1ce" x="146.628873" y="259.241311" style="fill-opacity: 0; stroke: #1f77b4"/>
     <use xlink:href="#m86235cc1ce" x="147.624818" y="255.518593" style="fill-opacity: 0; stroke: #1f77b4"/>
     <use xlink:href="#m86235cc1ce" x="148.620764" y="247.614664" style="fill-opacity: 0; stroke: #1f77b4"/>
     <use xlink:href="#m86235cc1ce" x="149.616709" y="233.527498" style="fill-opacity: 0; stroke: #1f77b4"/>
     <use xlink:href="#m86235cc1ce" x="150.612655" y="204.478054" style="fill-opacity: 0; stroke: #1f77b4"/>
     <use xlink:href="#m86235cc1ce" x="151.6086" y="148.165205" style="fill-opacity: 0; stroke: #1f77b4"/>
     <use xlink:href="#m86235cc1ce" x="152.604545" y="95.213583" style="fill-opacity: 0; stroke: #1f77b4"/>
     <use xlink:href="#m86235cc1ce" x="153.600491" y="72.963217" style="fill-opacity: 0; stroke: #1f77b4"/>
     <use xlink:href="#m86235cc1ce" x="154.596436" y="88.881686" style="fill-opacity: 0; stroke: #1f77b4"/>
     <use xlink:href="#m86235cc1ce" x="155.592382" y="130.156315" style="fill-opacity: 0; stroke: #1f77b4"/>
     <use xlink:href="#m86235cc1ce" x="156.588327" y="175.834293" style="fill-opacity: 0; stroke: #1f77b4"/>
     <use xlink:href="#m86235cc1ce" x="157.584273" y="210.979352" style="fill-opacity: 0; stroke: #1f77b4"/>
     <use xlink:href="#m86235cc1ce" x="158.580218" y="234.081867" style="fill-opacity: 0; stroke: #1f77b4"/>
     <use xlink:href="#m86235cc1ce" x="159.576164" y="247.329499" style="fill-opacity: 0; stroke: #1f77b4"/>
     <use xlink:href="#m86235cc1ce" x="160.572109" y="253.928066" style="fill-opacity: 0; stroke: #1f77b4"/>
     <use xlink:href="#m86235cc1ce" x="161.568055" y="257.027243" style="fill-opacity: 0; stroke: #1f77b4"/>
     <use xlink:href="#m86235cc1ce" x="162.564" y="254.454959" style="fill-opacity: 0; stroke: #1f77b4"/>
     <use xlink:href="#m86235cc1ce" x="163.559945" y="247.855497" style="fill-opacity: 0; stroke: #1f77b4"/>
     <use xlink:href="#m86235cc1ce" x="164.555891" y="238.571018" style="fill-opacity: 0; stroke: #1f77b4"/>
     <use xlink:href="#m86235cc1ce" x="165.551836" y="219.383345" style="fill-opacity: 0; stroke: #1f77b4"/>
     <use xlink:href="#m86235cc1ce" x="166.547782" y="176.918066" style="fill-opacity: 0; stroke: #1f77b4"/>
     <use xlink:href="#m86235cc1ce" x="167.543727" y="135.038739" style="fill-opacity: 0; stroke: #1f77b4"/>
     <use xlink:href="#m86235cc1ce" x="168.539673" y="120.292034" style="fill-opacity: 0; stroke: #1f77b4"/>
     <use xlink:href="#m86235cc1ce" x="169.535618" y="146.180235" style="fill-opacity: 0; stroke: #1f77b4"/>
     <use xlink:href="#m86235cc1ce" x="170.531564" y="187.42195" style="fill-opacity: 0; stroke: #1f77b4"/>
     <use xlink:href="#m86235cc1ce" x="171.527509" y="218.783699" style="fill-opacity: 0; stroke: #1f77b4"/>
     <use xlink:href="#m86235cc1ce" x="172.523455" y="238.127718" style="fill-opacity: 0; stroke: #1f77b4"/>
     <use xlink:href="#m86235cc1ce" x="173.5194" y="249.446746" style="fill-opacity: 0; stroke: #1f77b4"/>
     <use xlink:href="#m86235cc1ce" x="174.515345" y="254.782593" style="fill-opacity: 0; stroke: #1f77b4"/>
     <use xlink:href="#m86235cc1ce" x="175.511291" y="258.168403" style="fill-opacity: 0; stroke: #1f77b4"/>
     <use xlink:href="#m86235cc1ce" x="176.507236" y="260.901806" style="fill-opacity: 0; stroke: #1f77b4"/>
     <use xlink:href="#m86235cc1ce" x="177.503182" y="261.710807" style="fill-opacity: 0; stroke: #1f77b4"/>
     <use xlink:href="#m86235cc1ce" x="178.499127" y="261.912007" style="fill-opacity: 0; stroke: #1f77b4"/>
     <use xlink:href="#m86235cc1ce" x="179.495073" y="261.346673" style="fill-opacity: 0; stroke: #1f77b4"/>
     <use xlink:href="#m86235cc1ce" x="180.491018" y="259.713255" style="fill-opacity: 0; stroke: #1f77b4"/>
     <use xlink:href="#m86235cc1ce" x="181.486964" y="256.148324" style="fill-opacity: 0; stroke: #1f77b4"/>
     <use xlink:href="#m86235cc1ce" x="182.482909" y="250.886274" style="fill-opacity: 0; stroke: #1f77b4"/>
     <use xlink:href="#m86235cc1ce" x="183.478855" y="241.610274" style="fill-opacity: 0; stroke: #1f77b4"/>
     <use xlink:href="#m86235cc1ce" x="184.4748" y="225.583589" style="fill-opacity: 0; stroke: #1f77b4"/>
     <use xlink:href="#m86235cc1ce" x="185.470745" y="191.946334" style="fill-opacity: 0; stroke: #1f77b4"/>
     <use xlink:href="#m86235cc1ce" x="186.466691" y="128.549676" style="fill-opacity: 0; stroke: #1f77b4"/>
     <use xlink:href="#m86235cc1ce" x="187.462636" y="70.334468" style="fill-opacity: 0; stroke: #1f77b4"/>
     <use xlink:href="#m86235cc1ce" x="188.458582" y="47.7648" style="fill-opacity: 0; stroke: #1f77b4"/>
     <use xlink:href="#m86235cc1ce" x="189.454527" y="71.795503" style="fill-opacity: 0; stroke: #1f77b4"/>
     <use xlink:href="#m86235cc1ce" x="190.450473" y="122.46249" style="fill-opacity: 0; stroke: #1f77b4"/>
     <use xlink:href="#m86235cc1ce" x="191.446418" y="173.088732" style="fill-opacity: 0; stroke: #1f77b4"/>
     <use xlink:href="#m86235cc1ce" x="192.442364" y="211.120704" style="fill-opacity: 0; stroke: #1f77b4"/>
     <use xlink:href="#m86235cc1ce" x="193.438309" y="234.515048" style="fill-opacity: 0; stroke: #1f77b4"/>
     <use xlink:href="#m86235cc1ce" x="194.434255" y="247.155127" style="fill-opacity: 0; stroke: #1f77b4"/>
     <use xlink:href="#m86235cc1ce" x="195.4302" y="254.517443" style="fill-opacity: 0; stroke: #1f77b4"/>
     <use xlink:href="#m86235cc1ce" x="196.426145" y="258.409659" style="fill-opacity: 0; stroke: #1f77b4"/>
     <use xlink:href="#m86235cc1ce" x="197.422091" y="260.38165" style="fill-opacity: 0; stroke: #1f77b4"/>
     <use xlink:href="#m86235cc1ce" x="198.418036" y="261.223994" style="fill-opacity: 0; stroke: #1f77b4"/>
     <use xlink:href="#m86235cc1ce" x="199.413982" y="261.567317" style="fill-opacity: 0; stroke: #1f77b4"/>
     <use xlink:href="#m86235cc1ce" x="200.409927" y="261.911932" style="fill-opacity: 0; stroke: #1f77b4"/>
     <use xlink:href="#m86235cc1ce" x="201.405873" y="261.42855" style="fill-opacity: 0; stroke: #1f77b4"/>
     <use xlink:href="#m86235cc1ce" x="202.401818" y="261.055963" style="fill-opacity: 0; stroke: #1f77b4"/>
     <use xlink:href="#m86235cc1ce" x="203.397764" y="261.102334" style="fill-opacity: 0; stroke: #1f77b4"/>
     <use xlink:href="#m86235cc1ce" x="204.393709" y="261.433573" style="fill-opacity: 0; stroke: #1f77b4"/>
     <use xlink:href="#m86235cc1ce" x="205.389655" y="261.780998" style="fill-opacity: 0; stroke: #1f77b4"/>
     <use xlink:href="#m86235cc1ce" x="206.3856" y="261.697455" style="fill-opacity: 0; stroke: #1f77b4"/>
     <use xlink:href="#m86235cc1ce" x="207.381545" y="261.902409" style="fill-opacity: 0; stroke: #1f77b4"/>
     <use xlink:href="#m86235cc1ce" x="208.377491" y="261.670005" style="fill-opacity: 0; stroke: #1f77b4"/>
     <use xlink:href="#m86235cc1ce" x="209.373436" y="261.517216" style="fill-opacity: 0; stroke: #1f77b4"/>
     <use xlink:href="#m86235cc1ce" x="210.369382" y="261.663889" style="fill-opacity: 0; stroke: #1f77b4"/>
     <use xlink:href="#m86235cc1ce" x="211.365327" y="261.901166" style="fill-opacity: 0; stroke: #1f77b4"/>
     <use xlink:href="#m86235cc1ce" x="212.361273" y="261.99468" style="fill-opacity: 0; stroke: #1f77b4"/>
     <use xlink:href="#m86235cc1ce" x="213.357218" y="261.808871" style="fill-opacity: 0; stroke: #1f77b4"/>
     <use xlink:href="#m86235cc1ce" x="214.353164" y="261.038658" style="fill-opacity: 0; stroke: #1f77b4"/>
     <use xlink:href="#m86235cc1ce" x="215.349109" y="261.647155" style="fill-opacity: 0; stroke: #1f77b4"/>
     <use xlink:href="#m86235cc1ce" x="216.345055" y="262.367317" style="fill-opacity: 0; stroke: #1f77b4"/>
     <use xlink:href="#m86235cc1ce" x="217.341" y="262.145356" style="fill-opacity: 0; stroke: #1f77b4"/>
     <use xlink:href="#m86235cc1ce" x="218.336945" y="261.496951" style="fill-opacity: 0; stroke: #1f77b4"/>
     <use xlink:href="#m86235cc1ce" x="219.332891" y="261.122773" style="fill-opacity: 0; stroke: #1f77b4"/>
     <use xlink:href="#m86235cc1ce" x="220.328836" y="260.98791" style="fill-opacity: 0; stroke: #1f77b4"/>
     <use xlink:href="#m86235cc1ce" x="221.324782" y="261.267183" style="fill-opacity: 0; stroke: #1f77b4"/>
     <use xlink:href="#m86235cc1ce" x="222.320727" y="261.507991" style="fill-opacity: 0; stroke: #1f77b4"/>
     <use xlink:href="#m86235cc1ce" x="223.316673" y="261.566322" style="fill-opacity: 0; stroke: #1f77b4"/>
     <use xlink:href="#m86235cc1ce" x="224.312618" y="261.586934" style="fill-opacity: 0; stroke: #1f77b4"/>
     <use xlink:href="#m86235cc1ce" x="225.308564" y="261.210742" style="fill-opacity: 0; stroke: #1f77b4"/>
     <use xlink:href="#m86235cc1ce" x="226.304509" y="260.79402" style="fill-opacity: 0; stroke: #1f77b4"/>
     <use xlink:href="#m86235cc1ce" x="227.300455" y="260.288883" style="fill-opacity: 0; stroke: #1f77b4"/>
     <use xlink:href="#m86235cc1ce" x="228.2964" y="259.010349" style="fill-opacity: 0; stroke: #1f77b4"/>
     <use xlink:href="#m86235cc1ce" x="229.292345" y="256.260138" style="fill-opacity: 0; stroke: #1f77b4"/>
     <use xlink:href="#m86235cc1ce" x="230.288291" y="252.623897" style="fill-opacity: 0; stroke: #1f77b4"/>
     <use xlink:href="#m86235cc1ce" x="231.284236" y="246.691861" style="fill-opacity: 0; stroke: #1f77b4"/>
     <use xlink:href="#m86235cc1ce" x="232.280182" y="236.392755" style="fill-opacity: 0; stroke: #1f77b4"/>
     <use xlink:href="#m86235cc1ce" x="233.276127" y="214.479287" style="fill-opacity: 0; stroke: #1f77b4"/>
     <use xlink:href="#m86235cc1ce" x="234.272073" y="167.369409" style="fill-opacity: 0; stroke: #1f77b4"/>
     <use xlink:href="#m86235cc1ce" x="235.268018" y="117.509452" style="fill-opacity: 0; stroke: #1f77b4"/>
     <use xlink:href="#m86235cc1ce" x="236.263964" y="89.811973" style="fill-opacity: 0; stroke: #1f77b4"/>
     <use xlink:href="#m86235cc1ce" x="237.259909" y="97.684097" style="fill-opacity: 0; stroke: #1f77b4"/>
     <use xlink:href="#m86235cc1ce" x="238.255855" y="134.547078" style="fill-opacity: 0; stroke: #1f77b4"/>
     <use xlink:href="#m86235cc1ce" x="239.2518" y="177.761603" style="fill-opacity: 0; stroke: #1f77b4"/>
     <use xlink:href="#m86235cc1ce" x="240.247745" y="211.307059" style="fill-opacity: 0; stroke: #1f77b4"/>
     <use xlink:href="#m86235cc1ce" x="241.243691" y="233.433438" style="fill-opacity: 0; stroke: #1f77b4"/>
     <use xlink:href="#m86235cc1ce" x="242.239636" y="246.43877" style="fill-opacity: 0; stroke: #1f77b4"/>
     <use xlink:href="#m86235cc1ce" x="243.235582" y="254.305551" style="fill-opacity: 0; stroke: #1f77b4"/>
     <use xlink:href="#m86235cc1ce" x="244.231527" y="259.344596" style="fill-opacity: 0; stroke: #1f77b4"/>
     <use xlink:href="#m86235cc1ce" x="245.227473" y="261.958378" style="fill-opacity: 0; stroke: #1f77b4"/>
     <use xlink:href="#m86235cc1ce" x="246.223418" y="262.076681" style="fill-opacity: 0; stroke: #1f77b4"/>
     <use xlink:href="#m86235cc1ce" x="247.219364" y="260.940569" style="fill-opacity: 0; stroke: #1f77b4"/>
     <use xlink:href="#m86235cc1ce" x="248.215309" y="257.179809" style="fill-opacity: 0; stroke: #1f77b4"/>
     <use xlink:href="#m86235cc1ce" x="249.211255" y="250.138115" style="fill-opacity: 0; stroke: #1f77b4"/>
     <use xlink:href="#m86235cc1ce" x="250.2072" y="238.520544" style="fill-opacity: 0; stroke: #1f77b4"/>
     <use xlink:href="#m86235cc1ce" x="251.203145" y="218.417949" style="fill-opacity: 0; stroke: #1f77b4"/>
     <use xlink:href="#m86235cc1ce" x="252.199091" y="177.429097" style="fill-opacity: 0; stroke: #1f77b4"/>
     <use xlink:href="#m86235cc1ce" x="253.195036" y="129.214117" style="fill-opacity: 0; stroke: #1f77b4"/>
     <use xlink:href="#m86235cc1ce" x="254.190982" y="104.806969" style="fill-opacity: 0; stroke: #1f77b4"/>
     <use xlink:href="#m86235cc1ce" x="255.186927" y="126.994829" style="fill-opacity: 0; stroke: #1f77b4"/>
     <use xlink:href="#m86235cc1ce" x="256.182873" y="172.114261" style="fill-opacity: 0; stroke: #1f77b4"/>
     <use xlink:href="#m86235cc1ce" x="257.178818" y="209.790155" style="fill-opacity: 0; stroke: #1f77b4"/>
     <use xlink:href="#m86235cc1ce" x="258.174764" y="231.680847" style="fill-opacity: 0; stroke: #1f77b4"/>
     <use xlink:href="#m86235cc1ce" x="259.170709" y="242.363554" style="fill-opacity: 0; stroke: #1f77b4"/>
     <use xlink:href="#m86235cc1ce" x="260.166655" y="244.958663" style="fill-opacity: 0; stroke: #1f77b4"/>
     <use xlink:href="#m86235cc1ce" x="261.1626" y="239.614487" style="fill-opacity: 0; stroke: #1f77b4"/>
     <use xlink:href="#m86235cc1ce" x="262.158545" y="225.680385" style="fill-opacity: 0; stroke: #1f77b4"/>
     <use xlink:href="#m86235cc1ce" x="263.154491" y="193.42281" style="fill-opacity: 0; stroke: #1f77b4"/>
     <use xlink:href="#m86235cc1ce" x="264.150436" y="139.493304" style="fill-opacity: 0; stroke: #1f77b4"/>
     <use xlink:href="#m86235cc1ce" x="265.146382" y="95.080759" style="fill-opacity: 0; stroke: #1f77b4"/>
     <use xlink:href="#m86235cc1ce" x="266.142327" y="81.240872" style="fill-opacity: 0; stroke: #1f77b4"/>
     <use xlink:href="#m86235cc1ce" x="267.138273" y="108.618524" style="fill-opacity: 0; stroke: #1f77b4"/>
     <use xlink:href="#m86235cc1ce" x="268.134218" y="157.036416" style="fill-opacity: 0; stroke: #1f77b4"/>
     <use xlink:href="#m86235cc1ce" x="269.130164" y="198.912638" style="fill-opacity: 0; stroke: #1f77b4"/>
     <use xlink:href="#m86235cc1ce" x="270.126109" y="226.811922" style="fill-opacity: 0; stroke: #1f77b4"/>
     <use xlink:href="#m86235cc1ce" x="271.122055" y="244.23512" style="fill-opacity: 0; stroke: #1f77b4"/>
     <use xlink:href="#m86235cc1ce" x="272.118" y="254.088513" style="fill-opacity: 0; stroke: #1f77b4"/>
     <use xlink:href="#m86235cc1ce" x="273.113945" y="258.782619" style="fill-opacity: 0; stroke: #1f77b4"/>
     <use xlink:href="#m86235cc1ce" x="274.109891" y="259.924326" style="fill-opacity: 0; stroke: #1f77b4"/>
     <use xlink:href="#m86235cc1ce" x="275.105836" y="258.417466" style="fill-opacity: 0; stroke: #1f77b4"/>
     <use xlink:href="#m86235cc1ce" x="276.101782" y="256.162397" style="fill-opacity: 0; stroke: #1f77b4"/>
     <use xlink:href="#m86235cc1ce" x="277.097727" y="251.459564" style="fill-opacity: 0; stroke: #1f77b4"/>
     <use xlink:href="#m86235cc1ce" x="278.093673" y="241.881043" style="fill-opacity: 0; stroke: #1f77b4"/>
     <use xlink:href="#m86235cc1ce" x="279.089618" y="221.76517" style="fill-opacity: 0; stroke: #1f77b4"/>
     <use xlink:href="#m86235cc1ce" x="280.085564" y="178.456752" style="fill-opacity: 0; stroke: #1f77b4"/>
     <use xlink:href="#m86235cc1ce" x="281.081509" y="132.568697" style="fill-opacity: 0; stroke: #1f77b4"/>
     <use xlink:href="#m86235cc1ce" x="282.077455" y="111.032572" style="fill-opacity: 0; stroke: #1f77b4"/>
     <use xlink:href="#m86235cc1ce" x="283.0734" y="124.287087" style="fill-opacity: 0; stroke: #1f77b4"/>
     <use xlink:href="#m86235cc1ce" x="284.069345" y="159.502058" style="fill-opacity: 0; stroke: #1f77b4"/>
     <use xlink:href="#m86235cc1ce" x="285.065291" y="195.617035" style="fill-opacity: 0; stroke: #1f77b4"/>
     <use xlink:href="#m86235cc1ce" x="286.061236" y="222.811946" style="fill-opacity: 0; stroke: #1f77b4"/>
     <use xlink:href="#m86235cc1ce" x="287.057182" y="240.511308" style="fill-opacity: 0; stroke: #1f77b4"/>
     <use xlink:href="#m86235cc1ce" x="288.053127" y="251.671853" style="fill-opacity: 0; stroke: #1f77b4"/>
     <use xlink:href="#m86235cc1ce" x="289.049073" y="257.216309" style="fill-opacity: 0; stroke: #1f77b4"/>
     <use xlink:href="#m86235cc1ce" x="290.045018" y="259.553927" style="fill-opacity: 0; stroke: #1f77b4"/>
     <use xlink:href="#m86235cc1ce" x="291.040964" y="260.570393" style="fill-opacity: 0; stroke: #1f77b4"/>
     <use xlink:href="#m86235cc1ce" x="292.036909" y="260.875201" style="fill-opacity: 0; stroke: #1f77b4"/>
     <use xlink:href="#m86235cc1ce" x="293.032855" y="261.393467" style="fill-opacity: 0; stroke: #1f77b4"/>
     <use xlink:href="#m86235cc1ce" x="294.0288" y="262.271615" style="fill-opacity: 0; stroke: #1f77b4"/>
     <use xlink:href="#m86235cc1ce" x="295.024745" y="262.098263" style="fill-opacity: 0; stroke: #1f77b4"/>
     <use xlink:href="#m86235cc1ce" x="296.020691" y="261.19821" style="fill-opacity: 0; stroke: #1f77b4"/>
     <use xlink:href="#m86235cc1ce" x="297.016636" y="260.295695" style="fill-opacity: 0; stroke: #1f77b4"/>
     <use xlink:href="#m86235cc1ce" x="298.012582" y="261.370269" style="fill-opacity: 0; stroke: #1f77b4"/>
     <use xlink:href="#m86235cc1ce" x="299.008527" y="262.45638" style="fill-opacity: 0; stroke: #1f77b4"/>
     <use xlink:href="#m86235cc1ce" x="300.004473" y="262.331463" style="fill-opacity: 0; stroke: #1f77b4"/>
     <use xlink:href="#m86235cc1ce" x="301.000418" y="262.201822" style="fill-opacity: 0; stroke: #1f77b4"/>
     <use xlink:href="#m86235cc1ce" x="301.996364" y="262.641642" style="fill-opacity: 0; stroke: #1f77b4"/>
     <use xlink:href="#m86235cc1ce" x="302.992309" y="262.161517" style="fill-opacity: 0; stroke: #1f77b4"/>
     <use xlink:href="#m86235cc1ce" x="303.988255" y="261.598173" style="fill-opacity: 0; stroke: #1f77b4"/>
     <use xlink:href="#m86235cc1ce" x="304.9842" y="261.698574" style="fill-opacity: 0; stroke: #1f77b4"/>
     <use xlink:href="#m86235cc1ce" x="305.980145" y="261.930158" style="fill-opacity: 0; stroke: #1f77b4"/>
     <use xlink:href="#m86235cc1ce" x="306.976091" y="262.382733" style="fill-opacity: 0; stroke: #1f77b4"/>
     <use xlink:href="#m86235cc1ce" x="307.972036" y="262.500613" style="fill-opacity: 0; stroke: #1f77b4"/>
     <use xlink:href="#m86235cc1ce" x="308.967982" y="262.141203" style="fill-opacity: 0; stroke: #1f77b4"/>
     <use xlink:href="#m86235cc1ce" x="309.963927" y="262.020116" style="fill-opacity: 0; stroke: #1f77b4"/>
     <use xlink:href="#m86235cc1ce" x="310.959873" y="262.080809" style="fill-opacity: 0; stroke: #1f77b4"/>
     <use xlink:href="#m86235cc1ce" x="311.955818" y="262.420427" style="fill-opacity: 0; stroke: #1f77b4"/>
     <use xlink:href="#m86235cc1ce" x="312.951764" y="262.428607" style="fill-opacity: 0; stroke: #1f77b4"/>
     <use xlink:href="#m86235cc1ce" x="313.947709" y="261.837539" style="fill-opacity: 0; stroke: #1f77b4"/>
     <use xlink:href="#m86235cc1ce" x="314.943655" y="261.995102" style="fill-opacity: 0; stroke: #1f77b4"/>
     <use xlink:href="#m86235cc1ce" x="315.9396" y="262.102614" style="fill-opacity: 0; stroke: #1f77b4"/>
     <use xlink:href="#m86235cc1ce" x="316.935545" y="262.180787" style="fill-opacity: 0; stroke: #1f77b4"/>
     <use xlink:href="#m86235cc1ce" x="317.931491" y="261.59872" style="fill-opacity: 0; stroke: #1f77b4"/>
     <use xlink:href="#m86235cc1ce" x="318.927436" y="260.890741" style="fill-opacity: 0; stroke: #1f77b4"/>
     <use xlink:href="#m86235cc1ce" x="319.923382" y="261.252488" style="fill-opacity: 0; stroke: #1f77b4"/>
     <use xlink:href="#m86235cc1ce" x="320.919327" y="262.06405" style="fill-opacity: 0; stroke: #1f77b4"/>
     <use xlink:href="#m86235cc1ce" x="321.915273" y="262.622049" style="fill-opacity: 0; stroke: #1f77b4"/>
     <use xlink:href="#m86235cc1ce" x="322.911218" y="262.206521" style="fill-opacity: 0; stroke: #1f77b4"/>
     <use xlink:href="#m86235cc1ce" x="323.907164" y="262.343099" style="fill-opacity: 0; stroke: #1f77b4"/>
     <use xlink:href="#m86235cc1ce" x="324.903109" y="262.180016" style="fill-opacity: 0; stroke: #1f77b4"/>
     <use xlink:href="#m86235cc1ce" x="325.899055" y="262.45633" style="fill-opacity: 0; stroke: #1f77b4"/>
     <use xlink:href="#m86235cc1ce" x="326.895" y="262.630528" style="fill-opacity: 0; stroke: #1f77b4"/>
     <use xlink:href="#m86235cc1ce" x="327.890945" y="262.91266" style="fill-opacity: 0; stroke: #1f77b4"/>
     <use xlink:href="#m86235cc1ce" x="328.886891" y="263.415386" style="fill-opacity: 0; stroke: #1f77b4"/>
     <use xlink:href="#m86235cc1ce" x="329.882836" y="262.766758" style="fill-opacity: 0; stroke: #1f77b4"/>
     <use xlink:href="#m86235cc1ce" x="330.878782" y="262.312044" style="fill-opacity: 0; stroke: #1f77b4"/>
     <use xlink:href="#m86235cc1ce" x="331.874727" y="261.740022" style="fill-opacity: 0; stroke: #1f77b4"/>
     <use xlink:href="#m86235cc1ce" x="332.870673" y="261.301943" style="fill-opacity: 0; stroke: #1f77b4"/>
     <use xlink:href="#m86235cc1ce" x="333.866618" y="261.271907" style="fill-opacity: 0; stroke: #1f77b4"/>
     <use xlink:href="#m86235cc1ce" x="334.862564" y="261.175161" style="fill-opacity: 0; stroke: #1f77b4"/>
     <use xlink:href="#m86235cc1ce" x="335.858509" y="261.393467" style="fill-opacity: 0; stroke: #1f77b4"/>
     <use xlink:href="#m86235cc1ce" x="336.854455" y="261.915736" style="fill-opacity: 0; stroke: #1f77b4"/>
     <use xlink:href="#m86235cc1ce" x="337.8504" y="261.948855" style="fill-opacity: 0; stroke: #1f77b4"/>
     <use xlink:href="#m86235cc1ce" x="338.846345" y="262.0321" style="fill-opacity: 0; stroke: #1f77b4"/>
     <use xlink:href="#m86235cc1ce" x="339.842291" y="262.290089" style="fill-opacity: 0; stroke: #1f77b4"/>
     <use xlink:href="#m86235cc1ce" x="340.838236" y="261.710235" style="fill-opacity: 0; stroke: #1f77b4"/>
     <use xlink:href="#m86235cc1ce" x="341.834182" y="261.896566" style="fill-opacity: 0; stroke: #1f77b4"/>
     <use xlink:href="#m86235cc1ce" x="342.830127" y="263.297307" style="fill-opacity: 0; stroke: #1f77b4"/>
     <use xlink:href="#m86235cc1ce" x="343.826073" y="263.325776" style="fill-opacity: 0; stroke: #1f77b4"/>
     <use xlink:href="#m86235cc1ce" x="344.822018" y="262.980166" style="fill-opacity: 0; stroke: #1f77b4"/>
     <use xlink:href="#m86235cc1ce" x="345.817964" y="262.555289" style="fill-opacity: 0; stroke: #1f77b4"/>
     <use xlink:href="#m86235cc1ce" x="346.813909" y="262.221489" style="fill-opacity: 0; stroke: #1f77b4"/>
     <use xlink:href="#m86235cc1ce" x="347.809855" y="261.951118" style="fill-opacity: 0; stroke: #1f77b4"/>
     <use xlink:href="#m86235cc1ce" x="348.8058" y="262.27067" style="fill-opacity: 0; stroke: #1f77b4"/>
     <use xlink:href="#m86235cc1ce" x="349.801745" y="263.134944" style="fill-opacity: 0; stroke: #1f77b4"/>
     <use xlink:href="#m86235cc1ce" x="350.797691" y="263.190093" style="fill-opacity: 0; stroke: #1f77b4"/>
     <use xlink:href="#m86235cc1ce" x="351.793636" y="262.813055" style="fill-opacity: 0; stroke: #1f77b4"/>
     <use xlink:href="#m86235cc1ce" x="352.789582" y="262.190882" style="fill-opacity: 0; stroke: #1f77b4"/>
     <use xlink:href="#m86235cc1ce" x="353.785527" y="262.068775" style="fill-opacity: 0; stroke: #1f77b4"/>
     <use xlink:href="#m86235cc1ce" x="354.781473" y="262.114872" style="fill-opacity: 0; stroke: #1f77b4"/>
     <use xlink:href="#m86235cc1ce" x="355.777418" y="262.046621" style="fill-opacity: 0; stroke: #1f77b4"/>
     <use xlink:href="#m86235cc1ce" x="356.773364" y="262.332557" style="fill-opacity: 0; stroke: #1f77b4"/>
     <use xlink:href="#m86235cc1ce" x="357.769309" y="262.904902" style="fill-opacity: 0; stroke: #1f77b4"/>
     <use xlink:href="#m86235cc1ce" x="358.765255" y="262.153611" style="fill-opacity: 0; stroke: #1f77b4"/>
     <use xlink:href="#m86235cc1ce" x="359.7612" y="261.101389" style="fill-opacity: 0; stroke: #1f77b4"/>
     <use xlink:href="#m86235cc1ce" x="360.757145" y="260.949868" style="fill-opacity: 0; stroke: #1f77b4"/>
     <use xlink:href="#m86235cc1ce" x="361.753091" y="262.300035" style="fill-opacity: 0; stroke: #1f77b4"/>
     <use xlink:href="#m86235cc1ce" x="362.749036" y="262.471845" style="fill-opacity: 0; stroke: #1f77b4"/>
     <use xlink:href="#m86235cc1ce" x="363.744982" y="262.592709" style="fill-opacity: 0; stroke: #1f77b4"/>
     <use xlink:href="#m86235cc1ce" x="364.740927" y="263.085167" style="fill-opacity: 0; stroke: #1f77b4"/>
     <use xlink:href="#m86235cc1ce" x="365.736873" y="262.691345" style="fill-opacity: 0; stroke: #1f77b4"/>
     <use xlink:href="#m86235cc1ce" x="366.732818" y="261.761231" style="fill-opacity: 0; stroke: #1f77b4"/>
    </g>
   </g>
   <g id="patch_3">
    <path d="M 53.01 274.2624 
L 53.01 36.9792 
" style="fill: none; stroke: #000000; stroke-width: 0.8; stroke-linejoin: miter; stroke-linecap: square"/>
   </g>
   <g id="patch_4">
    <path d="M 381.672 274.2624 
L 381.672 36.9792 
" style="fill: none; stroke: #000000; stroke-width: 0.8; stroke-linejoin: miter; stroke-linecap: square"/>
   </g>
   <g id="patch_5">
    <path d="M 53.01 274.2624 
L 381.672 274.2624 
" style="fill: none; stroke: #000000; stroke-width: 0.8; stroke-linejoin: miter; stroke-linecap: square"/>
   </g>
   <g id="patch_6">
    <path d="M 53.01 36.9792 
L 381.672 36.9792 
" style="fill: none; stroke: #000000; stroke-width: 0.8; stroke-linejoin: miter; stroke-linecap: square"/>
   </g>
  </g>
 </g>
 <defs>
  <clipPath id="p031c401137">
   <rect x="53.01" y="36.9792" width="328.662" height="237.2832"/>
  </clipPath>
 </defs>
</svg>
