<?xml version="1.0" encoding="utf-8" standalone="no"?>
<!DOCTYPE svg PUBLIC "-//W3C//DTD SVG 1.1//EN"
  "http://www.w3.org/Graphics/SVG/1.1/DTD/svg11.dtd">
<svg xmlns:xlink="http://www.w3.org/1999/xlink" width="460.8pt" height="345.6pt" viewBox="0 0 460.8 345.6" xmlns="http://www.w3.org/2000/svg" version="1.1">
 <metadata>
  <rdf:RDF xmlns:dc="http://purl.org/dc/elements/1.1/" xmlns:cc="http://creativecommons.org/ns#" xmlns:rdf="http://www.w3.org/1999/02/22-rdf-syntax-ns#">
   <cc:Work>
    <dc:type rdf:resource="http://purl.org/dc/dcmitype/StillImage"/>
    <dc:date>2022-03-22T17:27:07.794508</dc:date>
    <dc:format>image/svg+xml</dc:format>
    <dc:creator>
     <cc:Agent>
      <dc:title>Matplotlib v3.5.1, https://matplotlib.org/</dc:title>
     </cc:Agent>
    </dc:creator>
   </cc:Work>
  </rdf:RDF>
 </metadata>
 <defs>
  <style type="text/css">*{stroke-linejoin: round; stroke-linecap: butt}</style>
 </defs>
 <g id="figure_1">
  <g id="patch_1">
   <path d="M 0 345.6 
L 460.8 345.6 
L 460.8 0 
L 0 0 
z
" style="fill: #ffffff"/>
  </g>
  <g id="axes_1">
   <g id="patch_2">
    <path d="M 57.6 307.584 
L 414.72 307.584 
L 414.72 41.472 
L 57.6 41.472 
z
" style="fill: #ffffff"/>
   </g>
   <g id="matplotlib.axis_1">
    <g id="xtick_1">
     <g id="line2d_1">
      <defs>
       <path id="m2611f7c460" d="M 0 0 
L 0 3.5 
" style="stroke: #000000; stroke-width: 0.8"/>
      </defs>
      <g>
       <use xlink:href="#m2611f7c460" x="72.201297" y="307.584" style="stroke: #000000; stroke-width: 0.8"/>
      </g>
     </g>
     <g id="text_1">
      <!-- 0.000 -->
      <g transform="translate(57.887235 322.182437)scale(0.1 -0.1)">
       <defs>
        <path id="DejaVuSans-30" d="M 2034 4250 
Q 1547 4250 1301 3770 
Q 1056 3291 1056 2328 
Q 1056 1369 1301 889 
Q 1547 409 2034 409 
Q 2525 409 2770 889 
Q 3016 1369 3016 2328 
Q 3016 3291 2770 3770 
Q 2525 4250 2034 4250 
z
M 2034 4750 
Q 2819 4750 3233 4129 
Q 3647 3509 3647 2328 
Q 3647 1150 3233 529 
Q 2819 -91 2034 -91 
Q 1250 -91 836 529 
Q 422 1150 422 2328 
Q 422 3509 836 4129 
Q 1250 4750 2034 4750 
z
" transform="scale(0.015625)"/>
        <path id="DejaVuSans-2e" d="M 684 794 
L 1344 794 
L 1344 0 
L 684 0 
L 684 794 
z
" transform="scale(0.015625)"/>
       </defs>
       <use xlink:href="#DejaVuSans-30"/>
       <use xlink:href="#DejaVuSans-2e" x="63.623047"/>
       <use xlink:href="#DejaVuSans-30" x="95.410156"/>
       <use xlink:href="#DejaVuSans-30" x="159.033203"/>
       <use xlink:href="#DejaVuSans-30" x="222.65625"/>
      </g>
     </g>
    </g>
    <g id="xtick_2">
     <g id="line2d_2">
      <g>
       <use xlink:href="#m2611f7c460" x="137.458492" y="307.584" style="stroke: #000000; stroke-width: 0.8"/>
      </g>
     </g>
     <g id="text_2">
      <!-- 0.001 -->
      <g transform="translate(123.14443 322.182437)scale(0.1 -0.1)">
       <defs>
        <path id="DejaVuSans-31" d="M 794 531 
L 1825 531 
L 1825 4091 
L 703 3866 
L 703 4441 
L 1819 4666 
L 2450 4666 
L 2450 531 
L 3481 531 
L 3481 0 
L 794 0 
L 794 531 
z
" transform="scale(0.015625)"/>
       </defs>
       <use xlink:href="#DejaVuSans-30"/>
       <use xlink:href="#DejaVuSans-2e" x="63.623047"/>
       <use xlink:href="#DejaVuSans-30" x="95.410156"/>
       <use xlink:href="#DejaVuSans-30" x="159.033203"/>
       <use xlink:href="#DejaVuSans-31" x="222.65625"/>
      </g>
     </g>
    </g>
    <g id="xtick_3">
     <g id="line2d_3">
      <g>
       <use xlink:href="#m2611f7c460" x="202.715688" y="307.584" style="stroke: #000000; stroke-width: 0.8"/>
      </g>
     </g>
     <g id="text_3">
      <!-- 0.002 -->
      <g transform="translate(188.401625 322.182437)scale(0.1 -0.1)">
       <defs>
        <path id="DejaVuSans-32" d="M 1228 531 
L 3431 531 
L 3431 0 
L 469 0 
L 469 531 
Q 828 903 1448 1529 
Q 2069 2156 2228 2338 
Q 2531 2678 2651 2914 
Q 2772 3150 2772 3378 
Q 2772 3750 2511 3984 
Q 2250 4219 1831 4219 
Q 1534 4219 1204 4116 
Q 875 4013 500 3803 
L 500 4441 
Q 881 4594 1212 4672 
Q 1544 4750 1819 4750 
Q 2544 4750 2975 4387 
Q 3406 4025 3406 3419 
Q 3406 3131 3298 2873 
Q 3191 2616 2906 2266 
Q 2828 2175 2409 1742 
Q 1991 1309 1228 531 
z
" transform="scale(0.015625)"/>
       </defs>
       <use xlink:href="#DejaVuSans-30"/>
       <use xlink:href="#DejaVuSans-2e" x="63.623047"/>
       <use xlink:href="#DejaVuSans-30" x="95.410156"/>
       <use xlink:href="#DejaVuSans-30" x="159.033203"/>
       <use xlink:href="#DejaVuSans-32" x="222.65625"/>
      </g>
     </g>
    </g>
    <g id="xtick_4">
     <g id="line2d_4">
      <g>
       <use xlink:href="#m2611f7c460" x="267.972883" y="307.584" style="stroke: #000000; stroke-width: 0.8"/>
      </g>
     </g>
     <g id="text_4">
      <!-- 0.003 -->
      <g transform="translate(253.65882 322.182437)scale(0.1 -0.1)">
       <defs>
        <path id="DejaVuSans-33" d="M 2597 2516 
Q 3050 2419 3304 2112 
Q 3559 1806 3559 1356 
Q 3559 666 3084 287 
Q 2609 -91 1734 -91 
Q 1441 -91 1130 -33 
Q 819 25 488 141 
L 488 750 
Q 750 597 1062 519 
Q 1375 441 1716 441 
Q 2309 441 2620 675 
Q 2931 909 2931 1356 
Q 2931 1769 2642 2001 
Q 2353 2234 1838 2234 
L 1294 2234 
L 1294 2753 
L 1863 2753 
Q 2328 2753 2575 2939 
Q 2822 3125 2822 3475 
Q 2822 3834 2567 4026 
Q 2313 4219 1838 4219 
Q 1578 4219 1281 4162 
Q 984 4106 628 3988 
L 628 4550 
Q 988 4650 1302 4700 
Q 1616 4750 1894 4750 
Q 2613 4750 3031 4423 
Q 3450 4097 3450 3541 
Q 3450 3153 3228 2886 
Q 3006 2619 2597 2516 
z
" transform="scale(0.015625)"/>
       </defs>
       <use xlink:href="#DejaVuSans-30"/>
       <use xlink:href="#DejaVuSans-2e" x="63.623047"/>
       <use xlink:href="#DejaVuSans-30" x="95.410156"/>
       <use xlink:href="#DejaVuSans-30" x="159.033203"/>
       <use xlink:href="#DejaVuSans-33" x="222.65625"/>
      </g>
     </g>
    </g>
    <g id="xtick_5">
     <g id="line2d_5">
      <g>
       <use xlink:href="#m2611f7c460" x="333.230078" y="307.584" style="stroke: #000000; stroke-width: 0.8"/>
      </g>
     </g>
     <g id="text_5">
      <!-- 0.004 -->
      <g transform="translate(318.916015 322.182437)scale(0.1 -0.1)">
       <defs>
        <path id="DejaVuSans-34" d="M 2419 4116 
L 825 1625 
L 2419 1625 
L 2419 4116 
z
M 2253 4666 
L 3047 4666 
L 3047 1625 
L 3713 1625 
L 3713 1100 
L 3047 1100 
L 3047 0 
L 2419 0 
L 2419 1100 
L 313 1100 
L 313 1709 
L 2253 4666 
z
" transform="scale(0.015625)"/>
       </defs>
       <use xlink:href="#DejaVuSans-30"/>
       <use xlink:href="#DejaVuSans-2e" x="63.623047"/>
       <use xlink:href="#DejaVuSans-30" x="95.410156"/>
       <use xlink:href="#DejaVuSans-30" x="159.033203"/>
       <use xlink:href="#DejaVuSans-34" x="222.65625"/>
      </g>
     </g>
    </g>
    <g id="xtick_6">
     <g id="line2d_6">
      <g>
       <use xlink:href="#m2611f7c460" x="398.487273" y="307.584" style="stroke: #000000; stroke-width: 0.8"/>
      </g>
     </g>
     <g id="text_6">
      <!-- 0.005 -->
      <g transform="translate(384.17321 322.182437)scale(0.1 -0.1)">
       <defs>
        <path id="DejaVuSans-35" d="M 691 4666 
L 3169 4666 
L 3169 4134 
L 1269 4134 
L 1269 2991 
Q 1406 3038 1543 3061 
Q 1681 3084 1819 3084 
Q 2600 3084 3056 2656 
Q 3513 2228 3513 1497 
Q 3513 744 3044 326 
Q 2575 -91 1722 -91 
Q 1428 -91 1123 -41 
Q 819 9 494 109 
L 494 744 
Q 775 591 1075 516 
Q 1375 441 1709 441 
Q 2250 441 2565 725 
Q 2881 1009 2881 1497 
Q 2881 1984 2565 2268 
Q 2250 2553 1709 2553 
Q 1456 2553 1204 2497 
Q 953 2441 691 2322 
L 691 4666 
z
" transform="scale(0.015625)"/>
       </defs>
       <use xlink:href="#DejaVuSans-30"/>
       <use xlink:href="#DejaVuSans-2e" x="63.623047"/>
       <use xlink:href="#DejaVuSans-30" x="95.410156"/>
       <use xlink:href="#DejaVuSans-30" x="159.033203"/>
       <use xlink:href="#DejaVuSans-35" x="222.65625"/>
      </g>
     </g>
    </g>
   </g>
   <g id="matplotlib.axis_2">
    <g id="ytick_1">
     <g id="line2d_7">
      <defs>
       <path id="m092d4d48a7" d="M 0 0 
L -3.5 0 
" style="stroke: #000000; stroke-width: 0.8"/>
      </defs>
      <g>
       <use xlink:href="#m092d4d48a7" x="57.6" y="296.258686" style="stroke: #000000; stroke-width: 0.8"/>
      </g>
     </g>
     <g id="text_7">
      <!-- 0.0000 -->
      <g transform="translate(15.609375 300.057905)scale(0.1 -0.1)">
       <use xlink:href="#DejaVuSans-30"/>
       <use xlink:href="#DejaVuSans-2e" x="63.623047"/>
       <use xlink:href="#DejaVuSans-30" x="95.410156"/>
       <use xlink:href="#DejaVuSans-30" x="159.033203"/>
       <use xlink:href="#DejaVuSans-30" x="222.65625"/>
       <use xlink:href="#DejaVuSans-30" x="286.279297"/>
      </g>
     </g>
    </g>
    <g id="ytick_2">
     <g id="line2d_8">
      <g>
       <use xlink:href="#m092d4d48a7" x="57.6" y="241.113331" style="stroke: #000000; stroke-width: 0.8"/>
      </g>
     </g>
     <g id="text_8">
      <!-- 0.0002 -->
      <g transform="translate(15.609375 244.912549)scale(0.1 -0.1)">
       <use xlink:href="#DejaVuSans-30"/>
       <use xlink:href="#DejaVuSans-2e" x="63.623047"/>
       <use xlink:href="#DejaVuSans-30" x="95.410156"/>
       <use xlink:href="#DejaVuSans-30" x="159.033203"/>
       <use xlink:href="#DejaVuSans-30" x="222.65625"/>
       <use xlink:href="#DejaVuSans-32" x="286.279297"/>
      </g>
     </g>
    </g>
    <g id="ytick_3">
     <g id="line2d_9">
      <g>
       <use xlink:href="#m092d4d48a7" x="57.6" y="185.967975" style="stroke: #000000; stroke-width: 0.8"/>
      </g>
     </g>
     <g id="text_9">
      <!-- 0.0004 -->
      <g transform="translate(15.609375 189.767194)scale(0.1 -0.1)">
       <use xlink:href="#DejaVuSans-30"/>
       <use xlink:href="#DejaVuSans-2e" x="63.623047"/>
       <use xlink:href="#DejaVuSans-30" x="95.410156"/>
       <use xlink:href="#DejaVuSans-30" x="159.033203"/>
       <use xlink:href="#DejaVuSans-30" x="222.65625"/>
       <use xlink:href="#DejaVuSans-34" x="286.279297"/>
      </g>
     </g>
    </g>
    <g id="ytick_4">
     <g id="line2d_10">
      <g>
       <use xlink:href="#m092d4d48a7" x="57.6" y="130.82262" style="stroke: #000000; stroke-width: 0.8"/>
      </g>
     </g>
     <g id="text_10">
      <!-- 0.0006 -->
      <g transform="translate(15.609375 134.621838)scale(0.1 -0.1)">
       <defs>
        <path id="DejaVuSans-36" d="M 2113 2584 
Q 1688 2584 1439 2293 
Q 1191 2003 1191 1497 
Q 1191 994 1439 701 
Q 1688 409 2113 409 
Q 2538 409 2786 701 
Q 3034 994 3034 1497 
Q 3034 2003 2786 2293 
Q 2538 2584 2113 2584 
z
M 3366 4563 
L 3366 3988 
Q 3128 4100 2886 4159 
Q 2644 4219 2406 4219 
Q 1781 4219 1451 3797 
Q 1122 3375 1075 2522 
Q 1259 2794 1537 2939 
Q 1816 3084 2150 3084 
Q 2853 3084 3261 2657 
Q 3669 2231 3669 1497 
Q 3669 778 3244 343 
Q 2819 -91 2113 -91 
Q 1303 -91 875 529 
Q 447 1150 447 2328 
Q 447 3434 972 4092 
Q 1497 4750 2381 4750 
Q 2619 4750 2861 4703 
Q 3103 4656 3366 4563 
z
" transform="scale(0.015625)"/>
       </defs>
       <use xlink:href="#DejaVuSans-30"/>
       <use xlink:href="#DejaVuSans-2e" x="63.623047"/>
       <use xlink:href="#DejaVuSans-30" x="95.410156"/>
       <use xlink:href="#DejaVuSans-30" x="159.033203"/>
       <use xlink:href="#DejaVuSans-30" x="222.65625"/>
       <use xlink:href="#DejaVuSans-36" x="286.279297"/>
      </g>
     </g>
    </g>
    <g id="ytick_5">
     <g id="line2d_11">
      <g>
       <use xlink:href="#m092d4d48a7" x="57.6" y="75.677264" style="stroke: #000000; stroke-width: 0.8"/>
      </g>
     </g>
     <g id="text_11">
      <!-- 0.0008 -->
      <g transform="translate(15.609375 79.476483)scale(0.1 -0.1)">
       <defs>
        <path id="DejaVuSans-38" d="M 2034 2216 
Q 1584 2216 1326 1975 
Q 1069 1734 1069 1313 
Q 1069 891 1326 650 
Q 1584 409 2034 409 
Q 2484 409 2743 651 
Q 3003 894 3003 1313 
Q 3003 1734 2745 1975 
Q 2488 2216 2034 2216 
z
M 1403 2484 
Q 997 2584 770 2862 
Q 544 3141 544 3541 
Q 544 4100 942 4425 
Q 1341 4750 2034 4750 
Q 2731 4750 3128 4425 
Q 3525 4100 3525 3541 
Q 3525 3141 3298 2862 
Q 3072 2584 2669 2484 
Q 3125 2378 3379 2068 
Q 3634 1759 3634 1313 
Q 3634 634 3220 271 
Q 2806 -91 2034 -91 
Q 1263 -91 848 271 
Q 434 634 434 1313 
Q 434 1759 690 2068 
Q 947 2378 1403 2484 
z
M 1172 3481 
Q 1172 3119 1398 2916 
Q 1625 2713 2034 2713 
Q 2441 2713 2670 2916 
Q 2900 3119 2900 3481 
Q 2900 3844 2670 4047 
Q 2441 4250 2034 4250 
Q 1625 4250 1398 4047 
Q 1172 3844 1172 3481 
z
" transform="scale(0.015625)"/>
       </defs>
       <use xlink:href="#DejaVuSans-30"/>
       <use xlink:href="#DejaVuSans-2e" x="63.623047"/>
       <use xlink:href="#DejaVuSans-30" x="95.410156"/>
       <use xlink:href="#DejaVuSans-30" x="159.033203"/>
       <use xlink:href="#DejaVuSans-30" x="222.65625"/>
       <use xlink:href="#DejaVuSans-38" x="286.279297"/>
      </g>
     </g>
    </g>
   </g>
   <g id="line2d_12">
    <defs>
     <path id="mcc634e83aa" d="M 0 3 
C 0.795609 3 1.55874 2.683901 2.12132 2.12132 
C 2.683901 1.55874 3 0.795609 3 0 
C 3 -0.795609 2.683901 -1.55874 2.12132 -2.12132 
C 1.55874 -2.683901 0.795609 -3 0 -3 
C -0.795609 -3 -1.55874 -2.683901 -2.12132 -2.12132 
C -2.683901 -1.55874 -3 -0.795609 -3 0 
C -3 0.795609 -2.683901 1.55874 -2.12132 2.12132 
C -1.55874 2.683901 -0.795609 3 0 3 
z
" style="stroke: #1f77b4"/>
    </defs>
    <g clip-path="url(#pdbfd1456f4)">
     <use xlink:href="#mcc634e83aa" x="73.832727" y="53.568" style="fill-opacity: 0; stroke: #1f77b4"/>
     <use xlink:href="#mcc634e83aa" x="75.464157" y="64.770781" style="fill-opacity: 0; stroke: #1f77b4"/>
     <use xlink:href="#mcc634e83aa" x="77.095587" y="73.471617" style="fill-opacity: 0; stroke: #1f77b4"/>
     <use xlink:href="#mcc634e83aa" x="78.727017" y="80.407038" style="fill-opacity: 0; stroke: #1f77b4"/>
     <use xlink:href="#mcc634e83aa" x="80.358447" y="88.919491" style="fill-opacity: 0; stroke: #1f77b4"/>
     <use xlink:href="#mcc634e83aa" x="81.989877" y="93.091907" style="fill-opacity: 0; stroke: #1f77b4"/>
     <use xlink:href="#mcc634e83aa" x="83.621307" y="99.992571" style="fill-opacity: 0; stroke: #1f77b4"/>
     <use xlink:href="#mcc634e83aa" x="85.252736" y="111.635315" style="fill-opacity: 0; stroke: #1f77b4"/>
     <use xlink:href="#mcc634e83aa" x="86.884166" y="112.275847" style="fill-opacity: 0; stroke: #1f77b4"/>
     <use xlink:href="#mcc634e83aa" x="88.515596" y="120.620531" style="fill-opacity: 0; stroke: #1f77b4"/>
     <use xlink:href="#mcc634e83aa" x="90.147026" y="126.119756" style="fill-opacity: 0; stroke: #1f77b4"/>
     <use xlink:href="#mcc634e83aa" x="91.778456" y="127.766454" style="fill-opacity: 0; stroke: #1f77b4"/>
     <use xlink:href="#mcc634e83aa" x="93.409886" y="136.010175" style="fill-opacity: 0; stroke: #1f77b4"/>
     <use xlink:href="#mcc634e83aa" x="95.041316" y="139.72653" style="fill-opacity: 0; stroke: #1f77b4"/>
     <use xlink:href="#mcc634e83aa" x="96.672746" y="139.923189" style="fill-opacity: 0; stroke: #1f77b4"/>
     <use xlink:href="#mcc634e83aa" x="98.304175" y="149.025769" style="fill-opacity: 0; stroke: #1f77b4"/>
     <use xlink:href="#mcc634e83aa" x="99.935605" y="151.744837" style="fill-opacity: 0; stroke: #1f77b4"/>
     <use xlink:href="#mcc634e83aa" x="101.567035" y="153.326685" style="fill-opacity: 0; stroke: #1f77b4"/>
     <use xlink:href="#mcc634e83aa" x="103.198465" y="158.673487" style="fill-opacity: 0; stroke: #1f77b4"/>
     <use xlink:href="#mcc634e83aa" x="104.829895" y="161.5039" style="fill-opacity: 0; stroke: #1f77b4"/>
     <use xlink:href="#mcc634e83aa" x="106.461325" y="166.91119" style="fill-opacity: 0; stroke: #1f77b4"/>
     <use xlink:href="#mcc634e83aa" x="108.092755" y="169.680514" style="fill-opacity: 0; stroke: #1f77b4"/>
     <use xlink:href="#mcc634e83aa" x="109.724185" y="172.889348" style="fill-opacity: 0; stroke: #1f77b4"/>
     <use xlink:href="#mcc634e83aa" x="111.355614" y="174.0368" style="fill-opacity: 0; stroke: #1f77b4"/>
     <use xlink:href="#mcc634e83aa" x="112.987044" y="178.043404" style="fill-opacity: 0; stroke: #1f77b4"/>
     <use xlink:href="#mcc634e83aa" x="114.618474" y="178.44244" style="fill-opacity: 0; stroke: #1f77b4"/>
     <use xlink:href="#mcc634e83aa" x="116.249904" y="182.527888" style="fill-opacity: 0; stroke: #1f77b4"/>
     <use xlink:href="#mcc634e83aa" x="117.881334" y="188.842637" style="fill-opacity: 0; stroke: #1f77b4"/>
     <use xlink:href="#mcc634e83aa" x="119.512764" y="190.008747" style="fill-opacity: 0; stroke: #1f77b4"/>
     <use xlink:href="#mcc634e83aa" x="121.144194" y="188.8628" style="fill-opacity: 0; stroke: #1f77b4"/>
     <use xlink:href="#mcc634e83aa" x="122.775624" y="194.863226" style="fill-opacity: 0; stroke: #1f77b4"/>
     <use xlink:href="#mcc634e83aa" x="124.407053" y="197.898573" style="fill-opacity: 0; stroke: #1f77b4"/>
     <use xlink:href="#mcc634e83aa" x="126.038483" y="197.087412" style="fill-opacity: 0; stroke: #1f77b4"/>
     <use xlink:href="#mcc634e83aa" x="127.669913" y="199.175276" style="fill-opacity: 0; stroke: #1f77b4"/>
     <use xlink:href="#mcc634e83aa" x="129.301343" y="200.956039" style="fill-opacity: 0; stroke: #1f77b4"/>
     <use xlink:href="#mcc634e83aa" x="130.932773" y="200.405184" style="fill-opacity: 0; stroke: #1f77b4"/>
     <use xlink:href="#mcc634e83aa" x="132.564203" y="205.032158" style="fill-opacity: 0; stroke: #1f77b4"/>
     <use xlink:href="#mcc634e83aa" x="134.195633" y="210.450884" style="fill-opacity: 0; stroke: #1f77b4"/>
     <use xlink:href="#mcc634e83aa" x="135.827063" y="211.110225" style="fill-opacity: 0; stroke: #1f77b4"/>
     <use xlink:href="#mcc634e83aa" x="137.458492" y="215.458236" style="fill-opacity: 0; stroke: #1f77b4"/>
     <use xlink:href="#mcc634e83aa" x="139.089922" y="217.241106" style="fill-opacity: 0; stroke: #1f77b4"/>
     <use xlink:href="#mcc634e83aa" x="140.721352" y="217.524433" style="fill-opacity: 0; stroke: #1f77b4"/>
     <use xlink:href="#mcc634e83aa" x="142.352782" y="215.506085" style="fill-opacity: 0; stroke: #1f77b4"/>
     <use xlink:href="#mcc634e83aa" x="143.984212" y="219.368542" style="fill-opacity: 0; stroke: #1f77b4"/>
     <use xlink:href="#mcc634e83aa" x="145.615642" y="222.538556" style="fill-opacity: 0; stroke: #1f77b4"/>
     <use xlink:href="#mcc634e83aa" x="147.247072" y="222.811802" style="fill-opacity: 0; stroke: #1f77b4"/>
     <use xlink:href="#mcc634e83aa" x="148.878502" y="223.94827" style="fill-opacity: 0; stroke: #1f77b4"/>
     <use xlink:href="#mcc634e83aa" x="150.509931" y="223.594224" style="fill-opacity: 0; stroke: #1f77b4"/>
     <use xlink:href="#mcc634e83aa" x="152.141361" y="225.563973" style="fill-opacity: 0; stroke: #1f77b4"/>
     <use xlink:href="#mcc634e83aa" x="153.772791" y="230.688688" style="fill-opacity: 0; stroke: #1f77b4"/>
     <use xlink:href="#mcc634e83aa" x="155.404221" y="231.383539" style="fill-opacity: 0; stroke: #1f77b4"/>
     <use xlink:href="#mcc634e83aa" x="157.035651" y="230.113909" style="fill-opacity: 0; stroke: #1f77b4"/>
     <use xlink:href="#mcc634e83aa" x="158.667081" y="232.569059" style="fill-opacity: 0; stroke: #1f77b4"/>
     <use xlink:href="#mcc634e83aa" x="160.298511" y="233.744047" style="fill-opacity: 0; stroke: #1f77b4"/>
     <use xlink:href="#mcc634e83aa" x="161.929941" y="238.861992" style="fill-opacity: 0; stroke: #1f77b4"/>
     <use xlink:href="#mcc634e83aa" x="163.56137" y="240.689098" style="fill-opacity: 0; stroke: #1f77b4"/>
     <use xlink:href="#mcc634e83aa" x="165.1928" y="237.880202" style="fill-opacity: 0; stroke: #1f77b4"/>
     <use xlink:href="#mcc634e83aa" x="166.82423" y="235.273532" style="fill-opacity: 0; stroke: #1f77b4"/>
     <use xlink:href="#mcc634e83aa" x="168.45566" y="242.938562" style="fill-opacity: 0; stroke: #1f77b4"/>
     <use xlink:href="#mcc634e83aa" x="170.08709" y="244.707288" style="fill-opacity: 0; stroke: #1f77b4"/>
     <use xlink:href="#mcc634e83aa" x="171.71852" y="242.735433" style="fill-opacity: 0; stroke: #1f77b4"/>
     <use xlink:href="#mcc634e83aa" x="173.34995" y="243.345723" style="fill-opacity: 0; stroke: #1f77b4"/>
     <use xlink:href="#mcc634e83aa" x="174.98138" y="243.234679" style="fill-opacity: 0; stroke: #1f77b4"/>
     <use xlink:href="#mcc634e83aa" x="176.61281" y="248.134749" style="fill-opacity: 0; stroke: #1f77b4"/>
     <use xlink:href="#mcc634e83aa" x="178.244239" y="250.162427" style="fill-opacity: 0; stroke: #1f77b4"/>
     <use xlink:href="#mcc634e83aa" x="179.875669" y="247.561324" style="fill-opacity: 0; stroke: #1f77b4"/>
     <use xlink:href="#mcc634e83aa" x="181.507099" y="248.139715" style="fill-opacity: 0; stroke: #1f77b4"/>
     <use xlink:href="#mcc634e83aa" x="183.138529" y="253.172796" style="fill-opacity: 0; stroke: #1f77b4"/>
     <use xlink:href="#mcc634e83aa" x="184.769959" y="249.666943" style="fill-opacity: 0; stroke: #1f77b4"/>
     <use xlink:href="#mcc634e83aa" x="186.401389" y="251.72351" style="fill-opacity: 0; stroke: #1f77b4"/>
     <use xlink:href="#mcc634e83aa" x="188.032819" y="255.035714" style="fill-opacity: 0; stroke: #1f77b4"/>
     <use xlink:href="#mcc634e83aa" x="189.664249" y="253.559945" style="fill-opacity: 0; stroke: #1f77b4"/>
     <use xlink:href="#mcc634e83aa" x="191.295678" y="257.887944" style="fill-opacity: 0; stroke: #1f77b4"/>
     <use xlink:href="#mcc634e83aa" x="192.927108" y="256.45566" style="fill-opacity: 0; stroke: #1f77b4"/>
     <use xlink:href="#mcc634e83aa" x="194.558538" y="255.921807" style="fill-opacity: 0; stroke: #1f77b4"/>
     <use xlink:href="#mcc634e83aa" x="196.189968" y="254.939717" style="fill-opacity: 0; stroke: #1f77b4"/>
     <use xlink:href="#mcc634e83aa" x="197.821398" y="258.353185" style="fill-opacity: 0; stroke: #1f77b4"/>
     <use xlink:href="#mcc634e83aa" x="199.452828" y="263.059154" style="fill-opacity: 0; stroke: #1f77b4"/>
     <use xlink:href="#mcc634e83aa" x="201.084258" y="257.910665" style="fill-opacity: 0; stroke: #1f77b4"/>
     <use xlink:href="#mcc634e83aa" x="202.715688" y="260.675023" style="fill-opacity: 0; stroke: #1f77b4"/>
     <use xlink:href="#mcc634e83aa" x="204.347117" y="263.195476" style="fill-opacity: 0; stroke: #1f77b4"/>
     <use xlink:href="#mcc634e83aa" x="205.978547" y="261.610018" style="fill-opacity: 0; stroke: #1f77b4"/>
     <use xlink:href="#mcc634e83aa" x="207.609977" y="263.512357" style="fill-opacity: 0; stroke: #1f77b4"/>
     <use xlink:href="#mcc634e83aa" x="209.241407" y="261.293889" style="fill-opacity: 0; stroke: #1f77b4"/>
     <use xlink:href="#mcc634e83aa" x="210.872837" y="264.129267" style="fill-opacity: 0; stroke: #1f77b4"/>
     <use xlink:href="#mcc634e83aa" x="212.504267" y="261.94014" style="fill-opacity: 0; stroke: #1f77b4"/>
     <use xlink:href="#mcc634e83aa" x="214.135697" y="264.41139" style="fill-opacity: 0; stroke: #1f77b4"/>
     <use xlink:href="#mcc634e83aa" x="215.767127" y="267.205089" style="fill-opacity: 0; stroke: #1f77b4"/>
     <use xlink:href="#mcc634e83aa" x="217.398556" y="264.374827" style="fill-opacity: 0; stroke: #1f77b4"/>
     <use xlink:href="#mcc634e83aa" x="219.029986" y="268.795212" style="fill-opacity: 0; stroke: #1f77b4"/>
     <use xlink:href="#mcc634e83aa" x="220.661416" y="266.393176" style="fill-opacity: 0; stroke: #1f77b4"/>
     <use xlink:href="#mcc634e83aa" x="222.292846" y="266.008134" style="fill-opacity: 0; stroke: #1f77b4"/>
     <use xlink:href="#mcc634e83aa" x="223.924276" y="265.538078" style="fill-opacity: 0; stroke: #1f77b4"/>
     <use xlink:href="#mcc634e83aa" x="225.555706" y="268.287841" style="fill-opacity: 0; stroke: #1f77b4"/>
     <use xlink:href="#mcc634e83aa" x="227.187136" y="269.880372" style="fill-opacity: 0; stroke: #1f77b4"/>
     <use xlink:href="#mcc634e83aa" x="228.818566" y="265.034319" style="fill-opacity: 0; stroke: #1f77b4"/>
     <use xlink:href="#mcc634e83aa" x="230.449995" y="271.677234" style="fill-opacity: 0; stroke: #1f77b4"/>
     <use xlink:href="#mcc634e83aa" x="232.081425" y="270.292648" style="fill-opacity: 0; stroke: #1f77b4"/>
     <use xlink:href="#mcc634e83aa" x="233.712855" y="274.348153" style="fill-opacity: 0; stroke: #1f77b4"/>
     <use xlink:href="#mcc634e83aa" x="235.344285" y="271.962668" style="fill-opacity: 0; stroke: #1f77b4"/>
     <use xlink:href="#mcc634e83aa" x="236.975715" y="269.203577" style="fill-opacity: 0; stroke: #1f77b4"/>
     <use xlink:href="#mcc634e83aa" x="238.607145" y="270.889997" style="fill-opacity: 0; stroke: #1f77b4"/>
     <use xlink:href="#mcc634e83aa" x="240.238575" y="273.038348" style="fill-opacity: 0; stroke: #1f77b4"/>
     <use xlink:href="#mcc634e83aa" x="241.870005" y="273.190319" style="fill-opacity: 0; stroke: #1f77b4"/>
     <use xlink:href="#mcc634e83aa" x="243.501434" y="276.913144" style="fill-opacity: 0; stroke: #1f77b4"/>
     <use xlink:href="#mcc634e83aa" x="245.132864" y="276.098673" style="fill-opacity: 0; stroke: #1f77b4"/>
     <use xlink:href="#mcc634e83aa" x="246.764294" y="272.679638" style="fill-opacity: 0; stroke: #1f77b4"/>
     <use xlink:href="#mcc634e83aa" x="248.395724" y="275.486427" style="fill-opacity: 0; stroke: #1f77b4"/>
     <use xlink:href="#mcc634e83aa" x="250.027154" y="275.96852" style="fill-opacity: 0; stroke: #1f77b4"/>
     <use xlink:href="#mcc634e83aa" x="251.658584" y="273.971387" style="fill-opacity: 0; stroke: #1f77b4"/>
     <use xlink:href="#mcc634e83aa" x="253.290014" y="279.357763" style="fill-opacity: 0; stroke: #1f77b4"/>
     <use xlink:href="#mcc634e83aa" x="254.921444" y="273.298353" style="fill-opacity: 0; stroke: #1f77b4"/>
     <use xlink:href="#mcc634e83aa" x="256.552873" y="278.867545" style="fill-opacity: 0; stroke: #1f77b4"/>
     <use xlink:href="#mcc634e83aa" x="258.184303" y="275.603189" style="fill-opacity: 0; stroke: #1f77b4"/>
     <use xlink:href="#mcc634e83aa" x="259.815733" y="274.340781" style="fill-opacity: 0; stroke: #1f77b4"/>
     <use xlink:href="#mcc634e83aa" x="261.447163" y="275.338068" style="fill-opacity: 0; stroke: #1f77b4"/>
     <use xlink:href="#mcc634e83aa" x="263.078593" y="277.220847" style="fill-opacity: 0; stroke: #1f77b4"/>
     <use xlink:href="#mcc634e83aa" x="264.710023" y="276.251396" style="fill-opacity: 0; stroke: #1f77b4"/>
     <use xlink:href="#mcc634e83aa" x="266.341453" y="275.012761" style="fill-opacity: 0; stroke: #1f77b4"/>
     <use xlink:href="#mcc634e83aa" x="267.972883" y="282.372646" style="fill-opacity: 0; stroke: #1f77b4"/>
     <use xlink:href="#mcc634e83aa" x="269.604312" y="277.26057" style="fill-opacity: 0; stroke: #1f77b4"/>
     <use xlink:href="#mcc634e83aa" x="271.235742" y="278.731073" style="fill-opacity: 0; stroke: #1f77b4"/>
     <use xlink:href="#mcc634e83aa" x="272.867172" y="280.255592" style="fill-opacity: 0; stroke: #1f77b4"/>
     <use xlink:href="#mcc634e83aa" x="274.498602" y="283.030182" style="fill-opacity: 0; stroke: #1f77b4"/>
     <use xlink:href="#mcc634e83aa" x="276.130032" y="281.692992" style="fill-opacity: 0; stroke: #1f77b4"/>
     <use xlink:href="#mcc634e83aa" x="277.761462" y="283.941102" style="fill-opacity: 0; stroke: #1f77b4"/>
     <use xlink:href="#mcc634e83aa" x="279.392892" y="279.92532" style="fill-opacity: 0; stroke: #1f77b4"/>
     <use xlink:href="#mcc634e83aa" x="281.024322" y="281.44021" style="fill-opacity: 0; stroke: #1f77b4"/>
     <use xlink:href="#mcc634e83aa" x="282.655751" y="283.780405" style="fill-opacity: 0; stroke: #1f77b4"/>
     <use xlink:href="#mcc634e83aa" x="284.287181" y="283.582693" style="fill-opacity: 0; stroke: #1f77b4"/>
     <use xlink:href="#mcc634e83aa" x="285.918611" y="281.610989" style="fill-opacity: 0; stroke: #1f77b4"/>
     <use xlink:href="#mcc634e83aa" x="287.550041" y="282.317877" style="fill-opacity: 0; stroke: #1f77b4"/>
     <use xlink:href="#mcc634e83aa" x="289.181471" y="287.173409" style="fill-opacity: 0; stroke: #1f77b4"/>
     <use xlink:href="#mcc634e83aa" x="290.812901" y="282.301928" style="fill-opacity: 0; stroke: #1f77b4"/>
     <use xlink:href="#mcc634e83aa" x="292.444331" y="283.936588" style="fill-opacity: 0; stroke: #1f77b4"/>
     <use xlink:href="#mcc634e83aa" x="294.075761" y="282.143487" style="fill-opacity: 0; stroke: #1f77b4"/>
     <use xlink:href="#mcc634e83aa" x="295.70719" y="280.425769" style="fill-opacity: 0; stroke: #1f77b4"/>
     <use xlink:href="#mcc634e83aa" x="297.33862" y="282.649654" style="fill-opacity: 0; stroke: #1f77b4"/>
     <use xlink:href="#mcc634e83aa" x="298.97005" y="284.028974" style="fill-opacity: 0; stroke: #1f77b4"/>
     <use xlink:href="#mcc634e83aa" x="300.60148" y="280.753032" style="fill-opacity: 0; stroke: #1f77b4"/>
     <use xlink:href="#mcc634e83aa" x="302.23291" y="281.413126" style="fill-opacity: 0; stroke: #1f77b4"/>
     <use xlink:href="#mcc634e83aa" x="303.86434" y="283.936889" style="fill-opacity: 0; stroke: #1f77b4"/>
     <use xlink:href="#mcc634e83aa" x="305.49577" y="287.599829" style="fill-opacity: 0; stroke: #1f77b4"/>
     <use xlink:href="#mcc634e83aa" x="307.1272" y="288.230582" style="fill-opacity: 0; stroke: #1f77b4"/>
     <use xlink:href="#mcc634e83aa" x="308.75863" y="284.874141" style="fill-opacity: 0; stroke: #1f77b4"/>
     <use xlink:href="#mcc634e83aa" x="310.390059" y="285.638206" style="fill-opacity: 0; stroke: #1f77b4"/>
     <use xlink:href="#mcc634e83aa" x="312.021489" y="283.867073" style="fill-opacity: 0; stroke: #1f77b4"/>
     <use xlink:href="#mcc634e83aa" x="313.652919" y="283.233311" style="fill-opacity: 0; stroke: #1f77b4"/>
     <use xlink:href="#mcc634e83aa" x="315.284349" y="289.897593" style="fill-opacity: 0; stroke: #1f77b4"/>
     <use xlink:href="#mcc634e83aa" x="316.915779" y="291.399242" style="fill-opacity: 0; stroke: #1f77b4"/>
     <use xlink:href="#mcc634e83aa" x="318.547209" y="291.858012" style="fill-opacity: 0; stroke: #1f77b4"/>
     <use xlink:href="#mcc634e83aa" x="320.178639" y="287.053187" style="fill-opacity: 0; stroke: #1f77b4"/>
     <use xlink:href="#mcc634e83aa" x="321.810069" y="286.843739" style="fill-opacity: 0; stroke: #1f77b4"/>
     <use xlink:href="#mcc634e83aa" x="323.441498" y="284.861201" style="fill-opacity: 0; stroke: #1f77b4"/>
     <use xlink:href="#mcc634e83aa" x="325.072928" y="288.55634" style="fill-opacity: 0; stroke: #1f77b4"/>
     <use xlink:href="#mcc634e83aa" x="326.704358" y="287.699739" style="fill-opacity: 0; stroke: #1f77b4"/>
     <use xlink:href="#mcc634e83aa" x="328.335788" y="288.043553" style="fill-opacity: 0; stroke: #1f77b4"/>
     <use xlink:href="#mcc634e83aa" x="329.967218" y="291.363581" style="fill-opacity: 0; stroke: #1f77b4"/>
     <use xlink:href="#mcc634e83aa" x="331.598648" y="287.589146" style="fill-opacity: 0; stroke: #1f77b4"/>
     <use xlink:href="#mcc634e83aa" x="333.230078" y="288.002927" style="fill-opacity: 0; stroke: #1f77b4"/>
     <use xlink:href="#mcc634e83aa" x="334.861508" y="288.306868" style="fill-opacity: 0; stroke: #1f77b4"/>
     <use xlink:href="#mcc634e83aa" x="336.492937" y="290.163767" style="fill-opacity: 0; stroke: #1f77b4"/>
     <use xlink:href="#mcc634e83aa" x="338.124367" y="286.531522" style="fill-opacity: 0; stroke: #1f77b4"/>
     <use xlink:href="#mcc634e83aa" x="339.755797" y="288.196276" style="fill-opacity: 0; stroke: #1f77b4"/>
     <use xlink:href="#mcc634e83aa" x="341.387227" y="285.699898" style="fill-opacity: 0; stroke: #1f77b4"/>
     <use xlink:href="#mcc634e83aa" x="343.018657" y="289.943936" style="fill-opacity: 0; stroke: #1f77b4"/>
     <use xlink:href="#mcc634e83aa" x="344.650087" y="289.018271" style="fill-opacity: 0; stroke: #1f77b4"/>
     <use xlink:href="#mcc634e83aa" x="346.281517" y="287.448461" style="fill-opacity: 0; stroke: #1f77b4"/>
     <use xlink:href="#mcc634e83aa" x="347.912947" y="287.296039" style="fill-opacity: 0; stroke: #1f77b4"/>
     <use xlink:href="#mcc634e83aa" x="349.544376" y="290.561147" style="fill-opacity: 0; stroke: #1f77b4"/>
     <use xlink:href="#mcc634e83aa" x="351.175806" y="291.497797" style="fill-opacity: 0; stroke: #1f77b4"/>
     <use xlink:href="#mcc634e83aa" x="352.807236" y="289.815288" style="fill-opacity: 0; stroke: #1f77b4"/>
     <use xlink:href="#mcc634e83aa" x="354.438666" y="287.195377" style="fill-opacity: 0; stroke: #1f77b4"/>
     <use xlink:href="#mcc634e83aa" x="356.070096" y="287.218399" style="fill-opacity: 0; stroke: #1f77b4"/>
     <use xlink:href="#mcc634e83aa" x="357.701526" y="286.971183" style="fill-opacity: 0; stroke: #1f77b4"/>
     <use xlink:href="#mcc634e83aa" x="359.332956" y="291.758554" style="fill-opacity: 0; stroke: #1f77b4"/>
     <use xlink:href="#mcc634e83aa" x="360.964386" y="288.923177" style="fill-opacity: 0; stroke: #1f77b4"/>
     <use xlink:href="#mcc634e83aa" x="362.595815" y="287.818456" style="fill-opacity: 0; stroke: #1f77b4"/>
     <use xlink:href="#mcc634e83aa" x="364.227245" y="289.192661" style="fill-opacity: 0; stroke: #1f77b4"/>
     <use xlink:href="#mcc634e83aa" x="365.858675" y="289.69326" style="fill-opacity: 0; stroke: #1f77b4"/>
     <use xlink:href="#mcc634e83aa" x="367.490105" y="290.460786" style="fill-opacity: 0; stroke: #1f77b4"/>
     <use xlink:href="#mcc634e83aa" x="369.121535" y="285.799807" style="fill-opacity: 0; stroke: #1f77b4"/>
     <use xlink:href="#mcc634e83aa" x="370.752965" y="294.97762" style="fill-opacity: 0; stroke: #1f77b4"/>
     <use xlink:href="#mcc634e83aa" x="372.384395" y="288.521884" style="fill-opacity: 0; stroke: #1f77b4"/>
     <use xlink:href="#mcc634e83aa" x="374.015825" y="292.451901" style="fill-opacity: 0; stroke: #1f77b4"/>
     <use xlink:href="#mcc634e83aa" x="375.647254" y="293.4853" style="fill-opacity: 0; stroke: #1f77b4"/>
     <use xlink:href="#mcc634e83aa" x="377.278684" y="289.263981" style="fill-opacity: 0; stroke: #1f77b4"/>
     <use xlink:href="#mcc634e83aa" x="378.910114" y="294.857548" style="fill-opacity: 0; stroke: #1f77b4"/>
     <use xlink:href="#mcc634e83aa" x="380.541544" y="287.442292" style="fill-opacity: 0; stroke: #1f77b4"/>
     <use xlink:href="#mcc634e83aa" x="382.172974" y="294.399681" style="fill-opacity: 0; stroke: #1f77b4"/>
     <use xlink:href="#mcc634e83aa" x="383.804404" y="292.214616" style="fill-opacity: 0; stroke: #1f77b4"/>
     <use xlink:href="#mcc634e83aa" x="385.435834" y="288.686644" style="fill-opacity: 0; stroke: #1f77b4"/>
     <use xlink:href="#mcc634e83aa" x="387.067264" y="292.817834" style="fill-opacity: 0; stroke: #1f77b4"/>
     <use xlink:href="#mcc634e83aa" x="388.698693" y="291.543539" style="fill-opacity: 0; stroke: #1f77b4"/>
     <use xlink:href="#mcc634e83aa" x="390.330123" y="294.13125" style="fill-opacity: 0; stroke: #1f77b4"/>
     <use xlink:href="#mcc634e83aa" x="391.961553" y="295.488" style="fill-opacity: 0; stroke: #1f77b4"/>
     <use xlink:href="#mcc634e83aa" x="393.592983" y="289.752694" style="fill-opacity: 0; stroke: #1f77b4"/>
     <use xlink:href="#mcc634e83aa" x="395.224413" y="294.261704" style="fill-opacity: 0; stroke: #1f77b4"/>
     <use xlink:href="#mcc634e83aa" x="396.855843" y="293.824149" style="fill-opacity: 0; stroke: #1f77b4"/>
     <use xlink:href="#mcc634e83aa" x="398.487273" y="287.651891" style="fill-opacity: 0; stroke: #1f77b4"/>
    </g>
   </g>
   <g id="patch_3">
    <path d="M 57.6 307.584 
L 57.6 41.472 
" style="fill: none; stroke: #000000; stroke-width: 0.8; stroke-linejoin: miter; stroke-linecap: square"/>
   </g>
   <g id="patch_4">
    <path d="M 414.72 307.584 
L 414.72 41.472 
" style="fill: none; stroke: #000000; stroke-width: 0.8; stroke-linejoin: miter; stroke-linecap: square"/>
   </g>
   <g id="patch_5">
    <path d="M 57.6 307.584 
L 414.72 307.584 
" style="fill: none; stroke: #000000; stroke-width: 0.8; stroke-linejoin: miter; stroke-linecap: square"/>
   </g>
   <g id="patch_6">
    <path d="M 57.6 41.472 
L 414.72 41.472 
" style="fill: none; stroke: #000000; stroke-width: 0.8; stroke-linejoin: miter; stroke-linecap: square"/>
   </g>
  </g>
 </g>
 <defs>
  <clipPath id="pdbfd1456f4">
   <rect x="57.6" y="41.472" width="357.12" height="266.112"/>
  </clipPath>
 </defs>
</svg>
