<?xml version="1.0" encoding="utf-8" standalone="no"?>
<!DOCTYPE svg PUBLIC "-//W3C//DTD SVG 1.1//EN"
  "http://www.w3.org/Graphics/SVG/1.1/DTD/svg11.dtd">
<!-- Created with matplotlib (http://matplotlib.org/) -->
<svg height="432pt" version="1.1" viewBox="0 0 648 432" width="648pt" xmlns="http://www.w3.org/2000/svg" xmlns:xlink="http://www.w3.org/1999/xlink">
 <defs>
  <style type="text/css">
*{stroke-linecap:butt;stroke-linejoin:round;}
  </style>
 </defs>
 <g id="figure_1">
  <g id="patch_1">
   <path d="M 0 432 
L 648 432 
L 648 0 
L 0 0 
z
" style="fill:#ffffff;"/>
  </g>
  <g id="axes_1">
   <g id="patch_2">
    <path d="M 81 384.48 
L 583.2 384.48 
L 583.2 51.84 
L 81 51.84 
z
" style="fill:#ffffff;"/>
   </g>
   <g id="matplotlib.axis_1">
    <g id="xtick_1">
     <g id="line2d_1">
      <defs>
       <path d="M 0 0 
L 0 3.5 
" id="m10211ebf79" style="stroke:#000000;stroke-width:0.8;"/>
      </defs>
      <g>
       <use style="stroke:#000000;stroke-width:0.8;" x="103.827273" xlink:href="#m10211ebf79" y="384.48"/>
      </g>
     </g>
     <g id="text_1">
      <!-- 2600 -->
      <defs>
       <path d="M 19.1875 8.296875 
L 53.609375 8.296875 
L 53.609375 0 
L 7.328125 0 
L 7.328125 8.296875 
Q 12.9375 14.109375 22.625 23.890625 
Q 32.328125 33.6875 34.8125 36.53125 
Q 39.546875 41.84375 41.421875 45.53125 
Q 43.3125 49.21875 43.3125 52.78125 
Q 43.3125 58.59375 39.234375 62.25 
Q 35.15625 65.921875 28.609375 65.921875 
Q 23.96875 65.921875 18.8125 64.3125 
Q 13.671875 62.703125 7.8125 59.421875 
L 7.8125 69.390625 
Q 13.765625 71.78125 18.9375 73 
Q 24.125 74.21875 28.421875 74.21875 
Q 39.75 74.21875 46.484375 68.546875 
Q 53.21875 62.890625 53.21875 53.421875 
Q 53.21875 48.921875 51.53125 44.890625 
Q 49.859375 40.875 45.40625 35.40625 
Q 44.1875 33.984375 37.640625 27.21875 
Q 31.109375 20.453125 19.1875 8.296875 
z
" id="DejaVuSans-32"/>
       <path d="M 33.015625 40.375 
Q 26.375 40.375 22.484375 35.828125 
Q 18.609375 31.296875 18.609375 23.390625 
Q 18.609375 15.53125 22.484375 10.953125 
Q 26.375 6.390625 33.015625 6.390625 
Q 39.65625 6.390625 43.53125 10.953125 
Q 47.40625 15.53125 47.40625 23.390625 
Q 47.40625 31.296875 43.53125 35.828125 
Q 39.65625 40.375 33.015625 40.375 
z
M 52.59375 71.296875 
L 52.59375 62.3125 
Q 48.875 64.0625 45.09375 64.984375 
Q 41.3125 65.921875 37.59375 65.921875 
Q 27.828125 65.921875 22.671875 59.328125 
Q 17.53125 52.734375 16.796875 39.40625 
Q 19.671875 43.65625 24.015625 45.921875 
Q 28.375 48.1875 33.59375 48.1875 
Q 44.578125 48.1875 50.953125 41.515625 
Q 57.328125 34.859375 57.328125 23.390625 
Q 57.328125 12.15625 50.6875 5.359375 
Q 44.046875 -1.421875 33.015625 -1.421875 
Q 20.359375 -1.421875 13.671875 8.265625 
Q 6.984375 17.96875 6.984375 36.375 
Q 6.984375 53.65625 15.1875 63.9375 
Q 23.390625 74.21875 37.203125 74.21875 
Q 40.921875 74.21875 44.703125 73.484375 
Q 48.484375 72.75 52.59375 71.296875 
z
" id="DejaVuSans-36"/>
       <path d="M 31.78125 66.40625 
Q 24.171875 66.40625 20.328125 58.90625 
Q 16.5 51.421875 16.5 36.375 
Q 16.5 21.390625 20.328125 13.890625 
Q 24.171875 6.390625 31.78125 6.390625 
Q 39.453125 6.390625 43.28125 13.890625 
Q 47.125 21.390625 47.125 36.375 
Q 47.125 51.421875 43.28125 58.90625 
Q 39.453125 66.40625 31.78125 66.40625 
z
M 31.78125 74.21875 
Q 44.046875 74.21875 50.515625 64.515625 
Q 56.984375 54.828125 56.984375 36.375 
Q 56.984375 17.96875 50.515625 8.265625 
Q 44.046875 -1.421875 31.78125 -1.421875 
Q 19.53125 -1.421875 13.0625 8.265625 
Q 6.59375 17.96875 6.59375 36.375 
Q 6.59375 54.828125 13.0625 64.515625 
Q 19.53125 74.21875 31.78125 74.21875 
z
" id="DejaVuSans-30"/>
      </defs>
      <g transform="translate(84.739773 402.877656)scale(0.15 -0.15)">
       <use xlink:href="#DejaVuSans-32"/>
       <use x="63.623047" xlink:href="#DejaVuSans-36"/>
       <use x="127.246094" xlink:href="#DejaVuSans-30"/>
       <use x="190.869141" xlink:href="#DejaVuSans-30"/>
      </g>
     </g>
    </g>
    <g id="xtick_2">
     <g id="line2d_2">
      <g>
       <use style="stroke:#000000;stroke-width:0.8;" x="179.918182" xlink:href="#m10211ebf79" y="384.48"/>
      </g>
     </g>
     <g id="text_2">
      <!-- 2700 -->
      <defs>
       <path d="M 8.203125 72.90625 
L 55.078125 72.90625 
L 55.078125 68.703125 
L 28.609375 0 
L 18.3125 0 
L 43.21875 64.59375 
L 8.203125 64.59375 
z
" id="DejaVuSans-37"/>
      </defs>
      <g transform="translate(160.830682 402.877656)scale(0.15 -0.15)">
       <use xlink:href="#DejaVuSans-32"/>
       <use x="63.623047" xlink:href="#DejaVuSans-37"/>
       <use x="127.246094" xlink:href="#DejaVuSans-30"/>
       <use x="190.869141" xlink:href="#DejaVuSans-30"/>
      </g>
     </g>
    </g>
    <g id="xtick_3">
     <g id="line2d_3">
      <g>
       <use style="stroke:#000000;stroke-width:0.8;" x="256.009091" xlink:href="#m10211ebf79" y="384.48"/>
      </g>
     </g>
     <g id="text_3">
      <!-- 2800 -->
      <defs>
       <path d="M 31.78125 34.625 
Q 24.75 34.625 20.71875 30.859375 
Q 16.703125 27.09375 16.703125 20.515625 
Q 16.703125 13.921875 20.71875 10.15625 
Q 24.75 6.390625 31.78125 6.390625 
Q 38.8125 6.390625 42.859375 10.171875 
Q 46.921875 13.96875 46.921875 20.515625 
Q 46.921875 27.09375 42.890625 30.859375 
Q 38.875 34.625 31.78125 34.625 
z
M 21.921875 38.8125 
Q 15.578125 40.375 12.03125 44.71875 
Q 8.5 49.078125 8.5 55.328125 
Q 8.5 64.0625 14.71875 69.140625 
Q 20.953125 74.21875 31.78125 74.21875 
Q 42.671875 74.21875 48.875 69.140625 
Q 55.078125 64.0625 55.078125 55.328125 
Q 55.078125 49.078125 51.53125 44.71875 
Q 48 40.375 41.703125 38.8125 
Q 48.828125 37.15625 52.796875 32.3125 
Q 56.78125 27.484375 56.78125 20.515625 
Q 56.78125 9.90625 50.3125 4.234375 
Q 43.84375 -1.421875 31.78125 -1.421875 
Q 19.734375 -1.421875 13.25 4.234375 
Q 6.78125 9.90625 6.78125 20.515625 
Q 6.78125 27.484375 10.78125 32.3125 
Q 14.796875 37.15625 21.921875 38.8125 
z
M 18.3125 54.390625 
Q 18.3125 48.734375 21.84375 45.5625 
Q 25.390625 42.390625 31.78125 42.390625 
Q 38.140625 42.390625 41.71875 45.5625 
Q 45.3125 48.734375 45.3125 54.390625 
Q 45.3125 60.0625 41.71875 63.234375 
Q 38.140625 66.40625 31.78125 66.40625 
Q 25.390625 66.40625 21.84375 63.234375 
Q 18.3125 60.0625 18.3125 54.390625 
z
" id="DejaVuSans-38"/>
      </defs>
      <g transform="translate(236.921591 402.877656)scale(0.15 -0.15)">
       <use xlink:href="#DejaVuSans-32"/>
       <use x="63.623047" xlink:href="#DejaVuSans-38"/>
       <use x="127.246094" xlink:href="#DejaVuSans-30"/>
       <use x="190.869141" xlink:href="#DejaVuSans-30"/>
      </g>
     </g>
    </g>
    <g id="xtick_4">
     <g id="line2d_4">
      <g>
       <use style="stroke:#000000;stroke-width:0.8;" x="332.1" xlink:href="#m10211ebf79" y="384.48"/>
      </g>
     </g>
     <g id="text_4">
      <!-- 2900 -->
      <defs>
       <path d="M 10.984375 1.515625 
L 10.984375 10.5 
Q 14.703125 8.734375 18.5 7.8125 
Q 22.3125 6.890625 25.984375 6.890625 
Q 35.75 6.890625 40.890625 13.453125 
Q 46.046875 20.015625 46.78125 33.40625 
Q 43.953125 29.203125 39.59375 26.953125 
Q 35.25 24.703125 29.984375 24.703125 
Q 19.046875 24.703125 12.671875 31.3125 
Q 6.296875 37.9375 6.296875 49.421875 
Q 6.296875 60.640625 12.9375 67.421875 
Q 19.578125 74.21875 30.609375 74.21875 
Q 43.265625 74.21875 49.921875 64.515625 
Q 56.59375 54.828125 56.59375 36.375 
Q 56.59375 19.140625 48.40625 8.859375 
Q 40.234375 -1.421875 26.421875 -1.421875 
Q 22.703125 -1.421875 18.890625 -0.6875 
Q 15.09375 0.046875 10.984375 1.515625 
z
M 30.609375 32.421875 
Q 37.25 32.421875 41.125 36.953125 
Q 45.015625 41.5 45.015625 49.421875 
Q 45.015625 57.28125 41.125 61.84375 
Q 37.25 66.40625 30.609375 66.40625 
Q 23.96875 66.40625 20.09375 61.84375 
Q 16.21875 57.28125 16.21875 49.421875 
Q 16.21875 41.5 20.09375 36.953125 
Q 23.96875 32.421875 30.609375 32.421875 
z
" id="DejaVuSans-39"/>
      </defs>
      <g transform="translate(313.0125 402.877656)scale(0.15 -0.15)">
       <use xlink:href="#DejaVuSans-32"/>
       <use x="63.623047" xlink:href="#DejaVuSans-39"/>
       <use x="127.246094" xlink:href="#DejaVuSans-30"/>
       <use x="190.869141" xlink:href="#DejaVuSans-30"/>
      </g>
     </g>
    </g>
    <g id="xtick_5">
     <g id="line2d_5">
      <g>
       <use style="stroke:#000000;stroke-width:0.8;" x="408.190909" xlink:href="#m10211ebf79" y="384.48"/>
      </g>
     </g>
     <g id="text_5">
      <!-- 3000 -->
      <defs>
       <path d="M 40.578125 39.3125 
Q 47.65625 37.796875 51.625 33 
Q 55.609375 28.21875 55.609375 21.1875 
Q 55.609375 10.40625 48.1875 4.484375 
Q 40.765625 -1.421875 27.09375 -1.421875 
Q 22.515625 -1.421875 17.65625 -0.515625 
Q 12.796875 0.390625 7.625 2.203125 
L 7.625 11.71875 
Q 11.71875 9.328125 16.59375 8.109375 
Q 21.484375 6.890625 26.8125 6.890625 
Q 36.078125 6.890625 40.9375 10.546875 
Q 45.796875 14.203125 45.796875 21.1875 
Q 45.796875 27.640625 41.28125 31.265625 
Q 36.765625 34.90625 28.71875 34.90625 
L 20.21875 34.90625 
L 20.21875 43.015625 
L 29.109375 43.015625 
Q 36.375 43.015625 40.234375 45.921875 
Q 44.09375 48.828125 44.09375 54.296875 
Q 44.09375 59.90625 40.109375 62.90625 
Q 36.140625 65.921875 28.71875 65.921875 
Q 24.65625 65.921875 20.015625 65.03125 
Q 15.375 64.15625 9.8125 62.3125 
L 9.8125 71.09375 
Q 15.4375 72.65625 20.34375 73.4375 
Q 25.25 74.21875 29.59375 74.21875 
Q 40.828125 74.21875 47.359375 69.109375 
Q 53.90625 64.015625 53.90625 55.328125 
Q 53.90625 49.265625 50.4375 45.09375 
Q 46.96875 40.921875 40.578125 39.3125 
z
" id="DejaVuSans-33"/>
      </defs>
      <g transform="translate(389.103409 402.877656)scale(0.15 -0.15)">
       <use xlink:href="#DejaVuSans-33"/>
       <use x="63.623047" xlink:href="#DejaVuSans-30"/>
       <use x="127.246094" xlink:href="#DejaVuSans-30"/>
       <use x="190.869141" xlink:href="#DejaVuSans-30"/>
      </g>
     </g>
    </g>
    <g id="xtick_6">
     <g id="line2d_6">
      <g>
       <use style="stroke:#000000;stroke-width:0.8;" x="484.281818" xlink:href="#m10211ebf79" y="384.48"/>
      </g>
     </g>
     <g id="text_6">
      <!-- 3100 -->
      <defs>
       <path d="M 12.40625 8.296875 
L 28.515625 8.296875 
L 28.515625 63.921875 
L 10.984375 60.40625 
L 10.984375 69.390625 
L 28.421875 72.90625 
L 38.28125 72.90625 
L 38.28125 8.296875 
L 54.390625 8.296875 
L 54.390625 0 
L 12.40625 0 
z
" id="DejaVuSans-31"/>
      </defs>
      <g transform="translate(465.194318 402.877656)scale(0.15 -0.15)">
       <use xlink:href="#DejaVuSans-33"/>
       <use x="63.623047" xlink:href="#DejaVuSans-31"/>
       <use x="127.246094" xlink:href="#DejaVuSans-30"/>
       <use x="190.869141" xlink:href="#DejaVuSans-30"/>
      </g>
     </g>
    </g>
    <g id="xtick_7">
     <g id="line2d_7">
      <g>
       <use style="stroke:#000000;stroke-width:0.8;" x="560.372727" xlink:href="#m10211ebf79" y="384.48"/>
      </g>
     </g>
     <g id="text_7">
      <!-- 3200 -->
      <g transform="translate(541.285227 402.877656)scale(0.15 -0.15)">
       <use xlink:href="#DejaVuSans-33"/>
       <use x="63.623047" xlink:href="#DejaVuSans-32"/>
       <use x="127.246094" xlink:href="#DejaVuSans-30"/>
       <use x="190.869141" xlink:href="#DejaVuSans-30"/>
      </g>
     </g>
    </g>
    <g id="text_8">
     <!-- Microwave frequency (MHz) -->
     <defs>
      <path d="M 9.8125 72.90625 
L 24.515625 72.90625 
L 43.109375 23.296875 
L 61.8125 72.90625 
L 76.515625 72.90625 
L 76.515625 0 
L 66.890625 0 
L 66.890625 64.015625 
L 48.09375 14.015625 
L 38.1875 14.015625 
L 19.390625 64.015625 
L 19.390625 0 
L 9.8125 0 
z
" id="DejaVuSans-4d"/>
      <path d="M 9.421875 54.6875 
L 18.40625 54.6875 
L 18.40625 0 
L 9.421875 0 
z
M 9.421875 75.984375 
L 18.40625 75.984375 
L 18.40625 64.59375 
L 9.421875 64.59375 
z
" id="DejaVuSans-69"/>
      <path d="M 48.78125 52.59375 
L 48.78125 44.1875 
Q 44.96875 46.296875 41.140625 47.34375 
Q 37.3125 48.390625 33.40625 48.390625 
Q 24.65625 48.390625 19.8125 42.84375 
Q 14.984375 37.3125 14.984375 27.296875 
Q 14.984375 17.28125 19.8125 11.734375 
Q 24.65625 6.203125 33.40625 6.203125 
Q 37.3125 6.203125 41.140625 7.25 
Q 44.96875 8.296875 48.78125 10.40625 
L 48.78125 2.09375 
Q 45.015625 0.34375 40.984375 -0.53125 
Q 36.96875 -1.421875 32.421875 -1.421875 
Q 20.0625 -1.421875 12.78125 6.34375 
Q 5.515625 14.109375 5.515625 27.296875 
Q 5.515625 40.671875 12.859375 48.328125 
Q 20.21875 56 33.015625 56 
Q 37.15625 56 41.109375 55.140625 
Q 45.0625 54.296875 48.78125 52.59375 
z
" id="DejaVuSans-63"/>
      <path d="M 41.109375 46.296875 
Q 39.59375 47.171875 37.8125 47.578125 
Q 36.03125 48 33.890625 48 
Q 26.265625 48 22.1875 43.046875 
Q 18.109375 38.09375 18.109375 28.8125 
L 18.109375 0 
L 9.078125 0 
L 9.078125 54.6875 
L 18.109375 54.6875 
L 18.109375 46.1875 
Q 20.953125 51.171875 25.484375 53.578125 
Q 30.03125 56 36.53125 56 
Q 37.453125 56 38.578125 55.875 
Q 39.703125 55.765625 41.0625 55.515625 
z
" id="DejaVuSans-72"/>
      <path d="M 30.609375 48.390625 
Q 23.390625 48.390625 19.1875 42.75 
Q 14.984375 37.109375 14.984375 27.296875 
Q 14.984375 17.484375 19.15625 11.84375 
Q 23.34375 6.203125 30.609375 6.203125 
Q 37.796875 6.203125 41.984375 11.859375 
Q 46.1875 17.53125 46.1875 27.296875 
Q 46.1875 37.015625 41.984375 42.703125 
Q 37.796875 48.390625 30.609375 48.390625 
z
M 30.609375 56 
Q 42.328125 56 49.015625 48.375 
Q 55.71875 40.765625 55.71875 27.296875 
Q 55.71875 13.875 49.015625 6.21875 
Q 42.328125 -1.421875 30.609375 -1.421875 
Q 18.84375 -1.421875 12.171875 6.21875 
Q 5.515625 13.875 5.515625 27.296875 
Q 5.515625 40.765625 12.171875 48.375 
Q 18.84375 56 30.609375 56 
z
" id="DejaVuSans-6f"/>
      <path d="M 4.203125 54.6875 
L 13.1875 54.6875 
L 24.421875 12.015625 
L 35.59375 54.6875 
L 46.1875 54.6875 
L 57.421875 12.015625 
L 68.609375 54.6875 
L 77.59375 54.6875 
L 63.28125 0 
L 52.6875 0 
L 40.921875 44.828125 
L 29.109375 0 
L 18.5 0 
z
" id="DejaVuSans-77"/>
      <path d="M 34.28125 27.484375 
Q 23.390625 27.484375 19.1875 25 
Q 14.984375 22.515625 14.984375 16.5 
Q 14.984375 11.71875 18.140625 8.90625 
Q 21.296875 6.109375 26.703125 6.109375 
Q 34.1875 6.109375 38.703125 11.40625 
Q 43.21875 16.703125 43.21875 25.484375 
L 43.21875 27.484375 
z
M 52.203125 31.203125 
L 52.203125 0 
L 43.21875 0 
L 43.21875 8.296875 
Q 40.140625 3.328125 35.546875 0.953125 
Q 30.953125 -1.421875 24.3125 -1.421875 
Q 15.921875 -1.421875 10.953125 3.296875 
Q 6 8.015625 6 15.921875 
Q 6 25.140625 12.171875 29.828125 
Q 18.359375 34.515625 30.609375 34.515625 
L 43.21875 34.515625 
L 43.21875 35.40625 
Q 43.21875 41.609375 39.140625 45 
Q 35.0625 48.390625 27.6875 48.390625 
Q 23 48.390625 18.546875 47.265625 
Q 14.109375 46.140625 10.015625 43.890625 
L 10.015625 52.203125 
Q 14.9375 54.109375 19.578125 55.046875 
Q 24.21875 56 28.609375 56 
Q 40.484375 56 46.34375 49.84375 
Q 52.203125 43.703125 52.203125 31.203125 
z
" id="DejaVuSans-61"/>
      <path d="M 2.984375 54.6875 
L 12.5 54.6875 
L 29.59375 8.796875 
L 46.6875 54.6875 
L 56.203125 54.6875 
L 35.6875 0 
L 23.484375 0 
z
" id="DejaVuSans-76"/>
      <path d="M 56.203125 29.59375 
L 56.203125 25.203125 
L 14.890625 25.203125 
Q 15.484375 15.921875 20.484375 11.0625 
Q 25.484375 6.203125 34.421875 6.203125 
Q 39.59375 6.203125 44.453125 7.46875 
Q 49.3125 8.734375 54.109375 11.28125 
L 54.109375 2.78125 
Q 49.265625 0.734375 44.1875 -0.34375 
Q 39.109375 -1.421875 33.890625 -1.421875 
Q 20.796875 -1.421875 13.15625 6.1875 
Q 5.515625 13.8125 5.515625 26.8125 
Q 5.515625 40.234375 12.765625 48.109375 
Q 20.015625 56 32.328125 56 
Q 43.359375 56 49.78125 48.890625 
Q 56.203125 41.796875 56.203125 29.59375 
z
M 47.21875 32.234375 
Q 47.125 39.59375 43.09375 43.984375 
Q 39.0625 48.390625 32.421875 48.390625 
Q 24.90625 48.390625 20.390625 44.140625 
Q 15.875 39.890625 15.1875 32.171875 
z
" id="DejaVuSans-65"/>
      <path id="DejaVuSans-20"/>
      <path d="M 37.109375 75.984375 
L 37.109375 68.5 
L 28.515625 68.5 
Q 23.6875 68.5 21.796875 66.546875 
Q 19.921875 64.59375 19.921875 59.515625 
L 19.921875 54.6875 
L 34.71875 54.6875 
L 34.71875 47.703125 
L 19.921875 47.703125 
L 19.921875 0 
L 10.890625 0 
L 10.890625 47.703125 
L 2.296875 47.703125 
L 2.296875 54.6875 
L 10.890625 54.6875 
L 10.890625 58.5 
Q 10.890625 67.625 15.140625 71.796875 
Q 19.390625 75.984375 28.609375 75.984375 
z
" id="DejaVuSans-66"/>
      <path d="M 14.796875 27.296875 
Q 14.796875 17.390625 18.875 11.75 
Q 22.953125 6.109375 30.078125 6.109375 
Q 37.203125 6.109375 41.296875 11.75 
Q 45.40625 17.390625 45.40625 27.296875 
Q 45.40625 37.203125 41.296875 42.84375 
Q 37.203125 48.484375 30.078125 48.484375 
Q 22.953125 48.484375 18.875 42.84375 
Q 14.796875 37.203125 14.796875 27.296875 
z
M 45.40625 8.203125 
Q 42.578125 3.328125 38.25 0.953125 
Q 33.9375 -1.421875 27.875 -1.421875 
Q 17.96875 -1.421875 11.734375 6.484375 
Q 5.515625 14.40625 5.515625 27.296875 
Q 5.515625 40.1875 11.734375 48.09375 
Q 17.96875 56 27.875 56 
Q 33.9375 56 38.25 53.625 
Q 42.578125 51.265625 45.40625 46.390625 
L 45.40625 54.6875 
L 54.390625 54.6875 
L 54.390625 -20.796875 
L 45.40625 -20.796875 
z
" id="DejaVuSans-71"/>
      <path d="M 8.5 21.578125 
L 8.5 54.6875 
L 17.484375 54.6875 
L 17.484375 21.921875 
Q 17.484375 14.15625 20.5 10.265625 
Q 23.53125 6.390625 29.59375 6.390625 
Q 36.859375 6.390625 41.078125 11.03125 
Q 45.3125 15.671875 45.3125 23.6875 
L 45.3125 54.6875 
L 54.296875 54.6875 
L 54.296875 0 
L 45.3125 0 
L 45.3125 8.40625 
Q 42.046875 3.421875 37.71875 1 
Q 33.40625 -1.421875 27.6875 -1.421875 
Q 18.265625 -1.421875 13.375 4.4375 
Q 8.5 10.296875 8.5 21.578125 
z
M 31.109375 56 
z
" id="DejaVuSans-75"/>
      <path d="M 54.890625 33.015625 
L 54.890625 0 
L 45.90625 0 
L 45.90625 32.71875 
Q 45.90625 40.484375 42.875 44.328125 
Q 39.84375 48.1875 33.796875 48.1875 
Q 26.515625 48.1875 22.3125 43.546875 
Q 18.109375 38.921875 18.109375 30.90625 
L 18.109375 0 
L 9.078125 0 
L 9.078125 54.6875 
L 18.109375 54.6875 
L 18.109375 46.1875 
Q 21.34375 51.125 25.703125 53.5625 
Q 30.078125 56 35.796875 56 
Q 45.21875 56 50.046875 50.171875 
Q 54.890625 44.34375 54.890625 33.015625 
z
" id="DejaVuSans-6e"/>
      <path d="M 32.171875 -5.078125 
Q 28.375 -14.84375 24.75 -17.8125 
Q 21.140625 -20.796875 15.09375 -20.796875 
L 7.90625 -20.796875 
L 7.90625 -13.28125 
L 13.1875 -13.28125 
Q 16.890625 -13.28125 18.9375 -11.515625 
Q 21 -9.765625 23.484375 -3.21875 
L 25.09375 0.875 
L 2.984375 54.6875 
L 12.5 54.6875 
L 29.59375 11.921875 
L 46.6875 54.6875 
L 56.203125 54.6875 
z
" id="DejaVuSans-79"/>
      <path d="M 31 75.875 
Q 24.46875 64.65625 21.28125 53.65625 
Q 18.109375 42.671875 18.109375 31.390625 
Q 18.109375 20.125 21.3125 9.0625 
Q 24.515625 -2 31 -13.1875 
L 23.1875 -13.1875 
Q 15.875 -1.703125 12.234375 9.375 
Q 8.59375 20.453125 8.59375 31.390625 
Q 8.59375 42.28125 12.203125 53.3125 
Q 15.828125 64.359375 23.1875 75.875 
z
" id="DejaVuSans-28"/>
      <path d="M 9.8125 72.90625 
L 19.671875 72.90625 
L 19.671875 43.015625 
L 55.515625 43.015625 
L 55.515625 72.90625 
L 65.375 72.90625 
L 65.375 0 
L 55.515625 0 
L 55.515625 34.71875 
L 19.671875 34.71875 
L 19.671875 0 
L 9.8125 0 
z
" id="DejaVuSans-48"/>
      <path d="M 5.515625 54.6875 
L 48.1875 54.6875 
L 48.1875 46.484375 
L 14.40625 7.171875 
L 48.1875 7.171875 
L 48.1875 0 
L 4.296875 0 
L 4.296875 8.203125 
L 38.09375 47.515625 
L 5.515625 47.515625 
z
" id="DejaVuSans-7a"/>
      <path d="M 8.015625 75.875 
L 15.828125 75.875 
Q 23.140625 64.359375 26.78125 53.3125 
Q 30.421875 42.28125 30.421875 31.390625 
Q 30.421875 20.453125 26.78125 9.375 
Q 23.140625 -1.703125 15.828125 -13.1875 
L 8.015625 -13.1875 
Q 14.5 -2 17.703125 9.0625 
Q 20.90625 20.125 20.90625 31.390625 
Q 20.90625 42.671875 17.703125 53.65625 
Q 14.5 64.65625 8.015625 75.875 
z
" id="DejaVuSans-29"/>
     </defs>
     <g transform="translate(192.659375 425.194063)scale(0.2 -0.2)">
      <use xlink:href="#DejaVuSans-4d"/>
      <use x="86.279297" xlink:href="#DejaVuSans-69"/>
      <use x="114.0625" xlink:href="#DejaVuSans-63"/>
      <use x="169.042969" xlink:href="#DejaVuSans-72"/>
      <use x="210.125" xlink:href="#DejaVuSans-6f"/>
      <use x="271.306641" xlink:href="#DejaVuSans-77"/>
      <use x="353.09375" xlink:href="#DejaVuSans-61"/>
      <use x="414.373047" xlink:href="#DejaVuSans-76"/>
      <use x="473.552734" xlink:href="#DejaVuSans-65"/>
      <use x="535.076172" xlink:href="#DejaVuSans-20"/>
      <use x="566.863281" xlink:href="#DejaVuSans-66"/>
      <use x="602.068359" xlink:href="#DejaVuSans-72"/>
      <use x="643.150391" xlink:href="#DejaVuSans-65"/>
      <use x="704.673828" xlink:href="#DejaVuSans-71"/>
      <use x="768.150391" xlink:href="#DejaVuSans-75"/>
      <use x="831.529297" xlink:href="#DejaVuSans-65"/>
      <use x="893.052734" xlink:href="#DejaVuSans-6e"/>
      <use x="956.431641" xlink:href="#DejaVuSans-63"/>
      <use x="1011.412109" xlink:href="#DejaVuSans-79"/>
      <use x="1070.591797" xlink:href="#DejaVuSans-20"/>
      <use x="1102.378906" xlink:href="#DejaVuSans-28"/>
      <use x="1141.392578" xlink:href="#DejaVuSans-4d"/>
      <use x="1227.671875" xlink:href="#DejaVuSans-48"/>
      <use x="1302.867188" xlink:href="#DejaVuSans-7a"/>
      <use x="1355.357422" xlink:href="#DejaVuSans-29"/>
     </g>
    </g>
   </g>
   <g id="matplotlib.axis_2">
    <g id="ytick_1">
     <g id="line2d_8">
      <defs>
       <path d="M 0 0 
L -3.5 0 
" id="m981ad039b6" style="stroke:#000000;stroke-width:0.8;"/>
      </defs>
      <g>
       <use style="stroke:#000000;stroke-width:0.8;" x="81" xlink:href="#m981ad039b6" y="368.120898"/>
      </g>
     </g>
     <g id="text_9">
      <!-- 0.0 -->
      <defs>
       <path d="M 10.6875 12.40625 
L 21 12.40625 
L 21 0 
L 10.6875 0 
z
" id="DejaVuSans-2e"/>
      </defs>
      <g transform="translate(50.145313 373.819727)scale(0.15 -0.15)">
       <use xlink:href="#DejaVuSans-30"/>
       <use x="63.623047" xlink:href="#DejaVuSans-2e"/>
       <use x="95.410156" xlink:href="#DejaVuSans-30"/>
      </g>
     </g>
    </g>
    <g id="ytick_2">
     <g id="line2d_9">
      <g>
       <use style="stroke:#000000;stroke-width:0.8;" x="81" xlink:href="#m981ad039b6" y="304.46148"/>
      </g>
     </g>
     <g id="text_10">
      <!-- 0.1 -->
      <g transform="translate(50.145313 310.160308)scale(0.15 -0.15)">
       <use xlink:href="#DejaVuSans-30"/>
       <use x="63.623047" xlink:href="#DejaVuSans-2e"/>
       <use x="95.410156" xlink:href="#DejaVuSans-31"/>
      </g>
     </g>
    </g>
    <g id="ytick_3">
     <g id="line2d_10">
      <g>
       <use style="stroke:#000000;stroke-width:0.8;" x="81" xlink:href="#m981ad039b6" y="240.802061"/>
      </g>
     </g>
     <g id="text_11">
      <!-- 0.2 -->
      <g transform="translate(50.145313 246.50089)scale(0.15 -0.15)">
       <use xlink:href="#DejaVuSans-30"/>
       <use x="63.623047" xlink:href="#DejaVuSans-2e"/>
       <use x="95.410156" xlink:href="#DejaVuSans-32"/>
      </g>
     </g>
    </g>
    <g id="ytick_4">
     <g id="line2d_11">
      <g>
       <use style="stroke:#000000;stroke-width:0.8;" x="81" xlink:href="#m981ad039b6" y="177.142643"/>
      </g>
     </g>
     <g id="text_12">
      <!-- 0.3 -->
      <g transform="translate(50.145313 182.841471)scale(0.15 -0.15)">
       <use xlink:href="#DejaVuSans-30"/>
       <use x="63.623047" xlink:href="#DejaVuSans-2e"/>
       <use x="95.410156" xlink:href="#DejaVuSans-33"/>
      </g>
     </g>
    </g>
    <g id="ytick_5">
     <g id="line2d_12">
      <g>
       <use style="stroke:#000000;stroke-width:0.8;" x="81" xlink:href="#m981ad039b6" y="113.483225"/>
      </g>
     </g>
     <g id="text_13">
      <!-- 0.4 -->
      <defs>
       <path d="M 37.796875 64.3125 
L 12.890625 25.390625 
L 37.796875 25.390625 
z
M 35.203125 72.90625 
L 47.609375 72.90625 
L 47.609375 25.390625 
L 58.015625 25.390625 
L 58.015625 17.1875 
L 47.609375 17.1875 
L 47.609375 0 
L 37.796875 0 
L 37.796875 17.1875 
L 4.890625 17.1875 
L 4.890625 26.703125 
z
" id="DejaVuSans-34"/>
      </defs>
      <g transform="translate(50.145313 119.182053)scale(0.15 -0.15)">
       <use xlink:href="#DejaVuSans-30"/>
       <use x="63.623047" xlink:href="#DejaVuSans-2e"/>
       <use x="95.410156" xlink:href="#DejaVuSans-34"/>
      </g>
     </g>
    </g>
    <g id="text_14">
     <!-- Demodulated PL (AU) -->
     <defs>
      <path d="M 19.671875 64.796875 
L 19.671875 8.109375 
L 31.59375 8.109375 
Q 46.6875 8.109375 53.6875 14.9375 
Q 60.6875 21.78125 60.6875 36.53125 
Q 60.6875 51.171875 53.6875 57.984375 
Q 46.6875 64.796875 31.59375 64.796875 
z
M 9.8125 72.90625 
L 30.078125 72.90625 
Q 51.265625 72.90625 61.171875 64.09375 
Q 71.09375 55.28125 71.09375 36.53125 
Q 71.09375 17.671875 61.125 8.828125 
Q 51.171875 0 30.078125 0 
L 9.8125 0 
z
" id="DejaVuSans-44"/>
      <path d="M 52 44.1875 
Q 55.375 50.25 60.0625 53.125 
Q 64.75 56 71.09375 56 
Q 79.640625 56 84.28125 50.015625 
Q 88.921875 44.046875 88.921875 33.015625 
L 88.921875 0 
L 79.890625 0 
L 79.890625 32.71875 
Q 79.890625 40.578125 77.09375 44.375 
Q 74.3125 48.1875 68.609375 48.1875 
Q 61.625 48.1875 57.5625 43.546875 
Q 53.515625 38.921875 53.515625 30.90625 
L 53.515625 0 
L 44.484375 0 
L 44.484375 32.71875 
Q 44.484375 40.625 41.703125 44.40625 
Q 38.921875 48.1875 33.109375 48.1875 
Q 26.21875 48.1875 22.15625 43.53125 
Q 18.109375 38.875 18.109375 30.90625 
L 18.109375 0 
L 9.078125 0 
L 9.078125 54.6875 
L 18.109375 54.6875 
L 18.109375 46.1875 
Q 21.1875 51.21875 25.484375 53.609375 
Q 29.78125 56 35.6875 56 
Q 41.65625 56 45.828125 52.96875 
Q 50 49.953125 52 44.1875 
z
" id="DejaVuSans-6d"/>
      <path d="M 45.40625 46.390625 
L 45.40625 75.984375 
L 54.390625 75.984375 
L 54.390625 0 
L 45.40625 0 
L 45.40625 8.203125 
Q 42.578125 3.328125 38.25 0.953125 
Q 33.9375 -1.421875 27.875 -1.421875 
Q 17.96875 -1.421875 11.734375 6.484375 
Q 5.515625 14.40625 5.515625 27.296875 
Q 5.515625 40.1875 11.734375 48.09375 
Q 17.96875 56 27.875 56 
Q 33.9375 56 38.25 53.625 
Q 42.578125 51.265625 45.40625 46.390625 
z
M 14.796875 27.296875 
Q 14.796875 17.390625 18.875 11.75 
Q 22.953125 6.109375 30.078125 6.109375 
Q 37.203125 6.109375 41.296875 11.75 
Q 45.40625 17.390625 45.40625 27.296875 
Q 45.40625 37.203125 41.296875 42.84375 
Q 37.203125 48.484375 30.078125 48.484375 
Q 22.953125 48.484375 18.875 42.84375 
Q 14.796875 37.203125 14.796875 27.296875 
z
" id="DejaVuSans-64"/>
      <path d="M 9.421875 75.984375 
L 18.40625 75.984375 
L 18.40625 0 
L 9.421875 0 
z
" id="DejaVuSans-6c"/>
      <path d="M 18.3125 70.21875 
L 18.3125 54.6875 
L 36.8125 54.6875 
L 36.8125 47.703125 
L 18.3125 47.703125 
L 18.3125 18.015625 
Q 18.3125 11.328125 20.140625 9.421875 
Q 21.96875 7.515625 27.59375 7.515625 
L 36.8125 7.515625 
L 36.8125 0 
L 27.59375 0 
Q 17.1875 0 13.234375 3.875 
Q 9.28125 7.765625 9.28125 18.015625 
L 9.28125 47.703125 
L 2.6875 47.703125 
L 2.6875 54.6875 
L 9.28125 54.6875 
L 9.28125 70.21875 
z
" id="DejaVuSans-74"/>
      <path d="M 19.671875 64.796875 
L 19.671875 37.40625 
L 32.078125 37.40625 
Q 38.96875 37.40625 42.71875 40.96875 
Q 46.484375 44.53125 46.484375 51.125 
Q 46.484375 57.671875 42.71875 61.234375 
Q 38.96875 64.796875 32.078125 64.796875 
z
M 9.8125 72.90625 
L 32.078125 72.90625 
Q 44.34375 72.90625 50.609375 67.359375 
Q 56.890625 61.8125 56.890625 51.125 
Q 56.890625 40.328125 50.609375 34.8125 
Q 44.34375 29.296875 32.078125 29.296875 
L 19.671875 29.296875 
L 19.671875 0 
L 9.8125 0 
z
" id="DejaVuSans-50"/>
      <path d="M 9.8125 72.90625 
L 19.671875 72.90625 
L 19.671875 8.296875 
L 55.171875 8.296875 
L 55.171875 0 
L 9.8125 0 
z
" id="DejaVuSans-4c"/>
      <path d="M 34.1875 63.1875 
L 20.796875 26.90625 
L 47.609375 26.90625 
z
M 28.609375 72.90625 
L 39.796875 72.90625 
L 67.578125 0 
L 57.328125 0 
L 50.6875 18.703125 
L 17.828125 18.703125 
L 11.1875 0 
L 0.78125 0 
z
" id="DejaVuSans-41"/>
      <path d="M 8.6875 72.90625 
L 18.609375 72.90625 
L 18.609375 28.609375 
Q 18.609375 16.890625 22.84375 11.734375 
Q 27.09375 6.59375 36.625 6.59375 
Q 46.09375 6.59375 50.34375 11.734375 
Q 54.59375 16.890625 54.59375 28.609375 
L 54.59375 72.90625 
L 64.5 72.90625 
L 64.5 27.390625 
Q 64.5 13.140625 57.4375 5.859375 
Q 50.390625 -1.421875 36.625 -1.421875 
Q 22.796875 -1.421875 15.734375 5.859375 
Q 8.6875 13.140625 8.6875 27.390625 
z
" id="DejaVuSans-55"/>
     </defs>
     <g transform="translate(41.985937 325.806875)rotate(-90)scale(0.2 -0.2)">
      <use xlink:href="#DejaVuSans-44"/>
      <use x="77.001953" xlink:href="#DejaVuSans-65"/>
      <use x="138.525391" xlink:href="#DejaVuSans-6d"/>
      <use x="235.9375" xlink:href="#DejaVuSans-6f"/>
      <use x="297.119141" xlink:href="#DejaVuSans-64"/>
      <use x="360.595703" xlink:href="#DejaVuSans-75"/>
      <use x="423.974609" xlink:href="#DejaVuSans-6c"/>
      <use x="451.757812" xlink:href="#DejaVuSans-61"/>
      <use x="513.037109" xlink:href="#DejaVuSans-74"/>
      <use x="552.246094" xlink:href="#DejaVuSans-65"/>
      <use x="613.769531" xlink:href="#DejaVuSans-64"/>
      <use x="677.246094" xlink:href="#DejaVuSans-20"/>
      <use x="709.033203" xlink:href="#DejaVuSans-50"/>
      <use x="769.335938" xlink:href="#DejaVuSans-4c"/>
      <use x="825.048828" xlink:href="#DejaVuSans-20"/>
      <use x="856.835938" xlink:href="#DejaVuSans-28"/>
      <use x="895.849609" xlink:href="#DejaVuSans-41"/>
      <use x="964.257812" xlink:href="#DejaVuSans-55"/>
      <use x="1037.451172" xlink:href="#DejaVuSans-29"/>
     </g>
    </g>
   </g>
   <g id="line2d_13">
    <path clip-path="url(#p6d4855e3b6)" d="M 103.827273 365.890216 
L 105.349091 366.435996 
L 108.392727 368.194899 
L 109.914545 368.385717 
L 112.958182 369.36 
L 116.001818 368.950569 
L 117.523636 368.859547 
L 119.045455 368.211644 
L 122.089091 367.833893 
L 123.610909 367.4544 
L 125.132727 367.353482 
L 128.176364 368.106992 
L 129.698182 367.574323 
L 131.22 366.763564 
L 132.741818 366.493831 
L 134.263636 363.856087 
L 135.785455 353.984813 
L 137.307273 334.271285 
L 138.829091 302.354846 
L 140.350909 240.566208 
L 141.872727 154.317641 
L 143.394545 85.403872 
L 144.916364 66.96 
L 146.438182 105.519559 
L 149.481818 248.982147 
L 151.003636 300.687769 
L 152.525455 331.080261 
L 154.047273 347.235796 
L 155.569091 356.130945 
L 157.090909 361.911272 
L 158.612727 365.75663 
L 160.134545 367.430322 
L 161.656364 368.218241 
L 163.178182 368.544352 
L 166.221818 367.734415 
L 169.265455 367.111946 
L 170.787273 367.003878 
L 172.309091 367.131168 
L 173.830909 366.8971 
L 175.352727 367.16037 
L 176.874545 368.077086 
L 178.396364 368.297877 
L 179.918182 368.36045 
L 181.44 368.019771 
L 182.961818 366.852661 
L 186.005455 367.064309 
L 187.527273 366.223578 
L 189.049091 365.841674 
L 192.092727 363.255604 
L 193.614545 363.225665 
L 195.136364 362.611602 
L 196.658182 359.644532 
L 198.18 350.792466 
L 199.701818 330.251703 
L 201.223636 297.383186 
L 202.745455 237.207473 
L 204.267273 172.53959 
L 205.789091 132.767685 
L 207.310909 131.426854 
L 208.832727 161.513071 
L 211.876364 267.085974 
L 213.398182 307.322321 
L 214.92 332.377875 
L 216.441818 348.143018 
L 217.963636 357.393866 
L 219.485455 362.913233 
L 221.007273 366.260616 
L 222.529091 367.382165 
L 224.050909 368.356264 
L 225.572727 368.615817 
L 227.094545 368.120856 
L 228.616364 367.857854 
L 230.138182 368.658415 
L 231.66 368.989081 
L 233.181818 368.604247 
L 234.703636 367.915973 
L 236.225455 365.904432 
L 237.747273 361.188421 
L 239.269091 352.430994 
L 240.790909 337.250913 
L 242.312727 305.806897 
L 243.834545 254.749327 
L 245.356364 209.866503 
L 246.878182 191.937943 
L 248.4 214.114391 
L 251.443636 298.384728 
L 252.965455 327.439133 
L 254.487273 345.782928 
L 256.009091 356.800565 
L 257.530909 363.146766 
L 259.052727 366.537148 
L 260.574545 368.202987 
L 262.096364 368.758043 
L 263.618182 368.354121 
L 265.14 367.394707 
L 268.183636 367.088169 
L 269.705455 366.504614 
L 271.227273 366.246467 
L 272.749091 366.668725 
L 274.270909 367.654913 
L 275.792727 367.591084 
L 278.836364 368.524276 
L 280.358182 368.469958 
L 283.401818 368.060325 
L 284.923636 367.591569 
L 286.445455 365.627934 
L 287.967273 363.45836 
L 289.489091 361.549395 
L 291.010909 358.369069 
L 292.532727 350.843084 
L 294.054545 336.228892 
L 295.576364 313.7432 
L 297.098182 273.995566 
L 298.62 218.940124 
L 300.141818 177.47786 
L 301.663636 170.622086 
L 303.185455 202.451403 
L 304.707273 252.107801 
L 306.229091 296.946243 
L 307.750909 327.42773 
L 309.272727 345.99322 
L 310.794545 356.615876 
L 312.316364 362.153662 
L 313.838182 364.087995 
L 315.36 365.143371 
L 316.881818 365.886465 
L 318.403636 366.375884 
L 319.925455 366.328715 
L 321.447273 366.531254 
L 322.969091 367.732657 
L 324.490909 368.479636 
L 326.012727 368.109286 
L 327.534545 368.487824 
L 329.056364 369.013762 
L 330.578182 368.544888 
L 332.1 368.405961 
L 333.621818 368.997654 
L 336.665455 368.716986 
L 338.187273 369.064363 
L 339.709091 368.912526 
L 342.752727 369.060127 
L 344.274545 368.73152 
L 345.796364 367.669162 
L 347.318182 367.087248 
L 350.361818 367.69098 
L 353.405455 368.203657 
L 356.449091 368.378634 
L 357.970909 367.7708 
L 359.492727 367.032913 
L 361.014545 367.154979 
L 362.536364 367.733594 
L 364.058182 366.983735 
L 365.58 365.49768 
L 367.101818 361.916379 
L 368.623636 356.228179 
L 370.145455 346.298401 
L 371.667273 331.811148 
L 373.189091 306.444754 
L 376.232727 211.330154 
L 377.754545 189.554597 
L 379.276364 206.793126 
L 382.32 286.782283 
L 383.841818 318.912477 
L 385.363636 340.100823 
L 386.885455 352.677537 
L 388.407273 359.139357 
L 389.929091 362.673405 
L 391.450909 364.894584 
L 394.494545 367.435663 
L 396.016364 367.842399 
L 397.538182 367.63122 
L 400.581818 368.057747 
L 402.103636 368.12469 
L 405.147273 368.677922 
L 406.669091 368.326627 
L 408.190909 368.939601 
L 409.712727 368.263182 
L 411.234545 368.131388 
L 412.756364 367.5084 
L 414.278182 364.385273 
L 415.8 358.387136 
L 417.321818 349.397918 
L 418.843636 332.267129 
L 420.365455 293.879278 
L 421.887273 250.451624 
L 423.409091 226.142371 
L 424.930909 231.33462 
L 426.452727 257.819909 
L 427.974545 292.009227 
L 429.496364 321.171682 
L 431.018182 341.842312 
L 432.54 353.942065 
L 434.061818 360.373494 
L 435.583636 363.486055 
L 437.105455 364.929178 
L 438.627273 366.162344 
L 440.149091 366.13773 
L 441.670909 363.718951 
L 443.192727 359.826676 
L 444.714545 352.262061 
L 446.236364 340.109179 
L 447.758182 322.878644 
L 449.28 287.869723 
L 450.801818 224.770196 
L 452.323636 166.983373 
L 453.845455 143.333501 
L 455.367273 167.152524 
L 458.410909 269.74406 
L 459.932727 308.898611 
L 461.454545 333.800654 
L 462.976364 349.22922 
L 464.498182 357.611307 
L 466.02 361.209419 
L 467.541818 363.484699 
L 469.063636 365.262239 
L 470.585455 366.241561 
L 472.107273 366.806664 
L 473.629091 367.505872 
L 475.150909 368.434393 
L 476.672727 368.701263 
L 478.194545 368.435213 
L 479.716364 368.490419 
L 481.238182 368.726631 
L 482.76 367.696472 
L 484.281818 364.689852 
L 485.803636 358.663752 
L 487.325455 347.930701 
L 488.847273 332.303614 
L 490.369091 299.773565 
L 493.412727 179.694333 
L 494.934545 155.066812 
L 496.456364 180.86536 
L 497.978182 231.384568 
L 499.5 278.00644 
L 501.021818 312.951296 
L 502.543636 336.447204 
L 504.065455 351.065749 
L 505.587273 359.459156 
L 507.109091 364.432743 
L 508.630909 367.078558 
L 510.152727 367.746705 
L 511.674545 367.97786 
L 513.196364 367.978312 
L 516.24 368.527424 
L 519.283636 367.222894 
L 520.805455 367.286321 
L 522.327273 368.108298 
L 523.849091 369.207192 
L 525.370909 369.148285 
L 526.892727 368.748164 
L 528.414545 369.102523 
L 529.936364 368.653475 
L 531.458182 367.597246 
L 532.98 367.374044 
L 536.023636 369.23209 
L 537.545455 368.88545 
L 539.067273 367.41691 
L 540.589091 367.159801 
L 542.110909 367.470575 
L 543.632727 367.477022 
L 545.154545 367.93183 
L 546.676364 368.684033 
L 548.198182 368.990035 
L 549.72 368.862142 
L 551.241818 368.110692 
L 552.763636 366.934791 
L 554.285455 366.669813 
L 555.807273 367.381378 
L 560.372727 368.84225 
L 560.372727 368.84225 
" style="fill:none;stroke:#1f77b4;stroke-linecap:square;stroke-width:1.5;"/>
    <defs>
     <path d="M 0 4 
C 1.060812 4 2.078319 3.578535 2.828427 2.828427 
C 3.578535 2.078319 4 1.060812 4 0 
C 4 -1.060812 3.578535 -2.078319 2.828427 -2.828427 
C 2.078319 -3.578535 1.060812 -4 0 -4 
C -1.060812 -4 -2.078319 -3.578535 -2.828427 -2.828427 
C -3.578535 -2.078319 -4 -1.060812 -4 0 
C -4 1.060812 -3.578535 2.078319 -2.828427 2.828427 
C -2.078319 3.578535 -1.060812 4 0 4 
z
" id="m6b71f114f6" style="stroke:#1f77b4;stroke-width:2;"/>
    </defs>
    <g clip-path="url(#p6d4855e3b6)">
     <use style="fill-opacity:0;stroke:#1f77b4;stroke-width:2;" x="103.827273" xlink:href="#m6b71f114f6" y="365.890216"/>
     <use style="fill-opacity:0;stroke:#1f77b4;stroke-width:2;" x="105.349091" xlink:href="#m6b71f114f6" y="366.435996"/>
     <use style="fill-opacity:0;stroke:#1f77b4;stroke-width:2;" x="106.870909" xlink:href="#m6b71f114f6" y="367.36738"/>
     <use style="fill-opacity:0;stroke:#1f77b4;stroke-width:2;" x="108.392727" xlink:href="#m6b71f114f6" y="368.194899"/>
     <use style="fill-opacity:0;stroke:#1f77b4;stroke-width:2;" x="109.914545" xlink:href="#m6b71f114f6" y="368.385717"/>
     <use style="fill-opacity:0;stroke:#1f77b4;stroke-width:2;" x="111.436364" xlink:href="#m6b71f114f6" y="368.820516"/>
     <use style="fill-opacity:0;stroke:#1f77b4;stroke-width:2;" x="112.958182" xlink:href="#m6b71f114f6" y="369.36"/>
     <use style="fill-opacity:0;stroke:#1f77b4;stroke-width:2;" x="114.48" xlink:href="#m6b71f114f6" y="369.141219"/>
     <use style="fill-opacity:0;stroke:#1f77b4;stroke-width:2;" x="116.001818" xlink:href="#m6b71f114f6" y="368.950569"/>
     <use style="fill-opacity:0;stroke:#1f77b4;stroke-width:2;" x="117.523636" xlink:href="#m6b71f114f6" y="368.859547"/>
     <use style="fill-opacity:0;stroke:#1f77b4;stroke-width:2;" x="119.045455" xlink:href="#m6b71f114f6" y="368.211644"/>
     <use style="fill-opacity:0;stroke:#1f77b4;stroke-width:2;" x="120.567273" xlink:href="#m6b71f114f6" y="368.049308"/>
     <use style="fill-opacity:0;stroke:#1f77b4;stroke-width:2;" x="122.089091" xlink:href="#m6b71f114f6" y="367.833893"/>
     <use style="fill-opacity:0;stroke:#1f77b4;stroke-width:2;" x="123.610909" xlink:href="#m6b71f114f6" y="367.4544"/>
     <use style="fill-opacity:0;stroke:#1f77b4;stroke-width:2;" x="125.132727" xlink:href="#m6b71f114f6" y="367.353482"/>
     <use style="fill-opacity:0;stroke:#1f77b4;stroke-width:2;" x="126.654545" xlink:href="#m6b71f114f6" y="367.779541"/>
     <use style="fill-opacity:0;stroke:#1f77b4;stroke-width:2;" x="128.176364" xlink:href="#m6b71f114f6" y="368.106992"/>
     <use style="fill-opacity:0;stroke:#1f77b4;stroke-width:2;" x="129.698182" xlink:href="#m6b71f114f6" y="367.574323"/>
     <use style="fill-opacity:0;stroke:#1f77b4;stroke-width:2;" x="131.22" xlink:href="#m6b71f114f6" y="366.763564"/>
     <use style="fill-opacity:0;stroke:#1f77b4;stroke-width:2;" x="132.741818" xlink:href="#m6b71f114f6" y="366.493831"/>
     <use style="fill-opacity:0;stroke:#1f77b4;stroke-width:2;" x="134.263636" xlink:href="#m6b71f114f6" y="363.856087"/>
     <use style="fill-opacity:0;stroke:#1f77b4;stroke-width:2;" x="135.785455" xlink:href="#m6b71f114f6" y="353.984813"/>
     <use style="fill-opacity:0;stroke:#1f77b4;stroke-width:2;" x="137.307273" xlink:href="#m6b71f114f6" y="334.271285"/>
     <use style="fill-opacity:0;stroke:#1f77b4;stroke-width:2;" x="138.829091" xlink:href="#m6b71f114f6" y="302.354846"/>
     <use style="fill-opacity:0;stroke:#1f77b4;stroke-width:2;" x="140.350909" xlink:href="#m6b71f114f6" y="240.566208"/>
     <use style="fill-opacity:0;stroke:#1f77b4;stroke-width:2;" x="141.872727" xlink:href="#m6b71f114f6" y="154.317641"/>
     <use style="fill-opacity:0;stroke:#1f77b4;stroke-width:2;" x="143.394545" xlink:href="#m6b71f114f6" y="85.403872"/>
     <use style="fill-opacity:0;stroke:#1f77b4;stroke-width:2;" x="144.916364" xlink:href="#m6b71f114f6" y="66.96"/>
     <use style="fill-opacity:0;stroke:#1f77b4;stroke-width:2;" x="146.438182" xlink:href="#m6b71f114f6" y="105.519559"/>
     <use style="fill-opacity:0;stroke:#1f77b4;stroke-width:2;" x="147.96" xlink:href="#m6b71f114f6" y="178.48605"/>
     <use style="fill-opacity:0;stroke:#1f77b4;stroke-width:2;" x="149.481818" xlink:href="#m6b71f114f6" y="248.982147"/>
     <use style="fill-opacity:0;stroke:#1f77b4;stroke-width:2;" x="151.003636" xlink:href="#m6b71f114f6" y="300.687769"/>
     <use style="fill-opacity:0;stroke:#1f77b4;stroke-width:2;" x="152.525455" xlink:href="#m6b71f114f6" y="331.080261"/>
     <use style="fill-opacity:0;stroke:#1f77b4;stroke-width:2;" x="154.047273" xlink:href="#m6b71f114f6" y="347.235796"/>
     <use style="fill-opacity:0;stroke:#1f77b4;stroke-width:2;" x="155.569091" xlink:href="#m6b71f114f6" y="356.130945"/>
     <use style="fill-opacity:0;stroke:#1f77b4;stroke-width:2;" x="157.090909" xlink:href="#m6b71f114f6" y="361.911272"/>
     <use style="fill-opacity:0;stroke:#1f77b4;stroke-width:2;" x="158.612727" xlink:href="#m6b71f114f6" y="365.75663"/>
     <use style="fill-opacity:0;stroke:#1f77b4;stroke-width:2;" x="160.134545" xlink:href="#m6b71f114f6" y="367.430322"/>
     <use style="fill-opacity:0;stroke:#1f77b4;stroke-width:2;" x="161.656364" xlink:href="#m6b71f114f6" y="368.218241"/>
     <use style="fill-opacity:0;stroke:#1f77b4;stroke-width:2;" x="163.178182" xlink:href="#m6b71f114f6" y="368.544352"/>
     <use style="fill-opacity:0;stroke:#1f77b4;stroke-width:2;" x="164.7" xlink:href="#m6b71f114f6" y="368.137232"/>
     <use style="fill-opacity:0;stroke:#1f77b4;stroke-width:2;" x="166.221818" xlink:href="#m6b71f114f6" y="367.734415"/>
     <use style="fill-opacity:0;stroke:#1f77b4;stroke-width:2;" x="167.743636" xlink:href="#m6b71f114f6" y="367.441323"/>
     <use style="fill-opacity:0;stroke:#1f77b4;stroke-width:2;" x="169.265455" xlink:href="#m6b71f114f6" y="367.111946"/>
     <use style="fill-opacity:0;stroke:#1f77b4;stroke-width:2;" x="170.787273" xlink:href="#m6b71f114f6" y="367.003878"/>
     <use style="fill-opacity:0;stroke:#1f77b4;stroke-width:2;" x="172.309091" xlink:href="#m6b71f114f6" y="367.131168"/>
     <use style="fill-opacity:0;stroke:#1f77b4;stroke-width:2;" x="173.830909" xlink:href="#m6b71f114f6" y="366.8971"/>
     <use style="fill-opacity:0;stroke:#1f77b4;stroke-width:2;" x="175.352727" xlink:href="#m6b71f114f6" y="367.16037"/>
     <use style="fill-opacity:0;stroke:#1f77b4;stroke-width:2;" x="176.874545" xlink:href="#m6b71f114f6" y="368.077086"/>
     <use style="fill-opacity:0;stroke:#1f77b4;stroke-width:2;" x="178.396364" xlink:href="#m6b71f114f6" y="368.297877"/>
     <use style="fill-opacity:0;stroke:#1f77b4;stroke-width:2;" x="179.918182" xlink:href="#m6b71f114f6" y="368.36045"/>
     <use style="fill-opacity:0;stroke:#1f77b4;stroke-width:2;" x="181.44" xlink:href="#m6b71f114f6" y="368.019771"/>
     <use style="fill-opacity:0;stroke:#1f77b4;stroke-width:2;" x="182.961818" xlink:href="#m6b71f114f6" y="366.852661"/>
     <use style="fill-opacity:0;stroke:#1f77b4;stroke-width:2;" x="184.483636" xlink:href="#m6b71f114f6" y="366.921898"/>
     <use style="fill-opacity:0;stroke:#1f77b4;stroke-width:2;" x="186.005455" xlink:href="#m6b71f114f6" y="367.064309"/>
     <use style="fill-opacity:0;stroke:#1f77b4;stroke-width:2;" x="187.527273" xlink:href="#m6b71f114f6" y="366.223578"/>
     <use style="fill-opacity:0;stroke:#1f77b4;stroke-width:2;" x="189.049091" xlink:href="#m6b71f114f6" y="365.841674"/>
     <use style="fill-opacity:0;stroke:#1f77b4;stroke-width:2;" x="190.570909" xlink:href="#m6b71f114f6" y="364.511291"/>
     <use style="fill-opacity:0;stroke:#1f77b4;stroke-width:2;" x="192.092727" xlink:href="#m6b71f114f6" y="363.255604"/>
     <use style="fill-opacity:0;stroke:#1f77b4;stroke-width:2;" x="193.614545" xlink:href="#m6b71f114f6" y="363.225665"/>
     <use style="fill-opacity:0;stroke:#1f77b4;stroke-width:2;" x="195.136364" xlink:href="#m6b71f114f6" y="362.611602"/>
     <use style="fill-opacity:0;stroke:#1f77b4;stroke-width:2;" x="196.658182" xlink:href="#m6b71f114f6" y="359.644532"/>
     <use style="fill-opacity:0;stroke:#1f77b4;stroke-width:2;" x="198.18" xlink:href="#m6b71f114f6" y="350.792466"/>
     <use style="fill-opacity:0;stroke:#1f77b4;stroke-width:2;" x="199.701818" xlink:href="#m6b71f114f6" y="330.251703"/>
     <use style="fill-opacity:0;stroke:#1f77b4;stroke-width:2;" x="201.223636" xlink:href="#m6b71f114f6" y="297.383186"/>
     <use style="fill-opacity:0;stroke:#1f77b4;stroke-width:2;" x="202.745455" xlink:href="#m6b71f114f6" y="237.207473"/>
     <use style="fill-opacity:0;stroke:#1f77b4;stroke-width:2;" x="204.267273" xlink:href="#m6b71f114f6" y="172.53959"/>
     <use style="fill-opacity:0;stroke:#1f77b4;stroke-width:2;" x="205.789091" xlink:href="#m6b71f114f6" y="132.767685"/>
     <use style="fill-opacity:0;stroke:#1f77b4;stroke-width:2;" x="207.310909" xlink:href="#m6b71f114f6" y="131.426854"/>
     <use style="fill-opacity:0;stroke:#1f77b4;stroke-width:2;" x="208.832727" xlink:href="#m6b71f114f6" y="161.513071"/>
     <use style="fill-opacity:0;stroke:#1f77b4;stroke-width:2;" x="210.354545" xlink:href="#m6b71f114f6" y="213.483618"/>
     <use style="fill-opacity:0;stroke:#1f77b4;stroke-width:2;" x="211.876364" xlink:href="#m6b71f114f6" y="267.085974"/>
     <use style="fill-opacity:0;stroke:#1f77b4;stroke-width:2;" x="213.398182" xlink:href="#m6b71f114f6" y="307.322321"/>
     <use style="fill-opacity:0;stroke:#1f77b4;stroke-width:2;" x="214.92" xlink:href="#m6b71f114f6" y="332.377875"/>
     <use style="fill-opacity:0;stroke:#1f77b4;stroke-width:2;" x="216.441818" xlink:href="#m6b71f114f6" y="348.143018"/>
     <use style="fill-opacity:0;stroke:#1f77b4;stroke-width:2;" x="217.963636" xlink:href="#m6b71f114f6" y="357.393866"/>
     <use style="fill-opacity:0;stroke:#1f77b4;stroke-width:2;" x="219.485455" xlink:href="#m6b71f114f6" y="362.913233"/>
     <use style="fill-opacity:0;stroke:#1f77b4;stroke-width:2;" x="221.007273" xlink:href="#m6b71f114f6" y="366.260616"/>
     <use style="fill-opacity:0;stroke:#1f77b4;stroke-width:2;" x="222.529091" xlink:href="#m6b71f114f6" y="367.382165"/>
     <use style="fill-opacity:0;stroke:#1f77b4;stroke-width:2;" x="224.050909" xlink:href="#m6b71f114f6" y="368.356264"/>
     <use style="fill-opacity:0;stroke:#1f77b4;stroke-width:2;" x="225.572727" xlink:href="#m6b71f114f6" y="368.615817"/>
     <use style="fill-opacity:0;stroke:#1f77b4;stroke-width:2;" x="227.094545" xlink:href="#m6b71f114f6" y="368.120856"/>
     <use style="fill-opacity:0;stroke:#1f77b4;stroke-width:2;" x="228.616364" xlink:href="#m6b71f114f6" y="367.857854"/>
     <use style="fill-opacity:0;stroke:#1f77b4;stroke-width:2;" x="230.138182" xlink:href="#m6b71f114f6" y="368.658415"/>
     <use style="fill-opacity:0;stroke:#1f77b4;stroke-width:2;" x="231.66" xlink:href="#m6b71f114f6" y="368.989081"/>
     <use style="fill-opacity:0;stroke:#1f77b4;stroke-width:2;" x="233.181818" xlink:href="#m6b71f114f6" y="368.604247"/>
     <use style="fill-opacity:0;stroke:#1f77b4;stroke-width:2;" x="234.703636" xlink:href="#m6b71f114f6" y="367.915973"/>
     <use style="fill-opacity:0;stroke:#1f77b4;stroke-width:2;" x="236.225455" xlink:href="#m6b71f114f6" y="365.904432"/>
     <use style="fill-opacity:0;stroke:#1f77b4;stroke-width:2;" x="237.747273" xlink:href="#m6b71f114f6" y="361.188421"/>
     <use style="fill-opacity:0;stroke:#1f77b4;stroke-width:2;" x="239.269091" xlink:href="#m6b71f114f6" y="352.430994"/>
     <use style="fill-opacity:0;stroke:#1f77b4;stroke-width:2;" x="240.790909" xlink:href="#m6b71f114f6" y="337.250913"/>
     <use style="fill-opacity:0;stroke:#1f77b4;stroke-width:2;" x="242.312727" xlink:href="#m6b71f114f6" y="305.806897"/>
     <use style="fill-opacity:0;stroke:#1f77b4;stroke-width:2;" x="243.834545" xlink:href="#m6b71f114f6" y="254.749327"/>
     <use style="fill-opacity:0;stroke:#1f77b4;stroke-width:2;" x="245.356364" xlink:href="#m6b71f114f6" y="209.866503"/>
     <use style="fill-opacity:0;stroke:#1f77b4;stroke-width:2;" x="246.878182" xlink:href="#m6b71f114f6" y="191.937943"/>
     <use style="fill-opacity:0;stroke:#1f77b4;stroke-width:2;" x="248.4" xlink:href="#m6b71f114f6" y="214.114391"/>
     <use style="fill-opacity:0;stroke:#1f77b4;stroke-width:2;" x="249.921818" xlink:href="#m6b71f114f6" y="257.589642"/>
     <use style="fill-opacity:0;stroke:#1f77b4;stroke-width:2;" x="251.443636" xlink:href="#m6b71f114f6" y="298.384728"/>
     <use style="fill-opacity:0;stroke:#1f77b4;stroke-width:2;" x="252.965455" xlink:href="#m6b71f114f6" y="327.439133"/>
     <use style="fill-opacity:0;stroke:#1f77b4;stroke-width:2;" x="254.487273" xlink:href="#m6b71f114f6" y="345.782928"/>
     <use style="fill-opacity:0;stroke:#1f77b4;stroke-width:2;" x="256.009091" xlink:href="#m6b71f114f6" y="356.800565"/>
     <use style="fill-opacity:0;stroke:#1f77b4;stroke-width:2;" x="257.530909" xlink:href="#m6b71f114f6" y="363.146766"/>
     <use style="fill-opacity:0;stroke:#1f77b4;stroke-width:2;" x="259.052727" xlink:href="#m6b71f114f6" y="366.537148"/>
     <use style="fill-opacity:0;stroke:#1f77b4;stroke-width:2;" x="260.574545" xlink:href="#m6b71f114f6" y="368.202987"/>
     <use style="fill-opacity:0;stroke:#1f77b4;stroke-width:2;" x="262.096364" xlink:href="#m6b71f114f6" y="368.758043"/>
     <use style="fill-opacity:0;stroke:#1f77b4;stroke-width:2;" x="263.618182" xlink:href="#m6b71f114f6" y="368.354121"/>
     <use style="fill-opacity:0;stroke:#1f77b4;stroke-width:2;" x="265.14" xlink:href="#m6b71f114f6" y="367.394707"/>
     <use style="fill-opacity:0;stroke:#1f77b4;stroke-width:2;" x="266.661818" xlink:href="#m6b71f114f6" y="367.258844"/>
     <use style="fill-opacity:0;stroke:#1f77b4;stroke-width:2;" x="268.183636" xlink:href="#m6b71f114f6" y="367.088169"/>
     <use style="fill-opacity:0;stroke:#1f77b4;stroke-width:2;" x="269.705455" xlink:href="#m6b71f114f6" y="366.504614"/>
     <use style="fill-opacity:0;stroke:#1f77b4;stroke-width:2;" x="271.227273" xlink:href="#m6b71f114f6" y="366.246467"/>
     <use style="fill-opacity:0;stroke:#1f77b4;stroke-width:2;" x="272.749091" xlink:href="#m6b71f114f6" y="366.668725"/>
     <use style="fill-opacity:0;stroke:#1f77b4;stroke-width:2;" x="274.270909" xlink:href="#m6b71f114f6" y="367.654913"/>
     <use style="fill-opacity:0;stroke:#1f77b4;stroke-width:2;" x="275.792727" xlink:href="#m6b71f114f6" y="367.591084"/>
     <use style="fill-opacity:0;stroke:#1f77b4;stroke-width:2;" x="277.314545" xlink:href="#m6b71f114f6" y="368.096292"/>
     <use style="fill-opacity:0;stroke:#1f77b4;stroke-width:2;" x="278.836364" xlink:href="#m6b71f114f6" y="368.524276"/>
     <use style="fill-opacity:0;stroke:#1f77b4;stroke-width:2;" x="280.358182" xlink:href="#m6b71f114f6" y="368.469958"/>
     <use style="fill-opacity:0;stroke:#1f77b4;stroke-width:2;" x="281.88" xlink:href="#m6b71f114f6" y="368.287713"/>
     <use style="fill-opacity:0;stroke:#1f77b4;stroke-width:2;" x="283.401818" xlink:href="#m6b71f114f6" y="368.060325"/>
     <use style="fill-opacity:0;stroke:#1f77b4;stroke-width:2;" x="284.923636" xlink:href="#m6b71f114f6" y="367.591569"/>
     <use style="fill-opacity:0;stroke:#1f77b4;stroke-width:2;" x="286.445455" xlink:href="#m6b71f114f6" y="365.627934"/>
     <use style="fill-opacity:0;stroke:#1f77b4;stroke-width:2;" x="287.967273" xlink:href="#m6b71f114f6" y="363.45836"/>
     <use style="fill-opacity:0;stroke:#1f77b4;stroke-width:2;" x="289.489091" xlink:href="#m6b71f114f6" y="361.549395"/>
     <use style="fill-opacity:0;stroke:#1f77b4;stroke-width:2;" x="291.010909" xlink:href="#m6b71f114f6" y="358.369069"/>
     <use style="fill-opacity:0;stroke:#1f77b4;stroke-width:2;" x="292.532727" xlink:href="#m6b71f114f6" y="350.843084"/>
     <use style="fill-opacity:0;stroke:#1f77b4;stroke-width:2;" x="294.054545" xlink:href="#m6b71f114f6" y="336.228892"/>
     <use style="fill-opacity:0;stroke:#1f77b4;stroke-width:2;" x="295.576364" xlink:href="#m6b71f114f6" y="313.7432"/>
     <use style="fill-opacity:0;stroke:#1f77b4;stroke-width:2;" x="297.098182" xlink:href="#m6b71f114f6" y="273.995566"/>
     <use style="fill-opacity:0;stroke:#1f77b4;stroke-width:2;" x="298.62" xlink:href="#m6b71f114f6" y="218.940124"/>
     <use style="fill-opacity:0;stroke:#1f77b4;stroke-width:2;" x="300.141818" xlink:href="#m6b71f114f6" y="177.47786"/>
     <use style="fill-opacity:0;stroke:#1f77b4;stroke-width:2;" x="301.663636" xlink:href="#m6b71f114f6" y="170.622086"/>
     <use style="fill-opacity:0;stroke:#1f77b4;stroke-width:2;" x="303.185455" xlink:href="#m6b71f114f6" y="202.451403"/>
     <use style="fill-opacity:0;stroke:#1f77b4;stroke-width:2;" x="304.707273" xlink:href="#m6b71f114f6" y="252.107801"/>
     <use style="fill-opacity:0;stroke:#1f77b4;stroke-width:2;" x="306.229091" xlink:href="#m6b71f114f6" y="296.946243"/>
     <use style="fill-opacity:0;stroke:#1f77b4;stroke-width:2;" x="307.750909" xlink:href="#m6b71f114f6" y="327.42773"/>
     <use style="fill-opacity:0;stroke:#1f77b4;stroke-width:2;" x="309.272727" xlink:href="#m6b71f114f6" y="345.99322"/>
     <use style="fill-opacity:0;stroke:#1f77b4;stroke-width:2;" x="310.794545" xlink:href="#m6b71f114f6" y="356.615876"/>
     <use style="fill-opacity:0;stroke:#1f77b4;stroke-width:2;" x="312.316364" xlink:href="#m6b71f114f6" y="362.153662"/>
     <use style="fill-opacity:0;stroke:#1f77b4;stroke-width:2;" x="313.838182" xlink:href="#m6b71f114f6" y="364.087995"/>
     <use style="fill-opacity:0;stroke:#1f77b4;stroke-width:2;" x="315.36" xlink:href="#m6b71f114f6" y="365.143371"/>
     <use style="fill-opacity:0;stroke:#1f77b4;stroke-width:2;" x="316.881818" xlink:href="#m6b71f114f6" y="365.886465"/>
     <use style="fill-opacity:0;stroke:#1f77b4;stroke-width:2;" x="318.403636" xlink:href="#m6b71f114f6" y="366.375884"/>
     <use style="fill-opacity:0;stroke:#1f77b4;stroke-width:2;" x="319.925455" xlink:href="#m6b71f114f6" y="366.328715"/>
     <use style="fill-opacity:0;stroke:#1f77b4;stroke-width:2;" x="321.447273" xlink:href="#m6b71f114f6" y="366.531254"/>
     <use style="fill-opacity:0;stroke:#1f77b4;stroke-width:2;" x="322.969091" xlink:href="#m6b71f114f6" y="367.732657"/>
     <use style="fill-opacity:0;stroke:#1f77b4;stroke-width:2;" x="324.490909" xlink:href="#m6b71f114f6" y="368.479636"/>
     <use style="fill-opacity:0;stroke:#1f77b4;stroke-width:2;" x="326.012727" xlink:href="#m6b71f114f6" y="368.109286"/>
     <use style="fill-opacity:0;stroke:#1f77b4;stroke-width:2;" x="327.534545" xlink:href="#m6b71f114f6" y="368.487824"/>
     <use style="fill-opacity:0;stroke:#1f77b4;stroke-width:2;" x="329.056364" xlink:href="#m6b71f114f6" y="369.013762"/>
     <use style="fill-opacity:0;stroke:#1f77b4;stroke-width:2;" x="330.578182" xlink:href="#m6b71f114f6" y="368.544888"/>
     <use style="fill-opacity:0;stroke:#1f77b4;stroke-width:2;" x="332.1" xlink:href="#m6b71f114f6" y="368.405961"/>
     <use style="fill-opacity:0;stroke:#1f77b4;stroke-width:2;" x="333.621818" xlink:href="#m6b71f114f6" y="368.997654"/>
     <use style="fill-opacity:0;stroke:#1f77b4;stroke-width:2;" x="335.143636" xlink:href="#m6b71f114f6" y="368.890741"/>
     <use style="fill-opacity:0;stroke:#1f77b4;stroke-width:2;" x="336.665455" xlink:href="#m6b71f114f6" y="368.716986"/>
     <use style="fill-opacity:0;stroke:#1f77b4;stroke-width:2;" x="338.187273" xlink:href="#m6b71f114f6" y="369.064363"/>
     <use style="fill-opacity:0;stroke:#1f77b4;stroke-width:2;" x="339.709091" xlink:href="#m6b71f114f6" y="368.912526"/>
     <use style="fill-opacity:0;stroke:#1f77b4;stroke-width:2;" x="341.230909" xlink:href="#m6b71f114f6" y="368.951356"/>
     <use style="fill-opacity:0;stroke:#1f77b4;stroke-width:2;" x="342.752727" xlink:href="#m6b71f114f6" y="369.060127"/>
     <use style="fill-opacity:0;stroke:#1f77b4;stroke-width:2;" x="344.274545" xlink:href="#m6b71f114f6" y="368.73152"/>
     <use style="fill-opacity:0;stroke:#1f77b4;stroke-width:2;" x="345.796364" xlink:href="#m6b71f114f6" y="367.669162"/>
     <use style="fill-opacity:0;stroke:#1f77b4;stroke-width:2;" x="347.318182" xlink:href="#m6b71f114f6" y="367.087248"/>
     <use style="fill-opacity:0;stroke:#1f77b4;stroke-width:2;" x="348.84" xlink:href="#m6b71f114f6" y="367.333389"/>
     <use style="fill-opacity:0;stroke:#1f77b4;stroke-width:2;" x="350.361818" xlink:href="#m6b71f114f6" y="367.69098"/>
     <use style="fill-opacity:0;stroke:#1f77b4;stroke-width:2;" x="351.883636" xlink:href="#m6b71f114f6" y="367.971782"/>
     <use style="fill-opacity:0;stroke:#1f77b4;stroke-width:2;" x="353.405455" xlink:href="#m6b71f114f6" y="368.203657"/>
     <use style="fill-opacity:0;stroke:#1f77b4;stroke-width:2;" x="354.927273" xlink:href="#m6b71f114f6" y="368.26479"/>
     <use style="fill-opacity:0;stroke:#1f77b4;stroke-width:2;" x="356.449091" xlink:href="#m6b71f114f6" y="368.378634"/>
     <use style="fill-opacity:0;stroke:#1f77b4;stroke-width:2;" x="357.970909" xlink:href="#m6b71f114f6" y="367.7708"/>
     <use style="fill-opacity:0;stroke:#1f77b4;stroke-width:2;" x="359.492727" xlink:href="#m6b71f114f6" y="367.032913"/>
     <use style="fill-opacity:0;stroke:#1f77b4;stroke-width:2;" x="361.014545" xlink:href="#m6b71f114f6" y="367.154979"/>
     <use style="fill-opacity:0;stroke:#1f77b4;stroke-width:2;" x="362.536364" xlink:href="#m6b71f114f6" y="367.733594"/>
     <use style="fill-opacity:0;stroke:#1f77b4;stroke-width:2;" x="364.058182" xlink:href="#m6b71f114f6" y="366.983735"/>
     <use style="fill-opacity:0;stroke:#1f77b4;stroke-width:2;" x="365.58" xlink:href="#m6b71f114f6" y="365.49768"/>
     <use style="fill-opacity:0;stroke:#1f77b4;stroke-width:2;" x="367.101818" xlink:href="#m6b71f114f6" y="361.916379"/>
     <use style="fill-opacity:0;stroke:#1f77b4;stroke-width:2;" x="368.623636" xlink:href="#m6b71f114f6" y="356.228179"/>
     <use style="fill-opacity:0;stroke:#1f77b4;stroke-width:2;" x="370.145455" xlink:href="#m6b71f114f6" y="346.298401"/>
     <use style="fill-opacity:0;stroke:#1f77b4;stroke-width:2;" x="371.667273" xlink:href="#m6b71f114f6" y="331.811148"/>
     <use style="fill-opacity:0;stroke:#1f77b4;stroke-width:2;" x="373.189091" xlink:href="#m6b71f114f6" y="306.444754"/>
     <use style="fill-opacity:0;stroke:#1f77b4;stroke-width:2;" x="374.710909" xlink:href="#m6b71f114f6" y="259.39938"/>
     <use style="fill-opacity:0;stroke:#1f77b4;stroke-width:2;" x="376.232727" xlink:href="#m6b71f114f6" y="211.330154"/>
     <use style="fill-opacity:0;stroke:#1f77b4;stroke-width:2;" x="377.754545" xlink:href="#m6b71f114f6" y="189.554597"/>
     <use style="fill-opacity:0;stroke:#1f77b4;stroke-width:2;" x="379.276364" xlink:href="#m6b71f114f6" y="206.793126"/>
     <use style="fill-opacity:0;stroke:#1f77b4;stroke-width:2;" x="380.798182" xlink:href="#m6b71f114f6" y="245.905721"/>
     <use style="fill-opacity:0;stroke:#1f77b4;stroke-width:2;" x="382.32" xlink:href="#m6b71f114f6" y="286.782283"/>
     <use style="fill-opacity:0;stroke:#1f77b4;stroke-width:2;" x="383.841818" xlink:href="#m6b71f114f6" y="318.912477"/>
     <use style="fill-opacity:0;stroke:#1f77b4;stroke-width:2;" x="385.363636" xlink:href="#m6b71f114f6" y="340.100823"/>
     <use style="fill-opacity:0;stroke:#1f77b4;stroke-width:2;" x="386.885455" xlink:href="#m6b71f114f6" y="352.677537"/>
     <use style="fill-opacity:0;stroke:#1f77b4;stroke-width:2;" x="388.407273" xlink:href="#m6b71f114f6" y="359.139357"/>
     <use style="fill-opacity:0;stroke:#1f77b4;stroke-width:2;" x="389.929091" xlink:href="#m6b71f114f6" y="362.673405"/>
     <use style="fill-opacity:0;stroke:#1f77b4;stroke-width:2;" x="391.450909" xlink:href="#m6b71f114f6" y="364.894584"/>
     <use style="fill-opacity:0;stroke:#1f77b4;stroke-width:2;" x="392.972727" xlink:href="#m6b71f114f6" y="366.193137"/>
     <use style="fill-opacity:0;stroke:#1f77b4;stroke-width:2;" x="394.494545" xlink:href="#m6b71f114f6" y="367.435663"/>
     <use style="fill-opacity:0;stroke:#1f77b4;stroke-width:2;" x="396.016364" xlink:href="#m6b71f114f6" y="367.842399"/>
     <use style="fill-opacity:0;stroke:#1f77b4;stroke-width:2;" x="397.538182" xlink:href="#m6b71f114f6" y="367.63122"/>
     <use style="fill-opacity:0;stroke:#1f77b4;stroke-width:2;" x="399.06" xlink:href="#m6b71f114f6" y="367.879286"/>
     <use style="fill-opacity:0;stroke:#1f77b4;stroke-width:2;" x="400.581818" xlink:href="#m6b71f114f6" y="368.057747"/>
     <use style="fill-opacity:0;stroke:#1f77b4;stroke-width:2;" x="402.103636" xlink:href="#m6b71f114f6" y="368.12469"/>
     <use style="fill-opacity:0;stroke:#1f77b4;stroke-width:2;" x="403.625455" xlink:href="#m6b71f114f6" y="368.417129"/>
     <use style="fill-opacity:0;stroke:#1f77b4;stroke-width:2;" x="405.147273" xlink:href="#m6b71f114f6" y="368.677922"/>
     <use style="fill-opacity:0;stroke:#1f77b4;stroke-width:2;" x="406.669091" xlink:href="#m6b71f114f6" y="368.326627"/>
     <use style="fill-opacity:0;stroke:#1f77b4;stroke-width:2;" x="408.190909" xlink:href="#m6b71f114f6" y="368.939601"/>
     <use style="fill-opacity:0;stroke:#1f77b4;stroke-width:2;" x="409.712727" xlink:href="#m6b71f114f6" y="368.263182"/>
     <use style="fill-opacity:0;stroke:#1f77b4;stroke-width:2;" x="411.234545" xlink:href="#m6b71f114f6" y="368.131388"/>
     <use style="fill-opacity:0;stroke:#1f77b4;stroke-width:2;" x="412.756364" xlink:href="#m6b71f114f6" y="367.5084"/>
     <use style="fill-opacity:0;stroke:#1f77b4;stroke-width:2;" x="414.278182" xlink:href="#m6b71f114f6" y="364.385273"/>
     <use style="fill-opacity:0;stroke:#1f77b4;stroke-width:2;" x="415.8" xlink:href="#m6b71f114f6" y="358.387136"/>
     <use style="fill-opacity:0;stroke:#1f77b4;stroke-width:2;" x="417.321818" xlink:href="#m6b71f114f6" y="349.397918"/>
     <use style="fill-opacity:0;stroke:#1f77b4;stroke-width:2;" x="418.843636" xlink:href="#m6b71f114f6" y="332.267129"/>
     <use style="fill-opacity:0;stroke:#1f77b4;stroke-width:2;" x="420.365455" xlink:href="#m6b71f114f6" y="293.879278"/>
     <use style="fill-opacity:0;stroke:#1f77b4;stroke-width:2;" x="421.887273" xlink:href="#m6b71f114f6" y="250.451624"/>
     <use style="fill-opacity:0;stroke:#1f77b4;stroke-width:2;" x="423.409091" xlink:href="#m6b71f114f6" y="226.142371"/>
     <use style="fill-opacity:0;stroke:#1f77b4;stroke-width:2;" x="424.930909" xlink:href="#m6b71f114f6" y="231.33462"/>
     <use style="fill-opacity:0;stroke:#1f77b4;stroke-width:2;" x="426.452727" xlink:href="#m6b71f114f6" y="257.819909"/>
     <use style="fill-opacity:0;stroke:#1f77b4;stroke-width:2;" x="427.974545" xlink:href="#m6b71f114f6" y="292.009227"/>
     <use style="fill-opacity:0;stroke:#1f77b4;stroke-width:2;" x="429.496364" xlink:href="#m6b71f114f6" y="321.171682"/>
     <use style="fill-opacity:0;stroke:#1f77b4;stroke-width:2;" x="431.018182" xlink:href="#m6b71f114f6" y="341.842312"/>
     <use style="fill-opacity:0;stroke:#1f77b4;stroke-width:2;" x="432.54" xlink:href="#m6b71f114f6" y="353.942065"/>
     <use style="fill-opacity:0;stroke:#1f77b4;stroke-width:2;" x="434.061818" xlink:href="#m6b71f114f6" y="360.373494"/>
     <use style="fill-opacity:0;stroke:#1f77b4;stroke-width:2;" x="435.583636" xlink:href="#m6b71f114f6" y="363.486055"/>
     <use style="fill-opacity:0;stroke:#1f77b4;stroke-width:2;" x="437.105455" xlink:href="#m6b71f114f6" y="364.929178"/>
     <use style="fill-opacity:0;stroke:#1f77b4;stroke-width:2;" x="438.627273" xlink:href="#m6b71f114f6" y="366.162344"/>
     <use style="fill-opacity:0;stroke:#1f77b4;stroke-width:2;" x="440.149091" xlink:href="#m6b71f114f6" y="366.13773"/>
     <use style="fill-opacity:0;stroke:#1f77b4;stroke-width:2;" x="441.670909" xlink:href="#m6b71f114f6" y="363.718951"/>
     <use style="fill-opacity:0;stroke:#1f77b4;stroke-width:2;" x="443.192727" xlink:href="#m6b71f114f6" y="359.826676"/>
     <use style="fill-opacity:0;stroke:#1f77b4;stroke-width:2;" x="444.714545" xlink:href="#m6b71f114f6" y="352.262061"/>
     <use style="fill-opacity:0;stroke:#1f77b4;stroke-width:2;" x="446.236364" xlink:href="#m6b71f114f6" y="340.109179"/>
     <use style="fill-opacity:0;stroke:#1f77b4;stroke-width:2;" x="447.758182" xlink:href="#m6b71f114f6" y="322.878644"/>
     <use style="fill-opacity:0;stroke:#1f77b4;stroke-width:2;" x="449.28" xlink:href="#m6b71f114f6" y="287.869723"/>
     <use style="fill-opacity:0;stroke:#1f77b4;stroke-width:2;" x="450.801818" xlink:href="#m6b71f114f6" y="224.770196"/>
     <use style="fill-opacity:0;stroke:#1f77b4;stroke-width:2;" x="452.323636" xlink:href="#m6b71f114f6" y="166.983373"/>
     <use style="fill-opacity:0;stroke:#1f77b4;stroke-width:2;" x="453.845455" xlink:href="#m6b71f114f6" y="143.333501"/>
     <use style="fill-opacity:0;stroke:#1f77b4;stroke-width:2;" x="455.367273" xlink:href="#m6b71f114f6" y="167.152524"/>
     <use style="fill-opacity:0;stroke:#1f77b4;stroke-width:2;" x="456.889091" xlink:href="#m6b71f114f6" y="218.543519"/>
     <use style="fill-opacity:0;stroke:#1f77b4;stroke-width:2;" x="458.410909" xlink:href="#m6b71f114f6" y="269.74406"/>
     <use style="fill-opacity:0;stroke:#1f77b4;stroke-width:2;" x="459.932727" xlink:href="#m6b71f114f6" y="308.898611"/>
     <use style="fill-opacity:0;stroke:#1f77b4;stroke-width:2;" x="461.454545" xlink:href="#m6b71f114f6" y="333.800654"/>
     <use style="fill-opacity:0;stroke:#1f77b4;stroke-width:2;" x="462.976364" xlink:href="#m6b71f114f6" y="349.22922"/>
     <use style="fill-opacity:0;stroke:#1f77b4;stroke-width:2;" x="464.498182" xlink:href="#m6b71f114f6" y="357.611307"/>
     <use style="fill-opacity:0;stroke:#1f77b4;stroke-width:2;" x="466.02" xlink:href="#m6b71f114f6" y="361.209419"/>
     <use style="fill-opacity:0;stroke:#1f77b4;stroke-width:2;" x="467.541818" xlink:href="#m6b71f114f6" y="363.484699"/>
     <use style="fill-opacity:0;stroke:#1f77b4;stroke-width:2;" x="469.063636" xlink:href="#m6b71f114f6" y="365.262239"/>
     <use style="fill-opacity:0;stroke:#1f77b4;stroke-width:2;" x="470.585455" xlink:href="#m6b71f114f6" y="366.241561"/>
     <use style="fill-opacity:0;stroke:#1f77b4;stroke-width:2;" x="472.107273" xlink:href="#m6b71f114f6" y="366.806664"/>
     <use style="fill-opacity:0;stroke:#1f77b4;stroke-width:2;" x="473.629091" xlink:href="#m6b71f114f6" y="367.505872"/>
     <use style="fill-opacity:0;stroke:#1f77b4;stroke-width:2;" x="475.150909" xlink:href="#m6b71f114f6" y="368.434393"/>
     <use style="fill-opacity:0;stroke:#1f77b4;stroke-width:2;" x="476.672727" xlink:href="#m6b71f114f6" y="368.701263"/>
     <use style="fill-opacity:0;stroke:#1f77b4;stroke-width:2;" x="478.194545" xlink:href="#m6b71f114f6" y="368.435213"/>
     <use style="fill-opacity:0;stroke:#1f77b4;stroke-width:2;" x="479.716364" xlink:href="#m6b71f114f6" y="368.490419"/>
     <use style="fill-opacity:0;stroke:#1f77b4;stroke-width:2;" x="481.238182" xlink:href="#m6b71f114f6" y="368.726631"/>
     <use style="fill-opacity:0;stroke:#1f77b4;stroke-width:2;" x="482.76" xlink:href="#m6b71f114f6" y="367.696472"/>
     <use style="fill-opacity:0;stroke:#1f77b4;stroke-width:2;" x="484.281818" xlink:href="#m6b71f114f6" y="364.689852"/>
     <use style="fill-opacity:0;stroke:#1f77b4;stroke-width:2;" x="485.803636" xlink:href="#m6b71f114f6" y="358.663752"/>
     <use style="fill-opacity:0;stroke:#1f77b4;stroke-width:2;" x="487.325455" xlink:href="#m6b71f114f6" y="347.930701"/>
     <use style="fill-opacity:0;stroke:#1f77b4;stroke-width:2;" x="488.847273" xlink:href="#m6b71f114f6" y="332.303614"/>
     <use style="fill-opacity:0;stroke:#1f77b4;stroke-width:2;" x="490.369091" xlink:href="#m6b71f114f6" y="299.773565"/>
     <use style="fill-opacity:0;stroke:#1f77b4;stroke-width:2;" x="491.890909" xlink:href="#m6b71f114f6" y="239.546531"/>
     <use style="fill-opacity:0;stroke:#1f77b4;stroke-width:2;" x="493.412727" xlink:href="#m6b71f114f6" y="179.694333"/>
     <use style="fill-opacity:0;stroke:#1f77b4;stroke-width:2;" x="494.934545" xlink:href="#m6b71f114f6" y="155.066812"/>
     <use style="fill-opacity:0;stroke:#1f77b4;stroke-width:2;" x="496.456364" xlink:href="#m6b71f114f6" y="180.86536"/>
     <use style="fill-opacity:0;stroke:#1f77b4;stroke-width:2;" x="497.978182" xlink:href="#m6b71f114f6" y="231.384568"/>
     <use style="fill-opacity:0;stroke:#1f77b4;stroke-width:2;" x="499.5" xlink:href="#m6b71f114f6" y="278.00644"/>
     <use style="fill-opacity:0;stroke:#1f77b4;stroke-width:2;" x="501.021818" xlink:href="#m6b71f114f6" y="312.951296"/>
     <use style="fill-opacity:0;stroke:#1f77b4;stroke-width:2;" x="502.543636" xlink:href="#m6b71f114f6" y="336.447204"/>
     <use style="fill-opacity:0;stroke:#1f77b4;stroke-width:2;" x="504.065455" xlink:href="#m6b71f114f6" y="351.065749"/>
     <use style="fill-opacity:0;stroke:#1f77b4;stroke-width:2;" x="505.587273" xlink:href="#m6b71f114f6" y="359.459156"/>
     <use style="fill-opacity:0;stroke:#1f77b4;stroke-width:2;" x="507.109091" xlink:href="#m6b71f114f6" y="364.432743"/>
     <use style="fill-opacity:0;stroke:#1f77b4;stroke-width:2;" x="508.630909" xlink:href="#m6b71f114f6" y="367.078558"/>
     <use style="fill-opacity:0;stroke:#1f77b4;stroke-width:2;" x="510.152727" xlink:href="#m6b71f114f6" y="367.746705"/>
     <use style="fill-opacity:0;stroke:#1f77b4;stroke-width:2;" x="511.674545" xlink:href="#m6b71f114f6" y="367.97786"/>
     <use style="fill-opacity:0;stroke:#1f77b4;stroke-width:2;" x="513.196364" xlink:href="#m6b71f114f6" y="367.978312"/>
     <use style="fill-opacity:0;stroke:#1f77b4;stroke-width:2;" x="514.718182" xlink:href="#m6b71f114f6" y="368.232356"/>
     <use style="fill-opacity:0;stroke:#1f77b4;stroke-width:2;" x="516.24" xlink:href="#m6b71f114f6" y="368.527424"/>
     <use style="fill-opacity:0;stroke:#1f77b4;stroke-width:2;" x="517.761818" xlink:href="#m6b71f114f6" y="367.887223"/>
     <use style="fill-opacity:0;stroke:#1f77b4;stroke-width:2;" x="519.283636" xlink:href="#m6b71f114f6" y="367.222894"/>
     <use style="fill-opacity:0;stroke:#1f77b4;stroke-width:2;" x="520.805455" xlink:href="#m6b71f114f6" y="367.286321"/>
     <use style="fill-opacity:0;stroke:#1f77b4;stroke-width:2;" x="522.327273" xlink:href="#m6b71f114f6" y="368.108298"/>
     <use style="fill-opacity:0;stroke:#1f77b4;stroke-width:2;" x="523.849091" xlink:href="#m6b71f114f6" y="369.207192"/>
     <use style="fill-opacity:0;stroke:#1f77b4;stroke-width:2;" x="525.370909" xlink:href="#m6b71f114f6" y="369.148285"/>
     <use style="fill-opacity:0;stroke:#1f77b4;stroke-width:2;" x="526.892727" xlink:href="#m6b71f114f6" y="368.748164"/>
     <use style="fill-opacity:0;stroke:#1f77b4;stroke-width:2;" x="528.414545" xlink:href="#m6b71f114f6" y="369.102523"/>
     <use style="fill-opacity:0;stroke:#1f77b4;stroke-width:2;" x="529.936364" xlink:href="#m6b71f114f6" y="368.653475"/>
     <use style="fill-opacity:0;stroke:#1f77b4;stroke-width:2;" x="531.458182" xlink:href="#m6b71f114f6" y="367.597246"/>
     <use style="fill-opacity:0;stroke:#1f77b4;stroke-width:2;" x="532.98" xlink:href="#m6b71f114f6" y="367.374044"/>
     <use style="fill-opacity:0;stroke:#1f77b4;stroke-width:2;" x="534.501818" xlink:href="#m6b71f114f6" y="368.273916"/>
     <use style="fill-opacity:0;stroke:#1f77b4;stroke-width:2;" x="536.023636" xlink:href="#m6b71f114f6" y="369.23209"/>
     <use style="fill-opacity:0;stroke:#1f77b4;stroke-width:2;" x="537.545455" xlink:href="#m6b71f114f6" y="368.88545"/>
     <use style="fill-opacity:0;stroke:#1f77b4;stroke-width:2;" x="539.067273" xlink:href="#m6b71f114f6" y="367.41691"/>
     <use style="fill-opacity:0;stroke:#1f77b4;stroke-width:2;" x="540.589091" xlink:href="#m6b71f114f6" y="367.159801"/>
     <use style="fill-opacity:0;stroke:#1f77b4;stroke-width:2;" x="542.110909" xlink:href="#m6b71f114f6" y="367.470575"/>
     <use style="fill-opacity:0;stroke:#1f77b4;stroke-width:2;" x="543.632727" xlink:href="#m6b71f114f6" y="367.477022"/>
     <use style="fill-opacity:0;stroke:#1f77b4;stroke-width:2;" x="545.154545" xlink:href="#m6b71f114f6" y="367.93183"/>
     <use style="fill-opacity:0;stroke:#1f77b4;stroke-width:2;" x="546.676364" xlink:href="#m6b71f114f6" y="368.684033"/>
     <use style="fill-opacity:0;stroke:#1f77b4;stroke-width:2;" x="548.198182" xlink:href="#m6b71f114f6" y="368.990035"/>
     <use style="fill-opacity:0;stroke:#1f77b4;stroke-width:2;" x="549.72" xlink:href="#m6b71f114f6" y="368.862142"/>
     <use style="fill-opacity:0;stroke:#1f77b4;stroke-width:2;" x="551.241818" xlink:href="#m6b71f114f6" y="368.110692"/>
     <use style="fill-opacity:0;stroke:#1f77b4;stroke-width:2;" x="552.763636" xlink:href="#m6b71f114f6" y="366.934791"/>
     <use style="fill-opacity:0;stroke:#1f77b4;stroke-width:2;" x="554.285455" xlink:href="#m6b71f114f6" y="366.669813"/>
     <use style="fill-opacity:0;stroke:#1f77b4;stroke-width:2;" x="555.807273" xlink:href="#m6b71f114f6" y="367.381378"/>
     <use style="fill-opacity:0;stroke:#1f77b4;stroke-width:2;" x="557.329091" xlink:href="#m6b71f114f6" y="367.87438"/>
     <use style="fill-opacity:0;stroke:#1f77b4;stroke-width:2;" x="558.850909" xlink:href="#m6b71f114f6" y="368.460631"/>
     <use style="fill-opacity:0;stroke:#1f77b4;stroke-width:2;" x="560.372727" xlink:href="#m6b71f114f6" y="368.84225"/>
    </g>
   </g>
   <g id="patch_3">
    <path d="M 81 384.48 
L 81 51.84 
" style="fill:none;stroke:#000000;stroke-linecap:square;stroke-linejoin:miter;stroke-width:0.8;"/>
   </g>
   <g id="patch_4">
    <path d="M 583.2 384.48 
L 583.2 51.84 
" style="fill:none;stroke:#000000;stroke-linecap:square;stroke-linejoin:miter;stroke-width:0.8;"/>
   </g>
   <g id="patch_5">
    <path d="M 81 384.48 
L 583.2 384.48 
" style="fill:none;stroke:#000000;stroke-linecap:square;stroke-linejoin:miter;stroke-width:0.8;"/>
   </g>
   <g id="patch_6">
    <path d="M 81 51.84 
L 583.2 51.84 
" style="fill:none;stroke:#000000;stroke-linecap:square;stroke-linejoin:miter;stroke-width:0.8;"/>
   </g>
  </g>
 </g>
 <defs>
  <clipPath id="p6d4855e3b6">
   <rect height="332.64" width="502.2" x="81" y="51.84"/>
  </clipPath>
 </defs>
</svg>
