<?xml version="1.0" encoding="utf-8" standalone="no"?>
<!DOCTYPE svg PUBLIC "-//W3C//DTD SVG 1.1//EN"
  "http://www.w3.org/Graphics/SVG/1.1/DTD/svg11.dtd">
<!-- Created with matplotlib (http://matplotlib.org/) -->
<svg height="432pt" version="1.1" viewBox="0 0 648 432" width="648pt" xmlns="http://www.w3.org/2000/svg" xmlns:xlink="http://www.w3.org/1999/xlink">
 <defs>
  <style type="text/css">
*{stroke-linecap:butt;stroke-linejoin:round;}
  </style>
 </defs>
 <g id="figure_1">
  <g id="patch_1">
   <path d="M 0 432 
L 648 432 
L 648 0 
L 0 0 
z
" style="fill:#ffffff;"/>
  </g>
  <g id="axes_1">
   <g id="patch_2">
    <path d="M 81 384.48 
L 583.2 384.48 
L 583.2 51.84 
L 81 51.84 
z
" style="fill:#ffffff;"/>
   </g>
   <g id="matplotlib.axis_1">
    <g id="xtick_1">
     <g id="line2d_1">
      <defs>
       <path d="M 0 0 
L 0 3.5 
" id="mc5f072aecf" style="stroke:#000000;stroke-width:0.8;"/>
      </defs>
      <g>
       <use style="stroke:#000000;stroke-width:0.8;" x="103.827273" xlink:href="#mc5f072aecf" y="384.48"/>
      </g>
     </g>
     <g id="text_1">
      <!-- 2830 -->
      <defs>
       <path d="M 19.1875 8.296875 
L 53.609375 8.296875 
L 53.609375 0 
L 7.328125 0 
L 7.328125 8.296875 
Q 12.9375 14.109375 22.625 23.890625 
Q 32.328125 33.6875 34.8125 36.53125 
Q 39.546875 41.84375 41.421875 45.53125 
Q 43.3125 49.21875 43.3125 52.78125 
Q 43.3125 58.59375 39.234375 62.25 
Q 35.15625 65.921875 28.609375 65.921875 
Q 23.96875 65.921875 18.8125 64.3125 
Q 13.671875 62.703125 7.8125 59.421875 
L 7.8125 69.390625 
Q 13.765625 71.78125 18.9375 73 
Q 24.125 74.21875 28.421875 74.21875 
Q 39.75 74.21875 46.484375 68.546875 
Q 53.21875 62.890625 53.21875 53.421875 
Q 53.21875 48.921875 51.53125 44.890625 
Q 49.859375 40.875 45.40625 35.40625 
Q 44.1875 33.984375 37.640625 27.21875 
Q 31.109375 20.453125 19.1875 8.296875 
z
" id="DejaVuSans-32"/>
       <path d="M 31.78125 34.625 
Q 24.75 34.625 20.71875 30.859375 
Q 16.703125 27.09375 16.703125 20.515625 
Q 16.703125 13.921875 20.71875 10.15625 
Q 24.75 6.390625 31.78125 6.390625 
Q 38.8125 6.390625 42.859375 10.171875 
Q 46.921875 13.96875 46.921875 20.515625 
Q 46.921875 27.09375 42.890625 30.859375 
Q 38.875 34.625 31.78125 34.625 
z
M 21.921875 38.8125 
Q 15.578125 40.375 12.03125 44.71875 
Q 8.5 49.078125 8.5 55.328125 
Q 8.5 64.0625 14.71875 69.140625 
Q 20.953125 74.21875 31.78125 74.21875 
Q 42.671875 74.21875 48.875 69.140625 
Q 55.078125 64.0625 55.078125 55.328125 
Q 55.078125 49.078125 51.53125 44.71875 
Q 48 40.375 41.703125 38.8125 
Q 48.828125 37.15625 52.796875 32.3125 
Q 56.78125 27.484375 56.78125 20.515625 
Q 56.78125 9.90625 50.3125 4.234375 
Q 43.84375 -1.421875 31.78125 -1.421875 
Q 19.734375 -1.421875 13.25 4.234375 
Q 6.78125 9.90625 6.78125 20.515625 
Q 6.78125 27.484375 10.78125 32.3125 
Q 14.796875 37.15625 21.921875 38.8125 
z
M 18.3125 54.390625 
Q 18.3125 48.734375 21.84375 45.5625 
Q 25.390625 42.390625 31.78125 42.390625 
Q 38.140625 42.390625 41.71875 45.5625 
Q 45.3125 48.734375 45.3125 54.390625 
Q 45.3125 60.0625 41.71875 63.234375 
Q 38.140625 66.40625 31.78125 66.40625 
Q 25.390625 66.40625 21.84375 63.234375 
Q 18.3125 60.0625 18.3125 54.390625 
z
" id="DejaVuSans-38"/>
       <path d="M 40.578125 39.3125 
Q 47.65625 37.796875 51.625 33 
Q 55.609375 28.21875 55.609375 21.1875 
Q 55.609375 10.40625 48.1875 4.484375 
Q 40.765625 -1.421875 27.09375 -1.421875 
Q 22.515625 -1.421875 17.65625 -0.515625 
Q 12.796875 0.390625 7.625 2.203125 
L 7.625 11.71875 
Q 11.71875 9.328125 16.59375 8.109375 
Q 21.484375 6.890625 26.8125 6.890625 
Q 36.078125 6.890625 40.9375 10.546875 
Q 45.796875 14.203125 45.796875 21.1875 
Q 45.796875 27.640625 41.28125 31.265625 
Q 36.765625 34.90625 28.71875 34.90625 
L 20.21875 34.90625 
L 20.21875 43.015625 
L 29.109375 43.015625 
Q 36.375 43.015625 40.234375 45.921875 
Q 44.09375 48.828125 44.09375 54.296875 
Q 44.09375 59.90625 40.109375 62.90625 
Q 36.140625 65.921875 28.71875 65.921875 
Q 24.65625 65.921875 20.015625 65.03125 
Q 15.375 64.15625 9.8125 62.3125 
L 9.8125 71.09375 
Q 15.4375 72.65625 20.34375 73.4375 
Q 25.25 74.21875 29.59375 74.21875 
Q 40.828125 74.21875 47.359375 69.109375 
Q 53.90625 64.015625 53.90625 55.328125 
Q 53.90625 49.265625 50.4375 45.09375 
Q 46.96875 40.921875 40.578125 39.3125 
z
" id="DejaVuSans-33"/>
       <path d="M 31.78125 66.40625 
Q 24.171875 66.40625 20.328125 58.90625 
Q 16.5 51.421875 16.5 36.375 
Q 16.5 21.390625 20.328125 13.890625 
Q 24.171875 6.390625 31.78125 6.390625 
Q 39.453125 6.390625 43.28125 13.890625 
Q 47.125 21.390625 47.125 36.375 
Q 47.125 51.421875 43.28125 58.90625 
Q 39.453125 66.40625 31.78125 66.40625 
z
M 31.78125 74.21875 
Q 44.046875 74.21875 50.515625 64.515625 
Q 56.984375 54.828125 56.984375 36.375 
Q 56.984375 17.96875 50.515625 8.265625 
Q 44.046875 -1.421875 31.78125 -1.421875 
Q 19.53125 -1.421875 13.0625 8.265625 
Q 6.59375 17.96875 6.59375 36.375 
Q 6.59375 54.828125 13.0625 64.515625 
Q 19.53125 74.21875 31.78125 74.21875 
z
" id="DejaVuSans-30"/>
      </defs>
      <g transform="translate(84.739773 402.877656)scale(0.15 -0.15)">
       <use xlink:href="#DejaVuSans-32"/>
       <use x="63.623047" xlink:href="#DejaVuSans-38"/>
       <use x="127.246094" xlink:href="#DejaVuSans-33"/>
       <use x="190.869141" xlink:href="#DejaVuSans-30"/>
      </g>
     </g>
    </g>
    <g id="xtick_2">
     <g id="line2d_2">
      <g>
       <use style="stroke:#000000;stroke-width:0.8;" x="160.895455" xlink:href="#mc5f072aecf" y="384.48"/>
      </g>
     </g>
     <g id="text_2">
      <!-- 2840 -->
      <defs>
       <path d="M 37.796875 64.3125 
L 12.890625 25.390625 
L 37.796875 25.390625 
z
M 35.203125 72.90625 
L 47.609375 72.90625 
L 47.609375 25.390625 
L 58.015625 25.390625 
L 58.015625 17.1875 
L 47.609375 17.1875 
L 47.609375 0 
L 37.796875 0 
L 37.796875 17.1875 
L 4.890625 17.1875 
L 4.890625 26.703125 
z
" id="DejaVuSans-34"/>
      </defs>
      <g transform="translate(141.807955 402.877656)scale(0.15 -0.15)">
       <use xlink:href="#DejaVuSans-32"/>
       <use x="63.623047" xlink:href="#DejaVuSans-38"/>
       <use x="127.246094" xlink:href="#DejaVuSans-34"/>
       <use x="190.869141" xlink:href="#DejaVuSans-30"/>
      </g>
     </g>
    </g>
    <g id="xtick_3">
     <g id="line2d_3">
      <g>
       <use style="stroke:#000000;stroke-width:0.8;" x="217.963636" xlink:href="#mc5f072aecf" y="384.48"/>
      </g>
     </g>
     <g id="text_3">
      <!-- 2850 -->
      <defs>
       <path d="M 10.796875 72.90625 
L 49.515625 72.90625 
L 49.515625 64.59375 
L 19.828125 64.59375 
L 19.828125 46.734375 
Q 21.96875 47.46875 24.109375 47.828125 
Q 26.265625 48.1875 28.421875 48.1875 
Q 40.625 48.1875 47.75 41.5 
Q 54.890625 34.8125 54.890625 23.390625 
Q 54.890625 11.625 47.5625 5.09375 
Q 40.234375 -1.421875 26.90625 -1.421875 
Q 22.3125 -1.421875 17.546875 -0.640625 
Q 12.796875 0.140625 7.71875 1.703125 
L 7.71875 11.625 
Q 12.109375 9.234375 16.796875 8.0625 
Q 21.484375 6.890625 26.703125 6.890625 
Q 35.15625 6.890625 40.078125 11.328125 
Q 45.015625 15.765625 45.015625 23.390625 
Q 45.015625 31 40.078125 35.4375 
Q 35.15625 39.890625 26.703125 39.890625 
Q 22.75 39.890625 18.8125 39.015625 
Q 14.890625 38.140625 10.796875 36.28125 
z
" id="DejaVuSans-35"/>
      </defs>
      <g transform="translate(198.876136 402.877656)scale(0.15 -0.15)">
       <use xlink:href="#DejaVuSans-32"/>
       <use x="63.623047" xlink:href="#DejaVuSans-38"/>
       <use x="127.246094" xlink:href="#DejaVuSans-35"/>
       <use x="190.869141" xlink:href="#DejaVuSans-30"/>
      </g>
     </g>
    </g>
    <g id="xtick_4">
     <g id="line2d_4">
      <g>
       <use style="stroke:#000000;stroke-width:0.8;" x="275.031818" xlink:href="#mc5f072aecf" y="384.48"/>
      </g>
     </g>
     <g id="text_4">
      <!-- 2860 -->
      <defs>
       <path d="M 33.015625 40.375 
Q 26.375 40.375 22.484375 35.828125 
Q 18.609375 31.296875 18.609375 23.390625 
Q 18.609375 15.53125 22.484375 10.953125 
Q 26.375 6.390625 33.015625 6.390625 
Q 39.65625 6.390625 43.53125 10.953125 
Q 47.40625 15.53125 47.40625 23.390625 
Q 47.40625 31.296875 43.53125 35.828125 
Q 39.65625 40.375 33.015625 40.375 
z
M 52.59375 71.296875 
L 52.59375 62.3125 
Q 48.875 64.0625 45.09375 64.984375 
Q 41.3125 65.921875 37.59375 65.921875 
Q 27.828125 65.921875 22.671875 59.328125 
Q 17.53125 52.734375 16.796875 39.40625 
Q 19.671875 43.65625 24.015625 45.921875 
Q 28.375 48.1875 33.59375 48.1875 
Q 44.578125 48.1875 50.953125 41.515625 
Q 57.328125 34.859375 57.328125 23.390625 
Q 57.328125 12.15625 50.6875 5.359375 
Q 44.046875 -1.421875 33.015625 -1.421875 
Q 20.359375 -1.421875 13.671875 8.265625 
Q 6.984375 17.96875 6.984375 36.375 
Q 6.984375 53.65625 15.1875 63.9375 
Q 23.390625 74.21875 37.203125 74.21875 
Q 40.921875 74.21875 44.703125 73.484375 
Q 48.484375 72.75 52.59375 71.296875 
z
" id="DejaVuSans-36"/>
      </defs>
      <g transform="translate(255.944318 402.877656)scale(0.15 -0.15)">
       <use xlink:href="#DejaVuSans-32"/>
       <use x="63.623047" xlink:href="#DejaVuSans-38"/>
       <use x="127.246094" xlink:href="#DejaVuSans-36"/>
       <use x="190.869141" xlink:href="#DejaVuSans-30"/>
      </g>
     </g>
    </g>
    <g id="xtick_5">
     <g id="line2d_5">
      <g>
       <use style="stroke:#000000;stroke-width:0.8;" x="332.1" xlink:href="#mc5f072aecf" y="384.48"/>
      </g>
     </g>
     <g id="text_5">
      <!-- 2870 -->
      <defs>
       <path d="M 8.203125 72.90625 
L 55.078125 72.90625 
L 55.078125 68.703125 
L 28.609375 0 
L 18.3125 0 
L 43.21875 64.59375 
L 8.203125 64.59375 
z
" id="DejaVuSans-37"/>
      </defs>
      <g transform="translate(313.0125 402.877656)scale(0.15 -0.15)">
       <use xlink:href="#DejaVuSans-32"/>
       <use x="63.623047" xlink:href="#DejaVuSans-38"/>
       <use x="127.246094" xlink:href="#DejaVuSans-37"/>
       <use x="190.869141" xlink:href="#DejaVuSans-30"/>
      </g>
     </g>
    </g>
    <g id="xtick_6">
     <g id="line2d_6">
      <g>
       <use style="stroke:#000000;stroke-width:0.8;" x="389.168182" xlink:href="#mc5f072aecf" y="384.48"/>
      </g>
     </g>
     <g id="text_6">
      <!-- 2880 -->
      <g transform="translate(370.080682 402.877656)scale(0.15 -0.15)">
       <use xlink:href="#DejaVuSans-32"/>
       <use x="63.623047" xlink:href="#DejaVuSans-38"/>
       <use x="127.246094" xlink:href="#DejaVuSans-38"/>
       <use x="190.869141" xlink:href="#DejaVuSans-30"/>
      </g>
     </g>
    </g>
    <g id="xtick_7">
     <g id="line2d_7">
      <g>
       <use style="stroke:#000000;stroke-width:0.8;" x="446.236364" xlink:href="#mc5f072aecf" y="384.48"/>
      </g>
     </g>
     <g id="text_7">
      <!-- 2890 -->
      <defs>
       <path d="M 10.984375 1.515625 
L 10.984375 10.5 
Q 14.703125 8.734375 18.5 7.8125 
Q 22.3125 6.890625 25.984375 6.890625 
Q 35.75 6.890625 40.890625 13.453125 
Q 46.046875 20.015625 46.78125 33.40625 
Q 43.953125 29.203125 39.59375 26.953125 
Q 35.25 24.703125 29.984375 24.703125 
Q 19.046875 24.703125 12.671875 31.3125 
Q 6.296875 37.9375 6.296875 49.421875 
Q 6.296875 60.640625 12.9375 67.421875 
Q 19.578125 74.21875 30.609375 74.21875 
Q 43.265625 74.21875 49.921875 64.515625 
Q 56.59375 54.828125 56.59375 36.375 
Q 56.59375 19.140625 48.40625 8.859375 
Q 40.234375 -1.421875 26.421875 -1.421875 
Q 22.703125 -1.421875 18.890625 -0.6875 
Q 15.09375 0.046875 10.984375 1.515625 
z
M 30.609375 32.421875 
Q 37.25 32.421875 41.125 36.953125 
Q 45.015625 41.5 45.015625 49.421875 
Q 45.015625 57.28125 41.125 61.84375 
Q 37.25 66.40625 30.609375 66.40625 
Q 23.96875 66.40625 20.09375 61.84375 
Q 16.21875 57.28125 16.21875 49.421875 
Q 16.21875 41.5 20.09375 36.953125 
Q 23.96875 32.421875 30.609375 32.421875 
z
" id="DejaVuSans-39"/>
      </defs>
      <g transform="translate(427.148864 402.877656)scale(0.15 -0.15)">
       <use xlink:href="#DejaVuSans-32"/>
       <use x="63.623047" xlink:href="#DejaVuSans-38"/>
       <use x="127.246094" xlink:href="#DejaVuSans-39"/>
       <use x="190.869141" xlink:href="#DejaVuSans-30"/>
      </g>
     </g>
    </g>
    <g id="xtick_8">
     <g id="line2d_8">
      <g>
       <use style="stroke:#000000;stroke-width:0.8;" x="503.304545" xlink:href="#mc5f072aecf" y="384.48"/>
      </g>
     </g>
     <g id="text_8">
      <!-- 2900 -->
      <g transform="translate(484.217045 402.877656)scale(0.15 -0.15)">
       <use xlink:href="#DejaVuSans-32"/>
       <use x="63.623047" xlink:href="#DejaVuSans-39"/>
       <use x="127.246094" xlink:href="#DejaVuSans-30"/>
       <use x="190.869141" xlink:href="#DejaVuSans-30"/>
      </g>
     </g>
    </g>
    <g id="xtick_9">
     <g id="line2d_9">
      <g>
       <use style="stroke:#000000;stroke-width:0.8;" x="560.372727" xlink:href="#mc5f072aecf" y="384.48"/>
      </g>
     </g>
     <g id="text_9">
      <!-- 2910 -->
      <defs>
       <path d="M 12.40625 8.296875 
L 28.515625 8.296875 
L 28.515625 63.921875 
L 10.984375 60.40625 
L 10.984375 69.390625 
L 28.421875 72.90625 
L 38.28125 72.90625 
L 38.28125 8.296875 
L 54.390625 8.296875 
L 54.390625 0 
L 12.40625 0 
z
" id="DejaVuSans-31"/>
      </defs>
      <g transform="translate(541.285227 402.877656)scale(0.15 -0.15)">
       <use xlink:href="#DejaVuSans-32"/>
       <use x="63.623047" xlink:href="#DejaVuSans-39"/>
       <use x="127.246094" xlink:href="#DejaVuSans-31"/>
       <use x="190.869141" xlink:href="#DejaVuSans-30"/>
      </g>
     </g>
    </g>
    <g id="text_10">
     <!-- Microwave frequency (MHz) -->
     <defs>
      <path d="M 9.8125 72.90625 
L 24.515625 72.90625 
L 43.109375 23.296875 
L 61.8125 72.90625 
L 76.515625 72.90625 
L 76.515625 0 
L 66.890625 0 
L 66.890625 64.015625 
L 48.09375 14.015625 
L 38.1875 14.015625 
L 19.390625 64.015625 
L 19.390625 0 
L 9.8125 0 
z
" id="DejaVuSans-4d"/>
      <path d="M 9.421875 54.6875 
L 18.40625 54.6875 
L 18.40625 0 
L 9.421875 0 
z
M 9.421875 75.984375 
L 18.40625 75.984375 
L 18.40625 64.59375 
L 9.421875 64.59375 
z
" id="DejaVuSans-69"/>
      <path d="M 48.78125 52.59375 
L 48.78125 44.1875 
Q 44.96875 46.296875 41.140625 47.34375 
Q 37.3125 48.390625 33.40625 48.390625 
Q 24.65625 48.390625 19.8125 42.84375 
Q 14.984375 37.3125 14.984375 27.296875 
Q 14.984375 17.28125 19.8125 11.734375 
Q 24.65625 6.203125 33.40625 6.203125 
Q 37.3125 6.203125 41.140625 7.25 
Q 44.96875 8.296875 48.78125 10.40625 
L 48.78125 2.09375 
Q 45.015625 0.34375 40.984375 -0.53125 
Q 36.96875 -1.421875 32.421875 -1.421875 
Q 20.0625 -1.421875 12.78125 6.34375 
Q 5.515625 14.109375 5.515625 27.296875 
Q 5.515625 40.671875 12.859375 48.328125 
Q 20.21875 56 33.015625 56 
Q 37.15625 56 41.109375 55.140625 
Q 45.0625 54.296875 48.78125 52.59375 
z
" id="DejaVuSans-63"/>
      <path d="M 41.109375 46.296875 
Q 39.59375 47.171875 37.8125 47.578125 
Q 36.03125 48 33.890625 48 
Q 26.265625 48 22.1875 43.046875 
Q 18.109375 38.09375 18.109375 28.8125 
L 18.109375 0 
L 9.078125 0 
L 9.078125 54.6875 
L 18.109375 54.6875 
L 18.109375 46.1875 
Q 20.953125 51.171875 25.484375 53.578125 
Q 30.03125 56 36.53125 56 
Q 37.453125 56 38.578125 55.875 
Q 39.703125 55.765625 41.0625 55.515625 
z
" id="DejaVuSans-72"/>
      <path d="M 30.609375 48.390625 
Q 23.390625 48.390625 19.1875 42.75 
Q 14.984375 37.109375 14.984375 27.296875 
Q 14.984375 17.484375 19.15625 11.84375 
Q 23.34375 6.203125 30.609375 6.203125 
Q 37.796875 6.203125 41.984375 11.859375 
Q 46.1875 17.53125 46.1875 27.296875 
Q 46.1875 37.015625 41.984375 42.703125 
Q 37.796875 48.390625 30.609375 48.390625 
z
M 30.609375 56 
Q 42.328125 56 49.015625 48.375 
Q 55.71875 40.765625 55.71875 27.296875 
Q 55.71875 13.875 49.015625 6.21875 
Q 42.328125 -1.421875 30.609375 -1.421875 
Q 18.84375 -1.421875 12.171875 6.21875 
Q 5.515625 13.875 5.515625 27.296875 
Q 5.515625 40.765625 12.171875 48.375 
Q 18.84375 56 30.609375 56 
z
" id="DejaVuSans-6f"/>
      <path d="M 4.203125 54.6875 
L 13.1875 54.6875 
L 24.421875 12.015625 
L 35.59375 54.6875 
L 46.1875 54.6875 
L 57.421875 12.015625 
L 68.609375 54.6875 
L 77.59375 54.6875 
L 63.28125 0 
L 52.6875 0 
L 40.921875 44.828125 
L 29.109375 0 
L 18.5 0 
z
" id="DejaVuSans-77"/>
      <path d="M 34.28125 27.484375 
Q 23.390625 27.484375 19.1875 25 
Q 14.984375 22.515625 14.984375 16.5 
Q 14.984375 11.71875 18.140625 8.90625 
Q 21.296875 6.109375 26.703125 6.109375 
Q 34.1875 6.109375 38.703125 11.40625 
Q 43.21875 16.703125 43.21875 25.484375 
L 43.21875 27.484375 
z
M 52.203125 31.203125 
L 52.203125 0 
L 43.21875 0 
L 43.21875 8.296875 
Q 40.140625 3.328125 35.546875 0.953125 
Q 30.953125 -1.421875 24.3125 -1.421875 
Q 15.921875 -1.421875 10.953125 3.296875 
Q 6 8.015625 6 15.921875 
Q 6 25.140625 12.171875 29.828125 
Q 18.359375 34.515625 30.609375 34.515625 
L 43.21875 34.515625 
L 43.21875 35.40625 
Q 43.21875 41.609375 39.140625 45 
Q 35.0625 48.390625 27.6875 48.390625 
Q 23 48.390625 18.546875 47.265625 
Q 14.109375 46.140625 10.015625 43.890625 
L 10.015625 52.203125 
Q 14.9375 54.109375 19.578125 55.046875 
Q 24.21875 56 28.609375 56 
Q 40.484375 56 46.34375 49.84375 
Q 52.203125 43.703125 52.203125 31.203125 
z
" id="DejaVuSans-61"/>
      <path d="M 2.984375 54.6875 
L 12.5 54.6875 
L 29.59375 8.796875 
L 46.6875 54.6875 
L 56.203125 54.6875 
L 35.6875 0 
L 23.484375 0 
z
" id="DejaVuSans-76"/>
      <path d="M 56.203125 29.59375 
L 56.203125 25.203125 
L 14.890625 25.203125 
Q 15.484375 15.921875 20.484375 11.0625 
Q 25.484375 6.203125 34.421875 6.203125 
Q 39.59375 6.203125 44.453125 7.46875 
Q 49.3125 8.734375 54.109375 11.28125 
L 54.109375 2.78125 
Q 49.265625 0.734375 44.1875 -0.34375 
Q 39.109375 -1.421875 33.890625 -1.421875 
Q 20.796875 -1.421875 13.15625 6.1875 
Q 5.515625 13.8125 5.515625 26.8125 
Q 5.515625 40.234375 12.765625 48.109375 
Q 20.015625 56 32.328125 56 
Q 43.359375 56 49.78125 48.890625 
Q 56.203125 41.796875 56.203125 29.59375 
z
M 47.21875 32.234375 
Q 47.125 39.59375 43.09375 43.984375 
Q 39.0625 48.390625 32.421875 48.390625 
Q 24.90625 48.390625 20.390625 44.140625 
Q 15.875 39.890625 15.1875 32.171875 
z
" id="DejaVuSans-65"/>
      <path id="DejaVuSans-20"/>
      <path d="M 37.109375 75.984375 
L 37.109375 68.5 
L 28.515625 68.5 
Q 23.6875 68.5 21.796875 66.546875 
Q 19.921875 64.59375 19.921875 59.515625 
L 19.921875 54.6875 
L 34.71875 54.6875 
L 34.71875 47.703125 
L 19.921875 47.703125 
L 19.921875 0 
L 10.890625 0 
L 10.890625 47.703125 
L 2.296875 47.703125 
L 2.296875 54.6875 
L 10.890625 54.6875 
L 10.890625 58.5 
Q 10.890625 67.625 15.140625 71.796875 
Q 19.390625 75.984375 28.609375 75.984375 
z
" id="DejaVuSans-66"/>
      <path d="M 14.796875 27.296875 
Q 14.796875 17.390625 18.875 11.75 
Q 22.953125 6.109375 30.078125 6.109375 
Q 37.203125 6.109375 41.296875 11.75 
Q 45.40625 17.390625 45.40625 27.296875 
Q 45.40625 37.203125 41.296875 42.84375 
Q 37.203125 48.484375 30.078125 48.484375 
Q 22.953125 48.484375 18.875 42.84375 
Q 14.796875 37.203125 14.796875 27.296875 
z
M 45.40625 8.203125 
Q 42.578125 3.328125 38.25 0.953125 
Q 33.9375 -1.421875 27.875 -1.421875 
Q 17.96875 -1.421875 11.734375 6.484375 
Q 5.515625 14.40625 5.515625 27.296875 
Q 5.515625 40.1875 11.734375 48.09375 
Q 17.96875 56 27.875 56 
Q 33.9375 56 38.25 53.625 
Q 42.578125 51.265625 45.40625 46.390625 
L 45.40625 54.6875 
L 54.390625 54.6875 
L 54.390625 -20.796875 
L 45.40625 -20.796875 
z
" id="DejaVuSans-71"/>
      <path d="M 8.5 21.578125 
L 8.5 54.6875 
L 17.484375 54.6875 
L 17.484375 21.921875 
Q 17.484375 14.15625 20.5 10.265625 
Q 23.53125 6.390625 29.59375 6.390625 
Q 36.859375 6.390625 41.078125 11.03125 
Q 45.3125 15.671875 45.3125 23.6875 
L 45.3125 54.6875 
L 54.296875 54.6875 
L 54.296875 0 
L 45.3125 0 
L 45.3125 8.40625 
Q 42.046875 3.421875 37.71875 1 
Q 33.40625 -1.421875 27.6875 -1.421875 
Q 18.265625 -1.421875 13.375 4.4375 
Q 8.5 10.296875 8.5 21.578125 
z
M 31.109375 56 
z
" id="DejaVuSans-75"/>
      <path d="M 54.890625 33.015625 
L 54.890625 0 
L 45.90625 0 
L 45.90625 32.71875 
Q 45.90625 40.484375 42.875 44.328125 
Q 39.84375 48.1875 33.796875 48.1875 
Q 26.515625 48.1875 22.3125 43.546875 
Q 18.109375 38.921875 18.109375 30.90625 
L 18.109375 0 
L 9.078125 0 
L 9.078125 54.6875 
L 18.109375 54.6875 
L 18.109375 46.1875 
Q 21.34375 51.125 25.703125 53.5625 
Q 30.078125 56 35.796875 56 
Q 45.21875 56 50.046875 50.171875 
Q 54.890625 44.34375 54.890625 33.015625 
z
" id="DejaVuSans-6e"/>
      <path d="M 32.171875 -5.078125 
Q 28.375 -14.84375 24.75 -17.8125 
Q 21.140625 -20.796875 15.09375 -20.796875 
L 7.90625 -20.796875 
L 7.90625 -13.28125 
L 13.1875 -13.28125 
Q 16.890625 -13.28125 18.9375 -11.515625 
Q 21 -9.765625 23.484375 -3.21875 
L 25.09375 0.875 
L 2.984375 54.6875 
L 12.5 54.6875 
L 29.59375 11.921875 
L 46.6875 54.6875 
L 56.203125 54.6875 
z
" id="DejaVuSans-79"/>
      <path d="M 31 75.875 
Q 24.46875 64.65625 21.28125 53.65625 
Q 18.109375 42.671875 18.109375 31.390625 
Q 18.109375 20.125 21.3125 9.0625 
Q 24.515625 -2 31 -13.1875 
L 23.1875 -13.1875 
Q 15.875 -1.703125 12.234375 9.375 
Q 8.59375 20.453125 8.59375 31.390625 
Q 8.59375 42.28125 12.203125 53.3125 
Q 15.828125 64.359375 23.1875 75.875 
z
" id="DejaVuSans-28"/>
      <path d="M 9.8125 72.90625 
L 19.671875 72.90625 
L 19.671875 43.015625 
L 55.515625 43.015625 
L 55.515625 72.90625 
L 65.375 72.90625 
L 65.375 0 
L 55.515625 0 
L 55.515625 34.71875 
L 19.671875 34.71875 
L 19.671875 0 
L 9.8125 0 
z
" id="DejaVuSans-48"/>
      <path d="M 5.515625 54.6875 
L 48.1875 54.6875 
L 48.1875 46.484375 
L 14.40625 7.171875 
L 48.1875 7.171875 
L 48.1875 0 
L 4.296875 0 
L 4.296875 8.203125 
L 38.09375 47.515625 
L 5.515625 47.515625 
z
" id="DejaVuSans-7a"/>
      <path d="M 8.015625 75.875 
L 15.828125 75.875 
Q 23.140625 64.359375 26.78125 53.3125 
Q 30.421875 42.28125 30.421875 31.390625 
Q 30.421875 20.453125 26.78125 9.375 
Q 23.140625 -1.703125 15.828125 -13.1875 
L 8.015625 -13.1875 
Q 14.5 -2 17.703125 9.0625 
Q 20.90625 20.125 20.90625 31.390625 
Q 20.90625 42.671875 17.703125 53.65625 
Q 14.5 64.65625 8.015625 75.875 
z
" id="DejaVuSans-29"/>
     </defs>
     <g transform="translate(192.659375 425.194063)scale(0.2 -0.2)">
      <use xlink:href="#DejaVuSans-4d"/>
      <use x="86.279297" xlink:href="#DejaVuSans-69"/>
      <use x="114.0625" xlink:href="#DejaVuSans-63"/>
      <use x="169.042969" xlink:href="#DejaVuSans-72"/>
      <use x="210.125" xlink:href="#DejaVuSans-6f"/>
      <use x="271.306641" xlink:href="#DejaVuSans-77"/>
      <use x="353.09375" xlink:href="#DejaVuSans-61"/>
      <use x="414.373047" xlink:href="#DejaVuSans-76"/>
      <use x="473.552734" xlink:href="#DejaVuSans-65"/>
      <use x="535.076172" xlink:href="#DejaVuSans-20"/>
      <use x="566.863281" xlink:href="#DejaVuSans-66"/>
      <use x="602.068359" xlink:href="#DejaVuSans-72"/>
      <use x="643.150391" xlink:href="#DejaVuSans-65"/>
      <use x="704.673828" xlink:href="#DejaVuSans-71"/>
      <use x="768.150391" xlink:href="#DejaVuSans-75"/>
      <use x="831.529297" xlink:href="#DejaVuSans-65"/>
      <use x="893.052734" xlink:href="#DejaVuSans-6e"/>
      <use x="956.431641" xlink:href="#DejaVuSans-63"/>
      <use x="1011.412109" xlink:href="#DejaVuSans-79"/>
      <use x="1070.591797" xlink:href="#DejaVuSans-20"/>
      <use x="1102.378906" xlink:href="#DejaVuSans-28"/>
      <use x="1141.392578" xlink:href="#DejaVuSans-4d"/>
      <use x="1227.671875" xlink:href="#DejaVuSans-48"/>
      <use x="1302.867188" xlink:href="#DejaVuSans-7a"/>
      <use x="1355.357422" xlink:href="#DejaVuSans-29"/>
     </g>
    </g>
   </g>
   <g id="matplotlib.axis_2">
    <g id="ytick_1">
     <g id="line2d_10">
      <defs>
       <path d="M 0 0 
L -3.5 0 
" id="m81e57e367d" style="stroke:#000000;stroke-width:0.8;"/>
      </defs>
      <g>
       <use style="stroke:#000000;stroke-width:0.8;" x="81" xlink:href="#m81e57e367d" y="368.104535"/>
      </g>
     </g>
     <g id="text_11">
      <!-- 0.0 -->
      <defs>
       <path d="M 10.6875 12.40625 
L 21 12.40625 
L 21 0 
L 10.6875 0 
z
" id="DejaVuSans-2e"/>
      </defs>
      <g transform="translate(50.145313 373.803363)scale(0.15 -0.15)">
       <use xlink:href="#DejaVuSans-30"/>
       <use x="63.623047" xlink:href="#DejaVuSans-2e"/>
       <use x="95.410156" xlink:href="#DejaVuSans-30"/>
      </g>
     </g>
    </g>
    <g id="ytick_2">
     <g id="line2d_11">
      <g>
       <use style="stroke:#000000;stroke-width:0.8;" x="81" xlink:href="#m81e57e367d" y="304.97753"/>
      </g>
     </g>
     <g id="text_12">
      <!-- 0.1 -->
      <g transform="translate(50.145313 310.676358)scale(0.15 -0.15)">
       <use xlink:href="#DejaVuSans-30"/>
       <use x="63.623047" xlink:href="#DejaVuSans-2e"/>
       <use x="95.410156" xlink:href="#DejaVuSans-31"/>
      </g>
     </g>
    </g>
    <g id="ytick_3">
     <g id="line2d_12">
      <g>
       <use style="stroke:#000000;stroke-width:0.8;" x="81" xlink:href="#m81e57e367d" y="241.850525"/>
      </g>
     </g>
     <g id="text_13">
      <!-- 0.2 -->
      <g transform="translate(50.145313 247.549353)scale(0.15 -0.15)">
       <use xlink:href="#DejaVuSans-30"/>
       <use x="63.623047" xlink:href="#DejaVuSans-2e"/>
       <use x="95.410156" xlink:href="#DejaVuSans-32"/>
      </g>
     </g>
    </g>
    <g id="ytick_4">
     <g id="line2d_13">
      <g>
       <use style="stroke:#000000;stroke-width:0.8;" x="81" xlink:href="#m81e57e367d" y="178.723519"/>
      </g>
     </g>
     <g id="text_14">
      <!-- 0.3 -->
      <g transform="translate(50.145313 184.422347)scale(0.15 -0.15)">
       <use xlink:href="#DejaVuSans-30"/>
       <use x="63.623047" xlink:href="#DejaVuSans-2e"/>
       <use x="95.410156" xlink:href="#DejaVuSans-33"/>
      </g>
     </g>
    </g>
    <g id="ytick_5">
     <g id="line2d_14">
      <g>
       <use style="stroke:#000000;stroke-width:0.8;" x="81" xlink:href="#m81e57e367d" y="115.596514"/>
      </g>
     </g>
     <g id="text_15">
      <!-- 0.4 -->
      <g transform="translate(50.145313 121.295342)scale(0.15 -0.15)">
       <use xlink:href="#DejaVuSans-30"/>
       <use x="63.623047" xlink:href="#DejaVuSans-2e"/>
       <use x="95.410156" xlink:href="#DejaVuSans-34"/>
      </g>
     </g>
    </g>
    <g id="ytick_6">
     <g id="line2d_15">
      <g>
       <use style="stroke:#000000;stroke-width:0.8;" x="81" xlink:href="#m81e57e367d" y="52.469509"/>
      </g>
     </g>
     <g id="text_16">
      <!-- 0.5 -->
      <g transform="translate(50.145313 58.168337)scale(0.15 -0.15)">
       <use xlink:href="#DejaVuSans-30"/>
       <use x="63.623047" xlink:href="#DejaVuSans-2e"/>
       <use x="95.410156" xlink:href="#DejaVuSans-35"/>
      </g>
     </g>
    </g>
    <g id="text_17">
     <!-- Demodulated PL (AU) -->
     <defs>
      <path d="M 19.671875 64.796875 
L 19.671875 8.109375 
L 31.59375 8.109375 
Q 46.6875 8.109375 53.6875 14.9375 
Q 60.6875 21.78125 60.6875 36.53125 
Q 60.6875 51.171875 53.6875 57.984375 
Q 46.6875 64.796875 31.59375 64.796875 
z
M 9.8125 72.90625 
L 30.078125 72.90625 
Q 51.265625 72.90625 61.171875 64.09375 
Q 71.09375 55.28125 71.09375 36.53125 
Q 71.09375 17.671875 61.125 8.828125 
Q 51.171875 0 30.078125 0 
L 9.8125 0 
z
" id="DejaVuSans-44"/>
      <path d="M 52 44.1875 
Q 55.375 50.25 60.0625 53.125 
Q 64.75 56 71.09375 56 
Q 79.640625 56 84.28125 50.015625 
Q 88.921875 44.046875 88.921875 33.015625 
L 88.921875 0 
L 79.890625 0 
L 79.890625 32.71875 
Q 79.890625 40.578125 77.09375 44.375 
Q 74.3125 48.1875 68.609375 48.1875 
Q 61.625 48.1875 57.5625 43.546875 
Q 53.515625 38.921875 53.515625 30.90625 
L 53.515625 0 
L 44.484375 0 
L 44.484375 32.71875 
Q 44.484375 40.625 41.703125 44.40625 
Q 38.921875 48.1875 33.109375 48.1875 
Q 26.21875 48.1875 22.15625 43.53125 
Q 18.109375 38.875 18.109375 30.90625 
L 18.109375 0 
L 9.078125 0 
L 9.078125 54.6875 
L 18.109375 54.6875 
L 18.109375 46.1875 
Q 21.1875 51.21875 25.484375 53.609375 
Q 29.78125 56 35.6875 56 
Q 41.65625 56 45.828125 52.96875 
Q 50 49.953125 52 44.1875 
z
" id="DejaVuSans-6d"/>
      <path d="M 45.40625 46.390625 
L 45.40625 75.984375 
L 54.390625 75.984375 
L 54.390625 0 
L 45.40625 0 
L 45.40625 8.203125 
Q 42.578125 3.328125 38.25 0.953125 
Q 33.9375 -1.421875 27.875 -1.421875 
Q 17.96875 -1.421875 11.734375 6.484375 
Q 5.515625 14.40625 5.515625 27.296875 
Q 5.515625 40.1875 11.734375 48.09375 
Q 17.96875 56 27.875 56 
Q 33.9375 56 38.25 53.625 
Q 42.578125 51.265625 45.40625 46.390625 
z
M 14.796875 27.296875 
Q 14.796875 17.390625 18.875 11.75 
Q 22.953125 6.109375 30.078125 6.109375 
Q 37.203125 6.109375 41.296875 11.75 
Q 45.40625 17.390625 45.40625 27.296875 
Q 45.40625 37.203125 41.296875 42.84375 
Q 37.203125 48.484375 30.078125 48.484375 
Q 22.953125 48.484375 18.875 42.84375 
Q 14.796875 37.203125 14.796875 27.296875 
z
" id="DejaVuSans-64"/>
      <path d="M 9.421875 75.984375 
L 18.40625 75.984375 
L 18.40625 0 
L 9.421875 0 
z
" id="DejaVuSans-6c"/>
      <path d="M 18.3125 70.21875 
L 18.3125 54.6875 
L 36.8125 54.6875 
L 36.8125 47.703125 
L 18.3125 47.703125 
L 18.3125 18.015625 
Q 18.3125 11.328125 20.140625 9.421875 
Q 21.96875 7.515625 27.59375 7.515625 
L 36.8125 7.515625 
L 36.8125 0 
L 27.59375 0 
Q 17.1875 0 13.234375 3.875 
Q 9.28125 7.765625 9.28125 18.015625 
L 9.28125 47.703125 
L 2.6875 47.703125 
L 2.6875 54.6875 
L 9.28125 54.6875 
L 9.28125 70.21875 
z
" id="DejaVuSans-74"/>
      <path d="M 19.671875 64.796875 
L 19.671875 37.40625 
L 32.078125 37.40625 
Q 38.96875 37.40625 42.71875 40.96875 
Q 46.484375 44.53125 46.484375 51.125 
Q 46.484375 57.671875 42.71875 61.234375 
Q 38.96875 64.796875 32.078125 64.796875 
z
M 9.8125 72.90625 
L 32.078125 72.90625 
Q 44.34375 72.90625 50.609375 67.359375 
Q 56.890625 61.8125 56.890625 51.125 
Q 56.890625 40.328125 50.609375 34.8125 
Q 44.34375 29.296875 32.078125 29.296875 
L 19.671875 29.296875 
L 19.671875 0 
L 9.8125 0 
z
" id="DejaVuSans-50"/>
      <path d="M 9.8125 72.90625 
L 19.671875 72.90625 
L 19.671875 8.296875 
L 55.171875 8.296875 
L 55.171875 0 
L 9.8125 0 
z
" id="DejaVuSans-4c"/>
      <path d="M 34.1875 63.1875 
L 20.796875 26.90625 
L 47.609375 26.90625 
z
M 28.609375 72.90625 
L 39.796875 72.90625 
L 67.578125 0 
L 57.328125 0 
L 50.6875 18.703125 
L 17.828125 18.703125 
L 11.1875 0 
L 0.78125 0 
z
" id="DejaVuSans-41"/>
      <path d="M 8.6875 72.90625 
L 18.609375 72.90625 
L 18.609375 28.609375 
Q 18.609375 16.890625 22.84375 11.734375 
Q 27.09375 6.59375 36.625 6.59375 
Q 46.09375 6.59375 50.34375 11.734375 
Q 54.59375 16.890625 54.59375 28.609375 
L 54.59375 72.90625 
L 64.5 72.90625 
L 64.5 27.390625 
Q 64.5 13.140625 57.4375 5.859375 
Q 50.390625 -1.421875 36.625 -1.421875 
Q 22.796875 -1.421875 15.734375 5.859375 
Q 8.6875 13.140625 8.6875 27.390625 
z
" id="DejaVuSans-55"/>
     </defs>
     <g transform="translate(41.985937 325.806875)rotate(-90)scale(0.2 -0.2)">
      <use xlink:href="#DejaVuSans-44"/>
      <use x="77.001953" xlink:href="#DejaVuSans-65"/>
      <use x="138.525391" xlink:href="#DejaVuSans-6d"/>
      <use x="235.9375" xlink:href="#DejaVuSans-6f"/>
      <use x="297.119141" xlink:href="#DejaVuSans-64"/>
      <use x="360.595703" xlink:href="#DejaVuSans-75"/>
      <use x="423.974609" xlink:href="#DejaVuSans-6c"/>
      <use x="451.757812" xlink:href="#DejaVuSans-61"/>
      <use x="513.037109" xlink:href="#DejaVuSans-74"/>
      <use x="552.246094" xlink:href="#DejaVuSans-65"/>
      <use x="613.769531" xlink:href="#DejaVuSans-64"/>
      <use x="677.246094" xlink:href="#DejaVuSans-20"/>
      <use x="709.033203" xlink:href="#DejaVuSans-50"/>
      <use x="769.335938" xlink:href="#DejaVuSans-4c"/>
      <use x="825.048828" xlink:href="#DejaVuSans-20"/>
      <use x="856.835938" xlink:href="#DejaVuSans-28"/>
      <use x="895.849609" xlink:href="#DejaVuSans-41"/>
      <use x="964.257812" xlink:href="#DejaVuSans-55"/>
      <use x="1037.451172" xlink:href="#DejaVuSans-29"/>
     </g>
    </g>
   </g>
   <g id="line2d_16">
    <path clip-path="url(#p9ee282e943)" d="M 103.827273 368.421321 
L 105.349091 368.348003 
L 106.870909 368.502536 
L 111.436364 368.646983 
L 112.958182 368.828052 
L 114.48 368.118428 
L 117.523636 368.034919 
L 119.045455 368.151211 
L 120.567273 368.517604 
L 122.089091 368.716077 
L 125.132727 368.435704 
L 126.654545 368.668029 
L 128.176364 368.585537 
L 129.698182 369.252135 
L 131.22 369.182687 
L 132.741818 368.8085 
L 134.263636 368.898973 
L 135.785455 368.365779 
L 137.307273 368.075236 
L 138.829091 368.392927 
L 140.350909 368.37514 
L 143.394545 368.56118 
L 144.916364 368.573582 
L 146.438182 368.723051 
L 147.96 368.402475 
L 149.481818 368.615424 
L 151.003636 369.019779 
L 152.525455 369.030561 
L 155.569091 368.364762 
L 157.090909 368.362085 
L 158.612727 368.784414 
L 160.134545 368.69445 
L 161.656364 368.324051 
L 166.221818 367.746784 
L 167.743636 367.957917 
L 170.787273 368.784237 
L 172.309091 368.861873 
L 175.352727 368.597855 
L 176.874545 368.224114 
L 178.396364 368.584426 
L 179.918182 368.719087 
L 181.44 368.208008 
L 182.961818 368.122268 
L 184.483636 368.382923 
L 186.005455 368.517438 
L 189.049091 368.550709 
L 190.570909 368.805532 
L 192.092727 368.672532 
L 193.614545 368.120369 
L 195.136364 368.338849 
L 196.658182 368.855781 
L 198.18 368.843079 
L 201.223636 368.02477 
L 202.745455 368.391402 
L 205.789091 368.110572 
L 208.832727 368.243998 
L 211.876364 367.578759 
L 213.398182 367.500013 
L 214.92 367.614863 
L 216.441818 367.575563 
L 217.963636 367.760814 
L 219.485455 367.644636 
L 221.007273 367.275638 
L 222.529091 367.141953 
L 224.050909 367.306844 
L 225.572727 366.953308 
L 227.094545 366.77391 
L 230.138182 366.814071 
L 233.181818 367.033476 
L 234.703636 366.625022 
L 236.225455 365.715763 
L 239.269091 363.337039 
L 243.834545 361.375248 
L 248.4 360.415907 
L 249.921818 360.343398 
L 251.443636 359.973061 
L 254.487273 357.604383 
L 256.009091 355.678519 
L 257.530909 353.564477 
L 260.574545 350.050605 
L 262.096364 348.560779 
L 263.618182 346.5952 
L 266.661818 341.787379 
L 268.183636 339.278894 
L 269.705455 336.524603 
L 271.227273 332.765652 
L 272.749091 328.309395 
L 277.314545 313.154083 
L 278.836364 308.492402 
L 280.358182 303.122041 
L 287.967273 274.280263 
L 289.489091 267.036468 
L 291.010909 258.837379 
L 294.054545 243.790196 
L 297.098182 226.570112 
L 300.141818 205.638247 
L 303.185455 181.811757 
L 306.229091 156.05175 
L 309.272727 126.985668 
L 312.316364 97.045283 
L 313.838182 83.990836 
L 315.36 73.232016 
L 316.881818 67.099673 
L 318.403636 66.96 
L 319.925455 73.415348 
L 321.447273 86.267192 
L 322.969091 105.252087 
L 324.490909 128.98821 
L 327.534545 187.523561 
L 329.056364 218.23567 
L 330.578182 245.783109 
L 332.1 269.149709 
L 333.621818 285.434439 
L 335.143636 294.447375 
L 336.665455 294.937241 
L 338.187273 286.81039 
L 339.709091 271.128229 
L 341.230909 249.495525 
L 342.752727 224.236626 
L 347.318182 144.246933 
L 348.84 123.874108 
L 350.361818 107.711515 
L 351.883636 97.855248 
L 353.405455 93.550385 
L 354.927273 95.829875 
L 356.449091 104.367808 
L 357.970909 116.634625 
L 361.014545 144.707617 
L 365.58 189.247204 
L 367.101818 201.981134 
L 371.667273 235.807306 
L 373.189091 245.139664 
L 374.710909 253.694674 
L 377.754545 268.643249 
L 380.798182 281.866386 
L 383.841818 293.784845 
L 385.363636 299.365778 
L 386.885455 304.500639 
L 388.407273 309.19447 
L 391.450909 317.564844 
L 396.016364 330.233609 
L 399.06 338.550341 
L 400.581818 341.915024 
L 402.103636 344.886945 
L 405.147273 349.44455 
L 406.669091 351.654211 
L 408.190909 353.438046 
L 409.712727 354.70741 
L 411.234545 356.328814 
L 412.756364 358.137773 
L 414.278182 359.408496 
L 417.321818 361.239871 
L 418.843636 361.76881 
L 420.365455 361.887551 
L 421.887273 362.617515 
L 423.409091 363.601815 
L 424.930909 364.268548 
L 426.452727 364.780934 
L 427.974545 365.011577 
L 429.496364 365.124465 
L 431.018182 365.435317 
L 432.54 365.872216 
L 434.061818 366.664446 
L 437.105455 366.279114 
L 438.627273 367.007013 
L 440.149091 368.21988 
L 443.192727 368.092225 
L 444.714545 368.309875 
L 447.758182 368.312532 
L 450.801818 367.920827 
L 452.323636 367.803985 
L 453.845455 367.875062 
L 455.367273 367.799087 
L 456.889091 367.342854 
L 458.410909 367.58016 
L 459.932727 368.177155 
L 461.454545 368.458047 
L 464.498182 368.362396 
L 466.02 368.711283 
L 467.541818 368.707484 
L 470.585455 368.416972 
L 472.107273 368.354572 
L 473.629091 368.096936 
L 475.150909 368.880428 
L 476.672727 369.202488 
L 478.194545 369.084442 
L 481.238182 367.954451 
L 482.76 368.013385 
L 485.803636 368.752046 
L 487.325455 368.506967 
L 491.890909 368.116103 
L 493.412727 368.231129 
L 494.934545 367.416141 
L 496.456364 367.279001 
L 497.978182 367.937888 
L 499.5 368.767654 
L 501.021818 368.9805 
L 502.543636 368.30588 
L 504.065455 368.121064 
L 507.109091 368.679724 
L 510.152727 368.472514 
L 511.674545 368.652192 
L 514.718182 368.50511 
L 516.24 368.806082 
L 517.761818 368.653344 
L 519.283636 368.65186 
L 520.805455 368.778717 
L 522.327273 368.412479 
L 523.849091 368.336203 
L 526.892727 368.804785 
L 528.414545 368.605524 
L 529.936364 368.599588 
L 531.458182 369.037016 
L 532.98 368.708045 
L 534.501818 368.200048 
L 536.023636 368.422441 
L 537.545455 368.817799 
L 539.067273 368.828228 
L 540.589091 368.519151 
L 543.632727 368.792166 
L 548.198182 368.993607 
L 549.72 368.613006 
L 552.763636 368.976286 
L 555.807273 368.398261 
L 557.329091 368.520427 
L 558.850909 369.283278 
L 560.372727 369.36 
L 560.372727 369.36 
" style="fill:none;stroke:#1f77b4;stroke-linecap:square;stroke-width:1.5;"/>
    <defs>
     <path d="M 0 4 
C 1.060812 4 2.078319 3.578535 2.828427 2.828427 
C 3.578535 2.078319 4 1.060812 4 0 
C 4 -1.060812 3.578535 -2.078319 2.828427 -2.828427 
C 2.078319 -3.578535 1.060812 -4 0 -4 
C -1.060812 -4 -2.078319 -3.578535 -2.828427 -2.828427 
C -3.578535 -2.078319 -4 -1.060812 -4 0 
C -4 1.060812 -3.578535 2.078319 -2.828427 2.828427 
C -2.078319 3.578535 -1.060812 4 0 4 
z
" id="m3c728aed35" style="stroke:#1f77b4;stroke-width:2;"/>
    </defs>
    <g clip-path="url(#p9ee282e943)">
     <use style="fill-opacity:0;stroke:#1f77b4;stroke-width:2;" x="103.827273" xlink:href="#m3c728aed35" y="368.421321"/>
     <use style="fill-opacity:0;stroke:#1f77b4;stroke-width:2;" x="105.349091" xlink:href="#m3c728aed35" y="368.348003"/>
     <use style="fill-opacity:0;stroke:#1f77b4;stroke-width:2;" x="106.870909" xlink:href="#m3c728aed35" y="368.502536"/>
     <use style="fill-opacity:0;stroke:#1f77b4;stroke-width:2;" x="108.392727" xlink:href="#m3c728aed35" y="368.53068"/>
     <use style="fill-opacity:0;stroke:#1f77b4;stroke-width:2;" x="109.914545" xlink:href="#m3c728aed35" y="368.594264"/>
     <use style="fill-opacity:0;stroke:#1f77b4;stroke-width:2;" x="111.436364" xlink:href="#m3c728aed35" y="368.646983"/>
     <use style="fill-opacity:0;stroke:#1f77b4;stroke-width:2;" x="112.958182" xlink:href="#m3c728aed35" y="368.828052"/>
     <use style="fill-opacity:0;stroke:#1f77b4;stroke-width:2;" x="114.48" xlink:href="#m3c728aed35" y="368.118428"/>
     <use style="fill-opacity:0;stroke:#1f77b4;stroke-width:2;" x="116.001818" xlink:href="#m3c728aed35" y="368.048119"/>
     <use style="fill-opacity:0;stroke:#1f77b4;stroke-width:2;" x="117.523636" xlink:href="#m3c728aed35" y="368.034919"/>
     <use style="fill-opacity:0;stroke:#1f77b4;stroke-width:2;" x="119.045455" xlink:href="#m3c728aed35" y="368.151211"/>
     <use style="fill-opacity:0;stroke:#1f77b4;stroke-width:2;" x="120.567273" xlink:href="#m3c728aed35" y="368.517604"/>
     <use style="fill-opacity:0;stroke:#1f77b4;stroke-width:2;" x="122.089091" xlink:href="#m3c728aed35" y="368.716077"/>
     <use style="fill-opacity:0;stroke:#1f77b4;stroke-width:2;" x="123.610909" xlink:href="#m3c728aed35" y="368.595416"/>
     <use style="fill-opacity:0;stroke:#1f77b4;stroke-width:2;" x="125.132727" xlink:href="#m3c728aed35" y="368.435704"/>
     <use style="fill-opacity:0;stroke:#1f77b4;stroke-width:2;" x="126.654545" xlink:href="#m3c728aed35" y="368.668029"/>
     <use style="fill-opacity:0;stroke:#1f77b4;stroke-width:2;" x="128.176364" xlink:href="#m3c728aed35" y="368.585537"/>
     <use style="fill-opacity:0;stroke:#1f77b4;stroke-width:2;" x="129.698182" xlink:href="#m3c728aed35" y="369.252135"/>
     <use style="fill-opacity:0;stroke:#1f77b4;stroke-width:2;" x="131.22" xlink:href="#m3c728aed35" y="369.182687"/>
     <use style="fill-opacity:0;stroke:#1f77b4;stroke-width:2;" x="132.741818" xlink:href="#m3c728aed35" y="368.8085"/>
     <use style="fill-opacity:0;stroke:#1f77b4;stroke-width:2;" x="134.263636" xlink:href="#m3c728aed35" y="368.898973"/>
     <use style="fill-opacity:0;stroke:#1f77b4;stroke-width:2;" x="135.785455" xlink:href="#m3c728aed35" y="368.365779"/>
     <use style="fill-opacity:0;stroke:#1f77b4;stroke-width:2;" x="137.307273" xlink:href="#m3c728aed35" y="368.075236"/>
     <use style="fill-opacity:0;stroke:#1f77b4;stroke-width:2;" x="138.829091" xlink:href="#m3c728aed35" y="368.392927"/>
     <use style="fill-opacity:0;stroke:#1f77b4;stroke-width:2;" x="140.350909" xlink:href="#m3c728aed35" y="368.37514"/>
     <use style="fill-opacity:0;stroke:#1f77b4;stroke-width:2;" x="141.872727" xlink:href="#m3c728aed35" y="368.495012"/>
     <use style="fill-opacity:0;stroke:#1f77b4;stroke-width:2;" x="143.394545" xlink:href="#m3c728aed35" y="368.56118"/>
     <use style="fill-opacity:0;stroke:#1f77b4;stroke-width:2;" x="144.916364" xlink:href="#m3c728aed35" y="368.573582"/>
     <use style="fill-opacity:0;stroke:#1f77b4;stroke-width:2;" x="146.438182" xlink:href="#m3c728aed35" y="368.723051"/>
     <use style="fill-opacity:0;stroke:#1f77b4;stroke-width:2;" x="147.96" xlink:href="#m3c728aed35" y="368.402475"/>
     <use style="fill-opacity:0;stroke:#1f77b4;stroke-width:2;" x="149.481818" xlink:href="#m3c728aed35" y="368.615424"/>
     <use style="fill-opacity:0;stroke:#1f77b4;stroke-width:2;" x="151.003636" xlink:href="#m3c728aed35" y="369.019779"/>
     <use style="fill-opacity:0;stroke:#1f77b4;stroke-width:2;" x="152.525455" xlink:href="#m3c728aed35" y="369.030561"/>
     <use style="fill-opacity:0;stroke:#1f77b4;stroke-width:2;" x="154.047273" xlink:href="#m3c728aed35" y="368.745716"/>
     <use style="fill-opacity:0;stroke:#1f77b4;stroke-width:2;" x="155.569091" xlink:href="#m3c728aed35" y="368.364762"/>
     <use style="fill-opacity:0;stroke:#1f77b4;stroke-width:2;" x="157.090909" xlink:href="#m3c728aed35" y="368.362085"/>
     <use style="fill-opacity:0;stroke:#1f77b4;stroke-width:2;" x="158.612727" xlink:href="#m3c728aed35" y="368.784414"/>
     <use style="fill-opacity:0;stroke:#1f77b4;stroke-width:2;" x="160.134545" xlink:href="#m3c728aed35" y="368.69445"/>
     <use style="fill-opacity:0;stroke:#1f77b4;stroke-width:2;" x="161.656364" xlink:href="#m3c728aed35" y="368.324051"/>
     <use style="fill-opacity:0;stroke:#1f77b4;stroke-width:2;" x="163.178182" xlink:href="#m3c728aed35" y="368.15064"/>
     <use style="fill-opacity:0;stroke:#1f77b4;stroke-width:2;" x="164.7" xlink:href="#m3c728aed35" y="367.867455"/>
     <use style="fill-opacity:0;stroke:#1f77b4;stroke-width:2;" x="166.221818" xlink:href="#m3c728aed35" y="367.746784"/>
     <use style="fill-opacity:0;stroke:#1f77b4;stroke-width:2;" x="167.743636" xlink:href="#m3c728aed35" y="367.957917"/>
     <use style="fill-opacity:0;stroke:#1f77b4;stroke-width:2;" x="169.265455" xlink:href="#m3c728aed35" y="368.421808"/>
     <use style="fill-opacity:0;stroke:#1f77b4;stroke-width:2;" x="170.787273" xlink:href="#m3c728aed35" y="368.784237"/>
     <use style="fill-opacity:0;stroke:#1f77b4;stroke-width:2;" x="172.309091" xlink:href="#m3c728aed35" y="368.861873"/>
     <use style="fill-opacity:0;stroke:#1f77b4;stroke-width:2;" x="173.830909" xlink:href="#m3c728aed35" y="368.784134"/>
     <use style="fill-opacity:0;stroke:#1f77b4;stroke-width:2;" x="175.352727" xlink:href="#m3c728aed35" y="368.597855"/>
     <use style="fill-opacity:0;stroke:#1f77b4;stroke-width:2;" x="176.874545" xlink:href="#m3c728aed35" y="368.224114"/>
     <use style="fill-opacity:0;stroke:#1f77b4;stroke-width:2;" x="178.396364" xlink:href="#m3c728aed35" y="368.584426"/>
     <use style="fill-opacity:0;stroke:#1f77b4;stroke-width:2;" x="179.918182" xlink:href="#m3c728aed35" y="368.719087"/>
     <use style="fill-opacity:0;stroke:#1f77b4;stroke-width:2;" x="181.44" xlink:href="#m3c728aed35" y="368.208008"/>
     <use style="fill-opacity:0;stroke:#1f77b4;stroke-width:2;" x="182.961818" xlink:href="#m3c728aed35" y="368.122268"/>
     <use style="fill-opacity:0;stroke:#1f77b4;stroke-width:2;" x="184.483636" xlink:href="#m3c728aed35" y="368.382923"/>
     <use style="fill-opacity:0;stroke:#1f77b4;stroke-width:2;" x="186.005455" xlink:href="#m3c728aed35" y="368.517438"/>
     <use style="fill-opacity:0;stroke:#1f77b4;stroke-width:2;" x="187.527273" xlink:href="#m3c728aed35" y="368.49989"/>
     <use style="fill-opacity:0;stroke:#1f77b4;stroke-width:2;" x="189.049091" xlink:href="#m3c728aed35" y="368.550709"/>
     <use style="fill-opacity:0;stroke:#1f77b4;stroke-width:2;" x="190.570909" xlink:href="#m3c728aed35" y="368.805532"/>
     <use style="fill-opacity:0;stroke:#1f77b4;stroke-width:2;" x="192.092727" xlink:href="#m3c728aed35" y="368.672532"/>
     <use style="fill-opacity:0;stroke:#1f77b4;stroke-width:2;" x="193.614545" xlink:href="#m3c728aed35" y="368.120369"/>
     <use style="fill-opacity:0;stroke:#1f77b4;stroke-width:2;" x="195.136364" xlink:href="#m3c728aed35" y="368.338849"/>
     <use style="fill-opacity:0;stroke:#1f77b4;stroke-width:2;" x="196.658182" xlink:href="#m3c728aed35" y="368.855781"/>
     <use style="fill-opacity:0;stroke:#1f77b4;stroke-width:2;" x="198.18" xlink:href="#m3c728aed35" y="368.843079"/>
     <use style="fill-opacity:0;stroke:#1f77b4;stroke-width:2;" x="199.701818" xlink:href="#m3c728aed35" y="368.429083"/>
     <use style="fill-opacity:0;stroke:#1f77b4;stroke-width:2;" x="201.223636" xlink:href="#m3c728aed35" y="368.02477"/>
     <use style="fill-opacity:0;stroke:#1f77b4;stroke-width:2;" x="202.745455" xlink:href="#m3c728aed35" y="368.391402"/>
     <use style="fill-opacity:0;stroke:#1f77b4;stroke-width:2;" x="204.267273" xlink:href="#m3c728aed35" y="368.288653"/>
     <use style="fill-opacity:0;stroke:#1f77b4;stroke-width:2;" x="205.789091" xlink:href="#m3c728aed35" y="368.110572"/>
     <use style="fill-opacity:0;stroke:#1f77b4;stroke-width:2;" x="207.310909" xlink:href="#m3c728aed35" y="368.22757"/>
     <use style="fill-opacity:0;stroke:#1f77b4;stroke-width:2;" x="208.832727" xlink:href="#m3c728aed35" y="368.243998"/>
     <use style="fill-opacity:0;stroke:#1f77b4;stroke-width:2;" x="210.354545" xlink:href="#m3c728aed35" y="367.951763"/>
     <use style="fill-opacity:0;stroke:#1f77b4;stroke-width:2;" x="211.876364" xlink:href="#m3c728aed35" y="367.578759"/>
     <use style="fill-opacity:0;stroke:#1f77b4;stroke-width:2;" x="213.398182" xlink:href="#m3c728aed35" y="367.500013"/>
     <use style="fill-opacity:0;stroke:#1f77b4;stroke-width:2;" x="214.92" xlink:href="#m3c728aed35" y="367.614863"/>
     <use style="fill-opacity:0;stroke:#1f77b4;stroke-width:2;" x="216.441818" xlink:href="#m3c728aed35" y="367.575563"/>
     <use style="fill-opacity:0;stroke:#1f77b4;stroke-width:2;" x="217.963636" xlink:href="#m3c728aed35" y="367.760814"/>
     <use style="fill-opacity:0;stroke:#1f77b4;stroke-width:2;" x="219.485455" xlink:href="#m3c728aed35" y="367.644636"/>
     <use style="fill-opacity:0;stroke:#1f77b4;stroke-width:2;" x="221.007273" xlink:href="#m3c728aed35" y="367.275638"/>
     <use style="fill-opacity:0;stroke:#1f77b4;stroke-width:2;" x="222.529091" xlink:href="#m3c728aed35" y="367.141953"/>
     <use style="fill-opacity:0;stroke:#1f77b4;stroke-width:2;" x="224.050909" xlink:href="#m3c728aed35" y="367.306844"/>
     <use style="fill-opacity:0;stroke:#1f77b4;stroke-width:2;" x="225.572727" xlink:href="#m3c728aed35" y="366.953308"/>
     <use style="fill-opacity:0;stroke:#1f77b4;stroke-width:2;" x="227.094545" xlink:href="#m3c728aed35" y="366.77391"/>
     <use style="fill-opacity:0;stroke:#1f77b4;stroke-width:2;" x="228.616364" xlink:href="#m3c728aed35" y="366.754348"/>
     <use style="fill-opacity:0;stroke:#1f77b4;stroke-width:2;" x="230.138182" xlink:href="#m3c728aed35" y="366.814071"/>
     <use style="fill-opacity:0;stroke:#1f77b4;stroke-width:2;" x="231.66" xlink:href="#m3c728aed35" y="366.939413"/>
     <use style="fill-opacity:0;stroke:#1f77b4;stroke-width:2;" x="233.181818" xlink:href="#m3c728aed35" y="367.033476"/>
     <use style="fill-opacity:0;stroke:#1f77b4;stroke-width:2;" x="234.703636" xlink:href="#m3c728aed35" y="366.625022"/>
     <use style="fill-opacity:0;stroke:#1f77b4;stroke-width:2;" x="236.225455" xlink:href="#m3c728aed35" y="365.715763"/>
     <use style="fill-opacity:0;stroke:#1f77b4;stroke-width:2;" x="237.747273" xlink:href="#m3c728aed35" y="364.568918"/>
     <use style="fill-opacity:0;stroke:#1f77b4;stroke-width:2;" x="239.269091" xlink:href="#m3c728aed35" y="363.337039"/>
     <use style="fill-opacity:0;stroke:#1f77b4;stroke-width:2;" x="240.790909" xlink:href="#m3c728aed35" y="362.663353"/>
     <use style="fill-opacity:0;stroke:#1f77b4;stroke-width:2;" x="242.312727" xlink:href="#m3c728aed35" y="361.994752"/>
     <use style="fill-opacity:0;stroke:#1f77b4;stroke-width:2;" x="243.834545" xlink:href="#m3c728aed35" y="361.375248"/>
     <use style="fill-opacity:0;stroke:#1f77b4;stroke-width:2;" x="245.356364" xlink:href="#m3c728aed35" y="361.028074"/>
     <use style="fill-opacity:0;stroke:#1f77b4;stroke-width:2;" x="246.878182" xlink:href="#m3c728aed35" y="360.69161"/>
     <use style="fill-opacity:0;stroke:#1f77b4;stroke-width:2;" x="248.4" xlink:href="#m3c728aed35" y="360.415907"/>
     <use style="fill-opacity:0;stroke:#1f77b4;stroke-width:2;" x="249.921818" xlink:href="#m3c728aed35" y="360.343398"/>
     <use style="fill-opacity:0;stroke:#1f77b4;stroke-width:2;" x="251.443636" xlink:href="#m3c728aed35" y="359.973061"/>
     <use style="fill-opacity:0;stroke:#1f77b4;stroke-width:2;" x="252.965455" xlink:href="#m3c728aed35" y="358.794668"/>
     <use style="fill-opacity:0;stroke:#1f77b4;stroke-width:2;" x="254.487273" xlink:href="#m3c728aed35" y="357.604383"/>
     <use style="fill-opacity:0;stroke:#1f77b4;stroke-width:2;" x="256.009091" xlink:href="#m3c728aed35" y="355.678519"/>
     <use style="fill-opacity:0;stroke:#1f77b4;stroke-width:2;" x="257.530909" xlink:href="#m3c728aed35" y="353.564477"/>
     <use style="fill-opacity:0;stroke:#1f77b4;stroke-width:2;" x="259.052727" xlink:href="#m3c728aed35" y="351.762388"/>
     <use style="fill-opacity:0;stroke:#1f77b4;stroke-width:2;" x="260.574545" xlink:href="#m3c728aed35" y="350.050605"/>
     <use style="fill-opacity:0;stroke:#1f77b4;stroke-width:2;" x="262.096364" xlink:href="#m3c728aed35" y="348.560779"/>
     <use style="fill-opacity:0;stroke:#1f77b4;stroke-width:2;" x="263.618182" xlink:href="#m3c728aed35" y="346.5952"/>
     <use style="fill-opacity:0;stroke:#1f77b4;stroke-width:2;" x="265.14" xlink:href="#m3c728aed35" y="344.288487"/>
     <use style="fill-opacity:0;stroke:#1f77b4;stroke-width:2;" x="266.661818" xlink:href="#m3c728aed35" y="341.787379"/>
     <use style="fill-opacity:0;stroke:#1f77b4;stroke-width:2;" x="268.183636" xlink:href="#m3c728aed35" y="339.278894"/>
     <use style="fill-opacity:0;stroke:#1f77b4;stroke-width:2;" x="269.705455" xlink:href="#m3c728aed35" y="336.524603"/>
     <use style="fill-opacity:0;stroke:#1f77b4;stroke-width:2;" x="271.227273" xlink:href="#m3c728aed35" y="332.765652"/>
     <use style="fill-opacity:0;stroke:#1f77b4;stroke-width:2;" x="272.749091" xlink:href="#m3c728aed35" y="328.309395"/>
     <use style="fill-opacity:0;stroke:#1f77b4;stroke-width:2;" x="274.270909" xlink:href="#m3c728aed35" y="323.202772"/>
     <use style="fill-opacity:0;stroke:#1f77b4;stroke-width:2;" x="275.792727" xlink:href="#m3c728aed35" y="318.404707"/>
     <use style="fill-opacity:0;stroke:#1f77b4;stroke-width:2;" x="277.314545" xlink:href="#m3c728aed35" y="313.154083"/>
     <use style="fill-opacity:0;stroke:#1f77b4;stroke-width:2;" x="278.836364" xlink:href="#m3c728aed35" y="308.492402"/>
     <use style="fill-opacity:0;stroke:#1f77b4;stroke-width:2;" x="280.358182" xlink:href="#m3c728aed35" y="303.122041"/>
     <use style="fill-opacity:0;stroke:#1f77b4;stroke-width:2;" x="281.88" xlink:href="#m3c728aed35" y="297.298831"/>
     <use style="fill-opacity:0;stroke:#1f77b4;stroke-width:2;" x="283.401818" xlink:href="#m3c728aed35" y="291.25137"/>
     <use style="fill-opacity:0;stroke:#1f77b4;stroke-width:2;" x="284.923636" xlink:href="#m3c728aed35" y="285.476064"/>
     <use style="fill-opacity:0;stroke:#1f77b4;stroke-width:2;" x="286.445455" xlink:href="#m3c728aed35" y="280.003141"/>
     <use style="fill-opacity:0;stroke:#1f77b4;stroke-width:2;" x="287.967273" xlink:href="#m3c728aed35" y="274.280263"/>
     <use style="fill-opacity:0;stroke:#1f77b4;stroke-width:2;" x="289.489091" xlink:href="#m3c728aed35" y="267.036468"/>
     <use style="fill-opacity:0;stroke:#1f77b4;stroke-width:2;" x="291.010909" xlink:href="#m3c728aed35" y="258.837379"/>
     <use style="fill-opacity:0;stroke:#1f77b4;stroke-width:2;" x="292.532727" xlink:href="#m3c728aed35" y="251.280885"/>
     <use style="fill-opacity:0;stroke:#1f77b4;stroke-width:2;" x="294.054545" xlink:href="#m3c728aed35" y="243.790196"/>
     <use style="fill-opacity:0;stroke:#1f77b4;stroke-width:2;" x="295.576364" xlink:href="#m3c728aed35" y="235.461284"/>
     <use style="fill-opacity:0;stroke:#1f77b4;stroke-width:2;" x="297.098182" xlink:href="#m3c728aed35" y="226.570112"/>
     <use style="fill-opacity:0;stroke:#1f77b4;stroke-width:2;" x="298.62" xlink:href="#m3c728aed35" y="216.381413"/>
     <use style="fill-opacity:0;stroke:#1f77b4;stroke-width:2;" x="300.141818" xlink:href="#m3c728aed35" y="205.638247"/>
     <use style="fill-opacity:0;stroke:#1f77b4;stroke-width:2;" x="301.663636" xlink:href="#m3c728aed35" y="193.839768"/>
     <use style="fill-opacity:0;stroke:#1f77b4;stroke-width:2;" x="303.185455" xlink:href="#m3c728aed35" y="181.811757"/>
     <use style="fill-opacity:0;stroke:#1f77b4;stroke-width:2;" x="304.707273" xlink:href="#m3c728aed35" y="169.163081"/>
     <use style="fill-opacity:0;stroke:#1f77b4;stroke-width:2;" x="306.229091" xlink:href="#m3c728aed35" y="156.05175"/>
     <use style="fill-opacity:0;stroke:#1f77b4;stroke-width:2;" x="307.750909" xlink:href="#m3c728aed35" y="141.874085"/>
     <use style="fill-opacity:0;stroke:#1f77b4;stroke-width:2;" x="309.272727" xlink:href="#m3c728aed35" y="126.985668"/>
     <use style="fill-opacity:0;stroke:#1f77b4;stroke-width:2;" x="310.794545" xlink:href="#m3c728aed35" y="111.730038"/>
     <use style="fill-opacity:0;stroke:#1f77b4;stroke-width:2;" x="312.316364" xlink:href="#m3c728aed35" y="97.045283"/>
     <use style="fill-opacity:0;stroke:#1f77b4;stroke-width:2;" x="313.838182" xlink:href="#m3c728aed35" y="83.990836"/>
     <use style="fill-opacity:0;stroke:#1f77b4;stroke-width:2;" x="315.36" xlink:href="#m3c728aed35" y="73.232016"/>
     <use style="fill-opacity:0;stroke:#1f77b4;stroke-width:2;" x="316.881818" xlink:href="#m3c728aed35" y="67.099673"/>
     <use style="fill-opacity:0;stroke:#1f77b4;stroke-width:2;" x="318.403636" xlink:href="#m3c728aed35" y="66.96"/>
     <use style="fill-opacity:0;stroke:#1f77b4;stroke-width:2;" x="319.925455" xlink:href="#m3c728aed35" y="73.415348"/>
     <use style="fill-opacity:0;stroke:#1f77b4;stroke-width:2;" x="321.447273" xlink:href="#m3c728aed35" y="86.267192"/>
     <use style="fill-opacity:0;stroke:#1f77b4;stroke-width:2;" x="322.969091" xlink:href="#m3c728aed35" y="105.252087"/>
     <use style="fill-opacity:0;stroke:#1f77b4;stroke-width:2;" x="324.490909" xlink:href="#m3c728aed35" y="128.98821"/>
     <use style="fill-opacity:0;stroke:#1f77b4;stroke-width:2;" x="326.012727" xlink:href="#m3c728aed35" y="157.296112"/>
     <use style="fill-opacity:0;stroke:#1f77b4;stroke-width:2;" x="327.534545" xlink:href="#m3c728aed35" y="187.523561"/>
     <use style="fill-opacity:0;stroke:#1f77b4;stroke-width:2;" x="329.056364" xlink:href="#m3c728aed35" y="218.23567"/>
     <use style="fill-opacity:0;stroke:#1f77b4;stroke-width:2;" x="330.578182" xlink:href="#m3c728aed35" y="245.783109"/>
     <use style="fill-opacity:0;stroke:#1f77b4;stroke-width:2;" x="332.1" xlink:href="#m3c728aed35" y="269.149709"/>
     <use style="fill-opacity:0;stroke:#1f77b4;stroke-width:2;" x="333.621818" xlink:href="#m3c728aed35" y="285.434439"/>
     <use style="fill-opacity:0;stroke:#1f77b4;stroke-width:2;" x="335.143636" xlink:href="#m3c728aed35" y="294.447375"/>
     <use style="fill-opacity:0;stroke:#1f77b4;stroke-width:2;" x="336.665455" xlink:href="#m3c728aed35" y="294.937241"/>
     <use style="fill-opacity:0;stroke:#1f77b4;stroke-width:2;" x="338.187273" xlink:href="#m3c728aed35" y="286.81039"/>
     <use style="fill-opacity:0;stroke:#1f77b4;stroke-width:2;" x="339.709091" xlink:href="#m3c728aed35" y="271.128229"/>
     <use style="fill-opacity:0;stroke:#1f77b4;stroke-width:2;" x="341.230909" xlink:href="#m3c728aed35" y="249.495525"/>
     <use style="fill-opacity:0;stroke:#1f77b4;stroke-width:2;" x="342.752727" xlink:href="#m3c728aed35" y="224.236626"/>
     <use style="fill-opacity:0;stroke:#1f77b4;stroke-width:2;" x="344.274545" xlink:href="#m3c728aed35" y="197.039175"/>
     <use style="fill-opacity:0;stroke:#1f77b4;stroke-width:2;" x="345.796364" xlink:href="#m3c728aed35" y="169.554215"/>
     <use style="fill-opacity:0;stroke:#1f77b4;stroke-width:2;" x="347.318182" xlink:href="#m3c728aed35" y="144.246933"/>
     <use style="fill-opacity:0;stroke:#1f77b4;stroke-width:2;" x="348.84" xlink:href="#m3c728aed35" y="123.874108"/>
     <use style="fill-opacity:0;stroke:#1f77b4;stroke-width:2;" x="350.361818" xlink:href="#m3c728aed35" y="107.711515"/>
     <use style="fill-opacity:0;stroke:#1f77b4;stroke-width:2;" x="351.883636" xlink:href="#m3c728aed35" y="97.855248"/>
     <use style="fill-opacity:0;stroke:#1f77b4;stroke-width:2;" x="353.405455" xlink:href="#m3c728aed35" y="93.550385"/>
     <use style="fill-opacity:0;stroke:#1f77b4;stroke-width:2;" x="354.927273" xlink:href="#m3c728aed35" y="95.829875"/>
     <use style="fill-opacity:0;stroke:#1f77b4;stroke-width:2;" x="356.449091" xlink:href="#m3c728aed35" y="104.367808"/>
     <use style="fill-opacity:0;stroke:#1f77b4;stroke-width:2;" x="357.970909" xlink:href="#m3c728aed35" y="116.634625"/>
     <use style="fill-opacity:0;stroke:#1f77b4;stroke-width:2;" x="359.492727" xlink:href="#m3c728aed35" y="130.352517"/>
     <use style="fill-opacity:0;stroke:#1f77b4;stroke-width:2;" x="361.014545" xlink:href="#m3c728aed35" y="144.707617"/>
     <use style="fill-opacity:0;stroke:#1f77b4;stroke-width:2;" x="362.536364" xlink:href="#m3c728aed35" y="159.624357"/>
     <use style="fill-opacity:0;stroke:#1f77b4;stroke-width:2;" x="364.058182" xlink:href="#m3c728aed35" y="175.021582"/>
     <use style="fill-opacity:0;stroke:#1f77b4;stroke-width:2;" x="365.58" xlink:href="#m3c728aed35" y="189.247204"/>
     <use style="fill-opacity:0;stroke:#1f77b4;stroke-width:2;" x="367.101818" xlink:href="#m3c728aed35" y="201.981134"/>
     <use style="fill-opacity:0;stroke:#1f77b4;stroke-width:2;" x="368.623636" xlink:href="#m3c728aed35" y="213.461382"/>
     <use style="fill-opacity:0;stroke:#1f77b4;stroke-width:2;" x="370.145455" xlink:href="#m3c728aed35" y="224.870575"/>
     <use style="fill-opacity:0;stroke:#1f77b4;stroke-width:2;" x="371.667273" xlink:href="#m3c728aed35" y="235.807306"/>
     <use style="fill-opacity:0;stroke:#1f77b4;stroke-width:2;" x="373.189091" xlink:href="#m3c728aed35" y="245.139664"/>
     <use style="fill-opacity:0;stroke:#1f77b4;stroke-width:2;" x="374.710909" xlink:href="#m3c728aed35" y="253.694674"/>
     <use style="fill-opacity:0;stroke:#1f77b4;stroke-width:2;" x="376.232727" xlink:href="#m3c728aed35" y="261.393207"/>
     <use style="fill-opacity:0;stroke:#1f77b4;stroke-width:2;" x="377.754545" xlink:href="#m3c728aed35" y="268.643249"/>
     <use style="fill-opacity:0;stroke:#1f77b4;stroke-width:2;" x="379.276364" xlink:href="#m3c728aed35" y="275.471762"/>
     <use style="fill-opacity:0;stroke:#1f77b4;stroke-width:2;" x="380.798182" xlink:href="#m3c728aed35" y="281.866386"/>
     <use style="fill-opacity:0;stroke:#1f77b4;stroke-width:2;" x="382.32" xlink:href="#m3c728aed35" y="287.982577"/>
     <use style="fill-opacity:0;stroke:#1f77b4;stroke-width:2;" x="383.841818" xlink:href="#m3c728aed35" y="293.784845"/>
     <use style="fill-opacity:0;stroke:#1f77b4;stroke-width:2;" x="385.363636" xlink:href="#m3c728aed35" y="299.365778"/>
     <use style="fill-opacity:0;stroke:#1f77b4;stroke-width:2;" x="386.885455" xlink:href="#m3c728aed35" y="304.500639"/>
     <use style="fill-opacity:0;stroke:#1f77b4;stroke-width:2;" x="388.407273" xlink:href="#m3c728aed35" y="309.19447"/>
     <use style="fill-opacity:0;stroke:#1f77b4;stroke-width:2;" x="389.929091" xlink:href="#m3c728aed35" y="313.52689"/>
     <use style="fill-opacity:0;stroke:#1f77b4;stroke-width:2;" x="391.450909" xlink:href="#m3c728aed35" y="317.564844"/>
     <use style="fill-opacity:0;stroke:#1f77b4;stroke-width:2;" x="392.972727" xlink:href="#m3c728aed35" y="321.685206"/>
     <use style="fill-opacity:0;stroke:#1f77b4;stroke-width:2;" x="394.494545" xlink:href="#m3c728aed35" y="325.889483"/>
     <use style="fill-opacity:0;stroke:#1f77b4;stroke-width:2;" x="396.016364" xlink:href="#m3c728aed35" y="330.233609"/>
     <use style="fill-opacity:0;stroke:#1f77b4;stroke-width:2;" x="397.538182" xlink:href="#m3c728aed35" y="334.52897"/>
     <use style="fill-opacity:0;stroke:#1f77b4;stroke-width:2;" x="399.06" xlink:href="#m3c728aed35" y="338.550341"/>
     <use style="fill-opacity:0;stroke:#1f77b4;stroke-width:2;" x="400.581818" xlink:href="#m3c728aed35" y="341.915024"/>
     <use style="fill-opacity:0;stroke:#1f77b4;stroke-width:2;" x="402.103636" xlink:href="#m3c728aed35" y="344.886945"/>
     <use style="fill-opacity:0;stroke:#1f77b4;stroke-width:2;" x="403.625455" xlink:href="#m3c728aed35" y="347.257398"/>
     <use style="fill-opacity:0;stroke:#1f77b4;stroke-width:2;" x="405.147273" xlink:href="#m3c728aed35" y="349.44455"/>
     <use style="fill-opacity:0;stroke:#1f77b4;stroke-width:2;" x="406.669091" xlink:href="#m3c728aed35" y="351.654211"/>
     <use style="fill-opacity:0;stroke:#1f77b4;stroke-width:2;" x="408.190909" xlink:href="#m3c728aed35" y="353.438046"/>
     <use style="fill-opacity:0;stroke:#1f77b4;stroke-width:2;" x="409.712727" xlink:href="#m3c728aed35" y="354.70741"/>
     <use style="fill-opacity:0;stroke:#1f77b4;stroke-width:2;" x="411.234545" xlink:href="#m3c728aed35" y="356.328814"/>
     <use style="fill-opacity:0;stroke:#1f77b4;stroke-width:2;" x="412.756364" xlink:href="#m3c728aed35" y="358.137773"/>
     <use style="fill-opacity:0;stroke:#1f77b4;stroke-width:2;" x="414.278182" xlink:href="#m3c728aed35" y="359.408496"/>
     <use style="fill-opacity:0;stroke:#1f77b4;stroke-width:2;" x="415.8" xlink:href="#m3c728aed35" y="360.309899"/>
     <use style="fill-opacity:0;stroke:#1f77b4;stroke-width:2;" x="417.321818" xlink:href="#m3c728aed35" y="361.239871"/>
     <use style="fill-opacity:0;stroke:#1f77b4;stroke-width:2;" x="418.843636" xlink:href="#m3c728aed35" y="361.76881"/>
     <use style="fill-opacity:0;stroke:#1f77b4;stroke-width:2;" x="420.365455" xlink:href="#m3c728aed35" y="361.887551"/>
     <use style="fill-opacity:0;stroke:#1f77b4;stroke-width:2;" x="421.887273" xlink:href="#m3c728aed35" y="362.617515"/>
     <use style="fill-opacity:0;stroke:#1f77b4;stroke-width:2;" x="423.409091" xlink:href="#m3c728aed35" y="363.601815"/>
     <use style="fill-opacity:0;stroke:#1f77b4;stroke-width:2;" x="424.930909" xlink:href="#m3c728aed35" y="364.268548"/>
     <use style="fill-opacity:0;stroke:#1f77b4;stroke-width:2;" x="426.452727" xlink:href="#m3c728aed35" y="364.780934"/>
     <use style="fill-opacity:0;stroke:#1f77b4;stroke-width:2;" x="427.974545" xlink:href="#m3c728aed35" y="365.011577"/>
     <use style="fill-opacity:0;stroke:#1f77b4;stroke-width:2;" x="429.496364" xlink:href="#m3c728aed35" y="365.124465"/>
     <use style="fill-opacity:0;stroke:#1f77b4;stroke-width:2;" x="431.018182" xlink:href="#m3c728aed35" y="365.435317"/>
     <use style="fill-opacity:0;stroke:#1f77b4;stroke-width:2;" x="432.54" xlink:href="#m3c728aed35" y="365.872216"/>
     <use style="fill-opacity:0;stroke:#1f77b4;stroke-width:2;" x="434.061818" xlink:href="#m3c728aed35" y="366.664446"/>
     <use style="fill-opacity:0;stroke:#1f77b4;stroke-width:2;" x="435.583636" xlink:href="#m3c728aed35" y="366.471017"/>
     <use style="fill-opacity:0;stroke:#1f77b4;stroke-width:2;" x="437.105455" xlink:href="#m3c728aed35" y="366.279114"/>
     <use style="fill-opacity:0;stroke:#1f77b4;stroke-width:2;" x="438.627273" xlink:href="#m3c728aed35" y="367.007013"/>
     <use style="fill-opacity:0;stroke:#1f77b4;stroke-width:2;" x="440.149091" xlink:href="#m3c728aed35" y="368.21988"/>
     <use style="fill-opacity:0;stroke:#1f77b4;stroke-width:2;" x="441.670909" xlink:href="#m3c728aed35" y="368.182437"/>
     <use style="fill-opacity:0;stroke:#1f77b4;stroke-width:2;" x="443.192727" xlink:href="#m3c728aed35" y="368.092225"/>
     <use style="fill-opacity:0;stroke:#1f77b4;stroke-width:2;" x="444.714545" xlink:href="#m3c728aed35" y="368.309875"/>
     <use style="fill-opacity:0;stroke:#1f77b4;stroke-width:2;" x="446.236364" xlink:href="#m3c728aed35" y="368.324269"/>
     <use style="fill-opacity:0;stroke:#1f77b4;stroke-width:2;" x="447.758182" xlink:href="#m3c728aed35" y="368.312532"/>
     <use style="fill-opacity:0;stroke:#1f77b4;stroke-width:2;" x="449.28" xlink:href="#m3c728aed35" y="368.089827"/>
     <use style="fill-opacity:0;stroke:#1f77b4;stroke-width:2;" x="450.801818" xlink:href="#m3c728aed35" y="367.920827"/>
     <use style="fill-opacity:0;stroke:#1f77b4;stroke-width:2;" x="452.323636" xlink:href="#m3c728aed35" y="367.803985"/>
     <use style="fill-opacity:0;stroke:#1f77b4;stroke-width:2;" x="453.845455" xlink:href="#m3c728aed35" y="367.875062"/>
     <use style="fill-opacity:0;stroke:#1f77b4;stroke-width:2;" x="455.367273" xlink:href="#m3c728aed35" y="367.799087"/>
     <use style="fill-opacity:0;stroke:#1f77b4;stroke-width:2;" x="456.889091" xlink:href="#m3c728aed35" y="367.342854"/>
     <use style="fill-opacity:0;stroke:#1f77b4;stroke-width:2;" x="458.410909" xlink:href="#m3c728aed35" y="367.58016"/>
     <use style="fill-opacity:0;stroke:#1f77b4;stroke-width:2;" x="459.932727" xlink:href="#m3c728aed35" y="368.177155"/>
     <use style="fill-opacity:0;stroke:#1f77b4;stroke-width:2;" x="461.454545" xlink:href="#m3c728aed35" y="368.458047"/>
     <use style="fill-opacity:0;stroke:#1f77b4;stroke-width:2;" x="462.976364" xlink:href="#m3c728aed35" y="368.439762"/>
     <use style="fill-opacity:0;stroke:#1f77b4;stroke-width:2;" x="464.498182" xlink:href="#m3c728aed35" y="368.362396"/>
     <use style="fill-opacity:0;stroke:#1f77b4;stroke-width:2;" x="466.02" xlink:href="#m3c728aed35" y="368.711283"/>
     <use style="fill-opacity:0;stroke:#1f77b4;stroke-width:2;" x="467.541818" xlink:href="#m3c728aed35" y="368.707484"/>
     <use style="fill-opacity:0;stroke:#1f77b4;stroke-width:2;" x="469.063636" xlink:href="#m3c728aed35" y="368.54715"/>
     <use style="fill-opacity:0;stroke:#1f77b4;stroke-width:2;" x="470.585455" xlink:href="#m3c728aed35" y="368.416972"/>
     <use style="fill-opacity:0;stroke:#1f77b4;stroke-width:2;" x="472.107273" xlink:href="#m3c728aed35" y="368.354572"/>
     <use style="fill-opacity:0;stroke:#1f77b4;stroke-width:2;" x="473.629091" xlink:href="#m3c728aed35" y="368.096936"/>
     <use style="fill-opacity:0;stroke:#1f77b4;stroke-width:2;" x="475.150909" xlink:href="#m3c728aed35" y="368.880428"/>
     <use style="fill-opacity:0;stroke:#1f77b4;stroke-width:2;" x="476.672727" xlink:href="#m3c728aed35" y="369.202488"/>
     <use style="fill-opacity:0;stroke:#1f77b4;stroke-width:2;" x="478.194545" xlink:href="#m3c728aed35" y="369.084442"/>
     <use style="fill-opacity:0;stroke:#1f77b4;stroke-width:2;" x="479.716364" xlink:href="#m3c728aed35" y="368.503263"/>
     <use style="fill-opacity:0;stroke:#1f77b4;stroke-width:2;" x="481.238182" xlink:href="#m3c728aed35" y="367.954451"/>
     <use style="fill-opacity:0;stroke:#1f77b4;stroke-width:2;" x="482.76" xlink:href="#m3c728aed35" y="368.013385"/>
     <use style="fill-opacity:0;stroke:#1f77b4;stroke-width:2;" x="484.281818" xlink:href="#m3c728aed35" y="368.337978"/>
     <use style="fill-opacity:0;stroke:#1f77b4;stroke-width:2;" x="485.803636" xlink:href="#m3c728aed35" y="368.752046"/>
     <use style="fill-opacity:0;stroke:#1f77b4;stroke-width:2;" x="487.325455" xlink:href="#m3c728aed35" y="368.506967"/>
     <use style="fill-opacity:0;stroke:#1f77b4;stroke-width:2;" x="488.847273" xlink:href="#m3c728aed35" y="368.38173"/>
     <use style="fill-opacity:0;stroke:#1f77b4;stroke-width:2;" x="490.369091" xlink:href="#m3c728aed35" y="368.199945"/>
     <use style="fill-opacity:0;stroke:#1f77b4;stroke-width:2;" x="491.890909" xlink:href="#m3c728aed35" y="368.116103"/>
     <use style="fill-opacity:0;stroke:#1f77b4;stroke-width:2;" x="493.412727" xlink:href="#m3c728aed35" y="368.231129"/>
     <use style="fill-opacity:0;stroke:#1f77b4;stroke-width:2;" x="494.934545" xlink:href="#m3c728aed35" y="367.416141"/>
     <use style="fill-opacity:0;stroke:#1f77b4;stroke-width:2;" x="496.456364" xlink:href="#m3c728aed35" y="367.279001"/>
     <use style="fill-opacity:0;stroke:#1f77b4;stroke-width:2;" x="497.978182" xlink:href="#m3c728aed35" y="367.937888"/>
     <use style="fill-opacity:0;stroke:#1f77b4;stroke-width:2;" x="499.5" xlink:href="#m3c728aed35" y="368.767654"/>
     <use style="fill-opacity:0;stroke:#1f77b4;stroke-width:2;" x="501.021818" xlink:href="#m3c728aed35" y="368.9805"/>
     <use style="fill-opacity:0;stroke:#1f77b4;stroke-width:2;" x="502.543636" xlink:href="#m3c728aed35" y="368.30588"/>
     <use style="fill-opacity:0;stroke:#1f77b4;stroke-width:2;" x="504.065455" xlink:href="#m3c728aed35" y="368.121064"/>
     <use style="fill-opacity:0;stroke:#1f77b4;stroke-width:2;" x="505.587273" xlink:href="#m3c728aed35" y="368.385663"/>
     <use style="fill-opacity:0;stroke:#1f77b4;stroke-width:2;" x="507.109091" xlink:href="#m3c728aed35" y="368.679724"/>
     <use style="fill-opacity:0;stroke:#1f77b4;stroke-width:2;" x="508.630909" xlink:href="#m3c728aed35" y="368.616016"/>
     <use style="fill-opacity:0;stroke:#1f77b4;stroke-width:2;" x="510.152727" xlink:href="#m3c728aed35" y="368.472514"/>
     <use style="fill-opacity:0;stroke:#1f77b4;stroke-width:2;" x="511.674545" xlink:href="#m3c728aed35" y="368.652192"/>
     <use style="fill-opacity:0;stroke:#1f77b4;stroke-width:2;" x="513.196364" xlink:href="#m3c728aed35" y="368.593226"/>
     <use style="fill-opacity:0;stroke:#1f77b4;stroke-width:2;" x="514.718182" xlink:href="#m3c728aed35" y="368.50511"/>
     <use style="fill-opacity:0;stroke:#1f77b4;stroke-width:2;" x="516.24" xlink:href="#m3c728aed35" y="368.806082"/>
     <use style="fill-opacity:0;stroke:#1f77b4;stroke-width:2;" x="517.761818" xlink:href="#m3c728aed35" y="368.653344"/>
     <use style="fill-opacity:0;stroke:#1f77b4;stroke-width:2;" x="519.283636" xlink:href="#m3c728aed35" y="368.65186"/>
     <use style="fill-opacity:0;stroke:#1f77b4;stroke-width:2;" x="520.805455" xlink:href="#m3c728aed35" y="368.778717"/>
     <use style="fill-opacity:0;stroke:#1f77b4;stroke-width:2;" x="522.327273" xlink:href="#m3c728aed35" y="368.412479"/>
     <use style="fill-opacity:0;stroke:#1f77b4;stroke-width:2;" x="523.849091" xlink:href="#m3c728aed35" y="368.336203"/>
     <use style="fill-opacity:0;stroke:#1f77b4;stroke-width:2;" x="525.370909" xlink:href="#m3c728aed35" y="368.573519"/>
     <use style="fill-opacity:0;stroke:#1f77b4;stroke-width:2;" x="526.892727" xlink:href="#m3c728aed35" y="368.804785"/>
     <use style="fill-opacity:0;stroke:#1f77b4;stroke-width:2;" x="528.414545" xlink:href="#m3c728aed35" y="368.605524"/>
     <use style="fill-opacity:0;stroke:#1f77b4;stroke-width:2;" x="529.936364" xlink:href="#m3c728aed35" y="368.599588"/>
     <use style="fill-opacity:0;stroke:#1f77b4;stroke-width:2;" x="531.458182" xlink:href="#m3c728aed35" y="369.037016"/>
     <use style="fill-opacity:0;stroke:#1f77b4;stroke-width:2;" x="532.98" xlink:href="#m3c728aed35" y="368.708045"/>
     <use style="fill-opacity:0;stroke:#1f77b4;stroke-width:2;" x="534.501818" xlink:href="#m3c728aed35" y="368.200048"/>
     <use style="fill-opacity:0;stroke:#1f77b4;stroke-width:2;" x="536.023636" xlink:href="#m3c728aed35" y="368.422441"/>
     <use style="fill-opacity:0;stroke:#1f77b4;stroke-width:2;" x="537.545455" xlink:href="#m3c728aed35" y="368.817799"/>
     <use style="fill-opacity:0;stroke:#1f77b4;stroke-width:2;" x="539.067273" xlink:href="#m3c728aed35" y="368.828228"/>
     <use style="fill-opacity:0;stroke:#1f77b4;stroke-width:2;" x="540.589091" xlink:href="#m3c728aed35" y="368.519151"/>
     <use style="fill-opacity:0;stroke:#1f77b4;stroke-width:2;" x="542.110909" xlink:href="#m3c728aed35" y="368.690859"/>
     <use style="fill-opacity:0;stroke:#1f77b4;stroke-width:2;" x="543.632727" xlink:href="#m3c728aed35" y="368.792166"/>
     <use style="fill-opacity:0;stroke:#1f77b4;stroke-width:2;" x="545.154545" xlink:href="#m3c728aed35" y="368.859507"/>
     <use style="fill-opacity:0;stroke:#1f77b4;stroke-width:2;" x="546.676364" xlink:href="#m3c728aed35" y="368.99836"/>
     <use style="fill-opacity:0;stroke:#1f77b4;stroke-width:2;" x="548.198182" xlink:href="#m3c728aed35" y="368.993607"/>
     <use style="fill-opacity:0;stroke:#1f77b4;stroke-width:2;" x="549.72" xlink:href="#m3c728aed35" y="368.613006"/>
     <use style="fill-opacity:0;stroke:#1f77b4;stroke-width:2;" x="551.241818" xlink:href="#m3c728aed35" y="368.837921"/>
     <use style="fill-opacity:0;stroke:#1f77b4;stroke-width:2;" x="552.763636" xlink:href="#m3c728aed35" y="368.976286"/>
     <use style="fill-opacity:0;stroke:#1f77b4;stroke-width:2;" x="554.285455" xlink:href="#m3c728aed35" y="368.729693"/>
     <use style="fill-opacity:0;stroke:#1f77b4;stroke-width:2;" x="555.807273" xlink:href="#m3c728aed35" y="368.398261"/>
     <use style="fill-opacity:0;stroke:#1f77b4;stroke-width:2;" x="557.329091" xlink:href="#m3c728aed35" y="368.520427"/>
     <use style="fill-opacity:0;stroke:#1f77b4;stroke-width:2;" x="558.850909" xlink:href="#m3c728aed35" y="369.283278"/>
     <use style="fill-opacity:0;stroke:#1f77b4;stroke-width:2;" x="560.372727" xlink:href="#m3c728aed35" y="369.36"/>
    </g>
   </g>
   <g id="patch_3">
    <path d="M 81 384.48 
L 81 51.84 
" style="fill:none;stroke:#000000;stroke-linecap:square;stroke-linejoin:miter;stroke-width:0.8;"/>
   </g>
   <g id="patch_4">
    <path d="M 583.2 384.48 
L 583.2 51.84 
" style="fill:none;stroke:#000000;stroke-linecap:square;stroke-linejoin:miter;stroke-width:0.8;"/>
   </g>
   <g id="patch_5">
    <path d="M 81 384.48 
L 583.2 384.48 
" style="fill:none;stroke:#000000;stroke-linecap:square;stroke-linejoin:miter;stroke-width:0.8;"/>
   </g>
   <g id="patch_6">
    <path d="M 81 51.84 
L 583.2 51.84 
" style="fill:none;stroke:#000000;stroke-linecap:square;stroke-linejoin:miter;stroke-width:0.8;"/>
   </g>
  </g>
 </g>
 <defs>
  <clipPath id="p9ee282e943">
   <rect height="332.64" width="502.2" x="81" y="51.84"/>
  </clipPath>
 </defs>
</svg>
