<?xml version="1.0" encoding="utf-8" standalone="no"?>
<!DOCTYPE svg PUBLIC "-//W3C//DTD SVG 1.1//EN"
  "http://www.w3.org/Graphics/SVG/1.1/DTD/svg11.dtd">
<svg xmlns:xlink="http://www.w3.org/1999/xlink" width="324pt" height="216pt" viewBox="0 0 324 216" xmlns="http://www.w3.org/2000/svg" version="1.1">
 <metadata>
  <rdf:RDF xmlns:dc="http://purl.org/dc/elements/1.1/" xmlns:cc="http://creativecommons.org/ns#" xmlns:rdf="http://www.w3.org/1999/02/22-rdf-syntax-ns#">
   <cc:Work>
    <dc:type rdf:resource="http://purl.org/dc/dcmitype/StillImage"/>
    <dc:date>2022-09-01T10:48:34.046338</dc:date>
    <dc:format>image/svg+xml</dc:format>
    <dc:creator>
     <cc:Agent>
      <dc:title>Matplotlib v3.5.1, https://matplotlib.org/</dc:title>
     </cc:Agent>
    </dc:creator>
   </cc:Work>
  </rdf:RDF>
 </metadata>
 <defs>
  <style type="text/css">*{stroke-linejoin: round; stroke-linecap: butt}</style>
 </defs>
 <g id="figure_1">
  <g id="patch_1">
   <path d="M 0 216 
L 324 216 
L 324 0 
L 0 0 
z
" style="fill: #ffffff"/>
  </g>
  <g id="axes_1">
   <g id="patch_2">
    <path d="M 40.5 192.24 
L 291.6 192.24 
L 291.6 25.92 
L 40.5 25.92 
z
" style="fill: #ffffff"/>
   </g>
   <g id="matplotlib.axis_1">
    <g id="xtick_1">
     <g id="line2d_1">
      <defs>
       <path id="m07dd897e57" d="M 0 0 
L 0 3.5 
" style="stroke: #000000; stroke-width: 0.8"/>
      </defs>
      <g>
       <use xlink:href="#m07dd897e57" x="90.181579" y="192.24" style="stroke: #000000; stroke-width: 0.8"/>
      </g>
     </g>
     <g id="text_1">
      <!-- −50 -->
      <g transform="translate(73.297829 211.3975)scale(0.16 -0.16)">
       <defs>
        <path id="DejaVuSans-2212" d="M 678 2272 
L 4684 2272 
L 4684 1741 
L 678 1741 
L 678 2272 
z
" transform="scale(0.015625)"/>
        <path id="DejaVuSans-35" d="M 691 4666 
L 3169 4666 
L 3169 4134 
L 1269 4134 
L 1269 2991 
Q 1406 3038 1543 3061 
Q 1681 3084 1819 3084 
Q 2600 3084 3056 2656 
Q 3513 2228 3513 1497 
Q 3513 744 3044 326 
Q 2575 -91 1722 -91 
Q 1428 -91 1123 -41 
Q 819 9 494 109 
L 494 744 
Q 775 591 1075 516 
Q 1375 441 1709 441 
Q 2250 441 2565 725 
Q 2881 1009 2881 1497 
Q 2881 1984 2565 2268 
Q 2250 2553 1709 2553 
Q 1456 2553 1204 2497 
Q 953 2441 691 2322 
L 691 4666 
z
" transform="scale(0.015625)"/>
        <path id="DejaVuSans-30" d="M 2034 4250 
Q 1547 4250 1301 3770 
Q 1056 3291 1056 2328 
Q 1056 1369 1301 889 
Q 1547 409 2034 409 
Q 2525 409 2770 889 
Q 3016 1369 3016 2328 
Q 3016 3291 2770 3770 
Q 2525 4250 2034 4250 
z
M 2034 4750 
Q 2819 4750 3233 4129 
Q 3647 3509 3647 2328 
Q 3647 1150 3233 529 
Q 2819 -91 2034 -91 
Q 1250 -91 836 529 
Q 422 1150 422 2328 
Q 422 3509 836 4129 
Q 1250 4750 2034 4750 
z
" transform="scale(0.015625)"/>
       </defs>
       <use xlink:href="#DejaVuSans-2212"/>
       <use xlink:href="#DejaVuSans-35" x="83.789062"/>
       <use xlink:href="#DejaVuSans-30" x="147.412109"/>
      </g>
     </g>
    </g>
    <g id="xtick_2">
     <g id="line2d_2">
      <g>
       <use xlink:href="#m07dd897e57" x="164.344258" y="192.24" style="stroke: #000000; stroke-width: 0.8"/>
      </g>
     </g>
     <g id="text_2">
      <!-- 0 -->
      <g transform="translate(159.254258 211.3975)scale(0.16 -0.16)">
       <use xlink:href="#DejaVuSans-30"/>
      </g>
     </g>
    </g>
    <g id="xtick_3">
     <g id="line2d_3">
      <g>
       <use xlink:href="#m07dd897e57" x="238.506938" y="192.24" style="stroke: #000000; stroke-width: 0.8"/>
      </g>
     </g>
     <g id="text_3">
      <!-- 50 -->
      <g transform="translate(228.326938 211.3975)scale(0.16 -0.16)">
       <use xlink:href="#DejaVuSans-35"/>
       <use xlink:href="#DejaVuSans-30" x="63.623047"/>
      </g>
     </g>
    </g>
   </g>
   <g id="matplotlib.axis_2">
    <g id="ytick_1">
     <g id="line2d_4">
      <defs>
       <path id="m294d1c8db6" d="M 0 0 
L -3.5 0 
" style="stroke: #000000; stroke-width: 0.8"/>
      </defs>
      <g>
       <use xlink:href="#m294d1c8db6" x="40.5" y="161.372747" style="stroke: #000000; stroke-width: 0.8"/>
      </g>
     </g>
     <g id="text_4">
      <!-- 0.96 -->
      <g transform="translate(-2.125 167.451497)scale(0.16 -0.16)">
       <defs>
        <path id="DejaVuSans-2e" d="M 684 794 
L 1344 794 
L 1344 0 
L 684 0 
L 684 794 
z
" transform="scale(0.015625)"/>
        <path id="DejaVuSans-39" d="M 703 97 
L 703 672 
Q 941 559 1184 500 
Q 1428 441 1663 441 
Q 2288 441 2617 861 
Q 2947 1281 2994 2138 
Q 2813 1869 2534 1725 
Q 2256 1581 1919 1581 
Q 1219 1581 811 2004 
Q 403 2428 403 3163 
Q 403 3881 828 4315 
Q 1253 4750 1959 4750 
Q 2769 4750 3195 4129 
Q 3622 3509 3622 2328 
Q 3622 1225 3098 567 
Q 2575 -91 1691 -91 
Q 1453 -91 1209 -44 
Q 966 3 703 97 
z
M 1959 2075 
Q 2384 2075 2632 2365 
Q 2881 2656 2881 3163 
Q 2881 3666 2632 3958 
Q 2384 4250 1959 4250 
Q 1534 4250 1286 3958 
Q 1038 3666 1038 3163 
Q 1038 2656 1286 2365 
Q 1534 2075 1959 2075 
z
" transform="scale(0.015625)"/>
        <path id="DejaVuSans-36" d="M 2113 2584 
Q 1688 2584 1439 2293 
Q 1191 2003 1191 1497 
Q 1191 994 1439 701 
Q 1688 409 2113 409 
Q 2538 409 2786 701 
Q 3034 994 3034 1497 
Q 3034 2003 2786 2293 
Q 2538 2584 2113 2584 
z
M 3366 4563 
L 3366 3988 
Q 3128 4100 2886 4159 
Q 2644 4219 2406 4219 
Q 1781 4219 1451 3797 
Q 1122 3375 1075 2522 
Q 1259 2794 1537 2939 
Q 1816 3084 2150 3084 
Q 2853 3084 3261 2657 
Q 3669 2231 3669 1497 
Q 3669 778 3244 343 
Q 2819 -91 2113 -91 
Q 1303 -91 875 529 
Q 447 1150 447 2328 
Q 447 3434 972 4092 
Q 1497 4750 2381 4750 
Q 2619 4750 2861 4703 
Q 3103 4656 3366 4563 
z
" transform="scale(0.015625)"/>
       </defs>
       <use xlink:href="#DejaVuSans-30"/>
       <use xlink:href="#DejaVuSans-2e" x="63.623047"/>
       <use xlink:href="#DejaVuSans-39" x="95.410156"/>
       <use xlink:href="#DejaVuSans-36" x="159.033203"/>
      </g>
     </g>
    </g>
    <g id="ytick_2">
     <g id="line2d_5">
      <g>
       <use xlink:href="#m294d1c8db6" x="40.5" y="97.426373" style="stroke: #000000; stroke-width: 0.8"/>
      </g>
     </g>
     <g id="text_5">
      <!-- 0.98 -->
      <g transform="translate(-2.125 103.505123)scale(0.16 -0.16)">
       <defs>
        <path id="DejaVuSans-38" d="M 2034 2216 
Q 1584 2216 1326 1975 
Q 1069 1734 1069 1313 
Q 1069 891 1326 650 
Q 1584 409 2034 409 
Q 2484 409 2743 651 
Q 3003 894 3003 1313 
Q 3003 1734 2745 1975 
Q 2488 2216 2034 2216 
z
M 1403 2484 
Q 997 2584 770 2862 
Q 544 3141 544 3541 
Q 544 4100 942 4425 
Q 1341 4750 2034 4750 
Q 2731 4750 3128 4425 
Q 3525 4100 3525 3541 
Q 3525 3141 3298 2862 
Q 3072 2584 2669 2484 
Q 3125 2378 3379 2068 
Q 3634 1759 3634 1313 
Q 3634 634 3220 271 
Q 2806 -91 2034 -91 
Q 1263 -91 848 271 
Q 434 634 434 1313 
Q 434 1759 690 2068 
Q 947 2378 1403 2484 
z
M 1172 3481 
Q 1172 3119 1398 2916 
Q 1625 2713 2034 2713 
Q 2441 2713 2670 2916 
Q 2900 3119 2900 3481 
Q 2900 3844 2670 4047 
Q 2441 4250 2034 4250 
Q 1625 4250 1398 4047 
Q 1172 3844 1172 3481 
z
" transform="scale(0.015625)"/>
       </defs>
       <use xlink:href="#DejaVuSans-30"/>
       <use xlink:href="#DejaVuSans-2e" x="63.623047"/>
       <use xlink:href="#DejaVuSans-39" x="95.410156"/>
       <use xlink:href="#DejaVuSans-38" x="159.033203"/>
      </g>
     </g>
    </g>
    <g id="ytick_3">
     <g id="line2d_6">
      <g>
       <use xlink:href="#m294d1c8db6" x="40.5" y="33.48" style="stroke: #000000; stroke-width: 0.8"/>
      </g>
     </g>
     <g id="text_6">
      <!-- 1.00 -->
      <g transform="translate(-2.125 39.55875)scale(0.16 -0.16)">
       <defs>
        <path id="DejaVuSans-31" d="M 794 531 
L 1825 531 
L 1825 4091 
L 703 3866 
L 703 4441 
L 1819 4666 
L 2450 4666 
L 2450 531 
L 3481 531 
L 3481 0 
L 794 0 
L 794 531 
z
" transform="scale(0.015625)"/>
       </defs>
       <use xlink:href="#DejaVuSans-31"/>
       <use xlink:href="#DejaVuSans-2e" x="63.623047"/>
       <use xlink:href="#DejaVuSans-30" x="95.410156"/>
       <use xlink:href="#DejaVuSans-30" x="159.033203"/>
      </g>
     </g>
    </g>
   </g>
   <g id="line2d_7">
    <path d="M 51.913636 76.235767 
L 52.432775 76.127835 
L 52.951914 76.433498 
L 53.471053 75.093414 
L 53.990191 75.600263 
L 55.547608 74.187649 
L 56.585885 73.709294 
L 57.105024 73.057384 
L 57.624163 72.844974 
L 58.143301 72.076498 
L 58.66244 71.825232 
L 59.181579 72.168024 
L 59.700718 70.987679 
L 60.219856 70.298641 
L 61.258134 69.921311 
L 61.777273 69.201188 
L 62.296411 69.213277 
L 62.81555 68.399901 
L 63.334689 68.234117 
L 63.853828 67.378432 
L 64.372967 66.838772 
L 64.892105 67.185881 
L 65.411244 67.051182 
L 65.930383 67.140118 
L 66.449522 65.920054 
L 66.96866 65.310454 
L 67.487799 65.356217 
L 68.006938 65.11963 
L 69.045215 63.557638 
L 69.564354 62.994664 
L 70.602632 62.870326 
L 71.640909 62.567253 
L 72.160048 61.650262 
L 73.198325 60.409476 
L 73.717464 60.342126 
L 74.236603 60.083089 
L 74.755742 59.24381 
L 75.27488 58.977002 
L 75.794019 58.531458 
L 76.313158 57.660231 
L 77.351435 57.676636 
L 77.870574 57.083442 
L 78.389713 56.141411 
L 78.908852 55.917776 
L 80.466268 54.796146 
L 80.985407 54.604459 
L 81.504545 54.023353 
L 82.023684 54.188273 
L 82.542823 53.056282 
L 83.061962 53.329997 
L 83.5811 52.629734 
L 84.100239 52.272263 
L 85.138517 51.226618 
L 86.176794 50.602339 
L 86.695933 49.959064 
L 87.734211 49.62836 
L 89.291627 48.306408 
L 89.810766 47.392872 
L 90.329904 47.776246 
L 90.849043 47.746025 
L 91.368182 47.096706 
L 91.887321 47.133835 
L 92.406459 46.230659 
L 93.444737 45.607244 
L 93.963876 45.599473 
L 95.002153 44.251618 
L 95.521292 44.691117 
L 96.040431 43.77758 
L 96.559569 43.907098 
L 97.078708 43.154165 
L 97.597847 43.049686 
L 99.155263 41.979001 
L 99.674402 41.87884 
L 100.193541 41.555907 
L 100.712679 40.722672 
L 101.231818 41.055966 
L 101.750957 40.427369 
L 102.270096 40.543936 
L 102.789234 40.244317 
L 103.308373 40.472269 
L 103.827512 39.692568 
L 104.346651 39.500881 
L 104.865789 39.905842 
L 105.384928 38.849835 
L 105.904067 39.428351 
L 106.423206 39.316101 
L 107.461483 38.115897 
L 107.980622 37.684169 
L 108.499761 38.349894 
L 109.0189 37.850816 
L 109.538038 37.650494 
L 110.057177 37.762743 
L 110.576316 37.280935 
L 111.095455 37.194589 
L 111.614593 36.628162 
L 112.133732 36.774949 
L 112.652871 37.0573 
L 113.17201 36.775813 
L 113.691148 36.116132 
L 114.210287 36.388984 
L 114.729426 36.192116 
L 115.248565 35.839826 
L 115.767703 35.319162 
L 116.286842 35.825147 
L 116.805981 35.478901 
L 117.844258 35.182736 
L 118.363397 35.495307 
L 118.882536 35.379604 
L 120.439952 35.384785 
L 120.959091 34.876209 
L 121.47823 34.894341 
L 121.997368 35.115386 
L 122.516507 34.710425 
L 123.035646 35.175828 
L 123.554785 34.752735 
L 124.073923 34.498878 
L 124.593062 34.847715 
L 126.150478 35.157696 
L 126.669617 35.712898 
L 127.707895 36.009927 
L 128.227033 35.686994 
L 128.746172 36.403663 
L 129.265311 36.463242 
L 129.78445 36.174847 
L 130.303589 36.306956 
L 130.822727 36.672198 
L 131.861005 37.90176 
L 132.380144 37.604731 
L 132.899282 38.622746 
L 133.418421 38.36889 
L 133.93756 38.279954 
L 134.456699 40.130341 
L 134.975837 40.347068 
L 136.014115 41.807173 
L 136.533254 41.971229 
L 137.052392 43.020329 
L 137.571531 44.389771 
L 138.09067 44.742061 
L 138.609809 44.894892 
L 139.128947 45.541621 
L 139.648086 45.839514 
L 140.686364 48.043054 
L 141.205502 48.099179 
L 141.724641 49.151732 
L 142.24378 50.54276 
L 142.762919 50.855331 
L 143.282057 52.121158 
L 144.320335 55.189019 
L 145.358612 57.012639 
L 145.877751 57.884729 
L 146.39689 60.169435 
L 147.435167 63.4333 
L 147.954306 64.295029 
L 148.992584 67.425922 
L 149.511722 69.455908 
L 150.55 74.090078 
L 152.107416 78.852903 
L 154.183971 87.711965 
L 154.70311 88.956206 
L 155.741388 92.65698 
L 156.260526 95.527109 
L 156.779665 97.621854 
L 157.817943 100.416862 
L 158.337081 101.404656 
L 158.85622 103.774844 
L 160.413636 108.560119 
L 160.932775 108.593794 
L 161.451914 109.081647 
L 163.00933 111.850751 
L 163.528469 111.701373 
L 164.566746 111.940551 
L 165.085885 111.766132 
L 166.124163 110.370787 
L 166.643301 109.856167 
L 167.16244 109.105823 
L 167.681579 107.744153 
L 168.200718 107.131962 
L 168.719856 104.967277 
L 169.238995 104.289464 
L 169.758134 103.154019 
L 170.277273 101.155981 
L 170.796411 99.714872 
L 171.31555 98.682178 
L 171.834689 95.870764 
L 172.872967 92.397943 
L 173.392105 91.586294 
L 174.430383 87.312185 
L 174.949522 85.590453 
L 175.987799 81.168693 
L 177.026077 78.740654 
L 178.064354 73.252525 
L 179.62177 69.060445 
L 180.140909 66.944113 
L 180.660048 65.364852 
L 181.179187 63.292556 
L 181.698325 61.778054 
L 182.217464 60.842931 
L 183.255742 57.852782 
L 184.294019 53.794537 
L 184.813158 53.60285 
L 185.332297 52.272263 
L 185.851435 51.385494 
L 186.370574 49.843361 
L 186.889713 49.361552 
L 187.408852 47.85223 
L 188.447129 46.180579 
L 188.966268 45.286902 
L 190.004545 44.155774 
L 190.523684 42.16119 
L 191.042823 40.910042 
L 191.561962 40.66223 
L 192.0811 40.821106 
L 192.600239 39.712428 
L 193.119378 39.571684 
L 193.638517 38.142664 
L 194.157656 38.654694 
L 194.676794 37.238625 
L 195.715072 36.945914 
L 196.234211 36.445972 
L 196.753349 36.749909 
L 197.272488 35.735348 
L 197.791627 35.193097 
L 198.310766 35.263037 
L 198.829904 34.827855 
L 199.868182 34.648256 
L 200.387321 34.250203 
L 200.906459 34.281287 
L 201.425598 34.723377 
L 201.944737 33.823656 
L 202.463876 34.367633 
L 204.021292 35.0938 
L 204.540431 35.780248 
L 205.059569 35.284624 
L 205.578708 35.278579 
L 206.097847 34.599903 
L 206.616986 34.206167 
L 207.136124 33.977351 
L 207.655263 34.131046 
L 208.174402 34.079239 
L 208.693541 34.782092 
L 209.731818 34.592132 
L 210.250957 33.961809 
L 210.770096 34.715606 
L 211.289234 33.916909 
L 211.808373 34.512694 
L 212.327512 34.403035 
L 212.846651 34.007572 
L 213.365789 34.127592 
L 213.884928 34.03952 
L 214.404067 33.48 
L 214.923206 34.302874 
L 215.961483 34.36677 
L 216.480622 34.129319 
L 216.999761 34.545505 
L 217.5189 34.368497 
L 218.038038 34.361589 
L 219.595455 34.796771 
L 220.114593 35.123157 
L 221.152871 36.097136 
L 221.67201 36.543543 
L 222.191148 35.880409 
L 222.710287 35.836372 
L 223.229426 36.521957 
L 223.748565 36.717961 
L 224.786842 37.448445 
L 225.305981 38.37407 
L 225.82512 38.078768 
L 226.863397 38.43883 
L 227.382536 38.582163 
L 227.901675 38.968992 
L 228.420813 40.066445 
L 228.939952 39.499154 
L 229.459091 39.847127 
L 229.97823 40.552571 
L 230.497368 40.558615 
L 231.016507 40.896226 
L 231.535646 40.841829 
L 232.054785 40.960986 
L 232.573923 41.683698 
L 233.093062 41.585264 
L 233.612201 42.097294 
L 234.13134 42.223359 
L 234.650478 42.595508 
L 235.169617 42.570468 
L 235.688756 43.054867 
L 236.207895 43.721455 
L 237.246172 44.156637 
L 237.765311 44.229168 
L 238.28445 44.632402 
L 238.803589 44.660896 
L 239.322727 45.552846 
L 239.841866 46.760822 
L 240.361005 45.931904 
L 240.880144 46.433572 
L 241.918421 47.112248 
L 242.43756 47.579378 
L 242.956699 47.858275 
L 243.475837 48.727775 
L 243.994976 49.062796 
L 244.514115 48.891832 
L 245.033254 49.127555 
L 245.552392 48.979904 
L 246.071531 49.974606 
L 246.59067 50.391655 
L 247.109809 50.159386 
L 247.628947 51.374269 
L 248.148086 51.171357 
L 248.667225 51.997684 
L 249.186364 52.552023 
L 250.74378 52.641823 
L 251.262919 53.412889 
L 251.782057 53.235881 
L 252.301196 54.177048 
L 252.820335 54.395502 
L 253.339474 54.268574 
L 253.858612 55.065545 
L 254.377751 55.000785 
L 254.89689 55.87633 
L 255.416029 55.800346 
L 255.935167 56.732879 
L 256.454306 57.141294 
L 256.973445 57.796657 
L 257.492584 57.88732 
L 258.530861 59.299934 
L 259.05 59.451903 
L 259.569139 59.434634 
L 260.088278 60.321403 
L 260.607416 60.223833 
L 261.126555 61.120964 
L 261.645694 60.962951 
L 262.164833 62.113939 
L 262.683971 61.913617 
L 263.20311 62.427373 
L 263.722249 63.182034 
L 264.760526 64.010952 
L 265.279665 64.650773 
L 265.798804 64.798424 
L 266.317943 64.634368 
L 266.837081 66.050436 
L 267.35622 65.858749 
L 268.394498 67.172929 
L 268.913636 67.126303 
L 269.432775 66.964836 
L 269.951914 67.786847 
L 270.471053 68.054518 
L 270.990191 68.820404 
L 271.50933 69.328116 
L 272.028469 69.330707 
L 272.547608 69.536209 
L 273.066746 69.942034 
L 273.585885 70.627618 
L 274.105024 71.51007 
L 274.624163 71.25276 
L 275.143301 71.758746 
L 275.66244 71.918485 
L 276.181579 72.285454 
L 276.700718 73.533149 
L 277.219856 73.817226 
L 277.738995 74.286083 
L 278.258134 74.113391 
L 278.777273 74.564115 
L 279.296411 74.697951 
L 279.81555 75.616669 
L 279.81555 75.616669 
" clip-path="url(#pc6e6778fc2)" style="fill: none; stroke: #1f77b4; stroke-width: 2; stroke-linecap: square"/>
   </g>
   <g id="line2d_8">
    <path d="M 52.803589 82.802886 
L 53.841866 81.996046 
L 54.880144 80.763018 
L 56.956699 79.079928 
L 57.994976 77.55688 
L 59.033254 75.811454 
L 60.071531 75.094361 
L 61.109809 73.73666 
L 62.148086 73.133188 
L 63.186364 71.69414 
L 64.224641 71.046015 
L 65.262919 68.769622 
L 66.301196 67.996824 
L 67.339474 66.584302 
L 68.377751 66.19083 
L 69.416029 64.762834 
L 70.454306 64.093931 
L 71.492584 62.348062 
L 72.530861 61.64998 
L 73.569139 60.626067 
L 74.607416 60.117648 
L 75.645694 59.148114 
L 76.683971 58.371337 
L 77.722249 56.547658 
L 78.760526 55.725787 
L 79.798804 54.606822 
L 80.837081 54.060381 
L 83.951914 50.947085 
L 84.990191 49.959425 
L 86.028469 48.676881 
L 87.066746 48.388187 
L 88.105024 47.302822 
L 89.143301 46.675035 
L 90.181579 45.423438 
L 91.219856 45.043671 
L 92.258134 43.896411 
L 93.296411 43.652812 
L 94.334689 42.948098 
L 95.372967 42.731467 
L 96.411244 41.837975 
L 97.449522 41.51126 
L 98.487799 40.358253 
L 99.526077 40.253033 
L 100.564354 39.84895 
L 101.602632 39.989539 
L 102.640909 38.928047 
L 103.679187 38.768005 
L 104.717464 37.676009 
L 105.755742 37.716682 
L 106.794019 37.300662 
L 107.832297 38.099986 
L 108.870574 37.543377 
L 109.908852 37.864345 
L 110.947129 37.072537 
L 111.985407 37.823229 
L 113.023684 36.963337 
L 114.061962 37.513756 
L 115.100239 38.252512 
L 116.138517 38.732195 
L 117.176794 38.702574 
L 118.215072 39.368825 
L 119.253349 39.34053 
L 120.291627 40.5908 
L 121.329904 40.954209 
L 122.368182 42.584247 
L 123.406459 42.96313 
L 124.444737 44.357526 
L 125.483014 45.107334 
L 126.521292 47.412906 
L 127.559569 48.457156 
L 128.597847 50.883422 
L 129.636124 52.096113 
L 130.674402 54.519285 
L 131.712679 55.671408 
L 132.750957 58.368684 
L 133.789234 60.674699 
L 134.827512 64.025847 
L 135.865789 65.92822 
L 136.904067 68.527791 
L 137.942344 71.636666 
L 138.980622 75.314971 
L 140.0189 77.722669 
L 141.057177 82.016825 
L 142.095455 84.87149 
L 144.17201 90.959704 
L 150.401675 117.470027 
L 151.439952 124.070197 
L 152.47823 129.382518 
L 153.516507 136.02292 
L 155.593062 146.873478 
L 156.63134 152.421441 
L 157.669617 159.399168 
L 159.746172 171.320502 
L 161.822727 178.449871 
L 163.899282 184.68 
L 164.93756 184.36478 
L 165.975837 183.637519 
L 168.052392 179.047595 
L 169.09067 174.756092 
L 170.128947 169.157287 
L 171.167225 161.818361 
L 172.205502 155.614758 
L 174.282057 141.998397 
L 175.320335 133.263749 
L 177.39689 117.739268 
L 179.473445 106.387364 
L 180.511722 101.792136 
L 182.588278 90.361095 
L 183.626555 85.448878 
L 185.70311 78.035237 
L 186.741388 74.723878 
L 187.779665 70.753785 
L 188.817943 67.499457 
L 189.85622 63.325996 
L 192.971053 56.590542 
L 195.047608 51.379905 
L 196.085885 48.931091 
L 197.124163 47.746695 
L 198.16244 45.632553 
L 199.200718 44.641356 
L 200.238995 43.258455 
L 201.277273 41.379071 
L 202.31555 39.881665 
L 204.392105 38.048702 
L 205.430383 37.760008 
L 206.46866 36.419991 
L 207.506938 36.086645 
L 208.545215 35.438521 
L 209.583493 35.274942 
L 210.62177 34.532207 
L 211.660048 34.795259 
L 212.698325 34.254124 
L 213.736603 34.65467 
L 214.77488 33.48 
L 215.813158 34.074188 
L 217.889713 34.156861 
L 219.966268 35.054774 
L 221.004545 34.707723 
L 222.042823 35.097216 
L 223.0811 35.081301 
L 224.119378 36.40496 
L 225.157656 36.14235 
L 226.195933 36.903653 
L 227.234211 37.120726 
L 229.310766 38.01466 
L 230.349043 38.671185 
L 231.387321 38.901963 
L 232.425598 39.951518 
L 233.463876 39.951518 
L 236.578708 42.096606 
L 237.616986 43.217782 
L 238.655263 43.438834 
L 242.808373 46.678129 
L 243.846651 47.805494 
L 244.884928 48.650797 
L 245.923206 49.313069 
L 246.961483 50.186224 
L 247.999761 50.627444 
L 249.038038 51.825988 
L 250.076316 52.336618 
L 251.114593 53.721287 
L 253.191148 55.66964 
L 254.229426 57.006562 
L 255.267703 57.225846 
L 256.305981 58.434116 
L 257.344258 59.15784 
L 259.420813 61.867053 
L 260.459091 62.184926 
L 262.535646 64.508624 
L 263.573923 65.384874 
L 264.612201 66.624091 
L 265.650478 67.557815 
L 266.688756 69.011011 
L 267.727033 69.626419 
L 268.765311 71.13532 
L 269.803589 71.683971 
L 270.841866 73.135841 
L 272.918421 75.169077 
L 273.956699 76.748272 
L 274.994976 77.747427 
L 276.033254 79.107339 
L 277.071531 80.187841 
L 278.109809 80.938091 
L 279.148086 82.172446 
L 280.186364 83.620336 
L 280.186364 83.620336 
" clip-path="url(#pc6e6778fc2)" style="fill: none; stroke: #ff7f0e; stroke-width: 2; stroke-linecap: square"/>
   </g>
   <g id="patch_3">
    <path d="M 40.5 192.24 
L 40.5 25.92 
" style="fill: none; stroke: #000000; stroke-width: 0.8; stroke-linejoin: miter; stroke-linecap: square"/>
   </g>
   <g id="patch_4">
    <path d="M 291.6 192.24 
L 291.6 25.92 
" style="fill: none; stroke: #000000; stroke-width: 0.8; stroke-linejoin: miter; stroke-linecap: square"/>
   </g>
   <g id="patch_5">
    <path d="M 40.5 192.24 
L 291.6 192.24 
" style="fill: none; stroke: #000000; stroke-width: 0.8; stroke-linejoin: miter; stroke-linecap: square"/>
   </g>
   <g id="patch_6">
    <path d="M 40.5 25.92 
L 291.6 25.92 
" style="fill: none; stroke: #000000; stroke-width: 0.8; stroke-linejoin: miter; stroke-linecap: square"/>
   </g>
   <g id="legend_1">
    <g id="patch_7">
     <path d="M 47.5 187.24 
L 128.971875 187.24 
Q 130.971875 187.24 130.971875 185.24 
L 130.971875 156.88375 
Q 130.971875 154.88375 128.971875 154.88375 
L 47.5 154.88375 
Q 45.5 154.88375 45.5 156.88375 
L 45.5 185.24 
Q 45.5 187.24 47.5 187.24 
z
" style="fill: #ffffff; opacity: 0.8; stroke: #cccccc; stroke-linejoin: miter"/>
    </g>
    <g id="line2d_9">
     <path d="M 49.5 162.982188 
L 59.5 162.982188 
L 69.5 162.982188 
" style="fill: none; stroke: #1f77b4; stroke-width: 2; stroke-linecap: square"/>
    </g>
    <g id="text_7">
     <!-- ADM-15-1 -->
     <g transform="translate(77.5 166.482188)scale(0.1 -0.1)">
      <defs>
       <path id="DejaVuSans-41" d="M 2188 4044 
L 1331 1722 
L 3047 1722 
L 2188 4044 
z
M 1831 4666 
L 2547 4666 
L 4325 0 
L 3669 0 
L 3244 1197 
L 1141 1197 
L 716 0 
L 50 0 
L 1831 4666 
z
" transform="scale(0.015625)"/>
       <path id="DejaVuSans-44" d="M 1259 4147 
L 1259 519 
L 2022 519 
Q 2988 519 3436 956 
Q 3884 1394 3884 2338 
Q 3884 3275 3436 3711 
Q 2988 4147 2022 4147 
L 1259 4147 
z
M 628 4666 
L 1925 4666 
Q 3281 4666 3915 4102 
Q 4550 3538 4550 2338 
Q 4550 1131 3912 565 
Q 3275 0 1925 0 
L 628 0 
L 628 4666 
z
" transform="scale(0.015625)"/>
       <path id="DejaVuSans-4d" d="M 628 4666 
L 1569 4666 
L 2759 1491 
L 3956 4666 
L 4897 4666 
L 4897 0 
L 4281 0 
L 4281 4097 
L 3078 897 
L 2444 897 
L 1241 4097 
L 1241 0 
L 628 0 
L 628 4666 
z
" transform="scale(0.015625)"/>
       <path id="DejaVuSans-2d" d="M 313 2009 
L 1997 2009 
L 1997 1497 
L 313 1497 
L 313 2009 
z
" transform="scale(0.015625)"/>
      </defs>
      <use xlink:href="#DejaVuSans-41"/>
      <use xlink:href="#DejaVuSans-44" x="68.408203"/>
      <use xlink:href="#DejaVuSans-4d" x="145.410156"/>
      <use xlink:href="#DejaVuSans-2d" x="231.689453"/>
      <use xlink:href="#DejaVuSans-31" x="267.773438"/>
      <use xlink:href="#DejaVuSans-35" x="331.396484"/>
      <use xlink:href="#DejaVuSans-2d" x="395.019531"/>
      <use xlink:href="#DejaVuSans-31" x="431.103516"/>
     </g>
    </g>
    <g id="line2d_10">
     <path d="M 49.5 177.660313 
L 59.5 177.660313 
L 69.5 177.660313 
" style="fill: none; stroke: #ff7f0e; stroke-width: 2; stroke-linecap: square"/>
    </g>
    <g id="text_8">
     <!-- ADM-15-4 -->
     <g transform="translate(77.5 181.160313)scale(0.1 -0.1)">
      <defs>
       <path id="DejaVuSans-34" d="M 2419 4116 
L 825 1625 
L 2419 1625 
L 2419 4116 
z
M 2253 4666 
L 3047 4666 
L 3047 1625 
L 3713 1625 
L 3713 1100 
L 3047 1100 
L 3047 0 
L 2419 0 
L 2419 1100 
L 313 1100 
L 313 1709 
L 2253 4666 
z
" transform="scale(0.015625)"/>
      </defs>
      <use xlink:href="#DejaVuSans-41"/>
      <use xlink:href="#DejaVuSans-44" x="68.408203"/>
      <use xlink:href="#DejaVuSans-4d" x="145.410156"/>
      <use xlink:href="#DejaVuSans-2d" x="231.689453"/>
      <use xlink:href="#DejaVuSans-31" x="267.773438"/>
      <use xlink:href="#DejaVuSans-35" x="331.396484"/>
      <use xlink:href="#DejaVuSans-2d" x="395.019531"/>
      <use xlink:href="#DejaVuSans-34" x="431.103516"/>
     </g>
    </g>
   </g>
  </g>
 </g>
 <defs>
  <clipPath id="pc6e6778fc2">
   <rect x="40.5" y="25.92" width="251.1" height="166.32"/>
  </clipPath>
 </defs>
</svg>
