<?xml version="1.0" encoding="utf-8" standalone="no"?>
<!DOCTYPE svg PUBLIC "-//W3C//DTD SVG 1.1//EN"
  "http://www.w3.org/Graphics/SVG/1.1/DTD/svg11.dtd">
<svg xmlns:xlink="http://www.w3.org/1999/xlink" width="324pt" height="216pt" viewBox="0 0 324 216" xmlns="http://www.w3.org/2000/svg" version="1.1">
 <metadata>
  <rdf:RDF xmlns:dc="http://purl.org/dc/elements/1.1/" xmlns:cc="http://creativecommons.org/ns#" xmlns:rdf="http://www.w3.org/1999/02/22-rdf-syntax-ns#">
   <cc:Work>
    <dc:type rdf:resource="http://purl.org/dc/dcmitype/StillImage"/>
    <dc:date>2022-09-01T11:14:51.046061</dc:date>
    <dc:format>image/svg+xml</dc:format>
    <dc:creator>
     <cc:Agent>
      <dc:title>Matplotlib v3.5.1, https://matplotlib.org/</dc:title>
     </cc:Agent>
    </dc:creator>
   </cc:Work>
  </rdf:RDF>
 </metadata>
 <defs>
  <style type="text/css">*{stroke-linejoin: round; stroke-linecap: butt}</style>
 </defs>
 <g id="figure_1">
  <g id="patch_1">
   <path d="M 0 216 
L 324 216 
L 324 0 
L 0 0 
z
" style="fill: #ffffff"/>
  </g>
  <g id="axes_1">
   <g id="patch_2">
    <path d="M 40.5 192.24 
L 291.6 192.24 
L 291.6 25.92 
L 40.5 25.92 
z
" style="fill: #ffffff"/>
   </g>
   <g id="matplotlib.axis_1">
    <g id="xtick_1">
     <g id="line2d_1">
      <defs>
       <path id="ma0bc45acd8" d="M 0 0 
L 0 3.5 
" style="stroke: #000000; stroke-width: 0.8"/>
      </defs>
      <g>
       <use xlink:href="#ma0bc45acd8" x="50.766537" y="192.24" style="stroke: #000000; stroke-width: 0.8"/>
      </g>
     </g>
     <g id="text_1">
      <!-- 0 -->
      <g transform="translate(45.676537 211.3975)scale(0.16 -0.16)">
       <defs>
        <path id="DejaVuSans-30" d="M 2034 4250 
Q 1547 4250 1301 3770 
Q 1056 3291 1056 2328 
Q 1056 1369 1301 889 
Q 1547 409 2034 409 
Q 2525 409 2770 889 
Q 3016 1369 3016 2328 
Q 3016 3291 2770 3770 
Q 2525 4250 2034 4250 
z
M 2034 4750 
Q 2819 4750 3233 4129 
Q 3647 3509 3647 2328 
Q 3647 1150 3233 529 
Q 2819 -91 2034 -91 
Q 1250 -91 836 529 
Q 422 1150 422 2328 
Q 422 3509 836 4129 
Q 1250 4750 2034 4750 
z
" transform="scale(0.015625)"/>
       </defs>
       <use xlink:href="#DejaVuSans-30"/>
      </g>
     </g>
    </g>
    <g id="xtick_2">
     <g id="line2d_2">
      <g>
       <use xlink:href="#ma0bc45acd8" x="142.534468" y="192.24" style="stroke: #000000; stroke-width: 0.8"/>
      </g>
     </g>
     <g id="text_2">
      <!-- 2 -->
      <g transform="translate(137.444468 211.3975)scale(0.16 -0.16)">
       <defs>
        <path id="DejaVuSans-32" d="M 1228 531 
L 3431 531 
L 3431 0 
L 469 0 
L 469 531 
Q 828 903 1448 1529 
Q 2069 2156 2228 2338 
Q 2531 2678 2651 2914 
Q 2772 3150 2772 3378 
Q 2772 3750 2511 3984 
Q 2250 4219 1831 4219 
Q 1534 4219 1204 4116 
Q 875 4013 500 3803 
L 500 4441 
Q 881 4594 1212 4672 
Q 1544 4750 1819 4750 
Q 2544 4750 2975 4387 
Q 3406 4025 3406 3419 
Q 3406 3131 3298 2873 
Q 3191 2616 2906 2266 
Q 2828 2175 2409 1742 
Q 1991 1309 1228 531 
z
" transform="scale(0.015625)"/>
       </defs>
       <use xlink:href="#DejaVuSans-32"/>
      </g>
     </g>
    </g>
    <g id="xtick_3">
     <g id="line2d_3">
      <g>
       <use xlink:href="#ma0bc45acd8" x="234.302398" y="192.24" style="stroke: #000000; stroke-width: 0.8"/>
      </g>
     </g>
     <g id="text_3">
      <!-- 4 -->
      <g transform="translate(229.212398 211.3975)scale(0.16 -0.16)">
       <defs>
        <path id="DejaVuSans-34" d="M 2419 4116 
L 825 1625 
L 2419 1625 
L 2419 4116 
z
M 2253 4666 
L 3047 4666 
L 3047 1625 
L 3713 1625 
L 3713 1100 
L 3047 1100 
L 3047 0 
L 2419 0 
L 2419 1100 
L 313 1100 
L 313 1709 
L 2253 4666 
z
" transform="scale(0.015625)"/>
       </defs>
       <use xlink:href="#DejaVuSans-34"/>
      </g>
     </g>
    </g>
   </g>
   <g id="matplotlib.axis_2">
    <g id="ytick_1">
     <g id="line2d_4">
      <defs>
       <path id="m766f0f6afb" d="M 0 0 
L -3.5 0 
" style="stroke: #000000; stroke-width: 0.8"/>
      </defs>
      <g>
       <use xlink:href="#m766f0f6afb" x="40.5" y="185.531495" style="stroke: #000000; stroke-width: 0.8"/>
      </g>
     </g>
     <g id="text_4">
      <!-- 0.00 -->
      <g transform="translate(-2.125 191.610245)scale(0.16 -0.16)">
       <defs>
        <path id="DejaVuSans-2e" d="M 684 794 
L 1344 794 
L 1344 0 
L 684 0 
L 684 794 
z
" transform="scale(0.015625)"/>
       </defs>
       <use xlink:href="#DejaVuSans-30"/>
       <use xlink:href="#DejaVuSans-2e" x="63.623047"/>
       <use xlink:href="#DejaVuSans-30" x="95.410156"/>
       <use xlink:href="#DejaVuSans-30" x="159.033203"/>
      </g>
     </g>
    </g>
    <g id="ytick_2">
     <g id="line2d_5">
      <g>
       <use xlink:href="#m766f0f6afb" x="40.5" y="147.518621" style="stroke: #000000; stroke-width: 0.8"/>
      </g>
     </g>
     <g id="text_5">
      <!-- 0.25 -->
      <g transform="translate(-2.125 153.597371)scale(0.16 -0.16)">
       <defs>
        <path id="DejaVuSans-35" d="M 691 4666 
L 3169 4666 
L 3169 4134 
L 1269 4134 
L 1269 2991 
Q 1406 3038 1543 3061 
Q 1681 3084 1819 3084 
Q 2600 3084 3056 2656 
Q 3513 2228 3513 1497 
Q 3513 744 3044 326 
Q 2575 -91 1722 -91 
Q 1428 -91 1123 -41 
Q 819 9 494 109 
L 494 744 
Q 775 591 1075 516 
Q 1375 441 1709 441 
Q 2250 441 2565 725 
Q 2881 1009 2881 1497 
Q 2881 1984 2565 2268 
Q 2250 2553 1709 2553 
Q 1456 2553 1204 2497 
Q 953 2441 691 2322 
L 691 4666 
z
" transform="scale(0.015625)"/>
       </defs>
       <use xlink:href="#DejaVuSans-30"/>
       <use xlink:href="#DejaVuSans-2e" x="63.623047"/>
       <use xlink:href="#DejaVuSans-32" x="95.410156"/>
       <use xlink:href="#DejaVuSans-35" x="159.033203"/>
      </g>
     </g>
    </g>
    <g id="ytick_3">
     <g id="line2d_6">
      <g>
       <use xlink:href="#m766f0f6afb" x="40.5" y="109.505747" style="stroke: #000000; stroke-width: 0.8"/>
      </g>
     </g>
     <g id="text_6">
      <!-- 0.50 -->
      <g transform="translate(-2.125 115.584497)scale(0.16 -0.16)">
       <use xlink:href="#DejaVuSans-30"/>
       <use xlink:href="#DejaVuSans-2e" x="63.623047"/>
       <use xlink:href="#DejaVuSans-35" x="95.410156"/>
       <use xlink:href="#DejaVuSans-30" x="159.033203"/>
      </g>
     </g>
    </g>
    <g id="ytick_4">
     <g id="line2d_7">
      <g>
       <use xlink:href="#m766f0f6afb" x="40.5" y="71.492874" style="stroke: #000000; stroke-width: 0.8"/>
      </g>
     </g>
     <g id="text_7">
      <!-- 0.75 -->
      <g transform="translate(-2.125 77.571624)scale(0.16 -0.16)">
       <defs>
        <path id="DejaVuSans-37" d="M 525 4666 
L 3525 4666 
L 3525 4397 
L 1831 0 
L 1172 0 
L 2766 4134 
L 525 4134 
L 525 4666 
z
" transform="scale(0.015625)"/>
       </defs>
       <use xlink:href="#DejaVuSans-30"/>
       <use xlink:href="#DejaVuSans-2e" x="63.623047"/>
       <use xlink:href="#DejaVuSans-37" x="95.410156"/>
       <use xlink:href="#DejaVuSans-35" x="159.033203"/>
      </g>
     </g>
    </g>
    <g id="ytick_5">
     <g id="line2d_8">
      <g>
       <use xlink:href="#m766f0f6afb" x="40.5" y="33.48" style="stroke: #000000; stroke-width: 0.8"/>
      </g>
     </g>
     <g id="text_8">
      <!-- 1.00 -->
      <g transform="translate(-2.125 39.55875)scale(0.16 -0.16)">
       <defs>
        <path id="DejaVuSans-31" d="M 794 531 
L 1825 531 
L 1825 4091 
L 703 3866 
L 703 4441 
L 1819 4666 
L 2450 4666 
L 2450 531 
L 3481 531 
L 3481 0 
L 794 0 
L 794 531 
z
" transform="scale(0.015625)"/>
       </defs>
       <use xlink:href="#DejaVuSans-31"/>
       <use xlink:href="#DejaVuSans-2e" x="63.623047"/>
       <use xlink:href="#DejaVuSans-30" x="95.410156"/>
       <use xlink:href="#DejaVuSans-30" x="159.033203"/>
      </g>
     </g>
    </g>
   </g>
   <g id="line2d_9">
    <path d="M 51.913636 33.48 
L 53.060735 42.126981 
L 54.207835 48.16636 
L 55.354934 61.457849 
L 56.502033 61.045004 
L 57.649132 68.116496 
L 58.796231 69.525026 
L 59.94333 74.189266 
L 61.090429 86.969254 
L 62.237529 89.599624 
L 63.384628 90.223445 
L 64.531727 91.446802 
L 65.678826 91.906699 
L 66.825925 96.941286 
L 67.973024 101.257946 
L 69.120123 97.238778 
L 70.267222 104.565263 
L 71.414322 106.845017 
L 72.561421 105.425862 
L 73.70852 107.798204 
L 74.855619 121.177728 
L 76.002718 111.337745 
L 77.149817 123.081066 
L 78.296916 117.276948 
L 79.444016 123.786849 
L 80.591115 123.887024 
L 81.738214 128.032172 
L 82.885313 120.163829 
L 84.032412 120.912111 
L 85.179511 125.116454 
L 86.32661 127.29148 
L 87.473709 130.878072 
L 88.620809 130.138897 
L 90.915007 133.128989 
L 92.062106 136.759599 
L 93.209205 137.07834 
L 94.356304 135.285802 
L 95.503403 141.87463 
L 96.650503 139.389969 
L 97.797602 139.777012 
L 98.944701 143.063077 
L 100.0918 136.191937 
L 101.238899 139.386934 
L 102.385998 141.879184 
L 103.533097 151.766218 
L 104.680196 139.669247 
L 105.827296 135.719897 
L 106.974395 144.131617 
L 108.121494 151.436853 
L 109.268593 148.909694 
L 110.415692 145.650949 
L 111.562791 147.229475 
L 112.70989 146.886449 
L 115.004089 145.213819 
L 116.151188 149.557801 
L 117.298287 153.32653 
L 118.445386 157.785866 
L 119.592485 154.552924 
L 120.739584 158.273085 
L 121.886683 158.62977 
L 123.033783 153.657414 
L 124.180882 159.092704 
L 125.327981 147.183941 
L 126.47508 154.581763 
L 127.622179 154.270611 
L 129.916377 155.582002 
L 131.063476 159.110918 
L 132.210576 158.983421 
L 133.357675 159.904734 
L 134.504774 156.976872 
L 135.651873 161.463528 
L 136.798972 153.106449 
L 137.946071 165.221634 
L 139.09317 168.352881 
L 140.24027 168.19503 
L 141.387369 161.973514 
L 142.534468 167.194791 
L 143.681567 164.040775 
L 144.828666 161.979585 
L 145.975765 165.904649 
L 147.122864 161.047648 
L 148.269963 168.686801 
L 149.417063 166.589184 
L 150.564162 162.184489 
L 151.711261 170.837543 
L 152.85836 165.83483 
L 154.005459 167.565138 
L 155.152558 164.500673 
L 156.299657 165.790814 
L 157.446757 159.551084 
L 158.593856 159.997321 
L 159.740955 165.537339 
L 160.888054 165.740726 
L 163.182252 165.669389 
L 165.47645 174.799036 
L 166.62355 172.083668 
L 167.770649 180.753417 
L 168.917748 162.025119 
L 170.064847 171.863584 
L 171.211946 165.733137 
L 172.359045 170.717636 
L 173.506144 170.251667 
L 174.653243 175.928289 
L 175.800343 168.676177 
L 176.947442 157.770689 
L 178.094541 166.704538 
L 179.24164 166.71668 
L 180.388739 169.806948 
L 181.535838 173.759334 
L 182.682937 171.034859 
L 183.830037 171.726982 
L 184.977136 169.831233 
L 186.124235 170.960486 
L 187.271334 173.00498 
L 188.418433 174.60172 
L 190.712631 167.584869 
L 194.153929 170.265327 
L 195.301028 174.131198 
L 196.448127 172.476782 
L 197.595226 172.120095 
L 198.742325 170.658442 
L 199.889424 168.498593 
L 201.036524 179.646932 
L 202.183623 172.205093 
L 203.330722 171.204854 
L 204.477821 175.046439 
L 205.62492 171.329315 
L 206.772019 169.670345 
L 207.919118 179.187034 
L 209.066217 172.101882 
L 210.213317 170.623532 
L 211.360416 172.932125 
L 212.507515 169.073845 
L 213.654614 173.932365 
L 214.801713 176.098285 
L 215.948812 179.13391 
L 217.095911 173.068729 
L 218.243011 174.955371 
L 219.39011 176.324438 
L 220.537209 169.06322 
L 221.684308 178.707405 
L 222.831407 171.978939 
L 223.978506 181.591251 
L 225.125605 175.395537 
L 226.272704 165.798404 
L 227.419804 175.829631 
L 228.566903 174.988763 
L 229.714002 170.086227 
L 230.861101 175.530622 
L 232.0082 182.951212 
L 233.155299 169.588384 
L 234.302398 176.479255 
L 235.449497 171.314137 
L 236.596597 172.836504 
L 237.743696 177.729934 
L 238.890795 180.068884 
L 240.037894 170.265328 
L 241.184993 175.208846 
L 242.332092 173.014088 
L 243.479191 175.336342 
L 244.626291 172.754542 
L 245.77339 180.654759 
L 246.920489 177.348963 
L 248.067588 180.568244 
L 249.214687 168.340741 
L 250.361786 184.68 
L 251.508885 179.681842 
L 252.655984 179.109626 
L 253.803084 175.494195 
L 254.950183 183.078708 
L 256.097282 174.972067 
L 257.244381 177.772432 
L 258.39148 181.919098 
L 259.538579 178.746869 
L 260.685678 172.240003 
L 261.832778 179.854872 
L 262.979877 182.233285 
L 264.126976 176.180246 
L 265.274075 174.119057 
L 266.421174 174.333067 
L 267.568273 183.444501 
L 268.715372 176.492916 
L 269.862471 176.593092 
L 271.009571 168.645821 
L 272.15667 174.99787 
L 273.303769 179.470865 
L 274.450868 174.029505 
L 275.597967 174.940193 
L 277.892165 181.750621 
L 279.039265 182.893534 
L 280.186364 175.597406 
L 280.186364 175.597406 
" clip-path="url(#pc04109568b)" style="fill: none; stroke: #1f77b4; stroke-width: 2; stroke-linecap: square"/>
   </g>
   <g id="line2d_10">
    <path d="M 51.913636 33.48 
L 53.060735 40.908178 
L 54.207835 46.526633 
L 55.354934 51.121123 
L 56.502033 56.52697 
L 57.649132 60.347428 
L 58.796231 62.969874 
L 59.94333 68.166367 
L 61.090429 69.77325 
L 62.237529 75.032016 
L 63.384628 76.864275 
L 64.531727 79.910767 
L 65.678826 81.435772 
L 67.973024 87.737849 
L 70.267222 92.542865 
L 71.414322 94.019537 
L 72.561421 96.635078 
L 73.70852 97.70236 
L 74.855619 99.488567 
L 76.002718 101.736927 
L 77.149817 103.304076 
L 78.296916 105.148256 
L 79.444016 107.718982 
L 80.591115 108.355834 
L 81.738214 109.532026 
L 82.885313 110.942258 
L 84.032412 111.223653 
L 86.32661 114.813785 
L 87.473709 115.872013 
L 88.620809 117.679651 
L 89.767908 119.012565 
L 90.915007 120.91387 
L 92.062106 121.091175 
L 93.209205 122.266065 
L 94.356304 124.291067 
L 95.503403 124.452153 
L 96.650503 125.580859 
L 97.797602 126.114207 
L 98.944701 127.47956 
L 100.0918 127.942038 
L 101.238899 129.493749 
L 102.385998 130.286801 
L 103.533097 130.903395 
L 104.680196 132.437389 
L 106.974395 133.823651 
L 108.121494 133.40944 
L 109.268593 134.919398 
L 110.415692 135.527198 
L 111.562791 137.520413 
L 112.70989 137.802004 
L 113.856989 138.427587 
L 115.004089 139.229953 
L 116.151188 139.461974 
L 117.298287 140.469199 
L 118.445386 141.11732 
L 119.592485 141.349796 
L 120.739584 143.050087 
L 121.886683 144.091118 
L 123.033783 144.062718 
L 124.180882 145.138078 
L 125.327981 145.175792 
L 126.47508 146.640936 
L 127.622179 146.093257 
L 129.916377 147.72372 
L 131.063476 147.921218 
L 132.210576 148.756545 
L 133.357675 149.221759 
L 134.504774 150.406549 
L 135.651873 149.621769 
L 136.798972 151.227285 
L 137.946071 151.080594 
L 139.09317 151.195041 
L 140.24027 151.855929 
L 141.387369 152.370322 
L 142.534468 152.740695 
L 143.681567 153.565144 
L 144.828666 153.933302 
L 145.975765 155.184663 
L 147.122864 155.393039 
L 148.269963 154.880275 
L 149.417063 155.754879 
L 150.564162 156.980316 
L 152.85836 157.511058 
L 154.005459 157.967478 
L 155.152558 157.812776 
L 156.299657 157.978226 
L 157.446757 158.858302 
L 158.593856 158.365275 
L 159.740955 159.727761 
L 160.888054 160.122952 
L 162.035153 160.182357 
L 163.182252 160.527783 
L 164.329351 160.234207 
L 165.47645 160.114028 
L 166.62355 160.924928 
L 167.770649 162.424138 
L 168.917748 161.776604 
L 170.064847 162.036308 
L 171.211946 162.144241 
L 172.359045 163.045748 
L 173.506144 163.166057 
L 174.653243 164.119739 
L 175.800343 163.457679 
L 176.947442 163.909148 
L 178.094541 165.546842 
L 179.24164 165.352666 
L 180.388739 164.130096 
L 181.535838 164.967181 
L 182.682937 165.62416 
L 183.830037 164.492522 
L 184.977136 165.09661 
L 186.124235 166.539215 
L 187.271334 167.256447 
L 188.418433 166.672748 
L 189.565532 166.814553 
L 190.712631 166.835657 
L 191.85973 167.185903 
L 193.00683 167.38796 
L 194.153929 167.358583 
L 195.301028 166.960136 
L 196.448127 167.930297 
L 197.595226 167.820345 
L 198.742325 167.892713 
L 199.889424 169.343916 
L 201.036524 168.525135 
L 202.183623 170.226208 
L 203.330722 168.361183 
L 204.477821 170.663021 
L 205.62492 170.454776 
L 206.772019 169.363784 
L 209.066217 169.706864 
L 210.213317 170.860323 
L 211.360416 170.660351 
L 213.654614 170.557172 
L 217.095911 172.005771 
L 218.243011 171.780655 
L 219.39011 172.086281 
L 220.537209 172.647703 
L 221.684308 172.209196 
L 222.831407 172.051823 
L 223.978506 172.538793 
L 225.125605 172.831392 
L 227.419804 172.680533 
L 229.714002 173.904471 
L 230.861101 172.564978 
L 232.0082 173.166591 
L 233.155299 173.340964 
L 234.302398 174.05774 
L 235.449497 174.426159 
L 237.743696 173.479512 
L 238.890795 175.65368 
L 240.037894 174.107115 
L 241.184993 174.687753 
L 242.332092 174.864667 
L 243.479191 175.322911 
L 245.77339 175.084181 
L 246.920489 174.728333 
L 248.067588 175.927519 
L 249.214687 174.817572 
L 251.508885 175.891759 
L 252.655984 176.256465 
L 253.803084 175.876386 
L 254.950183 174.66984 
L 256.097282 175.872413 
L 257.244381 177.24265 
L 258.39148 177.09114 
L 259.538579 176.716663 
L 260.685678 177.533947 
L 261.832778 176.846287 
L 262.979877 177.126901 
L 264.126976 176.517472 
L 265.274075 177.471675 
L 266.421174 176.817366 
L 267.568273 176.885826 
L 268.715372 176.326553 
L 269.862471 177.203112 
L 271.009571 176.528089 
L 272.15667 177.087102 
L 273.303769 177.313129 
L 274.450868 177.297171 
L 275.597967 178.26629 
L 276.745066 177.451222 
L 277.892165 177.633151 
L 279.039265 177.603188 
L 280.186364 178.102729 
L 280.186364 178.102729 
" clip-path="url(#pc04109568b)" style="fill: none; stroke: #ff7f0e; stroke-width: 2; stroke-linecap: square"/>
   </g>
   <g id="patch_3">
    <path d="M 40.5 192.24 
L 40.5 25.92 
" style="fill: none; stroke: #000000; stroke-width: 0.8; stroke-linejoin: miter; stroke-linecap: square"/>
   </g>
   <g id="patch_4">
    <path d="M 291.6 192.24 
L 291.6 25.92 
" style="fill: none; stroke: #000000; stroke-width: 0.8; stroke-linejoin: miter; stroke-linecap: square"/>
   </g>
   <g id="patch_5">
    <path d="M 40.5 192.24 
L 291.6 192.24 
" style="fill: none; stroke: #000000; stroke-width: 0.8; stroke-linejoin: miter; stroke-linecap: square"/>
   </g>
   <g id="patch_6">
    <path d="M 40.5 25.92 
L 291.6 25.92 
" style="fill: none; stroke: #000000; stroke-width: 0.8; stroke-linejoin: miter; stroke-linecap: square"/>
   </g>
   <g id="legend_1">
    <g id="patch_7">
     <path d="M 203.128125 63.27625 
L 284.6 63.27625 
Q 286.6 63.27625 286.6 61.27625 
L 286.6 32.92 
Q 286.6 30.92 284.6 30.92 
L 203.128125 30.92 
Q 201.128125 30.92 201.128125 32.92 
L 201.128125 61.27625 
Q 201.128125 63.27625 203.128125 63.27625 
z
" style="fill: #ffffff; opacity: 0.8; stroke: #cccccc; stroke-linejoin: miter"/>
    </g>
    <g id="line2d_11">
     <path d="M 205.128125 39.018437 
L 215.128125 39.018437 
L 225.128125 39.018437 
" style="fill: none; stroke: #1f77b4; stroke-width: 2; stroke-linecap: square"/>
    </g>
    <g id="text_9">
     <!-- ADM-15-1 -->
     <g transform="translate(233.128125 42.518437)scale(0.1 -0.1)">
      <defs>
       <path id="DejaVuSans-41" d="M 2188 4044 
L 1331 1722 
L 3047 1722 
L 2188 4044 
z
M 1831 4666 
L 2547 4666 
L 4325 0 
L 3669 0 
L 3244 1197 
L 1141 1197 
L 716 0 
L 50 0 
L 1831 4666 
z
" transform="scale(0.015625)"/>
       <path id="DejaVuSans-44" d="M 1259 4147 
L 1259 519 
L 2022 519 
Q 2988 519 3436 956 
Q 3884 1394 3884 2338 
Q 3884 3275 3436 3711 
Q 2988 4147 2022 4147 
L 1259 4147 
z
M 628 4666 
L 1925 4666 
Q 3281 4666 3915 4102 
Q 4550 3538 4550 2338 
Q 4550 1131 3912 565 
Q 3275 0 1925 0 
L 628 0 
L 628 4666 
z
" transform="scale(0.015625)"/>
       <path id="DejaVuSans-4d" d="M 628 4666 
L 1569 4666 
L 2759 1491 
L 3956 4666 
L 4897 4666 
L 4897 0 
L 4281 0 
L 4281 4097 
L 3078 897 
L 2444 897 
L 1241 4097 
L 1241 0 
L 628 0 
L 628 4666 
z
" transform="scale(0.015625)"/>
       <path id="DejaVuSans-2d" d="M 313 2009 
L 1997 2009 
L 1997 1497 
L 313 1497 
L 313 2009 
z
" transform="scale(0.015625)"/>
      </defs>
      <use xlink:href="#DejaVuSans-41"/>
      <use xlink:href="#DejaVuSans-44" x="68.408203"/>
      <use xlink:href="#DejaVuSans-4d" x="145.410156"/>
      <use xlink:href="#DejaVuSans-2d" x="231.689453"/>
      <use xlink:href="#DejaVuSans-31" x="267.773438"/>
      <use xlink:href="#DejaVuSans-35" x="331.396484"/>
      <use xlink:href="#DejaVuSans-2d" x="395.019531"/>
      <use xlink:href="#DejaVuSans-31" x="431.103516"/>
     </g>
    </g>
    <g id="line2d_12">
     <path d="M 205.128125 53.696562 
L 215.128125 53.696562 
L 225.128125 53.696562 
" style="fill: none; stroke: #ff7f0e; stroke-width: 2; stroke-linecap: square"/>
    </g>
    <g id="text_10">
     <!-- ADM-15-4 -->
     <g transform="translate(233.128125 57.196562)scale(0.1 -0.1)">
      <use xlink:href="#DejaVuSans-41"/>
      <use xlink:href="#DejaVuSans-44" x="68.408203"/>
      <use xlink:href="#DejaVuSans-4d" x="145.410156"/>
      <use xlink:href="#DejaVuSans-2d" x="231.689453"/>
      <use xlink:href="#DejaVuSans-31" x="267.773438"/>
      <use xlink:href="#DejaVuSans-35" x="331.396484"/>
      <use xlink:href="#DejaVuSans-2d" x="395.019531"/>
      <use xlink:href="#DejaVuSans-34" x="431.103516"/>
     </g>
    </g>
   </g>
  </g>
 </g>
 <defs>
  <clipPath id="pc04109568b">
   <rect x="40.5" y="25.92" width="251.1" height="166.32"/>
  </clipPath>
 </defs>
</svg>
