<?xml version="1.0" encoding="utf-8" standalone="no"?>
<!DOCTYPE svg PUBLIC "-//W3C//DTD SVG 1.1//EN"
  "http://www.w3.org/Graphics/SVG/1.1/DTD/svg11.dtd">
<svg xmlns:xlink="http://www.w3.org/1999/xlink" width="324pt" height="216pt" viewBox="0 0 324 216" xmlns="http://www.w3.org/2000/svg" version="1.1">
 <metadata>
  <rdf:RDF xmlns:dc="http://purl.org/dc/elements/1.1/" xmlns:cc="http://creativecommons.org/ns#" xmlns:rdf="http://www.w3.org/1999/02/22-rdf-syntax-ns#">
   <cc:Work>
    <dc:type rdf:resource="http://purl.org/dc/dcmitype/StillImage"/>
    <dc:date>2022-09-01T11:12:20.641442</dc:date>
    <dc:format>image/svg+xml</dc:format>
    <dc:creator>
     <cc:Agent>
      <dc:title>Matplotlib v3.5.1, https://matplotlib.org/</dc:title>
     </cc:Agent>
    </dc:creator>
   </cc:Work>
  </rdf:RDF>
 </metadata>
 <defs>
  <style type="text/css">*{stroke-linejoin: round; stroke-linecap: butt}</style>
 </defs>
 <g id="figure_1">
  <g id="patch_1">
   <path d="M 0 216 
L 324 216 
L 324 0 
L 0 0 
z
" style="fill: #ffffff"/>
  </g>
  <g id="axes_1">
   <g id="patch_2">
    <path d="M 40.5 192.24 
L 291.6 192.24 
L 291.6 25.92 
L 40.5 25.92 
z
" style="fill: #ffffff"/>
   </g>
   <g id="matplotlib.axis_1">
    <g id="xtick_1">
     <g id="line2d_1">
      <defs>
       <path id="m27f97c529f" d="M 0 0 
L 0 3.5 
" style="stroke: #000000; stroke-width: 0.8"/>
      </defs>
      <g>
       <use xlink:href="#m27f97c529f" x="50.766537" y="192.24" style="stroke: #000000; stroke-width: 0.8"/>
      </g>
     </g>
     <g id="text_1">
      <!-- 0.0 -->
      <g transform="translate(38.044037 211.3975)scale(0.16 -0.16)">
       <defs>
        <path id="DejaVuSans-30" d="M 2034 4250 
Q 1547 4250 1301 3770 
Q 1056 3291 1056 2328 
Q 1056 1369 1301 889 
Q 1547 409 2034 409 
Q 2525 409 2770 889 
Q 3016 1369 3016 2328 
Q 3016 3291 2770 3770 
Q 2525 4250 2034 4250 
z
M 2034 4750 
Q 2819 4750 3233 4129 
Q 3647 3509 3647 2328 
Q 3647 1150 3233 529 
Q 2819 -91 2034 -91 
Q 1250 -91 836 529 
Q 422 1150 422 2328 
Q 422 3509 836 4129 
Q 1250 4750 2034 4750 
z
" transform="scale(0.015625)"/>
        <path id="DejaVuSans-2e" d="M 684 794 
L 1344 794 
L 1344 0 
L 684 0 
L 684 794 
z
" transform="scale(0.015625)"/>
       </defs>
       <use xlink:href="#DejaVuSans-30"/>
       <use xlink:href="#DejaVuSans-2e" x="63.623047"/>
       <use xlink:href="#DejaVuSans-30" x="95.410156"/>
      </g>
     </g>
    </g>
    <g id="xtick_2">
     <g id="line2d_2">
      <g>
       <use xlink:href="#m27f97c529f" x="108.121494" y="192.24" style="stroke: #000000; stroke-width: 0.8"/>
      </g>
     </g>
     <g id="text_2">
      <!-- 0.5 -->
      <g transform="translate(95.398994 211.3975)scale(0.16 -0.16)">
       <defs>
        <path id="DejaVuSans-35" d="M 691 4666 
L 3169 4666 
L 3169 4134 
L 1269 4134 
L 1269 2991 
Q 1406 3038 1543 3061 
Q 1681 3084 1819 3084 
Q 2600 3084 3056 2656 
Q 3513 2228 3513 1497 
Q 3513 744 3044 326 
Q 2575 -91 1722 -91 
Q 1428 -91 1123 -41 
Q 819 9 494 109 
L 494 744 
Q 775 591 1075 516 
Q 1375 441 1709 441 
Q 2250 441 2565 725 
Q 2881 1009 2881 1497 
Q 2881 1984 2565 2268 
Q 2250 2553 1709 2553 
Q 1456 2553 1204 2497 
Q 953 2441 691 2322 
L 691 4666 
z
" transform="scale(0.015625)"/>
       </defs>
       <use xlink:href="#DejaVuSans-30"/>
       <use xlink:href="#DejaVuSans-2e" x="63.623047"/>
       <use xlink:href="#DejaVuSans-35" x="95.410156"/>
      </g>
     </g>
    </g>
    <g id="xtick_3">
     <g id="line2d_3">
      <g>
       <use xlink:href="#m27f97c529f" x="165.47645" y="192.24" style="stroke: #000000; stroke-width: 0.8"/>
      </g>
     </g>
     <g id="text_3">
      <!-- 1.0 -->
      <g transform="translate(152.75395 211.3975)scale(0.16 -0.16)">
       <defs>
        <path id="DejaVuSans-31" d="M 794 531 
L 1825 531 
L 1825 4091 
L 703 3866 
L 703 4441 
L 1819 4666 
L 2450 4666 
L 2450 531 
L 3481 531 
L 3481 0 
L 794 0 
L 794 531 
z
" transform="scale(0.015625)"/>
       </defs>
       <use xlink:href="#DejaVuSans-31"/>
       <use xlink:href="#DejaVuSans-2e" x="63.623047"/>
       <use xlink:href="#DejaVuSans-30" x="95.410156"/>
      </g>
     </g>
    </g>
    <g id="xtick_4">
     <g id="line2d_4">
      <g>
       <use xlink:href="#m27f97c529f" x="222.831407" y="192.24" style="stroke: #000000; stroke-width: 0.8"/>
      </g>
     </g>
     <g id="text_4">
      <!-- 1.5 -->
      <g transform="translate(210.108907 211.3975)scale(0.16 -0.16)">
       <use xlink:href="#DejaVuSans-31"/>
       <use xlink:href="#DejaVuSans-2e" x="63.623047"/>
       <use xlink:href="#DejaVuSans-35" x="95.410156"/>
      </g>
     </g>
    </g>
    <g id="xtick_5">
     <g id="line2d_5">
      <g>
       <use xlink:href="#m27f97c529f" x="280.186364" y="192.24" style="stroke: #000000; stroke-width: 0.8"/>
      </g>
     </g>
     <g id="text_5">
      <!-- 2.0 -->
      <g transform="translate(267.463864 211.3975)scale(0.16 -0.16)">
       <defs>
        <path id="DejaVuSans-32" d="M 1228 531 
L 3431 531 
L 3431 0 
L 469 0 
L 469 531 
Q 828 903 1448 1529 
Q 2069 2156 2228 2338 
Q 2531 2678 2651 2914 
Q 2772 3150 2772 3378 
Q 2772 3750 2511 3984 
Q 2250 4219 1831 4219 
Q 1534 4219 1204 4116 
Q 875 4013 500 3803 
L 500 4441 
Q 881 4594 1212 4672 
Q 1544 4750 1819 4750 
Q 2544 4750 2975 4387 
Q 3406 4025 3406 3419 
Q 3406 3131 3298 2873 
Q 3191 2616 2906 2266 
Q 2828 2175 2409 1742 
Q 1991 1309 1228 531 
z
" transform="scale(0.015625)"/>
       </defs>
       <use xlink:href="#DejaVuSans-32"/>
       <use xlink:href="#DejaVuSans-2e" x="63.623047"/>
       <use xlink:href="#DejaVuSans-30" x="95.410156"/>
      </g>
     </g>
    </g>
   </g>
   <g id="matplotlib.axis_2">
    <g id="ytick_1">
     <g id="line2d_6">
      <defs>
       <path id="mc831ef1795" d="M 0 0 
L -3.5 0 
" style="stroke: #000000; stroke-width: 0.8"/>
      </defs>
      <g>
       <use xlink:href="#mc831ef1795" x="40.5" y="182.46872" style="stroke: #000000; stroke-width: 0.8"/>
      </g>
     </g>
     <g id="text_6">
      <!-- 0.00 -->
      <g transform="translate(-2.125 188.54747)scale(0.16 -0.16)">
       <use xlink:href="#DejaVuSans-30"/>
       <use xlink:href="#DejaVuSans-2e" x="63.623047"/>
       <use xlink:href="#DejaVuSans-30" x="95.410156"/>
       <use xlink:href="#DejaVuSans-30" x="159.033203"/>
      </g>
     </g>
    </g>
    <g id="ytick_2">
     <g id="line2d_7">
      <g>
       <use xlink:href="#mc831ef1795" x="40.5" y="145.22154" style="stroke: #000000; stroke-width: 0.8"/>
      </g>
     </g>
     <g id="text_7">
      <!-- 0.25 -->
      <g transform="translate(-2.125 151.30029)scale(0.16 -0.16)">
       <use xlink:href="#DejaVuSans-30"/>
       <use xlink:href="#DejaVuSans-2e" x="63.623047"/>
       <use xlink:href="#DejaVuSans-32" x="95.410156"/>
       <use xlink:href="#DejaVuSans-35" x="159.033203"/>
      </g>
     </g>
    </g>
    <g id="ytick_3">
     <g id="line2d_8">
      <g>
       <use xlink:href="#mc831ef1795" x="40.5" y="107.97436" style="stroke: #000000; stroke-width: 0.8"/>
      </g>
     </g>
     <g id="text_8">
      <!-- 0.50 -->
      <g transform="translate(-2.125 114.05311)scale(0.16 -0.16)">
       <use xlink:href="#DejaVuSans-30"/>
       <use xlink:href="#DejaVuSans-2e" x="63.623047"/>
       <use xlink:href="#DejaVuSans-35" x="95.410156"/>
       <use xlink:href="#DejaVuSans-30" x="159.033203"/>
      </g>
     </g>
    </g>
    <g id="ytick_4">
     <g id="line2d_9">
      <g>
       <use xlink:href="#mc831ef1795" x="40.5" y="70.72718" style="stroke: #000000; stroke-width: 0.8"/>
      </g>
     </g>
     <g id="text_9">
      <!-- 0.75 -->
      <g transform="translate(-2.125 76.80593)scale(0.16 -0.16)">
       <defs>
        <path id="DejaVuSans-37" d="M 525 4666 
L 3525 4666 
L 3525 4397 
L 1831 0 
L 1172 0 
L 2766 4134 
L 525 4134 
L 525 4666 
z
" transform="scale(0.015625)"/>
       </defs>
       <use xlink:href="#DejaVuSans-30"/>
       <use xlink:href="#DejaVuSans-2e" x="63.623047"/>
       <use xlink:href="#DejaVuSans-37" x="95.410156"/>
       <use xlink:href="#DejaVuSans-35" x="159.033203"/>
      </g>
     </g>
    </g>
    <g id="ytick_5">
     <g id="line2d_10">
      <g>
       <use xlink:href="#mc831ef1795" x="40.5" y="33.48" style="stroke: #000000; stroke-width: 0.8"/>
      </g>
     </g>
     <g id="text_10">
      <!-- 1.00 -->
      <g transform="translate(-2.125 39.55875)scale(0.16 -0.16)">
       <use xlink:href="#DejaVuSans-31"/>
       <use xlink:href="#DejaVuSans-2e" x="63.623047"/>
       <use xlink:href="#DejaVuSans-30" x="95.410156"/>
       <use xlink:href="#DejaVuSans-30" x="159.033203"/>
      </g>
     </g>
    </g>
   </g>
   <g id="line2d_11">
    <path d="M 51.913636 33.48 
L 53.060735 48.449448 
L 54.207835 60.663867 
L 55.354934 68.215457 
L 56.502033 73.607241 
L 58.796231 87.804446 
L 59.94333 95.203752 
L 61.090429 96.913662 
L 62.237529 101.775931 
L 63.384628 104.714937 
L 64.531727 106.518382 
L 65.678826 111.77257 
L 66.825925 118.198649 
L 67.973024 117.768079 
L 69.120123 119.168783 
L 70.267222 124.483266 
L 71.414322 123.363166 
L 72.561421 126.754386 
L 73.70852 127.579967 
L 74.855619 129.700349 
L 76.002718 132.436825 
L 77.149817 131.914266 
L 78.296916 135.28616 
L 79.444016 136.807455 
L 80.591115 131.566409 
L 81.738214 140.087361 
L 82.885313 140.141472 
L 84.032412 139.847726 
L 85.179511 142.050821 
L 86.32661 142.587294 
L 87.473709 146.302407 
L 88.620809 144.474225 
L 89.767908 148.337757 
L 90.915007 147.180553 
L 92.062106 147.051459 
L 93.209205 149.346543 
L 94.356304 145.091092 
L 95.503403 149.790254 
L 96.650503 151.979434 
L 97.797602 152.624129 
L 98.944701 152.090748 
L 100.0918 152.130945 
L 101.238899 150.142749 
L 102.385998 153.64451 
L 103.533097 150.02757 
L 104.680196 152.52441 
L 105.827296 157.073607 
L 106.974395 158.814439 
L 108.121494 153.57262 
L 109.268593 157.786328 
L 110.415692 154.991104 
L 111.562791 153.822304 
L 112.70989 157.784782 
L 113.856989 154.15702 
L 115.004089 157.350347 
L 116.151188 157.239033 
L 117.298287 156.293635 
L 118.445386 157.316335 
L 119.592485 159.731235 
L 120.739584 159.994061 
L 121.886683 160.012613 
L 123.033783 159.838685 
L 124.180882 160.364336 
L 125.327981 159.476913 
L 126.47508 160.14248 
L 127.622179 162.3162 
L 128.769278 158.877053 
L 129.916377 160.684364 
L 131.063476 159.935312 
L 132.210576 158.666793 
L 133.357675 162.436791 
L 134.504774 164.056258 
L 135.651873 163.747825 
L 136.798972 164.428079 
L 137.946071 162.902919 
L 139.09317 166.777273 
L 140.24027 164.047755 
L 141.387369 166.228432 
L 142.534468 164.1668 
L 143.681567 166.928785 
L 144.828666 164.417257 
L 145.975765 163.693714 
L 147.122864 164.489147 
L 148.269963 166.856894 
L 149.417063 167.384864 
L 150.564162 164.525479 
L 151.711261 163.65661 
L 152.85836 168.143965 
L 154.005459 166.646634 
L 155.152558 164.560265 
L 156.299657 168.129278 
L 157.446757 165.611566 
L 158.593856 166.115572 
L 159.740955 164.655346 
L 160.888054 167.375588 
L 162.035153 165.413674 
L 163.182252 169.540031 
L 165.47645 164.989288 
L 166.62355 169.543124 
L 167.770649 166.881631 
L 168.917748 169.829912 
L 170.064847 164.385564 
L 171.211946 165.600744 
L 172.359045 165.838833 
L 173.506144 164.721825 
L 174.653243 169.18058 
L 175.800343 169.270249 
L 176.947442 168.609321 
L 178.094541 166.480436 
L 179.24164 165.226604 
L 180.388739 165.528081 
L 181.535838 169.97524 
L 182.682937 169.546216 
L 183.830037 168.549026 
L 184.977136 170.261255 
L 186.124235 169.721691 
L 187.271334 168.440804 
L 188.418433 168.838907 
L 189.565532 171.161046 
L 190.712631 169.703911 
L 191.85973 167.472988 
L 193.00683 168.023375 
L 194.153929 169.448816 
L 195.301028 172.717899 
L 197.595226 170.566597 
L 198.742325 167.049375 
L 199.889424 169.976786 
L 201.036524 169.322042 
L 202.183623 169.598008 
L 203.330722 171.087609 
L 205.62492 167.519369 
L 206.772019 171.922466 
L 207.919118 168.730684 
L 209.066217 167.721899 
L 210.213317 170.761396 
L 211.360416 171.941791 
L 212.507515 167.950712 
L 213.654614 174.083818 
L 214.801713 170.06491 
L 215.948812 171.532094 
L 217.095911 170.48543 
L 218.243011 171.787189 
L 219.39011 172.353036 
L 220.537209 170.93146 
L 221.684308 174.760207 
L 222.831407 169.950503 
L 223.978506 173.637788 
L 225.125605 174.106235 
L 226.272704 170.674819 
L 227.419804 168.35268 
L 228.566903 174.592462 
L 229.714002 168.931669 
L 230.861101 168.939399 
L 232.0082 173.951632 
L 233.155299 171.540597 
L 234.302398 172.288103 
L 235.449497 173.937718 
L 236.596597 173.85114 
L 237.743696 174.736243 
L 238.890795 174.187402 
L 240.037894 171.39527 
L 241.184993 175.58656 
L 242.332092 172.622819 
L 243.479191 172.921976 
L 244.626291 175.421135 
L 245.77339 176.130764 
L 246.920489 177.987547 
L 248.067588 172.975314 
L 249.214687 171.545235 
L 250.361786 175.866392 
L 251.508885 169.860834 
L 252.655984 172.36695 
L 253.803084 176.072788 
L 256.097282 172.305109 
L 257.244381 175.82233 
L 258.39148 172.577984 
L 259.538579 172.719446 
L 260.685678 170.758305 
L 261.832778 172.705531 
L 262.979877 177.208347 
L 264.126976 176.299281 
L 265.274075 171.763998 
L 266.421174 175.034627 
L 267.568273 173.861963 
L 268.715372 173.578266 
L 269.862471 174.149525 
L 271.009571 174.198998 
L 272.15667 174.115512 
L 273.303769 173.675666 
L 274.450868 169.92654 
L 275.597967 180.26949 
L 276.745066 174.336594 
L 277.892165 170.732796 
L 279.039265 173.057254 
L 280.186364 176.198789 
L 280.186364 176.198789 
" clip-path="url(#p3af1205ff5)" style="fill: none; stroke: #1f77b4; stroke-width: 2; stroke-linecap: square"/>
   </g>
   <g id="line2d_12">
    <path d="M 51.913636 33.48 
L 53.060735 45.882827 
L 54.207835 56.233755 
L 56.502033 73.872735 
L 57.649132 82.004438 
L 59.94333 94.742998 
L 63.384628 110.677181 
L 65.678826 119.925796 
L 67.973024 126.707515 
L 69.120123 130.679289 
L 70.267222 133.666235 
L 71.414322 135.946989 
L 73.70852 142.345735 
L 74.855619 143.472846 
L 76.002718 145.55285 
L 78.296916 150.069841 
L 79.444016 151.555362 
L 80.591115 153.7539 
L 84.032412 158.812159 
L 85.179511 159.556241 
L 86.32661 161.614769 
L 87.473709 161.646494 
L 89.767908 164.54433 
L 90.915007 164.714647 
L 92.062106 166.177207 
L 94.356304 168.215133 
L 95.503403 169.199081 
L 96.650503 169.289836 
L 97.797602 170.170527 
L 98.944701 170.59407 
L 100.0918 171.246541 
L 101.238899 172.772726 
L 102.385998 172.007609 
L 103.533097 173.571795 
L 104.680196 173.837025 
L 105.827296 174.290551 
L 106.974395 175.494571 
L 108.121494 175.663699 
L 109.268593 175.416522 
L 110.415692 177.030831 
L 112.70989 177.17403 
L 113.856989 178.374084 
L 115.004089 177.873323 
L 116.151188 178.280846 
L 117.298287 178.862691 
L 118.445386 178.557323 
L 119.592485 177.70274 
L 120.739584 179.93692 
L 121.886683 179.80748 
L 123.033783 179.395195 
L 124.180882 179.709753 
L 126.47508 179.257034 
L 127.622179 179.626082 
L 128.769278 180.764285 
L 129.916377 180.706735 
L 131.063476 180.207612 
L 133.357675 181.03289 
L 134.504774 181.619914 
L 135.651873 181.109386 
L 136.798972 180.932816 
L 137.946071 182.079396 
L 139.09317 181.564249 
L 140.24027 181.846458 
L 141.387369 181.443012 
L 142.534468 182.374571 
L 143.681567 182.176772 
L 144.828666 182.290635 
L 145.975765 181.721995 
L 147.122864 181.778659 
L 148.269963 182.168739 
L 149.417063 182.960956 
L 150.564162 182.873152 
L 151.711261 181.812565 
L 152.85836 182.228206 
L 154.005459 182.772148 
L 155.152558 183.557589 
L 156.299657 182.144036 
L 157.446757 182.665749 
L 158.593856 182.436464 
L 159.740955 183.022281 
L 162.035153 182.211108 
L 163.182252 184.080848 
L 164.329351 182.81828 
L 165.47645 182.590602 
L 166.62355 182.684177 
L 167.770649 183.34795 
L 168.917748 183.408624 
L 170.064847 182.762102 
L 171.211946 182.853485 
L 172.359045 183.914761 
L 173.506144 183.366847 
L 174.653243 183.520338 
L 175.800343 182.386409 
L 178.094541 183.110677 
L 179.24164 182.580624 
L 180.388739 182.260572 
L 182.682937 183.821863 
L 183.830037 183.794295 
L 184.977136 183.173223 
L 186.124235 183.894904 
L 187.271334 183.857697 
L 188.418433 183.935493 
L 189.565532 184.569721 
L 191.85973 182.28203 
L 193.00683 182.805592 
L 194.153929 183.963659 
L 195.301028 183.497877 
L 196.448127 183.700313 
L 197.595226 182.712158 
L 199.889424 183.225353 
L 201.036524 183.004014 
L 202.183623 182.965427 
L 203.330722 183.332288 
L 204.477821 183.181704 
L 205.62492 182.566717 
L 206.772019 183.907506 
L 207.919118 183.740508 
L 210.213317 183.857395 
L 211.360416 183.388175 
L 212.507515 183.377361 
L 213.654614 183.008325 
L 214.801713 183.038548 
L 215.948812 183.492733 
L 217.095911 184.68 
L 218.243011 183.118721 
L 219.39011 183.449269 
L 221.684308 182.563311 
L 222.831407 182.447163 
L 223.978506 181.745929 
L 225.125605 182.536697 
L 226.272704 183.841806 
L 227.419804 183.284327 
L 228.566903 183.132967 
L 229.714002 182.554867 
L 230.861101 183.052504 
L 232.0082 182.85739 
L 233.155299 183.727321 
L 234.302398 183.492869 
L 235.449497 183.698238 
L 236.596597 183.650591 
L 237.743696 182.171968 
L 238.890795 183.020594 
L 240.037894 183.414851 
L 241.184993 182.568171 
L 243.479191 183.14956 
L 244.626291 182.719981 
L 245.77339 182.631689 
L 246.920489 182.803953 
L 248.067588 181.567217 
L 249.214687 182.919332 
L 250.361786 182.976008 
L 251.508885 182.618484 
L 252.655984 181.715731 
L 254.950183 182.036153 
L 256.097282 182.736979 
L 258.39148 182.152812 
L 259.538579 182.284371 
L 260.685678 183.21776 
L 261.832778 182.985198 
L 262.979877 182.349861 
L 264.126976 182.780691 
L 265.274075 182.506833 
L 266.421174 182.770787 
L 267.568273 182.650573 
L 268.715372 182.39157 
L 271.009571 182.611192 
L 272.15667 182.195175 
L 273.303769 183.36009 
L 274.450868 182.960488 
L 275.597967 183.197551 
L 276.745066 182.984594 
L 277.892165 183.063437 
L 279.039265 182.518664 
L 280.186364 182.367575 
L 280.186364 182.367575 
" clip-path="url(#p3af1205ff5)" style="fill: none; stroke: #ff7f0e; stroke-width: 2; stroke-linecap: square"/>
   </g>
   <g id="patch_3">
    <path d="M 40.5 192.24 
L 40.5 25.92 
" style="fill: none; stroke: #000000; stroke-width: 0.8; stroke-linejoin: miter; stroke-linecap: square"/>
   </g>
   <g id="patch_4">
    <path d="M 291.6 192.24 
L 291.6 25.92 
" style="fill: none; stroke: #000000; stroke-width: 0.8; stroke-linejoin: miter; stroke-linecap: square"/>
   </g>
   <g id="patch_5">
    <path d="M 40.5 192.24 
L 291.6 192.24 
" style="fill: none; stroke: #000000; stroke-width: 0.8; stroke-linejoin: miter; stroke-linecap: square"/>
   </g>
   <g id="patch_6">
    <path d="M 40.5 25.92 
L 291.6 25.92 
" style="fill: none; stroke: #000000; stroke-width: 0.8; stroke-linejoin: miter; stroke-linecap: square"/>
   </g>
   <g id="legend_1">
    <g id="patch_7">
     <path d="M 203.128125 63.27625 
L 284.6 63.27625 
Q 286.6 63.27625 286.6 61.27625 
L 286.6 32.92 
Q 286.6 30.92 284.6 30.92 
L 203.128125 30.92 
Q 201.128125 30.92 201.128125 32.92 
L 201.128125 61.27625 
Q 201.128125 63.27625 203.128125 63.27625 
z
" style="fill: #ffffff; opacity: 0.8; stroke: #cccccc; stroke-linejoin: miter"/>
    </g>
    <g id="line2d_13">
     <path d="M 205.128125 39.018437 
L 215.128125 39.018437 
L 225.128125 39.018437 
" style="fill: none; stroke: #1f77b4; stroke-width: 2; stroke-linecap: square"/>
    </g>
    <g id="text_11">
     <!-- ADM-15-1 -->
     <g transform="translate(233.128125 42.518437)scale(0.1 -0.1)">
      <defs>
       <path id="DejaVuSans-41" d="M 2188 4044 
L 1331 1722 
L 3047 1722 
L 2188 4044 
z
M 1831 4666 
L 2547 4666 
L 4325 0 
L 3669 0 
L 3244 1197 
L 1141 1197 
L 716 0 
L 50 0 
L 1831 4666 
z
" transform="scale(0.015625)"/>
       <path id="DejaVuSans-44" d="M 1259 4147 
L 1259 519 
L 2022 519 
Q 2988 519 3436 956 
Q 3884 1394 3884 2338 
Q 3884 3275 3436 3711 
Q 2988 4147 2022 4147 
L 1259 4147 
z
M 628 4666 
L 1925 4666 
Q 3281 4666 3915 4102 
Q 4550 3538 4550 2338 
Q 4550 1131 3912 565 
Q 3275 0 1925 0 
L 628 0 
L 628 4666 
z
" transform="scale(0.015625)"/>
       <path id="DejaVuSans-4d" d="M 628 4666 
L 1569 4666 
L 2759 1491 
L 3956 4666 
L 4897 4666 
L 4897 0 
L 4281 0 
L 4281 4097 
L 3078 897 
L 2444 897 
L 1241 4097 
L 1241 0 
L 628 0 
L 628 4666 
z
" transform="scale(0.015625)"/>
       <path id="DejaVuSans-2d" d="M 313 2009 
L 1997 2009 
L 1997 1497 
L 313 1497 
L 313 2009 
z
" transform="scale(0.015625)"/>
      </defs>
      <use xlink:href="#DejaVuSans-41"/>
      <use xlink:href="#DejaVuSans-44" x="68.408203"/>
      <use xlink:href="#DejaVuSans-4d" x="145.410156"/>
      <use xlink:href="#DejaVuSans-2d" x="231.689453"/>
      <use xlink:href="#DejaVuSans-31" x="267.773438"/>
      <use xlink:href="#DejaVuSans-35" x="331.396484"/>
      <use xlink:href="#DejaVuSans-2d" x="395.019531"/>
      <use xlink:href="#DejaVuSans-31" x="431.103516"/>
     </g>
    </g>
    <g id="line2d_14">
     <path d="M 205.128125 53.696562 
L 215.128125 53.696562 
L 225.128125 53.696562 
" style="fill: none; stroke: #ff7f0e; stroke-width: 2; stroke-linecap: square"/>
    </g>
    <g id="text_12">
     <!-- ADM-15-4 -->
     <g transform="translate(233.128125 57.196562)scale(0.1 -0.1)">
      <defs>
       <path id="DejaVuSans-34" d="M 2419 4116 
L 825 1625 
L 2419 1625 
L 2419 4116 
z
M 2253 4666 
L 3047 4666 
L 3047 1625 
L 3713 1625 
L 3713 1100 
L 3047 1100 
L 3047 0 
L 2419 0 
L 2419 1100 
L 313 1100 
L 313 1709 
L 2253 4666 
z
" transform="scale(0.015625)"/>
      </defs>
      <use xlink:href="#DejaVuSans-41"/>
      <use xlink:href="#DejaVuSans-44" x="68.408203"/>
      <use xlink:href="#DejaVuSans-4d" x="145.410156"/>
      <use xlink:href="#DejaVuSans-2d" x="231.689453"/>
      <use xlink:href="#DejaVuSans-31" x="267.773438"/>
      <use xlink:href="#DejaVuSans-35" x="331.396484"/>
      <use xlink:href="#DejaVuSans-2d" x="395.019531"/>
      <use xlink:href="#DejaVuSans-34" x="431.103516"/>
     </g>
    </g>
   </g>
  </g>
 </g>
 <defs>
  <clipPath id="p3af1205ff5">
   <rect x="40.5" y="25.92" width="251.1" height="166.32"/>
  </clipPath>
 </defs>
</svg>
