<?xml version="1.0" encoding="utf-8" standalone="no"?>
<!DOCTYPE svg PUBLIC "-//W3C//DTD SVG 1.1//EN"
  "http://www.w3.org/Graphics/SVG/1.1/DTD/svg11.dtd">
<svg xmlns:xlink="http://www.w3.org/1999/xlink" width="432pt" height="288pt" viewBox="0 0 432 288" xmlns="http://www.w3.org/2000/svg" version="1.1">
 <metadata>
  <rdf:RDF xmlns:dc="http://purl.org/dc/elements/1.1/" xmlns:cc="http://creativecommons.org/ns#" xmlns:rdf="http://www.w3.org/1999/02/22-rdf-syntax-ns#">
   <cc:Work>
    <dc:type rdf:resource="http://purl.org/dc/dcmitype/StillImage"/>
    <dc:date>2022-08-19T14:04:15.337364</dc:date>
    <dc:format>image/svg+xml</dc:format>
    <dc:creator>
     <cc:Agent>
      <dc:title>Matplotlib v3.5.1, https://matplotlib.org/</dc:title>
     </cc:Agent>
    </dc:creator>
   </cc:Work>
  </rdf:RDF>
 </metadata>
 <defs>
  <style type="text/css">*{stroke-linejoin: round; stroke-linecap: butt}</style>
 </defs>
 <g id="figure_1">
  <g id="patch_1">
   <path d="M 0 288 
L 432 288 
L 432 0 
L 0 0 
z
" style="fill: #ffffff"/>
  </g>
  <g id="axes_1">
   <g id="patch_2">
    <path d="M 54 256.32 
L 388.8 256.32 
L 388.8 34.56 
L 54 34.56 
z
" style="fill: #ffffff"/>
   </g>
   <g id="matplotlib.axis_1">
    <g id="xtick_1">
     <g id="line2d_1">
      <defs>
       <path id="ma4caca6738" d="M 0 0 
L 0 3.5 
" style="stroke: #000000; stroke-width: 0.8"/>
      </defs>
      <g>
       <use xlink:href="#ma4caca6738" x="120.030311" y="256.32" style="stroke: #000000; stroke-width: 0.8"/>
      </g>
     </g>
     <g id="text_1">
      <!-- −10 -->
      <g transform="translate(103.146561 275.4775)scale(0.16 -0.16)">
       <defs>
        <path id="DejaVuSans-2212" d="M 678 2272 
L 4684 2272 
L 4684 1741 
L 678 1741 
L 678 2272 
z
" transform="scale(0.015625)"/>
        <path id="DejaVuSans-31" d="M 794 531 
L 1825 531 
L 1825 4091 
L 703 3866 
L 703 4441 
L 1819 4666 
L 2450 4666 
L 2450 531 
L 3481 531 
L 3481 0 
L 794 0 
L 794 531 
z
" transform="scale(0.015625)"/>
        <path id="DejaVuSans-30" d="M 2034 4250 
Q 1547 4250 1301 3770 
Q 1056 3291 1056 2328 
Q 1056 1369 1301 889 
Q 1547 409 2034 409 
Q 2525 409 2770 889 
Q 3016 1369 3016 2328 
Q 3016 3291 2770 3770 
Q 2525 4250 2034 4250 
z
M 2034 4750 
Q 2819 4750 3233 4129 
Q 3647 3509 3647 2328 
Q 3647 1150 3233 529 
Q 2819 -91 2034 -91 
Q 1250 -91 836 529 
Q 422 1150 422 2328 
Q 422 3509 836 4129 
Q 1250 4750 2034 4750 
z
" transform="scale(0.015625)"/>
       </defs>
       <use xlink:href="#DejaVuSans-2212"/>
       <use xlink:href="#DejaVuSans-31" x="83.789062"/>
       <use xlink:href="#DejaVuSans-30" x="147.412109"/>
      </g>
     </g>
    </g>
    <g id="xtick_2">
     <g id="line2d_2">
      <g>
       <use xlink:href="#ma4caca6738" x="221.858226" y="256.32" style="stroke: #000000; stroke-width: 0.8"/>
      </g>
     </g>
     <g id="text_2">
      <!-- 0 -->
      <g transform="translate(216.768226 275.4775)scale(0.16 -0.16)">
       <use xlink:href="#DejaVuSans-30"/>
      </g>
     </g>
    </g>
    <g id="xtick_3">
     <g id="line2d_3">
      <g>
       <use xlink:href="#ma4caca6738" x="323.68614" y="256.32" style="stroke: #000000; stroke-width: 0.8"/>
      </g>
     </g>
     <g id="text_3">
      <!-- 10 -->
      <g transform="translate(313.50614 275.4775)scale(0.16 -0.16)">
       <use xlink:href="#DejaVuSans-31"/>
       <use xlink:href="#DejaVuSans-30" x="63.623047"/>
      </g>
     </g>
    </g>
   </g>
   <g id="matplotlib.axis_2">
    <g id="ytick_1">
     <g id="line2d_4">
      <defs>
       <path id="mc33edab6a6" d="M 0 0 
L -3.5 0 
" style="stroke: #000000; stroke-width: 0.8"/>
      </defs>
      <g>
       <use xlink:href="#mc33edab6a6" x="54" y="246.24" style="stroke: #000000; stroke-width: 0.8"/>
      </g>
     </g>
     <g id="text_4">
      <!-- 0.0 -->
      <g transform="translate(21.555 252.31875)scale(0.16 -0.16)">
       <defs>
        <path id="DejaVuSans-2e" d="M 684 794 
L 1344 794 
L 1344 0 
L 684 0 
L 684 794 
z
" transform="scale(0.015625)"/>
       </defs>
       <use xlink:href="#DejaVuSans-30"/>
       <use xlink:href="#DejaVuSans-2e" x="63.623047"/>
       <use xlink:href="#DejaVuSans-30" x="95.410156"/>
      </g>
     </g>
    </g>
    <g id="ytick_2">
     <g id="line2d_5">
      <g>
       <use xlink:href="#mc33edab6a6" x="54" y="205.92" style="stroke: #000000; stroke-width: 0.8"/>
      </g>
     </g>
     <g id="text_5">
      <!-- 0.2 -->
      <g transform="translate(21.555 211.99875)scale(0.16 -0.16)">
       <defs>
        <path id="DejaVuSans-32" d="M 1228 531 
L 3431 531 
L 3431 0 
L 469 0 
L 469 531 
Q 828 903 1448 1529 
Q 2069 2156 2228 2338 
Q 2531 2678 2651 2914 
Q 2772 3150 2772 3378 
Q 2772 3750 2511 3984 
Q 2250 4219 1831 4219 
Q 1534 4219 1204 4116 
Q 875 4013 500 3803 
L 500 4441 
Q 881 4594 1212 4672 
Q 1544 4750 1819 4750 
Q 2544 4750 2975 4387 
Q 3406 4025 3406 3419 
Q 3406 3131 3298 2873 
Q 3191 2616 2906 2266 
Q 2828 2175 2409 1742 
Q 1991 1309 1228 531 
z
" transform="scale(0.015625)"/>
       </defs>
       <use xlink:href="#DejaVuSans-30"/>
       <use xlink:href="#DejaVuSans-2e" x="63.623047"/>
       <use xlink:href="#DejaVuSans-32" x="95.410156"/>
      </g>
     </g>
    </g>
    <g id="ytick_3">
     <g id="line2d_6">
      <g>
       <use xlink:href="#mc33edab6a6" x="54" y="165.6" style="stroke: #000000; stroke-width: 0.8"/>
      </g>
     </g>
     <g id="text_6">
      <!-- 0.4 -->
      <g transform="translate(21.555 171.67875)scale(0.16 -0.16)">
       <defs>
        <path id="DejaVuSans-34" d="M 2419 4116 
L 825 1625 
L 2419 1625 
L 2419 4116 
z
M 2253 4666 
L 3047 4666 
L 3047 1625 
L 3713 1625 
L 3713 1100 
L 3047 1100 
L 3047 0 
L 2419 0 
L 2419 1100 
L 313 1100 
L 313 1709 
L 2253 4666 
z
" transform="scale(0.015625)"/>
       </defs>
       <use xlink:href="#DejaVuSans-30"/>
       <use xlink:href="#DejaVuSans-2e" x="63.623047"/>
       <use xlink:href="#DejaVuSans-34" x="95.410156"/>
      </g>
     </g>
    </g>
    <g id="ytick_4">
     <g id="line2d_7">
      <g>
       <use xlink:href="#mc33edab6a6" x="54" y="125.28" style="stroke: #000000; stroke-width: 0.8"/>
      </g>
     </g>
     <g id="text_7">
      <!-- 0.6 -->
      <g transform="translate(21.555 131.35875)scale(0.16 -0.16)">
       <defs>
        <path id="DejaVuSans-36" d="M 2113 2584 
Q 1688 2584 1439 2293 
Q 1191 2003 1191 1497 
Q 1191 994 1439 701 
Q 1688 409 2113 409 
Q 2538 409 2786 701 
Q 3034 994 3034 1497 
Q 3034 2003 2786 2293 
Q 2538 2584 2113 2584 
z
M 3366 4563 
L 3366 3988 
Q 3128 4100 2886 4159 
Q 2644 4219 2406 4219 
Q 1781 4219 1451 3797 
Q 1122 3375 1075 2522 
Q 1259 2794 1537 2939 
Q 1816 3084 2150 3084 
Q 2853 3084 3261 2657 
Q 3669 2231 3669 1497 
Q 3669 778 3244 343 
Q 2819 -91 2113 -91 
Q 1303 -91 875 529 
Q 447 1150 447 2328 
Q 447 3434 972 4092 
Q 1497 4750 2381 4750 
Q 2619 4750 2861 4703 
Q 3103 4656 3366 4563 
z
" transform="scale(0.015625)"/>
       </defs>
       <use xlink:href="#DejaVuSans-30"/>
       <use xlink:href="#DejaVuSans-2e" x="63.623047"/>
       <use xlink:href="#DejaVuSans-36" x="95.410156"/>
      </g>
     </g>
    </g>
    <g id="ytick_5">
     <g id="line2d_8">
      <g>
       <use xlink:href="#mc33edab6a6" x="54" y="84.96" style="stroke: #000000; stroke-width: 0.8"/>
      </g>
     </g>
     <g id="text_8">
      <!-- 0.8 -->
      <g transform="translate(21.555 91.03875)scale(0.16 -0.16)">
       <defs>
        <path id="DejaVuSans-38" d="M 2034 2216 
Q 1584 2216 1326 1975 
Q 1069 1734 1069 1313 
Q 1069 891 1326 650 
Q 1584 409 2034 409 
Q 2484 409 2743 651 
Q 3003 894 3003 1313 
Q 3003 1734 2745 1975 
Q 2488 2216 2034 2216 
z
M 1403 2484 
Q 997 2584 770 2862 
Q 544 3141 544 3541 
Q 544 4100 942 4425 
Q 1341 4750 2034 4750 
Q 2731 4750 3128 4425 
Q 3525 4100 3525 3541 
Q 3525 3141 3298 2862 
Q 3072 2584 2669 2484 
Q 3125 2378 3379 2068 
Q 3634 1759 3634 1313 
Q 3634 634 3220 271 
Q 2806 -91 2034 -91 
Q 1263 -91 848 271 
Q 434 634 434 1313 
Q 434 1759 690 2068 
Q 947 2378 1403 2484 
z
M 1172 3481 
Q 1172 3119 1398 2916 
Q 1625 2713 2034 2713 
Q 2441 2713 2670 2916 
Q 2900 3119 2900 3481 
Q 2900 3844 2670 4047 
Q 2441 4250 2034 4250 
Q 1625 4250 1398 4047 
Q 1172 3844 1172 3481 
z
" transform="scale(0.015625)"/>
       </defs>
       <use xlink:href="#DejaVuSans-30"/>
       <use xlink:href="#DejaVuSans-2e" x="63.623047"/>
       <use xlink:href="#DejaVuSans-38" x="95.410156"/>
      </g>
     </g>
    </g>
    <g id="ytick_6">
     <g id="line2d_9">
      <g>
       <use xlink:href="#mc33edab6a6" x="54" y="44.64" style="stroke: #000000; stroke-width: 0.8"/>
      </g>
     </g>
     <g id="text_9">
      <!-- 1.0 -->
      <g transform="translate(21.555 50.71875)scale(0.16 -0.16)">
       <use xlink:href="#DejaVuSans-31"/>
       <use xlink:href="#DejaVuSans-2e" x="63.623047"/>
       <use xlink:href="#DejaVuSans-30" x="95.410156"/>
      </g>
     </g>
    </g>
   </g>
   <g id="line2d_10">
    <path d="M 140.395894 230.446257 
L 140.803206 232.655877 
L 141.210517 231.04665 
L 141.617829 234.985439 
L 142.432452 229.381773 
L 142.839764 233.202787 
L 143.247076 235.545208 
L 143.654387 233.392201 
L 144.061699 236.78394 
L 144.469011 231.652829 
L 144.876322 233.564102 
L 145.283634 238.322224 
L 145.690946 237.891355 
L 146.098257 232.936837 
L 146.505569 232.294928 
L 146.912881 234.895002 
L 147.320192 231.860686 
L 147.727504 230.909747 
L 148.134816 231.311058 
L 148.949439 236.410743 
L 149.356751 232.885598 
L 149.764062 231.528856 
L 150.171374 230.888839 
L 150.578685 233.610612 
L 150.985997 235.125995 
L 151.393309 237.601971 
L 151.80062 234.508182 
L 152.207932 235.484639 
L 152.615244 233.592077 
L 153.022555 232.956663 
L 153.429867 231.317667 
L 153.837179 230.467752 
L 154.24449 239.500086 
L 154.651802 238.409392 
L 155.059114 230.806862 
L 155.466425 233.242979 
L 155.873737 234.529474 
L 156.68836 238.202686 
L 157.095672 231.63581 
L 157.502984 229.837495 
L 157.910295 232.810194 
L 158.317607 232.258583 
L 158.724919 232.264995 
L 159.13223 232.789325 
L 159.539542 233.595502 
L 159.946854 233.438028 
L 160.354165 228.62345 
L 160.761477 229.593368 
L 161.168789 227.480868 
L 161.5761 227.937135 
L 161.983412 229.789478 
L 162.390724 230.385021 
L 162.798035 232.112098 
L 163.205347 236.266444 
L 163.612659 235.581312 
L 164.01997 230.940412 
L 164.834594 232.305569 
L 165.241905 231.138575 
L 165.649217 231.016774 
L 166.056528 230.234351 
L 166.46384 229.999137 
L 166.871152 229.260129 
L 167.278463 226.626028 
L 167.685775 224.728889 
L 168.093087 225.690808 
L 168.500398 232.387166 
L 168.90771 231.947438 
L 169.315022 228.514415 
L 169.722333 232.183545 
L 170.129645 227.344002 
L 170.536957 228.680417 
L 170.944268 232.098248 
L 171.35158 231.735228 
L 171.758892 231.970555 
L 172.166203 233.902474 
L 172.573515 235.087777 
L 172.980827 230.838496 
L 173.388138 231.425624 
L 173.79545 231.484448 
L 174.202762 229.56915 
L 174.610073 229.489341 
L 175.017385 230.247164 
L 175.424697 230.103112 
L 175.832008 230.993791 
L 176.23932 228.588783 
L 176.646632 227.575153 
L 177.053943 227.624255 
L 177.461255 228.165954 
L 177.868567 227.61792 
L 178.275878 230.518394 
L 178.68319 228.179507 
L 179.090502 227.407748 
L 179.497813 230.418359 
L 179.905125 226.41843 
L 180.312437 224.785968 
L 180.719748 224.028471 
L 181.12706 221.710064 
L 181.534371 221.466181 
L 181.941683 221.445358 
L 182.348995 224.419933 
L 182.756306 221.380824 
L 183.163618 222.020594 
L 183.57093 226.470175 
L 183.978241 221.058489 
L 184.385553 219.901738 
L 184.792865 225.341894 
L 185.200176 222.702454 
L 185.607488 216.985745 
L 186.0148 217.585541 
L 186.422111 214.905841 
L 186.829423 215.35279 
L 187.236735 217.723033 
L 187.644046 210.682399 
L 188.45867 203.282671 
L 188.865981 198.059612 
L 189.273293 201.023804 
L 189.680605 205.223184 
L 190.087916 198.004399 
L 190.495228 185.912049 
L 190.90254 194.537055 
L 191.309851 197.354101 
L 192.124475 186.44838 
L 192.531786 175.664605 
L 192.939098 159.701384 
L 193.34641 163.900548 
L 193.753721 160.543506 
L 194.161033 150.136812 
L 194.568345 143.631898 
L 194.975656 146.90981 
L 195.79028 117.161081 
L 196.197591 112.809381 
L 196.604903 102.043432 
L 197.012214 96.224449 
L 197.419526 95.015911 
L 198.234149 67.696808 
L 198.641461 62.481927 
L 199.048773 61.750156 
L 199.456084 62.044505 
L 199.863396 58.671579 
L 200.270708 51.048213 
L 200.678019 47.407869 
L 201.085331 51.720551 
L 201.492643 50.118662 
L 201.899954 53.586658 
L 202.307266 70.265294 
L 202.714578 75.148916 
L 203.121889 81.541075 
L 203.529201 93.510006 
L 203.936513 97.010495 
L 204.343824 101.691007 
L 204.751136 108.526875 
L 205.158448 118.141941 
L 205.565759 120.610581 
L 205.973071 129.555772 
L 206.380383 134.115815 
L 207.602318 152.035684 
L 208.009629 152.191436 
L 208.416941 140.932766 
L 208.824253 145.326185 
L 209.231564 159.625206 
L 209.638876 163.369583 
L 210.046188 165.760344 
L 210.453499 157.042456 
L 210.860811 157.673699 
L 211.268123 164.710092 
L 211.675434 165.861644 
L 212.082746 165.587021 
L 212.490057 166.946123 
L 212.897369 170.861743 
L 213.711992 156.788852 
L 214.119304 149.835203 
L 214.526616 150.009904 
L 214.933927 148.681722 
L 215.341239 147.86664 
L 215.748551 146.138779 
L 216.155862 139.107902 
L 216.563174 136.233955 
L 216.970486 134.948269 
L 217.785109 111.277914 
L 218.599732 97.603986 
L 219.007044 84.956626 
L 219.414356 79.751761 
L 220.228979 58.753236 
L 220.636291 58.932397 
L 221.043602 49.518254 
L 221.450914 44.64 
L 222.265537 52.459469 
L 223.080161 46.726373 
L 223.894784 65.229257 
L 224.302096 68.176858 
L 224.709407 63.572951 
L 225.116719 74.262388 
L 225.931342 110.044672 
L 226.338654 118.656308 
L 226.745966 116.599856 
L 227.153277 121.683771 
L 227.560589 123.66663 
L 227.9679 134.027835 
L 228.375212 139.719279 
L 228.782524 143.69657 
L 229.189835 136.881842 
L 230.004459 150.43392 
L 230.41177 160.238863 
L 230.819082 160.750622 
L 231.226394 157.177993 
L 231.633705 160.618235 
L 232.041017 170.913297 
L 232.448329 171.01362 
L 232.85564 170.259441 
L 233.262952 169.933324 
L 233.670264 175.604807 
L 234.484887 169.215481 
L 234.892199 167.764158 
L 235.29951 167.903883 
L 235.706822 159.686894 
L 236.114134 155.512132 
L 236.521445 158.726502 
L 236.928757 159.245035 
L 237.336069 157.528527 
L 237.74338 143.482568 
L 238.150692 139.622116 
L 238.558004 139.91556 
L 239.779939 114.810558 
L 240.18725 113.367042 
L 240.594562 103.138656 
L 241.001874 101.531094 
L 242.223809 76.970804 
L 243.445743 56.089673 
L 243.853055 54.041402 
L 244.260367 48.063423 
L 244.667678 53.61931 
L 245.07499 64.396106 
L 245.889613 73.581366 
L 246.296925 82.255716 
L 247.111548 90.908886 
L 247.51886 104.678371 
L 247.926172 109.592408 
L 248.333483 117.173175 
L 248.740795 131.713245 
L 249.148107 136.875787 
L 249.555418 140.32106 
L 249.96273 142.660939 
L 250.370042 146.210298 
L 250.777353 151.764186 
L 251.184665 162.803244 
L 251.591977 169.826016 
L 251.999288 171.128149 
L 252.4066 179.228597 
L 252.813912 179.685919 
L 253.628535 188.866704 
L 254.443158 202.000527 
L 254.85047 204.601069 
L 255.257782 202.682089 
L 255.665093 203.130417 
L 256.072405 202.767448 
L 256.479717 204.46476 
L 256.887028 210.608804 
L 257.29434 214.954099 
L 257.701652 216.211405 
L 258.108963 212.34058 
L 258.516275 206.99036 
L 259.330898 222.313038 
L 259.73821 224.984331 
L 260.145521 220.830485 
L 260.552833 214.487556 
L 260.960145 220.351695 
L 261.367456 218.475167 
L 261.774768 218.742623 
L 263.404015 228.41964 
L 264.218638 231.010837 
L 264.62595 227.514251 
L 265.033261 229.205578 
L 265.440573 227.168728 
L 266.255196 229.438884 
L 266.662508 228.898408 
L 267.06982 230.945568 
L 267.477131 234.56056 
L 267.884443 233.766283 
L 268.291755 229.285197 
L 268.699066 229.032115 
L 269.106378 229.879134 
L 269.51369 231.278096 
L 270.328313 223.871607 
L 270.735625 233.544436 
L 271.550248 235.452354 
L 272.364871 230.497244 
L 272.772183 230.638201 
L 273.586806 226.753942 
L 273.994118 228.673276 
L 275.216053 238.274356 
L 275.623364 231.927633 
L 276.030676 237.319273 
L 276.437988 231.478461 
L 276.845299 228.099871 
L 277.659923 238.140213 
L 278.067234 236.431463 
L 278.474546 234.039005 
L 278.881858 229.121364 
L 279.289169 230.738616 
L 279.696481 226.781252 
L 280.103793 233.44477 
L 280.511104 232.710009 
L 280.918416 230.93314 
L 281.325728 233.18575 
L 281.733039 234.663026 
L 282.140351 232.18269 
L 282.547663 231.228915 
L 282.954974 231.791947 
L 283.362286 233.024286 
L 283.769598 233.613113 
L 284.176909 236.164187 
L 284.584221 235.009827 
L 284.991533 236.202505 
L 285.398844 236.276164 
L 285.806156 233.997558 
L 286.213468 234.930027 
L 286.620779 234.496285 
L 287.028091 234.4885 
L 287.435403 233.552459 
L 287.842714 230.730872 
L 288.250026 234.278641 
L 288.657338 233.436657 
L 289.064649 229.551576 
L 289.471961 233.051996 
L 289.879272 234.197693 
L 290.286584 236.466706 
L 290.693896 237.166475 
L 291.101207 236.831324 
L 291.508519 235.728921 
L 291.915831 236.693971 
L 292.323142 234.11459 
L 292.730454 234.61713 
L 293.545077 237.361215 
L 293.952389 237.859336 
L 295.174324 233.241174 
L 295.581636 234.979973 
L 295.988947 246.24 
L 296.396259 236.938731 
L 296.803571 236.837215 
L 297.210882 238.413042 
L 297.618194 233.811098 
L 298.025506 237.167222 
L 298.432817 238.428158 
L 298.840129 231.639221 
L 299.247441 230.76744 
L 299.654752 234.918852 
L 300.062064 232.382646 
L 300.469376 231.87267 
L 300.876687 232.660742 
L 301.283999 231.673413 
L 302.098622 241.40903 
L 302.505934 240.640406 
L 302.913246 241.016987 
L 303.320557 238.619594 
L 303.727869 237.400298 
L 304.135181 233.547604 
L 304.542492 233.93956 
L 304.949804 234.920085 
L 305.764427 234.740385 
L 306.171739 233.387296 
L 306.57905 236.346128 
L 306.986362 236.13857 
L 307.393674 234.670534 
L 307.800985 230.799175 
L 308.208297 235.847492 
L 308.615609 235.371467 
L 309.02292 236.623218 
L 309.430232 230.183694 
L 310.244855 237.328138 
L 310.652167 237.190749 
L 311.059479 236.060807 
L 311.46679 232.11146 
L 311.874102 231.898596 
L 312.281414 233.87161 
L 312.688725 233.225861 
L 313.096037 237.603325 
L 313.503349 234.737573 
L 313.91066 234.68064 
L 314.317972 229.515042 
L 314.725284 234.481901 
L 315.132595 237.489727 
L 315.947219 235.691314 
L 316.35453 238.340099 
L 316.761842 234.428504 
L 317.169154 234.328181 
L 317.576465 237.973717 
L 317.983777 234.692686 
L 318.391089 230.498647 
L 318.7984 235.362997 
L 319.205712 229.459878 
L 319.613024 232.23839 
L 320.020335 239.319695 
L 320.427647 237.248589 
L 320.834958 233.442163 
L 321.24227 237.5043 
L 321.649582 237.617604 
L 322.056893 230.920274 
L 322.464205 234.99948 
L 322.871517 233.235446 
L 323.278828 235.307756 
L 323.68614 238.172311 
L 324.093452 236.912213 
L 324.500763 237.847983 
L 324.908075 236.521936 
L 325.315387 231.315835 
L 326.13001 236.146186 
L 326.537322 237.988736 
L 326.944633 232.913568 
L 327.351945 230.097215 
L 327.759257 235.046148 
L 328.166568 229.337058 
L 328.57388 229.81588 
L 328.981192 233.239334 
L 329.388503 242.899441 
L 330.203127 237.602056 
L 330.610438 237.17848 
L 331.01775 234.074989 
L 331.425062 235.944234 
L 331.832373 234.58189 
L 332.646997 238.403216 
L 333.054308 236.312932 
L 333.46162 239.092384 
L 333.868932 236.288515 
L 334.276243 234.457459 
L 334.683555 236.732726 
L 335.090867 232.17367 
L 335.498178 236.617918 
L 335.90549 237.349954 
L 336.312801 237.711326 
L 336.720113 237.564415 
L 337.127425 238.060162 
L 337.534736 237.343437 
L 337.942048 237.802248 
L 338.34936 235.588224 
L 338.756671 235.161938 
L 339.163983 239.163546 
L 339.571295 236.796962 
L 339.978606 236.409717 
L 340.385918 238.141445 
L 340.79323 238.264177 
L 341.200541 240.769116 
L 342.015165 237.432912 
L 342.422476 235.734703 
L 342.829788 235.244053 
L 343.2371 235.186533 
L 343.644411 232.590444 
L 343.644411 232.590444 
" clip-path="url(#pf45c258429)" style="fill: none; stroke: #1f77b4; stroke-width: 1.5; stroke-linecap: square"/>
   </g>
   <g id="line2d_11">
    <path d="M 69.218182 243.107701 
L 70.643773 241.166486 
L 72.069363 241.547343 
L 72.782159 241.426054 
L 73.494954 242.354699 
L 74.20775 239.797594 
L 74.920545 236.1646 
L 75.63334 237.081283 
L 76.346136 242.478183 
L 77.058931 241.537646 
L 77.771727 242.077996 
L 78.484522 241.017593 
L 79.197317 240.381621 
L 79.910113 241.796187 
L 80.622908 242.582191 
L 81.335704 241.047943 
L 82.048499 240.153336 
L 82.761294 242.067325 
L 83.47409 243.337983 
L 84.186885 238.532449 
L 84.899681 235.920994 
L 85.612476 241.247736 
L 86.325271 245.162501 
L 87.038067 241.465801 
L 87.750862 236.317689 
L 88.463658 237.979662 
L 89.176453 241.52352 
L 89.889248 241.828812 
L 90.602044 243.265698 
L 91.314839 242.978538 
L 92.027635 240.461435 
L 92.74043 242.400203 
L 93.453225 241.908287 
L 94.878816 242.791954 
L 95.591612 237.814395 
L 96.304407 238.202873 
L 97.017202 240.037797 
L 97.729998 240.354286 
L 98.442793 238.189991 
L 99.155589 239.118759 
L 99.868384 240.275457 
L 100.581179 242.691144 
L 101.293975 242.048293 
L 102.00677 244.837932 
L 102.719566 242.871671 
L 103.432361 242.12888 
L 104.145156 242.944355 
L 104.857952 241.954407 
L 105.570747 241.487715 
L 106.283543 242.738374 
L 106.996338 242.241258 
L 107.709133 240.251842 
L 108.421929 241.491744 
L 109.134724 244.507533 
L 110.560315 240.525553 
L 111.27311 239.349972 
L 112.698701 241.061114 
L 113.411497 243.7024 
L 114.124292 240.883563 
L 115.549883 237.512409 
L 116.975474 244.069367 
L 117.688269 241.51981 
L 118.401065 241.40117 
L 119.11386 239.082483 
L 119.826655 240.235914 
L 120.539451 242.741256 
L 121.252246 241.91059 
L 121.965042 239.148924 
L 122.677837 243.142653 
L 123.390632 241.983462 
L 124.103428 241.58392 
L 124.816223 239.161156 
L 125.529019 243.285634 
L 126.241814 239.63358 
L 126.954609 240.173788 
L 127.667405 241.145576 
L 128.3802 242.677428 
L 129.092996 239.994987 
L 129.805791 238.189661 
L 130.518586 237.191164 
L 131.231382 239.845161 
L 131.944177 239.38618 
L 133.369768 236.566707 
L 134.082563 239.048498 
L 134.795359 240.913199 
L 135.508154 237.764594 
L 136.22095 241.586252 
L 136.933745 238.820011 
L 137.64654 238.960847 
L 138.359336 238.714362 
L 139.072131 240.22315 
L 139.784927 239.075121 
L 140.497722 239.362299 
L 141.210517 238.085125 
L 141.923313 235.552694 
L 143.348904 235.519829 
L 144.061699 238.984031 
L 144.774494 236.070759 
L 145.48729 235.738998 
L 146.200085 236.052172 
L 146.912881 236.553536 
L 147.625676 237.590138 
L 148.338471 236.506573 
L 149.051267 236.767742 
L 149.764062 235.344918 
L 150.476858 232.630695 
L 151.189653 233.092155 
L 151.902448 232.620465 
L 152.615244 232.907154 
L 153.328039 233.457533 
L 154.040835 232.732004 
L 154.75363 233.817253 
L 155.466425 235.750318 
L 156.179221 233.421239 
L 156.892016 230.62756 
L 158.317607 232.45911 
L 159.743198 229.054808 
L 160.455993 230.225041 
L 161.168789 227.847628 
L 161.881584 220.37841 
L 162.594379 221.443481 
L 163.307175 223.318238 
L 164.01997 222.702715 
L 164.732766 226.085712 
L 165.445561 221.182762 
L 166.158356 218.984874 
L 166.871152 220.020663 
L 167.583947 218.723518 
L 168.296743 218.891371 
L 169.009538 212.908004 
L 169.722333 214.274774 
L 170.435129 211.683999 
L 171.147924 205.701896 
L 171.86072 207.788053 
L 172.573515 205.764241 
L 173.28631 202.239522 
L 173.999106 196.710764 
L 174.711901 199.334154 
L 175.424697 197.20281 
L 176.137492 191.197488 
L 176.850287 187.436838 
L 177.563083 184.679925 
L 178.275878 184.611721 
L 178.988674 179.437311 
L 180.414264 175.186514 
L 181.12706 170.083039 
L 181.839855 162.693976 
L 182.552651 162.384322 
L 183.265446 157.631674 
L 183.978241 157.911079 
L 184.691037 157.468734 
L 185.403832 149.700268 
L 186.116628 146.65653 
L 186.829423 140.193636 
L 187.542218 136.295239 
L 188.255014 130.779375 
L 188.967809 126.623261 
L 189.680605 119.620224 
L 190.3934 107.629917 
L 191.106195 108.872806 
L 191.818991 108.91669 
L 192.531786 102.314666 
L 193.244582 98.134195 
L 193.957377 96.920806 
L 194.670172 97.182071 
L 195.382968 91.983127 
L 196.095763 85.828188 
L 196.808559 87.699366 
L 197.521354 84.618125 
L 198.234149 79.295869 
L 198.946945 80.168372 
L 199.65974 77.515612 
L 200.372536 71.900512 
L 201.085331 72.630977 
L 201.798126 75.43519 
L 202.510922 70.820082 
L 203.223717 73.518165 
L 203.936513 70.16908 
L 204.649308 70.443757 
L 205.362103 67.137581 
L 206.074899 69.000894 
L 206.787694 70.001841 
L 207.50049 66.655152 
L 208.213285 64.871791 
L 208.92608 59.616049 
L 209.638876 59.467121 
L 210.351671 61.232353 
L 211.064467 59.36775 
L 211.777262 58.285039 
L 212.490057 61.187746 
L 213.202853 59.996594 
L 213.915648 61.579955 
L 214.628444 56.9711 
L 215.341239 50.295751 
L 216.054034 49.698621 
L 216.76683 49.838783 
L 217.479625 49.132542 
L 218.192421 47.993644 
L 218.905216 46.106686 
L 219.618011 44.64 
L 220.330807 46.304903 
L 221.043602 47.439789 
L 221.756398 44.916103 
L 222.469193 47.971951 
L 223.181989 45.035409 
L 223.894784 46.108866 
L 224.607579 49.529505 
L 225.320375 51.917087 
L 226.03317 53.795607 
L 226.745966 50.777382 
L 227.458761 51.274485 
L 228.171556 55.397624 
L 228.884352 53.953488 
L 229.597147 51.740962 
L 230.309943 51.8485 
L 231.735533 51.820418 
L 232.448329 53.370263 
L 233.161124 52.370018 
L 233.87392 58.778365 
L 234.586715 56.471817 
L 235.29951 56.419262 
L 236.012306 54.564784 
L 236.725101 56.234829 
L 237.437897 55.859046 
L 238.150692 61.446412 
L 238.863487 63.416503 
L 239.576283 60.574264 
L 240.289078 61.20791 
L 241.001874 65.467665 
L 241.714669 68.916146 
L 242.427464 71.476364 
L 243.14026 70.959046 
L 243.853055 73.204757 
L 245.278646 89.955221 
L 245.991441 94.386322 
L 247.417032 101.278966 
L 248.129828 108.08048 
L 248.842623 108.922145 
L 249.555418 119.303225 
L 250.268214 118.81578 
L 250.981009 122.147126 
L 252.4066 134.081031 
L 253.119395 137.452696 
L 254.544986 152.533898 
L 255.257782 151.70737 
L 255.970577 155.834054 
L 256.683372 161.773904 
L 257.396168 162.409023 
L 258.108963 169.981808 
L 258.821759 172.064173 
L 260.960145 180.874883 
L 261.67294 187.120725 
L 262.385736 187.55469 
L 263.098531 189.570433 
L 264.524122 196.239953 
L 265.236917 199.952311 
L 265.949713 205.369304 
L 266.662508 205.126785 
L 267.375303 203.247438 
L 268.088099 203.844739 
L 268.800894 198.358348 
L 270.226485 205.039842 
L 270.93928 211.845697 
L 271.652076 214.842446 
L 272.364871 216.143529 
L 273.077667 218.387575 
L 273.790462 219.840689 
L 274.503257 217.419975 
L 275.216053 212.188537 
L 275.928848 214.239149 
L 276.641644 218.156768 
L 277.354439 218.216974 
L 278.067234 220.458222 
L 278.78003 219.161625 
L 279.492825 220.311 
L 280.205621 221.783246 
L 280.918416 224.192116 
L 281.631211 226.098543 
L 282.344007 226.680488 
L 283.056802 222.35302 
L 283.769598 223.115534 
L 284.482393 221.95595 
L 285.195188 223.256273 
L 285.907984 227.977829 
L 287.333575 230.775315 
L 288.04637 226.032458 
L 288.759165 225.820792 
L 289.471961 227.900055 
L 290.184756 231.33173 
L 290.897552 228.204059 
L 291.610347 227.086964 
L 292.323142 230.166522 
L 293.035938 235.656161 
L 293.748733 234.996368 
L 294.461529 232.836697 
L 295.174324 234.171297 
L 295.887119 231.807039 
L 296.599915 231.936886 
L 297.31271 229.99266 
L 298.025506 232.90642 
L 298.738301 231.782392 
L 299.451096 233.398574 
L 300.163892 237.237444 
L 300.876687 235.245772 
L 301.589483 234.908637 
L 302.302278 236.883768 
L 303.015073 236.32878 
L 303.727869 236.783081 
L 304.440664 237.021149 
L 305.15346 236.262553 
L 305.866255 235.097312 
L 306.57905 234.629674 
L 307.291846 235.983724 
L 308.004641 233.989806 
L 309.430232 236.676284 
L 310.143027 240.183549 
L 310.855823 237.847328 
L 311.568618 238.522173 
L 312.281414 235.123402 
L 312.994209 239.054026 
L 313.707004 240.870951 
L 314.4198 237.198485 
L 315.132595 235.48565 
L 315.845391 238.245925 
L 316.558186 238.616198 
L 317.270981 238.718175 
L 317.983777 239.148685 
L 318.696572 240.908741 
L 319.409368 239.464373 
L 320.122163 237.018777 
L 320.834958 239.278254 
L 322.260549 241.872728 
L 322.973345 240.278983 
L 323.68614 242.26281 
L 324.398935 239.76363 
L 325.111731 244.781037 
L 325.824526 240.748087 
L 326.537322 241.745927 
L 327.250117 242.401214 
L 327.962912 239.105277 
L 328.675708 241.540728 
L 329.388503 242.581403 
L 330.101299 236.802637 
L 330.814094 240.347111 
L 331.52689 239.394076 
L 332.239685 239.605308 
L 332.95248 240.416171 
L 333.665276 240.865928 
L 334.378071 241.848909 
L 335.090867 243.784558 
L 335.803662 244.656206 
L 336.516457 239.663631 
L 337.229253 237.477946 
L 337.942048 239.318603 
L 338.654844 238.967125 
L 339.367639 237.169066 
L 340.080434 239.071207 
L 340.79323 243.614471 
L 341.506025 242.450445 
L 342.218821 240.795238 
L 342.931616 240.09773 
L 343.644411 241.650276 
L 344.357207 243.613735 
L 345.070002 241.060085 
L 345.782798 239.447374 
L 346.495593 240.062193 
L 347.208388 241.584808 
L 347.921184 239.273067 
L 348.633979 240.545527 
L 350.05957 240.830369 
L 350.772365 238.863247 
L 351.485161 240.714671 
L 352.197956 241.730783 
L 352.910752 240.065447 
L 353.623547 240.822815 
L 354.336342 239.507877 
L 355.049138 241.670648 
L 355.761933 243.067489 
L 356.474729 238.240024 
L 357.900319 243.929051 
L 358.613115 240.757428 
L 359.32591 240.027026 
L 360.038706 243.289958 
L 360.751501 243.119928 
L 361.464296 242.284847 
L 362.177092 239.525642 
L 362.889887 242.019987 
L 363.602683 242.432865 
L 364.315478 241.957766 
L 365.028273 240.432314 
L 365.741069 239.300005 
L 366.453864 241.156945 
L 367.16666 241.558716 
L 367.879455 240.704524 
L 368.59225 241.21585 
L 369.305046 242.516107 
L 370.017841 242.63303 
L 370.730637 241.589925 
L 371.443432 241.497918 
L 372.156227 239.021186 
L 372.869023 239.870199 
L 373.581818 239.869521 
L 373.581818 239.869521 
" clip-path="url(#pf45c258429)" style="fill: none; stroke: #ff7f0e; stroke-width: 1.5; stroke-linecap: square"/>
   </g>
   <g id="patch_3">
    <path d="M 54 256.32 
L 54 34.56 
" style="fill: none; stroke: #000000; stroke-width: 0.8; stroke-linejoin: miter; stroke-linecap: square"/>
   </g>
   <g id="patch_4">
    <path d="M 388.8 256.32 
L 388.8 34.56 
" style="fill: none; stroke: #000000; stroke-width: 0.8; stroke-linejoin: miter; stroke-linecap: square"/>
   </g>
   <g id="patch_5">
    <path d="M 54 256.32 
L 388.8 256.32 
" style="fill: none; stroke: #000000; stroke-width: 0.8; stroke-linejoin: miter; stroke-linecap: square"/>
   </g>
   <g id="patch_6">
    <path d="M 54 34.56 
L 388.8 34.56 
" style="fill: none; stroke: #000000; stroke-width: 0.8; stroke-linejoin: miter; stroke-linecap: square"/>
   </g>
   <g id="legend_1">
    <g id="patch_7">
     <path d="M 303.414062 71.91625 
L 381.8 71.91625 
Q 383.8 71.91625 383.8 69.91625 
L 383.8 41.56 
Q 383.8 39.56 381.8 39.56 
L 303.414062 39.56 
Q 301.414062 39.56 301.414062 41.56 
L 301.414062 69.91625 
Q 301.414062 71.91625 303.414062 71.91625 
z
" style="fill: #ffffff; opacity: 0.8; stroke: #cccccc; stroke-linejoin: miter"/>
    </g>
    <g id="line2d_12">
     <path d="M 305.414062 47.658437 
L 315.414062 47.658437 
L 325.414062 47.658437 
" style="fill: none; stroke: #1f77b4; stroke-width: 1.5; stroke-linecap: square"/>
    </g>
    <g id="text_10">
     <!-- CVD-pink -->
     <g transform="translate(333.414062 51.158437)scale(0.1 -0.1)">
      <defs>
       <path id="DejaVuSans-43" d="M 4122 4306 
L 4122 3641 
Q 3803 3938 3442 4084 
Q 3081 4231 2675 4231 
Q 1875 4231 1450 3742 
Q 1025 3253 1025 2328 
Q 1025 1406 1450 917 
Q 1875 428 2675 428 
Q 3081 428 3442 575 
Q 3803 722 4122 1019 
L 4122 359 
Q 3791 134 3420 21 
Q 3050 -91 2638 -91 
Q 1578 -91 968 557 
Q 359 1206 359 2328 
Q 359 3453 968 4101 
Q 1578 4750 2638 4750 
Q 3056 4750 3426 4639 
Q 3797 4528 4122 4306 
z
" transform="scale(0.015625)"/>
       <path id="DejaVuSans-56" d="M 1831 0 
L 50 4666 
L 709 4666 
L 2188 738 
L 3669 4666 
L 4325 4666 
L 2547 0 
L 1831 0 
z
" transform="scale(0.015625)"/>
       <path id="DejaVuSans-44" d="M 1259 4147 
L 1259 519 
L 2022 519 
Q 2988 519 3436 956 
Q 3884 1394 3884 2338 
Q 3884 3275 3436 3711 
Q 2988 4147 2022 4147 
L 1259 4147 
z
M 628 4666 
L 1925 4666 
Q 3281 4666 3915 4102 
Q 4550 3538 4550 2338 
Q 4550 1131 3912 565 
Q 3275 0 1925 0 
L 628 0 
L 628 4666 
z
" transform="scale(0.015625)"/>
       <path id="DejaVuSans-2d" d="M 313 2009 
L 1997 2009 
L 1997 1497 
L 313 1497 
L 313 2009 
z
" transform="scale(0.015625)"/>
       <path id="DejaVuSans-70" d="M 1159 525 
L 1159 -1331 
L 581 -1331 
L 581 3500 
L 1159 3500 
L 1159 2969 
Q 1341 3281 1617 3432 
Q 1894 3584 2278 3584 
Q 2916 3584 3314 3078 
Q 3713 2572 3713 1747 
Q 3713 922 3314 415 
Q 2916 -91 2278 -91 
Q 1894 -91 1617 61 
Q 1341 213 1159 525 
z
M 3116 1747 
Q 3116 2381 2855 2742 
Q 2594 3103 2138 3103 
Q 1681 3103 1420 2742 
Q 1159 2381 1159 1747 
Q 1159 1113 1420 752 
Q 1681 391 2138 391 
Q 2594 391 2855 752 
Q 3116 1113 3116 1747 
z
" transform="scale(0.015625)"/>
       <path id="DejaVuSans-69" d="M 603 3500 
L 1178 3500 
L 1178 0 
L 603 0 
L 603 3500 
z
M 603 4863 
L 1178 4863 
L 1178 4134 
L 603 4134 
L 603 4863 
z
" transform="scale(0.015625)"/>
       <path id="DejaVuSans-6e" d="M 3513 2113 
L 3513 0 
L 2938 0 
L 2938 2094 
Q 2938 2591 2744 2837 
Q 2550 3084 2163 3084 
Q 1697 3084 1428 2787 
Q 1159 2491 1159 1978 
L 1159 0 
L 581 0 
L 581 3500 
L 1159 3500 
L 1159 2956 
Q 1366 3272 1645 3428 
Q 1925 3584 2291 3584 
Q 2894 3584 3203 3211 
Q 3513 2838 3513 2113 
z
" transform="scale(0.015625)"/>
       <path id="DejaVuSans-6b" d="M 581 4863 
L 1159 4863 
L 1159 1991 
L 2875 3500 
L 3609 3500 
L 1753 1863 
L 3688 0 
L 2938 0 
L 1159 1709 
L 1159 0 
L 581 0 
L 581 4863 
z
" transform="scale(0.015625)"/>
      </defs>
      <use xlink:href="#DejaVuSans-43"/>
      <use xlink:href="#DejaVuSans-56" x="69.824219"/>
      <use xlink:href="#DejaVuSans-44" x="138.232422"/>
      <use xlink:href="#DejaVuSans-2d" x="215.234375"/>
      <use xlink:href="#DejaVuSans-70" x="251.318359"/>
      <use xlink:href="#DejaVuSans-69" x="314.794922"/>
      <use xlink:href="#DejaVuSans-6e" x="342.578125"/>
      <use xlink:href="#DejaVuSans-6b" x="405.957031"/>
     </g>
    </g>
    <g id="line2d_13">
     <path d="M 305.414062 62.336562 
L 315.414062 62.336562 
L 325.414062 62.336562 
" style="fill: none; stroke: #ff7f0e; stroke-width: 1.5; stroke-linecap: square"/>
    </g>
    <g id="text_11">
     <!-- Sumi-2 -->
     <g transform="translate(333.414062 65.836562)scale(0.1 -0.1)">
      <defs>
       <path id="DejaVuSans-53" d="M 3425 4513 
L 3425 3897 
Q 3066 4069 2747 4153 
Q 2428 4238 2131 4238 
Q 1616 4238 1336 4038 
Q 1056 3838 1056 3469 
Q 1056 3159 1242 3001 
Q 1428 2844 1947 2747 
L 2328 2669 
Q 3034 2534 3370 2195 
Q 3706 1856 3706 1288 
Q 3706 609 3251 259 
Q 2797 -91 1919 -91 
Q 1588 -91 1214 -16 
Q 841 59 441 206 
L 441 856 
Q 825 641 1194 531 
Q 1563 422 1919 422 
Q 2459 422 2753 634 
Q 3047 847 3047 1241 
Q 3047 1584 2836 1778 
Q 2625 1972 2144 2069 
L 1759 2144 
Q 1053 2284 737 2584 
Q 422 2884 422 3419 
Q 422 4038 858 4394 
Q 1294 4750 2059 4750 
Q 2388 4750 2728 4690 
Q 3069 4631 3425 4513 
z
" transform="scale(0.015625)"/>
       <path id="DejaVuSans-75" d="M 544 1381 
L 544 3500 
L 1119 3500 
L 1119 1403 
Q 1119 906 1312 657 
Q 1506 409 1894 409 
Q 2359 409 2629 706 
Q 2900 1003 2900 1516 
L 2900 3500 
L 3475 3500 
L 3475 0 
L 2900 0 
L 2900 538 
Q 2691 219 2414 64 
Q 2138 -91 1772 -91 
Q 1169 -91 856 284 
Q 544 659 544 1381 
z
M 1991 3584 
L 1991 3584 
z
" transform="scale(0.015625)"/>
       <path id="DejaVuSans-6d" d="M 3328 2828 
Q 3544 3216 3844 3400 
Q 4144 3584 4550 3584 
Q 5097 3584 5394 3201 
Q 5691 2819 5691 2113 
L 5691 0 
L 5113 0 
L 5113 2094 
Q 5113 2597 4934 2840 
Q 4756 3084 4391 3084 
Q 3944 3084 3684 2787 
Q 3425 2491 3425 1978 
L 3425 0 
L 2847 0 
L 2847 2094 
Q 2847 2600 2669 2842 
Q 2491 3084 2119 3084 
Q 1678 3084 1418 2786 
Q 1159 2488 1159 1978 
L 1159 0 
L 581 0 
L 581 3500 
L 1159 3500 
L 1159 2956 
Q 1356 3278 1631 3431 
Q 1906 3584 2284 3584 
Q 2666 3584 2933 3390 
Q 3200 3197 3328 2828 
z
" transform="scale(0.015625)"/>
      </defs>
      <use xlink:href="#DejaVuSans-53"/>
      <use xlink:href="#DejaVuSans-75" x="63.476562"/>
      <use xlink:href="#DejaVuSans-6d" x="126.855469"/>
      <use xlink:href="#DejaVuSans-69" x="224.267578"/>
      <use xlink:href="#DejaVuSans-2d" x="252.050781"/>
      <use xlink:href="#DejaVuSans-32" x="288.134766"/>
     </g>
    </g>
   </g>
  </g>
 </g>
 <defs>
  <clipPath id="pf45c258429">
   <rect x="54" y="34.56" width="334.8" height="221.76"/>
  </clipPath>
 </defs>
</svg>
