<?xml version="1.0" encoding="utf-8" standalone="no"?>
<!DOCTYPE svg PUBLIC "-//W3C//DTD SVG 1.1//EN"
  "http://www.w3.org/Graphics/SVG/1.1/DTD/svg11.dtd">
<svg xmlns:xlink="http://www.w3.org/1999/xlink" width="432pt" height="288pt" viewBox="0 0 432 288" xmlns="http://www.w3.org/2000/svg" version="1.1">
 <metadata>
  <rdf:RDF xmlns:dc="http://purl.org/dc/elements/1.1/" xmlns:cc="http://creativecommons.org/ns#" xmlns:rdf="http://www.w3.org/1999/02/22-rdf-syntax-ns#">
   <cc:Work>
    <dc:type rdf:resource="http://purl.org/dc/dcmitype/StillImage"/>
    <dc:date>2022-08-13T22:37:34.984141</dc:date>
    <dc:format>image/svg+xml</dc:format>
    <dc:creator>
     <cc:Agent>
      <dc:title>Matplotlib v3.5.1, https://matplotlib.org/</dc:title>
     </cc:Agent>
    </dc:creator>
   </cc:Work>
  </rdf:RDF>
 </metadata>
 <defs>
  <style type="text/css">*{stroke-linejoin: round; stroke-linecap: butt}</style>
 </defs>
 <g id="figure_1">
  <g id="patch_1">
   <path d="M 0 288 
L 432 288 
L 432 0 
L 0 0 
z
" style="fill: #ffffff"/>
  </g>
  <g id="axes_1">
   <g id="patch_2">
    <path d="M 54 256.32 
L 388.8 256.32 
L 388.8 34.56 
L 54 34.56 
z
" style="fill: #ffffff"/>
   </g>
   <g id="matplotlib.axis_1">
    <g id="xtick_1">
     <g id="line2d_1">
      <defs>
       <path id="ma39f8bac02" d="M 0 0 
L 0 3.5 
" style="stroke: #000000; stroke-width: 0.8"/>
      </defs>
      <g>
       <use xlink:href="#ma39f8bac02" x="69.218182" y="256.32" style="stroke: #000000; stroke-width: 0.8"/>
      </g>
     </g>
     <g id="text_1">
      <!-- 2850 -->
      <g transform="translate(50.130682 274.717656)scale(0.15 -0.15)">
       <defs>
        <path id="DejaVuSans-32" d="M 1228 531 
L 3431 531 
L 3431 0 
L 469 0 
L 469 531 
Q 828 903 1448 1529 
Q 2069 2156 2228 2338 
Q 2531 2678 2651 2914 
Q 2772 3150 2772 3378 
Q 2772 3750 2511 3984 
Q 2250 4219 1831 4219 
Q 1534 4219 1204 4116 
Q 875 4013 500 3803 
L 500 4441 
Q 881 4594 1212 4672 
Q 1544 4750 1819 4750 
Q 2544 4750 2975 4387 
Q 3406 4025 3406 3419 
Q 3406 3131 3298 2873 
Q 3191 2616 2906 2266 
Q 2828 2175 2409 1742 
Q 1991 1309 1228 531 
z
" transform="scale(0.015625)"/>
        <path id="DejaVuSans-38" d="M 2034 2216 
Q 1584 2216 1326 1975 
Q 1069 1734 1069 1313 
Q 1069 891 1326 650 
Q 1584 409 2034 409 
Q 2484 409 2743 651 
Q 3003 894 3003 1313 
Q 3003 1734 2745 1975 
Q 2488 2216 2034 2216 
z
M 1403 2484 
Q 997 2584 770 2862 
Q 544 3141 544 3541 
Q 544 4100 942 4425 
Q 1341 4750 2034 4750 
Q 2731 4750 3128 4425 
Q 3525 4100 3525 3541 
Q 3525 3141 3298 2862 
Q 3072 2584 2669 2484 
Q 3125 2378 3379 2068 
Q 3634 1759 3634 1313 
Q 3634 634 3220 271 
Q 2806 -91 2034 -91 
Q 1263 -91 848 271 
Q 434 634 434 1313 
Q 434 1759 690 2068 
Q 947 2378 1403 2484 
z
M 1172 3481 
Q 1172 3119 1398 2916 
Q 1625 2713 2034 2713 
Q 2441 2713 2670 2916 
Q 2900 3119 2900 3481 
Q 2900 3844 2670 4047 
Q 2441 4250 2034 4250 
Q 1625 4250 1398 4047 
Q 1172 3844 1172 3481 
z
" transform="scale(0.015625)"/>
        <path id="DejaVuSans-35" d="M 691 4666 
L 3169 4666 
L 3169 4134 
L 1269 4134 
L 1269 2991 
Q 1406 3038 1543 3061 
Q 1681 3084 1819 3084 
Q 2600 3084 3056 2656 
Q 3513 2228 3513 1497 
Q 3513 744 3044 326 
Q 2575 -91 1722 -91 
Q 1428 -91 1123 -41 
Q 819 9 494 109 
L 494 744 
Q 775 591 1075 516 
Q 1375 441 1709 441 
Q 2250 441 2565 725 
Q 2881 1009 2881 1497 
Q 2881 1984 2565 2268 
Q 2250 2553 1709 2553 
Q 1456 2553 1204 2497 
Q 953 2441 691 2322 
L 691 4666 
z
" transform="scale(0.015625)"/>
        <path id="DejaVuSans-30" d="M 2034 4250 
Q 1547 4250 1301 3770 
Q 1056 3291 1056 2328 
Q 1056 1369 1301 889 
Q 1547 409 2034 409 
Q 2525 409 2770 889 
Q 3016 1369 3016 2328 
Q 3016 3291 2770 3770 
Q 2525 4250 2034 4250 
z
M 2034 4750 
Q 2819 4750 3233 4129 
Q 3647 3509 3647 2328 
Q 3647 1150 3233 529 
Q 2819 -91 2034 -91 
Q 1250 -91 836 529 
Q 422 1150 422 2328 
Q 422 3509 836 4129 
Q 1250 4750 2034 4750 
z
" transform="scale(0.015625)"/>
       </defs>
       <use xlink:href="#DejaVuSans-32"/>
       <use xlink:href="#DejaVuSans-38" x="63.623047"/>
       <use xlink:href="#DejaVuSans-35" x="127.246094"/>
       <use xlink:href="#DejaVuSans-30" x="190.869141"/>
      </g>
     </g>
    </g>
    <g id="xtick_2">
     <g id="line2d_2">
      <g>
       <use xlink:href="#ma39f8bac02" x="145.309091" y="256.32" style="stroke: #000000; stroke-width: 0.8"/>
      </g>
     </g>
     <g id="text_2">
      <!-- 2860 -->
      <g transform="translate(126.221591 274.717656)scale(0.15 -0.15)">
       <defs>
        <path id="DejaVuSans-36" d="M 2113 2584 
Q 1688 2584 1439 2293 
Q 1191 2003 1191 1497 
Q 1191 994 1439 701 
Q 1688 409 2113 409 
Q 2538 409 2786 701 
Q 3034 994 3034 1497 
Q 3034 2003 2786 2293 
Q 2538 2584 2113 2584 
z
M 3366 4563 
L 3366 3988 
Q 3128 4100 2886 4159 
Q 2644 4219 2406 4219 
Q 1781 4219 1451 3797 
Q 1122 3375 1075 2522 
Q 1259 2794 1537 2939 
Q 1816 3084 2150 3084 
Q 2853 3084 3261 2657 
Q 3669 2231 3669 1497 
Q 3669 778 3244 343 
Q 2819 -91 2113 -91 
Q 1303 -91 875 529 
Q 447 1150 447 2328 
Q 447 3434 972 4092 
Q 1497 4750 2381 4750 
Q 2619 4750 2861 4703 
Q 3103 4656 3366 4563 
z
" transform="scale(0.015625)"/>
       </defs>
       <use xlink:href="#DejaVuSans-32"/>
       <use xlink:href="#DejaVuSans-38" x="63.623047"/>
       <use xlink:href="#DejaVuSans-36" x="127.246094"/>
       <use xlink:href="#DejaVuSans-30" x="190.869141"/>
      </g>
     </g>
    </g>
    <g id="xtick_3">
     <g id="line2d_3">
      <g>
       <use xlink:href="#ma39f8bac02" x="221.4" y="256.32" style="stroke: #000000; stroke-width: 0.8"/>
      </g>
     </g>
     <g id="text_3">
      <!-- 2870 -->
      <g transform="translate(202.3125 274.717656)scale(0.15 -0.15)">
       <defs>
        <path id="DejaVuSans-37" d="M 525 4666 
L 3525 4666 
L 3525 4397 
L 1831 0 
L 1172 0 
L 2766 4134 
L 525 4134 
L 525 4666 
z
" transform="scale(0.015625)"/>
       </defs>
       <use xlink:href="#DejaVuSans-32"/>
       <use xlink:href="#DejaVuSans-38" x="63.623047"/>
       <use xlink:href="#DejaVuSans-37" x="127.246094"/>
       <use xlink:href="#DejaVuSans-30" x="190.869141"/>
      </g>
     </g>
    </g>
    <g id="xtick_4">
     <g id="line2d_4">
      <g>
       <use xlink:href="#ma39f8bac02" x="297.490909" y="256.32" style="stroke: #000000; stroke-width: 0.8"/>
      </g>
     </g>
     <g id="text_4">
      <!-- 2880 -->
      <g transform="translate(278.403409 274.717656)scale(0.15 -0.15)">
       <use xlink:href="#DejaVuSans-32"/>
       <use xlink:href="#DejaVuSans-38" x="63.623047"/>
       <use xlink:href="#DejaVuSans-38" x="127.246094"/>
       <use xlink:href="#DejaVuSans-30" x="190.869141"/>
      </g>
     </g>
    </g>
    <g id="xtick_5">
     <g id="line2d_5">
      <g>
       <use xlink:href="#ma39f8bac02" x="373.581818" y="256.32" style="stroke: #000000; stroke-width: 0.8"/>
      </g>
     </g>
     <g id="text_5">
      <!-- 2890 -->
      <g transform="translate(354.494318 274.717656)scale(0.15 -0.15)">
       <defs>
        <path id="DejaVuSans-39" d="M 703 97 
L 703 672 
Q 941 559 1184 500 
Q 1428 441 1663 441 
Q 2288 441 2617 861 
Q 2947 1281 2994 2138 
Q 2813 1869 2534 1725 
Q 2256 1581 1919 1581 
Q 1219 1581 811 2004 
Q 403 2428 403 3163 
Q 403 3881 828 4315 
Q 1253 4750 1959 4750 
Q 2769 4750 3195 4129 
Q 3622 3509 3622 2328 
Q 3622 1225 3098 567 
Q 2575 -91 1691 -91 
Q 1453 -91 1209 -44 
Q 966 3 703 97 
z
M 1959 2075 
Q 2384 2075 2632 2365 
Q 2881 2656 2881 3163 
Q 2881 3666 2632 3958 
Q 2384 4250 1959 4250 
Q 1534 4250 1286 3958 
Q 1038 3666 1038 3163 
Q 1038 2656 1286 2365 
Q 1534 2075 1959 2075 
z
" transform="scale(0.015625)"/>
       </defs>
       <use xlink:href="#DejaVuSans-32"/>
       <use xlink:href="#DejaVuSans-38" x="63.623047"/>
       <use xlink:href="#DejaVuSans-39" x="127.246094"/>
       <use xlink:href="#DejaVuSans-30" x="190.869141"/>
      </g>
     </g>
    </g>
   </g>
   <g id="matplotlib.axis_2">
    <g id="ytick_1">
     <g id="line2d_6">
      <defs>
       <path id="m91744254af" d="M 0 0 
L -3.5 0 
" style="stroke: #000000; stroke-width: 0.8"/>
      </defs>
      <g>
       <use xlink:href="#m91744254af" x="54" y="250.111108" style="stroke: #000000; stroke-width: 0.8"/>
      </g>
     </g>
     <g id="text_6">
      <!-- 0.0 -->
      <g transform="translate(23.145312 255.809936)scale(0.15 -0.15)">
       <defs>
        <path id="DejaVuSans-2e" d="M 684 794 
L 1344 794 
L 1344 0 
L 684 0 
L 684 794 
z
" transform="scale(0.015625)"/>
       </defs>
       <use xlink:href="#DejaVuSans-30"/>
       <use xlink:href="#DejaVuSans-2e" x="63.623047"/>
       <use xlink:href="#DejaVuSans-30" x="95.410156"/>
      </g>
     </g>
    </g>
    <g id="ytick_2">
     <g id="line2d_7">
      <g>
       <use xlink:href="#m91744254af" x="54" y="209.016886" style="stroke: #000000; stroke-width: 0.8"/>
      </g>
     </g>
     <g id="text_7">
      <!-- 0.2 -->
      <g transform="translate(23.145312 214.715715)scale(0.15 -0.15)">
       <use xlink:href="#DejaVuSans-30"/>
       <use xlink:href="#DejaVuSans-2e" x="63.623047"/>
       <use xlink:href="#DejaVuSans-32" x="95.410156"/>
      </g>
     </g>
    </g>
    <g id="ytick_3">
     <g id="line2d_8">
      <g>
       <use xlink:href="#m91744254af" x="54" y="167.922665" style="stroke: #000000; stroke-width: 0.8"/>
      </g>
     </g>
     <g id="text_8">
      <!-- 0.4 -->
      <g transform="translate(23.145312 173.621493)scale(0.15 -0.15)">
       <defs>
        <path id="DejaVuSans-34" d="M 2419 4116 
L 825 1625 
L 2419 1625 
L 2419 4116 
z
M 2253 4666 
L 3047 4666 
L 3047 1625 
L 3713 1625 
L 3713 1100 
L 3047 1100 
L 3047 0 
L 2419 0 
L 2419 1100 
L 313 1100 
L 313 1709 
L 2253 4666 
z
" transform="scale(0.015625)"/>
       </defs>
       <use xlink:href="#DejaVuSans-30"/>
       <use xlink:href="#DejaVuSans-2e" x="63.623047"/>
       <use xlink:href="#DejaVuSans-34" x="95.410156"/>
      </g>
     </g>
    </g>
    <g id="ytick_4">
     <g id="line2d_9">
      <g>
       <use xlink:href="#m91744254af" x="54" y="126.828443" style="stroke: #000000; stroke-width: 0.8"/>
      </g>
     </g>
     <g id="text_9">
      <!-- 0.6 -->
      <g transform="translate(23.145312 132.527271)scale(0.15 -0.15)">
       <use xlink:href="#DejaVuSans-30"/>
       <use xlink:href="#DejaVuSans-2e" x="63.623047"/>
       <use xlink:href="#DejaVuSans-36" x="95.410156"/>
      </g>
     </g>
    </g>
    <g id="ytick_5">
     <g id="line2d_10">
      <g>
       <use xlink:href="#m91744254af" x="54" y="85.734222" style="stroke: #000000; stroke-width: 0.8"/>
      </g>
     </g>
     <g id="text_10">
      <!-- 0.8 -->
      <g transform="translate(23.145312 91.43305)scale(0.15 -0.15)">
       <use xlink:href="#DejaVuSans-30"/>
       <use xlink:href="#DejaVuSans-2e" x="63.623047"/>
       <use xlink:href="#DejaVuSans-38" x="95.410156"/>
      </g>
     </g>
    </g>
    <g id="ytick_6">
     <g id="line2d_11">
      <g>
       <use xlink:href="#m91744254af" x="54" y="44.64" style="stroke: #000000; stroke-width: 0.8"/>
      </g>
     </g>
     <g id="text_11">
      <!-- 1.0 -->
      <g transform="translate(23.145312 50.338828)scale(0.15 -0.15)">
       <defs>
        <path id="DejaVuSans-31" d="M 794 531 
L 1825 531 
L 1825 4091 
L 703 3866 
L 703 4441 
L 1819 4666 
L 2450 4666 
L 2450 531 
L 3481 531 
L 3481 0 
L 794 0 
L 794 531 
z
" transform="scale(0.015625)"/>
       </defs>
       <use xlink:href="#DejaVuSans-31"/>
       <use xlink:href="#DejaVuSans-2e" x="63.623047"/>
       <use xlink:href="#DejaVuSans-30" x="95.410156"/>
      </g>
     </g>
    </g>
   </g>
   <g id="line2d_12">
    <path d="M 69.218182 245.604117 
L 70.435636 244.711422 
L 71.044364 244.840618 
L 71.653091 245.625967 
L 72.261818 245.322671 
L 72.870545 246.24 
L 73.479273 245.781531 
L 74.088 245.488982 
L 74.696727 245.614765 
L 75.305455 245.488946 
L 76.522909 244.949547 
L 77.131636 245.670216 
L 77.740364 245.285074 
L 78.349091 245.195739 
L 78.957818 245.544432 
L 79.566545 244.807509 
L 80.784 244.595401 
L 81.392727 243.699481 
L 82.001455 243.805846 
L 82.610182 244.805307 
L 83.218909 245.265245 
L 83.827636 244.615508 
L 84.436364 244.13264 
L 85.045091 245.124838 
L 85.653818 244.430785 
L 87.48 243.926631 
L 88.088727 243.181105 
L 88.697455 241.484217 
L 89.306182 241.662952 
L 90.523636 243.759115 
L 91.741091 243.486376 
L 92.349818 243.2285 
L 92.958545 242.073392 
L 93.567273 242.161983 
L 94.176 242.012412 
L 95.393455 240.960006 
L 96.002182 240.694153 
L 96.610909 241.066619 
L 97.828364 240.3198 
L 98.437091 240.258727 
L 99.654545 241.149224 
L 100.263273 241.239861 
L 100.872 241.54367 
L 101.480727 240.221456 
L 102.089455 239.468057 
L 102.698182 239.188038 
L 103.306909 239.481088 
L 103.915636 238.726405 
L 104.524364 239.111063 
L 105.133091 239.786457 
L 105.741818 238.307861 
L 106.959273 238.220615 
L 107.568 237.786021 
L 108.176727 236.735427 
L 109.394182 237.119829 
L 110.611636 236.417074 
L 111.220364 236.814824 
L 113.046545 235.869823 
L 113.655273 234.635714 
L 114.872727 233.917235 
L 115.481455 233.058513 
L 116.090182 233.50324 
L 116.698909 232.614977 
L 117.916364 232.280285 
L 118.525091 232.984154 
L 119.133818 232.983147 
L 119.742545 231.040603 
L 120.351273 229.754815 
L 120.96 229.801982 
L 121.568727 229.114083 
L 122.177455 229.307559 
L 123.394909 229.443081 
L 124.003636 227.932633 
L 124.612364 226.867831 
L 125.221091 227.298459 
L 125.829818 227.173932 
L 126.438545 225.816638 
L 127.047273 224.154061 
L 127.656 223.724639 
L 128.264727 222.95792 
L 128.873455 222.821108 
L 129.482182 223.172097 
L 130.090909 222.489155 
L 130.699636 221.55779 
L 131.308364 220.311023 
L 131.917091 220.462574 
L 133.134545 216.917879 
L 133.743273 215.985793 
L 134.352 216.151682 
L 134.960727 216.20049 
L 136.178182 214.538173 
L 136.786909 214.357784 
L 139.221818 210.140618 
L 139.830545 209.751486 
L 140.439273 209.821749 
L 141.048 208.801957 
L 141.656727 208.369628 
L 142.874182 205.697619 
L 143.482909 205.120009 
L 144.091636 205.380329 
L 144.700364 202.856362 
L 145.309091 202.247116 
L 145.917818 202.086698 
L 146.526545 200.066069 
L 147.135273 199.508305 
L 147.744 198.167639 
L 148.352727 197.602854 
L 148.961455 196.240627 
L 150.178909 194.20319 
L 150.787636 192.830747 
L 151.396364 192.268764 
L 152.613818 190.426618 
L 153.831273 186.89835 
L 154.44 183.676138 
L 155.048727 182.318241 
L 155.657455 182.50209 
L 156.266182 181.606089 
L 156.874909 178.947735 
L 157.483636 175.708913 
L 158.092364 174.416594 
L 158.701091 173.682665 
L 159.309818 171.750873 
L 159.918545 170.630562 
L 160.527273 168.97205 
L 161.136 165.212797 
L 162.962182 159.63924 
L 164.179636 154.965836 
L 165.397091 150.076518 
L 166.005818 149.038831 
L 166.614545 147.075804 
L 169.658182 134.92612 
L 170.266909 133.430318 
L 171.484364 128.495618 
L 172.093091 124.744673 
L 172.701818 123.351179 
L 175.745455 107.851577 
L 177.571636 99.902499 
L 179.397818 89.671405 
L 180.006545 85.07924 
L 180.615273 81.399835 
L 181.224 79.665356 
L 181.832727 77.190647 
L 182.441455 73.589571 
L 183.050182 71.16156 
L 183.658909 69.426703 
L 185.485091 59.575074 
L 186.093818 57.02839 
L 186.702545 55.354424 
L 187.311273 53.04132 
L 187.92 52.308154 
L 188.528727 50.702199 
L 189.137455 48.496661 
L 189.746182 47.773417 
L 190.354909 47.36365 
L 190.963636 45.625112 
L 191.572364 44.64 
L 192.181091 46.097836 
L 192.789818 45.723362 
L 194.007273 47.416841 
L 194.616 48.151767 
L 195.224727 49.573298 
L 195.833455 51.621861 
L 196.442182 51.979903 
L 197.050909 52.74261 
L 197.659636 54.341321 
L 198.268364 55.484091 
L 198.877091 57.636069 
L 199.485818 60.67862 
L 200.703273 65.802146 
L 202.529455 76.079208 
L 203.138182 78.783184 
L 203.746909 82.418065 
L 204.355636 87.78998 
L 204.964364 90.749666 
L 205.573091 94.895315 
L 206.181818 99.921277 
L 206.790545 106.442976 
L 209.225455 127.469265 
L 212.877818 162.578113 
L 214.095273 171.741108 
L 215.921455 188.244208 
L 216.530182 192.283751 
L 217.747636 197.074374 
L 218.356364 201.420162 
L 218.965091 204.288261 
L 219.573818 205.273885 
L 220.182545 206.667922 
L 220.791273 209.142004 
L 221.4 209.533821 
L 222.008727 208.225958 
L 223.226182 207.031411 
L 223.834909 207.157235 
L 224.443636 205.958236 
L 225.052364 202.488624 
L 226.269818 199.396307 
L 226.878545 196.755884 
L 227.487273 193.435367 
L 231.139636 162.687333 
L 231.748364 158.278015 
L 235.400727 119.666133 
L 237.226909 104.819726 
L 237.835636 98.750988 
L 238.444364 95.346302 
L 240.270545 81.310503 
L 243.314182 63.971054 
L 243.922909 61.574631 
L 244.531636 59.681496 
L 245.140364 58.263755 
L 245.749091 55.435073 
L 246.357818 53.590697 
L 246.966545 52.659493 
L 247.575273 52.121081 
L 248.184 50.321868 
L 249.401455 47.592059 
L 250.010182 47.477508 
L 250.618909 46.009541 
L 251.227636 45.548148 
L 251.836364 45.831628 
L 252.445091 46.522638 
L 253.662545 46.408106 
L 254.271273 48.533743 
L 254.88 49.766911 
L 255.488727 49.857616 
L 256.097455 51.368384 
L 256.706182 52.419156 
L 257.923636 57.553583 
L 258.532364 60.560666 
L 259.141091 62.730258 
L 260.358545 69.926904 
L 261.576 74.384525 
L 262.793455 80.528912 
L 263.402182 84.190634 
L 264.010909 86.955407 
L 265.228364 94.032289 
L 267.054545 103.200506 
L 269.489455 114.056653 
L 270.706909 119.985832 
L 272.533091 129.685734 
L 273.141818 132.538018 
L 273.750545 132.739577 
L 274.359273 135.232363 
L 274.968 139.211965 
L 275.576727 141.449686 
L 276.185455 142.387634 
L 278.011636 149.365644 
L 278.620364 152.471534 
L 280.446545 158.647471 
L 281.664 161.172389 
L 282.272727 163.199525 
L 282.881455 164.788708 
L 283.490182 168.299621 
L 284.098909 170.713957 
L 284.707636 171.544494 
L 285.316364 173.462523 
L 285.925091 176.09435 
L 286.533818 176.424182 
L 287.751273 180.437914 
L 288.36 182.777903 
L 288.968727 183.343079 
L 289.577455 185.032789 
L 290.186182 186.274423 
L 291.403636 187.867668 
L 292.012364 189.978522 
L 292.621091 192.902001 
L 293.838545 193.298519 
L 294.447273 194.424832 
L 295.056 196.272208 
L 295.664727 197.597518 
L 296.273455 198.318542 
L 296.882182 198.845659 
L 297.490909 200.215373 
L 298.099636 202.44502 
L 298.708364 203.395999 
L 299.925818 203.516578 
L 300.534545 204.181651 
L 301.143273 206.036786 
L 301.752 206.078251 
L 302.360727 207.200807 
L 303.578182 209.012894 
L 304.186909 208.411321 
L 304.795636 209.27826 
L 305.404364 211.109375 
L 306.013091 212.015937 
L 306.621818 212.601395 
L 307.839273 214.577171 
L 308.448 214.304852 
L 309.056727 215.000336 
L 310.274182 217.199135 
L 310.882909 217.402558 
L 311.491636 218.335115 
L 312.100364 219.911213 
L 312.709091 220.64204 
L 313.926545 222.593318 
L 314.535273 222.629021 
L 315.144 223.527886 
L 315.752727 223.828577 
L 316.361455 223.756455 
L 316.970182 224.871313 
L 317.578909 224.616476 
L 318.187636 226.236652 
L 318.796364 226.555187 
L 319.405091 226.625903 
L 320.622545 227.859215 
L 321.231273 229.356178 
L 321.84 229.549898 
L 322.448727 228.954328 
L 323.057455 227.494894 
L 323.666182 228.421783 
L 324.883636 231.792698 
L 325.492364 232.789933 
L 326.101091 231.747068 
L 326.709818 231.616927 
L 327.318545 232.447042 
L 327.927273 232.555587 
L 328.536 234.049948 
L 329.144727 233.736605 
L 329.753455 234.790793 
L 330.362182 235.106959 
L 330.970909 234.918143 
L 331.579636 234.216032 
L 332.188364 235.148578 
L 333.405818 235.966783 
L 334.014545 237.382414 
L 335.232 236.27783 
L 335.840727 236.281269 
L 336.449455 237.897545 
L 337.058182 238.038235 
L 337.666909 237.765596 
L 338.275636 237.901658 
L 338.884364 237.734833 
L 339.493091 238.370193 
L 340.101818 239.73281 
L 340.710545 238.719039 
L 341.319273 238.568852 
L 341.928 240.278546 
L 342.536727 241.001422 
L 343.145455 240.910367 
L 343.754182 240.52735 
L 344.362909 240.72353 
L 344.971636 240.3902 
L 346.189091 240.440153 
L 346.797818 241.687796 
L 347.406545 241.813957 
L 348.015273 241.691099 
L 348.624 242.833117 
L 349.232727 242.103471 
L 350.450182 242.83881 
L 351.058909 242.156711 
L 351.667636 242.349114 
L 352.276364 242.336418 
L 353.493818 243.68068 
L 354.102545 244.753159 
L 354.711273 244.542097 
L 355.32 243.162705 
L 355.928727 243.309499 
L 356.537455 243.934317 
L 357.146182 243.95943 
L 357.754909 244.231279 
L 358.363636 244.271639 
L 358.972364 242.55882 
L 360.189818 244.251438 
L 361.407273 245.272105 
L 362.016 244.121448 
L 362.624727 244.118613 
L 363.233455 243.858882 
L 363.842182 243.728283 
L 364.450909 244.261121 
L 365.059636 245.539295 
L 365.668364 245.32973 
L 366.277091 245.69146 
L 366.885818 245.915338 
L 367.494545 245.130308 
L 368.103273 245.550382 
L 368.712 245.602781 
L 369.320727 245.819672 
L 369.929455 245.874768 
L 370.538182 245.386872 
L 371.146909 243.778228 
L 371.755636 243.576115 
L 372.364364 244.934993 
L 373.581818 246.024077 
L 373.581818 246.024077 
" clip-path="url(#p00b8aa881a)" style="fill: none; stroke: #d62728; stroke-width: 1.5; stroke-linecap: square"/>
   </g>
   <g id="patch_3">
    <path d="M 54 256.32 
L 54 34.56 
" style="fill: none; stroke: #000000; stroke-width: 0.8; stroke-linejoin: miter; stroke-linecap: square"/>
   </g>
   <g id="patch_4">
    <path d="M 388.8 256.32 
L 388.8 34.56 
" style="fill: none; stroke: #000000; stroke-width: 0.8; stroke-linejoin: miter; stroke-linecap: square"/>
   </g>
   <g id="patch_5">
    <path d="M 54 256.32 
L 388.8 256.32 
" style="fill: none; stroke: #000000; stroke-width: 0.8; stroke-linejoin: miter; stroke-linecap: square"/>
   </g>
   <g id="patch_6">
    <path d="M 54 34.56 
L 388.8 34.56 
" style="fill: none; stroke: #000000; stroke-width: 0.8; stroke-linejoin: miter; stroke-linecap: square"/>
   </g>
  </g>
 </g>
 <defs>
  <clipPath id="p00b8aa881a">
   <rect x="54" y="34.56" width="334.8" height="221.76"/>
  </clipPath>
 </defs>
</svg>
