<?xml version="1.0" encoding="utf-8" standalone="no"?>
<!DOCTYPE svg PUBLIC "-//W3C//DTD SVG 1.1//EN"
  "http://www.w3.org/Graphics/SVG/1.1/DTD/svg11.dtd">
<svg xmlns:xlink="http://www.w3.org/1999/xlink" width="432pt" height="288pt" viewBox="0 0 432 288" xmlns="http://www.w3.org/2000/svg" version="1.1">
 <metadata>
  <rdf:RDF xmlns:dc="http://purl.org/dc/elements/1.1/" xmlns:cc="http://creativecommons.org/ns#" xmlns:rdf="http://www.w3.org/1999/02/22-rdf-syntax-ns#">
   <cc:Work>
    <dc:type rdf:resource="http://purl.org/dc/dcmitype/StillImage"/>
    <dc:date>2022-08-19T14:07:43.778128</dc:date>
    <dc:format>image/svg+xml</dc:format>
    <dc:creator>
     <cc:Agent>
      <dc:title>Matplotlib v3.5.1, https://matplotlib.org/</dc:title>
     </cc:Agent>
    </dc:creator>
   </cc:Work>
  </rdf:RDF>
 </metadata>
 <defs>
  <style type="text/css">*{stroke-linejoin: round; stroke-linecap: butt}</style>
 </defs>
 <g id="figure_1">
  <g id="patch_1">
   <path d="M 0 288 
L 432 288 
L 432 0 
L 0 0 
z
" style="fill: #ffffff"/>
  </g>
  <g id="axes_1">
   <g id="patch_2">
    <path d="M 54 256.32 
L 388.8 256.32 
L 388.8 34.56 
L 54 34.56 
z
" style="fill: #ffffff"/>
   </g>
   <g id="matplotlib.axis_1">
    <g id="xtick_1">
     <g id="line2d_1">
      <defs>
       <path id="m2022dc0bdc" d="M 0 0 
L 0 3.5 
" style="stroke: #000000; stroke-width: 0.8"/>
      </defs>
      <g>
       <use xlink:href="#m2022dc0bdc" x="120.250428" y="256.32" style="stroke: #000000; stroke-width: 0.8"/>
      </g>
     </g>
     <g id="text_1">
      <!-- −10 -->
      <g transform="translate(103.366678 275.4775)scale(0.16 -0.16)">
       <defs>
        <path id="DejaVuSans-2212" d="M 678 2272 
L 4684 2272 
L 4684 1741 
L 678 1741 
L 678 2272 
z
" transform="scale(0.015625)"/>
        <path id="DejaVuSans-31" d="M 794 531 
L 1825 531 
L 1825 4091 
L 703 3866 
L 703 4441 
L 1819 4666 
L 2450 4666 
L 2450 531 
L 3481 531 
L 3481 0 
L 794 0 
L 794 531 
z
" transform="scale(0.015625)"/>
        <path id="DejaVuSans-30" d="M 2034 4250 
Q 1547 4250 1301 3770 
Q 1056 3291 1056 2328 
Q 1056 1369 1301 889 
Q 1547 409 2034 409 
Q 2525 409 2770 889 
Q 3016 1369 3016 2328 
Q 3016 3291 2770 3770 
Q 2525 4250 2034 4250 
z
M 2034 4750 
Q 2819 4750 3233 4129 
Q 3647 3509 3647 2328 
Q 3647 1150 3233 529 
Q 2819 -91 2034 -91 
Q 1250 -91 836 529 
Q 422 1150 422 2328 
Q 422 3509 836 4129 
Q 1250 4750 2034 4750 
z
" transform="scale(0.015625)"/>
       </defs>
       <use xlink:href="#DejaVuSans-2212"/>
       <use xlink:href="#DejaVuSans-31" x="83.789062"/>
       <use xlink:href="#DejaVuSans-30" x="147.412109"/>
      </g>
     </g>
    </g>
    <g id="xtick_2">
     <g id="line2d_2">
      <g>
       <use xlink:href="#m2022dc0bdc" x="221.908289" y="256.32" style="stroke: #000000; stroke-width: 0.8"/>
      </g>
     </g>
     <g id="text_2">
      <!-- 0 -->
      <g transform="translate(216.818289 275.4775)scale(0.16 -0.16)">
       <use xlink:href="#DejaVuSans-30"/>
      </g>
     </g>
    </g>
    <g id="xtick_3">
     <g id="line2d_3">
      <g>
       <use xlink:href="#m2022dc0bdc" x="323.56615" y="256.32" style="stroke: #000000; stroke-width: 0.8"/>
      </g>
     </g>
     <g id="text_3">
      <!-- 10 -->
      <g transform="translate(313.38615 275.4775)scale(0.16 -0.16)">
       <use xlink:href="#DejaVuSans-31"/>
       <use xlink:href="#DejaVuSans-30" x="63.623047"/>
      </g>
     </g>
    </g>
   </g>
   <g id="matplotlib.axis_2">
    <g id="ytick_1">
     <g id="line2d_4">
      <defs>
       <path id="m9a0800bd7c" d="M 0 0 
L -3.5 0 
" style="stroke: #000000; stroke-width: 0.8"/>
      </defs>
      <g>
       <use xlink:href="#m9a0800bd7c" x="54" y="246.24" style="stroke: #000000; stroke-width: 0.8"/>
      </g>
     </g>
     <g id="text_4">
      <!-- 0.0 -->
      <g transform="translate(21.555 252.31875)scale(0.16 -0.16)">
       <defs>
        <path id="DejaVuSans-2e" d="M 684 794 
L 1344 794 
L 1344 0 
L 684 0 
L 684 794 
z
" transform="scale(0.015625)"/>
       </defs>
       <use xlink:href="#DejaVuSans-30"/>
       <use xlink:href="#DejaVuSans-2e" x="63.623047"/>
       <use xlink:href="#DejaVuSans-30" x="95.410156"/>
      </g>
     </g>
    </g>
    <g id="ytick_2">
     <g id="line2d_5">
      <g>
       <use xlink:href="#m9a0800bd7c" x="54" y="205.92" style="stroke: #000000; stroke-width: 0.8"/>
      </g>
     </g>
     <g id="text_5">
      <!-- 0.2 -->
      <g transform="translate(21.555 211.99875)scale(0.16 -0.16)">
       <defs>
        <path id="DejaVuSans-32" d="M 1228 531 
L 3431 531 
L 3431 0 
L 469 0 
L 469 531 
Q 828 903 1448 1529 
Q 2069 2156 2228 2338 
Q 2531 2678 2651 2914 
Q 2772 3150 2772 3378 
Q 2772 3750 2511 3984 
Q 2250 4219 1831 4219 
Q 1534 4219 1204 4116 
Q 875 4013 500 3803 
L 500 4441 
Q 881 4594 1212 4672 
Q 1544 4750 1819 4750 
Q 2544 4750 2975 4387 
Q 3406 4025 3406 3419 
Q 3406 3131 3298 2873 
Q 3191 2616 2906 2266 
Q 2828 2175 2409 1742 
Q 1991 1309 1228 531 
z
" transform="scale(0.015625)"/>
       </defs>
       <use xlink:href="#DejaVuSans-30"/>
       <use xlink:href="#DejaVuSans-2e" x="63.623047"/>
       <use xlink:href="#DejaVuSans-32" x="95.410156"/>
      </g>
     </g>
    </g>
    <g id="ytick_3">
     <g id="line2d_6">
      <g>
       <use xlink:href="#m9a0800bd7c" x="54" y="165.6" style="stroke: #000000; stroke-width: 0.8"/>
      </g>
     </g>
     <g id="text_6">
      <!-- 0.4 -->
      <g transform="translate(21.555 171.67875)scale(0.16 -0.16)">
       <defs>
        <path id="DejaVuSans-34" d="M 2419 4116 
L 825 1625 
L 2419 1625 
L 2419 4116 
z
M 2253 4666 
L 3047 4666 
L 3047 1625 
L 3713 1625 
L 3713 1100 
L 3047 1100 
L 3047 0 
L 2419 0 
L 2419 1100 
L 313 1100 
L 313 1709 
L 2253 4666 
z
" transform="scale(0.015625)"/>
       </defs>
       <use xlink:href="#DejaVuSans-30"/>
       <use xlink:href="#DejaVuSans-2e" x="63.623047"/>
       <use xlink:href="#DejaVuSans-34" x="95.410156"/>
      </g>
     </g>
    </g>
    <g id="ytick_4">
     <g id="line2d_7">
      <g>
       <use xlink:href="#m9a0800bd7c" x="54" y="125.28" style="stroke: #000000; stroke-width: 0.8"/>
      </g>
     </g>
     <g id="text_7">
      <!-- 0.6 -->
      <g transform="translate(21.555 131.35875)scale(0.16 -0.16)">
       <defs>
        <path id="DejaVuSans-36" d="M 2113 2584 
Q 1688 2584 1439 2293 
Q 1191 2003 1191 1497 
Q 1191 994 1439 701 
Q 1688 409 2113 409 
Q 2538 409 2786 701 
Q 3034 994 3034 1497 
Q 3034 2003 2786 2293 
Q 2538 2584 2113 2584 
z
M 3366 4563 
L 3366 3988 
Q 3128 4100 2886 4159 
Q 2644 4219 2406 4219 
Q 1781 4219 1451 3797 
Q 1122 3375 1075 2522 
Q 1259 2794 1537 2939 
Q 1816 3084 2150 3084 
Q 2853 3084 3261 2657 
Q 3669 2231 3669 1497 
Q 3669 778 3244 343 
Q 2819 -91 2113 -91 
Q 1303 -91 875 529 
Q 447 1150 447 2328 
Q 447 3434 972 4092 
Q 1497 4750 2381 4750 
Q 2619 4750 2861 4703 
Q 3103 4656 3366 4563 
z
" transform="scale(0.015625)"/>
       </defs>
       <use xlink:href="#DejaVuSans-30"/>
       <use xlink:href="#DejaVuSans-2e" x="63.623047"/>
       <use xlink:href="#DejaVuSans-36" x="95.410156"/>
      </g>
     </g>
    </g>
    <g id="ytick_5">
     <g id="line2d_8">
      <g>
       <use xlink:href="#m9a0800bd7c" x="54" y="84.96" style="stroke: #000000; stroke-width: 0.8"/>
      </g>
     </g>
     <g id="text_8">
      <!-- 0.8 -->
      <g transform="translate(21.555 91.03875)scale(0.16 -0.16)">
       <defs>
        <path id="DejaVuSans-38" d="M 2034 2216 
Q 1584 2216 1326 1975 
Q 1069 1734 1069 1313 
Q 1069 891 1326 650 
Q 1584 409 2034 409 
Q 2484 409 2743 651 
Q 3003 894 3003 1313 
Q 3003 1734 2745 1975 
Q 2488 2216 2034 2216 
z
M 1403 2484 
Q 997 2584 770 2862 
Q 544 3141 544 3541 
Q 544 4100 942 4425 
Q 1341 4750 2034 4750 
Q 2731 4750 3128 4425 
Q 3525 4100 3525 3541 
Q 3525 3141 3298 2862 
Q 3072 2584 2669 2484 
Q 3125 2378 3379 2068 
Q 3634 1759 3634 1313 
Q 3634 634 3220 271 
Q 2806 -91 2034 -91 
Q 1263 -91 848 271 
Q 434 634 434 1313 
Q 434 1759 690 2068 
Q 947 2378 1403 2484 
z
M 1172 3481 
Q 1172 3119 1398 2916 
Q 1625 2713 2034 2713 
Q 2441 2713 2670 2916 
Q 2900 3119 2900 3481 
Q 2900 3844 2670 4047 
Q 2441 4250 2034 4250 
Q 1625 4250 1398 4047 
Q 1172 3844 1172 3481 
z
" transform="scale(0.015625)"/>
       </defs>
       <use xlink:href="#DejaVuSans-30"/>
       <use xlink:href="#DejaVuSans-2e" x="63.623047"/>
       <use xlink:href="#DejaVuSans-38" x="95.410156"/>
      </g>
     </g>
    </g>
    <g id="ytick_6">
     <g id="line2d_9">
      <g>
       <use xlink:href="#m9a0800bd7c" x="54" y="44.64" style="stroke: #000000; stroke-width: 0.8"/>
      </g>
     </g>
     <g id="text_9">
      <!-- 1.0 -->
      <g transform="translate(21.555 50.71875)scale(0.16 -0.16)">
       <use xlink:href="#DejaVuSans-31"/>
       <use xlink:href="#DejaVuSans-2e" x="63.623047"/>
       <use xlink:href="#DejaVuSans-30" x="95.410156"/>
      </g>
     </g>
    </g>
   </g>
   <g id="line2d_10">
    <path d="M 69.218182 245.577816 
L 69.828129 244.812781 
L 70.438076 244.536859 
L 71.048023 245.339544 
L 72.267918 244.744547 
L 72.877865 245.852787 
L 73.487812 246.148432 
L 74.097759 245.48445 
L 74.707706 245.036224 
L 75.317653 244.993717 
L 75.927601 244.414189 
L 77.757442 244.661074 
L 78.367389 244.341442 
L 78.977336 244.477358 
L 79.587284 243.715121 
L 80.197231 244.011498 
L 80.807178 245.049886 
L 81.417125 243.324413 
L 82.027072 244.644176 
L 82.637019 244.815839 
L 83.246967 244.815118 
L 83.856914 244.474883 
L 84.466861 244.401433 
L 85.076808 244.911886 
L 86.296702 244.88095 
L 86.90665 244.725829 
L 87.516597 245.733808 
L 88.736491 243.329693 
L 89.956385 244.472922 
L 90.566333 243.020491 
L 91.17628 243.959511 
L 91.786227 244.483506 
L 92.396174 242.870798 
L 93.616069 244.564177 
L 94.226016 244.62611 
L 94.835963 243.876493 
L 95.44591 244.577572 
L 96.055857 243.672101 
L 96.665804 243.822024 
L 97.885699 243.352156 
L 98.495646 244.144248 
L 99.105593 244.247903 
L 99.71554 243.421919 
L 100.325487 244.129567 
L 101.545382 243.925277 
L 102.155329 243.680466 
L 102.765276 243.889238 
L 103.375223 244.387287 
L 103.98517 244.450167 
L 104.595118 243.435991 
L 105.205065 243.332923 
L 105.815012 244.770694 
L 106.424959 243.084275 
L 107.034906 242.804823 
L 107.644853 243.316971 
L 108.254801 242.845199 
L 108.864748 241.405 
L 110.084642 243.117601 
L 110.694589 242.965573 
L 111.304536 241.795685 
L 111.914484 243.077409 
L 112.524431 242.65673 
L 113.744325 240.350025 
L 114.354272 238.300098 
L 114.964219 238.969088 
L 115.574167 239.906142 
L 116.184114 239.1133 
L 116.794061 239.669843 
L 118.013955 236.287629 
L 118.623902 235.281861 
L 119.23385 235.269615 
L 119.843797 236.1531 
L 120.453744 235.402685 
L 121.063691 236.440695 
L 121.673638 236.017917 
L 122.283585 235.312521 
L 122.893533 236.198131 
L 123.50348 235.706028 
L 124.113427 235.51428 
L 125.333321 236.165905 
L 125.943268 237.229739 
L 126.553216 236.077545 
L 127.163163 235.171887 
L 127.77311 235.78034 
L 128.383057 235.388744 
L 128.993004 234.498833 
L 129.602951 235.659034 
L 130.212899 234.205921 
L 130.822846 233.730584 
L 131.432793 234.385503 
L 132.04274 234.493482 
L 132.652687 232.940654 
L 133.872582 231.748115 
L 134.482529 230.048341 
L 135.092476 229.63073 
L 135.702423 229.815034 
L 136.31237 228.665099 
L 136.922317 228.684953 
L 137.532265 227.706309 
L 138.142212 226.305324 
L 138.752159 224.607495 
L 139.972053 219.809225 
L 140.582 219.004771 
L 141.191948 219.997252 
L 141.801895 216.856043 
L 142.411842 216.970847 
L 143.021789 217.986044 
L 143.631736 217.572908 
L 144.241683 216.287201 
L 144.851631 216.031645 
L 146.071525 214.650576 
L 146.681472 213.699481 
L 147.291419 213.586821 
L 147.901366 213.982153 
L 149.121261 211.83673 
L 149.731208 211.879914 
L 150.341155 211.417753 
L 151.561049 209.591995 
L 152.170997 208.229152 
L 152.780944 208.180949 
L 153.390891 206.667962 
L 154.000838 202.046204 
L 154.610785 199.549554 
L 155.220732 198.683036 
L 155.83068 196.626681 
L 156.440627 192.97381 
L 157.050574 188.32472 
L 157.660521 186.994882 
L 158.270468 183.731685 
L 158.880415 179.540801 
L 159.490363 174.305588 
L 160.710257 166.798283 
L 161.320204 161.268023 
L 161.930151 157.980474 
L 162.540098 156.457303 
L 163.150046 153.680233 
L 164.36994 157.204633 
L 164.979887 159.699868 
L 165.589834 161.624504 
L 166.199781 161.862951 
L 167.419676 165.550401 
L 168.029623 166.170756 
L 169.249517 171.774158 
L 169.859464 172.236994 
L 170.469412 172.014124 
L 171.079359 172.900705 
L 171.689306 171.789077 
L 172.9092 168.980577 
L 174.739042 161.424329 
L 175.348989 157.182015 
L 177.17883 147.008806 
L 177.788778 142.82451 
L 179.618619 127.069141 
L 180.228566 119.382358 
L 180.838513 113.312541 
L 181.448461 104.896907 
L 182.058408 98.186951 
L 183.278302 79.621863 
L 185.718091 59.070715 
L 186.328038 55.888574 
L 186.937985 55.803092 
L 187.547932 56.186841 
L 188.157879 60.264898 
L 189.987721 82.051537 
L 190.597668 88.140194 
L 191.817562 103.261749 
L 192.42751 107.14729 
L 193.037457 109.84213 
L 194.257351 116.530278 
L 194.867298 119.160458 
L 195.477245 118.195946 
L 196.087193 118.643508 
L 197.307087 113.398751 
L 197.917034 112.173066 
L 198.526981 108.31292 
L 199.136928 102.979037 
L 199.746876 99.572644 
L 200.356823 97.37542 
L 200.96677 92.745076 
L 201.576717 85.6383 
L 202.796611 75.757044 
L 203.406559 68.843511 
L 204.016506 64.745528 
L 204.626453 61.808184 
L 205.846347 53.309848 
L 206.456294 52.243655 
L 207.066242 52.748534 
L 207.676189 54.726596 
L 208.286136 58.317285 
L 208.896083 63.969632 
L 209.50603 70.878214 
L 210.725925 92.810139 
L 211.945819 120.410426 
L 213.165713 149.265655 
L 215.605502 193.530522 
L 216.825396 210.263171 
L 217.435343 215.195639 
L 218.045291 218.917712 
L 218.655238 225.352524 
L 219.265185 230.438623 
L 219.875132 231.34346 
L 221.095026 238.342161 
L 221.704974 238.569667 
L 222.314921 237.735443 
L 222.924868 236.340522 
L 223.534815 235.977963 
L 224.144762 235.878647 
L 225.364657 232.067842 
L 225.974604 227.589513 
L 226.584551 224.534891 
L 227.194498 222.207087 
L 228.414392 210.772145 
L 229.634287 194.126464 
L 230.244234 184.418716 
L 232.074075 147.358806 
L 232.684023 132.759419 
L 233.29397 114.446967 
L 235.733758 66.531762 
L 236.343706 57.315283 
L 236.953653 51.217093 
L 237.5636 46.501908 
L 238.173547 44.64 
L 238.783494 47.395786 
L 239.393441 49.334722 
L 241.83323 67.01733 
L 242.443177 73.499465 
L 243.053124 78.722905 
L 243.663072 85.006196 
L 244.882966 95.216152 
L 245.492913 98.713135 
L 246.712807 107.694884 
L 247.322755 108.352295 
L 247.932702 110.568046 
L 248.542649 111.086632 
L 249.152596 113.721506 
L 249.762543 114.421421 
L 250.982438 113.943077 
L 252.202332 107.700395 
L 252.812279 102.744576 
L 255.252068 75.554766 
L 256.471962 58.54316 
L 257.081909 52.594036 
L 258.301804 46.539166 
L 258.911751 45.202285 
L 259.521698 46.751913 
L 260.131645 51.454354 
L 260.741592 57.797947 
L 261.961487 74.027727 
L 262.571434 80.223575 
L 263.791328 100.346625 
L 265.011222 113.648042 
L 266.231117 128.476951 
L 266.841064 132.957236 
L 267.451011 140.786009 
L 268.060958 145.998061 
L 268.670905 148.158181 
L 269.280853 151.554954 
L 269.8908 152.936497 
L 270.500747 157.470462 
L 271.110694 160.769284 
L 271.720641 163.376972 
L 272.330588 164.954913 
L 272.940536 168.175181 
L 273.550483 169.131988 
L 274.16043 168.668117 
L 274.770377 169.209526 
L 275.380324 168.473071 
L 275.990271 168.511996 
L 276.600219 164.975407 
L 277.210166 163.997434 
L 277.820113 162.283757 
L 279.040007 155.584664 
L 280.259902 149.559063 
L 280.869849 145.512997 
L 281.479796 144.786465 
L 282.69969 148.429768 
L 283.309637 148.461401 
L 285.749426 168.5301 
L 286.359373 172.034801 
L 286.96932 178.500201 
L 287.579268 182.413012 
L 288.189215 185.115589 
L 288.799162 187.091039 
L 290.019056 195.12331 
L 290.629003 198.85071 
L 291.238951 200.170247 
L 292.458845 205.433298 
L 293.068792 206.869527 
L 293.678739 207.665516 
L 294.288686 209.541631 
L 294.898634 210.548167 
L 295.508581 211.819832 
L 296.118528 214.461992 
L 296.728475 215.326451 
L 297.338422 215.262115 
L 297.948369 216.674306 
L 298.558317 217.239185 
L 299.778211 216.698297 
L 300.388158 216.218465 
L 300.998105 216.911087 
L 301.608052 218.069443 
L 302.218 217.881226 
L 302.827947 218.453895 
L 303.437894 218.422063 
L 304.047841 217.406767 
L 304.657788 218.948389 
L 305.267735 217.792063 
L 305.877683 219.529914 
L 306.48763 220.274431 
L 307.097577 220.583603 
L 307.707524 221.768916 
L 308.317471 224.276711 
L 309.537366 227.850995 
L 310.147313 228.820676 
L 310.75726 227.673384 
L 311.367207 228.887044 
L 311.977154 230.820585 
L 313.197049 233.594826 
L 313.806996 232.602386 
L 314.416943 233.863245 
L 315.02689 233.638537 
L 316.856732 235.369578 
L 317.466679 234.894533 
L 318.686573 236.885887 
L 319.29652 235.391833 
L 319.906467 235.963594 
L 320.516415 237.735813 
L 321.126362 237.728689 
L 321.736309 235.938446 
L 322.346256 236.875781 
L 322.956203 237.396454 
L 323.56615 236.259869 
L 324.176098 235.964294 
L 324.786045 236.49847 
L 325.395992 236.272201 
L 326.005939 235.183269 
L 326.615886 235.066208 
L 327.225833 234.552319 
L 327.835781 234.978889 
L 328.445728 236.302123 
L 329.055675 236.789616 
L 329.665622 236.792707 
L 330.275569 236.428904 
L 330.885516 236.602563 
L 331.495464 238.521323 
L 332.105411 239.452099 
L 332.715358 240.153943 
L 333.325305 240.484937 
L 333.935252 240.264077 
L 335.155147 241.58302 
L 335.765094 243.084654 
L 336.375041 242.642977 
L 336.984988 242.570743 
L 338.204882 242.581285 
L 338.81483 243.640992 
L 340.034724 242.135734 
L 340.644671 243.411259 
L 341.254618 243.455516 
L 341.864565 244.260792 
L 342.474513 242.804531 
L 343.08446 242.976094 
L 343.694407 244.001105 
L 344.304354 245.400964 
L 344.914301 244.911976 
L 345.524248 243.403741 
L 346.134196 242.440409 
L 346.744143 243.99641 
L 347.35409 244.215708 
L 347.964037 243.405975 
L 348.573984 243.47178 
L 349.183931 242.484931 
L 349.793879 242.7549 
L 350.403826 242.601847 
L 351.013773 242.690675 
L 351.62372 243.238674 
L 352.233667 243.60774 
L 352.843615 242.955927 
L 353.453562 243.773855 
L 354.063509 243.315313 
L 354.673456 244.354629 
L 355.283403 244.505292 
L 355.89335 244.015328 
L 357.113245 244.221689 
L 357.723192 244.409944 
L 358.333139 246.24 
L 359.553033 243.285513 
L 360.162981 244.823221 
L 360.772928 244.184655 
L 361.992822 245.011495 
L 362.602769 244.369178 
L 363.212716 243.462247 
L 363.822664 245.510169 
L 364.432611 243.771742 
L 365.042558 244.176909 
L 365.652505 244.988056 
L 366.262452 244.997735 
L 367.482347 243.613796 
L 368.092294 245.082097 
L 368.702241 244.683131 
L 368.702241 244.683131 
" clip-path="url(#pcff58567bf)" style="fill: none; stroke: #1f77b4; stroke-width: 1.5; stroke-linecap: square"/>
   </g>
   <g id="line2d_11">
    <path d="M 69.421498 239.227611 
L 70.23476 237.988454 
L 71.048023 239.006954 
L 71.861286 237.939081 
L 72.674549 237.724435 
L 73.487812 238.103095 
L 74.301075 237.068694 
L 75.114338 236.50005 
L 75.927601 235.126162 
L 76.740864 235.84476 
L 77.554126 235.529816 
L 78.367389 233.875867 
L 79.180652 234.565017 
L 79.993915 234.771559 
L 80.807178 235.490174 
L 82.433704 232.374531 
L 83.246967 232.61564 
L 84.06023 233.544246 
L 84.873492 232.653473 
L 85.686755 232.305434 
L 86.500018 232.100464 
L 87.313281 231.643584 
L 88.126544 230.388461 
L 88.939807 230.252673 
L 89.75307 230.503862 
L 90.566333 229.49989 
L 91.379596 230.152458 
L 92.192858 230.522313 
L 93.006121 228.694924 
L 93.819384 227.464512 
L 94.632647 227.226953 
L 95.44591 227.220848 
L 96.259173 225.629159 
L 97.072436 225.313916 
L 97.885699 225.466386 
L 98.698962 225.174592 
L 99.512224 224.070223 
L 100.325487 221.76317 
L 101.13875 221.743306 
L 101.952013 223.159251 
L 102.765276 221.788627 
L 103.578539 218.893878 
L 104.391802 217.308985 
L 105.205065 217.812872 
L 106.83159 214.472182 
L 107.644853 213.746947 
L 108.458116 212.114656 
L 109.271379 211.922522 
L 110.084642 212.976068 
L 111.711168 211.494239 
L 112.524431 211.32562 
L 113.337694 208.981402 
L 114.150956 208.232283 
L 114.964219 208.100864 
L 115.777482 204.472278 
L 116.590745 203.069949 
L 117.404008 203.11787 
L 119.030534 202.623846 
L 119.843797 200.08003 
L 120.65706 198.367626 
L 121.470322 197.620067 
L 122.283585 197.39488 
L 123.096848 194.873544 
L 123.910111 193.477158 
L 124.723374 193.244492 
L 125.536637 193.149504 
L 126.3499 191.591645 
L 127.163163 189.245576 
L 129.602951 186.132986 
L 130.416214 184.977724 
L 131.229477 183.54616 
L 132.04274 180.684208 
L 132.856003 178.687741 
L 133.669266 177.761348 
L 134.482529 176.549302 
L 135.295792 173.984428 
L 136.109054 172.313651 
L 136.922317 171.280938 
L 137.73558 168.207069 
L 139.362106 164.377417 
L 140.175369 162.04126 
L 140.988632 160.296915 
L 141.801895 157.037479 
L 143.42842 153.243936 
L 144.241683 152.052074 
L 145.054946 149.714831 
L 146.681472 143.210677 
L 147.494735 141.011437 
L 148.307998 137.858639 
L 149.121261 135.495849 
L 149.934524 134.14937 
L 150.747786 132.506597 
L 151.561049 130.132916 
L 152.374312 128.252899 
L 154.000838 123.724359 
L 154.814101 122.397997 
L 156.440627 118.008312 
L 157.25389 116.961875 
L 158.067152 114.534603 
L 158.880415 112.745627 
L 159.693678 111.751634 
L 160.506941 108.872759 
L 161.320204 106.900865 
L 162.133467 105.54664 
L 163.759993 101.89194 
L 164.573256 98.386297 
L 165.386518 95.971775 
L 166.199781 93.024132 
L 167.013044 91.075162 
L 167.826307 88.484216 
L 169.452833 81.720357 
L 170.266096 80.51109 
L 171.079359 78.310481 
L 171.892622 74.582037 
L 172.705884 72.196785 
L 173.519147 71.497429 
L 174.33241 69.286102 
L 175.145673 66.062387 
L 176.772199 63.121792 
L 177.585462 62.996661 
L 178.398725 60.777368 
L 179.211988 60.166428 
L 180.025251 58.17116 
L 180.838513 56.530704 
L 181.651776 56.498959 
L 182.465039 56.068959 
L 183.278302 53.729265 
L 184.091565 53.40762 
L 184.904828 52.871829 
L 185.718091 53.549278 
L 186.531354 53.488069 
L 187.344617 54.018753 
L 188.157879 55.034855 
L 188.971142 57.217573 
L 189.784405 57.34867 
L 190.597668 58.653224 
L 191.410931 60.786927 
L 192.224194 63.949988 
L 193.037457 66.324154 
L 195.477245 74.514009 
L 197.917034 88.155695 
L 198.730297 93.430445 
L 200.356823 102.002922 
L 201.983349 113.538382 
L 203.609874 124.825575 
L 205.2364 136.493062 
L 206.862926 149.05645 
L 207.676189 153.269271 
L 210.92924 177.460382 
L 212.555766 188.096981 
L 214.995555 200.950412 
L 216.622081 207.412621 
L 217.435343 211.302572 
L 219.061869 217.078526 
L 220.688395 220.097988 
L 221.501658 221.164373 
L 223.128184 222.315739 
L 223.941447 221.927105 
L 224.754709 220.270971 
L 225.567972 219.553319 
L 226.381235 218.464032 
L 227.194498 215.42779 
L 228.821024 211.462303 
L 229.634287 208.804637 
L 230.44755 202.653383 
L 231.260813 199.019993 
L 232.074075 196.11611 
L 232.887338 189.059935 
L 235.327127 175.220747 
L 236.953653 163.589669 
L 237.766916 158.847704 
L 238.580179 152.302687 
L 239.393441 144.793649 
L 241.019967 134.281365 
L 242.646493 119.945553 
L 243.459756 113.182687 
L 245.899545 97.503287 
L 246.712807 89.825868 
L 247.52607 84.63601 
L 249.152596 75.698951 
L 249.965859 72.964148 
L 253.218911 55.714241 
L 254.032173 53.197198 
L 254.845436 52.811622 
L 255.658699 51.257752 
L 256.471962 47.984781 
L 257.285225 46.238615 
L 258.098488 45.564181 
L 258.911751 44.64 
L 260.538277 45.334169 
L 261.351539 44.646794 
L 262.164802 45.205749 
L 262.978065 46.137456 
L 263.791328 45.929871 
L 264.604591 45.516832 
L 265.417854 48.310004 
L 266.231117 50.592276 
L 267.04438 51.086425 
L 268.670905 53.62893 
L 269.484168 54.260788 
L 270.297431 56.072606 
L 271.110694 57.437344 
L 271.923957 60.096198 
L 273.550483 67.06876 
L 274.363746 67.693212 
L 275.177009 69.773073 
L 276.803534 74.586228 
L 277.616797 77.824746 
L 278.43006 79.572202 
L 279.243323 82.605201 
L 280.056586 86.13728 
L 280.869849 87.983899 
L 281.683112 91.071238 
L 282.496375 93.090422 
L 284.1229 99.370453 
L 284.936163 100.984277 
L 285.749426 103.716521 
L 286.562689 104.130584 
L 287.375952 105.674956 
L 289.002478 107.826476 
L 289.815741 109.652575 
L 290.629003 112.161753 
L 291.442266 113.85418 
L 292.255529 116.372926 
L 293.882055 119.61907 
L 294.695318 121.682533 
L 296.321844 127.225859 
L 297.135107 129.995433 
L 297.948369 130.960533 
L 299.574895 136.617002 
L 300.388158 139.622067 
L 301.201421 143.191806 
L 302.014684 144.695558 
L 303.64121 149.760392 
L 304.454473 152.125001 
L 305.267735 154.968806 
L 306.080998 158.771023 
L 306.894261 160.522407 
L 307.707524 161.905504 
L 308.520787 164.372118 
L 310.147313 168.121919 
L 310.960576 168.757042 
L 311.773839 170.842435 
L 312.587101 173.54175 
L 314.213627 177.828108 
L 315.02689 178.426132 
L 315.840153 180.630409 
L 316.653416 180.637115 
L 318.279942 183.638054 
L 319.906467 188.667953 
L 320.71973 189.661998 
L 321.532993 190.175454 
L 322.346256 193.395561 
L 323.159519 193.981636 
L 323.972782 193.921188 
L 324.786045 194.848126 
L 325.599308 196.797695 
L 326.412571 196.639127 
L 327.225833 199.125145 
L 328.039096 200.761654 
L 328.852359 200.977679 
L 329.665622 203.077308 
L 330.478885 204.296386 
L 331.292148 205.919652 
L 332.105411 206.389841 
L 332.918674 207.247512 
L 333.731937 209.180952 
L 334.545199 210.216148 
L 335.358462 210.831861 
L 336.171725 210.312447 
L 336.984988 210.989854 
L 337.798251 212.145616 
L 338.611514 212.941988 
L 339.424777 214.408789 
L 340.23804 215.263262 
L 341.051303 215.585597 
L 341.864565 216.529578 
L 342.677828 217.052241 
L 343.491091 217.754511 
L 344.304354 219.393757 
L 345.117617 220.485125 
L 345.93088 220.916305 
L 346.744143 222.292524 
L 347.557406 222.548279 
L 348.370669 222.403541 
L 349.183931 222.518771 
L 349.997194 224.264144 
L 350.810457 224.532757 
L 351.62372 224.635756 
L 352.436983 226.482257 
L 354.063509 228.380654 
L 354.876772 227.332506 
L 355.690035 227.355457 
L 356.503298 228.10463 
L 357.31656 228.532053 
L 358.129823 228.673519 
L 358.943086 229.059287 
L 359.756349 231.586367 
L 360.569612 231.415405 
L 362.196138 232.102229 
L 363.009401 233.059372 
L 364.635926 234.526961 
L 365.449189 234.783553 
L 366.262452 233.407551 
L 367.075715 233.978925 
L 369.515504 237.872344 
L 370.328767 238.167324 
L 371.14203 237.127629 
L 371.955292 236.901378 
L 372.768555 238.278476 
L 373.581818 237.288631 
L 373.581818 237.288631 
" clip-path="url(#pcff58567bf)" style="fill: none; stroke: #ff7f0e; stroke-width: 1.5; stroke-linecap: square"/>
   </g>
   <g id="patch_3">
    <path d="M 54 256.32 
L 54 34.56 
" style="fill: none; stroke: #000000; stroke-width: 0.8; stroke-linejoin: miter; stroke-linecap: square"/>
   </g>
   <g id="patch_4">
    <path d="M 388.8 256.32 
L 388.8 34.56 
" style="fill: none; stroke: #000000; stroke-width: 0.8; stroke-linejoin: miter; stroke-linecap: square"/>
   </g>
   <g id="patch_5">
    <path d="M 54 256.32 
L 388.8 256.32 
" style="fill: none; stroke: #000000; stroke-width: 0.8; stroke-linejoin: miter; stroke-linecap: square"/>
   </g>
   <g id="patch_6">
    <path d="M 54 34.56 
L 388.8 34.56 
" style="fill: none; stroke: #000000; stroke-width: 0.8; stroke-linejoin: miter; stroke-linecap: square"/>
   </g>
   <g id="legend_1">
    <g id="patch_7">
     <path d="M 377.8 47.56 
L 381.8 47.56 
Q 383.8 47.56 383.8 45.56 
L 383.8 41.56 
Q 383.8 39.56 381.8 39.56 
L 377.8 39.56 
Q 375.8 39.56 375.8 41.56 
L 375.8 45.56 
Q 375.8 47.56 377.8 47.56 
z
" style="fill: #ffffff; opacity: 0.8; stroke: #cccccc; stroke-linejoin: miter"/>
    </g>
   </g>
  </g>
 </g>
 <defs>
  <clipPath id="pcff58567bf">
   <rect x="54" y="34.56" width="334.8" height="221.76"/>
  </clipPath>
 </defs>
</svg>
