<?xml version="1.0" encoding="utf-8" standalone="no"?>
<!DOCTYPE svg PUBLIC "-//W3C//DTD SVG 1.1//EN"
  "http://www.w3.org/Graphics/SVG/1.1/DTD/svg11.dtd">
<svg xmlns:xlink="http://www.w3.org/1999/xlink" width="432pt" height="288pt" viewBox="0 0 432 288" xmlns="http://www.w3.org/2000/svg" version="1.1">
 <metadata>
  <rdf:RDF xmlns:dc="http://purl.org/dc/elements/1.1/" xmlns:cc="http://creativecommons.org/ns#" xmlns:rdf="http://www.w3.org/1999/02/22-rdf-syntax-ns#">
   <cc:Work>
    <dc:type rdf:resource="http://purl.org/dc/dcmitype/StillImage"/>
    <dc:date>2022-08-19T14:05:34.209802</dc:date>
    <dc:format>image/svg+xml</dc:format>
    <dc:creator>
     <cc:Agent>
      <dc:title>Matplotlib v3.5.1, https://matplotlib.org/</dc:title>
     </cc:Agent>
    </dc:creator>
   </cc:Work>
  </rdf:RDF>
 </metadata>
 <defs>
  <style type="text/css">*{stroke-linejoin: round; stroke-linecap: butt}</style>
 </defs>
 <g id="figure_1">
  <g id="patch_1">
   <path d="M 0 288 
L 432 288 
L 432 0 
L 0 0 
z
" style="fill: #ffffff"/>
  </g>
  <g id="axes_1">
   <g id="patch_2">
    <path d="M 54 256.32 
L 388.8 256.32 
L 388.8 34.56 
L 54 34.56 
z
" style="fill: #ffffff"/>
   </g>
   <g id="matplotlib.axis_1">
    <g id="xtick_1">
     <g id="line2d_1">
      <defs>
       <path id="m4399ed5319" d="M 0 0 
L 0 3.5 
" style="stroke: #000000; stroke-width: 0.8"/>
      </defs>
      <g>
       <use xlink:href="#m4399ed5319" x="120.013181" y="256.32" style="stroke: #000000; stroke-width: 0.8"/>
      </g>
     </g>
     <g id="text_1">
      <!-- −10 -->
      <g transform="translate(103.129431 275.4775)scale(0.16 -0.16)">
       <defs>
        <path id="DejaVuSans-2212" d="M 678 2272 
L 4684 2272 
L 4684 1741 
L 678 1741 
L 678 2272 
z
" transform="scale(0.015625)"/>
        <path id="DejaVuSans-31" d="M 794 531 
L 1825 531 
L 1825 4091 
L 703 3866 
L 703 4441 
L 1819 4666 
L 2450 4666 
L 2450 531 
L 3481 531 
L 3481 0 
L 794 0 
L 794 531 
z
" transform="scale(0.015625)"/>
        <path id="DejaVuSans-30" d="M 2034 4250 
Q 1547 4250 1301 3770 
Q 1056 3291 1056 2328 
Q 1056 1369 1301 889 
Q 1547 409 2034 409 
Q 2525 409 2770 889 
Q 3016 1369 3016 2328 
Q 3016 3291 2770 3770 
Q 2525 4250 2034 4250 
z
M 2034 4750 
Q 2819 4750 3233 4129 
Q 3647 3509 3647 2328 
Q 3647 1150 3233 529 
Q 2819 -91 2034 -91 
Q 1250 -91 836 529 
Q 422 1150 422 2328 
Q 422 3509 836 4129 
Q 1250 4750 2034 4750 
z
" transform="scale(0.015625)"/>
       </defs>
       <use xlink:href="#DejaVuSans-2212"/>
       <use xlink:href="#DejaVuSans-31" x="83.789062"/>
       <use xlink:href="#DejaVuSans-30" x="147.412109"/>
      </g>
     </g>
    </g>
    <g id="xtick_2">
     <g id="line2d_2">
      <g>
       <use xlink:href="#m4399ed5319" x="221.60318" y="256.32" style="stroke: #000000; stroke-width: 0.8"/>
      </g>
     </g>
     <g id="text_2">
      <!-- 0 -->
      <g transform="translate(216.51318 275.4775)scale(0.16 -0.16)">
       <use xlink:href="#DejaVuSans-30"/>
      </g>
     </g>
    </g>
    <g id="xtick_3">
     <g id="line2d_3">
      <g>
       <use xlink:href="#m4399ed5319" x="323.193179" y="256.32" style="stroke: #000000; stroke-width: 0.8"/>
      </g>
     </g>
     <g id="text_3">
      <!-- 10 -->
      <g transform="translate(313.013179 275.4775)scale(0.16 -0.16)">
       <use xlink:href="#DejaVuSans-31"/>
       <use xlink:href="#DejaVuSans-30" x="63.623047"/>
      </g>
     </g>
    </g>
   </g>
   <g id="matplotlib.axis_2">
    <g id="ytick_1">
     <g id="line2d_4">
      <defs>
       <path id="m2db8ba05a6" d="M 0 0 
L -3.5 0 
" style="stroke: #000000; stroke-width: 0.8"/>
      </defs>
      <g>
       <use xlink:href="#m2db8ba05a6" x="54" y="246.24" style="stroke: #000000; stroke-width: 0.8"/>
      </g>
     </g>
     <g id="text_4">
      <!-- 0.0 -->
      <g transform="translate(21.555 252.31875)scale(0.16 -0.16)">
       <defs>
        <path id="DejaVuSans-2e" d="M 684 794 
L 1344 794 
L 1344 0 
L 684 0 
L 684 794 
z
" transform="scale(0.015625)"/>
       </defs>
       <use xlink:href="#DejaVuSans-30"/>
       <use xlink:href="#DejaVuSans-2e" x="63.623047"/>
       <use xlink:href="#DejaVuSans-30" x="95.410156"/>
      </g>
     </g>
    </g>
    <g id="ytick_2">
     <g id="line2d_5">
      <g>
       <use xlink:href="#m2db8ba05a6" x="54" y="205.92" style="stroke: #000000; stroke-width: 0.8"/>
      </g>
     </g>
     <g id="text_5">
      <!-- 0.2 -->
      <g transform="translate(21.555 211.99875)scale(0.16 -0.16)">
       <defs>
        <path id="DejaVuSans-32" d="M 1228 531 
L 3431 531 
L 3431 0 
L 469 0 
L 469 531 
Q 828 903 1448 1529 
Q 2069 2156 2228 2338 
Q 2531 2678 2651 2914 
Q 2772 3150 2772 3378 
Q 2772 3750 2511 3984 
Q 2250 4219 1831 4219 
Q 1534 4219 1204 4116 
Q 875 4013 500 3803 
L 500 4441 
Q 881 4594 1212 4672 
Q 1544 4750 1819 4750 
Q 2544 4750 2975 4387 
Q 3406 4025 3406 3419 
Q 3406 3131 3298 2873 
Q 3191 2616 2906 2266 
Q 2828 2175 2409 1742 
Q 1991 1309 1228 531 
z
" transform="scale(0.015625)"/>
       </defs>
       <use xlink:href="#DejaVuSans-30"/>
       <use xlink:href="#DejaVuSans-2e" x="63.623047"/>
       <use xlink:href="#DejaVuSans-32" x="95.410156"/>
      </g>
     </g>
    </g>
    <g id="ytick_3">
     <g id="line2d_6">
      <g>
       <use xlink:href="#m2db8ba05a6" x="54" y="165.6" style="stroke: #000000; stroke-width: 0.8"/>
      </g>
     </g>
     <g id="text_6">
      <!-- 0.4 -->
      <g transform="translate(21.555 171.67875)scale(0.16 -0.16)">
       <defs>
        <path id="DejaVuSans-34" d="M 2419 4116 
L 825 1625 
L 2419 1625 
L 2419 4116 
z
M 2253 4666 
L 3047 4666 
L 3047 1625 
L 3713 1625 
L 3713 1100 
L 3047 1100 
L 3047 0 
L 2419 0 
L 2419 1100 
L 313 1100 
L 313 1709 
L 2253 4666 
z
" transform="scale(0.015625)"/>
       </defs>
       <use xlink:href="#DejaVuSans-30"/>
       <use xlink:href="#DejaVuSans-2e" x="63.623047"/>
       <use xlink:href="#DejaVuSans-34" x="95.410156"/>
      </g>
     </g>
    </g>
    <g id="ytick_4">
     <g id="line2d_7">
      <g>
       <use xlink:href="#m2db8ba05a6" x="54" y="125.28" style="stroke: #000000; stroke-width: 0.8"/>
      </g>
     </g>
     <g id="text_7">
      <!-- 0.6 -->
      <g transform="translate(21.555 131.35875)scale(0.16 -0.16)">
       <defs>
        <path id="DejaVuSans-36" d="M 2113 2584 
Q 1688 2584 1439 2293 
Q 1191 2003 1191 1497 
Q 1191 994 1439 701 
Q 1688 409 2113 409 
Q 2538 409 2786 701 
Q 3034 994 3034 1497 
Q 3034 2003 2786 2293 
Q 2538 2584 2113 2584 
z
M 3366 4563 
L 3366 3988 
Q 3128 4100 2886 4159 
Q 2644 4219 2406 4219 
Q 1781 4219 1451 3797 
Q 1122 3375 1075 2522 
Q 1259 2794 1537 2939 
Q 1816 3084 2150 3084 
Q 2853 3084 3261 2657 
Q 3669 2231 3669 1497 
Q 3669 778 3244 343 
Q 2819 -91 2113 -91 
Q 1303 -91 875 529 
Q 447 1150 447 2328 
Q 447 3434 972 4092 
Q 1497 4750 2381 4750 
Q 2619 4750 2861 4703 
Q 3103 4656 3366 4563 
z
" transform="scale(0.015625)"/>
       </defs>
       <use xlink:href="#DejaVuSans-30"/>
       <use xlink:href="#DejaVuSans-2e" x="63.623047"/>
       <use xlink:href="#DejaVuSans-36" x="95.410156"/>
      </g>
     </g>
    </g>
    <g id="ytick_5">
     <g id="line2d_8">
      <g>
       <use xlink:href="#m2db8ba05a6" x="54" y="84.96" style="stroke: #000000; stroke-width: 0.8"/>
      </g>
     </g>
     <g id="text_8">
      <!-- 0.8 -->
      <g transform="translate(21.555 91.03875)scale(0.16 -0.16)">
       <defs>
        <path id="DejaVuSans-38" d="M 2034 2216 
Q 1584 2216 1326 1975 
Q 1069 1734 1069 1313 
Q 1069 891 1326 650 
Q 1584 409 2034 409 
Q 2484 409 2743 651 
Q 3003 894 3003 1313 
Q 3003 1734 2745 1975 
Q 2488 2216 2034 2216 
z
M 1403 2484 
Q 997 2584 770 2862 
Q 544 3141 544 3541 
Q 544 4100 942 4425 
Q 1341 4750 2034 4750 
Q 2731 4750 3128 4425 
Q 3525 4100 3525 3541 
Q 3525 3141 3298 2862 
Q 3072 2584 2669 2484 
Q 3125 2378 3379 2068 
Q 3634 1759 3634 1313 
Q 3634 634 3220 271 
Q 2806 -91 2034 -91 
Q 1263 -91 848 271 
Q 434 634 434 1313 
Q 434 1759 690 2068 
Q 947 2378 1403 2484 
z
M 1172 3481 
Q 1172 3119 1398 2916 
Q 1625 2713 2034 2713 
Q 2441 2713 2670 2916 
Q 2900 3119 2900 3481 
Q 2900 3844 2670 4047 
Q 2441 4250 2034 4250 
Q 1625 4250 1398 4047 
Q 1172 3844 1172 3481 
z
" transform="scale(0.015625)"/>
       </defs>
       <use xlink:href="#DejaVuSans-30"/>
       <use xlink:href="#DejaVuSans-2e" x="63.623047"/>
       <use xlink:href="#DejaVuSans-38" x="95.410156"/>
      </g>
     </g>
    </g>
    <g id="ytick_6">
     <g id="line2d_9">
      <g>
       <use xlink:href="#m2db8ba05a6" x="54" y="44.64" style="stroke: #000000; stroke-width: 0.8"/>
      </g>
     </g>
     <g id="text_9">
      <!-- 1.0 -->
      <g transform="translate(21.555 50.71875)scale(0.16 -0.16)">
       <use xlink:href="#DejaVuSans-31"/>
       <use xlink:href="#DejaVuSans-2e" x="63.623047"/>
       <use xlink:href="#DejaVuSans-30" x="95.410156"/>
      </g>
     </g>
    </g>
   </g>
   <g id="line2d_10">
    <path d="M 104.774681 243.908368 
L 105.485811 243.422317 
L 106.196941 241.570471 
L 107.619201 241.904586 
L 108.330331 242.485007 
L 109.041461 240.80532 
L 109.752591 240.50988 
L 110.463721 242.149076 
L 111.174851 242.391862 
L 111.885981 242.174324 
L 112.597111 242.849227 
L 113.308241 241.607906 
L 114.019371 242.933425 
L 114.730501 243.144098 
L 115.441631 242.826594 
L 116.863891 243.453102 
L 117.575021 241.344059 
L 118.286151 241.560042 
L 118.997281 242.206366 
L 119.708411 242.182468 
L 120.419541 242.310999 
L 121.130671 244.110139 
L 121.841801 243.139843 
L 122.552931 239.709897 
L 123.264061 240.924045 
L 123.975191 243.600719 
L 124.686321 240.015878 
L 125.397451 242.378827 
L 126.108581 242.067762 
L 126.819711 241.935156 
L 127.530841 242.619055 
L 128.241971 241.478565 
L 128.953101 241.903076 
L 129.664231 240.324342 
L 130.375361 240.245559 
L 131.086491 240.295114 
L 131.797621 241.868421 
L 132.508751 242.045103 
L 133.219881 244.532201 
L 133.931011 242.820263 
L 134.642141 242.418982 
L 135.353271 243.268009 
L 136.775531 244.444396 
L 137.486661 243.03892 
L 138.197791 243.542586 
L 138.908921 244.794513 
L 139.620051 243.211409 
L 140.331181 243.825638 
L 141.042311 240.483993 
L 141.753441 242.238654 
L 142.464571 241.942267 
L 143.175701 239.789793 
L 143.886831 242.212362 
L 144.597961 243.975759 
L 145.309091 240.939368 
L 146.020221 241.420638 
L 146.731351 240.801329 
L 147.442481 242.70099 
L 148.153611 243.292901 
L 148.864741 240.959416 
L 149.575871 241.149878 
L 150.287001 241.590231 
L 150.998131 241.787737 
L 151.709261 243.096825 
L 153.131521 240.244849 
L 153.842651 240.801628 
L 154.553781 243.318409 
L 155.264911 242.759961 
L 155.976041 241.512046 
L 157.398301 242.723564 
L 158.109431 242.350989 
L 159.531691 239.761619 
L 160.242821 241.657653 
L 160.953951 241.65983 
L 161.665081 238.976483 
L 162.376211 240.606941 
L 163.087341 240.316857 
L 163.798471 242.411531 
L 164.509601 240.765062 
L 165.220731 240.041883 
L 165.931861 238.834766 
L 166.642991 240.80216 
L 167.354121 239.726553 
L 168.065251 237.566233 
L 168.776381 239.963931 
L 169.487511 240.099122 
L 170.198641 239.312549 
L 170.909771 237.526038 
L 171.620901 238.667304 
L 172.332031 239.27545 
L 173.043161 241.367921 
L 173.754291 240.021021 
L 174.465421 238.077016 
L 175.176551 237.023665 
L 175.887681 235.29291 
L 176.598811 237.220838 
L 177.309941 237.208662 
L 178.021071 236.413159 
L 179.443331 236.773785 
L 180.15446 236.388465 
L 180.86559 235.296551 
L 181.57672 233.657099 
L 182.28785 234.602815 
L 182.99898 232.496303 
L 183.71011 232.608156 
L 185.13237 230.465809 
L 185.8435 231.038391 
L 186.55463 230.402941 
L 187.26576 227.623665 
L 187.97689 226.994992 
L 188.68802 227.474617 
L 189.39915 226.477043 
L 190.82141 220.132978 
L 191.53254 220.150515 
L 192.24367 218.492282 
L 192.9548 215.835231 
L 193.66593 215.12787 
L 194.37706 217.038682 
L 195.08819 213.398287 
L 195.79932 212.869044 
L 197.22158 204.44491 
L 197.93271 203.100577 
L 198.64384 200.024236 
L 199.35497 198.335682 
L 200.0661 197.847291 
L 200.77723 195.321511 
L 201.48836 189.336522 
L 202.19949 187.363261 
L 203.62175 178.294548 
L 204.33288 179.26939 
L 205.04401 181.017566 
L 205.75514 181.902704 
L 206.46627 170.684828 
L 207.1774 162.738227 
L 208.59966 154.864079 
L 210.02192 138.445558 
L 210.73305 135.404457 
L 212.15531 125.553638 
L 212.86644 123.292085 
L 213.57757 119.458975 
L 214.2887 108.886599 
L 214.99983 100.140848 
L 215.71096 92.900355 
L 217.13322 75.39183 
L 217.84435 68.838288 
L 219.26661 58.840096 
L 219.97774 54.715407 
L 220.68887 47.978454 
L 221.4 44.64 
L 222.11113 47.721805 
L 222.82226 46.812195 
L 224.24452 50.295954 
L 224.95565 53.521173 
L 225.66678 59.541288 
L 227.08904 78.838706 
L 228.5113 95.429828 
L 229.22243 105.183986 
L 231.35582 124.474963 
L 232.77808 149.112572 
L 233.48921 158.45918 
L 234.20034 163.494195 
L 235.6226 178.170433 
L 237.04486 185.468081 
L 237.75599 193.558245 
L 238.46712 195.528526 
L 239.17825 204.065107 
L 239.88938 208.671618 
L 240.60051 209.624698 
L 241.31164 212.653247 
L 242.02277 214.59555 
L 242.7339 221.066461 
L 243.44503 223.002727 
L 244.15616 223.202367 
L 244.86729 226.896862 
L 245.57842 226.195924 
L 246.28955 225.654961 
L 247.00068 228.681374 
L 248.42294 232.376574 
L 249.13407 237.124459 
L 249.8452 235.520005 
L 250.55633 235.237346 
L 251.26746 235.858083 
L 251.97859 235.99049 
L 252.68972 237.125532 
L 253.40085 236.334427 
L 254.11198 236.812267 
L 254.82311 242.322439 
L 255.53424 239.881628 
L 256.24537 241.52837 
L 256.9565 237.602288 
L 257.66763 239.215702 
L 258.37876 240.120352 
L 259.08989 240.218579 
L 259.80102 240.43535 
L 260.51215 242.761904 
L 261.22328 241.15 
L 261.93441 239.98968 
L 262.64554 241.578027 
L 263.356669 240.89923 
L 264.067799 239.484516 
L 264.778929 239.718594 
L 265.490059 239.791314 
L 266.201189 241.157905 
L 266.912319 238.41329 
L 267.623449 240.215706 
L 268.334579 240.363722 
L 269.045709 244.07175 
L 269.756839 242.903592 
L 270.467969 240.730953 
L 271.179099 241.548182 
L 271.890229 241.627198 
L 272.601359 241.095488 
L 273.312489 241.247575 
L 274.023619 240.66495 
L 274.734749 240.231187 
L 275.445879 242.577319 
L 276.157009 243.266141 
L 276.868139 242.06442 
L 277.579269 239.754396 
L 278.290399 240.339734 
L 279.001529 242.733538 
L 279.712659 240.916714 
L 280.423789 241.737582 
L 281.134919 239.631027 
L 281.846049 240.455369 
L 282.557179 246.24 
L 283.268309 243.409685 
L 283.979439 243.895686 
L 284.690569 242.90368 
L 285.401699 241.417506 
L 286.112829 242.261427 
L 287.535089 240.674483 
L 288.246219 243.084443 
L 288.957349 241.062177 
L 289.668479 244.127455 
L 290.379609 243.860895 
L 291.801869 242.235882 
L 292.512999 240.805391 
L 293.224129 239.65592 
L 293.935259 242.770895 
L 294.646389 243.053192 
L 295.357519 243.978081 
L 296.068649 243.504243 
L 297.490909 239.305428 
L 298.202039 240.696881 
L 298.913169 241.715706 
L 299.624299 241.290658 
L 300.335429 241.499899 
L 301.046559 240.176671 
L 301.757689 240.466998 
L 303.179949 242.911905 
L 303.891079 242.845404 
L 304.602209 243.019502 
L 306.024469 242.158245 
L 306.735599 241.842852 
L 307.446729 240.837081 
L 308.157859 242.120852 
L 308.868989 243.697753 
L 309.580119 241.369871 
L 310.291249 242.308253 
L 311.002379 241.627947 
L 311.713509 239.391878 
L 312.424639 240.531896 
L 313.135769 241.372368 
L 313.846899 243.574442 
L 315.269159 242.254006 
L 315.980289 241.138995 
L 316.691419 241.96798 
L 317.402549 243.151683 
L 318.113679 240.774702 
L 318.824809 244.125457 
L 319.535939 244.210227 
L 320.247069 242.395308 
L 320.958199 243.560195 
L 321.669329 240.530447 
L 322.380459 239.582251 
L 323.091589 243.192412 
L 323.802719 243.854696 
L 325.224979 241.202039 
L 325.936109 242.922919 
L 326.647239 242.359907 
L 327.358369 244.121877 
L 328.069499 242.506555 
L 328.780629 244.86114 
L 329.491759 244.133227 
L 330.202889 241.778315 
L 330.914019 242.063649 
L 331.625149 241.545891 
L 332.336279 240.036252 
L 333.047409 240.301005 
L 334.469669 240.370007 
L 335.180799 240.829663 
L 335.891929 240.165098 
L 336.603059 241.246892 
L 337.314189 241.382389 
L 338.025319 240.50372 
L 339.447579 241.781699 
L 340.158709 241.765584 
L 340.869839 242.132099 
L 341.580969 242.095815 
L 342.292099 243.788359 
L 343.003229 242.692291 
L 343.714359 240.055244 
L 344.425489 238.773559 
L 345.136619 240.65592 
L 345.847749 239.902341 
L 346.558879 241.176914 
L 347.270008 241.300836 
L 347.981138 244.213908 
L 348.692268 243.864715 
L 349.403398 239.975541 
L 350.114528 239.269505 
L 350.825658 241.413399 
L 351.536788 241.309194 
L 352.247918 241.468236 
L 352.959048 242.686656 
L 354.381308 244.357311 
L 355.092438 241.444101 
L 355.803568 243.101672 
L 357.225828 241.834134 
L 357.936958 241.994538 
L 359.359218 243.719746 
L 360.070348 242.654893 
L 360.781478 239.921593 
L 361.492608 240.573731 
L 362.203738 242.332165 
L 362.914868 243.731402 
L 363.625998 240.858575 
L 364.337128 242.882459 
L 365.048258 241.387254 
L 365.759388 241.714685 
L 366.470518 242.986487 
L 367.181648 243.344178 
L 367.892778 240.803948 
L 368.603908 241.994529 
L 369.315038 242.572762 
L 370.026168 239.037391 
L 370.737298 238.226779 
L 371.448428 240.405383 
L 372.159558 239.742242 
L 372.870688 240.502031 
L 373.581818 240.046266 
L 373.581818 240.046266 
" clip-path="url(#pd5e3b4136b)" style="fill: none; stroke: #1f77b4; stroke-width: 1.5; stroke-linecap: square"/>
   </g>
   <g id="line2d_11">
    <path d="M 69.218182 244.577622 
L 70.234082 245.347455 
L 71.249982 243.73321 
L 72.265882 244.175942 
L 73.281782 245.489991 
L 74.297682 244.438462 
L 75.313582 243.643806 
L 76.329482 242.468438 
L 77.345382 242.496918 
L 78.361282 243.684325 
L 79.377182 243.637062 
L 80.393082 244.294702 
L 81.408982 242.436784 
L 82.424882 243.173378 
L 83.440782 243.627522 
L 84.456682 243.759384 
L 85.472582 243.200115 
L 86.488482 244.624777 
L 87.504382 244.060655 
L 88.520282 242.574609 
L 89.536182 243.381131 
L 90.552082 243.981312 
L 91.567982 242.115742 
L 92.583882 239.969585 
L 93.599782 240.895189 
L 94.615682 241.154427 
L 95.631582 242.084771 
L 97.663381 243.267717 
L 98.679281 243.97667 
L 99.695181 242.611766 
L 100.711081 242.719294 
L 101.726981 243.116998 
L 102.742881 244.274037 
L 103.758781 241.487354 
L 104.774681 239.913196 
L 105.790581 242.4714 
L 106.806481 242.291568 
L 107.822381 242.499496 
L 108.838281 241.774731 
L 109.854181 242.51725 
L 110.870081 244.229954 
L 111.885981 242.769522 
L 112.901881 241.552648 
L 113.917781 242.84218 
L 114.933681 242.054109 
L 115.949581 242.815377 
L 116.965481 242.40784 
L 117.981381 241.766702 
L 118.997281 241.969909 
L 120.013181 241.334711 
L 121.029081 241.148517 
L 122.044981 242.300535 
L 123.060881 241.986045 
L 124.076781 239.677997 
L 125.092681 241.198042 
L 126.108581 240.669777 
L 127.124481 240.445726 
L 128.140381 239.394621 
L 129.156281 242.639118 
L 130.172181 241.906961 
L 131.188081 240.802171 
L 132.203981 239.446641 
L 133.219881 238.861762 
L 134.235781 237.685817 
L 135.251681 237.989856 
L 136.267581 239.272343 
L 137.283481 238.054399 
L 138.299381 236.144404 
L 139.315281 236.966398 
L 140.331181 236.968921 
L 141.347081 235.091146 
L 142.362981 234.976047 
L 143.378881 234.380266 
L 144.394781 236.181263 
L 145.410681 233.771045 
L 146.426581 230.316043 
L 147.442481 229.778547 
L 148.458381 228.061035 
L 149.474281 229.681499 
L 150.490181 230.466814 
L 151.506081 226.979962 
L 152.521981 224.437533 
L 153.537881 224.467388 
L 154.553781 225.120203 
L 155.569681 223.839093 
L 156.585581 219.143664 
L 157.601481 219.007523 
L 159.633281 220.208056 
L 160.649181 217.491233 
L 161.665081 217.514344 
L 162.680981 216.779909 
L 163.696881 214.500087 
L 164.712781 209.981554 
L 165.728681 209.898656 
L 166.744581 209.967714 
L 167.760481 208.769385 
L 169.792281 200.896052 
L 170.808181 198.745486 
L 171.824081 196.266318 
L 172.839981 194.808975 
L 173.855881 194.64934 
L 174.871781 192.531107 
L 175.887681 188.724348 
L 176.903581 187.0998 
L 177.919481 187.65435 
L 178.935381 184.937059 
L 179.95128 180.087948 
L 180.96718 176.970022 
L 181.98308 179.095239 
L 182.99898 174.218633 
L 185.03078 168.770504 
L 186.04668 165.671832 
L 187.06258 163.245626 
L 189.09438 153.871493 
L 190.11028 151.067243 
L 191.12618 150.74382 
L 192.14208 147.936207 
L 193.15798 140.695077 
L 194.17388 137.544275 
L 196.20568 130.086984 
L 197.22158 127.804821 
L 198.23748 121.799149 
L 199.25338 116.926403 
L 200.26928 110.535837 
L 201.28518 107.257936 
L 202.30108 103.205566 
L 203.31698 99.753697 
L 204.33288 97.289988 
L 205.34878 93.948498 
L 206.36468 87.886414 
L 207.38058 83.003982 
L 208.39648 78.875633 
L 209.41238 76.727426 
L 210.42828 73.084054 
L 211.44418 68.593066 
L 212.46008 68.106766 
L 213.47598 67.099813 
L 214.49188 60.047273 
L 215.50778 57.377696 
L 216.52368 51.403687 
L 217.53958 48.575042 
L 218.55548 47.863768 
L 219.57138 47.527125 
L 220.58728 44.64 
L 221.60318 45.940888 
L 222.61908 45.845992 
L 223.63498 46.257759 
L 224.65088 45.708993 
L 225.66678 46.968918 
L 226.68268 49.484266 
L 228.71448 55.794314 
L 229.73038 59.902252 
L 230.74628 61.756272 
L 231.76218 64.379695 
L 232.77808 70.491403 
L 233.79398 71.851281 
L 234.80988 79.009218 
L 235.82578 82.219704 
L 236.84168 84.980432 
L 237.85758 92.678216 
L 238.87348 96.287781 
L 239.88938 103.339337 
L 240.90528 109.518347 
L 241.92118 113.229956 
L 242.93708 118.984812 
L 243.95298 126.718565 
L 244.96888 131.959993 
L 245.98478 135.869235 
L 247.00068 139.318814 
L 249.03248 148.074882 
L 251.06428 161.479941 
L 252.08018 162.437776 
L 253.09608 166.189454 
L 254.11198 170.732061 
L 255.12788 179.997096 
L 256.14378 184.775308 
L 257.15968 187.166433 
L 258.17558 188.412741 
L 259.19148 191.163279 
L 260.20738 197.702142 
L 261.22328 202.378002 
L 262.23918 204.24907 
L 264.270979 213.4907 
L 265.286879 214.157109 
L 266.302779 215.668772 
L 267.318679 215.927355 
L 269.350479 222.257514 
L 270.366379 224.053827 
L 271.382279 223.075636 
L 272.398179 224.559195 
L 273.414079 225.54869 
L 274.429979 227.329114 
L 275.445879 231.374584 
L 276.461779 233.110849 
L 277.477679 233.384162 
L 278.493579 233.785081 
L 279.509479 233.834684 
L 280.525379 234.932141 
L 281.541279 238.235837 
L 282.557179 238.558672 
L 283.573079 238.670044 
L 284.588979 240.833099 
L 285.604879 238.385197 
L 286.620779 239.422188 
L 287.636679 241.032199 
L 288.652579 241.12987 
L 289.668479 241.346139 
L 290.684379 241.382264 
L 291.700279 242.070426 
L 292.716179 243.075401 
L 293.732079 242.281134 
L 295.763879 242.684483 
L 296.779779 241.316454 
L 297.795679 241.902492 
L 298.811579 243.028108 
L 300.843379 243.356303 
L 301.859279 243.601571 
L 302.875179 243.574839 
L 303.891079 241.764181 
L 304.906979 243.668 
L 305.922879 244.691725 
L 306.938779 244.606402 
L 307.954679 244.865274 
L 308.970579 243.524308 
L 309.986479 244.864557 
L 311.002379 241.471562 
L 312.018279 243.08511 
L 313.034179 243.414426 
L 314.050079 244.155604 
L 315.065979 244.378047 
L 316.081879 245.404724 
L 317.097779 244.185823 
L 318.113679 243.363091 
L 319.129579 243.417476 
L 320.145479 244.49989 
L 321.161379 244.297686 
L 322.177279 244.556252 
L 323.193179 242.391459 
L 325.224979 244.762129 
L 327.256779 244.257641 
L 328.272679 244.981036 
L 329.288579 244.267644 
L 330.304479 243.102737 
L 331.320379 244.045045 
L 332.336279 246.24 
L 333.352179 244.597403 
L 334.368079 244.131686 
L 335.383979 243.982993 
L 336.399879 242.208459 
L 337.415779 243.203419 
L 338.431679 243.499204 
L 339.447579 244.187019 
L 340.463479 244.326109 
L 341.479379 243.741082 
L 342.495279 243.417223 
L 343.511179 242.248856 
L 344.527079 243.204724 
L 345.542979 243.171054 
L 348.590678 242.581482 
L 349.606578 243.044113 
L 350.622478 244.382806 
L 351.638378 244.539247 
L 352.654278 243.396025 
L 353.670178 243.470672 
L 354.686078 243.252657 
L 355.701978 242.507848 
L 356.717878 242.17734 
L 357.733778 244.214327 
L 358.749678 244.582323 
L 359.765578 243.095522 
L 360.781478 243.072574 
L 361.797378 242.165597 
L 362.813278 242.978106 
L 363.829178 243.452468 
L 364.845078 240.500606 
L 365.860978 239.957818 
L 366.876878 240.483772 
L 367.892778 241.880698 
L 368.908678 242.402493 
L 369.924578 241.195319 
L 370.940478 240.464593 
L 371.956378 243.691732 
L 372.972278 242.463672 
L 372.972278 242.463672 
" clip-path="url(#pd5e3b4136b)" style="fill: none; stroke: #ff7f0e; stroke-width: 1.5; stroke-linecap: square"/>
   </g>
   <g id="patch_3">
    <path d="M 54 256.32 
L 54 34.56 
" style="fill: none; stroke: #000000; stroke-width: 0.8; stroke-linejoin: miter; stroke-linecap: square"/>
   </g>
   <g id="patch_4">
    <path d="M 388.8 256.32 
L 388.8 34.56 
" style="fill: none; stroke: #000000; stroke-width: 0.8; stroke-linejoin: miter; stroke-linecap: square"/>
   </g>
   <g id="patch_5">
    <path d="M 54 256.32 
L 388.8 256.32 
" style="fill: none; stroke: #000000; stroke-width: 0.8; stroke-linejoin: miter; stroke-linecap: square"/>
   </g>
   <g id="patch_6">
    <path d="M 54 34.56 
L 388.8 34.56 
" style="fill: none; stroke: #000000; stroke-width: 0.8; stroke-linejoin: miter; stroke-linecap: square"/>
   </g>
   <g id="legend_1">
    <g id="patch_7">
     <path d="M 377.8 47.56 
L 381.8 47.56 
Q 383.8 47.56 383.8 45.56 
L 383.8 41.56 
Q 383.8 39.56 381.8 39.56 
L 377.8 39.56 
Q 375.8 39.56 375.8 41.56 
L 375.8 45.56 
Q 375.8 47.56 377.8 47.56 
z
" style="fill: #ffffff; opacity: 0.8; stroke: #cccccc; stroke-linejoin: miter"/>
    </g>
   </g>
  </g>
 </g>
 <defs>
  <clipPath id="pd5e3b4136b">
   <rect x="54" y="34.56" width="334.8" height="221.76"/>
  </clipPath>
 </defs>
</svg>
