<?xml version="1.0" encoding="utf-8" standalone="no"?>
<!DOCTYPE svg PUBLIC "-//W3C//DTD SVG 1.1//EN"
  "http://www.w3.org/Graphics/SVG/1.1/DTD/svg11.dtd">
<svg xmlns:xlink="http://www.w3.org/1999/xlink" width="324pt" height="216pt" viewBox="0 0 324 216" xmlns="http://www.w3.org/2000/svg" version="1.1">
 <metadata>
  <rdf:RDF xmlns:dc="http://purl.org/dc/elements/1.1/" xmlns:cc="http://creativecommons.org/ns#" xmlns:rdf="http://www.w3.org/1999/02/22-rdf-syntax-ns#">
   <cc:Work>
    <dc:type rdf:resource="http://purl.org/dc/dcmitype/StillImage"/>
    <dc:date>2022-09-02T13:50:34.544525</dc:date>
    <dc:format>image/svg+xml</dc:format>
    <dc:creator>
     <cc:Agent>
      <dc:title>Matplotlib v3.5.1, https://matplotlib.org/</dc:title>
     </cc:Agent>
    </dc:creator>
   </cc:Work>
  </rdf:RDF>
 </metadata>
 <defs>
  <style type="text/css">*{stroke-linejoin: round; stroke-linecap: butt}</style>
 </defs>
 <g id="figure_1">
  <g id="patch_1">
   <path d="M 0 216 
L 324 216 
L 324 0 
L 0 0 
z
" style="fill: #ffffff"/>
  </g>
  <g id="axes_1">
   <g id="patch_2">
    <path d="M 40.5 192.24 
L 291.6 192.24 
L 291.6 25.92 
L 40.5 25.92 
z
" style="fill: #ffffff"/>
   </g>
   <g id="matplotlib.axis_1">
    <g id="xtick_1">
     <g id="line2d_1">
      <defs>
       <path id="m01ba8b9c69" d="M 0 0 
L 0 3.5 
" style="stroke: #000000; stroke-width: 0.8"/>
      </defs>
      <g>
       <use xlink:href="#m01ba8b9c69" x="92.71385" y="192.24" style="stroke: #000000; stroke-width: 0.8"/>
      </g>
     </g>
     <g id="text_1">
      <!-- −50 -->
      <g transform="translate(75.8301 211.3975)scale(0.16 -0.16)">
       <defs>
        <path id="DejaVuSans-2212" d="M 678 2272 
L 4684 2272 
L 4684 1741 
L 678 1741 
L 678 2272 
z
" transform="scale(0.015625)"/>
        <path id="DejaVuSans-35" d="M 691 4666 
L 3169 4666 
L 3169 4134 
L 1269 4134 
L 1269 2991 
Q 1406 3038 1543 3061 
Q 1681 3084 1819 3084 
Q 2600 3084 3056 2656 
Q 3513 2228 3513 1497 
Q 3513 744 3044 326 
Q 2575 -91 1722 -91 
Q 1428 -91 1123 -41 
Q 819 9 494 109 
L 494 744 
Q 775 591 1075 516 
Q 1375 441 1709 441 
Q 2250 441 2565 725 
Q 2881 1009 2881 1497 
Q 2881 1984 2565 2268 
Q 2250 2553 1709 2553 
Q 1456 2553 1204 2497 
Q 953 2441 691 2322 
L 691 4666 
z
" transform="scale(0.015625)"/>
        <path id="DejaVuSans-30" d="M 2034 4250 
Q 1547 4250 1301 3770 
Q 1056 3291 1056 2328 
Q 1056 1369 1301 889 
Q 1547 409 2034 409 
Q 2525 409 2770 889 
Q 3016 1369 3016 2328 
Q 3016 3291 2770 3770 
Q 2525 4250 2034 4250 
z
M 2034 4750 
Q 2819 4750 3233 4129 
Q 3647 3509 3647 2328 
Q 3647 1150 3233 529 
Q 2819 -91 2034 -91 
Q 1250 -91 836 529 
Q 422 1150 422 2328 
Q 422 3509 836 4129 
Q 1250 4750 2034 4750 
z
" transform="scale(0.015625)"/>
       </defs>
       <use xlink:href="#DejaVuSans-2212"/>
       <use xlink:href="#DejaVuSans-35" x="83.789062"/>
       <use xlink:href="#DejaVuSans-30" x="147.412109"/>
      </g>
     </g>
    </g>
    <g id="xtick_2">
     <g id="line2d_2">
      <g>
       <use xlink:href="#m01ba8b9c69" x="167.166794" y="192.24" style="stroke: #000000; stroke-width: 0.8"/>
      </g>
     </g>
     <g id="text_2">
      <!-- 0 -->
      <g transform="translate(162.076794 211.3975)scale(0.16 -0.16)">
       <use xlink:href="#DejaVuSans-30"/>
      </g>
     </g>
    </g>
    <g id="xtick_3">
     <g id="line2d_3">
      <g>
       <use xlink:href="#m01ba8b9c69" x="241.619738" y="192.24" style="stroke: #000000; stroke-width: 0.8"/>
      </g>
     </g>
     <g id="text_3">
      <!-- 50 -->
      <g transform="translate(231.439738 211.3975)scale(0.16 -0.16)">
       <use xlink:href="#DejaVuSans-35"/>
       <use xlink:href="#DejaVuSans-30" x="63.623047"/>
      </g>
     </g>
    </g>
   </g>
   <g id="matplotlib.axis_2">
    <g id="ytick_1">
     <g id="line2d_4">
      <defs>
       <path id="mf52e30d091" d="M 0 0 
L -3.5 0 
" style="stroke: #000000; stroke-width: 0.8"/>
      </defs>
      <g>
       <use xlink:href="#mf52e30d091" x="40.5" y="150.383007" style="stroke: #000000; stroke-width: 0.8"/>
      </g>
     </g>
     <g id="text_4">
      <!-- −1 -->
      <g transform="translate(9.9125 156.461757)scale(0.16 -0.16)">
       <defs>
        <path id="DejaVuSans-31" d="M 794 531 
L 1825 531 
L 1825 4091 
L 703 3866 
L 703 4441 
L 1819 4666 
L 2450 4666 
L 2450 531 
L 3481 531 
L 3481 0 
L 794 0 
L 794 531 
z
" transform="scale(0.015625)"/>
       </defs>
       <use xlink:href="#DejaVuSans-2212"/>
       <use xlink:href="#DejaVuSans-31" x="83.789062"/>
      </g>
     </g>
    </g>
    <g id="ytick_2">
     <g id="line2d_5">
      <g>
       <use xlink:href="#mf52e30d091" x="40.5" y="101.645251" style="stroke: #000000; stroke-width: 0.8"/>
      </g>
     </g>
     <g id="text_5">
      <!-- 0 -->
      <g transform="translate(23.32 107.724001)scale(0.16 -0.16)">
       <use xlink:href="#DejaVuSans-30"/>
      </g>
     </g>
    </g>
    <g id="ytick_3">
     <g id="line2d_6">
      <g>
       <use xlink:href="#mf52e30d091" x="40.5" y="52.907495" style="stroke: #000000; stroke-width: 0.8"/>
      </g>
     </g>
     <g id="text_6">
      <!-- 1 -->
      <g transform="translate(23.32 58.986245)scale(0.16 -0.16)">
       <use xlink:href="#DejaVuSans-31"/>
      </g>
     </g>
    </g>
   </g>
   <g id="line2d_7">
    <path d="M 280.186364 103.916142 
L 279.144022 103.582381 
L 278.101681 103.585351 
L 277.05934 103.764977 
L 274.974658 103.846622 
L 273.932316 103.880844 
L 272.889975 103.694391 
L 271.847634 103.383085 
L 270.805293 103.40442 
L 269.762951 103.647887 
L 267.678269 103.655358 
L 266.635928 103.754213 
L 261.424222 103.309606 
L 259.339539 103.755854 
L 258.297198 103.782801 
L 257.254857 103.642784 
L 255.170174 103.671634 
L 254.127833 103.311088 
L 253.085492 103.068531 
L 251.000809 103.05213 
L 249.958468 102.917156 
L 248.916127 102.894238 
L 246.831445 103.241068 
L 245.789103 103.444955 
L 243.704421 103.521731 
L 242.66208 103.552599 
L 240.577397 103.139753 
L 237.450374 103.645516 
L 236.408032 103.440584 
L 234.32335 103.378099 
L 233.281009 103.743847 
L 232.238667 103.91091 
L 225.98462 103.567839 
L 223.899938 103.581119 
L 220.772914 103.236376 
L 218.688232 103.216027 
L 217.64589 103.06382 
L 214.518867 103.20822 
L 213.476526 103.113271 
L 212.434184 103.205043 
L 211.391843 103.151605 
L 210.349502 102.640817 
L 209.307161 102.349314 
L 207.222478 103.11309 
L 206.180137 103.201096 
L 205.137796 102.974102 
L 204.095455 102.54029 
L 199.92609 101.534678 
L 196.799066 100.956554 
L 195.756725 100.44101 
L 191.58736 99.348674 
L 190.545019 98.775727 
L 189.502677 98.523829 
L 187.417995 98.382453 
L 186.375654 98.026023 
L 184.290971 96.665429 
L 182.206289 95.738131 
L 181.163948 94.863518 
L 179.079265 92.575178 
L 178.036924 91.738074 
L 174.9099 89.916836 
L 173.867559 89.573557 
L 172.825218 89.498653 
L 171.782877 89.624511 
L 170.740535 89.895104 
L 169.698194 90.569333 
L 168.655853 92.453133 
L 167.613512 95.580459 
L 165.528829 103.393407 
L 163.444147 111.510151 
L 162.401806 114.73299 
L 161.359465 116.740592 
L 160.317123 117.539848 
L 159.274782 117.614094 
L 158.232441 117.274447 
L 157.1901 116.714486 
L 155.105417 115.218816 
L 150.936052 111.118728 
L 149.893711 110.655029 
L 148.85137 110.013729 
L 146.766687 108.158097 
L 145.724346 107.477055 
L 144.682005 107.167218 
L 143.639664 107.133505 
L 142.597323 106.716671 
L 141.554981 106.055278 
L 140.51264 105.197293 
L 139.470299 104.824341 
L 138.427958 104.710408 
L 137.385616 104.459649 
L 132.17391 103.945289 
L 129.046887 103.002083 
L 128.004545 103.121537 
L 126.962204 103.359523 
L 125.919863 103.388503 
L 124.877522 103.301873 
L 123.835181 103.338998 
L 121.750498 102.933185 
L 119.665816 102.741773 
L 117.581133 102.252458 
L 116.538792 102.349572 
L 115.496451 102.306558 
L 114.45411 102.039327 
L 113.411768 101.97154 
L 111.327086 102.113992 
L 110.284745 101.99587 
L 108.200062 101.218236 
L 107.157721 101.275979 
L 106.11538 101.165872 
L 105.073039 100.900616 
L 104.030697 100.839237 
L 96.734309 101.582316 
L 94.649626 100.851547 
L 93.607285 100.985598 
L 91.522603 101.556532 
L 90.480262 101.510462 
L 89.43792 101.309776 
L 87.353238 101.212666 
L 84.226214 100.794974 
L 83.183873 100.72179 
L 81.099191 101.027619 
L 79.014508 100.817623 
L 77.972167 100.844341 
L 76.929826 100.719011 
L 74.845143 100.650567 
L 73.802802 100.570427 
L 71.71812 100.707286 
L 70.675778 100.523372 
L 68.591096 100.578707 
L 66.506413 100.885803 
L 65.464072 100.781362 
L 63.37939 100.849428 
L 62.337049 100.704647 
L 60.252366 100.777631 
L 57.125342 100.383635 
L 56.083001 100.00841 
L 55.04066 99.846292 
L 51.913636 100.329018 
L 51.913636 100.329018 
" clip-path="url(#pce67e5ed0a)" style="fill: none; stroke: #1f77b4; stroke-width: 1.5; stroke-linecap: square"/>
   </g>
   <g id="line2d_8">
    <path d="M 280.186364 115.643441 
L 277.05934 115.832389 
L 272.889975 115.347222 
L 270.805293 114.779541 
L 269.762951 114.702568 
L 268.72061 114.838653 
L 267.678269 114.843314 
L 266.635928 114.31862 
L 265.593587 113.996144 
L 264.551245 113.970968 
L 263.508904 114.103048 
L 261.424222 114.71082 
L 260.38188 114.877068 
L 259.339539 114.751511 
L 257.254857 114.737213 
L 255.170174 114.562089 
L 252.043151 114.093517 
L 249.958468 114.366398 
L 248.916127 114.37768 
L 246.831445 114.6707 
L 244.746762 114.649771 
L 243.704421 114.636897 
L 241.619738 113.658367 
L 239.535056 113.730946 
L 238.492715 113.478593 
L 237.450374 113.028736 
L 236.408032 113.01569 
L 233.281009 112.438595 
L 232.238667 112.24386 
L 231.196326 112.369852 
L 230.153985 112.948427 
L 229.111644 113.091865 
L 227.026961 112.589161 
L 224.942279 112.574473 
L 223.899938 112.218322 
L 220.772914 111.628985 
L 218.688232 110.673349 
L 216.603549 109.600058 
L 213.476526 108.172953 
L 212.434184 107.583155 
L 211.391843 107.215213 
L 210.349502 106.999215 
L 209.307161 106.924501 
L 208.264819 106.640421 
L 206.180137 105.417435 
L 204.095455 104.037102 
L 203.053113 103.626399 
L 202.010772 102.871902 
L 199.92609 99.762608 
L 196.799066 93.840397 
L 195.756725 91.786481 
L 193.672042 87.267769 
L 192.629701 85.238833 
L 190.545019 80.484021 
L 188.460336 74.885559 
L 186.375654 68.781077 
L 184.290971 61.97802 
L 182.206289 54.443257 
L 180.121606 45.503676 
L 179.079265 41.623078 
L 178.036924 38.471994 
L 176.994583 35.85963 
L 175.952242 34.074309 
L 174.9099 33.48 
L 173.867559 35.106593 
L 172.825218 39.424971 
L 171.782877 46.033535 
L 170.740535 55.152101 
L 169.698194 66.664164 
L 168.655853 80.133632 
L 166.571171 110.673965 
L 164.486488 141.594702 
L 163.444147 155.199238 
L 162.401806 166.48576 
L 161.359465 175.270751 
L 160.317123 181.381217 
L 159.274782 184.462623 
L 158.232441 184.68 
L 157.1901 182.693897 
L 156.147758 179.475516 
L 155.105417 175.244897 
L 149.893711 148.904147 
L 147.809029 140.18445 
L 146.766687 136.086441 
L 144.682005 129.219343 
L 143.639664 126.333286 
L 141.554981 121.593759 
L 139.470299 117.483402 
L 137.385616 113.908801 
L 136.343275 111.946032 
L 135.300934 110.243753 
L 134.258593 109.090448 
L 132.17391 107.532387 
L 130.089228 105.979921 
L 126.962204 104.486316 
L 123.835181 103.196881 
L 122.792839 102.860573 
L 121.750498 102.371347 
L 119.665816 100.829401 
L 117.581133 100.05814 
L 115.496451 98.597351 
L 114.45411 98.072636 
L 112.369427 96.639851 
L 111.327086 96.118419 
L 108.200062 95.25467 
L 106.11538 94.395533 
L 104.030697 94.075436 
L 101.946015 94.036852 
L 100.903674 93.87021 
L 98.818991 93.783901 
L 93.607285 92.040721 
L 92.564944 92.095225 
L 91.522603 92.289449 
L 89.43792 91.598793 
L 85.268555 90.480622 
L 84.226214 90.678189 
L 81.099191 90.814308 
L 79.014508 90.396649 
L 76.929826 90.504659 
L 75.887484 90.558545 
L 73.802802 90.272084 
L 71.71812 90.670134 
L 70.675778 90.543391 
L 69.633437 90.153943 
L 64.421731 89.098042 
L 63.37939 89.181526 
L 62.337049 89.453154 
L 61.294707 89.246684 
L 60.252366 88.66033 
L 59.210025 88.266112 
L 58.167684 88.283633 
L 57.125342 88.165188 
L 56.083001 87.822526 
L 53.998319 87.97155 
L 51.913636 87.400718 
L 51.913636 87.400718 
" clip-path="url(#pce67e5ed0a)" style="fill: none; stroke: #1f77b4; stroke-width: 1.5; stroke-linecap: square"/>
   </g>
   <g id="line2d_9">
    <path d="M 280.186364 112.516468 
L 279.144022 112.059412 
L 278.101681 111.979371 
L 277.05934 112.264472 
L 276.016999 112.226013 
L 273.932316 111.41934 
L 271.847634 112.076709 
L 270.805293 112.589479 
L 269.762951 112.456516 
L 268.72061 111.81888 
L 266.635928 111.431587 
L 264.551245 111.719952 
L 263.508904 112.030521 
L 262.466563 111.927786 
L 261.424222 111.571131 
L 260.38188 111.679896 
L 258.297198 111.525861 
L 256.212516 111.973479 
L 255.170174 112.38356 
L 254.127833 112.428753 
L 253.085492 112.209164 
L 252.043151 112.166659 
L 249.958468 111.558692 
L 248.916127 111.379536 
L 247.873786 111.342765 
L 246.831445 111.736605 
L 245.789103 111.805146 
L 243.704421 111.340654 
L 242.66208 111.668422 
L 241.619738 111.602368 
L 238.492715 110.714992 
L 236.408032 111.070326 
L 234.32335 111.024907 
L 233.281009 110.930825 
L 230.153985 109.815861 
L 229.111644 109.503797 
L 228.069303 109.605776 
L 227.026961 109.935851 
L 225.98462 110.064747 
L 224.942279 109.756306 
L 222.857597 108.769101 
L 221.815255 108.820811 
L 220.772914 109.283832 
L 219.730573 109.516168 
L 218.688232 109.479556 
L 217.64589 109.161864 
L 214.518867 106.971027 
L 213.476526 106.122341 
L 210.349502 106.058026 
L 209.307161 105.862157 
L 207.222478 105.154694 
L 206.180137 105.246888 
L 205.137796 105.077786 
L 202.010772 102.022919 
L 198.883748 99.890104 
L 197.841407 98.831021 
L 196.799066 97.399721 
L 195.756725 95.58283 
L 192.629701 89.042798 
L 190.545019 86.123854 
L 188.460336 81.45775 
L 186.375654 77.306496 
L 185.333313 74.909002 
L 184.290971 71.919306 
L 182.206289 64.80081 
L 180.121606 57.530464 
L 178.036924 51.16282 
L 176.994583 48.699822 
L 175.952242 46.702891 
L 174.9099 45.618476 
L 173.867559 46.05043 
L 172.825218 47.58505 
L 171.782877 51.372465 
L 170.740535 57.848992 
L 169.698194 66.820802 
L 168.655853 78.330517 
L 166.571171 106.655255 
L 164.486488 135.988009 
L 163.444147 148.271521 
L 162.401806 158.601052 
L 161.359465 166.309847 
L 160.317123 170.333239 
L 159.274782 171.554096 
L 158.232441 170.715662 
L 157.1901 168.262172 
L 156.147758 164.73013 
L 154.063076 156.143896 
L 153.020735 151.63541 
L 149.893711 139.478492 
L 148.85137 135.331574 
L 146.766687 128.428335 
L 145.724346 125.46752 
L 144.682005 122.857809 
L 141.554981 116.651381 
L 140.51264 115.089697 
L 139.470299 114.006679 
L 137.385616 112.199165 
L 135.300934 110.08104 
L 134.258593 108.833775 
L 132.17391 107.031189 
L 131.131569 106.381623 
L 129.046887 105.580057 
L 128.004545 104.56858 
L 126.962204 103.803879 
L 125.919863 103.442438 
L 123.835181 103.094865 
L 122.792839 102.961059 
L 121.750498 102.63377 
L 118.623474 101.187698 
L 116.538792 100.790859 
L 115.496451 100.359339 
L 114.45411 99.675592 
L 113.411768 98.765728 
L 112.369427 98.152283 
L 110.284745 96.585781 
L 109.242403 96.134758 
L 108.200062 96.41867 
L 107.157721 96.846857 
L 106.11538 96.838234 
L 105.073039 96.642169 
L 104.030697 96.27896 
L 102.988356 96.26808 
L 100.903674 96.594647 
L 99.861333 96.31009 
L 97.77665 95.368984 
L 95.691968 95.088943 
L 93.607285 94.527999 
L 92.564944 94.22772 
L 91.522603 94.342305 
L 90.480262 94.244125 
L 87.353238 93.614861 
L 83.183873 92.886661 
L 81.099191 94.000312 
L 80.056849 94.034266 
L 79.014508 93.772668 
L 77.972167 93.18156 
L 76.929826 93.026449 
L 74.845143 93.438859 
L 73.802802 93.621061 
L 72.760461 93.566228 
L 70.675778 92.675867 
L 68.591096 92.759338 
L 66.506413 92.109999 
L 65.464072 91.987744 
L 63.37939 92.356423 
L 61.294707 91.780992 
L 60.252366 91.4987 
L 59.210025 91.476197 
L 58.167684 90.999793 
L 57.125342 90.380135 
L 56.083001 90.252616 
L 55.04066 90.545741 
L 53.998319 91.236696 
L 52.955978 91.651392 
L 51.913636 91.775202 
L 51.913636 91.775202 
" clip-path="url(#pce67e5ed0a)" style="fill: none; stroke: #1f77b4; stroke-width: 1.5; stroke-linecap: square"/>
   </g>
   <g id="line2d_10">
    <path d="M 280.186364 109.377863 
L 279.144022 109.424388 
L 278.101681 109.265577 
L 277.05934 109.254745 
L 274.974658 109.702477 
L 272.889975 109.700961 
L 271.847634 109.607732 
L 270.805293 109.291694 
L 269.762951 108.814474 
L 268.72061 108.567558 
L 267.678269 108.678148 
L 266.635928 108.487151 
L 265.593587 108.019763 
L 264.551245 108.040384 
L 263.508904 108.494247 
L 262.466563 109.089243 
L 260.38188 108.628367 
L 258.297198 109.169255 
L 257.254857 108.73616 
L 256.212516 108.137799 
L 253.085492 107.948125 
L 252.043151 107.891989 
L 247.873786 108.405751 
L 246.831445 108.761318 
L 245.789103 108.879725 
L 243.704421 109.538427 
L 241.619738 109.247066 
L 239.535056 108.680744 
L 238.492715 108.456888 
L 237.450374 107.82193 
L 236.408032 107.69888 
L 235.365691 107.825837 
L 234.32335 107.53305 
L 233.281009 107.101461 
L 232.238667 107.037312 
L 230.153985 107.308559 
L 228.069303 107.956839 
L 227.026961 107.802525 
L 225.98462 108.102058 
L 224.942279 108.578512 
L 223.899938 108.718257 
L 222.857597 108.205056 
L 221.815255 107.9169 
L 220.772914 107.806166 
L 219.730573 107.408263 
L 217.64589 106.294989 
L 215.561208 106.09075 
L 214.518867 106.119981 
L 212.434184 105.039667 
L 211.391843 105.116542 
L 210.349502 105.319704 
L 207.222478 105.092268 
L 206.180137 104.970557 
L 204.095455 103.90983 
L 202.010772 103.290596 
L 200.968431 102.357859 
L 199.92609 101.235186 
L 197.841407 99.750034 
L 196.799066 98.60892 
L 193.672042 94.538028 
L 192.629701 92.640468 
L 191.58736 90.994817 
L 189.502677 88.59078 
L 187.417995 85.874084 
L 186.375654 84.467241 
L 185.333313 83.412544 
L 184.290971 81.607894 
L 183.24863 78.712955 
L 181.163948 73.49826 
L 179.079265 67.335986 
L 178.036924 64.194064 
L 176.994583 61.945614 
L 175.952242 60.436669 
L 174.9099 59.69596 
L 173.867559 59.241992 
L 172.825218 59.66093 
L 171.782877 61.845036 
L 170.740535 65.576565 
L 169.698194 71.334673 
L 168.655853 79.621625 
L 167.613512 90.429316 
L 164.486488 128.21281 
L 163.444147 138.841218 
L 162.401806 146.840675 
L 161.359465 151.732569 
L 160.317123 154.252021 
L 159.274782 154.771746 
L 158.232441 153.258883 
L 156.147758 148.480204 
L 155.105417 145.75663 
L 153.020735 139.35401 
L 150.936052 132.537616 
L 149.893711 128.766742 
L 148.85137 125.710042 
L 147.809029 123.035894 
L 146.766687 120.687044 
L 143.639664 115.355574 
L 141.554981 113.028861 
L 140.51264 112.11541 
L 139.470299 111.433364 
L 138.427958 110.12151 
L 137.385616 108.549245 
L 136.343275 107.612848 
L 134.258593 107.295163 
L 133.216252 106.676442 
L 132.17391 105.680069 
L 131.131569 104.414016 
L 130.089228 103.60599 
L 128.004545 103.635661 
L 126.962204 103.678846 
L 125.919863 103.350973 
L 124.877522 102.852918 
L 123.835181 102.990374 
L 122.792839 103.342627 
L 120.708157 103.503771 
L 119.665816 103.361953 
L 118.623474 102.761874 
L 117.581133 101.833121 
L 116.538792 100.728299 
L 115.496451 99.954825 
L 114.45411 99.77515 
L 113.411768 100.032658 
L 110.284745 99.322294 
L 109.242403 98.847147 
L 107.157721 97.513745 
L 106.11538 97.447401 
L 105.073039 97.890191 
L 104.030697 97.806993 
L 102.988356 97.552764 
L 100.903674 98.106911 
L 97.77665 98.055001 
L 96.734309 97.907578 
L 95.691968 97.46289 
L 94.649626 97.309115 
L 92.564944 96.721349 
L 91.522603 96.681426 
L 89.43792 96.951051 
L 88.395579 97.015668 
L 86.310897 97.331709 
L 85.268555 97.247959 
L 84.226214 96.868052 
L 81.099191 96.217215 
L 80.056849 96.074836 
L 79.014508 96.045162 
L 76.929826 96.17718 
L 74.845143 96.067705 
L 73.802802 95.786004 
L 72.760461 95.726974 
L 70.675778 96.104885 
L 66.506413 96.052578 
L 65.464072 95.9248 
L 64.421731 95.430463 
L 63.37939 95.099862 
L 62.337049 95.005607 
L 60.252366 94.282966 
L 58.167684 94.059564 
L 57.125342 94.251388 
L 56.083001 94.734364 
L 55.04066 94.65554 
L 53.998319 94.282879 
L 51.913636 94.398116 
L 51.913636 94.398116 
" clip-path="url(#pce67e5ed0a)" style="fill: none; stroke: #1f77b4; stroke-width: 1.5; stroke-linecap: square"/>
   </g>
   <g id="line2d_11">
    <path d="M 280.186364 106.005093 
L 279.144022 105.730683 
L 278.101681 105.577084 
L 277.05934 105.940034 
L 276.016999 106.031383 
L 274.974658 105.915424 
L 272.889975 105.54151 
L 271.847634 105.461709 
L 270.805293 105.681085 
L 268.72061 105.306199 
L 267.678269 105.694417 
L 265.593587 105.652158 
L 264.551245 106.024851 
L 263.508904 106.110238 
L 262.466563 105.844571 
L 261.424222 105.912344 
L 260.38188 106.164141 
L 259.339539 106.267575 
L 258.297198 106.109351 
L 257.254857 105.706906 
L 255.170174 105.17328 
L 254.127833 105.036471 
L 253.085492 105.130197 
L 252.043151 105.368854 
L 251.000809 105.845452 
L 249.958468 106.033222 
L 248.916127 105.837854 
L 247.873786 105.831024 
L 246.831445 106.092945 
L 245.789103 106.499084 
L 244.746762 106.385684 
L 242.66208 105.560681 
L 238.492715 105.626057 
L 237.450374 105.072334 
L 236.408032 104.739243 
L 234.32335 104.688542 
L 233.281009 104.782752 
L 230.153985 104.752507 
L 229.111644 104.980396 
L 228.069303 105.39606 
L 227.026961 105.504894 
L 223.899938 105.00208 
L 222.857597 105.046176 
L 221.815255 105.25287 
L 220.772914 105.209867 
L 219.730573 104.854445 
L 218.688232 104.825735 
L 217.64589 105.050105 
L 215.561208 104.741124 
L 211.391843 103.63743 
L 210.349502 103.673683 
L 209.307161 103.968274 
L 208.264819 104.143144 
L 205.137796 104.025927 
L 204.095455 103.921881 
L 203.053113 103.562016 
L 202.010772 103.066009 
L 200.968431 102.366907 
L 199.92609 101.929238 
L 198.883748 101.193805 
L 197.841407 100.180998 
L 195.756725 99.639235 
L 194.714384 98.8963 
L 193.672042 97.679058 
L 192.629701 96.700178 
L 191.58736 95.91949 
L 190.545019 94.855136 
L 187.417995 92.645996 
L 184.290971 89.407545 
L 182.206289 86.529613 
L 180.121606 82.997515 
L 178.036924 79.270334 
L 176.994583 77.831769 
L 175.952242 76.089246 
L 174.9099 74.748754 
L 173.867559 74.326481 
L 172.825218 74.102837 
L 171.782877 74.304416 
L 170.740535 75.732334 
L 169.698194 79.058993 
L 168.655853 84.29781 
L 167.613512 91.527708 
L 163.444147 125.65172 
L 162.401806 131.073603 
L 161.359465 134.757993 
L 160.317123 136.636047 
L 159.274782 136.672169 
L 157.1901 134.497114 
L 156.147758 132.720354 
L 154.063076 128.514028 
L 153.020735 126.648545 
L 150.936052 122.12825 
L 148.85137 117.50044 
L 147.809029 115.682278 
L 146.766687 114.170293 
L 145.724346 112.858529 
L 144.682005 112.261183 
L 143.639664 111.896053 
L 142.597323 111.076569 
L 141.554981 110.072706 
L 140.51264 108.89689 
L 139.470299 107.898943 
L 138.427958 107.584652 
L 136.343275 107.254801 
L 134.258593 105.509689 
L 132.17391 104.701031 
L 131.131569 104.334808 
L 129.046887 103.261541 
L 128.004545 103.256634 
L 126.962204 103.523458 
L 124.877522 103.697697 
L 123.835181 104.157797 
L 122.792839 104.245671 
L 120.708157 103.747177 
L 117.581133 102.661738 
L 116.538792 102.374355 
L 115.496451 101.707423 
L 114.45411 101.449351 
L 112.369427 101.21164 
L 110.284745 100.264539 
L 109.242403 100.070664 
L 107.157721 100.104841 
L 104.030697 99.277929 
L 101.946015 99.663355 
L 100.903674 99.476467 
L 98.818991 99.855708 
L 96.734309 99.080862 
L 94.649626 98.93255 
L 92.564944 98.459971 
L 91.522603 98.550736 
L 90.480262 98.315182 
L 87.353238 98.49009 
L 85.268555 98.460987 
L 84.226214 98.734753 
L 83.183873 99.247992 
L 82.141532 99.464811 
L 81.099191 99.313032 
L 80.056849 98.81532 
L 79.014508 98.534535 
L 75.887484 98.200243 
L 74.845143 98.519248 
L 73.802802 98.553223 
L 71.71812 98.029776 
L 70.675778 98.277316 
L 68.591096 99.207191 
L 67.548755 99.053028 
L 65.464072 98.383141 
L 63.37939 98.072689 
L 62.337049 97.937123 
L 61.294707 97.991084 
L 60.252366 97.719936 
L 59.210025 97.642068 
L 58.167684 97.809592 
L 56.083001 97.411657 
L 55.04066 97.082233 
L 53.998319 96.978094 
L 51.913636 97.332811 
L 51.913636 97.332811 
" clip-path="url(#pce67e5ed0a)" style="fill: none; stroke: #1f77b4; stroke-width: 1.5; stroke-linecap: square"/>
   </g>
   <g id="patch_3">
    <path d="M 40.5 192.24 
L 40.5 25.92 
" style="fill: none; stroke: #000000; stroke-width: 0.8; stroke-linejoin: miter; stroke-linecap: square"/>
   </g>
   <g id="patch_4">
    <path d="M 291.6 192.24 
L 291.6 25.92 
" style="fill: none; stroke: #000000; stroke-width: 0.8; stroke-linejoin: miter; stroke-linecap: square"/>
   </g>
   <g id="patch_5">
    <path d="M 40.5 192.24 
L 291.6 192.24 
" style="fill: none; stroke: #000000; stroke-width: 0.8; stroke-linejoin: miter; stroke-linecap: square"/>
   </g>
   <g id="patch_6">
    <path d="M 40.5 25.92 
L 291.6 25.92 
" style="fill: none; stroke: #000000; stroke-width: 0.8; stroke-linejoin: miter; stroke-linecap: square"/>
   </g>
  </g>
 </g>
 <defs>
  <clipPath id="pce67e5ed0a">
   <rect x="40.5" y="25.92" width="251.1" height="166.32"/>
  </clipPath>
 </defs>
</svg>
