<?xml version="1.0" encoding="utf-8" standalone="no"?>
<!DOCTYPE svg PUBLIC "-//W3C//DTD SVG 1.1//EN"
  "http://www.w3.org/Graphics/SVG/1.1/DTD/svg11.dtd">
<svg xmlns:xlink="http://www.w3.org/1999/xlink" width="324pt" height="216pt" viewBox="0 0 324 216" xmlns="http://www.w3.org/2000/svg" version="1.1">
 <metadata>
  <rdf:RDF xmlns:dc="http://purl.org/dc/elements/1.1/" xmlns:cc="http://creativecommons.org/ns#" xmlns:rdf="http://www.w3.org/1999/02/22-rdf-syntax-ns#">
   <cc:Work>
    <dc:type rdf:resource="http://purl.org/dc/dcmitype/StillImage"/>
    <dc:date>2022-09-02T13:53:47.250167</dc:date>
    <dc:format>image/svg+xml</dc:format>
    <dc:creator>
     <cc:Agent>
      <dc:title>Matplotlib v3.5.1, https://matplotlib.org/</dc:title>
     </cc:Agent>
    </dc:creator>
   </cc:Work>
  </rdf:RDF>
 </metadata>
 <defs>
  <style type="text/css">*{stroke-linejoin: round; stroke-linecap: butt}</style>
 </defs>
 <g id="figure_1">
  <g id="patch_1">
   <path d="M 0 216 
L 324 216 
L 324 0 
L 0 0 
z
" style="fill: #ffffff"/>
  </g>
  <g id="axes_1">
   <g id="patch_2">
    <path d="M 40.5 192.24 
L 291.6 192.24 
L 291.6 25.92 
L 40.5 25.92 
z
" style="fill: #ffffff"/>
   </g>
   <g id="matplotlib.axis_1">
    <g id="xtick_1">
     <g id="line2d_1">
      <defs>
       <path id="m625c22b978" d="M 0 0 
L 0 3.5 
" style="stroke: #000000; stroke-width: 0.8"/>
      </defs>
      <g>
       <use xlink:href="#m625c22b978" x="92.71385" y="192.24" style="stroke: #000000; stroke-width: 0.8"/>
      </g>
     </g>
     <g id="text_1">
      <!-- −50 -->
      <g transform="translate(75.8301 211.3975)scale(0.16 -0.16)">
       <defs>
        <path id="DejaVuSans-2212" d="M 678 2272 
L 4684 2272 
L 4684 1741 
L 678 1741 
L 678 2272 
z
" transform="scale(0.015625)"/>
        <path id="DejaVuSans-35" d="M 691 4666 
L 3169 4666 
L 3169 4134 
L 1269 4134 
L 1269 2991 
Q 1406 3038 1543 3061 
Q 1681 3084 1819 3084 
Q 2600 3084 3056 2656 
Q 3513 2228 3513 1497 
Q 3513 744 3044 326 
Q 2575 -91 1722 -91 
Q 1428 -91 1123 -41 
Q 819 9 494 109 
L 494 744 
Q 775 591 1075 516 
Q 1375 441 1709 441 
Q 2250 441 2565 725 
Q 2881 1009 2881 1497 
Q 2881 1984 2565 2268 
Q 2250 2553 1709 2553 
Q 1456 2553 1204 2497 
Q 953 2441 691 2322 
L 691 4666 
z
" transform="scale(0.015625)"/>
        <path id="DejaVuSans-30" d="M 2034 4250 
Q 1547 4250 1301 3770 
Q 1056 3291 1056 2328 
Q 1056 1369 1301 889 
Q 1547 409 2034 409 
Q 2525 409 2770 889 
Q 3016 1369 3016 2328 
Q 3016 3291 2770 3770 
Q 2525 4250 2034 4250 
z
M 2034 4750 
Q 2819 4750 3233 4129 
Q 3647 3509 3647 2328 
Q 3647 1150 3233 529 
Q 2819 -91 2034 -91 
Q 1250 -91 836 529 
Q 422 1150 422 2328 
Q 422 3509 836 4129 
Q 1250 4750 2034 4750 
z
" transform="scale(0.015625)"/>
       </defs>
       <use xlink:href="#DejaVuSans-2212"/>
       <use xlink:href="#DejaVuSans-35" x="83.789062"/>
       <use xlink:href="#DejaVuSans-30" x="147.412109"/>
      </g>
     </g>
    </g>
    <g id="xtick_2">
     <g id="line2d_2">
      <g>
       <use xlink:href="#m625c22b978" x="167.166794" y="192.24" style="stroke: #000000; stroke-width: 0.8"/>
      </g>
     </g>
     <g id="text_2">
      <!-- 0 -->
      <g transform="translate(162.076794 211.3975)scale(0.16 -0.16)">
       <use xlink:href="#DejaVuSans-30"/>
      </g>
     </g>
    </g>
    <g id="xtick_3">
     <g id="line2d_3">
      <g>
       <use xlink:href="#m625c22b978" x="241.619738" y="192.24" style="stroke: #000000; stroke-width: 0.8"/>
      </g>
     </g>
     <g id="text_3">
      <!-- 50 -->
      <g transform="translate(231.439738 211.3975)scale(0.16 -0.16)">
       <use xlink:href="#DejaVuSans-35"/>
       <use xlink:href="#DejaVuSans-30" x="63.623047"/>
      </g>
     </g>
    </g>
   </g>
   <g id="matplotlib.axis_2">
    <g id="ytick_1">
     <g id="line2d_4">
      <defs>
       <path id="m354e749f64" d="M 0 0 
L -3.5 0 
" style="stroke: #000000; stroke-width: 0.8"/>
      </defs>
      <g>
       <use xlink:href="#m354e749f64" x="40.5" y="150.383007" style="stroke: #000000; stroke-width: 0.8"/>
      </g>
     </g>
     <g id="text_4">
      <!-- −1 -->
      <g transform="translate(9.9125 156.461757)scale(0.16 -0.16)">
       <defs>
        <path id="DejaVuSans-31" d="M 794 531 
L 1825 531 
L 1825 4091 
L 703 3866 
L 703 4441 
L 1819 4666 
L 2450 4666 
L 2450 531 
L 3481 531 
L 3481 0 
L 794 0 
L 794 531 
z
" transform="scale(0.015625)"/>
       </defs>
       <use xlink:href="#DejaVuSans-2212"/>
       <use xlink:href="#DejaVuSans-31" x="83.789062"/>
      </g>
     </g>
    </g>
    <g id="ytick_2">
     <g id="line2d_5">
      <g>
       <use xlink:href="#m354e749f64" x="40.5" y="101.645251" style="stroke: #000000; stroke-width: 0.8"/>
      </g>
     </g>
     <g id="text_5">
      <!-- 0 -->
      <g transform="translate(23.32 107.724001)scale(0.16 -0.16)">
       <use xlink:href="#DejaVuSans-30"/>
      </g>
     </g>
    </g>
    <g id="ytick_3">
     <g id="line2d_6">
      <g>
       <use xlink:href="#m354e749f64" x="40.5" y="52.907495" style="stroke: #000000; stroke-width: 0.8"/>
      </g>
     </g>
     <g id="text_6">
      <!-- 1 -->
      <g transform="translate(23.32 58.986245)scale(0.16 -0.16)">
       <use xlink:href="#DejaVuSans-31"/>
      </g>
     </g>
    </g>
   </g>
   <g id="line2d_7">
    <path d="M 280.186364 115.643441 
L 277.05934 115.832389 
L 272.889975 115.347222 
L 270.805293 114.779541 
L 269.762951 114.702568 
L 268.72061 114.838653 
L 267.678269 114.843314 
L 266.635928 114.31862 
L 265.593587 113.996144 
L 264.551245 113.970968 
L 263.508904 114.103048 
L 261.424222 114.71082 
L 260.38188 114.877068 
L 259.339539 114.751511 
L 257.254857 114.737213 
L 255.170174 114.562089 
L 252.043151 114.093517 
L 249.958468 114.366398 
L 248.916127 114.37768 
L 246.831445 114.6707 
L 244.746762 114.649771 
L 243.704421 114.636897 
L 241.619738 113.658367 
L 239.535056 113.730946 
L 238.492715 113.478593 
L 237.450374 113.028736 
L 236.408032 113.01569 
L 233.281009 112.438595 
L 232.238667 112.24386 
L 231.196326 112.369852 
L 230.153985 112.948427 
L 229.111644 113.091865 
L 227.026961 112.589161 
L 224.942279 112.574473 
L 223.899938 112.218322 
L 220.772914 111.628985 
L 218.688232 110.673349 
L 216.603549 109.600058 
L 213.476526 108.172953 
L 212.434184 107.583155 
L 211.391843 107.215213 
L 210.349502 106.999215 
L 209.307161 106.924501 
L 208.264819 106.640421 
L 206.180137 105.417435 
L 204.095455 104.037102 
L 203.053113 103.626399 
L 202.010772 102.871902 
L 199.92609 99.762608 
L 196.799066 93.840397 
L 195.756725 91.786481 
L 193.672042 87.267769 
L 192.629701 85.238833 
L 190.545019 80.484021 
L 188.460336 74.885559 
L 186.375654 68.781077 
L 184.290971 61.97802 
L 182.206289 54.443257 
L 180.121606 45.503676 
L 179.079265 41.623078 
L 178.036924 38.471994 
L 176.994583 35.85963 
L 175.952242 34.074309 
L 174.9099 33.48 
L 173.867559 35.106593 
L 172.825218 39.424971 
L 171.782877 46.033535 
L 170.740535 55.152101 
L 169.698194 66.664164 
L 168.655853 80.133632 
L 166.571171 110.673965 
L 164.486488 141.594702 
L 163.444147 155.199238 
L 162.401806 166.48576 
L 161.359465 175.270751 
L 160.317123 181.381217 
L 159.274782 184.462623 
L 158.232441 184.68 
L 157.1901 182.693897 
L 156.147758 179.475516 
L 155.105417 175.244897 
L 149.893711 148.904147 
L 147.809029 140.18445 
L 146.766687 136.086441 
L 144.682005 129.219343 
L 143.639664 126.333286 
L 141.554981 121.593759 
L 139.470299 117.483402 
L 137.385616 113.908801 
L 136.343275 111.946032 
L 135.300934 110.243753 
L 134.258593 109.090448 
L 132.17391 107.532387 
L 130.089228 105.979921 
L 126.962204 104.486316 
L 123.835181 103.196881 
L 122.792839 102.860573 
L 121.750498 102.371347 
L 119.665816 100.829401 
L 117.581133 100.05814 
L 115.496451 98.597351 
L 114.45411 98.072636 
L 112.369427 96.639851 
L 111.327086 96.118419 
L 108.200062 95.25467 
L 106.11538 94.395533 
L 104.030697 94.075436 
L 101.946015 94.036852 
L 100.903674 93.87021 
L 98.818991 93.783901 
L 93.607285 92.040721 
L 92.564944 92.095225 
L 91.522603 92.289449 
L 89.43792 91.598793 
L 85.268555 90.480622 
L 84.226214 90.678189 
L 81.099191 90.814308 
L 79.014508 90.396649 
L 76.929826 90.504659 
L 75.887484 90.558545 
L 73.802802 90.272084 
L 71.71812 90.670134 
L 70.675778 90.543391 
L 69.633437 90.153943 
L 64.421731 89.098042 
L 63.37939 89.181526 
L 62.337049 89.453154 
L 61.294707 89.246684 
L 60.252366 88.66033 
L 59.210025 88.266112 
L 58.167684 88.283633 
L 57.125342 88.165188 
L 56.083001 87.822526 
L 53.998319 87.97155 
L 51.913636 87.400718 
L 51.913636 87.400718 
" clip-path="url(#p89e8ff796b)" style="fill: none; stroke: #1f77b4; stroke-width: 1.5; stroke-linecap: square"/>
   </g>
   <g id="patch_3">
    <path d="M 40.5 192.24 
L 40.5 25.92 
" style="fill: none; stroke: #000000; stroke-width: 0.8; stroke-linejoin: miter; stroke-linecap: square"/>
   </g>
   <g id="patch_4">
    <path d="M 291.6 192.24 
L 291.6 25.92 
" style="fill: none; stroke: #000000; stroke-width: 0.8; stroke-linejoin: miter; stroke-linecap: square"/>
   </g>
   <g id="patch_5">
    <path d="M 40.5 192.24 
L 291.6 192.24 
" style="fill: none; stroke: #000000; stroke-width: 0.8; stroke-linejoin: miter; stroke-linecap: square"/>
   </g>
   <g id="patch_6">
    <path d="M 40.5 25.92 
L 291.6 25.92 
" style="fill: none; stroke: #000000; stroke-width: 0.8; stroke-linejoin: miter; stroke-linecap: square"/>
   </g>
  </g>
 </g>
 <defs>
  <clipPath id="p89e8ff796b">
   <rect x="40.5" y="25.92" width="251.1" height="166.32"/>
  </clipPath>
 </defs>
</svg>
