<?xml version="1.0" encoding="utf-8" standalone="no"?>
<!DOCTYPE svg PUBLIC "-//W3C//DTD SVG 1.1//EN"
  "http://www.w3.org/Graphics/SVG/1.1/DTD/svg11.dtd">
<svg xmlns:xlink="http://www.w3.org/1999/xlink" width="216pt" height="144pt" viewBox="0 0 216 144" xmlns="http://www.w3.org/2000/svg" version="1.1">
 <metadata>
  <rdf:RDF xmlns:dc="http://purl.org/dc/elements/1.1/" xmlns:cc="http://creativecommons.org/ns#" xmlns:rdf="http://www.w3.org/1999/02/22-rdf-syntax-ns#">
   <cc:Work>
    <dc:type rdf:resource="http://purl.org/dc/dcmitype/StillImage"/>
    <dc:date>2022-08-27T18:57:34.621010</dc:date>
    <dc:format>image/svg+xml</dc:format>
    <dc:creator>
     <cc:Agent>
      <dc:title>Matplotlib v3.5.1, https://matplotlib.org/</dc:title>
     </cc:Agent>
    </dc:creator>
   </cc:Work>
  </rdf:RDF>
 </metadata>
 <defs>
  <style type="text/css">*{stroke-linejoin: round; stroke-linecap: butt}</style>
 </defs>
 <g id="figure_1">
  <g id="patch_1">
   <path d="M 0 144 
L 216 144 
L 216 0 
L 0 0 
z
" style="fill: #ffffff"/>
  </g>
  <g id="axes_1">
   <g id="patch_2">
    <path d="M 27 128.16 
L 194.4 128.16 
L 194.4 17.28 
L 27 17.28 
z
" style="fill: #ffffff"/>
   </g>
   <g id="matplotlib.axis_1">
    <g id="xtick_1">
     <g id="line2d_1">
      <defs>
       <path id="m4dfbc9f549" d="M 0 0 
L 0 3.5 
" style="stroke: #000000; stroke-width: 0.8"/>
      </defs>
      <g>
       <use xlink:href="#m4dfbc9f549" x="63.874825" y="128.16" style="stroke: #000000; stroke-width: 0.8"/>
      </g>
     </g>
     <g id="text_1">
      <!-- −100 -->
      <g transform="translate(41.901075 147.3175)scale(0.16 -0.16)">
       <defs>
        <path id="DejaVuSans-2212" d="M 678 2272 
L 4684 2272 
L 4684 1741 
L 678 1741 
L 678 2272 
z
" transform="scale(0.015625)"/>
        <path id="DejaVuSans-31" d="M 794 531 
L 1825 531 
L 1825 4091 
L 703 3866 
L 703 4441 
L 1819 4666 
L 2450 4666 
L 2450 531 
L 3481 531 
L 3481 0 
L 794 0 
L 794 531 
z
" transform="scale(0.015625)"/>
        <path id="DejaVuSans-30" d="M 2034 4250 
Q 1547 4250 1301 3770 
Q 1056 3291 1056 2328 
Q 1056 1369 1301 889 
Q 1547 409 2034 409 
Q 2525 409 2770 889 
Q 3016 1369 3016 2328 
Q 3016 3291 2770 3770 
Q 2525 4250 2034 4250 
z
M 2034 4750 
Q 2819 4750 3233 4129 
Q 3647 3509 3647 2328 
Q 3647 1150 3233 529 
Q 2819 -91 2034 -91 
Q 1250 -91 836 529 
Q 422 1150 422 2328 
Q 422 3509 836 4129 
Q 1250 4750 2034 4750 
z
" transform="scale(0.015625)"/>
       </defs>
       <use xlink:href="#DejaVuSans-2212"/>
       <use xlink:href="#DejaVuSans-31" x="83.789062"/>
       <use xlink:href="#DejaVuSans-30" x="147.412109"/>
       <use xlink:href="#DejaVuSans-30" x="211.035156"/>
      </g>
     </g>
    </g>
    <g id="xtick_2">
     <g id="line2d_2">
      <g>
       <use xlink:href="#m4dfbc9f549" x="110.7" y="128.16" style="stroke: #000000; stroke-width: 0.8"/>
      </g>
     </g>
     <g id="text_2">
      <!-- 0 -->
      <g transform="translate(105.61 147.3175)scale(0.16 -0.16)">
       <use xlink:href="#DejaVuSans-30"/>
      </g>
     </g>
    </g>
    <g id="xtick_3">
     <g id="line2d_3">
      <g>
       <use xlink:href="#m4dfbc9f549" x="157.525175" y="128.16" style="stroke: #000000; stroke-width: 0.8"/>
      </g>
     </g>
     <g id="text_3">
      <!-- 100 -->
      <g transform="translate(142.255175 147.3175)scale(0.16 -0.16)">
       <use xlink:href="#DejaVuSans-31"/>
       <use xlink:href="#DejaVuSans-30" x="63.623047"/>
       <use xlink:href="#DejaVuSans-30" x="127.246094"/>
      </g>
     </g>
    </g>
   </g>
   <g id="matplotlib.axis_2">
    <g id="ytick_1">
     <g id="line2d_4">
      <defs>
       <path id="md5a5a4c817" d="M 0 0 
L -3.5 0 
" style="stroke: #000000; stroke-width: 0.8"/>
      </defs>
      <g>
       <use xlink:href="#md5a5a4c817" x="27" y="100.181781" style="stroke: #000000; stroke-width: 0.8"/>
      </g>
     </g>
     <g id="text_4">
      <!-- −5 -->
      <g transform="translate(-3.5875 106.260531)scale(0.16 -0.16)">
       <defs>
        <path id="DejaVuSans-35" d="M 691 4666 
L 3169 4666 
L 3169 4134 
L 1269 4134 
L 1269 2991 
Q 1406 3038 1543 3061 
Q 1681 3084 1819 3084 
Q 2600 3084 3056 2656 
Q 3513 2228 3513 1497 
Q 3513 744 3044 326 
Q 2575 -91 1722 -91 
Q 1428 -91 1123 -41 
Q 819 9 494 109 
L 494 744 
Q 775 591 1075 516 
Q 1375 441 1709 441 
Q 2250 441 2565 725 
Q 2881 1009 2881 1497 
Q 2881 1984 2565 2268 
Q 2250 2553 1709 2553 
Q 1456 2553 1204 2497 
Q 953 2441 691 2322 
L 691 4666 
z
" transform="scale(0.015625)"/>
       </defs>
       <use xlink:href="#DejaVuSans-2212"/>
       <use xlink:href="#DejaVuSans-35" x="83.789062"/>
      </g>
     </g>
    </g>
    <g id="ytick_2">
     <g id="line2d_5">
      <g>
       <use xlink:href="#md5a5a4c817" x="27" y="66.851373" style="stroke: #000000; stroke-width: 0.8"/>
      </g>
     </g>
     <g id="text_5">
      <!-- 0 -->
      <g transform="translate(9.82 72.930123)scale(0.16 -0.16)">
       <use xlink:href="#DejaVuSans-30"/>
      </g>
     </g>
    </g>
    <g id="ytick_3">
     <g id="line2d_6">
      <g>
       <use xlink:href="#md5a5a4c817" x="27" y="33.520964" style="stroke: #000000; stroke-width: 0.8"/>
      </g>
     </g>
     <g id="text_6">
      <!-- 5 -->
      <g transform="translate(9.82 39.599714)scale(0.16 -0.16)">
       <use xlink:href="#DejaVuSans-35"/>
      </g>
     </g>
    </g>
   </g>
   <g id="line2d_7">
    <path d="M 34.609091 74.979379 
L 34.913455 74.845293 
L 35.826545 75.177213 
L 36.435273 74.912338 
L 36.739636 74.941309 
L 37.348364 75.170821 
L 38.565818 75.433447 
L 39.174545 75.286811 
L 40.087636 75.499509 
L 40.696364 75.279509 
L 41.000727 75.301843 
L 41.609455 75.531018 
L 42.218182 75.39921 
L 42.826909 75.469658 
L 43.435636 75.361979 
L 44.044364 75.641481 
L 44.653091 75.4241 
L 45.261818 75.688791 
L 45.566182 75.797078 
L 45.870545 75.746349 
L 46.479273 75.506321 
L 47.696727 75.620991 
L 48.305455 75.84321 
L 49.218545 75.880764 
L 49.827273 76.297954 
L 50.740364 76.197907 
L 51.349091 76.471206 
L 52.566545 76.647134 
L 53.175273 76.450952 
L 53.784 76.558962 
L 54.392727 76.364308 
L 54.697091 76.226239 
L 55.001455 76.271572 
L 55.610182 76.544881 
L 56.523273 76.642973 
L 57.132 76.56945 
L 58.349455 77.07038 
L 58.958182 76.944733 
L 59.566909 77.224688 
L 60.175636 76.921689 
L 60.784364 76.59639 
L 61.393091 76.454427 
L 63.219273 76.737773 
L 63.828 77.104275 
L 66.262909 77.653601 
L 67.176 77.112144 
L 67.784727 77.064074 
L 68.393455 76.670735 
L 68.697818 76.632855 
L 69.306545 76.920587 
L 70.524 76.863094 
L 71.132727 76.959562 
L 71.741455 77.094746 
L 72.654545 77.033695 
L 73.263273 77.288148 
L 75.698182 77.097587 
L 76.611273 76.742333 
L 77.22 76.979221 
L 77.828727 76.843944 
L 78.133091 76.78499 
L 78.741818 76.971485 
L 79.654909 76.755882 
L 80.263636 76.450104 
L 80.568 76.299005 
L 82.394182 76.366727 
L 83.002909 76.415084 
L 84.524727 76.076955 
L 85.437818 75.890055 
L 86.350909 75.429593 
L 86.959636 75.340058 
L 87.872727 74.782092 
L 89.090182 74.622634 
L 90.916364 74.302921 
L 91.829455 73.592984 
L 92.438182 73.180888 
L 93.655636 71.88602 
L 93.96 71.623444 
L 95.177455 71.308187 
L 95.786182 70.99804 
L 96.090545 70.934005 
L 96.699273 70.315422 
L 97.308 69.667165 
L 97.916727 69.183057 
L 98.829818 67.809763 
L 99.742909 66.089844 
L 100.351636 65.324771 
L 102.482182 60.841029 
L 104.308364 55.706635 
L 105.221455 52.985539 
L 105.830182 51.362983 
L 106.743273 48.804035 
L 107.352 47.256708 
L 107.960727 44.86436 
L 108.873818 39.687174 
L 109.786909 32.791501 
L 110.7 26.117476 
L 111.308727 23.258151 
L 111.613091 22.437007 
L 111.917455 22.32 
L 112.221818 23.012484 
L 112.526182 24.728273 
L 112.830545 27.747455 
L 113.134909 32.508914 
L 113.743636 48.11756 
L 114.656727 83.858399 
L 115.265455 106.009434 
L 115.874182 119.733254 
L 116.178545 122.670109 
L 116.482909 123.12 
L 116.787273 121.621126 
L 117.700364 113.113216 
L 118.917818 101.967585 
L 119.830909 94.452916 
L 121.048364 87.04271 
L 121.657091 84.261528 
L 123.483273 77.778129 
L 126.831273 68.692929 
L 127.44 67.600886 
L 130.788 63.748648 
L 131.701091 63.320515 
L 132.309818 62.94788 
L 132.918545 62.609345 
L 133.222909 62.480711 
L 135.353455 60.837214 
L 135.962182 60.404746 
L 137.484 60.044609 
L 138.397091 59.821743 
L 139.310182 59.539394 
L 141.136364 58.829077 
L 142.353818 58.713722 
L 143.571273 58.255502 
L 144.18 58.100475 
L 144.788727 57.710601 
L 145.397455 57.741733 
L 146.006182 57.743812 
L 146.614909 57.615575 
L 147.832364 57.676904 
L 148.441091 57.454816 
L 149.049818 57.334464 
L 149.658545 57.211704 
L 150.267273 57.00617 
L 151.484727 57.087486 
L 152.093455 57.076721 
L 152.702182 57.181842 
L 154.224 56.777303 
L 154.832727 57.040883 
L 155.441455 56.924506 
L 156.050182 57.104729 
L 157.267636 56.992529 
L 160.006909 57.253934 
L 160.615636 56.923878 
L 161.528727 56.850356 
L 162.441818 56.41777 
L 163.050545 56.592065 
L 163.659273 56.892424 
L 164.268 56.955342 
L 165.181091 57.332795 
L 167.311636 57.06958 
L 168.224727 56.812188 
L 169.746545 57.132266 
L 170.355273 57.375933 
L 171.268364 57.349324 
L 172.181455 57.43561 
L 172.790182 57.441375 
L 173.398909 57.346515 
L 174.007636 57.412917 
L 174.616364 57.193194 
L 175.225091 57.445538 
L 176.138182 57.430946 
L 176.746909 57.640388 
L 179.181818 57.956374 
L 179.486182 57.8725 
L 181.008 58.160106 
L 181.616727 58.158248 
L 182.834182 58.312967 
L 183.442909 58.260692 
L 184.051636 58.318002 
L 184.660364 58.104853 
L 185.573455 58.394147 
L 186.182182 58.352907 
L 186.790909 58.434112 
L 186.790909 58.434112 
" clip-path="url(#p68a0708791)" style="fill: none; stroke: #1f77b4; stroke-width: 2; stroke-linecap: square"/>
   </g>
   <g id="patch_3">
    <path d="M 27 128.16 
L 27 17.28 
" style="fill: none; stroke: #000000; stroke-width: 0.8; stroke-linejoin: miter; stroke-linecap: square"/>
   </g>
   <g id="patch_4">
    <path d="M 194.4 128.16 
L 194.4 17.28 
" style="fill: none; stroke: #000000; stroke-width: 0.8; stroke-linejoin: miter; stroke-linecap: square"/>
   </g>
   <g id="patch_5">
    <path d="M 27 128.16 
L 194.4 128.16 
" style="fill: none; stroke: #000000; stroke-width: 0.8; stroke-linejoin: miter; stroke-linecap: square"/>
   </g>
   <g id="patch_6">
    <path d="M 27 17.28 
L 194.4 17.28 
" style="fill: none; stroke: #000000; stroke-width: 0.8; stroke-linejoin: miter; stroke-linecap: square"/>
   </g>
  </g>
 </g>
 <defs>
  <clipPath id="p68a0708791">
   <rect x="27" y="17.28" width="167.4" height="110.88"/>
  </clipPath>
 </defs>
</svg>
