<?xml version="1.0" encoding="utf-8" standalone="no"?>
<!DOCTYPE svg PUBLIC "-//W3C//DTD SVG 1.1//EN"
  "http://www.w3.org/Graphics/SVG/1.1/DTD/svg11.dtd">
<svg xmlns:xlink="http://www.w3.org/1999/xlink" width="324pt" height="216pt" viewBox="0 0 324 216" xmlns="http://www.w3.org/2000/svg" version="1.1">
 <metadata>
  <rdf:RDF xmlns:dc="http://purl.org/dc/elements/1.1/" xmlns:cc="http://creativecommons.org/ns#" xmlns:rdf="http://www.w3.org/1999/02/22-rdf-syntax-ns#">
   <cc:Work>
    <dc:type rdf:resource="http://purl.org/dc/dcmitype/StillImage"/>
    <dc:date>2022-10-15T14:28:29.759193</dc:date>
    <dc:format>image/svg+xml</dc:format>
    <dc:creator>
     <cc:Agent>
      <dc:title>Matplotlib v3.5.1, https://matplotlib.org/</dc:title>
     </cc:Agent>
    </dc:creator>
   </cc:Work>
  </rdf:RDF>
 </metadata>
 <defs>
  <style type="text/css">*{stroke-linejoin: round; stroke-linecap: butt}</style>
 </defs>
 <g id="figure_1">
  <g id="patch_1">
   <path d="M 0 216 
L 324 216 
L 324 0 
L 0 0 
z
" style="fill: #ffffff"/>
  </g>
  <g id="axes_1">
   <g id="patch_2">
    <path d="M 40.5 192.24 
L 291.6 192.24 
L 291.6 25.92 
L 40.5 25.92 
z
" style="fill: #ffffff"/>
   </g>
   <g id="PolyCollection_1">
    <defs>
     <path id="maf0718da32" d="M 51.913636 -34.737741 
L 51.913636 -31.32 
L 55.372342 -31.32 
L 58.830933 -31.32 
L 62.289638 -31.32 
L 65.748344 -31.32 
L 69.207049 -31.32 
L 72.66564 -31.32 
L 76.124345 -31.32 
L 79.583051 -31.32 
L 83.041756 -31.32 
L 86.500347 -31.32 
L 89.959053 -31.32 
L 93.417758 -31.32 
L 96.876464 -31.32 
L 100.335054 -31.32 
L 103.79376 -31.32 
L 107.252465 -31.32 
L 110.711171 -31.32 
L 114.169762 -31.32 
L 117.628467 -31.32 
L 121.087173 -31.32 
L 124.545878 -31.32 
L 128.004469 -31.32 
L 131.463174 -31.32 
L 134.92188 -31.32 
L 138.380585 -31.32 
L 141.839176 -31.32 
L 145.297882 -31.32 
L 148.756587 -31.32 
L 152.215293 -31.32 
L 155.673998 -31.32 
L 159.132589 -31.32 
L 162.591295 -31.32 
L 166.05 -31.32 
L 169.508705 -31.32 
L 172.967296 -31.32 
L 176.426002 -31.32 
L 179.884707 -31.32 
L 183.343413 -31.32 
L 186.802004 -31.32 
L 190.260709 -31.32 
L 193.719415 -31.32 
L 197.17812 -31.32 
L 200.636711 -31.32 
L 204.095416 -31.32 
L 207.554122 -31.32 
L 211.012827 -31.32 
L 214.471418 -31.32 
L 217.930124 -31.32 
L 221.388829 -31.32 
L 224.847535 -31.32 
L 228.306125 -31.32 
L 231.764831 -31.32 
L 235.223536 -31.32 
L 238.682242 -31.32 
L 242.140833 -31.32 
L 245.599538 -31.32 
L 249.058244 -31.32 
L 252.516949 -31.32 
L 255.97554 -31.32 
L 259.434245 -31.32 
L 262.892951 -31.32 
L 266.351656 -31.32 
L 269.810247 -31.32 
L 273.268953 -31.32 
L 276.727658 -31.32 
L 280.186364 -31.32 
L 280.186364 -34.737741 
L 280.186364 -34.737741 
L 276.727658 -34.737741 
L 273.268953 -34.737741 
L 269.810247 -34.737741 
L 266.351656 -34.737741 
L 262.892951 -34.737741 
L 259.434245 -34.737741 
L 255.97554 -34.737741 
L 252.516949 -34.737741 
L 249.058244 -34.737741 
L 245.599538 -34.737741 
L 242.140833 -34.737741 
L 238.682242 -34.737741 
L 235.223536 -34.737741 
L 231.764831 -34.737741 
L 228.306125 -34.737741 
L 224.847535 -34.737741 
L 221.388829 -34.737741 
L 217.930124 -34.737741 
L 214.471418 -34.737741 
L 211.012827 -34.737741 
L 207.554122 -34.737741 
L 204.095416 -34.737741 
L 200.636711 -34.737741 
L 197.17812 -34.737741 
L 193.719415 -34.737741 
L 190.260709 -34.737741 
L 186.802004 -34.737741 
L 183.343413 -34.737741 
L 179.884707 -34.737741 
L 176.426002 -34.737741 
L 172.967296 -34.737741 
L 169.508705 -34.737741 
L 166.05 -34.737741 
L 162.591295 -34.737741 
L 159.132589 -34.737741 
L 155.673998 -34.737741 
L 152.215293 -34.737741 
L 148.756587 -34.737741 
L 145.297882 -34.737741 
L 141.839176 -34.737741 
L 138.380585 -34.737741 
L 134.92188 -34.737741 
L 131.463174 -34.737741 
L 128.004469 -34.737741 
L 124.545878 -34.737741 
L 121.087173 -34.737741 
L 117.628467 -34.737741 
L 114.169762 -34.737741 
L 110.711171 -34.737741 
L 107.252465 -34.737741 
L 103.79376 -34.737741 
L 100.335054 -34.737741 
L 96.876464 -34.737741 
L 93.417758 -34.737741 
L 89.959053 -34.737741 
L 86.500347 -34.737741 
L 83.041756 -34.737741 
L 79.583051 -34.737741 
L 76.124345 -34.737741 
L 72.66564 -34.737741 
L 69.207049 -34.737741 
L 65.748344 -34.737741 
L 62.289638 -34.737741 
L 58.830933 -34.737741 
L 55.372342 -34.737741 
L 51.913636 -34.737741 
z
" style="stroke: #ff0000; stroke-opacity: 0.3"/>
    </defs>
    <g clip-path="url(#p6aea53a53f)">
     <use xlink:href="#maf0718da32" x="0" y="216" style="fill: #ff0000; fill-opacity: 0.3; stroke: #ff0000; stroke-opacity: 0.3"/>
    </g>
   </g>
   <g id="matplotlib.axis_1">
    <g id="xtick_1">
     <g id="line2d_1">
      <defs>
       <path id="m55f26a33fb" d="M 0 0 
L 0 3.5 
" style="stroke: #000000; stroke-width: 0.8"/>
      </defs>
      <g>
       <use xlink:href="#m55f26a33fb" x="48.933398" y="192.24" style="stroke: #000000; stroke-width: 0.8"/>
      </g>
     </g>
     <g id="text_1">
      <!-- 0 -->
      <g transform="translate(43.843398 211.3975)scale(0.16 -0.16)">
       <defs>
        <path id="DejaVuSans-30" d="M 2034 4250 
Q 1547 4250 1301 3770 
Q 1056 3291 1056 2328 
Q 1056 1369 1301 889 
Q 1547 409 2034 409 
Q 2525 409 2770 889 
Q 3016 1369 3016 2328 
Q 3016 3291 2770 3770 
Q 2525 4250 2034 4250 
z
M 2034 4750 
Q 2819 4750 3233 4129 
Q 3647 3509 3647 2328 
Q 3647 1150 3233 529 
Q 2819 -91 2034 -91 
Q 1250 -91 836 529 
Q 422 1150 422 2328 
Q 422 3509 836 4129 
Q 1250 4750 2034 4750 
z
" transform="scale(0.015625)"/>
       </defs>
       <use xlink:href="#DejaVuSans-30"/>
      </g>
     </g>
    </g>
    <g id="xtick_2">
     <g id="line2d_2">
      <g>
       <use xlink:href="#m55f26a33fb" x="123.281086" y="192.24" style="stroke: #000000; stroke-width: 0.8"/>
      </g>
     </g>
     <g id="text_2">
      <!-- 20 -->
      <g transform="translate(113.101086 211.3975)scale(0.16 -0.16)">
       <defs>
        <path id="DejaVuSans-32" d="M 1228 531 
L 3431 531 
L 3431 0 
L 469 0 
L 469 531 
Q 828 903 1448 1529 
Q 2069 2156 2228 2338 
Q 2531 2678 2651 2914 
Q 2772 3150 2772 3378 
Q 2772 3750 2511 3984 
Q 2250 4219 1831 4219 
Q 1534 4219 1204 4116 
Q 875 4013 500 3803 
L 500 4441 
Q 881 4594 1212 4672 
Q 1544 4750 1819 4750 
Q 2544 4750 2975 4387 
Q 3406 4025 3406 3419 
Q 3406 3131 3298 2873 
Q 3191 2616 2906 2266 
Q 2828 2175 2409 1742 
Q 1991 1309 1228 531 
z
" transform="scale(0.015625)"/>
       </defs>
       <use xlink:href="#DejaVuSans-32"/>
       <use xlink:href="#DejaVuSans-30" x="63.623047"/>
      </g>
     </g>
    </g>
    <g id="xtick_3">
     <g id="line2d_3">
      <g>
       <use xlink:href="#m55f26a33fb" x="197.628775" y="192.24" style="stroke: #000000; stroke-width: 0.8"/>
      </g>
     </g>
     <g id="text_3">
      <!-- 40 -->
      <g transform="translate(187.448775 211.3975)scale(0.16 -0.16)">
       <defs>
        <path id="DejaVuSans-34" d="M 2419 4116 
L 825 1625 
L 2419 1625 
L 2419 4116 
z
M 2253 4666 
L 3047 4666 
L 3047 1625 
L 3713 1625 
L 3713 1100 
L 3047 1100 
L 3047 0 
L 2419 0 
L 2419 1100 
L 313 1100 
L 313 1709 
L 2253 4666 
z
" transform="scale(0.015625)"/>
       </defs>
       <use xlink:href="#DejaVuSans-34"/>
       <use xlink:href="#DejaVuSans-30" x="63.623047"/>
      </g>
     </g>
    </g>
    <g id="xtick_4">
     <g id="line2d_4">
      <g>
       <use xlink:href="#m55f26a33fb" x="271.976463" y="192.24" style="stroke: #000000; stroke-width: 0.8"/>
      </g>
     </g>
     <g id="text_4">
      <!-- 60 -->
      <g transform="translate(261.796463 211.3975)scale(0.16 -0.16)">
       <defs>
        <path id="DejaVuSans-36" d="M 2113 2584 
Q 1688 2584 1439 2293 
Q 1191 2003 1191 1497 
Q 1191 994 1439 701 
Q 1688 409 2113 409 
Q 2538 409 2786 701 
Q 3034 994 3034 1497 
Q 3034 2003 2786 2293 
Q 2538 2584 2113 2584 
z
M 3366 4563 
L 3366 3988 
Q 3128 4100 2886 4159 
Q 2644 4219 2406 4219 
Q 1781 4219 1451 3797 
Q 1122 3375 1075 2522 
Q 1259 2794 1537 2939 
Q 1816 3084 2150 3084 
Q 2853 3084 3261 2657 
Q 3669 2231 3669 1497 
Q 3669 778 3244 343 
Q 2819 -91 2113 -91 
Q 1303 -91 875 529 
Q 447 1150 447 2328 
Q 447 3434 972 4092 
Q 1497 4750 2381 4750 
Q 2619 4750 2861 4703 
Q 3103 4656 3366 4563 
z
" transform="scale(0.015625)"/>
       </defs>
       <use xlink:href="#DejaVuSans-36"/>
       <use xlink:href="#DejaVuSans-30" x="63.623047"/>
      </g>
     </g>
    </g>
   </g>
   <g id="matplotlib.axis_2">
    <g id="ytick_1">
     <g id="line2d_5">
      <defs>
       <path id="m9a57ad22af" d="M 0 0 
L -3.5 0 
" style="stroke: #000000; stroke-width: 0.8"/>
      </defs>
      <g>
       <use xlink:href="#m9a57ad22af" x="40.5" y="159.046941" style="stroke: #000000; stroke-width: 0.8"/>
      </g>
     </g>
     <g id="text_5">
      <!-- 500 -->
      <g transform="translate(2.96 165.125691)scale(0.16 -0.16)">
       <defs>
        <path id="DejaVuSans-35" d="M 691 4666 
L 3169 4666 
L 3169 4134 
L 1269 4134 
L 1269 2991 
Q 1406 3038 1543 3061 
Q 1681 3084 1819 3084 
Q 2600 3084 3056 2656 
Q 3513 2228 3513 1497 
Q 3513 744 3044 326 
Q 2575 -91 1722 -91 
Q 1428 -91 1123 -41 
Q 819 9 494 109 
L 494 744 
Q 775 591 1075 516 
Q 1375 441 1709 441 
Q 2250 441 2565 725 
Q 2881 1009 2881 1497 
Q 2881 1984 2565 2268 
Q 2250 2553 1709 2553 
Q 1456 2553 1204 2497 
Q 953 2441 691 2322 
L 691 4666 
z
" transform="scale(0.015625)"/>
       </defs>
       <use xlink:href="#DejaVuSans-35"/>
       <use xlink:href="#DejaVuSans-30" x="63.623047"/>
       <use xlink:href="#DejaVuSans-30" x="127.246094"/>
      </g>
     </g>
    </g>
    <g id="ytick_2">
     <g id="line2d_6">
      <g>
       <use xlink:href="#m9a57ad22af" x="40.5" y="116.325175" style="stroke: #000000; stroke-width: 0.8"/>
      </g>
     </g>
     <g id="text_6">
      <!-- 1000 -->
      <g transform="translate(-7.22 122.403925)scale(0.16 -0.16)">
       <defs>
        <path id="DejaVuSans-31" d="M 794 531 
L 1825 531 
L 1825 4091 
L 703 3866 
L 703 4441 
L 1819 4666 
L 2450 4666 
L 2450 531 
L 3481 531 
L 3481 0 
L 794 0 
L 794 531 
z
" transform="scale(0.015625)"/>
       </defs>
       <use xlink:href="#DejaVuSans-31"/>
       <use xlink:href="#DejaVuSans-30" x="63.623047"/>
       <use xlink:href="#DejaVuSans-30" x="127.246094"/>
       <use xlink:href="#DejaVuSans-30" x="190.869141"/>
      </g>
     </g>
    </g>
    <g id="ytick_3">
     <g id="line2d_7">
      <g>
       <use xlink:href="#m9a57ad22af" x="40.5" y="73.60341" style="stroke: #000000; stroke-width: 0.8"/>
      </g>
     </g>
     <g id="text_7">
      <!-- 1500 -->
      <g transform="translate(-7.22 79.68216)scale(0.16 -0.16)">
       <use xlink:href="#DejaVuSans-31"/>
       <use xlink:href="#DejaVuSans-35" x="63.623047"/>
       <use xlink:href="#DejaVuSans-30" x="127.246094"/>
       <use xlink:href="#DejaVuSans-30" x="190.869141"/>
      </g>
     </g>
    </g>
    <g id="ytick_4">
     <g id="line2d_8">
      <g>
       <use xlink:href="#m9a57ad22af" x="40.5" y="30.881644" style="stroke: #000000; stroke-width: 0.8"/>
      </g>
     </g>
     <g id="text_8">
      <!-- 2000 -->
      <g transform="translate(-7.22 36.960394)scale(0.16 -0.16)">
       <use xlink:href="#DejaVuSans-32"/>
       <use xlink:href="#DejaVuSans-30" x="63.623047"/>
       <use xlink:href="#DejaVuSans-30" x="127.246094"/>
       <use xlink:href="#DejaVuSans-30" x="190.869141"/>
      </g>
     </g>
    </g>
   </g>
   <g id="line2d_9">
    <path d="M 51.913636 33.48 
L 55.372342 35.060223 
L 58.830933 47.62078 
L 62.289638 63.731035 
L 65.748344 77.628465 
L 69.207049 89.205282 
L 72.66564 98.558139 
L 76.124345 106.814713 
L 79.583051 114.720515 
L 83.041756 120.830627 
L 86.500347 128.588475 
L 89.959053 135.04074 
L 93.417758 139.642567 
L 96.876464 144.579214 
L 100.335054 147.493968 
L 103.79376 151.650384 
L 107.252465 153.777177 
L 110.711171 156.522644 
L 114.169762 159.12158 
L 117.628467 162.895953 
L 121.087173 163.290564 
L 124.545878 165.662423 
L 128.004469 168.835029 
L 131.463174 169.1492 
L 134.92188 171.400948 
L 138.380585 171.436605 
L 141.839176 172.753855 
L 145.297882 173.909727 
L 148.756587 176.173088 
L 152.215293 176.58799 
L 155.673998 175.730409 
L 159.132589 177.494353 
L 162.591295 177.657945 
L 166.05 178.340617 
L 169.508705 178.679377 
L 172.967296 179.847411 
L 176.426002 180.156265 
L 179.884707 179.264878 
L 183.343413 178.158453 
L 186.802004 179.760516 
L 190.260709 179.900332 
L 193.719415 180.049833 
L 197.17812 180.123309 
L 200.636711 182.249519 
L 204.095416 180.850279 
L 207.554122 181.952425 
L 211.012827 180.558244 
L 214.471418 181.736604 
L 217.930124 181.549268 
L 221.388829 181.050185 
L 224.847535 181.971825 
L 228.306125 180.638626 
L 231.764831 182.988471 
L 235.223536 183.015902 
L 238.682242 182.38543 
L 242.140833 184.098252 
L 245.599538 181.992543 
L 249.058244 183.790795 
L 252.516949 182.7592 
L 255.97554 183.631167 
L 259.434245 182.665092 
L 262.892951 183.818853 
L 266.351656 183.486772 
L 269.810247 182.969998 
L 273.268953 182.504669 
L 276.727658 182.980036 
L 280.186364 182.45435 
" clip-path="url(#p6aea53a53f)" style="fill: none; stroke: #1f77b4; stroke-width: 1.5; stroke-linecap: square"/>
   </g>
   <g id="patch_3">
    <path d="M 40.5 192.24 
L 40.5 25.92 
" style="fill: none; stroke: #000000; stroke-width: 0.8; stroke-linejoin: miter; stroke-linecap: square"/>
   </g>
   <g id="patch_4">
    <path d="M 291.6 192.24 
L 291.6 25.92 
" style="fill: none; stroke: #000000; stroke-width: 0.8; stroke-linejoin: miter; stroke-linecap: square"/>
   </g>
   <g id="patch_5">
    <path d="M 40.5 192.24 
L 291.6 192.24 
" style="fill: none; stroke: #000000; stroke-width: 0.8; stroke-linejoin: miter; stroke-linecap: square"/>
   </g>
   <g id="patch_6">
    <path d="M 40.5 25.92 
L 291.6 25.92 
" style="fill: none; stroke: #000000; stroke-width: 0.8; stroke-linejoin: miter; stroke-linecap: square"/>
   </g>
   <g id="legend_1">
    <g id="patch_7">
     <path d="M 199.9 63.27625 
L 284.6 63.27625 
Q 286.6 63.27625 286.6 61.27625 
L 286.6 32.92 
Q 286.6 30.92 284.6 30.92 
L 199.9 30.92 
Q 197.9 30.92 197.9 32.92 
L 197.9 61.27625 
Q 197.9 63.27625 199.9 63.27625 
z
" style="fill: #ffffff; opacity: 0.8; stroke: #cccccc; stroke-linejoin: miter"/>
    </g>
    <g id="line2d_10">
     <path d="M 201.9 39.018437 
L 211.9 39.018437 
L 221.9 39.018437 
" style="fill: none; stroke: #1f77b4; stroke-width: 1.5; stroke-linecap: square"/>
    </g>
    <g id="text_9">
     <!-- $\Gamma_1 (B)$ -->
     <g transform="translate(229.9 42.518437)scale(0.1 -0.1)">
      <defs>
       <path id="DejaVuSans-393" d="M 628 0 
L 628 4666 
L 3531 4666 
L 3531 4134 
L 1259 4134 
L 1259 0 
L 628 0 
z
" transform="scale(0.015625)"/>
       <path id="DejaVuSans-28" d="M 1984 4856 
Q 1566 4138 1362 3434 
Q 1159 2731 1159 2009 
Q 1159 1288 1364 580 
Q 1569 -128 1984 -844 
L 1484 -844 
Q 1016 -109 783 600 
Q 550 1309 550 2009 
Q 550 2706 781 3412 
Q 1013 4119 1484 4856 
L 1984 4856 
z
" transform="scale(0.015625)"/>
       <path id="DejaVuSans-Oblique-42" d="M 1081 4666 
L 2694 4666 
Q 3350 4666 3675 4422 
Q 4000 4178 4000 3688 
Q 4000 3238 3720 2911 
Q 3441 2584 2988 2516 
Q 3375 2428 3569 2181 
Q 3763 1934 3763 1522 
Q 3763 819 3242 409 
Q 2722 0 1819 0 
L 172 0 
L 1081 4666 
z
M 1234 2228 
L 903 519 
L 1919 519 
Q 2491 519 2800 781 
Q 3109 1044 3109 1522 
Q 3109 1891 2904 2059 
Q 2700 2228 2247 2228 
L 1234 2228 
z
M 1606 4147 
L 1331 2741 
L 2272 2741 
Q 2775 2741 3058 2959 
Q 3341 3178 3341 3566 
Q 3341 3869 3150 4008 
Q 2959 4147 2541 4147 
L 1606 4147 
z
" transform="scale(0.015625)"/>
       <path id="DejaVuSans-29" d="M 513 4856 
L 1013 4856 
Q 1481 4119 1714 3412 
Q 1947 2706 1947 2009 
Q 1947 1309 1714 600 
Q 1481 -109 1013 -844 
L 513 -844 
Q 928 -128 1133 580 
Q 1338 1288 1338 2009 
Q 1338 2731 1133 3434 
Q 928 4138 513 4856 
z
" transform="scale(0.015625)"/>
      </defs>
      <use xlink:href="#DejaVuSans-393" transform="translate(0 0.125)"/>
      <use xlink:href="#DejaVuSans-31" transform="translate(56.669922 -16.28125)scale(0.7)"/>
      <use xlink:href="#DejaVuSans-28" transform="translate(103.94043 0.125)"/>
      <use xlink:href="#DejaVuSans-Oblique-42" transform="translate(142.954102 0.125)"/>
      <use xlink:href="#DejaVuSans-29" transform="translate(211.557617 0.125)"/>
     </g>
    </g>
    <g id="patch_8">
     <path d="M 201.9 57.196562 
L 221.9 57.196562 
L 221.9 50.196562 
L 201.9 50.196562 
z
" style="fill: #ff0000; fill-opacity: 0.3; stroke: #ff0000; stroke-opacity: 0.3; stroke-linejoin: miter"/>
    </g>
    <g id="text_10">
     <!-- $\Gamma_1 (\rm{1\ class})$ -->
     <g transform="translate(229.9 57.196562)scale(0.1 -0.1)">
      <defs>
       <path id="DejaVuSans-63" d="M 3122 3366 
L 3122 2828 
Q 2878 2963 2633 3030 
Q 2388 3097 2138 3097 
Q 1578 3097 1268 2742 
Q 959 2388 959 1747 
Q 959 1106 1268 751 
Q 1578 397 2138 397 
Q 2388 397 2633 464 
Q 2878 531 3122 666 
L 3122 134 
Q 2881 22 2623 -34 
Q 2366 -91 2075 -91 
Q 1284 -91 818 406 
Q 353 903 353 1747 
Q 353 2603 823 3093 
Q 1294 3584 2113 3584 
Q 2378 3584 2631 3529 
Q 2884 3475 3122 3366 
z
" transform="scale(0.015625)"/>
       <path id="DejaVuSans-6c" d="M 603 4863 
L 1178 4863 
L 1178 0 
L 603 0 
L 603 4863 
z
" transform="scale(0.015625)"/>
       <path id="DejaVuSans-61" d="M 2194 1759 
Q 1497 1759 1228 1600 
Q 959 1441 959 1056 
Q 959 750 1161 570 
Q 1363 391 1709 391 
Q 2188 391 2477 730 
Q 2766 1069 2766 1631 
L 2766 1759 
L 2194 1759 
z
M 3341 1997 
L 3341 0 
L 2766 0 
L 2766 531 
Q 2569 213 2275 61 
Q 1981 -91 1556 -91 
Q 1019 -91 701 211 
Q 384 513 384 1019 
Q 384 1609 779 1909 
Q 1175 2209 1959 2209 
L 2766 2209 
L 2766 2266 
Q 2766 2663 2505 2880 
Q 2244 3097 1772 3097 
Q 1472 3097 1187 3025 
Q 903 2953 641 2809 
L 641 3341 
Q 956 3463 1253 3523 
Q 1550 3584 1831 3584 
Q 2591 3584 2966 3190 
Q 3341 2797 3341 1997 
z
" transform="scale(0.015625)"/>
       <path id="DejaVuSans-73" d="M 2834 3397 
L 2834 2853 
Q 2591 2978 2328 3040 
Q 2066 3103 1784 3103 
Q 1356 3103 1142 2972 
Q 928 2841 928 2578 
Q 928 2378 1081 2264 
Q 1234 2150 1697 2047 
L 1894 2003 
Q 2506 1872 2764 1633 
Q 3022 1394 3022 966 
Q 3022 478 2636 193 
Q 2250 -91 1575 -91 
Q 1294 -91 989 -36 
Q 684 19 347 128 
L 347 722 
Q 666 556 975 473 
Q 1284 391 1588 391 
Q 1994 391 2212 530 
Q 2431 669 2431 922 
Q 2431 1156 2273 1281 
Q 2116 1406 1581 1522 
L 1381 1569 
Q 847 1681 609 1914 
Q 372 2147 372 2553 
Q 372 3047 722 3315 
Q 1072 3584 1716 3584 
Q 2034 3584 2315 3537 
Q 2597 3491 2834 3397 
z
" transform="scale(0.015625)"/>
      </defs>
      <use xlink:href="#DejaVuSans-393" transform="translate(0 0.015625)"/>
      <use xlink:href="#DejaVuSans-31" transform="translate(56.669922 -16.390625)scale(0.7)"/>
      <use xlink:href="#DejaVuSans-28" transform="translate(103.94043 0.015625)"/>
      <use xlink:href="#DejaVuSans-31" transform="translate(142.954102 0.015625)"/>
      <use xlink:href="#DejaVuSans-63" transform="translate(239.047527 0.015625)"/>
      <use xlink:href="#DejaVuSans-6c" transform="translate(294.027996 0.015625)"/>
      <use xlink:href="#DejaVuSans-61" transform="translate(321.811199 0.015625)"/>
      <use xlink:href="#DejaVuSans-73" transform="translate(383.090496 0.015625)"/>
      <use xlink:href="#DejaVuSans-73" transform="translate(435.190105 0.015625)"/>
      <use xlink:href="#DejaVuSans-29" transform="translate(487.289714 0.015625)"/>
     </g>
    </g>
   </g>
  </g>
 </g>
 <defs>
  <clipPath id="p6aea53a53f">
   <rect x="40.5" y="25.92" width="251.1" height="166.32"/>
  </clipPath>
 </defs>
</svg>
