<?xml version="1.0" encoding="utf-8" standalone="no"?>
<!DOCTYPE svg PUBLIC "-//W3C//DTD SVG 1.1//EN"
  "http://www.w3.org/Graphics/SVG/1.1/DTD/svg11.dtd">
<svg xmlns:xlink="http://www.w3.org/1999/xlink" width="324pt" height="216pt" viewBox="0 0 324 216" xmlns="http://www.w3.org/2000/svg" version="1.1">
 <metadata>
  <rdf:RDF xmlns:dc="http://purl.org/dc/elements/1.1/" xmlns:cc="http://creativecommons.org/ns#" xmlns:rdf="http://www.w3.org/1999/02/22-rdf-syntax-ns#">
   <cc:Work>
    <dc:type rdf:resource="http://purl.org/dc/dcmitype/StillImage"/>
    <dc:date>2022-10-15T14:30:26.708646</dc:date>
    <dc:format>image/svg+xml</dc:format>
    <dc:creator>
     <cc:Agent>
      <dc:title>Matplotlib v3.5.1, https://matplotlib.org/</dc:title>
     </cc:Agent>
    </dc:creator>
   </cc:Work>
  </rdf:RDF>
 </metadata>
 <defs>
  <style type="text/css">*{stroke-linejoin: round; stroke-linecap: butt}</style>
 </defs>
 <g id="figure_1">
  <g id="patch_1">
   <path d="M 0 216 
L 324 216 
L 324 0 
L 0 0 
z
" style="fill: #ffffff"/>
  </g>
  <g id="axes_1">
   <g id="patch_2">
    <path d="M 40.5 192.24 
L 291.6 192.24 
L 291.6 25.92 
L 40.5 25.92 
z
" style="fill: #ffffff"/>
   </g>
   <g id="PolyCollection_1">
    <defs>
     <path id="m2ae172f356" d="M 280.186364 -34.984151 
L 280.186364 -31.32 
L 278.032794 -31.32 
L 275.879331 -31.32 
L 273.725761 -31.32 
L 271.572298 -31.32 
L 269.418729 -31.32 
L 267.265266 -31.32 
L 265.111696 -31.32 
L 262.958233 -31.32 
L 260.804663 -31.32 
L 258.651201 -31.32 
L 256.497631 -31.32 
L 254.344168 -31.32 
L 252.190598 -31.32 
L 250.037136 -31.32 
L 247.883566 -31.32 
L 245.730103 -31.32 
L 243.576533 -31.32 
L 241.42307 -31.32 
L 239.2695 -31.32 
L 237.116038 -31.32 
L 234.962468 -31.32 
L 232.809005 -31.32 
L 230.655435 -31.32 
L 228.501973 -31.32 
L 226.348403 -31.32 
L 224.19494 -31.32 
L 222.04137 -31.32 
L 219.887907 -31.32 
L 217.734338 -31.32 
L 215.580875 -31.32 
L 213.427305 -31.32 
L 211.273842 -31.32 
L 209.120272 -31.32 
L 206.96681 -31.32 
L 204.81324 -31.32 
L 202.659777 -31.32 
L 200.506207 -31.32 
L 198.352744 -31.32 
L 196.199175 -31.32 
L 194.045712 -31.32 
L 191.892142 -31.32 
L 189.738679 -31.32 
L 187.585109 -31.32 
L 185.431647 -31.32 
L 183.278077 -31.32 
L 181.124614 -31.32 
L 178.971044 -31.32 
L 176.817581 -31.32 
L 174.664012 -31.32 
L 172.510549 -31.32 
L 170.356979 -31.32 
L 168.203516 -31.32 
L 166.049946 -31.32 
L 163.896484 -31.32 
L 161.742914 -31.32 
L 159.589451 -31.32 
L 157.435881 -31.32 
L 155.282419 -31.32 
L 153.128849 -31.32 
L 150.975386 -31.32 
L 148.821816 -31.32 
L 146.668353 -31.32 
L 144.514783 -31.32 
L 142.361321 -31.32 
L 140.207751 -31.32 
L 138.054288 -31.32 
L 135.900718 -31.32 
L 133.747256 -31.32 
L 131.593686 -31.32 
L 129.440223 -31.32 
L 127.286653 -31.32 
L 125.13319 -31.32 
L 122.979621 -31.32 
L 120.826158 -31.32 
L 118.672588 -31.32 
L 116.519125 -31.32 
L 114.365555 -31.32 
L 112.212093 -31.32 
L 110.058523 -31.32 
L 107.90506 -31.32 
L 105.75149 -31.32 
L 103.598027 -31.32 
L 101.444458 -31.32 
L 99.290995 -31.32 
L 97.137425 -31.32 
L 94.983962 -31.32 
L 92.830392 -31.32 
L 90.67693 -31.32 
L 88.52336 -31.32 
L 86.369897 -31.32 
L 84.216327 -31.32 
L 82.062864 -31.32 
L 79.909295 -31.32 
L 77.755832 -31.32 
L 75.602262 -31.32 
L 73.448799 -31.32 
L 71.295229 -31.32 
L 69.141767 -31.32 
L 66.988197 -31.32 
L 64.834734 -31.32 
L 62.681164 -31.32 
L 60.527702 -31.32 
L 58.374132 -31.32 
L 56.220669 -31.32 
L 54.067099 -31.32 
L 51.913636 -31.32 
L 51.913636 -34.984151 
L 51.913636 -34.984151 
L 54.067099 -34.984151 
L 56.220669 -34.984151 
L 58.374132 -34.984151 
L 60.527702 -34.984151 
L 62.681164 -34.984151 
L 64.834734 -34.984151 
L 66.988197 -34.984151 
L 69.141767 -34.984151 
L 71.295229 -34.984151 
L 73.448799 -34.984151 
L 75.602262 -34.984151 
L 77.755832 -34.984151 
L 79.909295 -34.984151 
L 82.062864 -34.984151 
L 84.216327 -34.984151 
L 86.369897 -34.984151 
L 88.52336 -34.984151 
L 90.67693 -34.984151 
L 92.830392 -34.984151 
L 94.983962 -34.984151 
L 97.137425 -34.984151 
L 99.290995 -34.984151 
L 101.444458 -34.984151 
L 103.598027 -34.984151 
L 105.75149 -34.984151 
L 107.90506 -34.984151 
L 110.058523 -34.984151 
L 112.212093 -34.984151 
L 114.365555 -34.984151 
L 116.519125 -34.984151 
L 118.672588 -34.984151 
L 120.826158 -34.984151 
L 122.979621 -34.984151 
L 125.13319 -34.984151 
L 127.286653 -34.984151 
L 129.440223 -34.984151 
L 131.593686 -34.984151 
L 133.747256 -34.984151 
L 135.900718 -34.984151 
L 138.054288 -34.984151 
L 140.207751 -34.984151 
L 142.361321 -34.984151 
L 144.514783 -34.984151 
L 146.668353 -34.984151 
L 148.821816 -34.984151 
L 150.975386 -34.984151 
L 153.128849 -34.984151 
L 155.282419 -34.984151 
L 157.435881 -34.984151 
L 159.589451 -34.984151 
L 161.742914 -34.984151 
L 163.896484 -34.984151 
L 166.049946 -34.984151 
L 168.203516 -34.984151 
L 170.356979 -34.984151 
L 172.510549 -34.984151 
L 174.664012 -34.984151 
L 176.817581 -34.984151 
L 178.971044 -34.984151 
L 181.124614 -34.984151 
L 183.278077 -34.984151 
L 185.431647 -34.984151 
L 187.585109 -34.984151 
L 189.738679 -34.984151 
L 191.892142 -34.984151 
L 194.045712 -34.984151 
L 196.199175 -34.984151 
L 198.352744 -34.984151 
L 200.506207 -34.984151 
L 202.659777 -34.984151 
L 204.81324 -34.984151 
L 206.96681 -34.984151 
L 209.120272 -34.984151 
L 211.273842 -34.984151 
L 213.427305 -34.984151 
L 215.580875 -34.984151 
L 217.734338 -34.984151 
L 219.887907 -34.984151 
L 222.04137 -34.984151 
L 224.19494 -34.984151 
L 226.348403 -34.984151 
L 228.501973 -34.984151 
L 230.655435 -34.984151 
L 232.809005 -34.984151 
L 234.962468 -34.984151 
L 237.116038 -34.984151 
L 239.2695 -34.984151 
L 241.42307 -34.984151 
L 243.576533 -34.984151 
L 245.730103 -34.984151 
L 247.883566 -34.984151 
L 250.037136 -34.984151 
L 252.190598 -34.984151 
L 254.344168 -34.984151 
L 256.497631 -34.984151 
L 258.651201 -34.984151 
L 260.804663 -34.984151 
L 262.958233 -34.984151 
L 265.111696 -34.984151 
L 267.265266 -34.984151 
L 269.418729 -34.984151 
L 271.572298 -34.984151 
L 273.725761 -34.984151 
L 275.879331 -34.984151 
L 278.032794 -34.984151 
L 280.186364 -34.984151 
z
" style="stroke: #ff0000; stroke-opacity: 0.3"/>
    </defs>
    <g clip-path="url(#p4a1c86be3a)">
     <use xlink:href="#m2ae172f356" x="0" y="216" style="fill: #ff0000; fill-opacity: 0.3; stroke: #ff0000; stroke-opacity: 0.3"/>
    </g>
   </g>
   <g id="matplotlib.axis_1">
    <g id="xtick_1">
     <g id="line2d_1">
      <defs>
       <path id="m337b75afc7" d="M 0 0 
L 0 3.5 
" style="stroke: #000000; stroke-width: 0.8"/>
      </defs>
      <g>
       <use xlink:href="#m337b75afc7" x="48.769474" y="192.24" style="stroke: #000000; stroke-width: 0.8"/>
      </g>
     </g>
     <g id="text_1">
      <!-- 0 -->
      <g transform="translate(43.679474 211.3975)scale(0.16 -0.16)">
       <defs>
        <path id="DejaVuSans-30" d="M 2034 4250 
Q 1547 4250 1301 3770 
Q 1056 3291 1056 2328 
Q 1056 1369 1301 889 
Q 1547 409 2034 409 
Q 2525 409 2770 889 
Q 3016 1369 3016 2328 
Q 3016 3291 2770 3770 
Q 2525 4250 2034 4250 
z
M 2034 4750 
Q 2819 4750 3233 4129 
Q 3647 3509 3647 2328 
Q 3647 1150 3233 529 
Q 2819 -91 2034 -91 
Q 1250 -91 836 529 
Q 422 1150 422 2328 
Q 422 3509 836 4129 
Q 1250 4750 2034 4750 
z
" transform="scale(0.015625)"/>
       </defs>
       <use xlink:href="#DejaVuSans-30"/>
      </g>
     </g>
    </g>
    <g id="xtick_2">
     <g id="line2d_2">
      <g>
       <use xlink:href="#m337b75afc7" x="122.65737" y="192.24" style="stroke: #000000; stroke-width: 0.8"/>
      </g>
     </g>
     <g id="text_2">
      <!-- 20 -->
      <g transform="translate(112.47737 211.3975)scale(0.16 -0.16)">
       <defs>
        <path id="DejaVuSans-32" d="M 1228 531 
L 3431 531 
L 3431 0 
L 469 0 
L 469 531 
Q 828 903 1448 1529 
Q 2069 2156 2228 2338 
Q 2531 2678 2651 2914 
Q 2772 3150 2772 3378 
Q 2772 3750 2511 3984 
Q 2250 4219 1831 4219 
Q 1534 4219 1204 4116 
Q 875 4013 500 3803 
L 500 4441 
Q 881 4594 1212 4672 
Q 1544 4750 1819 4750 
Q 2544 4750 2975 4387 
Q 3406 4025 3406 3419 
Q 3406 3131 3298 2873 
Q 3191 2616 2906 2266 
Q 2828 2175 2409 1742 
Q 1991 1309 1228 531 
z
" transform="scale(0.015625)"/>
       </defs>
       <use xlink:href="#DejaVuSans-32"/>
       <use xlink:href="#DejaVuSans-30" x="63.623047"/>
      </g>
     </g>
    </g>
    <g id="xtick_3">
     <g id="line2d_3">
      <g>
       <use xlink:href="#m337b75afc7" x="196.545265" y="192.24" style="stroke: #000000; stroke-width: 0.8"/>
      </g>
     </g>
     <g id="text_3">
      <!-- 40 -->
      <g transform="translate(186.365265 211.3975)scale(0.16 -0.16)">
       <defs>
        <path id="DejaVuSans-34" d="M 2419 4116 
L 825 1625 
L 2419 1625 
L 2419 4116 
z
M 2253 4666 
L 3047 4666 
L 3047 1625 
L 3713 1625 
L 3713 1100 
L 3047 1100 
L 3047 0 
L 2419 0 
L 2419 1100 
L 313 1100 
L 313 1709 
L 2253 4666 
z
" transform="scale(0.015625)"/>
       </defs>
       <use xlink:href="#DejaVuSans-34"/>
       <use xlink:href="#DejaVuSans-30" x="63.623047"/>
      </g>
     </g>
    </g>
    <g id="xtick_4">
     <g id="line2d_4">
      <g>
       <use xlink:href="#m337b75afc7" x="270.433161" y="192.24" style="stroke: #000000; stroke-width: 0.8"/>
      </g>
     </g>
     <g id="text_4">
      <!-- 60 -->
      <g transform="translate(260.253161 211.3975)scale(0.16 -0.16)">
       <defs>
        <path id="DejaVuSans-36" d="M 2113 2584 
Q 1688 2584 1439 2293 
Q 1191 2003 1191 1497 
Q 1191 994 1439 701 
Q 1688 409 2113 409 
Q 2538 409 2786 701 
Q 3034 994 3034 1497 
Q 3034 2003 2786 2293 
Q 2538 2584 2113 2584 
z
M 3366 4563 
L 3366 3988 
Q 3128 4100 2886 4159 
Q 2644 4219 2406 4219 
Q 1781 4219 1451 3797 
Q 1122 3375 1075 2522 
Q 1259 2794 1537 2939 
Q 1816 3084 2150 3084 
Q 2853 3084 3261 2657 
Q 3669 2231 3669 1497 
Q 3669 778 3244 343 
Q 2819 -91 2113 -91 
Q 1303 -91 875 529 
Q 447 1150 447 2328 
Q 447 3434 972 4092 
Q 1497 4750 2381 4750 
Q 2619 4750 2861 4703 
Q 3103 4656 3366 4563 
z
" transform="scale(0.015625)"/>
       </defs>
       <use xlink:href="#DejaVuSans-36"/>
       <use xlink:href="#DejaVuSans-30" x="63.623047"/>
      </g>
     </g>
    </g>
   </g>
   <g id="matplotlib.axis_2">
    <g id="ytick_1">
     <g id="line2d_5">
      <defs>
       <path id="m80aec7e27d" d="M 0 0 
L -3.5 0 
" style="stroke: #000000; stroke-width: 0.8"/>
      </defs>
      <g>
       <use xlink:href="#m80aec7e27d" x="40.5" y="157.198871" style="stroke: #000000; stroke-width: 0.8"/>
      </g>
     </g>
     <g id="text_5">
      <!-- 500 -->
      <g transform="translate(2.96 163.277621)scale(0.16 -0.16)">
       <defs>
        <path id="DejaVuSans-35" d="M 691 4666 
L 3169 4666 
L 3169 4134 
L 1269 4134 
L 1269 2991 
Q 1406 3038 1543 3061 
Q 1681 3084 1819 3084 
Q 2600 3084 3056 2656 
Q 3513 2228 3513 1497 
Q 3513 744 3044 326 
Q 2575 -91 1722 -91 
Q 1428 -91 1123 -41 
Q 819 9 494 109 
L 494 744 
Q 775 591 1075 516 
Q 1375 441 1709 441 
Q 2250 441 2565 725 
Q 2881 1009 2881 1497 
Q 2881 1984 2565 2268 
Q 2250 2553 1709 2553 
Q 1456 2553 1204 2497 
Q 953 2441 691 2322 
L 691 4666 
z
" transform="scale(0.015625)"/>
       </defs>
       <use xlink:href="#DejaVuSans-35"/>
       <use xlink:href="#DejaVuSans-30" x="63.623047"/>
       <use xlink:href="#DejaVuSans-30" x="127.246094"/>
      </g>
     </g>
    </g>
    <g id="ytick_2">
     <g id="line2d_6">
      <g>
       <use xlink:href="#m80aec7e27d" x="40.5" y="111.396988" style="stroke: #000000; stroke-width: 0.8"/>
      </g>
     </g>
     <g id="text_6">
      <!-- 1000 -->
      <g transform="translate(-7.22 117.475738)scale(0.16 -0.16)">
       <defs>
        <path id="DejaVuSans-31" d="M 794 531 
L 1825 531 
L 1825 4091 
L 703 3866 
L 703 4441 
L 1819 4666 
L 2450 4666 
L 2450 531 
L 3481 531 
L 3481 0 
L 794 0 
L 794 531 
z
" transform="scale(0.015625)"/>
       </defs>
       <use xlink:href="#DejaVuSans-31"/>
       <use xlink:href="#DejaVuSans-30" x="63.623047"/>
       <use xlink:href="#DejaVuSans-30" x="127.246094"/>
       <use xlink:href="#DejaVuSans-30" x="190.869141"/>
      </g>
     </g>
    </g>
    <g id="ytick_3">
     <g id="line2d_7">
      <g>
       <use xlink:href="#m80aec7e27d" x="40.5" y="65.595106" style="stroke: #000000; stroke-width: 0.8"/>
      </g>
     </g>
     <g id="text_7">
      <!-- 1500 -->
      <g transform="translate(-7.22 71.673856)scale(0.16 -0.16)">
       <use xlink:href="#DejaVuSans-31"/>
       <use xlink:href="#DejaVuSans-35" x="63.623047"/>
       <use xlink:href="#DejaVuSans-30" x="127.246094"/>
       <use xlink:href="#DejaVuSans-30" x="190.869141"/>
      </g>
     </g>
    </g>
   </g>
   <g id="line2d_8">
    <path d="M 280.186364 62.634534 
L 278.032794 61.095977 
L 275.879331 59.880283 
L 273.725761 60.211311 
L 271.572298 61.343987 
L 269.418729 60.835552 
L 267.265266 60.501545 
L 265.111696 62.172303 
L 262.958233 61.022155 
L 260.804663 60.930555 
L 258.651201 59.950268 
L 256.497631 59.945212 
L 254.344168 60.848194 
L 252.190598 60.863459 
L 250.037136 61.37964 
L 247.883566 59.103779 
L 245.730103 60.16895 
L 243.576533 59.907125 
L 241.42307 60.91612 
L 239.2695 60.223296 
L 237.116038 61.610643 
L 234.962468 60.086594 
L 232.809005 60.671528 
L 230.655435 59.168362 
L 228.501973 63.032405 
L 226.348403 59.695273 
L 224.19494 61.08674 
L 222.04137 59.714522 
L 219.887907 62.864228 
L 217.734338 59.108949 
L 215.580875 60.841648 
L 213.427305 59.668692 
L 211.273842 62.058467 
L 209.120272 58.839741 
L 206.96681 63.004117 
L 204.81324 60.275891 
L 202.659777 61.725123 
L 200.506207 60.034036 
L 198.352744 63.437023 
L 196.199175 60.412917 
L 194.045712 61.492932 
L 191.892142 60.476684 
L 189.738679 60.685069 
L 187.585109 61.484886 
L 185.431647 62.414436 
L 183.278077 60.084907 
L 181.124614 61.22539 
L 178.971044 60.272557 
L 176.817581 62.376128 
L 174.664012 60.733076 
L 172.510549 61.552733 
L 170.356979 61.727767 
L 168.203516 61.367861 
L 166.049946 60.745123 
L 163.896484 62.674134 
L 161.742914 61.435994 
L 159.589451 63.372422 
L 157.435881 61.617089 
L 155.282419 62.317602 
L 153.128849 62.145994 
L 150.975386 63.078572 
L 148.821816 62.350602 
L 146.668353 63.454114 
L 144.514783 63.047743 
L 142.361321 62.477194 
L 140.207751 61.704534 
L 138.054288 62.297492 
L 135.900718 61.095908 
L 133.747256 61.204452 
L 131.593686 60.578823 
L 129.440223 60.024889 
L 127.286653 58.974428 
L 125.13319 62.689987 
L 122.979621 59.626354 
L 120.826158 60.834798 
L 118.672588 60.848449 
L 116.519125 62.985996 
L 114.365555 60.777623 
L 112.212093 62.609779 
L 110.058523 61.395583 
L 107.90506 65.252956 
L 105.75149 63.294313 
L 103.598027 65.393554 
L 101.444458 64.4706 
L 99.290995 68.23569 
L 97.137425 65.596972 
L 94.983962 67.566515 
L 92.830392 66.131427 
L 90.67693 66.733429 
L 88.52336 66.000825 
L 86.369897 67.14108 
L 84.216327 65.608962 
L 82.062864 68.050427 
L 79.909295 65.485754 
L 77.755832 65.629984 
L 75.602262 63.506489 
L 73.448799 63.038348 
L 71.295229 60.500511 
L 69.141767 59.418586 
L 66.988197 57.825096 
L 64.834734 55.752321 
L 62.681164 53.636911 
L 60.527702 51.482692 
L 58.374132 45.204016 
L 56.220669 43.779032 
L 54.067099 38.270468 
L 51.913636 33.48 
" clip-path="url(#p4a1c86be3a)" style="fill: none; stroke: #1f77b4; stroke-width: 1.5; stroke-linecap: square"/>
   </g>
   <g id="patch_3">
    <path d="M 40.5 192.24 
L 40.5 25.92 
" style="fill: none; stroke: #000000; stroke-width: 0.8; stroke-linejoin: miter; stroke-linecap: square"/>
   </g>
   <g id="patch_4">
    <path d="M 291.6 192.24 
L 291.6 25.92 
" style="fill: none; stroke: #000000; stroke-width: 0.8; stroke-linejoin: miter; stroke-linecap: square"/>
   </g>
   <g id="patch_5">
    <path d="M 40.5 192.24 
L 291.6 192.24 
" style="fill: none; stroke: #000000; stroke-width: 0.8; stroke-linejoin: miter; stroke-linecap: square"/>
   </g>
   <g id="patch_6">
    <path d="M 40.5 25.92 
L 291.6 25.92 
" style="fill: none; stroke: #000000; stroke-width: 0.8; stroke-linejoin: miter; stroke-linecap: square"/>
   </g>
   <g id="legend_1">
    <g id="patch_7">
     <path d="M 47.5 187.24 
L 132.2 187.24 
Q 134.2 187.24 134.2 185.24 
L 134.2 156.88375 
Q 134.2 154.88375 132.2 154.88375 
L 47.5 154.88375 
Q 45.5 154.88375 45.5 156.88375 
L 45.5 185.24 
Q 45.5 187.24 47.5 187.24 
z
" style="fill: #ffffff; opacity: 0.8; stroke: #cccccc; stroke-linejoin: miter"/>
    </g>
    <g id="line2d_9">
     <path d="M 49.5 162.982188 
L 59.5 162.982188 
L 69.5 162.982188 
" style="fill: none; stroke: #1f77b4; stroke-width: 1.5; stroke-linecap: square"/>
    </g>
    <g id="text_8">
     <!-- $\Gamma_1 (B)$ -->
     <g transform="translate(77.5 166.482188)scale(0.1 -0.1)">
      <defs>
       <path id="DejaVuSans-393" d="M 628 0 
L 628 4666 
L 3531 4666 
L 3531 4134 
L 1259 4134 
L 1259 0 
L 628 0 
z
" transform="scale(0.015625)"/>
       <path id="DejaVuSans-28" d="M 1984 4856 
Q 1566 4138 1362 3434 
Q 1159 2731 1159 2009 
Q 1159 1288 1364 580 
Q 1569 -128 1984 -844 
L 1484 -844 
Q 1016 -109 783 600 
Q 550 1309 550 2009 
Q 550 2706 781 3412 
Q 1013 4119 1484 4856 
L 1984 4856 
z
" transform="scale(0.015625)"/>
       <path id="DejaVuSans-Oblique-42" d="M 1081 4666 
L 2694 4666 
Q 3350 4666 3675 4422 
Q 4000 4178 4000 3688 
Q 4000 3238 3720 2911 
Q 3441 2584 2988 2516 
Q 3375 2428 3569 2181 
Q 3763 1934 3763 1522 
Q 3763 819 3242 409 
Q 2722 0 1819 0 
L 172 0 
L 1081 4666 
z
M 1234 2228 
L 903 519 
L 1919 519 
Q 2491 519 2800 781 
Q 3109 1044 3109 1522 
Q 3109 1891 2904 2059 
Q 2700 2228 2247 2228 
L 1234 2228 
z
M 1606 4147 
L 1331 2741 
L 2272 2741 
Q 2775 2741 3058 2959 
Q 3341 3178 3341 3566 
Q 3341 3869 3150 4008 
Q 2959 4147 2541 4147 
L 1606 4147 
z
" transform="scale(0.015625)"/>
       <path id="DejaVuSans-29" d="M 513 4856 
L 1013 4856 
Q 1481 4119 1714 3412 
Q 1947 2706 1947 2009 
Q 1947 1309 1714 600 
Q 1481 -109 1013 -844 
L 513 -844 
Q 928 -128 1133 580 
Q 1338 1288 1338 2009 
Q 1338 2731 1133 3434 
Q 928 4138 513 4856 
z
" transform="scale(0.015625)"/>
      </defs>
      <use xlink:href="#DejaVuSans-393" transform="translate(0 0.125)"/>
      <use xlink:href="#DejaVuSans-31" transform="translate(56.669922 -16.28125)scale(0.7)"/>
      <use xlink:href="#DejaVuSans-28" transform="translate(103.94043 0.125)"/>
      <use xlink:href="#DejaVuSans-Oblique-42" transform="translate(142.954102 0.125)"/>
      <use xlink:href="#DejaVuSans-29" transform="translate(211.557617 0.125)"/>
     </g>
    </g>
    <g id="patch_8">
     <path d="M 49.5 181.160313 
L 69.5 181.160313 
L 69.5 174.160313 
L 49.5 174.160313 
z
" style="fill: #ff0000; fill-opacity: 0.3; stroke: #ff0000; stroke-opacity: 0.3; stroke-linejoin: miter"/>
    </g>
    <g id="text_9">
     <!-- $\Gamma_1 (\rm{1\ class})$ -->
     <g transform="translate(77.5 181.160313)scale(0.1 -0.1)">
      <defs>
       <path id="DejaVuSans-63" d="M 3122 3366 
L 3122 2828 
Q 2878 2963 2633 3030 
Q 2388 3097 2138 3097 
Q 1578 3097 1268 2742 
Q 959 2388 959 1747 
Q 959 1106 1268 751 
Q 1578 397 2138 397 
Q 2388 397 2633 464 
Q 2878 531 3122 666 
L 3122 134 
Q 2881 22 2623 -34 
Q 2366 -91 2075 -91 
Q 1284 -91 818 406 
Q 353 903 353 1747 
Q 353 2603 823 3093 
Q 1294 3584 2113 3584 
Q 2378 3584 2631 3529 
Q 2884 3475 3122 3366 
z
" transform="scale(0.015625)"/>
       <path id="DejaVuSans-6c" d="M 603 4863 
L 1178 4863 
L 1178 0 
L 603 0 
L 603 4863 
z
" transform="scale(0.015625)"/>
       <path id="DejaVuSans-61" d="M 2194 1759 
Q 1497 1759 1228 1600 
Q 959 1441 959 1056 
Q 959 750 1161 570 
Q 1363 391 1709 391 
Q 2188 391 2477 730 
Q 2766 1069 2766 1631 
L 2766 1759 
L 2194 1759 
z
M 3341 1997 
L 3341 0 
L 2766 0 
L 2766 531 
Q 2569 213 2275 61 
Q 1981 -91 1556 -91 
Q 1019 -91 701 211 
Q 384 513 384 1019 
Q 384 1609 779 1909 
Q 1175 2209 1959 2209 
L 2766 2209 
L 2766 2266 
Q 2766 2663 2505 2880 
Q 2244 3097 1772 3097 
Q 1472 3097 1187 3025 
Q 903 2953 641 2809 
L 641 3341 
Q 956 3463 1253 3523 
Q 1550 3584 1831 3584 
Q 2591 3584 2966 3190 
Q 3341 2797 3341 1997 
z
" transform="scale(0.015625)"/>
       <path id="DejaVuSans-73" d="M 2834 3397 
L 2834 2853 
Q 2591 2978 2328 3040 
Q 2066 3103 1784 3103 
Q 1356 3103 1142 2972 
Q 928 2841 928 2578 
Q 928 2378 1081 2264 
Q 1234 2150 1697 2047 
L 1894 2003 
Q 2506 1872 2764 1633 
Q 3022 1394 3022 966 
Q 3022 478 2636 193 
Q 2250 -91 1575 -91 
Q 1294 -91 989 -36 
Q 684 19 347 128 
L 347 722 
Q 666 556 975 473 
Q 1284 391 1588 391 
Q 1994 391 2212 530 
Q 2431 669 2431 922 
Q 2431 1156 2273 1281 
Q 2116 1406 1581 1522 
L 1381 1569 
Q 847 1681 609 1914 
Q 372 2147 372 2553 
Q 372 3047 722 3315 
Q 1072 3584 1716 3584 
Q 2034 3584 2315 3537 
Q 2597 3491 2834 3397 
z
" transform="scale(0.015625)"/>
      </defs>
      <use xlink:href="#DejaVuSans-393" transform="translate(0 0.015625)"/>
      <use xlink:href="#DejaVuSans-31" transform="translate(56.669922 -16.390625)scale(0.7)"/>
      <use xlink:href="#DejaVuSans-28" transform="translate(103.94043 0.015625)"/>
      <use xlink:href="#DejaVuSans-31" transform="translate(142.954102 0.015625)"/>
      <use xlink:href="#DejaVuSans-63" transform="translate(239.047527 0.015625)"/>
      <use xlink:href="#DejaVuSans-6c" transform="translate(294.027996 0.015625)"/>
      <use xlink:href="#DejaVuSans-61" transform="translate(321.811199 0.015625)"/>
      <use xlink:href="#DejaVuSans-73" transform="translate(383.090496 0.015625)"/>
      <use xlink:href="#DejaVuSans-73" transform="translate(435.190105 0.015625)"/>
      <use xlink:href="#DejaVuSans-29" transform="translate(487.289714 0.015625)"/>
     </g>
    </g>
   </g>
  </g>
 </g>
 <defs>
  <clipPath id="p4a1c86be3a">
   <rect x="40.5" y="25.92" width="251.1" height="166.32"/>
  </clipPath>
 </defs>
</svg>
