<?xml version="1.0" encoding="utf-8" standalone="no"?>
<!DOCTYPE svg PUBLIC "-//W3C//DTD SVG 1.1//EN"
  "http://www.w3.org/Graphics/SVG/1.1/DTD/svg11.dtd">
<svg xmlns:xlink="http://www.w3.org/1999/xlink" width="216pt" height="144pt" viewBox="0 0 216 144" xmlns="http://www.w3.org/2000/svg" version="1.1">
 <metadata>
  <rdf:RDF xmlns:dc="http://purl.org/dc/elements/1.1/" xmlns:cc="http://creativecommons.org/ns#" xmlns:rdf="http://www.w3.org/1999/02/22-rdf-syntax-ns#">
   <cc:Work>
    <dc:type rdf:resource="http://purl.org/dc/dcmitype/StillImage"/>
    <dc:date>2022-08-27T18:58:29.442661</dc:date>
    <dc:format>image/svg+xml</dc:format>
    <dc:creator>
     <cc:Agent>
      <dc:title>Matplotlib v3.5.1, https://matplotlib.org/</dc:title>
     </cc:Agent>
    </dc:creator>
   </cc:Work>
  </rdf:RDF>
 </metadata>
 <defs>
  <style type="text/css">*{stroke-linejoin: round; stroke-linecap: butt}</style>
 </defs>
 <g id="figure_1">
  <g id="patch_1">
   <path d="M 0 144 
L 216 144 
L 216 0 
L 0 0 
z
" style="fill: #ffffff"/>
  </g>
  <g id="axes_1">
   <g id="patch_2">
    <path d="M 27 128.16 
L 194.4 128.16 
L 194.4 17.28 
L 27 17.28 
z
" style="fill: #ffffff"/>
   </g>
   <g id="matplotlib.axis_1">
    <g id="xtick_1">
     <g id="line2d_1">
      <defs>
       <path id="m2ee1997bcc" d="M 0 0 
L 0 3.5 
" style="stroke: #000000; stroke-width: 0.8"/>
      </defs>
      <g>
       <use xlink:href="#m2ee1997bcc" x="63.874825" y="128.16" style="stroke: #000000; stroke-width: 0.8"/>
      </g>
     </g>
     <g id="text_1">
      <!-- −100 -->
      <g transform="translate(41.901075 147.3175)scale(0.16 -0.16)">
       <defs>
        <path id="DejaVuSans-2212" d="M 678 2272 
L 4684 2272 
L 4684 1741 
L 678 1741 
L 678 2272 
z
" transform="scale(0.015625)"/>
        <path id="DejaVuSans-31" d="M 794 531 
L 1825 531 
L 1825 4091 
L 703 3866 
L 703 4441 
L 1819 4666 
L 2450 4666 
L 2450 531 
L 3481 531 
L 3481 0 
L 794 0 
L 794 531 
z
" transform="scale(0.015625)"/>
        <path id="DejaVuSans-30" d="M 2034 4250 
Q 1547 4250 1301 3770 
Q 1056 3291 1056 2328 
Q 1056 1369 1301 889 
Q 1547 409 2034 409 
Q 2525 409 2770 889 
Q 3016 1369 3016 2328 
Q 3016 3291 2770 3770 
Q 2525 4250 2034 4250 
z
M 2034 4750 
Q 2819 4750 3233 4129 
Q 3647 3509 3647 2328 
Q 3647 1150 3233 529 
Q 2819 -91 2034 -91 
Q 1250 -91 836 529 
Q 422 1150 422 2328 
Q 422 3509 836 4129 
Q 1250 4750 2034 4750 
z
" transform="scale(0.015625)"/>
       </defs>
       <use xlink:href="#DejaVuSans-2212"/>
       <use xlink:href="#DejaVuSans-31" x="83.789062"/>
       <use xlink:href="#DejaVuSans-30" x="147.412109"/>
       <use xlink:href="#DejaVuSans-30" x="211.035156"/>
      </g>
     </g>
    </g>
    <g id="xtick_2">
     <g id="line2d_2">
      <g>
       <use xlink:href="#m2ee1997bcc" x="110.7" y="128.16" style="stroke: #000000; stroke-width: 0.8"/>
      </g>
     </g>
     <g id="text_2">
      <!-- 0 -->
      <g transform="translate(105.61 147.3175)scale(0.16 -0.16)">
       <use xlink:href="#DejaVuSans-30"/>
      </g>
     </g>
    </g>
    <g id="xtick_3">
     <g id="line2d_3">
      <g>
       <use xlink:href="#m2ee1997bcc" x="157.525175" y="128.16" style="stroke: #000000; stroke-width: 0.8"/>
      </g>
     </g>
     <g id="text_3">
      <!-- 100 -->
      <g transform="translate(142.255175 147.3175)scale(0.16 -0.16)">
       <use xlink:href="#DejaVuSans-31"/>
       <use xlink:href="#DejaVuSans-30" x="63.623047"/>
       <use xlink:href="#DejaVuSans-30" x="127.246094"/>
      </g>
     </g>
    </g>
   </g>
   <g id="matplotlib.axis_2">
    <g id="ytick_1">
     <g id="line2d_4">
      <defs>
       <path id="m5dc5bec7d2" d="M 0 0 
L -3.5 0 
" style="stroke: #000000; stroke-width: 0.8"/>
      </defs>
      <g>
       <use xlink:href="#m5dc5bec7d2" x="27" y="116.916525" style="stroke: #000000; stroke-width: 0.8"/>
      </g>
     </g>
     <g id="text_4">
      <!-- 0.94 -->
      <g transform="translate(-15.625 122.995275)scale(0.16 -0.16)">
       <defs>
        <path id="DejaVuSans-2e" d="M 684 794 
L 1344 794 
L 1344 0 
L 684 0 
L 684 794 
z
" transform="scale(0.015625)"/>
        <path id="DejaVuSans-39" d="M 703 97 
L 703 672 
Q 941 559 1184 500 
Q 1428 441 1663 441 
Q 2288 441 2617 861 
Q 2947 1281 2994 2138 
Q 2813 1869 2534 1725 
Q 2256 1581 1919 1581 
Q 1219 1581 811 2004 
Q 403 2428 403 3163 
Q 403 3881 828 4315 
Q 1253 4750 1959 4750 
Q 2769 4750 3195 4129 
Q 3622 3509 3622 2328 
Q 3622 1225 3098 567 
Q 2575 -91 1691 -91 
Q 1453 -91 1209 -44 
Q 966 3 703 97 
z
M 1959 2075 
Q 2384 2075 2632 2365 
Q 2881 2656 2881 3163 
Q 2881 3666 2632 3958 
Q 2384 4250 1959 4250 
Q 1534 4250 1286 3958 
Q 1038 3666 1038 3163 
Q 1038 2656 1286 2365 
Q 1534 2075 1959 2075 
z
" transform="scale(0.015625)"/>
        <path id="DejaVuSans-34" d="M 2419 4116 
L 825 1625 
L 2419 1625 
L 2419 4116 
z
M 2253 4666 
L 3047 4666 
L 3047 1625 
L 3713 1625 
L 3713 1100 
L 3047 1100 
L 3047 0 
L 2419 0 
L 2419 1100 
L 313 1100 
L 313 1709 
L 2253 4666 
z
" transform="scale(0.015625)"/>
       </defs>
       <use xlink:href="#DejaVuSans-30"/>
       <use xlink:href="#DejaVuSans-2e" x="63.623047"/>
       <use xlink:href="#DejaVuSans-39" x="95.410156"/>
       <use xlink:href="#DejaVuSans-34" x="159.033203"/>
      </g>
     </g>
    </g>
    <g id="ytick_2">
     <g id="line2d_5">
      <g>
       <use xlink:href="#m5dc5bec7d2" x="27" y="85.38435" style="stroke: #000000; stroke-width: 0.8"/>
      </g>
     </g>
     <g id="text_5">
      <!-- 0.96 -->
      <g transform="translate(-15.625 91.4631)scale(0.16 -0.16)">
       <defs>
        <path id="DejaVuSans-36" d="M 2113 2584 
Q 1688 2584 1439 2293 
Q 1191 2003 1191 1497 
Q 1191 994 1439 701 
Q 1688 409 2113 409 
Q 2538 409 2786 701 
Q 3034 994 3034 1497 
Q 3034 2003 2786 2293 
Q 2538 2584 2113 2584 
z
M 3366 4563 
L 3366 3988 
Q 3128 4100 2886 4159 
Q 2644 4219 2406 4219 
Q 1781 4219 1451 3797 
Q 1122 3375 1075 2522 
Q 1259 2794 1537 2939 
Q 1816 3084 2150 3084 
Q 2853 3084 3261 2657 
Q 3669 2231 3669 1497 
Q 3669 778 3244 343 
Q 2819 -91 2113 -91 
Q 1303 -91 875 529 
Q 447 1150 447 2328 
Q 447 3434 972 4092 
Q 1497 4750 2381 4750 
Q 2619 4750 2861 4703 
Q 3103 4656 3366 4563 
z
" transform="scale(0.015625)"/>
       </defs>
       <use xlink:href="#DejaVuSans-30"/>
       <use xlink:href="#DejaVuSans-2e" x="63.623047"/>
       <use xlink:href="#DejaVuSans-39" x="95.410156"/>
       <use xlink:href="#DejaVuSans-36" x="159.033203"/>
      </g>
     </g>
    </g>
    <g id="ytick_3">
     <g id="line2d_6">
      <g>
       <use xlink:href="#m5dc5bec7d2" x="27" y="53.852175" style="stroke: #000000; stroke-width: 0.8"/>
      </g>
     </g>
     <g id="text_6">
      <!-- 0.98 -->
      <g transform="translate(-15.625 59.930925)scale(0.16 -0.16)">
       <defs>
        <path id="DejaVuSans-38" d="M 2034 2216 
Q 1584 2216 1326 1975 
Q 1069 1734 1069 1313 
Q 1069 891 1326 650 
Q 1584 409 2034 409 
Q 2484 409 2743 651 
Q 3003 894 3003 1313 
Q 3003 1734 2745 1975 
Q 2488 2216 2034 2216 
z
M 1403 2484 
Q 997 2584 770 2862 
Q 544 3141 544 3541 
Q 544 4100 942 4425 
Q 1341 4750 2034 4750 
Q 2731 4750 3128 4425 
Q 3525 4100 3525 3541 
Q 3525 3141 3298 2862 
Q 3072 2584 2669 2484 
Q 3125 2378 3379 2068 
Q 3634 1759 3634 1313 
Q 3634 634 3220 271 
Q 2806 -91 2034 -91 
Q 1263 -91 848 271 
Q 434 634 434 1313 
Q 434 1759 690 2068 
Q 947 2378 1403 2484 
z
M 1172 3481 
Q 1172 3119 1398 2916 
Q 1625 2713 2034 2713 
Q 2441 2713 2670 2916 
Q 2900 3119 2900 3481 
Q 2900 3844 2670 4047 
Q 2441 4250 2034 4250 
Q 1625 4250 1398 4047 
Q 1172 3844 1172 3481 
z
" transform="scale(0.015625)"/>
       </defs>
       <use xlink:href="#DejaVuSans-30"/>
       <use xlink:href="#DejaVuSans-2e" x="63.623047"/>
       <use xlink:href="#DejaVuSans-39" x="95.410156"/>
       <use xlink:href="#DejaVuSans-38" x="159.033203"/>
      </g>
     </g>
    </g>
    <g id="ytick_4">
     <g id="line2d_7">
      <g>
       <use xlink:href="#m5dc5bec7d2" x="27" y="22.32" style="stroke: #000000; stroke-width: 0.8"/>
      </g>
     </g>
     <g id="text_7">
      <!-- 1.00 -->
      <g transform="translate(-15.625 28.39875)scale(0.16 -0.16)">
       <use xlink:href="#DejaVuSans-31"/>
       <use xlink:href="#DejaVuSans-2e" x="63.623047"/>
       <use xlink:href="#DejaVuSans-30" x="95.410156"/>
       <use xlink:href="#DejaVuSans-30" x="159.033203"/>
      </g>
     </g>
    </g>
   </g>
   <g id="line2d_8">
    <path d="M 34.609091 123.058523 
L 34.913455 123.12 
L 35.217818 122.659142 
L 35.826545 122.281996 
L 36.130909 122.077074 
L 37.044 120.734393 
L 37.348364 120.662452 
L 37.652727 119.932578 
L 37.957091 119.820743 
L 39.174545 118.201198 
L 40.087636 117.255066 
L 40.696364 116.209523 
L 41.609455 115.433433 
L 42.218182 114.311153 
L 42.826909 113.5222 
L 43.131273 113.322728 
L 43.435636 112.680491 
L 43.74 112.446138 
L 44.044364 112.03869 
L 44.348727 111.13158 
L 44.653091 111.332578 
L 45.870545 109.358125 
L 46.479273 108.590755 
L 46.783636 108.010867 
L 47.088 107.815318 
L 47.392364 107.272273 
L 47.696727 106.979713 
L 48.305455 105.849367 
L 49.522909 103.911975 
L 50.436 102.702058 
L 51.349091 100.757035 
L 51.653455 100.442239 
L 53.175273 97.89204 
L 53.479636 97.139494 
L 53.784 96.863938 
L 54.088364 96.42924 
L 54.392727 95.786349 
L 54.697091 95.470463 
L 55.305818 94.359084 
L 59.262545 87.317151 
L 59.566909 86.582481 
L 60.48 85.301496 
L 60.784364 84.364083 
L 61.393091 83.507985 
L 61.697455 83.169644 
L 62.610545 81.338855 
L 62.914909 80.90721 
L 63.219273 80.1987 
L 63.523636 79.890008 
L 64.436727 77.865632 
L 65.654182 75.511854 
L 67.784727 71.41427 
L 68.393455 70.257982 
L 68.697818 69.427173 
L 69.002182 69.231842 
L 69.306545 68.582411 
L 69.610909 68.257369 
L 69.915273 67.424815 
L 70.219636 66.92101 
L 70.524 65.977493 
L 70.828364 65.526881 
L 71.132727 64.747957 
L 71.437091 64.376262 
L 71.741455 63.53586 
L 72.045818 63.399826 
L 72.654545 61.809931 
L 74.176364 58.870596 
L 75.393818 56.110897 
L 75.698182 55.846241 
L 76.306909 54.422246 
L 79.046182 49.031468 
L 79.350545 48.623366 
L 79.654909 47.954533 
L 79.959273 47.678542 
L 80.263636 46.641283 
L 80.568 46.243428 
L 81.176727 45.232548 
L 81.481091 44.80548 
L 82.394182 42.840184 
L 82.698545 42.170696 
L 83.002909 41.873122 
L 83.307273 41.163523 
L 83.611636 40.84393 
L 83.916 39.721433 
L 84.220364 39.340364 
L 84.524727 38.643844 
L 84.829091 38.449822 
L 85.133455 37.745672 
L 85.437818 37.415834 
L 85.742182 36.55494 
L 86.655273 35.455115 
L 87.264 34.594003 
L 87.568364 33.694741 
L 88.785818 31.935457 
L 89.698909 30.446061 
L 90.003273 29.813634 
L 90.307636 29.671278 
L 90.612 29.136081 
L 90.916364 28.826517 
L 91.220727 28.20935 
L 91.525091 28.022086 
L 91.829455 27.456368 
L 92.133818 27.336248 
L 92.438182 26.988752 
L 92.742545 26.88193 
L 93.046909 26.441346 
L 93.351273 26.280242 
L 93.655636 25.71169 
L 93.96 25.659805 
L 94.264364 25.460551 
L 94.568727 25.529876 
L 94.873091 25.006451 
L 95.177455 24.927534 
L 95.481818 24.389066 
L 95.786182 24.409122 
L 96.090545 24.203982 
L 96.394909 24.598131 
L 96.699273 24.323665 
L 97.003636 24.481935 
L 97.308 24.091492 
L 97.612364 24.461661 
L 97.916727 24.037645 
L 98.829818 24.909875 
L 99.134182 24.895269 
L 99.438545 25.2238 
L 99.742909 25.209847 
L 100.047273 25.82636 
L 100.351636 26.005558 
L 100.656 26.809335 
L 100.960364 26.996164 
L 101.264727 27.683745 
L 101.569091 28.053478 
L 101.873455 29.190364 
L 102.177818 29.705287 
L 102.482182 30.901687 
L 102.786545 31.499669 
L 103.090909 32.694543 
L 103.395273 33.262659 
L 105.830182 44.136211 
L 106.438909 47.661319 
L 107.352 52.856984 
L 108.873818 63.735769 
L 109.786909 72.884264 
L 110.7 80.97043 
L 111.613091 90.289622 
L 112.526182 95.318951 
L 112.830545 96.877236 
L 113.134909 96.7218 
L 113.439273 96.363185 
L 114.048 94.099878 
L 114.656727 89.222933 
L 117.091636 61.063052 
L 118.613455 47.946031 
L 120.439636 37.037162 
L 121.657091 32.364705 
L 122.265818 29.938986 
L 122.570182 29.354956 
L 122.874545 28.312466 
L 123.483273 27.14179 
L 124.092 25.476683 
L 124.700727 24.572843 
L 125.005091 24.430487 
L 125.309455 23.76972 
L 125.613818 23.605346 
L 125.918182 23.285753 
L 126.222545 23.205092 
L 126.526909 22.838847 
L 126.831273 22.968559 
L 127.135636 22.701723 
L 127.44 22.899234 
L 127.744364 22.32 
L 128.048727 22.612996 
L 128.657455 22.653763 
L 129.266182 23.096527 
L 129.570545 22.925394 
L 129.874909 23.117455 
L 130.179273 23.109607 
L 130.483636 23.762308 
L 130.788 23.632814 
L 131.092364 24.008215 
L 131.701091 24.337835 
L 132.614182 24.993588 
L 132.918545 25.511127 
L 133.222909 25.511127 
L 134.136 26.568878 
L 134.440364 27.121733 
L 134.744727 27.230735 
L 138.092727 31.618263 
L 138.701455 32.792863 
L 140.527636 35.64565 
L 140.832 36.317753 
L 141.136364 36.474497 
L 142.353818 38.663465 
L 142.658182 39.123887 
L 142.962545 39.840463 
L 143.266909 40.143923 
L 143.571273 40.887967 
L 143.875636 41.158509 
L 144.484364 42.345099 
L 144.788727 42.877026 
L 145.397455 44.148419 
L 146.006182 45.351796 
L 146.310545 45.721747 
L 150.571636 54.025698 
L 150.876 54.455818 
L 151.180364 55.446424 
L 152.093455 56.80698 
L 152.702182 58.453993 
L 153.006545 58.857952 
L 153.310909 59.062003 
L 153.919636 60.537883 
L 154.224 61.373271 
L 154.832727 62.443011 
L 156.050182 64.783273 
L 156.354545 65.660081 
L 156.658909 66.180672 
L 156.963273 66.393007 
L 157.572 67.886982 
L 158.485091 69.687686 
L 159.398182 70.944037 
L 160.311273 73.169412 
L 160.615636 73.442787 
L 161.224364 74.591009 
L 161.528727 75.515342 
L 163.354909 78.977665 
L 163.659273 79.673531 
L 164.268 80.375282 
L 164.876727 81.836556 
L 165.485455 83.001564 
L 165.789818 83.925679 
L 166.094182 84.014624 
L 166.398545 84.784611 
L 166.702909 85.102895 
L 167.311636 86.470646 
L 167.616 86.952868 
L 167.920364 87.686884 
L 168.529091 88.348959 
L 169.746545 90.945157 
L 175.833818 101.429575 
L 176.138182 101.756143 
L 176.442545 102.340391 
L 176.746909 103.185153 
L 177.051273 103.086397 
L 177.66 104.141096 
L 178.573091 106.058214 
L 178.877455 106.127321 
L 180.094909 108.124228 
L 180.399273 108.827506 
L 180.703636 108.904679 
L 181.008 109.286184 
L 182.225455 111.566495 
L 182.529818 111.643669 
L 184.051636 114.33993 
L 184.356 114.464191 
L 185.269091 116.098124 
L 185.573455 116.330733 
L 185.877818 117.034664 
L 186.182182 117.271198 
L 186.486545 117.83866 
L 186.790909 118.103751 
L 186.790909 118.103751 
" clip-path="url(#pe5e18d8768)" style="fill: none; stroke: #1f77b4; stroke-width: 2; stroke-linecap: square"/>
   </g>
   <g id="patch_3">
    <path d="M 27 128.16 
L 27 17.28 
" style="fill: none; stroke: #000000; stroke-width: 0.8; stroke-linejoin: miter; stroke-linecap: square"/>
   </g>
   <g id="patch_4">
    <path d="M 194.4 128.16 
L 194.4 17.28 
" style="fill: none; stroke: #000000; stroke-width: 0.8; stroke-linejoin: miter; stroke-linecap: square"/>
   </g>
   <g id="patch_5">
    <path d="M 27 128.16 
L 194.4 128.16 
" style="fill: none; stroke: #000000; stroke-width: 0.8; stroke-linejoin: miter; stroke-linecap: square"/>
   </g>
   <g id="patch_6">
    <path d="M 27 17.28 
L 194.4 17.28 
" style="fill: none; stroke: #000000; stroke-width: 0.8; stroke-linejoin: miter; stroke-linecap: square"/>
   </g>
  </g>
 </g>
 <defs>
  <clipPath id="pe5e18d8768">
   <rect x="27" y="17.28" width="167.4" height="110.88"/>
  </clipPath>
 </defs>
</svg>
