<?xml version="1.0" encoding="utf-8" standalone="no"?>
<!DOCTYPE svg PUBLIC "-//W3C//DTD SVG 1.1//EN"
  "http://www.w3.org/Graphics/SVG/1.1/DTD/svg11.dtd">
<svg xmlns:xlink="http://www.w3.org/1999/xlink" width="324pt" height="216pt" viewBox="0 0 324 216" xmlns="http://www.w3.org/2000/svg" version="1.1">
 <metadata>
  <rdf:RDF xmlns:dc="http://purl.org/dc/elements/1.1/" xmlns:cc="http://creativecommons.org/ns#" xmlns:rdf="http://www.w3.org/1999/02/22-rdf-syntax-ns#">
   <cc:Work>
    <dc:type rdf:resource="http://purl.org/dc/dcmitype/StillImage"/>
    <dc:date>2022-08-31T14:59:58.748672</dc:date>
    <dc:format>image/svg+xml</dc:format>
    <dc:creator>
     <cc:Agent>
      <dc:title>Matplotlib v3.5.1, https://matplotlib.org/</dc:title>
     </cc:Agent>
    </dc:creator>
   </cc:Work>
  </rdf:RDF>
 </metadata>
 <defs>
  <style type="text/css">*{stroke-linejoin: round; stroke-linecap: butt}</style>
 </defs>
 <g id="figure_1">
  <g id="patch_1">
   <path d="M 0 216 
L 324 216 
L 324 0 
L 0 0 
z
" style="fill: #ffffff"/>
  </g>
  <g id="axes_1">
   <g id="patch_2">
    <path d="M 40.5 192.24 
L 291.6 192.24 
L 291.6 25.92 
L 40.5 25.92 
z
" style="fill: #ffffff"/>
   </g>
   <g id="matplotlib.axis_1">
    <g id="xtick_1">
     <g id="line2d_1">
      <defs>
       <path id="m4f811c004a" d="M 0 0 
L 0 3.5 
" style="stroke: #000000; stroke-width: 0.8"/>
      </defs>
      <g>
       <use xlink:href="#m4f811c004a" x="95.611558" y="192.24" style="stroke: #000000; stroke-width: 0.8"/>
      </g>
     </g>
     <g id="text_1">
      <!-- −100 -->
      <g transform="translate(73.637808 211.3975)scale(0.16 -0.16)">
       <defs>
        <path id="DejaVuSans-2212" d="M 678 2272 
L 4684 2272 
L 4684 1741 
L 678 1741 
L 678 2272 
z
" transform="scale(0.015625)"/>
        <path id="DejaVuSans-31" d="M 794 531 
L 1825 531 
L 1825 4091 
L 703 3866 
L 703 4441 
L 1819 4666 
L 2450 4666 
L 2450 531 
L 3481 531 
L 3481 0 
L 794 0 
L 794 531 
z
" transform="scale(0.015625)"/>
        <path id="DejaVuSans-30" d="M 2034 4250 
Q 1547 4250 1301 3770 
Q 1056 3291 1056 2328 
Q 1056 1369 1301 889 
Q 1547 409 2034 409 
Q 2525 409 2770 889 
Q 3016 1369 3016 2328 
Q 3016 3291 2770 3770 
Q 2525 4250 2034 4250 
z
M 2034 4750 
Q 2819 4750 3233 4129 
Q 3647 3509 3647 2328 
Q 3647 1150 3233 529 
Q 2819 -91 2034 -91 
Q 1250 -91 836 529 
Q 422 1150 422 2328 
Q 422 3509 836 4129 
Q 1250 4750 2034 4750 
z
" transform="scale(0.015625)"/>
       </defs>
       <use xlink:href="#DejaVuSans-2212"/>
       <use xlink:href="#DejaVuSans-31" x="83.789062"/>
       <use xlink:href="#DejaVuSans-30" x="147.412109"/>
       <use xlink:href="#DejaVuSans-30" x="211.035156"/>
      </g>
     </g>
    </g>
    <g id="xtick_2">
     <g id="line2d_2">
      <g>
       <use xlink:href="#m4f811c004a" x="160.832338" y="192.24" style="stroke: #000000; stroke-width: 0.8"/>
      </g>
     </g>
     <g id="text_2">
      <!-- 0 -->
      <g transform="translate(155.742338 211.3975)scale(0.16 -0.16)">
       <use xlink:href="#DejaVuSans-30"/>
      </g>
     </g>
    </g>
    <g id="xtick_3">
     <g id="line2d_3">
      <g>
       <use xlink:href="#m4f811c004a" x="226.053117" y="192.24" style="stroke: #000000; stroke-width: 0.8"/>
      </g>
     </g>
     <g id="text_3">
      <!-- 100 -->
      <g transform="translate(210.783117 211.3975)scale(0.16 -0.16)">
       <use xlink:href="#DejaVuSans-31"/>
       <use xlink:href="#DejaVuSans-30" x="63.623047"/>
       <use xlink:href="#DejaVuSans-30" x="127.246094"/>
      </g>
     </g>
    </g>
    <g id="xtick_4">
     <g id="line2d_4">
      <g>
       <use xlink:href="#m4f811c004a" x="291.273896" y="192.24" style="stroke: #000000; stroke-width: 0.8"/>
      </g>
     </g>
     <g id="text_4">
      <!-- 200 -->
      <g transform="translate(276.003896 211.3975)scale(0.16 -0.16)">
       <defs>
        <path id="DejaVuSans-32" d="M 1228 531 
L 3431 531 
L 3431 0 
L 469 0 
L 469 531 
Q 828 903 1448 1529 
Q 2069 2156 2228 2338 
Q 2531 2678 2651 2914 
Q 2772 3150 2772 3378 
Q 2772 3750 2511 3984 
Q 2250 4219 1831 4219 
Q 1534 4219 1204 4116 
Q 875 4013 500 3803 
L 500 4441 
Q 881 4594 1212 4672 
Q 1544 4750 1819 4750 
Q 2544 4750 2975 4387 
Q 3406 4025 3406 3419 
Q 3406 3131 3298 2873 
Q 3191 2616 2906 2266 
Q 2828 2175 2409 1742 
Q 1991 1309 1228 531 
z
" transform="scale(0.015625)"/>
       </defs>
       <use xlink:href="#DejaVuSans-32"/>
       <use xlink:href="#DejaVuSans-30" x="63.623047"/>
       <use xlink:href="#DejaVuSans-30" x="127.246094"/>
      </g>
     </g>
    </g>
   </g>
   <g id="matplotlib.axis_2">
    <g id="ytick_1">
     <g id="line2d_5">
      <defs>
       <path id="md89539bc03" d="M 0 0 
L -3.5 0 
" style="stroke: #000000; stroke-width: 0.8"/>
      </defs>
      <g>
       <use xlink:href="#md89539bc03" x="40.5" y="156.689916" style="stroke: #000000; stroke-width: 0.8"/>
      </g>
     </g>
     <g id="text_5">
      <!-- −5 -->
      <g transform="translate(9.9125 162.768666)scale(0.16 -0.16)">
       <defs>
        <path id="DejaVuSans-35" d="M 691 4666 
L 3169 4666 
L 3169 4134 
L 1269 4134 
L 1269 2991 
Q 1406 3038 1543 3061 
Q 1681 3084 1819 3084 
Q 2600 3084 3056 2656 
Q 3513 2228 3513 1497 
Q 3513 744 3044 326 
Q 2575 -91 1722 -91 
Q 1428 -91 1123 -41 
Q 819 9 494 109 
L 494 744 
Q 775 591 1075 516 
Q 1375 441 1709 441 
Q 2250 441 2565 725 
Q 2881 1009 2881 1497 
Q 2881 1984 2565 2268 
Q 2250 2553 1709 2553 
Q 1456 2553 1204 2497 
Q 953 2441 691 2322 
L 691 4666 
z
" transform="scale(0.015625)"/>
       </defs>
       <use xlink:href="#DejaVuSans-2212"/>
       <use xlink:href="#DejaVuSans-35" x="83.789062"/>
      </g>
     </g>
    </g>
    <g id="ytick_2">
     <g id="line2d_6">
      <g>
       <use xlink:href="#md89539bc03" x="40.5" y="108.965855" style="stroke: #000000; stroke-width: 0.8"/>
      </g>
     </g>
     <g id="text_6">
      <!-- 0 -->
      <g transform="translate(23.32 115.044605)scale(0.16 -0.16)">
       <use xlink:href="#DejaVuSans-30"/>
      </g>
     </g>
    </g>
    <g id="ytick_3">
     <g id="line2d_7">
      <g>
       <use xlink:href="#md89539bc03" x="40.5" y="61.241795" style="stroke: #000000; stroke-width: 0.8"/>
      </g>
     </g>
     <g id="text_7">
      <!-- 5 -->
      <g transform="translate(23.32 67.320545)scale(0.16 -0.16)">
       <use xlink:href="#DejaVuSans-35"/>
      </g>
     </g>
    </g>
   </g>
   <g id="line2d_8">
    <path d="M 280.186364 96.053893 
L 279.729818 96.235479 
L 278.360182 96.16145 
L 277.447091 95.840262 
L 275.620909 95.690713 
L 275.164364 95.789207 
L 274.251273 95.617915 
L 273.338182 95.744735 
L 272.881636 95.561708 
L 272.425091 95.530846 
L 271.968545 95.717119 
L 271.512 95.685702 
L 270.598909 95.395854 
L 269.229273 95.310912 
L 266.946545 95.256905 
L 264.663818 95.212651 
L 263.750727 94.76214 
L 262.837636 94.572387 
L 261.468 94.994727 
L 260.554909 94.810272 
L 259.185273 94.428409 
L 257.359091 94.561956 
L 256.446 94.405448 
L 255.532909 94.129433 
L 254.619818 94.083354 
L 254.163273 93.961582 
L 253.706727 93.989542 
L 252.793636 93.669196 
L 252.337091 93.555505 
L 250.967455 93.818255 
L 250.510909 94.000483 
L 249.597818 93.921009 
L 248.228182 94.411752 
L 247.771636 94.426998 
L 247.315091 94.553422 
L 246.402 94.395052 
L 245.945455 94.209826 
L 244.119273 92.738687 
L 243.662727 92.379851 
L 243.206182 92.210911 
L 242.749636 92.174189 
L 242.293091 92.283361 
L 241.38 92.822118 
L 240.923455 92.925221 
L 240.010364 92.812904 
L 239.097273 92.821743 
L 238.184182 93.022794 
L 237.271091 92.794657 
L 236.358 93.019706 
L 234.988364 92.934543 
L 233.162182 93.828525 
L 232.249091 94.989054 
L 231.792545 95.760409 
L 231.336 97.348136 
L 230.879455 100.414842 
L 230.422909 105.420355 
L 229.966364 114.547424 
L 229.053273 141.649949 
L 228.596727 150.213253 
L 228.140182 148.88278 
L 227.683636 137.08584 
L 226.770545 97.527451 
L 225.857455 53.844918 
L 225.400909 38.628651 
L 224.944364 33.48 
L 224.487818 39.246414 
L 223.118182 74.594058 
L 222.661636 81.596602 
L 222.205091 85.789217 
L 221.748545 88.256109 
L 221.292 89.676846 
L 220.835455 90.467265 
L 219.922364 91.127146 
L 219.009273 91.373582 
L 216.726545 91.909916 
L 214.900364 93.474218 
L 214.443818 93.615334 
L 213.530727 93.45976 
L 213.074182 93.249449 
L 211.704545 91.608602 
L 211.248 91.584082 
L 209.421818 93.040548 
L 208.965273 93.159029 
L 208.508727 93.150731 
L 207.139091 93.433339 
L 206.682545 93.421419 
L 204.856364 94.053611 
L 203.030182 94.177921 
L 202.573636 94.359208 
L 202.117091 94.363958 
L 201.660545 94.027479 
L 201.204 93.898811 
L 199.834364 94.168449 
L 198.008182 95.241093 
L 197.095091 96.055909 
L 195.268909 97.323641 
L 193.899273 98.544735 
L 192.986182 99.187204 
L 192.073091 99.245848 
L 191.16 99.858863 
L 190.246909 100.040133 
L 188.877273 100.926149 
L 187.964182 101.487299 
L 186.594545 102.858044 
L 184.311818 105.550829 
L 182.942182 106.12592 
L 181.116 108.054891 
L 180.202909 109.329647 
L 179.289818 110.710415 
L 178.376727 112.035735 
L 177.463636 114.277732 
L 176.094 117.638543 
L 175.637455 118.382563 
L 174.724364 119.253536 
L 173.811273 120.019941 
L 173.354727 120.075781 
L 172.441636 119.819205 
L 171.985091 119.847828 
L 171.528545 119.989066 
L 171.072 120.332991 
L 170.158909 121.716947 
L 169.702364 122.666459 
L 169.245818 124.123077 
L 167.876182 130.230415 
L 165.593455 143.560504 
L 165.136909 145.400161 
L 164.680364 146.335992 
L 164.223818 145.908945 
L 163.767273 143.776305 
L 163.310727 139.822758 
L 162.854182 134.482521 
L 162.397636 127.50186 
L 161.028 98.818261 
L 160.114909 81.290927 
L 159.201818 67.972476 
L 158.745273 64.077311 
L 158.288727 62.086265 
L 157.832182 61.55406 
L 157.375636 62.022468 
L 156.919091 63.522237 
L 156.462545 65.685258 
L 155.092909 74.527227 
L 153.266727 86.648645 
L 152.353636 92.174749 
L 151.440545 96.514077 
L 150.527455 99.468748 
L 149.157818 102.663167 
L 147.788182 106.423748 
L 146.875091 108.141144 
L 145.962 109.659325 
L 145.048909 111.343351 
L 142.309636 114.916732 
L 140.94 115.978831 
L 140.026909 116.001862 
L 139.570364 116.278123 
L 139.113818 116.812435 
L 138.657273 117.09681 
L 138.200727 117.051943 
L 137.744182 117.241291 
L 136.374545 118.29513 
L 135.004909 119.253202 
L 134.091818 119.980251 
L 132.722182 120.69414 
L 132.265636 120.958862 
L 131.809091 120.990031 
L 130.896 121.414167 
L 129.982909 121.324532 
L 129.526364 121.254412 
L 126.787091 122.145226 
L 126.330545 122.415869 
L 124.960909 123.531568 
L 123.591273 124.142399 
L 122.678182 124.059519 
L 121.308545 124.688805 
L 120.395455 125.149285 
L 119.482364 124.674708 
L 118.569273 124.764519 
L 118.112727 124.668505 
L 117.656182 124.725942 
L 116.743091 124.592766 
L 114.460364 125.269419 
L 113.090727 125.308822 
L 112.634182 125.382498 
L 112.177636 125.651641 
L 111.264545 126.406118 
L 110.351455 126.704997 
L 109.894909 126.52957 
L 109.438364 126.108228 
L 108.981818 125.456155 
L 108.068727 124.782081 
L 107.612182 124.656401 
L 107.155636 124.823375 
L 106.242545 125.567916 
L 105.329455 126.306972 
L 103.503273 126.531772 
L 102.133636 126.605262 
L 101.220545 127.031359 
L 100.764 127.614627 
L 100.307455 128.412928 
L 99.850909 129.968501 
L 99.394364 132.77082 
L 98.937818 137.605365 
L 98.481273 146.155588 
L 97.111636 184.007129 
L 96.655091 184.68 
L 96.198545 174.431939 
L 95.285455 133.906793 
L 94.372364 87.772383 
L 93.915818 72.43757 
L 93.459273 67.64879 
L 93.002727 73.703743 
L 91.633091 108.754659 
L 91.176545 115.334463 
L 90.72 119.41653 
L 90.263455 121.883474 
L 89.806909 123.255859 
L 89.350364 124.112681 
L 88.893818 124.512543 
L 88.437273 124.681088 
L 87.524182 124.805258 
L 86.611091 125.256381 
L 86.154545 125.138397 
L 85.698 124.898494 
L 84.328364 125.376954 
L 83.871818 125.236588 
L 82.958727 125.21521 
L 82.502182 125.101316 
L 81.132545 125.591373 
L 80.676 125.796733 
L 78.849818 126.016378 
L 78.393273 125.869319 
L 76.567091 123.933097 
L 75.197455 123.498037 
L 73.827818 123.999999 
L 72.458182 124.686882 
L 72.001636 124.745517 
L 71.088545 123.989176 
L 70.175455 124.200114 
L 68.349273 123.9487 
L 66.979636 123.708325 
L 65.61 123.628659 
L 64.696909 123.902553 
L 63.783818 123.652088 
L 61.957636 122.983274 
L 61.501091 122.919806 
L 60.588 123.134822 
L 59.674909 123.531114 
L 56.935636 122.802715 
L 56.479091 122.856462 
L 55.566 122.635657 
L 54.652909 122.90171 
L 53.739818 122.650439 
L 52.826727 122.229875 
L 51.913636 122.280506 
L 51.913636 122.280506 
" clip-path="url(#pab4f3308ee)" style="fill: none; stroke: #1f77b4; stroke-width: 1.5; stroke-linecap: square"/>
   </g>
   <g id="patch_3">
    <path d="M 40.5 192.24 
L 40.5 25.92 
" style="fill: none; stroke: #000000; stroke-width: 0.8; stroke-linejoin: miter; stroke-linecap: square"/>
   </g>
   <g id="patch_4">
    <path d="M 291.6 192.24 
L 291.6 25.92 
" style="fill: none; stroke: #000000; stroke-width: 0.8; stroke-linejoin: miter; stroke-linecap: square"/>
   </g>
   <g id="patch_5">
    <path d="M 40.5 192.24 
L 291.6 192.24 
" style="fill: none; stroke: #000000; stroke-width: 0.8; stroke-linejoin: miter; stroke-linecap: square"/>
   </g>
   <g id="patch_6">
    <path d="M 40.5 25.92 
L 291.6 25.92 
" style="fill: none; stroke: #000000; stroke-width: 0.8; stroke-linejoin: miter; stroke-linecap: square"/>
   </g>
  </g>
 </g>
 <defs>
  <clipPath id="pab4f3308ee">
   <rect x="40.5" y="25.92" width="251.1" height="166.32"/>
  </clipPath>
 </defs>
</svg>
