<?xml version="1.0" encoding="utf-8" standalone="no"?>
<!DOCTYPE svg PUBLIC "-//W3C//DTD SVG 1.1//EN"
  "http://www.w3.org/Graphics/SVG/1.1/DTD/svg11.dtd">
<svg xmlns:xlink="http://www.w3.org/1999/xlink" width="324pt" height="216pt" viewBox="0 0 324 216" xmlns="http://www.w3.org/2000/svg" version="1.1">
 <metadata>
  <rdf:RDF xmlns:dc="http://purl.org/dc/elements/1.1/" xmlns:cc="http://creativecommons.org/ns#" xmlns:rdf="http://www.w3.org/1999/02/22-rdf-syntax-ns#">
   <cc:Work>
    <dc:type rdf:resource="http://purl.org/dc/dcmitype/StillImage"/>
    <dc:date>2022-08-31T20:33:38.903792</dc:date>
    <dc:format>image/svg+xml</dc:format>
    <dc:creator>
     <cc:Agent>
      <dc:title>Matplotlib v3.5.1, https://matplotlib.org/</dc:title>
     </cc:Agent>
    </dc:creator>
   </cc:Work>
  </rdf:RDF>
 </metadata>
 <defs>
  <style type="text/css">*{stroke-linejoin: round; stroke-linecap: butt}</style>
 </defs>
 <g id="figure_1">
  <g id="patch_1">
   <path d="M 0 216 
L 324 216 
L 324 0 
L 0 0 
z
" style="fill: #ffffff"/>
  </g>
  <g id="axes_1">
   <g id="patch_2">
    <path d="M 40.5 192.24 
L 291.6 192.24 
L 291.6 25.92 
L 40.5 25.92 
z
" style="fill: #ffffff"/>
   </g>
   <g id="matplotlib.axis_1">
    <g id="xtick_1">
     <g id="line2d_1">
      <defs>
       <path id="m4239124cc0" d="M 0 0 
L 0 3.5 
" style="stroke: #000000; stroke-width: 0.8"/>
      </defs>
      <g>
       <use xlink:href="#m4239124cc0" x="50.381605" y="192.24" style="stroke: #000000; stroke-width: 0.8"/>
      </g>
     </g>
     <g id="text_1">
      <!-- 0.000 -->
      <g transform="translate(27.479105 211.3975)scale(0.16 -0.16)">
       <defs>
        <path id="DejaVuSans-30" d="M 2034 4250 
Q 1547 4250 1301 3770 
Q 1056 3291 1056 2328 
Q 1056 1369 1301 889 
Q 1547 409 2034 409 
Q 2525 409 2770 889 
Q 3016 1369 3016 2328 
Q 3016 3291 2770 3770 
Q 2525 4250 2034 4250 
z
M 2034 4750 
Q 2819 4750 3233 4129 
Q 3647 3509 3647 2328 
Q 3647 1150 3233 529 
Q 2819 -91 2034 -91 
Q 1250 -91 836 529 
Q 422 1150 422 2328 
Q 422 3509 836 4129 
Q 1250 4750 2034 4750 
z
" transform="scale(0.015625)"/>
        <path id="DejaVuSans-2e" d="M 684 794 
L 1344 794 
L 1344 0 
L 684 0 
L 684 794 
z
" transform="scale(0.015625)"/>
       </defs>
       <use xlink:href="#DejaVuSans-30"/>
       <use xlink:href="#DejaVuSans-2e" x="63.623047"/>
       <use xlink:href="#DejaVuSans-30" x="95.410156"/>
       <use xlink:href="#DejaVuSans-30" x="159.033203"/>
       <use xlink:href="#DejaVuSans-30" x="222.65625"/>
      </g>
     </g>
    </g>
    <g id="xtick_2">
     <g id="line2d_2">
      <g>
       <use xlink:href="#m4239124cc0" x="126.983191" y="192.24" style="stroke: #000000; stroke-width: 0.8"/>
      </g>
     </g>
     <g id="text_2">
      <!-- 0.005 -->
      <g transform="translate(104.080691 211.3975)scale(0.16 -0.16)">
       <defs>
        <path id="DejaVuSans-35" d="M 691 4666 
L 3169 4666 
L 3169 4134 
L 1269 4134 
L 1269 2991 
Q 1406 3038 1543 3061 
Q 1681 3084 1819 3084 
Q 2600 3084 3056 2656 
Q 3513 2228 3513 1497 
Q 3513 744 3044 326 
Q 2575 -91 1722 -91 
Q 1428 -91 1123 -41 
Q 819 9 494 109 
L 494 744 
Q 775 591 1075 516 
Q 1375 441 1709 441 
Q 2250 441 2565 725 
Q 2881 1009 2881 1497 
Q 2881 1984 2565 2268 
Q 2250 2553 1709 2553 
Q 1456 2553 1204 2497 
Q 953 2441 691 2322 
L 691 4666 
z
" transform="scale(0.015625)"/>
       </defs>
       <use xlink:href="#DejaVuSans-30"/>
       <use xlink:href="#DejaVuSans-2e" x="63.623047"/>
       <use xlink:href="#DejaVuSans-30" x="95.410156"/>
       <use xlink:href="#DejaVuSans-30" x="159.033203"/>
       <use xlink:href="#DejaVuSans-35" x="222.65625"/>
      </g>
     </g>
    </g>
    <g id="xtick_3">
     <g id="line2d_3">
      <g>
       <use xlink:href="#m4239124cc0" x="203.584777" y="192.24" style="stroke: #000000; stroke-width: 0.8"/>
      </g>
     </g>
     <g id="text_3">
      <!-- 0.010 -->
      <g transform="translate(180.682277 211.3975)scale(0.16 -0.16)">
       <defs>
        <path id="DejaVuSans-31" d="M 794 531 
L 1825 531 
L 1825 4091 
L 703 3866 
L 703 4441 
L 1819 4666 
L 2450 4666 
L 2450 531 
L 3481 531 
L 3481 0 
L 794 0 
L 794 531 
z
" transform="scale(0.015625)"/>
       </defs>
       <use xlink:href="#DejaVuSans-30"/>
       <use xlink:href="#DejaVuSans-2e" x="63.623047"/>
       <use xlink:href="#DejaVuSans-30" x="95.410156"/>
       <use xlink:href="#DejaVuSans-31" x="159.033203"/>
       <use xlink:href="#DejaVuSans-30" x="222.65625"/>
      </g>
     </g>
    </g>
    <g id="xtick_4">
     <g id="line2d_4">
      <g>
       <use xlink:href="#m4239124cc0" x="280.186364" y="192.24" style="stroke: #000000; stroke-width: 0.8"/>
      </g>
     </g>
     <g id="text_4">
      <!-- 0.015 -->
      <g transform="translate(257.283864 211.3975)scale(0.16 -0.16)">
       <use xlink:href="#DejaVuSans-30"/>
       <use xlink:href="#DejaVuSans-2e" x="63.623047"/>
       <use xlink:href="#DejaVuSans-30" x="95.410156"/>
       <use xlink:href="#DejaVuSans-31" x="159.033203"/>
       <use xlink:href="#DejaVuSans-35" x="222.65625"/>
      </g>
     </g>
    </g>
   </g>
   <g id="matplotlib.axis_2">
    <g id="ytick_1">
     <g id="line2d_5">
      <defs>
       <path id="m9d41bad10d" d="M 0 0 
L -3.5 0 
" style="stroke: #000000; stroke-width: 0.8"/>
      </defs>
      <g>
       <use xlink:href="#m9d41bad10d" x="40.5" y="183.9308" style="stroke: #000000; stroke-width: 0.8"/>
      </g>
     </g>
     <g id="text_5">
      <!-- 0.00 -->
      <g transform="translate(-2.125 190.00955)scale(0.16 -0.16)">
       <use xlink:href="#DejaVuSans-30"/>
       <use xlink:href="#DejaVuSans-2e" x="63.623047"/>
       <use xlink:href="#DejaVuSans-30" x="95.410156"/>
       <use xlink:href="#DejaVuSans-30" x="159.033203"/>
      </g>
     </g>
    </g>
    <g id="ytick_2">
     <g id="line2d_6">
      <g>
       <use xlink:href="#m9d41bad10d" x="40.5" y="146.3181" style="stroke: #000000; stroke-width: 0.8"/>
      </g>
     </g>
     <g id="text_6">
      <!-- 0.25 -->
      <g transform="translate(-2.125 152.39685)scale(0.16 -0.16)">
       <defs>
        <path id="DejaVuSans-32" d="M 1228 531 
L 3431 531 
L 3431 0 
L 469 0 
L 469 531 
Q 828 903 1448 1529 
Q 2069 2156 2228 2338 
Q 2531 2678 2651 2914 
Q 2772 3150 2772 3378 
Q 2772 3750 2511 3984 
Q 2250 4219 1831 4219 
Q 1534 4219 1204 4116 
Q 875 4013 500 3803 
L 500 4441 
Q 881 4594 1212 4672 
Q 1544 4750 1819 4750 
Q 2544 4750 2975 4387 
Q 3406 4025 3406 3419 
Q 3406 3131 3298 2873 
Q 3191 2616 2906 2266 
Q 2828 2175 2409 1742 
Q 1991 1309 1228 531 
z
" transform="scale(0.015625)"/>
       </defs>
       <use xlink:href="#DejaVuSans-30"/>
       <use xlink:href="#DejaVuSans-2e" x="63.623047"/>
       <use xlink:href="#DejaVuSans-32" x="95.410156"/>
       <use xlink:href="#DejaVuSans-35" x="159.033203"/>
      </g>
     </g>
    </g>
    <g id="ytick_3">
     <g id="line2d_7">
      <g>
       <use xlink:href="#m9d41bad10d" x="40.5" y="108.7054" style="stroke: #000000; stroke-width: 0.8"/>
      </g>
     </g>
     <g id="text_7">
      <!-- 0.50 -->
      <g transform="translate(-2.125 114.78415)scale(0.16 -0.16)">
       <use xlink:href="#DejaVuSans-30"/>
       <use xlink:href="#DejaVuSans-2e" x="63.623047"/>
       <use xlink:href="#DejaVuSans-35" x="95.410156"/>
       <use xlink:href="#DejaVuSans-30" x="159.033203"/>
      </g>
     </g>
    </g>
    <g id="ytick_4">
     <g id="line2d_8">
      <g>
       <use xlink:href="#m9d41bad10d" x="40.5" y="71.0927" style="stroke: #000000; stroke-width: 0.8"/>
      </g>
     </g>
     <g id="text_8">
      <!-- 0.75 -->
      <g transform="translate(-2.125 77.17145)scale(0.16 -0.16)">
       <defs>
        <path id="DejaVuSans-37" d="M 525 4666 
L 3525 4666 
L 3525 4397 
L 1831 0 
L 1172 0 
L 2766 4134 
L 525 4134 
L 525 4666 
z
" transform="scale(0.015625)"/>
       </defs>
       <use xlink:href="#DejaVuSans-30"/>
       <use xlink:href="#DejaVuSans-2e" x="63.623047"/>
       <use xlink:href="#DejaVuSans-37" x="95.410156"/>
       <use xlink:href="#DejaVuSans-35" x="159.033203"/>
      </g>
     </g>
    </g>
    <g id="ytick_5">
     <g id="line2d_9">
      <g>
       <use xlink:href="#m9d41bad10d" x="40.5" y="33.48" style="stroke: #000000; stroke-width: 0.8"/>
      </g>
     </g>
     <g id="text_9">
      <!-- 1.00 -->
      <g transform="translate(-2.125 39.55875)scale(0.16 -0.16)">
       <use xlink:href="#DejaVuSans-31"/>
       <use xlink:href="#DejaVuSans-2e" x="63.623047"/>
       <use xlink:href="#DejaVuSans-30" x="95.410156"/>
       <use xlink:href="#DejaVuSans-30" x="159.033203"/>
      </g>
     </g>
    </g>
   </g>
   <g id="line2d_10">
    <path d="M 51.913636 33.48 
L 53.445668 47.717857 
L 54.9777 53.55243 
L 59.573795 68.292914 
L 61.105827 71.760552 
L 62.637858 75.58462 
L 64.16989 80.311241 
L 65.701922 83.755923 
L 67.233954 86.630317 
L 70.298017 92.990473 
L 71.830049 96.08235 
L 73.362081 98.860085 
L 74.894112 101.011954 
L 76.426144 103.893598 
L 77.958176 105.999554 
L 79.490207 109.608556 
L 81.022239 111.402787 
L 82.554271 114.211937 
L 85.618334 118.28611 
L 87.150366 120.512889 
L 88.682398 121.808119 
L 90.21443 123.793251 
L 91.746461 125.080023 
L 94.810525 128.046243 
L 96.342556 130.886807 
L 97.874588 131.481259 
L 99.40662 133.709247 
L 100.938652 135.555432 
L 102.470683 135.875615 
L 104.002715 137.805168 
L 105.534747 137.790669 
L 107.066779 140.233723 
L 108.59881 141.879341 
L 110.130842 142.55837 
L 111.662874 144.292189 
L 113.194905 144.34656 
L 114.726937 147.42273 
L 116.258969 147.323654 
L 117.791001 148.502893 
L 119.323032 149.39578 
L 122.387096 150.814249 
L 123.919128 151.798962 
L 125.451159 153.199308 
L 126.983191 153.575069 
L 128.515223 154.391837 
L 130.047254 155.017704 
L 131.579286 156.820392 
L 133.111318 156.099075 
L 134.64335 157.548959 
L 137.707413 158.908225 
L 139.239445 159.949725 
L 140.771477 159.992013 
L 142.303508 161.649713 
L 143.83554 161.038346 
L 145.367572 162.534142 
L 146.899603 161.943315 
L 148.431635 163.344869 
L 149.963667 164.14593 
L 151.495699 164.292126 
L 153.02773 163.72063 
L 154.559762 165.491905 
L 156.091794 165.629644 
L 157.623826 165.984865 
L 159.155857 166.805258 
L 160.687889 167.239015 
L 162.219921 167.321175 
L 163.751952 168.128277 
L 165.283984 167.869714 
L 166.816016 167.942208 
L 168.348048 169.535872 
L 169.880079 168.94142 
L 171.412111 170.162947 
L 172.944143 170.544749 
L 174.476174 170.501253 
L 176.008206 170.694571 
L 177.540238 171.075165 
L 179.07227 171.865352 
L 180.604301 171.675659 
L 182.136333 172.012757 
L 183.668365 172.760655 
L 185.200397 172.502092 
L 188.26446 173.089295 
L 189.796492 173.156957 
L 192.860555 174.074008 
L 194.392587 174.575426 
L 195.924619 173.473514 
L 197.45665 174.423188 
L 198.988682 174.986226 
L 200.520714 175.105842 
L 203.584777 175.099801 
L 206.648841 175.493686 
L 208.180872 176.194463 
L 209.712904 176.590764 
L 211.244936 176.414362 
L 212.776968 176.787707 
L 214.308999 176.495314 
L 215.841031 177.36766 
L 217.373063 177.407532 
L 218.905095 178.331833 
L 220.437126 177.840081 
L 223.50119 177.402699 
L 225.033221 178.186845 
L 226.565253 178.312501 
L 228.097285 178.900912 
L 229.629317 178.394661 
L 232.69338 178.259339 
L 234.225412 179.701973 
L 235.757444 179.312921 
L 238.821507 179.891666 
L 240.353539 179.357626 
L 241.88557 180.110357 
L 243.417602 179.115978 
L 244.949634 179.78655 
L 246.481666 179.097855 
L 248.013697 179.920664 
L 249.545729 179.12202 
L 251.077761 179.534028 
L 252.609793 180.141771 
L 254.141824 179.732179 
L 255.673856 180.441414 
L 257.205888 179.768426 
L 258.737919 180.047529 
L 260.269951 180.982704 
L 261.801983 180.063236 
L 263.334015 180.592443 
L 264.866046 180.260178 
L 266.398078 180.898127 
L 267.93011 180.38221 
L 269.462142 180.708434 
L 270.994173 180.45108 
L 272.526205 181.235225 
L 274.058237 180.866713 
L 275.590268 182.043535 
L 277.1223 181.760808 
L 278.654332 182.35526 
L 280.186364 181.369339 
L 280.186364 181.369339 
" clip-path="url(#p9179183665)" style="fill: none; stroke: #1f77b4; stroke-width: 2; stroke-linecap: square"/>
   </g>
   <g id="line2d_11">
    <path d="M 51.913636 33.48 
L 53.445668 52.355111 
L 54.9777 67.45385 
L 56.509732 78.826838 
L 58.041763 88.910663 
L 59.573795 96.490405 
L 61.105827 103.43569 
L 62.637858 111.94687 
L 64.16989 115.487008 
L 65.701922 121.396238 
L 67.233954 122.081317 
L 70.298017 128.894985 
L 71.830049 132.975087 
L 73.362081 134.439739 
L 74.894112 140.02499 
L 76.426144 141.044172 
L 77.958176 143.079161 
L 79.490207 144.06122 
L 81.022239 146.59905 
L 82.554271 145.1074 
L 84.086303 150.243806 
L 85.618334 150.145938 
L 87.150366 153.088741 
L 88.682398 153.378971 
L 90.21443 152.825508 
L 91.746461 156.655877 
L 93.278493 154.914493 
L 94.810525 155.896553 
L 96.342556 156.399394 
L 97.874588 158.191399 
L 99.40662 157.496195 
L 100.938652 157.999037 
L 102.470683 161.674166 
L 104.002715 161.45818 
L 105.534747 163.85427 
L 107.066779 163.709154 
L 108.59881 164.29299 
L 110.130842 167.117676 
L 111.662874 163.857644 
L 113.194905 165.106311 
L 114.726937 167.617143 
L 116.258969 166.743076 
L 117.791001 166.476469 
L 119.323032 165.153558 
L 120.855064 167.009683 
L 122.387096 171.184279 
L 123.919128 169.257283 
L 125.451159 171.326019 
L 126.983191 171.410389 
L 128.515223 169.851243 
L 130.047254 171.923354 
L 133.111318 171.930104 
L 134.64335 172.277706 
L 136.175381 174.609674 
L 137.707413 172.078594 
L 139.239445 173.138273 
L 140.771477 173.512873 
L 142.303508 175.004523 
L 143.83554 173.347509 
L 145.367572 174.805411 
L 146.899603 174.862782 
L 148.431635 176.327434 
L 149.963667 175.956209 
L 151.495699 177.410737 
L 153.02773 173.674862 
L 154.559762 178.301677 
L 156.091794 177.35674 
L 157.623826 176.705409 
L 159.155857 177.653721 
L 160.687889 176.985515 
L 162.219921 177.751589 
L 163.751952 176.789778 
L 165.283984 176.4658 
L 166.816016 177.896704 
L 168.348048 178.919261 
L 169.880079 177.619973 
L 171.412111 177.076634 
L 172.944143 179.088 
L 174.476174 179.256738 
L 176.008206 177.191377 
L 177.540238 179.071126 
L 179.07227 179.648212 
L 180.604301 180.593149 
L 182.136333 178.294928 
L 183.668365 179.74608 
L 185.200397 179.469349 
L 186.732428 177.73134 
L 188.26446 177.930452 
L 189.796492 181.666327 
L 192.860555 181.160111 
L 194.392587 178.662778 
L 195.924619 180.545902 
L 197.45665 178.622281 
L 198.988682 181.02512 
L 200.520714 180.461533 
L 202.052746 180.110556 
L 203.584777 181.622455 
L 205.116809 179.077875 
L 206.648841 179.648212 
L 208.180872 180.64377 
L 209.712904 180.832758 
L 211.244936 178.102566 
L 212.776968 178.909137 
L 214.308999 181.163486 
L 215.841031 180.066684 
L 217.373063 180.137554 
L 218.905095 181.835066 
L 220.437126 179.320859 
L 221.969158 180.394037 
L 223.50119 182.101673 
L 225.033221 182.722631 
L 226.565253 182.726006 
L 228.097285 181.423343 
L 229.629317 181.257979 
L 231.161348 181.342349 
L 234.225412 182.088174 
L 235.757444 183.70469 
L 237.289475 182.405402 
L 238.821507 182.867746 
L 240.353539 180.964374 
L 241.88557 183.252471 
L 243.417602 181.824941 
L 244.949634 182.992613 
L 248.013697 182.847498 
L 249.545729 181.062242 
L 251.077761 183.758687 
L 252.609793 182.486397 
L 255.673856 184.629378 
L 257.205888 182.921743 
L 258.737919 183.512328 
L 260.269951 182.817125 
L 261.801983 183.046609 
L 263.334015 180.289419 
L 264.866046 183.988171 
L 266.398078 181.39972 
L 267.93011 183.421209 
L 269.462142 184.180534 
L 270.994173 184.68 
L 272.526205 182.945366 
L 274.058237 184.231155 
L 275.590268 181.423343 
L 277.1223 183.839681 
L 278.654332 183.863305 
L 280.186364 181.632579 
L 280.186364 181.632579 
" clip-path="url(#p9179183665)" style="fill: none; stroke: #ff7f0e; stroke-width: 2; stroke-linecap: square"/>
   </g>
   <g id="patch_3">
    <path d="M 40.5 192.24 
L 40.5 25.92 
" style="fill: none; stroke: #000000; stroke-width: 0.8; stroke-linejoin: miter; stroke-linecap: square"/>
   </g>
   <g id="patch_4">
    <path d="M 291.6 192.24 
L 291.6 25.92 
" style="fill: none; stroke: #000000; stroke-width: 0.8; stroke-linejoin: miter; stroke-linecap: square"/>
   </g>
   <g id="patch_5">
    <path d="M 40.5 192.24 
L 291.6 192.24 
" style="fill: none; stroke: #000000; stroke-width: 0.8; stroke-linejoin: miter; stroke-linecap: square"/>
   </g>
   <g id="patch_6">
    <path d="M 40.5 25.92 
L 291.6 25.92 
" style="fill: none; stroke: #000000; stroke-width: 0.8; stroke-linejoin: miter; stroke-linecap: square"/>
   </g>
   <g id="legend_1">
    <g id="patch_7">
     <path d="M 210.939063 63.27625 
L 284.6 63.27625 
Q 286.6 63.27625 286.6 61.27625 
L 286.6 32.92 
Q 286.6 30.92 284.6 30.92 
L 210.939063 30.92 
Q 208.939063 30.92 208.939063 32.92 
L 208.939063 61.27625 
Q 208.939063 63.27625 210.939063 63.27625 
z
" style="fill: #ffffff; opacity: 0.8; stroke: #cccccc; stroke-linejoin: miter"/>
    </g>
    <g id="line2d_12">
     <path d="M 212.939063 39.018437 
L 222.939063 39.018437 
L 232.939063 39.018437 
" style="fill: none; stroke: #1f77b4; stroke-width: 2; stroke-linecap: square"/>
    </g>
    <g id="text_10">
     <!-- region A -->
     <g transform="translate(240.939063 42.518437)scale(0.1 -0.1)">
      <defs>
       <path id="DejaVuSans-72" d="M 2631 2963 
Q 2534 3019 2420 3045 
Q 2306 3072 2169 3072 
Q 1681 3072 1420 2755 
Q 1159 2438 1159 1844 
L 1159 0 
L 581 0 
L 581 3500 
L 1159 3500 
L 1159 2956 
Q 1341 3275 1631 3429 
Q 1922 3584 2338 3584 
Q 2397 3584 2469 3576 
Q 2541 3569 2628 3553 
L 2631 2963 
z
" transform="scale(0.015625)"/>
       <path id="DejaVuSans-65" d="M 3597 1894 
L 3597 1613 
L 953 1613 
Q 991 1019 1311 708 
Q 1631 397 2203 397 
Q 2534 397 2845 478 
Q 3156 559 3463 722 
L 3463 178 
Q 3153 47 2828 -22 
Q 2503 -91 2169 -91 
Q 1331 -91 842 396 
Q 353 884 353 1716 
Q 353 2575 817 3079 
Q 1281 3584 2069 3584 
Q 2775 3584 3186 3129 
Q 3597 2675 3597 1894 
z
M 3022 2063 
Q 3016 2534 2758 2815 
Q 2500 3097 2075 3097 
Q 1594 3097 1305 2825 
Q 1016 2553 972 2059 
L 3022 2063 
z
" transform="scale(0.015625)"/>
       <path id="DejaVuSans-67" d="M 2906 1791 
Q 2906 2416 2648 2759 
Q 2391 3103 1925 3103 
Q 1463 3103 1205 2759 
Q 947 2416 947 1791 
Q 947 1169 1205 825 
Q 1463 481 1925 481 
Q 2391 481 2648 825 
Q 2906 1169 2906 1791 
z
M 3481 434 
Q 3481 -459 3084 -895 
Q 2688 -1331 1869 -1331 
Q 1566 -1331 1297 -1286 
Q 1028 -1241 775 -1147 
L 775 -588 
Q 1028 -725 1275 -790 
Q 1522 -856 1778 -856 
Q 2344 -856 2625 -561 
Q 2906 -266 2906 331 
L 2906 616 
Q 2728 306 2450 153 
Q 2172 0 1784 0 
Q 1141 0 747 490 
Q 353 981 353 1791 
Q 353 2603 747 3093 
Q 1141 3584 1784 3584 
Q 2172 3584 2450 3431 
Q 2728 3278 2906 2969 
L 2906 3500 
L 3481 3500 
L 3481 434 
z
" transform="scale(0.015625)"/>
       <path id="DejaVuSans-69" d="M 603 3500 
L 1178 3500 
L 1178 0 
L 603 0 
L 603 3500 
z
M 603 4863 
L 1178 4863 
L 1178 4134 
L 603 4134 
L 603 4863 
z
" transform="scale(0.015625)"/>
       <path id="DejaVuSans-6f" d="M 1959 3097 
Q 1497 3097 1228 2736 
Q 959 2375 959 1747 
Q 959 1119 1226 758 
Q 1494 397 1959 397 
Q 2419 397 2687 759 
Q 2956 1122 2956 1747 
Q 2956 2369 2687 2733 
Q 2419 3097 1959 3097 
z
M 1959 3584 
Q 2709 3584 3137 3096 
Q 3566 2609 3566 1747 
Q 3566 888 3137 398 
Q 2709 -91 1959 -91 
Q 1206 -91 779 398 
Q 353 888 353 1747 
Q 353 2609 779 3096 
Q 1206 3584 1959 3584 
z
" transform="scale(0.015625)"/>
       <path id="DejaVuSans-6e" d="M 3513 2113 
L 3513 0 
L 2938 0 
L 2938 2094 
Q 2938 2591 2744 2837 
Q 2550 3084 2163 3084 
Q 1697 3084 1428 2787 
Q 1159 2491 1159 1978 
L 1159 0 
L 581 0 
L 581 3500 
L 1159 3500 
L 1159 2956 
Q 1366 3272 1645 3428 
Q 1925 3584 2291 3584 
Q 2894 3584 3203 3211 
Q 3513 2838 3513 2113 
z
" transform="scale(0.015625)"/>
       <path id="DejaVuSans-20" transform="scale(0.015625)"/>
       <path id="DejaVuSans-41" d="M 2188 4044 
L 1331 1722 
L 3047 1722 
L 2188 4044 
z
M 1831 4666 
L 2547 4666 
L 4325 0 
L 3669 0 
L 3244 1197 
L 1141 1197 
L 716 0 
L 50 0 
L 1831 4666 
z
" transform="scale(0.015625)"/>
      </defs>
      <use xlink:href="#DejaVuSans-72"/>
      <use xlink:href="#DejaVuSans-65" x="38.863281"/>
      <use xlink:href="#DejaVuSans-67" x="100.386719"/>
      <use xlink:href="#DejaVuSans-69" x="163.863281"/>
      <use xlink:href="#DejaVuSans-6f" x="191.646484"/>
      <use xlink:href="#DejaVuSans-6e" x="252.828125"/>
      <use xlink:href="#DejaVuSans-20" x="316.207031"/>
      <use xlink:href="#DejaVuSans-41" x="347.994141"/>
     </g>
    </g>
    <g id="line2d_13">
     <path d="M 212.939063 53.696562 
L 222.939063 53.696562 
L 232.939063 53.696562 
" style="fill: none; stroke: #ff7f0e; stroke-width: 2; stroke-linecap: square"/>
    </g>
    <g id="text_11">
     <!-- region B -->
     <g transform="translate(240.939063 57.196562)scale(0.1 -0.1)">
      <defs>
       <path id="DejaVuSans-42" d="M 1259 2228 
L 1259 519 
L 2272 519 
Q 2781 519 3026 730 
Q 3272 941 3272 1375 
Q 3272 1813 3026 2020 
Q 2781 2228 2272 2228 
L 1259 2228 
z
M 1259 4147 
L 1259 2741 
L 2194 2741 
Q 2656 2741 2882 2914 
Q 3109 3088 3109 3444 
Q 3109 3797 2882 3972 
Q 2656 4147 2194 4147 
L 1259 4147 
z
M 628 4666 
L 2241 4666 
Q 2963 4666 3353 4366 
Q 3744 4066 3744 3513 
Q 3744 3084 3544 2831 
Q 3344 2578 2956 2516 
Q 3422 2416 3680 2098 
Q 3938 1781 3938 1306 
Q 3938 681 3513 340 
Q 3088 0 2303 0 
L 628 0 
L 628 4666 
z
" transform="scale(0.015625)"/>
      </defs>
      <use xlink:href="#DejaVuSans-72"/>
      <use xlink:href="#DejaVuSans-65" x="38.863281"/>
      <use xlink:href="#DejaVuSans-67" x="100.386719"/>
      <use xlink:href="#DejaVuSans-69" x="163.863281"/>
      <use xlink:href="#DejaVuSans-6f" x="191.646484"/>
      <use xlink:href="#DejaVuSans-6e" x="252.828125"/>
      <use xlink:href="#DejaVuSans-20" x="316.207031"/>
      <use xlink:href="#DejaVuSans-42" x="347.994141"/>
     </g>
    </g>
   </g>
  </g>
 </g>
 <defs>
  <clipPath id="p9179183665">
   <rect x="40.5" y="25.92" width="251.1" height="166.32"/>
  </clipPath>
 </defs>
</svg>
