<?xml version="1.0" encoding="utf-8" standalone="no"?>
<!DOCTYPE svg PUBLIC "-//W3C//DTD SVG 1.1//EN"
  "http://www.w3.org/Graphics/SVG/1.1/DTD/svg11.dtd">
<svg xmlns:xlink="http://www.w3.org/1999/xlink" width="324pt" height="216pt" viewBox="0 0 324 216" xmlns="http://www.w3.org/2000/svg" version="1.1">
 <metadata>
  <rdf:RDF xmlns:dc="http://purl.org/dc/elements/1.1/" xmlns:cc="http://creativecommons.org/ns#" xmlns:rdf="http://www.w3.org/1999/02/22-rdf-syntax-ns#">
   <cc:Work>
    <dc:type rdf:resource="http://purl.org/dc/dcmitype/StillImage"/>
    <dc:date>2022-08-31T20:12:53.346764</dc:date>
    <dc:format>image/svg+xml</dc:format>
    <dc:creator>
     <cc:Agent>
      <dc:title>Matplotlib v3.5.1, https://matplotlib.org/</dc:title>
     </cc:Agent>
    </dc:creator>
   </cc:Work>
  </rdf:RDF>
 </metadata>
 <defs>
  <style type="text/css">*{stroke-linejoin: round; stroke-linecap: butt}</style>
 </defs>
 <g id="figure_1">
  <g id="patch_1">
   <path d="M 0 216 
L 324 216 
L 324 0 
L 0 0 
z
" style="fill: #ffffff"/>
  </g>
  <g id="axes_1">
   <g id="patch_2">
    <path d="M 40.5 192.24 
L 291.6 192.24 
L 291.6 25.92 
L 40.5 25.92 
z
" style="fill: #ffffff"/>
   </g>
   <g id="matplotlib.axis_1">
    <g id="xtick_1">
     <g id="line2d_1">
      <defs>
       <path id="mc91ff6a5a5" d="M 0 0 
L 0 3.5 
" style="stroke: #000000; stroke-width: 0.8"/>
      </defs>
      <g>
       <use xlink:href="#mc91ff6a5a5" x="75.273514" y="192.24" style="stroke: #000000; stroke-width: 0.8"/>
      </g>
     </g>
     <g id="text_1">
      <!-- −20 -->
      <g transform="translate(58.389764 211.3975)scale(0.16 -0.16)">
       <defs>
        <path id="DejaVuSans-2212" d="M 678 2272 
L 4684 2272 
L 4684 1741 
L 678 1741 
L 678 2272 
z
" transform="scale(0.015625)"/>
        <path id="DejaVuSans-32" d="M 1228 531 
L 3431 531 
L 3431 0 
L 469 0 
L 469 531 
Q 828 903 1448 1529 
Q 2069 2156 2228 2338 
Q 2531 2678 2651 2914 
Q 2772 3150 2772 3378 
Q 2772 3750 2511 3984 
Q 2250 4219 1831 4219 
Q 1534 4219 1204 4116 
Q 875 4013 500 3803 
L 500 4441 
Q 881 4594 1212 4672 
Q 1544 4750 1819 4750 
Q 2544 4750 2975 4387 
Q 3406 4025 3406 3419 
Q 3406 3131 3298 2873 
Q 3191 2616 2906 2266 
Q 2828 2175 2409 1742 
Q 1991 1309 1228 531 
z
" transform="scale(0.015625)"/>
        <path id="DejaVuSans-30" d="M 2034 4250 
Q 1547 4250 1301 3770 
Q 1056 3291 1056 2328 
Q 1056 1369 1301 889 
Q 1547 409 2034 409 
Q 2525 409 2770 889 
Q 3016 1369 3016 2328 
Q 3016 3291 2770 3770 
Q 2525 4250 2034 4250 
z
M 2034 4750 
Q 2819 4750 3233 4129 
Q 3647 3509 3647 2328 
Q 3647 1150 3233 529 
Q 2819 -91 2034 -91 
Q 1250 -91 836 529 
Q 422 1150 422 2328 
Q 422 3509 836 4129 
Q 1250 4750 2034 4750 
z
" transform="scale(0.015625)"/>
       </defs>
       <use xlink:href="#DejaVuSans-2212"/>
       <use xlink:href="#DejaVuSans-32" x="83.789062"/>
       <use xlink:href="#DejaVuSans-30" x="147.412109"/>
      </g>
     </g>
    </g>
    <g id="xtick_2">
     <g id="line2d_2">
      <g>
       <use xlink:href="#mc91ff6a5a5" x="168.713026" y="192.24" style="stroke: #000000; stroke-width: 0.8"/>
      </g>
     </g>
     <g id="text_2">
      <!-- 0 -->
      <g transform="translate(163.623026 211.3975)scale(0.16 -0.16)">
       <use xlink:href="#DejaVuSans-30"/>
      </g>
     </g>
    </g>
    <g id="xtick_3">
     <g id="line2d_3">
      <g>
       <use xlink:href="#mc91ff6a5a5" x="262.152538" y="192.24" style="stroke: #000000; stroke-width: 0.8"/>
      </g>
     </g>
     <g id="text_3">
      <!-- 20 -->
      <g transform="translate(251.972538 211.3975)scale(0.16 -0.16)">
       <use xlink:href="#DejaVuSans-32"/>
       <use xlink:href="#DejaVuSans-30" x="63.623047"/>
      </g>
     </g>
    </g>
   </g>
   <g id="matplotlib.axis_2">
    <g id="ytick_1">
     <g id="line2d_4">
      <defs>
       <path id="m4b7b254120" d="M 0 0 
L -3.5 0 
" style="stroke: #000000; stroke-width: 0.8"/>
      </defs>
      <g>
       <use xlink:href="#m4b7b254120" x="40.5" y="172.975217" style="stroke: #000000; stroke-width: 0.8"/>
      </g>
     </g>
     <g id="text_4">
      <!-- 0.994 -->
      <g transform="translate(-12.305 179.053967)scale(0.16 -0.16)">
       <defs>
        <path id="DejaVuSans-2e" d="M 684 794 
L 1344 794 
L 1344 0 
L 684 0 
L 684 794 
z
" transform="scale(0.015625)"/>
        <path id="DejaVuSans-39" d="M 703 97 
L 703 672 
Q 941 559 1184 500 
Q 1428 441 1663 441 
Q 2288 441 2617 861 
Q 2947 1281 2994 2138 
Q 2813 1869 2534 1725 
Q 2256 1581 1919 1581 
Q 1219 1581 811 2004 
Q 403 2428 403 3163 
Q 403 3881 828 4315 
Q 1253 4750 1959 4750 
Q 2769 4750 3195 4129 
Q 3622 3509 3622 2328 
Q 3622 1225 3098 567 
Q 2575 -91 1691 -91 
Q 1453 -91 1209 -44 
Q 966 3 703 97 
z
M 1959 2075 
Q 2384 2075 2632 2365 
Q 2881 2656 2881 3163 
Q 2881 3666 2632 3958 
Q 2384 4250 1959 4250 
Q 1534 4250 1286 3958 
Q 1038 3666 1038 3163 
Q 1038 2656 1286 2365 
Q 1534 2075 1959 2075 
z
" transform="scale(0.015625)"/>
        <path id="DejaVuSans-34" d="M 2419 4116 
L 825 1625 
L 2419 1625 
L 2419 4116 
z
M 2253 4666 
L 3047 4666 
L 3047 1625 
L 3713 1625 
L 3713 1100 
L 3047 1100 
L 3047 0 
L 2419 0 
L 2419 1100 
L 313 1100 
L 313 1709 
L 2253 4666 
z
" transform="scale(0.015625)"/>
       </defs>
       <use xlink:href="#DejaVuSans-30"/>
       <use xlink:href="#DejaVuSans-2e" x="63.623047"/>
       <use xlink:href="#DejaVuSans-39" x="95.410156"/>
       <use xlink:href="#DejaVuSans-39" x="159.033203"/>
       <use xlink:href="#DejaVuSans-34" x="222.65625"/>
      </g>
     </g>
    </g>
    <g id="ytick_2">
     <g id="line2d_5">
      <g>
       <use xlink:href="#m4b7b254120" x="40.5" y="126.476812" style="stroke: #000000; stroke-width: 0.8"/>
      </g>
     </g>
     <g id="text_5">
      <!-- 0.996 -->
      <g transform="translate(-12.305 132.555562)scale(0.16 -0.16)">
       <defs>
        <path id="DejaVuSans-36" d="M 2113 2584 
Q 1688 2584 1439 2293 
Q 1191 2003 1191 1497 
Q 1191 994 1439 701 
Q 1688 409 2113 409 
Q 2538 409 2786 701 
Q 3034 994 3034 1497 
Q 3034 2003 2786 2293 
Q 2538 2584 2113 2584 
z
M 3366 4563 
L 3366 3988 
Q 3128 4100 2886 4159 
Q 2644 4219 2406 4219 
Q 1781 4219 1451 3797 
Q 1122 3375 1075 2522 
Q 1259 2794 1537 2939 
Q 1816 3084 2150 3084 
Q 2853 3084 3261 2657 
Q 3669 2231 3669 1497 
Q 3669 778 3244 343 
Q 2819 -91 2113 -91 
Q 1303 -91 875 529 
Q 447 1150 447 2328 
Q 447 3434 972 4092 
Q 1497 4750 2381 4750 
Q 2619 4750 2861 4703 
Q 3103 4656 3366 4563 
z
" transform="scale(0.015625)"/>
       </defs>
       <use xlink:href="#DejaVuSans-30"/>
       <use xlink:href="#DejaVuSans-2e" x="63.623047"/>
       <use xlink:href="#DejaVuSans-39" x="95.410156"/>
       <use xlink:href="#DejaVuSans-39" x="159.033203"/>
       <use xlink:href="#DejaVuSans-36" x="222.65625"/>
      </g>
     </g>
    </g>
    <g id="ytick_3">
     <g id="line2d_6">
      <g>
       <use xlink:href="#m4b7b254120" x="40.5" y="79.978406" style="stroke: #000000; stroke-width: 0.8"/>
      </g>
     </g>
     <g id="text_6">
      <!-- 0.998 -->
      <g transform="translate(-12.305 86.057156)scale(0.16 -0.16)">
       <defs>
        <path id="DejaVuSans-38" d="M 2034 2216 
Q 1584 2216 1326 1975 
Q 1069 1734 1069 1313 
Q 1069 891 1326 650 
Q 1584 409 2034 409 
Q 2484 409 2743 651 
Q 3003 894 3003 1313 
Q 3003 1734 2745 1975 
Q 2488 2216 2034 2216 
z
M 1403 2484 
Q 997 2584 770 2862 
Q 544 3141 544 3541 
Q 544 4100 942 4425 
Q 1341 4750 2034 4750 
Q 2731 4750 3128 4425 
Q 3525 4100 3525 3541 
Q 3525 3141 3298 2862 
Q 3072 2584 2669 2484 
Q 3125 2378 3379 2068 
Q 3634 1759 3634 1313 
Q 3634 634 3220 271 
Q 2806 -91 2034 -91 
Q 1263 -91 848 271 
Q 434 634 434 1313 
Q 434 1759 690 2068 
Q 947 2378 1403 2484 
z
M 1172 3481 
Q 1172 3119 1398 2916 
Q 1625 2713 2034 2713 
Q 2441 2713 2670 2916 
Q 2900 3119 2900 3481 
Q 2900 3844 2670 4047 
Q 2441 4250 2034 4250 
Q 1625 4250 1398 4047 
Q 1172 3844 1172 3481 
z
" transform="scale(0.015625)"/>
       </defs>
       <use xlink:href="#DejaVuSans-30"/>
       <use xlink:href="#DejaVuSans-2e" x="63.623047"/>
       <use xlink:href="#DejaVuSans-39" x="95.410156"/>
       <use xlink:href="#DejaVuSans-39" x="159.033203"/>
       <use xlink:href="#DejaVuSans-38" x="222.65625"/>
      </g>
     </g>
    </g>
    <g id="ytick_4">
     <g id="line2d_7">
      <g>
       <use xlink:href="#m4b7b254120" x="40.5" y="33.48" style="stroke: #000000; stroke-width: 0.8"/>
      </g>
     </g>
     <g id="text_7">
      <!-- 1.000 -->
      <g transform="translate(-12.305 39.55875)scale(0.16 -0.16)">
       <defs>
        <path id="DejaVuSans-31" d="M 794 531 
L 1825 531 
L 1825 4091 
L 703 3866 
L 703 4441 
L 1819 4666 
L 2450 4666 
L 2450 531 
L 3481 531 
L 3481 0 
L 794 0 
L 794 531 
z
" transform="scale(0.015625)"/>
       </defs>
       <use xlink:href="#DejaVuSans-31"/>
       <use xlink:href="#DejaVuSans-2e" x="63.623047"/>
       <use xlink:href="#DejaVuSans-30" x="95.410156"/>
       <use xlink:href="#DejaVuSans-30" x="159.033203"/>
       <use xlink:href="#DejaVuSans-30" x="222.65625"/>
      </g>
     </g>
    </g>
   </g>
   <g id="line2d_8">
    <path d="M 51.913636 166.325459 
L 55.838096 159.51628 
L 56.492172 158.965764 
L 57.146249 157.379494 
L 58.454402 155.666664 
L 60.416632 152.477259 
L 66.957398 142.904721 
L 67.611474 141.895914 
L 68.265551 141.118669 
L 69.573704 139.051017 
L 70.227781 138.4224 
L 70.881857 137.18914 
L 71.535934 136.459285 
L 72.19001 135.31918 
L 72.844087 134.775029 
L 74.806317 131.926786 
L 76.11447 129.893794 
L 76.768546 128.889912 
L 77.422623 128.274165 
L 79.384853 125.438281 
L 80.038929 124.286328 
L 80.693006 123.745522 
L 81.347083 122.62349 
L 82.001159 121.757179 
L 82.655236 120.64574 
L 83.963389 119.003578 
L 85.271542 116.856106 
L 87.233772 114.099344 
L 87.887848 112.917517 
L 88.541925 112.048418 
L 90.504155 108.79708 
L 91.158231 107.786647 
L 92.466384 105.336808 
L 93.120461 104.486107 
L 95.082691 100.945318 
L 100.96938 91.239344 
L 101.623457 89.776196 
L 104.89384 84.824294 
L 105.547916 83.67248 
L 106.201993 82.759615 
L 107.510146 80.315026 
L 110.780529 75.000124 
L 111.434605 73.699728 
L 112.088682 72.976099 
L 117.321295 64.573588 
L 118.629448 62.801009 
L 119.283524 61.556134 
L 119.937601 60.966545 
L 120.591678 59.884887 
L 122.553907 57.663775 
L 123.207984 56.533054 
L 125.170214 54.417826 
L 127.132443 51.695864 
L 131.710979 47.342287 
L 132.365056 46.651552 
L 134.981362 44.974218 
L 135.635439 44.645042 
L 136.289515 43.960301 
L 136.943592 44.053269 
L 138.251745 43.252282 
L 139.559898 43.031314 
L 140.213975 42.779681 
L 142.176205 43.211489 
L 142.830281 43.306037 
L 143.484358 43.743839 
L 144.138434 43.849631 
L 146.100664 44.865267 
L 146.754741 45.547546 
L 148.062894 46.494653 
L 148.716971 47.72624 
L 149.371047 48.241167 
L 150.6792 50.230625 
L 153.295507 55.252823 
L 155.257736 58.261774 
L 155.911813 58.914039 
L 156.56589 60.107435 
L 157.219966 60.713611 
L 158.528119 61.32304 
L 159.836272 62.000859 
L 161.144426 62.134109 
L 161.798502 62.723141 
L 162.452579 62.616745 
L 163.760732 63.213211 
L 164.414809 63.154763 
L 165.068885 63.329131 
L 165.722962 63.698775 
L 166.377038 63.884247 
L 167.031115 63.937723 
L 168.339268 64.463847 
L 168.993345 64.175325 
L 170.301498 64.331852 
L 170.955574 64.54441 
L 174.225957 64.366186 
L 175.53411 63.831699 
L 176.188187 63.711319 
L 176.842264 62.921808 
L 177.49634 62.532047 
L 179.45857 60.172016 
L 180.112647 58.943821 
L 180.766723 58.14288 
L 184.691183 50.802978 
L 185.345259 50.193317 
L 185.999336 49.122067 
L 187.307489 47.80225 
L 187.961566 47.64498 
L 189.269719 46.526293 
L 190.577872 46.182668 
L 191.886025 45.64228 
L 193.848255 45.447702 
L 194.502331 45.649389 
L 195.156408 45.696314 
L 196.464561 46.52016 
L 197.118638 46.683238 
L 198.426791 47.746822 
L 199.080867 48.422225 
L 199.734944 48.903561 
L 200.389021 49.60382 
L 201.043097 50.076747 
L 201.697174 50.973211 
L 203.005327 52.060769 
L 203.659403 52.993751 
L 204.31348 53.723978 
L 204.967557 54.197415 
L 208.892016 59.62833 
L 209.546093 60.357302 
L 210.200169 61.40207 
L 210.854246 62.126489 
L 211.508322 63.437246 
L 212.162399 64.171329 
L 213.470552 66.278241 
L 214.124629 67.357064 
L 214.778705 68.119163 
L 216.086859 70.277414 
L 216.740935 71.478523 
L 217.395012 72.256512 
L 218.049088 73.577257 
L 220.011318 76.594293 
L 220.665395 78.076351 
L 221.319471 79.060998 
L 223.281701 82.751485 
L 223.935778 83.708627 
L 225.898007 87.40534 
L 226.552084 88.910257 
L 229.16839 93.496975 
L 230.476543 96.14079 
L 231.784697 98.192413 
L 232.438773 99.805956 
L 233.09285 100.58557 
L 233.746926 102.086352 
L 234.401003 103.291689 
L 235.055079 104.79275 
L 236.363233 107.2779 
L 238.325462 110.866544 
L 238.979539 112.552055 
L 239.633616 113.745033 
L 240.941769 116.489854 
L 244.866228 123.731584 
L 245.520305 125.091961 
L 246.174381 125.9054 
L 246.828458 127.434058 
L 247.482535 128.328199 
L 248.136611 130.011805 
L 248.790688 130.914448 
L 250.098841 133.102806 
L 250.752917 134.142184 
L 252.061071 136.659253 
L 252.715147 137.498617 
L 255.98553 142.858585 
L 256.639607 143.812475 
L 257.293683 145.173317 
L 258.601836 147.123841 
L 259.255913 148.544431 
L 261.218143 151.377435 
L 261.872219 152.382525 
L 262.526296 153.708613 
L 263.180372 154.584821 
L 263.834449 156.12226 
L 265.142602 158.141128 
L 266.450755 160.360429 
L 267.758909 162.694767 
L 269.721138 165.746462 
L 271.029291 168.147146 
L 274.299674 173.941293 
L 275.607828 176.084258 
L 276.915981 178.572567 
L 278.224134 180.749263 
L 278.87821 182.195686 
L 280.186364 184.68 
L 280.186364 184.68 
" clip-path="url(#p76c3b3dd8b)" style="fill: none; stroke: #1f77b4; stroke-width: 2; stroke-linecap: square"/>
   </g>
   <g id="line2d_9">
    <path d="M 51.913636 157.652629 
L 52.567713 156.734537 
L 53.22179 156.12003 
L 55.184019 153.595409 
L 55.838096 152.631318 
L 56.492172 152.233013 
L 57.146249 151.318272 
L 57.800326 150.847349 
L 58.454402 149.999446 
L 59.108479 149.442985 
L 59.762555 149.057941 
L 60.416632 147.925784 
L 61.070709 147.449227 
L 63.032938 144.995621 
L 63.687015 144.709473 
L 64.341091 143.645999 
L 65.649245 142.741167 
L 66.957398 140.921546 
L 67.611474 140.412202 
L 73.498164 134.073181 
L 74.15224 133.123467 
L 75.460393 131.800172 
L 78.0767 129.073728 
L 79.384853 127.499209 
L 82.001159 124.692861 
L 83.309312 123.238466 
L 83.963389 122.060018 
L 85.925619 119.772388 
L 86.579695 118.561882 
L 87.887848 116.677366 
L 88.541925 115.62997 
L 89.850078 113.879129 
L 91.158231 111.9576 
L 93.774538 107.832426 
L 95.082691 105.465378 
L 95.736767 104.533928 
L 96.390844 103.160894 
L 97.044921 102.462209 
L 99.00715 99.095416 
L 99.661227 98.032525 
L 100.315303 97.23441 
L 100.96938 95.895426 
L 102.277533 93.640535 
L 102.93161 92.386895 
L 104.239763 90.307793 
L 105.547916 87.718521 
L 106.201993 86.752534 
L 106.856069 85.372457 
L 108.164222 83.295006 
L 110.126452 79.58776 
L 110.780529 78.656213 
L 111.434605 77.226833 
L 112.742759 75.31735 
L 113.396835 73.745309 
L 114.050912 72.931407 
L 114.704988 71.466569 
L 115.359065 70.770895 
L 116.013141 69.397084 
L 117.321295 67.270914 
L 117.975371 65.966126 
L 120.591678 62.073668 
L 121.899831 59.684859 
L 122.553907 58.889998 
L 123.86206 56.998682 
L 124.516137 56.213196 
L 125.170214 54.933035 
L 125.82429 54.292493 
L 127.132443 52.406568 
L 129.74875 48.807253 
L 131.056903 47.559734 
L 131.710979 46.561786 
L 133.019133 45.173111 
L 133.673209 44.216159 
L 134.327286 43.795754 
L 134.981362 42.896799 
L 135.635439 42.247319 
L 136.289515 41.814673 
L 136.943592 40.937868 
L 138.905822 39.369859 
L 140.868052 38.337472 
L 141.522128 37.65064 
L 142.176205 37.320678 
L 142.830281 36.615533 
L 144.792511 36.142036 
L 145.446588 35.646924 
L 146.100664 35.469435 
L 146.754741 35.089588 
L 148.062894 34.939496 
L 148.716971 34.440837 
L 151.987353 33.589971 
L 152.64143 33.74871 
L 153.295507 33.496709 
L 153.949583 33.784509 
L 154.60366 33.59342 
L 155.257736 33.71806 
L 157.219966 33.543049 
L 158.528119 33.48 
L 159.182196 33.560487 
L 160.490349 34.051033 
L 161.144426 33.813119 
L 163.760732 34.023492 
L 165.068885 34.024949 
L 165.722962 34.347624 
L 167.031115 34.605551 
L 167.685191 34.803732 
L 168.339268 34.883539 
L 168.993345 34.695898 
L 169.647421 34.791928 
L 170.301498 35.225255 
L 173.571881 35.495811 
L 174.225957 35.642795 
L 174.880034 35.399149 
L 175.53411 35.60549 
L 176.188187 35.677865 
L 177.49634 35.51626 
L 178.150417 35.870217 
L 178.804493 36.036048 
L 179.45857 35.81392 
L 180.766723 36.267551 
L 183.383029 36.368195 
L 184.037106 37.135515 
L 184.691183 37.034821 
L 185.999336 37.669632 
L 186.653412 38.08586 
L 187.307489 38.311194 
L 187.961566 38.882713 
L 188.615642 38.53133 
L 189.269719 39.165266 
L 189.923795 39.255322 
L 190.577872 39.619334 
L 191.231948 40.1773 
L 191.886025 40.410892 
L 193.848255 42.178296 
L 194.502331 42.562709 
L 197.772714 45.720828 
L 198.426791 46.602005 
L 199.080867 47.092503 
L 199.734944 47.926077 
L 200.389021 48.950303 
L 201.043097 49.561069 
L 202.35125 51.389288 
L 203.005327 52.237094 
L 203.659403 53.277496 
L 204.31348 53.980552 
L 205.621633 56.23112 
L 206.27571 56.749159 
L 206.929786 58.420047 
L 207.583863 58.966842 
L 208.23794 60.143007 
L 208.892016 61.07096 
L 210.200169 63.33338 
L 212.162399 66.640572 
L 214.778705 71.047086 
L 216.740935 74.923903 
L 218.049088 77.347004 
L 220.665395 82.34126 
L 222.627624 86.487565 
L 224.589854 90.230755 
L 228.514314 98.430296 
L 229.16839 99.591986 
L 229.822467 101.10841 
L 230.476543 102.118695 
L 235.709156 112.289602 
L 237.017309 114.90661 
L 245.520305 131.692096 
L 246.174381 132.572495 
L 247.482535 134.866051 
L 248.790688 137.191762 
L 250.098841 139.152441 
L 251.406994 141.233924 
L 254.677377 145.99352 
L 255.331454 146.873919 
L 255.98553 148.014577 
L 256.639607 148.691355 
L 258.601836 151.385255 
L 259.90999 153.41967 
L 261.218143 155.395018 
L 262.526296 156.630249 
L 263.834449 158.754185 
L 264.488526 159.414934 
L 265.796679 161.609447 
L 266.450755 162.457351 
L 267.104832 163.610929 
L 267.758909 164.129211 
L 268.412985 165.044534 
L 269.067062 165.726267 
L 269.721138 166.817331 
L 271.029291 168.608925 
L 271.683368 169.48981 
L 272.337445 170.056714 
L 273.645598 171.876481 
L 274.299674 172.629374 
L 274.953751 173.689448 
L 276.261904 175.343579 
L 277.570057 177.401503 
L 278.224134 178.225605 
L 278.87821 179.302922 
L 279.532287 179.979652 
L 280.186364 181.16898 
L 280.186364 181.16898 
" clip-path="url(#p76c3b3dd8b)" style="fill: none; stroke: #ff7f0e; stroke-width: 2; stroke-linecap: square"/>
   </g>
   <g id="patch_3">
    <path d="M 40.5 192.24 
L 40.5 25.92 
" style="fill: none; stroke: #000000; stroke-width: 0.8; stroke-linejoin: miter; stroke-linecap: square"/>
   </g>
   <g id="patch_4">
    <path d="M 291.6 192.24 
L 291.6 25.92 
" style="fill: none; stroke: #000000; stroke-width: 0.8; stroke-linejoin: miter; stroke-linecap: square"/>
   </g>
   <g id="patch_5">
    <path d="M 40.5 192.24 
L 291.6 192.24 
" style="fill: none; stroke: #000000; stroke-width: 0.8; stroke-linejoin: miter; stroke-linecap: square"/>
   </g>
   <g id="patch_6">
    <path d="M 40.5 25.92 
L 291.6 25.92 
" style="fill: none; stroke: #000000; stroke-width: 0.8; stroke-linejoin: miter; stroke-linecap: square"/>
   </g>
   <g id="legend_1">
    <g id="patch_7">
     <path d="M 129.219531 187.24 
L 202.880469 187.24 
Q 204.880469 187.24 204.880469 185.24 
L 204.880469 156.88375 
Q 204.880469 154.88375 202.880469 154.88375 
L 129.219531 154.88375 
Q 127.219531 154.88375 127.219531 156.88375 
L 127.219531 185.24 
Q 127.219531 187.24 129.219531 187.24 
z
" style="fill: #ffffff; opacity: 0.8; stroke: #cccccc; stroke-linejoin: miter"/>
    </g>
    <g id="line2d_10">
     <path d="M 131.219531 162.982188 
L 141.219531 162.982188 
L 151.219531 162.982188 
" style="fill: none; stroke: #1f77b4; stroke-width: 2; stroke-linecap: square"/>
    </g>
    <g id="text_8">
     <!-- region A -->
     <g transform="translate(159.219531 166.482188)scale(0.1 -0.1)">
      <defs>
       <path id="DejaVuSans-72" d="M 2631 2963 
Q 2534 3019 2420 3045 
Q 2306 3072 2169 3072 
Q 1681 3072 1420 2755 
Q 1159 2438 1159 1844 
L 1159 0 
L 581 0 
L 581 3500 
L 1159 3500 
L 1159 2956 
Q 1341 3275 1631 3429 
Q 1922 3584 2338 3584 
Q 2397 3584 2469 3576 
Q 2541 3569 2628 3553 
L 2631 2963 
z
" transform="scale(0.015625)"/>
       <path id="DejaVuSans-65" d="M 3597 1894 
L 3597 1613 
L 953 1613 
Q 991 1019 1311 708 
Q 1631 397 2203 397 
Q 2534 397 2845 478 
Q 3156 559 3463 722 
L 3463 178 
Q 3153 47 2828 -22 
Q 2503 -91 2169 -91 
Q 1331 -91 842 396 
Q 353 884 353 1716 
Q 353 2575 817 3079 
Q 1281 3584 2069 3584 
Q 2775 3584 3186 3129 
Q 3597 2675 3597 1894 
z
M 3022 2063 
Q 3016 2534 2758 2815 
Q 2500 3097 2075 3097 
Q 1594 3097 1305 2825 
Q 1016 2553 972 2059 
L 3022 2063 
z
" transform="scale(0.015625)"/>
       <path id="DejaVuSans-67" d="M 2906 1791 
Q 2906 2416 2648 2759 
Q 2391 3103 1925 3103 
Q 1463 3103 1205 2759 
Q 947 2416 947 1791 
Q 947 1169 1205 825 
Q 1463 481 1925 481 
Q 2391 481 2648 825 
Q 2906 1169 2906 1791 
z
M 3481 434 
Q 3481 -459 3084 -895 
Q 2688 -1331 1869 -1331 
Q 1566 -1331 1297 -1286 
Q 1028 -1241 775 -1147 
L 775 -588 
Q 1028 -725 1275 -790 
Q 1522 -856 1778 -856 
Q 2344 -856 2625 -561 
Q 2906 -266 2906 331 
L 2906 616 
Q 2728 306 2450 153 
Q 2172 0 1784 0 
Q 1141 0 747 490 
Q 353 981 353 1791 
Q 353 2603 747 3093 
Q 1141 3584 1784 3584 
Q 2172 3584 2450 3431 
Q 2728 3278 2906 2969 
L 2906 3500 
L 3481 3500 
L 3481 434 
z
" transform="scale(0.015625)"/>
       <path id="DejaVuSans-69" d="M 603 3500 
L 1178 3500 
L 1178 0 
L 603 0 
L 603 3500 
z
M 603 4863 
L 1178 4863 
L 1178 4134 
L 603 4134 
L 603 4863 
z
" transform="scale(0.015625)"/>
       <path id="DejaVuSans-6f" d="M 1959 3097 
Q 1497 3097 1228 2736 
Q 959 2375 959 1747 
Q 959 1119 1226 758 
Q 1494 397 1959 397 
Q 2419 397 2687 759 
Q 2956 1122 2956 1747 
Q 2956 2369 2687 2733 
Q 2419 3097 1959 3097 
z
M 1959 3584 
Q 2709 3584 3137 3096 
Q 3566 2609 3566 1747 
Q 3566 888 3137 398 
Q 2709 -91 1959 -91 
Q 1206 -91 779 398 
Q 353 888 353 1747 
Q 353 2609 779 3096 
Q 1206 3584 1959 3584 
z
" transform="scale(0.015625)"/>
       <path id="DejaVuSans-6e" d="M 3513 2113 
L 3513 0 
L 2938 0 
L 2938 2094 
Q 2938 2591 2744 2837 
Q 2550 3084 2163 3084 
Q 1697 3084 1428 2787 
Q 1159 2491 1159 1978 
L 1159 0 
L 581 0 
L 581 3500 
L 1159 3500 
L 1159 2956 
Q 1366 3272 1645 3428 
Q 1925 3584 2291 3584 
Q 2894 3584 3203 3211 
Q 3513 2838 3513 2113 
z
" transform="scale(0.015625)"/>
       <path id="DejaVuSans-20" transform="scale(0.015625)"/>
       <path id="DejaVuSans-41" d="M 2188 4044 
L 1331 1722 
L 3047 1722 
L 2188 4044 
z
M 1831 4666 
L 2547 4666 
L 4325 0 
L 3669 0 
L 3244 1197 
L 1141 1197 
L 716 0 
L 50 0 
L 1831 4666 
z
" transform="scale(0.015625)"/>
      </defs>
      <use xlink:href="#DejaVuSans-72"/>
      <use xlink:href="#DejaVuSans-65" x="38.863281"/>
      <use xlink:href="#DejaVuSans-67" x="100.386719"/>
      <use xlink:href="#DejaVuSans-69" x="163.863281"/>
      <use xlink:href="#DejaVuSans-6f" x="191.646484"/>
      <use xlink:href="#DejaVuSans-6e" x="252.828125"/>
      <use xlink:href="#DejaVuSans-20" x="316.207031"/>
      <use xlink:href="#DejaVuSans-41" x="347.994141"/>
     </g>
    </g>
    <g id="line2d_11">
     <path d="M 131.219531 177.660313 
L 141.219531 177.660313 
L 151.219531 177.660313 
" style="fill: none; stroke: #ff7f0e; stroke-width: 2; stroke-linecap: square"/>
    </g>
    <g id="text_9">
     <!-- region B -->
     <g transform="translate(159.219531 181.160313)scale(0.1 -0.1)">
      <defs>
       <path id="DejaVuSans-42" d="M 1259 2228 
L 1259 519 
L 2272 519 
Q 2781 519 3026 730 
Q 3272 941 3272 1375 
Q 3272 1813 3026 2020 
Q 2781 2228 2272 2228 
L 1259 2228 
z
M 1259 4147 
L 1259 2741 
L 2194 2741 
Q 2656 2741 2882 2914 
Q 3109 3088 3109 3444 
Q 3109 3797 2882 3972 
Q 2656 4147 2194 4147 
L 1259 4147 
z
M 628 4666 
L 2241 4666 
Q 2963 4666 3353 4366 
Q 3744 4066 3744 3513 
Q 3744 3084 3544 2831 
Q 3344 2578 2956 2516 
Q 3422 2416 3680 2098 
Q 3938 1781 3938 1306 
Q 3938 681 3513 340 
Q 3088 0 2303 0 
L 628 0 
L 628 4666 
z
" transform="scale(0.015625)"/>
      </defs>
      <use xlink:href="#DejaVuSans-72"/>
      <use xlink:href="#DejaVuSans-65" x="38.863281"/>
      <use xlink:href="#DejaVuSans-67" x="100.386719"/>
      <use xlink:href="#DejaVuSans-69" x="163.863281"/>
      <use xlink:href="#DejaVuSans-6f" x="191.646484"/>
      <use xlink:href="#DejaVuSans-6e" x="252.828125"/>
      <use xlink:href="#DejaVuSans-20" x="316.207031"/>
      <use xlink:href="#DejaVuSans-42" x="347.994141"/>
     </g>
    </g>
   </g>
  </g>
 </g>
 <defs>
  <clipPath id="p76c3b3dd8b">
   <rect x="40.5" y="25.92" width="251.1" height="166.32"/>
  </clipPath>
 </defs>
</svg>
