<?xml version="1.0" encoding="utf-8" standalone="no"?>
<!DOCTYPE svg PUBLIC "-//W3C//DTD SVG 1.1//EN"
  "http://www.w3.org/Graphics/SVG/1.1/DTD/svg11.dtd">
<svg xmlns:xlink="http://www.w3.org/1999/xlink" width="216pt" height="144pt" viewBox="0 0 216 144" xmlns="http://www.w3.org/2000/svg" version="1.1">
 <metadata>
  <rdf:RDF xmlns:dc="http://purl.org/dc/elements/1.1/" xmlns:cc="http://creativecommons.org/ns#" xmlns:rdf="http://www.w3.org/1999/02/22-rdf-syntax-ns#">
   <cc:Work>
    <dc:type rdf:resource="http://purl.org/dc/dcmitype/StillImage"/>
    <dc:date>2022-06-22T12:09:31.040006</dc:date>
    <dc:format>image/svg+xml</dc:format>
    <dc:creator>
     <cc:Agent>
      <dc:title>Matplotlib v3.5.1, https://matplotlib.org/</dc:title>
     </cc:Agent>
    </dc:creator>
   </cc:Work>
  </rdf:RDF>
 </metadata>
 <defs>
  <style type="text/css">*{stroke-linejoin: round; stroke-linecap: butt}</style>
 </defs>
 <g id="figure_1">
  <g id="patch_1">
   <path d="M 0 144 
L 216 144 
L 216 0 
L 0 0 
z
" style="fill: #ffffff"/>
  </g>
  <g id="axes_1">
   <g id="patch_2">
    <path d="M 27 128.16 
L 194.4 128.16 
L 194.4 17.28 
L 27 17.28 
z
" style="fill: #ffffff"/>
   </g>
   <g id="matplotlib.axis_1">
    <g id="xtick_1">
     <g id="line2d_1">
      <defs>
       <path id="m1ccb38419e" d="M 0 0 
L 0 3.5 
" style="stroke: #000000; stroke-width: 0.8"/>
      </defs>
      <g>
       <use xlink:href="#m1ccb38419e" x="34.609091" y="128.16" style="stroke: #000000; stroke-width: 0.8"/>
      </g>
     </g>
     <g id="text_1">
      <!-- 2600 -->
      <g transform="translate(18.066591 145.037969)scale(0.13 -0.13)">
       <defs>
        <path id="DejaVuSans-32" d="M 1228 531 
L 3431 531 
L 3431 0 
L 469 0 
L 469 531 
Q 828 903 1448 1529 
Q 2069 2156 2228 2338 
Q 2531 2678 2651 2914 
Q 2772 3150 2772 3378 
Q 2772 3750 2511 3984 
Q 2250 4219 1831 4219 
Q 1534 4219 1204 4116 
Q 875 4013 500 3803 
L 500 4441 
Q 881 4594 1212 4672 
Q 1544 4750 1819 4750 
Q 2544 4750 2975 4387 
Q 3406 4025 3406 3419 
Q 3406 3131 3298 2873 
Q 3191 2616 2906 2266 
Q 2828 2175 2409 1742 
Q 1991 1309 1228 531 
z
" transform="scale(0.015625)"/>
        <path id="DejaVuSans-36" d="M 2113 2584 
Q 1688 2584 1439 2293 
Q 1191 2003 1191 1497 
Q 1191 994 1439 701 
Q 1688 409 2113 409 
Q 2538 409 2786 701 
Q 3034 994 3034 1497 
Q 3034 2003 2786 2293 
Q 2538 2584 2113 2584 
z
M 3366 4563 
L 3366 3988 
Q 3128 4100 2886 4159 
Q 2644 4219 2406 4219 
Q 1781 4219 1451 3797 
Q 1122 3375 1075 2522 
Q 1259 2794 1537 2939 
Q 1816 3084 2150 3084 
Q 2853 3084 3261 2657 
Q 3669 2231 3669 1497 
Q 3669 778 3244 343 
Q 2819 -91 2113 -91 
Q 1303 -91 875 529 
Q 447 1150 447 2328 
Q 447 3434 972 4092 
Q 1497 4750 2381 4750 
Q 2619 4750 2861 4703 
Q 3103 4656 3366 4563 
z
" transform="scale(0.015625)"/>
        <path id="DejaVuSans-30" d="M 2034 4250 
Q 1547 4250 1301 3770 
Q 1056 3291 1056 2328 
Q 1056 1369 1301 889 
Q 1547 409 2034 409 
Q 2525 409 2770 889 
Q 3016 1369 3016 2328 
Q 3016 3291 2770 3770 
Q 2525 4250 2034 4250 
z
M 2034 4750 
Q 2819 4750 3233 4129 
Q 3647 3509 3647 2328 
Q 3647 1150 3233 529 
Q 2819 -91 2034 -91 
Q 1250 -91 836 529 
Q 422 1150 422 2328 
Q 422 3509 836 4129 
Q 1250 4750 2034 4750 
z
" transform="scale(0.015625)"/>
       </defs>
       <use xlink:href="#DejaVuSans-32"/>
       <use xlink:href="#DejaVuSans-36" x="63.623047"/>
       <use xlink:href="#DejaVuSans-30" x="127.246094"/>
       <use xlink:href="#DejaVuSans-30" x="190.869141"/>
      </g>
     </g>
    </g>
    <g id="xtick_2">
     <g id="line2d_2">
      <g>
       <use xlink:href="#m1ccb38419e" x="85.336364" y="128.16" style="stroke: #000000; stroke-width: 0.8"/>
      </g>
     </g>
     <g id="text_2">
      <!-- 2800 -->
      <g transform="translate(68.793864 145.037969)scale(0.13 -0.13)">
       <defs>
        <path id="DejaVuSans-38" d="M 2034 2216 
Q 1584 2216 1326 1975 
Q 1069 1734 1069 1313 
Q 1069 891 1326 650 
Q 1584 409 2034 409 
Q 2484 409 2743 651 
Q 3003 894 3003 1313 
Q 3003 1734 2745 1975 
Q 2488 2216 2034 2216 
z
M 1403 2484 
Q 997 2584 770 2862 
Q 544 3141 544 3541 
Q 544 4100 942 4425 
Q 1341 4750 2034 4750 
Q 2731 4750 3128 4425 
Q 3525 4100 3525 3541 
Q 3525 3141 3298 2862 
Q 3072 2584 2669 2484 
Q 3125 2378 3379 2068 
Q 3634 1759 3634 1313 
Q 3634 634 3220 271 
Q 2806 -91 2034 -91 
Q 1263 -91 848 271 
Q 434 634 434 1313 
Q 434 1759 690 2068 
Q 947 2378 1403 2484 
z
M 1172 3481 
Q 1172 3119 1398 2916 
Q 1625 2713 2034 2713 
Q 2441 2713 2670 2916 
Q 2900 3119 2900 3481 
Q 2900 3844 2670 4047 
Q 2441 4250 2034 4250 
Q 1625 4250 1398 4047 
Q 1172 3844 1172 3481 
z
" transform="scale(0.015625)"/>
       </defs>
       <use xlink:href="#DejaVuSans-32"/>
       <use xlink:href="#DejaVuSans-38" x="63.623047"/>
       <use xlink:href="#DejaVuSans-30" x="127.246094"/>
       <use xlink:href="#DejaVuSans-30" x="190.869141"/>
      </g>
     </g>
    </g>
    <g id="xtick_3">
     <g id="line2d_3">
      <g>
       <use xlink:href="#m1ccb38419e" x="136.063636" y="128.16" style="stroke: #000000; stroke-width: 0.8"/>
      </g>
     </g>
     <g id="text_3">
      <!-- 3000 -->
      <g transform="translate(119.521136 145.037969)scale(0.13 -0.13)">
       <defs>
        <path id="DejaVuSans-33" d="M 2597 2516 
Q 3050 2419 3304 2112 
Q 3559 1806 3559 1356 
Q 3559 666 3084 287 
Q 2609 -91 1734 -91 
Q 1441 -91 1130 -33 
Q 819 25 488 141 
L 488 750 
Q 750 597 1062 519 
Q 1375 441 1716 441 
Q 2309 441 2620 675 
Q 2931 909 2931 1356 
Q 2931 1769 2642 2001 
Q 2353 2234 1838 2234 
L 1294 2234 
L 1294 2753 
L 1863 2753 
Q 2328 2753 2575 2939 
Q 2822 3125 2822 3475 
Q 2822 3834 2567 4026 
Q 2313 4219 1838 4219 
Q 1578 4219 1281 4162 
Q 984 4106 628 3988 
L 628 4550 
Q 988 4650 1302 4700 
Q 1616 4750 1894 4750 
Q 2613 4750 3031 4423 
Q 3450 4097 3450 3541 
Q 3450 3153 3228 2886 
Q 3006 2619 2597 2516 
z
" transform="scale(0.015625)"/>
       </defs>
       <use xlink:href="#DejaVuSans-33"/>
       <use xlink:href="#DejaVuSans-30" x="63.623047"/>
       <use xlink:href="#DejaVuSans-30" x="127.246094"/>
       <use xlink:href="#DejaVuSans-30" x="190.869141"/>
      </g>
     </g>
    </g>
    <g id="xtick_4">
     <g id="line2d_4">
      <g>
       <use xlink:href="#m1ccb38419e" x="186.790909" y="128.16" style="stroke: #000000; stroke-width: 0.8"/>
      </g>
     </g>
     <g id="text_4">
      <!-- 3200 -->
      <g transform="translate(170.248409 145.037969)scale(0.13 -0.13)">
       <use xlink:href="#DejaVuSans-33"/>
       <use xlink:href="#DejaVuSans-32" x="63.623047"/>
       <use xlink:href="#DejaVuSans-30" x="127.246094"/>
       <use xlink:href="#DejaVuSans-30" x="190.869141"/>
      </g>
     </g>
    </g>
   </g>
   <g id="matplotlib.axis_2">
    <g id="ytick_1">
     <g id="line2d_5">
      <defs>
       <path id="mf5c3a8259b" d="M 0 0 
L -3.5 0 
" style="stroke: #000000; stroke-width: 0.8"/>
      </defs>
      <g>
       <use xlink:href="#mf5c3a8259b" x="27" y="122.892019" style="stroke: #000000; stroke-width: 0.8"/>
      </g>
     </g>
     <g id="text_5">
      <!-- 0.0 -->
      <g transform="translate(-0.674063 127.831004)scale(0.13 -0.13)">
       <defs>
        <path id="DejaVuSans-2e" d="M 684 794 
L 1344 794 
L 1344 0 
L 684 0 
L 684 794 
z
" transform="scale(0.015625)"/>
       </defs>
       <use xlink:href="#DejaVuSans-30"/>
       <use xlink:href="#DejaVuSans-2e" x="63.623047"/>
       <use xlink:href="#DejaVuSans-30" x="95.410156"/>
      </g>
     </g>
    </g>
    <g id="ytick_2">
     <g id="line2d_6">
      <g>
       <use xlink:href="#mf5c3a8259b" x="27" y="72.60601" style="stroke: #000000; stroke-width: 0.8"/>
      </g>
     </g>
     <g id="text_6">
      <!-- 0.5 -->
      <g transform="translate(-0.674063 77.544994)scale(0.13 -0.13)">
       <defs>
        <path id="DejaVuSans-35" d="M 691 4666 
L 3169 4666 
L 3169 4134 
L 1269 4134 
L 1269 2991 
Q 1406 3038 1543 3061 
Q 1681 3084 1819 3084 
Q 2600 3084 3056 2656 
Q 3513 2228 3513 1497 
Q 3513 744 3044 326 
Q 2575 -91 1722 -91 
Q 1428 -91 1123 -41 
Q 819 9 494 109 
L 494 744 
Q 775 591 1075 516 
Q 1375 441 1709 441 
Q 2250 441 2565 725 
Q 2881 1009 2881 1497 
Q 2881 1984 2565 2268 
Q 2250 2553 1709 2553 
Q 1456 2553 1204 2497 
Q 953 2441 691 2322 
L 691 4666 
z
" transform="scale(0.015625)"/>
       </defs>
       <use xlink:href="#DejaVuSans-30"/>
       <use xlink:href="#DejaVuSans-2e" x="63.623047"/>
       <use xlink:href="#DejaVuSans-35" x="95.410156"/>
      </g>
     </g>
    </g>
    <g id="ytick_3">
     <g id="line2d_7">
      <g>
       <use xlink:href="#mf5c3a8259b" x="27" y="22.32" style="stroke: #000000; stroke-width: 0.8"/>
      </g>
     </g>
     <g id="text_7">
      <!-- 1.0 -->
      <g transform="translate(-0.674063 27.258984)scale(0.13 -0.13)">
       <defs>
        <path id="DejaVuSans-31" d="M 794 531 
L 1825 531 
L 1825 4091 
L 703 3866 
L 703 4441 
L 1819 4666 
L 2450 4666 
L 2450 531 
L 3481 531 
L 3481 0 
L 794 0 
L 794 531 
z
" transform="scale(0.015625)"/>
       </defs>
       <use xlink:href="#DejaVuSans-31"/>
       <use xlink:href="#DejaVuSans-2e" x="63.623047"/>
       <use xlink:href="#DejaVuSans-30" x="95.410156"/>
      </g>
     </g>
    </g>
   </g>
   <g id="line2d_8">
    <path d="M 34.609091 122.628844 
L 34.913455 121.785368 
L 35.217818 122.115242 
L 35.522182 122.719561 
L 36.130909 121.745547 
L 36.435273 122.707688 
L 36.739636 122.580567 
L 37.044 122.076674 
L 37.348364 122.075483 
L 37.652727 122.534815 
L 38.261455 122.274596 
L 38.565818 122.93714 
L 38.870182 122.509192 
L 39.478909 123.002565 
L 39.783273 122.413802 
L 40.087636 122.334939 
L 40.392 122.759324 
L 40.696364 121.98295 
L 41.305091 122.518254 
L 41.609455 122.069888 
L 41.913818 122.208215 
L 42.218182 121.845244 
L 42.522545 121.933921 
L 43.131273 122.426681 
L 43.435636 122.928078 
L 44.348727 122.398794 
L 44.653091 122.873462 
L 44.957455 122.119388 
L 45.261818 122.254082 
L 46.174909 122.259133 
L 46.479273 122.553278 
L 46.783636 121.937654 
L 47.088 122.421649 
L 48.001091 122.623149 
L 48.305455 122.219736 
L 48.609818 122.660062 
L 48.914182 122.835708 
L 49.522909 122.80791 
L 49.827273 122.306805 
L 50.131636 122.629962 
L 50.436 122.2987 
L 50.740364 121.747676 
L 51.044727 120.757301 
L 51.349091 119.132666 
L 51.653455 116.243725 
L 52.262182 105.038117 
L 52.870909 86.923798 
L 53.175273 82.166079 
L 53.479636 81.858786 
L 53.784 84.581881 
L 54.088364 91.405894 
L 54.697091 108.831435 
L 55.001455 113.682642 
L 55.610182 118.519907 
L 56.218909 120.994369 
L 56.523273 121.67664 
L 57.740727 122.681313 
L 58.045091 122.035049 
L 58.349455 122.033005 
L 58.653818 121.805547 
L 58.958182 122.577289 
L 59.262545 122.481325 
L 59.871273 122.823018 
L 60.175636 122.778249 
L 60.48 122.547976 
L 60.784364 122.113943 
L 61.088727 121.938903 
L 61.393091 122.807104 
L 61.697455 122.452933 
L 62.001818 122.756162 
L 62.610545 122.621734 
L 62.914909 122.461242 
L 63.219273 122.618028 
L 63.523636 122.926046 
L 64.132364 122.287722 
L 64.436727 122.498291 
L 64.741091 122.873057 
L 65.654182 121.185064 
L 65.958545 121.222845 
L 66.262909 121.430603 
L 66.567273 122.121262 
L 67.480364 117.785514 
L 67.784727 114.522339 
L 68.393455 104.209684 
L 69.306545 69.985454 
L 69.610909 67.986588 
L 69.915273 71.468448 
L 70.219636 78.509745 
L 70.828364 104.011782 
L 71.132727 111.888062 
L 71.437091 116.195938 
L 72.045818 119.361833 
L 72.350182 119.581953 
L 72.654545 120.863997 
L 72.958909 121.229516 
L 73.263273 121.194295 
L 73.567636 121.016228 
L 73.872 121.549843 
L 74.176364 121.855293 
L 74.480727 122.383505 
L 75.089455 121.61499 
L 75.393818 122.086476 
L 75.698182 121.874403 
L 76.002545 122.532255 
L 76.611273 122.621024 
L 77.22 122.050199 
L 77.524364 122.363265 
L 77.828727 122.373368 
L 78.133091 122.662573 
L 78.437455 122.179002 
L 78.741818 122.91196 
L 79.350545 121.386976 
L 79.654909 121.803341 
L 79.959273 121.564538 
L 80.568 119.249522 
L 81.481091 110.934709 
L 81.785455 107.07688 
L 82.089818 101.679566 
L 82.394182 91.899668 
L 83.002909 59.653495 
L 83.307273 54.860894 
L 83.611636 57.500258 
L 83.916 61.734008 
L 85.133455 110.183943 
L 85.437818 114.567721 
L 86.350909 119.531864 
L 86.655273 120.838397 
L 86.959636 121.126946 
L 87.264 121.081896 
L 87.568364 121.410575 
L 87.872727 122.132294 
L 88.177091 122.361993 
L 89.394545 122.414531 
L 89.698909 121.921948 
L 90.003273 122.088917 
L 90.307636 122.562536 
L 90.612 122.15123 
L 90.916364 122.074496 
L 91.220727 122.539608 
L 91.525091 122.555765 
L 91.829455 122.684718 
L 92.742545 121.658532 
L 93.046909 121.913955 
L 93.351273 122.62744 
L 93.655636 122.287421 
L 93.96 122.724631 
L 94.264364 122.156486 
L 94.568727 121.913064 
L 95.177455 119.54566 
L 95.786182 114.514932 
L 96.090545 110.404989 
L 96.699273 96.849957 
L 97.003636 81.415164 
L 97.612364 34.334788 
L 97.916727 26.016293 
L 98.221091 27.706947 
L 98.525455 33.851357 
L 99.742909 103.143755 
L 100.047273 110.148352 
L 100.656 116.570923 
L 101.264727 121.458459 
L 101.569091 122.196172 
L 101.873455 121.667671 
L 102.177818 121.573673 
L 103.090909 122.211654 
L 103.699636 121.361434 
L 104.004 121.534966 
L 104.308364 121.899691 
L 104.612727 121.428428 
L 104.917091 121.231332 
L 105.221455 122.19045 
L 105.525818 122.281957 
L 105.830182 122.097844 
L 106.134545 122.215009 
L 106.438909 122.505752 
L 106.743273 121.866144 
L 107.047636 122.327134 
L 107.352 121.990986 
L 107.656364 122.254182 
L 107.960727 122.203726 
L 108.873818 122.691169 
L 109.178182 122.754623 
L 109.482545 122.149588 
L 109.786909 122.451919 
L 110.091273 121.812753 
L 110.395636 121.903536 
L 110.7 122.292704 
L 111.004364 122.231652 
L 111.308727 121.828139 
L 112.526182 122.355264 
L 113.134909 121.715138 
L 113.439273 121.594214 
L 113.743636 121.098419 
L 114.048 121.214867 
L 114.352364 121.957204 
L 114.961091 122.512635 
L 115.265455 122.34579 
L 115.569818 122.322931 
L 115.874182 122.482663 
L 116.178545 122.133875 
L 116.482909 122.614839 
L 116.787273 122.572909 
L 117.091636 122.275984 
L 117.700364 122.385522 
L 118.309091 121.32624 
L 118.613455 121.581639 
L 118.917818 122.313414 
L 119.526545 121.184921 
L 119.830909 120.13922 
L 120.135273 119.812342 
L 120.439636 118.49952 
L 121.048364 112.917393 
L 121.352727 108.091991 
L 121.657091 100.388511 
L 121.961455 84.031355 
L 122.570182 37.392967 
L 122.874545 27.104546 
L 123.178909 22.32 
L 123.483273 25.619383 
L 124.700727 95.112897 
L 125.309455 109.195018 
L 125.613818 113.739353 
L 126.222545 118.354877 
L 126.526909 120.156291 
L 126.831273 121.186737 
L 127.135636 121.504936 
L 127.44 122.0852 
L 127.744364 122.108186 
L 128.048727 122.516337 
L 128.353091 122.355499 
L 128.961818 122.467555 
L 129.266182 122.192579 
L 129.570545 122.455886 
L 130.179273 122.483283 
L 130.483636 122.232835 
L 130.788 122.202581 
L 131.396727 122.804243 
L 131.701091 122.475082 
L 132.005455 121.595895 
L 132.309818 121.843255 
L 132.614182 122.309011 
L 133.527273 117.106273 
L 133.831636 114.663292 
L 134.136 109.452538 
L 134.440364 100.456662 
L 135.049091 67.379544 
L 135.353455 59.269005 
L 135.657818 55.672205 
L 135.962182 56.099467 
L 137.179636 103.664371 
L 137.788364 112.521439 
L 138.092727 115.843205 
L 139.005818 121.447361 
L 139.310182 122.320571 
L 139.614545 122.231667 
L 139.918909 121.843505 
L 140.223273 122.100678 
L 140.527636 121.887699 
L 140.832 122.307727 
L 141.440727 121.8368 
L 142.353818 122.88402 
L 142.962545 122.336435 
L 143.875636 118.592824 
L 144.788727 111.587269 
L 145.093091 104.499764 
L 145.701818 78.839538 
L 146.006182 71.064863 
L 146.310545 70.90955 
L 146.614909 72.362591 
L 146.919273 80.141065 
L 147.528 102.065109 
L 147.832364 109.044931 
L 148.136727 113.119217 
L 149.354182 121.672406 
L 149.658545 122.207278 
L 149.962909 122.020446 
L 150.267273 122.016096 
L 150.571636 122.678772 
L 150.876 122.611908 
L 151.180364 121.705298 
L 151.789091 122.674553 
L 152.093455 121.99062 
L 152.397818 122.51879 
L 152.702182 122.590681 
L 153.006545 122.795671 
L 153.615273 122.548292 
L 154.224 122.12024 
L 154.528364 121.462404 
L 155.137091 118.755702 
L 155.745818 114.526824 
L 156.050182 110.88111 
L 156.354545 103.715845 
L 156.963273 84.890593 
L 157.267636 82.479673 
L 157.572 83.222337 
L 157.876364 86.3678 
L 159.093818 113.07989 
L 159.702545 118.705285 
L 160.006909 119.728528 
L 160.311273 121.407425 
L 160.615636 121.503632 
L 161.224364 122.291686 
L 161.528727 122.067061 
L 161.833091 122.585626 
L 162.137455 122.247141 
L 162.441818 122.589285 
L 162.746182 122.561526 
L 163.050545 122.247261 
L 163.354909 122.184535 
L 163.963636 122.664119 
L 164.268 122.67903 
L 164.572364 122.35393 
L 164.876727 122.258933 
L 165.181091 122.591067 
L 165.789818 122.645591 
L 166.094182 121.846255 
L 166.702909 122.821984 
L 167.007273 122.840131 
L 167.311636 121.886234 
L 167.616 122.203109 
L 167.920364 122.821953 
L 168.224727 123.043855 
L 168.529091 122.51272 
L 168.833455 122.775577 
L 169.137818 122.889865 
L 169.442182 122.423141 
L 169.746545 122.751836 
L 170.355273 122.543858 
L 170.659636 122.678556 
L 170.964 122.462345 
L 171.572727 122.477172 
L 171.877091 122.916962 
L 172.181455 122.903805 
L 172.485818 122.776302 
L 173.094545 122.225289 
L 173.398909 122.256731 
L 173.703273 123.12 
L 174.007636 122.310916 
L 174.312 122.581037 
L 174.616364 122.433032 
L 174.920727 121.865215 
L 175.225091 121.970464 
L 175.529455 122.657722 
L 176.442545 122.152588 
L 176.746909 122.522036 
L 177.051273 122.389987 
L 177.355636 122.484062 
L 177.66 122.102784 
L 177.964364 122.688404 
L 178.268727 122.573607 
L 178.573091 122.215645 
L 178.877455 122.237771 
L 179.181818 121.969188 
L 179.486182 122.494327 
L 179.790545 122.623396 
L 180.399273 122.212379 
L 180.703636 123.073034 
L 181.008 122.266826 
L 181.312364 122.444565 
L 181.616727 122.819524 
L 181.921091 122.332509 
L 182.225455 122.125457 
L 182.529818 122.281475 
L 182.834182 122.298025 
L 183.138545 122.177891 
L 183.442909 121.864648 
L 183.747273 122.757141 
L 184.356 121.832681 
L 184.660364 122.47458 
L 184.964727 122.732525 
L 185.269091 122.739361 
L 185.573455 122.535282 
L 186.182182 122.49108 
L 186.790909 122.790438 
L 186.790909 122.790438 
" clip-path="url(#p5f0383e496)" style="fill: none; stroke: #1f77b4; stroke-width: 1.5; stroke-linecap: square"/>
   </g>
   <g id="patch_3">
    <path d="M 27 128.16 
L 27 17.28 
" style="fill: none; stroke: #000000; stroke-width: 0.8; stroke-linejoin: miter; stroke-linecap: square"/>
   </g>
   <g id="patch_4">
    <path d="M 194.4 128.16 
L 194.4 17.28 
" style="fill: none; stroke: #000000; stroke-width: 0.8; stroke-linejoin: miter; stroke-linecap: square"/>
   </g>
   <g id="patch_5">
    <path d="M 27 128.16 
L 194.4 128.16 
" style="fill: none; stroke: #000000; stroke-width: 0.8; stroke-linejoin: miter; stroke-linecap: square"/>
   </g>
   <g id="patch_6">
    <path d="M 27 17.28 
L 194.4 17.28 
" style="fill: none; stroke: #000000; stroke-width: 0.8; stroke-linejoin: miter; stroke-linecap: square"/>
   </g>
  </g>
 </g>
 <defs>
  <clipPath id="p5f0383e496">
   <rect x="27" y="17.28" width="167.4" height="110.88"/>
  </clipPath>
 </defs>
</svg>
