<?xml version="1.0" encoding="utf-8" standalone="no"?>
<!DOCTYPE svg PUBLIC "-//W3C//DTD SVG 1.1//EN"
  "http://www.w3.org/Graphics/SVG/1.1/DTD/svg11.dtd">
<svg xmlns:xlink="http://www.w3.org/1999/xlink" width="216pt" height="144pt" viewBox="0 0 216 144" xmlns="http://www.w3.org/2000/svg" version="1.1">
 <metadata>
  <rdf:RDF xmlns:dc="http://purl.org/dc/elements/1.1/" xmlns:cc="http://creativecommons.org/ns#" xmlns:rdf="http://www.w3.org/1999/02/22-rdf-syntax-ns#">
   <cc:Work>
    <dc:type rdf:resource="http://purl.org/dc/dcmitype/StillImage"/>
    <dc:date>2022-04-15T11:22:27.489177</dc:date>
    <dc:format>image/svg+xml</dc:format>
    <dc:creator>
     <cc:Agent>
      <dc:title>Matplotlib v3.5.1, https://matplotlib.org/</dc:title>
     </cc:Agent>
    </dc:creator>
   </cc:Work>
  </rdf:RDF>
 </metadata>
 <defs>
  <style type="text/css">*{stroke-linejoin: round; stroke-linecap: butt}</style>
 </defs>
 <g id="figure_1">
  <g id="patch_1">
   <path d="M 0 144 
L 216 144 
L 216 0 
L 0 0 
z
" style="fill: #ffffff"/>
  </g>
  <g id="axes_1">
   <g id="patch_2">
    <path d="M 27 128.16 
L 194.4 128.16 
L 194.4 17.28 
L 27 17.28 
z
" style="fill: #ffffff"/>
   </g>
   <g id="matplotlib.axis_1">
    <g id="xtick_1">
     <g id="line2d_1">
      <defs>
       <path id="ma8125415ee" d="M 0 0 
L 0 3.5 
" style="stroke: #000000; stroke-width: 0.8"/>
      </defs>
      <g>
       <use xlink:href="#ma8125415ee" x="34.609091" y="128.16" style="stroke: #000000; stroke-width: 0.8"/>
      </g>
     </g>
     <g id="text_1">
      <!-- 2700 -->
      <g transform="translate(20.611591 143.518281)scale(0.11 -0.11)">
       <defs>
        <path id="DejaVuSans-32" d="M 1228 531 
L 3431 531 
L 3431 0 
L 469 0 
L 469 531 
Q 828 903 1448 1529 
Q 2069 2156 2228 2338 
Q 2531 2678 2651 2914 
Q 2772 3150 2772 3378 
Q 2772 3750 2511 3984 
Q 2250 4219 1831 4219 
Q 1534 4219 1204 4116 
Q 875 4013 500 3803 
L 500 4441 
Q 881 4594 1212 4672 
Q 1544 4750 1819 4750 
Q 2544 4750 2975 4387 
Q 3406 4025 3406 3419 
Q 3406 3131 3298 2873 
Q 3191 2616 2906 2266 
Q 2828 2175 2409 1742 
Q 1991 1309 1228 531 
z
" transform="scale(0.015625)"/>
        <path id="DejaVuSans-37" d="M 525 4666 
L 3525 4666 
L 3525 4397 
L 1831 0 
L 1172 0 
L 2766 4134 
L 525 4134 
L 525 4666 
z
" transform="scale(0.015625)"/>
        <path id="DejaVuSans-30" d="M 2034 4250 
Q 1547 4250 1301 3770 
Q 1056 3291 1056 2328 
Q 1056 1369 1301 889 
Q 1547 409 2034 409 
Q 2525 409 2770 889 
Q 3016 1369 3016 2328 
Q 3016 3291 2770 3770 
Q 2525 4250 2034 4250 
z
M 2034 4750 
Q 2819 4750 3233 4129 
Q 3647 3509 3647 2328 
Q 3647 1150 3233 529 
Q 2819 -91 2034 -91 
Q 1250 -91 836 529 
Q 422 1150 422 2328 
Q 422 3509 836 4129 
Q 1250 4750 2034 4750 
z
" transform="scale(0.015625)"/>
       </defs>
       <use xlink:href="#DejaVuSans-32"/>
       <use xlink:href="#DejaVuSans-37" x="63.623047"/>
       <use xlink:href="#DejaVuSans-30" x="127.246094"/>
       <use xlink:href="#DejaVuSans-30" x="190.869141"/>
      </g>
     </g>
    </g>
    <g id="xtick_2">
     <g id="line2d_2">
      <g>
       <use xlink:href="#ma8125415ee" x="72.654545" y="128.16" style="stroke: #000000; stroke-width: 0.8"/>
      </g>
     </g>
     <g id="text_2">
      <!-- 2800 -->
      <g transform="translate(58.657045 143.518281)scale(0.11 -0.11)">
       <defs>
        <path id="DejaVuSans-38" d="M 2034 2216 
Q 1584 2216 1326 1975 
Q 1069 1734 1069 1313 
Q 1069 891 1326 650 
Q 1584 409 2034 409 
Q 2484 409 2743 651 
Q 3003 894 3003 1313 
Q 3003 1734 2745 1975 
Q 2488 2216 2034 2216 
z
M 1403 2484 
Q 997 2584 770 2862 
Q 544 3141 544 3541 
Q 544 4100 942 4425 
Q 1341 4750 2034 4750 
Q 2731 4750 3128 4425 
Q 3525 4100 3525 3541 
Q 3525 3141 3298 2862 
Q 3072 2584 2669 2484 
Q 3125 2378 3379 2068 
Q 3634 1759 3634 1313 
Q 3634 634 3220 271 
Q 2806 -91 2034 -91 
Q 1263 -91 848 271 
Q 434 634 434 1313 
Q 434 1759 690 2068 
Q 947 2378 1403 2484 
z
M 1172 3481 
Q 1172 3119 1398 2916 
Q 1625 2713 2034 2713 
Q 2441 2713 2670 2916 
Q 2900 3119 2900 3481 
Q 2900 3844 2670 4047 
Q 2441 4250 2034 4250 
Q 1625 4250 1398 4047 
Q 1172 3844 1172 3481 
z
" transform="scale(0.015625)"/>
       </defs>
       <use xlink:href="#DejaVuSans-32"/>
       <use xlink:href="#DejaVuSans-38" x="63.623047"/>
       <use xlink:href="#DejaVuSans-30" x="127.246094"/>
       <use xlink:href="#DejaVuSans-30" x="190.869141"/>
      </g>
     </g>
    </g>
    <g id="xtick_3">
     <g id="line2d_3">
      <g>
       <use xlink:href="#ma8125415ee" x="110.7" y="128.16" style="stroke: #000000; stroke-width: 0.8"/>
      </g>
     </g>
     <g id="text_3">
      <!-- 2900 -->
      <g transform="translate(96.7025 143.518281)scale(0.11 -0.11)">
       <defs>
        <path id="DejaVuSans-39" d="M 703 97 
L 703 672 
Q 941 559 1184 500 
Q 1428 441 1663 441 
Q 2288 441 2617 861 
Q 2947 1281 2994 2138 
Q 2813 1869 2534 1725 
Q 2256 1581 1919 1581 
Q 1219 1581 811 2004 
Q 403 2428 403 3163 
Q 403 3881 828 4315 
Q 1253 4750 1959 4750 
Q 2769 4750 3195 4129 
Q 3622 3509 3622 2328 
Q 3622 1225 3098 567 
Q 2575 -91 1691 -91 
Q 1453 -91 1209 -44 
Q 966 3 703 97 
z
M 1959 2075 
Q 2384 2075 2632 2365 
Q 2881 2656 2881 3163 
Q 2881 3666 2632 3958 
Q 2384 4250 1959 4250 
Q 1534 4250 1286 3958 
Q 1038 3666 1038 3163 
Q 1038 2656 1286 2365 
Q 1534 2075 1959 2075 
z
" transform="scale(0.015625)"/>
       </defs>
       <use xlink:href="#DejaVuSans-32"/>
       <use xlink:href="#DejaVuSans-39" x="63.623047"/>
       <use xlink:href="#DejaVuSans-30" x="127.246094"/>
       <use xlink:href="#DejaVuSans-30" x="190.869141"/>
      </g>
     </g>
    </g>
    <g id="xtick_4">
     <g id="line2d_4">
      <g>
       <use xlink:href="#ma8125415ee" x="148.745455" y="128.16" style="stroke: #000000; stroke-width: 0.8"/>
      </g>
     </g>
     <g id="text_4">
      <!-- 3000 -->
      <g transform="translate(134.747955 143.518281)scale(0.11 -0.11)">
       <defs>
        <path id="DejaVuSans-33" d="M 2597 2516 
Q 3050 2419 3304 2112 
Q 3559 1806 3559 1356 
Q 3559 666 3084 287 
Q 2609 -91 1734 -91 
Q 1441 -91 1130 -33 
Q 819 25 488 141 
L 488 750 
Q 750 597 1062 519 
Q 1375 441 1716 441 
Q 2309 441 2620 675 
Q 2931 909 2931 1356 
Q 2931 1769 2642 2001 
Q 2353 2234 1838 2234 
L 1294 2234 
L 1294 2753 
L 1863 2753 
Q 2328 2753 2575 2939 
Q 2822 3125 2822 3475 
Q 2822 3834 2567 4026 
Q 2313 4219 1838 4219 
Q 1578 4219 1281 4162 
Q 984 4106 628 3988 
L 628 4550 
Q 988 4650 1302 4700 
Q 1616 4750 1894 4750 
Q 2613 4750 3031 4423 
Q 3450 4097 3450 3541 
Q 3450 3153 3228 2886 
Q 3006 2619 2597 2516 
z
" transform="scale(0.015625)"/>
       </defs>
       <use xlink:href="#DejaVuSans-33"/>
       <use xlink:href="#DejaVuSans-30" x="63.623047"/>
       <use xlink:href="#DejaVuSans-30" x="127.246094"/>
       <use xlink:href="#DejaVuSans-30" x="190.869141"/>
      </g>
     </g>
    </g>
    <g id="xtick_5">
     <g id="line2d_5">
      <g>
       <use xlink:href="#ma8125415ee" x="186.790909" y="128.16" style="stroke: #000000; stroke-width: 0.8"/>
      </g>
     </g>
     <g id="text_5">
      <!-- 3100 -->
      <g transform="translate(172.793409 143.518281)scale(0.11 -0.11)">
       <defs>
        <path id="DejaVuSans-31" d="M 794 531 
L 1825 531 
L 1825 4091 
L 703 3866 
L 703 4441 
L 1819 4666 
L 2450 4666 
L 2450 531 
L 3481 531 
L 3481 0 
L 794 0 
L 794 531 
z
" transform="scale(0.015625)"/>
       </defs>
       <use xlink:href="#DejaVuSans-33"/>
       <use xlink:href="#DejaVuSans-31" x="63.623047"/>
       <use xlink:href="#DejaVuSans-30" x="127.246094"/>
       <use xlink:href="#DejaVuSans-30" x="190.869141"/>
      </g>
     </g>
    </g>
   </g>
   <g id="matplotlib.axis_2">
    <g id="ytick_1">
     <g id="line2d_6">
      <defs>
       <path id="m4b2457a451" d="M 0 0 
L -3.5 0 
" style="stroke: #000000; stroke-width: 0.8"/>
      </defs>
      <g>
       <use xlink:href="#m4b2457a451" x="27" y="123.118559" style="stroke: #000000; stroke-width: 0.8"/>
      </g>
     </g>
     <g id="text_6">
      <!-- 0.00 -->
      <g transform="translate(-6.71875 127.677622)scale(0.12 -0.12)">
       <defs>
        <path id="DejaVuSans-2e" d="M 684 794 
L 1344 794 
L 1344 0 
L 684 0 
L 684 794 
z
" transform="scale(0.015625)"/>
       </defs>
       <use xlink:href="#DejaVuSans-30"/>
       <use xlink:href="#DejaVuSans-2e" x="63.623047"/>
       <use xlink:href="#DejaVuSans-30" x="95.410156"/>
       <use xlink:href="#DejaVuSans-30" x="159.033203"/>
      </g>
     </g>
    </g>
    <g id="ytick_2">
     <g id="line2d_7">
      <g>
       <use xlink:href="#m4b2457a451" x="27" y="97.918919" style="stroke: #000000; stroke-width: 0.8"/>
      </g>
     </g>
     <g id="text_7">
      <!-- 0.25 -->
      <g transform="translate(-6.71875 102.477982)scale(0.12 -0.12)">
       <defs>
        <path id="DejaVuSans-35" d="M 691 4666 
L 3169 4666 
L 3169 4134 
L 1269 4134 
L 1269 2991 
Q 1406 3038 1543 3061 
Q 1681 3084 1819 3084 
Q 2600 3084 3056 2656 
Q 3513 2228 3513 1497 
Q 3513 744 3044 326 
Q 2575 -91 1722 -91 
Q 1428 -91 1123 -41 
Q 819 9 494 109 
L 494 744 
Q 775 591 1075 516 
Q 1375 441 1709 441 
Q 2250 441 2565 725 
Q 2881 1009 2881 1497 
Q 2881 1984 2565 2268 
Q 2250 2553 1709 2553 
Q 1456 2553 1204 2497 
Q 953 2441 691 2322 
L 691 4666 
z
" transform="scale(0.015625)"/>
       </defs>
       <use xlink:href="#DejaVuSans-30"/>
       <use xlink:href="#DejaVuSans-2e" x="63.623047"/>
       <use xlink:href="#DejaVuSans-32" x="95.410156"/>
       <use xlink:href="#DejaVuSans-35" x="159.033203"/>
      </g>
     </g>
    </g>
    <g id="ytick_3">
     <g id="line2d_8">
      <g>
       <use xlink:href="#m4b2457a451" x="27" y="72.71928" style="stroke: #000000; stroke-width: 0.8"/>
      </g>
     </g>
     <g id="text_8">
      <!-- 0.50 -->
      <g transform="translate(-6.71875 77.278342)scale(0.12 -0.12)">
       <use xlink:href="#DejaVuSans-30"/>
       <use xlink:href="#DejaVuSans-2e" x="63.623047"/>
       <use xlink:href="#DejaVuSans-35" x="95.410156"/>
       <use xlink:href="#DejaVuSans-30" x="159.033203"/>
      </g>
     </g>
    </g>
    <g id="ytick_4">
     <g id="line2d_9">
      <g>
       <use xlink:href="#m4b2457a451" x="27" y="47.51964" style="stroke: #000000; stroke-width: 0.8"/>
      </g>
     </g>
     <g id="text_9">
      <!-- 0.75 -->
      <g transform="translate(-6.71875 52.078702)scale(0.12 -0.12)">
       <use xlink:href="#DejaVuSans-30"/>
       <use xlink:href="#DejaVuSans-2e" x="63.623047"/>
       <use xlink:href="#DejaVuSans-37" x="95.410156"/>
       <use xlink:href="#DejaVuSans-35" x="159.033203"/>
      </g>
     </g>
    </g>
    <g id="ytick_5">
     <g id="line2d_10">
      <g>
       <use xlink:href="#m4b2457a451" x="27" y="22.32" style="stroke: #000000; stroke-width: 0.8"/>
      </g>
     </g>
     <g id="text_10">
      <!-- 1.00 -->
      <g transform="translate(-6.71875 26.879063)scale(0.12 -0.12)">
       <use xlink:href="#DejaVuSans-31"/>
       <use xlink:href="#DejaVuSans-2e" x="63.623047"/>
       <use xlink:href="#DejaVuSans-30" x="95.410156"/>
       <use xlink:href="#DejaVuSans-30" x="159.033203"/>
      </g>
     </g>
    </g>
   </g>
   <g id="line2d_11">
    <path d="M 34.609091 123.064194 
L 35.826545 123.032299 
L 36.435273 123.082225 
L 37.348364 122.899055 
L 38.565818 123.037094 
L 39.478909 122.986429 
L 39.783273 123.106141 
L 41.000727 123.027983 
L 41.305091 122.875516 
L 42.218182 122.776627 
L 42.522545 122.6001 
L 42.826909 122.588767 
L 43.435636 122.188288 
L 43.74 122.112182 
L 44.348727 121.791232 
L 44.957455 121.556083 
L 46.174909 121.898336 
L 47.392364 122.366093 
L 48.001091 122.295765 
L 48.305455 122.150181 
L 48.914182 122.063093 
L 49.218545 121.766322 
L 50.436 121.794468 
L 51.044727 122.03154 
L 51.653455 122.415626 
L 52.566545 122.690038 
L 52.870909 122.854464 
L 54.088364 122.857322 
L 55.001455 122.909514 
L 55.914545 122.883499 
L 56.218909 122.956069 
L 57.132 122.883754 
L 57.740727 122.91982 
L 60.48 122.638282 
L 60.784364 122.82674 
L 61.088727 122.777806 
L 62.001818 122.177325 
L 62.306182 121.979095 
L 62.610545 121.919515 
L 62.914909 121.689091 
L 63.523636 120.379124 
L 64.132364 118.758694 
L 64.741091 115.8745 
L 65.654182 108.032244 
L 66.262909 99.999994 
L 66.871636 87.554196 
L 67.480364 67.141204 
L 68.089091 45.824353 
L 68.697818 33.347516 
L 69.002182 30.745738 
L 69.306545 32.17862 
L 69.610909 36.391585 
L 69.915273 44.186458 
L 71.437091 96.882305 
L 72.045818 108.08382 
L 72.654545 114.281388 
L 73.263273 118.245218 
L 74.176364 121.371049 
L 74.785091 122.047402 
L 75.089455 122.384505 
L 76.002545 122.824836 
L 76.915636 122.822408 
L 80.568 122.855057 
L 81.176727 122.758354 
L 81.785455 122.876246 
L 82.394182 123.017655 
L 83.002909 122.802447 
L 83.307273 123.01353 
L 84.524727 122.984912 
L 84.829091 122.900997 
L 85.437818 123.011797 
L 85.742182 122.907404 
L 86.046545 123.002483 
L 87.264 122.990462 
L 87.568364 123.072705 
L 88.785818 122.95211 
L 89.698909 122.882757 
L 90.003273 123.004344 
L 90.307636 122.887674 
L 90.612 122.631852 
L 90.916364 122.589886 
L 92.438182 121.827779 
L 92.742545 121.921659 
L 93.046909 121.652604 
L 93.351273 121.653779 
L 94.264364 122.138227 
L 94.873091 122.320641 
L 95.177455 122.577543 
L 96.090545 122.448353 
L 97.308 122.059333 
L 97.612364 122.080875 
L 98.221091 121.806649 
L 98.829818 121.783462 
L 99.438545 122.052722 
L 99.742909 122.369772 
L 100.351636 122.416116 
L 100.656 122.810729 
L 101.264727 122.897178 
L 101.873455 122.960794 
L 102.177818 122.856987 
L 103.090909 123.035034 
L 104.308364 123.029229 
L 104.917091 123.094917 
L 105.525818 123.077188 
L 107.352 122.975712 
L 108.265091 122.93843 
L 109.178182 122.820678 
L 109.482545 122.867759 
L 110.395636 122.374693 
L 111.004364 121.682656 
L 111.613091 121.529451 
L 111.917455 121.588316 
L 112.221818 121.454998 
L 113.134909 121.768525 
L 114.048 122.409759 
L 114.656727 122.475569 
L 116.787273 121.814819 
L 117.700364 121.814902 
L 118.004727 121.932197 
L 118.309091 122.247692 
L 118.917818 122.401556 
L 119.222182 122.647219 
L 119.526545 122.732562 
L 119.830909 122.555346 
L 120.744 122.960624 
L 122.265818 122.92717 
L 122.570182 123.062993 
L 124.700727 122.970893 
L 125.309455 123.025527 
L 128.657455 122.896064 
L 129.266182 122.533159 
L 129.874909 122.327241 
L 130.483636 121.51485 
L 130.788 120.897436 
L 131.092364 119.937407 
L 131.701091 116.869076 
L 132.309818 111.626855 
L 132.918545 103.380166 
L 133.527273 89.650653 
L 134.136 65.022286 
L 134.744727 39.182186 
L 135.049091 30.056768 
L 135.353455 24.771057 
L 135.657818 22.32 
L 135.962182 23.98265 
L 136.266545 29.490201 
L 137.484 72.965349 
L 138.092727 93.14743 
L 138.701455 105.196403 
L 139.310182 112.571639 
L 139.918909 117.226427 
L 140.527636 119.925794 
L 141.136364 121.243277 
L 141.745091 122.045241 
L 142.049455 122.420171 
L 142.353818 122.400015 
L 144.18 123.004552 
L 144.484364 122.889232 
L 145.701818 123.050837 
L 146.310545 122.716514 
L 147.223636 122.876838 
L 147.832364 123.017292 
L 148.136727 122.854887 
L 148.745455 122.929722 
L 149.049818 122.720444 
L 149.962909 123.008808 
L 152.093455 122.964826 
L 152.397818 123.12 
L 153.310909 123.010771 
L 154.224 123.076502 
L 156.963273 122.886663 
L 157.572 122.5842 
L 158.180727 122.406055 
L 158.485091 122.395901 
L 159.702545 121.746411 
L 160.006909 121.75297 
L 161.833091 122.63204 
L 163.354909 122.405651 
L 164.268 122.014203 
L 164.572364 121.784275 
L 165.485455 121.753317 
L 167.007273 122.584033 
L 167.311636 122.813934 
L 167.920364 122.794046 
L 168.529091 123.104545 
L 169.137818 122.977615 
L 170.355273 123.017007 
L 170.659636 122.952798 
L 170.964 123.050766 
L 171.877091 122.937855 
L 172.790182 122.89007 
L 174.007636 123.05648 
L 174.312 122.933792 
L 174.616364 123.103677 
L 177.355636 122.982098 
L 177.964364 123.069136 
L 182.225455 122.981416 
L 182.834182 122.927359 
L 183.442909 122.947781 
L 183.747273 122.885197 
L 184.051636 123.03532 
L 184.964727 122.916018 
L 185.877818 123.023764 
L 186.486545 123.085308 
L 186.790909 122.972584 
L 186.790909 122.972584 
" clip-path="url(#pca9a333509)" style="fill: none; stroke: #1f77b4; stroke-width: 1.5; stroke-linecap: square"/>
   </g>
   <g id="patch_3">
    <path d="M 27 128.16 
L 27 17.28 
" style="fill: none; stroke: #000000; stroke-width: 0.8; stroke-linejoin: miter; stroke-linecap: square"/>
   </g>
   <g id="patch_4">
    <path d="M 194.4 128.16 
L 194.4 17.28 
" style="fill: none; stroke: #000000; stroke-width: 0.8; stroke-linejoin: miter; stroke-linecap: square"/>
   </g>
   <g id="patch_5">
    <path d="M 27 128.16 
L 194.4 128.16 
" style="fill: none; stroke: #000000; stroke-width: 0.8; stroke-linejoin: miter; stroke-linecap: square"/>
   </g>
   <g id="patch_6">
    <path d="M 27 17.28 
L 194.4 17.28 
" style="fill: none; stroke: #000000; stroke-width: 0.8; stroke-linejoin: miter; stroke-linecap: square"/>
   </g>
  </g>
 </g>
 <defs>
  <clipPath id="pca9a333509">
   <rect x="27" y="17.28" width="167.4" height="110.88"/>
  </clipPath>
 </defs>
</svg>
