<?xml version="1.0" encoding="utf-8" standalone="no"?>
<!DOCTYPE svg PUBLIC "-//W3C//DTD SVG 1.1//EN"
  "http://www.w3.org/Graphics/SVG/1.1/DTD/svg11.dtd">
<svg xmlns:xlink="http://www.w3.org/1999/xlink" width="216pt" height="144pt" viewBox="0 0 216 144" xmlns="http://www.w3.org/2000/svg" version="1.1">
 <metadata>
  <rdf:RDF xmlns:dc="http://purl.org/dc/elements/1.1/" xmlns:cc="http://creativecommons.org/ns#" xmlns:rdf="http://www.w3.org/1999/02/22-rdf-syntax-ns#">
   <cc:Work>
    <dc:type rdf:resource="http://purl.org/dc/dcmitype/StillImage"/>
    <dc:date>2022-04-15T16:32:03.504080</dc:date>
    <dc:format>image/svg+xml</dc:format>
    <dc:creator>
     <cc:Agent>
      <dc:title>Matplotlib v3.5.1, https://matplotlib.org/</dc:title>
     </cc:Agent>
    </dc:creator>
   </cc:Work>
  </rdf:RDF>
 </metadata>
 <defs>
  <style type="text/css">*{stroke-linejoin: round; stroke-linecap: butt}</style>
 </defs>
 <g id="figure_1">
  <g id="patch_1">
   <path d="M 0 144 
L 216 144 
L 216 0 
L 0 0 
z
" style="fill: #ffffff"/>
  </g>
  <g id="axes_1">
   <g id="patch_2">
    <path d="M 27 128.16 
L 194.4 128.16 
L 194.4 17.28 
L 27 17.28 
z
" style="fill: #ffffff"/>
   </g>
   <g id="matplotlib.axis_1">
    <g id="xtick_1">
     <g id="line2d_1">
      <defs>
       <path id="m1c46ce8634" d="M 0 0 
L 0 3.5 
" style="stroke: #000000; stroke-width: 0.8"/>
      </defs>
      <g>
       <use xlink:href="#m1c46ce8634" x="34.609091" y="128.16" style="stroke: #000000; stroke-width: 0.8"/>
      </g>
     </g>
     <g id="text_1">
      <!-- 2600 -->
      <g transform="translate(20.611591 143.518281)scale(0.11 -0.11)">
       <defs>
        <path id="DejaVuSans-32" d="M 1228 531 
L 3431 531 
L 3431 0 
L 469 0 
L 469 531 
Q 828 903 1448 1529 
Q 2069 2156 2228 2338 
Q 2531 2678 2651 2914 
Q 2772 3150 2772 3378 
Q 2772 3750 2511 3984 
Q 2250 4219 1831 4219 
Q 1534 4219 1204 4116 
Q 875 4013 500 3803 
L 500 4441 
Q 881 4594 1212 4672 
Q 1544 4750 1819 4750 
Q 2544 4750 2975 4387 
Q 3406 4025 3406 3419 
Q 3406 3131 3298 2873 
Q 3191 2616 2906 2266 
Q 2828 2175 2409 1742 
Q 1991 1309 1228 531 
z
" transform="scale(0.015625)"/>
        <path id="DejaVuSans-36" d="M 2113 2584 
Q 1688 2584 1439 2293 
Q 1191 2003 1191 1497 
Q 1191 994 1439 701 
Q 1688 409 2113 409 
Q 2538 409 2786 701 
Q 3034 994 3034 1497 
Q 3034 2003 2786 2293 
Q 2538 2584 2113 2584 
z
M 3366 4563 
L 3366 3988 
Q 3128 4100 2886 4159 
Q 2644 4219 2406 4219 
Q 1781 4219 1451 3797 
Q 1122 3375 1075 2522 
Q 1259 2794 1537 2939 
Q 1816 3084 2150 3084 
Q 2853 3084 3261 2657 
Q 3669 2231 3669 1497 
Q 3669 778 3244 343 
Q 2819 -91 2113 -91 
Q 1303 -91 875 529 
Q 447 1150 447 2328 
Q 447 3434 972 4092 
Q 1497 4750 2381 4750 
Q 2619 4750 2861 4703 
Q 3103 4656 3366 4563 
z
" transform="scale(0.015625)"/>
        <path id="DejaVuSans-30" d="M 2034 4250 
Q 1547 4250 1301 3770 
Q 1056 3291 1056 2328 
Q 1056 1369 1301 889 
Q 1547 409 2034 409 
Q 2525 409 2770 889 
Q 3016 1369 3016 2328 
Q 3016 3291 2770 3770 
Q 2525 4250 2034 4250 
z
M 2034 4750 
Q 2819 4750 3233 4129 
Q 3647 3509 3647 2328 
Q 3647 1150 3233 529 
Q 2819 -91 2034 -91 
Q 1250 -91 836 529 
Q 422 1150 422 2328 
Q 422 3509 836 4129 
Q 1250 4750 2034 4750 
z
" transform="scale(0.015625)"/>
       </defs>
       <use xlink:href="#DejaVuSans-32"/>
       <use xlink:href="#DejaVuSans-36" x="63.623047"/>
       <use xlink:href="#DejaVuSans-30" x="127.246094"/>
       <use xlink:href="#DejaVuSans-30" x="190.869141"/>
      </g>
     </g>
    </g>
    <g id="xtick_2">
     <g id="line2d_2">
      <g>
       <use xlink:href="#m1c46ce8634" x="85.336364" y="128.16" style="stroke: #000000; stroke-width: 0.8"/>
      </g>
     </g>
     <g id="text_2">
      <!-- 2800 -->
      <g transform="translate(71.338864 143.518281)scale(0.11 -0.11)">
       <defs>
        <path id="DejaVuSans-38" d="M 2034 2216 
Q 1584 2216 1326 1975 
Q 1069 1734 1069 1313 
Q 1069 891 1326 650 
Q 1584 409 2034 409 
Q 2484 409 2743 651 
Q 3003 894 3003 1313 
Q 3003 1734 2745 1975 
Q 2488 2216 2034 2216 
z
M 1403 2484 
Q 997 2584 770 2862 
Q 544 3141 544 3541 
Q 544 4100 942 4425 
Q 1341 4750 2034 4750 
Q 2731 4750 3128 4425 
Q 3525 4100 3525 3541 
Q 3525 3141 3298 2862 
Q 3072 2584 2669 2484 
Q 3125 2378 3379 2068 
Q 3634 1759 3634 1313 
Q 3634 634 3220 271 
Q 2806 -91 2034 -91 
Q 1263 -91 848 271 
Q 434 634 434 1313 
Q 434 1759 690 2068 
Q 947 2378 1403 2484 
z
M 1172 3481 
Q 1172 3119 1398 2916 
Q 1625 2713 2034 2713 
Q 2441 2713 2670 2916 
Q 2900 3119 2900 3481 
Q 2900 3844 2670 4047 
Q 2441 4250 2034 4250 
Q 1625 4250 1398 4047 
Q 1172 3844 1172 3481 
z
" transform="scale(0.015625)"/>
       </defs>
       <use xlink:href="#DejaVuSans-32"/>
       <use xlink:href="#DejaVuSans-38" x="63.623047"/>
       <use xlink:href="#DejaVuSans-30" x="127.246094"/>
       <use xlink:href="#DejaVuSans-30" x="190.869141"/>
      </g>
     </g>
    </g>
    <g id="xtick_3">
     <g id="line2d_3">
      <g>
       <use xlink:href="#m1c46ce8634" x="136.063636" y="128.16" style="stroke: #000000; stroke-width: 0.8"/>
      </g>
     </g>
     <g id="text_3">
      <!-- 3000 -->
      <g transform="translate(122.066136 143.518281)scale(0.11 -0.11)">
       <defs>
        <path id="DejaVuSans-33" d="M 2597 2516 
Q 3050 2419 3304 2112 
Q 3559 1806 3559 1356 
Q 3559 666 3084 287 
Q 2609 -91 1734 -91 
Q 1441 -91 1130 -33 
Q 819 25 488 141 
L 488 750 
Q 750 597 1062 519 
Q 1375 441 1716 441 
Q 2309 441 2620 675 
Q 2931 909 2931 1356 
Q 2931 1769 2642 2001 
Q 2353 2234 1838 2234 
L 1294 2234 
L 1294 2753 
L 1863 2753 
Q 2328 2753 2575 2939 
Q 2822 3125 2822 3475 
Q 2822 3834 2567 4026 
Q 2313 4219 1838 4219 
Q 1578 4219 1281 4162 
Q 984 4106 628 3988 
L 628 4550 
Q 988 4650 1302 4700 
Q 1616 4750 1894 4750 
Q 2613 4750 3031 4423 
Q 3450 4097 3450 3541 
Q 3450 3153 3228 2886 
Q 3006 2619 2597 2516 
z
" transform="scale(0.015625)"/>
       </defs>
       <use xlink:href="#DejaVuSans-33"/>
       <use xlink:href="#DejaVuSans-30" x="63.623047"/>
       <use xlink:href="#DejaVuSans-30" x="127.246094"/>
       <use xlink:href="#DejaVuSans-30" x="190.869141"/>
      </g>
     </g>
    </g>
    <g id="xtick_4">
     <g id="line2d_4">
      <g>
       <use xlink:href="#m1c46ce8634" x="186.790909" y="128.16" style="stroke: #000000; stroke-width: 0.8"/>
      </g>
     </g>
     <g id="text_4">
      <!-- 3200 -->
      <g transform="translate(172.793409 143.518281)scale(0.11 -0.11)">
       <use xlink:href="#DejaVuSans-33"/>
       <use xlink:href="#DejaVuSans-32" x="63.623047"/>
       <use xlink:href="#DejaVuSans-30" x="127.246094"/>
       <use xlink:href="#DejaVuSans-30" x="190.869141"/>
      </g>
     </g>
    </g>
   </g>
   <g id="matplotlib.axis_2">
    <g id="ytick_1">
     <g id="line2d_5">
      <defs>
       <path id="m0c005869d2" d="M 0 0 
L -3.5 0 
" style="stroke: #000000; stroke-width: 0.8"/>
      </defs>
      <g>
       <use xlink:href="#m0c005869d2" x="27" y="122.917346" style="stroke: #000000; stroke-width: 0.8"/>
      </g>
     </g>
     <g id="text_5">
      <!-- 0.00 -->
      <g transform="translate(-6.71875 127.476408)scale(0.12 -0.12)">
       <defs>
        <path id="DejaVuSans-2e" d="M 684 794 
L 1344 794 
L 1344 0 
L 684 0 
L 684 794 
z
" transform="scale(0.015625)"/>
       </defs>
       <use xlink:href="#DejaVuSans-30"/>
       <use xlink:href="#DejaVuSans-2e" x="63.623047"/>
       <use xlink:href="#DejaVuSans-30" x="95.410156"/>
       <use xlink:href="#DejaVuSans-30" x="159.033203"/>
      </g>
     </g>
    </g>
    <g id="ytick_2">
     <g id="line2d_6">
      <g>
       <use xlink:href="#m0c005869d2" x="27" y="97.768009" style="stroke: #000000; stroke-width: 0.8"/>
      </g>
     </g>
     <g id="text_6">
      <!-- 0.25 -->
      <g transform="translate(-6.71875 102.327072)scale(0.12 -0.12)">
       <defs>
        <path id="DejaVuSans-35" d="M 691 4666 
L 3169 4666 
L 3169 4134 
L 1269 4134 
L 1269 2991 
Q 1406 3038 1543 3061 
Q 1681 3084 1819 3084 
Q 2600 3084 3056 2656 
Q 3513 2228 3513 1497 
Q 3513 744 3044 326 
Q 2575 -91 1722 -91 
Q 1428 -91 1123 -41 
Q 819 9 494 109 
L 494 744 
Q 775 591 1075 516 
Q 1375 441 1709 441 
Q 2250 441 2565 725 
Q 2881 1009 2881 1497 
Q 2881 1984 2565 2268 
Q 2250 2553 1709 2553 
Q 1456 2553 1204 2497 
Q 953 2441 691 2322 
L 691 4666 
z
" transform="scale(0.015625)"/>
       </defs>
       <use xlink:href="#DejaVuSans-30"/>
       <use xlink:href="#DejaVuSans-2e" x="63.623047"/>
       <use xlink:href="#DejaVuSans-32" x="95.410156"/>
       <use xlink:href="#DejaVuSans-35" x="159.033203"/>
      </g>
     </g>
    </g>
    <g id="ytick_3">
     <g id="line2d_7">
      <g>
       <use xlink:href="#m0c005869d2" x="27" y="72.618673" style="stroke: #000000; stroke-width: 0.8"/>
      </g>
     </g>
     <g id="text_7">
      <!-- 0.50 -->
      <g transform="translate(-6.71875 77.177735)scale(0.12 -0.12)">
       <use xlink:href="#DejaVuSans-30"/>
       <use xlink:href="#DejaVuSans-2e" x="63.623047"/>
       <use xlink:href="#DejaVuSans-35" x="95.410156"/>
       <use xlink:href="#DejaVuSans-30" x="159.033203"/>
      </g>
     </g>
    </g>
    <g id="ytick_4">
     <g id="line2d_8">
      <g>
       <use xlink:href="#m0c005869d2" x="27" y="47.469336" style="stroke: #000000; stroke-width: 0.8"/>
      </g>
     </g>
     <g id="text_8">
      <!-- 0.75 -->
      <g transform="translate(-6.71875 52.028399)scale(0.12 -0.12)">
       <defs>
        <path id="DejaVuSans-37" d="M 525 4666 
L 3525 4666 
L 3525 4397 
L 1831 0 
L 1172 0 
L 2766 4134 
L 525 4134 
L 525 4666 
z
" transform="scale(0.015625)"/>
       </defs>
       <use xlink:href="#DejaVuSans-30"/>
       <use xlink:href="#DejaVuSans-2e" x="63.623047"/>
       <use xlink:href="#DejaVuSans-37" x="95.410156"/>
       <use xlink:href="#DejaVuSans-35" x="159.033203"/>
      </g>
     </g>
    </g>
    <g id="ytick_5">
     <g id="line2d_9">
      <g>
       <use xlink:href="#m0c005869d2" x="27" y="22.32" style="stroke: #000000; stroke-width: 0.8"/>
      </g>
     </g>
     <g id="text_9">
      <!-- 1.00 -->
      <g transform="translate(-6.71875 26.879063)scale(0.12 -0.12)">
       <defs>
        <path id="DejaVuSans-31" d="M 794 531 
L 1825 531 
L 1825 4091 
L 703 3866 
L 703 4441 
L 1819 4666 
L 2450 4666 
L 2450 531 
L 3481 531 
L 3481 0 
L 794 0 
L 794 531 
z
" transform="scale(0.015625)"/>
       </defs>
       <use xlink:href="#DejaVuSans-31"/>
       <use xlink:href="#DejaVuSans-2e" x="63.623047"/>
       <use xlink:href="#DejaVuSans-30" x="95.410156"/>
       <use xlink:href="#DejaVuSans-30" x="159.033203"/>
      </g>
     </g>
    </g>
   </g>
   <g id="line2d_10">
    <path d="M 34.609091 122.795448 
L 34.913455 122.573894 
L 35.217818 122.665475 
L 35.826545 122.485389 
L 36.130909 122.658738 
L 37.044 122.803684 
L 37.348364 122.588518 
L 37.652727 122.578423 
L 37.957091 122.886356 
L 38.261455 122.164977 
L 38.565818 121.980175 
L 38.870182 122.648634 
L 39.174545 122.769525 
L 39.478909 122.635393 
L 40.087636 122.743726 
L 40.392 122.102413 
L 40.696364 122.378198 
L 41.000727 122.064982 
L 41.913818 122.395866 
L 42.522545 122.39915 
L 42.826909 122.863555 
L 43.131273 122.448073 
L 44.044364 122.884812 
L 44.348727 122.671404 
L 44.653091 122.778259 
L 44.957455 122.34896 
L 45.261818 122.354768 
L 45.566182 122.822949 
L 45.870545 122.780404 
L 46.174909 122.864296 
L 46.479273 122.077682 
L 46.783636 122.214358 
L 47.088 122.605009 
L 47.392364 122.742067 
L 47.696727 122.220627 
L 48.001091 122.2258 
L 48.305455 122.461601 
L 48.609818 122.535364 
L 48.914182 122.935111 
L 49.218545 122.298399 
L 49.522909 122.636255 
L 49.827273 122.541334 
L 50.131636 122.298866 
L 51.044727 122.28121 
L 51.349091 122.454868 
L 51.653455 122.330171 
L 51.957818 122.674137 
L 52.262182 122.42572 
L 52.870909 122.377821 
L 53.175273 121.952786 
L 53.479636 122.368284 
L 54.392727 122.595683 
L 54.697091 122.893768 
L 55.610182 122.594083 
L 55.914545 122.440543 
L 56.218909 122.536715 
L 56.523273 122.420503 
L 57.132 122.860019 
L 57.436364 122.41905 
L 57.740727 122.176316 
L 58.045091 122.605211 
L 58.653818 122.192786 
L 58.958182 122.383847 
L 59.262545 122.336866 
L 59.566909 122.554097 
L 59.871273 122.441343 
L 60.175636 122.632672 
L 60.48 121.190268 
L 60.784364 121.012399 
L 61.088727 120.337294 
L 62.001818 116.417443 
L 62.306182 113.382529 
L 62.610545 108.42623 
L 63.219273 92.273257 
L 63.523636 88.564327 
L 63.828 88.342913 
L 64.132364 90.53273 
L 65.349818 115.329069 
L 66.262909 121.505921 
L 66.567273 121.728088 
L 66.871636 121.477819 
L 67.176 122.030452 
L 67.480364 122.122313 
L 68.089091 122.664233 
L 68.697818 121.683336 
L 69.002182 121.441515 
L 69.306545 122.18968 
L 69.610909 122.594703 
L 69.915273 122.45546 
L 70.219636 122.506612 
L 70.524 122.671043 
L 71.132727 122.318361 
L 71.437091 122.726849 
L 71.741455 122.555482 
L 72.045818 122.845837 
L 72.350182 122.410452 
L 72.654545 122.596399 
L 72.958909 122.554259 
L 73.263273 122.359484 
L 73.567636 122.809539 
L 73.872 122.955565 
L 74.480727 122.017472 
L 75.393818 119.804719 
L 75.698182 118.434568 
L 76.306909 111.796182 
L 77.22 85.913598 
L 77.524364 83.662704 
L 77.828727 83.644211 
L 78.133091 89.098676 
L 78.741818 108.305342 
L 79.350545 116.291435 
L 79.654909 117.924175 
L 80.263636 119.761131 
L 80.568 119.732045 
L 80.872364 120.074611 
L 81.176727 121.222694 
L 81.481091 120.714262 
L 82.089818 120.840297 
L 82.394182 120.347395 
L 83.002909 120.16518 
L 83.307273 119.504614 
L 84.220364 113.786288 
L 84.524727 108.673364 
L 84.829091 99.43463 
L 85.437818 73.720714 
L 85.742182 69.671643 
L 86.046545 70.912786 
L 86.350909 74.221386 
L 87.264 108.816981 
L 87.568364 113.862707 
L 88.481455 120.145028 
L 88.785818 121.481592 
L 89.090182 122.221669 
L 89.394545 121.917104 
L 89.698909 122.429801 
L 90.003273 122.624809 
L 90.612 122.3816 
L 90.916364 122.635866 
L 91.525091 122.030054 
L 91.829455 121.97616 
L 92.133818 122.150773 
L 92.438182 122.744143 
L 92.742545 122.887069 
L 93.046909 122.377171 
L 93.351273 122.286172 
L 93.655636 122.351985 
L 93.96 121.743898 
L 94.264364 121.80464 
L 94.568727 122.332169 
L 94.873091 122.535395 
L 95.481818 121.06309 
L 96.090545 117.814472 
L 96.394909 114.903103 
L 96.699273 110.688609 
L 97.003636 104.354048 
L 97.308 94.138478 
L 98.221091 38.868807 
L 98.525455 35.288107 
L 98.829818 37.031647 
L 99.134182 49.276782 
L 99.742909 89.731039 
L 100.047273 101.414831 
L 100.656 112.849363 
L 101.264727 119.04726 
L 101.873455 121.598656 
L 102.786545 122.565564 
L 103.090909 122.25713 
L 103.395273 122.535893 
L 103.699636 122.586806 
L 104.004 122.361747 
L 104.308364 122.320537 
L 105.221455 121.513974 
L 105.525818 121.613081 
L 105.830182 122.025637 
L 106.134545 121.695831 
L 106.438909 122.577937 
L 106.743273 122.87619 
L 107.047636 122.38297 
L 107.352 122.534739 
L 107.656364 122.817119 
L 107.960727 122.848225 
L 108.265091 122.448823 
L 108.569455 122.609952 
L 108.873818 122.440879 
L 109.482545 122.59117 
L 110.091273 122.386176 
L 110.395636 122.555678 
L 110.7 121.445179 
L 111.004364 121.648196 
L 111.308727 121.485694 
L 111.613091 122.072587 
L 111.917455 121.903807 
L 112.221818 121.937608 
L 112.526182 122.16272 
L 112.830545 121.576858 
L 113.134909 121.346476 
L 113.743636 119.856954 
L 114.048 117.86315 
L 114.352364 115.007188 
L 114.961091 106.386201 
L 115.265455 99.094119 
L 115.569818 86.504466 
L 116.178545 38.709111 
L 116.482909 24.222356 
L 116.787273 22.32 
L 117.091636 25.575706 
L 117.396 42.525693 
L 118.004727 86.4473 
L 118.613455 108.080567 
L 118.917818 112.935316 
L 119.526545 117.900459 
L 120.135273 121.278306 
L 120.439636 121.819202 
L 120.744 122.126528 
L 121.048364 122.651427 
L 121.961455 122.723026 
L 122.265818 122.128411 
L 122.570182 122.160149 
L 122.874545 122.444858 
L 123.483273 122.16032 
L 123.787636 122.30487 
L 124.092 122.145391 
L 124.396364 122.186318 
L 124.700727 121.916376 
L 125.309455 120.057379 
L 125.613818 118.301856 
L 125.918182 115.561854 
L 126.222545 111.767697 
L 126.526909 106.353094 
L 126.831273 97.196771 
L 127.44 63.962203 
L 127.744364 56.674665 
L 128.048727 59.119868 
L 128.353091 59.761588 
L 128.657455 70.647897 
L 129.266182 100.462205 
L 129.570545 108.841366 
L 130.179273 115.79533 
L 130.483636 118.846767 
L 131.092364 120.961567 
L 131.396727 120.938617 
L 131.701091 120.788146 
L 132.005455 120.8078 
L 132.309818 120.427611 
L 132.614182 119.858339 
L 133.527273 114.662618 
L 133.831636 108.973294 
L 134.440364 89.306832 
L 135.049091 83.713389 
L 135.353455 83.689567 
L 135.657818 90.493948 
L 136.266545 109.537233 
L 137.179636 117.466101 
L 138.092727 121.152582 
L 138.397091 122.046268 
L 138.701455 122.007689 
L 139.005818 122.308294 
L 139.310182 122.766297 
L 139.614545 122.483761 
L 139.918909 122.365915 
L 140.223273 122.610354 
L 140.527636 122.466448 
L 140.832 122.476166 
L 141.136364 122.709984 
L 141.440727 122.590108 
L 141.745091 122.790745 
L 142.049455 122.506107 
L 142.658182 120.865243 
L 143.571273 116.427889 
L 143.875636 113.246277 
L 144.18 106.970684 
L 144.788727 90.572125 
L 145.093091 87.518493 
L 145.397455 87.436867 
L 145.701818 90.788913 
L 146.614909 112.226076 
L 147.223636 117.777779 
L 147.528 119.07373 
L 148.745455 121.859101 
L 149.049818 122.153618 
L 149.354182 121.881631 
L 149.658545 122.031673 
L 149.962909 122.591117 
L 150.267273 122.511841 
L 150.876 122.617706 
L 151.180364 122.316269 
L 151.484727 122.236623 
L 151.789091 122.664497 
L 152.093455 122.326753 
L 152.397818 122.2751 
L 152.702182 122.998693 
L 153.006545 123.04873 
L 153.310909 122.909612 
L 153.615273 122.379409 
L 153.919636 122.629749 
L 154.224 122.660584 
L 154.528364 122.995686 
L 154.832727 122.794819 
L 155.137091 122.878801 
L 155.745818 122.53678 
L 156.050182 121.98269 
L 156.658909 123.12 
L 157.572 122.438383 
L 157.876364 122.48194 
L 158.180727 122.011023 
L 158.485091 122.349563 
L 158.789455 122.0669 
L 159.093818 122.537758 
L 159.398182 122.614833 
L 159.702545 122.816755 
L 160.311273 122.72382 
L 160.615636 122.259726 
L 161.224364 122.705996 
L 161.528727 122.021491 
L 161.833091 122.34689 
L 162.137455 122.164351 
L 162.441818 122.539741 
L 162.746182 122.610696 
L 163.354909 122.490621 
L 163.659273 122.645799 
L 163.963636 122.94247 
L 164.268 122.268286 
L 164.572364 122.445707 
L 164.876727 122.334594 
L 165.181091 122.073623 
L 165.485455 122.202582 
L 165.789818 122.455164 
L 166.094182 122.864853 
L 166.702909 122.548055 
L 167.007273 122.471263 
L 167.311636 122.668547 
L 167.616 122.583982 
L 167.920364 122.785114 
L 168.224727 122.77307 
L 168.529091 122.637565 
L 169.137818 122.823127 
L 169.442182 122.332054 
L 169.746545 122.147256 
L 170.050909 122.561636 
L 170.355273 122.786661 
L 170.659636 122.64178 
L 170.964 122.07598 
L 171.268364 122.111649 
L 171.877091 122.935628 
L 172.485818 121.922051 
L 172.790182 122.189073 
L 173.094545 122.657388 
L 174.007636 122.768426 
L 174.312 122.890702 
L 174.616364 122.50738 
L 174.920727 122.656886 
L 175.225091 122.934218 
L 175.529455 122.944969 
L 176.138182 122.627636 
L 176.442545 122.686402 
L 176.746909 122.934224 
L 177.051273 122.80238 
L 177.355636 122.506923 
L 177.964364 122.854497 
L 178.268727 122.230883 
L 178.877455 122.47864 
L 179.181818 122.672503 
L 179.790545 122.684104 
L 180.094909 122.277089 
L 180.399273 122.414194 
L 180.703636 122.918439 
L 181.008 121.991144 
L 181.312364 122.360735 
L 181.616727 122.285876 
L 181.921091 122.765248 
L 182.225455 122.436385 
L 182.529818 121.922306 
L 182.834182 121.844758 
L 183.138545 122.345676 
L 184.356 122.774624 
L 184.660364 122.087892 
L 185.269091 122.596916 
L 185.877818 122.408625 
L 186.182182 122.907302 
L 186.486545 122.825362 
L 186.790909 122.320412 
L 186.790909 122.320412 
" clip-path="url(#p9a93bfef5c)" style="fill: none; stroke: #1f77b4; stroke-width: 1.5; stroke-linecap: square"/>
   </g>
   <g id="patch_3">
    <path d="M 27 128.16 
L 27 17.28 
" style="fill: none; stroke: #000000; stroke-width: 0.8; stroke-linejoin: miter; stroke-linecap: square"/>
   </g>
   <g id="patch_4">
    <path d="M 194.4 128.16 
L 194.4 17.28 
" style="fill: none; stroke: #000000; stroke-width: 0.8; stroke-linejoin: miter; stroke-linecap: square"/>
   </g>
   <g id="patch_5">
    <path d="M 27 128.16 
L 194.4 128.16 
" style="fill: none; stroke: #000000; stroke-width: 0.8; stroke-linejoin: miter; stroke-linecap: square"/>
   </g>
   <g id="patch_6">
    <path d="M 27 17.28 
L 194.4 17.28 
" style="fill: none; stroke: #000000; stroke-width: 0.8; stroke-linejoin: miter; stroke-linecap: square"/>
   </g>
  </g>
 </g>
 <defs>
  <clipPath id="p9a93bfef5c">
   <rect x="27" y="17.28" width="167.4" height="110.88"/>
  </clipPath>
 </defs>
</svg>
