<?xml version="1.0" encoding="utf-8" standalone="no"?>
<!DOCTYPE svg PUBLIC "-//W3C//DTD SVG 1.1//EN"
  "http://www.w3.org/Graphics/SVG/1.1/DTD/svg11.dtd">
<svg xmlns:xlink="http://www.w3.org/1999/xlink" width="216pt" height="144pt" viewBox="0 0 216 144" xmlns="http://www.w3.org/2000/svg" version="1.1">
 <metadata>
  <rdf:RDF xmlns:dc="http://purl.org/dc/elements/1.1/" xmlns:cc="http://creativecommons.org/ns#" xmlns:rdf="http://www.w3.org/1999/02/22-rdf-syntax-ns#">
   <cc:Work>
    <dc:type rdf:resource="http://purl.org/dc/dcmitype/StillImage"/>
    <dc:date>2022-04-15T12:18:24.256664</dc:date>
    <dc:format>image/svg+xml</dc:format>
    <dc:creator>
     <cc:Agent>
      <dc:title>Matplotlib v3.5.1, https://matplotlib.org/</dc:title>
     </cc:Agent>
    </dc:creator>
   </cc:Work>
  </rdf:RDF>
 </metadata>
 <defs>
  <style type="text/css">*{stroke-linejoin: round; stroke-linecap: butt}</style>
 </defs>
 <g id="figure_1">
  <g id="patch_1">
   <path d="M 0 144 
L 216 144 
L 216 0 
L 0 0 
z
" style="fill: #ffffff"/>
  </g>
  <g id="axes_1">
   <g id="patch_2">
    <path d="M 27 128.16 
L 194.4 128.16 
L 194.4 17.28 
L 27 17.28 
z
" style="fill: #ffffff"/>
   </g>
   <g id="matplotlib.axis_1">
    <g id="xtick_1">
     <g id="line2d_1">
      <defs>
       <path id="m96ee5771ed" d="M 0 0 
L 0 3.5 
" style="stroke: #000000; stroke-width: 0.8"/>
      </defs>
      <g>
       <use xlink:href="#m96ee5771ed" x="31.150413" y="128.16" style="stroke: #000000; stroke-width: 0.8"/>
      </g>
     </g>
     <g id="text_1">
      <!-- 0 -->
      <g transform="translate(27.651038 143.518281)scale(0.11 -0.11)">
       <defs>
        <path id="DejaVuSans-30" d="M 2034 4250 
Q 1547 4250 1301 3770 
Q 1056 3291 1056 2328 
Q 1056 1369 1301 889 
Q 1547 409 2034 409 
Q 2525 409 2770 889 
Q 3016 1369 3016 2328 
Q 3016 3291 2770 3770 
Q 2525 4250 2034 4250 
z
M 2034 4750 
Q 2819 4750 3233 4129 
Q 3647 3509 3647 2328 
Q 3647 1150 3233 529 
Q 2819 -91 2034 -91 
Q 1250 -91 836 529 
Q 422 1150 422 2328 
Q 422 3509 836 4129 
Q 1250 4750 2034 4750 
z
" transform="scale(0.015625)"/>
       </defs>
       <use xlink:href="#DejaVuSans-30"/>
      </g>
     </g>
    </g>
    <g id="xtick_2">
     <g id="line2d_2">
      <g>
       <use xlink:href="#m96ee5771ed" x="80.844058" y="128.16" style="stroke: #000000; stroke-width: 0.8"/>
      </g>
     </g>
     <g id="text_2">
      <!-- 20 -->
      <g transform="translate(73.845308 143.518281)scale(0.11 -0.11)">
       <defs>
        <path id="DejaVuSans-32" d="M 1228 531 
L 3431 531 
L 3431 0 
L 469 0 
L 469 531 
Q 828 903 1448 1529 
Q 2069 2156 2228 2338 
Q 2531 2678 2651 2914 
Q 2772 3150 2772 3378 
Q 2772 3750 2511 3984 
Q 2250 4219 1831 4219 
Q 1534 4219 1204 4116 
Q 875 4013 500 3803 
L 500 4441 
Q 881 4594 1212 4672 
Q 1544 4750 1819 4750 
Q 2544 4750 2975 4387 
Q 3406 4025 3406 3419 
Q 3406 3131 3298 2873 
Q 3191 2616 2906 2266 
Q 2828 2175 2409 1742 
Q 1991 1309 1228 531 
z
" transform="scale(0.015625)"/>
       </defs>
       <use xlink:href="#DejaVuSans-32"/>
       <use xlink:href="#DejaVuSans-30" x="63.623047"/>
      </g>
     </g>
    </g>
    <g id="xtick_3">
     <g id="line2d_3">
      <g>
       <use xlink:href="#m96ee5771ed" x="130.537703" y="128.16" style="stroke: #000000; stroke-width: 0.8"/>
      </g>
     </g>
     <g id="text_3">
      <!-- 40 -->
      <g transform="translate(123.538953 143.518281)scale(0.11 -0.11)">
       <defs>
        <path id="DejaVuSans-34" d="M 2419 4116 
L 825 1625 
L 2419 1625 
L 2419 4116 
z
M 2253 4666 
L 3047 4666 
L 3047 1625 
L 3713 1625 
L 3713 1100 
L 3047 1100 
L 3047 0 
L 2419 0 
L 2419 1100 
L 313 1100 
L 313 1709 
L 2253 4666 
z
" transform="scale(0.015625)"/>
       </defs>
       <use xlink:href="#DejaVuSans-34"/>
       <use xlink:href="#DejaVuSans-30" x="63.623047"/>
      </g>
     </g>
    </g>
    <g id="xtick_4">
     <g id="line2d_4">
      <g>
       <use xlink:href="#m96ee5771ed" x="180.231348" y="128.16" style="stroke: #000000; stroke-width: 0.8"/>
      </g>
     </g>
     <g id="text_4">
      <!-- 60 -->
      <g transform="translate(173.232598 143.518281)scale(0.11 -0.11)">
       <defs>
        <path id="DejaVuSans-36" d="M 2113 2584 
Q 1688 2584 1439 2293 
Q 1191 2003 1191 1497 
Q 1191 994 1439 701 
Q 1688 409 2113 409 
Q 2538 409 2786 701 
Q 3034 994 3034 1497 
Q 3034 2003 2786 2293 
Q 2538 2584 2113 2584 
z
M 3366 4563 
L 3366 3988 
Q 3128 4100 2886 4159 
Q 2644 4219 2406 4219 
Q 1781 4219 1451 3797 
Q 1122 3375 1075 2522 
Q 1259 2794 1537 2939 
Q 1816 3084 2150 3084 
Q 2853 3084 3261 2657 
Q 3669 2231 3669 1497 
Q 3669 778 3244 343 
Q 2819 -91 2113 -91 
Q 1303 -91 875 529 
Q 447 1150 447 2328 
Q 447 3434 972 4092 
Q 1497 4750 2381 4750 
Q 2619 4750 2861 4703 
Q 3103 4656 3366 4563 
z
" transform="scale(0.015625)"/>
       </defs>
       <use xlink:href="#DejaVuSans-36"/>
       <use xlink:href="#DejaVuSans-30" x="63.623047"/>
      </g>
     </g>
    </g>
   </g>
   <g id="matplotlib.axis_2">
    <g id="ytick_1">
     <g id="line2d_5">
      <defs>
       <path id="m88221c112e" d="M 0 0 
L -3.5 0 
" style="stroke: #000000; stroke-width: 0.8"/>
      </defs>
      <g>
       <use xlink:href="#m88221c112e" x="27" y="103.796882" style="stroke: #000000; stroke-width: 0.8"/>
      </g>
     </g>
     <g id="text_5">
      <!-- 0.9925 -->
      <g transform="translate(-21.98875 108.355945)scale(0.12 -0.12)">
       <defs>
        <path id="DejaVuSans-2e" d="M 684 794 
L 1344 794 
L 1344 0 
L 684 0 
L 684 794 
z
" transform="scale(0.015625)"/>
        <path id="DejaVuSans-39" d="M 703 97 
L 703 672 
Q 941 559 1184 500 
Q 1428 441 1663 441 
Q 2288 441 2617 861 
Q 2947 1281 2994 2138 
Q 2813 1869 2534 1725 
Q 2256 1581 1919 1581 
Q 1219 1581 811 2004 
Q 403 2428 403 3163 
Q 403 3881 828 4315 
Q 1253 4750 1959 4750 
Q 2769 4750 3195 4129 
Q 3622 3509 3622 2328 
Q 3622 1225 3098 567 
Q 2575 -91 1691 -91 
Q 1453 -91 1209 -44 
Q 966 3 703 97 
z
M 1959 2075 
Q 2384 2075 2632 2365 
Q 2881 2656 2881 3163 
Q 2881 3666 2632 3958 
Q 2384 4250 1959 4250 
Q 1534 4250 1286 3958 
Q 1038 3666 1038 3163 
Q 1038 2656 1286 2365 
Q 1534 2075 1959 2075 
z
" transform="scale(0.015625)"/>
        <path id="DejaVuSans-35" d="M 691 4666 
L 3169 4666 
L 3169 4134 
L 1269 4134 
L 1269 2991 
Q 1406 3038 1543 3061 
Q 1681 3084 1819 3084 
Q 2600 3084 3056 2656 
Q 3513 2228 3513 1497 
Q 3513 744 3044 326 
Q 2575 -91 1722 -91 
Q 1428 -91 1123 -41 
Q 819 9 494 109 
L 494 744 
Q 775 591 1075 516 
Q 1375 441 1709 441 
Q 2250 441 2565 725 
Q 2881 1009 2881 1497 
Q 2881 1984 2565 2268 
Q 2250 2553 1709 2553 
Q 1456 2553 1204 2497 
Q 953 2441 691 2322 
L 691 4666 
z
" transform="scale(0.015625)"/>
       </defs>
       <use xlink:href="#DejaVuSans-30"/>
       <use xlink:href="#DejaVuSans-2e" x="63.623047"/>
       <use xlink:href="#DejaVuSans-39" x="95.410156"/>
       <use xlink:href="#DejaVuSans-39" x="159.033203"/>
       <use xlink:href="#DejaVuSans-32" x="222.65625"/>
       <use xlink:href="#DejaVuSans-35" x="286.279297"/>
      </g>
     </g>
    </g>
    <g id="ytick_2">
     <g id="line2d_6">
      <g>
       <use xlink:href="#m88221c112e" x="27" y="76.637921" style="stroke: #000000; stroke-width: 0.8"/>
      </g>
     </g>
     <g id="text_6">
      <!-- 0.9950 -->
      <g transform="translate(-21.98875 81.196984)scale(0.12 -0.12)">
       <use xlink:href="#DejaVuSans-30"/>
       <use xlink:href="#DejaVuSans-2e" x="63.623047"/>
       <use xlink:href="#DejaVuSans-39" x="95.410156"/>
       <use xlink:href="#DejaVuSans-39" x="159.033203"/>
       <use xlink:href="#DejaVuSans-35" x="222.65625"/>
       <use xlink:href="#DejaVuSans-30" x="286.279297"/>
      </g>
     </g>
    </g>
    <g id="ytick_3">
     <g id="line2d_7">
      <g>
       <use xlink:href="#m88221c112e" x="27" y="49.478961" style="stroke: #000000; stroke-width: 0.8"/>
      </g>
     </g>
     <g id="text_7">
      <!-- 0.9975 -->
      <g transform="translate(-21.98875 54.038023)scale(0.12 -0.12)">
       <defs>
        <path id="DejaVuSans-37" d="M 525 4666 
L 3525 4666 
L 3525 4397 
L 1831 0 
L 1172 0 
L 2766 4134 
L 525 4134 
L 525 4666 
z
" transform="scale(0.015625)"/>
       </defs>
       <use xlink:href="#DejaVuSans-30"/>
       <use xlink:href="#DejaVuSans-2e" x="63.623047"/>
       <use xlink:href="#DejaVuSans-39" x="95.410156"/>
       <use xlink:href="#DejaVuSans-39" x="159.033203"/>
       <use xlink:href="#DejaVuSans-37" x="222.65625"/>
       <use xlink:href="#DejaVuSans-35" x="286.279297"/>
      </g>
     </g>
    </g>
    <g id="ytick_4">
     <g id="line2d_8">
      <g>
       <use xlink:href="#m88221c112e" x="27" y="22.32" style="stroke: #000000; stroke-width: 0.8"/>
      </g>
     </g>
     <g id="text_8">
      <!-- 1.0000 -->
      <g transform="translate(-21.98875 26.879062)scale(0.12 -0.12)">
       <defs>
        <path id="DejaVuSans-31" d="M 794 531 
L 1825 531 
L 1825 4091 
L 703 3866 
L 703 4441 
L 1819 4666 
L 2450 4666 
L 2450 531 
L 3481 531 
L 3481 0 
L 794 0 
L 794 531 
z
" transform="scale(0.015625)"/>
       </defs>
       <use xlink:href="#DejaVuSans-31"/>
       <use xlink:href="#DejaVuSans-2e" x="63.623047"/>
       <use xlink:href="#DejaVuSans-30" x="95.410156"/>
       <use xlink:href="#DejaVuSans-30" x="159.033203"/>
       <use xlink:href="#DejaVuSans-30" x="222.65625"/>
       <use xlink:href="#DejaVuSans-30" x="286.279297"/>
      </g>
     </g>
    </g>
   </g>
   <g id="line2d_9">
    <path d="M 186.790909 123.12 
L 186.214463 122.5556 
L 185.638017 121.629523 
L 185.06157 121.89721 
L 184.485124 122.036352 
L 183.908678 120.385079 
L 183.332231 122.186551 
L 182.755785 122.024373 
L 182.179339 120.662902 
L 181.602893 120.772096 
L 181.026446 120.239947 
L 180.45 120.704829 
L 179.873554 119.457159 
L 179.297107 119.648364 
L 178.720661 118.898748 
L 178.144215 116.823599 
L 176.991322 116.62364 
L 176.414876 117.129527 
L 175.83843 116.179031 
L 174.109091 114.390459 
L 173.532645 114.494585 
L 172.956198 113.805787 
L 172.379752 112.60972 
L 171.803306 112.466892 
L 171.22686 111.820481 
L 170.650413 111.608543 
L 170.073967 110.878739 
L 169.497521 111.179599 
L 168.921074 109.996893 
L 167.768182 108.236886 
L 167.191736 109.021057 
L 166.615289 107.368862 
L 166.038843 108.485222 
L 165.462397 107.138955 
L 164.88595 107.429679 
L 163.733058 105.113105 
L 163.156612 104.100871 
L 162.580165 105.362823 
L 162.003719 104.18795 
L 161.427273 104.541794 
L 160.850826 103.466439 
L 160.27438 102.904803 
L 159.697934 101.981491 
L 159.121488 101.895794 
L 158.545041 100.493779 
L 157.968595 100.696041 
L 156.815702 98.882589 
L 156.239256 97.4345 
L 155.66281 98.003968 
L 155.086364 97.48472 
L 154.509917 96.696864 
L 153.933471 96.396465 
L 153.357025 95.08291 
L 152.780579 94.68161 
L 152.204132 94.039807 
L 151.627686 92.631341 
L 151.05124 92.018103 
L 150.474793 90.838161 
L 149.898347 91.370771 
L 149.321901 89.225129 
L 148.745455 89.385925 
L 148.169008 90.177468 
L 147.592562 88.722007 
L 147.016116 88.446027 
L 146.439669 88.838112 
L 145.863223 86.85557 
L 145.286777 86.69201 
L 144.710331 85.250831 
L 144.133884 85.207983 
L 143.557438 84.217864 
L 142.980992 84.247812 
L 142.404545 82.592853 
L 141.828099 83.546574 
L 140.675207 81.26778 
L 140.09876 81.137392 
L 138.945868 80.256928 
L 137.792975 78.542995 
L 137.216529 77.372729 
L 136.640083 76.771009 
L 136.063636 77.234508 
L 135.48719 75.896535 
L 134.334298 74.454435 
L 133.757851 73.14687 
L 132.604959 74.341555 
L 132.028512 74.383942 
L 131.452066 72.893926 
L 130.87562 71.959556 
L 130.299174 71.369816 
L 129.722727 71.082778 
L 129.146281 70.980956 
L 128.569835 70.651991 
L 127.993388 68.21793 
L 127.416942 67.458639 
L 126.840496 66.467138 
L 126.26405 64.979426 
L 125.687603 65.236516 
L 125.111157 64.767027 
L 124.534711 65.616622 
L 123.958264 65.027342 
L 123.381818 64.210459 
L 122.805372 63.739128 
L 122.228926 63.916971 
L 121.652479 62.782643 
L 121.076033 62.378118 
L 119.92314 61.939037 
L 119.346694 60.584938 
L 118.770248 60.421838 
L 118.193802 59.094461 
L 117.617355 58.110793 
L 117.040909 58.393684 
L 116.464463 57.8772 
L 115.888017 57.622414 
L 115.31157 57.665723 
L 114.735124 56.255414 
L 114.158678 56.20289 
L 113.582231 55.347306 
L 113.005785 55.310908 
L 112.429339 54.104704 
L 111.852893 53.799698 
L 111.276446 53.90106 
L 110.7 53.776661 
L 110.123554 53.296576 
L 108.394215 51.438433 
L 107.817769 49.695013 
L 107.241322 51.029761 
L 106.664876 49.884375 
L 106.08843 50.080187 
L 105.511983 48.785062 
L 104.935537 49.426404 
L 104.359091 49.098361 
L 103.206198 47.930859 
L 102.629752 47.603277 
L 102.053306 47.671466 
L 101.47686 47.616638 
L 100.900413 45.822077 
L 100.323967 47.217642 
L 99.747521 47.261412 
L 99.171074 46.925536 
L 98.594628 46.907107 
L 98.018182 46.133533 
L 96.865289 46.197115 
L 96.288843 46.193429 
L 95.712397 46.827861 
L 95.13595 46.647253 
L 93.983058 45.816548 
L 93.406612 47.54845 
L 92.830165 46.971149 
L 92.253719 47.219946 
L 91.677273 46.857808 
L 91.100826 47.763613 
L 90.52438 48.126211 
L 89.947934 48.340453 
L 89.371488 48.309583 
L 88.795041 48.443196 
L 88.218595 47.916116 
L 87.642149 48.38284 
L 87.065702 47.036113 
L 86.489256 47.107527 
L 85.91281 48.094881 
L 84.759917 46.537598 
L 84.183471 46.091607 
L 83.607025 45.83636 
L 83.030579 45.40419 
L 82.454132 45.400965 
L 81.877686 45.670495 
L 81.30124 44.696041 
L 80.724793 44.512208 
L 80.148347 44.753172 
L 79.571901 44.155139 
L 78.995455 44.109526 
L 78.419008 42.816704 
L 77.842562 41.805392 
L 77.266116 42.042209 
L 76.113223 41.003253 
L 75.536777 40.096066 
L 74.960331 40.246265 
L 74.383884 39.630263 
L 73.807438 39.785531 
L 73.230992 38.325463 
L 72.654545 37.46481 
L 72.078099 36.019025 
L 71.501653 34.982372 
L 70.925207 33.050972 
L 70.34876 33.492816 
L 69.772314 30.929288 
L 69.195868 31.229687 
L 68.619421 30.617832 
L 68.042975 29.301052 
L 67.466529 28.577699 
L 66.890083 29.196465 
L 66.313636 27.465946 
L 65.73719 27.936817 
L 65.160744 26.887263 
L 64.584298 27.199641 
L 64.007851 27.378867 
L 63.431405 25.338273 
L 62.854959 26.582257 
L 62.278512 25.739112 
L 61.702066 24.194729 
L 61.12562 25.400472 
L 60.549174 24.630124 
L 59.972727 23.617429 
L 59.396281 23.684696 
L 58.819835 23.016631 
L 58.243388 23.827985 
L 57.666942 23.388444 
L 57.090496 22.32 
L 56.51405 23.836278 
L 55.937603 24.137138 
L 55.361157 24.249557 
L 54.784711 24.225138 
L 54.208264 23.986477 
L 53.631818 24.616762 
L 53.055372 23.738141 
L 51.902479 23.366328 
L 50.749587 25.722065 
L 49.020248 27.398678 
L 48.443802 28.421049 
L 47.867355 28.890998 
L 47.290909 30.161704 
L 46.714463 31.058294 
L 46.138017 32.44188 
L 44.985124 35.750877 
L 44.408678 36.744682 
L 43.832231 39.487896 
L 43.255785 41.017535 
L 42.102893 45.749281 
L 41.526446 49.312603 
L 40.95 50.681446 
L 39.797107 56.659018 
L 39.220661 57.969808 
L 38.644215 60.29744 
L 38.067769 64.128909 
L 36.33843 70.100492 
L 35.761983 73.042283 
L 35.185537 72.352563 
L 34.609091 72.880104 
L 34.609091 72.880104 
" clip-path="url(#p3ac167f185)" style="fill: none; stroke: #1f77b4; stroke-width: 1.5; stroke-linecap: square"/>
   </g>
   <g id="patch_3">
    <path d="M 27 128.16 
L 27 17.28 
" style="fill: none; stroke: #000000; stroke-width: 0.8; stroke-linejoin: miter; stroke-linecap: square"/>
   </g>
   <g id="patch_4">
    <path d="M 194.4 128.16 
L 194.4 17.28 
" style="fill: none; stroke: #000000; stroke-width: 0.8; stroke-linejoin: miter; stroke-linecap: square"/>
   </g>
   <g id="patch_5">
    <path d="M 27 128.16 
L 194.4 128.16 
" style="fill: none; stroke: #000000; stroke-width: 0.8; stroke-linejoin: miter; stroke-linecap: square"/>
   </g>
   <g id="patch_6">
    <path d="M 27 17.28 
L 194.4 17.28 
" style="fill: none; stroke: #000000; stroke-width: 0.8; stroke-linejoin: miter; stroke-linecap: square"/>
   </g>
  </g>
 </g>
 <defs>
  <clipPath id="p3ac167f185">
   <rect x="27" y="17.28" width="167.4" height="110.88"/>
  </clipPath>
 </defs>
</svg>
