<?xml version="1.0" encoding="utf-8" standalone="no"?>
<!DOCTYPE svg PUBLIC "-//W3C//DTD SVG 1.1//EN"
  "http://www.w3.org/Graphics/SVG/1.1/DTD/svg11.dtd">
<svg xmlns:xlink="http://www.w3.org/1999/xlink" width="324pt" height="216pt" viewBox="0 0 324 216" xmlns="http://www.w3.org/2000/svg" version="1.1">
 <metadata>
  <rdf:RDF xmlns:dc="http://purl.org/dc/elements/1.1/" xmlns:cc="http://creativecommons.org/ns#" xmlns:rdf="http://www.w3.org/1999/02/22-rdf-syntax-ns#">
   <cc:Work>
    <dc:type rdf:resource="http://purl.org/dc/dcmitype/StillImage"/>
    <dc:date>2022-10-14T11:30:37.441529</dc:date>
    <dc:format>image/svg+xml</dc:format>
    <dc:creator>
     <cc:Agent>
      <dc:title>Matplotlib v3.5.1, https://matplotlib.org/</dc:title>
     </cc:Agent>
    </dc:creator>
   </cc:Work>
  </rdf:RDF>
 </metadata>
 <defs>
  <style type="text/css">*{stroke-linejoin: round; stroke-linecap: butt}</style>
 </defs>
 <g id="figure_1">
  <g id="patch_1">
   <path d="M 0 216 
L 324 216 
L 324 0 
L 0 0 
z
" style="fill: #ffffff"/>
  </g>
  <g id="axes_1">
   <g id="patch_2">
    <path d="M 40.5 192.24 
L 291.6 192.24 
L 291.6 25.92 
L 40.5 25.92 
z
" style="fill: #ffffff"/>
   </g>
   <g id="matplotlib.axis_1">
    <g id="xtick_1">
     <g id="line2d_1">
      <defs>
       <path id="mebf2d9fa03" d="M 0 0 
L 0 3.5 
" style="stroke: #000000; stroke-width: 0.8"/>
      </defs>
      <g>
       <use xlink:href="#mebf2d9fa03" x="51.913636" y="192.24" style="stroke: #000000; stroke-width: 0.8"/>
      </g>
     </g>
     <g id="text_1">
      <!-- 2600 -->
      <g transform="translate(31.553636 211.3975)scale(0.16 -0.16)">
       <defs>
        <path id="DejaVuSans-32" d="M 1228 531 
L 3431 531 
L 3431 0 
L 469 0 
L 469 531 
Q 828 903 1448 1529 
Q 2069 2156 2228 2338 
Q 2531 2678 2651 2914 
Q 2772 3150 2772 3378 
Q 2772 3750 2511 3984 
Q 2250 4219 1831 4219 
Q 1534 4219 1204 4116 
Q 875 4013 500 3803 
L 500 4441 
Q 881 4594 1212 4672 
Q 1544 4750 1819 4750 
Q 2544 4750 2975 4387 
Q 3406 4025 3406 3419 
Q 3406 3131 3298 2873 
Q 3191 2616 2906 2266 
Q 2828 2175 2409 1742 
Q 1991 1309 1228 531 
z
" transform="scale(0.015625)"/>
        <path id="DejaVuSans-36" d="M 2113 2584 
Q 1688 2584 1439 2293 
Q 1191 2003 1191 1497 
Q 1191 994 1439 701 
Q 1688 409 2113 409 
Q 2538 409 2786 701 
Q 3034 994 3034 1497 
Q 3034 2003 2786 2293 
Q 2538 2584 2113 2584 
z
M 3366 4563 
L 3366 3988 
Q 3128 4100 2886 4159 
Q 2644 4219 2406 4219 
Q 1781 4219 1451 3797 
Q 1122 3375 1075 2522 
Q 1259 2794 1537 2939 
Q 1816 3084 2150 3084 
Q 2853 3084 3261 2657 
Q 3669 2231 3669 1497 
Q 3669 778 3244 343 
Q 2819 -91 2113 -91 
Q 1303 -91 875 529 
Q 447 1150 447 2328 
Q 447 3434 972 4092 
Q 1497 4750 2381 4750 
Q 2619 4750 2861 4703 
Q 3103 4656 3366 4563 
z
" transform="scale(0.015625)"/>
        <path id="DejaVuSans-30" d="M 2034 4250 
Q 1547 4250 1301 3770 
Q 1056 3291 1056 2328 
Q 1056 1369 1301 889 
Q 1547 409 2034 409 
Q 2525 409 2770 889 
Q 3016 1369 3016 2328 
Q 3016 3291 2770 3770 
Q 2525 4250 2034 4250 
z
M 2034 4750 
Q 2819 4750 3233 4129 
Q 3647 3509 3647 2328 
Q 3647 1150 3233 529 
Q 2819 -91 2034 -91 
Q 1250 -91 836 529 
Q 422 1150 422 2328 
Q 422 3509 836 4129 
Q 1250 4750 2034 4750 
z
" transform="scale(0.015625)"/>
       </defs>
       <use xlink:href="#DejaVuSans-32"/>
       <use xlink:href="#DejaVuSans-36" x="63.623047"/>
       <use xlink:href="#DejaVuSans-30" x="127.246094"/>
       <use xlink:href="#DejaVuSans-30" x="190.869141"/>
      </g>
     </g>
    </g>
    <g id="xtick_2">
     <g id="line2d_2">
      <g>
       <use xlink:href="#mebf2d9fa03" x="128.004545" y="192.24" style="stroke: #000000; stroke-width: 0.8"/>
      </g>
     </g>
     <g id="text_2">
      <!-- 2800 -->
      <g transform="translate(107.644545 211.3975)scale(0.16 -0.16)">
       <defs>
        <path id="DejaVuSans-38" d="M 2034 2216 
Q 1584 2216 1326 1975 
Q 1069 1734 1069 1313 
Q 1069 891 1326 650 
Q 1584 409 2034 409 
Q 2484 409 2743 651 
Q 3003 894 3003 1313 
Q 3003 1734 2745 1975 
Q 2488 2216 2034 2216 
z
M 1403 2484 
Q 997 2584 770 2862 
Q 544 3141 544 3541 
Q 544 4100 942 4425 
Q 1341 4750 2034 4750 
Q 2731 4750 3128 4425 
Q 3525 4100 3525 3541 
Q 3525 3141 3298 2862 
Q 3072 2584 2669 2484 
Q 3125 2378 3379 2068 
Q 3634 1759 3634 1313 
Q 3634 634 3220 271 
Q 2806 -91 2034 -91 
Q 1263 -91 848 271 
Q 434 634 434 1313 
Q 434 1759 690 2068 
Q 947 2378 1403 2484 
z
M 1172 3481 
Q 1172 3119 1398 2916 
Q 1625 2713 2034 2713 
Q 2441 2713 2670 2916 
Q 2900 3119 2900 3481 
Q 2900 3844 2670 4047 
Q 2441 4250 2034 4250 
Q 1625 4250 1398 4047 
Q 1172 3844 1172 3481 
z
" transform="scale(0.015625)"/>
       </defs>
       <use xlink:href="#DejaVuSans-32"/>
       <use xlink:href="#DejaVuSans-38" x="63.623047"/>
       <use xlink:href="#DejaVuSans-30" x="127.246094"/>
       <use xlink:href="#DejaVuSans-30" x="190.869141"/>
      </g>
     </g>
    </g>
    <g id="xtick_3">
     <g id="line2d_3">
      <g>
       <use xlink:href="#mebf2d9fa03" x="204.095455" y="192.24" style="stroke: #000000; stroke-width: 0.8"/>
      </g>
     </g>
     <g id="text_3">
      <!-- 3000 -->
      <g transform="translate(183.735455 211.3975)scale(0.16 -0.16)">
       <defs>
        <path id="DejaVuSans-33" d="M 2597 2516 
Q 3050 2419 3304 2112 
Q 3559 1806 3559 1356 
Q 3559 666 3084 287 
Q 2609 -91 1734 -91 
Q 1441 -91 1130 -33 
Q 819 25 488 141 
L 488 750 
Q 750 597 1062 519 
Q 1375 441 1716 441 
Q 2309 441 2620 675 
Q 2931 909 2931 1356 
Q 2931 1769 2642 2001 
Q 2353 2234 1838 2234 
L 1294 2234 
L 1294 2753 
L 1863 2753 
Q 2328 2753 2575 2939 
Q 2822 3125 2822 3475 
Q 2822 3834 2567 4026 
Q 2313 4219 1838 4219 
Q 1578 4219 1281 4162 
Q 984 4106 628 3988 
L 628 4550 
Q 988 4650 1302 4700 
Q 1616 4750 1894 4750 
Q 2613 4750 3031 4423 
Q 3450 4097 3450 3541 
Q 3450 3153 3228 2886 
Q 3006 2619 2597 2516 
z
" transform="scale(0.015625)"/>
       </defs>
       <use xlink:href="#DejaVuSans-33"/>
       <use xlink:href="#DejaVuSans-30" x="63.623047"/>
       <use xlink:href="#DejaVuSans-30" x="127.246094"/>
       <use xlink:href="#DejaVuSans-30" x="190.869141"/>
      </g>
     </g>
    </g>
    <g id="xtick_4">
     <g id="line2d_4">
      <g>
       <use xlink:href="#mebf2d9fa03" x="280.186364" y="192.24" style="stroke: #000000; stroke-width: 0.8"/>
      </g>
     </g>
     <g id="text_4">
      <!-- 3200 -->
      <g transform="translate(259.826364 211.3975)scale(0.16 -0.16)">
       <use xlink:href="#DejaVuSans-33"/>
       <use xlink:href="#DejaVuSans-32" x="63.623047"/>
       <use xlink:href="#DejaVuSans-30" x="127.246094"/>
       <use xlink:href="#DejaVuSans-30" x="190.869141"/>
      </g>
     </g>
    </g>
   </g>
   <g id="matplotlib.axis_2">
    <g id="ytick_1">
     <g id="line2d_5">
      <defs>
       <path id="md19adef6b9" d="M 0 0 
L -3.5 0 
" style="stroke: #000000; stroke-width: 0.8"/>
      </defs>
      <g>
       <use xlink:href="#md19adef6b9" x="40.5" y="184.504523" style="stroke: #000000; stroke-width: 0.8"/>
      </g>
     </g>
     <g id="text_5">
      <!-- 0.0 -->
      <g transform="translate(8.055 190.583273)scale(0.16 -0.16)">
       <defs>
        <path id="DejaVuSans-2e" d="M 684 794 
L 1344 794 
L 1344 0 
L 684 0 
L 684 794 
z
" transform="scale(0.015625)"/>
       </defs>
       <use xlink:href="#DejaVuSans-30"/>
       <use xlink:href="#DejaVuSans-2e" x="63.623047"/>
       <use xlink:href="#DejaVuSans-30" x="95.410156"/>
      </g>
     </g>
    </g>
    <g id="ytick_2">
     <g id="line2d_6">
      <g>
       <use xlink:href="#md19adef6b9" x="40.5" y="139.36913" style="stroke: #000000; stroke-width: 0.8"/>
      </g>
     </g>
     <g id="text_6">
      <!-- 0.5 -->
      <g transform="translate(8.055 145.44788)scale(0.16 -0.16)">
       <defs>
        <path id="DejaVuSans-35" d="M 691 4666 
L 3169 4666 
L 3169 4134 
L 1269 4134 
L 1269 2991 
Q 1406 3038 1543 3061 
Q 1681 3084 1819 3084 
Q 2600 3084 3056 2656 
Q 3513 2228 3513 1497 
Q 3513 744 3044 326 
Q 2575 -91 1722 -91 
Q 1428 -91 1123 -41 
Q 819 9 494 109 
L 494 744 
Q 775 591 1075 516 
Q 1375 441 1709 441 
Q 2250 441 2565 725 
Q 2881 1009 2881 1497 
Q 2881 1984 2565 2268 
Q 2250 2553 1709 2553 
Q 1456 2553 1204 2497 
Q 953 2441 691 2322 
L 691 4666 
z
" transform="scale(0.015625)"/>
       </defs>
       <use xlink:href="#DejaVuSans-30"/>
       <use xlink:href="#DejaVuSans-2e" x="63.623047"/>
       <use xlink:href="#DejaVuSans-35" x="95.410156"/>
      </g>
     </g>
    </g>
    <g id="ytick_3">
     <g id="line2d_7">
      <g>
       <use xlink:href="#md19adef6b9" x="40.5" y="94.233738" style="stroke: #000000; stroke-width: 0.8"/>
      </g>
     </g>
     <g id="text_7">
      <!-- 1.0 -->
      <g transform="translate(8.055 100.312488)scale(0.16 -0.16)">
       <defs>
        <path id="DejaVuSans-31" d="M 794 531 
L 1825 531 
L 1825 4091 
L 703 3866 
L 703 4441 
L 1819 4666 
L 2450 4666 
L 2450 531 
L 3481 531 
L 3481 0 
L 794 0 
L 794 531 
z
" transform="scale(0.015625)"/>
       </defs>
       <use xlink:href="#DejaVuSans-31"/>
       <use xlink:href="#DejaVuSans-2e" x="63.623047"/>
       <use xlink:href="#DejaVuSans-30" x="95.410156"/>
      </g>
     </g>
    </g>
    <g id="ytick_4">
     <g id="line2d_8">
      <g>
       <use xlink:href="#md19adef6b9" x="40.5" y="49.098345" style="stroke: #000000; stroke-width: 0.8"/>
      </g>
     </g>
     <g id="text_8">
      <!-- 1.5 -->
      <g transform="translate(8.055 55.177095)scale(0.16 -0.16)">
       <use xlink:href="#DejaVuSans-31"/>
       <use xlink:href="#DejaVuSans-2e" x="63.623047"/>
       <use xlink:href="#DejaVuSans-35" x="95.410156"/>
      </g>
     </g>
    </g>
   </g>
   <g id="line2d_9">
    <path d="M 51.913636 184.301956 
L 52.370182 183.652731 
L 52.826727 183.906636 
L 53.283273 184.371781 
L 54.196364 183.622081 
L 54.652909 184.362643 
L 55.109455 184.264797 
L 55.566 183.87695 
L 56.022545 183.876033 
L 56.479091 184.229582 
L 57.392182 184.029291 
L 57.848727 184.539252 
L 58.305273 184.20986 
L 59.218364 184.58961 
L 59.674909 184.136438 
L 60.131455 184.075737 
L 60.588 184.402387 
L 61.044545 183.804811 
L 61.957636 184.216835 
L 62.414182 183.871727 
L 62.870727 183.978197 
L 63.327273 183.698818 
L 64.240364 183.931291 
L 64.696909 184.146351 
L 65.153455 184.532278 
L 66.523091 184.124887 
L 66.979636 184.490239 
L 67.436182 183.909827 
L 68.349273 184.020957 
L 68.805818 183.94917 
L 69.262364 184.017389 
L 69.718909 184.243793 
L 70.175455 183.769946 
L 70.632 184.142478 
L 72.001636 184.297573 
L 72.458182 183.987065 
L 72.914727 184.325985 
L 73.371273 184.46118 
L 74.284364 184.439783 
L 74.740909 184.054082 
L 75.197455 184.302817 
L 75.654 184.047844 
L 76.110545 183.623719 
L 76.567091 182.861426 
L 77.023636 181.610941 
L 77.480182 179.387318 
L 77.936727 175.697917 
L 78.393273 170.762341 
L 79.306364 156.819716 
L 79.762909 153.157691 
L 80.219455 152.921167 
L 80.676 155.017138 
L 81.132545 160.269593 
L 82.045636 173.682065 
L 82.502182 177.416048 
L 83.415273 181.1393 
L 83.871818 182.273226 
L 84.328364 183.043897 
L 84.784909 183.569043 
L 86.611091 184.342342 
L 87.067636 183.844911 
L 87.524182 183.843338 
L 87.980727 183.668263 
L 88.437273 184.262274 
L 88.893818 184.18841 
L 89.806909 184.451412 
L 90.263455 184.416954 
L 90.72 184.239712 
L 91.176545 183.905636 
L 91.633091 183.770907 
L 92.089636 184.439163 
L 92.546182 184.166557 
L 93.002727 184.399953 
L 94.828909 184.293631 
L 95.285455 184.530714 
L 96.198545 184.039394 
L 96.655091 184.201469 
L 97.111636 184.489928 
L 98.481273 183.190676 
L 98.937818 183.219756 
L 99.394364 183.379668 
L 99.850909 183.911269 
L 100.764 181.86869 
L 101.220545 180.574036 
L 101.677091 178.062364 
L 102.133636 174.541829 
L 102.590182 170.124695 
L 103.046727 161.478947 
L 103.503273 149.928925 
L 103.959818 143.782241 
L 104.416364 142.24371 
L 104.872909 144.923704 
L 105.329455 150.343403 
L 106.242545 169.972369 
L 106.699091 176.034756 
L 107.155636 179.350536 
L 107.612182 180.828787 
L 108.068727 181.787332 
L 108.525273 181.956759 
L 108.981818 182.94355 
L 109.438364 183.224891 
L 110.351455 183.060723 
L 110.808 183.471447 
L 111.264545 183.706553 
L 111.721091 184.113119 
L 112.634182 183.521591 
L 113.090727 183.884495 
L 113.547273 183.721262 
L 114.003818 184.227611 
L 114.916909 184.295937 
L 115.83 183.856572 
L 116.286545 184.09754 
L 116.743091 184.105316 
L 117.199636 184.327917 
L 117.656182 183.955712 
L 118.112727 184.519871 
L 118.569273 183.827854 
L 119.025818 183.346088 
L 119.482364 183.666565 
L 119.938909 183.482758 
L 120.852 181.700886 
L 121.308545 179.743221 
L 121.765091 177.075544 
L 122.221636 175.300958 
L 122.678182 172.33158 
L 123.134727 168.177258 
L 123.591273 160.649652 
L 124.504364 135.829713 
L 124.960909 132.140838 
L 125.417455 134.172362 
L 125.874 137.431087 
L 126.330545 147.469493 
L 126.787091 161.11894 
L 127.243636 169.845099 
L 127.700182 174.723093 
L 128.156727 178.097295 
L 129.069818 180.822028 
L 129.982909 182.923846 
L 130.439455 183.145943 
L 130.896 183.111268 
L 131.352545 183.364252 
L 131.809091 183.919761 
L 132.265636 184.09656 
L 134.091818 184.136999 
L 134.548364 183.757857 
L 135.004909 183.886374 
L 135.461455 184.250919 
L 135.918 183.934336 
L 136.374545 183.875273 
L 136.831091 184.233271 
L 137.744182 184.344962 
L 139.113818 183.555105 
L 139.570364 183.751705 
L 140.026909 184.300876 
L 140.483455 184.039162 
L 140.94 184.375684 
L 141.396545 183.938382 
L 141.853091 183.751019 
L 142.766182 181.928824 
L 143.679273 178.056663 
L 144.135818 174.893232 
L 144.592364 170.417521 
L 145.048909 164.459899 
L 145.505455 152.57971 
L 146.418545 116.341857 
L 146.875091 109.939095 
L 147.331636 111.240395 
L 147.788182 115.969759 
L 148.244727 130.42615 
L 148.701273 148.919454 
L 149.157818 161.08718 
L 149.614364 169.304247 
L 150.070909 174.695698 
L 150.984 179.639163 
L 151.440545 181.877698 
L 151.897091 183.401109 
L 152.353636 183.968928 
L 152.810182 183.56214 
L 153.266727 183.489789 
L 154.636364 183.980845 
L 155.549455 183.326428 
L 156.006 183.459997 
L 156.462545 183.740726 
L 156.919091 183.377994 
L 157.375636 183.226289 
L 157.832182 183.964524 
L 158.288727 184.034957 
L 158.745273 183.893245 
L 159.201818 183.983427 
L 159.658364 184.207212 
L 160.114909 183.714905 
L 160.571455 184.06973 
L 161.028 183.810996 
L 161.484545 184.013578 
L 161.941091 183.974742 
L 163.310727 184.349928 
L 163.767273 184.398769 
L 164.223818 183.933072 
L 164.680364 184.165777 
L 165.136909 183.67381 
L 165.593455 183.743685 
L 166.05 184.043229 
L 166.506545 183.996237 
L 166.963091 183.685652 
L 168.789273 184.091381 
L 169.702364 183.598675 
L 170.158909 183.5056 
L 170.615455 183.123985 
L 171.072 183.213616 
L 171.528545 183.784993 
L 172.441636 184.21251 
L 173.354727 184.066495 
L 173.811273 184.18944 
L 174.267818 183.920977 
L 174.724364 184.291177 
L 175.180909 184.258903 
L 175.637455 184.030359 
L 176.550545 184.114671 
L 177.007091 183.614581 
L 177.463636 183.29934 
L 177.920182 183.495921 
L 178.376727 184.05917 
L 178.833273 183.701706 
L 179.289818 183.190566 
L 179.746364 182.385688 
L 180.202909 182.13409 
L 180.659455 181.123608 
L 181.572545 176.827035 
L 182.029091 173.112913 
L 182.485636 167.183531 
L 182.942182 154.593397 
L 183.398727 134.146182 
L 183.855273 118.695743 
L 184.311818 110.776726 
L 184.768364 107.094052 
L 185.224909 109.633593 
L 187.051091 163.122881 
L 187.507636 169.512112 
L 188.420727 177.459698 
L 189.333818 181.012276 
L 189.790364 182.398828 
L 190.246909 183.191964 
L 190.703455 183.436882 
L 191.16 183.883513 
L 191.616545 183.901205 
L 192.073091 184.21536 
L 192.529636 184.091562 
L 193.442727 184.177812 
L 193.899273 183.966162 
L 194.355818 184.168831 
L 195.268909 184.189918 
L 195.725455 183.997148 
L 196.182 183.973861 
L 197.095091 184.436961 
L 197.551636 184.183605 
L 198.008182 183.506894 
L 198.464727 183.697287 
L 198.921273 184.05578 
L 200.290909 180.051223 
L 200.747455 178.170856 
L 201.204 174.160129 
L 201.660545 167.235987 
L 202.573636 141.776467 
L 203.030182 135.53377 
L 203.486727 132.765307 
L 203.943273 133.09417 
L 204.856364 153.456985 
L 205.312909 163.09508 
L 205.769455 169.704966 
L 206.682545 176.522268 
L 207.139091 179.079037 
L 208.508727 183.392567 
L 208.965273 184.064678 
L 209.421818 183.996248 
L 209.878364 183.69748 
L 210.334909 183.895426 
L 210.791455 183.731496 
L 211.248 184.054792 
L 212.161091 183.692318 
L 213.530727 184.498365 
L 214.443818 184.076888 
L 215.813455 181.195424 
L 216.726545 177.594664 
L 217.183091 175.803236 
L 217.639636 170.34797 
L 218.552727 150.597246 
L 219.009273 144.613064 
L 219.465818 144.493519 
L 219.922364 145.611927 
L 220.378909 151.599033 
L 220.835455 161.209425 
L 221.292 168.474011 
L 221.748545 173.846393 
L 222.205091 176.982379 
L 224.031273 183.565784 
L 224.487818 183.977476 
L 224.944364 183.833671 
L 225.400909 183.830323 
L 225.857455 184.340386 
L 226.314 184.288921 
L 226.770545 183.591101 
L 227.227091 184.044143 
L 227.683636 184.337139 
L 228.140182 183.810714 
L 228.596727 184.217247 
L 229.966364 184.362251 
L 231.336 183.910483 
L 231.792545 183.404145 
L 232.249091 182.513439 
L 232.705636 181.320792 
L 233.618727 178.065816 
L 234.075273 175.259704 
L 234.531818 169.744585 
L 234.988364 161.078742 
L 235.444909 155.254754 
L 235.901455 153.399064 
L 236.358 153.970694 
L 236.814545 156.391763 
L 238.184182 173.450628 
L 239.097273 179.602369 
L 239.553818 181.281985 
L 240.010364 182.069578 
L 240.466909 183.361828 
L 240.923455 183.435879 
L 241.836545 184.042445 
L 242.293091 183.869551 
L 242.749636 184.268691 
L 243.206182 184.008159 
L 243.662727 184.271508 
L 244.119273 184.250141 
L 244.575818 184.008251 
L 245.032364 183.959971 
L 245.945455 184.329107 
L 246.402 184.340585 
L 246.858545 184.090354 
L 247.315091 184.017235 
L 247.771636 184.272879 
L 248.684727 184.314846 
L 249.141273 183.699596 
L 250.054364 184.450617 
L 250.510909 184.464584 
L 250.967455 183.730368 
L 251.424 183.974268 
L 251.880545 184.450593 
L 252.337091 184.621391 
L 252.793636 184.212576 
L 253.706727 184.502865 
L 254.163273 184.143626 
L 254.619818 184.396623 
L 255.532909 184.236542 
L 255.989455 184.34022 
L 256.446 184.173802 
L 257.359091 184.185214 
L 257.815636 184.523721 
L 258.728727 184.415455 
L 259.641818 183.991339 
L 260.098364 184.01554 
L 260.554909 184.68 
L 261.011455 184.057246 
L 261.468 184.265159 
L 261.924545 184.151239 
L 262.381091 183.714189 
L 262.837636 183.7952 
L 263.294182 184.324184 
L 264.663818 183.935381 
L 265.120364 184.219746 
L 265.576909 184.118108 
L 266.033455 184.190518 
L 266.49 183.897047 
L 266.946545 184.3478 
L 267.403091 184.25944 
L 267.859636 183.983916 
L 268.316182 184.000947 
L 268.772727 183.794218 
L 269.229273 184.198418 
L 269.685818 184.297763 
L 270.598909 183.981403 
L 271.055455 184.64385 
L 271.512 184.02331 
L 271.968545 184.160117 
L 272.425091 184.448723 
L 272.881636 184.073867 
L 273.338182 183.914498 
L 274.251273 184.047324 
L 274.707818 183.954857 
L 275.164364 183.713753 
L 275.620909 184.400707 
L 276.534 183.689148 
L 276.990545 184.183219 
L 277.447091 184.381759 
L 277.903636 184.387022 
L 278.360182 184.229941 
L 279.273273 184.195919 
L 280.186364 184.426336 
L 280.186364 184.426336 
" clip-path="url(#p6008171d91)" style="fill: none; stroke-dasharray: 5.55,2.4; stroke-dashoffset: 0; stroke: #1f77b4; stroke-width: 1.5"/>
   </g>
   <g id="line2d_10">
    <path d="M 89.959091 184.20378 
L 90.567818 184.451735 
L 90.872182 184.247788 
L 92.394 184.346334 
L 93.002727 184.263434 
L 93.307091 184.393242 
L 93.611455 184.337045 
L 93.915818 184.425673 
L 94.220182 184.330428 
L 94.524545 184.102989 
L 94.828909 184.065894 
L 95.437636 184.390955 
L 95.742 184.146363 
L 96.046364 183.588964 
L 96.655091 183.48105 
L 96.959455 182.961605 
L 97.872545 182.648172 
L 98.176909 182.290851 
L 98.481273 182.181287 
L 98.785636 181.891498 
L 99.394364 182.439248 
L 99.698727 182.776272 
L 100.307455 182.951735 
L 100.916182 183.421624 
L 101.829273 183.642173 
L 102.438 183.039313 
L 102.742364 183.032205 
L 103.959818 182.280457 
L 104.264182 182.333171 
L 104.568545 182.567232 
L 104.872909 183.002785 
L 105.177273 182.917783 
L 105.786 183.347006 
L 106.394727 183.866062 
L 107.307818 184.101649 
L 107.612182 184.056091 
L 107.916545 184.302124 
L 108.829636 183.987111 
L 109.438364 184.099313 
L 109.742727 184.022771 
L 110.047091 184.325376 
L 110.655818 184.13489 
L 110.960182 184.329993 
L 111.264545 184.336157 
L 111.568909 184.022091 
L 111.873273 183.996225 
L 112.177636 184.150005 
L 113.699455 184.212831 
L 114.308182 183.429506 
L 114.612545 183.531938 
L 114.916909 183.337574 
L 115.221273 183.419358 
L 115.83 182.651175 
L 116.134364 182.435022 
L 117.047455 180.262567 
L 117.656182 177.201017 
L 118.569273 168.837039 
L 119.178 158.274525 
L 119.786727 143.544762 
L 120.395455 120.974809 
L 121.308545 76.192313 
L 122.221636 42.304545 
L 122.526 34.731137 
L 122.830364 33.48 
L 123.134727 38.74325 
L 123.743455 60.739119 
L 124.352182 88.901221 
L 125.265273 140.119866 
L 125.874 159.646087 
L 126.482727 170.404612 
L 127.091455 176.513582 
L 127.700182 180.44799 
L 128.308909 182.444281 
L 128.613273 183.02943 
L 129.222 183.71403 
L 129.526364 183.638697 
L 130.135091 184.061397 
L 131.656909 184.096796 
L 131.961273 184.158099 
L 132.265636 183.907381 
L 133.178727 184.232962 
L 133.483091 184.271314 
L 133.787455 184.052732 
L 134.091818 184.111026 
L 134.396182 183.888719 
L 134.700545 184.004886 
L 135.004909 184.249696 
L 135.309273 184.281769 
L 135.613636 183.966043 
L 136.222364 184.215504 
L 136.526727 184.214869 
L 136.831091 184.387691 
L 137.135455 184.145196 
L 137.439818 184.072738 
L 137.744182 184.215626 
L 138.048545 184.13825 
L 138.657273 184.310892 
L 138.961636 184.313039 
L 139.266 184.183737 
L 139.570364 184.367608 
L 140.179091 184.269974 
L 142.918364 184.284856 
L 143.222727 184.210377 
L 143.527091 183.905001 
L 144.135818 183.81827 
L 144.440182 183.693861 
L 144.744545 183.820064 
L 145.962 182.686204 
L 146.570727 182.267226 
L 148.092545 183.11531 
L 148.701273 183.654938 
L 149.005636 183.776535 
L 149.614364 183.387627 
L 150.527455 183.166087 
L 150.831818 183.022661 
L 151.136182 183.124877 
L 151.440545 182.978503 
L 152.049273 182.915634 
L 152.353636 182.867918 
L 152.658 183.263824 
L 152.962364 183.145517 
L 153.571091 183.325175 
L 154.179818 183.584701 
L 154.484182 183.360881 
L 155.092909 183.822456 
L 155.397273 184.061507 
L 156.614727 184.219764 
L 156.919091 184.330354 
L 157.223455 184.22949 
L 157.527818 184.307829 
L 158.136545 184.132737 
L 158.440909 184.190941 
L 158.745273 184.521651 
L 159.354 184.083389 
L 159.658364 184.228417 
L 160.571455 184.405146 
L 160.875818 184.492445 
L 161.788909 184.086033 
L 162.397636 184.427315 
L 163.310727 184.389498 
L 163.615091 184.140566 
L 164.223818 184.461193 
L 165.745636 184.166695 
L 166.354364 184.212613 
L 166.658727 184.10889 
L 166.963091 184.128581 
L 167.267455 183.691524 
L 167.876182 183.173215 
L 168.180545 182.886077 
L 169.093636 181.493477 
L 169.702364 181.60097 
L 170.615455 182.189033 
L 171.528545 183.280681 
L 172.137273 183.305289 
L 172.441636 183.260009 
L 173.050364 182.864963 
L 173.659091 183.080492 
L 173.963455 182.762753 
L 174.267818 182.684389 
L 174.572182 182.802576 
L 174.876545 182.772862 
L 175.485273 183.177127 
L 175.789636 183.204118 
L 176.094 183.031638 
L 176.398364 183.0689 
L 177.007091 183.558209 
L 177.311455 183.56577 
L 177.920182 184.139113 
L 178.528909 184.250117 
L 178.833273 184.180381 
L 179.137636 184.373075 
L 179.746364 184.086705 
L 180.050727 184.368078 
L 180.659455 184.308701 
L 180.963818 184.219963 
L 181.876909 184.464754 
L 182.79 184.104665 
L 183.703091 184.205963 
L 184.007455 184.066777 
L 184.311818 184.068548 
L 184.616182 184.217712 
L 185.224909 184.102061 
L 185.529273 183.825886 
L 185.833636 183.872817 
L 186.746727 183.661189 
L 187.355455 182.914452 
L 187.659818 182.411115 
L 188.268545 180.824546 
L 188.877273 177.632086 
L 189.486 171.812081 
L 190.094727 163.168043 
L 190.703455 150.075891 
L 191.312182 129.155991 
L 191.920909 99.028855 
L 192.529636 66.32503 
L 193.138364 46.546119 
L 193.442727 42.115094 
L 193.747091 42.771692 
L 194.051455 48.069211 
L 194.660182 73.701084 
L 195.573273 118.539974 
L 196.182 144.45209 
L 196.790727 160.454857 
L 197.399455 169.697372 
L 198.008182 175.322192 
L 198.616909 179.488204 
L 199.225636 181.605394 
L 200.443091 183.318099 
L 201.051818 183.626435 
L 201.356182 183.493965 
L 201.660545 183.537075 
L 201.964909 183.851986 
L 203.182364 184.188894 
L 203.486727 184.059391 
L 203.791091 184.12011 
L 204.095455 183.949344 
L 205.008545 183.960964 
L 205.312909 184.145715 
L 205.921636 183.984576 
L 206.226 184.078197 
L 206.530364 184.046905 
L 206.834727 184.265215 
L 207.139091 184.148312 
L 207.443455 183.90326 
L 208.052182 183.864217 
L 208.965273 184.307584 
L 209.269636 184.15441 
L 209.878364 184.393626 
L 210.182727 184.267677 
L 210.791455 184.381006 
L 211.095818 184.440788 
L 211.400182 184.278626 
L 212.313273 184.437459 
L 212.617636 184.192348 
L 212.922 184.314273 
L 213.530727 184.311211 
L 213.835091 184.105722 
L 214.443818 184.195579 
L 214.748182 183.984362 
L 215.052545 183.939103 
L 215.661273 183.520516 
L 215.965636 183.484786 
L 216.27 183.050653 
L 217.183091 182.670926 
L 217.487455 182.753359 
L 218.400545 182.724616 
L 218.704909 182.890582 
L 219.009273 183.35778 
L 219.313636 183.536103 
L 219.618 183.511989 
L 219.922364 183.701164 
L 220.531091 183.560738 
L 220.835455 183.494276 
L 221.139818 183.130178 
L 223.574727 182.389324 
L 224.183455 183.18722 
L 224.487818 183.256739 
L 225.400909 183.80611 
L 225.705273 183.866443 
L 226.314 184.24762 
L 226.922727 184.198007 
L 227.531455 184.391605 
L 227.835818 184.330079 
L 228.140182 184.091924 
L 228.748909 184.320754 
L 229.053273 184.473448 
L 229.357636 184.455045 
L 229.662 184.172701 
L 229.966364 184.0965 
L 230.575091 184.252082 
L 231.488182 184.186922 
L 232.096909 184.226614 
L 232.401273 184.453388 
L 233.01 184.20778 
L 233.618727 184.364319 
L 234.227455 184.245874 
L 234.531818 184.495986 
L 234.836182 184.311522 
L 235.444909 184.464456 
L 236.358 184.248805 
L 236.966727 184.290637 
L 237.575455 184.247443 
L 238.184182 184.539943 
L 238.792909 184.197426 
L 239.097273 184.130018 
L 240.010364 184.405541 
L 240.619091 184.212442 
L 241.227818 184.435073 
L 241.836545 184.323702 
L 242.140909 184.371384 
L 242.140909 184.371384 
" clip-path="url(#p6008171d91)" style="fill: none; stroke: #ff7f0e; stroke-width: 1.5; stroke-linecap: square"/>
   </g>
   <g id="patch_3">
    <path d="M 40.5 192.24 
L 40.5 25.92 
" style="fill: none; stroke: #000000; stroke-width: 0.8; stroke-linejoin: miter; stroke-linecap: square"/>
   </g>
   <g id="patch_4">
    <path d="M 291.6 192.24 
L 291.6 25.92 
" style="fill: none; stroke: #000000; stroke-width: 0.8; stroke-linejoin: miter; stroke-linecap: square"/>
   </g>
   <g id="patch_5">
    <path d="M 40.5 192.24 
L 291.6 192.24 
" style="fill: none; stroke: #000000; stroke-width: 0.8; stroke-linejoin: miter; stroke-linecap: square"/>
   </g>
   <g id="patch_6">
    <path d="M 40.5 25.92 
L 291.6 25.92 
" style="fill: none; stroke: #000000; stroke-width: 0.8; stroke-linejoin: miter; stroke-linecap: square"/>
   </g>
  </g>
 </g>
 <defs>
  <clipPath id="p6008171d91">
   <rect x="40.5" y="25.92" width="251.1" height="166.32"/>
  </clipPath>
 </defs>
</svg>
