<?xml version="1.0" encoding="utf-8" standalone="no"?>
<!DOCTYPE svg PUBLIC "-//W3C//DTD SVG 1.1//EN"
  "http://www.w3.org/Graphics/SVG/1.1/DTD/svg11.dtd">
<svg xmlns:xlink="http://www.w3.org/1999/xlink" width="288pt" height="216pt" viewBox="0 0 288 216" xmlns="http://www.w3.org/2000/svg" version="1.1">
 <metadata>
  <rdf:RDF xmlns:dc="http://purl.org/dc/elements/1.1/" xmlns:cc="http://creativecommons.org/ns#" xmlns:rdf="http://www.w3.org/1999/02/22-rdf-syntax-ns#">
   <cc:Work>
    <dc:type rdf:resource="http://purl.org/dc/dcmitype/StillImage"/>
    <dc:date>2022-05-31T17:25:38.624182</dc:date>
    <dc:format>image/svg+xml</dc:format>
    <dc:creator>
     <cc:Agent>
      <dc:title>Matplotlib v3.5.1, https://matplotlib.org/</dc:title>
     </cc:Agent>
    </dc:creator>
   </cc:Work>
  </rdf:RDF>
 </metadata>
 <defs>
  <style type="text/css">*{stroke-linejoin: round; stroke-linecap: butt}</style>
 </defs>
 <g id="figure_1">
  <g id="patch_1">
   <path d="M 0 216 
L 288 216 
L 288 0 
L 0 0 
z
" style="fill: #ffffff"/>
  </g>
  <g id="axes_1">
   <g id="patch_2">
    <path d="M 36 192.24 
L 259.2 192.24 
L 259.2 25.92 
L 36 25.92 
z
" style="fill: #ffffff"/>
   </g>
   <g id="matplotlib.axis_1">
    <g id="xtick_1">
     <g id="line2d_1">
      <defs>
       <path id="md11eedf3af" d="M 0 0 
L 0 3.5 
" style="stroke: #000000; stroke-width: 0.8"/>
      </defs>
      <g>
       <use xlink:href="#md11eedf3af" x="46.145455" y="192.24" style="stroke: #000000; stroke-width: 0.8"/>
      </g>
     </g>
     <g id="text_1">
      <!-- 2700 -->
      <g transform="translate(29.602955 209.117969)scale(0.13 -0.13)">
       <defs>
        <path id="DejaVuSans-32" d="M 1228 531 
L 3431 531 
L 3431 0 
L 469 0 
L 469 531 
Q 828 903 1448 1529 
Q 2069 2156 2228 2338 
Q 2531 2678 2651 2914 
Q 2772 3150 2772 3378 
Q 2772 3750 2511 3984 
Q 2250 4219 1831 4219 
Q 1534 4219 1204 4116 
Q 875 4013 500 3803 
L 500 4441 
Q 881 4594 1212 4672 
Q 1544 4750 1819 4750 
Q 2544 4750 2975 4387 
Q 3406 4025 3406 3419 
Q 3406 3131 3298 2873 
Q 3191 2616 2906 2266 
Q 2828 2175 2409 1742 
Q 1991 1309 1228 531 
z
" transform="scale(0.015625)"/>
        <path id="DejaVuSans-37" d="M 525 4666 
L 3525 4666 
L 3525 4397 
L 1831 0 
L 1172 0 
L 2766 4134 
L 525 4134 
L 525 4666 
z
" transform="scale(0.015625)"/>
        <path id="DejaVuSans-30" d="M 2034 4250 
Q 1547 4250 1301 3770 
Q 1056 3291 1056 2328 
Q 1056 1369 1301 889 
Q 1547 409 2034 409 
Q 2525 409 2770 889 
Q 3016 1369 3016 2328 
Q 3016 3291 2770 3770 
Q 2525 4250 2034 4250 
z
M 2034 4750 
Q 2819 4750 3233 4129 
Q 3647 3509 3647 2328 
Q 3647 1150 3233 529 
Q 2819 -91 2034 -91 
Q 1250 -91 836 529 
Q 422 1150 422 2328 
Q 422 3509 836 4129 
Q 1250 4750 2034 4750 
z
" transform="scale(0.015625)"/>
       </defs>
       <use xlink:href="#DejaVuSans-32"/>
       <use xlink:href="#DejaVuSans-37" x="63.623047"/>
       <use xlink:href="#DejaVuSans-30" x="127.246094"/>
       <use xlink:href="#DejaVuSans-30" x="190.869141"/>
      </g>
     </g>
    </g>
    <g id="xtick_2">
     <g id="line2d_2">
      <g>
       <use xlink:href="#md11eedf3af" x="96.872727" y="192.24" style="stroke: #000000; stroke-width: 0.8"/>
      </g>
     </g>
     <g id="text_2">
      <!-- 2800 -->
      <g transform="translate(80.330227 209.117969)scale(0.13 -0.13)">
       <defs>
        <path id="DejaVuSans-38" d="M 2034 2216 
Q 1584 2216 1326 1975 
Q 1069 1734 1069 1313 
Q 1069 891 1326 650 
Q 1584 409 2034 409 
Q 2484 409 2743 651 
Q 3003 894 3003 1313 
Q 3003 1734 2745 1975 
Q 2488 2216 2034 2216 
z
M 1403 2484 
Q 997 2584 770 2862 
Q 544 3141 544 3541 
Q 544 4100 942 4425 
Q 1341 4750 2034 4750 
Q 2731 4750 3128 4425 
Q 3525 4100 3525 3541 
Q 3525 3141 3298 2862 
Q 3072 2584 2669 2484 
Q 3125 2378 3379 2068 
Q 3634 1759 3634 1313 
Q 3634 634 3220 271 
Q 2806 -91 2034 -91 
Q 1263 -91 848 271 
Q 434 634 434 1313 
Q 434 1759 690 2068 
Q 947 2378 1403 2484 
z
M 1172 3481 
Q 1172 3119 1398 2916 
Q 1625 2713 2034 2713 
Q 2441 2713 2670 2916 
Q 2900 3119 2900 3481 
Q 2900 3844 2670 4047 
Q 2441 4250 2034 4250 
Q 1625 4250 1398 4047 
Q 1172 3844 1172 3481 
z
" transform="scale(0.015625)"/>
       </defs>
       <use xlink:href="#DejaVuSans-32"/>
       <use xlink:href="#DejaVuSans-38" x="63.623047"/>
       <use xlink:href="#DejaVuSans-30" x="127.246094"/>
       <use xlink:href="#DejaVuSans-30" x="190.869141"/>
      </g>
     </g>
    </g>
    <g id="xtick_3">
     <g id="line2d_3">
      <g>
       <use xlink:href="#md11eedf3af" x="147.6" y="192.24" style="stroke: #000000; stroke-width: 0.8"/>
      </g>
     </g>
     <g id="text_3">
      <!-- 2900 -->
      <g transform="translate(131.0575 209.117969)scale(0.13 -0.13)">
       <defs>
        <path id="DejaVuSans-39" d="M 703 97 
L 703 672 
Q 941 559 1184 500 
Q 1428 441 1663 441 
Q 2288 441 2617 861 
Q 2947 1281 2994 2138 
Q 2813 1869 2534 1725 
Q 2256 1581 1919 1581 
Q 1219 1581 811 2004 
Q 403 2428 403 3163 
Q 403 3881 828 4315 
Q 1253 4750 1959 4750 
Q 2769 4750 3195 4129 
Q 3622 3509 3622 2328 
Q 3622 1225 3098 567 
Q 2575 -91 1691 -91 
Q 1453 -91 1209 -44 
Q 966 3 703 97 
z
M 1959 2075 
Q 2384 2075 2632 2365 
Q 2881 2656 2881 3163 
Q 2881 3666 2632 3958 
Q 2384 4250 1959 4250 
Q 1534 4250 1286 3958 
Q 1038 3666 1038 3163 
Q 1038 2656 1286 2365 
Q 1534 2075 1959 2075 
z
" transform="scale(0.015625)"/>
       </defs>
       <use xlink:href="#DejaVuSans-32"/>
       <use xlink:href="#DejaVuSans-39" x="63.623047"/>
       <use xlink:href="#DejaVuSans-30" x="127.246094"/>
       <use xlink:href="#DejaVuSans-30" x="190.869141"/>
      </g>
     </g>
    </g>
    <g id="xtick_4">
     <g id="line2d_4">
      <g>
       <use xlink:href="#md11eedf3af" x="198.327273" y="192.24" style="stroke: #000000; stroke-width: 0.8"/>
      </g>
     </g>
     <g id="text_4">
      <!-- 3000 -->
      <g transform="translate(181.784773 209.117969)scale(0.13 -0.13)">
       <defs>
        <path id="DejaVuSans-33" d="M 2597 2516 
Q 3050 2419 3304 2112 
Q 3559 1806 3559 1356 
Q 3559 666 3084 287 
Q 2609 -91 1734 -91 
Q 1441 -91 1130 -33 
Q 819 25 488 141 
L 488 750 
Q 750 597 1062 519 
Q 1375 441 1716 441 
Q 2309 441 2620 675 
Q 2931 909 2931 1356 
Q 2931 1769 2642 2001 
Q 2353 2234 1838 2234 
L 1294 2234 
L 1294 2753 
L 1863 2753 
Q 2328 2753 2575 2939 
Q 2822 3125 2822 3475 
Q 2822 3834 2567 4026 
Q 2313 4219 1838 4219 
Q 1578 4219 1281 4162 
Q 984 4106 628 3988 
L 628 4550 
Q 988 4650 1302 4700 
Q 1616 4750 1894 4750 
Q 2613 4750 3031 4423 
Q 3450 4097 3450 3541 
Q 3450 3153 3228 2886 
Q 3006 2619 2597 2516 
z
" transform="scale(0.015625)"/>
       </defs>
       <use xlink:href="#DejaVuSans-33"/>
       <use xlink:href="#DejaVuSans-30" x="63.623047"/>
       <use xlink:href="#DejaVuSans-30" x="127.246094"/>
       <use xlink:href="#DejaVuSans-30" x="190.869141"/>
      </g>
     </g>
    </g>
    <g id="xtick_5">
     <g id="line2d_5">
      <g>
       <use xlink:href="#md11eedf3af" x="249.054545" y="192.24" style="stroke: #000000; stroke-width: 0.8"/>
      </g>
     </g>
     <g id="text_5">
      <!-- 3100 -->
      <g transform="translate(232.512045 209.117969)scale(0.13 -0.13)">
       <defs>
        <path id="DejaVuSans-31" d="M 794 531 
L 1825 531 
L 1825 4091 
L 703 3866 
L 703 4441 
L 1819 4666 
L 2450 4666 
L 2450 531 
L 3481 531 
L 3481 0 
L 794 0 
L 794 531 
z
" transform="scale(0.015625)"/>
       </defs>
       <use xlink:href="#DejaVuSans-33"/>
       <use xlink:href="#DejaVuSans-31" x="63.623047"/>
       <use xlink:href="#DejaVuSans-30" x="127.246094"/>
       <use xlink:href="#DejaVuSans-30" x="190.869141"/>
      </g>
     </g>
    </g>
   </g>
   <g id="matplotlib.axis_2">
    <g id="ytick_1">
     <g id="line2d_6">
      <defs>
       <path id="mfc1c074fb5" d="M 0 0 
L -3.5 0 
" style="stroke: #000000; stroke-width: 0.8"/>
      </defs>
      <g>
       <use xlink:href="#mfc1c074fb5" x="36" y="184.644547" style="stroke: #000000; stroke-width: 0.8"/>
      </g>
     </g>
     <g id="text_6">
      <!-- 0.0 -->
      <g transform="translate(8.325937 189.583531)scale(0.13 -0.13)">
       <defs>
        <path id="DejaVuSans-2e" d="M 684 794 
L 1344 794 
L 1344 0 
L 684 0 
L 684 794 
z
" transform="scale(0.015625)"/>
       </defs>
       <use xlink:href="#DejaVuSans-30"/>
       <use xlink:href="#DejaVuSans-2e" x="63.623047"/>
       <use xlink:href="#DejaVuSans-30" x="95.410156"/>
      </g>
     </g>
    </g>
    <g id="ytick_2">
     <g id="line2d_7">
      <g>
       <use xlink:href="#mfc1c074fb5" x="36" y="154.411637" style="stroke: #000000; stroke-width: 0.8"/>
      </g>
     </g>
     <g id="text_7">
      <!-- 0.2 -->
      <g transform="translate(8.325937 159.350622)scale(0.13 -0.13)">
       <use xlink:href="#DejaVuSans-30"/>
       <use xlink:href="#DejaVuSans-2e" x="63.623047"/>
       <use xlink:href="#DejaVuSans-32" x="95.410156"/>
      </g>
     </g>
    </g>
    <g id="ytick_3">
     <g id="line2d_8">
      <g>
       <use xlink:href="#mfc1c074fb5" x="36" y="124.178728" style="stroke: #000000; stroke-width: 0.8"/>
      </g>
     </g>
     <g id="text_8">
      <!-- 0.4 -->
      <g transform="translate(8.325937 129.117712)scale(0.13 -0.13)">
       <defs>
        <path id="DejaVuSans-34" d="M 2419 4116 
L 825 1625 
L 2419 1625 
L 2419 4116 
z
M 2253 4666 
L 3047 4666 
L 3047 1625 
L 3713 1625 
L 3713 1100 
L 3047 1100 
L 3047 0 
L 2419 0 
L 2419 1100 
L 313 1100 
L 313 1709 
L 2253 4666 
z
" transform="scale(0.015625)"/>
       </defs>
       <use xlink:href="#DejaVuSans-30"/>
       <use xlink:href="#DejaVuSans-2e" x="63.623047"/>
       <use xlink:href="#DejaVuSans-34" x="95.410156"/>
      </g>
     </g>
    </g>
    <g id="ytick_4">
     <g id="line2d_9">
      <g>
       <use xlink:href="#mfc1c074fb5" x="36" y="93.945819" style="stroke: #000000; stroke-width: 0.8"/>
      </g>
     </g>
     <g id="text_9">
      <!-- 0.6 -->
      <g transform="translate(8.325937 98.884803)scale(0.13 -0.13)">
       <defs>
        <path id="DejaVuSans-36" d="M 2113 2584 
Q 1688 2584 1439 2293 
Q 1191 2003 1191 1497 
Q 1191 994 1439 701 
Q 1688 409 2113 409 
Q 2538 409 2786 701 
Q 3034 994 3034 1497 
Q 3034 2003 2786 2293 
Q 2538 2584 2113 2584 
z
M 3366 4563 
L 3366 3988 
Q 3128 4100 2886 4159 
Q 2644 4219 2406 4219 
Q 1781 4219 1451 3797 
Q 1122 3375 1075 2522 
Q 1259 2794 1537 2939 
Q 1816 3084 2150 3084 
Q 2853 3084 3261 2657 
Q 3669 2231 3669 1497 
Q 3669 778 3244 343 
Q 2819 -91 2113 -91 
Q 1303 -91 875 529 
Q 447 1150 447 2328 
Q 447 3434 972 4092 
Q 1497 4750 2381 4750 
Q 2619 4750 2861 4703 
Q 3103 4656 3366 4563 
z
" transform="scale(0.015625)"/>
       </defs>
       <use xlink:href="#DejaVuSans-30"/>
       <use xlink:href="#DejaVuSans-2e" x="63.623047"/>
       <use xlink:href="#DejaVuSans-36" x="95.410156"/>
      </g>
     </g>
    </g>
    <g id="ytick_5">
     <g id="line2d_10">
      <g>
       <use xlink:href="#mfc1c074fb5" x="36" y="63.712909" style="stroke: #000000; stroke-width: 0.8"/>
      </g>
     </g>
     <g id="text_10">
      <!-- 0.8 -->
      <g transform="translate(8.325937 68.651894)scale(0.13 -0.13)">
       <use xlink:href="#DejaVuSans-30"/>
       <use xlink:href="#DejaVuSans-2e" x="63.623047"/>
       <use xlink:href="#DejaVuSans-38" x="95.410156"/>
      </g>
     </g>
    </g>
    <g id="ytick_6">
     <g id="line2d_11">
      <g>
       <use xlink:href="#mfc1c074fb5" x="36" y="33.48" style="stroke: #000000; stroke-width: 0.8"/>
      </g>
     </g>
     <g id="text_11">
      <!-- 1.0 -->
      <g transform="translate(8.325937 38.418984)scale(0.13 -0.13)">
       <use xlink:href="#DejaVuSans-31"/>
       <use xlink:href="#DejaVuSans-2e" x="63.623047"/>
       <use xlink:href="#DejaVuSans-30" x="95.410156"/>
      </g>
     </g>
    </g>
   </g>
   <g id="line2d_12">
    <path d="M 46.145455 184.343525 
L 46.957091 184.59171 
L 47.362909 184.387574 
L 49.392 184.486211 
L 50.203636 184.403235 
L 50.609455 184.533163 
L 51.015273 184.476914 
L 51.421091 184.565624 
L 51.826909 184.47029 
L 52.232727 184.242641 
L 52.638545 184.205512 
L 53.450182 184.530873 
L 53.856 184.286055 
L 54.261818 183.728139 
L 55.073455 183.620125 
L 55.479273 183.100198 
L 56.696727 182.786475 
L 57.102545 182.428822 
L 57.508364 182.319157 
L 57.914182 182.029099 
L 58.725818 182.577357 
L 59.131636 182.914694 
L 59.943273 183.090319 
L 60.349091 183.397068 
L 61.160727 183.659525 
L 61.972364 183.781397 
L 62.378182 183.392371 
L 62.784 183.177979 
L 63.189818 183.170864 
L 64.813091 182.418419 
L 65.218909 182.471182 
L 65.624727 182.70546 
L 66.030545 183.141417 
L 66.436364 183.056335 
L 67.248 183.485957 
L 68.059636 184.005494 
L 69.277091 184.241299 
L 69.682909 184.195699 
L 70.088727 184.44196 
L 71.306182 184.126655 
L 72.117818 184.238961 
L 72.523636 184.162348 
L 72.929455 184.465234 
L 73.741091 184.274571 
L 74.146909 184.469855 
L 74.552727 184.476025 
L 74.958545 184.161668 
L 75.364364 184.135778 
L 75.770182 184.2897 
L 77.799273 184.352585 
L 78.610909 183.568533 
L 79.016727 183.67106 
L 79.422545 183.476516 
L 79.828364 183.558376 
L 80.64 182.78948 
L 81.045818 182.573127 
L 82.263273 180.398658 
L 82.669091 179.090468 
L 83.074909 177.334269 
L 83.886545 172.059165 
L 84.292364 168.962536 
L 85.104 158.39023 
L 85.915636 143.646809 
L 86.727273 121.055931 
L 87.944727 76.231915 
L 89.162182 42.312727 
L 89.568 34.732297 
L 89.973818 33.48 
L 90.379636 38.74813 
L 91.191273 60.764392 
L 92.002909 88.952605 
L 93.220364 140.218738 
L 94.032 159.763063 
L 94.437818 166.047795 
L 95.249455 173.979936 
L 96.061091 178.733012 
L 96.466909 180.584253 
L 96.872727 181.802962 
L 97.684364 183.168086 
L 98.496 183.853321 
L 98.901818 183.777918 
L 99.713455 184.20101 
L 101.742545 184.236442 
L 102.148364 184.297801 
L 102.554182 184.046851 
L 103.365818 184.325313 
L 104.177455 184.411122 
L 104.583273 184.192337 
L 104.989091 184.250685 
L 105.394909 184.028172 
L 105.800727 184.144446 
L 106.206545 184.389483 
L 106.612364 184.421586 
L 107.018182 184.105567 
L 107.829818 184.35526 
L 108.235636 184.354625 
L 108.641455 184.527606 
L 109.047273 184.284887 
L 109.453091 184.212361 
L 109.858909 184.355382 
L 110.264727 184.277934 
L 111.076364 184.450737 
L 111.482182 184.452885 
L 111.888 184.323464 
L 112.293818 184.507504 
L 113.105455 184.40978 
L 116.757818 184.424676 
L 117.163636 184.350128 
L 117.569455 184.044469 
L 118.381091 183.957657 
L 118.786909 183.833133 
L 119.192727 183.959453 
L 120.816 182.824542 
L 121.221818 182.675842 
L 121.627636 182.405175 
L 123.656727 183.254045 
L 124.468364 183.794174 
L 124.874182 183.915884 
L 125.685818 183.526615 
L 126.903273 183.30487 
L 127.309091 183.161311 
L 127.714909 183.263622 
L 128.120727 183.117112 
L 128.932364 183.054184 
L 129.338182 183.006425 
L 129.744 183.402698 
L 130.149818 183.28428 
L 130.961455 183.464106 
L 131.773091 183.723872 
L 132.178909 183.499845 
L 132.990545 183.961847 
L 133.396364 184.20112 
L 135.019636 184.359523 
L 135.425455 184.470217 
L 135.831273 184.369258 
L 136.237091 184.447671 
L 137.048727 184.272416 
L 137.454545 184.330674 
L 137.860364 184.66169 
L 138.266182 184.369427 
L 138.672 184.223022 
L 139.077818 184.368185 
L 140.295273 184.545077 
L 140.701091 184.632457 
L 141.918545 184.225669 
L 142.730182 184.567268 
L 143.947636 184.529416 
L 144.353455 184.280252 
L 145.165091 184.601177 
L 147.194182 184.306406 
L 148.005818 184.352366 
L 148.411636 184.248547 
L 148.817455 184.268256 
L 149.223273 183.830794 
L 150.034909 183.312004 
L 150.440727 183.0246 
L 151.658182 181.630709 
L 152.469818 181.738301 
L 153.687273 182.32691 
L 154.093091 182.743461 
L 154.498909 182.975329 
L 154.904727 183.419571 
L 155.716364 183.444201 
L 156.122182 183.398878 
L 156.933818 183.003467 
L 157.745455 183.219196 
L 158.151273 182.901162 
L 158.557091 182.822726 
L 158.962909 182.941022 
L 159.368727 182.91128 
L 160.180364 183.31592 
L 160.586182 183.342937 
L 160.992 183.170296 
L 161.397818 183.207593 
L 162.209455 183.697356 
L 162.615273 183.704923 
L 163.426909 184.278798 
L 164.238545 184.389905 
L 164.644364 184.320105 
L 165.050182 184.512976 
L 165.861818 184.226341 
L 166.267636 184.507976 
L 167.079273 184.448543 
L 167.485091 184.359723 
L 168.702545 184.60474 
L 169.92 184.244318 
L 171.137455 184.34571 
L 171.543273 184.206395 
L 171.949091 184.208167 
L 172.354909 184.35747 
L 173.166545 184.241712 
L 173.572364 183.96528 
L 173.978182 184.012256 
L 175.195636 183.80043 
L 176.007273 183.053002 
L 176.413091 182.549197 
L 177.224727 180.961158 
L 177.630545 179.612991 
L 178.036364 177.765738 
L 178.442182 175.21699 
L 179.253818 168.042016 
L 180.065455 157.30039 
L 180.471273 150.183994 
L 181.282909 129.244698 
L 182.094545 99.089629 
L 182.500364 79.918205 
L 183.312 55.824291 
L 183.717818 46.558233 
L 184.123636 42.1231 
L 184.529455 42.780307 
L 184.935273 48.082737 
L 185.746909 73.738375 
L 186.558545 102.234177 
L 187.370182 133.109681 
L 188.181818 153.593816 
L 188.993455 165.862955 
L 189.805091 172.871325 
L 190.616727 177.718578 
L 191.022545 179.623577 
L 191.834182 181.74273 
L 192.645818 182.60141 
L 193.051636 183.355413 
L 194.269091 183.765645 
L 194.674909 183.633051 
L 195.080727 183.676202 
L 195.486545 183.991405 
L 197.109818 184.328625 
L 197.515636 184.199002 
L 197.921455 184.259777 
L 198.327273 184.088853 
L 199.544727 184.100484 
L 199.950545 184.285406 
L 200.762182 184.124117 
L 201.168 184.217825 
L 201.573818 184.186505 
L 201.979636 184.405017 
L 202.385455 184.288006 
L 202.791273 184.042726 
L 203.602909 184.003647 
L 204.820364 184.447425 
L 205.226182 184.294109 
L 206.037818 184.533547 
L 206.443636 184.407481 
L 207.255273 184.520915 
L 207.661091 184.580753 
L 208.066909 184.418441 
L 209.284364 184.577421 
L 209.690182 184.332083 
L 210.096 184.45412 
L 210.907636 184.451056 
L 211.313455 184.245376 
L 211.719273 184.34896 
L 212.125091 184.335317 
L 212.530909 184.123904 
L 212.936727 184.078603 
L 213.342545 183.799811 
L 214.154182 183.623864 
L 214.56 183.189329 
L 215.777455 182.809249 
L 216.183273 182.89176 
L 217.400727 182.86299 
L 217.806545 183.029109 
L 218.212364 183.49674 
L 218.618182 183.675229 
L 219.024 183.651093 
L 219.429818 183.840443 
L 219.835636 183.710198 
L 220.647273 183.633363 
L 221.053091 183.268928 
L 224.299636 182.527386 
L 225.111273 183.326022 
L 225.517091 183.395606 
L 226.734545 183.945486 
L 227.140364 184.005875 
L 227.952 184.387406 
L 228.763636 184.337747 
L 229.575273 184.531524 
L 229.981091 184.469941 
L 230.386909 184.231565 
L 231.198545 184.460607 
L 231.604364 184.613443 
L 232.010182 184.595023 
L 232.416 184.312417 
L 232.821818 184.236146 
L 233.633455 184.391872 
L 234.850909 184.326651 
L 235.662545 184.36638 
L 236.068364 184.593365 
L 236.474182 184.408154 
L 236.88 184.347528 
L 237.691636 184.504213 
L 238.503273 184.385658 
L 238.909091 184.636001 
L 239.314909 184.451366 
L 240.126545 184.604442 
L 241.344 184.388592 
L 242.155636 184.430462 
L 242.967273 184.387228 
L 243.778909 184.68 
L 244.590545 184.337166 
L 244.996364 184.269694 
L 246.213818 184.545473 
L 247.025455 184.352194 
L 247.837091 184.575032 
L 248.648727 184.463558 
L 249.054545 184.511284 
L 249.054545 184.511284 
" clip-path="url(#p525f272c70)" style="fill: none; stroke: #1f77b4; stroke-width: 1.5; stroke-linecap: square"/>
   </g>
   <g id="patch_3">
    <path d="M 36 192.24 
L 36 25.92 
" style="fill: none; stroke: #000000; stroke-width: 0.8; stroke-linejoin: miter; stroke-linecap: square"/>
   </g>
   <g id="patch_4">
    <path d="M 259.2 192.24 
L 259.2 25.92 
" style="fill: none; stroke: #000000; stroke-width: 0.8; stroke-linejoin: miter; stroke-linecap: square"/>
   </g>
   <g id="patch_5">
    <path d="M 36 192.24 
L 259.2 192.24 
" style="fill: none; stroke: #000000; stroke-width: 0.8; stroke-linejoin: miter; stroke-linecap: square"/>
   </g>
   <g id="patch_6">
    <path d="M 36 25.92 
L 259.2 25.92 
" style="fill: none; stroke: #000000; stroke-width: 0.8; stroke-linejoin: miter; stroke-linecap: square"/>
   </g>
  </g>
 </g>
 <defs>
  <clipPath id="p525f272c70">
   <rect x="36" y="25.92" width="223.2" height="166.32"/>
  </clipPath>
 </defs>
</svg>
