<?xml version="1.0" encoding="utf-8" standalone="no"?>
<!DOCTYPE svg PUBLIC "-//W3C//DTD SVG 1.1//EN"
  "http://www.w3.org/Graphics/SVG/1.1/DTD/svg11.dtd">
<svg xmlns:xlink="http://www.w3.org/1999/xlink" width="432pt" height="288pt" viewBox="0 0 432 288" xmlns="http://www.w3.org/2000/svg" version="1.1">
 <metadata>
  <rdf:RDF xmlns:dc="http://purl.org/dc/elements/1.1/" xmlns:cc="http://creativecommons.org/ns#" xmlns:rdf="http://www.w3.org/1999/02/22-rdf-syntax-ns#">
   <cc:Work>
    <dc:type rdf:resource="http://purl.org/dc/dcmitype/StillImage"/>
    <dc:date>2022-07-27T21:20:58.426525</dc:date>
    <dc:format>image/svg+xml</dc:format>
    <dc:creator>
     <cc:Agent>
      <dc:title>Matplotlib v3.5.1, https://matplotlib.org/</dc:title>
     </cc:Agent>
    </dc:creator>
   </cc:Work>
  </rdf:RDF>
 </metadata>
 <defs>
  <style type="text/css">*{stroke-linejoin: round; stroke-linecap: butt}</style>
 </defs>
 <g id="figure_1">
  <g id="patch_1">
   <path d="M 0 288 
L 432 288 
L 432 0 
L 0 0 
z
" style="fill: #ffffff"/>
  </g>
  <g id="axes_1">
   <g id="patch_2">
    <path d="M 54 256.32 
L 388.8 256.32 
L 388.8 34.56 
L 54 34.56 
z
" style="fill: #ffffff"/>
   </g>
   <g id="matplotlib.axis_1">
    <g id="xtick_1">
     <g id="line2d_1">
      <defs>
       <path id="m686712b5b9" d="M 0 0 
L 0 3.5 
" style="stroke: #000000; stroke-width: 0.8"/>
      </defs>
      <g>
       <use xlink:href="#m686712b5b9" x="66.143802" y="256.32" style="stroke: #000000; stroke-width: 0.8"/>
      </g>
     </g>
     <g id="text_1">
      <!-- 0 -->
      <g transform="translate(61.690052 273.957812)scale(0.14 -0.14)">
       <defs>
        <path id="DejaVuSans-30" d="M 2034 4250 
Q 1547 4250 1301 3770 
Q 1056 3291 1056 2328 
Q 1056 1369 1301 889 
Q 1547 409 2034 409 
Q 2525 409 2770 889 
Q 3016 1369 3016 2328 
Q 3016 3291 2770 3770 
Q 2525 4250 2034 4250 
z
M 2034 4750 
Q 2819 4750 3233 4129 
Q 3647 3509 3647 2328 
Q 3647 1150 3233 529 
Q 2819 -91 2034 -91 
Q 1250 -91 836 529 
Q 422 1150 422 2328 
Q 422 3509 836 4129 
Q 1250 4750 2034 4750 
z
" transform="scale(0.015625)"/>
       </defs>
       <use xlink:href="#DejaVuSans-30"/>
      </g>
     </g>
    </g>
    <g id="xtick_2">
     <g id="line2d_2">
      <g>
       <use xlink:href="#m686712b5b9" x="127.631405" y="256.32" style="stroke: #000000; stroke-width: 0.8"/>
      </g>
     </g>
     <g id="text_2">
      <!-- 100 -->
      <g transform="translate(114.270155 273.957812)scale(0.14 -0.14)">
       <defs>
        <path id="DejaVuSans-31" d="M 794 531 
L 1825 531 
L 1825 4091 
L 703 3866 
L 703 4441 
L 1819 4666 
L 2450 4666 
L 2450 531 
L 3481 531 
L 3481 0 
L 794 0 
L 794 531 
z
" transform="scale(0.015625)"/>
       </defs>
       <use xlink:href="#DejaVuSans-31"/>
       <use xlink:href="#DejaVuSans-30" x="63.623047"/>
       <use xlink:href="#DejaVuSans-30" x="127.246094"/>
      </g>
     </g>
    </g>
    <g id="xtick_3">
     <g id="line2d_3">
      <g>
       <use xlink:href="#m686712b5b9" x="189.119008" y="256.32" style="stroke: #000000; stroke-width: 0.8"/>
      </g>
     </g>
     <g id="text_3">
      <!-- 200 -->
      <g transform="translate(175.757758 273.957812)scale(0.14 -0.14)">
       <defs>
        <path id="DejaVuSans-32" d="M 1228 531 
L 3431 531 
L 3431 0 
L 469 0 
L 469 531 
Q 828 903 1448 1529 
Q 2069 2156 2228 2338 
Q 2531 2678 2651 2914 
Q 2772 3150 2772 3378 
Q 2772 3750 2511 3984 
Q 2250 4219 1831 4219 
Q 1534 4219 1204 4116 
Q 875 4013 500 3803 
L 500 4441 
Q 881 4594 1212 4672 
Q 1544 4750 1819 4750 
Q 2544 4750 2975 4387 
Q 3406 4025 3406 3419 
Q 3406 3131 3298 2873 
Q 3191 2616 2906 2266 
Q 2828 2175 2409 1742 
Q 1991 1309 1228 531 
z
" transform="scale(0.015625)"/>
       </defs>
       <use xlink:href="#DejaVuSans-32"/>
       <use xlink:href="#DejaVuSans-30" x="63.623047"/>
       <use xlink:href="#DejaVuSans-30" x="127.246094"/>
      </g>
     </g>
    </g>
    <g id="xtick_4">
     <g id="line2d_4">
      <g>
       <use xlink:href="#m686712b5b9" x="250.606612" y="256.32" style="stroke: #000000; stroke-width: 0.8"/>
      </g>
     </g>
     <g id="text_4">
      <!-- 300 -->
      <g transform="translate(237.245362 273.957812)scale(0.14 -0.14)">
       <defs>
        <path id="DejaVuSans-33" d="M 2597 2516 
Q 3050 2419 3304 2112 
Q 3559 1806 3559 1356 
Q 3559 666 3084 287 
Q 2609 -91 1734 -91 
Q 1441 -91 1130 -33 
Q 819 25 488 141 
L 488 750 
Q 750 597 1062 519 
Q 1375 441 1716 441 
Q 2309 441 2620 675 
Q 2931 909 2931 1356 
Q 2931 1769 2642 2001 
Q 2353 2234 1838 2234 
L 1294 2234 
L 1294 2753 
L 1863 2753 
Q 2328 2753 2575 2939 
Q 2822 3125 2822 3475 
Q 2822 3834 2567 4026 
Q 2313 4219 1838 4219 
Q 1578 4219 1281 4162 
Q 984 4106 628 3988 
L 628 4550 
Q 988 4650 1302 4700 
Q 1616 4750 1894 4750 
Q 2613 4750 3031 4423 
Q 3450 4097 3450 3541 
Q 3450 3153 3228 2886 
Q 3006 2619 2597 2516 
z
" transform="scale(0.015625)"/>
       </defs>
       <use xlink:href="#DejaVuSans-33"/>
       <use xlink:href="#DejaVuSans-30" x="63.623047"/>
       <use xlink:href="#DejaVuSans-30" x="127.246094"/>
      </g>
     </g>
    </g>
    <g id="xtick_5">
     <g id="line2d_5">
      <g>
       <use xlink:href="#m686712b5b9" x="312.094215" y="256.32" style="stroke: #000000; stroke-width: 0.8"/>
      </g>
     </g>
     <g id="text_5">
      <!-- 400 -->
      <g transform="translate(298.732965 273.957812)scale(0.14 -0.14)">
       <defs>
        <path id="DejaVuSans-34" d="M 2419 4116 
L 825 1625 
L 2419 1625 
L 2419 4116 
z
M 2253 4666 
L 3047 4666 
L 3047 1625 
L 3713 1625 
L 3713 1100 
L 3047 1100 
L 3047 0 
L 2419 0 
L 2419 1100 
L 313 1100 
L 313 1709 
L 2253 4666 
z
" transform="scale(0.015625)"/>
       </defs>
       <use xlink:href="#DejaVuSans-34"/>
       <use xlink:href="#DejaVuSans-30" x="63.623047"/>
       <use xlink:href="#DejaVuSans-30" x="127.246094"/>
      </g>
     </g>
    </g>
    <g id="xtick_6">
     <g id="line2d_6">
      <g>
       <use xlink:href="#m686712b5b9" x="373.581818" y="256.32" style="stroke: #000000; stroke-width: 0.8"/>
      </g>
     </g>
     <g id="text_6">
      <!-- 500 -->
      <g transform="translate(360.220568 273.957812)scale(0.14 -0.14)">
       <defs>
        <path id="DejaVuSans-35" d="M 691 4666 
L 3169 4666 
L 3169 4134 
L 1269 4134 
L 1269 2991 
Q 1406 3038 1543 3061 
Q 1681 3084 1819 3084 
Q 2600 3084 3056 2656 
Q 3513 2228 3513 1497 
Q 3513 744 3044 326 
Q 2575 -91 1722 -91 
Q 1428 -91 1123 -41 
Q 819 9 494 109 
L 494 744 
Q 775 591 1075 516 
Q 1375 441 1709 441 
Q 2250 441 2565 725 
Q 2881 1009 2881 1497 
Q 2881 1984 2565 2268 
Q 2250 2553 1709 2553 
Q 1456 2553 1204 2497 
Q 953 2441 691 2322 
L 691 4666 
z
" transform="scale(0.015625)"/>
       </defs>
       <use xlink:href="#DejaVuSans-35"/>
       <use xlink:href="#DejaVuSans-30" x="63.623047"/>
       <use xlink:href="#DejaVuSans-30" x="127.246094"/>
      </g>
     </g>
    </g>
   </g>
   <g id="matplotlib.axis_2">
    <g id="ytick_1">
     <g id="line2d_7">
      <defs>
       <path id="mb8dd66bf64" d="M 0 0 
L -3.5 0 
" style="stroke: #000000; stroke-width: 0.8"/>
      </defs>
      <g>
       <use xlink:href="#mb8dd66bf64" x="54" y="247.826539" style="stroke: #000000; stroke-width: 0.8"/>
      </g>
     </g>
     <g id="text_7">
      <!-- 0.0 -->
      <g transform="translate(24.735625 253.145445)scale(0.14 -0.14)">
       <defs>
        <path id="DejaVuSans-2e" d="M 684 794 
L 1344 794 
L 1344 0 
L 684 0 
L 684 794 
z
" transform="scale(0.015625)"/>
       </defs>
       <use xlink:href="#DejaVuSans-30"/>
       <use xlink:href="#DejaVuSans-2e" x="63.623047"/>
       <use xlink:href="#DejaVuSans-30" x="95.410156"/>
      </g>
     </g>
    </g>
    <g id="ytick_2">
     <g id="line2d_8">
      <g>
       <use xlink:href="#mb8dd66bf64" x="54" y="207.189231" style="stroke: #000000; stroke-width: 0.8"/>
      </g>
     </g>
     <g id="text_8">
      <!-- 0.2 -->
      <g transform="translate(24.735625 212.508137)scale(0.14 -0.14)">
       <use xlink:href="#DejaVuSans-30"/>
       <use xlink:href="#DejaVuSans-2e" x="63.623047"/>
       <use xlink:href="#DejaVuSans-32" x="95.410156"/>
      </g>
     </g>
    </g>
    <g id="ytick_3">
     <g id="line2d_9">
      <g>
       <use xlink:href="#mb8dd66bf64" x="54" y="166.551923" style="stroke: #000000; stroke-width: 0.8"/>
      </g>
     </g>
     <g id="text_9">
      <!-- 0.4 -->
      <g transform="translate(24.735625 171.87083)scale(0.14 -0.14)">
       <use xlink:href="#DejaVuSans-30"/>
       <use xlink:href="#DejaVuSans-2e" x="63.623047"/>
       <use xlink:href="#DejaVuSans-34" x="95.410156"/>
      </g>
     </g>
    </g>
    <g id="ytick_4">
     <g id="line2d_10">
      <g>
       <use xlink:href="#mb8dd66bf64" x="54" y="125.914616" style="stroke: #000000; stroke-width: 0.8"/>
      </g>
     </g>
     <g id="text_10">
      <!-- 0.6 -->
      <g transform="translate(24.735625 131.233522)scale(0.14 -0.14)">
       <defs>
        <path id="DejaVuSans-36" d="M 2113 2584 
Q 1688 2584 1439 2293 
Q 1191 2003 1191 1497 
Q 1191 994 1439 701 
Q 1688 409 2113 409 
Q 2538 409 2786 701 
Q 3034 994 3034 1497 
Q 3034 2003 2786 2293 
Q 2538 2584 2113 2584 
z
M 3366 4563 
L 3366 3988 
Q 3128 4100 2886 4159 
Q 2644 4219 2406 4219 
Q 1781 4219 1451 3797 
Q 1122 3375 1075 2522 
Q 1259 2794 1537 2939 
Q 1816 3084 2150 3084 
Q 2853 3084 3261 2657 
Q 3669 2231 3669 1497 
Q 3669 778 3244 343 
Q 2819 -91 2113 -91 
Q 1303 -91 875 529 
Q 447 1150 447 2328 
Q 447 3434 972 4092 
Q 1497 4750 2381 4750 
Q 2619 4750 2861 4703 
Q 3103 4656 3366 4563 
z
" transform="scale(0.015625)"/>
       </defs>
       <use xlink:href="#DejaVuSans-30"/>
       <use xlink:href="#DejaVuSans-2e" x="63.623047"/>
       <use xlink:href="#DejaVuSans-36" x="95.410156"/>
      </g>
     </g>
    </g>
    <g id="ytick_5">
     <g id="line2d_11">
      <g>
       <use xlink:href="#mb8dd66bf64" x="54" y="85.277308" style="stroke: #000000; stroke-width: 0.8"/>
      </g>
     </g>
     <g id="text_11">
      <!-- 0.8 -->
      <g transform="translate(24.735625 90.596214)scale(0.14 -0.14)">
       <defs>
        <path id="DejaVuSans-38" d="M 2034 2216 
Q 1584 2216 1326 1975 
Q 1069 1734 1069 1313 
Q 1069 891 1326 650 
Q 1584 409 2034 409 
Q 2484 409 2743 651 
Q 3003 894 3003 1313 
Q 3003 1734 2745 1975 
Q 2488 2216 2034 2216 
z
M 1403 2484 
Q 997 2584 770 2862 
Q 544 3141 544 3541 
Q 544 4100 942 4425 
Q 1341 4750 2034 4750 
Q 2731 4750 3128 4425 
Q 3525 4100 3525 3541 
Q 3525 3141 3298 2862 
Q 3072 2584 2669 2484 
Q 3125 2378 3379 2068 
Q 3634 1759 3634 1313 
Q 3634 634 3220 271 
Q 2806 -91 2034 -91 
Q 1263 -91 848 271 
Q 434 634 434 1313 
Q 434 1759 690 2068 
Q 947 2378 1403 2484 
z
M 1172 3481 
Q 1172 3119 1398 2916 
Q 1625 2713 2034 2713 
Q 2441 2713 2670 2916 
Q 2900 3119 2900 3481 
Q 2900 3844 2670 4047 
Q 2441 4250 2034 4250 
Q 1625 4250 1398 4047 
Q 1172 3844 1172 3481 
z
" transform="scale(0.015625)"/>
       </defs>
       <use xlink:href="#DejaVuSans-30"/>
       <use xlink:href="#DejaVuSans-2e" x="63.623047"/>
       <use xlink:href="#DejaVuSans-38" x="95.410156"/>
      </g>
     </g>
    </g>
    <g id="ytick_6">
     <g id="line2d_12">
      <g>
       <use xlink:href="#mb8dd66bf64" x="54" y="44.64" style="stroke: #000000; stroke-width: 0.8"/>
      </g>
     </g>
     <g id="text_12">
      <!-- 1.0 -->
      <g transform="translate(24.735625 49.958906)scale(0.14 -0.14)">
       <use xlink:href="#DejaVuSans-31"/>
       <use xlink:href="#DejaVuSans-2e" x="63.623047"/>
       <use xlink:href="#DejaVuSans-30" x="95.410156"/>
      </g>
     </g>
    </g>
   </g>
   <g id="line2d_13">
    <path d="M 69.218182 44.64 
L 72.292562 44.64 
L 75.366942 44.64 
L 78.441322 44.64 
L 81.515702 44.64 
L 84.590083 44.64 
L 87.664463 44.64 
L 90.738843 44.64 
L 93.813223 44.64 
L 96.887603 44.64 
L 99.961983 44.64 
L 103.036364 44.64 
L 106.110744 44.64 
L 109.185124 44.64 
L 112.259504 44.64 
L 115.333884 44.64 
L 118.408264 44.64 
L 121.482645 44.64 
L 124.557025 44.64 
L 127.631405 44.64 
L 130.705785 44.64 
L 133.780165 44.64 
L 136.854545 44.64 
L 139.928926 44.64 
L 143.003306 44.64 
L 146.077686 44.64 
L 149.152066 44.64 
L 152.226446 44.64 
L 155.300826 44.64 
L 158.375207 44.64 
L 161.449587 44.64 
L 164.523967 44.64 
L 167.598347 44.64 
L 170.672727 44.64 
L 173.747107 44.64 
L 176.821488 44.64 
L 179.895868 44.64 
L 182.970248 44.64 
L 186.044628 44.64 
L 189.119008 44.64 
L 192.193388 44.64 
L 195.267769 44.64 
L 198.342149 44.64 
L 201.416529 44.64 
L 204.490909 44.64 
L 207.565289 44.64 
L 210.639669 44.64 
L 213.71405 44.64 
L 216.78843 44.64 
L 219.86281 44.64 
L 222.93719 44.64 
L 226.01157 44.64 
L 229.08595 44.64 
L 232.160331 44.64 
L 235.234711 44.64 
L 238.309091 44.64 
L 241.383471 44.64 
L 244.457851 44.64 
L 247.532231 44.64 
L 250.606612 44.64 
L 253.680992 44.64 
L 256.755372 44.64 
L 259.829752 44.64 
L 262.904132 44.64 
L 265.978512 44.64 
L 269.052893 44.64 
L 272.127273 44.64 
L 275.201653 44.64 
L 278.276033 44.64 
L 281.350413 44.64 
L 284.424793 44.64 
L 287.499174 44.64 
L 290.573554 44.64 
L 293.647934 44.64 
L 296.722314 44.64 
L 299.796694 44.64 
L 302.871074 44.64 
L 305.945455 44.64 
L 309.019835 44.64 
L 312.094215 44.64 
L 315.168595 44.64 
L 318.242975 44.64 
L 321.317355 44.64 
L 324.391736 44.64 
L 327.466116 44.64 
L 330.540496 44.64 
L 333.614876 44.64 
L 336.689256 44.64 
L 339.763636 44.64 
L 342.838017 44.64 
L 345.912397 44.64 
L 348.986777 44.64 
L 352.061157 44.64 
L 355.135537 44.64 
L 358.209917 44.64 
L 361.284298 44.64 
L 364.358678 44.64 
L 367.433058 44.64 
L 370.507438 44.64 
L 373.581818 44.64 
" clip-path="url(#pae63bb754b)" style="fill: none; stroke: #1f77b4; stroke-width: 1.5; stroke-linecap: square"/>
   </g>
   <g id="line2d_14">
    <path d="M 69.218182 44.64 
L 72.292562 45.90184 
L 75.366942 47.979323 
L 78.441322 50.835102 
L 81.515702 54.418948 
L 84.590083 58.669653 
L 87.664463 63.517267 
L 90.738843 68.885505 
L 93.813223 74.694222 
L 96.887603 80.86179 
L 99.961983 87.307307 
L 103.036364 93.952526 
L 106.110744 100.723466 
L 109.185124 107.551673 
L 112.259504 114.375123 
L 115.333884 121.138792 
L 118.408264 127.794921 
L 121.482645 134.303011 
L 124.557025 140.629617 
L 127.631405 146.747965 
L 130.705785 152.637449 
L 133.780165 158.283056 
L 136.854545 163.674747 
L 139.928926 168.806823 
L 143.003306 173.677307 
L 146.077686 178.287351 
L 149.152066 182.640688 
L 152.226446 186.743134 
L 155.300826 190.602135 
L 158.375207 194.226377 
L 161.449587 197.625448 
L 164.523967 200.809539 
L 167.598347 203.789209 
L 170.672727 206.575178 
L 173.747107 209.178162 
L 176.821488 211.608744 
L 179.895868 213.877269 
L 182.970248 215.993768 
L 186.044628 217.967896 
L 189.119008 219.808895 
L 192.193388 221.525568 
L 195.267769 223.126261 
L 198.342149 224.61886 
L 201.416529 226.010792 
L 204.490909 227.309035 
L 207.565289 228.520126 
L 210.639669 229.650181 
L 213.71405 230.704908 
L 216.78843 231.689628 
L 219.86281 232.609298 
L 222.93719 233.468524 
L 226.01157 234.27159 
L 229.08595 235.022471 
L 232.160331 235.724857 
L 235.234711 236.38217 
L 238.309091 236.997582 
L 241.383471 237.574033 
L 244.457851 238.114247 
L 247.532231 238.620749 
L 250.606612 239.095876 
L 253.680992 239.541796 
L 256.755372 239.960513 
L 259.829752 240.353889 
L 262.904132 240.723645 
L 265.978512 241.071377 
L 269.052893 241.398566 
L 272.127273 241.706585 
L 275.201653 241.996705 
L 278.276033 242.270107 
L 281.350413 242.527886 
L 284.424793 242.77106 
L 287.499174 243.000573 
L 290.573554 243.217303 
L 293.647934 243.422063 
L 296.722314 243.615613 
L 299.796694 243.798657 
L 302.871074 243.971851 
L 305.945455 244.135806 
L 309.019835 244.291089 
L 312.094215 244.438231 
L 315.168595 244.577725 
L 318.242975 244.710032 
L 321.317355 244.83558 
L 324.391736 244.95477 
L 327.466116 245.067977 
L 330.540496 245.17555 
L 333.614876 245.277815 
L 336.689256 245.375079 
L 339.763636 245.467626 
L 342.838017 245.555723 
L 345.912397 245.639622 
L 348.986777 245.719556 
L 352.061157 245.795745 
L 355.135537 245.868395 
L 358.209917 245.937699 
L 361.284298 246.003839 
L 364.358678 246.066983 
L 367.433058 246.127293 
L 370.507438 246.184918 
L 373.581818 246.24 
" clip-path="url(#pae63bb754b)" style="fill: none; stroke-dasharray: 5.55,2.4; stroke-dashoffset: 0; stroke: #1f77b4; stroke-width: 1.5"/>
   </g>
   <g id="patch_3">
    <path d="M 54 256.32 
L 54 34.56 
" style="fill: none; stroke: #000000; stroke-width: 0.8; stroke-linejoin: miter; stroke-linecap: square"/>
   </g>
   <g id="patch_4">
    <path d="M 388.8 256.32 
L 388.8 34.56 
" style="fill: none; stroke: #000000; stroke-width: 0.8; stroke-linejoin: miter; stroke-linecap: square"/>
   </g>
   <g id="patch_5">
    <path d="M 54 256.32 
L 388.8 256.32 
" style="fill: none; stroke: #000000; stroke-width: 0.8; stroke-linejoin: miter; stroke-linecap: square"/>
   </g>
   <g id="patch_6">
    <path d="M 54 34.56 
L 388.8 34.56 
" style="fill: none; stroke: #000000; stroke-width: 0.8; stroke-linejoin: miter; stroke-linecap: square"/>
   </g>
   <g id="legend_1">
    <g id="patch_7">
     <path d="M 61 251.32 
L 149.5 251.32 
Q 151.5 251.32 151.5 249.32 
L 151.5 220.32 
Q 151.5 218.32 149.5 218.32 
L 61 218.32 
Q 59 218.32 59 220.32 
L 59 249.32 
Q 59 251.32 61 251.32 
z
" style="fill: #ffffff; opacity: 0.8; stroke: #cccccc; stroke-linejoin: miter"/>
    </g>
    <g id="line2d_15">
     <path d="M 63 226.62 
L 73 226.62 
L 83 226.62 
" style="fill: none; stroke: #1f77b4; stroke-width: 1.5; stroke-linecap: square"/>
    </g>
    <g id="text_13">
     <!-- NV $\parallel$ [111] -->
     <g transform="translate(91 230.12)scale(0.1 -0.1)">
      <defs>
       <path id="DejaVuSans-4e" d="M 628 4666 
L 1478 4666 
L 3547 763 
L 3547 4666 
L 4159 4666 
L 4159 0 
L 3309 0 
L 1241 3903 
L 1241 0 
L 628 0 
L 628 4666 
z
" transform="scale(0.015625)"/>
       <path id="DejaVuSans-56" d="M 1831 0 
L 50 4666 
L 709 4666 
L 2188 738 
L 3669 4666 
L 4325 4666 
L 2547 0 
L 1831 0 
z
" transform="scale(0.015625)"/>
       <path id="DejaVuSans-20" transform="scale(0.015625)"/>
       <path id="DejaVuSans-2225" d="M 850 4934 
L 1350 4934 
L 1350 -1369 
L 850 -1369 
L 850 4934 
z
M 1850 4934 
L 2350 4934 
L 2350 -1369 
L 1850 -1369 
L 1850 4934 
z
" transform="scale(0.015625)"/>
       <path id="DejaVuSans-5b" d="M 550 4863 
L 1875 4863 
L 1875 4416 
L 1125 4416 
L 1125 -397 
L 1875 -397 
L 1875 -844 
L 550 -844 
L 550 4863 
z
" transform="scale(0.015625)"/>
       <path id="DejaVuSans-5d" d="M 1947 4863 
L 1947 -844 
L 622 -844 
L 622 -397 
L 1369 -397 
L 1369 4416 
L 622 4416 
L 622 4863 
L 1947 4863 
z
" transform="scale(0.015625)"/>
      </defs>
      <use xlink:href="#DejaVuSans-4e" transform="translate(0 0.90625)"/>
      <use xlink:href="#DejaVuSans-56" transform="translate(74.804688 0.90625)"/>
      <use xlink:href="#DejaVuSans-20" transform="translate(143.212891 0.90625)"/>
      <use xlink:href="#DejaVuSans-2225" transform="translate(194.482422 0.90625)"/>
      <use xlink:href="#DejaVuSans-20" transform="translate(263.964844 0.90625)"/>
      <use xlink:href="#DejaVuSans-5b" transform="translate(295.751953 0.90625)"/>
      <use xlink:href="#DejaVuSans-31" transform="translate(334.765625 0.90625)"/>
      <use xlink:href="#DejaVuSans-31" transform="translate(398.388672 0.90625)"/>
      <use xlink:href="#DejaVuSans-31" transform="translate(462.011719 0.90625)"/>
      <use xlink:href="#DejaVuSans-5d" transform="translate(525.634766 0.90625)"/>
     </g>
    </g>
    <g id="line2d_16">
     <path d="M 63 241.62 
L 73 241.62 
L 83 241.62 
" style="fill: none; stroke-dasharray: 5.55,2.4; stroke-dashoffset: 0; stroke: #1f77b4; stroke-width: 1.5"/>
    </g>
    <g id="text_14">
     <!-- NV $\nparallel$ [111] -->
     <g transform="translate(91 245.12)scale(0.1 -0.1)">
      <defs>
       <path id="DejaVuSans-2226" d="M 850 1519 
L 850 4934 
L 1350 4934 
L 1350 1869 
L 1850 2222 
L 1850 4934 
L 2350 4934 
L 2350 2572 
L 2634 2772 
L 2884 2425 
L 2350 2050 
L 2350 -1369 
L 1850 -1369 
L 1850 1703 
L 1350 1353 
L 1350 -1369 
L 850 -1369 
L 850 1003 
L 559 800 
L 319 1144 
L 850 1519 
z
" transform="scale(0.015625)"/>
      </defs>
      <use xlink:href="#DejaVuSans-4e" transform="translate(0 0.90625)"/>
      <use xlink:href="#DejaVuSans-56" transform="translate(74.804688 0.90625)"/>
      <use xlink:href="#DejaVuSans-20" transform="translate(143.212891 0.90625)"/>
      <use xlink:href="#DejaVuSans-2226" transform="translate(175 0.90625)"/>
      <use xlink:href="#DejaVuSans-20" transform="translate(225 0.90625)"/>
      <use xlink:href="#DejaVuSans-5b" transform="translate(256.787109 0.90625)"/>
      <use xlink:href="#DejaVuSans-31" transform="translate(295.800781 0.90625)"/>
      <use xlink:href="#DejaVuSans-31" transform="translate(359.423828 0.90625)"/>
      <use xlink:href="#DejaVuSans-31" transform="translate(423.046875 0.90625)"/>
      <use xlink:href="#DejaVuSans-5d" transform="translate(486.669922 0.90625)"/>
     </g>
    </g>
   </g>
  </g>
 </g>
 <defs>
  <clipPath id="pae63bb754b">
   <rect x="54" y="34.56" width="334.8" height="221.76"/>
  </clipPath>
 </defs>
</svg>
