<?xml version="1.0" encoding="utf-8" standalone="no"?>
<!DOCTYPE svg PUBLIC "-//W3C//DTD SVG 1.1//EN"
  "http://www.w3.org/Graphics/SVG/1.1/DTD/svg11.dtd">
<svg xmlns:xlink="http://www.w3.org/1999/xlink" width="432pt" height="288pt" viewBox="0 0 432 288" xmlns="http://www.w3.org/2000/svg" version="1.1">
 <metadata>
  <rdf:RDF xmlns:dc="http://purl.org/dc/elements/1.1/" xmlns:cc="http://creativecommons.org/ns#" xmlns:rdf="http://www.w3.org/1999/02/22-rdf-syntax-ns#">
   <cc:Work>
    <dc:type rdf:resource="http://purl.org/dc/dcmitype/StillImage"/>
    <dc:date>2022-08-01T10:27:27.190385</dc:date>
    <dc:format>image/svg+xml</dc:format>
    <dc:creator>
     <cc:Agent>
      <dc:title>Matplotlib v3.5.1, https://matplotlib.org/</dc:title>
     </cc:Agent>
    </dc:creator>
   </cc:Work>
  </rdf:RDF>
 </metadata>
 <defs>
  <style type="text/css">*{stroke-linejoin: round; stroke-linecap: butt}</style>
 </defs>
 <g id="figure_1">
  <g id="patch_1">
   <path d="M 0 288 
L 432 288 
L 432 0 
L 0 0 
z
" style="fill: #ffffff"/>
  </g>
  <g id="axes_1">
   <g id="patch_2">
    <path d="M 54 256.32 
L 388.8 256.32 
L 388.8 34.56 
L 54 34.56 
z
" style="fill: #ffffff"/>
   </g>
   <g id="matplotlib.axis_1">
    <g id="xtick_1">
     <g id="line2d_1">
      <defs>
       <path id="m8d1625a10c" d="M 0 0 
L 0 3.5 
" style="stroke: #000000; stroke-width: 0.8"/>
      </defs>
      <g>
       <use xlink:href="#m8d1625a10c" x="79.230089" y="256.32" style="stroke: #000000; stroke-width: 0.8"/>
      </g>
     </g>
     <g id="text_1">
      <!-- 40 -->
      <g transform="translate(69.686339 274.717656)scale(0.15 -0.15)">
       <defs>
        <path id="DejaVuSans-34" d="M 2419 4116 
L 825 1625 
L 2419 1625 
L 2419 4116 
z
M 2253 4666 
L 3047 4666 
L 3047 1625 
L 3713 1625 
L 3713 1100 
L 3047 1100 
L 3047 0 
L 2419 0 
L 2419 1100 
L 313 1100 
L 313 1709 
L 2253 4666 
z
" transform="scale(0.015625)"/>
        <path id="DejaVuSans-30" d="M 2034 4250 
Q 1547 4250 1301 3770 
Q 1056 3291 1056 2328 
Q 1056 1369 1301 889 
Q 1547 409 2034 409 
Q 2525 409 2770 889 
Q 3016 1369 3016 2328 
Q 3016 3291 2770 3770 
Q 2525 4250 2034 4250 
z
M 2034 4750 
Q 2819 4750 3233 4129 
Q 3647 3509 3647 2328 
Q 3647 1150 3233 529 
Q 2819 -91 2034 -91 
Q 1250 -91 836 529 
Q 422 1150 422 2328 
Q 422 3509 836 4129 
Q 1250 4750 2034 4750 
z
" transform="scale(0.015625)"/>
       </defs>
       <use xlink:href="#DejaVuSans-34"/>
       <use xlink:href="#DejaVuSans-30" x="63.623047"/>
      </g>
     </g>
    </g>
    <g id="xtick_2">
     <g id="line2d_2">
      <g>
       <use xlink:href="#m8d1625a10c" x="120.099249" y="256.32" style="stroke: #000000; stroke-width: 0.8"/>
      </g>
     </g>
     <g id="text_2">
      <!-- 60 -->
      <g transform="translate(110.555499 274.717656)scale(0.15 -0.15)">
       <defs>
        <path id="DejaVuSans-36" d="M 2113 2584 
Q 1688 2584 1439 2293 
Q 1191 2003 1191 1497 
Q 1191 994 1439 701 
Q 1688 409 2113 409 
Q 2538 409 2786 701 
Q 3034 994 3034 1497 
Q 3034 2003 2786 2293 
Q 2538 2584 2113 2584 
z
M 3366 4563 
L 3366 3988 
Q 3128 4100 2886 4159 
Q 2644 4219 2406 4219 
Q 1781 4219 1451 3797 
Q 1122 3375 1075 2522 
Q 1259 2794 1537 2939 
Q 1816 3084 2150 3084 
Q 2853 3084 3261 2657 
Q 3669 2231 3669 1497 
Q 3669 778 3244 343 
Q 2819 -91 2113 -91 
Q 1303 -91 875 529 
Q 447 1150 447 2328 
Q 447 3434 972 4092 
Q 1497 4750 2381 4750 
Q 2619 4750 2861 4703 
Q 3103 4656 3366 4563 
z
" transform="scale(0.015625)"/>
       </defs>
       <use xlink:href="#DejaVuSans-36"/>
       <use xlink:href="#DejaVuSans-30" x="63.623047"/>
      </g>
     </g>
    </g>
    <g id="xtick_3">
     <g id="line2d_3">
      <g>
       <use xlink:href="#m8d1625a10c" x="160.968409" y="256.32" style="stroke: #000000; stroke-width: 0.8"/>
      </g>
     </g>
     <g id="text_3">
      <!-- 80 -->
      <g transform="translate(151.424659 274.717656)scale(0.15 -0.15)">
       <defs>
        <path id="DejaVuSans-38" d="M 2034 2216 
Q 1584 2216 1326 1975 
Q 1069 1734 1069 1313 
Q 1069 891 1326 650 
Q 1584 409 2034 409 
Q 2484 409 2743 651 
Q 3003 894 3003 1313 
Q 3003 1734 2745 1975 
Q 2488 2216 2034 2216 
z
M 1403 2484 
Q 997 2584 770 2862 
Q 544 3141 544 3541 
Q 544 4100 942 4425 
Q 1341 4750 2034 4750 
Q 2731 4750 3128 4425 
Q 3525 4100 3525 3541 
Q 3525 3141 3298 2862 
Q 3072 2584 2669 2484 
Q 3125 2378 3379 2068 
Q 3634 1759 3634 1313 
Q 3634 634 3220 271 
Q 2806 -91 2034 -91 
Q 1263 -91 848 271 
Q 434 634 434 1313 
Q 434 1759 690 2068 
Q 947 2378 1403 2484 
z
M 1172 3481 
Q 1172 3119 1398 2916 
Q 1625 2713 2034 2713 
Q 2441 2713 2670 2916 
Q 2900 3119 2900 3481 
Q 2900 3844 2670 4047 
Q 2441 4250 2034 4250 
Q 1625 4250 1398 4047 
Q 1172 3844 1172 3481 
z
" transform="scale(0.015625)"/>
       </defs>
       <use xlink:href="#DejaVuSans-38"/>
       <use xlink:href="#DejaVuSans-30" x="63.623047"/>
      </g>
     </g>
    </g>
    <g id="xtick_4">
     <g id="line2d_4">
      <g>
       <use xlink:href="#m8d1625a10c" x="201.837569" y="256.32" style="stroke: #000000; stroke-width: 0.8"/>
      </g>
     </g>
     <g id="text_4">
      <!-- 100 -->
      <g transform="translate(187.521944 274.717656)scale(0.15 -0.15)">
       <defs>
        <path id="DejaVuSans-31" d="M 794 531 
L 1825 531 
L 1825 4091 
L 703 3866 
L 703 4441 
L 1819 4666 
L 2450 4666 
L 2450 531 
L 3481 531 
L 3481 0 
L 794 0 
L 794 531 
z
" transform="scale(0.015625)"/>
       </defs>
       <use xlink:href="#DejaVuSans-31"/>
       <use xlink:href="#DejaVuSans-30" x="63.623047"/>
       <use xlink:href="#DejaVuSans-30" x="127.246094"/>
      </g>
     </g>
    </g>
    <g id="xtick_5">
     <g id="line2d_5">
      <g>
       <use xlink:href="#m8d1625a10c" x="242.70673" y="256.32" style="stroke: #000000; stroke-width: 0.8"/>
      </g>
     </g>
     <g id="text_5">
      <!-- 120 -->
      <g transform="translate(228.391105 274.717656)scale(0.15 -0.15)">
       <defs>
        <path id="DejaVuSans-32" d="M 1228 531 
L 3431 531 
L 3431 0 
L 469 0 
L 469 531 
Q 828 903 1448 1529 
Q 2069 2156 2228 2338 
Q 2531 2678 2651 2914 
Q 2772 3150 2772 3378 
Q 2772 3750 2511 3984 
Q 2250 4219 1831 4219 
Q 1534 4219 1204 4116 
Q 875 4013 500 3803 
L 500 4441 
Q 881 4594 1212 4672 
Q 1544 4750 1819 4750 
Q 2544 4750 2975 4387 
Q 3406 4025 3406 3419 
Q 3406 3131 3298 2873 
Q 3191 2616 2906 2266 
Q 2828 2175 2409 1742 
Q 1991 1309 1228 531 
z
" transform="scale(0.015625)"/>
       </defs>
       <use xlink:href="#DejaVuSans-31"/>
       <use xlink:href="#DejaVuSans-32" x="63.623047"/>
       <use xlink:href="#DejaVuSans-30" x="127.246094"/>
      </g>
     </g>
    </g>
    <g id="xtick_6">
     <g id="line2d_6">
      <g>
       <use xlink:href="#m8d1625a10c" x="283.57589" y="256.32" style="stroke: #000000; stroke-width: 0.8"/>
      </g>
     </g>
     <g id="text_6">
      <!-- 140 -->
      <g transform="translate(269.260265 274.717656)scale(0.15 -0.15)">
       <use xlink:href="#DejaVuSans-31"/>
       <use xlink:href="#DejaVuSans-34" x="63.623047"/>
       <use xlink:href="#DejaVuSans-30" x="127.246094"/>
      </g>
     </g>
    </g>
    <g id="xtick_7">
     <g id="line2d_7">
      <g>
       <use xlink:href="#m8d1625a10c" x="324.44505" y="256.32" style="stroke: #000000; stroke-width: 0.8"/>
      </g>
     </g>
     <g id="text_7">
      <!-- 160 -->
      <g transform="translate(310.129425 274.717656)scale(0.15 -0.15)">
       <use xlink:href="#DejaVuSans-31"/>
       <use xlink:href="#DejaVuSans-36" x="63.623047"/>
       <use xlink:href="#DejaVuSans-30" x="127.246094"/>
      </g>
     </g>
    </g>
    <g id="xtick_8">
     <g id="line2d_8">
      <g>
       <use xlink:href="#m8d1625a10c" x="365.31421" y="256.32" style="stroke: #000000; stroke-width: 0.8"/>
      </g>
     </g>
     <g id="text_8">
      <!-- 180 -->
      <g transform="translate(350.998585 274.717656)scale(0.15 -0.15)">
       <use xlink:href="#DejaVuSans-31"/>
       <use xlink:href="#DejaVuSans-38" x="63.623047"/>
       <use xlink:href="#DejaVuSans-30" x="127.246094"/>
      </g>
     </g>
    </g>
   </g>
   <g id="matplotlib.axis_2">
    <g id="ytick_1">
     <g id="line2d_9">
      <defs>
       <path id="m7e36626953" d="M 0 0 
L -3.5 0 
" style="stroke: #000000; stroke-width: 0.8"/>
      </defs>
      <g>
       <use xlink:href="#m7e36626953" x="54" y="255.511965" style="stroke: #000000; stroke-width: 0.8"/>
      </g>
     </g>
     <g id="text_9">
      <!-- −0.015 -->
      <g transform="translate(-8.511719 261.210793)scale(0.15 -0.15)">
       <defs>
        <path id="DejaVuSans-2212" d="M 678 2272 
L 4684 2272 
L 4684 1741 
L 678 1741 
L 678 2272 
z
" transform="scale(0.015625)"/>
        <path id="DejaVuSans-2e" d="M 684 794 
L 1344 794 
L 1344 0 
L 684 0 
L 684 794 
z
" transform="scale(0.015625)"/>
        <path id="DejaVuSans-35" d="M 691 4666 
L 3169 4666 
L 3169 4134 
L 1269 4134 
L 1269 2991 
Q 1406 3038 1543 3061 
Q 1681 3084 1819 3084 
Q 2600 3084 3056 2656 
Q 3513 2228 3513 1497 
Q 3513 744 3044 326 
Q 2575 -91 1722 -91 
Q 1428 -91 1123 -41 
Q 819 9 494 109 
L 494 744 
Q 775 591 1075 516 
Q 1375 441 1709 441 
Q 2250 441 2565 725 
Q 2881 1009 2881 1497 
Q 2881 1984 2565 2268 
Q 2250 2553 1709 2553 
Q 1456 2553 1204 2497 
Q 953 2441 691 2322 
L 691 4666 
z
" transform="scale(0.015625)"/>
       </defs>
       <use xlink:href="#DejaVuSans-2212"/>
       <use xlink:href="#DejaVuSans-30" x="83.789062"/>
       <use xlink:href="#DejaVuSans-2e" x="147.412109"/>
       <use xlink:href="#DejaVuSans-30" x="179.199219"/>
       <use xlink:href="#DejaVuSans-31" x="242.822266"/>
       <use xlink:href="#DejaVuSans-35" x="306.445312"/>
      </g>
     </g>
    </g>
    <g id="ytick_2">
     <g id="line2d_10">
      <g>
       <use xlink:href="#m7e36626953" x="54" y="219.692954" style="stroke: #000000; stroke-width: 0.8"/>
      </g>
     </g>
     <g id="text_10">
      <!-- −0.010 -->
      <g transform="translate(-8.511719 225.391782)scale(0.15 -0.15)">
       <use xlink:href="#DejaVuSans-2212"/>
       <use xlink:href="#DejaVuSans-30" x="83.789062"/>
       <use xlink:href="#DejaVuSans-2e" x="147.412109"/>
       <use xlink:href="#DejaVuSans-30" x="179.199219"/>
       <use xlink:href="#DejaVuSans-31" x="242.822266"/>
       <use xlink:href="#DejaVuSans-30" x="306.445312"/>
      </g>
     </g>
    </g>
    <g id="ytick_3">
     <g id="line2d_11">
      <g>
       <use xlink:href="#m7e36626953" x="54" y="183.873942" style="stroke: #000000; stroke-width: 0.8"/>
      </g>
     </g>
     <g id="text_11">
      <!-- −0.005 -->
      <g transform="translate(-8.511719 189.57277)scale(0.15 -0.15)">
       <use xlink:href="#DejaVuSans-2212"/>
       <use xlink:href="#DejaVuSans-30" x="83.789062"/>
       <use xlink:href="#DejaVuSans-2e" x="147.412109"/>
       <use xlink:href="#DejaVuSans-30" x="179.199219"/>
       <use xlink:href="#DejaVuSans-30" x="242.822266"/>
       <use xlink:href="#DejaVuSans-35" x="306.445312"/>
      </g>
     </g>
    </g>
    <g id="ytick_4">
     <g id="line2d_12">
      <g>
       <use xlink:href="#m7e36626953" x="54" y="148.05493" style="stroke: #000000; stroke-width: 0.8"/>
      </g>
     </g>
     <g id="text_12">
      <!-- 0.000 -->
      <g transform="translate(4.057813 153.753758)scale(0.15 -0.15)">
       <use xlink:href="#DejaVuSans-30"/>
       <use xlink:href="#DejaVuSans-2e" x="63.623047"/>
       <use xlink:href="#DejaVuSans-30" x="95.410156"/>
       <use xlink:href="#DejaVuSans-30" x="159.033203"/>
       <use xlink:href="#DejaVuSans-30" x="222.65625"/>
      </g>
     </g>
    </g>
    <g id="ytick_5">
     <g id="line2d_13">
      <g>
       <use xlink:href="#m7e36626953" x="54" y="112.235919" style="stroke: #000000; stroke-width: 0.8"/>
      </g>
     </g>
     <g id="text_13">
      <!-- 0.005 -->
      <g transform="translate(4.057813 117.934747)scale(0.15 -0.15)">
       <use xlink:href="#DejaVuSans-30"/>
       <use xlink:href="#DejaVuSans-2e" x="63.623047"/>
       <use xlink:href="#DejaVuSans-30" x="95.410156"/>
       <use xlink:href="#DejaVuSans-30" x="159.033203"/>
       <use xlink:href="#DejaVuSans-35" x="222.65625"/>
      </g>
     </g>
    </g>
    <g id="ytick_6">
     <g id="line2d_14">
      <g>
       <use xlink:href="#m7e36626953" x="54" y="76.416907" style="stroke: #000000; stroke-width: 0.8"/>
      </g>
     </g>
     <g id="text_14">
      <!-- 0.010 -->
      <g transform="translate(4.057813 82.115735)scale(0.15 -0.15)">
       <use xlink:href="#DejaVuSans-30"/>
       <use xlink:href="#DejaVuSans-2e" x="63.623047"/>
       <use xlink:href="#DejaVuSans-30" x="95.410156"/>
       <use xlink:href="#DejaVuSans-31" x="159.033203"/>
       <use xlink:href="#DejaVuSans-30" x="222.65625"/>
      </g>
     </g>
    </g>
    <g id="ytick_7">
     <g id="line2d_15">
      <g>
       <use xlink:href="#m7e36626953" x="54" y="40.597896" style="stroke: #000000; stroke-width: 0.8"/>
      </g>
     </g>
     <g id="text_15">
      <!-- 0.015 -->
      <g transform="translate(4.057813 46.296724)scale(0.15 -0.15)">
       <use xlink:href="#DejaVuSans-30"/>
       <use xlink:href="#DejaVuSans-2e" x="63.623047"/>
       <use xlink:href="#DejaVuSans-30" x="95.410156"/>
       <use xlink:href="#DejaVuSans-31" x="159.033203"/>
       <use xlink:href="#DejaVuSans-35" x="222.65625"/>
      </g>
     </g>
    </g>
   </g>
   <g id="line2d_16">
    <path d="M 69.218182 88.697848 
L 71.01915 91.839728 
L 72.820118 94.550574 
L 74.621087 95.050764 
L 76.422055 98.072969 
L 78.223023 102.534642 
L 80.023991 106.226121 
L 81.82496 108.644703 
L 83.625928 110.344883 
L 85.426896 111.49579 
L 87.227864 111.412309 
L 89.028833 112.753377 
L 90.829801 113.917064 
L 92.630769 115.229329 
L 94.431737 113.096648 
L 96.232706 105.246317 
L 98.033674 93.959556 
L 99.834642 78.281036 
L 101.635611 58.291117 
L 103.436579 44.64 
L 105.237547 47.974423 
L 107.038515 65.232521 
L 108.839484 88.018278 
L 112.44142 141.090971 
L 114.242388 168.352514 
L 116.043357 190.284887 
L 117.844325 195.806639 
L 119.645293 183.495627 
L 121.446261 164.573519 
L 123.24723 146.9113 
L 125.048198 134.025061 
L 126.849166 126.911543 
L 128.650134 125.383032 
L 130.451103 124.86049 
L 132.252071 121.621295 
L 134.053039 120.529402 
L 135.854008 121.15331 
L 137.654976 123.527524 
L 139.455944 127.658605 
L 141.256912 129.247825 
L 143.057881 127.008252 
L 144.858849 127.498392 
L 146.659817 131.981149 
L 148.460785 133.308972 
L 150.261754 135.336852 
L 152.062722 138.656564 
L 153.86369 139.744268 
L 155.664658 138.384595 
L 157.465627 134.39834 
L 159.266595 135.606111 
L 161.067563 138.927932 
L 162.868531 143.183025 
L 164.6695 145.521463 
L 166.470468 146.504052 
L 168.271436 146.854922 
L 171.873373 151.876592 
L 173.674341 152.791205 
L 175.475309 151.742477 
L 177.276278 149.70012 
L 179.077246 148.932686 
L 180.878214 151.0932 
L 182.679182 154.092523 
L 184.480151 154.642194 
L 186.281119 152.192849 
L 188.082087 151.431314 
L 189.883055 153.475046 
L 193.484992 153.799926 
L 195.28596 156.009015 
L 198.887897 164.222058 
L 200.688865 163.711231 
L 202.489833 160.449119 
L 204.290802 159.440199 
L 206.09177 160.340071 
L 207.892738 162.96855 
L 209.693706 164.216664 
L 211.494675 163.34779 
L 213.295643 164.796811 
L 215.096611 169.002234 
L 216.897579 172.15615 
L 218.698548 172.884673 
L 220.499516 174.021822 
L 222.300484 174.977332 
L 224.101452 174.817359 
L 225.902421 172.714179 
L 227.703389 170.803312 
L 229.504357 166.914869 
L 231.305325 158.786677 
L 233.106294 151.638835 
L 234.907262 147.722196 
L 236.70823 144.832928 
L 238.509198 140.743661 
L 240.310167 131.866726 
L 242.111135 124.794622 
L 243.912103 127.420542 
L 245.713072 140.735986 
L 251.115976 197.998191 
L 252.916945 218.406358 
L 254.717913 235.116761 
L 256.518881 244.398863 
L 258.319849 246.24 
L 260.120818 243.012581 
L 261.921786 234.91798 
L 265.523722 215.883584 
L 267.324691 208.041082 
L 269.125659 203.114142 
L 270.926627 199.666037 
L 272.727595 200.482537 
L 274.528564 200.621014 
L 276.329532 199.471724 
L 278.1305 198.792018 
L 279.931469 198.756061 
L 281.732437 200.28283 
L 283.533405 202.936662 
L 285.334373 203.446186 
L 287.135342 203.037498 
L 288.93631 203.681125 
L 290.737278 205.644693 
L 292.538246 207.206987 
L 294.339215 206.746032 
L 296.140183 204.30805 
L 297.941151 203.249022 
L 299.742119 204.871303 
L 301.543088 204.005158 
L 303.344056 202.416439 
L 306.945992 201.214219 
L 308.746961 200.164057 
L 310.547929 200.531524 
L 312.348897 199.535641 
L 314.149866 199.657617 
L 317.751802 202.537069 
L 319.55277 204.572339 
L 321.353739 207.101291 
L 323.154707 210.250527 
L 326.756643 214.316786 
L 328.557612 217.739779 
L 330.35858 219.277211 
L 332.159548 218.313883 
L 333.960516 218.319912 
L 335.761485 218.763761 
L 337.562453 219.553241 
L 339.363421 219.436918 
L 342.965358 211.507947 
L 344.766326 212.548844 
L 346.567294 215.265046 
L 350.169231 209.268753 
L 351.970199 209.243467 
L 353.771167 209.365083 
L 355.572136 210.82871 
L 357.373104 213.916791 
L 359.174072 215.177369 
L 362.776009 216.593161 
L 364.576977 217.620246 
L 366.377945 215.145495 
L 368.178913 212.942993 
L 369.979882 213.137812 
L 371.78085 214.958907 
L 373.581818 218.18406 
L 373.581818 218.18406 
" clip-path="url(#p85031fec92)" style="fill: none; stroke: #1f77b4; stroke-width: 1.5; stroke-linecap: square"/>
    <defs>
     <path id="m96ff8e9be2" d="M 0 4 
C 1.060812 4 2.078319 3.578535 2.828427 2.828427 
C 3.578535 2.078319 4 1.060812 4 0 
C 4 -1.060812 3.578535 -2.078319 2.828427 -2.828427 
C 2.078319 -3.578535 1.060812 -4 0 -4 
C -1.060812 -4 -2.078319 -3.578535 -2.828427 -2.828427 
C -3.578535 -2.078319 -4 -1.060812 -4 0 
C -4 1.060812 -3.578535 2.078319 -2.828427 2.828427 
C -2.078319 3.578535 -1.060812 4 0 4 
z
" style="stroke: #1f77b4"/>
    </defs>
    <g clip-path="url(#p85031fec92)">
     <use xlink:href="#m96ff8e9be2" x="69.218182" y="88.697848" style="fill-opacity: 0; stroke: #1f77b4"/>
     <use xlink:href="#m96ff8e9be2" x="71.01915" y="91.839728" style="fill-opacity: 0; stroke: #1f77b4"/>
     <use xlink:href="#m96ff8e9be2" x="72.820118" y="94.550574" style="fill-opacity: 0; stroke: #1f77b4"/>
     <use xlink:href="#m96ff8e9be2" x="74.621087" y="95.050764" style="fill-opacity: 0; stroke: #1f77b4"/>
     <use xlink:href="#m96ff8e9be2" x="76.422055" y="98.072969" style="fill-opacity: 0; stroke: #1f77b4"/>
     <use xlink:href="#m96ff8e9be2" x="78.223023" y="102.534642" style="fill-opacity: 0; stroke: #1f77b4"/>
     <use xlink:href="#m96ff8e9be2" x="80.023991" y="106.226121" style="fill-opacity: 0; stroke: #1f77b4"/>
     <use xlink:href="#m96ff8e9be2" x="81.82496" y="108.644703" style="fill-opacity: 0; stroke: #1f77b4"/>
     <use xlink:href="#m96ff8e9be2" x="83.625928" y="110.344883" style="fill-opacity: 0; stroke: #1f77b4"/>
     <use xlink:href="#m96ff8e9be2" x="85.426896" y="111.49579" style="fill-opacity: 0; stroke: #1f77b4"/>
     <use xlink:href="#m96ff8e9be2" x="87.227864" y="111.412309" style="fill-opacity: 0; stroke: #1f77b4"/>
     <use xlink:href="#m96ff8e9be2" x="89.028833" y="112.753377" style="fill-opacity: 0; stroke: #1f77b4"/>
     <use xlink:href="#m96ff8e9be2" x="90.829801" y="113.917064" style="fill-opacity: 0; stroke: #1f77b4"/>
     <use xlink:href="#m96ff8e9be2" x="92.630769" y="115.229329" style="fill-opacity: 0; stroke: #1f77b4"/>
     <use xlink:href="#m96ff8e9be2" x="94.431737" y="113.096648" style="fill-opacity: 0; stroke: #1f77b4"/>
     <use xlink:href="#m96ff8e9be2" x="96.232706" y="105.246317" style="fill-opacity: 0; stroke: #1f77b4"/>
     <use xlink:href="#m96ff8e9be2" x="98.033674" y="93.959556" style="fill-opacity: 0; stroke: #1f77b4"/>
     <use xlink:href="#m96ff8e9be2" x="99.834642" y="78.281036" style="fill-opacity: 0; stroke: #1f77b4"/>
     <use xlink:href="#m96ff8e9be2" x="101.635611" y="58.291117" style="fill-opacity: 0; stroke: #1f77b4"/>
     <use xlink:href="#m96ff8e9be2" x="103.436579" y="44.64" style="fill-opacity: 0; stroke: #1f77b4"/>
     <use xlink:href="#m96ff8e9be2" x="105.237547" y="47.974423" style="fill-opacity: 0; stroke: #1f77b4"/>
     <use xlink:href="#m96ff8e9be2" x="107.038515" y="65.232521" style="fill-opacity: 0; stroke: #1f77b4"/>
     <use xlink:href="#m96ff8e9be2" x="108.839484" y="88.018278" style="fill-opacity: 0; stroke: #1f77b4"/>
     <use xlink:href="#m96ff8e9be2" x="110.640452" y="113.917919" style="fill-opacity: 0; stroke: #1f77b4"/>
     <use xlink:href="#m96ff8e9be2" x="112.44142" y="141.090971" style="fill-opacity: 0; stroke: #1f77b4"/>
     <use xlink:href="#m96ff8e9be2" x="114.242388" y="168.352514" style="fill-opacity: 0; stroke: #1f77b4"/>
     <use xlink:href="#m96ff8e9be2" x="116.043357" y="190.284887" style="fill-opacity: 0; stroke: #1f77b4"/>
     <use xlink:href="#m96ff8e9be2" x="117.844325" y="195.806639" style="fill-opacity: 0; stroke: #1f77b4"/>
     <use xlink:href="#m96ff8e9be2" x="119.645293" y="183.495627" style="fill-opacity: 0; stroke: #1f77b4"/>
     <use xlink:href="#m96ff8e9be2" x="121.446261" y="164.573519" style="fill-opacity: 0; stroke: #1f77b4"/>
     <use xlink:href="#m96ff8e9be2" x="123.24723" y="146.9113" style="fill-opacity: 0; stroke: #1f77b4"/>
     <use xlink:href="#m96ff8e9be2" x="125.048198" y="134.025061" style="fill-opacity: 0; stroke: #1f77b4"/>
     <use xlink:href="#m96ff8e9be2" x="126.849166" y="126.911543" style="fill-opacity: 0; stroke: #1f77b4"/>
     <use xlink:href="#m96ff8e9be2" x="128.650134" y="125.383032" style="fill-opacity: 0; stroke: #1f77b4"/>
     <use xlink:href="#m96ff8e9be2" x="130.451103" y="124.86049" style="fill-opacity: 0; stroke: #1f77b4"/>
     <use xlink:href="#m96ff8e9be2" x="132.252071" y="121.621295" style="fill-opacity: 0; stroke: #1f77b4"/>
     <use xlink:href="#m96ff8e9be2" x="134.053039" y="120.529402" style="fill-opacity: 0; stroke: #1f77b4"/>
     <use xlink:href="#m96ff8e9be2" x="135.854008" y="121.15331" style="fill-opacity: 0; stroke: #1f77b4"/>
     <use xlink:href="#m96ff8e9be2" x="137.654976" y="123.527524" style="fill-opacity: 0; stroke: #1f77b4"/>
     <use xlink:href="#m96ff8e9be2" x="139.455944" y="127.658605" style="fill-opacity: 0; stroke: #1f77b4"/>
     <use xlink:href="#m96ff8e9be2" x="141.256912" y="129.247825" style="fill-opacity: 0; stroke: #1f77b4"/>
     <use xlink:href="#m96ff8e9be2" x="143.057881" y="127.008252" style="fill-opacity: 0; stroke: #1f77b4"/>
     <use xlink:href="#m96ff8e9be2" x="144.858849" y="127.498392" style="fill-opacity: 0; stroke: #1f77b4"/>
     <use xlink:href="#m96ff8e9be2" x="146.659817" y="131.981149" style="fill-opacity: 0; stroke: #1f77b4"/>
     <use xlink:href="#m96ff8e9be2" x="148.460785" y="133.308972" style="fill-opacity: 0; stroke: #1f77b4"/>
     <use xlink:href="#m96ff8e9be2" x="150.261754" y="135.336852" style="fill-opacity: 0; stroke: #1f77b4"/>
     <use xlink:href="#m96ff8e9be2" x="152.062722" y="138.656564" style="fill-opacity: 0; stroke: #1f77b4"/>
     <use xlink:href="#m96ff8e9be2" x="153.86369" y="139.744268" style="fill-opacity: 0; stroke: #1f77b4"/>
     <use xlink:href="#m96ff8e9be2" x="155.664658" y="138.384595" style="fill-opacity: 0; stroke: #1f77b4"/>
     <use xlink:href="#m96ff8e9be2" x="157.465627" y="134.39834" style="fill-opacity: 0; stroke: #1f77b4"/>
     <use xlink:href="#m96ff8e9be2" x="159.266595" y="135.606111" style="fill-opacity: 0; stroke: #1f77b4"/>
     <use xlink:href="#m96ff8e9be2" x="161.067563" y="138.927932" style="fill-opacity: 0; stroke: #1f77b4"/>
     <use xlink:href="#m96ff8e9be2" x="162.868531" y="143.183025" style="fill-opacity: 0; stroke: #1f77b4"/>
     <use xlink:href="#m96ff8e9be2" x="164.6695" y="145.521463" style="fill-opacity: 0; stroke: #1f77b4"/>
     <use xlink:href="#m96ff8e9be2" x="166.470468" y="146.504052" style="fill-opacity: 0; stroke: #1f77b4"/>
     <use xlink:href="#m96ff8e9be2" x="168.271436" y="146.854922" style="fill-opacity: 0; stroke: #1f77b4"/>
     <use xlink:href="#m96ff8e9be2" x="170.072405" y="149.360255" style="fill-opacity: 0; stroke: #1f77b4"/>
     <use xlink:href="#m96ff8e9be2" x="171.873373" y="151.876592" style="fill-opacity: 0; stroke: #1f77b4"/>
     <use xlink:href="#m96ff8e9be2" x="173.674341" y="152.791205" style="fill-opacity: 0; stroke: #1f77b4"/>
     <use xlink:href="#m96ff8e9be2" x="175.475309" y="151.742477" style="fill-opacity: 0; stroke: #1f77b4"/>
     <use xlink:href="#m96ff8e9be2" x="177.276278" y="149.70012" style="fill-opacity: 0; stroke: #1f77b4"/>
     <use xlink:href="#m96ff8e9be2" x="179.077246" y="148.932686" style="fill-opacity: 0; stroke: #1f77b4"/>
     <use xlink:href="#m96ff8e9be2" x="180.878214" y="151.0932" style="fill-opacity: 0; stroke: #1f77b4"/>
     <use xlink:href="#m96ff8e9be2" x="182.679182" y="154.092523" style="fill-opacity: 0; stroke: #1f77b4"/>
     <use xlink:href="#m96ff8e9be2" x="184.480151" y="154.642194" style="fill-opacity: 0; stroke: #1f77b4"/>
     <use xlink:href="#m96ff8e9be2" x="186.281119" y="152.192849" style="fill-opacity: 0; stroke: #1f77b4"/>
     <use xlink:href="#m96ff8e9be2" x="188.082087" y="151.431314" style="fill-opacity: 0; stroke: #1f77b4"/>
     <use xlink:href="#m96ff8e9be2" x="189.883055" y="153.475046" style="fill-opacity: 0; stroke: #1f77b4"/>
     <use xlink:href="#m96ff8e9be2" x="191.684024" y="153.639609" style="fill-opacity: 0; stroke: #1f77b4"/>
     <use xlink:href="#m96ff8e9be2" x="193.484992" y="153.799926" style="fill-opacity: 0; stroke: #1f77b4"/>
     <use xlink:href="#m96ff8e9be2" x="195.28596" y="156.009015" style="fill-opacity: 0; stroke: #1f77b4"/>
     <use xlink:href="#m96ff8e9be2" x="197.086928" y="160.113397" style="fill-opacity: 0; stroke: #1f77b4"/>
     <use xlink:href="#m96ff8e9be2" x="198.887897" y="164.222058" style="fill-opacity: 0; stroke: #1f77b4"/>
     <use xlink:href="#m96ff8e9be2" x="200.688865" y="163.711231" style="fill-opacity: 0; stroke: #1f77b4"/>
     <use xlink:href="#m96ff8e9be2" x="202.489833" y="160.449119" style="fill-opacity: 0; stroke: #1f77b4"/>
     <use xlink:href="#m96ff8e9be2" x="204.290802" y="159.440199" style="fill-opacity: 0; stroke: #1f77b4"/>
     <use xlink:href="#m96ff8e9be2" x="206.09177" y="160.340071" style="fill-opacity: 0; stroke: #1f77b4"/>
     <use xlink:href="#m96ff8e9be2" x="207.892738" y="162.96855" style="fill-opacity: 0; stroke: #1f77b4"/>
     <use xlink:href="#m96ff8e9be2" x="209.693706" y="164.216664" style="fill-opacity: 0; stroke: #1f77b4"/>
     <use xlink:href="#m96ff8e9be2" x="211.494675" y="163.34779" style="fill-opacity: 0; stroke: #1f77b4"/>
     <use xlink:href="#m96ff8e9be2" x="213.295643" y="164.796811" style="fill-opacity: 0; stroke: #1f77b4"/>
     <use xlink:href="#m96ff8e9be2" x="215.096611" y="169.002234" style="fill-opacity: 0; stroke: #1f77b4"/>
     <use xlink:href="#m96ff8e9be2" x="216.897579" y="172.15615" style="fill-opacity: 0; stroke: #1f77b4"/>
     <use xlink:href="#m96ff8e9be2" x="218.698548" y="172.884673" style="fill-opacity: 0; stroke: #1f77b4"/>
     <use xlink:href="#m96ff8e9be2" x="220.499516" y="174.021822" style="fill-opacity: 0; stroke: #1f77b4"/>
     <use xlink:href="#m96ff8e9be2" x="222.300484" y="174.977332" style="fill-opacity: 0; stroke: #1f77b4"/>
     <use xlink:href="#m96ff8e9be2" x="224.101452" y="174.817359" style="fill-opacity: 0; stroke: #1f77b4"/>
     <use xlink:href="#m96ff8e9be2" x="225.902421" y="172.714179" style="fill-opacity: 0; stroke: #1f77b4"/>
     <use xlink:href="#m96ff8e9be2" x="227.703389" y="170.803312" style="fill-opacity: 0; stroke: #1f77b4"/>
     <use xlink:href="#m96ff8e9be2" x="229.504357" y="166.914869" style="fill-opacity: 0; stroke: #1f77b4"/>
     <use xlink:href="#m96ff8e9be2" x="231.305325" y="158.786677" style="fill-opacity: 0; stroke: #1f77b4"/>
     <use xlink:href="#m96ff8e9be2" x="233.106294" y="151.638835" style="fill-opacity: 0; stroke: #1f77b4"/>
     <use xlink:href="#m96ff8e9be2" x="234.907262" y="147.722196" style="fill-opacity: 0; stroke: #1f77b4"/>
     <use xlink:href="#m96ff8e9be2" x="236.70823" y="144.832928" style="fill-opacity: 0; stroke: #1f77b4"/>
     <use xlink:href="#m96ff8e9be2" x="238.509198" y="140.743661" style="fill-opacity: 0; stroke: #1f77b4"/>
     <use xlink:href="#m96ff8e9be2" x="240.310167" y="131.866726" style="fill-opacity: 0; stroke: #1f77b4"/>
     <use xlink:href="#m96ff8e9be2" x="242.111135" y="124.794622" style="fill-opacity: 0; stroke: #1f77b4"/>
     <use xlink:href="#m96ff8e9be2" x="243.912103" y="127.420542" style="fill-opacity: 0; stroke: #1f77b4"/>
     <use xlink:href="#m96ff8e9be2" x="245.713072" y="140.735986" style="fill-opacity: 0; stroke: #1f77b4"/>
     <use xlink:href="#m96ff8e9be2" x="247.51404" y="159.556376" style="fill-opacity: 0; stroke: #1f77b4"/>
     <use xlink:href="#m96ff8e9be2" x="249.315008" y="178.638361" style="fill-opacity: 0; stroke: #1f77b4"/>
     <use xlink:href="#m96ff8e9be2" x="251.115976" y="197.998191" style="fill-opacity: 0; stroke: #1f77b4"/>
     <use xlink:href="#m96ff8e9be2" x="252.916945" y="218.406358" style="fill-opacity: 0; stroke: #1f77b4"/>
     <use xlink:href="#m96ff8e9be2" x="254.717913" y="235.116761" style="fill-opacity: 0; stroke: #1f77b4"/>
     <use xlink:href="#m96ff8e9be2" x="256.518881" y="244.398863" style="fill-opacity: 0; stroke: #1f77b4"/>
     <use xlink:href="#m96ff8e9be2" x="258.319849" y="246.24" style="fill-opacity: 0; stroke: #1f77b4"/>
     <use xlink:href="#m96ff8e9be2" x="260.120818" y="243.012581" style="fill-opacity: 0; stroke: #1f77b4"/>
     <use xlink:href="#m96ff8e9be2" x="261.921786" y="234.91798" style="fill-opacity: 0; stroke: #1f77b4"/>
     <use xlink:href="#m96ff8e9be2" x="263.722754" y="225.486568" style="fill-opacity: 0; stroke: #1f77b4"/>
     <use xlink:href="#m96ff8e9be2" x="265.523722" y="215.883584" style="fill-opacity: 0; stroke: #1f77b4"/>
     <use xlink:href="#m96ff8e9be2" x="267.324691" y="208.041082" style="fill-opacity: 0; stroke: #1f77b4"/>
     <use xlink:href="#m96ff8e9be2" x="269.125659" y="203.114142" style="fill-opacity: 0; stroke: #1f77b4"/>
     <use xlink:href="#m96ff8e9be2" x="270.926627" y="199.666037" style="fill-opacity: 0; stroke: #1f77b4"/>
     <use xlink:href="#m96ff8e9be2" x="272.727595" y="200.482537" style="fill-opacity: 0; stroke: #1f77b4"/>
     <use xlink:href="#m96ff8e9be2" x="274.528564" y="200.621014" style="fill-opacity: 0; stroke: #1f77b4"/>
     <use xlink:href="#m96ff8e9be2" x="276.329532" y="199.471724" style="fill-opacity: 0; stroke: #1f77b4"/>
     <use xlink:href="#m96ff8e9be2" x="278.1305" y="198.792018" style="fill-opacity: 0; stroke: #1f77b4"/>
     <use xlink:href="#m96ff8e9be2" x="279.931469" y="198.756061" style="fill-opacity: 0; stroke: #1f77b4"/>
     <use xlink:href="#m96ff8e9be2" x="281.732437" y="200.28283" style="fill-opacity: 0; stroke: #1f77b4"/>
     <use xlink:href="#m96ff8e9be2" x="283.533405" y="202.936662" style="fill-opacity: 0; stroke: #1f77b4"/>
     <use xlink:href="#m96ff8e9be2" x="285.334373" y="203.446186" style="fill-opacity: 0; stroke: #1f77b4"/>
     <use xlink:href="#m96ff8e9be2" x="287.135342" y="203.037498" style="fill-opacity: 0; stroke: #1f77b4"/>
     <use xlink:href="#m96ff8e9be2" x="288.93631" y="203.681125" style="fill-opacity: 0; stroke: #1f77b4"/>
     <use xlink:href="#m96ff8e9be2" x="290.737278" y="205.644693" style="fill-opacity: 0; stroke: #1f77b4"/>
     <use xlink:href="#m96ff8e9be2" x="292.538246" y="207.206987" style="fill-opacity: 0; stroke: #1f77b4"/>
     <use xlink:href="#m96ff8e9be2" x="294.339215" y="206.746032" style="fill-opacity: 0; stroke: #1f77b4"/>
     <use xlink:href="#m96ff8e9be2" x="296.140183" y="204.30805" style="fill-opacity: 0; stroke: #1f77b4"/>
     <use xlink:href="#m96ff8e9be2" x="297.941151" y="203.249022" style="fill-opacity: 0; stroke: #1f77b4"/>
     <use xlink:href="#m96ff8e9be2" x="299.742119" y="204.871303" style="fill-opacity: 0; stroke: #1f77b4"/>
     <use xlink:href="#m96ff8e9be2" x="301.543088" y="204.005158" style="fill-opacity: 0; stroke: #1f77b4"/>
     <use xlink:href="#m96ff8e9be2" x="303.344056" y="202.416439" style="fill-opacity: 0; stroke: #1f77b4"/>
     <use xlink:href="#m96ff8e9be2" x="305.145024" y="201.872684" style="fill-opacity: 0; stroke: #1f77b4"/>
     <use xlink:href="#m96ff8e9be2" x="306.945992" y="201.214219" style="fill-opacity: 0; stroke: #1f77b4"/>
     <use xlink:href="#m96ff8e9be2" x="308.746961" y="200.164057" style="fill-opacity: 0; stroke: #1f77b4"/>
     <use xlink:href="#m96ff8e9be2" x="310.547929" y="200.531524" style="fill-opacity: 0; stroke: #1f77b4"/>
     <use xlink:href="#m96ff8e9be2" x="312.348897" y="199.535641" style="fill-opacity: 0; stroke: #1f77b4"/>
     <use xlink:href="#m96ff8e9be2" x="314.149866" y="199.657617" style="fill-opacity: 0; stroke: #1f77b4"/>
     <use xlink:href="#m96ff8e9be2" x="315.950834" y="201.097728" style="fill-opacity: 0; stroke: #1f77b4"/>
     <use xlink:href="#m96ff8e9be2" x="317.751802" y="202.537069" style="fill-opacity: 0; stroke: #1f77b4"/>
     <use xlink:href="#m96ff8e9be2" x="319.55277" y="204.572339" style="fill-opacity: 0; stroke: #1f77b4"/>
     <use xlink:href="#m96ff8e9be2" x="321.353739" y="207.101291" style="fill-opacity: 0; stroke: #1f77b4"/>
     <use xlink:href="#m96ff8e9be2" x="323.154707" y="210.250527" style="fill-opacity: 0; stroke: #1f77b4"/>
     <use xlink:href="#m96ff8e9be2" x="324.955675" y="212.315793" style="fill-opacity: 0; stroke: #1f77b4"/>
     <use xlink:href="#m96ff8e9be2" x="326.756643" y="214.316786" style="fill-opacity: 0; stroke: #1f77b4"/>
     <use xlink:href="#m96ff8e9be2" x="328.557612" y="217.739779" style="fill-opacity: 0; stroke: #1f77b4"/>
     <use xlink:href="#m96ff8e9be2" x="330.35858" y="219.277211" style="fill-opacity: 0; stroke: #1f77b4"/>
     <use xlink:href="#m96ff8e9be2" x="332.159548" y="218.313883" style="fill-opacity: 0; stroke: #1f77b4"/>
     <use xlink:href="#m96ff8e9be2" x="333.960516" y="218.319912" style="fill-opacity: 0; stroke: #1f77b4"/>
     <use xlink:href="#m96ff8e9be2" x="335.761485" y="218.763761" style="fill-opacity: 0; stroke: #1f77b4"/>
     <use xlink:href="#m96ff8e9be2" x="337.562453" y="219.553241" style="fill-opacity: 0; stroke: #1f77b4"/>
     <use xlink:href="#m96ff8e9be2" x="339.363421" y="219.436918" style="fill-opacity: 0; stroke: #1f77b4"/>
     <use xlink:href="#m96ff8e9be2" x="341.164389" y="215.39853" style="fill-opacity: 0; stroke: #1f77b4"/>
     <use xlink:href="#m96ff8e9be2" x="342.965358" y="211.507947" style="fill-opacity: 0; stroke: #1f77b4"/>
     <use xlink:href="#m96ff8e9be2" x="344.766326" y="212.548844" style="fill-opacity: 0; stroke: #1f77b4"/>
     <use xlink:href="#m96ff8e9be2" x="346.567294" y="215.265046" style="fill-opacity: 0; stroke: #1f77b4"/>
     <use xlink:href="#m96ff8e9be2" x="348.368263" y="212.298862" style="fill-opacity: 0; stroke: #1f77b4"/>
     <use xlink:href="#m96ff8e9be2" x="350.169231" y="209.268753" style="fill-opacity: 0; stroke: #1f77b4"/>
     <use xlink:href="#m96ff8e9be2" x="351.970199" y="209.243467" style="fill-opacity: 0; stroke: #1f77b4"/>
     <use xlink:href="#m96ff8e9be2" x="353.771167" y="209.365083" style="fill-opacity: 0; stroke: #1f77b4"/>
     <use xlink:href="#m96ff8e9be2" x="355.572136" y="210.82871" style="fill-opacity: 0; stroke: #1f77b4"/>
     <use xlink:href="#m96ff8e9be2" x="357.373104" y="213.916791" style="fill-opacity: 0; stroke: #1f77b4"/>
     <use xlink:href="#m96ff8e9be2" x="359.174072" y="215.177369" style="fill-opacity: 0; stroke: #1f77b4"/>
     <use xlink:href="#m96ff8e9be2" x="360.97504" y="215.91721" style="fill-opacity: 0; stroke: #1f77b4"/>
     <use xlink:href="#m96ff8e9be2" x="362.776009" y="216.593161" style="fill-opacity: 0; stroke: #1f77b4"/>
     <use xlink:href="#m96ff8e9be2" x="364.576977" y="217.620246" style="fill-opacity: 0; stroke: #1f77b4"/>
     <use xlink:href="#m96ff8e9be2" x="366.377945" y="215.145495" style="fill-opacity: 0; stroke: #1f77b4"/>
     <use xlink:href="#m96ff8e9be2" x="368.178913" y="212.942993" style="fill-opacity: 0; stroke: #1f77b4"/>
     <use xlink:href="#m96ff8e9be2" x="369.979882" y="213.137812" style="fill-opacity: 0; stroke: #1f77b4"/>
     <use xlink:href="#m96ff8e9be2" x="371.78085" y="214.958907" style="fill-opacity: 0; stroke: #1f77b4"/>
     <use xlink:href="#m96ff8e9be2" x="373.581818" y="218.18406" style="fill-opacity: 0; stroke: #1f77b4"/>
    </g>
   </g>
   <g id="patch_3">
    <path d="M 54 256.32 
L 54 34.56 
" style="fill: none; stroke: #000000; stroke-width: 0.8; stroke-linejoin: miter; stroke-linecap: square"/>
   </g>
   <g id="patch_4">
    <path d="M 388.8 256.32 
L 388.8 34.56 
" style="fill: none; stroke: #000000; stroke-width: 0.8; stroke-linejoin: miter; stroke-linecap: square"/>
   </g>
   <g id="patch_5">
    <path d="M 54 256.32 
L 388.8 256.32 
" style="fill: none; stroke: #000000; stroke-width: 0.8; stroke-linejoin: miter; stroke-linecap: square"/>
   </g>
   <g id="patch_6">
    <path d="M 54 34.56 
L 388.8 34.56 
" style="fill: none; stroke: #000000; stroke-width: 0.8; stroke-linejoin: miter; stroke-linecap: square"/>
   </g>
  </g>
 </g>
 <defs>
  <clipPath id="p85031fec92">
   <rect x="54" y="34.56" width="334.8" height="221.76"/>
  </clipPath>
 </defs>
</svg>
