<?xml version="1.0" encoding="utf-8" standalone="no"?>
<!DOCTYPE svg PUBLIC "-//W3C//DTD SVG 1.1//EN"
  "http://www.w3.org/Graphics/SVG/1.1/DTD/svg11.dtd">
<svg xmlns:xlink="http://www.w3.org/1999/xlink" width="360pt" height="216pt" viewBox="0 0 360 216" xmlns="http://www.w3.org/2000/svg" version="1.1">
 <metadata>
  <rdf:RDF xmlns:dc="http://purl.org/dc/elements/1.1/" xmlns:cc="http://creativecommons.org/ns#" xmlns:rdf="http://www.w3.org/1999/02/22-rdf-syntax-ns#">
   <cc:Work>
    <dc:type rdf:resource="http://purl.org/dc/dcmitype/StillImage"/>
    <dc:date>2022-04-20T14:30:33.051332</dc:date>
    <dc:format>image/svg+xml</dc:format>
    <dc:creator>
     <cc:Agent>
      <dc:title>Matplotlib v3.5.1, https://matplotlib.org/</dc:title>
     </cc:Agent>
    </dc:creator>
   </cc:Work>
  </rdf:RDF>
 </metadata>
 <defs>
  <style type="text/css">*{stroke-linejoin: round; stroke-linecap: butt}</style>
 </defs>
 <g id="figure_1">
  <g id="patch_1">
   <path d="M 0 216 
L 360 216 
L 360 0 
L 0 0 
z
" style="fill: #ffffff"/>
  </g>
  <g id="axes_1">
   <g id="patch_2">
    <path d="M 45 192.24 
L 324 192.24 
L 324 25.92 
L 45 25.92 
z
" style="fill: #ffffff"/>
   </g>
   <g id="matplotlib.axis_1">
    <g id="xtick_1">
     <g id="line2d_1">
      <defs>
       <path id="m5022ec37e9" d="M 0 0 
L 0 3.5 
" style="stroke: #000000; stroke-width: 0.8"/>
      </defs>
      <g>
       <use xlink:href="#m5022ec37e9" x="78.514643" y="192.24" style="stroke: #000000; stroke-width: 0.8"/>
      </g>
     </g>
     <g id="text_1">
      <!-- −40 -->
      <g transform="translate(66.907065 207.598281)scale(0.11 -0.11)">
       <defs>
        <path id="DejaVuSans-2212" d="M 678 2272 
L 4684 2272 
L 4684 1741 
L 678 1741 
L 678 2272 
z
" transform="scale(0.015625)"/>
        <path id="DejaVuSans-34" d="M 2419 4116 
L 825 1625 
L 2419 1625 
L 2419 4116 
z
M 2253 4666 
L 3047 4666 
L 3047 1625 
L 3713 1625 
L 3713 1100 
L 3047 1100 
L 3047 0 
L 2419 0 
L 2419 1100 
L 313 1100 
L 313 1709 
L 2253 4666 
z
" transform="scale(0.015625)"/>
        <path id="DejaVuSans-30" d="M 2034 4250 
Q 1547 4250 1301 3770 
Q 1056 3291 1056 2328 
Q 1056 1369 1301 889 
Q 1547 409 2034 409 
Q 2525 409 2770 889 
Q 3016 1369 3016 2328 
Q 3016 3291 2770 3770 
Q 2525 4250 2034 4250 
z
M 2034 4750 
Q 2819 4750 3233 4129 
Q 3647 3509 3647 2328 
Q 3647 1150 3233 529 
Q 2819 -91 2034 -91 
Q 1250 -91 836 529 
Q 422 1150 422 2328 
Q 422 3509 836 4129 
Q 1250 4750 2034 4750 
z
" transform="scale(0.015625)"/>
       </defs>
       <use xlink:href="#DejaVuSans-2212"/>
       <use xlink:href="#DejaVuSans-34" x="83.789062"/>
       <use xlink:href="#DejaVuSans-30" x="147.412109"/>
      </g>
     </g>
    </g>
    <g id="xtick_2">
     <g id="line2d_2">
      <g>
       <use xlink:href="#m5022ec37e9" x="132.493738" y="192.24" style="stroke: #000000; stroke-width: 0.8"/>
      </g>
     </g>
     <g id="text_2">
      <!-- −20 -->
      <g transform="translate(120.88616 207.598281)scale(0.11 -0.11)">
       <defs>
        <path id="DejaVuSans-32" d="M 1228 531 
L 3431 531 
L 3431 0 
L 469 0 
L 469 531 
Q 828 903 1448 1529 
Q 2069 2156 2228 2338 
Q 2531 2678 2651 2914 
Q 2772 3150 2772 3378 
Q 2772 3750 2511 3984 
Q 2250 4219 1831 4219 
Q 1534 4219 1204 4116 
Q 875 4013 500 3803 
L 500 4441 
Q 881 4594 1212 4672 
Q 1544 4750 1819 4750 
Q 2544 4750 2975 4387 
Q 3406 4025 3406 3419 
Q 3406 3131 3298 2873 
Q 3191 2616 2906 2266 
Q 2828 2175 2409 1742 
Q 1991 1309 1228 531 
z
" transform="scale(0.015625)"/>
       </defs>
       <use xlink:href="#DejaVuSans-2212"/>
       <use xlink:href="#DejaVuSans-32" x="83.789062"/>
       <use xlink:href="#DejaVuSans-30" x="147.412109"/>
      </g>
     </g>
    </g>
    <g id="xtick_3">
     <g id="line2d_3">
      <g>
       <use xlink:href="#m5022ec37e9" x="186.472833" y="192.24" style="stroke: #000000; stroke-width: 0.8"/>
      </g>
     </g>
     <g id="text_3">
      <!-- 0 -->
      <g transform="translate(182.973458 207.598281)scale(0.11 -0.11)">
       <use xlink:href="#DejaVuSans-30"/>
      </g>
     </g>
    </g>
    <g id="xtick_4">
     <g id="line2d_4">
      <g>
       <use xlink:href="#m5022ec37e9" x="240.451928" y="192.24" style="stroke: #000000; stroke-width: 0.8"/>
      </g>
     </g>
     <g id="text_4">
      <!-- 20 -->
      <g transform="translate(233.453178 207.598281)scale(0.11 -0.11)">
       <use xlink:href="#DejaVuSans-32"/>
       <use xlink:href="#DejaVuSans-30" x="63.623047"/>
      </g>
     </g>
    </g>
    <g id="xtick_5">
     <g id="line2d_5">
      <g>
       <use xlink:href="#m5022ec37e9" x="294.431023" y="192.24" style="stroke: #000000; stroke-width: 0.8"/>
      </g>
     </g>
     <g id="text_5">
      <!-- 40 -->
      <g transform="translate(287.432273 207.598281)scale(0.11 -0.11)">
       <use xlink:href="#DejaVuSans-34"/>
       <use xlink:href="#DejaVuSans-30" x="63.623047"/>
      </g>
     </g>
    </g>
   </g>
   <g id="matplotlib.axis_2">
    <g id="ytick_1">
     <g id="line2d_6">
      <defs>
       <path id="m6bf405c109" d="M 0 0 
L -3.5 0 
" style="stroke: #000000; stroke-width: 0.8"/>
      </defs>
      <g>
       <use xlink:href="#m6bf405c109" x="45" y="169.152016" style="stroke: #000000; stroke-width: 0.8"/>
      </g>
     </g>
     <g id="text_6">
      <!-- 50 -->
      <g transform="translate(22.73 173.711079)scale(0.12 -0.12)">
       <defs>
        <path id="DejaVuSans-35" d="M 691 4666 
L 3169 4666 
L 3169 4134 
L 1269 4134 
L 1269 2991 
Q 1406 3038 1543 3061 
Q 1681 3084 1819 3084 
Q 2600 3084 3056 2656 
Q 3513 2228 3513 1497 
Q 3513 744 3044 326 
Q 2575 -91 1722 -91 
Q 1428 -91 1123 -41 
Q 819 9 494 109 
L 494 744 
Q 775 591 1075 516 
Q 1375 441 1709 441 
Q 2250 441 2565 725 
Q 2881 1009 2881 1497 
Q 2881 1984 2565 2268 
Q 2250 2553 1709 2553 
Q 1456 2553 1204 2497 
Q 953 2441 691 2322 
L 691 4666 
z
" transform="scale(0.015625)"/>
       </defs>
       <use xlink:href="#DejaVuSans-35"/>
       <use xlink:href="#DejaVuSans-30" x="63.623047"/>
      </g>
     </g>
    </g>
    <g id="ytick_2">
     <g id="line2d_7">
      <g>
       <use xlink:href="#m6bf405c109" x="45" y="143.354889" style="stroke: #000000; stroke-width: 0.8"/>
      </g>
     </g>
     <g id="text_7">
      <!-- 75 -->
      <g transform="translate(22.73 147.913951)scale(0.12 -0.12)">
       <defs>
        <path id="DejaVuSans-37" d="M 525 4666 
L 3525 4666 
L 3525 4397 
L 1831 0 
L 1172 0 
L 2766 4134 
L 525 4134 
L 525 4666 
z
" transform="scale(0.015625)"/>
       </defs>
       <use xlink:href="#DejaVuSans-37"/>
       <use xlink:href="#DejaVuSans-35" x="63.623047"/>
      </g>
     </g>
    </g>
    <g id="ytick_3">
     <g id="line2d_8">
      <g>
       <use xlink:href="#m6bf405c109" x="45" y="117.557762" style="stroke: #000000; stroke-width: 0.8"/>
      </g>
     </g>
     <g id="text_8">
      <!-- 100 -->
      <g transform="translate(15.095 122.116824)scale(0.12 -0.12)">
       <defs>
        <path id="DejaVuSans-31" d="M 794 531 
L 1825 531 
L 1825 4091 
L 703 3866 
L 703 4441 
L 1819 4666 
L 2450 4666 
L 2450 531 
L 3481 531 
L 3481 0 
L 794 0 
L 794 531 
z
" transform="scale(0.015625)"/>
       </defs>
       <use xlink:href="#DejaVuSans-31"/>
       <use xlink:href="#DejaVuSans-30" x="63.623047"/>
       <use xlink:href="#DejaVuSans-30" x="127.246094"/>
      </g>
     </g>
    </g>
    <g id="ytick_4">
     <g id="line2d_9">
      <g>
       <use xlink:href="#m6bf405c109" x="45" y="91.760635" style="stroke: #000000; stroke-width: 0.8"/>
      </g>
     </g>
     <g id="text_9">
      <!-- 125 -->
      <g transform="translate(15.095 96.319697)scale(0.12 -0.12)">
       <use xlink:href="#DejaVuSans-31"/>
       <use xlink:href="#DejaVuSans-32" x="63.623047"/>
       <use xlink:href="#DejaVuSans-35" x="127.246094"/>
      </g>
     </g>
    </g>
    <g id="ytick_5">
     <g id="line2d_10">
      <g>
       <use xlink:href="#m6bf405c109" x="45" y="65.963507" style="stroke: #000000; stroke-width: 0.8"/>
      </g>
     </g>
     <g id="text_10">
      <!-- 150 -->
      <g transform="translate(15.095 70.52257)scale(0.12 -0.12)">
       <use xlink:href="#DejaVuSans-31"/>
       <use xlink:href="#DejaVuSans-35" x="63.623047"/>
       <use xlink:href="#DejaVuSans-30" x="127.246094"/>
      </g>
     </g>
    </g>
    <g id="ytick_6">
     <g id="line2d_11">
      <g>
       <use xlink:href="#m6bf405c109" x="45" y="40.16638" style="stroke: #000000; stroke-width: 0.8"/>
      </g>
     </g>
     <g id="text_11">
      <!-- 175 -->
      <g transform="translate(15.095 44.725443)scale(0.12 -0.12)">
       <use xlink:href="#DejaVuSans-31"/>
       <use xlink:href="#DejaVuSans-37" x="63.623047"/>
       <use xlink:href="#DejaVuSans-35" x="127.246094"/>
      </g>
     </g>
    </g>
   </g>
   <g id="line2d_12">
    <defs>
     <path id="mbd2c0ba98d" d="M 0 3 
C 0.795609 3 1.55874 2.683901 2.12132 2.12132 
C 2.683901 1.55874 3 0.795609 3 0 
C 3 -0.795609 2.683901 -1.55874 2.12132 -2.12132 
C 1.55874 -2.683901 0.795609 -3 0 -3 
C -0.795609 -3 -1.55874 -2.683901 -2.12132 -2.12132 
C -2.683901 -1.55874 -3 -0.795609 -3 0 
C -3 0.795609 -2.683901 1.55874 -2.12132 2.12132 
C -1.55874 2.683901 -0.795609 3 0 3 
z
" style="stroke: #1f77b4"/>
    </defs>
    <g clip-path="url(#pee0ae089e3)">
     <use xlink:href="#mbd2c0ba98d" x="57.681818" y="184.458466" style="fill-opacity: 0; stroke: #1f77b4"/>
     <use xlink:href="#mbd2c0ba98d" x="63.195598" y="180.521492" style="fill-opacity: 0; stroke: #1f77b4"/>
     <use xlink:href="#mbd2c0ba98d" x="68.709378" y="180.486365" style="fill-opacity: 0; stroke: #1f77b4"/>
     <use xlink:href="#mbd2c0ba98d" x="74.223324" y="177.817133" style="fill-opacity: 0; stroke: #1f77b4"/>
     <use xlink:href="#mbd2c0ba98d" x="79.737104" y="179.470946" style="fill-opacity: 0; stroke: #1f77b4"/>
     <use xlink:href="#mbd2c0ba98d" x="85.250884" y="177.659097" style="fill-opacity: 0; stroke: #1f77b4"/>
     <use xlink:href="#mbd2c0ba98d" x="90.764829" y="177.049882" style="fill-opacity: 0; stroke: #1f77b4"/>
     <use xlink:href="#mbd2c0ba98d" x="96.278609" y="175.641588" style="fill-opacity: 0; stroke: #1f77b4"/>
     <use xlink:href="#mbd2c0ba98d" x="101.792389" y="175.331963" style="fill-opacity: 0; stroke: #1f77b4"/>
     <use xlink:href="#mbd2c0ba98d" x="107.306335" y="171.83677" style="fill-opacity: 0; stroke: #1f77b4"/>
     <use xlink:href="#mbd2c0ba98d" x="112.820115" y="174.517626" style="fill-opacity: 0; stroke: #1f77b4"/>
     <use xlink:href="#mbd2c0ba98d" x="118.333895" y="168.026787" style="fill-opacity: 0; stroke: #1f77b4"/>
     <use xlink:href="#mbd2c0ba98d" x="123.84784" y="169.897672" style="fill-opacity: 0; stroke: #1f77b4"/>
     <use xlink:href="#mbd2c0ba98d" x="129.361621" y="168.830654" style="fill-opacity: 0; stroke: #1f77b4"/>
     <use xlink:href="#mbd2c0ba98d" x="134.875401" y="163.180818" style="fill-opacity: 0; stroke: #1f77b4"/>
     <use xlink:href="#mbd2c0ba98d" x="140.389346" y="161.952139" style="fill-opacity: 0; stroke: #1f77b4"/>
     <use xlink:href="#mbd2c0ba98d" x="145.903126" y="153.901152" style="fill-opacity: 0; stroke: #1f77b4"/>
     <use xlink:href="#mbd2c0ba98d" x="151.416906" y="145.573449" style="fill-opacity: 0; stroke: #1f77b4"/>
     <use xlink:href="#mbd2c0ba98d" x="156.930852" y="134.077874" style="fill-opacity: 0; stroke: #1f77b4"/>
     <use xlink:href="#mbd2c0ba98d" x="162.444632" y="124.891547" style="fill-opacity: 0; stroke: #1f77b4"/>
     <use xlink:href="#mbd2c0ba98d" x="167.958412" y="108.912264" style="fill-opacity: 0; stroke: #1f77b4"/>
     <use xlink:href="#mbd2c0ba98d" x="173.472357" y="85.781414" style="fill-opacity: 0; stroke: #1f77b4"/>
     <use xlink:href="#mbd2c0ba98d" x="178.986137" y="60.785598" style="fill-opacity: 0; stroke: #1f77b4"/>
     <use xlink:href="#mbd2c0ba98d" x="184.499917" y="40.121035" style="fill-opacity: 0; stroke: #1f77b4"/>
     <use xlink:href="#mbd2c0ba98d" x="190.013863" y="35.057122" style="fill-opacity: 0; stroke: #1f77b4"/>
     <use xlink:href="#mbd2c0ba98d" x="195.527643" y="47.760229" style="fill-opacity: 0; stroke: #1f77b4"/>
     <use xlink:href="#mbd2c0ba98d" x="201.041423" y="61.368546" style="fill-opacity: 0; stroke: #1f77b4"/>
     <use xlink:href="#mbd2c0ba98d" x="206.555368" y="90.477743" style="fill-opacity: 0; stroke: #1f77b4"/>
     <use xlink:href="#mbd2c0ba98d" x="212.069148" y="117.057812" style="fill-opacity: 0; stroke: #1f77b4"/>
     <use xlink:href="#mbd2c0ba98d" x="217.582928" y="132.198978" style="fill-opacity: 0; stroke: #1f77b4"/>
     <use xlink:href="#mbd2c0ba98d" x="223.096874" y="146.371859" style="fill-opacity: 0; stroke: #1f77b4"/>
     <use xlink:href="#mbd2c0ba98d" x="228.610654" y="156.390909" style="fill-opacity: 0; stroke: #1f77b4"/>
     <use xlink:href="#mbd2c0ba98d" x="234.124434" y="161.517379" style="fill-opacity: 0; stroke: #1f77b4"/>
     <use xlink:href="#mbd2c0ba98d" x="239.638379" y="167.961266" style="fill-opacity: 0; stroke: #1f77b4"/>
     <use xlink:href="#mbd2c0ba98d" x="245.15216" y="168.438451" style="fill-opacity: 0; stroke: #1f77b4"/>
     <use xlink:href="#mbd2c0ba98d" x="250.66594" y="170.61002" style="fill-opacity: 0; stroke: #1f77b4"/>
     <use xlink:href="#mbd2c0ba98d" x="256.179885" y="176.93935" style="fill-opacity: 0; stroke: #1f77b4"/>
     <use xlink:href="#mbd2c0ba98d" x="261.693665" y="173.496409" style="fill-opacity: 0; stroke: #1f77b4"/>
     <use xlink:href="#mbd2c0ba98d" x="267.207445" y="177.230571" style="fill-opacity: 0; stroke: #1f77b4"/>
     <use xlink:href="#mbd2c0ba98d" x="272.721391" y="181.37481" style="fill-opacity: 0; stroke: #1f77b4"/>
     <use xlink:href="#mbd2c0ba98d" x="278.235171" y="180.59117" style="fill-opacity: 0; stroke: #1f77b4"/>
     <use xlink:href="#mbd2c0ba98d" x="283.748951" y="182.627228" style="fill-opacity: 0; stroke: #1f77b4"/>
     <use xlink:href="#mbd2c0ba98d" x="289.262896" y="182.517225" style="fill-opacity: 0; stroke: #1f77b4"/>
     <use xlink:href="#mbd2c0ba98d" x="294.776676" y="182.494173" style="fill-opacity: 0; stroke: #1f77b4"/>
     <use xlink:href="#mbd2c0ba98d" x="300.290456" y="183.058068" style="fill-opacity: 0; stroke: #1f77b4"/>
     <use xlink:href="#mbd2c0ba98d" x="305.804402" y="184.68" style="fill-opacity: 0; stroke: #1f77b4"/>
     <use xlink:href="#mbd2c0ba98d" x="311.318182" y="184.287995" style="fill-opacity: 0; stroke: #1f77b4"/>
    </g>
   </g>
   <g id="line2d_13">
    <path d="M 57.681818 182.908049 
L 63.195598 182.550418 
L 68.709378 182.144545 
L 74.223324 181.681446 
L 79.737104 181.150031 
L 85.250884 180.536373 
L 90.764829 179.822876 
L 96.278609 178.987158 
L 101.792389 178.000264 
L 107.306335 176.824377 
L 112.820115 175.409614 
L 118.333895 173.689003 
L 123.84784 171.571504 
L 129.361621 168.931824 
L 134.875401 165.594548 
L 140.389346 161.311255 
L 145.903126 155.727668 
L 151.416906 148.337688 
L 156.930852 138.433578 
L 162.444632 125.092449 
L 167.958412 107.335825 
L 173.472357 84.841286 
L 178.986137 59.790122 
L 184.499917 39.277051 
L 190.013863 33.48 
L 195.527643 46.038951 
L 201.041423 69.4982 
L 206.555368 94.089668 
L 212.069148 114.80773 
L 217.582928 130.748613 
L 223.096874 142.634225 
L 228.610654 151.463035 
L 234.124434 158.079394 
L 239.638379 163.107327 
L 245.15216 166.98766 
L 250.66594 170.029091 
L 256.179885 172.448307 
L 261.693665 174.398869 
L 267.207445 175.991379 
L 272.721391 177.306486 
L 278.235171 178.403759 
L 283.748951 179.32799 
L 289.262896 180.113209 
L 294.776676 180.785544 
L 300.290456 181.365391 
L 305.804402 181.868796 
L 311.318182 182.308466 
" clip-path="url(#pee0ae089e3)" style="fill: none; stroke: #ff7f0e; stroke-width: 2; stroke-linecap: square"/>
   </g>
   <g id="patch_3">
    <path d="M 45 192.24 
L 45 25.92 
" style="fill: none; stroke: #000000; stroke-width: 0.8; stroke-linejoin: miter; stroke-linecap: square"/>
   </g>
   <g id="patch_4">
    <path d="M 324 192.24 
L 324 25.92 
" style="fill: none; stroke: #000000; stroke-width: 0.8; stroke-linejoin: miter; stroke-linecap: square"/>
   </g>
   <g id="patch_5">
    <path d="M 45 192.24 
L 324 192.24 
" style="fill: none; stroke: #000000; stroke-width: 0.8; stroke-linejoin: miter; stroke-linecap: square"/>
   </g>
   <g id="patch_6">
    <path d="M 45 25.92 
L 324 25.92 
" style="fill: none; stroke: #000000; stroke-width: 0.8; stroke-linejoin: miter; stroke-linecap: square"/>
   </g>
  </g>
  <g id="axes_2">
   <g id="matplotlib.axis_3">
    <g id="ytick_7">
     <g id="line2d_14">
      <defs>
       <path id="m6d93b675e3" d="M 0 0 
L 3.5 0 
" style="stroke: #000000; stroke-width: 0.8"/>
      </defs>
      <g>
       <use xlink:href="#m6d93b675e3" x="324" y="167.622248" style="stroke: #000000; stroke-width: 0.8"/>
      </g>
     </g>
     <g id="text_12">
      <!-- 0.2 -->
      <g transform="translate(331 172.181311)scale(0.12 -0.12)">
       <defs>
        <path id="DejaVuSans-2e" d="M 684 794 
L 1344 794 
L 1344 0 
L 684 0 
L 684 794 
z
" transform="scale(0.015625)"/>
       </defs>
       <use xlink:href="#DejaVuSans-30"/>
       <use xlink:href="#DejaVuSans-2e" x="63.623047"/>
       <use xlink:href="#DejaVuSans-32" x="95.410156"/>
      </g>
     </g>
    </g>
    <g id="ytick_8">
     <g id="line2d_15">
      <g>
       <use xlink:href="#m6d93b675e3" x="324" y="134.086686" style="stroke: #000000; stroke-width: 0.8"/>
      </g>
     </g>
     <g id="text_13">
      <!-- 0.4 -->
      <g transform="translate(331 138.645749)scale(0.12 -0.12)">
       <use xlink:href="#DejaVuSans-30"/>
       <use xlink:href="#DejaVuSans-2e" x="63.623047"/>
       <use xlink:href="#DejaVuSans-34" x="95.410156"/>
      </g>
     </g>
    </g>
    <g id="ytick_9">
     <g id="line2d_16">
      <g>
       <use xlink:href="#m6d93b675e3" x="324" y="100.551124" style="stroke: #000000; stroke-width: 0.8"/>
      </g>
     </g>
     <g id="text_14">
      <!-- 0.6 -->
      <g transform="translate(331 105.110187)scale(0.12 -0.12)">
       <defs>
        <path id="DejaVuSans-36" d="M 2113 2584 
Q 1688 2584 1439 2293 
Q 1191 2003 1191 1497 
Q 1191 994 1439 701 
Q 1688 409 2113 409 
Q 2538 409 2786 701 
Q 3034 994 3034 1497 
Q 3034 2003 2786 2293 
Q 2538 2584 2113 2584 
z
M 3366 4563 
L 3366 3988 
Q 3128 4100 2886 4159 
Q 2644 4219 2406 4219 
Q 1781 4219 1451 3797 
Q 1122 3375 1075 2522 
Q 1259 2794 1537 2939 
Q 1816 3084 2150 3084 
Q 2853 3084 3261 2657 
Q 3669 2231 3669 1497 
Q 3669 778 3244 343 
Q 2819 -91 2113 -91 
Q 1303 -91 875 529 
Q 447 1150 447 2328 
Q 447 3434 972 4092 
Q 1497 4750 2381 4750 
Q 2619 4750 2861 4703 
Q 3103 4656 3366 4563 
z
" transform="scale(0.015625)"/>
       </defs>
       <use xlink:href="#DejaVuSans-30"/>
       <use xlink:href="#DejaVuSans-2e" x="63.623047"/>
       <use xlink:href="#DejaVuSans-36" x="95.410156"/>
      </g>
     </g>
    </g>
    <g id="ytick_10">
     <g id="line2d_17">
      <g>
       <use xlink:href="#m6d93b675e3" x="324" y="67.015562" style="stroke: #000000; stroke-width: 0.8"/>
      </g>
     </g>
     <g id="text_15">
      <!-- 0.8 -->
      <g transform="translate(331 71.574625)scale(0.12 -0.12)">
       <defs>
        <path id="DejaVuSans-38" d="M 2034 2216 
Q 1584 2216 1326 1975 
Q 1069 1734 1069 1313 
Q 1069 891 1326 650 
Q 1584 409 2034 409 
Q 2484 409 2743 651 
Q 3003 894 3003 1313 
Q 3003 1734 2745 1975 
Q 2488 2216 2034 2216 
z
M 1403 2484 
Q 997 2584 770 2862 
Q 544 3141 544 3541 
Q 544 4100 942 4425 
Q 1341 4750 2034 4750 
Q 2731 4750 3128 4425 
Q 3525 4100 3525 3541 
Q 3525 3141 3298 2862 
Q 3072 2584 2669 2484 
Q 3125 2378 3379 2068 
Q 3634 1759 3634 1313 
Q 3634 634 3220 271 
Q 2806 -91 2034 -91 
Q 1263 -91 848 271 
Q 434 634 434 1313 
Q 434 1759 690 2068 
Q 947 2378 1403 2484 
z
M 1172 3481 
Q 1172 3119 1398 2916 
Q 1625 2713 2034 2713 
Q 2441 2713 2670 2916 
Q 2900 3119 2900 3481 
Q 2900 3844 2670 4047 
Q 2441 4250 2034 4250 
Q 1625 4250 1398 4047 
Q 1172 3844 1172 3481 
z
" transform="scale(0.015625)"/>
       </defs>
       <use xlink:href="#DejaVuSans-30"/>
       <use xlink:href="#DejaVuSans-2e" x="63.623047"/>
       <use xlink:href="#DejaVuSans-38" x="95.410156"/>
      </g>
     </g>
    </g>
    <g id="ytick_11">
     <g id="line2d_18">
      <g>
       <use xlink:href="#m6d93b675e3" x="324" y="33.48" style="stroke: #000000; stroke-width: 0.8"/>
      </g>
     </g>
     <g id="text_16">
      <!-- 1.0 -->
      <g transform="translate(331 38.039063)scale(0.12 -0.12)">
       <use xlink:href="#DejaVuSans-31"/>
       <use xlink:href="#DejaVuSans-2e" x="63.623047"/>
       <use xlink:href="#DejaVuSans-30" x="95.410156"/>
      </g>
     </g>
    </g>
   </g>
   <g id="line2d_19">
    <path d="M 91.050373 183.948748 
L 91.470232 183.428598 
L 91.89009 182.043524 
L 92.309949 181.451876 
L 92.729808 182.825985 
L 93.149667 182.869085 
L 93.569526 183.687913 
L 93.989384 183.503851 
L 94.409243 183.125242 
L 94.829102 181.802129 
L 95.248961 181.553479 
L 95.66882 182.054059 
L 96.088679 183.220735 
L 96.928396 183.579398 
L 97.348255 184.129137 
L 97.768114 183.024991 
L 98.187973 182.958255 
L 98.607832 181.403904 
L 99.02769 182.450842 
L 99.447549 182.105364 
L 99.867408 182.222162 
L 100.707126 184.134898 
L 101.126985 183.310108 
L 101.546843 182.740988 
L 101.966702 181.315369 
L 102.386561 182.441819 
L 102.80642 182.348781 
L 103.226279 182.643534 
L 103.646137 183.685434 
L 104.065996 183.536467 
L 104.485855 184.175626 
L 104.905714 183.87765 
L 105.745432 182.355919 
L 106.16529 183.731892 
L 106.585149 182.548768 
L 107.005008 182.979047 
L 107.424867 182.91135 
L 107.844726 183.205871 
L 108.264585 182.491761 
L 108.684443 182.207226 
L 109.104302 183.11413 
L 109.524161 182.47065 
L 109.94402 182.900596 
L 110.363879 183.132154 
L 111.203596 182.449305 
L 111.623455 183.87148 
L 112.043314 184.638057 
L 112.463173 183.174577 
L 112.883032 182.423611 
L 113.30289 183.126623 
L 113.722749 182.447638 
L 114.142608 183.022024 
L 114.562467 182.147309 
L 115.402185 183.625385 
L 115.822043 183.244238 
L 116.241902 183.171766 
L 116.661761 182.392966 
L 117.08162 183.263262 
L 117.501479 182.734346 
L 117.921337 182.935378 
L 118.341196 182.68426 
L 118.761055 183.245792 
L 119.180914 183.478658 
L 120.020632 181.6166 
L 120.860349 184.467778 
L 121.280208 183.193502 
L 121.700067 184.347267 
L 122.119926 183.639395 
L 122.539785 182.390598 
L 122.959643 182.2056 
L 123.799361 183.936406 
L 124.21922 183.069693 
L 124.639079 183.570858 
L 125.058938 182.079323 
L 125.478796 183.319165 
L 125.898655 183.773264 
L 126.318514 182.588884 
L 126.738373 180.855665 
L 127.158232 181.77684 
L 127.57809 183.406867 
L 127.997949 183.77378 
L 128.417808 183.043749 
L 128.837667 183.091497 
L 129.257526 184.511025 
L 130.097243 181.817275 
L 130.517102 181.510565 
L 131.35682 182.677365 
L 131.776679 183.295304 
L 132.196538 183.402527 
L 132.616396 183.178213 
L 133.036255 183.280378 
L 133.456114 183.636875 
L 133.875973 181.981287 
L 134.295832 182.807731 
L 134.71569 182.301766 
L 135.135549 183.35435 
L 135.555408 183.514905 
L 135.975267 183.871026 
L 136.395126 183.486907 
L 136.814985 182.125205 
L 137.234843 183.17345 
L 137.654702 183.193837 
L 138.074561 182.506475 
L 138.49442 182.189185 
L 138.914279 183.624058 
L 139.334138 183.654969 
L 139.753996 182.415682 
L 140.173855 182.370823 
L 140.593714 181.679353 
L 141.013573 181.726883 
L 141.433432 182.573718 
L 141.85329 183.740251 
L 142.273149 181.958662 
L 142.693008 183.065195 
L 143.112867 183.126855 
L 143.532726 183.054492 
L 143.952585 184.24366 
L 144.372443 184.031184 
L 145.63202 182.151481 
L 146.051879 182.417934 
L 146.471738 182.019146 
L 147.311455 182.202289 
L 147.731314 182.052488 
L 148.151173 182.834838 
L 148.990891 182.9952 
L 149.410749 183.021942 
L 149.830608 183.38507 
L 150.250467 183.304427 
L 150.670326 181.426527 
L 151.090185 180.560871 
L 151.510043 181.197046 
L 151.929902 181.09781 
L 152.349761 181.128925 
L 152.76962 179.712693 
L 153.189479 180.113109 
L 154.029196 179.252485 
L 154.449055 180.532229 
L 154.868914 179.912731 
L 155.288773 180.22224 
L 155.708632 179.90301 
L 156.128491 179.106686 
L 156.548349 179.55302 
L 157.388067 177.690508 
L 157.807926 179.418832 
L 158.227785 177.265253 
L 158.647643 177.587312 
L 159.067502 177.390019 
L 159.90722 175.020926 
L 160.327079 175.100871 
L 160.746938 177.849072 
L 161.166796 175.830421 
L 161.586655 174.466737 
L 162.006514 175.220287 
L 162.426373 174.2787 
L 162.846232 172.922997 
L 163.266091 174.37317 
L 163.685949 175.029208 
L 164.105808 173.326073 
L 164.525667 171.020241 
L 164.945526 170.55102 
L 165.365385 169.754321 
L 165.785243 170.250763 
L 166.205102 169.964032 
L 166.624961 169.328966 
L 167.464679 166.826468 
L 167.884538 167.33697 
L 168.304396 166.39564 
L 168.724255 166.142092 
L 169.144114 165.468025 
L 169.563973 165.079396 
L 169.983832 165.534218 
L 170.403691 162.988318 
L 171.243408 160.939717 
L 171.663267 157.755537 
L 172.502985 155.926691 
L 172.922843 156.67965 
L 173.342702 155.964534 
L 174.602279 146.508798 
L 175.022138 145.057563 
L 175.441996 142.77111 
L 177.541291 125.402798 
L 179.220726 108.136552 
L 180.060444 93.859036 
L 180.900161 81.583331 
L 182.579596 59.025648 
L 182.999455 55.619208 
L 183.419314 51.06869 
L 184.678891 43.35035 
L 185.098749 41.522941 
L 185.518608 39.075563 
L 185.938467 35.675612 
L 186.358326 34.5734 
L 186.778185 34.394749 
L 187.198044 33.48 
L 187.617902 34.832056 
L 188.037761 35.578857 
L 188.45762 34.718414 
L 188.877479 34.994067 
L 189.297338 37.08884 
L 189.717196 37.461077 
L 190.137055 35.377465 
L 190.556914 34.632952 
L 191.396632 40.554363 
L 191.816491 41.588708 
L 192.236349 44.675399 
L 193.076067 47.438528 
L 193.915785 48.379484 
L 194.335644 50.162706 
L 194.755502 53.009244 
L 195.59522 56.621465 
L 196.015079 56.781702 
L 196.434938 58.961704 
L 197.694514 63.996998 
L 198.114373 66.441576 
L 198.534232 71.552826 
L 198.954091 74.951465 
L 199.793808 79.678242 
L 200.633526 85.420077 
L 201.053385 87.468397 
L 201.473244 91.113919 
L 201.893102 96.609748 
L 202.73282 103.536712 
L 204.832114 125.156854 
L 205.671832 133.830299 
L 206.091691 139.150336 
L 206.511549 142.839538 
L 206.931408 149.110291 
L 207.771126 155.476965 
L 208.190985 158.70078 
L 209.450561 165.265458 
L 209.87042 166.000472 
L 210.290279 167.736864 
L 210.710138 171.295143 
L 211.129997 171.88781 
L 211.549855 173.832901 
L 211.969714 174.697467 
L 212.389573 174.597139 
L 213.229291 176.247097 
L 213.649149 176.218219 
L 214.069008 178.082133 
L 214.488867 178.184658 
L 214.908726 178.146851 
L 215.328585 179.486633 
L 215.748444 179.220139 
L 216.168302 179.678829 
L 216.588161 179.882155 
L 217.00802 178.838856 
L 217.427879 179.982952 
L 217.847738 181.880476 
L 218.267597 181.975515 
L 218.687455 180.595099 
L 219.107314 181.521622 
L 219.527173 180.640833 
L 219.947032 180.693204 
L 220.366891 181.380619 
L 220.786749 182.664496 
L 221.206608 182.058898 
L 221.626467 181.912181 
L 222.046326 182.0131 
L 222.466185 181.548527 
L 222.886044 181.541948 
L 223.305902 180.400994 
L 223.725761 182.465406 
L 224.14562 181.226759 
L 224.565479 180.858747 
L 225.405197 180.90006 
L 226.244914 183.496539 
L 226.664773 180.582467 
L 227.084632 182.241128 
L 227.504491 181.482484 
L 227.92435 181.913257 
L 228.344208 183.517163 
L 228.764067 182.503064 
L 229.183926 182.449742 
L 229.603785 182.863971 
L 230.023644 182.718104 
L 230.443502 184.404736 
L 230.863361 184.171445 
L 231.28322 182.264816 
L 231.703079 182.612279 
L 232.542797 182.423512 
L 232.962655 182.362808 
L 233.382514 181.46523 
L 233.802373 182.824796 
L 234.222232 182.218063 
L 235.06195 182.865474 
L 235.481808 183.008204 
L 235.901667 182.632276 
L 236.321526 183.816756 
L 236.741385 183.927275 
L 237.161244 182.964261 
L 237.581102 183.614493 
L 238.000961 183.074368 
L 238.42082 183.491763 
L 239.680397 181.915089 
L 240.100255 182.813827 
L 240.520114 183.382099 
L 240.939973 183.294104 
L 241.359832 183.887291 
L 241.779691 182.944142 
L 242.19955 182.763918 
L 242.619408 182.709458 
L 243.039267 181.523456 
L 243.459126 182.046335 
L 243.878985 181.531582 
L 244.298844 181.622598 
L 245.138561 184.238772 
L 245.55842 183.666242 
L 245.978279 182.728544 
L 246.398138 182.678854 
L 246.817997 183.169426 
L 247.237855 183.189425 
L 247.657714 183.843385 
L 248.077573 184.013367 
L 248.497432 184.349169 
L 248.917291 183.184132 
L 249.757008 181.915344 
L 250.176867 182.268546 
L 250.596726 181.761746 
L 251.016585 181.601993 
L 251.436444 182.076338 
L 251.856302 183.946006 
L 252.276161 184.282099 
L 252.69602 183.639483 
L 253.115879 183.913662 
L 253.955597 182.444354 
L 254.375455 183.424786 
L 255.215173 183.317476 
L 255.635032 181.819166 
L 256.054891 183.920044 
L 256.894608 183.483209 
L 257.734326 183.657799 
L 258.154185 183.47772 
L 258.574044 183.831252 
L 258.993903 183.511076 
L 259.413761 182.989565 
L 259.83362 183.101497 
L 260.253479 181.937291 
L 260.673338 182.53696 
L 261.093197 182.459868 
L 261.513055 183.771745 
L 261.932914 182.608612 
L 262.772632 182.621122 
L 263.192491 184.629449 
L 263.61235 184.547165 
L 264.032208 182.995763 
L 264.452067 183.943875 
L 265.291785 182.103327 
L 265.711644 183.264742 
L 266.131503 182.612256 
L 266.551361 183.130904 
L 266.97122 181.207878 
L 267.391079 181.458843 
L 267.810938 182.874478 
L 268.230797 183.468714 
L 268.650655 182.413417 
L 269.070514 183.562234 
L 269.490373 183.485414 
L 269.910232 182.272996 
L 270.74995 184.520549 
L 271.169808 182.955339 
L 271.589667 183.683774 
L 272.009526 182.646584 
L 272.429385 183.805794 
L 273.269103 183.602213 
L 273.688961 184.010082 
L 274.10882 182.089138 
L 274.528679 182.203347 
L 274.948538 181.566831 
L 275.368397 182.677731 
L 275.788255 182.733933 
L 276.208114 183.198472 
L 276.627973 184.267211 
L 277.047832 183.031655 
L 277.467691 182.296462 
L 277.88755 182.831893 
L 278.727267 182.151626 
L 279.147126 183.081672 
L 279.566985 182.158796 
L 279.986844 182.857248 
L 280.406703 182.312743 
L 280.826561 182.50004 
L 281.24642 181.809975 
L 281.666279 182.154867 
L 282.086138 183.314784 
L 282.505997 183.066375 
L 282.925856 181.457901 
L 283.345714 181.910827 
L 284.185432 183.339219 
L 284.605291 183.525736 
L 285.02515 183.478408 
L 285.445008 183.00707 
L 285.864867 181.917764 
L 286.284726 182.865866 
L 286.704585 183.451538 
L 287.124444 183.020365 
L 287.544303 182.388633 
L 288.38402 184.68 
L 288.803879 181.844783 
L 289.643597 183.850154 
L 290.063456 183.874062 
L 290.483314 183.544639 
L 290.903173 182.521188 
L 291.323032 183.355576 
L 291.742891 182.614026 
L 292.16275 182.960755 
L 292.582608 183.582478 
L 293.422326 182.004044 
L 293.842185 182.949019 
L 294.262044 182.342258 
L 295.101761 183.590173 
L 295.52162 183.694177 
L 295.941479 183.948351 
L 296.361338 182.813105 
L 296.781197 182.643346 
L 297.620914 183.602934 
L 298.040773 183.723823 
L 298.460632 182.610331 
L 298.880491 181.987956 
L 299.30035 182.81044 
L 299.720208 181.953745 
L 300.140067 182.77268 
L 300.559926 183.2992 
L 300.979785 184.218277 
L 300.979785 184.218277 
" clip-path="url(#pee0ae089e3)" style="fill: none; stroke-dasharray: 5.55,2.4; stroke-dashoffset: 0; stroke: #2ca02c; stroke-width: 1.5"/>
   </g>
   <g id="patch_7">
    <path d="M 45 192.24 
L 45 25.92 
" style="fill: none; stroke: #000000; stroke-width: 0.8; stroke-linejoin: miter; stroke-linecap: square"/>
   </g>
   <g id="patch_8">
    <path d="M 324 192.24 
L 324 25.92 
" style="fill: none; stroke: #000000; stroke-width: 0.8; stroke-linejoin: miter; stroke-linecap: square"/>
   </g>
   <g id="patch_9">
    <path d="M 45 192.24 
L 324 192.24 
" style="fill: none; stroke: #000000; stroke-width: 0.8; stroke-linejoin: miter; stroke-linecap: square"/>
   </g>
   <g id="patch_10">
    <path d="M 45 25.92 
L 324 25.92 
" style="fill: none; stroke: #000000; stroke-width: 0.8; stroke-linejoin: miter; stroke-linecap: square"/>
   </g>
  </g>
 </g>
 <defs>
  <clipPath id="pee0ae089e3">
   <rect x="45" y="25.92" width="279" height="166.32"/>
  </clipPath>
 </defs>
</svg>
