<?xml version="1.0" encoding="UTF-8" standalone="no"?>
<!-- Created with Inkscape (http://www.inkscape.org/) -->

<svg
   width="17.810593mm"
   height="23.179657mm"
   viewBox="0 0 17.810593 23.179657"
   version="1.1"
   id="svg40452"
   inkscape:version="1.2 (1:1.2.1+202207142221+cd75a1ee6d)"
   sodipodi:docname="Gross_accolade.svg"
   xmlns:inkscape="http://www.inkscape.org/namespaces/inkscape"
   xmlns:sodipodi="http://sodipodi.sourceforge.net/DTD/sodipodi-0.dtd"
   xmlns="http://www.w3.org/2000/svg"
   xmlns:svg="http://www.w3.org/2000/svg"
   xmlns:ns12="http://www.iki.fi/pav/software/textext/">
  <sodipodi:namedview
     id="namedview40454"
     pagecolor="#ffffff"
     bordercolor="#666666"
     borderopacity="1.0"
     inkscape:showpageshadow="2"
     inkscape:pageopacity="0.0"
     inkscape:pagecheckerboard="0"
     inkscape:deskcolor="#d1d1d1"
     inkscape:document-units="mm"
     showgrid="false"
     inkscape:zoom="0.51669473"
     inkscape:cx="103.54276"
     inkscape:cy="211.92398"
     inkscape:window-width="1366"
     inkscape:window-height="746"
     inkscape:window-x="74"
     inkscape:window-y="27"
     inkscape:window-maximized="1"
     inkscape:current-layer="layer1" />
  <defs
     id="defs40449">
    <g
       id="id-459f8568-22ff-4c31-a322-7a8b1fe253e0">
      <symbol
   overflow="visible"
   id="id-892636b2-48da-40a7-927f-781d24fdbeaf">
        <path
   style="stroke:none"
   d=""
   id="id-d18267a3-aca7-4d66-aa73-104fcba96955" />

      </symbol>

      <symbol
   overflow="visible"
   id="id-899dd35b-479f-45ae-9111-026d04ae7f11">
        <path
   style="stroke:none"
   d="M 5.03125,4.515625 C 5.03125,3.703125 5.25,1.796875 7.015625,0.53125 7.140625,0.4375 7.15625,0.421875 7.15625,0.25 7.15625,0.015625 7.140625,0.015625 6.890625,0.015625 h -0.15625 c -2.140625,1.15625 -2.90625,3.03125 -2.90625,4.5 v 4.28125 c 0,0.265625 0.015625,0.28125 0.28125,0.28125 H 4.75 c 0.265625,0 0.28125,-0.015625 0.28125,-0.28125 z m 0,0"
   id="id-e739766f-61ff-4d45-90f0-4575f4b17bbb" />

      </symbol>

      <symbol
   overflow="visible"
   id="id-6796ca10-01d5-48cf-b659-29725a4c8894">
        <path
   style="stroke:none"
   d="M 5.03125,0.171875 C 5.03125,-0.09375 5.015625,-0.09375 4.75,-0.09375 H 4.109375 c -0.265625,0 -0.28125,0 -0.28125,0.265625 v 2.65625 c 0,0.25 0.015625,0.265625 0.28125,0.265625 H 4.75 c 0.265625,0 0.28125,-0.015625 0.28125,-0.265625 z m 0,0"
   id="id-2e089632-b878-4fdc-8786-62359d6d9dec" />

      </symbol>

      <symbol
   overflow="visible"
   id="id-94996773-be95-43ad-bcfd-2910ae16eed0">
        <path
   style="stroke:none"
   d="m 3.828125,17.78125 c 0,0.25 0.015625,0.265625 0.28125,0.265625 H 4.75 c 0.265625,0 0.28125,-0.01563 0.28125,-0.265625 V 13.5625 c 0,-1.203125 -0.515625,-3.234375 -2.75,-4.59375 2.25,-1.359375 2.75,-3.421875 2.75,-4.59375 V 0.171875 C 5.03125,-0.09375 5.015625,-0.09375 4.75,-0.09375 H 4.109375 c -0.265625,0 -0.28125,0 -0.28125,0.265625 v 4.21875 c 0,0.828125 -0.171875,2.90625 -2.015625,4.296875 -0.109375,0.09375 -0.125,0.109375 -0.125,0.28125 0,0.1875 0.015625,0.1875 0.125,0.28125 0.265625,0.203125 0.953125,0.734375 1.421875,1.734375 0.390625,0.796875 0.59375,1.6875 0.59375,2.578125 z m 0,0"
   id="id-941d832d-d1a4-44bc-905f-519670bcee45" />

      </symbol>

      <symbol
   overflow="visible"
   id="id-77faea9f-3788-48f7-8236-faabee7ff04a">
        <path
   style="stroke:none"
   d="m 6.890625,8.96875 c 0.25,0 0.265625,-0.015625 0.265625,-0.25 C 7.15625,8.546875 7.140625,8.53125 7.109375,8.5 6.796875,8.28125 6.078125,7.765625 5.609375,6.84375 5.21875,6.09375 5.03125,5.328125 5.03125,4.453125 V 0.171875 C 5.03125,-0.09375 5.015625,-0.09375 4.75,-0.09375 H 4.109375 c -0.265625,0 -0.28125,0 -0.28125,0.265625 v 4.28125 c 0,1.484375 0.765625,3.359375 2.90625,4.515625 z m 0,0"
   id="id-34e93a29-35ba-47a2-85ca-1d9b732227bd" />

      </symbol>

      <symbol
   overflow="visible"
   id="id-ddb647f2-484d-4562-a41f-f9bc9165d217">
        <path
   style="stroke:none"
   d="M 3.734375,17.640625 C 3.953125,17.640625 4,17.640625 4,17.5 4.03125,10.515625 4.828125,4.71875 8.328125,-0.15625 c 0.0625,-0.09375 0.0625,-0.109375 0.0625,-0.140625 0,-0.09375 -0.0625,-0.09375 -0.21875,-0.09375 -0.171875,0 -0.1875,0 -0.203125,0.015625 -0.046875,0.03125 -1.3125,1.484375 -2.3125,3.5 -1.3125,2.625 -2.140625,5.640625 -2.515625,9.28125 -0.03125,0.296875 -0.234375,2.375 -0.234375,4.734375 v 0.390625 c 0,0.109375 0.0625,0.109375 0.28125,0.109375 z m 0,0"
   id="id-dd9b3b30-ecd9-43c2-a578-01840d0930fe" />

      </symbol>

      <symbol
   overflow="visible"
   id="id-f645ce21-ec8a-4f25-ac1f-053c230d1d86">
        <path
   style="stroke:none"
   d="M 4,0.171875 C 4,-0.09375 4,-0.09375 3.734375,-0.09375 H 3.1875 c -0.28125,0 -0.28125,0 -0.28125,0.265625 V 5.8125 c 0,0.265625 0,0.265625 0.28125,0.265625 H 3.734375 C 4,6.078125 4,6.078125 4,5.8125 Z m 0,0"
   id="id-790fa2b7-855a-4c16-9fe6-dc64073ca5bf" />

      </symbol>

      <symbol
   overflow="visible"
   id="id-a8f2708d-18b3-4996-8e0f-4dfcf19dacac">
        <path
   style="stroke:none"
   d="m 3.1875,-0.5 c -0.21875,0 -0.28125,0 -0.28125,0.109375 V 0 c 0,6.09375 1.078125,9.65625 1.390625,10.671875 C 4.96875,12.875 6.078125,15.21875 7.75,17.265625 7.890625,17.453125 7.9375,17.5 7.96875,17.515625 8,17.53125 8,17.53125 8.171875,17.53125 c 0.15625,0 0.21875,0 0.21875,-0.09375 0,-0.01563 0,-0.04687 -0.0625,-0.125 C 5.015625,12.703125 4.015625,7.15625 4,-0.359375 4,-0.5 3.953125,-0.5 3.734375,-0.5 Z m 0,0"
   id="id-1078714d-5253-44ce-ba87-a155522f7d04" />

      </symbol>

      <symbol
   overflow="visible"
   id="id-db446f10-14fd-4938-ba9c-53c07f76bff2">
        <path
   style="stroke:none"
   d="M 5.8125,17.140625 C 5.8125,11.0625 4.71875,7.484375 4.421875,6.484375 3.734375,4.265625 2.625,1.9375 0.96875,-0.125 0.8125,-0.296875 0.78125,-0.34375 0.734375,-0.375 c -0.015625,0 -0.03125,-0.015625 -0.1875,-0.015625 -0.140625,0 -0.234375,0 -0.234375,0.09375 0,0.03125 0,0.046875 0.140625,0.234375 3.46875,4.84375 4.234375,10.8125 4.25,17.5625 0,0.140625 0.0625,0.140625 0.28125,0.140625 H 5.53125 c 0.203125,0 0.265625,0 0.28125,-0.109375 z m 0,0"
   id="id-54ad21b1-cde8-464e-8038-179d87005ea9" />

      </symbol>

      <symbol
   overflow="visible"
   id="id-cb1619fb-76fe-4b5d-a91e-bf8f0ab62a54">
        <path
   style="stroke:none"
   d="M 5.8125,0.171875 C 5.8125,-0.09375 5.796875,-0.09375 5.53125,-0.09375 H 4.984375 c -0.265625,0 -0.28125,0 -0.28125,0.265625 V 5.8125 c 0,0.265625 0.015625,0.265625 0.28125,0.265625 H 5.53125 c 0.265625,0 0.28125,0 0.28125,-0.265625 z m 0,0"
   id="id-dbcdb398-17fb-424e-ace1-819826be2b69" />

      </symbol>

      <symbol
   overflow="visible"
   id="id-9587bcf6-4696-4b9b-a149-7f8419d476e0">
        <path
   style="stroke:none"
   d="M 5.8125,-0.390625 C 5.796875,-0.5 5.734375,-0.5 5.53125,-0.5 H 4.984375 c -0.21875,0 -0.28125,0 -0.28125,0.140625 0,1.03125 -0.015625,3.40625 -0.265625,5.875 C 3.890625,10.671875 2.578125,14.25 0.390625,17.3125 0.3125,17.390625 0.3125,17.421875 0.3125,17.4375 c 0,0.09375 0.09375,0.09375 0.234375,0.09375 0.15625,0 0.1875,0 0.203125,-0.01563 C 0.78125,17.48438 2.046875,16.03125 3.0625,14.03125 4.375,11.390625 5.203125,8.375 5.578125,4.75 5.609375,4.4375 5.8125,2.359375 5.8125,0 Z m 0,0"
   id="id-b77bee3c-eb4b-413c-9322-973655125ce2" />

      </symbol>

      <symbol
   overflow="visible"
   id="id-a7d7207d-95eb-4a27-85d1-ee59db1d10d3">
        <path
   style="stroke:none"
   d="m 3.828125,8.796875 c 0,0.265625 0.015625,0.28125 0.28125,0.28125 H 4.75 c 0.265625,0 0.28125,-0.015625 0.28125,-0.28125 v -4.28125 c 0,-1.46875 -0.78125,-3.34375 -2.921875,-4.5 H 1.96875 c -0.265625,0 -0.28125,0 -0.28125,0.234375 0,0.171875 0.015625,0.1875 0.0625,0.21875 0.296875,0.234375 1.015625,0.734375 1.484375,1.65625 0.28125,0.53125 0.59375,1.3125 0.59375,2.390625 z m 0,0"
   id="id-45491cb2-36aa-452a-aa81-0401ac817525" />

      </symbol>

      <symbol
   overflow="visible"
   id="id-f07dba9b-775b-4a11-9688-54633be1a057">
        <path
   style="stroke:none"
   d="m 5.03125,13.5625 c 0,-0.84375 0.171875,-2.921875 2,-4.3125 0.109375,-0.09375 0.125,-0.09375 0.125,-0.28125 0,-0.171875 -0.015625,-0.1875 -0.125,-0.28125 C 6.78125,8.5 6.09375,7.96875 5.609375,6.953125 5.21875,6.15625 5.03125,5.28125 5.03125,4.390625 V 0.171875 C 5.03125,-0.09375 5.015625,-0.09375 4.75,-0.09375 H 4.109375 c -0.265625,0 -0.28125,0 -0.28125,0.265625 V 4.375 c 0,1.203125 0.515625,3.234375 2.734375,4.59375 -2.25,1.375 -2.734375,3.421875 -2.734375,4.59375 v 4.21875 c 0,0.25 0.015625,0.265625 0.28125,0.265625 H 4.75 c 0.265625,0 0.28125,-0.01563 0.28125,-0.265625 z m 0,0"
   id="id-454e893c-b53e-4e00-ab31-42c65f831be2" />

      </symbol>

      <symbol
   overflow="visible"
   id="id-d85839aa-63f6-46bd-8c7c-274ccdef9b42">
        <path
   style="stroke:none"
   d="m 3.828125,4.453125 c 0,0.875 -0.234375,2.75 -2,3.984375 -0.125,0.09375 -0.140625,0.109375 -0.140625,0.28125 0,0.234375 0.015625,0.25 0.28125,0.25 H 2.109375 C 4.265625,7.8125 5.03125,5.921875 5.03125,4.453125 V 0.171875 C 5.03125,-0.09375 5.015625,-0.09375 4.75,-0.09375 H 4.109375 c -0.265625,0 -0.28125,0 -0.28125,0.265625 z m 0,0"
   id="id-519dbffc-b2a9-4ae2-9632-fd5f6a0a949e" />

      </symbol>

      <symbol
   overflow="visible"
   id="id-1c652ada-926d-4586-93d2-8b793215cc5c">
        <path
   style="stroke:none"
   d=""
   id="id-22ae46b6-4cdf-45f8-8e4a-f6c26ab9fb9c" />

      </symbol>

      <symbol
   overflow="visible"
   id="id-8b65e1e9-ef97-4639-bac1-fc58fb8f1b0d">
        <path
   style="stroke:none"
   d="m 4.578125,-3.1875 c 0,-0.796875 -0.046875,-1.59375 -0.390625,-2.328125 -0.453125,-0.96875 -1.28125,-1.125 -1.6875,-1.125 -0.609375,0 -1.328125,0.265625 -1.75,1.1875 -0.3125,0.6875 -0.359375,1.46875 -0.359375,2.265625 0,0.75 0.03125,1.640625 0.453125,2.40625 0.421875,0.796875 1.15625,1 1.640625,1 0.53125,0 1.296875,-0.203125 1.734375,-1.15625 0.3125,-0.6875 0.359375,-1.46875 0.359375,-2.25 z M 2.484375,0 C 2.09375,0 1.5,-0.25 1.328125,-1.203125 1.21875,-1.796875 1.21875,-2.71875 1.21875,-3.3125 c 0,-0.640625 0,-1.296875 0.078125,-1.828125 0.1875,-1.1875 0.9375,-1.28125 1.1875,-1.28125 0.328125,0 0.984375,0.1875 1.171875,1.171875 0.109375,0.5625 0.109375,1.3125 0.109375,1.9375 0,0.75 0,1.421875 -0.109375,2.0625 C 3.5,-0.296875 2.9375,0 2.484375,0 Z m 0,0"
   id="id-bb44b572-ea23-42c8-b8f0-92d31f99fb0a" />

      </symbol>

    </g>
  </defs>
  <g
     inkscape:label="Calque 1"
     inkscape:groupmode="layer"
     id="layer1"
     transform="translate(-77.960544,-92.505137)">
    <g
       transform="matrix(0.484764,0,0,0.484764,77.960786,92.504955)"
       ns12:version="1.8.1"
       ns12:texconverter="pdflatex"
       ns12:pdfconverter="inkscape"
       ns12:text="\\begin{equation*}\n\\left\\{ \n\\begin{pmatrix}\n0\\\\\n0\\\\\n0\\\\\n0\\\\\n\\end{pmatrix}\n\\right\\}\n\\end{equation*}"
       ns12:preamble="/home/pellet-mary/.config/inkscape/extensions/textext/default_packages.tex"
       ns12:scale="1.3741319229930484"
       ns12:alignment="middle center"
       ns12:stroke-to-path="0"
       ns12:inkscapeversion="1.2"
       ns12:jacobian_sqrt="0.484764"
       id="g28832"
       style="stroke-linecap:butt;stroke-linejoin:round"><defs
   id="id-88ae33d4-6c07-47fe-99da-2560daa98d31">
    <g
   id="g43540">
      <symbol
   overflow="visible"
   id="symbol43478">
        <path
   style="stroke:none"
   d=""
   id="path43476" />

      </symbol>

      <symbol
   overflow="visible"
   id="symbol43482">
        <path
   style="stroke:none"
   d="M 5.03125,4.515625 C 5.03125,3.703125 5.25,1.796875 7.015625,0.53125 7.140625,0.4375 7.15625,0.421875 7.15625,0.25 7.15625,0.015625 7.140625,0.015625 6.890625,0.015625 h -0.15625 c -2.140625,1.15625 -2.90625,3.03125 -2.90625,4.5 v 4.28125 c 0,0.265625 0.015625,0.28125 0.28125,0.28125 H 4.75 c 0.265625,0 0.28125,-0.015625 0.28125,-0.28125 z m 0,0"
   id="path43480" />

      </symbol>

      <symbol
   overflow="visible"
   id="symbol43486">
        <path
   style="stroke:none"
   d="M 5.03125,0.171875 C 5.03125,-0.09375 5.015625,-0.09375 4.75,-0.09375 H 4.109375 c -0.265625,0 -0.28125,0 -0.28125,0.265625 v 2.65625 c 0,0.25 0.015625,0.265625 0.28125,0.265625 H 4.75 c 0.265625,0 0.28125,-0.015625 0.28125,-0.265625 z m 0,0"
   id="path43484" />

      </symbol>

      <symbol
   overflow="visible"
   id="symbol43490">
        <path
   style="stroke:none"
   d="m 3.828125,17.78125 c 0,0.25 0.015625,0.265625 0.28125,0.265625 H 4.75 c 0.265625,0 0.28125,-0.01563 0.28125,-0.265625 V 13.5625 c 0,-1.203125 -0.515625,-3.234375 -2.75,-4.59375 2.25,-1.359375 2.75,-3.421875 2.75,-4.59375 V 0.171875 C 5.03125,-0.09375 5.015625,-0.09375 4.75,-0.09375 H 4.109375 c -0.265625,0 -0.28125,0 -0.28125,0.265625 v 4.21875 c 0,0.828125 -0.171875,2.90625 -2.015625,4.296875 -0.109375,0.09375 -0.125,0.109375 -0.125,0.28125 0,0.1875 0.015625,0.1875 0.125,0.28125 0.265625,0.203125 0.953125,0.734375 1.421875,1.734375 0.390625,0.796875 0.59375,1.6875 0.59375,2.578125 z m 0,0"
   id="path43488" />

      </symbol>

      <symbol
   overflow="visible"
   id="symbol43494">
        <path
   style="stroke:none"
   d="m 6.890625,8.96875 c 0.25,0 0.265625,-0.015625 0.265625,-0.25 C 7.15625,8.546875 7.140625,8.53125 7.109375,8.5 6.796875,8.28125 6.078125,7.765625 5.609375,6.84375 5.21875,6.09375 5.03125,5.328125 5.03125,4.453125 V 0.171875 C 5.03125,-0.09375 5.015625,-0.09375 4.75,-0.09375 H 4.109375 c -0.265625,0 -0.28125,0 -0.28125,0.265625 v 4.28125 c 0,1.484375 0.765625,3.359375 2.90625,4.515625 z m 0,0"
   id="path43492" />

      </symbol>

      <symbol
   overflow="visible"
   id="symbol43498">
        <path
   style="stroke:none"
   d="M 3.734375,17.640625 C 3.953125,17.640625 4,17.640625 4,17.5 4.03125,10.515625 4.828125,4.71875 8.328125,-0.15625 c 0.0625,-0.09375 0.0625,-0.109375 0.0625,-0.140625 0,-0.09375 -0.0625,-0.09375 -0.21875,-0.09375 -0.171875,0 -0.1875,0 -0.203125,0.015625 -0.046875,0.03125 -1.3125,1.484375 -2.3125,3.5 -1.3125,2.625 -2.140625,5.640625 -2.515625,9.28125 -0.03125,0.296875 -0.234375,2.375 -0.234375,4.734375 v 0.390625 c 0,0.109375 0.0625,0.109375 0.28125,0.109375 z m 0,0"
   id="path43496" />

      </symbol>

      <symbol
   overflow="visible"
   id="symbol43502">
        <path
   style="stroke:none"
   d="M 4,0.171875 C 4,-0.09375 4,-0.09375 3.734375,-0.09375 H 3.1875 c -0.28125,0 -0.28125,0 -0.28125,0.265625 V 5.8125 c 0,0.265625 0,0.265625 0.28125,0.265625 H 3.734375 C 4,6.078125 4,6.078125 4,5.8125 Z m 0,0"
   id="path43500" />

      </symbol>

      <symbol
   overflow="visible"
   id="symbol43506">
        <path
   style="stroke:none"
   d="m 3.1875,-0.5 c -0.21875,0 -0.28125,0 -0.28125,0.109375 V 0 c 0,6.09375 1.078125,9.65625 1.390625,10.671875 C 4.96875,12.875 6.078125,15.21875 7.75,17.265625 7.890625,17.453125 7.9375,17.5 7.96875,17.515625 8,17.53125 8,17.53125 8.171875,17.53125 c 0.15625,0 0.21875,0 0.21875,-0.09375 0,-0.01563 0,-0.04687 -0.0625,-0.125 C 5.015625,12.703125 4.015625,7.15625 4,-0.359375 4,-0.5 3.953125,-0.5 3.734375,-0.5 Z m 0,0"
   id="path43504" />

      </symbol>

      <symbol
   overflow="visible"
   id="symbol43510">
        <path
   style="stroke:none"
   d="M 5.8125,17.140625 C 5.8125,11.0625 4.71875,7.484375 4.421875,6.484375 3.734375,4.265625 2.625,1.9375 0.96875,-0.125 0.8125,-0.296875 0.78125,-0.34375 0.734375,-0.375 c -0.015625,0 -0.03125,-0.015625 -0.1875,-0.015625 -0.140625,0 -0.234375,0 -0.234375,0.09375 0,0.03125 0,0.046875 0.140625,0.234375 3.46875,4.84375 4.234375,10.8125 4.25,17.5625 0,0.140625 0.0625,0.140625 0.28125,0.140625 H 5.53125 c 0.203125,0 0.265625,0 0.28125,-0.109375 z m 0,0"
   id="path43508" />

      </symbol>

      <symbol
   overflow="visible"
   id="symbol43514">
        <path
   style="stroke:none"
   d="M 5.8125,0.171875 C 5.8125,-0.09375 5.796875,-0.09375 5.53125,-0.09375 H 4.984375 c -0.265625,0 -0.28125,0 -0.28125,0.265625 V 5.8125 c 0,0.265625 0.015625,0.265625 0.28125,0.265625 H 5.53125 c 0.265625,0 0.28125,0 0.28125,-0.265625 z m 0,0"
   id="path43512" />

      </symbol>

      <symbol
   overflow="visible"
   id="symbol43518">
        <path
   style="stroke:none"
   d="M 5.8125,-0.390625 C 5.796875,-0.5 5.734375,-0.5 5.53125,-0.5 H 4.984375 c -0.21875,0 -0.28125,0 -0.28125,0.140625 0,1.03125 -0.015625,3.40625 -0.265625,5.875 C 3.890625,10.671875 2.578125,14.25 0.390625,17.3125 0.3125,17.390625 0.3125,17.421875 0.3125,17.4375 c 0,0.09375 0.09375,0.09375 0.234375,0.09375 0.15625,0 0.1875,0 0.203125,-0.01563 C 0.78125,17.48438 2.046875,16.03125 3.0625,14.03125 4.375,11.390625 5.203125,8.375 5.578125,4.75 5.609375,4.4375 5.8125,2.359375 5.8125,0 Z m 0,0"
   id="path43516" />

      </symbol>

      <symbol
   overflow="visible"
   id="symbol43522">
        <path
   style="stroke:none"
   d="m 3.828125,8.796875 c 0,0.265625 0.015625,0.28125 0.28125,0.28125 H 4.75 c 0.265625,0 0.28125,-0.015625 0.28125,-0.28125 v -4.28125 c 0,-1.46875 -0.78125,-3.34375 -2.921875,-4.5 H 1.96875 c -0.265625,0 -0.28125,0 -0.28125,0.234375 0,0.171875 0.015625,0.1875 0.0625,0.21875 0.296875,0.234375 1.015625,0.734375 1.484375,1.65625 0.28125,0.53125 0.59375,1.3125 0.59375,2.390625 z m 0,0"
   id="path43520" />

      </symbol>

      <symbol
   overflow="visible"
   id="symbol43526">
        <path
   style="stroke:none"
   d="m 5.03125,13.5625 c 0,-0.84375 0.171875,-2.921875 2,-4.3125 0.109375,-0.09375 0.125,-0.09375 0.125,-0.28125 0,-0.171875 -0.015625,-0.1875 -0.125,-0.28125 C 6.78125,8.5 6.09375,7.96875 5.609375,6.953125 5.21875,6.15625 5.03125,5.28125 5.03125,4.390625 V 0.171875 C 5.03125,-0.09375 5.015625,-0.09375 4.75,-0.09375 H 4.109375 c -0.265625,0 -0.28125,0 -0.28125,0.265625 V 4.375 c 0,1.203125 0.515625,3.234375 2.734375,4.59375 -2.25,1.375 -2.734375,3.421875 -2.734375,4.59375 v 4.21875 c 0,0.25 0.015625,0.265625 0.28125,0.265625 H 4.75 c 0.265625,0 0.28125,-0.01563 0.28125,-0.265625 z m 0,0"
   id="path43524" />

      </symbol>

      <symbol
   overflow="visible"
   id="symbol43530">
        <path
   style="stroke:none"
   d="m 3.828125,4.453125 c 0,0.875 -0.234375,2.75 -2,3.984375 -0.125,0.09375 -0.140625,0.109375 -0.140625,0.28125 0,0.234375 0.015625,0.25 0.28125,0.25 H 2.109375 C 4.265625,7.8125 5.03125,5.921875 5.03125,4.453125 V 0.171875 C 5.03125,-0.09375 5.015625,-0.09375 4.75,-0.09375 H 4.109375 c -0.265625,0 -0.28125,0 -0.28125,0.265625 z m 0,0"
   id="path43528" />

      </symbol>

      <symbol
   overflow="visible"
   id="symbol43534">
        <path
   style="stroke:none"
   d=""
   id="path43532" />

      </symbol>

      <symbol
   overflow="visible"
   id="symbol43538">
        <path
   style="stroke:none"
   d="m 4.578125,-3.1875 c 0,-0.796875 -0.046875,-1.59375 -0.390625,-2.328125 -0.453125,-0.96875 -1.28125,-1.125 -1.6875,-1.125 -0.609375,0 -1.328125,0.265625 -1.75,1.1875 -0.3125,0.6875 -0.359375,1.46875 -0.359375,2.265625 0,0.75 0.03125,1.640625 0.453125,2.40625 0.421875,0.796875 1.15625,1 1.640625,1 0.53125,0 1.296875,-0.203125 1.734375,-1.15625 0.3125,-0.6875 0.359375,-1.46875 0.359375,-2.25 z M 2.484375,0 C 2.09375,0 1.5,-0.25 1.328125,-1.203125 1.21875,-1.796875 1.21875,-2.71875 1.21875,-3.3125 c 0,-0.640625 0,-1.296875 0.078125,-1.828125 0.1875,-1.1875 0.9375,-1.28125 1.1875,-1.28125 0.328125,0 0.984375,0.1875 1.171875,1.171875 0.109375,0.5625 0.109375,1.3125 0.109375,1.9375 0,0.75 0,1.421875 -0.109375,2.0625 C 3.5,-0.296875 2.9375,0 2.484375,0 Z m 0,0"
   id="path43536" />

      </symbol>

    </g>

  </defs>

  <g
   id="id-04168cce-bfed-402d-b3d2-3ea01d839fee"
   transform="translate(-287.248,-135.768)"
   style="stroke-linecap:butt;stroke-linejoin:round">
    <g
   style="fill:#000000;fill-opacity:1;stroke-linecap:butt;stroke-linejoin:round"
   id="id-7f802e4b-15b5-4450-a8ac-0097443e3e6a">
      <g
   transform="translate(285.56,135.761)"
   id="g40084"
   style="stroke-linecap:butt;stroke-linejoin:round"><path
   style="stroke:none;stroke-linecap:butt;stroke-linejoin:round"
   d="M 5.03125,4.515625 C 5.03125,3.703125 5.25,1.796875 7.015625,0.53125 7.140625,0.4375 7.15625,0.421875 7.15625,0.25 7.15625,0.015625 7.140625,0.015625 6.890625,0.015625 h -0.15625 c -2.140625,1.15625 -2.90625,3.03125 -2.90625,4.5 v 4.28125 c 0,0.265625 0.015625,0.28125 0.28125,0.28125 H 4.75 c 0.265625,0 0.28125,-0.015625 0.28125,-0.28125 z m 0,0"
   id="id-8874a928-c17f-4a5e-9ed3-6121a42bdbe6" />

      </g>
</g>

    <g
   style="fill:#000000;fill-opacity:1;stroke-linecap:butt;stroke-linejoin:round"
   id="id-d4c72400-c3b8-4b43-88d5-55bc4a4f0a53">
      <g
   transform="translate(285.56,144.727)"
   id="g40088"
   style="stroke-linecap:butt;stroke-linejoin:round"><path
   style="stroke:none;stroke-linecap:butt;stroke-linejoin:round"
   d="M 5.03125,0.171875 C 5.03125,-0.09375 5.015625,-0.09375 4.75,-0.09375 H 4.109375 c -0.265625,0 -0.28125,0 -0.28125,0.265625 v 2.65625 c 0,0.25 0.015625,0.265625 0.28125,0.265625 H 4.75 c 0.265625,0 0.28125,-0.015625 0.28125,-0.265625 z m 0,0"
   id="id-874e1832-5902-4886-beba-81c825c2a7e3" />

      </g>
</g>

    <g
   style="fill:#000000;fill-opacity:1;stroke-linecap:butt;stroke-linejoin:round"
   id="id-594cfe7e-3ccf-4579-95b0-f73f5c837adc">
      <g
   transform="translate(285.56,147.716)"
   id="g40092"
   style="stroke-linecap:butt;stroke-linejoin:round"><path
   style="stroke:none;stroke-linecap:butt;stroke-linejoin:round"
   d="M 5.03125,0.171875 C 5.03125,-0.09375 5.015625,-0.09375 4.75,-0.09375 H 4.109375 c -0.265625,0 -0.28125,0 -0.28125,0.265625 v 2.65625 c 0,0.25 0.015625,0.265625 0.28125,0.265625 H 4.75 c 0.265625,0 0.28125,-0.015625 0.28125,-0.265625 z m 0,0"
   id="id-312f6944-0339-4023-9c49-e937afab0e62" />

      </g>
</g>

    <g
   style="fill:#000000;fill-opacity:1;stroke-linecap:butt;stroke-linejoin:round"
   id="id-76e1c76d-a84f-4c20-b9b5-be0793e2c889">
      <g
   transform="translate(285.56,150.705)"
   id="g40096"
   style="stroke-linecap:butt;stroke-linejoin:round"><path
   style="stroke:none;stroke-linecap:butt;stroke-linejoin:round"
   d="m 3.828125,17.78125 c 0,0.25 0.015625,0.265625 0.28125,0.265625 H 4.75 c 0.265625,0 0.28125,-0.01563 0.28125,-0.265625 V 13.5625 c 0,-1.203125 -0.515625,-3.234375 -2.75,-4.59375 2.25,-1.359375 2.75,-3.421875 2.75,-4.59375 V 0.171875 C 5.03125,-0.09375 5.015625,-0.09375 4.75,-0.09375 H 4.109375 c -0.265625,0 -0.28125,0 -0.28125,0.265625 v 4.21875 c 0,0.828125 -0.171875,2.90625 -2.015625,4.296875 -0.109375,0.09375 -0.125,0.109375 -0.125,0.28125 0,0.1875 0.015625,0.1875 0.125,0.28125 0.265625,0.203125 0.953125,0.734375 1.421875,1.734375 0.390625,0.796875 0.59375,1.6875 0.59375,2.578125 z m 0,0"
   id="id-65c58e2f-0f04-43cc-ac91-f7fca04dc740" />

      </g>
</g>

    <g
   style="fill:#000000;fill-opacity:1;stroke-linecap:butt;stroke-linejoin:round"
   id="id-2e370890-42bc-4e81-9939-4bac179edd7e">
      <g
   transform="translate(285.56,168.638)"
   id="g40100"
   style="stroke-linecap:butt;stroke-linejoin:round"><path
   style="stroke:none;stroke-linecap:butt;stroke-linejoin:round"
   d="M 5.03125,0.171875 C 5.03125,-0.09375 5.015625,-0.09375 4.75,-0.09375 H 4.109375 c -0.265625,0 -0.28125,0 -0.28125,0.265625 v 2.65625 c 0,0.25 0.015625,0.265625 0.28125,0.265625 H 4.75 c 0.265625,0 0.28125,-0.015625 0.28125,-0.265625 z m 0,0"
   id="id-93c33f0b-6dcf-4b08-b996-b9bcc884fbed" />

      </g>
</g>

    <g
   style="fill:#000000;fill-opacity:1;stroke-linecap:butt;stroke-linejoin:round"
   id="id-5d48fc55-f8d3-413e-96b1-4a7499af50ba">
      <g
   transform="translate(285.56,171.627)"
   id="g40104"
   style="stroke-linecap:butt;stroke-linejoin:round"><path
   style="stroke:none;stroke-linecap:butt;stroke-linejoin:round"
   d="M 5.03125,0.171875 C 5.03125,-0.09375 5.015625,-0.09375 4.75,-0.09375 H 4.109375 c -0.265625,0 -0.28125,0 -0.28125,0.265625 v 2.65625 c 0,0.25 0.015625,0.265625 0.28125,0.265625 H 4.75 c 0.265625,0 0.28125,-0.015625 0.28125,-0.265625 z m 0,0"
   id="id-00969ef6-2dcd-4680-a315-df308444f30a" />

      </g>
</g>

    <g
   style="fill:#000000;fill-opacity:1;stroke-linecap:butt;stroke-linejoin:round"
   id="id-55b30d42-ff70-4f2f-9e1a-894678f1babe">
      <g
   transform="translate(285.56,174.616)"
   id="g40108"
   style="stroke-linecap:butt;stroke-linejoin:round"><path
   style="stroke:none;stroke-linecap:butt;stroke-linejoin:round"
   d="m 6.890625,8.96875 c 0.25,0 0.265625,-0.015625 0.265625,-0.25 C 7.15625,8.546875 7.140625,8.53125 7.109375,8.5 6.796875,8.28125 6.078125,7.765625 5.609375,6.84375 5.21875,6.09375 5.03125,5.328125 5.03125,4.453125 V 0.171875 C 5.03125,-0.09375 5.015625,-0.09375 4.75,-0.09375 H 4.109375 c -0.265625,0 -0.28125,0 -0.28125,0.265625 v 4.28125 c 0,1.484375 0.765625,3.359375 2.90625,4.515625 z m 0,0"
   id="id-4bd3e082-1838-4173-8ff9-0e6ead4e1d8a" />

      </g>
</g>

    <g
   style="fill:#000000;fill-opacity:1;stroke-linecap:butt;stroke-linejoin:round"
   id="id-85de3cdb-05ac-4ca0-838f-636f05cc8c44">
      <g
   transform="translate(294.416,136.159)"
   id="g40112"
   style="stroke-linecap:butt;stroke-linejoin:round"><path
   style="stroke:none;stroke-linecap:butt;stroke-linejoin:round"
   d="M 3.734375,17.640625 C 3.953125,17.640625 4,17.640625 4,17.5 4.03125,10.515625 4.828125,4.71875 8.328125,-0.15625 c 0.0625,-0.09375 0.0625,-0.109375 0.0625,-0.140625 0,-0.09375 -0.0625,-0.09375 -0.21875,-0.09375 -0.171875,0 -0.1875,0 -0.203125,0.015625 -0.046875,0.03125 -1.3125,1.484375 -2.3125,3.5 -1.3125,2.625 -2.140625,5.640625 -2.515625,9.28125 -0.03125,0.296875 -0.234375,2.375 -0.234375,4.734375 v 0.390625 c 0,0.109375 0.0625,0.109375 0.28125,0.109375 z m 0,0"
   id="id-91fd3283-2f4a-486b-b6b7-38362c097754" />

      </g>
</g>

    <g
   style="fill:#000000;fill-opacity:1;stroke-linecap:butt;stroke-linejoin:round"
   id="id-0c83629a-9711-4ece-a6ac-150bb790af57">
      <g
   transform="translate(294.416,153.694)"
   id="g40116"
   style="stroke-linecap:butt;stroke-linejoin:round"><path
   style="stroke:none;stroke-linecap:butt;stroke-linejoin:round"
   d="M 4,0.171875 C 4,-0.09375 4,-0.09375 3.734375,-0.09375 H 3.1875 c -0.28125,0 -0.28125,0 -0.28125,0.265625 V 5.8125 c 0,0.265625 0,0.265625 0.28125,0.265625 H 3.734375 C 4,6.078125 4,6.078125 4,5.8125 Z m 0,0"
   id="id-376e6827-598e-403f-a0ea-47b0126e3ebc" />

      </g>
</g>

    <g
   style="fill:#000000;fill-opacity:1;stroke-linecap:butt;stroke-linejoin:round"
   id="id-cf4e870c-1506-4095-8954-0599a3868144">
      <g
   transform="translate(294.416,159.671)"
   id="g40120"
   style="stroke-linecap:butt;stroke-linejoin:round"><path
   style="stroke:none;stroke-linecap:butt;stroke-linejoin:round"
   d="M 4,0.171875 C 4,-0.09375 4,-0.09375 3.734375,-0.09375 H 3.1875 c -0.28125,0 -0.28125,0 -0.28125,0.265625 V 5.8125 c 0,0.265625 0,0.265625 0.28125,0.265625 H 3.734375 C 4,6.078125 4,6.078125 4,5.8125 Z m 0,0"
   id="id-b08d20c8-0ccb-49ff-9cae-a3fdd2f8cea4" />

      </g>
</g>

    <g
   style="fill:#000000;fill-opacity:1;stroke-linecap:butt;stroke-linejoin:round"
   id="id-f280c6ed-c37d-4ce7-b38c-a5e4b292e040">
      <g
   transform="translate(294.416,166.048)"
   id="g40124"
   style="stroke-linecap:butt;stroke-linejoin:round"><path
   style="stroke:none;stroke-linecap:butt;stroke-linejoin:round"
   d="m 3.1875,-0.5 c -0.21875,0 -0.28125,0 -0.28125,0.109375 V 0 c 0,6.09375 1.078125,9.65625 1.390625,10.671875 C 4.96875,12.875 6.078125,15.21875 7.75,17.265625 7.890625,17.453125 7.9375,17.5 7.96875,17.515625 8,17.53125 8,17.53125 8.171875,17.53125 c 0.15625,0 0.21875,0 0.21875,-0.09375 0,-0.01563 0,-0.04687 -0.0625,-0.125 C 5.015625,12.703125 4.015625,7.15625 4,-0.359375 4,-0.5 3.953125,-0.5 3.734375,-0.5 Z m 0,0"
   id="id-5ba9b168-0f34-437f-8e0e-f803bfdb1ca9" />

      </g>
</g>

    <g
   style="fill:#000000;fill-opacity:1;stroke-linecap:butt;stroke-linejoin:round"
   id="id-a9f95900-8655-429d-a731-ca3e66f69e56">
      <g
   transform="translate(303.133,144.13)"
   id="g40128"
   style="stroke-linecap:butt;stroke-linejoin:round"><path
   style="stroke:none;stroke-linecap:butt;stroke-linejoin:round"
   d="m 4.578125,-3.1875 c 0,-0.796875 -0.046875,-1.59375 -0.390625,-2.328125 -0.453125,-0.96875 -1.28125,-1.125 -1.6875,-1.125 -0.609375,0 -1.328125,0.265625 -1.75,1.1875 -0.3125,0.6875 -0.359375,1.46875 -0.359375,2.265625 0,0.75 0.03125,1.640625 0.453125,2.40625 0.421875,0.796875 1.15625,1 1.640625,1 0.53125,0 1.296875,-0.203125 1.734375,-1.15625 0.3125,-0.6875 0.359375,-1.46875 0.359375,-2.25 z M 2.484375,0 C 2.09375,0 1.5,-0.25 1.328125,-1.203125 1.21875,-1.796875 1.21875,-2.71875 1.21875,-3.3125 c 0,-0.640625 0,-1.296875 0.078125,-1.828125 0.1875,-1.1875 0.9375,-1.28125 1.1875,-1.28125 0.328125,0 0.984375,0.1875 1.171875,1.171875 0.109375,0.5625 0.109375,1.3125 0.109375,1.9375 0,0.75 0,1.421875 -0.109375,2.0625 C 3.5,-0.296875 2.9375,0 2.484375,0 Z m 0,0"
   id="id-0942a258-df8a-4210-91ea-24f311daabbd" />

      </g>
</g>

    <g
   style="fill:#000000;fill-opacity:1;stroke-linecap:butt;stroke-linejoin:round"
   id="id-1cdcbd5e-e604-4f5c-bc39-d0d8c105bfd5">
      <g
   transform="translate(303.133,156.085)"
   id="g40132"
   style="stroke-linecap:butt;stroke-linejoin:round"><path
   style="stroke:none;stroke-linecap:butt;stroke-linejoin:round"
   d="m 4.578125,-3.1875 c 0,-0.796875 -0.046875,-1.59375 -0.390625,-2.328125 -0.453125,-0.96875 -1.28125,-1.125 -1.6875,-1.125 -0.609375,0 -1.328125,0.265625 -1.75,1.1875 -0.3125,0.6875 -0.359375,1.46875 -0.359375,2.265625 0,0.75 0.03125,1.640625 0.453125,2.40625 0.421875,0.796875 1.15625,1 1.640625,1 0.53125,0 1.296875,-0.203125 1.734375,-1.15625 0.3125,-0.6875 0.359375,-1.46875 0.359375,-2.25 z M 2.484375,0 C 2.09375,0 1.5,-0.25 1.328125,-1.203125 1.21875,-1.796875 1.21875,-2.71875 1.21875,-3.3125 c 0,-0.640625 0,-1.296875 0.078125,-1.828125 0.1875,-1.1875 0.9375,-1.28125 1.1875,-1.28125 0.328125,0 0.984375,0.1875 1.171875,1.171875 0.109375,0.5625 0.109375,1.3125 0.109375,1.9375 0,0.75 0,1.421875 -0.109375,2.0625 C 3.5,-0.296875 2.9375,0 2.484375,0 Z m 0,0"
   id="id-3e6dda39-9b64-4b34-9f1e-88ca20e75078" />

      </g>
</g>

    <g
   style="fill:#000000;fill-opacity:1;stroke-linecap:butt;stroke-linejoin:round"
   id="id-b2ce94c0-b5c0-4aee-93b6-1dc2242f9da6">
      <g
   transform="translate(303.133,168.04)"
   id="g40136"
   style="stroke-linecap:butt;stroke-linejoin:round"><path
   style="stroke:none;stroke-linecap:butt;stroke-linejoin:round"
   d="m 4.578125,-3.1875 c 0,-0.796875 -0.046875,-1.59375 -0.390625,-2.328125 -0.453125,-0.96875 -1.28125,-1.125 -1.6875,-1.125 -0.609375,0 -1.328125,0.265625 -1.75,1.1875 -0.3125,0.6875 -0.359375,1.46875 -0.359375,2.265625 0,0.75 0.03125,1.640625 0.453125,2.40625 0.421875,0.796875 1.15625,1 1.640625,1 0.53125,0 1.296875,-0.203125 1.734375,-1.15625 0.3125,-0.6875 0.359375,-1.46875 0.359375,-2.25 z M 2.484375,0 C 2.09375,0 1.5,-0.25 1.328125,-1.203125 1.21875,-1.796875 1.21875,-2.71875 1.21875,-3.3125 c 0,-0.640625 0,-1.296875 0.078125,-1.828125 0.1875,-1.1875 0.9375,-1.28125 1.1875,-1.28125 0.328125,0 0.984375,0.1875 1.171875,1.171875 0.109375,0.5625 0.109375,1.3125 0.109375,1.9375 0,0.75 0,1.421875 -0.109375,2.0625 C 3.5,-0.296875 2.9375,0 2.484375,0 Z m 0,0"
   id="id-102f98bf-377d-4e50-bdc5-8fb8f6245e1d" />

      </g>
</g>

    <g
   style="fill:#000000;fill-opacity:1;stroke-linecap:butt;stroke-linejoin:round"
   id="id-97a9eab6-65f5-45bd-95e3-bbdec9f4458a">
      <g
   transform="translate(303.133,179.995)"
   id="g40140"
   style="stroke-linecap:butt;stroke-linejoin:round"><path
   style="stroke:none;stroke-linecap:butt;stroke-linejoin:round"
   d="m 4.578125,-3.1875 c 0,-0.796875 -0.046875,-1.59375 -0.390625,-2.328125 -0.453125,-0.96875 -1.28125,-1.125 -1.6875,-1.125 -0.609375,0 -1.328125,0.265625 -1.75,1.1875 -0.3125,0.6875 -0.359375,1.46875 -0.359375,2.265625 0,0.75 0.03125,1.640625 0.453125,2.40625 0.421875,0.796875 1.15625,1 1.640625,1 0.53125,0 1.296875,-0.203125 1.734375,-1.15625 0.3125,-0.6875 0.359375,-1.46875 0.359375,-2.25 z M 2.484375,0 C 2.09375,0 1.5,-0.25 1.328125,-1.203125 1.21875,-1.796875 1.21875,-2.71875 1.21875,-3.3125 c 0,-0.640625 0,-1.296875 0.078125,-1.828125 0.1875,-1.1875 0.9375,-1.28125 1.1875,-1.28125 0.328125,0 0.984375,0.1875 1.171875,1.171875 0.109375,0.5625 0.109375,1.3125 0.109375,1.9375 0,0.75 0,1.421875 -0.109375,2.0625 C 3.5,-0.296875 2.9375,0 2.484375,0 Z m 0,0"
   id="id-a668e18a-2624-4795-bef5-e8a97dde10bb" />

      </g>
</g>

    <g
   style="fill:#000000;fill-opacity:1;stroke-linecap:butt;stroke-linejoin:round"
   id="id-288b4f02-4138-415e-9201-50ef348742a6">
      <g
   transform="translate(308.115,136.159)"
   id="g40144"
   style="stroke-linecap:butt;stroke-linejoin:round"><path
   style="stroke:none;stroke-linecap:butt;stroke-linejoin:round"
   d="M 5.8125,17.140625 C 5.8125,11.0625 4.71875,7.484375 4.421875,6.484375 3.734375,4.265625 2.625,1.9375 0.96875,-0.125 0.8125,-0.296875 0.78125,-0.34375 0.734375,-0.375 c -0.015625,0 -0.03125,-0.015625 -0.1875,-0.015625 -0.140625,0 -0.234375,0 -0.234375,0.09375 0,0.03125 0,0.046875 0.140625,0.234375 3.46875,4.84375 4.234375,10.8125 4.25,17.5625 0,0.140625 0.0625,0.140625 0.28125,0.140625 H 5.53125 c 0.203125,0 0.265625,0 0.28125,-0.109375 z m 0,0"
   id="id-018d1134-64ea-4873-99cb-8bd36e41b4fd" />

      </g>
</g>

    <g
   style="fill:#000000;fill-opacity:1;stroke-linecap:butt;stroke-linejoin:round"
   id="id-78339f93-543c-4503-86e5-0597a3ffe797">
      <g
   transform="translate(308.115,153.694)"
   id="g40148"
   style="stroke-linecap:butt;stroke-linejoin:round"><path
   style="stroke:none;stroke-linecap:butt;stroke-linejoin:round"
   d="M 5.8125,0.171875 C 5.8125,-0.09375 5.796875,-0.09375 5.53125,-0.09375 H 4.984375 c -0.265625,0 -0.28125,0 -0.28125,0.265625 V 5.8125 c 0,0.265625 0.015625,0.265625 0.28125,0.265625 H 5.53125 c 0.265625,0 0.28125,0 0.28125,-0.265625 z m 0,0"
   id="id-f5f3b685-22b8-4b57-9671-e4cafd30688f" />

      </g>
</g>

    <g
   style="fill:#000000;fill-opacity:1;stroke-linecap:butt;stroke-linejoin:round"
   id="id-b64004b8-e125-4c79-a5a8-a1635e5966ec">
      <g
   transform="translate(308.115,159.672)"
   id="g40152"
   style="stroke-linecap:butt;stroke-linejoin:round"><path
   style="stroke:none;stroke-linecap:butt;stroke-linejoin:round"
   d="M 5.8125,0.171875 C 5.8125,-0.09375 5.796875,-0.09375 5.53125,-0.09375 H 4.984375 c -0.265625,0 -0.28125,0 -0.28125,0.265625 V 5.8125 c 0,0.265625 0.015625,0.265625 0.28125,0.265625 H 5.53125 c 0.265625,0 0.28125,0 0.28125,-0.265625 z m 0,0"
   id="id-850048aa-c1d8-451c-be4c-e8bae85b813f" />

      </g>
</g>

    <g
   style="fill:#000000;fill-opacity:1;stroke-linecap:butt;stroke-linejoin:round"
   id="id-69d42a18-6ac9-4d35-8138-a57207799ec8">
      <g
   transform="translate(308.115,166.048)"
   id="g40156"
   style="stroke-linecap:butt;stroke-linejoin:round"><path
   style="stroke:none;stroke-linecap:butt;stroke-linejoin:round"
   d="M 5.8125,-0.390625 C 5.796875,-0.5 5.734375,-0.5 5.53125,-0.5 H 4.984375 c -0.21875,0 -0.28125,0 -0.28125,0.140625 0,1.03125 -0.015625,3.40625 -0.265625,5.875 C 3.890625,10.671875 2.578125,14.25 0.390625,17.3125 0.3125,17.390625 0.3125,17.421875 0.3125,17.4375 c 0,0.09375 0.09375,0.09375 0.234375,0.09375 0.15625,0 0.1875,0 0.203125,-0.01563 C 0.78125,17.48438 2.046875,16.03125 3.0625,14.03125 4.375,11.390625 5.203125,8.375 5.578125,4.75 5.609375,4.4375 5.8125,2.359375 5.8125,0 Z m 0,0"
   id="id-f1fec7c3-fdcc-4806-90bb-b04ce5706fc1" />

      </g>
</g>

    <g
   style="fill:#000000;fill-opacity:1;stroke-linecap:butt;stroke-linejoin:round"
   id="id-2c681b1c-00b1-47c8-91e8-b247b55eba56">
      <g
   transform="translate(316.832,135.761)"
   id="g40160"
   style="stroke-linecap:butt;stroke-linejoin:round"><path
   style="stroke:none;stroke-linecap:butt;stroke-linejoin:round"
   d="m 3.828125,8.796875 c 0,0.265625 0.015625,0.28125 0.28125,0.28125 H 4.75 c 0.265625,0 0.28125,-0.015625 0.28125,-0.28125 v -4.28125 c 0,-1.46875 -0.78125,-3.34375 -2.921875,-4.5 H 1.96875 c -0.265625,0 -0.28125,0 -0.28125,0.234375 0,0.171875 0.015625,0.1875 0.0625,0.21875 0.296875,0.234375 1.015625,0.734375 1.484375,1.65625 0.28125,0.53125 0.59375,1.3125 0.59375,2.390625 z m 0,0"
   id="id-281ba127-3f68-430f-b822-28438bf93be8" />

      </g>
</g>

    <g
   style="fill:#000000;fill-opacity:1;stroke-linecap:butt;stroke-linejoin:round"
   id="id-d16bb131-8654-4bc8-9782-78c63b317ec0">
      <g
   transform="translate(316.832,144.727)"
   id="g40164"
   style="stroke-linecap:butt;stroke-linejoin:round"><path
   style="stroke:none;stroke-linecap:butt;stroke-linejoin:round"
   d="M 5.03125,0.171875 C 5.03125,-0.09375 5.015625,-0.09375 4.75,-0.09375 H 4.109375 c -0.265625,0 -0.28125,0 -0.28125,0.265625 v 2.65625 c 0,0.25 0.015625,0.265625 0.28125,0.265625 H 4.75 c 0.265625,0 0.28125,-0.015625 0.28125,-0.265625 z m 0,0"
   id="id-f07f5e2d-e895-45fa-9762-62fe817aad74" />

      </g>
</g>

    <g
   style="fill:#000000;fill-opacity:1;stroke-linecap:butt;stroke-linejoin:round"
   id="id-e97f99e9-374a-45e9-8abc-245185e86618">
      <g
   transform="translate(316.832,147.716)"
   id="g40168"
   style="stroke-linecap:butt;stroke-linejoin:round"><path
   style="stroke:none;stroke-linecap:butt;stroke-linejoin:round"
   d="M 5.03125,0.171875 C 5.03125,-0.09375 5.015625,-0.09375 4.75,-0.09375 H 4.109375 c -0.265625,0 -0.28125,0 -0.28125,0.265625 v 2.65625 c 0,0.25 0.015625,0.265625 0.28125,0.265625 H 4.75 c 0.265625,0 0.28125,-0.015625 0.28125,-0.265625 z m 0,0"
   id="id-4f02b46b-17ee-4f87-bf86-976ec74c76c2" />

      </g>
</g>

    <g
   style="fill:#000000;fill-opacity:1;stroke-linecap:butt;stroke-linejoin:round"
   id="id-225e2eef-2c34-41d0-b51c-ccbe9bde7d87">
      <g
   transform="translate(316.832,150.705)"
   id="g40172"
   style="stroke-linecap:butt;stroke-linejoin:round"><path
   style="stroke:none;stroke-linecap:butt;stroke-linejoin:round"
   d="m 5.03125,13.5625 c 0,-0.84375 0.171875,-2.921875 2,-4.3125 0.109375,-0.09375 0.125,-0.09375 0.125,-0.28125 0,-0.171875 -0.015625,-0.1875 -0.125,-0.28125 C 6.78125,8.5 6.09375,7.96875 5.609375,6.953125 5.21875,6.15625 5.03125,5.28125 5.03125,4.390625 V 0.171875 C 5.03125,-0.09375 5.015625,-0.09375 4.75,-0.09375 H 4.109375 c -0.265625,0 -0.28125,0 -0.28125,0.265625 V 4.375 c 0,1.203125 0.515625,3.234375 2.734375,4.59375 -2.25,1.375 -2.734375,3.421875 -2.734375,4.59375 v 4.21875 c 0,0.25 0.015625,0.265625 0.28125,0.265625 H 4.75 c 0.265625,0 0.28125,-0.01563 0.28125,-0.265625 z m 0,0"
   id="id-f9ded76b-3a60-466f-a85f-614b8f1afb75" />

      </g>
</g>

    <g
   style="fill:#000000;fill-opacity:1;stroke-linecap:butt;stroke-linejoin:round"
   id="id-11391b02-d6e6-4815-9caa-524e7d3754c9">
      <g
   transform="translate(316.832,168.638)"
   id="g40176"
   style="stroke-linecap:butt;stroke-linejoin:round"><path
   style="stroke:none;stroke-linecap:butt;stroke-linejoin:round"
   d="M 5.03125,0.171875 C 5.03125,-0.09375 5.015625,-0.09375 4.75,-0.09375 H 4.109375 c -0.265625,0 -0.28125,0 -0.28125,0.265625 v 2.65625 c 0,0.25 0.015625,0.265625 0.28125,0.265625 H 4.75 c 0.265625,0 0.28125,-0.015625 0.28125,-0.265625 z m 0,0"
   id="id-793c2728-1e55-4234-9a32-509cb552e913" />

      </g>
</g>

    <g
   style="fill:#000000;fill-opacity:1;stroke-linecap:butt;stroke-linejoin:round"
   id="id-9d2e0a70-c803-497f-a019-8ba1ac085eb9">
      <g
   transform="translate(316.832,171.627)"
   id="g40180"
   style="stroke-linecap:butt;stroke-linejoin:round"><path
   style="stroke:none;stroke-linecap:butt;stroke-linejoin:round"
   d="M 5.03125,0.171875 C 5.03125,-0.09375 5.015625,-0.09375 4.75,-0.09375 H 4.109375 c -0.265625,0 -0.28125,0 -0.28125,0.265625 v 2.65625 c 0,0.25 0.015625,0.265625 0.28125,0.265625 H 4.75 c 0.265625,0 0.28125,-0.015625 0.28125,-0.265625 z m 0,0"
   id="id-b0950fae-eab4-4086-bc3d-fedfdf0f4a42" />

      </g>
</g>

    <g
   style="fill:#000000;fill-opacity:1;stroke-linecap:butt;stroke-linejoin:round"
   id="id-c0addda7-9080-4384-a4e8-3695dca6a49f">
      <g
   transform="translate(316.832,174.616)"
   id="g40184"
   style="stroke-linecap:butt;stroke-linejoin:round"><path
   style="stroke:none;stroke-linecap:butt;stroke-linejoin:round"
   d="m 3.828125,4.453125 c 0,0.875 -0.234375,2.75 -2,3.984375 -0.125,0.09375 -0.140625,0.109375 -0.140625,0.28125 0,0.234375 0.015625,0.25 0.28125,0.25 H 2.109375 C 4.265625,7.8125 5.03125,5.921875 5.03125,4.453125 V 0.171875 C 5.03125,-0.09375 5.015625,-0.09375 4.75,-0.09375 H 4.109375 c -0.265625,0 -0.28125,0 -0.28125,0.265625 z m 0,0"
   id="id-a917189d-a97d-460b-b5ec-1701e020c49b" />

      </g>
</g>

  </g>

</g>
  </g>
</svg>
