<?xml version="1.0" encoding="UTF-8" standalone="no"?>
<!-- Created with Inkscape (http://www.inkscape.org/) -->

<svg
   width="41.516071mm"
   height="53.299149mm"
   viewBox="0 0 41.516071 53.299149"
   version="1.1"
   id="svg13447"
   xml:space="preserve"
   inkscape:version="1.2 (1:1.2.1+202207142221+cd75a1ee6d)"
   sodipodi:docname="NV V3.svg"
   xmlns:inkscape="http://www.inkscape.org/namespaces/inkscape"
   xmlns:sodipodi="http://sodipodi.sourceforge.net/DTD/sodipodi-0.dtd"
   xmlns:xlink="http://www.w3.org/1999/xlink"
   xmlns="http://www.w3.org/2000/svg"
   xmlns:svg="http://www.w3.org/2000/svg"><sodipodi:namedview
     id="namedview13449"
     pagecolor="#ffffff"
     bordercolor="#666666"
     borderopacity="1.0"
     inkscape:showpageshadow="2"
     inkscape:pageopacity="0.0"
     inkscape:pagecheckerboard="0"
     inkscape:deskcolor="#d1d1d1"
     inkscape:document-units="mm"
     showgrid="false"
     inkscape:zoom="0.53896605"
     inkscape:cx="286.65999"
     inkscape:cy="54.734431"
     inkscape:window-width="1366"
     inkscape:window-height="746"
     inkscape:window-x="1754"
     inkscape:window-y="27"
     inkscape:window-maximized="1"
     inkscape:current-layer="layer1" /><defs
     id="defs13444"><inkscape:path-effect
       effect="bspline"
       id="path-effect181118"
       is_visible="true"
       lpeversion="1"
       weight="33.333333"
       steps="2"
       helper_size="0"
       apply_no_weight="true"
       apply_with_weight="true"
       only_selected="false" /><inkscape:path-effect
       effect="bspline"
       id="path-effect179758"
       is_visible="true"
       lpeversion="1"
       weight="33.333333"
       steps="2"
       helper_size="0"
       apply_no_weight="true"
       apply_with_weight="true"
       only_selected="false" /><inkscape:path-effect
       effect="bspline"
       id="path-effect178302"
       is_visible="true"
       lpeversion="1"
       weight="33.333333"
       steps="2"
       helper_size="0"
       apply_no_weight="true"
       apply_with_weight="true"
       only_selected="false" /><inkscape:path-effect
       effect="bspline"
       id="path-effect179758-2"
       is_visible="true"
       lpeversion="1"
       weight="33.333333"
       steps="2"
       helper_size="0"
       apply_no_weight="true"
       apply_with_weight="true"
       only_selected="false" /><inkscape:path-effect
       effect="bspline"
       id="path-effect178302-8"
       is_visible="true"
       lpeversion="1"
       weight="33.333333"
       steps="2"
       helper_size="0"
       apply_no_weight="true"
       apply_with_weight="true"
       only_selected="false" /><inkscape:path-effect
       effect="bspline"
       id="path-effect181118-9"
       is_visible="true"
       lpeversion="1"
       weight="33.333333"
       steps="2"
       helper_size="0"
       apply_no_weight="true"
       apply_with_weight="true"
       only_selected="false" /><inkscape:path-effect
       effect="bspline"
       id="path-effect179758-2-4"
       is_visible="true"
       lpeversion="1"
       weight="33.333333"
       steps="2"
       helper_size="0"
       apply_no_weight="true"
       apply_with_weight="true"
       only_selected="false" /><g
       id="id-93f29d03-82b5-4e10-a698-ba2d7504a98c-5">
      <symbol
   overflow="visible"
   id="id-7aa903d5-d7b9-4ecd-b3b7-c9603090c03e-0">
        <path
   style="stroke:none;stroke-width:0"
   d=""
   id="id-9cbbce32-ec5b-430a-ac88-cd145eeaa403-3" />
      </symbol>
      <symbol
   overflow="visible"
   id="id-25cbc493-129f-4d26-bd3f-19f7e66600ac-6">
        <path
   style="stroke:none;stroke-width:0"
   d="m 7.203125,-3.328125 c 0,-0.21875 -0.0625,-0.328125 -0.140625,-0.328125 -0.046875,0 -0.140625,0.078125 -0.140625,0.265625 -0.046875,0.953125 -0.703125,1.5 -1.40625,1.5 -0.625,0 -1.09375,-0.421875 -1.59375,-0.84375 -0.5,-0.46875 -1.015625,-0.921875 -1.703125,-0.921875 -1.078125,0 -1.671875,1.09375 -1.671875,2 0,0.328125 0.125,0.328125 0.140625,0.328125 0.109375,0 0.140625,-0.203125 0.140625,-0.234375 0.046875,-1.09375 0.78125,-1.53125 1.390625,-1.53125 0.625,0 1.109375,0.421875 1.59375,0.84375 0.515625,0.46875 1.03125,0.921875 1.703125,0.921875 1.09375,0 1.6875,-1.09375 1.6875,-2 z m 0,0"
   id="id-167bb4c7-8b56-4a2f-8cc4-a4e41cd5ef80-1" />
      </symbol>
      <symbol
   overflow="visible"
   id="id-6ccbf8a5-8ae0-49e4-ad71-971b23eb1c57-0">
        <path
   style="stroke:none;stroke-width:0"
   d=""
   id="id-33740b16-acbe-443a-aaf9-ae7684c33b10-6" />
      </symbol>
      <symbol
   overflow="visible"
   id="id-cc9ae0b3-cd5b-4842-94bc-320051bd8ad1-3">
        <path
   style="stroke:none;stroke-width:0"
   d="m 2.296875,-3.5 c 0.0625,-0.203125 0.15625,-0.59375 0.15625,-0.640625 0,-0.171875 -0.125,-0.265625 -0.296875,-0.265625 -0.015625,0 -0.296875,0.015625 -0.390625,0.359375 l -1.4375,5.765625 c -0.03125,0.125 -0.03125,0.140625 -0.03125,0.171875 0,0.140625 0.109375,0.265625 0.28125,0.265625 0.203125,0 0.328125,-0.1875 0.34375,-0.21875 C 0.96875,1.859375 1.09375,1.328125 1.46875,-0.203125 1.796875,0.0625 2.25,0.109375 2.4375,0.109375 c 0.703125,0 1.09375,-0.453125 1.328125,-0.734375 0.09375,0.453125 0.46875,0.734375 0.90625,0.734375 0.34375,0 0.578125,-0.234375 0.734375,-0.546875 0.171875,-0.359375 0.296875,-0.96875 0.296875,-0.984375 0,-0.109375 -0.09375,-0.109375 -0.125,-0.109375 -0.09375,0 -0.109375,0.046875 -0.140625,0.1875 -0.15625,0.640625 -0.34375,1.234375 -0.75,1.234375 -0.265625,0 -0.296875,-0.265625 -0.296875,-0.453125 0,-0.21875 0.109375,-0.6875 0.1875,-1.046875 L 4.859375,-2.6875 C 4.890625,-2.828125 5,-3.203125 5.03125,-3.359375 5.078125,-3.59375 5.1875,-3.96875 5.1875,-4.03125 c 0,-0.171875 -0.140625,-0.265625 -0.296875,-0.265625 -0.046875,0 -0.3125,0.015625 -0.390625,0.34375 l -0.46875,1.875 c -0.109375,0.5 -0.21875,0.90625 -0.25,1.015625 -0.015625,0.046875 -0.484375,0.953125 -1.296875,0.953125 -0.5,0 -0.734375,-0.328125 -0.734375,-0.875 0,-0.28125 0.0625,-0.5625 0.140625,-0.84375 z m 0,0"
   id="id-031e2e0d-149d-4fd3-bded-322ffee2ae71-2" />
      </symbol>
      <symbol
   overflow="visible"
   id="id-ac7e82c3-d457-4728-b2d8-109165716a7b-0">
        <path
   style="stroke:none;stroke-width:0"
   d=""
   id="id-e478f972-aebd-4b32-b40c-5c5940cd8fa8-6" />
      </symbol>
      <symbol
   overflow="visible"
   id="id-42c73c72-2349-4d08-99a1-e331f52fafe0-1">
        <path
   style="stroke:none;stroke-width:0"
   d="M 1.09375,-3.421875 V -0.75 c 0,0.4375 -0.109375,0.4375 -0.78125,0.4375 V 0 c 0.359375,-0.015625 0.859375,-0.03125 1.140625,-0.03125 0.25,0 0.765625,0.015625 1.109375,0.03125 v -0.3125 c -0.671875,0 -0.78125,0 -0.78125,-0.4375 V -2.59375 C 1.78125,-3.625 2.5,-4.1875 3.125,-4.1875 c 0.640625,0 0.75,0.53125 0.75,1.109375 V -0.75 c 0,0.4375 -0.109375,0.4375 -0.78125,0.4375 V 0 c 0.34375,-0.015625 0.859375,-0.03125 1.125,-0.03125 0.25,0 0.78125,0.015625 1.109375,0.03125 v -0.3125 c -0.65625,0 -0.765625,0 -0.765625,-0.4375 v -1.84375 c 0,-1.03125 0.703125,-1.59375 1.34375,-1.59375 0.625,0 0.734375,0.53125 0.734375,1.109375 V -0.75 c 0,0.4375 -0.109375,0.4375 -0.78125,0.4375 V 0 c 0.34375,-0.015625 0.859375,-0.03125 1.125,-0.03125 0.265625,0 0.78125,0.015625 1.125,0.03125 v -0.3125 c -0.515625,0 -0.765625,0 -0.78125,-0.296875 v -1.90625 c 0,-0.859375 0,-1.15625 -0.3125,-1.515625 -0.140625,-0.171875 -0.46875,-0.375 -1.046875,-0.375 -0.828125,0 -1.28125,0.59375 -1.4375,0.984375 C 4.390625,-4.296875 3.65625,-4.40625 3.203125,-4.40625 2.46875,-4.40625 2,-3.984375 1.71875,-3.359375 V -4.40625 L 0.3125,-4.296875 v 0.3125 c 0.703125,0 0.78125,0.0625 0.78125,0.5625 z m 0,0"
   id="id-00a9919b-3284-4866-9bd9-103842bb8895-5" />
      </symbol>
    </g><g
       id="id-93f29d03-82b5-4e10-a698-ba2d7504a98c">
      <symbol
   overflow="visible"
   id="id-7aa903d5-d7b9-4ecd-b3b7-c9603090c03e">
        <path
   style="stroke:none;stroke-width:0"
   d=""
   id="id-9cbbce32-ec5b-430a-ac88-cd145eeaa403" />
      </symbol>
      <symbol
   overflow="visible"
   id="id-25cbc493-129f-4d26-bd3f-19f7e66600ac">
        <path
   style="stroke:none;stroke-width:0"
   d="m 7.203125,-3.328125 c 0,-0.21875 -0.0625,-0.328125 -0.140625,-0.328125 -0.046875,0 -0.140625,0.078125 -0.140625,0.265625 -0.046875,0.953125 -0.703125,1.5 -1.40625,1.5 -0.625,0 -1.09375,-0.421875 -1.59375,-0.84375 -0.5,-0.46875 -1.015625,-0.921875 -1.703125,-0.921875 -1.078125,0 -1.671875,1.09375 -1.671875,2 0,0.328125 0.125,0.328125 0.140625,0.328125 0.109375,0 0.140625,-0.203125 0.140625,-0.234375 0.046875,-1.09375 0.78125,-1.53125 1.390625,-1.53125 0.625,0 1.109375,0.421875 1.59375,0.84375 0.515625,0.46875 1.03125,0.921875 1.703125,0.921875 1.09375,0 1.6875,-1.09375 1.6875,-2 z m 0,0"
   id="id-167bb4c7-8b56-4a2f-8cc4-a4e41cd5ef80" />
      </symbol>
      <symbol
   overflow="visible"
   id="id-6ccbf8a5-8ae0-49e4-ad71-971b23eb1c57">
        <path
   style="stroke:none;stroke-width:0"
   d=""
   id="id-33740b16-acbe-443a-aaf9-ae7684c33b10" />
      </symbol>
      <symbol
   overflow="visible"
   id="id-cc9ae0b3-cd5b-4842-94bc-320051bd8ad1">
        <path
   style="stroke:none;stroke-width:0"
   d="m 2.296875,-3.5 c 0.0625,-0.203125 0.15625,-0.59375 0.15625,-0.640625 0,-0.171875 -0.125,-0.265625 -0.296875,-0.265625 -0.015625,0 -0.296875,0.015625 -0.390625,0.359375 l -1.4375,5.765625 c -0.03125,0.125 -0.03125,0.140625 -0.03125,0.171875 0,0.140625 0.109375,0.265625 0.28125,0.265625 0.203125,0 0.328125,-0.1875 0.34375,-0.21875 C 0.96875,1.859375 1.09375,1.328125 1.46875,-0.203125 1.796875,0.0625 2.25,0.109375 2.4375,0.109375 c 0.703125,0 1.09375,-0.453125 1.328125,-0.734375 0.09375,0.453125 0.46875,0.734375 0.90625,0.734375 0.34375,0 0.578125,-0.234375 0.734375,-0.546875 0.171875,-0.359375 0.296875,-0.96875 0.296875,-0.984375 0,-0.109375 -0.09375,-0.109375 -0.125,-0.109375 -0.09375,0 -0.109375,0.046875 -0.140625,0.1875 -0.15625,0.640625 -0.34375,1.234375 -0.75,1.234375 -0.265625,0 -0.296875,-0.265625 -0.296875,-0.453125 0,-0.21875 0.109375,-0.6875 0.1875,-1.046875 L 4.859375,-2.6875 C 4.890625,-2.828125 5,-3.203125 5.03125,-3.359375 5.078125,-3.59375 5.1875,-3.96875 5.1875,-4.03125 c 0,-0.171875 -0.140625,-0.265625 -0.296875,-0.265625 -0.046875,0 -0.3125,0.015625 -0.390625,0.34375 l -0.46875,1.875 c -0.109375,0.5 -0.21875,0.90625 -0.25,1.015625 -0.015625,0.046875 -0.484375,0.953125 -1.296875,0.953125 -0.5,0 -0.734375,-0.328125 -0.734375,-0.875 0,-0.28125 0.0625,-0.5625 0.140625,-0.84375 z m 0,0"
   id="id-031e2e0d-149d-4fd3-bded-322ffee2ae71" />
      </symbol>
      <symbol
   overflow="visible"
   id="id-ac7e82c3-d457-4728-b2d8-109165716a7b">
        <path
   style="stroke:none;stroke-width:0"
   d=""
   id="id-e478f972-aebd-4b32-b40c-5c5940cd8fa8" />
      </symbol>
      <symbol
   overflow="visible"
   id="id-42c73c72-2349-4d08-99a1-e331f52fafe0">
        <path
   style="stroke:none;stroke-width:0"
   d="M 1.09375,-3.421875 V -0.75 c 0,0.4375 -0.109375,0.4375 -0.78125,0.4375 V 0 c 0.359375,-0.015625 0.859375,-0.03125 1.140625,-0.03125 0.25,0 0.765625,0.015625 1.109375,0.03125 v -0.3125 c -0.671875,0 -0.78125,0 -0.78125,-0.4375 V -2.59375 C 1.78125,-3.625 2.5,-4.1875 3.125,-4.1875 c 0.640625,0 0.75,0.53125 0.75,1.109375 V -0.75 c 0,0.4375 -0.109375,0.4375 -0.78125,0.4375 V 0 c 0.34375,-0.015625 0.859375,-0.03125 1.125,-0.03125 0.25,0 0.78125,0.015625 1.109375,0.03125 v -0.3125 c -0.65625,0 -0.765625,0 -0.765625,-0.4375 v -1.84375 c 0,-1.03125 0.703125,-1.59375 1.34375,-1.59375 0.625,0 0.734375,0.53125 0.734375,1.109375 V -0.75 c 0,0.4375 -0.109375,0.4375 -0.78125,0.4375 V 0 c 0.34375,-0.015625 0.859375,-0.03125 1.125,-0.03125 0.265625,0 0.78125,0.015625 1.125,0.03125 v -0.3125 c -0.515625,0 -0.765625,0 -0.78125,-0.296875 v -1.90625 c 0,-0.859375 0,-1.15625 -0.3125,-1.515625 -0.140625,-0.171875 -0.46875,-0.375 -1.046875,-0.375 -0.828125,0 -1.28125,0.59375 -1.4375,0.984375 C 4.390625,-4.296875 3.65625,-4.40625 3.203125,-4.40625 2.46875,-4.40625 2,-3.984375 1.71875,-3.359375 V -4.40625 L 0.3125,-4.296875 v 0.3125 c 0.703125,0 0.78125,0.0625 0.78125,0.5625 z m 0,0"
   id="id-00a9919b-3284-4866-9bd9-103842bb8895" />
      </symbol>
    </g><g
       id="id-b30fb442-7ed8-44cf-b3fd-d10fc5faa7e1">
      <symbol
   overflow="visible"
   id="id-d7de4f54-bdfa-4e85-a73e-cf138c0ab6e4">
        <path
   style="stroke:none"
   d=""
   id="id-d9a6f54e-0e64-4821-b35c-f70b4aa48fbe" />
      </symbol>
      <symbol
   overflow="visible"
   id="id-2c68d8be-c89a-46f0-ad05-c29a572ed029">
        <path
   style="stroke:none"
   d="m 7.203125,-3.328125 c 0,-0.21875 -0.0625,-0.328125 -0.140625,-0.328125 -0.046875,0 -0.140625,0.078125 -0.140625,0.265625 -0.046875,0.953125 -0.703125,1.5 -1.40625,1.5 -0.625,0 -1.09375,-0.421875 -1.59375,-0.84375 -0.5,-0.46875 -1.015625,-0.921875 -1.703125,-0.921875 -1.078125,0 -1.671875,1.09375 -1.671875,2 0,0.328125 0.125,0.328125 0.140625,0.328125 0.109375,0 0.140625,-0.203125 0.140625,-0.234375 0.046875,-1.09375 0.78125,-1.53125 1.390625,-1.53125 0.625,0 1.109375,0.421875 1.59375,0.84375 0.515625,0.46875 1.03125,0.921875 1.703125,0.921875 1.09375,0 1.6875,-1.09375 1.6875,-2 z m 0,0"
   id="id-6c940e4d-576a-4050-a162-162512b4b66c" />
      </symbol>
      <symbol
   overflow="visible"
   id="id-62288cba-af02-42d5-8f3e-97f3168eb86c">
        <path
   style="stroke:none"
   d=""
   id="id-2c1d2af4-3039-4594-bdcc-ad52bc8a12a7" />
      </symbol>
      <symbol
   overflow="visible"
   id="id-eafa2d62-0c83-4041-9c00-cf360852684d">
        <path
   style="stroke:none"
   d="M 1.09375,-3.421875 V -0.75 c 0,0.4375 -0.109375,0.4375 -0.78125,0.4375 V 0 c 0.359375,-0.015625 0.859375,-0.03125 1.140625,-0.03125 0.25,0 0.765625,0.015625 1.109375,0.03125 v -0.3125 c -0.671875,0 -0.78125,0 -0.78125,-0.4375 V -2.59375 C 1.78125,-3.625 2.5,-4.1875 3.125,-4.1875 c 0.640625,0 0.75,0.53125 0.75,1.109375 V -0.75 c 0,0.4375 -0.109375,0.4375 -0.78125,0.4375 V 0 c 0.34375,-0.015625 0.859375,-0.03125 1.125,-0.03125 0.25,0 0.78125,0.015625 1.109375,0.03125 v -0.3125 c -0.65625,0 -0.765625,0 -0.765625,-0.4375 v -1.84375 c 0,-1.03125 0.703125,-1.59375 1.34375,-1.59375 0.625,0 0.734375,0.53125 0.734375,1.109375 V -0.75 c 0,0.4375 -0.109375,0.4375 -0.78125,0.4375 V 0 c 0.34375,-0.015625 0.859375,-0.03125 1.125,-0.03125 0.265625,0 0.78125,0.015625 1.125,0.03125 v -0.3125 c -0.515625,0 -0.765625,0 -0.78125,-0.296875 v -1.90625 c 0,-0.859375 0,-1.15625 -0.3125,-1.515625 -0.140625,-0.171875 -0.46875,-0.375 -1.046875,-0.375 -0.828125,0 -1.28125,0.59375 -1.4375,0.984375 C 4.390625,-4.296875 3.65625,-4.40625 3.203125,-4.40625 2.46875,-4.40625 2,-3.984375 1.71875,-3.359375 V -4.40625 L 0.3125,-4.296875 v 0.3125 c 0.703125,0 0.78125,0.0625 0.78125,0.5625 z m 0,0"
   id="id-03c6e0e0-d0f4-441b-afac-9f463b3bb50e" />
      </symbol>
    </g><g
       id="id-75bbdb97-1b33-44b2-b983-50ec3034ae7f">
      <symbol
   overflow="visible"
   id="id-853f67e7-a7e8-4ca1-9c35-aff0185b4e1e">
        <path
   style="stroke:none"
   d=""
   id="id-97388f86-d514-4cc1-b6ce-b0fddfecadf4" />
      </symbol>
      <symbol
   overflow="visible"
   id="id-45c912d4-ed5a-4891-afa9-7aacb12c7961">
        <path
   style="stroke:none"
   d="m 1.265625,-0.765625 1.0625,-1.03125 c 1.546875,-1.375 2.140625,-1.90625 2.140625,-2.90625 0,-1.140625 -0.890625,-1.9375 -2.109375,-1.9375 -1.125,0 -1.859375,0.921875 -1.859375,1.8125 0,0.546875 0.5,0.546875 0.53125,0.546875 0.171875,0 0.515625,-0.109375 0.515625,-0.53125 0,-0.25 -0.1875,-0.515625 -0.53125,-0.515625 -0.078125,0 -0.09375,0 -0.125,0.015625 0.21875,-0.65625 0.765625,-1.015625 1.34375,-1.015625 0.90625,0 1.328125,0.8125 1.328125,1.625 C 3.5625,-3.90625 3.078125,-3.125 2.515625,-2.5 l -1.90625,2.125 C 0.5,-0.265625 0.5,-0.234375 0.5,0 H 4.203125 L 4.46875,-1.734375 H 4.234375 C 4.171875,-1.4375 4.109375,-1 4,-0.84375 3.9375,-0.765625 3.28125,-0.765625 3.0625,-0.765625 Z m 0,0"
   id="id-1f84d0ac-40c8-4357-81ed-8f291445a3fa" />
      </symbol>
      <symbol
   overflow="visible"
   id="id-3a220afa-5689-42dd-8a84-47f44bd881b0">
        <path
   style="stroke:none"
   d="m 1.90625,-0.53125 c 0,-0.28125 -0.234375,-0.53125 -0.515625,-0.53125 -0.296875,0 -0.53125,0.25 -0.53125,0.53125 C 0.859375,-0.234375 1.09375,0 1.390625,0 1.671875,0 1.90625,-0.234375 1.90625,-0.53125 Z m 0,0"
   id="id-04aa84fb-1fdb-4802-9f3c-0289c9111fd7" />
      </symbol>
      <symbol
   overflow="visible"
   id="id-4a56c47f-3f03-4fca-a77b-34f12ab8b2a0">
        <path
   style="stroke:none"
   d="m 4.46875,-2 c 0,-1.1875 -0.8125,-2.1875 -1.890625,-2.1875 -0.46875,0 -0.90625,0.15625 -1.265625,0.515625 V -5.625 c 0.203125,0.0625 0.53125,0.125 0.84375,0.125 1.234375,0 1.9375,-0.90625 1.9375,-1.03125 0,-0.0625 -0.03125,-0.109375 -0.109375,-0.109375 0,0 -0.03125,0 -0.078125,0.03125 C 3.703125,-6.515625 3.21875,-6.3125 2.546875,-6.3125 2.15625,-6.3125 1.6875,-6.390625 1.21875,-6.59375 1.140625,-6.625 1.125,-6.625 1.109375,-6.625 1,-6.625 1,-6.546875 1,-6.390625 V -3.4375 c 0,0.171875 0,0.25 0.140625,0.25 0.078125,0 0.09375,-0.015625 0.140625,-0.078125 C 1.390625,-3.421875 1.75,-3.96875 2.5625,-3.96875 c 0.515625,0 0.765625,0.453125 0.84375,0.640625 0.15625,0.375 0.1875,0.75 0.1875,1.25 0,0.359375 0,0.953125 -0.25,1.375 C 3.109375,-0.3125 2.734375,-0.0625 2.28125,-0.0625 c -0.71875,0 -1.296875,-0.53125 -1.46875,-1.109375 0.03125,0 0.0625,0.015625 0.171875,0.015625 0.328125,0 0.5,-0.25 0.5,-0.484375 0,-0.25 -0.171875,-0.5 -0.5,-0.5 C 0.84375,-2.140625 0.5,-2.0625 0.5,-1.609375 0.5,-0.75 1.1875,0.21875 2.296875,0.21875 3.453125,0.21875 4.46875,-0.734375 4.46875,-2 Z m 0,0"
   id="id-0ca13f57-47f3-459e-9291-b046c2ecbeb9" />
      </symbol>
      <symbol
   overflow="visible"
   id="id-f599b2a8-b3be-455e-9449-6664395ff9bf">
        <path
   style="stroke:none"
   d="m 4.6875,-6.265625 c 0,-0.46875 -0.40625,-0.875 -0.953125,-0.875 -0.5625,0 -0.953125,0.4375 -0.953125,0.875 0,0.5 0.4375,0.875 0.953125,0.875 0.546875,0 0.953125,-0.40625 0.953125,-0.875 z m -0.953125,0.65625 c -0.421875,0 -0.703125,-0.1875 -0.703125,-0.65625 0,-0.453125 0.265625,-0.65625 0.703125,-0.65625 0.421875,0 0.703125,0.1875 0.703125,0.65625 0,0.453125 -0.265625,0.65625 -0.703125,0.65625 z m 0,0"
   id="id-29feb8bc-9bf4-47dd-b264-57446f15998c" />
      </symbol>
      <symbol
   overflow="visible"
   id="id-bb5b17e8-9163-449f-8cc2-54589a371813">
        <path
   style="stroke:none"
   d="m 3.96875,-6.9375 c -0.046875,-0.125 -0.078125,-0.203125 -0.234375,-0.203125 -0.15625,0 -0.1875,0.0625 -0.234375,0.203125 L 1.4375,-0.984375 C 1.25,-0.46875 0.859375,-0.3125 0.3125,-0.3125 V 0 c 0.234375,-0.015625 0.671875,-0.03125 1.015625,-0.03125 0.3125,0 0.828125,0.015625 1.15625,0.03125 v -0.3125 c -0.5,0 -0.75,-0.25 -0.75,-0.5 0,-0.03125 0.015625,-0.140625 0.015625,-0.15625 L 2.21875,-2.265625 H 4.671875 L 5.203125,-0.75 c 0.015625,0.046875 0.03125,0.109375 0.03125,0.140625 0,0.296875 -0.5625,0.296875 -0.828125,0.296875 V 0 c 0.359375,-0.03125 1.0625,-0.03125 1.4375,-0.03125 0.421875,0 0.890625,0.015625 1.296875,0.03125 V -0.3125 H 6.96875 C 6.375,-0.3125 6.234375,-0.375 6.125,-0.703125 Z m -0.53125,1.109375 1.125,3.25 H 2.328125 Z m 0,0"
   id="id-65638faf-e152-4f96-8fbe-1398c9c4f565" />
      </symbol>
    </g><radialGradient
       inkscape:collect="always"
       xlink:href="#linearGradient20638"
       id="radialGradient20518"
       cx="38.207649"
       cy="207.16107"
       fx="38.207649"
       fy="207.16107"
       r="10.869583"
       gradientUnits="userSpaceOnUse"
       gradientTransform="matrix(0.51890803,0,0,0.51890803,51.556155,73.257075)" /><linearGradient
       inkscape:collect="always"
       id="linearGradient20638"><stop
         style="stop-color:#ffffff;stop-opacity:1"
         offset="0"
         id="stop20634" /><stop
         style="stop-color:#000000;stop-opacity:0.99977201"
         offset="1"
         id="stop20636" /></linearGradient><radialGradient
       inkscape:collect="always"
       xlink:href="#linearGradient20628"
       id="radialGradient20518-0-6"
       cx="38.207649"
       cy="207.16107"
       fx="38.207649"
       fy="207.16107"
       r="10.869583"
       gradientUnits="userSpaceOnUse"
       gradientTransform="matrix(0.43734349,0,0,0.43734349,70.296435,62.204475)" /><linearGradient
       inkscape:collect="always"
       id="linearGradient20628"><stop
         style="stop-color:#ffffff;stop-opacity:0.99992597"
         offset="0"
         id="stop20624" /><stop
         style="stop-color:#002ba4;stop-opacity:1"
         offset="1"
         id="stop20626" /></linearGradient><radialGradient
       inkscape:collect="always"
       xlink:href="#linearGradient20638"
       id="radialGradient20518-9"
       cx="38.207649"
       cy="207.16107"
       fx="38.207649"
       fy="207.16107"
       r="10.869583"
       gradientUnits="userSpaceOnUse"
       gradientTransform="matrix(0.36560073,0,0,0.36560073,73.041545,101.19198)" /><radialGradient
       inkscape:collect="always"
       xlink:href="#linearGradient20638"
       id="radialGradient20518-7"
       cx="38.207649"
       cy="207.16107"
       fx="38.207649"
       fy="207.16107"
       r="10.869583"
       gradientUnits="userSpaceOnUse"
       gradientTransform="matrix(0.51890803,0,0,0.51890803,81.791585,73.644245)" /><radialGradient
       inkscape:collect="always"
       xlink:href="#linearGradient20638"
       id="radialGradient20518-1-5"
       cx="38.207649"
       cy="207.16107"
       fx="38.207649"
       fy="207.16107"
       r="10.869583"
       gradientUnits="userSpaceOnUse"
       gradientTransform="matrix(0.51890803,0,0,0.51890803,66.943045,35.379565)" /><radialGradient
       inkscape:collect="always"
       xlink:href="#linearGradient20638"
       id="radialGradient20518-9-9"
       cx="38.207649"
       cy="207.16107"
       fx="38.207649"
       fy="207.16107"
       r="10.869583"
       gradientUnits="userSpaceOnUse"
       gradientTransform="matrix(0.36560073,0,0,0.36560073,57.180705,62.270375)" /><radialGradient
       inkscape:collect="always"
       xlink:href="#linearGradient20638"
       id="radialGradient20518-9-3"
       cx="38.207649"
       cy="207.16107"
       fx="38.207649"
       fy="207.16107"
       r="10.869583"
       gradientUnits="userSpaceOnUse"
       gradientTransform="matrix(0.36560073,0,0,0.36560073,89.629755,62.540495)" /></defs><g
     inkscape:label="Calque 1"
     inkscape:groupmode="layer"
     id="layer1"
     transform="translate(-67.114691,-135.35043)"><path
       style="fill:none;stroke:#000000;stroke-width:0.311345;stroke-linecap:butt;stroke-linejoin:miter;stroke-dasharray:0.62269, 0.311345;stroke-dashoffset:0;stroke-opacity:1"
       d="m 72.116515,139.32436 16.04662,15.05461 16.402445,-14.78449"
       id="path133116" /><path
       style="fill:none;stroke:#000000;stroke-width:0.311345;stroke-linecap:butt;stroke-linejoin:miter;stroke-dasharray:0.62269, 0.311345;stroke-dashoffset:0;stroke-opacity:1"
       d="m 88.163135,154.37897 -0.0852,16.28452"
       id="path133397" /><path
       style="fill:none;stroke:#000000;stroke-width:0.311345;stroke-linecap:butt;stroke-linejoin:miter;stroke-dasharray:0.62269, 0.311345;stroke-dashoffset:0;stroke-opacity:1"
       d="m 72.754995,183.00927 15.32297,-12.34578 14.912475,12.34578"
       id="path133401" /><circle
       style="fill:url(#radialGradient20518);fill-opacity:1;fill-rule:nonzero;stroke:none;stroke-width:0.415126;stroke-linecap:round"
       id="path19949"
       cx="72.755005"
       cy="182.62209"
       r="5.6403141" /><circle
       style="fill:url(#radialGradient20518-0-6);fill-opacity:1;fill-rule:nonzero;stroke:none;stroke-width:0.349874;stroke-linecap:round"
       id="path19949-8-0"
       cx="88.163147"
       cy="154.37898"
       r="4.7537413" /><circle
       style="fill:url(#radialGradient20518-9);fill-opacity:1;fill-rule:nonzero;stroke:none;stroke-width:0.29248;stroke-linecap:round"
       id="path19949-9"
       cx="87.977371"
       cy="178.24596"
       r="3.9739277" /><circle
       style="fill:url(#radialGradient20518-7);fill-opacity:1;fill-rule:nonzero;stroke:none;stroke-width:0.415126;stroke-linecap:round"
       id="path19949-3"
       cx="102.99045"
       cy="183.00926"
       r="5.6403141" /><text
       xml:space="preserve"
       style="font-size:10.0279px;line-height:125%;font-family:Sans;letter-spacing:0px;word-spacing:0px;fill:#002ba4;fill-opacity:1;stroke:#000000;stroke-width:0.188023px;stroke-linecap:butt;stroke-linejoin:miter;stroke-opacity:1"
       x="74.248535"
       y="157.90405"
       id="text20909"><tspan
         sodipodi:role="line"
         id="tspan20907"
         x="74.248535"
         y="157.90405"
         style="fill:#002ba4;fill-opacity:1;stroke-width:0.188023px">N</tspan></text><text
       xml:space="preserve"
       style="font-size:8.8142px;line-height:125%;font-family:Sans;letter-spacing:0px;word-spacing:0px;fill:#cacaca;fill-opacity:1;stroke:#000000;stroke-width:0.165266px;stroke-linecap:butt;stroke-linejoin:miter;stroke-opacity:1"
       x="75.333801"
       y="173.55835"
       id="text20909-3"><tspan
         sodipodi:role="line"
         id="tspan20907-7"
         x="75.333801"
         y="173.55835"
         style="fill:#cacaca;fill-opacity:1;stroke-width:0.165266px">V</tspan></text><circle
       style="fill:#ffffff;fill-opacity:1;fill-rule:nonzero;stroke:#000000;stroke-width:0.36;stroke-linecap:round;stroke-dasharray:0.36, 0.72;stroke-dashoffset:0;stroke-opacity:1"
       id="path19949-4-9"
       cx="88.077972"
       cy="170.66351"
       r="4.8895602" /><circle
       style="fill:url(#radialGradient20518-1-5);fill-opacity:1;fill-rule:nonzero;stroke:none;stroke-width:0.415126;stroke-linecap:round"
       id="path19949-92-9"
       cx="88.141907"
       cy="144.74457"
       r="5.6403141" /><circle
       style="fill:url(#radialGradient20518-9-9);fill-opacity:1;fill-rule:nonzero;stroke:none;stroke-width:0.29248;stroke-linecap:round"
       id="path19949-9-9"
       cx="72.116531"
       cy="139.32436"
       r="3.9739277" /><circle
       style="fill:url(#radialGradient20518-9-3);fill-opacity:1;fill-rule:nonzero;stroke:none;stroke-width:0.29248;stroke-linecap:round"
       id="path19949-9-0"
       cx="104.56558"
       cy="139.59448"
       r="3.9739277" /></g></svg>
