<?xml version="1.0" encoding="utf-8" standalone="no"?>
<!DOCTYPE svg PUBLIC "-//W3C//DTD SVG 1.1//EN"
  "http://www.w3.org/Graphics/SVG/1.1/DTD/svg11.dtd">
<!-- Created with matplotlib (http://matplotlib.org/) -->
<svg height="345.6pt" version="1.1" viewBox="0 0 460.8 345.6" width="460.8pt" xmlns="http://www.w3.org/2000/svg" xmlns:xlink="http://www.w3.org/1999/xlink">
 <defs>
  <style type="text/css">
*{stroke-linecap:butt;stroke-linejoin:round;}
  </style>
 </defs>
 <g id="figure_1">
  <g id="patch_1">
   <path d="M 0 345.6 
L 460.8 345.6 
L 460.8 0 
L 0 0 
z
" style="fill:#ffffff;"/>
  </g>
  <g id="axes_1">
   <g id="patch_2">
    <path d="M 57.6 307.584 
L 414.72 307.584 
L 414.72 41.472 
L 57.6 41.472 
z
" style="fill:#ffffff;"/>
   </g>
   <g id="matplotlib.axis_1">
    <g id="xtick_1">
     <g id="line2d_1">
      <defs>
       <path d="M 0 0 
L 0 3.5 
" id="m3f0b8c37a7" style="stroke:#000000;stroke-width:0.8;"/>
      </defs>
      <g>
       <use style="stroke:#000000;stroke-width:0.8;" x="96.543789" xlink:href="#m3f0b8c37a7" y="307.584"/>
      </g>
     </g>
     <g id="text_1">
      <!-- 50 -->
      <defs>
       <path d="M 10.796875 72.90625 
L 49.515625 72.90625 
L 49.515625 64.59375 
L 19.828125 64.59375 
L 19.828125 46.734375 
Q 21.96875 47.46875 24.109375 47.828125 
Q 26.265625 48.1875 28.421875 48.1875 
Q 40.625 48.1875 47.75 41.5 
Q 54.890625 34.8125 54.890625 23.390625 
Q 54.890625 11.625 47.5625 5.09375 
Q 40.234375 -1.421875 26.90625 -1.421875 
Q 22.3125 -1.421875 17.546875 -0.640625 
Q 12.796875 0.140625 7.71875 1.703125 
L 7.71875 11.625 
Q 12.109375 9.234375 16.796875 8.0625 
Q 21.484375 6.890625 26.703125 6.890625 
Q 35.15625 6.890625 40.078125 11.328125 
Q 45.015625 15.765625 45.015625 23.390625 
Q 45.015625 31 40.078125 35.4375 
Q 35.15625 39.890625 26.703125 39.890625 
Q 22.75 39.890625 18.8125 39.015625 
Q 14.890625 38.140625 10.796875 36.28125 
z
" id="DejaVuSans-35"/>
       <path d="M 31.78125 66.40625 
Q 24.171875 66.40625 20.328125 58.90625 
Q 16.5 51.421875 16.5 36.375 
Q 16.5 21.390625 20.328125 13.890625 
Q 24.171875 6.390625 31.78125 6.390625 
Q 39.453125 6.390625 43.28125 13.890625 
Q 47.125 21.390625 47.125 36.375 
Q 47.125 51.421875 43.28125 58.90625 
Q 39.453125 66.40625 31.78125 66.40625 
z
M 31.78125 74.21875 
Q 44.046875 74.21875 50.515625 64.515625 
Q 56.984375 54.828125 56.984375 36.375 
Q 56.984375 17.96875 50.515625 8.265625 
Q 44.046875 -1.421875 31.78125 -1.421875 
Q 19.53125 -1.421875 13.0625 8.265625 
Q 6.59375 17.96875 6.59375 36.375 
Q 6.59375 54.828125 13.0625 64.515625 
Q 19.53125 74.21875 31.78125 74.21875 
z
" id="DejaVuSans-30"/>
      </defs>
      <g transform="translate(83.818789 329.780875)scale(0.2 -0.2)">
       <use xlink:href="#DejaVuSans-35"/>
       <use x="63.623047" xlink:href="#DejaVuSans-30"/>
      </g>
     </g>
    </g>
    <g id="xtick_2">
     <g id="line2d_2">
      <g>
       <use style="stroke:#000000;stroke-width:0.8;" x="207.22148" xlink:href="#m3f0b8c37a7" y="307.584"/>
      </g>
     </g>
     <g id="text_2">
      <!-- 100 -->
      <defs>
       <path d="M 12.40625 8.296875 
L 28.515625 8.296875 
L 28.515625 63.921875 
L 10.984375 60.40625 
L 10.984375 69.390625 
L 28.421875 72.90625 
L 38.28125 72.90625 
L 38.28125 8.296875 
L 54.390625 8.296875 
L 54.390625 0 
L 12.40625 0 
z
" id="DejaVuSans-31"/>
      </defs>
      <g transform="translate(188.13398 329.780875)scale(0.2 -0.2)">
       <use xlink:href="#DejaVuSans-31"/>
       <use x="63.623047" xlink:href="#DejaVuSans-30"/>
       <use x="127.246094" xlink:href="#DejaVuSans-30"/>
      </g>
     </g>
    </g>
    <g id="xtick_3">
     <g id="line2d_3">
      <g>
       <use style="stroke:#000000;stroke-width:0.8;" x="317.899171" xlink:href="#m3f0b8c37a7" y="307.584"/>
      </g>
     </g>
     <g id="text_3">
      <!-- 150 -->
      <g transform="translate(298.811671 329.780875)scale(0.2 -0.2)">
       <use xlink:href="#DejaVuSans-31"/>
       <use x="63.623047" xlink:href="#DejaVuSans-35"/>
       <use x="127.246094" xlink:href="#DejaVuSans-30"/>
      </g>
     </g>
    </g>
   </g>
   <g id="matplotlib.axis_2">
    <g id="ytick_1">
     <g id="line2d_4">
      <defs>
       <path d="M 0 0 
L -3.5 0 
" id="m8fe7748a63" style="stroke:#000000;stroke-width:0.8;"/>
      </defs>
      <g>
       <use style="stroke:#000000;stroke-width:0.8;" x="57.6" xlink:href="#m8fe7748a63" y="263.631544"/>
      </g>
     </g>
     <g id="text_4">
      <!-- −0.01 -->
      <defs>
       <path d="M 10.59375 35.5 
L 73.1875 35.5 
L 73.1875 27.203125 
L 10.59375 27.203125 
z
" id="DejaVuSans-2212"/>
       <path d="M 10.6875 12.40625 
L 21 12.40625 
L 21 0 
L 10.6875 0 
z
" id="DejaVuSans-2e"/>
      </defs>
      <g transform="translate(-10.690625 271.229982)scale(0.2 -0.2)">
       <use xlink:href="#DejaVuSans-2212"/>
       <use x="83.789062" xlink:href="#DejaVuSans-30"/>
       <use x="147.412109" xlink:href="#DejaVuSans-2e"/>
       <use x="179.199219" xlink:href="#DejaVuSans-30"/>
       <use x="242.822266" xlink:href="#DejaVuSans-31"/>
      </g>
     </g>
    </g>
    <g id="ytick_2">
     <g id="line2d_5">
      <g>
       <use style="stroke:#000000;stroke-width:0.8;" x="57.6" xlink:href="#m8fe7748a63" y="177.665916"/>
      </g>
     </g>
     <g id="text_5">
      <!-- 0.00 -->
      <g transform="translate(6.06875 185.264354)scale(0.2 -0.2)">
       <use xlink:href="#DejaVuSans-30"/>
       <use x="63.623047" xlink:href="#DejaVuSans-2e"/>
       <use x="95.410156" xlink:href="#DejaVuSans-30"/>
       <use x="159.033203" xlink:href="#DejaVuSans-30"/>
      </g>
     </g>
    </g>
    <g id="ytick_3">
     <g id="line2d_6">
      <g>
       <use style="stroke:#000000;stroke-width:0.8;" x="57.6" xlink:href="#m8fe7748a63" y="91.700289"/>
      </g>
     </g>
     <g id="text_6">
      <!-- 0.01 -->
      <g transform="translate(6.06875 99.298726)scale(0.2 -0.2)">
       <use xlink:href="#DejaVuSans-30"/>
       <use x="63.623047" xlink:href="#DejaVuSans-2e"/>
       <use x="95.410156" xlink:href="#DejaVuSans-30"/>
       <use x="159.033203" xlink:href="#DejaVuSans-31"/>
      </g>
     </g>
    </g>
   </g>
   <g id="line2d_7">
    <path clip-path="url(#p9c233bd7eb)" d="M 73.832727 131.220396 
L 76.011617 129.95992 
L 78.190506 129.138788 
L 82.548286 127.886226 
L 84.727175 126.486478 
L 86.906065 125.375202 
L 93.442733 123.735336 
L 95.621623 122.717027 
L 97.800513 121.3497 
L 99.979402 120.208955 
L 104.337181 120.018831 
L 106.516071 119.072696 
L 108.69496 118.396492 
L 110.87385 118.33001 
L 113.052739 118.948322 
L 115.231629 118.92817 
L 119.589408 119.716285 
L 126.126077 119.180447 
L 128.304966 119.515035 
L 130.483856 118.774913 
L 132.662746 117.726213 
L 134.841635 117.19495 
L 139.199414 117.768815 
L 143.557193 120.266865 
L 145.736083 120.722915 
L 147.914973 120.51662 
L 152.272752 120.542655 
L 154.451641 120.755653 
L 163.1672 122.930136 
L 167.524979 124.893239 
L 169.703868 125.736681 
L 171.882758 127.563818 
L 174.061647 129.10133 
L 176.240537 129.851405 
L 178.419426 129.15957 
L 180.598316 129.251668 
L 184.956095 130.538687 
L 189.313874 133.121149 
L 191.492764 134.157701 
L 193.671653 134.560859 
L 195.850543 134.611258 
L 198.029433 136.003506 
L 200.208322 137.745693 
L 202.387212 139.104969 
L 204.566101 140.781873 
L 206.744991 142.636156 
L 208.92388 143.88072 
L 211.10277 144.881729 
L 213.28166 146.29935 
L 215.460549 147.300247 
L 217.639439 148.155221 
L 219.818328 148.528175 
L 224.176107 150.351017 
L 226.354997 151.265334 
L 228.533887 151.766764 
L 230.712776 151.860535 
L 232.891666 150.955945 
L 235.070555 149.526967 
L 237.249445 146.234976 
L 239.428334 141.493369 
L 241.607224 137.058767 
L 243.786113 133.66711 
L 245.965003 131.800943 
L 248.143893 132.032687 
L 250.322782 135.423958 
L 252.501672 143.189713 
L 254.680561 155.179721 
L 259.03834 183.565423 
L 261.21723 195.042404 
L 263.39612 201.750107 
L 265.575009 204.414924 
L 267.753899 203.838103 
L 269.932788 200.185657 
L 272.111678 194.814536 
L 274.290567 188.699638 
L 276.469457 184.663919 
L 278.648347 182.957189 
L 280.827236 182.664467 
L 283.006126 182.888585 
L 285.185015 183.307846 
L 287.363905 183.598301 
L 289.542794 184.303214 
L 296.079463 187.621041 
L 298.258353 190.066221 
L 300.437242 191.584302 
L 302.616132 191.968819 
L 304.795021 191.974001 
L 309.1528 192.753252 
L 311.33169 192.903356 
L 313.51058 193.989552 
L 315.689469 195.684745 
L 317.868359 196.91768 
L 320.047248 197.500696 
L 322.226138 197.59799 
L 324.405027 198.101602 
L 326.583917 199.166397 
L 328.762807 199.795882 
L 330.941696 201.176983 
L 333.120586 203.012202 
L 335.299475 204.371733 
L 337.478365 205.878485 
L 341.836144 210.15377 
L 344.015034 210.908996 
L 346.193923 211.400347 
L 348.372813 212.235693 
L 350.551702 213.435257 
L 352.730592 214.338131 
L 354.909481 214.29856 
L 357.088371 214.000673 
L 361.44615 214.933908 
L 363.62504 215.884544 
L 365.803929 217.091414 
L 367.982819 217.316106 
L 372.340598 216.910375 
L 374.519487 218.413216 
L 378.877267 221.825993 
L 381.056156 222.022441 
L 383.235046 221.752633 
L 385.413935 222.167509 
L 387.592825 222.064085 
L 389.771714 221.072696 
L 391.950604 220.733699 
L 394.129494 221.264852 
L 396.308383 222.140947 
L 398.487273 222.733255 
L 398.487273 222.733255 
" style="fill:none;stroke:#1f77b4;stroke-linecap:square;stroke-width:1.5;"/>
    <defs>
     <path d="M 0 4 
C 1.060812 4 2.078319 3.578535 2.828427 2.828427 
C 3.578535 2.078319 4 1.060812 4 0 
C 4 -1.060812 3.578535 -2.078319 2.828427 -2.828427 
C 2.078319 -3.578535 1.060812 -4 0 -4 
C -1.060812 -4 -2.078319 -3.578535 -2.828427 -2.828427 
C -3.578535 -2.078319 -4 -1.060812 -4 0 
C -4 1.060812 -3.578535 2.078319 -2.828427 2.828427 
C -2.078319 3.578535 -1.060812 4 0 4 
z
" id="mac49b7c72a" style="stroke:#1f77b4;"/>
    </defs>
    <g clip-path="url(#p9c233bd7eb)">
     <use style="fill-opacity:0;stroke:#1f77b4;" x="73.832727" xlink:href="#mac49b7c72a" y="131.220396"/>
     <use style="fill-opacity:0;stroke:#1f77b4;" x="76.011617" xlink:href="#mac49b7c72a" y="129.95992"/>
     <use style="fill-opacity:0;stroke:#1f77b4;" x="78.190506" xlink:href="#mac49b7c72a" y="129.138788"/>
     <use style="fill-opacity:0;stroke:#1f77b4;" x="80.369396" xlink:href="#mac49b7c72a" y="128.542294"/>
     <use style="fill-opacity:0;stroke:#1f77b4;" x="82.548286" xlink:href="#mac49b7c72a" y="127.886226"/>
     <use style="fill-opacity:0;stroke:#1f77b4;" x="84.727175" xlink:href="#mac49b7c72a" y="126.486478"/>
     <use style="fill-opacity:0;stroke:#1f77b4;" x="86.906065" xlink:href="#mac49b7c72a" y="125.375202"/>
     <use style="fill-opacity:0;stroke:#1f77b4;" x="89.084954" xlink:href="#mac49b7c72a" y="124.815591"/>
     <use style="fill-opacity:0;stroke:#1f77b4;" x="91.263844" xlink:href="#mac49b7c72a" y="124.355403"/>
     <use style="fill-opacity:0;stroke:#1f77b4;" x="93.442733" xlink:href="#mac49b7c72a" y="123.735336"/>
     <use style="fill-opacity:0;stroke:#1f77b4;" x="95.621623" xlink:href="#mac49b7c72a" y="122.717027"/>
     <use style="fill-opacity:0;stroke:#1f77b4;" x="97.800513" xlink:href="#mac49b7c72a" y="121.3497"/>
     <use style="fill-opacity:0;stroke:#1f77b4;" x="99.979402" xlink:href="#mac49b7c72a" y="120.208955"/>
     <use style="fill-opacity:0;stroke:#1f77b4;" x="102.158292" xlink:href="#mac49b7c72a" y="120.129113"/>
     <use style="fill-opacity:0;stroke:#1f77b4;" x="104.337181" xlink:href="#mac49b7c72a" y="120.018831"/>
     <use style="fill-opacity:0;stroke:#1f77b4;" x="106.516071" xlink:href="#mac49b7c72a" y="119.072696"/>
     <use style="fill-opacity:0;stroke:#1f77b4;" x="108.69496" xlink:href="#mac49b7c72a" y="118.396492"/>
     <use style="fill-opacity:0;stroke:#1f77b4;" x="110.87385" xlink:href="#mac49b7c72a" y="118.33001"/>
     <use style="fill-opacity:0;stroke:#1f77b4;" x="113.052739" xlink:href="#mac49b7c72a" y="118.948322"/>
     <use style="fill-opacity:0;stroke:#1f77b4;" x="115.231629" xlink:href="#mac49b7c72a" y="118.92817"/>
     <use style="fill-opacity:0;stroke:#1f77b4;" x="117.410519" xlink:href="#mac49b7c72a" y="119.354883"/>
     <use style="fill-opacity:0;stroke:#1f77b4;" x="119.589408" xlink:href="#mac49b7c72a" y="119.716285"/>
     <use style="fill-opacity:0;stroke:#1f77b4;" x="121.768298" xlink:href="#mac49b7c72a" y="119.54212"/>
     <use style="fill-opacity:0;stroke:#1f77b4;" x="123.947187" xlink:href="#mac49b7c72a" y="119.357925"/>
     <use style="fill-opacity:0;stroke:#1f77b4;" x="126.126077" xlink:href="#mac49b7c72a" y="119.180447"/>
     <use style="fill-opacity:0;stroke:#1f77b4;" x="128.304966" xlink:href="#mac49b7c72a" y="119.515035"/>
     <use style="fill-opacity:0;stroke:#1f77b4;" x="130.483856" xlink:href="#mac49b7c72a" y="118.774913"/>
     <use style="fill-opacity:0;stroke:#1f77b4;" x="132.662746" xlink:href="#mac49b7c72a" y="117.726213"/>
     <use style="fill-opacity:0;stroke:#1f77b4;" x="134.841635" xlink:href="#mac49b7c72a" y="117.19495"/>
     <use style="fill-opacity:0;stroke:#1f77b4;" x="137.020525" xlink:href="#mac49b7c72a" y="117.495732"/>
     <use style="fill-opacity:0;stroke:#1f77b4;" x="139.199414" xlink:href="#mac49b7c72a" y="117.768815"/>
     <use style="fill-opacity:0;stroke:#1f77b4;" x="141.378304" xlink:href="#mac49b7c72a" y="119.075037"/>
     <use style="fill-opacity:0;stroke:#1f77b4;" x="143.557193" xlink:href="#mac49b7c72a" y="120.266865"/>
     <use style="fill-opacity:0;stroke:#1f77b4;" x="145.736083" xlink:href="#mac49b7c72a" y="120.722915"/>
     <use style="fill-opacity:0;stroke:#1f77b4;" x="147.914973" xlink:href="#mac49b7c72a" y="120.51662"/>
     <use style="fill-opacity:0;stroke:#1f77b4;" x="150.093862" xlink:href="#mac49b7c72a" y="120.515655"/>
     <use style="fill-opacity:0;stroke:#1f77b4;" x="152.272752" xlink:href="#mac49b7c72a" y="120.542655"/>
     <use style="fill-opacity:0;stroke:#1f77b4;" x="154.451641" xlink:href="#mac49b7c72a" y="120.755653"/>
     <use style="fill-opacity:0;stroke:#1f77b4;" x="156.630531" xlink:href="#mac49b7c72a" y="121.310812"/>
     <use style="fill-opacity:0;stroke:#1f77b4;" x="158.80942" xlink:href="#mac49b7c72a" y="121.845248"/>
     <use style="fill-opacity:0;stroke:#1f77b4;" x="160.98831" xlink:href="#mac49b7c72a" y="122.345253"/>
     <use style="fill-opacity:0;stroke:#1f77b4;" x="163.1672" xlink:href="#mac49b7c72a" y="122.930136"/>
     <use style="fill-opacity:0;stroke:#1f77b4;" x="165.346089" xlink:href="#mac49b7c72a" y="123.937165"/>
     <use style="fill-opacity:0;stroke:#1f77b4;" x="167.524979" xlink:href="#mac49b7c72a" y="124.893239"/>
     <use style="fill-opacity:0;stroke:#1f77b4;" x="169.703868" xlink:href="#mac49b7c72a" y="125.736681"/>
     <use style="fill-opacity:0;stroke:#1f77b4;" x="171.882758" xlink:href="#mac49b7c72a" y="127.563818"/>
     <use style="fill-opacity:0;stroke:#1f77b4;" x="174.061647" xlink:href="#mac49b7c72a" y="129.10133"/>
     <use style="fill-opacity:0;stroke:#1f77b4;" x="176.240537" xlink:href="#mac49b7c72a" y="129.851405"/>
     <use style="fill-opacity:0;stroke:#1f77b4;" x="178.419426" xlink:href="#mac49b7c72a" y="129.15957"/>
     <use style="fill-opacity:0;stroke:#1f77b4;" x="180.598316" xlink:href="#mac49b7c72a" y="129.251668"/>
     <use style="fill-opacity:0;stroke:#1f77b4;" x="182.777206" xlink:href="#mac49b7c72a" y="129.892669"/>
     <use style="fill-opacity:0;stroke:#1f77b4;" x="184.956095" xlink:href="#mac49b7c72a" y="130.538687"/>
     <use style="fill-opacity:0;stroke:#1f77b4;" x="187.134985" xlink:href="#mac49b7c72a" y="131.877622"/>
     <use style="fill-opacity:0;stroke:#1f77b4;" x="189.313874" xlink:href="#mac49b7c72a" y="133.121149"/>
     <use style="fill-opacity:0;stroke:#1f77b4;" x="191.492764" xlink:href="#mac49b7c72a" y="134.157701"/>
     <use style="fill-opacity:0;stroke:#1f77b4;" x="193.671653" xlink:href="#mac49b7c72a" y="134.560859"/>
     <use style="fill-opacity:0;stroke:#1f77b4;" x="195.850543" xlink:href="#mac49b7c72a" y="134.611258"/>
     <use style="fill-opacity:0;stroke:#1f77b4;" x="198.029433" xlink:href="#mac49b7c72a" y="136.003506"/>
     <use style="fill-opacity:0;stroke:#1f77b4;" x="200.208322" xlink:href="#mac49b7c72a" y="137.745693"/>
     <use style="fill-opacity:0;stroke:#1f77b4;" x="202.387212" xlink:href="#mac49b7c72a" y="139.104969"/>
     <use style="fill-opacity:0;stroke:#1f77b4;" x="204.566101" xlink:href="#mac49b7c72a" y="140.781873"/>
     <use style="fill-opacity:0;stroke:#1f77b4;" x="206.744991" xlink:href="#mac49b7c72a" y="142.636156"/>
     <use style="fill-opacity:0;stroke:#1f77b4;" x="208.92388" xlink:href="#mac49b7c72a" y="143.88072"/>
     <use style="fill-opacity:0;stroke:#1f77b4;" x="211.10277" xlink:href="#mac49b7c72a" y="144.881729"/>
     <use style="fill-opacity:0;stroke:#1f77b4;" x="213.28166" xlink:href="#mac49b7c72a" y="146.29935"/>
     <use style="fill-opacity:0;stroke:#1f77b4;" x="215.460549" xlink:href="#mac49b7c72a" y="147.300247"/>
     <use style="fill-opacity:0;stroke:#1f77b4;" x="217.639439" xlink:href="#mac49b7c72a" y="148.155221"/>
     <use style="fill-opacity:0;stroke:#1f77b4;" x="219.818328" xlink:href="#mac49b7c72a" y="148.528175"/>
     <use style="fill-opacity:0;stroke:#1f77b4;" x="221.997218" xlink:href="#mac49b7c72a" y="149.392371"/>
     <use style="fill-opacity:0;stroke:#1f77b4;" x="224.176107" xlink:href="#mac49b7c72a" y="150.351017"/>
     <use style="fill-opacity:0;stroke:#1f77b4;" x="226.354997" xlink:href="#mac49b7c72a" y="151.265334"/>
     <use style="fill-opacity:0;stroke:#1f77b4;" x="228.533887" xlink:href="#mac49b7c72a" y="151.766764"/>
     <use style="fill-opacity:0;stroke:#1f77b4;" x="230.712776" xlink:href="#mac49b7c72a" y="151.860535"/>
     <use style="fill-opacity:0;stroke:#1f77b4;" x="232.891666" xlink:href="#mac49b7c72a" y="150.955945"/>
     <use style="fill-opacity:0;stroke:#1f77b4;" x="235.070555" xlink:href="#mac49b7c72a" y="149.526967"/>
     <use style="fill-opacity:0;stroke:#1f77b4;" x="237.249445" xlink:href="#mac49b7c72a" y="146.234976"/>
     <use style="fill-opacity:0;stroke:#1f77b4;" x="239.428334" xlink:href="#mac49b7c72a" y="141.493369"/>
     <use style="fill-opacity:0;stroke:#1f77b4;" x="241.607224" xlink:href="#mac49b7c72a" y="137.058767"/>
     <use style="fill-opacity:0;stroke:#1f77b4;" x="243.786113" xlink:href="#mac49b7c72a" y="133.66711"/>
     <use style="fill-opacity:0;stroke:#1f77b4;" x="245.965003" xlink:href="#mac49b7c72a" y="131.800943"/>
     <use style="fill-opacity:0;stroke:#1f77b4;" x="248.143893" xlink:href="#mac49b7c72a" y="132.032687"/>
     <use style="fill-opacity:0;stroke:#1f77b4;" x="250.322782" xlink:href="#mac49b7c72a" y="135.423958"/>
     <use style="fill-opacity:0;stroke:#1f77b4;" x="252.501672" xlink:href="#mac49b7c72a" y="143.189713"/>
     <use style="fill-opacity:0;stroke:#1f77b4;" x="254.680561" xlink:href="#mac49b7c72a" y="155.179721"/>
     <use style="fill-opacity:0;stroke:#1f77b4;" x="256.859451" xlink:href="#mac49b7c72a" y="169.459917"/>
     <use style="fill-opacity:0;stroke:#1f77b4;" x="259.03834" xlink:href="#mac49b7c72a" y="183.565423"/>
     <use style="fill-opacity:0;stroke:#1f77b4;" x="261.21723" xlink:href="#mac49b7c72a" y="195.042404"/>
     <use style="fill-opacity:0;stroke:#1f77b4;" x="263.39612" xlink:href="#mac49b7c72a" y="201.750107"/>
     <use style="fill-opacity:0;stroke:#1f77b4;" x="265.575009" xlink:href="#mac49b7c72a" y="204.414924"/>
     <use style="fill-opacity:0;stroke:#1f77b4;" x="267.753899" xlink:href="#mac49b7c72a" y="203.838103"/>
     <use style="fill-opacity:0;stroke:#1f77b4;" x="269.932788" xlink:href="#mac49b7c72a" y="200.185657"/>
     <use style="fill-opacity:0;stroke:#1f77b4;" x="272.111678" xlink:href="#mac49b7c72a" y="194.814536"/>
     <use style="fill-opacity:0;stroke:#1f77b4;" x="274.290567" xlink:href="#mac49b7c72a" y="188.699638"/>
     <use style="fill-opacity:0;stroke:#1f77b4;" x="276.469457" xlink:href="#mac49b7c72a" y="184.663919"/>
     <use style="fill-opacity:0;stroke:#1f77b4;" x="278.648347" xlink:href="#mac49b7c72a" y="182.957189"/>
     <use style="fill-opacity:0;stroke:#1f77b4;" x="280.827236" xlink:href="#mac49b7c72a" y="182.664467"/>
     <use style="fill-opacity:0;stroke:#1f77b4;" x="283.006126" xlink:href="#mac49b7c72a" y="182.888585"/>
     <use style="fill-opacity:0;stroke:#1f77b4;" x="285.185015" xlink:href="#mac49b7c72a" y="183.307846"/>
     <use style="fill-opacity:0;stroke:#1f77b4;" x="287.363905" xlink:href="#mac49b7c72a" y="183.598301"/>
     <use style="fill-opacity:0;stroke:#1f77b4;" x="289.542794" xlink:href="#mac49b7c72a" y="184.303214"/>
     <use style="fill-opacity:0;stroke:#1f77b4;" x="291.721684" xlink:href="#mac49b7c72a" y="185.422304"/>
     <use style="fill-opacity:0;stroke:#1f77b4;" x="293.900574" xlink:href="#mac49b7c72a" y="186.494165"/>
     <use style="fill-opacity:0;stroke:#1f77b4;" x="296.079463" xlink:href="#mac49b7c72a" y="187.621041"/>
     <use style="fill-opacity:0;stroke:#1f77b4;" x="298.258353" xlink:href="#mac49b7c72a" y="190.066221"/>
     <use style="fill-opacity:0;stroke:#1f77b4;" x="300.437242" xlink:href="#mac49b7c72a" y="191.584302"/>
     <use style="fill-opacity:0;stroke:#1f77b4;" x="302.616132" xlink:href="#mac49b7c72a" y="191.968819"/>
     <use style="fill-opacity:0;stroke:#1f77b4;" x="304.795021" xlink:href="#mac49b7c72a" y="191.974001"/>
     <use style="fill-opacity:0;stroke:#1f77b4;" x="306.973911" xlink:href="#mac49b7c72a" y="192.37962"/>
     <use style="fill-opacity:0;stroke:#1f77b4;" x="309.1528" xlink:href="#mac49b7c72a" y="192.753252"/>
     <use style="fill-opacity:0;stroke:#1f77b4;" x="311.33169" xlink:href="#mac49b7c72a" y="192.903356"/>
     <use style="fill-opacity:0;stroke:#1f77b4;" x="313.51058" xlink:href="#mac49b7c72a" y="193.989552"/>
     <use style="fill-opacity:0;stroke:#1f77b4;" x="315.689469" xlink:href="#mac49b7c72a" y="195.684745"/>
     <use style="fill-opacity:0;stroke:#1f77b4;" x="317.868359" xlink:href="#mac49b7c72a" y="196.91768"/>
     <use style="fill-opacity:0;stroke:#1f77b4;" x="320.047248" xlink:href="#mac49b7c72a" y="197.500696"/>
     <use style="fill-opacity:0;stroke:#1f77b4;" x="322.226138" xlink:href="#mac49b7c72a" y="197.59799"/>
     <use style="fill-opacity:0;stroke:#1f77b4;" x="324.405027" xlink:href="#mac49b7c72a" y="198.101602"/>
     <use style="fill-opacity:0;stroke:#1f77b4;" x="326.583917" xlink:href="#mac49b7c72a" y="199.166397"/>
     <use style="fill-opacity:0;stroke:#1f77b4;" x="328.762807" xlink:href="#mac49b7c72a" y="199.795882"/>
     <use style="fill-opacity:0;stroke:#1f77b4;" x="330.941696" xlink:href="#mac49b7c72a" y="201.176983"/>
     <use style="fill-opacity:0;stroke:#1f77b4;" x="333.120586" xlink:href="#mac49b7c72a" y="203.012202"/>
     <use style="fill-opacity:0;stroke:#1f77b4;" x="335.299475" xlink:href="#mac49b7c72a" y="204.371733"/>
     <use style="fill-opacity:0;stroke:#1f77b4;" x="337.478365" xlink:href="#mac49b7c72a" y="205.878485"/>
     <use style="fill-opacity:0;stroke:#1f77b4;" x="339.657254" xlink:href="#mac49b7c72a" y="207.950744"/>
     <use style="fill-opacity:0;stroke:#1f77b4;" x="341.836144" xlink:href="#mac49b7c72a" y="210.15377"/>
     <use style="fill-opacity:0;stroke:#1f77b4;" x="344.015034" xlink:href="#mac49b7c72a" y="210.908996"/>
     <use style="fill-opacity:0;stroke:#1f77b4;" x="346.193923" xlink:href="#mac49b7c72a" y="211.400347"/>
     <use style="fill-opacity:0;stroke:#1f77b4;" x="348.372813" xlink:href="#mac49b7c72a" y="212.235693"/>
     <use style="fill-opacity:0;stroke:#1f77b4;" x="350.551702" xlink:href="#mac49b7c72a" y="213.435257"/>
     <use style="fill-opacity:0;stroke:#1f77b4;" x="352.730592" xlink:href="#mac49b7c72a" y="214.338131"/>
     <use style="fill-opacity:0;stroke:#1f77b4;" x="354.909481" xlink:href="#mac49b7c72a" y="214.29856"/>
     <use style="fill-opacity:0;stroke:#1f77b4;" x="357.088371" xlink:href="#mac49b7c72a" y="214.000673"/>
     <use style="fill-opacity:0;stroke:#1f77b4;" x="359.267261" xlink:href="#mac49b7c72a" y="214.42231"/>
     <use style="fill-opacity:0;stroke:#1f77b4;" x="361.44615" xlink:href="#mac49b7c72a" y="214.933908"/>
     <use style="fill-opacity:0;stroke:#1f77b4;" x="363.62504" xlink:href="#mac49b7c72a" y="215.884544"/>
     <use style="fill-opacity:0;stroke:#1f77b4;" x="365.803929" xlink:href="#mac49b7c72a" y="217.091414"/>
     <use style="fill-opacity:0;stroke:#1f77b4;" x="367.982819" xlink:href="#mac49b7c72a" y="217.316106"/>
     <use style="fill-opacity:0;stroke:#1f77b4;" x="370.161708" xlink:href="#mac49b7c72a" y="217.087946"/>
     <use style="fill-opacity:0;stroke:#1f77b4;" x="372.340598" xlink:href="#mac49b7c72a" y="216.910375"/>
     <use style="fill-opacity:0;stroke:#1f77b4;" x="374.519487" xlink:href="#mac49b7c72a" y="218.413216"/>
     <use style="fill-opacity:0;stroke:#1f77b4;" x="376.698377" xlink:href="#mac49b7c72a" y="220.124595"/>
     <use style="fill-opacity:0;stroke:#1f77b4;" x="378.877267" xlink:href="#mac49b7c72a" y="221.825993"/>
     <use style="fill-opacity:0;stroke:#1f77b4;" x="381.056156" xlink:href="#mac49b7c72a" y="222.022441"/>
     <use style="fill-opacity:0;stroke:#1f77b4;" x="383.235046" xlink:href="#mac49b7c72a" y="221.752633"/>
     <use style="fill-opacity:0;stroke:#1f77b4;" x="385.413935" xlink:href="#mac49b7c72a" y="222.167509"/>
     <use style="fill-opacity:0;stroke:#1f77b4;" x="387.592825" xlink:href="#mac49b7c72a" y="222.064085"/>
     <use style="fill-opacity:0;stroke:#1f77b4;" x="389.771714" xlink:href="#mac49b7c72a" y="221.072696"/>
     <use style="fill-opacity:0;stroke:#1f77b4;" x="391.950604" xlink:href="#mac49b7c72a" y="220.733699"/>
     <use style="fill-opacity:0;stroke:#1f77b4;" x="394.129494" xlink:href="#mac49b7c72a" y="221.264852"/>
     <use style="fill-opacity:0;stroke:#1f77b4;" x="396.308383" xlink:href="#mac49b7c72a" y="222.140947"/>
     <use style="fill-opacity:0;stroke:#1f77b4;" x="398.487273" xlink:href="#mac49b7c72a" y="222.733255"/>
    </g>
   </g>
   <g id="patch_3">
    <path d="M 57.6 307.584 
L 57.6 41.472 
" style="fill:none;stroke:#000000;stroke-linecap:square;stroke-linejoin:miter;stroke-width:0.8;"/>
   </g>
   <g id="patch_4">
    <path d="M 414.72 307.584 
L 414.72 41.472 
" style="fill:none;stroke:#000000;stroke-linecap:square;stroke-linejoin:miter;stroke-width:0.8;"/>
   </g>
   <g id="patch_5">
    <path d="M 57.6 307.584 
L 414.72 307.584 
" style="fill:none;stroke:#000000;stroke-linecap:square;stroke-linejoin:miter;stroke-width:0.8;"/>
   </g>
   <g id="patch_6">
    <path d="M 57.6 41.472 
L 414.72 41.472 
" style="fill:none;stroke:#000000;stroke-linecap:square;stroke-linejoin:miter;stroke-width:0.8;"/>
   </g>
  </g>
 </g>
 <defs>
  <clipPath id="p9c233bd7eb">
   <rect height="266.112" width="357.12" x="57.6" y="41.472"/>
  </clipPath>
 </defs>
</svg>
