<?xml version="1.0" encoding="utf-8" standalone="no"?>
<!DOCTYPE svg PUBLIC "-//W3C//DTD SVG 1.1//EN"
  "http://www.w3.org/Graphics/SVG/1.1/DTD/svg11.dtd">
<svg xmlns:xlink="http://www.w3.org/1999/xlink" width="432pt" height="288pt" viewBox="0 0 432 288" xmlns="http://www.w3.org/2000/svg" version="1.1">
 <metadata>
  <rdf:RDF xmlns:dc="http://purl.org/dc/elements/1.1/" xmlns:cc="http://creativecommons.org/ns#" xmlns:rdf="http://www.w3.org/1999/02/22-rdf-syntax-ns#">
   <cc:Work>
    <dc:type rdf:resource="http://purl.org/dc/dcmitype/StillImage"/>
    <dc:date>2022-05-03T17:08:38.383097</dc:date>
    <dc:format>image/svg+xml</dc:format>
    <dc:creator>
     <cc:Agent>
      <dc:title>Matplotlib v3.5.1, https://matplotlib.org/</dc:title>
     </cc:Agent>
    </dc:creator>
   </cc:Work>
  </rdf:RDF>
 </metadata>
 <defs>
  <style type="text/css">*{stroke-linejoin: round; stroke-linecap: butt}</style>
 </defs>
 <g id="figure_1">
  <g id="patch_1">
   <path d="M 0 288 
L 432 288 
L 432 0 
L 0 0 
z
" style="fill: #ffffff"/>
  </g>
  <g id="axes_1">
   <g id="patch_2">
    <path d="M 54 256.32 
L 388.8 256.32 
L 388.8 34.56 
L 54 34.56 
z
" style="fill: #ffffff"/>
   </g>
   <g id="PolyCollection_1">
    <defs>
     <path id="maa6063275a" d="M 69.218182 -41.76 
L 69.218182 -41.76 
L 69.828129 -41.76 
L 70.438076 -41.76 
L 71.048023 -41.76 
L 71.65797 -41.76 
L 72.267918 -41.76 
L 72.877865 -41.76 
L 73.487812 -41.76 
L 74.097759 -41.76 
L 74.707706 -41.76 
L 75.317653 -41.76 
L 75.927601 -41.76 
L 76.537548 -41.76 
L 77.147495 -41.76 
L 77.757442 -41.76 
L 78.367389 -41.76 
L 78.977336 -41.76 
L 79.587284 -41.76 
L 80.197231 -41.76 
L 80.807178 -41.76 
L 81.417125 -41.76 
L 82.027072 -41.76 
L 82.637019 -41.76 
L 83.246967 -41.76 
L 83.856914 -41.76 
L 84.466861 -41.76 
L 85.076808 -41.76 
L 85.686755 -41.76 
L 86.296702 -41.76 
L 86.90665 -41.76 
L 87.516597 -41.76 
L 88.126544 -41.76 
L 88.736491 -41.76 
L 89.346438 -41.76 
L 89.956385 -41.76 
L 90.566333 -41.76 
L 91.17628 -41.76 
L 91.786227 -41.76 
L 92.396174 -41.76 
L 93.006121 -41.76 
L 93.616069 -41.76 
L 94.226016 -41.76 
L 94.835963 -41.76 
L 95.44591 -41.76 
L 96.055857 -41.76 
L 96.665804 -41.76 
L 97.275752 -41.76 
L 97.885699 -41.76 
L 98.495646 -41.76 
L 99.105593 -41.76 
L 99.71554 -41.76 
L 100.325487 -41.76 
L 100.935435 -41.76 
L 101.545382 -41.76 
L 102.155329 -41.76 
L 102.765276 -41.76 
L 103.375223 -41.76 
L 103.98517 -41.76 
L 104.595118 -41.76 
L 105.205065 -41.76 
L 105.815012 -41.76 
L 106.424959 -41.76 
L 107.034906 -41.76 
L 107.644853 -41.76 
L 108.254801 -41.76 
L 108.864748 -41.76 
L 109.474695 -41.76 
L 110.084642 -41.76 
L 110.694589 -41.76 
L 111.304536 -41.76 
L 111.914484 -41.76 
L 112.524431 -41.76 
L 113.134378 -41.76 
L 113.744325 -41.76 
L 114.354272 -41.76 
L 114.964219 -41.76 
L 115.574167 -41.76 
L 116.184114 -41.76 
L 116.794061 -41.76 
L 117.404008 -41.76 
L 118.013955 -41.76 
L 118.623902 -41.76 
L 119.23385 -41.76 
L 119.843797 -41.76 
L 120.453744 -41.76 
L 121.063691 -41.76 
L 121.673638 -41.76 
L 122.283585 -41.76 
L 122.893533 -41.76 
L 123.50348 -41.76 
L 124.113427 -41.76 
L 124.723374 -41.76 
L 125.333321 -41.76 
L 125.943268 -41.76 
L 126.553216 -41.76 
L 127.163163 -41.76 
L 127.77311 -41.76 
L 128.383057 -41.76 
L 128.993004 -41.76 
L 129.602951 -41.76 
L 130.212899 -41.76 
L 130.822846 -41.76 
L 131.432793 -41.76 
L 132.04274 -41.76 
L 132.652687 -41.76 
L 133.262634 -41.76 
L 133.872582 -41.76 
L 134.482529 -41.76 
L 135.092476 -41.76 
L 135.702423 -41.76 
L 136.31237 -41.76 
L 136.922317 -41.76 
L 137.532265 -41.76 
L 138.142212 -41.76 
L 138.752159 -41.76 
L 139.362106 -41.76 
L 139.972053 -41.76 
L 140.582 -41.76 
L 141.191948 -41.76 
L 141.801895 -41.76 
L 142.411842 -41.76 
L 143.021789 -41.76 
L 143.631736 -41.76 
L 144.241683 -41.76 
L 144.851631 -41.76 
L 145.461578 -41.76 
L 146.071525 -41.76 
L 146.681472 -41.76 
L 147.291419 -41.76 
L 147.901366 -41.76 
L 148.511314 -41.76 
L 149.121261 -41.76 
L 149.731208 -41.76 
L 150.341155 -41.76 
L 150.951102 -41.76 
L 151.561049 -41.76 
L 152.170997 -41.76 
L 152.780944 -41.76 
L 153.390891 -41.76 
L 154.000838 -41.76 
L 154.610785 -41.76 
L 155.220732 -41.76 
L 155.83068 -41.76 
L 156.440627 -41.76 
L 157.050574 -41.76 
L 157.660521 -41.76 
L 158.270468 -41.76 
L 158.880415 -41.76 
L 159.490363 -41.76 
L 160.10031 -41.76 
L 160.710257 -41.76 
L 161.320204 -41.76 
L 161.930151 -41.76 
L 162.540098 -41.76 
L 163.150046 -41.76 
L 163.759993 -41.76 
L 164.36994 -41.76 
L 164.979887 -41.76 
L 165.589834 -41.76 
L 166.199781 -41.76 
L 166.809729 -41.76 
L 167.419676 -41.76 
L 168.029623 -41.76 
L 168.63957 -41.76 
L 169.249517 -41.76 
L 169.859464 -41.76 
L 170.469412 -41.76 
L 171.079359 -41.76 
L 171.689306 -41.76 
L 172.299253 -41.76 
L 172.9092 -41.76 
L 173.519147 -41.76 
L 174.129095 -41.76 
L 174.739042 -41.76 
L 175.348989 -41.76 
L 175.958936 -41.76 
L 176.568883 -41.76 
L 177.17883 -41.76 
L 177.788778 -41.76 
L 178.398725 -41.76 
L 179.008672 -41.76 
L 179.618619 -41.76 
L 180.228566 -41.76 
L 180.838513 -41.76 
L 181.448461 -41.76 
L 182.058408 -41.76 
L 182.668355 -41.76 
L 183.278302 -41.76 
L 183.888249 -41.76 
L 184.498196 -41.76 
L 185.108144 -41.76 
L 185.718091 -41.76 
L 186.328038 -41.76 
L 186.937985 -41.76 
L 187.547932 -41.76 
L 188.157879 -41.76 
L 188.767827 -41.76 
L 189.377774 -41.76 
L 189.987721 -41.76 
L 190.597668 -41.76 
L 191.207615 -41.76 
L 191.817562 -41.76 
L 192.42751 -41.76 
L 193.037457 -41.76 
L 193.647404 -41.76 
L 194.257351 -41.76 
L 194.867298 -41.76 
L 195.477245 -41.76 
L 196.087193 -41.76 
L 196.69714 -41.76 
L 197.307087 -41.76 
L 197.917034 -41.76 
L 198.526981 -41.76 
L 199.136928 -41.76 
L 199.746876 -41.76 
L 200.356823 -41.76 
L 200.96677 -41.76 
L 201.576717 -41.76 
L 202.186664 -41.76 
L 202.796611 -41.76 
L 203.406559 -41.76 
L 204.016506 -41.76 
L 204.626453 -41.76 
L 205.2364 -41.76 
L 205.846347 -41.76 
L 206.456294 -41.76 
L 207.066242 -41.76 
L 207.676189 -41.76 
L 208.286136 -41.76 
L 208.896083 -41.76 
L 209.50603 -41.76 
L 210.115977 -41.76 
L 210.725925 -41.76 
L 211.335872 -41.76 
L 211.945819 -41.76 
L 212.555766 -41.76 
L 213.165713 -41.76 
L 213.77566 -41.76 
L 214.385608 -41.76 
L 214.995555 -41.76 
L 215.605502 -41.76 
L 216.215449 -41.76 
L 216.825396 -41.76 
L 217.435343 -41.76 
L 218.045291 -41.76 
L 218.655238 -41.76 
L 219.265185 -41.76 
L 219.875132 -41.76 
L 220.485079 -41.76 
L 221.095026 -41.76 
L 221.704974 -41.76 
L 222.314921 -41.76 
L 222.924868 -41.76 
L 223.534815 -41.76 
L 224.144762 -41.76 
L 224.754709 -41.76 
L 225.364657 -41.76 
L 225.974604 -41.76 
L 226.584551 -41.76 
L 227.194498 -41.76 
L 227.804445 -41.76 
L 228.414392 -41.76 
L 229.02434 -41.76 
L 229.634287 -41.76 
L 230.244234 -41.76 
L 230.854181 -41.76 
L 231.464128 -41.76 
L 232.074075 -41.76 
L 232.684023 -41.76 
L 233.29397 -41.76 
L 233.903917 -41.76 
L 234.513864 -41.76 
L 235.123811 -41.76 
L 235.733758 -41.76 
L 236.343706 -41.76 
L 236.953653 -41.76 
L 237.5636 -41.76 
L 238.173547 -41.76 
L 238.783494 -41.76 
L 239.393441 -41.76 
L 240.003389 -41.76 
L 240.613336 -41.76 
L 241.223283 -41.76 
L 241.83323 -41.76 
L 242.443177 -41.76 
L 243.053124 -41.76 
L 243.663072 -41.76 
L 244.273019 -41.76 
L 244.882966 -41.76 
L 245.492913 -41.76 
L 246.10286 -41.76 
L 246.712807 -41.76 
L 247.322755 -41.76 
L 247.932702 -41.76 
L 248.542649 -41.76 
L 249.152596 -41.76 
L 249.762543 -41.76 
L 250.37249 -41.76 
L 250.982438 -41.76 
L 251.592385 -41.76 
L 252.202332 -41.76 
L 252.812279 -41.76 
L 253.422226 -41.76 
L 254.032173 -41.76 
L 254.642121 -41.76 
L 255.252068 -41.76 
L 255.862015 -41.76 
L 256.471962 -41.76 
L 257.081909 -41.76 
L 257.691856 -41.76 
L 258.301804 -41.76 
L 258.911751 -41.76 
L 259.521698 -41.76 
L 260.131645 -41.76 
L 260.741592 -41.76 
L 261.351539 -41.76 
L 261.961487 -41.76 
L 262.571434 -41.76 
L 263.181381 -41.76 
L 263.791328 -41.76 
L 264.401275 -41.76 
L 265.011222 -41.76 
L 265.62117 -41.76 
L 266.231117 -41.76 
L 266.841064 -41.76 
L 267.451011 -41.76 
L 268.060958 -41.76 
L 268.670905 -41.76 
L 269.280853 -41.76 
L 269.8908 -41.76 
L 270.500747 -41.76 
L 271.110694 -41.76 
L 271.720641 -41.76 
L 272.330588 -41.76 
L 272.940536 -41.76 
L 273.550483 -41.76 
L 274.16043 -41.76 
L 274.770377 -41.76 
L 275.380324 -41.76 
L 275.990271 -41.76 
L 276.600219 -41.76 
L 277.210166 -41.76 
L 277.820113 -41.76 
L 278.43006 -41.76 
L 279.040007 -41.76 
L 279.649954 -41.76 
L 280.259902 -41.76 
L 280.869849 -41.76 
L 281.479796 -41.76 
L 282.089743 -41.76 
L 282.69969 -41.76 
L 283.309637 -41.76 
L 283.919585 -41.76 
L 284.529532 -41.76 
L 285.139479 -41.76 
L 285.749426 -41.76 
L 286.359373 -41.76 
L 286.96932 -41.76 
L 287.579268 -41.76 
L 288.189215 -41.76 
L 288.799162 -41.76 
L 289.409109 -41.76 
L 290.019056 -41.76 
L 290.629003 -41.76 
L 291.238951 -41.76 
L 291.848898 -41.76 
L 292.458845 -41.76 
L 293.068792 -41.76 
L 293.678739 -41.76 
L 294.288686 -41.76 
L 294.898634 -41.76 
L 295.508581 -41.76 
L 296.118528 -41.76 
L 296.728475 -41.76 
L 297.338422 -41.76 
L 297.948369 -41.76 
L 298.558317 -41.76 
L 299.168264 -41.76 
L 299.778211 -41.76 
L 300.388158 -41.76 
L 300.998105 -41.76 
L 301.608052 -41.76 
L 302.218 -41.76 
L 302.827947 -41.76 
L 303.437894 -41.76 
L 304.047841 -41.76 
L 304.657788 -41.76 
L 305.267735 -41.76 
L 305.877683 -41.76 
L 306.48763 -41.76 
L 307.097577 -41.76 
L 307.707524 -41.76 
L 308.317471 -41.76 
L 308.927418 -41.76 
L 309.537366 -41.76 
L 310.147313 -41.76 
L 310.75726 -41.76 
L 311.367207 -41.76 
L 311.977154 -41.76 
L 312.587101 -41.76 
L 313.197049 -41.76 
L 313.806996 -41.76 
L 314.416943 -41.76 
L 315.02689 -41.76 
L 315.636837 -41.76 
L 316.246784 -41.76 
L 316.856732 -41.76 
L 317.466679 -41.76 
L 318.076626 -41.76 
L 318.686573 -41.76 
L 319.29652 -41.76 
L 319.906467 -41.76 
L 320.516415 -41.76 
L 321.126362 -41.76 
L 321.736309 -41.76 
L 322.346256 -41.76 
L 322.956203 -41.76 
L 323.56615 -41.76 
L 324.176098 -41.76 
L 324.786045 -41.76 
L 325.395992 -41.76 
L 326.005939 -41.76 
L 326.615886 -41.76 
L 327.225833 -41.76 
L 327.835781 -41.76 
L 328.445728 -41.76 
L 329.055675 -41.76 
L 329.665622 -41.76 
L 330.275569 -41.76 
L 330.885516 -41.76 
L 331.495464 -41.76 
L 332.105411 -41.76 
L 332.715358 -41.76 
L 333.325305 -41.76 
L 333.935252 -41.76 
L 334.545199 -41.76 
L 335.155147 -41.76 
L 335.765094 -41.76 
L 336.375041 -41.76 
L 336.984988 -41.76 
L 337.594935 -41.76 
L 338.204882 -41.76 
L 338.81483 -41.76 
L 339.424777 -41.76 
L 340.034724 -41.76 
L 340.644671 -41.76 
L 341.254618 -41.76 
L 341.864565 -41.76 
L 342.474513 -41.76 
L 343.08446 -41.76 
L 343.694407 -41.76 
L 344.304354 -41.76 
L 344.914301 -41.76 
L 345.524248 -41.76 
L 346.134196 -41.76 
L 346.744143 -41.76 
L 347.35409 -41.76 
L 347.964037 -41.76 
L 348.573984 -41.76 
L 349.183931 -41.76 
L 349.793879 -41.76 
L 350.403826 -41.76 
L 351.013773 -41.76 
L 351.62372 -41.76 
L 352.233667 -41.76 
L 352.843615 -41.76 
L 353.453562 -41.76 
L 354.063509 -41.76 
L 354.673456 -41.76 
L 355.283403 -41.76 
L 355.89335 -41.76 
L 356.503298 -41.76 
L 357.113245 -41.76 
L 357.723192 -41.76 
L 358.333139 -41.76 
L 358.943086 -41.76 
L 359.553033 -41.76 
L 360.162981 -41.76 
L 360.772928 -41.76 
L 361.382875 -41.76 
L 361.992822 -41.76 
L 362.602769 -41.76 
L 363.212716 -41.76 
L 363.822664 -41.76 
L 364.432611 -41.76 
L 365.042558 -41.76 
L 365.652505 -41.76 
L 366.262452 -41.76 
L 366.872399 -41.76 
L 367.482347 -41.76 
L 368.092294 -41.76 
L 368.702241 -41.76 
L 369.312188 -41.76 
L 369.922135 -41.76 
L 370.532082 -41.76 
L 371.14203 -41.76 
L 371.751977 -41.76 
L 372.361924 -41.76 
L 372.971871 -41.76 
L 373.581818 -41.76 
L 373.581818 -41.76 
L 373.581818 -41.76 
L 372.971871 -41.76 
L 372.361924 -41.76 
L 371.751977 -41.76 
L 371.14203 -41.76 
L 370.532082 -41.76 
L 369.922135 -41.76 
L 369.312188 -41.76 
L 368.702241 -41.76 
L 368.092294 -41.76 
L 367.482347 -41.76 
L 366.872399 -41.76 
L 366.262452 -41.76 
L 365.652505 -41.76 
L 365.042558 -41.76 
L 364.432611 -41.76 
L 363.822664 -41.76 
L 363.212716 -41.76 
L 362.602769 -41.76 
L 361.992822 -41.76 
L 361.382875 -41.76 
L 360.772928 -41.76 
L 360.162981 -41.76 
L 359.553033 -41.76 
L 358.943086 -41.76 
L 358.333139 -41.76 
L 357.723192 -41.76 
L 357.113245 -41.76 
L 356.503298 -41.76 
L 355.89335 -41.76 
L 355.283403 -41.76 
L 354.673456 -41.76 
L 354.063509 -41.76 
L 353.453562 -41.76 
L 352.843615 -41.76 
L 352.233667 -41.76 
L 351.62372 -41.76 
L 351.013773 -41.76 
L 350.403826 -41.76 
L 349.793879 -41.76 
L 349.183931 -41.76 
L 348.573984 -41.76 
L 347.964037 -41.76 
L 347.35409 -41.76 
L 346.744143 -41.76 
L 346.134196 -41.76 
L 345.524248 -41.76 
L 344.914301 -41.76 
L 344.304354 -41.76 
L 343.694407 -41.76 
L 343.08446 -41.76 
L 342.474513 -41.76 
L 341.864565 -41.76 
L 341.254618 -41.76 
L 340.644671 -41.76 
L 340.034724 -41.76 
L 339.424777 -41.76 
L 338.81483 -41.76 
L 338.204882 -41.76 
L 337.594935 -41.76 
L 336.984988 -41.76 
L 336.375041 -41.76 
L 335.765094 -41.76 
L 335.155147 -41.76 
L 334.545199 -41.76 
L 333.935252 -41.76 
L 333.325305 -41.76 
L 332.715358 -41.76 
L 332.105411 -41.76 
L 331.495464 -41.76 
L 330.885516 -41.76 
L 330.275569 -41.76 
L 329.665622 -41.76 
L 329.055675 -41.76 
L 328.445728 -41.76 
L 327.835781 -41.76 
L 327.225833 -41.76 
L 326.615886 -41.76 
L 326.005939 -41.76 
L 325.395992 -41.76 
L 324.786045 -41.76 
L 324.176098 -41.76 
L 323.56615 -41.76 
L 322.956203 -41.76 
L 322.346256 -41.76 
L 321.736309 -41.76 
L 321.126362 -41.76 
L 320.516415 -41.76 
L 319.906467 -41.76 
L 319.29652 -41.76 
L 318.686573 -41.76 
L 318.076626 -41.76 
L 317.466679 -41.76 
L 316.856732 -41.76 
L 316.246784 -41.76 
L 315.636837 -41.76 
L 315.02689 -41.76 
L 314.416943 -41.76 
L 313.806996 -41.76 
L 313.197049 -41.76 
L 312.587101 -41.76 
L 311.977154 -41.76 
L 311.367207 -41.76 
L 310.75726 -41.76 
L 310.147313 -41.76 
L 309.537366 -41.76 
L 308.927418 -41.76 
L 308.317471 -41.76 
L 307.707524 -41.76 
L 307.097577 -41.76 
L 306.48763 -41.76 
L 305.877683 -41.76 
L 305.267735 -41.76 
L 304.657788 -41.76 
L 304.047841 -41.76 
L 303.437894 -41.76 
L 302.827947 -41.76 
L 302.218 -41.76 
L 301.608052 -41.76 
L 300.998105 -41.76 
L 300.388158 -41.76 
L 299.778211 -41.76 
L 299.168264 -41.76 
L 298.558317 -41.760001 
L 297.948369 -41.760001 
L 297.338422 -41.760001 
L 296.728475 -41.760001 
L 296.118528 -41.760002 
L 295.508581 -41.760002 
L 294.898634 -41.760003 
L 294.288686 -41.760004 
L 293.678739 -41.760005 
L 293.068792 -41.760007 
L 292.458845 -41.760009 
L 291.848898 -41.760012 
L 291.238951 -41.760015 
L 290.629003 -41.76002 
L 290.019056 -41.760025 
L 289.409109 -41.760032 
L 288.799162 -41.760041 
L 288.189215 -41.760053 
L 287.579268 -41.760067 
L 286.96932 -41.760086 
L 286.359373 -41.760109 
L 285.749426 -41.760138 
L 285.139479 -41.760174 
L 284.529532 -41.76022 
L 283.919585 -41.760277 
L 283.309637 -41.760348 
L 282.69969 -41.760436 
L 282.089743 -41.760544 
L 281.479796 -41.760679 
L 280.869849 -41.760845 
L 280.259902 -41.761049 
L 279.649954 -41.7613 
L 279.040007 -41.761606 
L 278.43006 -41.761981 
L 277.820113 -41.762438 
L 277.210166 -41.762994 
L 276.600219 -41.763668 
L 275.990271 -41.764483 
L 275.380324 -41.765468 
L 274.770377 -41.766654 
L 274.16043 -41.76808 
L 273.550483 -41.769789 
L 272.940536 -41.771833 
L 272.330588 -41.774273 
L 271.720641 -41.777176 
L 271.110694 -41.780624 
L 270.500747 -41.78471 
L 269.8908 -41.789538 
L 269.280853 -41.795232 
L 268.670905 -41.801929 
L 268.060958 -41.809788 
L 267.451011 -41.818988 
L 266.841064 -41.829733 
L 266.231117 -41.842251 
L 265.62117 -41.856801 
L 265.011222 -41.873669 
L 264.401275 -41.89318 
L 263.791328 -41.915693 
L 263.181381 -41.941605 
L 262.571434 -41.971357 
L 261.961487 -42.005436 
L 261.351539 -42.044374 
L 260.741592 -42.088756 
L 260.131645 -42.139217 
L 259.521698 -42.196448 
L 258.911751 -42.261198 
L 258.301804 -42.33427 
L 257.691856 -42.41653 
L 257.081909 -42.5089 
L 256.471962 -42.612362 
L 255.862015 -42.727956 
L 255.252068 -42.856776 
L 254.642121 -42.99997 
L 254.032173 -43.158736 
L 253.422226 -43.334313 
L 252.812279 -43.527981 
L 252.202332 -43.741049 
L 251.592385 -43.974847 
L 250.982438 -44.230719 
L 250.37249 -44.510008 
L 249.762543 -44.814046 
L 249.152596 -45.144139 
L 248.542649 -45.501553 
L 247.932702 -45.887496 
L 247.322755 -46.303101 
L 246.712807 -46.74941 
L 246.10286 -47.227351 
L 245.492913 -47.737723 
L 244.882966 -48.281172 
L 244.273019 -48.858172 
L 243.663072 -49.469008 
L 243.053124 -50.113749 
L 242.443177 -50.792239 
L 241.83323 -51.50407 
L 241.223283 -52.248574 
L 240.613336 -53.024801 
L 240.003389 -53.83151 
L 239.393441 -54.667161 
L 238.783494 -55.529903 
L 238.173547 -56.417573 
L 237.5636 -57.327694 
L 236.953653 -58.257477 
L 236.343706 -59.203828 
L 235.733758 -60.163359 
L 235.123811 -61.1324 
L 234.513864 -62.107019 
L 233.903917 -63.083043 
L 233.29397 -64.056084 
L 232.684023 -65.021571 
L 232.074075 -65.974779 
L 231.464128 -66.910871 
L 230.854181 -67.82493 
L 230.244234 -68.712008 
L 229.634287 -69.567165 
L 229.02434 -70.385517 
L 228.414392 -71.162278 
L 227.804445 -71.892812 
L 227.194498 -72.572673 
L 226.584551 -73.197652 
L 225.974604 -73.763824 
L 225.364657 -74.267582 
L 224.754709 -74.705682 
L 224.144762 -75.075271 
L 223.534815 -75.373926 
L 222.924868 -75.599672 
L 222.314921 -75.751011 
L 221.704974 -75.826935 
L 221.095026 -75.826935 
L 220.485079 -75.751011 
L 219.875132 -75.599672 
L 219.265185 -75.373926 
L 218.655238 -75.075271 
L 218.045291 -74.705682 
L 217.435343 -74.267582 
L 216.825396 -73.763824 
L 216.215449 -73.197652 
L 215.605502 -72.572673 
L 214.995555 -71.892812 
L 214.385608 -71.162278 
L 213.77566 -70.385517 
L 213.165713 -69.567165 
L 212.555766 -68.712008 
L 211.945819 -67.82493 
L 211.335872 -66.910871 
L 210.725925 -65.974779 
L 210.115977 -65.021571 
L 209.50603 -64.056084 
L 208.896083 -63.083043 
L 208.286136 -62.107019 
L 207.676189 -61.1324 
L 207.066242 -60.163359 
L 206.456294 -59.203828 
L 205.846347 -58.257477 
L 205.2364 -57.327694 
L 204.626453 -56.417573 
L 204.016506 -55.529903 
L 203.406559 -54.667161 
L 202.796611 -53.83151 
L 202.186664 -53.024801 
L 201.576717 -52.248574 
L 200.96677 -51.50407 
L 200.356823 -50.792239 
L 199.746876 -50.113749 
L 199.136928 -49.469008 
L 198.526981 -48.858172 
L 197.917034 -48.281172 
L 197.307087 -47.737723 
L 196.69714 -47.227351 
L 196.087193 -46.74941 
L 195.477245 -46.303101 
L 194.867298 -45.887496 
L 194.257351 -45.501553 
L 193.647404 -45.144139 
L 193.037457 -44.814046 
L 192.42751 -44.510008 
L 191.817562 -44.230719 
L 191.207615 -43.974847 
L 190.597668 -43.741049 
L 189.987721 -43.527981 
L 189.377774 -43.334313 
L 188.767827 -43.158736 
L 188.157879 -42.99997 
L 187.547932 -42.856776 
L 186.937985 -42.727956 
L 186.328038 -42.612362 
L 185.718091 -42.5089 
L 185.108144 -42.41653 
L 184.498196 -42.33427 
L 183.888249 -42.261198 
L 183.278302 -42.196448 
L 182.668355 -42.139217 
L 182.058408 -42.088756 
L 181.448461 -42.044374 
L 180.838513 -42.005436 
L 180.228566 -41.971357 
L 179.618619 -41.941605 
L 179.008672 -41.915693 
L 178.398725 -41.89318 
L 177.788778 -41.873669 
L 177.17883 -41.856801 
L 176.568883 -41.842251 
L 175.958936 -41.829733 
L 175.348989 -41.818988 
L 174.739042 -41.809788 
L 174.129095 -41.801929 
L 173.519147 -41.795232 
L 172.9092 -41.789538 
L 172.299253 -41.78471 
L 171.689306 -41.780624 
L 171.079359 -41.777176 
L 170.469412 -41.774273 
L 169.859464 -41.771833 
L 169.249517 -41.769789 
L 168.63957 -41.76808 
L 168.029623 -41.766654 
L 167.419676 -41.765468 
L 166.809729 -41.764483 
L 166.199781 -41.763668 
L 165.589834 -41.762994 
L 164.979887 -41.762438 
L 164.36994 -41.761981 
L 163.759993 -41.761606 
L 163.150046 -41.7613 
L 162.540098 -41.761049 
L 161.930151 -41.760845 
L 161.320204 -41.760679 
L 160.710257 -41.760544 
L 160.10031 -41.760436 
L 159.490363 -41.760348 
L 158.880415 -41.760277 
L 158.270468 -41.76022 
L 157.660521 -41.760174 
L 157.050574 -41.760138 
L 156.440627 -41.760109 
L 155.83068 -41.760086 
L 155.220732 -41.760067 
L 154.610785 -41.760053 
L 154.000838 -41.760041 
L 153.390891 -41.760032 
L 152.780944 -41.760025 
L 152.170997 -41.76002 
L 151.561049 -41.760015 
L 150.951102 -41.760012 
L 150.341155 -41.760009 
L 149.731208 -41.760007 
L 149.121261 -41.760005 
L 148.511314 -41.760004 
L 147.901366 -41.760003 
L 147.291419 -41.760002 
L 146.681472 -41.760002 
L 146.071525 -41.760001 
L 145.461578 -41.760001 
L 144.851631 -41.760001 
L 144.241683 -41.760001 
L 143.631736 -41.76 
L 143.021789 -41.76 
L 142.411842 -41.76 
L 141.801895 -41.76 
L 141.191948 -41.76 
L 140.582 -41.76 
L 139.972053 -41.76 
L 139.362106 -41.76 
L 138.752159 -41.76 
L 138.142212 -41.76 
L 137.532265 -41.76 
L 136.922317 -41.76 
L 136.31237 -41.76 
L 135.702423 -41.76 
L 135.092476 -41.76 
L 134.482529 -41.76 
L 133.872582 -41.76 
L 133.262634 -41.76 
L 132.652687 -41.76 
L 132.04274 -41.76 
L 131.432793 -41.76 
L 130.822846 -41.76 
L 130.212899 -41.76 
L 129.602951 -41.76 
L 128.993004 -41.76 
L 128.383057 -41.76 
L 127.77311 -41.76 
L 127.163163 -41.76 
L 126.553216 -41.76 
L 125.943268 -41.76 
L 125.333321 -41.76 
L 124.723374 -41.76 
L 124.113427 -41.76 
L 123.50348 -41.76 
L 122.893533 -41.76 
L 122.283585 -41.76 
L 121.673638 -41.76 
L 121.063691 -41.76 
L 120.453744 -41.76 
L 119.843797 -41.76 
L 119.23385 -41.76 
L 118.623902 -41.76 
L 118.013955 -41.76 
L 117.404008 -41.76 
L 116.794061 -41.76 
L 116.184114 -41.76 
L 115.574167 -41.76 
L 114.964219 -41.76 
L 114.354272 -41.76 
L 113.744325 -41.76 
L 113.134378 -41.76 
L 112.524431 -41.76 
L 111.914484 -41.76 
L 111.304536 -41.76 
L 110.694589 -41.76 
L 110.084642 -41.76 
L 109.474695 -41.76 
L 108.864748 -41.76 
L 108.254801 -41.76 
L 107.644853 -41.76 
L 107.034906 -41.76 
L 106.424959 -41.76 
L 105.815012 -41.76 
L 105.205065 -41.76 
L 104.595118 -41.76 
L 103.98517 -41.76 
L 103.375223 -41.76 
L 102.765276 -41.76 
L 102.155329 -41.76 
L 101.545382 -41.76 
L 100.935435 -41.76 
L 100.325487 -41.76 
L 99.71554 -41.76 
L 99.105593 -41.76 
L 98.495646 -41.76 
L 97.885699 -41.76 
L 97.275752 -41.76 
L 96.665804 -41.76 
L 96.055857 -41.76 
L 95.44591 -41.76 
L 94.835963 -41.76 
L 94.226016 -41.76 
L 93.616069 -41.76 
L 93.006121 -41.76 
L 92.396174 -41.76 
L 91.786227 -41.76 
L 91.17628 -41.76 
L 90.566333 -41.76 
L 89.956385 -41.76 
L 89.346438 -41.76 
L 88.736491 -41.76 
L 88.126544 -41.76 
L 87.516597 -41.76 
L 86.90665 -41.76 
L 86.296702 -41.76 
L 85.686755 -41.76 
L 85.076808 -41.76 
L 84.466861 -41.76 
L 83.856914 -41.76 
L 83.246967 -41.76 
L 82.637019 -41.76 
L 82.027072 -41.76 
L 81.417125 -41.76 
L 80.807178 -41.76 
L 80.197231 -41.76 
L 79.587284 -41.76 
L 78.977336 -41.76 
L 78.367389 -41.76 
L 77.757442 -41.76 
L 77.147495 -41.76 
L 76.537548 -41.76 
L 75.927601 -41.76 
L 75.317653 -41.76 
L 74.707706 -41.76 
L 74.097759 -41.76 
L 73.487812 -41.76 
L 72.877865 -41.76 
L 72.267918 -41.76 
L 71.65797 -41.76 
L 71.048023 -41.76 
L 70.438076 -41.76 
L 69.828129 -41.76 
L 69.218182 -41.76 
z
" style="stroke: #2ca02c"/>
    </defs>
    <g clip-path="url(#pacdb819d09)">
     <use xlink:href="#maa6063275a" x="0" y="288" style="fill: #2ca02c; stroke: #2ca02c"/>
    </g>
   </g>
   <g id="matplotlib.axis_1">
    <g id="xtick_1">
     <g id="line2d_1">
      <defs>
       <path id="mb780229154" d="M 0 0 
L 0 3.5 
" style="stroke: #000000; stroke-width: 0.8"/>
      </defs>
      <g>
       <use xlink:href="#mb780229154" x="99.654545" y="256.32" style="stroke: #000000; stroke-width: 0.8"/>
      </g>
     </g>
     <g id="text_1">
      <!-- 2660 -->
      <g transform="translate(84.384545 272.438125)scale(0.12 -0.12)">
       <defs>
        <path id="DejaVuSans-32" d="M 1228 531 
L 3431 531 
L 3431 0 
L 469 0 
L 469 531 
Q 828 903 1448 1529 
Q 2069 2156 2228 2338 
Q 2531 2678 2651 2914 
Q 2772 3150 2772 3378 
Q 2772 3750 2511 3984 
Q 2250 4219 1831 4219 
Q 1534 4219 1204 4116 
Q 875 4013 500 3803 
L 500 4441 
Q 881 4594 1212 4672 
Q 1544 4750 1819 4750 
Q 2544 4750 2975 4387 
Q 3406 4025 3406 3419 
Q 3406 3131 3298 2873 
Q 3191 2616 2906 2266 
Q 2828 2175 2409 1742 
Q 1991 1309 1228 531 
z
" transform="scale(0.015625)"/>
        <path id="DejaVuSans-36" d="M 2113 2584 
Q 1688 2584 1439 2293 
Q 1191 2003 1191 1497 
Q 1191 994 1439 701 
Q 1688 409 2113 409 
Q 2538 409 2786 701 
Q 3034 994 3034 1497 
Q 3034 2003 2786 2293 
Q 2538 2584 2113 2584 
z
M 3366 4563 
L 3366 3988 
Q 3128 4100 2886 4159 
Q 2644 4219 2406 4219 
Q 1781 4219 1451 3797 
Q 1122 3375 1075 2522 
Q 1259 2794 1537 2939 
Q 1816 3084 2150 3084 
Q 2853 3084 3261 2657 
Q 3669 2231 3669 1497 
Q 3669 778 3244 343 
Q 2819 -91 2113 -91 
Q 1303 -91 875 529 
Q 447 1150 447 2328 
Q 447 3434 972 4092 
Q 1497 4750 2381 4750 
Q 2619 4750 2861 4703 
Q 3103 4656 3366 4563 
z
" transform="scale(0.015625)"/>
        <path id="DejaVuSans-30" d="M 2034 4250 
Q 1547 4250 1301 3770 
Q 1056 3291 1056 2328 
Q 1056 1369 1301 889 
Q 1547 409 2034 409 
Q 2525 409 2770 889 
Q 3016 1369 3016 2328 
Q 3016 3291 2770 3770 
Q 2525 4250 2034 4250 
z
M 2034 4750 
Q 2819 4750 3233 4129 
Q 3647 3509 3647 2328 
Q 3647 1150 3233 529 
Q 2819 -91 2034 -91 
Q 1250 -91 836 529 
Q 422 1150 422 2328 
Q 422 3509 836 4129 
Q 1250 4750 2034 4750 
z
" transform="scale(0.015625)"/>
       </defs>
       <use xlink:href="#DejaVuSans-32"/>
       <use xlink:href="#DejaVuSans-36" x="63.623047"/>
       <use xlink:href="#DejaVuSans-36" x="127.246094"/>
       <use xlink:href="#DejaVuSans-30" x="190.869141"/>
      </g>
     </g>
    </g>
    <g id="xtick_2">
     <g id="line2d_2">
      <g>
       <use xlink:href="#mb780229154" x="160.527273" y="256.32" style="stroke: #000000; stroke-width: 0.8"/>
      </g>
     </g>
     <g id="text_2">
      <!-- 2680 -->
      <g transform="translate(145.257273 272.438125)scale(0.12 -0.12)">
       <defs>
        <path id="DejaVuSans-38" d="M 2034 2216 
Q 1584 2216 1326 1975 
Q 1069 1734 1069 1313 
Q 1069 891 1326 650 
Q 1584 409 2034 409 
Q 2484 409 2743 651 
Q 3003 894 3003 1313 
Q 3003 1734 2745 1975 
Q 2488 2216 2034 2216 
z
M 1403 2484 
Q 997 2584 770 2862 
Q 544 3141 544 3541 
Q 544 4100 942 4425 
Q 1341 4750 2034 4750 
Q 2731 4750 3128 4425 
Q 3525 4100 3525 3541 
Q 3525 3141 3298 2862 
Q 3072 2584 2669 2484 
Q 3125 2378 3379 2068 
Q 3634 1759 3634 1313 
Q 3634 634 3220 271 
Q 2806 -91 2034 -91 
Q 1263 -91 848 271 
Q 434 634 434 1313 
Q 434 1759 690 2068 
Q 947 2378 1403 2484 
z
M 1172 3481 
Q 1172 3119 1398 2916 
Q 1625 2713 2034 2713 
Q 2441 2713 2670 2916 
Q 2900 3119 2900 3481 
Q 2900 3844 2670 4047 
Q 2441 4250 2034 4250 
Q 1625 4250 1398 4047 
Q 1172 3844 1172 3481 
z
" transform="scale(0.015625)"/>
       </defs>
       <use xlink:href="#DejaVuSans-32"/>
       <use xlink:href="#DejaVuSans-36" x="63.623047"/>
       <use xlink:href="#DejaVuSans-38" x="127.246094"/>
       <use xlink:href="#DejaVuSans-30" x="190.869141"/>
      </g>
     </g>
    </g>
    <g id="xtick_3">
     <g id="line2d_3">
      <g>
       <use xlink:href="#mb780229154" x="221.4" y="256.32" style="stroke: #000000; stroke-width: 0.8"/>
      </g>
     </g>
     <g id="text_3">
      <!-- 2700 -->
      <g transform="translate(206.13 272.438125)scale(0.12 -0.12)">
       <defs>
        <path id="DejaVuSans-37" d="M 525 4666 
L 3525 4666 
L 3525 4397 
L 1831 0 
L 1172 0 
L 2766 4134 
L 525 4134 
L 525 4666 
z
" transform="scale(0.015625)"/>
       </defs>
       <use xlink:href="#DejaVuSans-32"/>
       <use xlink:href="#DejaVuSans-37" x="63.623047"/>
       <use xlink:href="#DejaVuSans-30" x="127.246094"/>
       <use xlink:href="#DejaVuSans-30" x="190.869141"/>
      </g>
     </g>
    </g>
    <g id="xtick_4">
     <g id="line2d_4">
      <g>
       <use xlink:href="#mb780229154" x="282.272727" y="256.32" style="stroke: #000000; stroke-width: 0.8"/>
      </g>
     </g>
     <g id="text_4">
      <!-- 2720 -->
      <g transform="translate(267.002727 272.438125)scale(0.12 -0.12)">
       <use xlink:href="#DejaVuSans-32"/>
       <use xlink:href="#DejaVuSans-37" x="63.623047"/>
       <use xlink:href="#DejaVuSans-32" x="127.246094"/>
       <use xlink:href="#DejaVuSans-30" x="190.869141"/>
      </g>
     </g>
    </g>
    <g id="xtick_5">
     <g id="line2d_5">
      <g>
       <use xlink:href="#mb780229154" x="343.145455" y="256.32" style="stroke: #000000; stroke-width: 0.8"/>
      </g>
     </g>
     <g id="text_5">
      <!-- 2740 -->
      <g transform="translate(327.875455 272.438125)scale(0.12 -0.12)">
       <defs>
        <path id="DejaVuSans-34" d="M 2419 4116 
L 825 1625 
L 2419 1625 
L 2419 4116 
z
M 2253 4666 
L 3047 4666 
L 3047 1625 
L 3713 1625 
L 3713 1100 
L 3047 1100 
L 3047 0 
L 2419 0 
L 2419 1100 
L 313 1100 
L 313 1709 
L 2253 4666 
z
" transform="scale(0.015625)"/>
       </defs>
       <use xlink:href="#DejaVuSans-32"/>
       <use xlink:href="#DejaVuSans-37" x="63.623047"/>
       <use xlink:href="#DejaVuSans-34" x="127.246094"/>
       <use xlink:href="#DejaVuSans-30" x="190.869141"/>
      </g>
     </g>
    </g>
   </g>
   <g id="matplotlib.axis_2">
    <g id="ytick_1">
     <g id="line2d_6">
      <defs>
       <path id="m5ef607b8a7" d="M 0 0 
L -3.5 0 
" style="stroke: #000000; stroke-width: 0.8"/>
      </defs>
      <g>
       <use xlink:href="#m5ef607b8a7" x="54" y="246.24" style="stroke: #000000; stroke-width: 0.8"/>
      </g>
     </g>
     <g id="text_6">
      <!-- 0.0 -->
      <g transform="translate(27.91625 250.799062)scale(0.12 -0.12)">
       <defs>
        <path id="DejaVuSans-2e" d="M 684 794 
L 1344 794 
L 1344 0 
L 684 0 
L 684 794 
z
" transform="scale(0.015625)"/>
       </defs>
       <use xlink:href="#DejaVuSans-30"/>
       <use xlink:href="#DejaVuSans-2e" x="63.623047"/>
       <use xlink:href="#DejaVuSans-30" x="95.410156"/>
      </g>
     </g>
    </g>
    <g id="ytick_2">
     <g id="line2d_7">
      <g>
       <use xlink:href="#m5ef607b8a7" x="54" y="205.916033" style="stroke: #000000; stroke-width: 0.8"/>
      </g>
     </g>
     <g id="text_7">
      <!-- 0.2 -->
      <g transform="translate(27.91625 210.475095)scale(0.12 -0.12)">
       <use xlink:href="#DejaVuSans-30"/>
       <use xlink:href="#DejaVuSans-2e" x="63.623047"/>
       <use xlink:href="#DejaVuSans-32" x="95.410156"/>
      </g>
     </g>
    </g>
    <g id="ytick_3">
     <g id="line2d_8">
      <g>
       <use xlink:href="#m5ef607b8a7" x="54" y="165.592065" style="stroke: #000000; stroke-width: 0.8"/>
      </g>
     </g>
     <g id="text_8">
      <!-- 0.4 -->
      <g transform="translate(27.91625 170.151128)scale(0.12 -0.12)">
       <use xlink:href="#DejaVuSans-30"/>
       <use xlink:href="#DejaVuSans-2e" x="63.623047"/>
       <use xlink:href="#DejaVuSans-34" x="95.410156"/>
      </g>
     </g>
    </g>
    <g id="ytick_4">
     <g id="line2d_9">
      <g>
       <use xlink:href="#m5ef607b8a7" x="54" y="125.268098" style="stroke: #000000; stroke-width: 0.8"/>
      </g>
     </g>
     <g id="text_9">
      <!-- 0.6 -->
      <g transform="translate(27.91625 129.82716)scale(0.12 -0.12)">
       <use xlink:href="#DejaVuSans-30"/>
       <use xlink:href="#DejaVuSans-2e" x="63.623047"/>
       <use xlink:href="#DejaVuSans-36" x="95.410156"/>
      </g>
     </g>
    </g>
    <g id="ytick_5">
     <g id="line2d_10">
      <g>
       <use xlink:href="#m5ef607b8a7" x="54" y="84.94413" style="stroke: #000000; stroke-width: 0.8"/>
      </g>
     </g>
     <g id="text_10">
      <!-- 0.8 -->
      <g transform="translate(27.91625 89.503193)scale(0.12 -0.12)">
       <use xlink:href="#DejaVuSans-30"/>
       <use xlink:href="#DejaVuSans-2e" x="63.623047"/>
       <use xlink:href="#DejaVuSans-38" x="95.410156"/>
      </g>
     </g>
    </g>
    <g id="ytick_6">
     <g id="line2d_11">
      <g>
       <use xlink:href="#m5ef607b8a7" x="54" y="44.620163" style="stroke: #000000; stroke-width: 0.8"/>
      </g>
     </g>
     <g id="text_11">
      <!-- 1.0 -->
      <g transform="translate(27.91625 49.179225)scale(0.12 -0.12)">
       <defs>
        <path id="DejaVuSans-31" d="M 794 531 
L 1825 531 
L 1825 4091 
L 703 3866 
L 703 4441 
L 1819 4666 
L 2450 4666 
L 2450 531 
L 3481 531 
L 3481 0 
L 794 0 
L 794 531 
z
" transform="scale(0.015625)"/>
       </defs>
       <use xlink:href="#DejaVuSans-31"/>
       <use xlink:href="#DejaVuSans-2e" x="63.623047"/>
       <use xlink:href="#DejaVuSans-30" x="95.410156"/>
      </g>
     </g>
    </g>
   </g>
   <g id="line2d_12">
    <path d="M 69.218182 246.24 
L 125.943268 246.137142 
L 131.432793 245.923081 
L 135.092476 245.601806 
L 138.142212 245.13091 
L 140.582 244.548557 
L 143.021789 243.706062 
L 144.851631 242.848725 
L 146.681472 241.746656 
L 148.511314 240.345922 
L 150.341155 238.585766 
L 152.170997 236.399272 
L 154.000838 233.714578 
L 155.83068 230.456725 
L 157.660521 226.550191 
L 159.490363 221.92213 
L 161.320204 216.506284 
L 163.150046 210.247462 
L 164.979887 203.106431 
L 166.809729 195.06499 
L 168.63957 186.130915 
L 171.079359 172.901241 
L 173.519147 158.342761 
L 176.568883 138.747936 
L 183.888249 90.743113 
L 186.328038 76.545956 
L 188.157879 67.163674 
L 189.987721 59.150513 
L 191.207615 54.681647 
L 192.42751 50.97929 
L 193.647404 48.091544 
L 194.867298 46.056361 
L 195.477245 45.367356 
L 196.087193 44.900714 
L 196.69714 44.657991 
L 197.307087 44.64 
L 197.917034 44.846801 
L 198.526981 45.277702 
L 199.136928 45.931263 
L 199.746876 46.805307 
L 200.96677 49.202501 
L 202.186664 52.437612 
L 203.406559 56.468313 
L 204.626453 61.242538 
L 206.456294 69.663193 
L 208.286136 79.38425 
L 210.725925 93.915974 
L 213.77566 113.683349 
L 220.485079 157.73666 
L 222.924868 172.342787 
L 225.364657 185.629944 
L 227.194498 194.61084 
L 229.02434 202.700337 
L 230.854181 209.889139 
L 232.684023 216.194186 
L 234.513864 221.653717 
L 236.343706 226.322198 
L 238.173547 230.265416 
L 240.003389 233.555967 
L 241.83323 236.26932 
L 243.663072 238.480534 
L 245.492913 240.261689 
L 247.322755 241.68 
L 249.152596 242.796574 
L 250.982438 243.665717 
L 253.422226 244.520399 
L 255.862015 245.111641 
L 258.911751 245.590139 
L 262.571434 245.916942 
L 267.451011 246.120483 
L 275.990271 246.222336 
L 308.927418 246.239999 
L 373.581818 246.24 
L 373.581818 246.24 
" clip-path="url(#pacdb819d09)" style="fill: none; stroke: #1f77b4; stroke-width: 1.5; stroke-linecap: square"/>
   </g>
   <g id="line2d_13">
    <path d="M 69.218182 246.24 
L 174.739042 246.134981 
L 180.228566 245.916942 
L 183.888249 245.590139 
L 186.937985 245.111641 
L 189.377774 244.520399 
L 191.817562 243.665717 
L 193.647404 242.796574 
L 195.477245 241.68 
L 197.307087 240.261689 
L 199.136928 238.480534 
L 200.96677 236.26932 
L 202.796611 233.555967 
L 204.626453 230.265416 
L 206.456294 226.322198 
L 208.286136 221.653717 
L 210.115977 216.194186 
L 211.945819 209.889139 
L 213.77566 202.700337 
L 215.605502 194.61084 
L 217.435343 185.629944 
L 219.875132 172.342787 
L 222.314921 157.73666 
L 225.364657 138.103267 
L 232.684023 90.145238 
L 235.123811 76.015073 
L 236.953653 66.699603 
L 238.783494 58.76609 
L 240.003389 54.356552 
L 241.223283 50.717722 
L 242.443177 47.896926 
L 243.663072 45.931263 
L 244.273019 45.277702 
L 244.882966 44.846801 
L 245.492913 44.64 
L 246.10286 44.657991 
L 246.712807 44.900714 
L 247.322755 45.367356 
L 247.932702 46.056361 
L 248.542649 46.965431 
L 249.762543 49.43097 
L 250.982438 52.731421 
L 252.202332 56.823642 
L 253.422226 61.654833 
L 255.252068 70.151037 
L 257.081909 79.934313 
L 259.521698 94.526488 
L 262.571434 114.332409 
L 269.280853 158.342761 
L 271.720641 172.901241 
L 274.16043 186.130915 
L 275.990271 195.06499 
L 277.820113 203.106431 
L 279.649954 210.247462 
L 281.479796 216.506284 
L 283.309637 221.92213 
L 285.139479 226.550191 
L 286.96932 230.456725 
L 288.799162 233.714578 
L 290.629003 236.399272 
L 292.458845 238.585766 
L 294.288686 240.345922 
L 296.118528 241.746656 
L 297.948369 242.848725 
L 299.778211 243.706062 
L 302.218 244.548557 
L 304.657788 245.13091 
L 307.707524 245.601806 
L 311.367207 245.923081 
L 316.856732 246.137142 
L 326.615886 246.228869 
L 373.581818 246.24 
L 373.581818 246.24 
" clip-path="url(#pacdb819d09)" style="fill: none; stroke: #ff7f0e; stroke-width: 1.5; stroke-linecap: square"/>
   </g>
   <g id="line2d_14">
    <path d="M 69.218182 246.24 
L 177.17883 246.143199 
L 182.058408 245.911244 
L 185.108144 245.58347 
L 187.547932 245.143224 
L 189.987721 244.472019 
L 191.817562 243.769281 
L 193.647404 242.855861 
L 195.477245 241.696899 
L 197.307087 240.262277 
L 199.136928 238.530992 
L 200.96677 236.49593 
L 202.796611 234.16849 
L 205.2364 230.672306 
L 208.896083 224.916957 
L 211.945819 220.17507 
L 213.77566 217.614483 
L 215.605502 215.427327 
L 216.825396 214.236176 
L 218.045291 213.294318 
L 219.265185 212.626074 
L 220.485079 212.248989 
L 221.704974 212.173065 
L 222.924868 212.400328 
L 224.144762 212.924729 
L 225.364657 213.732418 
L 226.584551 214.802348 
L 227.804445 216.107188 
L 229.634287 218.432835 
L 232.074075 222.025221 
L 239.393441 233.332839 
L 241.83323 236.49593 
L 243.663072 238.530992 
L 245.492913 240.262277 
L 247.322755 241.696899 
L 249.152596 242.855861 
L 250.982438 243.769281 
L 252.812279 244.472019 
L 255.252068 245.143224 
L 257.691856 245.58347 
L 260.741592 245.911244 
L 265.011222 246.126331 
L 272.330588 246.225727 
L 303.437894 246.24 
L 373.581818 246.24 
L 373.581818 246.24 
" clip-path="url(#pacdb819d09)" style="fill: none; stroke: #2ca02c; stroke-width: 1.5; stroke-linecap: square"/>
   </g>
   <g id="patch_3">
    <path d="M 54 256.32 
L 54 34.56 
" style="fill: none; stroke: #000000; stroke-width: 0.8; stroke-linejoin: miter; stroke-linecap: square"/>
   </g>
   <g id="patch_4">
    <path d="M 388.8 256.32 
L 388.8 34.56 
" style="fill: none; stroke: #000000; stroke-width: 0.8; stroke-linejoin: miter; stroke-linecap: square"/>
   </g>
   <g id="patch_5">
    <path d="M 54 256.32 
L 388.8 256.32 
" style="fill: none; stroke: #000000; stroke-width: 0.8; stroke-linejoin: miter; stroke-linecap: square"/>
   </g>
   <g id="patch_6">
    <path d="M 54 34.56 
L 388.8 34.56 
" style="fill: none; stroke: #000000; stroke-width: 0.8; stroke-linejoin: miter; stroke-linecap: square"/>
   </g>
   <g id="legend_1">
    <g id="patch_7">
     <path d="M 237.196875 168.957188 
L 381.8 168.957188 
Q 383.8 168.957188 383.8 166.957188 
L 383.8 123.922812 
Q 383.8 121.922812 381.8 121.922812 
L 237.196875 121.922812 
Q 235.196875 121.922812 235.196875 123.922812 
L 235.196875 166.957188 
Q 235.196875 168.957188 237.196875 168.957188 
z
" style="fill: #ffffff; opacity: 0.8; stroke: #cccccc; stroke-linejoin: miter"/>
    </g>
    <g id="line2d_15">
     <path d="M 239.196875 130.02125 
L 249.196875 130.02125 
L 259.196875 130.02125 
" style="fill: none; stroke: #1f77b4; stroke-width: 1.5; stroke-linecap: square"/>
    </g>
    <g id="text_12">
     <!-- NV1 spectral response -->
     <g transform="translate(267.196875 133.52125)scale(0.1 -0.1)">
      <defs>
       <path id="DejaVuSans-4e" d="M 628 4666 
L 1478 4666 
L 3547 763 
L 3547 4666 
L 4159 4666 
L 4159 0 
L 3309 0 
L 1241 3903 
L 1241 0 
L 628 0 
L 628 4666 
z
" transform="scale(0.015625)"/>
       <path id="DejaVuSans-56" d="M 1831 0 
L 50 4666 
L 709 4666 
L 2188 738 
L 3669 4666 
L 4325 4666 
L 2547 0 
L 1831 0 
z
" transform="scale(0.015625)"/>
       <path id="DejaVuSans-20" transform="scale(0.015625)"/>
       <path id="DejaVuSans-73" d="M 2834 3397 
L 2834 2853 
Q 2591 2978 2328 3040 
Q 2066 3103 1784 3103 
Q 1356 3103 1142 2972 
Q 928 2841 928 2578 
Q 928 2378 1081 2264 
Q 1234 2150 1697 2047 
L 1894 2003 
Q 2506 1872 2764 1633 
Q 3022 1394 3022 966 
Q 3022 478 2636 193 
Q 2250 -91 1575 -91 
Q 1294 -91 989 -36 
Q 684 19 347 128 
L 347 722 
Q 666 556 975 473 
Q 1284 391 1588 391 
Q 1994 391 2212 530 
Q 2431 669 2431 922 
Q 2431 1156 2273 1281 
Q 2116 1406 1581 1522 
L 1381 1569 
Q 847 1681 609 1914 
Q 372 2147 372 2553 
Q 372 3047 722 3315 
Q 1072 3584 1716 3584 
Q 2034 3584 2315 3537 
Q 2597 3491 2834 3397 
z
" transform="scale(0.015625)"/>
       <path id="DejaVuSans-70" d="M 1159 525 
L 1159 -1331 
L 581 -1331 
L 581 3500 
L 1159 3500 
L 1159 2969 
Q 1341 3281 1617 3432 
Q 1894 3584 2278 3584 
Q 2916 3584 3314 3078 
Q 3713 2572 3713 1747 
Q 3713 922 3314 415 
Q 2916 -91 2278 -91 
Q 1894 -91 1617 61 
Q 1341 213 1159 525 
z
M 3116 1747 
Q 3116 2381 2855 2742 
Q 2594 3103 2138 3103 
Q 1681 3103 1420 2742 
Q 1159 2381 1159 1747 
Q 1159 1113 1420 752 
Q 1681 391 2138 391 
Q 2594 391 2855 752 
Q 3116 1113 3116 1747 
z
" transform="scale(0.015625)"/>
       <path id="DejaVuSans-65" d="M 3597 1894 
L 3597 1613 
L 953 1613 
Q 991 1019 1311 708 
Q 1631 397 2203 397 
Q 2534 397 2845 478 
Q 3156 559 3463 722 
L 3463 178 
Q 3153 47 2828 -22 
Q 2503 -91 2169 -91 
Q 1331 -91 842 396 
Q 353 884 353 1716 
Q 353 2575 817 3079 
Q 1281 3584 2069 3584 
Q 2775 3584 3186 3129 
Q 3597 2675 3597 1894 
z
M 3022 2063 
Q 3016 2534 2758 2815 
Q 2500 3097 2075 3097 
Q 1594 3097 1305 2825 
Q 1016 2553 972 2059 
L 3022 2063 
z
" transform="scale(0.015625)"/>
       <path id="DejaVuSans-63" d="M 3122 3366 
L 3122 2828 
Q 2878 2963 2633 3030 
Q 2388 3097 2138 3097 
Q 1578 3097 1268 2742 
Q 959 2388 959 1747 
Q 959 1106 1268 751 
Q 1578 397 2138 397 
Q 2388 397 2633 464 
Q 2878 531 3122 666 
L 3122 134 
Q 2881 22 2623 -34 
Q 2366 -91 2075 -91 
Q 1284 -91 818 406 
Q 353 903 353 1747 
Q 353 2603 823 3093 
Q 1294 3584 2113 3584 
Q 2378 3584 2631 3529 
Q 2884 3475 3122 3366 
z
" transform="scale(0.015625)"/>
       <path id="DejaVuSans-74" d="M 1172 4494 
L 1172 3500 
L 2356 3500 
L 2356 3053 
L 1172 3053 
L 1172 1153 
Q 1172 725 1289 603 
Q 1406 481 1766 481 
L 2356 481 
L 2356 0 
L 1766 0 
Q 1100 0 847 248 
Q 594 497 594 1153 
L 594 3053 
L 172 3053 
L 172 3500 
L 594 3500 
L 594 4494 
L 1172 4494 
z
" transform="scale(0.015625)"/>
       <path id="DejaVuSans-72" d="M 2631 2963 
Q 2534 3019 2420 3045 
Q 2306 3072 2169 3072 
Q 1681 3072 1420 2755 
Q 1159 2438 1159 1844 
L 1159 0 
L 581 0 
L 581 3500 
L 1159 3500 
L 1159 2956 
Q 1341 3275 1631 3429 
Q 1922 3584 2338 3584 
Q 2397 3584 2469 3576 
Q 2541 3569 2628 3553 
L 2631 2963 
z
" transform="scale(0.015625)"/>
       <path id="DejaVuSans-61" d="M 2194 1759 
Q 1497 1759 1228 1600 
Q 959 1441 959 1056 
Q 959 750 1161 570 
Q 1363 391 1709 391 
Q 2188 391 2477 730 
Q 2766 1069 2766 1631 
L 2766 1759 
L 2194 1759 
z
M 3341 1997 
L 3341 0 
L 2766 0 
L 2766 531 
Q 2569 213 2275 61 
Q 1981 -91 1556 -91 
Q 1019 -91 701 211 
Q 384 513 384 1019 
Q 384 1609 779 1909 
Q 1175 2209 1959 2209 
L 2766 2209 
L 2766 2266 
Q 2766 2663 2505 2880 
Q 2244 3097 1772 3097 
Q 1472 3097 1187 3025 
Q 903 2953 641 2809 
L 641 3341 
Q 956 3463 1253 3523 
Q 1550 3584 1831 3584 
Q 2591 3584 2966 3190 
Q 3341 2797 3341 1997 
z
" transform="scale(0.015625)"/>
       <path id="DejaVuSans-6c" d="M 603 4863 
L 1178 4863 
L 1178 0 
L 603 0 
L 603 4863 
z
" transform="scale(0.015625)"/>
       <path id="DejaVuSans-6f" d="M 1959 3097 
Q 1497 3097 1228 2736 
Q 959 2375 959 1747 
Q 959 1119 1226 758 
Q 1494 397 1959 397 
Q 2419 397 2687 759 
Q 2956 1122 2956 1747 
Q 2956 2369 2687 2733 
Q 2419 3097 1959 3097 
z
M 1959 3584 
Q 2709 3584 3137 3096 
Q 3566 2609 3566 1747 
Q 3566 888 3137 398 
Q 2709 -91 1959 -91 
Q 1206 -91 779 398 
Q 353 888 353 1747 
Q 353 2609 779 3096 
Q 1206 3584 1959 3584 
z
" transform="scale(0.015625)"/>
       <path id="DejaVuSans-6e" d="M 3513 2113 
L 3513 0 
L 2938 0 
L 2938 2094 
Q 2938 2591 2744 2837 
Q 2550 3084 2163 3084 
Q 1697 3084 1428 2787 
Q 1159 2491 1159 1978 
L 1159 0 
L 581 0 
L 581 3500 
L 1159 3500 
L 1159 2956 
Q 1366 3272 1645 3428 
Q 1925 3584 2291 3584 
Q 2894 3584 3203 3211 
Q 3513 2838 3513 2113 
z
" transform="scale(0.015625)"/>
      </defs>
      <use xlink:href="#DejaVuSans-4e"/>
      <use xlink:href="#DejaVuSans-56" x="74.804688"/>
      <use xlink:href="#DejaVuSans-31" x="143.212891"/>
      <use xlink:href="#DejaVuSans-20" x="206.835938"/>
      <use xlink:href="#DejaVuSans-73" x="238.623047"/>
      <use xlink:href="#DejaVuSans-70" x="290.722656"/>
      <use xlink:href="#DejaVuSans-65" x="354.199219"/>
      <use xlink:href="#DejaVuSans-63" x="415.722656"/>
      <use xlink:href="#DejaVuSans-74" x="470.703125"/>
      <use xlink:href="#DejaVuSans-72" x="509.912109"/>
      <use xlink:href="#DejaVuSans-61" x="551.025391"/>
      <use xlink:href="#DejaVuSans-6c" x="612.304688"/>
      <use xlink:href="#DejaVuSans-20" x="640.087891"/>
      <use xlink:href="#DejaVuSans-72" x="671.875"/>
      <use xlink:href="#DejaVuSans-65" x="710.738281"/>
      <use xlink:href="#DejaVuSans-73" x="772.261719"/>
      <use xlink:href="#DejaVuSans-70" x="824.361328"/>
      <use xlink:href="#DejaVuSans-6f" x="887.837891"/>
      <use xlink:href="#DejaVuSans-6e" x="949.019531"/>
      <use xlink:href="#DejaVuSans-73" x="1012.398438"/>
      <use xlink:href="#DejaVuSans-65" x="1064.498047"/>
     </g>
    </g>
    <g id="line2d_16">
     <path d="M 239.196875 144.699375 
L 249.196875 144.699375 
L 259.196875 144.699375 
" style="fill: none; stroke: #ff7f0e; stroke-width: 1.5; stroke-linecap: square"/>
    </g>
    <g id="text_13">
     <!-- NV2 spectral response -->
     <g transform="translate(267.196875 148.199375)scale(0.1 -0.1)">
      <use xlink:href="#DejaVuSans-4e"/>
      <use xlink:href="#DejaVuSans-56" x="74.804688"/>
      <use xlink:href="#DejaVuSans-32" x="143.212891"/>
      <use xlink:href="#DejaVuSans-20" x="206.835938"/>
      <use xlink:href="#DejaVuSans-73" x="238.623047"/>
      <use xlink:href="#DejaVuSans-70" x="290.722656"/>
      <use xlink:href="#DejaVuSans-65" x="354.199219"/>
      <use xlink:href="#DejaVuSans-63" x="415.722656"/>
      <use xlink:href="#DejaVuSans-74" x="470.703125"/>
      <use xlink:href="#DejaVuSans-72" x="509.912109"/>
      <use xlink:href="#DejaVuSans-61" x="551.025391"/>
      <use xlink:href="#DejaVuSans-6c" x="612.304688"/>
      <use xlink:href="#DejaVuSans-20" x="640.087891"/>
      <use xlink:href="#DejaVuSans-72" x="671.875"/>
      <use xlink:href="#DejaVuSans-65" x="710.738281"/>
      <use xlink:href="#DejaVuSans-73" x="772.261719"/>
      <use xlink:href="#DejaVuSans-70" x="824.361328"/>
      <use xlink:href="#DejaVuSans-6f" x="887.837891"/>
      <use xlink:href="#DejaVuSans-6e" x="949.019531"/>
      <use xlink:href="#DejaVuSans-73" x="1012.398438"/>
      <use xlink:href="#DejaVuSans-65" x="1064.498047"/>
     </g>
    </g>
    <g id="line2d_17">
     <path d="M 239.196875 159.3775 
L 249.196875 159.3775 
L 259.196875 159.3775 
" style="fill: none; stroke: #2ca02c; stroke-width: 1.5; stroke-linecap: square"/>
    </g>
    <g id="text_14">
     <!-- spectral overlap -->
     <g transform="translate(267.196875 162.8775)scale(0.1 -0.1)">
      <defs>
       <path id="DejaVuSans-76" d="M 191 3500 
L 800 3500 
L 1894 563 
L 2988 3500 
L 3597 3500 
L 2284 0 
L 1503 0 
L 191 3500 
z
" transform="scale(0.015625)"/>
      </defs>
      <use xlink:href="#DejaVuSans-73"/>
      <use xlink:href="#DejaVuSans-70" x="52.099609"/>
      <use xlink:href="#DejaVuSans-65" x="115.576172"/>
      <use xlink:href="#DejaVuSans-63" x="177.099609"/>
      <use xlink:href="#DejaVuSans-74" x="232.080078"/>
      <use xlink:href="#DejaVuSans-72" x="271.289062"/>
      <use xlink:href="#DejaVuSans-61" x="312.402344"/>
      <use xlink:href="#DejaVuSans-6c" x="373.681641"/>
      <use xlink:href="#DejaVuSans-20" x="401.464844"/>
      <use xlink:href="#DejaVuSans-6f" x="433.251953"/>
      <use xlink:href="#DejaVuSans-76" x="494.433594"/>
      <use xlink:href="#DejaVuSans-65" x="553.613281"/>
      <use xlink:href="#DejaVuSans-72" x="615.136719"/>
      <use xlink:href="#DejaVuSans-6c" x="656.25"/>
      <use xlink:href="#DejaVuSans-61" x="684.033203"/>
      <use xlink:href="#DejaVuSans-70" x="745.3125"/>
     </g>
    </g>
   </g>
  </g>
 </g>
 <defs>
  <clipPath id="pacdb819d09">
   <rect x="54" y="34.56" width="334.8" height="221.76"/>
  </clipPath>
 </defs>
</svg>
