<?xml version="1.0" encoding="utf-8" standalone="no"?>
<!DOCTYPE svg PUBLIC "-//W3C//DTD SVG 1.1//EN"
  "http://www.w3.org/Graphics/SVG/1.1/DTD/svg11.dtd">
<svg xmlns:xlink="http://www.w3.org/1999/xlink" width="432pt" height="288pt" viewBox="0 0 432 288" xmlns="http://www.w3.org/2000/svg" version="1.1">
 <metadata>
  <rdf:RDF xmlns:dc="http://purl.org/dc/elements/1.1/" xmlns:cc="http://creativecommons.org/ns#" xmlns:rdf="http://www.w3.org/1999/02/22-rdf-syntax-ns#">
   <cc:Work>
    <dc:type rdf:resource="http://purl.org/dc/dcmitype/StillImage"/>
    <dc:date>2022-04-29T16:22:27.593070</dc:date>
    <dc:format>image/svg+xml</dc:format>
    <dc:creator>
     <cc:Agent>
      <dc:title>Matplotlib v3.5.1, https://matplotlib.org/</dc:title>
     </cc:Agent>
    </dc:creator>
   </cc:Work>
  </rdf:RDF>
 </metadata>
 <defs>
  <style type="text/css">*{stroke-linejoin: round; stroke-linecap: butt}</style>
 </defs>
 <g id="figure_1">
  <g id="patch_1">
   <path d="M 0 288 
L 432 288 
L 432 0 
L 0 0 
z
" style="fill: #ffffff"/>
  </g>
  <g id="axes_1">
   <g id="patch_2">
    <path d="M 54 256.32 
L 388.8 256.32 
L 388.8 34.56 
L 54 34.56 
z
" style="fill: #ffffff"/>
   </g>
   <g id="matplotlib.axis_1">
    <g id="xtick_1">
     <g id="line2d_1">
      <defs>
       <path id="m12673db2bd" d="M 0 0 
L 0 3.5 
" style="stroke: #000000; stroke-width: 0.8"/>
      </defs>
      <g>
       <use xlink:href="#m12673db2bd" x="64.957091" y="256.32" style="stroke: #000000; stroke-width: 0.8"/>
      </g>
     </g>
     <g id="text_1">
      <!-- −150 -->
      <g transform="translate(48.476778 272.438125)scale(0.12 -0.12)">
       <defs>
        <path id="DejaVuSans-2212" d="M 678 2272 
L 4684 2272 
L 4684 1741 
L 678 1741 
L 678 2272 
z
" transform="scale(0.015625)"/>
        <path id="DejaVuSans-31" d="M 794 531 
L 1825 531 
L 1825 4091 
L 703 3866 
L 703 4441 
L 1819 4666 
L 2450 4666 
L 2450 531 
L 3481 531 
L 3481 0 
L 794 0 
L 794 531 
z
" transform="scale(0.015625)"/>
        <path id="DejaVuSans-35" d="M 691 4666 
L 3169 4666 
L 3169 4134 
L 1269 4134 
L 1269 2991 
Q 1406 3038 1543 3061 
Q 1681 3084 1819 3084 
Q 2600 3084 3056 2656 
Q 3513 2228 3513 1497 
Q 3513 744 3044 326 
Q 2575 -91 1722 -91 
Q 1428 -91 1123 -41 
Q 819 9 494 109 
L 494 744 
Q 775 591 1075 516 
Q 1375 441 1709 441 
Q 2250 441 2565 725 
Q 2881 1009 2881 1497 
Q 2881 1984 2565 2268 
Q 2250 2553 1709 2553 
Q 1456 2553 1204 2497 
Q 953 2441 691 2322 
L 691 4666 
z
" transform="scale(0.015625)"/>
        <path id="DejaVuSans-30" d="M 2034 4250 
Q 1547 4250 1301 3770 
Q 1056 3291 1056 2328 
Q 1056 1369 1301 889 
Q 1547 409 2034 409 
Q 2525 409 2770 889 
Q 3016 1369 3016 2328 
Q 3016 3291 2770 3770 
Q 2525 4250 2034 4250 
z
M 2034 4750 
Q 2819 4750 3233 4129 
Q 3647 3509 3647 2328 
Q 3647 1150 3233 529 
Q 2819 -91 2034 -91 
Q 1250 -91 836 529 
Q 422 1150 422 2328 
Q 422 3509 836 4129 
Q 1250 4750 2034 4750 
z
" transform="scale(0.015625)"/>
       </defs>
       <use xlink:href="#DejaVuSans-2212"/>
       <use xlink:href="#DejaVuSans-31" x="83.789062"/>
       <use xlink:href="#DejaVuSans-35" x="147.412109"/>
       <use xlink:href="#DejaVuSans-30" x="211.035156"/>
      </g>
     </g>
    </g>
    <g id="xtick_2">
     <g id="line2d_2">
      <g>
       <use xlink:href="#m12673db2bd" x="115.684364" y="256.32" style="stroke: #000000; stroke-width: 0.8"/>
      </g>
     </g>
     <g id="text_2">
      <!-- −100 -->
      <g transform="translate(99.204051 272.438125)scale(0.12 -0.12)">
       <use xlink:href="#DejaVuSans-2212"/>
       <use xlink:href="#DejaVuSans-31" x="83.789062"/>
       <use xlink:href="#DejaVuSans-30" x="147.412109"/>
       <use xlink:href="#DejaVuSans-30" x="211.035156"/>
      </g>
     </g>
    </g>
    <g id="xtick_3">
     <g id="line2d_3">
      <g>
       <use xlink:href="#m12673db2bd" x="166.411636" y="256.32" style="stroke: #000000; stroke-width: 0.8"/>
      </g>
     </g>
     <g id="text_3">
      <!-- −50 -->
      <g transform="translate(153.748824 272.438125)scale(0.12 -0.12)">
       <use xlink:href="#DejaVuSans-2212"/>
       <use xlink:href="#DejaVuSans-35" x="83.789062"/>
       <use xlink:href="#DejaVuSans-30" x="147.412109"/>
      </g>
     </g>
    </g>
    <g id="xtick_4">
     <g id="line2d_4">
      <g>
       <use xlink:href="#m12673db2bd" x="217.138909" y="256.32" style="stroke: #000000; stroke-width: 0.8"/>
      </g>
     </g>
     <g id="text_4">
      <!-- 0 -->
      <g transform="translate(213.321409 272.438125)scale(0.12 -0.12)">
       <use xlink:href="#DejaVuSans-30"/>
      </g>
     </g>
    </g>
    <g id="xtick_5">
     <g id="line2d_5">
      <g>
       <use xlink:href="#m12673db2bd" x="267.866182" y="256.32" style="stroke: #000000; stroke-width: 0.8"/>
      </g>
     </g>
     <g id="text_5">
      <!-- 50 -->
      <g transform="translate(260.231182 272.438125)scale(0.12 -0.12)">
       <use xlink:href="#DejaVuSans-35"/>
       <use xlink:href="#DejaVuSans-30" x="63.623047"/>
      </g>
     </g>
    </g>
    <g id="xtick_6">
     <g id="line2d_6">
      <g>
       <use xlink:href="#m12673db2bd" x="318.593455" y="256.32" style="stroke: #000000; stroke-width: 0.8"/>
      </g>
     </g>
     <g id="text_6">
      <!-- 100 -->
      <g transform="translate(307.140955 272.438125)scale(0.12 -0.12)">
       <use xlink:href="#DejaVuSans-31"/>
       <use xlink:href="#DejaVuSans-30" x="63.623047"/>
       <use xlink:href="#DejaVuSans-30" x="127.246094"/>
      </g>
     </g>
    </g>
    <g id="xtick_7">
     <g id="line2d_7">
      <g>
       <use xlink:href="#m12673db2bd" x="369.320727" y="256.32" style="stroke: #000000; stroke-width: 0.8"/>
      </g>
     </g>
     <g id="text_7">
      <!-- 150 -->
      <g transform="translate(357.868227 272.438125)scale(0.12 -0.12)">
       <use xlink:href="#DejaVuSans-31"/>
       <use xlink:href="#DejaVuSans-35" x="63.623047"/>
       <use xlink:href="#DejaVuSans-30" x="127.246094"/>
      </g>
     </g>
    </g>
   </g>
   <g id="matplotlib.axis_2">
    <g id="ytick_1">
     <g id="line2d_8">
      <defs>
       <path id="m2e73b265f8" d="M 0 0 
L -3.5 0 
" style="stroke: #000000; stroke-width: 0.8"/>
      </defs>
      <g>
       <use xlink:href="#m2e73b265f8" x="54" y="239.51048" style="stroke: #000000; stroke-width: 0.8"/>
      </g>
     </g>
     <g id="text_8">
      <!-- −0.75 -->
      <g transform="translate(10.225625 244.069543)scale(0.12 -0.12)">
       <defs>
        <path id="DejaVuSans-2e" d="M 684 794 
L 1344 794 
L 1344 0 
L 684 0 
L 684 794 
z
" transform="scale(0.015625)"/>
        <path id="DejaVuSans-37" d="M 525 4666 
L 3525 4666 
L 3525 4397 
L 1831 0 
L 1172 0 
L 2766 4134 
L 525 4134 
L 525 4666 
z
" transform="scale(0.015625)"/>
       </defs>
       <use xlink:href="#DejaVuSans-2212"/>
       <use xlink:href="#DejaVuSans-30" x="83.789062"/>
       <use xlink:href="#DejaVuSans-2e" x="147.412109"/>
       <use xlink:href="#DejaVuSans-37" x="179.199219"/>
       <use xlink:href="#DejaVuSans-35" x="242.822266"/>
      </g>
     </g>
    </g>
    <g id="ytick_2">
     <g id="line2d_9">
      <g>
       <use xlink:href="#m2e73b265f8" x="54" y="209.428689" style="stroke: #000000; stroke-width: 0.8"/>
      </g>
     </g>
     <g id="text_9">
      <!-- −0.50 -->
      <g transform="translate(10.225625 213.987752)scale(0.12 -0.12)">
       <use xlink:href="#DejaVuSans-2212"/>
       <use xlink:href="#DejaVuSans-30" x="83.789062"/>
       <use xlink:href="#DejaVuSans-2e" x="147.412109"/>
       <use xlink:href="#DejaVuSans-35" x="179.199219"/>
       <use xlink:href="#DejaVuSans-30" x="242.822266"/>
      </g>
     </g>
    </g>
    <g id="ytick_3">
     <g id="line2d_10">
      <g>
       <use xlink:href="#m2e73b265f8" x="54" y="179.346899" style="stroke: #000000; stroke-width: 0.8"/>
      </g>
     </g>
     <g id="text_10">
      <!-- −0.25 -->
      <g transform="translate(10.225625 183.905961)scale(0.12 -0.12)">
       <defs>
        <path id="DejaVuSans-32" d="M 1228 531 
L 3431 531 
L 3431 0 
L 469 0 
L 469 531 
Q 828 903 1448 1529 
Q 2069 2156 2228 2338 
Q 2531 2678 2651 2914 
Q 2772 3150 2772 3378 
Q 2772 3750 2511 3984 
Q 2250 4219 1831 4219 
Q 1534 4219 1204 4116 
Q 875 4013 500 3803 
L 500 4441 
Q 881 4594 1212 4672 
Q 1544 4750 1819 4750 
Q 2544 4750 2975 4387 
Q 3406 4025 3406 3419 
Q 3406 3131 3298 2873 
Q 3191 2616 2906 2266 
Q 2828 2175 2409 1742 
Q 1991 1309 1228 531 
z
" transform="scale(0.015625)"/>
       </defs>
       <use xlink:href="#DejaVuSans-2212"/>
       <use xlink:href="#DejaVuSans-30" x="83.789062"/>
       <use xlink:href="#DejaVuSans-2e" x="147.412109"/>
       <use xlink:href="#DejaVuSans-32" x="179.199219"/>
       <use xlink:href="#DejaVuSans-35" x="242.822266"/>
      </g>
     </g>
    </g>
    <g id="ytick_4">
     <g id="line2d_11">
      <g>
       <use xlink:href="#m2e73b265f8" x="54" y="149.265108" style="stroke: #000000; stroke-width: 0.8"/>
      </g>
     </g>
     <g id="text_11">
      <!-- 0.00 -->
      <g transform="translate(20.28125 153.82417)scale(0.12 -0.12)">
       <use xlink:href="#DejaVuSans-30"/>
       <use xlink:href="#DejaVuSans-2e" x="63.623047"/>
       <use xlink:href="#DejaVuSans-30" x="95.410156"/>
       <use xlink:href="#DejaVuSans-30" x="159.033203"/>
      </g>
     </g>
    </g>
    <g id="ytick_5">
     <g id="line2d_12">
      <g>
       <use xlink:href="#m2e73b265f8" x="54" y="119.183317" style="stroke: #000000; stroke-width: 0.8"/>
      </g>
     </g>
     <g id="text_12">
      <!-- 0.25 -->
      <g transform="translate(20.28125 123.74238)scale(0.12 -0.12)">
       <use xlink:href="#DejaVuSans-30"/>
       <use xlink:href="#DejaVuSans-2e" x="63.623047"/>
       <use xlink:href="#DejaVuSans-32" x="95.410156"/>
       <use xlink:href="#DejaVuSans-35" x="159.033203"/>
      </g>
     </g>
    </g>
    <g id="ytick_6">
     <g id="line2d_13">
      <g>
       <use xlink:href="#m2e73b265f8" x="54" y="89.101526" style="stroke: #000000; stroke-width: 0.8"/>
      </g>
     </g>
     <g id="text_13">
      <!-- 0.50 -->
      <g transform="translate(20.28125 93.660589)scale(0.12 -0.12)">
       <use xlink:href="#DejaVuSans-30"/>
       <use xlink:href="#DejaVuSans-2e" x="63.623047"/>
       <use xlink:href="#DejaVuSans-35" x="95.410156"/>
       <use xlink:href="#DejaVuSans-30" x="159.033203"/>
      </g>
     </g>
    </g>
    <g id="ytick_7">
     <g id="line2d_14">
      <g>
       <use xlink:href="#m2e73b265f8" x="54" y="59.019735" style="stroke: #000000; stroke-width: 0.8"/>
      </g>
     </g>
     <g id="text_14">
      <!-- 0.75 -->
      <g transform="translate(20.28125 63.578798)scale(0.12 -0.12)">
       <use xlink:href="#DejaVuSans-30"/>
       <use xlink:href="#DejaVuSans-2e" x="63.623047"/>
       <use xlink:href="#DejaVuSans-37" x="95.410156"/>
       <use xlink:href="#DejaVuSans-35" x="159.033203"/>
      </g>
     </g>
    </g>
   </g>
   <g id="line2d_15">
    <path d="M 373.581818 112.417273 
L 372.364364 114.674588 
L 371.755636 115.354782 
L 371.146909 115.340056 
L 370.538182 115.022035 
L 369.929455 115.049406 
L 369.320727 114.679588 
L 368.103273 113.714603 
L 367.494545 113.630768 
L 364.450909 111.511065 
L 363.842182 110.550047 
L 363.233455 109.97207 
L 362.624727 109.789084 
L 362.016 110.042713 
L 361.407273 110.432093 
L 360.189818 110.041299 
L 359.581091 110.165719 
L 358.972364 110.155716 
L 358.363636 110.364076 
L 357.754909 110.807428 
L 357.146182 110.985006 
L 356.537455 111.041909 
L 355.928727 110.825016 
L 355.32 110.427156 
L 354.102545 110.781931 
L 353.493818 110.644641 
L 352.276364 111.097163 
L 350.450182 111.167893 
L 349.841455 110.882088 
L 349.232727 110.892473 
L 348.624 111.067213 
L 348.015273 110.780252 
L 346.797818 109.559658 
L 346.189091 108.717134 
L 345.580364 108.251576 
L 344.971636 108.339918 
L 343.754182 108.873083 
L 342.536727 108.780213 
L 341.928 108.552394 
L 341.319273 108.644198 
L 340.710545 108.515488 
L 340.101818 108.580692 
L 339.493091 108.804062 
L 338.884364 108.79287 
L 337.666909 110.204746 
L 336.449455 111.591897 
L 335.232 111.11476 
L 334.623273 111.320891 
L 334.014545 111.72781 
L 333.405818 111.736507 
L 332.797091 111.489722 
L 331.579636 110.767563 
L 330.362182 109.422121 
L 329.144727 107.634097 
L 328.536 107.218598 
L 326.709818 104.758922 
L 326.101091 104.231314 
L 325.492364 103.960828 
L 324.883636 104.462102 
L 324.274909 105.404506 
L 323.057455 106.72696 
L 321.84 107.516308 
L 321.231273 107.417262 
L 320.622545 107.724587 
L 319.405091 109.45677 
L 318.187636 110.402763 
L 317.578909 110.343465 
L 316.970182 109.98158 
L 315.752727 109.65312 
L 315.144 109.315141 
L 313.926545 108.179315 
L 313.317818 107.976039 
L 312.100364 108.967162 
L 310.882909 108.760661 
L 310.274182 108.841271 
L 309.056727 108.529517 
L 307.839273 107.663157 
L 307.230545 107.591762 
L 306.621818 107.0573 
L 306.013091 106.853831 
L 304.186909 107.624636 
L 303.578182 107.69307 
L 302.969455 108.274594 
L 302.360727 109.351096 
L 301.752 110.142716 
L 301.143273 110.646849 
L 300.534545 110.671405 
L 299.925818 110.50637 
L 299.317091 109.976809 
L 298.099636 107.919803 
L 297.490909 107.286479 
L 296.273455 107.450735 
L 295.056 108.143239 
L 293.838545 109.26764 
L 293.229818 109.319182 
L 292.621091 109.662462 
L 291.403636 111.052487 
L 290.794909 111.1268 
L 290.186182 111.334447 
L 289.577455 111.842488 
L 288.968727 112.022698 
L 287.142545 112.000065 
L 286.533818 111.618613 
L 285.316364 111.330133 
L 284.098909 111.070077 
L 283.490182 111.215686 
L 282.881455 111.581443 
L 282.272727 111.674168 
L 281.664 112.243682 
L 281.055273 113.119565 
L 280.446545 113.683444 
L 278.011636 114.776288 
L 277.402909 115.403168 
L 276.794182 115.679951 
L 275.576727 116.964681 
L 274.968 117.777782 
L 274.359273 118.086714 
L 273.750545 118.068802 
L 272.533091 119.82267 
L 271.924364 119.835447 
L 271.315636 119.54712 
L 270.706909 119.496502 
L 270.098182 119.881038 
L 269.489455 120.648861 
L 268.880727 121.184286 
L 267.054545 123.73448 
L 266.445818 124.257828 
L 265.228364 126.33034 
L 262.793455 131.354969 
L 262.184727 132.081528 
L 261.576 132.500367 
L 260.967273 133.071382 
L 260.358545 133.944416 
L 259.749818 134.442722 
L 259.141091 134.713368 
L 258.532364 135.803577 
L 257.314909 138.575135 
L 256.097455 140.550915 
L 254.88 143.165496 
L 253.662545 146.519337 
L 252.445091 148.571311 
L 251.227636 151.676674 
L 250.010182 154.584017 
L 248.792727 158.558964 
L 247.575273 163.511729 
L 246.357818 168.17164 
L 242.705455 179.953641 
L 240.270545 191.535721 
L 239.053091 196.203581 
L 237.835636 199.386873 
L 237.226909 200.858907 
L 236.009455 204.527288 
L 234.792 209.133847 
L 234.183273 210.418412 
L 233.574545 210.735702 
L 232.357091 210.953392 
L 231.139636 211.73765 
L 229.922182 213.353473 
L 228.704727 215.255623 
L 228.096 216.203035 
L 227.487273 217.403572 
L 226.269818 220.854796 
L 223.834909 229.848048 
L 222.617455 232.861877 
L 222.008727 233.589538 
L 221.4 233.316596 
L 220.791273 232.690244 
L 220.182545 231.586722 
L 219.573818 229.328164 
L 218.965091 225.779307 
L 218.356364 220.767179 
L 217.747636 213.239083 
L 217.138909 203.042829 
L 216.530182 190.551633 
L 215.312727 156.559247 
L 213.486545 100.781351 
L 212.877818 84.989159 
L 212.269091 72.443171 
L 211.660364 63.536312 
L 211.051636 58.273552 
L 210.442909 55.204004 
L 209.834182 53.980841 
L 209.225455 54.72983 
L 208.616727 56.681631 
L 208.008 59.318064 
L 207.399273 62.567557 
L 206.181818 70.534068 
L 204.355636 79.842791 
L 203.138182 84.517178 
L 201.312 90.444211 
L 200.703273 91.79942 
L 198.877091 94.211459 
L 197.659636 95.517672 
L 197.050909 96.348117 
L 196.442182 97.454731 
L 195.224727 100.35494 
L 193.398545 104.411614 
L 192.789818 105.927638 
L 190.963636 111.501735 
L 190.354909 113.71466 
L 187.92 123.892908 
L 185.485091 133.50749 
L 184.267636 137.291972 
L 183.658909 139.120476 
L 181.832727 143.247228 
L 181.224 145.05974 
L 180.006545 149.709633 
L 178.180364 156.23048 
L 176.354182 160.460892 
L 173.310545 164.208131 
L 171.484364 167.058992 
L 170.266909 167.819337 
L 168.440727 169.301635 
L 167.832 169.528414 
L 167.223273 170.188737 
L 163.570909 175.878085 
L 162.962182 177.010859 
L 162.353455 177.867399 
L 161.136 178.197622 
L 159.918545 179.232976 
L 159.309818 179.775558 
L 158.092364 180.052074 
L 157.483636 180.538063 
L 156.874909 180.687126 
L 156.266182 180.48703 
L 155.657455 180.802864 
L 153.222545 183.100331 
L 151.396364 183.977413 
L 150.178909 185.101298 
L 149.570182 185.391541 
L 147.744 186.934633 
L 147.135273 187.195287 
L 146.526545 187.180073 
L 145.917818 187.378013 
L 144.700364 188.15069 
L 144.091636 188.47696 
L 143.482909 188.596139 
L 142.874182 188.498378 
L 142.265455 188.591973 
L 141.656727 188.846788 
L 141.048 188.966066 
L 139.830545 188.640217 
L 139.221818 188.999599 
L 138.613091 189.569984 
L 137.395636 190.003667 
L 136.786909 190.592169 
L 135.569455 191.296703 
L 134.960727 191.34903 
L 133.134545 192.012083 
L 130.699636 189.711736 
L 130.090909 189.448437 
L 129.482182 189.453335 
L 128.873455 189.770727 
L 128.264727 190.292064 
L 126.438545 192.588151 
L 125.829818 192.992378 
L 124.612364 193.410249 
L 123.394909 193.527322 
L 122.786182 193.480783 
L 122.177455 193.045785 
L 120.96 191.80705 
L 119.742545 191.609992 
L 117.916364 191.664181 
L 117.307636 191.430029 
L 115.481455 191.259467 
L 114.264 190.798027 
L 113.655273 190.800728 
L 112.437818 190.374816 
L 111.220364 189.788592 
L 110.611636 190.030097 
L 108.176727 191.664798 
L 106.959273 191.914493 
L 106.350545 192.321106 
L 105.741818 192.935382 
L 105.133091 193.270849 
L 103.915636 192.629039 
L 102.698182 193.126976 
L 102.089455 193.04376 
L 101.480727 192.580283 
L 100.263273 191.288297 
L 99.654545 190.788132 
L 99.045818 190.592133 
L 98.437091 190.254767 
L 97.219636 188.486669 
L 96.610909 188.021901 
L 96.002182 188.029131 
L 94.784727 188.808911 
L 93.567273 189.913878 
L 92.958545 190.258489 
L 92.349818 190.275962 
L 91.741091 190.634568 
L 91.132364 191.312248 
L 90.523636 191.531638 
L 89.914909 191.156287 
L 88.697455 191.092254 
L 86.871273 190.493977 
L 86.262545 190.22371 
L 85.653818 190.165125 
L 84.436364 189.760501 
L 83.827636 189.776603 
L 82.610182 189.471398 
L 80.784 189.389861 
L 80.175273 188.809789 
L 79.566545 189.035954 
L 78.957818 189.540579 
L 78.349091 189.788799 
L 77.740364 189.63044 
L 76.522909 189.046604 
L 75.914182 189.030407 
L 75.305455 189.314254 
L 74.696727 189.470555 
L 74.088 189.380899 
L 73.479273 189.04523 
L 72.261818 187.991205 
L 71.653091 187.66853 
L 71.044364 187.493446 
L 70.435636 187.027289 
L 69.826909 186.765668 
L 69.218182 186.279595 
L 69.218182 186.279595 
" clip-path="url(#p3c9a27a73e)" style="fill: none; stroke: #1f77b4; stroke-width: 1.5; stroke-linecap: square"/>
   </g>
   <g id="line2d_16">
    <path d="M 373.581818 112.871298 
L 372.973091 114.555101 
L 372.364364 115.138669 
L 371.755636 115.422093 
L 371.146909 115.339645 
L 370.538182 115.500307 
L 369.929455 115.436038 
L 368.712 114.760928 
L 367.494545 114.469734 
L 366.885818 114.377418 
L 366.277091 114.56451 
L 365.668364 113.526529 
L 364.450909 112.347343 
L 363.233455 110.845841 
L 362.624727 110.459631 
L 362.016 110.456946 
L 361.407273 110.150146 
L 360.189818 109.107983 
L 359.581091 109.159902 
L 358.363636 111.13432 
L 356.537455 110.454261 
L 355.928727 110.471199 
L 354.102545 111.616584 
L 353.493818 111.945308 
L 352.276364 111.025855 
L 351.667636 111.355317 
L 351.058909 111.492325 
L 350.450182 111.365185 
L 349.232727 111.730561 
L 348.624 111.880242 
L 348.015273 111.677145 
L 346.797818 110.925747 
L 346.189091 109.223141 
L 345.580364 108.387121 
L 344.362909 108.966884 
L 343.754182 108.850003 
L 343.145455 108.109677 
L 342.536727 107.193856 
L 341.928 107.333293 
L 341.319273 108.347627 
L 340.710545 109.131855 
L 338.884364 108.980633 
L 338.275636 109.155615 
L 337.666909 109.596422 
L 337.058182 109.596663 
L 336.449455 109.793607 
L 335.232 111.604557 
L 334.623273 111.974333 
L 334.014545 112.769753 
L 333.405818 112.940764 
L 332.188364 111.699182 
L 331.579636 110.591517 
L 330.970909 109.785657 
L 330.362182 109.629027 
L 329.753455 108.71972 
L 329.144727 107.564798 
L 328.536 107.330525 
L 327.927273 106.623127 
L 327.318545 105.198598 
L 326.709818 104.864074 
L 326.101091 105.584409 
L 325.492364 105.603235 
L 324.883636 104.532333 
L 324.274909 104.722223 
L 323.666182 105.357552 
L 323.057455 105.65641 
L 322.448727 106.625564 
L 321.231273 108.80025 
L 320.622545 109.300753 
L 320.013818 109.399492 
L 318.796364 109.996095 
L 318.187636 110.498148 
L 317.578909 110.68721 
L 316.970182 110.615637 
L 316.361455 110.748343 
L 315.752727 110.481608 
L 315.144 109.725337 
L 314.535273 109.383352 
L 313.926545 108.876087 
L 313.317818 107.861512 
L 312.709091 108.055749 
L 312.100364 108.710295 
L 310.274182 109.153833 
L 308.448 108.644048 
L 307.839273 108.633443 
L 307.230545 108.357014 
L 304.795636 106.482878 
L 304.186909 106.503147 
L 303.578182 106.816266 
L 302.360727 108.769074 
L 301.752 109.849468 
L 301.143273 110.339607 
L 300.534545 109.967258 
L 299.925818 109.367151 
L 298.099636 108.82668 
L 297.490909 108.162641 
L 296.882182 107.193879 
L 296.273455 107.344244 
L 295.664727 108.289969 
L 295.056 109.59327 
L 294.447273 109.760363 
L 293.838545 109.203774 
L 293.229818 108.88676 
L 291.403636 110.642548 
L 290.794909 110.722432 
L 290.186182 111.248703 
L 289.577455 112.114733 
L 288.968727 112.361122 
L 287.751273 111.946474 
L 287.142545 111.934914 
L 286.533818 111.138486 
L 285.925091 110.742205 
L 283.490182 110.964655 
L 282.881455 111.124489 
L 282.272727 110.993536 
L 281.664 111.330444 
L 280.446545 113.11692 
L 279.229091 114.034914 
L 276.794182 117.084092 
L 275.576727 116.4011 
L 274.968 116.940481 
L 274.359273 118.570236 
L 273.750545 119.649095 
L 271.924364 120.092144 
L 271.315636 119.913092 
L 270.706909 119.591806 
L 270.098182 120.147034 
L 269.489455 121.158307 
L 268.880727 121.921717 
L 267.663273 121.174237 
L 267.054545 121.847324 
L 266.445818 122.841592 
L 265.228364 125.654421 
L 264.619636 127.332456 
L 264.010909 128.376838 
L 263.402182 129.028196 
L 262.793455 130.175875 
L 260.967273 132.109558 
L 258.532364 135.288585 
L 257.923636 135.208092 
L 257.314909 135.651584 
L 256.706182 137.238717 
L 256.097455 139.675687 
L 255.488727 141.505426 
L 254.88 142.597185 
L 252.445091 148.206338 
L 251.836364 149.461106 
L 249.401455 157.007652 
L 248.792727 158.087874 
L 248.184 160.306525 
L 247.575273 163.618823 
L 246.357818 168.387099 
L 244.531636 172.408798 
L 243.922909 173.195013 
L 243.314182 175.587346 
L 242.096727 182.0942 
L 240.879273 187.873098 
L 240.270545 189.662842 
L 238.444364 196.06297 
L 237.226909 199.466444 
L 236.009455 203.78972 
L 234.792 206.889176 
L 234.183273 208.891931 
L 233.574545 209.727411 
L 232.357091 209.471792 
L 231.748364 209.703095 
L 231.139636 210.789267 
L 230.530909 212.371822 
L 228.096 215.951206 
L 227.487273 217.253819 
L 226.269818 220.309412 
L 225.052364 224.846769 
L 224.443636 226.206348 
L 223.834909 228.055421 
L 223.226182 230.541999 
L 222.617455 232.051749 
L 222.008727 232.468782 
L 221.4 232.376308 
L 220.182545 231.078831 
L 219.573818 229.691385 
L 218.965091 226.880805 
L 218.356364 222.049749 
L 217.747636 214.411462 
L 217.138909 204.198668 
L 216.530182 191.197711 
L 215.312727 157.476387 
L 213.486545 101.648406 
L 212.269091 71.364672 
L 211.660364 61.361357 
L 211.051636 56.181078 
L 210.442909 53.855314 
L 209.834182 53.580578 
L 209.225455 55.198545 
L 208.616727 57.745012 
L 208.008 59.712199 
L 207.399273 62.338227 
L 204.964364 76.293073 
L 202.529455 87.724441 
L 201.312 90.892174 
L 200.703273 93.030021 
L 200.094545 94.400705 
L 197.659636 97.454973 
L 197.050909 97.871486 
L 196.442182 98.84437 
L 195.224727 103.078606 
L 194.616 104.648461 
L 193.398545 106.747032 
L 192.789818 108.754122 
L 191.572364 112.054578 
L 190.354909 115.066472 
L 189.137455 119.460537 
L 187.92 124.827382 
L 187.311273 126.918733 
L 185.485091 134.230935 
L 184.876364 135.7561 
L 184.267636 138.088531 
L 182.441455 143.492827 
L 181.832727 144.095214 
L 181.224 145.124335 
L 180.615273 147.097378 
L 180.006545 149.792629 
L 179.397818 153.157748 
L 178.789091 155.488511 
L 178.180364 157.053555 
L 177.571636 159.091687 
L 176.962909 160.455386 
L 176.354182 161.051831 
L 175.745455 161.424285 
L 175.136727 162.313105 
L 174.528 163.512028 
L 173.310545 164.85372 
L 172.093091 167.211786 
L 171.484364 167.799386 
L 170.875636 168.229258 
L 169.658182 169.788397 
L 169.049455 169.789811 
L 168.440727 169.518338 
L 167.223273 170.657707 
L 166.005818 173.164815 
L 165.397091 173.824033 
L 163.570909 176.656708 
L 162.962182 177.465472 
L 161.744727 178.518903 
L 160.527273 179.705506 
L 159.918545 180.113657 
L 159.309818 180.201889 
L 158.701091 179.825178 
L 158.092364 179.597869 
L 157.483636 179.627052 
L 156.266182 180.724054 
L 155.048727 181.222347 
L 154.44 181.036248 
L 153.831273 181.489601 
L 153.222545 182.180371 
L 152.613818 182.251312 
L 152.005091 182.623638 
L 151.396364 183.700972 
L 150.178909 185.231727 
L 149.570182 185.697378 
L 148.961455 185.453658 
L 147.135273 185.155943 
L 146.526545 185.275373 
L 145.917818 185.748756 
L 144.700364 187.907441 
L 144.091636 188.635456 
L 143.482909 188.977374 
L 142.874182 189.034649 
L 142.265455 189.278714 
L 141.048 188.939625 
L 139.221818 188.73127 
L 138.004364 190.338299 
L 137.395636 191.239514 
L 136.786909 191.188678 
L 136.178182 191.002564 
L 135.569455 191.681691 
L 134.960727 191.942334 
L 133.134545 191.115315 
L 132.525818 190.969545 
L 131.917091 191.081831 
L 131.308364 190.899748 
L 130.699636 190.903704 
L 130.090909 190.564516 
L 129.482182 190.391504 
L 128.873455 190.823399 
L 127.656 190.544239 
L 127.047273 190.684248 
L 125.829818 192.88348 
L 125.221091 193.503934 
L 124.612364 193.335495 
L 124.003636 193.367234 
L 122.786182 192.683429 
L 122.177455 192.099265 
L 121.568727 191.769592 
L 120.96 191.865805 
L 120.351273 191.240545 
L 119.742545 190.808642 
L 119.133818 190.866037 
L 118.525091 191.057349 
L 117.916364 191.558891 
L 117.307636 191.892783 
L 115.481455 191.556747 
L 114.264 191.239236 
L 113.655273 190.462686 
L 113.046545 189.955036 
L 111.829091 189.568171 
L 110.611636 190.487438 
L 109.394182 190.817232 
L 108.785455 190.498344 
L 108.176727 190.963415 
L 107.568 191.095512 
L 106.959273 191.400049 
L 106.350545 192.225796 
L 105.741818 192.075483 
L 105.133091 192.415084 
L 104.524364 193.110623 
L 103.915636 193.487146 
L 102.698182 193.054048 
L 102.089455 192.266215 
L 101.480727 191.179397 
L 100.872 191.115699 
L 100.263273 191.417829 
L 99.654545 191.214175 
L 99.045818 189.664572 
L 98.437091 188.579784 
L 97.828364 188.637682 
L 96.002182 187.763415 
L 95.393455 187.753209 
L 94.784727 187.856055 
L 94.176 189.133343 
L 93.567273 189.822037 
L 92.958545 189.669686 
L 91.741091 191.071346 
L 90.523636 191.056409 
L 89.914909 191.68922 
L 89.306182 191.686241 
L 88.697455 191.377507 
L 87.48 190.333207 
L 86.871273 190.009408 
L 85.653818 188.166444 
L 84.436364 188.517605 
L 83.827636 188.421829 
L 83.218909 188.558671 
L 82.610182 188.860869 
L 82.001455 189.354424 
L 81.392727 189.518418 
L 80.784 189.162699 
L 79.566545 188.926199 
L 78.957818 189.066539 
L 77.131636 189.924146 
L 75.914182 189.903523 
L 75.305455 190.150093 
L 74.696727 189.52442 
L 74.088 188.528173 
L 73.479273 188.003818 
L 72.870545 187.674085 
L 72.261818 187.682276 
L 71.653091 187.465001 
L 71.044364 186.825578 
L 70.435636 187.04001 
L 69.826909 187.017326 
L 69.218182 186.211458 
L 69.218182 186.211458 
" clip-path="url(#p3c9a27a73e)" style="fill: none; stroke: #ff7f0e; stroke-width: 1.5; stroke-linecap: square"/>
   </g>
   <g id="line2d_17">
    <path d="M 373.581818 110.712755 
L 372.973091 111.666411 
L 371.755636 112.847954 
L 371.146909 113.02982 
L 369.320727 112.225673 
L 368.103273 112.09781 
L 366.277091 110.72051 
L 365.668364 110.089231 
L 365.059636 109.792457 
L 363.842182 108.978364 
L 363.233455 108.905284 
L 362.016 108.181886 
L 361.407273 107.931724 
L 360.798545 108.029324 
L 360.189818 108.266486 
L 359.581091 108.150009 
L 358.972364 108.23395 
L 358.363636 108.537499 
L 357.754909 108.633799 
L 356.537455 109.339484 
L 355.928727 109.35827 
L 355.32 109.591164 
L 354.102545 109.279369 
L 352.885091 109.653704 
L 351.667636 109.729079 
L 349.841455 109.247779 
L 349.232727 108.832727 
L 348.015273 108.171593 
L 346.797818 108.035713 
L 346.189091 107.443132 
L 345.580364 107.248086 
L 344.971636 106.905777 
L 344.362909 106.710668 
L 343.754182 106.743064 
L 343.145455 106.523095 
L 341.319273 106.685672 
L 340.710545 106.953354 
L 337.058182 110.04485 
L 336.449455 110.389996 
L 335.840727 110.87409 
L 335.232 111.086482 
L 334.014545 111.111809 
L 333.405818 110.800555 
L 332.188364 109.306989 
L 330.362182 106.287164 
L 328.536 104.300168 
L 326.709818 103.075369 
L 326.101091 103.045503 
L 324.274909 104.366562 
L 323.057455 105.464403 
L 321.84 106.855473 
L 321.231273 107.677102 
L 320.622545 108.229154 
L 318.796364 109.05479 
L 317.578909 109.226657 
L 316.970182 108.947454 
L 316.361455 108.495612 
L 314.535273 107.611466 
L 313.926545 107.153032 
L 313.317818 107.102323 
L 312.709091 107.484274 
L 312.100364 107.279695 
L 311.491636 107.349144 
L 310.882909 107.710877 
L 309.665455 107.769873 
L 308.448 106.940364 
L 307.839273 106.544064 
L 307.230545 106.001079 
L 306.621818 106.013606 
L 306.013091 105.908278 
L 305.404364 105.669787 
L 304.795636 105.965014 
L 304.186909 106.484186 
L 301.752 109.453821 
L 300.534545 109.325606 
L 299.925818 109.442348 
L 299.317091 109.090054 
L 297.490909 106.959003 
L 296.882182 106.764593 
L 295.664727 107.181922 
L 295.056 107.647727 
L 294.447273 107.947244 
L 293.229818 109.189391 
L 292.012364 109.838824 
L 291.403636 109.856745 
L 290.794909 110.081758 
L 290.186182 110.646468 
L 288.36 111.241044 
L 287.142545 110.448313 
L 285.316364 109.948788 
L 284.098909 110.32556 
L 282.881455 111.092124 
L 282.272727 111.618587 
L 281.055273 112.030807 
L 279.837818 113.09718 
L 278.620364 114.395782 
L 278.011636 114.934615 
L 277.402909 115.92428 
L 276.794182 116.607728 
L 276.185455 116.953372 
L 275.576727 117.576425 
L 274.968 118.040335 
L 274.359273 118.297511 
L 273.141818 118.320812 
L 271.315636 119.076854 
L 270.706909 119.751529 
L 269.489455 120.793742 
L 268.272 122.331222 
L 267.054545 123.504576 
L 265.228364 126.34942 
L 264.619636 127.53581 
L 264.010909 129.016433 
L 261.576 133.207633 
L 259.749818 134.824065 
L 259.141091 135.555757 
L 258.532364 136.021845 
L 257.923636 136.839247 
L 256.706182 139.56055 
L 254.88 144.593911 
L 253.662545 147.280595 
L 252.445091 150.305976 
L 251.836364 151.426135 
L 250.618909 154.447827 
L 249.401455 158.390519 
L 248.184 163.342613 
L 246.966545 168.161356 
L 245.749091 172.31751 
L 245.140364 173.941585 
L 243.922909 177.99911 
L 242.705455 183.160881 
L 240.879273 191.72593 
L 239.661818 197.360912 
L 238.444364 201.530059 
L 235.400727 211.163191 
L 234.792 213.280165 
L 234.183273 214.62512 
L 233.574545 215.530764 
L 232.965818 215.975333 
L 232.357091 215.929283 
L 231.139636 216.231908 
L 230.530909 216.694734 
L 228.704727 219.680932 
L 226.878545 223.197999 
L 225.661091 227.077681 
L 224.443636 231.047415 
L 223.834909 232.775377 
L 223.226182 234.039145 
L 222.008727 235.907032 
L 221.4 236.169955 
L 220.791273 235.598542 
L 220.182545 234.47923 
L 219.573818 232.10046 
L 218.965091 228.702764 
L 218.356364 223.503375 
L 217.747636 215.660498 
L 217.138909 205.240383 
L 216.530182 191.909733 
L 215.312727 157.847584 
L 213.486545 101.745732 
L 212.877818 85.951006 
L 212.269091 73.150802 
L 211.660364 63.931171 
L 211.051636 57.842712 
L 210.442909 54.374962 
L 209.834182 53.001259 
L 209.225455 53.520948 
L 208.616727 54.96746 
L 208.008 56.920653 
L 206.790545 63.01749 
L 204.964364 73.117801 
L 203.746909 78.249441 
L 201.920727 83.838886 
L 200.094545 87.501107 
L 199.485818 88.380486 
L 198.877091 89.002938 
L 198.268364 89.269605 
L 197.659636 89.773079 
L 197.050909 90.717687 
L 195.833455 93.620541 
L 193.398545 99.938996 
L 191.572364 105.510197 
L 189.137455 114.745862 
L 188.528727 117.157489 
L 186.093818 128.432256 
L 184.876364 133.433274 
L 184.267636 135.617623 
L 181.224 143.600304 
L 180.006545 148.025861 
L 178.789091 153.097937 
L 178.180364 155.285381 
L 177.571636 157.025357 
L 176.354182 159.370023 
L 175.136727 160.581395 
L 173.919273 162.42038 
L 171.484364 166.205363 
L 169.658182 168.039286 
L 168.440727 168.564689 
L 167.832 168.951931 
L 167.223273 169.533209 
L 165.397091 172.465716 
L 162.962182 176.648187 
L 161.744727 178.085258 
L 159.309818 180.039351 
L 158.701091 180.268029 
L 157.483636 180.329865 
L 156.266182 181.239612 
L 155.657455 181.512256 
L 155.048727 181.945338 
L 153.831273 182.494494 
L 152.613818 183.406473 
L 150.787636 184.945677 
L 150.178909 185.67294 
L 149.570182 185.939091 
L 148.961455 186.394564 
L 147.744 186.859749 
L 147.135273 187.453514 
L 146.526545 187.850092 
L 145.917818 188.040648 
L 145.309091 188.457851 
L 143.482909 189.189514 
L 142.874182 189.218931 
L 142.265455 189.490783 
L 141.656727 189.631213 
L 141.048 189.650107 
L 140.439273 189.977115 
L 138.613091 190.185242 
L 138.004364 190.135342 
L 136.178182 190.943458 
L 135.569455 191.274042 
L 133.743273 192.927601 
L 133.134545 192.94165 
L 132.525818 193.139479 
L 131.917091 192.957296 
L 130.090909 191.716267 
L 128.264727 190.995922 
L 127.656 191.423766 
L 126.438545 192.991233 
L 125.829818 193.89214 
L 124.612364 194.567657 
L 124.003636 194.740937 
L 122.786182 194.436317 
L 121.568727 193.607388 
L 120.351273 193.296453 
L 119.742545 193.227757 
L 118.525091 192.879997 
L 117.307636 193.240202 
L 116.698909 193.22228 
L 116.090182 193.421636 
L 115.481455 193.133661 
L 114.872727 192.449485 
L 113.046545 191.256616 
L 111.829091 190.869892 
L 111.220364 191.109818 
L 110.002909 191.030061 
L 108.785455 191.520401 
L 108.176727 192.01057 
L 106.959273 192.653929 
L 106.350545 193.339595 
L 103.915636 194.401754 
L 102.698182 194.692595 
L 102.089455 194.736742 
L 101.480727 194.646423 
L 100.263273 193.526989 
L 99.654545 192.74537 
L 99.045818 191.726153 
L 98.437091 191.130228 
L 97.828364 190.367535 
L 97.219636 189.792359 
L 95.393455 189.46357 
L 94.176 189.804031 
L 92.958545 190.980883 
L 91.741091 192.443774 
L 91.132364 192.92565 
L 90.523636 193.253295 
L 89.914909 193.138956 
L 89.306182 192.714238 
L 88.697455 192.574049 
L 88.088727 192.654567 
L 86.871273 192.332757 
L 86.262545 191.806795 
L 85.653818 191.485171 
L 85.045091 191.518157 
L 84.436364 191.298985 
L 83.218909 191.211314 
L 82.610182 191.132085 
L 82.001455 191.258063 
L 80.784 190.703585 
L 80.175273 190.697822 
L 79.566545 190.810032 
L 78.957818 191.083083 
L 78.349091 191.076871 
L 77.740364 190.92529 
L 76.522909 191.195169 
L 75.305455 191.703458 
L 73.479273 191.267346 
L 72.870545 190.69552 
L 71.653091 190.063725 
L 71.044364 189.949319 
L 70.435636 189.455831 
L 69.826909 188.511843 
L 69.218182 187.910219 
L 69.218182 187.910219 
" clip-path="url(#p3c9a27a73e)" style="fill: none; stroke: #2ca02c; stroke-width: 1.5; stroke-linecap: square"/>
   </g>
   <g id="line2d_18">
    <path d="M 373.581818 108.191734 
L 372.364364 110.943618 
L 371.755636 111.520029 
L 370.538182 112.244832 
L 369.929455 112.280438 
L 369.320727 111.644202 
L 368.712 110.75668 
L 367.494545 109.868786 
L 366.885818 109.49156 
L 365.668364 108.128717 
L 364.450909 106.713062 
L 363.842182 106.476236 
L 363.233455 106.599589 
L 362.624727 106.416081 
L 362.016 105.971788 
L 361.407273 105.816489 
L 359.581091 105.89829 
L 358.972364 106.100932 
L 358.363636 106.725931 
L 357.754909 107.085095 
L 356.537455 106.439502 
L 355.928727 106.747717 
L 355.32 107.550007 
L 354.711273 107.602588 
L 354.102545 107.224611 
L 353.493818 107.249525 
L 352.885091 107.576945 
L 352.276364 108.044516 
L 351.667636 108.368333 
L 351.058909 108.306644 
L 350.450182 107.877912 
L 349.841455 107.641579 
L 349.232727 107.586136 
L 348.624 107.049579 
L 347.406545 105.73873 
L 346.189091 105.783929 
L 344.971636 104.978435 
L 344.362909 105.161277 
L 343.754182 105.134659 
L 343.145455 104.576949 
L 342.536727 104.590002 
L 341.319273 105.307949 
L 340.710545 105.501434 
L 340.101818 105.903435 
L 338.275636 107.898851 
L 337.058182 108.550006 
L 336.449455 108.635267 
L 335.840727 108.876226 
L 334.623273 110.104774 
L 333.405818 110.254327 
L 332.797091 109.795021 
L 331.579636 106.525377 
L 330.970909 105.675822 
L 329.753455 104.845692 
L 328.536 102.337622 
L 327.927273 101.980534 
L 326.709818 101.805544 
L 326.101091 101.880012 
L 324.274909 102.64631 
L 323.666182 102.961778 
L 321.231273 106.66569 
L 320.013818 107.226322 
L 319.405091 107.898126 
L 318.796364 108.376689 
L 318.187636 108.480272 
L 316.970182 108.318561 
L 316.361455 107.859004 
L 315.144 107.45416 
L 314.535273 106.545507 
L 313.926545 105.971942 
L 312.100364 105.890145 
L 311.491636 106.30855 
L 310.882909 107.231944 
L 310.274182 107.627995 
L 309.665455 107.030193 
L 308.448 105.26448 
L 307.230545 104.539369 
L 306.621818 104.136094 
L 306.013091 104.14976 
L 305.404364 104.713276 
L 304.795636 104.943717 
L 302.360727 108.838417 
L 301.752 109.228282 
L 301.143273 109.388289 
L 300.534545 109.297636 
L 299.925818 109.008168 
L 298.708364 107.760633 
L 298.099636 106.912587 
L 296.882182 104.416257 
L 296.273455 104.337927 
L 295.664727 104.637315 
L 295.056 105.441907 
L 293.838545 107.805873 
L 293.229818 108.283463 
L 292.012364 108.777479 
L 290.186182 110.572021 
L 289.577455 110.866355 
L 288.968727 110.779658 
L 288.36 110.873091 
L 287.751273 110.787122 
L 286.533818 109.727653 
L 285.925091 109.599765 
L 285.316364 108.855558 
L 284.707636 108.994186 
L 284.098909 109.595583 
L 283.490182 109.70917 
L 282.881455 110.072959 
L 279.837818 113.079359 
L 278.620364 114.809598 
L 278.011636 115.100352 
L 277.402909 115.553761 
L 276.185455 116.945302 
L 275.576727 117.319485 
L 274.968 117.84068 
L 274.359273 117.991767 
L 273.141818 117.872186 
L 272.533091 118.11386 
L 271.315636 119.632304 
L 269.489455 121.426945 
L 268.272 122.804373 
L 267.054545 123.530665 
L 265.837091 125.595349 
L 264.619636 128.688697 
L 263.402182 132.108641 
L 262.793455 133.312376 
L 259.141091 137.153072 
L 258.532364 137.760498 
L 256.706182 141.215785 
L 256.097455 142.885942 
L 255.488727 144.977456 
L 253.662545 149.833206 
L 253.053818 150.580728 
L 252.445091 151.616517 
L 251.227636 155.043785 
L 248.792727 162.8636 
L 246.966545 171.337143 
L 242.705455 187.283809 
L 241.488 193.244897 
L 240.270545 199.94279 
L 237.835636 209.240705 
L 236.618182 212.449946 
L 234.183273 221.168626 
L 233.574545 221.939852 
L 232.357091 220.904753 
L 231.748364 221.144389 
L 231.139636 221.985852 
L 230.530909 223.115126 
L 229.922182 223.708733 
L 229.313455 223.772367 
L 228.704727 224.120005 
L 227.487273 226.166327 
L 226.878545 227.394897 
L 225.052364 232.03674 
L 223.834909 235.702409 
L 222.617455 238.319528 
L 222.008727 239.031129 
L 221.4 239.039662 
L 220.791273 238.417184 
L 220.182545 237.126176 
L 219.573818 234.939005 
L 218.965091 231.29323 
L 218.356364 226.08879 
L 217.747636 218.310117 
L 217.138909 207.003406 
L 215.921455 175.931618 
L 212.877818 86.02049 
L 212.269091 73.566625 
L 211.660364 64.710897 
L 211.051636 58.738571 
L 210.442909 55.169813 
L 209.834182 53.248322 
L 209.225455 52.702809 
L 208.616727 53.510886 
L 208.008 55.354111 
L 206.181818 63.381562 
L 204.964364 69.087939 
L 203.746909 73.757605 
L 203.138182 75.690319 
L 202.529455 76.829178 
L 201.920727 77.655931 
L 200.703273 80.487467 
L 200.094545 81.293375 
L 199.485818 81.696827 
L 197.659636 82.011611 
L 197.050909 83.081169 
L 196.442182 84.550713 
L 195.224727 87.057447 
L 190.354909 103.631728 
L 189.137455 109.436399 
L 187.92 115.706901 
L 186.702545 121.91365 
L 186.093818 125.279012 
L 183.658909 134.543087 
L 182.441455 138.093533 
L 181.224 141.938968 
L 179.397818 149.213566 
L 177.571636 154.822682 
L 176.962909 157.069564 
L 176.354182 158.133585 
L 175.745455 158.784905 
L 174.528 160.7364 
L 172.701818 164.291989 
L 171.484364 165.641642 
L 170.875636 166.671513 
L 170.266909 167.371707 
L 169.658182 167.301248 
L 169.049455 167.487779 
L 167.832 168.201166 
L 167.223273 168.722263 
L 166.614545 169.400889 
L 165.397091 171.267184 
L 162.962182 176.108331 
L 162.353455 176.51163 
L 161.744727 177.099719 
L 161.136 178.136228 
L 159.918545 179.367902 
L 159.309818 179.964385 
L 157.483636 180.395081 
L 156.266182 180.731707 
L 155.048727 181.645028 
L 154.44 182.503561 
L 153.831273 182.70932 
L 153.222545 182.768404 
L 152.613818 183.185264 
L 152.005091 183.4293 
L 150.787636 184.757172 
L 149.570182 185.673351 
L 148.961455 186.557655 
L 147.744 187.670934 
L 147.135273 187.736346 
L 146.526545 187.532343 
L 145.917818 187.572363 
L 144.091636 188.87525 
L 142.265455 190.616628 
L 141.656727 190.96187 
L 141.048 191.129106 
L 139.221818 190.68195 
L 138.613091 190.669265 
L 138.004364 190.421552 
L 137.395636 190.784608 
L 136.786909 191.499273 
L 136.178182 191.903524 
L 134.960727 193.092128 
L 133.743273 193.582389 
L 133.134545 193.510158 
L 130.090909 190.891753 
L 128.873455 190.784183 
L 128.264727 191.204134 
L 127.656 192.070158 
L 127.047273 193.175227 
L 126.438545 193.986752 
L 125.221091 195.049288 
L 124.612364 195.900127 
L 124.003636 196.351836 
L 122.786182 195.57808 
L 122.177455 195.87387 
L 121.568727 195.773863 
L 120.96 194.820994 
L 120.351273 194.435536 
L 119.742545 194.302699 
L 119.133818 194.046441 
L 118.525091 193.946739 
L 116.698909 194.947059 
L 116.090182 194.575375 
L 115.481455 193.863474 
L 114.264 193.351613 
L 113.655273 193.112082 
L 112.437818 191.917175 
L 111.829091 191.833147 
L 110.002909 193.044173 
L 108.785455 193.317278 
L 108.176727 193.550002 
L 106.350545 195.260298 
L 104.524364 196.160619 
L 103.915636 196.722896 
L 103.306909 196.902842 
L 102.089455 196.137228 
L 101.480727 195.987185 
L 100.872 195.600012 
L 99.654545 194.473379 
L 99.045818 194.057779 
L 98.437091 193.081862 
L 97.219636 190.245166 
L 96.610909 189.695394 
L 95.393455 190.823365 
L 94.784727 190.880896 
L 93.567273 191.520461 
L 92.349818 193.020311 
L 91.132364 193.493998 
L 89.914909 194.566508 
L 89.306182 194.895414 
L 88.088727 195.230254 
L 87.48 194.629574 
L 86.871273 193.669252 
L 86.262545 192.994314 
L 85.653818 192.73976 
L 85.045091 192.961641 
L 84.436364 192.820392 
L 83.827636 191.930394 
L 83.218909 191.421563 
L 82.610182 191.511845 
L 81.392727 192.564077 
L 80.784 192.487323 
L 80.175273 192.265125 
L 78.957818 192.95444 
L 78.349091 193.42619 
L 77.740364 193.5342 
L 77.131636 193.386196 
L 75.914182 193.845573 
L 75.305455 193.614519 
L 74.088 192.202638 
L 72.870545 192.217034 
L 72.261818 192.021999 
L 71.653091 191.600352 
L 71.044364 190.638176 
L 70.435636 190.077257 
L 69.826909 189.813083 
L 69.218182 189.424985 
L 69.218182 189.424985 
" clip-path="url(#p3c9a27a73e)" style="fill: none; stroke: #d62728; stroke-width: 1.5; stroke-linecap: square"/>
   </g>
   <g id="line2d_19">
    <path d="M 373.581818 106.727774 
L 372.973091 108.085084 
L 372.364364 109.162979 
L 371.755636 109.294648 
L 371.146909 109.084882 
L 370.538182 108.231314 
L 369.929455 107.73604 
L 369.320727 107.712791 
L 368.712 107.293598 
L 368.103273 107.066924 
L 367.494545 107.142808 
L 365.668364 105.170389 
L 365.059636 104.908047 
L 364.450909 104.275722 
L 363.842182 103.941166 
L 363.233455 103.97426 
L 362.624727 103.731857 
L 362.016 102.99523 
L 360.798545 102.701192 
L 359.581091 102.715927 
L 358.972364 103.07873 
L 358.363636 103.58793 
L 357.754909 103.88265 
L 357.146182 103.662404 
L 355.32 104.407324 
L 354.711273 104.959212 
L 354.102545 105.711279 
L 353.493818 105.932716 
L 351.058909 105.757002 
L 350.450182 105.553904 
L 348.015273 104.242141 
L 346.797818 103.812158 
L 346.189091 102.807576 
L 345.580364 102.325553 
L 344.971636 102.65088 
L 344.362909 102.649325 
L 342.536727 101.066144 
L 341.928 101.764941 
L 341.319273 102.125701 
L 340.710545 102.266693 
L 340.101818 102.695773 
L 339.493091 103.38627 
L 338.275636 104.043402 
L 337.666909 104.996177 
L 337.058182 106.196719 
L 336.449455 106.923719 
L 335.232 107.312645 
L 334.623273 107.814101 
L 334.014545 108.16624 
L 333.405818 107.77257 
L 332.797091 106.91704 
L 332.188364 106.343106 
L 330.970909 103.813695 
L 330.362182 103.130062 
L 329.144727 101.35584 
L 327.927273 100.080744 
L 326.709818 98.791995 
L 326.101091 98.362578 
L 325.492364 98.479261 
L 324.274909 99.660234 
L 323.666182 99.76107 
L 323.057455 100.030294 
L 321.84 101.704613 
L 320.622545 104.386178 
L 320.013818 105.349927 
L 319.405091 105.915367 
L 318.187636 105.413136 
L 317.578909 105.865613 
L 316.970182 105.958328 
L 315.752727 105.606907 
L 315.144 104.882064 
L 313.926545 104.638799 
L 313.317818 104.053139 
L 312.709091 103.741321 
L 312.100364 103.996937 
L 311.491636 104.131979 
L 310.882909 103.896486 
L 310.274182 103.907731 
L 309.056727 104.759828 
L 308.448 104.671749 
L 307.839273 104.308532 
L 307.230545 103.098115 
L 306.621818 102.292777 
L 306.013091 101.859899 
L 305.404364 101.807792 
L 304.795636 101.979992 
L 304.186909 102.564495 
L 303.578182 103.584688 
L 302.360727 105.989393 
L 301.752 106.434936 
L 301.143273 106.601013 
L 300.534545 106.615621 
L 299.925818 106.506569 
L 299.317091 105.923904 
L 298.708364 104.936344 
L 297.490909 103.455987 
L 296.882182 103.139325 
L 296.273455 103.403395 
L 295.664727 103.5384 
L 295.056 104.168445 
L 293.838545 106.184986 
L 292.621091 107.300638 
L 292.012364 107.412495 
L 291.403636 107.853903 
L 290.186182 107.686874 
L 289.577455 108.358718 
L 288.36 108.325447 
L 287.751273 108.567194 
L 287.142545 108.658135 
L 286.533818 108.412343 
L 285.925091 108.531734 
L 285.316364 108.490614 
L 284.707636 108.171755 
L 284.098909 108.472419 
L 283.490182 109.117962 
L 282.881455 110.146214 
L 282.272727 110.896723 
L 281.664 111.206018 
L 281.055273 110.742407 
L 280.446545 110.767301 
L 279.229091 112.676788 
L 278.011636 114.002963 
L 277.402909 114.287866 
L 276.794182 114.7088 
L 276.185455 115.406136 
L 275.576727 116.301538 
L 274.968 116.786417 
L 274.359273 116.957196 
L 273.750545 116.925383 
L 273.141818 117.151021 
L 272.533091 117.546564 
L 271.924364 117.761622 
L 271.315636 118.211842 
L 269.489455 120.178285 
L 268.272 122.477716 
L 265.837091 125.939643 
L 264.619636 128.70163 
L 263.402182 131.933346 
L 262.793455 133.326845 
L 262.184727 134.144582 
L 261.576 134.426065 
L 260.967273 135.009482 
L 260.358545 136.281083 
L 259.749818 136.793861 
L 259.141091 136.850879 
L 258.532364 137.660031 
L 257.923636 139.221312 
L 253.662545 153.089174 
L 251.836364 156.880294 
L 251.227636 158.258411 
L 250.618909 160.072782 
L 248.792727 168.454715 
L 246.966545 176.884923 
L 245.749091 181.133664 
L 245.140364 182.720058 
L 244.531636 184.626754 
L 243.922909 187.190186 
L 239.661818 209.022172 
L 239.053091 211.250357 
L 237.835636 215.014286 
L 236.618182 219.724929 
L 235.400727 224.171836 
L 234.792 225.835363 
L 234.183273 226.751814 
L 233.574545 227.039328 
L 232.965818 226.965158 
L 231.748364 227.22003 
L 231.139636 227.436235 
L 230.530909 227.517672 
L 229.922182 227.337827 
L 229.313455 227.711037 
L 228.704727 227.767172 
L 228.096 228.39988 
L 226.878545 231.060774 
L 226.269818 232.607929 
L 223.834909 240.349436 
L 223.226182 241.987237 
L 222.617455 242.998187 
L 222.008727 243.665195 
L 221.4 244.082357 
L 220.182545 242.072813 
L 219.573818 240.522332 
L 218.965091 236.817441 
L 218.356364 230.781604 
L 217.747636 222.503777 
L 217.138909 211.380412 
L 216.530182 197.018402 
L 215.312727 160.818726 
L 213.486545 102.24672 
L 212.269091 72.471972 
L 211.660364 62.309085 
L 211.051636 54.740338 
L 210.442909 50.129402 
L 209.834182 48.123778 
L 209.225455 47.388262 
L 208.616727 47.793628 
L 206.790545 53.936456 
L 206.181818 56.287854 
L 204.964364 61.848556 
L 202.529455 69.63873 
L 201.312 72.191361 
L 200.703273 72.698887 
L 200.094545 72.563256 
L 199.485818 72.225638 
L 198.268364 71.867563 
L 197.659636 72.051071 
L 197.050909 73.193943 
L 195.833455 76.706382 
L 194.616 81.259986 
L 192.789818 86.700816 
L 191.572364 91.790099 
L 189.137455 103.622699 
L 187.92 109.849047 
L 186.702545 116.367833 
L 184.876364 126.707566 
L 184.267636 129.39904 
L 183.658909 131.012514 
L 183.050182 132.223283 
L 182.441455 134.073641 
L 180.006545 143.966147 
L 178.789091 149.662381 
L 176.962909 155.970303 
L 176.354182 157.139819 
L 175.745455 158.032197 
L 174.528 160.566596 
L 172.701818 164.225854 
L 172.093091 165.175284 
L 170.875636 167.490927 
L 170.266909 167.680353 
L 169.658182 167.482049 
L 169.049455 167.403069 
L 168.440727 167.719865 
L 166.614545 169.910742 
L 166.005818 171.364011 
L 164.788364 173.028555 
L 162.962182 177.617075 
L 161.136 179.938218 
L 160.527273 180.22188 
L 159.309818 181.243482 
L 158.701091 181.729217 
L 158.092364 182.012963 
L 157.483636 182.047862 
L 156.874909 181.932428 
L 156.266182 181.644654 
L 155.657455 181.717935 
L 154.44 182.349128 
L 153.222545 183.776234 
L 152.613818 184.650886 
L 152.005091 185.730796 
L 151.396364 186.438709 
L 150.787636 186.840837 
L 150.178909 187.434598 
L 148.961455 188.240172 
L 148.352727 188.868126 
L 146.526545 189.948871 
L 145.917818 190.588345 
L 145.309091 190.99887 
L 144.091636 191.372471 
L 143.482909 192.029424 
L 142.874182 192.430288 
L 141.656727 191.922086 
L 139.830545 192.57235 
L 139.221818 192.451087 
L 138.613091 192.759694 
L 138.004364 193.299505 
L 135.569455 193.967376 
L 134.960727 194.437814 
L 133.743273 196.263525 
L 133.134545 196.479386 
L 132.525818 196.292915 
L 131.308364 195.021767 
L 130.699636 194.644415 
L 129.482182 193.672538 
L 128.264727 194.018795 
L 127.656 194.274171 
L 127.047273 195.099537 
L 125.829818 197.733466 
L 125.221091 198.400976 
L 124.612364 198.327578 
L 123.394909 198.715108 
L 121.568727 198.011874 
L 120.96 197.906864 
L 120.351273 197.516729 
L 119.742545 196.591504 
L 119.133818 196.346627 
L 118.525091 196.568565 
L 117.307636 196.529478 
L 116.698909 196.761709 
L 116.090182 196.855715 
L 115.481455 196.292531 
L 114.872727 195.277795 
L 114.264 194.911127 
L 113.655273 194.836352 
L 111.829091 193.782222 
L 111.220364 193.756144 
L 108.785455 195.338938 
L 106.959273 197.019545 
L 106.350545 197.423104 
L 105.741818 198.290774 
L 105.133091 198.866791 
L 104.524364 199.24576 
L 103.915636 199.139784 
L 103.306909 198.887372 
L 102.089455 199.019603 
L 101.480727 198.735773 
L 100.872 198.086378 
L 99.654545 195.884793 
L 99.045818 194.977729 
L 98.437091 194.518359 
L 97.828364 194.457002 
L 96.610909 193.817475 
L 96.002182 194.031775 
L 95.393455 194.076324 
L 94.784727 193.998327 
L 94.176 194.42595 
L 92.958545 196.402378 
L 92.349818 196.405648 
L 91.741091 196.657096 
L 91.132364 197.712674 
L 90.523636 198.284573 
L 89.914909 198.429887 
L 89.306182 198.000866 
L 88.088727 197.642575 
L 87.48 197.131048 
L 85.653818 194.99105 
L 85.045091 194.907447 
L 83.827636 194.920758 
L 83.218909 194.642139 
L 82.610182 194.77425 
L 82.001455 195.183792 
L 81.392727 195.776677 
L 80.784 195.784439 
L 80.175273 195.599796 
L 78.957818 196.6525 
L 76.522909 197.011613 
L 75.914182 196.823915 
L 75.305455 196.3016 
L 73.479273 195.120837 
L 72.870545 194.586792 
L 71.653091 194.293733 
L 70.435636 192.502272 
L 69.826909 191.852329 
L 69.218182 191.630541 
L 69.218182 191.630541 
" clip-path="url(#p3c9a27a73e)" style="fill: none; stroke: #9467bd; stroke-width: 1.5; stroke-linecap: square"/>
   </g>
   <g id="line2d_20">
    <path d="M 373.581818 105.663824 
L 372.973091 106.649942 
L 371.755636 107.339161 
L 370.538182 107.86769 
L 369.929455 107.642855 
L 368.103273 106.114469 
L 367.494545 105.392625 
L 366.885818 105.555882 
L 366.277091 105.010418 
L 365.668364 104.193157 
L 365.059636 103.92842 
L 364.450909 103.520565 
L 363.233455 102.391457 
L 362.624727 102.036158 
L 362.016 101.92379 
L 361.407273 102.04265 
L 360.798545 101.959471 
L 359.581091 102.202823 
L 358.972364 102.279504 
L 358.363636 102.646771 
L 357.754909 102.653119 
L 357.146182 102.096803 
L 356.537455 101.316754 
L 355.928727 101.523595 
L 355.32 102.672457 
L 354.711273 103.34402 
L 354.102545 103.636946 
L 353.493818 103.775007 
L 352.885091 103.781153 
L 351.667636 104.541987 
L 351.058909 104.734869 
L 350.450182 104.702175 
L 349.232727 103.729479 
L 348.624 103.605044 
L 348.015273 103.701431 
L 347.406545 103.297412 
L 346.189091 101.810514 
L 345.580364 101.708555 
L 344.362909 101.035573 
L 343.145455 100.041387 
L 342.536727 100.309361 
L 341.928 100.963642 
L 340.710545 101.237326 
L 338.884364 102.766443 
L 338.275636 103.060937 
L 337.666909 103.886999 
L 337.058182 105.21117 
L 336.449455 105.614061 
L 335.840727 105.851107 
L 335.232 106.424412 
L 334.623273 106.844246 
L 334.014545 106.866732 
L 333.405818 106.528383 
L 332.188364 106.569675 
L 331.579636 105.645933 
L 329.144727 100.023516 
L 327.927273 98.36948 
L 326.101091 96.554061 
L 325.492364 96.327244 
L 324.883636 96.433643 
L 324.274909 96.777994 
L 323.666182 97.504119 
L 323.057455 98.654275 
L 321.84 101.666105 
L 319.405091 103.942743 
L 318.187636 105.330289 
L 316.970182 105.330193 
L 316.361455 104.936445 
L 315.752727 103.98804 
L 315.144 103.259872 
L 314.535273 103.231189 
L 313.926545 102.794573 
L 312.709091 101.42834 
L 312.100364 101.288447 
L 311.491636 101.711901 
L 310.882909 101.666908 
L 309.665455 102.214397 
L 308.448 101.906879 
L 306.621818 100.552665 
L 306.013091 100.352677 
L 305.404364 100.417962 
L 304.186909 101.148151 
L 303.578182 101.827015 
L 302.360727 104.106773 
L 301.752 105.209937 
L 301.143273 105.671568 
L 299.925818 105.198501 
L 299.317091 104.706772 
L 297.490909 101.969679 
L 296.882182 101.95932 
L 296.273455 102.627492 
L 295.056 103.33275 
L 294.447273 103.754254 
L 293.229818 105.086852 
L 292.621091 105.228385 
L 292.012364 105.651643 
L 291.403636 106.474934 
L 290.794909 107.025587 
L 289.577455 107.26122 
L 288.36 107.079235 
L 287.751273 107.130058 
L 287.142545 107.458259 
L 286.533818 107.977609 
L 285.925091 108.083608 
L 284.707636 107.484021 
L 283.490182 107.641655 
L 282.272727 108.425396 
L 281.055273 109.475155 
L 279.837818 111.203369 
L 278.620364 113.230359 
L 276.794182 115.163348 
L 276.185455 115.547745 
L 275.576727 116.139038 
L 274.359273 116.765716 
L 273.141818 117.226112 
L 272.533091 118.016802 
L 271.924364 118.199973 
L 271.315636 118.186109 
L 269.489455 121.228017 
L 267.054545 123.480826 
L 266.445818 124.488061 
L 264.010909 130.346664 
L 262.793455 134.19557 
L 262.184727 135.539048 
L 260.967273 137.481328 
L 260.358545 138.122397 
L 259.141091 138.813437 
L 258.532364 139.596393 
L 256.097455 146.542545 
L 255.488727 147.694155 
L 254.88 149.76264 
L 253.662545 154.456976 
L 252.445091 158.355041 
L 251.836364 159.637624 
L 250.618909 163.153505 
L 250.010182 165.141459 
L 249.401455 168.038928 
L 248.184 174.697709 
L 245.749091 185.743658 
L 244.531636 190.072869 
L 243.922909 191.943197 
L 243.314182 194.301901 
L 242.705455 197.120107 
L 240.270545 210.396019 
L 239.661818 213.328277 
L 239.053091 215.689626 
L 237.835636 219.413151 
L 236.009455 226.294052 
L 235.400727 228.015355 
L 234.792 229.217523 
L 234.183273 229.904828 
L 233.574545 229.92271 
L 232.965818 229.189652 
L 232.357091 229.07349 
L 231.748364 229.230414 
L 231.139636 228.820645 
L 229.922182 229.0474 
L 229.313455 229.564056 
L 228.704727 230.430395 
L 227.487273 231.382077 
L 226.878545 232.610957 
L 226.269818 234.100105 
L 225.052364 237.919173 
L 223.834909 242.911275 
L 223.226182 244.693591 
L 222.617455 245.763306 
L 222.008727 246.24 
L 221.4 246.00424 
L 220.791273 245.387707 
L 220.182545 244.337719 
L 219.573818 242.137556 
L 218.965091 238.744307 
L 218.356364 233.304839 
L 217.747636 225.378232 
L 217.138909 214.376589 
L 216.530182 199.635266 
L 215.312727 162.008483 
L 213.486545 102.321503 
L 212.269091 70.615575 
L 211.660364 59.589678 
L 211.051636 52.253258 
L 210.442909 47.70135 
L 209.834182 45.17231 
L 209.225455 44.64 
L 208.616727 45.294894 
L 208.008 46.417235 
L 207.399273 47.981403 
L 206.790545 50.157385 
L 204.964364 58.776463 
L 204.355636 60.983862 
L 203.746909 62.390077 
L 201.920727 65.11483 
L 201.312 65.412161 
L 200.094545 65.233528 
L 197.659636 67.587152 
L 197.050909 68.010945 
L 196.442182 69.178474 
L 195.224727 73.560783 
L 190.354909 93.064197 
L 189.137455 100.303924 
L 187.92 107.259327 
L 186.702545 113.503101 
L 186.093818 117.417134 
L 184.876364 123.193905 
L 183.658909 128.491216 
L 182.441455 132.337056 
L 180.615273 140.11809 
L 179.397818 145.993486 
L 177.571636 153.166032 
L 176.962909 154.602227 
L 175.745455 156.5615 
L 172.093091 164.504599 
L 171.484364 165.715447 
L 170.875636 166.616274 
L 170.266909 167.11307 
L 169.658182 167.127397 
L 168.440727 168.368397 
L 167.832 168.748733 
L 167.223273 169.316464 
L 166.005818 171.816945 
L 164.788364 174.906121 
L 164.179636 175.701334 
L 163.570909 176.170223 
L 162.962182 177.19489 
L 162.353455 178.711131 
L 161.744727 179.897553 
L 160.527273 181.136502 
L 159.309818 181.904007 
L 158.092364 182.465513 
L 157.483636 182.489973 
L 156.874909 182.106363 
L 156.266182 182.09586 
L 155.048727 183.682831 
L 154.44 184.06317 
L 153.831273 184.134307 
L 152.613818 185.517733 
L 152.005091 186.22391 
L 149.570182 188.033132 
L 148.352727 189.586215 
L 147.744 189.789305 
L 145.917818 189.99065 
L 145.309091 190.756636 
L 144.700364 191.19371 
L 144.091636 191.22727 
L 142.265455 192.493909 
L 141.656727 192.650749 
L 141.048 192.624388 
L 139.221818 193.024449 
L 138.613091 192.954489 
L 136.178182 194.486726 
L 135.569455 195.365206 
L 134.960727 196.0423 
L 134.352 196.925784 
L 133.743273 197.057734 
L 133.134545 196.586423 
L 132.525818 196.447472 
L 131.917091 196.063639 
L 131.308364 195.980448 
L 130.699636 195.69982 
L 130.090909 194.909642 
L 129.482182 194.737251 
L 128.264727 195.218968 
L 127.656 196.049024 
L 126.438545 198.282309 
L 125.829818 199.397617 
L 124.612364 200.85095 
L 124.003636 201.081288 
L 123.394909 201.039734 
L 122.786182 200.68176 
L 121.568727 199.369767 
L 120.96 199.289915 
L 120.351273 198.964276 
L 118.525091 198.650611 
L 117.916364 198.618685 
L 117.307636 198.433171 
L 116.698909 198.074065 
L 116.090182 198.202038 
L 115.481455 197.655878 
L 114.872727 196.684537 
L 114.264 196.279061 
L 113.655273 195.55397 
L 113.046545 195.117196 
L 112.437818 195.315539 
L 111.829091 195.164493 
L 111.220364 194.868049 
L 110.611636 195.217299 
L 109.394182 196.69531 
L 108.785455 197.035784 
L 108.176727 197.002985 
L 107.568 197.273394 
L 106.350545 198.944682 
L 105.741818 199.333999 
L 105.133091 199.506751 
L 104.524364 199.805578 
L 103.306909 199.931553 
L 102.698182 199.723135 
L 102.089455 199.305986 
L 101.480727 199.169084 
L 100.263273 197.845809 
L 99.045818 196.306045 
L 98.437091 196.234313 
L 97.828364 195.973613 
L 97.219636 195.335967 
L 96.610909 194.941192 
L 96.002182 194.831442 
L 95.393455 195.021276 
L 94.176 195.862066 
L 91.132364 198.192772 
L 89.914909 198.839823 
L 89.306182 198.632617 
L 88.697455 198.154384 
L 88.088727 197.441206 
L 87.48 197.281932 
L 86.871273 197.645255 
L 86.262545 197.583785 
L 84.436364 196.538991 
L 82.610182 196.459668 
L 82.001455 196.708831 
L 80.784 196.601379 
L 78.349091 197.398136 
L 77.740364 197.507297 
L 77.131636 197.387766 
L 76.522909 196.884826 
L 75.914182 196.541756 
L 75.305455 196.524342 
L 74.696727 197.031437 
L 74.088 197.337195 
L 73.479273 196.743155 
L 72.870545 195.804672 
L 71.044364 194.810292 
L 70.435636 194.327389 
L 69.826909 193.406272 
L 69.218182 192.835048 
L 69.218182 192.835048 
" clip-path="url(#p3c9a27a73e)" style="fill: none; stroke: #8c564b; stroke-width: 1.5; stroke-linecap: square"/>
   </g>
   <g id="patch_3">
    <path d="M 54 256.32 
L 54 34.56 
" style="fill: none; stroke: #000000; stroke-width: 0.8; stroke-linejoin: miter; stroke-linecap: square"/>
   </g>
   <g id="patch_4">
    <path d="M 388.8 256.32 
L 388.8 34.56 
" style="fill: none; stroke: #000000; stroke-width: 0.8; stroke-linejoin: miter; stroke-linecap: square"/>
   </g>
   <g id="patch_5">
    <path d="M 54 256.32 
L 388.8 256.32 
" style="fill: none; stroke: #000000; stroke-width: 0.8; stroke-linejoin: miter; stroke-linecap: square"/>
   </g>
   <g id="patch_6">
    <path d="M 54 34.56 
L 388.8 34.56 
" style="fill: none; stroke: #000000; stroke-width: 0.8; stroke-linejoin: miter; stroke-linecap: square"/>
   </g>
   <g id="legend_1">
    <g id="patch_7">
     <path d="M 61 130.62875 
L 120.265625 130.62875 
Q 122.265625 130.62875 122.265625 128.62875 
L 122.265625 41.56 
Q 122.265625 39.56 120.265625 39.56 
L 61 39.56 
Q 59 39.56 59 41.56 
L 59 128.62875 
Q 59 130.62875 61 130.62875 
z
" style="fill: #ffffff; opacity: 0.8; stroke: #cccccc; stroke-linejoin: miter"/>
    </g>
    <g id="line2d_21">
     <path d="M 63 47.658438 
L 73 47.658438 
L 83 47.658438 
" style="fill: none; stroke: #1f77b4; stroke-width: 1.5; stroke-linecap: square"/>
    </g>
    <g id="text_15">
     <!-- 0 ° -->
     <g transform="translate(91 51.158438)scale(0.1 -0.1)">
      <defs>
       <path id="DejaVuSans-20" transform="scale(0.015625)"/>
       <path id="DejaVuSans-b0" d="M 1600 4347 
Q 1350 4347 1178 4173 
Q 1006 4000 1006 3750 
Q 1006 3503 1178 3333 
Q 1350 3163 1600 3163 
Q 1850 3163 2022 3333 
Q 2194 3503 2194 3750 
Q 2194 3997 2020 4172 
Q 1847 4347 1600 4347 
z
M 1600 4750 
Q 1800 4750 1984 4673 
Q 2169 4597 2303 4453 
Q 2447 4313 2519 4134 
Q 2591 3956 2591 3750 
Q 2591 3338 2302 3052 
Q 2013 2766 1594 2766 
Q 1172 2766 890 3047 
Q 609 3328 609 3750 
Q 609 4169 896 4459 
Q 1184 4750 1600 4750 
z
" transform="scale(0.015625)"/>
      </defs>
      <use xlink:href="#DejaVuSans-30"/>
      <use xlink:href="#DejaVuSans-20" x="63.623047"/>
      <use xlink:href="#DejaVuSans-b0" x="95.410156"/>
     </g>
    </g>
    <g id="line2d_22">
     <path d="M 63 62.336563 
L 73 62.336563 
L 83 62.336563 
" style="fill: none; stroke: #ff7f0e; stroke-width: 1.5; stroke-linecap: square"/>
    </g>
    <g id="text_16">
     <!-- 20 ° -->
     <g transform="translate(91 65.836563)scale(0.1 -0.1)">
      <use xlink:href="#DejaVuSans-32"/>
      <use xlink:href="#DejaVuSans-30" x="63.623047"/>
      <use xlink:href="#DejaVuSans-20" x="127.246094"/>
      <use xlink:href="#DejaVuSans-b0" x="159.033203"/>
     </g>
    </g>
    <g id="line2d_23">
     <path d="M 63 77.014688 
L 73 77.014688 
L 83 77.014688 
" style="fill: none; stroke: #2ca02c; stroke-width: 1.5; stroke-linecap: square"/>
    </g>
    <g id="text_17">
     <!-- 40 ° -->
     <g transform="translate(91 80.514688)scale(0.1 -0.1)">
      <defs>
       <path id="DejaVuSans-34" d="M 2419 4116 
L 825 1625 
L 2419 1625 
L 2419 4116 
z
M 2253 4666 
L 3047 4666 
L 3047 1625 
L 3713 1625 
L 3713 1100 
L 3047 1100 
L 3047 0 
L 2419 0 
L 2419 1100 
L 313 1100 
L 313 1709 
L 2253 4666 
z
" transform="scale(0.015625)"/>
      </defs>
      <use xlink:href="#DejaVuSans-34"/>
      <use xlink:href="#DejaVuSans-30" x="63.623047"/>
      <use xlink:href="#DejaVuSans-20" x="127.246094"/>
      <use xlink:href="#DejaVuSans-b0" x="159.033203"/>
     </g>
    </g>
    <g id="line2d_24">
     <path d="M 63 91.692813 
L 73 91.692813 
L 83 91.692813 
" style="fill: none; stroke: #d62728; stroke-width: 1.5; stroke-linecap: square"/>
    </g>
    <g id="text_18">
     <!-- 60 ° -->
     <g transform="translate(91 95.192813)scale(0.1 -0.1)">
      <defs>
       <path id="DejaVuSans-36" d="M 2113 2584 
Q 1688 2584 1439 2293 
Q 1191 2003 1191 1497 
Q 1191 994 1439 701 
Q 1688 409 2113 409 
Q 2538 409 2786 701 
Q 3034 994 3034 1497 
Q 3034 2003 2786 2293 
Q 2538 2584 2113 2584 
z
M 3366 4563 
L 3366 3988 
Q 3128 4100 2886 4159 
Q 2644 4219 2406 4219 
Q 1781 4219 1451 3797 
Q 1122 3375 1075 2522 
Q 1259 2794 1537 2939 
Q 1816 3084 2150 3084 
Q 2853 3084 3261 2657 
Q 3669 2231 3669 1497 
Q 3669 778 3244 343 
Q 2819 -91 2113 -91 
Q 1303 -91 875 529 
Q 447 1150 447 2328 
Q 447 3434 972 4092 
Q 1497 4750 2381 4750 
Q 2619 4750 2861 4703 
Q 3103 4656 3366 4563 
z
" transform="scale(0.015625)"/>
      </defs>
      <use xlink:href="#DejaVuSans-36"/>
      <use xlink:href="#DejaVuSans-30" x="63.623047"/>
      <use xlink:href="#DejaVuSans-20" x="127.246094"/>
      <use xlink:href="#DejaVuSans-b0" x="159.033203"/>
     </g>
    </g>
    <g id="line2d_25">
     <path d="M 63 106.370938 
L 73 106.370938 
L 83 106.370938 
" style="fill: none; stroke: #9467bd; stroke-width: 1.5; stroke-linecap: square"/>
    </g>
    <g id="text_19">
     <!-- 80 ° -->
     <g transform="translate(91 109.870938)scale(0.1 -0.1)">
      <defs>
       <path id="DejaVuSans-38" d="M 2034 2216 
Q 1584 2216 1326 1975 
Q 1069 1734 1069 1313 
Q 1069 891 1326 650 
Q 1584 409 2034 409 
Q 2484 409 2743 651 
Q 3003 894 3003 1313 
Q 3003 1734 2745 1975 
Q 2488 2216 2034 2216 
z
M 1403 2484 
Q 997 2584 770 2862 
Q 544 3141 544 3541 
Q 544 4100 942 4425 
Q 1341 4750 2034 4750 
Q 2731 4750 3128 4425 
Q 3525 4100 3525 3541 
Q 3525 3141 3298 2862 
Q 3072 2584 2669 2484 
Q 3125 2378 3379 2068 
Q 3634 1759 3634 1313 
Q 3634 634 3220 271 
Q 2806 -91 2034 -91 
Q 1263 -91 848 271 
Q 434 634 434 1313 
Q 434 1759 690 2068 
Q 947 2378 1403 2484 
z
M 1172 3481 
Q 1172 3119 1398 2916 
Q 1625 2713 2034 2713 
Q 2441 2713 2670 2916 
Q 2900 3119 2900 3481 
Q 2900 3844 2670 4047 
Q 2441 4250 2034 4250 
Q 1625 4250 1398 4047 
Q 1172 3844 1172 3481 
z
" transform="scale(0.015625)"/>
      </defs>
      <use xlink:href="#DejaVuSans-38"/>
      <use xlink:href="#DejaVuSans-30" x="63.623047"/>
      <use xlink:href="#DejaVuSans-20" x="127.246094"/>
      <use xlink:href="#DejaVuSans-b0" x="159.033203"/>
     </g>
    </g>
    <g id="line2d_26">
     <path d="M 63 121.049063 
L 73 121.049063 
L 83 121.049063 
" style="fill: none; stroke: #8c564b; stroke-width: 1.5; stroke-linecap: square"/>
    </g>
    <g id="text_20">
     <!-- 100 ° -->
     <g transform="translate(91 124.549063)scale(0.1 -0.1)">
      <use xlink:href="#DejaVuSans-31"/>
      <use xlink:href="#DejaVuSans-30" x="63.623047"/>
      <use xlink:href="#DejaVuSans-30" x="127.246094"/>
      <use xlink:href="#DejaVuSans-20" x="190.869141"/>
      <use xlink:href="#DejaVuSans-b0" x="222.65625"/>
     </g>
    </g>
   </g>
  </g>
 </g>
 <defs>
  <clipPath id="p3c9a27a73e">
   <rect x="54" y="34.56" width="334.8" height="221.76"/>
  </clipPath>
 </defs>
</svg>
