<?xml version="1.0" encoding="utf-8" standalone="no"?>
<!DOCTYPE svg PUBLIC "-//W3C//DTD SVG 1.1//EN"
  "http://www.w3.org/Graphics/SVG/1.1/DTD/svg11.dtd">
<svg xmlns:xlink="http://www.w3.org/1999/xlink" width="288pt" height="216pt" viewBox="0 0 288 216" xmlns="http://www.w3.org/2000/svg" version="1.1">
 <metadata>
  <rdf:RDF xmlns:dc="http://purl.org/dc/elements/1.1/" xmlns:cc="http://creativecommons.org/ns#" xmlns:rdf="http://www.w3.org/1999/02/22-rdf-syntax-ns#">
   <cc:Work>
    <dc:type rdf:resource="http://purl.org/dc/dcmitype/StillImage"/>
    <dc:date>2022-06-22T15:16:08.924564</dc:date>
    <dc:format>image/svg+xml</dc:format>
    <dc:creator>
     <cc:Agent>
      <dc:title>Matplotlib v3.5.1, https://matplotlib.org/</dc:title>
     </cc:Agent>
    </dc:creator>
   </cc:Work>
  </rdf:RDF>
 </metadata>
 <defs>
  <style type="text/css">*{stroke-linejoin: round; stroke-linecap: butt}</style>
 </defs>
 <g id="figure_1">
  <g id="patch_1">
   <path d="M 0 216 
L 288 216 
L 288 0 
L 0 0 
z
" style="fill: #ffffff"/>
  </g>
  <g id="axes_1">
   <g id="patch_2">
    <path d="M 36 192.24 
L 259.2 192.24 
L 259.2 25.92 
L 36 25.92 
z
" style="fill: #ffffff"/>
   </g>
   <g id="matplotlib.axis_1">
    <g id="xtick_1">
     <g id="line2d_1">
      <defs>
       <path id="m2322db8604" d="M 0 0 
L 0 3.5 
" style="stroke: #000000; stroke-width: 0.8"/>
      </defs>
      <g>
       <use xlink:href="#m2322db8604" x="46.145455" y="192.24" style="stroke: #000000; stroke-width: 0.8"/>
      </g>
     </g>
     <g id="text_1">
      <!-- 0 -->
      <g transform="translate(42.00983 209.117969)scale(0.13 -0.13)">
       <defs>
        <path id="DejaVuSans-30" d="M 2034 4250 
Q 1547 4250 1301 3770 
Q 1056 3291 1056 2328 
Q 1056 1369 1301 889 
Q 1547 409 2034 409 
Q 2525 409 2770 889 
Q 3016 1369 3016 2328 
Q 3016 3291 2770 3770 
Q 2525 4250 2034 4250 
z
M 2034 4750 
Q 2819 4750 3233 4129 
Q 3647 3509 3647 2328 
Q 3647 1150 3233 529 
Q 2819 -91 2034 -91 
Q 1250 -91 836 529 
Q 422 1150 422 2328 
Q 422 3509 836 4129 
Q 1250 4750 2034 4750 
z
" transform="scale(0.015625)"/>
       </defs>
       <use xlink:href="#DejaVuSans-30"/>
      </g>
     </g>
    </g>
    <g id="xtick_2">
     <g id="line2d_2">
      <g>
       <use xlink:href="#m2322db8604" x="93.113132" y="192.24" style="stroke: #000000; stroke-width: 0.8"/>
      </g>
     </g>
     <g id="text_2">
      <!-- 20 -->
      <g transform="translate(84.841882 209.117969)scale(0.13 -0.13)">
       <defs>
        <path id="DejaVuSans-32" d="M 1228 531 
L 3431 531 
L 3431 0 
L 469 0 
L 469 531 
Q 828 903 1448 1529 
Q 2069 2156 2228 2338 
Q 2531 2678 2651 2914 
Q 2772 3150 2772 3378 
Q 2772 3750 2511 3984 
Q 2250 4219 1831 4219 
Q 1534 4219 1204 4116 
Q 875 4013 500 3803 
L 500 4441 
Q 881 4594 1212 4672 
Q 1544 4750 1819 4750 
Q 2544 4750 2975 4387 
Q 3406 4025 3406 3419 
Q 3406 3131 3298 2873 
Q 3191 2616 2906 2266 
Q 2828 2175 2409 1742 
Q 1991 1309 1228 531 
z
" transform="scale(0.015625)"/>
       </defs>
       <use xlink:href="#DejaVuSans-32"/>
       <use xlink:href="#DejaVuSans-30" x="63.623047"/>
      </g>
     </g>
    </g>
    <g id="xtick_3">
     <g id="line2d_3">
      <g>
       <use xlink:href="#m2322db8604" x="140.080809" y="192.24" style="stroke: #000000; stroke-width: 0.8"/>
      </g>
     </g>
     <g id="text_3">
      <!-- 40 -->
      <g transform="translate(131.809559 209.117969)scale(0.13 -0.13)">
       <defs>
        <path id="DejaVuSans-34" d="M 2419 4116 
L 825 1625 
L 2419 1625 
L 2419 4116 
z
M 2253 4666 
L 3047 4666 
L 3047 1625 
L 3713 1625 
L 3713 1100 
L 3047 1100 
L 3047 0 
L 2419 0 
L 2419 1100 
L 313 1100 
L 313 1709 
L 2253 4666 
z
" transform="scale(0.015625)"/>
       </defs>
       <use xlink:href="#DejaVuSans-34"/>
       <use xlink:href="#DejaVuSans-30" x="63.623047"/>
      </g>
     </g>
    </g>
    <g id="xtick_4">
     <g id="line2d_4">
      <g>
       <use xlink:href="#m2322db8604" x="187.048486" y="192.24" style="stroke: #000000; stroke-width: 0.8"/>
      </g>
     </g>
     <g id="text_4">
      <!-- 60 -->
      <g transform="translate(178.777236 209.117969)scale(0.13 -0.13)">
       <defs>
        <path id="DejaVuSans-36" d="M 2113 2584 
Q 1688 2584 1439 2293 
Q 1191 2003 1191 1497 
Q 1191 994 1439 701 
Q 1688 409 2113 409 
Q 2538 409 2786 701 
Q 3034 994 3034 1497 
Q 3034 2003 2786 2293 
Q 2538 2584 2113 2584 
z
M 3366 4563 
L 3366 3988 
Q 3128 4100 2886 4159 
Q 2644 4219 2406 4219 
Q 1781 4219 1451 3797 
Q 1122 3375 1075 2522 
Q 1259 2794 1537 2939 
Q 1816 3084 2150 3084 
Q 2853 3084 3261 2657 
Q 3669 2231 3669 1497 
Q 3669 778 3244 343 
Q 2819 -91 2113 -91 
Q 1303 -91 875 529 
Q 447 1150 447 2328 
Q 447 3434 972 4092 
Q 1497 4750 2381 4750 
Q 2619 4750 2861 4703 
Q 3103 4656 3366 4563 
z
" transform="scale(0.015625)"/>
       </defs>
       <use xlink:href="#DejaVuSans-36"/>
       <use xlink:href="#DejaVuSans-30" x="63.623047"/>
      </g>
     </g>
    </g>
    <g id="xtick_5">
     <g id="line2d_5">
      <g>
       <use xlink:href="#m2322db8604" x="234.016163" y="192.24" style="stroke: #000000; stroke-width: 0.8"/>
      </g>
     </g>
     <g id="text_5">
      <!-- 80 -->
      <g transform="translate(225.744913 209.117969)scale(0.13 -0.13)">
       <defs>
        <path id="DejaVuSans-38" d="M 2034 2216 
Q 1584 2216 1326 1975 
Q 1069 1734 1069 1313 
Q 1069 891 1326 650 
Q 1584 409 2034 409 
Q 2484 409 2743 651 
Q 3003 894 3003 1313 
Q 3003 1734 2745 1975 
Q 2488 2216 2034 2216 
z
M 1403 2484 
Q 997 2584 770 2862 
Q 544 3141 544 3541 
Q 544 4100 942 4425 
Q 1341 4750 2034 4750 
Q 2731 4750 3128 4425 
Q 3525 4100 3525 3541 
Q 3525 3141 3298 2862 
Q 3072 2584 2669 2484 
Q 3125 2378 3379 2068 
Q 3634 1759 3634 1313 
Q 3634 634 3220 271 
Q 2806 -91 2034 -91 
Q 1263 -91 848 271 
Q 434 634 434 1313 
Q 434 1759 690 2068 
Q 947 2378 1403 2484 
z
M 1172 3481 
Q 1172 3119 1398 2916 
Q 1625 2713 2034 2713 
Q 2441 2713 2670 2916 
Q 2900 3119 2900 3481 
Q 2900 3844 2670 4047 
Q 2441 4250 2034 4250 
Q 1625 4250 1398 4047 
Q 1172 3844 1172 3481 
z
" transform="scale(0.015625)"/>
       </defs>
       <use xlink:href="#DejaVuSans-38"/>
       <use xlink:href="#DejaVuSans-30" x="63.623047"/>
      </g>
     </g>
    </g>
   </g>
   <g id="matplotlib.axis_2">
    <g id="ytick_1">
     <g id="line2d_6">
      <defs>
       <path id="m61de1b313d" d="M 0 0 
L -3.5 0 
" style="stroke: #000000; stroke-width: 0.8"/>
      </defs>
      <g>
       <use xlink:href="#m61de1b313d" x="36" y="184.68" style="stroke: #000000; stroke-width: 0.8"/>
      </g>
     </g>
     <g id="text_6">
      <!-- 0 -->
      <g transform="translate(20.72875 189.618984)scale(0.13 -0.13)">
       <use xlink:href="#DejaVuSans-30"/>
      </g>
     </g>
    </g>
    <g id="ytick_2">
     <g id="line2d_7">
      <g>
       <use xlink:href="#m61de1b313d" x="36" y="137.794747" style="stroke: #000000; stroke-width: 0.8"/>
      </g>
     </g>
     <g id="text_7">
      <!-- 20 -->
      <g transform="translate(12.4575 142.733731)scale(0.13 -0.13)">
       <use xlink:href="#DejaVuSans-32"/>
       <use xlink:href="#DejaVuSans-30" x="63.623047"/>
      </g>
     </g>
    </g>
    <g id="ytick_3">
     <g id="line2d_8">
      <g>
       <use xlink:href="#m61de1b313d" x="36" y="90.909494" style="stroke: #000000; stroke-width: 0.8"/>
      </g>
     </g>
     <g id="text_8">
      <!-- 40 -->
      <g transform="translate(12.4575 95.848479)scale(0.13 -0.13)">
       <use xlink:href="#DejaVuSans-34"/>
       <use xlink:href="#DejaVuSans-30" x="63.623047"/>
      </g>
     </g>
    </g>
    <g id="ytick_4">
     <g id="line2d_9">
      <g>
       <use xlink:href="#m61de1b313d" x="36" y="44.024241" style="stroke: #000000; stroke-width: 0.8"/>
      </g>
     </g>
     <g id="text_9">
      <!-- 60 -->
      <g transform="translate(12.4575 48.963226)scale(0.13 -0.13)">
       <use xlink:href="#DejaVuSans-36"/>
       <use xlink:href="#DejaVuSans-30" x="63.623047"/>
      </g>
     </g>
    </g>
   </g>
   <g id="line2d_10">
    <path d="M 46.145455 184.68 
L 50.286456 182.922665 
L 54.427458 180.086955 
L 58.56846 177.267441 
L 62.709462 174.489771 
L 66.850464 171.728236 
L 70.991466 168.967831 
L 75.132468 166.200552 
L 79.273469 163.421924 
L 83.414471 160.62929 
L 87.555473 157.820991 
L 91.696475 154.995939 
L 95.837477 152.153396 
L 99.978479 149.292846 
L 104.119481 146.413917 
L 108.260482 143.516334 
L 112.401484 140.599895 
L 116.542486 137.664442 
L 120.683488 134.709857 
L 124.82449 131.736046 
L 128.965492 128.742939 
L 133.106494 125.730477 
L 137.247495 122.698618 
L 141.388497 119.647326 
L 145.529499 116.576575 
L 149.670501 113.486345 
L 153.811503 110.376621 
L 157.952505 107.247394 
L 162.093506 104.098657 
L 166.234508 100.930406 
L 170.37551 97.742642 
L 174.516512 94.535366 
L 178.657514 91.308583 
L 182.798516 88.062298 
L 186.939518 84.796521 
L 191.080519 81.511259 
L 195.221521 78.206524 
L 199.362523 74.882329 
L 203.503525 71.538687 
L 207.644527 68.175612 
L 211.785529 64.79312 
L 215.926531 61.391228 
L 220.067532 57.969954 
L 224.208534 54.529315 
L 228.349536 51.069333 
L 232.490538 47.590026 
L 236.63154 44.091417 
L 240.772542 40.573528 
L 244.913544 37.036381 
L 249.054545 33.48 
" clip-path="url(#pab4500e4d3)" style="fill: none; stroke: #1f77b4; stroke-width: 1.5; stroke-linecap: square"/>
   </g>
   <g id="line2d_11">
    <path d="M 46.145455 184.68 
L 50.286456 183.424356 
L 54.427458 181.020972 
L 58.56846 178.49557 
L 62.709462 176.000449 
L 66.850464 173.534455 
L 70.991466 171.08475 
L 75.132468 168.641957 
L 79.273469 166.200075 
L 83.414471 163.755278 
L 87.555473 161.305068 
L 91.696475 158.847768 
L 95.837477 156.382223 
L 99.978479 153.90762 
L 104.119481 151.423374 
L 108.260482 148.929059 
L 112.401484 146.42436 
L 116.542486 143.909045 
L 120.683488 141.382939 
L 124.82449 138.845914 
L 128.965492 136.297875 
L 133.106494 133.738753 
L 137.247495 131.1685 
L 141.388497 128.587086 
L 145.529499 125.994492 
L 149.670501 123.390712 
L 153.811503 120.775748 
L 157.952505 118.149609 
L 162.093506 115.51231 
L 166.234508 112.863873 
L 170.37551 110.204323 
L 174.516512 107.53369 
L 178.657514 104.852007 
L 182.798516 102.15931 
L 186.939518 99.455637 
L 191.080519 96.74103 
L 195.221521 94.015532 
L 199.362523 91.279188 
L 203.503525 88.532045 
L 207.644527 85.774152 
L 211.785529 83.00556 
L 215.926531 80.22632 
L 220.067532 77.436484 
L 224.208534 74.636108 
L 228.349536 71.825247 
L 232.490538 69.003956 
L 236.63154 66.172295 
L 240.772542 63.330321 
L 244.913544 60.478093 
L 249.054545 57.615674 
" clip-path="url(#pab4500e4d3)" style="fill: none; stroke: #ff7f0e; stroke-width: 1.5; stroke-linecap: square"/>
   </g>
   <g id="line2d_12">
    <path d="M 46.145455 184.68 
L 50.286456 183.733806 
L 54.427458 181.491376 
L 58.56846 178.755249 
L 62.709462 175.888834 
L 66.850464 173.008166 
L 70.991466 170.14359 
L 75.132468 167.299304 
L 79.273469 164.472369 
L 83.414471 161.658537 
L 87.555473 158.853912 
L 91.696475 156.055306 
L 95.837477 153.260219 
L 99.978479 150.466716 
L 104.119481 147.673305 
L 108.260482 144.878834 
L 112.401484 142.082413 
L 116.542486 139.283351 
L 120.683488 136.481113 
L 124.82449 133.675281 
L 128.965492 130.865534 
L 133.106494 128.051626 
L 137.247495 125.233367 
L 141.388497 122.410617 
L 145.529499 119.583277 
L 149.670501 116.751275 
L 153.811503 113.914569 
L 157.952505 111.073137 
L 162.093506 108.226975 
L 166.234508 105.376093 
L 170.37551 102.520517 
L 174.516512 99.660281 
L 178.657514 96.795428 
L 182.798516 93.926012 
L 186.939518 91.05209 
L 191.080519 88.173727 
L 195.221521 85.290992 
L 199.362523 82.40396 
L 203.503525 79.512708 
L 207.644527 76.617318 
L 211.785529 73.717873 
L 215.926531 70.814459 
L 220.067532 67.907167 
L 224.208534 64.996086 
L 228.349536 62.081309 
L 232.490538 59.16293 
L 236.63154 56.241045 
L 240.772542 53.31575 
L 244.913544 50.387142 
L 249.054545 47.45532 
" clip-path="url(#pab4500e4d3)" style="fill: none; stroke: #2ca02c; stroke-width: 1.5; stroke-linecap: square"/>
   </g>
   <g id="line2d_13">
    <path d="M 46.145455 184.68 
L 50.286456 183.742311 
L 54.427458 181.525398 
L 58.56846 178.831794 
L 62.709462 176.024907 
L 66.850464 173.220765 
L 70.991466 170.449708 
L 75.132468 167.715923 
L 79.273469 165.016462 
L 83.414471 162.347067 
L 87.555473 159.703826 
L 91.696475 157.08354 
L 95.837477 154.483689 
L 99.978479 151.902323 
L 104.119481 149.337929 
L 108.260482 146.789336 
L 112.401484 144.255631 
L 116.542486 141.7361 
L 120.683488 139.23018 
L 124.82449 136.73743 
L 128.965492 134.257499 
L 133.106494 131.79011 
L 137.247495 129.335045 
L 141.388497 126.89213 
L 145.529499 124.46123 
L 149.670501 122.042241 
L 153.811503 119.635081 
L 157.952505 117.239691 
L 162.093506 114.856027 
L 166.234508 112.484058 
L 170.37551 110.123767 
L 174.516512 107.775144 
L 178.657514 105.438188 
L 182.798516 103.112904 
L 186.939518 100.799302 
L 191.080519 98.497397 
L 195.221521 96.207209 
L 199.362523 93.928758 
L 203.503525 91.66207 
L 207.644527 89.40717 
L 211.785529 87.164087 
L 215.926531 84.93285 
L 220.067532 82.713488 
L 224.208534 80.506034 
L 228.349536 78.310518 
L 232.490538 76.126972 
L 236.63154 73.955429 
L 240.772542 71.795919 
L 244.913544 69.648474 
L 249.054545 67.513127 
" clip-path="url(#pab4500e4d3)" style="fill: none; stroke: #d62728; stroke-width: 1.5; stroke-linecap: square"/>
   </g>
   <g id="line2d_14">
    <path d="M 46.145455 184.68 
L 50.286456 183.436858 
L 54.427458 181.070981 
L 58.56846 178.608088 
L 62.709462 176.200473 
L 66.850464 173.846977 
L 70.991466 171.534754 
L 75.132468 169.254419 
L 79.273469 166.99996 
L 83.414471 164.767539 
L 87.555473 162.554642 
L 91.696475 160.359578 
L 95.837477 158.181175 
L 99.978479 156.018601 
L 104.119481 153.87125 
L 108.260482 151.738674 
L 112.401484 149.620534 
L 116.542486 147.516573 
L 120.683488 145.42659 
L 124.82449 143.350427 
L 128.965492 141.287958 
L 133.106494 139.239084 
L 137.247495 137.203724 
L 141.388497 135.181811 
L 145.529499 133.173291 
L 149.670501 131.17812 
L 153.811503 129.196258 
L 157.952505 127.227675 
L 162.093506 125.272342 
L 166.234508 123.330238 
L 170.37551 121.401341 
L 174.516512 119.485633 
L 178.657514 117.583098 
L 182.798516 115.693723 
L 186.939518 113.817492 
L 191.080519 111.954395 
L 195.221521 110.104418 
L 199.362523 108.267551 
L 203.503525 106.443783 
L 207.644527 104.633103 
L 211.785529 102.835501 
L 215.926531 101.050964 
L 220.067532 99.279483 
L 224.208534 97.521046 
L 228.349536 95.775642 
L 232.490538 94.043259 
L 236.63154 92.323885 
L 240.772542 90.617508 
L 244.913544 88.924115 
L 249.054545 87.243691 
" clip-path="url(#pab4500e4d3)" style="fill: none; stroke: #9467bd; stroke-width: 1.5; stroke-linecap: square"/>
   </g>
   <g id="line2d_15">
    <path d="M 46.145455 184.68 
L 50.286456 182.942487 
L 54.427458 180.166239 
L 58.56846 177.44583 
L 62.709462 174.806901 
L 66.850464 172.223742 
L 70.991466 169.681341 
L 75.132468 167.17169 
L 79.273469 164.690305 
L 83.414471 162.234523 
L 87.555473 159.802673 
L 91.696475 157.393659 
L 95.837477 155.006732 
L 99.978479 152.641361 
L 104.119481 150.297162 
L 108.260482 147.973846 
L 112.401484 145.671193 
L 116.542486 143.389031 
L 120.683488 141.127221 
L 124.82449 138.885653 
L 128.965492 136.664234 
L 133.106494 134.462887 
L 137.247495 132.281544 
L 141.388497 130.120149 
L 145.529499 127.97865 
L 149.670501 125.857001 
L 153.811503 123.755162 
L 157.952505 121.673094 
L 162.093506 119.610763 
L 166.234508 117.568135 
L 170.37551 115.545179 
L 174.516512 113.541865 
L 178.657514 111.558164 
L 182.798516 109.594047 
L 186.939518 107.649489 
L 191.080519 105.724461 
L 195.221521 103.818937 
L 199.362523 101.93289 
L 203.503525 100.066296 
L 207.644527 98.219126 
L 211.785529 96.391356 
L 215.926531 94.582959 
L 220.067532 92.793908 
L 224.208534 91.024178 
L 228.349536 89.273741 
L 232.490538 87.542572 
L 236.63154 85.830642 
L 240.772542 84.137924 
L 244.913544 82.464391 
L 249.054545 80.810015 
" clip-path="url(#pab4500e4d3)" style="fill: none; stroke: #8c564b; stroke-width: 1.5; stroke-linecap: square"/>
   </g>
   <g id="line2d_16">
    <path d="M 46.145455 165.832128 
L 50.286456 165.832128 
L 54.427458 165.832128 
L 58.56846 165.832128 
L 62.709462 165.832128 
L 66.850464 165.832128 
L 70.991466 165.832128 
L 75.132468 165.832128 
L 79.273469 165.832128 
L 83.414471 165.832128 
L 87.555473 165.832128 
L 91.696475 165.832128 
L 95.837477 165.832128 
L 99.978479 165.832128 
L 104.119481 165.832128 
L 108.260482 165.832128 
L 112.401484 165.832128 
L 116.542486 165.832128 
L 120.683488 165.832128 
L 124.82449 165.832128 
L 128.965492 165.832128 
L 133.106494 165.832128 
L 137.247495 165.832128 
L 141.388497 165.832128 
L 145.529499 165.832128 
L 149.670501 165.832128 
L 153.811503 165.832128 
L 157.952505 165.832128 
L 162.093506 165.832128 
L 166.234508 165.832128 
L 170.37551 165.832128 
L 174.516512 165.832128 
L 178.657514 165.832128 
L 182.798516 165.832128 
L 186.939518 165.832128 
L 191.080519 165.832128 
L 195.221521 165.832128 
L 199.362523 165.832128 
L 203.503525 165.832128 
L 207.644527 165.832128 
L 211.785529 165.832128 
L 215.926531 165.832128 
L 220.067532 165.832128 
L 224.208534 165.832128 
L 228.349536 165.832128 
L 232.490538 165.832128 
L 236.63154 165.832128 
L 240.772542 165.832128 
L 244.913544 165.832128 
L 249.054545 165.832128 
" clip-path="url(#pab4500e4d3)" style="fill: none; stroke-dasharray: 5.55,2.4; stroke-dashoffset: 0; stroke: #e377c2; stroke-width: 1.5"/>
   </g>
   <g id="patch_3">
    <path d="M 36 192.24 
L 36 25.92 
" style="fill: none; stroke: #000000; stroke-width: 0.8; stroke-linejoin: miter; stroke-linecap: square"/>
   </g>
   <g id="patch_4">
    <path d="M 259.2 192.24 
L 259.2 25.92 
" style="fill: none; stroke: #000000; stroke-width: 0.8; stroke-linejoin: miter; stroke-linecap: square"/>
   </g>
   <g id="patch_5">
    <path d="M 36 192.24 
L 259.2 192.24 
" style="fill: none; stroke: #000000; stroke-width: 0.8; stroke-linejoin: miter; stroke-linecap: square"/>
   </g>
   <g id="patch_6">
    <path d="M 36 25.92 
L 259.2 25.92 
" style="fill: none; stroke: #000000; stroke-width: 0.8; stroke-linejoin: miter; stroke-linecap: square"/>
   </g>
  </g>
 </g>
 <defs>
  <clipPath id="pab4500e4d3">
   <rect x="36" y="25.92" width="223.2" height="166.32"/>
  </clipPath>
 </defs>
</svg>
