<?xml version="1.0" encoding="utf-8" standalone="no"?>
<!DOCTYPE svg PUBLIC "-//W3C//DTD SVG 1.1//EN"
  "http://www.w3.org/Graphics/SVG/1.1/DTD/svg11.dtd">
<svg xmlns:xlink="http://www.w3.org/1999/xlink" width="288pt" height="216pt" viewBox="0 0 288 216" xmlns="http://www.w3.org/2000/svg" version="1.1">
 <metadata>
  <rdf:RDF xmlns:dc="http://purl.org/dc/elements/1.1/" xmlns:cc="http://creativecommons.org/ns#" xmlns:rdf="http://www.w3.org/1999/02/22-rdf-syntax-ns#">
   <cc:Work>
    <dc:type rdf:resource="http://purl.org/dc/dcmitype/StillImage"/>
    <dc:date>2022-06-22T15:10:58.866050</dc:date>
    <dc:format>image/svg+xml</dc:format>
    <dc:creator>
     <cc:Agent>
      <dc:title>Matplotlib v3.5.1, https://matplotlib.org/</dc:title>
     </cc:Agent>
    </dc:creator>
   </cc:Work>
  </rdf:RDF>
 </metadata>
 <defs>
  <style type="text/css">*{stroke-linejoin: round; stroke-linecap: butt}</style>
 </defs>
 <g id="figure_1">
  <g id="patch_1">
   <path d="M 0 216 
L 288 216 
L 288 0 
L 0 0 
z
" style="fill: #ffffff"/>
  </g>
  <g id="axes_1">
   <g id="patch_2">
    <path d="M 36 192.24 
L 259.2 192.24 
L 259.2 25.92 
L 36 25.92 
z
" style="fill: #ffffff"/>
   </g>
   <g id="matplotlib.axis_1">
    <g id="xtick_1">
     <g id="line2d_1">
      <defs>
       <path id="m6fb66ea9c4" d="M 0 0 
L 0 3.5 
" style="stroke: #000000; stroke-width: 0.8"/>
      </defs>
      <g>
       <use xlink:href="#m6fb66ea9c4" x="46.145455" y="192.24" style="stroke: #000000; stroke-width: 0.8"/>
      </g>
     </g>
     <g id="text_1">
      <!-- 0 -->
      <g transform="translate(42.00983 209.117969)scale(0.13 -0.13)">
       <defs>
        <path id="DejaVuSans-30" d="M 2034 4250 
Q 1547 4250 1301 3770 
Q 1056 3291 1056 2328 
Q 1056 1369 1301 889 
Q 1547 409 2034 409 
Q 2525 409 2770 889 
Q 3016 1369 3016 2328 
Q 3016 3291 2770 3770 
Q 2525 4250 2034 4250 
z
M 2034 4750 
Q 2819 4750 3233 4129 
Q 3647 3509 3647 2328 
Q 3647 1150 3233 529 
Q 2819 -91 2034 -91 
Q 1250 -91 836 529 
Q 422 1150 422 2328 
Q 422 3509 836 4129 
Q 1250 4750 2034 4750 
z
" transform="scale(0.015625)"/>
       </defs>
       <use xlink:href="#DejaVuSans-30"/>
      </g>
     </g>
    </g>
    <g id="xtick_2">
     <g id="line2d_2">
      <g>
       <use xlink:href="#m6fb66ea9c4" x="93.113132" y="192.24" style="stroke: #000000; stroke-width: 0.8"/>
      </g>
     </g>
     <g id="text_2">
      <!-- 20 -->
      <g transform="translate(84.841882 209.117969)scale(0.13 -0.13)">
       <defs>
        <path id="DejaVuSans-32" d="M 1228 531 
L 3431 531 
L 3431 0 
L 469 0 
L 469 531 
Q 828 903 1448 1529 
Q 2069 2156 2228 2338 
Q 2531 2678 2651 2914 
Q 2772 3150 2772 3378 
Q 2772 3750 2511 3984 
Q 2250 4219 1831 4219 
Q 1534 4219 1204 4116 
Q 875 4013 500 3803 
L 500 4441 
Q 881 4594 1212 4672 
Q 1544 4750 1819 4750 
Q 2544 4750 2975 4387 
Q 3406 4025 3406 3419 
Q 3406 3131 3298 2873 
Q 3191 2616 2906 2266 
Q 2828 2175 2409 1742 
Q 1991 1309 1228 531 
z
" transform="scale(0.015625)"/>
       </defs>
       <use xlink:href="#DejaVuSans-32"/>
       <use xlink:href="#DejaVuSans-30" x="63.623047"/>
      </g>
     </g>
    </g>
    <g id="xtick_3">
     <g id="line2d_3">
      <g>
       <use xlink:href="#m6fb66ea9c4" x="140.080809" y="192.24" style="stroke: #000000; stroke-width: 0.8"/>
      </g>
     </g>
     <g id="text_3">
      <!-- 40 -->
      <g transform="translate(131.809559 209.117969)scale(0.13 -0.13)">
       <defs>
        <path id="DejaVuSans-34" d="M 2419 4116 
L 825 1625 
L 2419 1625 
L 2419 4116 
z
M 2253 4666 
L 3047 4666 
L 3047 1625 
L 3713 1625 
L 3713 1100 
L 3047 1100 
L 3047 0 
L 2419 0 
L 2419 1100 
L 313 1100 
L 313 1709 
L 2253 4666 
z
" transform="scale(0.015625)"/>
       </defs>
       <use xlink:href="#DejaVuSans-34"/>
       <use xlink:href="#DejaVuSans-30" x="63.623047"/>
      </g>
     </g>
    </g>
    <g id="xtick_4">
     <g id="line2d_4">
      <g>
       <use xlink:href="#m6fb66ea9c4" x="187.048486" y="192.24" style="stroke: #000000; stroke-width: 0.8"/>
      </g>
     </g>
     <g id="text_4">
      <!-- 60 -->
      <g transform="translate(178.777236 209.117969)scale(0.13 -0.13)">
       <defs>
        <path id="DejaVuSans-36" d="M 2113 2584 
Q 1688 2584 1439 2293 
Q 1191 2003 1191 1497 
Q 1191 994 1439 701 
Q 1688 409 2113 409 
Q 2538 409 2786 701 
Q 3034 994 3034 1497 
Q 3034 2003 2786 2293 
Q 2538 2584 2113 2584 
z
M 3366 4563 
L 3366 3988 
Q 3128 4100 2886 4159 
Q 2644 4219 2406 4219 
Q 1781 4219 1451 3797 
Q 1122 3375 1075 2522 
Q 1259 2794 1537 2939 
Q 1816 3084 2150 3084 
Q 2853 3084 3261 2657 
Q 3669 2231 3669 1497 
Q 3669 778 3244 343 
Q 2819 -91 2113 -91 
Q 1303 -91 875 529 
Q 447 1150 447 2328 
Q 447 3434 972 4092 
Q 1497 4750 2381 4750 
Q 2619 4750 2861 4703 
Q 3103 4656 3366 4563 
z
" transform="scale(0.015625)"/>
       </defs>
       <use xlink:href="#DejaVuSans-36"/>
       <use xlink:href="#DejaVuSans-30" x="63.623047"/>
      </g>
     </g>
    </g>
    <g id="xtick_5">
     <g id="line2d_5">
      <g>
       <use xlink:href="#m6fb66ea9c4" x="234.016163" y="192.24" style="stroke: #000000; stroke-width: 0.8"/>
      </g>
     </g>
     <g id="text_5">
      <!-- 80 -->
      <g transform="translate(225.744913 209.117969)scale(0.13 -0.13)">
       <defs>
        <path id="DejaVuSans-38" d="M 2034 2216 
Q 1584 2216 1326 1975 
Q 1069 1734 1069 1313 
Q 1069 891 1326 650 
Q 1584 409 2034 409 
Q 2484 409 2743 651 
Q 3003 894 3003 1313 
Q 3003 1734 2745 1975 
Q 2488 2216 2034 2216 
z
M 1403 2484 
Q 997 2584 770 2862 
Q 544 3141 544 3541 
Q 544 4100 942 4425 
Q 1341 4750 2034 4750 
Q 2731 4750 3128 4425 
Q 3525 4100 3525 3541 
Q 3525 3141 3298 2862 
Q 3072 2584 2669 2484 
Q 3125 2378 3379 2068 
Q 3634 1759 3634 1313 
Q 3634 634 3220 271 
Q 2806 -91 2034 -91 
Q 1263 -91 848 271 
Q 434 634 434 1313 
Q 434 1759 690 2068 
Q 947 2378 1403 2484 
z
M 1172 3481 
Q 1172 3119 1398 2916 
Q 1625 2713 2034 2713 
Q 2441 2713 2670 2916 
Q 2900 3119 2900 3481 
Q 2900 3844 2670 4047 
Q 2441 4250 2034 4250 
Q 1625 4250 1398 4047 
Q 1172 3844 1172 3481 
z
" transform="scale(0.015625)"/>
       </defs>
       <use xlink:href="#DejaVuSans-38"/>
       <use xlink:href="#DejaVuSans-30" x="63.623047"/>
      </g>
     </g>
    </g>
   </g>
   <g id="matplotlib.axis_2">
    <g id="ytick_1">
     <g id="line2d_6">
      <defs>
       <path id="m7daa229643" d="M 0 0 
L -3.5 0 
" style="stroke: #000000; stroke-width: 0.8"/>
      </defs>
      <g>
       <use xlink:href="#m7daa229643" x="36" y="174.730418" style="stroke: #000000; stroke-width: 0.8"/>
      </g>
     </g>
     <g id="text_6">
      <!-- 2700 -->
      <g transform="translate(-4.085 179.669403)scale(0.13 -0.13)">
       <defs>
        <path id="DejaVuSans-37" d="M 525 4666 
L 3525 4666 
L 3525 4397 
L 1831 0 
L 1172 0 
L 2766 4134 
L 525 4134 
L 525 4666 
z
" transform="scale(0.015625)"/>
       </defs>
       <use xlink:href="#DejaVuSans-32"/>
       <use xlink:href="#DejaVuSans-37" x="63.623047"/>
       <use xlink:href="#DejaVuSans-30" x="127.246094"/>
       <use xlink:href="#DejaVuSans-30" x="190.869141"/>
      </g>
     </g>
    </g>
    <g id="ytick_2">
     <g id="line2d_7">
      <g>
       <use xlink:href="#m7daa229643" x="36" y="137.952086" style="stroke: #000000; stroke-width: 0.8"/>
      </g>
     </g>
     <g id="text_7">
      <!-- 2800 -->
      <g transform="translate(-4.085 142.89107)scale(0.13 -0.13)">
       <use xlink:href="#DejaVuSans-32"/>
       <use xlink:href="#DejaVuSans-38" x="63.623047"/>
       <use xlink:href="#DejaVuSans-30" x="127.246094"/>
       <use xlink:href="#DejaVuSans-30" x="190.869141"/>
      </g>
     </g>
    </g>
    <g id="ytick_3">
     <g id="line2d_8">
      <g>
       <use xlink:href="#m7daa229643" x="36" y="101.173753" style="stroke: #000000; stroke-width: 0.8"/>
      </g>
     </g>
     <g id="text_8">
      <!-- 2900 -->
      <g transform="translate(-4.085 106.112738)scale(0.13 -0.13)">
       <defs>
        <path id="DejaVuSans-39" d="M 703 97 
L 703 672 
Q 941 559 1184 500 
Q 1428 441 1663 441 
Q 2288 441 2617 861 
Q 2947 1281 2994 2138 
Q 2813 1869 2534 1725 
Q 2256 1581 1919 1581 
Q 1219 1581 811 2004 
Q 403 2428 403 3163 
Q 403 3881 828 4315 
Q 1253 4750 1959 4750 
Q 2769 4750 3195 4129 
Q 3622 3509 3622 2328 
Q 3622 1225 3098 567 
Q 2575 -91 1691 -91 
Q 1453 -91 1209 -44 
Q 966 3 703 97 
z
M 1959 2075 
Q 2384 2075 2632 2365 
Q 2881 2656 2881 3163 
Q 2881 3666 2632 3958 
Q 2384 4250 1959 4250 
Q 1534 4250 1286 3958 
Q 1038 3666 1038 3163 
Q 1038 2656 1286 2365 
Q 1534 2075 1959 2075 
z
" transform="scale(0.015625)"/>
       </defs>
       <use xlink:href="#DejaVuSans-32"/>
       <use xlink:href="#DejaVuSans-39" x="63.623047"/>
       <use xlink:href="#DejaVuSans-30" x="127.246094"/>
       <use xlink:href="#DejaVuSans-30" x="190.869141"/>
      </g>
     </g>
    </g>
    <g id="ytick_4">
     <g id="line2d_9">
      <g>
       <use xlink:href="#m7daa229643" x="36" y="64.395421" style="stroke: #000000; stroke-width: 0.8"/>
      </g>
     </g>
     <g id="text_9">
      <!-- 3000 -->
      <g transform="translate(-4.085 69.334405)scale(0.13 -0.13)">
       <defs>
        <path id="DejaVuSans-33" d="M 2597 2516 
Q 3050 2419 3304 2112 
Q 3559 1806 3559 1356 
Q 3559 666 3084 287 
Q 2609 -91 1734 -91 
Q 1441 -91 1130 -33 
Q 819 25 488 141 
L 488 750 
Q 750 597 1062 519 
Q 1375 441 1716 441 
Q 2309 441 2620 675 
Q 2931 909 2931 1356 
Q 2931 1769 2642 2001 
Q 2353 2234 1838 2234 
L 1294 2234 
L 1294 2753 
L 1863 2753 
Q 2328 2753 2575 2939 
Q 2822 3125 2822 3475 
Q 2822 3834 2567 4026 
Q 2313 4219 1838 4219 
Q 1578 4219 1281 4162 
Q 984 4106 628 3988 
L 628 4550 
Q 988 4650 1302 4700 
Q 1616 4750 1894 4750 
Q 2613 4750 3031 4423 
Q 3450 4097 3450 3541 
Q 3450 3153 3228 2886 
Q 3006 2619 2597 2516 
z
" transform="scale(0.015625)"/>
       </defs>
       <use xlink:href="#DejaVuSans-33"/>
       <use xlink:href="#DejaVuSans-30" x="63.623047"/>
       <use xlink:href="#DejaVuSans-30" x="127.246094"/>
       <use xlink:href="#DejaVuSans-30" x="190.869141"/>
      </g>
     </g>
    </g>
    <g id="ytick_5">
     <g id="line2d_10">
      <g>
       <use xlink:href="#m7daa229643" x="36" y="27.617088" style="stroke: #000000; stroke-width: 0.8"/>
      </g>
     </g>
     <g id="text_10">
      <!-- 3100 -->
      <g transform="translate(-4.085 32.556073)scale(0.13 -0.13)">
       <defs>
        <path id="DejaVuSans-31" d="M 794 531 
L 1825 531 
L 1825 4091 
L 703 3866 
L 703 4441 
L 1819 4666 
L 2450 4666 
L 2450 531 
L 3481 531 
L 3481 0 
L 794 0 
L 794 531 
z
" transform="scale(0.015625)"/>
       </defs>
       <use xlink:href="#DejaVuSans-33"/>
       <use xlink:href="#DejaVuSans-31" x="63.623047"/>
       <use xlink:href="#DejaVuSans-30" x="127.246094"/>
       <use xlink:href="#DejaVuSans-30" x="190.869141"/>
      </g>
     </g>
    </g>
   </g>
   <g id="line2d_11">
    <path d="M 46.145455 113.678386 
L 50.286456 114.338555 
L 54.427458 115.622471 
L 58.56846 117.055389 
L 62.709462 118.535008 
L 66.850464 120.033352 
L 70.991466 121.540118 
L 75.132468 123.050686 
L 79.273469 124.562687 
L 83.414471 126.074784 
L 87.555473 127.586166 
L 91.696475 129.096312 
L 95.837477 130.60487 
L 99.978479 132.111596 
L 104.119481 133.616315 
L 108.260482 135.118894 
L 112.401484 136.619235 
L 116.542486 138.117261 
L 120.683488 139.612911 
L 124.82449 141.106135 
L 128.965492 142.596894 
L 133.106494 144.085155 
L 137.247495 145.570889 
L 141.388497 147.054072 
L 145.529499 148.534684 
L 149.670501 150.012705 
L 153.811503 151.488121 
L 157.952505 152.960917 
L 162.093506 154.431079 
L 166.234508 155.898596 
L 170.37551 157.363457 
L 174.516512 158.825651 
L 178.657514 160.285169 
L 182.798516 161.742002 
L 186.939518 163.196142 
L 191.080519 164.64758 
L 195.221521 166.096308 
L 199.362523 167.542319 
L 203.503525 168.985605 
L 207.644527 170.42616 
L 211.785529 171.863976 
L 215.926531 173.299047 
L 220.067532 174.731366 
L 224.208534 176.160927 
L 228.349536 177.587722 
L 232.490538 179.011746 
L 236.63154 180.432992 
L 240.772542 181.851454 
L 244.913544 183.267125 
L 249.054545 184.68 
" clip-path="url(#p8dc10ea0c5)" style="fill: none; stroke: #1f77b4; stroke-width: 1.5; stroke-linecap: square"/>
   </g>
   <g id="line2d_12">
    <path d="M 46.145455 113.678386 
L 50.286456 114.062853 
L 54.427458 114.901884 
L 58.56846 115.892458 
L 62.709462 116.936298 
L 66.850464 118.001394 
L 70.991466 119.07509 
L 75.132468 120.151508 
L 79.273469 121.22758 
L 83.414471 122.301551 
L 87.555473 123.372348 
L 91.696475 124.439281 
L 95.837477 125.501883 
L 99.978479 126.559827 
L 104.119481 127.61288 
L 108.260482 128.660868 
L 112.401484 129.703659 
L 116.542486 130.741151 
L 120.683488 131.773266 
L 124.82449 132.79994 
L 128.965492 133.821121 
L 133.106494 134.836767 
L 137.247495 135.846842 
L 141.388497 136.851319 
L 145.529499 137.850171 
L 149.670501 138.843377 
L 153.811503 139.830919 
L 157.952505 140.812781 
L 162.093506 141.788949 
L 166.234508 142.75941 
L 170.37551 143.724153 
L 174.516512 144.683169 
L 178.657514 145.636448 
L 182.798516 146.583983 
L 186.939518 147.525765 
L 191.080519 148.46179 
L 195.221521 149.392049 
L 199.362523 150.316539 
L 203.503525 151.235253 
L 207.644527 152.148186 
L 211.785529 153.055335 
L 215.926531 153.956695 
L 220.067532 154.852262 
L 224.208534 155.742032 
L 228.349536 156.626003 
L 232.490538 157.50417 
L 236.63154 158.376531 
L 240.772542 159.243084 
L 244.913544 160.103824 
L 249.054545 160.958751 
" clip-path="url(#p8dc10ea0c5)" style="fill: none; stroke: #ff7f0e; stroke-width: 1.5; stroke-linecap: square"/>
   </g>
   <g id="line2d_13">
    <path d="M 46.145455 113.678386 
L 50.286456 113.865859 
L 54.427458 114.327832 
L 58.56846 114.922205 
L 62.709462 115.574593 
L 66.850464 116.252808 
L 70.991466 116.942177 
L 75.132468 117.635355 
L 79.273469 118.328328 
L 83.414471 119.018743 
L 87.555473 119.705135 
L 91.696475 120.386551 
L 95.837477 121.062341 
L 99.978479 121.732054 
L 104.119481 122.395362 
L 108.260482 123.052025 
L 112.401484 123.701863 
L 116.542486 124.344736 
L 120.683488 124.980539 
L 124.82449 125.609187 
L 128.965492 126.230615 
L 133.106494 126.844769 
L 137.247495 127.451607 
L 141.388497 128.051094 
L 145.529499 128.643203 
L 149.670501 129.227911 
L 153.811503 129.8052 
L 157.952505 130.375056 
L 162.093506 130.937467 
L 166.234508 131.492424 
L 170.37551 132.03992 
L 174.516512 132.579949 
L 178.657514 133.112508 
L 182.798516 133.637595 
L 186.939518 134.155207 
L 191.080519 134.665346 
L 195.221521 135.168012 
L 199.362523 135.663206 
L 203.503525 136.15093 
L 207.644527 136.631187 
L 211.785529 137.103981 
L 215.926531 137.569315 
L 220.067532 138.027194 
L 224.208534 138.477623 
L 228.349536 138.920608 
L 232.490538 139.356152 
L 236.63154 139.784264 
L 240.772542 140.204949 
L 244.913544 140.618213 
L 249.054545 141.024064 
" clip-path="url(#p8dc10ea0c5)" style="fill: none; stroke: #2ca02c; stroke-width: 1.5; stroke-linecap: square"/>
   </g>
   <g id="line2d_14">
    <path d="M 46.145455 113.678386 
L 50.286456 113.717414 
L 54.427458 113.82758 
L 58.56846 113.992691 
L 62.709462 114.195377 
L 66.850464 114.421654 
L 70.991466 114.66161 
L 75.132468 114.908557 
L 79.273469 115.158022 
L 83.414471 115.406985 
L 87.555473 115.653369 
L 91.696475 115.895721 
L 95.837477 116.133 
L 99.978479 116.364449 
L 104.119481 116.589509 
L 108.260482 116.807757 
L 112.401484 117.018873 
L 116.542486 117.222612 
L 120.683488 117.418781 
L 124.82449 117.607232 
L 128.965492 117.787848 
L 133.106494 117.960538 
L 137.247495 118.125228 
L 141.388497 118.281864 
L 145.529499 118.430401 
L 149.670501 118.570806 
L 153.811503 118.703055 
L 157.952505 118.827128 
L 162.093506 118.943014 
L 166.234508 119.050706 
L 170.37551 119.1502 
L 174.516512 119.241497 
L 178.657514 119.324599 
L 182.798516 119.399513 
L 186.939518 119.466246 
L 191.080519 119.524808 
L 195.221521 119.575211 
L 199.362523 119.617469 
L 203.503525 119.651594 
L 207.644527 119.677603 
L 211.785529 119.695513 
L 215.926531 119.705341 
L 220.067532 119.707105 
L 224.208534 119.700825 
L 228.349536 119.686519 
L 232.490538 119.66421 
L 236.63154 119.633917 
L 240.772542 119.595662 
L 244.913544 119.549467 
L 249.054545 119.495355 
" clip-path="url(#p8dc10ea0c5)" style="fill: none; stroke: #d62728; stroke-width: 1.5; stroke-linecap: square"/>
   </g>
   <g id="line2d_15">
    <path d="M 46.145455 110.73612 
L 50.286456 110.68809 
L 54.427458 110.550917 
L 58.56846 110.340796 
L 62.709462 110.075097 
L 66.850464 109.767809 
L 70.991466 109.428843 
L 75.132468 109.064893 
L 79.273469 108.680434 
L 83.414471 108.278492 
L 87.555473 107.861147 
L 91.696475 107.42986 
L 95.837477 106.985676 
L 99.978479 106.529359 
L 104.119481 106.061478 
L 108.260482 105.582461 
L 112.401484 105.092636 
L 116.542486 104.592261 
L 120.683488 104.081534 
L 124.82449 103.560616 
L 128.965492 103.029635 
L 133.106494 102.488692 
L 137.247495 101.937873 
L 141.388497 101.377245 
L 145.529499 100.806866 
L 149.670501 100.226783 
L 153.811503 99.637035 
L 157.952505 99.037654 
L 162.093506 98.428668 
L 166.234508 97.8101 
L 170.37551 97.18197 
L 174.516512 96.544295 
L 178.657514 95.897089 
L 182.798516 95.240364 
L 186.939518 94.574132 
L 191.080519 93.8984 
L 195.221521 93.213178 
L 199.362523 92.518472 
L 203.503525 91.814289 
L 207.644527 91.100635 
L 211.785529 90.377514 
L 215.926531 89.644932 
L 220.067532 88.902893 
L 224.208534 88.151401 
L 228.349536 87.390461 
L 232.490538 86.620075 
L 236.63154 85.840249 
L 240.772542 85.050985 
L 244.913544 84.252289 
L 249.054545 83.444163 
" clip-path="url(#p8dc10ea0c5)" style="fill: none; stroke: #9467bd; stroke-width: 1.5; stroke-linecap: square"/>
   </g>
   <g id="line2d_16">
    <path d="M 46.145455 110.73612 
L 50.286456 110.540979 
L 54.427458 110.056003 
L 58.56846 109.423291 
L 62.709462 108.717229 
L 66.850464 107.970009 
L 70.991466 107.196301 
L 75.132468 106.403457 
L 79.273469 105.595489 
L 83.414471 104.774755 
L 87.555473 103.942721 
L 91.696475 103.100346 
L 95.837477 102.24828 
L 99.978479 101.386982 
L 104.119481 100.516782 
L 108.260482 99.637924 
L 112.401484 98.750596 
L 116.542486 97.85494 
L 120.683488 96.951068 
L 124.82449 96.039071 
L 128.965492 95.119021 
L 133.106494 94.190979 
L 137.247495 93.254993 
L 141.388497 92.311105 
L 145.529499 91.35935 
L 149.670501 90.39976 
L 153.811503 89.432361 
L 157.952505 88.457175 
L 162.093506 87.474224 
L 166.234508 86.483526 
L 170.37551 85.485099 
L 174.516512 84.478956 
L 178.657514 83.465113 
L 182.798516 82.443583 
L 186.939518 81.414377 
L 191.080519 80.377507 
L 195.221521 79.332985 
L 199.362523 78.280821 
L 203.503525 77.221025 
L 207.644527 76.153608 
L 211.785529 75.078577 
L 215.926531 73.995944 
L 220.067532 72.905717 
L 224.208534 71.807905 
L 228.349536 70.702517 
L 232.490538 69.589563 
L 236.63154 68.469051 
L 240.772542 67.340989 
L 244.913544 66.205387 
L 249.054545 65.062254 
" clip-path="url(#p8dc10ea0c5)" style="fill: none; stroke: #8c564b; stroke-width: 1.5; stroke-linecap: square"/>
   </g>
   <g id="line2d_17">
    <path d="M 46.145455 110.73612 
L 50.286456 110.345947 
L 54.427458 109.489796 
L 58.56846 108.47069 
L 62.709462 107.386905 
L 66.850464 106.270453 
L 70.991466 105.133989 
L 75.132468 103.98339 
L 79.273469 102.821728 
L 83.414471 101.650757 
L 87.555473 100.471549 
L 91.696475 99.284798 
L 95.837477 98.090971 
L 99.978479 96.890393 
L 104.119481 95.683302 
L 108.260482 94.469873 
L 112.401484 93.250237 
L 116.542486 92.024497 
L 120.683488 90.792735 
L 124.82449 89.555016 
L 128.965492 88.311393 
L 133.106494 87.061909 
L 137.247495 85.806602 
L 141.388497 84.545503 
L 145.529499 83.278639 
L 149.670501 82.006033 
L 153.811503 80.727707 
L 157.952505 79.443677 
L 162.093506 78.15396 
L 166.234508 76.858573 
L 170.37551 75.557527 
L 174.516512 74.250836 
L 178.657514 72.93851 
L 182.798516 71.620562 
L 186.939518 70.297001 
L 191.080519 68.967837 
L 195.221521 67.633078 
L 199.362523 66.292734 
L 203.503525 64.946814 
L 207.644527 63.595325 
L 211.785529 62.238275 
L 215.926531 60.875671 
L 220.067532 59.507523 
L 224.208534 58.133836 
L 228.349536 56.754618 
L 232.490538 55.369876 
L 236.63154 53.979617 
L 240.772542 52.583847 
L 244.913544 51.182575 
L 249.054545 49.775806 
" clip-path="url(#p8dc10ea0c5)" style="fill: none; stroke: #e377c2; stroke-width: 1.5; stroke-linecap: square"/>
   </g>
   <g id="line2d_18">
    <path d="M 46.145455 110.73612 
L 50.286456 110.073354 
L 54.427458 108.781648 
L 58.56846 107.335746 
L 62.709462 105.837949 
L 66.850464 104.316233 
L 70.991466 102.780901 
L 75.132468 101.236571 
L 79.273469 99.685613 
L 83.414471 98.129363 
L 87.555473 96.568631 
L 91.696475 95.003938 
L 95.837477 93.435633 
L 99.978479 91.863961 
L 104.119481 90.289097 
L 108.260482 88.71117 
L 112.401484 87.130279 
L 116.542486 85.546499 
L 120.683488 83.959889 
L 124.82449 82.370498 
L 128.965492 80.778364 
L 133.106494 79.183519 
L 137.247495 77.585988 
L 141.388497 75.985796 
L 145.529499 74.382959 
L 149.670501 72.777495 
L 153.811503 71.169418 
L 157.952505 69.558739 
L 162.093506 67.945471 
L 166.234508 66.329622 
L 170.37551 64.711202 
L 174.516512 63.090218 
L 178.657514 61.466676 
L 182.798516 59.840585 
L 186.939518 58.211948 
L 191.080519 56.580773 
L 195.221521 54.947063 
L 199.362523 53.310824 
L 203.503525 51.67206 
L 207.644527 50.030775 
L 211.785529 48.386972 
L 215.926531 46.740656 
L 220.067532 45.091829 
L 224.208534 43.440495 
L 228.349536 41.786657 
L 232.490538 40.130318 
L 236.63154 38.47148 
L 240.772542 36.810146 
L 244.913544 35.146319 
L 249.054545 33.48 
" clip-path="url(#p8dc10ea0c5)" style="fill: none; stroke: #7f7f7f; stroke-width: 1.5; stroke-linecap: square"/>
   </g>
   <g id="patch_3">
    <path d="M 36 192.24 
L 36 25.92 
" style="fill: none; stroke: #000000; stroke-width: 0.8; stroke-linejoin: miter; stroke-linecap: square"/>
   </g>
   <g id="patch_4">
    <path d="M 259.2 192.24 
L 259.2 25.92 
" style="fill: none; stroke: #000000; stroke-width: 0.8; stroke-linejoin: miter; stroke-linecap: square"/>
   </g>
   <g id="patch_5">
    <path d="M 36 192.24 
L 259.2 192.24 
" style="fill: none; stroke: #000000; stroke-width: 0.8; stroke-linejoin: miter; stroke-linecap: square"/>
   </g>
   <g id="patch_6">
    <path d="M 36 25.92 
L 259.2 25.92 
" style="fill: none; stroke: #000000; stroke-width: 0.8; stroke-linejoin: miter; stroke-linecap: square"/>
   </g>
  </g>
 </g>
 <defs>
  <clipPath id="p8dc10ea0c5">
   <rect x="36" y="25.92" width="223.2" height="166.32"/>
  </clipPath>
 </defs>
</svg>
