<?xml version="1.0" encoding="utf-8" standalone="no"?>
<!DOCTYPE svg PUBLIC "-//W3C//DTD SVG 1.1//EN"
  "http://www.w3.org/Graphics/SVG/1.1/DTD/svg11.dtd">
<svg xmlns:xlink="http://www.w3.org/1999/xlink" width="280.8pt" height="187.2pt" viewBox="0 0 280.8 187.2" xmlns="http://www.w3.org/2000/svg" version="1.1">
 <metadata>
  <rdf:RDF xmlns:dc="http://purl.org/dc/elements/1.1/" xmlns:cc="http://creativecommons.org/ns#" xmlns:rdf="http://www.w3.org/1999/02/22-rdf-syntax-ns#">
   <cc:Work>
    <dc:type rdf:resource="http://purl.org/dc/dcmitype/StillImage"/>
    <dc:date>2022-05-16T18:26:16.665125</dc:date>
    <dc:format>image/svg+xml</dc:format>
    <dc:creator>
     <cc:Agent>
      <dc:title>Matplotlib v3.5.1, https://matplotlib.org/</dc:title>
     </cc:Agent>
    </dc:creator>
   </cc:Work>
  </rdf:RDF>
 </metadata>
 <defs>
  <style type="text/css">*{stroke-linejoin: round; stroke-linecap: butt}</style>
 </defs>
 <g id="figure_1">
  <g id="patch_1">
   <path d="M 0 187.2 
L 280.8 187.2 
L 280.8 0 
L 0 0 
z
" style="fill: #ffffff"/>
  </g>
  <g id="axes_1">
   <g id="patch_2">
    <path d="M 35.1 166.608 
L 252.72 166.608 
L 252.72 22.464 
L 35.1 22.464 
z
" style="fill: #ffffff"/>
   </g>
   <g id="matplotlib.axis_1">
    <g id="xtick_1">
     <g id="line2d_1">
      <defs>
       <path id="m9b91c1867c" d="M 0 0 
L 0 3.5 
" style="stroke: #000000; stroke-width: 0.8"/>
      </defs>
      <g>
       <use xlink:href="#m9b91c1867c" x="73.254156" y="166.608" style="stroke: #000000; stroke-width: 0.8"/>
      </g>
     </g>
     <g id="text_1">
      <!-- 2600 -->
      <g transform="translate(56.711656 183.485969)scale(0.13 -0.13)">
       <defs>
        <path id="DejaVuSans-32" d="M 1228 531 
L 3431 531 
L 3431 0 
L 469 0 
L 469 531 
Q 828 903 1448 1529 
Q 2069 2156 2228 2338 
Q 2531 2678 2651 2914 
Q 2772 3150 2772 3378 
Q 2772 3750 2511 3984 
Q 2250 4219 1831 4219 
Q 1534 4219 1204 4116 
Q 875 4013 500 3803 
L 500 4441 
Q 881 4594 1212 4672 
Q 1544 4750 1819 4750 
Q 2544 4750 2975 4387 
Q 3406 4025 3406 3419 
Q 3406 3131 3298 2873 
Q 3191 2616 2906 2266 
Q 2828 2175 2409 1742 
Q 1991 1309 1228 531 
z
" transform="scale(0.015625)"/>
        <path id="DejaVuSans-36" d="M 2113 2584 
Q 1688 2584 1439 2293 
Q 1191 2003 1191 1497 
Q 1191 994 1439 701 
Q 1688 409 2113 409 
Q 2538 409 2786 701 
Q 3034 994 3034 1497 
Q 3034 2003 2786 2293 
Q 2538 2584 2113 2584 
z
M 3366 4563 
L 3366 3988 
Q 3128 4100 2886 4159 
Q 2644 4219 2406 4219 
Q 1781 4219 1451 3797 
Q 1122 3375 1075 2522 
Q 1259 2794 1537 2939 
Q 1816 3084 2150 3084 
Q 2853 3084 3261 2657 
Q 3669 2231 3669 1497 
Q 3669 778 3244 343 
Q 2819 -91 2113 -91 
Q 1303 -91 875 529 
Q 447 1150 447 2328 
Q 447 3434 972 4092 
Q 1497 4750 2381 4750 
Q 2619 4750 2861 4703 
Q 3103 4656 3366 4563 
z
" transform="scale(0.015625)"/>
        <path id="DejaVuSans-30" d="M 2034 4250 
Q 1547 4250 1301 3770 
Q 1056 3291 1056 2328 
Q 1056 1369 1301 889 
Q 1547 409 2034 409 
Q 2525 409 2770 889 
Q 3016 1369 3016 2328 
Q 3016 3291 2770 3770 
Q 2525 4250 2034 4250 
z
M 2034 4750 
Q 2819 4750 3233 4129 
Q 3647 3509 3647 2328 
Q 3647 1150 3233 529 
Q 2819 -91 2034 -91 
Q 1250 -91 836 529 
Q 422 1150 422 2328 
Q 422 3509 836 4129 
Q 1250 4750 2034 4750 
z
" transform="scale(0.015625)"/>
       </defs>
       <use xlink:href="#DejaVuSans-32"/>
       <use xlink:href="#DejaVuSans-36" x="63.623047"/>
       <use xlink:href="#DejaVuSans-30" x="127.246094"/>
       <use xlink:href="#DejaVuSans-30" x="190.869141"/>
      </g>
     </g>
    </g>
    <g id="xtick_2">
     <g id="line2d_2">
      <g>
       <use xlink:href="#m9b91c1867c" x="129.778831" y="166.608" style="stroke: #000000; stroke-width: 0.8"/>
      </g>
     </g>
     <g id="text_2">
      <!-- 2800 -->
      <g transform="translate(113.236331 183.485969)scale(0.13 -0.13)">
       <defs>
        <path id="DejaVuSans-38" d="M 2034 2216 
Q 1584 2216 1326 1975 
Q 1069 1734 1069 1313 
Q 1069 891 1326 650 
Q 1584 409 2034 409 
Q 2484 409 2743 651 
Q 3003 894 3003 1313 
Q 3003 1734 2745 1975 
Q 2488 2216 2034 2216 
z
M 1403 2484 
Q 997 2584 770 2862 
Q 544 3141 544 3541 
Q 544 4100 942 4425 
Q 1341 4750 2034 4750 
Q 2731 4750 3128 4425 
Q 3525 4100 3525 3541 
Q 3525 3141 3298 2862 
Q 3072 2584 2669 2484 
Q 3125 2378 3379 2068 
Q 3634 1759 3634 1313 
Q 3634 634 3220 271 
Q 2806 -91 2034 -91 
Q 1263 -91 848 271 
Q 434 634 434 1313 
Q 434 1759 690 2068 
Q 947 2378 1403 2484 
z
M 1172 3481 
Q 1172 3119 1398 2916 
Q 1625 2713 2034 2713 
Q 2441 2713 2670 2916 
Q 2900 3119 2900 3481 
Q 2900 3844 2670 4047 
Q 2441 4250 2034 4250 
Q 1625 4250 1398 4047 
Q 1172 3844 1172 3481 
z
" transform="scale(0.015625)"/>
       </defs>
       <use xlink:href="#DejaVuSans-32"/>
       <use xlink:href="#DejaVuSans-38" x="63.623047"/>
       <use xlink:href="#DejaVuSans-30" x="127.246094"/>
       <use xlink:href="#DejaVuSans-30" x="190.869141"/>
      </g>
     </g>
    </g>
    <g id="xtick_3">
     <g id="line2d_3">
      <g>
       <use xlink:href="#m9b91c1867c" x="186.303506" y="166.608" style="stroke: #000000; stroke-width: 0.8"/>
      </g>
     </g>
     <g id="text_3">
      <!-- 3000 -->
      <g transform="translate(169.761006 183.485969)scale(0.13 -0.13)">
       <defs>
        <path id="DejaVuSans-33" d="M 2597 2516 
Q 3050 2419 3304 2112 
Q 3559 1806 3559 1356 
Q 3559 666 3084 287 
Q 2609 -91 1734 -91 
Q 1441 -91 1130 -33 
Q 819 25 488 141 
L 488 750 
Q 750 597 1062 519 
Q 1375 441 1716 441 
Q 2309 441 2620 675 
Q 2931 909 2931 1356 
Q 2931 1769 2642 2001 
Q 2353 2234 1838 2234 
L 1294 2234 
L 1294 2753 
L 1863 2753 
Q 2328 2753 2575 2939 
Q 2822 3125 2822 3475 
Q 2822 3834 2567 4026 
Q 2313 4219 1838 4219 
Q 1578 4219 1281 4162 
Q 984 4106 628 3988 
L 628 4550 
Q 988 4650 1302 4700 
Q 1616 4750 1894 4750 
Q 2613 4750 3031 4423 
Q 3450 4097 3450 3541 
Q 3450 3153 3228 2886 
Q 3006 2619 2597 2516 
z
" transform="scale(0.015625)"/>
       </defs>
       <use xlink:href="#DejaVuSans-33"/>
       <use xlink:href="#DejaVuSans-30" x="63.623047"/>
       <use xlink:href="#DejaVuSans-30" x="127.246094"/>
       <use xlink:href="#DejaVuSans-30" x="190.869141"/>
      </g>
     </g>
    </g>
    <g id="xtick_4">
     <g id="line2d_4">
      <g>
       <use xlink:href="#m9b91c1867c" x="242.828182" y="166.608" style="stroke: #000000; stroke-width: 0.8"/>
      </g>
     </g>
     <g id="text_4">
      <!-- 3200 -->
      <g transform="translate(226.285682 183.485969)scale(0.13 -0.13)">
       <use xlink:href="#DejaVuSans-33"/>
       <use xlink:href="#DejaVuSans-32" x="63.623047"/>
       <use xlink:href="#DejaVuSans-30" x="127.246094"/>
       <use xlink:href="#DejaVuSans-30" x="190.869141"/>
      </g>
     </g>
    </g>
   </g>
   <g id="matplotlib.axis_2">
    <g id="ytick_1">
     <g id="line2d_5">
      <defs>
       <path id="md966cb23d6" d="M 0 0 
L -3.5 0 
" style="stroke: #000000; stroke-width: 0.8"/>
      </defs>
      <g>
       <use xlink:href="#md966cb23d6" x="35.1" y="152.168183" style="stroke: #000000; stroke-width: 0.8"/>
      </g>
     </g>
     <g id="text_5">
      <!-- 0.990 -->
      <g transform="translate(-9.116563 157.107167)scale(0.13 -0.13)">
       <defs>
        <path id="DejaVuSans-2e" d="M 684 794 
L 1344 794 
L 1344 0 
L 684 0 
L 684 794 
z
" transform="scale(0.015625)"/>
        <path id="DejaVuSans-39" d="M 703 97 
L 703 672 
Q 941 559 1184 500 
Q 1428 441 1663 441 
Q 2288 441 2617 861 
Q 2947 1281 2994 2138 
Q 2813 1869 2534 1725 
Q 2256 1581 1919 1581 
Q 1219 1581 811 2004 
Q 403 2428 403 3163 
Q 403 3881 828 4315 
Q 1253 4750 1959 4750 
Q 2769 4750 3195 4129 
Q 3622 3509 3622 2328 
Q 3622 1225 3098 567 
Q 2575 -91 1691 -91 
Q 1453 -91 1209 -44 
Q 966 3 703 97 
z
M 1959 2075 
Q 2384 2075 2632 2365 
Q 2881 2656 2881 3163 
Q 2881 3666 2632 3958 
Q 2384 4250 1959 4250 
Q 1534 4250 1286 3958 
Q 1038 3666 1038 3163 
Q 1038 2656 1286 2365 
Q 1534 2075 1959 2075 
z
" transform="scale(0.015625)"/>
       </defs>
       <use xlink:href="#DejaVuSans-30"/>
       <use xlink:href="#DejaVuSans-2e" x="63.623047"/>
       <use xlink:href="#DejaVuSans-39" x="95.410156"/>
       <use xlink:href="#DejaVuSans-39" x="159.033203"/>
       <use xlink:href="#DejaVuSans-30" x="222.65625"/>
      </g>
     </g>
    </g>
    <g id="ytick_2">
     <g id="line2d_6">
      <g>
       <use xlink:href="#md966cb23d6" x="35.1" y="127.537746" style="stroke: #000000; stroke-width: 0.8"/>
      </g>
     </g>
     <g id="text_6">
      <!-- 0.992 -->
      <g transform="translate(-9.116563 132.476731)scale(0.13 -0.13)">
       <use xlink:href="#DejaVuSans-30"/>
       <use xlink:href="#DejaVuSans-2e" x="63.623047"/>
       <use xlink:href="#DejaVuSans-39" x="95.410156"/>
       <use xlink:href="#DejaVuSans-39" x="159.033203"/>
       <use xlink:href="#DejaVuSans-32" x="222.65625"/>
      </g>
     </g>
    </g>
    <g id="ytick_3">
     <g id="line2d_7">
      <g>
       <use xlink:href="#md966cb23d6" x="35.1" y="102.90731" style="stroke: #000000; stroke-width: 0.8"/>
      </g>
     </g>
     <g id="text_7">
      <!-- 0.994 -->
      <g transform="translate(-9.116563 107.846294)scale(0.13 -0.13)">
       <defs>
        <path id="DejaVuSans-34" d="M 2419 4116 
L 825 1625 
L 2419 1625 
L 2419 4116 
z
M 2253 4666 
L 3047 4666 
L 3047 1625 
L 3713 1625 
L 3713 1100 
L 3047 1100 
L 3047 0 
L 2419 0 
L 2419 1100 
L 313 1100 
L 313 1709 
L 2253 4666 
z
" transform="scale(0.015625)"/>
       </defs>
       <use xlink:href="#DejaVuSans-30"/>
       <use xlink:href="#DejaVuSans-2e" x="63.623047"/>
       <use xlink:href="#DejaVuSans-39" x="95.410156"/>
       <use xlink:href="#DejaVuSans-39" x="159.033203"/>
       <use xlink:href="#DejaVuSans-34" x="222.65625"/>
      </g>
     </g>
    </g>
    <g id="ytick_4">
     <g id="line2d_8">
      <g>
       <use xlink:href="#md966cb23d6" x="35.1" y="78.276873" style="stroke: #000000; stroke-width: 0.8"/>
      </g>
     </g>
     <g id="text_8">
      <!-- 0.996 -->
      <g transform="translate(-9.116563 83.215858)scale(0.13 -0.13)">
       <use xlink:href="#DejaVuSans-30"/>
       <use xlink:href="#DejaVuSans-2e" x="63.623047"/>
       <use xlink:href="#DejaVuSans-39" x="95.410156"/>
       <use xlink:href="#DejaVuSans-39" x="159.033203"/>
       <use xlink:href="#DejaVuSans-36" x="222.65625"/>
      </g>
     </g>
    </g>
    <g id="ytick_5">
     <g id="line2d_9">
      <g>
       <use xlink:href="#md966cb23d6" x="35.1" y="53.646437" style="stroke: #000000; stroke-width: 0.8"/>
      </g>
     </g>
     <g id="text_9">
      <!-- 0.998 -->
      <g transform="translate(-9.116563 58.585421)scale(0.13 -0.13)">
       <use xlink:href="#DejaVuSans-30"/>
       <use xlink:href="#DejaVuSans-2e" x="63.623047"/>
       <use xlink:href="#DejaVuSans-39" x="95.410156"/>
       <use xlink:href="#DejaVuSans-39" x="159.033203"/>
       <use xlink:href="#DejaVuSans-38" x="222.65625"/>
      </g>
     </g>
    </g>
    <g id="ytick_6">
     <g id="line2d_10">
      <g>
       <use xlink:href="#md966cb23d6" x="35.1" y="29.016" style="stroke: #000000; stroke-width: 0.8"/>
      </g>
     </g>
     <g id="text_10">
      <!-- 1.000 -->
      <g transform="translate(-9.116563 33.954984)scale(0.13 -0.13)">
       <defs>
        <path id="DejaVuSans-31" d="M 794 531 
L 1825 531 
L 1825 4091 
L 703 3866 
L 703 4441 
L 1819 4666 
L 2450 4666 
L 2450 531 
L 3481 531 
L 3481 0 
L 794 0 
L 794 531 
z
" transform="scale(0.015625)"/>
       </defs>
       <use xlink:href="#DejaVuSans-31"/>
       <use xlink:href="#DejaVuSans-2e" x="63.623047"/>
       <use xlink:href="#DejaVuSans-30" x="95.410156"/>
       <use xlink:href="#DejaVuSans-30" x="159.033203"/>
       <use xlink:href="#DejaVuSans-30" x="222.65625"/>
      </g>
     </g>
    </g>
   </g>
   <g id="line2d_11">
    <path d="M 44.991818 31.93997 
L 45.288573 31.009367 
L 45.486409 31.636645 
L 45.585327 31.453232 
L 45.684245 30.806613 
L 45.783164 32.060848 
L 45.882082 31.306566 
L 45.981 31.662433 
L 46.277755 30.897514 
L 46.376673 31.246933 
L 46.475591 30.97262 
L 46.574509 31.350405 
L 46.673427 30.900737 
L 46.772345 31.442595 
L 46.871264 31.121864 
L 47.0691 31.813289 
L 47.168018 31.676293 
L 47.266936 31.745597 
L 47.365855 31.651151 
L 47.464773 31.160868 
L 47.563691 31.841655 
L 47.662609 31.052238 
L 47.860445 32.176569 
L 47.959364 31.799428 
L 48.058282 31.372002 
L 48.256118 31.792981 
L 48.355036 31.997024 
L 48.948545 31.247255 
L 49.146382 31.807487 
L 49.2453 31.541232 
L 49.344218 32.191397 
L 49.443136 31.469994 
L 49.542055 31.542844 
L 49.640973 30.918466 
L 49.838809 31.695312 
L 50.036645 31.430991 
L 50.3334 32.233624 
L 50.531236 31.262728 
L 50.630155 31.437438 
L 50.729073 32.150137 
L 50.926909 31.28916 
L 51.025827 31.263695 
L 51.124745 31.887105 
L 51.223664 31.029352 
L 51.322582 32.092438 
L 51.619336 31.273043 
L 51.718255 31.128956 
L 51.817173 31.270786 
L 51.916091 31.681129 
L 52.015009 31.296896 
L 52.113927 31.878402 
L 52.212845 31.213732 
L 52.311764 31.967691 
L 52.410682 30.764386 
L 52.608518 31.193102 
L 52.707436 31.695312 
L 52.806355 31.243387 
L 53.103109 32.086313 
L 53.202027 31.442273 
L 53.300945 32.289389 
L 53.399864 32.126606 
L 53.498782 31.299153 
L 53.5977 31.606345 
L 53.696618 31.240809 
L 53.795536 31.376837 
L 53.894455 31.233395 
L 53.993373 31.737861 
L 54.092291 31.621495 
L 54.290127 32.325169 
L 54.389045 31.29883 
L 54.586882 31.655663 
L 54.6858 32.044731 
L 54.784718 31.232105 
L 54.883636 31.824249 
L 54.982555 31.711429 
L 55.081473 31.976394 
L 55.279309 31.609891 
L 55.378227 31.788469 
L 55.576064 31.374258 
L 55.674982 31.434214 
L 55.7739 31.24242 
L 55.872818 31.884527 
L 55.971736 31.311402 
L 56.070655 31.454199 
L 56.367409 31.326552 
L 56.466327 31.816835 
L 56.565245 31.247255 
L 56.664164 31.803296 
L 56.763082 30.940063 
L 56.862 31.663722 
L 56.960918 31.107036 
L 57.059836 31.504807 
L 57.158755 31.030319 
L 57.356591 31.64825 
L 57.752264 30.905572 
L 58.049018 31.882593 
L 58.147936 31.406815 
L 58.246855 32.080189 
L 58.345773 31.121219 
L 58.444691 31.836175 
L 58.741445 30.885587 
L 58.939282 31.234684 
L 59.0382 31.304955 
L 59.137118 31.794593 
L 59.433873 31.568953 
L 59.532791 31.162479 
L 59.730627 31.905157 
L 59.829545 32.214606 
L 59.928464 31.446463 
L 60.027382 32.152393 
L 60.1263 31.59055 
L 60.225218 31.627942 
L 60.324136 31.887428 
L 60.423055 31.7543 
L 60.521973 31.275944 
L 60.620891 31.920307 
L 60.719809 31.461291 
L 60.917645 32.074709 
L 61.016564 32.140144 
L 61.115482 31.57669 
L 61.2144 31.601188 
L 61.313318 31.575723 
L 61.610073 32.195587 
L 61.708991 32.115002 
L 61.807909 32.5276 
L 62.005745 31.750755 
L 62.203582 32.259411 
L 62.3025 31.700469 
L 62.401418 32.187206 
L 62.698173 31.619561 
L 62.797091 32.460553 
L 62.994927 31.771384 
L 63.192764 31.71433 
L 63.3906 32.163998 
L 63.489518 31.672425 
L 63.588436 32.018944 
L 63.885191 31.49417 
L 64.181945 32.128862 
L 64.280864 31.697246 
L 64.4787 32.144335 
L 64.577618 32.245873 
L 64.676536 32.134665 
L 64.775455 32.249419 
L 64.874373 31.630843 
L 64.973291 32.056335 
L 65.072209 31.805875 
L 65.171127 31.858739 
L 65.368964 32.412202 
L 65.665718 31.86293 
L 65.863555 31.930944 
L 65.962473 32.451527 
L 66.061391 32.292935 
L 66.160309 32.557256 
L 66.259227 31.924497 
L 66.358145 32.481183 
L 66.457064 32.315176 
L 66.555982 31.818124 
L 66.753818 32.800947 
L 66.852736 32.080833 
L 66.951655 32.369008 
L 67.050573 31.952541 
L 67.149491 32.212349 
L 67.248409 31.773319 
L 67.347327 32.422839 
L 67.446245 32.229433 
L 67.545164 32.551131 
L 67.841918 32.068262 
L 67.940836 31.618272 
L 68.138673 33.063011 
L 68.237591 32.400275 
L 68.336509 32.741636 
L 68.435427 32.485051 
L 68.534345 32.664596 
L 68.633264 32.529857 
L 68.732182 32.652991 
L 68.930018 32.956638 
L 69.028936 32.461198 
L 69.127855 32.664596 
L 69.226773 32.394795 
L 69.325691 32.610765 
L 69.424609 32.018944 
L 69.622445 32.678134 
L 69.820282 32.661372 
L 69.9192 32.80417 
L 70.018118 32.081478 
L 70.117036 32.435733 
L 70.215955 32.291968 
L 70.314873 32.371586 
L 70.413791 32.07213 
L 70.710545 32.520509 
L 70.809464 32.084057 
L 70.908382 32.474091 
L 71.106218 31.899032 
L 71.304055 32.690383 
L 71.402973 32.258444 
L 71.699727 32.590779 
L 71.798645 32.110489 
L 71.897564 32.812229 
L 72.194318 32.141111 
L 72.293236 32.375454 
L 72.392155 31.974783 
L 72.491073 32.032482 
L 72.589991 31.828439 
L 72.787827 32.264246 
L 72.886745 32.710691 
L 73.084582 32.250063 
L 73.1835 32.221375 
L 73.282418 32.806749 
L 73.381336 32.005728 
L 73.480255 32.47667 
L 73.678091 32.298415 
L 73.777009 31.747531 
L 73.875927 32.295191 
L 73.974845 32.019911 
L 74.172682 32.893781 
L 74.2716 32.770324 
L 74.370518 31.996057 
L 74.469436 32.606896 
L 74.568355 32.192042 
L 74.667273 32.623981 
L 74.766191 32.59916 
L 74.865109 32.607219 
L 74.964027 32.463454 
L 75.062945 32.742603 
L 75.161864 31.927721 
L 75.260782 32.699086 
L 75.3597 32.360949 
L 75.458618 32.63075 
L 75.755373 32.530501 
L 75.953209 32.859613 
L 76.052127 32.692962 
L 76.151045 32.196554 
L 76.249964 32.686837 
L 76.744555 31.604411 
L 76.942391 32.339674 
L 77.140227 31.947706 
L 77.239145 32.44089 
L 77.338064 31.790725 
L 77.436982 32.54275 
L 77.5359 31.909992 
L 77.634818 32.580142 
L 77.733736 31.353306 
L 77.832655 32.130796 
L 78.030491 31.657275 
L 78.228327 32.286166 
L 78.327245 31.557027 
L 78.525082 31.812644 
L 78.624 31.51899 
L 78.821836 31.856161 
L 78.920755 31.686931 
L 79.118591 32.161097 
L 79.217509 32.058269 
L 79.316427 31.660821 
L 79.415345 32.281653 
L 79.514264 32.087603 
L 79.613182 32.155939 
L 79.7121 31.661788 
L 79.811018 32.795145 
L 80.008855 31.523503 
L 80.206691 32.420905 
L 80.602364 32.379967 
L 80.899118 31.69789 
L 80.998036 32.60464 
L 81.096955 32.521153 
L 81.195873 32.439601 
L 81.294791 31.318493 
L 81.393709 32.520831 
L 81.492627 32.15465 
L 81.591545 32.23169 
L 81.789382 32.045376 
L 81.8883 32.401887 
L 82.086136 31.949318 
L 82.185055 32.204613 
L 82.283973 31.969625 
L 82.382891 32.335162 
L 82.580727 31.768161 
L 82.679645 31.858417 
L 82.877482 31.567019 
L 82.9764 32.422517 
L 83.075318 31.564441 
L 83.174236 32.012174 
L 83.470991 31.370713 
L 83.569909 31.796527 
L 83.668827 31.536719 
L 83.767745 31.971237 
L 83.866664 31.67307 
L 83.965582 31.920951 
L 84.0645 31.499972 
L 84.361255 32.158518 
L 84.460173 30.989059 
L 84.559091 31.771707 
L 84.658009 31.246288 
L 84.756927 31.771062 
L 84.855845 31.435181 
L 85.053682 31.89742 
L 85.1526 31.469349 
L 85.251518 31.815545 
L 85.350436 31.472251 
L 85.548273 31.912893 
L 85.647191 31.275299 
L 85.746109 32.006695 
L 85.845027 31.589583 
L 85.943945 31.807487 
L 86.042864 31.533818 
L 86.141782 31.654052 
L 86.2407 31.322361 
L 86.339618 31.634389 
L 86.537455 31.146362 
L 86.636373 31.738183 
L 86.735291 31.066099 
L 86.933127 31.546712 
L 87.032045 31.266596 
L 87.130964 31.78589 
L 87.229882 31.369746 
L 87.526636 31.8726 
L 87.625555 31.439694 
L 87.724473 32.28681 
L 87.922309 31.397467 
L 88.021227 31.858095 
L 88.120145 31.651151 
L 88.219064 31.795883 
L 88.317982 31.631165 
L 88.4169 31.768161 
L 88.614736 31.749465 
L 88.713655 32.07761 
L 88.812573 31.545422 
L 89.109327 32.343865 
L 89.208245 31.265629 
L 89.505 31.966402 
L 89.603918 31.056106 
L 89.801755 31.71433 
L 89.900673 31.578946 
L 89.999591 31.310435 
L 90.296345 32.082445 
L 90.395264 32.060203 
L 90.5931 31.280134 
L 90.790936 31.819414 
L 90.988773 31.729802 
L 91.087691 31.902256 
L 91.186609 31.429057 
L 91.285527 31.914827 
L 91.384445 31.231138 
L 91.483364 31.511254 
L 91.6812 31.4268 
L 91.780118 31.41165 
L 91.879036 32.351601 
L 92.175791 31.235329 
L 92.274709 31.922241 
L 92.373627 31.233717 
L 92.571464 31.909992 
L 92.670382 32.023779 
L 92.868218 31.384251 
L 93.066055 32.370297 
L 93.164973 31.465804 
L 93.263891 31.82715 
L 93.362809 31.021293 
L 93.461727 31.061908 
L 93.560645 30.951667 
L 93.659564 31.717876 
L 93.8574 31.362332 
L 94.253073 32.366751 
L 94.450909 31.828761 
L 94.549827 31.001308 
L 94.648745 31.660499 
L 94.747664 31.229204 
L 94.846582 32.150459 
L 94.9455 31.539298 
L 95.044418 31.816512 
L 95.143336 31.629876 
L 95.242255 32.281653 
L 95.341173 31.812 
L 95.440091 31.947061 
L 95.637927 31.61666 
L 95.736845 31.64277 
L 95.835764 31.865509 
L 95.934682 31.436793 
L 96.0336 32.122093 
L 96.330355 31.722388 
L 96.429273 32.21525 
L 96.528191 31.861318 
L 96.627109 32.187206 
L 96.726027 31.81071 
L 96.824945 32.425418 
L 96.923864 31.958021 
L 97.022782 32.234268 
L 97.1217 31.60151 
L 97.220618 31.671136 
L 97.319536 31.629876 
L 97.418455 31.731092 
L 97.517373 31.354596 
L 97.715209 32.120159 
L 97.814127 31.904512 
L 97.913045 31.342346 
L 98.011964 31.692733 
L 98.110882 31.504162 
L 98.2098 31.683063 
L 98.308718 31.199226 
L 98.407636 32.230078 
L 98.506555 32.181082 
L 98.605473 32.135632 
L 98.704391 31.630198 
L 98.803309 32.309697 
L 98.902227 31.721099 
L 99.001145 32.015075 
L 99.100064 31.276266 
L 99.2979 32.168511 
L 99.396818 32.490208 
L 99.495736 32.310341 
L 99.693573 32.538882 
L 99.792491 32.252642 
L 100.089245 33.114264 
L 100.287082 33.029488 
L 100.386 33.963636 
L 100.484918 33.941717 
L 100.583836 33.617763 
L 100.781673 35.053154 
L 100.880591 34.766592 
L 100.979509 34.921639 
L 101.078427 34.493568 
L 101.177345 35.028334 
L 101.375182 34.894884 
L 101.4741 35.074751 
L 101.671936 34.573186 
L 101.770855 34.712761 
L 101.869773 34.435546 
L 101.968691 35.431585 
L 102.067609 35.367116 
L 102.166527 35.460918 
L 102.265445 35.106986 
L 102.364364 35.361636 
L 102.661118 34.103211 
L 102.760036 34.843309 
L 102.858955 34.472293 
L 102.957873 34.697933 
L 103.254627 33.736385 
L 103.353545 34.558036 
L 103.452464 33.176476 
L 103.551382 34.001673 
L 103.848136 33.308959 
L 103.947055 33.514291 
L 104.144891 32.441535 
L 104.342727 32.753562 
L 104.441645 31.70466 
L 104.540564 32.608186 
L 104.639482 32.12306 
L 104.7384 32.150782 
L 104.837318 31.757524 
L 104.936236 32.162064 
L 105.035155 31.53414 
L 105.331909 32.299704 
L 105.430827 31.873567 
L 105.727582 32.298415 
L 105.8265 31.856805 
L 105.925418 32.46571 
L 106.024336 32.330971 
L 106.123255 32.50697 
L 106.222173 32.388993 
L 106.321091 32.925693 
L 106.420009 32.332261 
L 106.617845 33.274468 
L 106.716764 33.233208 
L 106.815682 33.16197 
L 106.9146 34.039709 
L 107.013518 33.444343 
L 107.211355 34.10579 
L 107.310273 34.177027 
L 107.409191 33.51139 
L 107.508109 34.231825 
L 107.607027 33.503976 
L 107.705945 33.963959 
L 107.804864 33.79215 
L 107.903782 34.239562 
L 108.0027 33.958157 
L 108.101618 34.609933 
L 108.200536 33.635814 
L 108.299455 33.696092 
L 108.596209 32.35418 
L 108.695127 32.626237 
L 108.794045 31.954153 
L 108.892964 32.607541 
L 108.991882 31.861318 
L 109.0908 32.471513 
L 109.288636 32.294869 
L 109.387555 32.291001 
L 109.486473 31.889684 
L 109.684309 32.373198 
L 109.882145 31.690799 
L 109.981064 31.672748 
L 110.1789 31.814256 
L 110.277818 32.362561 
L 110.574573 31.167959 
L 110.673491 31.71981 
L 110.772409 31.274332 
L 110.871327 31.712396 
L 110.970245 31.555415 
L 111.267 31.970592 
L 111.365918 31.520924 
L 111.464836 31.823926 
L 111.563755 31.684997 
L 111.761591 31.935457 
L 111.860509 31.749465 
L 111.959427 31.879369 
L 112.058345 31.613759 
L 112.256182 32.071163 
L 112.3551 31.747209 
L 112.454018 32.124672 
L 112.552936 31.612147 
L 112.750773 32.250386 
L 112.849691 32.130152 
L 112.948609 31.364266 
L 113.047527 32.389315 
L 113.146445 32.015075 
L 113.245364 32.473769 
L 113.344282 31.925787 
L 113.542118 32.252964 
L 113.641036 31.925142 
L 113.739955 31.968336 
L 113.838873 31.978006 
L 113.937791 32.243939 
L 114.036709 32.125961 
L 114.234545 32.211704 
L 114.432382 32.125639 
L 114.5313 32.237814 
L 114.729136 32.044731 
L 114.828055 32.376422 
L 114.926973 32.144013 
L 115.025891 32.741313 
L 115.124809 32.471835 
L 115.223727 32.671687 
L 115.322645 32.429286 
L 115.421564 32.668786 
L 115.520482 32.513095 
L 115.6194 32.733577 
L 115.718318 32.386092 
L 115.916155 33.581338 
L 116.015073 33.659023 
L 116.113991 33.212578 
L 116.212909 33.819872 
L 116.311827 33.039158 
L 116.509664 34.24891 
L 116.806418 34.899719 
L 116.905336 34.653127 
L 117.498845 37.506826 
L 117.894518 40.272203 
L 118.191273 45.607296 
L 118.488027 49.840298 
L 119.279373 66.40355 
L 119.773964 90.249166 
L 120.070718 122.926324 
L 120.367473 152.572172 
L 120.466391 154.12264 
L 120.565309 154.015944 
L 120.664227 154.168735 
L 120.960982 160.056 
L 121.0599 159.053837 
L 121.356655 152.211148 
L 121.455573 152.107999 
L 121.554491 150.31803 
L 121.752327 134.204446 
L 122.246918 85.681249 
L 122.939345 59.021582 
L 123.631773 46.582382 
L 123.928527 42.547942 
L 124.126364 39.768382 
L 124.225282 39.242319 
L 124.522036 36.841833 
L 124.818791 34.767559 
L 124.917709 35.269769 
L 125.214464 33.467551 
L 125.313382 33.770231 
L 125.4123 33.280592 
L 125.511218 33.322819 
L 125.610136 33.191948 
L 125.709055 32.78354 
L 125.906891 33.108139 
L 126.005809 32.293902 
L 126.104727 32.372553 
L 126.203645 32.476025 
L 126.302564 32.412846 
L 126.401482 31.987032 
L 126.5004 33.120388 
L 126.698236 31.984131 
L 126.994991 32.275851 
L 127.093909 31.605378 
L 127.291745 31.880014 
L 127.489582 31.643737 
L 127.5885 31.938358 
L 127.786336 31.411972 
L 127.885255 31.82167 
L 127.984173 31.458712 
L 128.083091 31.822315 
L 128.182009 30.982934 
L 128.280927 31.713363 
L 128.379845 31.261438 
L 128.478764 31.872922 
L 128.577682 31.061586 
L 128.6766 31.176018 
L 128.775518 30.885909 
L 128.874436 31.284647 
L 128.973355 30.973909 
L 129.072273 31.068355 
L 129.270109 30.696372 
L 129.467945 31.02226 
L 129.566864 30.595801 
L 129.863618 31.362009 
L 129.962536 30.985836 
L 130.061455 31.298508 
L 130.160373 30.349209 
L 130.556045 31.70337 
L 130.654964 31.807164 
L 130.8528 31.092853 
L 130.951718 31.643092 
L 131.149555 30.82273 
L 131.248473 31.10059 
L 131.347391 31.124443 
L 131.446309 31.01259 
L 131.841982 31.715942 
L 132.039818 30.719903 
L 132.138736 30.697339 
L 132.336573 31.284002 
L 132.534409 30.918788 
L 132.633327 31.515444 
L 132.732245 30.852063 
L 132.831164 31.230171 
L 132.930082 30.950378 
L 133.029 31.414551 
L 133.127918 30.88881 
L 133.226836 31.352339 
L 133.325755 31.166992 
L 133.424673 31.26305 
L 133.523591 30.9507 
L 133.721427 31.427123 
L 133.820345 31.511899 
L 133.919264 31.254992 
L 134.1171 31.369101 
L 134.216018 31.226303 
L 134.314936 30.415289 
L 134.413855 31.415518 
L 134.710609 30.756328 
L 134.809527 31.545745 
L 134.908445 31.388764 
L 135.106282 31.454844 
L 135.304118 30.753749 
L 135.403036 31.671136 
L 135.600873 30.970041 
L 135.699791 31.020004 
L 135.798709 31.73367 
L 135.897627 30.78147 
L 135.996545 31.257893 
L 136.095464 31.087051 
L 136.392218 32.044731 
L 136.491136 31.423577 
L 136.985727 33.117809 
L 137.084645 33.01885 
L 137.3814 35.117945 
L 137.480318 34.88747 
L 137.579236 35.808081 
L 137.678155 35.153725 
L 137.777073 35.900915 
L 137.875991 35.614675 
L 137.974909 35.876417 
L 138.073827 35.652067 
L 138.172745 35.98408 
L 138.271664 35.591144 
L 138.370582 35.654968 
L 138.568418 36.006966 
L 138.667336 35.384523 
L 138.766255 35.820974 
L 139.063009 33.891432 
L 139.161927 33.92012 
L 139.458682 32.642032 
L 139.5576 32.956961 
L 139.656518 32.551454 
L 139.755436 32.96244 
L 139.953273 32.406722 
L 140.052191 32.149815 
L 140.151109 32.464421 
L 140.250027 31.86841 
L 140.348945 32.012497 
L 140.447864 31.948673 
L 140.546782 32.504714 
L 140.6457 31.50932 
L 140.843536 32.417681 
L 140.942455 32.368363 
L 141.041373 31.457745 
L 141.140291 32.242327 
L 141.239209 31.657598 
L 141.338127 32.339997 
L 141.437045 32.214928 
L 141.634882 31.844234 
L 141.832718 32.387381 
L 142.228391 33.528152 
L 142.327309 33.505588 
L 142.426227 32.877987 
L 142.525145 33.596488 
L 142.624064 32.909254 
L 142.8219 33.636136 
L 143.019736 33.260285 
L 143.118655 33.651609 
L 143.217573 33.42339 
L 143.316491 33.642906 
L 143.415409 33.446277 
L 143.514327 33.728649 
L 143.712164 33.177765 
L 143.811082 32.313242 
L 143.91 33.14682 
L 144.008918 32.427996 
L 144.107836 32.98436 
L 144.206755 32.020233 
L 144.305673 32.437989 
L 144.404591 32.400275 
L 144.503509 32.750017 
L 144.602427 31.900644 
L 144.899182 32.453461 
L 145.097018 31.83134 
L 145.195936 32.094694 
L 145.690527 31.294962 
L 145.789445 31.808776 
L 145.888364 31.737861 
L 146.0862 31.289805 
L 146.284036 31.517056 
L 146.382955 31.156355 
L 146.481873 31.697246 
L 146.580791 31.157967 
L 146.679709 31.886461 
L 146.778627 31.567342 
L 146.877545 31.899354 
L 146.976464 31.171505 
L 147.075382 31.530595 
L 147.1743 30.886876 
L 147.372136 31.317204 
L 147.471055 30.913953 
L 147.668891 31.522214 
L 147.767809 31.594418 
L 147.866727 31.894842 
L 148.163482 30.66027 
L 148.361318 31.736571 
L 148.559155 30.961338 
L 148.658073 31.402947 
L 148.756991 30.989381 
L 149.152664 31.530595 
L 149.3505 30.367905 
L 149.548336 31.301731 
L 149.647255 31.235006 
L 149.746173 30.963594 
L 150.042927 31.311724 
L 150.141845 30.783082 
L 150.339682 31.158611 
L 150.4386 31.159578 
L 150.735355 30.827565 
L 150.834273 31.341702 
L 150.933191 30.907506 
L 151.032109 30.934583 
L 151.229945 30.665427 
L 151.427782 31.188911 
L 151.5267 30.7112 
L 151.625618 31.036443 
L 151.724536 30.867858 
L 151.823455 31.333966 
L 151.922373 31.033542 
L 152.021291 31.205029 
L 152.120209 30.631259 
L 152.318045 30.865602 
L 152.416964 31.132824 
L 152.515882 30.622555 
L 152.6148 31.256926 
L 152.713718 31.241453 
L 152.812636 31.438405 
L 152.911555 30.797265 
L 153.010473 31.804908 
L 153.109391 30.81725 
L 153.208309 31.105102 
L 153.307227 30.225107 
L 153.505064 31.023227 
L 153.603982 30.778247 
L 153.900736 31.188267 
L 153.999655 31.130567 
L 154.197491 31.187944 
L 154.296409 31.109937 
L 154.395327 31.804908 
L 154.494245 30.900737 
L 154.593164 31.372647 
L 154.692082 31.332354 
L 154.889918 31.020971 
L 154.988836 31.342346 
L 155.087755 31.131534 
L 155.186673 31.261438 
L 155.285591 30.776958 
L 155.384509 31.328486 
L 155.483427 30.837236 
L 155.582345 31.5754 
L 155.780182 30.984224 
L 155.8791 31.361365 
L 155.978018 30.985513 
L 156.076936 31.036443 
L 156.175855 30.759551 
L 156.373691 31.326229 
L 156.472609 31.014524 
L 156.571527 31.260471 
L 156.670445 30.743756 
L 156.769364 31.261438 
L 156.868282 30.756005 
L 156.9672 31.644381 
L 157.066118 31.219856 
L 157.165036 31.302376 
L 157.263955 31.134113 
L 157.362873 31.431958 
L 157.461791 30.542292 
L 157.560709 30.742789 
L 157.659627 30.607405 
L 157.758545 30.053298 
L 157.956382 30.919755 
L 158.0553 30.337605 
L 158.154218 30.505545 
L 158.352055 31.216633 
L 158.450973 30.164507 
L 158.549891 30.753104 
L 158.648809 30.70024 
L 158.945564 31.390698 
L 159.044482 30.725383 
L 159.1434 30.864957 
L 159.242318 31.44195 
L 159.440155 31.023227 
L 159.539073 31.341057 
L 159.736909 30.643508 
L 159.934745 31.188589 
L 160.033664 30.860444 
L 160.132582 30.913631 
L 160.330418 31.222757 
L 160.528255 30.807902 
L 160.627173 31.195358 
L 160.726091 31.076736 
L 160.825009 31.157644 
L 161.022845 31.01259 
L 161.121764 31.49288 
L 161.220682 31.397467 
L 161.3196 31.711429 
L 161.517436 30.469443 
L 161.814191 30.855609 
L 161.913109 30.680899 
L 162.012027 31.270786 
L 162.209864 30.630936 
L 162.308782 31.049015 
L 162.605536 30.731185 
L 162.704455 31.150875 
L 162.803373 30.877528 
L 163.001209 31.374581 
L 163.297964 30.521018 
L 163.4958 31.48321 
L 163.792555 30.331802 
L 163.891473 30.374352 
L 164.089309 31.244032 
L 164.287145 30.622878 
L 164.386064 30.612241 
L 164.484982 30.963916 
L 164.5839 30.748269 
L 164.682818 31.137014 
L 164.979573 30.944253 
L 165.078491 31.082216 
L 165.177409 30.949733 
L 165.276327 31.862607 
L 165.474164 31.205029 
L 165.672 31.518023 
L 165.770918 31.975105 
L 165.869836 31.864541 
L 166.067673 32.481828 
L 166.166591 32.085991 
L 166.562264 33.237076 
L 166.859018 35.597269 
L 166.957936 36.315448 
L 167.056855 35.805502 
L 167.254691 36.747709 
L 167.353609 36.550436 
L 167.551445 36.009867 
L 167.749282 36.52207 
L 167.947118 35.408698 
L 168.046036 35.505401 
L 168.144955 35.204333 
L 168.243873 35.640785 
L 168.342791 35.121813 
L 168.441709 35.524742 
L 168.639545 33.591975 
L 168.9363 32.144335 
L 169.035218 32.273917 
L 169.331973 31.673715 
L 169.430891 31.665656 
L 169.529809 31.770417 
L 169.628727 31.612792 
L 169.727645 31.213409 
L 169.826564 31.736571 
L 170.0244 30.721837 
L 170.123318 30.958436 
L 170.222236 31.781699 
L 170.321155 31.651151 
L 170.420073 31.716586 
L 170.518991 31.251124 
L 170.617909 31.971882 
L 170.815745 31.006143 
L 171.013582 31.569276 
L 171.1125 31.209864 
L 171.310336 31.87808 
L 171.409255 31.126055 
L 171.706009 32.075676 
L 171.903845 32.412846 
L 172.002764 32.116936 
L 172.2006 33.206131 
L 172.299518 32.554355 
L 172.497355 32.79998 
L 172.596273 32.759042 
L 172.695191 32.358693 
L 172.794109 32.848976 
L 172.893027 32.788698 
L 172.991945 32.946323 
L 173.090864 32.87154 
L 173.189782 32.970499 
L 173.2887 32.436377 
L 173.387618 32.918924 
L 173.486536 32.485373 
L 173.585455 32.617856 
L 173.684373 31.994446 
L 173.783291 32.519542 
L 173.882209 32.381257 
L 174.080045 31.475474 
L 174.178964 32.289067 
L 174.277882 31.715942 
L 174.3768 31.793626 
L 174.673555 31.436148 
L 174.772473 31.962534 
L 174.871391 31.361042 
L 174.970309 31.678227 
L 175.069227 31.083183 
L 175.365982 31.410683 
L 175.4649 31.274332 
L 175.563818 31.635678 
L 175.662736 30.850129 
L 175.761655 31.536397 
L 175.860573 30.257664 
L 176.058409 31.141849 
L 176.256245 30.783082 
L 176.355164 31.679839 
L 176.454082 31.546389 
L 176.651918 30.927169 
L 177.047591 30.892034 
L 177.146509 31.323006 
L 177.245427 30.836591 
L 177.344345 31.276589 
L 177.443264 31.163769 
L 177.542182 31.314947 
L 177.6411 30.123247 
L 177.838936 30.946832 
L 177.937855 30.712811 
L 178.135691 31.639546 
L 178.333527 31.207607 
L 178.432445 31.403269 
L 178.630282 30.701529 
L 178.7292 31.562829 
L 178.828118 31.004209 
L 179.025955 31.581525 
L 179.124873 31.612147 
L 179.223791 32.360949 
L 179.619464 31.067066 
L 179.718382 31.389731 
L 179.8173 30.992927 
L 180.114055 32.013786 
L 180.311891 31.261761 
L 180.410809 32.187851 
L 180.509727 32.105976 
L 180.707564 31.394244 
L 180.9054 32.347088 
L 181.004318 31.776542 
L 181.399991 33.163582 
L 181.597827 32.771614 
L 181.696745 33.145209 
L 181.795664 32.743892 
L 181.9935 33.408562 
L 182.092418 33.526862 
L 182.290255 34.347869 
L 182.389173 34.414271 
L 182.488091 34.750475 
L 183.180518 40.437887 
L 183.774027 49.133723 
L 184.565373 63.63495 
L 184.862127 71.454981 
L 185.554555 136.638455 
L 185.653473 135.913507 
L 185.752391 133.95044 
L 185.851309 135.296865 
L 186.148064 142.165986 
L 186.246982 139.527934 
L 186.3459 125.451556 
L 186.543736 135.083152 
L 186.642655 135.467385 
L 186.741573 133.019515 
L 186.939409 114.923202 
L 187.335082 79.702438 
L 187.928591 56.975996 
L 188.5221 46.438617 
L 189.709118 34.761757 
L 189.906955 33.75089 
L 190.005873 33.821483 
L 190.203709 33.060432 
L 190.302627 33.36279 
L 190.401545 32.996286 
L 190.500464 32.031837 
L 190.599382 33.450145 
L 190.797218 32.72165 
L 190.896136 32.673299 
L 190.995055 31.977039 
L 191.192891 32.412524 
L 191.390727 31.403914 
L 191.588564 32.351279 
L 191.7864 31.909669 
L 191.885318 32.470223 
L 191.984236 31.858095 
L 192.083155 32.015398 
L 192.182073 31.962534 
L 192.280991 31.623429 
L 192.379909 32.11887 
L 192.478827 31.659209 
L 192.577745 31.700147 
L 192.676664 31.792014 
L 192.775582 32.066973 
L 192.8745 31.143139 
L 192.973418 31.362654 
L 193.072336 30.957147 
L 193.171255 31.300442 
L 193.270173 31.014846 
L 193.468009 31.239197 
L 193.665845 30.808547 
L 193.764764 31.267241 
L 193.863682 30.478146 
L 194.061518 31.495137 
L 194.160436 31.05256 
L 194.457191 31.505774 
L 194.556109 30.840459 
L 194.655027 31.075124 
L 194.753945 31.679839 
L 194.852864 31.106714 
L 194.951782 31.230171 
L 195.0507 31.145073 
L 195.149618 31.593129 
L 195.347455 30.961015 
L 195.446373 31.087373 
L 195.644209 30.849485 
L 195.743127 30.981323 
L 195.842045 30.645764 
L 195.940964 31.467415 
L 196.039882 30.809837 
L 196.1388 30.868825 
L 196.237718 31.355885 
L 196.336636 31.16538 
L 196.534473 31.460002 
L 196.633391 31.236296 
L 196.831227 31.535107 
L 196.930145 31.611503 
L 197.029064 31.204706 
L 197.2269 31.304955 
L 197.325818 31.269819 
L 197.424736 30.428505 
L 197.523655 31.299475 
L 197.721491 30.835624 
L 197.919327 31.550257 
L 198.018245 31.36072 
L 198.117164 30.695405 
L 198.315 30.815961 
L 198.611755 30.430439 
L 198.710673 30.605794 
L 198.809591 31.069645 
L 199.106345 30.476534 
L 199.205264 30.803067 
L 199.304182 30.118089 
L 199.4031 31.051916 
L 199.600936 30.489428 
L 199.699855 31.092531 
L 199.897691 30.466864 
L 199.996609 30.592255 
L 200.095527 30.437208 
L 200.293364 30.824342 
L 200.4912 31.116062 
L 200.689036 30.95618 
L 200.886873 30.351465 
L 201.183627 31.603444 
L 201.381464 32.12435 
L 201.480382 31.768483 
L 201.678218 32.615277 
L 201.777136 32.133053 
L 201.876055 32.597226 
L 201.974973 32.190752 
L 202.073891 32.276818 
L 202.271727 33.400826 
L 202.469564 32.410912 
L 202.6674 33.117165 
L 202.766318 33.185179 
L 202.964155 34.21313 
L 203.260909 33.644195 
L 203.359827 33.733806 
L 203.458745 32.704889 
L 203.656582 33.160681 
L 203.7555 32.330649 
L 203.953336 32.657182 
L 204.052255 32.642999 
L 204.151173 32.383835 
L 204.250091 32.67201 
L 204.645764 32.113712 
L 204.744682 31.44195 
L 204.8436 31.538008 
L 204.942518 32.309697 
L 205.041436 31.578624 
L 205.140355 31.70885 
L 205.239273 31.363621 
L 205.536027 31.927721 
L 205.634945 32.1092 
L 205.733864 31.866476 
L 205.832782 32.301316 
L 205.9317 31.767839 
L 206.129536 31.950929 
L 206.327373 31.612792 
L 206.525209 31.234684 
L 206.624127 31.365233 
L 206.821964 31.209864 
L 206.920882 31.358141 
L 207.118718 31.009044 
L 207.316555 31.899999 
L 207.415473 32.018299 
L 207.613309 32.591424 
L 207.712227 32.741958 
L 207.910064 33.346028 
L 208.206818 32.624948 
L 208.305736 33.774099 
L 208.503573 32.781928 
L 208.602491 33.044638 
L 208.701409 32.939232 
L 208.899245 33.258996 
L 208.998164 32.91699 
L 209.097082 33.330878 
L 209.591673 31.177629 
L 209.690591 31.544778 
L 209.888427 31.308501 
L 209.987345 30.982612 
L 210.185182 31.066744 
L 210.383018 30.390146 
L 210.481936 30.292477 
L 210.580855 30.48008 
L 210.679773 29.881168 
L 210.778691 30.577428 
L 210.976527 30.262176 
L 211.174364 30.943931 
L 211.273282 30.926847 
L 211.471118 31.187622 
L 211.570036 30.312462 
L 211.668955 30.41819 
L 211.866791 30.46912 
L 211.965709 30.715712 
L 212.064627 30.174822 
L 212.163545 30.200609 
L 212.262464 30.318909 
L 212.361382 29.700333 
L 212.559218 30.328901 
L 212.757055 30.162573 
L 212.855973 30.257664 
L 212.954891 30.78695 
L 213.053809 30.335671 
L 213.152727 30.605794 
L 213.449482 30.251861 
L 213.5484 30.629647 
L 213.647318 30.084243 
L 213.845155 30.367905 
L 214.042991 29.905988 
L 214.240827 30.524886 
L 214.339745 30.049753 
L 214.6365 30.191583 
L 214.735418 29.731601 
L 214.933255 30.129049 
L 215.032173 29.526268 
L 215.230009 30.168697 
L 215.328927 29.957563 
L 215.526764 30.048463 
L 215.922436 29.361551 
L 216.021355 30.091013 
L 216.120273 30.047496 
L 216.219191 29.630063 
L 216.417027 29.941768 
L 216.614864 29.721608 
L 216.911618 30.145166 
L 217.010536 29.973035 
L 217.109455 29.365419 
L 217.208373 29.420862 
L 217.406209 29.641022 
L 217.604045 29.401844 
L 217.801882 30.06458 
L 217.9008 30.269913 
L 217.999718 30.119056 
L 218.098636 29.66681 
L 218.197555 30.119701 
L 218.296473 29.69711 
L 218.395391 29.911145 
L 218.593227 29.618458 
L 218.692145 29.587191 
L 218.791064 29.764479 
L 218.889982 29.660685 
L 218.9889 30.164829 
L 219.087818 29.696143 
L 219.186736 30.255407 
L 219.384573 29.695176 
L 219.582409 29.639411 
L 219.681327 30.331802 
L 219.780245 30.241869 
L 219.879164 30.142587 
L 219.978082 29.560437 
L 220.175918 29.809285 
L 220.274836 29.387983 
L 220.373755 29.669711 
L 220.571591 29.548832 
L 220.769427 30.278294 
L 220.967264 29.600729 
L 221.066182 30.07135 
L 221.1651 30.019452 
L 221.264018 29.751586 
L 221.362936 30.292477 
L 221.461855 29.851834 
L 221.560773 30.051364 
L 221.659691 29.717417 
L 221.758609 30.048463 
L 221.857527 29.529492 
L 222.055364 30.006559 
L 222.154282 29.94338 
L 222.352118 29.141391 
L 222.451036 29.825402 
L 222.648873 29.341566 
L 222.846709 29.653594 
L 223.143464 30.227686 
L 223.242382 30.119701 
L 223.3413 29.690018 
L 223.539136 29.778018 
L 223.638055 29.52788 
L 223.736973 29.826369 
L 223.835891 29.34898 
L 223.934809 29.947892 
L 224.132645 29.278387 
L 224.4294 30.501355 
L 224.627236 29.654238 
L 224.825073 29.18942 
L 225.022909 30.169986 
L 225.121827 29.656172 
L 225.220745 29.725476 
L 225.319664 29.317713 
L 225.5175 30.529721 
L 225.814255 30.152258 
L 226.012091 30.429795 
L 226.111009 29.867307 
L 226.308845 30.226396 
L 226.407764 30.244448 
L 226.6056 30.051042 
L 226.704518 29.98335 
L 226.902355 30.219305 
L 227.001273 30.020097 
L 227.100191 30.274748 
L 227.396945 29.751263 
L 227.495864 30.265078 
L 227.594782 29.66552 
L 227.792618 30.019452 
L 227.990455 29.432467 
L 228.089373 29.516276 
L 228.287209 29.995277 
L 228.386127 30.005269 
L 228.583964 29.7013 
L 228.682882 29.78382 
L 228.7818 29.386694 
L 229.078555 29.996244 
L 229.177473 29.86634 
L 229.276391 30.564211 
L 229.474227 30.017196 
L 229.573145 30.163217 
L 229.8699 29.560114 
L 229.968818 30.018808 
L 230.067736 29.958207 
L 230.166655 29.704201 
L 230.364491 30.355978 
L 230.463409 29.560759 
L 230.562327 30.146133 
L 230.661245 29.929519 
L 230.760164 30.126148 
L 230.859082 29.551411 
L 231.155836 30.246059 
L 231.254755 30.234133 
L 231.452591 29.812509 
L 231.551509 29.67229 
L 231.650427 29.960464 
L 231.749345 29.440525 
L 231.947182 30.604182 
L 232.0461 30.060712 
L 232.145018 30.54068 
L 232.342855 30.067482 
L 232.441773 30.399494 
L 232.540691 30.369839 
L 232.639609 30.001724 
L 232.738527 30.151613 
L 232.837445 29.636509 
L 232.936364 29.954017 
L 233.035282 29.795102 
L 233.1342 30.060068 
L 233.233118 29.661008 
L 233.332036 29.837974 
L 233.430955 30.319553 
L 233.529873 29.420862 
L 233.628791 30.015907 
L 233.826627 29.195867 
L 234.024464 30.540036 
L 234.123382 29.237772 
L 234.2223 29.72741 
L 234.321218 29.541096 
L 234.519055 29.747718 
L 234.617973 29.62555 
L 234.815809 30.07006 
L 234.914727 29.491455 
L 235.112564 30.249283 
L 235.3104 29.418606 
L 235.409318 30.053298 
L 235.607155 29.48662 
L 235.706073 29.625227 
L 235.804991 30.011072 
L 236.002827 29.319969 
L 236.101745 29.102065 
L 236.299582 30.382088 
L 236.596336 29.110446 
L 236.695255 29.835073 
L 236.794173 29.501448 
L 236.893091 29.653916 
L 237.189845 29.395075 
L 237.4866 29.862794 
L 237.585518 29.922427 
L 237.684436 29.269361 
L 237.783355 29.725154 
L 237.882273 29.657462 
L 238.080109 29.811864 
L 238.277945 29.362841 
L 238.475782 29.832494 
L 238.5747 30.094558 
L 238.673618 29.710971 
L 238.772536 29.841519 
L 238.871455 29.44665 
L 238.970373 29.786721 
L 239.168209 29.438913 
L 239.267127 30.025255 
L 239.366045 29.685183 
L 239.464964 29.933065 
L 239.6628 29.1646 
L 239.761718 30.125181 
L 239.860636 30.000434 
L 240.058473 29.218431 
L 240.157391 29.844098 
L 240.553064 29.22649 
L 240.849818 29.127531 
L 240.948736 29.651337 
L 241.047655 29.206827 
L 241.443327 29.673257 
L 241.542245 29.016 
L 241.740082 29.469858 
L 241.839 29.311588 
L 242.135755 29.833783 
L 242.333591 29.641345 
L 242.432509 29.688407 
L 242.531427 29.943057 
L 242.828182 29.60911 
L 242.828182 29.60911 
" clip-path="url(#pc96fb6b238)" style="fill: none; stroke: #1f77b4; stroke-width: 1.5; stroke-linecap: square"/>
   </g>
   <g id="patch_3">
    <path d="M 35.1 166.608 
L 35.1 22.464 
" style="fill: none; stroke: #000000; stroke-width: 0.8; stroke-linejoin: miter; stroke-linecap: square"/>
   </g>
   <g id="patch_4">
    <path d="M 252.72 166.608 
L 252.72 22.464 
" style="fill: none; stroke: #000000; stroke-width: 0.8; stroke-linejoin: miter; stroke-linecap: square"/>
   </g>
   <g id="patch_5">
    <path d="M 35.1 166.608 
L 252.72 166.608 
" style="fill: none; stroke: #000000; stroke-width: 0.8; stroke-linejoin: miter; stroke-linecap: square"/>
   </g>
   <g id="patch_6">
    <path d="M 35.1 22.464 
L 252.72 22.464 
" style="fill: none; stroke: #000000; stroke-width: 0.8; stroke-linejoin: miter; stroke-linecap: square"/>
   </g>
  </g>
 </g>
 <defs>
  <clipPath id="pc96fb6b238">
   <rect x="35.1" y="22.464" width="217.62" height="144.144"/>
  </clipPath>
 </defs>
</svg>
