<?xml version="1.0" encoding="utf-8" standalone="no"?>
<!DOCTYPE svg PUBLIC "-//W3C//DTD SVG 1.1//EN"
  "http://www.w3.org/Graphics/SVG/1.1/DTD/svg11.dtd">
<svg xmlns:xlink="http://www.w3.org/1999/xlink" width="280.8pt" height="187.2pt" viewBox="0 0 280.8 187.2" xmlns="http://www.w3.org/2000/svg" version="1.1">
 <metadata>
  <rdf:RDF xmlns:dc="http://purl.org/dc/elements/1.1/" xmlns:cc="http://creativecommons.org/ns#" xmlns:rdf="http://www.w3.org/1999/02/22-rdf-syntax-ns#">
   <cc:Work>
    <dc:type rdf:resource="http://purl.org/dc/dcmitype/StillImage"/>
    <dc:date>2022-05-16T18:23:29.879246</dc:date>
    <dc:format>image/svg+xml</dc:format>
    <dc:creator>
     <cc:Agent>
      <dc:title>Matplotlib v3.5.1, https://matplotlib.org/</dc:title>
     </cc:Agent>
    </dc:creator>
   </cc:Work>
  </rdf:RDF>
 </metadata>
 <defs>
  <style type="text/css">*{stroke-linejoin: round; stroke-linecap: butt}</style>
 </defs>
 <g id="figure_1">
  <g id="patch_1">
   <path d="M 0 187.2 
L 280.8 187.2 
L 280.8 0 
L 0 0 
z
" style="fill: #ffffff"/>
  </g>
  <g id="axes_1">
   <g id="patch_2">
    <path d="M 35.1 166.608 
L 252.72 166.608 
L 252.72 22.464 
L 35.1 22.464 
z
" style="fill: #ffffff"/>
   </g>
   <g id="matplotlib.axis_1">
    <g id="xtick_1">
     <g id="line2d_1">
      <defs>
       <path id="maba30548a3" d="M 0 0 
L 0 3.5 
" style="stroke: #000000; stroke-width: 0.8"/>
      </defs>
      <g>
       <use xlink:href="#maba30548a3" x="73.254156" y="166.608" style="stroke: #000000; stroke-width: 0.8"/>
      </g>
     </g>
     <g id="text_1">
      <!-- 2600 -->
      <g transform="translate(56.711656 183.485969)scale(0.13 -0.13)">
       <defs>
        <path id="DejaVuSans-32" d="M 1228 531 
L 3431 531 
L 3431 0 
L 469 0 
L 469 531 
Q 828 903 1448 1529 
Q 2069 2156 2228 2338 
Q 2531 2678 2651 2914 
Q 2772 3150 2772 3378 
Q 2772 3750 2511 3984 
Q 2250 4219 1831 4219 
Q 1534 4219 1204 4116 
Q 875 4013 500 3803 
L 500 4441 
Q 881 4594 1212 4672 
Q 1544 4750 1819 4750 
Q 2544 4750 2975 4387 
Q 3406 4025 3406 3419 
Q 3406 3131 3298 2873 
Q 3191 2616 2906 2266 
Q 2828 2175 2409 1742 
Q 1991 1309 1228 531 
z
" transform="scale(0.015625)"/>
        <path id="DejaVuSans-36" d="M 2113 2584 
Q 1688 2584 1439 2293 
Q 1191 2003 1191 1497 
Q 1191 994 1439 701 
Q 1688 409 2113 409 
Q 2538 409 2786 701 
Q 3034 994 3034 1497 
Q 3034 2003 2786 2293 
Q 2538 2584 2113 2584 
z
M 3366 4563 
L 3366 3988 
Q 3128 4100 2886 4159 
Q 2644 4219 2406 4219 
Q 1781 4219 1451 3797 
Q 1122 3375 1075 2522 
Q 1259 2794 1537 2939 
Q 1816 3084 2150 3084 
Q 2853 3084 3261 2657 
Q 3669 2231 3669 1497 
Q 3669 778 3244 343 
Q 2819 -91 2113 -91 
Q 1303 -91 875 529 
Q 447 1150 447 2328 
Q 447 3434 972 4092 
Q 1497 4750 2381 4750 
Q 2619 4750 2861 4703 
Q 3103 4656 3366 4563 
z
" transform="scale(0.015625)"/>
        <path id="DejaVuSans-30" d="M 2034 4250 
Q 1547 4250 1301 3770 
Q 1056 3291 1056 2328 
Q 1056 1369 1301 889 
Q 1547 409 2034 409 
Q 2525 409 2770 889 
Q 3016 1369 3016 2328 
Q 3016 3291 2770 3770 
Q 2525 4250 2034 4250 
z
M 2034 4750 
Q 2819 4750 3233 4129 
Q 3647 3509 3647 2328 
Q 3647 1150 3233 529 
Q 2819 -91 2034 -91 
Q 1250 -91 836 529 
Q 422 1150 422 2328 
Q 422 3509 836 4129 
Q 1250 4750 2034 4750 
z
" transform="scale(0.015625)"/>
       </defs>
       <use xlink:href="#DejaVuSans-32"/>
       <use xlink:href="#DejaVuSans-36" x="63.623047"/>
       <use xlink:href="#DejaVuSans-30" x="127.246094"/>
       <use xlink:href="#DejaVuSans-30" x="190.869141"/>
      </g>
     </g>
    </g>
    <g id="xtick_2">
     <g id="line2d_2">
      <g>
       <use xlink:href="#maba30548a3" x="129.778831" y="166.608" style="stroke: #000000; stroke-width: 0.8"/>
      </g>
     </g>
     <g id="text_2">
      <!-- 2800 -->
      <g transform="translate(113.236331 183.485969)scale(0.13 -0.13)">
       <defs>
        <path id="DejaVuSans-38" d="M 2034 2216 
Q 1584 2216 1326 1975 
Q 1069 1734 1069 1313 
Q 1069 891 1326 650 
Q 1584 409 2034 409 
Q 2484 409 2743 651 
Q 3003 894 3003 1313 
Q 3003 1734 2745 1975 
Q 2488 2216 2034 2216 
z
M 1403 2484 
Q 997 2584 770 2862 
Q 544 3141 544 3541 
Q 544 4100 942 4425 
Q 1341 4750 2034 4750 
Q 2731 4750 3128 4425 
Q 3525 4100 3525 3541 
Q 3525 3141 3298 2862 
Q 3072 2584 2669 2484 
Q 3125 2378 3379 2068 
Q 3634 1759 3634 1313 
Q 3634 634 3220 271 
Q 2806 -91 2034 -91 
Q 1263 -91 848 271 
Q 434 634 434 1313 
Q 434 1759 690 2068 
Q 947 2378 1403 2484 
z
M 1172 3481 
Q 1172 3119 1398 2916 
Q 1625 2713 2034 2713 
Q 2441 2713 2670 2916 
Q 2900 3119 2900 3481 
Q 2900 3844 2670 4047 
Q 2441 4250 2034 4250 
Q 1625 4250 1398 4047 
Q 1172 3844 1172 3481 
z
" transform="scale(0.015625)"/>
       </defs>
       <use xlink:href="#DejaVuSans-32"/>
       <use xlink:href="#DejaVuSans-38" x="63.623047"/>
       <use xlink:href="#DejaVuSans-30" x="127.246094"/>
       <use xlink:href="#DejaVuSans-30" x="190.869141"/>
      </g>
     </g>
    </g>
    <g id="xtick_3">
     <g id="line2d_3">
      <g>
       <use xlink:href="#maba30548a3" x="186.303506" y="166.608" style="stroke: #000000; stroke-width: 0.8"/>
      </g>
     </g>
     <g id="text_3">
      <!-- 3000 -->
      <g transform="translate(169.761006 183.485969)scale(0.13 -0.13)">
       <defs>
        <path id="DejaVuSans-33" d="M 2597 2516 
Q 3050 2419 3304 2112 
Q 3559 1806 3559 1356 
Q 3559 666 3084 287 
Q 2609 -91 1734 -91 
Q 1441 -91 1130 -33 
Q 819 25 488 141 
L 488 750 
Q 750 597 1062 519 
Q 1375 441 1716 441 
Q 2309 441 2620 675 
Q 2931 909 2931 1356 
Q 2931 1769 2642 2001 
Q 2353 2234 1838 2234 
L 1294 2234 
L 1294 2753 
L 1863 2753 
Q 2328 2753 2575 2939 
Q 2822 3125 2822 3475 
Q 2822 3834 2567 4026 
Q 2313 4219 1838 4219 
Q 1578 4219 1281 4162 
Q 984 4106 628 3988 
L 628 4550 
Q 988 4650 1302 4700 
Q 1616 4750 1894 4750 
Q 2613 4750 3031 4423 
Q 3450 4097 3450 3541 
Q 3450 3153 3228 2886 
Q 3006 2619 2597 2516 
z
" transform="scale(0.015625)"/>
       </defs>
       <use xlink:href="#DejaVuSans-33"/>
       <use xlink:href="#DejaVuSans-30" x="63.623047"/>
       <use xlink:href="#DejaVuSans-30" x="127.246094"/>
       <use xlink:href="#DejaVuSans-30" x="190.869141"/>
      </g>
     </g>
    </g>
    <g id="xtick_4">
     <g id="line2d_4">
      <g>
       <use xlink:href="#maba30548a3" x="242.828182" y="166.608" style="stroke: #000000; stroke-width: 0.8"/>
      </g>
     </g>
     <g id="text_4">
      <!-- 3200 -->
      <g transform="translate(226.285682 183.485969)scale(0.13 -0.13)">
       <use xlink:href="#DejaVuSans-33"/>
       <use xlink:href="#DejaVuSans-32" x="63.623047"/>
       <use xlink:href="#DejaVuSans-30" x="127.246094"/>
       <use xlink:href="#DejaVuSans-30" x="190.869141"/>
      </g>
     </g>
    </g>
   </g>
   <g id="matplotlib.axis_2">
    <g id="ytick_1">
     <g id="line2d_5">
      <defs>
       <path id="m32494dd64b" d="M 0 0 
L -3.5 0 
" style="stroke: #000000; stroke-width: 0.8"/>
      </defs>
      <g>
       <use xlink:href="#m32494dd64b" x="35.1" y="158.473871" style="stroke: #000000; stroke-width: 0.8"/>
      </g>
     </g>
     <g id="text_5">
      <!-- 0.995 -->
      <g transform="translate(-9.116563 163.412855)scale(0.13 -0.13)">
       <defs>
        <path id="DejaVuSans-2e" d="M 684 794 
L 1344 794 
L 1344 0 
L 684 0 
L 684 794 
z
" transform="scale(0.015625)"/>
        <path id="DejaVuSans-39" d="M 703 97 
L 703 672 
Q 941 559 1184 500 
Q 1428 441 1663 441 
Q 2288 441 2617 861 
Q 2947 1281 2994 2138 
Q 2813 1869 2534 1725 
Q 2256 1581 1919 1581 
Q 1219 1581 811 2004 
Q 403 2428 403 3163 
Q 403 3881 828 4315 
Q 1253 4750 1959 4750 
Q 2769 4750 3195 4129 
Q 3622 3509 3622 2328 
Q 3622 1225 3098 567 
Q 2575 -91 1691 -91 
Q 1453 -91 1209 -44 
Q 966 3 703 97 
z
M 1959 2075 
Q 2384 2075 2632 2365 
Q 2881 2656 2881 3163 
Q 2881 3666 2632 3958 
Q 2384 4250 1959 4250 
Q 1534 4250 1286 3958 
Q 1038 3666 1038 3163 
Q 1038 2656 1286 2365 
Q 1534 2075 1959 2075 
z
" transform="scale(0.015625)"/>
        <path id="DejaVuSans-35" d="M 691 4666 
L 3169 4666 
L 3169 4134 
L 1269 4134 
L 1269 2991 
Q 1406 3038 1543 3061 
Q 1681 3084 1819 3084 
Q 2600 3084 3056 2656 
Q 3513 2228 3513 1497 
Q 3513 744 3044 326 
Q 2575 -91 1722 -91 
Q 1428 -91 1123 -41 
Q 819 9 494 109 
L 494 744 
Q 775 591 1075 516 
Q 1375 441 1709 441 
Q 2250 441 2565 725 
Q 2881 1009 2881 1497 
Q 2881 1984 2565 2268 
Q 2250 2553 1709 2553 
Q 1456 2553 1204 2497 
Q 953 2441 691 2322 
L 691 4666 
z
" transform="scale(0.015625)"/>
       </defs>
       <use xlink:href="#DejaVuSans-30"/>
       <use xlink:href="#DejaVuSans-2e" x="63.623047"/>
       <use xlink:href="#DejaVuSans-39" x="95.410156"/>
       <use xlink:href="#DejaVuSans-39" x="159.033203"/>
       <use xlink:href="#DejaVuSans-35" x="222.65625"/>
      </g>
     </g>
    </g>
    <g id="ytick_2">
     <g id="line2d_6">
      <g>
       <use xlink:href="#m32494dd64b" x="35.1" y="132.582297" style="stroke: #000000; stroke-width: 0.8"/>
      </g>
     </g>
     <g id="text_6">
      <!-- 0.996 -->
      <g transform="translate(-9.116563 137.521281)scale(0.13 -0.13)">
       <use xlink:href="#DejaVuSans-30"/>
       <use xlink:href="#DejaVuSans-2e" x="63.623047"/>
       <use xlink:href="#DejaVuSans-39" x="95.410156"/>
       <use xlink:href="#DejaVuSans-39" x="159.033203"/>
       <use xlink:href="#DejaVuSans-36" x="222.65625"/>
      </g>
     </g>
    </g>
    <g id="ytick_3">
     <g id="line2d_7">
      <g>
       <use xlink:href="#m32494dd64b" x="35.1" y="106.690722" style="stroke: #000000; stroke-width: 0.8"/>
      </g>
     </g>
     <g id="text_7">
      <!-- 0.997 -->
      <g transform="translate(-9.116563 111.629707)scale(0.13 -0.13)">
       <defs>
        <path id="DejaVuSans-37" d="M 525 4666 
L 3525 4666 
L 3525 4397 
L 1831 0 
L 1172 0 
L 2766 4134 
L 525 4134 
L 525 4666 
z
" transform="scale(0.015625)"/>
       </defs>
       <use xlink:href="#DejaVuSans-30"/>
       <use xlink:href="#DejaVuSans-2e" x="63.623047"/>
       <use xlink:href="#DejaVuSans-39" x="95.410156"/>
       <use xlink:href="#DejaVuSans-39" x="159.033203"/>
       <use xlink:href="#DejaVuSans-37" x="222.65625"/>
      </g>
     </g>
    </g>
    <g id="ytick_4">
     <g id="line2d_8">
      <g>
       <use xlink:href="#m32494dd64b" x="35.1" y="80.799148" style="stroke: #000000; stroke-width: 0.8"/>
      </g>
     </g>
     <g id="text_8">
      <!-- 0.998 -->
      <g transform="translate(-9.116563 85.738133)scale(0.13 -0.13)">
       <use xlink:href="#DejaVuSans-30"/>
       <use xlink:href="#DejaVuSans-2e" x="63.623047"/>
       <use xlink:href="#DejaVuSans-39" x="95.410156"/>
       <use xlink:href="#DejaVuSans-39" x="159.033203"/>
       <use xlink:href="#DejaVuSans-38" x="222.65625"/>
      </g>
     </g>
    </g>
    <g id="ytick_5">
     <g id="line2d_9">
      <g>
       <use xlink:href="#m32494dd64b" x="35.1" y="54.907574" style="stroke: #000000; stroke-width: 0.8"/>
      </g>
     </g>
     <g id="text_9">
      <!-- 0.999 -->
      <g transform="translate(-9.116563 59.846559)scale(0.13 -0.13)">
       <use xlink:href="#DejaVuSans-30"/>
       <use xlink:href="#DejaVuSans-2e" x="63.623047"/>
       <use xlink:href="#DejaVuSans-39" x="95.410156"/>
       <use xlink:href="#DejaVuSans-39" x="159.033203"/>
       <use xlink:href="#DejaVuSans-39" x="222.65625"/>
      </g>
     </g>
    </g>
    <g id="ytick_6">
     <g id="line2d_10">
      <g>
       <use xlink:href="#m32494dd64b" x="35.1" y="29.016" style="stroke: #000000; stroke-width: 0.8"/>
      </g>
     </g>
     <g id="text_10">
      <!-- 1.000 -->
      <g transform="translate(-9.116563 33.954984)scale(0.13 -0.13)">
       <defs>
        <path id="DejaVuSans-31" d="M 794 531 
L 1825 531 
L 1825 4091 
L 703 3866 
L 703 4441 
L 1819 4666 
L 2450 4666 
L 2450 531 
L 3481 531 
L 3481 0 
L 794 0 
L 794 531 
z
" transform="scale(0.015625)"/>
       </defs>
       <use xlink:href="#DejaVuSans-31"/>
       <use xlink:href="#DejaVuSans-2e" x="63.623047"/>
       <use xlink:href="#DejaVuSans-30" x="95.410156"/>
       <use xlink:href="#DejaVuSans-30" x="159.033203"/>
       <use xlink:href="#DejaVuSans-30" x="222.65625"/>
      </g>
     </g>
    </g>
   </g>
   <g id="line2d_11">
    <path d="M 44.991818 30.72227 
L 45.090736 30.794505 
L 45.189655 29.969698 
L 45.288573 30.78884 
L 45.387491 29.283696 
L 45.585327 30.203401 
L 45.684245 30.003219 
L 45.783164 31.018766 
L 45.882082 30.627844 
L 45.981 31.212338 
L 46.178836 31.008851 
L 46.376673 29.939482 
L 46.475591 31.107526 
L 46.673427 29.104288 
L 46.871264 31.147185 
L 47.168018 30.019271 
L 47.266936 30.115113 
L 47.464773 29.574999 
L 47.563691 30.734545 
L 47.761527 30.28083 
L 47.860445 30.535307 
L 47.959364 29.79029 
L 48.1572 30.680722 
L 48.256118 30.497537 
L 48.355036 29.761962 
L 48.453955 30.401223 
L 48.651791 29.699641 
L 48.750709 30.244004 
L 48.948545 30.044294 
L 49.047464 30.926229 
L 49.146382 29.408338 
L 49.2453 30.642008 
L 49.443136 29.519288 
L 49.542055 29.679339 
L 49.640973 30.245893 
L 49.838809 29.464521 
L 49.937727 29.76385 
L 50.036645 30.572605 
L 50.135564 30.129749 
L 50.3334 30.936616 
L 50.432318 30.584408 
L 50.531236 30.780814 
L 50.630155 29.841751 
L 50.827991 31.313374 
L 50.926909 30.836052 
L 51.025827 31.195342 
L 51.124745 30.545694 
L 51.322582 31.42574 
L 51.4215 30.05232 
L 51.619336 31.223669 
L 51.718255 30.455517 
L 51.916091 30.993271 
L 52.015009 30.686388 
L 52.113927 29.898879 
L 52.311764 30.808197 
L 52.5096 29.342712 
L 52.608518 30.427662 
L 52.707436 30.354954 
L 52.806355 29.967337 
L 52.905273 30.100005 
L 53.004191 30.460239 
L 53.103109 29.936649 
L 53.202027 29.996609 
L 53.300945 30.149107 
L 53.399864 29.771877 
L 53.5977 30.081592 
L 53.696618 29.932872 
L 53.795536 30.350233 
L 53.894455 29.882354 
L 53.993373 30.175546 
L 54.092291 30.054681 
L 54.191209 30.385643 
L 54.290127 29.893213 
L 54.389045 30.328987 
L 54.487964 29.0736 
L 54.6858 29.965921 
L 54.784718 29.769988 
L 54.982555 29.840807 
L 55.081473 30.286968 
L 55.180391 29.505596 
L 55.279309 30.222759 
L 55.378227 30.176018 
L 55.477145 30.612736 
L 55.674982 29.566501 
L 55.7739 29.768572 
L 55.872818 29.016 
L 55.971736 29.987639 
L 56.070655 29.226097 
L 56.268491 30.281774 
L 56.367409 30.061763 
L 56.565245 29.56178 
L 56.763082 31.054175 
L 56.960918 29.966865 
L 57.158755 30.548999 
L 57.257673 29.707667 
L 57.554427 30.179323 
L 57.851182 29.492849 
L 57.9501 30.406888 
L 58.049018 29.553754 
L 58.147936 29.695392 
L 58.246855 30.324266 
L 58.345773 30.12314 
L 58.444691 30.364397 
L 58.543609 29.282752 
L 58.741445 31.819967 
L 58.939282 30.177434 
L 59.0382 29.867246 
L 59.236036 31.062674 
L 59.433873 29.824283 
L 59.532791 29.723247 
L 59.730627 30.50934 
L 59.829545 29.707195 
L 59.928464 29.974891 
L 60.1263 31.018294 
L 60.324136 31.123106 
L 60.423055 31.494671 
L 60.521973 31.165125 
L 60.620891 32.725508 
L 60.917645 31.174096 
L 61.115482 32.63061 
L 61.313318 31.492782 
L 61.511155 32.990371 
L 61.708991 32.093801 
L 61.807909 32.71937 
L 61.906827 31.919586 
L 62.005745 32.005513 
L 62.104664 32.080109 
L 62.500336 30.380449 
L 62.599255 31.382304 
L 62.698173 31.140103 
L 62.797091 30.243532 
L 62.994927 31.467287 
L 63.093845 31.325649 
L 63.192764 30.614625 
L 63.291682 30.981468 
L 63.3906 30.860131 
L 63.489518 30.358259 
L 63.687355 30.772315 
L 63.786273 30.829443 
L 63.984109 30.432855 
L 64.280864 29.865358 
L 64.379782 30.022104 
L 64.577618 29.71711 
L 64.874373 30.30963 
L 65.072209 30.472986 
L 65.171127 29.370096 
L 65.270045 29.667064 
L 65.368964 31.011684 
L 65.467882 29.622684 
L 65.665718 30.827554 
L 65.764636 29.999914 
L 65.863555 30.523032 
L 65.962473 30.423885 
L 66.061391 30.923396 
L 66.160309 30.828498 
L 66.259227 30.045711 
L 66.358145 30.961638 
L 66.457064 30.164215 
L 66.555982 30.241171 
L 66.753818 31.155211 
L 66.852736 30.28083 
L 67.050573 31.293072 
L 67.248409 30.817167 
L 67.347327 32.03148 
L 67.545164 30.851633 
L 67.644082 31.177873 
L 67.743 31.084864 
L 68.039755 31.881815 
L 68.138673 32.629666 
L 68.336509 31.565962 
L 68.435427 30.813862 
L 68.534345 31.58768 
L 68.732182 30.525392 
L 68.8311 30.133998 
L 69.127855 31.43235 
L 69.226773 30.895541 
L 69.325691 31.297321 
L 69.424609 29.955534 
L 69.523527 31.028681 
L 69.721364 30.702912 
L 69.820282 30.712827 
L 69.9192 30.605182 
L 70.018118 31.550382 
L 70.117036 31.178345 
L 70.215955 31.534802 
L 70.413791 31.185427 
L 70.512709 31.204312 
L 70.611627 29.893213 
L 70.710545 31.416297 
L 70.809464 30.465904 
L 71.0073 31.570683 
L 71.106218 31.631116 
L 71.402973 30.483845 
L 71.600809 31.884648 
L 71.897564 30.92198 
L 71.996482 31.029625 
L 72.194318 30.208123 
L 72.293236 31.153322 
L 72.392155 30.928117 
L 72.491073 31.002241 
L 72.589991 32.483778 
L 72.688909 31.387026 
L 72.787827 31.399301 
L 72.886745 31.363419 
L 73.084582 31.014989 
L 73.282418 31.788334 
L 73.381336 31.844517 
L 73.480255 32.864313 
L 73.875927 30.74446 
L 74.073764 32.208528 
L 74.2716 31.043789 
L 74.370518 32.039034 
L 74.469436 31.743954 
L 74.667273 32.854399 
L 74.865109 33.056941 
L 74.964027 33.970036 
L 75.161864 32.937493 
L 75.260782 33.337385 
L 75.458618 32.326088 
L 75.557536 32.228829 
L 75.656455 31.922891 
L 75.854291 31.999847 
L 75.953209 31.815718 
L 76.052127 31.95169 
L 76.151045 32.577732 
L 76.249964 32.115991 
L 76.348882 33.111236 
L 76.546718 32.70379 
L 76.645636 33.143813 
L 76.744555 33.094239 
L 76.843473 33.17875 
L 77.041309 35.01155 
L 77.140227 34.461521 
L 77.634818 38.688009 
L 77.931573 43.429116 
L 78.129409 46.282184 
L 78.525082 54.166717 
L 78.624 54.365483 
L 78.722918 55.10153 
L 79.217509 70.123691 
L 79.514264 97.425894 
L 79.909936 141.498547 
L 80.206691 131.568284 
L 80.503445 145.601809 
L 80.8002 128.957418 
L 80.899118 129.836991 
L 80.998036 135.553042 
L 81.096955 134.88026 
L 81.294791 110.968406 
L 81.591545 79.367008 
L 81.690464 72.378101 
L 81.789382 73.091014 
L 81.987218 67.456169 
L 82.382891 51.179565 
L 82.679645 46.688214 
L 82.778564 46.191535 
L 83.174236 40.828164 
L 83.569909 37.697485 
L 83.668827 37.924578 
L 84.163418 33.895912 
L 84.262336 34.128671 
L 84.361255 34.809952 
L 84.658009 32.353471 
L 84.756927 32.272265 
L 84.954764 31.775587 
L 85.053682 32.170285 
L 85.251518 31.392691 
L 85.449355 31.842157 
L 85.548273 31.819495 
L 85.647191 32.022982 
L 85.845027 32.828904 
L 86.042864 31.242554 
L 86.141782 32.655633 
L 86.2407 31.861514 
L 86.339618 32.130155 
L 86.438536 31.537634 
L 86.636373 33.08763 
L 86.834209 32.554125 
L 86.933127 31.794 
L 87.032045 32.853926 
L 87.130964 32.83032 
L 87.229882 31.748675 
L 87.3288 33.165531 
L 87.427718 33.064023 
L 87.526636 32.614086 
L 87.625555 31.50553 
L 87.724473 31.963494 
L 87.922309 31.734039 
L 88.021227 32.320422 
L 88.219064 31.956884 
L 88.317982 33.504046 
L 88.515818 31.842157 
L 88.713655 32.344973 
L 88.812573 31.446986 
L 89.010409 32.35772 
L 89.109327 32.284068 
L 89.208245 32.062168 
L 89.307164 32.1514 
L 89.406082 32.485667 
L 89.505 31.829881 
L 89.603918 32.574427 
L 89.801755 31.247748 
L 89.900673 31.848766 
L 90.098509 31.226502 
L 90.197427 30.127389 
L 90.395264 32.300593 
L 90.494182 31.908727 
L 90.5931 30.633038 
L 90.692018 30.927173 
L 90.790936 29.864886 
L 90.988773 31.821855 
L 91.186609 31.357281 
L 91.285527 31.023015 
L 91.483364 32.105132 
L 91.879036 30.422941 
L 91.977955 31.573044 
L 92.274709 30.780341 
L 92.373627 30.92434 
L 92.472545 30.228424 
L 92.670382 30.426718 
L 92.7693 31.304403 
L 92.868218 31.018766 
L 92.967136 31.081087 
L 93.066055 31.478618 
L 93.164973 31.098555 
L 93.263891 31.689187 
L 93.560645 30.963527 
L 93.659564 31.287879 
L 93.758482 30.970609 
L 93.8574 31.389858 
L 93.956318 30.872878 
L 94.055236 31.173624 
L 94.154155 30.753902 
L 94.253073 31.855376 
L 94.450909 31.304875 
L 94.549827 31.118857 
L 94.648745 30.536251 
L 94.747664 30.872406 
L 94.846582 32.218915 
L 94.9455 31.641502 
L 95.044418 32.248659 
L 95.341173 30.634926 
L 95.440091 31.36814 
L 95.539009 30.332292 
L 95.736845 31.800137 
L 95.835764 31.870956 
L 96.0336 31.081087 
L 96.231436 33.066384 
L 96.330355 32.115519 
L 96.429273 33.457778 
L 96.528191 33.293005 
L 97.022782 36.647945 
L 97.1217 38.76591 
L 97.220618 38.589806 
L 97.517373 41.988182 
L 97.814127 44.404532 
L 98.605473 63.378402 
L 98.704391 63.63996 
L 98.902227 68.749799 
L 99.198982 84.018882 
L 99.495736 120.335893 
L 99.792491 148.040349 
L 99.990327 143.7336 
L 100.089245 141.132176 
L 100.386 147.216486 
L 100.781673 137.311246 
L 100.880591 138.464654 
L 100.979509 138.056736 
L 101.177345 123.71255 
L 101.4741 94.730044 
L 101.968691 78.477047 
L 102.364364 56.45276 
L 102.661118 48.889273 
L 102.957873 43.102876 
L 103.056791 43.3413 
L 103.452464 38.533151 
L 103.551382 38.394346 
L 103.749218 35.491704 
L 103.947055 34.755657 
L 104.045973 35.527114 
L 104.243809 33.987505 
L 104.441645 33.631049 
L 104.540564 32.755252 
L 104.7384 33.488466 
L 104.837318 32.647607 
L 104.936236 32.707567 
L 105.134073 32.423346 
L 105.232991 32.787829 
L 105.529745 31.822327 
L 105.628664 32.662715 
L 105.727582 32.051781 
L 105.925418 32.602282 
L 106.024336 32.309563 
L 106.123255 31.542356 
L 106.321091 32.213249 
L 106.420009 31.327537 
L 106.617845 32.431372 
L 106.716764 31.78078 
L 106.815682 32.261878 
L 106.9146 32.233551 
L 107.013518 32.547988 
L 107.211355 31.622145 
L 107.310273 32.320894 
L 107.409191 31.903061 
L 107.508109 32.745337 
L 107.607027 32.417208 
L 107.804864 33.307641 
L 107.903782 31.590985 
L 108.0027 31.885592 
L 108.200536 31.807691 
L 108.398373 32.869979 
L 108.497291 33.117374 
L 108.596209 32.278403 
L 108.695127 32.96346 
L 108.794045 31.50553 
L 108.892964 31.649056 
L 108.991882 31.526303 
L 109.0908 32.081053 
L 109.189718 31.855848 
L 109.387555 32.589535 
L 109.684309 31.520166 
L 109.882145 32.79491 
L 110.079982 31.740649 
L 110.1789 31.327537 
L 110.277818 33.386487 
L 110.376736 31.405911 
L 110.673491 32.590479 
L 110.970245 31.192509 
L 111.069164 30.315768 
L 111.267 32.21797 
L 111.365918 31.096667 
L 111.464836 31.575405 
L 111.563755 30.345512 
L 111.761591 31.452179 
L 111.959427 30.8776 
L 112.058345 31.03293 
L 112.157264 30.697247 
L 112.3551 31.006963 
L 112.454018 32.112214 
L 112.552936 30.732656 
L 112.750773 32.413431 
L 112.849691 31.61884 
L 112.948609 31.689187 
L 113.047527 31.493254 
L 113.146445 32.446952 
L 113.344282 31.695325 
L 113.4432 32.019677 
L 113.641036 30.922924 
L 113.838873 33.098489 
L 114.036709 31.562185 
L 114.234545 32.500775 
L 114.333464 31.120745 
L 114.432382 31.885592 
L 114.5313 31.289767 
L 114.630218 32.048949 
L 114.729136 31.595234 
L 114.828055 32.122128 
L 114.926973 31.790695 
L 115.124809 32.751475 
L 115.223727 32.166981 
L 115.322645 33.144757 
L 115.421564 32.410598 
L 115.520482 32.898306 
L 115.817236 32.165092 
L 115.916155 32.183977 
L 116.113991 34.306191 
L 116.212909 33.46486 
L 116.410745 34.271726 
L 116.509664 32.301065 
L 116.7075 33.373267 
L 116.806418 32.956378 
L 116.905336 33.503574 
L 117.103173 32.518244 
L 117.301009 32.412959 
L 117.498845 32.648079 
L 117.597764 32.372356 
L 117.696682 32.863369 
L 117.7956 32.490388 
L 117.993436 31.110831 
L 118.191273 32.010234 
L 118.290191 32.107965 
L 118.586945 31.069284 
L 118.784782 32.039506 
L 118.8837 31.991821 
L 118.982618 32.801992 
L 119.081536 32.394074 
L 119.180455 31.333203 
L 119.378291 32.096161 
L 119.477209 30.66467 
L 119.675045 31.621201 
L 119.773964 31.726013 
L 119.872882 31.455012 
L 119.9718 31.618368 
L 120.169636 30.794977 
L 120.268555 31.467759 
L 120.367473 30.99091 
L 120.565309 31.646696 
L 120.664227 31.164181 
L 120.763145 31.475786 
L 120.862064 30.962111 
L 120.960982 31.095723 
L 121.0599 30.94417 
L 121.158818 31.959244 
L 121.257736 31.601372 
L 121.356655 31.984739 
L 121.455573 31.794944 
L 121.554491 32.149984 
L 121.851245 31.692964 
L 121.950164 32.214193 
L 122.049082 31.757646 
L 122.148 32.744393 
L 122.246918 31.7076 
L 122.345836 31.738289 
L 122.444755 32.17359 
L 122.543673 33.337857 
L 122.642591 31.975769 
L 122.741509 33.74011 
L 122.840427 32.667908 
L 122.939345 33.047971 
L 123.038264 32.800576 
L 123.137182 34.180605 
L 123.2361 33.346356 
L 123.335018 34.233484 
L 123.433936 33.549371 
L 123.532855 34.085236 
L 123.730691 33.811874 
L 123.829609 34.740077 
L 124.027445 34.039911 
L 124.225282 35.420413 
L 124.3242 34.548865 
L 124.522036 35.677722 
L 124.620955 35.584713 
L 124.719873 35.385475 
L 125.313382 38.034112 
L 125.610136 41.690269 
L 125.709055 41.55949 
L 125.906891 44.840306 
L 126.005809 45.604208 
L 126.5004 55.763453 
L 126.896073 71.443288 
L 127.192827 72.835592 
L 127.390664 78.105954 
L 127.5885 86.97629 
L 127.786336 104.146632 
L 128.280927 160.056 
L 128.6766 150.375965 
L 128.775518 151.424561 
L 128.874436 151.073298 
L 129.270109 138.024631 
L 129.369027 138.511867 
L 129.467945 137.917458 
L 129.665782 120.42182 
L 130.061455 82.989644 
L 130.358209 74.025826 
L 130.654964 58.280366 
L 130.951718 48.394011 
L 131.644145 37.816461 
L 131.743064 38.05583 
L 131.841982 37.930716 
L 132.039818 35.697552 
L 132.237655 34.089013 
L 132.336573 34.07296 
L 132.534409 33.308585 
L 132.633327 34.297693 
L 132.831164 32.97007 
L 133.029 33.99081 
L 133.325755 32.613141 
L 133.424673 32.600394 
L 133.523591 31.642447 
L 133.622509 31.825632 
L 133.721427 31.607509 
L 133.820345 31.810996 
L 133.919264 31.605149 
L 134.018182 32.070667 
L 134.1171 31.557464 
L 134.216018 31.657555 
L 134.314936 32.066417 
L 134.413855 30.396502 
L 134.512773 31.358698 
L 134.611691 31.029625 
L 134.710609 31.887481 
L 134.908445 31.458317 
L 135.007364 31.742066 
L 135.106282 31.616952 
L 135.2052 32.627305 
L 135.501955 31.598067 
L 135.600873 32.278403 
L 135.699791 30.518783 
L 135.798709 31.169847 
L 135.897627 31.083447 
L 135.996545 31.239722 
L 136.095464 32.061696 
L 136.2933 30.438049 
L 136.392218 31.196286 
L 136.491136 30.127861 
L 136.688973 31.654722 
L 136.886809 30.623123 
L 136.985727 31.167958 
L 137.183564 30.51831 
L 137.282482 30.695831 
L 137.3814 31.50553 
L 137.579236 30.571661 
L 137.777073 31.256718 
L 137.875991 31.214699 
L 137.974909 31.303931 
L 138.172745 30.627372 
L 138.271664 30.786479 
L 138.370582 31.371445 
L 138.4695 31.233112 
L 138.568418 30.843606 
L 138.667336 31.855848 
L 138.865173 31.001297 
L 139.161927 32.313812 
L 139.260845 31.395996 
L 139.359764 32.008818 
L 139.458682 30.893652 
L 139.5576 31.25719 
L 139.656518 30.682611 
L 139.755436 31.748675 
L 139.854355 31.277964 
L 140.052191 31.429045 
L 140.151109 31.188732 
L 140.250027 31.659443 
L 140.447864 30.986189 
L 140.6457 31.520638 
L 140.843536 30.692526 
L 140.942455 31.162765 
L 141.041373 30.878072 
L 141.140291 31.433294 
L 141.239209 31.024431 
L 141.338127 32.239216 
L 141.437045 31.803914 
L 141.535964 33.082436 
L 141.634882 31.561241 
L 141.7338 32.257629 
L 141.832718 31.667942 
L 141.931636 31.815245 
L 142.129473 32.946463 
L 142.228391 33.592334 
L 142.327309 33.558341 
L 142.426227 33.26515 
L 142.8219 36.035595 
L 143.019736 36.918946 
L 143.316491 37.862258 
L 143.514327 38.882526 
L 143.712164 40.955166 
L 144.503509 51.076641 
L 144.800264 59.856801 
L 145.393773 94.493981 
L 145.492691 93.867467 
L 145.690527 92.506323 
L 145.888364 94.536472 
L 145.987282 86.72984 
L 146.0862 91.537045 
L 146.382955 86.513605 
L 146.481873 87.023975 
L 146.778627 70.636421 
L 147.075382 54.212513 
L 147.965645 38.119567 
L 148.064564 38.389152 
L 148.2624 36.901478 
L 148.559155 33.616413 
L 148.756991 34.242926 
L 148.855909 34.69428 
L 149.152664 32.74817 
L 149.251582 32.748642 
L 149.3505 32.264239 
L 149.449418 32.729757 
L 149.548336 31.447458 
L 149.647255 31.785029 
L 149.746173 31.717987 
L 149.845091 33.075826 
L 150.042927 30.869574 
L 150.240764 32.366691 
L 150.339682 32.014011 
L 150.537518 32.508801 
L 150.636436 33.646629 
L 150.735355 33.520099 
L 150.834273 33.929433 
L 150.933191 33.782602 
L 151.032109 34.312801 
L 151.131027 32.874228 
L 151.229945 33.188665 
L 151.427782 32.673574 
L 151.5267 32.740616 
L 151.625618 33.030974 
L 152.021291 31.241138 
L 152.120209 32.253852 
L 152.219127 31.675968 
L 152.318045 32.400684 
L 152.416964 31.594762 
L 152.6148 32.471975 
L 152.713718 31.127827 
L 152.911555 32.578676 
L 153.010473 32.266127 
L 153.109391 31.52111 
L 153.406145 31.952635 
L 153.505064 32.900667 
L 153.7029 31.381832 
L 153.801818 32.369051 
L 153.900736 31.571155 
L 153.999655 32.119296 
L 154.098573 33.394985 
L 154.197491 32.325143 
L 154.296409 32.859592 
L 154.395327 32.615502 
L 154.494245 31.941304 
L 154.593164 32.479529 
L 154.692082 32.449785 
L 154.791 32.852982 
L 154.988836 32.050837 
L 155.087755 32.496054 
L 155.186673 32.115991 
L 155.384509 32.292567 
L 155.483427 32.125905 
L 155.582345 31.458317 
L 155.780182 32.128266 
L 155.8791 31.546133 
L 155.978018 31.895507 
L 156.076936 31.639614 
L 156.175855 30.583464 
L 156.274773 32.158482 
L 156.472609 31.345006 
L 156.571527 32.612197 
L 156.769364 31.642919 
L 156.9672 32.289262 
L 157.263955 31.629227 
L 157.362873 31.848766 
L 157.659627 30.776564 
L 157.758545 31.788334 
L 157.956382 31.271826 
L 158.0553 31.767088 
L 158.154218 31.384665 
L 158.352055 31.689659 
L 158.450973 31.105165 
L 158.549891 31.191565 
L 158.648809 31.760951 
L 158.747727 30.834164 
L 158.945564 31.05748 
L 159.044482 30.711883 
L 159.1434 31.873317 
L 159.242318 30.851161 
L 159.440155 32.119296 
L 159.539073 30.650034 
L 159.637991 31.148129 
L 159.835827 30.979107 
L 159.934745 31.294961 
L 160.033664 30.535779 
L 160.132582 31.051815 
L 160.2315 29.873384 
L 160.528255 31.746787 
L 160.726091 31.002241 
L 160.825009 31.222725 
L 160.923927 31.844045 
L 161.121764 31.564546 
L 161.3196 32.162259 
L 161.418518 31.313374 
L 161.517436 31.691548 
L 161.616355 31.167958 
L 161.715273 32.166036 
L 161.814191 30.866741 
L 162.012027 31.624034 
L 162.110945 30.993743 
L 162.209864 31.074005 
L 162.308782 31.013572 
L 162.506618 31.55227 
L 162.605536 32.716065 
L 162.902291 31.685882 
L 163.001209 32.058391 
L 163.100127 31.9871 
L 163.199045 31.437071 
L 163.297964 32.368107 
L 163.4958 30.773259 
L 163.594718 31.666525 
L 163.792555 30.565051 
L 163.990391 31.902589 
L 164.188227 31.044733 
L 164.287145 31.29921 
L 164.386064 31.148129 
L 164.5839 31.714682 
L 164.682818 30.904511 
L 164.880655 31.61884 
L 164.979573 31.007435 
L 165.078491 31.405439 
L 165.177409 31.268994 
L 165.375245 31.956412 
L 165.474164 31.717515 
L 165.573082 32.198613 
L 165.672 31.608926 
L 165.770918 31.737816 
L 165.869836 31.107054 
L 166.067673 31.43471 
L 166.166591 30.85541 
L 166.364427 31.103277 
L 166.562264 32.285013 
L 166.7601 30.916786 
L 167.056855 32.641469 
L 167.155773 31.650473 
L 167.254691 32.14904 
L 167.551445 30.791672 
L 167.749282 31.923363 
L 167.8482 31.731207 
L 167.947118 30.657588 
L 168.046036 32.299648 
L 168.144955 30.803476 
L 168.243873 32.010234 
L 168.342791 31.940359 
L 168.441709 31.830353 
L 168.540627 32.44412 
L 168.738464 30.758624 
L 168.837382 32.799632 
L 169.035218 31.389386 
L 169.134136 31.775587 
L 169.233055 31.297793 
L 169.430891 32.004569 
L 169.529809 30.592907 
L 169.628727 31.198174 
L 169.727645 30.937088 
L 169.826564 32.476224 
L 169.925482 31.417714 
L 170.0244 31.925723 
L 170.123318 30.996576 
L 170.321155 31.865291 
L 170.420073 32.400684 
L 170.518991 31.498448 
L 170.815745 32.527686 
L 170.914664 31.702407 
L 171.013582 31.808163 
L 171.1125 31.612703 
L 171.211418 31.158044 
L 171.310336 32.345917 
L 171.409255 32.296816 
L 171.508173 31.675023 
L 171.607091 31.702879 
L 171.706009 32.392186 
L 171.804927 31.84735 
L 172.002764 32.988011 
L 172.101682 32.402572 
L 172.2006 32.471503 
L 172.299518 32.793966 
L 172.497355 31.568795 
L 172.596273 32.60181 
L 172.695191 31.59665 
L 172.893027 32.993204 
L 172.991945 32.968181 
L 173.090864 33.253819 
L 173.2887 32.295399 
L 173.387618 33.289228 
L 173.486536 32.166036 
L 173.783291 32.986122 
L 173.882209 32.181144 
L 173.981127 33.442198 
L 174.080045 32.595673 
L 174.277882 32.99887 
L 174.3768 32.725508 
L 174.574636 31.794 
L 174.673555 31.719403 
L 174.772473 32.537601 
L 174.871391 31.528192 
L 174.970309 31.794472 
L 175.069227 32.636276 
L 175.168145 32.101355 
L 175.4649 33.355326 
L 175.563818 33.93982 
L 175.662736 33.600833 
L 175.761655 34.348683 
L 175.860573 33.94643 
L 175.959491 34.336408 
L 176.058409 34.002613 
L 176.355164 36.889674 
L 176.553 37.225829 
L 176.651918 37.087968 
L 176.849755 39.659648 
L 176.948673 39.579858 
L 177.047591 40.009967 
L 177.245427 43.862529 
L 177.344345 44.186881 
L 177.838936 53.609134 
L 178.135691 67.881084 
L 178.7292 111.326279 
L 179.025955 113.305911 
L 179.223791 116.836482 
L 179.322709 116.997005 
L 179.520545 114.905952 
L 179.619464 115.599507 
L 179.8173 113.461713 
L 180.015136 99.30213 
L 180.410809 69.923036 
L 181.103236 48.504017 
L 181.894582 37.866507 
L 181.9935 37.632331 
L 182.290255 36.09886 
L 182.488091 34.326021 
L 182.685927 33.475247 
L 182.982682 32.892169 
L 183.0816 33.104154 
L 183.180518 32.788301 
L 183.279436 32.959211 
L 183.477273 31.967743 
L 183.576191 32.013539 
L 183.675109 32.201446 
L 183.774027 32.079165 
L 183.971864 31.238777 
L 184.070782 31.398357 
L 184.1697 32.079637 
L 184.268618 32.018732 
L 184.466455 30.42955 
L 184.565373 31.84074 
L 184.664291 31.528192 
L 184.763209 32.097578 
L 184.862127 31.154267 
L 185.059964 31.477674 
L 185.158882 31.7076 
L 185.2578 30.838885 
L 185.356718 31.554159 
L 185.455636 31.153322 
L 185.554555 31.409216 
L 185.653473 31.065979 
L 185.752391 31.432822 
L 185.851309 32.562624 
L 186.049145 31.307236 
L 186.148064 31.906366 
L 186.3459 31.164181 
L 186.444818 32.303898 
L 186.543736 31.30157 
L 186.840491 32.054614 
L 186.939409 31.18826 
L 187.038327 33.071577 
L 187.137245 31.541883 
L 187.236164 32.306258 
L 187.335082 31.594762 
L 187.434 32.463949 
L 187.631836 31.375222 
L 187.829673 32.12921 
L 187.928591 31.417714 
L 188.027509 31.772754 
L 188.126427 32.604643 
L 188.324264 31.504585 
L 188.423182 31.876622 
L 188.5221 32.911054 
L 188.621018 32.663187 
L 188.719936 33.174973 
L 188.818855 32.947408 
L 188.917773 31.360586 
L 189.016691 31.957356 
L 189.115609 31.144824 
L 189.214527 32.130627 
L 189.313445 31.985211 
L 189.412364 32.815684 
L 189.511282 32.546571 
L 189.6102 31.824688 
L 190.896136 40.53214 
L 191.291809 49.238176 
L 191.489645 54.491541 
L 192.083155 65.315542 
L 192.379909 82.691731 
L 192.973418 147.875104 
L 193.171255 143.595738 
L 193.270173 143.811029 
L 193.566927 149.095554 
L 193.863682 140.502357 
L 193.9626 140.768637 
L 194.061518 142.802092 
L 194.160436 141.649156 
L 194.358273 120.196143 
L 194.655027 91.14329 
L 195.248536 64.64276 
L 195.644209 50.412829 
L 196.1388 40.755456 
L 196.831227 35.371312 
L 197.2269 33.859559 
L 197.325818 33.56023 
L 197.424736 32.154705 
L 197.523655 33.257596 
L 197.820409 31.571627 
L 197.919327 32.524853 
L 198.018245 32.045644 
L 198.117164 32.420041 
L 198.216082 32.324199 
L 198.315 30.977691 
L 198.413918 32.50408 
L 198.512836 31.961605 
L 198.611755 31.982379 
L 198.710673 32.225997 
L 198.809591 32.12685 
L 198.908509 32.488972 
L 199.007427 31.889842 
L 199.106345 32.308619 
L 199.4031 31.713738 
L 199.502018 32.065473 
L 199.600936 32.030064 
L 199.699855 32.119768 
L 199.798773 30.906399 
L 199.897691 32.221747 
L 199.996609 31.777003 
L 200.095527 32.353471 
L 200.194445 31.407799 
L 200.293364 32.542322 
L 200.392282 31.345006 
L 200.590118 31.794 
L 200.689036 31.448874 
L 200.886873 32.386992 
L 201.084709 31.617896 
L 201.183627 31.356337 
L 201.381464 31.951218 
L 201.5793 32.819461 
L 201.678218 32.864313 
L 201.777136 33.249569 
L 201.876055 32.760917 
L 202.073891 33.106987 
L 202.172809 32.546571 
L 202.271727 33.82226 
L 202.370645 32.885087 
L 202.469564 33.492243 
L 202.568482 31.952162 
L 202.865236 33.954928 
L 203.063073 32.813796 
L 203.161991 32.914831 
L 203.359827 33.291117 
L 203.458745 32.462533 
L 203.557664 32.52627 
L 203.656582 33.321333 
L 203.953336 32.195308 
L 204.052255 33.097072 
L 204.151173 31.912504 
L 204.250091 31.967743 
L 204.349009 32.367635 
L 204.447927 32.336474 
L 204.645764 31.716571 
L 204.744682 31.902117 
L 204.8436 32.993676 
L 204.942518 32.426651 
L 205.041436 32.543739 
L 205.239273 32.042339 
L 205.338191 32.039978 
L 205.437109 30.859187 
L 205.536027 31.576349 
L 205.634945 31.497503 
L 205.733864 31.307236 
L 205.832782 32.059808 
L 205.9317 31.373334 
L 206.129536 32.261406 
L 206.228455 31.768033 
L 206.426291 33.343523 
L 206.525209 32.886503 
L 206.624127 33.520099 
L 206.723045 32.954018 
L 206.821964 34.203268 
L 206.920882 34.002613 
L 207.0198 35.030907 
L 207.217636 34.115924 
L 207.316555 34.159832 
L 207.415473 34.539895 
L 207.514391 34.020554 
L 207.712227 35.338735 
L 207.910064 34.58758 
L 208.008982 35.948724 
L 208.1079 34.538006 
L 208.206818 34.602688 
L 208.305736 34.84064 
L 208.503573 35.834469 
L 208.602491 34.402978 
L 208.800327 35.282552 
L 208.899245 33.579587 
L 208.998164 33.915742 
L 209.097082 32.39974 
L 209.294918 34.732523 
L 209.492755 34.2349 
L 209.591673 34.738188 
L 209.888427 34.184382 
L 209.987345 33.281202 
L 210.580855 35.243365 
L 210.778691 37.815517 
L 210.877609 36.905727 
L 210.976527 37.426012 
L 211.075445 39.238982 
L 211.174364 38.102098 
L 211.3722 40.645923 
L 211.471118 41.24222 
L 212.064627 51.144627 
L 212.163545 51.335367 
L 212.262464 51.93733 
L 212.658136 60.166989 
L 213.053809 84.30452 
L 213.350564 110.673326 
L 213.449482 111.562343 
L 213.746236 106.056861 
L 213.944073 111.943822 
L 214.141909 107.289587 
L 214.339745 103.884601 
L 214.438664 104.48562 
L 214.537582 106.747112 
L 214.6365 105.986042 
L 214.933255 79.626206 
L 215.230009 65.376446 
L 215.427845 62.833566 
L 216.120273 45.175044 
L 216.515945 39.398089 
L 216.614864 39.248897 
L 216.713782 39.304608 
L 216.8127 37.964237 
L 216.911618 38.789516 
L 217.109455 37.160676 
L 217.208373 34.905794 
L 217.307291 34.974724 
L 217.505127 35.650811 
L 217.604045 34.469075 
L 217.801882 35.188598 
L 217.9008 34.164081 
L 217.999718 34.410532 
L 218.197555 33.39168 
L 218.296473 33.97759 
L 218.395391 33.78449 
L 218.494309 34.120173 
L 218.593227 34.056908 
L 218.692145 33.752858 
L 218.791064 32.868562 
L 218.889982 32.971486 
L 218.9889 32.812851 
L 219.087818 33.358159 
L 219.186736 33.285451 
L 219.384573 32.651856 
L 219.483491 32.973375 
L 219.582409 32.429956 
L 219.681327 32.858176 
L 219.780245 31.600899 
L 219.879164 32.418625 
L 219.978082 31.889369 
L 220.077 32.523909 
L 220.175918 32.056503 
L 220.274836 32.390297 
L 220.373755 32.25999 
L 220.472673 33.225491 
L 220.571591 32.490388 
L 220.769427 32.912942 
L 220.868345 32.686793 
L 220.967264 33.054581 
L 221.066182 31.950746 
L 221.1651 32.139597 
L 221.264018 32.080109 
L 221.461855 33.528597 
L 221.560773 32.501719 
L 221.659691 33.716032 
L 221.758609 33.186776 
L 221.857527 34.56539 
L 222.055364 32.954962 
L 222.154282 33.323221 
L 222.2532 34.598911 
L 222.352118 33.987033 
L 222.451036 34.961977 
L 222.648873 34.582386 
L 222.747791 34.943092 
L 222.846709 34.871328 
L 223.143464 37.699373 
L 223.440218 41.03354 
L 223.539136 42.191669 
L 223.638055 41.809718 
L 224.231564 54.934397 
L 224.330482 55.865905 
L 224.4294 55.590654 
L 224.923991 69.454213 
L 225.220745 90.215559 
L 225.715336 144.286461 
L 226.012091 136.885859 
L 226.308845 146.654182 
L 226.6056 133.151328 
L 226.704518 134.505391 
L 226.803436 138.069955 
L 226.902355 136.409482 
L 227.199109 99.263415 
L 227.495864 76.62725 
L 227.891536 62.631968 
L 228.188291 52.536932 
L 228.583964 45.736876 
L 228.682882 45.641506 
L 228.7818 41.76817 
L 228.880718 41.802636 
L 229.078555 41.091611 
L 229.276391 38.283396 
L 229.375309 37.841956 
L 229.474227 36.028986 
L 229.573145 36.094611 
L 229.770982 35.667336 
L 229.8699 35.771204 
L 229.968818 34.461049 
L 230.067736 34.945924 
L 230.265573 34.150389 
L 230.364491 34.650845 
L 230.562327 33.567311 
L 230.661245 33.966732 
L 230.958 32.635803 
L 231.056918 33.319444 
L 231.155836 32.485667 
L 231.254755 33.655599 
L 231.452591 32.929939 
L 231.551509 31.54991 
L 231.650427 32.301065 
L 231.848264 31.39458 
L 232.145018 32.35111 
L 232.243936 31.304875 
L 232.342855 31.713738 
L 232.441773 30.90215 
L 232.540691 31.335091 
L 232.639609 31.140575 
L 232.738527 31.961133 
L 232.837445 31.499392 
L 232.936364 32.126378 
L 233.1342 31.220364 
L 233.233118 30.685444 
L 233.332036 31.650001 
L 233.430955 31.623089 
L 233.529873 30.879488 
L 233.628791 31.148129 
L 233.727709 31.824216 
L 233.925545 30.799699 
L 234.024464 31.717043 
L 234.2223 31.424796 
L 234.321218 32.305786 
L 234.420136 31.058425 
L 234.519055 32.105132 
L 234.617973 32.074916 
L 234.716891 32.148095 
L 234.815809 31.579182 
L 235.013645 32.733534 
L 235.211482 31.74962 
L 235.409318 31.74962 
L 235.508236 31.690132 
L 235.706073 32.418153 
L 235.804991 32.722203 
L 235.903909 32.496526 
L 236.002827 31.960661 
L 236.200664 32.412959 
L 236.299582 31.876622 
L 236.3985 32.97904 
L 236.497418 32.313812 
L 236.596336 32.561207 
L 236.893091 32.028647 
L 236.992009 32.166981 
L 237.090927 32.52627 
L 237.189845 31.445569 
L 237.288764 33.339746 
L 237.387682 33.167419 
L 237.585518 33.034279 
L 237.882273 32.130627 
L 238.080109 32.783107 
L 238.179027 32.862425 
L 238.376864 32.266127 
L 238.475782 32.741088 
L 238.5747 32.37991 
L 238.772536 32.79491 
L 238.871455 32.530047 
L 238.970373 31.526303 
L 239.069291 32.320422 
L 239.168209 31.78975 
L 239.267127 31.854904 
L 239.366045 32.144791 
L 239.563882 31.943192 
L 239.6628 32.83032 
L 239.860636 31.922418 
L 239.959555 32.026759 
L 240.058473 31.89173 
L 240.157391 31.551326 
L 240.256309 32.016844 
L 240.355227 30.624539 
L 240.651982 32.511634 
L 240.7509 30.692053 
L 240.849818 32.412487 
L 240.948736 32.10466 
L 241.047655 32.199085 
L 241.146573 31.573988 
L 241.344409 32.265655 
L 241.443327 31.926668 
L 241.641164 32.655161 
L 241.740082 30.608959 
L 241.937918 32.138181 
L 242.036836 32.699069 
L 242.135755 31.148601 
L 242.234673 33.581003 
L 242.531427 31.972936 
L 242.630345 31.341701 
L 242.729264 33.405844 
L 242.828182 32.124017 
L 242.828182 32.124017 
" clip-path="url(#pa808e063c5)" style="fill: none; stroke: #1f77b4; stroke-width: 1.5; stroke-linecap: square"/>
   </g>
   <g id="patch_3">
    <path d="M 35.1 166.608 
L 35.1 22.464 
" style="fill: none; stroke: #000000; stroke-width: 0.8; stroke-linejoin: miter; stroke-linecap: square"/>
   </g>
   <g id="patch_4">
    <path d="M 252.72 166.608 
L 252.72 22.464 
" style="fill: none; stroke: #000000; stroke-width: 0.8; stroke-linejoin: miter; stroke-linecap: square"/>
   </g>
   <g id="patch_5">
    <path d="M 35.1 166.608 
L 252.72 166.608 
" style="fill: none; stroke: #000000; stroke-width: 0.8; stroke-linejoin: miter; stroke-linecap: square"/>
   </g>
   <g id="patch_6">
    <path d="M 35.1 22.464 
L 252.72 22.464 
" style="fill: none; stroke: #000000; stroke-width: 0.8; stroke-linejoin: miter; stroke-linecap: square"/>
   </g>
  </g>
 </g>
 <defs>
  <clipPath id="pa808e063c5">
   <rect x="35.1" y="22.464" width="217.62" height="144.144"/>
  </clipPath>
 </defs>
</svg>
