<?xml version="1.0" encoding="utf-8" standalone="no"?>
<!DOCTYPE svg PUBLIC "-//W3C//DTD SVG 1.1//EN"
  "http://www.w3.org/Graphics/SVG/1.1/DTD/svg11.dtd">
<svg xmlns:xlink="http://www.w3.org/1999/xlink" width="460.8pt" height="345.6pt" viewBox="0 0 460.8 345.6" xmlns="http://www.w3.org/2000/svg" version="1.1">
 <metadata>
  <rdf:RDF xmlns:dc="http://purl.org/dc/elements/1.1/" xmlns:cc="http://creativecommons.org/ns#" xmlns:rdf="http://www.w3.org/1999/02/22-rdf-syntax-ns#">
   <cc:Work>
    <dc:type rdf:resource="http://purl.org/dc/dcmitype/StillImage"/>
    <dc:date>2022-05-16T14:48:20.650743</dc:date>
    <dc:format>image/svg+xml</dc:format>
    <dc:creator>
     <cc:Agent>
      <dc:title>Matplotlib v3.5.1, https://matplotlib.org/</dc:title>
     </cc:Agent>
    </dc:creator>
   </cc:Work>
  </rdf:RDF>
 </metadata>
 <defs>
  <style type="text/css">*{stroke-linejoin: round; stroke-linecap: butt}</style>
 </defs>
 <g id="figure_1">
  <g id="patch_1">
   <path d="M 0 345.6 
L 460.8 345.6 
L 460.8 0 
L 0 0 
z
" style="fill: #ffffff"/>
  </g>
  <g id="axes_1">
   <g id="patch_2">
    <path d="M 57.6 307.584 
L 414.72 307.584 
L 414.72 41.472 
L 57.6 41.472 
z
" style="fill: #ffffff"/>
   </g>
   <g id="matplotlib.axis_1">
    <g id="xtick_1">
     <g id="line2d_1">
      <defs>
       <path id="m63ac8b5818" d="M 0 0 
L 0 3.5 
" style="stroke: #000000; stroke-width: 0.8"/>
      </defs>
      <g>
       <use xlink:href="#m63ac8b5818" x="73.832727" y="307.584" style="stroke: #000000; stroke-width: 0.8"/>
      </g>
     </g>
     <g id="text_1">
      <!-- 2500 -->
      <g transform="translate(57.290227 324.461969)scale(0.13 -0.13)">
       <defs>
        <path id="DejaVuSans-32" d="M 1228 531 
L 3431 531 
L 3431 0 
L 469 0 
L 469 531 
Q 828 903 1448 1529 
Q 2069 2156 2228 2338 
Q 2531 2678 2651 2914 
Q 2772 3150 2772 3378 
Q 2772 3750 2511 3984 
Q 2250 4219 1831 4219 
Q 1534 4219 1204 4116 
Q 875 4013 500 3803 
L 500 4441 
Q 881 4594 1212 4672 
Q 1544 4750 1819 4750 
Q 2544 4750 2975 4387 
Q 3406 4025 3406 3419 
Q 3406 3131 3298 2873 
Q 3191 2616 2906 2266 
Q 2828 2175 2409 1742 
Q 1991 1309 1228 531 
z
" transform="scale(0.015625)"/>
        <path id="DejaVuSans-35" d="M 691 4666 
L 3169 4666 
L 3169 4134 
L 1269 4134 
L 1269 2991 
Q 1406 3038 1543 3061 
Q 1681 3084 1819 3084 
Q 2600 3084 3056 2656 
Q 3513 2228 3513 1497 
Q 3513 744 3044 326 
Q 2575 -91 1722 -91 
Q 1428 -91 1123 -41 
Q 819 9 494 109 
L 494 744 
Q 775 591 1075 516 
Q 1375 441 1709 441 
Q 2250 441 2565 725 
Q 2881 1009 2881 1497 
Q 2881 1984 2565 2268 
Q 2250 2553 1709 2553 
Q 1456 2553 1204 2497 
Q 953 2441 691 2322 
L 691 4666 
z
" transform="scale(0.015625)"/>
        <path id="DejaVuSans-30" d="M 2034 4250 
Q 1547 4250 1301 3770 
Q 1056 3291 1056 2328 
Q 1056 1369 1301 889 
Q 1547 409 2034 409 
Q 2525 409 2770 889 
Q 3016 1369 3016 2328 
Q 3016 3291 2770 3770 
Q 2525 4250 2034 4250 
z
M 2034 4750 
Q 2819 4750 3233 4129 
Q 3647 3509 3647 2328 
Q 3647 1150 3233 529 
Q 2819 -91 2034 -91 
Q 1250 -91 836 529 
Q 422 1150 422 2328 
Q 422 3509 836 4129 
Q 1250 4750 2034 4750 
z
" transform="scale(0.015625)"/>
       </defs>
       <use xlink:href="#DejaVuSans-32"/>
       <use xlink:href="#DejaVuSans-35" x="63.623047"/>
       <use xlink:href="#DejaVuSans-30" x="127.246094"/>
       <use xlink:href="#DejaVuSans-30" x="190.869141"/>
      </g>
     </g>
    </g>
    <g id="xtick_2">
     <g id="line2d_2">
      <g>
       <use xlink:href="#m63ac8b5818" x="120.211948" y="307.584" style="stroke: #000000; stroke-width: 0.8"/>
      </g>
     </g>
     <g id="text_2">
      <!-- 2600 -->
      <g transform="translate(103.669448 324.461969)scale(0.13 -0.13)">
       <defs>
        <path id="DejaVuSans-36" d="M 2113 2584 
Q 1688 2584 1439 2293 
Q 1191 2003 1191 1497 
Q 1191 994 1439 701 
Q 1688 409 2113 409 
Q 2538 409 2786 701 
Q 3034 994 3034 1497 
Q 3034 2003 2786 2293 
Q 2538 2584 2113 2584 
z
M 3366 4563 
L 3366 3988 
Q 3128 4100 2886 4159 
Q 2644 4219 2406 4219 
Q 1781 4219 1451 3797 
Q 1122 3375 1075 2522 
Q 1259 2794 1537 2939 
Q 1816 3084 2150 3084 
Q 2853 3084 3261 2657 
Q 3669 2231 3669 1497 
Q 3669 778 3244 343 
Q 2819 -91 2113 -91 
Q 1303 -91 875 529 
Q 447 1150 447 2328 
Q 447 3434 972 4092 
Q 1497 4750 2381 4750 
Q 2619 4750 2861 4703 
Q 3103 4656 3366 4563 
z
" transform="scale(0.015625)"/>
       </defs>
       <use xlink:href="#DejaVuSans-32"/>
       <use xlink:href="#DejaVuSans-36" x="63.623047"/>
       <use xlink:href="#DejaVuSans-30" x="127.246094"/>
       <use xlink:href="#DejaVuSans-30" x="190.869141"/>
      </g>
     </g>
    </g>
    <g id="xtick_3">
     <g id="line2d_3">
      <g>
       <use xlink:href="#m63ac8b5818" x="166.591169" y="307.584" style="stroke: #000000; stroke-width: 0.8"/>
      </g>
     </g>
     <g id="text_3">
      <!-- 2700 -->
      <g transform="translate(150.048669 324.461969)scale(0.13 -0.13)">
       <defs>
        <path id="DejaVuSans-37" d="M 525 4666 
L 3525 4666 
L 3525 4397 
L 1831 0 
L 1172 0 
L 2766 4134 
L 525 4134 
L 525 4666 
z
" transform="scale(0.015625)"/>
       </defs>
       <use xlink:href="#DejaVuSans-32"/>
       <use xlink:href="#DejaVuSans-37" x="63.623047"/>
       <use xlink:href="#DejaVuSans-30" x="127.246094"/>
       <use xlink:href="#DejaVuSans-30" x="190.869141"/>
      </g>
     </g>
    </g>
    <g id="xtick_4">
     <g id="line2d_4">
      <g>
       <use xlink:href="#m63ac8b5818" x="212.97039" y="307.584" style="stroke: #000000; stroke-width: 0.8"/>
      </g>
     </g>
     <g id="text_4">
      <!-- 2800 -->
      <g transform="translate(196.42789 324.461969)scale(0.13 -0.13)">
       <defs>
        <path id="DejaVuSans-38" d="M 2034 2216 
Q 1584 2216 1326 1975 
Q 1069 1734 1069 1313 
Q 1069 891 1326 650 
Q 1584 409 2034 409 
Q 2484 409 2743 651 
Q 3003 894 3003 1313 
Q 3003 1734 2745 1975 
Q 2488 2216 2034 2216 
z
M 1403 2484 
Q 997 2584 770 2862 
Q 544 3141 544 3541 
Q 544 4100 942 4425 
Q 1341 4750 2034 4750 
Q 2731 4750 3128 4425 
Q 3525 4100 3525 3541 
Q 3525 3141 3298 2862 
Q 3072 2584 2669 2484 
Q 3125 2378 3379 2068 
Q 3634 1759 3634 1313 
Q 3634 634 3220 271 
Q 2806 -91 2034 -91 
Q 1263 -91 848 271 
Q 434 634 434 1313 
Q 434 1759 690 2068 
Q 947 2378 1403 2484 
z
M 1172 3481 
Q 1172 3119 1398 2916 
Q 1625 2713 2034 2713 
Q 2441 2713 2670 2916 
Q 2900 3119 2900 3481 
Q 2900 3844 2670 4047 
Q 2441 4250 2034 4250 
Q 1625 4250 1398 4047 
Q 1172 3844 1172 3481 
z
" transform="scale(0.015625)"/>
       </defs>
       <use xlink:href="#DejaVuSans-32"/>
       <use xlink:href="#DejaVuSans-38" x="63.623047"/>
       <use xlink:href="#DejaVuSans-30" x="127.246094"/>
       <use xlink:href="#DejaVuSans-30" x="190.869141"/>
      </g>
     </g>
    </g>
    <g id="xtick_5">
     <g id="line2d_5">
      <g>
       <use xlink:href="#m63ac8b5818" x="259.34961" y="307.584" style="stroke: #000000; stroke-width: 0.8"/>
      </g>
     </g>
     <g id="text_5">
      <!-- 2900 -->
      <g transform="translate(242.80711 324.461969)scale(0.13 -0.13)">
       <defs>
        <path id="DejaVuSans-39" d="M 703 97 
L 703 672 
Q 941 559 1184 500 
Q 1428 441 1663 441 
Q 2288 441 2617 861 
Q 2947 1281 2994 2138 
Q 2813 1869 2534 1725 
Q 2256 1581 1919 1581 
Q 1219 1581 811 2004 
Q 403 2428 403 3163 
Q 403 3881 828 4315 
Q 1253 4750 1959 4750 
Q 2769 4750 3195 4129 
Q 3622 3509 3622 2328 
Q 3622 1225 3098 567 
Q 2575 -91 1691 -91 
Q 1453 -91 1209 -44 
Q 966 3 703 97 
z
M 1959 2075 
Q 2384 2075 2632 2365 
Q 2881 2656 2881 3163 
Q 2881 3666 2632 3958 
Q 2384 4250 1959 4250 
Q 1534 4250 1286 3958 
Q 1038 3666 1038 3163 
Q 1038 2656 1286 2365 
Q 1534 2075 1959 2075 
z
" transform="scale(0.015625)"/>
       </defs>
       <use xlink:href="#DejaVuSans-32"/>
       <use xlink:href="#DejaVuSans-39" x="63.623047"/>
       <use xlink:href="#DejaVuSans-30" x="127.246094"/>
       <use xlink:href="#DejaVuSans-30" x="190.869141"/>
      </g>
     </g>
    </g>
    <g id="xtick_6">
     <g id="line2d_6">
      <g>
       <use xlink:href="#m63ac8b5818" x="305.728831" y="307.584" style="stroke: #000000; stroke-width: 0.8"/>
      </g>
     </g>
     <g id="text_6">
      <!-- 3000 -->
      <g transform="translate(289.186331 324.461969)scale(0.13 -0.13)">
       <defs>
        <path id="DejaVuSans-33" d="M 2597 2516 
Q 3050 2419 3304 2112 
Q 3559 1806 3559 1356 
Q 3559 666 3084 287 
Q 2609 -91 1734 -91 
Q 1441 -91 1130 -33 
Q 819 25 488 141 
L 488 750 
Q 750 597 1062 519 
Q 1375 441 1716 441 
Q 2309 441 2620 675 
Q 2931 909 2931 1356 
Q 2931 1769 2642 2001 
Q 2353 2234 1838 2234 
L 1294 2234 
L 1294 2753 
L 1863 2753 
Q 2328 2753 2575 2939 
Q 2822 3125 2822 3475 
Q 2822 3834 2567 4026 
Q 2313 4219 1838 4219 
Q 1578 4219 1281 4162 
Q 984 4106 628 3988 
L 628 4550 
Q 988 4650 1302 4700 
Q 1616 4750 1894 4750 
Q 2613 4750 3031 4423 
Q 3450 4097 3450 3541 
Q 3450 3153 3228 2886 
Q 3006 2619 2597 2516 
z
" transform="scale(0.015625)"/>
       </defs>
       <use xlink:href="#DejaVuSans-33"/>
       <use xlink:href="#DejaVuSans-30" x="63.623047"/>
       <use xlink:href="#DejaVuSans-30" x="127.246094"/>
       <use xlink:href="#DejaVuSans-30" x="190.869141"/>
      </g>
     </g>
    </g>
    <g id="xtick_7">
     <g id="line2d_7">
      <g>
       <use xlink:href="#m63ac8b5818" x="352.108052" y="307.584" style="stroke: #000000; stroke-width: 0.8"/>
      </g>
     </g>
     <g id="text_7">
      <!-- 3100 -->
      <g transform="translate(335.565552 324.461969)scale(0.13 -0.13)">
       <defs>
        <path id="DejaVuSans-31" d="M 794 531 
L 1825 531 
L 1825 4091 
L 703 3866 
L 703 4441 
L 1819 4666 
L 2450 4666 
L 2450 531 
L 3481 531 
L 3481 0 
L 794 0 
L 794 531 
z
" transform="scale(0.015625)"/>
       </defs>
       <use xlink:href="#DejaVuSans-33"/>
       <use xlink:href="#DejaVuSans-31" x="63.623047"/>
       <use xlink:href="#DejaVuSans-30" x="127.246094"/>
       <use xlink:href="#DejaVuSans-30" x="190.869141"/>
      </g>
     </g>
    </g>
    <g id="xtick_8">
     <g id="line2d_8">
      <g>
       <use xlink:href="#m63ac8b5818" x="398.487273" y="307.584" style="stroke: #000000; stroke-width: 0.8"/>
      </g>
     </g>
     <g id="text_8">
      <!-- 3200 -->
      <g transform="translate(381.944773 324.461969)scale(0.13 -0.13)">
       <use xlink:href="#DejaVuSans-33"/>
       <use xlink:href="#DejaVuSans-32" x="63.623047"/>
       <use xlink:href="#DejaVuSans-30" x="127.246094"/>
       <use xlink:href="#DejaVuSans-30" x="190.869141"/>
      </g>
     </g>
    </g>
   </g>
   <g id="matplotlib.axis_2">
    <g id="ytick_1">
     <g id="line2d_9">
      <defs>
       <path id="mbfebcccbfc" d="M 0 0 
L -3.5 0 
" style="stroke: #000000; stroke-width: 0.8"/>
      </defs>
      <g>
       <use xlink:href="#mbfebcccbfc" x="57.6" y="292.567146" style="stroke: #000000; stroke-width: 0.8"/>
      </g>
     </g>
     <g id="text_9">
      <!-- 0.995 -->
      <g transform="translate(13.383437 297.50613)scale(0.13 -0.13)">
       <defs>
        <path id="DejaVuSans-2e" d="M 684 794 
L 1344 794 
L 1344 0 
L 684 0 
L 684 794 
z
" transform="scale(0.015625)"/>
       </defs>
       <use xlink:href="#DejaVuSans-30"/>
       <use xlink:href="#DejaVuSans-2e" x="63.623047"/>
       <use xlink:href="#DejaVuSans-39" x="95.410156"/>
       <use xlink:href="#DejaVuSans-39" x="159.033203"/>
       <use xlink:href="#DejaVuSans-35" x="222.65625"/>
      </g>
     </g>
    </g>
    <g id="ytick_2">
     <g id="line2d_10">
      <g>
       <use xlink:href="#mbfebcccbfc" x="57.6" y="244.767317" style="stroke: #000000; stroke-width: 0.8"/>
      </g>
     </g>
     <g id="text_10">
      <!-- 0.996 -->
      <g transform="translate(13.383437 249.706301)scale(0.13 -0.13)">
       <use xlink:href="#DejaVuSans-30"/>
       <use xlink:href="#DejaVuSans-2e" x="63.623047"/>
       <use xlink:href="#DejaVuSans-39" x="95.410156"/>
       <use xlink:href="#DejaVuSans-39" x="159.033203"/>
       <use xlink:href="#DejaVuSans-36" x="222.65625"/>
      </g>
     </g>
    </g>
    <g id="ytick_3">
     <g id="line2d_11">
      <g>
       <use xlink:href="#mbfebcccbfc" x="57.6" y="196.967488" style="stroke: #000000; stroke-width: 0.8"/>
      </g>
     </g>
     <g id="text_11">
      <!-- 0.997 -->
      <g transform="translate(13.383437 201.906472)scale(0.13 -0.13)">
       <use xlink:href="#DejaVuSans-30"/>
       <use xlink:href="#DejaVuSans-2e" x="63.623047"/>
       <use xlink:href="#DejaVuSans-39" x="95.410156"/>
       <use xlink:href="#DejaVuSans-39" x="159.033203"/>
       <use xlink:href="#DejaVuSans-37" x="222.65625"/>
      </g>
     </g>
    </g>
    <g id="ytick_4">
     <g id="line2d_12">
      <g>
       <use xlink:href="#mbfebcccbfc" x="57.6" y="149.167658" style="stroke: #000000; stroke-width: 0.8"/>
      </g>
     </g>
     <g id="text_12">
      <!-- 0.998 -->
      <g transform="translate(13.383437 154.106643)scale(0.13 -0.13)">
       <use xlink:href="#DejaVuSans-30"/>
       <use xlink:href="#DejaVuSans-2e" x="63.623047"/>
       <use xlink:href="#DejaVuSans-39" x="95.410156"/>
       <use xlink:href="#DejaVuSans-39" x="159.033203"/>
       <use xlink:href="#DejaVuSans-38" x="222.65625"/>
      </g>
     </g>
    </g>
    <g id="ytick_5">
     <g id="line2d_13">
      <g>
       <use xlink:href="#mbfebcccbfc" x="57.6" y="101.367829" style="stroke: #000000; stroke-width: 0.8"/>
      </g>
     </g>
     <g id="text_13">
      <!-- 0.999 -->
      <g transform="translate(13.383437 106.306814)scale(0.13 -0.13)">
       <use xlink:href="#DejaVuSans-30"/>
       <use xlink:href="#DejaVuSans-2e" x="63.623047"/>
       <use xlink:href="#DejaVuSans-39" x="95.410156"/>
       <use xlink:href="#DejaVuSans-39" x="159.033203"/>
       <use xlink:href="#DejaVuSans-39" x="222.65625"/>
      </g>
     </g>
    </g>
    <g id="ytick_6">
     <g id="line2d_14">
      <g>
       <use xlink:href="#mbfebcccbfc" x="57.6" y="53.568" style="stroke: #000000; stroke-width: 0.8"/>
      </g>
     </g>
     <g id="text_14">
      <!-- 1.000 -->
      <g transform="translate(13.383437 58.506984)scale(0.13 -0.13)">
       <use xlink:href="#DejaVuSans-31"/>
       <use xlink:href="#DejaVuSans-2e" x="63.623047"/>
       <use xlink:href="#DejaVuSans-30" x="95.410156"/>
       <use xlink:href="#DejaVuSans-30" x="159.033203"/>
       <use xlink:href="#DejaVuSans-30" x="222.65625"/>
      </g>
     </g>
    </g>
   </g>
   <g id="line2d_15">
    <path d="M 73.832727 56.718036 
L 73.995055 56.851394 
L 74.157382 55.328673 
L 74.319709 56.840935 
L 74.482036 54.062209 
L 74.644364 55.674707 
L 74.806691 55.760125 
L 74.969018 55.390558 
L 75.131345 57.265414 
L 75.293673 56.543712 
L 75.456 57.622778 
L 75.780655 57.24711 
L 76.105309 55.27289 
L 76.267636 57.429279 
L 76.429964 56.240388 
L 76.592291 53.730993 
L 76.916945 57.502495 
L 77.2416 56.145382 
L 77.403927 55.420193 
L 77.566255 55.597132 
L 77.890909 54.599999 
L 78.053236 56.740698 
L 78.215564 55.919632 
L 78.377891 55.903071 
L 78.540218 56.372875 
L 78.702545 54.997458 
L 79.0272 56.641334 
L 79.189527 56.303145 
L 79.351855 54.94516 
L 79.514182 56.125334 
L 79.676509 55.107282 
L 79.838836 54.830106 
L 80.001164 55.835085 
L 80.163491 55.48295 
L 80.325818 55.466389 
L 80.488145 57.094576 
L 80.650473 54.292317 
L 80.8128 56.569861 
L 81.137455 54.497147 
L 81.299782 54.792627 
L 81.462109 55.838571 
L 81.624436 54.452695 
L 81.786764 54.396039 
L 81.949091 54.948647 
L 82.111418 56.441733 
L 82.273745 55.624153 
L 82.5984 57.113752 
L 82.760727 56.463523 
L 82.923055 56.826117 
L 83.085382 55.092464 
L 83.247709 55.978902 
L 83.410036 57.809305 
L 83.572364 56.928097 
L 83.734691 57.5914 
L 83.897018 56.39205 
L 84.221673 58.016751 
L 84.384 55.481207 
L 84.546327 57.355191 
L 84.708655 57.643697 
L 84.870982 56.225571 
L 85.195636 57.218346 
L 85.357964 56.651793 
L 85.520291 55.19793 
L 85.844945 56.876671 
L 86.1696 54.171161 
L 86.331927 56.174145 
L 86.494255 56.039916 
L 86.656582 55.324315 
L 86.818909 55.569241 
L 86.981236 56.234287 
L 87.143564 55.26766 
L 87.305891 55.378356 
L 87.468218 55.659889 
L 87.630545 54.963464 
L 87.9552 55.535247 
L 88.117527 55.260687 
L 88.279855 56.031199 
L 88.442182 55.167424 
L 88.604509 55.7087 
L 88.766836 55.485565 
L 88.929164 56.096571 
L 89.091491 55.187471 
L 89.253818 55.991976 
L 89.416145 53.674338 
L 89.7408 55.3217 
L 89.903127 54.959978 
L 90.065455 55.109897 
L 90.227782 55.090721 
L 90.390109 55.914402 
L 90.552436 54.47187 
L 90.714764 55.795862 
L 90.877091 55.709571 
L 91.039418 56.51582 
L 91.364073 54.584309 
L 91.5264 54.957363 
L 91.688727 53.568 
L 91.851055 55.361795 
L 92.013382 53.955871 
L 92.338036 55.904814 
L 92.500364 55.498639 
L 92.662691 54.56862 
L 92.825018 54.575593 
L 92.987345 55.465518 
L 93.149673 57.330785 
L 93.312 55.797605 
L 93.474327 55.323444 
L 93.798982 56.398152 
L 93.961309 54.844924 
L 94.285964 55.767098 
L 94.448291 55.715673 
L 94.935273 54.448337 
L 95.0976 56.135794 
L 95.259927 54.560776 
L 95.422255 54.822262 
L 95.584582 55.98326 
L 95.746909 55.61195 
L 95.909236 56.057348 
L 96.071564 54.060466 
L 96.396218 58.744554 
L 96.720873 55.712186 
L 96.8832 55.139532 
L 97.207855 57.346475 
L 97.370182 55.304268 
L 97.694836 54.873687 
L 98.019491 56.324935 
L 98.181818 54.844052 
L 98.344145 55.338261 
L 98.6688 57.264542 
L 98.831127 57.288076 
L 98.993455 57.458042 
L 99.155782 58.144007 
L 99.318109 57.535616 
L 99.480436 60.416322 
L 99.967418 57.552177 
L 100.292073 60.241126 
L 100.4544 58.502243 
L 100.616727 58.140521 
L 100.941382 60.905301 
L 101.103709 59.613559 
L 101.266036 59.250094 
L 101.428364 60.404991 
L 101.590691 58.928466 
L 101.915345 59.224817 
L 102.24 57.632366 
L 102.402327 57.380468 
L 102.564655 56.086983 
L 102.726982 57.936562 
L 102.889309 57.48942 
L 103.051636 55.834213 
L 103.213964 57.656772 
L 103.376291 58.093453 
L 103.538618 57.831967 
L 103.700945 56.519307 
L 103.863273 57.196556 
L 104.0256 56.972549 
L 104.187927 56.046017 
L 104.350255 56.826989 
L 104.512582 56.810428 
L 104.674909 56.915894 
L 104.999564 56.183733 
L 105.324218 55.149119 
L 105.486545 55.136045 
L 105.648873 55.425423 
L 105.973527 54.862356 
L 106.135855 55.373998 
L 106.298182 55.281606 
L 106.460509 55.95624 
L 106.785164 56.257821 
L 106.947491 54.221715 
L 107.109818 54.769965 
L 107.272145 57.25234 
L 107.434473 54.688032 
L 107.759127 56.912408 
L 107.921455 55.384457 
L 108.083782 56.350212 
L 108.246109 56.167172 
L 108.408436 57.089347 
L 108.570764 56.914151 
L 108.733091 55.469004 
L 108.895418 57.159948 
L 109.057745 55.687781 
L 109.220073 55.829855 
L 109.3824 57.452812 
L 109.544727 57.517312 
L 109.707055 55.903071 
L 110.031709 57.771825 
L 110.194036 56.989982 
L 110.356364 56.893232 
L 110.518691 59.13504 
L 110.681018 57.243623 
L 110.843345 56.95686 
L 111.005673 57.55915 
L 111.168 57.387441 
L 111.654982 58.858736 
L 111.817309 60.239383 
L 112.141964 58.275622 
L 112.304291 56.887131 
L 112.466618 58.315717 
L 112.628945 56.520178 
L 112.791273 56.354571 
L 112.9536 55.631997 
L 113.278255 57.850271 
L 113.440582 58.028953 
L 113.602909 57.037921 
L 113.765236 57.77967 
L 113.927564 55.302525 
L 114.089891 57.283718 
L 114.252218 56.654408 
L 114.576873 56.700604 
L 114.7392 56.501874 
L 114.901527 58.246859 
L 115.063855 57.560022 
L 115.226182 58.218095 
L 115.550836 57.573096 
L 115.713164 57.607961 
L 115.875491 55.187471 
L 116.037818 57.999318 
L 116.200145 56.244746 
L 116.5248 58.284338 
L 116.687127 58.395906 
L 117.011782 57.163434 
L 117.174109 56.277868 
L 117.498764 58.863966 
L 117.661091 58.105656 
L 117.823418 57.960095 
L 117.985745 57.086732 
L 118.148073 57.285461 
L 118.3104 56.752901 
L 118.472727 55.768842 
L 118.635055 57.513826 
L 118.797382 57.098063 
L 118.959709 57.234907 
L 119.122036 59.970052 
L 119.284364 57.945278 
L 119.609018 57.901697 
L 119.933673 57.258441 
L 120.096 58.358426 
L 120.420655 58.789878 
L 120.582982 60.672578 
L 120.745309 59.4096 
L 120.907636 57.158205 
L 121.069964 57.939177 
L 121.232291 56.759002 
L 121.394618 59.016499 
L 121.556945 59.461897 
L 121.8816 57.31161 
L 122.043927 59.148986 
L 122.206255 58.604223 
L 122.368582 60.282092 
L 122.693236 61.060449 
L 122.855564 61.028199 
L 123.017891 62.713913 
L 123.180218 60.978517 
L 123.342545 60.807679 
L 123.504873 61.545942 
L 123.6672 59.7321 
L 123.829527 59.678931 
L 123.991855 59.499377 
L 124.154182 58.934567 
L 124.316509 59.12458 
L 124.478836 59.076641 
L 124.641164 58.736709 
L 124.803491 58.987736 
L 124.965818 60.143505 
L 125.128145 59.29106 
L 125.290473 61.128436 
L 125.615127 60.376227 
L 125.777455 61.188578 
L 125.939782 61.097057 
L 126.102109 61.253078 
L 126.426764 64.636708 
L 126.589091 63.62127 
L 127.076073 68.277467 
L 127.2384 71.079726 
L 127.400727 71.424017 
L 127.563055 75.739409 
L 127.725382 75.565085 
L 128.050036 82.351522 
L 128.374691 90.240559 
L 128.699345 97.334678 
L 128.861673 100.000093 
L 129.024 100.367045 
L 129.186327 101.725902 
L 129.997964 129.459121 
L 130.322618 157.574982 
L 131.134255 261.228086 
L 131.296582 255.046554 
L 131.458909 243.795677 
L 131.621236 242.895293 
L 132.108218 268.80334 
L 132.5952 238.075232 
L 132.757527 239.699061 
L 132.919855 250.25177 
L 133.082182 249.009711 
L 133.406836 204.86475 
L 133.731491 159.078527 
L 134.056145 133.621109 
L 134.218473 134.937256 
L 134.3808 131.323517 
L 135.517091 88.0249 
L 136.1664 80.033012 
L 136.815709 70.572443 
L 136.978036 71.175605 
L 137.140364 69.595357 
L 137.302691 70.014606 
L 137.465018 68.321919 
L 137.627345 65.403734 
L 137.789673 65.884869 
L 137.952 63.103528 
L 138.114327 62.577069 
L 138.276655 63.006778 
L 138.438982 64.264526 
L 138.763636 61.151098 
L 138.925964 59.729485 
L 139.088291 59.579566 
L 139.412945 58.662622 
L 139.575273 59.391296 
L 139.899927 57.955737 
L 140.224582 58.78552 
L 140.386909 58.743682 
L 140.549236 59.119351 
L 140.711564 60.601977 
L 140.873891 60.607207 
L 141.198545 57.678562 
L 141.360873 60.287322 
L 141.5232 58.821256 
L 141.685527 59.317209 
L 141.847855 58.223325 
L 142.010182 60.805936 
L 142.172509 61.084855 
L 142.497164 60.099924 
L 142.659491 58.696615 
L 142.821818 60.653403 
L 142.984145 60.609822 
L 143.146473 58.612939 
L 143.3088 61.228672 
L 143.471127 61.041274 
L 143.633455 60.210619 
L 143.795782 58.164055 
L 143.958109 59.009526 
L 144.120436 58.60248 
L 144.282764 58.585919 
L 144.445091 59.668472 
L 144.769745 58.997324 
L 144.932073 61.853624 
L 145.0944 59.466256 
L 145.256727 58.78552 
L 145.419055 59.518553 
L 145.581382 59.713796 
L 145.743709 58.055974 
L 145.906036 59.419188 
L 146.068364 59.73733 
L 146.230691 59.601357 
L 146.393018 59.191695 
L 146.555345 59.356431 
L 146.717673 59.973539 
L 146.88 58.762858 
L 147.042327 60.137403 
L 147.366982 57.68815 
L 147.529309 58.797723 
L 147.853964 57.648927 
L 148.016291 55.619795 
L 148.178618 56.962962 
L 148.340945 59.631863 
L 148.503273 58.908419 
L 148.6656 56.5533 
L 148.827927 57.09632 
L 148.990255 55.135174 
L 149.314909 58.74804 
L 149.477236 57.89821 
L 149.639564 57.890366 
L 149.801891 57.273259 
L 150.126545 59.271013 
L 150.775855 56.165429 
L 150.938182 58.288696 
L 151.100509 57.680305 
L 151.262836 57.531258 
L 151.425164 56.825246 
L 151.587491 57.09109 
L 151.749818 55.806321 
L 151.912145 56.119233 
L 152.074473 56.172402 
L 152.2368 57.792744 
L 152.399127 57.265414 
L 152.561455 57.380468 
L 152.723782 58.114372 
L 152.886109 57.412718 
L 153.048436 58.503115 
L 153.535418 57.163434 
L 153.697745 57.762238 
L 153.860073 57.176509 
L 154.0224 57.950508 
L 154.184727 56.996083 
L 154.347055 57.551305 
L 154.509382 56.776435 
L 154.671709 58.809925 
L 154.996364 57.793616 
L 155.158691 57.450197 
L 155.321018 56.374618 
L 155.483345 56.995212 
L 155.645673 59.481073 
L 155.808 58.415081 
L 155.970327 59.535985 
L 156.132655 58.705331 
L 156.294982 58.636473 
L 156.457309 56.556787 
L 156.619636 57.910413 
L 156.781964 55.998078 
L 157.106618 58.707946 
L 157.268945 58.838689 
L 157.431273 57.550434 
L 157.5936 57.380468 
L 157.755927 58.675696 
L 157.918255 61.045632 
L 158.080582 59.290188 
L 158.242909 61.768205 
L 158.405236 61.46401 
L 158.892218 65.731463 
L 159.216873 67.657745 
L 159.3792 71.567834 
L 159.541527 71.24272 
L 159.866182 75.214694 
L 160.190836 78.599196 
L 160.353164 79.525729 
L 160.515491 81.977597 
L 161.327127 109.329047 
L 161.489455 115.307491 
L 161.651782 114.846404 
L 161.814109 117.00628 
L 161.976436 117.489157 
L 162.301091 126.922706 
L 162.625745 141.540652 
L 163.112727 185.653363 
L 163.437382 246.472424 
L 163.762036 273.305259 
L 163.924364 270.638972 
L 164.249018 260.551709 
L 164.736 271.784282 
L 165.385309 253.497685 
L 165.547636 255.627053 
L 165.709964 254.873973 
L 165.872291 245.384641 
L 166.683927 169.776797 
L 166.846255 164.522669 
L 167.008582 163.130691 
L 167.333236 144.880702 
L 167.820218 109.471121 
L 168.794182 81.042348 
L 168.956509 79.574539 
L 169.118836 80.014708 
L 169.443491 73.949101 
L 169.605818 74.768424 
L 169.768145 71.138125 
L 169.930473 70.881869 
L 170.255127 65.523146 
L 170.417455 65.089079 
L 170.579782 64.16429 
L 170.742109 65.588518 
L 171.066764 62.746163 
L 171.391418 62.08809 
L 171.553745 60.471234 
L 171.8784 61.824861 
L 172.040727 60.272505 
L 172.203055 60.3832 
L 172.527709 59.858485 
L 172.690036 60.531376 
L 172.852364 60.107768 
L 173.177018 58.748912 
L 173.339345 60.300396 
L 173.501673 59.17252 
L 173.664 60.051985 
L 173.826327 60.188829 
L 173.988655 59.648424 
L 174.150982 58.232041 
L 174.313309 59.225688 
L 174.475636 59.470614 
L 174.637964 57.835454 
L 174.800291 59.707694 
L 174.962618 59.873302 
L 175.124945 58.672209 
L 175.287273 59.560391 
L 175.4496 59.508093 
L 175.611927 60.088593 
L 175.936582 58.379345 
L 176.098909 59.669343 
L 176.261236 58.897959 
L 176.423564 60.45293 
L 176.585891 59.847154 
L 176.910545 61.49103 
L 177.072873 58.321818 
L 177.2352 58.865709 
L 177.559855 58.721892 
L 177.884509 60.683038 
L 178.046836 61.139767 
L 178.209164 59.590897 
L 178.371491 60.855619 
L 178.533818 58.164055 
L 178.696145 58.429027 
L 178.858473 58.202406 
L 179.0208 59.22656 
L 179.183127 58.810797 
L 179.345455 59.894221 
L 179.507782 60.165295 
L 179.670109 59.602228 
L 179.832436 59.569107 
L 179.994764 58.191075 
L 180.319418 60.54445 
L 180.481745 58.853506 
L 180.644073 58.598122 
L 180.8064 57.835454 
L 180.968727 61.636591 
L 181.131055 57.980143 
L 181.293382 59.113249 
L 181.455709 59.087972 
L 181.618036 60.167038 
L 181.780364 59.372121 
L 181.942691 59.398269 
L 182.267345 55.967571 
L 182.592 59.47933 
L 182.754327 57.409231 
L 182.916655 58.293054 
L 183.078982 56.022483 
L 183.241309 57.622778 
L 183.403636 58.065562 
L 183.565964 57.08063 
L 183.728291 57.004799 
L 183.890618 57.291563 
L 184.052945 56.67184 
L 184.215273 57.267157 
L 184.3776 57.243623 
L 184.539927 59.284087 
L 184.702255 56.737212 
L 184.864582 57.736089 
L 185.026909 59.840181 
L 185.189236 58.373244 
L 185.351564 58.503115 
L 185.513891 58.141393 
L 185.676218 59.902066 
L 185.838545 58.567615 
L 186.000873 58.514446 
L 186.1632 59.113249 
L 186.487855 57.088475 
L 186.812509 61.104902 
L 186.974836 58.706203 
L 187.137164 58.268649 
L 187.461818 60.001431 
L 187.624145 57.453684 
L 187.786473 58.865709 
L 187.9488 57.765724 
L 188.111127 59.16729 
L 188.273455 58.329663 
L 188.435782 59.302391 
L 188.598109 58.690513 
L 188.760436 59.298904 
L 188.922764 60.464261 
L 189.085091 59.385195 
L 189.247418 61.190321 
L 189.409745 59.834951 
L 189.572073 60.735335 
L 190.059055 59.381708 
L 190.221382 59.416573 
L 190.546036 63.334507 
L 190.708364 61.78128 
L 191.033018 63.270879 
L 191.195345 59.632735 
L 191.52 61.612185 
L 191.682327 60.842544 
L 191.844655 61.852752 
L 192.006982 60.128687 
L 192.493964 59.839309 
L 192.656291 59.965694 
L 192.818618 60.273376 
L 192.980945 59.76435 
L 193.143273 60.670835 
L 193.3056 59.982255 
L 193.467927 57.573096 
L 193.630255 57.43538 
L 193.792582 59.019114 
L 194.117236 59.276242 
L 194.441891 57.685535 
L 194.604218 57.358677 
L 194.928873 59.149857 
L 195.0912 59.061824 
L 195.253527 60.557524 
L 195.415855 59.804444 
L 195.578182 57.845913 
L 195.902836 59.254452 
L 196.065164 56.611699 
L 196.227491 57.959224 
L 196.552145 58.571101 
L 196.714473 58.070791 
L 196.8768 58.372372 
L 197.201455 56.852266 
L 197.363782 58.094325 
L 197.526109 57.213988 
L 197.688436 58.151852 
L 197.850764 58.424669 
L 198.013091 57.533873 
L 198.175418 58.109143 
L 198.337745 57.160819 
L 198.500073 57.407488 
L 198.6624 57.127698 
L 198.824727 59.001682 
L 198.987055 58.340994 
L 199.149382 59.048749 
L 199.311709 58.698358 
L 199.474036 59.353817 
L 199.636364 59.082743 
L 199.798691 59.148986 
L 199.961018 58.510088 
L 200.123345 59.472357 
L 200.285673 58.6295 
L 200.448 60.451187 
L 200.610327 58.537108 
L 200.772655 58.593764 
L 200.934982 59.397398 
L 201.097309 61.546814 
L 201.259636 59.032189 
L 201.421964 62.289434 
L 201.584291 60.309984 
L 201.746618 61.011639 
L 201.908945 60.55491 
L 202.071273 63.102656 
L 202.2336 61.562503 
L 202.395927 63.200278 
L 202.558255 61.9373 
L 202.720582 62.926589 
L 203.045236 62.421921 
L 203.207564 64.135526 
L 203.369891 62.844656 
L 203.532218 62.842913 
L 203.694545 65.129174 
L 203.856873 65.391531 
L 204.0192 63.78252 
L 204.343855 65.866565 
L 204.506182 65.694855 
L 204.668509 65.327032 
L 204.830836 66.074882 
L 205.155491 68.121447 
L 205.642473 70.216822 
L 205.8048 72.938893 
L 205.967127 73.288413 
L 206.129455 76.966651 
L 206.291782 76.725212 
L 206.616436 82.782103 
L 206.778764 84.192385 
L 206.941091 87.419995 
L 207.103418 87.978704 
L 207.428073 97.144664 
L 207.752727 112.051989 
L 208.239709 131.8953 
L 208.402036 132.769536 
L 208.564364 134.263493 
L 208.726691 134.465709 
L 208.889018 137.945218 
L 209.376 160.571613 
L 209.538327 172.211233 
L 210.025309 242.078585 
L 210.349964 287.649517 
L 210.512291 295.488 
L 211.1616 277.617166 
L 211.323927 279.553035 
L 211.486255 278.904549 
L 212.135564 254.814703 
L 212.297891 255.714215 
L 212.460218 254.616845 
L 212.622545 243.305827 
L 213.271855 161.421443 
L 213.596509 147.901738 
L 213.758836 144.361216 
L 213.921164 136.663064 
L 214.083491 121.511686 
L 214.245818 117.580678 
L 214.7328 94.238682 
L 215.219782 82.464833 
L 215.382109 80.189903 
L 215.706764 73.694588 
L 216.031418 69.815005 
L 216.193745 70.256917 
L 216.356073 70.025937 
L 216.5184 65.948497 
L 216.680727 65.903173 
L 217.005382 62.933562 
L 217.167709 62.903927 
L 217.492364 61.492773 
L 217.654691 63.318818 
L 217.979345 60.867821 
L 218.141673 61.476212 
L 218.304 62.752265 
L 218.466327 61.660996 
L 218.628655 61.479699 
L 218.790982 60.208876 
L 218.953309 60.185342 
L 219.115636 58.416825 
L 219.277964 58.755013 
L 219.440291 58.352325 
L 219.602618 58.727993 
L 219.764945 58.347967 
L 219.927273 59.207384 
L 220.0896 58.259933 
L 220.251927 58.444716 
L 220.414255 59.19954 
L 220.576582 56.116618 
L 220.738909 57.892981 
L 220.901236 57.285461 
L 221.063564 58.869196 
L 221.388218 58.076893 
L 221.550545 58.600736 
L 221.712873 58.369757 
L 221.8752 60.235025 
L 222.199855 58.741067 
L 222.362182 58.334892 
L 222.524509 59.590897 
L 222.686836 56.342368 
L 222.849164 57.544333 
L 223.011491 57.384826 
L 223.173818 57.673332 
L 223.336145 59.190824 
L 223.498473 58.088224 
L 223.6608 56.193321 
L 223.823127 57.593143 
L 223.985455 55.620666 
L 224.310109 58.439487 
L 224.472436 56.579449 
L 224.634764 56.534996 
L 224.797091 57.540846 
L 224.959418 56.489672 
L 225.121745 56.341496 
L 225.284073 56.669226 
L 225.4464 58.164055 
L 225.771055 56.439989 
L 226.095709 57.704711 
L 226.258036 57.627136 
L 226.420364 57.791873 
L 226.745018 56.542841 
L 226.907345 56.836577 
L 227.069673 57.916514 
L 227.232 57.66113 
L 227.394327 56.942043 
L 227.556655 58.810797 
L 227.881309 57.233164 
L 228.368291 59.656269 
L 228.530618 57.961839 
L 228.692945 59.093202 
L 228.855273 57.034435 
L 229.0176 57.705582 
L 229.179927 56.64482 
L 229.342255 58.612939 
L 229.504582 57.743934 
L 229.829236 58.022852 
L 229.991564 57.579197 
L 230.153891 58.448203 
L 230.316218 57.362164 
L 230.478545 57.205272 
L 230.8032 58.191946 
L 230.965527 57.673332 
L 231.127855 56.663124 
L 231.290182 57.531258 
L 231.452509 57.005671 
L 231.614836 58.030697 
L 231.777164 57.275873 
L 231.939491 59.518553 
L 232.101818 58.714919 
L 232.264145 61.075267 
L 232.426473 58.266906 
L 232.5888 59.552546 
L 232.751127 58.463892 
L 232.913455 58.735838 
L 233.075782 60.581058 
L 233.238109 60.82424 
L 233.400436 62.016617 
L 233.562764 61.95386 
L 233.725091 61.412584 
L 233.887418 62.421921 
L 234.049745 64.424904 
L 234.212073 64.680289 
L 234.536727 67.721373 
L 235.023709 68.90329 
L 235.186036 69.899552 
L 235.348364 71.699449 
L 235.510691 71.783124 
L 235.673018 73.112345 
L 236.16 81.502564 
L 236.322327 80.965646 
L 236.971636 89.972971 
L 237.458618 104.131574 
L 237.783273 121.112484 
L 238.432582 168.360414 
L 238.594909 174.450426 
L 238.757236 173.293785 
L 238.919564 171.268139 
L 239.081891 170.780904 
L 239.406545 174.528872 
L 239.568873 160.116627 
L 239.7312 168.991467 
L 239.893527 165.020364 
L 240.055855 164.255953 
L 240.218182 159.717425 
L 240.380509 160.659647 
L 240.705164 143.91669 
L 241.192145 108.772953 
L 241.5168 96.90584 
L 242.815418 70.374586 
L 242.977745 70.872281 
L 243.3024 68.125805 
L 243.627055 63.840919 
L 243.789382 62.06107 
L 243.951709 63.18023 
L 244.114036 63.21771 
L 244.276364 64.050979 
L 244.763345 60.45816 
L 244.925673 60.459031 
L 245.088 59.564749 
L 245.250327 60.424166 
L 245.412655 58.056845 
L 245.574982 58.680054 
L 245.737309 58.556284 
L 245.899636 61.063064 
L 246.224291 56.989982 
L 246.548945 59.75389 
L 246.711273 59.10279 
L 247.035927 60.016248 
L 247.198255 62.116853 
L 247.360582 61.883259 
L 247.522909 62.638954 
L 247.685236 62.36788 
L 247.847564 63.34671 
L 248.009891 60.690882 
L 248.172218 61.271382 
L 248.496873 60.320444 
L 248.6592 60.444214 
L 248.821527 60.98026 
L 249.308509 57.701224 
L 249.470836 57.675947 
L 249.633164 59.545573 
L 249.795491 58.47871 
L 249.957818 59.816647 
L 250.120145 58.328791 
L 250.4448 59.948262 
L 250.607127 57.466758 
L 250.931782 60.145248 
L 251.094109 59.568235 
L 251.256436 58.192818 
L 251.581091 58.693128 
L 251.743418 58.989479 
L 251.905745 60.739693 
L 252.2304 57.93569 
L 252.392727 59.758248 
L 252.555055 58.28521 
L 252.717382 59.297161 
L 252.879709 61.65228 
L 253.042036 59.677188 
L 253.204364 60.663862 
L 253.366691 60.213234 
L 253.529018 58.96856 
L 253.691345 59.962208 
L 253.853673 59.907296 
L 254.016 60.651659 
L 254.178327 59.216101 
L 254.340655 59.170776 
L 254.502982 59.992714 
L 254.665309 59.29106 
L 254.989964 59.617046 
L 255.152291 59.309364 
L 255.314618 58.076893 
L 255.639273 59.313722 
L 255.8016 58.239014 
L 255.963927 58.884013 
L 256.126255 58.411595 
L 256.288582 56.46178 
L 256.450909 59.369506 
L 256.775564 57.867704 
L 256.937891 60.207133 
L 257.262545 58.417696 
L 257.5872 59.610945 
L 258.074182 58.392419 
L 258.236509 58.797723 
L 258.561164 57.599245 
L 258.723491 56.818273 
L 258.885818 58.686155 
L 259.210473 57.732603 
L 259.3728 58.646932 
L 259.535127 57.94092 
L 259.697455 58.126575 
L 259.859782 58.503987 
L 260.022109 57.42492 
L 260.184436 57.584427 
L 260.346764 58.635601 
L 260.509091 56.92461 
L 260.671418 57.262799 
L 260.833745 57.336887 
L 260.996073 56.698861 
L 261.1584 58.843047 
L 261.320727 56.955989 
L 261.483055 58.916263 
L 261.645382 59.297161 
L 261.807709 56.584678 
L 261.970036 57.504238 
L 262.294691 57.192198 
L 262.457018 57.775312 
L 262.619345 56.373746 
L 262.781673 57.326427 
L 262.944 55.150863 
L 263.430982 58.609453 
L 263.755636 57.234907 
L 263.917964 57.641954 
L 264.080291 58.789007 
L 264.242618 58.62427 
L 264.404945 58.273007 
L 264.7296 59.376479 
L 264.891927 57.809305 
L 265.054255 58.507473 
L 265.216582 57.540846 
L 265.378909 59.383452 
L 265.541236 56.984752 
L 265.865891 58.382831 
L 266.028218 57.219218 
L 266.190545 57.367394 
L 266.352873 57.255826 
L 266.677527 58.250345 
L 266.839855 60.398889 
L 267.164509 58.94677 
L 267.326836 58.497014 
L 267.489164 59.184722 
L 267.651491 59.053108 
L 267.813818 58.03767 
L 267.976145 59.756505 
L 268.3008 56.812171 
L 268.463127 58.461277 
L 268.625455 57.781413 
L 268.787782 56.427787 
L 269.112436 58.897087 
L 269.274764 57.497265 
L 269.437091 57.313353 
L 269.599418 57.783157 
L 269.761745 57.504238 
L 270.0864 58.550182 
L 270.248727 57.054482 
L 270.411055 57.505981 
L 270.573382 58.373244 
L 270.735709 57.244495 
L 270.898036 57.979271 
L 271.060364 57.727373 
L 271.222691 59.010398 
L 271.385018 58.996452 
L 271.547345 58.555412 
L 271.709673 59.443593 
L 271.872 58.35494 
L 272.034327 58.592892 
L 272.196655 57.428407 
L 272.521309 58.033312 
L 272.683636 56.963833 
L 273.008291 57.421434 
L 273.332945 59.6031 
L 273.6576 57.077144 
L 273.819927 58.654777 
L 273.982255 58.476095 
L 274.144582 60.261173 
L 274.306909 58.431642 
L 274.469236 59.352073 
L 274.956218 56.846165 
L 275.118545 58.755885 
L 275.280873 58.935439 
L 275.4432 58.580689 
L 275.605527 56.598624 
L 275.767855 59.63012 
L 275.930182 56.867955 
L 276.092509 59.095817 
L 276.417164 58.76373 
L 276.579491 59.896836 
L 276.904145 56.785151 
L 277.066473 60.553166 
L 277.2288 58.296541 
L 277.391127 57.949636 
L 277.553455 58.662622 
L 277.715782 57.780542 
L 278.040436 59.085357 
L 278.202764 56.479212 
L 278.365091 57.59663 
L 278.527418 57.114624 
L 278.689745 59.956106 
L 278.852073 58.001933 
L 279.0144 58.939797 
L 279.176727 57.224448 
L 279.339055 57.777927 
L 279.663709 59.816647 
L 279.826036 58.15098 
L 280.313018 60.051113 
L 280.475345 58.52752 
L 280.637673 58.722763 
L 280.8 58.361912 
L 280.962327 57.522542 
L 281.124655 59.715539 
L 281.286982 59.624891 
L 281.449309 58.476966 
L 281.611636 58.528392 
L 281.773964 59.800958 
L 281.936291 58.795108 
L 282.098618 60.525274 
L 282.260945 60.900943 
L 282.423273 59.820134 
L 282.5856 59.94739 
L 282.747927 60.542707 
L 282.910255 59.761735 
L 283.072582 58.280852 
L 283.234909 60.187957 
L 283.397236 58.332277 
L 283.559564 60.410221 
L 283.721891 60.910531 
L 283.884218 60.864335 
L 284.046545 61.391665 
L 284.3712 59.622276 
L 284.533527 61.457037 
L 284.695855 59.383452 
L 284.858182 59.918627 
L 285.020509 60.027579 
L 285.182836 60.897456 
L 285.345164 59.411344 
L 285.507491 61.739442 
L 285.669818 60.176626 
L 285.832145 60.427653 
L 285.994473 60.92099 
L 286.1568 60.416322 
L 286.319127 59.10279 
L 286.643782 58.558899 
L 286.806109 60.069417 
L 286.968436 58.205892 
L 287.130764 58.697486 
L 287.293091 60.251586 
L 287.455418 59.26404 
L 287.9424 61.579064 
L 288.104727 62.65813 
L 288.267055 62.032306 
L 288.429382 63.412953 
L 288.591709 62.670332 
L 288.754036 63.390291 
L 288.916364 62.774055 
L 289.403345 68.104014 
L 289.728 68.724608 
L 289.890327 68.470095 
L 290.214982 73.217811 
L 290.377309 73.070508 
L 290.539636 73.864554 
L 290.864291 80.976977 
L 291.026618 81.57578 
L 291.838255 98.970709 
L 292.162909 114.131675 
L 292.487564 139.872371 
L 293.136873 199.934865 
L 293.2992 205.525438 
L 293.461527 206.59666 
L 293.786182 209.180143 
L 294.110836 215.69812 
L 294.273164 215.994471 
L 294.597818 212.134064 
L 294.760145 213.414475 
L 294.922473 212.059977 
L 295.0848 209.467777 
L 295.409455 183.327008 
L 296.058764 129.088682 
L 296.708073 105.811187 
L 297.682036 80.169856 
L 298.006691 73.075737 
L 298.169018 72.718373 
L 298.331345 70.00589 
L 298.493673 69.907397 
L 298.656 69.475073 
L 299.142982 66.64405 
L 299.305309 63.398135 
L 299.467636 63.371115 
L 299.629964 61.928583 
L 299.792291 61.800455 
L 299.954618 61.246105 
L 300.116945 61.116233 
L 300.279273 60.724004 
L 300.4416 61.115361 
L 300.603927 60.532247 
L 300.766255 60.847774 
L 301.090909 59.017371 
L 301.253236 59.101918 
L 301.415564 59.448823 
L 301.577891 59.223073 
L 301.902545 57.671589 
L 302.064873 57.966197 
L 302.2272 59.223945 
L 302.389527 59.111506 
L 302.714182 56.177632 
L 302.876509 58.782905 
L 303.038836 58.205892 
L 303.201164 59.257067 
L 303.363491 57.515569 
L 303.525818 58.155338 
L 303.688145 58.112629 
L 303.850473 58.537108 
L 304.0128 56.933327 
L 304.175127 58.253832 
L 304.337455 57.513826 
L 304.499782 57.986244 
L 304.662109 57.352576 
L 304.824436 58.029825 
L 304.986764 60.115613 
L 305.311418 57.797974 
L 305.473745 58.90406 
L 305.636073 57.53736 
L 305.7984 57.533873 
L 305.960727 59.637965 
L 306.123055 57.787515 
L 306.285382 58.11873 
L 306.610036 59.177749 
L 306.772364 57.578326 
L 306.934691 61.05522 
L 307.097018 58.231169 
L 307.259345 59.642323 
L 307.421673 58.328791 
L 307.584 59.933444 
L 307.746327 59.250965 
L 307.908655 57.923487 
L 308.070982 59.243121 
L 308.233309 59.315465 
L 308.395636 58.001933 
L 308.557964 58.657392 
L 308.720291 60.193187 
L 309.044945 58.162311 
L 309.207273 58.849148 
L 309.3696 60.758869 
L 309.531927 60.301268 
L 309.694255 61.246105 
L 309.856582 60.825983 
L 310.018909 57.896467 
L 310.181236 58.998195 
L 310.343564 57.498137 
L 310.505891 59.31808 
L 310.668218 59.049621 
L 310.830545 60.582801 
L 310.992873 60.085978 
L 311.1552 58.75327 
L 312.616145 69.956208 
L 312.778473 72.882238 
L 312.9408 72.0603 
L 313.265455 74.828566 
L 313.752436 85.424856 
L 314.239418 100.599768 
L 315.051055 116.033551 
L 315.213382 120.582538 
L 315.538036 139.671026 
L 316.025018 186.859686 
L 316.349673 248.580002 
L 316.674327 273.000192 
L 316.836655 270.150865 
L 316.998982 265.099824 
L 317.161309 265.497283 
L 317.648291 275.253331 
L 318.135273 259.388967 
L 318.2976 259.880561 
L 318.459927 263.63463 
L 318.622255 261.506133 
L 318.784582 247.073842 
L 319.271564 182.306341 
L 319.596218 161.235788 
L 320.245527 129.029412 
L 320.894836 96.038578 
L 321.219491 88.794541 
L 321.544145 79.406317 
L 322.031127 73.634446 
L 322.193455 72.947609 
L 322.518109 69.497735 
L 322.842764 66.27274 
L 323.167418 64.37435 
L 323.329745 62.467245 
L 323.492073 63.253446 
L 323.816727 61.957347 
L 323.979055 59.362533 
L 324.141382 61.398638 
L 324.628364 58.286082 
L 324.790691 60.045883 
L 324.953018 59.161188 
L 325.115345 59.852383 
L 325.277673 59.675445 
L 325.44 57.189583 
L 325.602327 60.007532 
L 325.764655 59.00604 
L 325.926982 59.044391 
L 326.089309 59.494147 
L 326.251636 59.311107 
L 326.413964 59.97964 
L 326.576291 58.873554 
L 326.738618 59.646681 
L 327.063273 58.75327 
L 327.2256 58.548439 
L 327.387927 59.197796 
L 327.550255 59.132425 
L 327.712582 59.298033 
L 327.874909 57.057968 
L 328.037236 59.486303 
L 328.199564 58.665236 
L 328.361891 59.729485 
L 328.524218 57.983629 
L 328.686545 60.078133 
L 328.848873 57.867704 
L 329.173527 58.696615 
L 329.335855 58.05946 
L 329.660509 59.79137 
L 329.822836 58.517933 
L 329.985164 58.3715 
L 330.147491 57.888623 
L 330.472145 58.986864 
L 330.7968 60.589774 
L 330.959127 60.672578 
L 331.121455 61.383821 
L 331.283782 60.481693 
L 331.608436 61.120591 
L 331.770764 60.085978 
L 331.933091 62.441096 
L 332.095418 60.71093 
L 332.257745 61.831834 
L 332.420073 58.988608 
L 332.907055 62.686022 
L 333.231709 60.579315 
L 333.394036 60.765842 
L 333.718691 61.460523 
L 333.881018 59.930829 
L 334.043345 60.048498 
L 334.205673 61.516307 
L 334.530327 59.82885 
L 334.692655 59.437492 
L 334.854982 61.102287 
L 335.017309 58.915391 
L 335.179636 59.017371 
L 335.341964 59.755634 
L 335.504291 59.698107 
L 335.666618 58.734966 
L 335.828945 58.553669 
L 335.991273 58.896216 
L 336.1536 60.911402 
L 336.315927 59.864586 
L 336.478255 60.080748 
L 336.802909 59.155087 
L 336.965236 59.150729 
L 337.127564 56.970806 
L 337.289891 58.294798 
L 337.452218 58.149237 
L 337.614545 57.797974 
L 337.776873 59.187337 
L 337.9392 57.920001 
L 338.101527 59.205641 
L 338.263855 59.559519 
L 338.426182 58.648676 
L 338.750836 61.557273 
L 338.913164 60.713544 
L 339.075491 61.883259 
L 339.237818 60.838186 
L 339.400145 63.144494 
L 339.562473 62.774055 
L 339.7248 64.672445 
L 340.049455 62.983244 
L 340.211782 63.064305 
L 340.374109 63.765959 
L 340.536436 62.807177 
L 340.861091 65.240741 
L 341.023418 63.856608 
L 341.185745 63.853993 
L 341.348073 66.366875 
L 341.5104 63.762473 
L 341.672727 63.881885 
L 341.835055 64.321182 
L 342.159709 66.155943 
L 342.322036 63.513189 
L 342.484364 64.865944 
L 342.646691 65.137018 
L 342.809018 61.993083 
L 342.971345 62.613677 
L 343.133673 59.814904 
L 343.296 63.251703 
L 343.458327 64.12158 
L 343.620655 63.239501 
L 343.782982 63.202892 
L 343.945309 64.13204 
L 344.432291 63.109629 
L 344.594618 61.442219 
L 344.756945 61.975651 
L 345.0816 63.399879 
L 345.243927 63.952486 
L 345.406255 63.627372 
L 345.730909 67.262029 
L 345.893236 69.813262 
L 346.055564 68.133649 
L 346.217891 69.094175 
L 346.380218 72.441198 
L 346.542545 70.342336 
L 346.704873 75.038627 
L 346.8672 75.038627 
L 347.029527 76.139483 
L 347.841164 92.362955 
L 348.003491 94.420851 
L 348.165818 94.772985 
L 348.328145 95.884301 
L 348.977455 111.077517 
L 349.464436 139.330223 
L 350.113745 204.319987 
L 350.276073 205.961248 
L 350.600727 196.135471 
L 350.763055 195.797282 
L 351.087709 206.665518 
L 351.250036 203.910325 
L 351.574691 192.417138 
L 351.737018 191.786957 
L 351.899345 192.896529 
L 352.061673 197.071591 
L 352.224 195.666539 
L 352.548655 166.052363 
L 352.873309 134.042101 
L 353.197964 120.694978 
L 353.522618 116.00043 
L 354.0096 96.139686 
L 354.334255 87.67538 
L 354.983564 78.345555 
L 355.145891 76.604929 
L 355.308218 72.734934 
L 355.470545 72.459502 
L 355.632873 72.562353 
L 355.7952 70.087822 
L 355.957527 71.611415 
L 356.282182 68.604324 
L 356.444509 64.441465 
L 356.606836 64.568722 
L 356.931491 65.816882 
L 357.093818 63.635216 
L 357.418473 64.963566 
L 357.5808 63.072149 
L 357.743127 63.527135 
L 357.905455 61.817016 
L 358.067782 61.646178 
L 358.230109 62.727859 
L 358.392436 62.371367 
L 358.554764 62.991089 
L 358.717091 62.874292 
L 358.879418 62.312968 
L 359.041745 60.680423 
L 359.204073 60.870436 
L 359.3664 60.577572 
L 359.528727 61.584293 
L 359.691055 61.450064 
L 360.015709 60.280349 
L 360.178036 60.873923 
L 360.340364 59.870687 
L 360.502691 60.661247 
L 360.665018 58.340122 
L 360.827345 59.849769 
L 360.989673 58.872682 
L 361.152 60.04414 
L 361.314327 59.181236 
L 361.476655 59.797471 
L 361.638982 59.556904 
L 361.801309 61.339368 
L 361.963636 59.982255 
L 362.125964 60.679551 
L 362.288291 60.762355 
L 362.450618 60.344849 
L 362.612945 61.023841 
L 362.775273 58.985993 
L 362.9376 59.334641 
L 363.099927 59.224817 
L 363.262255 61.349827 
L 363.424582 61.898948 
L 363.586909 60.003174 
L 363.749236 62.244982 
L 363.911564 61.267895 
L 364.073891 63.813027 
L 364.236218 60.993335 
L 364.398545 60.839929 
L 364.560873 61.519793 
L 364.7232 63.874912 
L 364.885527 62.745292 
L 365.047855 64.545188 
L 365.210182 63.948128 
L 365.372509 63.844405 
L 365.534836 64.510323 
L 365.697164 64.377837 
L 365.859491 65.802065 
L 366.346473 72.651258 
L 366.5088 72.311326 
L 366.833455 77.892312 
L 366.995782 77.187171 
L 367.969745 101.417348 
L 368.132073 103.137055 
L 368.2944 102.6289 
L 369.106036 128.223163 
L 369.430691 149.787053 
L 369.755345 188.64738 
L 370.242327 261.331809 
L 370.404655 266.375005 
L 370.566982 262.479733 
L 370.891636 252.712355 
L 371.216291 269.817034 
L 371.378618 270.746182 
L 371.8656 245.817837 
L 372.027927 248.317644 
L 372.190255 254.898379 
L 372.352582 251.83289 
L 372.677236 209.51746 
L 373.001891 164.296919 
L 373.326545 141.465693 
L 373.813527 124.911877 
L 374.300509 101.57424 
L 374.787491 88.662054 
L 374.949818 87.530691 
L 375.112145 84.43731 
L 375.274473 84.261243 
L 375.4368 77.110468 
L 375.599127 77.174097 
L 375.923782 75.861436 
L 376.086109 70.754612 
L 376.248436 70.677038 
L 376.410764 69.862073 
L 376.573091 66.51505 
L 376.735418 66.636205 
L 377.060073 65.847389 
L 377.2224 66.039145 
L 377.384727 63.620399 
L 377.547055 64.515553 
L 377.709382 63.377217 
L 377.871709 63.046872 
L 378.034036 63.97079 
L 378.196364 62.154333 
L 378.358691 61.970421 
L 378.521018 62.707812 
L 378.683345 62.085475 
L 379.008 60.250714 
L 379.170327 61.51282 
L 379.332655 59.973539 
L 379.494982 62.133414 
L 379.819636 60.793734 
L 379.981964 58.245987 
L 380.144291 59.632735 
L 380.468945 57.959224 
L 380.955927 59.725127 
L 381.118255 57.793616 
L 381.280582 58.548439 
L 381.442909 57.050124 
L 381.605236 57.8494 
L 381.767564 57.490292 
L 381.929891 59.005168 
L 382.092218 58.152724 
L 382.254545 59.310236 
L 382.416873 58.750655 
L 382.741527 56.65005 
L 382.903855 58.43077 
L 383.066182 58.381088 
L 383.228509 57.008286 
L 383.390836 57.504238 
L 383.553164 58.752398 
L 383.715491 56.936813 
L 383.877818 56.860982 
L 384.040145 58.554541 
L 384.202473 57.96794 
L 384.3648 58.015008 
L 384.527127 59.641451 
L 384.689455 57.33863 
L 384.851782 59.271013 
L 385.014109 59.215229 
L 385.176436 59.35033 
L 385.338764 58.300027 
L 385.663418 60.431139 
L 385.988073 58.614682 
L 386.1504 58.736709 
L 386.475055 58.504858 
L 386.637382 59.868944 
L 386.799709 59.848897 
L 386.962036 60.410221 
L 387.124364 59.993586 
L 387.286691 59.004297 
L 387.449018 59.780911 
L 387.611345 59.839309 
L 387.773673 58.849148 
L 387.936 60.884382 
L 388.098327 59.656269 
L 388.260655 60.112998 
L 388.422982 59.841924 
L 388.747636 59.12981 
L 388.909964 59.385195 
L 389.072291 60.048498 
L 389.234618 58.053359 
L 389.396945 61.5503 
L 389.559273 61.232159 
L 389.7216 61.192936 
L 389.883927 60.986362 
L 390.046255 60.089464 
L 390.208582 60.105153 
L 390.370909 59.31808 
L 390.695564 60.52266 
L 390.857891 60.669092 
L 391.182545 59.568235 
L 391.344873 60.445085 
L 391.5072 59.778296 
L 391.669527 60.036295 
L 391.831855 60.54445 
L 391.994182 60.055471 
L 392.156509 58.202406 
L 392.318836 59.668472 
L 392.481164 58.68877 
L 392.643491 58.809054 
L 392.805818 59.344229 
L 392.968145 59.028702 
L 393.130473 58.972047 
L 393.2928 60.609822 
L 393.617455 58.933695 
L 393.779782 59.126324 
L 393.942109 58.87704 
L 394.104436 58.248602 
L 394.266764 59.10802 
L 394.429091 56.537611 
L 394.591418 58.207636 
L 394.753745 58.37673 
L 394.916073 60.021478 
L 395.0784 56.662253 
L 395.240727 59.838438 
L 395.403055 59.270141 
L 395.565382 59.444465 
L 395.727709 58.29044 
L 396.052364 59.567364 
L 396.214691 58.94154 
L 396.377018 60.303883 
L 396.539345 60.28645 
L 396.701673 56.508847 
L 396.864 58.983378 
L 397.026327 59.332026 
L 397.188655 60.367511 
L 397.350982 57.50511 
L 397.513309 61.995698 
L 397.675636 60.466004 
L 397.837964 60.138275 
L 398.162618 57.861602 
L 398.324945 61.672327 
L 398.487273 59.305877 
L 398.487273 59.305877 
" clip-path="url(#p019611dfd0)" style="fill: none; stroke: #1f77b4; stroke-width: 1.5; stroke-linecap: square"/>
   </g>
   <g id="patch_3">
    <path d="M 57.6 307.584 
L 57.6 41.472 
" style="fill: none; stroke: #000000; stroke-width: 0.8; stroke-linejoin: miter; stroke-linecap: square"/>
   </g>
   <g id="patch_4">
    <path d="M 414.72 307.584 
L 414.72 41.472 
" style="fill: none; stroke: #000000; stroke-width: 0.8; stroke-linejoin: miter; stroke-linecap: square"/>
   </g>
   <g id="patch_5">
    <path d="M 57.6 307.584 
L 414.72 307.584 
" style="fill: none; stroke: #000000; stroke-width: 0.8; stroke-linejoin: miter; stroke-linecap: square"/>
   </g>
   <g id="patch_6">
    <path d="M 57.6 41.472 
L 414.72 41.472 
" style="fill: none; stroke: #000000; stroke-width: 0.8; stroke-linejoin: miter; stroke-linecap: square"/>
   </g>
  </g>
 </g>
 <defs>
  <clipPath id="p019611dfd0">
   <rect x="57.6" y="41.472" width="357.12" height="266.112"/>
  </clipPath>
 </defs>
</svg>
