<?xml version="1.0" encoding="utf-8" standalone="no"?>
<!DOCTYPE svg PUBLIC "-//W3C//DTD SVG 1.1//EN"
  "http://www.w3.org/Graphics/SVG/1.1/DTD/svg11.dtd">
<svg xmlns:xlink="http://www.w3.org/1999/xlink" width="324pt" height="216pt" viewBox="0 0 324 216" xmlns="http://www.w3.org/2000/svg" version="1.1">
 <metadata>
  <rdf:RDF xmlns:dc="http://purl.org/dc/elements/1.1/" xmlns:cc="http://creativecommons.org/ns#" xmlns:rdf="http://www.w3.org/1999/02/22-rdf-syntax-ns#">
   <cc:Work>
    <dc:type rdf:resource="http://purl.org/dc/dcmitype/StillImage"/>
    <dc:date>2022-05-16T18:19:25.428471</dc:date>
    <dc:format>image/svg+xml</dc:format>
    <dc:creator>
     <cc:Agent>
      <dc:title>Matplotlib v3.5.1, https://matplotlib.org/</dc:title>
     </cc:Agent>
    </dc:creator>
   </cc:Work>
  </rdf:RDF>
 </metadata>
 <defs>
  <style type="text/css">*{stroke-linejoin: round; stroke-linecap: butt}</style>
 </defs>
 <g id="figure_1">
  <g id="patch_1">
   <path d="M 0 216 
L 324 216 
L 324 0 
L 0 0 
z
" style="fill: #ffffff"/>
  </g>
  <g id="axes_1">
   <g id="patch_2">
    <path d="M 40.5 192.24 
L 291.6 192.24 
L 291.6 25.92 
L 40.5 25.92 
z
" style="fill: #ffffff"/>
   </g>
   <g id="matplotlib.axis_1">
    <g id="xtick_1">
     <g id="line2d_1">
      <defs>
       <path id="m888c3f8dd4" d="M 0 0 
L 0 3.5 
" style="stroke: #000000; stroke-width: 0.8"/>
      </defs>
      <g>
       <use xlink:href="#m888c3f8dd4" x="50.766537" y="192.24" style="stroke: #000000; stroke-width: 0.8"/>
      </g>
     </g>
     <g id="text_1">
      <!-- 0 -->
      <g transform="translate(46.869506 208.548086)scale(0.1225 -0.1225)">
       <defs>
        <path id="DejaVuSans-30" d="M 2034 4250 
Q 1547 4250 1301 3770 
Q 1056 3291 1056 2328 
Q 1056 1369 1301 889 
Q 1547 409 2034 409 
Q 2525 409 2770 889 
Q 3016 1369 3016 2328 
Q 3016 3291 2770 3770 
Q 2525 4250 2034 4250 
z
M 2034 4750 
Q 2819 4750 3233 4129 
Q 3647 3509 3647 2328 
Q 3647 1150 3233 529 
Q 2819 -91 2034 -91 
Q 1250 -91 836 529 
Q 422 1150 422 2328 
Q 422 3509 836 4129 
Q 1250 4750 2034 4750 
z
" transform="scale(0.015625)"/>
       </defs>
       <use xlink:href="#DejaVuSans-30"/>
      </g>
     </g>
    </g>
    <g id="xtick_2">
     <g id="line2d_2">
      <g>
       <use xlink:href="#m888c3f8dd4" x="96.650503" y="192.24" style="stroke: #000000; stroke-width: 0.8"/>
      </g>
     </g>
     <g id="text_2">
      <!-- 2 -->
      <g transform="translate(92.753471 208.548086)scale(0.1225 -0.1225)">
       <defs>
        <path id="DejaVuSans-32" d="M 1228 531 
L 3431 531 
L 3431 0 
L 469 0 
L 469 531 
Q 828 903 1448 1529 
Q 2069 2156 2228 2338 
Q 2531 2678 2651 2914 
Q 2772 3150 2772 3378 
Q 2772 3750 2511 3984 
Q 2250 4219 1831 4219 
Q 1534 4219 1204 4116 
Q 875 4013 500 3803 
L 500 4441 
Q 881 4594 1212 4672 
Q 1544 4750 1819 4750 
Q 2544 4750 2975 4387 
Q 3406 4025 3406 3419 
Q 3406 3131 3298 2873 
Q 3191 2616 2906 2266 
Q 2828 2175 2409 1742 
Q 1991 1309 1228 531 
z
" transform="scale(0.015625)"/>
       </defs>
       <use xlink:href="#DejaVuSans-32"/>
      </g>
     </g>
    </g>
    <g id="xtick_3">
     <g id="line2d_3">
      <g>
       <use xlink:href="#m888c3f8dd4" x="142.534468" y="192.24" style="stroke: #000000; stroke-width: 0.8"/>
      </g>
     </g>
     <g id="text_3">
      <!-- 4 -->
      <g transform="translate(138.637437 208.548086)scale(0.1225 -0.1225)">
       <defs>
        <path id="DejaVuSans-34" d="M 2419 4116 
L 825 1625 
L 2419 1625 
L 2419 4116 
z
M 2253 4666 
L 3047 4666 
L 3047 1625 
L 3713 1625 
L 3713 1100 
L 3047 1100 
L 3047 0 
L 2419 0 
L 2419 1100 
L 313 1100 
L 313 1709 
L 2253 4666 
z
" transform="scale(0.015625)"/>
       </defs>
       <use xlink:href="#DejaVuSans-34"/>
      </g>
     </g>
    </g>
    <g id="xtick_4">
     <g id="line2d_4">
      <g>
       <use xlink:href="#m888c3f8dd4" x="188.418433" y="192.24" style="stroke: #000000; stroke-width: 0.8"/>
      </g>
     </g>
     <g id="text_4">
      <!-- 6 -->
      <g transform="translate(184.521402 208.548086)scale(0.1225 -0.1225)">
       <defs>
        <path id="DejaVuSans-36" d="M 2113 2584 
Q 1688 2584 1439 2293 
Q 1191 2003 1191 1497 
Q 1191 994 1439 701 
Q 1688 409 2113 409 
Q 2538 409 2786 701 
Q 3034 994 3034 1497 
Q 3034 2003 2786 2293 
Q 2538 2584 2113 2584 
z
M 3366 4563 
L 3366 3988 
Q 3128 4100 2886 4159 
Q 2644 4219 2406 4219 
Q 1781 4219 1451 3797 
Q 1122 3375 1075 2522 
Q 1259 2794 1537 2939 
Q 1816 3084 2150 3084 
Q 2853 3084 3261 2657 
Q 3669 2231 3669 1497 
Q 3669 778 3244 343 
Q 2819 -91 2113 -91 
Q 1303 -91 875 529 
Q 447 1150 447 2328 
Q 447 3434 972 4092 
Q 1497 4750 2381 4750 
Q 2619 4750 2861 4703 
Q 3103 4656 3366 4563 
z
" transform="scale(0.015625)"/>
       </defs>
       <use xlink:href="#DejaVuSans-36"/>
      </g>
     </g>
    </g>
    <g id="xtick_5">
     <g id="line2d_5">
      <g>
       <use xlink:href="#m888c3f8dd4" x="234.302398" y="192.24" style="stroke: #000000; stroke-width: 0.8"/>
      </g>
     </g>
     <g id="text_5">
      <!-- 8 -->
      <g transform="translate(230.405367 208.548086)scale(0.1225 -0.1225)">
       <defs>
        <path id="DejaVuSans-38" d="M 2034 2216 
Q 1584 2216 1326 1975 
Q 1069 1734 1069 1313 
Q 1069 891 1326 650 
Q 1584 409 2034 409 
Q 2484 409 2743 651 
Q 3003 894 3003 1313 
Q 3003 1734 2745 1975 
Q 2488 2216 2034 2216 
z
M 1403 2484 
Q 997 2584 770 2862 
Q 544 3141 544 3541 
Q 544 4100 942 4425 
Q 1341 4750 2034 4750 
Q 2731 4750 3128 4425 
Q 3525 4100 3525 3541 
Q 3525 3141 3298 2862 
Q 3072 2584 2669 2484 
Q 3125 2378 3379 2068 
Q 3634 1759 3634 1313 
Q 3634 634 3220 271 
Q 2806 -91 2034 -91 
Q 1263 -91 848 271 
Q 434 634 434 1313 
Q 434 1759 690 2068 
Q 947 2378 1403 2484 
z
M 1172 3481 
Q 1172 3119 1398 2916 
Q 1625 2713 2034 2713 
Q 2441 2713 2670 2916 
Q 2900 3119 2900 3481 
Q 2900 3844 2670 4047 
Q 2441 4250 2034 4250 
Q 1625 4250 1398 4047 
Q 1172 3844 1172 3481 
z
" transform="scale(0.015625)"/>
       </defs>
       <use xlink:href="#DejaVuSans-38"/>
      </g>
     </g>
    </g>
    <g id="xtick_6">
     <g id="line2d_6">
      <g>
       <use xlink:href="#m888c3f8dd4" x="280.186364" y="192.24" style="stroke: #000000; stroke-width: 0.8"/>
      </g>
     </g>
     <g id="text_6">
      <!-- 10 -->
      <g transform="translate(272.392301 208.548086)scale(0.1225 -0.1225)">
       <defs>
        <path id="DejaVuSans-31" d="M 794 531 
L 1825 531 
L 1825 4091 
L 703 3866 
L 703 4441 
L 1819 4666 
L 2450 4666 
L 2450 531 
L 3481 531 
L 3481 0 
L 794 0 
L 794 531 
z
" transform="scale(0.015625)"/>
       </defs>
       <use xlink:href="#DejaVuSans-31"/>
       <use xlink:href="#DejaVuSans-30" x="63.623047"/>
      </g>
     </g>
    </g>
   </g>
   <g id="matplotlib.axis_2">
    <g id="ytick_1">
     <g id="line2d_7">
      <defs>
       <path id="mb64ffca173" d="M 0 0 
L -3.5 0 
" style="stroke: #000000; stroke-width: 0.8"/>
      </defs>
      <g>
       <use xlink:href="#mb64ffca173" x="40.5" y="183.319633" style="stroke: #000000; stroke-width: 0.8"/>
      </g>
     </g>
     <g id="text_7">
      <!-- 0.0 -->
      <g transform="translate(14.018672 187.973676)scale(0.1225 -0.1225)">
       <defs>
        <path id="DejaVuSans-2e" d="M 684 794 
L 1344 794 
L 1344 0 
L 684 0 
L 684 794 
z
" transform="scale(0.015625)"/>
       </defs>
       <use xlink:href="#DejaVuSans-30"/>
       <use xlink:href="#DejaVuSans-2e" x="63.623047"/>
       <use xlink:href="#DejaVuSans-30" x="95.410156"/>
      </g>
     </g>
    </g>
    <g id="ytick_2">
     <g id="line2d_8">
      <g>
       <use xlink:href="#mb64ffca173" x="40.5" y="157.179171" style="stroke: #000000; stroke-width: 0.8"/>
      </g>
     </g>
     <g id="text_8">
      <!-- 0.2 -->
      <g transform="translate(14.018672 161.833214)scale(0.1225 -0.1225)">
       <use xlink:href="#DejaVuSans-30"/>
       <use xlink:href="#DejaVuSans-2e" x="63.623047"/>
       <use xlink:href="#DejaVuSans-32" x="95.410156"/>
      </g>
     </g>
    </g>
    <g id="ytick_3">
     <g id="line2d_9">
      <g>
       <use xlink:href="#mb64ffca173" x="40.5" y="131.038709" style="stroke: #000000; stroke-width: 0.8"/>
      </g>
     </g>
     <g id="text_9">
      <!-- 0.4 -->
      <g transform="translate(14.018672 135.692752)scale(0.1225 -0.1225)">
       <use xlink:href="#DejaVuSans-30"/>
       <use xlink:href="#DejaVuSans-2e" x="63.623047"/>
       <use xlink:href="#DejaVuSans-34" x="95.410156"/>
      </g>
     </g>
    </g>
    <g id="ytick_4">
     <g id="line2d_10">
      <g>
       <use xlink:href="#mb64ffca173" x="40.5" y="104.898248" style="stroke: #000000; stroke-width: 0.8"/>
      </g>
     </g>
     <g id="text_10">
      <!-- 0.6 -->
      <g transform="translate(14.018672 109.55229)scale(0.1225 -0.1225)">
       <use xlink:href="#DejaVuSans-30"/>
       <use xlink:href="#DejaVuSans-2e" x="63.623047"/>
       <use xlink:href="#DejaVuSans-36" x="95.410156"/>
      </g>
     </g>
    </g>
    <g id="ytick_5">
     <g id="line2d_11">
      <g>
       <use xlink:href="#mb64ffca173" x="40.5" y="78.757786" style="stroke: #000000; stroke-width: 0.8"/>
      </g>
     </g>
     <g id="text_11">
      <!-- 0.8 -->
      <g transform="translate(14.018672 83.411829)scale(0.1225 -0.1225)">
       <use xlink:href="#DejaVuSans-30"/>
       <use xlink:href="#DejaVuSans-2e" x="63.623047"/>
       <use xlink:href="#DejaVuSans-38" x="95.410156"/>
      </g>
     </g>
    </g>
    <g id="ytick_6">
     <g id="line2d_12">
      <g>
       <use xlink:href="#mb64ffca173" x="40.5" y="52.617324" style="stroke: #000000; stroke-width: 0.8"/>
      </g>
     </g>
     <g id="text_12">
      <!-- 1.0 -->
      <g transform="translate(14.018672 57.271367)scale(0.1225 -0.1225)">
       <use xlink:href="#DejaVuSans-31"/>
       <use xlink:href="#DejaVuSans-2e" x="63.623047"/>
       <use xlink:href="#DejaVuSans-30" x="95.410156"/>
      </g>
     </g>
    </g>
    <g id="ytick_7">
     <g id="line2d_13">
      <g>
       <use xlink:href="#mb64ffca173" x="40.5" y="26.476862" style="stroke: #000000; stroke-width: 0.8"/>
      </g>
     </g>
     <g id="text_13">
      <!-- 1.2 -->
      <g transform="translate(14.018672 31.130905)scale(0.1225 -0.1225)">
       <use xlink:href="#DejaVuSans-31"/>
       <use xlink:href="#DejaVuSans-2e" x="63.623047"/>
       <use xlink:href="#DejaVuSans-32" x="95.410156"/>
      </g>
     </g>
    </g>
   </g>
   <g id="line2d_14">
    <defs>
     <path id="m586f69d91e" d="M -2.5 2.5 
L 2.5 -2.5 
M -2.5 -2.5 
L 2.5 2.5 
" style="stroke: #1f77b4; stroke-width: 1.2"/>
    </defs>
    <g clip-path="url(#pf700c97f10)">
     <use xlink:href="#m586f69d91e" x="51.913636" y="52.617324" style="fill-opacity: 0; stroke: #1f77b4; stroke-width: 1.2"/>
     <use xlink:href="#m586f69d91e" x="53.060735" y="61.326419" style="fill-opacity: 0; stroke: #1f77b4; stroke-width: 1.2"/>
     <use xlink:href="#m586f69d91e" x="54.207835" y="69.345603" style="fill-opacity: 0; stroke: #1f77b4; stroke-width: 1.2"/>
     <use xlink:href="#m586f69d91e" x="55.354934" y="75.740402" style="fill-opacity: 0; stroke: #1f77b4; stroke-width: 1.2"/>
     <use xlink:href="#m586f69d91e" x="56.502033" y="83.70937" style="fill-opacity: 0; stroke: #1f77b4; stroke-width: 1.2"/>
     <use xlink:href="#m586f69d91e" x="57.649132" y="90.557481" style="fill-opacity: 0; stroke: #1f77b4; stroke-width: 1.2"/>
     <use xlink:href="#m586f69d91e" x="58.796231" y="93.149421" style="fill-opacity: 0; stroke: #1f77b4; stroke-width: 1.2"/>
     <use xlink:href="#m586f69d91e" x="59.94333" y="97.152715" style="fill-opacity: 0; stroke: #1f77b4; stroke-width: 1.2"/>
     <use xlink:href="#m586f69d91e" x="61.090429" y="102.443623" style="fill-opacity: 0; stroke: #1f77b4; stroke-width: 1.2"/>
     <use xlink:href="#m586f69d91e" x="62.237529" y="108.768582" style="fill-opacity: 0; stroke: #1f77b4; stroke-width: 1.2"/>
     <use xlink:href="#m586f69d91e" x="63.384628" y="112.362009" style="fill-opacity: 0; stroke: #1f77b4; stroke-width: 1.2"/>
     <use xlink:href="#m586f69d91e" x="64.531727" y="116.02716" style="fill-opacity: 0; stroke: #1f77b4; stroke-width: 1.2"/>
     <use xlink:href="#m586f69d91e" x="65.678826" y="117.496443" style="fill-opacity: 0; stroke: #1f77b4; stroke-width: 1.2"/>
     <use xlink:href="#m586f69d91e" x="66.825925" y="121.135115" style="fill-opacity: 0; stroke: #1f77b4; stroke-width: 1.2"/>
     <use xlink:href="#m586f69d91e" x="67.973024" y="123.393883" style="fill-opacity: 0; stroke: #1f77b4; stroke-width: 1.2"/>
     <use xlink:href="#m586f69d91e" x="69.120123" y="126.602807" style="fill-opacity: 0; stroke: #1f77b4; stroke-width: 1.2"/>
     <use xlink:href="#m586f69d91e" x="70.267222" y="128.512035" style="fill-opacity: 0; stroke: #1f77b4; stroke-width: 1.2"/>
     <use xlink:href="#m586f69d91e" x="71.414322" y="130.983148" style="fill-opacity: 0; stroke: #1f77b4; stroke-width: 1.2"/>
     <use xlink:href="#m586f69d91e" x="72.561421" y="132.87618" style="fill-opacity: 0; stroke: #1f77b4; stroke-width: 1.2"/>
     <use xlink:href="#m586f69d91e" x="73.70852" y="134.580517" style="fill-opacity: 0; stroke: #1f77b4; stroke-width: 1.2"/>
     <use xlink:href="#m586f69d91e" x="74.855619" y="137.253607" style="fill-opacity: 0; stroke: #1f77b4; stroke-width: 1.2"/>
     <use xlink:href="#m586f69d91e" x="76.002718" y="139.832178" style="fill-opacity: 0; stroke: #1f77b4; stroke-width: 1.2"/>
     <use xlink:href="#m586f69d91e" x="77.149817" y="139.9686" style="fill-opacity: 0; stroke: #1f77b4; stroke-width: 1.2"/>
     <use xlink:href="#m586f69d91e" x="78.296916" y="141.016448" style="fill-opacity: 0; stroke: #1f77b4; stroke-width: 1.2"/>
     <use xlink:href="#m586f69d91e" x="79.444016" y="141.950238" style="fill-opacity: 0; stroke: #1f77b4; stroke-width: 1.2"/>
     <use xlink:href="#m586f69d91e" x="80.591115" y="144.139508" style="fill-opacity: 0; stroke: #1f77b4; stroke-width: 1.2"/>
     <use xlink:href="#m586f69d91e" x="81.738214" y="145.231659" style="fill-opacity: 0; stroke: #1f77b4; stroke-width: 1.2"/>
     <use xlink:href="#m586f69d91e" x="82.885313" y="148.850964" style="fill-opacity: 0; stroke: #1f77b4; stroke-width: 1.2"/>
     <use xlink:href="#m586f69d91e" x="84.032412" y="152.662307" style="fill-opacity: 0; stroke: #1f77b4; stroke-width: 1.2"/>
     <use xlink:href="#m586f69d91e" x="85.179511" y="152.298457" style="fill-opacity: 0; stroke: #1f77b4; stroke-width: 1.2"/>
     <use xlink:href="#m586f69d91e" x="86.32661" y="153.410316" style="fill-opacity: 0; stroke: #1f77b4; stroke-width: 1.2"/>
     <use xlink:href="#m586f69d91e" x="87.473709" y="151.295856" style="fill-opacity: 0; stroke: #1f77b4; stroke-width: 1.2"/>
     <use xlink:href="#m586f69d91e" x="88.620809" y="153.330622" style="fill-opacity: 0; stroke: #1f77b4; stroke-width: 1.2"/>
     <use xlink:href="#m586f69d91e" x="89.767908" y="156.059926" style="fill-opacity: 0; stroke: #1f77b4; stroke-width: 1.2"/>
     <use xlink:href="#m586f69d91e" x="90.915007" y="158.020398" style="fill-opacity: 0; stroke: #1f77b4; stroke-width: 1.2"/>
     <use xlink:href="#m586f69d91e" x="92.062106" y="155.894883" style="fill-opacity: 0; stroke: #1f77b4; stroke-width: 1.2"/>
     <use xlink:href="#m586f69d91e" x="93.209205" y="156.393185" style="fill-opacity: 0; stroke: #1f77b4; stroke-width: 1.2"/>
     <use xlink:href="#m586f69d91e" x="94.356304" y="159.875639" style="fill-opacity: 0; stroke: #1f77b4; stroke-width: 1.2"/>
     <use xlink:href="#m586f69d91e" x="95.503403" y="161.300447" style="fill-opacity: 0; stroke: #1f77b4; stroke-width: 1.2"/>
     <use xlink:href="#m586f69d91e" x="96.650503" y="158.443805" style="fill-opacity: 0; stroke: #1f77b4; stroke-width: 1.2"/>
     <use xlink:href="#m586f69d91e" x="97.797602" y="162.756448" style="fill-opacity: 0; stroke: #1f77b4; stroke-width: 1.2"/>
     <use xlink:href="#m586f69d91e" x="98.944701" y="163.232812" style="fill-opacity: 0; stroke: #1f77b4; stroke-width: 1.2"/>
     <use xlink:href="#m586f69d91e" x="100.0918" y="161.148772" style="fill-opacity: 0; stroke: #1f77b4; stroke-width: 1.2"/>
     <use xlink:href="#m586f69d91e" x="101.238899" y="163.667701" style="fill-opacity: 0; stroke: #1f77b4; stroke-width: 1.2"/>
     <use xlink:href="#m586f69d91e" x="102.385998" y="163.562557" style="fill-opacity: 0; stroke: #1f77b4; stroke-width: 1.2"/>
     <use xlink:href="#m586f69d91e" x="103.533097" y="164.181256" style="fill-opacity: 0; stroke: #1f77b4; stroke-width: 1.2"/>
     <use xlink:href="#m586f69d91e" x="104.680196" y="166.419456" style="fill-opacity: 0; stroke: #1f77b4; stroke-width: 1.2"/>
     <use xlink:href="#m586f69d91e" x="105.827296" y="164.837746" style="fill-opacity: 0; stroke: #1f77b4; stroke-width: 1.2"/>
     <use xlink:href="#m586f69d91e" x="106.974395" y="167.635861" style="fill-opacity: 0; stroke: #1f77b4; stroke-width: 1.2"/>
     <use xlink:href="#m586f69d91e" x="108.121494" y="165.206138" style="fill-opacity: 0; stroke: #1f77b4; stroke-width: 1.2"/>
     <use xlink:href="#m586f69d91e" x="109.268593" y="167.563365" style="fill-opacity: 0; stroke: #1f77b4; stroke-width: 1.2"/>
     <use xlink:href="#m586f69d91e" x="110.415692" y="167.132761" style="fill-opacity: 0; stroke: #1f77b4; stroke-width: 1.2"/>
     <use xlink:href="#m586f69d91e" x="111.562791" y="168.319344" style="fill-opacity: 0; stroke: #1f77b4; stroke-width: 1.2"/>
     <use xlink:href="#m586f69d91e" x="112.70989" y="169.048415" style="fill-opacity: 0; stroke: #1f77b4; stroke-width: 1.2"/>
     <use xlink:href="#m586f69d91e" x="113.856989" y="169.939873" style="fill-opacity: 0; stroke: #1f77b4; stroke-width: 1.2"/>
     <use xlink:href="#m586f69d91e" x="115.004089" y="170.380589" style="fill-opacity: 0; stroke: #1f77b4; stroke-width: 1.2"/>
     <use xlink:href="#m586f69d91e" x="116.151188" y="170.255821" style="fill-opacity: 0; stroke: #1f77b4; stroke-width: 1.2"/>
     <use xlink:href="#m586f69d91e" x="117.298287" y="168.925618" style="fill-opacity: 0; stroke: #1f77b4; stroke-width: 1.2"/>
     <use xlink:href="#m586f69d91e" x="118.445386" y="170.457627" style="fill-opacity: 0; stroke: #1f77b4; stroke-width: 1.2"/>
     <use xlink:href="#m586f69d91e" x="119.592485" y="171.427665" style="fill-opacity: 0; stroke: #1f77b4; stroke-width: 1.2"/>
     <use xlink:href="#m586f69d91e" x="120.739584" y="171.960415" style="fill-opacity: 0; stroke: #1f77b4; stroke-width: 1.2"/>
     <use xlink:href="#m586f69d91e" x="121.886683" y="172.186729" style="fill-opacity: 0; stroke: #1f77b4; stroke-width: 1.2"/>
     <use xlink:href="#m586f69d91e" x="123.033783" y="171.663834" style="fill-opacity: 0; stroke: #1f77b4; stroke-width: 1.2"/>
     <use xlink:href="#m586f69d91e" x="124.180882" y="172.635929" style="fill-opacity: 0; stroke: #1f77b4; stroke-width: 1.2"/>
     <use xlink:href="#m586f69d91e" x="125.327981" y="171.801884" style="fill-opacity: 0; stroke: #1f77b4; stroke-width: 1.2"/>
     <use xlink:href="#m586f69d91e" x="126.47508" y="172.658809" style="fill-opacity: 0; stroke: #1f77b4; stroke-width: 1.2"/>
     <use xlink:href="#m586f69d91e" x="127.622179" y="172.282019" style="fill-opacity: 0; stroke: #1f77b4; stroke-width: 1.2"/>
     <use xlink:href="#m586f69d91e" x="128.769278" y="173.026943" style="fill-opacity: 0; stroke: #1f77b4; stroke-width: 1.2"/>
     <use xlink:href="#m586f69d91e" x="129.916377" y="174.412161" style="fill-opacity: 0; stroke: #1f77b4; stroke-width: 1.2"/>
     <use xlink:href="#m586f69d91e" x="131.063476" y="171.771635" style="fill-opacity: 0; stroke: #1f77b4; stroke-width: 1.2"/>
     <use xlink:href="#m586f69d91e" x="132.210576" y="173.622763" style="fill-opacity: 0; stroke: #1f77b4; stroke-width: 1.2"/>
     <use xlink:href="#m586f69d91e" x="133.357675" y="175.171739" style="fill-opacity: 0; stroke: #1f77b4; stroke-width: 1.2"/>
     <use xlink:href="#m586f69d91e" x="134.504774" y="174.274025" style="fill-opacity: 0; stroke: #1f77b4; stroke-width: 1.2"/>
     <use xlink:href="#m586f69d91e" x="135.651873" y="175.283653" style="fill-opacity: 0; stroke: #1f77b4; stroke-width: 1.2"/>
     <use xlink:href="#m586f69d91e" x="136.798972" y="175.232495" style="fill-opacity: 0; stroke: #1f77b4; stroke-width: 1.2"/>
     <use xlink:href="#m586f69d91e" x="137.946071" y="175.291794" style="fill-opacity: 0; stroke: #1f77b4; stroke-width: 1.2"/>
     <use xlink:href="#m586f69d91e" x="139.09317" y="176.087963" style="fill-opacity: 0; stroke: #1f77b4; stroke-width: 1.2"/>
     <use xlink:href="#m586f69d91e" x="140.24027" y="175.294365" style="fill-opacity: 0; stroke: #1f77b4; stroke-width: 1.2"/>
     <use xlink:href="#m586f69d91e" x="141.387369" y="175.37783" style="fill-opacity: 0; stroke: #1f77b4; stroke-width: 1.2"/>
     <use xlink:href="#m586f69d91e" x="142.534468" y="175.069851" style="fill-opacity: 0; stroke: #1f77b4; stroke-width: 1.2"/>
     <use xlink:href="#m586f69d91e" x="143.681567" y="176.793982" style="fill-opacity: 0; stroke: #1f77b4; stroke-width: 1.2"/>
     <use xlink:href="#m586f69d91e" x="144.828666" y="176.637765" style="fill-opacity: 0; stroke: #1f77b4; stroke-width: 1.2"/>
     <use xlink:href="#m586f69d91e" x="145.975765" y="176.636737" style="fill-opacity: 0; stroke: #1f77b4; stroke-width: 1.2"/>
     <use xlink:href="#m586f69d91e" x="147.122864" y="176.152146" style="fill-opacity: 0; stroke: #1f77b4; stroke-width: 1.2"/>
     <use xlink:href="#m586f69d91e" x="148.269963" y="176.364235" style="fill-opacity: 0; stroke: #1f77b4; stroke-width: 1.2"/>
     <use xlink:href="#m586f69d91e" x="149.417063" y="177.474381" style="fill-opacity: 0; stroke: #1f77b4; stroke-width: 1.2"/>
     <use xlink:href="#m586f69d91e" x="150.564162" y="177.069655" style="fill-opacity: 0; stroke: #1f77b4; stroke-width: 1.2"/>
     <use xlink:href="#m586f69d91e" x="151.711261" y="177.03932" style="fill-opacity: 0; stroke: #1f77b4; stroke-width: 1.2"/>
     <use xlink:href="#m586f69d91e" x="152.85836" y="178.058289" style="fill-opacity: 0; stroke: #1f77b4; stroke-width: 1.2"/>
     <use xlink:href="#m586f69d91e" x="154.005459" y="178.370038" style="fill-opacity: 0; stroke: #1f77b4; stroke-width: 1.2"/>
     <use xlink:href="#m586f69d91e" x="155.152558" y="178.16669" style="fill-opacity: 0; stroke: #1f77b4; stroke-width: 1.2"/>
     <use xlink:href="#m586f69d91e" x="156.299657" y="178.45633" style="fill-opacity: 0; stroke: #1f77b4; stroke-width: 1.2"/>
     <use xlink:href="#m586f69d91e" x="157.446757" y="178.27629" style="fill-opacity: 0; stroke: #1f77b4; stroke-width: 1.2"/>
     <use xlink:href="#m586f69d91e" x="158.593856" y="177.680985" style="fill-opacity: 0; stroke: #1f77b4; stroke-width: 1.2"/>
     <use xlink:href="#m586f69d91e" x="159.740955" y="177.188768" style="fill-opacity: 0; stroke: #1f77b4; stroke-width: 1.2"/>
     <use xlink:href="#m586f69d91e" x="160.888054" y="176.686096" style="fill-opacity: 0; stroke: #1f77b4; stroke-width: 1.2"/>
     <use xlink:href="#m586f69d91e" x="162.035153" y="178.946234" style="fill-opacity: 0; stroke: #1f77b4; stroke-width: 1.2"/>
     <use xlink:href="#m586f69d91e" x="163.182252" y="179.250442" style="fill-opacity: 0; stroke: #1f77b4; stroke-width: 1.2"/>
     <use xlink:href="#m586f69d91e" x="164.329351" y="178.555819" style="fill-opacity: 0; stroke: #1f77b4; stroke-width: 1.2"/>
     <use xlink:href="#m586f69d91e" x="165.47645" y="179.326622" style="fill-opacity: 0; stroke: #1f77b4; stroke-width: 1.2"/>
     <use xlink:href="#m586f69d91e" x="166.62355" y="179.727663" style="fill-opacity: 0; stroke: #1f77b4; stroke-width: 1.2"/>
     <use xlink:href="#m586f69d91e" x="167.770649" y="179.95869" style="fill-opacity: 0; stroke: #1f77b4; stroke-width: 1.2"/>
     <use xlink:href="#m586f69d91e" x="168.917748" y="178.52497" style="fill-opacity: 0; stroke: #1f77b4; stroke-width: 1.2"/>
     <use xlink:href="#m586f69d91e" x="170.064847" y="179.608036" style="fill-opacity: 0; stroke: #1f77b4; stroke-width: 1.2"/>
     <use xlink:href="#m586f69d91e" x="171.211946" y="179.376067" style="fill-opacity: 0; stroke: #1f77b4; stroke-width: 1.2"/>
     <use xlink:href="#m586f69d91e" x="172.359045" y="177.908156" style="fill-opacity: 0; stroke: #1f77b4; stroke-width: 1.2"/>
     <use xlink:href="#m586f69d91e" x="173.506144" y="179.225334" style="fill-opacity: 0; stroke: #1f77b4; stroke-width: 1.2"/>
     <use xlink:href="#m586f69d91e" x="174.653243" y="178.66482" style="fill-opacity: 0; stroke: #1f77b4; stroke-width: 1.2"/>
     <use xlink:href="#m586f69d91e" x="175.800343" y="179.197056" style="fill-opacity: 0; stroke: #1f77b4; stroke-width: 1.2"/>
     <use xlink:href="#m586f69d91e" x="176.947442" y="180.044896" style="fill-opacity: 0; stroke: #1f77b4; stroke-width: 1.2"/>
     <use xlink:href="#m586f69d91e" x="178.094541" y="179.155409" style="fill-opacity: 0; stroke: #1f77b4; stroke-width: 1.2"/>
     <use xlink:href="#m586f69d91e" x="179.24164" y="180.747746" style="fill-opacity: 0; stroke: #1f77b4; stroke-width: 1.2"/>
     <use xlink:href="#m586f69d91e" x="180.388739" y="179.297744" style="fill-opacity: 0; stroke: #1f77b4; stroke-width: 1.2"/>
     <use xlink:href="#m586f69d91e" x="181.535838" y="180.641402" style="fill-opacity: 0; stroke: #1f77b4; stroke-width: 1.2"/>
     <use xlink:href="#m586f69d91e" x="182.682937" y="180.06572" style="fill-opacity: 0; stroke: #1f77b4; stroke-width: 1.2"/>
     <use xlink:href="#m586f69d91e" x="183.830037" y="181.06635" style="fill-opacity: 0; stroke: #1f77b4; stroke-width: 1.2"/>
     <use xlink:href="#m586f69d91e" x="184.977136" y="179.665108" style="fill-opacity: 0; stroke: #1f77b4; stroke-width: 1.2"/>
     <use xlink:href="#m586f69d91e" x="186.124235" y="180.871743" style="fill-opacity: 0; stroke: #1f77b4; stroke-width: 1.2"/>
     <use xlink:href="#m586f69d91e" x="187.271334" y="182.081377" style="fill-opacity: 0; stroke: #1f77b4; stroke-width: 1.2"/>
     <use xlink:href="#m586f69d91e" x="188.418433" y="179.986797" style="fill-opacity: 0; stroke: #1f77b4; stroke-width: 1.2"/>
     <use xlink:href="#m586f69d91e" x="189.565532" y="180.925815" style="fill-opacity: 0; stroke: #1f77b4; stroke-width: 1.2"/>
     <use xlink:href="#m586f69d91e" x="190.712631" y="181.225824" style="fill-opacity: 0; stroke: #1f77b4; stroke-width: 1.2"/>
     <use xlink:href="#m586f69d91e" x="191.85973" y="178.69267" style="fill-opacity: 0; stroke: #1f77b4; stroke-width: 1.2"/>
     <use xlink:href="#m586f69d91e" x="193.00683" y="181.385812" style="fill-opacity: 0; stroke: #1f77b4; stroke-width: 1.2"/>
     <use xlink:href="#m586f69d91e" x="194.153929" y="180.293747" style="fill-opacity: 0; stroke: #1f77b4; stroke-width: 1.2"/>
     <use xlink:href="#m586f69d91e" x="195.301028" y="180.495553" style="fill-opacity: 0; stroke: #1f77b4; stroke-width: 1.2"/>
     <use xlink:href="#m586f69d91e" x="196.448127" y="180.932413" style="fill-opacity: 0; stroke: #1f77b4; stroke-width: 1.2"/>
     <use xlink:href="#m586f69d91e" x="197.595226" y="181.077661" style="fill-opacity: 0; stroke: #1f77b4; stroke-width: 1.2"/>
     <use xlink:href="#m586f69d91e" x="198.742325" y="180.883397" style="fill-opacity: 0; stroke: #1f77b4; stroke-width: 1.2"/>
     <use xlink:href="#m586f69d91e" x="199.889424" y="180.640802" style="fill-opacity: 0; stroke: #1f77b4; stroke-width: 1.2"/>
     <use xlink:href="#m586f69d91e" x="201.036524" y="179.451134" style="fill-opacity: 0; stroke: #1f77b4; stroke-width: 1.2"/>
     <use xlink:href="#m586f69d91e" x="202.183623" y="181.003366" style="fill-opacity: 0; stroke: #1f77b4; stroke-width: 1.2"/>
     <use xlink:href="#m586f69d91e" x="203.330722" y="182.572566" style="fill-opacity: 0; stroke: #1f77b4; stroke-width: 1.2"/>
     <use xlink:href="#m586f69d91e" x="204.477821" y="181.621123" style="fill-opacity: 0; stroke: #1f77b4; stroke-width: 1.2"/>
     <use xlink:href="#m586f69d91e" x="205.62492" y="182.014708" style="fill-opacity: 0; stroke: #1f77b4; stroke-width: 1.2"/>
     <use xlink:href="#m586f69d91e" x="206.772019" y="181.298405" style="fill-opacity: 0; stroke: #1f77b4; stroke-width: 1.2"/>
     <use xlink:href="#m586f69d91e" x="207.919118" y="181.820872" style="fill-opacity: 0; stroke: #1f77b4; stroke-width: 1.2"/>
     <use xlink:href="#m586f69d91e" x="209.066217" y="181.177493" style="fill-opacity: 0; stroke: #1f77b4; stroke-width: 1.2"/>
     <use xlink:href="#m586f69d91e" x="210.213317" y="182.145561" style="fill-opacity: 0; stroke: #1f77b4; stroke-width: 1.2"/>
     <use xlink:href="#m586f69d91e" x="211.360416" y="181.456936" style="fill-opacity: 0; stroke: #1f77b4; stroke-width: 1.2"/>
     <use xlink:href="#m586f69d91e" x="212.507515" y="181.784024" style="fill-opacity: 0; stroke: #1f77b4; stroke-width: 1.2"/>
     <use xlink:href="#m586f69d91e" x="213.654614" y="180.893337" style="fill-opacity: 0; stroke: #1f77b4; stroke-width: 1.2"/>
     <use xlink:href="#m586f69d91e" x="214.801713" y="181.572621" style="fill-opacity: 0; stroke: #1f77b4; stroke-width: 1.2"/>
     <use xlink:href="#m586f69d91e" x="215.948812" y="180.631033" style="fill-opacity: 0; stroke: #1f77b4; stroke-width: 1.2"/>
     <use xlink:href="#m586f69d91e" x="217.095911" y="181.69996" style="fill-opacity: 0; stroke: #1f77b4; stroke-width: 1.2"/>
     <use xlink:href="#m586f69d91e" x="218.243011" y="181.977946" style="fill-opacity: 0; stroke: #1f77b4; stroke-width: 1.2"/>
     <use xlink:href="#m586f69d91e" x="219.39011" y="182.68388" style="fill-opacity: 0; stroke: #1f77b4; stroke-width: 1.2"/>
     <use xlink:href="#m586f69d91e" x="220.537209" y="182.652088" style="fill-opacity: 0; stroke: #1f77b4; stroke-width: 1.2"/>
     <use xlink:href="#m586f69d91e" x="221.684308" y="182.886029" style="fill-opacity: 0; stroke: #1f77b4; stroke-width: 1.2"/>
     <use xlink:href="#m586f69d91e" x="222.831407" y="182.640263" style="fill-opacity: 0; stroke: #1f77b4; stroke-width: 1.2"/>
     <use xlink:href="#m586f69d91e" x="223.978506" y="180.243275" style="fill-opacity: 0; stroke: #1f77b4; stroke-width: 1.2"/>
     <use xlink:href="#m586f69d91e" x="225.125605" y="182.700333" style="fill-opacity: 0; stroke: #1f77b4; stroke-width: 1.2"/>
     <use xlink:href="#m586f69d91e" x="226.272704" y="181.539372" style="fill-opacity: 0; stroke: #1f77b4; stroke-width: 1.2"/>
     <use xlink:href="#m586f69d91e" x="227.419804" y="181.370473" style="fill-opacity: 0; stroke: #1f77b4; stroke-width: 1.2"/>
     <use xlink:href="#m586f69d91e" x="228.566903" y="181.893368" style="fill-opacity: 0; stroke: #1f77b4; stroke-width: 1.2"/>
     <use xlink:href="#m586f69d91e" x="229.714002" y="181.598157" style="fill-opacity: 0; stroke: #1f77b4; stroke-width: 1.2"/>
     <use xlink:href="#m586f69d91e" x="230.861101" y="182.106656" style="fill-opacity: 0; stroke: #1f77b4; stroke-width: 1.2"/>
     <use xlink:href="#m586f69d91e" x="232.0082" y="182.506497" style="fill-opacity: 0; stroke: #1f77b4; stroke-width: 1.2"/>
     <use xlink:href="#m586f69d91e" x="233.155299" y="181.703731" style="fill-opacity: 0; stroke: #1f77b4; stroke-width: 1.2"/>
     <use xlink:href="#m586f69d91e" x="234.302398" y="183.268988" style="fill-opacity: 0; stroke: #1f77b4; stroke-width: 1.2"/>
     <use xlink:href="#m586f69d91e" x="235.449497" y="181.224624" style="fill-opacity: 0; stroke: #1f77b4; stroke-width: 1.2"/>
     <use xlink:href="#m586f69d91e" x="236.596597" y="182.083091" style="fill-opacity: 0; stroke: #1f77b4; stroke-width: 1.2"/>
     <use xlink:href="#m586f69d91e" x="237.743696" y="183.219887" style="fill-opacity: 0; stroke: #1f77b4; stroke-width: 1.2"/>
     <use xlink:href="#m586f69d91e" x="238.890795" y="181.442026" style="fill-opacity: 0; stroke: #1f77b4; stroke-width: 1.2"/>
     <use xlink:href="#m586f69d91e" x="240.037894" y="181.410063" style="fill-opacity: 0; stroke: #1f77b4; stroke-width: 1.2"/>
     <use xlink:href="#m586f69d91e" x="241.184993" y="183.550745" style="fill-opacity: 0; stroke: #1f77b4; stroke-width: 1.2"/>
     <use xlink:href="#m586f69d91e" x="242.332092" y="181.358904" style="fill-opacity: 0; stroke: #1f77b4; stroke-width: 1.2"/>
     <use xlink:href="#m586f69d91e" x="243.479191" y="181.137903" style="fill-opacity: 0; stroke: #1f77b4; stroke-width: 1.2"/>
     <use xlink:href="#m586f69d91e" x="244.626291" y="184.68" style="fill-opacity: 0; stroke: #1f77b4; stroke-width: 1.2"/>
     <use xlink:href="#m586f69d91e" x="245.77339" y="180.597613" style="fill-opacity: 0; stroke: #1f77b4; stroke-width: 1.2"/>
     <use xlink:href="#m586f69d91e" x="246.920489" y="184.163103" style="fill-opacity: 0; stroke: #1f77b4; stroke-width: 1.2"/>
     <use xlink:href="#m586f69d91e" x="248.067588" y="181.593958" style="fill-opacity: 0; stroke: #1f77b4; stroke-width: 1.2"/>
     <use xlink:href="#m586f69d91e" x="249.214687" y="182.068523" style="fill-opacity: 0; stroke: #1f77b4; stroke-width: 1.2"/>
     <use xlink:href="#m586f69d91e" x="250.361786" y="181.491385" style="fill-opacity: 0; stroke: #1f77b4; stroke-width: 1.2"/>
     <use xlink:href="#m586f69d91e" x="251.508885" y="182.431345" style="fill-opacity: 0; stroke: #1f77b4; stroke-width: 1.2"/>
     <use xlink:href="#m586f69d91e" x="252.655984" y="183.308321" style="fill-opacity: 0; stroke: #1f77b4; stroke-width: 1.2"/>
     <use xlink:href="#m586f69d91e" x="253.803084" y="182.841383" style="fill-opacity: 0; stroke: #1f77b4; stroke-width: 1.2"/>
     <use xlink:href="#m586f69d91e" x="254.950183" y="182.429717" style="fill-opacity: 0; stroke: #1f77b4; stroke-width: 1.2"/>
     <use xlink:href="#m586f69d91e" x="256.097282" y="182.34908" style="fill-opacity: 0; stroke: #1f77b4; stroke-width: 1.2"/>
     <use xlink:href="#m586f69d91e" x="257.244381" y="182.055327" style="fill-opacity: 0; stroke: #1f77b4; stroke-width: 1.2"/>
     <use xlink:href="#m586f69d91e" x="258.39148" y="183.150647" style="fill-opacity: 0; stroke: #1f77b4; stroke-width: 1.2"/>
     <use xlink:href="#m586f69d91e" x="259.538579" y="182.972578" style="fill-opacity: 0; stroke: #1f77b4; stroke-width: 1.2"/>
     <use xlink:href="#m586f69d91e" x="260.685678" y="182.182494" style="fill-opacity: 0; stroke: #1f77b4; stroke-width: 1.2"/>
     <use xlink:href="#m586f69d91e" x="261.832778" y="182.671798" style="fill-opacity: 0; stroke: #1f77b4; stroke-width: 1.2"/>
     <use xlink:href="#m586f69d91e" x="262.979877" y="182.745493" style="fill-opacity: 0; stroke: #1f77b4; stroke-width: 1.2"/>
     <use xlink:href="#m586f69d91e" x="264.126976" y="182.690393" style="fill-opacity: 0; stroke: #1f77b4; stroke-width: 1.2"/>
     <use xlink:href="#m586f69d91e" x="265.274075" y="183.155103" style="fill-opacity: 0; stroke: #1f77b4; stroke-width: 1.2"/>
     <use xlink:href="#m586f69d91e" x="266.421174" y="182.823559" style="fill-opacity: 0; stroke: #1f77b4; stroke-width: 1.2"/>
     <use xlink:href="#m586f69d91e" x="267.568273" y="182.411293" style="fill-opacity: 0; stroke: #1f77b4; stroke-width: 1.2"/>
     <use xlink:href="#m586f69d91e" x="268.715372" y="182.701105" style="fill-opacity: 0; stroke: #1f77b4; stroke-width: 1.2"/>
     <use xlink:href="#m586f69d91e" x="269.862471" y="182.575565" style="fill-opacity: 0; stroke: #1f77b4; stroke-width: 1.2"/>
     <use xlink:href="#m586f69d91e" x="271.009571" y="183.621013" style="fill-opacity: 0; stroke: #1f77b4; stroke-width: 1.2"/>
     <use xlink:href="#m586f69d91e" x="272.15667" y="182.78037" style="fill-opacity: 0; stroke: #1f77b4; stroke-width: 1.2"/>
     <use xlink:href="#m586f69d91e" x="273.303769" y="183.447571" style="fill-opacity: 0; stroke: #1f77b4; stroke-width: 1.2"/>
     <use xlink:href="#m586f69d91e" x="274.450868" y="181.772541" style="fill-opacity: 0; stroke: #1f77b4; stroke-width: 1.2"/>
     <use xlink:href="#m586f69d91e" x="275.597967" y="182.515923" style="fill-opacity: 0; stroke: #1f77b4; stroke-width: 1.2"/>
     <use xlink:href="#m586f69d91e" x="276.745066" y="182.790825" style="fill-opacity: 0; stroke: #1f77b4; stroke-width: 1.2"/>
     <use xlink:href="#m586f69d91e" x="277.892165" y="182.362791" style="fill-opacity: 0; stroke: #1f77b4; stroke-width: 1.2"/>
     <use xlink:href="#m586f69d91e" x="279.039265" y="182.387556" style="fill-opacity: 0; stroke: #1f77b4; stroke-width: 1.2"/>
     <use xlink:href="#m586f69d91e" x="280.186364" y="182.785083" style="fill-opacity: 0; stroke: #1f77b4; stroke-width: 1.2"/>
    </g>
   </g>
   <g id="line2d_15">
    <path d="M 51.913636 33.48 
L 53.060735 53.669304 
L 54.207835 67.296454 
L 55.354934 77.665631 
L 56.502033 86.030391 
L 57.649132 93.021236 
L 58.796231 99.005736 
L 59.94333 104.219029 
L 61.090429 108.821532 
L 63.384628 116.623552 
L 65.678826 123.027813 
L 67.973024 128.406268 
L 70.267222 133.001524 
L 72.561421 136.980825 
L 74.855619 140.464388 
L 77.149817 143.541501 
L 79.444016 146.280253 
L 81.738214 148.733709 
L 84.032412 150.943982 
L 87.473709 153.875949 
L 90.915007 156.42553 
L 94.356304 158.660679 
L 97.797602 160.633912 
L 101.238899 162.38655 
L 105.827296 164.436385 
L 110.415692 166.213598 
L 115.004089 167.765577 
L 120.739584 169.444591 
L 126.47508 170.885378 
L 133.357675 172.359786 
L 140.24027 173.609405 
L 148.269963 174.839808 
L 157.446757 176.007692 
L 167.770649 177.08428 
L 179.24164 178.05347 
L 193.00683 178.977991 
L 209.066217 179.81359 
L 227.419804 180.537907 
L 249.214687 181.174128 
L 276.745066 181.74353 
L 280.186364 181.801082 
L 280.186364 181.801082 
" clip-path="url(#pf700c97f10)" style="fill: none; stroke-dasharray: 7.4,3.2; stroke-dashoffset: 0; stroke: #ff7f0e; stroke-width: 2"/>
   </g>
   <g id="patch_3">
    <path d="M 40.5 192.24 
L 40.5 25.92 
" style="fill: none; stroke: #000000; stroke-width: 0.8; stroke-linejoin: miter; stroke-linecap: square"/>
   </g>
   <g id="patch_4">
    <path d="M 291.6 192.24 
L 291.6 25.92 
" style="fill: none; stroke: #000000; stroke-width: 0.8; stroke-linejoin: miter; stroke-linecap: square"/>
   </g>
   <g id="patch_5">
    <path d="M 40.5 192.24 
L 291.6 192.24 
" style="fill: none; stroke: #000000; stroke-width: 0.8; stroke-linejoin: miter; stroke-linecap: square"/>
   </g>
   <g id="patch_6">
    <path d="M 40.5 25.92 
L 291.6 25.92 
" style="fill: none; stroke: #000000; stroke-width: 0.8; stroke-linejoin: miter; stroke-linecap: square"/>
   </g>
   <g id="legend_1">
    <g id="patch_7">
     <path d="M 120.794219 86.861562 
L 282.5 86.861562 
Q 285.1 86.861562 285.1 84.261562 
L 285.1 35.02 
Q 285.1 32.42 282.5 32.42 
L 120.794219 32.42 
Q 118.194219 32.42 118.194219 35.02 
L 118.194219 84.261562 
Q 118.194219 86.861562 120.794219 86.861562 
z
" style="fill: #ffffff; opacity: 0.8; stroke: #cccccc; stroke-linejoin: miter"/>
    </g>
    <g id="line2d_16">
     <g>
      <use xlink:href="#m586f69d91e" x="136.394219" y="42.947969" style="fill-opacity: 0; stroke: #1f77b4; stroke-width: 1.2"/>
     </g>
    </g>
    <g id="text_14">
     <!-- Experimental data -->
     <g transform="translate(159.794219 47.497969)scale(0.13 -0.13)">
      <defs>
       <path id="DejaVuSans-45" d="M 628 4666 
L 3578 4666 
L 3578 4134 
L 1259 4134 
L 1259 2753 
L 3481 2753 
L 3481 2222 
L 1259 2222 
L 1259 531 
L 3634 531 
L 3634 0 
L 628 0 
L 628 4666 
z
" transform="scale(0.015625)"/>
       <path id="DejaVuSans-78" d="M 3513 3500 
L 2247 1797 
L 3578 0 
L 2900 0 
L 1881 1375 
L 863 0 
L 184 0 
L 1544 1831 
L 300 3500 
L 978 3500 
L 1906 2253 
L 2834 3500 
L 3513 3500 
z
" transform="scale(0.015625)"/>
       <path id="DejaVuSans-70" d="M 1159 525 
L 1159 -1331 
L 581 -1331 
L 581 3500 
L 1159 3500 
L 1159 2969 
Q 1341 3281 1617 3432 
Q 1894 3584 2278 3584 
Q 2916 3584 3314 3078 
Q 3713 2572 3713 1747 
Q 3713 922 3314 415 
Q 2916 -91 2278 -91 
Q 1894 -91 1617 61 
Q 1341 213 1159 525 
z
M 3116 1747 
Q 3116 2381 2855 2742 
Q 2594 3103 2138 3103 
Q 1681 3103 1420 2742 
Q 1159 2381 1159 1747 
Q 1159 1113 1420 752 
Q 1681 391 2138 391 
Q 2594 391 2855 752 
Q 3116 1113 3116 1747 
z
" transform="scale(0.015625)"/>
       <path id="DejaVuSans-65" d="M 3597 1894 
L 3597 1613 
L 953 1613 
Q 991 1019 1311 708 
Q 1631 397 2203 397 
Q 2534 397 2845 478 
Q 3156 559 3463 722 
L 3463 178 
Q 3153 47 2828 -22 
Q 2503 -91 2169 -91 
Q 1331 -91 842 396 
Q 353 884 353 1716 
Q 353 2575 817 3079 
Q 1281 3584 2069 3584 
Q 2775 3584 3186 3129 
Q 3597 2675 3597 1894 
z
M 3022 2063 
Q 3016 2534 2758 2815 
Q 2500 3097 2075 3097 
Q 1594 3097 1305 2825 
Q 1016 2553 972 2059 
L 3022 2063 
z
" transform="scale(0.015625)"/>
       <path id="DejaVuSans-72" d="M 2631 2963 
Q 2534 3019 2420 3045 
Q 2306 3072 2169 3072 
Q 1681 3072 1420 2755 
Q 1159 2438 1159 1844 
L 1159 0 
L 581 0 
L 581 3500 
L 1159 3500 
L 1159 2956 
Q 1341 3275 1631 3429 
Q 1922 3584 2338 3584 
Q 2397 3584 2469 3576 
Q 2541 3569 2628 3553 
L 2631 2963 
z
" transform="scale(0.015625)"/>
       <path id="DejaVuSans-69" d="M 603 3500 
L 1178 3500 
L 1178 0 
L 603 0 
L 603 3500 
z
M 603 4863 
L 1178 4863 
L 1178 4134 
L 603 4134 
L 603 4863 
z
" transform="scale(0.015625)"/>
       <path id="DejaVuSans-6d" d="M 3328 2828 
Q 3544 3216 3844 3400 
Q 4144 3584 4550 3584 
Q 5097 3584 5394 3201 
Q 5691 2819 5691 2113 
L 5691 0 
L 5113 0 
L 5113 2094 
Q 5113 2597 4934 2840 
Q 4756 3084 4391 3084 
Q 3944 3084 3684 2787 
Q 3425 2491 3425 1978 
L 3425 0 
L 2847 0 
L 2847 2094 
Q 2847 2600 2669 2842 
Q 2491 3084 2119 3084 
Q 1678 3084 1418 2786 
Q 1159 2488 1159 1978 
L 1159 0 
L 581 0 
L 581 3500 
L 1159 3500 
L 1159 2956 
Q 1356 3278 1631 3431 
Q 1906 3584 2284 3584 
Q 2666 3584 2933 3390 
Q 3200 3197 3328 2828 
z
" transform="scale(0.015625)"/>
       <path id="DejaVuSans-6e" d="M 3513 2113 
L 3513 0 
L 2938 0 
L 2938 2094 
Q 2938 2591 2744 2837 
Q 2550 3084 2163 3084 
Q 1697 3084 1428 2787 
Q 1159 2491 1159 1978 
L 1159 0 
L 581 0 
L 581 3500 
L 1159 3500 
L 1159 2956 
Q 1366 3272 1645 3428 
Q 1925 3584 2291 3584 
Q 2894 3584 3203 3211 
Q 3513 2838 3513 2113 
z
" transform="scale(0.015625)"/>
       <path id="DejaVuSans-74" d="M 1172 4494 
L 1172 3500 
L 2356 3500 
L 2356 3053 
L 1172 3053 
L 1172 1153 
Q 1172 725 1289 603 
Q 1406 481 1766 481 
L 2356 481 
L 2356 0 
L 1766 0 
Q 1100 0 847 248 
Q 594 497 594 1153 
L 594 3053 
L 172 3053 
L 172 3500 
L 594 3500 
L 594 4494 
L 1172 4494 
z
" transform="scale(0.015625)"/>
       <path id="DejaVuSans-61" d="M 2194 1759 
Q 1497 1759 1228 1600 
Q 959 1441 959 1056 
Q 959 750 1161 570 
Q 1363 391 1709 391 
Q 2188 391 2477 730 
Q 2766 1069 2766 1631 
L 2766 1759 
L 2194 1759 
z
M 3341 1997 
L 3341 0 
L 2766 0 
L 2766 531 
Q 2569 213 2275 61 
Q 1981 -91 1556 -91 
Q 1019 -91 701 211 
Q 384 513 384 1019 
Q 384 1609 779 1909 
Q 1175 2209 1959 2209 
L 2766 2209 
L 2766 2266 
Q 2766 2663 2505 2880 
Q 2244 3097 1772 3097 
Q 1472 3097 1187 3025 
Q 903 2953 641 2809 
L 641 3341 
Q 956 3463 1253 3523 
Q 1550 3584 1831 3584 
Q 2591 3584 2966 3190 
Q 3341 2797 3341 1997 
z
" transform="scale(0.015625)"/>
       <path id="DejaVuSans-6c" d="M 603 4863 
L 1178 4863 
L 1178 0 
L 603 0 
L 603 4863 
z
" transform="scale(0.015625)"/>
       <path id="DejaVuSans-20" transform="scale(0.015625)"/>
       <path id="DejaVuSans-64" d="M 2906 2969 
L 2906 4863 
L 3481 4863 
L 3481 0 
L 2906 0 
L 2906 525 
Q 2725 213 2448 61 
Q 2172 -91 1784 -91 
Q 1150 -91 751 415 
Q 353 922 353 1747 
Q 353 2572 751 3078 
Q 1150 3584 1784 3584 
Q 2172 3584 2448 3432 
Q 2725 3281 2906 2969 
z
M 947 1747 
Q 947 1113 1208 752 
Q 1469 391 1925 391 
Q 2381 391 2643 752 
Q 2906 1113 2906 1747 
Q 2906 2381 2643 2742 
Q 2381 3103 1925 3103 
Q 1469 3103 1208 2742 
Q 947 2381 947 1747 
z
" transform="scale(0.015625)"/>
      </defs>
      <use xlink:href="#DejaVuSans-45"/>
      <use xlink:href="#DejaVuSans-78" x="63.183594"/>
      <use xlink:href="#DejaVuSans-70" x="122.363281"/>
      <use xlink:href="#DejaVuSans-65" x="185.839844"/>
      <use xlink:href="#DejaVuSans-72" x="247.363281"/>
      <use xlink:href="#DejaVuSans-69" x="288.476562"/>
      <use xlink:href="#DejaVuSans-6d" x="316.259766"/>
      <use xlink:href="#DejaVuSans-65" x="413.671875"/>
      <use xlink:href="#DejaVuSans-6e" x="475.195312"/>
      <use xlink:href="#DejaVuSans-74" x="538.574219"/>
      <use xlink:href="#DejaVuSans-61" x="577.783203"/>
      <use xlink:href="#DejaVuSans-6c" x="639.0625"/>
      <use xlink:href="#DejaVuSans-20" x="666.845703"/>
      <use xlink:href="#DejaVuSans-64" x="698.632812"/>
      <use xlink:href="#DejaVuSans-61" x="762.109375"/>
      <use xlink:href="#DejaVuSans-74" x="823.388672"/>
      <use xlink:href="#DejaVuSans-61" x="862.597656"/>
     </g>
    </g>
    <g id="line2d_17">
     <path d="M 123.394219 67.881562 
L 136.394219 67.881562 
L 149.394219 67.881562 
" style="fill: none; stroke-dasharray: 7.4,3.2; stroke-dashoffset: 0; stroke: #ff7f0e; stroke-width: 2"/>
    </g>
    <g id="text_15">
     <!-- $\exp (-\sqrt{\frac{\tau}{T_1^{\rm dd}}})$ -->
     <g transform="translate(159.794219 72.431562)scale(0.13 -0.13)">
      <defs>
       <path id="DejaVuSans-28" d="M 1984 4856 
Q 1566 4138 1362 3434 
Q 1159 2731 1159 2009 
Q 1159 1288 1364 580 
Q 1569 -128 1984 -844 
L 1484 -844 
Q 1016 -109 783 600 
Q 550 1309 550 2009 
Q 550 2706 781 3412 
Q 1013 4119 1484 4856 
L 1984 4856 
z
" transform="scale(0.015625)"/>
       <path id="DejaVuSans-2212" d="M 678 2272 
L 4684 2272 
L 4684 1741 
L 678 1741 
L 678 2272 
z
" transform="scale(0.015625)"/>
       <path id="STIXSizeOneSym-Regular-221a" d="M 6970 9933 
L 3373 -1888 
L 3104 -1888 
L 1626 2918 
Q 1555 3149 1465 3251 
Q 1376 3354 1229 3354 
Q 1011 3354 794 3181 
L 717 3309 
L 1766 4115 
L 1926 4115 
L 3379 -602 
L 3405 -602 
L 6605 9933 
L 6970 9933 
z
" transform="scale(0.015625)"/>
       <path id="DejaVuSans-Oblique-3c4" d="M 2103 638 
Q 2188 488 2525 488 
L 2800 488 
L 2706 0 
L 2363 0 
Q 1800 0 1600 300 
Q 1403 606 1534 1269 
L 1856 2925 
L 541 2925 
L 653 3500 
L 3881 3500 
L 3769 2925 
L 2444 2925 
L 2113 1234 
Q 2025 781 2103 638 
z
" transform="scale(0.015625)"/>
       <path id="DejaVuSans-Oblique-54" d="M 378 4666 
L 4325 4666 
L 4225 4134 
L 2559 4134 
L 1759 0 
L 1125 0 
L 1925 4134 
L 275 4134 
L 378 4666 
z
" transform="scale(0.015625)"/>
       <path id="DejaVuSans-29" d="M 513 4856 
L 1013 4856 
Q 1481 4119 1714 3412 
Q 1947 2706 1947 2009 
Q 1947 1309 1714 600 
Q 1481 -109 1013 -844 
L 513 -844 
Q 928 -128 1133 580 
Q 1338 1288 1338 2009 
Q 1338 2731 1133 3434 
Q 928 4138 513 4856 
z
" transform="scale(0.015625)"/>
      </defs>
      <use xlink:href="#DejaVuSans-65" transform="translate(0 0.919844)"/>
      <use xlink:href="#DejaVuSans-78" transform="translate(61.523438 0.919844)"/>
      <use xlink:href="#DejaVuSans-70" transform="translate(120.703125 0.919844)"/>
      <use xlink:href="#DejaVuSans-28" transform="translate(184.179688 0.919844)"/>
      <use xlink:href="#DejaVuSans-2212" transform="translate(223.193359 0.919844)"/>
      <use xlink:href="#STIXSizeOneSym-Regular-221a" transform="translate(306.982422 -40.203125)scale(0.995928)"/>
      <use xlink:href="#DejaVuSans-Oblique-3c4" transform="translate(459.786026 44.46875)scale(0.7)"/>
      <use xlink:href="#DejaVuSans-Oblique-54" transform="translate(424.786026 -50.810469)scale(0.7)"/>
      <use xlink:href="#DejaVuSans-64" transform="translate(472.456555 -24.013594)scale(0.49)"/>
      <use xlink:href="#DejaVuSans-64" transform="translate(503.56007 -24.013594)scale(0.49)"/>
      <use xlink:href="#DejaVuSans-31" transform="translate(467.544815 -69.951094)scale(0.49)"/>
      <use xlink:href="#DejaVuSans-29" transform="translate(561.577648 0.919844)"/>
      <path d="M 412.286026 108.5 
L 412.286026 114.75 
L 561.577648 114.75 
L 561.577648 108.5 
L 412.286026 108.5 
z
"/>
      <path d="M 424.786026 19.46875 
L 424.786026 25.71875 
L 536.577648 25.71875 
L 536.577648 19.46875 
L 424.786026 19.46875 
z
"/>
     </g>
    </g>
   </g>
  </g>
 </g>
 <defs>
  <clipPath id="pf700c97f10">
   <rect x="40.5" y="25.92" width="251.1" height="166.32"/>
  </clipPath>
 </defs>
</svg>
