<?xml version="1.0" encoding="utf-8" standalone="no"?>
<!DOCTYPE svg PUBLIC "-//W3C//DTD SVG 1.1//EN"
  "http://www.w3.org/Graphics/SVG/1.1/DTD/svg11.dtd">
<svg xmlns:xlink="http://www.w3.org/1999/xlink" width="324pt" height="216pt" viewBox="0 0 324 216" xmlns="http://www.w3.org/2000/svg" version="1.1">
 <metadata>
  <rdf:RDF xmlns:dc="http://purl.org/dc/elements/1.1/" xmlns:cc="http://creativecommons.org/ns#" xmlns:rdf="http://www.w3.org/1999/02/22-rdf-syntax-ns#">
   <cc:Work>
    <dc:type rdf:resource="http://purl.org/dc/dcmitype/StillImage"/>
    <dc:date>2022-05-16T18:12:13.416113</dc:date>
    <dc:format>image/svg+xml</dc:format>
    <dc:creator>
     <cc:Agent>
      <dc:title>Matplotlib v3.5.1, https://matplotlib.org/</dc:title>
     </cc:Agent>
    </dc:creator>
   </cc:Work>
  </rdf:RDF>
 </metadata>
 <defs>
  <style type="text/css">*{stroke-linejoin: round; stroke-linecap: butt}</style>
 </defs>
 <g id="figure_1">
  <g id="patch_1">
   <path d="M 0 216 
L 324 216 
L 324 0 
L 0 0 
z
" style="fill: #ffffff"/>
  </g>
  <g id="axes_1">
   <g id="patch_2">
    <path d="M 40.5 192.24 
L 291.6 192.24 
L 291.6 25.92 
L 40.5 25.92 
z
" style="fill: #ffffff"/>
   </g>
   <g id="matplotlib.axis_1">
    <g id="xtick_1">
     <g id="line2d_1">
      <defs>
       <path id="m4b02823abe" d="M 0 0 
L 0 3.5 
" style="stroke: #000000; stroke-width: 0.8"/>
      </defs>
      <g>
       <use xlink:href="#m4b02823abe" x="50.772273" y="192.24" style="stroke: #000000; stroke-width: 0.8"/>
      </g>
     </g>
     <g id="text_1">
      <!-- 0 -->
      <g transform="translate(46.875241 208.548086)scale(0.1225 -0.1225)">
       <defs>
        <path id="DejaVuSans-30" d="M 2034 4250 
Q 1547 4250 1301 3770 
Q 1056 3291 1056 2328 
Q 1056 1369 1301 889 
Q 1547 409 2034 409 
Q 2525 409 2770 889 
Q 3016 1369 3016 2328 
Q 3016 3291 2770 3770 
Q 2525 4250 2034 4250 
z
M 2034 4750 
Q 2819 4750 3233 4129 
Q 3647 3509 3647 2328 
Q 3647 1150 3233 529 
Q 2819 -91 2034 -91 
Q 1250 -91 836 529 
Q 422 1150 422 2328 
Q 422 3509 836 4129 
Q 1250 4750 2034 4750 
z
" transform="scale(0.015625)"/>
       </defs>
       <use xlink:href="#DejaVuSans-30"/>
      </g>
     </g>
    </g>
    <g id="xtick_2">
     <g id="line2d_2">
      <g>
       <use xlink:href="#m4b02823abe" x="96.655091" y="192.24" style="stroke: #000000; stroke-width: 0.8"/>
      </g>
     </g>
     <g id="text_2">
      <!-- 2 -->
      <g transform="translate(92.75806 208.548086)scale(0.1225 -0.1225)">
       <defs>
        <path id="DejaVuSans-32" d="M 1228 531 
L 3431 531 
L 3431 0 
L 469 0 
L 469 531 
Q 828 903 1448 1529 
Q 2069 2156 2228 2338 
Q 2531 2678 2651 2914 
Q 2772 3150 2772 3378 
Q 2772 3750 2511 3984 
Q 2250 4219 1831 4219 
Q 1534 4219 1204 4116 
Q 875 4013 500 3803 
L 500 4441 
Q 881 4594 1212 4672 
Q 1544 4750 1819 4750 
Q 2544 4750 2975 4387 
Q 3406 4025 3406 3419 
Q 3406 3131 3298 2873 
Q 3191 2616 2906 2266 
Q 2828 2175 2409 1742 
Q 1991 1309 1228 531 
z
" transform="scale(0.015625)"/>
       </defs>
       <use xlink:href="#DejaVuSans-32"/>
      </g>
     </g>
    </g>
    <g id="xtick_3">
     <g id="line2d_3">
      <g>
       <use xlink:href="#m4b02823abe" x="142.537909" y="192.24" style="stroke: #000000; stroke-width: 0.8"/>
      </g>
     </g>
     <g id="text_3">
      <!-- 4 -->
      <g transform="translate(138.640878 208.548086)scale(0.1225 -0.1225)">
       <defs>
        <path id="DejaVuSans-34" d="M 2419 4116 
L 825 1625 
L 2419 1625 
L 2419 4116 
z
M 2253 4666 
L 3047 4666 
L 3047 1625 
L 3713 1625 
L 3713 1100 
L 3047 1100 
L 3047 0 
L 2419 0 
L 2419 1100 
L 313 1100 
L 313 1709 
L 2253 4666 
z
" transform="scale(0.015625)"/>
       </defs>
       <use xlink:href="#DejaVuSans-34"/>
      </g>
     </g>
    </g>
    <g id="xtick_4">
     <g id="line2d_4">
      <g>
       <use xlink:href="#m4b02823abe" x="188.420727" y="192.24" style="stroke: #000000; stroke-width: 0.8"/>
      </g>
     </g>
     <g id="text_4">
      <!-- 6 -->
      <g transform="translate(184.523696 208.548086)scale(0.1225 -0.1225)">
       <defs>
        <path id="DejaVuSans-36" d="M 2113 2584 
Q 1688 2584 1439 2293 
Q 1191 2003 1191 1497 
Q 1191 994 1439 701 
Q 1688 409 2113 409 
Q 2538 409 2786 701 
Q 3034 994 3034 1497 
Q 3034 2003 2786 2293 
Q 2538 2584 2113 2584 
z
M 3366 4563 
L 3366 3988 
Q 3128 4100 2886 4159 
Q 2644 4219 2406 4219 
Q 1781 4219 1451 3797 
Q 1122 3375 1075 2522 
Q 1259 2794 1537 2939 
Q 1816 3084 2150 3084 
Q 2853 3084 3261 2657 
Q 3669 2231 3669 1497 
Q 3669 778 3244 343 
Q 2819 -91 2113 -91 
Q 1303 -91 875 529 
Q 447 1150 447 2328 
Q 447 3434 972 4092 
Q 1497 4750 2381 4750 
Q 2619 4750 2861 4703 
Q 3103 4656 3366 4563 
z
" transform="scale(0.015625)"/>
       </defs>
       <use xlink:href="#DejaVuSans-36"/>
      </g>
     </g>
    </g>
    <g id="xtick_5">
     <g id="line2d_5">
      <g>
       <use xlink:href="#m4b02823abe" x="234.303545" y="192.24" style="stroke: #000000; stroke-width: 0.8"/>
      </g>
     </g>
     <g id="text_5">
      <!-- 8 -->
      <g transform="translate(230.406514 208.548086)scale(0.1225 -0.1225)">
       <defs>
        <path id="DejaVuSans-38" d="M 2034 2216 
Q 1584 2216 1326 1975 
Q 1069 1734 1069 1313 
Q 1069 891 1326 650 
Q 1584 409 2034 409 
Q 2484 409 2743 651 
Q 3003 894 3003 1313 
Q 3003 1734 2745 1975 
Q 2488 2216 2034 2216 
z
M 1403 2484 
Q 997 2584 770 2862 
Q 544 3141 544 3541 
Q 544 4100 942 4425 
Q 1341 4750 2034 4750 
Q 2731 4750 3128 4425 
Q 3525 4100 3525 3541 
Q 3525 3141 3298 2862 
Q 3072 2584 2669 2484 
Q 3125 2378 3379 2068 
Q 3634 1759 3634 1313 
Q 3634 634 3220 271 
Q 2806 -91 2034 -91 
Q 1263 -91 848 271 
Q 434 634 434 1313 
Q 434 1759 690 2068 
Q 947 2378 1403 2484 
z
M 1172 3481 
Q 1172 3119 1398 2916 
Q 1625 2713 2034 2713 
Q 2441 2713 2670 2916 
Q 2900 3119 2900 3481 
Q 2900 3844 2670 4047 
Q 2441 4250 2034 4250 
Q 1625 4250 1398 4047 
Q 1172 3844 1172 3481 
z
" transform="scale(0.015625)"/>
       </defs>
       <use xlink:href="#DejaVuSans-38"/>
      </g>
     </g>
    </g>
    <g id="xtick_6">
     <g id="line2d_6">
      <g>
       <use xlink:href="#m4b02823abe" x="280.186364" y="192.24" style="stroke: #000000; stroke-width: 0.8"/>
      </g>
     </g>
     <g id="text_6">
      <!-- 10 -->
      <g transform="translate(272.392301 208.548086)scale(0.1225 -0.1225)">
       <defs>
        <path id="DejaVuSans-31" d="M 794 531 
L 1825 531 
L 1825 4091 
L 703 3866 
L 703 4441 
L 1819 4666 
L 2450 4666 
L 2450 531 
L 3481 531 
L 3481 0 
L 794 0 
L 794 531 
z
" transform="scale(0.015625)"/>
       </defs>
       <use xlink:href="#DejaVuSans-31"/>
       <use xlink:href="#DejaVuSans-30" x="63.623047"/>
      </g>
     </g>
    </g>
   </g>
   <g id="matplotlib.axis_2">
    <g id="ytick_1">
     <g id="line2d_7">
      <defs>
       <path id="m65cbd6c2b6" d="M 0 0 
L -3.5 0 
" style="stroke: #000000; stroke-width: 0.8"/>
      </defs>
      <g>
       <use xlink:href="#m65cbd6c2b6" x="40.5" y="185.950391" style="stroke: #000000; stroke-width: 0.8"/>
      </g>
     </g>
     <g id="text_7">
      <!-- 0.0 -->
      <g transform="translate(14.018672 190.604434)scale(0.1225 -0.1225)">
       <defs>
        <path id="DejaVuSans-2e" d="M 684 794 
L 1344 794 
L 1344 0 
L 684 0 
L 684 794 
z
" transform="scale(0.015625)"/>
       </defs>
       <use xlink:href="#DejaVuSans-30"/>
       <use xlink:href="#DejaVuSans-2e" x="63.623047"/>
       <use xlink:href="#DejaVuSans-30" x="95.410156"/>
      </g>
     </g>
    </g>
    <g id="ytick_2">
     <g id="line2d_8">
      <g>
       <use xlink:href="#m65cbd6c2b6" x="40.5" y="155.456312" style="stroke: #000000; stroke-width: 0.8"/>
      </g>
     </g>
     <g id="text_8">
      <!-- 0.2 -->
      <g transform="translate(14.018672 160.110355)scale(0.1225 -0.1225)">
       <use xlink:href="#DejaVuSans-30"/>
       <use xlink:href="#DejaVuSans-2e" x="63.623047"/>
       <use xlink:href="#DejaVuSans-32" x="95.410156"/>
      </g>
     </g>
    </g>
    <g id="ytick_3">
     <g id="line2d_9">
      <g>
       <use xlink:href="#m65cbd6c2b6" x="40.5" y="124.962234" style="stroke: #000000; stroke-width: 0.8"/>
      </g>
     </g>
     <g id="text_9">
      <!-- 0.4 -->
      <g transform="translate(14.018672 129.616277)scale(0.1225 -0.1225)">
       <use xlink:href="#DejaVuSans-30"/>
       <use xlink:href="#DejaVuSans-2e" x="63.623047"/>
       <use xlink:href="#DejaVuSans-34" x="95.410156"/>
      </g>
     </g>
    </g>
    <g id="ytick_4">
     <g id="line2d_10">
      <g>
       <use xlink:href="#m65cbd6c2b6" x="40.5" y="94.468156" style="stroke: #000000; stroke-width: 0.8"/>
      </g>
     </g>
     <g id="text_10">
      <!-- 0.6 -->
      <g transform="translate(14.018672 99.122199)scale(0.1225 -0.1225)">
       <use xlink:href="#DejaVuSans-30"/>
       <use xlink:href="#DejaVuSans-2e" x="63.623047"/>
       <use xlink:href="#DejaVuSans-36" x="95.410156"/>
      </g>
     </g>
    </g>
    <g id="ytick_5">
     <g id="line2d_11">
      <g>
       <use xlink:href="#m65cbd6c2b6" x="40.5" y="63.974078" style="stroke: #000000; stroke-width: 0.8"/>
      </g>
     </g>
     <g id="text_11">
      <!-- 0.8 -->
      <g transform="translate(14.018672 68.628121)scale(0.1225 -0.1225)">
       <use xlink:href="#DejaVuSans-30"/>
       <use xlink:href="#DejaVuSans-2e" x="63.623047"/>
       <use xlink:href="#DejaVuSans-38" x="95.410156"/>
      </g>
     </g>
    </g>
    <g id="ytick_6">
     <g id="line2d_12">
      <g>
       <use xlink:href="#m65cbd6c2b6" x="40.5" y="33.48" style="stroke: #000000; stroke-width: 0.8"/>
      </g>
     </g>
     <g id="text_12">
      <!-- 1.0 -->
      <g transform="translate(14.018672 38.134043)scale(0.1225 -0.1225)">
       <use xlink:href="#DejaVuSans-31"/>
       <use xlink:href="#DejaVuSans-2e" x="63.623047"/>
       <use xlink:href="#DejaVuSans-30" x="95.410156"/>
      </g>
     </g>
    </g>
   </g>
   <g id="line2d_13">
    <defs>
     <path id="m46e0e6e9c4" d="M -2.5 2.5 
L 2.5 -2.5 
M -2.5 -2.5 
L 2.5 2.5 
" style="stroke: #1f77b4; stroke-width: 1.2"/>
    </defs>
    <g clip-path="url(#p4e8e285f98)">
     <use xlink:href="#m46e0e6e9c4" x="51.913636" y="36.486376" style="fill-opacity: 0; stroke: #1f77b4; stroke-width: 1.2"/>
     <use xlink:href="#m46e0e6e9c4" x="53.055" y="33.48" style="fill-opacity: 0; stroke: #1f77b4; stroke-width: 1.2"/>
     <use xlink:href="#m46e0e6e9c4" x="54.196364" y="38.632819" style="fill-opacity: 0; stroke: #1f77b4; stroke-width: 1.2"/>
     <use xlink:href="#m46e0e6e9c4" x="55.337727" y="45.549546" style="fill-opacity: 0; stroke: #1f77b4; stroke-width: 1.2"/>
     <use xlink:href="#m46e0e6e9c4" x="56.479091" y="49.752161" style="fill-opacity: 0; stroke: #1f77b4; stroke-width: 1.2"/>
     <use xlink:href="#m46e0e6e9c4" x="57.620455" y="53.138182" style="fill-opacity: 0; stroke: #1f77b4; stroke-width: 1.2"/>
     <use xlink:href="#m46e0e6e9c4" x="58.761818" y="56.56537" style="fill-opacity: 0; stroke: #1f77b4; stroke-width: 1.2"/>
     <use xlink:href="#m46e0e6e9c4" x="59.903182" y="61.387651" style="fill-opacity: 0; stroke: #1f77b4; stroke-width: 1.2"/>
     <use xlink:href="#m46e0e6e9c4" x="61.044545" y="61.366225" style="fill-opacity: 0; stroke: #1f77b4; stroke-width: 1.2"/>
     <use xlink:href="#m46e0e6e9c4" x="62.185909" y="66.405896" style="fill-opacity: 0; stroke: #1f77b4; stroke-width: 1.2"/>
     <use xlink:href="#m46e0e6e9c4" x="63.327273" y="67.639452" style="fill-opacity: 0; stroke: #1f77b4; stroke-width: 1.2"/>
     <use xlink:href="#m46e0e6e9c4" x="64.468636" y="72.193789" style="fill-opacity: 0; stroke: #1f77b4; stroke-width: 1.2"/>
     <use xlink:href="#m46e0e6e9c4" x="65.61" y="71.801141" style="fill-opacity: 0; stroke: #1f77b4; stroke-width: 1.2"/>
     <use xlink:href="#m46e0e6e9c4" x="66.751364" y="78.765295" style="fill-opacity: 0; stroke: #1f77b4; stroke-width: 1.2"/>
     <use xlink:href="#m46e0e6e9c4" x="67.892727" y="79.203203" style="fill-opacity: 0; stroke: #1f77b4; stroke-width: 1.2"/>
     <use xlink:href="#m46e0e6e9c4" x="69.034091" y="85.136504" style="fill-opacity: 0; stroke: #1f77b4; stroke-width: 1.2"/>
     <use xlink:href="#m46e0e6e9c4" x="70.175455" y="83.960003" style="fill-opacity: 0; stroke: #1f77b4; stroke-width: 1.2"/>
     <use xlink:href="#m46e0e6e9c4" x="71.316818" y="83.718299" style="fill-opacity: 0; stroke: #1f77b4; stroke-width: 1.2"/>
     <use xlink:href="#m46e0e6e9c4" x="72.458182" y="89.027841" style="fill-opacity: 0; stroke: #1f77b4; stroke-width: 1.2"/>
     <use xlink:href="#m46e0e6e9c4" x="73.599545" y="90.876491" style="fill-opacity: 0; stroke: #1f77b4; stroke-width: 1.2"/>
     <use xlink:href="#m46e0e6e9c4" x="74.740909" y="94.089901" style="fill-opacity: 0; stroke: #1f77b4; stroke-width: 1.2"/>
     <use xlink:href="#m46e0e6e9c4" x="75.882273" y="98.247016" style="fill-opacity: 0; stroke: #1f77b4; stroke-width: 1.2"/>
     <use xlink:href="#m46e0e6e9c4" x="77.023636" y="96.179532" style="fill-opacity: 0; stroke: #1f77b4; stroke-width: 1.2"/>
     <use xlink:href="#m46e0e6e9c4" x="78.165" y="100.841962" style="fill-opacity: 0; stroke: #1f77b4; stroke-width: 1.2"/>
     <use xlink:href="#m46e0e6e9c4" x="79.306364" y="96.79631" style="fill-opacity: 0; stroke: #1f77b4; stroke-width: 1.2"/>
     <use xlink:href="#m46e0e6e9c4" x="80.447727" y="102.150871" style="fill-opacity: 0; stroke: #1f77b4; stroke-width: 1.2"/>
     <use xlink:href="#m46e0e6e9c4" x="81.589091" y="103.978817" style="fill-opacity: 0; stroke: #1f77b4; stroke-width: 1.2"/>
     <use xlink:href="#m46e0e6e9c4" x="82.730455" y="102.961205" style="fill-opacity: 0; stroke: #1f77b4; stroke-width: 1.2"/>
     <use xlink:href="#m46e0e6e9c4" x="83.871818" y="106.296911" style="fill-opacity: 0; stroke: #1f77b4; stroke-width: 1.2"/>
     <use xlink:href="#m46e0e6e9c4" x="85.013182" y="111.652434" style="fill-opacity: 0; stroke: #1f77b4; stroke-width: 1.2"/>
     <use xlink:href="#m46e0e6e9c4" x="86.154545" y="112.095879" style="fill-opacity: 0; stroke: #1f77b4; stroke-width: 1.2"/>
     <use xlink:href="#m46e0e6e9c4" x="87.295909" y="114.378103" style="fill-opacity: 0; stroke: #1f77b4; stroke-width: 1.2"/>
     <use xlink:href="#m46e0e6e9c4" x="88.437273" y="110.79636" style="fill-opacity: 0; stroke: #1f77b4; stroke-width: 1.2"/>
     <use xlink:href="#m46e0e6e9c4" x="89.578636" y="112.895139" style="fill-opacity: 0; stroke: #1f77b4; stroke-width: 1.2"/>
     <use xlink:href="#m46e0e6e9c4" x="90.72" y="118.4772" style="fill-opacity: 0; stroke: #1f77b4; stroke-width: 1.2"/>
     <use xlink:href="#m46e0e6e9c4" x="91.861364" y="115.048808" style="fill-opacity: 0; stroke: #1f77b4; stroke-width: 1.2"/>
     <use xlink:href="#m46e0e6e9c4" x="93.002727" y="117.239792" style="fill-opacity: 0; stroke: #1f77b4; stroke-width: 1.2"/>
     <use xlink:href="#m46e0e6e9c4" x="94.144091" y="117.035884" style="fill-opacity: 0; stroke: #1f77b4; stroke-width: 1.2"/>
     <use xlink:href="#m46e0e6e9c4" x="95.285455" y="121.191554" style="fill-opacity: 0; stroke: #1f77b4; stroke-width: 1.2"/>
     <use xlink:href="#m46e0e6e9c4" x="96.426818" y="121.161462" style="fill-opacity: 0; stroke: #1f77b4; stroke-width: 1.2"/>
     <use xlink:href="#m46e0e6e9c4" x="97.568182" y="122.340129" style="fill-opacity: 0; stroke: #1f77b4; stroke-width: 1.2"/>
     <use xlink:href="#m46e0e6e9c4" x="98.709545" y="124.75115" style="fill-opacity: 0; stroke: #1f77b4; stroke-width: 1.2"/>
     <use xlink:href="#m46e0e6e9c4" x="99.850909" y="120.804443" style="fill-opacity: 0; stroke: #1f77b4; stroke-width: 1.2"/>
     <use xlink:href="#m46e0e6e9c4" x="100.992273" y="126.258669" style="fill-opacity: 0; stroke: #1f77b4; stroke-width: 1.2"/>
     <use xlink:href="#m46e0e6e9c4" x="102.133636" y="127.254374" style="fill-opacity: 0; stroke: #1f77b4; stroke-width: 1.2"/>
     <use xlink:href="#m46e0e6e9c4" x="103.275" y="129.968488" style="fill-opacity: 0; stroke: #1f77b4; stroke-width: 1.2"/>
     <use xlink:href="#m46e0e6e9c4" x="104.416364" y="129.749173" style="fill-opacity: 0; stroke: #1f77b4; stroke-width: 1.2"/>
     <use xlink:href="#m46e0e6e9c4" x="105.557727" y="133.018676" style="fill-opacity: 0; stroke: #1f77b4; stroke-width: 1.2"/>
     <use xlink:href="#m46e0e6e9c4" x="106.699091" y="130.5051" style="fill-opacity: 0; stroke: #1f77b4; stroke-width: 1.2"/>
     <use xlink:href="#m46e0e6e9c4" x="107.840455" y="131.896342" style="fill-opacity: 0; stroke: #1f77b4; stroke-width: 1.2"/>
     <use xlink:href="#m46e0e6e9c4" x="108.981818" y="133.194176" style="fill-opacity: 0; stroke: #1f77b4; stroke-width: 1.2"/>
     <use xlink:href="#m46e0e6e9c4" x="110.123182" y="136.039734" style="fill-opacity: 0; stroke: #1f77b4; stroke-width: 1.2"/>
     <use xlink:href="#m46e0e6e9c4" x="111.264545" y="135.467011" style="fill-opacity: 0; stroke: #1f77b4; stroke-width: 1.2"/>
     <use xlink:href="#m46e0e6e9c4" x="112.405909" y="138.347236" style="fill-opacity: 0; stroke: #1f77b4; stroke-width: 1.2"/>
     <use xlink:href="#m46e0e6e9c4" x="113.547273" y="135.038492" style="fill-opacity: 0; stroke: #1f77b4; stroke-width: 1.2"/>
     <use xlink:href="#m46e0e6e9c4" x="114.688636" y="138.816681" style="fill-opacity: 0; stroke: #1f77b4; stroke-width: 1.2"/>
     <use xlink:href="#m46e0e6e9c4" x="115.83" y="141.914776" style="fill-opacity: 0; stroke: #1f77b4; stroke-width: 1.2"/>
     <use xlink:href="#m46e0e6e9c4" x="116.971364" y="138.265384" style="fill-opacity: 0; stroke: #1f77b4; stroke-width: 1.2"/>
     <use xlink:href="#m46e0e6e9c4" x="118.112727" y="139.496533" style="fill-opacity: 0; stroke: #1f77b4; stroke-width: 1.2"/>
     <use xlink:href="#m46e0e6e9c4" x="119.254091" y="144.096371" style="fill-opacity: 0; stroke: #1f77b4; stroke-width: 1.2"/>
     <use xlink:href="#m46e0e6e9c4" x="120.395455" y="142.220758" style="fill-opacity: 0; stroke: #1f77b4; stroke-width: 1.2"/>
     <use xlink:href="#m46e0e6e9c4" x="121.536818" y="140.204071" style="fill-opacity: 0; stroke: #1f77b4; stroke-width: 1.2"/>
     <use xlink:href="#m46e0e6e9c4" x="122.678182" y="147.186281" style="fill-opacity: 0; stroke: #1f77b4; stroke-width: 1.2"/>
     <use xlink:href="#m46e0e6e9c4" x="123.819545" y="142.241703" style="fill-opacity: 0; stroke: #1f77b4; stroke-width: 1.2"/>
     <use xlink:href="#m46e0e6e9c4" x="124.960909" y="145.750261" style="fill-opacity: 0; stroke: #1f77b4; stroke-width: 1.2"/>
     <use xlink:href="#m46e0e6e9c4" x="126.102273" y="146.487892" style="fill-opacity: 0; stroke: #1f77b4; stroke-width: 1.2"/>
     <use xlink:href="#m46e0e6e9c4" x="127.243636" y="146.682892" style="fill-opacity: 0; stroke: #1f77b4; stroke-width: 1.2"/>
     <use xlink:href="#m46e0e6e9c4" x="128.385" y="146.996818" style="fill-opacity: 0; stroke: #1f77b4; stroke-width: 1.2"/>
     <use xlink:href="#m46e0e6e9c4" x="129.526364" y="147.981689" style="fill-opacity: 0; stroke: #1f77b4; stroke-width: 1.2"/>
     <use xlink:href="#m46e0e6e9c4" x="130.667727" y="147.107559" style="fill-opacity: 0; stroke: #1f77b4; stroke-width: 1.2"/>
     <use xlink:href="#m46e0e6e9c4" x="131.809091" y="148.227245" style="fill-opacity: 0; stroke: #1f77b4; stroke-width: 1.2"/>
     <use xlink:href="#m46e0e6e9c4" x="132.950455" y="147.898874" style="fill-opacity: 0; stroke: #1f77b4; stroke-width: 1.2"/>
     <use xlink:href="#m46e0e6e9c4" x="134.091818" y="149.818543" style="fill-opacity: 0; stroke: #1f77b4; stroke-width: 1.2"/>
     <use xlink:href="#m46e0e6e9c4" x="135.233182" y="151.618322" style="fill-opacity: 0; stroke: #1f77b4; stroke-width: 1.2"/>
     <use xlink:href="#m46e0e6e9c4" x="136.374545" y="154.11601" style="fill-opacity: 0; stroke: #1f77b4; stroke-width: 1.2"/>
     <use xlink:href="#m46e0e6e9c4" x="137.515909" y="152.486434" style="fill-opacity: 0; stroke: #1f77b4; stroke-width: 1.2"/>
     <use xlink:href="#m46e0e6e9c4" x="138.657273" y="156.484419" style="fill-opacity: 0; stroke: #1f77b4; stroke-width: 1.2"/>
     <use xlink:href="#m46e0e6e9c4" x="139.798636" y="150.304839" style="fill-opacity: 0; stroke: #1f77b4; stroke-width: 1.2"/>
     <use xlink:href="#m46e0e6e9c4" x="140.94" y="152.209582" style="fill-opacity: 0; stroke: #1f77b4; stroke-width: 1.2"/>
     <use xlink:href="#m46e0e6e9c4" x="142.081364" y="154.060398" style="fill-opacity: 0; stroke: #1f77b4; stroke-width: 1.2"/>
     <use xlink:href="#m46e0e6e9c4" x="143.222727" y="153.769102" style="fill-opacity: 0; stroke: #1f77b4; stroke-width: 1.2"/>
     <use xlink:href="#m46e0e6e9c4" x="144.364091" y="152.889916" style="fill-opacity: 0; stroke: #1f77b4; stroke-width: 1.2"/>
     <use xlink:href="#m46e0e6e9c4" x="145.505455" y="155.177436" style="fill-opacity: 0; stroke: #1f77b4; stroke-width: 1.2"/>
     <use xlink:href="#m46e0e6e9c4" x="146.646818" y="159.22381" style="fill-opacity: 0; stroke: #1f77b4; stroke-width: 1.2"/>
     <use xlink:href="#m46e0e6e9c4" x="147.788182" y="157.467124" style="fill-opacity: 0; stroke: #1f77b4; stroke-width: 1.2"/>
     <use xlink:href="#m46e0e6e9c4" x="148.929545" y="158.054532" style="fill-opacity: 0; stroke: #1f77b4; stroke-width: 1.2"/>
     <use xlink:href="#m46e0e6e9c4" x="150.070909" y="157.598086" style="fill-opacity: 0; stroke: #1f77b4; stroke-width: 1.2"/>
     <use xlink:href="#m46e0e6e9c4" x="151.212273" y="157.502513" style="fill-opacity: 0; stroke: #1f77b4; stroke-width: 1.2"/>
     <use xlink:href="#m46e0e6e9c4" x="152.353636" y="158.577421" style="fill-opacity: 0; stroke: #1f77b4; stroke-width: 1.2"/>
     <use xlink:href="#m46e0e6e9c4" x="153.495" y="160.942942" style="fill-opacity: 0; stroke: #1f77b4; stroke-width: 1.2"/>
     <use xlink:href="#m46e0e6e9c4" x="154.636364" y="160.024274" style="fill-opacity: 0; stroke: #1f77b4; stroke-width: 1.2"/>
     <use xlink:href="#m46e0e6e9c4" x="155.777727" y="161.423461" style="fill-opacity: 0; stroke: #1f77b4; stroke-width: 1.2"/>
     <use xlink:href="#m46e0e6e9c4" x="156.919091" y="156.997198" style="fill-opacity: 0; stroke: #1f77b4; stroke-width: 1.2"/>
     <use xlink:href="#m46e0e6e9c4" x="158.060455" y="162.475499" style="fill-opacity: 0; stroke: #1f77b4; stroke-width: 1.2"/>
     <use xlink:href="#m46e0e6e9c4" x="159.201818" y="160.367812" style="fill-opacity: 0; stroke: #1f77b4; stroke-width: 1.2"/>
     <use xlink:href="#m46e0e6e9c4" x="160.343182" y="162.987073" style="fill-opacity: 0; stroke: #1f77b4; stroke-width: 1.2"/>
     <use xlink:href="#m46e0e6e9c4" x="161.484545" y="160.496367" style="fill-opacity: 0; stroke: #1f77b4; stroke-width: 1.2"/>
     <use xlink:href="#m46e0e6e9c4" x="162.625909" y="160.535849" style="fill-opacity: 0; stroke: #1f77b4; stroke-width: 1.2"/>
     <use xlink:href="#m46e0e6e9c4" x="163.767273" y="161.28359" style="fill-opacity: 0; stroke: #1f77b4; stroke-width: 1.2"/>
     <use xlink:href="#m46e0e6e9c4" x="164.908636" y="162.183721" style="fill-opacity: 0; stroke: #1f77b4; stroke-width: 1.2"/>
     <use xlink:href="#m46e0e6e9c4" x="166.05" y="158.598366" style="fill-opacity: 0; stroke: #1f77b4; stroke-width: 1.2"/>
     <use xlink:href="#m46e0e6e9c4" x="167.191364" y="160.186293" style="fill-opacity: 0; stroke: #1f77b4; stroke-width: 1.2"/>
     <use xlink:href="#m46e0e6e9c4" x="168.332727" y="163.253574" style="fill-opacity: 0; stroke: #1f77b4; stroke-width: 1.2"/>
     <use xlink:href="#m46e0e6e9c4" x="169.474091" y="164.056204" style="fill-opacity: 0; stroke: #1f77b4; stroke-width: 1.2"/>
     <use xlink:href="#m46e0e6e9c4" x="170.615455" y="164.895427" style="fill-opacity: 0; stroke: #1f77b4; stroke-width: 1.2"/>
     <use xlink:href="#m46e0e6e9c4" x="171.756818" y="163.494555" style="fill-opacity: 0; stroke: #1f77b4; stroke-width: 1.2"/>
     <use xlink:href="#m46e0e6e9c4" x="172.898182" y="165.617168" style="fill-opacity: 0; stroke: #1f77b4; stroke-width: 1.2"/>
     <use xlink:href="#m46e0e6e9c4" x="174.039545" y="164.315482" style="fill-opacity: 0; stroke: #1f77b4; stroke-width: 1.2"/>
     <use xlink:href="#m46e0e6e9c4" x="175.180909" y="165.619576" style="fill-opacity: 0; stroke: #1f77b4; stroke-width: 1.2"/>
     <use xlink:href="#m46e0e6e9c4" x="176.322273" y="168.873189" style="fill-opacity: 0; stroke: #1f77b4; stroke-width: 1.2"/>
     <use xlink:href="#m46e0e6e9c4" x="177.463636" y="171.071395" style="fill-opacity: 0; stroke: #1f77b4; stroke-width: 1.2"/>
     <use xlink:href="#m46e0e6e9c4" x="178.605" y="164.933705" style="fill-opacity: 0; stroke: #1f77b4; stroke-width: 1.2"/>
     <use xlink:href="#m46e0e6e9c4" x="179.746364" y="167.634096" style="fill-opacity: 0; stroke: #1f77b4; stroke-width: 1.2"/>
     <use xlink:href="#m46e0e6e9c4" x="180.887727" y="168.584059" style="fill-opacity: 0; stroke: #1f77b4; stroke-width: 1.2"/>
     <use xlink:href="#m46e0e6e9c4" x="182.029091" y="166.561113" style="fill-opacity: 0; stroke: #1f77b4; stroke-width: 1.2"/>
     <use xlink:href="#m46e0e6e9c4" x="183.170455" y="167.450892" style="fill-opacity: 0; stroke: #1f77b4; stroke-width: 1.2"/>
     <use xlink:href="#m46e0e6e9c4" x="184.311818" y="168.131467" style="fill-opacity: 0; stroke: #1f77b4; stroke-width: 1.2"/>
     <use xlink:href="#m46e0e6e9c4" x="185.453182" y="169.632005" style="fill-opacity: 0; stroke: #1f77b4; stroke-width: 1.2"/>
     <use xlink:href="#m46e0e6e9c4" x="186.594545" y="167.400818" style="fill-opacity: 0; stroke: #1f77b4; stroke-width: 1.2"/>
     <use xlink:href="#m46e0e6e9c4" x="187.735909" y="171.068265" style="fill-opacity: 0; stroke: #1f77b4; stroke-width: 1.2"/>
     <use xlink:href="#m46e0e6e9c4" x="188.877273" y="168.258578" style="fill-opacity: 0; stroke: #1f77b4; stroke-width: 1.2"/>
     <use xlink:href="#m46e0e6e9c4" x="190.018636" y="168.560949" style="fill-opacity: 0; stroke: #1f77b4; stroke-width: 1.2"/>
     <use xlink:href="#m46e0e6e9c4" x="191.16" y="174.135065" style="fill-opacity: 0; stroke: #1f77b4; stroke-width: 1.2"/>
     <use xlink:href="#m46e0e6e9c4" x="192.301364" y="173.79562" style="fill-opacity: 0; stroke: #1f77b4; stroke-width: 1.2"/>
     <use xlink:href="#m46e0e6e9c4" x="193.442727" y="168.241004" style="fill-opacity: 0; stroke: #1f77b4; stroke-width: 1.2"/>
     <use xlink:href="#m46e0e6e9c4" x="194.584091" y="170.953432" style="fill-opacity: 0; stroke: #1f77b4; stroke-width: 1.2"/>
     <use xlink:href="#m46e0e6e9c4" x="195.725455" y="167.804059" style="fill-opacity: 0; stroke: #1f77b4; stroke-width: 1.2"/>
     <use xlink:href="#m46e0e6e9c4" x="196.866818" y="171.652062" style="fill-opacity: 0; stroke: #1f77b4; stroke-width: 1.2"/>
     <use xlink:href="#m46e0e6e9c4" x="198.008182" y="169.781505" style="fill-opacity: 0; stroke: #1f77b4; stroke-width: 1.2"/>
     <use xlink:href="#m46e0e6e9c4" x="199.149545" y="170.126969" style="fill-opacity: 0; stroke: #1f77b4; stroke-width: 1.2"/>
     <use xlink:href="#m46e0e6e9c4" x="200.290909" y="169.16569" style="fill-opacity: 0; stroke: #1f77b4; stroke-width: 1.2"/>
     <use xlink:href="#m46e0e6e9c4" x="201.432273" y="172.043748" style="fill-opacity: 0; stroke: #1f77b4; stroke-width: 1.2"/>
     <use xlink:href="#m46e0e6e9c4" x="202.573636" y="174.514232" style="fill-opacity: 0; stroke: #1f77b4; stroke-width: 1.2"/>
     <use xlink:href="#m46e0e6e9c4" x="203.715" y="169.655116" style="fill-opacity: 0; stroke: #1f77b4; stroke-width: 1.2"/>
     <use xlink:href="#m46e0e6e9c4" x="204.856364" y="172.682434" style="fill-opacity: 0; stroke: #1f77b4; stroke-width: 1.2"/>
     <use xlink:href="#m46e0e6e9c4" x="205.997727" y="172.176155" style="fill-opacity: 0; stroke: #1f77b4; stroke-width: 1.2"/>
     <use xlink:href="#m46e0e6e9c4" x="207.139091" y="174.699121" style="fill-opacity: 0; stroke: #1f77b4; stroke-width: 1.2"/>
     <use xlink:href="#m46e0e6e9c4" x="208.280455" y="175.373436" style="fill-opacity: 0; stroke: #1f77b4; stroke-width: 1.2"/>
     <use xlink:href="#m46e0e6e9c4" x="209.421818" y="177.788068" style="fill-opacity: 0; stroke: #1f77b4; stroke-width: 1.2"/>
     <use xlink:href="#m46e0e6e9c4" x="210.563182" y="175.703732" style="fill-opacity: 0; stroke: #1f77b4; stroke-width: 1.2"/>
     <use xlink:href="#m46e0e6e9c4" x="211.704545" y="172.919804" style="fill-opacity: 0; stroke: #1f77b4; stroke-width: 1.2"/>
     <use xlink:href="#m46e0e6e9c4" x="212.845909" y="173.318471" style="fill-opacity: 0; stroke: #1f77b4; stroke-width: 1.2"/>
     <use xlink:href="#m46e0e6e9c4" x="213.987273" y="175.418214" style="fill-opacity: 0; stroke: #1f77b4; stroke-width: 1.2"/>
     <use xlink:href="#m46e0e6e9c4" x="215.128636" y="175.838066" style="fill-opacity: 0; stroke: #1f77b4; stroke-width: 1.2"/>
     <use xlink:href="#m46e0e6e9c4" x="216.27" y="175.094899" style="fill-opacity: 0; stroke: #1f77b4; stroke-width: 1.2"/>
     <use xlink:href="#m46e0e6e9c4" x="217.411364" y="176.956789" style="fill-opacity: 0; stroke: #1f77b4; stroke-width: 1.2"/>
     <use xlink:href="#m46e0e6e9c4" x="218.552727" y="175.434584" style="fill-opacity: 0; stroke: #1f77b4; stroke-width: 1.2"/>
     <use xlink:href="#m46e0e6e9c4" x="219.694091" y="173.327379" style="fill-opacity: 0; stroke: #1f77b4; stroke-width: 1.2"/>
     <use xlink:href="#m46e0e6e9c4" x="220.835455" y="173.862305" style="fill-opacity: 0; stroke: #1f77b4; stroke-width: 1.2"/>
     <use xlink:href="#m46e0e6e9c4" x="221.976818" y="177.520364" style="fill-opacity: 0; stroke: #1f77b4; stroke-width: 1.2"/>
     <use xlink:href="#m46e0e6e9c4" x="223.118182" y="173.761194" style="fill-opacity: 0; stroke: #1f77b4; stroke-width: 1.2"/>
     <use xlink:href="#m46e0e6e9c4" x="224.259545" y="177.091123" style="fill-opacity: 0; stroke: #1f77b4; stroke-width: 1.2"/>
     <use xlink:href="#m46e0e6e9c4" x="225.400909" y="175.766085" style="fill-opacity: 0; stroke: #1f77b4; stroke-width: 1.2"/>
     <use xlink:href="#m46e0e6e9c4" x="226.542273" y="171.816248" style="fill-opacity: 0; stroke: #1f77b4; stroke-width: 1.2"/>
     <use xlink:href="#m46e0e6e9c4" x="227.683636" y="174.69238" style="fill-opacity: 0; stroke: #1f77b4; stroke-width: 1.2"/>
     <use xlink:href="#m46e0e6e9c4" x="228.825" y="172.550989" style="fill-opacity: 0; stroke: #1f77b4; stroke-width: 1.2"/>
     <use xlink:href="#m46e0e6e9c4" x="229.966364" y="175.37801" style="fill-opacity: 0; stroke: #1f77b4; stroke-width: 1.2"/>
     <use xlink:href="#m46e0e6e9c4" x="231.107727" y="173.929472" style="fill-opacity: 0; stroke: #1f77b4; stroke-width: 1.2"/>
     <use xlink:href="#m46e0e6e9c4" x="232.249091" y="175.300733" style="fill-opacity: 0; stroke: #1f77b4; stroke-width: 1.2"/>
     <use xlink:href="#m46e0e6e9c4" x="233.390455" y="175.307473" style="fill-opacity: 0; stroke: #1f77b4; stroke-width: 1.2"/>
     <use xlink:href="#m46e0e6e9c4" x="234.531818" y="175.388603" style="fill-opacity: 0; stroke: #1f77b4; stroke-width: 1.2"/>
     <use xlink:href="#m46e0e6e9c4" x="235.673182" y="175.350566" style="fill-opacity: 0; stroke: #1f77b4; stroke-width: 1.2"/>
     <use xlink:href="#m46e0e6e9c4" x="236.814545" y="175.42327" style="fill-opacity: 0; stroke: #1f77b4; stroke-width: 1.2"/>
     <use xlink:href="#m46e0e6e9c4" x="237.955909" y="175.612973" style="fill-opacity: 0; stroke: #1f77b4; stroke-width: 1.2"/>
     <use xlink:href="#m46e0e6e9c4" x="239.097273" y="176.1284" style="fill-opacity: 0; stroke: #1f77b4; stroke-width: 1.2"/>
     <use xlink:href="#m46e0e6e9c4" x="240.238636" y="175.691936" style="fill-opacity: 0; stroke: #1f77b4; stroke-width: 1.2"/>
     <use xlink:href="#m46e0e6e9c4" x="241.38" y="175.229232" style="fill-opacity: 0; stroke: #1f77b4; stroke-width: 1.2"/>
     <use xlink:href="#m46e0e6e9c4" x="242.521364" y="176.472419" style="fill-opacity: 0; stroke: #1f77b4; stroke-width: 1.2"/>
     <use xlink:href="#m46e0e6e9c4" x="243.662727" y="174.226787" style="fill-opacity: 0; stroke: #1f77b4; stroke-width: 1.2"/>
     <use xlink:href="#m46e0e6e9c4" x="244.804091" y="177.152271" style="fill-opacity: 0; stroke: #1f77b4; stroke-width: 1.2"/>
     <use xlink:href="#m46e0e6e9c4" x="245.945455" y="179.524773" style="fill-opacity: 0; stroke: #1f77b4; stroke-width: 1.2"/>
     <use xlink:href="#m46e0e6e9c4" x="247.086818" y="176.470252" style="fill-opacity: 0; stroke: #1f77b4; stroke-width: 1.2"/>
     <use xlink:href="#m46e0e6e9c4" x="248.228182" y="176.810179" style="fill-opacity: 0; stroke: #1f77b4; stroke-width: 1.2"/>
     <use xlink:href="#m46e0e6e9c4" x="249.369545" y="178.368976" style="fill-opacity: 0; stroke: #1f77b4; stroke-width: 1.2"/>
     <use xlink:href="#m46e0e6e9c4" x="250.510909" y="180.4822" style="fill-opacity: 0; stroke: #1f77b4; stroke-width: 1.2"/>
     <use xlink:href="#m46e0e6e9c4" x="251.652273" y="180.772774" style="fill-opacity: 0; stroke: #1f77b4; stroke-width: 1.2"/>
     <use xlink:href="#m46e0e6e9c4" x="252.793636" y="176.566308" style="fill-opacity: 0; stroke: #1f77b4; stroke-width: 1.2"/>
     <use xlink:href="#m46e0e6e9c4" x="253.935" y="175.124269" style="fill-opacity: 0; stroke: #1f77b4; stroke-width: 1.2"/>
     <use xlink:href="#m46e0e6e9c4" x="255.076364" y="178.970347" style="fill-opacity: 0; stroke: #1f77b4; stroke-width: 1.2"/>
     <use xlink:href="#m46e0e6e9c4" x="256.217727" y="175.715529" style="fill-opacity: 0; stroke: #1f77b4; stroke-width: 1.2"/>
     <use xlink:href="#m46e0e6e9c4" x="257.359091" y="179.801625" style="fill-opacity: 0; stroke: #1f77b4; stroke-width: 1.2"/>
     <use xlink:href="#m46e0e6e9c4" x="258.500455" y="179.164625" style="fill-opacity: 0; stroke: #1f77b4; stroke-width: 1.2"/>
     <use xlink:href="#m46e0e6e9c4" x="259.641818" y="178.715883" style="fill-opacity: 0; stroke: #1f77b4; stroke-width: 1.2"/>
     <use xlink:href="#m46e0e6e9c4" x="260.783182" y="178.154235" style="fill-opacity: 0; stroke: #1f77b4; stroke-width: 1.2"/>
     <use xlink:href="#m46e0e6e9c4" x="261.924545" y="179.536329" style="fill-opacity: 0; stroke: #1f77b4; stroke-width: 1.2"/>
     <use xlink:href="#m46e0e6e9c4" x="263.065909" y="181.0217" style="fill-opacity: 0; stroke: #1f77b4; stroke-width: 1.2"/>
     <use xlink:href="#m46e0e6e9c4" x="264.207273" y="177.251216" style="fill-opacity: 0; stroke: #1f77b4; stroke-width: 1.2"/>
     <use xlink:href="#m46e0e6e9c4" x="265.348636" y="182.900202" style="fill-opacity: 0; stroke: #1f77b4; stroke-width: 1.2"/>
     <use xlink:href="#m46e0e6e9c4" x="266.49" y="180.84909" style="fill-opacity: 0; stroke: #1f77b4; stroke-width: 1.2"/>
     <use xlink:href="#m46e0e6e9c4" x="267.631364" y="177.854272" style="fill-opacity: 0; stroke: #1f77b4; stroke-width: 1.2"/>
     <use xlink:href="#m46e0e6e9c4" x="268.772727" y="181.097053" style="fill-opacity: 0; stroke: #1f77b4; stroke-width: 1.2"/>
     <use xlink:href="#m46e0e6e9c4" x="269.914091" y="179.715921" style="fill-opacity: 0; stroke: #1f77b4; stroke-width: 1.2"/>
     <use xlink:href="#m46e0e6e9c4" x="271.055455" y="180.302608" style="fill-opacity: 0; stroke: #1f77b4; stroke-width: 1.2"/>
     <use xlink:href="#m46e0e6e9c4" x="272.196818" y="184.68" style="fill-opacity: 0; stroke: #1f77b4; stroke-width: 1.2"/>
     <use xlink:href="#m46e0e6e9c4" x="273.338182" y="180.060904" style="fill-opacity: 0; stroke: #1f77b4; stroke-width: 1.2"/>
     <use xlink:href="#m46e0e6e9c4" x="274.479545" y="182.46422" style="fill-opacity: 0; stroke: #1f77b4; stroke-width: 1.2"/>
     <use xlink:href="#m46e0e6e9c4" x="275.620909" y="182.092035" style="fill-opacity: 0; stroke: #1f77b4; stroke-width: 1.2"/>
     <use xlink:href="#m46e0e6e9c4" x="276.762273" y="179.539217" style="fill-opacity: 0; stroke: #1f77b4; stroke-width: 1.2"/>
     <use xlink:href="#m46e0e6e9c4" x="277.903636" y="180.994256" style="fill-opacity: 0; stroke: #1f77b4; stroke-width: 1.2"/>
     <use xlink:href="#m46e0e6e9c4" x="279.045" y="181.380886" style="fill-opacity: 0; stroke: #1f77b4; stroke-width: 1.2"/>
     <use xlink:href="#m46e0e6e9c4" x="280.186364" y="181.552534" style="fill-opacity: 0; stroke: #1f77b4; stroke-width: 1.2"/>
    </g>
   </g>
   <g id="line2d_14">
    <path d="M 51.913636 45.159962 
L 55.337727 52.927231 
L 58.761818 60.265987 
L 62.185909 67.199871 
L 65.61 73.751219 
L 69.034091 79.941136 
L 73.599545 87.666437 
L 78.165 94.828765 
L 82.730455 101.469147 
L 87.295909 107.625619 
L 91.861364 113.333445 
L 96.426818 118.62532 
L 100.992273 123.531556 
L 105.557727 128.080255 
L 110.123182 132.297474 
L 114.688636 136.207367 
L 119.254091 139.832332 
L 123.819545 143.193132 
L 128.385 146.309017 
L 132.950455 149.197836 
L 138.657273 152.514639 
L 144.364091 155.532112 
L 150.070909 158.277267 
L 155.777727 160.77468 
L 161.484545 163.04671 
L 168.332727 165.504146 
L 175.180909 167.697914 
L 182.029091 169.656302 
L 188.877273 171.404567 
L 196.866818 173.208576 
L 204.856364 174.788847 
L 213.987273 176.356341 
L 223.118182 177.703702 
L 233.390455 178.994672 
L 244.804091 180.193485 
L 257.359091 181.274968 
L 271.055455 182.224437 
L 280.186364 182.747699 
L 280.186364 182.747699 
" clip-path="url(#p4e8e285f98)" style="fill: none; stroke-dasharray: 7.4,3.2; stroke-dashoffset: 0; stroke: #ff7f0e; stroke-width: 2"/>
   </g>
   <g id="patch_3">
    <path d="M 40.5 192.24 
L 40.5 25.92 
" style="fill: none; stroke: #000000; stroke-width: 0.8; stroke-linejoin: miter; stroke-linecap: square"/>
   </g>
   <g id="patch_4">
    <path d="M 291.6 192.24 
L 291.6 25.92 
" style="fill: none; stroke: #000000; stroke-width: 0.8; stroke-linejoin: miter; stroke-linecap: square"/>
   </g>
   <g id="patch_5">
    <path d="M 40.5 192.24 
L 291.6 192.24 
" style="fill: none; stroke: #000000; stroke-width: 0.8; stroke-linejoin: miter; stroke-linecap: square"/>
   </g>
   <g id="patch_6">
    <path d="M 40.5 25.92 
L 291.6 25.92 
" style="fill: none; stroke: #000000; stroke-width: 0.8; stroke-linejoin: miter; stroke-linecap: square"/>
   </g>
   <g id="legend_1">
    <g id="patch_7">
     <path d="M 120.794219 83.091562 
L 282.5 83.091562 
Q 285.1 83.091562 285.1 80.491562 
L 285.1 35.02 
Q 285.1 32.42 282.5 32.42 
L 120.794219 32.42 
Q 118.194219 32.42 118.194219 35.02 
L 118.194219 80.491562 
Q 118.194219 83.091562 120.794219 83.091562 
z
" style="fill: #ffffff; opacity: 0.8; stroke: #cccccc; stroke-linejoin: miter"/>
    </g>
    <g id="line2d_15">
     <g>
      <use xlink:href="#m46e0e6e9c4" x="136.394219" y="42.947969" style="fill-opacity: 0; stroke: #1f77b4; stroke-width: 1.2"/>
     </g>
    </g>
    <g id="text_13">
     <!-- Experimental data -->
     <g transform="translate(159.794219 47.497969)scale(0.13 -0.13)">
      <defs>
       <path id="DejaVuSans-45" d="M 628 4666 
L 3578 4666 
L 3578 4134 
L 1259 4134 
L 1259 2753 
L 3481 2753 
L 3481 2222 
L 1259 2222 
L 1259 531 
L 3634 531 
L 3634 0 
L 628 0 
L 628 4666 
z
" transform="scale(0.015625)"/>
       <path id="DejaVuSans-78" d="M 3513 3500 
L 2247 1797 
L 3578 0 
L 2900 0 
L 1881 1375 
L 863 0 
L 184 0 
L 1544 1831 
L 300 3500 
L 978 3500 
L 1906 2253 
L 2834 3500 
L 3513 3500 
z
" transform="scale(0.015625)"/>
       <path id="DejaVuSans-70" d="M 1159 525 
L 1159 -1331 
L 581 -1331 
L 581 3500 
L 1159 3500 
L 1159 2969 
Q 1341 3281 1617 3432 
Q 1894 3584 2278 3584 
Q 2916 3584 3314 3078 
Q 3713 2572 3713 1747 
Q 3713 922 3314 415 
Q 2916 -91 2278 -91 
Q 1894 -91 1617 61 
Q 1341 213 1159 525 
z
M 3116 1747 
Q 3116 2381 2855 2742 
Q 2594 3103 2138 3103 
Q 1681 3103 1420 2742 
Q 1159 2381 1159 1747 
Q 1159 1113 1420 752 
Q 1681 391 2138 391 
Q 2594 391 2855 752 
Q 3116 1113 3116 1747 
z
" transform="scale(0.015625)"/>
       <path id="DejaVuSans-65" d="M 3597 1894 
L 3597 1613 
L 953 1613 
Q 991 1019 1311 708 
Q 1631 397 2203 397 
Q 2534 397 2845 478 
Q 3156 559 3463 722 
L 3463 178 
Q 3153 47 2828 -22 
Q 2503 -91 2169 -91 
Q 1331 -91 842 396 
Q 353 884 353 1716 
Q 353 2575 817 3079 
Q 1281 3584 2069 3584 
Q 2775 3584 3186 3129 
Q 3597 2675 3597 1894 
z
M 3022 2063 
Q 3016 2534 2758 2815 
Q 2500 3097 2075 3097 
Q 1594 3097 1305 2825 
Q 1016 2553 972 2059 
L 3022 2063 
z
" transform="scale(0.015625)"/>
       <path id="DejaVuSans-72" d="M 2631 2963 
Q 2534 3019 2420 3045 
Q 2306 3072 2169 3072 
Q 1681 3072 1420 2755 
Q 1159 2438 1159 1844 
L 1159 0 
L 581 0 
L 581 3500 
L 1159 3500 
L 1159 2956 
Q 1341 3275 1631 3429 
Q 1922 3584 2338 3584 
Q 2397 3584 2469 3576 
Q 2541 3569 2628 3553 
L 2631 2963 
z
" transform="scale(0.015625)"/>
       <path id="DejaVuSans-69" d="M 603 3500 
L 1178 3500 
L 1178 0 
L 603 0 
L 603 3500 
z
M 603 4863 
L 1178 4863 
L 1178 4134 
L 603 4134 
L 603 4863 
z
" transform="scale(0.015625)"/>
       <path id="DejaVuSans-6d" d="M 3328 2828 
Q 3544 3216 3844 3400 
Q 4144 3584 4550 3584 
Q 5097 3584 5394 3201 
Q 5691 2819 5691 2113 
L 5691 0 
L 5113 0 
L 5113 2094 
Q 5113 2597 4934 2840 
Q 4756 3084 4391 3084 
Q 3944 3084 3684 2787 
Q 3425 2491 3425 1978 
L 3425 0 
L 2847 0 
L 2847 2094 
Q 2847 2600 2669 2842 
Q 2491 3084 2119 3084 
Q 1678 3084 1418 2786 
Q 1159 2488 1159 1978 
L 1159 0 
L 581 0 
L 581 3500 
L 1159 3500 
L 1159 2956 
Q 1356 3278 1631 3431 
Q 1906 3584 2284 3584 
Q 2666 3584 2933 3390 
Q 3200 3197 3328 2828 
z
" transform="scale(0.015625)"/>
       <path id="DejaVuSans-6e" d="M 3513 2113 
L 3513 0 
L 2938 0 
L 2938 2094 
Q 2938 2591 2744 2837 
Q 2550 3084 2163 3084 
Q 1697 3084 1428 2787 
Q 1159 2491 1159 1978 
L 1159 0 
L 581 0 
L 581 3500 
L 1159 3500 
L 1159 2956 
Q 1366 3272 1645 3428 
Q 1925 3584 2291 3584 
Q 2894 3584 3203 3211 
Q 3513 2838 3513 2113 
z
" transform="scale(0.015625)"/>
       <path id="DejaVuSans-74" d="M 1172 4494 
L 1172 3500 
L 2356 3500 
L 2356 3053 
L 1172 3053 
L 1172 1153 
Q 1172 725 1289 603 
Q 1406 481 1766 481 
L 2356 481 
L 2356 0 
L 1766 0 
Q 1100 0 847 248 
Q 594 497 594 1153 
L 594 3053 
L 172 3053 
L 172 3500 
L 594 3500 
L 594 4494 
L 1172 4494 
z
" transform="scale(0.015625)"/>
       <path id="DejaVuSans-61" d="M 2194 1759 
Q 1497 1759 1228 1600 
Q 959 1441 959 1056 
Q 959 750 1161 570 
Q 1363 391 1709 391 
Q 2188 391 2477 730 
Q 2766 1069 2766 1631 
L 2766 1759 
L 2194 1759 
z
M 3341 1997 
L 3341 0 
L 2766 0 
L 2766 531 
Q 2569 213 2275 61 
Q 1981 -91 1556 -91 
Q 1019 -91 701 211 
Q 384 513 384 1019 
Q 384 1609 779 1909 
Q 1175 2209 1959 2209 
L 2766 2209 
L 2766 2266 
Q 2766 2663 2505 2880 
Q 2244 3097 1772 3097 
Q 1472 3097 1187 3025 
Q 903 2953 641 2809 
L 641 3341 
Q 956 3463 1253 3523 
Q 1550 3584 1831 3584 
Q 2591 3584 2966 3190 
Q 3341 2797 3341 1997 
z
" transform="scale(0.015625)"/>
       <path id="DejaVuSans-6c" d="M 603 4863 
L 1178 4863 
L 1178 0 
L 603 0 
L 603 4863 
z
" transform="scale(0.015625)"/>
       <path id="DejaVuSans-20" transform="scale(0.015625)"/>
       <path id="DejaVuSans-64" d="M 2906 2969 
L 2906 4863 
L 3481 4863 
L 3481 0 
L 2906 0 
L 2906 525 
Q 2725 213 2448 61 
Q 2172 -91 1784 -91 
Q 1150 -91 751 415 
Q 353 922 353 1747 
Q 353 2572 751 3078 
Q 1150 3584 1784 3584 
Q 2172 3584 2448 3432 
Q 2725 3281 2906 2969 
z
M 947 1747 
Q 947 1113 1208 752 
Q 1469 391 1925 391 
Q 2381 391 2643 752 
Q 2906 1113 2906 1747 
Q 2906 2381 2643 2742 
Q 2381 3103 1925 3103 
Q 1469 3103 1208 2742 
Q 947 2381 947 1747 
z
" transform="scale(0.015625)"/>
      </defs>
      <use xlink:href="#DejaVuSans-45"/>
      <use xlink:href="#DejaVuSans-78" x="63.183594"/>
      <use xlink:href="#DejaVuSans-70" x="122.363281"/>
      <use xlink:href="#DejaVuSans-65" x="185.839844"/>
      <use xlink:href="#DejaVuSans-72" x="247.363281"/>
      <use xlink:href="#DejaVuSans-69" x="288.476562"/>
      <use xlink:href="#DejaVuSans-6d" x="316.259766"/>
      <use xlink:href="#DejaVuSans-65" x="413.671875"/>
      <use xlink:href="#DejaVuSans-6e" x="475.195312"/>
      <use xlink:href="#DejaVuSans-74" x="538.574219"/>
      <use xlink:href="#DejaVuSans-61" x="577.783203"/>
      <use xlink:href="#DejaVuSans-6c" x="639.0625"/>
      <use xlink:href="#DejaVuSans-20" x="666.845703"/>
      <use xlink:href="#DejaVuSans-64" x="698.632812"/>
      <use xlink:href="#DejaVuSans-61" x="762.109375"/>
      <use xlink:href="#DejaVuSans-74" x="823.388672"/>
      <use xlink:href="#DejaVuSans-61" x="862.597656"/>
     </g>
    </g>
    <g id="line2d_16">
     <path d="M 123.394219 62.941562 
L 136.394219 62.941562 
L 149.394219 62.941562 
" style="fill: none; stroke-dasharray: 7.4,3.2; stroke-dashoffset: 0; stroke: #ff7f0e; stroke-width: 2"/>
    </g>
    <g id="text_14">
     <!-- $\exp (-\frac{\tau}{T_1^{\rm ph}} )$ -->
     <g transform="translate(159.794219 67.491562)scale(0.13 -0.13)">
      <defs>
       <path id="DejaVuSans-28" d="M 1984 4856 
Q 1566 4138 1362 3434 
Q 1159 2731 1159 2009 
Q 1159 1288 1364 580 
Q 1569 -128 1984 -844 
L 1484 -844 
Q 1016 -109 783 600 
Q 550 1309 550 2009 
Q 550 2706 781 3412 
Q 1013 4119 1484 4856 
L 1984 4856 
z
" transform="scale(0.015625)"/>
       <path id="DejaVuSans-2212" d="M 678 2272 
L 4684 2272 
L 4684 1741 
L 678 1741 
L 678 2272 
z
" transform="scale(0.015625)"/>
       <path id="DejaVuSans-Oblique-3c4" d="M 2103 638 
Q 2188 488 2525 488 
L 2800 488 
L 2706 0 
L 2363 0 
Q 1800 0 1600 300 
Q 1403 606 1534 1269 
L 1856 2925 
L 541 2925 
L 653 3500 
L 3881 3500 
L 3769 2925 
L 2444 2925 
L 2113 1234 
Q 2025 781 2103 638 
z
" transform="scale(0.015625)"/>
       <path id="DejaVuSans-Oblique-54" d="M 378 4666 
L 4325 4666 
L 4225 4134 
L 2559 4134 
L 1759 0 
L 1125 0 
L 1925 4134 
L 275 4134 
L 378 4666 
z
" transform="scale(0.015625)"/>
       <path id="DejaVuSans-68" d="M 3513 2113 
L 3513 0 
L 2938 0 
L 2938 2094 
Q 2938 2591 2744 2837 
Q 2550 3084 2163 3084 
Q 1697 3084 1428 2787 
Q 1159 2491 1159 1978 
L 1159 0 
L 581 0 
L 581 4863 
L 1159 4863 
L 1159 2956 
Q 1366 3272 1645 3428 
Q 1925 3584 2291 3584 
Q 2894 3584 3203 3211 
Q 3513 2838 3513 2113 
z
" transform="scale(0.015625)"/>
       <path id="DejaVuSans-29" d="M 513 4856 
L 1013 4856 
Q 1481 4119 1714 3412 
Q 1947 2706 1947 2009 
Q 1947 1309 1714 600 
Q 1481 -109 1013 -844 
L 513 -844 
Q 928 -128 1133 580 
Q 1338 1288 1338 2009 
Q 1338 2731 1133 3434 
Q 928 4138 513 4856 
z
" transform="scale(0.015625)"/>
      </defs>
      <use xlink:href="#DejaVuSans-65" transform="translate(0 0.921875)"/>
      <use xlink:href="#DejaVuSans-78" transform="translate(61.523438 0.921875)"/>
      <use xlink:href="#DejaVuSans-70" transform="translate(120.703125 0.921875)"/>
      <use xlink:href="#DejaVuSans-28" transform="translate(184.179688 0.921875)"/>
      <use xlink:href="#DejaVuSans-2212" transform="translate(223.193359 0.921875)"/>
      <use xlink:href="#DejaVuSans-Oblique-3c4" transform="translate(341.982422 44.71875)scale(0.7)"/>
      <use xlink:href="#DejaVuSans-Oblique-54" transform="translate(306.982422 -59.2875)scale(0.7)"/>
      <use xlink:href="#DejaVuSans-70" transform="translate(354.652951 -23.763594)scale(0.49)"/>
      <use xlink:href="#DejaVuSans-68" transform="translate(385.756466 -23.763594)scale(0.49)"/>
      <use xlink:href="#DejaVuSans-31" transform="translate(349.741211 -78.428125)scale(0.49)"/>
      <use xlink:href="#DejaVuSans-29" transform="translate(431.226193 0.921875)"/>
      <path d="M 306.982422 19.71875 
L 306.982422 25.96875 
L 418.726193 25.96875 
L 418.726193 19.71875 
L 306.982422 19.71875 
z
"/>
     </g>
    </g>
   </g>
  </g>
 </g>
 <defs>
  <clipPath id="p4e8e285f98">
   <rect x="40.5" y="25.92" width="251.1" height="166.32"/>
  </clipPath>
 </defs>
</svg>
