<?xml version="1.0" encoding="utf-8" standalone="no"?>
<!DOCTYPE svg PUBLIC "-//W3C//DTD SVG 1.1//EN"
  "http://www.w3.org/Graphics/SVG/1.1/DTD/svg11.dtd">
<svg xmlns:xlink="http://www.w3.org/1999/xlink" width="460.8pt" height="345.6pt" viewBox="0 0 460.8 345.6" xmlns="http://www.w3.org/2000/svg" version="1.1">
 <metadata>
  <rdf:RDF xmlns:dc="http://purl.org/dc/elements/1.1/" xmlns:cc="http://creativecommons.org/ns#" xmlns:rdf="http://www.w3.org/1999/02/22-rdf-syntax-ns#">
   <cc:Work>
    <dc:type rdf:resource="http://purl.org/dc/dcmitype/StillImage"/>
    <dc:date>2022-05-16T17:59:11.059443</dc:date>
    <dc:format>image/svg+xml</dc:format>
    <dc:creator>
     <cc:Agent>
      <dc:title>Matplotlib v3.5.1, https://matplotlib.org/</dc:title>
     </cc:Agent>
    </dc:creator>
   </cc:Work>
  </rdf:RDF>
 </metadata>
 <defs>
  <style type="text/css">*{stroke-linejoin: round; stroke-linecap: butt}</style>
 </defs>
 <g id="figure_1">
  <g id="patch_1">
   <path d="M 0 345.6 
L 460.8 345.6 
L 460.8 0 
L 0 0 
z
" style="fill: #ffffff"/>
  </g>
  <g id="axes_1">
   <g id="patch_2">
    <path d="M 57.6 307.584 
L 414.72 307.584 
L 414.72 41.472 
L 57.6 41.472 
z
" style="fill: #ffffff"/>
   </g>
   <g id="matplotlib.axis_1">
    <g id="xtick_1">
     <g id="line2d_1">
      <defs>
       <path id="m0007ee93d9" d="M 0 0 
L 0 3.5 
" style="stroke: #000000; stroke-width: 0.8"/>
      </defs>
      <g>
       <use xlink:href="#m0007ee93d9" x="72.201297" y="307.584" style="stroke: #000000; stroke-width: 0.8"/>
      </g>
     </g>
     <g id="text_1">
      <!-- 0 -->
      <g transform="translate(68.065672 324.461969)scale(0.13 -0.13)">
       <defs>
        <path id="DejaVuSans-30" d="M 2034 4250 
Q 1547 4250 1301 3770 
Q 1056 3291 1056 2328 
Q 1056 1369 1301 889 
Q 1547 409 2034 409 
Q 2525 409 2770 889 
Q 3016 1369 3016 2328 
Q 3016 3291 2770 3770 
Q 2525 4250 2034 4250 
z
M 2034 4750 
Q 2819 4750 3233 4129 
Q 3647 3509 3647 2328 
Q 3647 1150 3233 529 
Q 2819 -91 2034 -91 
Q 1250 -91 836 529 
Q 422 1150 422 2328 
Q 422 3509 836 4129 
Q 1250 4750 2034 4750 
z
" transform="scale(0.015625)"/>
       </defs>
       <use xlink:href="#DejaVuSans-30"/>
      </g>
     </g>
    </g>
    <g id="xtick_2">
     <g id="line2d_2">
      <g>
       <use xlink:href="#m0007ee93d9" x="137.458492" y="307.584" style="stroke: #000000; stroke-width: 0.8"/>
      </g>
     </g>
     <g id="text_2">
      <!-- 2 -->
      <g transform="translate(133.322867 324.461969)scale(0.13 -0.13)">
       <defs>
        <path id="DejaVuSans-32" d="M 1228 531 
L 3431 531 
L 3431 0 
L 469 0 
L 469 531 
Q 828 903 1448 1529 
Q 2069 2156 2228 2338 
Q 2531 2678 2651 2914 
Q 2772 3150 2772 3378 
Q 2772 3750 2511 3984 
Q 2250 4219 1831 4219 
Q 1534 4219 1204 4116 
Q 875 4013 500 3803 
L 500 4441 
Q 881 4594 1212 4672 
Q 1544 4750 1819 4750 
Q 2544 4750 2975 4387 
Q 3406 4025 3406 3419 
Q 3406 3131 3298 2873 
Q 3191 2616 2906 2266 
Q 2828 2175 2409 1742 
Q 1991 1309 1228 531 
z
" transform="scale(0.015625)"/>
       </defs>
       <use xlink:href="#DejaVuSans-32"/>
      </g>
     </g>
    </g>
    <g id="xtick_3">
     <g id="line2d_3">
      <g>
       <use xlink:href="#m0007ee93d9" x="202.715688" y="307.584" style="stroke: #000000; stroke-width: 0.8"/>
      </g>
     </g>
     <g id="text_3">
      <!-- 4 -->
      <g transform="translate(198.580063 324.461969)scale(0.13 -0.13)">
       <defs>
        <path id="DejaVuSans-34" d="M 2419 4116 
L 825 1625 
L 2419 1625 
L 2419 4116 
z
M 2253 4666 
L 3047 4666 
L 3047 1625 
L 3713 1625 
L 3713 1100 
L 3047 1100 
L 3047 0 
L 2419 0 
L 2419 1100 
L 313 1100 
L 313 1709 
L 2253 4666 
z
" transform="scale(0.015625)"/>
       </defs>
       <use xlink:href="#DejaVuSans-34"/>
      </g>
     </g>
    </g>
    <g id="xtick_4">
     <g id="line2d_4">
      <g>
       <use xlink:href="#m0007ee93d9" x="267.972883" y="307.584" style="stroke: #000000; stroke-width: 0.8"/>
      </g>
     </g>
     <g id="text_4">
      <!-- 6 -->
      <g transform="translate(263.837258 324.461969)scale(0.13 -0.13)">
       <defs>
        <path id="DejaVuSans-36" d="M 2113 2584 
Q 1688 2584 1439 2293 
Q 1191 2003 1191 1497 
Q 1191 994 1439 701 
Q 1688 409 2113 409 
Q 2538 409 2786 701 
Q 3034 994 3034 1497 
Q 3034 2003 2786 2293 
Q 2538 2584 2113 2584 
z
M 3366 4563 
L 3366 3988 
Q 3128 4100 2886 4159 
Q 2644 4219 2406 4219 
Q 1781 4219 1451 3797 
Q 1122 3375 1075 2522 
Q 1259 2794 1537 2939 
Q 1816 3084 2150 3084 
Q 2853 3084 3261 2657 
Q 3669 2231 3669 1497 
Q 3669 778 3244 343 
Q 2819 -91 2113 -91 
Q 1303 -91 875 529 
Q 447 1150 447 2328 
Q 447 3434 972 4092 
Q 1497 4750 2381 4750 
Q 2619 4750 2861 4703 
Q 3103 4656 3366 4563 
z
" transform="scale(0.015625)"/>
       </defs>
       <use xlink:href="#DejaVuSans-36"/>
      </g>
     </g>
    </g>
    <g id="xtick_5">
     <g id="line2d_5">
      <g>
       <use xlink:href="#m0007ee93d9" x="333.230078" y="307.584" style="stroke: #000000; stroke-width: 0.8"/>
      </g>
     </g>
     <g id="text_5">
      <!-- 8 -->
      <g transform="translate(329.094453 324.461969)scale(0.13 -0.13)">
       <defs>
        <path id="DejaVuSans-38" d="M 2034 2216 
Q 1584 2216 1326 1975 
Q 1069 1734 1069 1313 
Q 1069 891 1326 650 
Q 1584 409 2034 409 
Q 2484 409 2743 651 
Q 3003 894 3003 1313 
Q 3003 1734 2745 1975 
Q 2488 2216 2034 2216 
z
M 1403 2484 
Q 997 2584 770 2862 
Q 544 3141 544 3541 
Q 544 4100 942 4425 
Q 1341 4750 2034 4750 
Q 2731 4750 3128 4425 
Q 3525 4100 3525 3541 
Q 3525 3141 3298 2862 
Q 3072 2584 2669 2484 
Q 3125 2378 3379 2068 
Q 3634 1759 3634 1313 
Q 3634 634 3220 271 
Q 2806 -91 2034 -91 
Q 1263 -91 848 271 
Q 434 634 434 1313 
Q 434 1759 690 2068 
Q 947 2378 1403 2484 
z
M 1172 3481 
Q 1172 3119 1398 2916 
Q 1625 2713 2034 2713 
Q 2441 2713 2670 2916 
Q 2900 3119 2900 3481 
Q 2900 3844 2670 4047 
Q 2441 4250 2034 4250 
Q 1625 4250 1398 4047 
Q 1172 3844 1172 3481 
z
" transform="scale(0.015625)"/>
       </defs>
       <use xlink:href="#DejaVuSans-38"/>
      </g>
     </g>
    </g>
    <g id="xtick_6">
     <g id="line2d_6">
      <g>
       <use xlink:href="#m0007ee93d9" x="398.487273" y="307.584" style="stroke: #000000; stroke-width: 0.8"/>
      </g>
     </g>
     <g id="text_6">
      <!-- 10 -->
      <g transform="translate(390.216023 324.461969)scale(0.13 -0.13)">
       <defs>
        <path id="DejaVuSans-31" d="M 794 531 
L 1825 531 
L 1825 4091 
L 703 3866 
L 703 4441 
L 1819 4666 
L 2450 4666 
L 2450 531 
L 3481 531 
L 3481 0 
L 794 0 
L 794 531 
z
" transform="scale(0.015625)"/>
       </defs>
       <use xlink:href="#DejaVuSans-31"/>
       <use xlink:href="#DejaVuSans-30" x="63.623047"/>
      </g>
     </g>
    </g>
   </g>
   <g id="matplotlib.axis_2">
    <g id="ytick_1">
     <g id="line2d_7">
      <defs>
       <path id="m7ea1459522" d="M 0 0 
L -3.5 0 
" style="stroke: #000000; stroke-width: 0.8"/>
      </defs>
      <g>
       <use xlink:href="#m7ea1459522" x="57.6" y="292.996001" style="stroke: #000000; stroke-width: 0.8"/>
      </g>
     </g>
     <g id="text_7">
      <!-- 0.0 -->
      <g transform="translate(29.925937 297.934985)scale(0.13 -0.13)">
       <defs>
        <path id="DejaVuSans-2e" d="M 684 794 
L 1344 794 
L 1344 0 
L 684 0 
L 684 794 
z
" transform="scale(0.015625)"/>
       </defs>
       <use xlink:href="#DejaVuSans-30"/>
       <use xlink:href="#DejaVuSans-2e" x="63.623047"/>
       <use xlink:href="#DejaVuSans-30" x="95.410156"/>
      </g>
     </g>
    </g>
    <g id="ytick_2">
     <g id="line2d_8">
      <g>
       <use xlink:href="#m7ea1459522" x="57.6" y="245.110401" style="stroke: #000000; stroke-width: 0.8"/>
      </g>
     </g>
     <g id="text_8">
      <!-- 0.2 -->
      <g transform="translate(29.925937 250.049385)scale(0.13 -0.13)">
       <use xlink:href="#DejaVuSans-30"/>
       <use xlink:href="#DejaVuSans-2e" x="63.623047"/>
       <use xlink:href="#DejaVuSans-32" x="95.410156"/>
      </g>
     </g>
    </g>
    <g id="ytick_3">
     <g id="line2d_9">
      <g>
       <use xlink:href="#m7ea1459522" x="57.6" y="197.224801" style="stroke: #000000; stroke-width: 0.8"/>
      </g>
     </g>
     <g id="text_9">
      <!-- 0.4 -->
      <g transform="translate(29.925937 202.163785)scale(0.13 -0.13)">
       <use xlink:href="#DejaVuSans-30"/>
       <use xlink:href="#DejaVuSans-2e" x="63.623047"/>
       <use xlink:href="#DejaVuSans-34" x="95.410156"/>
      </g>
     </g>
    </g>
    <g id="ytick_4">
     <g id="line2d_10">
      <g>
       <use xlink:href="#m7ea1459522" x="57.6" y="149.3392" style="stroke: #000000; stroke-width: 0.8"/>
      </g>
     </g>
     <g id="text_10">
      <!-- 0.6 -->
      <g transform="translate(29.925937 154.278185)scale(0.13 -0.13)">
       <use xlink:href="#DejaVuSans-30"/>
       <use xlink:href="#DejaVuSans-2e" x="63.623047"/>
       <use xlink:href="#DejaVuSans-36" x="95.410156"/>
      </g>
     </g>
    </g>
    <g id="ytick_5">
     <g id="line2d_11">
      <g>
       <use xlink:href="#m7ea1459522" x="57.6" y="101.4536" style="stroke: #000000; stroke-width: 0.8"/>
      </g>
     </g>
     <g id="text_11">
      <!-- 0.8 -->
      <g transform="translate(29.925937 106.392585)scale(0.13 -0.13)">
       <use xlink:href="#DejaVuSans-30"/>
       <use xlink:href="#DejaVuSans-2e" x="63.623047"/>
       <use xlink:href="#DejaVuSans-38" x="95.410156"/>
      </g>
     </g>
    </g>
    <g id="ytick_6">
     <g id="line2d_12">
      <g>
       <use xlink:href="#m7ea1459522" x="57.6" y="53.568" style="stroke: #000000; stroke-width: 0.8"/>
      </g>
     </g>
     <g id="text_12">
      <!-- 1.0 -->
      <g transform="translate(29.925937 58.506984)scale(0.13 -0.13)">
       <use xlink:href="#DejaVuSans-31"/>
       <use xlink:href="#DejaVuSans-2e" x="63.623047"/>
       <use xlink:href="#DejaVuSans-30" x="95.410156"/>
      </g>
     </g>
    </g>
   </g>
   <g id="line2d_13">
    <path d="M 73.832727 53.568 
L 75.464157 55.775443 
L 77.095587 69.10355 
L 78.727017 68.911378 
L 80.358447 78.284796 
L 81.989877 81.80204 
L 83.621307 78.927054 
L 85.252736 86.573456 
L 86.884166 89.506601 
L 88.515596 93.122459 
L 90.147026 94.449959 
L 91.778456 100.119019 
L 93.409886 100.424975 
L 95.041316 105.095249 
L 96.672746 104.440349 
L 98.304175 101.954761 
L 99.935605 110.046193 
L 101.567035 114.964266 
L 103.198465 115.768354 
L 104.829895 125.101314 
L 106.461325 125.619671 
L 108.092755 123.207413 
L 109.724185 122.405856 
L 111.355614 136.53299 
L 112.987044 132.646574 
L 114.618474 126.578 
L 116.249904 140.239878 
L 117.881334 137.106975 
L 119.512764 135.455818 
L 121.144194 135.382489 
L 122.775624 146.566364 
L 124.407053 144.409493 
L 126.038483 149.05448 
L 127.669913 144.229964 
L 129.301343 147.898924 
L 130.932773 150.505882 
L 132.564203 151.514782 
L 135.827063 157.755299 
L 137.458492 162.435686 
L 139.089922 161.4723 
L 140.721352 160.273757 
L 142.352782 161.884458 
L 143.984212 162.809915 
L 145.615642 158.549269 
L 147.247072 172.562618 
L 148.878502 170.094733 
L 150.509931 173.637263 
L 152.141361 177.574249 
L 153.772791 180.037079 
L 155.404221 168.332317 
L 157.035651 174.360435 
L 158.667081 186.64424 
L 160.298511 180.219136 
L 161.929941 183.86281 
L 163.56137 186.69734 
L 165.1928 185.890725 
L 166.82423 182.118093 
L 168.45566 194.409485 
L 170.08709 190.818913 
L 171.71852 196.829329 
L 173.34995 189.263841 
L 174.98138 184.65931 
L 176.61281 185.352138 
L 179.875669 201.350417 
L 181.507099 188.727783 
L 183.138529 196.945644 
L 184.769959 198.928044 
L 186.401389 198.40463 
L 188.032819 202.260703 
L 189.664249 197.292058 
L 191.295678 199.952117 
L 192.927108 206.700875 
L 194.558538 202.184846 
L 196.189968 205.717262 
L 197.821398 210.483621 
L 199.452828 208.759134 
L 201.084258 206.276077 
L 202.715688 212.632908 
L 204.347117 212.177765 
L 205.978547 213.955351 
L 207.609977 207.821033 
L 209.241407 219.492925 
L 210.872837 214.314409 
L 212.504267 212.069036 
L 215.767127 224.327556 
L 217.398556 211.290235 
L 219.029986 220.241383 
L 220.661416 221.553711 
L 222.292846 224.40847 
L 223.924276 221.897597 
L 225.555706 220.051739 
L 227.187136 224.686613 
L 228.818566 220.289425 
L 230.449995 220.575154 
L 232.081425 220.516996 
L 233.712855 226.790385 
L 235.344285 223.141655 
L 236.975715 235.776932 
L 238.607145 226.130428 
L 240.238575 234.709874 
L 241.870005 221.723126 
L 243.501434 229.291143 
L 245.132864 229.983972 
L 246.764294 235.218116 
L 248.395724 236.639175 
L 250.027154 237.544404 
L 251.658584 227.13427 
L 253.290014 231.561801 
L 254.921444 232.118086 
L 256.552873 239.033733 
L 258.184303 235.832561 
L 259.815733 228.838529 
L 261.447163 247.150451 
L 263.078593 240.495247 
L 264.710023 234.886874 
L 266.341453 233.314102 
L 267.972883 240.538234 
L 269.604312 244.290634 
L 271.235742 235.665674 
L 272.867172 245.418378 
L 274.498602 240.500305 
L 276.130032 240.518005 
L 277.761462 248.647366 
L 279.392892 246.829322 
L 281.024322 242.19192 
L 282.655751 246.113736 
L 284.287181 248.290837 
L 285.918611 245.264135 
L 287.550041 244.085821 
L 289.181471 244.06812 
L 290.812901 240.429505 
L 294.075761 245.471479 
L 295.70719 250.728382 
L 297.33862 249.845909 
L 298.97005 253.537625 
L 300.60148 248.773794 
L 302.23291 247.484223 
L 303.86434 249.228936 
L 305.49577 255.416354 
L 307.1272 252.811925 
L 308.75863 253.267068 
L 310.390059 251.481896 
L 312.021489 258.020784 
L 313.652919 250.743552 
L 315.284349 258.908312 
L 316.915779 249.990037 
L 318.547209 251.974967 
L 320.178639 260.395113 
L 321.810069 258.513857 
L 323.441498 254.910639 
L 325.072928 260.197885 
L 326.704358 255.704613 
L 328.335788 261.178971 
L 329.967218 265.219631 
L 331.598648 258.147213 
L 333.230078 265.052745 
L 334.861508 264.010973 
L 336.492937 262.779558 
L 338.124367 262.157528 
L 339.755797 254.34424 
L 341.387227 259.970313 
L 343.018657 263.973044 
L 344.650087 258.999341 
L 346.281517 265.834073 
L 347.912947 266.913773 
L 349.544376 258.210427 
L 351.175806 261.5001 
L 352.807236 268.307016 
L 356.070096 260.374885 
L 357.701526 267.330987 
L 359.332956 260.230755 
L 360.964386 263.720186 
L 362.595815 256.678111 
L 364.227245 265.689945 
L 365.858675 264.420601 
L 367.490105 265.444673 
L 369.121535 273.460248 
L 370.752965 263.0577 
L 372.384395 263.889601 
L 374.015825 269.685089 
L 375.647254 264.954131 
L 377.278684 267.199503 
L 378.910114 270.656062 
L 380.541544 265.614087 
L 382.172974 264.137401 
L 383.804404 277.908007 
L 385.435834 269.465103 
L 387.067264 265.090673 
L 388.698693 264.966773 
L 390.330123 276.261906 
L 391.961553 268.577573 
L 393.592983 270.481589 
L 396.855843 269.472689 
L 398.487273 269.209717 
L 398.487273 269.209717 
" clip-path="url(#pd71922e222)" style="fill: none; stroke: #1f77b4; stroke-width: 1.5; stroke-linecap: square"/>
   </g>
   <g id="line2d_14">
    <path d="M 73.832727 53.568 
L 75.464157 69.521821 
L 77.095587 84.211823 
L 78.727017 95.926183 
L 80.358447 110.524197 
L 81.989877 123.068961 
L 83.621307 127.817024 
L 85.252736 135.150488 
L 86.884166 144.842679 
L 88.515596 156.429102 
L 91.778456 169.725782 
L 93.409886 172.417299 
L 95.041316 179.082828 
L 96.672746 183.220568 
L 98.304175 189.098861 
L 99.935605 192.596294 
L 101.567035 197.12302 
L 103.198465 200.590785 
L 104.829895 203.712887 
L 108.092755 213.333182 
L 109.724185 213.583088 
L 111.355614 215.502595 
L 112.987044 217.213166 
L 114.618474 221.223598 
L 116.249904 223.224261 
L 119.512764 236.836149 
L 121.144194 236.169628 
L 122.775624 238.206396 
L 124.407053 234.333005 
L 126.038483 238.060408 
L 127.669913 243.060104 
L 129.301343 246.651408 
L 130.932773 242.757768 
L 132.564203 243.670586 
L 134.195633 250.049946 
L 135.827063 252.659992 
L 137.458492 247.42703 
L 139.089922 255.327177 
L 140.721352 256.199808 
L 142.352782 252.382144 
L 143.984212 256.996463 
L 145.615642 256.803853 
L 147.247072 257.937223 
L 148.878502 262.037287 
L 150.509931 259.139818 
L 152.141361 264.265566 
L 153.772791 259.81466 
L 155.404221 264.132764 
L 157.035651 263.343958 
L 158.667081 265.517609 
L 160.298511 266.853164 
L 161.929941 268.486189 
L 163.56137 269.293518 
L 165.1928 269.064961 
L 166.82423 266.628217 
L 168.45566 269.43464 
L 170.08709 271.211612 
L 171.71852 272.187534 
L 173.34995 272.602108 
L 174.98138 271.644238 
L 176.61281 273.424978 
L 178.244239 271.897127 
L 179.875669 273.466891 
L 181.507099 272.776666 
L 183.138529 274.141261 
L 184.769959 276.678783 
L 186.401389 271.841715 
L 188.032819 275.232717 
L 189.664249 278.070221 
L 191.295678 276.425737 
L 192.927108 278.275232 
L 194.558538 278.181518 
L 196.189968 278.290145 
L 197.821398 279.748612 
L 199.452828 278.294854 
L 201.084258 278.44775 
L 202.715688 277.883577 
L 204.347117 281.04194 
L 205.978547 280.755772 
L 207.609977 280.753889 
L 209.241407 279.866188 
L 210.872837 280.254704 
L 212.504267 282.288332 
L 214.135697 281.546933 
L 215.767127 281.491363 
L 217.398556 283.357969 
L 219.029986 283.929049 
L 220.661416 283.556544 
L 222.292846 284.087124 
L 223.924276 283.757317 
L 225.555706 282.666802 
L 228.818566 280.844307 
L 230.449995 284.984557 
L 232.081425 285.541823 
L 233.712855 284.269373 
L 235.344285 285.681375 
L 236.975715 286.416024 
L 238.607145 286.839232 
L 240.238575 284.212862 
L 241.870005 286.196885 
L 243.501434 285.771951 
L 245.132864 283.082946 
L 246.764294 285.495829 
L 248.395724 284.469047 
L 250.027154 285.444027 
L 251.658584 286.997151 
L 253.290014 285.367737 
L 254.921444 288.284671 
L 256.552873 285.628474 
L 258.184303 288.089863 
L 259.815733 287.035296 
L 261.447163 288.868309 
L 263.078593 286.301432 
L 266.341453 290.727693 
L 267.972883 286.890721 
L 269.604312 288.610867 
L 271.235742 289.160441 
L 272.867172 284.520065 
L 274.498602 289.453516 
L 276.130032 287.45301 
L 277.761462 287.822689 
L 279.392892 288.622955 
L 281.024322 288.889029 
L 284.287181 288.088764 
L 285.918611 285.909462 
L 289.181471 291.627481 
L 290.812901 289.884573 
L 292.444331 290.605565 
L 294.075761 289.2934 
L 295.70719 290.250485 
L 297.33862 289.071907 
L 298.97005 290.845268 
L 300.60148 289.583807 
L 302.23291 290.182985 
L 303.86434 288.551373 
L 305.49577 289.795725 
L 307.1272 288.070869 
L 308.75863 290.028991 
L 310.390059 290.538223 
L 312.021489 291.831394 
L 313.652919 291.773155 
L 315.284349 292.201701 
L 316.915779 291.751493 
L 318.547209 287.360551 
L 320.178639 291.861533 
L 321.810069 289.734818 
L 323.441498 289.425417 
L 325.072928 290.383287 
L 326.704358 289.842504 
L 328.335788 290.774001 
L 329.967218 291.506452 
L 331.598648 290.035898 
L 333.230078 292.903228 
L 334.861508 289.158244 
L 336.492937 290.730833 
L 338.124367 292.81328 
L 339.755797 289.556493 
L 341.387227 289.497941 
L 343.018657 293.419366 
L 344.650087 289.404226 
L 346.281517 288.999384 
L 347.912947 295.488 
L 349.544376 288.009648 
L 351.175806 294.541119 
L 352.807236 289.834812 
L 354.438666 290.704147 
L 356.070096 289.646911 
L 359.332956 292.97528 
L 362.595815 291.365802 
L 364.227245 291.218087 
L 365.858675 290.679972 
L 367.490105 292.686444 
L 369.121535 292.360247 
L 370.752965 290.912925 
L 372.384395 291.80926 
L 374.015825 291.94426 
L 375.647254 291.843324 
L 377.278684 292.694606 
L 378.910114 292.087265 
L 380.541544 291.332052 
L 382.172974 291.862946 
L 383.804404 291.632975 
L 385.435834 293.548086 
L 387.067264 292.008149 
L 388.698693 293.230367 
L 390.330123 290.16195 
L 391.961553 291.52372 
L 393.592983 292.0273 
L 395.224413 291.243203 
L 396.855843 291.288569 
L 398.487273 292.016783 
L 398.487273 292.016783 
" clip-path="url(#pd71922e222)" style="fill: none; stroke: #ff7f0e; stroke-width: 1.5; stroke-linecap: square"/>
   </g>
   <g id="patch_3">
    <path d="M 57.6 307.584 
L 57.6 41.472 
" style="fill: none; stroke: #000000; stroke-width: 0.8; stroke-linejoin: miter; stroke-linecap: square"/>
   </g>
   <g id="patch_4">
    <path d="M 414.72 307.584 
L 414.72 41.472 
" style="fill: none; stroke: #000000; stroke-width: 0.8; stroke-linejoin: miter; stroke-linecap: square"/>
   </g>
   <g id="patch_5">
    <path d="M 57.6 307.584 
L 414.72 307.584 
" style="fill: none; stroke: #000000; stroke-width: 0.8; stroke-linejoin: miter; stroke-linecap: square"/>
   </g>
   <g id="patch_6">
    <path d="M 57.6 41.472 
L 414.72 41.472 
" style="fill: none; stroke: #000000; stroke-width: 0.8; stroke-linejoin: miter; stroke-linecap: square"/>
   </g>
   <g id="legend_1">
    <g id="patch_7">
     <path d="M 295.391875 78.82825 
L 407.72 78.82825 
Q 409.72 78.82825 409.72 76.82825 
L 409.72 48.472 
Q 409.72 46.472 407.72 46.472 
L 295.391875 46.472 
Q 293.391875 46.472 293.391875 48.472 
L 293.391875 76.82825 
Q 293.391875 78.82825 295.391875 78.82825 
z
" style="fill: #ffffff; opacity: 0.8; stroke: #cccccc; stroke-linejoin: miter"/>
    </g>
    <g id="line2d_15">
     <path d="M 297.391875 54.570437 
L 307.391875 54.570437 
L 317.391875 54.570437 
" style="fill: none; stroke: #1f77b4; stroke-width: 1.5; stroke-linecap: square"/>
    </g>
    <g id="text_13">
     <!-- Low NV density -->
     <g transform="translate(325.391875 58.070437)scale(0.1 -0.1)">
      <defs>
       <path id="DejaVuSans-4c" d="M 628 4666 
L 1259 4666 
L 1259 531 
L 3531 531 
L 3531 0 
L 628 0 
L 628 4666 
z
" transform="scale(0.015625)"/>
       <path id="DejaVuSans-6f" d="M 1959 3097 
Q 1497 3097 1228 2736 
Q 959 2375 959 1747 
Q 959 1119 1226 758 
Q 1494 397 1959 397 
Q 2419 397 2687 759 
Q 2956 1122 2956 1747 
Q 2956 2369 2687 2733 
Q 2419 3097 1959 3097 
z
M 1959 3584 
Q 2709 3584 3137 3096 
Q 3566 2609 3566 1747 
Q 3566 888 3137 398 
Q 2709 -91 1959 -91 
Q 1206 -91 779 398 
Q 353 888 353 1747 
Q 353 2609 779 3096 
Q 1206 3584 1959 3584 
z
" transform="scale(0.015625)"/>
       <path id="DejaVuSans-77" d="M 269 3500 
L 844 3500 
L 1563 769 
L 2278 3500 
L 2956 3500 
L 3675 769 
L 4391 3500 
L 4966 3500 
L 4050 0 
L 3372 0 
L 2619 2869 
L 1863 0 
L 1184 0 
L 269 3500 
z
" transform="scale(0.015625)"/>
       <path id="DejaVuSans-20" transform="scale(0.015625)"/>
       <path id="DejaVuSans-4e" d="M 628 4666 
L 1478 4666 
L 3547 763 
L 3547 4666 
L 4159 4666 
L 4159 0 
L 3309 0 
L 1241 3903 
L 1241 0 
L 628 0 
L 628 4666 
z
" transform="scale(0.015625)"/>
       <path id="DejaVuSans-56" d="M 1831 0 
L 50 4666 
L 709 4666 
L 2188 738 
L 3669 4666 
L 4325 4666 
L 2547 0 
L 1831 0 
z
" transform="scale(0.015625)"/>
       <path id="DejaVuSans-64" d="M 2906 2969 
L 2906 4863 
L 3481 4863 
L 3481 0 
L 2906 0 
L 2906 525 
Q 2725 213 2448 61 
Q 2172 -91 1784 -91 
Q 1150 -91 751 415 
Q 353 922 353 1747 
Q 353 2572 751 3078 
Q 1150 3584 1784 3584 
Q 2172 3584 2448 3432 
Q 2725 3281 2906 2969 
z
M 947 1747 
Q 947 1113 1208 752 
Q 1469 391 1925 391 
Q 2381 391 2643 752 
Q 2906 1113 2906 1747 
Q 2906 2381 2643 2742 
Q 2381 3103 1925 3103 
Q 1469 3103 1208 2742 
Q 947 2381 947 1747 
z
" transform="scale(0.015625)"/>
       <path id="DejaVuSans-65" d="M 3597 1894 
L 3597 1613 
L 953 1613 
Q 991 1019 1311 708 
Q 1631 397 2203 397 
Q 2534 397 2845 478 
Q 3156 559 3463 722 
L 3463 178 
Q 3153 47 2828 -22 
Q 2503 -91 2169 -91 
Q 1331 -91 842 396 
Q 353 884 353 1716 
Q 353 2575 817 3079 
Q 1281 3584 2069 3584 
Q 2775 3584 3186 3129 
Q 3597 2675 3597 1894 
z
M 3022 2063 
Q 3016 2534 2758 2815 
Q 2500 3097 2075 3097 
Q 1594 3097 1305 2825 
Q 1016 2553 972 2059 
L 3022 2063 
z
" transform="scale(0.015625)"/>
       <path id="DejaVuSans-6e" d="M 3513 2113 
L 3513 0 
L 2938 0 
L 2938 2094 
Q 2938 2591 2744 2837 
Q 2550 3084 2163 3084 
Q 1697 3084 1428 2787 
Q 1159 2491 1159 1978 
L 1159 0 
L 581 0 
L 581 3500 
L 1159 3500 
L 1159 2956 
Q 1366 3272 1645 3428 
Q 1925 3584 2291 3584 
Q 2894 3584 3203 3211 
Q 3513 2838 3513 2113 
z
" transform="scale(0.015625)"/>
       <path id="DejaVuSans-73" d="M 2834 3397 
L 2834 2853 
Q 2591 2978 2328 3040 
Q 2066 3103 1784 3103 
Q 1356 3103 1142 2972 
Q 928 2841 928 2578 
Q 928 2378 1081 2264 
Q 1234 2150 1697 2047 
L 1894 2003 
Q 2506 1872 2764 1633 
Q 3022 1394 3022 966 
Q 3022 478 2636 193 
Q 2250 -91 1575 -91 
Q 1294 -91 989 -36 
Q 684 19 347 128 
L 347 722 
Q 666 556 975 473 
Q 1284 391 1588 391 
Q 1994 391 2212 530 
Q 2431 669 2431 922 
Q 2431 1156 2273 1281 
Q 2116 1406 1581 1522 
L 1381 1569 
Q 847 1681 609 1914 
Q 372 2147 372 2553 
Q 372 3047 722 3315 
Q 1072 3584 1716 3584 
Q 2034 3584 2315 3537 
Q 2597 3491 2834 3397 
z
" transform="scale(0.015625)"/>
       <path id="DejaVuSans-69" d="M 603 3500 
L 1178 3500 
L 1178 0 
L 603 0 
L 603 3500 
z
M 603 4863 
L 1178 4863 
L 1178 4134 
L 603 4134 
L 603 4863 
z
" transform="scale(0.015625)"/>
       <path id="DejaVuSans-74" d="M 1172 4494 
L 1172 3500 
L 2356 3500 
L 2356 3053 
L 1172 3053 
L 1172 1153 
Q 1172 725 1289 603 
Q 1406 481 1766 481 
L 2356 481 
L 2356 0 
L 1766 0 
Q 1100 0 847 248 
Q 594 497 594 1153 
L 594 3053 
L 172 3053 
L 172 3500 
L 594 3500 
L 594 4494 
L 1172 4494 
z
" transform="scale(0.015625)"/>
       <path id="DejaVuSans-79" d="M 2059 -325 
Q 1816 -950 1584 -1140 
Q 1353 -1331 966 -1331 
L 506 -1331 
L 506 -850 
L 844 -850 
Q 1081 -850 1212 -737 
Q 1344 -625 1503 -206 
L 1606 56 
L 191 3500 
L 800 3500 
L 1894 763 
L 2988 3500 
L 3597 3500 
L 2059 -325 
z
" transform="scale(0.015625)"/>
      </defs>
      <use xlink:href="#DejaVuSans-4c"/>
      <use xlink:href="#DejaVuSans-6f" x="53.962891"/>
      <use xlink:href="#DejaVuSans-77" x="115.144531"/>
      <use xlink:href="#DejaVuSans-20" x="196.931641"/>
      <use xlink:href="#DejaVuSans-4e" x="228.71875"/>
      <use xlink:href="#DejaVuSans-56" x="303.523438"/>
      <use xlink:href="#DejaVuSans-20" x="371.931641"/>
      <use xlink:href="#DejaVuSans-64" x="403.71875"/>
      <use xlink:href="#DejaVuSans-65" x="467.195312"/>
      <use xlink:href="#DejaVuSans-6e" x="528.71875"/>
      <use xlink:href="#DejaVuSans-73" x="592.097656"/>
      <use xlink:href="#DejaVuSans-69" x="644.197266"/>
      <use xlink:href="#DejaVuSans-74" x="671.980469"/>
      <use xlink:href="#DejaVuSans-79" x="711.189453"/>
     </g>
    </g>
    <g id="line2d_16">
     <path d="M 297.391875 69.248562 
L 307.391875 69.248562 
L 317.391875 69.248562 
" style="fill: none; stroke: #ff7f0e; stroke-width: 1.5; stroke-linecap: square"/>
    </g>
    <g id="text_14">
     <!-- High NV density -->
     <g transform="translate(325.391875 72.748562)scale(0.1 -0.1)">
      <defs>
       <path id="DejaVuSans-48" d="M 628 4666 
L 1259 4666 
L 1259 2753 
L 3553 2753 
L 3553 4666 
L 4184 4666 
L 4184 0 
L 3553 0 
L 3553 2222 
L 1259 2222 
L 1259 0 
L 628 0 
L 628 4666 
z
" transform="scale(0.015625)"/>
       <path id="DejaVuSans-67" d="M 2906 1791 
Q 2906 2416 2648 2759 
Q 2391 3103 1925 3103 
Q 1463 3103 1205 2759 
Q 947 2416 947 1791 
Q 947 1169 1205 825 
Q 1463 481 1925 481 
Q 2391 481 2648 825 
Q 2906 1169 2906 1791 
z
M 3481 434 
Q 3481 -459 3084 -895 
Q 2688 -1331 1869 -1331 
Q 1566 -1331 1297 -1286 
Q 1028 -1241 775 -1147 
L 775 -588 
Q 1028 -725 1275 -790 
Q 1522 -856 1778 -856 
Q 2344 -856 2625 -561 
Q 2906 -266 2906 331 
L 2906 616 
Q 2728 306 2450 153 
Q 2172 0 1784 0 
Q 1141 0 747 490 
Q 353 981 353 1791 
Q 353 2603 747 3093 
Q 1141 3584 1784 3584 
Q 2172 3584 2450 3431 
Q 2728 3278 2906 2969 
L 2906 3500 
L 3481 3500 
L 3481 434 
z
" transform="scale(0.015625)"/>
       <path id="DejaVuSans-68" d="M 3513 2113 
L 3513 0 
L 2938 0 
L 2938 2094 
Q 2938 2591 2744 2837 
Q 2550 3084 2163 3084 
Q 1697 3084 1428 2787 
Q 1159 2491 1159 1978 
L 1159 0 
L 581 0 
L 581 4863 
L 1159 4863 
L 1159 2956 
Q 1366 3272 1645 3428 
Q 1925 3584 2291 3584 
Q 2894 3584 3203 3211 
Q 3513 2838 3513 2113 
z
" transform="scale(0.015625)"/>
      </defs>
      <use xlink:href="#DejaVuSans-48"/>
      <use xlink:href="#DejaVuSans-69" x="75.195312"/>
      <use xlink:href="#DejaVuSans-67" x="102.978516"/>
      <use xlink:href="#DejaVuSans-68" x="166.455078"/>
      <use xlink:href="#DejaVuSans-20" x="229.833984"/>
      <use xlink:href="#DejaVuSans-4e" x="261.621094"/>
      <use xlink:href="#DejaVuSans-56" x="336.425781"/>
      <use xlink:href="#DejaVuSans-20" x="404.833984"/>
      <use xlink:href="#DejaVuSans-64" x="436.621094"/>
      <use xlink:href="#DejaVuSans-65" x="500.097656"/>
      <use xlink:href="#DejaVuSans-6e" x="561.621094"/>
      <use xlink:href="#DejaVuSans-73" x="625"/>
      <use xlink:href="#DejaVuSans-69" x="677.099609"/>
      <use xlink:href="#DejaVuSans-74" x="704.882812"/>
      <use xlink:href="#DejaVuSans-79" x="744.091797"/>
     </g>
    </g>
   </g>
  </g>
 </g>
 <defs>
  <clipPath id="pd71922e222">
   <rect x="57.6" y="41.472" width="357.12" height="266.112"/>
  </clipPath>
 </defs>
</svg>
